<?xml version="1.0"?>
<svg xmlns="http://www.w3.org/2000/svg" xmlns:xlink="http://www.w3.org/1999/xlink" xmlns:svgjs="http://svgjs.com/svgjs" version="1.1" width="512" height="512" x="0" y="0" viewBox="0 0 512 512" style="enable-background:new 0 0 512 512" xml:space="preserve" class=""><g><g xmlns="http://www.w3.org/2000/svg"><circle cx="256" cy="256" fill="#f1f1f1" r="256" data-original="#f0ca6c" style="" class=""/><path d="m499.976 333.713c-22.612-22.618-216.2-216.199-216.2-216.199l-148.127 91.58 18.516 18 19.493 56.702s18.31 18.333 18.47 18.493l-94.128 111.711 88.426 88.426c22.123 6.234 45.458 9.574 69.574 9.574 114.289 0 211.072-74.9 243.976-178.287z" fill="#f1f1f1" data-original="#e6973e" style="" class=""/><g><g><path d="m395.484 404.742h-18.516v-85.529c0-2.432-.986-4.819-2.712-6.546l-18.516-18.516 13.091-13.091 18.516 18.516c5.244 5.244 8.137 12.223 8.137 19.637z" fill="#c7cdde" data-original="#c7cdde" style=""/></g><g><path d="m218.969 153.547h-64.805v83.938c0 35.79 29.014 64.805 64.805 64.805 35.79 0 64.805-29.014 64.805-64.805v-83.938z" fill="#f5dbca" data-original="#f5dbca" style="" class=""/><path d="m283.773 237.484v-83.938h-64.805v148.742c35.791.001 64.805-29.013 64.805-64.804z" fill="#efbeaa" data-original="#efbeaa" style="" class=""/></g><g><path d="m349.195 302.289c-15.315 0-27.773-12.458-27.773-27.773s12.458-27.773 27.773-27.773 27.773 12.458 27.773 27.773c.001 15.315-12.458 27.773-27.773 27.773z" fill="#dfe5f2" data-original="#dfe5f2" style=""/></g><g><path d="m358.453 395.484h55.547v18.516h-55.547z" fill="#373c41" data-original="#373c41" style=""/></g><path d="m189.344 302.289h-44.437c-25.522 0-46.906 20.767-46.906 46.289v65.422h107.878l-27.773-65.422z" fill="#4b5055" data-original="#4b5055" style="" class=""/><path d="m339.938 348.578c0-25.522-21.384-46.289-46.906-46.289h-44.438l11.24 46.289-27.774 65.422h107.878z" fill="#373c41" data-original="#373c41" style=""/><path d="m248.593 302.289-29.624 58.395-29.625-58.395-48.271 46.289 64.805 65.422h13.091 13.091l64.805-65.422z" fill="#5a5f64" data-original="#5a5f64" style=""/><path d="m296.865 348.578-48.272-46.289-29.624 58.395v53.316h13.091z" fill="#4b5055" data-original="#4b5055" style="" class=""/><path d="m218.969 302.289h-29.625l29.625 76.91 29.624-76.91z" fill="#f1f1fa" data-original="#f1f1fa" style=""/><path d="m218.969 302.289v76.91l29.624-76.91z" fill="#dfe5f2" data-original="#dfe5f2" style=""/><path d="m237.484 98h-9.258l-9.258 18.516-9.257-18.516h-9.258c-35.735 0-64.805 29.07-64.805 64.805v46.289h46.289c10.183 0 18.516-8.332 18.516-18.516 0-10.183 8.332-18.516 18.516-18.516 10.183 0 18.516 8.332 18.516 18.516 0 10.183 8.332 18.516 18.516 18.516h46.289v-46.289c-.001-35.735-29.071-64.805-64.806-64.805z" fill="#7f584f" data-original="#7f584f" style="" class=""/><path d="m237.484 190.578c0 10.183 8.332 18.516 18.516 18.516h46.289v-46.289c0-35.735-29.07-64.805-64.805-64.805h-9.258l-9.258 18.516v55.547c10.184-.001 18.516 8.332 18.516 18.515z" fill="#5b362d" data-original="#5b362d" style=""/><path d="m218.969 98h-9.258v37.031h9.258 9.258v-37.031z" fill="#5b362d" data-original="#5b362d" style=""/><path d="m218.969 98h9.258v37.031h-9.258z" fill="#45251e" data-original="#45251e" style=""/></g></g></g></svg>
