<?xml version="1.0" encoding="utf-8"?>
<svg version="1.1" id="Layer_1" xmlns="http://www.w3.org/2000/svg" xmlns:xlink="http://www.w3.org/1999/xlink" x="0px" y="0px"
	width="100px" height="100px" viewBox="0 0 100 100" style="enable-background:new 0 0 100 100;" xml:space="preserve">
<g>
	<g>
		<circle style="fill:#E8E8E8;" cx="50" cy="50" r="50"/>
		<circle style="fill:#FFFFFF;" cx="50" cy="50" r="49"/>
	</g>
	<g id="Page-1">
		<g id="OVO_LOGO" transform="translate(-1.000000, 0.000000)">
			<g id="Group">
				<path id="Path" style="fill:#0A9928;" d="M28.6,36.5c3.5,0,6.7,1,9.3,2.8l-0.9-2.4h10l3.4,11.8l0.7,2.7c0,0,0.4-1.3,0.7-2.7
					l3.5-11.8h10l-0.8,2.5c2.5-1.9,5.8-2.8,9.3-2.8c0.5,0,0.9,0,1.5,0.1L70,17.7L18.2,31.3l2,7.5C22.6,37.4,25.5,36.5,28.6,36.5z"/>
				<path id="Path_1_" style="fill:#0A9928;" d="M73.7,45.1c-3.1,0-4.9,2.3-4.9,5.1c0,3,2,5,4.9,5c2.9,0,4.9-2.1,4.9-5
					c0-0.4,0-0.8-0.1-1.1l-0.2-0.6C77.7,46.5,76,45.1,73.7,45.1z"/>
				<path id="Path_2_" style="fill:#0A9928;" d="M33.5,50.1c0-2.8-1.9-5.1-4.9-5.1s-4.9,2.3-4.9,5.1c0,3,2,5,4.9,5
					C31.5,55.2,33.5,53.1,33.5,50.1z"/>
				<path id="Path_3_" style="fill:#0A9928;" d="M73.7,63.4c-7.3,0-13.3-4-14.4-10.9L55.2,63h-8.1l-4.1-10.5
					c-1.2,6.8-7.2,10.9-14.4,10.9c-0.5,0-1.2,0-1.7-0.1L32,82.3l51.8-13.7l-2-7.4C79.6,62.6,76.7,63.4,73.7,63.4z"/>
			</g>
		</g>
	</g>
</g>
</svg>
