<?xml version="1.0" encoding="utf-8"?>
<svg version="1.1" id="Layer_1" xmlns="http://www.w3.org/2000/svg" xmlns:xlink="http://www.w3.org/1999/xlink" x="0px" y="0px"
	width="100px" height="100px" viewBox="0 0 99.9 99.9" style="enable-background:new 0 0 99.9 99.9;" xml:space="preserve">
<g>
	<circle cx="49.9" cy="49.9" r="49.9"/>
	<g>
		<path style="fill:#FFFFFF;" d="M38.5,29.9v24.9h-2.3V34.5L28,50.4h-1.6l-8.2-15.9v20.3h-2.3V29.9h2.4l8.9,17.2l8.9-17.2H38.5
			L38.5,29.9z M62.8,55.2l-4.2-4.4c-1.5,2.4-3.5,4.1-6.9,4.1c-4.3,0-7.5-3-7.5-6.7c0-3.1,1.9-5,5.5-7c-2.1-2.1-3.2-3.8-3.2-5.8
			c0-3,2.5-5.3,5.5-5.3c3.2,0,5.6,2.4,5.6,5.3c0,2.9-2.3,4.8-4.5,6.3l5.1,5.6l3-4.9l1.8,1.1l-3.4,5.5l4.6,4.9L62.8,55.2z M51.2,42.7
			c-3.2,1.8-4.7,3.2-4.7,5.4c0,2.5,2.3,4.6,5.2,4.6c2.6,0,4-1.2,5.5-3.6L51.2,42.7z M48.8,35.3c0,1.4,0.9,2.6,3,4.8
			c2.4-1.4,3.7-2.9,3.7-4.8c0-1.9-1.3-3.3-3.4-3.3C50.1,32,48.8,33.6,48.8,35.3 M83.8,35.2L81.7,36c-0.8-2.6-3.1-4.3-6.3-4.3
			c-3.4,0-5.7,1.7-5.7,4.6C69.7,42.5,84,39.2,84,48c0,4.2-3.4,7.1-8.4,7.1c-4.6,0-7.4-2.2-9.4-5.7l1.9-1.2c1.3,2.7,3.6,4.8,7.2,4.8
			c4.1,0,6.3-1.9,6.3-5c0-6.3-14.2-3.2-14.2-11.7c0-5,4.5-6.7,7.9-6.7C79.1,29.6,82.6,31.3,83.8,35.2"/>
		<polygon style="fill:#FFFFFF;" points="32.3,67.8 34.7,67.8 34.7,67.2 32.3,67.2 32.3,65.6 34.9,65.6 34.9,64.9 31.6,64.9 
			31.6,70.2 35,70.2 35,69.5 32.3,69.5 		"/>
		<path style="fill:#FFFFFF;" d="M38.5,67.2L38.5,67.2c-0.8-0.2-1.2-0.4-1.2-0.9s0.4-0.8,1-0.8c0.5,0,0.9,0.2,1.1,0.6l0.1,0.2
			l0.6-0.3l0-0.1c-0.4-0.9-1.4-1-1.6-1c-0.6,0-1.7,0.3-1.7,1.4c0,1,0.9,1.3,1.7,1.5c0.8,0.2,1.2,0.4,1.2,0.9c0,0.5-0.5,0.9-1.2,0.9
			c-0.7,0-1.1-0.3-1.4-0.8l-0.1-0.2L36.4,69l0.1,0.1c0.4,0.7,1.1,1.2,2,1.2c1.1,0,1.9-0.6,1.9-1.6C40.2,67.7,39.3,67.4,38.5,67.2"/>
		<polygon style="fill:#FFFFFF;" points="41.4,65.6 43,65.6 43,70.2 43.7,70.2 43.7,65.6 45.3,65.6 45.3,64.9 41.4,64.9 		"/>
		<polygon style="fill:#FFFFFF;" points="50.9,65.8 51.7,65.8 51.7,70.2 52.4,70.2 52.4,65.1 51,65.1 		"/>
		<path style="fill:#FFFFFF;" d="M67.4,65.1H67l-2.4,3.4V69h2.5v1.2h0.7V69h0.6v-0.6l-0.6-0.1v-3.2H67.4 M65.5,68.3l1.6-2.3v2.3
			H65.5z"/>
		<path style="fill:#FFFFFF;" d="M57.1,67.5c0.4-0.2,0.7-0.6,0.7-1.1c0-0.9-0.7-1.4-1.6-1.4c-0.9,0-1.6,0.5-1.6,1.4
			c0,0.5,0.2,0.9,0.7,1.1c-0.5,0.2-0.8,0.6-0.8,1.2c0,0.9,0.6,1.5,1.8,1.5c1.1,0,1.8-0.6,1.8-1.5C58,68.1,57.6,67.7,57.1,67.5
			 M55.2,66.4c0-0.5,0.3-0.8,1-0.8c0.6,0,1,0.3,1,0.8s-0.5,0.8-1,0.8C55.6,67.3,55.2,66.9,55.2,66.4 M56.2,69.7
			c-0.6,0-1.1-0.3-1.1-1c0-0.6,0.5-0.9,1.1-0.9c0.6,0,1.1,0.3,1.1,0.9C57.3,69.3,56.8,69.7,56.2,69.7"/>
		<path style="fill:#FFFFFF;" d="M62.1,67.5c0.4-0.2,0.7-0.6,0.7-1.1c0-0.9-0.7-1.4-1.6-1.4c-0.9,0-1.6,0.5-1.6,1.4
			c0,0.5,0.2,0.9,0.7,1.1c-0.5,0.2-0.8,0.6-0.8,1.2c0,0.9,0.6,1.5,1.8,1.5c1.1,0,1.8-0.6,1.8-1.5C62.9,68.1,62.6,67.7,62.1,67.5
			 M60.2,66.4c0-0.5,0.4-0.8,1-0.8c0.6,0,1,0.3,1,0.8s-0.5,0.8-1,0.8C60.6,67.3,60.2,66.9,60.2,66.4 M61.2,69.7
			c-0.6,0-1.1-0.3-1.1-1c0-0.6,0.5-0.9,1.1-0.9c0.6,0,1.1,0.3,1.1,0.9C62.3,69.3,61.8,69.7,61.2,69.7"/>
	</g>
</g>
</svg>
