<?xml version="1.0" encoding="utf-8"?>
<svg version="1.1" id="Layer_1" xmlns="http://www.w3.org/2000/svg" xmlns:xlink="http://www.w3.org/1999/xlink" x="0px" y="0px"
	 viewBox="0 0 1152.02 503.04" style="enable-background:new 0 0 1152.02 503.04;" xml:space="preserve">
<g>
	<g>
		<path style="fill:#EC0677;" d="M79.36,39.68C79.36,17.92,61.44,0,39.68,0S0,17.92,0,39.68v423.68c0,21.76,17.92,39.68,39.68,39.68
			s39.68-17.92,39.68-39.68V295.68c0-40.96,33.28-74.24,74.24-74.24s74.24,33.28,74.24,74.24v167.68
			c0,21.76,17.92,39.68,39.68,39.68s39.68-17.92,39.68-39.68V295.68c0-85.12-69.12-154.24-154.24-154.24
			c-26.88,0-52.48,7.04-74.24,19.2V39.68H79.36z"/>
		<path style="fill:#EC0677;" d="M625.28,288.64c0-37.12,30.08-67.2,67.2-67.2c37.12,0,67.2,30.08,67.2,67.2v174.72
			c0,21.76,17.92,39.68,39.68,39.68s39.68-17.92,39.68-39.68V288.64c0-80.64-65.92-146.56-146.56-146.56
			c-42.24,0-80,17.92-106.88,46.08c-26.88-28.8-64.64-46.08-106.88-46.08c-80.64,0-146.56,65.92-146.56,146.56v174.72
			c0,21.76,17.92,39.68,39.68,39.68c21.76,0,39.68-17.92,39.68-39.68V288.64c0-37.12,30.08-67.2,67.2-67.2s67.2,30.08,67.2,67.2
			v174.72c0,21.76,17.92,39.68,39.68,39.68c21.76,0,39.68-17.92,39.68-39.68L625.28,288.64L625.28,288.64z"/>
		<path style="fill:#EC0677;" d="M1128.32,145.28c-19.84-8.96-43.52,0.64-52.48,20.48c0,0-48.64,131.2-84.48,214.4
			c-35.84-82.56-84.48-214.4-84.48-214.4c-8.96-20.48-32-29.44-52.48-21.12c-20.48,8.96-29.44,32-21.12,52.48l120.96,281.6
			c6.4,14.72,20.48,24.32,36.48,24.32s30.08-9.6,36.48-24.32l120.96-281.6C1157.76,177.28,1148.8,154.24,1128.32,145.28"/>
	</g>
</g>
</svg>
