<?xml version="1.0" encoding="utf-8"?>
<svg version="1.1" id="Layer_1" xmlns="http://www.w3.org/2000/svg" xmlns:xlink="http://www.w3.org/1999/xlink" x="0px" y="0px"
	width="100px" height="100px" viewBox="0 0 520.04 520.04" style="enable-background:new 0 0 520.04 520.04;" xml:space="preserve">
<g>
	<g>
		<path style="fill:#E8E8E8;" d="M260.02,0C403.6,0,520.04,116.44,520.04,260.02c0,143.58-116.44,260.02-260.02,260.02
			S0,403.6,0,260.02C0,116.44,116.44,0,260.02,0"/>
		<path style="fill:#FFFFFF;" d="M260.02,5.2c140.72,0,254.82,114.1,254.82,254.82s-114.1,254.82-254.82,254.82
			S5.2,400.74,5.2,260.02S119.3,5.2,260.02,5.2"/>
	</g>
	<g>
		<path style="fill:#253B80;" d="M207.42,394.13l5.07-31.71l-11.17-0.29h-52.77l36.75-233.28c0-0.81,0.51-1.32,1.07-1.87
			c0.51-0.51,1.32-0.81,1.87-0.81h89.34c29.62,0.29,50.09,6.39,60.82,18.37c5.07,5.59,8.27,11.76,9.89,18.15
			c1.58,6.91,1.58,15.18,0,25.1v0.81v6.39l5.07,2.9c4.26,2.17,7.46,4.78,10.14,7.75c4.26,4.78,6.91,11.17,8.27,18.37
			c1.32,7.46,0.81,16.54-1.07,26.64c-2.39,11.76-5.88,21.87-10.95,30.39c-4.56,7.75-10.4,14.15-17.35,18.93
			c-6.69,4.78-14.37,8.27-23.45,10.66c-8.56,2.17-18.37,3.49-29.33,3.49h-7.2c-5.07,0-9.89,1.87-13.63,5.07
			c-3.71,3.2-6.39,7.75-7.2,12.49l-0.51,2.9l-8.78,55.75l-0.29,2.17c0,0.51-0.29,1.07-0.51,1.07c-0.29,0.29-0.51,0.29-0.81,0.29
			h-43.25V394.13L207.42,394.13z"/>
		<path style="fill:#179BD7;" d="M379.7,252.84c-10.36,52.77-45.57,71.18-90.66,71.18h-6.91c-5.37,0-10.14,4.01-10.95,9.3l-0.51,2.9
			l-8.82,55.49l-0.51,2.39c-0.81,5.37-5.37,9.3-10.95,9.3h-46.16c-4.26,0-7.2-3.71-6.69-7.75l3.71-23.96l13.38-84.96
			c0.07-0.51,0.19-1.02,0.37-1.51c1.58-5.37,6.28-9.19,12.16-9.19h26.13c51.45,0,91.72-20.76,103.7-81.07l0.81-5.37l0.11,0.07h0.07
			c5,2.61,9.19,5.81,12.38,9.48C381.83,212.3,384,230.75,379.7,252.84L379.7,252.84L379.7,252.84z"/>
		<path style="fill:#222D65;" d="M357.98,189.7l-0.77,5c-11.8,60.71-52.18,81.54-103.81,81.54h-26.2c-5.95,0-11.1,4.26-12.46,10.07
			l0.22-1.1l0.18-0.92l14.96-94.66c0.37-2.32,1.4-4.37,2.9-5.95l0.18-0.18c0.88-0.88,1.91-1.62,3.09-2.2
			c1.32-0.81,3.2-1.07,4.81-1.07h70.08c8.27,0,16.28,0.51,23.26,1.62c1.87,0.29,4.01,0.51,5.88,1.07c1.87,0.29,3.71,0.81,5.59,1.32
			c0.81,0.29,1.62,0.51,2.39,1.07c3.31,1.07,6.39,2.28,9.26,3.79l-0.07,0.22l0.29,0.22L357.98,189.7L357.98,189.7L357.98,189.7z"/>
		<path style="fill:#253B80;" d="M357.61,189.12L357.61,189.12l-0.07,0.22c-2.9-1.62-6.1-2.9-9.59-4.01
			c-0.81-0.22-1.87-0.51-2.68-0.81c-1.87-0.51-3.71-0.81-5.59-1.32c-1.87-0.29-3.71-0.81-5.88-1.07c-7.2-1.07-14.96-1.62-23.22-1.62
			h-69.82c-1.62,0-3.2,0.29-4.81,1.07c-0.99,0.51-1.91,1.1-2.72,1.87l-0.18,0.18c-1.69,1.62-2.87,3.71-3.2,6.21l-14.96,94.41
			l-13.85,87.68h-55.16c-4.56,0-8.27-4.26-7.46-8.78l37.3-235.85c0.81-6.1,6.1-10.66,12.49-10.66h89.34
			c30.68,0,54.64,6.39,67.98,21.61C357.5,151.71,360.99,166.85,357.61,189.12L357.61,189.12L357.61,189.12z"/>
	</g>
</g>
</svg>
