<?xml version="1.0" encoding="utf-8"?>
<svg version="1.1" id="Layer_1" xmlns="http://www.w3.org/2000/svg" xmlns:xlink="http://www.w3.org/1999/xlink" x="0px" y="0px"
	width="100px" height="100px" viewBox="0 0 100 100" style="enable-background:new 0 0 100 100;" xml:space="preserve">
<g>
	<path style="fill:#E8E8E8;" d="M50,0c27.6,0,50,22.4,50,50s-22.4,50-50,50S0,77.6,0,50S22.4,0,50,0"/>
	<path style="fill:#FFFFFF;" d="M50,1c27.1,0,49,21.9,49,49S77.1,99,50,99S1,77.1,1,50S22.9,1,50,1"/>
	<g>
		<g>
			<path d="M22.6,51.9c0.6-1.7,1.1-3.3,1.7-4.9c0.2-0.6,0.4-1.3,0.7-1.9c0.2-0.6,0.5-0.9,1-0.9c0.5,0,0.7,0.2,1,0.9
				c0.7,2.1,1.4,4.2,2.2,6.3c0,0.1,0.1,0.3,0.2,0.5c0.1-0.2,0.1-0.4,0.2-0.5c0.7-2.1,1.4-4.2,2.2-6.2c0-0.1,0-0.1,0.1-0.2
				c0.2-0.6,0.7-0.8,1.2-0.7c0.5,0.2,0.7,0.7,0.5,1.3c-0.4,1.2-0.8,2.3-1.2,3.5c-0.7,2-1.4,3.9-2,5.9c-0.2,0.6-0.4,0.8-1,0.8
				c-0.5,0-0.8-0.2-1-0.8c-0.8-2.2-1.5-4.3-2.3-6.5c0-0.1-0.1-0.2-0.1-0.3c-0.1,0.2-0.1,0.2-0.1,0.3c-0.8,2.2-1.5,4.4-2.3,6.5
				c-0.2,0.6-0.6,0.8-1.1,0.7c-0.4-0.1-0.6-0.4-0.8-0.8c-1-2.8-2-5.7-3-8.5c-0.1-0.3-0.2-0.5-0.3-0.8c-0.2-0.6,0-1.2,0.5-1.3
				c0.5-0.2,1.1,0.1,1.3,0.7c0.7,2.1,1.5,4.3,2.2,6.4C22.5,51.5,22.6,51.7,22.6,51.9z"/>
			<path d="M58.2,50c0-3.2,2.6-5.8,5.7-5.8c3.2,0,5.7,2.6,5.7,5.8c0,3.2-2.6,5.8-5.7,5.8C60.8,55.8,58.2,53.2,58.2,50z M63.9,53.9
				c2.1,0,3.9-1.7,3.9-3.9c0-2.2-1.7-3.9-3.9-3.9c-2.1,0-3.8,1.7-3.8,3.9C60.1,52.1,61.8,53.9,63.9,53.9z"/>
			<path d="M51.6,50c0,3.2-2.5,5.8-5.8,5.8c-3.2,0-5.7-2.6-5.7-5.8c0-3.2,2.5-5.8,5.7-5.8C49.1,44.2,51.7,46.8,51.6,50z M49.8,50.1
				c0-2.2-1.7-3.9-3.8-3.9c-2.1,0-3.8,1.7-3.9,3.8c0,2.1,1.7,3.9,3.8,3.9C48,53.9,49.7,52.2,49.8,50.1z"/>
			<path d="M81.4,46.1c0,0.2,0,0.4,0,0.5c0,2.7,0,5.4,0,8.1c0,0.6-0.4,1-0.9,1c-0.5,0-0.9-0.4-0.9-1c0-0.1,0-0.1,0-0.2
				c0-2.6,0-5.3,0-7.9c0-0.2,0-0.3,0-0.5c-0.2,0-0.3,0-0.5,0c-0.6,0-1.2,0-1.9,0c-0.6,0-1-0.4-1-1c0-0.5,0.4-0.9,1-0.9
				c0.1,0,0.1,0,0.2,0c2.1,0,4.1,0,6.2,0c0.2,0,0.4,0,0.6,0.1c0.4,0.2,0.6,0.6,0.5,1c-0.1,0.4-0.4,0.8-0.9,0.8c-0.6,0-1.2,0-1.8,0
				C81.9,46.1,81.7,46.1,81.4,46.1z"/>
			<path d="M11.8,50c0,1.6,0,3.1,0,4.7c0,0.4-0.1,0.8-0.6,1c-0.5,0.2-1.1,0-1.3-0.6c-0.1-0.2-0.1-0.4-0.1-0.6c0-3,0-6,0-9
				c0-0.1,0-0.2,0-0.3c0-0.6,0.4-0.9,1-0.9c0.5,0,0.9,0.4,0.9,1c0,1.3,0,2.7,0,4C11.8,49.5,11.8,49.7,11.8,50z"/>
			<path style="fill:#FFFFFF;" d="M63.9,53.9c-2.1,0-3.8-1.8-3.8-3.9c0-2.1,1.7-3.9,3.8-3.9c2.2,0,3.9,1.7,3.9,3.9
				C67.8,52.2,66.1,53.9,63.9,53.9z"/>
			<path style="fill:#FFFFFF;" d="M49.8,50.1c0,2.2-1.8,3.9-3.9,3.8c-2.1,0-3.8-1.8-3.8-3.9c0-2.1,1.8-3.8,3.9-3.8
				C48.1,46.2,49.8,47.9,49.8,50.1z"/>
		</g>
		<g>
			<path d="M87.7,44.4v1.3h-0.3v-1.3h-0.5v-0.2h1.2v0.2H87.7z"/>
			<path d="M88.7,45.7h-0.3v-1.5h0.4l0.5,1l0.5-1h0.4v1.5h-0.3v-1.2l-0.5,1.1h-0.1l-0.5-1.1V45.7z"/>
		</g>
	</g>
</g>
</svg>
