<?xml version="1.0" encoding="utf-8"?>
<svg version="1.1" id="Layer_1" xmlns="http://www.w3.org/2000/svg" xmlns:xlink="http://www.w3.org/1999/xlink" x="0px" y="0px"
	 viewBox="0 0 685.66 216.7" style="enable-background:new 0 0 685.66 216.7;" xml:space="preserve">
<g>
	<path style="fill-rule:evenodd;clip-rule:evenodd;fill:#151616;" d="M610.03,99.1V50.43c0-1.07-0.87-1.94-1.95-1.94h-7.87
		c-1.07,0-1.95,0.87-1.95,1.94V99.1l-18.29,33.44c-0.33,0.61-0.32,1.34,0.04,1.93c0.35,0.59,0.98,0.95,1.67,0.95h8.6
		c0.71,0,1.37-0.39,1.71-1.02l12.26-22.5l12.92,22.54c0.35,0.61,0.99,0.98,1.69,0.98h8.1c0.69,0,1.33-0.36,1.68-0.96
		c0.35-0.59,0.36-1.33,0.02-1.93L610.03,99.1z M358.57,59.3h-8.73c-1.07,0-1.95-0.87-1.95-1.95v-7.09c0-9.9,7.77-18.05,17.66-18.53
		h24.91l5.16-5.54c2.26-2.43,6.14-2.29,8.22,0.29l4.82,5.25h25.12c9.84,0,17.81,7.97,17.81,17.81v7.91c0,1.07-0.87,1.95-1.95,1.95
		h-9.19c-1.07,0-1.95-0.87-1.95-1.95v-6.07c0-4.91-3.98-8.89-8.89-8.89H369.4c-4.91,0-8.89,3.98-8.89,8.89v5.98
		C360.51,58.43,359.64,59.3,358.57,59.3z M331.54,41.79h-99.29c-1.07,0-1.95-0.87-1.95-1.95v-6.29c0-1.07,0.87-1.95,1.95-1.95h15.24
		l5.36-5.63c1.96-2.06,5.23-2.09,7.23-0.07l5.32,5.39h31.98l5.97-5.71c1.81-1.73,4.67-1.69,6.43,0.09l5.54,5.61h16.21
		c1.08,0,1.95,0.87,1.95,1.95v6.6C333.49,40.92,332.62,41.79,331.54,41.79z M237.75,120.95l10.42-42.65
		c0.14-0.58,0.01-1.2-0.36-1.66s-0.93-0.75-1.53-0.75h-7.7c-0.9,0-1.68,0.61-1.89,1.48l-10.42,42.66c-0.14,0.58-0.01,1.19,0.36,1.66
		c0.37,0.47,0.93,0.75,1.53,0.75h7.7C236.75,122.43,237.53,121.82,237.75,120.95z M286.31,57.09h-8.13c-0.59,0-1.16-0.27-1.53-0.74
		c-0.37-0.47-0.5-1.08-0.36-1.66l0.68-2.86c0.14-0.58,0-1.19-0.37-1.66c-0.37-0.47-0.93-0.74-1.53-0.74h-8.48
		c-0.9,0-1.68,0.62-1.89,1.49l-1.12,4.67c-0.21,0.88-0.99,1.49-1.89,1.49h-27.59c-1.07,0-1.95,0.87-1.95,1.95v7.48
		c0,1.07,0.87,1.95,1.95,1.95h23.94c0.59,0,1.16,0.27,1.53,0.74c0.37,0.47,0.5,1.08,0.37,1.66l-14.62,61.34
		c-0.14,0.58,0,1.19,0.37,1.66c0.37,0.47,0.93,0.74,1.53,0.74h8.48c0.9,0,1.68-0.62,1.89-1.5l15.04-63.14
		c0.21-0.88,0.99-1.49,1.89-1.49h12.59c8.68,0,15.72,7.04,15.72,15.72v19.45c0,11.37-9.15,20.53-20.47,20.53h-9.71
		c-0.91,0-1.7,0.63-1.9,1.51l-1.5,6.59c-0.13,0.58,0.01,1.18,0.38,1.65c0.37,0.46,0.93,0.73,1.52,0.73h15.15
		c15.76,0,28.57-12.82,28.57-28.57V85.66C314.88,69.85,302.07,57.09,286.31,57.09z M330.22,68.95h-7.3c-1.13,0-2.02,0.96-1.94,2.09
		l3.87,51.3c0.07,1.02,0.92,1.8,1.94,1.8h7.3c1.13,0,2.03-0.96,1.94-2.09l-3.87-51.31C332.08,69.74,331.24,68.95,330.22,68.95z
		 M349.67,77.89h58.41c1.08,0,1.95,0.87,1.95,1.95l-0.05,25.57c0,10.1-8.27,18.3-18.36,18.3h-22.23c-0.89,0-1.67,0.61-1.89,1.47
		l-1.96,7.82c-0.14,0.58-0.02,1.2,0.36,1.67c0.37,0.47,0.93,0.75,1.53,0.75h25.52c16.2,0,29.35-13.15,29.35-29.35V79.83
		c0-1.07,0.87-1.95,1.95-1.95h25.84c1.07,0,1.95-0.87,1.95-1.95v-6.76c0-1.07-0.87-1.95-1.95-1.95H349.67
		c-1.07,0-1.95,0.87-1.95,1.95v6.76C347.73,77.02,348.6,77.89,349.67,77.89z M488.19,76.07c0.28,0,0.5,0,0.72,0h52.7
		c13.26,0,23.96-10.76,23.96-23.96v-2.11c0-13.26-10.71-23.96-23.96-23.96h-52.7c-13.26,0-23.97,10.71-23.97,23.96v2.11
		c0,8.82,4.77,16.53,11.88,20.69l-14.94,38.23c-0.23,0.6-0.16,1.27,0.2,1.8s0.96,0.85,1.61,0.85h8.47c0.8,0,1.52-0.49,1.81-1.24
		l6.52-16.66c0.29-0.75,1.01-1.24,1.81-1.24h9.19c0.64,0,1.25,0.32,1.61,0.85c0.36,0.53,0.44,1.21,0.21,1.8l-13.95,35.57
		c-0.23,0.6-0.16,1.28,0.21,1.81c0.36,0.53,0.96,0.85,1.61,0.85h8.47c0.8,0,1.52-0.49,1.81-1.23l15.06-38.42
		c0.29-0.74,1.01-1.23,1.81-1.23h11.14c0.64,0,1.24,0.32,1.61,0.85c0.36,0.53,0.44,1.21,0.21,1.8l-13.91,35.58
		c-0.23,0.6-0.16,1.27,0.21,1.8s0.96,0.85,1.61,0.85h8.47c0.8,0,1.52-0.49,1.81-1.24l15.01-38.41c0.29-0.75,1.01-1.24,1.81-1.24
		h5.89c3.49,0,6.49,1.39,8.98,4.11c2.44,2.72,3.72,5.99,3.72,9.82v2.39c0,3.83-1.28,7.1-3.72,9.82c-2.5,2.72-5.49,4.11-8.98,4.11
		h-4.13c-0.79,0-1.5,0.48-1.8,1.21l-2.75,6.76c-0.24,0.6-0.17,1.28,0.19,1.82c0.36,0.54,0.96,0.86,1.61,0.86h6.76
		c13.48,0,24.41-11.04,24.41-24.69v-2.11c0-13.65-10.93-24.69-24.41-24.69h-56.92L488.19,76.07z M477.15,46h66.52
		c1.07,0,1.95,0.87,1.95,1.95v6.21c0,1.07-0.87,1.95-1.95,1.95h-66.52c0.61,1.77,1.61,3.33,3,4.77c2.44,2.39,5.38,3.61,8.82,3.61
		h52.65c3.44,0,6.38-1.22,8.77-3.61c2.44-2.44,3.66-5.38,3.66-8.82V50c0-3.44-1.22-6.38-3.66-8.77c-2.39-2.44-5.32-3.66-8.77-3.66
		h-52.65c-3.44,0-6.38,1.22-8.82,3.66C478.76,42.62,477.76,44.23,477.15,46z M627.83,50.13v49.83c0,1.07-0.87,1.95-1.94,1.95h-7.69
		c-1.07,0-1.95-0.87-1.95-1.95V50.13c0-3.44-1.22-6.38-3.65-8.82c-2.44-2.44-5.38-3.66-8.82-3.66s-6.38,1.22-8.82,3.66
		c-2.43,2.43-3.65,5.38-3.65,8.82v49.83c0,1.07-0.87,1.95-1.95,1.95l-7.68,0c-1.07,0-1.95-0.87-1.95-1.95V50.13
		c0-13.28,10.77-24.05,24.05-24.05S627.83,36.86,627.83,50.13z M666.5,107.04V50.46c0-1.07-0.87-1.95-1.95-1.95h-7.7
		c-1.07,0-1.95,0.87-1.95,1.95v56.92c0,2.33-1.94,4.27-4.27,4.27c-2.38,0-4.27-1.94-4.27-4.27V50.46c0-1.07-0.87-1.95-1.95-1.95
		h-7.65c-1.07,0-1.95,0.87-1.95,1.95v56.58c0,8.71,7.1,15.81,15.81,15.81C659.39,122.86,666.5,115.75,666.5,107.04z M646.75,29.62
		v-2.18c0-1.58-1.29-2.87-2.87-2.87h-5.86c-1.58,0-2.87,1.29-2.87,2.87v13.78h23.19c8.49,0,15.36,6.88,15.36,15.37v61.14
		c0,3.38-2.71,6.1-6.1,6.1h-3.64c-0.87,0-1.63,0.57-1.87,1.41l-2.21,7.7c-0.17,0.59-0.05,1.22,0.32,1.71s0.94,0.77,1.55,0.77h4.02
		c10.76,0,19.53-8.77,19.53-19.53V55.25c0-14.14-11.48-25.63-25.63-25.63H646.75z M466.08,216.21c-4.23-0.56-8.14-1.52-8.96-2.21
		c-0.39-0.32-0.55-1.45-0.55-3.93c0-4.46,0.25-4.72,3.67-3.8c5.61,1.5,7.41,1.79,10.99,1.8c5.45,0.01,8.47-0.89,11.03-3.3
		c1.8-1.69,2.46-3.46,2.68-7.14c0.21-3.49,0.48-3.3-2.94-2.05c-0.94,0.34-3.08,0.82-4.76,1.05c-5.64,0.79-11.13-0.39-15.42-3.04
		c-8.36-5.21-10.86-16.2-8.43-25.36c2.46-9.31,10.35-14.48,19.77-14.55c1.43-0.04,2.89-0.04,4.32,0.07c1.7,0.11,2.77,0.37,4.4,0.93
		c2.86,0.98,2.93,0.98,3.67,0.25c0.64-0.64,1.36-0.75,4.85-0.75c3.47,0,4.2,0.11,4.76,0.72c0.59,0.66,0.65,2.8,0.65,22.69
		c0,14.02-0.03,20.3-0.57,23.97c-0.84,5.6-4.83,9.95-9.79,12.41c-1.03,0.5-2.1,0.94-3.21,1.31
		C477.71,216.8,472.54,217.08,466.08,216.21z M685.66,187.3v-13.8c-0.03-9.12-0.16-9.41-0.94-11.11c-1.25-2.72-3.46-4.9-6.62-6.52
		c-5.57-2.88-13.2-3.1-18.77-0.03c-0.92,0.51-1.84,1.13-2.84,1.87c-0.67,0.5-1.36,0.92-1.53,0.92c-0.17,0-0.98-0.54-1.81-1.21
		c-4.89-3.91-12.9-4.85-18.81-2.21l-2.28,1.02l-0.77-1c-0.73-0.93-1.01-1-4.43-1c-1.2,0-2.11,0.04-2.8,0.11
		c-1.21,0.14-2.61,0.54-2.61,1.94l0.01,19.07c0,10.93,0.14,20.07,0.3,20.32s0.56,0.54,0.89,0.67s2.2,0.24,4.17,0.26
		c2.64,0.02,3.81-0.13,4.46-0.59l0.88-0.63l-0.01-8.21c0-2.41,0-4.82,0-7.24c0.04-5.54-1.5-14.58,4.93-17.1
		c5.67-2.2,10.74,1.33,11.16,7.31c0.43,5.58,0.14,11.41,0.28,17.03c0.08,3.54,0.19,6.39,0.29,7.84c0,0.21,0.04,0.39,0.04,0.61
		c0.11,1.48,10.28,1.55,10.27-0.6l0.01-13.5c0-4.53,0.01-7.58,0.04-9.7c0.04-1.98,0.04-3.93,0.95-5.73c1.36-2.63,4.13-3.93,7.7-3.64
		c3.16,0.22,5.2,1.46,6.24,3.65c0.86,1.8,0.86,3.78,0.88,5.73c0.04,2.12,0.04,5.16,0.04,9.61v13.95l0.88,0.63
		c1.04,0.73,7.8,0.89,9.05,0.21C685.5,195.88,685.63,195.43,685.66,187.3z M471.32,162.09c-8,1.8-9.97,11.86-7.51,19.14
		c1.21,3.7,3.94,6.31,7.51,7.09c7.7,1.63,12.66-3.22,13.41-10.61c0.86-8.71-2.82-17.8-13.2-15.66
		C471.46,162.05,471.39,162.09,471.32,162.09z M240.52,196.74c-2.97-0.27-9.18-1.35-11.39-1.98c-1.17-0.34-2.34-0.97-2.68-1.45
		c-0.89-1.27-0.8-5.49,0.14-6.65c0.73-0.9,0.75-0.9,3.07-0.26c2.93,0.8,5.92,1.36,8.79,1.66c3.36,0.37,17.48,1.12,16.45-4.88
		c-0.48-2.91-6.1-4.11-10.52-4.8c-5.33-0.82-12.07-1.32-15.86-5.67c-2.08-2.4-2.84-5.59-2.05-8.93
		c2.93-12.31,23.12-10.77,32.61-9.35c2.5,0.36,3.94,0.8,4.32,1.3c0.56,0.72,0.67,5.51,0.14,6.33c-0.35,0.55-0.97,0.64-4.45,0.23
		c-3.03-0.37-8.99-1.26-13.86-0.87c-1.18,0.1-3.19,0.4-4.77,1.12c-3.08,1.43-3.01,4.46-0.01,5.92c2.91,1.41,7.71,1.57,9.73,1.94
		c4.71,0.82,9.77,1.82,13.23,5.39c2.98,3.09,4.3,7.5,2.64,11.99c-1.25,3.36-4.21,5.57-7.42,6.85c-3.05,1.22-6.92,1.93-11.57,2.1
		C244.45,196.82,241.51,196.83,240.52,196.74z M274.92,182.18c-0.59-7.23-0.5-25.97,0.31-27.12c0.57-0.82,0.92-0.88,4.91-0.88
		c3.08,0,4.41,0.15,4.73,0.53c0.3,0.36,0.47,5.01,0.55,14.37c0.06,8,0.1,11.4,0.29,13.11c1,8.52,20.16,8.7,21.08-0.01
		c0.21-1.93,0.33-6.9,0.33-13.77c0-12.01,0.05-12.96,0.73-13.57c0.93-0.84,8.23-0.96,9.34-0.14c0.64,0.47,0.69,1.57,0.57,15.55
		l-0.08,9.86c0,0.75-0.01,1.44-0.03,2.08c-0.15,6.36-3.72,10.21-9.43,12.67c-6.35,2.75-17.23,2.61-23.58,0.04
		C278.96,192.61,275.42,188.36,274.92,182.18z M557.55,153.83c2.09,0.19,3.7,0.5,4.29,0.94c0.83,0.61,1.26,4.94,0.64,6.55
		l-0.37,0.98l-4.57,0c-3.39,0.01-7.23-0.18-10.78,0.33c-7.77,1.13-13.05,7.13-11.27,15.19c1.75,7.81,10.27,10.27,17.27,10.42
		c1.61,0.03,3.2-0.07,4.77-0.27c0.33-0.04,0.65-0.09,0.97-0.14c3.76-0.58,4.09-0.26,4.09,3.98c0,1.72-0.12,3.25-0.27,3.4
		c-0.36,0.36-2.31,0.74-4.77,1.05c-13.43,1.66-28.41-0.48-32.44-15.71c-3.75-14.13,6.78-24.76,20.16-26.54
		C549.3,153.49,553.51,153.49,557.55,153.83z M612.33,184.82c-2.79,7.16-9.75,11.03-17.68,11.8c-10.14,0.98-21.3-1.84-25.2-11.8
		c-2.37-6.07-1.94-16.91,1.73-22.44c5.71-8.53,17.8-10.1,27.15-8.06c13.27,2.89,17.2,15.09,14.95,27.25
		C613.07,182.68,612.75,183.75,612.33,184.82z M602.74,172.59c-1.72-15.27-21.7-14.58-23.51,0
		C576.62,193.89,605.16,195,602.74,172.59z M327.75,195.41c-0.77-0.77-0.79-1.32-0.79-20.21c0-23.18-0.59-21,5.66-21
		c4.21,0,5.04,0.27,5.04,1.66c0,0.89,0.27,0.89,1.99-0.02c1.89-1.01,3.97-1.68,6.26-2.02c6.67-0.98,14.8,0.34,19.91,5.04
		c2.64,2.47,3.88,5.59,4.07,9.66c0.04,0.46,0.04,0.89,0.07,1.36c0.06,2.41,0.09,5.69,0.13,10.33c0.11,13.17,0.06,14.78-0.52,15.36
		c-0.92,0.92-8.56,0.94-9.48,0.02c-0.54-0.54-0.63-2.33-0.63-13.58c0-5.2-0.08-9.73-0.21-12.29c-0.13-2.29-0.86-4.04-2.35-5.32
		c-2.36-2-7.38-2.66-11.45-1.97c-2.79,0.5-5.32,1.68-6.68,4.28c-0.57,1.11-0.9,2.4-0.93,3.83c0,0.57,0,1.14,0,1.71l-0.08,9.48
		c-0.1,12.07-0.18,13.53-0.78,13.97c-0.43,0.32-2.06,0.5-4.55,0.5C329.07,196.2,328.43,196.09,327.75,195.41z M380.74,195.78
		c-0.55-0.32-0.67-1.38-0.69-13.12c0-6.99-0.04-14.02,0.03-21.01c0.05-6.39,0.22-6.77,0.73-7.04c1.09-0.59,8.47-0.53,9.07,0.06
		c0.21,0.22,0.34,2.16,0.41,6.97c0.11,7,0.07,14.03,0.07,21.02c-0.03,12.28-0.14,12.8-0.78,13.14
		C388.6,196.33,381.65,196.31,380.74,195.78z M401.81,195.41c-0.77-0.77-0.79-1.32-0.79-20.21c0-23.18-0.59-21,5.66-21
		c4.21,0,5.04,0.27,5.04,1.66c0,0.89,0.27,0.89,1.99-0.02c1.89-1.01,3.97-1.68,6.26-2.02c6.67-0.98,14.8,0.34,19.91,5.04
		c2.64,2.47,3.88,5.59,4.07,9.66c0.04,0.46,0.04,0.89,0.07,1.36c0.06,2.41,0.09,5.69,0.13,10.33c0.12,13.17,0.06,14.78-0.52,15.36
		c-0.92,0.92-8.56,0.94-9.48,0.02c-0.54-0.54-0.63-2.33-0.63-13.58c0-5.2-0.08-9.73-0.21-12.29c-0.13-2.29-0.86-4.04-2.35-5.32
		c-2.36-2-7.38-2.66-11.45-1.97c-2.79,0.5-5.32,1.68-6.68,4.28c-0.57,1.11-0.9,2.4-0.93,3.83c0,0.57,0,1.14,0,1.71l-0.08,9.48
		c-0.1,12.07-0.18,13.53-0.78,13.97c-0.43,0.32-2.06,0.5-4.55,0.5C403.13,196.2,402.49,196.09,401.81,195.41z M511.77,184.53
		c3.33,0,6.03,2.7,6.03,6.03s-2.7,6.03-6.03,6.03c-3.33,0-6.03-2.7-6.03-6.03S508.44,184.53,511.77,184.53z"/>
	<path style="fill-rule:evenodd;clip-rule:evenodd;fill:#FEA600;" d="M129.41,173.02h27.46c8.88,0,16.04-7.16,16.04-16.03v-27.46
		L192.44,110c6.27-6.27,6.27-16.42,0-22.69l-19.53-19.53V40.15c0-8.88-7.16-16.09-16.04-16.09h-27.68L109.83,4.7
		c-6.27-6.27-16.42-6.27-22.69,0L67.72,24.06H40.32c-8.88,0-16.09,7.21-16.09,16.09v27.4L4.7,87.08c-6.27,6.27-6.27,16.48,0,22.75
		l19.53,19.53v27.63c0,8.88,7.21,16.03,16.09,16.03h27.57l19.42,19.42c6.27,6.27,16.48,6.27,22.75,0L129.41,173.02z"/>
	<path style="fill-rule:evenodd;clip-rule:evenodd;fill:#FFFFFF;" d="M127.68,111.17C125.74,97.08,113.64,86.26,99,86.26
		c-14.64,0-26.74,10.82-28.68,24.91h-0.17c-12.48,0-22.63,10.15-22.63,22.63c0,12.48,10.15,22.64,22.63,22.64h56.81
		c12.48,0,22.64-10.15,22.64-22.64C149.59,121.55,139.88,111.56,127.68,111.17z"/>
	<path style="fill-rule:evenodd;clip-rule:evenodd;fill:#151616;" d="M78.39,117.64l10.03,8.79c5.81,5.09,14.47,5.09,20.28,0
		l10.03-8.79c0.91-0.8,1.18-1.99,0.67-3.02c-0.51-1.03-1.68-1.7-2.99-1.7H80.72c-1.31,0-2.49,0.67-2.99,1.7
		C77.22,115.66,77.48,116.84,78.39,117.64z"/>
	<path style="fill-rule:evenodd;clip-rule:evenodd;fill:#151616;" d="M68.14,78.16c4.03,0,7.3,3.27,7.3,7.29
		c0,4.03-3.27,7.3-7.3,7.3c-4.03,0-7.29-3.27-7.29-7.3C60.84,81.43,64.11,78.16,68.14,78.16z"/>
	<path style="fill-rule:evenodd;clip-rule:evenodd;fill:#151616;" d="M128.98,78.16c4.03,0,7.29,3.27,7.29,7.29
		c0,4.03-3.27,7.3-7.29,7.3s-7.3-3.27-7.3-7.3C121.68,81.43,124.95,78.16,128.98,78.16z"/>
</g>
</svg>
