<?xml version="1.0" encoding="utf-8"?>
<svg version="1.1" id="Layer_1" xmlns="http://www.w3.org/2000/svg" xmlns:xlink="http://www.w3.org/1999/xlink" x="0px" y="0px"
	width="100px" height="100px" viewBox="0 0 66.7 66.7" style="enable-background:new 0 0 66.7 66.7;" xml:space="preserve">
<g>
	<circle style="fill:#E8E8E8;" cx="33.3" cy="33.3" r="33.3"/>
	<circle style="fill:#FFFFFF;" cx="33.3" cy="33.3" r="32.7"/>
	<path style="fill:#4D3524;" d="M24.1,29.7h0.5v-0.2h-0.5v-0.3h0.5V29h-0.7v1.2h0.7V30h-0.5V29.7z M25.4,29.5l-0.1-0.1
		c-0.1,0-0.1-0.1-0.1-0.1c0,0-0.1-0.1-0.1-0.1s0-0.1,0.1-0.1s0.1-0.1,0.1-0.1c0.1,0,0.2,0.1,0.3,0.1v-0.2C25.4,29,25.3,29,25.3,29
		c-0.1,0-0.2,0-0.3,0.1s-0.1,0.1-0.1,0.3c0,0.1,0,0.1,0.1,0.2c0.1,0.1,0.1,0.1,0.2,0.1l0.1,0.1c0.1,0.1,0.1,0.1,0.1,0.2
		s0,0.1-0.1,0.1c-0.1,0-0.1,0.1-0.1,0.1c-0.1,0-0.2-0.1-0.3-0.2v0.2c0.1,0.1,0.2,0.1,0.3,0.1c0.1,0,0.2,0,0.3-0.1
		c0.1-0.1,0.1-0.1,0.1-0.3C25.7,29.7,25.5,29.6,25.4,29.5 M25.9,29.1h0.5v1.1h0.2v-1.1h0.5v-0.1H26L25.9,29.1L25.9,29.1z M27.9,29
		c-0.1-0.1-0.2,0-0.3,0h-0.3v0.9h0.3h0.1h0.1c0.1-0.1,0.2-0.1,0.3-0.3v-0.1c0-0.1,0-0.1-0.1-0.2C28,29.1,28,29.1,27.9,29 M27.5,29.1
		h0.1h0.1h0.1c0,0,0.1,0,0.1,0.1c0.1,0.1,0.1,0.1,0.1,0.2c0,0.1,0,0.1-0.1,0.2l-0.1,0.1h-0.1h-0.1h-0.1L27.5,29.1
		C27.5,29.1,27.5,29.1,27.5,29.1z M27.3,30.1H28v0.1h-0.7V30.1z M39.1,29h0.2v1.2h-0.2V29z M40.3,28.9c-0.1,0-0.2,0-0.3,0.1
		c-0.1,0.1-0.1,0.3,0,0.5c0.1,0.1,0.1,0.1,0.2,0.1c0.1,0,0.1,0,0.2-0.1c0,0.1-0.1,0.2-0.1,0.3l-0.2,0.2l0.1,0.1
		c0.1-0.1,0.3-0.2,0.3-0.3s0.1-0.3,0.1-0.5c0-0.1,0-0.2-0.1-0.3C40.5,29,40.4,29,40.3,28.9 M40.5,29.4c-0.1,0.1-0.1,0.1-0.2,0.1
		c-0.1,0-0.1,0-0.1-0.1c-0.1,0-0.1-0.1-0.1-0.1s0-0.1,0.1-0.1c0-0.1,0.1-0.1,0.1-0.1s0.1,0,0.1,0.1C40.5,29.2,40.5,29.3,40.5,29.4
		L40.5,29.4 M41.5,29.5c-0.1,0-0.1,0-0.2,0.1c0-0.1,0.1-0.2,0.1-0.3l0.2-0.2l-0.1-0.1l0,0c-0.1,0.1-0.2,0.1-0.3,0.2
		c-0.1,0.1-0.1,0.2-0.1,0.3c0,0.1-0.1,0.2-0.1,0.3c0,0.1,0,0.2,0.1,0.3c0.1,0.1,0.3,0.1,0.5,0l0,0c0.1-0.1,0.1-0.3,0-0.5H41.5
		 M41.6,29.9c0,0-0.1,0.1-0.1,0.1s-0.1,0-0.1-0.1c-0.1-0.1-0.1-0.1-0.1-0.1v-0.1l0.1-0.1h0.1c0.1,0,0.1,0,0.1,0.1
		S41.6,29.8,41.6,29.9L41.6,29.9 M42.7,29.5c0.1-0.1,0.1-0.1,0.1-0.3c0-0.1,0-0.2-0.1-0.3s-0.1-0.1-0.3-0.1c-0.1,0-0.2,0-0.3,0.1
		s-0.1,0.1-0.1,0.3v0.1c0,0.1,0.1,0.1,0.1,0.1c-0.1,0.1-0.2,0.1-0.1,0.3c0,0.1,0.1,0.2,0.1,0.3c0.1,0.1,0.2,0.1,0.3,0.1
		s0.2,0,0.3-0.1s0.1-0.1,0.1-0.3C42.9,29.7,42.9,29.6,42.7,29.5 M42.4,29.1c0,0,0.1-0.1,0.1-0.1s0.1,0,0.1,0.1s0.1,0.2,0,0.3l0,0
		c0,0-0.1,0.1-0.1,0.1s-0.1,0-0.1-0.1c0,0-0.1-0.1-0.1-0.1S42.4,29.2,42.4,29.1 M42.7,29.8c0,0.1,0,0.1-0.1,0.1
		c-0.1,0-0.1,0.1-0.1,0.1s-0.1,0-0.1-0.1c-0.1,0-0.1-0.1-0.1-0.1s0-0.1,0.1-0.1c0,0,0.1-0.1,0.1-0.1s0.1,0,0.1,0.1
		S42.7,29.7,42.7,29.8z"/>
	<path style="fill:#FF681E;" d="M37.4,35.2c1.4,0,2.5,1.2,2.5,2.7c0,1.5-1.1,2.7-2.5,2.7c-1.4,0-2.5-1.2-2.5-2.7
		C34.9,36.4,36,35.2,37.4,35.2 M37.4,39.4c0.8,0,1.5-0.7,1.5-1.6s-0.6-1.5-1.5-1.5c-0.8,0-1.5,0.7-1.5,1.5
		C35.9,38.7,36.6,39.4,37.4,39.4 M52.5,35.2c-1.5,0-2.5,1.2-2.5,2.7c0,1.5,1,2.7,2.5,2.7c0.7,0,1.3-0.2,1.9-0.6
		c0.1-0.1,0.1-0.2,0.1-0.3c0,0,0-0.1-0.1-0.1l-0.3-0.5c-0.1-0.1-0.2-0.1-0.3,0c-0.3,0.2-0.7,0.4-1.1,0.4c-0.7,0-1.4-0.5-1.5-1.3h3.5
		c0.1,0,0.2-0.1,0.2-0.3v-0.3C54.8,36.3,53.9,35.3,52.5,35.2C52.6,35.2,52.5,35.2,52.5,35.2 M52.5,36.2c0.6,0,1.1,0.4,1.1,1.1h-2.5
		C51.3,36.6,51.9,36.2,52.5,36.2 M22.7,39.7l-0.3-0.5c-0.1-0.1-0.2-0.1-0.3,0c-0.1,0.1-0.1,0.1-0.2,0.1s-0.2,0.1-0.3,0.1h-0.1
		c-0.3,0-0.4-0.1-0.4-0.5v-2.5h1.3c0.1,0,0.3-0.1,0.3-0.3v-0.6c0-0.1-0.1-0.2-0.2-0.3l0,0l0,0h-1.3v-1.9c0-0.1-0.1-0.3-0.3-0.3l0,0
		h-0.7c-0.1,0-0.2,0.1-0.2,0.3v1.9h-0.5c-0.1,0-0.2,0.1-0.2,0.2l0,0l0,0v0.6c0,0.1,0.1,0.3,0.2,0.3H20v2.6c0,0.8,0.2,1.4,1,1.5l0,0
		l0,0h0.3l0,0c0.1,0,0.3,0,0.5-0.1c0.4-0.1,0.7-0.3,1.1-0.5c0.1-0.1,0.1-0.2,0.1-0.3L22.7,39.7 M11.2,32.1H8.3
		c-0.1,0-0.3,0.1-0.3,0.3v7.7c0,0.1,0.1,0.2,0.3,0.2h0.7c0.1,0,0.3-0.1,0.3-0.2v-2.6h1.8c1.5,0,2.7-1.2,2.7-2.7
		C13.9,33.3,12.7,32.1,11.2,32.1 M12.7,34.7c0,0.8-0.6,1.5-1.5,1.5c0,0,0,0-0.1,0H9.3v-2.9h1.8C12,33.3,12.7,33.9,12.7,34.7
		 M16.3,35.2c-1.5,0-2.5,1.2-2.5,2.7s1,2.7,2.5,2.7c0.7,0,1.3-0.2,1.9-0.6c0.1-0.1,0.1-0.2,0.1-0.3c0,0,0-0.1-0.1-0.1l-0.3-0.5
		c-0.1-0.1-0.2-0.1-0.3,0c-0.3,0.2-0.7,0.4-1.1,0.4c-0.7,0-1.4-0.6-1.5-1.3h3.5c0.1,0,0.2-0.1,0.2-0.3v-0.3
		C18.6,36.3,17.6,35.3,16.3,35.2L16.3,35.2 M16.3,36.2c0.6,0,1.1,0.4,1.1,1.1H15C15.1,36.6,15.7,36.2,16.3,36.2 M25.4,37.3
		c-0.5-0.2-0.8-0.3-0.8-0.7c0-0.2,0.1-0.4,0.5-0.4c0.2,0,0.5,0.1,0.7,0.1c0,0,0.1,0,0.1,0.1c0.1,0.1,0.1,0.1,0.2,0.1
		c0.1,0.1,0.3,0.1,0.3,0l0.3-0.5c0.1-0.1,0.1-0.2,0-0.3c0,0,0-0.1-0.1-0.1l-0.1-0.1c-0.5-0.3-1-0.4-1.5-0.4c-1.2,0-1.7,0.7-1.7,1.4
		c0,0.9,0.7,1.3,1.5,1.7c0.7,0.3,1,0.5,1,0.9c0,0.3-0.3,0.5-0.6,0.5h-0.1c-0.3-0.1-0.5-0.1-0.7-0.2c-0.1-0.1-0.1-0.1-0.2-0.1
		c-0.1-0.1-0.3-0.1-0.3,0l-0.3,0.5c-0.1,0.1-0.1,0.2,0,0.3l0.1,0.1c0.3,0.3,0.7,0.5,1.1,0.5c0.2,0,0.3,0.1,0.5,0.1h0.1
		c1.1,0,1.9-0.7,1.9-1.5C27.1,38.1,26.3,37.7,25.4,37.3 M57.7,34.3h-0.1v-0.1h0.3v0.1H57.7l0.1,0.3h-0.1L57.7,34.3
		C57.7,34.3,57.7,34.3,57.7,34.3z M58.1,34.2L58.1,34.2l0.2,0.3l0.1-0.3h0.1v0.5h-0.1v-0.3l-0.1,0.3l0,0l-0.1-0.3v0.3h-0.1
		L58.1,34.2L58.1,34.2L58.1,34.2z M47.2,35.2c-0.5,0-1.1,0.2-1.5,0.5v-0.2c0-0.1-0.1-0.2-0.2-0.2h-0.8c-0.1,0-0.1,0.1-0.1,0.2v4.7
		l0,0l0,0c0,0.1,0.1,0.3,0.2,0.3l0,0l0,0h0.7h0.1l0,0c0.1,0,0.1,0,0.1-0.1l0.1-0.1v-0.1l0,0l0,0v-3.1c0-0.2,0.6-0.7,1.4-0.7
		c0.7,0,1,0.5,1,1.3v2.6c0,0.1,0.1,0.3,0.3,0.3h0.7c0.1-0.1,0.2-0.1,0.2-0.3v-2.5C49.3,36.3,48.7,35.2,47.2,35.2 M43.5,35.2
		L43.5,35.2h-0.1h-0.3c-0.5,0-0.9,0.1-1.3,0.5v-0.2c0-0.1-0.1-0.2-0.2-0.2h-0.8c-0.1,0-0.3,0.1-0.3,0.2v4.7c0,0.1,0.1,0.3,0.3,0.3
		h0.7c0.1,0,0.1-0.1,0.1-0.1v-0.1v-0.1l0,0l0,0V37c0.2-0.4,0.7-0.6,1.1-0.6c0.1,0,0.3,0,0.5,0.1c0.1,0.1,0.2,0,0.3-0.1v-0.7
		C43.7,35.3,43.6,35.2,43.5,35.2 M58.3,35.2L58.3,35.2L58.3,35.2H58c-0.5,0-0.9,0.1-1.2,0.5v-0.2c0-0.1-0.1-0.2-0.2-0.2h-0.8
		c-0.1,0-0.2,0.1-0.2,0.2v4.7c0,0.1,0.1,0.3,0.2,0.3h0.7c0.1,0,0.1-0.1,0.1-0.1l0.1-0.1l0.1-0.1l0,0l0,0V37c0.2-0.4,0.7-0.6,1.1-0.6
		c0.1,0,0.3,0,0.4,0.1s0.3,0,0.3-0.1v-0.7C58.6,35.3,58.5,35.2,58.3,35.2 M34.5,39.3l-0.4-0.7l0,0c0,0,0-0.1-0.1-0.1
		s-0.1-0.1-0.1-0.1s-0.1,0-0.1,0.1l0,0c-0.5,0.4-1.2,0.7-1.9,0.7c-0.8,0-1.5-0.3-2.1-0.9c-1.1-1.2-1.1-3.1,0-4.2
		c0.5-0.6,1.3-0.9,2.1-0.9c0.7,0,1.3,0.2,1.8,0.7l0,0c0.1,0,0.1,0.1,0.1,0.1s0.1,0,0.2-0.1l0,0l0,0l0,0l0.4-0.7l0,0
		c0,0,0.1-0.1,0.1-0.1s0-0.1-0.1-0.2c-0.7-0.5-1.6-0.9-2.5-0.9c-2.3,0-4.2,1.9-4.3,4.2c0,2.3,1.9,4.3,4.2,4.3h0.1
		c0.9,0,1.9-0.3,2.6-0.9l0.1-0.1c0,0,0.1-0.1,0.1-0.1C34.5,39.4,34.5,39.4,34.5,39.3"/>
	<path style="fill:#4D3524;" d="M38.7,31.1c-0.3-0.5-1-1.3-1.9-1.9c-0.1-0.1-0.2-0.1-0.3-0.1c0.2-0.1,0.4-0.1,0.5-0.1
		c0.2,0.1,0.5,0.1,0.7,0c0.1,0,0.2-0.1,0.2-0.1s0-0.1-0.1-0.1c-0.3-0.1-0.3-0.1-0.4-0.3c0.2,0.1,0.5,0.1,0.7,0
		c0.1-0.1,0.3-0.3,0.3-0.5c0.1-0.3,0-0.3-0.5-0.5c-0.1,0-0.3-0.1-0.5-0.1c-0.3-0.1-0.3-0.5-1-0.6c-0.1-0.1-0.3-0.1-0.5,0
		c-0.1-0.1-0.2-0.2-0.3-0.3l-0.7-0.4c-0.1-0.1-0.3-0.1-0.3,0.1c0,0.1-0.1,0.1-0.1,0.1c0.2,0.1,0.5,0.1,0.7,0.3
		c0.1,0,0.1,0.1,0.2,0.1c-0.1,0-0.3-0.1-0.3-0.1l-0.9-0.2c-0.1,0-0.2,0.1-0.3,0.1v0.3c0,0.4,0.2,0.6,0.4,0.7c0.3,0.1,0.6,0,0.9-0.1
		c-0.9,0.9-1.9,1.1-3.2,0.9c-1.3-0.1-2.1-0.7-2.7-1.6c0-0.1-0.1,0-0.1,0.1c-0.1,0.5,0,1.3,0.5,1.7c0.3,0.2,0.7,0.3,1.1,0.3
		c-0.4,0.2-0.7,0.4-1.1,0.7c-0.4,0.3-0.8,0.6-1.1,1.1c-0.3,0.5,0.1,0.7,0.4,0.5c0.8-0.4,1.7-0.6,2.5-0.6c1.3,0,2.5,0.4,3.5,1.1
		c0.5,0.4,0.8,0.8,1.3,1.4c0.1,0.1,0.3,0.1,0.4,0.1s0.3-0.2,0.2-0.5c-0.1-0.8-0.5-1.5-1-2.2c0.4,0.1,0.7,0.3,1.1,0.5l0.8,0.6
		c0.1,0.1,0.3,0.1,0.5,0C38.8,31.5,38.9,31.4,38.7,31.1"/>
	<path style="fill:#FFFFFF;" d="M37.1,27.5c0,0.1,0,0.1-0.1,0.2c-0.1,0-0.1,0-0.2-0.1c0-0.1,0-0.1,0.1-0.2
		C37.1,27.3,37.1,27.3,37.1,27.5L37.1,27.5"/>
	<path style="fill:#EA5D24;" d="M36.4,29.7c0.1,0.1,0,0.3-0.1,0.4s-0.3,0-0.4-0.1s0-0.3,0.1-0.4S36.3,29.6,36.4,29.7 M36.4,29.1
		c-0.2,0.2-0.5,0.3-0.8,0.3c-0.6-0.1-1.1-0.5-1.1-1.2c0.1-0.1,0.3-0.1,0.5-0.3c-0.1,0.5,0.3,1.1,0.9,1.2H36.4"/>
</g>
</svg>
