<?xml version="1.0" encoding="utf-8"?>
<svg version="1.1" id="Layer_1" xmlns="http://www.w3.org/2000/svg" xmlns:xlink="http://www.w3.org/1999/xlink" x="0px" y="0px"
	 viewBox="0 0 1022.72 91.55" style="enable-background:new 0 0 1022.72 91.55;" xml:space="preserve">
<g>
	<path style="fill:#1D1D1B;" d="M220.8,9.63c2.56,0,4.48-1.92,4.48-4.48c0-2.56-1.92-4.48-4.48-4.48h-67.84
		c-2.56,0-4.48,1.92-4.48,4.48v81.28c0,2.56,1.92,4.48,4.48,4.48h67.2c2.56,0,4.48-1.92,4.48-4.48c0-2.56-1.92-4.48-4.48-4.48
		h-62.72V50.59h49.28c2.56,0,4.48-1.92,4.48-4.48c0-2.56-1.92-4.48-4.48-4.48h-49.28V10.27h63.36V9.63z"/>
	<path style="fill:#1D1D1B;" d="M404.48,0.03c-1.92,0-3.84,1.28-4.48,3.2l-28.16,70.4c-4.48-10.24-8.96-22.4-14.08-33.92
		c-5.12-12.8-10.24-25.6-14.72-36.48c-0.64-1.92-2.56-2.56-4.48-2.56c-1.92,0-3.84,1.28-4.48,3.2l-28.16,70.4l-28.16-70.4
		c-0.64-1.92-2.56-2.56-4.48-2.56c-2.56,0-4.48,1.92-4.48,4.48c0,0.64,0,1.28,0.64,1.92l32.64,81.28c0.64,1.92,2.56,2.56,4.48,2.56
		c1.92,0,3.84-1.28,4.48-3.2l28.16-70.4l28.16,70.4c0.64,1.92,2.56,3.2,4.48,3.2c1.92,0,3.84-1.28,4.48-3.2l32.64-81.28
		c0-0.64,0.64-0.64,0.64-1.92C409.6,1.95,407.68,0.03,404.48,0.03"/>
	<path style="fill:#1D1D1B;" d="M85.76,0.03c-2.56,0-4.48,1.92-4.48,4.48v69.76L8.32,1.95C5.12-1.25,0,1.31,0,5.15v81.28
		c0,2.56,1.92,4.48,4.48,4.48c2.56,0,4.48-1.92,4.48-4.48v-70.4l72.32,72.96c0.64,0.64,1.92,1.92,3.84,1.92
		c2.56,0,4.48-1.92,4.48-4.48V4.51C90.24,1.95,88.32,0.03,85.76,0.03"/>
	<path style="fill:#1D1D1B;" d="M695.04,0.03c-24.96,0-45.44,20.48-45.44,45.44s20.48,45.44,45.44,45.44
		c24.96,0,45.44-20.48,45.44-45.44C740.48,20.51,720,0.03,695.04,0.03 M730.88,45.47c0,19.84-16,35.84-35.84,35.84
		c-19.84,0-35.84-16-35.84-35.84s16-35.84,35.84-35.84C714.88,9.63,730.88,25.63,730.88,45.47"/>
	<path style="fill:#1D1D1B;" d="M1020.8,82.59L976,39.71l44.16-31.36c1.92-1.28,2.56-4.48,1.28-6.4s-4.48-2.56-6.4-1.28l-73.6,51.84
		V5.15c0-2.56-1.92-4.48-4.48-4.48c-2.56,0-4.48,1.92-4.48,4.48v81.28c0,2.56,1.92,4.48,4.48,4.48c2.56,0,4.48-2.56,4.48-5.12V64.03
		l26.88-18.56l46.08,44.16c0.64,0.64,1.92,1.92,3.84,1.92c2.56,0,4.48-1.92,4.48-4.48C1022.72,84.51,1022.08,83.23,1020.8,82.59"/>
	<path style="fill:#1D1D1B;" d="M833.92,0.03c-24.96,0-45.44,20.48-45.44,45.44s20.48,45.44,45.44,45.44
		c24.96,0,45.44-20.48,45.44-45.44S858.88,0.03,833.92,0.03 M869.76,45.47c0,19.84-16,35.84-35.84,35.84
		c-19.84,0-35.84-16-35.84-35.84s16-35.84,35.84-35.84C853.76,9.63,869.76,25.63,869.76,45.47"/>
	<path style="fill:#1D1D1B;" d="M608,81.31h-62.72V4.51c0-2.56-1.92-4.48-4.48-4.48c-2.56,0-4.48,1.92-4.48,4.48v81.28
		c0,2.56,1.92,4.48,4.48,4.48h67.84c2.56,0,4.48-1.92,4.48-4.48C612.48,83.23,610.56,81.31,608,81.31"/>
</g>
</svg>
