<?xml version="1.0" encoding="utf-8"?>
<svg version="1.1" id="Layer_1" xmlns="http://www.w3.org/2000/svg" xmlns:xlink="http://www.w3.org/1999/xlink" x="0px" y="0px"
	width="100px" height="100px" viewBox="0 0 1663.92 1663.92" style="enable-background:new 0 0 1663.92 1663.92;" xml:space="preserve">
<g>
	<path style="fill:#006EB8;" d="M831.96,0L831.96,0c459.48,0,831.96,372.48,831.96,831.96v0c0,459.48-372.48,831.96-831.96,831.96h0
		C372.48,1663.92,0,1291.44,0,831.96v0C0,372.48,372.48,0,831.96,0z"/>
	<path style="fill:#FFFFFF;" d="M523.1,503.66l283.2,627.55c-202.06-16.98-360.72-186.39-360.72-392.76
		C445.58,650.49,474.39,569.28,523.1,503.66L523.1,503.66z M1051.85,406.17L839.18,886.59L623.6,408.78
		c62.08-40.8,136.37-64.54,216.2-64.54C917.86,344.32,990.62,366.98,1051.85,406.17L1051.85,406.17z M1233.94,738.46
		c0,206.21-158.43,375.47-360.18,392.76l279.59-631.63C1203.9,565.82,1233.94,648.64,1233.94,738.46L1233.94,738.46z
		 M478.39,1316.15l-48.48-127.62h19.59l36.42,101.88c0.15,0.15,0.46,0.46,0.85,0.61c0.31-0.15,0.46-0.46,0.85-0.61l36.42-101.88
		h19.59l-48.79,127.62H478.39z M965.34,1318.45l-25.97-26.12c8.32-11.34,12.94-24.97,13.22-39.03v-1.61v-2.3v-1.15
		c-1.92-35.42-30.5-63.46-65.77-63.69h-0.31c-29.2,0.15-54.01,19.59-62.54,46.71c-1,3.23-1.61,6.68-2.15,10.3
		c-1.31,9.99-0.85,19.28,1.15,27.89c7.53,28.73,33.11,49.79,63.69,49.79c15.52,0,29.58-5.38,40.8-14.52l13.68,13.68h24.2
		L965.34,1318.45z M915.55,1292.95c0.15,0.15-0.31,0.31-0.69,1c-15.98,14.67-55.47,15.67-70.68-17.98
		c-6.68-14.67-6.84-29.89-1.15-44.87c7.99-20.9,28.43-32.81,50.25-29.89c21.51,2.92,38.03,20.05,40.64,42.26
		c1.61,13.91-0.31,25.43-6.84,36.57l-8.84-8.84l-6.07,5.22c-0.61,0.46-1.15,1-1.61,1.61l-5.22,4.76l9.76,9.76
		C915.4,1292.64,915.4,1292.79,915.55,1292.95L915.55,1292.95L915.55,1292.95z M1074.67,1188.23h-17.44v89.12
		c-1.46,8.14-6.07,15.21-12.6,19.9c-6.22,4.92-14.37,6.99-22.82,5.84c-8.99-1.31-15.83-5.22-20.21-11.45
		c-4.53-5.53-7.15-12.6-7.15-20.21v-1v-1.77v-80.13v-0.31h-17.44v24.36v62.85c0,0.46,0,2.46,0.15,3.61
		c6.22,38.18,48.94,50.09,75.91,32.65c15.52-10.14,21.74-25.12,21.51-43.26v-9.3L1074.67,1188.23L1074.67,1188.23z M1106.17,1188.38
		H1124v131.23h-17.82V1188.38z M1231.17,1276.2c-0.85-7.15-3.46-13.37-7.84-18.59c-1.15-1.31-2.3-2.3-3.46-3.07
		c-0.31-0.15-0.61-0.31-0.85-0.61c-1.31-1-2.61-1.61-3.61-2.15c-0.69-0.31-1.31-0.61-1.92-0.85c-1.46-0.61-3.07-1.46-4.53-2.15
		l-20.44-6.99c-3.23-1-6.38-2.3-9.3-4.23c-3.76-2.77-7.15-6.84-7.53-7.15c-4.38-8.14-3.76-14.83,2.46-21.51l5.22-3.92
		c14.21-6.84,26.43-3.61,37.19,7.38l12.37-11.76c-2.92-4.07-10.3-8.84-14.21-10.76c-11.06-5.84-29.58-6.99-46.02,1.77
		c-11.76,6.38-18.13,16.98-18.13,30.5c0,14.52,6.07,25.66,19.28,32.35c5.22,2.61,10.91,4.53,16.52,6.38
		c6.07,1.92,12.06,3.61,17.59,6.99c9.76,5.84,11.75,17.82,4.38,26.58c-3.46,4.23-7.99,6.84-13.22,8.14
		c-13.91,3.23-25.28-1.31-34.42-12.37l-6.84,5.69c-2.3,2.15-4.92,3.92-6.53,6.38c17.82,23.97,58.24,23.2,77.98-1.15
		c0,0,1.92-2.3,2.77-5.07C1228.72,1295.79,1232.48,1287.57,1231.17,1276.2L1231.17,1276.2L1231.17,1276.2z M796.85,1188.69
		c-5.69-0.61-11.6-0.46-17.29-0.15v105.95l-24.12-36.73l-45.41-69.38h-23.05v1.92l-0.15,115.71c0,2.92-0.15,5.84-0.15,8.84
		c0.15,0.31,0.31,0.46,0.15,0.85c5.69,0.61,11.6,0.31,17.29,0.15c0-0.31,0-0.85,0.31-1.15v-102.34l5.53,7.38l16.98,24.82
		l46.71,71.53h23.05L796.85,1188.69L796.85,1188.69L796.85,1188.69z M668.39,1316.15l-53.86-127.77c-2.61,0-4.92,0-7.15-0.15h-0.46
		h-1h-1h-0.46l-7.15,0.15l-53.86,127.77h1.61l18.29,0.15l13.06-31.35h59.93l13.06,31.35l18.29-0.15H668.39z M582.88,1269.13
		l6.22-15.98l15.83-41.1h0.85h0.85l15.83,41.1l6.22,15.98H582.88L582.88,1269.13z"/>
</g>
</svg>
