<?xml version="1.0" encoding="utf-8"?>
<svg version="1.1" id="Layer_1" xmlns="http://www.w3.org/2000/svg" xmlns:xlink="http://www.w3.org/1999/xlink" x="0px" y="0px"
	 viewBox="0 0 1907.4 513.6" style="enable-background:new 0 0 1907.4 513.6;" xml:space="preserve">
<g>
	<g>
		<path style="fill:#3C9700;" d="M9.8,118.3v63.1h116.9L0,319.5v74.8h232v-63.1H102.4L232,189.9v-71.6H9.8z"/>
		<path style="fill:#3C9700;" d="M942,513.6h87.9V352.7h4.2c14.5,37.9,42.6,44.9,74.4,44.9c73.4,0,101.5-33.7,101.5-117.9v-63.1
			c0-73-37-101.5-101.5-101.5c-38.4,0-66.4,9.4-76.7,46.8h-4.2l1.9-43.5h-87.9L942,513.6L942,513.6z M1073.9,184.3
			c46.3,0,48.6,18.2,48.6,72c0,62.7-12.2,71.6-48.6,71.6c-40.7,0-44-25.3-44-71.6C1029.9,198.3,1036.5,184.3,1073.9,184.3
			L1073.9,184.3z"/>
		<path style="fill:#3C9700;" d="M1327.9,0h-87.9v394.3h87.9V0z M1614.6,394.3v-276h-87.9v169.8c0,27.1-26.2,39.8-49.6,39.8
			c-29.5,0-32.3-20.1-32.3-45.4V118.3h-87.9v188.5c0,67.4,37.9,90.3,90.7,90.3c37.4,0,67.8-13.6,80-56.1h4.2l-2.8,52.9L1614.6,394.3
			z M1894.3,196.4v-13.1c0-67.8-69.7-68.3-118.3-68.3c-74.8,0-131.4,1.4-131.4,90.3c0,56.1,20.1,81.9,131.4,81.9
			c30.4,0,45.8,0,45.8,27.1c0,21.5-6.1,24.3-45.8,24.3c-21.5,0-43.5,0-43.5-30.9h-87.9c0,90.7,61.7,89.3,131.4,89.3
			c70.6,0,131.4-12.2,131.4-93.1c0-77.2-40.2-82.3-131.4-84.7c-44.9-0.9-45.8-10.3-45.8-24.3c0-16.4,0-22,45.8-22
			c14,0,32.7,0,35.5,22.9L1894.3,196.4L1894.3,196.4z"/>
	</g>
	
		<radialGradient id="SVGID_1_" cx="155.3628" cy="807.7178" r="37.1508" gradientTransform="matrix(4.6772 0 0 4.6772 21.3804 -3514.5486)" gradientUnits="userSpaceOnUse">
		<stop  offset="0" style="stop-color:#FDE263"/>
		<stop  offset="0.467" style="stop-color:#FDE262"/>
		<stop  offset="0.513" style="stop-color:#F9D85A"/>
		<stop  offset="0.591" style="stop-color:#EFBC45"/>
		<stop  offset="0.612" style="stop-color:#ECB43E"/>
		<stop  offset="0.691" style="stop-color:#DA902C"/>
		<stop  offset="0.824" style="stop-color:#AF6026"/>
		<stop  offset="0.868" style="stop-color:#AD5F26"/>
		<stop  offset="0.893" style="stop-color:#A45B26"/>
		<stop  offset="0.913" style="stop-color:#965526"/>
		<stop  offset="0.93" style="stop-color:#834C26"/>
		<stop  offset="0.946" style="stop-color:#694126"/>
		<stop  offset="0.958" style="stop-color:#523726"/>
	</radialGradient>
	<path style="fill:url(#SVGID_1_);" d="M916.3,263.3c0,92.6-75.3,167.4-167.4,167.4c-92.6,0-167.4-75.3-167.4-167.4
		S656.7,95.9,748.8,95.9C841.4,95.9,916.3,171.2,916.3,263.3z"/>
	<path style="fill:#262020;" d="M837.7,263.3c0,49.1-39.8,88.9-88.9,88.9S660,312.4,660,263.3s39.8-88.9,88.9-88.9
		S837.7,214.2,837.7,263.3L837.7,263.3z"/>
	
		<radialGradient id="SVGID_2_" cx="144.1508" cy="795.4908" r="10.825" gradientTransform="matrix(4.6772 0 0 4.6772 21.3804 -3514.5486)" gradientUnits="userSpaceOnUse">
		<stop  offset="0" style="stop-color:#EAEBEC;stop-opacity:0.95"/>
		<stop  offset="0.979" style="stop-color:#EAEBEC;stop-opacity:2.000000e-02"/>
		<stop  offset="1" style="stop-color:#EAEBEC;stop-opacity:0"/>
	</radialGradient>
	<path style="fill:url(#SVGID_2_);" d="M746,206.3c0,28.1-22.9,50.5-50.5,50.5c-28.1,0-50.5-22.5-50.5-50.5s22.9-50.5,50.5-50.5
		C723.6,155.3,746,178.2,746,206.3z"/>
	
		<radialGradient id="SVGID_3_" cx="81.2008" cy="807.7178" r="37.1507" gradientTransform="matrix(4.6772 0 0 4.6772 21.3804 -3514.5486)" gradientUnits="userSpaceOnUse">
		<stop  offset="0" style="stop-color:#FDE263"/>
		<stop  offset="0.467" style="stop-color:#FDE262"/>
		<stop  offset="0.513" style="stop-color:#F9D85A"/>
		<stop  offset="0.591" style="stop-color:#EFBC45"/>
		<stop  offset="0.612" style="stop-color:#ECB43E"/>
		<stop  offset="0.691" style="stop-color:#DA902C"/>
		<stop  offset="0.824" style="stop-color:#AF6026"/>
		<stop  offset="0.868" style="stop-color:#AD5F26"/>
		<stop  offset="0.893" style="stop-color:#A45B26"/>
		<stop  offset="0.913" style="stop-color:#965526"/>
		<stop  offset="0.93" style="stop-color:#834C26"/>
		<stop  offset="0.946" style="stop-color:#694126"/>
		<stop  offset="0.958" style="stop-color:#523726"/>
	</radialGradient>
	<path style="fill:url(#SVGID_3_);" d="M569.7,263.3c0,92.6-75.3,167.4-167.4,167.4c-92.6,0-167.4-75.3-167.4-167.4
		S310.1,95.9,402.2,95.9S569.7,171.2,569.7,263.3z"/>
	<path style="fill:#262020;" d="M491.1,263.3c0,49.1-39.8,88.9-88.9,88.9s-88.9-39.8-88.9-88.9s39.8-88.9,88.9-88.9
		S491.1,214.2,491.1,263.3L491.1,263.3z"/>
	
		<radialGradient id="SVGID_4_" cx="69.9908" cy="795.4908" r="10.8325" gradientTransform="matrix(4.6772 0 0 4.6772 21.3804 -3514.5486)" gradientUnits="userSpaceOnUse">
		<stop  offset="0" style="stop-color:#EAEBEC;stop-opacity:0.95"/>
		<stop  offset="0.979" style="stop-color:#EAEBEC;stop-opacity:2.000000e-02"/>
		<stop  offset="1" style="stop-color:#EAEBEC;stop-opacity:0"/>
	</radialGradient>
	<path style="fill:url(#SVGID_4_);" d="M399.4,206.3c0,28.1-22.5,50.5-50.5,50.5c-28.1,0-50.5-22.5-50.5-50.5s22.5-51,50.5-51
		C377,155.3,399.4,178.2,399.4,206.3z"/>
</g>
</svg>
