<svg xmlns="http://www.w3.org/2000/svg" viewBox="0 0 296 200.1"><style><![CDATA[.B{font-family:MyriadPro-Regular}.C{font-size:32px}]]></style><path d="M-677.2-402.8h-22l-12.5 36.2c.6-3 .7-5.4.7-6.5 0-15.1-8.7-29.7-29.1-29.7h-23.4v35.9c-2-10.2-11.3-12.9-22.9-16.4-4.4-1.4-6.7-3.5-5.9-5.4.8-1.7 3.4-2.3 6.6-1.8 4.9.7 8.9 2.4 12.7 4.4l5.2-12.8c-1.2-.6-9.6-5.6-20.1-5.6-14.7 0-24 7.1-24 17.7 0 9.4 5.8 14.9 16.5 18 11.5 3.3 14.4 4.6 14 7.9-.3 2.8-7.4 6.2-24.8-4.4l-5.1 10.6-16-48h-21.9l-20.7 59.7h17.3l2.7-8.4h21.8l2.6 8.4h18.1l-2.1-5.8c6.1 3.5 13.7 6.7 22.8 6.7 13.9 0 21.5-7.6 23.2-14.9v14h23.4c14 0 21.2-6.7 25-13.7l-4.8 13.7h17.3l2.7-8.4h21.8l2.5 8.4h18.2l-19.8-59.8zm-168.3 37.4l6.5-21.4 6.4 21.4h-12.9zm103.6 6.9h-3.9v-29.2h3.8c5.9 0 12.4 2.4 12.4 14.5 0 10.7-5.7 14.7-12.3 14.7zm46.7-6.9l6.4-21.1 6.4 21.1h-12.8"/><path d="M-677.2-402.8h-22l-12.5 36.2c.6-3 .7-5.4.7-6.5 0-15.1-8.7-29.7-29.1-29.7h-23.4v35.9c-2-10.2-11.3-12.9-22.9-16.4-4.4-1.4-6.7-3.5-5.9-5.4.8-1.7 3.4-2.3 6.6-1.8 4.9.7 8.9 2.4 12.7 4.4l5.2-12.8c-1.2-.6-9.6-5.6-20.1-5.6-14.7 0-24 7.1-24 17.7 0 9.4 5.8 14.9 16.5 18 11.5 3.3 14.4 4.6 14 7.9-.3 2.8-7.4 6.2-24.8-4.4l-5.1 10.6-16-48h-21.9l-20.7 59.7h17.3l2.7-8.4h21.8l2.6 8.4h18.1l-2.1-5.8c6.1 3.5 13.7 6.7 22.8 6.7 13.9 0 21.5-7.6 23.2-14.9v14h23.4c14 0 21.2-6.7 25-13.7l-4.8 13.7h17.3l2.7-8.4h21.8l2.5 8.4h18.2l-19.8-59.8zm-168.3 37.4l6.5-21.4 6.4 21.4h-12.9zm103.6 6.9h-3.9v-29.2h3.8c5.9 0 12.4 2.4 12.4 14.5 0 10.7-5.7 14.7-12.3 14.7zm46.7-6.9l6.4-21.1 6.4 21.1h-12.8zm41.3 31.3c0-1.2.9-2.1 2.1-2.1s2.1.9 2.1 2.1-.9 2.1-2.1 2.1c-1.2.1-2.1-.8-2.1-2.1zm2 2.6c1.4 0 2.6-1.1 2.6-2.5 0-1.5-1.2-2.5-2.6-2.5s-2.6 1.1-2.6 2.5c.1 1.4 1.3 2.5 2.6 2.5zm-.5-2.4h.5l.8 1.3h.5l-.8-1.3c.4-.1.8-.3.8-.8 0-.6-.3-.8-1-.8h-1.1v2.9h.4v-1.3zm0-.3v-.9h.6c.3 0 .6.1.6.4 0 .5-.3.5-.7.5h-.5m-152.8-3.7h7.9v21.5h10v7.6h-17.9zm-25.3 0h-7.5l-3.9 22.4-3.5-22.3h-9l-3.4 23.4-4.3-23.5h-7.9l7.1 29.1h9.4l3.7-18.8 3.6 18.8h8.9z"/><path d="M-815-337.9h-11.6l-8.6 29h8l1.3-6.1h10l1.5 6.1h8l-8.6-29zm-9.1 16l3.2-10.4 3.1 10.4h-6.3zm143.2-16h24v7.9h-8v21.4h-8V-330h-8zm-86.5 0h11.9l4.2 22.7 3.9-22.7h12v29.1h-7.5v-20.3l-4.7 20.3h-7.6l-4.6-20.9v20.9h-7.6zm53.1 0H-726l-8.5 29.1h7.7l1.8-6.1h9.6l1.9 6.1h7.8l-8.6-29.1zm-9.1 15.9l2.9-10 3.2 10h-6.1zm34.5 1s7.1-1.6 7.1-9.1-6.9-7.8-6.9-7.8h-16.1v29h7.8v-11.3l7.1 11.3h9.2l-8.2-12.1zm-3.1-4.5h-5.2v-5.2h5.1s2.3 0 2.3 2.1c.1 2.7-2.2 3.1-2.2 3.1zm-83.3 2.6l6.1-4.5h-7.6l-2.3-7.2-2.4 7.2h-7.7l6.2 4.5-2.4 7.4 6.3-4.6 6.1 4.5z"/><g fill-rule="evenodd"><path d="M-239.4-382.1l25.2 25.1 25-25.2z"/><path d="M-214.2-357l-25.1 25.1 50.2-.1z"/><path d="M-164-357.1l-25.2-25.1.1 50.2 25.1-25.1m-100.5.2l25.1-25.2.1 50.2-25.2-25m-178.3-1.2h22.6V-372c0-2.5-.2-4.1-.5-4.9-.2-.6-.7-1.1-1.5-1.5-1-.6-2.1-.9-3.3-.9h-1.7v-1.3h20.8v1.3h-1.7c-1.1 0-2.2.3-3.2.8a3.29 3.29 0 0 0-1.6 1.7c-.3.8-.4 2.4-.4 4.7l.1 31.3c0 2.5.2 4.1.5 4.9.2.6.7 1.1 1.5 1.5 1.1.6 2.2.9 3.3.9h1.7v1.3H-427v-1.3h1.7c2 0 3.4-.6 4.3-1.8.6-.8.9-2.6.9-5.5v-14.8l-22.6.1v14.8c0 2.5.2 4.1.5 4.9.2.6.7 1.1 1.5 1.5 1 .6 2.1.9 3.3.9h1.8v1.3h-20.8v-1.3h1.7c2 0 3.5-.6 4.4-1.8.6-.8.9-2.6.8-5.5l-.1-31.3c0-2.5-.2-4.1-.5-4.9-.2-.6-.7-1.1-1.5-1.5-1-.6-2.1-.9-3.3-.9h-1.7v-1.3h20.8v1.3h-1.8c-1.1 0-2.2.3-3.3.8-.7.4-1.3 1-1.5 1.7-.3.8-.4 2.4-.4 4.7v14m68.2-23.8v16.8h-1.3c-.4-3.2-1.2-5.8-2.3-7.7s-2.7-3.4-4.8-4.5c-2-1.1-4.2-1.7-6.4-1.7-2.5 0-4.5.8-6.2 2.3-1.6 1.5-2.4 3.3-2.4 5.2 0 1.5.5 2.8 1.6 4 1.5 1.8 5 4.2 10.6 7.1 4.5 2.4 7.6 4.3 9.3 5.6a12.86 12.86 0 0 1 3.8 4.6c.9 1.8 1.4 3.6 1.4 5.6 0 3.7-1.4 6.9-4.3 9.5-2.8 2.7-6.5 4-11 4-1.4 0-2.7-.1-4-.3-.7-.1-2.3-.5-4.6-1.3s-3.8-1.1-4.4-1.1-1.1.2-1.4.5c-.3.4-.6 1.1-.8 2.2h-1.3v-16.6h1.3c.6 3.5 1.5 6.1 2.5 7.8 1.1 1.7 2.7 3.2 4.8 4.3s4.5 1.7 7.1 1.7c3 0 5.3-.8 7.1-2.4 1.7-1.6 2.6-3.4 2.6-5.6 0-1.2-.3-2.4-1-3.6s-1.7-2.3-3.1-3.4c-.9-.7-3.5-2.2-7.6-4.6-4.2-2.3-7.1-4.2-8.9-5.5-1.8-1.4-3.1-2.9-4-4.6s-1.4-3.5-1.4-5.5c0-3.5 1.3-6.5 4-9s6.1-3.8 10.2-3.8c2.6 0 5.3.6 8.2 1.9 1.3.6 2.3.9 2.8.9.6 0 1.1-.2 1.5-.5.4-.4.7-1.1.9-2.3h1.5"/><path d="M-355.5-335.8c2.8.6 5.5 1 8.2.9 4.3 0 7.6-1 9.9-2.9s3.4-4.4 3.4-7.2c0-1.9-.5-3.7-1.6-5.4-1-1.8-2.7-3.1-5-4.1s-5.2-1.5-8.6-1.5c-1.5 0-2.8 0-3.8.1-1.1 0-1.9.1-2.6.3l.1 19.8m0-23.2c.9.2 1.9.3 3 .4s2.4.1 3.7.1c3.5 0 6.1-.4 7.9-1.1s3.1-1.9 4-3.5c.9-1.5 1.4-3.2 1.4-5.1 0-2.8-1.2-5.3-3.5-7.2-2.3-2-5.7-3-10.1-3-2.4 0-4.5.3-6.4.8v18.6zm18.8 1.9c3.4.7 5.9 1.8 7.6 3.4 2.3 2.2 3.5 4.9 3.5 8 0 2.4-.8 4.7-2.3 6.9s-3.6 3.8-6.3 4.8-6.7 1.5-12.2 1.6h-22.9v-1.3h1.8c2 0 3.5-.6 4.4-1.9.5-.8.8-2.6.8-5.3l-.1-31.4c0-3-.3-4.9-1.1-5.7-.9-1.1-2.3-1.6-4.1-1.6h-1.8v-1.3h21c3.9 0 7.1.3 9.4.8 3.6.8 6.3 2.4 8.2 4.5 1.9 2.2 2.8 4.7 2.8 7.5 0 2.4-.7 4.6-2.2 6.5-1.5 2.2-3.6 3.6-6.5 4.5zm55.9-25l1.1 16.5h-1.1c-1.5-4.9-3.6-8.5-6.4-10.6-2.8-2.2-6-3.3-9.9-3.2-3.2 0-6.1.8-8.7 2.5s-4.6 4.3-6.1 7.8c-1.5 3.6-2.2 8-2.2 13.4 0 4.4.7 8.2 2.1 11.4s3.5 5.7 6.4 7.4c2.8 1.7 6.1 2.6 9.7 2.6 3.1 0 5.9-.7 8.3-2.1 2.4-1.3 5-4 7.9-8l1.1.7c-2.4 4.3-5.3 7.5-8.5 9.5s-7.1 3-11.6 3c-8 0-14.3-2.9-18.7-8.9-3.3-4.4-5-9.7-5-15.7 0-4.8 1.1-9.3 3.2-13.4 2.2-4.1 5.2-7.2 9-9.4s8-3.4 12.5-3.4c3.5 0 7 .8 10.4 2.5 1 .5 1.7.8 2.2.8a2.34 2.34 0 0 0 1.7-.7c.6-.6 1.1-1.5 1.3-2.7h1.3m356.9 13.3l-1.6 6.2h6s-1.4 5.7-2.2 10c-.8 3.2-2.7 11.4-1.4 14.3 1.1 2.2 3.8 3.5 6 3.5 4.3.3 9.7.3 9.7.3l1.4-8.1h-3.2s-3 .3-3.2-1.4c-.8-3.2 3.2-18.7 3.2-18.7H98l1.4-6.2h-7.3l2.2-10s-5.7-.3-7 0c-1.9.3-3.2 2.4-4.1 4.3-.8 2.4-1.4 5.7-1.4 5.7h-5.7v.1zM95-334.4s1.1-6.2 4.1-10.3c4.1-5.4 14.1-9.7 17.1-11.4 5.7-2.4 9.2-6 9.2-9.2 0-2.2-1.9-5.4-6.2-5.4-4.1 0-7.6 3.5-8.1 8.1h-5.7-5.1s1.6-8.4 6.5-12.2c4.1-3 7-4.1 12.4-4.3h1.9c5.7.3 10.6 2.4 13 6.2 2.4 4.1 3.2 10.8-.5 15.2-3.5 3.8-7 6-10 7.6-4.3 2.4-9.7 5.4-11.4 6-1.4.8-1.1 1.6-1.1 1.6H129c2.7 0 4.1-1.1 4.1-1.1s1.4 3.8-.5 6.2c-.5.8-2.4 3-6 3H95h0zm43.3 0l1.9-11.4h12.5l-2.2 11.4h-12.2zm53.9-12.7c0 10.8-10.6 13.5-11.4 13.8-2.2.5-5.4.8-8.7.8-6.5 0-14.6-5.7-14.6-14.9 0-13 7.8-22.7 21.7-22.5 14.3.5 14.6 11.6 14.6 13.8h-11.1c0-.8.3-5.4-5.4-5.4-6.8 0-9.2 6.2-9.2 13 0 5.1 3.2 7.6 7.3 7.6 1.4 0 2.2-.3 3.2-.8 2.7-1.9 2.7-4.3 2.7-5.4h10.9 0zm18.1 14.6c-9.2 0-15.2-6-15.2-14.6 0-12.2 8.7-22.2 21.1-22.2 9.5 0 14.9 6.5 14.9 14.3.1 13-8.6 22.5-20.8 22.5h0 0zm1.4-8.1c5.4 0 8.7-8.1 8.7-14.1 0-3.5-1.4-6.8-5.4-6.8-6 0-8.9 8.7-8.9 14.1 0 4.1 1.9 6.8 5.4 6.8h.2 0zm20.3 6.7l4.6-23c1.1-4.3 1.6-8.1 1.9-11.1h9.5l-.8 5.4h.3c3.2-4.3 7.6-6.2 12.5-6.2 6 0 8.4 3.5 8.7 6.5 3.2-4.6 7.8-6.5 12.7-6.5 4.6 0 7.8 2.4 8.7 6.5v6c0 1.1-.3 1.9-.3 2.7l-4.1 19.8H275l3.8-18.7c.3-1.4.5-2.7.5-4.1 0-2.4-1.1-4.1-3.8-4.1-3.5 0-7 4.3-8.4 11.4l-3.2 15.4h-10.3l3.8-18.7c.3-1.4.3-2.7.3-4.1 0-2.2-.8-4.1-3.2-4.1-3.8 0-7.6 4.6-8.9 11.4l-3 15.4H232v.1z"/><path d="M58.2-369c-5.4.3-9.5 1.1-14.1 6-4.6 5.1-5.7 18.7-4.3 21.4s3.8 8.1 15.7 8.4c13.8.5 17.3-11.1 17.3-11.1H61.7s0 3.5-5.7 3.8c-8.1 0-6.2-8.1-6.2-8.1h24.4s0-.5.5-6.8c.3-7.1-5.9-13.9-16.5-13.6h0zm6 13.5l-13.8.3s1.1-7 7.8-7c6.3-.1 6 6.7 6 6.7h0zm-27.6-23.3c-2.2 0-4.6.5-6 2.2-1.6 1.6-2.2 4.9-2.7 7 0 .5 0 1.1-.3 1.9h.5H30l4.9-6.8H36l-2.7 6.8 5.7.3 1.1-1.4c1.4-5.7 2.2-10 2.2-10h-5.7 0zm-3.3 13l2.7 6.5h-1l-4.9-6.5h-1.9c-.3 0-.5 0-.8-.3-.5 2.7-1.1 6.2-1.6 10-1.6 7.6-1.4 12.7-7.8 12.7-2.2 0-4.1-.8-4.1-2.4 0-2.7.5-7.3.5-7.3H3.3s-.3 4.3-.3 9.2c0 4.3 4.6 10 14.1 10 7.3 0 12.2-1.6 16.2-7.6 2.2-3 3.2-10 4.9-17.6.3-2.2.8-4.6 1.4-6.8l-.5-.3-5.8.4h0zM137.5-378h-1.3v-.5h3v.5h-1.1v3.5h-.6v-3.5zm5.7 1.9c-.3-.8-.3-1.4-.3-1.9h0c0 .5-.3 1.1-.5 1.6l-.5 1.9h-.5l-.5-1.9c-.3-.5-.5-1.1-.5-1.6h0v1.9l-.3 1.6h-.5l.3-4.1h.8l.5 1.9c.3.5.5 1.1.5 1.6h0c0-.5.3-1.1.5-1.6l.5-1.9h.8l.3 4.1h-.5v-1.6h-.1zm-965.4 505.7h-29c-1.1 0-2.3-.6-2.3-1.7v-5.7c0-4 2.3-6.3 6.3-6.3h26.2c2.8 0 4-1.1 4-2.3 0-1.7-1.1-2.8-4.6-3.4l-16.5-4c-10.8-2.3-15.9-7.4-15.9-15.9 0-9.7 6.8-17.6 19.9-17.6h29c1.7 0 2.8.6 2.8 1.7v6.3c0 3.4-1.7 6.3-6.3 6.3h-25.6c-2.8 0-3.4.6-3.4 2.3 0 1.1 1.1 2.8 4.6 3.4l16.5 3.4c10.8 2.3 15.9 8 15.9 17.1 0 9-6.3 16.4-21.6 16.4h0zm83.6-51.7l-19.9 21 18.2 26.2c0 .6 1.1 1.7 1.1 2.3 0 1.7-1.1 2.3-2.8 2.3h-12.5c-1.7 0-2.3-.6-3.4-2.3L-777.8 99l22.2-23.9c1.1-1.7 1.7-2.3 3.4-2.3h11.9c1.7 0 2.8.6 2.8 2.3 0 1.1-.5 2.2-1.1 2.8h0zm-46.1 51.7h-8.5c-1.1 0-2.3-.6-2.3-1.7V53.4c0-4 2.3-5.7 6.3-5.7h8.5c1.1 0 1.7.6 1.7 1.7V124c0 3.9-2.3 5.6-5.7 5.6h0z"/><path d="M-715.3 149.6c-.6 1.7-1.7 2.8-4 2.8h-9.1c-1.7 0-3.4-1.1-3.4-2.8 0-.6.6-1.7 1.1-2.8l9.7-21-26.7-49.5c-1.1-2.3 0-3.4 1.7-3.4h11.4c2.8 0 5.1 1.1 5.7 2.8l16.5 32.4 14.2-31.9c1.1-2.3 3.4-3.4 5.7-3.4h9.7c1.7 0 2.8 1.1 1.7 3.4l-34.2 73.4h0z"/></g><path d="M-458.1 88.5c.4-.9 1.1-1.6 1.8-2.3 1.3-1 3-2.2 4.9-1.9.3.1.5.2.7.2.3-.1.3-.5.5-.7v.1l.5.7c2.6-.8 4.9.8 6.5 2.5.5.5.8 1 1.1 1.5h-.8c-1.4-1.7-3.1-3.3-5.4-3.5a1.69 1.69 0 0 0-1 .3c-.5.3-.5.9-.5 1.6.2.5.4 1.1.4 1.7h-1.6c0-.1.1-.3.1-.4.3-.9.5-2-.1-2.7-.3-.3-.8-.5-1.3-.5-1.9.5-3.3 1.4-4.6 2.8a3.04 3.04 0 0 0-.5.7h-.7"/><path d="M-459.1 91.8c0-.1 0-.1.1-.2s.2-.3.2-.5c-.1-.3-.4-.3-.5-.5v-.1l.7-.2c0-.7.2-1.3.5-1.9h.8c-.3.5-.5 1.1-.3 1.7s.7.8 1.3 1c1.1.2 2.3.1 3.3.6h-4c-.2-.1-.5-.1-.7-.1l-.2.1h-1.2m6.8.1c.4-.5.9-.9 1.6-1.1l.1-.1c-.1-.7-.3-1.4-.2-2.1h1.6c.1.7 0 1.4-.2 2.1.7.3 1.3.7 1.7 1.2h-1.4a1.69 1.69 0 0 0-1-.3c-.2.1-.4.1-.6.2-.1 0-.2.1-.3.1h-1.3"/><path d="M-447 91.8c1.2-.7 3.2-.3 4.4-1.2.3-.5.4-1.2.1-1.8-.1-.1-.1-.2-.2-.3h.8c.3.6.5 1.2.5 1.9l.7.2-.5.7c.2.2.3.3.4.5h-1.2c-.3-.1-.5-.1-.8-.1-.1 0-.1 0-.2.1h-4m-12.5 1.6c0-.6.2-1.1.4-1.6h1.2l-.4.2c-.1.1-.2.3-.3.4-.1.3-.1.7-.1 1h-.8"/><path d="M-452.9 93.4l-.1-.2c-1.6.1-2.6-1.2-4-1.5h4c.1.1.3.2.4.3l.1-.1.2-.2h1.4c-.5.3-.9.9-1 1.6h0-1m4.8.1c0-.3-.1-.6-.2-.9-.2-.3-.4-.6-.8-.7h1.4l.3.3c.1-.1.2-.2.4-.3h3.9c-1.3.5-2.4 1.5-3.9 1.6v.1l-1.1-.1"/><path d="M-441.2 93.4c0-.4-.1-.7-.2-1.1-.2-.3-.4-.5-.7-.6h1.2c.3.5.4 1 .5 1.6h-.8m-18.3.1h.7c-.1 2 .7 4.1 1.8 5.6.1.1.2.2.3.2h-1a3.04 3.04 0 0 1-.5-.7c-.6-1.2-1.3-2.9-1.3-4.4v-.7"/><path d="M-454.8 99.2c1.2-1 1-3.1 2.6-3.9l-.6-2h1c0 .6.3 1.2.9 1.6a2.25 2.25 0 0 0 1.8.2c.5-.3.9-.6 1.1-1.3v-.5h1.1c-.1.7-.4 1.4-.6 1.9l.1.1c1.3.8 1.3 2.8 2.4 3.8h-.8c-.8-1.1-2.4-1.6-2.8-3-.7-.1-1.5.2-2.3-.1h-.1c-.4.8-1 1.6-1.8 2.2l-.9.9h-1.1m11.4.1c.2-.1.4-.3.6-.5.9-1.4 1.8-3.4 1.6-5.3h.7a10.68 10.68 0 0 1-.3 2.5c-.4 1.3-.9 2.5-1.7 3.4h-.9"/><path d="M-457.7 99.2c.5.6 1.3 1 1.9 1.4v.7c.3-.1.5-.5.8-.3.4.6 1.1 1.2 1.8 1.4.5.2.9.3 1.4.4 2.3.5 5.4.2 6.8-1.8l.8.2v-.7c.1-.2.3-.3.6-.4.5-.3.8-.6 1.1-1h-1c-.4.3-.8.5-1.3.3-.2-.1-.4-.2-.5-.3h-.8c.2.2.3.5.4.8.1.7-.3 1.2-.7 1.4-2 1.1-4.5 1-6.6.3-.6-.3-1.1-.7-1.3-1.3a1.48 1.48 0 0 1 .4-1.3h-1c-.1.1-.2.2-.4.3-.5.1-1 0-1.4-.3h-1m-4.2-14.8c.3 4-.3 8 .3 12.1.8 3.1 2.9 5.5 5.4 7 3.6 2.5 8.9 2 12.6-.1 2.9-1.6 4.8-4.4 5.6-7.8.3-2.3.1-4.5.1-6.8v-4.4h14.1c0 7.4.9 16.6-3.7 22.8-4.6 6.5-11.7 10.1-20 11-6.1.6-12.2.4-18.1-1.7-.1-.1-.1-.3-.1-.5 6.7 2.2 15.2.6 20.3-3.6.8-.7 1.6-1.6 2.2-2.3 1.4-1.7 2.4-3.2 3.2-5.3-5.1 2.5-11.3 3.4-16.9 2.7-1.7-.1-3.3-.3-5-.7-5.1-1.1-9.7-2.9-12.3-7-2.6-4.7-1.1-10.3-1.5-15.4 3.8.1 11.1 0 13.8 0m177.8 2.4a2.7 2.7 0 1 0 0 5.4 2.7 2.7 0 1 0 0-5.4zm132.2 19.7l8.8-10.8h-7.1l-7.2 9.6V81.3h-5.7v36.6h5.7v-10.6l8 10.6h7.6l-10.1-11.6zm-28.7-8.3v-1.9h-5v21.8h5.5v-13.1c0-6.2 9.6-5.3 9.6 0v13.1h5.1v-14.3c.1-10-13.2-9.7-15.2-5.6zm-12.5 1.2c-1.4-6.2-18.6-7.2-19.7 7.5v.3c.1 6.7 4.8 11.6 11.7 11.6 2.9 0 6.3-1 8-3.2v2.6h5.3V95.7h-5.3v3.5zm-6.9 14.4c-3.4 0-7-3.1-6.7-6.5.3-4 3-6.5 6.7-6.5 3.5 0 6.9 1.8 6.9 6.5 0 2.7-1.6 6.2-6.9 6.5zm-20.7-14.4c1.8-1.3 3.6-1.7 3.8-5.5v-1c0-4.6-3-8.7-12.3-8.7h-9.1v33.9h10.3c10.4 0 13.4-6.1 13.4-9.6v-.7c-.2-3.6-1.5-6-6.1-8.4zm-10.8-9c3.8 0 7.7-.3 7.7 2.9v.6c-.3 3-2.4 3.3-7.7 3.3v-6.8zm10 17.4c-.1 3.6-4.4 4.2-10 3.9v-7.9c5.7-.4 10 .3 10 4h0zM-256 95.5c-6.7.1-10.2 3.6-11.6 7.3-.5 1.4-.7 2.8-.7 4-.6 5.9 5.3 12.3 12.9 12 5.3-.2 10.7-3.8 11.1-7.3h-6.4c-3.3 3.5-9.6 2.5-11.3-1.5h17.9c.7-2.7.5-5.1-.3-7.1-1.7-4.6-6.4-7.3-11.6-7.4zm-6 9.3c.1-.5.5-1.3 1.3-2 1.1-1.1 2.7-2 5.1-2 2.1-.1 3.7.9 4.8 2 .6.7 1 1.4 1.3 2H-262zm-12.2-7.2v-1.5h-5.1v21.8h5.7v-11.8c0-4.1.3-5 5-5.6v-5.4c-3.9 0-4.3 1.3-5.6 2.5zm-12.7 20.3h5.5V95.5h-5.5v22.4zM-304.4 97V81.4h-5.5l-.1 36.4h5.7v-12.7c0-6.2 9.3-7.5 9.3.4v12.3h5.7V103c.6-7.3-9.5-10-15.1-6zm-17.1 7.2c-2.7-1.2 1.8-5.3 3.6-1.2h5.1c-.3-4.1-3-6.9-8-6.9-2.6 0-6.3.9-7.3 4.4-.7 2.1-.7 5.8 3.3 7.7 2.6 1.3 6.9 1.6 6.9 3.5.4 2.4-4.3 3.1-5.3-.4h-6c.4 4.2 2.7 6.5 6 7.1 7.7 1.8 11.7-3.6 11-8-.9-4.9-7.9-5.6-9.3-6.2zm-8.2-8.7h-7.1l-7.3 9.6V81.6h-5.7v36.2h5.7v-10.6l8.1 10.6h7.6l-10-11.6 8.7-10.7zm-28.2 2.4v-1.5h-5.1v21.8h5.7v-11.8c0-4.1.3-5 5-5.6v-5.4c-4 0-4.4 1.3-5.6 2.5zm-28.6 1.6c-2.4 2.7-3.2 5.5-3.1 8 .1 2.9 1.5 5.5 3.1 7.4 4.3 4.8 14.9 5.1 18.6.3 1.9-2.6 3-5.1 3.1-7.7.1-2.2-.7-4.5-2.4-6.7-3.9-5.4-12.3-7.5-19.3-1.3zm14.4 12.1c-1.6 1.6-6.3 3.8-10 0-1.3-1.3-1.6-2.8-1.6-4.2 0-1.9.9-3.5 1.6-4.2 3.7-3.5 7.7-2.3 10 0 1.1 1.1 1.6 2.6 1.6 4.2 0 1.7-.6 3.3-1.6 4.2zm-15.6-27.3l-8.1 15.5-8-15.5h-6.9l11.4 21.4v12.5h7v-12.5l11.4-21.4h-6.8zm406.6 4.4h3.5v-7.1c-1.5-.1-3.4 0-4.9 0-8.5 0-11.3 4.7-11.3 9.8v3H1.5v6.5h4.7v25.4H16v-25.4h6v-6.5h-5.8V92c.1-2.4 1.4-3.3 2.7-3.3m7.3 4.9h9.2v32.6h-9.2zm.2-12.2h9V89h-9zm36 20.6v-9c-7.9 0-9.9 1.8-11.5 5.8v-4.9h-9.1v32.3h9.5v-14.6c.1-4.4 1-11.1 11.1-9.6m10.9-.1c0-3.8 11-3.8 10.7 1.4h8.4C91.7 95.4 85.2 93 78.2 93c-6.9 0-14 2.6-14 10.8 0 5.7 5.1 7.4 10.2 8.7 6.3 1.6 9.4 1.3 9.9 4 .6 3.8-4.2 4.3-5.6 4.3-3.5 0-6.7-1-6.8-4.9h-8.4c.4 8.5 7.6 11.2 15.1 11.2 7.3 0 14.7-3.3 14.7-11.7 0-12.2-20-7.4-20-13.5m41.3 24.3v-7c-6 0-6-.2-6-3.8v-14.3h5.8v-6.7h-5.8V84.2h-9.4v10.1h-4.6v6.7h4.6v16.8c.1 5.7-.4 9.2 15.4 8.4m24.5-16.3c0-8.3 4.1-9.9 7.2-9.9 5 0 7.3 3.9 7.3 9.8 0 5.8-1.9 10.3-7.3 10.3-4.7 0-7.2-4.2-7.2-10.2m14.4 12.9l.2 3.4h8.9V81.5h-9.3l-.1 15.6c-2.1-3.2-5.5-4.1-9.3-4.1-9.4 0-14.2 8-14.2 16.6 0 8.9 4.7 17.3 14.4 17.3 4.2.1 7.4-.6 9.4-4.1m15.3-29.2h9.2v32.6h-9.2zm.2-12.2h9V89h-9zm36 20.6v-9c-7.9 0-9.9 1.8-11.5 5.8v-4.9h-9.1V126h9.5v-14.5c.1-4.5 1.1-11.3 11.1-9.5m9.6 4.2c.1-2.5 2-6.5 7.3-6.5 3.8 0 6.4 2.4 6.4 6.5m9 10.7h-8.8c-.7 1.3-2.4 3.3-6.3 3.3-2.7 0-7.4-2.4-7.6-7.9h23.3c.7-10.3-4.8-19.4-15.7-19.4-9.8 0-16.4 7.5-16.4 17.1 0 9.9 6.3 16.9 16.4 16.9 7.2 0 12.6-2.4 15.1-10m13.3-6.8c0-4.7 1.9-10.5 7.4-10.4 3 0 5.9 2.2 6.5 5.9l8.6-.1C272.5 97 265.6 93 258 93c-10.4 0-16.4 7.4-16.4 17.4 0 10.4 6.5 16.6 16.2 16.6 8.4 0 14.2-4.1 15.3-12.6l-8.5-.2c-.6 3.9-3.2 5.9-6.9 5.9-5.1 0-7.1-4.9-7.1-10m38.2 5.3V101h5.8v-6.7h-5.8V84.2h-9.4v10.1h-4.6v6.7h4.6v16.8c0 5.6-.5 9.1 15.4 8.4v-7c-6.1 0-6.1-.2-6-3.8"/><text><tspan x="-1454" y="-413.627" class="B C">Have set a uniform height</tspan><tspan y="-375.227" x="-1454" class="B C">to help with proportion</tspan><tspan y="-336.827" x="-1454" class="B C">issues when displayed on</tspan><tspan y="-298.427" x="-1454" class="B C">web. Width is free (under</tspan><tspan y="-260.027" x="-1454" class="B C">14.11cm) but any new</tspan><tspan y="-221.627" x="-1454" class="B C">images to keep the</tspan><tspan y="-183.227" x="-1454" class="B C">height of 7.06cm;</tspan></text></svg>