<svg xmlns="http://www.w3.org/2000/svg" viewBox="0 0 292 31"><g transform="translate(14 85)"><defs><filter id="A" filterUnits="userSpaceOnUse" x="-14" y="-85" width="292" height="31"><feColorMatrix values="1 0 0 0 0  0 1 0 0 0  0 0 1 0 0  0 0 0 1 0"/></filter></defs><mask maskUnits="userSpaceOnUse" x="-14" y="-85" width="292" height="31" id="B"><g filter="url(#A)"><path d="M-14-85h292v31H-14z" fill-rule="evenodd" fill="#fff"/></g></mask><path d="M13.42-61.34c0 3.74-3.12 6.88-7.01 6.83-2.15 0-4.35-1.01-5.68-2.93L-.7-59.46c-.66 2.93-3.22 4.96-6.5 4.96-3.79 0-6.8-3.03-6.8-6.78v-16.94c0-3.74 2.97-6.78 6.8-6.78 3.33 0 5.93 2.17 6.55 5.16l1.64-2.23a7.06 7.06 0 0 1 5.63-2.88c3.68 0 6.8 2.88 6.8 6.62 0 1.42-.41 2.83-1.28 3.99l-3.27 4.5 3.27 4.5c.87 1.22 1.28 2.59 1.28 4zM22.84-85c4.11 0 7.39 3.34 7.34 7.29v15.9c0 3.95-3.23 7.29-7.39 7.29-4.05 0-7.34-3.29-7.34-7.29v-15.9c0-3.95 3.29-7.29 7.39-7.29zm35.78 22.11c0 4.9-4.09 8.38-10.65 8.38-8.78 0-15.25-6.51-15.25-15.25S39.18-85 47.97-85c6.56 0 10.65 3.48 10.65 8.38 0 3.28-1.62 5.5-4.85 6.87 3.23 1.36 4.85 3.63 4.85 6.86zm29.96 1.55c0 3.74-3.13 6.88-6.97 6.83-2.15 0-4.36-1.01-5.69-2.93l-1.44-2.02c-.67 2.93-3.23 4.96-6.51 4.96-3.79 0-6.82-3.03-6.82-6.78v-16.94c0-3.74 2.97-6.78 6.82-6.78 3.33 0 5.95 2.17 6.56 5.16l1.59-2.23a7.08 7.08 0 0 1 5.64-2.88c3.69 0 6.82 2.88 6.82 6.62 0 1.42-.41 2.83-1.28 3.99l-3.28 4.5 3.28 4.5c.87 1.22 1.28 2.59 1.28 4zm25.9-2.55c0 6.07-4.68 9.89-12.57 9.89-8.04 0-11.81-2.75-11.81-7.24 0-3.11 2.39-5.1 5.8-5.1h.05l-1.83-1.68c-2.29-2.09-3.87-4.18-3.87-7.24 0-5.97 4.38-9.74 11.86-9.74 7.63 0 11.25 2.7 11.25 7.24 0 2.7-1.83 4.54-4.58 4.95l1.88 1.68c2.29 2.04 3.82 4.18 3.82 7.24zm20.71 3.03c0 3.76-3.21 6.86-7.33 6.86-3.97 0-7.17-3.1-7.17-6.86v-10.52c-3.41-.2-6.21-3-6.21-6.56 0-3.71 2.95-6.56 6.56-6.56h13.79c3.61 0 6.56 2.9 6.56 6.56 0 3.56-2.8 6.4-6.21 6.56v10.52zm17.84 1.05c-1.73 3.58-4.18 5.3-7.13 5.3-5.35 0-9.22-4.9-6.83-10.4l6.27-14.54c1.58-3.58 3.87-5.55 7.75-5.55 3.92 0 6.22 1.97 7.75 5.55l6.27 14.54c2.34 5.5-1.48 10.4-6.88 10.4-3.02 0-5.46-1.71-7.2-5.3zm16.8-17.11c0-4.98 2.66-7.57 7.42-7.57h8.85c5.37 0 9.57 4.07 9.57 9.3 0 2.85-1.18 5.18-3.12 6.66l2.66 4.22c.72 1.12 1.02 2.34 1.02 3.61a6.65 6.65 0 0 1-6.7 6.71 6.79 6.79 0 0 1-5.83-3.3l-.72-1.27c-.87 2.69-3.28 4.57-6.35 4.57-3.74 0-6.81-3.15-6.81-6.96v-15.97zm47.64 16.06c0 3.76-3.15 6.86-7.36 6.86-3.96 0-7.16-3.1-7.16-6.86v-10.52c-3.4-.2-6.2-3-6.2-6.56a6.51 6.51 0 0 1 6.55-6.56h13.81c3.61 0 6.55 2.9 6.55 6.56 0 3.56-2.79 6.4-6.2 6.56v10.52zm32.09 1.02c0 3.28-2.62 5.89-5.8 5.84h-10.6c-4.84 0-7.47-2.56-7.47-7.58V-76.9c0-4.97 2.62-7.58 7.47-7.58h10.6c3.18 0 5.8 2.61 5.8 5.89 0 2.97-1.82 5.12-4.44 5.64 1.21.77 1.87 2.05 1.87 3.74s-.71 2.97-1.87 3.74c2.57.5 4.44 2.71 4.44 5.63zm2.03-17.08c0-4.98 2.61-7.57 7.42-7.57h8.85c5.37 0 9.57 4.07 9.57 9.3 0 2.85-1.18 5.18-3.12 6.66l2.66 4.22c.72 1.12 1.02 2.34 1.02 3.61a6.65 6.65 0 0 1-6.7 6.71 6.79 6.79 0 0 1-5.83-3.3l-.72-1.27c-.87 2.69-3.28 4.57-6.35 4.57-3.74 0-6.81-3.15-6.81-6.96v-15.97h.01z" mask="url(#B)" fill-rule="evenodd" fill="#05ce78"/></g></svg>