<?xml version="1.0" encoding="utf-8"?>
<!-- Generator: Adobe Illustrator 24.2.1, SVG Export Plug-In . SVG Version: 6.00 Build 0)  -->
<svg version="1.1" id="Layer_1" xmlns="http://www.w3.org/2000/svg" xmlns:xlink="http://www.w3.org/1999/xlink" x="0px" y="0px"
	 viewBox="0 0 100 100" style="enable-background:new 0 0 100 100;" xml:space="preserve">
<g>
	<g>
		<path style="fill:#E8E8E8;" d="M50,0c27.61,0,50,22.39,50,50s-22.39,50-50,50S0,77.61,0,50S22.39,0,50,0"/>
		<path style="fill:#FFFFFF;" d="M50,1c27.06,0,49,21.94,49,49S77.06,99,50,99S1,77.06,1,50S22.94,1,50,1"/>
	</g>
	<g>
		<polygon style="fill:#0000ED;" points="84.42,49.1 84.42,34.58 15.58,34.58 15.58,49.1 		"/>
		<polygon style="fill:#ED0000;" points="84.42,65.42 84.42,50.9 15.58,50.9 15.58,65.42 		"/>
		<path style="fill:#FFFFFF;" d="M35.3,36.65h-3.94l-1.8,10.38h2.97l0.56-3.26h1.55c3.71,0,4.69-2.27,4.69-4.14
			C39.32,37.21,37.33,36.65,35.3,36.65z M34.7,41.65h-1.22l0.47-2.88h1.3c0.58,0,1.3,0.23,1.3,1.26
			C36.54,40.82,36.07,41.65,34.7,41.65z M45.87,36.4c-3.94,0-5.72,3.08-5.72,6.15c0,3.04,1.82,4.73,4.95,4.73
			c3.92,0,5.7-3.08,5.7-6.13C50.8,38.1,48.98,36.4,45.87,36.4z M45.15,44.92c-1.04,0-1.91-0.59-1.91-2.54
			c0-1.78,0.67-3.63,2.59-3.63c1.03,0,1.91,0.59,1.91,2.56C47.74,43.07,47.06,44.92,45.15,44.92z M61.43,39.47
			c0-2.36-1.98-2.82-3.87-2.82h-4.19l-1.78,10.38h2.97l0.65-3.79h1.24l1.49,3.79h3.04l-1.82-4.19
			C60.77,42.33,61.43,40.93,61.43,39.47z M56.9,41.25h-1.35L56,38.7h1.35c0.58,0,1.26,0.22,1.26,1.12
			C58.61,40.43,58.3,41.25,56.9,41.25z M71.09,39.04h-2.84l-1.37,7.99h-2.97l1.39-7.99h-2.84l0.4-2.39h8.67
			C71.52,36.65,71.09,39.04,71.09,39.04z M71.2,46.02l1.02-1.96c0.9,0.57,1.95,0.88,3.02,0.88c0.71,0,1.65-0.14,1.65-0.95
			c0-0.47-0.31-0.71-1.06-0.88l-0.99-0.23c-1.51-0.36-2.65-1.17-2.65-2.81c0-1.31,0.61-2.27,1.49-2.88
			c0.86-0.61,2.02-0.76,2.81-0.76c1.19,0,2.68,0.34,3.71,1.17l-1.06,1.96c-1.13-0.76-2.03-0.88-2.84-0.88
			c-0.67,0-1.37,0.18-1.37,0.86c0,0.41,0.25,0.63,1.12,0.86l1.21,0.32c1.69,0.45,2.54,1.47,2.54,2.77c0,2.23-1.8,3.74-4.57,3.74
			C73.95,47.24,72.33,46.99,71.2,46.02L71.2,46.02z M19.79,46.02l1.03-1.96c0.9,0.57,1.95,0.88,3.02,0.88
			c0.71,0,1.66-0.14,1.66-0.95c0-0.47-0.31-0.71-1.06-0.88l-0.99-0.23c-1.51-0.36-2.64-1.17-2.64-2.81c0-1.31,0.61-2.27,1.49-2.88
			c0.86-0.61,2.01-0.76,2.81-0.76c1.19,0,2.68,0.34,3.71,1.17l-1.06,1.96c-1.13-0.76-2.03-0.88-2.84-0.88
			c-0.67,0-1.37,0.18-1.37,0.86c0,0.41,0.25,0.63,1.12,0.86l1.21,0.32c1.69,0.45,2.54,1.47,2.54,2.77c0,2.23-1.8,3.74-4.57,3.74
			C22.54,47.24,20.93,46.99,19.79,46.02L19.79,46.02z M29.04,53.76c-0.9-0.5-2.25-0.79-3.76-0.79H21.9l-1.82,10.38h4.66
			c4.3,0,6.24-2.82,6.24-5.81C30.98,55.78,30.33,54.48,29.04,53.76L29.04,53.76z M24.77,61.17h-1.22l1.06-6.02h0.97
			c1.24,0,2.25,0.63,2.25,2.45C27.83,59.14,27.2,61.17,24.77,61.17z M31.97,63.35l1.82-10.38h3.09l-1.82,10.38H31.97z M59.05,58.75
			c0-2.59,1.48-6.03,5.7-6.03c2.59,0,4.12,1.17,4.6,2.99l-2.72,0.88c-0.29-1.17-0.97-1.49-1.94-1.49c-1.94,0-2.5,2.12-2.5,3.63
			c0,1.46,0.59,2.52,1.96,2.52c1.21,0,1.94-0.63,2.3-1.51l2.46,1.01c-0.68,1.46-2.16,2.86-4.89,2.86
			C60.82,63.6,59.06,61.91,59.05,58.75L59.05,58.75z M79.51,55.36h-3.09l-1.4,7.99h-3.05l1.4-7.99h-3.08l0.41-2.39h9.23L79.51,55.36
			L79.51,55.36z M47.63,55.8c0-2.36-1.98-2.82-3.87-2.82h-4.39l-1.83,10.38h3.06l0.67-3.79h1.22l1.49,3.79h3.2l-1.82-4.19
			C46.95,58.6,47.64,57.25,47.63,55.8L47.63,55.8z M42.94,57.58h-1.31l0.45-2.55h1.31c0.58,0,1.26,0.22,1.26,1.12
			C44.65,56.75,44.34,57.58,42.94,57.58L42.94,57.58z M53.26,55.2l-0.32,1.76h3.87l-0.4,2.23h-3.87l-0.34,1.92h5.27l-0.38,2.23
			h-8.36l1.82-10.38h8.13L58.3,55.2L53.26,55.2z"/>
	</g>
</g>
</svg>
