<?xml version="1.0" encoding="utf-8"?>
<!-- Generator: Adobe Illustrator 22.1.0, SVG Export Plug-In . SVG Version: 6.00 Build 0)  -->
<svg version="1.1" xmlns="http://www.w3.org/2000/svg" xmlns:xlink="http://www.w3.org/1999/xlink" x="0px" y="0px"
	 viewBox="0 0 283.5 60.5" style="enable-background:new 0 0 283.5 60.5;" xml:space="preserve">
<style type="text/css">
	.st0{fill:#638C1C;}
</style>
<g id="Layer_1">
</g>
<g id="ARTWORK">
	<g>
		<g>
			<polygon class="st0" points="265.5,0.5 265.5,31.4 283.5,31.4 283.5,27.4 269.9,27.4 269.9,17.8 282.6,17.8 282.6,13.8 
				269.9,13.8 269.9,4.5 283.1,4.5 283.1,0.5 			"/>
			<polygon class="st0" points="42.8,0.5 34.4,21.8 25.7,0.5 21.5,0.5 13,21.8 4.4,0.5 0,0.5 12.5,31.7 13.4,31.7 23.6,6.4 
				33.8,31.7 34.6,31.7 47.2,0.5 			"/>
			<rect x="95.8" y="0.5" class="st0" width="4.4" height="30.9"/>
			<path class="st0" d="M242.7,18.4l-3.4-2c-2.1-1.3-3.4-2.6-4.4-3.8c-1-1.2-1.5-2.8-1.5-4.4c0-2.4,0.8-4.4,2.5-5.9
				c1.7-1.5,3.9-2.3,6.6-2.3c2.8,0,5,0.7,7.1,2.2v5c-2.2-2.1-4.6-3.2-7.2-3.2c-1.4,0-2.6,0.3-3.6,1c-0.9,0.7-1.4,1.5-1.4,2.6
				c0,0.9,0.2,1.7,0.9,2.5c0.7,0.8,1.9,1.8,3.4,2.6l3.5,2c3.8,2.3,5.5,5.1,5.5,8.6c0,2.5-0.9,4.5-2.5,6.1c-1.7,1.5-3.8,2.4-6.4,2.3
				c-3-0.1-5.8-0.9-8.3-2.8v-5.6c2.4,3,5.2,4.5,8.3,4.5c1.4,0,2.5-0.3,3.5-1.1c0.9-0.8,1.4-1.7,1.4-2.9
				C246.8,21.9,245.4,20.1,242.7,18.4z"/>
			<path class="st0" d="M66.3,0.3h3.1l13.9,31.1h-4.5l-4.1-9.2H61.4l-3.9,9.2H53L66.3,0.3z M72.8,18.3l-5-11.2l-4.6,11.2H72.8z"/>
			<path class="st0" d="M113.4,0.5h25.9v3.9h-10.7v27h-4.4v-27h-10.7V0.5z"/>
			<path class="st0" d="M152.6,31.4V0.5h7.8c3.1,0,5.6,0.8,7.4,2.3c1.8,1.5,2.8,3.6,2.8,6.3c0,1.8-0.5,3.4-1.4,4.7
				c-0.9,1.3-2.1,2.3-3.8,2.9c1,0.7,2,1.5,2.9,2.7c0.9,1.1,2.2,3.1,3.9,5.9c1.1,1.8,2,3.1,2.6,4l1.6,2.2h-5.3c0,0-1.4-2.2-1.6-2.4
				l-2.2-3.5l-1.7-2.4c-0.9-1.3-1.8-2.3-2.5-3.1c-0.8-0.8-1.4-1.3-2-1.6c-0.6-0.3-1.7-0.5-3.2-0.5h-1.2v13.5H152.6z M158.5,4.3h-1.3
				V14h1.7c2.2,0,3.8-0.2,4.6-0.6c0.8-0.4,1.5-1,1.9-1.7c0.5-0.8,0.7-1.7,0.7-2.6c0-1-0.3-1.9-0.8-2.6c-0.5-0.8-1.2-1.3-2.2-1.7
				C162.2,4.4,160.6,4.3,158.5,4.3z"/>
			<path class="st0" d="M203.4,0c4.8,0,8.8,1.5,11.9,4.5c3.2,3,4.8,6.8,4.8,11.4c0,4.6-1.6,8.3-4.8,11.3c-3.2,3-7.3,4.5-12.1,4.5
				c-4.7,0-8.5-1.5-11.6-4.5c-3.1-3-4.7-6.7-4.7-11.2c0-4.6,1.6-8.4,4.7-11.5C194.7,1.5,198.6,0,203.4,0z M203.6,4.2
				c-3.5,0-6.4,1.1-8.7,3.3c-2.3,2.2-3.4,5-3.4,8.5c0,3.3,1.1,6.1,3.4,8.3c2.3,2.2,5.1,3.3,8.6,3.3c3.4,0,6.3-1.1,8.6-3.4
				c2.3-2.3,3.5-5.1,3.5-8.4c0-3.3-1.2-6-3.5-8.3C209.8,5.3,206.9,4.2,203.6,4.2z"/>
		</g>
		<g>
			<g>
				<path class="st0" d="M88.6,60.4V48h4c1.2,0,2.1,0.3,2.8,1c0.7,0.6,1.1,1.5,1.1,2.6c0,0.7-0.2,1.4-0.5,1.9
					c-0.3,0.5-0.9,1-1.5,1.2C93.7,54.9,93,55,91.7,55h-1.3v5.4H88.6z M92.2,49.6h-1.9v3.9h2c1.3,0,2.3-0.6,2.3-2
					C94.6,50.2,93.8,49.6,92.2,49.6z"/>
				<path class="st0" d="M107.8,47.9h1.2l5.6,12.5h-1.8l-1.7-3.7h-5.3l-1.5,3.7h-1.8L107.8,47.9z M110.4,55.1l-2-4.5l-1.9,4.5H110.4
					z"/>
				<path class="st0" d="M139,48h10.4v1.6h-4.3v10.8h-1.8V49.6H139V48z"/>
				<path class="st0" d="M168.2,48h1.7v12.4h-1.5l-8.3-9.5v9.5h-1.7V48h1.4l8.4,9.6V48z"/>
				<path class="st0" d="M179.9,48h7v1.6h-5.2v3.8h5.1v1.6h-5.1v3.8h5.4v1.6h-7.2V48z"/>
				<path class="st0" d="M123.2,60.4V48h3.1c1.3,0,2.2,0.3,3,0.9c0.7,0.6,1.1,1.5,1.1,2.5c0,0.7-0.2,1.3-0.5,1.9
					c-0.4,0.5-0.8,0.9-1.5,1.2c0.4,0.3,0.8,0.6,1.2,1.1c0.4,0.4,0.9,1.2,1.6,2.3c0.4,0.7,0.8,1.2,1.1,1.6l0.7,0.9h-2.1
					c0,0-0.6-0.9-0.6-1l-0.9-1.4l-0.7-1c-0.4-0.5-0.7-0.9-1-1.2c-0.3-0.3-0.5-0.5-0.8-0.6c-0.2-0.1-0.7-0.2-1.3-0.2h-0.5v5.4H123.2z
					 M125.5,49.5H125v3.9h0.7c0.9,0,1.5-0.1,1.8-0.2c0.7-0.3,1.1-1,1.1-1.8c0-0.8-0.4-1.5-1.2-1.7C127,49.6,126.4,49.5,125.5,49.5z"
					/>
				<path class="st0" d="M196.4,60.4V48h3.1c1.3,0,2.2,0.3,3,0.9c0.7,0.6,1.1,1.5,1.1,2.5c0,0.7-0.2,1.3-0.5,1.9
					c-0.4,0.5-0.8,0.9-1.5,1.2c0.4,0.3,0.8,0.6,1.2,1.1c0.4,0.4,0.9,1.2,1.6,2.3c0.4,0.7,0.8,1.2,1.1,1.6l0.7,0.9h-2.1
					c0,0-0.6-0.9-0.6-1l-0.9-1.4l-0.7-1c-0.4-0.5-0.7-0.9-1-1.2c-0.3-0.3-0.5-0.5-0.8-0.6c-0.2-0.1-0.7-0.2-1.3-0.2h-0.5v5.4H196.4z
					 M198.7,49.5h-0.5v3.9h0.7c0.9,0,1.5-0.1,1.8-0.2c0.7-0.3,1.1-1,1.1-1.8c0-0.8-0.4-1.5-1.2-1.7
					C200.2,49.6,199.6,49.5,198.7,49.5z"/>
				<path class="st0" d="M217.7,55.2l-1.3-0.8c-0.8-0.5-1.4-1-1.8-1.5c-0.4-0.5-0.5-1.1-0.5-1.7c0-1,0.3-1.8,1-2.4
					c0.7-0.6,1.6-0.9,2.6-0.9c1,0,2,0.3,2.8,0.9v2c-0.9-0.9-1.9-1.3-2.9-1.3c-0.6,0-1.1,0.1-1.4,0.4s-0.6,0.6-0.6,1
					c0,0.4,0.1,0.7,0.4,1c0.3,0.3,0.7,0.7,1.3,1l1.4,0.8c1.5,0.9,2.3,2.1,2.3,3.4c0,1-0.3,1.8-1,2.4c-0.7,0.6-1.5,0.9-2.6,0.9
					c-1.2,0-2.3-0.4-3.3-1.1v-2.3c1,1.2,2.1,1.8,3.3,1.8c0.6,0,1-0.2,1.4-0.5c0.4-0.3,0.6-0.7,0.6-1.2
					C219.3,56.6,218.8,55.9,217.7,55.2z"/>
			</g>
			<g>
				<path class="st0" d="M70.9,57.6c0.8-1,1.4-2.8,1.6-3.4c-0.2,0-1.5,0-1.5,0c-0.2,0.5-0.6,1.5-1,2.3l-2.2-2.4
					c1.1-0.6,2.2-1.8,2.2-3.2c0-0.8-0.3-1.5-0.9-2c-0.6-0.5-1.3-0.8-2.2-0.8c-0.9,0-1.7,0.3-2.2,0.8c-0.6,0.5-0.9,1.2-0.8,2.1
					c0.1,1,0.6,1.8,1.5,2.8c-0.3,0.2-0.9,0.6-1.2,0.8c-1.1,0.9-1.7,1.8-1.5,3.4c0.2,1,1,2.4,3.1,2.5c1.7,0.1,3.1-0.5,4.3-1.6
					l1.4,1.5h2.2L70.9,57.6z M66.7,49.6c0.8,0,1.4,0.4,1.5,1c0.1,0.6-0.3,1.2-0.7,1.6c-0.2,0.2-0.5,0.5-0.9,0.7
					c-0.4-0.4-0.7-0.7-0.9-1.1c-0.2-0.3-0.3-0.7-0.3-1.1C65.3,50.1,66,49.6,66.7,49.6z M68.8,57.8c-1.1,1.3-3.7,1.7-4.3,0.4
					c-0.7-1.6,0.6-2.6,1.7-3.2C66.2,55,68.2,57.2,68.8,57.8z"/>
			</g>
		</g>
	</g>
</g>
</svg>
