<?xml version="1.0" encoding="utf-8"?>
<svg version="1.1" id="Layer_1" xmlns="http://www.w3.org/2000/svg" xmlns:xlink="http://www.w3.org/1999/xlink" x="0px" y="0px"
	width="100px" height="100px" viewBox="0 0 100 100" style="enable-background:new 0 0 100 100;" xml:space="preserve">
<g>
	<path style="fill:#E8E8E8;" d="M50,0c27.61,0,50,22.39,50,50s-22.39,50-50,50S0,77.61,0,50S22.39,0,50,0"/>
	<path style="fill:#FFFFFF;" d="M50,1c27.06,0,49,21.94,49,49S77.06,99,50,99S1,77.06,1,50S22.94,1,50,1"/>
	<g>
		<path style="fill:#226BA6;" d="M6.01,53.25v-0.37c0.39-0.04,0.7-0.19,0.96-0.45c0.25-0.26,0.5-0.71,0.74-1.34L9.62,46
			c0.06-0.17,0.12-0.34,0.15-0.49c0.04-0.15,0.07-0.31,0.09-0.46l0.85-1.3l0.27,0.1l2.82,7.64c0.18,0.49,0.38,0.83,0.6,1.04
			c0.22,0.21,0.5,0.32,0.85,0.35v0.37h-3.5v-0.37c0.33-0.05,0.57-0.12,0.71-0.23c0.14-0.1,0.21-0.25,0.21-0.45
			c0-0.11-0.01-0.21-0.03-0.31c-0.02-0.1-0.05-0.2-0.09-0.3l-0.74-2.01h-3.1l-0.6,1.69c-0.07,0.19-0.12,0.35-0.16,0.5
			c-0.04,0.15-0.05,0.26-0.05,0.34c0,0.19,0.08,0.35,0.23,0.48c0.15,0.13,0.38,0.22,0.69,0.29v0.37H6.01z M8.87,49.15h2.81
			l-1.39-3.82L8.87,49.15z"/>
		<path style="fill:#226BA6;" d="M15.75,47.95h-0.58v-0.25l1.41-1.54h0.21v1.31h1.76v0.48H16.8v3.31c0,0.62,0.08,1.03,0.23,1.23
			c0.15,0.2,0.43,0.31,0.84,0.31c0.11,0,0.23-0.01,0.35-0.04c0.13-0.03,0.26-0.07,0.39-0.12l0.1,0.27c-0.15,0.13-0.35,0.24-0.6,0.31
			c-0.25,0.07-0.53,0.11-0.85,0.11c-0.56,0-0.95-0.15-1.17-0.46c-0.22-0.31-0.33-0.9-0.33-1.77V47.95z"/>
		<path style="fill:#226BA6;" d="M21.03,48.52c0.29-0.38,0.59-0.66,0.88-0.85c0.29-0.19,0.58-0.29,0.86-0.29
			c0.19,0,0.35,0.05,0.46,0.15c0.11,0.1,0.17,0.23,0.17,0.4c0,0.18-0.06,0.32-0.17,0.41c-0.11,0.1-0.28,0.15-0.49,0.15
			c-0.07,0-0.19-0.01-0.35-0.03c-0.16-0.02-0.29-0.03-0.4-0.03c-0.35,0-0.59,0.08-0.73,0.24c-0.14,0.16-0.2,0.45-0.2,0.89v2.27
			c0,0.47,0.06,0.76,0.17,0.89c0.11,0.13,0.34,0.2,0.67,0.21l0.01,0.31h-2.7v-0.31c0.34-0.01,0.57-0.09,0.68-0.22
			s0.18-0.42,0.18-0.88v-3.28l-0.49-0.38v-0.19l1.22-0.69l0.24,0.13V48.52z"/>
		<path style="fill:#226BA6;" d="M25.76,51.84c0,0.47,0.06,0.76,0.17,0.89c0.11,0.13,0.34,0.2,0.67,0.21v0.31h-2.74v-0.31
			c0.34-0.01,0.57-0.09,0.68-0.22c0.12-0.13,0.18-0.42,0.18-0.88v-3.28l-0.71-0.42v-0.23l1.51-0.62l0.24,0.13V51.84z M24.61,44.38
			c0-0.17,0.07-0.32,0.2-0.45c0.13-0.13,0.28-0.2,0.44-0.2c0.17,0,0.31,0.06,0.44,0.19c0.12,0.13,0.18,0.28,0.18,0.46
			c0,0.19-0.06,0.35-0.18,0.47c-0.12,0.13-0.27,0.19-0.44,0.19c-0.17,0-0.31-0.07-0.44-0.2C24.67,44.71,24.61,44.56,24.61,44.38"/>
		<path style="fill:#226BA6;" d="M32.11,48.88c0-0.46-0.06-0.75-0.18-0.88c-0.12-0.13-0.34-0.2-0.68-0.22v-0.31l1.9-0.1v4.12
			c0,0.46,0.03,0.75,0.09,0.88c0.06,0.13,0.17,0.2,0.33,0.2c0.04,0,0.09-0.01,0.14-0.02c0.05-0.01,0.14-0.04,0.27-0.09v0.39
			l-1.81,0.4v-0.58c-0.35,0.23-0.68,0.39-0.99,0.49c-0.31,0.1-0.6,0.16-0.89,0.16c-0.67,0-1.16-0.17-1.47-0.52
			c-0.31-0.35-0.47-0.9-0.47-1.65v-2.27c0-0.46-0.06-0.75-0.18-0.88c-0.12-0.13-0.34-0.2-0.68-0.22l-0.01-0.31l1.9-0.1v3.34
			c0,0.76,0.1,1.29,0.3,1.6c0.2,0.31,0.54,0.46,1,0.46c0.27,0,0.53-0.05,0.77-0.16c0.24-0.11,0.45-0.26,0.64-0.48V48.88z"/>
		<path style="fill:#226BA6;" d="M36.91,51.84c0,0.47,0.06,0.76,0.17,0.89c0.11,0.13,0.34,0.2,0.67,0.21v0.31h-2.74v-0.31
			c0.34-0.01,0.57-0.09,0.68-0.22c0.12-0.13,0.18-0.42,0.18-0.88v-3.28l-0.49-0.38v-0.19l1.22-0.69l0.24,0.13V48
			c0.33-0.22,0.65-0.38,0.97-0.48c0.31-0.1,0.62-0.16,0.93-0.16c0.37,0,0.69,0.07,0.96,0.21c0.27,0.14,0.47,0.34,0.63,0.61
			c0.37-0.28,0.73-0.48,1.07-0.62c0.34-0.13,0.69-0.2,1.04-0.2c0.63,0,1.1,0.18,1.41,0.54c0.31,0.36,0.46,0.9,0.46,1.63v2.3
			c0,0.47,0.06,0.76,0.17,0.89c0.11,0.13,0.34,0.2,0.67,0.21v0.31h-2.73v-0.31c0.33-0.01,0.56-0.08,0.67-0.21
			c0.11-0.12,0.17-0.42,0.17-0.89v-1.88c0-0.74-0.1-1.27-0.3-1.58c-0.2-0.31-0.53-0.47-1-0.47c-0.24,0-0.48,0.05-0.71,0.16
			c-0.23,0.11-0.44,0.26-0.64,0.48v3.29c0,0.47,0.06,0.76,0.17,0.89c0.11,0.13,0.34,0.2,0.67,0.21l0.01,0.31h-2.75l0.01-0.31
			c0.34-0.01,0.57-0.09,0.68-0.22c0.11-0.13,0.17-0.42,0.17-0.88v-1.88c0-0.74-0.1-1.27-0.3-1.58c-0.2-0.31-0.53-0.47-0.99-0.47
			c-0.25,0-0.49,0.05-0.72,0.16c-0.23,0.11-0.45,0.27-0.65,0.47V51.84z"/>
		<path style="fill:#226BA6;" d="M57.51,52.15c-0.46,0.38-0.98,0.67-1.55,0.87c-0.57,0.2-1.16,0.3-1.78,0.3
			c-1.43,0-2.57-0.43-3.44-1.29c-0.87-0.86-1.3-2-1.3-3.42c0-0.84,0.16-1.59,0.47-2.24c0.32-0.65,0.8-1.24,1.46-1.75
			c0.37-0.28,0.8-0.5,1.29-0.66c0.49-0.15,1.01-0.23,1.57-0.23c0.65,0,1.24,0.1,1.79,0.29c0.55,0.19,1.05,0.47,1.51,0.85l-0.19,1.88
			l-0.21-0.07c-0.2-0.82-0.57-1.45-1.09-1.89c-0.52-0.44-1.17-0.67-1.93-0.67c-1.03,0-1.83,0.38-2.39,1.15
			c-0.56,0.77-0.84,1.86-0.84,3.27c0,1.35,0.31,2.43,0.93,3.22c0.62,0.8,1.46,1.19,2.52,1.19c0.7,0,1.3-0.2,1.81-0.6
			c0.51-0.4,0.92-1,1.24-1.8h0.32L57.51,52.15z"/>
		<path style="fill:#226BA6;" d="M62.27,52.51c-0.36,0.27-0.68,0.47-0.98,0.59c-0.29,0.13-0.58,0.19-0.85,0.19
			c-0.44,0-0.79-0.1-1.04-0.31c-0.25-0.2-0.37-0.49-0.37-0.86c0-0.46,0.22-0.83,0.67-1.11c0.45-0.29,1.29-0.57,2.54-0.86v-1
			c0-0.57-0.06-0.95-0.19-1.13c-0.12-0.18-0.35-0.27-0.69-0.27c-0.22,0-0.42,0.04-0.59,0.13c-0.17,0.09-0.29,0.22-0.38,0.38
			c-0.04,0.08-0.09,0.2-0.14,0.38c-0.12,0.39-0.31,0.59-0.58,0.59c-0.11,0-0.21-0.04-0.27-0.11c-0.07-0.07-0.1-0.17-0.1-0.29
			c0-0.31,0.26-0.63,0.77-0.97c0.51-0.33,1.06-0.5,1.65-0.5c0.31,0,0.58,0.05,0.8,0.16c0.22,0.1,0.4,0.26,0.53,0.46
			c0.07,0.11,0.12,0.23,0.15,0.38c0.03,0.15,0.04,0.38,0.04,0.69v0.52v2.5c0,0.26,0.03,0.44,0.08,0.53
			c0.05,0.09,0.14,0.13,0.28,0.13c0.07,0,0.15-0.01,0.22-0.04c0.08-0.03,0.15-0.07,0.22-0.12l0.12,0.19
			c-0.17,0.19-0.36,0.33-0.55,0.43c-0.19,0.1-0.38,0.15-0.57,0.15c-0.2,0-0.36-0.06-0.49-0.19C62.45,53.02,62.35,52.81,62.27,52.51
			 M62.24,52.23v-1.77c-0.93,0.23-1.52,0.44-1.76,0.62c-0.24,0.19-0.36,0.45-0.36,0.8c0,0.26,0.07,0.47,0.22,0.63
			c0.15,0.16,0.34,0.24,0.59,0.24c0.17,0,0.35-0.04,0.56-0.12C61.7,52.54,61.95,52.41,62.24,52.23"/>
		<path style="fill:#226BA6;" d="M66.88,48.52c0.29-0.38,0.59-0.66,0.88-0.85c0.29-0.19,0.58-0.29,0.86-0.29
			c0.19,0,0.35,0.05,0.46,0.15c0.11,0.1,0.17,0.23,0.17,0.4c0,0.18-0.06,0.32-0.17,0.41c-0.11,0.1-0.28,0.15-0.49,0.15
			c-0.07,0-0.19-0.01-0.35-0.03c-0.16-0.02-0.29-0.03-0.4-0.03c-0.35,0-0.59,0.08-0.73,0.24c-0.14,0.16-0.2,0.45-0.2,0.89v2.27
			c0,0.47,0.06,0.76,0.17,0.89c0.11,0.13,0.34,0.2,0.67,0.21l0.01,0.31h-2.7v-0.31c0.34-0.01,0.57-0.09,0.68-0.22
			c0.12-0.13,0.18-0.42,0.18-0.88v-3.28l-0.49-0.38v-0.19l1.22-0.69l0.24,0.13V48.52z"/>
		<path style="fill:#226BA6;" d="M71.44,55.26c0,0.47,0.06,0.77,0.19,0.91c0.13,0.13,0.38,0.2,0.75,0.2h0.07v0.3h-2.9l0.01-0.3
			c0.33-0.01,0.55-0.09,0.67-0.21c0.11-0.13,0.17-0.42,0.17-0.89v-6.7l-0.48-0.38v-0.19l1.27-0.69l0.25,0.13v0.66
			c0.3-0.25,0.6-0.44,0.9-0.56c0.3-0.12,0.61-0.18,0.93-0.18c0.73,0,1.33,0.26,1.79,0.79c0.46,0.52,0.69,1.21,0.69,2.06
			c0,0.88-0.28,1.62-0.82,2.23c-0.55,0.61-1.22,0.91-2.01,0.91c-0.22,0-0.46-0.03-0.7-0.09c-0.24-0.06-0.5-0.15-0.77-0.27V55.26z
			 M71.44,48.55v3.53c0.16,0.3,0.39,0.53,0.66,0.69c0.28,0.16,0.58,0.24,0.91,0.24c0.53,0,0.95-0.22,1.26-0.66
			c0.31-0.44,0.46-1.05,0.46-1.82c0-0.83-0.17-1.49-0.51-1.97c-0.34-0.49-0.79-0.73-1.35-0.73c-0.25,0-0.49,0.06-0.71,0.17
			C71.93,48.11,71.69,48.3,71.44,48.55"/>
		<path style="fill:#226BA6;" d="M80.07,52.51c-0.36,0.27-0.68,0.47-0.98,0.59c-0.29,0.13-0.58,0.19-0.85,0.19
			c-0.44,0-0.79-0.1-1.04-0.31c-0.25-0.2-0.37-0.49-0.37-0.86c0-0.46,0.22-0.83,0.67-1.11c0.45-0.29,1.29-0.57,2.54-0.86v-1
			c0-0.57-0.06-0.95-0.19-1.13c-0.12-0.18-0.35-0.27-0.69-0.27c-0.22,0-0.42,0.04-0.59,0.13c-0.17,0.09-0.29,0.22-0.38,0.38
			c-0.04,0.08-0.09,0.2-0.14,0.38c-0.12,0.39-0.31,0.59-0.58,0.59c-0.11,0-0.21-0.04-0.27-0.11c-0.07-0.07-0.1-0.17-0.1-0.29
			c0-0.31,0.26-0.63,0.77-0.97c0.51-0.33,1.06-0.5,1.65-0.5c0.31,0,0.58,0.05,0.8,0.16c0.22,0.1,0.4,0.26,0.53,0.46
			c0.07,0.11,0.12,0.23,0.15,0.38c0.03,0.15,0.04,0.38,0.04,0.69v0.52v2.5c0,0.26,0.03,0.44,0.08,0.53
			c0.05,0.09,0.14,0.13,0.28,0.13c0.07,0,0.15-0.01,0.22-0.04c0.08-0.03,0.15-0.07,0.22-0.12l0.12,0.19
			c-0.17,0.19-0.36,0.33-0.55,0.43c-0.2,0.1-0.38,0.15-0.57,0.15c-0.2,0-0.36-0.06-0.49-0.19C80.25,53.02,80.14,52.81,80.07,52.51
			 M80.04,52.23v-1.77c-0.93,0.23-1.52,0.44-1.76,0.62c-0.24,0.19-0.36,0.45-0.36,0.8c0,0.26,0.07,0.47,0.22,0.63
			c0.15,0.16,0.34,0.24,0.59,0.24c0.16,0,0.35-0.04,0.56-0.12C79.5,52.54,79.75,52.41,80.04,52.23"/>
		<path style="fill:#226BA6;" d="M84.67,48.52c0.29-0.38,0.59-0.66,0.88-0.85c0.29-0.19,0.58-0.29,0.86-0.29
			c0.19,0,0.35,0.05,0.46,0.15c0.11,0.1,0.17,0.23,0.17,0.4c0,0.18-0.06,0.32-0.17,0.41c-0.11,0.1-0.28,0.15-0.49,0.15
			c-0.07,0-0.19-0.01-0.35-0.03c-0.16-0.02-0.29-0.03-0.4-0.03c-0.35,0-0.59,0.08-0.73,0.24c-0.14,0.16-0.2,0.45-0.2,0.89v2.27
			c0,0.47,0.06,0.76,0.17,0.89c0.11,0.13,0.34,0.2,0.67,0.21l0.01,0.31h-2.7v-0.31c0.34-0.01,0.57-0.09,0.68-0.22
			c0.12-0.13,0.18-0.42,0.18-0.88v-3.28l-0.49-0.38v-0.19l1.22-0.69l0.24,0.13V48.52z"/>
		<path style="fill:#226BA6;" d="M89.37,51.84c0,0.47,0.06,0.76,0.17,0.89c0.11,0.13,0.34,0.2,0.67,0.21l0.01,0.31h-2.74v-0.31
			c0.34-0.01,0.57-0.09,0.68-0.22c0.11-0.13,0.17-0.42,0.17-0.88v-7.39l-0.54-0.34v-0.28l1.59-0.5v6.81
			c0.64-0.38,1.17-0.77,1.58-1.15c0.41-0.38,0.62-0.67,0.62-0.85c0-0.12-0.05-0.2-0.15-0.26c-0.1-0.06-0.25-0.09-0.45-0.1
			l-0.01-0.31h2.39v0.31c-0.28,0.07-0.53,0.17-0.78,0.3c-0.24,0.13-0.5,0.32-0.78,0.57l-1.21,1.1l2.04,2.23
			c0.27,0.29,0.51,0.51,0.71,0.65c0.2,0.14,0.42,0.24,0.66,0.31v0.31h-2.93v-0.31c0.24,0,0.41-0.02,0.51-0.06
			c0.1-0.04,0.15-0.1,0.15-0.19c0-0.11-0.06-0.25-0.17-0.43c-0.11-0.18-0.28-0.38-0.49-0.6l-1.24-1.31
			c-0.02,0.01-0.05,0.02-0.08,0.04c-0.16,0.1-0.29,0.16-0.37,0.19V51.84z"/>
	</g>
</g>
</svg>
