<svg xmlns="http://www.w3.org/2000/svg" viewBox="0 0 923.1 207.7"><path d="M599 75.6c-15.6-13.7-34.4-20.4-56.1-20.4-21.4 0-40.2 6.7-55.8 20.4-15.6 13.4-23.5 32-23.5 55.9s7.9 42.5 23.5 56.1c15.6 13.4 34.4 20.1 55.8 20.1 21.7 0 40.5-6.7 56.1-20.1 15.9-13.7 23.8-32.3 23.8-56.1S614.9 89 599 75.6zM513.6 162c-8.2-7.8-12.3-18-12.3-30.5s4.1-22.7 12.3-30.3c8.2-7.8 17.9-11.6 29.3-11.6s21.4 3.8 29.6 11.6c8.5 7.6 12.6 17.7 12.6 30.3s-4.1 22.7-12.6 30.5c-8.2 7.6-18.2 11.3-29.6 11.3-11.4.1-21.1-3.7-29.3-11.3h0zm164.7 41.6V4h-37v199.6h37zM797.7 59.3V139c0 19.2-10.5 31.9-30.4 31.9-20.3 0-30.5-12.7-30.5-31.9V59.3h-37.1v85.8c0 33.2 21.1 62.6 67.5 62.6h.3c46.1 0 67.2-30 67.2-62.6V59.3h-37zm-373.4 0l-37 97.7-37-97.7H311l59 144.3h34.7l59-144.3h-39.4zm-113.1 68.1c0-20.9-6.7-38.1-20-51.8S261 55.3 240.1 55.3c-21.4 0-39.6 7.3-54.6 21.5-14.7 14.3-22 32.3-22 54.7s7.3 40.7 21.7 55c14.7 14.3 32.3 21.2 53.1 21.2 32 0 54.6-14 68.4-42.2l-27.6-15.7c-9.1 17.7-22.3 26.5-40.2 26.5-22 0-37.6-14-39.9-36.1h112.1v-12.8h.1zm-72.3-44.2c20.8 0 34.7 11.6 38.2 30.3H199c5.6-17.2 20.9-30.3 39.9-30.3h0zm-75.4 120.4l-49.6-86.1c31.4-11.3 47-31.1 47-59.9C160.9 22.4 132.7 0 87.8 0H0v203.6h38.8V121h32.9l47.5 82.6h44.3zM87.8 33.7c22.9 0 34.4 9 34.4 26.8s-11.5 26.8-34.4 26.8h-49V33.7h49zm809.7 174c-23.8 0-43.1-19.1-43.1-42.8V20.4h37v39h31.7v29.7h-31.7v73.5c0 6.9 5.7 12.5 12.7 12.5h19.1v32.6h-25.7z"/></svg>