<?xml version="1.0"?>
<svg xmlns="http://www.w3.org/2000/svg" xmlns:xlink="http://www.w3.org/1999/xlink" xmlns:svgjs="http://svgjs.com/svgjs" version="1.1" width="512" height="512" x="0" y="0" viewBox="0 0 512 512" style="enable-background:new 0 0 512 512" xml:space="preserve" class=""><g><circle xmlns="http://www.w3.org/2000/svg" cx="256" cy="256" fill="#f1f1f1" r="256" data-original="#9e6cff" style="" class=""/><path xmlns="http://www.w3.org/2000/svg" d="m87.133 288.665 218.522 218.522c101.455-19.942 181.411-99.817 201.472-201.229l-90.881-90.881z" fill="#f1f1f1" data-original="#7e5dd1" style="" class=""/><ellipse xmlns="http://www.w3.org/2000/svg" cx="256" cy="256" fill="#ffffff" rx="196" ry="102.957" data-original="#ffffff" style="" class=""/><path xmlns="http://www.w3.org/2000/svg" d="m256 153.043c-.135 0-.27.003-.405.003v205.907c.135 0 .27.003.405.003 81.294 0 153.067-40.759 196-102.957-42.933-62.196-114.706-102.956-196-102.956z" fill="#e9edf5" data-original="#e9edf5" style="" class=""/><circle xmlns="http://www.w3.org/2000/svg" cx="256" cy="256" fill="#4a7aff" r="97.156" data-original="#4a7aff" style=""/><path xmlns="http://www.w3.org/2000/svg" d="m256 158.844c-.135 0-.27.004-.405.005v194.301c.135.001.27.005.405.005 53.658 0 97.156-43.498 97.156-97.156s-43.498-97.155-97.156-97.155z" fill="#0053bf" data-original="#0053bf" style="" class=""/><circle xmlns="http://www.w3.org/2000/svg" cx="256" cy="256" fill="#555a66" r="55.191" data-original="#555a66" style="" class=""/><path xmlns="http://www.w3.org/2000/svg" d="m256 200.809c-.136 0-.269.009-.405.01v110.362c.135.001.269.01.405.01 30.481 0 55.191-24.71 55.191-55.191s-24.71-55.191-55.191-55.191z" fill="#333940" data-original="#333940" style=""/><path xmlns="http://www.w3.org/2000/svg" d="m256 192.059c111.623 0 196 63.941 196 63.941-42.933-62.197-114.706-102.957-196-102.957s-153.067 40.76-196 102.957c0 0 96.872-63.941 196-63.941z" fill="#ffcdbe" data-original="#ffcdbe" style="" class=""/><path xmlns="http://www.w3.org/2000/svg" d="m452 256c-42.933-62.197-114.706-102.957-196-102.957-.135 0-.27.003-.405.003v39.016c.135 0 .27-.004.405-.004 111.623.001 196 63.942 196 63.942z" fill="#faa68e" data-original="#faa68e" style=""/><circle xmlns="http://www.w3.org/2000/svg" cx="334.206" cy="343.446" fill="#cbf7f7" r="87.446" data-original="#cbf7f7" style=""/><path xmlns="http://www.w3.org/2000/svg" d="m334.206 256c-.212 0-.423.006-.635.008v174.877c.212.001.423.008.635.008 48.295 0 87.447-39.151 87.447-87.447 0-48.295-39.152-87.446-87.447-87.446z" fill="#96ebe6" data-original="#96ebe6" style=""/><path xmlns="http://www.w3.org/2000/svg" d="m296.38 343.446h-30c0-37.399 30.427-67.826 67.191-67.826v30c-20.222 0-37.191 16.969-37.191 37.826z" fill="#ffffff" data-original="#ffffff" style="" class=""/></g></svg>
