<?xml version="1.0" encoding="utf-8"?>
<svg version="1.1" id="Layer_1" xmlns="http://www.w3.org/2000/svg" xmlns:xlink="http://www.w3.org/1999/xlink" x="0px" y="0px"
	width="100px" height="100px" viewBox="0 0 100 100" style="enable-background:new 0 0 100 100;" xml:space="preserve">
<g>
	<path style="fill:#E8E8E8;" d="M50,0c27.61,0,50,22.39,50,50s-22.39,50-50,50S0,77.61,0,50S22.39,0,50,0"/>
	<path style="fill:#FFFFFF;" d="M50,1c27.06,0,49,21.94,49,49S77.06,99,50,99S1,77.06,1,50S22.94,1,50,1"/>
	<g>
		<path style="fill:#1E1F1D;" d="M27.17,46.45L27.17,46.45L27.17,46.45c-1.93,0-3.45,1.57-3.45,3.45c0,1.93,1.57,3.45,3.45,3.45
			c1.93,0,3.45-1.57,3.45-3.45C30.61,47.97,29.09,46.45,27.17,46.45z M27.17,52.38L27.17,52.38c-1.37,0-2.48-1.12-2.48-2.48
			c0-1.37,1.12-2.48,2.48-2.48c1.37,0,2.48,1.17,2.48,2.48C29.65,51.27,28.53,52.38,27.17,52.38z"/>
		<path style="fill:#1E1F1D;" d="M15.2,49.85c0.46-0.25,1.01-0.81,1.01-1.52c0-1.01-0.81-1.77-1.98-1.77h-2.13
			c-0.1,0-0.2,0.1-0.2,0.2v6.34c0,0.1,0.1,0.2,0.2,0.2h2.28c1.22,0,2.08-0.76,2.08-1.88C16.37,50.51,15.71,50.05,15.2,49.85z
			 M12.82,47.47h1.32c0.61,0,1.01,0.41,1.01,1.01c0,0.56-0.35,1.01-1.01,1.01h-1.32V47.47z M14.29,52.38h-1.47V50.3h1.32
			c0.61,0,1.17,0.41,1.17,1.01c0,0,0,0,0,0.05C15.31,51.93,14.85,52.38,14.29,52.38z"/>
		<path style="fill:#1E1F1D;" d="M22.71,48.58c0-1.17-0.96-2.08-2.08-2.08h-2.64c-0.1,0-0.2,0.1-0.2,0.2v6.34c0,0.1,0.1,0.2,0.2,0.2
			h0.61c0.1,0,0.2-0.1,0.2-0.2v-2.43h1.47l1.27,2.53c0.05,0.05,0.1,0.1,0.15,0.1h0.76c0.05,0,0.05,0,0.1-0.05
			c0.1-0.05,0.1-0.15,0.05-0.25l-1.32-2.43C22.15,50.2,22.71,49.49,22.71,48.58z M20.53,49.8H18.8v-2.33h1.72
			c0.61,0,1.17,0.51,1.17,1.17C21.69,49.29,21.19,49.8,20.53,49.8z"/>
		<path style="fill:#1E1F1D;" d="M45.97,46.55h-0.61c-0.1,0-0.2,0.1-0.2,0.2v4.56l0,0L41,46.45h-0.25c-0.1,0-0.2,0.05-0.2,0.15v6.44
			c0,0.1,0.1,0.2,0.2,0.2h0.61c0.1,0,0.2-0.1,0.2-0.2v-4.66l0,0l4.16,4.97h0.25c0.1,0,0.2-0.05,0.2-0.15v-6.49
			C46.12,46.6,46.07,46.55,45.97,46.55z"/>
		<path style="fill:#1E1F1D;" d="M39.18,46.55h-0.66c-0.1,0-0.15,0.05-0.15,0.15l-1.17,4.41h-0.05l-1.57-4.51
			c-0.05-0.05-0.1-0.1-0.15-0.1h-0.15c-0.05,0-0.15,0.05-0.15,0.1l-1.57,4.51H33.5l-1.17-4.41c-0.05-0.05-0.1-0.15-0.15-0.15h-0.66
			c-0.15,0-0.2,0.1-0.15,0.25l1.82,6.44c0,0.1,0.1,0.15,0.15,0.15h0.15c0.05,0,0.15-0.05,0.15-0.1l1.67-4.76h0.05l1.67,4.76
			c0.05,0.05,0.1,0.1,0.15,0.1h0.15c0.1,0,0.15-0.05,0.15-0.15l1.82-6.44C39.38,46.65,39.33,46.55,39.18,46.55z"/>
		<path style="fill:#1E1F1D;" d="M73.49,49.85c0.46-0.25,1.01-0.81,1.01-1.52c0-1.01-0.81-1.77-1.98-1.77H70.4
			c-0.1,0-0.2,0.1-0.2,0.2v6.34c0,0.1,0.1,0.2,0.2,0.2h2.28c1.22,0,2.08-0.76,2.08-1.88C74.71,50.51,74,50.05,73.49,49.85z
			 M71.16,47.47h1.32c0.61,0,1.01,0.41,1.01,1.01c0,0.56-0.35,1.01-1.01,1.01h-1.32V47.47z M72.63,52.38h-1.47V50.3h1.32
			c0.61,0,1.17,0.41,1.17,1.01c0,0,0,0,0,0.05C73.64,51.93,73.19,52.38,72.63,52.38z"/>
		<path style="fill:#1E1F1D;" d="M78.61,46.55c-0.05-0.05-0.1-0.1-0.15-0.1h-0.1c-0.05,0-0.15,0.05-0.15,0.1l-2.94,6.44
			c0,0.05,0,0.05,0,0.1c0,0.1,0.1,0.15,0.2,0.15h0.61c0.1,0,0.2-0.05,0.2-0.15c0.2-0.46,0.41-0.86,0.61-1.32h3.14l0.61,1.32
			c0.05,0.1,0.1,0.15,0.2,0.15h0.61c0.05,0,0.05,0,0.1,0c0.1-0.05,0.1-0.15,0.05-0.25L78.61,46.55z M77.19,50.96l1.17-2.64h0.05
			l1.17,2.64H77.19z"/>
		<path style="fill:#1E1F1D;" d="M87.89,50.25c0-0.1-0.05-0.2-0.15-0.2h-1.72l0,0c-0.1,0-0.15,0.1-0.15,0.2v0.56l0,0
			c0,0.1,0.1,0.15,0.2,0.15h0.96v1.06c-0.46,0.2-0.96,0.3-1.42,0.3c-1.37,0-2.43-1.17-2.43-2.48c0-1.37,1.06-2.48,2.43-2.48
			c0.61,0,1.17,0.25,1.62,0.66c0.1,0.1,0.15,0.1,0.25,0c0.15-0.15,0.3-0.3,0.46-0.46l0,0c0.05-0.1,0.05-0.2,0-0.25
			c-0.66-0.56-1.42-0.91-2.33-0.91l0,0c-0.05,0-0.05,0-0.1,0c-1.93,0-3.45,1.57-3.4,3.5c0,1.93,1.57,3.45,3.5,3.4
			c1.37,0,2.38-0.66,2.38-0.66c0.05-0.05,0.05-0.1,0.1-0.15C87.89,51.82,87.89,51.01,87.89,50.25z"/>
		<path style="fill:#1E1F1D;" d="M59.6,47.01c-0.56,0.25-1.01,0.91-1.01,1.52v0.05l2.03-0.96v-0.05
			C60.62,47.01,60.16,46.76,59.6,47.01z"/>
		<path style="fill:#1E1F1D;" d="M58.34,41.13c-4.92,0-8.87,3.95-8.87,8.87s3.95,8.87,8.87,8.87s8.87-3.95,8.87-8.87
			S63.2,41.13,58.34,41.13z M57.07,45.69c0.71-0.3,1.27,0,1.27,0.66l-0.25,0.1c0-0.56-0.46-0.81-1.01-0.56
			c-0.56,0.25-1.01,0.91-1.01,1.52l-0.25,0.1C55.8,46.86,56.36,46,57.07,45.69z M62.09,51.93l-2.53,1.27l-2.53,1.27l-2.53-1.27
			v-5.02l1.27,0.41l1.27,0.71l1.27-0.61v-0.05c0-0.71,0.56-1.52,1.27-1.82c0.71-0.3,1.27,0,1.27,0.66v0.05l1.27-0.61V51.93z"/>
	</g>
</g>
</svg>
