<?xml version="1.0" encoding="utf-8"?>
<!-- Generator: Adobe Illustrator 18.0.0, SVG Export Plug-In . SVG Version: 6.00 Build 0)  -->
<!DOCTYPE svg PUBLIC "-//W3C//DTD SVG 1.1//EN" "http://www.w3.org/Graphics/SVG/1.1/DTD/svg11.dtd">
<svg version="1.1" id="Layer_1" xmlns="http://www.w3.org/2000/svg" xmlns:xlink="http://www.w3.org/1999/xlink" x="0px" y="0px"
	width="100px" height="100px" viewBox="-3 87 618 618" style="enable-background:new -3 87 618 618;" xml:space="preserve">
<g>
	<circle style="fill:#E8E8E8;" cx="306" cy="396" r="309"/>
	<circle style="fill:#FFFFFF;" cx="306" cy="396" r="302.8"/>
</g>
<path style="fill:#EC0000;" d="M392.1,379.9c-0.5-13.6-4.7-27.1-11.2-39.3l-61.8-107.1c-4.7-8-8-16.8-9.8-25.7l-2.8,4.7
	c-15.4,26.7-15.4,59.4,0,85.6l49.6,85.6c15.4,26.7,15.4,59.4,0,85.6l-2.8,4.7c-1.9-8.9-5.1-17.8-9.8-25.7L298,370L269,320
	c-4.7-8-8-16.8-9.8-25.7l-2.8,4.7c-15.4,26.2-15.4,59-0.5,85.6l49.6,86.1c15.4,26.7,15.4,59.4,0,85.6l-2.8,4.7
	c-1.9-8.9-5.1-17.8-9.8-25.7l-61.8-108.1c-8.4-14.5-12.2-30.4-11.2-46.8c-66.4,17.3-111.8,53.8-111.8,96.8
	c0,59.4,88.4,107.1,197.9,107.1s197.9-47.7,197.9-107.1C503.9,434.1,458.1,397.2,392.1,379.9z"/>
</svg>
