<?xml version="1.0"?>
<svg xmlns="http://www.w3.org/2000/svg" xmlns:xlink="http://www.w3.org/1999/xlink" xmlns:svgjs="http://svgjs.com/svgjs" version="1.1" width="512" height="512" x="0" y="0" viewBox="0 0 512 512" style="enable-background:new 0 0 512 512" xml:space="preserve" class=""><g><g xmlns="http://www.w3.org/2000/svg"><circle cx="256" cy="256" fill="#f1f1f1" r="256" data-original="#e37a4e" style="" class=""/><path d="m370.768 92s-182.034 65.917-182.034 87.087c0 14.537-4.323 24.43-10.572 33.533-3.495 5.091-9.854 190.158-9.854 190.158s55.94 55.943 108.384 108.387c131.707-10.536 235.308-120.747 235.308-255.165 0-8.001-.386-15.91-1.104-23.723-58.98-58.855-140.286-140.057-140.128-140.277z" fill="#f1f1f1" data-original="#dd455b" style="" class=""/><g><path d="m338.759 280.408-18.13 36.242-22.212-22.212 37.846-37.846-26.205-31.451-8.625-.984-35.823 35.823-9.61-9.61-19.219-19.219-28.828 28.828-29.636-29.636-12.138-2.529c-20.866 23.696-35.1 43.856-35.1 85.843 0 72.421 56.574 104.421 58.332 106.344h66.589 66.59c1.759-1.924 58.332-33.872 58.332-106.344v-5.143z" fill="#674d55" data-original="#674d55" style="" class=""/><path d="m380.922 313.656v-5.143l-42.163-28.105-18.13 36.242-22.212-22.212 37.846-37.846-26.205-31.451-8.625-.984-35.823 35.823-9.61-9.61v169.63h66.59c1.759-1.924 58.332-33.872 58.332-106.344z" fill="#52374c" data-original="#52374c" style="" class=""/><path d="m256 92h-114.768c10.635 14.814 11.329 16.004 21.189 29.41 17.52 23.883 26.313 36.507 26.313 57.678 0 14.537-4.323 24.43-10.572 33.533l9.159 18.767 20.632 20.633 28.828-28.828 19.219 19.219 9.609 9.609 24.836-24.838 7.26-16.868-7.341-8.809 32.901-16.488v-5.931c0-21.415 9.215-34.546 25.947-57.227 11.707-15.873 10.568-14.579 21.555-29.86z" fill="#674d55" data-original="#674d55" style="" class=""/><path d="m290.446 227.184 7.26-16.868-7.341-8.809 32.901-16.488v-5.931c0-21.415 9.215-34.546 25.947-57.227 11.707-15.873 10.568-14.579 21.555-29.86h-114.768v150.412l9.609 9.609z" fill="#52374c" data-original="#52374c" style="" class=""/><path d="m297.706 210.316-32.096 32.096-9.61-9.61-19.219-19.219-28.828 28.828-29.791-29.791c-3.495 5.091-7.453 10.028-11.984 15.193l41.775 41.775 28.828-28.828 19.219 19.219 9.609 9.609 44.448-44.448z" fill="#f3d652" data-original="#f3d652" style="" class=""/><path d="m310.057 225.14-12.351-14.824-32.097 32.096-9.609-9.61v27.177l9.609 9.609z" fill="#e9bc3e" data-original="#e9bc3e" style="" class=""/></g></g></g></svg>
