<?xml version="1.0"?>
<svg xmlns="http://www.w3.org/2000/svg" xmlns:xlink="http://www.w3.org/1999/xlink" xmlns:svgjs="http://svgjs.com/svgjs" version="1.1" width="512" height="512" x="0" y="0" viewBox="0 0 512 512" style="enable-background:new 0 0 512 512" xml:space="preserve" class=""><g><path xmlns="http://www.w3.org/2000/svg" d="m512 256c0 141.386719-114.613281 256-256 256s-256-114.613281-256-256 114.613281-256 256-256 256 114.613281 256 256zm0 0" fill="#f1f1f1" data-original="#ffe600" style="" class=""/><path xmlns="http://www.w3.org/2000/svg" d="m512 256c0-17.503906-1.761719-34.59375-5.109375-51.109375l-92.890625-92.890625-11.476562 19.34375-58.8125-58.816406-26.113282 85.253906-50.457031-50.457031-42.292969 92.523437-87.847656-87.847656-39 288 106.890625 106.890625c16.515625 3.347656 33.605469 5.109375 51.109375 5.109375 141.386719 0 256-114.613281 256-256zm0 0" fill="#f1f1f1" data-original="#ffc200" style="" class=""/><path xmlns="http://www.w3.org/2000/svg" d="m236.195312 250h118.945313v98.175781h-118.945313zm0 0" fill="#ff9100" data-original="#ff9100" style=""/><path xmlns="http://www.w3.org/2000/svg" d="m294.394531 250h60.746094v98.175781h-60.746094zm0 0" fill="#ff6e0b" data-original="#ff6e0b" style="" class=""/><path xmlns="http://www.w3.org/2000/svg" d="m280.003906 250h31.324219v37.171875h-31.324219zm0 0" fill="#ffffff" data-original="#ffffff" style=""/><path xmlns="http://www.w3.org/2000/svg" d="m294.394531 250h16.933594v37.171875h-16.933594zm0 0" fill="#dce1eb" data-original="#dce1eb" style=""/><path xmlns="http://www.w3.org/2000/svg" d="m148.195312 107.324219h118.945313v98.175781h-118.945313zm0 0" fill="#ff9100" data-original="#ff9100" style=""/><path xmlns="http://www.w3.org/2000/svg" d="m207.726562 107.324219h59.414063v98.175781h-59.414063zm0 0" fill="#ff6e0b" data-original="#ff6e0b" style="" class=""/><path xmlns="http://www.w3.org/2000/svg" d="m192.003906 107.324219h31.324219v37.171875h-31.324219zm0 0" fill="#ffffff" data-original="#ffffff" style=""/><path xmlns="http://www.w3.org/2000/svg" d="m207.726562 107.324219h15.601563v37.171875h-15.601563zm0 0" fill="#dce1eb" data-original="#dce1eb" style=""/><path xmlns="http://www.w3.org/2000/svg" d="m279.570312 72.527344h64.140626v132.972656h-64.140626zm0 0" fill="#d84a0b" data-original="#d84a0b" style=""/><path xmlns="http://www.w3.org/2000/svg" d="m310.757812 72.527344h32.953126v132.972656h-32.953126zm0 0" fill="#ad2f15" data-original="#ad2f15" style=""/><path xmlns="http://www.w3.org/2000/svg" d="m298.210938 72.527344h26.859374v39.472656h-26.859374zm0 0" fill="#dbad5c" data-original="#dbad5c" style=""/><path xmlns="http://www.w3.org/2000/svg" d="m310.757812 72.527344h14.3125v39.472656h-14.3125zm0 0" fill="#cc9f56" data-original="#cc9f56" style=""/><path xmlns="http://www.w3.org/2000/svg" d="m151.667969 268.585938h111.472656v69.886718h-111.472656zm0 0" fill="#d84a0b" data-original="#d84a0b" style=""/><path xmlns="http://www.w3.org/2000/svg" d="m205.910156 268.585938h57.230469v69.886718h-57.230469zm0 0" fill="#ad2f15" data-original="#ad2f15" style=""/><path xmlns="http://www.w3.org/2000/svg" d="m117.5 328h270.5v39h-270.5zm0 0" fill="#263dbf" data-original="#263dbf" style="" class=""/><path xmlns="http://www.w3.org/2000/svg" d="m255.605469 328h132.394531v39h-132.394531zm0 0" fill="#152689" data-original="#152689" style=""/><path xmlns="http://www.w3.org/2000/svg" d="m117.5 186h270.5v39h-270.5zm0 0" fill="#263dbf" data-original="#263dbf" style="" class=""/><path xmlns="http://www.w3.org/2000/svg" d="m255.605469 186h132.394531v39h-132.394531zm0 0" fill="#152689" data-original="#152689" style=""/><path xmlns="http://www.w3.org/2000/svg" d="m98 112h39v288h-39zm0 0" fill="#0c2093" data-original="#0c2093" style=""/><path xmlns="http://www.w3.org/2000/svg" d="m375 112h39v288h-39zm0 0" fill="#0d1d70" data-original="#0d1d70" style=""/></g></svg>
