<?xml version="1.0"?>
<svg xmlns="http://www.w3.org/2000/svg" xmlns:xlink="http://www.w3.org/1999/xlink" xmlns:svgjs="http://svgjs.com/svgjs" version="1.1" width="512" height="512" x="0" y="0" viewBox="0 0 512 512" style="enable-background:new 0 0 512 512" xml:space="preserve" class=""><g><g xmlns="http://www.w3.org/2000/svg"><g><g><g><g><g><g><g><g><g><g><g><g><g><circle cx="256" cy="256" fill="#f1f1f1" r="256" data-original="#ffea98" style="" class=""/></g></g></g></g></g></g></g></g></g></g></g></g></g><path d="m511.979 257.635-116.254-116.254-248.881 7.5-30.568 7.5 46.506 46.506-95.717 22.043 97.293 97.293-87.546 67.239 114.208 114.207c20.751 5.43 42.526 8.331 64.98 8.331 140.838 0 255.098-113.734 255.979-254.365z" fill="#f1f1f1" data-original="#ffdd55" style="" class=""/><g><path d="m313.843 108.638h-57.843l7.5-34.108h50.343z" fill="#dd78ef" data-original="#dd78ef" style=""/><g><path d="m248.5 148.881h7.5l3.75-37.176-3.75-37.175h-7.5z" fill="#5a5555" data-original="#5a5555" style=""/><path d="m256 74.53h7.5v74.351h-7.5z" fill="#464141" data-original="#464141" style=""/></g><g><path d="m125.739 389.461h-48.927v-172.031h78.927z" fill="#ffffff" data-original="#ffffff" style="" class=""/><path d="m435.188 389.461h-48.927l-30-172.031h78.927z" fill="#f5f2f1" data-original="#f5f2f1" style="" class=""/><g><path d="m67.065 209.93h139.725v15h-139.725z" fill="#ff7c48" data-original="#ff7c48" style=""/><path d="m305.862 209.93h139.725v15h-139.725z" fill="#ff6426" data-original="#ff6426" style=""/></g><g><path d="m125.739 389.461h99.267l30.994-14.775 55.131-105.515-55.131-120.29h-130.261z" fill="#ffffff" data-original="#ffffff" style="" class=""/><path d="m256 374.686 30.994 14.775h99.267v-240.58h-130.261z" fill="#f5f2f1" data-original="#f5f2f1" style="" class=""/></g><g><path d="m208.413 389.461h47.587l23.794-45.052-23.794-45.052h-47.587z" fill="#a57262" data-original="#a57262" style="" class=""/><path d="m256 299.357h47.587v90.105h-47.587z" fill="#936455" data-original="#936455" style="" class=""/></g><g><path d="m116.275 156.381h139.725l39.862-7.5-39.862-7.5h-139.725z" fill="#ff7c48" data-original="#ff7c48" style=""/><path d="m256 141.381h139.725v15h-139.725z" fill="#ff6426" data-original="#ff6426" style=""/></g><path d="m146.844 193.241h33.377v33.377h-33.377z" fill="#5f69e2" data-original="#5f69e2" style=""/><path d="m208.527 193.241h33.377v33.377h-33.377z" fill="#5f69e2" data-original="#5f69e2" style=""/><path d="m146.844 246.299h33.377v33.377h-33.377z" fill="#5f69e2" data-original="#5f69e2" style=""/><path d="m208.527 246.299h33.377v33.377h-33.377z" fill="#5f69e2" data-original="#5f69e2" style=""/><g fill="#515bdf"><path d="m270.21 193.241h33.377v33.377h-33.377z" fill="#515bdf" data-original="#515bdf" style="" class=""/><path d="m331.893 193.241h33.377v33.377h-33.377z" fill="#515bdf" data-original="#515bdf" style="" class=""/><path d="m270.21 246.299h33.377v33.377h-33.377z" fill="#515bdf" data-original="#515bdf" style="" class=""/><path d="m331.893 246.299h33.377v33.377h-33.377z" fill="#515bdf" data-original="#515bdf" style="" class=""/><path d="m331.893 299.357h33.377v33.377h-33.377z" fill="#515bdf" data-original="#515bdf" style="" class=""/><path d="m386.261 247.459h33.377v33.377h-33.377z" fill="#515bdf" data-original="#515bdf" style="" class=""/><path d="m386.261 300.517h33.377v33.377h-33.377z" fill="#515bdf" data-original="#515bdf" style="" class=""/></g><path d="m146.844 299.357h33.377v33.377h-33.377z" fill="#5f69e2" data-original="#5f69e2" style=""/><path d="m92.361 246.299h33.377v33.377h-33.377z" fill="#5f69e2" data-original="#5f69e2" style=""/><path d="m92.361 299.357h33.377v33.377h-33.377z" fill="#5f69e2" data-original="#5f69e2" style=""/></g><g><path d="m195.623 396.792h60.377l30.189-7.331-30.189-7.33h-60.377z" fill="#5a5555" data-original="#5a5555" style=""/><path d="m256 382.131h60.377v14.661h-60.377z" fill="#464141" data-original="#464141" style=""/></g></g></g></g></svg>
