<?xml version="1.0"?>
<svg xmlns="http://www.w3.org/2000/svg" xmlns:xlink="http://www.w3.org/1999/xlink" xmlns:svgjs="http://svgjs.com/svgjs" version="1.1" width="512" height="512" x="0" y="0" viewBox="0 0 512 512" style="enable-background:new 0 0 512 512" xml:space="preserve" class=""><g><g xmlns="http://www.w3.org/2000/svg"><g><g><g><g><g id="XMLID_639_"><g id="XMLID_640_"><g id="XMLID_641_"><g id="XMLID_642_"><g id="XMLID_643_"><g id="XMLID_644_"><g id="XMLID_645_"><g id="XMLID_646_"><g id="XMLID_647_"><g id="XMLID_648_"><g id="XMLID_649_"><g id="XMLID_650_"><g id="XMLID_666_"><g id="XMLID_667_"><g id="XMLID_668_"><circle cx="256" cy="256" fill="#f1f1f1" r="256" data-original="#ffa440" style="" class=""/></g></g></g></g></g></g></g></g></g></g></g></g></g></g></g></g></g></g></g><path d="m512 256c0-38.896-8.69-75.758-24.211-108.773l-75.927-75.926-155.862 184.699-155.863 184.699 47.09 47.09c33.015 15.521 69.877 24.211 108.773 24.211 141.385 0 256-114.615 256-256z" fill="#f1f1f1" data-original="#ef7d00" style="" class=""/><g><g><path d="m121.696 98.457h268.608v315.085h-268.608z" fill="#ffffff" data-original="#ffffff" style="" class=""/><path d="m256 98.46h134.3v315.08h-134.3z" fill="#b8fffb" data-original="#b8fffb" style="" class=""/><path d="m315.741 278.513-27.456-19.611h-64.571l-27.456 19.611c-14.104 10.074-22.474 26.34-22.474 43.672v14.714l17.887 66.162h134.022l12.522-66.162v-14.714c0-17.332-8.37-33.598-22.474-43.672z" fill="#6c2ac4" data-original="#6c2ac4" style=""/><g><path d="m173.785 336.899h30v69.086h-30z" fill="#ffcb78" data-original="#ffcb78" style=""/></g><path d="m338.22 322.18v14.719l-12.526 66.161h-69.694v-144.16h32.29l9.63 6.88 17.82 12.73c14.11 10.08 22.48 26.34 22.48 43.67z" fill="#260082" data-original="#260082" style="" class=""/><g><g><path d="m308.22 336.899h30v69.086h-30z" fill="#f1f1f1" data-original="#ffa440" style="" class=""/></g></g><path d="m231.812 271.384 14.396 36.707c3.492 8.904 16.092 8.904 19.584 0l14.396-36.707z" fill="#f1f1f1" data-original="#ffa440" style="" class=""/><path d="m265.792 308.092 14.396-36.707h-24.188v43.385c4.023 0 8.046-2.226 9.792-6.678z" fill="#f27d14" data-original="#f27d14" style=""/><g><g><g><g><path d="m411.863 440.699h-311.726v-369.398h311.726zm-271.726-40h231.726v-289.398h-231.726z" fill="#494949" data-original="#494949" style="" class=""/></g></g></g></g><circle cx="256" cy="231.121" fill="#ffcb78" r="48.991" data-original="#ffcb78" style=""/><path d="m304.99 231.118c0 9.29-2.58 17.98-7.07 25.37-4.64 7.65-11.3 13.92-19.25 18.07-6.78 3.55-14.49 5.55-22.67 5.55v-97.98c2.19 0 4.35.14 6.46.42 4.97.66 9.71 2.06 14.09 4.09 12.48 5.77 22.12 16.65 26.25 29.94 1.42 4.591 2.19 9.481 2.19 14.54z" fill="#f1f1f1" data-original="#ffa440" style="" class=""/><g><path d="m256 71.3v40h115.86v289.4h-115.86v40h155.86v-369.4z" fill="#282828" data-original="#282828" style="" class=""/></g></g><path d="m327.661 229.192c-3.158-2.925-4.181-7.581-2.348-11.476 2.704-5.745 3.365-12.473 1.362-19.024-3.099-10.138-11.723-17.061-21.562-18.489-3.732-.541-6.892-3.186-7.992-6.793-3.495-11.457-14.536-19.622-27.335-18.694-3.738.271-7.265 1.345-10.421 3.039-2.097 1.126-4.633 1.126-6.73 0-3.156-1.694-6.683-2.768-10.421-3.039-12.799-.927-23.84 7.237-27.335 18.695-1.1 3.607-4.26 6.251-7.992 6.792-9.838 1.427-18.462 8.351-21.562 18.489-2.003 6.551-1.341 13.279 1.362 19.024 1.833 3.895.81 8.551-2.348 11.476-5.708 5.289-9.085 13.057-8.412 21.596 1.026 13.008 11.675 23.481 24.697 24.309 15.429.981 28.249-11.243 28.249-26.46 0-6.997-2.714-13.356-7.142-18.094 6.641-3.048 12.002-8.807 14.306-16.345.682-2.229 1.052-4.478 1.142-6.703 1.004.115 2.023.181 3.058.181 5.905 0 11.355-1.937 15.762-5.201 4.407 3.264 9.857 5.201 15.762 5.201 1.035 0 2.054-.066 3.058-.181.09 2.225.46 4.474 1.142 6.703 2.305 7.538 7.665 13.296 14.306 16.345-4.427 4.738-7.142 11.098-7.142 18.094 0 15.217 12.818 27.44 28.246 26.461 13.023-.827 23.673-11.3 24.7-24.309.675-8.539-2.702-16.308-8.41-21.597z" fill="#f1f1f1" data-original="#ef7d00" style="" class=""/><path d="m336.07 250.79c-1.02 13.01-11.67 23.48-24.7 24.31-15.43.98-28.24-11.25-28.24-26.46 0-7 2.71-13.36 7.14-18.1-6.64-3.05-12-8.8-14.31-16.34-.68-2.23-1.05-4.48-1.14-6.7-1 .11-2.02.18-3.06.18-5.9 0-11.35-1.94-15.76-5.2v-43.88c1.16 0 2.32-.28 3.37-.84 3.15-1.7 6.68-2.77 10.42-3.04 12.8-.93 23.84 7.23 27.33 18.69 1.1 3.61 4.26 6.25 7.99 6.79 9.84 1.43 18.47 8.35 21.57 18.49 2 6.55 1.34 13.28-1.37 19.03-1.83 3.89-.81 8.55 2.35 11.47 5.71 5.29 9.09 13.06 8.41 21.6z" fill="#ba5800" data-original="#ba5800" style="" class=""/></g></g></g></svg>
