<?xml version="1.0" encoding="utf-8"?>
<svg version="1.1" id="Layer_1" xmlns="http://www.w3.org/2000/svg" xmlns:xlink="http://www.w3.org/1999/xlink" x="0px" y="0px"
	 viewBox="0 0 2540.4 1952.7" style="enable-background:new 0 0 2540.4 1952.7;" xml:space="preserve">
<g transform="scale(0.9410288582183187) translate(10, 10)">
	<g id="SvgjsG2318">
	</g>
	<g id="_x31_544044734791">
		<path style="fill:#65CEC8;" d="M1539.8,1647.7c-10.8-11.4-23.4-21.2-37.8-29.6s-29.7-15.8-46-22.6s-33-13.1-50-19
			s-33.7-12.3-50-19.2c-16.3-6.9-31.7-14.6-46-23c-14.4-8.4-26.9-18.6-37.8-30.6c-10.8-12-19.4-25.9-25.8-41.8s-9.5-34.8-9.5-56.8
			c0-20.5,3.5-40.7,10.6-60.4s16.7-38.3,28.9-55.7c12.2-17.4,26.6-33.5,43.1-48.1s34.1-27.3,53-38s38.4-19,58.7-24.9
			c20.3-5.9,40.2-8.9,59.9-8.9c13.8,0,25.7,2.4,35.7,7.2c10,4.8,18.2,11.3,24.7,19.4c6.5,8.2,11.3,17.9,14.4,29.1
			c3.1,11.3,4.6,23.2,4.6,35.9c0,19.1-3.6,37.4-10.8,54.9c-7.2,17.5-16.9,33.2-29.1,47.3c-12.2,14.1-26.6,26-43.1,35.7
			s-34,16.5-52.6,20.5v7.6h6.8c21.7,0.6,43.6-3.3,65.9-11.6c22.2-8.3,42.4-19.8,60.6-34.4s32.9-31.9,44.3-51.9s17.1-41.5,17.1-64.6
			l0,0c0-20.5-3.6-38.3-10.8-53.2c-7.2-14.9-16.9-27.1-29.1-36.5s-26.7-16.4-43.5-20.9c-16.7-4.5-34.5-6.8-53.4-6.8
			c-26.5,0-52.8,3-78.9,9.1s-51.3,14.8-75.4,26.4c-24.1,11.5-46.5,25.5-67.3,42s-38.9,35.1-54.2,55.9
			c-15.3,20.8-27.4,43.7-36.1,68.6s-13.1,51.4-13.1,79.6c0,31,4.9,57.1,14.8,78.3c9.9,21.3,22.8,39.1,38.8,53.4
			c16,14.4,34.3,26.2,54.9,35.7c20.5,9.4,41.6,17.9,63.1,25.3c21.5,7.5,42.6,14.8,63.1,22.2c20.5,7.3,38.8,16.2,54.9,26.6
			c16,10.4,29,23.1,38.8,38c9.8,14.9,14.8,33.9,14.8,57c0,15.8-2.9,29.8-8.7,42.2c-5.8,12.4-13.7,22.8-23.9,31.2
			s-22.1,14.9-35.9,19.4s-28.7,6.8-44.7,6.8c-19.7,0-37.9-3.5-54.7-10.6c-16.7-7-32-16.3-45.8-27.7c-13.8-11.4-26.2-24.3-37.2-38.8
			s-20.7-29.2-29.1-44.1l-6.3,3.4c7,18.3,16.3,36,27.9,53c11.5,17,25,32.1,40.5,45.2c15.5,13.1,32.9,23.5,52.3,31.2
			s40.5,11.6,63.3,11.6c21.1,0,41.7-3.2,61.6-9.5c20-6.3,37.7-15.6,53.2-27.9s27.9-27.4,37.4-45.4c9.4-18,14.1-38.6,14.1-61.6
			c0-21.1-3.2-39.5-9.5-55.1C1559.2,1672.6,1550.6,1659.1,1539.8,1647.7z"/>
		<path style="fill:#65CEC8;" d="M953.2,1696.1c-19.8,7.3-40.2,11-61,11c-29.3,0-52.2-6.8-68.8-20.3c-16.6-13.5-26.7-33.1-30.4-58.7
			h10.1c8.7,0,18.4-0.6,28.9-1.9c10.6-1.3,21.2-3.3,32.1-6.1c10.8-2.8,21.2-6.5,31.2-11s18.9-10.1,26.8-16.9s14.2-14.6,19-23.6
			s7.2-19.4,7.2-31.2c0-9.9-1.8-18.6-5.3-26.2s-8.4-14-14.6-19.2s-13.4-9.1-21.7-11.8c-8.3-2.7-17.2-4-26.8-4
			c-20.3,0-39.3,3.8-57,11.4s-33.1,17.9-46.2,31c-13.1,13.1-23.4,28.4-30.8,46s-11.2,36.5-11.2,56.8c0,20.5,3.5,38.5,10.6,53.8
			c0.1,0.2,0.2,0.4,0.3,0.7c-1.8,2.1-3.6,4.2-5.6,6.3c-5.8,6.2-12,11.7-18.8,16.5c-6.8,4.8-13.8,8.7-21.1,11.8
			c-7.3,3.1-14.6,4.6-22,4.6c-9,0-16.7-3.8-23.2-11.4c-6.5-7.6-12-17.4-16.7-29.3c-4.6-12-8.4-25.4-11.4-40.3s-5.4-29.8-7.4-44.5
			c-2-14.8-3.7-28.6-5.1-41.6c-1.4-12.9-2.7-23.5-3.8-31.7c-0.6-3.7-1.2-7.7-1.9-12.2s-1.9-8.7-3.6-12.7s-3.9-7.2-6.8-9.9
			c-2.8-2.7-6.6-4-11.4-4c-3.9,0-7.6,1-11,3s-6.5,4.4-9.3,7.4s-5.4,6.3-7.8,9.9c-2.4,3.7-4.7,7.3-7,11c-16,25.6-31,53.8-44.8,84.6
			c-13.8,30.8-26.9,62.3-39.3,94.4c-3.4-36.3-6-56.1-7.8-59.5s-3.1-20.7-3.8-51.9c-0.7-31.2-1.1-46.9-1.1-46.9v-44.3
			c0-21.7,1.3-44.5,3.8-68.4s6.3-47.6,11.2-70.9c4.9-23.4,10.8-45.7,17.7-67.1s14.8-40.2,23.9-56.4c9.1-16.2,18.9-29.1,29.8-38.6
			c10.8-9.6,22.4-14.4,34.8-14.4c6.2,0,11.5,1.2,15.8,3.6c4.4,2.4,8,5.6,10.8,9.7s4.8,8.8,5.9,14.1c1.1,5.3,1.7,11,1.7,16.9
			c0,11.3-1.5,23.7-4.6,37.4s-7.3,27.8-12.7,42.4c-5.3,14.6-11.5,29.5-18.6,44.5c-7,15.1-14.4,29.4-22.2,43.1
			c-7.7,13.7-15.6,26.3-23.6,38s-15.5,21.5-22.6,29.3l5.5,4.2c16-16.6,32.7-34.7,50-54.2c17.3-19.6,33.1-40.3,47.3-62.3
			s25.9-45,35-69c9.1-24.1,13.7-49.2,13.7-75.4c0-17.4-4.6-30.9-13.9-40.3s-22-14.1-38-14.1c-24.2,0-46.1,5.2-65.6,15.6
			s-36.9,24.5-52.1,42.2c-1.3,1.5-2.5,3-3.8,4.5c-7.5-2.7-15.2-5.3-23.3-7.7c-19.3-5.8-39.5-10.8-60.6-15.2s-42.7-8-64.8-10.8
			c-22.1-2.8-43.4-5.1-64-6.8c1.1-7.3,2.2-14,3.2-20.1s2-11,3.2-15l-7.6-3.4c-4.8,11-9.4,23.5-13.9,37.6c-9.9-0.6-19.4-1.1-28.7-1.5
			c-9.3-0.4-18.2-0.6-26.6-0.6c-7.3,0-16.7,0.4-28.1,1.1s-23.6,2-36.5,3.8s-26.2,4.1-39.9,6.8s-26.6,6.1-38.8,10.1
			c-12.2,4.1-23.1,8.7-32.5,13.9c-9.4,5.2-16.5,11.2-21.3,17.9c-3.1,4.5-6.2,9.7-9.3,15.6s-4.6,11.7-4.6,17.3
			c0,8.2,4.1,12.2,12.2,12.2c3.9,0,7.6-0.8,11-2.5c15.2-5.1,31.7-9.6,49.6-13.7s36.6-7.8,56.1-11.2s39.7-6.3,60.4-8.7
			c20.7-2.4,41.4-4.3,62.3-5.7c-6.2,25-11.8,51.8-16.7,80.2s-9.4,57.5-13.3,87.2s-7.3,59.7-10.1,89.9c-2.8,30.3-5.1,59.7-7,88.2
			c-1.8,28.6-3.2,55.8-4.2,81.7c-1,25.9-1.5,49.5-1.5,70.9c0,9,0.1,20.4,0.4,34.2c0.3,13.8,1.4,27.9,3.4,42.2
			c2,14.4,5.2,27.7,9.7,40.1c4.5,12.4,11,21.4,19.4,27c4.8,3.1,10.2,6.3,16.3,9.7c6.1,3.4,12.2,5.1,18.4,5.1c4.8,0,8.3-1.3,10.6-4
			s3.4-6.3,3.4-10.8c0-2.5-0.5-5.1-1.5-7.8s-1.8-5.3-2.3-7.8c-4.8-16.3-8.7-35.6-11.8-57.8c-3.1-22.2-5.5-46.4-7.2-72.4
			c-1.7-26-2.7-53.5-3.2-82.3c-0.4-28.8-0.4-58.3,0.2-88.2c0.6-30,1.5-60,2.7-89.9c1.3-30,2.8-59,4.6-87.2s3.9-55,6.1-80.4
			c2.3-25.5,4.5-48.6,6.8-69.4c10.1-0.6,20.2-1.1,30.2-1.7s19.9-0.8,29.8-0.8c30.7,0,61.4,0.8,92.2,2.3c18.4,0.9,36.9,2.3,55.4,4.1
			c-8.8,12.7-16.7,26.5-23.8,41.5c-11.1,23.5-20.3,48.5-27.4,74.9c-7.2,26.5-12.5,53.5-15.8,81.3c-3.4,27.7-5.1,54.7-5.1,80.8
			c0,18.3,0.5,38.2,1.5,59.7s2.5,42.7,4.4,63.5c2,20.8,4.3,40.4,7,58.7c2.7,18.3,5.7,33.5,9.1,45.6c0.6,2.3,1.3,4.6,2.3,7.2
			s2.4,4.9,4.2,7s4.1,3.9,6.8,5.3s6,2.1,9.9,2.1c4.2,0,7.9-1,11-3s5.8-4.4,8-7.4c2.3-3,4.2-6.2,5.9-9.7s3.4-6.8,5.1-9.9
			c7.3-14.4,14.2-28.8,20.7-43.5c6.5-14.6,13.1-29.1,19.8-43.3c6.8-14.2,13.8-27.9,21.1-41.2c7.3-13.2,15.5-25.8,24.5-37.6
			c1.7,12.4,3.4,26,5.3,41c1.8,14.9,4.2,29.8,7,44.8c2.8,14.9,6.3,29.4,10.6,43.5s9.6,26.5,16,37.4s14.4,19.6,23.6,26.2
			s20.3,9.9,32.9,9.9c11.5,0,22.4-2.5,32.5-7.6s19.4-11.6,27.9-19.6c8.4-8,16.1-17,23-27c3.1-4.4,5.9-8.9,8.5-13.3
			c6.6,12.1,15.1,22.4,25.4,30.9c12.4,10.1,26.9,17.7,43.5,22.6s34.5,7.4,53.6,7.4c13.5,0,26.9-2,40.3-5.9s26.2-9.3,38.4-16
			c12.2-6.8,23.5-14.8,33.8-24.1c10.3-9.3,19.1-19.3,26.4-30l-3.4-1.7C991,1678.6,973,1688.8,953.2,1696.1z M791.7,1605.7
			c0-9.3,1.2-19.9,3.6-31.9s6.3-23.4,11.6-34.2c5.3-10.8,12.3-20,20.9-27.4c8.6-7.5,19.1-11.2,31.5-11.2c12.1,0,20.6,3.8,25.5,11.4
			s7.4,17.2,7.4,28.7c0,11.8-2.8,22.4-8.4,31.7c-5.6,9.3-12.7,17.1-21.3,23.4c-8.6,6.3-18.2,11.1-28.9,14.4s-21.1,4.9-31.2,4.9
			h-10.6L791.7,1605.7L791.7,1605.7z"/>
		<path style="fill:#65CEC8;" d="M2686.6,1665.7c-4.5,5.9-9.6,11.9-15.2,17.9c-5.6,6.1-11.7,11.4-18.2,16
			c-6.5,4.6-13.3,8.4-20.5,11.4s-14.6,4.4-22.2,4.4c-9.3,0-17.3-3.8-24.1-11.4c-6.8-7.6-12.5-17.4-17.3-29.3
			c-4.8-12-8.7-25.3-11.8-40.1c-3.1-14.8-5.7-29.5-7.8-44.1s-3.9-28.4-5.3-41.4c-1.4-12.9-2.8-23.5-4.2-31.7
			c-0.6-3.1-1.3-6.3-2.3-9.5s-2.4-6.1-4.2-8.7c-1.8-2.5-4.2-4.6-7-6.3c-2.8-1.7-6.3-2.5-10.6-2.5c-7.3,0-13.4,1.9-18.4,5.7
			c-4.9,3.8-9.8,8.4-14.6,13.7c-9.9,11.3-19.5,25.1-28.9,41.6s-18.2,33.8-26.2,51.9c-8,18.2-15.1,36.2-21.1,54
			c-6.1,17.9-10.6,33.8-13.7,47.9c-3.7-35.2-5.6-71.8-5.9-110c-0.3-38.1,3.2-75.6,10.6-112.5c-1.5-1.4-2-2.5-1.3-3.4
			c0.7-0.8-0.7-1.5-4.2-1.9s-5.3-0.6-5.3-0.6h-4c-6.8,0-13.2,0.9-19.4,2.7c-6.2,1.8-11.5,4.6-16,8.4s-8.1,8.6-10.8,14.4
			s-4,12.6-4,20.5c0,32.6,1.6,65.3,4.9,97.9c1.5,14.8,3.5,30,5.9,45.5l-1.5-0.8c-9,9.9-19.4,18-31.2,24.5s-24.8,9.7-38.8,9.7
			c-11.5,0-21-1.9-28.3-5.7c-7.3-3.8-13.1-9-17.3-15.6s-7.2-14.4-8.9-23.4s-2.5-18.6-2.5-28.7c0-9.9,0.7-19.8,2.1-30
			c1.4-10.1,3.7-20,6.8-29.6l-5.5-3.4c-5.9,6.8-11.6,14.5-17.1,23.2s-10.3,17.9-14.6,27.7s-7.7,19.6-10.3,29.6
			c-2.7,10-4.2,19.5-4.4,28.5c-8.2,6.2-16.9,11.2-26.2,15s-19,5.7-29.1,5.7c-9.6,0-17.4-1.9-23.6-5.7c-6.2-3.8-11-8.9-14.6-15.2
			c-3.5-6.3-6-13.4-7.4-21.1s-2.1-15.7-2.1-23.9c0-11.5,2-24.5,5.9-38.8c3.9-14.4,9.6-27.9,17.1-40.5c7.5-12.7,16.6-23.3,27.4-31.9
			c10.8-8.6,23.1-12.9,36.9-12.9c5.9,0,11.2,0.8,15.8,2.3s8.7,3.3,12.2,5.3s6.7,3.7,9.5,5.3s5.5,2.3,8,2.3c3.1,0,5.8-1.2,8-3.6
			c2.3-2.4,3.4-5.1,3.4-8.2l0,0c0-4.8-1.5-8.7-4.4-11.8c-3-3.1-6.5-5.5-10.8-7.2s-8.6-2.9-13.1-3.6s-8.3-1.1-11.4-1.1
			c-13.5,0-26.7,2.5-39.7,7.6c-12.9,5.1-25.3,12-36.9,20.7c-11.7,8.7-22.4,18.9-32.3,30.4c-9.9,11.5-18.4,23.8-25.5,36.7
			s-12.8,26.1-16.9,39.5c-4.1,13.4-6.1,26.4-6.1,39.1c0,11,1.6,21.5,4.9,31.5s8,18.6,14.1,26c6.2,7.3,13.9,13.2,23,17.5
			c9.1,4.4,19.6,6.5,31.5,6.5c16,0,31.3-4,45.8-12s27.7-17.9,39.5-29.8c3.7,13.5,10.4,24.7,20.3,33.6c9.9,8.9,22.5,13.3,38,13.3
			c11,0,22.1-2.1,33.4-6.3s21.9-9.9,31.9-17.1s19.1-15.3,27.2-24.3c7.5-8.3,13.6-16.9,18.5-25.8c2.9,17.5,6.4,35.4,10.6,53.7
			c1.4,6.5,3.7,12.2,7,17.3c3.2,5.1,8.5,7.6,15.8,7.6c4.5,0,8.6-1.2,12.2-3.6c3.7-2.4,6.8-5.3,9.5-8.9s4.9-7.4,6.8-11.6
			s3.2-8.3,4-12.2c4.5-18.3,10.3-36.9,17.5-55.7c7.2-18.9,14.7-36.3,22.6-52.3c7.9-16,15.6-30,23.2-42c7.6-12,14.1-20.1,19.4-24.3
			l3.8,39.9c1.4,14.8,3.5,29.8,6.3,45s6.4,30.1,10.8,44.8s10.1,27.7,17.3,39.1c7.2,11.4,15.8,20.5,26,27.4
			c10.1,6.9,22.2,10.3,36.3,10.3c12.4,0,23.4-2.1,32.9-6.3s18.2-9.9,25.8-16.9s14.4-15.2,20.5-24.5c6.1-9.3,11.8-19,17.1-29.1
			L2686.6,1665.7z"/>
		<path style="fill:#65CEC8;" d="M1980.2,1424c-12-13.1-29.9-19.6-53.8-19.6c-8.7,0-17.2,1-25.3,3c-8.2,2-15.9,4.8-23.2,8.4l0.8,3.8
			c9.3-1.1,17.6,0.1,24.9,3.8s13.8,8.9,19.4,15.8c5.6,6.9,10.5,15.1,14.6,24.5s7.4,19.2,9.9,29.3c2.5,10.1,4.4,20.3,5.5,30.6
			s1.7,19.8,1.7,28.5c0,10.4-0.6,21.6-1.9,33.6c-1.3,12-3.2,24-5.9,36.1s-5.9,23.7-9.7,34.8c-3.8,11.1-8.3,21-13.5,29.6
			s-11,15.5-17.5,20.7c-6.5,5.2-13.5,7.8-21.1,7.8c-2.5,0-5.3-3.9-8.4-11.6c-3.1-7.7-6.3-17.5-9.5-29.3s-6.3-24.7-9.3-38.6
			s-5.7-27.1-8.2-39.5s-4.6-23.1-6.1-32.1s-2.5-14.5-2.7-16.5c-0.8-3.9-1.9-9.5-3.2-16.7s-3-14.3-5.3-21.3s-5.2-13.2-8.9-18.4
			c-3.7-5.2-8.3-7.8-13.9-7.8c-3.4,0-7.3,0.7-11.8,2.1s-8.9,3.4-13.1,5.9s-7.7,5.5-10.6,8.9c-2.8,3.4-4.2,7-4.2,11
			c0,2.8,0.3,4.8,0.8,5.9c1.4,5.3,3.1,12.5,5.1,21.3c2,8.9,4.4,18.9,7.2,30.2c-2.5,14.1-5.9,29.6-10.1,46.4
			c-4.2,16.9-9.1,32.8-14.6,47.7c-5.5,14.9-11.6,27.4-18.4,37.4c-6.8,10-14.1,15-22,15c-2.5,0-5.1-2.7-7.8-8.2
			c-2.7-5.5-5.3-12.4-7.8-20.7c-2.5-8.3-4.9-17.4-7-27.4s-4-19.6-5.7-28.7s-3.1-17.2-4.2-24.1s-1.8-11.5-2.1-13.7
			c-0.6-3.4-1.2-8.3-1.9-14.8s-1.7-13.7-3-21.7s-3-16.2-5.1-24.5s-4.6-15.8-7.4-22.6c-2.8-6.8-6.3-12.3-10.3-16.7
			c-4.1-4.4-8.7-6.5-13.7-6.5c-5.9,0-12.3,1.3-19.2,3.8c-6.9,2.5-13.7,5.8-20.3,9.7c-6.6,3.9-12.8,8.2-18.6,12.9
			c-5.8,4.6-10.6,9.1-14.6,13.3l2.5,4.2c3.9-2.3,9.1-4.9,15.4-7.8c6.3-3,11.9-4.4,16.7-4.4c1.1,0,2.3,1.5,3.6,4.4
			c1.3,3,2.3,6.3,3.2,9.9c0.8,3.7,1.5,7.2,2.1,10.6s1,5.5,1.3,6.3c1.1,5.6,2.8,14.4,5.1,26.2c2.3,11.8,5,25,8.2,39.5
			s7.2,29.4,11.8,44.8c4.6,15.3,9.9,29.3,15.6,41.8c5.8,12.5,12.2,22.9,19.4,31c7.2,8.2,15.1,12.2,23.9,12.2
			c13.5,0,25.2-4.5,35-13.5c9.9-9,18.4-20.5,25.8-34.4c7.3-13.9,13.5-29.3,18.6-46.2c5.1-16.9,9.7-33.1,13.9-48.5
			c4.5,16.6,9.4,33.3,14.8,50.2c5.3,16.9,11.2,32.2,17.5,46c6.3,13.8,12.9,25,19.8,33.6c6.9,8.6,14,12.9,21.3,12.9
			c12.4,0,24.3-4.4,35.7-13.1s22.1-20.3,32.1-34.8c10-14.5,19-31,27-49.6s14.9-37.7,20.7-57.4c5.8-19.7,10.2-39.2,13.3-58.5
			s4.6-36.7,4.6-52.1l0,0C1998.1,1455,1992.1,1437.1,1980.2,1424z"/>
	</g>
	<g id="_x31_544044736187">
		<polygon style="fill:#65CEC8;" points="673.7,1989.5 701,1989.5 701,2062.9 710.8,2062.9 710.8,1989.5 738.1,1989.5 738.1,1980.4 
			673.7,1980.4 		"/>
		<rect x="749.6" y="1980.4" style="fill:#65CEC8;" width="9.8" height="82.5"/>
		<path style="fill:#65CEC8;" d="M840,2054.3c5.8-2.5,10.6-6.9,14.4-13.2s5.7-13.2,5.7-20.5c-0.1-7.9-2-15.1-5.7-21.6
			s-8.7-11.5-15.1-15.2s-13.6-5.5-21.7-5.5l0,0c-7.7,0-14.8,1.8-21.4,5.5s-11.7,8.8-15.4,15.2c-3.7,6.4-5.6,13.6-5.6,21.6
			c0.2,12,4.4,22.1,12.4,30.2c8,8.1,18,12.1,29.8,12.1h48.1v-8.4H840L840,2054.3L840,2054.3z M817.6,2053.8
			c-9-0.2-16.6-3.4-22.7-9.7s-9.2-14.2-9.2-23.5c0.2-9.6,3.4-17.5,9.4-23.8s13.5-9.4,22.4-9.4c9.2,0.1,16.8,3.3,22.9,9.6
			s9.2,14.2,9.2,23.6c-0.2,9.3-3.2,17.2-9.3,23.6C834.2,2050.6,826.7,2053.8,817.6,2053.8z"/>
		<path style="fill:#65CEC8;" d="M929.3,2030.5c-0.1,8.1-1.9,14.3-5.4,18.7s-8.8,6.6-15.9,6.7c-7.1-0.2-12.4-2.4-16-6.8
			c-3.6-4.4-5.4-10.7-5.4-19.1v-49.6l0,0h-9.8v51.3c0.1,10.5,2.9,18.7,8.3,24.5c5.5,5.9,13.1,8.8,22.8,8.8c9.9-0.1,17.5-3,23-8.8
			c5.4-5.8,8.2-13.9,8.2-24.4v-51.4h-9.8L929.3,2030.5L929.3,2030.5z"/>
		<path style="fill:#65CEC8;" d="M541.7,1978.3c-12.6,0.2-22.9,4.3-31,12.5c-8.1,8.2-12.1,18.5-12.1,30.9
			c0.2,12.5,4.3,22.9,12.4,31.1c8.1,8.2,18.3,12.3,30.8,12.3c12.2-0.1,22.4-4.1,30.7-12.1s12.4-18.4,12.5-31.2
			c-0.2-12.6-4.3-23-12.4-31.1C564.4,1982.4,554.2,1978.3,541.7,1978.3z M564.9,2046.1c-6.1,6.5-13.9,9.8-23.2,9.8
			c-9.3-0.2-17.1-3.4-23.3-9.9c-6.2-6.4-9.3-14.6-9.3-24.4c0.2-9.6,3.2-17.7,9.3-24.3c6-6.6,13.8-9.9,23.3-10
			c9.7,0.2,17.6,3.5,23.7,10.1c6.1,6.6,9.1,14.6,9.1,24.2C574.2,2031.4,571.1,2039.6,564.9,2046.1z"/>
		<polygon style="fill:#65CEC8;" points="2235.5,1980.4 2207.3,2045.1 2207.1,2045.1 2179.1,1980.4 2164.5,1980.4 2164.5,2062.9 
			2174.3,2062.9 2174.3,1993.7 2174.6,1993.7 2204.2,2062.9 2210.1,2062.9 2239.7,1993.7 2240,1993.7 2240,2062.9 2249.8,2062.9 
			2249.8,1980.4 		"/>
		<path style="fill:#65CEC8;" d="M652.7,2030.5c-0.1,8.1-1.9,14.3-5.4,18.7s-8.8,6.6-15.9,6.7c-7.1-0.2-12.4-2.4-16-6.8
			s-5.4-10.7-5.4-19.1v-49.6h-9.8v51.3c0.1,10.5,2.9,18.7,8.3,24.5c5.5,5.9,13.1,8.8,22.8,8.8c9.9-0.1,17.5-3,23-8.8
			s8.2-13.9,8.2-24.4v-51.4h-9.8L652.7,2030.5L652.7,2030.5z"/>
		<path style="fill:#65CEC8;" d="M468.1,2019.5v-0.2c4.4-1.3,7.9-3.6,10.6-6.8c2.6-3.2,3.9-7.2,3.9-11.9c-0.1-6.5-2.5-11.4-7.2-15
			c-4.7-3.5-11.5-5.3-20.2-5.3H430v82.5h24.9c10.2-0.1,18-2.1,23.5-6.1s8.3-9.7,8.3-17c0-5.4-1.8-10-5.3-13.8
			S473.4,2020,468.1,2019.5z M439.7,1989.5h15c11.5,0.2,17.3,4.3,17.3,12.5c0,4.7-1.6,8.1-4.7,10.2s-7.7,3.2-13.6,3.2h-14V1989.5z
			 M470.9,2049.9c-3.5,2.6-8.3,3.9-14.2,3.9l0,0h-17v-29.4h16.9c6.1,0,10.8,1.3,14.3,3.8s5.2,6.3,5.2,11.2
			C476.2,2043.8,474.5,2047.3,470.9,2049.9z"/>
		<path style="fill:#65CEC8;" d="M2105.7,1978.3L2105.7,1978.3c-12.6,0.2-22.9,4.3-31,12.5s-12.1,18.5-12.1,30.9
			c0.2,12.5,4.3,22.9,12.4,31.1s18.3,12.3,30.8,12.3c12.2-0.1,22.4-4.1,30.7-12.1c8.2-8,12.4-18.4,12.5-31.2
			c-0.2-12.6-4.3-23-12.4-31.1C2128.4,1982.4,2118.1,1978.3,2105.7,1978.3z M2128.9,2046.1c-6.1,6.5-13.9,9.8-23.2,9.8
			c-9.3-0.2-17.1-3.4-23.3-9.9s-9.3-14.6-9.3-24.4l0,0c0.2-9.6,3.2-17.7,9.3-24.3c6-6.6,13.8-9.9,23.3-10
			c9.7,0.2,17.6,3.5,23.7,10.1c6.1,6.6,9.1,14.6,9.1,24.2C2138.1,2031.4,2135,2039.6,2128.9,2046.1z"/>
		<polygon style="fill:#65CEC8;" points="969,2024.4 1008.3,2024.4 1008.3,2015.3 969,2015.3 969,1989.5 1011.1,1989.5 
			1011.1,1980.4 959.2,1980.4 959.2,2062.9 1013.2,2062.9 1013.2,2053.8 969,2053.8 		"/>
		<path style="fill:#65CEC8;" d="M1161,1980.4l-36.4,82.5h11.1l8.5-20.3h41.3l8.4,20.3h11.4l-35.1-82.5H1161z M1148.1,2033.5
			l17.1-40.6h0.2l16.3,40.6H1148.1z"/>
		<path style="fill:#65CEC8;" d="M1811.2,1980.4l-36.4,82.5h11.1l8.5-20.3h41.3l8.4,20.3h11.4l-35.1-82.5H1811.2z M1798.2,2033.5
			l17.1-40.6h0.2l16.3,40.6H1798.2z"/>
		<path style="fill:#65CEC8;" d="M1407.6,2017.4c3.5-3.8,5.2-8.6,5.2-14.4c0-7.9-2.5-13.7-7.6-17.3s-13-5.4-23.8-5.4h-22.5v82.5h9.8
			v-37.1h12.6l22.4,37.1h12l-23.4-38C1399,2023.7,1404.2,2021.2,1407.6,2017.4z M1380.3,2016.7h-11.7v-27.3h14.3
			c6.6,0,11.5,1.1,14.6,3.3s4.7,5.7,4.7,10.3c0,4.8-1.7,8.3-5.2,10.4C1393.6,2015.7,1388,2016.7,1380.3,2016.7z"/>
		<polygon style="fill:#65CEC8;" points="1454.4,2017.7 1431.2,1980.4 1418.8,1980.4 1449.6,2027.4 1449.6,2062.9 1459.3,2062.9 
			1459.3,2027.4 1490.1,1980.4 1478.3,1980.4 		"/>
		<path style="fill:#65CEC8;" d="M1601,2018.1h-11.1l-11.1,18.5l-17.5-18.5c5.9-3,10.3-6.2,13.2-9.6c2.9-3.4,4.3-7.2,4.3-11.4
			c0-5.4-1.8-9.8-5.5-13.2s-8.7-5.1-15.1-5.1c-6.1,0-11.1,1.7-15.2,5.2s-6.1,8-6.1,13.7c0,3.1,0.7,6.2,2.2,9.2s4,6.3,7.7,10
			c-12.1,5.8-18.2,13.7-18.3,23.9c0,6.7,2.5,12.3,7.4,16.8s11.2,6.8,18.8,6.8c4.8,0,9.2-1,13.2-3.1s7.8-5.5,11.5-10.2l11.2,11.9
			h13.4l-18.9-19.4L1601,2018.1z M1546.7,1998.3c0-3.3,1.1-5.9,3.4-8s5.1-3.1,8.4-3.1c3.1,0,5.7,0.9,7.6,2.7c2,1.8,3,4.1,3,7
			c0,3-1,5.7-3.1,8s-5.6,4.7-10.7,7.3c-3-3-5.2-5.5-6.6-7.6S1546.7,2000.4,1546.7,1998.3z M1563.8,2053.3c-3,1.7-6.1,2.6-9.4,2.6
			c-4.4,0-8.1-1.5-11.3-4.6c-3.2-3.1-4.8-6.7-4.8-10.9l0,0c0-3.4,1.1-6.5,3.3-9.2c2.2-2.7,5.9-5.5,11.3-8.5l20.6,21.7
			C1570,2048.7,1566.8,2051.6,1563.8,2053.3z"/>
		<polygon style="fill:#65CEC8;" points="1725,2024.4 1764.3,2024.4 1764.3,2015.3 1725,2015.3 1725,1989.5 1767.1,1989.5 
			1767.1,1980.4 1715.2,1980.4 1715.2,2062.9 1769.2,2062.9 1769.2,2053.8 1725,2053.8 		"/>
		<path style="fill:#65CEC8;" d="M1098.9,2019.5v-0.2c4.4-1.3,7.9-3.6,10.6-6.8c2.6-3.2,3.9-7.2,3.9-11.9c-0.1-6.5-2.5-11.4-7.2-15
			c-4.7-3.5-11.5-5.3-20.2-5.3h-25.2v82.5h24.9c10.2-0.1,18-2.1,23.5-6.1s8.3-9.7,8.3-17c0-5.4-1.8-10-5.3-13.8
			C1108.7,2022.2,1104.2,2020,1098.9,2019.5z M1070.6,1989.5h15c11.5,0.2,17.3,4.3,17.3,12.5c0,4.7-1.6,8.1-4.7,10.2
			c-3.1,2.1-7.7,3.2-13.6,3.2h-14L1070.6,1989.5L1070.6,1989.5z M1101.7,2049.9c-3.5,2.6-8.3,3.9-14.2,3.9l0,0h-17v-29.4h16.9
			c6.1,0,10.8,1.3,14.3,3.8s5.2,6.3,5.2,11.2C1107,2043.8,1105.3,2047.3,1101.7,2049.9z"/>
		<path style="fill:#65CEC8;" d="M2008.4,1978.3c-12.6,0.2-22.9,4.3-31,12.5s-12.1,18.5-12.1,30.9c0.2,12.5,4.3,22.9,12.4,31.1
			s18.3,12.3,30.8,12.3c12.2-0.1,22.4-4.1,30.7-12.1s12.4-18.4,12.5-31.2c-0.2-12.6-4.3-23-12.4-31.1
			C2031.1,1982.4,2020.9,1978.3,2008.4,1978.3z M2031.6,2046.1c-6.1,6.5-13.9,9.8-23.2,9.8c-9.3-0.2-17.1-3.4-23.3-9.9
			c-6.2-6.4-9.3-14.6-9.3-24.4c0.2-9.6,3.2-17.7,9.3-24.3c6-6.6,13.8-9.9,23.3-10c9.7,0.2,17.6,3.5,23.7,10.1
			c6.1,6.6,9.1,14.6,9.1,24.2C2040.9,2031.4,2037.8,2039.6,2031.6,2046.1z"/>
		<path style="fill:#65CEC8;" d="M1947.6,2017.4c3.5-3.8,5.2-8.6,5.2-14.4c0-7.9-2.5-13.7-7.6-17.3s-13-5.4-23.8-5.4l0,0h-22.5v82.5
			h9.8v-37.1h12.6l22.4,37.1h12l-23.4-38C1939,2023.7,1944.2,2021.2,1947.6,2017.4z M1920.3,2016.7h-11.7v-27.3h14.3
			c6.6,0,11.5,1.1,14.6,3.3s4.7,5.7,4.7,10.3c0,4.8-1.7,8.3-5.2,10.4C1933.6,2015.7,1928,2016.7,1920.3,2016.7z"/>
		<polygon style="fill:#65CEC8;" points="1639.3,1989.5 1666.6,1989.5 1666.6,2062.9 1676.4,2062.9 1676.4,1989.5 1703.7,1989.5 
			1703.7,1980.4 1639.3,1980.4 		"/>
		<polygon style="fill:#65CEC8;" points="1279.1,1980.4 1265,1980.4 1227.5,2016 1226.1,2016 1226.1,1980.4 1226.1,1980.4 
			1216.3,1980.4 1216.3,2062.9 1226.1,2062.9 1226.1,2020.9 1227.5,2020.9 1266.8,2062.9 1281.1,2062.9 1238.3,2018 		"/>
		<polygon style="fill:#65CEC8;" points="1299.5,2024.4 1338.8,2024.4 1338.8,2015.3 1299.5,2015.3 1299.5,1989.5 1341.6,1989.5 
			1341.6,1980.4 1289.7,1980.4 1289.7,2062.9 1343.7,2062.9 1343.7,2053.8 1299.5,2053.8 		"/>
	</g>
	<g id="_x31_544044737728">
		<path style="fill:#65CEC8;" d="M1042.6,810.9c13.9-62.2,88.2-157.5,188.6-237.4c140.3-111.8,336.7-114.3,336.7-114.3
			s-31.3,178.8-171.7,290.6c-92,73.3-194.8,126.4-263.2,136.6c89.8,7.9,231.5-47.5,362.9-149.1c175.7-135.9,202.5-373.2,202.5-373.2
			s-258-17-433.7,118.9C1119.9,595.1,1032.9,728.3,1042.6,810.9z"/>
		<path style="fill:#65CEC8;" d="M1738.3,466.7c-33.7,131.7-81.2,220.7-233.8,335.3c-110.2,82.7-252.5,128.5-347.3,128.1
			c-59.7-0.3-109.3-21.6-139.7-56c-54.2-61.4-34.3-170.8-1-237.6c69.2-138.8,160.5-266.8,206.8-415.8
			c24.5-78.6,14.4-174.2-66.5-215.2C1093-26.9,1021-4,964.4,32.4C922,59.7,879.6,94.9,853.7,139.8c-31,53.7-21,101.8-8.5,158.9
			c8.5,38.9-2.1,73.1-6.7,110.8c-0.3,2.6,1.8,5,4.4,4.9l12.7-0.1c1.9,0,3.6-1.2,4.2-3c0.1-0.2,0.1-0.4,0.2-0.5
			c0.1-0.2,0.1-0.4,0.2-0.5c0.1-0.2,0.1-0.4,0.2-0.5c0.1-0.2,0.1-0.3,0.2-0.5c0-0.1,0-0.1,0.1-0.1c1.4-4.4,2.9-8.8,4.6-13
			c18.4-46.4,55.3-81.2,85.4-119.9c17-21.8,30.2-45.9,40.6-71.2l0,0c0,0,54.6-96.9,103.7-78.1c52.9,20.3,17.1,174.5-32.7,276.8
			c-2.1,4.2-4.3,8.3-6.5,12.4c-31.4,59.5-71.9,114.8-99.8,176C938.3,631,925.2,670,918.9,712c-4.6,30.4-3.8,61.1,4.8,90.7
			c63.4,217.6,352.7,187.5,510.8,113c28.3-13.4,72.4-33.7,126.5-67.3c216.8-134.8,292.5-356.9,292.5-356.9
			S1814.5,478.7,1738.3,466.7z"/>
	</g>
</g>
</svg>
