<?xml version="1.0"?>
<svg xmlns="http://www.w3.org/2000/svg" xmlns:xlink="http://www.w3.org/1999/xlink" xmlns:svgjs="http://svgjs.com/svgjs" version="1.1" width="512" height="512" x="0" y="0" viewBox="0 0 512 512" style="enable-background:new 0 0 512 512" xml:space="preserve" class=""><g>
<circle xmlns="http://www.w3.org/2000/svg" style="" cx="256" cy="256" r="256" fill="#f1f1f1" data-original="#7c00ff" class=""/>
<path xmlns="http://www.w3.org/2000/svg" style="" d="M512,256c0-23.976-3.305-47.178-9.469-69.185l-90.198-89.603l-312.667,74L246.89,318.436L117,408.333  L218.153,509.21C230.505,511.04,243.14,512,256,512C397.385,512,512,397.385,512,256z" fill="#f1f1f1" data-original="#6633cc" class=""/>
<rect xmlns="http://www.w3.org/2000/svg" x="117" y="147" style="" width="278" height="261.33" fill="#00edff" data-original="#00edff"/>
<g xmlns="http://www.w3.org/2000/svg">
	<rect x="255.56" y="147" style="" width="139.44" height="261.33" fill="#00c9ff" data-original="#00c9ff" class=""/>
	<rect x="139.5" y="240.67" style="" width="133.5" height="141" fill="#00c9ff" data-original="#00c9ff" class=""/>
</g>
<rect xmlns="http://www.w3.org/2000/svg" x="255.56" y="240.67" style="" width="17.444" height="141" fill="#00a2db" data-original="#00a2db"/>
<rect xmlns="http://www.w3.org/2000/svg" x="99.67" y="97.21" style="" width="312.67" height="74" fill="#00c9ff" data-original="#00c9ff" class=""/>
<rect xmlns="http://www.w3.org/2000/svg" x="255.56" y="97.21" style="" width="156.78" height="74" fill="#00a2db" data-original="#00a2db"/>
<circle xmlns="http://www.w3.org/2000/svg" style="" cx="256" cy="147" r="70" fill="#ffffff" data-original="#ffffff"/>
<path xmlns="http://www.w3.org/2000/svg" style="" d="M256,77c-0.149,0-0.296,0.01-0.444,0.011v139.978C255.704,216.99,255.851,217,256,217  c38.66,0,70-31.34,70-70S294.66,77,256,77z" fill="#f0f0f0" data-original="#f0f0f0"/>
<path xmlns="http://www.w3.org/2000/svg" style="" d="M230.532,115.19v2.701v9.473v37.798c-1.743-0.449-3.605-0.696-5.542-0.696  c-9.698,0-17.559,6.089-17.559,13.6s7.861,13.6,17.559,13.6c9.697,0,17.559-6.089,17.559-13.6v-54.185l38.005-11.014v38.321  c-1.743-0.449-3.605-0.696-5.542-0.696c-9.698,0-17.559,6.089-17.559,13.6s7.861,13.6,17.559,13.6s17.559-6.089,17.559-13.6v-54.708  v-5.467V97.21L230.532,115.19z" fill="#ff4545" data-original="#ff4545"/>
<path xmlns="http://www.w3.org/2000/svg" style="" d="M255.556,107.938v12.174l24.998-7.244v38.321c-1.743-0.449-3.605-0.696-5.542-0.696  c-9.698,0-17.559,6.089-17.559,13.6s7.861,13.6,17.559,13.6c9.697,0,17.559-6.089,17.559-13.6v-54.708v-5.467v-6.707  L255.556,107.938z" fill="#fc0023" data-original="#fc0023"/>
<path xmlns="http://www.w3.org/2000/svg" style="" d="M373.32,408.333h-80.75V266.375c0-22.298,18.076-40.375,40.375-40.375l0,0  c22.298,0,40.375,18.076,40.375,40.375V408.333z" fill="#00a2db" data-original="#00a2db"/>
<g xmlns="http://www.w3.org/2000/svg">
</g>
<g xmlns="http://www.w3.org/2000/svg">
</g>
<g xmlns="http://www.w3.org/2000/svg">
</g>
<g xmlns="http://www.w3.org/2000/svg">
</g>
<g xmlns="http://www.w3.org/2000/svg">
</g>
<g xmlns="http://www.w3.org/2000/svg">
</g>
<g xmlns="http://www.w3.org/2000/svg">
</g>
<g xmlns="http://www.w3.org/2000/svg">
</g>
<g xmlns="http://www.w3.org/2000/svg">
</g>
<g xmlns="http://www.w3.org/2000/svg">
</g>
<g xmlns="http://www.w3.org/2000/svg">
</g>
<g xmlns="http://www.w3.org/2000/svg">
</g>
<g xmlns="http://www.w3.org/2000/svg">
</g>
<g xmlns="http://www.w3.org/2000/svg">
</g>
<g xmlns="http://www.w3.org/2000/svg">
</g>
</g></svg>
