<?xml version="1.0" encoding="utf-8"?>
<svg version="1.1" id="Layer_1" xmlns="http://www.w3.org/2000/svg" xmlns:xlink="http://www.w3.org/1999/xlink" x="0px" y="0px"
	width="100px" height="100px" viewBox="0 0 66.7 66.7" style="enable-background:new 0 0 66.7 66.7;" xml:space="preserve">
<g>
	<circle style="fill:#E8E8E8;" cx="33.3" cy="33.3" r="33.3"/>
	<circle style="fill:#FFFFFF;" cx="33.3" cy="33.3" r="32.7"/>
	<g>
		<path style="fill:#482F92;" d="M10.3,33.3c0.5,0,0.9-0.4,0.9-0.9v-1.4H9.5v-2.8c-1.3,0.2-2.4,1.3-2.4,2.7v4.8
			c0,1.5,1.3,2.8,2.8,2.8h1.9v-1.4c0-0.5-0.4-0.9-0.9-0.9h-0.5c-0.5,0-0.9-0.4-0.9-0.9v-1.9C9.5,33.3,10.3,33.3,10.3,33.3z
			 M34.9,33.3c0.5,0,0.9-0.4,0.9-0.9v-1.4h-1.7v-2.8c-1.3,0.2-2.3,1.3-2.4,2.7v4.8c0,1.5,1.3,2.8,2.9,2.8h2v-1.4
			c0-0.5-0.4-0.9-0.9-0.9h-0.5c-0.5,0-1-0.4-1-0.9v-1.9C34.1,33.3,34.9,33.3,34.9,33.3z M19.7,33.7c0-1.5-1.3-2.8-2.8-2.8h-1.8
			c-1.5,0-2.9,1.2-2.9,2.7v2c0,1.5,1.3,2.8,2.9,2.8h3.7v-1.4c0-0.5-0.4-0.9-0.9-0.9H15c-0.1,0-0.3-0.1-0.3-0.3v-2.4
			c0-0.1,0.1-0.2,0.3-0.3h2.2c0.1,0.1,0.2,0.1,0.2,0.3v1.9h1.5c0.5,0,0.9-0.4,0.9-0.9L19.7,33.7L19.7,33.7z M44.3,33.7
			c0-1.5-1.2-2.8-2.7-2.8c0,0,0,0-0.1,0h-1.8c-1.5,0-2.8,1.2-2.8,2.7v2c0,1.5,1.2,2.8,2.7,2.8c0,0,0,0,0.1,0h3.7v-1.4
			c0-0.5-0.4-0.9-0.9-0.9h-2.9c-0.1,0-0.2-0.1-0.2-0.3v-2.4c0-0.1,0.1-0.2,0.2-0.3h2.2c0.1,0.1,0.3,0.1,0.3,0.3v1.9h1.4
			c0.5,0,0.9-0.4,0.9-0.9L44.3,33.7C44.3,33.7,44.3,33.7,44.3,33.7z M31,33.7c0-1.5-1.2-2.8-2.7-2.8c0,0,0,0-0.1,0h-1.8
			c-1.5,0-2.8,1.2-2.8,2.7v2c0,1.5,1.2,2.8,2.7,2.8c0,0,0,0,0.1,0h3.7v-1.4c0-0.5-0.4-0.9-0.9-0.9h-2.9c-0.1,0-0.2-0.1-0.2-0.3v-2.4
			c0-0.1,0.1-0.2,0.2-0.3h2.2c0.1,0.1,0.3,0.1,0.3,0.3v1.9h1.4c0.5,0,0.9-0.4,0.9-0.9L31,33.7C30.9,33.7,31,33.7,31,33.7z"/>
		<path style="fill:#482F92;" d="M20.4,30.9v7.7h1.5c0.5,0,0.9-0.4,0.9-0.9v-9.5C21.5,28.3,20.4,29.5,20.4,30.9 M57.9,33.3
			c0.5,0,0.9-0.4,0.9-0.9v-1.4h-1.7v-2.8c-1.3,0.2-2.3,1.3-2.3,2.7v4.8c0,1.5,1.2,2.8,2.7,2.8h2v-1.4c0-0.5-0.4-0.9-0.9-0.9h-0.5
			c-0.5,0-0.9-0.4-0.9-0.9v-1.9C57.2,33.3,57.9,33.3,57.9,33.3z"/>
		<path style="fill:#482F92;" d="M47.3,31.5c-0.2-0.4-0.6-0.7-1-0.5h-2l2.2,3.8l-2.2,3.8h2c0.4,0,0.8-0.2,1-0.6l1.9-3.2
			C49.2,34.7,47.3,31.5,47.3,31.5L47.3,31.5z M51.1,37.9c0.2,0.4,0.6,0.6,1,0.6h2l-2.2-3.8l2.2-3.8h-2c-0.4,0-0.8,0.2-1,0.5
			l-1.9,3.2L51.1,37.9z"/>
	</g>
</g>
</svg>
