<?xml version="1.0" encoding="utf-8"?>
<svg version="1.1" id="Layer_1" xmlns="http://www.w3.org/2000/svg" xmlns:xlink="http://www.w3.org/1999/xlink" x="0px" y="0px"
	width="100px" height="100px" viewBox="0 0 315 315" style="enable-background:new 0 0 315 315;" xml:space="preserve">
<g>
	<g>
		<path style="fill:#E8E8E8;" d="M157.5,0C244.5,0,315,70.5,315,157.5S244.5,315,157.5,315S0,244.5,0,157.5S70.5,0,157.5,0"/>
		<path style="fill:#FFFFFF;" d="M157.5,3.2c85.2,0,154.4,69.1,154.4,154.4s-69.1,154.4-154.4,154.4S3.2,242.7,3.2,157.5
			S72.3,3.2,157.5,3.2"/>
	</g>
	<g>
		<path style="fill:#FFFFFF;" d="M74,173h167v67.8H74V173z"/>
		<path style="fill:#03426A;" d="M74,74.2h167v104.6H74V74.2z"/>
		<path style="fill:#FFFFFF;" d="M111.3,153.8c0,4.5-2.4,6.7-7.8,6.7h-8.5v-16.9h8.3c6.5,0,8.1,3.2,8.1,6.7V153.8z M114.8,153.7
			v-2.9c0-9.2-7.3-9.6-12.1-9.6H91.4v21.8h12.2C113.2,163.1,114.8,157.9,114.8,153.7 M133.8,157.7c0,1.3-0.1,2.4-1.6,2.9
			c-0.9,0.3-2.1,0.4-4.1,0.4c-2,0-3.2-0.2-4-0.7c-0.5-0.3-0.7-0.8-0.7-1.8c0-1.3,0.3-2.1,1-2.4c0.6-0.3,1.4-0.4,3.9-0.4h5.4V157.7
			C133.8,157.7,133.8,157.7,133.8,157.7z M137.1,163.1v-8.6l-0.1-3.6c-0.2-0.9-0.4-1.5-1.1-2c-1.6-1.2-5.5-1.3-7.4-1.3
			c-1.5,0-5.4,0.2-6.9,1.4c-0.5,0.4-0.6,0.9-0.6,1.5c0,0.4,0.1,0.9,0.1,1.6h3.2c0.1-0.4,0.1-1.3,0.5-1.7c0.4-0.4,1.2-0.6,3.4-0.6
			c2.5,0,4.3,0.1,5,0.5c0.7,0.4,0.7,1.2,0.7,1.8v1.5h-7.4c-2,0-4.3,0.1-5.6,1.8c-0.6,0.7-0.8,1.7-0.8,2.9c0,3.6,2.2,4.8,8,4.8
			c3,0,4.9-0.5,6.1-1.5l0.3,1.3L137.1,163.1 M157,163.1v-8.4c0-2.9-0.1-3.5-0.8-4c-0.7-0.5-2-0.8-4-0.8c-1.8,0-3.6,0.2-5.3,0.7V163
			h-3.3v-15.3h2.9l0.2,1.1c0.7-0.4,1.2-0.6,1.8-0.8c1.1-0.3,2.5-0.5,4.3-0.5c2.1,0,3.7,0.3,5,0.9c1.2,0.5,1.9,1.5,2.1,2.7
			c0.2,0.8,0.2,1.5,0.2,3.2v8.7L157,163.1 M181.3,162.1c-1.5,0.8-4,1.1-7.2,1.1c-2.2,0-4.1-0.2-5.5-0.6c-1.5-0.4-2.3-1.1-2.4-2.4
			c-0.1-0.7,0-1.3,0.1-2.1h3.2l0.1,1.2c0.1,0.7,0.1,1.1,0.9,1.4c0.8,0.2,2.1,0.4,3.8,0.4c2.1,0,3.5-0.2,4.5-0.7c0.7-0.3,1-0.9,1-1.9
			c0-1.2-0.2-1.7-1.5-1.9c-0.4-0.1-0.8-0.1-1.2-0.1c-0.2,0-0.9,0-2.1-0.1c-0.6,0-1.2-0.1-1.9-0.1c-3.3-0.2-6.7-0.3-6.7-4.1
			c0-3.5,2.1-4.7,8-4.7c1.5,0,2.9,0.1,4.4,0.2c1.3,0.2,2.2,0.4,2.9,0.8c0.8,0.4,1,1.1,1,2.3l-0.1,1.2h-3.2l-0.1-0.7
			c-0.2-0.8-0.2-1-0.5-1.2c-0.5-0.4-1.9-0.5-3.9-0.5c-2,0-3.1,0.1-4,0.4c-0.9,0.3-1.2,0.9-1.2,2c0,0.7,0.3,1.3,0.6,1.5
			c0.9,0.5,5.4,0.5,6.9,0.5c1.7,0,2.7,0.2,3.7,0.5c1.7,0.6,2.3,1.7,2.3,3.9C183.2,160.3,182.7,161.4,181.3,162.1 M201.5,163.1
			l-7.9-7.2h-1.2v7.2h-3.3v-21.8h3.3v12.4h1.2l6.5-5.9h3.9l-7.6,6.7l9.5,8.6L201.5,163.1 M222.2,153.9h-10.5
			c0.1-1.9,0.5-2.8,1.3-3.3c0.8-0.6,2.2-0.8,4.2-0.8c2.9,0,4.2,0.6,4.7,2C222,152.3,222.2,152.8,222.2,153.9L222.2,153.9z
			 M225.2,158.3H222c-0.1,0.5-0.2,1.7-0.6,2.1c-0.5,0.5-1.5,0.7-4.1,0.7c-2.6,0-4-0.4-4.8-1.1c-0.6-0.6-0.9-1.7-0.9-3.5v-0.4h13.7
			l0.1-1.5c0-2.5-0.4-3.9-1.5-5c-1.2-1.3-3.6-1.9-6.9-1.9c-4.2,0-6.8,1-7.9,3.1c-0.6,1.2-1,2.9-1,5c0,3.3,0.9,5.4,2.8,6.5
			c1.2,0.7,3.3,1,6,1.1c2.2,0,4-0.1,6-0.7c1.9-0.6,2.4-1.7,2.4-2.6L225.2,158.3"/>
		<path style="fill:#03426A;" d="M131.5,201.9c0,3.3-1.8,3.9-5.6,3.9h-8.4v-7h8.8C129.7,198.9,131.5,199.2,131.5,201.9L131.5,201.9
			L131.5,201.9z M135.9,212.2c0-2.7-1.6-4.7-5.3-5.3v-0.1c2.9-0.8,4.4-2.3,4.4-4.6c0-3.9-1.9-5.9-7.3-5.9H114v22.1h14.4
			C133.2,218.5,135.9,216.3,135.9,212.2C135.9,212.2,135.9,212.2,135.9,212.2z M132.3,212.5c0,3.1-2.2,3.4-5.7,3.4h-9.1v-7.6h9.6
			C131.2,208.4,132.3,209.7,132.3,212.5 M153.9,213c0,1.3-0.1,2.4-1.6,3c-0.9,0.3-2.1,0.4-4.1,0.4s-3.3-0.2-4-0.7
			c-0.5-0.3-0.7-0.8-0.7-1.9c0-1.3,0.3-2.1,1-2.4c0.6-0.3,1.4-0.4,3.9-0.4h5.4L153.9,213L153.9,213z M157.3,218.5v-8.7l-0.1-3.6
			c-0.2-0.9-0.4-1.5-1.1-2c-1.6-1.3-5.6-1.3-7.5-1.3c-1.5,0-5.5,0.2-7,1.4c-0.5,0.4-0.6,0.9-0.6,1.5c0,0.4,0.1,0.9,0.1,1.6h3.3
			c0.1-0.4,0.1-1.3,0.5-1.7c0.4-0.4,1.2-0.6,3.4-0.6c2.6,0,4.3,0.1,5.1,0.5c0.7,0.4,0.6,1.2,0.6,1.9v1.5h-7.5c-2,0-4.4,0.1-5.6,1.8
			c-0.6,0.8-0.8,1.7-0.8,3c0,3.7,2.3,4.9,8,4.9c3,0,5-0.5,6.2-1.5l0.3,1.3H157.3 M176.6,218.5V210c0-2.9-0.1-3.5-0.8-4.1
			c-0.7-0.5-2-0.8-4-0.8c-1.8,0-3.6,0.2-5.3,0.7v12.6h-3.3V203h3l0.3,1.1c0.6-0.4,1.1-0.6,1.9-0.8c1.1-0.3,2.5-0.5,4.3-0.5
			c2.1,0,3.8,0.3,5,0.9c1.2,0.5,1.9,1.5,2.2,2.7c0.2,0.8,0.2,1.5,0.2,3.3v8.8L176.6,218.5 M198.1,218.5l-8-7.3H189v7.3h-3.3v-22.1
			h3.3v12.6h1.2l6.6-5.9h3.9l-7.7,6.8l9.6,8.6H198.1"/>
	</g>
</g>
</svg>
