<?xml version="1.0" encoding="utf-8"?>
<svg version="1.1" id="Layer_1" xmlns="http://www.w3.org/2000/svg" xmlns:xlink="http://www.w3.org/1999/xlink" x="0px" y="0px"
	 viewBox="0 0 56.9 8.4" style="enable-background:new 0 0 56.9 8.4;" xml:space="preserve">
<g>
	<path style="fill:#ABABAB;" d="M48.7,6.9V6.3h0.4v0.5H48.7z M50.9,5.3c0-0.3-0.3-0.6-0.6-0.6c-0.5,0-0.8,0.5-0.8,0.9
		c0,0.5,0.3,0.9,0.8,0.9c0.4,0,0.6-0.3,0.6-0.6h0.3c-0.1,0.6-0.4,0.9-0.9,0.9c-0.6,0-1.1-0.6-1.1-1.2c0-0.6,0.4-1.2,1.1-1.2
		c0.4,0,0.9,0.3,0.9,0.8l0,0H50.9z M53.5,5.7c0,0.6-0.4,1.2-1.1,1.2c-0.6,0-1.1-0.6-1.1-1.2c0-0.6,0.4-1.2,1.1-1.2
		C53,4.5,53.5,5.1,53.5,5.7z M51.6,5.7c0,0.5,0.3,0.9,0.8,0.9c0.5,0,0.8-0.5,0.8-0.9c0-0.5-0.3-0.9-0.8-0.9
		C51.9,4.8,51.6,5.2,51.6,5.7z M53.8,4.6H54V5l0,0c0.1-0.2,0.4-0.4,0.7-0.4c0.3,0,0.6,0.1,0.6,0.4c0.1-0.3,0.4-0.4,0.7-0.4
		c0.5,0,0.7,0.3,0.7,0.8v1.5h-0.2V5.3c0-0.4-0.1-0.6-0.6-0.6c-0.5,0-0.6,0.4-0.6,0.8v1.3h-0.2V5.3c0-0.3-0.1-0.6-0.5-0.6
		c-0.5,0-0.6,0.4-0.6,0.8v1.2h-0.3C53.8,6.8,53.8,4.6,53.8,4.6z"/>
	<path style="fill:#323031;" d="M0,1.5h1.4v2h1.9v-2h1.4v5.4H3.3V4.7H1.4v2.2H0C0,6.9,0,1.5,0,1.5z M9.1,6.9H7.8V6.3l0,0
		C7.5,6.9,7.1,7,6.6,7C5.5,7,5.2,6.3,5.2,5.3V3h1.2v2.2C6.3,5.8,6.6,6,7,6c0.3,0,0.7-0.1,0.7-0.9V3H9L9.1,6.9L9.1,6.9z M13.4,6.5
		c0,0.6-0.1,1.9-1.9,1.9c-0.9,0-1.8-0.2-1.9-1.2h1.3c0,0.2,0.1,0.3,0.2,0.4c0.1,0.1,0.3,0.1,0.4,0.1c0.6,0,0.6-0.4,0.6-0.9V6.3l0,0
		c-0.2,0.4-0.6,0.6-1,0.6C9.9,6.9,9.4,6.1,9.4,5c0-1,0.6-1.9,1.7-1.9c0.4,0,0.9,0.1,1.1,0.6l0,0V3.2h1.2C13.4,3,13.4,6.5,13.4,6.5z
		 M11.4,3.9c-0.6,0-0.7,0.5-0.7,1c0,0.4,0.2,0.9,0.7,0.9c0.6,0,0.8-0.4,0.8-0.9C12.2,4.3,12,3.9,11.4,3.9L11.4,3.9z M15,5.3
		c0,0.5,0.4,0.9,0.9,0.9c0.3,0,0.6-0.2,0.7-0.4h1.2c-0.2,0.8-1.1,1.3-1.9,1.3c-1.3,0-2.2-0.8-2.2-2.1c0-1.2,0.9-2.1,2-2.1h0.1
		c1.4,0,2.1,1.1,2,2.4C17.8,5.3,15,5.3,15,5.3z M16.6,4.6c0-0.5-0.4-0.8-0.8-0.8S15.1,4.2,15,4.6C15,4.6,16.6,4.6,16.6,4.6z"/>
	<path style="fill:#557CBE;" d="M18.2,1.4h2.4c1.7,0,2.7,1,2.7,2.7c0,1.8-1,2.7-2.7,2.7h-2.4V1.4z M19.6,5.6h0.7
		c1.1-0.1,1.5-0.5,1.5-1.6c0-1-0.5-1.5-1.5-1.5h-0.7C19.6,2.5,19.6,5.6,19.6,5.6z M25.5,2.8c1.1,0,2,0.9,2.1,1.9v0.1
		c0,1.2-0.9,2.1-2.1,2.1S23.4,6,23.4,4.8c0-1.1,0.8-2,1.9-2.1L25.5,2.8L25.5,2.8z M25.5,5.9c0.6,0,0.8-0.6,0.8-1.1S26,3.8,25.5,3.8
		c-0.6,0-0.8,0.6-0.8,1.1S24.9,5.9,25.5,5.9L25.5,5.9z M27.8,3H29v0.4h0.1c0.2-0.4,0.6-0.6,1.2-0.6c0.5,0,0.9,0.1,1.2,0.6
		c0.3-0.4,0.7-0.6,1.2-0.6c1.2,0,1.4,0.9,1.4,1.7v2.4h-1.3V4.5c0-0.4-0.2-0.6-0.6-0.6c-0.6,0-0.6,0.4-0.6,1.1v1.9h-1.3V4.7
		c0-0.4-0.1-0.7-0.4-0.7c-0.4,0-0.6,0.3-0.6,1.1V7h-1.3L27.8,3L27.8,3L27.8,3z M34.4,4.1c0-0.4,0.2-0.9,0.6-1.1
		c0.4-0.2,0.8-0.3,1.2-0.3C37.2,2.7,38,3,38,4v1.7c0,0.4,0.1,0.6,0.1,1h-1.3c0-0.1-0.1-0.2-0.1-0.4c-0.4,0.4-0.8,0.5-1.3,0.5
		c-0.7,0-1.3-0.4-1.3-1.2c0-1.3,1.4-1.2,2.3-1.4c0.2-0.1,0.4-0.1,0.4-0.4c0-0.3-0.4-0.4-0.6-0.4c-0.4,0-0.6,0.1-0.6,0.5
		C35.6,4.1,34.4,4.1,34.4,4.1L34.4,4.1z M36.1,6.1c0.6,0,0.8-0.4,0.8-1.2c-0.1,0.1-0.5,0.1-0.8,0.2s-0.5,0.2-0.5,0.5
		C35.6,6,35.8,6.1,36.1,6.1L36.1,6.1z M38.7,3H40v3.9h-1.3C38.7,6.9,38.7,3,38.7,3z M40.5,3h1.2v0.4h0.1C42.1,3,42.5,2.7,43,2.7
		c1.3,0,1.4,0.9,1.4,1.5v2.5h-1.3V4.9c0-0.5,0.1-1.1-0.6-1.1c-0.5,0-0.6,0.4-0.6,0.9v2.2h-1.3L40.5,3L40.5,3z M46,5.6
		C46,5.7,46,5.9,46.2,6c0.1,0.1,0.3,0.1,0.5,0.1s0.6-0.1,0.6-0.4c0-0.3-0.4-0.4-0.6-0.4c-0.8-0.2-1.8-0.2-1.8-1.3
		c0-0.9,1-1.2,1.8-1.2c0.9,0,1.7,0.3,1.8,1.2h-1.2c0-0.1-0.1-0.2-0.1-0.3c-0.1-0.1-0.3-0.1-0.4-0.1c-0.2,0-0.6,0-0.6,0.3
		c0,0.4,0.9,0.4,1.4,0.6c0.8,0.1,1,0.7,1,1.1c0,1.1-1,1.4-1.9,1.4c-0.9,0-1.9-0.3-1.9-1.4C44.7,5.6,46,5.6,46,5.6z"/>
	<path style="fill:#323031;" d="M38.1,1.2l1.2,1.4L41.6,0l-2.2,1.7C39.3,1.7,38.1,1.2,38.1,1.2z"/>
</g>
</svg>
