<?xml version="1.0"?>
<svg xmlns="http://www.w3.org/2000/svg" xmlns:xlink="http://www.w3.org/1999/xlink" xmlns:svgjs="http://svgjs.com/svgjs" version="1.1" width="512" height="512" x="0" y="0" viewBox="0 0 512 512" style="enable-background:new 0 0 512 512" xml:space="preserve" class=""><g><g xmlns="http://www.w3.org/2000/svg"><circle cx="256" cy="256" fill="#f1f1f1" r="256" data-original="#f4d752" style="" class=""/><path d="m511.964 258.839-152.839-152.839-206.25 131.25h-20.125l-18-18.75-18.75 56.25 14 13.844-14 117.406 98.56 98.56c19.685 4.85 40.259 7.44 61.44 7.44 140.436 0 254.44-113.086 255.964-253.161z" fill="#f1f1f1" data-original="#eabd3e" style="" class=""/><g><path d="m359.125 106v112.5l-103.125 33.75-103.125-33.75v-112.5z" fill="#f2f7ff" data-original="#f2f7ff" style="" class=""/><path d="m359.125 106v112.5l-103.125 33.75v-146.25z" fill="#e0e6f3" data-original="#e0e6f3" style="" class=""/><g><path d="m105.375 237.25h56.875v18.75h-56.875z" fill="#4e5a61" data-original="#4e5a61" style="" class=""/></g><g><g><path d="m349.75 237.25h56.875v18.75h-56.875z" fill="#424b52" data-original="#424b52" style="" class=""/></g></g><g><path d="m96 218.5h18.75v56.25h-18.75z" fill="#6e7b84" data-original="#6e7b84" style="" class=""/></g><g><path d="m397.25 218.5h18.75v56.25h-18.75z" fill="#4e5a61" data-original="#4e5a61" style="" class=""/></g><g><path d="m359.125 260.325v-41.825h-49.981c-15.031 11.05-34.481 18.75-53.144 18.75-18.544 0-38.025-7.725-53.144-18.75h-49.981v41.825l-56.875 37.5v108.175h320v-108.175z" fill="#e06426" data-original="#e06426" style="" class=""/></g><path d="m416 297.825v108.175h-160v-168.75c18.663 0 38.112-7.7 53.144-18.75h49.981v41.825z" fill="#cf3b0e" data-original="#cf3b0e" style="" class=""/><g><path d="m152.875 312.25h37.5v18.75h-37.5z" fill="#4e5a61" data-original="#4e5a61" style="" class=""/></g><g><path d="m209.125 312.25h37.5v18.75h-37.5z" fill="#4e5a61" data-original="#4e5a61" style="" class=""/></g><g><path d="m265.375 312.25h37.5v18.75h-37.5z" fill="#424b52" data-original="#424b52" style="" class=""/></g><g><path d="m321.625 312.25h37.5v18.75h-37.5z" fill="#424b52" data-original="#424b52" style="" class=""/></g><g><path d="m152.875 349.75h37.5v18.75h-37.5z" fill="#4e5a61" data-original="#4e5a61" style="" class=""/></g><g><path d="m209.125 349.75h37.5v18.75h-37.5z" fill="#4e5a61" data-original="#4e5a61" style="" class=""/></g><g><path d="m265.375 349.75h37.5v18.75h-37.5z" fill="#424b52" data-original="#424b52" style="" class=""/></g><g><path d="m321.625 349.75h37.5v18.75h-37.5z" fill="#424b52" data-original="#424b52" style="" class=""/></g><g><path d="m190.375 143.5h131.25v18.75h-131.25z" fill="#6e7b84" data-original="#6e7b84" style="" class=""/></g><g><path d="m190.375 181h131.25v18.75h-131.25z" fill="#6e7b84" data-original="#6e7b84" style="" class=""/></g><g fill="#4e5a61"><path d="m256 143.5h65.625v18.75h-65.625z" fill="#4e5a61" data-original="#4e5a61" style="" class=""/><path d="m256 181h65.625v18.75h-65.625z" fill="#4e5a61" data-original="#4e5a61" style="" class=""/></g></g></g></g></svg>
