<?xml version="1.0" encoding="utf-8"?>
<svg version="1.1" id="Layer_1" xmlns="http://www.w3.org/2000/svg" xmlns:xlink="http://www.w3.org/1999/xlink" x="0px" y="0px"
	 viewBox="0 0 923.08 102.98" style="enable-background:new 0 0 923.08 102.98;" xml:space="preserve">
<g>
	<path style="fill:#E0341E;" d="M0,2.16h39.26v98.67H0V2.16z M93.87,102.98V0l66.51,39.39V0h37.56v102.98L133.03,63.6v39.38H93.87z
		 M293.98,72.22h9.74c0,0,17.03-0.54,17.03-21c0-20.45-16.47-21.08-16.47-21.08h-10.31V72.22z M253.65,102.98V0h58.57
		c0,0,48.34,3.23,48.34,51.22s-51.17,51.76-51.17,51.76H253.65z M410.07,2.16h39.26v98.67h-39.26V2.16z M501.65,0h102.36v30.68
		h-33.58v72.3h-36.98v-72.3h-31.8V0z M657.49,0h90.36v25.3h-52.89v15.16h41.53v21h-41.53v15.06h54.03v26.46h-91.5V0z M797.91,0
		h44.94l17.11,25.84L878.13,0h44.95l-38.7,51.22l38.14,51.76h-43.81l-19.29-25.92l-16.56,25.92h-44.94l39.26-51.76L797.91,0z"/>
</g>
</svg>
