<?xml version="1.0"?>
<svg xmlns="http://www.w3.org/2000/svg" xmlns:xlink="http://www.w3.org/1999/xlink" xmlns:svgjs="http://svgjs.com/svgjs" version="1.1" width="512" height="512" x="0" y="0" viewBox="0 0 512 512" style="enable-background:new 0 0 512 512" xml:space="preserve" class=""><g>
<path xmlns="http://www.w3.org/2000/svg" style="" d="M504.206,193.111C476.174,82.135,375.683,0,256,0C114.615,0,0,114.616,0,256  c0,112.463,72.521,207.981,173.349,242.357L504.206,193.111z" fill="#f1f1f1" data-original="#a3dbff" class=""/>
<path xmlns="http://www.w3.org/2000/svg" style="" d="M512,256c0-21.701-2.711-42.768-7.794-62.889L375.652,64.557L89.043,414.052l84.305,84.305  C199.278,507.198,227.078,512,256,512C397.385,512,512,397.384,512,256z" fill="#f1f1f1" data-original="#4eb9ff" class=""/>
<rect xmlns="http://www.w3.org/2000/svg" x="77.913" y="169.183" style="" width="66.783" height="22.261" fill="#9da6ac" data-original="#9da6ac" class=""/>
<rect xmlns="http://www.w3.org/2000/svg" x="367.304" y="169.183" style="" width="66.783" height="22.261" fill="#7c8e99" data-original="#7c8e99"/>
<rect xmlns="http://www.w3.org/2000/svg" x="66.783" y="146.922" style="" width="22.261" height="66.783" fill="#174461" data-original="#174461" class=""/>
<rect xmlns="http://www.w3.org/2000/svg" x="422.957" y="146.922" style="" width="22.261" height="66.779" fill="#092a40" data-original="#092a40"/>
<rect xmlns="http://www.w3.org/2000/svg" x="111.304" y="146.922" style="" width="289.391" height="115.311" fill="#235c81" data-original="#235c81" class=""/>
<polygon xmlns="http://www.w3.org/2000/svg" style="" points="256,64.557 189.217,235.969 353.391,235.969 375.652,169.186 375.652,64.557 " fill="#fff5d9" data-original="#fff5d9"/>
<polygon xmlns="http://www.w3.org/2000/svg" style="" points="136.348,64.557 136.348,169.186 158.609,258.229 256,258.229 256,64.557 " fill="#ffffff" data-original="#ffffff" class=""/>
<polygon xmlns="http://www.w3.org/2000/svg" style="" points="375.652,169.186 375.652,224.839 353.391,224.839 353.391,191.447 256,191.447   244.87,180.316 256,169.186 " fill="#7c8e99" data-original="#7c8e99"/>
<polygon xmlns="http://www.w3.org/2000/svg" style="" points="136.348,169.186 136.348,224.838 158.609,224.838 158.609,191.447 256,191.447 256,169.186   " fill="#9da6ac" data-original="#9da6ac" class=""/>
<polygon xmlns="http://www.w3.org/2000/svg" style="" points="422.957,213.704 422.957,302.748 211.101,347.27 211.478,247.096 322.783,213.704 " fill="#ff755c" data-original="#ff755c" class=""/>
<polygon xmlns="http://www.w3.org/2000/svg" style="" points="256,369.53 89.043,302.748 89.043,213.704 189.217,213.704 256,247.096 " fill="#ff9356" data-original="#ff9356" class=""/>
<path xmlns="http://www.w3.org/2000/svg" style="" d="M256,213.704l-23.229,33.391L256,280.487c36.883,0,66.783-29.9,66.783-66.783H256z" fill="#ffce47" data-original="#ffce47"/>
<path xmlns="http://www.w3.org/2000/svg" style="" d="M189.217,213.704c0,36.883,29.9,66.783,66.783,66.783v-66.783H189.217z" fill="#ffe290" data-original="#ffe290"/>
<polygon xmlns="http://www.w3.org/2000/svg" style="" points="256,302.748 222.043,358.4 256,414.052 422.957,414.052 422.957,302.748 " fill="#ff4181" data-original="#ff4181" class=""/>
<rect xmlns="http://www.w3.org/2000/svg" x="89.043" y="302.748" style="" width="166.957" height="111.304" fill="#ff755c" data-original="#ff755c" class=""/>
<polygon xmlns="http://www.w3.org/2000/svg" style="" points="256,325.009 226.57,336.139 256,347.27 400.696,347.27 400.696,325.009 " fill="#ffebb4" data-original="#ffebb4" class=""/>
<rect xmlns="http://www.w3.org/2000/svg" x="111.304" y="325.009" style="" width="144.696" height="22.261" fill="#ffffff" data-original="#ffffff" class=""/>
<polygon xmlns="http://www.w3.org/2000/svg" style="" points="256,369.53 226.57,380.661 256,391.791 367.304,391.791 367.304,369.53 " fill="#ffebb4" data-original="#ffebb4" class=""/>
<rect xmlns="http://www.w3.org/2000/svg" x="144.696" y="369.53" style="" width="111.304" height="22.261" fill="#ffffff" data-original="#ffffff" class=""/>
<rect xmlns="http://www.w3.org/2000/svg" x="244.87" y="105.739" style="" width="22.261" height="22.261" fill="#45a2e0" data-original="#45a2e0"/>
<rect xmlns="http://www.w3.org/2000/svg" x="200.348" y="105.739" style="" width="22.261" height="22.261" fill="#ffd86c" data-original="#ffd86c"/>
<rect xmlns="http://www.w3.org/2000/svg" x="289.391" y="105.739" style="" width="22.261" height="22.261" fill="#ff4181" data-original="#ff4181" class=""/>
<g xmlns="http://www.w3.org/2000/svg">
</g>
<g xmlns="http://www.w3.org/2000/svg">
</g>
<g xmlns="http://www.w3.org/2000/svg">
</g>
<g xmlns="http://www.w3.org/2000/svg">
</g>
<g xmlns="http://www.w3.org/2000/svg">
</g>
<g xmlns="http://www.w3.org/2000/svg">
</g>
<g xmlns="http://www.w3.org/2000/svg">
</g>
<g xmlns="http://www.w3.org/2000/svg">
</g>
<g xmlns="http://www.w3.org/2000/svg">
</g>
<g xmlns="http://www.w3.org/2000/svg">
</g>
<g xmlns="http://www.w3.org/2000/svg">
</g>
<g xmlns="http://www.w3.org/2000/svg">
</g>
<g xmlns="http://www.w3.org/2000/svg">
</g>
<g xmlns="http://www.w3.org/2000/svg">
</g>
<g xmlns="http://www.w3.org/2000/svg">
</g>
</g></svg>
