<?xml version="1.0" encoding="utf-8"?>
<svg version="1.1" id="Layer_1" xmlns="http://www.w3.org/2000/svg" xmlns:xlink="http://www.w3.org/1999/xlink" x="0px" y="0px"
	width="100px" height="100px" viewBox="0 0 374.1 374.1" style="enable-background:new 0 0 374.1 374.1;" xml:space="preserve">
<g>
	<circle style="fill:#E8E8E8;" cx="187.1" cy="187.1" r="187.1"/>
	<circle style="fill:#FFFFFF;" cx="187.1" cy="187.1" r="183.3"/>
	<path style="fill:#1D1D1B;" d="M46,200.5v-0.7c1.1,0,1.9-0.4,2.2-1.1c0.4-0.7,1.5-2.6,2.6-5.6l8.6-19.8h0.4L70,196.4
		c0.7,1.5,1.5,2.6,1.9,3c0.7,0.4,1.1,0.7,2.2,0.7v0.7H63.6v-0.7c1.1,0,1.9,0,2.2-0.4c0.4,0,0.4-0.4,0.4-1.1c0,0,0-0.4,0-1.1
		c0-0.4-0.4-1.1-0.7-1.5l-1.5-3.7H53.5l-1.9,4.9c0,0.7-0.4,1.1-0.4,1.5c0,0.7,0.4,1.1,0.7,1.5c0.4,0,0.7,0.4,1.9,0.4v0.7L46,200.5
		L46,200.5z M63.2,190.1l-4.9-11.2l-4.9,11.2C53.9,190.1,63.2,190.1,63.2,190.1z M83.1,199.8c1.1,0,2.2-0.4,2.6-0.7
		c0.4-0.4,0.4-1.1,0.4-3v-18c0-1.5,0-2.2-0.7-3c-0.4-0.4-1.1-0.7-3-0.7v-1.1h11.6v1.1c-1.1,0-2.6,0.4-3,0.7
		c-0.4,0.4-0.7,1.1-0.7,2.6v19.5c0,0.4,0,0.7,0.4,1.1c0,0.4,0.4,0.4,1.1,0.4c0.4,0,0.7,0,1.1,0h1.9c3.7,0,6-0.4,7.5-0.7
		c1.5-0.4,2.6-2.2,3.7-4.5h1.1l-2.2,7.1H83.1V199.8z M116,199.8c1.1,0,2.2-0.4,2.6-0.7c0.4-0.4,0.4-1.1,0.4-3v-18c0-1.5,0-2.2-0.7-3
		c-0.4-0.4-1.1-0.7-3-0.7v-1.1h12v1.1c-1.1,0-2.6,0.4-3,0.7c-0.4,0.7-0.7,1.5-0.7,3v19.5c0,0.4,0,0.7,0.4,1.1c0,0.4,0.4,0.4,1.1,0.4
		c0.4,0,0.7,0,1.1,0h1.9c3.7,0,6-0.4,7.5-0.7c1.1-0.7,2.6-2.2,3.7-4.5h1.1l-1.9,6.7H116C116,200.5,116,199.8,116,199.8z
		 M151.1,192.7c0.7,1.9,1.5,3.4,2.2,4.5c1.5,1.9,3.7,3,6,3c1.1,0,2.2-0.4,3.4-1.1c0.7-0.7,1.5-1.9,1.5-3.4c0-1.1-0.4-2.6-1.5-3.4
		c-0.7-0.7-1.9-1.5-3.7-3l-3.4-2.2c-1.1-0.7-1.9-1.1-2.6-1.9c-1.1-1.1-1.9-2.6-1.9-4.1c0-1.9,0.7-3.7,1.9-5.2c1.1-1.5,3-1.9,5.2-1.9
		c0.7,0,1.9,0,3.4,0.7c1.1,0.4,1.9,0.7,2.2,0.7c0.4,0,0.7,0,1.1-0.4l0.4-0.7h0.7l0.7,8.6h-0.7c-0.7-2.6-1.9-4.5-3-5.6
		c-1.5-1.1-3-1.5-4.5-1.5c-1.1,0-1.9,0.4-3,1.1c-0.7,0.7-1.1,1.5-1.1,2.6c0,1.1,0.4,1.9,0.7,2.6c0.7,0.7,1.5,1.5,3,2.2l3.7,2.2
		c2.2,1.5,3.7,2.6,4.9,3.7c0.7,1.1,1.5,2.6,1.5,4.1c0,2.2-0.7,3.7-2.2,5.2c-1.5,1.5-3.7,2.2-6,2.2c-1.1,0-2.6-0.4-3.7-0.7l-3-1.9
		c-0.4,0-0.7,0-0.7,0.4c0,0.4-0.4,0.7-0.4,0.7h-0.7l-1.1-8.6h1.1L151.1,192.7L151.1,192.7L151.1,192.7z M179.6,200.5v-0.7
		c1.1,0,1.9-0.4,2.2-1.1c0.4-0.7,1.5-2.6,2.6-5.6l8.6-19.8h0.7l10.1,23.2c0.7,1.5,1.5,2.6,1.5,3c0.7,0.4,0.7,0.7,2.2,0.7v0.7h-10.5
		v-0.7c1.1,0,1.9,0,2.2-0.4c0.4,0,0.4-0.4,0.4-1.1c0,0,0-0.4,0-1.1c0-0.4-0.4-1.1-0.7-1.5l-1.5-3.7h-10.5l-1.9,4.9
		c0,0.7-0.4,1.1-0.4,1.5c0,0.7,0.4,1.1,0.7,1.5c0.4,0,0.7,0.4,1.9,0.4v0.7L179.6,200.5L179.6,200.5z M197.2,190.1l-4.9-11.2
		l-4.9,11.2H197.2z M217,199.8c1.9,0,3-0.4,3.4-0.7c0.4-0.4,1.1-1.5,1.1-3v-18c0-1.5-0.4-2.6-1.1-3c-0.4-0.4-1.5-0.7-3.4-0.7v-0.7
		h12.3v1.1c-1.9,0-3,0.4-3.4,0.7c-0.4,0.4-1.1,1.5-1.1,3v18c0,1.5,0.4,2.6,1.1,3c0.4,0.4,1.5,0.7,3.4,0.7v0.4H217
		C217,200.5,217,199.8,217,199.8z M238.7,199.8c1.9,0,3-0.7,3.4-1.1c0.4-0.7,0.7-1.9,0.7-4.1v-18l-0.7-0.7c-0.7-0.7-1.1-1.1-1.5-1.1
		c-0.7,0-1.5-0.4-1.9-0.4v-1.1h7.1l15.7,19.5v-13.1c0-2.2-0.4-3.7-0.7-4.5c-0.4-0.4-1.5-0.7-2.6-0.7v-0.7h9.7v1.1
		c-1.9,0-2.6,0.4-3.4,1.1c-0.4,0.7-1.1,1.9-1.1,4.1v21.3H263l-18-22.4v15.7c0,2.2,0.4,3.7,0.7,4.5c0.4,0.4,1.5,0.7,2.6,0.7v0.4h-9.4
		v-0.7L238.7,199.8L238.7,199.8z M276.5,173.6h22.8v7.5h-0.7c-0.4-2.6-1.1-3.7-1.9-4.5c-0.7-0.7-2.2-1.1-4.5-1.1h-2.6v21
		c0,1.5,0.4,2.6,1.1,3c0.4,0.4,1.5,0.7,3.4,0.7v0.4h-12.3v-0.4c1.9,0,3-0.4,3.4-0.7c0.4-0.4,0.7-1.5,0.7-3.4v-20.6h-2.6
		c-2.2,0-3.7,0-4.5,0.7c-0.7,0.7-1.5,2.2-1.9,4.1h-0.7L276.5,173.6L276.5,173.6z M311.3,192.7c0.7,1.9,1.5,3.4,2.2,4.5
		c1.5,1.9,3.7,3,6,3c1.1,0,2.2-0.4,3.4-1.1c0.7-0.7,1.5-1.9,1.5-3.4c0-1.1-0.4-2.6-1.5-3.4c-0.7-0.7-1.9-1.5-3.7-3l-3.4-2.2
		c-1.1-0.7-1.9-1.1-2.6-1.9c-1.1-1.1-1.9-2.6-1.9-4.1c0-1.9,0.7-3.7,1.9-5.2c1.5-1.5,3-1.9,5.2-1.9c0.7,0,1.9,0,3.4,0.7
		c1.1,0.4,1.9,0.7,2.2,0.7c0.4,0,0.7,0,1.1-0.4l0.4-0.7h0.7l0.7,8.6h-0.7c-0.7-2.6-1.9-4.5-3-5.6c-1.1-1.1-3-1.5-4.5-1.5
		c-1.1,0-1.9,0.4-3,1.1c-0.7,0.7-1.1,1.5-1.1,2.6c0,1.1,0.4,1.9,0.7,2.6c0.7,0.7,1.5,1.5,3,2.2l3.7,2.2c2.2,1.5,3.7,2.6,4.9,3.7
		c1.1,1.1,1.5,2.6,1.5,4.1c0,2.2-0.7,3.7-2.2,5.2s-3.7,2.2-6,2.2c-1.1,0-2.6-0.4-3.7-0.7l-2.2-0.7c-0.4,0-0.7,0-0.7,0.4
		c0,0.4-0.4,0.7-0.4,0.7h-0.7l-1.1-8.6h1.1L311.3,192.7L311.3,192.7L311.3,192.7z"/>
</g>
</svg>
