<?xml version="1.0" encoding="utf-8"?>
<svg version="1.1" id="Layer_1" xmlns="http://www.w3.org/2000/svg" xmlns:xlink="http://www.w3.org/1999/xlink" x="0px" y="0px"
	 viewBox="0 0 500 76.1" style="enable-background:new 0 0 500 76.1;" xml:space="preserve">
<g transform="translate(-134.76 -228.26)">
	<path style="fill:#D20000;" d="M153.7,228.6c-0.8,0-1.6,0.3-2.3,0.9c-0.7,0.5-1.2,1.3-1.6,2.4l-14.7,38.5c-0.5,1.2-0.5,2.3,0.4,3.1
		c0.4,0.4,1.5,0.6,2.3,0.6c1.5,0,2.9-0.7,3.4-1.9c1-2.7,3-8.1,3-8.1h19.2c0,0,2,5.4,3,8.1c0.2,0.7,0.6,1.2,1.2,1.6
		c0.5,0.3,1.6,0.5,2.2,0.5c0.8,0,1.9-0.2,2.4-0.5c0.5-0.4,0.8-0.9,0.8-1.6c0-0.5,0-1-0.3-1.7c-5-12.9-14.9-38.6-14.9-38.6
		c-0.4-1.1-1-1.9-1.6-2.4C155.4,228.9,154.6,228.6,153.7,228.6L153.7,228.6z M153.7,238.5h0.1l7.3,19.8h-14.7L153.7,238.5z"/>
	<path style="fill:#D20000;" d="M205.9,228.8c-5.6,0-11.4,4-13.2,9.3c-1.3,4,0,9.1,3.8,11.4c4.3,3.1,9.7,3.8,13.3,5.7
		c2.3,1.2,3.4,3.9,3.1,6.4c-0.4,4.6-4.8,7.3-9.5,6.6c-3.1-0.2-5-1.4-7.5-3c-1.5-1-3.6,0.5-3.8,2.3c-0.4,2.3,1.6,4.3,3.4,5
		c5.3,2.1,11.6,2.6,16.9,0.1c5.8-2.7,8.9-9.6,7.2-15.6c-0.7-3.3-3.4-6.3-6.4-7.6c-3.7-1.9-6.6-2.1-10.2-4.1
		c-2.3-1.2-4.3-3.4-3.3-6.1c0.7-3.1,3.6-4.2,6.8-4c3.2,0,4.8,2.2,7.8,2.9c1.9,0,3.7-3,2.6-4.7c-1.4-2.2-4.6-3.8-7.1-4.3
		C208.6,228.8,207.3,228.8,205.9,228.8L205.9,228.8z"/>
	<g>
		<path style="fill:#737373;" d="M149.1,296.1l1.2,3.3h1.8l-5.9-15.2l-1.5,0.1l-5.9,15.1h1.7l1.2-3.3L149.1,296.1z M148.5,294.6
			h-6.4l3.3-8.4L148.5,294.6z"/>
		<path style="fill:#737373;" d="M161.8,288.2H160v11.1h1.7v-5.8c0-1.7,0.4-4.2,2.8-4.2c2,0,2.4,2.2,2.4,3.6v6.3h1.7v-5.9
			c0-1.7,0.4-4,2.7-4c2.1,0,2.6,2,2.6,3.5v6.5h1.7v-6.8c0-2.3-0.8-4.7-3.8-4.7c-1.4,0-2.9,0.6-3.6,1.9c-0.6-1.2-1.9-1.9-3.3-1.9
			c-1.2,0-2.2,0.6-2.9,1.5h-0.1L161.8,288.2z"/>
		<path style="fill:#737373;" d="M183.5,288c-3.5,0-5.2,2.6-5.2,5.9c0,3.2,1.9,5.6,5.2,5.6c2,0,3.6-0.8,4.7-2.3l-1-1.1
			c-0.8,1.1-2.1,1.7-3.5,1.7c-2.2,0-3.6-1.4-3.7-3.5h8.1C188.4,291.1,187.1,288,183.5,288L183.5,288z M183.5,289.5
			c2.1,0,3.1,1.8,3,3.4h-6.4C180.1,291.4,181.4,289.5,183.5,289.5L183.5,289.5z"/>
		<path style="fill:#737373;" d="M214.8,289.7c2.1,0,3.4,1.8,3.4,4c0,2.3-1.1,4.2-3.3,4.2c-2.1,0-3.3-2.1-3.3-4.2
			C211.5,291.6,212.8,289.7,214.8,289.7z M209.9,299.4h1.7v-1.5h0c0.8,1.2,2.1,1.9,3.4,1.9c2.9,0,4.8-2.8,4.8-5.9
			c0-3.2-1.8-5.9-4.8-5.9c-1.4,0-2.6,0.7-3.4,1.9h0v-6.4h-1.7V299.4z"/>
		<path style="fill:#737373;" d="M236.6,288.2h-1.9v11.1h1.7v-5.9c0-1.4,0.9-2.9,2.2-3.6c0.4-0.2,1.5,0,1.5,0l0.5-1.4
			c-0.5-0.3-0.9-0.4-1.6-0.4c-0.8,0-1.6,0.8-2.2,1.4h-0.2L236.6,288.2z"/>
		<path style="fill:#737373;" d="M253.1,299.7c2.9,0,5.2-2.6,5.2-5.9c0-3.3-2.3-5.9-5.2-5.9c-2.9,0-5.2,2.6-5.2,5.9
			S250.2,299.7,253.1,299.7z M253.1,289.8c2.1,0,3.4,1.8,3.4,4c0,2.3-1.3,4-3.4,4c-2.1,0-3.4-1.7-3.4-4
			C249.7,291.5,251,289.8,253.1,289.8L253.1,289.8z"/>
		<path style="fill:#737373;" d="M263.1,289.6h2v-1.4h-2v-1.3c0-1.4-0.2-2.1,1.1-2.5c0.4-0.1,0.9,0.1,1.3,0.3v-1.6
			c-0.5-0.1-0.9-0.2-1.4-0.2c-1.1,0-1.8,0.5-2.3,1.2c-0.6,0.8-0.5,2-0.4,2.9v1.3h-1.3v1.4h1.3v9.8h1.7L263.1,289.6z"/>
		<path style="fill:#737373;" d="M280.2,284.1c-4.4,0-7.4,3.6-7.4,7.9c0,4.3,3.1,7.8,7.4,7.8c1.6,0,3.2-0.8,4.5-1.7l-1.2-1.1
			c-1,0.7-2.2,1.2-3.4,1.2c-3.4,0-5.4-3.4-5.4-6.2c0-2.7,2-6.2,5.4-6.2c1.2,0,2.4,0.5,3.4,1.2l1.2-1.1
			C283.4,284.8,281.9,284.1,280.2,284.1L280.2,284.1z"/>
		<path style="fill:#737373;" d="M288.5,290.7v-6.6H287v15.2h1.5v-7l0.7,0l7.2,6.9h2.3l-8.2-7.9l8-7.4h-2.2l-7.2,6.6L288.5,290.7z"
			/>
		<path style="fill:#737373;" d="M308.2,291.3v-7.1h-1.8v15.2h1.8v-6.5h8.3v6.5h1.8v-15.2h-1.8v7.1L308.2,291.3z"/>
		<path style="fill:#737373;" d="M323.4,288.2h-1.6v6.4c0,3,0.9,5,4.4,5s4.4-2.1,4.4-5v-6.4H329v6.2c0,1.9-0.3,3.7-2.8,3.7
			s-2.8-1.9-2.8-3.7L323.4,288.2z"/>
		<path style="fill:#737373;" d="M336.5,289.6h1.6v-1.4h-1.6v-3.2h-1.7v3.2h-1.4v1.4h1.4v9.8h1.7V289.6z"/>
		<path style="fill:#737373;" d="M345.8,287.9c-3.3,0-6,2.6-6,5.9c0,3.4,2.6,5.9,5.9,5.9c1.1,0,1.9-0.4,2.8-0.9l-0.9-1.5
			c-0.6,0.4-1.2,0.7-2,0.7c-2.3,0-3.8-1.9-3.8-4.1c0-2.2,1.6-4.1,3.9-4.1c0.8,0,1.3,0.3,1.9,0.7l0.9-1.5
			C347.7,288.3,346.8,287.9,345.8,287.9L345.8,287.9z"/>
		<path style="fill:#737373;" d="M350.8,283.4v15.9h1.7v-5.3c0-1.6,0.3-4.5,2.9-4.5c2.2,0,2.5,1.7,2.5,3.5v6.3h1.7v-6.6
			c0-2.6-0.5-4.8-3.6-4.8c-1.4,0-2.4,0.6-3.2,1.7l-0.3,0v-6.1L350.8,283.4z"/>
		<path style="fill:#737373;" d="M365.1,288.2h-1.9v11.1h1.9V288.2z M364.1,283.9c-0.7,0-1.4,0.6-1.4,1.4c0,0.8,0.6,1.4,1.4,1.4
			c0.7,0,1.4-0.6,1.4-1.4C365.5,284.5,364.9,283.9,364.1,283.9z"/>
		<path style="fill:#737373;" d="M376,289.9c-0.6-1.2-2.1-2.1-3.6-2.1c-2.1,0-4.4,1.4-4.4,3.3c0,3.5,5.9,2.6,5.8,5.1
			c0,0.9-0.9,1.7-2.1,1.7c-1.5,0-2.2-0.5-2.8-1.5l-1.8,1c0.7,1.8,2.4,2.3,4.6,2.3c2.4,0,4.4-1.5,4.4-3.6c0-1.9-1.5-2.7-3-3.2
			c-1.5-0.5-3-0.8-3-1.9c0-0.9,1.4-1.4,2.2-1.4c0.8,0,1.9,0.7,2.2,1.3L376,289.9z"/>
		<path style="fill:#737373;" d="M393.2,288.2h-1.9v11.1h1.7v-6c0-2,0.9-3.9,3-3.9c2.2,0,2.6,1.9,2.6,3.7v6.3h1.7v-6.6
			c0-2.6-0.7-4.8-3.8-4.8c-1.4,0-2.4,0.6-3.2,1.7h0L393.2,288.2z"/>
		<path style="fill:#737373;" d="M439.1,283.4h-1.7v15.9h1.7V283.4z"/>
		<path style="fill:#737373;" d="M447.2,289.7c2,0,3.2,1.8,3.2,4c0,2.3-1.1,4.2-3.2,4.2c-2,0-3.2-2.1-3.2-4.2
			C444,291.6,445.3,289.7,447.2,289.7z M450.3,299.4h1.6v-15.9h-1.6v6.4h0c-0.8-1.2-2-1.9-3.3-1.9c-2.9,0-4.6,2.7-4.6,5.9
			c0,3.1,1.8,5.9,4.6,5.9c1.3,0,2.5-0.6,3.3-1.9h0L450.3,299.4z"/>
		<path style="fill:#737373;" d="M477.2,287.9c-3,0-4.9,2.8-4.9,5.9c0,3.1,1.9,5.8,4.8,5.8c1.4,0,2.7-0.7,3.5-1.8h0v1.3
			c0,2.4-1.7,3.4-3.3,3.6c-1.2,0.1-2.8-0.3-3.5-1.7l-1.1,1.1c0.8,1.8,2.9,2.3,4.6,2.3c1.7,0,2.9-0.8,3.8-1.8
			c0.9-1.1,1.2-2.5,1.2-4.3v-10h-1.7v1.6h0C479.8,288.6,478.6,287.9,477.2,287.9L477.2,287.9z M477.3,289.7c2.1,0,3.4,1.8,3.4,4
			c0,2.3-1.2,4.2-3.4,4.2c-2.2,0-3.3-2.1-3.3-4.2C474,291.6,475.3,289.7,477.3,289.7L477.3,289.7z"/>
		<path style="fill:#737373;" d="M227.1,288c-3.5,0-5.2,2.6-5.2,5.9c0,3.2,1.9,5.6,5.2,5.6c2,0,3.6-0.8,4.7-2.3l-1-1.1
			c-0.8,1.1-2.1,1.7-3.5,1.7c-2.2,0-3.6-1.4-3.7-3.5h8.1C232,291.1,230.7,288,227.1,288L227.1,288z M227.1,289.5
			c2.1,0,3.1,1.8,3,3.4h-6.4C223.8,291.4,225,289.5,227.1,289.5L227.1,289.5z"/>
		<path style="fill:#737373;" d="M192.8,288.2H191v11.1h1.7v-5.8c0-1.7,0.4-4.2,2.8-4.2c2,0,2.4,2.2,2.4,3.6v6.3h1.7v-5.9
			c0-1.7,0.4-4,2.7-4c2.1,0,2.6,2,2.6,3.5v6.5h1.7v-6.8c0-2.3-0.8-4.7-3.8-4.7c-1.4,0-2.9,0.6-3.6,1.9c-0.6-1.2-1.9-1.9-3.3-1.9
			c-1.2,0-2.2,0.6-2.9,1.5h-0.1L192.8,288.2z"/>
		<path style="fill:#737373;" d="M383.4,299.7c2.9,0,5.2-2.6,5.2-5.9c0-3.3-2.3-5.9-5.2-5.9s-5.2,2.6-5.2,5.9
			S380.5,299.7,383.4,299.7z M383.4,289.8c2.1,0,3.4,1.8,3.4,4c0,2.3-1.3,4-3.4,4s-3.4-1.7-3.4-4C380,291.5,381.3,289.8,383.4,289.8
			z"/>
		<path style="fill:#737373;" d="M429.5,299.7c2.9,0,5.2-2.6,5.2-5.9c0-3.3-2.3-5.9-5.2-5.9s-5.2,2.6-5.2,5.9
			S426.6,299.7,429.5,299.7z M429.5,289.8c2.1,0,3.4,1.8,3.4,4c0,2.3-1.3,4-3.4,4s-3.4-1.7-3.4-4
			C426.1,291.5,427.4,289.8,429.5,289.8z"/>
		<path style="fill:#737373;" d="M411.3,291.3v-7.1h-1.8v15.2h1.8v-6.5h8.3v6.5h1.8v-15.2h-1.8v7.1L411.3,291.3z"/>
		<path style="fill:#737373;" d="M457.1,288.2h-1.9v11.1h1.9V288.2z M456.2,283.9c-0.7,0-1.4,0.6-1.4,1.4c0,0.8,0.6,1.4,1.4,1.4
			s1.4-0.6,1.4-1.4C457.5,284.5,456.9,283.9,456.2,283.9z"/>
		<path style="fill:#737373;" d="M493.6,289.9c-0.6-1.2-2.1-2.1-3.6-2.1c-2.1,0-4.4,1.4-4.4,3.3c0,3.5,5.9,2.6,5.8,5.1
			c0,0.9-0.9,1.7-2.1,1.7c-1.5,0-2.2-0.5-2.8-1.5l-1.8,1c0.7,1.8,2.4,2.3,4.6,2.3c2.4,0,4.4-1.5,4.4-3.6c0-1.9-1.5-2.7-3-3.2
			c-1.5-0.5-3-0.8-3-1.9c0-0.9,1.4-1.4,2.2-1.4c0.8,0,1.9,0.7,2.2,1.3L493.6,289.9z"/>
		<path style="fill:#737373;" d="M462.5,288.2h-1.9v11.1h1.7v-6c0-2,0.9-3.9,3-3.9c2.2,0,2.6,1.9,2.6,3.7v6.3h1.7v-6.6
			c0-2.6-0.7-4.8-3.8-4.8c-1.4,0-2.4,0.6-3.2,1.7h0V288.2z"/>
	</g>
	<g>
		<path style="fill:#D20000;" d="M182.2,266.7c-1,0-1.8,0.4-2.6,1.1c-0.7,0.8-1.1,1.7-1.1,2.6c0,1,0.4,1.8,1.1,2.5
			c0.8,0.8,1.6,1.1,2.6,1.1c0.9,0,1.8-0.4,2.6-1.1c0.7-0.8,1.1-1.7,1.1-2.6c0-1-0.4-1.9-1.1-2.6C184,267,183.2,266.7,182.2,266.7z"
			/>
		<path style="fill:#D20000;" d="M228.5,266.7c-1,0-1.8,0.4-2.6,1.1c-0.7,0.8-1.1,1.7-1.1,2.6c0,1,0.4,1.8,1.1,2.5
			c0.8,0.8,1.6,1.1,2.6,1.1c0.9,0,1.8-0.4,2.6-1.1c0.7-0.8,1.1-1.7,1.1-2.6c0-1-0.4-1.9-1.1-2.6C230.3,267,229.5,266.7,228.5,266.7z
			"/>
		<path style="fill:#D20000;" d="M302,228.3c-0.7,0-2.1,0.3-2.7,0.8c-0.4,0.3-0.7,0.8-0.9,1.3c-0.1,0.2-0.1,0.4-0.2,0.6l-5.3,33.2
			l-10.1-33.2c-0.2-0.7-0.6-1.2-1.1-1.6c-0.6-0.4-1.2-0.6-1.9-0.6c-1.4,0-2.2,0.7-2.6,2.2l-9.8,33.2l-5.9-32.9
			c-0.1-0.8-0.5-1.4-1-1.8c-0.6-0.4-1.5-0.6-2.2-0.6c-0.7,0-1.6,0.3-2.1,0.9c-0.5,0.7-0.8,1.6-0.8,2.8l7.1,38.3
			c0.2,1.2,0.7,2.1,1.5,2.7c0.8,0.7,1.7,1,2.7,1c1,0,1.8-0.2,2.6-0.7c0.7-0.5,1.2-1.2,1.5-2.1l9.1-30.2h0.1l9.1,30.1
			c0.2,0.7,0.5,1.3,1,1.7c0.2,0.2,0.3,0.3,0.5,0.5c0.7,0.5,1.5,0.7,2.4,0.7c1,0,2-0.3,2.8-1c0.8-0.7,1.4-1.7,1.5-2.9l7.1-37.7v-1.1
			c0-1.1-0.3-1.9-0.8-2.5C303.4,228.5,302.8,228.3,302,228.3L302,228.3z"/>
		<path style="fill:#D20000;" d="M348.7,229.9c-0.8,0-1.5,0.2-2.1,0.7c-0.5,0.5-0.8,1.1-0.8,1.9v7.6h-2.4c-1.7,0-2.7,1.3-2.9,3
			c0.1,0.6,0.4,1.7,0.9,2.2c0.5,0.5,1.1,0.7,2,0.7h2.4v25.3c0,0.9,0.3,1.6,0.8,2.1c0.5,0.5,1.4,0.7,2.2,0.7c0.9,0,1.7-0.2,2.4-0.7
			c0.6-0.5,0.9-1.2,0.9-2v-25.4h2.8c1-0.1,1.6-0.4,2.1-1c0.2-0.4,0.4-1.3,0.4-1.8c0-0.7-0.4-1.8-0.7-2.2c-0.5-0.5-1.2-0.7-2-0.7
			h-2.5v-7.5c0-0.9-0.3-1.6-0.9-2c-0.7-0.5-1.4-0.7-2.2-0.7L348.7,229.9z"/>
		<path style="fill:#D20000;" d="M371.4,239.6c-3.9,0.1-8.1,1.7-10.1,5.3c-1.7,2.9-1.4,6-0.1,8.5c1.6,3,6.1,3.9,8.6,5.3
			c2.3,1.3,5.9,2.1,7,3.7c1.2,1.7,0.5,3.6-0.7,4.6c-2.8,2.2-7.4,1.6-10.6-0.7c-1.4-0.9-3-2.4-4.8-1.7c-1.5,0.5-2.4,3.3-1.6,4.6
			c0.7,1.3,2.1,2,3.3,2.8c4.3,2.4,9.6,2.8,14.3,1.4c3.6-1.1,6.8-4.1,7.3-8c0.4-2.9-0.6-5.1-2.3-7.1c-3.1-3.5-10.3-4.8-12.6-6.3
			c-1.3-0.8-2.6-2.3-2.2-3.7c0.4-1.8,3.2-2.8,4.7-2.8c1.9-0.1,3.2,0.4,4.7,1.4c1.4,0.9,3.2,2.9,4.8,2.3c1.4-0.5,2.2-2.5,1.9-3.9
			c-0.6-2.6-3.9-4-6.4-4.8C374.9,239.8,373.1,239.6,371.4,239.6L371.4,239.6z"/>
		<path style="fill:#D20000;" d="M426.6,239.6c-0.8,0-1.9,0.3-2.4,0.8c-0.5,0.5-0.8,1.2-0.8,2.2v28.6c0,0.8,0.3,1.6,0.9,2.2
			c0.5,0.5,1.7,0.8,2.4,0.8c0.8,0,1.9-0.2,2.4-0.7c0.5-0.5,0.8-1.3,0.8-2.2v-18c0-1.7,0.3-3.1,1.1-4.4c0.7-1,1.8-1.9,2.8-2.4
			c1.2-0.6,2.5-0.9,3.9-0.8c1.5,0.1,3,0.6,4,1.7c1.4,1.4,2.3,2.9,2.3,5.4v18.6c0,0.9,0.3,1.5,0.8,2c0.5,0.5,1.7,0.7,2.4,0.7
			c0.8,0,1.9-0.2,2.4-0.7c0.6-0.5,0.8-1.2,0.8-2v-18.7c0-2.7-0.5-5.1-1.6-7.1c-1.1-2-2.6-3.4-4.4-4.3c-1.7-0.9-3.7-1.4-5.8-1.4
			c-1.9,0-3.6,0.4-5.1,1.1c-1.4,0.6-2.6,1.4-3.6,2.8l-0.1-0.1v-1.3c0-0.9-0.3-1.2-0.8-1.7C428.6,239.9,427.4,239.6,426.6,239.6
			L426.6,239.6z"/>
		<path style="fill:#D20000;" d="M493.2,228.8c-6.2,0-12.4,2.9-15.8,8c-3.3,4.7-4.5,10.6-4.3,16.2c0.3,6.1,2.6,12.2,7.2,16.5
			c3.7,3.4,8.8,4.9,13.8,4.7c4.8-0.1,9.9-1.4,13.2-5.1c2.9-2.9,4.2-6.9,4.7-10.8c0.3-2.5,0.6-5.3,0.1-7.9c-0.4-2-2.6-2.5-4.3-2.3
			c-3.3,0-7.2-0.1-10.5,0c-2.5,0.5-2.5,5.5,0.2,5.8c2.9,0.1,5.3,0,8.2,0c0.1,3.8-0.2,7.4-2.8,10.4c-4.5,5.2-12.6,5-17.3,1.2
			c-4.5-3.7-5.6-9.3-5.6-14.9c0.3-5.4,1.9-9.9,6.4-13.3c3.9-2.9,8.2-3.1,12.7-1.4c2.3,1,4.4,2.8,6.5,4c1.9,0.9,4.6-1.7,3.8-3.9
			c-1.2-2.4-3.9-4.6-6.3-5.6C500,229.3,496.6,228.7,493.2,228.8L493.2,228.8z"/>
		<path style="fill:#D20000;" d="M531.6,239.6c-1.8,0.2-3,0.6-4.3,1.4c-1,0.6-1.9,1.4-2.6,2.4c-0.2,0.4-0.5,0.2-0.7,0.6H524v-1.8
			c0-0.9-0.3-1.2-0.8-1.7c-0.5-0.5-1.7-0.8-2.5-0.8c-0.8,0-1.9,0.3-2.4,0.8c-0.5,0.5-0.8,1.2-0.8,2.1v28.5c0,0.9,0.3,1.7,0.8,2.2
			c0.6,0.5,1.8,0.8,2.6,0.7c0.8,0,1.7-0.3,2.4-0.7c0.5-0.6,0.8-1.4,0.8-2.1v-16.3c0-2,0.4-3.2,1.2-4.6c0.8-1.4,1.9-2.4,3.4-3.2
			c0.6-0.3,1.4-0.6,2.4-0.8c1.3-0.3,2.3-0.7,2.9-1.1c0.6-0.4,1-1.7,1-2.7c0-0.8-0.3-1.4-1-2C533.3,239.9,532.5,239.5,531.6,239.6
			L531.6,239.6z"/>
		<path style="fill:#D20000;" d="M550.6,239.6c-5.3-0.1-10.5,3.1-12.9,7.9c-2.5,4.8-2.7,10.5-1.2,15.6c1.6,5.4,6.2,10,11.9,10.7
			c4.1,0.6,8.5-0.4,11.6-3.3c4.7-4,6.2-10.7,5.4-16.6c-0.6-5.8-4.2-11.4-9.8-13.5C554,239.9,552.3,239.7,550.6,239.6L550.6,239.6z
			 M550.6,245.7c2.7,0,5.4,2.1,6.7,4.5c2,3.7,2.2,8.8,0.4,12.5c-1.3,2.7-4.2,5.2-7.2,5.4c-2.3,0.1-4.8-1.6-6.1-3.6
			c-2.4-4-2.8-9.9-0.7-14.1C544.9,247.8,547.8,245.7,550.6,245.7L550.6,245.7z"/>
		<path style="fill:#D20000;" d="M574.2,239.6c-0.8,0-1.9,0.3-2.4,0.8c-0.5,0.5-0.8,1.2-0.8,2.1V261c0,2.4,0.5,4.6,1.4,6.6
			c1,2,2.4,3.5,4.4,4.7c2,1.2,4.5,1.8,7.5,1.8c3.1,0,5.8-0.6,7.8-1.8c2-1.2,3.5-2.8,4.5-4.8c0.9-1.9,1.4-4,1.4-6.4v-18.5
			c0-0.9-0.3-1.6-0.8-2.1c-0.5-0.5-1.2-0.8-2-0.8c-0.2,0-1.4,0-1.5,0c-0.5,0.1-1,0.3-1.4,0.7c-0.5,0.5-0.8,1.2-0.8,2.1v17.4
			c0,5.6-1.7,8.4-7.1,8.4c-2.6,0-3.6-0.8-4.9-2.3c-1.3-1.5-2-3.5-2-6.1v-17.4c0-0.9-0.3-1.6-0.8-2.1
			C576.1,239.9,575,239.6,574.2,239.6L574.2,239.6z"/>
		<path style="fill:#D20000;" d="M608.6,239.6c-0.7,0-1.9,0.3-2.4,0.8c-0.5,0.5-0.8,1.3-0.8,2.2v41.1c0,1,0.3,1.7,0.8,2.3
			c0.6,0.6,1.7,1,2.5,1c0.8,0,1.9-0.3,2.5-0.9c0.5-0.6,0.7-1.4,0.7-2.5v-13.7h0.1c2.3,3,4.5,4.2,8.3,4.2c2.8,0,5.3-0.8,7.5-2.3
			c2.2-1.5,3.9-3.6,5.1-6.3c1.2-2.6,1.8-5.5,1.8-8.8c0-2.5-0.4-4.8-1.1-6.9c-0.7-2-1.8-3.8-3.2-5.4c-1.4-1.6-2.8-2.7-4.7-3.5
			c-1.8-0.8-3.8-1.2-6.1-1.2c-3.9,0.1-5.8,1.4-7.4,4c-0.1,0.2-0.2,0.4-0.3,0.5h-0.1v-1.7c0-0.9-0.3-1.6-0.8-2.1
			C610.5,239.9,609.4,239.6,608.6,239.6L608.6,239.6z M620.2,245.4c2,0.1,2.8,0.7,4.1,1.9c1.3,1.2,2.3,2.7,2.9,4.6
			c0.6,1.8,1,2.9,1,5c-0.1,2.4-0.2,3.4-0.8,5.1c-0.7,1.8-1.7,3.3-3.1,4.3c-1.2,1.1-2.5,2-4,2c-2-0.1-4.9-1.2-6.6-3.5
			c-1.7-2.2-2.3-4.1-2.3-8c0.1-2.2,0.4-3.2,1-4.9c0.6-1.9,1.7-3.5,3.1-4.6C616.9,246,617.9,245.4,620.2,245.4L620.2,245.4z"/>
		<path style="fill:#D20000;" d="M402.7,239.6c-5.3-0.1-10.5,3.1-12.9,7.9c-2.5,4.8-2.7,10.5-1.2,15.6c1.6,5.4,6.2,10,11.9,10.7
			c4.1,0.6,8.5-0.4,11.6-3.3c4.7-4,6.2-10.7,5.4-16.6c-0.6-5.8-4.2-11.4-9.8-13.5C406.1,239.9,404.4,239.6,402.7,239.6L402.7,239.6z
			 M402.7,245.6c2.7,0,5.4,2.1,6.7,4.5c2,3.7,2.2,8.8,0.4,12.5c-1.3,2.7-4.2,5.2-7.2,5.4c-2.3,0.1-4.8-1.6-6.1-3.6
			c-2.4-4-2.8-9.9-0.7-14.1C397,247.8,399.9,245.6,402.7,245.6L402.7,245.6z"/>
		<path style="fill:#D20000;" d="M333.4,239.6c1.8-0.2,3.5,1.4,3.2,3.2c0,9.4,0,18.9,0,28.3c0,2.8-4.1,3.9-5.7,1.8
			c-0.4-1-0.5-2.1-0.8-3.1c-1.2,1.2-2.3,2.7-4,3.3c-3.3,1.3-7.1,1-10.3-0.5c-5.1-2.5-7.9-8-8.5-13.4c-0.6-5.2,0.4-11,4.1-14.9
			c2.5-3,6.3-4.7,10.1-4.7c3.1,0,6.8,1.1,8.3,4.1c0.3-0.3,0.2-1.1,0.3-1.5C330.2,240.5,331.9,239.6,333.4,239.6L333.4,239.6z
			 M321.7,245.4c-2.3-0.1-4.4,1-5.8,2.9c-2.3,2.8-2.7,6.6-2.5,10.1c0.1,4,2.3,8.2,6.1,9.7c2.8,0.9,5.9-0.5,7.9-2.5c2-2,3-4.9,3-7.8
			c0.2-3-0.8-6-2.2-8.6c-1.3-2.2-3.7-3.9-6.4-3.7L321.7,245.4z"/>
	</g>
</g>
</svg>
