<?xml version="1.0" encoding="utf-8"?>
<svg version="1.1" id="Layer_1" xmlns="http://www.w3.org/2000/svg" xmlns:xlink="http://www.w3.org/1999/xlink" x="0px" y="0px"
	 viewBox="0 0 219.7 84" style="enable-background:new 0 0 219.7 84;" xml:space="preserve">
<g>
	<path id="path36" style="fill-rule:evenodd;clip-rule:evenodd;fill:#035FA0;" d="M123,7.5c0-2-0.7-3.8-2.2-5.3
		c-1.5-1.4-3.2-2.2-5.3-2.2c-2.1,0-3.9,0.7-5.3,2.2c-1.5,1.5-2.2,3.2-2.2,5.3c0,2.1,0.7,3.9,2.2,5.3c1.4,1.4,3.2,2.2,5.3,2.2
		c2.1,0,3.8-0.7,5.3-2.2C122.3,11.3,123,9.6,123,7.5"/>
	<path id="path38" style="fill-rule:evenodd;clip-rule:evenodd;fill:#035FA0;" d="M143.9,7.8c0-2.1-0.7-3.9-2.2-5.3
		c-1.5-1.5-3.2-2.2-5.3-2.2c-2.1,0-3.9,0.7-5.3,2.2c-1.5,1.4-2.2,3.2-2.2,5.3c0,2.1,0.7,3.9,2.2,5.3c1.4,1.5,3.2,2.2,5.3,2.2
		c2.1,0,3.8-0.7,5.3-2.2C143.1,11.7,143.9,9.9,143.9,7.8"/>
	<path id="path72" style="fill-rule:evenodd;clip-rule:evenodd;fill:#D23A43;" d="M53.4,19.7c-1.9-1.1-4.3-1.7-7.5-1.7
		c-5.6,0-9.4,2.5-11.6,7.4C33.1,20.5,29.7,18,24,18c-5.3,0-9.2,2.5-11.5,7.4v-6.6H0v47.7h13.3V38.8c0-4,0.3-6.8,1.1-8.3
		c0.7-1.5,2.1-2.2,4.2-2.2c1.7,0,2.8,0.5,3.2,1.5c0.5,0.9,0.7,3.2,0.7,6.6v30.1h13.3V38.8c0-4.2,0.3-7,0.9-8.4c0.7-1.4,2.1-2,4.2-2
		c1.8,0,2.9,0.5,3.4,1.6c0.5,1.1,0.7,3.4,0.7,7v29.7h13.3V35.4c0-5.5-0.4-9.2-1.1-11.1C56.6,22.4,55.3,20.8,53.4,19.7"/>
	<path id="path74" style="fill-rule:evenodd;clip-rule:evenodd;fill:#D23A43;" d="M77.7,47.5v-2.6h24.9c0-10.3-1.8-17.3-5.5-21.2
		C93.4,19.9,89,18,83.6,18c-6,0-10.7,2.2-14.4,6.5c-3.5,4.3-5.3,10.6-5.3,18.9c0,7.3,1.7,13.1,5,17.5c3.4,4.3,8.3,6.5,14.7,6.5
		c10.5,0,16.8-5.5,18.9-16.7H90.6c-0.6,4.9-2.9,7.3-6.6,7.3c-1.9,0-3.4-0.7-4.5-2.1C78.2,54.5,77.7,51.7,77.7,47.5l0.1-10.4
		c0.1-6.9,2.1-10.4,6.2-10.4c4.1,0,6.1,3,6.1,9.1v1.3H77.7"/>
	<path id="path76" style="fill-rule:evenodd;clip-rule:evenodd;fill:#D23A43;" d="M122.1,66.5V18.8h-13.2v47.7H122.1"/>
	<path id="path78" style="fill-rule:evenodd;clip-rule:evenodd;fill:#D23A43;" d="M143.8,18.8h-13.3v45.7c0,3.3-0.2,5.5-0.7,6.5
		c-0.5,0.9-1.7,1.4-3.7,1.4l-1.8-0.1v10.9l7.1,0.7c3,0,5.7-0.7,7.7-2.2c2-1.4,3.2-3.4,3.8-5.8c0.5-2.4,0.8-6.1,0.8-11.1L143.8,18.8"
		/>
	<path id="path80" style="fill-rule:evenodd;clip-rule:evenodd;fill:#D23A43;" d="M155.3,24.5c-3.5,4.3-5.3,10.6-5.3,18.9
		c0,7.3,1.7,13.1,5,17.5c3.4,4.3,8.3,6.5,14.7,6.5c10.4,0,16.8-5.5,18.8-16.7h-11.9c-0.6,4.9-2.9,7.3-6.7,7.3
		c-1.9,0-3.4-0.7-4.5-2.1c-1.2-1.5-1.7-4.3-1.7-8.5v-2.6h24.9c0-10.3-1.8-17.3-5.4-21.2c-3.7-3.8-8.1-5.7-13.5-5.7
		C163.6,18,158.9,20.2,155.3,24.5l20.8,11.3l-0.1,1.3h-12.2c0-6.9,2.1-10.4,6.1-10.4c4.1,0,6.1,3,6.1,9.1"/>
	<path id="path82" style="fill-rule:evenodd;clip-rule:evenodd;fill:#D23A43;" d="M206.3,18.8h-11.7v47.7h13.3V46
		c0-9.8,3.2-14.7,9.6-14.7l2.2,0.2V18.5l-2.2-0.2c-5.3,0-9.1,4-11.1,12.1V18.8"/>
</g>
</svg>
