<?xml version="1.0" encoding="utf-8"?>
<svg version="1.1" id="Layer_1" xmlns="http://www.w3.org/2000/svg" xmlns:xlink="http://www.w3.org/1999/xlink" x="0px" y="0px"
	width="100px" height="100px" viewBox="0 0 100 100" style="enable-background:new 0 0 100 100;" xml:space="preserve">
<g>
	<path style="fill:#E8E8E8;" d="M50,0c27.61,0,50,22.39,50,50s-22.39,50-50,50S0,77.61,0,50S22.39,0,50,0"/>
	<path style="fill:#FFFFFF;" d="M50,1c27.06,0,49,21.94,49,49S77.06,99,50,99S1,77.06,1,50S22.94,1,50,1"/>
	<g id="layer1" transform="translate(-85.586508,-132.78224)">
		<path id="path297" style="fill:#B0B0B3;" d="M120.43,181.72h3.43v4.71h3.66v-11.88h-3.66v4.13h-3.43v-4.13h-3.66v11.88h3.66
			V181.72z M110.42,186.71c3.48,0,5.42-2.55,5.42-4.94h-3.59c-0.22,1.12-0.7,1.98-1.93,1.98c-1.71,0-2.26-1.66-2.26-3.26
			c0-1.6,0.55-3.26,2.26-3.26c1.51,0,1.85,1.31,1.91,1.75h3.56c-0.31-2.98-2.11-4.69-5.37-4.71c-3.66,0-6.02,2.48-6.02,6.22
			C104.39,184,106.57,186.71,110.42,186.71 M93.81,191.3h84.23v-2.15H93.81L93.81,191.3z M172.2,183.38l5.57-6.17v-2.66h-10.03v3.05
			h5.21l-5.52,5.97v2.86h10.61v-3.05H172.2z M98.67,184.08c-0.68,0-1.48-0.15-1.75-0.86c-0.08-0.22-0.13-0.48-0.13-0.78h-3.66
			c0.03,3.79,3.88,4.28,5.22,4.28c2.64,0,5.49-1,5.49-4.09c0-2.18-1.66-2.96-3.35-3.43c-1.68-0.47-3.38-0.65-3.44-1.5
			c0-0.66,0.81-0.8,1.31-0.8c0.37,0,0.78,0.08,1.08,0.3c0.3,0.2,0.5,0.5,0.43,0.95h3.46c-0.1-2.9-2.38-3.88-4.96-3.88
			c-2.44,0-4.79,1.18-4.79,3.93c0,2.4,2.15,2.91,4.03,3.44c2.04,0.58,2.56,0.75,2.56,1.36C100.18,183.88,99.27,184.08,98.67,184.08
			 M159.01,177.38h1.71c1.4,0,1.81,0.43,1.81,1.18c0,1.06-0.93,1.18-1.61,1.18h-1.91V177.38z M159.01,182.29h1.94
			c1.45,0,1.55,1.18,1.65,2.31c0.05,0.62,0.12,1.23,0.3,1.83h3.66c-0.33-0.55-0.35-1.96-0.4-2.55c-0.13-1.48-0.75-2.58-1.75-2.96
			c1.22-0.45,1.78-1.75,1.78-2.98c0-2.25-1.8-3.39-3.88-3.39h-6.97v11.88h3.66V182.29z M134.95,186.43l1.25-7.24h0.03l1.28,7.24
			h3.56l3.33-11.88h-3.61l-1.48,7.44h-0.03l-1.4-7.44h-3.23l-1.43,7.34h-0.03l-1.45-7.34h-3.59l3.23,11.88H134.95z M148.81,178.53
			h0.03l1.06,3.66h-2.25L148.81,178.53z M146.33,186.43l0.53-1.7h3.78l0.5,1.7h3.79l-4.33-11.88h-3.58l-4.37,11.88H146.33z"/>
	</g>
</g>
</svg>
