<svg xmlns="http://www.w3.org/2000/svg" viewBox="0 0 422 179.7" fill="#005458"><path d="M17.2 7.8c0 .9-.1 1.7-.2 2.5s-.4 1.4-.7 2c.9.8 1.5 1.9 1.9 3.2s.6 2.9.6 4.8c0 2-.2 3.7-.6 5-.4 1.4-1.1 2.4-2.1 3.2-.9.7-1.9 1.2-3.1 1.4s-2.4.3-3.7.3H.4c-.3-.1-.4-.2-.4-.5V.4C0 .1.1 0 .4 0h7.3c1.2 0 2.5.1 3.7.2 1.2.2 2.2.5 3.1 1.1 1.1.7 1.8 1.6 2.2 2.8.3 1.1.5 2.4.5 3.7zM6 10.1h2.8c.7 0 1.3-.1 1.7-.4s.5-.9.5-1.7-.3-1.3-.8-1.6C9.6 6.1 8.9 6 7.9 6H6v4.1zm1.8 14c.6 0 1.2-.1 1.8-.2s1.1-.4 1.6-.7.8-.7 1.1-1.3c.3-.5.4-1.1.4-1.9 0-1.1-.4-2-1.1-2.8s-1.7-1.1-2.8-1.1H6V24h1.8zM32 .3c0-.2.1-.3.3-.3H38c.2 0 .3.1.3.3l7.9 29.4c.1.3-.1.5-.4.5h-5.2c-.2 0-.3-.1-.3-.3l-1.8-6.4h-6.7L30 29.9c-.1.2-.2.3-.3.3h-5.2c-.3 0-.5-.2-.4-.5L32 .3zm5 17.5l-2-6.9-1.8 6.9H37zm32.7.4c-.7 1.4-1.6 2.3-2.8 2.9l3.8 8.4c.1.2.1.3 0 .4s-.2.2-.3.2h-5.6c-.2 0-.3-.1-.3-.2l-3.6-7.8h-2.3v7.6c0 .3-.1.4-.4.4H53c-.2 0-.3-.1-.3-.4V.4c0-.3.1-.4.3-.4h9.5c2.6 0 4.5.7 6 2.1 1.4 1.4 2.1 3.4 2.1 6.1V14c0 .8-.1 1.6-.2 2.3s-.5 1.3-.7 1.9zm-5.2-8.6c0-.8-.1-1.4-.3-1.9s-.4-.8-.8-1.1-.8-.4-1.4-.4-1.3-.1-2.2-.1h-1.3v10.1h1.3c.7 0 1.4 0 1.9-.1.6 0 1-.2 1.4-.4s.7-.6.9-1.1.3-1.2.4-2.1V9.6zM0 177.8V44.6c0-1.2.6-1.9 1.7-1.9h70.6c1.2 0 1.9.6 1.9 1.9v22.2c0 1.2-.6 1.9-1.9 1.9H27.4v28.2h34.9c1.1 0 1.7.6 1.7 1.9v22.6c0 1.2-.6 1.9-1.7 1.9H27.4v30.5h44.8c1.2 0 1.9.6 1.9 1.9v22.2c0 1.2-.6 1.9-1.9 1.9H1.7c-1.1-.1-1.7-.8-1.7-2zM136.4 44.6v109.2h44.8c1.2 0 1.9.6 1.9 1.9v22.2c0 1.2-.6 1.9-1.9 1.9h-70.4c-1.1 0-1.7-.6-1.7-1.9V44.6c0-1.2.6-1.9 1.7-1.9h23.7c1.2 0 1.9.6 1.9 1.9zm154 33.6c0 4-.3 7.8-.9 11.2-.6 3.5-1.7 6.5-3.2 9.1 4 3.7 6.9 8.6 8.6 14.6s2.6 13.3 2.6 21.7c0 9-1 16.6-2.9 22.8s-5.1 11-9.3 14.3c-4 3.2-8.7 5.3-14.1 6.2-5.4 1-11 1.5-16.8 1.5h-40.5c-1.1 0-1.7-.6-1.7-1.9V44.6c0-1.2.6-1.9 1.7-1.9H247c5.7 0 11.2.3 16.6 1s10.1 2.4 14.1 5c4.8 3.2 8.2 7.4 10 12.6s2.7 10.8 2.7 16.9zm-50.9 10.4h12.7c3.3 0 5.8-.7 7.6-2 1.7-1.3 2.6-3.8 2.6-7.4s-1.3-6.1-3.8-7.4c-2.6-1.3-6.1-2-10.7-2h-8.3v18.8zm7.9 63.9c2.9 0 5.7-.3 8.3-.9s5-1.7 7.1-3.1 3.7-3.4 5-5.7c1.2-2.4 1.9-5.2 1.9-8.5 0-5-1.6-9.2-4.9-12.7s-7.5-5.2-12.8-5.2h-12.5v36.1h7.9zm110-108.6c.3-.8.8-1.2 1.5-1.2h25.7c.7 0 1.2.4 1.5 1.2L422 177.4c.3 1.5-.3 2.3-1.9 2.3h-23.7c-.8 0-1.3-.4-1.5-1.2l-8.1-29.1h-30.3l-7.9 29.1c-.3.8-.8 1.2-1.5 1.2h-23.9c-1.5 0-2.1-.8-1.9-2.3l36.1-133.5zm23 79.5l-8.9-31.3-8.3 31.3h17.2z"/></svg>