<?xml version="1.0" encoding="utf-8"?>
<svg version="1.1" id="Layer_1" xmlns="http://www.w3.org/2000/svg" xmlns:xlink="http://www.w3.org/1999/xlink" x="0px" y="0px"
	 viewBox="0 0 1152.6 268" style="enable-background:new 0 0 1152.6 268;" xml:space="preserve">
<g>
	
		<linearGradient id="SVGID_1_" gradientUnits="userSpaceOnUse" x1="-382.3921" y1="2776.5068" x2="-381.9811" y2="2776.5068" gradientTransform="matrix(2809.5273 495.3953 574.8042 -922.6276 -521608.0625 2751149.25)">
		<stop  offset="0" style="stop-color:#00548E"/>
		<stop  offset="0.173" style="stop-color:#005A94"/>
		<stop  offset="0.404" style="stop-color:#0069A5"/>
		<stop  offset="0.669" style="stop-color:#0083C1"/>
		<stop  offset="0.956" style="stop-color:#00A7E7"/>
		<stop  offset="1" style="stop-color:#00ADEE"/>
	</linearGradient>
	<path style="fill:url(#SVGID_1_);" d="M1126.1,0H26.2C11.7,0,0,11.7,0,26.2v215.6C0,256.4,11.7,268,26.2,268h1100.2
		c14.4,0,26.2-11.6,26.2-26.1c0,0,0-0.1,0-0.1V26.2C1152.3,11.7,1140.6,0,1126.1,0"/>
	<path style="fill:#FCB61A;" d="M123.1,112.1c0,5.4-4.1,9.5-9.5,9.5H71c-5.4,0-9.5-4.1-9.5-9.5v-42c0-5.4,4.1-9.5,9.5-9.5h42.6
		c5.4,0,9.5,4.1,9.5,9.5V112.1L123.1,112.1z M209.3,112.1c0,5.4-4.1,9.5-9.5,9.5h-42.6c-5.4,0-9.5-4.1-9.5-9.5v-42
		c0-5.4,4.1-9.5,9.5-9.5h42.6c5.4,0,9.5,4.1,9.5,9.5V112.1L209.3,112.1z M123.1,197.6c0,5.4-4.1,9.5-9.5,9.5H71
		c-5.4,0-9.5-4.1-9.5-9.5v-42c0-5.4,4.1-9.5,9.5-9.5h42.6c5.4,0,9.5,4.1,9.5,9.5V197.6z M209.3,197.6c0,5.4-4.1,9.5-9.5,9.5h-42.6
		c-5.4,0-9.5-4.1-9.5-9.5v-42c0-5.4,4.1-9.5,9.5-9.5h42.6c5.4,0,9.5,4.1,9.5,9.5V197.6z"/>
	<path style="fill:#FFFFFF;" d="M404.4,192.3c-17.4,9.2-36.9,14.2-58.7,14.2c-43.9,0-74.8-29.7-74.8-73.9
		c0-45.5,31.3-75.1,74.8-75.1c21.8,0,41.4,4.7,55.9,18l-18.6,18.9c-9.2-8.8-23-13.9-37.3-13.9c-29.4,0-48.6,22.4-48.6,50.5
		c0,30.3,19.6,52.7,48.6,52.7c12.9,0,24.6-2.5,33.5-7.6v-33.8h-29v-23h54.3V192.3L404.4,192.3z M434.4,60.6h49.3
		c27.5,0,52.7,8.8,52.7,41c0,20.5-12,35.7-33.1,38.8l37.9,62.8h-30.6l-32.2-60.9h-18.6v60h-25.3L434.4,60.6L434.4,60.6L434.4,60.6z
		 M479.6,120.6c14.2,0,30.9-1.3,30.9-19.9c0-17-15.8-18.9-28.7-18.9H460v38.8H479.6L479.6,120.6z M564.5,60.6h94.1v23h-69.1v35h65.4
		v22.4h-65.4V180H662v23h-97.6L564.5,60.6z M813.9,192.3c-17.4,9.2-36.9,14.2-58.7,14.2c-43.9,0-74.8-29.7-74.8-73.9
		c0-45.5,31.3-75.1,74.8-75.1c21.8,0,41.4,4.7,55.9,18l-18.6,18.9c-9.2-8.8-23-13.9-37.3-13.9c-29.4,0-48.6,22.4-48.6,50.5
		c0,30.3,19.6,52.7,48.6,52.7c12.9,0,24.6-2.5,33.5-7.6v-33.8h-29v-23h54.3V192.3L813.9,192.3z M971.1,192.3
		c-17.4,9.2-36.9,14.2-58.7,14.2c-43.9,0-75.1-29.7-75.1-73.9c0-45.5,31.3-75.1,75.1-75.1c21.8,0,41.4,4.7,55.9,18l-18.6,18.9
		c-9.2-8.8-23-13.9-37.3-13.9c-29.4,0-48.6,22.4-48.6,50.5c0,30.3,19.6,52.7,48.6,52.7c12.9,0,24.6-2.5,33.5-7.6v-33.8h-28.7v-23
		h54.3L971.1,192.3L971.1,192.3L971.1,192.3z M1071.5,91.2c-5.4-7.6-15.2-11.4-24.9-11.4c-11.7,0-23.4,5.4-23.4,18.3
		c0,28.7,67.2,12.3,67.2,62.8c0,30.6-24,45.1-51.8,45.1c-17.7,0-35-5.4-46.4-19.3l19.3-18.6c6.3,9.5,17,14.8,28.1,14.8
		c11.7,0,24.9-6.3,24.9-19.6c0-31.3-67.2-13.3-67.2-63.8c0-29.4,26.2-43.3,52.1-43.3c14.8,0,29.7,4.1,40.7,14.8L1071.5,91.2
		L1071.5,91.2z"/>
</g>
</svg>
