<?xml version="1.0"?>
<svg xmlns="http://www.w3.org/2000/svg" xmlns:xlink="http://www.w3.org/1999/xlink" xmlns:svgjs="http://svgjs.com/svgjs" version="1.1" width="512" height="512" x="0" y="0" viewBox="0 0 512 512" style="enable-background:new 0 0 512 512" xml:space="preserve" class=""><g><circle xmlns="http://www.w3.org/2000/svg" id="XMLID_115_" cx="256" cy="256" fill="#f1f1f1" r="256" data-original="#fb5c59" style="" class=""/><path xmlns="http://www.w3.org/2000/svg" id="XMLID_1370_" d="m512 256c0-24.36-3.405-47.925-9.76-70.247l-111.453-111.452-266.287 164.074-76.188-53.795v142.84l81.169 81.099-8.269 16.72 81.106 81.106c17.313 3.694 35.267 5.655 53.682 5.655 141.385 0 256-114.615 256-256z" fill="#f1f1f1" data-original="#bb1000" style="" class=""/><path xmlns="http://www.w3.org/2000/svg" id="XMLID_739_" d="m150.833 416.333h30v28.667h-30z" fill="#b0afb5" data-original="#b0afb5" style=""/><path xmlns="http://www.w3.org/2000/svg" id="XMLID_722_" d="m331.167 416.333h30v28.667h-30z" fill="#8d8a94" data-original="#8d8a94" style=""/><path xmlns="http://www.w3.org/2000/svg" id="XMLID_116_" d="m121.213 125h269.575v300.239h-269.575z" fill="#ffffff" data-original="#ffffff" style="" class=""/><path xmlns="http://www.w3.org/2000/svg" id="XMLID_1104_" d="m256 125h134.79v300.24h-134.79z" fill="#fff5ca" data-original="#fff5ca" style=""/><path xmlns="http://www.w3.org/2000/svg" id="XMLID_573_" d="m121.213 74.301h269.575v55.699h-269.575z" fill="#ffee93" data-original="#ffee93" style=""/><path xmlns="http://www.w3.org/2000/svg" id="XMLID_1100_" d="m256 74.3h134.79v55.7h-134.79z" fill="#ffd000" data-original="#ffd000" style=""/><circle xmlns="http://www.w3.org/2000/svg" id="XMLID_221_" cx="255.945" cy="269.423" fill="#00a8ff" r="101.036" data-original="#00a8ff" style=""/><path xmlns="http://www.w3.org/2000/svg" id="XMLID_1099_" d="m356.98 269.42c0 55.78-45.2 101.01-100.98 101.04v-202.07c55.78.03 100.98 45.25 100.98 101.03z" fill="#006ef9" data-original="#006ef9" style=""/><circle xmlns="http://www.w3.org/2000/svg" id="XMLID_460_" cx="255.945" cy="269.423" fill="#57545c" r="72.534" data-original="#57545c" style=""/><path xmlns="http://www.w3.org/2000/svg" id="XMLID_1089_" d="m328.48 269.42c0 40.04-32.45 72.51-72.48 72.54v-145.07c40.03.03 72.48 32.49 72.48 72.53z" fill="#3a383f" data-original="#3a383f" style=""/><circle xmlns="http://www.w3.org/2000/svg" id="XMLID_572_" cx="221.503" cy="243.507" fill="#ffffff" r="15.75" data-original="#ffffff" style="" class=""/><g xmlns="http://www.w3.org/2000/svg" fill="#00a8ff"><circle id="XMLID_612_" cx="154.844" cy="102.15" r="11.844" fill="#00a8ff" data-original="#00a8ff" style=""/><circle id="XMLID_616_" cx="196.003" cy="102.15" r="11.844" fill="#00a8ff" data-original="#00a8ff" style=""/><circle id="XMLID_618_" cx="237.161" cy="102.15" r="11.844" fill="#00a8ff" data-original="#00a8ff" style=""/></g><circle xmlns="http://www.w3.org/2000/svg" id="XMLID_619_" cx="278.32" cy="102.15" fill="#006ef9" r="11.844" data-original="#006ef9" style=""/><path xmlns="http://www.w3.org/2000/svg" id="XMLID_613_" d="m321.124 89.777h45.333v24.747h-45.333z" fill="#fff5ca" data-original="#fff5ca" style=""/><path xmlns="http://www.w3.org/2000/svg" id="XMLID_856_" d="m85.432 212.58 24.44 17.52c-4.7 7.8-7.16 16.66-7.16 25.9s2.46 18.1 7.16 25.9l-24.44 17.52c-8.34-12.95-12.72-27.86-12.72-43.42s4.38-30.47 12.72-43.42z" fill="#ffffff" data-original="#ffffff" style="" class=""/><path xmlns="http://www.w3.org/2000/svg" id="XMLID_854_" d="m48.312 184.58 24.4 17.5c-10.54 16.02-16.11 34.64-16.11 53.92s5.57 37.9 16.11 53.92l-24.4 17.5c-14.2-21.16-21.71-45.86-21.71-71.42s7.511-50.26 21.71-71.42z" fill="#ffffff" data-original="#ffffff" style="" class=""/><path xmlns="http://www.w3.org/2000/svg" id="XMLID_934_" d="m426.567 212.58-24.44 17.52c4.7 7.8 7.16 16.66 7.16 25.9s-2.46 18.1-7.16 25.9l24.44 17.52c8.34-12.95 12.72-27.86 12.72-43.42s-4.379-30.47-12.72-43.42z" fill="#fff5ca" data-original="#fff5ca" style=""/><path xmlns="http://www.w3.org/2000/svg" id="XMLID_932_" d="m463.687 184.58-24.4 17.5c10.54 16.02 16.11 34.64 16.11 53.92s-5.57 37.9-16.11 53.92l24.4 17.5c14.2-21.16 21.71-45.86 21.71-71.42s-7.51-50.26-21.71-71.42z" fill="#fff5ca" data-original="#fff5ca" style=""/></g></svg>
