<?xml version="1.0" encoding="utf-8"?>
<svg version="1.1" id="Layer_1" xmlns="http://www.w3.org/2000/svg" xmlns:xlink="http://www.w3.org/1999/xlink" x="0px" y="0px"
	width="100px" height="100px" viewBox="0 0 66.7 66.7" style="enable-background:new 0 0 66.7 66.7;" xml:space="preserve">
<g>
	<circle style="fill:#E8E8E8;" cx="33.3" cy="33.3" r="33.3"/>
	<circle style="fill:#FFFFFF;" cx="33.3" cy="33.3" r="32.7"/>
	<path style="fill:#2BABE2;" d="M21.1,32.9H19c0.3-0.3,0.3-1.1,0.5-2.7v-0.4c0.1-0.9,0.1-1.6,0.1-2.1c0-0.4-0.1-0.8-0.2-0.8h2.3
		c0.5,0,1.7,0,1.7,1.2c0,0.8-0.7,1.3-1.4,1.4c0.9,0.1,1.7,0.5,1.7,1.5C23.7,32.1,22.7,32.9,21.1,32.9 M21,29.9h-0.5l-0.1,0.9
		c0,0.4-0.1,0.7-0.1,1.1c0,0.1,0.2,0.2,0.6,0.2c0.8,0,1.4-0.4,1.4-1.1C22.4,30.3,21.8,30,21,29.9 M21.2,27.6c-0.1,0-0.3,0-0.4,0
		c-0.1,0.4-0.1,0.8-0.1,1.3v0.3h0.1c0.7,0,1.5-0.3,1.5-0.9C22.3,27.9,21.9,27.6,21.2,27.6 M28.6,32.9c-0.5,0-0.5,0-1-1.4L27.5,31
		c-0.5,0.1-0.9,0.2-1.4,0.2h-0.7l-0.1,0.3c-0.1,0.3-0.4,0.9-0.4,1.2c0,0.1,0,0.1,0,0.3h-1.5c0.4-0.5,0.9-1.4,1.7-2.9l0.4-0.9
		c0.3-0.6,0.5-1.2,0.8-1.9c0-0.1,0-0.2-0.1-0.3h1.3l0.7,2.4l0.3,0.9c0.5,1.6,0.7,2.4,1.1,2.7C29.2,32.9,28.8,32.9,28.6,32.9
		 M26.7,28.3l-1,2.1h1.6L26.7,28.3 M34.3,33.1c-0.5,0-0.5-0.1-0.7-0.3L32,30.5c-0.1-0.2-0.3-0.3-0.5-0.3l0,0v0.5l-0.1,1.5
		c0,0.4,0.1,0.7,0.2,0.7H30c0.3-0.2,0.3-0.9,0.5-2.7v-0.4c0-0.9,0.1-1.6,0.1-2.1c0-0.4-0.1-0.7-0.2-0.8h2.2c0.7,0,1.7,0.1,1.7,1.3
		c0,1-0.6,1.5-1.5,1.7c0.1,0.1,0.2,0.2,0.3,0.3l1.2,1.6c0.7,1,0.8,1.1,1.1,1.2C35.1,33.1,34.6,33.1,34.3,33.1 M32.1,27.6
		c-0.1,0-0.3,0-0.5,0c-0.1,0.3-0.1,0.7-0.1,1.4v0.4c0.1,0,0.2,0,0.3,0c0.7,0,1.3-0.5,1.3-1.1C33,27.9,32.7,27.6,32.1,27.6 M37.5,33
		c-1.5,0-2.5-1.3-2.5-2.7c0-2,1.1-3.5,3.1-3.5c0.6,0,0.9,0.1,1.5,0.1l-0.1,1.5c-0.3-0.5-0.8-0.9-1.4-0.9c-1.3,0-1.8,1.4-1.8,2.5
		c0,1.3,0.7,2,1.7,2c0.5,0,1-0.1,1.7-0.7C39.5,32.4,38.5,33.1,37.5,33 M48.1,32.9c-0.5,0-0.5,0-1-1.4L46.9,31
		c-0.5,0.1-0.9,0.2-1.4,0.2h-0.7l-0.1,0.3c-0.2,0.4-0.3,0.8-0.4,1.2v0.3h-4.2c0.3-0.3,0.3-1.1,0.5-2.7v-0.4c0.1-0.9,0.1-1.6,0.1-2.1
		c0-0.3,0-0.5-0.1-0.8h1.7c-0.3,0.1-0.3,1.1-0.4,2.7V30c0,0.6-0.1,1.2-0.1,1.8c0,0.3,0.1,0.3,0.4,0.3c1,0,1.3,0,1.7-0.3
		c0.3-0.5,0.5-1.1,0.9-1.8l0.4-0.9c0.3-0.6,0.5-1.2,0.8-1.9c0-0.1,0-0.2-0.1-0.3H47l0.7,2.4l0.3,0.9c0.5,1.6,0.7,2.4,1.1,2.7
		C48.7,32.9,48.2,32.9,48.1,32.9 M46.2,28.3l-1,2.1h1.6L46.2,28.3 M51.9,29.7c-0.1,0.3-0.3,0.5-0.4,0.8c-0.1,0.5-0.1,1.1-0.1,1.7
		c0,0.3,0.1,0.5,0.2,0.8h-1.7c0.3-0.3,0.4-1.9,0.4-2.5c-0.3-0.8-0.5-1.6-1-2.3c-0.3-0.5-0.6-1.1-0.8-1.2c0.4,0,0.8-0.1,1.1-0.1
		c0.4,0,0.5,0.1,0.7,0.6c0.4,0.9,0.7,1.5,0.9,2.1l1.1-1.7c0.1-0.1,0.1-0.3,0.2-0.5c0-0.1,0-0.3-0.1-0.3h1.6
		C53.5,26.9,52.1,29.1,51.9,29.7 M57.3,28.3c-0.3-0.5-0.8-0.8-1.4-0.8c-0.5,0-1,0.2-1,0.7c0,0.5,0.5,0.7,1.1,1.1
		c0.7,0.4,1.3,0.9,1.3,1.7c0,1.1-1.1,1.8-2.3,1.8c-0.6,0-1.1-0.1-1.7-0.3l0.1-1.5c0.3,0.7,0.9,1.1,1.7,1.1c0.6,0,1.1-0.3,1.1-0.8
		c0-0.5-0.4-0.7-0.9-1c-1-0.6-1.6-1.1-1.6-1.9c0-1.3,1.1-1.7,2.2-1.7c0.7,0,1.1,0.1,1.5,0.1L57.3,28.3L57.3,28.3z M16.9,29.3
		c0,0.9-0.3,1.9-0.8,2.7c0,0,0,0-0.1,0c-0.3-0.3-0.5-0.5-0.6-0.8c-0.1,0-0.1,0.1-0.1,0.1c0.1,0.3,0.2,0.7,0.4,1
		c0.1,0.1-0.1,0.3-0.2,0.2c-0.5-0.4-0.9-0.9-1.1-1.5c-0.1,0.1-0.1,0.1-0.1,0.2c0.1,0.7,0.5,1.2,0.9,1.7c0,0,0,0,0,0.1l0,0
		c-0.6,0.5-1.3,1-2.1,1.3c-0.8-0.3-1.5-0.7-2.1-1.3c0,0,0,0,0-0.1c0.5-0.5,0.7-1.1,0.9-1.7c0-0.1,0-0.1-0.1-0.2
		c-0.3,0.6-0.6,1.1-1.1,1.5c-0.1,0.1-0.3,0-0.2-0.2c0.2-0.3,0.3-0.7,0.4-1c0-0.1,0-0.1-0.1-0.1c-0.1,0.3-0.4,0.6-0.6,0.8h-0.1
		c-0.5-0.8-0.9-1.7-0.9-2.7c0-1.8,0.7-2.3,1.4-2.3c0.5,0,0.7,0.3,0.7,0.5c0,0.1-0.1,0.3-0.3,0.3c0.1,0.1,0.3,0.3,0.5,0.2
		c0.5,0,0.7-0.3,0.7-0.9c0-0.3-0.2-0.5-0.5-0.5h-0.1c-0.2,0-0.3,0-0.3,0.1c-0.1-0.2,0.1-0.6,0.7-0.6h0.1c0.1-0.1,0.1-0.1,0.2-0.1
		c0.2,0,0.4,0,0.5,0.1c0.4,0.1,0.5,0.4,0.5,1.1c0,0.6,0.3,0.9,0.7,1c0.2,0,0.4-0.1,0.5-0.2c-0.1-0.1-0.3-0.2-0.3-0.3
		c0-0.3,0.3-0.5,0.7-0.5C16.1,26.9,16.9,27.5,16.9,29.3L16.9,29.3z"/>
	<path style="fill:#4E4E4E;" d="M11.2,36c0.3-0.1,0.7-0.1,1.1-0.1c0.6,0,1,0.1,1.3,0.4c0.3,0.2,0.4,0.5,0.4,1c0,0.4-0.1,0.7-0.3,1
		c-0.3,0.3-0.9,0.5-1.5,0.5c-0.2,0-0.4,0-0.5-0.1v1.9h-0.5V36L11.2,36z M11.8,38.3c0.1,0,0.3,0.1,0.5,0.1c0.7,0,1.2-0.3,1.2-1
		c0-0.6-0.5-0.9-1.1-0.9c-0.3,0-0.5,0-0.6,0.1L11.8,38.3L11.8,38.3L11.8,38.3z M17.1,39.9c0,0.3,0,0.5,0.1,0.7h-0.5l-0.1-0.5l0,0
		c-0.2,0.3-0.5,0.5-1,0.5c-0.7,0-1-0.5-1-0.9c0-0.8,0.7-1.3,2-1.3v-0.1c0-0.3-0.1-0.8-0.8-0.8c-0.3,0-0.6,0.1-0.9,0.3l-0.2-0.3
		c0.3-0.2,0.7-0.3,1.1-0.3c1,0,1.3,0.7,1.3,1.4L17.1,39.9L17.1,39.9z M16.5,38.9c-0.7,0-1.4,0.1-1.4,0.7c0,0.4,0.3,0.6,0.6,0.6
		c0.5,0,0.7-0.3,0.8-0.5c0-0.1,0-0.1,0-0.2L16.5,38.9C16.5,38.9,16.5,38.9,16.5,38.9z M18,38.3c0-0.5,0-0.7,0-1.1h0.5v0.7l0,0
		c0.1-0.5,0.5-0.7,0.9-0.7c0.1,0,0.1,0,0.2,0.1v0.6c-0.1,0-0.1,0-0.2,0c-0.4,0-0.7,0.3-0.8,0.8c0,0.1-0.1,0.2-0.1,0.3v1.7h-0.5
		L18,38.3C18.1,38.3,18,38.3,18,38.3z M21.3,36.5v0.8h0.9v0.5h-0.9v1.7c0,0.4,0.1,0.7,0.5,0.7c0.1,0,0.3,0,0.3-0.1v0.5
		c-0.1,0.1-0.3,0.1-0.5,0.1c-0.3,0-0.5-0.1-0.7-0.3c-0.2-0.2-0.3-0.5-0.3-0.9v-1.8h-0.5v-0.5h0.5v-0.5L21.3,36.5L21.3,36.5z
		 M22.7,38.3v-1h0.5v0.5l0,0c0.1-0.3,0.5-0.6,1.1-0.6c0.5,0,1.2,0.3,1.2,1.5v2h-0.5v-2c0-0.5-0.2-1-0.8-1c-0.4,0-0.7,0.3-0.8,0.6
		c0,0.1,0,0.2,0,0.3v2h-0.7L22.7,38.3L22.7,38.3z M26.9,39.1c0.1,0.8,0.5,1.1,1.2,1.1c0.5,0,0.7-0.1,0.9-0.2l0.1,0.5
		c-0.2,0.1-0.6,0.2-1.1,0.2c-1.1,0-1.7-0.7-1.7-1.7s0.6-1.8,1.6-1.8c1.1,0,1.4,1,1.4,1.6c0,0.1,0,0.2,0,0.3L26.9,39.1
		C26.9,39.1,26.9,39.1,26.9,39.1z M28.7,38.7c0-0.4-0.1-1-0.9-1c-0.6,0-0.9,0.5-0.9,1H28.7L28.7,38.7z M30.1,38.3c0-0.5,0-0.7,0-1.1
		h0.5v0.7l0,0c0.1-0.5,0.5-0.7,0.9-0.7c0.1,0,0.1,0,0.2,0.1v0.6c-0.1,0-0.1,0-0.2,0c-0.4,0-0.7,0.3-0.8,0.8c0,0.1,0,0.2,0,0.3v1.7
		h-0.7L30.1,38.3L30.1,38.3z M33.9,35.9h2.5v0.5h-1.9V38h1.7v0.5h-1.7v2.1h-0.5L33.9,35.9C33.9,36,33.9,35.9,33.9,35.9z M37.7,36.3
		c0,0.2-0.1,0.4-0.4,0.4c-0.2,0-0.4-0.1-0.4-0.4c0-0.2,0.1-0.4,0.4-0.4C37.6,35.9,37.7,36.1,37.7,36.3z M37.1,40.7v-3.4h0.7v3.4
		H37.1z M38.7,38.3v-1h0.5v0.5l0,0c0.1-0.3,0.5-0.6,1.1-0.6c0.5,0,1.2,0.3,1.2,1.5v2H41v-2c0-0.5-0.2-1-0.8-1
		c-0.4,0-0.7,0.3-0.8,0.6c0,0.1,0,0.2,0,0.3v2h-0.7L38.7,38.3L38.7,38.3z M44.9,39.8c0,0.3,0,0.6,0.1,0.8h-0.5l-0.1-0.5l0,0
		c-0.2,0.3-0.5,0.5-1.1,0.5c-0.7,0-1.1-0.5-1.1-0.9c0-0.8,0.7-1.3,2-1.3v-0.1c0-0.3-0.1-0.8-0.7-0.8c-0.3,0-0.6,0.1-0.9,0.3
		l-0.1-0.4c0.3-0.2,0.7-0.3,1.1-0.3c1.1,0,1.3,0.7,1.3,1.4V39.8L44.9,39.8z M44.3,38.9c-0.7,0-1.5,0.1-1.5,0.7
		c0,0.4,0.3,0.6,0.5,0.6c0.5,0,0.7-0.3,0.8-0.5c0-0.1,0.1-0.1,0.1-0.2C44.3,39.5,44.3,38.9,44.3,38.9z M45.9,38.3c0-0.5,0-0.7,0-1
		h0.5v0.5l0,0c0.1-0.3,0.5-0.6,1.1-0.6c0.5,0,1.1,0.3,1.1,1.5v2h-0.5v-2c0-0.5-0.2-1-0.8-1c-0.4,0-0.7,0.3-0.8,0.6
		c0,0.1,0,0.2,0,0.3v2h-0.7V38.3L45.9,38.3z M52.1,40.5c-0.1,0.1-0.5,0.2-1,0.2c-1,0-1.7-0.7-1.7-1.7s0.7-1.8,1.8-1.8
		c0.3,0,0.7,0.1,0.9,0.2L52,37.9c-0.1-0.1-0.4-0.1-0.7-0.1c-0.7,0-1.2,0.5-1.2,1.3c0,0.8,0.5,1.3,1.1,1.3c0.3,0,0.6-0.1,0.7-0.1
		L52.1,40.5L52.1,40.5z M53.2,39.1c0,0.8,0.5,1.1,1.1,1.1c0.5,0,0.7-0.1,0.9-0.2l0.1,0.5c-0.2,0.1-0.6,0.2-1.1,0.2
		c-1.1,0-1.7-0.7-1.7-1.7s0.6-1.8,1.6-1.8c1.1,0,1.4,1,1.4,1.6c0,0.1,0,0.2,0,0.3L53.2,39.1C53.2,39.1,53.2,39.1,53.2,39.1z
		 M54.9,38.7c0-0.4-0.1-1-0.9-1c-0.6,0-0.9,0.5-0.9,1H54.9L54.9,38.7z"/>
</g>
</svg>
