<?xml version="1.0" encoding="utf-8"?>
<svg version="1.1" id="Layer_1" xmlns="http://www.w3.org/2000/svg" xmlns:xlink="http://www.w3.org/1999/xlink" x="0px" y="0px"
	width="100px" height="100px" viewBox="0 0 66.7 66.7" style="enable-background:new 0 0 66.7 66.7;" xml:space="preserve">
<g>
	<circle style="fill:#E8E8E8;" cx="33.3" cy="33.3" r="33.3"/>
	<circle style="fill:#FFFFFF;" cx="33.3" cy="33.3" r="32.7"/>
	<path style="fill:#004421;" d="M24.9,31.3c-0.2-0.1-0.5-0.2-0.8-0.2h-0.7V33h0.7c0.7,0,1.2-0.3,1.2-1
		C25.3,31.7,25.1,31.4,24.9,31.3 M25.9,36.3c-0.1,0-0.3-0.1-0.4-0.3l-1.6-2.3h-0.5v2.1c0,0.3-0.2,0.5-0.5,0.5
		c-0.3,0-0.5-0.1-0.5-0.5V31c0-0.4,0.1-0.5,0.1-0.5c0.1-0.1,0.2-0.1,0.5-0.1H24c0.7,0,1.1,0.1,1.5,0.3c0.4,0.3,0.6,0.7,0.6,1.3
		c0,0.9-0.5,1.5-1.4,1.6l1.4,1.9c0.1,0.1,0.1,0.2,0.1,0.3C26.3,36.2,26.1,36.3,25.9,36.3 M58.6,31c0,0.1-0.1,0.1-0.1,0.1h-0.1v-0.2
		h0.1L58.6,31L58.6,31 M58.8,31.5c0-0.1,0-0.1-0.1-0.1l-0.1-0.2c0.1,0,0.2-0.1,0.2-0.2c0-0.1,0-0.2-0.1-0.2
		c-0.1-0.1-0.1-0.1-0.3-0.1h-0.1h-0.1v0.1v0.7c0,0.1,0.1,0.1,0.1,0.1s0.1-0.1,0.1-0.1v-0.3l0,0l0.2,0.3l0.1,0.1
		C58.8,31.6,58.8,31.6,58.8,31.5 M59.1,31.2c0,0.3-0.2,0.6-0.6,0.7c0,0-0.1,0-0.1,0c-0.3,0-0.6-0.2-0.7-0.6c0,0,0-0.1,0-0.1
		c0-0.3,0.2-0.6,0.6-0.7c0,0,0.1,0,0.1,0C58.8,30.5,59.1,30.8,59.1,31.2C59.1,31.1,59.1,31.2,59.1,31.2 M59.4,31.2
		c0-0.5-0.4-0.9-0.9-0.9c-0.5,0-0.9,0.4-0.9,0.9c0,0.5,0.4,0.9,0.9,0.9C59,32.1,59.4,31.7,59.4,31.2 M56.7,35.9v-5.1
		c0-0.3-0.3-0.5-0.5-0.5c-0.3,0-0.5,0.2-0.5,0.5v3.8l-3.2-4.1c-0.1-0.1-0.1-0.2-0.4-0.2c-0.3,0-0.3,0.3-0.3,0.5v5.1
		c0,0.3,0.2,0.5,0.5,0.5s0.5-0.2,0.5-0.5v-3.7l3.1,3.9c0.3,0.3,0.4,0.4,0.5,0.4C56.6,36.3,56.7,36.1,56.7,35.9 M50.5,33.2
		c0-0.4-0.3-0.5-0.6-0.7l-3.2-2.2c-0.1-0.1-0.2-0.1-0.3-0.1c-0.2,0-0.4,0.2-0.4,0.4c0,0.2,0.1,0.3,0.3,0.4l3.2,2.2l-3.3,2.3
		c-0.2,0.1-0.2,0.3-0.2,0.4c0,0.2,0.2,0.4,0.4,0.4c0.1,0,0.2-0.1,0.3-0.1l3.2-2.3C50.2,33.7,50.5,33.6,50.5,33.2 M44.5,35.9v-5.1
		c0-0.3-0.2-0.5-0.5-0.5s-0.5,0.2-0.5,0.5v2h-2.7v-2c0-0.3-0.2-0.5-0.5-0.5s-0.5,0.2-0.5,0.5v5.1c0,0.3,0.2,0.5,0.5,0.5
		s0.5-0.2,0.5-0.5v-2.3h2.7v2.3c0,0.3,0.2,0.5,0.5,0.5C44.4,36.4,44.5,36.2,44.5,35.9 M38.7,30.8c0-0.2-0.2-0.4-0.5-0.4h-3.3
		c-0.3,0-0.5,0.1-0.5,0.4c0,0.3,0.2,0.4,0.5,0.4h1.2v4.7c0,0.3,0.2,0.5,0.5,0.5s0.5-0.2,0.5-0.5v-4.7h1.2
		C38.6,31.1,38.7,31,38.7,30.8 M31.4,35.9c0-0.2-0.2-0.4-0.5-0.4h-2v-1.9h1.9c0.3,0,0.5-0.1,0.5-0.4c0-0.3-0.2-0.4-0.5-0.4h-1.9
		v-1.7h2c0.3,0,0.5-0.1,0.5-0.4c0-0.3-0.2-0.4-0.5-0.4h-2.3c-0.3,0-0.3,0-0.5,0.1s-0.1,0.2-0.1,0.5v4.6c0,0.3,0.1,0.4,0.1,0.5
		c0.1,0.1,0.2,0.1,0.5,0.1h2.3C31.3,36.3,31.4,36.1,31.4,35.9 M20.1,33.3c0,1.3-1,2.3-2.2,2.3c-1.2,0-2.2-1-2.2-2.2
		c0-1.3,1-2.3,2.2-2.3C19.1,31.1,20.1,32.1,20.1,33.3 M21,33.3c0-1.7-1.3-3.1-3.1-3.1c-1.7,0-3.1,1.3-3.1,3.1c0,1.7,1.3,3.1,3.1,3.1
		C19.7,36.4,21,35.1,21,33.3 M12.5,30.3c0.2,0,0.3,0.1,0.3,0.3l0.9,5.1v0.2c0,0.3-0.1,0.5-0.4,0.5c-0.3,0-0.4-0.2-0.5-0.5l-0.7-3.7
		L11,35.3c-0.1,0.2-0.2,0.5-0.5,0.5c-0.3,0-0.4-0.3-0.5-0.5l-1.3-3.1l-0.5,3.7c0,0.2-0.1,0.5-0.5,0.5c-0.3,0-0.4-0.2-0.4-0.5v-0.2
		l0.9-5.1c0-0.2,0.1-0.3,0.3-0.3c0,0,0,0,0,0c0.2,0,0.3,0.1,0.3,0.3l1.7,3.9l1.7-3.9C12.3,30.4,12.3,30.3,12.5,30.3"/>
</g>
</svg>
