<?xml version="1.0" encoding="utf-8"?>
<svg version="1.1" id="Layer_1" xmlns="http://www.w3.org/2000/svg" xmlns:xlink="http://www.w3.org/1999/xlink" x="0px" y="0px"
	width="100px" height="100px" viewBox="0 0 72.2 72.2" style="enable-background:new 0 0 72.2 72.2;" xml:space="preserve">
<g>
	<circle style="fill:#E8E8E8;" cx="36.1" cy="36.1" r="36.1"/>
	<circle style="fill:#FFFFFF;" cx="36.1" cy="36.1" r="35.4"/>
	<path style="fill:#11363D;" d="M37.5,32.2l4.6,1.7c0.7,0.3,1.7-0.1,1.7-0.6V21.6c0-0.3-0.2-0.5-0.6-0.6l-4.6-1.7
		c-0.7-0.3-1.7,0.1-1.7,0.6v11.6C36.9,31.7,37.2,32,37.5,32.2 M37.5,53l4.6,1.7c0.7,0.3,1.7-0.1,1.7-0.6V42.4c0-0.3-0.2-0.5-0.6-0.6
		l-4.6-1.7c-0.7-0.3-1.7,0.1-1.7,0.6v11.6C36.9,52.7,37.2,52.9,37.5,53 M29,28.3l4.6,1.7c0.7,0.3,1.7-0.1,1.7-0.6V16.7
		c0-0.3-0.2-0.5-0.6-0.6l-4.6-1.7c-0.7-0.3-1.7,0.1-1.7,0.6v12.6C28.4,27.8,28.6,28.1,29,28.3 M29,56.1l4.6,1.7
		c0.7,0.3,1.7-0.1,1.7-0.6V44.6c0-0.3-0.2-0.5-0.6-0.6l-4.6-1.7c-0.7-0.3-1.7,0.1-1.7,0.6v12.6C28.4,55.8,28.6,56,29,56.1
		 M26.8,17.2c0-0.2-0.2-0.5-0.6-0.6l-4.6-1.7c-0.7-0.3-1.7,0.1-1.7,0.6v39.6c0,0.3,0.2,0.5,0.6,0.6l4.6,1.7c0.7,0.3,1.7-0.1,1.7-0.6
		V17.2C26.8,17.2,26.8,17.2,26.8,17.2z M51.7,27.6L47,26c-0.7-0.3-1.7,0.1-1.7,0.6v19.1c0,0.3,0.2,0.5,0.6,0.6l4.6,1.7
		c0.7,0.3,1.7-0.1,1.7-0.6V28.3C52.3,28,52,27.8,51.7,27.6"/>
</g>
</svg>
