<?xml version="1.0" encoding="utf-8"?>
<svg version="1.1" id="Layer_1" xmlns="http://www.w3.org/2000/svg" xmlns:xlink="http://www.w3.org/1999/xlink" x="0px" y="0px"
	width="100px" height="100px" viewBox="0 0 100 100" style="enable-background:new 0 0 100 100;" xml:space="preserve">
<g>
	<path style="fill:#E8E8E8;" d="M50,0c27.61,0,50,22.39,50,50s-22.39,50-50,50S0,77.61,0,50S22.39,0,50,0"/>
	<path style="fill:#FFFFFF;" d="M50,1c27.06,0,49,21.94,49,49S77.06,99,50,99S1,77.06,1,50S22.94,1,50,1"/>
	<g>
		<path id="path46293" style="fill:#EC1B24;" d="M10.53,42.75l63.1,0v12.06l-63.1,0V42.75"/>
		<path id="path46321" style="fill:#FFFFFF;" d="M55.38,44.92c0.54,0,0.88,0.2,1.39,0.85l3.78,5.4c0.2,0.28,0.18,0.73-0.17,1.03
			c-0.31,0.26-0.85,0.28-1.14-0.11l-0.9-1.25h-5.95l-0.9,1.27c-0.32,0.38-0.71,0.38-1.06,0.14c-0.37-0.25-0.46-0.72-0.24-1.05
			L54,45.76C54.48,45.09,54.87,44.92,55.38,44.92z M55.61,46.91c-0.1-0.15-0.14-0.16-0.24-0.16c-0.12,0-0.17,0.06-0.25,0.17
			c-0.13,0.17-1.64,2.4-1.66,2.4h3.82C57.28,49.33,55.82,47.23,55.61,46.91"/>
		<path id="path46349" style="fill:#FFFFFF;" d="M29.63,44.92h5.44c1.35,0,1.47,1.55,1.47,1.55h-6.69c-0.33,0-0.64,0.25-0.64,0.69
			c0,0.5,0.38,0.73,0.62,0.73h4.73c0.94,0,2.27,0.78,2.27,2.13c0,1.75-1.55,2.37-2.09,2.37h-5.53c-1.64,0-1.55-1.57-1.55-1.57h6.86
			c0.27,0,0.68-0.27,0.68-0.68c0-0.39-0.35-0.69-0.62-0.69h-4.63c-1.31,0-2.33-0.98-2.33-2.3C27.61,45.67,28.88,44.92,29.63,44.92"
			/>
		<path id="path46377" style="fill:#FFFFFF;" d="M64.49,44.91h5.62c0.85,0,2.17,0.7,2.17,2.36v0.11c0,0.89-0.55,1.66-1.33,2.04
			c0,0,0.06,0.08,1.26,1.72c0.16,0.21,0.17,0.72-0.18,1.03c-0.33,0.29-0.87,0.33-1.14,0.01c-0.38-0.44-0.83-1.03-2.04-2.57h-2.19
			c-0.63,0-1.47-0.5-1.47-1.59h4.74c0.26-0.01,0.67-0.26,0.67-0.74c0-0.45-0.4-0.76-0.67-0.76h-5.24l0,4.96
			c0,0.54-0.42,0.91-0.86,0.91c-0.43,0-0.85-0.38-0.85-0.88v-5.06C62.97,45.6,63.87,44.91,64.49,44.91"/>
		<path id="path46405" style="fill:#FFFFFF;" d="M41.35,44.93h5.62c0.85,0,2.17,0.7,2.17,2.36v0.11c0,0.89-0.55,1.66-1.33,2.04
			c0,0-0.4,0.13-0.78,0.18h-3.53c-0.63,0-1.43-0.51-1.43-1.6h4.7c0.26-0.01,0.68-0.23,0.68-0.72c0-0.45-0.4-0.76-0.67-0.76l-5.24,0
			l0,4.97c0,0.54-0.42,0.91-0.86,0.91c-0.43,0-0.85-0.38-0.85-0.88v-5.06C39.82,45.61,40.72,44.93,41.35,44.93"/>
		<path id="path46433" style="fill:#157946;" d="M76.64,48.94c0,2.31,1.17,4.39,3.22,5.4c1.93,0.95,4.5,0.95,6.43,0
			c1.91-0.94,3.21-3.09,3.21-5.4c0-3.54-2.83-6.43-6.43-6.43C79.45,42.51,76.64,45.38,76.64,48.94"/>
		<path id="path46461" style="fill:#FFFFFF;" d="M83.07,44.17c-0.65,2.19-2.58,5.41-3.98,6.99h3.34l0.01,0.96
			c-0.01,0.54-0.44,1.1-1.07,1.1c-0.87-0.01-1.96-0.41-2.62-1.53c-0.48-0.82-0.83-1.46-0.83-2.75c0-2.81,2.27-5.14,5.15-5.14
			c2.85,0,5.15,2.4,5.15,5.14c0,1.29-0.6,2.4-0.8,2.72c-0.7,1.14-1.78,1.54-2.61,1.55c-0.57,0.01-1.1-0.41-1.1-1.1v-0.95h3.39
			C85.64,49.58,83.71,46.37,83.07,44.17"/>
	</g>
</g>
</svg>
