<?xml version="1.0"?>
<svg xmlns="http://www.w3.org/2000/svg" xmlns:xlink="http://www.w3.org/1999/xlink" xmlns:svgjs="http://svgjs.com/svgjs" version="1.1" width="512" height="512" x="0" y="0" viewBox="0 0 512 512" style="enable-background:new 0 0 512 512" xml:space="preserve" class=""><g><path xmlns="http://www.w3.org/2000/svg" d="m512 256c0 141.386719-114.613281 256-256 256s-256-114.613281-256-256 114.613281-256 256-256 256 114.613281 256 256zm0 0" fill="#f1f1f1" data-original="#014059" style="" class=""/><path xmlns="http://www.w3.org/2000/svg" d="m510.789062 280.921875-187.289062-187.289063-9.242188 9.242188-58.242187-58.242188-3.515625 53.367188 1.226562 35.554688-39.464843 39.460937 23.238281 22.484375-32 12.75-41.234375-13.320312-14.375 14.378906 21.445313 20.359375-30.667969 55.332031 23.667969 103.667969-58.445313 30.765625 83.90625 83.90625c21.117187 5.636718 43.304687 8.660156 66.203125 8.660156 132.976562 0 242.257812-101.390625 254.789062-231.078125zm0 0" fill="#f1f1f1" data-original="#012231" style="" class=""/><path xmlns="http://www.w3.org/2000/svg" d="m289.757812 126.542969 33.761719-32.910157-46.65625-6.78125-20.863281-42.265624-14.640625 81.957031 14.640625 24.53125 41.726562 21.9375zm0 0" fill="#aa665f" data-original="#aa665f" style=""/><path xmlns="http://www.w3.org/2000/svg" d="m255.996094 44.585938-20.867188 42.277343-46.65625 6.78125 33.761719 32.910157-7.972656 46.46875 41.734375-21.941407c.003906.003907.003906-106.488281 0-106.496093zm0 0" fill="#ba7b75" data-original="#ba7b75" style=""/><path xmlns="http://www.w3.org/2000/svg" d="m256 185.144531-14.640625 10.980469 14.640625 10.980469c58.53125 0 106.152344 42.695312 106.152344 95.171875 0 52.480468-47.621094 95.171875-106.152344 95.171875l-14.640625 10.984375 14.640625 10.980468c70.644531 0 128.117188-52.546874 128.117188-117.136718s-57.472657-117.132813-128.117188-117.132813zm0 0" fill="#009ad2" data-original="#009ad2" style="" class=""/><path xmlns="http://www.w3.org/2000/svg" d="m149.847656 302.277344c0-52.476563 47.621094-95.171875 106.152344-95.171875v-21.960938c-70.644531 0-128.117188 52.546875-128.117188 117.132813 0 64.589844 57.472657 117.136718 128.117188 117.136718v-21.964843c-58.53125 0-106.152344-42.691407-106.152344-95.171875zm0 0" fill="#00b8fa" data-original="#00b8fa" style="" class=""/><path xmlns="http://www.w3.org/2000/svg" d="m406.078125 397.449219-19.765625.003906c-13.070312 0-26.476562-10.78125-29.277344-23.546875l-35.191406-160.4375c5.964844-2.679688 12.539062-4.164062 19.371094-4.164062h20.9375v-21.964844h-20.9375c-16.046875 0-31.707032 5.597656-44.09375 15.761718-12.207032 10.019532-20.71875 24.003907-23.957032 39.382813l-17.164062 84.765625h-7.320312l7.320312 48.238281h12.640625l26.019531-128.515625c1.414063-6.671875 4.230469-12.777344 8.085938-18.046875l32.835937 149.683594c5.019531 22.882813 27.304688 40.808594 50.730469 40.804687h19.765625zm0 0" fill="#009ad2" data-original="#009ad2" style="" class=""/><path xmlns="http://www.w3.org/2000/svg" d="m238.855469 242.570312-.019531-.085937c-3.242188-15.378906-11.75-29.363281-23.960938-39.382813-12.386719-10.164062-28.042969-15.761718-44.089844-15.761718h-20.9375v21.964844h20.9375c6.832032 0 13.40625 1.484374 19.371094 4.164062l-35.191406 160.433594c-2.800782 12.769531-16.207032 23.550781-29.277344 23.550781l-19.765625-.003906v21.964843h19.765625c23.429688 0 45.710938-17.921874 50.730469-40.804687l32.835937-149.6875c3.859375 5.273437 6.675782 11.382813 8.085938 18.054687l26.019531 128.511719h12.640625v-48.242187zm0 0" fill="#00b8fa" data-original="#00b8fa" style="" class=""/></g></svg>
