<?xml version="1.0"?>
<svg xmlns="http://www.w3.org/2000/svg" xmlns:xlink="http://www.w3.org/1999/xlink" xmlns:svgjs="http://svgjs.com/svgjs" version="1.1" width="512" height="512" x="0" y="0" viewBox="0 0 512 512" style="enable-background:new 0 0 512 512" xml:space="preserve" class=""><g>
<circle xmlns="http://www.w3.org/2000/svg" style="" cx="256" cy="256" r="256" fill="#f1f1f1" data-original="#b9eaff" class=""/>
<path xmlns="http://www.w3.org/2000/svg" style="" d="M77.951,439.92C124.025,484.532,186.801,512,256,512c141.385,0,256-114.615,256-256  c0-40.01-9.185-77.873-25.551-111.604L442,94.616L89,129L77.951,439.92z" fill="#f1f1f1" data-original="#35ccff" class=""/>
<rect xmlns="http://www.w3.org/2000/svg" x="89" y="222" style="" width="153.33" height="61.761" fill="#ffecb3" data-original="#ffecb3" class=""/>
<rect xmlns="http://www.w3.org/2000/svg" x="70" y="129" style="" width="30.762" height="186" fill="#ffdc00" data-original="#ffdc00" class=""/>
<rect xmlns="http://www.w3.org/2000/svg" x="411.24" y="129" style="" width="30.762" height="186" fill="#ffc000" data-original="#ffc000"/>
<path xmlns="http://www.w3.org/2000/svg" style="" d="M107.2,181.461L107.2,181.461c-20.545,0-37.2-16.655-37.2-37.2V94.616h74.4v49.645  C144.4,164.806,127.745,181.461,107.2,181.461z" fill="#f1333f" data-original="#f1333f"/>
<path xmlns="http://www.w3.org/2000/svg" style="" d="M404.8,181.461L404.8,181.461c-20.545,0-37.2-16.655-37.2-37.2V94.616H442v49.645  C442,164.806,425.345,181.461,404.8,181.461z" fill="#ae283f" data-original="#ae283f" class=""/>
<path xmlns="http://www.w3.org/2000/svg" style="" d="M181.6,181.461L181.6,181.461c-20.545,0-37.2-16.655-37.2-37.2V94.616h74.4v49.645  C218.8,164.806,202.145,181.461,181.6,181.461z" fill="#ffffff" data-original="#ffffff" class=""/>
<path xmlns="http://www.w3.org/2000/svg" style="" d="M256,181.461L256,181.461c-20.545,0-37.2-16.655-37.2-37.2V94.616h74.4v49.645  C293.2,164.806,276.545,181.461,256,181.461z" fill="#f1333f" data-original="#f1333f"/>
<path xmlns="http://www.w3.org/2000/svg" style="" d="M256,94.616v86.845l0,0c20.545,0,37.2-16.655,37.2-37.2V94.616H256z" fill="#ae283f" data-original="#ae283f" class=""/>
<path xmlns="http://www.w3.org/2000/svg" style="" d="M330.4,181.461L330.4,181.461c-20.545,0-37.2-16.655-37.2-37.2V94.616h74.4v49.645  C367.6,164.806,350.945,181.461,330.4,181.461z" fill="#e0e0e0" data-original="#e0e0e0" class=""/>
<rect xmlns="http://www.w3.org/2000/svg" x="70" y="283.76" style="" width="372" height="132.06" fill="#f1333f" data-original="#f1333f"/>
<rect xmlns="http://www.w3.org/2000/svg" x="256" y="283.76" style="" width="186" height="132.06" fill="#ae283f" data-original="#ae283f" class=""/>
<rect xmlns="http://www.w3.org/2000/svg" x="355" y="229.04" style="" width="45" height="54.723" fill="#ffffff" data-original="#ffffff" class=""/>
<path xmlns="http://www.w3.org/2000/svg" style="" d="M39.718,393C85.119,464.524,165.011,512,256,512s170.881-47.476,216.282-119H39.718z" fill="#6eba3b" data-original="#6eba3b" class=""/>
<path xmlns="http://www.w3.org/2000/svg" style="" d="M256,393v119c90.989,0,170.881-47.476,216.282-119H256z" fill="#488057" data-original="#488057"/>
<g xmlns="http://www.w3.org/2000/svg">
</g>
<g xmlns="http://www.w3.org/2000/svg">
</g>
<g xmlns="http://www.w3.org/2000/svg">
</g>
<g xmlns="http://www.w3.org/2000/svg">
</g>
<g xmlns="http://www.w3.org/2000/svg">
</g>
<g xmlns="http://www.w3.org/2000/svg">
</g>
<g xmlns="http://www.w3.org/2000/svg">
</g>
<g xmlns="http://www.w3.org/2000/svg">
</g>
<g xmlns="http://www.w3.org/2000/svg">
</g>
<g xmlns="http://www.w3.org/2000/svg">
</g>
<g xmlns="http://www.w3.org/2000/svg">
</g>
<g xmlns="http://www.w3.org/2000/svg">
</g>
<g xmlns="http://www.w3.org/2000/svg">
</g>
<g xmlns="http://www.w3.org/2000/svg">
</g>
<g xmlns="http://www.w3.org/2000/svg">
</g>
</g></svg>
