<?xml version="1.0" encoding="utf-8"?>
<svg version="1.1" id="Layer_1" xmlns="http://www.w3.org/2000/svg" xmlns:xlink="http://www.w3.org/1999/xlink" x="0px" y="0px"
	 viewBox="0 0 75.7 20" style="enable-background:new 0 0 75.7 20;" xml:space="preserve">
<g>
	<path d="M33.3,0h-2.4c-0.5,0-0.5,0.1-0.5,0.5v11.4c0,3.1-1.2,4.9-3.8,4.9c-2.6,0-3.8-1.8-3.8-4.9V0.5c0-0.5,0-0.5-0.5-0.5h-2.3
		c-0.5,0-0.6,0.1-0.6,0.5v11.6c0,5.4,2.9,7.9,7.1,7.9s7.1-2.5,7.1-7.9V0.5C33.8,0.1,33.8,0,33.3,0L33.3,0z M6.1,0H0.5
		C0,0,0,0.1,0,0.5V19c0,0.5,0,0.5,0.5,0.5h2.3c0.4,0,0.5,0,0.5-0.5v-7.1h2.8c4.2,0,7-1.6,7-6C13.1,1.6,10.3,0,6.1,0L6.1,0z M6.3,8.8
		H3.3V3.1h3.1c2,0,3.6,0.8,3.6,2.9S8.3,8.8,6.3,8.8L6.3,8.8z M75.1,16.5h-7.4v-5.3h6.7c0.4,0,0.5-0.1,0.5-0.5v-2
		c0-0.5-0.1-0.5-0.5-0.5h-6.7v-5H75c0.5,0,0.5,0,0.5-0.5v-2C75.5,0.1,75.5,0,75,0H65c-0.5,0-0.6,0-0.6,0.5V19c0,0.5,0.1,0.5,0.6,0.5
		h10.1c0.5,0,0.6,0,0.6-0.5v-2.1C75.6,16.5,75.6,16.5,75.1,16.5L75.1,16.5z M56.3,5.8c0-4.2-2.9-5.8-7-5.8h-5.6
		c-0.4,0-0.4,0-0.4,0.5V19c0,0.5,0,0.5,0.4,0.5h2.3c0.5,0,0.5,0,0.5-0.5v-7.3h2.2l3.9,7.6c0.1,0.2,0.3,0.3,0.5,0.3h2.7
		c0.3,0,0.4-0.2,0.3-0.5l-4-7.8C54.4,10.7,56.3,9,56.3,5.8z M49.5,8.8h-3.1V3.1h3.1c2,0,3.6,0.8,3.6,2.9S51.5,8.8,49.5,8.8L49.5,8.8
		z"/>
</g>
</svg>
