<?xml version="1.0" encoding="utf-8"?>
<svg version="1.1" id="Layer_1" xmlns="http://www.w3.org/2000/svg" xmlns:xlink="http://www.w3.org/1999/xlink" x="0px" y="0px"
	 viewBox="0 0 1130.9 1280.1" style="enable-background:new 0 0 1130.9 1280.1;" xml:space="preserve">
<g>
	<path style="fill:#FF7977;" d="M966.6,677.3c-0.3-24.8-6.1-49.3-15.1-72.4c-7-17.8-15.1-35.2-23-52.6
		c-63-137.4-129.2-273.3-198.4-407.7l-29.5-56.2c-10.1-18-21.9-35.4-37.1-49.5c-24.3-23.1-57-36.9-90.4-39h-15.4
		c-34.4,1.7-68,16.2-92.7,40.2c-14.7,13.9-26,30.8-35.8,48.3c-10.1,18.2-19.6,36.8-29.1,55.3L264.9,416.4l-76.7,164.9
		c-10.3,23-19.6,46.9-23.1,72c-6.5,42.5,2.8,87.1,25.5,123.5c19.6,31.7,48.9,57.2,83.1,71.9c26.8,11.6,55.8,16.7,84.9,15
		c38.8-2,76.3-16,109.2-36.4c36.7-22.5,68-52.4,97.2-83.8c27.1,29.2,56.2,57.2,89.7,79.1c32.4,21.3,69.3,36.7,108.1,40.4
		c42.2,4.4,85.9-6.1,121.3-29.5c31.3-20.7,55.5-50.6,69.5-85.4C962.6,725.6,967,701.6,966.6,677.3L966.6,677.3L966.6,677.3z
		 M565.1,660.9c-10.6-12.5-19.9-26-29.3-39.3c-15.8-23.1-30.1-47.3-41.7-72.9c-9.5-21.2-17.1-43.5-20-66.5
		c-2.2-18.3-1.6-37.5,5.1-54.9c6-16.3,17.6-30.5,32.2-39.8c35-22.6,84.7-20.1,116.4,7.3c16,13.7,25.6,33.8,28,54.6
		c3.2,27.5-3.1,55.3-12.8,81C625,578,596.2,620.8,565.1,660.9L565.1,660.9L565.1,660.9z M907.9,719.4c-9.4,32.2-31.8,60.4-61.2,76.6
		c-26,14.6-57.1,19.6-86.4,14.6c-37.4-5.8-70.9-25.7-100-49.1c-21.4-17.2-40.6-36.8-59-57c29.1-36.8,56.5-75.3,77.4-117.3
		c18.3-36.8,32.1-76.7,33.4-118.2c0.7-26.3-4.2-53-16.5-76.5c-16.1-31.3-44.9-55.3-77.9-66.9c-30.8-11-65.1-12-96.6-3.1
		c-29.7,8.4-56.8,26.2-75.3,51c-16.3,21.5-25.7,48.1-27.8,74.9c-3.3,38.7,6.4,77.3,21,112.9c21.8,52,53.8,99.1,89.2,142.7
		c-15.9,18.4-33.3,35.6-51.7,51.5c-28.7,24.3-61.6,45.5-98.8,53.5c-30.1,6.7-62.5,3.4-90.1-10.5c-32.3-16.1-57.1-46.4-66.5-81.3
		c-7.1-25.6-5.6-53.3,2.9-78.3c7.1-20.7,16.7-40.5,25.7-60.5C312.2,442.6,377.6,308.2,446,175.2l31.1-59.1
		c8.8-15.7,19-31.1,33.6-42.1c15.6-12.2,35-18.6,54.9-18.3c20.4-0.2,40.7,7.3,56.3,20.4c15.4,12.8,25.8,30.3,35.2,47.8l61.8,120
		c58,114.7,113.7,230.6,167.1,347.5c8,18.2,16.7,36.2,22.2,55.4C914.6,670.3,914.8,695.8,907.9,719.4L907.9,719.4L907.9,719.4z
		 M262.5,970.9c17.5-4,36.5,7.5,41.1,24.9c5.6,17.7-5.6,38.4-23.4,43.5c-17.4,6.1-38.1-4.5-43.9-21.9c-5.4-14.6,0.4-32.3,13.4-41
		C253.6,973.7,257.9,971.8,262.5,970.9L262.5,970.9z M380.5,1085.4c10.5-11.4,25.3-18.6,40.6-20.9c10.2-1,20.5-0.3,30.4,1.9
		l-0.1,48.2c-15.6-4-32.6-4.9-47.9,0.8c-8.3,3.1-15.9,8-22,14.5c-1.3,1.1-1,2.9-1.1,4.5l0.1,134.8c-0.2,1.8,0.3,3.7-0.5,5.3
		c-17.3,0.4-34.7,0.1-52.1,0.2l0.1-205.6l43.9,0.1c3.2-0.2,6.6,1.5,7.8,4.6C380.8,1077.4,380.4,1081.5,380.5,1085.4L380.5,1085.4z
		 M754.7,1085.5c13.9-14.4,34-21.4,53.8-21.5c20.9-0.5,42.3,5.7,58.4,19.2c10.7,8.4,18.5,20.1,22,33.2c4.6,16,4.2,32.8,4.1,49.4
		v108.9c-17.5-0.1-35,0.1-52.5-0.1v-108.9c0-13.5,0.6-28-6.5-40c-5-8.6-14.9-12.9-24.4-13.9c-18.1-2.9-37.1,4.3-49.6,17.6
		c-1.3,1.3-2.5,3-2.3,5c-0.2,5.6,0.7,11.2,0.2,16.9c-0.7,7.7,0.4,15.2,0.1,22.9l-0.1,43.3c-1,19.1,0.7,38.2-0.4,57.3
		c-17.5-0.1-34.9,0-52.3,0l0.1-205.7l40.5,0.1c3.5-0.2,7.3,1.8,8.2,5.3C754.9,1078,754.6,1081.8,754.7,1085.5L754.7,1085.5
		L754.7,1085.5z M243.4,1274.7l0.1-205.7h52.1l0.1,205.6L243.4,1274.7L243.4,1274.7z M211,1069c-13.8,0-27.5,0.1-41.3-0.1
		c-3.6,0-8.3,0.2-10.1,4c-1.6,3.9-1,8.3-1.1,12.4c-11.4-12.2-27.6-19.4-44.2-21c-25.6-2.3-52.1,4.8-72.6,20.3
		c-16.9,12.5-29.4,30.5-36,50.5c-3.2,9.4-4.7,19.1-5.7,28.9v14.1c1.5,29.5,14.6,58.6,37.5,77.6c17.2,14.6,39.4,22.8,61.8,24.2H111
		c17.8-1.2,35.4-8.6,47.5-21.8c0.1,4.1-0.5,8.6,1.1,12.5c1.6,3.2,5.4,4.1,8.8,4l42.7-0.1L211,1069L211,1069z M156.9,1210.6
		c-10.7,12.8-27.2,20.2-43.8,19.7c-17.7,0.1-36.2-6.7-47.7-20.6c-11.2-13.3-14.6-31.8-12.1-48.7c1.9-13.7,8.9-26.8,19.9-35.3
		c10-7.9,22.6-12,35.2-12.8c18.8-1.6,38.6,6.6,49.9,21.8c0.6,22.3,0,44.7,0.3,67.1C158.5,1204.8,159.3,1208.4,156.9,1210.6
		L156.9,1210.6L156.9,1210.6z M675.3,1127.9c-8.1-19.8-22.4-37-40.6-48.2c-18.8-11.7-41.2-16.9-63.2-15.4
		c-17.3,1.1-34.3,8.6-46.4,21.2l-0.1-115.2c-17.5,0-35-0.1-52.5,0.1l0.1,304.4l43.5,0.1c3.6,0.3,7.5-1.7,8.5-5.3
		c0.7-3.7,0.5-7.5,0.5-11.3c12.2,13.5,30,20.9,48.1,22h10.7c29.1-1.5,57.6-15.1,75.9-38C685.5,1210.6,690.4,1165.1,675.3,1127.9
		L675.3,1127.9L675.3,1127.9z M614,1214.4c-11.7,10.9-27.9,16.1-43.8,15.9c-16.5,0.4-33.1-7.2-43.5-20c-1.3-1.4-1.7-3.1-1.6-4.9
		v-70.6c10-13.1,26.2-21.3,42.6-22.2c16.7-0.5,34.2,4.4,46.5,16.2c11.7,10.8,17.4,27.1,17,42.8
		C631.6,1187.4,625.7,1203.6,614,1214.4z M1107.4,1102.4c-22.3-28.4-60.4-42.7-95.8-37.4c-14.8,2.3-28.9,9.5-39.2,20.3l-0.1-115.2
		c-17.5,0-35-0.1-52.4,0v304.4l41.4,0.1c3.6,0.1,8.2-0.2,10-3.9c1.6-4,1-8.4,1.1-12.6c12.1,13.2,29.6,20.5,47.3,21.8h11.8
		c28.8-1.6,57-15,75.2-37.5c14.9-18,22.9-41,24.3-64.2v-13.8C1129.2,1142.2,1121.6,1120,1107.4,1102.4L1107.4,1102.4L1107.4,1102.4z
		 M1066.5,1208.5c-13.9,17.9-38.3,24.5-60,21c-13.2-2.6-26-9.7-33.8-20.9c-0.9-8.6-0.1-17.3-0.3-26.1c0.2-16-0.4-32,0.3-47.9
		c7.9-10.9,20.7-18,33.8-20.9c24.2-4.5,52.4,5.1,64.7,27.5C1082.1,1162,1081,1189.7,1066.5,1208.5L1066.5,1208.5L1066.5,1208.5z"/>
	<path style="fill:#FF7977;" d="M966.6,677.3c-0.3-24.8-6.1-49.3-15.1-72.4c-7-17.8-15.1-35.2-23-52.6
		c-63-137.4-129.2-273.3-198.4-407.7l-29.5-56.2c-10.1-18-21.9-35.4-37.1-49.5c-24.3-23.1-57-36.9-90.4-39h-15.4
		c-34.4,1.7-68,16.2-92.7,40.2c-14.7,13.9-26,30.8-35.8,48.3c-10.1,18.2-19.6,36.8-29.1,55.3L264.9,416.4l-76.7,164.9
		c-10.3,23-19.6,46.9-23.1,72c-6.5,42.5,2.8,87.1,25.5,123.5c19.6,31.7,48.9,57.2,83.1,71.9c26.8,11.6,55.8,16.7,84.9,15
		c38.8-2,76.3-16,109.2-36.4c36.7-22.5,68-52.4,97.2-83.8c27.1,29.2,56.2,57.2,89.7,79.1c32.4,21.3,69.3,36.7,108.1,40.4
		c42.2,4.4,85.9-6.1,121.3-29.5c31.3-20.7,55.5-50.6,69.5-85.4C962.6,725.6,967,701.6,966.6,677.3L966.6,677.3L966.6,677.3z
		 M565.1,660.9c-10.6-12.5-19.9-26-29.3-39.3c-15.8-23.1-30.1-47.3-41.7-72.9c-9.5-21.2-17.1-43.5-20-66.5
		c-2.2-18.3-1.6-37.5,5.1-54.9c6-16.3,17.6-30.5,32.2-39.8c35-22.6,84.7-20.1,116.4,7.3c16,13.7,25.6,33.8,28,54.6
		c3.2,27.5-3.1,55.3-12.8,81C625,578,596.2,620.8,565.1,660.9L565.1,660.9L565.1,660.9z M907.9,719.4c-9.4,32.2-31.8,60.4-61.2,76.6
		c-26,14.6-57.1,19.6-86.4,14.6c-37.4-5.8-70.9-25.7-100-49.1c-21.4-17.2-40.6-36.8-59-57c29.1-36.8,56.5-75.3,77.4-117.3
		c18.3-36.8,32.1-76.7,33.4-118.2c0.7-26.3-4.2-53-16.5-76.5c-16.1-31.3-44.9-55.3-77.9-66.9c-30.8-11-65.1-12-96.6-3.1
		c-29.7,8.4-56.8,26.2-75.3,51c-16.3,21.5-25.7,48.1-27.8,74.9c-3.3,38.7,6.4,77.3,21,112.9c21.8,52,53.8,99.1,89.2,142.7
		c-15.9,18.4-33.3,35.6-51.7,51.5c-28.7,24.3-61.6,45.5-98.8,53.5c-30.1,6.7-62.5,3.4-90.1-10.5c-32.3-16.1-57.1-46.4-66.5-81.3
		c-7.1-25.6-5.6-53.3,2.9-78.3c7.1-20.7,16.7-40.5,25.7-60.5C312.2,442.6,377.6,308.2,446,175.2l31.1-59.1
		c8.8-15.7,19-31.1,33.6-42.1c15.6-12.2,35-18.6,54.9-18.3c20.4-0.2,40.7,7.3,56.3,20.4c15.4,12.8,25.8,30.3,35.2,47.8l61.8,120
		c58,114.7,113.7,230.6,167.1,347.5c8,18.2,16.7,36.2,22.2,55.4C914.6,670.3,914.8,695.8,907.9,719.4L907.9,719.4L907.9,719.4z
		 M262.5,970.9c17.5-4,36.5,7.5,41.1,24.9c5.6,17.7-5.6,38.4-23.4,43.5c-17.4,6.1-38.1-4.5-43.9-21.9c-5.4-14.6,0.4-32.3,13.4-41
		C253.6,973.7,257.9,971.8,262.5,970.9L262.5,970.9z M380.5,1085.4c10.5-11.4,25.3-18.6,40.6-20.9c10.2-1,20.5-0.3,30.4,1.9
		l-0.1,48.2c-15.6-4-32.6-4.9-47.9,0.8c-8.3,3.1-15.9,8-22,14.5c-1.3,1.1-1,2.9-1.1,4.5l0.1,134.8c-0.2,1.8,0.3,3.7-0.5,5.3
		c-17.3,0.4-34.7,0.1-52.1,0.2l0.1-205.6l43.9,0.1c3.2-0.2,6.6,1.5,7.8,4.6C380.8,1077.4,380.4,1081.5,380.5,1085.4L380.5,1085.4z
		 M754.7,1085.5c13.9-14.4,34-21.4,53.8-21.5c20.9-0.5,42.3,5.7,58.4,19.2c10.7,8.4,18.5,20.1,22,33.2c4.6,16,4.2,32.8,4.1,49.4
		v108.9c-17.5-0.1-35,0.1-52.5-0.1v-108.9c0-13.5,0.6-28-6.5-40c-5-8.6-14.9-12.9-24.4-13.9c-18.1-2.9-37.1,4.3-49.6,17.6
		c-1.3,1.3-2.5,3-2.3,5c-0.2,5.6,0.7,11.2,0.2,16.9c-0.7,7.7,0.4,15.2,0.1,22.9l-0.1,43.3c-1,19.1,0.7,38.2-0.4,57.3
		c-17.5-0.1-34.9,0-52.3,0l0.1-205.7l40.5,0.1c3.5-0.2,7.3,1.8,8.2,5.3C754.9,1078,754.6,1081.8,754.7,1085.5L754.7,1085.5
		L754.7,1085.5z M243.4,1274.7l0.1-205.7h52.1l0.1,205.6L243.4,1274.7L243.4,1274.7z M211,1069c-13.8,0-27.5,0.1-41.3-0.1
		c-3.6,0-8.3,0.2-10.1,4c-1.6,3.9-1,8.3-1.1,12.4c-11.4-12.2-27.6-19.4-44.2-21c-25.6-2.3-52.1,4.8-72.6,20.3
		c-16.9,12.5-29.4,30.5-36,50.5c-3.2,9.4-4.7,19.1-5.7,28.9v14.1c1.5,29.5,14.6,58.6,37.5,77.6c17.2,14.6,39.4,22.8,61.8,24.2H111
		c17.8-1.2,35.4-8.6,47.5-21.8c0.1,4.1-0.5,8.6,1.1,12.5c1.6,3.2,5.4,4.1,8.8,4l42.7-0.1L211,1069L211,1069z M156.9,1210.6
		c-10.7,12.8-27.2,20.2-43.8,19.7c-17.7,0.1-36.2-6.7-47.7-20.6c-11.2-13.3-14.6-31.8-12.1-48.7c1.9-13.7,8.9-26.8,19.9-35.3
		c10-7.9,22.6-12,35.2-12.8c18.8-1.6,38.6,6.6,49.9,21.8c0.6,22.3,0,44.7,0.3,67.1C158.5,1204.8,159.3,1208.4,156.9,1210.6
		L156.9,1210.6L156.9,1210.6z M675.3,1127.9c-8.1-19.8-22.4-37-40.6-48.2c-18.8-11.7-41.2-16.9-63.2-15.4
		c-17.3,1.1-34.3,8.6-46.4,21.2l-0.1-115.2c-17.5,0-35-0.1-52.5,0.1l0.1,304.4l43.5,0.1c3.6,0.3,7.5-1.7,8.5-5.3
		c0.7-3.7,0.5-7.5,0.5-11.3c12.2,13.5,30,20.9,48.1,22h10.7c29.1-1.5,57.6-15.1,75.9-38C685.5,1210.6,690.4,1165.1,675.3,1127.9
		L675.3,1127.9L675.3,1127.9z M614,1214.4c-11.7,10.9-27.9,16.1-43.8,15.9c-16.5,0.4-33.1-7.2-43.5-20c-1.3-1.4-1.7-3.1-1.6-4.9
		v-70.6c10-13.1,26.2-21.3,42.6-22.2c16.7-0.5,34.2,4.4,46.5,16.2c11.7,10.8,17.4,27.1,17,42.8
		C631.6,1187.4,625.7,1203.6,614,1214.4z M1107.4,1102.4c-22.3-28.4-60.4-42.7-95.8-37.4c-14.8,2.3-28.9,9.5-39.2,20.3l-0.1-115.2
		c-17.5,0-35-0.1-52.4,0v304.4l41.4,0.1c3.6,0.1,8.2-0.2,10-3.9c1.6-4,1-8.4,1.1-12.6c12.1,13.2,29.6,20.5,47.3,21.8h11.8
		c28.8-1.6,57-15,75.2-37.5c14.9-18,22.9-41,24.3-64.2v-13.8C1129.2,1142.2,1121.6,1120,1107.4,1102.4L1107.4,1102.4L1107.4,1102.4z
		 M1066.5,1208.5c-13.9,17.9-38.3,24.5-60,21c-13.2-2.6-26-9.7-33.8-20.9c-0.9-8.6-0.1-17.3-0.3-26.1c0.2-16-0.4-32,0.3-47.9
		c7.9-10.9,20.7-18,33.8-20.9c24.2-4.5,52.4,5.1,64.7,27.5C1082.1,1162,1081,1189.7,1066.5,1208.5L1066.5,1208.5L1066.5,1208.5z"/>
</g>
</svg>
