<?xml version="1.0"?>
<svg xmlns="http://www.w3.org/2000/svg" xmlns:xlink="http://www.w3.org/1999/xlink" xmlns:svgjs="http://svgjs.com/svgjs" version="1.1" width="512" height="512" x="0" y="0" viewBox="0 0 512 512" style="enable-background:new 0 0 512 512" xml:space="preserve" class=""><g><path xmlns="http://www.w3.org/2000/svg" d="m512 256c0 141.386719-114.613281 256-256 256s-256-114.613281-256-256 114.613281-256 256-256 256 114.613281 256 256zm0 0" fill="#f1f1f1" data-original="#fff2a3" style="" class=""/><path xmlns="http://www.w3.org/2000/svg" d="m510.820312 280.585938-164.585937-164.585938-41.015625 50-49.765625-50-139.453125 107.1875 42 41.015625-42 131.796875 114.761719 114.761719c8.304687.8125 16.722656 1.238281 25.238281 1.238281 133.089844 0 242.445312-101.566406 254.820312-231.414062zm0 0" fill="#f1f1f1" data-original="#fcba66" style="" class=""/><path xmlns="http://www.w3.org/2000/svg" d="m346.234375 171.234375v-55.234375h-41.015625v55.234375l-49.765625 35.546875v8.203125h135.078125l5.46875-8.203125zm0 0" fill="#26d4f8" data-original="#26d4f8" style="" class=""/><path xmlns="http://www.w3.org/2000/svg" d="m239.046875 206.78125 16.40625 16.40625h140.546875v-16.40625zm0 0" fill="#bdb5b2" data-original="#bdb5b2" style="" class=""/><path xmlns="http://www.w3.org/2000/svg" d="m177.523438 247.796875h16.40625v57.421875h-16.40625zm0 0" fill="#7a6c64" data-original="#7a6c64" style=""/><path xmlns="http://www.w3.org/2000/svg" d="m142.660156 264.203125h16.40625v41.015625h-16.40625zm0 0" fill="#bdb5b2" data-original="#bdb5b2" style="" class=""/><path xmlns="http://www.w3.org/2000/svg" d="m212.386719 264.203125h16.40625v41.015625h-16.40625zm0 0" fill="#9b918b" data-original="#9b918b" style=""/><path xmlns="http://www.w3.org/2000/svg" d="m396 288.8125v107.1875h-140.546875l-27.34375-53.59375 27.34375-53.59375zm0 0" fill="#480306" data-original="#480306" style=""/><path xmlns="http://www.w3.org/2000/svg" d="m185.726562 116-27.34375 53.59375 27.34375 53.59375h69.726563v-107.1875zm0 0" fill="#c7461f" data-original="#c7461f" style="" class=""/><path xmlns="http://www.w3.org/2000/svg" d="m282.113281 313.421875h87.226563v16.40625h-87.226563zm0 0" fill="#7a6c64" data-original="#7a6c64" style=""/><path xmlns="http://www.w3.org/2000/svg" d="m212.386719 182.171875h16.40625v16.40625h-16.40625zm0 0" fill="#480306" data-original="#480306" style=""/><path xmlns="http://www.w3.org/2000/svg" d="m255.453125 288.8125v107.1875h-69.726563l-27.34375-53.59375 27.34375-53.59375zm0 0" fill="#c7461f" data-original="#c7461f" style="" class=""/><path xmlns="http://www.w3.org/2000/svg" d="m212.386719 313.421875h16.40625v16.40625h-16.40625zm0 0" fill="#480306" data-original="#480306" style=""/><path xmlns="http://www.w3.org/2000/svg" d="m116 288.8125h69.726562v107.1875h-69.726562zm0 0" fill="#d95d27" data-original="#d95d27" style=""/><path xmlns="http://www.w3.org/2000/svg" d="m142.660156 313.421875h16.40625v16.40625h-16.40625zm0 0" fill="#8b2613" data-original="#8b2613" style="" class=""/><path xmlns="http://www.w3.org/2000/svg" d="m116 116h69.726562v107.1875h-69.726562zm0 0" fill="#d95d27" data-original="#d95d27" style=""/><path xmlns="http://www.w3.org/2000/svg" d="m142.660156 182.171875h16.40625v16.40625h-16.40625zm0 0" fill="#8b2613" data-original="#8b2613" style="" class=""/></g></svg>
