<?xml version="1.0" encoding="utf-8"?>
<svg version="1.1" id="Layer_1" xmlns="http://www.w3.org/2000/svg" xmlns:xlink="http://www.w3.org/1999/xlink" x="0px" y="0px"
	width="100px" height="100px" viewBox="0 0 72.2 72.2" style="enable-background:new 0 0 72.2 72.2;" xml:space="preserve">
<g>
	<circle style="fill:#E8E8E8;" cx="36.1" cy="36.1" r="36.1"/>
	<circle style="fill:#FFFFFF;" cx="36.1" cy="36.1" r="35.4"/>
	<path style="fill:#60A5A5;" d="M7.4,37.8c-0.1,0.3-0.2,0.6-0.4,0.8c-0.2,0.2-0.6,0.4-0.9,0.6C6,39.1,5.9,39,5.9,38.8
		c0.1-0.1,0.3-0.2,0.4-0.4c0.1-0.1,0.1-0.3,0.2-0.5c0.1-0.2,0.1-0.4,0.1-0.7v-3v-0.4c0-0.1-0.1-0.1-0.1-0.2c-0.1,0-0.1-0.1-0.3-0.1
		V33h1h1c0,0.1,0,0.3-0.1,0.4c-0.1,0-0.2,0-0.3,0.1c-0.1,0-0.1,0.1-0.1,0.2v0.4v2.5C7.8,36.6,7.4,37.8,7.4,37.8z M11.6,37.2
		c0,0.1,0,0.2-0.1,0.3c-0.1,0-0.4,0-0.5,0.1c-0.1,0-0.4,0.1-0.5,0.1c-0.1,0-0.1-0.1-0.1-0.1s-0.1-0.1-0.1-0.2v-0.2
		c-0.1,0.1-0.1,0.3-0.3,0.4c-0.2,0.1-0.5,0.2-0.7,0.2c-0.3,0-0.5-0.1-0.7-0.2c-0.1-0.1-0.2-0.3-0.2-0.6s0.1-0.5,0.3-0.6
		c0.2-0.1,0.4-0.3,0.6-0.4l0.9-0.1v-0.4c0-0.1-0.1-0.1-0.1-0.2l-0.1-0.1c-0.1,0-0.1-0.1-0.2-0.1c-0.2,0-0.3,0.1-0.4,0.2
		c-0.1,0.1-0.1,0.3-0.1,0.5H8.9c-0.1,0-0.1,0-0.2-0.1v-0.3c0-0.1,0-0.4-0.1-0.5l0.6-0.2c0.2-0.1,0.4-0.1,0.6-0.1
		c0.3,0,0.4,0,0.6,0.1c0.1,0.1,0.3,0.1,0.4,0.2s0.1,0.2,0.2,0.4s0.1,0.4,0.1,0.6v0.6v0.3c0,0.1,0.1,0.1,0.1,0.1s0.1,0.1,0.2,0.1
		C11.6,37.1,11.6,37.1,11.6,37.2z M9.6,36.4c-0.1,0.1-0.2,0.2-0.2,0.4c0,0.1,0,0.2,0.1,0.3c0.1,0.1,0.1,0.1,0.2,0.1
		c0.1,0,0.1,0,0.3-0.1c0.1-0.1,0.2-0.2,0.2-0.3c0.1-0.1,0.1-0.3,0.1-0.4v-0.1C10.2,36.1,9.6,36.4,9.6,36.4z M14.1,35.6h-0.3
		c0-0.1-0.1-0.3-0.2-0.4C13.5,35,13.3,35,13.1,35c-0.1,0-0.1,0-0.2,0.1c-0.1,0.1-0.1,0.1-0.1,0.2s0,0.1,0.1,0.1
		c0,0.1,0.1,0.1,0.2,0.1c0.1,0.1,0.3,0.1,0.4,0.2c0.2,0.1,0.4,0.2,0.6,0.3c0.1,0.1,0.2,0.2,0.3,0.3c0.1,0.1,0.1,0.2,0.1,0.4
		c0,0.3-0.1,0.5-0.4,0.6c-0.2,0.1-0.6,0.2-1,0.2c-0.2,0-0.4,0-0.6-0.1c-0.1,0-0.4-0.1-0.5-0.1v-0.4v-0.4c0.1,0,0.1-0.1,0.2-0.1h0.3
		c0,0.2,0.1,0.4,0.2,0.5c0.1,0.1,0.3,0.2,0.4,0.2s0.2,0,0.3-0.1c0.1-0.1,0.1-0.1,0.1-0.2c0-0.1-0.1-0.2-0.1-0.3
		c-0.1-0.1-0.2-0.1-0.5-0.2l-0.5-0.2c-0.1-0.1-0.2-0.2-0.3-0.3C12,35.8,12,35.6,12,35.5c0-0.3,0.1-0.5,0.4-0.6
		c0.2-0.1,0.5-0.2,0.9-0.2c0.2,0,0.4,0,0.6,0.1c0.1,0,0.3,0.1,0.4,0.1v0.3v0.4C14.3,35.5,14.1,35.6,14.1,35.6z M20.4,36.9
		c0,0.1,0.1,0.1,0.1,0.2c0.1,0,0.1,0.1,0.3,0.1c0,0.1,0.1,0.2,0.1,0.4H20h-1c0-0.1,0-0.3,0.1-0.4c0.1,0,0.2,0,0.3-0.1
		c0.1,0,0.1-0.1,0.1-0.2v-0.4v-1h-1.5v1v0.4c0,0.1,0.1,0.1,0.1,0.2c0.1,0,0.1,0.1,0.3,0.1v0.4h-0.9h-1c0-0.1,0-0.3,0.1-0.4
		c0.1,0,0.2,0,0.3-0.1c0.1,0,0.1-0.1,0.1-0.2v-0.4v-2.3v-0.4c0-0.1-0.1-0.1-0.1-0.1s-0.1-0.1-0.3-0.1v-0.4h1h0.9v0.2v0.2
		c-0.1,0-0.2,0-0.3,0.1c-0.1,0-0.1,0.1-0.1,0.1v0.4v0.9h1.5v-0.9v-0.4c0-0.1-0.1-0.1-0.1-0.1s-0.1-0.1-0.3-0.1
		c0-0.1-0.1-0.3-0.1-0.4h1h0.9c0,0.1,0,0.3-0.1,0.4c-0.1,0-0.2,0-0.3,0.1c-0.1,0-0.1,0.1-0.1,0.1v0.4v2.3
		C20.4,36.7,20.4,36.9,20.4,36.9z M24.5,37.2c0,0.1,0,0.2-0.1,0.3c-0.1,0-0.4,0-0.5,0.1c-0.1,0-0.4,0.1-0.5,0.1
		c-0.1,0-0.1-0.1-0.1-0.1c0-0.1-0.1-0.1-0.1-0.2v-0.2c-0.1,0.1-0.1,0.3-0.3,0.4c-0.2,0.1-0.5,0.2-0.7,0.2c-0.3,0-0.5-0.1-0.7-0.2
		c-0.1-0.1-0.2-0.3-0.2-0.6c0-0.3,0.1-0.5,0.3-0.6c0.2-0.1,0.4-0.3,0.6-0.4c0.3-0.1,0.6-0.1,0.9-0.1v-0.4c0-0.1-0.1-0.1-0.1-0.2
		l-0.1-0.1c-0.1,0-0.1-0.1-0.2-0.1c-0.2,0-0.3,0.1-0.4,0.2c-0.1,0.1-0.1,0.3-0.1,0.5h-0.3c-0.1,0-0.1,0-0.2-0.1v-0.3
		c0-0.1,0-0.4-0.1-0.5l0.6-0.2c0.2-0.1,0.4-0.1,0.6-0.1c0.3,0,0.4,0,0.6,0.1c0.1,0.1,0.3,0.1,0.4,0.2c0.1,0.1,0.1,0.2,0.2,0.4
		s0.1,0.4,0.1,0.6v0.6c0,0.1,0,0.2,0.1,0.3c0,0.1,0.1,0.1,0.1,0.1s0.1,0.1,0.2,0.1C24.5,37.1,24.5,37.1,24.5,37.2z M22.4,36.4
		c-0.1,0.1-0.2,0.2-0.2,0.4c0,0.1,0,0.2,0.1,0.3c0.1,0.1,0.1,0.1,0.2,0.1c0.1,0,0.1,0,0.3-0.1c0.1-0.1,0.2-0.2,0.2-0.3
		c0.1-0.1,0.1-0.3,0.1-0.4v-0.1C23.1,36.1,22.4,36.4,22.4,36.4z M26.3,37.1c0.1,0.1,0.1,0.1,0.3,0.1c0,0.1,0.1,0.3,0.1,0.4h-0.9
		h-0.9c0-0.1,0-0.3,0.1-0.4c0.1,0,0.2,0,0.3-0.1c0.1,0,0.1-0.1,0.1-0.1c0-0.1,0.1-0.2,0.1-0.4v-1c0-0.1,0-0.3-0.1-0.4
		c-0.1-0.1-0.2-0.1-0.4-0.1c0-0.1,0-0.3,0.1-0.4c0.2,0,0.4,0,0.6-0.1c0.2-0.1,0.4-0.1,0.5-0.1c0.1,0.1,0.2,0.1,0.2,0.4v1.7
		C26.3,36.9,26.3,37,26.3,37.1z M26.1,33.3c0.1,0.1,0.1,0.2,0.1,0.4s-0.1,0.2-0.1,0.4c-0.1,0.1-0.2,0.1-0.4,0.1
		c-0.1,0-0.3-0.1-0.4-0.1c-0.1-0.1-0.1-0.2-0.1-0.4s0.1-0.3,0.1-0.4c0.1-0.1,0.2-0.1,0.4-0.1C25.9,33.1,26,33.2,26.1,33.3z
		 M29.8,35.3v0.5c-0.1,0-0.1,0.1-0.2,0.1h-0.3c0-0.1,0-0.3-0.1-0.4c-0.1-0.1-0.1-0.1-0.2-0.1c-0.1,0-0.1,0-0.2,0.1
		c-0.1,0.1-0.1,0.1-0.1,0.3c-0.1,0.1-0.1,0.3-0.1,0.4v0.3c0,0.2,0,0.4,0.1,0.4c0.1,0.1,0.1,0.1,0.2,0.2c0.1,0.1,0.2,0.1,0.4,0.1
		c0,0.1,0.1,0.2,0.1,0.4h-1h-1.1c0-0.1,0-0.3,0.1-0.4c0.1,0,0.2,0,0.3-0.1c0.1,0,0.1-0.1,0.1-0.2c0-0.1,0.1-0.3,0.1-0.4v-0.9v-0.3
		c0-0.1-0.1-0.1-0.1-0.1c-0.1,0-0.1-0.1-0.3-0.1c0-0.1,0-0.3,0.1-0.4c0.2,0,0.4,0,0.6-0.1c0.2-0.1,0.4-0.1,0.5-0.1
		c0.1,0.1,0.2,0.1,0.2,0.4v0.3l-0.1,0.4c0,0,0-0.1,0.1-0.2c0-0.1,0.1-0.1,0.1-0.2c0.1-0.1,0.2-0.3,0.4-0.4c0.1-0.1,0.3-0.1,0.4-0.1
		c0.1,0,0.3,0.1,0.4,0.1C29.9,34.9,29.8,35.1,29.8,35.3z M35.8,37.6h-0.9H34c0-0.1,0-0.3,0.1-0.4c0.1,0,0.1-0.1,0.2-0.1
		s0.1-0.1,0.1-0.1c0-0.1,0-0.1-0.1-0.3l-0.1-0.4l-1.6,0.1l-0.1,0.2c-0.1,0.1-0.1,0.2-0.1,0.3c0,0.1,0.1,0.3,0.3,0.3
		c0,0.1,0.1,0.2,0.1,0.4h-0.6h-0.6c0-0.1,0-0.3,0.1-0.4c0.1,0,0.2-0.1,0.3-0.1c0.1-0.1,0.1-0.3,0.3-0.5l1.4-3.3h0.2H34l1.5,3.3
		l0.2,0.4c0.1,0.1,0.1,0.1,0.1,0.2c0.1,0,0.1,0.1,0.1,0.1C35.7,37.3,35.8,37.4,35.8,37.6L35.8,37.6z M33.5,35.2
		c-0.1-0.3-0.2-0.6-0.3-0.8c-0.1,0.3-0.1,0.5-0.3,0.8L32.6,36h1.2L33.5,35.2C33.5,35.2,33.5,35.2,33.5,35.2z M39.9,37.6h-0.8h-0.9
		c0-0.1,0-0.3,0.1-0.4c0.1,0,0.2-0.1,0.3-0.1c0.1-0.1,0.1-0.2,0.1-0.5v-0.6c0-0.3-0.1-0.4-0.1-0.6c-0.1-0.1-0.2-0.1-0.4-0.1
		s-0.2,0.1-0.3,0.1c-0.1,0.1-0.3,0.2-0.3,0.4c-0.1,0.1-0.1,0.4-0.1,0.6v0.4c0,0.2,0.1,0.4,0.1,0.4s0.1,0.1,0.3,0.1
		c0,0.1,0.1,0.2,0.1,0.4H37h-0.9c0-0.1,0-0.3,0.1-0.4c0.1,0,0.3,0,0.4-0.1c0.1-0.1,0.1-0.2,0.1-0.4v-0.9c0-0.1,0-0.2-0.1-0.3
		c0-0.1-0.1-0.1-0.1-0.1c-0.1,0-0.1-0.1-0.3-0.1c0-0.1,0-0.3,0.1-0.4c0.2,0,0.4,0,0.6-0.1c0.2-0.1,0.4-0.1,0.5-0.1
		c0.1,0.1,0.2,0.1,0.2,0.4c0,0.1,0,0.2-0.1,0.4c0,0,0-0.1,0.1-0.1c0.1-0.1,0.1-0.1,0.1-0.2c0.1-0.1,0.2-0.2,0.4-0.3
		c0.1-0.1,0.4-0.1,0.5-0.1c0.3,0,0.6,0.1,0.7,0.3c0.2,0.1,0.3,0.4,0.3,0.8v1c0,0.2,0,0.4,0.1,0.4c0.1,0.1,0.1,0.1,0.2,0.1
		C39.8,37.3,39.9,37.4,39.9,37.6L39.9,37.6C39.9,37.6,39.9,37.6,39.9,37.6z M43.7,37.2c0,0.1,0,0.2-0.1,0.3c-0.1,0-0.4,0-0.5,0.1
		c-0.1,0-0.4,0.1-0.5,0.1c-0.1,0-0.1-0.1-0.1-0.1c0-0.1-0.1-0.1-0.1-0.2V37c-0.1,0.1-0.1,0.2-0.2,0.3c-0.1,0.1-0.2,0.1-0.4,0.2
		c-0.1,0.1-0.3,0.1-0.5,0.1c-0.4,0-0.7-0.1-0.9-0.4c-0.2-0.2-0.4-0.6-0.4-1c0-0.4,0.1-0.6,0.2-0.9c0.2-0.2,0.4-0.4,0.6-0.6
		c0.3-0.1,0.6-0.2,0.9-0.2c0.1,0,0.4,0,0.5,0.1V34c0-0.1,0-0.3-0.1-0.4c-0.1-0.1-0.2-0.1-0.4-0.1c0-0.1,0-0.3,0.1-0.4
		c0.2,0,0.4,0,0.6-0.1c0.2-0.1,0.4-0.1,0.5-0.1c0.1,0.1,0.2,0.1,0.2,0.4v3.2v0.4c0,0.1,0.1,0.1,0.1,0.1c0.1,0,0.1,0.1,0.2,0.1
		L43.7,37.2L43.7,37.2z M42.2,36.9c0.1-0.1,0.2-0.4,0.2-0.8v-0.9c-0.1-0.1-0.1-0.1-0.2-0.1c-0.1,0-0.1-0.1-0.3-0.1
		c-0.2,0-0.4,0.1-0.6,0.3c-0.1,0.1-0.2,0.5-0.2,0.9c0,0.3,0.1,0.5,0.1,0.7c0.1,0.1,0.3,0.3,0.4,0.3C41.9,37.2,42.1,37,42.2,36.9
		L42.2,36.9L42.2,36.9z M49.3,36.4c0,0.4-0.1,0.7-0.4,0.9c-0.3,0.2-0.7,0.4-1.4,0.4h-2v-0.4c0.1,0,0.2,0,0.3-0.1
		c0.1,0,0.1-0.1,0.1-0.2v-0.4v-2.3v-0.4c0-0.1-0.1-0.1-0.1-0.1c-0.1,0-0.1-0.1-0.3-0.1v-0.4H46h0.6h0.6c0.6,0,0.9,0.1,1.2,0.2
		c0.3,0.1,0.4,0.4,0.4,0.7s-0.1,0.5-0.3,0.6c-0.1,0.2-0.4,0.3-0.7,0.4C48.8,35.3,49.3,35.6,49.3,36.4z M47.8,33.8
		c-0.1-0.1-0.4-0.2-0.6-0.2c-0.1,0-0.1,0-0.3,0.1v1.4h0.2c0.3,0,0.5-0.1,0.6-0.2s0.2-0.3,0.2-0.6C48,34.1,47.9,33.9,47.8,33.8z
		 M48,37c0.1-0.1,0.2-0.4,0.2-0.6c0-0.3-0.1-0.5-0.3-0.6c-0.2-0.1-0.4-0.1-0.8-0.1h-0.2v0.9c0,0.1,0,0.3,0.1,0.4
		c0,0.1,0.1,0.1,0.1,0.2c0.1,0,0.1,0.1,0.3,0.1C47.6,37.2,47.8,37.2,48,37L48,37z M52.5,37c0,0.1,0.1,0.1,0.1,0.2
		c-0.3,0.3-0.7,0.4-1.2,0.4c-0.5,0-0.9-0.1-1.2-0.4c-0.3-0.3-0.4-0.6-0.4-1.1c0-0.3,0.1-0.6,0.2-0.8c0.1-0.2,0.3-0.4,0.6-0.6
		c0.2-0.1,0.5-0.2,0.8-0.2c0.3,0,0.5,0.1,0.7,0.2c0.2,0.1,0.4,0.3,0.4,0.5c0.1,0.2,0.1,0.4,0.1,0.6c0,0.1-0.1,0.2-0.1,0.3h-1.7
		c0,0.3,0.1,0.4,0.3,0.6s0.4,0.2,0.6,0.2c0.1,0,0.3,0,0.4-0.1c0.1-0.1,0.3-0.1,0.4-0.2C52.5,36.9,52.5,36.9,52.5,37z M50.9,35.1
		c-0.1,0.2-0.1,0.4-0.1,0.6h1c0-0.2-0.1-0.4-0.1-0.6c-0.1-0.1-0.2-0.2-0.4-0.2C51.1,34.9,50.9,35,50.9,35.1z M56.2,37.2
		c0,0.1,0,0.2-0.1,0.3c-0.1,0-0.4,0-0.5,0.1c-0.1,0-0.4,0.1-0.5,0.1c-0.1,0-0.1-0.1-0.1-0.1s-0.1-0.1-0.1-0.2v-0.2
		c-0.1,0.1-0.1,0.3-0.3,0.4c-0.2,0.1-0.5,0.2-0.7,0.2c-0.3,0-0.5-0.1-0.7-0.2C53,37.3,53,37.2,53,36.9s0.1-0.5,0.3-0.6
		c0.2-0.1,0.4-0.3,0.6-0.4l0.9-0.1v-0.4c0-0.1-0.1-0.1-0.1-0.2l-0.1-0.1c-0.1,0-0.1-0.1-0.2-0.1c-0.2,0-0.3,0.1-0.4,0.2
		c-0.1,0.1-0.1,0.3-0.1,0.5h-0.3c-0.1,0-0.1,0-0.2-0.1v-0.3c0-0.1,0-0.4-0.1-0.5l0.6-0.2c0.2-0.1,0.4-0.1,0.6-0.1
		c0.3,0,0.4,0,0.6,0.1c0.1,0.1,0.3,0.1,0.4,0.2c0.1,0.1,0.2,0.2,0.2,0.4c0.1,0.1,0.1,0.4,0.1,0.6v0.6v0.3c0,0.1,0.1,0.1,0.1,0.1
		c0.1,0,0.1,0.1,0.2,0.1C56.2,37.1,56.2,37.1,56.2,37.2L56.2,37.2L56.2,37.2z M54.3,36.4c-0.1,0.1-0.2,0.2-0.2,0.4
		c0,0.1,0,0.2,0.1,0.3c0.1,0.1,0.1,0.1,0.2,0.1c0.1,0,0.1,0,0.3-0.1c0.1-0.1,0.2-0.1,0.2-0.3c0.1-0.1,0.1-0.3,0.1-0.4v-0.1
		C54.6,36.2,54.4,36.3,54.3,36.4z M60.2,37.2c0,0.1,0,0.2-0.1,0.3c-0.4,0-0.6,0.1-1,0.2c-0.1,0-0.1-0.1-0.1-0.1
		c0-0.1-0.1-0.1-0.1-0.2V37c-0.1,0.1-0.1,0.3-0.2,0.4c-0.2,0.2-0.5,0.3-0.9,0.3s-0.6-0.1-0.7-0.3c-0.1-0.1-0.2-0.5-0.2-0.9v-0.7
		v-0.3c0-0.1-0.1-0.1-0.1-0.1c-0.1,0-0.1-0.1-0.3-0.1c0-0.1,0-0.3,0.1-0.4c0.2,0,0.4,0,0.6-0.1c0.2-0.1,0.4-0.1,0.5-0.1
		c0.1,0.1,0.2,0.1,0.2,0.4v1.4c0,0.3,0,0.5,0.1,0.6c0.1,0.1,0.1,0.1,0.3,0.1s0.3-0.1,0.4-0.3c0.1-0.1,0.1-0.4,0.1-0.8v-0.4v-0.3
		c0-0.1-0.1-0.1-0.1-0.1c-0.1,0-0.1-0.1-0.3-0.1c0-0.1,0-0.3,0.1-0.4c0.2,0,0.5,0,0.6-0.1c0.2,0,0.4-0.1,0.4-0.1
		c0.1,0.1,0.1,0.1,0.1,0.4v1.6c0,0.1,0,0.3,0.1,0.4c0,0.1,0.1,0.1,0.1,0.1S60,37.1,60.2,37.2C60.2,37.1,60.2,37.1,60.2,37.2z
		 M61.3,33.8c0.1-0.1,0.2-0.1,0.4-0.2c0.1,0,0.1,0.1,0.1,0.1V34v0.6h0.9c0,0.2-0.1,0.3-0.1,0.4c-0.3,0-0.5,0.1-0.7,0.1v1.3
		c0,0.2,0.1,0.4,0.1,0.5c0.1,0.1,0.1,0.1,0.3,0.1c0.1,0,0.3,0,0.4-0.1c0.1,0.1,0.1,0.2,0.1,0.3c-0.1,0.1-0.2,0.1-0.4,0.1
		c-0.1,0.1-0.3,0.1-0.5,0.1c-0.3,0-0.6-0.1-0.7-0.2c-0.1-0.1-0.2-0.4-0.2-0.8v-1.4c-0.1-0.1-0.3-0.1-0.4-0.1c0-0.1,0.1-0.3,0.1-0.4
		h0.4v-0.7C61.1,33.9,61.2,33.8,61.3,33.8L61.3,33.8C61.3,33.8,61.3,33.8,61.3,33.8z M66.3,34.6c0,0.1,0,0.3-0.1,0.4
		c-0.1,0-0.2,0.1-0.2,0.1c-0.1,0.1-0.1,0.2-0.2,0.4l-0.9,2.2c-0.1,0.4-0.3,0.6-0.4,0.9c-0.1,0.2-0.2,0.4-0.4,0.4
		c-0.1,0.1-0.2,0.1-0.4,0.1c-0.1,0-0.2,0-0.4-0.1C63.1,39,63.1,39,63,38.9v-0.1c0-0.1,0-0.3,0.1-0.4c0.2,0.1,0.4,0.1,0.6,0.1
		c0.1,0,0.3,0,0.4-0.1l0.3-0.3l0.1-0.3l-1-2.2c-0.1-0.2-0.2-0.4-0.3-0.4c-0.1-0.1-0.1-0.1-0.3-0.1c0-0.1-0.1-0.2-0.1-0.4h0.9h1v0.2
		c0,0.1,0,0.1-0.1,0.1c-0.1,0-0.2,0.1-0.3,0.1c-0.1,0-0.1,0.1-0.1,0.1c0,0.1,0.1,0.2,0.1,0.4c0.1,0.4,0.4,0.7,0.4,1.1l0.4-1
		c0.1-0.1,0.1-0.3,0.1-0.4c0-0.1,0-0.1-0.1-0.1s-0.1-0.1-0.2-0.1c0-0.1-0.1-0.2-0.1-0.4h0.6C65.9,34.6,66.1,34.6,66.3,34.6
		L66.3,34.6z"/>
</g>
</svg>
