<?xml version="1.0" encoding="utf-8"?>
<svg version="1.1" id="Layer_1" xmlns="http://www.w3.org/2000/svg" xmlns:xlink="http://www.w3.org/1999/xlink" x="0px" y="0px"
	width="100px" height="100px" viewBox="0 0 344.9 344.9" style="enable-background:new 0 0 344.9 344.9;" xml:space="preserve">
<g>
	<circle style="fill:#E8E8E8;" cx="172.5" cy="172.5" r="172.5"/>
	<circle style="fill:#FFFFFF;" cx="172.5" cy="172.5" r="169"/>
	<path style="fill:#192F59;" d="M300.8,176.6c-1,0-2.4,0-3.4,0c-2.1,0.3-3.8,2.1-4.1,4.1c0,0.7-0.3,1-0.3,1.7v11.7
		c0,0.7,0.3,0.7-0.3,0.7H287c-0.3,0-0.3,0-0.3-0.7v-16.6c0-0.3,0-0.7-0.3-1c0-0.3-0.7-0.3-1-0.3s-0.3,0-0.3-0.3v-3.1v-1.7l0.3-0.3
		l0,0c1.4,0,2.8,0,3.8,0c1.4,0,2.4,1,3.1,2.1c0.3,0.3,0.3,1,0.3,1.7v0.3c0,0,0.3,0,0.3-0.3c0.3-0.7,1-1.4,1.4-2.1
		c1.4-1.7,3.4-2.4,5.9-2.4h0.3L300.8,176.6L300.8,176.6L300.8,176.6z"/>
	<path style="fill:#818286;" d="M197.6,231.4c-0.3-0.3-0.3-0.3-0.3-0.7v-1h1c0.7,0,1.4-0.3,1.7-1c0.3-0.7,0.7-1.4,0.7-2.1
		c0-0.3,0-0.3,0-0.7l-2.8-7.2l-0.7-1.7h1.7c0.3,0,0.3,0.3,0.3,0.3l1.4,3.8l0.7,2.4v0.3l0.3-1.4l1.7-5.2c0-0.3,0.3-0.3,0.7-0.3h1.4
		v0.3l-3.8,10.3c-0.3,0.7-0.3,1-0.7,1.7c-0.3,0.7-1,1.4-2.1,1.4c0,0,0-0.3,0,0.3L197.6,231.4L197.6,231.4L197.6,231.4L197.6,231.4z"
		/>
	<path style="fill:#192F59;" d="M183.2,161.8C183.5,161.8,183.5,161.8,183.2,161.8h6.9c0.3,0,0.3,0,0.7,0.7l3.4,16.9l1.4,6.6v0.3
		l0.7-4.1l2.4-11.7l1.4-7.2l0,0c0-0.3,0-0.3,0.7-0.3h6.2c0.3,0,0.3,0,0.3,0.3l1,5.2l1.7,9l1.7,8.6v0.3l0.3-2.1l3.4-16.2l1-5.5
		c0-0.3,0-0.3,0.3-0.3h6.6h0.3c0,0.7,0,0.3,0,0.7l-6.6,25.5l-1.7,6.2c0,0.3,0,0.3-0.3,0.3h-5.9c-0.3,0-0.3,0-0.3-0.3l-1.4-6.9
		l-2.1-10.7l-1.4-6.6c0-0.3,0-0.3,0-0.7l-0.7,2.4l-2.1,10.3l-2.1,10.7l-0.3,1.7c0,0.3,0,0.3-0.3,0.3l0,0h-5.9c-0.3,0-0.3,0-0.3-0.3
		l0,0l-2.8-9l-4.8-17.6l-1.7-6.2V161.8L183.2,161.8z"/>
	<path style="fill:#0D99D6;" d="M284.6,113.5c0,0.3,0.3,0.3,0.3,0.7c0.7,2.4,1.4,4.5,2.4,6.9c1.4,2.8,2.8,5.5,4.1,7.9
		c1.4,2.1,2.4,4.5,3.1,6.9c0.7,1.4,1,3.1,1,4.8c0,1.4,0,2.8,0,4.1c-0.3,1.7-1,3.4-2.1,5.2c-3.4,5.2-10.3,6.6-15.5,3.1
		c-0.3-0.3-1-0.7-1.4-1c-1.4-1.4-2.4-3.1-3.1-5.2c-1-2.8-1-6.2,0-9c0.7-2.4,1.7-4.5,2.8-6.9l3.8-7.6c1.4-2.8,2.8-5.9,3.8-9
		L284.6,113.5L284.6,113.5L284.6,113.5z M282.2,151.4c0.3,0,1,0,1.4,0h0.3c0,0,0,0-0.3,0l0,0c0,0,0,0-0.3,0
		c-2.1-0.3-3.4-2.1-4.5-3.4c-1.4-2.1-1.7-4.8-0.7-7.2c0.3-1.4,1-3.1,1.7-4.5c0.7-1.7,1.7-3.8,2.1-5.9c0.3-1,0.3-2.1,0.7-2.8
		c0-0.3,0-0.3-0.3-0.7c-0.3,0-0.3,0.3-0.3,0.3c-0.3,1.4-0.7,2.8-1.4,3.8c-0.7,1.7-1.7,3.4-2.8,5.5c-0.7,1.4-1.4,2.8-2.1,4.1
		c-0.7,2.1-0.7,4.5,0,6.6C276.3,149.4,279,151.4,282.2,151.4L282.2,151.4L282.2,151.4z M44.2,194.9l1.4-4.1l9.7-28.3
		c0.3-0.7,0-0.7,0.7-0.7h7.2c0.3,0,0.3,0,0.7,0.7l8.6,24.8l2.4,7.2c0,0,0,0.3,0,0.7c0,0,0,0-0.3,0H68c-0.3,0-0.3,0-0.3-0.3l-1.7-5.9
		c0-0.3,0-0.3-0.7-0.3H53.8c-0.3,0-0.3,0-0.7,0.3l-2.1,5.9c0,0.3-0.3,0.3-0.3,0.3L44.2,194.9L44.2,194.9L44.2,194.9z M59.7,169.7
		L59.7,169.7l-4.5,12.8h8.3L59.7,169.7z"/>
	<path style="fill:#192F59;" d="M240.8,173.2v-2.1c0-0.3,0-0.3,0.3-0.3h5.2c0.3,0,0.3,0,0.3,0.3v0.3V188c0,0.3,0.3,1,0.7,1
		s0.7,0,0.7,0v0.3v4.5c0,0.3,0,0.3-0.3,0.3c-1,0-2.4,0-3.4,0c-1.4,0-3.4-1.4-3.4-3.1l0,0c0,0,0,0-0.3,0.3c-1.4,2.1-3.4,3.4-5.9,3.4
		c-2.8,0.3-5.9,0-8.3-1.7c-2.1-1.4-3.4-3.4-4.1-5.9c-0.3-1.7-0.7-3.8-0.7-5.5c0-2.1,0.3-3.8,1.4-5.9c1.4-3.1,4.5-5.5,8.3-6.2
		c1.4-0.3,2.4-0.3,3.8-0.3c2.1,0.3,4.1,1,5.9,2.8V173.2L240.8,173.2z M239.4,182.8c0-0.7,0-1,0-1.7c0-1-0.3-2.1-1-3.1
		c-0.7-1-1.7-1.7-2.8-2.1s-2.4-0.3-3.4,0c-1.7,0.3-2.8,1.4-3.4,3.1c-0.3,1-0.7,2.1-0.7,3.1c0,1.7,0,3.4,0.7,5.2
		c0.3,1.7,1.7,2.8,3.4,3.1c1,0.3,2.4,0.3,3.4,0c1.7-0.3,2.8-1.7,3.4-3.1C239.4,185.6,239.7,184.2,239.4,182.8L239.4,182.8
		L239.4,182.8z M268.4,184.5c0,1,0.3,2.1,0.7,3.1c0.7,1.4,1.7,2.1,3.1,2.4c1.4,0.3,2.8,0.3,4.1-0.3c0.7-0.3,1.4-1,1.7-1.7l0.3-0.3
		h5.9c0,0,0,0,0.3,0c-0.3,1.4-1,2.8-1.7,3.8c-1.7,2.1-3.8,3.4-6.2,3.8c-2.4,0.3-4.8,0.3-7.2-0.3c-2.4-0.7-4.1-2.4-5.2-4.5
		c-0.7-1.7-1.4-3.1-1.7-5.2c-0.3-1.7-0.3-3.4,0-5.2c0.3-2.1,1-3.8,2.1-5.5c1.4-2.1,3.8-3.8,6.6-4.1c2.4-0.3,4.8-0.3,6.9,0.3
		c2.4,0.7,4.1,2.4,5.5,4.5c1,1.7,1.4,3.4,1.7,5.2c0,1,0,2.4,0,3.4c0,0.7,0,0.3-0.3,0.3L268.4,184.5L268.4,184.5L268.4,184.5
		L268.4,184.5z M278.4,180.4c0-0.3,0-1-0.3-1.4c-0.3-1.7-1.7-2.8-3.1-3.1c-0.7,0-1.4-0.3-2.1,0c-1.4,0-2.4,0.7-3.1,1.7
		c-0.3,0.7-0.7,1.4-1,2.4c0,0.3,0,0.7,0,0.7h9.7V180.4L278.4,180.4L278.4,180.4z"/>
	<path style="fill:#0D99D6;" d="M119.3,174.5l0.3-0.7c1.4-2.1,3.4-3.4,5.9-3.4c1.4,0,2.8,0,4.5,0.7c2.4,1,4.1,3.1,4.5,5.9
		c0,0.7,0,1.4,0,2.1v10.3v5.5c0,0.3,0,0.7-0.3,0.7h-5.5c-0.3,0-0.3,0-0.3-0.7v-14.1c0-0.7,0-1,0-1.7c-0.3-1.7-1.7-2.8-3.1-3.1
		c-1,0-2.4,0-3.4,0.7c-1.4,0.7-2.1,2.1-2.4,3.4c0,0.7,0,1.4,0,1.7v12.4v0.3c0,0.3-0.3,0.3-0.3,0.3h-5.5c-0.3,0-0.7,0-0.7-0.3v-5.9
		v-11c0-0.3,0-0.7-0.3-1c-0.3-0.3-0.7-0.3-1-0.3s-0.3,0-0.3-0.3v-4.8c0-0.3,0-0.3,0.3-0.3h4.5c1.7,0,2.8,1.4,2.8,3.1L119.3,174.5
		L119.3,174.5C119.3,174.9,119.3,174.5,119.3,174.5z M158.7,170.7h0.3h5.5c0.3,0,0.3,0,0.7,0.3l4.8,16.6c0,0.3,0,0.3,0,0.7
		c0,0,0.3-0.3,0.3-0.7l3.8-13.8l0.7-3.1c0,0,0-0.3,0.3-0.3h5.9c0,0,0,0,0.3,0l-1,3.4l-5.9,17.2c-1,2.8-1.7,5.5-2.8,8.3
		c-0.3,0.7-0.7,1.4-1,2.4c-0.7,1.4-2.4,2.4-4.1,2.4s-3.8,0-5.5,0c-0.3,0,0,0,0-0.3V199c0-0.3,0-0.3,0.3-0.3c0.7,0,1.7,0,2.4,0
		c1.7,0,2.8-0.7,3.1-2.4c0.3-0.7,0.3-1.4,0-2.1L158.7,170.7C158.7,171.1,158.7,171.1,158.7,170.7L158.7,170.7z M76.2,185.2v-9.3
		v-0.3c0-0.3,0-0.3-0.3-0.3h-2.8c-0.3,0-0.3,0-0.3-0.3v-3.8c0-0.3,0-0.3,0.3-0.3h2.8c0.3,0,0.3,0,0.3-0.3V168c0-1,0.3-2.1,0.7-3.1
		c0.7-1,1.4-2.1,2.4-2.4c1-0.3,2.1-0.7,3.1-0.7h3.4c0.3,0,0.7,0.3,0.7,0.7v4.5c0,0.3-0.3,0.7-0.7,0.7h-1.7c-0.3,0-0.3,0-0.7,0
		c-0.7,0-1,0.7-1,1c0,0.7,0,1.4,0,2.1c0,0.3,0,0,0.3,0h3.4c0.7,0,0.7,0,0.7,0.7v3.4c0,0.3,0,0.3-0.3,0.3h-3.1c-0.7,0-0.3,0-0.3,0.7
		v11.4v7.2c0,0.3-0.3,0.3-0.7,0.3h-5.9c-0.3,0-0.3,0-0.3-0.3v-6.2L76.2,185.2L76.2,185.2z"/>
	<path style="fill:#192F59;" d="M251.5,181.8v-5.9v-0.3c0-0.3-0.3-0.3-0.7-0.3h-2.4H248l0,0l0,0v-1v-2.8c0-0.3,0-0.3,0.3-0.3h2.4
		c0.3,0,0,0,0-0.3v-7.2v-0.3c0-0.3,0.3-0.3,0.7-0.3h5.5c0.3,0,0.7,0,0.7,0.3v7.2v0.3c0,0.3-0.3,0.3,0.3,0.3h3.1c0.3,0,0.3,0,0.3,0.3
		v3.8c0,0,0,0-0.3,0l0,0H258c-0.3,0-0.3,0-0.3,0.7v10.7c0,0.3,0,0.7,0,1c0.3,0.7,1,1.4,1.7,1.4c0.3,0,1,0,1.7,0c0.3,0,0.3,0,0.3,0.3
		v5.9c0,0.3,0,0.3-0.3,0.3c-1.4,0-3.1,0-4.5,0c-1.7,0-3.4-1.4-4.5-2.8c-0.3-1-0.7-2.1-0.7-3.1c0-1-0.3-1.7,0-2.8L251.5,181.8
		L251.5,181.8z"/>
	<path style="fill:#0D99D6;" d="M91.4,184.2v-8.3v-0.3v-0.3H89h-0.3c-0.3,0-0.3,0-0.3-0.3v-3.8c0,0,0-0.3,0.3-0.3l0,0h2.8
		c0.3,0,0.3,0,0.3-0.3c0-1,0-2.1,0-2.8c0-0.3,0-1,0.3-1.4c0.3-1.7,1.7-3.1,3.1-3.4c1-0.3,1.7,0,2.8-0.7h3.4c0.3,0,0.7,0.3,0.7,0.7
		v4.5c0,0.3-0.3,0.7-0.7,0.7h-1.7c-0.3,0-0.7,0-0.7,0c-0.3,0-1,0.3-1,1c0,0.7,0,1.4,0,2.1c0,0.3,0,0.3,0.3,0.3h3.4h0.3l0,0v4.1
		c0,0.3,0,0.3-0.3,0.3h-3.4c-0.7,0-0.3,0-0.3,0.3v1.4v17.2c0,0.7,0,0.7-0.7,0.7h-5.5c-0.3,0-0.3,0-0.3-0.7
		C91.1,191.4,91.4,188.3,91.4,184.2L91.4,184.2z M147.6,182.1v-6.2v-0.3c0-0.3,0-0.3-0.3-0.3h-2.4c-0.7,0-0.7,0-0.7-0.3v-3.4
		c0-0.3,0-0.3,0.3-0.3h2.4c0.3,0,0.3,0,0.3-0.3v-7.2c0-0.7,0-0.7,0.3-0.7h5.2c0.7,0,0.3,0,0.3,0.7v7.2c0,0.7,0,0.3,0.7,0.3h3.1
		c0.3,0,0.3,0,0.3,0.3v3.8c0,0.3,0,0.3-0.3,0.3h-3.1c-0.3,0-0.3,0-0.3,0.3v11c0,1,0.7,2.1,1.7,2.1h1.7c0.3,0,0.3,0,0.3,0.3v5.5
		c0,0.3,0,0-0.3,0h-3.8c-2.8,0-4.8-1.7-5.5-4.1c-0.3-1-0.3-2.1-0.3-3.1L147.6,182.1L147.6,182.1L147.6,182.1z"/>
	<path style="fill:#75C043;" d="M245.2,160c0,0,0-0.3,0-0.7c0.3-1.7,1.4-3.1,2.4-4.5c1.7-2.4,4.5-4.5,7.2-5.5
		c3.4-1.4,7.2-1.4,10.7,0c2.1,0.7,3.8,1.7,5.5,2.8c2.1,1.4,3.8,2.4,5.9,3.4c1.7,1,3.8,1.4,5.9,1.7c2.4,0.3,4.8,0,6.9-1.4
		c1.7-0.7,3.1-1.7,4.1-2.8c0.3-0.3,1-1,1.4-1.4c0,0,0-0.3,0.3-0.3c0,0,0,0.3-0.3,0.3c-1,2.1-2.8,3.8-5.2,5.2c-2.1,1-4.1,1.7-6.6,2.4
		c-2.4,0.7-4.5,0.7-6.9,0.3c-2.8-0.3-5.5-1-7.9-2.1c-1.7-0.7-3.1-1.7-4.8-2.4c-1.4-0.7-2.8-1-4.1-1.4c-2.4-0.3-5.2,0-7.6,1
		c-1.7,1-3.4,2.1-5.2,3.4C247,158.3,246.3,159,245.2,160C245.6,160,245.2,160,245.2,160L245.2,160z"/>
	<path style="fill:#0D99D6;" d="M110,182.8v11.4c0,0.7,0,0.7-0.7,0.7h-5.5c-0.3,0-0.7,0-0.7-0.7v-11v-12.1v-0.3
		c0-0.3,0.3-0.3,0.7-0.3h5.9c0,0,0.3,0,0.3,0.3l0,0v2.4V182.8L110,182.8z M142.5,182.8v11.4c0,0.7,0.3,0.7-0.3,0.7h-5.5
		c-0.3,0-0.3,0-0.3-0.7v-11.4v-11.7v-0.3c0-0.3,0-0.3,0.3-0.3h5.5c0.3,0,0.3,0,0.3,0.7C142.5,171.4,142.5,182.8,142.5,182.8z"/>
	<path style="fill:#818286;" d="M253.9,219C253.9,219,254.2,219,253.9,219c0.7-1,1.7-1.7,3.1-1.4c1.4,0,2.8,0.7,2.8,2.1
		c0.3,1.4,0.3,3.1,0,4.5c-0.7,1.7-2.1,2.8-4.1,2.8c-0.3,0-0.7,0-1.4,0c-0.3,0-0.3,0-0.3,0.3v3.4v0.3h-0.3l0,0h-1l0,0l0,0v-0.3v-12.4
		c0-0.7-0.3-0.7,0.3-0.7h0.7c0,0,0,0.3,0.7,0.3l0,0L253.9,219C253.5,219,253.9,219,253.9,219C254.2,219,253.9,219,253.9,219z
		 M254.2,223.5v1.7v0.3l0,0c0.3,0,1,0,1.4,0c1,0,2.1-0.7,2.4-1.7c0.3-1,0.3-2.4,0-3.8c-0.3-1-1.4-1.4-2.4-1c-0.3,0-0.7,0.3-0.7,0.3
		c-0.3,0.3-0.7,1-1,1.7C253.9,221.8,253.9,222.5,254.2,223.5L254.2,223.5L254.2,223.5L254.2,223.5z M187,219L187,219
		c1-1.4,2.4-2.1,3.8-1.4c1,0.3,1.7,1,2.1,1.7c0.7,1.7,0.7,3.4,0,5.2c-0.7,1.7-2.1,2.1-3.8,2.4h-1.4c-0.7,0-0.3-0.3-0.3,0.3v3.4v0.3
		c0,0,0,0-0.3,0l0,0h-1.4h-0.3l0,0v-0.3v-12.4c0-0.7,0-0.7,0.7-0.7h0.7l0.3,0.3l0,0v0.7C187,218.7,187,219,187,219L187,219z
		 M187,223.5v1.7v0.3l0,0c0.3,0,1,0,1.7,0c1,0,2.1-0.7,2.4-2.1c0-0.3,0-0.7,0-1c0-0.7,0-1.7-0.3-2.4c-0.3-1-1.4-1.4-2.1-1
		c-0.3,0-0.7,0.3-1,0.7c-0.3,0.3-0.7,1-0.7,1.7C187,222.1,187,222.8,187,223.5L187,223.5z M177.6,219c0.3-0.7,1.4-1.4,2.1-1.4
		c1.4-0.3,2.8,0,3.4,1.4c0.3,0.3,0.3,1,0.7,1.7c0,1,0,2.1,0,3.1c-0.3,2.1-2.1,3.1-4.1,3.1c-0.3,0-1,0-1.4,0s-0.3,0-0.3,0.3v3.4v0.3
		l0,0l0,0h-1h-0.3l0,0v-0.3v-12.4V218c0-0.3,0-0.3,0.3-0.3h1c0.3,0,0.3,0,0.3,0.3C177.6,218.3,177.6,218.7,177.6,219L177.6,219z
		 M177.6,223.5v1.4c0,0,0,0.3,0.3,0.3l0,0c0.7,0,1,0,1.7,0c1,0,1.7-0.7,2.1-1.7c0.3-0.7,0.3-1.4,0.3-2.1s0-1-0.3-1.7
		c-0.3-0.7-0.7-1-1.4-1c-0.7,0-1.4,0-1.7,0.7c-0.3,0.3-0.7,1-1,2.1C177.6,222.1,177.6,222.8,177.6,223.5L177.6,223.5L177.6,223.5z"
		/>
	<path style="fill:#0D99D6;" d="M139.4,169.7c-2.1,0-3.8-1.7-3.8-3.4l0,0c0-2.1,1.7-3.8,3.8-3.8l0,0c2.1,0,3.8,1.7,3.8,3.4
		C143.1,168,141.4,169.7,139.4,169.7L139.4,169.7z M106.2,169.7c-2.1,0-3.8-1.7-3.8-3.4l0,0c0-2.1,1.7-3.4,3.8-3.4s3.4,1.7,3.8,3.8
		C110,168.3,108.3,169.7,106.2,169.7z"/>
	<path style="fill:#818286;" d="M91.8,222.5c0-1,0.3-2.4,1-3.1c0.7-1,2.1-1.7,3.4-1.7c0.3,0,0.7,0,1.4,0c1,0.3,2.1,1,2.4,2.4
		c0.3,1.4,0.3,2.8,0,3.8c-0.7,1.7-2.4,3.1-4.1,3.1c-0.3,0-0.7,0-1.4,0c-1.4-0.3-2.4-1.7-2.4-3.1C91.8,223.5,91.8,222.8,91.8,222.5
		L91.8,222.5z M98.6,222.1c0-0.7,0-1-0.3-1.7c-0.3-0.7-0.7-1-1.4-1.4c-1.4-0.3-2.4,0.3-2.8,1.4s-0.3,2.4,0,3.4
		c0.3,0.7,0.7,1,1.4,1.4c1,0.3,2.4-0.3,2.8-1.4C98.6,223.5,98.6,222.8,98.6,222.1L98.6,222.1L98.6,222.1z M217.6,217.6
		c0.3,0,1,0,1.4,0c1,0.3,2.1,1.4,2.4,2.4c0.3,1,0.3,2.4,0,3.4c-0.3,1.7-1.7,2.8-3.4,3.1c-0.7,0-1.7,0-2.4-0.3c-1-0.3-1.7-1-2.1-2.1
		c-0.3-1-0.3-2.4,0-3.8C213.9,218.7,215.6,217.6,217.6,217.6L217.6,217.6z M220.1,222.1c0-0.7,0-1.4-0.3-1.7c-0.3-0.7-0.7-1-1.4-1.4
		c-1.4-0.3-2.4,0.3-2.8,1.7l0,0c-0.7,1-0.3,2.4,0,3.4c0.3,0.7,0.7,1,1.4,1.4c1,0.3,2.4,0,3.1-1.4
		C220.1,223.5,220.1,222.8,220.1,222.1L220.1,222.1L220.1,222.1z M124.9,222.5c0-1.4,0.3-2.8,1.4-3.8c0.7-0.7,1.4-1,2.1-1
		s1.7,0,2.4,0c1,0.3,2.1,1,2.4,2.1c0.7,1.4,0.7,3.4,0,4.8c-0.7,1.4-2.1,2.4-3.8,2.4c-0.3,0-1,0-1.4,0c-1.4-0.3-2.4-1.7-2.4-3.1
		C124.9,223.5,124.9,222.8,124.9,222.5L124.9,222.5z M126.6,222.1c0,0.7,0,1,0.3,1.7c0.3,0.7,1,1.4,1.7,1.4c1,0,2.1-0.3,2.4-1
		c0-0.3,0.3-0.3,0.3-0.7c0.3-1,0.3-2.1,0-3.1c0-0.7-0.7-1.4-1.4-1.4c-1.4-0.3-2.8,0.3-3.1,1.7C126.6,221.1,126.6,221.8,126.6,222.1
		L126.6,222.1z M248.7,225.2c0,0.3-0.3,0.3-0.3,0.7c-1,1-2.4,1.4-3.8,1c-1-0.3-1.7-1.7-1.4-2.8l0.3-0.7c0.3-0.3,0.7-0.7,1-1
		c0.7-0.3,1.4-0.7,2.4-0.7c0.3,0,1,0,1.4,0c0,0,0.3,0,0.3-0.3v-0.7c0-0.7-0.7-1.4-1.4-1.4c-1,0-2.1,0-2.8,0.3h-0.3c0-0.3,0-0.7,0-1
		c0,0,0-0.3,0.3-0.3c0.7-0.3,1.7-0.3,2.4-0.7c0.7,0,1,0,1.7,0c1,0.3,2.1,1,2.1,2.1v0.3v5.9c0,0.3,0,0-0.7,0h-0.7
		c-0.3,0-0.3,0.3-0.3-0.3L248.7,225.2L248.7,225.2z M247.7,222.8c-0.7,0-1.4,0-2.1,0.3c-0.3,0-0.7,0.3-0.7,0.7
		c-0.3,0.3-0.3,0.7-0.3,1.4c0,0.3,0.3,0.7,1,0.7c0.7,0,1.4,0,1.7-0.3c0.3-0.3,0.7-1,1-1.7C248.3,222.8,248.3,222.8,247.7,222.8
		L247.7,222.8L247.7,222.8L247.7,222.8z M142.8,219.7v-1c0,0,0-0.3,0.3-0.3c1.4-0.7,2.8-0.7,4.1-0.3c1,0,1.7,1,1.7,2.1v0.3v5.9
		c0,0.3,0,0-0.3,0h-1c0,0.7,0,0.3,0,0l0,0v-1.4l-0.3,0.3c-1,1-2.4,1.7-3.8,1c-1.7-0.7-1.7-2.4-1-3.4c0.3-0.7,1-1,1.7-1.4
		c1-0.3,1.7-0.3,2.8-0.3c0.3,0,0.3,0,0.3-0.3v-0.7c0-0.7-0.7-1.4-1.4-1.4c-1,0-1.7,0-2.8,0.3L142.8,219.7L142.8,219.7z M146.6,222.8
		c-0.7,0-1,0-1.7,0.3c-0.3,0-0.7,0.3-1,0.7c-0.3,0.3-0.3,0.7-0.3,1.4c0,0.3,0.3,0.7,1,0.7c0.7,0,1.4,0,1.7-0.7c0.3-0.3,0.7-1,1-1.7
		C147.3,222.8,147.3,222.8,146.6,222.8L146.6,222.8L146.6,222.8z M224.9,219C224.9,219,225.2,219,224.9,219c1-1.4,2.4-1.7,3.8-1.4
		c1,0,1.4,1,1.7,2.1c0,0.3,0,0.7,0,1v5.9v0.3l0,0l0,0H229h-0.3l0,0v-0.3v-5.2c0-0.3,0-0.7,0-1c0-0.7-0.7-1-1-1
		c-0.7,0-1.4,0.3-1.7,0.7c-0.7,0.7-1,1.7-1,2.8v4.1c0,0.3,0,0.3-0.3,0.3h-0.7c-0.3,0-0.7,0.3-0.7,0v-1.7V219v-0.3c0,0,0-0.3,0.3-0.3
		l0,0h1l0.3,0.3l0,0V219L224.9,219z M224.9,219L224.9,219L224.9,219L224.9,219z M172.1,225.2C172.1,225.6,171.8,225.6,172.1,225.2
		c-0.7,1-1.7,1.4-2.4,1.7c-0.3,0-0.7,0-1,0c-1,0-2.1-1-2.4-2.1c0-0.3,0-0.7,0-1v-5.5V218c0,0,0-0.3,0.3-0.3l0,0h1v0.3l0,0v0.3v5.5
		c0,0,0,0.3,0,0.7c0,0.7,1,1.4,1.7,1l0,0c0.7,0,1.4-0.3,1.7-1c0.3-0.7,1-1.4,1-2.4V218c0-0.3-0.3-0.7,0-0.7h1c0,0,0,0.3,0.3,0.3l0,0
		v0.3v7.9v0.3h-0.3l0,0h-0.7c-0.3,0-0.3,0-0.3,0C172.1,225.9,172.1,225.6,172.1,225.2L172.1,225.2z M107.6,227c0-0.3,0-1,0-1.4
		c0,0-0.3,0-0.3,0.3c-0.7,0.7-1.4,1.4-2.4,1.4c-0.3,0-0.7,0-1,0c-1,0-1.7-1-2.1-2.1c0-0.3,0-0.3,0-0.7v-5.9v-0.3V218l0,0h1.7
		c0.3,0,0.3,0.3,0.3,0.7v2.1v3.4v0.3c0,0.7,0.7,1.4,1.7,1l0,0c0,0,0,0,0.3,0c0.7,0,1-0.3,1.4-1c0.3-0.7,0.7-1.7,0.7-2.4v-3.8V218
		l0,0l0,0h1.4c0,0,0.3-0.3,0.3,0l0,0v0.3v7.9v0.3l0,0l0,0L107.6,227L107.6,227L107.6,227L107.6,227z M83.1,214.9h1.7
		c0,0,0.3,0,0.3,0.3l2.4,5.2l0.3,0.3c0,0,0.3,0,0.3-0.3c0.7-1.7,1.7-3.4,2.4-5.5c0-0.3,0.3-0.3,0.7-0.3h1.4c0,0,0,0.3-0.3,0.3
		l-3.4,6.9c0,0.3-0.3,0.3-0.3,0.7v3.4c0,0.3,0.3,0,0,0h-1c-0.3,0-0.3,0-0.3,0v-3.4c0-0.3,0-0.7,0-1L83.1,214.9L83.1,214.9
		C83.1,214.5,83.1,214.9,83.1,214.9z M241.8,219.4h-2.1c-0.3,0-0.3-0.3-0.3,0v1.7v2.8v1c0,0.3,0.3,0.7,0.7,0.7s0.7,0,1,0
		c0.3,0,0.3,0,0.3,0.3c0,1.4,0.3,1-1,1.4c-0.7,0-1,0-1.7,0c-0.7,0-1-0.7-1.4-1c0-0.3,0-0.7,0-1.4v-4.8c0-0.3,0,0-0.7,0h-1l-0.7-0.3
		l0,0c0-0.3,0-0.7,0.3-1c0.3-0.3,0.7,0,1,0h0.7h0.3l0,0V217c0-0.7,0-0.7,0.7-1l1-0.3v0.3v2.1c0,0.3,0,0.7,0,0.7c0.3,0,0.7,0,0.7,0
		h1.7c0.3,0,0,0,0,0.3L241.8,219.4C241.8,219,241.8,219.4,241.8,219.4z M164.2,219c-0.7,0-1-0.3-1.7-0.3c-0.3,0-0.7,0-1,0
		c-0.7,0.3-1,0.7-0.7,1.4c0,0.3,0.3,0.3,0.3,0.3c0.3,0,0.3,0.3,0.7,0.3l1.7,0.7c1,0.3,1.7,1.7,1.4,2.8v0.3c-0.3,0.7-0.7,1-1.4,1.4
		c-0.7,0.3-1,0.3-1.7,0.3s-1.4,0-2.4,0c-0.3,0-0.3,0-0.3-0.3v-1.4l1,0.3c0.7,0,1,0,1.7,0h0.3c0.3,0,0.7-0.7,0.7-1c0-0.3-0.3-1-0.7-1
		c-0.7-0.3-1.4-0.3-1.7-0.7c-1.7-0.3-2.1-2.8-1-3.8c0.7-0.7,1.4-1,2.1-1s1.4,0,2.1,0c0,0,0,0,0,0.3l0,0L164.2,219L164.2,219z
		 M140.7,219.4c-0.7-0.3-1.4-0.3-2.1-0.3c-1,0-2.1,0.7-2.4,1.7c-0.3,1-0.3,2.1,0,3.4c0.3,1,1,1.7,2.1,1.7c0.7,0,1.7,0,2.4-0.3
		c0,0.3,0,0.7,0,1.4c0,0,0,0.3-0.3,0.3c-1.4,0.3-2.8,0.3-4.1,0c-1-0.3-1.7-1-2.1-2.1c-0.3-1.4-0.3-2.8,0-4.5
		c0.3-1.4,1.7-2.4,3.4-2.8c0.7,0,1.7,0,2.4,0c0,0,0.3,0,0.3,0.3l0,0C140.7,218.7,140.7,219,140.7,219.4L140.7,219.4z M196.6,220.1
		v5.9v0.3c0,0,0,0-0.3,0l0,0h-1.4l0,0l0,0v-0.3v-12.1v-0.3l0,0l0,0h1.4h0.3l0,0v0.3C196.6,214.2,196.6,220.1,196.6,220.1z
		 M152.8,220.1v6.2c0,0.3,0.3,0.3-0.3,0.3h-1h-0.3l0,0v-0.3v-12.1l0,0c0-0.3,0-0.3,0.7-0.3h1l0,0l0,0v0.3V220.1L152.8,220.1z
		 M121.8,220.1v-6.2c0-0.3,0-0.3,0.3-0.3h1c0.3,0,0.3,0,0.3,0.3v0.3v12.1c0,0.7,0,0.3-0.7,0.3h-1l0,0l0,0v-0.3
		C121.8,226.3,121.8,220.1,121.8,220.1z M113.1,226.6h-1.4l0,0l0,0v-0.3v-7.9V218v-0.3l0,0h1l0.3,0.3l0,0v1.4c0-0.3,0.3-0.3,0.3-0.7
		c0.3-0.7,1.4-1,2.4-1h0.3l0,0v1c0,0.3,0,0.3-0.3,0.3c-1,0-2.1,0.3-2.1,1.7c-0.3,0.7-0.3,1.4-0.3,2.4L113.1,226.6v0.3l0,0V226.6z
		 M208,226.3c0,0.7-0.3,1-0.7,1.7c-0.3,0.7-0.7,1-1.4,1.4h-0.3l0,0l0,0c-0.3-0.3-0.3-0.3,0-0.7c0.3-0.3,0.3-0.7,0.7-1
		c0-0.3,0-0.7,0-1v-0.3c-0.3-0.3,0-1,0.3-1.4s1-0.3,1.4,0C208,225.2,208,225.9,208,226.3L208,226.3z"/>
	<path style="fill:#FEFEFE;" d="M224.9,219L224.9,219L224.9,219L224.9,219L224.9,219z"/>
</g>
</svg>
