<?xml version="1.0"?>
<svg xmlns="http://www.w3.org/2000/svg" xmlns:xlink="http://www.w3.org/1999/xlink" xmlns:svgjs="http://svgjs.com/svgjs" version="1.1" width="512" height="512" x="0" y="0" viewBox="0 0 512 512" style="enable-background:new 0 0 512 512" xml:space="preserve" class=""><g>
<g xmlns="http://www.w3.org/2000/svg" id="surface1">
<path d="M 512 256 C 512 397.386719 397.386719 512 256 512 C 114.613281 512 0 397.386719 0 256 C 0 114.613281 114.613281 0 256 0 C 397.386719 0 512 114.613281 512 256 Z M 512 256 " style="" fill="#f1f1f1" data-original="#ffb84d" class=""/>
<path d="M 512 256 C 512 243.296875 511.058594 230.8125 509.273438 218.605469 L 450.578125 159.914062 L 252 57.011719 L 53.417969 159.914062 L 130 237.667969 L 130 328.425781 L 158.144531 353.480469 L 110 353.480469 L 110 418.652344 L 196.339844 504.992188 C 215.484375 509.566406 235.457031 512 256 512 C 397.386719 512 512 397.386719 512 256 Z M 512 256 " style="" fill="#f1f1f1" data-original="#ff8900" class=""/>
<path d="M 414.191406 164.757812 L 431.65625 164.757812 L 431.65625 342.820312 L 414.191406 342.820312 Z M 414.191406 164.757812 " style="" fill="#ffec97" data-original="#ffec97"/>
<path d="M 436.429688 376.265625 L 409.414062 376.265625 L 409.414062 340.207031 C 409.414062 332.746094 415.464844 326.699219 422.925781 326.699219 C 430.382812 326.699219 436.433594 332.746094 436.433594 340.207031 L 436.433594 376.265625 Z M 436.429688 376.265625 " style="" fill="#ffd400" data-original="#ffd400"/>
<path d="M 130 173.429688 L 374 173.429688 L 374 328.429688 L 130 328.429688 Z M 130 173.429688 " style="" fill="#ab3ccc" data-original="#ab3ccc"/>
<path d="M 252 173.429688 L 374 173.429688 L 374 328.429688 L 252 328.429688 Z M 252 173.429688 " style="" fill="#9331b2" data-original="#9331b2" class=""/>
<path d="M 252 255.59375 L 450.578125 159.914062 L 252 57.011719 L 53.417969 159.914062 Z M 252 255.59375 " style="" fill="#802897" data-original="#802897" class=""/>
<path d="M 450.578125 159.910156 L 374 196.8125 L 252 255.589844 L 252 57.011719 Z M 450.578125 159.910156 " style="" fill="#451152" data-original="#451152" class=""/>
<path d="M 110 353.480469 L 394 353.480469 L 394 418.65625 L 110 418.65625 Z M 110 353.480469 " style="" fill="#ffffff" data-original="#ffffff" class=""/>
<path d="M 252 353.480469 L 394 353.480469 L 394 418.652344 L 252 418.652344 Z M 252 353.480469 " style="" fill="#ffffff" data-original="#ffffff" class=""/>
<path d="M 110 399.988281 L 394 399.988281 L 394 418.65625 L 110 418.65625 Z M 110 399.988281 " style="" fill="#fff5cb" data-original="#fff5cb"/>
<path d="M 252 399.992188 L 394 399.992188 L 394 418.652344 L 252 418.652344 Z M 252 399.992188 " style="" fill="#fff5cb" data-original="#fff5cb"/>
<path d="M 216.664062 353.480469 L 287.332031 353.480469 L 287.332031 418.65625 L 216.664062 418.65625 Z M 216.664062 353.480469 " style="" fill="#ff4f19" data-original="#ff4f19"/>
<path d="M 252 353.480469 L 287.328125 353.480469 L 287.328125 418.652344 L 252 418.652344 Z M 252 353.480469 " style="" fill="#ee2600" data-original="#ee2600"/>
</g>
</g></svg>
