<?xml version="1.0" encoding="utf-8"?>
<svg version="1.1" id="Layer_1" xmlns="http://www.w3.org/2000/svg" xmlns:xlink="http://www.w3.org/1999/xlink" x="0px" y="0px"
	width="100px" height="100px" viewBox="0 0 400 400" style="enable-background:new 0 0 400 400;" xml:space="preserve">
<g>
	
		<linearGradient id="SVGID_1_" gradientUnits="userSpaceOnUse" x1="200" y1="1.3235" x2="200" y2="400.3355" gradientTransform="matrix(1 0 0 -1 0 401.8235)">
		<stop  offset="9.800000e-02" style="stop-color:#9A282D"/>
		<stop  offset="0.496" style="stop-color:#EE2722"/>
	</linearGradient>
	<circle style="fill:url(#SVGID_1_);" cx="200" cy="200" r="200"/>
	<path style="fill:#FFFFFF;" d="M187.6,285.6h-9.3l-11.4,9.9v-20.8h-6.3v41.9h6.3v-11.2l12.5,11.2h9l-17.9-16.1L187.6,285.6z
		 M150.1,286.7c-1.8-1.2-4-1.8-6.3-1.8c-2.2,0-4.4,0.6-6.4,1.6c-1.1,0.5-2.1,1.2-2.9,2.1v-3h-6.2v30.9h6.2v-11.7
		c0-3.6,0.2-6.1,0.5-7.4c0.5-1.9,1.5-3.5,3-4.8s3.2-1.9,5.1-1.9c1.6,0,2.9,0.4,3.9,1.2c1,0.8,1.6,1.9,2,3.5c0.2,0.7,0.4,2.3,0.4,6.2
		v14.8h6.2v-15.9c0-4.1-0.4-7-1.3-9C153.3,289.6,151.9,288,150.1,286.7 M115.3,306.5c-0.9,1.5-2,2.7-3.6,3.6c-1.5,0.9-3.2,1.3-5,1.3
		c-1.8,0-3.4-0.5-4.9-1.3c-1.5-0.9-2.7-2.2-3.6-3.8c-0.9-1.6-1.4-3.3-1.4-5.1c0-1.8,0.5-3.5,1.3-5.1c0.9-1.6,2.1-2.8,3.7-3.7
		c1.5-0.9,3.2-1.3,5-1.3c2.9,0,5.1,0.9,7,2.9c2,2,2.9,4.4,2.9,7.3C116.6,303.2,116.1,304.9,115.3,306.5 M116.3,288.7
		c-1-0.9-2-1.6-3.1-2.2c-2.1-1.1-4.4-1.6-6.9-1.6c-4.4,0-8.2,1.6-11.3,4.7s-4.7,7-4.7,11.4c0,4.5,1.5,8.4,4.6,11.5s6.8,4.7,11.2,4.7
		c2.4,0,4.7-0.5,6.8-1.6c1.2-0.5,2.3-1.3,3.3-2.2v3h6.2v-30.9h-6.1V288.7L116.3,288.7z M79.7,307.4c-0.6,1-1.5,1.7-2.5,2.1
		c-1.1,0.5-3.1,0.7-5.7,0.7h-3.4v-12.1H69c3.1,0,5.3,0.1,6.5,0.4c1.7,0.4,3,1.1,3.9,2.2c0.9,1,1.4,2.2,1.4,3.6
		C80.7,305.5,80.4,306.5,79.7,307.4 M68.1,282h3.1c2.4,0,4,0.4,5,1.2c0.9,0.7,1.4,1.8,1.4,3.1c0,1-0.3,2-0.9,2.8
		c-0.6,0.8-1.4,1.5-2.4,1.9c-1.1,0.4-2.9,0.6-5.4,0.6H68C68,291.6,68.1,282,68.1,282z M83.4,295.8c-0.7-0.6-1.6-1.2-2.7-1.7
		c0.8-0.7,1.5-1.5,2.1-2.4c1-1.6,1.4-3.4,1.4-5.3c0-2.1-0.6-4-1.6-5.7c-1.1-1.7-2.6-3-4.4-3.8s-4.3-1.2-7.5-1.2h-8.8v40.9h11.8
		c4.1,0,7.4-1.2,9.9-3.5c2.5-2.4,3.8-5.3,3.8-8.7c0-1.7-0.4-3.3-1-4.8C85.6,298.1,84.6,296.8,83.4,295.8 M97.9,259.5l0.8-1l-5-3.8
		l-0.8,0.9c-3.4,3.9-7.5,5.8-12.5,5.8c-4.6,0-8.3-1.4-11.3-4.3c-2.9-2.9-4.4-6.4-4.4-10.8c0-2.9,0.7-5.4,2-7.7
		c1.3-2.3,3.2-4.1,5.6-5.4c2.4-1.4,5-2,7.9-2c2.6,0,5,0.5,7.1,1.6c2.2,1,4,2.5,5.6,4.6l0.8,1l5.1-3.8l-0.7-1c-2-2.7-4.5-4.8-7.6-6.4
		c-3-1.5-6.5-2.3-10.3-2.3c-6.3,0-11.5,2.1-15.7,6.1c-4.2,4.1-6.3,9.1-6.3,15.1c0,5.6,1.7,10.5,5.2,14.5c4.1,4.7,9.8,7.1,16.9,7.1
		c3.7,0,7.1-0.7,10.1-2.1C93.3,264.1,95.9,262.1,97.9,259.5 M325.9,243.4c1.8-1.6,3.8-2.4,6.3-2.4c1.5,0,2.9,0.4,4.3,1
		c1.3,0.6,2.4,1.4,3.2,2.5c0.5,0.7,1,1.5,1.4,2.6h-17.6C324.2,245.5,325,244.3,325.9,243.4 M341.8,255.3c-1,1.7-2,3-2.8,3.7
		c-0.8,0.7-1.9,1.3-3.1,1.8s-2.5,0.7-3.7,0.7c-2.7,0-4.8-0.9-6.6-2.7c-1.5-1.6-2.5-3.6-2.7-6h25.4v-1.3c0-4.1-1.2-7.7-3.4-10.5
		c-3.1-4-7.3-6-12.6-6c-5.1,0-9.2,2-12.2,5.9c-2.4,3-3.6,6.5-3.6,10.5c0,4.1,1.4,7.9,4.2,11.1c2.9,3.3,6.8,5,11.8,5
		c2.2,0,4.3-0.3,6-1c1.8-0.7,3.5-1.7,4.9-3s2.7-3.1,3.8-5.2l0.6-1.1l-5.3-2.8L341.8,255.3L341.8,255.3z M306.5,266.6h6.2v-41.9h-6.2
		V266.6L306.5,266.6z M294.2,256.5c-0.9,1.5-2,2.7-3.6,3.6s-3.3,1.3-5.1,1.3c-1.8,0-3.4-0.4-4.9-1.3s-2.8-2.2-3.7-3.8
		c-0.9-1.6-1.4-3.3-1.4-5.1s0.4-3.5,1.3-5.1c0.9-1.6,2.1-2.8,3.6-3.7s3.2-1.3,5-1.3c2.8,0,5.1,1,7,2.9c2,2,2.9,4.4,2.9,7.3
		C295.5,253.3,295,255,294.2,256.5 M295.2,238.8c-1-0.9-2-1.6-3.1-2.2c-2.1-1.1-4.4-1.6-6.9-1.6c-4.4,0-8.2,1.6-11.3,4.7
		s-4.7,7-4.7,11.4c0,4.5,1.6,8.4,4.6,11.5c3.1,3.2,6.8,4.7,11.2,4.7c2.4,0,4.7-0.5,6.8-1.5c1.1-0.6,2.3-1.3,3.3-2.2v3h6.2v-30.9
		h-6.2L295.2,238.8L295.2,238.8z M257.6,256.5c-0.8,1.5-2,2.7-3.6,3.6s-3.3,1.3-5.1,1.3c-1.7,0-3.4-0.5-4.9-1.3
		c-1.5-0.9-2.7-2.2-3.7-3.8c-0.9-1.6-1.4-3.3-1.4-5.1s0.5-3.5,1.4-5.1c0.9-1.6,2.1-2.8,3.7-3.7c1.5-0.9,3.2-1.3,5-1.3
		c2.8,0,5.1,1,7.1,2.9c1.9,2,2.9,4.4,2.9,7.3C258.9,253.3,258.5,255,257.6,256.5 M258.7,238.8c-1-0.9-2-1.6-3.1-2.2
		c-2-1.1-4.4-1.6-6.9-1.6c-4.4,0-8.2,1.6-11.3,4.7s-4.7,7-4.7,11.4c0,4.5,1.6,8.4,4.6,11.5c3.1,3.2,6.9,4.7,11.2,4.7
		c2.5,0,4.7-0.5,6.8-1.5c1.2-0.6,2.3-1.3,3.3-2.2v3h6.2v-41.9h-6.2L258.7,238.8L258.7,238.8z M220.7,241c1.5,0,3.1,0.8,4.8,2.5
		l0.9,0.9l4.2-4.3l-1-0.9c-2.9-2.8-5.8-4.2-8.8-4.2c-2.5,0-4.7,0.8-6.5,2.5c-1.7,1.7-2.6,3.8-2.6,6.3c0,1.9,0.6,3.7,1.6,5.2
		c1.1,1.5,2.9,2.9,5.7,4.3c2.9,1.5,3.9,2.3,4.2,2.7c0.5,0.6,0.7,1.2,0.7,2c0,0.9-0.4,1.7-1.1,2.4c-0.8,0.7-1.8,1.1-2.9,1.1
		c-1.7,0-3.3-0.9-4.9-2.7l-1-1.1l-4,4.5l0.7,0.9c1.1,1.4,2.5,2.5,4.1,3.3c1.7,0.8,3.4,1.2,5.2,1.2c2.8,0,5.2-0.9,7-2.8
		c1.9-1.9,2.8-4.2,2.8-6.8c0-1.9-0.6-3.7-1.7-5.2s-3.1-2.9-6-4.4c-2.5-1.3-3.6-2.2-4-2.7c-0.5-0.6-0.7-1.2-0.7-1.8
		c0-0.7,0.2-1.3,0.8-1.8C219.2,241.2,219.9,241,220.7,241 M184.4,247c0.6-1.6,1.4-2.8,2.4-3.6c1.8-1.6,3.8-2.4,6.3-2.4
		c1.5,0,2.9,0.4,4.3,1c1.3,0.6,2.4,1.4,3.2,2.5c0.6,0.7,1,1.5,1.4,2.6h-17.6V247z M193,235c-5.1,0-9.2,2-12.3,5.9
		c-2.4,3.1-3.6,6.5-3.6,10.5c0,4.1,1.4,7.9,4.2,11.1c2.8,3.3,6.8,5,11.8,5c2.2,0,4.2-0.3,6.1-1c1.8-0.7,3.5-1.7,4.9-3
		c1.4-1.3,2.7-3.1,3.8-5.2l0.6-1.1l-5.3-2.8l-0.7,1c-1,1.7-2,3-2.8,3.7c-0.8,0.7-1.9,1.3-3.1,1.8c-1.2,0.5-2.5,0.7-3.8,0.7
		c-2.6,0-4.8-0.9-6.6-2.7c-1.5-1.6-2.4-3.6-2.7-6h25.4v-1.3c0-4.1-1.2-7.7-3.4-10.5C202.5,237,198.3,235,193,235 M156.9,261.5
		c-1.8,0-3.4-0.4-4.9-1.3c-1.5-0.9-2.7-2.2-3.6-3.8c-0.9-1.6-1.4-3.3-1.4-5.1s0.5-3.5,1.3-5.1c0.9-1.6,2.1-2.8,3.7-3.7
		c1.5-0.9,3.2-1.3,5-1.3c2.8,0,5.1,1,7.1,2.9c1.9,2,2.9,4.4,2.9,7.3c0,1.9-0.5,3.7-1.3,5.2c-0.8,1.5-2,2.7-3.6,3.6
		C160.4,261,158.7,261.5,156.9,261.5 M166.7,263.7v3h6.2v-41.9h-6.2v14.1c-1-0.9-2-1.6-3.1-2.2c-2.1-1.1-4.4-1.6-6.9-1.6
		c-4.4,0-8.2,1.6-11.3,4.7c-3.1,3.1-4.7,7-4.7,11.4c0,4.5,1.6,8.4,4.6,11.6c3.1,3.2,6.9,4.7,11.2,4.7c2.4,0,4.7-0.5,6.8-1.5
		C164.6,265.3,165.7,264.5,166.7,263.7 M134.6,235.7l-8.6,19.9l-8.9-19.9h-6.7l12.2,27.5l-6,13.8h6.7l18.1-41.3H134.6z M108.3,224.8
		h-6.2v41.9h6.2V224.8z M184.1,150.7l26.7-0.3c5.7,0,10.3,4.6,10.3,10.3c0,5.7-4.6,10.2-10.3,10.2h-26.7V150.7L184.1,150.7z
		 M118,183.4c22.4,0,42.2-11.5,53.8-28.8v28.8h39.1c12.7,0,22.9-10.1,22.9-22.8c0-6.6-2.7-12.5-7.1-16.7c4.4-4.2,7.1-10.1,7.1-16.7
		c0-12.7-10.4-23.1-23.1-23.1h-9.4l-12.7,13h22.2c5.7,0,10.3,4.6,10.3,10.3c0,5.7-4.6,10.2-10.3,10.2h-46.3
		c-7.4,18.4-25.4,31.3-46.5,31.3c-27.7,0-50.1-22.4-50.1-50.1S90.3,68.7,118,68.7c22.3,0,41.2,14.6,47.7,34.7l11-11.6
		C166.5,69.6,144,54.2,118,54.2c-35.7,0-64.6,28.9-64.6,64.6S82.3,183.4,118,183.4 M158,138l52.9-55l0.1-0.1V65.3L141.6,138
		C141.6,138,158,138,158,138z"/>
</g>
</svg>
