<?xml version="1.0"?>
<svg xmlns="http://www.w3.org/2000/svg" xmlns:xlink="http://www.w3.org/1999/xlink" xmlns:svgjs="http://svgjs.com/svgjs" version="1.1" width="512" height="512" x="0" y="0" viewBox="0 0 512 512" style="enable-background:new 0 0 512 512" xml:space="preserve" class=""><g><g xmlns="http://www.w3.org/2000/svg"><g><g><g id="XMLID_1068_"><g id="XMLID_1069_"><g id="XMLID_1085_"><g id="XMLID_1161_"><g id="XMLID_1162_"><g id="XMLID_1163_"><g id="XMLID_1164_"><g id="XMLID_1165_"><g id="XMLID_1166_"><g id="XMLID_1167_"><g id="XMLID_1168_"><g id="XMLID_1169_"><g id="XMLID_1170_"><g id="XMLID_1171_"><g id="XMLID_1172_"><circle cx="256" cy="256" fill="#f1f1f1" r="256" data-original="#655665" style="" class=""/></g></g></g></g></g></g></g></g></g></g></g></g></g></g></g></g></g><path d="m512 256c0-39.186-8.817-76.309-24.556-109.512l-60.966-60.966-340.956 340.956 60.966 60.966c33.203 15.739 70.326 24.556 109.512 24.556 141.385 0 256-114.615 256-256z" fill="#f1f1f1" data-original="#4c404c" style="" class=""/><g><path d="m85.522 85.522h340.956v340.956h-340.956z" fill="#f4efea" data-original="#f4efea" style="" class=""/><path d="m256 85.52h170.48v340.96h-170.48z" fill="#ddd9d4" data-original="#ddd9d4" style=""/><path d="m162.291 85.522c0 42.403-34.366 76.769-76.769 76.769v-76.769z" fill="#ffc136" data-original="#ffc136" style="" class=""/><path d="m426.478 85.522v76.769c-42.403 0-76.769-34.366-76.769-76.769z" fill="#ea990a" data-original="#ea990a" style=""/><path d="m162.291 426.478h-76.769v-76.769c42.403 0 76.769 34.366 76.769 76.769z" fill="#ffc136" data-original="#ffc136" style="" class=""/><path d="m426.478 349.709v76.769h-76.769c0-42.403 34.366-76.769 76.769-76.769z" fill="#ea990a" data-original="#ea990a" style=""/><path d="m311.859 201.699-55.859-116.177-55.859 116.177-114.619 54.301 114.619 54.301 55.859 116.177 55.859-116.177 114.619-54.301z" fill="#df4332" data-original="#df4332" style=""/><path d="m426.48 256-81.91 38.81-32.71 15.49-16.56 34.44-39.3 81.74v-340.96l39.1 81.31 16.76 34.87 33.14 15.7z" fill="#b2352c" data-original="#b2352c" style=""/><path d="m331.085 257.062 41.113-117.26-117.26 41.113-115.136-41.113 41.113 115.136-41.113 117.26 117.26-41.113 115.136 41.113z" fill="#7de7ff" data-original="#7de7ff" style=""/><path d="m344.57 294.81 27.63 77.39-76.9-27.46-38.24-13.65-1.06.37v-150.92l39.1-13.71 77.1-27.03-27.2 77.6-13.91 39.66z" fill="#61c4e2" data-original="#61c4e2" style=""/><circle cx="256" cy="256" fill="#61c4e2" r="29.622" data-original="#61c4e2" style=""/><path d="m285.62 256c0 16.36-13.26 29.62-29.62 29.62v-59.24c16.36 0 29.62 13.26 29.62 29.62z" fill="#50a7d3" data-original="#50a7d3" style=""/></g></g></g></svg>
