<svg xmlns="http://www.w3.org/2000/svg" viewBox="0 0 652 652" xmlns:v="https://vecta.io/nano"><path d="M71 71h500v500H71z" fill="#007b85"/><path d="M315.4 136.3c-64.2 0-114 52.1-114 113.2 0 54 35.3 83.1 35.3 83.1 3.5 3.1 2.6 4.7.1 7.2 0 0-35.4 32.2-35.4 82 0 68.3 54.6 114.3 114 114.3 66.4 0 113.5-54 113.5-113.6 0-51.2-34-81.6-34-81.6-4.8-4.6-4.8-5.3 0-9.6 0 0 34-28.6 34-82 0-60.3-48.5-113.1-113.5-113h0zM290 194.9c3.2 0 6.1 1.7 7.7 4.2 4-6.1 13.1-5.4 16.1 1.2 3.3-7.2 13.5-7.2 16.8 0 4.1-9 17.7-6.1 17.6 3.9 0 9.9-13.4 12.9-17.6 3.9-3.3 7.1-13.5 7.1-16.8 0-3.1 6.6-12.2 7.3-16.2 1.2-.7 1-1.5 1.9-2.5 2.5 5.3 3.7 5.3 11.5 0 15.2 5.3 3.7 5.3 11.6 0 15.3.8.5 1.4 1.1 1.9 1.8 4-5.1 11.9-4.5 15.2 1.1 3.5-6.1 12.3-6.1 15.9-.1 4.9-8 17.2-4.6 17.2 4.8s-12.3 12.8-17.2 4.8c-3.6 6-12.4 5.9-15.9-.1-3.3 5.6-11.2 6.1-15.2 1.1-.5.7-1.2 1.3-2 1.8 5.4 3.7 5.4 11.6 0 15.3 5.3 3.7 5.3 11.6 0 15.2a9.9 9.9 0 0 1 2.5 2.5c4-6.2 13.2-5.5 16.2 1.2 3.3-7.2 13.5-7.2 16.8 0 4.2-9 17.7-6 17.7 3.9s-13.5 12.9-17.7 3.9c-3.3 7.2-13.5 7.2-16.8 0-3.1 6.6-12.2 7.3-16.1 1.2-3.2 4.9-10 5.7-14.2 1.7-4.2-4.1-3.6-11 1.2-14.3-5.3-3.7-5.3-11.6 0-15.2-5.3-3.7-5.3-11.6 0-15.3-5.3-3.7-5.3-11.5 0-15.2-5.3-3.7-5.3-11.6 0-15.3-5.3-3.7-5.3-11.5 0-15.2-7.3-5.2-3.7-17 5.4-17h0 0zm0 172.6c3.2 0 6.1 1.7 7.7 4.2 4-6.1 13.1-5.4 16.1 1.2 1.5-3.2 4.7-5.4 8.4-5.4s6.9 2.2 8.4 5.4c2.2-4.6 7.6-6.7 12.3-4.5 3.3 1.5 5.4 4.8 5.4 8.4 0 9.9-13.5 12.9-17.7 3.9-3.4 7.1-13.5 7.1-16.8 0-3.1 6.6-12.2 7.3-16.2 1.2-.6 1-1.5 1.9-2.5 2.5 5.3 3.7 5.3 11.5 0 15.2 5.3 3.7 5.3 11.6 0 15.2.8.5 1.4 1.1 2 1.8 4-5.1 11.9-4.5 15.2 1.1 3.5-6 12.2-6.1 15.9-.1 4.8-8 17.2-4.5 17.2 4.8s-12.4 12.8-17.2 4.8c-3.7 6-12.4 5.9-15.9-.1-3.3 5.6-11.2 6.1-15.2 1-.6.8-1.3 1.4-2 1.9 5.3 3.7 5.3 11.5 0 15.2 5.3 3.7 5.3 11.6 0 15.2 1 .7 1.8 1.6 2.5 2.5 4-6.1 13.1-5.5 16.2 1.2 3.3-7.1 13.5-7.1 16.8 0 2.2-4.6 7.6-6.7 12.3-4.5 10.4 5.5 3.1 21.2-7.8 16.8a8.97 8.97 0 0 1-4.5-4.5c-2.2 4.7-7.7 6.7-12.4 4.5a8.97 8.97 0 0 1-4.5-4.5c-3.1 6.6-12.1 7.3-16.1 1.2-1.7 2.5-4.5 4.2-7.8 4.2-9.1 0-12.7-11.7-5.3-16.9-5.3-3.7-5.3-11.6 0-15.2-5.3-3.7-5.3-11.6 0-15.2-5.3-3.7-5.3-11.5 0-15.2-5.3-3.7-5.3-11.5 0-15.2-5.3-3.7-5.3-11.5 0-15.2-7.3-5.2-3.7-16.9 5.5-16.9h0 0zm0 0" fill="#ffe600"/></svg>