<?xml version="1.0" encoding="utf-8"?>
<svg version="1.1" id="Layer_1" xmlns="http://www.w3.org/2000/svg" xmlns:xlink="http://www.w3.org/1999/xlink" x="0px" y="0px"
	 viewBox="0 0 1207.7 269" style="enable-background:new 0 0 1207.7 269;" xml:space="preserve">
<g>
	<path style="fill:#040404;" d="M1056.2,227.8H1026v-117h-25.2v-26h25.2V41.3h30.2v43.5h29.7v26l0,0h-29.7V227.8z"/>
	<path style="fill:#040404;" d="M1151.9,229.4c-11.8,0-24.3-3.6-34.2-10.6c-12.1-8.6-19-22.7-19-37.5l0,0h27.9v0.4
		c0.3,5.5,2.8,10.8,7.3,14.1c0.9,0.7,1.8,1.2,2.8,1.7l0.1,0.1c6.1,3.6,13.1,5.1,21.4,4.6c11.8-0.8,19.7-7.5,19.9-16.9
		c0.2-8-5.6-13.5-17.5-16.2l-19.2-4.5c-28.6-7.7-40.9-22.7-38.6-47.2l0,0c2.1-20.8,24.1-37,50.1-37c20.2,0,35.7,7.6,43.9,21
		c3.8,6.2,5.6,13.5,5.5,20.8v0.8h-29.2l0,0c0.1-4.8-2.1-9.5-6.1-12.2c-3.5-2.4-8.2-3.7-13.5-3.7c-9.6,0-17.7,4.7-19.6,11.5
		c-1.1,4.3-1.1,7.2,0.2,10.1c2.1,4.4,6.9,7.5,15.6,10l20.6,5.1c17.1,4.2,37.4,15,37.4,42.2c0,12.9-5.8,23.9-16.8,32
		C1180.6,225.4,1166.8,229.4,1151.9,229.4z"/>
	<path style="fill:#040404;" d="M388.8,227.9h-30.2v-80.7c0-22.4-11.5-35.7-30.6-35.7c-9.8-0.2-18.3,3.1-24.6,9.3
		c-7.2,7.1-11.2,17.8-11.2,30v77.1H262v-81c0-21.9-11.1-35.4-28.8-35.4c-18.2,0-37.5,10.3-37.5,39.3v77.1h-30.3V84.8h30.2v17.1
		c3.7-5.2,9-9.7,15.8-13.2c6.6-3.4,14.6-5.8,21.4-6.3c5.5-0.3,10.8,0,15.7,0.9c17.1,2.6,29.3,11.2,36.4,25.5
		c12.8-22.2,33.3-27,48.5-27c17.8,0,31.7,5.7,41.3,16.8c9.4,11,14.2,26.7,14.2,46.7v82.6H388.8L388.8,227.9z"/>
	<path style="fill:#040404;" d="M484.5,230.9c-19.5,0-37.6-7.2-51-20.4c-13.9-13.7-21.6-33-21.6-54.3c0-21.7,7.5-40.5,21.6-54.3
		c13.3-13,31.4-20.1,51-20.1c19.8,0,38,8,47.7,20.7V84.8h29.9v143.1h-29.9v-18.3C522.3,222.7,504.2,230.9,484.5,230.9z M486.9,111.5
		c-25.6,0-44.1,18.7-44.1,44.4c0,25.9,19,45.3,44.1,45.3c21.7,0,45-14.2,45-45.3C531.9,127,508.7,111.5,486.9,111.5z"/>
	<path style="fill:#040404;" d="M847.2,227.9h-40L743.6,160v67.9h-31.9V0.1h31.9v131.7l44.3-47.1h40.2l-57.7,61.2L847.2,227.9z"/>
	<path style="fill:#040404;" d="M623.6,227.9h-31.7V84.8h31.7v16.9c10.1-11.2,23.2-16.9,38.9-16.9c10.8,0.2,20.5,3.3,28.9,9.2
		c1,0.7,3.5,2.3,4.7,3.1c0.4,0.3,0.5,0.9,0.2,1.3l-22.6,28c-0.4,0.5-1.2,0.7-1.8,0.3c-1.1-0.6-2.8-1.6-4.1-2.3
		c-5.3-3-10.4-5.1-15.8-5.1c-7.4,0-13.9,2.5-19.2,7.5l-0.1,0.1c-5.9,4.9-9,13-9.2,24L623.6,227.9L623.6,227.9L623.6,227.9z"/>
	<path style="fill:#040404;" d="M968.5,101.9c-12.8-13-30.8-20.1-50.8-20.1c-8.5,0-16.6,1.3-24.2,3.7c-8.8,2.8-16.9,7.2-23.9,13
		c-1.3,1.1-2.6,2.2-3.8,3.4c-14,13.6-21.3,32.3-21.3,54c0,43.4,30.8,75,73.2,75c22,0,41.7-8.1,55-22.3l-19.1-20.4
		c-8.1,9.6-20.9,15.2-35,15.2c-21.8,0-38.7-13-43.2-33c-0.1-0.5,0-1.1,0.3-1.5s0.8-0.6,1.3-0.6h111.7c0,0,0-10.5,0-12.3
		C988.8,134.1,981.8,115.4,968.5,101.9z M875,144c0,0,0.2-1.2,0.5-2.6c2.1-9.2,6.8-16.8,13.4-22.3c7.1-5.9,16.3-9.3,26.9-9.7
		c0.6,0,1.2,0,1.8,0c20.8,0,36,12.2,40.4,32.1c0.3,1.3,0.6,2.5,0.6,2.5H875L875,144z"/>
	<g>
		<path style="fill:#0CCD93;" d="M131.8,0.1l-2.2,5.5l-15.2,37.6c-0.2-0.1-0.4-0.3-0.6-0.5c-5.5-4-11.9-7.3-18.7-9.7l13.4-33
			L131.8,0.1L131.8,0.1L131.8,0.1z"/>
		<path style="fill:#0CCD93;" d="M35.4,239.1L23.3,269H0l2.2-5.5l14.5-35.9C22.1,232.2,28.4,236.1,35.4,239.1z"/>
		<path style="fill:#040404;" d="M3.8,94.3c0-34.1,31.7-54.4,62.2-54.4c34.6,0,59.4,20.8,61.8,51.7c0.2,2.3,0.2,6.8,0.2,6.8H99.1
			c0,0,0-3.4-0.5-6.2c0,0-0.3-1.5-0.3-1.6c-0.1-0.4-0.2-0.9-0.3-1.3c-0.1-0.5-0.2-0.9-0.4-1.4c-0.1-0.5-0.3-0.9-0.4-1.3
			c-1.8-4.9-4.9-9-9.1-12.1c-0.4-0.3-0.8-0.6-1.2-0.8c-0.4-0.2-0.7-0.5-1.1-0.7c-0.3-0.2-0.6-0.4-0.9-0.5c-0.2-0.1-0.5-0.3-0.7-0.4
			c-0.6-0.3-1.3-0.6-1.9-0.9c-0.6-0.3-1.3-0.6-2-0.8l0,0c-3-1.1-6.3-1.9-9.9-2.2C68.9,68,67.3,68,65.6,68
			c-16.2,0-32.9,9.8-32.9,26.2c0,4,0,15.4,18.3,22.1l-10.4,25.8C16.2,133,3.8,117,3.8,94.3z"/>
		<path style="fill:#040404;" d="M133.4,184.5c-3.6,30.1-29.4,50.4-64.1,50.4c-17.4,0-33.8-5.7-46.2-16.1
			C11.2,208.9,3.5,195,2.4,181.4c-0.3-3.4,0-7,0-7h28.3c0,0,0.1,2.3,0.5,4.6c0.4,1.9,1,4.2,1.4,5.2c0.1,0.2,0.2,0.4,0.2,0.7
			c0.3,0.9,0.7,1.8,1.2,2.7c0.1,0.2,0.2,0.4,0.3,0.7c0.1,0.2,0.2,0.4,0.4,0.7c0.5,0.8,1,1.7,1.6,2.5l0,0c0.2,0.4,0.5,0.7,0.8,1.1
			c1.9,2.5,4.3,4.9,7,6.9c0.2,0.2,0.4,0.3,0.7,0.5c0.2,0.2,0.4,0.3,0.7,0.5c3.5,2.4,7.6,4.3,12.2,5.6c3.6,1,7.4,1.5,11.5,1.5
			c15.3,0,32.7-6.7,35.6-25.6c1.4-18.2-13.6-26.3-25.4-29.9l10.4-25.8c14.2,4.6,25.2,11.3,32.6,19.7
			C131.6,156.4,135.3,169.4,133.4,184.5z"/>
		<path style="fill:#0CCD93;" d="M89.5,105.8L89.5,105.8l-2.4,5.8l-19,47l-13,32.2c-0.6-0.3-1.1-0.7-1.6-1c0,0-0.3-0.2-0.4-0.2
			l-0.6-0.5c-11.6-8.2-9.9-23.3-9.4-26.2c0-0.3,0.1-0.6,0.2-0.9l3.2-7.9l18.9-46.8l11.4-28.1l2.2,1C90.4,86.2,89.5,105.8,89.5,105.8
			z"/>
	</g>
</g>
</svg>
