<?xml version="1.0"?>
<svg xmlns="http://www.w3.org/2000/svg" xmlns:xlink="http://www.w3.org/1999/xlink" xmlns:svgjs="http://svgjs.com/svgjs" version="1.1" width="512" height="512" x="0" y="0" viewBox="0 0 512 512" style="enable-background:new 0 0 512 512" xml:space="preserve" class=""><g>
<circle xmlns="http://www.w3.org/2000/svg" style="" cx="256" cy="256" r="256" fill="#f1f1f1" data-original="#b9eaff" class=""/>
<path xmlns="http://www.w3.org/2000/svg" style="" d="M512,256c0-12.252-0.881-24.298-2.545-36.092l-84.201-84.201L413.87,156.45l-84.997-84.997  l-48.375,169.7l-85.975-85.975L82.891,416.413l76.857,76.857c29.717,12.067,62.204,18.73,96.251,18.73  C397.384,512,512,397.386,512,256z" fill="#f1f1f1" data-original="#35ccff" class=""/>
<polygon xmlns="http://www.w3.org/2000/svg" style="" points="120.86,155.177 77.698,198.339 77.698,328.47 194.524,328.47 194.524,155.177 " fill="#f1333f" data-original="#f1333f" class=""/>
<rect xmlns="http://www.w3.org/2000/svg" x="130.276" y="167.839" style="" width="64.25" height="64.25" fill="#ffffff" data-original="#ffffff"/>
<rect xmlns="http://www.w3.org/2000/svg" x="232.486" y="199.956" style="" width="96.38" height="64.25" fill="#f7674f" data-original="#f7674f"/>
<rect xmlns="http://www.w3.org/2000/svg" x="256" y="199.956" style="" width="72.869" height="64.25" fill="#c6594a" data-original="#c6594a"/>
<rect xmlns="http://www.w3.org/2000/svg" x="232.486" y="71.456" style="" width="96.38" height="64.25" fill="#983262" data-original="#983262"/>
<rect xmlns="http://www.w3.org/2000/svg" x="256" y="71.456" style="" width="72.869" height="64.25" fill="#662e57" data-original="#662e57"/>
<rect xmlns="http://www.w3.org/2000/svg" x="232.486" y="135.706" style="" width="96.38" height="64.25" fill="#ffffff" data-original="#ffffff"/>
<rect xmlns="http://www.w3.org/2000/svg" x="256" y="135.706" style="" width="72.869" height="64.25" fill="#e0e0e0" data-original="#e0e0e0"/>
<rect xmlns="http://www.w3.org/2000/svg" x="328.87" y="199.956" style="" width="96.38" height="64.25" fill="#008cc3" data-original="#008cc3"/>
<rect xmlns="http://www.w3.org/2000/svg" x="328.87" y="135.706" style="" width="96.38" height="64.25" fill="#ff6838" data-original="#ff6838"/>
<polygon xmlns="http://www.w3.org/2000/svg" style="" points="482.694,234.684 410.002,416.413 82.891,416.413 46.545,271.029 " fill="#175d76" data-original="#175d76" class=""/>
<polygon xmlns="http://www.w3.org/2000/svg" style="" points="482.694,234.684 256,253.574 256,416.413 410.002,416.413 " fill="#00263f" data-original="#00263f" class=""/>
<polygon xmlns="http://www.w3.org/2000/svg" style="" points="66.503,350.86 82.891,416.411 410.002,416.411 436.222,350.86 " fill="#f1333f" data-original="#f1333f" class=""/>
<polygon xmlns="http://www.w3.org/2000/svg" style="" points="436.222,350.86 256,350.86 256,416.413 410.002,416.413 " fill="#ae283f" data-original="#ae283f"/>
<circle xmlns="http://www.w3.org/2000/svg" style="" cx="409.186" cy="280.273" r="11.683" fill="#ffffff" data-original="#ffffff"/>
<g xmlns="http://www.w3.org/2000/svg">
</g>
<g xmlns="http://www.w3.org/2000/svg">
</g>
<g xmlns="http://www.w3.org/2000/svg">
</g>
<g xmlns="http://www.w3.org/2000/svg">
</g>
<g xmlns="http://www.w3.org/2000/svg">
</g>
<g xmlns="http://www.w3.org/2000/svg">
</g>
<g xmlns="http://www.w3.org/2000/svg">
</g>
<g xmlns="http://www.w3.org/2000/svg">
</g>
<g xmlns="http://www.w3.org/2000/svg">
</g>
<g xmlns="http://www.w3.org/2000/svg">
</g>
<g xmlns="http://www.w3.org/2000/svg">
</g>
<g xmlns="http://www.w3.org/2000/svg">
</g>
<g xmlns="http://www.w3.org/2000/svg">
</g>
<g xmlns="http://www.w3.org/2000/svg">
</g>
<g xmlns="http://www.w3.org/2000/svg">
</g>
</g></svg>
