<?xml version="1.0"?>
<svg xmlns="http://www.w3.org/2000/svg" xmlns:xlink="http://www.w3.org/1999/xlink" xmlns:svgjs="http://svgjs.com/svgjs" version="1.1" width="512" height="512" x="0" y="0" viewBox="0 0 512 512" style="enable-background:new 0 0 512 512" xml:space="preserve" class=""><g><path xmlns="http://www.w3.org/2000/svg" d="m512 256c0 141.386719-114.613281 256-256 256s-256-114.613281-256-256 114.613281-256 256-256 256 114.613281 256 256zm0 0" fill="#f1f1f1" data-original="#00f8fe" style="" class=""/><path xmlns="http://www.w3.org/2000/svg" d="m512 256c0-18.996094-2.085938-37.507812-6.011719-55.324219l-137.929687-137.925781-76.296875 76.296875-6.199219-6.195313-25.085938 25.085938 11.628907 11.625-170.84375 170.847656c-20.574219 20.570313-20.574219 53.921875 0 74.492188 0 0 52.96875 52.9375 88.519531 88.433594 21.125 5.640624 43.316406 8.664062 66.21875 8.664062 141.386719 0 256-114.613281 256-256zm0 0" fill="#f1f1f1" data-original="#00b7be" style="" class=""/><path xmlns="http://www.w3.org/2000/svg" d="m101.261719 414.902344c-20.574219-20.570313-20.574219-53.921875 0-74.492188l178.480469-178.484375 74.496093 74.496094-178.484375 178.480469c-20.570312 20.574218-53.921875 20.574218-74.492187 0zm0 0" fill="#ffffff" data-original="#ffffff" style=""/><path xmlns="http://www.w3.org/2000/svg" d="m354.242188 236.421875-178.480469 178.480469c-20.578125 20.578125-53.933594 20.570312-74.5 0l215.730469-215.730469zm0 0" fill="#fff5cb" data-original="#fff5cb" style=""/><path xmlns="http://www.w3.org/2000/svg" d="m112.488281 403.679688c-14.203125-14.203126-14.203125-37.226563 0-51.425782l93.261719-93.265625 84.296875 18.558594-126.136719 126.132813c-14.199218 14.199218-37.222656 14.199218-51.421875 0zm0 0" fill="#ffb74f" data-original="#ffb74f" style=""/><path xmlns="http://www.w3.org/2000/svg" d="m290.042969 277.542969-126.132813 126.132812c-14.199218 14.199219-37.222656 14.199219-51.421875 0l135.40625-135.40625zm0 0" fill="#ff8900" data-original="#ff8900" style="" class=""/><path xmlns="http://www.w3.org/2000/svg" d="m368.058594 62.746094 85.355468 85.355468-77.027343 77.023438-85.355469-85.351562zm0 0" fill="#6d76e7" data-original="#6d76e7" style=""/><path xmlns="http://www.w3.org/2000/svg" d="m333.703125 182.457031 77.03125-77.03125 42.675781 42.675781-77.03125 77.03125zm0 0" fill="#4b5be5" data-original="#4b5be5" style=""/><path xmlns="http://www.w3.org/2000/svg" d="m285.5625 132.847656 97.75 97.746094-25.085938 25.085938-97.75-97.746094zm0 0" fill="#3a4de3" data-original="#3a4de3" style="" class=""/><path xmlns="http://www.w3.org/2000/svg" d="m309.351562 206.8125 25.082032-25.082031 48.875 48.875-25.082032 25.082031zm0 0" fill="#1c2ede" data-original="#1c2ede" style=""/><path xmlns="http://www.w3.org/2000/svg" d="m336.519531 131.96875-.582031-.582031c-3.277344-3.277344-3.277344-8.589844 0-11.867188l44.445312-44.445312 12.449219 12.445312-44.445312 44.449219c-3.277344 3.277344-8.589844 3.277344-11.867188 0zm0 0" fill="#3a4de3" data-original="#3a4de3" style="" class=""/><path xmlns="http://www.w3.org/2000/svg" d="m360.648438 156.097656-.582032-.582031c-3.277344-3.277344-3.277344-8.589844 0-11.867187l44.445313-44.445313 12.449219 12.449219-44.445313 44.445312c-3.277344 3.277344-8.589844 3.277344-11.867187 0zm0 0" fill="#3a4de3" data-original="#3a4de3" style="" class=""/><g xmlns="http://www.w3.org/2000/svg" fill="#1c2ede"><path d="m416.960938 111.648438-44.449219 44.449218c-3.273438 3.273438-8.582031 3.28125-11.863281 0l-.289063-.292968 50.378906-50.378907zm0 0" fill="#1c2ede" data-original="#1c2ede" style=""/><path d="m384.777344 180.226562-.582032-.582031c-3.277343-3.277343-3.277343-8.589843 0-11.863281l44.445313-44.449219 12.449219 12.449219-44.445313 44.445312c-3.277343 3.277344-8.589843 3.277344-11.867187 0zm0 0" fill="#1c2ede" data-original="#1c2ede" style=""/></g></g></svg>
