<svg xmlns="http://www.w3.org/2000/svg" viewBox="0 0 244.86 57.55"><path d="M35.15 22.42l-2.22-8.37a.81.81 0 0 0-.58-.58l-8.33-2.22c-.28-.07-.58.01-.78.21l-5.61 5.61 11.7 11.74 5.61-5.63c.2-.2.28-.49.21-.76z" fill="#82d170"/><path d="M.02 35.18l2.21 8.39a.81.81 0 0 0 .58.58l8.42 2.21c.28.07.58-.01.78-.21l5.61-5.61L5.87 28.81.25 34.42c-.2.2-.29.48-.23.76z" fill="#f8cf1c"/><path d="M11.25 11.25l-8.37 2.22a.81.81 0 0 0-.58.58L.02 22.41c-.07.28.01.57.21.77l5.61 5.61L17.6 17.07l-5.58-5.61c-.2-.2-.49-.28-.77-.21z" fill="#c6d636"/><path d="M34.86 34.34l-5.53-5.53L17.6 40.54l5.53 5.53a.98.98 0 0 0 1 .26l8.12-2.15a1.01 1.01 0 0 0 .72-.72l2.16-8.15c.1-.35-.01-.72-.27-.97z" fill="#d57dea"/><g fill="#762a7d"><path d="M5.87 28.82L17.6 17.09l11.74 11.74L17.6 40.56 5.87 28.82zm45.71 14.8l-8.33-25a.58.58 0 0 0-.55-.4h-2c-.45 0-.81-.36-.81-.81h0v-3c0-.45.36-.81.81-.81h0 12.72c.45 0 .81.36.81.81v3c0 .45-.36.81-.81.81h0-1.6a.59.59 0 0 0-.57.61c0 .05.01.11.03.16l4.27 12.85c.12.3.45.45.75.33.15-.06.27-.18.33-.33l6.85-17.75c.12-.31.41-.51.74-.52h3.8c.32.03.6.24.71.55l6.42 17.72a.58.58 0 0 0 .74.35c.16-.06.29-.19.35-.35L80.5 19c.1-.3-.05-.62-.35-.73a.63.63 0 0 0-.19-.03h-1.8c-.45 0-.81-.36-.81-.81v-3c0-.45.36-.81.81-.81h11.53a.8.8 0 0 1 .8.82c0 .06-.01.12-.02.18l-1 3.07c-.11.34-.42.56-.77.56h-1.9c-.25 0-.47.16-.55.39l-8.5 25a.81.81 0 0 1-.77.55h-4.5a.81.81 0 0 1-.76-.53l-6.61-18.25a.58.58 0 0 0-.74-.35c-.16.06-.29.19-.35.35l-7.07 18.25a.81.81 0 0 1-.75.52h-3.85c-.35 0-.66-.23-.77-.56zm65.53-4.02c-1.7.08-2.52-.72-2.52-2.64V23.18c0-6.07-5.08-9.9-10.79-9.9-8.86 0-12.07 4.2-12.43 8.9a.81.81 0 0 0 .75.87h4.42c.42 0 .77-.33.81-.75a4.39 4.39 0 0 1 4.53-4.24h.1c3.06 0 4.89 1.52 4.89 5v3h-1.62c-5.43 0-9.22.7-11.74 2.29s-3.79 4.49-3.79 7.91c-.07 2.36.88 4.63 2.6 6.24 1.73 1.63 4.05 2.49 6.42 2.36 1.58.01 3.15-.34 4.59-1 1.41-.63 2.71-1.47 3.86-2.5.23-.23.59-.23.82 0l.08.11c1.25 2.16 2.59 2.88 5.2 2.88 2.34 0 3.47-2.2 4.48-3.5.26-.36.17-.87-.19-1.13-.14-.1-.3-.15-.47-.15v.03zm-10.24-2.21c0 .17-.3.45-.43.56-.71.6-1.5 1.11-2.34 1.5-.76.32-1.59.48-2.42.45-1.2.03-2.36-.45-3.19-1.31a4.59 4.59 0 0 1-1.2-3.25c-.1-1.57.67-3.07 2-3.91a11.86 11.86 0 0 1 6.24-1.32h1.3l.04 7.28zM163.25 0c-3.48 0-5.77 1.1-7.51 3.2s-2.61 4.44-2.61 8.65V13c0 .31-.25.57-.56.58h-11.8c-.45 0-.81.36-.81.81v3c0 .45.36.81.81.81h.63a.58.58 0 0 1 .58.58c0 .07-.01.14-.04.21l-6 14c-.16.28-.52.37-.79.21a.53.53 0 0 1-.21-.21L128.86 19c-.13-.29.01-.64.3-.76.07-.03.15-.05.23-.05h1.86c.45 0 .81-.36.81-.81v-3c0-.45-.36-.81-.81-.81h-15.54a.8.8 0 0 0-.8.82.78.78 0 0 0 .09.37l1.63 3c.14.25.39.42.68.43h2.32c.22 0 .43.13.52.33l11.49 24.63c.07.18.07.38 0 .56-.11.28-2.15 4.42-2.15 4.42-1.11 2.36-2.35 4.39-4.74 4.4-1.26-.13-2.44-.71-3.32-1.62a.8.8 0 0 0-1.08.07l-2.26 2.35a.82.82 0 0 0 0 1.08c1.68 1.84 4.01 2.96 6.49 3.13 3.79.15 6.93-1.82 8.75-5.92l14.95-33.1a.58.58 0 0 1 .51-.32h3.72a.58.58 0 0 1 .58.58h0V39a.8.8 0 0 1-.14.45l-2.72 3.42c-.28.35-.21.86.14 1.14a.79.79 0 0 0 .49.17h12.72c.45 0 .81-.36.81-.81v-3c0-.45-.36-.81-.81-.81h-2.19c-.31 0-.57-.26-.57-.57V18.78c-.01-.31.25-.57.56-.58h3.87c.25 0 .49-.11.64-.31l2.32-3a.81.81 0 0 0-.15-1.13c-.14-.11-.31-.16-.49-.17h-6.32a.58.58 0 0 1-.58-.58V8.49c0-2.19 1.12-4.36 3.46-4.36 2.63 0 3 2.2 3.16 3.92.03.43.37.77.8.78h3.75c.42-.03.75-.38.76-.8 0-5.65-3.58-8.03-9.35-8.03h0zm73.12 13.55c-.73-.24-1.51-.35-2.28-.31-3.49 0-5.17 1.09-7.37 4.2-.22.23-.59.24-.82.02-.1-.1-.17-.23-.18-.37v-2.73c0-.45-.36-.81-.81-.81h-5.89c-.23 0-.46.11-.6.29l-2.42 3a.81.81 0 0 0 .12 1.14.82.82 0 0 0 .52.18h.73a.58.58 0 0 1 .58.58h0V39a.79.79 0 0 1-.13.45l-2.73 3.43c-.28.35-.21.86.14 1.14a.78.78 0 0 0 .48.17h12.51c.45 0 .81-.36.81-.81v-3c0-.45-.36-.81-.81-.81h-2a.58.58 0 0 1-.58-.58h0V23.87c0-.13.03-.25.08-.37a8.49 8.49 0 0 1 6.72-4.32c1.24-.02 2.47.17 3.65.55.43.11.81-.36.81-.81v-4.59a.99.99 0 0 0-.53-.78h0zm-24.35 26.02h-2a.58.58 0 0 1-.58-.58h0V14.35c-.01-.45-.37-.81-.82-.8h-5.76c-.25 0-.49.12-.64.32l-2.4 3a.81.81 0 0 0 .12 1.14c.14.11.31.18.49.18h.76a.59.59 0 0 1 .56.58V39a1.03 1.03 0 0 1-.14.45l-2.71 3.41A.81.81 0 0 0 199 44c.14.12.32.19.51.19h10.14a.71.71 0 0 0 .56-.24l2.37-3c.3-.33.28-.84-.04-1.14a.82.82 0 0 0-.52-.22v-.02z"/><circle cx="205.55" cy="5.89" r="4.36"/><path d="M195.67 39.6c-1.7.08-2.52-.72-2.52-2.64V23.18c0-6.07-5.08-9.9-10.79-9.9-8.86 0-12.07 4.2-12.43 8.9a.81.81 0 0 0 .75.87h4.42c.42 0 .77-.33.81-.75a4.39 4.39 0 0 1 4.53-4.24h.1c3.06 0 4.89 1.52 4.89 5v3h-1.58c-5.43 0-9.22.7-11.74 2.29s-3.79 4.49-3.79 7.91c-.07 2.36.88 4.63 2.6 6.24 1.73 1.63 4.05 2.49 6.42 2.36 1.58.01 3.15-.34 4.59-1 1.41-.63 2.71-1.47 3.86-2.5.23-.23.59-.23.82 0l.08.11c1.25 2.16 2.59 2.88 5.2 2.88 2.34 0 3.47-2.2 4.48-3.5.26-.36.18-.87-.19-1.13-.15-.11-.33-.16-.51-.15v.03zm-10.24-2.21c0 .17-.3.45-.43.56-.71.6-1.5 1.11-2.34 1.5-.76.32-1.59.48-2.42.45-1.21.03-2.38-.44-3.22-1.31a4.59 4.59 0 0 1-1.2-3.25c-.1-1.57.67-3.07 2-3.91a11.86 11.86 0 0 1 6.24-1.32h1.3l.07 7.28zm58.15-19.45h-.44l-.69-1h-.34v1h-.36v-2.66h1a.76.76 0 0 1 .79.73v.1a.75.75 0 0 1-.67.82l.71 1.01zm-1.46-2.32v1h.63c.28 0 .5-.22.5-.5s-.22-.5-.5-.5h-.63z"/><path d="M242.56 14.65c1.1 0 2 .9 2 2s-.9 2-2 2-2-.9-2-2 .9-2 2-2m0-.34a2.3 2.3 0 1 0 0 4.6 2.3 2.3 0 0 0 2.3-2.3c0-1.27-1.02-2.3-2.3-2.3z"/></g></svg>