<?xml version="1.0"?>
<svg xmlns="http://www.w3.org/2000/svg" xmlns:xlink="http://www.w3.org/1999/xlink" xmlns:svgjs="http://svgjs.com/svgjs" version="1.1" width="512" height="512" x="0" y="0" viewBox="0 0 512 512" style="enable-background:new 0 0 512 512" xml:space="preserve" class=""><g>
<circle xmlns="http://www.w3.org/2000/svg" style="" cx="256" cy="256" r="256" fill="#f1f1f1" data-original="#00c2c7" class=""/>
<path xmlns="http://www.w3.org/2000/svg" style="" d="M349.618,137.316C325.822,113.054,256,98,256,98L127.541,202.693L99.337,334.836L98,348.112  c0,0,7.592,35.116,19.811,47.077c38.182,39.016,77.226,77.226,115.828,115.828C241.01,511.655,248.464,512,256,512  c127.603,0,233.386-93.364,252.8-215.502C467.573,255.271,361.464,149.138,349.618,137.316z" fill="#f1f1f1" data-original="#0f7c7c" class=""/>
<polygon xmlns="http://www.w3.org/2000/svg" style="" points="367.452,191.463 223.22,191.463 256,374.664 334.672,374.664 " fill="#fb61ff" data-original="#fb61ff"/>
<polygon xmlns="http://www.w3.org/2000/svg" style="" points="144.548,191.463 177.328,374.664 256,374.664 256,191.463 " fill="#fc9eff" data-original="#fc9eff"/>
<path xmlns="http://www.w3.org/2000/svg" style="" d="M256,98l-77.295,106.575c-0.905,7.952-1.377,16.154-1.377,24.546v145.544V414h-13.44  C127.502,414,98,384.498,98,348.112c0-4.55,0.459-8.988,1.337-13.276l28.204-132.143C139.768,142.948,192.636,98,256,98z" fill="#f924ff" data-original="#f924ff"/>
<path xmlns="http://www.w3.org/2000/svg" style="" d="M256,98c63.364,0,116.232,44.948,128.459,104.693l28.204,132.143  c0.879,4.288,1.337,8.726,1.337,13.276C414,384.498,384.498,414,348.112,414h-13.44v-39.336V229.12  c0-8.392-0.472-16.593-1.377-24.546L256,98z" fill="#ce1fff" data-original="#ce1fff"/>
<path xmlns="http://www.w3.org/2000/svg" style="" d="M256,98c38.412,0,70.398,45.886,77.295,106.575c-11.729,8.602-24.585,15.007-37.992,19.196L256,98z" fill="#f924ff" data-original="#f924ff"/>
<path xmlns="http://www.w3.org/2000/svg" style="" d="M256,98c21.189,0,38.464,55.838,39.303,125.771c-12.771,4.006-26.034,6.005-39.303,6.005  l-18.516-65.888L256,98z" fill="#ce1fff" data-original="#ce1fff"/>
<path xmlns="http://www.w3.org/2000/svg" style="" d="M256,98l-39.303,125.771c-13.407-4.189-26.263-10.595-37.992-19.196  C185.601,143.886,217.588,98,256,98z" fill="#fb61ff" data-original="#fb61ff"/>
<path xmlns="http://www.w3.org/2000/svg" style="" d="M216.697,223.771C217.536,153.838,234.811,98,256,98v131.776  C242.731,229.776,229.468,227.776,216.697,223.771z" fill="#f924ff" data-original="#f924ff"/>
<g xmlns="http://www.w3.org/2000/svg">
</g>
<g xmlns="http://www.w3.org/2000/svg">
</g>
<g xmlns="http://www.w3.org/2000/svg">
</g>
<g xmlns="http://www.w3.org/2000/svg">
</g>
<g xmlns="http://www.w3.org/2000/svg">
</g>
<g xmlns="http://www.w3.org/2000/svg">
</g>
<g xmlns="http://www.w3.org/2000/svg">
</g>
<g xmlns="http://www.w3.org/2000/svg">
</g>
<g xmlns="http://www.w3.org/2000/svg">
</g>
<g xmlns="http://www.w3.org/2000/svg">
</g>
<g xmlns="http://www.w3.org/2000/svg">
</g>
<g xmlns="http://www.w3.org/2000/svg">
</g>
<g xmlns="http://www.w3.org/2000/svg">
</g>
<g xmlns="http://www.w3.org/2000/svg">
</g>
<g xmlns="http://www.w3.org/2000/svg">
</g>
</g></svg>
