<?xml version="1.0" encoding="utf-8"?>
<svg version="1.1" id="Layer_1" xmlns="http://www.w3.org/2000/svg" xmlns:xlink="http://www.w3.org/1999/xlink" x="0px" y="0px"
	width="100px" height="100px" viewBox="0 0 66.7 66.7" style="enable-background:new 0 0 66.7 66.7;" xml:space="preserve">
<g>
	<circle style="fill:#E8E8E8;" cx="33.3" cy="33.3" r="33.3"/>
	<circle style="fill:#FFFFFF;" cx="33.3" cy="33.3" r="32.7"/>
	<path style="fill:#F18700;" d="M25.3,32.5c-0.1,0-0.2,0-0.3,0c-0.1,0-0.2,0-0.3,0c-0.2,0-0.4,0-0.5-0.1v-1.1h-1.4v1.1
		c0,0-0.1,0-0.2,0s-0.1,0-0.3,0c-0.2,0-0.4,0-0.5-0.1V30c0-0.6,0.1-1,0.5-1.3c0.3-0.3,0.9-0.5,1.5-0.5c0.2,0,0.5,0,0.7,0.1
		c0.3,0.1,0.5,0.1,0.7,0.2L25.3,32.5L25.3,32.5L25.3,32.5L25.3,32.5z M24.2,30.7v-1.3c-0.2-0.1-0.3-0.1-0.5-0.1
		c-0.5,0-0.9,0.3-0.9,0.9v0.5L24.2,30.7L24.2,30.7L24.2,30.7z M28.9,31.6c-0.1,0.1-0.3,0.1-0.4,0.1c-0.1,0-0.3,0.1-0.5,0.1
		c-0.1,0-0.3,0-0.4-0.1s-0.3-0.1-0.3-0.2c-0.1-0.1-0.1-0.2-0.2-0.4C27,31,27,30.8,27,30.6s0-0.4,0.1-0.5c0.1-0.1,0.1-0.3,0.2-0.4
		c0.1-0.1,0.2-0.1,0.3-0.2c0.1-0.1,0.3-0.1,0.4-0.1c0.2,0,0.3,0,0.5,0.1c0.1,0,0.3,0.1,0.4,0.1c0.1-0.1,0.1-0.2,0.1-0.4
		c0.1-0.1,0.1-0.3,0.1-0.5c-0.1-0.1-0.3-0.1-0.5-0.1c-0.2-0.1-0.4-0.1-0.7-0.1c-0.3,0-0.7,0.1-0.9,0.1c-0.3,0.1-0.5,0.3-0.7,0.5
		c-0.2,0.2-0.3,0.4-0.4,0.7c-0.1,0.3-0.1,0.5-0.1,0.9s0.1,0.6,0.1,0.9c0.1,0.3,0.2,0.5,0.4,0.7c0.2,0.2,0.4,0.3,0.7,0.5
		c0.3,0.1,0.5,0.1,0.9,0.1c0.3,0,0.5,0,0.7-0.1c0.2-0.1,0.3-0.1,0.5-0.1c0-0.1-0.1-0.3-0.1-0.5C29,31.8,28.9,31.7,28.9,31.6
		 M32.5,31.6c-0.1,0.1-0.3,0.1-0.4,0.1c-0.1,0-0.3,0.1-0.5,0.1c-0.1,0-0.3,0-0.4-0.1s-0.3-0.1-0.3-0.2c-0.1-0.1-0.1-0.2-0.2-0.4
		c-0.1-0.1-0.1-0.3-0.1-0.5s0-0.4,0.1-0.5c0.1-0.1,0.1-0.3,0.2-0.4c0.1-0.1,0.2-0.1,0.3-0.2c0.1-0.1,0.3-0.1,0.4-0.1
		c0.2,0,0.3,0,0.5,0.1c0.1,0,0.3,0.1,0.4,0.1c0.1-0.1,0.1-0.2,0.1-0.4c0.1-0.1,0.1-0.3,0.1-0.5c-0.1-0.1-0.3-0.1-0.5-0.1
		c-0.2-0.1-0.4-0.1-0.7-0.1c-0.3,0-0.7,0.1-0.9,0.1c-0.3,0.1-0.5,0.3-0.7,0.5c-0.2,0.2-0.3,0.4-0.4,0.7c-0.1,0.3-0.1,0.5-0.1,0.9
		s0.1,0.6,0.1,0.9s0.2,0.5,0.4,0.7c0.2,0.2,0.4,0.3,0.7,0.5s0.5,0.1,0.9,0.1c0.3,0,0.5,0,0.7-0.1c0.2-0.1,0.3-0.1,0.5-0.1
		c0-0.1-0.1-0.3-0.1-0.5C32.5,31.8,32.5,31.7,32.5,31.6 M35,32.7c-0.3,0-0.6-0.1-0.9-0.1c-0.3-0.1-0.5-0.3-0.6-0.5
		c-0.1-0.2-0.3-0.4-0.4-0.7c-0.1-0.3-0.1-0.5-0.1-0.9c0-0.3,0.1-0.6,0.1-0.9c0.1-0.3,0.2-0.5,0.4-0.7c0.1-0.2,0.3-0.3,0.6-0.5
		c0.3-0.1,0.5-0.1,0.9-0.1c0.3,0,0.6,0.1,0.9,0.1c0.3,0.1,0.5,0.3,0.6,0.5c0.1,0.2,0.3,0.4,0.4,0.7c0.1,0.3,0.1,0.5,0.1,0.9
		c0,0.3-0.1,0.6-0.1,0.9c-0.1,0.3-0.2,0.5-0.4,0.7c-0.1,0.2-0.3,0.3-0.6,0.5C35.6,32.6,35.3,32.7,35,32.7 M34.1,30.5
		c0,0.4,0.1,0.7,0.2,0.9c0.1,0.2,0.4,0.3,0.7,0.3c0.3,0,0.5-0.1,0.7-0.3c0.1-0.2,0.2-0.5,0.2-0.9c0-0.4-0.1-0.7-0.2-0.9
		c-0.1-0.2-0.4-0.3-0.7-0.3c-0.3,0-0.5,0.1-0.7,0.3C34.1,29.8,34.1,30.1,34.1,30.5 M40.2,30.9c0.3-0.1,0.5-0.3,0.6-0.5
		c0.1-0.2,0.2-0.5,0.2-0.7c0-0.5-0.1-0.8-0.5-1c-0.3-0.2-0.8-0.3-1.5-0.3c-0.2,0-0.5,0-0.7,0l-0.8,0.1v4.1c0.2,0,0.3,0.1,0.5,0.1
		c0.1,0,0.2,0,0.3,0s0.1,0,0.3,0v-3.3h0.2c0.1,0,0.1,0,0.2,0c0.6,0,0.9,0.2,0.9,0.6c0,0.2-0.1,0.4-0.2,0.5c-0.1,0.1-0.4,0.3-0.7,0.4
		l1.1,1.8c0.1,0,0.2,0,0.3,0s0.2,0,0.3,0c0.1,0,0.2,0,0.3,0h0.3L40.2,30.9L40.2,30.9z M41.8,28.5c0.1,0,0.2,0,0.3-0.1h0.3
		c0.1,0,0.3,0,0.3,0c0.1,0,0.2,0,0.3,0c0.4,0,0.7,0.1,1,0.1c0.3,0.1,0.5,0.3,0.7,0.5c0.2,0.2,0.3,0.4,0.4,0.7s0.1,0.5,0.1,0.9
		s0.1,0.5,0,0.8s-0.2,0.5-0.4,0.7c-0.2,0.2-0.4,0.3-0.7,0.5c-0.3,0.1-0.6,0.1-1,0.1c-0.1,0-0.2,0-0.3,0s-0.3,0-0.3,0h-0.3
		c-0.1,0-0.2,0-0.3-0.1L41.8,28.5L41.8,28.5L41.8,28.5z M42.9,31.7h0.2c0.1,0,0.1,0,0.2,0c0.3,0,0.6-0.1,0.7-0.3s0.3-0.5,0.3-0.9
		c0-0.5-0.1-0.7-0.3-0.9c-0.2-0.2-0.4-0.3-0.7-0.3c-0.1,0-0.1,0-0.2,0h-0.2V31.7L42.9,31.7z"/>
	<path style="fill:#EB6209;" d="M24.3,37.3c-0.1,0-0.2,0.1-0.3,0.1c-0.1,0-0.2,0-0.3-0.1l-0.4-0.9l-0.5-0.8v2.6c-0.1,0-0.1,0-0.2,0
		s-0.1,0-0.3,0c-0.2,0-0.4,0-0.5-0.1l0.1-4.1c0.1,0,0.3-0.1,0.5-0.1s0.3,0,0.5,0.1l0.3,0.4l0.3,0.5l0.3,0.6l0.3,0.6
		c0.1-0.2,0.1-0.4,0.3-0.6l0.3-0.6l0.3-0.5l0.3-0.4c0.1,0,0.1,0,0.2,0s0.1,0,0.3,0c0.2,0,0.3,0,0.5,0.1l0.1,4.1
		c-0.1,0-0.3,0.1-0.5,0.1c-0.1,0-0.2,0-0.3,0h-0.2v-2.6c-0.1,0.3-0.3,0.5-0.5,0.8L24.3,37.3 M28.8,38.3c0.3,0,0.6-0.1,0.9-0.1
		c0.3-0.1,0.5-0.3,0.6-0.5c0.1-0.2,0.3-0.4,0.4-0.7c0.1-0.3,0.1-0.5,0.1-0.9c0-0.3-0.1-0.6-0.1-0.9c-0.1-0.3-0.2-0.5-0.4-0.7
		c-0.1-0.2-0.3-0.3-0.6-0.5C29.4,34,29.1,34,28.8,34c-0.3,0-0.6,0.1-0.9,0.1c-0.3,0.1-0.5,0.3-0.6,0.5c-0.1,0.2-0.3,0.4-0.4,0.7
		c-0.1,0.3-0.1,0.5-0.1,0.9c0,0.3,0.1,0.6,0.1,0.9c0.1,0.3,0.2,0.5,0.4,0.7c0.1,0.2,0.3,0.3,0.6,0.5C28.2,38.2,28.5,38.3,28.8,38.3
		 M27.9,36.1c0-0.4,0.1-0.7,0.2-0.9c0.1-0.2,0.4-0.3,0.7-0.3c0.3,0,0.5,0.1,0.7,0.3c0.1,0.2,0.2,0.5,0.2,0.9c0,0.4-0.1,0.7-0.2,0.9
		c-0.1,0.2-0.4,0.3-0.7,0.3c-0.3,0-0.5-0.1-0.7-0.3C27.9,36.9,27.9,36.5,27.9,36.1 M34,36.6c0.3-0.1,0.5-0.3,0.6-0.5
		c0.1-0.2,0.2-0.5,0.2-0.7c0-0.5-0.1-0.8-0.5-1C34,34.1,33.5,34,32.9,34c-0.2,0-0.5,0-0.7,0l-0.8,0.1v4.1c0.2,0,0.3,0.1,0.5,0.1
		c0.1,0,0.2,0,0.3,0s0.1,0,0.3,0v-3.3h0.2c0.1,0,0.1,0,0.2,0c0.6,0,0.9,0.2,0.9,0.6c0,0.2-0.1,0.4-0.2,0.5c-0.1,0.1-0.4,0.3-0.7,0.4
		l1.1,1.8c0.1,0,0.2,0,0.3,0s0.2,0,0.3,0c0.1,0,0.2,0,0.3,0h0.3L34,36.6L34,36.6z M35.3,34.1c0,0.1,0,0.1,0,0.2c0,0.1,0,0.1,0,0.2
		s0,0.1,0,0.2c0,0.1,0,0.2,0,0.2h1.1v3.2c0.2,0,0.3,0.1,0.5,0.1c0.2,0,0.5,0,0.5-0.1v-3.2h1.2c0,0,0-0.1,0-0.2c0-0.1,0-0.1,0-0.2
		c0-0.1,0-0.1,0-0.2c0-0.1,0-0.1,0-0.2H35.3 M41.7,37.3c-0.1,0-0.1,0-0.1,0s-0.1,0-0.2,0c-0.1,0-0.3,0-0.5-0.1s-0.3-0.1-0.3-0.2
		c-0.1-0.1-0.2-0.2-0.2-0.4c-0.1-0.2-0.1-0.3-0.1-0.5c0-0.2,0-0.4,0.1-0.5c0.1-0.1,0.1-0.3,0.2-0.4s0.2-0.1,0.3-0.2s0.3-0.1,0.5-0.1
		c0.2,0,0.3,0,0.5,0.1c0.1,0,0.3,0.1,0.4,0.1c0.1-0.1,0.1-0.2,0.1-0.4c0.1-0.1,0.1-0.3,0.1-0.5c-0.2-0.1-0.4-0.1-0.5-0.1
		C41.7,34,41.5,34,41.3,34c-0.3,0-0.7,0.1-0.9,0.1c-0.3,0.1-0.5,0.3-0.7,0.5c-0.2,0.2-0.3,0.4-0.4,0.7c-0.1,0.3-0.1,0.5-0.1,0.9
		c0,0.3,0.1,0.6,0.1,0.9c0.1,0.3,0.2,0.5,0.4,0.7c0.2,0.2,0.4,0.3,0.7,0.5c0.3,0.1,0.6,0.1,0.9,0.1c0.3,0,0.6,0,0.8-0.1
		c0.2-0.1,0.5-0.1,0.6-0.1v-1.9c-0.1,0-0.1,0-0.3,0c-0.1,0-0.2,0-0.3,0s-0.1,0-0.3,0c-0.1,0-0.2,0-0.3,0L41.7,37.3L41.7,37.3
		L41.7,37.3z M46.9,34.3c-0.2-0.1-0.5-0.1-0.7-0.2c-0.3-0.1-0.5-0.1-0.7-0.1c-0.7,0-1.2,0.1-1.5,0.5c-0.3,0.3-0.5,0.7-0.5,1.3v2.4
		c0.2,0,0.3,0.1,0.5,0.1c0.1,0,0.2,0,0.3,0s0.1,0,0.3,0v-1.1h1.4v1.1c0.1,0,0.3,0.1,0.5,0.1c0.1,0,0.2,0,0.3,0s0.1,0,0.2,0
		L46.9,34.3L46.9,34.3L46.9,34.3z M44.5,36.3v-0.5c0-0.7,0.3-0.9,0.9-0.9c0.2,0,0.3,0,0.5,0.1v1.4L44.5,36.3L44.5,36.3z M50.1,37.3
		c0,0-0.1,0-0.1,0s-0.1,0-0.2,0c-0.1,0-0.3,0-0.5-0.1s-0.3-0.1-0.3-0.2c-0.1-0.1-0.2-0.2-0.2-0.4c-0.1-0.1-0.1-0.3-0.1-0.5
		c0-0.2,0-0.4,0.1-0.5c0.1-0.1,0.1-0.3,0.2-0.4c0.1-0.1,0.2-0.1,0.3-0.2s0.3-0.1,0.5-0.1c0.2,0,0.3,0,0.5,0.1c0.1,0,0.3,0.1,0.4,0.1
		c0.1-0.1,0.1-0.2,0.1-0.4c0.1-0.2,0.1-0.3,0.1-0.5c-0.2-0.1-0.4-0.1-0.5-0.1c-0.2,0-0.4-0.1-0.6-0.1c-0.3,0-0.7,0.1-0.9,0.1
		c-0.3,0.1-0.5,0.3-0.7,0.5c-0.2,0.2-0.3,0.4-0.4,0.7c-0.1,0.3-0.1,0.5-0.1,0.9c0,0.3,0.1,0.6,0.1,0.9c0.1,0.3,0.2,0.5,0.4,0.7
		c0.2,0.2,0.4,0.3,0.7,0.5c0.3,0.1,0.6,0.1,0.9,0.1c0.3,0,0.6,0,0.8-0.1c0.2-0.1,0.3-0.1,0.6-0.1v-1.9c-0.1,0-0.1,0-0.3,0
		c-0.1,0-0.2,0-0.3,0s-0.1,0-0.3,0c-0.1,0-0.2,0-0.2,0L50.1,37.3L50.1,37.3L50.1,37.3z M54.4,36.5c0,0,0-0.1,0-0.2
		c0-0.1,0-0.1,0-0.2c0-0.1,0-0.1,0-0.2c0-0.1,0-0.1,0-0.2h-1.5v-0.7h1.9c0-0.1,0.1-0.3,0.1-0.5c0-0.2,0-0.3-0.1-0.5h-2.9v2.3
		c0,0.3,0.1,0.6,0.1,0.9c0.1,0.2,0.2,0.4,0.3,0.5c0.1,0.1,0.3,0.3,0.6,0.3s0.5,0.1,0.9,0.1c0.4,0,0.7-0.1,1.1-0.1
		c0-0.1,0.1-0.3,0.1-0.4c0-0.1,0-0.1,0-0.2c0-0.1,0-0.1-0.1-0.2c-0.1,0-0.3,0.1-0.5,0.1c-0.2,0-0.3,0-0.5,0c-0.3,0-0.6-0.1-0.7-0.2
		c-0.1-0.1-0.2-0.4-0.2-0.7L54.4,36.5L54.4,36.5L54.4,36.5L54.4,36.5z M56.7,36.6c0.1,0.1,0.3,0.1,0.4,0.2c0.1,0.1,0.1,0.1,0.1,0.3
		c0,0.1-0.1,0.3-0.2,0.3c-0.1,0.1-0.3,0.1-0.5,0.1c-0.1,0-0.2,0-0.3,0s-0.2,0-0.3-0.1l-0.3-0.1c-0.1,0-0.1-0.1-0.2-0.1
		c-0.1,0.1-0.1,0.2-0.1,0.4c-0.1,0.1-0.1,0.3-0.1,0.5c0.1,0.1,0.3,0.1,0.6,0.1c0.3,0,0.5,0.1,0.7,0.1c0.5,0,1-0.1,1.3-0.3
		c0.3-0.2,0.5-0.6,0.5-1c0-0.3-0.1-0.5-0.3-0.7c-0.1-0.2-0.4-0.3-0.7-0.4l-0.5-0.1c-0.1,0-0.2-0.1-0.3-0.1c-0.1-0.1-0.1-0.1-0.1-0.3
		c0-0.1,0.1-0.2,0.1-0.3C56.7,35,56.9,35,57,35s0.3,0,0.5,0.1c0.2,0.1,0.3,0.1,0.5,0.1c0.1-0.1,0.1-0.2,0.1-0.4
		c0.1-0.1,0.1-0.3,0.1-0.5c-0.1,0-0.1-0.1-0.3-0.1c-0.1,0-0.2-0.1-0.3-0.1s-0.2,0-0.3-0.1c-0.1,0-0.2,0-0.3,0c-0.3,0-0.5,0-0.7,0.1
		c-0.2,0.1-0.4,0.1-0.5,0.3c-0.1,0.1-0.3,0.3-0.3,0.4s-0.1,0.3-0.1,0.5c0,0.3,0.1,0.5,0.3,0.7c0.1,0.2,0.4,0.3,0.7,0.4L56.7,36.6
		L56.7,36.6z"/>
	<path style="fill:#F18700;" d="M15.1,28.3c0.5-0.1,1.1-0.1,1.7-0.1c0.6,0,1.1,0.1,1.7,0.1c0.1,0.5,0.1,1.1,0.1,1.7
		c0,0.6-0.1,1.1-0.1,1.7c-0.5,0.1-1.1,0.1-1.7,0.1c-0.6,0-1.1-0.1-1.7-0.1c-0.1-0.5-0.1-1.1-0.1-1.7C14.9,29.4,15,28.9,15.1,28.3"/>
	<g>
		<g>
			<defs>
				<path id="SVGID_13_" d="M15.1,31.7c0.5,0.1,1.1,0.2,1.7,0.2c0.6,0,1.1-0.1,1.7-0.2c0.1-0.5,0.1-1.1,0.1-1.7
					c0-0.6-0.1-1.1-0.1-1.7L15.1,31.7L15.1,31.7z"/>
			</defs>
			<clipPath id="SVGID_1_">
				<use xlink:href="#SVGID_13_"  style="overflow:visible;"/>
			</clipPath>
			
				<linearGradient id="SVGID_2_" gradientUnits="userSpaceOnUse" x1="7724.3267" y1="5911.1167" x2="7724.3267" y2="5879.1167" gradientTransform="matrix(0.1089 0 0 0.1089 -824.57 -612.1096)">
				<stop  offset="0" style="stop-color:#AF6500"/>
				<stop  offset="0.335" style="stop-color:#CA7300"/>
				<stop  offset="0.85" style="stop-color:#F18700"/>
			</linearGradient>
			<path style="clip-path:url(#SVGID_1_);fill:url(#SVGID_2_);" d="M15.1,28.3h3.5v3.5h-3.5V28.3z"/>
		</g>
	</g>
	<path style="fill:#EB6209;" d="M11.8,31.7c0.5-0.1,1.1-0.1,1.7-0.1c0.6,0,1.1,0.1,1.7,0.1c0.1,0.5,0.1,1.1,0.1,1.7
		c0,0.6-0.1,1.1-0.1,1.7c-0.5,0.1-1.1,0.1-1.7,0.1c-0.6,0-1.1-0.1-1.7-0.1c-0.1-0.5-0.1-1.1-0.1-1.7C11.6,32.7,11.7,32.2,11.8,31.7"
		/>
	<g>
		<g>
			<defs>
				<path id="SVGID_16_" d="M11.8,35c0.5,0.1,1.1,0.2,1.7,0.2c0.6,0,1.1-0.1,1.7-0.2c0.1-0.5,0.1-1.1,0.1-1.7c0-0.6-0.1-1.1-0.1-1.7
					C15.1,31.7,11.8,35,11.8,35z"/>
			</defs>
			<clipPath id="SVGID_3_">
				<use xlink:href="#SVGID_16_"  style="overflow:visible;"/>
			</clipPath>
			
				<linearGradient id="SVGID_4_" gradientUnits="userSpaceOnUse" x1="7693.1152" y1="5942.0396" x2="7693.1152" y2="5910.0396" gradientTransform="matrix(0.1089 0 0 0.1089 -824.57 -612.1096)">
				<stop  offset="0" style="stop-color:#AB4A03"/>
				<stop  offset="0.85" style="stop-color:#EB6209"/>
			</linearGradient>
			<path style="clip-path:url(#SVGID_3_);fill:url(#SVGID_4_);" d="M11.7,31.7h3.5v3.5h-3.5V31.7z"/>
		</g>
	</g>
	<path style="fill:#9D9D9C;" d="M8.5,35c0.5-0.1,1.1-0.1,1.7-0.1s1.1,0.1,1.7,0.1c0.1,0.5,0.1,1.1,0.1,1.7s-0.1,1.1-0.1,1.7
		c-0.5,0.1-1.1,0.1-1.7,0.1S9,38.4,8.5,38.3c-0.1-0.5-0.1-1.1-0.1-1.7S8.3,35.5,8.5,35"/>
	<g>
		<g>
			<defs>
				<path id="SVGID_19_" d="M8.5,38.3c0.5,0.1,1.1,0.2,1.7,0.2s1.1-0.1,1.7-0.2c0.1-0.5,0.1-1.1,0.1-1.7s-0.1-1.1-0.1-1.7L8.5,38.3z
					"/>
			</defs>
			<clipPath id="SVGID_5_">
				<use xlink:href="#SVGID_19_"  style="overflow:visible;"/>
			</clipPath>
			
				<linearGradient id="SVGID_6_" gradientUnits="userSpaceOnUse" x1="7663.4331" y1="5972.1167" x2="7663.4331" y2="5940.1167" gradientTransform="matrix(0.1089 0 0 0.1089 -824.57 -612.1096)">
				<stop  offset="0" style="stop-color:#4A4A49"/>
				<stop  offset="0.505" style="stop-color:#7E7E7D"/>
				<stop  offset="0.85" style="stop-color:#9D9D9C"/>
			</linearGradient>
			<path style="clip-path:url(#SVGID_5_);fill:url(#SVGID_6_);" d="M8.5,35H12v3.5H8.5L8.5,35L8.5,35z"/>
		</g>
	</g>
	<path style="fill:#F18700;" d="M11.8,28.3c0.1,0.5,0.1,1.1,0.1,1.7c0,0.6-0.1,1.1-0.1,1.7c-0.5,0.1-1.1,0.1-1.7,0.1
		S9,31.7,8.5,31.7c-0.1-0.5-0.1-1.1-0.1-1.7c0-0.6,0.1-1.1,0.1-1.7c0.5-0.1,1.1-0.1,1.7-0.1C10.7,28.2,11.3,28.3,11.8,28.3"/>
	<g>
		<g>
			<defs>
				<path id="SVGID_22_" d="M8.3,30c0,0.6,0.1,1.1,0.1,1.7c0.5,0.1,1.1,0.2,1.7,0.2s1.1-0.1,1.7-0.2l-3.3-3.3
					C8.3,28.9,8.3,29.4,8.3,30"/>
			</defs>
			<clipPath id="SVGID_7_">
				<use xlink:href="#SVGID_22_"  style="overflow:visible;"/>
			</clipPath>
			
				<linearGradient id="SVGID_8_" gradientUnits="userSpaceOnUse" x1="7661.2915" y1="5911.1167" x2="7661.2915" y2="5879.1167" gradientTransform="matrix(0.1089 0 0 0.1089 -824.57 -612.1096)">
				<stop  offset="0" style="stop-color:#AF6500"/>
				<stop  offset="0.335" style="stop-color:#CA7300"/>
				<stop  offset="0.85" style="stop-color:#F18700"/>
			</linearGradient>
			<path style="clip-path:url(#SVGID_7_);fill:url(#SVGID_8_);" d="M8.3,28.3h3.5v3.5H8.3V28.3z"/>
		</g>
	</g>
</g>
</svg>
