<?xml version="1.0" encoding="utf-8"?>
<svg version="1.1" id="Layer_1" xmlns="http://www.w3.org/2000/svg" xmlns:xlink="http://www.w3.org/1999/xlink" x="0px" y="0px"
	 viewBox="0 0 805.65 267.28" style="enable-background:new 0 0 805.65 267.28;" xml:space="preserve">
<g>
	<path style="stroke:#000000;stroke-width:0.75;stroke-miterlimit:10;" d="M85.08,84.67c-8.5,0-13.5-2.6-20-11.6l-10.6-14.6
		c-5.3-7.3-10.5-10.4-22-10.4H9.38v36.7h-9V2.97h9v36.8h16.6c10.8,0,16.1-4,22.5-12.4l18.5-24.4h11.3l-19.8,26
		c-5,6.6-8.4,10.2-14,13.1v0.1c8.7,1.7,13,5.3,18.2,12.4l9.8,13.1c4.6,6.1,7.8,8.7,12.7,8.7h2.7l-0.9,8.4h-1.9V84.67z M153.98,84.67
		V2.87h71l1,8.4h-63v28.1h59.5v9h-59.5v27.3h67.5l-1.6,9H153.98z M388.77,84.67c-8.4,0-13.3-2.6-19.8-11.6l-5.5-7.8
		c-5.4-7.6-10.6-10.7-21.9-10.7h-27.9v30.2h-9V2.97h41.2c20.5,0,31.9,10.7,31.9,25.4c0,11.9-8,19.3-18.2,22.5v0.1
		c4.8,1.8,8.1,5.4,11.7,10.3l4.9,6.5c4.6,6.2,7.8,8.7,12.8,8.7h2.7l-1,8.4h-1.9V84.67z M345.77,11.17h-32.2v34.8h32.2
		c12.9,0,22.1-6,22.1-17.5C367.98,17.28,358.48,11.17,345.77,11.17z M458.87,84.67V2.87h9v81.8H458.87z M630.78,84.67l-75.6-69.1
		h-0.2v69.1h-9V2.88h8.4l75.6,69.2h0.2V2.88h9v81.8L630.78,84.67L630.78,84.67z M764.48,86.97c-39.4,0-57.3-20.3-57.3-43.5
		c0-23.5,18.3-43.1,55.5-43.1c13.4,0,26.7,2.6,38.6,7.6v9.3c-11.6-5.3-25-8.6-38.7-8.6c-30.8,0-45.7,15.8-45.7,34.9
		c0,19.5,15.8,34.9,47.5,34.9c12.7,0,24.4-2.8,31.8-6.2v-20.4h-34l1.1-8.3h42v34.3C794.78,83.37,780.48,86.97,764.48,86.97z"/>
	<g>
		<path d="M391.17,160.77c0,2.7,1.4,0.4,4.8,0.4c3.6,0,4.8,2.2,4.8-0.4c0-2.7-2.1-4.8-4.8-4.8S391.17,158.18,391.17,160.77"/>
		<path d="M420.98,160.77c0,2.7-1.4,0.4-4.8,0.4c-3.6,0-4.8,2.2-4.8-0.4c0-2.7,2.1-4.8,4.8-4.8
			C418.77,155.97,420.98,158.18,420.98,160.77"/>
		<path d="M396.88,150.77c-7.1,0-10.5,5-10.5,10.8c0,7.8,7.2,18.1,19.7,22.5c12.5-4.4,19.7-14.7,19.7-22.5c0-5.9-3.4-10.8-10.5-10.8
			c-5.9,0-9.1,3.7-9.2,3.8C405.98,154.47,402.77,150.77,396.88,150.77 M406.07,150.97c0,0,2.6-3.8,10.3-3.6
			c8.4,0.3,12.6,7.4,12.6,14c0,9.4-9.1,21.4-22.9,25.2c-13.8-3.8-22.9-15.8-22.9-25.2c0-6.6,4.3-13.7,12.6-14
			C403.48,147.18,406.07,150.97,406.07,150.97"/>
		<path d="M406.07,164.27L406.07,164.27c1.4,0,2.6,0.7,2.6,2.9s-1.5,6.1-2.6,6.1c-1,0-2.6-3.9-2.6-6.1S404.67,164.27,406.07,164.27"
			/>
		<path d="M406.07,197.37c3.6,1.4,7.6,2.5,12,3.2c-1.2,1.2-2.4,2.5-3.5,3.7c-3.3,3.7-6.2,7.4-8.5,11.1c-2.4-3.7-5.2-7.4-8.5-11.1
			c-1.1-1.2-2.3-2.5-3.5-3.7C398.48,199.87,402.48,198.68,406.07,197.37 M406.07,265.08c-8.3,0-7.9-14.7-7.9-14.9
			c0.1-9.2,2.4-18.6,7.9-28c5.5,9.4,7.9,18.8,7.9,28C413.98,250.27,414.37,265.08,406.07,265.08 M406.07,141.57
			c0,0,14.8-0.7,22.9,7.1c3.7,3.6,5.4,8.4,5.4,14.4c0,6.5-4.2,14.5-11.5,20.1c-4.7,3.7-10.5,7.2-16.9,9.7c-6.4-2.6-12.1-6-16.9-9.7
			c-7.3-5.7-11.4-13.6-11.4-20.1c0-6,1.7-10.8,5.4-14.4C391.27,140.97,406.07,141.57,406.07,141.57 M426.57,197.47
			c9.4-8.6,20.9-17.1,34.5-25.4c25.7-15.8,51.7-26.4,60.7-29.9c-1,4-3.4,11.1-8.7,19c-7.4,11-22,25.7-49.9,32.6
			C450.27,196.97,437.77,198.18,426.57,197.47 M348.98,193.77c-27.9-6.9-42.5-21.5-49.9-32.6c-5.2-7.9-7.6-15-8.6-19
			c8.9,3.5,34.9,14.1,60.6,29.9c13.6,8.3,25.1,16.8,34.5,25.4C374.27,198.18,361.88,196.97,348.98,193.77 M406.07,137.97
			c0,0-16.3-0.6-25.3,8.1c-4.5,4.4-6.7,9.9-6.7,17c0,7.7,4.7,16.5,13,23c2.8,2.2,7.2,5.7,13.5,8.8c-3.2,1-6.6,1.7-10,2.1
			c-10-9.6-22.6-19.1-37.7-28.3c-31.9-19.6-64.2-31.3-64.6-31.4l-3-1.1l0.4,3.1c0.1,0.5,1.5,11.3,10,23.9
			c7.7,11.6,23.1,27,52.2,34.2c16.6,4.1,30.3,4.8,41.4,3.7c1.9,1.9,3.7,3.8,5.5,5.7c3.6,4,6.7,8,9.3,11.9
			c-5.8,10.2-8.2,20.4-8.3,30.7c0,0.5,0.3,10.8,4.3,15.1c2,2.2,3.6,2.8,6,2.8s4-0.6,6-2.8c4-4.3,4.3-14.6,4.3-15.1
			c-0.1-10.4-2.5-20.5-8.3-30.7c2.6-4,5.7-8,9.3-11.9c1.7-1.9,3.5-3.8,5.4-5.7c11.1,1.1,24.8,0.4,41.4-3.7
			c29.1-7.2,44.4-22.6,52.2-34.2c8.4-12.6,9.9-23.5,10-23.9l0.4-3.1l-3,1.1c-0.3,0.1-32.6,11.9-64.6,31.4
			c-15,9.2-27.7,18.7-37.7,28.3c-3.4-0.4-6.8-1.1-10-2.1c6.3-3.1,10.8-6.6,13.5-8.8c8.3-6.5,13-15.2,13-23c0-7.1-2.1-12.6-6.7-17
			C422.37,137.47,406.07,137.97,406.07,137.97"/>
	</g>
</g>
</svg>
