<?xml version="1.0" encoding="utf-8"?>
<svg version="1.1" id="Layer_1" xmlns="http://www.w3.org/2000/svg" xmlns:xlink="http://www.w3.org/1999/xlink" x="0px" y="0px"
	width="100px" height="100px" viewBox="0 0 66.7 66.7" style="enable-background:new 0 0 66.7 66.7;" xml:space="preserve">
<g>
	<path style="fill:#1ED760;" d="M33.3,0C14.9,0,0,14.9,0,33.3c0,18.5,14.9,33.3,33.3,33.3c18.5,0,33.3-14.9,33.3-33.3
		C66.7,14.9,51.8,0,33.3,0z"/>
	<path style="fill:#FFFFFF;" d="M48.6,48.1c-0.6,1-1.9,1.3-2.9,0.7c-7.9-4.8-17.7-5.9-29.3-3.2c-1.1,0.2-2.2-0.5-2.4-1.6
		c-0.2-1.1,0.4-2.2,1.5-2.5c12.7-2.9,23.6-1.7,32.4,3.7C48.9,45.9,49.3,47.1,48.6,48.1z M52.7,39.1c-0.7,1.2-2.3,1.6-3.6,0.9
		c-8.9-5.5-22.6-7.1-33.2-3.9c-1.4,0.4-2.8-0.3-3.2-1.7c-0.4-1.4,0.3-2.8,1.7-3.2c12.1-3.7,27.1-1.9,37.5,4.4
		C53.1,36.2,53.5,37.8,52.7,39.1C52.7,39.1,52.7,39.1,52.7,39.1z M53.1,29.5c-10.7-6.4-28.5-6.9-38.7-3.9c-1.7,0.5-3.4-0.5-3.9-2.1
		c-0.5-1.6,0.5-3.4,2.1-3.9c11.8-3.6,31.4-2.9,43.7,4.5c1.5,0.9,1.9,2.8,1.1,4.3C56.5,29.9,54.6,30.4,53.1,29.5
		C53.1,29.5,53.1,29.5,53.1,29.5z"/>
</g>
</svg>
