<?xml version="1.0" encoding="utf-8"?>
<svg version="1.1" id="Layer_1" xmlns="http://www.w3.org/2000/svg" xmlns:xlink="http://www.w3.org/1999/xlink" x="0px" y="0px"
	width="100px" height="100px" viewBox="0 0 100 100" style="enable-background:new 0 0 100 100;" xml:space="preserve">
<g>
	<path style="fill:#E8E8E8;" d="M50,0c27.61,0,50,22.39,50,50s-22.39,50-50,50S0,77.61,0,50S22.39,0,50,0"/>
	<path style="fill:#FFFFFF;" d="M50,1c27.06,0,49,21.94,49,49S77.06,99,50,99S1,77.06,1,50S22.94,1,50,1"/>
	<path d="M20.68,37.07c-7.06,8.29-13.72,19.33-7.84,24.41c5.7,4.92,12.83,2.01,17.69,0.06c4.86-1.94,58.57-25.27,58.57-25.27
		c0.52-0.26,0.42-0.58-0.23-0.42C88.6,35.92,30.39,51.7,30.39,51.7C23.01,53.77,14.59,49.25,20.68,37.07z"/>
</g>
</svg>
