<?xml version="1.0"?>
<svg xmlns="http://www.w3.org/2000/svg" xmlns:xlink="http://www.w3.org/1999/xlink" xmlns:svgjs="http://svgjs.com/svgjs" version="1.1" width="512" height="512" x="0" y="0" viewBox="0 0 512 512" style="enable-background:new 0 0 512 512" xml:space="preserve" class=""><g>
<circle xmlns="http://www.w3.org/2000/svg" style="" cx="256" cy="256" r="256" fill="#f1f1f1" data-original="#00fbee" class=""/>
<path xmlns="http://www.w3.org/2000/svg" style="" d="M512,256c0,141.38-114.62,256-256,256c-7.58,0-15.08-0.33-22.49-0.97L114.47,392.21  C103.62,380.12,97,364.17,97,346.75v-181.5C97,127.71,127.71,97,165.25,97h181.5c18.64,0,35.59,7.59,47.94,19.81l116.34,116.72  C511.67,240.93,512,248.43,512,256z" fill="#f1f1f1" data-original="#00d0ff" class=""/>
<path xmlns="http://www.w3.org/2000/svg" style="" d="M346.75,415h-181.5C127.713,415,97,384.288,97,346.75v-181.5C97,127.713,127.713,97,165.25,97h181.5  c37.538,0,68.25,30.713,68.25,68.25v181.5C415,384.288,384.288,415,346.75,415z" fill="#009aff" data-original="#009aff" class=""/>
<path xmlns="http://www.w3.org/2000/svg" style="" d="M415,165.25v181.5c0,37.54-30.71,68.25-68.25,68.25H256V97h90.75C384.29,97,415,127.71,415,165.25z" fill="#0074c9" data-original="#0074c9"/>
<path xmlns="http://www.w3.org/2000/svg" style="" d="M331.967,237.648c-3.254,0-6.434,0.318-9.512,0.92l-19.895-75.26h-32.887v11.687h25.638l8.564,32.393  L244.5,243.077l-30.055-34.752h14.906v-13.142h-47.169v13.142h18.442l-10.069,30.452c-3.391-0.737-6.91-1.129-10.522-1.129  c-27.238,0-49.318,22.08-49.318,49.318c0,27.237,22.08,49.318,49.318,49.318c25.349,0,46.227-19.126,49.001-43.733h18.018v14.478  h-5.313v13.142h32.994v-13.142h-18.917V292.55h27.148c2.774,24.608,23.652,43.733,49.001,43.733  c27.238,0,49.318-22.08,49.318-49.318C381.284,259.728,359.204,237.648,331.967,237.648z M372.188,283.191h-27.037  c-0.289-1.012-0.69-1.977-1.192-2.879l19.12-19.12C368.126,267.277,371.416,274.869,372.188,283.191z M338.62,274.974  c-0.902-0.502-1.867-0.902-2.879-1.192v-27.037c8.322,0.771,15.913,4.062,21.999,9.109L338.62,274.974z M300.855,261.192  l19.12,19.12c-0.306,0.551-0.575,1.126-0.804,1.72h-27.296C292.834,274.165,296.043,266.993,300.855,261.192z M306.193,255.854  c2.722-2.257,5.749-4.156,9.004-5.643l5.264,19.911L306.193,255.854z M325.313,298.958c0.902,0.501,1.867,0.902,2.879,1.192v27.037  c-8.323-0.772-15.914-4.061-21.999-9.109L325.313,298.958z M335.742,300.15c1.012-0.289,1.977-0.69,2.879-1.192l19.12,19.12  c-6.086,5.047-13.677,8.337-21.999,9.109V300.15z M328.192,246.745v13.525l-3.45-13.05  C325.877,247.015,327.026,246.853,328.192,246.745z M208.448,217.471l26.85,31.045l-15.559,9.196  c-4.976-6.743-11.628-12.174-19.342-15.676L208.448,217.471z M176.258,273.782c-1.012,0.29-1.977,0.69-2.879,1.192l-19.12-19.12  c6.085-5.047,13.676-8.337,21.999-9.109V273.782z M173.38,298.958c0.902,0.501,1.867,0.902,2.879,1.192v27.037  c-8.322-0.772-15.913-4.061-21.999-9.109L173.38,298.958z M183.808,300.15c1.012-0.289,1.977-0.69,2.879-1.192l19.12,19.12  c-6.086,5.047-13.677,8.337-21.999,9.109L183.808,300.15L183.808,300.15z M199.262,282.032l18.016-10.748  c1.422,3.373,2.388,6.982,2.847,10.748H199.262z M207.235,265.102l3.91-3.91c0.296,0.357,0.579,0.723,0.862,1.09L207.235,265.102z   M191.023,270.638l6.576-20.065c2.955,1.429,5.708,3.207,8.208,5.281L191.023,270.638z M183.808,259.181v-12.436  c1.329,0.123,2.638,0.312,3.927,0.561L183.808,259.181z M148.921,261.192l19.12,19.12c-0.502,0.902-0.903,1.867-1.192,2.879h-27.037  C140.584,274.869,143.874,267.277,148.921,261.192z M139.812,290.741h27.037c0.289,1.012,0.69,1.977,1.192,2.879l-19.12,19.12  C143.874,306.654,140.584,299.063,139.812,290.741z M211.145,312.74l-19.12-19.12c0.193-0.347,0.37-0.704,0.533-1.069h27.484  C218.989,300.162,215.824,307.098,211.145,312.74z M229.106,282.032c-0.539-5.425-1.956-10.591-4.108-15.354l81.671-48.724  l6.219,23.521c-16.318,6.852-28.173,22.228-29.993,40.556h-53.789V282.032z M291.958,292.55h27.484  c0.163,0.365,0.34,0.722,0.533,1.069l-19.12,19.12C296.176,307.098,293.011,300.162,291.958,292.55z M363.079,312.74l-19.12-19.12  c0.501-0.902,0.902-1.867,1.192-2.879h27.037C371.416,299.063,368.126,306.654,363.079,312.74z" fill="#ffffff" data-original="#ffffff" class=""/>
<path xmlns="http://www.w3.org/2000/svg" style="" d="M331.97,237.65c-3.26,0-6.44,0.32-9.51,0.92l-19.9-75.26h-32.89v11.68h25.64l8.57,32.4L256,236.17  v12.01l50.67-30.23l6.22,23.53c-16.32,6.85-28.18,22.22-30,40.55H256v10.52h26.97c2.77,24.61,23.65,43.73,49,43.73  c27.23,0,49.31-22.08,49.31-49.31C381.28,259.73,359.2,237.65,331.97,237.65z M315.2,250.21l5.26,19.91l-14.27-14.27  C308.91,253.6,311.94,251.7,315.2,250.21z M300.85,261.19l19.12,19.12c-0.3,0.55-0.57,1.13-0.8,1.72h-27.3  C292.83,274.16,296.04,266.99,300.85,261.19z M291.96,292.55h27.48c0.16,0.37,0.34,0.72,0.53,1.07l-19.12,19.12  C296.18,307.1,293.01,300.16,291.96,292.55z M328.19,327.19c-8.32-0.78-15.91-4.07-22-9.11l19.12-19.12c0.91,0.5,1.87,0.9,2.88,1.19  V327.19z M328.19,260.27l-3.45-13.05c1.14-0.2,2.29-0.37,3.45-0.48V260.27z M372.19,283.19h-27.04c-0.29-1.01-0.69-1.98-1.19-2.88  l19.12-19.12C368.13,267.28,371.42,274.87,372.19,283.19z M335.74,246.74c8.32,0.78,15.92,4.07,22,9.11l-19.12,19.12  c-0.9-0.5-1.87-0.9-2.88-1.19V246.74z M335.74,327.19v-27.04c1.01-0.29,1.98-0.69,2.88-1.19l19.12,19.12  C351.66,323.12,344.06,326.41,335.74,327.19z M363.08,312.74l-19.12-19.12c0.5-0.9,0.9-1.87,1.19-2.88h27.04  C371.42,299.06,368.13,306.65,363.08,312.74z M256,320.17h18.73v-13.14H256V320.17z" fill="#e0e0e2" data-original="#e0e0e2"/>
<rect xmlns="http://www.w3.org/2000/svg" x="255.82" y="292.55" style="" width="0.18" height="14.48" fill="#c7ac91" data-original="#c7ac91" class=""/>
<g xmlns="http://www.w3.org/2000/svg">
</g>
<g xmlns="http://www.w3.org/2000/svg">
</g>
<g xmlns="http://www.w3.org/2000/svg">
</g>
<g xmlns="http://www.w3.org/2000/svg">
</g>
<g xmlns="http://www.w3.org/2000/svg">
</g>
<g xmlns="http://www.w3.org/2000/svg">
</g>
<g xmlns="http://www.w3.org/2000/svg">
</g>
<g xmlns="http://www.w3.org/2000/svg">
</g>
<g xmlns="http://www.w3.org/2000/svg">
</g>
<g xmlns="http://www.w3.org/2000/svg">
</g>
<g xmlns="http://www.w3.org/2000/svg">
</g>
<g xmlns="http://www.w3.org/2000/svg">
</g>
<g xmlns="http://www.w3.org/2000/svg">
</g>
<g xmlns="http://www.w3.org/2000/svg">
</g>
<g xmlns="http://www.w3.org/2000/svg">
</g>
</g></svg>
