<svg xmlns="http://www.w3.org/2000/svg" width="1200" height="800" viewBox="-29.95 -12.281 259.568 73.686" fill="#010101" xmlns:v="https://vecta.io/nano"><path d="M11.877 0H0v49.123h4.539V26.861h6.529c.527 0 12.861-.158 12.916-13.637C23.985.334 12.007.002 11.877 0zm-.058 22.32H4.54V4.482h7.365c.312.018 7.604.558 7.604 8.678-.109 9.025-7.382 9.158-7.69 9.16zM40.699 0H28.881v49.062h4.482v-22.2H46.98v22.262h4.539V22.32h-2.171c1.23-1.645 2.699-4.555 2.699-9.095C52.112.274 40.819.002 40.699 0zm6.69 13.166c0 9.014-6.477 9.15-6.748 9.154h-7.277V4.482h7.301c.275.017 6.724.56 6.724 8.684zm34.826 31.415H64.643V25.162h17.572v-4.541H64.702V4.482h17.513V0H60.161v49.123h22.054zm39.28-39.982l24.078-.057-27.653 44.581h32.248v-4.542H126.09L153.745.061h-32.25zm-34.739 0l24.02-.057-27.59 44.581h32.185v-4.542H91.352L118.944.061H86.756zM175.135 0c-13.523 0-24.525 11.007-24.525 24.531s11.002 24.53 24.525 24.53 24.533-11.006 24.533-24.53S188.662 0 175.135 0zm0 44.581c-11.018 0-19.986-8.968-19.986-19.991S164.118 4.6 175.135 4.6c11.029 0 19.992 8.967 19.992 19.99s-8.963 19.991-19.992 19.991z"/></svg>