<?xml version="1.0"?>
<svg xmlns="http://www.w3.org/2000/svg" xmlns:xlink="http://www.w3.org/1999/xlink" xmlns:svgjs="http://svgjs.com/svgjs" version="1.1" width="512" height="512" x="0" y="0" viewBox="0 0 512 512" style="enable-background:new 0 0 512 512" xml:space="preserve" class=""><g><g xmlns="http://www.w3.org/2000/svg"><g><circle cx="256" cy="256" fill="#f1f1f1" r="256" data-original="#7c83e7" style="" class=""/></g><path d="m502.461 325.444-140.697-140.697-310.994 168.907 153.008 153.008c16.861 3.495 34.326 5.338 52.222 5.338 117.316 0 216.193-78.916 246.461-186.556z" fill="#f1f1f1" data-original="#515bdf" style="" class=""/><g><path d="m50.77 353.491s91.884-231.105 205.229-231.105 205.23 231.105 205.23 231.105z" fill="#ff6426" data-original="#ff6426" style="" class=""/><path d="m256 122.385c113.345 0 205.23 231.105 205.23 231.105h-205.23z" fill="#ff4c04" data-original="#ff4c04" style="" class=""/><path d="m50.77 353.491h410.459s-10.549-26.528-28.902-61.605h-352.654c-18.354 35.077-28.903 61.605-28.903 61.605z" fill="#ff4c04" data-original="#ff4c04" style="" class=""/><path d="m256 353.491h205.229s-10.549-26.528-28.902-61.605h-176.327z" fill="#be3700" data-original="#be3700" style="" class=""/><path d="m386.531 349.943c0-42.484-13.306-82.521-37.467-112.734-24.703-30.892-57.754-47.905-93.064-47.905-35.311 0-68.361 17.013-93.065 47.905-24.161 30.214-37.467 70.25-37.467 112.734 0 1.157.053 2.348.136 3.547h260.792c.083-1.201.135-2.394.135-3.547z" fill="#f6df5a" data-original="#f6df5a" style="" class=""/><path d="m386.531 349.943c0-42.484-13.306-82.521-37.467-112.734-24.703-30.892-57.754-47.905-93.064-47.905v164.187h130.396c.083-1.202.135-2.395.135-3.548z" fill="#edb943" data-original="#edb943" style="" class=""/><path d="m376.027 353.489v.002h.002z" fill="#ffdd55" data-original="#ffdd55" style=""/><path d="m324.069 148.798c-21.301-16.17-44.209-26.412-68.069-26.412s-46.768 10.242-68.069 26.412z" fill="#f6df5a" data-original="#f6df5a" style="" class=""/><path d="m324.069 148.798c-21.301-16.17-44.209-26.412-68.069-26.412v26.412z" fill="#edb943" data-original="#edb943" style="" class=""/><path d="m375.92 339.963-65.276-52.387-41.125-86.981c-4.438-.621-8.949-.941-13.52-.941-66.375 0-120.182 67.287-120.182 150.29 0 1.2.056 2.381.155 3.547h240.054c.099-1.166.155-2.347.155-3.547.001-3.354-.088-6.682-.261-9.981z" fill="#ff4c04" data-original="#ff4c04" style="" class=""/><path d="m269.52 200.595 41.125 86.981 65.276 52.388c-3.813-72.728-48.995-131.332-106.401-139.369z" fill="#002659" data-original="#002659" style=""/><path d="m269.52 200.595c3.813 72.727 48.995 131.332 106.401 139.369z" fill="#f6df5a" data-original="#f6df5a" style="" class=""/><path d="m256 199.654c-66.375 0-120.182 67.287-120.182 150.29 0 1.2.056 2.381.155 3.547h120.027z" fill="#ff6426" data-original="#ff6426" style="" class=""/></g></g></g></svg>
