<?xml version="1.0"?>
<svg xmlns="http://www.w3.org/2000/svg" xmlns:xlink="http://www.w3.org/1999/xlink" xmlns:svgjs="http://svgjs.com/svgjs" version="1.1" width="512" height="512" x="0" y="0" viewBox="0 0 460 460" style="enable-background:new 0 0 512 512" xml:space="preserve" class=""><g>
<g xmlns="http://www.w3.org/2000/svg">
	<path style="" d="M188.818,456.317l265.864-275.636C432.105,77.359,340.094,0,230,0C102.974,0,0,102.975,0,230   C0,342.967,81.445,436.907,188.818,456.317z" fill="#f1f1f1" data-original="#ffc240" class=""/>
	<path style="" d="M50,317.5l138.818,138.818C202.18,458.733,215.942,460,230,460c127.026,0,230-102.975,230-230   c0-16.931-1.846-33.429-5.318-49.318L408.25,134.25L50,317.5z" fill="#f1f1f1" data-original="#ff984c" class=""/>
	<polygon style="" points="40,267.5 50,267.5 60,277.5 50,287.5 40,287.5  " fill="#ff6e36" data-original="#ff6e36" class=""/>
	<polygon style="" points="50,122.5 50,297.5 235,307.5 245,215 235,122.5  " fill="#ff5347" data-original="#ff5347"/>
	<polygon style="" points="420,257.5 430,257.5 430,287.5 420,287.5 410,272.5  " fill="#ffffff" data-original="#ffffff" class=""/>
	<path style="" d="M420,162.5c0-22-18-40-40-40H235v185l185-10V162.5z" fill="#ff1909" data-original="#ff1909" class=""/>
	<polygon style="" points="50,297.5 50,317.5 235,317.5 245,307.5 235,297.5  " fill="#ff1909" data-original="#ff1909" class=""/>
	<rect x="235" y="297.5" style="" width="185" height="20" fill="#aa1106" data-original="#aa1106"/>
	<path style="" d="M117.5,257.5c-33.137,0-60,26.863-60,60h120C177.5,284.363,150.637,257.5,117.5,257.5z" fill="#ff1909" data-original="#ff1909" class=""/>
	<path style="" d="M352.5,257.5c-33.137,0-60,26.863-60,60h120C412.5,284.363,385.637,257.5,352.5,257.5z" fill="#aa1106" data-original="#aa1106"/>
	<path style="" d="M77.5,317.5c0,22.091,17.909,40,40,40l10-40l-10-40C95.409,277.5,77.5,295.409,77.5,317.5z" fill="#096c80" data-original="#096c80"/>
	<path style="" d="M117.5,277.5v80c22.091,0,40-17.909,40-40S139.591,277.5,117.5,277.5z" fill="#064855" data-original="#064855" class=""/>
	<path style="" d="M97.5,317.5c0,11.046,8.954,20,20,20l10-20l-10-20C106.454,297.5,97.5,306.454,97.5,317.5z" fill="#ffffff" data-original="#ffffff" class=""/>
	<path style="" d="M117.5,297.5v40c11.046,0,20-8.954,20-20S128.546,297.5,117.5,297.5z" fill="#89ebff" data-original="#89ebff"/>
	<path style="" d="M312.5,317.5c0,22.091,17.909,40,40,40l10-40l-10-40C330.409,277.5,312.5,295.409,312.5,317.5z" fill="#064855" data-original="#064855" class=""/>
	<path style="" d="M352.5,277.5v80c22.091,0,40-17.909,40-40S374.591,277.5,352.5,277.5z" fill="#03242b" data-original="#03242b"/>
	<path style="" d="M332.5,317.5c0,11.046,8.954,20,20,20l10-20l-10-20C341.454,297.5,332.5,306.454,332.5,317.5z" fill="#c4f5ff" data-original="#c4f5ff"/>
	<path style="" d="M352.5,297.5v40c11.046,0,20-8.954,20-20S363.546,297.5,352.5,297.5z" fill="#4de1ff" data-original="#4de1ff"/>
	<rect x="245" y="142.5" style="" width="67.5" height="67.5" fill="#c4f5ff" data-original="#c4f5ff"/>
	<rect x="157.5" y="142.5" style="" width="67.5" height="67.5" fill="#ffffff" data-original="#ffffff" class=""/>
	<rect x="70" y="142.5" style="" width="67.5" height="67.5" fill="#ffffff" data-original="#ffffff" class=""/>
	<path style="" d="M380,142.5h-47.5V210H400v-47.5C400,151.472,391.028,142.5,380,142.5z" fill="#c4f5ff" data-original="#c4f5ff"/>
</g>
<g xmlns="http://www.w3.org/2000/svg">
</g>
<g xmlns="http://www.w3.org/2000/svg">
</g>
<g xmlns="http://www.w3.org/2000/svg">
</g>
<g xmlns="http://www.w3.org/2000/svg">
</g>
<g xmlns="http://www.w3.org/2000/svg">
</g>
<g xmlns="http://www.w3.org/2000/svg">
</g>
<g xmlns="http://www.w3.org/2000/svg">
</g>
<g xmlns="http://www.w3.org/2000/svg">
</g>
<g xmlns="http://www.w3.org/2000/svg">
</g>
<g xmlns="http://www.w3.org/2000/svg">
</g>
<g xmlns="http://www.w3.org/2000/svg">
</g>
<g xmlns="http://www.w3.org/2000/svg">
</g>
<g xmlns="http://www.w3.org/2000/svg">
</g>
<g xmlns="http://www.w3.org/2000/svg">
</g>
<g xmlns="http://www.w3.org/2000/svg">
</g>
</g></svg>
