<svg xmlns="http://www.w3.org/2000/svg" viewBox="0 0 921.1 252.8" fill="#002e58"><path d="M0 112.6c0-3 1.8-6.7 5.1-10.2L105.8 4.7c6.3-6.2 15.7-6.2 22.3 0 5.6 5.2 10.9 10.9 16.5 16.1l25.9 25.1c2.3 2.2 2.5 3.2 0 5.5l-44.9 43.7c-7.9 7.7-7.9 13.4 0 21.1l17.5 17.4c7.4 7.4 7.4 12.9 0 20.1l-52.3 51.4c-2.3 2.2-3.3 2-5.3 0L6.6 127.2C3 123.7 0 119.8 0 112.6zM348.9 8.9c13.4 0 26.9 1.7 39.1 7.9 17.8 8.9 25.4 24.1 26.6 42.9.3 2.2-.8 2.7-2.8 2.7h-17.3c-1.8 0-2.8 0-3-2.2-3.3-18.4-11.7-26.8-30.4-30.3-12.9-2.2-25.6-2-38.1 3.2-11.4 5-18 16.1-16.5 28.3.8 6.4 4.1 11.2 9.6 14.6 9.1 6 19.5 7.9 29.7 10.4 15.5 3.5 31.2 6 45.7 12.2 14.2 6 25.4 14.6 29.2 30 6.1 23.1-2.8 44.9-24.6 55.6-30.4 15.1-61.4 15.1-91.3-.7-19.3-10.2-27.2-27.5-28.4-48.4 0-2 0-3 2.5-3 6.1.2 11.9 0 18 0 1.5 0 2.3 0 2.5 2 1 24.1 18.5 35.7 37 39.2 15.2 2.7 30.4 2.5 44.9-4 12.9-6 19-18.4 16-32-1.5-7.2-6.1-12.2-12.4-15.9-9.9-5.7-20.8-7.9-31.7-10.4-14.7-3.2-29.7-5.7-43.6-11.4-13.2-5.4-23.6-13.6-26.7-28.2-5.3-24.3 6.9-46.1 30.4-55.8 11.2-5 21.6-6.7 35.6-6.7zm97.2 218.3c42.9 13.6 72.6-9.7 67.8-52.6-1.8 1-2.5 2.7-3.8 4.2-8.1 8.4-18.3 12.2-29.7 12.7-13.4.5-26.1-2.2-37-10.7-11.4-9.2-15.5-21.6-15.7-35.2l-.3-81.1c0-2.2.8-3 3-3 5.3.2 10.7.2 16.2 0 3-.2 3.6 1 3.6 3.7v69.5c0 5.2.5 10.2 1.8 15.1 4.3 15.4 17.3 23.6 33.5 21.1 16.5-2.7 26.6-13.9 27.9-30.8 1-12.7.3-25.6.5-38.2V65.2c0-2.2.5-3 3-3 5.8.2 11.4 0 17.3 0 1.8 0 2.5.2 2.5 2.2l-.5 125.8c-.5 21.8-9.9 39.9-29.4 51.8-18 10.9-37.8 13.1-58.4 8.4-1.8-.5-2.8-.7-2.8-2.7.5-6.9.5-13.6.5-20.5zm347.1-95.5h-44.9c-3.8 0-4.3 1.2-4.3 4.5.8 23.6 19.8 39.9 43.9 37.7 14-1.2 24.4-6.9 29.4-20.1.5-1.2 1.3-1.5 2.5-1.5h17c2.5 0 2.8.7 2 2.7-6.3 21.3-23.6 35.2-46.4 37.2-14.7 1.2-28.9-.2-41.9-7.7-14.2-8.2-22.1-21.1-26.1-36.5-5.6-21.6-4.8-42.4 7.1-61.8C750.8 54.5 792.4 51 816 67.9c13.4 9.4 20 22.8 23.9 38.2 1.8 7.4 2.5 14.9 2.5 22.6 0 2.5-.8 3.2-3.3 3.2l-45.9-.2zm-11.4-18.6h34.5c2.8 0 3-1 2.8-3.2-2.3-21.9-24.1-37.3-46.2-32.3-15.5 3.5-25.9 15.1-28.7 32.3-.5 2.7.3 3.2 2.8 3.2h34.8zM631.6 75.9c20-21.1 50.5-23.3 71.6-5.5 10.4 8.9 14.5 20.8 14.7 33.7l.3 81.4c0 2.5-.8 3.2-3.3 3.2-5.3-.2-10.7-.2-16.2 0-3 .2-3.6-1-3.6-3.7v-71.7c0-7.2-1.3-13.9-4.6-20.3-8.9-17.9-37.3-18.1-49.5-3.7-7.1 8.4-9.6 18.1-9.6 28.5v66.7c0 3-.8 4.2-4.1 4-5.1-.2-9.9-.2-15 0-3 .2-3.8-.7-3.8-3.7V91 64.5c0-2.2.3-3.2 3-3.2a226.95 226.95 0 0 0 16.5 0c2.8 0 3.3.7 3 3.2.3 3.7.6 7.1.6 11.4zM556 117.8V84.1c0-2.5-.8-3.2-3.3-3-3 .2-5.8 0-8.9 0-2 0-2.8-.5-2.5-2.5V64c0-1.7.5-2.5 2.3-2.2 2.8.2 5.3-.2 8.1 0 3.3.2 4.3-.5 4.3-4-.3-7.9 0-16.1-.3-24.1 0-2.2.5-3 3-3a240.89 240.89 0 0 0 17 0c2.3 0 2.8.7 2.8 2.7 0 8.2.3 16.4-.3 24.3 0 3.2 1 4 4.1 3.7 6.3-.2 12.4 0 18.8-.2 2.5 0 3.3.7 3 3.2-.3 4.5-.3 8.7 0 13.1 0 2.5-.5 3.2-3.3 3.2-6.6-.2-12.9 0-19.5 0-2.5 0-3.3.7-3.3 3.2v63.8c0 12.2 6.3 19.1 18.8 20.3 1.8.2 2.5.5 2.5 2.5-.3 5.2 0 10.4 0 15.9 0 1.2.5 2.5-1.8 2.5-11.9-.5-23.1-2.7-31.7-11.7-7.1-7.2-9.9-16.4-10.2-26l.4-33.4h0zm-362.1 41.9c4.6-11.9-.3-20.1-8.1-27.5-10.9-10.4-21.6-21.3-32.5-32-4.1-4-4.3-8.4-.5-12.2l29.4-29.5 46.9 45.6c5.3 5.2 6.1 14.6.8 19.8-11.4 12-23.4 23.4-36 35.8zm675.4-79.6C877.7 68.4 887.6 61 901 59c5.8-1 11.7 0 17.5 1 2 .2 2.5 1.2 2.5 3 0 5.5-.3 10.9 0 16.6 0 2.7-1 2.7-3.3 2.2-6.6-1.2-13.2-1.7-19.8 0-13.7 3.2-20.8 12.7-25.1 25.1-2.8 7.9-3.8 16.4-3.8 24.8v54.1c0 2.7-.5 3.7-3.6 3.5-5.1-.2-10.2-.2-15.2 0-3 .2-3.8-1-3.8-3.7V74.5 64.3c0-1.7.5-2.2 2.3-2.2 5.8 0 11.7.2 17.8 0 2 0 2.5.7 2.5 2.5.3 4.6.3 9.5.3 15.5z"/></svg>