<?xml version="1.0" encoding="utf-8"?>
<svg version="1.1" id="Layer_1" xmlns="http://www.w3.org/2000/svg" xmlns:xlink="http://www.w3.org/1999/xlink" x="0px" y="0px"
	width="100px" height="100px" viewBox="0 0 66.7 66.7" style="enable-background:new 0 0 66.7 66.7;" xml:space="preserve">
<g>
	<circle style="fill:#E8E8E8;" cx="33.3" cy="33.3" r="33.3"/>
	<circle style="fill:#FFFFFF;" cx="33.3" cy="33.3" r="32.7"/>
	<path d="M20.5,20.6L20.5,20.6c0.7,0.7,1.4,1.3,2,2l4.4,4.4v0.1l-6.3,6.3L14.2,27c0.1-0.2,0.3-0.3,0.5-0.5
		C14.7,26.5,20.5,20.6,20.5,20.6z"/>
	<path d="M20.5,20.6L20.5,20.6L20.5,20.6L20.5,20.6L20.5,20.6c0.7,0,1.4,1.3,2,2l0,0l4.4,4.4l0,0l0,0v0.1l0,0l0,0l-6.3,6.3l0,0l0,0
		L14.2,27l0,0l0,0c0.1-0.2,0.3-0.3,0.5-0.5l0,0l0,0L20.5,20.6L20.5,20.6L20.5,20.6L20.5,20.6L20.5,20.6l-5.9,5.9l0,0
		c-0.1,0.1-0.3,0.3-0.5,0.5l0,0l0,0l6.4,6.4l0,0l0,0l6.3-6.3l0,0V27l0,0l0,0l-4.4-4.4l0,0l0,0C21.9,21.9,21.1,21.4,20.5,20.6
		L20.5,20.6L20.5,20.6L20.5,20.6L20.5,20.6C20.5,20.6,20.5,20.6,20.5,20.6z M33.3,20.6L33.3,20.6l0.3,0.3l6.1,6.1
		c-0.1,0.1-0.1,0.2-0.3,0.3l-6.1,6.1L27,27L33.3,20.6L33.3,20.6z"/>
	<path d="M33.3,20.6L33.3,20.6L33.3,20.6L33.3,20.6L33.3,20.6c0.1,0,0.2,0.1,0.3,0.3l0,0l6.1,6.1l0,0l0,0c-0.1,0.1-0.1,0.2-0.3,0.3
		l-6.1,6.1l0,0l0,0L26.9,27l0,0l0,0L33.3,20.6L33.3,20.6L33.3,20.6L33.3,20.6L33.3,20.6L26.9,27l0,0l0,0c2.2,2.1,4.3,4.3,6.4,6.3
		l0,0l0,0l6.1-6.1c0.1-0.1,0.2-0.1,0.3-0.3l0,0l0,0l-6.1-6.1l0,0C33.5,20.8,33.5,20.7,33.3,20.6L33.3,20.6L33.3,20.6L33.3,20.6
		L33.3,20.6C33.3,20.6,33.3,20.6,33.3,20.6z M46.1,20.6L46.1,20.6c0.5,0.4,0.9,0.9,1.3,1.3l4.8,4.8c0.1,0.1,0.2,0.1,0.3,0.3
		c-2.2,2.1-4.2,4.3-6.4,6.3L40,27.3c-0.1-0.1-0.3-0.2-0.3-0.3l3.2-3.2L46.1,20.6L46.1,20.6z"/>
	<path d="M46.1,20.6L46.1,20.6L46.1,20.6L46.1,20.6L46.1,20.6c0.5,0,0.9,0.9,1.3,1.3l0,0l4.8,4.8l0,0l0,0c0.1,0.1,0.2,0.1,0.3,0.3
		l0,0l0,0c-2.2,2.1-4.2,4.3-6.4,6.3l0,0l0,0l-6.1-6l0,0l0,0c-0.1-0.1-0.3-0.2-0.3-0.3l0,0l0,0l3.2-3.2l0,0l0,0L46.1,20.6L46.1,20.6
		L46.1,20.6L46.1,20.6L46.1,20.6l-3.2,3.1l0,0l-3.2,3.2l0,0l0,0c0.1,0.1,0.2,0.3,0.3,0.3l0,0l0,0l6.1,6.1l0,0l0,0
		c2.2-2.1,4.3-4.3,6.4-6.3l0,0l0,0c-0.1-0.1-0.1-0.2-0.3-0.3l0,0l0,0l-4.8-4.8l0,0l0,0C46.9,21.5,46.5,21,46.1,20.6L46.1,20.6
		L46.1,20.6L46.1,20.6L46.1,20.6C46.1,20.6,46.1,20.6,46.1,20.6z M27.1,39.7l6.3-6.3l0.1,0.1l6.3,6.3c-0.1,0.1-0.3,0.3-0.3,0.4
		l-4.5,4.5c-0.5,0.5-1,1-1.5,1.5c-0.7-0.7-1.4-1.4-2.1-2.1L27,39.8C27,39.7,27.1,39.7,27.1,39.7L27.1,39.7z"/>
	<path d="M27.1,39.7L27.1,39.7l6.3-6.3l0,0l0,0l0.1,0.1l0,0l0,0l6.3,6.3l0,0l0,0c-0.1,0.1-0.2,0.3-0.3,0.4l0,0l0,0l-4.5,4.5
		c-0.5,0.5-1,1-1.5,1.5l0,0l0,0l-2.1-2.1L27,39.8l0,0l0,0C27,39.7,27.1,39.7,27.1,39.7L27.1,39.7L27.1,39.7L27.1,39.7L27.1,39.7
		C27,39.7,27,39.7,27,39.8l0,0l0,0l4.3,4.3l2.1,2.1l0,0l0,0c0.5-0.4,1-1,1.5-1.5l4.5-4.5l0,0l0,0c0.1-0.1,0.3-0.3,0.3-0.4l0,0l0,0
		l-6.3-6.4l0,0h-0.1l0,0l0,0L27.1,39.7L27.1,39.7L27.1,39.7C27.1,39.7,27.1,39.7,27.1,39.7z"/>
</g>
</svg>
