<?xml version="1.0" encoding="utf-8"?>
<svg version="1.1" id="Layer_1" xmlns="http://www.w3.org/2000/svg" xmlns:xlink="http://www.w3.org/1999/xlink" x="0px" y="0px"
	width="100px" height="100px" viewBox="0 0 100 100" style="enable-background:new 0 0 100 100;" xml:space="preserve">
<g>
	<g>
		<path style="fill:#E8E8E8;" d="M50,0c27.61,0,50,22.39,50,50s-22.39,50-50,50S0,77.61,0,50S22.39,0,50,0"/>
		<path style="fill:#FFFFFF;" d="M50,1c27.06,0,49,21.94,49,49S77.06,99,50,99S1,77.06,1,50S22.94,1,50,1"/>
	</g>
	<g id="Layer_2_1_">
		<g id="Layer_1-2">
			<path style="fill:#E1EBAB;" d="M33.93,44.42c-1.14,0-2.26,0.34-3.2,0.99c0.83,3,3.94,4.75,6.93,3.92
				c0.61-0.17,1.18-0.44,1.7-0.79C38.68,46.11,36.46,44.42,33.93,44.42z M38.74,48.35c-1.07,0.74-2.54,0.47-3.28-0.6
				c-0.15-0.22-0.26-0.46-0.33-0.71c1.07-0.74,2.54-0.47,3.28,0.6C38.56,47.86,38.67,48.1,38.74,48.35z"/>
			<path style="fill:#2AA169;" d="M64.92,32.38c0.66-0.93,1.02-2.05,1.03-3.19c-2.93-1.05-6.16,0.47-7.21,3.4
				c-0.21,0.59-0.32,1.21-0.33,1.84C60.8,35.29,63.46,34.45,64.92,32.38z M58.94,34.04c0.01-1.3,1.08-2.34,2.38-2.33
				c0.26,0,0.52,0.05,0.77,0.14c-0.02,1.3-1.09,2.34-2.39,2.33C59.44,34.18,59.18,34.13,58.94,34.04z"/>
			<path style="fill:#E0E996;" d="M46.65,31.6c-1.08-2.51-2.9-4.62-5.22-6.07c-5.79,4.67-6.7,13.15-2.03,18.94
				c0.94,1.17,2.07,2.17,3.34,2.96C47.45,43.63,49.05,37.16,46.65,31.6z M42.59,45.9c-2.64-1.65-3.44-5.13-1.79-7.76
				c0.33-0.53,0.75-1,1.24-1.4c2.64,1.65,3.44,5.13,1.79,7.76C43.49,45.03,43.08,45.51,42.59,45.9z"/>
			<path style="fill:#BF202C;" d="M58.04,27.4c0.07-1.98-0.46-3.93-1.53-5.6c-5.25,1.26-8.48,6.54-7.22,11.79
				c0.25,1.06,0.68,2.06,1.27,2.98C54.82,35.54,57.88,31.79,58.04,27.4z M53.41,29.33c1.22,1.9,0.66,4.43-1.24,5.65
				c-0.38,0.25-0.81,0.42-1.25,0.53c-1.22-1.9-0.66-4.43,1.24-5.65C52.54,29.62,52.97,29.44,53.41,29.33z"/>
			<path style="fill:#E9E615;" d="M49.53,42.09c-1.74,2.26-2.76,4.99-2.9,7.84c7.2,2.93,15.41-0.54,18.34-7.73
				c0.59-1.45,0.93-2.99,1.02-4.55C60.12,35.27,53.39,37.08,49.53,42.09z M54.83,47.15c-1.62,2.09-4.43,2.85-6.88,1.86
				c0.17-3.25,2.95-5.74,6.19-5.56c0.65,0.03,1.3,0.18,1.9,0.42C55.98,45.06,55.56,46.21,54.83,47.15L54.83,47.15z"/>
			<path style="fill:#29398D;" d="M14.21,67.16c0.68,0,1.18-0.04,1.48-0.12s0.5-0.23,0.58-0.44c0.08-0.21,0.12-0.55,0.12-1.02V51.68
				c0-0.49-0.05-0.84-0.14-1.05c-0.09-0.21-0.29-0.35-0.58-0.44s-0.78-0.12-1.46-0.12v-0.82h7.05c2.29,0,4,0.48,5.13,1.45
				c1.13,0.97,1.69,2.26,1.69,3.89c0,1.73-0.59,3.12-1.77,4.19c-1.18,1.07-2.96,1.6-5.33,1.6h-1.96v5.2c0,0.49,0.05,0.84,0.16,1.05
				c0.1,0.21,0.33,0.35,0.67,0.43c0.34,0.08,0.9,0.11,1.68,0.11v0.82h-7.3V67.16z M20.8,59.32c2.96,0,4.44-1.52,4.43-4.57
				c0-1.51-0.37-2.64-1.11-3.39c-0.74-0.75-1.88-1.12-3.41-1.12c-0.7,0-1.16,0.08-1.38,0.24c-0.22,0.16-0.33,0.41-0.33,0.75v8.09
				H20.8z"/>
			<path style="fill:#29398D;" d="M39.97,67.16c0.62,0,1.07-0.04,1.33-0.11s0.43-0.21,0.49-0.4c0.06-0.19,0.1-0.53,0.1-1.02v-8.46
				c0-0.49-0.05-0.82-0.16-0.98c-0.1-0.16-0.3-0.3-0.64-0.3l-0.99-0.1v-0.46l3.43-0.93h0.8v11.23c0,0.49,0.04,0.84,0.11,1.04
				c0.09,0.21,0.27,0.36,0.49,0.4c0.25,0.07,0.69,0.1,1.32,0.1v0.82h-6.3V67.16z"/>
			<path style="fill:#29398D;" d="M41.92,51.95c-0.29-0.29-0.45-0.68-0.44-1.09c-0.01-0.42,0.15-0.83,0.44-1.14
				c0.63-0.6,1.63-0.6,2.26,0c0.29,0.31,0.44,0.72,0.43,1.14c0.01,0.41-0.15,0.81-0.44,1.09C43.53,52.54,42.55,52.54,41.92,51.95
				L41.92,51.95z"/>
			<path style="fill:#29398D;" d="M38.76,57.95c-0.13,0.27-0.37,0.47-0.66,0.55c-0.09,0.03-0.19,0.04-0.28,0.04
				c-0.37,0-0.71-0.19-0.89-0.51c-0.14-0.23-0.29-0.49-0.44-0.72c-0.3-0.48-0.89-0.67-1.41-0.47h-0.01
				c-0.95,0.33-1.65,1.63-1.91,2.8v5.98c0,0.49,0.04,0.84,0.12,1.04c0.08,0.2,0.27,0.33,0.55,0.4c0.48,0.08,0.97,0.12,1.46,0.1v0.82
				h-6.51v-0.82c0.63,0,1.07-0.04,1.33-0.11c0.26-0.08,0.43-0.21,0.49-0.4c0.07-0.19,0.1-0.53,0.1-1.02v-8.46
				c0-0.49-0.06-0.82-0.17-0.99c-0.11-0.16-0.33-0.25-0.65-0.25l-0.6-0.08v-0.34l0.8-0.22c0.76-0.14,1.5-0.41,2.18-0.78h0.8v2.67
				l0.04,0.94c0.49-1.65,1.48-3.02,2.74-3.38c1.4-0.39,2.67,0.19,3.05,1.55C39.06,56.84,39.01,57.43,38.76,57.95z"/>
			<path style="fill:#29398D;" d="M71.12,57.95c-0.13,0.27-0.37,0.47-0.66,0.55c-0.09,0.03-0.19,0.04-0.28,0.04
				c-0.37,0-0.71-0.19-0.89-0.51c-0.14-0.23-0.29-0.49-0.44-0.72c-0.3-0.48-0.89-0.67-1.41-0.47h-0.01
				c-0.95,0.33-1.65,1.63-1.91,2.8v5.98c0,0.49,0.04,0.84,0.12,1.04c0.08,0.2,0.27,0.33,0.55,0.4c0.48,0.08,0.96,0.12,1.45,0.1v0.82
				h-6.5v-0.82c0.62,0,1.07-0.04,1.33-0.11c0.27-0.08,0.43-0.21,0.49-0.4c0.07-0.19,0.1-0.53,0.1-1.02v-8.46
				c0-0.49-0.06-0.82-0.17-0.99c-0.11-0.16-0.33-0.25-0.65-0.25l-0.6-0.08v-0.34l0.8-0.22c0.76-0.14,1.5-0.41,2.18-0.78h0.8v2.67
				l0.04,0.94c0.49-1.65,1.48-3.02,2.74-3.38c1.4-0.39,2.67,0.19,3.05,1.55C71.41,56.84,71.36,57.43,71.12,57.95z"/>
			<path style="fill:#29398D;" d="M53.76,54.35c3.55,0,6.66,2.05,6.66,6.9c0,4.46-3.2,7.05-6.66,7.05c-3.52,0-6.64-2.03-6.64-6.87
				C47.12,56.93,50.33,54.35,53.76,54.35z M53.87,67.54c2.59,0,3.93-2.14,3.93-6.16c0-3.85-1.7-6.22-4.14-6.22
				c-2.59,0-3.93,2.14-3.93,6.16c0,3.81,1.7,6.21,4.14,6.21L53.87,67.54z"/>
			<path style="fill:#29398D;" d="M85.79,55.26c-0.77,0.08-1.4,0.47-1.88,1.18c-0.26,0.4-0.48,0.82-0.66,1.27l-5.19,12.93
				c-0.88,2.18-1.77,3.26-2.68,3.26c-0.31,0.01-0.61-0.09-0.85-0.28c-0.26-0.17-0.41-0.47-0.4-0.78c-0.01-0.35,0.18-0.67,0.49-0.83
				c0.12-0.08,0.46-0.2,0.99-0.36c0.53-0.16,0.88-0.33,1.06-0.52c0.4-0.41,0.74-0.99,1.04-1.74l0.91-2.29L73.9,57.06
				c-0.3-0.65-0.6-1.09-0.91-1.33c-0.36-0.31-0.86-0.47-1.51-0.48v-0.57h6.12v0.57c-0.89,0.01-1.44,0.15-1.63,0.43
				s-0.13,0.76,0.16,1.43l3.46,7.44l2.59-6.47c0.29-0.72,0.43-1.28,0.43-1.69c0.01-0.19-0.03-0.37-0.12-0.54
				c-0.24-0.38-0.84-0.58-1.79-0.62v-0.57h5.07L85.79,55.26z"/>
			<path style="fill:#29398D;" d="M28.78,76.4v-5.5h2.77v0.51h-2.18v1.96h2v0.49h-2v2.54H28.78z"/>
			<path style="fill:#29398D;" d="M35.09,75.47c-0.01,0.31,0.01,0.63,0.06,0.94H34.6l-0.06-0.51h-0.02c-0.26,0.38-0.7,0.6-1.16,0.59
				c-0.6,0.03-1.12-0.43-1.15-1.03c0-0.03,0-0.06,0-0.09c0-0.95,0.82-1.46,2.28-1.45c0-0.33,0-1.08-0.9-1.08
				c-0.34,0-0.68,0.09-0.96,0.28l-0.14-0.42c0.36-0.22,0.78-0.34,1.2-0.33c1.11,0,1.4,0.79,1.4,1.57V75.47z M34.5,74.36
				c-0.74,0-1.68,0.11-1.68,0.94c0,0.51,0.32,0.73,0.68,0.73c0.53,0.02,0.98-0.39,1-0.92L34.5,74.36z"/>
			<path style="fill:#29398D;" d="M38.05,72.98c-0.07-0.01-0.14-0.01-0.22-0.01c-0.65,0-0.99,0.64-0.99,1.31v2.13h-0.6v-2.76
				c0-0.42-0.01-0.8-0.03-1.18h0.53l0.03,0.76h0.02c0.17-0.49,0.59-0.85,1.07-0.85c0.06,0,0.12,0.01,0.18,0.02L38.05,72.98z"/>
			<path style="fill:#29398D;" d="M44.11,76.4h-0.59v-2.27c0-0.77-0.27-1.26-0.86-1.26c-0.48,0-0.92,0.45-0.92,1.06v2.47h-0.6v-2.43
				c0-0.63-0.27-1.11-0.82-1.11c-0.51,0-0.97,0.51-0.97,1.12v2.42h-0.59v-2.92c0-0.41-0.01-0.69-0.03-1.02h0.53l0.04,0.64h0.02
				c0.23-0.45,0.69-0.73,1.2-0.72c0.49,0,0.93,0.32,1.08,0.79h0.01c0.26-0.47,0.66-0.79,1.26-0.79c0.48,0,1.25,0.31,1.25,1.66
				L44.11,76.4z"/>
			<path style="fill:#29398D;" d="M50.86,76.4h-0.6l-1.76-2.89c-0.37-0.59-0.7-1.2-0.99-1.84l-0.03,0.01
				c0.05,0.7,0.06,1.34,0.06,2.3v2.42h-0.56v-5.5h0.63l1.78,2.9c0.36,0.58,0.68,1.18,0.96,1.8l0.01-0.01
				c-0.06-0.77-0.07-1.42-0.07-2.29v-2.4h0.57L50.86,76.4z"/>
			<path style="fill:#29398D;" d="M55.15,75.36c0,0.4,0.02,0.74,0.04,1.05h-0.55l-0.03-0.62h-0.02c-0.26,0.45-0.74,0.72-1.26,0.71
				c-0.59,0-1.29-0.34-1.29-1.7v-2.33h0.6v2.22c0,0.77,0.22,1.3,0.88,1.3c0.58-0.01,1.04-0.48,1.03-1.06c0,0,0-0.01,0-0.01v-2.45
				h0.6L55.15,75.36z"/>
			<path style="fill:#29398D;" d="M58.14,72.98c-0.07-0.01-0.14-0.01-0.22-0.01c-0.65,0-0.99,0.64-0.99,1.31v2.13h-0.6v-2.76
				c0-0.42-0.01-0.8-0.03-1.18h0.53l0.03,0.76h0.02c0.17-0.49,0.59-0.85,1.07-0.85c0.06,0,0.12,0.01,0.18,0.02L58.14,72.98z"/>
			<path style="fill:#29398D;" d="M60.68,73.08c-0.23-0.15-0.49-0.23-0.77-0.23c-0.43,0-0.67,0.27-0.67,0.59
				c0,0.34,0.22,0.49,0.73,0.71c0.64,0.26,1,0.59,1,1.19c0,0.7-0.53,1.16-1.39,1.16c-0.36,0-0.72-0.09-1.03-0.27l0.17-0.46
				c0.27,0.16,0.57,0.25,0.89,0.27c0.53,0,0.79-0.28,0.79-0.64c0-0.36-0.21-0.57-0.73-0.78c-0.66-0.27-1-0.64-1-1.11
				c0-0.62,0.49-1.12,1.29-1.12c0.32,0,0.63,0.08,0.9,0.24L60.68,73.08z"/>
			<path style="fill:#29398D;" d="M64.69,76.24c-0.39,0.17-0.81,0.26-1.23,0.25c-1.15,0-1.84-0.81-1.84-1.99
				c0-1.23,0.69-2.12,1.76-2.12c1.21,0,1.52,1.11,1.52,1.8c0,0.14-0.01,0.24-0.01,0.33H62.2c0.01,1.09,0.63,1.5,1.34,1.5
				c0.35,0.01,0.71-0.06,1.03-0.2L64.69,76.24z M64.31,74.06c0.01-0.53-0.22-1.23-0.99-1.23c-0.72,0-1.04,0.69-1.1,1.23H64.31z"/>
			<path style="fill:#29398D;" d="M67.6,72.98c-0.07-0.01-0.14-0.01-0.22-0.01c-0.65,0-0.99,0.64-0.99,1.31v2.13h-0.6v-2.76
				c0-0.42-0.01-0.8-0.03-1.18h0.53l0.03,0.76h0.02c0.17-0.49,0.59-0.85,1.07-0.85c0.06,0,0.12,0.01,0.18,0.02L67.6,72.98z"/>
			<path style="fill:#29398D;" d="M71.27,72.47l-1.05,2.79c-0.47,1.28-0.8,2.02-1.29,2.48c-0.23,0.22-0.5,0.37-0.8,0.46l-0.17-0.51
				c0.92-0.34,1.27-1.34,1.27-1.42c0-0.06-0.02-0.11-0.04-0.17l-1.39-3.64h0.66l0.86,2.39c0.1,0.27,0.19,0.59,0.25,0.82h0.02
				c0.06-0.24,0.16-0.53,0.25-0.84l0.8-2.38H71.27z"/>
		</g>
	</g>
</g>
</svg>
