<svg id="Layer_1" data-name="Layer 1" xmlns="http://www.w3.org/2000/svg" viewBox="0 0 104.71 23.5"><defs><style>.cls-1{fill:#006bac;}</style></defs><title>esure_2017_on_white</title><path class="cls-1" d="M17.39,14.34H3.56a8,8,0,0,0,.52,3,5.58,5.58,0,0,0,3.51,3.32,8.3,8.3,0,0,0,2.65.4,10.41,10.41,0,0,0,3.86-.77,9.45,9.45,0,0,0,2.77-1.52H17v3.46a26.2,26.2,0,0,1-3.28,1.13,13.35,13.35,0,0,1-3.52.46A10.14,10.14,0,0,1,2.89,21.3Q.25,18.76.25,14.07A10.37,10.37,0,0,1,2.78,6.72,8.65,8.65,0,0,1,9.43,4a7.62,7.62,0,0,1,5.89,2.24,9,9,0,0,1,2.07,6.37v1.73m-3.07-2.47A5.72,5.72,0,0,0,13.07,8,4.79,4.79,0,0,0,9.31,6.58a5.44,5.44,0,0,0-4,1.52,5.93,5.93,0,0,0-1.71,3.77Z" transform="translate(-0.25 -0.46)"/><path class="cls-1" d="M36.42,17.93a5.16,5.16,0,0,1-2.13,4.25,9.27,9.27,0,0,1-5.83,1.66,14,14,0,0,1-3.84-.5,17,17,0,0,1-2.93-1.09V18.67h.17a12.44,12.44,0,0,0,3.32,1.84,10,10,0,0,0,3.51.68,6.45,6.45,0,0,0,3.26-.69,2.34,2.34,0,0,0,1.17-2.17,2.17,2.17,0,0,0-.64-1.7,5.75,5.75,0,0,0-2.46-1q-.67-.15-1.76-.36t-2-.44a6.57,6.57,0,0,1-3.51-1.94,4.85,4.85,0,0,1-1-3.14,5.14,5.14,0,0,1,.48-2.2,5.29,5.29,0,0,1,1.46-1.85A7,7,0,0,1,26.1,4.46,10.8,10.8,0,0,1,29.38,4a14.77,14.77,0,0,1,3.43.41,13,13,0,0,1,2.89,1V8.81h-.17a11.3,11.3,0,0,0-2.95-1.54,10,10,0,0,0-3.4-.63,5.84,5.84,0,0,0-2.93.68,2.2,2.2,0,0,0-1.2,2,2.14,2.14,0,0,0,.72,1.76,5.61,5.61,0,0,0,2.29,1q.87.2,2,.41c.72.13,1.33.26,1.81.37a6.69,6.69,0,0,1,3.4,1.75,4.62,4.62,0,0,1,1.19,3.32" transform="translate(-0.25 -0.46)"/><path class="cls-1" d="M56.29,23.42H53.1V21.34A15.52,15.52,0,0,1,50,23.29a7.72,7.72,0,0,1-3.25.68,6,6,0,0,1-4.64-1.82,7.67,7.67,0,0,1-1.66-5.34V4.54h3.19V15.32a19.2,19.2,0,0,0,.14,2.47,4.47,4.47,0,0,0,.57,1.75,2.72,2.72,0,0,0,1.18,1.09,5.19,5.19,0,0,0,2.12.34,6.75,6.75,0,0,0,2.7-.64,12.53,12.53,0,0,0,2.73-1.64V4.54h3.19V23.42" transform="translate(-0.25 -0.46)"/><path class="cls-1" d="M72.93,8h-.17a12.76,12.76,0,0,0-1.38-.23,15.53,15.53,0,0,0-1.58-.07A6.52,6.52,0,0,0,67,8.32,13,13,0,0,0,64.33,10V23.42H61.15V4.54h3.19V7.33a15.65,15.65,0,0,1,3.34-2.16,7.27,7.27,0,0,1,2.95-.63q.83,0,1.2,0l1.11.16V8" transform="translate(-0.25 -0.46)"/><path class="cls-1" d="M92.78,14.34H79a8,8,0,0,0,.52,3A5.58,5.58,0,0,0,83,20.68a8.31,8.31,0,0,0,2.65.4,10.42,10.42,0,0,0,3.86-.77,9.49,9.49,0,0,0,2.77-1.52h.17v3.46a26.18,26.18,0,0,1-3.28,1.13,13.35,13.35,0,0,1-3.52.46,10.14,10.14,0,0,1-7.34-2.55q-2.64-2.54-2.64-7.23a10.37,10.37,0,0,1,2.53-7.35A8.65,8.65,0,0,1,84.82,4a7.62,7.62,0,0,1,5.89,2.24,9,9,0,0,1,2.07,6.37v1.73m-3.07-2.47A5.72,5.72,0,0,0,88.46,8,4.79,4.79,0,0,0,84.7,6.58a5.43,5.43,0,0,0-4,1.52A5.94,5.94,0,0,0,79,11.88Z" transform="translate(-0.25 -0.46)"/><path class="cls-1" d="M105,4.54a3.94,3.94,0,0,1-1.19,2.88,4.08,4.08,0,0,1-5.77,0,3.93,3.93,0,0,1-1.2-2.88A3.92,3.92,0,0,1,98,1.66a4.07,4.07,0,0,1,5.77,0A3.93,3.93,0,0,1,105,4.54m-.55,0a3.44,3.44,0,0,0-1-2.51,3.5,3.5,0,0,0-5,0,3.45,3.45,0,0,0-1,2.51,3.45,3.45,0,0,0,1,2.51,3.49,3.49,0,0,0,5,0A3.44,3.44,0,0,0,104.41,4.54Zm-.9,2.07h-1.06L100.9,4.94h-.76V6.62h-.78V2.3h1.47a6.05,6.05,0,0,1,.73,0,1.66,1.66,0,0,1,.57.18,1.11,1.11,0,0,1,.44.39,1.1,1.1,0,0,1,.14.57,1.1,1.1,0,0,1-.27.76,1.81,1.81,0,0,1-.73.48Zm-1.66-3.08a.65.65,0,0,0-.07-.3.48.48,0,0,0-.22-.22.9.9,0,0,0-.31-.11l-.41,0h-.7V4.34h.6a2.51,2.51,0,0,0,.5,0,.84.84,0,0,0,.35-.15.64.64,0,0,0,.21-.26A.93.93,0,0,0,101.85,3.54Z" transform="translate(-0.25 -0.46)"/></svg>