<svg xmlns="http://www.w3.org/2000/svg" viewBox="0 519.4 1920.2 241.2" fill="#152864"><path d="M1350.4 634.6l-5.3-1.9c1.5-.7 3-1.5 4.5-2.4a124.53 124.53 0 0 0 16.4-12.5c11.9-12.5 15.4-27.8 13.3-44.6-1.7-16.2-10.8-30.8-24.6-39.4-14.8-9.7-31.4-12.8-48.6-13.1-24.8-.5-49.6 0-74.4 0-1.3 0-2.5 0-3.9.2v235.5h3.3l73.6-.2c9.5-.2 19-1.5 28.2-3.9 30.2-7.9 50.6-25.6 54.3-58.3 3.2-27-8.8-49.7-36.8-59.4zm-81-77.2c.1-1.3.2-2.5.5-3.8 14.4.4 28.7 0 42.8 1.5 15.3 1.7 23.3 13.8 23 30.5-.4 20.1-16.8 31.4-32.4 32.3-10.1.6-20.2.2-30.2.5-2.7 0-3.7-.9-3.7-3.6v-57.4zm65.3 153.3c-5.3 6.1-12.9 9.8-21 10.3-14.5 1.1-29 1-44.1 1.4 0-2.3-.3-3.7-.3-5.1v-59.4c0-7.7.2-6.3 6.6-6.2 11.6 0 23.4-.2 34.9.9 13.1 1.3 24.8 6.9 29.9 20.2s3.7 26.5-6 37.9zM491.9 521.4h-40.7v4.8 140.5c-.1 8.2-.9 16.4-2.4 24.5-3.1 16.2-12.4 27.3-28.7 31.4-13.1 3.3-26.9 3.4-40 .2-17.1-4-28.3-15.7-30.5-33.2-1.3-10-1.9-20.1-2-30.1V525.7v-4.3H306c0 1.5-.2 2.8-.2 4v138.1c.1 12.2 1.2 24.3 3.3 36.3 4.3 24.9 18.1 43.1 41.9 52.5 27.8 10.8 56.3 10.3 84.7 2.7 20.5-4.8 37.8-18.5 47-37.4a95.56 95.56 0 0 0 9.3-43.7V525.5l-.1-4.1zm1425.3 231l-60.7-82.7c-5.5-7.5-5.5-7.5.2-14.6l49.7-60.9c3.1-3.8 6-7.7 9.3-12l-2.1-.3h-45.3c-1.7.2-3.3 1.1-4.4 2.5l-46.4 61c-1 1.3-2.2 2.6-3.3 3.9l-1.1-.5V521.3h-40.4c0 1.4-.2 2.4-.2 3.3v228.2c0 3.3 1.2 3.9 4.2 3.9h31.9c4 0 5.1-1.1 5-5.1v-70.8c0-1.3.3-2.6.4-3.8a11.58 11.58 0 0 1 3.6 3.7l49.2 73c1.2 2 3.4 3.2 5.7 3h44.1c1.2-.1 2.5-.2 3.7-.4-1.5-1.6-2.3-2.8-3.1-3.9zm-366.4-125.7c-1-22.1-13.9-37.8-35.2-43.9-14.5-3.9-29.7-5.1-44.6-3.5-13.3 1.1-26.4 3.5-39.1 7.3-10.5 3.1-10.5 3-9.8 13.7v1.6l2.7 24.6a27.18 27.18 0 0 0 2.5-1.1c18-10.8 39.1-15.4 59.9-13.1 8.5 1 16.1 3.9 20.4 12s3.8 17.1 3.5 26.2l-21 1.4c-16.5 1.1-32.6 5.5-47.3 12.8-20.4 10.5-35.1 29.9-31.6 57 1.3 16.1 12.2 29.9 27.6 34.8 9.5 3.5 19.7 4.6 29.7 3.3 16.5-1.6 31.7-9.6 42.4-22.2.7-.9 1.2-1.9 1.7-3l1.2 1v20.9h39.1l.3-1.6-1-66.5c-.8-20.6-.5-41.1-1.4-61.7zm-55.1 90.4c-7.6 7.7-18.3 11.3-29 9.8-7.7-1-13.7-4.5-16-12.3-2.5-7.1-.7-15 4.5-20.4 5.6-5.8 13-9.6 20.9-10.7 10.4-1.8 20.9-2.6 31.4-3.7 1.1 0 2.2.1 3.3.3-.4 14.2-4.5 26.9-15.1 37zM972.5 583.8c-12.7-4.6-26.4-6-39.8-4.3-29.7 3.3-50.5 19-61.8 46.5-11 26.6-10.9 54.2-3.3 81.5 9.4 34.8 34.7 48.9 65.4 51.8 12.5.8 25.1.6 37.6-.8 12.1-1.1 24-4.1 35.2-8.9 2.4-1 3.1-2.1 2.5-4.7-.7-3.5-.9-7.3-1.3-10.9l-2.3-19.3-3.7 1.7c-18.4 8.7-38.9 12-59.1 9.4-17.5-2.3-29.5-11.5-34.2-28.9-2.3-7.6-3.2-15.5-2.8-23.4h108.3c2.5-16.1 1.6-32.5-2.8-48.2-6-19.6-18.1-34.2-37.9-41.5zm-66.7 59.5c2.6-12.7 7.7-23.2 19.2-29.3 10.7-6.1 23.9-5.9 34.3.8 10.5 6.3 14.2 16.4 14 28.6h-67.5zm829.3-5.7c.1-5.8-.1-11.5-.9-17.2-2.1-14.4-8.2-26.7-21.2-34.5-6.7-3.8-14.2-6-21.9-6.6-19-1.8-36.4 1.7-51.6 13.8-4.6 3.7-9 7.8-12.6 10.9v-21.8h-38.4v174.4h4.1 31.9c3.7 0 4.9-1 4.9-4.8v-77.5c0-9.1 1.3-18.2 3.7-27 5.1-17.1 14.7-30.6 33.8-33.9 13.1-2.3 24.3 2.5 26.7 17.3 1 5.8 1.5 11.6 1.6 17.5v103.5 4.9h39.9v-4.5-114.5zm-889.8 87.2c0-.9-.1-1.8-.3-2.7-8.9.8-17.3 2.2-25.7 2.2-9.3 0-15.3-2.4-17.3-13.7-.8-4.2-1.3-8.5-1.4-12.8v-76.4-5h44.5V582h-44.7v-61.6l-37.1 10.4c-2.6.7-3.5 1.7-3.5 4.5v42.6 4.4h-28.5c-3.3 0-4.2 1-4.2 4.2a572.11 572.11 0 0 1 0 26.2c0 3.3 1.2 3.9 4.2 3.9h28.6v5.2 79.1c.1 8.6.6 17.2 1.6 25.8.8 7.3 3.6 14.3 8.2 20 7.8 9.6 18.7 12.3 30.1 13.1 14.1 1 28.3 0 42.2-2.9 2.5-.6 3.3-1.5 3.3-4.2v-27.9zm-141.1-54.5c-6.6-4.7-13.7-8.7-21-12.1-8.5-4.3-17.6-7.6-26-12-4.1-2.1-7.5-5.2-10.1-9-6-9.3-1.1-20.5 10.1-24.2s22.2-2.8 33.4-1c5.7.9 11.4 2.4 17.4 3.7v-32.1c0-.9-2-2.3-3.3-2.5-5-.8-10.1-1.3-15.2-1.9a127.04 127.04 0 0 0-42.6 1.8c-25.9 6.1-43.2 22.7-44.1 48-.6 17.2 4.4 32.1 19.7 41.5 9.6 6 20.2 10.4 30.4 15.5 6.1 2.7 12 5.7 17.8 9.1 6 3.6 8.8 10.8 6.7 17.4-1.6 6.4-6.9 11.3-13.4 12.3-16.2 3.9-32.2 1.6-47.9-2.8l-8.7-2.6-4.4 35.3c.3.2.6.4 1 .6 22 5.4 45 6.2 67.3 2.2 9.5-1.8 18.6-5.4 26.6-10.8 13.8-9.2 22-24.8 21.7-41.3.2-14.1-3.9-26.4-15.4-35.1zm-133.1-149h-40.5c0 1.4-.2 2.4-.2 3.5v228.3c0 3.3 1.2 3.7 3.9 3.7h33.1c3.3 0 4.1-.9 4.1-4.2V525.1c-.2-1.2-.3-2.4-.4-3.8zm512.9 84.4l1.5-23.5h-39.4v174.4h41.1v-5l.9-83.8c.2-10.1 2.4-20 6.6-29.2 5-10.8 12.5-18.9 25-20.2 5.9-.3 11.9-.3 17.8 0l1.8-39.2c-24.8-3.3-42.4 6.5-55.3 26.5zm-865.3-9.8H190c1.6-1.7 2.3-2.6 3.3-3.3l40.2-40.4c7.1-7.8 6.9-19.8-.6-27.3-7.6-7.4-19.8-7.3-27.3.3l-.2.2-34.1 34c-2.9 2.9-5.9 5.7-9.5 9.2v-30.5c.1-1.6 0-3.1-.4-4.7-2.4-8.9-10.9-14.7-20.1-13.7-10.1.5-17.9 8.8-17.8 18.9v35.8c-.8 9.4 4.9 18.2 13.8 21.3 11.6 4.7 20.7 14.1 25 25.9 3.1 8.1 11 13.4 19.7 13.1h35.8c3 0 6-.6 8.8-1.7 8.7-3.7 13.5-13.1 11.4-22.3-2-8.8-10.1-15.1-19.3-14.8zM102.8 682c-12.6-4.8-22.4-14.8-26.8-27.5-1.8-6.2-7.2-10.6-13.6-11a454.65 454.65 0 0 0-46.7 0c-10.1.7-16.4 10.6-15.5 20 1.1 11.2 9.4 18 20.6 18h23c1.3 0 2.6 0 4.7.3l-3.6 3.8-38.2 38.3c-8.1 7.7-8.3 20.5-.6 28.6a28.48 28.48 0 0 0 2.6 2.3c8 5.5 18.9 4.2 25.4-3l39.4-39.4c1-1 2-1.9 3.6-3.3 0 2 .3 3.1.3 4.2v27.2a15.68 15.68 0 0 0 7.1 13.7c6.2 4.2 14.2 4.7 20.9 1.2 6.6-3.1 10.7-9.9 10.3-17.2.2-12.3 0-24.7 0-37 .3-8.6-4.9-16.3-12.9-19.2z"/><path d="M98.2 520c-8.6-1.2-16.9 3.7-20 11.9-.9 3-1.4 6.1-1.3 9.3-.2 8.7 0 17.5 0 27.5-2.4-2.2-4-3.3-5.4-4.9l-38.4-38.4c-5.6-5.6-14.2-7.2-21.4-3.9-9.7 4.2-14.2 15.5-10 25.3 1 2.3 2.5 4.4 4.3 6.2l25.3 25.3L49 595.5l-.8 1.3H44c-9.1 0-18.1-.5-27.1 0-11.2.5-17.6 8.9-17 21.1 1.2 9.6 9.2 17 18.9 17.3 12.5 0 24.9-.4 37.4 0 9.8.4 16.4-5.7 20-13.7 4.7-11.8 14-21.1 25.8-25.7 8-2.6 13.3-10.1 13.1-18.4.4-12.9.3-25.7 0-38.6 0-9.6-7.3-17.7-16.9-18.8zm122.1 123c-13.6 0-27.3-.3-40.9 0-7.6.1-14.3 5-16.8 12.2-4.7 12.3-14.5 21.9-26.8 26.5-7.3 2.3-12.3 9.1-12.3 16.7-.4 14.3-.4 28.6.2 42.8.3 9.6 9.8 17 20 16.4 10-.4 18-8.5 18.3-18.5v-29.9c1 .6 1.9 1.3 2.8 2.1l13.9 13.9 26.5 26.8c7.4 7.6 19.5 7.8 27.1.4 1.4-1.3 2.5-2.9 3.5-4.5 4.7-8.2 3-17.4-4.8-25.3l-38.1-38.1c-1-1-2-2.2-3.4-3.7 2 0 3-.2 4 0l25.5.7c10.6.4 19.5-7.9 19.9-18.6.4-10.6-7.9-19.5-18.6-19.9h0 0z"/></svg>