<?xml version="1.0" encoding="utf-8"?>
<svg version="1.1" id="Layer_1" xmlns="http://www.w3.org/2000/svg" xmlns:xlink="http://www.w3.org/1999/xlink" x="0px" y="0px"
	 viewBox="0 0 923.08 169.51" style="enable-background:new 0 0 923.08 169.51;" xml:space="preserve">
<g>
	<path style="fill-rule:evenodd;clip-rule:evenodd;fill:#FF6600;" d="M144.34,166.35V72.14l-40.42,94.22H81.5L41.75,72.14v94.22H0
		V3.15h55.89l38.4,92.15l40.18-92.15h51.61v163.2H144.34z M218.23,166.35V3.15h35.7c3.13,0,6.25,3.13,6.25,6.53v156.67
		L218.23,166.35z M376.02,72.37h53.07c4.19,0,6.55,3.43,6.55,7.45v84.31c-14.93,3.34-38.25,5.38-55.6,5.38
		c-60.84,0-92.93-29.01-92.93-84.97C287.12,34.59,319.21,0,372.69,0c23.56,0,44.21,6.28,57.51,15.25l-16.45,28.09
		c-11.51-5.15-26.98-8.74-37.94-8.74c-30.75,0-45.13,20.4-45.13,49.94c0,31.54,16.65,51.02,47.36,51.02c5.61,0,12.61-0.21,18.2-1.08
		v-28.75h-20.22L376.02,72.37z M528.76,34.59h-20.54v40.92h20.54c12.26,0,21.9-6.53,21.9-22.06
		C550.66,37.72,541.03,34.59,528.76,34.59z M559.68,166.36l-19.37-44.92c-3.96-9.16-6.72-13.69-15.12-13.69h-16.97v58.61h-41.01
		V9.68c0-3.4,3.73-6.53,6.39-6.53h57.9c31.46,0,58.44,6.53,58.44,47.15c0,18.2-10.07,36.83-28.96,40.6
		c9.41,3.2,18.89,15.25,24.02,28.34l18.66,47.11L559.68,166.36z M694.34,34.59c-22.01,0-37.68,15.71-37.68,49.94
		c0,34.71,15.66,50.38,37.68,50.38c18.88,0,34.34-15.67,34.34-50.38C728.68,50.31,713.22,34.59,694.34,34.59L694.34,34.59z
		 M694.34,169.51c-53.43,0-81.71-37.75-81.71-84.97C612.63,37.73,640.9,0,694.34,0c50.06,0,78.37,37.72,78.37,84.54
		C772.71,131.76,744.39,169.51,694.34,169.51L694.34,169.51z M853.06,169.51c-27.6,0-53.23-9.89-64.66-17.76l18.61-32.99
		c10.38,6.28,30.57,15.94,49.18,15.94c10.54,0,23.85-2.02,23.85-13.73c0-11-14.88-14.35-34.39-19.94
		c-23.55-6.74-50.97-16.12-50.97-47.8C794.67,19.09,825.01,0,864.49,0c26.06,0,46.26,9.22,56.56,19.09l-22.66,25.79
		c-11.2-6.7-22.65-11.89-35.49-11.89c-15.46,0-24.2,5.87-24.2,14.4c0,8.47,11.2,12.79,25.32,17.05
		c24.96,7.71,59.05,15.57,59.05,48.26C923.08,146.37,896.16,169.51,853.06,169.51L853.06,169.51z"/>
</g>
</svg>
