<?xml version="1.0" encoding="utf-8"?>
<svg version="1.1" id="Layer_1" xmlns="http://www.w3.org/2000/svg" xmlns:xlink="http://www.w3.org/1999/xlink" x="0px" y="0px"
	width="100px" height="100px" viewBox="0 0 72.2 72.2" style="enable-background:new 0 0 72.2 72.2;" xml:space="preserve">
<g>
	<circle style="fill:#E8E8E8;" cx="36.1" cy="36.1" r="36.1"/>
	<circle style="fill:#FFFFFF;" cx="36.1" cy="36.1" r="35.4"/>
	<path style="fill:#036CAD;" d="M17.4,37.2H10c0,0.5,0.1,1.1,0.3,1.6c0.3,0.9,1,1.4,1.9,1.7c0.4,0.1,0.9,0.2,1.4,0.2
		c0.7,0,1.4-0.1,2.1-0.4c0.5-0.2,1-0.4,1.4-0.8h0.1v1.8L15.5,42c-0.6,0.1-1.2,0.2-1.9,0.2c-1.4,0.1-2.8-0.4-3.9-1.4
		C8.8,40,8.3,38.7,8.3,37c-0.1-1.4,0.4-2.8,1.4-3.9c0.9-1,2.2-1.5,3.5-1.4c1.2-0.1,2.3,0.4,3.2,1.2c0.8,0.9,1.1,2.2,1.1,3.4
		L17.4,37.2 M15.7,35.9c0-0.7-0.2-1.4-0.6-2c-0.5-0.5-1.2-0.8-2-0.7c-0.8,0-1.6,0.2-2.1,0.8c-0.5,0.5-0.9,1.3-0.9,2
		C10,35.9,15.7,35.9,15.7,35.9z M27.5,39.1c0,0.9-0.4,1.7-1.2,2.2c-0.9,0.6-2,0.9-3.1,0.9c-0.6,0-1.4-0.1-2-0.3
		c-0.5-0.1-1.1-0.4-1.6-0.6v-1.9h0.1c0.5,0.5,1.2,0.8,1.7,1c0.6,0.2,1.2,0.4,1.9,0.4c0.6,0,1.2-0.1,1.7-0.4c0.4-0.2,0.6-0.6,0.6-1.2
		c0-0.4-0.1-0.6-0.4-0.9C25,38,24.5,37.9,24,37.8l-0.9-0.2L22,37.4c-0.7-0.1-1.4-0.5-1.9-1c-0.4-0.5-0.6-1.1-0.5-1.7
		c0-0.4,0.1-0.8,0.3-1.2c0.1-0.4,0.4-0.7,0.8-1c0.4-0.3,0.8-0.5,1.3-0.6c0.6-0.1,1.2-0.2,1.7-0.2c0.6,0,1.2,0.1,1.9,0.2l1.6,0.5v1.9
		h-0.1c-0.5-0.4-1-0.6-1.6-0.9S24.3,33,23.7,33c-0.5,0-1.1,0.1-1.6,0.4c-0.4,0.2-0.6,0.6-0.6,1.1c0,0.4,0.1,0.7,0.4,0.9
		c0.4,0.3,0.8,0.4,1.2,0.5l1.1,0.2l0.9,0.2c0.6,0.1,1.3,0.4,1.8,0.9C27.3,37.8,27.6,38.4,27.5,39.1 M38.1,42.1h-1.7v-1.2
		c-0.5,0.4-1,0.7-1.7,1c-0.5,0.2-1.2,0.4-1.7,0.4c-0.9,0.1-1.8-0.3-2.5-1c-0.6-0.8-1-1.8-0.9-2.8v-6.6h1.7v5.8
		c0,0.4,0.1,0.9,0.1,1.3c0,0.4,0.1,0.6,0.3,0.9c0.2,0.2,0.4,0.4,0.6,0.6c0.4,0.1,0.7,0.2,1.2,0.1c0.5,0,1-0.1,1.4-0.4
		c0.5-0.2,1-0.5,1.4-0.9V32h1.7L38.1,42.1 M46.9,33.8L46.9,33.8l-0.8-0.1h-0.9c-0.5,0-1,0.1-1.5,0.4c-0.5,0.2-0.9,0.5-1.4,0.9v7.1
		h-1.7V32h1.7v1.5c0.6-0.4,1.2-0.9,1.8-1.2c0.5-0.2,1-0.4,1.6-0.4h0.6l0.6,0.1L46.9,33.8 M57.5,37.2h-7.4c0,0.5,0.1,1.1,0.3,1.6
		c0.3,0.9,1,1.5,1.9,1.7c0.4,0.1,0.9,0.2,1.4,0.2c0.7,0,1.4-0.1,2.1-0.4c0.5-0.2,1-0.4,1.4-0.8h0.1v1.8L55.6,42
		c-0.6,0.1-1.2,0.2-1.9,0.2c-1.4,0.1-2.8-0.4-3.9-1.4c-0.9-0.9-1.4-2.2-1.4-3.8c-0.1-1.4,0.4-2.8,1.4-3.9c0.9-0.9,2.2-1.5,3.5-1.4
		c1.2-0.1,2.3,0.4,3.2,1.2c0.8,0.9,1.2,2.2,1.2,3.4L57.5,37.2 M55.8,35.9c0-0.7-0.2-1.5-0.6-2.1c-0.5-0.5-1.2-0.8-2-0.7
		c-0.8,0-1.6,0.3-2.1,0.8c-0.5,0.5-0.9,1.3-0.9,2C50.1,35.9,55.8,35.9,55.8,35.9z M63.9,32c0,0.6-0.2,1.2-0.6,1.5
		c-0.9,0.9-2.2,0.9-3.1,0c-0.4-0.4-0.6-0.9-0.6-1.5c0-0.6,0.2-1.2,0.6-1.5c0.9-0.9,2.2-0.9,3,0l0,0C63.7,30.9,63.9,31.5,63.9,32
		 M63.6,32c0-0.5-0.1-1-0.5-1.3c-0.7-0.7-1.9-0.7-2.6,0l0,0C60.2,31,60,31.5,60,32c0,0.5,0.1,1,0.5,1.4c0.7,0.7,1.9,0.7,2.6,0v-0.1
		C63.4,33,63.6,32.5,63.6,32L63.6,32z M63.1,33.1h-0.6l-0.9-0.9h-0.4v0.9h-0.5v-2.4h0.8H62c0.1,0,0.2,0.1,0.3,0.1l0.2,0.2
		c0.1,0.1,0.1,0.2,0.1,0.3c0,0.1-0.1,0.3-0.1,0.4C62.3,31.9,62.2,32,62,32C62,32,63.1,33.1,63.1,33.1z M62.3,31.5v-0.1
		c0-0.1-0.1-0.1-0.1-0.1c-0.1,0-0.1-0.1-0.1-0.1h-0.2h-0.4v0.7h0.4H62c0.1,0,0.1,0,0.2-0.1c0.1,0,0.1-0.1,0.1-0.1
		C62.3,31.6,62.3,31.5,62.3,31.5L62.3,31.5C62.3,31.5,62.3,31.5,62.3,31.5z"/>
</g>
</svg>
