<?xml version="1.0" encoding="utf-8"?>
<svg version="1.1" id="Layer_1" xmlns="http://www.w3.org/2000/svg" xmlns:xlink="http://www.w3.org/1999/xlink" x="0px" y="0px"
	 viewBox="0 0 1066.7 1280" style="enable-background:new 0 0 1066.7 1280;" xml:space="preserve">
<path style="fill:#FCC200;" d="M0,640V44.6C0,17.9,17.9,0,44.6,0h977c27.1,0,45,17.9,45,45v1189.6c0,27.4-17.9,45.4-45.4,45.4H43.9
	c-22.7,0-39.9-14.3-43.5-36.6c-0.4-2.6-0.4-5.1-0.4-8.1C0,1235.4,0,640,0,640z"/>
<path style="fill:#14215A;" d="M947,640.4v502v6.2c-0.4,8.1-6.6,14.6-15,15h-4H138.3c-2.6,0-5.1,0-7.3-0.7
	c-6.6-1.8-10.6-7.3-11-13.9v-5.5v-1007v-4.8c0.4-8.8,7-15,15.4-15.4h3.7h789.3c2.6,0,5.1,0,7.3,0.7c7,1.8,11,7.3,11.3,14.3v6.2
	V640.4z"/>
<path style="fill:#FCC200;" d="M0,640V44.6C0,17.9,18.3,0,45,0h976.6c27.1,0,45,17.9,45,45v1189.6c0,27.4-17.9,45.4-45.4,45.4h-977
	c-22.7,0-39.9-14.3-43.5-36.6c-0.7-2.6-0.7-5.1-0.7-8.1L0,640L0,640z M1015.4,640V80.5c0-17.2-12.8-30.4-29.6-30.4H80.1
	c-1.8,0-3.7,0-5.1,0.4c-15.4,3.3-24.2,14.6-24.2,30.7v1114.6v4.8c0,16.1,13.2,29.3,29.3,29.3h906c1.5,0,3.3,0,4.8-0.4
	c15.4-3.3,24.5-14.6,24.5-30.7V640z"/>
<path style="fill:#EE7601;" d="M1015.4,640v559.1c0,16.1-8.8,27.4-24.5,30.7c-1.5,0.4-3.3,0.4-4.8,0.4h-906
	c-16.1,0-29.3-12.8-29.3-29.3v-4.8V81.6c0-16.1,8.8-27.4,24.2-30.7c1.8-0.4,3.7-0.4,5.1-0.4h905.7c16.8,0,29.6,13.2,29.6,30.4V640z
	 M977.4,640V486.3V111.2c0-2.9,0-5.9-0.7-8.8c-2.9-10.2-11-15.7-22.7-15.7H112.7h-2.6c-9.9,0.4-17.9,6.6-20.1,16.1
	c-0.7,3.3-0.7,6.6-0.7,9.9v1055v6.2c0,1.5,0.4,2.9,0.7,4.4c3.3,10.2,11,15.4,23.1,15.4h840.2c0.7,0,1.8,0.4,2.6,0
	c4-1.1,8.4-1.8,11.7-3.7c7.3-4.4,9.5-11.7,9.5-20.1L977.4,640L977.4,640z"/>
<path style="fill:#D80912;" d="M977,640v529.1c0,8.4-2.2,15.7-9.5,20.1c-3.3,2.2-7.7,2.6-11.7,3.7c-0.7,0.4-1.8,0-2.6,0H113.1
	c-12.1,0-19.8-5.1-23.1-15.4c-0.4-1.5-0.7-2.9-0.7-4.4v-6.2V112c0-3.3,0-6.6,0.7-9.9c2.2-9.5,10.2-15.7,20.1-16.1h2.6H954
	c11.7,0,19.8,5.5,22.7,15.7c0.7,2.9,0.7,5.9,0.7,8.8v375.1L977,640z M947,640.4V137.6v-6.2c-0.4-7-4.4-12.4-11.3-14.3
	c-2.6-0.7-5.1-0.7-7.3-0.7H139.1h-3.7c-8.8,0.4-15,6.6-15.4,15.4v4.8v1007v5.5c0.4,7,4.4,12.1,11,13.9c2.6,0.7,5.1,0.7,7.3,0.7H928
	h4c8-0.7,14.3-7,15-15v-6.2L947,640.4L947,640.4z"/>
<path style="fill:#FDFDFD;" d="M598.7,993.8V797.7c1.1,0,1.8-0.4,2.9-0.4h84.2c13.9,0,27.8,1.8,41.3,6.2c27.4,9.1,45.4,27.4,52,55.6
	c6.2,25.6,5.9,51.2-1.1,76.5c-8.1,28.9-27.4,46.5-56.4,53.8c-11.7,2.9-23.4,4-35.5,4.4h-84.5H598.7z M658.3,951.8
	c11-0.4,21.6-0.4,31.8-1.8c16.8-2.2,28.2-12.1,32.6-28.9c4-15.4,4.4-31.1,1.1-46.5c-3.3-16.5-12.8-27.8-29.6-32.2
	c-11.7-3.3-23.8-2.2-35.9-2.6L658.3,951.8L658.3,951.8z M264.6,958l-9.1,35.9h-63.3c20.5-66.6,42.8-132.1,69.2-196.1h77.6
	c26.3,64,48.7,129.5,69.2,196.1h-63.3l-9.1-35.9H264.6L264.6,958z M300.8,833.9h-1.1l-26,81.2h53.1
	C318.7,887.7,310.3,860.7,300.8,833.9z M427,797.7h59.3v4.8v124c0,4,0.4,8.1,0.7,12.1c0.7,5.9,4.8,9.5,10.6,10.6
	c3.7,0.7,7,1.1,10.6,1.1h53.1h4.8l8.8,43.5c-1.5,0-2.6,0.4-3.7,0.4h-93.7c-6.2,0-12.4-0.7-18.3-2.6c-17.9-5.1-27.4-17.9-30.7-35.9
	c-0.7-4.8-1.1-9.5-1.1-14.3V800.6C427,799.9,427,798.8,427,797.7L427,797.7z M815.6,797.7h58.9v196.1h-58.9L815.6,797.7L815.6,797.7
	z"/>
<linearGradient id="SVGID_1_" gradientUnits="userSpaceOnUse" x1="-282.013" y1="1115.661" x2="-201.4291" y2="1144.9915" gradientTransform="matrix(3.6592 0 0 -3.6592 1558.6135 4688.479)">
	<stop  offset="0" style="stop-color:#97D2F0"/>
	<stop  offset="4.400000e-002" style="stop-color:#8ACFF0"/>
	<stop  offset="0.145" style="stop-color:#72C9F0"/>
	<stop  offset="0.251" style="stop-color:#60C5F0"/>
	<stop  offset="0.366" style="stop-color:#56C3F0"/>
	<stop  offset="0.505" style="stop-color:#53C2F0"/>
	<stop  offset="0.569" style="stop-color:#57C3F0"/>
	<stop  offset="0.634" style="stop-color:#63C7F1"/>
	<stop  offset="0.699" style="stop-color:#77CDF2"/>
	<stop  offset="0.764" style="stop-color:#94D6F3"/>
	<stop  offset="0.829" style="stop-color:#B8E1F5"/>
	<stop  offset="0.837" style="stop-color:#BDE3F5"/>
	<stop  offset="0.86" style="stop-color:#B1DDF1"/>
	<stop  offset="0.9" style="stop-color:#92CCE5"/>
	<stop  offset="0.954" style="stop-color:#60B2D3"/>
	<stop  offset="1" style="stop-color:#2F98C1"/>
</linearGradient>
<path style="fill:url(#SVGID_1_);" d="M764.8,472.8c20.9,0,35.9,9.5,45,28.5l29.3,61.1c0.4,0.7,0.7,1.5,1.1,2.6
	c-4-3.7-8.2-7-12.8-9.9c-8.8-5.1-18.7-6.2-28.5-6.2H583.6l26-76.1H764.8z M884.8,672.6l-29.3-61.1c-9.1-19-23.8-28.5-45-28.5H571.9
	L546,659h298.2c9.9,0,19.8,0.7,28.5,6.2c4.7,2.7,9,6,12.8,9.9C885.2,674,885.2,673.3,884.8,672.6z M621,438.7h132.5
	c9.9,0,19.8,0.7,28.5,6.2c4.7,2.7,9,6,12.8,9.9c-0.7-1.5-0.7-1.8-1.1-2.6l-29.3-61.1c-9.1-19-23.8-28.5-45-28.5h-72.8L621,438.7
	L621,438.7z"/>
<linearGradient id="SVGID_2_" gradientUnits="userSpaceOnUse" x1="-306.5398" y1="1086.3733" x2="-306.5398" y2="1220.3733" gradientTransform="matrix(3.6592 0 0 -3.6592 1558.6135 4688.479)">
	<stop  offset="0" style="stop-color:#2F98C1"/>
	<stop  offset="7.000001e-003" style="stop-color:#389DC4"/>
	<stop  offset="6.500000e-002" style="stop-color:#7FC2DE"/>
	<stop  offset="0.106" style="stop-color:#ACDAEF"/>
	<stop  offset="0.127" style="stop-color:#BDE3F5"/>
	<stop  offset="0.137" style="stop-color:#B3E0F5"/>
	<stop  offset="0.178" style="stop-color:#94D7F3"/>
	<stop  offset="0.222" style="stop-color:#7ACFF2"/>
	<stop  offset="0.27" style="stop-color:#66C9F1"/>
	<stop  offset="0.325" style="stop-color:#58C4F0"/>
	<stop  offset="0.391" style="stop-color:#4FC2F0"/>
	<stop  offset="0.505" style="stop-color:#4DC1F0"/>
	<stop  offset="0.596" style="stop-color:#50C2F0"/>
	<stop  offset="0.667" style="stop-color:#5AC5F1"/>
	<stop  offset="0.732" style="stop-color:#6BCAF1"/>
	<stop  offset="0.792" style="stop-color:#82D1F2"/>
	<stop  offset="0.849" style="stop-color:#A0DAF4"/>
	<stop  offset="0.894" style="stop-color:#BDE3F5"/>
	<stop  offset="0.909" style="stop-color:#B1DDF1"/>
	<stop  offset="0.935" style="stop-color:#92CCE5"/>
	<stop  offset="0.97" style="stop-color:#60B2D3"/>
	<stop  offset="1" style="stop-color:#2F98C1"/>
</linearGradient>
<path style="fill:url(#SVGID_2_);" d="M575.2,222.8c-12.8,2.6-23.1,9.5-30,19.8c-6.2,9.5-11.7,19.8-15.4,30.4
	c-11,30-20.9,60.4-31.1,90.4l-66.6,196.1l-19.8,58.2L397,660.5c-1.1,3.3-2.2,6.6-3.7,9.5l-1.1,3.3c-4.8,11.3-11.7,21.6-22,29.3
	c-1.1,0.7-1.8,1.5-2.9,2.2c-7.7,5.1-16.8,8.1-27.1,8.1h-32.6h-0.4h-33.7h-2.9c12.8-2.6,23.1-9.5,30-19.8
	c6.2-9.5,11.7-19.8,15.4-30.4c11-30,20.9-60.4,31.1-90.4l66.6-196.1l19.8-58.2l15.4-42.8c1.1-3.3,2.2-6.6,3.7-9.5l1.1-3.3
	c4.8-11.3,11.7-21.6,22-29.3c1.1-0.7,1.8-1.5,2.9-2.2c7.7-5.1,16.8-8.1,27.1-8.1h32.6h0.4h33.7L575.2,222.8L575.2,222.8z
	 M454.1,222.8h-33.7h-0.4h-32.6c-10.2,0-19,2.9-27.1,8.1c-1.1,0.7-1.8,1.5-2.9,2.2c-10.2,7.7-17.2,17.9-22,29.3l-1.1,3.3
	c-1.4,3.1-2.6,6.3-3.7,9.5l-150,438h8.1h0.4h32.6c10.2,0,19-2.9,27.1-8.1c1.1-0.7,1.8-1.5,2.9-2.2c10.2-7.7,17.2-17.9,22-29.3
	l1.1-3.3c1.4-3.1,2.6-6.3,3.7-9.5c5.5-14.3,10.2-28.5,15.4-42.8c7-19.4,13.2-38.8,19.8-58.2l66.6-196.1l31.1-90.4
	c4-10.6,9.1-21.2,15.4-30.4c7-10.2,17.2-16.8,30-19.8C455.9,222.8,454.8,222.8,454.1,222.8L454.1,222.8z M690.1,222.8h-33.7h-0.4
	h-32.6c-10.2,0-19,2.9-27.1,8.1c-1.1,0.7-1.8,1.5-2.9,2.2c-10.2,7.7-17.2,17.9-22,29.3l-1.1,3.3c-1.4,3.1-2.6,6.3-3.7,9.5
	c-5.5,14.3-10.2,28.5-15.4,42.8c-7,19.4-13.2,38.8-19.8,58.2l-66.6,196.1L434,662.7c-4,10.6-9.1,21.2-15.4,30.4
	c-7,10.2-17.2,16.8-30,19.8h2.9h33.7h0.4h32.6c10.2,0,19-2.9,27.1-8.1c1.1-0.7,1.8-1.5,2.9-2.2c10.2-7.7,17.2-17.9,22-29.3l1.1-3.3
	c1.4-3.1,2.6-6.3,3.7-9.5c5.5-14.3,10.2-28.5,15.4-42.8c7-19.4,13.2-38.8,19.8-58.2l66.6-196.1l31.1-90.4c4-10.6,9.1-21.2,15.4-30.4
	c7-10.2,17.2-16.8,30-19.8L690.1,222.8L690.1,222.8z"/>
</svg>
