<?xml version="1.0" encoding="utf-8"?>
<svg version="1.1" id="Layer_1" xmlns="http://www.w3.org/2000/svg" xmlns:xlink="http://www.w3.org/1999/xlink" x="0px" y="0px"
	width="100px" height="100px" viewBox="0 0 66.7 66.7" style="enable-background:new 0 0 66.7 66.7;" xml:space="preserve">
<g>
	<circle style="fill:#E8E8E8;" cx="33.3" cy="33.3" r="33.3"/>
	<circle style="fill:#FFFFFF;" cx="33.3" cy="33.3" r="32.7"/>
	<path style="fill:#00C3B9;" d="M41.7,39.2c0.1,0.2,0.1,0.5,0.1,0.7c0,4.7-3.8,8.5-8.5,8.5h-8.5V39h8.5c2.9,0,5.5-1,7.6-2.7l0,0l0,0
		c0.3-0.2,0.5-0.4,0.7-0.7l0,0c2.3-2.2,3.9-5.4,3.9-8.9c0-6.7-5.5-12.3-12.2-12.3H21.1v17h12.2c1.9,0,3.8,0.7,5.3,1.9
		c-1.5,1.2-3.3,1.9-5.3,1.9H21.1v17h12.2c6.7,0,12.2-5.5,12.2-12.3c0-1.2-0.2-2.5-0.5-3.7C44.1,37.4,42.9,38.4,41.7,39.2z
		 M24.9,27.7v-9.4h8.5c4.7,0,8.5,3.8,8.5,8.5c0,1.3-0.3,2.5-0.8,3.7c-2.1-1.7-4.7-2.7-7.6-2.7H24.9L24.9,27.7z"/>
	<path style="fill:#00969B;" d="M45,36.3c-0.3-1.1-0.8-2.1-1.3-2.9c-0.7,1.1-1.6,2.1-2.7,2.9c0.4,0.9,0.7,1.9,0.8,2.9
		C42.9,38.4,44.1,37.4,45,36.3z"/>
</g>
</svg>
