<svg xmlns="http://www.w3.org/2000/svg" viewBox="0 0 500 500" fill="#006bb6"><path d="M90 222.7v12.6h.3c4.2-9.7 12.1-14.2 22.7-14.2 10.8 0 17.6 4.5 22.4 14.2 4.2-9.7 13.7-14.2 23.8-14.2 7.2 0 15.1 2.6 20 8.4 5.5 6.5 4.3 15.8 4.3 24v51h-23.7v-43.3c0-3.2.3-11.3-.5-14.3-1.3-5.2-5.2-6.6-10.1-6.6-4.2 0-8.6 2.4-10.3 6.3-1.8 3.9-1.6 10.3-1.6 14.6v43.3h-23.7v-43.3c0-8.5 1.6-21.1-10.6-21.1-12.4 0-11.9 12.2-11.9 21.1v43.3H67.5v-81.8H90zm128.6 47.4c0 4.5.1 9.6 2.7 13.7 2.3 3.5 5.6 5.6 10 5.6 13.4 0 13.4-17.1 13.4-25.9 0-9.2 0-26.3-13-26.3-11.4 0-13 12.4-13 21.1v11.8zm-24-76.2h23.7v39h.6c4-8.1 10.8-11.9 20-11.9 23.4 0 30.4 23.2 30.4 42.5 0 21.4-8.5 42.5-33.2 42.5-11.7 0-17.4-4.4-23.3-14.2-2.9 3.5-3.9 8.2-5.3 12.6h-12.9V193.9zm82.4 28.8h22.4v13.9h.3c4.9-10.5 11.6-15.5 23.5-15.5 7.7 0 15.3 2.4 20.1 9 4.5 6.1 4.5 16.4 4.5 23.8v50.6h-23.7v-43.9c0-8.4 1.2-20.6-10.8-20.6-4.2 0-8 2.4-10 6.1-2.4 4.7-2.7 9.4-2.7 14.5v43.9H277v-81.8zm129.7 42.6c-9 1-25.6 3-25.6 15 0 6.4 3.9 10.8 10.5 10.8 4.8 0 9.2-2.6 11.9-6.8 3.4-5.2 3.2-10 3.2-15.8v-3.2zm2.3 39.1c-1-4.2-1.3-8.5-1.1-12.7-6.8 9.7-13.9 14.3-26.1 14.3-14.5 0-25.8-7.7-25.8-23.2 0-12.1 7.6-20.3 18.4-24.3 9.3-3.5 22.4-4.2 32.4-5.1v-2c0-3.5.3-7.7-2.1-10.8-2.1-2.8-6.1-3.9-9.7-3.9-7.6 0-14.2 3.9-14.2 11.9l-22.4-2.1c2.4-19.8 21.7-25.6 39-25.6 8.4 0 19.3 1.9 25.9 7.4 8.4 6.8 7.6 15.8 7.6 25.6v38.2c0 4.2.3 8.2 1.6 12.2H409z"/></svg>