<?xml version="1.0" encoding="utf-8"?>
<svg version="1.1" id="Layer_1" xmlns="http://www.w3.org/2000/svg" xmlns:xlink="http://www.w3.org/1999/xlink" x="0px" y="0px"
	 viewBox="0 0 1512.81 635.61" style="enable-background:new 0 0 1512.81 635.61;" xml:space="preserve">
<g>
	<path style="fill:#D4D6C9;" d="M894.57,311.03c-2.98-0.54-5.96-1.08-8.94-1.35 M743.4,505.55c0.27-0.54,0.81-1.08,1.35-1.63
		 M564.59,396.1c30.88,8.13,63.94,4.33,92.11-11.38c-21.94,21.94-47.41,47.41-48.49,48.49c-17.61,1.35-35.22-0.54-52.29-4.88
		c-16.53-4.33-31.97-11.38-46.06-20.86l49.04-13.27C560.8,394.75,562.7,395.56,564.59,396.1 M470.86,371.18l35.49-9.48
		c-7.04-7.31-13-15.44-18.15-24.11c-13.27-22.76-18.96-49.31-16.26-75.32l0.27-3.52l3.25,0.81c0,0,3.52,1.08,9.48,2.71
		c-4.61-11.92-7.86-24.38-9.48-37.12c-15.44-4.06-25.74-6.77-26.82-7.04l-5.42,15.71l-3.79,18.96
		c-5.15,35.22,1.9,70.98,19.78,101.59C463,359.8,466.79,365.49,470.86,371.18 M524.5,237.88c4.61,14.63,11.92,28.45,21.67,40.37
		c44.16,11.92,99.43,26.55,135.46,36.3l29.53-7.86c-4.88-4.88-14.09-14.09-25.47-25.47l-49.58-13.28L524.5,237.88 M772.12,192.64
		c12.19-20.86,28.72-39.01,48.77-52.83c4.88-18.42,9.75-36.3,14.36-52.83c-14.9,4.88-28.72,12.73-40.64,23.03L772.12,192.64z
		 M735.54,50.41c22.76-13.28,49.31-18.96,75.59-16.26l3.52,0.27l-3.79,13.55c11.92-4.88,24.38-8.13,37.12-9.75
		c4.33-16.26,7.31-26.55,7.31-27.36l-15.71-5.42l-18.96-3.79c-35.22-5.15-70.98,1.9-101.59,19.78c-5.15,2.98-10.29,6.5-15.17,10.02
		l9.48,35.22C720.1,60.43,727.42,55.01,735.54,50.41 M680.01,117.33c-5.15-18.96-9.48-35.76-12.73-47.68
		c-18.15,26.55-27.9,57.71-27.9,89.67c0,4.06,0.27,8.13,0.54,11.92l0,0L688.68,220c-15.98-28.45-20.05-62.04-11.65-93.47
		C677.84,123.29,678.92,120.31,680.01,117.33 M938.46,158.23c-15.44-3.25-31.7-3.25-47.14,0l-60.41,60.41
		c0.81-0.54,1.35-1.08,2.17-1.35c20.59-11.92,43.89-19.24,67.73-21.4C914.08,182.62,926.81,169.88,938.46,158.23 M919.5,443.51
		c0.81,2.44,1.08,5.42,1.63,8.13c0,0.27,0,0.27,0,0.54l35.22,35.22v-0.54c0.27-3.52,0.81-7.04,0.81-10.57
		c0-31.7-9.48-62.85-27.09-89.13c-1.63-0.54-35.49-9.48-65.29-17.61l-0.54-0.27c23.84,14.63,41.99,36.57,51.75,62.58
		C917.33,435.65,918.68,439.72,919.5,443.51 M788.91,505.28L788.91,505.28c4.33,16.26,9.21,33.86,13.82,50.66l0,0
		c10.57-11.92,18.42-26.01,23.3-41.18c-6.5-24.38-13.82-52.02-20.86-77.75c-0.54,23.03-5.69,45.51-15.44,66.1v0.27l-0.54,1.08
		C789.19,504.74,788.91,505.01,788.91,505.28 M907.04,538.87c-12.46,21.4-30.88,38.74-53.1,49.58c-1.63,0.54-2.71,1.63-4.06,2.44
		l-3.25,1.35l-0.81-3.25c0,0-0.27-0.81-0.54-1.9l-2.17-8.4c-8.13,10.02-17.07,19.24-27.36,27.09c4.33,15.44,7.04,26.01,7.31,27.36
		l16.26-3.25l18.15-6.23c32.78-13.28,60.41-37.12,78.3-68c2.98-5.42,5.69-10.84,8.13-16.8c-7.59-7.59-16.26-16.53-26.01-26.01
		C915.43,521.81,911.64,530.48,907.04,538.87 M849.33,43.91c-1.08,0.27-2.17,0.27-3.25,0.54c-12.73,2.17-25.47,5.69-37.39,10.84
		c-1.08,0.54-2.17,1.08-3.52,1.63c-1.35,0.54-2.44,1.08-3.52,1.63c-15.71,7.59-30.07,17.88-42.26,30.07
		c-11.92,12.19-21.94,26.01-29.8,41.18l16.8,62.58c1.9-30.34,14.9-58.79,36.3-80.46c1.9-1.9,3.79-3.52,5.96-5.15
		c1.35-1.35,2.44-2.44,3.79-3.52c1.35-1.08,2.44-1.9,3.79-2.71c11.92-8.94,25.47-15.71,39.83-20.05c1.08-0.27,2.17-0.54,3.25-0.81
		c1.08-0.27,2.17-0.54,3.25-0.81c9.48-2.17,19.24-3.25,28.99-3.25c26.28,0,52.02,8.13,73.42,23.84l2.71,1.9l-10.84,10.84
		c12.73,1.9,25.2,5.15,37.12,10.02c12.46-12.46,20.32-20.32,20.86-20.86c-3.25-3.79-11.11-12.46-11.11-12.46l-14.63-12.73
		c-27.9-21.94-62.31-33.86-97.8-33.86c-6.5,0-13,0.54-19.24,1.35C851.77,43.64,850.68,43.91,849.33,43.91 M994.27,137.92
		c-5.96-3.25-11.92-6.23-18.15-8.94c-1.08-0.27-1.9-0.81-2.98-1.08c-1.08-0.54-1.9-0.81-2.98-1.08
		c-12.19-4.61-24.92-7.59-37.93-9.21c-1.08,0-2.44-0.27-3.79-0.27c-1.35-0.27-2.44-0.27-3.79-0.27
		c-17.07-1.08-34.14,0.54-50.66,4.88c-17.07,4.61-33.05,11.92-47.68,21.67c-0.27,0.27-0.54,0.54-0.81,0.54
		c-1.08,0.81-1.9,1.63-2.98,2.17c-1.08,0.54-2.44,1.9-3.79,2.98c-16.8,12.73-30.61,28.45-41.18,46.6
		c-6.5,11.65-11.92,23.84-15.71,36.57c0,0,0,0,0,0.27l-1.9,7.04l0,0l8.94,33.05l0.27,0.54c7.04-7.04,15.71-15.71,22.49-22.22v-0.27
		l0.27-1.08c0.27-1.08,0.81-2.44,0.81-2.44c2.17-9.48,5.69-18.42,10.02-27.09c1.35-2.44,2.44-5.15,3.79-7.59l2.44-3.79
		c16.8-27.09,43.08-46.6,73.96-54.73c2.17-0.54,4.06-0.81,6.23-1.35c2.17-0.54,3.52-0.81,5.42-1.08c1.9-0.27,3.25-0.27,4.61-0.54
		c14.9-2.17,30.34-1.35,44.97,2.17l3.25,1.08c1.08,0.27,2.17,0.54,3.25,0.81c35.22,10.02,64.48,35.49,79.38,69.08l1.35,3.25
		l-13.28,3.25c10.02,7.86,19.24,17.07,27.09,27.36c9.48-2.44,23.84-6.5,26.82-7.31c-0.81-4.88-3.25-16.26-3.25-16.26l-6.23-18.15
		C1048.73,183.16,1024.89,155.52,994.27,137.92 M941.98,285.29l0.54-0.27l53.1-14.36c-11.65-10.57-25.2-18.42-39.83-23.84
		l-83.98,22.49c24.11,0,47.68,5.42,69.36,15.44C941.71,285.29,941.98,285.29,941.98,285.29 M535.06,506.91l26.01-26.01
		c-9.48-2.71-18.42-6.77-26.82-11.65c-23.03-13-41.18-33.05-51.75-57.43l-1.35-2.98l3.25-0.81c0,0,4.33-1.35,11.92-3.25
		c1.08-0.27,2.17-0.54,3.52-1.08c1.35-0.54,2.44-0.54,3.79-1.08c11.65-2.98,27.63-7.59,45.79-12.19l4.61-1.08
		c1.63-0.54,3.52-1.08,5.15-1.35l129.77-34.95l24.11-24.11l2.44-2.44l2.44-2.44l5.69-5.69c-2.98-2.98-5.96-5.96-7.04-7.31
		l-23.03,6.23l-5.69,1.63l-5.69,1.63l-9.75,2.44l0.27,0.27l0,0v0.27l-104.03,27.9l-0.81-0.27c-15.98,4.33-33.32,8.94-49.85,13.27
		c-1.08,0.27-2.17,0.81-3.52,1.08c-1.08,0.27-2.44,0.54-3.52,1.08c-13.27,3.52-25.47,6.77-36.3,9.75c-1.08,0.27-2.17,0.54-2.98,0.81
		c-1.08,0.27-1.9,0.54-2.98,0.81c-16.26,4.33-27.63,7.31-28.72,7.59c1.08,4.88,3.25,16.26,3.25,16.26l6.23,18.15
		c13,33.05,36.84,60.69,67.73,78.3C523.14,501.49,529.1,504.47,535.06,506.91 M629.34,481.98c-2.44,0.54-4.61,1.08-7.04,1.63
		c-14.36,14.09-26.82,26.82-35.49,35.49c34.68,2.17,69.36-7.04,98.34-26.28c5.96-21.67,11.65-43.89,17.34-64.75
		C685.69,454.35,659.69,473.85,629.34,481.98 M941.44,291.53c-0.27,0-0.27-0.27-0.54-0.27s-0.27-0.27-0.54-0.27
		c-1.08-0.54-2.17-0.81-3.25-1.35c-0.27,0-0.27,0-0.54-0.27c-1.35-0.54-2.71-1.08-4.06-1.63l-0.54-0.27
		c-19.24-8.13-39.83-12.19-60.41-12.19c-13,0-25.74,1.63-38.47,4.61c-0.54,0-0.81,0.27-1.35,0.27l-8.94,2.44c0,0,0,0-0.27,0.27
		c-4.88,4.88-20.86,20.59-22.76,22.76c1.9,0.54,14.9,4.06,33.32,8.94c0,0,0,0,0.27,0l1.08-0.27c1.35-0.27,2.44-0.54,3.79-0.81
		c7.59-2.17,15.17-3.25,23.03-3.79c0.54,0,1.35,0,1.9,0c2.71-0.27,5.15-0.54,7.86-0.54c1.63,0,3.25,0.27,4.88,0.27l4.06,0.27
		c1.63,0,3.25,0.27,4.88,0.27c2.98,0.27,5.96,0.81,8.94,1.35l2.44,0.27c24.11,4.88,46.33,16.8,63.67,34.14
		c1.35,1.35,2.44,2.71,3.52,4.06c0.27,0,0.54,0,0.54,0c19.24,5.15,36.3,9.75,48.77,13C998.06,331.89,972.87,306.7,941.44,291.53
		 M994,403.96L994,403.96c2.17,10.02,3.52,20.05,3.52,30.34c0,19.51-4.61,39.01-13.55,56.62c-2.98,5.96-6.5,11.65-10.29,17.07
		l-1.9,2.71l-10.29-10.29l0,0l-2.44-2.44l-2.71-2.71l0,0l-33.32-33.05l-3.52-3.52l-3.79-3.79l-62.04-62.04
		c0.54,0.54,0.81,1.35,1.35,1.9c11.92,20.59,18.96,43.35,21.13,66.92c0,0.27,0,0.27,0,0.54c0,0.27,0,0.27,0,0.54
		c0.27,0.27,0.81,0.54,1.08,1.08c13,13,25.74,25.74,37.39,37.39c1.08,0.81,1.9,1.63,2.71,2.71c0.81,1.08,1.63,1.63,2.44,2.44l0,0
		c9.75,9.75,18.69,18.69,26.28,26.28c0.81,0.81,1.63,1.63,2.44,2.44l0,0c0.81,0.81,1.63,1.35,2.17,2.17l0,0
		c12.19,12.19,19.78,19.78,20.59,20.59c3.79-3.25,12.46-11.11,12.46-11.11l12.73-14.36c5.42-7.04,10.29-14.36,14.63-22.22
		c12.73-23.3,19.24-49.31,18.96-75.59c0-7.04-0.54-14.09-1.63-20.86C1018.65,410.73,1006.73,407.75,994,403.96 M1053.06,280.42
		c14.09,23.84,21.4,51.2,21.4,78.84c0,7.59-0.54,15.17-1.63,22.76l-3.79,18.96c0,0-3.79,11.11-5.42,15.71
		c-0.81-0.27-11.92-3.25-28.99-7.86h-0.27c-0.81-0.27-1.9-0.54-2.98-0.81c0,0,0,0-0.27,0l-2.98-0.81l0,0l-36.03-9.75h-0.27
		c-1.08-0.27-2.17-0.54-2.98-0.81h-0.27l-3.25-0.81c-0.27,0-0.27,0-0.27,0c-15.98-4.33-33.59-8.94-51.47-13.82
		c-1.63-0.54-2.98-0.81-4.61-1.35c-1.63-0.54-3.25-0.81-4.61-1.08c-36.03-9.75-73.15-19.78-102.68-27.63c-0.27,0-0.27,0-0.54-0.27
		c-0.27,0-0.81-0.27-1.08-0.27c-6.5-6.77-14.63-14.9-21.4-21.4c-0.81-0.81-1.63-1.63-2.44-2.44l0,0c-0.81-0.81-1.63-1.63-2.17-2.44
		l0,0l-6.5-6.77l-0.27-0.27l-2.17-2.17l-2.17-1.9l-4.33-4.33l0,0l-1.08-4.06l-0.54-1.63l-0.81-1.63l-0.81-3.25l-0.81-3.25
		l-0.81-2.71l-0.81-2.71l-2.71-10.02l17.61-17.61l0,0c1.35-1.35,2.98-2.98,4.06-4.06l0,0c1.63-1.35,2.98-2.98,4.06-4.06l0,0
		c4.88-4.88,7.86-7.86,7.86-7.86c9.75-9.21,20.59-17.07,31.97-23.84c17.88-10.29,37.66-17.07,57.98-19.78
		c1.63-0.27,3.25-0.54,4.88-0.54c1.63-0.27,2.98-0.54,4.33-0.54h0.27c35.49-2.71,70.98,6.77,100.51,26.82
		c1.08,0.81,2.17,1.35,3.25,2.17c1.08,0.81,2.17,1.35,3.25,2.17c10.29,7.86,19.78,16.8,27.9,27.09l1.9,2.44
		c0.54,0.81,1.35,1.63,1.9,2.44C1046.29,269.58,1049.81,275,1053.06,280.42 M1041.14,359.53c0-31.7-12.19-62.31-33.86-85.34
		c-0.81-0.81-1.63-1.63-2.44-2.44c-0.81-0.81-1.63-1.63-2.44-2.44c-10.84-10.29-23.3-18.69-37.12-24.38
		c-1.35-0.54-2.71-1.35-4.33-1.9c-1.63-0.54-3.25-1.08-4.88-1.63c-2.71-1.08-5.42-1.9-8.13-2.44c-31.16-8.4-64.48-4.33-92.65,11.11
		l-2.44,1.35c-3.25,1.9-6.23,4.06-9.21,6.23c-7.31,4.88-14.09,10.57-20.05,17.07l-2.98,2.44c0,0-0.27,0.27-0.81,0.81l0,0l-4.06,4.06
		l-0.27,0.27c-1.35,1.35-2.44,2.71-4.06,4.06c0,0-0.27,0-0.27,0.27l-8.94,8.94l-8.13,8.13c-0.27,0.27-0.54,0.54-0.81,0.81
		c-0.54,0.54-1.35,1.63-2.17,2.44c-1.35,1.35-2.44,2.44-2.44,2.44l2.71,0.81l3.25,0.81l27.36,7.31h0.27l5.42,1.63h0.27l5.69,1.63
		l0,0l32.51,8.67l14.36,3.79l80.46,21.67l0.54,0.27l4.61,1.08l0.54,0.27l4.06,1.08l0.54,0.27l45.51,12.19h0.27l3.25,0.81h0.27
		l3.25,0.81h0.27l15.71,4.33l0.27-3.52C1040.87,368.2,1041.14,363.86,1041.14,359.53 M481.69,223.25c0.27,1.08,0.27,2.17,0.54,3.25
		c1.9,12.73,5.42,25.2,10.29,37.39c0.54,1.08,1.08,2.17,1.63,3.52c0.54,1.08,1.08,2.44,1.63,3.52
		c15.17,32.24,40.91,58.25,73.15,73.96l0.54,0.27c1.63-0.27,36.03-9.75,65.83-17.61c-0.54,0-1.08,0-1.63,0
		c-31.43-1.08-61.23-14.09-83.44-36.57c-2.44-2.44-4.61-4.88-7.04-7.59c-1.08-1.35-2.17-2.44-3.25-3.79l-2.71-3.79
		c-8.67-11.92-15.17-25.47-19.24-39.55c-0.27-1.08-0.54-2.17-0.81-3.25c-0.27-1.08-0.54-2.17-0.81-3.25
		c-8.13-34.95-0.54-71.79,20.59-100.78l1.9-2.71l2.44,2.44c0,0,3.52,3.52,9.21,9.21c1.63-12.73,4.88-25.47,9.48-37.66
		c-12.19-12.19-20.59-20.59-21.4-21.4c-3.79,3.25-12.46,11.11-12.46,11.11l-12.73,14.36c-21.94,27.9-33.86,62.31-33.59,97.8v0
		c0,5.96,0.27,11.92,1.08,17.88C481.15,221.09,481.42,222.17,481.69,223.25 M634.49,173.95c-12.46-12.46-25.47-25.47-37.66-37.66
		c-1.35,7.04-2.17,14.36-2.17,21.67c0,8.94,1.08,17.88,3.25,26.55c18.96,19.24,40.64,40.64,60.14,60.14
		c3.52,3.52,7.04,7.04,10.29,10.29c7.59,7.59,14.36,14.36,20.59,20.59c1.35,1.35,2.71,2.71,4.06,4.06c1.35,1.35,2.71,2.71,4.06,4.06
		c10.29,10.29,17.61,17.61,20.59,20.59c1.08,1.08,1.63,1.63,1.63,1.63l0.81,0.81l2.44,2.44l4.88,4.88l0,0
		c0.27,0,0.54-0.27,0.54-0.54c1.08-1.08,1.9-1.9,2.44-2.44c0.54-0.54,0.81-1.08,1.08-1.08l0,0c-0.27-0.54-0.54-1.63-0.81-2.71
		s-0.54-1.63-0.81-2.71c-0.27-1.08-0.54-1.9-0.81-2.71c-1.08-3.79-2.17-7.59-2.44-9.48c-0.27-1.08-0.54-1.63-0.54-1.63
		s-0.27-0.54-0.27-1.63c-0.27-1.08-0.54-1.9-0.81-3.25c-1.63-5.42-4.06-15.44-7.59-28.18l-1.63-1.63l-7.31-7.31
		c0,0-31.7-31.7-67.73-67.46l-3.25-3.52C636.66,176.39,635.58,175.3,634.49,173.95 M716.58,525.6l35.76-133.56v-0.27l0.54-2.17
		c-2.17-8.13-7.04-26.82-7.86-29.26c-0.27,0.27-0.81,0.54-1.08,1.08l0,0l-23.57,23.84c-0.27,0.27-0.54,0.54-0.81,0.81
		c-0.54,1.9-1.08,4.06-1.63,5.96c-8.13,30.88-18.15,68.54-27.9,104.3c-4.88,17.88-9.48,34.95-13.82,51.2
		c0.27-0.27,0.54-0.27,0.81-0.27C691.66,542.67,704.93,535.35,716.58,525.6 M840.93,570.57c0.81-1.08,1.63-2.17,2.17-3.25
		c0.54-1.08,1.63-2.17,2.17-3.25l0,0c9.21-14.09,16.26-29.53,20.59-45.79c4.61-17.34,6.23-35.22,4.88-53.1v-0.27l0,0
		c0-0.27,0-0.27,0-0.54c0-1.35-0.27-2.44-0.54-3.79c0-0.27,0-0.27,0-0.54v-0.54c-0.27-1.35-0.27-2.44-0.54-3.79
		c0-0.27,0-0.27,0-0.54c0-0.27,0-0.27,0-0.54c-2.71-20.05-9.48-39.55-19.51-57.16c-6.77-11.65-14.9-22.22-24.11-31.97l-8.94-8.94
		l-0.27-0.27l-4.06-4.06l0,0l-4.06-4.06l0,0l-16.8-16.8l-2.44-2.44l-2.44-2.44l-4.61-4.61l-1.08-1.35l0.54,1.9l1.35,4.88l0.81,2.71
		l0.54,2.44v0.27c0.27,0.81,1.08,4.06,2.44,8.94l0,0c0.27,1.08,0.54,2.17,0.81,3.25l0,0c0.27,1.08,0.54,2.17,0.81,3.25l0,0
		c2.98,11.11,6.77,25.47,9.21,34.68c0,0.27,0,0.27,0,0.54c0,0.54,0.27,1.08,0.27,1.35c0.81,0.54,1.35,1.63,2.17,2.17
		c4.61,4.33,8.67,9.21,12.46,14.36c0.27,0.54,0.81,1.08,1.08,1.63c0.27,0.54,0.54,0.81,0.81,1.35c2.17,2.98,4.33,5.96,5.96,9.21
		c0.27,0.54,0.54,1.08,0.81,1.63c0.27,0.54,0.27,0.54,0.54,0.81c15.71,28.45,19.78,61.5,11.38,92.93c-0.54,1.9-1.08,3.52-1.63,5.15
		l0,0c-0.54,1.63-1.08,3.52-1.63,5.15s-1.08,2.98-1.9,4.61c-5.69,14.09-13.82,27.09-24.11,38.2l0,0c-0.81,0.81-1.63,1.63-2.44,2.44
		l-2.44,2.44l0,0c-4.33,4.06-8.94,8.13-13.82,11.65c-3.25,2.44-6.77,4.61-10.57,6.77c-22.76,13.27-49.31,18.96-75.59,16.26
		l-3.52-0.27l4.06-14.9c-11.65,4.61-23.84,7.59-36.3,9.48c-0.27,0-0.54,0-0.81,0l0,0c-4.61,17.07-7.59,28.18-7.86,28.99
		c4.88,1.63,15.71,5.42,15.71,5.42l18.96,3.79c35.22,5.15,70.98-1.9,101.59-19.78c4.61-2.71,8.94-5.42,13.28-8.67
		c1.35-1.08,2.44-2.17,3.79-2.98l0,0c0.81-0.54,1.63-1.35,2.44-1.9l0,0c0.81-0.54,1.63-1.35,2.44-1.9
		c10.02-8.4,18.96-17.88,26.82-28.72 M659.42,591.16c0.81,0,1.63-0.27,2.44-0.27c0.27,0,0.54,0,0.81-0.27l2.44-0.27
		c0.27,0,0.54,0,0.54,0c12.46-1.9,24.92-5.42,36.57-10.29c0.27,0,0.54-0.27,0.81-0.27l2.71-1.35c0.27,0,0.54-0.27,0.81-0.27
		c0.81-0.54,1.63-0.81,2.44-1.35c0.27,0,0.54-0.27,0.81-0.27c15.98-7.86,30.34-18.15,43.08-30.34c1.35-1.35,2.44-2.98,3.79-4.33
		c10.29-11.11,18.96-23.57,25.74-36.84l0,0c0.54-0.81,1.08-1.63,1.35-2.44c0.27-0.54,0.54-1.08,0.54-1.35l0,0
		c0.27-0.54,0.54-1.08,0.81-1.9c0.27-0.81,0.54-1.63,1.08-2.44l0,0c0.27-0.54,0.54-1.08,0.81-1.9
		c8.13-19.24,12.46-39.83,12.19-60.96c0-8.67-0.81-17.07-2.17-25.47v-0.27c-0.81-4.61-1.35-9.21-2.44-13.82l-1.35-4.61l-0.27-1.35
		l-0.27-0.54l-1.08-4.33l-0.27-0.81v-0.81l-1.08-4.06l-0.27-0.81v-0.54l-7.59-28.18l-0.81-3.25l-0.81-3.25l0,0l-1.35-5.69v-0.27
		l-0.54-2.44c-0.27-0.81-0.54-1.63-0.81-2.98l-2.17-8.13c-0.81-2.44-1.35-5.42-2.17-8.4c-0.54-1.9-1.08-3.79-1.63-5.69l-0.81-3.25
		c-0.27-0.81-0.54-1.63-0.81-2.44c-0.27-0.54,0-0.54-0.27-1.08c-0.27-1.08-0.54-2.17-0.81-3.25l0,0c-0.27-0.81-0.54-1.9-0.81-2.71
		c-0.27-0.81-0.54-1.9-0.81-2.71c-0.54-2.17-1.08-4.61-1.9-6.77c0-0.27,0-0.27,0-0.54c-0.27-0.81-0.54-1.9-0.81-2.71
		c-0.27-1.08-0.54-2.17-0.81-3.25c-2.17-8.4-4.61-17.61-7.31-27.09l0,0c-0.54-1.9-1.08-3.79-1.63-5.69l0,0
		c-0.27-1.9-0.81-3.52-1.35-5.42v-0.27c-1.9-7.04-3.79-14.09-5.69-21.13c-7.04-26.01-14.36-53.64-21.67-80.19
		c-0.54-1.63-0.81-2.98-1.35-4.61c-0.27-1.63-0.81-2.98-1.35-4.61c-4.88-18.15-9.48-35.22-13.55-50.93
		c-0.27-1.08-0.54-2.17-1.08-3.25c-0.27-1.08-0.54-2.17-0.81-3.25c-3.52-13.55-6.77-25.74-9.75-36.03c-0.27-1.08-0.54-1.9-0.81-2.98
		c-0.27-1.08-0.54-1.9-0.81-2.98c-4.33-16.53-7.31-26.82-7.59-27.9l-16.26,3.25l-18.42,5.96c-33.05,13-60.96,36.84-78.84,67.46
		c-3.52,6.23-6.77,13-9.48,19.78c-0.27,1.08-0.81,2.17-1.08,2.98c-0.27,1.08-0.81,2.17-1.08,2.98c-4.61,12.46-7.31,25.2-8.67,38.47
		c0,1.35-0.27,2.44-0.27,4.06c-0.27,1.35-0.27,2.44-0.27,3.79c-0.27,2.44-0.54,4.61-0.54,7.04c0,31.7,9.48,62.85,27.36,89.13
		c1.63,0.27,36.03,9.75,65.83,17.61c-27.36-16.53-47.14-43.08-55.27-73.96c-0.27-1.08-0.27-2.17-0.54-3.25
		c-0.27-1.9-0.54-3.52-1.08-5.15c-0.54-1.63-0.81-3.52-1.08-5.15c-1.08-6.23-1.63-12.73-1.63-18.96c0-8.94,1.08-17.88,2.98-26.55
		c0.27-1.08,0.27-2.44,0.81-3.52c0.27-1.08,0.54-2.17,0.81-3.25c2.98-10.29,7.04-20.05,12.19-29.26
		c13-23.03,33.05-41.18,57.43-51.75l3.25-1.35c0,0,1.35,4.88,3.52,13.82c0.27,1.08,0.54,2.44,0.81,3.52
		c0.27,1.08,0.81,2.44,1.08,3.52c3.25,11.65,7.31,27.09,12.19,44.97c0.27,1.35,0.81,2.98,1.08,4.61c0.27,1.63,0.81,2.98,1.35,4.61
		c6.5,24.92,14.36,53.37,21.4,79.65c1.08,4.06,2.17,8.13,3.25,11.92c1.63,5.96,2.98,11.65,4.61,17.34
		c2.44,9.48,4.88,18.42,7.04,26.28c0.27,0.54,0.27,1.08,0.27,1.35c0.27,1.35,0.81,2.98,1.08,4.33c0,0.54,0.27,0.81,0.27,1.35
		c0.27,1.63,0.81,2.98,1.08,4.33c0.27,0.54,0.27,0.81,0.54,1.35c2.98,11.11,4.88,18.69,5.69,21.67c0,0.54,0.27,1.08,0.54,1.63
		l0.27,1.63l0.81,3.25l1.63,6.5l0.54,2.71l0.27,1.08l0.27,1.35l0.27,0.54l0.54,2.71l0.27,1.08l0.27,0.54l0.27,1.63l0.81,3.52
		l3.52,13.27l1.63,5.69l1.08,3.79l0.54,1.9l0.27,0.81l0.81,2.98l1.35,5.42l0.81,3.25l0.54,1.63l0,0l0.54,1.63l3.25,12.19
		c0,0,1.35,4.88,2.98,10.57c0.27,0.27,0.27,0.81,0.27,1.35c0.27,1.35,0.81,2.98,1.08,4.33c0.27,0.54,0.27,0.81,0.27,1.35
		c0.54,1.63,0.81,2.98,1.08,4.33c0.27,0.54,0.27,0.81,0.27,1.35c0.27,0.81,0.54,1.35,0.54,1.63l0.81,3.52
		c0.27,1.08,0.54,2.44,0.81,3.52c1.35,5.15,2.44,10.29,3.25,15.44v0.54c0.54,2.98,0.54,5.96,0.54,8.94
		c0.27,2.17,0.27,4.33,0.54,6.23v0.27c0,0.54,0,1.35,0,1.9c0,1.35,0,2.98-0.27,4.33c0,1.35,0,2.71-0.27,3.79v0.27
		c-1.35,22.22-8.67,43.62-21.13,61.77c-0.54,0.54-0.81,1.08-1.35,1.63c-1.9,2.44-3.52,5.15-5.69,7.59c-2.71,3.25-5.42,6.23-8.4,9.21
		c-2.17,2.17-4.33,4.06-6.5,5.96c-0.27,0.27-0.54,0.54-1.08,0.81c-1.08,0.81-2.17,1.9-2.98,2.44c-0.27,0.27-0.54,0.54-1.08,0.54
		c-0.81,0.81-1.9,1.63-2.98,2.17c-0.27,0.27-0.54,0.27-0.81,0.54c-11.65,8.67-24.92,15.17-38.74,19.24c-0.27,0-0.54,0.27-0.81,0.27
		c-0.81,0.27-1.63,0.54-2.44,0.54c-0.27,0-0.54,0.27-0.81,0.27c-0.81,0.27-1.63,0.27-2.44,0.54c-0.27,0-0.54,0-0.54,0.27
		c-8.94,1.9-18.42,2.98-27.63,2.98c-26.28,0-52.02-8.13-73.42-23.57l-2.98-2.17l9.48-9.48l2.44-2.44l2.71-2.71l33.32-33.32
		l3.25-3.25l3.79-3.79l95.09-95.09l0.81-0.81l3.25-3.25l0.81-0.81l3.25-3.25l0.81-1.08l18.96-18.96l0,0l1.08-1.08l0,0l-2.17-8.67
		l-0.81-2.98l-0.81-2.71l-1.9-7.04l-0.27-0.81l-0.54-2.44l-0.54-2.44l-0.27-0.81l-0.27-0.54l-1.08-3.79l-0.27-0.54l-0.27-0.81
		l-0.81-3.52l-1.08,1.08l-0.27,0.27l-0.54,0.54l-1.63,1.63l-0.54,0.54l-1.63,1.63l-0.54,0.54l-2.98,3.25l-2.44,2.44l-2.44,2.44
		l-19.51,19.24l-4.06,4.33l-4.33,4.33l-119.2,119.2l-2.44,2.44l-2.44,2.44l-24.38,24.38c0,0-0.81,0.81-2.17,2.17
		c-0.81,0.54-1.35,1.35-2.44,2.17s-1.35,1.63-2.17,2.17c-7.04,7.04-17.34,17.07-19.51,19.24c1.08,1.08,2.44,2.71,3.79,4.33l7.31,8.4
		l0,0l14.36,12.73c27.9,21.94,62.31,33.86,97.8,33.86c5.96,0,11.92-0.27,17.88-1.08L659.42,591.16"/>
	<path style="fill:#5F6638;" d="M52.83,418.32H26.28C14.9,418.32,0,409.92,0,385.53V249.8c0-20.32,13.55-34.41,29.8-34.41
		s28.18,14.09,28.18,34.41v4.33H41.72v-8.13c0.27-6.5-4.61-11.92-11.11-12.46c-0.27,0-0.54,0-0.81,0c-6.23,0-11.65,4.88-11.65,11.38
		c0,0.27,0,0.54,0,1.08v143.05c0,8.4,3.52,13.82,11.65,13.82s11.92,0,11.92,0v-66.1H31.16v-16.26h28.72v97.8L52.83,418.32z"/>
	<polygon style="fill:#5F6638;" points="104.85,418.59 104.85,217.84 153.61,217.84 153.61,234.9 123,234.9 123,306.7 145.21,306.7 
		145.21,324.04 123,324.04 123,401.52 153.61,401.52 153.61,418.59 	"/>
	<polygon style="fill:#5F6638;" points="246.26,418.59 219.71,314.82 213.75,284.21 213.75,418.59 196.42,418.59 196.42,217.84 
		214.3,217.84 237.32,322.68 242.74,353.84 242.74,217.84 259.81,217.84 259.81,418.59 	"/>
	<polygon style="fill:#5F6638;" points="338.65,235.45 338.65,418.59 320.5,418.59 320.5,235.45 300.99,235.45 300.99,217.84 
		356.8,217.84 356.8,235.45 	"/>
	<polygon style="fill:#5F6638;" points="398.52,418.59 398.52,217.84 416.4,217.84 416.4,400.44 446.2,400.44 446.2,418.59 	"/>
	<polygon style="fill:#5F6638;" points="488.47,418.59 488.47,217.84 537.23,217.84 537.23,234.9 506.62,234.9 506.62,306.7 
		528.83,306.7 528.83,324.04 506.62,324.04 506.62,401.52 537.23,401.52 537.23,418.59 	"/>
	<polygon style="fill:#5F6638;" points="648.31,418.59 648.31,268.77 645.33,302.09 630.97,418.59 614.71,418.59 600.08,302.09 
		596.56,268.77 596.56,418.59 580.85,418.59 580.85,217.84 607.13,217.84 620.67,341.37 623.93,374.7 627.18,341.37 640.18,217.84 
		665.92,217.84 665.92,418.59 	"/>
	<polygon style="fill:#5F6638;" points="712.79,418.59 712.79,217.84 761.82,217.84 761.82,234.9 730.94,234.9 730.94,306.7 
		753.42,306.7 753.42,324.04 730.94,324.04 730.94,401.52 761.82,401.52 761.82,418.59 	"/>
	<polygon style="fill:#5F6638;" points="854.48,418.59 827.93,314.82 821.97,284.21 821.97,418.59 804.63,418.59 804.63,217.84 
		822.51,217.84 845.54,322.68 850.96,353.84 850.96,217.84 868.02,217.84 868.02,418.59 	"/>
	<path style="fill:#5F6638;" d="M953.09,421.02c-18.69,0-29.8-13.82-29.8-34.14v-1.35h17.61v2.17c0,10.02,4.88,17.61,11.65,17.61
		c9.21,0,13-6.23,13-17.61c0-20.32-7.04-38.74-17.88-61.5c-9.75-19.78-23.03-50.39-23.03-71.25c0-23.3,9.21-39.83,30.61-39.83
		c16.53,0,27.09,13.82,27.09,34.41v3.25h-17.34v-2.71c0-12.19-3.52-17.88-10.29-17.88c-7.86,0-12.73,5.15-12.73,15.98
		c0,23.57,7.31,39.28,19.51,65.02c11.65,24.38,21.13,47.68,21.13,68.81C983.16,413.71,965.28,421.02,953.09,421.02"/>
	<polygon style="fill:#5F6638;" points="890.51,218.11 908.12,218.11 899.45,271.75 	"/>
	<polygon style="fill:#5F6638;" points="1119.71,235.45 1119.71,418.59 1101.55,418.59 1101.55,235.45 1081.78,235.45 
		1081.78,217.57 1137.59,217.57 1137.59,235.45 	"/>
	<path style="fill:#5F6638;" d="M1206.4,215.4c-16.26,0-29.8,14.09-29.8,34.41v137.08c0,20.59,13.55,34.41,29.8,34.41
		s29.8-13.82,29.8-34.41V249.8C1236.2,229.49,1222.66,215.4,1206.4,215.4z M1218.05,390.14c0.54,6.5-4.33,11.92-10.84,12.46
		c-0.27,0-0.81,0-1.08,0c-7.59,0-11.92-5.42-11.92-12.46V246.01c-0.54-6.5,4.33-11.92,10.57-12.46c0.27,0,0.81,0,1.08,0
		c6.5,0,11.65,5.15,11.65,11.65c0,0.27,0,0.54,0,0.81v144.13H1218.05z"/>
	<polygon style="fill:#5F6638;" points="1331.29,418.59 1304.74,314.82 1298.78,284.48 1298.78,418.59 1281.44,418.59 
		1281.44,217.57 1299.33,217.57 1322.08,322.68 1327.5,353.84 1327.5,217.57 1344.84,217.57 1344.84,418.59 	"/>
	<rect x="1391.17" y="217.57" style="fill:#5F6638;" width="18.42" height="201.02"/>
	<path style="fill:#5F6638;" d="M1484.63,421.02c-16.26,0-29.26-13.82-29.26-34.41V249.53c0-20.32,13-34.41,29.26-34.41
		c16.26,0,28.18,14.09,28.18,34.41v3.79h-15.98v-7.59c0-6.77-4.33-12.46-11.65-12.46c-7.31,0-11.65,5.69-11.65,12.46v144.13
		c0,7.04,4.33,12.46,11.65,12.46c7.59,0,11.65-5.42,11.65-12.46v-7.59h15.71v4.06C1512.54,406.94,1500.89,421.02,1484.63,421.02"/>
</g>
</svg>
