<?xml version="1.0" encoding="utf-8"?>
<svg version="1.1" id="Layer_1" xmlns="http://www.w3.org/2000/svg" xmlns:xlink="http://www.w3.org/1999/xlink" x="0px" y="0px"
	width="100px" height="100px" viewBox="0 0 66.7 66.7" style="enable-background:new 0 0 66.7 66.7;" xml:space="preserve">
<g>
	<circle style="fill:#E8E8E8;" cx="33.3" cy="33.3" r="33.3"/>
	<circle style="fill:#FFFFFF;" cx="33.3" cy="33.3" r="32.7"/>
	<path style="fill:#1DBDEF;" d="M22.4,28.7l-0.1,1.1c0.3-0.8,0.8-1.2,1.5-1.3v2.6l-1.5,0.1l0.1,5.7l-2,0.1l0.2-8.3L22.4,28.7
		C22.4,28.8,22.4,28.7,22.4,28.7z M26.8,27.6v1.3h0.7v1.3h-0.7v5.1l1.1-0.1L27.8,37h-1c-0.5,0-0.9,0-1.1-0.1
		c-0.2-0.1-0.4-0.1-0.5-0.3c-0.1-0.1-0.3-0.4-0.3-0.6c-0.1-0.2,0-0.8,0-1.6l0.1-4.1h-0.7v-1.5h0.7v-1.3L26.8,27.6
		C26.8,27.6,26.8,27.6,26.8,27.6z M31.1,26.7l0.1,10.2h-2.3l0.1-10.2H31.1C31.1,26.7,31.1,26.7,31.1,26.7z M37.9,32.7l-3.7,0.1v2.7
		H36v-2l1.9,0.1v0.6c0,0.5,0,0.9-0.1,1.1c-0.1,0.3-0.2,0.5-0.4,0.8c-0.3,0.3-0.5,0.6-0.9,0.7c-0.4,0.2-0.9,0.3-1.3,0.3
		c-0.5,0-1-0.1-1.4-0.2c-0.4-0.1-0.7-0.4-0.9-0.7c-0.2-0.3-0.5-0.5-0.5-0.9c-0.1-0.5-0.1-0.9-0.1-1.4v-2.4c0-0.7,0.1-1.1,0.3-1.5
		c0.2-0.4,0.5-0.9,1-1.1c0.4-0.2,0.9-0.3,1.5-0.3c0.7,0,1.3,0.1,1.7,0.4c0.5,0.3,0.7,0.7,0.9,1.1c0.2,0.5,0.3,1,0.3,1.8L37.9,32.7
		L37.9,32.7z M35.8,31.7l0.1-2l-1.6-0.1l0.1,2.1C34.4,31.7,35.8,31.7,35.8,31.7z M48.3,31.8h-1.8v-0.5c0-0.6,0.1-1.1,0.2-1.5
		c0.1-0.3,0.4-0.7,0.8-0.9c0.4-0.3,0.9-0.4,1.6-0.4c0.8,0,1.4,0.1,1.8,0.5c0.4,0.3,0.7,0.7,0.7,1.1c0.1,0.4,0.1,1.3,0.1,2.6l0.1,4.1
		H50V36l-1,0.7c-0.2,0.1-0.5,0.2-0.8,0.2c-0.4,0-0.8-0.1-1.1-0.3c-0.3-0.3-0.5-0.8-0.5-1.6v-0.7c0-0.6,0.2-0.9,0.4-1.1
		s0.5-0.5,1.3-0.8l1.7-0.8v-1.9l-1.5,0.1V31.8z M50,32.9l-1.5,0.1l-0.1,2.7l1.5-0.2C49.9,35.4,50,32.9,50,32.9z M58.7,28.8l-0.2,8.7
		c0,0.5-0.3,1.3-0.5,1.7c-0.1,0.2-0.6,0.6-0.9,0.7c-0.3,0.1-3.5,0.2-3.5,0.2v-2l3.2,0.1l0.1-1.1c0-0.1-1.9,0.1-2.5,0
		c-0.3-0.1-0.9-0.3-1-0.5c0,0-0.2-0.2-0.3-0.7c-0.1-0.7-0.2-6.9-0.2-6.9l2.1,0.1l-0.1,5.9h2l-0.3-5.9L58.7,28.8L58.7,28.8z
		 M19.3,28.8l-0.2,5.7c-0.1,0.7-0.4,1.5-0.6,1.8c-0.2,0.3-0.5,0.5-0.8,0.6c-0.3,0.1-0.7,0.2-1.1,0.2c-0.5,0-0.9-0.1-1.3-0.3
		c-0.4-0.1-0.8-0.5-1-0.9c-0.3-0.4-0.5-1.5-0.5-2.5v-4.8l1.9,0.1l-0.2,5.9l2,0.1l-0.2-5.9C17.3,28.8,19.3,28.8,19.3,28.8z
		 M40.7,26.3h2.1c0.7,0,1.2,0.1,1.5,0.2c0.3,0.1,0.6,0.4,0.9,0.8c0.2,0.4,0.3,1.1,0.3,2c0,0.6-0.1,1.1-0.2,1.3
		c-0.1,0.3-0.5,0.4-0.9,0.6c0.5,0.1,0.9,0.4,1,0.7c0.2,0.3,0.3,0.9,0.3,1.5v1c0,0.7-0.1,1.3-0.2,1.6c-0.1,0.3-0.3,0.6-0.6,0.7
		s-0.9,0.2-1.7,0.2h-2.6C40.7,37.1,40.7,26.3,40.7,26.3z M42.1,28l-0.1,2.6h1.7V28C43.7,27.9,42.1,28,42.1,28z M42.2,32.3v2.9
		c0.3,0,1.7-0.1,1.7-0.1v-2.8L42.2,32.3C42.2,32.3,42.2,32.3,42.2,32.3z M13.3,26.3v2l-1.7-0.2l0.3,8.8l-2.3,0.1l0.2-8.9L8,28.3
		v-1.9C8,26.4,13.3,26.3,13.3,26.3z"/>
	<g>
		<path style="fill:#FFE700;" d="M17.8,38.7C17.8,38.7,17.7,38.7,17.8,38.7c-0.1-0.1-0.1-0.1-0.2-0.1h-0.3c-0.1,0-0.2,0.1-0.3,0.1
			c-0.1,0.1-0.2,0.1-0.3,0.1L16.5,39l-0.3,0.1l-0.1,0.1v-0.1v-0.1v-0.1V39v-0.1v-0.1v-0.1v-0.1v-0.1v-0.1h-0.1H16h-0.1
			c0,0-0.1,0-0.1,0.1c0,0-0.1,0-0.1,0.1l-0.1,0.1v0.1v0.1l0,0l-0.3,0.2c-0.1,0.1-0.3,0.2-0.5,0.3l-0.2,0.1h-0.1h-0.1l-0.1-0.1
			c0,0,0-0.1-0.1-0.1v-0.1V39l0.1-0.1c0,0,0-0.1,0.1-0.1v-0.1c0,0,0-0.1-0.1-0.1h-0.1h-0.1v-0.1l-0.1-0.1h-0.1H14
			c-0.1,0-0.3,0-0.5,0.1c-0.1,0-0.3,0.1-0.4,0.1s-0.2,0.1-0.3,0.2l-0.2,0.2c0,0-0.1-0.1-0.1-0.1l0,0l0,0c0,0-0.1,0-0.1,0.1
			c-0.1,0-0.1,0-0.1,0.1l-0.1,0.1H12l-0.3,0.1l-0.3,0.2l-0.4,0.1c-0.1,0.1-0.3,0.1-0.4,0.1l-0.4,0.1H9.7H9.4c-0.1,0-0.1-0.1-0.2-0.1
			s-0.1-0.1-0.1-0.1v-0.1v-0.1c0-0.1,0-0.1,0.1-0.1c0-0.1,0.1-0.1,0.1-0.1l0.1-0.1c0.1-0.1,0.2-0.2,0.3-0.3c0.1-0.1,0.3-0.2,0.5-0.3
			l0.2-0.1l0.3-0.1l0.3-0.1h0.2h0.1h0.1l-0.1,0.1c-0.1,0-0.1,0.1-0.1,0.1L11,38.5c0,0.1,0,0.1,0.1,0.1c0.1,0,0.1,0.1,0.1,0.1
			c0.1,0,0.1,0,0.2-0.1c0,0,0.1,0,0.1-0.1l0.1-0.1c0,0,0.1-0.1,0.1-0.1s0.1-0.1,0.1-0.1v-0.1l-0.1-0.1l-0.1-0.1L11.5,38
			c-0.1,0-0.1,0-0.1-0.1s-0.1,0-0.3,0h-0.2L10.7,38h-0.3l-0.2,0.1c-0.1,0-0.1,0.1-0.3,0.1c-0.1,0-0.1,0.1-0.3,0.1l-0.2,0.1
			c-0.1,0.1-0.1,0.1-0.2,0.1S9.1,38.7,9,38.7c-0.1,0.1-0.2,0.2-0.2,0.3c-0.1,0.1-0.1,0.2-0.1,0.3c0,0.1-0.1,0.2-0.1,0.3
			s0,0.2,0.1,0.3L8.9,40c0.1,0.1,0.2,0.1,0.3,0.1c0.1,0,0.3,0.1,0.5,0.1c0.1,0,0.3,0,0.5-0.1c0.2,0,0.3-0.1,0.5-0.1l0.5-0.1l0.5-0.2
			l0.1-0.1l0.2-0.1c0.1,0,0.1-0.1,0.1-0.1l0.1-0.1v0.1c-0.1,0.1-0.1,0.2-0.1,0.3s0,0.1,0.1,0.1c0,0,0.1,0.1,0.1,0.1
			c0.1,0,0.1,0.1,0.1,0.1h0.2h0.1l0.2-0.1c0.1,0,0.1-0.1,0.2-0.1s0.1-0.1,0.2-0.1l0.1-0.1l0.1-0.1l0.1-0.1l0.1-0.1l0.1-0.1l0,0v0.1
			v0.1l0.1,0.1l0.1,0.1c0,0,0.1,0,0.1,0.1h0.1c0.1,0,0.2,0,0.3-0.1c0.1,0,0.3-0.1,0.3-0.1c0.1-0.1,0.3-0.1,0.3-0.2l0.3-0.1v0.1v0.1
			l0,0v0.1v0.1v0.1v0.2v0.1c0,0.1,0.1,0.1,0.1,0.1s0.1,0.1,0.1,0.1l0,0h0.1h0.1h0.1c0,0,0.1,0,0.1-0.1v-0.1v-0.1v-0.1v-0.1v-0.1
			v-0.1c0-0.1,0-0.1,0.1-0.1l0.1-0.1c0,0,0.1-0.1,0.1-0.1l0.1-0.1c0.1-0.1,0.1-0.1,0.2-0.1l0.3-0.1l0.3-0.1h0.2h0.1h0.2h0.1
			c0,0,0.1,0,0.1-0.1C17.8,38.9,17.8,38.8,17.8,38.7C17.9,38.8,17.8,38.7,17.8,38.7L17.8,38.7L17.8,38.7L17.8,38.7z M13.9,38.8v0.1
			V39c0,0.1-0.1,0.1-0.1,0.1l-0.2,0.2l-0.2,0.2l-0.2,0.1l-0.2,0.1c-0.1,0-0.1,0.1-0.1,0.1h-0.1c0,0-0.1,0-0.1-0.1v-0.1
			c0-0.1,0.1-0.1,0.1-0.1s0.1-0.1,0.1-0.1l0.1-0.1l0.3-0.3c0.1-0.1,0.1-0.1,0.3-0.1c0.1-0.1,0.1-0.1,0.2-0.1L13.9,38.8L13.9,38.8
			C13.9,38.7,13.9,38.7,13.9,38.8C13.9,38.7,13.9,38.7,13.9,38.8L13.9,38.8L13.9,38.8L13.9,38.8C13.9,38.9,13.9,38.8,13.9,38.8z
			 M18.6,38.3L18.6,38.3h0.1h0.1c0,0,0.1,0,0.1-0.1l0.1-0.1c0,0,0.1-0.1,0.1-0.1v-0.1c0,0,0-0.1-0.1-0.1l-0.1-0.1h-0.1h-0.1
			c-0.1,0-0.1,0-0.2,0.1s0.1,0.1,0.1,0.2v0.1v0.1L18.6,38.3L18.6,38.3C18.5,38.3,18.6,38.3,18.6,38.3z"/>
		<path style="fill:#FFE700;" d="M35.3,39.5L35.3,39.5h-0.1c-0.1,0-0.1,0.1-0.2,0.1l-0.1,0.1h-0.1h-0.2c-0.1,0-0.2,0-0.3-0.1
			c-0.1,0-0.1-0.1-0.2-0.1s-0.1-0.1-0.1-0.2v-0.2V39c0,0,0-0.1,0.1-0.1v-0.1l0,0l0,0c0,0,0-0.1-0.1-0.1h-0.1h-0.2l-0.2,0.1l-0.1,0.1
			l-0.1,0.1c-0.1,0-0.1,0.1-0.1,0.1l-0.2,0.1c-0.1,0.1-0.1,0.1-0.2,0.1l-0.1,0.1v-0.1v-0.1v-0.1c0-0.1,0-0.1,0.1-0.2
			c0,0,0-0.1,0.1-0.1v-0.1v-0.1v-0.1v-0.1v-0.1v-0.1h-0.1h-0.1h-0.1c-0.1,0-0.1,0-0.1,0.1l-0.1,0.1v0.1l0,0L31.9,39
			c-0.1,0.1-0.3,0.2-0.5,0.3l-0.2,0.1h-0.1h-0.1l-0.1-0.1c0-0.1,0-0.1-0.1-0.1V39v-0.1l0.1-0.1c0,0,0-0.1,0.1-0.1v-0.1
			c0,0,0-0.1-0.1-0.1l-0.1-0.1l0,0h-0.1l0,0l0,0l-0.1-0.1h-0.1h-0.1c-0.1,0-0.3,0-0.5,0.1c-0.1,0-0.3,0.1-0.4,0.1s-0.2,0.1-0.3,0.2
			L29.1,39l-0.1,0.1l-0.5,0.3l-0.4,0.2c-0.1,0-0.1,0.1-0.3,0.1l-0.3,0.1c-0.1,0-0.2,0.1-0.3,0.1h-0.3c-0.1,0-0.3,0-0.4-0.1
			c-0.1-0.1-0.1-0.1-0.1-0.2l0.3-0.1l0.3-0.1l0.3-0.1c0.1-0.1,0.1-0.1,0.2-0.1l0.1-0.1v-0.1c0-0.1,0-0.1-0.1-0.1
			c0,0-0.1-0.1-0.1-0.1h-0.1h-0.1h-0.1h-0.1h-0.1h-0.1l-0.1,0.1c-0.1,0-0.1,0.1-0.1,0.1c-0.2,0.1-0.3,0.3-0.4,0.4
			c-0.1,0.1-0.1,0.2-0.1,0.3L26,39.4l-0.3,0.1l-0.3,0.1l-0.3,0.1l-0.1,0.1l0,0c0,0,0.1-0.1,0.1-0.1l0.1-0.1l0.1-0.1l0.1-0.1
			c0-0.1,0.1-0.1,0.1-0.1V39c0-0.1,0-0.1-0.1-0.1s-0.1-0.1-0.2-0.1c-0.1,0-0.1,0-0.2-0.1c-0.1,0-0.2,0-0.3,0.1
			c-0.1,0-0.3,0.1-0.4,0.1l-0.5,0.2c-0.1,0.1-0.2,0.1-0.4,0.3l0,0v-0.1v-0.1v-0.1v-0.1v-0.1v-0.1v-0.1c0-0.1,0.1-0.1,0.1-0.2
			l0.1-0.2l0.1-0.2v-0.2v-0.1v-0.1c0,0,0-0.1-0.1-0.1c0,0-0.1-0.1-0.1-0.1l0,0c-0.1,0-0.1,0.1-0.1,0.1c-0.1,0,0.1,0.3,0.1,0.3
			l-0.1,0.1l-0.1,0.1l-0.1,0.1l-0.1,0.1l-0.1,0.4c-0.1,0.1-0.1,0.1-0.1,0.2c-0.1,0.1-0.2,0.1-0.3,0.2c-0.1,0.1-0.3,0.1-0.4,0.3
			L22,39.7c0,0,0-0.1,0.1-0.1c0.1-0.1,0.1-0.1,0.1-0.1s0.1-0.1,0.1-0.1v-0.1v-0.1c0-0.1-0.1-0.1-0.1-0.1c0,0-0.1-0.1-0.1-0.1
			c-0.1-0.1-0.3,0-0.5,0c-0.1,0.1-0.3,0.1-0.4,0.1s-0.3,0.1-0.4,0.3l-0.3,0.2l0.1-0.2c0-0.1,0.1-0.1,0.1-0.3l0.1-0.2l0.1-0.1
			c0-0.1,0.1-0.1,0.1-0.1l0.1-0.1l0.1-0.1v-0.1c0-0.1-0.1-0.2-0.1-0.2h-0.1c0,0-0.1,0-0.1,0.1l-0.1,0.1c0,0.1-0.1,0.1-0.1,0.1
			l-0.1,0.1l-0.1,0.2l-0.1,0.2l-0.1,0.2c0,0.1,0,0.1-0.1,0.1l-0.1,0.1L20,39.3l-0.1,0.1l-0.1,0.1l-0.5,0.3c-0.1,0.1-0.2,0.1-0.3,0.1
			l-0.3,0.1h-0.2h-0.1c0,0-0.1,0-0.1-0.1s0-0.1-0.1-0.1v-0.1v-0.1c0-0.1,0-0.1,0.1-0.1c0-0.1,0-0.1,0.1-0.1c0-0.1,0.1-0.1,0.1-0.1
			l0.1-0.1v-0.1c0-0.1-0.1-0.1-0.1-0.1h-0.2h-0.1l-0.1,0.1l-0.1,0.1v0.1V39v0.1v0.1v0.1v0.1v0.1v0.2v0.2V40c0,0.1,0.1,0.1,0.1,0.1
			c0.1,0,0.1,0.1,0.2,0.1h0.2h0.3c0.1,0,0.3-0.1,0.3-0.1l0.4-0.2l0.5-0.3c0.1,0,0.1-0.1,0.1-0.1v0.1l-0.1,0.1v0.1v0.1l0,0h0.1h0.1
			l0,0L20.3,40l0,0c0,0,0,0.1,0.1,0.1c0,0,0.1,0.1,0.1,0.1l0.1,0.1h0.1H21l0.3-0.1l0,0h0.1l0.2-0.1c0.1,0,0.2-0.1,0.3-0.1l0.3-0.1
			l0.3-0.1l0.3-0.1c0.1-0.1,0.3-0.1,0.3-0.2l0.3-0.2l0,0l-0.1,0.2v0.1v0.1v0.1v0.1v0.1v0.1v0.1V40v0.1h0.1c0,0,0,0.1,0.1,0.1
			l0.1,0.1l0.1,0.1h0.1h0.1h0.1h0.1H24h0.1l0.2-0.1l0.2-0.1l0.3-0.1l0.2-0.1l0.3-0.1l0.3-0.1l0.1-0.1l0.2-0.1l0.2-0.1l0.2-0.1h0.1
			c0,0.1,0.1,0.3,0.2,0.3c0.1,0.1,0.3,0.1,0.6,0.1l0,0c0.1,0,0.3,0,0.4-0.1c0.1,0,0.3-0.1,0.4-0.1l0.4-0.1l0.4-0.2l0.1-0.1
			c0,0.1-0.1,0.1-0.1,0.2c0,0.1,0,0.1,0.1,0.1c0,0,0.1,0.1,0.1,0.1s0.1,0.1,0.1,0.1h0.2h0.1l0.2-0.1l0.2-0.1
			c0.1-0.1,0.1-0.1,0.2-0.1l0.1-0.1l0.1-0.1l0.1-0.1l0.1-0.1l0.1-0.1l0,0v0.1v0.1l0.1,0.1l0.1,0.1c0,0,0.1,0,0.1,0.1h0.1
			c0.1,0,0.2,0,0.3-0.1c0.1,0,0.3-0.1,0.3-0.1c0.1-0.1,0.3-0.1,0.3-0.2l0.3-0.2l0,0c0,0.1,0,0.2-0.1,0.3l-0.1,0.2v0.1v0.1v0.1v0.1
			v0.1l0.1,0.1H32h0.1h0.1h0.1c0,0,0.1,0,0.1-0.1l0.1-0.1c0,0,0.1-0.1,0.1-0.1l0.1-0.1l0.2-0.1l0.2-0.1l0.2-0.1l0.1-0.1
			c0,0.1,0,0.2,0.1,0.3c0.1,0.1,0.1,0.2,0.2,0.3c0.1,0.1,0.2,0.1,0.3,0.1c0.1,0,0.3,0.1,0.4,0.1h0.4c0.1,0,0.2-0.1,0.3-0.1
			s0.1-0.1,0.2-0.1s0.1-0.1,0.1-0.1L35.3,39.5L35.3,39.5L35.3,39.5L35.3,39.5L35.3,39.5L35.3,39.5z M21.9,39.3c0,0-0.1,0.1-0.1,0.1
			s-0.1,0.1-0.1,0.1l-0.1,0.1l-0.1,0.1c0,0-0.1,0.1-0.1,0.1L21.3,40h-0.2h-0.2h-0.3c0,0-0.1,0-0.1-0.1s0.1-0.1,0.1-0.1l0.2-0.2
			c0.1-0.1,0.1-0.1,0.3-0.2c0.1-0.1,0.2-0.1,0.3-0.1c0.1-0.1,0.2-0.1,0.3-0.1c0.1,0,0.2-0.1,0.3-0.1h0.1v0.1L21.9,39.3
			C21.9,39.3,21.9,39.3,21.9,39.3z M24.9,39.4l-0.1,0.1l-0.1,0.1l-0.1,0.1c-0.1,0-0.1,0.1-0.1,0.1l-0.1,0.1c-0.1,0-0.1,0.1-0.2,0.1
			L23.9,40h-0.1h-0.1l0,0l0,0l0,0v-0.1l0,0v-0.1c0,0,0-0.1,0.1-0.1l0.1-0.1l0.1-0.1l0.1-0.1l0.1-0.1c0,0,0.1-0.1,0.1-0.1l0.1-0.1
			l0.1-0.1l0.1-0.1c0,0,0.1,0,0.1-0.1l0.1-0.1l0.2-0.1h0.1l0,0h0.1h0.1l0,0v0.1c0,0-0.1,0.1-0.1,0.1C25.1,39.3,24.9,39.4,24.9,39.4z
			 M26.7,39.3L26.7,39.3c0-0.1,0-0.1,0.1-0.1c0,0,0-0.1,0.1-0.1c0.1-0.1,0.1-0.1,0.3-0.2c0.1-0.1,0.1-0.1,0.3-0.1h0.1l0,0v0.1
			l-0.1,0.1L27.2,39c-0.1,0-0.1,0.1-0.1,0.1c-0.1,0-0.1,0.1-0.2,0.1C26.9,39.1,26.7,39.3,26.7,39.3z M30.3,38.8c0,0.1,0,0.1-0.1,0.1
			V39c0,0.1-0.1,0.1-0.1,0.1L30,39.3l-0.2,0.2l-0.2,0.1l-0.2,0.1c-0.1,0-0.1,0.1-0.1,0.1h-0.1c0,0-0.1,0-0.1-0.1v-0.1
			c0-0.1,0.1-0.1,0.1-0.1c0,0,0.1-0.1,0.1-0.1l0.1-0.1l0.3-0.3c0.1-0.1,0.1-0.1,0.3-0.1c0.1-0.1,0.1-0.1,0.2-0.1h0.2l0,0
			C30.3,38.7,30.3,38.7,30.3,38.8L30.3,38.8C30.3,38.8,30.3,38.8,30.3,38.8z M45.4,38.2h0.2c0.1,0,0.2,0,0.3-0.1s0.1-0.1,0.1-0.2
			c0-0.1,0-0.1-0.1-0.1h-0.2h-0.1c-0.1,0-0.1,0.1-0.2,0.1c-0.1,0.1-0.1,0.1-0.1,0.1C45.2,38.1,45.3,38.2,45.4,38.2z"/>
		<path style="fill:#FFE700;" d="M52.1,39.4c-0.1,0-0.1,0.1-0.1,0.1l-0.1,0.1l-0.1,0.1l-0.2,0.1l-0.2,0.1l-0.2,0.1H51
			c-0.1,0-0.3-0.1-0.3-0.1s-0.1-0.2-0.1-0.4v-0.1v-0.1v-0.1l0.1-0.1l0.1-0.5c0.1-0.1,0.1-0.3,0.1-0.3l0,0l0,0c0,0,0-0.1-0.1-0.1
			h-0.1c-0.1,0-0.1,0-0.1,0.1c-0.1,0-0.1,0.1-0.1,0.1l-0.1,0.2l-0.1,0.3l0.1,0.1l-0.1,0.3L50,39.1l-0.2,0.2l-0.2,0.1l-0.2,0.1
			l-0.2,0.1h-0.1c-0.1,0-0.1,0-0.1-0.1c0,0-0.1-0.1-0.1-0.1s-0.1-0.1-0.1-0.1v-0.1v-0.1c0,0,0-0.1,0.1-0.1c0,0,0-0.1,0.1-0.1v-0.1
			v-0.1l0,0l0,0c0-0.1-0.1-0.1-0.1-0.1c-0.1,0-0.1-0.1-0.2-0.1h-0.3H48c-0.1,0-0.1,0.1-0.2,0.1l-0.2,0.1c-0.1,0-0.1,0.1-0.1,0.1
			l-0.1,0.1l0,0h-0.1l-0.2,0.1l-0.2,0.1l-0.3,0.1l-0.3,0.1l-0.3,0.1c-0.1,0.1-0.3,0.1-0.4,0.1s-0.2-0.1-0.2-0.1
			c-0.1-0.1-0.1-0.2-0.1-0.3v-0.1l0.1-0.2v-0.1v-0.1c0-0.1,0-0.1-0.1-0.1s-0.2,0-0.3,0.1c-0.1,0-0.1,0.1-0.1,0.1L44.8,39l-0.3,0.1
			l-0.3,0.2l-0.3,0.1l-0.3,0.1c-0.1,0-0.2,0.1-0.3,0.1l-0.3,0.1h-0.3h-0.1l-0.1-0.1l-0.1-0.1v-0.1v-0.1c0-0.1,0-0.1,0.1-0.1l0.1-0.1
			c0-0.1,0.1-0.1,0.1-0.1l0.1-0.1l0.1-0.1c0.1,0,0.1-0.1,0.1-0.1h0.1c0,0,0.1,0,0.1,0.1c0,0,0.1,0.1,0.1,0.1v0.1c0,0.1,0,0,0.1,0.1
			h0.1h0.1h0.1c0,0,0.1,0,0.1-0.1v-0.1v-0.1v-0.1c0,0,0-0.1-0.1-0.1l-0.1-0.1l-0.1-0.1c0,0-0.1-0.1-0.1-0.1H43l-0.2,0.1
			c-0.1,0-0.1,0.1-0.1,0.1l-0.1,0.1l-0.1,0.1h-0.1h-0.2H42h-0.5l-0.3-0.1L41,38.7h-0.1h-0.1c0,0-0.1-0.1-0.1-0.1c0,0-0.1,0-0.1-0.1
			h-0.3L40,38.6c-0.1,0-0.1,0.1-0.2,0.1s-0.1,0.1-0.2,0.1h-0.1l0,0l-0.1,0.1l-0.1,0.1l-0.2,0.1l-0.3,0.1l-0.2,0.1l-0.3,0.1l-0.2,0.1
			h-0.1L38,39.5l-0.1-0.1l-0.1-0.1c0-0.1-0.1-0.1-0.1-0.1c-0.1-0.1-0.1-0.1-0.1-0.1h0.1c0,0,0.1,0,0.1-0.1l0.1-0.1l0.1-0.1l0,0
			l0.1-0.1c0.1-0.1,0.1-0.1,0-0.2c0-0.1-0.1-0.1-0.1-0.1s-0.2,0.1-0.3,0.1s-0.2,0.1-0.3,0.1s-0.1,0.1-0.1,0.1
			c-0.1,0.1-0.1,0.1-0.1,0.1c-0.1,0.1-0.1,0.1-0.1,0.2s0,0.1,0.1,0.2l0.1,0.1l0.1,0.1c0.1,0.1,0.1,0.1,0.1,0.2c0,0.1,0,0.1-0.1,0.1
			l-0.4,0.1c-0.1,0-0.3,0.1-0.4,0.1c-0.1,0.1-0.1,0.1-0.1,0.2c0,0.1,0.1,0.1,0.1,0.1h0.1c0.1,0,0.3-0.1,0.5-0.1l0.3-0.1l0.3-0.1
			l0.2-0.1l0.2-0.1l0.2-0.1l0.2-0.1h0.1v0.2c0,0,0,0.1,0.1,0.1l0.1,0.1l0.1,0.1c0.1,0,0.1,0.1,0.2,0.1h0.3h0.3l0.3-0.1l0.2-0.1
			c0.1-0.1,0.2-0.1,0.3-0.2c0.1-0.1,0.2-0.1,0.3-0.3c0.1-0.1,0.1-0.2,0.1-0.3v-0.1l0.3,0.1h0.4h0.4h0.1c-0.1,0.1-0.1,0.3-0.1,0.4
			l0,0v0.2c0,0.1,0.1,0.1,0.1,0.1c0.1,0.1,0.1,0.1,0.2,0.1c0.1,0,0.2,0.1,0.3,0.1h0.3l0.3-0.1l0.3-0.1l0.3-0.1l0.4-0.2l0.4-0.2
			l0.3-0.2v0.1c0,0.1,0,0.3,0.1,0.3c0.1,0.1,0.1,0.2,0.3,0.3c0.1,0.1,0.3,0.1,0.5,0.1s0.4-0.1,0.6-0.1l0.3-0.1l0.3-0.1H47v0.1v0.1
			c0,0.1,0,0.1,0.1,0.1s0.1,0.1,0.1,0.1s0.1,0.1,0.1,0.1h0.1c0.1,0,0.2,0,0.3-0.1c0.1,0,0.2-0.1,0.3-0.1c0.1-0.1,0.2-0.1,0.3-0.2
			c0.1-0.1,0.1-0.1,0.2-0.2l0,0c0,0.1,0.1,0.1,0.1,0.1c0,0.1,0.1,0.1,0.1,0.1c0.1,0,0.1,0.1,0.1,0.1h0.2h0.2l0.3-0.1
			c0.1-0.1,0.2-0.1,0.3-0.1s0.2-0.1,0.3-0.2c0.1,0,0.1-0.1,0.1-0.1v0.1c0,0.1,0.1,0.2,0.1,0.3c0,0.1,0.1,0.1,0.1,0.2
			c0.1,0.1,0.1,0.1,0.3,0.1c0.1,0,0.2,0.1,0.3,0.1h0.3c0.1,0,0.2-0.1,0.3-0.1l0.3-0.1l0.2-0.1c0,0,0.1,0,0.1-0.1l0.1-0.1l0.1-0.1
			C52.2,39.5,52.2,39.5,52.1,39.4C52.2,39.5,52.2,39.4,52.1,39.4L52.1,39.4L52.1,39.4L52.1,39.4z M40.7,39.3
			C40.7,39.3,40.7,39.3,40.7,39.3l-0.1,0.1l-0.1,0.1l-0.1,0.1l-0.1,0.1l-0.1,0.1c-0.1,0-0.1,0.1-0.2,0.1c-0.1,0-0.1,0-0.1,0.1h-0.1
			h-0.2h-0.1c0,0-0.1,0-0.1-0.1c0,0-0.1,0-0.1-0.1v-0.1v-0.1v-0.1v-0.1c0-0.1,0.1-0.1,0.1-0.1l0.1-0.1l0.1-0.1L40,39l0.1-0.1
			c0,0,0.1,0,0.1-0.1h0.1h0.1h0.1l0.2,0.1l0,0l0,0h0.1l0.1,0.1l0.1,0.1C40.7,39.1,40.8,39.1,40.7,39.3L40.7,39.3L40.7,39.3
			C40.7,39.3,40.7,39.3,40.7,39.3z M48.4,39.2c-0.1,0.1-0.1,0.2-0.2,0.3l-0.1,0.1l-0.2,0.1c-0.1,0-0.1,0.1-0.2,0.1h-0.1h-0.1
			c0,0-0.1,0-0.1-0.1s0-0.1,0.1-0.2c0-0.1,0.1-0.1,0.1-0.2l0.1-0.2l0.2-0.1l0.1-0.1l0.1-0.1h0.1h0.1h0.1h0.1h0.1
			C48.5,39,48.5,39.1,48.4,39.2L48.4,39.2z"/>
	</g>
</g>
</svg>
