<?xml version="1.0"?>
<svg xmlns="http://www.w3.org/2000/svg" xmlns:xlink="http://www.w3.org/1999/xlink" xmlns:svgjs="http://svgjs.com/svgjs" version="1.1" width="512" height="512" x="0" y="0" viewBox="0 0 512 512" style="enable-background:new 0 0 512 512" xml:space="preserve" class=""><g>
<g xmlns="http://www.w3.org/2000/svg" id="XMLID_1237_">
	<g id="XMLID_984_">
		<g id="XMLID_985_">
			<g id="XMLID_986_">
				<g id="XMLID_987_">
					<g id="XMLID_988_">
						<g id="XMLID_989_">
							<g id="XMLID_990_">
								<g id="XMLID_991_">
									<g id="XMLID_992_">
										<g id="XMLID_993_">
											<g id="XMLID_994_">
												<g id="XMLID_995_">
													<g id="XMLID_996_">
														<circle id="XMLID_997_" style="" cx="256" cy="256" r="256" fill="#f1f1f1" data-original="#54e360" class=""/>
													</g>
												</g>
											</g>
										</g>
									</g>
								</g>
							</g>
						</g>
					</g>
				</g>
			</g>
		</g>
	</g>
	<g id="XMLID_1209_">
		<path id="XMLID_1255_" style="" d="M511.915,262.647L311.192,61.25c-15.418-16.49-38.818-25.229-76.731-20.484    c-55.946,7.003-94.446,61.003-120.446,162.003c-17.876,69.442-28.167,165.955,32.459,218.101l90.422,90.422    C243.204,511.757,249.573,512,256,512C395.162,512,508.389,400.96,511.915,262.647z" fill="#f1f1f1" data-original="#00c379" class=""/>
		<g id="XMLID_1062_">
			<path id="XMLID_686_" style="" d="M234.461,40.766c-55.946,7.003-94.446,61.003-120.446,162.003     s-35.955,259.268,165,255c141.249-3,171-129,99.003-218.283C322.663,170.842,366.326,24.26,234.461,40.766z" fill="#ae774e" data-original="#ae774e" class=""/>
			<path id="XMLID_1087_" style="" d="M279.01,457.77c-12.72,0.27-24.6-0.11-35.68-1.1V39.89     c121.03-8.89,80.61,132.54,134.69,199.6C450.01,328.77,420.26,454.77,279.01,457.77z" fill="#715539" data-original="#715539" class=""/>
			<path id="XMLID_7_" style="" d="M236.015,59.769c-44.321,6.13-82.432,60.318-103.03,148.723     c-20.597,88.406-28.304,231.943,145.696,227.277c111.889-3.001,158.667-88,74.397-195.138     C302.771,176.671,340.479,45.321,236.015,59.769z" fill="#ffdba9" data-original="#ffdba9" class=""/>
			<path id="XMLID_1085_" style="" d="M278.68,435.77c-12.73,0.34-24.49-0.11-35.35-1.28V58.98     c95.38-7.35,60.66,119.23,109.75,181.65C437.35,347.77,390.57,432.77,278.68,435.77z" fill="#ffc473" data-original="#ffc473" class=""/>
			<path id="XMLID_833_" style="" d="M231.108,195.622l-0.426-57.564l-42.272-28.089     c-17.342,24.179-31.623,59.639-41.662,102.729c-2.439,10.47-4.675,21.862-6.353,33.738h50.312L231.108,195.622z" fill="#ff3d62" data-original="#ff3d62" class=""/>
			<path id="XMLID_838_" style="" d="M266.94,326.787L239.492,210.84l-40.834,51.595h-60.132     C131.73,336.736,151.3,421.7,276.631,418.339c22.755-0.61,42.586-5.141,58.707-12.88l-19.062-39.236L266.94,326.787z" fill="#ff3d62" data-original="#ff3d62" class=""/>
			<path id="XMLID_1079_" style="" d="M335.34,405.46c-16.12,7.74-35.95,12.27-58.71,12.88     c-12.06,0.32-23.13-0.17-33.3-1.39V227.06l0.68,2.87l22.93,96.86l49.34,39.43L335.34,405.46z" fill="#e7001f" data-original="#e7001f" class=""/>
			<path id="XMLID_839_" style="" d="M247.044,185.382l63.797-22.626c-8.717-49.497-15.103-95.68-73.715-87.573     c-13.81,1.91-26.767,9.673-38.566,22.322l48.122,31.976L247.044,185.382z" fill="#ff3d62" data-original="#ff3d62" class=""/>
			<path id="XMLID_1077_" style="" d="M310.84,162.76l-42.51,15.07l-21.29,7.55l-0.13-20.72l-0.23-35.18l-3.35-2.23     V74.51C296.21,70.45,302.44,115.06,310.84,162.76z" fill="#e7001f" data-original="#e7001f" class=""/>
			<path id="XMLID_840_" style="" d="M339.746,243.165c-14.603-17.215-21.226-40.608-25.962-64.494l-60.412,21.426     l28.303,117.986l47.412,37.898l20.116,41.403C391.419,367.693,396.121,309.624,339.746,243.165z" fill="#e7001f" data-original="#e7001f" class=""/>
			<ellipse id="XMLID_19_" style="" cx="243.328" cy="197.185" rx="30.98" ry="32.75" fill="#ffffff" data-original="#ffffff" class=""/>
			<path id="XMLID_1078_" style="" d="M274.31,197.19c0,17.84-13.5,32.36-30.3,32.74c-0.23,0.01-0.45,0.01-0.68,0.01     v-65.5c1.21,0,2.41,0.07,3.58,0.22c8.78,1.06,16.44,6.01,21.42,13.17C272.08,183.25,274.31,189.94,274.31,197.19z" fill="#fff5cb" data-original="#fff5cb" class=""/>
		</g>
	</g>
</g>















</g></svg>
