<?xml version="1.0"?>
<svg xmlns="http://www.w3.org/2000/svg" xmlns:xlink="http://www.w3.org/1999/xlink" xmlns:svgjs="http://svgjs.com/svgjs" version="1.1" width="512" height="512" x="0" y="0" viewBox="0 0 512 512" style="enable-background:new 0 0 512 512" xml:space="preserve" class=""><g>
<circle xmlns="http://www.w3.org/2000/svg" style="" cx="256" cy="256" r="256" fill="#f1f1f1" data-original="#9cfdff" class=""/>
<path xmlns="http://www.w3.org/2000/svg" style="" d="M493.583,351.484l-73.373-73.148c-1.166-1.945-3.294-3.247-5.727-3.247h-3.728l-37.459-38.043  c-3.569-3.986-8.735-6.423-14.358-6.423h-16.586L202.618,91.572c-3.807-4.427-9.429-7.248-15.691-7.248h-72.094  c-11.408,0-20.741,9.333-20.741,20.741v85.507c0,5.859,2.47,11.16,6.415,14.936l43.348,43.298v178.87l82.619,82.619  C236.164,511.408,246.012,512,256,512C363.63,512,455.733,445.572,493.583,351.484z" fill="#f1f1f1" data-original="#00e8f2" class=""/>
<path xmlns="http://www.w3.org/2000/svg" style="" d="M206.379,300.544v-19.907c0-3.064-2.484-5.547-5.547-5.547h-13.315c-3.685,0-6.672,2.987-6.672,6.672  v7.768c0,3.685,2.987,6.672,6.672,6.672h14.739v8.465h8.764v-4.123H206.379z" fill="#ff7a53" data-original="#ff7a53"/>
<path xmlns="http://www.w3.org/2000/svg" style="" d="M395.621,300.544v-19.907c0-3.064,2.484-5.547,5.547-5.547h13.315c3.685,0,6.672,2.987,6.672,6.672  v7.768c0,3.685-2.987,6.672-6.672,6.672h-14.739v8.465h-8.764v-4.123H395.621z" fill="#ff3200" data-original="#ff3200"/>
<path xmlns="http://www.w3.org/2000/svg" style="" d="M228.661,427.676L228.661,427.676c-8.014,0-14.572-6.557-14.572-14.572v-29.978h29.143v29.978  C243.233,421.119,236.675,427.676,228.661,427.676z" fill="#57555c" data-original="#57555c" class=""/>
<path xmlns="http://www.w3.org/2000/svg" style="" d="M373.339,427.676L373.339,427.676c-8.014,0-14.572-6.557-14.572-14.572v-29.978h29.143v29.978  C387.911,421.119,381.353,427.676,373.339,427.676z" fill="#2a2a2c" data-original="#2a2a2c"/>
<path xmlns="http://www.w3.org/2000/svg" style="" d="M358.938,230.624H243.062c-8.755,0-16.412,5.899-18.644,14.366l-18.304,69.43h189.773l-18.304-69.43  C375.35,236.523,367.694,230.624,358.938,230.624z" fill="#ee2600" data-original="#ee2600" class=""/>
<path xmlns="http://www.w3.org/2000/svg" style="" d="M395.888,314.417H301v-83.793h57.941c8.75,0,16.407,5.898,18.643,14.364l18.135,68.794  L395.888,314.417z" fill="#a01700" data-original="#a01700"/>
<path xmlns="http://www.w3.org/2000/svg" style="" d="M380.455,301.946l-12.953-49.132c-1.579-5.991-6.997-10.166-13.193-10.166H247.691  c-6.196,0-11.614,4.175-13.193,10.166l-12.953,49.132H380.455z" fill="#ffffff" data-original="#ffffff" class=""/>
<path xmlns="http://www.w3.org/2000/svg" style="" d="M380.454,301.945H301V242.65h53.312c6.194,0,11.609,4.176,13.192,10.164L380.454,301.945z" fill="#fff5cb" data-original="#fff5cb"/>
<path xmlns="http://www.w3.org/2000/svg" style="" d="M414.714,336.145v49.147H187.289v-49.147c0-12.355,10.013-22.368,22.358-22.368h182.699  c0.131,0,0.253,0,0.384,0.009C404.907,313.983,414.714,323.921,414.714,336.145z" fill="#ff7a53" data-original="#ff7a53"/>
<path xmlns="http://www.w3.org/2000/svg" style="" d="M414.714,336.145v49.147H301.002v-71.506h91.729C404.907,313.983,414.714,323.921,414.714,336.145z" fill="#ff3200" data-original="#ff3200"/>
<circle xmlns="http://www.w3.org/2000/svg" style="" cx="228.66" cy="343.5" r="21.03" fill="#ee2600" data-original="#ee2600" class=""/>
<circle xmlns="http://www.w3.org/2000/svg" style="" cx="228.66" cy="343.5" r="14.572" fill="#ffffff" data-original="#ffffff" class=""/>
<circle xmlns="http://www.w3.org/2000/svg" style="" cx="373.34" cy="343.5" r="21.03" fill="#a01700" data-original="#a01700"/>
<circle xmlns="http://www.w3.org/2000/svg" style="" cx="373.34" cy="343.5" r="14.572" fill="#fff5cb" data-original="#fff5cb"/>
<path xmlns="http://www.w3.org/2000/svg" style="" d="M421.908,382.107v6.369c0,4.627-3.784,8.411-8.411,8.411h-224.99c-4.627,0-8.411-3.784-8.411-8.411  v-6.369c0-4.627,3.784-8.411,8.411-8.411h224.99C418.124,373.696,421.908,377.48,421.908,382.107z" fill="#ee2600" data-original="#ee2600" class=""/>
<path xmlns="http://www.w3.org/2000/svg" style="" d="M421.908,382.107v6.369c0,4.627-3.784,8.411-8.411,8.411H301.002v-23.192h112.495  C418.124,373.696,421.908,377.48,421.908,382.107z" fill="#a01700" data-original="#a01700"/>
<rect xmlns="http://www.w3.org/2000/svg" x="143.85" y="201.54" style="" width="14.05" height="226.13" fill="#57555c" data-original="#57555c" class=""/>
<rect xmlns="http://www.w3.org/2000/svg" x="150.88" y="201.54" style="" width="7.03" height="226.14" fill="#2a2a2c" data-original="#2a2a2c"/>
<path xmlns="http://www.w3.org/2000/svg" style="" d="M186.927,211.314h-72.094c-11.408,0-20.741-9.333-20.741-20.741v-85.507  c0-11.408,9.333-20.741,20.741-20.741h72.094c11.408,0,20.741,9.333,20.741,20.741v85.507  C207.668,201.98,198.335,211.314,186.927,211.314z" fill="#0088ff" data-original="#0088ff" class=""/>
<path xmlns="http://www.w3.org/2000/svg" style="" d="M207.67,105.07v85.5c0,11.41-9.34,20.74-20.74,20.74h-36.05V84.32h36.05  C198.33,84.32,207.67,93.66,207.67,105.07z" fill="#004eb1" data-original="#004eb1"/>
<path xmlns="http://www.w3.org/2000/svg" style="" d="M126.052,189.572v-83.506h35.402c3.841,0,7.39,0.805,10.644,2.411  c3.253,1.608,6.057,3.725,8.409,6.351c2.352,2.628,4.194,5.607,5.528,8.939c1.332,3.334,1.999,6.685,1.999,10.056  c0,3.528-0.629,6.959-1.882,10.291c-1.255,3.333-3.019,6.292-5.292,8.88c-2.275,2.588-5.019,4.666-8.233,6.234  c-3.216,1.569-6.744,2.352-10.585,2.352h-19.759v27.992L126.052,189.572L126.052,189.572z M142.282,147.348H161.1  c2.979,0,5.469-1.215,7.468-3.646c2-2.43,2.999-5.723,2.999-9.88c0-2.117-0.314-4.017-0.941-5.704  c-0.629-1.685-1.452-3.117-2.47-4.293c-1.02-1.176-2.216-2.058-3.587-2.646c-1.373-0.588-2.764-0.882-4.175-0.882h-18.113v27.051  H142.282z" fill="#ffffff" data-original="#ffffff" class=""/>
<path xmlns="http://www.w3.org/2000/svg" style="" d="M186.03,123.77c-1.33-3.33-3.17-6.31-5.52-8.94c-2.36-2.63-5.16-4.74-8.41-6.35  c-3.26-1.61-6.81-2.41-10.65-2.41h-10.57v14.23h9.51c1.42,0,2.81,0.29,4.18,0.88s2.57,1.47,3.59,2.65c1.02,1.17,1.84,2.6,2.47,4.29  c0.62,1.69,0.94,3.59,0.94,5.7c0,4.16-1,7.45-3,9.88c-2,2.43-4.49,3.65-7.47,3.65h-10.22v14.23h11.16c3.84,0,7.37-0.78,10.59-2.35  c3.21-1.57,5.95-3.65,8.23-6.24c2.27-2.58,4.04-5.54,5.29-8.88c1.26-3.33,1.88-6.76,1.88-10.29  C188.03,130.45,187.37,127.1,186.03,123.77z" fill="#fff5cb" data-original="#fff5cb"/>
<g xmlns="http://www.w3.org/2000/svg">
</g>
<g xmlns="http://www.w3.org/2000/svg">
</g>
<g xmlns="http://www.w3.org/2000/svg">
</g>
<g xmlns="http://www.w3.org/2000/svg">
</g>
<g xmlns="http://www.w3.org/2000/svg">
</g>
<g xmlns="http://www.w3.org/2000/svg">
</g>
<g xmlns="http://www.w3.org/2000/svg">
</g>
<g xmlns="http://www.w3.org/2000/svg">
</g>
<g xmlns="http://www.w3.org/2000/svg">
</g>
<g xmlns="http://www.w3.org/2000/svg">
</g>
<g xmlns="http://www.w3.org/2000/svg">
</g>
<g xmlns="http://www.w3.org/2000/svg">
</g>
<g xmlns="http://www.w3.org/2000/svg">
</g>
<g xmlns="http://www.w3.org/2000/svg">
</g>
<g xmlns="http://www.w3.org/2000/svg">
</g>
</g></svg>
