<?xml version="1.0" encoding="utf-8"?>
<svg version="1.1" id="Layer_1" xmlns="http://www.w3.org/2000/svg" xmlns:xlink="http://www.w3.org/1999/xlink" x="0px" y="0px"
	width="100px" height="100px" viewBox="0 0 100 100" style="enable-background:new 0 0 100 100;" xml:space="preserve">
<g>
	<path style="fill:#E8E8E8;" d="M50,0c27.61,0,50,22.39,50,50s-22.39,50-50,50S0,77.61,0,50S22.39,0,50,0"/>
	<path style="fill:#FFFFFF;" d="M50,1c27.06,0,49,21.94,49,49S77.06,99,50,99S1,77.06,1,50S22.94,1,50,1"/>
	<g transform="translate(-137.5,-22.390163)">
		<path id="path2998" style="fill:#1C252C;" d="M155,53.87v16.4h8.59c3.38,0,6.5-1.19,6.5-4.67c0-2.36-1.7-3.43-3.56-3.99
			c1.14-0.46,2.43-1.41,2.43-3.42c0-2.57-2.55-4.31-5.99-4.31H155L155,53.87z M160.26,57.68h1.93c0.79,0,1.39,0.62,1.39,1.24
			c0,0.58-0.62,1.2-1.39,1.2h-1.93V57.68L160.26,57.68z M160.26,63.54h2.55c0.89,0,1.64,0.68,1.64,1.45c0,0.82-0.7,1.5-1.79,1.5
			h-2.4V63.54L160.26,63.54z"/>
		<path id="path3005" style="fill:#1C252C;" d="M159.25,72.05v16.4h8.59c3.38,0,6.5-1.19,6.5-4.67c0-2.36-1.7-3.43-3.56-3.99
			c1.14-0.46,2.43-1.41,2.43-3.42c0-2.57-2.55-4.31-5.99-4.31H159.25L159.25,72.05z M164.52,75.87h1.93c0.79,0,1.39,0.62,1.39,1.24
			c0,0.58-0.62,1.2-1.39,1.2h-1.93V75.87L164.52,75.87z M164.52,81.73h2.55c0.89,0,1.64,0.68,1.64,1.45c0,0.82-0.7,1.5-1.79,1.5
			h-2.4V81.73L164.52,81.73z"/>
		<path id="path3007" style="fill:#1C252C;" d="M170.5,70.26v-16.4h13.23v3.96h-7.98v2.15h6.48v3.71h-6.48v2.63h7.98v3.95H170.5z"/>
		<path id="path3009" style="fill:#1C252C;" d="M190.9,70.73c3.72,0,6.7-2.12,6.7-5.57c0-5.55-7.23-4.7-7.23-6.43
			c0-0.67,0.7-1.02,1.42-1.02c1.24,0,2.14,0.82,2.14,0.82l3.11-2.96c-1.24-1.18-3.21-2.18-5.85-2.18c-3.97,0-6.57,2.36-6.57,5.2
			c0,5.63,7.12,4.81,7.12,6.57c0,0.62-0.6,1.24-1.67,1.24c-1.23,0-2.2-0.74-2.95-1.37l-3.13,2.98
			C185.25,69.25,187.27,70.73,190.9,70.73z"/>
		<path id="path3011" style="fill:#1C252C;" d="M201.65,70.26V57.81h-4.33v-3.95h13.93v3.95h-4.33v12.46H201.65z"/>
		<path id="path3013" style="fill:#1C252C;" d="M174.53,72.04h5.25v9.83c0,1,0.99,1.92,2.03,1.92c0.98,0,1.96-0.83,1.96-1.97v-9.77
			h5.23v9.71c0,3.85-3.2,6.92-7.33,6.92c-4.16,0-7.13-3.34-7.13-7.13V72.04z"/>
		<path id="path3015" style="fill:#1C252C;" d="M195.46,88.44v-5.86l-6.16-10.54h5.31l3.49,5.65l3.5-5.65h5.32l-6.19,10.6v5.8
			H195.46z"/>
		<path id="path3017" style="fill:#FFED31;" d="M206.91,81.02l-3.09,3.09v4.18l3.09,3.09H220V81.02H206.91z"/>
		<path id="path3024" style="fill:#1C252C;" d="M206.4,86.2c0,0.38-0.31,0.7-0.7,0.7s-0.7-0.31-0.7-0.7c0-0.38,0.31-0.7,0.7-0.7
			S206.4,85.82,206.4,86.2z"/>
	</g>
</g>
</svg>
