<?xml version="1.0"?>
<svg xmlns="http://www.w3.org/2000/svg" xmlns:xlink="http://www.w3.org/1999/xlink" xmlns:svgjs="http://svgjs.com/svgjs" version="1.1" width="512" height="512" x="0" y="0" viewBox="0 0 512 512" style="enable-background:new 0 0 512 512" xml:space="preserve" class=""><g>
<circle xmlns="http://www.w3.org/2000/svg" style="" cx="256" cy="256" r="256" fill="#f1f1f1" data-original="#273b7a" class=""/>
<path xmlns="http://www.w3.org/2000/svg" style="" d="M507.195,305.526L400.78,199.111l-7.156,1.436l-11.211-8.311l-16.129-2.098l-20.027,14.76  l-16.048,16.048v5.846l-24.429-27.036l-48.749-3.243l-20.246,14.665v16.665v108.247h16.627l-49.705,24.781l-118.375,37.35  L190.692,503.58C211.542,509.066,233.427,512,256,512C380.44,512,484.124,423.207,507.195,305.526z" fill="#f1f1f1" data-original="#121149" class=""/>
<rect xmlns="http://www.w3.org/2000/svg" x="85.333" y="312.889" style="" width="341.333" height="85.333" fill="#71e2ef" data-original="#71e2ef" class=""/>
<rect xmlns="http://www.w3.org/2000/svg" x="273.239" y="312.889" style="" width="153.428" height="85.333" fill="#38c6d9" data-original="#38c6d9"/>
<rect xmlns="http://www.w3.org/2000/svg" x="85.333" y="284.444" style="" width="341.333" height="28.444" fill="#02b2b2" data-original="#02b2b2"/>
<rect xmlns="http://www.w3.org/2000/svg" x="273.239" y="284.444" style="" width="153.428" height="28.444" fill="#386895" data-original="#386895"/>
<path xmlns="http://www.w3.org/2000/svg" style="" d="M369.778,186.613c-24.716,0-44.822,20.106-44.822,44.822v13.36h-83.609v-13.36  c0-18.061,14.693-32.754,32.754-32.754s32.754,14.693,32.754,32.754c0,3.332,2.701,6.034,6.034,6.034s6.034-2.701,6.034-6.034  c0-24.716-20.106-44.822-44.822-44.822s-44.822,20.106-44.822,44.822v77.576c0,3.332,2.701,6.034,6.034,6.034  s6.034-2.701,6.034-6.034v-23.704h83.609v23.704c0,3.332,2.701,6.034,6.034,6.034s6.034-2.701,6.034-6.034v-77.576  c0-18.061,14.693-32.754,32.754-32.754s32.754,14.693,32.754,32.754c0,3.332,2.701,6.034,6.034,6.034s6.034-2.701,6.034-6.034  C414.599,206.719,394.493,186.613,369.778,186.613z M241.347,273.239v-16.377h83.609v16.377H241.347z" fill="#ffc61b" data-original="#ffc61b"/>
<g xmlns="http://www.w3.org/2000/svg">
	<path style="" d="M274.101,198.68c18.061,0,32.754,14.693,32.754,32.754c0,3.332,2.701,6.034,6.034,6.034   s6.034-2.701,6.034-6.034c0-24.716-20.106-44.822-44.822-44.822c-0.29,0-0.574,0.017-0.862,0.022v12.09   C273.529,198.716,273.81,198.68,274.101,198.68z" fill="#eaa22f" data-original="#eaa22f" class=""/>
	<path style="" d="M369.778,186.613c-24.716,0-44.822,20.106-44.822,44.822v13.36h-51.717v12.067h51.717v16.377   h-51.717v12.067h51.717v23.704c0,3.332,2.701,6.034,6.034,6.034s6.034-2.701,6.034-6.034v-77.576   c0-18.061,14.693-32.754,32.754-32.754s32.754,14.693,32.754,32.754c0,3.332,2.701,6.034,6.034,6.034s6.034-2.701,6.034-6.034   C414.599,206.719,394.493,186.613,369.778,186.613z" fill="#eaa22f" data-original="#eaa22f" class=""/>
</g>
<g xmlns="http://www.w3.org/2000/svg">
</g>
<g xmlns="http://www.w3.org/2000/svg">
</g>
<g xmlns="http://www.w3.org/2000/svg">
</g>
<g xmlns="http://www.w3.org/2000/svg">
</g>
<g xmlns="http://www.w3.org/2000/svg">
</g>
<g xmlns="http://www.w3.org/2000/svg">
</g>
<g xmlns="http://www.w3.org/2000/svg">
</g>
<g xmlns="http://www.w3.org/2000/svg">
</g>
<g xmlns="http://www.w3.org/2000/svg">
</g>
<g xmlns="http://www.w3.org/2000/svg">
</g>
<g xmlns="http://www.w3.org/2000/svg">
</g>
<g xmlns="http://www.w3.org/2000/svg">
</g>
<g xmlns="http://www.w3.org/2000/svg">
</g>
<g xmlns="http://www.w3.org/2000/svg">
</g>
<g xmlns="http://www.w3.org/2000/svg">
</g>
</g></svg>
