<?xml version="1.0" encoding="utf-8"?>
<svg version="1.1" id="Layer_1" xmlns="http://www.w3.org/2000/svg" xmlns:xlink="http://www.w3.org/1999/xlink" x="0px" y="0px"
	 viewBox="0 0 743.69 172.02" style="enable-background:new 0 0 743.69 172.02;" xml:space="preserve">
<g>
	<path style="fill:#D20A11;" d="M76.85,101.42c0,17.79-9.37,35.76-38.7,35.76C13.76,137.18,0,123.61,0,99.04v-8.07h17.42v5.5
		c0,15.22,4.04,26.05,21.1,26.05c15.94,0,20.9-9.18,20.9-23.66V3.12h17.43V101.42z"/>
	<path style="fill:#D20A11;" d="M184.13,42.55c-3.67-18.52-18.52-27.88-36.68-27.88c-31.18,0-44.38,25.67-44.38,53.01
		c0,29.89,13.21,54.83,44.56,54.83c22.94,0,36.13-16.14,37.78-37.78h17.42c-3.3,32.65-23.66,52.45-56.67,52.45
		c-40.71,0-60.52-30.08-60.52-68.22C85.64,30.99,107.28,0,147.63,0c27.33,0,49.89,14.67,53.92,42.55L184.13,42.55L184.13,42.55z"/>
	<path style="fill:#D20A11;" d="M210.28,3.11h57.41c26.04,0,40.15,14.49,40.15,38.69c0,24.21-14.11,38.89-40.15,38.71h-39.98v53.56
		h-17.43L210.28,3.11L210.28,3.11z M227.71,65.84h34.11c19.63,0.18,28.61-8.44,28.61-24.03c0-15.59-8.98-24.02-28.61-24.02h-34.1
		L227.71,65.84L227.71,65.84z"/>
	<path style="fill:#D20A11;" d="M390.01,103.98c-4.23,20.92-19.26,32.29-40.54,32.29c-30.26,0-44.56-20.92-45.49-49.89
		c0-28.42,18.71-49.33,44.57-49.33c33.55,0,43.83,31.37,42.92,54.28H320.5c-0.55,16.5,8.81,31.18,29.52,31.18
		c12.85,0,21.83-6.24,24.58-18.53H390.01z M374.97,77.57c-0.74-14.86-11.92-26.76-27.32-26.76c-16.33,0-26.04,12.28-27.15,26.77
		L374.97,77.57L374.97,77.57z"/>
	<path style="fill:#D20A11;" d="M398.49,39.24h14.67v15.04h0.37c6.6-11.73,17.23-17.23,30.81-17.23c24.94,0,32.64,14.31,32.64,34.66
		v62.36H461.4V69.87c0-11.56-7.34-19.07-19.26-19.07c-18.89,0-28.05,12.65-28.05,29.7v53.56h-15.6V39.24z"/>
	<path style="fill:#D20A11;" d="M487.27,39.24h14.67v15.04h0.36c6.6-11.73,17.24-17.23,30.81-17.23c24.94,0,32.66,14.31,32.66,34.66
		v62.36h-15.6V69.87c0-11.56-7.34-19.07-19.25-19.07c-18.88,0-28.06,12.65-28.06,29.7v53.56h-15.58L487.27,39.24L487.27,39.24z"/>
	<path style="fill:#D20A11;" d="M658.91,103.98c-4.2,20.92-19.26,32.29-40.51,32.29c-30.27,0-44.56-20.92-45.48-49.89
		c0-28.42,18.7-49.33,44.55-49.33c33.56,0,43.83,31.37,42.91,54.28h-70.97c-0.55,16.5,8.8,31.18,29.54,31.18
		c12.82,0,21.81-6.24,24.56-18.53H658.91z M643.89,77.57c-0.74-14.86-11.93-26.76-27.32-26.76c-16.32,0-26.05,12.28-27.15,26.77
		L643.89,77.57L643.89,77.57z"/>
	<path style="fill:#D20A11;" d="M664.11,170.36v-14.3c2.92,0.92,6.05,2.2,9.17,2.2c6.42,0,9.9-3.11,12.83-8.62l6.42-16.14
		l-37.6-94.26h17.6l27.68,77.58h0.38l26.59-77.58h16.5l-41.26,107.46c-7.15,18.53-13.57,25.31-27.51,25.31"/>
</g>
</svg>
