<?xml version="1.0" encoding="utf-8"?>
<svg version="1.1" id="Layer_1" xmlns="http://www.w3.org/2000/svg" xmlns:xlink="http://www.w3.org/1999/xlink" x="0px" y="0px"
	width="100px" height="100px" viewBox="0 0 72.2 70.4" style="enable-background:new 0 0 72.2 70.4;" xml:space="preserve">
<g>
	<path style="fill:#1B1F23;" d="M36.1,0C16.2,0,0,16.2,0,36.1C0,52,10.3,65.5,24.7,70.3c1.8,0.3,2.5-0.8,2.5-1.7l-0.1-6.7
		c-9.1,1.7-11.4-2.2-12.1-4.3c-0.4-1-2.2-4.3-3.7-5.1c-1.2-0.6-3-2.4-0.1-2.4c2.8-0.1,4.8,2.6,5.6,3.7c3.2,5.5,8.4,3.9,10.5,3
		c0.3-2.4,1.2-3.9,2.3-4.8c-8-0.9-16.4-4-16.4-17.8c0-3.9,1.4-7.1,3.7-9.7c-0.4-0.9-1.7-4.6,0.4-9.6c0,0,3-0.9,10,3.7
		c2.9-0.8,6-1.2,9-1.2s6.1,0.4,9,1.2c6.9-4.7,9.9-3.7,9.9-3.7c1.9,5,0.7,8.7,0.4,9.6c2.2,2.6,3.7,5.8,3.7,9.7
		c0,13.9-8.4,16.9-16.5,17.8c1.3,1.2,2.5,3.3,2.5,6.6l-0.1,10c0,0.9,0.6,2.1,2.5,1.7C61.8,65.6,72.2,52,72.2,36.1
		C72.2,16.2,56,0,36.1,0z"/>
</g>
</svg>
