<?xml version="1.0"?>
<svg xmlns="http://www.w3.org/2000/svg" xmlns:xlink="http://www.w3.org/1999/xlink" xmlns:svgjs="http://svgjs.com/svgjs" version="1.1" width="512" height="512" x="0" y="0" viewBox="0 0 512 512" style="enable-background:new 0 0 512 512" xml:space="preserve" class=""><g><circle xmlns="http://www.w3.org/2000/svg" cx="256" cy="256" fill="#f1f1f1" r="256" data-original="#b47bff" style="" class=""/><path xmlns="http://www.w3.org/2000/svg" d="m505.791 312.292-266.791-266.792-67.905 26.476v63.666l-99.595 18.358 133.815 133.814-95.719 129.887 87.486 87.485c18.916 4.457 38.641 6.814 58.918 6.814 122.045 0 224.143-85.404 249.791-199.708z" fill="#f1f1f1" data-original="#8c5adb" style="" class=""/><path xmlns="http://www.w3.org/2000/svg" d="m244.404 417.701h-134.808l-31.596-289.701h198z" fill="#dbeeff" data-original="#dbeeff" style="" class=""/><path xmlns="http://www.w3.org/2000/svg" d="m276 128h-98.193v289.701h66.597z" fill="#a3d4ff" data-original="#a3d4ff" style="" class=""/><path xmlns="http://www.w3.org/2000/svg" d="m104.286 226.608 17.892 164.054h109.644l17.892-164.054z" fill="#fe6a16" data-original="#fe6a16" style="" class=""/><path xmlns="http://www.w3.org/2000/svg" d="m249.714 226.608h-71.907v164.054h54.015z" fill="#f24500" data-original="#f24500" style="" class=""/><path xmlns="http://www.w3.org/2000/svg" d="m192.5 319h-31v-273.5h77.5v31h-46.5z" fill="#a0c2e1" data-original="#ffffff" style="" class=""/><path xmlns="http://www.w3.org/2000/svg" d="m177.807 45.5v273.5h14.693v-242.5h46.5v-31z" fill="#7c9ee1" data-original="#e9edf5" style="" class=""/><path xmlns="http://www.w3.org/2000/svg" d="m303.041 177h26v73h-26z" fill="#a0c2e1" data-original="#ffffff" style="" class=""/><path xmlns="http://www.w3.org/2000/svg" d="m315.157 177h13.884v73h-13.884z" fill="#7c9ee1" data-original="#e9edf5" style="" class=""/><path xmlns="http://www.w3.org/2000/svg" d="m71.5 119.912h211v34.088h-211z" fill="#a0c2e1" data-original="#ffffff" style="" class=""/><path xmlns="http://www.w3.org/2000/svg" d="m177.807 119.912h104.693v34.088h-104.693z" fill="#7c9ee1" data-original="#e9edf5" style="" class=""/><path xmlns="http://www.w3.org/2000/svg" d="m389.754 403.599h-147.426c-18.959 0-34.328-15.369-34.328-34.328 0-18.959 15.369-34.328 34.328-34.328h147.425c18.959 0 34.328 15.369 34.328 34.328.001 18.959-15.368 34.328-34.327 34.328z" fill="#ffce00" data-original="#ffce00" style="" class=""/><path xmlns="http://www.w3.org/2000/svg" d="m389.754 334.942h-74.597v68.657h74.597c18.959 0 34.328-15.37 34.328-34.329 0-18.958-15.369-34.328-34.328-34.328z" fill="#fdba12" data-original="#fdba12" style="" class=""/><path xmlns="http://www.w3.org/2000/svg" d="m394.867 324.657h-157.652c-16.135 0-29.215-13.08-29.215-29.215 0-30.436 24.673-55.108 55.108-55.108h105.865c30.436 0 55.108 24.673 55.108 55.108.001 16.135-13.079 29.215-29.214 29.215z" fill="#ffce00" data-original="#ffce00" style="" class=""/><path xmlns="http://www.w3.org/2000/svg" d="m368.974 240.333h-53.817v84.324h79.71c16.135 0 29.215-13.08 29.215-29.215 0-30.436-24.673-55.109-55.108-55.109z" fill="#fdba12" data-original="#fdba12" style="" class=""/><path xmlns="http://www.w3.org/2000/svg" d="m410.395 351.425h-188.708c-10.979 0-19.879-8.9-19.879-19.879 0-10.979 8.9-19.879 19.879-19.879h188.708c10.979 0 19.879 8.9 19.879 19.879 0 10.979-8.9 19.879-19.879 19.879z" fill="#d13400" data-original="#d13400" style="" class=""/><path xmlns="http://www.w3.org/2000/svg" d="m410.395 311.667h-95.238v39.758h95.238c10.979 0 19.879-8.9 19.879-19.879 0-10.979-8.9-19.879-19.879-19.879z" fill="#912b12" data-original="#912b12" style="" class=""/><path xmlns="http://www.w3.org/2000/svg" d="m391.5 207-62.459 25.25v-55.25z" fill="#ffa426" data-original="#ffa426" style=""/></g></svg>
