<?xml version="1.0" encoding="utf-8"?>
<!-- Generator: Adobe Illustrator 24.2.1, SVG Export Plug-In . SVG Version: 6.00 Build 0)  -->
<svg version="1.1" id="Layer_1" xmlns="http://www.w3.org/2000/svg" xmlns:xlink="http://www.w3.org/1999/xlink" x="0px" y="0px"
	 viewBox="0 0 183.1 20.9" style="enable-background:new 0 0 183.1 20.9;" xml:space="preserve">
<path d="M0,0.2h4.4c1.7,0,2.8,0.3,3.8,1.4S9.6,4,9.6,6.4c0,1.8-0.1,3-0.9,4.1c-0.8,1.3-2,2.2-4.2,2.2H3v8H0L0,0.2L0,0.2z M3,10h1.4
	c2.4,0,2.4-1.4,2.4-3.4c0-1.9,0-3.5-2.3-3.5H3L3,10L3,10z M11.8,0.2h4.8c3.6,0,5.2,2,5.2,6c0,2.3-0.7,4.1-2.5,5.1l3.2,9.4h-3.1
	L16.6,12h-1.8v8.8h-3C11.8,20.8,11.8,0.2,11.8,0.2z M14.8,9.3h1.7c2,0,2.3-1.1,2.3-3.2s-0.3-3.2-2.5-3.2h-1.6v6.4L14.8,9.3z
	 M24.3,0.2h8.8V3h-5.9v6h5.1v2.8h-5.1v6h5.9v3h-8.8V0.2z M38.3,3h-3.5V0.2h9.8V3h-3.4v17.8h-3V3H38.3z M50,3h-3.5V0.2h9.8V3h-3.4
	v17.8H50L50,3L50,3z M61.7,12.1L57.6,0.2h3.1L63,8.4h0.1l2.4-8.2h3.1l-4,11.9v8.7h-3C61.7,20.8,61.7,12.1,61.7,12.1z M70.8,0.2h3
	v17.6h5.9v3h-8.8L70.8,0.2L70.8,0.2z M81.6,0.2h2.9v20.6h-3L81.6,0.2L81.6,0.2z M89.3,3h-3.4V0.2h9.8V3h-3.4v17.8h-3L89.3,3L89.3,3z
	 M100.7,3h-3.4V0.2h9.8V3h-3.4v17.8h-3V3H100.7z M108.6,0.2h3v17.6h5.9v3h-8.8L108.6,0.2L108.6,0.2z M119.3,0.2h8.8V3h-5.9v6h5.1
	v2.8h-5.1v6h5.9v3h-8.8C119.3,20.8,119.3,0.2,119.3,0.2z M133.6,3h-3.4V0.2h9.8V3h-3.4v17.8h-3V3H133.6z M141.6,0.2h3V9h3.7V0.2h3
	v20.6h-3v-9.2h-3.8v9.2h-3V0.2H141.6z M154,0.2h3v20.6h-3V0.2z M160.1,0.2h2.9l4.4,12.4h0.1V0.2h3v20.6h-2.8l-4.5-12.3h-0.1v12.3h-3
	L160.1,0.2L160.1,0.2z M173.1,5c0-3.3,2.6-5,5-5s5,1.7,5,5v1H180V5c0-1.4-0.9-2.1-2-2.1s-2,0.7-2,2.1v10.9c0,1.4,0.9,2.1,2,2.1
	s2-0.7,2-2.1V12h-2.3V9.4h5.3v6.4c0,3.3-2.6,5-5,5s-5-1.7-5-5V5L173.1,5z"/>
</svg>
