<?xml version="1.0" encoding="utf-8"?>
<svg version="1.1" id="Layer_1" xmlns="http://www.w3.org/2000/svg" xmlns:xlink="http://www.w3.org/1999/xlink" x="0px" y="0px"
	width="100px" height="100px" viewBox="0 0 100 100" style="enable-background:new 0 0 100 100;" xml:space="preserve">
<g>
	<path style="fill:#E8E8E8;" d="M50,0c27.61,0,50,22.39,50,50c0,27.61-22.39,50-50,50S0,77.61,0,50C0,22.39,22.39,0,50,0"/>
	<path style="fill:#FFFFFF;" d="M50,1c27.06,0,49,21.94,49,49S77.06,99,50,99S1,77.06,1,50S22.94,1,50,1"/>
	<g id="XMLID_1_">
		<path id="XMLID_2_" style="fill:#373536;" d="M12.16,46.02c0.33-1.42,1.79-2.35,3.19-2.31c0.92-0.04,1.75,0.42,2.67,0.23
			c0.69,0.31,1.1,1.15,1.15,1.85c0.08,0.5-0.42,0.98-0.92,0.79c-0.6-0.33-1.02-0.96-1.65-1.29c-0.33-0.1-0.73-0.04-1.1-0.04
			c-0.08,0.27-0.27,0.54-0.19,0.79c0.37,0.5,1.02,0.56,1.56,0.73c0.87,0.27,1.79,0.73,2.25,1.56c0.56,1.21,0.04,2.77-1.1,3.46
			c-1.15,0.77-2.62,0.73-3.92,0.5c-0.5-0.1-1.02-0.23-1.44-0.54c-0.65-0.73-0.77-1.71-0.65-2.62c0.15-0.04,0.42-0.15,0.54-0.23
			c0.5,0.42,0.77,1.06,1.21,1.52c0.56,0.42,1.37,0.6,2.06,0.33c0.37-0.1,0.42-0.73,0.08-0.87c-0.77-0.46-1.71-0.56-2.44-1.1
			C12.53,48.23,11.93,47.13,12.16,46.02z"/>
		<path id="XMLID_3_" style="fill:#373536;" d="M19.07,45c-0.15-0.96,0.96-1.15,1.65-1.21c0.92-0.04,2.08-0.23,2.73,0.54
			c0.19,0.56-0.37,0.83-0.73,1.15c-0.08,0.54-0.08,1.06-0.04,1.65c0.73,0.19,1.44,0.19,2.17,0c0-0.77,0.15-1.75-0.73-2.08
			c-0.04-0.27-0.15-0.69,0.15-0.83c0.87-0.54,2.02-0.42,3-0.33c0.56,0.04,1.02,0.33,1.25,0.87c-0.23,0.31-0.54,0.56-0.83,0.77
			c-0.27,1.67-0.1,3.35-0.15,5.02c-0.08,0.5,0.5,0.69,0.79,0.96c0.08,0.83-0.83,1.06-1.48,1.06c-0.96,0.04-2.06,0.15-2.85-0.46
			c0-0.23,0-0.46,0-0.69c0.92-0.54,0.79-1.65,0.79-2.54c-0.69-0.19-1.42-0.15-2.12,0.04c-0.04,0.5-0.08,0.96-0.04,1.44
			c-0.04,0.69,0.83,0.96,0.69,1.67c-0.96,0.73-2.25,0.6-3.35,0.5c-0.54-0.04-0.96-0.33-1.19-0.83c0.37-0.42,1.06-0.77,1.02-1.44
			c0.04-1.44,0.08-2.94-0.04-4.42C19.89,45.33,19.35,45.23,19.07,45z"/>
		<path id="XMLID_4_" style="fill:#373536;" d="M73.68,48.5c0.04-1.65-0.08-3.27,0.08-4.92c4.75,0.04,9.5,0,14.27,0
			c0,4.29,0,8.56,0,12.85c-4.75,0-9.5,0-14.27,0C73.59,53.79,73.7,51.17,73.68,48.5z"/>
		<path id="XMLID_5_" style="fill:#FFFFFF;" d="M74.05,43.94c4.52-0.04,9.06,0,13.58,0c0,4.06,0,8.1,0,12.17
			c-4.52-0.04-9.06,0.04-13.62-0.04C74.05,52.04,74.05,48,74.05,43.94z"/>
		<path id="XMLID_6_" style="fill:#ED3338;" d="M75.03,45.6c1.19-1.1,2.94-0.98,4.42-1.19c0.31,0,0.96-0.19,0.83,0.33
			c-0.08,0.33,0.19,0.98-0.27,1.06c-1.1,0.15-2.21,0.79-2.71,1.83c-0.5,0.92-0.1,2.08,0.65,2.71c0.92,0.77,2.12,0.96,3.12,1.56
			c0.37,0.15,0.19,0.54,0.23,0.83c-0.83,0.27-1.83,0.31-2.48-0.33c-0.6-0.46-0.83-1.48-1.75-1.42c-0.37,0.87-0.27,2.02,0.46,2.71
			c0.73,0.6,1.75,0.73,2.67,0.73c0.04,0.37,0.08,0.77,0.1,1.15c-2.02,0.15-4.46,0.04-5.75-1.75c-0.31-1.83-0.08-3.69-0.15-5.52
			C74.43,47.4,74.28,46.25,75.03,45.6z"/>
		<path id="XMLID_7_" style="fill:#ED3338;" d="M81.34,44.4c1.56,0.23,3.19,0.04,4.65,0.65c0.77,0.31,1.33,1.06,1.29,1.9
			c0,2.06,0,4.1,0,6.17c0.08,0.98-0.79,1.75-1.65,2.08c-1.37,0.54-2.85,0.33-4.29,0.33c0-0.37,0.04-0.77,0.04-1.15
			c1.06-0.08,2.21-0.5,2.9-1.37c0.69-0.79,0.79-2.08,0.15-2.96c-0.83-0.98-2.17-1.15-3.27-1.6c-0.33-0.19-0.79-0.54-0.54-0.98
			c0.37-0.27,0.92-0.37,1.33-0.1c0.73,0.37,1.21,1.06,1.98,1.42c0.23-0.19,0.5-0.42,0.73-0.6c0.1-0.96-0.42-1.75-1.06-2.35
			c-0.27,0.08-0.5,0.1-0.77,0.19c-0.46-0.08-0.96-0.15-1.42-0.19C81.34,45.33,81.34,44.85,81.34,44.4z"/>
		<path id="XMLID_8_" style="fill:#373536;" d="M43.74,44.54c-0.87-0.77-2.08-0.87-3.19-0.73c-1.25,0.19-2.54,0.04-3.83,0.15
			c-0.08,0.1-0.19,0.33-0.23,0.42c0.04,0.1,0.1,0.33,0.1,0.46c0.27,0.08,0.5,0.19,0.77,0.27c0.19,0.31,0.23,0.65,0.23,0.98
			c-0.04,1.48,0.04,2.96-0.04,4.46c0,0.42-0.5,0.56-0.79,0.79c0,0.23,0,0.42,0,0.65c0.92,0.54,1.98,0.46,3,0.42
			c0.46,0,0.92-0.23,1.33-0.42c0-0.23,0-0.42,0.04-0.65c-0.27-0.19-0.56-0.33-0.77-0.6c-0.1-0.54-0.08-1.06-0.08-1.6
			c1.02,0.04,2.17,0.15,3.04-0.46C44.76,47.94,44.99,45.65,43.74,44.54z M41.57,47.5c-0.31,0.42-0.83,0.33-1.25,0.31
			c-0.04-0.92-0.04-1.83,0-2.71c0.31,0.04,0.69-0.04,0.96,0.19C41.99,45.75,42.01,46.85,41.57,47.5z"/>
		<path id="XMLID_11_" style="fill:#373536;" d="M72.41,49.33c-0.92,0-0.92,1.15-1.6,1.48c-0.73,0.42-1.6,0.27-2.4,0.23
			c-0.31-0.79-0.33-1.67-0.08-2.48c0.19,0,0.56,0.04,0.77,0.04c0.19,0.46,0.37,0.92,0.6,1.37c0.1-0.08,0.37-0.23,0.5-0.31
			c0.46-1.15,0.46-2.44,0-3.58c-0.23,0-0.46-0.04-0.69-0.04c-0.15,0.46-0.27,0.96-0.46,1.37c-0.31-0.08-0.69,0.08-0.92-0.15
			c-0.19-0.65-0.19-1.44,0.08-2.06c0.6-0.27,1.33-0.19,1.98-0.04c0.65,0.1,0.77,1.15,1.48,1.06c0.15-0.1,0.31-0.23,0.42-0.37
			c0.19-0.79-0.04-1.79-0.77-2.29c-2.21,0.65-4.56-0.08-6.81,0.46c-0.19-0.1-0.42-0.23-0.6-0.31c-1.98,0.15-3.96,0.15-5.94,0
			c-0.37,0.04-0.6,0.46-0.83,0.73c-0.23-0.33-0.56-0.6-0.98-0.65c-1.21-0.15-2.52-0.15-3.65,0.33c-0.08,0.1-0.19,0.37-0.27,0.54
			c0.31,0.33,0.65,0.6,0.92,0.98c0.19,0.79,0.1,1.65,0.1,2.44c0,1.02,0.1,2.08-0.31,3.04c-0.1-0.04-0.33-0.08-0.46-0.08
			c-0.15-0.65-0.23-1.29-0.5-1.9c-0.23-0.6-0.87-0.83-1.37-1.15c0.5-0.5,1.15-0.92,1.21-1.67c0.15-0.79-0.15-1.67-0.87-2.08
			c-1.15-0.79-2.54-0.46-3.83-0.46c-1.06,0.08-2.25-0.31-3.17,0.33c0.04,0.15,0.08,0.46,0.08,0.6c0.37,0.23,0.77,0.5,0.77,0.98
			c0.1,1.42,0.04,2.85,0.04,4.29c0.04,0.6-0.42,1.02-0.87,1.33c0.08,0.23,0.04,0.56,0.31,0.69c0.69,0.46,1.52,0.33,2.31,0.33
			c0.6-0.04,1.37,0.04,1.79-0.5c0.23-0.54-0.42-0.77-0.65-1.19c-0.1-0.69-0.08-1.37-0.04-2.02c0.37,0,0.83,0.08,1.02,0.46
			c0.42,0.92,0.33,2.06,1.06,2.81c0.83,0.77,2.17,0.6,3.17,0.23c0.92,0.27,1.83,0.19,2.73,0.1c0.65-0.04,1.48-0.27,1.44-1.1
			c-0.27-0.19-0.54-0.33-0.79-0.54c-0.27-1.02-0.15-2.08-0.15-3.12c0-0.73-0.04-1.44,0.1-2.12c0.04-0.33,0.42-0.46,0.65-0.69
			c-0.19,0.54-0.33,1.1-0.15,1.65c0.31,0.56,1.21,0.42,1.48-0.1c0.33-0.33,0.54-1.1,1.15-0.87c0.19,0.92,0.04,1.83,0.04,2.73
			c0,0.83-0.08,1.67-0.19,2.48c-0.42,0.23-1.21,0.42-0.92,1.06c0.56,0.65,1.6,0.56,2.4,0.6c0.98-0.04,2.31,0.15,2.85-0.92
			c-0.23-0.37-0.6-0.6-1.02-0.77c-0.31-0.79-0.15-1.67-0.19-2.52c0.04-0.83-0.08-1.71,0.08-2.52c0.08-0.42,0.65-0.27,0.77,0.08
			c0.31,0.54,0.65,1.29,1.42,1.06c0.6-0.04,0.6-0.77,0.79-1.21c0.19,1.52,0.15,3.04,0.04,4.52c0,0.31-0.1,0.6-0.19,0.92
			c-0.27,0.19-0.83,0.33-0.73,0.83c0.15,0.31,0.54,0.33,0.83,0.37c1.83,0.04,3.65-0.04,5.48,0.04c0.42,0,0.98,0.19,1.25-0.27
			C72.61,51.31,73.03,50.21,72.41,49.33z M48.87,47.13c-0.23,0.37-0.73,0.27-1.1,0.33c0-0.79,0.04-1.56,0.1-2.35
			c0.37,0,0.73,0.08,1.06,0.23C48.99,45.96,49.18,46.6,48.87,47.13z"/>
		<path id="XMLID_14_" style="fill:#373536;" d="M34.8,44.35c-1.02-0.69-2.35-0.73-3.54-0.5c-1.37,0.31-2.54,1.33-3.04,2.67
			c-0.42,1.25-0.33,2.71,0.31,3.87c0.77,1.33,2.25,2.21,3.77,2.12c1.85,0.08,3.73-1.1,4.33-2.9C37.3,47.71,36.47,45.46,34.8,44.35z
			 M33.53,50.52c-0.37,0.1-0.83,0.31-1.19,0c-0.87-0.77-1.19-1.98-1.37-3.08c-0.1-0.65-0.08-1.48,0.56-1.83
			c0.56-0.31,1.19,0.23,1.44,0.69c0.56,0.92,0.79,1.98,0.87,3C33.95,49.71,33.72,50.12,33.53,50.52z"/>
		<path id="XMLID_17_" style="fill:#373536;" d="M52.45,54.21c0.1,0,0.31,0,0.42-0.04c0,0.27,0,0.54,0,0.79c0.19,0,0.56,0,0.77,0
			c0-0.23,0-0.65,0-0.83c0.19,0.08,0.56,0.15,0.46,0.5c0.04,0.56,0,1.19-0.1,1.75c-0.08-0.04-0.27-0.1-0.33-0.1
			c0-0.31,0-0.56,0-0.87c-0.19,0-0.56,0-0.73,0c-0.08,0.33,0.19,1.02-0.42,0.96C52.45,55.6,52.45,54.9,52.45,54.21z"/>
		<path id="XMLID_18_" style="fill:#373536;" d="M56.64,54.21c0.1,0,0.31,0,0.42,0c0,0.56,0,1.1,0,1.67c0.31,0,0.65,0,0.96,0v0.37
			c-0.46,0-0.92,0-1.37,0C56.64,55.58,56.64,54.9,56.64,54.21z"/>
		<path id="XMLID_19_" style="fill:#373536;" d="M60.32,54.21c0.1,0,0.31,0,0.37,0c0,0.69,0,1.37,0,2.06c-0.1,0-0.31,0-0.37,0
			C60.28,55.58,60.32,54.9,60.32,54.21z"/>
		<path id="XMLID_20_" style="fill:#373536;" d="M61.07,54.21c0.15,0,0.31,0.04,0.46,0.04c0.23,0.46,0.5,0.92,0.77,1.37
			c0-0.46,0-0.92,0-1.37c0.1,0,0.31,0,0.42,0c0,0.69,0,1.37,0,2.06c-0.1,0-0.31,0-0.37,0c-0.27-0.46-0.54-0.92-0.79-1.37
			c-0.1,0.5,0.31,1.33-0.37,1.48C61.07,55.6,61.07,54.94,61.07,54.21z"/>
		<path id="XMLID_21_" style="fill:#373536;" d="M65.68,54.17c0.37-0.1,0.69,0.08,1.02,0.23c0,0.1,0.04,0.33,0.04,0.46
			c-0.42-0.1-1.02-0.69-1.19,0c0.33,0.1,0.73,0.23,1.06,0.33c0.08,0.08,0.23,0.27,0.27,0.37c-0.15,0.23-0.19,0.56-0.5,0.65
			c-0.37,0.19-0.77,0-1.1-0.1c-0.04-0.15-0.08-0.46-0.1-0.6c0.23,0.15,0.46,0.33,0.73,0.5c0.23-0.08,0.46-0.19,0.6-0.37
			c-0.5-0.19-1.06-0.23-1.42-0.69C65.26,54.67,65.3,54.21,65.68,54.17z"/>
		<path id="XMLID_22_" style="fill:#373536;" d="M67.89,54.21c0.15,0,0.31,0.04,0.46,0.04c0,0.54,0,1.1,0,1.65c0.33,0,0.65,0,0.98,0
			v0.37c-0.5,0-0.96,0-1.44,0C67.89,55.58,67.89,54.9,67.89,54.21z"/>
		<path id="XMLID_23_" style="fill:#373536;" d="M63.41,56.15c-0.69-0.54-0.46-1.9,0.5-1.98c0.5-0.08,0.92,0.27,0.98,0.77
			c-0.42-0.15-0.79-0.37-1.25-0.37c-0.08,0.37-0.37,0.87,0,1.21c0.27,0.37,0.77,0.08,0.96-0.19c-0.15,0-0.42-0.04-0.56-0.08
			l0.04-0.33c0.27,0,0.56,0,0.83,0c0,0.37,0,0.77,0,1.19c-0.08-0.04-0.27-0.15-0.33-0.19C64.16,56.23,63.74,56.46,63.41,56.15z"/>
		<path id="XMLID_24_" style="fill:#373536;" d="M69.22,54.21c0.56,0,1.19,0,1.75,0.04c-0.08,0.37-0.42,0.33-0.73,0.37
			c-0.1,0.54,0.37,1.6-0.46,1.71c0-0.56,0-1.19,0-1.75c-0.15,0-0.46,0-0.56,0L69.22,54.21L69.22,54.21z"/>
		<path id="XMLID_25_" style="fill:#373536;" d="M56.09,54.35c-0.5-0.27-1.06-0.27-1.56,0.04c-0.19,0.54-0.33,1.25,0.19,1.67
			c0.37,0.37,0.96,0.15,1.37,0C56.37,55.54,56.37,54.94,56.09,54.35z M55.22,55.92c-0.54-0.19-0.56-1.1-0.08-1.37
			C56.09,54.25,56.14,56.06,55.22,55.92z"/>
		<path id="XMLID_28_" style="fill:#373536;" d="M59.74,54.4c-0.42-0.27-0.96-0.15-1.42-0.19c0,0.69-0.04,1.42,0.04,2.08
			c0.46-0.04,0.92-0.08,1.37-0.15C60.01,55.6,60.2,54.85,59.74,54.4z M59.49,55.65c-0.19,0.23-0.5,0.23-0.77,0.31
			c0-0.46,0-0.96,0-1.42c0.27,0.08,0.6,0,0.79,0.27C59.59,55.08,59.59,55.37,59.49,55.65z"/>
		<path id="XMLID_31_" style="fill:#373536;" d="M72.64,54.54c-0.31-0.54-1.02-0.31-1.52-0.37c0,0.69,0,1.42,0,2.08
			c0.5-0.04,0.96-0.08,1.44-0.19C72.72,55.6,72.95,55.04,72.64,54.54z M72.26,55.69c-0.23,0.15-0.5,0.19-0.77,0.23
			c0-0.46,0-0.92,0-1.37c0.27,0.04,0.54,0,0.77,0.15C72.34,55.04,72.39,55.37,72.26,55.69z"/>
	</g>
</g>
</svg>
