<svg xmlns="http://www.w3.org/2000/svg" width="300" height="62" viewBox="0 0 75 15.5" fill="#ff9718"><path d="M0 .1h3.4v5.6h0c.6-1.1 2-1.8 3.2-1.8 3.5 0 3.8 2.7 3.8 4.2v7H7V9.9c0-1.5.2-3-1.7-3C4 6.9 3.4 8 3.4 9.2v6H0V.1zm12.2 7.5c.1-1.4.7-2.4 1.6-2.9s2.1-.8 3.3-.8c2.5 0 4.9.6 4.9 3.7v4.8c0 .9 0 1.9.4 2.8H19c-.1-.3-.2-.7-.2-1-.9 1-2.2 1.4-3.4 1.4-2 0-3.6-1.1-3.6-3.3 0-3.6 3.7-3.3 6.1-3.8.6-.1.9-.3.9-1 0-.8-.9-1.1-1.6-1.1-.9 0-1.5.4-1.7 1.4h-3.3zm4.4 5.7c1.6 0 2.2-1 2.1-3.2-.5.3-1.4.4-2.1.6-.8.2-1.4.5-1.4 1.4 0 .8.6 1.2 1.4 1.2M23.7.2h3.4v15h-3.4zm17.8 3.7c2.9 0 4.8 1.7 4.4 4.8-.4 3.9-3.1 6.7-6.8 6.7-2.9 0-4.8-1.5-4.5-4.7.4-3.9 3.1-6.8 6.9-6.8m-2.1 8.9c1.9 0 2.9-2.3 3-3.9.1-1.4-.2-2.3-1.5-2.3-1.9 0-2.8 2.5-3 4 0 1.2.3 2.2 1.5 2.2m-4.2-8.6h-2.1v-.5c0-1 .5-1.1 1.3-1.1.3 0 .6 0 .9.1V.1c-.5-.1-1.1-.1-1.7-.1-2.9 0-4 1-4 4.2H28v2.4h1.6v8.6H33V6.5h1.2l1-2.3zm19.4 3v-.1.1zm-7.5 5.7V4.2h3.3V6h0c.5-1.3 1.7-2 3.1-2 .2 0 .5 0 .7.1l-.2.4-.9 2.5h-.2c-1.7 0-2.6 1.2-2.6 2.5v5.8h-3.4v-2.4zm17.7 2.3h-3.3V14h0c-.7 1-1.7 1.6-2.9 1.6-3.3 0-4.7-3-4.7-6.1 0-2.9 1.4-5.6 4.4-5.6 1.3 0 2.3.5 3 1.5h0V0h3.4v15.2zm-7.5-5.6c0 1.5.5 3.2 2.1 3.2 1.7 0 2-1.7 2-3.1 0-1.6-.5-3.1-2-3.1s-2.1 1.6-2.1 3m13 5.8c-1.8 0-3.1-.5-4.4-1.3l1-2.8c1.1.8 2.4 1.4 3.4 1.4.9 0 1.2-.3 1.2-.7 0-1.4-5.1-.5-5.1-4.2 0-2.2 1.9-3.7 4.5-3.7 1.3 0 2.9.5 4 1.1l-1 2.7c-1.1-.6-2.2-1-3.1-1-.7 0-1.1.3-1.1.7 0 1.4 5.3.5 5.3 4.5 0 1.9-2 3.3-4.7 3.3"/></svg>