<svg xmlns="http://www.w3.org/2000/svg" viewBox="0 0 2279.4 1139.8" fill-rule="evenodd"><path d="M3.4 767.1c6.7 23.5 30.2 40.3 53.7 40.3s50.3-20.1 50.3-53.7c0-53.7-100.7-33.6-100.7-107.4 0-43.6 36.9-63.8 73.9-63.8 13.4 0 36.9 6.7 47 16.8v26.9c-6.7-20.1-23.5-33.6-43.6-33.6S43.7 606 43.7 636.2c-3.4 53.7 97.4 36.9 97.4 107.4 0 47-43.6 73.9-83.9 73.9-13.4 0-43.6-6.7-53.7-20.1l-.1-30.3h0zm1695.3-77.2h94V710h-94v-20.1zm-1332.8 0V804c0 6.7-10.1 10.1-10.1 10.1h60.4s-10.1-6.7-10.1-10.1V599.3c0-6.7 10.1-10.1 10.1-10.1h-60.4s10.1 3.4 10.1 10.1v80.6h-97.4v-80.6c3.4-6.7 10.1-10.1 10.1-10.1h-57.1s6.7 3.4 6.7 10.1v204.8c0 3.3-6.7 10.1-6.7 10.1h57.1s-6.7-3.3-10.1-10.1V689.9h97.4 0zm1232-3.4v-87.3c0-6.7 10.1-10.1 10.1-10.1h-60.4s10.1 3.4 10.1 10.1V804c0 3.3-10.1 10.1-10.1 10.1h60.4s-10.1-3.3-10.1-10.1V686.5h0zm285.4 127.6s10.1-6.7 10.1-10.1V599.3c0-6.7-10.1-10.1-10.1-10.1h60.4s-10.1 3.4-10.1 10.1v204.8c16.8 0 47-3.4 63.8-3.4 6.7 0 16.8 0 20.1-3.3-3.3 3.3-3.3 10.1-6.7 16.8h-127.5zM903 736.9c-3.4-6.7-124.2-147.7-124.2-147.7h-43.6s10.1 0 16.8 13.4V804c-3.4 6.7-10.1 10.1-10.1 10.1h26.8s-6.7-6.7-6.7-10.1V632.8s-3.4-13.4 6.7 0 157.8 188 157.8 188V599.3c0-6.7 10.1-10.1 10.1-10.1h-40.3s10.1 3.4 10.1 10.1v137.6H903h0zM580.8 582.5s83.9 214.9 90.6 221.6c3.4 6.7 10.1 10.1 10.1 10.1h-57.1s6.7-3.3 6.7-10.1c-6.7-16.8-20.1-47-26.8-63.8h-73.9c-6.7 16.8-20.1 57.1-23.5 63.8 0 6.7 3.4 6.7 6.7 10.1h-36.9s10.1-3.3 10.1-10.1c3.4-6.7 87.3-221.6 87.3-221.6h6.7 0zm-47 147.7h67.1l-33.6-83.9-33.5 83.9h0zm1634.8-147.7l90.6 221.6c3.3 6.7 10.1 10.1 10.1 10.1h-57.1s6.7-3.3 3.3-10.1c-3.3-16.8-16.8-47-23.5-63.8h-73.8c-6.7 16.8-20.1 57.1-23.5 63.8 0 6.7 3.4 6.7 6.7 10.1h-36.9s10.1-3.3 10.1-10.1c0-6.7 87.3-221.6 87.3-221.6h6.7 0zm-47 147.7h67.1l-33.6-83.9-33.5 83.9zM1185 794c-16.8 10.1-33.6 13.4-53.7 13.4-40.3 0-80.6-43.6-80.6-107.4 0-67.1 33.6-104.1 77.2-104.1 30.2 0 63.8 16.8 80.6 47V606c-16.8-6.7-40.3-20.1-77.2-20.1-67.1 0-120.9 40.3-120.9 117.5 0 63.8 47 114.1 114.1 114.1 30.2 0 57.1-3.4 83.9-13.4v-73.9c0-3.3 10.1-10.1 10.1-10.1h-43.6s10.1 6.7 10.1 10.1V794h0zm164.5 10.1l10.1 10.1h-57.1s6.7-6.7 6.7-10.1V599.3c0-6.7-6.7-10.1-6.7-10.1h60.4c47 0 80.6 20.1 80.6 53.7 0 40.3-33.6 57.1-43.6 60.4 10.1 6.7 20.1 20.1 26.8 26.8l26.9 43.6c20.1 33.6 30.2 36.9 30.2 36.9-13.4 3.3-26.8 6.7-33.6 3.3-26.8-6.7-53.7-94-73.9-100.7-3.3-3.3-26.8-3.3-26.8-3.3v94.2zm0-104.1c6.7 0 20.1 0 33.6-3.3 23.5-6.7 33.6-23.5 33.6-50.4 0-20.1-13.4-43.6-33.6-47-16.8-3.4-20.1-3.4-33.6 0V700h0zM298.8 1089.4v47h10.1v3.4h-30.2v-3.4h6.7v-90.6h-6.7v-3.3h30.2v3.3h-10.1v40.3h36.9v-40.3h-10.1v-3.3h33.6v3.3h-10.1v90.6h10.1v3.4h-33.6v-3.4h10.1v-47h-36.9zm228.3 47h10.1v-90.6h-6.7c-6.7 0-10.1 3.4-13.4 26.8h-3.4v-30.2h63.8v30.2H574c-3.4-23.5-6.7-26.8-13.4-26.8h-6.7v90.6H564v3.4h-37l.1-3.4h0zm90.6 3.4v-3.4h10.1v-90.6h-10.1v-3.3h70.5v30.2h-3.4c-6.7-23.5-10.1-26.8-16.8-26.8h-26.8v40.3h10.1c6.7 0 10.1-3.3 13.4-16.8h3.4v40.3h-3.4c-3.4-13.4-6.7-20.1-13.4-20.1h-10.1v47h23.5c10.1 0 13.4-3.3 20.1-33.6h3.4v36.9l-70.5-.1h0 0zm141-3.4h20.1c10.1 0 13.4-3.3 20.1-36.9h3.4v40.3h-67.1v-3.4h10.1v-90.6h-10.1v-3.3h36.9v3.3h-13.4v90.6zm87.3-33.6c6.7 26.8 10.1 33.6 23.5 33.6s23.5-6.7 23.5-20.1c0-26.8-50.4-16.8-50.4-47 0-16.8 10.1-26.8 30.2-26.8 10.1 0 16.8 0 23.5 3.3v30.2s-3.4-6.7-6.7-16.8c-3.4-10.1-10.1-13.4-20.1-13.4s-20.1 6.7-20.1 16.8 6.7 13.4 26.9 20.1c20.1 6.7 26.9 13.4 26.9 26.8 0 16.8-13.4 30.2-33.6 30.2-10.1 0-20.1-3.4-26.9-6.7v-30.2h3.3 0zm214.8-20.1h16.8l-3.4 10.1c3.4-6.7 10.1-10.1 16.8-10.1 10.1 0 13.4 3.3 13.4 16.8l-10.1 36.9h6.7v3.4h-23.5v-3.4h6.7l10.1-40.3c0-6.7 0-10.1-6.7-10.1s-10.1 6.7-13.4 16.8l-6.7 33.6h6.7l-3.4 3.4h-20.1v-3.4h6.7l10.1-50.4h-6.7v-3.3h0 0zm94 57.1l3.3-6.7c-3.3 3.3-6.7 6.7-16.8 6.7s-16.8-10.1-13.4-30.2c3.4-16.8 16.8-26.8 26.9-26.8 6.7 0 10.1 3.3 10.1 6.7l6.7-23.5h-6.7 16.8l-16.8 70.5h6.7v3.4l-16.8-.1h0zm-10.1-3.4c6.7 0 13.4-6.7 16.8-23.5 3.3-20.1 0-26.9-6.7-26.9-3.4 0-10.1 3.4-13.4 26.9-6.7 20.1-3.4 23.5 3.3 23.5zm-154.4-33.6l3.4-16.8c6.7-3.3 13.4-3.3 16.8-3.3 13.4 0 20.1 6.7 16.8 13.4l-6.7 40.3h3.4v3.4h-13.4v-10.1c-3.4 6.7-10.1 10.1-16.8 10.1-10.1 0-16.8-6.7-13.4-13.4 3.4-20.1 23.5-13.4 36.9-20.1v-13.4c3.4-6.7 0-6.7-6.7-6.7s-10.1 3.4-16.8 16.8l-3.5-.2h0zm26.9 6.7c-13.4 3.4-23.5 0-26.9 16.8-3.4 6.7 0 10.1 6.7 10.1s13.4-10.1 16.8-20.1l3.4-6.8zm-577.4-67.1c20.1 0 36.9 20.1 36.9 47 0 30.2-16.8 50.4-36.9 50.4s-40.3-20.1-40.3-50.4c0-26.9 20.1-47 40.3-47zm0 94c13.4 0 20.1-10.1 20.1-47 0-33.6-6.7-43.6-20.1-43.6-16.8 0-23.5 10.1-23.5 43.6 0 36.9 6.7 47 23.5 47zm822.4 3.4v-3.4h6.7v-90.6h-6.7v-3.3h36.9c23.5 0 33.6 13.4 33.6 23.5 0 13.4-13.4 23.5-30.2 23.5l30.2 47h6.7v3.4h-20.1l-36.9-50.4v47h10.1v3.4h-30.3v-.1zm20.2-50.4h10.1c16.8 0 23.5-10.1 23.5-23.5 0-10.1-6.7-20.1-20.1-20.1h-13.4l-.1 43.6h0 0zm214.8 13.4c6.7 26.8 10.1 33.6 23.5 33.6s23.5-6.7 23.5-20.1c0-26.8-50.4-16.8-50.4-47 0-16.8 10.1-26.8 30.2-26.8 10.1 0 20.2 0 26.9 3.3v30.2h-3.4l-6.7-16.8c-3.4-10.1-10.1-13.4-16.8-13.4-13.4 0-20.1 6.7-20.1 16.8s6.7 13.4 23.5 20.1c20.1 6.7 26.8 13.4 26.8 26.8 0 16.8-13.4 30.2-33.6 30.2-10.1 0-20.1-3.4-26.8-6.7v-30.2h3.4 0zm137.7-60.4c20.1 0 40.3 20.1 40.3 50.4 0 26.8-20.1 47-40.3 47-20.1 0-40.3-20.1-40.3-47 0-30.3 20.1-50.4 40.3-50.4zm0 94c13.4 0 20.1-10.1 20.1-43.6 0-36.9-6.7-47-20.1-47-16.8 0-23.5 10.1-23.5 47 0 33.5 6.7 43.6 23.5 43.6zm77.2 3.4v-3.4h6.7v-90.6h-6.7v-3.3h40.3c23.5 0 30.2 13.4 30.2 23.5 0 13.4-10.1 23.5-30.2 23.5l33.6 47h6.7v3.4h-23.5l-33.6-50.4v47h10.1v3.4h-33.6v-.1zm23.5-50.4h6.7c16.8 0 23.5-10.1 23.5-23.5 0-10.1-3.3-20.1-20.1-20.1h-10.1v43.6h0zm104.1 47h10.1v-90.6h-10.1c-6.7 0-6.7 3.4-13.4 26.8h-3.4v-30.2h63.8v30.2c-6.7-23.5-10.1-26.8-13.4-26.8h-10.1v90.6h10.1v3.4h-33.6v-3.4zm93.9-33.6c6.7 26.8 10.1 33.6 23.5 33.6s23.5-6.7 23.5-20.1c0-26.8-50.3-16.8-50.3-47 0-16.8 13.4-26.8 30.2-26.8 10.1 0 20.1 0 26.9 3.3v30.2h-3.4l-6.7-16.8c-3.4-10.1-10.1-13.4-16.8-13.4-13.4 0-20.1 6.7-20.1 16.8s6.7 13.4 23.5 20.1c20.1 6.7 26.8 13.4 26.8 26.8 0 16.8-13.4 30.2-33.6 30.2-10.1 0-20.1-3.4-26.8-6.7v-30.2h3.3 0zm-560.6 37v-3.4h10.1v-90.6H1373v-3.3h70.5v30.2h-3.4c-6.7-23.5-10.1-26.8-16.8-26.8h-26.8v40.3h10.1c6.7 0 10.1-3.3 13.4-16.8h3.4v40.3h-3.4c-3.3-13.4-6.7-20.1-13.4-20.1h-10.1v47h23.5c10.1 0 13.4-3.3 20.1-33.6h3.4v36.9l-70.5-.1h0 0z"/><path d="M1262.2 250.1c-36.9 13.4-87.3 36.9-117.5 77.2-3.4 6.7-10.1 6.7-13.4 0-10.1-10.1-53.7-53.7-114.1-53.7-16.8 0-40.3 3.4-57.1 6.7v154.4c10.1-6.7 33.6-16.8 53.7-16.8 30.2 0 90.6 26.9 114.1 50.3 6.7 6.7 13.4 6.7 20.1 0 33.6-33.6 94-60.4 167.8-60.4v-188h-302.1c36.9-13.4 87.3-36.9 117.5-77.2 3.4-6.7 10.1-6.7 13.4 0 10.1 10.1 53.7 57.1 117.5 57.1 13.4 0 36.9-3.4 53.7-10.1v-151c-10.1 6.7-33.6 13.4-53.7 13.4-30.2 0-90.6-26.9-114.1-47-6.7-6.7-13.4-6.7-20.1 0-33.6 30.2-90.6 60.4-164.5 60.4V250l298.8.1h0z" fill="#ebce45"/><path d="M0,935h2279.4v-10.1H0V935z"/></svg>