<?xml version="1.0" encoding="utf-8"?>
<svg version="1.1" id="Layer_1" xmlns="http://www.w3.org/2000/svg" xmlns:xlink="http://www.w3.org/1999/xlink" x="0px" y="0px"
	 viewBox="0 0 708.66 467.49" style="enable-background:new 0 0 708.66 467.49;" xml:space="preserve">
<g id="layer1" transform="translate(-4397.099,-577.1118)">
	<g id="g45263" transform="translate(10.62987,8.863696)">
		<path id="path45125" style="fill:#CC071E;" d="M4884.49,582.43c25.74-12.64,38.5-10.98,38.78,1.83
			c0.34,16.65-2.12,38.78-3.89,54.8c-9.55,87.05-25.51,158.19-26.71,247.57c42.04-108.84,77.28-184.49,122.7-277.66
			c14.42-29.69,23.63-24.14,35.46-29.4c46.1-20.53,47.82-7.95,41.81,17.16c-22.37,93.01-79.63,385.86-88.38,430.95
			c-2.52,13.05-16.7,7.52-20.37,2.41c-16.42-22.71-34.95-23.06-32.89-38.16c10.3-75.18,47.36-263.81,57.03-308.25
			c-49.25,100.97-100.33,227.2-126.59,298.77c-5.55,15.2-15.67,14.08-21.96,2.96c-8.87-15.62-26.08-23.6-28.94-42.05
			c-8.98-58.69,10.3-170.55,12.98-241.32c-26.83,77.31-71.84,227.4-91.58,295.21c-8.12,28.06-35.24,23.48-28.03-3.87
			c29.97-113.8,94.56-315.08,122.47-387.44C4852.97,588.89,4870.19,589.46,4884.49,582.43"/>
		<path id="path45127" style="fill:#CC071E;" d="M4721.01,568.47c-8.69-2.12-33.92,11.5-49.42,14.19
			c-4.92,0.86-9.61,6.06-11.27,9.78c-24.83,57.03-47.08,111.39-66.35,160.92c-24.65,4.21-53.48,9.75-85.75,17
			c23.11-59.28,46.45-117.74,69.21-173.97c11.21-27.69-18.3-30.32-29.75-2.29c-14.87,36.44-42.73,104.71-73.56,184.28
			c-22.65,5.55-46.68,11.9-71.79,19.16c-18.25,5.27-18.99,10.13-11.1,21.07c4.35,6.09,13.33,5.48,17.45,9.82
			c10.64,11.25,17.1,24.71,36.15,26.75c-16.99,45.45-33.98,92.31-49.37,137.44c-9.67,28.33,17.85,34.12,28.43,4.15
			c17.05-48.32,35.01-97.22,53.48-145.98c15.39-3.58,52.63-11.6,87-19.05c-27.29,74.78-45.25,131.58-52.05,159.23
			c-1.26,5.32,0.86,8.27,2,10.44c9.21,13.4,17.96,13.95,29.8,30.52c3.2,4.52,13.96,6.96,17.62-4.17
			c25.28-76.37,51.31-148.03,75.56-212.26c10.07-2.2,28.2-6.58,39.3-23.14c19.73-29.39,25.4-23.43,30.15-32.36
			c5.95-11.22,2-21.75-19.05-19.15c0,0-7.95,0.57-22.65,2.24c23.34-60.09,43.76-111.06,58.46-149.9
			C4728.56,580.03,4729.19,570.42,4721.01,568.47"/>
		<path id="path45129" style="fill:#CC071E;" d="M4686.57,958.21c5.43,13.73,22.42,9.58,15.96-7c-6.58-16.89-22.94-67.72-27.23-84.1
			c-5.83-22.07,19.45-16.03,6.64-1.61c-10.98,12.41-18.31,17.38-38.61,40.97c-19.62,22.77-14.3,52.32,6.69,58.85
			c23.68,7.37,44.56-18.73,57.49-37.87c12.53-18.54,0.4-29.41-12.24-18.45c-8.12,7.05-17.5,17.87-27,23.7
			c-7.72,4.7-13.79-0.35-3.49-14.52c11.96-16.41,25.34-30.16,35.29-45.67c20.31-31.6-19.85-49.82-37.12-29.29
			c-9.27,10.94-6.92,21.69-4.4,30.91C4662.61,888.89,4677.71,936.03,4686.57,958.21"/>
	</g>
</g>
</svg>
