<?xml version="1.0" encoding="utf-8"?>
<svg version="1.1" id="Layer_1" xmlns="http://www.w3.org/2000/svg" xmlns:xlink="http://www.w3.org/1999/xlink" x="0px" y="0px"
	 viewBox="0 0 868.5 563.5" style="enable-background:new 0 0 868.5 563.5;" xml:space="preserve">
<g>
	<path id="path7974" style="fill:#E30613;" d="M838,436.7c-38.4,26.1-114.6,59-233.1,29.5c-11.3-3-22.1-5.9-32.5-8.9
		c-74.8-32.5-150.5-66.9-181-90c85.6,13.3,213.4,26.6,420-6.9C811.5,360.4,831.1,391.4,838,436.7 M35.9,457.8L0,470.6
		c0,0,41.3,49.2,48.2,64.9l10.3,28c0,0,130.3-71.8,319.7-61c42.8,2.5,80.7,14.8,80.7,14.8s-77.2-50.2-92.5-55.1
		c-74.3-18.2-145.1-24.1-186.9-25.6c-71.8,19.2-133.3,51.6-133.3,51.6S40.8,473.1,35.9,457.8"/>
	<path id="path7976" style="fill:#FEC700;" d="M867,412.6c0,0-9.3,11.3-29,24.1c-38.4,26.1-114.6,59-233.1,29.5
		c-11.3-3-22.1-5.9-32.5-8.9c-108.2-31.5-172.1-72.3-316.2-90C158.4,369.8,59,381.1,4.4,402.7c0,0,14.8,15.2,19.2,21.6
		c2.5,4.9,7.4,19.2,12.3,33.9c5.4,15.7,10.3,30.5,10.3,30.5s61.5-32.5,133.3-51.6c33.9-9.3,69.8-14.8,102.8-12.8
		c110.2,6.9,199.2,63.9,298,110.2c68.4,19.2,235.6,33.9,282.8,12.8C862.6,546.3,872,500.6,867,412.6"/>
	<path id="path7978" style="fill:#1F3685;" d="M293.1,161.7c-44.8,0-70.3,62.5-70.3,106.7c0,18.2,4.4,26.1,13.8,26.1
		c25.1,0,67.9-72.8,76.7-118l2.5-11.8C309.3,163.2,302.5,161.7,293.1,161.7 M346.2,349.6h-65.4c3-17.2,8.4-35.9,17.7-61.5h-1
		c-20.7,34.4-49.7,67.4-86.6,67.4c-37.9,0-57-24.6-57-75.7c0-90,46.7-172.1,151-172.1c5.9,0,11.8,0.5,20.7,2L336.4,55v-0.5
		c-10.3-2-26.1-3.9-40.3-4.9l9.3-44.8c33-3.4,66.9-5.9,106.7-4.4L346.2,349.6z M738.2,349.6h-64.9L696.9,204c4.9-23.6,1.5-33-9.3-33
		c-22.1,0-61.5,58-70.8,115.1l-10.3,63.4h-64.9L565.6,204c4.9-23.6,1.5-33-9.3-33c-22.1,0-60.5,57.5-71.3,113.6l-12.3,64.9h-64.9
		l34.9-182.9v-1.5c-10.3-2-26.1-3.9-40.3-4.9l9.3-44.8c34.4-3.9,66.9-5.9,102.8-4.4c-3.9,18.7-10.3,40.3-18.2,61.5h1
		c21.6-36.9,44.8-64.9,86.6-64.9c28,0,46.7,14.8,46.7,47.2c0,5.9-1.5,11.8-3.9,21.6l0.5,0.5c21.6-39.3,48.7-68.9,90.5-68.9
		c46.2,0,56.1,33.4,47.2,78.2L738.2,349.6z"/>
</g>
</svg>
