<?xml version="1.0" encoding="utf-8"?>
<svg version="1.1" id="Layer_1" xmlns="http://www.w3.org/2000/svg" xmlns:xlink="http://www.w3.org/1999/xlink" x="0px" y="0px"
	width="100px" height="100px" viewBox="0 0 66.7 66.7" style="enable-background:new 0 0 66.7 66.7;" xml:space="preserve">
<g>
	<circle style="fill:#E8E8E8;" cx="33.3" cy="33.3" r="33.3"/>
	<circle style="fill:#FFFFFF;" cx="33.3" cy="33.3" r="32.7"/>
	<path style="fill:#165C7D;" d="M36.6,28.9h-2.1c-0.1,0-0.1,0-0.2,0.1c-0.1,0.1-0.1,0.1-0.1,0.1l-0.1,0.2l-1.7,5.2
		c-0.1,0.1-0.1,0.1-0.1,0.1s-0.1-0.2-0.3-0.4c-0.1-0.1-1.7-5-1.7-5.1c0-0.1-0.1-0.1-0.1-0.2c-0.1-0.1-0.2-0.1-0.3-0.1h-2.1h-0.1
		c-0.1,0-0.1,0.1-0.2,0.1v0.1v0.2v7.7v0.3c0,0.1,0,0.1,0.1,0.2s0.1,0.1,0.2,0.1h1.1c0.1,0.1,0.1,0,0.2,0c0.1,0,0.1,0,0.2-0.1
		c0-0.1,0.1-0.1,0.1-0.1v-5.1c0-0.1,0-0.1,0.1-0.1h0.1l0.1,0.1c0.1,0.1,0.1,0.2,0.1,0.3l1.7,4.9c0.1,0.1,0.1,0.3,0.3,0.3h1.1
		c0.1,0,0.2-0.1,0.2-0.2l1.8-5.2c0-0.1,0.1-0.1,0.1-0.2l0.1-0.1c0.1,0,0.1,0.1,0.1,0.1v0.3v4.8v0.2c0,0.1,0,0.1,0.1,0.1
		c0.1,0.1,0.2,0.1,0.3,0.1h1.1c0.1,0,0.1,0,0.2-0.1s0.1-0.1,0.1-0.2v-8.1c0-0.1,0-0.2-0.1-0.3C36.7,28.9,36.7,28.9,36.6,28.9
		L36.6,28.9z M51.4,26.1c-4,0-7.3,3.3-7.3,7.3c0,4,3.3,7.3,7.3,7.3c4,0,7.3-3.3,7.3-7.3c0-1.9-0.8-3.8-2.1-5.1
		C55.1,26.8,53.3,26.1,51.4,26.1L51.4,26.1z M48.9,37.5c-0.1,0.1-0.1,0.1-0.2,0.1h-1.3c-0.1,0-0.1-0.1-0.2-0.1
		c-0.1-0.1-0.1-0.1-0.1-0.2v-0.3v-7.7c0-0.1,0-0.2,0.1-0.3c0.1-0.1,0.1-0.1,0.3-0.1h1.3c0.1,0,0.1,0,0.2,0.1
		c0.1,0.1,0.1,0.1,0.1,0.2v8C48.9,37.4,48.9,37.5,48.9,37.5z M56.1,37.4c0,0.1-0.1,0.3-0.2,0.3h-1.3c-0.1,0-0.1-0.1-0.2-0.1
		c0-0.1-0.1-0.1-0.1-0.2v-2.9c0-0.3,0-0.6-0.1-0.9c0-0.3-0.1-0.6-0.3-0.8c-0.2-0.2-0.5-0.3-0.8-0.3c-0.6,0-1.1,0.5-1.3,1.1
		c-0.1,0.4-0.1,0.8-0.1,1.2v2.5c0,0.1,0,0.1-0.1,0.2c0,0.1-0.1,0.1-0.2,0.1h-1.2c-0.1,0-0.1,0-0.2-0.1c-0.1-0.1-0.1-0.2-0.1-0.3
		v-5.6c0-0.1,0-0.1,0.1-0.2s0.1-0.1,0.3-0.1h0.7c0.2,0,0.5,0,0.5,0.2c0,0.1,0.1,0.4,0.2,0.4c0.1,0,0.1,0,0.1-0.1
		c0.1-0.1,0.3-0.3,0.5-0.4c0.7-0.4,1.7-0.5,2.5-0.1c0.3,0.1,0.6,0.4,0.8,0.7c0.2,0.5,0.3,0.9,0.3,1.4L56.1,37.4L56.1,37.4z
		 M57.7,28.1c0.5,0,0.8-0.3,0.8-0.8c0-0.5-0.3-0.8-0.8-0.8c-0.5,0-0.8,0.3-0.8,0.8C56.9,27.7,57.3,28.1,57.7,28.1L57.7,28.1z
		 M57.7,26.7c0.4,0,0.7,0.3,0.7,0.7c0,0.4-0.3,0.7-0.7,0.7c-0.4,0-0.7-0.3-0.7-0.7l0,0c0-0.2,0.1-0.3,0.2-0.5S57.5,26.7,57.7,26.7z
		 M57.5,27.7L57.5,27.7L57.5,27.7L57.5,27.7L57.5,27.7L57.5,27.7l0.1-0.3l0,0h0.1v0.1l0.1,0.2v0.1c0,0,0-0.1,0,0.1l0,0l0,0l0,0l0,0
		v-0.1l0,0l0,0l-0.1-0.2l0,0l0,0l0,0l0,0h0.1l0,0l0,0l0.3-0.2v-0.1v-0.1v-0.1l0,0l0,0c0,0,0-0.1-0.1-0.1h-0.1h-0.1h-0.1h-0.2l0,0
		L57.5,27.7L57.5,27.7L57.5,27.7L57.5,27.7L57.5,27.7L57.5,27.7z M57.6,27.1L57.6,27.1L57.6,27.1L57.6,27.1L57.6,27.1L57.6,27.1
		l0.1-0.1h0.1h0.1l0.1,0.1v0.1v0.1v0.1h-0.1h-0.1h-0.1h-0.1v-0.1V27.1L57.6,27.1L57.6,27.1C57.6,27.1,57.6,27.1,57.6,27.1z
		 M40.5,31.1c-2.3,0.1-3.1,2-3.1,3.3c0,0.8,0.3,3.3,3.3,3.3c2.1,0,2.7-1.6,2.8-1.8v-0.1v-0.1c0-0.1-0.1-0.1-0.1-0.1h-1
		c-0.1,0-0.2,0.1-0.3,0.1c0,0-0.1,0.1-0.1,0.1c-0.3,0.4-0.7,0.6-1.2,0.6c-1.2,0-1.5-0.8-1.5-1.2v-0.1c0-0.1,0.1-0.3,0.2-0.3
		c0.1,0,0.1-0.1,0.1-0.1h3.7h0.3c0.1,0,0.1,0,0.2-0.1c0.1-0.1,0.1-0.1,0.1-0.1v-0.3C43.7,33.1,42.8,31.1,40.5,31.1z M41.9,33.7
		c-0.1,0.1-0.1,0.1-0.3,0.1h-2.1c-0.1,0-0.2,0-0.3-0.1c-0.1,0-0.1-0.1-0.1-0.1v-0.1c0.1-0.7,0.7-1.1,1.4-1.1c0.6,0,1.1,0.4,1.3,1
		C41.9,33.5,41.9,33.5,41.9,33.7z M26.7,31.3c-0.1-0.1-0.1-0.1-0.2-0.1h-1.1c-0.1,0-0.1,0-0.2,0.1c0,0-0.1,0.1-0.1,0.1v0.1
		c0,0.1-0.1,0.3-0.2,0.3c-0.1,0-0.1,0-0.1-0.1c-0.4-0.4-1-0.7-1.6-0.7c-2.1,0-2.7,2.1-2.7,2.8v0.3c0,2.3,1.3,3.2,2.7,3.2
		c0.6,0,1.1-0.2,1.5-0.6c0,0,0.1,0,0.1-0.1c0,0,0.1,0,0.1-0.1h0.1c0.1,0.1,0.1,0.1,0.1,0.3l-0.1,0.7c-0.1,0.6-0.6,1.1-1.2,1.1
		c-0.6,0.1-1.2-0.2-1.5-0.7c0-0.1-0.1-0.1-0.2-0.1H21c-0.1,0-0.1,0.1-0.2,0.1c-0.1,0.1-0.1,0.1,0,0.2c0.2,0.8,1.1,1.7,2.8,1.7l0,0
		c2.5,0,3.2-1.4,3.2-2.9v-5.5C26.8,31.5,26.8,31.4,26.7,31.3L26.7,31.3C26.7,31.3,26.7,31.3,26.7,31.3z M23.7,36.1
		c-0.8,0-1.4-0.7-1.4-2c0-1.1,0.7-1.7,1.4-1.7c0.7,0,1.5,0.6,1.5,1.7C25.2,35.4,24.6,36.1,23.7,36.1L23.7,36.1L23.7,36.1z
		 M16.8,31.1L16.8,31.1c-2.7,0-3.3,2.2-3.3,3.3c0,0.5,0.1,1.1,0.3,1.5c0.4,0.9,1.3,1.9,3,1.9c1.7,0,3.3-1.1,3.3-3.3l0,0
		c0.1-0.9-0.3-1.7-0.9-2.3C18.5,31.5,17.7,31.1,16.8,31.1z M16.7,36.5c-0.7,0-1.5-0.5-1.5-2c0-1.5,0.8-2,1.7-2
		c0.9,0,1.5,0.7,1.5,2.1C18.3,36.1,17.4,36.5,16.7,36.5z M13.4,36.1c-0.1,0-0.1-0.1-0.2-0.1s-0.1-0.1-0.3-0.1h-2.7
		c-0.1,0-0.3-0.1-0.3-0.1c0-0.1-0.1-0.1-0.1-0.1v-0.1v-0.1v-0.1v-0.2v-5.9c0-0.1,0-0.1-0.1-0.2s-0.1-0.1-0.2-0.1H8.2
		c-0.1,0-0.1,0.1-0.2,0.1c0,0.1-0.1,0.1-0.1,0.1v8.1c0,0.1,0,0.1,0.1,0.2c0.1,0.1,0.1,0.1,0.2,0.1h4.9c0.1,0,0.3-0.1,0.3-0.2v-0.1
		v-1C13.5,36.2,13.4,36.1,13.4,36.1z"/>
</g>
</svg>
