<svg xmlns="http://www.w3.org/2000/svg" viewBox="0 0 150.92 25.75"><path d="M125.7 7.03c-1.7 0-2.83.97-3.2 1.77V1.38h-2.03v17.5h2.03v-8.32c0-1.55 1.23-2.93 2.77-2.93 1.65 0 2.45 1.28 2.45 3.25v8h2.03V11.1c.07-2.4-1.7-4.07-4.05-4.07zM79.9 1.38h2.03v17.5H79.9V1.38zM61.12 7.03c-1.7 0-2.83.97-3.2 1.77V7.42h-2.03v11.47h2.03v-8.32c0-1.55 1.23-2.93 2.77-2.93 1.65 0 2.45 1.28 2.45 3.25v8h2.03v-7.73c.06-2.46-1.7-4.13-4.05-4.13h0zm78.98 8.39c0 1.97-.9 3.25-2.62 3.25-1.77 0-2.67-1.28-2.67-3.25v-8h-2.03v7.15c0 2.83 1.6 4.75 4.63 4.75s4.7-1.92 4.7-4.75V7.42h-2.03l.02 8h0zm-89.53 0c0 1.97-.9 3.25-2.62 3.25-1.77 0-2.67-1.28-2.67-3.25v-8h-2.03v7.15c0 2.83 1.6 4.75 4.63 4.75s4.7-1.92 4.7-4.75V7.42h-2.03c0 0 .02 8 .02 8zm40.53.53c0 1.23-1.17 2.57-2.67 2.57-1.33 0-1.7-1.23-1.7-2.57 0-1.7.48-2.4 2.08-2.83 1.28-.37 1.87-.58 2.3-.9v3.73h-.01zM88.75 7.2c-1.7 0-3.03.75-3.68 2.45l.63.27c.43-1.28 1.38-2.08 3.03-2.08s2.5.97 2.5 2.3c0 1.6-.97 1.87-2.72 2.4-2.18.63-3.83 1.07-3.83 3.57 0 1.65 1.17 3.03 3.63 3.03a3.62 3.62 0 0 0 2.83-1.43v1.17h1.97V11.8c-.04-2.9-2.08-4.6-4.36-4.6h0zM74.67 12c0 2.5-.8 3.25-2.4 3.25s-2.4-.75-2.4-3.25v-1.02c0-2.67.8-3.42 2.4-3.42s2.4.8 2.4 3.42V12zm-2.4-5.02c-2.88 0-4.43 1.77-4.43 4.48 0 1.87.8 3.2 2.3 3.95-1.07.32-1.5 1.07-1.5 2.03 0 1.87 1.92 2.18 3.9 2.35 2.18.17 3.25.22 3.25 1.87 0 1.38-1.6 2.23-3.42 2.23-1.33 0-2.45-.43-3.15-1.02l-.43.48c.8.75 2.08 1.17 3.57 1.17 2.5 0 4.85-1.5 4.85-3.68 0-2.77-2.4-2.98-4.75-3.1-1.6-.05-3.03-.05-3.03-.9 0-1.12 1.33-1.07 2.88-1.07 2.93 0 4.43-1.77 4.48-4.43 0-1.5-.48-2.72-1.43-3.52h2.3v-.57h-3.2c-.64-.1-1.39-.27-2.19-.27h0zm-35.95 4.85c-1.6-.22-2.93-.53-2.93-1.87 0-1.23 1.38-2.08 2.93-2.08 1.02 0 2.08.32 2.45.8-.48.17-.8.58-.8 1.12 0 .63.53 1.12 1.12 1.12.63 0 1.17-.53 1.17-1.12 0-1.07-1.38-2.5-3.9-2.5-2.35 0-3.83 1.55-3.83 3.52 0 2.45 1.92 2.98 3.9 3.25 1.65.27 3.15.8 3.15 2.45 0 1.38-1.38 2.18-3.03 2.18-1.17 0-2.13-.43-2.83-1.17l-.48.48c.9.9 2.03 1.33 3.3 1.33 2.3 0 4.32-1.5 4.32-3.68-.06-1.89-.69-3.29-4.54-3.83h0zm62.98 0c-1.6-.22-2.93-.53-2.93-1.87 0-1.23 1.38-2.08 2.93-2.08 1.02 0 2.08.32 2.45.8-.48.17-.8.58-.8 1.12 0 .63.53 1.12 1.12 1.12.63 0 1.17-.53 1.17-1.12 0-1.07-1.38-2.5-3.9-2.5-2.35 0-3.83 1.55-3.83 3.52 0 2.45 1.92 2.98 3.9 3.25 1.65.27 3.15.7 3.15 2.35 0 1.38-1.38 2.3-3.03 2.3-1.17 0-2.13-.43-2.83-1.17l-.48.48c.9.9 2.03 1.33 3.3 1.33 2.3 0 4.32-1.5 4.32-3.68-.05-1.91-.74-3.31-4.54-3.85h0zm10.2 0c-1.6-.22-2.93-.53-2.93-1.87 0-1.23 1.38-2.08 2.93-2.08 1.02 0 2.08.32 2.45.8-.48.17-.8.58-.8 1.12 0 .63.53 1.12 1.12 1.12.63 0 1.17-.53 1.17-1.12 0-1.07-1.38-2.5-3.9-2.5-2.35 0-3.83 1.55-3.83 3.52 0 2.45 1.92 2.98 3.9 3.25 1.65.27 3.15.8 3.15 2.45 0 1.38-1.38 2.18-3.03 2.18-1.17 0-2.13-.43-2.83-1.17l-.48.48c.9.9 2.03 1.33 3.3 1.33 2.3 0 4.32-1.5 4.32-3.68-.07-1.89-.7-3.29-4.54-3.83h0zm41.22 6.52c-.27.05-.48.1-.75.1-1.65 0-2.08-1.17-2.08-3.15V7.95h2.72v-.58h-2.72V2.98h-2.03v4.37h-1.33v.58h1.33v6.67c0 2.98 1.33 4.48 3.68 4.48a4.23 4.23 0 0 0 1.38-.22c0 .01-.2-.51-.2-.51zM12.85 0C5.77 0 0 5.77 0 12.9 0 20 5.77 25.75 12.85 25.75s12.9-5.77 12.9-12.85C25.7 5.77 19.95 0 12.85 0z"/></svg>