<?xml version="1.0" encoding="utf-8"?>
<svg version="1.1" id="Layer_1" xmlns="http://www.w3.org/2000/svg" xmlns:xlink="http://www.w3.org/1999/xlink" x="0px" y="0px"
	width="100px" height="100px" viewBox="0 0 100 100" style="enable-background:new 0 0 100 100;" xml:space="preserve">
<g>
	<path style="fill:#E8E8E8;" d="M50,0c27.61,0,50,22.39,50,50s-22.39,50-50,50S0,77.61,0,50S22.39,0,50,0"/>
	<path style="fill:#FFFFFF;" d="M50,1c27.06,0,49,21.94,49,49S77.06,99,50,99S1,77.06,1,50S22.94,1,50,1"/>
	<g>
		<path style="fill:#581B6F;" d="M55.32,46.76c1.46-1.77,3.95-2.38,6.14-1.99c1.09,0.17,2.22,0.67,2.82,1.64
			c0.6,0.89,0.66,1.99,0.63,3.02c-0.04,2.17,0.05,4.35-0.05,6.53c-0.77,0.05-1.54,0.05-2.3-0.01c-0.09-0.35-0.02-0.72-0.1-1.08
			c-1.19,1.14-2.93,1.49-4.52,1.19c-1.3-0.21-2.63-1-3.01-2.34c-0.51-1.4,0.11-3.08,1.42-3.8c1.7-0.93,3.72-0.51,5.55-0.91
			c0.7-0.38,0.24-1.36-0.3-1.68c-1.51-0.91-3.48-0.26-4.61,0.97C56.36,47.88,55.85,47.31,55.32,46.76 M58.3,51.41
			c-1.01,0.24-1.2,1.69-0.3,2.2c1.16,0.68,2.84,0.46,3.79-0.5c0.57-0.57,0.52-1.42,0.53-2.16C60.99,51.12,59.62,51.12,58.3,51.41
			L58.3,51.41z"/>
		<path style="fill:#581B6F;" d="M75.79,40.75h2.64c0,5.06,0.02,10.13-0.01,15.19c-0.81,0.03-1.65,0.12-2.45-0.02
			c-0.27-0.24-0.1-0.71-0.19-1.04c-2.29,2.08-6.34,1.51-7.97-1.12c-1.36-2.2-1.24-5.32,0.49-7.3c1.84-2.14,5.43-2.46,7.52-0.51
			C75.78,44.23,75.81,42.49,75.79,40.75 M71.81,47.15c-2.3,0.6-2.93,3.78-1.52,5.51c1.06,1.37,3.28,1.5,4.55,0.34
			c1.17-1.1,1.34-3.01,0.62-4.4C74.79,47.32,73.18,46.75,71.81,47.15z"/>
		<path style="fill:#581B6F;" d="M11.67,42.61c2.53-1.72,5.88-2.06,8.75-1.08c1.38,0.46,2.63,1.32,3.47,2.51
			c0.88,1.25,1.18,2.82,0.8,4.3c-0.33,1.34-1.27,2.45-2.54,2.99c-1.82,0.8-4.21,0.41-5.46-1.2c-1.29-1.62-1.01-4.47,0.88-5.51
			c-0.04,0.61-0.25,1.3,0.1,1.86c0.61,1.18,2.43,1.3,3.28,0.32c0.8-0.87,0.63-2.36-0.29-3.09c-1.6-1.35-4.15-1.11-5.7,0.23
			c-2.16,1.83-2.53,5.37-0.79,7.6c2.37,3.09,7.65,3.16,10.13,0.16c0.61-0.67,0.87-1.55,1.32-2.32c0.42-0.21,0.34,0.5,0.4,0.73
			c0.08,2.62-1.03,5.28-3.03,6.99c-3.38,2.94-8.92,2.86-12.24-0.13c-1.7-1.48-2.69-3.64-2.95-5.85v-1.78
			C8.02,46.66,9.43,44.09,11.67,42.61z"/>
		<path style="fill:#581B6F;" d="M33.72,44.9c1.83-0.53,3.93-0.17,5.44,1.01c2.46,1.86,2.82,5.77,0.87,8.13
			c-2.05,2.57-6.3,2.81-8.67,0.57c-1.98-1.8-2.35-5.02-0.94-7.27C31.17,46.14,32.35,45.26,33.72,44.9 M34.61,47.12
			c-2.03,0.43-2.88,2.96-2.09,4.74c0.62,1.72,2.87,2.43,4.43,1.56c2.07-1.07,2.25-4.34,0.46-5.75
			C36.61,47.07,35.56,46.91,34.61,47.12L34.61,47.12z"/>
		<path style="fill:#581B6F;" d="M44.01,47.11c2.05-3.03,6.9-3.24,9.36-0.61c-0.54,0.62-0.92,1.43-1.65,1.84
			c-1.07-1.18-2.87-1.69-4.34-0.96c-1.92,0.98-2.22,3.84-0.84,5.4c1.16,1.27,3.34,1.3,4.6,0.15c0.29-0.17,0.52-0.6,0.89-0.53
			c0.51,0.48,0.98,1,1.4,1.56c0.09,0.28-0.27,0.44-0.41,0.63c-2.27,2.11-6.2,2.08-8.38-0.15C42.71,52.58,42.5,49.29,44.01,47.11z"/>
		<path style="fill:#581B6F;" d="M84.89,44.84c1.84-0.45,3.9-0.02,5.35,1.21c2.44,2,2.63,6.07,0.43,8.31
			c-2.2,2.36-6.35,2.37-8.59,0.06c-2.03-2.03-2.11-5.6-0.24-7.77C82.63,45.73,83.7,45.1,84.89,44.84 M85.62,47.11
			c-2.19,0.39-3.04,3.16-2.08,4.99c0.75,1.65,3.04,2.19,4.52,1.22c1.78-1.12,1.96-3.93,0.53-5.4
			C87.84,47.13,86.66,46.89,85.62,47.11L85.62,47.11z"/>
	</g>
</g>
</svg>
