<?xml version="1.0" encoding="utf-8"?>
<svg version="1.1" id="Layer_1" xmlns="http://www.w3.org/2000/svg" xmlns:xlink="http://www.w3.org/1999/xlink" x="0px" y="0px"
	 viewBox="0 0 84.2 54.9" style="enable-background:new 0 0 84.2 54.9;" xml:space="preserve">
<g>
	<path style="fill-rule:evenodd;clip-rule:evenodd;fill:#191919;" d="M82.8,14.4C81.1,8.7,73.5,0.1,62.2,0.1H43.8l-9,54.2h18.4
		c17.4,0,28.3-13.5,30.5-27C84.5,22.8,84.2,18.3,82.8,14.4 M70.8,27.2c-3.4,17.6-21.5,14.9-21.5,14.9l5-29.9
		C54.2,12.2,74.4,8.9,70.8,27.2 M27.8,0c-0.1,0.8-4.9,39.5-23.2,42c-0.3,0.1-0.6,0.1-2.9,0.2L0,54.7c0,0,2,0,2.9,0.1
		c4,0.2,16.2-0.3,26-16.6C33.8,30,38,17.9,40.6,0L27.8,0L27.8,0z"/>
</g>
</svg>
