<?xml version="1.0" encoding="utf-8"?>
<svg version="1.1" id="Layer_1" xmlns="http://www.w3.org/2000/svg" xmlns:xlink="http://www.w3.org/1999/xlink" x="0px" y="0px"
	width="100px" height="100px" viewBox="0 0 100 100" style="enable-background:new 0 0 100 100;" xml:space="preserve">
<g>
	<path style="fill:#E8E8E8;" d="M50,0c27.61,0,50,22.39,50,50s-22.39,50-50,50S0,77.61,0,50S22.39,0,50,0"/>
	<path style="fill:#FFFFFF;" d="M50,1c27.06,0,49,21.94,49,49S77.06,99,50,99S1,77.06,1,50S22.94,1,50,1"/>
	<g>
		<path d="M81.47,52.28c-1.02,0.96-1.39,1.74-1.39,2.8c0,1.65,1.45,2.01,3.11,2.65c1.23,0.48,2.18,0.85,2.18,1.97
			c0,2.28-3.98,3.12-4.88,4.05c-0.41,0.43-0.62,0.84-0.62,1.47c0,0.33,0.02,1.05,0.9,1.05c1.07,0,3.28-1.3,4.47-2.18
			c1.31-0.97,2.01-2.13,2.01-3.67c0-1.28-0.77-2.34-1.61-2.85c-0.75-0.46-1.86-0.68-2.65-1.01c-1.47-0.6-1.04-1.36-0.4-2.05
			c1.95-2.09,3.58-1.46,4.46-2.44c0.37-0.42,0.45-1.08,0.45-1.28c0-0.7-0.51-1.18-1.06-1.18C85.9,49.62,83.2,50.64,81.47,52.28
			L81.47,52.28z M75.83,52.99c0.51,0,0.37,0.59,0.37,0.8c0,0.88-1.78,5.59-2.89,5.59c-0.25,0-0.38-0.15-0.38-0.64
			C72.93,57.56,74.66,52.99,75.83,52.99L75.83,52.99z M64.28,54.28c0.73,0.09,0.67,0.49,1.48,0.74c0.8,0.25,1.29,0.12,1.72,0.12
			c0.43,0,0.45,0.18,0.45,0.99c0,1.02-0.43,3.55-2.36,3.55c-1.86,0-2.04-2.34-2.04-3.37C63.51,55.02,63.78,54.22,64.28,54.28
			L64.28,54.28z M65.05,52.88c0-0.66,0.53-0.89,1.02-0.89c0.57,0,1.4,0.69,1.4,1.31c0,0.35-0.28,0.78-0.91,0.78
			C66,54.07,65.05,53.61,65.05,52.88L65.05,52.88z M22.66,66.32h1.11c1.11,0,1.26-0.54,1.26-1.83c0,0-0.01-10.01-0.01-10.68
			c0-0.68,0.13-0.82,0.81-0.91c0.68-0.09,2.66-0.29,3.15-0.29c0.4,0,0.72,0.1,0.67,0.88v11.19c0,1.29,0.15,1.54,0.71,1.54h1.04
			c0.73,0,0.89-0.7,0.89-1.54c0-0.74-0.01-10.57-0.01-11.38c0-0.7,0.1-0.91,0.92-1.01c0.27-0.03,1.54-0.12,2.11-0.12
			c1.32,0,1.68,0.36,1.15,1.2c-0.37,0.57-1.58,3.54-1.58,5.16c0,0.8,0.45,2.34,1.55,2.34c1.11,0,2.19-1.64,2.89-2.81
			c0.6-1,0.91-0.98,1.23,0.16c0.19,0.68,0.37,2.13,1.17,2.57c0.27,0.15,0.69,0.19,1.04,0c1.61-0.9,3.15-4.52,3.79-7.28
			c0.38-1.62,1.65-1.4,1.57-0.02v4.87c0,0.77,0.34,1.99,1.25,2.45c0.41,0.21,1.06,0.14,1.49-0.03c1.79-0.73,3.32-6.55,3.59-7.52
			c0.34-1.2,1.54-0.91,1.47,0.18v4.9c0,1.09,0.47,2.18,1.11,2.49c0.52,0.25,1.19,0.21,1.67-0.04c0.63-0.32,1.17-1.21,1.58-1.87
			c0.51-0.81,0.85-0.81,1.48,0.12c0.35,0.51,1.29,1.93,3.26,1.93c2.79,0,4.03-2.93,4.03-4.75c0-0.86,0.1-1.45,0.53-1.68
			c0.45-0.24,1.15-0.57,1.52-0.57c0.59,0,0.27,0.78,0.21,1.01c-0.12,0.45-0.46,1.87-0.46,2.83c0,1.58,0.57,3.12,1.91,3.12
			c1.32,0,2.43-1.72,2.8-2.31c0.44-0.71,0.83-0.69,0.91,0.04c0.06,0.58,0.05,0.78,0.05,0.78c0,1.02,0.31,1.48,0.85,1.48h0.66
			c0.54,0,1.13-0.49,1.13-1.74V39.83c0-0.98-0.19-1.17-0.87-1.17h-0.54c-0.68,0-1.05,0.31-1.05,1.17v10.21
			c0,0.49-0.17,0.73-0.54,0.73c-0.67,0-0.91,0.07-1.3,0.25c-1.51,0.74-3.25,1.6-4.41,1.97c-1.13,0.37-1.42,0.46-1.75-0.05
			c-0.71-1.12-1.48-2.3-3.57-2.3c-1.4,0-2.48,0.68-3.24,1.7c-0.81,1.08-0.98,2.27-1.33,3.33c-0.78,2.35-2.07,3.87-2.07,2.04
			l-0.01-2.06l0.05-1.91c0-1.35-1.48-1.78-2.37-2.05c-1.07-0.33-1.15-0.92-1.15-1.98c0-1.07-0.12-1.93-1.04-1.93
			c-0.47,0-1.67,0.35-1.67,1.93c0,1.17,1.18,1.65,1.18,2.69c0,0.7-0.77,3.11-1.27,4.28c-0.33,0.78-0.81,1.76-1.12,1.76
			c-0.29,0-0.37-0.32-0.37-0.96v-4.02c0-1.27-1.69-1.7-2.63-2.02c-0.84-0.29-0.85-0.81-0.85-1.88c0-1.62-0.57-1.95-1.15-1.95
			c-0.74,0-1.57,0.54-1.57,1.87c0,1.39,1.16,1.63,1.16,2.81c0,0.75-1.14,4.27-1.83,5.4c-0.5,0.81-0.74,0.77-0.99,0.05
			c-0.29-0.86-0.53-3.61-0.75-4.21c-0.22-0.59-1.11-0.59-1.46-0.01c-0.48,0.8-1.97,3.79-2.97,5.01c-0.08,0.1-0.81,0.99-0.81,0.06
			c0-1.15,1.6-3.58,2.88-4.9c1.01-1.04,2.25-1.28,2.25-2.22c0-1-1.26-0.96-2.18-0.96c-2.73,0-5.73,0.2-6.73,0.25
			c-0.78,0.04-0.8-0.07-0.8-0.95V34.73c0-0.61-0.3-1.05-0.95-1.05l-0.33,0c-1.01,0-1.36,0.34-1.36,1.85v14.45
			c0,0.84-0.17,1.1-0.85,1.18l-2.96,0.29c-0.61,0.05-0.74-0.08-0.74-1.17V35.53c0-1.86-0.93-1.85-1.4-1.85h-0.85
			c-0.45,0-1.44,0.45-1.44,1.85v15.25c0,1.01-0.08,1.16-0.98,1.29c-0.86,0.12-5.49,0.68-7.04,0.86c-0.58,0.07-0.8,0.13-0.87,0.39
			c-0.02,0.08-0.01,0.39,0,0.47c0.02,0.3,0.36,0.47,0.75,0.43c0.8-0.09,6.59-0.79,6.59-0.79c1.19-0.15,1.5-0.12,1.5,0.82v10.49
			C21.36,65.68,21.81,66.32,22.66,66.32"/>
	</g>
</g>
</svg>
