<?xml version="1.0" encoding="utf-8"?>
<svg version="1.1" id="Layer_1" xmlns="http://www.w3.org/2000/svg" xmlns:xlink="http://www.w3.org/1999/xlink" x="0px" y="0px"
	width="100px" height="100px" viewBox="0 0 66.7 66.7" style="enable-background:new 0 0 66.7 66.7;" xml:space="preserve">
<g>
	<path style="fill:#FF6C37;" d="M52.4,16.7c-0.2,0.1-0.3,0.3-0.2,0.5v0.1c0.2,0.4,0.1,0.9-0.1,1.3c-0.1,0.2-0.1,0.4,0,0.5l0,0h0.3
		c0.1,0,0.2-0.1,0.3-0.1c0.5-0.6,0.6-1.4,0.3-2.1C52.7,16.7,52.5,16.7,52.4,16.7z M37.6,0.3C19.3-2.1,2.6,10.8,0.3,29.1
		s10.5,35,28.8,37.3S64,55.9,66.4,37.6C68.7,19.3,55.9,2.6,37.6,0.3L37.6,0.3C37.6,0.3,37.6,0.3,37.6,0.3z M44.5,21.1
		c-0.6,0-1.2,0.3-1.7,0.7L30.4,34.1l-2.7-2.7C39.9,19.3,42.2,19.2,44.5,21.1C44.5,21.1,44.5,21.1,44.5,21.1z M30.9,34.5l12.3-12.3
		c0.7-0.7,1.7-0.7,2.5,0c0.3,0.3,0.5,0.8,0.5,1.3s-0.2,0.9-0.6,1.3L32.6,36.3L30.9,34.5L30.9,34.5z M31.9,36.4l-3.1,0.8
		c-0.1,0.1-0.1,0.1-0.2,0s-0.1-0.1,0-0.2l1.9-1.9C30.5,35.1,31.9,36.4,31.9,36.4z M24,35.1l3.3-3.3l2.5,2.5l-5.6,1.2
		c-0.1,0-0.3-0.1-0.3-0.2C23.9,35.3,23.9,35.3,24,35.1L24,35.1C24,35.1,24,35.1,24,35.1z M13.9,52.1c-0.1,0-0.1-0.1-0.2-0.1v-0.2
		l2.6-2.7l3.4,3.4C19.7,52.5,13.9,52.1,13.9,52.1z M20.7,48.6L20.7,48.6c-0.3,0.1-0.4,0.4-0.3,0.7l0.5,2.4c0.1,0.1-0.1,0.3-0.1,0.4
		c-0.1,0.1-0.3,0.1-0.4,0l-3.4-3.5l10.4-10.5l5.1-1.1l2.4,2.4C30.5,43.1,25.7,46.1,20.7,48.6L20.7,48.6L20.7,48.6
		C20.7,48.6,20.7,48.6,20.7,48.6z M35.3,39.1L33,36.7l13-11.5c0.1-0.1,0.3-0.2,0.3-0.3C46,28.7,40.7,33.9,35.3,39.1z M45.5,21.1
		c-1.9-2-1.9-5.2,0.1-7.2c1.8-1.7,4.7-1.9,6.7-0.3l-4.5,4.5c-0.1,0.1-0.1,0.3,0,0.5l3.5,3.5C49.4,23,47,22.6,45.5,21.1L45.5,21.1z
		 M52.7,21.1c-0.3,0.2-0.5,0.5-0.7,0.6l-3.3-3.3l4.3-4.3C54.7,16.1,54.6,19.2,52.7,21.1L52.7,21.1z"/>
</g>
</svg>
