<?xml version="1.0" encoding="utf-8"?>
<svg version="1.1" id="Layer_1" xmlns="http://www.w3.org/2000/svg" xmlns:xlink="http://www.w3.org/1999/xlink" x="0px" y="0px"
	width="100px" height="100px" viewBox="0 0 100 100" style="enable-background:new 0 0 100 100;" xml:space="preserve">
<g>
	<path style="fill:#E8E8E8;" d="M50,0c27.61,0,50,22.39,50,50s-22.39,50-50,50S0,77.61,0,50S22.39,0,50,0"/>
	<path style="fill:#FFFFFF;" d="M50,1c27.06,0,49,21.94,49,49S77.06,99,50,99S1,77.06,1,50S22.94,1,50,1"/>
	<g transform="translate(-139.418888 -161.273559)">
		<path style="fill:#FFFFFF;" d="M222.82,219.44c-2.1,2.2-4.89,3.4-7.84,3.4h-51.42c-2.96,0-5.75-1.2-7.85-3.4
			c-2.09-2.19-3.24-5.11-3.24-8.22c0-6.4,4.98-11.62,11.1-11.62h51.42c2.95,0,5.75,1.21,7.84,3.41c2.09,2.19,3.24,5.11,3.24,8.21
			C226.06,214.33,224.91,217.25,222.82,219.44"/>
		<path style="fill:#EE2824;" d="M222.3,218.99c-2.07,2.06-4.81,3.2-7.72,3.2h-50.59c-2.92,0-5.66-1.14-7.72-3.2
			c-2.06-2.07-3.2-4.81-3.2-7.72c0-6.03,4.9-10.91,10.92-10.91h50.59c2.91,0,5.65,1.13,7.72,3.19c2.06,2.07,3.2,4.81,3.2,7.72
			S224.36,216.93,222.3,218.99 M223.2,202.65c-2.3-2.3-5.36-3.56-8.62-3.56h-50.59c-6.72,0-12.19,5.46-12.19,12.19
			c0,3.25,1.27,6.32,3.58,8.62c2.3,2.3,5.36,3.58,8.62,3.58h50.59c3.26,0,6.32-1.27,8.62-3.58c2.3-2.3,3.57-5.36,3.57-8.62
			C226.77,208.01,225.5,204.95,223.2,202.65"/>
		<path style="fill:#EE2824;" d="M214.58,201.44h-50.59c-5.42,0-9.82,4.4-9.82,9.83c0,5.42,4.39,9.83,9.82,9.83h50.59
			c5.42,0,9.82-4.4,9.82-9.83C224.4,205.84,220,201.44,214.58,201.44"/>
		<path style="fill-rule:evenodd;clip-rule:evenodd;fill:#EE2824;" d="M225.75,223.24c0.7,0,1.29-0.54,1.29-1.28
			c0-0.73-0.59-1.27-1.29-1.27c-0.7,0-1.3,0.54-1.3,1.27C224.45,222.7,225.04,223.24,225.75,223.24 M224.71,221.96
			c0-0.6,0.46-1.07,1.04-1.07c0.58,0,1.04,0.47,1.04,1.07c0,0.62-0.46,1.07-1.04,1.07C225.17,223.03,224.71,222.57,224.71,221.96
			 M225.47,222.06h0.26l0.39,0.63h0.25l-0.41-0.64c0.21-0.04,0.38-0.15,0.38-0.41c0-0.29-0.17-0.42-0.52-0.42h-0.56v1.47h0.22
			L225.47,222.06z M225.47,221.87v-0.46h0.31c0.15,0,0.32,0.05,0.32,0.22c0,0.23-0.17,0.23-0.35,0.23H225.47z"/>
		<g>
			<path style="fill:#FFFFFF;" d="M162.01,205.82h5.57l-0.15,5.01h3.39l-0.21-4.94h5.42l-0.5,11.08h-4.56l-0.15-3.86h-3.45
				l-0.07,3.8h-4.72L162.01,205.82z"/>
			<path style="fill:#FFFFFF;" d="M183.09,205.95h13.87l-0.15,3.05h-8.3v1.89h5.95l-0.07,2.21l-5.96,0v1.89h8.09l-0.07,2.05H183.6
				L183.09,205.95z"/>
			<path style="fill:#FFFFFF;" d="M177.77,210.97h3.41v2.06h-3.35L177.77,210.97z"/>
			<path style="fill:#FFFFFF;" d="M198.6,213.1h3.28v-2.13h-3.28V213.1z"/>
			<path style="fill:#FFFFFF;" d="M204.32,217.11l-0.5-11.16h10.47c2.04,0,3.6,1.22,3.6,3.19c0,2.17-1.73,2.91-2.34,2.95l0.01,0.09
				c1.02,0.23,1.65,0.76,1.65,2.11c0,2.67-2.53,2.83-3.88,2.83L204.32,217.11"/>
		</g>
		<path style="fill:#EE2824;" d="M209.3,215.1v-2.04h1.9c0.57,0,1.13,0.33,1.13,1c0,0.65-0.72,1.04-1.49,1.04H209.3z"/>
		<path style="fill:#EE2824;" d="M209.34,211.17v-2.35h1.89c0.76,0,1.51,0.43,1.51,1.21c0,0.65-0.88,1.15-1.67,1.13
			C210.42,211.15,209.34,211.17,209.34,211.17"/>
	</g>
</g>
</svg>
