<?xml version="1.0" encoding="utf-8"?>
<svg version="1.1" id="Layer_1" xmlns="http://www.w3.org/2000/svg" xmlns:xlink="http://www.w3.org/1999/xlink" x="0px" y="0px"
	width="100px" height="100px" viewBox="0 0 100 100" style="enable-background:new 0 0 100 100;" xml:space="preserve">
<g>
	<path style="fill:#E8E8E8;" d="M50,0c27.61,0,50,22.39,50,50s-22.39,50-50,50S0,77.61,0,50S22.39,0,50,0"/>
	<path style="fill:#FFFFFF;" d="M50,1c27.06,0,49,21.94,49,49S77.06,99,50,99S1,77.06,1,50S22.94,1,50,1"/>
	<g id="Artwork">
		<path style="fill:#003B7E;" d="M81.29,46.91c1.46-0.01,2.72,1,3.04,2.43c0.02,0.07,0.08,0.12,0.15,0.12h2.98
			c0.09,0,0.16-0.07,0.16-0.16c0,0,0,0,0,0c0-1.27-1.44-5.65-6.33-5.65c-4.89,0-6.33,4.38-6.33,5.65c0,0.09,0.07,0.16,0.16,0.16
			c0,0,0,0,0,0h2.98c0.07,0,0.14-0.05,0.15-0.12C78.56,47.91,79.83,46.9,81.29,46.91z"/>
		<path style="fill:#003B7E;" d="M81.29,53.09c1.46,0.01,2.72-1,3.04-2.43c0.02-0.07,0.08-0.12,0.15-0.12h2.98
			c0.09,0,0.16,0.07,0.16,0.16c0,0,0,0,0,0c0,1.27-1.44,5.65-6.33,5.65c-4.89,0-6.33-4.38-6.33-5.65c0-0.09,0.07-0.16,0.16-0.16
			c0,0,0,0,0,0h2.98c0.07,0,0.14,0.05,0.15,0.12C78.56,52.09,79.83,53.1,81.29,53.09z"/>
		<path style="fill:#003B7E;" d="M48.91,47.94h3.07c0.08,0,0.15,0.07,0.15,0.15c0,0,0,0,0,0v7.88c0,0.08-0.07,0.15-0.15,0.15l0,0
			h-3.07c-0.08,0-0.15-0.07-0.15-0.15c0,0,0,0,0,0v-7.88C48.76,48,48.83,47.94,48.91,47.94L48.91,47.94z"/>
		<path style="fill:#003B7E;" d="M45.11,43.88h10.68c0.08,0,0.15,0.07,0.15,0.15c0,0,0,0,0,0v2.67c0,0.08-0.07,0.15-0.15,0.15l0,0
			H45.11c-0.08,0-0.15-0.07-0.15-0.15v-2.67C44.95,43.95,45.02,43.88,45.11,43.88L45.11,43.88z"/>
		<path style="fill:#003B7E;" d="M35.28,48.66h4.49c0.08,0,0.15,0.07,0.15,0.15c0,0,0,0,0,0v2.37c0,0.08-0.07,0.15-0.15,0.15l0,0
			h-4.49c-0.08,0-0.15-0.07-0.15-0.15v-2.37C35.13,48.73,35.2,48.66,35.28,48.66L35.28,48.66z"/>
		<path style="fill:#003B7E;" d="M40.47,53.15h-6.4v-6.29h6.31c0.08,0,0.15-0.07,0.15-0.15v-2.67c0-0.08-0.07-0.15-0.15-0.15
			c0,0,0,0,0,0h-9.54c-0.08,0-0.15,0.07-0.15,0.15c0,0,0,0,0,0v11.93c0,0.08,0.07,0.15,0.15,0.15c0,0,0,0,0,0h9.62
			c0.08,0,0.15-0.07,0.15-0.15c0,0,0,0,0,0V53.3C40.62,53.21,40.55,53.15,40.47,53.15C40.47,53.15,40.47,53.15,40.47,53.15z"/>
		<path style="fill:#003B7E;" d="M25.39,43.92c0-0.09-0.07-0.16-0.16-0.16c-0.03,0-0.06,0.01-0.08,0.02l-6.26,3.81l-6.26-3.81
			c-0.07-0.05-0.17-0.02-0.22,0.05c-0.02,0.02-0.02,0.05-0.02,0.08v12.05c0,0.08,0.07,0.15,0.15,0.15c0,0,0,0,0,0h3.07
			c0.08,0,0.15-0.07,0.15-0.15c0,0,0,0,0,0v-6.63l2.98,1.79c0.05,0.03,0.1,0.05,0.15,0.06c0.05-0.01,0.11-0.03,0.15-0.06
			c0,0,6.23-3.72,6.27-3.75c0.07-0.04,0.08-0.08,0.08-0.19C25.39,47.15,25.39,43.92,25.39,43.92z"/>
		<path style="fill:#F9AE00;" d="M25.31,48.73c-0.05-0.03-0.11-0.03-0.16,0l-3.02,1.8c-0.07,0.04-0.11,0.08-0.11,0.21v5.22
			c0,0.08,0.07,0.15,0.15,0.15c0,0,0,0,0,0h3.07c0.08,0,0.15-0.07,0.15-0.15v-7.1C25.39,48.81,25.36,48.76,25.31,48.73"/>
		<path style="fill:#003B7E;" d="M63.25,43.88H60.2c-0.09,0-0.16,0.07-0.16,0.16v11.92c0,0.09,0.07,0.16,0.16,0.16c0,0,0,0,0,0h3.06
			c0.09,0,0.16-0.07,0.16-0.16c0,0,0,0,0,0V44.04C63.41,43.96,63.34,43.88,63.25,43.88C63.25,43.88,63.25,43.88,63.25,43.88"/>
		<path style="fill:#003B7E;" d="M60.19,43.88h3.07c0.08,0,0.15,0.07,0.15,0.15v11.93c0,0.08-0.07,0.15-0.15,0.15l0,0h-3.07
			c-0.08,0-0.15-0.07-0.15-0.15V44.04C60.04,43.95,60.11,43.88,60.19,43.88L60.19,43.88z"/>
		<path style="fill:#003B7E;" d="M68,51.88c0,0,2.87-0.82,2.87-3.87c0-4.13-3.96-4.13-5.61-4.13h-0.62c-0.08,0-0.15,0.07-0.15,0.15
			v2.67c0,0.08,0.07,0.15,0.15,0.15h0.99c0.47,0,1.84,0.08,1.84,1.47c0,1.39-1.43,1.47-1.82,1.47h-1c-0.08,0-0.15,0.07-0.15,0.15
			v2.33c-0.01,0.08,0.02,0.17,0.07,0.24l2.38,3.53c0.03,0.04,0.08,0.07,0.13,0.07h3.53c0.09,0,0.16-0.07,0.16-0.16
			c0-0.03-0.01-0.06-0.03-0.09L68,51.88"/>
	</g>
</g>
</svg>
