<?xml version="1.0" encoding="utf-8"?>
<svg version="1.1" id="Layer_1" xmlns="http://www.w3.org/2000/svg" xmlns:xlink="http://www.w3.org/1999/xlink" x="0px" y="0px"
	 viewBox="0 0 939.2 264.3" style="enable-background:new 0 0 939.2 264.3;" xml:space="preserve">
<g>
	<path d="M147.6,103.5c-6.1-23.4-21.2-41.2-40.8-48.1c-12.6-4.6-34.8-5.1-49.8-1.3l-3.6,1V0H0v194.8l11.8,3.6
		c19.6,6,31.5,7.7,52.4,7.7c15.5,0.1,21.4-0.5,29.7-2.7c29-7.9,46.8-25.3,53.9-53.1C150.5,139.6,150.5,113.9,147.6,103.5z
		 M88.2,158.5c-2.9,2.9-7.6,6-10.6,6.9c-5.6,1.7-16.5,2.2-21.3,0.8l-3.1-0.8v-72l3.7-0.8c2-0.4,4.3-1,4.9-1.2
		c4.7-1.6,13-0.2,19.5,2.9c5.3,2.8,8.2,5.3,11.2,10.2c3.6,5.9,4,7.9,4.4,20.2C97.9,142.5,95.6,151.1,88.2,158.5z"/>
	<path d="M378.2,35.9v18.8h11.2h11.1l6.3,17.7c3.4,9.8,6.1,18.2,6.1,18.8c0,0.7-7.7,1.1-17.3,1.1h-17.3v34.5
		c0,39.7,0.1,40.3,9.8,40.3c3.5,0,8.2-1.3,12.2-3.5c3.5-1.9,6.5-3.2,6.7-2.9c2.4,3.4,12.9,30.7,12.2,31.8c-1.6,2.5-16.5,9.4-25,11.3
		c-11,2.5-33.5,2.5-42,0c-10.5-3.1-17.2-8.9-22.2-19.1l-4.4-8.9l-0.4-41.8L324.7,92h-10.6h-10.6V73.3V54.6h10.7h10.7V35.9V17.1h26.7
		h26.7v18.8H378.2z"/>
	<path d="M468.6,75.3l18.9,57.5l2.2-7.3c1.2-4,6.3-21.5,11.3-38.8l9-31.4l17.6-0.4l17.7-0.4l1.3,5.1c0.8,2.8,5.9,20.5,11.3,39.1
		l9.9,34.1l2.2-7.3c1.1-4,5.8-20.6,10.1-36.7c4.6-16.1,8.4-30.5,8.8-31.8c0.7-2,3.2-2.3,28.2-2.3c14.9,0,27.1,0.5,26.8,1.2
		c-0.1,0.5-12,33.9-26.4,74.2L591.7,203h-20.5h-20.5l-4-13.1c-2.2-7.1-7.3-24.1-11.4-37.6c-4.1-13.6-7.6-24.9-7.9-25.2
		c-0.2-0.2-5.5,16.6-11.7,37.3l-11.3,37.8h-20.6h-20.5l-32.5-91.6c-17.9-50.4-32.5-92-32.5-92.7c-0.1-0.5,11.3-0.8,25.5-0.7
		l25.6,0.4L468.6,75.3z"/>
	<path d="M267.9,152.2l-4.7,4.7c-11.9,11.7-31.4,13.5-44.7,4.3c-4-2.8-10.1-14.3-10.1-19.4v-2.9h96.7l-1-12.3
		c-2.7-39.1-20.1-64-50.3-72.3C238.9,50,219,50.5,205,55.3c-28.5,9.8-46.2,34.8-48.3,67.9c-2.4,40.8,19,72.1,55.1,80.6
		c11.2,2.7,41.9,1.9,51.5-1.2c11-3.6,22.4-10.1,30.1-17.3l7.6-7.1l-16.6-13L267.9,152.2z M209,108.2c0.4-1.4,1.2-4,1.6-5.8
		c1.2-4.4,7-11.4,11.8-14.4c5.9-3.6,15.3-3.4,21,0.5c4.9,3.4,9.8,11.2,11,17.9l1,4.4h-23.6C208.8,110.8,208.2,110.7,209,108.2z"/>
	<path d="M771.3,94.7c-4-21.4-17.8-35.3-39.8-40.7c-15.2-3.7-36.2-3.5-51,0.5c-7.6,2-24.7,10.8-30.7,15.9l-4.6,3.7l11.8,13
		c6.5,7.1,12,12.9,12.3,12.9c0.2,0,3.4-1.9,6.9-4c12.5-8.1,25-9.9,34.9-5.3c5.9,2.7,9.6,8.4,9.6,15.2c0,3.1-0.5,3.2-16.7,4.8
		c-46.2,4.4-66.9,18.8-68.6,47.1c-1.2,20.1,7.7,35.3,25.4,43.4c7.7,3.5,9.6,3.9,23.1,3.7c15.8,0,24.4-2.3,34.8-9.3
		c2.7-1.9,4.9-3.4,5.2-3.4c0.1,0,1.1,2.4,2,5.3l1.6,5.3h45.4v-50.7C772.6,124,772,98.6,771.3,94.7z M720.1,149.7
		c-0.4,13.1-0.5,13.7-4,16.4c-4.6,3.5-18.1,4.7-23.8,2.3c-8.8-3.6-10.6-16.8-3.1-24.3c2.7-2.7,6.4-4.3,12.4-5.6c4.8-1.1,11-2,13.7-2
		l5.1-0.1L720.1,149.7z"/>
	<path d="M840,96.4c13.1,37.9,16.8,47.4,16.8,42.7c0-1,6.4-20.2,14.2-43.1l14.3-41.4h27.3c25.5,0,27.4,0.1,26.6,2.3
		c-9,23.7-76.1,179.6-79.6,184.9c-8.9,13.6-22.9,21-42.2,22.4c-11.9,0.8-29.1-2-39-6.3l-5.8-2.5l3.5-9c1.9-4.9,4.7-12.4,6.1-16.5
		c1.4-4,3.2-7.7,3.6-8.4c0.5-0.5,4.6,0.2,8.8,1.7c9,3.2,14,3.4,20,0.8c4.3-1.7,7.7-7.3,13.7-22.5l2-4.9l-24.7-55.9
		c-13.6-30.7-27.8-62.7-31.5-71l-6.7-14.9h29h29.1L840,96.4z"/>
</g>
</svg>
