<?xml version="1.0" encoding="utf-8"?>
<svg version="1.1" id="Layer_1" xmlns="http://www.w3.org/2000/svg" xmlns:xlink="http://www.w3.org/1999/xlink" x="0px" y="0px"
	width="100px" height="100px" viewBox="0 0 66.7 66.7" style="enable-background:new 0 0 66.7 66.7;" xml:space="preserve">
<g>
	<circle style="fill:#E8E8E8;" cx="33.3" cy="33.3" r="33.3"/>
	<circle style="fill:#FFFFFF;" cx="33.3" cy="33.3" r="32.7"/>
	<path style="fill:#EC2926;" d="M6.5,26.7h53.6V40H6.5V26.7z"/>
	<path style="fill:#F9DD0C;" d="M53.9,28.9c-0.3,0-0.7,0.3-0.7,0.6c0,0.3,0.3,0.6,0.6,0.6c0.3,0,0.6-0.3,0.6-0.6
		C54.5,29.2,54.3,28.9,53.9,28.9z M53.9,29.7c-0.1,0-0.2-0.1-0.2-0.2s0.1-0.2,0.2-0.2c0.1,0,0.2,0.1,0.2,0.2l0,0
		C54.1,29.7,54.1,29.7,53.9,29.7z M20,31.5c-0.5-0.5-1.3-0.9-2-0.9c-1.5,0-2.8,1.3-2.8,2.9c0,0.7,0.3,1.5,0.8,2
		c0.5,0.5,1.3,0.9,2,0.9c0.7,0,1.5-0.3,2-0.9C21.1,34.4,21.1,32.6,20,31.5L20,31.5z M19.7,35.1c-0.9,0.9-2.3,0.9-3.3,0.1l-0.1-0.1
		c-0.5-0.5-0.7-1.1-0.7-1.7c0-1.3,1.1-2.3,2.3-2.4c0.6,0,1.2,0.3,1.7,0.7C20.5,32.7,20.5,34.3,19.7,35.1L19.7,35.1z M19.5,31.9
		c-0.4-0.4-1-0.6-1.5-0.6c-0.6,0-1.1,0.2-1.5,0.6c-0.9,0.9-0.9,2.3,0,3.1c0.4,0.4,0.9,0.7,1.5,0.6c1.2,0,2.2-1,2.2-2.2
		C20.1,32.9,19.9,32.3,19.5,31.9z M18,35.2c-0.5,0-0.9-0.2-1.2-0.5c-0.7-0.7-0.7-1.7,0-2.4c0.3-0.3,0.7-0.5,1.2-0.5s0.9,0.2,1.2,0.5
		c0.3,0.3,0.5,0.7,0.5,1.2C19.7,34.4,18.9,35.1,18,35.2C18,35.2,18,35.2,18,35.2z M25.6,30.8v5c0,0.5-0.2,1-0.5,1.3
		c-0.3,0.3-0.8,0.5-1.3,0.5c-0.5,0-0.9-0.2-1.3-0.5c-0.3-0.3-0.4-0.5-0.5-0.9h-0.5c0.1,0.5,0.3,0.9,0.7,1.3c0.5,0.5,1.1,0.7,1.7,0.7
		s1.2-0.3,1.7-0.7s0.7-1.1,0.7-1.7v-5H25.6z M23.7,35.9c0.4,0,0.8-0.1,1.1-0.3v0.2c0,0.7-0.5,1.2-1.1,1.2c-0.3,0-0.6-0.1-0.8-0.3
		c-0.1-0.1-0.2-0.3-0.3-0.4h-0.5c0.1,0.3,0.2,0.5,0.4,0.7c0.3,0.3,0.7,0.5,1.2,0.5c0.9,0,1.7-0.7,1.7-1.7v-1.5
		c-0.1,0.2-0.2,0.4-0.4,0.5c-0.3,0.3-0.8,0.5-1.3,0.5s-0.9-0.2-1.3-0.5c-0.3-0.3-0.5-0.8-0.5-1.3v-2.7h-0.5v2.7
		c0,0.6,0.3,1.2,0.7,1.7C22.5,35.7,23.1,35.9,23.7,35.9C23.7,35.9,23.7,35.9,23.7,35.9z M22.6,34.7c0.3,0.3,0.7,0.5,1.2,0.5
		c0.9,0,1.7-0.8,1.7-1.7v-2.7H25v2.7c0,0.7-0.5,1.2-1.1,1.3c-0.3,0-0.6-0.1-0.8-0.3c-0.2-0.2-0.3-0.5-0.3-0.8v-2.7h-0.5v2.7
		C22.1,34,22.3,34.4,22.6,34.7C22.6,34.7,22.6,34.7,22.6,34.7z M34,29.1h0.5v7.2H34V29.1z M33.3,29.1h0.5v7.2h-0.5V29.1z M54,30.8
		h0.5v5.4H54V30.8z M53.3,30.8h0.5v5.4h-0.5V30.8z M56.2,29.1h0.5v7.2h-0.5V29.1z M55.5,29.1h0.5v7.2h-0.5V29.1z M28.1,32.1
		c-0.8,0.8-0.8,2.1,0,3c0.4,0.4,0.9,0.6,1.5,0.6c1.1,0,2.1-0.9,2.1-2.1v-2.1h-2.1C29.1,31.4,28.5,31.7,28.1,32.1z M31.2,33.5
		L31.2,33.5c0,0.9-0.7,1.7-1.6,1.7c-0.4,0-0.8-0.2-1.1-0.5c-0.6-0.6-0.6-1.7,0-2.3c0.3-0.3,0.7-0.5,1.1-0.5h1.6V33.5L31.2,33.5
		C31.2,33.5,31.2,33.5,31.2,33.5z M29.6,30.7c-1.5,0-2.8,1.3-2.8,2.8c0,0.7,0.3,1.5,0.8,2c0.9,0.9,2.5,1.1,3.5,0.3v0.4h0.5v-1.7
		c-0.1,0.3-0.3,0.5-0.5,0.7c-0.4,0.4-1,0.7-1.6,0.7c-0.6,0-1.2-0.3-1.6-0.7c-0.4-0.4-0.7-1-0.7-1.6c0-1.2,1-2.3,2.3-2.3h2.3v4.9h0.5
		v-5.5L29.6,30.7C29.6,30.8,29.6,30.7,29.6,30.7z M48.1,32.1c-0.8,0.8-0.8,2.1,0,3c0.4,0.4,0.9,0.6,1.5,0.6c1.1,0,2.1-0.9,2.1-2.1
		v-2.1h-2.1C49.1,31.4,48.5,31.7,48.1,32.1z M51.2,33.5L51.2,33.5c0,0.9-0.7,1.7-1.6,1.7c-0.4,0-0.8-0.2-1.1-0.5
		c-0.6-0.6-0.6-1.7,0-2.3c0.3-0.3,0.7-0.5,1.1-0.5h1.6V33.5C51.2,33.6,51.2,33.5,51.2,33.5z M49.6,30.7c-1.5,0-2.8,1.3-2.8,2.8
		c0,0.7,0.3,1.5,0.8,2c0.9,0.9,2.5,1.1,3.5,0.3v0.4h0.5v-1.7c-0.1,0.3-0.3,0.5-0.5,0.7c-0.4,0.4-1,0.7-1.6,0.7
		c-0.6,0-1.2-0.3-1.6-0.7c-0.4-0.4-0.7-1-0.7-1.6c0-1.2,1-2.3,2.2-2.3c0,0,0,0,0,0h2.3v4.9h0.5v-5.5L49.6,30.7
		C49.6,30.8,49.6,30.7,49.6,30.7z M13.3,33.6c0.3-0.1,0.5-0.3,0.7-0.5c0.5-0.5,0.7-1.1,0.7-1.8c0-0.6-0.3-1.2-0.7-1.7
		c-0.4-0.5-1-0.7-1.6-0.7h-2.5v7.2h0.5v-6.7h2c0.5,0,0.9,0.2,1.3,0.5c0.3,0.3,0.5,0.8,0.5,1.3c0,0.5-0.2,1.1-0.6,1.5
		c-0.3,0.3-0.7,0.5-1.2,0.5l2,2.9h0.6L13.3,33.6L13.3,33.6L13.3,33.6z M12.2,33.1h0.3c1.1,0,1.6-1.1,1.6-1.8c0-0.5-0.2-0.9-0.5-1.2
		s-0.7-0.5-1.1-0.5h-1.9v6.5h0.5v-6h1.3c0.3,0,0.6,0.1,0.8,0.3c0.2,0.2,0.3,0.5,0.3,0.9c0,0.5-0.4,1.3-1.1,1.3h-1.3l2.5,3.5h0.6
		L12.2,33.1L12.2,33.1C12.2,33.1,12.2,33.1,12.2,33.1z M45.3,29.1h-0.5l1.2,7.1h0.5C46.5,36.2,45.3,29.1,45.3,29.1z M42,33.3
		l-1.9-4.3h-0.5l2.5,5.5l2.5-5.5H44L42,33.3z M37.5,36.2H38l1.3-7.2h-0.5C38.8,29.1,37.5,36.2,37.5,36.2z M42,34.9l-2.6-5.7
		l-1.2,6.9h0.5l0.9-5.3l2.4,5.2l2.4-5.2l0.9,5.3h0.5l-1.2-6.9L42,34.9z"/>
</g>
</svg>
