<?xml version="1.0" encoding="UTF-8"?>
<svg width="500" height="146.06" version="1.1" viewBox="0 0 132.2899 38.6439" xmlns="http://www.w3.org/2000/svg" xmlns:cc="http://creativecommons.org/ns#" xmlns:dc="http://purl.org/dc/elements/1.1/" xmlns:rdf="http://www.w3.org/1999/02/22-rdf-syntax-ns#"><metadata><rdf:RDF><cc:Work rdf:about=""><dc:format>image/svg+xml</dc:format><dc:type rdf:resource="http://purl.org/dc/dcmitype/StillImage"/><dc:title/></cc:Work></rdf:RDF></metadata><g fill="#15366f" stroke-width="1.4286"><path d="m16.667 12.363c-3.274 1.1703-4.4009 4.3408-4.4009 4.3408-0.44071 1.17-1.6111 2.0485-2.9307 2.0485h-6.2084c-1.7101 0-3.1271-1.4162-3.1271-3.1212 0-1.7084 1.1719-3.073 3.1271-3.073l4.9239 0.008142-7.1245-7.1272c-1.2187-1.2204-1.2187-3.1712 0-4.3858 1.2237-1.2179 3.1795-1.2179 4.3991 0l7.0872 7.0572v-4.8647c0-1.7051 1.3694-3.1171 3.128-3.1171 1.7136 0 3.0821 1.4119 3.0821 3.1171v6.1916c0 1.3161-0.78302 2.5374-1.9558 2.9255m-1.1271 26.231c-1.7086 0-3.0795-1.1254-3.0297-3.073l0.0092-4.9429-7.1455 7.1348c-1.2195 1.222-3.2245 1.222-4.3982 0-1.2204-1.2154-1.2204-3.2152 0-4.3832l7.0679-7.0746h-4.8681c-1.7593 0-3.1262-1.4128-3.1262-3.1155 0-1.7077 1.367-3.122 3.1262-3.122h6.2066c1.3186 0 2.4923 0.77886 2.9338 1.9508 1.1246 3.312 4.2984 4.4334 4.2984 4.4334 1.2245 0.43899 2.0558 1.5603 2.0558 2.9255v6.1942c0 1.7068-1.3711 3.073-3.1305 3.073m19.987-12.386-4.9338-0.0049 7.1313 7.1263c1.222 1.2162 1.222 3.168 0 4.3832-1.2195 1.222-3.177 1.222-4.3974 0l-7.0863-7.0688v4.8772c0 1.8551-1.4186 3.122-3.128 3.122-1.7118 0-3.1297-1.4153-3.1297-3.122v-6.1942c0-1.317 0.83135-2.5357 2.0058-2.9255 3.2728-1.1212 4.3965-4.3367 4.3965-4.3367 0.43982-1.1679 1.6136-2.0475 2.933-2.0475h6.2084c1.7118 0 3.1271 1.4144 3.1271 3.122 0 1.7027-1.2703 3.0687-3.1271 3.0687m0.04914-7.5069h-6.2084c-1.3186 0-2.5424-0.78053-2.9321-1.9501-1.1228-3.2672-4.3457-4.4385-4.3457-4.4385-1.1743-0.43985-2.0543-1.5603-2.0543-2.9262v-6.1908c0-1.7051 1.4169-3.068 3.1297-3.068 1.7101 0 3.0787 1.2662 3.0787 3.068l0.0017 4.9614 7.1331-7.1529c1.222-1.2179 3.1778-1.2179 4.3991 0 1.222 1.2145 1.222 3.2138 0 4.4341l-7.0372 7.0205h4.8389c1.7093 0 3.1262 1.4144 3.1262 3.1212 0 1.7068-1.417 3.1212-3.1262 3.1212"/><path d="m56.996 22.71h1.9634l8.8053 15.687h8.9845l-6.2428-10.479-4.0841-6.4318c5.4246-1.9667 7.8115-5.1859 7.8115-10.305 0-7.4482-5.3574-11.048-13.667-11.048-4.3581 0-7.8706 0.05229-10.831 0.21544v38.048h7.2606zm0-16.696c0.72239-0.11295 1.7844-0.16106 2.8441-0.16106 4.5722 0 6.8043 2.5267 6.8043 6.0281 0 3.3988-1.8531 5.2599-6.9975 5.5231-1.1124 0.05689-2.0857-0.0184-2.5874-0.07278z"/><path d="m105.97 26.23c0-4.0619-3.076-6.8083-7.1323-7.6268v-0.1091c3.6585-1.4057 6.4913-5.4808 6.0628-9.0829-0.6857-5.7576-4.7885-9.1869-12.736-9.2147-4.6242-0.01619-9.4099 0.11323-12.624 0.26851v37.901c4.7905 0 8.5632 0.06808 11.103 0.1049 11.571 0.16773 15.586-6.3031 15.326-12.24m-19.324-20.488c1.8814-0.02066 2.728-0.039055 4.3039 0.020198 4.2292 0.159 6.1765 2.0778 6.1765 4.7824 0 3.2498-1.7498 5.7101-7.3061 5.6782-1.1774-0.0067-2.2408 0.0636-3.1428 0.0049zm0 15.72c0.79076-0.05244 2.8294-0.05244 3.3404-0.05244 5.0177 0 7.9289 1.319 8.1558 5.0394 0.19454 3.1874-0.0044 5.6531-7.2173 6.3426-1.5668 0.14974-3.345 0.2068-4.2472 0.15224z"/><path d="m116.27 10.34c0.56335-2.8443 1.8516-4.4762 5.9726-4.4762 2.1698 0 5.1642 0.86957 7.1743 1.5131l1.5914-6.2646c-2.1128-0.53571-5.2899-0.97102-8.4585-1.0941-8.8856-0.34534-13.87 4.3868-13.814 10.949 0.10134 11.932 15.991 9.5146 15.531 16.674-0.21783 3.384-2.9447 4.7661-6.2564 4.7661-2.9268 0-5.5756-0.34337-7.9096-1.3098l-1.6473 6.3016c2.439 0.64984 6.0385 0.98112 9.2876 1.1317 9.0726 0.42042 14.728-4.4005 14.543-11.716-0.30142-11.824-15.431-10.45-16.014-16.43"/></g></svg>
