<?xml version="1.0" encoding="utf-8"?>
<svg version="1.1" id="Layer_1" xmlns="http://www.w3.org/2000/svg" xmlns:xlink="http://www.w3.org/1999/xlink" x="0px" y="0px"
	width="100px" height="100px" viewBox="0 0 357.27 351.99" style="enable-background:new 0 0 357.27 351.99;" xml:space="preserve">
<g id="_2155580257424">
	<polygon style="fill:#00514B;" points="148.26,118 135.59,118 135.59,152.41 126.81,152.41 126.81,118 114.21,118 114.21,110.59 
		148.26,110.59 	"/>
	<polygon style="fill:#00514B;" points="191.6,152.41 182.89,152.41 182.89,133.7 166.55,133.7 166.55,152.41 157.77,152.41 
		157.77,110.59 166.55,110.59 166.55,126.42 182.89,126.42 182.89,110.59 191.6,110.59 	"/>
	<polygon style="fill:#00514B;" points="236.6,152.41 204.85,152.41 204.85,110.59 235.59,110.59 235.59,118 213.42,118 
		213.42,126.78 233.79,126.78 233.79,134.2 213.42,134.2 213.42,145.07 236.6,145.07 	"/>
	<path style="fill:#00514B;" d="M122.56,265.52c0,4.68-1.66,8.35-5.04,11.02s-7.99,4.03-13.82,4.03c-5.69,0-10.22-1.22-13.68-3.74
		c-1.44-0.94-2.66-2.3-3.67-4.03c-1.15-2.02-1.8-4.61-2.02-7.78h9.36c0.29,4.97,3.67,7.49,10.15,7.49c6.26,0,9.43-1.94,9.43-5.98
		c0-2.52-2.23-4.32-6.55-5.33l-3.6-0.86c-5.54-1.3-9.36-2.38-11.38-3.24c-4.46-1.87-6.7-5.54-6.7-11.02c0-4.54,1.58-8.14,4.75-10.66
		c3.17-2.59,7.49-3.82,13.1-3.82c5.47,0,9.79,1.3,12.96,3.89c3.1,2.59,4.9,6.34,5.26,11.09h-9.36c-0.72-4.61-3.82-6.98-9.36-6.98
		c-2.52,0-4.54,0.5-6.05,1.51c-1.44,1.01-2.23,2.3-2.23,4.03c0,2.45,1.66,4.1,4.97,4.9l11.3,2.81c4.39,1.08,7.49,2.59,9.36,4.54
		S122.56,261.99,122.56,265.52z"/>
	<polygon style="fill:#00514B;" points="169.72,279.34 160,279.34 160,258.46 141.86,258.46 141.86,279.34 132.14,279.34 
		132.14,232.83 141.86,232.83 141.86,250.4 160,250.4 160,232.83 169.72,232.83 	"/>
	<path style="fill:#00514B;" d="M214.64,255.94c0-4.97-1.08-8.93-3.38-11.81c-2.23-2.88-5.33-4.32-9.29-4.32
		c-3.89,0-6.91,1.44-9.22,4.32c-2.23,2.88-3.31,6.77-3.31,11.81c0,5.11,1.08,9.14,3.31,12.02c2.3,2.88,5.33,4.32,9.29,4.32
		s6.98-1.44,9.29-4.32C213.56,265.09,214.64,261.06,214.64,255.94z M224.36,256.16c0,7.78-2.02,13.75-6.19,18
		c-4.1,4.25-9.5,6.41-16.13,6.41c-6.84,0-12.31-2.23-16.34-6.55c-4.03-4.39-5.98-10.3-5.98-17.71c0-7.92,2.02-14.04,6.12-18.29
		c4.1-4.32,9.5-6.41,16.2-6.41c6.84,0,12.31,2.16,16.42,6.55C222.42,242.34,224.36,248.38,224.36,256.16z"/>
	<path style="fill:#00514B;" d="M260.65,247.45c0-2.38-0.65-4.03-1.94-5.11c-1.37-1.01-3.53-1.51-6.62-1.51h-7.7v13.68h9
		C258.27,254.5,260.65,252.13,260.65,247.45z M270.37,247.38c0,4.54-1.37,8.21-4.1,11.02c-2.66,2.74-6.26,4.18-10.73,4.18h-11.16
		v16.77h-9.72v-46.51h21.24c4.46,0,7.92,1.3,10.58,3.96C269.07,239.39,270.37,242.91,270.37,247.38z"/>
	<path style="fill:#00514B;" d="M101.97,201.66c0-4.25-2.52-6.34-7.63-6.34H80.88v13.54h13.03
		C99.31,208.86,101.97,206.48,101.97,201.66z M100.82,180.93c0-3.46-2.59-5.26-7.78-5.26H80.88v11.02h12.46
		C98.3,186.68,100.82,184.81,100.82,180.93z M112.63,202.24c0,4.32-1.51,7.92-4.46,10.87c-1.58,1.58-3.17,2.59-4.75,3.17
		c-2.59,0.94-6.34,1.37-11.23,1.37H70.72v-50.68h24.62c4.9,0,8.71,1.15,11.45,3.53c2.81,2.38,4.18,5.62,4.18,9.79
		c0,2.95-0.79,5.4-2.38,7.27c-0.79,0.94-2.09,1.87-3.82,2.74c2.3,1.08,3.96,2.16,4.97,3.38
		C111.62,195.9,112.63,198.78,112.63,202.24z"/>
	<path style="fill:#00514B;" d="M163.24,192.16c0-5.4-1.22-9.72-3.74-12.89c-2.45-3.17-5.83-4.68-10.08-4.68s-7.63,1.51-10.08,4.68
		c-2.45,3.1-3.67,7.42-3.67,12.89c0,5.62,1.22,9.94,3.67,13.1c2.45,3.17,5.83,4.75,10.15,4.75c4.25,0,7.63-1.58,10.08-4.75
		C162.01,202.09,163.24,197.77,163.24,192.16z M173.82,192.37c0,8.42-2.23,15.05-6.77,19.65c-4.46,4.61-10.37,6.98-17.57,6.98
		c-7.49,0-13.46-2.38-17.85-7.2c-4.32-4.75-6.55-11.16-6.55-19.22c0-8.71,2.23-15.34,6.7-20.01s10.37-6.98,17.71-6.98
		c7.42,0,13.39,2.38,17.85,7.13C171.66,177.33,173.82,183.88,173.82,192.37z"/>
	<path style="fill:#00514B;" d="M220.19,191.87c0-10.8-3.89-16.2-11.66-16.2H198.3v33.19h10.37c3.6,0,6.41-1.51,8.42-4.46
		C219.18,201.37,220.19,197.2,220.19,191.87z M230.99,191.51c0,6.48-1.44,12.17-4.25,16.92c-3.6,6.12-9.22,9.22-16.85,9.22h-21.96
		v-50.68h22.39c6.62,0,11.66,2.09,15.26,6.41C229.19,177.61,230.99,183.66,230.99,191.51z"/>
	<polygon style="fill:#00514B;" points="285.34,166.96 268.42,198.64 268.42,217.64 257.77,217.64 257.77,198.49 240.27,166.96 
		252.8,166.96 263.31,188.99 273.32,166.96 	"/>
	<path style="fill:#00514B;" d="M336.53,329.02c0-2.02-1.51-3.02-4.54-3.02h-4.25v6.41h3.74c1.87,0,3.24-0.29,3.96-0.79
		C336.17,331.18,336.53,330.24,336.53,329.02z M340.35,344h-3.53l-5.47-8.93h-3.6V344h-3.17v-20.66h7.92c4.82,0,7.27,1.94,7.27,5.83
		c0,3.17-1.8,5.11-5.33,5.76L340.35,344z M346.04,333.63c0-4.25-1.37-7.78-4.18-10.66c-2.74-2.88-6.19-4.25-10.3-4.25
		c-4.18,0-7.63,1.37-10.44,4.25s-4.25,6.41-4.25,10.66c0,4.25,1.44,7.85,4.18,10.73c2.81,2.81,6.26,4.25,10.44,4.25
		c4.1,0,7.63-1.44,10.37-4.25C344.67,341.48,346.04,337.88,346.04,333.63z M349.71,333.63c0,5.04-1.8,9.29-5.33,12.74
		c-3.46,3.53-7.78,5.26-12.82,5.26c-5.11,0-9.43-1.73-12.96-5.18c-3.53-3.53-5.33-7.78-5.33-12.82c0-5.04,1.8-9.29,5.26-12.74
		c3.53-3.46,7.85-5.18,12.96-5.18c5.04,0,9.36,1.73,12.89,5.18C347.91,324.34,349.71,328.59,349.71,333.63z"/>
	<path style="fill:#00514B;" d="M129.47,0.22c7.92-0.79,16.34,2.45,16.85,11.66c0.5,10.22-11.88,15.84-19.44,19.01
		c-9.94,4.1-18.57,7.85-25.99,12.1c-16.56,9.65-31.32,21.89-41.9,34.2c-21.53,24.84-40.89,63.28-37.65,113.68
		c2.88,43.99,24.33,80.56,48.89,103.39c26.64,24.77,57.45,42.62,108.07,44.06c22.46,0.65,47.73-6.19,63.14-12.96
		c18.07-7.85,31.97-17.93,45.43-30.67c25.56-24.26,45.65-56.66,48.38-103.82c1.51-25.2-2.09-45.93-9.07-65.3
		c-6.55-18.29-16.63-35.42-28.08-47.95c-11.66-12.82-25.56-24.55-41.97-34.2c-7.27-4.25-16.7-8.21-25.92-12.1
		c-8.57-3.6-22.17-8.42-20.3-20.73c1.15-7.63,6.62-10.44,13.46-10.58h1.08c4.39,0.07,9.29,1.15,13.97,2.81
		c8.93,3.02,20.52,8.64,28.58,13.39c16.85,10.01,33.98,24.05,46.22,38.01c24.62,28.15,43.2,65.52,44.06,119.22v7.49
		c-0.5,24.98-7.7,47.23-15.91,66.16c-8.71,19.94-20.23,35.64-34.2,50.18c-28.65,29.81-64.15,49.61-114.11,54
		c-5.11,0.5-10.08,0.72-14.98,0.72h-0.29c-47.52-0.07-86.32-20.01-111.88-41.33c-31.25-25.99-53.56-58.17-62.71-105.98
		C-6.96,151.91,8.45,102.23,30.41,70.27c17.28-25.13,39.09-43.7,67.46-58.82C107.15,6.48,118.6,1.22,129.47,0.22z"/>
	<path style="fill:#00514B;" d="M37.32,180.93c-3.38-2.52-1.94-7.42-1.73-10.8c3.53-43.2,23.04-73.36,48.45-95.97
		c7.49-6.7,20.09-18.07,31.53-20.81c13.82-3.17,22.17,11.3,14.33,21.67c-2.81,3.6-10.15,6.77-15.62,9.5
		c-35.42,17.64-60.98,47.3-73.08,88.19C40.49,175.31,40.41,179.27,37.32,180.93z"/>
	<path style="fill:#00514B;" d="M320.55,180.93c-4.18-1.01-4.39-5.98-5.18-8.64c-6.12-20.66-14.83-38.23-28.08-53.64
		c-12.02-13.9-26.13-24.41-42.84-33.26c-8.42-4.46-21.31-7.42-21.17-19.87c0.14-11.02,12.31-14.98,22.46-10.44
		c9.86,4.46,21.6,13.68,29.45,21.24c21.02,20.23,38.88,46.58,44.49,82.15C320.84,165.59,322.71,173.29,320.55,180.93z"/>
</g>
</svg>
