<?xml version="1.0" encoding="utf-8"?>
<svg version="1.1" id="Layer_1" xmlns="http://www.w3.org/2000/svg" xmlns:xlink="http://www.w3.org/1999/xlink" x="0px" y="0px"
	 viewBox="0 0 580.7 457.58" style="enable-background:new 0 0 580.7 457.58;" xml:space="preserve">
<g id="Layer_2_1_">
	<g id="Layer_1-2">
		<path style="fill:#E1EBAB;" d="M160.01,183.53c-9.29-0.03-18.36,2.79-26,8.07c6.74,24.32,31.93,38.57,56.25,31.83
			c4.91-1.36,9.56-3.53,13.75-6.43C198.51,197.24,180.52,183.56,160.01,183.53z M199.01,215.43c-8.69,5.99-20.59,3.81-26.58-4.88
			c-1.21-1.75-2.12-3.7-2.69-5.75c8.69-5.99,20.59-3.81,26.58,4.88C197.53,211.43,198.44,213.38,199.01,215.43z"/>
		<path style="fill:#2AA169;" d="M411.43,85.87c5.37-7.57,8.29-16.59,8.38-25.87c-23.76-8.53-49.94,3.82-58.47,27.58
			c-1.72,4.78-2.62,9.82-2.68,14.9C377.98,109.42,399.56,102.63,411.43,85.87z M362.84,99.35c0.12-10.55,8.77-19.01,19.32-18.9
			c2.14,0.02,4.25,0.4,6.26,1.13c-0.13,10.56-8.8,19.02-19.37,18.89C366.93,100.44,364.83,100.06,362.84,99.35z"/>
		<path style="fill:#E0E996;" d="M263.15,79.53c-8.77-20.34-23.54-37.52-42.33-49.24c-46.98,37.89-54.34,106.69-16.45,153.67
			c7.64,9.47,16.8,17.59,27.11,24.04C269.69,177.15,282.64,124.61,263.15,79.53z M230.21,195.53c-21.4-13.38-27.9-41.58-14.52-62.98
			c2.7-4.31,6.1-8.15,10.06-11.34c21.4,13.38,27.9,41.58,14.52,62.98C237.57,188.5,234.17,192.34,230.21,195.53z"/>
		<path style="fill:#BF202C;" d="M355.54,45.46c0.58-16.06-3.75-31.92-12.42-45.46c-42.59,10.22-68.83,53.04-58.61,95.63
			c2.06,8.58,5.53,16.75,10.28,24.18C329.44,111.48,354.28,81.07,355.54,45.46z M318.01,61.12c9.87,15.44,5.35,35.95-10.08,45.81
			c-3.11,1.99-6.54,3.45-10.13,4.31c-9.87-15.44-5.35-35.95,10.08-45.81C311,63.44,314.42,61.98,318.01,61.12z"/>
		<path style="fill:#E9E615;" d="M286.55,164.63c-14.14,18.31-22.35,40.5-23.54,63.6c58.4,23.75,125-4.34,148.75-62.75
			c4.78-11.76,7.57-24.23,8.25-36.9C372.48,109.25,317.89,124,286.55,164.63z M329.55,205.68c-13.11,16.98-35.93,23.15-55.81,15.08
			c1.41-26.34,23.91-46.55,50.25-45.13c5.3,0.28,10.51,1.45,15.42,3.44c-0.51,9.67-3.96,18.95-9.89,26.61L329.55,205.68z"/>
		<path style="fill:#29398D;" d="M0.01,368c5.53,0,9.53-0.33,12-1s4.04-1.86,4.73-3.57c0.67-1.69,1-4.46,1-8.3v-112.7
			c0-4-0.38-6.84-1.15-8.53c-0.77-1.69-2.34-2.88-4.72-3.57s-6.34-1-11.87-1v-6.68h57.16c18.58,0,32.44,3.92,41.59,11.75
			c9.15,7.83,13.72,18.36,13.71,31.57c0,14-4.8,25.33-14.4,34c-9.6,8.67-24,13-43.21,13h-15.9v42.17c0,4,0.42,6.84,1.27,8.53
			c0.85,1.69,2.65,2.84,5.42,3.45c2.76,0.62,7.29,0.93,13.59,0.93v6.68H0.01V368z M53.47,304.39c24,0,35.98-12.37,35.95-37.1
			c0-12.28-3-21.46-9-27.53s-15.22-9.11-27.65-9.1c-5.69,0-9.42,0.65-11.18,1.95c-1.76,1.31-2.65,3.35-2.65,6.11v65.67H53.47z"/>
		<path style="fill:#29398D;" d="M209.01,368c5.07,0,8.67-0.31,10.83-0.93s3.49-1.69,4-3.22s0.81-4.3,0.81-8.3V286.9
			c0-4-0.43-6.64-1.27-7.95s-2.47-2.42-5.23-2.42l-8-0.78V272l27.86-7.53h6.45v91.1c0,4,0.31,6.8,0.92,8.41
			c0.7,1.68,2.21,2.9,4,3.23c2.07,0.54,5.64,0.81,10.71,0.81v6.68h-51.08V368z"/>
		<path style="fill:#29398D;" d="M224.79,244.62c-2.37-2.33-3.66-5.55-3.57-8.87c-0.1-3.43,1.19-6.75,3.57-9.22
			c5.12-4.91,13.2-4.91,18.32,0c2.32,2.5,3.56,5.81,3.46,9.22c0.09,3.33-1.21,6.54-3.58,8.87
			C237.86,249.38,229.92,249.38,224.79,244.62L224.79,244.62z"/>
		<path style="fill:#29398D;" d="M199.16,293.25c-1.03,2.21-2.97,3.85-5.32,4.5c-0.74,0.21-1.51,0.31-2.28,0.31
			c-2.97,0-5.73-1.57-7.25-4.12c-1.11-1.88-2.34-3.94-3.55-5.87c-2.41-3.86-7.24-5.45-11.47-3.78h-0.06
			c-7.67,2.68-13.37,13.19-15.52,22.75v48.51c0,4,0.34,6.79,1,8.41s2.18,2.69,4.49,3.22c3.9,0.67,7.86,0.95,11.81,0.82v6.68h-52.79
			V368c5.07,0,8.68-0.31,10.83-0.92s3.48-1.69,4-3.23c0.54-1.53,0.81-4.3,0.81-8.29v-68.65c0-4-0.46-6.67-1.38-8
			c-0.92-1.33-2.69-2-5.3-2l-4.84-0.62v-2.79l6.48-1.77c6.2-1.15,12.18-3.29,17.71-6.34h6.48v21.66l0.3,7.6
			c4-13.4,12-24.53,22.24-27.44c11.33-3.2,21.63,1.51,24.76,12.58C201.59,284.27,201.18,289.06,199.16,293.25z"/>
		<path style="fill:#29398D;" d="M461.66,293.25c-1.03,2.21-2.97,3.85-5.32,4.5c-0.74,0.21-1.51,0.31-2.28,0.31
			c-2.97,0-5.73-1.57-7.25-4.12c-1.11-1.88-2.34-3.94-3.55-5.87c-2.41-3.86-7.24-5.45-11.47-3.78h-0.06
			c-7.67,2.68-13.37,13.19-15.52,22.75v48.51c0,4,0.34,6.79,1,8.41s2.18,2.69,4.49,3.22c3.88,0.67,7.82,0.94,11.75,0.81v6.68h-52.73
			V368c5.07,0,8.68-0.31,10.83-0.92c2.15-0.61,3.49-1.69,4-3.23c0.54-1.53,0.81-4.3,0.81-8.29v-68.65c0-4-0.46-6.67-1.38-8
			c-0.92-1.33-2.69-2-5.3-2l-4.84-0.62v-2.79l6.48-1.77c6.21-1.15,12.18-3.29,17.71-6.34h6.46v21.66l0.3,7.6
			c4-13.4,12-24.53,22.24-27.44c11.33-3.2,21.63,1.51,24.76,12.58C464.07,284.26,463.67,289.05,461.66,293.25z"/>
		<path style="fill:#29398D;" d="M320.83,264.09c28.82,0,54.07,16.67,54.07,56c0,36.2-26,57.16-54.07,57.16
			c-28.59,0-53.84-16.43-53.84-55.74C267.01,285.05,293.01,264.09,320.83,264.09z M321.78,371.09c21,0,31.92-17.39,31.92-50
			c0-31.21-13.82-50.5-33.59-50.5c-21,0-31.92,17.39-31.92,50c0,30.92,13.82,50.41,33.59,50.41L321.78,371.09z"/>
		<path style="fill:#29398D;" d="M580.7,271.45c-6.28,0.67-11.36,3.85-15.23,9.55c-2.11,3.24-3.9,6.68-5.33,10.27l-42.08,104.89
			c-7.1,17.65-14.36,26.47-21.77,26.47c-2.5,0.05-4.94-0.76-6.9-2.3c-2.08-1.42-3.3-3.78-3.26-6.29c-0.08-2.84,1.47-5.47,4-6.77
			c1-0.65,3.71-1.61,8-2.9s7.14-2.7,8.59-4.23c3.22-3.33,6.04-8.05,8.46-14.14l7.38-18.61l-38.34-81.32
			c-2.42-5.23-4.88-8.82-7.38-10.75c-2.9-2.5-6.97-3.79-12.21-3.87v-4.6h49.68v4.6c-7.26,0.08-11.66,1.25-13.19,3.51
			s-1.09,6.13,1.33,11.61l28.06,60.35l21-52.49c2.33-5.81,3.5-10.36,3.5-13.67c0.07-1.51-0.28-3.02-1-4.35
			c-1.94-3.06-6.78-4.73-14.52-5v-4.6h41.12L580.7,271.45z"/>
		<path style="fill:#29398D;" d="M118.22,443v-44.63h22.51v4.1h-17.65v15.89h16.24v4h-16.24V443H118.22z"/>
		<path style="fill:#29398D;" d="M169.4,435.42c-0.06,2.55,0.1,5.1,0.47,7.62h-4.46l-0.47-4.1h-0.17c-2.13,3.09-5.68,4.9-9.44,4.8
			c-4.88,0.26-9.05-3.48-9.31-8.36c-0.01-0.24-0.02-0.48-0.01-0.72c0-7.68,6.68-11.85,18.52-11.79c0-2.69,0-8.79-7.27-8.79
			c-2.77-0.04-5.49,0.76-7.8,2.29l-1.17-3.37c2.92-1.8,6.3-2.73,9.73-2.69c9,0,11.38,6.39,11.38,12.72V435.42z M164.59,426.42
			c-6,0-13.6,0.88-13.6,7.62c0,4.1,2.58,5.92,5.51,5.92c4.3,0.16,7.92-3.2,8.09-7.5L164.59,426.42z"/>
		<path style="fill:#29398D;" d="M193.38,415.19c-0.58-0.08-1.17-0.12-1.76-0.12c-5.28,0-8,5.22-8,10.62V443h-4.86v-22.4
			c0-3.4-0.06-6.5-0.24-9.55h4.28l0.24,6.15h0.17c1.41-4,4.75-6.86,8.68-6.86c0.49,0.03,0.98,0.09,1.47,0.18L193.38,415.19z"/>
		<path style="fill:#29398D;" d="M242.56,443h-4.8v-18.43c0-6.21-2.23-10.2-7-10.2c-3.93,0-7.5,3.69-7.5,8.56V443h-4.85v-19.7
			c0-5.1-2.17-9-6.68-9c-4.17,0-7.86,4.11-7.86,9.09V443h-4.81v-23.7c0-3.29-0.12-5.63-0.23-8.27h4.28l0.29,5.16h0.18
			c1.84-3.67,5.63-5.95,9.73-5.86c4-0.02,7.54,2.58,8.73,6.39h0.12c2.11-3.82,5.34-6.39,10.26-6.39c3.93,0,10.14,2.52,10.14,13.48
			L242.56,443z"/>
		<path style="fill:#29398D;" d="M297.32,443h-4.87l-14.24-23.47c-2.97-4.79-5.64-9.77-8-14.89l-0.23,0.06
			c0.41,5.68,0.47,10.9,0.47,18.64V443h-4.57v-44.63h5.1l14.42,23.51c2.89,4.7,5.49,9.58,7.8,14.59l0.12-0.05
			c-0.47-6.22-0.59-11.55-0.59-18.59v-19.46h4.63L297.32,443z"/>
		<path style="fill:#29398D;" d="M332.14,434.54c0,3.28,0.18,6,0.3,8.5h-4.43l-0.23-5h-0.18c-2.11,3.62-6.01,5.81-10.2,5.74
			c-4.81,0-10.5-2.75-10.5-13.77v-18.92h4.87v18c0,6.21,1.82,10.55,7.15,10.55c4.67-0.07,8.4-3.91,8.33-8.59c0-0.03,0-0.06,0-0.09
			v-19.87h4.86L332.14,434.54z"/>
		<path style="fill:#29398D;" d="M356.36,415.19c-0.58-0.08-1.17-0.12-1.76-0.12c-5.28,0-8,5.22-8,10.62V443h-4.86v-22.4
			c0-3.4-0.06-6.5-0.24-9.55h4.28l0.24,6.15h0.17c1.41-4,4.75-6.86,8.68-6.86c0.49,0.03,0.98,0.09,1.47,0.18L356.36,415.19z"/>
		<path style="fill:#29398D;" d="M377.01,416c-1.85-1.21-4-1.86-6.21-1.87c-3.52,0-5.4,2.17-5.4,4.75c0,2.75,1.82,4,5.92,5.8
			c5.16,2.11,8.15,4.81,8.15,9.62c0,5.68-4.34,9.44-11.31,9.44c-2.94,0.02-5.83-0.73-8.39-2.17l1.35-3.76
			c2.18,1.32,4.66,2.06,7.21,2.17c4.28,0,6.39-2.28,6.39-5.16s-1.7-4.63-5.92-6.33c-5.39-2.17-8.15-5.16-8.15-9
			c0-5,4-9.08,10.44-9.08c2.57-0.03,5.11,0.63,7.33,1.93L377.01,416z"/>
		<path style="fill:#29398D;" d="M409.53,441.69c-3.14,1.4-6.56,2.08-10,2c-9.32,0-14.89-6.57-14.89-16.13
			c0-10,5.63-17.23,14.25-17.23c9.85,0,12.37,9,12.37,14.59c0,1.12-0.06,1.94-0.12,2.7h-21.78c0.06,8.85,5.1,12.2,10.85,12.2
			c2.88,0.06,5.74-0.5,8.38-1.65L409.53,441.69z M406.42,424c0.06-4.34-1.76-10-8-10c-5.86,0-8.44,5.57-8.91,10H406.42z"/>
		<path style="fill:#29398D;" d="M433.1,415.19c-0.58-0.08-1.17-0.12-1.76-0.12c-5.28,0-8,5.22-8,10.62V443h-4.86v-22.4
			c0-3.4-0.06-6.5-0.24-9.55h4.28l0.24,6.15h0.17c1.41-4,4.75-6.86,8.68-6.86c0.49,0.03,0.98,0.09,1.47,0.18L433.1,415.19z"/>
		<path style="fill:#29398D;" d="M462.88,411.09l-8.5,22.63c-3.81,10.38-6.51,16.36-10.5,20.11c-1.84,1.75-4.07,3.03-6.51,3.75
			l-1.35-4.1c7.45-2.76,10.32-10.85,10.32-11.49c-0.03-0.47-0.15-0.92-0.35-1.35l-11.31-29.55h5.33l7,19.4
			c0.82,2.23,1.52,4.75,2,6.69h0.18c0.52-1.94,1.29-4.34,2.05-6.8l6.45-19.29L462.88,411.09z"/>
	</g>
</g>
</svg>
