<?xml version="1.0"?>
<svg xmlns="http://www.w3.org/2000/svg" xmlns:xlink="http://www.w3.org/1999/xlink" xmlns:svgjs="http://svgjs.com/svgjs" version="1.1" width="512" height="512" x="0" y="0" viewBox="0 0 512 512" style="enable-background:new 0 0 512 512" xml:space="preserve" class=""><g><circle xmlns="http://www.w3.org/2000/svg" cx="256" cy="256" fill="#f1f1f1" r="256" data-original="#4a7aff" style="" class=""/><path xmlns="http://www.w3.org/2000/svg" d="m512 256c0-19.575-2.197-38.637-6.358-56.953l-112.041-112.04-274.56 338.993 79.88 79.613c18.354 4.18 37.459 6.387 57.079 6.387 141.385 0 256-114.615 256-256z" fill="#f1f1f1" data-original="#0053bf" style="" class=""/><path xmlns="http://www.w3.org/2000/svg" d="m147.041 114h217.918v284h-217.918z" fill="#b5efff" data-original="#b5efff" style="" class=""/><path xmlns="http://www.w3.org/2000/svg" d="m255.839 114h109.12v284h-109.12z" fill="#80dbff" data-original="#80dbff" style="" class=""/><path xmlns="http://www.w3.org/2000/svg" d="m392.959 426h-273.918v-340h273.918zm-217.918-56h161.918v-228h-161.918z" fill="#ffc200" data-original="#ffc200" style="" class=""/><path xmlns="http://www.w3.org/2000/svg" d="m392.959 86h-137.12v56h81.12v228h-81.12v56h137.12z" fill="#ff9500" data-original="#ff9500" style="" class=""/><circle xmlns="http://www.w3.org/2000/svg" cx="219.68" cy="114" fill="#ffffff" r="18" data-original="#ffffff" style="" class=""/><circle xmlns="http://www.w3.org/2000/svg" cx="147.041" cy="114" fill="#ffffff" r="18" data-original="#ffffff" style="" class=""/><circle xmlns="http://www.w3.org/2000/svg" cx="364.959" cy="114" fill="#dce1eb" r="18" data-original="#dce1eb" style=""/><circle xmlns="http://www.w3.org/2000/svg" cx="292.32" cy="114" fill="#dce1eb" r="18" data-original="#dce1eb" style=""/><circle xmlns="http://www.w3.org/2000/svg" cx="219.68" cy="398.702" fill="#ffffff" r="18" data-original="#ffffff" style="" class=""/><circle xmlns="http://www.w3.org/2000/svg" cx="292.32" cy="398.702" fill="#dce1eb" r="18" data-original="#dce1eb" style=""/><g xmlns="http://www.w3.org/2000/svg" fill="#fff"><circle cx="147.041" cy="185" r="18" fill="#ffffff" data-original="#ffffff" style="" class=""/><circle cx="147.041" cy="256" r="18" fill="#ffffff" data-original="#ffffff" style="" class=""/><circle cx="147.041" cy="327" r="18" fill="#ffffff" data-original="#ffffff" style="" class=""/><circle cx="147.041" cy="398" r="18" fill="#ffffff" data-original="#ffffff" style="" class=""/></g><circle xmlns="http://www.w3.org/2000/svg" cx="364.959" cy="185" fill="#dce1eb" r="18" data-original="#dce1eb" style=""/><circle xmlns="http://www.w3.org/2000/svg" cx="364.959" cy="256" fill="#dce1eb" r="18" data-original="#dce1eb" style=""/><circle xmlns="http://www.w3.org/2000/svg" cx="364.959" cy="327" fill="#dce1eb" r="18" data-original="#dce1eb" style=""/><circle xmlns="http://www.w3.org/2000/svg" cx="364.959" cy="398" fill="#dce1eb" r="18" data-original="#dce1eb" style=""/><path xmlns="http://www.w3.org/2000/svg" d="m227.025 152.631h30v131.492h-30z" fill="#e3fbff" transform="matrix(.707 .707 -.707 .707 225.303 -107.177)" data-original="#e3fbff" style=""/><path xmlns="http://www.w3.org/2000/svg" d="m277.908 161.281-22.069 22.069v42.426l43.282-43.282z" fill="#b5efff" data-original="#b5efff" style="" class=""/><path xmlns="http://www.w3.org/2000/svg" d="m260.141 210.022h30v82.94h-30z" fill="#e3fbff" transform="matrix(.707 .707 -.707 .707 258.419 -120.893)" data-original="#e3fbff" style=""/><path xmlns="http://www.w3.org/2000/svg" d="m315.071 232.775-21.213-21.213-38.019 38.018v41.258l.585.584z" fill="#b5efff" data-original="#b5efff" style="" class=""/></g></svg>
