<?xml version="1.0" encoding="utf-8"?>
<svg version="1.1" id="Layer_1" xmlns="http://www.w3.org/2000/svg" xmlns:xlink="http://www.w3.org/1999/xlink" x="0px" y="0px"
	width="100px" height="100px" viewBox="0 0 66.7 66.7" style="enable-background:new 0 0 66.7 66.7;" xml:space="preserve">
<g>
	<circle style="fill:#E8E8E8;" cx="33.3" cy="33.3" r="33.3"/>
	<circle style="fill:#FFFFFF;" cx="33.3" cy="33.3" r="32.7"/>
	<path style="fill:#EE1C2E;" d="M9.9,26.7h9.7v2.1c-0.7-0.6-2.1-0.8-3.7-0.8v5.7c0,0.9,0.1,1.1,0.4,1.6h-3.1
		c0.3-0.5,0.4-0.7,0.4-1.6v-5.7c-1.6,0-3,0.3-3.7,0.8C9.9,28.9,9.9,26.7,9.9,26.7z M24.2,34.1c1,0,2.7-0.3,3.3-0.8v2.1h-7.1
		c0.3-0.4,0.3-0.7,0.3-1.5v-5.6c0-0.8,0-1.1-0.3-1.5h6.7v2.1c-0.7-0.6-2.3-0.8-3.3-0.8h-0.8v2.3h0.5c0.6,0,1.4,0,2-0.2v1.7
		c-0.5-0.2-1.5-0.2-2-0.2h-0.5v2.5C23.1,34.1,24.2,34.1,24.2,34.1z M33.5,30.1c1.7,0.3,3.1,0.8,3.1,2.7c0,2.1-2.1,2.8-4.3,2.8
		c-1.5,0-2.9-0.1-3.8-0.5v-1.9c1.4,0.9,2.8,1.1,3.8,1.1c1.1,0,2.1-0.3,2.1-1.1s-0.9-1-2.8-1.3c-1.6-0.3-3.1-0.9-3.1-2.5
		c0-2.1,2-2.8,3.9-2.8c1.3,0,2.5,0.1,3.6,0.5v2.1c-0.9-0.8-2.3-1.3-3.7-1.3c-0.9,0-1.8,0.3-1.8,1C30.6,29.7,31.9,29.9,33.5,30.1
		L33.5,30.1z M43.1,26.5c1,0,1.9,0.1,2.6,0.3V29c-0.7-0.7-1.5-1.1-2.5-1.1c-1.9,0-3.3,1.3-3.3,3.2c0,1.9,1.3,3.2,3.3,3.2
		c1.1,0,1.9-0.5,2.5-1.1v2.1c-0.7,0.2-1.5,0.3-2.6,0.3c-3.4,0-5.8-1.7-5.8-4.5C37.2,28.2,39.7,26.5,43.1,26.5z M51.7,26.6
		c-3.5,0-5.5,2-5.5,4.5s2,4.5,5.5,4.5s5.5-2.1,5.5-4.5C57.2,28.6,55.2,26.6,51.7,26.6z M51.7,34.3c-1.7,0-2.9-1.5-2.9-3.2
		s1.1-3.2,2.9-3.2s2.9,1.5,2.9,3.2S53.5,34.3,51.7,34.3L51.7,34.3z"/>
	<path style="fill:#00539F;" d="M51.3,37.7h5.9v0.1l0,0l0,0c-0.7,0.3-1.6,1.2-1.6,1.2c-0.7,0.7-1.2,1.1-2.3,1.1h-5.5l0,0
		c0.6-0.3,1.5-1.3,1.5-1.3C49.5,38.3,50.3,37.7,51.3,37.7 M41.7,37.7h5.9v0.1l0,0l0,0c-0.7,0.3-1.6,1.2-1.6,1.2
		c-0.7,0.7-1.2,1.1-2.3,1.1h-5.6l0,0c0.6-0.3,1.5-1.3,1.5-1.3C40,38.3,40.8,37.7,41.7,37.7 M32.1,37.7H38v0.1l0,0l0,0
		c-0.7,0.3-1.6,1.2-1.6,1.2c-0.7,0.7-1.2,1.1-2.3,1.1h-5.5l0,0c0.6-0.3,1.5-1.3,1.5-1.3C30.5,38.3,31.3,37.7,32.1,37.7 M22.7,37.7
		h5.9v0.1l0,0l0,0c-0.7,0.3-1.6,1.2-1.6,1.2c-0.7,0.7-1.2,1.1-2.3,1.1h-5.6l0,0c0.6-0.3,1.5-1.3,1.5-1.3
		C20.9,38.3,21.7,37.7,22.7,37.7 M13.1,37.7H19v0.1l0,0l0,0c-0.7,0.3-1.6,1.2-1.6,1.2c-0.7,0.7-1.2,1.1-2.3,1.1H9.5l0,0
		c0.6-0.3,1.5-1.3,1.5-1.3C11.5,38.3,12.2,37.7,13.1,37.7"/>
</g>
</svg>
