<svg xmlns="http://www.w3.org/2000/svg" width="301.55" height="200"><defs><linearGradient id="A" x2="73.612" gradientUnits="userSpaceOnUse" x1="73.612" y1="184.25" y2=".03"><stop stop-color="#9a282d" offset="0"/><stop stop-color="#ee2722" offset=".45"/></linearGradient><linearGradient id="B" x2="227.97" gradientUnits="userSpaceOnUse" x1="227.97" y1="200.03" y2=".03"><stop stop-color="#9a282d" offset="0"/><stop stop-color="#9a282d" offset=".1"/><stop stop-color="#ee2722" offset=".6"/></linearGradient></defs><path d="M0 0v172.5c0 6.478 5.25 11.725 11.728 11.725h123.73c6.478 0 11.725-5.248 11.725-11.725V0z" fill="url(#A)"/><path d="M154.36 0v174.22c0 6.475 4.589 11.725 17.564 11.725h2.035c7.073.011 15.566-.755 23.286-1.363 0 0 30.085-3.438 30.085 15.422h1.243c0-18.859 30.085-15.422 30.085-15.422 7.723.607 16.215 1.374 23.289 1.363h2.033c12.977 0 17.566-5.25 17.566-11.725V0z" fill="url(#B)"/><g fill="#fff"><path d="M68.131 130.85h-3.87l-4.719 4.11v-8.665h-2.606v17.436h2.606v-4.645l5.189 4.645h3.743l-7.433-6.693zm-15.613.455c-.767-.49-1.653-.755-2.642-.755-.953 0-1.853.229-2.66.674a5.31 5.31 0 0 0-1.228.886v-1.259h-2.597v12.881h2.597v-4.863c0-1.506.068-2.541.196-3.074a3.69 3.69 0 0 1 1.259-1.983c.63-.533 1.333-.791 2.138-.791.677 0 1.205.157 1.612.483.407.317.675.787.836 1.468.069.286.155.96.155 2.597v6.163h2.581v-6.61c0-1.7-.173-2.93-.53-3.762a4.59 4.59 0 0 0-1.718-2.055m-14.477 8.211a3.88 3.88 0 0 1-1.518 1.506c-.657.364-1.36.56-2.098.56s-1.407-.191-2.057-.56a4.2 4.2 0 0 1-1.518-1.59c-.384-.668-.576-1.387-.576-2.116 0-.742.191-1.455.56-2.129.382-.661.893-1.183 1.524-1.54.641-.38 1.32-.555 2.071-.555 1.187 0 2.138.387 2.934 1.212.818.823 1.214 1.826 1.214 3.053 0 .803-.182 1.522-.537 2.159m.443-7.382c-.407-.357-.839-.668-1.295-.902-.854-.456-1.826-.683-2.869-.683-1.821 0-3.402.663-4.695 1.97s-1.945 2.9-1.945 4.746c0 1.873.641 3.478 1.92 4.796 1.293 1.311 2.849 1.976 4.668 1.976 1.019 0 1.976-.214 2.831-.65.481-.223.947-.535 1.385-.908v1.252h2.563v-12.883h-2.563zm-15.249 7.793a2.36 2.36 0 0 1-1.061.875c-.477.196-1.27.292-2.361.292h-1.43v-5.043h.36c1.304 0 2.212.052 2.705.18.71.173 1.243.472 1.628.92a2.17 2.17 0 0 1 .567 1.495c0 .465-.137.881-.407 1.282m-4.852-10.599h1.304c.983 0 1.675.178 2.091.512.38.306.571.735.571 1.309a1.97 1.97 0 0 1-.366 1.174c-.243.351-.569.614-.98.78-.459.175-1.21.268-2.251.268h-.369zm6.383 5.756c-.301-.265-.684-.501-1.14-.713.349-.304.634-.639.861-1.012.396-.663.598-1.419.598-2.21a4.32 4.32 0 0 0-.681-2.37c-.443-.713-1.07-1.246-1.846-1.578-.753-.344-1.783-.508-3.141-.508h-3.676v17.039h4.926c1.702 0 3.092-.49 4.126-1.466a4.86 4.86 0 0 0 1.585-3.638c0-.717-.148-1.376-.431-1.979-.272-.614-.677-1.144-1.18-1.565m6.032-15.132l.333-.423-2.098-1.587-.317.389c-1.414 1.639-3.119 2.433-5.212 2.433-1.902 0-3.438-.578-4.688-1.801-1.228-1.216-1.828-2.678-1.828-4.492 0-1.189.274-2.269.818-3.206.549-.944 1.331-1.7 2.329-2.262 1.007-.569 2.098-.85 3.274-.85 1.077 0 2.075.221 2.97.65.904.427 1.675 1.059 2.318 1.902l.315.414 2.107-1.601-.306-.427c-.821-1.129-1.884-2.017-3.15-2.646-1.266-.618-2.709-.942-4.27-.942-2.606 0-4.807.863-6.543 2.55-1.74 1.695-2.613 3.802-2.613 6.278 0 2.338.726 4.371 2.154 6.046 1.709 1.97 4.074 2.966 7.017 2.966 1.545 0 2.961-.293 4.211-.879a8.58 8.58 0 0 0 3.177-2.509m94.944-6.683c.744-.668 1.601-.992 2.631-.992.605 0 1.219.148 1.776.405s1.003.598 1.333 1.025c.227.277.431.636.589 1.064h-7.323c.27-.648.596-1.151.994-1.502m6.588 4.942c-.423.726-.821 1.246-1.178 1.551-.346.306-.776.555-1.288.735a4.3 4.3 0 0 1-1.56.283c-1.106 0-2.008-.373-2.75-1.144-.643-.672-1.023-1.482-1.127-2.48h10.581l-.006-.544c-.013-1.722-.49-3.195-1.419-4.357-1.302-1.662-3.058-2.5-5.234-2.5-2.118 0-3.84.832-5.097 2.437a6.87 6.87 0 0 0-1.5 4.351c0 1.713.591 3.271 1.756 4.632 1.192 1.376 2.842 2.078 4.929 2.078.915 0 1.772-.144 2.518-.436s1.437-.715 2.028-1.261c.6-.546 1.12-1.27 1.567-2.145l.236-.472-2.192-1.156zm-14.692 4.729h2.592v-17.436h-2.592zm-5.131-4.209c-.359.63-.841 1.124-1.504 1.493-.67.375-1.353.558-2.109.558a3.98 3.98 0 0 1-2.041-.551 4.14 4.14 0 0 1-1.527-1.578c-.375-.681-.564-1.392-.564-2.131s.182-1.453.553-2.125a4.1 4.1 0 0 1 1.518-1.542c.63-.373 1.329-.558 2.078-.558a3.92 3.92 0 0 1 2.934 1.219c.814.821 1.21 1.823 1.21 3.051 0 .8-.182 1.529-.546 2.165m.447-7.375c-.403-.371-.832-.672-1.288-.917-.859-.452-1.828-.683-2.88-.683-1.821 0-3.397.659-4.69 1.976-1.293 1.311-1.947 2.9-1.947 4.735 0 1.877.65 3.483 1.927 4.807 1.282 1.315 2.851 1.976 4.672 1.976 1.016 0 1.972-.218 2.833-.641.477-.241.942-.549 1.374-.917v1.248h2.577v-12.874h-2.577zM97.3 118.732c-.344.63-.843 1.124-1.5 1.493-.67.375-1.367.558-2.114.558-.724 0-1.414-.191-2.048-.551-.625-.371-1.131-.906-1.52-1.578-.375-.681-.574-1.392-.574-2.131s.193-1.453.562-2.125c.378-.654.893-1.18 1.524-1.542a4 4 0 0 1 2.071-.558 3.93 3.93 0 0 1 2.941 1.219c.803.821 1.194 1.823 1.194 3.051 0 .818-.173 1.522-.537 2.165m.445-7.375c-.4-.371-.834-.672-1.286-.917-.85-.452-1.83-.683-2.88-.683a6.34 6.34 0 0 0-4.686 1.976c-1.295 1.311-1.947 2.9-1.947 4.735 0 1.877.645 3.483 1.92 4.807 1.293 1.315 2.86 1.976 4.677 1.976 1.021 0 1.963-.218 2.826-.641a6.6 6.6 0 0 0 1.376-.917v1.248h2.57v-17.439h-2.57zm-15.798.899c.618 0 1.304.346 2.006 1.025l.38.369 1.734-1.776-.396-.366c-1.205-1.162-2.419-1.751-3.654-1.751-1.061 0-1.972.351-2.689 1.046s-1.084 1.576-1.084 2.615a3.64 3.64 0 0 0 .681 2.152c.443.614 1.207 1.189 2.361 1.792 1.221.621 1.614.974 1.749 1.12.2.252.299.517.299.825 0 .378-.155.695-.463.98-.331.306-.719.443-1.192.443-.71 0-1.389-.366-2.057-1.127l-.412-.454-1.648 1.866.272.355c.447.584 1.037 1.048 1.72 1.38.69.335 1.423.504 2.185.504 1.16 0 2.145-.389 2.927-1.169.785-.773 1.178-1.734 1.178-2.847a3.63 3.63 0 0 0-.699-2.172c-.454-.612-1.277-1.223-2.493-1.848-1.05-.553-1.479-.911-1.65-1.12-.209-.25-.301-.493-.301-.753a.95.95 0 0 1 .344-.742c.25-.238.544-.346.902-.346m-15.126 2.516c.254-.65.593-1.151.987-1.502.744-.668 1.596-.992 2.628-.992.616 0 1.219.148 1.776.405s1.005.598 1.338 1.025c.236.277.425.636.587 1.064zm3.593-5.016c-2.12 0-3.838.83-5.104 2.437-.996 1.27-1.491 2.725-1.491 4.351 0 1.713.591 3.271 1.756 4.629 1.185 1.378 2.838 2.078 4.922 2.078.924 0 1.767-.141 2.525-.436a6.19 6.19 0 0 0 2.023-1.259c.598-.549 1.129-1.27 1.567-2.145l.24-.474-2.19-1.153-.272.43c-.423.724-.816 1.243-1.174 1.551a3.91 3.91 0 0 1-1.288.733 4.22 4.22 0 0 1-1.565.286 3.66 3.66 0 0 1-2.75-1.144c-.634-.672-1.012-1.484-1.124-2.48h10.581v-.546c-.013-1.722-.499-3.195-1.423-4.355-1.302-1.664-3.065-2.5-5.234-2.5m-15.028 11.025a4.04 4.04 0 0 1-2.05-.551c-.627-.371-1.142-.906-1.513-1.578-.382-.681-.58-1.392-.58-2.129s.193-1.452.56-2.127a4.16 4.16 0 0 1 1.522-1.542c.641-.373 1.32-.555 2.078-.555 1.178 0 2.138.4 2.939 1.219s1.205 1.821 1.205 3.049c0 .803-.189 1.529-.549 2.165-.342.632-.841 1.124-1.504 1.495s-1.367.555-2.107.555m4.061.913v1.246h2.568v-17.436h-2.568v5.855c-.396-.373-.834-.674-1.286-.92-.859-.452-1.83-.683-2.878-.683-1.823 0-3.397.661-4.699 1.976-1.286 1.311-1.94 2.903-1.94 4.735 0 1.877.645 3.483 1.922 4.809 1.293 1.313 2.86 1.976 4.67 1.976 1.019 0 1.97-.221 2.835-.643a6.65 6.65 0 0 0 1.376-.915m-13.352-11.627l-3.593 8.283-3.708-8.283h-2.77l5.09 11.455-2.516 5.742h2.77l7.521-17.198zm-10.941-4.565h-2.595v17.436h2.595zm31.529-30.837l11.111-.131c2.354 0 4.281 1.913 4.281 4.276 0 2.356-1.927 4.263-4.281 4.263H66.682zM39.166 88.302c9.342 0 17.569-4.771 22.394-11.995v11.995h16.306c5.295 0 9.54-4.191 9.54-9.491 0-2.727-1.14-5.194-2.966-6.939a9.59 9.59 0 0 0 2.966-6.939 9.62 9.62 0 0 0-9.612-9.607h-3.906l-5.331 5.338h9.236c2.354 0 4.281 1.913 4.281 4.27a4.28 4.28 0 0 1-4.281 4.263H58.53c-3.087 7.665-10.59 13.065-19.363 13.065-11.532 0-20.865-9.338-20.865-20.871 0-11.527 9.333-20.871 20.865-20.871 9.295 0 17.164 6.071 19.869 14.466l4.596-4.812c-4.254-9.254-13.616-15.68-24.465-15.68-14.858 0-26.902 12.044-26.902 26.897 0 14.862 12.044 26.911 26.902 26.911M55.83 69.372l22.038-22.893.038-.038v-7.32L49.008 69.372z"/><path d="M237.98 135.01h8.96c-.065-1.054-.528-1.949-1.372-2.68-.845-.771-1.88-1.158-3.071-1.158a4.35 4.35 0 0 0-2.95 1.12c-.798.706-1.322 1.612-1.567 2.718m5.183 11.339c-2.687 0-4.958-.908-6.747-2.7-1.738-1.772-2.624-4.052-2.624-6.786 0-2.581.87-4.791 2.579-6.581 1.592-1.639 3.678-2.471 6.203-2.471 2.406 0 4.452.87 6.089 2.583 1.693 1.774 2.478 4.018 2.345 6.676l-.045.854c0 .355-.202.562-.564.562H237.96c.182 1.133.699 2.098 1.545 2.878 1.023.868 2.329 1.313 3.887 1.313a6.41 6.41 0 0 0 3.75-1.176c.317-.214.6-.191.825.022l1.819 1.864c.149.148.218.299.207.45-.006.144-.087.265-.227.371-1.891 1.417-4.112 2.14-6.606 2.14m-35.668-11.339h8.967c-.07-1.066-.521-1.945-1.369-2.68-.85-.771-1.884-1.158-3.078-1.158-1.113 0-2.1.378-2.952 1.12-.789.706-1.315 1.617-1.567 2.718m5.187 11.339c-2.687 0-4.955-.908-6.745-2.7-1.74-1.772-2.619-4.052-2.619-6.786 0-2.581.866-4.791 2.577-6.581 1.59-1.639 3.676-2.471 6.201-2.471 2.404 0 4.452.87 6.089 2.583 1.691 1.772 2.476 4.018 2.345 6.676l-.038.854c0 .355-.214.562-.576.562h-12.434c.175 1.133.704 2.098 1.542 2.878 1.023.868 2.325 1.313 3.89 1.313 1.38 0 2.644-.398 3.744-1.176.315-.209.607-.196.823.022l1.823 1.864c.157.148.222.299.209.45-.002.144-.083.265-.225.371-1.886 1.417-4.114 2.14-6.608 2.14m-11.833-.349h-2.687c-.358 0-.576-.216-.576-.576v-9.066c0-1.689-.221-2.826-.661-3.386-.744-.947-1.747-1.414-3.042-1.414-.888 0-1.657.277-2.3.816-.27.221-.495.452-.668.69-.171.229-.31.506-.418.825-.117.317-.193.711-.25 1.165a17.02 17.02 0 0 0-.077 1.655v8.715c0 .364-.207.576-.567.576h-2.689c-.365 0-.569-.211-.569-.576v-23.509c0-.365.205-.574.569-.574h2.689c.353 0 .567.216.567.574v7.206c1.108-.868 2.536-1.309 4.254-1.309 2.019 0 3.768.845 5.198 2.511 1.196 1.405 1.794 3.289 1.794 5.605v9.495c0 .36-.212.576-.569.576m66.602-30.024c-3.865 0-5.826-2.039-5.826-6.057v-8.652h-3.579a.52.52 0 0 1-.569-.574v-2.329c0-.365.205-.574.569-.574h3.579v-5.855c0-.358.209-.569.571-.569h2.687a.52.52 0 0 1 .571.569v5.855h5.149a.52.52 0 0 1 .569.574v2.329a.52.52 0 0 1-.569.574h-5.149v8.415c0 1.974.681 2.927 2.075 2.927.857 0 1.724-.427 2.595-1.268.218-.213.503-.227.787-.013l1.688 1.65c.259.259.241.564-.045.845-1.56 1.43-3.278 2.154-5.106 2.154m-19.106 0c-3.038 0-5.183-.958-6.381-2.849-.791-1.216-1.198-2.833-1.198-4.807v-9.956c0-.365.209-.574.574-.574h2.687c.358 0 .569.209.569.574v9.142c0 1.45.099 2.464.299 3.013.472 1.25 1.587 1.862 3.404 1.862 1.803 0 2.925-.612 3.417-1.871.225-.544.335-1.554.335-3.004v-9.142a.52.52 0 0 1 .574-.574h2.689c.362 0 .567.209.567.574v9.956c0 1.972-.398 3.591-1.192 4.809-1.198 1.889-3.332 2.847-6.343 2.847m-19.082-14.941c-1.524 0-2.84.569-3.914 1.695-1.079 1.077-1.621 2.424-1.621 3.998s.542 2.918 1.621 3.991c1.097 1.102 2.408 1.664 3.914 1.664 1.5 0 2.82-.562 3.914-1.664 1.079-1.073 1.619-2.415 1.619-3.991s-.54-2.921-1.619-3.995c-1.095-1.126-2.415-1.698-3.914-1.698m0 14.94c-2.525 0-4.755-.904-6.624-2.698-1.821-1.819-2.745-4.022-2.745-6.549 0-2.559.924-4.76 2.741-6.549 1.846-1.814 4.07-2.736 6.628-2.736s4.773.922 6.59 2.736c1.844 1.763 2.781 3.964 2.781 6.549 0 2.527-.938 4.731-2.781 6.549-1.846 1.794-4.061 2.698-6.59 2.698m-23.003-3.926l1.156.117 1.306.057c1.581 0 2.932-.443 4.004-1.313 1.174-1.028 1.772-2.428 1.772-4.182 0-1.958-.56-3.445-1.648-4.418-.78-.693-1.661-1.041-2.649-1.041-1.407 0-2.73.564-3.941 1.689zm2.071 3.928c-.906 0-1.819-.045-2.718-.122l-2.64-.31c-.342-.032-.544-.238-.544-.564V91.987c0-.362.212-.571.571-.571h2.687c.358 0 .574.212.574.571v6.536c1.09-.722 2.412-1.079 3.941-1.079 1.794 0 3.481.614 5.021 1.828 2.134 1.716 3.215 4.225 3.215 7.458 0 2.95-.974 5.261-2.907 6.876-1.81 1.569-4.234 2.374-7.199 2.374m-12.765-8.462c-2.399.25-4.067.578-4.956.976-1.201.51-1.722 1.214-1.605 2.141.077.521.328.935.785 1.257.459.331 1.005.521 1.619.574 1.715.131 3.121-.331 4.157-1.335zm-4.214 8.461c-1.675 0-3.136-.526-4.362-1.563-1.201-1.07-1.812-2.451-1.812-4.108 0-2.617 1.639-4.418 4.883-5.351 1.216-.355 3.08-.668 5.513-.922.038-.848-.196-1.56-.719-2.167-.551-.639-1.347-.944-2.408-.944-1.412 0-2.869.508-4.337 1.52-.358.207-.616.128-.762-.135l-1.401-1.972c-.097-.119-.236-.405.14-.776 2.05-1.41 4.178-2.118 6.361-2.118 1.682 0 3.143.405 4.342 1.198 1.754 1.171 2.649 3.069 2.649 5.639v10.774a.52.52 0 0 1-.576.574h-2.682c-.391 0-.614-.209-.614-.574v-.191c-1.126.742-2.541 1.115-4.214 1.115M234.2 74.442h8.962c-.072-1.048-.524-1.949-1.365-2.671-.854-.773-1.886-1.165-3.074-1.165a4.37 4.37 0 0 0-2.952 1.12c-.796.706-1.324 1.617-1.572 2.716m5.185 11.341c-2.685 0-4.956-.911-6.743-2.7-1.743-1.765-2.619-4.045-2.619-6.779 0-2.579.861-4.798 2.577-6.586 1.585-1.641 3.669-2.475 6.206-2.475 2.399 0 4.443.877 6.086 2.588 1.689 1.774 2.473 4.018 2.347 6.673l-.038.854c0 .351-.216.564-.578.564h-12.438c.184 1.129.706 2.1 1.549 2.876 1.018.868 2.334 1.311 3.887 1.311 1.383 0 2.644-.393 3.746-1.171.312-.218.605-.196.821.019l1.826 1.868c.149.146.216.297.207.45-.006.14-.085.261-.227.368-1.886 1.412-4.112 2.138-6.608 2.138m-27.22-8.463c-2.401.25-4.072.58-4.955.974-1.198.517-1.725 1.221-1.61 2.145.074.526.331.94.782 1.257a3.15 3.15 0 0 0 1.628.569c1.691.128 3.107-.324 4.155-1.335zm-4.216 8.463c-1.673 0-3.137-.524-4.36-1.56-1.203-1.07-1.817-2.451-1.817-4.11 0-2.622 1.644-4.418 4.883-5.347 1.223-.358 3.078-.67 5.52-.929.032-.848-.2-1.556-.728-2.163-.546-.63-1.353-.951-2.406-.951-1.414 0-2.871.515-4.333 1.527-.366.205-.621.128-.764-.141l-1.394-1.967c-.108-.121-.24-.407.132-.778 2.048-1.412 4.178-2.118 6.358-2.118 1.691 0 3.155.405 4.339 1.203 1.761 1.167 2.655 3.067 2.655 5.634v10.779c0 .359-.214.574-.576.574h-2.68c-.398 0-.616-.209-.616-.574v-.193c-1.122.74-2.538 1.115-4.216 1.115m-13.724-.001c-2.653 0-4.913-.895-6.705-2.658-1.817-1.765-2.736-3.998-2.736-6.626 0-2.505.947-4.697 2.817-6.516 1.839-1.819 4.07-2.739 6.624-2.739 1.812 0 3.683.596 5.547 1.781.205.173.294.328.297.49.004.083-.019.212-.149.34l-1.493 2.156c-.231.268-.486.317-.751.171-1.167-.787-2.311-1.185-3.413-1.185-1.52 0-2.858.558-3.953 1.659-1.054 1.097-1.587 2.39-1.587 3.842 0 1.524.526 2.858 1.556 3.962.992 1.066 2.334 1.61 3.984 1.61 1.309 0 2.455-.306 3.406-.906a.66.66 0 0 1 .369-.126c.121 0 .294.045.431.265l1.437 2.093c.11.166.142.324.11.468-.038.135-.132.252-.294.337-1.349 1.043-3.206 1.581-5.497 1.581m28.089-37.689h8.964c-.07-1.05-.53-1.949-1.369-2.671-.85-.778-1.877-1.167-3.069-1.167-1.117 0-2.109.375-2.954 1.122-.796.704-1.318 1.617-1.572 2.716m5.185 11.336c-2.685 0-4.953-.908-6.745-2.698-1.738-1.767-2.617-4.049-2.617-6.781 0-2.583.866-4.796 2.577-6.587 1.585-1.637 3.672-2.469 6.203-2.469 2.399 0 4.45.875 6.091 2.586 1.686 1.772 2.473 4.016 2.341 6.671l-.038.857c0 .351-.212.564-.571.564h-12.44a4.86 4.86 0 0 0 1.551 2.876c1.018.863 2.325 1.306 3.885 1.306 1.381 0 2.644-.389 3.748-1.169.312-.212.605-.193.821.019l1.828 1.871c.15.148.216.301.207.445s-.09.268-.229.373c-1.889 1.416-4.115 2.136-6.61 2.136m-15.955-.233h-2.608c-.317 0-.56-.222-.71-.666l-6.217-18.362-6.169 18.362c-.159.443-.396.666-.713.666h-2.61c-.238 0-.562-.117-.764-.666l-8.51-25.373a.74.74 0 0 1 .097-.652.7.7 0 0 1 .574-.29h2.806c.319 0 .56.227.719.666l6.356 19.664 6.37-19.657c.191-.447.445-.672.762-.672h2.217c.308 0 .562.225.751.659l6.367 19.671 6.367-19.657c.196-.558.497-.672.722-.672h2.795a.68.68 0 0 1 .576.29c.14.189.178.412.106.648L212.3 58.527c-.193.549-.519.666-.756.666m14.207 86.805h-2.685a.52.52 0 0 1-.574-.576v-16.69c0-.36.221-.569.574-.569h2.685c.358 0 .571.206.571.569v.893c1.113-1.207 2.415-1.814 3.869-1.814 1.722 0 2.469.236 3.982 1.27.11.074.254.193.279.378.032.238-.135.447-.423.787-.654.794-1.142 1.99-1.147 2.001-.135.337-.326.412-.472.412-.108 0-.214-.045-.312-.128l-.461-.382a1.37 1.37 0 0 0-.214-.14c-.425-.247-.83-.398-1.219-.452-.038 0-.097-.005-.155-.005-.935 0-1.729.402-2.406 1.223-.879 1.084-1.322 2.68-1.322 4.749v7.899c0 .364-.214.576-.571.576m-3.599-60.393h-2.685c-.365 0-.569-.209-.569-.574V68.336a.51.51 0 0 1 .569-.567h2.685c.365 0 .571.205.571.567v.89c1.12-1.201 2.412-1.81 3.861-1.81 1.725 0 2.473.238 3.993 1.27.108.078.256.198.277.38.038.236-.14.443-.416.787-.657.791-1.151 1.99-1.156 2.001-.131.34-.326.412-.461.412-.115 0-.227-.045-.328-.133l-.459-.38c-.088-.072-.153-.117-.2-.14-.43-.247-.836-.398-1.23-.452h-.146c-.942 0-1.734.398-2.41 1.225-.877 1.075-1.324 2.671-1.324 4.742v7.901c0 .365-.206.574-.571.574"/></g></svg>