<?xml version="1.0" encoding="utf-8"?>
<svg version="1.1" id="Layer_1" xmlns="http://www.w3.org/2000/svg" xmlns:xlink="http://www.w3.org/1999/xlink" x="0px" y="0px"
	width="100px" height="100px" viewBox="0 0 66.7 66.7" style="enable-background:new 0 0 66.7 66.7;" xml:space="preserve">
<g>
	<path d="M33.3,65C15.9,65,1.7,50.8,1.7,33.3S15.9,1.7,33.3,1.7S65,15.9,65,33.3S50.8,65,33.3,65 M33.3,0C15,0,0,15,0,33.3
		s15,33.3,33.3,33.3s33.3-15,33.3-33.3S51.7,0,33.3,0 M25.7,57c0-0.4,0.5-0.7,1.5-0.7c0.6,0,1.2,0.1,1.7,0.4
		c0.2,0.1,0.3,0.2,0.5,0.3c-0.7,0.5-1.5,0.7-2.3,0.7C26.2,57.8,25.7,57.4,25.7,57 M11.4,22.5c0.3,0,0.5,0.1,0.8,0.1
		c-2.8,1.9-5.3,4.3-6.8,7.3c-0.1,0.3-0.1,0.3-0.1-0.1C5.3,26.1,8.1,22.5,11.4,22.5 M17.2,17.5c-1.1,0-1.6-0.5-1.6-1.1
		c0-0.9,0.9-1.1,0.9-1.9c0-0.6-0.5-1.1-0.9-1.1c-0.1,0-0.3,0.1-0.3,0.1c0,0.1,0.3,0.1,0.3,0.5c0,1-2.1,0.7-2.1,2.1
		c0,0.9,0.6,1.7,2.4,2c0.3,0.1,0.2,0.1,0,0.1c-0.5,0.1-1,0.1-1.5,0.1c-1.9,0-2.7-0.7-2.7-1.6c0-2.1,3.5-5.9,7.3-8.1
		c4.5-2.7,7.7-3.4,9.5-3.4c1.5,0,2.1,0.4,2.1,1.5c0,0.6-0.2,1.1-0.5,1.6c-0.3,0-0.5-0.1-0.8-0.1c-3.2,0-4.5,1.2-4.5,2.6
		c-1.1,0-1.7-0.4-1.7-1c0-1.4,2.7-1.1,2.7-2.7c0-0.3-0.1-0.5-0.2-0.5c-0.3,0,0.1,0.9-2.3,1.2c-1.7,0.2-2.5,0.6-2.5,1.6
		c0,1.5,1.6,2,4.1,2h0.1c0.4,1.3,2.1,1.8,3.8,1.7c1.3-0.1,2.2,0,2.2,0.6c0,0.7-1.3,0.8-2.8,0.8h-0.5c-2.4-1.5-5.4-2.6-7.5-2.6
		c-1.4,0-2.5,0.5-2.5,1.7s1.3,1.9,2.3,1.9c0.5,0,1-0.1,1-0.3c0-0.3-0.9-0.4-0.9-1.1c0-0.5,0.5-0.8,1.1-0.8c1.5,0,3.2,0.6,4.7,1.5
		C22.5,15.7,19.8,17.6,17.2,17.5 M26.1,10.8L26.1,10.8c0-1.1,1.4-1.7,2.6-1.7c0.2,0,0.4,0,0.6,0.1C28.5,10,27.3,10.6,26.1,10.8
		 M30.9,57.1c0.9-0.9,1.5-1.9,1.5-2.8c0-1.3-1-2.1-2.7-2.1c-2.7,0-3.4,0.9-6.5,0.9c-0.7,0-1.5-0.2-1.5-0.9c0-0.8,1.1-1.2,3.1-1.4
		c3.1-0.3,6.7-1.5,6.7-4.1c0-1.3-0.9-2.1-2.3-2.1c-2.3,0-2.7,1.8-3.1,2.4c-0.5,0.8-0.9,0.1-0.9,0.5c0,0.3,0.5,0.4,0.6,0.4
		c1.7,0,1.3-1.9,2.8-1.9c0.4,0,0.7,0.3,0.6,0.7c0,2.1-3.2,2.8-6.3,2.8c-4.1,0-6.6-0.5-8.9-1.5c0.8,0.1,1.5,0.1,2.3,0.1
		c6.4,0,9.5-2.5,9.5-4.3c0-1.5-1.1-2.3-2.8-2.3c-4,0-5.7,2.5-8.5,2.5c-0.9,0-1.5-0.1-1.5-0.7c0-0.7,1.1-1.1,1.1-1.9
		c0-0.3-0.3-0.6-0.6-0.6c-0.1,0-0.2,0-0.2,0.1s0.1,0.1,0.1,0.3c0,1.1-3,1.2-3,2.6c0,1.1,1.5,1.5,2.6,1.5c3.9,0,6.4-2.4,8.5-2.4
		c1.1,0,1.8,0.5,1.8,1.7c0,1.4-1.7,2.9-7.1,2.9c-8.5,0-11.3-5.1-11.3-11.7c0-5.3,3.5-9.7,8-12.6c0.3,0.3,0.5,0.7,0.5,1.1
		c0,2.1-3.4,1.6-3.4,3.2c0,1.7,3.2,1.1,3.2,2.3c0,0.6-0.5,0.7-0.5,0.9c0,0.1,0.1,0.1,0.2,0.1c0.5,0,1.5-0.6,1.5-1.6
		c0-1.3-2.1-0.9-2.1-1.7c0-1.1,3.4-0.7,3.4-3.6c0-0.7-0.3-1.3-0.9-1.9c3.9-2.1,8.5-3.3,12.2-3.3c2.5,0,2.7,1,2.7,1.3
		c0,0.4-0.2,0.7-0.5,0.9c-0.1,0-0.1,0.1-0.1,0.1c0,0.1,0.1,0.1,0.3,0.1c1.3,0,2.3-0.8,2.3-2c0-1.1-1.2-2.4-2.9-3.7h1.1
		c1.3,0,2.6-0.6,2.6-1.3c0-2.3-5-0.7-6-2.7c1.5-0.3,3-0.9,4.2-1.9c0.4,0.3,0.6,0.6,0.6,0.9c0,1.2-1.2,0.9-1.2,1.2
		c0,0.3,0.3,0.4,0.8,0.4c1,0,2-0.7,2-1.6c0-0.7-0.5-1.3-1.3-1.7c0.8-0.9,1.3-1.8,1.3-2.7c0-1.7-1.3-2.3-3.5-2.3
		c-2.5,0-6.1,1-10.2,3.2c-2.7,1.5-5.1,3.3-6.9,5.1S9.2,15.6,9.2,17c0,1.5,1.5,2.2,4.8,2.2c3.6,0,6.3-1.5,9-2.5
		c1.2-0.5,2.5-0.9,3.8-1.1c1.2,0.7,2.2,1.5,2.6,2.1c0.1,0.1,0.1,0.1-0.1,0.1c-0.7-0.1-1.3-0.2-2.1-0.2c-3.2,0-8.5,1.2-13.1,3.8
		c-0.7-0.5-1.6-0.7-2.4-0.7c-5.7,0-8.3,6.2-8.3,12.9c0,1.5,0.1,3.1,0.3,4.6c0.5,2.9,1.7,5.6,4.1,7.5c2.2,2,6.1,4.5,14.5,5.1
		c-0.5,0-2.3,0.7-2.3,1.7c0,0.9,1,1.3,2.8,1.3c2.4,0,3.9-0.8,5.5-0.8c1.5,0,2.1,0.7,2.1,1.9c0,0.5-0.1,1-0.5,1.5
		c-1.7-1.1-3.6-1.8-5.7-1.8c-2,0-3.9,0.9-3.9,2.3c0,1.3,1.5,2,2.7,2c0.6,0,1-0.2,1-0.4c0-0.1-0.1-0.1-0.3-0.1
		c-0.5,0-1.5-0.6-1.5-1.5c0-0.9,0.7-1.5,2.1-1.5c0.4,0,0.7,0,1.1,0.1c0.1,0,0.1,0.1,0,0.1c-0.5,0.1-1.3,0.6-1.3,1.5
		c0,1.1,1.1,1.7,2.7,1.7c1.1,0,2.3-0.4,3.2-1.1c0.5,0.6,0.9,1.3,0.9,1.9c0,1-0.9,1.7-2.4,1.7c-1.1,0-2.3-0.2-3.3-0.5
		c-2.5-0.7-4.8-1.7-6.9-3.1c-3.2-2.1-4.9-3.5-4.9-4.9c0-0.5,0.3-0.9,0.9-0.9h0.1c1.8,0,1.5,2.6,3.5,2.6c0.6,0,1-0.4,1-0.8
		c0-0.1-0.1-0.1-0.1-0.1c-0.1,0-0.3,0.3-0.6,0.3c-0.6,0-0.8-0.5-1.1-0.9c-0.7-1.5-1.6-2.7-3.5-2.7c-1.3,0-2.3,0.7-2.3,1.9
		c0,2.5,2.9,4.6,5.9,6.4c3.2,2,6.7,3.5,8.6,3.9c1.3,0.3,2.6,0.5,3.9,0.5c1.7,0,3-0.9,3-2.3C32.8,59.5,32.1,58.3,30.9,57.1
		 M39.5,56.3c1,0,1.5,0.3,1.5,0.7c0,0.4-0.5,0.8-1.3,0.8c-0.8,0-1.6-0.3-2.3-0.7c0.1-0.1,0.3-0.3,0.5-0.3
		C38.4,56.4,38.9,56.3,39.5,56.3 M61.3,29.9c-1.5-3.1-4-5.5-6.8-7.3c0.3-0.1,0.5-0.1,0.8-0.1c3.3,0,6.1,3.7,6.1,7.4
		C61.5,30.2,61.5,30.2,61.3,29.9 M38.7,14.7c-1.5,0-2.8-0.1-2.8-0.8c0-0.5,0.9-0.7,2.2-0.6c1.7,0.1,3.4-0.4,3.8-1.7H42
		c2.5,0,4.1-0.6,4.1-2c0-1-0.9-1.3-2.5-1.6c-2.4-0.3-2.1-1.2-2.3-1.2c-0.1,0-0.2,0.2-0.2,0.5c0,1.5,2.7,1.2,2.7,2.7
		c0,0.6-0.6,1-1.7,1c0-1.3-1.3-2.6-4.5-2.6c-0.3,0-0.5,0-0.8,0.1c-0.3-0.5-0.5-1.1-0.5-1.6c0-1.1,0.6-1.5,2.1-1.5
		c1.8,0,5,0.7,9.6,3.4c3.7,2.2,7.3,6,7.3,8.1c0,0.9-0.9,1.6-2.7,1.6c-0.5,0-1,0-1.5-0.1c-0.2-0.1-0.3-0.1,0-0.1
		c1.8-0.3,2.4-1.1,2.4-2c0-1.5-2.1-1.1-2.1-2.1c0-0.3,0.3-0.3,0.3-0.5c0-0.1-0.1-0.1-0.3-0.1c-0.4,0-0.9,0.5-0.9,1.1
		c0,0.9,0.9,1.1,0.9,1.9c0,0.7-0.5,1.1-1.6,1.1c-2.7,0-5.3-1.9-8.7-2.5c1.5-0.8,3.3-1.5,4.7-1.5c0.7,0,1.1,0.3,1.1,0.8
		c0,0.7-0.9,0.8-0.9,1.1c0,0.3,0.4,0.3,0.9,0.3c0.9,0,2.3-0.7,2.3-1.9s-1.1-1.7-2.5-1.7c-2.1,0-5.1,1.1-7.5,2.6
		C38.9,14.7,38.7,14.7,38.7,14.7 M37.3,9.1c0.2,0,0.4-0.1,0.6-0.1c1.2,0,2.6,0.6,2.6,1.7l0,0C39.3,10.5,38.2,10,37.3,9.1 M54.9,20.7
		c-0.9,0-1.7,0.3-2.4,0.7c-4.7-2.6-9.9-3.8-13.1-3.8c-0.7,0-1.4,0.1-2.1,0.2c-0.1,0-0.1,0-0.1-0.1c0.4-0.5,1.3-1.3,2.6-2.1
		c1.3,0.2,2.6,0.5,3.8,1.1c2.7,1.1,5.4,2.5,9,2.5c3.3,0,4.8-0.7,4.8-2.2c0-1.3-1.1-3.1-2.9-4.9c-1.8-1.7-4.3-3.6-6.9-5.1
		c-4.1-2.3-7.7-3.3-10.2-3.3c-2.1,0-3.5,0.6-3.5,2.3c0,0.9,0.5,1.8,1.3,2.7c-0.8,0.4-1.3,1-1.3,1.7c0,0.9,1,1.6,2,1.6
		c0.5,0,0.8-0.1,0.8-0.4s-1.2,0-1.2-1.2c0.1-0.4,0.3-0.7,0.6-0.9c1.3,0.9,2.7,1.6,4.2,1.9c-1,1.9-6,0.3-6,2.7c0,0.7,1.2,1.3,2.6,1.3
		h1.1c-1.7,1.2-2.9,2.6-2.9,3.7c0,1.1,1,2,2.3,2c0.1,0,0.3-0.1,0.3-0.1c0,0-0.1-0.1-0.1-0.1c-0.3-0.1-0.5-0.5-0.5-0.9
		c0-0.3,0.1-1.3,2.7-1.3c3.8,0,8.3,1.1,12.2,3.3c-0.5,0.5-0.9,1.1-0.9,1.9c0,2.9,3.4,2.5,3.4,3.6c0,0.8-2.1,0.5-2.1,1.7
		c0,1,0.9,1.6,1.5,1.6c0.1,0,0.2,0,0.2-0.1c0-0.2-0.5-0.3-0.5-0.9c0-1.2,3.2-0.6,3.2-2.3c0-1.6-3.4-1.1-3.4-3.2
		c0-0.4,0.2-0.8,0.5-1.1c4.6,3,8,7.3,8,12.6c0,6.7-2.8,11.7-11.3,11.7c-5.3,0-7.1-1.5-7.1-2.9c0-1.1,0.7-1.7,1.8-1.7
		c2.1,0,4.5,2.4,8.5,2.4c1.1,0,2.6-0.4,2.6-1.5c0-1.4-3-1.5-3-2.6c0-0.2,0.1-0.2,0.1-0.3c0-0.1-0.1-0.1-0.2-0.1
		c-0.3,0-0.6,0.3-0.6,0.6c0,0.8,1.1,1.2,1.1,1.9c0,0.6-0.6,0.7-1.5,0.7c-2.8,0-4.5-2.5-8.5-2.5c-1.7,0-2.8,0.9-2.8,2.3
		c0,1.9,3.1,4.3,9.5,4.3c0.8,0,1.5-0.1,2.3-0.1c-2.3,0.9-4.9,1.5-8.9,1.5c-3.1,0-6.3-0.7-6.3-2.8c0-0.4,0.3-0.7,0.6-0.7
		c1.5,0,1.1,1.9,2.8,1.9c0.1,0,0.6-0.1,0.6-0.4c0-0.3-0.5,0.3-0.9-0.5c-0.4-0.6-0.8-2.4-3.1-2.4c-1.5,0-2.3,0.7-2.3,2.1
		c0,2.6,3.6,3.7,6.7,4.1c2.1,0.2,3.1,0.6,3.1,1.4c0,0.7-0.9,0.9-1.5,0.9c-3.1,0-3.9-0.9-6.5-0.9c-1.6,0-2.6,0.8-2.6,2.1
		c0,0.9,0.6,1.9,1.5,2.8c-1.2,1.1-1.9,2.4-1.9,3.4c0,1.5,1.2,2.3,3,2.3c1.3-0.1,2.7-0.2,3.9-0.5c1.9-0.4,5.5-1.9,8.6-3.9
		c2.9-1.8,5.9-3.9,5.9-6.4c0-1.3-0.9-1.9-2.3-1.9c-1.9,0-2.7,1.2-3.5,2.7c-0.2,0.5-0.5,0.9-1.1,0.9c-0.3,0-0.5-0.3-0.6-0.3
		c-0.1,0-0.1,0-0.1,0.1c0,0.4,0.4,0.8,1,0.8c2,0,1.7-2.6,3.5-2.6c0.5,0,0.9,0.4,0.9,0.9v0.1c0,1.3-1.7,2.8-4.9,4.9
		c-2.1,1.4-4.5,2.4-6.9,3.1c-1.1,0.3-2.2,0.5-3.3,0.5c-1.5,0-2.4-0.7-2.4-1.7c0-0.6,0.3-1.3,0.9-1.9c0.9,0.7,2,1,3.2,1.1
		c1.5,0,2.7-0.5,2.7-1.7c0-0.8-0.8-1.3-1.3-1.5c-0.1,0-0.1-0.1,0-0.1c0.3-0.1,0.7-0.1,1.1-0.1c1.4,0,2.1,0.5,2.1,1.5
		c0,0.9-0.9,1.5-1.5,1.5c-0.1,0-0.3,0-0.3,0.1c0,0.2,0.3,0.4,1,0.4c1.2,0,2.7-0.7,2.7-2c0-1.4-1.9-2.3-3.9-2.3s-4,0.6-5.7,1.7
		c-0.3-0.4-0.5-0.9-0.5-1.5c0-1.2,0.7-1.9,2.1-1.9s3,0.8,5.5,0.8c1.9,0,2.8-0.5,2.8-1.3c0-1-1.9-1.7-2.3-1.7
		c8.5-0.6,12.3-3.1,14.5-5.1c2.3-1.9,3.5-4.6,4.1-7.5c0.3-1.5,0.4-3.1,0.3-4.6C63.3,26.9,60.7,20.7,54.9,20.7 M24.5,30.6v0.5h2.6
		v-0.5c-0.5-0.1-0.7-0.5-0.7-1.3v-1.7v-1.7c0-0.7,0.2-1.2,0.7-1.3v-0.5h-2.6v0.5c0.5,0.1,0.7,0.5,0.7,1.3v3.4
		C25.3,30,25.1,30.5,24.5,30.6 M45.5,25.3c0.2,0,0.3,0.2,0.4,0.4l0.5,1.1c-0.7,0.5-1.5,1.3-2.1,2.6c-0.4-0.4-0.5-0.9-0.5-1.5
		C43.7,26.5,44.8,25.3,45.5,25.3 M43,31.1h1.9c-0.1-1.7,0.7-2.9,1.7-3.5l0.6,1.8c0.2,0.7,0.1,1-0.5,1.1v0.5h3.1v-0.5
		c-0.7-0.3-1-0.4-1.3-1.3c-0.3-0.6-0.5-1.2-0.7-1.9c0.5,0.1,0.5,0.4,0.9,0.4s0.5-0.3,0.5-0.6c0-0.5-0.3-0.9-1.1-0.9
		c-0.2,0-0.5,0-0.7,0.1c0-0.1-0.1-0.1-0.1-0.3c-0.4-1.2-0.3-1.4,0.3-1.5V24h-3.9v0.5c0.2,0,0.4,0.1,0.4,0.3c0,0.4-1.6,1.1-1.6,3.9
		C42.4,29.6,42.6,30.4,43,31.1 M19.1,39v0.5h3.1v-0.5c-0.5-0.2-0.7-0.4-1.5-1.4c-0.4-0.5-0.9-1.1-1.4-1.8l1.3-1.7
		c0.6-0.8,1-1,1.5-1.1v-0.5H19V33c0.5,0.1,0.7,0.3,0.1,1.1c-0.1,0.2-0.3,0.5-0.5,0.7L18,34.1c-0.6-0.8-0.5-1.1,0.1-1.1v-0.5h-3.3V33
		c0.5,0.1,1.1,0.3,1.7,1.1l1.3,1.7l-1.4,1.8c-0.9,1-1.1,1.2-1.5,1.4v0.5H18v-0.5c-0.7-0.1-0.8-0.4-0.4-0.9c0.1-0.2,0.5-0.7,1-1.3
		l1,1.3C19.9,38.5,19.7,38.9,19.1,39"/>
	<path d="M24.4,34.5c0-1.1,0.6-1.5,1.7-1.5c0.9,0,1.6,0.3,1.6,1c0,1-1,1.9-2.5,1.9c-0.5,0-0.9-0.1-0.9-0.9 M24.9,36.5h0.8
		c2.5,0,3.9-1.5,3.9-2.9c0-0.8-0.6-1.3-2.1-1.3l-2.3,0.1h-2.7v0.5c0.5,0.1,0.7,0.5,0.7,1.3v3.4c0,0.7-0.2,1.2-0.7,1.3v0.5h2.6v-0.5
		c-0.5-0.1-0.7-0.5-0.7-1.3v-0.7C24.4,36.7,24.6,36.4,24.9,36.5L24.9,36.5 M34,39v0.5h2.9V39c-1.3-0.1-2.1-1.7-3-3
		c0.1,0,0.3,0.1,0.4,0.1c1.4,0,2.6-1.1,2.6-2.4c0-0.9-0.5-1.2-2.3-1.2l-2.3,0.1h-2.6v0.5c0.5,0.1,0.7,0.5,0.7,1.3v3.4
		c0,0.7-0.2,1.2-0.7,1.3v0.5h2.6V39c-0.7-0.1-0.7-0.5-0.7-1.3V36v-1.5c0-1.1,0.6-1.5,1.7-1.5c0.9,0,1.7,0.3,1.7,1.1
		c0,1-0.8,1.1-1.3,1.1c-0.6,0-1.1-0.3-1.5-0.7c-0.2,0.2-0.3,0.3-0.4,0.5l2.2,3.2C34.3,38.5,34.3,38.9,34,39 M49.4,34.6l0.5,0.3
		c0.7-0.2,1.5-0.7,1.5-1.4c0-0.5-0.5-1.3-2.7-1.3c-2.2,0-3,0.8-3,1.5c0,1.8,4.2,2.6,4.2,4.1c0,0.6-0.3,1.1-1.7,1.1
		c-0.9,0-1.6-0.3-1.6-0.9c0-0.8,0.5-1.1,0.5-1.3c0-0.1-0.1-0.3-0.3-0.3c-0.4,0-2,1-2,2.3c0,0.5,0.5,0.8,1.3,0.8h2.1h2.1
		c0.9,0,1.3-0.3,1.3-0.8c0-2.4-4.5-3.6-4.5-4.7c0-0.3,0.4-0.6,1.3-0.6c0.7,0,1.2,0.2,1.2,0.5C49.9,34.1,49.7,34.5,49.4,34.6
		 M34.2,25c0.3-0.3,0.4-0.7,0.3-0.9h-2.1c-0.9,0-2.7-0.1-3.2-0.1c-1.1,0-1.7,0.1-1.7,0.7c0,1.1,1.2,2.2,1.7,2.4
		c0.1-0.1,0.3-0.3,0.5-0.4c-0.2-0.3-0.3-0.6-0.3-0.9c0-0.6,0.7-1.1,1.5-1.1c0.7,0,1,0.3,1,0.7c0,0.3-0.1,0.5-0.4,0.9l-3.5,3.9
		c-0.2,0.3-0.3,0.5-0.3,0.9h6.8c0.1-0.2,0.2-0.3,0.2-0.8c0-1.3-1.6-2.3-2-2.3c-0.1,0-0.3,0.1-0.3,0.2v0.1c0,0.3,0.5,0.5,0.5,1.3
		c0,0.6-0.7,0.9-1.6,0.9c-0.5,0-1.2-0.2-1.2-0.7c0-0.3,0.2-0.5,0.5-0.9C30.9,28.5,33.8,25.5,34.2,25 M41.7,25
		c0.3-0.3,0.4-0.7,0.3-0.9h-2.1c-0.9,0-2.7-0.1-3.2-0.1c-1.1,0-1.7,0.1-1.7,0.7c0,1.1,1.2,2.2,1.7,2.4c0.1-0.1,0.3-0.3,0.5-0.4
		c-0.2-0.3-0.3-0.6-0.3-0.9c0-0.6,0.7-1.1,1.5-1.1c0.7,0,1,0.4,1,0.7c0,0.3-0.1,0.5-0.4,0.9c-0.3,0.3-3.3,3.7-3.5,3.9
		c-0.2,0.3-0.3,0.5-0.3,0.9h6.8c0.1-0.1,0.2-0.3,0.2-0.8c0-1.3-1.6-2.3-2-2.3c-0.2,0-0.3,0.1-0.3,0.3c0,0.3,0.5,0.5,0.5,1.4
		c0,0.6-0.7,0.9-1.6,0.9c-0.5,0-1.2-0.2-1.2-0.7c0-0.3,0.2-0.5,0.5-0.9L41.7,25 M54.1,36.3c-0.4,0-2,1-2,2.3c0,0.5,0.5,0.8,1.3,0.8
		h2.1h2.1c0.9,0,1.3-0.3,1.3-0.8c0-2.5-4.5-3.6-4.5-4.7c0-0.3,0.4-0.6,1.3-0.6c0.7,0,1.2,0.2,1.2,0.5c0,0.3-0.2,0.5-0.5,0.7l0.5,0.3
		c0.7-0.2,1.5-0.7,1.5-1.4c0-0.5-0.5-1.3-2.7-1.3s-3,0.8-3,1.5c0,1.8,4.2,2.6,4.2,4.1c0,0.6-0.3,1.1-1.7,1.1c-0.9,0-1.6-0.3-1.6-0.9
		c0-0.8,0.5-1.1,0.5-1.3C54.5,36.4,54.4,36.3,54.1,36.3 M19.9,27.4c-0.5,0-0.9-0.1-0.9-0.9v-0.4c0-1.1,0.5-1.5,1.7-1.5
		c0.9,0,1.6,0.3,1.6,1C22.3,26.6,21.4,27.4,19.9,27.4 M24.3,25.3c0-0.8-0.6-1.3-2.1-1.3l-2.3,0.1h-2.6v0.5c0.5,0.1,0.7,0.5,0.7,1.3
		v3.5c0,0.7-0.2,1.2-0.7,1.3v0.5h2.6v-0.5c-0.7-0.1-0.7-0.5-0.7-1.3v-0.7c0-0.3,0.2-0.5,0.5-0.5h0.1h0.7
		C22.8,28.1,24.3,26.6,24.3,25.3 M37.5,32.5V33c0.5,0.1,0.7,0.5,0.7,1.3v3.4c0,0.7-0.2,1.2-0.7,1.3v0.5h2.6l3.1,0.1
		c0.9,0,1.3-0.3,1.3-0.9c0-1.3-1.6-2.3-2-2.3c-0.2,0-0.3,0.1-0.3,0.3c0,0.3,0.5,0.5,0.5,1.4c0,0.6-0.5,1-1.5,1
		c-1.4,0-1.9-0.7-1.9-2.3v-0.9c0.2-0.1,0.5-0.1,0.7-0.1c0.4,0,1.3,0.1,2.1,0.1c0.8,0,1.2-0.2,1.2-0.5c0-0.3-0.1-0.5-0.3-0.7
		c-0.1-0.1-0.1,0-0.2,0.1c-0.3,0.3-0.8,0.4-1.2,0.4c-0.7,0-1.7-0.1-2.3-0.1v-0.5c0-1.1,0.5-1.5,1.7-1.5c0.7,0,1.1,0.2,1.1,0.6
		c0,0.1-0.1,0.3-0.1,0.4l0.3,0.3c0.7-0.3,1.2-0.9,1.2-1.3c0-0.3-0.1-0.5-0.5-0.5L40,32.5 M7.6,38.9v0.5h2.7l3.1,0.1
		c0.9,0,1.3-0.3,1.3-0.9c0-1.3-1.6-2.3-2-2.3c-0.2,0-0.3,0.1-0.3,0.3c0,0.3,0.5,0.5,0.5,1.4c0,0.6-0.5,1-1.5,1
		c-1.4,0-1.9-0.7-1.9-2.3v-0.9c0.2-0.1,0.5-0.1,0.7-0.1c0.4,0,1.3,0.1,2.1,0.1c0.8,0,1.2-0.2,1.2-0.5c0-0.3-0.1-0.5-0.3-0.7
		c-0.1-0.1-0.1,0-0.2,0.1c-0.3,0.3-0.8,0.4-1.3,0.4c-0.7,0-1.7-0.1-2.3-0.1v-0.5c0-1.1,0.6-1.5,1.7-1.5c0.7,0,1.1,0.2,1.1,0.6
		c0,0.1-0.1,0.3-0.1,0.4l0.3,0.3c0.7-0.3,1.2-0.9,1.2-1.3c0-0.3-0.1-0.5-0.5-0.5l-3.1,0.1H7.5v0.5c0.5,0.1,0.7,0.5,0.7,1.3v3.4
		C8.3,38.3,8.2,38.9,7.6,38.9"/>
</g>
</svg>
