<?xml version="1.0" encoding="utf-8"?>
<svg version="1.1" id="Layer_1" xmlns="http://www.w3.org/2000/svg" xmlns:xlink="http://www.w3.org/1999/xlink" x="0px" y="0px"
	width="100px" height="100px" viewBox="0 0 100 100" style="enable-background:new 0 0 100 100;" xml:space="preserve">
<g>
	<g>
		<circle style="fill:#E8E8E8;" cx="50" cy="50" r="50"/>
		<circle style="fill:#FFFFFF;" cx="50" cy="50" r="49"/>
	</g>
	<g id="Page-1">
		<g id="Consolidated-navigational-bar-_x28_sticky-header_x29_" transform="translate(-50.000000, -593.000000)">
			<g id="Sticky-header-1024" transform="translate(30.000000, 566.000000)">
				<g id="KG-Logo" transform="translate(20.000000, 27.000000)">
					<path id="Fill-17" style="fill:#333333;" d="M90.7,52.9h-1.1L88,50.7h-2.9v2.2h-1v-5.8h4.6c0.6,0,1.1,0.2,1.4,0.5
						s0.5,0.8,0.5,1.3c0,0.5-0.1,0.9-0.4,1.2c-0.3,0.3-0.6,0.5-1.1,0.5L90.7,52.9z M88.6,49.8c0.7,0,1.1-0.3,1.1-0.9
						c0-0.6-0.4-1-1.2-1h-3.4v1.9H88.6z"/>
					<polygon id="Fill-16" style="fill:#333333;" points="82.1,52.9 76,52.9 76,47.1 81.9,47.1 81.9,48 77,48 77,49.5 80.4,49.5 
						80.4,50.3 77,50.3 77,52 82.1,52 					"/>
					<path id="Fill-15" style="fill:#333333;" d="M73.8,49.9c0,1-0.3,1.7-1,2.3c-0.7,0.6-1.6,0.9-2.7,0.9c-1,0-1.9-0.3-2.6-0.8
						c-0.8-0.6-1.2-1.4-1.2-2.3c0-0.9,0.4-1.7,1.2-2.3c0.7-0.5,1.6-0.8,2.6-0.8c1.3,0,2.3,0.5,3.1,1.4l-0.9,0.4
						c-0.6-0.7-1.4-1-2.3-1c-0.7,0-1.4,0.2-1.8,0.5c-0.6,0.4-0.9,1-0.9,1.7c0,0.7,0.2,1.2,0.7,1.6c0.5,0.4,1.2,0.6,2,0.6
						c1.3,0,2.1-0.5,2.5-1.5h-2.7v-0.9L73.8,49.9L73.8,49.9L73.8,49.9z"/>
					<polygon id="Fill-13" style="fill:#333333;" points="63,52.9 64,52.9 64,47.1 63,47.1 					"/>
					<polygon id="Fill-11" style="fill:#333333;" points="61,52.9 54.9,52.9 54.9,47.1 60.8,47.1 60.8,48 55.9,48 55.9,49.5 
						59.3,49.5 59.3,50.3 55.9,50.3 55.9,52 61,52 					"/>
					<path id="Fill-8" style="fill:#333333;" d="M52.7,49.9c0,1-0.3,1.7-1,2.3c-0.7,0.6-1.6,0.9-2.7,0.9c-1,0-1.9-0.3-2.6-0.8
						c-0.8-0.6-1.2-1.4-1.2-2.3c0-0.9,0.4-1.7,1.2-2.3c0.7-0.5,1.6-0.8,2.6-0.8c1.3,0,2.3,0.5,3.1,1.4l-0.9,0.4
						c-0.6-0.7-1.4-1-2.3-1c-0.7,0-1.4,0.2-1.9,0.5c-0.6,0.4-0.9,1-0.9,1.7c0,0.7,0.2,1.2,0.7,1.6s1.2,0.6,2,0.6
						c1.3,0,2.1-0.5,2.5-1.5h-2.7v-0.9L52.7,49.9L52.7,49.9z"/>
					<polygon id="Fill-6" style="fill:#333333;" points="41.5,48 38.7,48 38.7,52.9 37.8,52.9 37.8,48 35,48 35,47.1 41.5,47.1 
											"/>
					<path id="Fill-4" style="fill:#333333;" d="M33.4,52.9h-1.1l-1.6-2.2h-2.9v2.2h-1v-5.8h4.6c0.6,0,1.1,0.2,1.4,0.5
						c0.4,0.3,0.5,0.8,0.5,1.3c0,0.5-0.1,0.9-0.4,1.2c-0.3,0.3-0.6,0.5-1.1,0.5L33.4,52.9z M31.3,49.8c0.7,0,1.1-0.3,1.1-0.9
						c0-0.6-0.4-1-1.2-1h-3.4v1.9H31.3z"/>
					<path id="Fill-2" style="fill:#333333;" d="M24.2,51c0,0.6-0.3,1.1-0.9,1.5c-0.6,0.4-1.4,0.6-2.4,0.6c-1,0-1.8-0.2-2.4-0.6
						c-0.6-0.4-0.9-0.9-0.9-1.5v-3.9h1v3.7c0,0.4,0.2,0.8,0.6,1c0.4,0.2,1,0.4,1.7,0.4c0.8,0,1.3-0.1,1.7-0.4c0.4-0.2,0.6-0.6,0.6-1
						v-3.7h1L24.2,51L24.2,51z"/>
					<polygon id="Fill-1" style="fill:#333333;" points="14.3,47.1 10.2,50.1 10.2,47.1 9.3,47.1 9.3,52.9 10.2,52.9 10.2,51.2 
						12,49.9 14.8,52.9 16,52.9 12.7,49.3 15.7,47.1 					"/>
				</g>
			</g>
		</g>
	</g>
</g>
</svg>
