<?xml version="1.0" encoding="utf-8"?>
<!-- Generator: Adobe Illustrator 19.2.1, SVG Export Plug-In . SVG Version: 6.00 Build 0)  -->
<svg version="1.1" id="layer" xmlns="http://www.w3.org/2000/svg" xmlns:xlink="http://www.w3.org/1999/xlink" x="0px" y="0px"
	 viewBox="0 0 652 652" style="enable-background:new 0 0 652 652;" xml:space="preserve">
<style type="text/css">
	.st0{fill:#00999D;}
</style>
<g>
	<path d="M258.6,405.1c0,3.8-3,6.8-6.7,6.8h-15.1v-13.8H252C255.7,398.1,258.6,401.1,258.6,405.1 M251.9,385.6h-21.3
		c-3.3,0-6.1,2.8-6.1,6.2v54.3c0,3.5,2.7,6.3,6.1,6.3c3.4,0,6.1-2.8,6.1-6.3v-21.6H252c10.4,0,18.8-8.8,18.8-19.5
		C270.8,394.3,262.3,385.6,251.9,385.6"/>
	<path d="M318.7,385.6c-3,0-6.1,2.2-6.1,6.2v38.4c0,6.2-4.9,11.3-10.9,11.3c-6,0-10.9-5.1-10.9-11.3v-38.4c0-4.1-3-6.2-6-6.2
		c-3.1,0-6.2,2.1-6.2,6.2v38.4c0,13.2,10.4,23.9,23.1,23.9c12.8,0,23.2-10.7,23.2-23.9v-38.4C324.8,387.7,321.7,385.6,318.7,385.6"
		/>
	<path d="M372.3,405c0,3.8-3.1,6.9-6.8,6.9h-15.1v-13.8h15.2C369.3,398.1,372.3,401.2,372.3,405 M384.4,405
		c0-10.6-8.5-19.4-18.9-19.4h-21.3c-3.3,0-6.1,2.9-6.1,6.2v54.3c0,8.3,12.2,8.3,12.2,0v-21.6h5.2l17.7,25.3c1.2,1.7,2.9,2.6,4.9,2.6
		c3.3,0,6.2-2.9,6.2-6.3c0-1.3-0.4-2.6-1.3-3.7l-12.9-18.5C378.7,421.6,384.4,414,384.4,405"/>
	<path d="M435.4,398.1c3.8,0,6.1-3.2,6.1-6.3c0-3.5-2.7-6.2-6.1-6.2h-34.1c-3.3,0-6.1,2.8-6.1,6.2v54.3c0,3.4,2.8,6.3,6.1,6.3h34.1
		c3.4,0,6.1-2.8,6.1-6.3c0-3.5-2.7-6.3-6.1-6.3h-28V423h18.2c3.4,0,6-2.8,6-6.3c0-3.5-2.7-6.3-6-6.3h-18.2v-12.2H435.4z"/>
	<path d="M497.5,415.3h-10.9c-4,0-6.1,3.3-6.1,6.4c0,3.1,2.3,6.3,6.3,6.3h3.9c-1.7,9.1-6.2,13.5-13.7,13.5
		c-9.7,0-14.4-7.3-14.4-22.4c0-15.1,4.7-22.4,14.4-22.4c4.9,0,8.2,1.6,10.5,5c1.1,1.8,2.8,2.7,4.8,2.7c3.4,0,6.4-2.9,6.4-6.3
		c0-1.2-0.4-2.5-1.3-3.6c-4.6-6.9-11.4-10.4-20.4-10.4c-16.7,0-26.6,13.1-26.6,35c0,22.2,9.8,35,26.8,35c19.4,0,26.3-16.6,26.3-32.1
		v-0.7C503.4,417.6,501,415.3,497.5,415.3"/>
	<path d="M547,385.6c-2.2,0-4.1,1.2-5.3,3.3l-11.2,21.5l-11.1-21.5c-1.1-2.1-3-3.3-5.3-3.3c-3,0-6.3,2.4-6.3,6
		c0,0.9,0.1,2.1,0.8,3.3l15.7,30.4v20.9c0,4.1,3.1,6.3,6.1,6.3s6.1-2.1,6.1-6.3v-20.7l15.9-30.5c0.6-1,0.9-2.1,0.9-3.2
		C553.4,388.1,550.1,385.6,547,385.6"/>
	<path d="M614.3,385.2c-2.2,0-3.9,1.3-5.4,4l-17.4,33.3l-17.3-33.2c-1.5-2.7-3.2-4-5.4-4c-4,0-6.5,2.6-6.5,7.1v53.7
		c0,8.3,12.2,8.3,12.2,0v-29.4l11.1,21.2c1.4,3,3.2,4.3,5.8,4.3c2.5,0,4.3-1.3,5.9-4.2l11.1-21.3v29.5c0,4.1,3.1,6.3,6.1,6.3
		c3,0,6.1-2.2,6.1-6.3v-53.8C620.7,387.9,618.3,385.2,614.3,385.2"/>
	<path d="M131.6,199.4h-31c-19.5,0-37.2,6.9-48.7,19c-11.1,11.6-16.5,27.8-16.2,47.9v119.2c0,51.7,14.3,58.9,29.7,58.9
		c17.9,0,24-14.7,29.2-31.1l0.3-0.9c11.7-36.6,32.4-57.5,69.4-69.9c20.3-6.8,31.5-18.3,32.2-59.6v-17.3c0.1-19.3-6-36.3-17.2-48
		C167.9,205.6,151.4,199.4,131.6,199.4 M65.4,459.7c-44.6,0-44.6-52-44.6-74.3v-119c-0.4-24.3,6.5-44.2,20.5-58.9
		c14.3-15,35.9-23.6,59.3-23.6h31c23.9,0,44.1,7.8,58.3,22.6c14,14.6,21.7,35.5,21.5,58.9v17.4c-0.8,43.4-12.7,64.2-42.5,74.1
		c-32.7,10.9-49.5,27.8-59.8,60l-0.3,0.9C104.5,431.5,95.5,459.7,65.4,459.7"/>
	<path class="st0" d="M167,452.2c18.4,0,33.3-14.9,33.3-33.3c0-18.4-14.9-33.3-33.3-33.3c-18.4,0-33.3,14.9-33.3,33.3
		C133.7,437.3,148.6,452.2,167,452.2"/>
</g>
</svg>
