<?xml version="1.0" encoding="utf-8"?>
<svg version="1.1" id="Layer_1" xmlns="http://www.w3.org/2000/svg" xmlns:xlink="http://www.w3.org/1999/xlink" x="0px" y="0px"
	width="100px" height="100px" viewBox="0 0 397.1 397.1" style="enable-background:new 0 0 397.1 397.1;" xml:space="preserve">
<g>
	<circle style="fill:#E8E8E8;" cx="198.6" cy="198.6" r="198.6"/>
	<circle style="fill:#FFFFFF;" cx="198.6" cy="198.6" r="194.6"/>
	<g>
		<path style="fill:#EA5B0C;" d="M150.5,200.5l-3.2,10.3h-11.5l16.3-46.9H164l16.3,46.9h-11.5l-3.2-10.3
			C165.2,200.5,150.5,200.5,150.5,200.5z M158,176.7l-4.4,14.7h8.7L158,176.7z"/>
		<path style="fill:#EA5B0C;" d="M199.7,190.2c0-3.2-1.6-5.2-4.4-5.2c-3.2,0-4.8,2.4-4.8,5.2v20.6h-11.1v-34.9h10.3v3.6
			c2.8-2.8,5.6-4.4,9.1-4.4c11.1,0,12.3,9.5,12.3,16.7v19.5h-11.5V190.2z M225.2,210.9H214v-34.9h11.1V210.9z"/>
	</g>
	<g>
		<path style="fill:#57B031;" d="M259.3,210.9h-11.5v-20.6c0-3.2-1.6-5.2-4-5.2s-4.4,2-4.4,5.2v20.6h-11.1v-34.9h11.1v3.6
			c1.2-2,4-4.4,8.7-4.4c4,0,7.1,1.6,9.1,4.8c2-2.8,5.6-4.8,9.9-4.8c7.9,0,11.9,5.2,11.9,12.7v23H268v-20.6c0-3.2-1.6-5.2-4.4-5.2
			c-2.8,0-4.4,2-4.4,5.2V210.9z M291.5,196.2c0.4,3.2,3.2,6,7.5,6c2.8,0,5.6-1.2,7.1-3.6l7.1,5.6c-1.2,2-6,7.5-15.1,7.5
			c-11.5,0-18.7-7.9-18.7-18.3s6.8-18.7,17.1-18.7c11.1,0,17.1,7.1,17.1,19.1c0,0.8,0,1.6,0,2.4
			C314.5,196.2,291.5,196.2,291.5,196.2z M291.9,189.4h11.5c0-3.2-2.4-5.2-5.6-5.2C293.9,184.3,292.3,187,291.9,189.4L291.9,189.4z"
			/>
		<path style="fill:#57B031;" d="M340.7,208.1c-0.8,1.2-4.4,3.6-9.5,3.6c-9.9,0-17.1-7.5-17.1-18.3s6.4-18.3,16.7-18.3
			c5.2,0,8.7,2.8,9.1,3.6v-15.9H351v48h-10.3V208.1z M332.8,184.7c-4.4,0-7.5,3.6-7.5,8.7c0,5.2,3.2,8.3,7.5,8.3
			c4.8,0,7.5-4,7.5-8.7C340.7,187.8,337.5,184.7,332.8,184.7z"/>
	</g>
	<path style="fill:#888887;" d="M134.6,226.3c0-3.6,2.8-6.8,6.4-6.8h0.4c1.2,0,2.8,0.4,4,1.2l-0.8,2.4c-0.8-0.8-2-1.2-3.2-1.2
		c-2.4,0-4,2-4,4.4s1.6,4.4,4,4.4c1.2,0,2.4-0.4,3.2-1.2l0.8,2.4c-1.2,0.8-2.8,1.2-4,1.2C137,233.1,134.6,230.3,134.6,226.3
		L134.6,226.3z M146.5,228.7v-5.6h2.8v6c-0.8,0.8,0.4,1.6,1.2,1.6l0,0c0.8,0,1.6-0.8,2-1.6l0,0v-6h2.8v9.9h-2.8v-1.2
		c-0.8,0.8-1.6,1.6-2.8,1.2C146.9,233.1,146.5,231.1,146.5,228.7L146.5,228.7L146.5,228.7z M156.9,221.2h2v2h2v2h-2v4
		c0,1.6,0.8,2,1.6,2h0.4v2c0,0-0.8,0-1.2,0c-2.4,0-3.6-1.2-3.6-4v-4h-0.8v-2h0.8v-2H156.9z M162.4,221.2h2.4v2h2v2h-2v4
		c0,1.6,0.8,2,1.6,2h0.4v2c0,0-0.8,0-1.2,0c-2.4,0-3.6-1.2-3.6-4v-4h-0.8v-2h0.8L162.4,221.2z M169.2,219.2c0.8,0,1.6,0.8,1.6,1.6
		c0,0.8-0.8,1.6-1.6,1.6s-1.6-0.8-1.6-1.6C168,220,168.4,219.2,169.2,219.2L169.2,219.2z M168,223.2h2.8v9.9H168V223.2z
		 M181.1,227.5v5.6h-2.8v-6c0-0.8-0.8-1.6-1.6-1.6l0,0c-0.8,0-1.6,0.8-1.6,1.6l0,0v6h-2.8v-9.9h2.4v1.2c0.8-0.8,1.6-1.6,2.8-1.2
		C180.3,223.2,181.1,225.2,181.1,227.5L181.1,227.5L181.1,227.5z M183.9,233.9c0.8,0.4,2,0.4,2.8,0.4c1.6,0,2.8-0.4,2.8-2v-0.4
		c-0.8,0.8-2,1.2-2.8,1.2c-2.8,0-4.8-2-4.8-5.2c0-3.2,2-5.2,4.8-5.2c1.2,0,2.4,0.4,2.8,1.2v-1.2h2.8v8.7c0,3.6-2.4,4.8-5.2,4.8
		c-1.2,0-2.4-0.4-3.6-0.8C183.1,235.9,183.9,233.9,183.9,233.9z M187,225.2c-1.6,0-2.4,1.2-2.4,2.8c0,1.6,1.2,2.8,2.4,2.8
		s2.4-1.2,2.4-2.8C189.4,226.3,188.6,225.2,187,225.2z M198.2,221.2h2.4v2h2v2h-2v4c0,1.6,0.4,2,1.6,2h0.4v2c-0.8,0-0.8,0-1.2,0
		c-2.4,0-3.6-1.2-3.6-4v-4h-1.2v-2h1.2C198.2,223.2,198.2,221.2,198.2,221.2z M212.1,227.5v5.6h-2.8v-6c0-0.8-0.8-1.6-1.6-1.6l0,0
		c-0.8,0-1.6,0.8-1.6,1.6l0,0v6h-2.8v-13.5h3.2v5.2c0.8-0.8,1.6-1.6,2.4-1.2C211.7,223.2,212.1,225.2,212.1,227.5L212.1,227.5z
		 M218,223.2c3.2,0,4.8,2,4.8,5.2v0.8H216c0,1.2,1.2,2,2.4,2c0.8,0,2-0.4,2.4-1.2l1.6,1.2c-0.8,1.6-2.4,2.4-4,2
		c-3.2,0-5.2-2.4-5.2-5.2C213.2,225.2,215.2,223.2,218,223.2L218,223.2z M220,227.1c0-1.2-0.8-2-2-2l0,0c-1.2,0-2,0.8-2,2H220z
		 M235.1,229.9l0.8,2c-0.8,0.8-2,1.2-3.2,1.2c-3.2,0-5.2-2-5.2-5.2c0-2.8,2-5.2,4.8-5.2h0.4c1.2,0,2.4,0.4,3.2,1.2l-0.8,2.4
		c-0.4-0.4-1.6-0.8-2.4-0.8c-1.6,0-2.8,1.2-2.8,2.8c0,1.6,1.2,2.8,2.8,2.8l0,0C233.5,231.1,234.3,230.7,235.1,229.9L235.1,229.9z
		 M241.4,223.2c2.8,0,5.2,2,5.2,4.8v0.4c0,3.2-2.4,5.2-5.2,5.2c-2.8,0-5.2-2-5.2-5.2C236.3,225.6,238.3,223.2,241.4,223.2
		L241.4,223.2z M241.4,231.1c1.2,0,2.8-1.2,2.8-2.8l0,0c0-1.6-1.2-2.8-2.8-2.8s-2.8,1.2-2.8,2.8
		C238.7,229.5,239.8,231.1,241.4,231.1L241.4,231.1L241.4,231.1z M247,231.5l1.6-1.2c0.4,0.8,1.2,1.2,2.4,1.2c0.8,0,1.2-0.4,1.2-0.8
		c0-1.6-4.8-0.8-4.8-4.4c0-2,1.6-2.8,3.6-2.8c1.2,0,2.8,0.4,3.2,1.6l-1.6,1.2c-0.4-0.4-1.2-0.8-1.6-0.8s-1.2,0.4-1.2,0.8
		c0,1.6,4.8,0.8,4.8,4.4c0,2-1.6,3.2-3.6,3.2C249.4,233.5,247.8,232.7,247,231.5L247,231.5z M255.7,221.2h2.4v2h2v2h-2v4
		c0,1.6,0.4,2,1.6,2h0.4v2c0,0-0.8,0-1.2,0c-2.4,0-3.6-1.2-3.6-4v-4h-0.8v-2h0.8v-2H255.7z M270.4,223.2c2.8,0,5.2,2,5.2,4.8l0,0
		c0,3.2-2.4,5.2-5.2,5.2s-5.2-2-5.2-5.2C264.9,225.2,267.2,223.2,270.4,223.2C270,223.2,270,223.2,270.4,223.2L270.4,223.2z
		 M270.4,231.1c1.2,0,2.4-1.2,2.4-2.8l0,0c0-1.6-1.2-2.8-2.8-2.8c-1.6,0-2.8,1.2-2.8,2.8C267.6,229.5,268.8,231.1,270.4,231.1
		C270.4,231.1,270,231.1,270.4,231.1L270.4,231.1z M277.2,225.2H276v-2h1.2v-0.4c0-2.4,1.6-3.2,3.6-3.2c0.4,0,0.8,0,0.8,0v2h-0.4
		c-0.8,0-1.6,0.4-1.6,1.2v0.4h2v2h-2v7.9h-2.4V225.2z M286.7,223.2h2.4v1.2c0.8-0.8,2-1.2,3.2-1.2c2.8,0,4.8,2,4.8,5.2
		c0,3.2-1.6,5.2-4.4,5.2c-1.2,0-2-0.4-2.8-1.2v4.8h-2.8L286.7,223.2z M291.5,231.1c2,0,2.8-1.2,2.8-2.8c0-1.6-0.8-2.8-2.4-2.8
		s-2.8,1.2-2.8,2.8C289.1,229.9,289.9,231.1,291.5,231.1L291.5,231.1z M302.2,223.2c3.2,0,4.8,2,4.8,5.2v0.8h-7.1c0,1.2,1.2,2,2.4,2
		c0.8,0,2-0.4,2.4-1.2l1.6,1.2c-0.8,1.6-2.4,2.4-4,2c-3.2,0-5.2-2.4-5.2-5.2C297.4,225.2,299.4,223.2,302.2,223.2L302.2,223.2z
		 M304.2,227.1c0-1.2-0.8-2-2-2l0,0c-1.2,0-2,0.8-2,2H304.2z M308.2,221.2h2.8v2h2v2h-2v4c0,1.6,0.4,2,1.2,2h0.8v2
		c-0.8,0-0.8,0-1.2,0c-2.4,0-3.6-1.2-3.6-4v-4H307v-2h1.2C308.2,223.2,308.2,221.2,308.2,221.2z M324.8,229.9l0.8,2
		c-0.8,0.8-2,1.2-3.2,1.2c-3.2,0-5.2-2-5.2-5.2c0-2.8,2.4-5.2,5.2-5.2c1.2,0,2.4,0.4,3.2,1.2l-0.8,2.4c-0.4-0.4-1.6-0.8-2.4-0.8
		c-1.6,0-2.8,1.2-2.8,2.8c0,1.6,1.2,2.8,2.8,2.8l0,0C323.6,231.1,324.4,230.7,324.8,229.9L324.8,229.9z M330,226.7
		c0.8,0,1.6,0,2.4,0.4v-0.8c0-0.8-0.8-1.6-2-1.6c-0.8,0-2,0.4-2.8,0.8l-0.8-1.6c1.2-0.8,2.8-1.2,4-1.2c3.2,0,4,1.6,4,4v6h-2.4v-0.4
		c-0.8,0.8-1.6,0.8-2.4,0.8c-2,0-3.6-1.2-3.6-3.2C326,227.9,327.6,226.7,330,226.7L330,226.7z M330.4,231.1c1.2,0,1.6-0.4,1.6-1.2
		c0-0.8-0.8-1.2-1.6-1.2c-0.8,0-1.6,0.4-1.6,1.2C328.4,230.7,329.6,231.1,330.4,231.1L330.4,231.1z M341.1,225.6
		c-2,0-2.8,1.2-2.8,3.2v4h-2.8v-9.9h2.8v1.6c0.8-1.2,1.6-1.6,2.8-1.6V225.6z M346.7,223.2c3.2,0,4.8,2,4.8,5.6v0.8h-6.8
		c0,1.2,1.2,2,2.4,2c0.8,0,2-0.4,2.4-1.2l1.6,1.2c-0.8,1.6-2.4,2.4-4,2c-3.2,0-5.2-2.4-5.2-5.2C341.9,225.2,343.9,223.2,346.7,223.2
		L346.7,223.2z M348.7,227.1c0-1.2-0.8-2-2-2l0,0c-1.2,0-2,0.8-2,2H348.7z"/>
	<path style="fill:#56AF31;" d="M98.5,175.5c-11.1,0-11.5-15.1-20.3-15.1v34.9c5.2,3.6,8.3,10.3,11.1,14.7c2-0.8,4.4-1.6,6.8-1.6
		c0.8,0,1.6-4.4,2.4-4.4h0.4c1.2,0,2.8,4.4,3.6,4.4c10.7,1.2,11.1,8.3,11.1,8.3v11.1l0,0c0,1.6,1.2,2.8,2.8,2.8s2.4-1.2,2.4-2.8
		v-67.5C110.8,160.4,109.6,175.5,98.5,175.5z"/>
	<path style="fill:#7DBC51;" d="M98.9,175.5L98.9,175.5c0,0-3.6,13.1,2,18.7c4.8,4.8,13.5,4.4,17.9,3.2v-36.9
		C110.8,160.4,109.6,175.5,98.9,175.5z"/>
	<path style="fill:#56AF31;" d="M103.6,187.4c0-4,3.2-6.8,6.8-6.8c4,0,6.8,3.2,6.8,6.8c0,4-3.2,6.8-6.8,6.8
		C106.8,194.2,103.6,191,103.6,187.4z"/>
	<g>
		<path style="fill:#1D1D1B;" d="M106.4,186.2c0-0.8,0.8-1.6,1.6-1.6s1.6,0.8,1.6,1.6c0,0.8-0.8,1.6-1.6,1.6
			S106.4,187.4,106.4,186.2z"/>
		<circle style="fill:#1D1D1B;" cx="89.3" cy="186.2" r="1.6"/>
	</g>
	<path style="fill:#6FB744;" d="M101.3,194.2c13.1,2,12.3,12.3,12.3,12.3c0.4,7.5-4.4,6-4.4,6c-2.8-0.8-5.2-1.2-7.5-2.4
		c-3.6-1.2-3.6-3.2-3.6-3.2v-2v2c0,0-0.4,2-4,3.2c-2.4,0.8-5.2,1.6-7.5,2.4c0,0-4.8,1.6-4.4-6c0,0-0.4-10.3,11.9-12.3
		C94.1,194.2,101.3,194.2,101.3,194.2z"/>
	<path style="fill:#1D1D1B;" d="M97.7,197.8c0,0-1.2,1.6-2.8,1.6c-1.6,0-2.4-3.2-2.4-4.4c0-1.2,5.2-0.8,5.2-0.8l0,0
		c0,0,4.8,0,5.2,0.8c0,1.2-0.8,4.4-2.4,4.4C99.3,199.3,98.1,197.8,97.7,197.8C98.1,197.8,97.7,197.8,97.7,197.8z"/>
	<path style="fill:#EA5B0C;" d="M101.3,226.3c-9.5-31.4-29.4-47.7-33.4-50.8c-0.4-0.4-1.2-0.8-2-1.2c0,0.4,0,0.8,0,1.2
		c0,3.6-2.8,6.8-6.4,6.8c-3.6,0-6.8-2.8-6.8-6.4v-0.4v-0.4c-2,2.4-1.6,7.5-1.6,7.5v46.9l0,0c0,0.4,0.4,1.2,0.8,1.2
		c0.4,0,0.8-0.4,0.8-1.2c0.8-12.7,8.7-22.2,18.7-22.2c9.5,0,17.1,8.3,18.7,19.5c0.4,3.6,2.4,3.6,3.2,3.6h6
		C100.9,230.3,102.1,228.7,101.3,226.3z"/>
	<g>
		<ellipse style="fill:#FFFFFF;" cx="56" cy="189" rx="2" ry="1.6"/>
		<path style="fill:#FFFFFF;" d="M60.8,189c0-0.8,0.8-1.6,2-1.6c1.2,0,1.6,0.8,1.6,1.6c0,0.8-0.8,1.6-2,1.6
			C61.2,190.6,60.8,190.2,60.8,189z"/>
	</g>
	<path style="fill:#1D1D1B;" d="M56,190.2c-0.4,0-0.8-0.8-0.8-1.2c0-0.4,0.4-0.8,0.8-0.8c0.4,0,0.8,0.8,0.8,1.2
		C56.8,189.8,56.4,190.2,56,190.2z M62.7,190.2c-0.4,0-0.8-0.8-0.8-1.2c0-0.4,0.4-0.8,0.8-0.8c0.4,0,0.8,0.8,0.8,1.2
		C63.5,189.8,63.1,190.2,62.7,190.2z"/>
	<path style="fill:#EE7402;" d="M56,193.4c-0.4,0-6.4,0-9.9,2.4c0,0-0.4,0.4,0,0.4h0.4l0,0c3.2-2,9.1-2,9.5-2c0.4,0,0.4,0,0.4-0.4
		l0,0C56.4,193.4,56,193.4,56,193.4L56,193.4z M55.6,195.4c0,0-5.2,0-8.3,3.2c0,0,0,0.4,0,0.8c0,0,0.4,0,0.8,0
		c3.2-2.8,7.9-3.2,7.9-3.2c0.4,0,0.4,0,0.4-0.4l0,0C56,195.4,56,195.4,55.6,195.4L55.6,195.4z M65.1,195.4L65.1,195.4
		c-0.4,0-0.4,0-0.4,0.4s0,0.4,0.4,0.4l0,0c1.2,0,4.8,0.4,6.8,3.2c0,0,0,0,0.4,0c0,0,0,0,0.4,0c0,0,0.4-0.4,0-0.8
		C70.3,195.8,66.7,195.4,65.1,195.4L65.1,195.4z M74.3,195.8c-3.2-3.2-9.5-2.4-9.9-2.4s-0.4,0.4-0.4,0.4l0.4,0.4l0,0
		c0,0,6.4-0.4,9.1,2.4c0,0,0,0,0.4,0C74.3,196.6,74.7,196.6,74.3,195.8C74.7,196.2,74.3,196.2,74.3,195.8L74.3,195.8z"/>
	<path style="fill:#FFFFFF;" d="M74.7,195.4c-3.2-2.8-9.9-2-9.9-1.6c-0.4,0-0.4,0-0.4,0.4s0.4,0.4,0.4,0.4l0,0c0,0,6.4-0.8,9.5,1.6
		c0,0,0,0,0.4,0C74.3,195.8,74.7,195.8,74.7,195.4L74.7,195.4L74.7,195.4z M65.1,195.4L65.1,195.4c-0.4,0-0.4,0-0.4,0.4
		s0,0.4,0.4,0.4l0,0c1.2,0,4.8,0,7.1,2.8h0.4v-0.4C70.3,195.4,66.7,195.4,65.1,195.4z M61.2,194.6c-0.8,0-0.8-0.8-1.6-0.8v-1.2l0,0
		c0.4,0,0.4-0.4,0.4-0.4c0-0.4-0.4-0.4-0.8-0.4s-0.8,0.4-0.8,0.4c0,0.4,0,0.4,0.4,0.4l0,0v1.2c0,0,0,1.2-0.8,1.2
		c-0.4,0-0.4,0-0.4,0.4s0,0.4,0.4,0.4c0.8,0,1.2-0.4,1.6-0.8c0.4,0.4,0.8,0.8,1.6,0.8c0.4,0,0.4-0.4,0.4-0.4l0,0
		C61.6,195,61.6,194.6,61.2,194.6z M56,193.4c-0.4,0-6.4-0.4-9.9,1.2c0,0-0.4,0.4,0,0.4l0.4,0.4l0,0c3.2-2,9.5-1.2,9.5-1.2
		c0.4,0,0.4,0,0.4-0.4C56.4,193.4,56,193.4,56,193.4z M55.6,195.4c0,0-5.2,0-8.7,2.4c0,0-0.4,0.4,0,0.8c0,0,0,0,0.4,0c0,0,0,0,0.4,0
		c3.6-2.4,7.9-2.4,7.9-2.4c0.4,0,0.4,0,0.4-0.4l0,0C56,195.4,56,195.4,55.6,195.4L55.6,195.4z"/>
	<path style="fill:#EA5B0C;" d="M225.2,167.6c0-0.4,0-0.4,0-0.8c-0.4,0-0.4,0-0.8,0s-0.8,0-0.8,0h-0.8H222v-1.2v-0.8V164
		c0-0.4,0-0.4,0-0.8c-0.4,0-0.8,0-0.8,0h-0.8h-0.8c-0.4,0-0.8,0-0.8,0c0,0.4,0,1.2,0,1.6v2H218c-0.4,0-0.8,0-0.8,0h-0.8l-2,0v1.6
		c0,0.4,0,1.2,0,1.6c0.4,0,0.8,0,0.8,0h0.8h0.8h0.8c0,0.4,0,0.8,0,1.2c0,0.4,0,1.2,0,1.6c0.4,0,0.8,0,0.8,0h0.8h0.8
		c0.4,0,0.8,0,0.8,0c0-0.4,0-0.4,0-0.8s0-0.4,0-0.8v-0.8c0,0,0,0,0-0.4c0.4,0,0.4,0,0.8,0h0.8h0.8c0.4,0,0.4,0,0.8,0
		c0-0.4,0-0.4,0-0.8v-0.8L225.2,167.6L225.2,167.6L225.2,167.6z"/>
</g>
</svg>
