<?xml version="1.0" encoding="utf-8"?>
<svg version="1.1" id="Layer_1" xmlns="http://www.w3.org/2000/svg" xmlns:xlink="http://www.w3.org/1999/xlink" x="0px" y="0px"
	 viewBox="0 0 1920.2 541.4" style="enable-background:new 0 0 1920.2 541.4;" xml:space="preserve">
<g>
	<path style="fill:#78C64B;" d="M817.9,541.4c-14.8-3.1-29.8-5.8-44.2-9.6c-24.8-6.7-47.6-17.7-68.4-34.9
		c13.1-20.5,25.5-40.3,38.4-60.5c18.2,10.8,36.5,19.4,56.4,23c14.6,2.7,29,4.6,43.8,1.9c28.2-5,40.5-18.2,42.6-46.8
		c0.6-6.3,0-12.7,0-20.4c-13.2,5.6-25.2,11.3-38.6,13.1c-67.6,8.8-124.6-24.4-142.8-92.7c-14.2-53.4-7.1-103.5,28.6-147.3
		c27.8-34.2,65.5-49.9,108.9-52.4c46.1-2.7,89.3,8.6,130.8,28c5.4,2.5,7.5,5.4,7.5,11.5c-0.2,88.9-0.6,177.8,0,266.9
		c0.4,57.6-35.5,93.7-79.9,109.6c-12.7,4.6-25.7,7.5-39.2,8.6c-1.5,0.2-3.3,0-3.8,1.9c-1.9,0-3.8,0-5.8,0c-10.2-3.1-20.5-3.3-30.7,0
		C820.4,541.4,819.3,541.4,817.9,541.4z M886.8,259c0-17.9,0-35.7,0-53.8c0-3.5,0.4-7.1-4-8.6c-24.4-8.3-53.2-8.6-73,16.5
		c-15,19-17.3,40.9-15,64.3c4.6,44.5,46.5,66.8,85.8,45.5c4.6-2.5,6.3-5.2,6.3-10.4C886.7,294.9,886.8,277.1,886.8,259z"/>
	<path style="fill:#565353;" d="M1920,284.2c-4.2,7.5-4.2,16.3-6.5,24.4c-18.2,62-70.1,102-136.1,104.4
		c-46.1,1.7-86.6-11.3-117.7-46.8c-18.6-21.3-29.4-46.5-32.6-74.3c-4.6-39.7,0.4-78,23.6-111.9c24.8-36.3,59.5-56.6,102.7-61.8
		c49.2-6,93.5,5.8,128.8,42.4c19.8,20.5,31.1,45.7,35.9,73.7c0.4,1.9-0.8,4.6,2.1,5.8C1920,254.8,1920,269.4,1920,284.2z
		 M1829.8,264.6c-0.8-19-3.6-38.6-16.5-55.5c-20.9-27.3-62-27.3-82.6,0.2c-19,25.3-20.7,74.1-3.5,102.9
		c12.7,21.3,31.5,30.1,55.7,27.3c22.7-2.7,35.1-17.9,41.9-38.4C1828.2,289.7,1829.6,278,1829.8,264.6z"/>
	<path style="fill:#565353;" d="M0,126.7c30.9,0,62,0,93.3,0c19.4,58.9,38.6,117.7,58.6,178.8c7.5-23.2,14.2-44.2,20.9-65.3
		c11.3-35.5,22.7-71,33.8-106.6c1.3-4.2,2.5-7.3,8.1-7.3c26.5,0.4,53,0.2,81.2,0.2c-5.8,15.4-11.1,29.8-16.7,44.2
		c-28.4,74.9-57,149.6-85.1,224.6c-3.3,8.8-7.5,11.3-16.5,11.1c-21.5-0.6-42.8-0.6-64.3,0c-6.7,0.2-9.4-2.3-11.7-8.3
		C69.5,311.6,36.9,225,4.2,138.4c-1-2.7-1-6.1-4.2-7.9C0,129.2,0,128.1,0,126.7z"/>
	<path style="fill:#565353;" d="M368.6,0c15,5.4,28,13.2,34.2,29.2c10,25.7-1.9,53.6-26.9,63.2c-24.6,9.6-52.6-2.9-62-27.6
		c-9.6-25.7,2.5-51.8,28.8-62.2c1.7-0.6,4-0.2,4.8-2.5C354.6,0,361.5,0,368.6,0z"/>
	<path style="fill:#ACDC90;" d="M821.8,541.4c10.2-3.3,20.5-3.1,30.7,0C842.3,541.4,831.9,541.4,821.8,541.4z"/>
	<path style="fill:#565353;" d="M1333.6,495.2c11.7-18.4,23.2-36.5,35.1-55.3c17.7,10,35.9,18.2,55.7,22.1
		c16.7,3.3,33.6,4.4,50.5,0.8c23.2-5,36.5-20.4,38-44.2c0.6-9.6,0.2-19.2,0.2-30.1c-11.7,6.5-23,12.7-35.9,14.8
		c-66.2,10.6-123.1-18.6-144.2-86.8c-19.8-64.1,1.3-134.4,53.2-171.6c34.4-24.8,73.7-30.9,115-27.1c32.4,3.1,63.2,12.5,92.7,25.9
		c6.7,3.1,8.4,6.9,8.4,13.8c-0.2,85.4-1.7,170.9,0.4,256.3c1.7,68.7-43.6,108.7-97.9,119.4c-55.1,10.8-107.9,2.7-156.7-26.5
		C1343,503.6,1338.2,500.5,1333.6,495.2z M1513.2,258.2c0-18.6,0-37.1,0-55.7c0-3.5,0.4-6.9-4-8.6c-25.9-9.4-58-9.6-78.5,18.4
		c-16.7,22.8-19.2,49-12.1,75.8c10.9,41.3,51.1,57.8,88.1,36.9c4.6-2.7,6.9-5.6,6.7-11.1C1513,295.3,1513.2,276.9,1513.2,258.2z"/>
	<path style="fill:#78C64B;" d="M1007.6,269.8c0-78.3,44.2-136.3,115.8-151.5c49.5-10.6,96.2-2.7,135.7,31.3
		c25.5,21.9,40.5,50.1,45.9,82.9c6.7,41.3,0.8,80.8-22.1,116.7c-24.6,38.8-60.7,59.1-105.2,65.5c-36.5,5.2-71.2,0-103.3-19.2
		c-36.9-22.1-56.8-55.7-64.9-97.3C1007.8,288,1007.4,277.4,1007.6,269.8z M1211.5,266.1c0.4-12.9-1.7-25.5-6.1-37.6
		c-7.7-20.9-22.3-34.4-45.1-36.1c-21.5-1.5-38.6,8.1-47.4,27.5c-14,30.7-14.2,62.4,2.1,92.4c10.8,19.8,29.4,28.2,51.8,25.3
		c22.3-2.9,34.8-17.5,40.5-38.2C1210.2,288.4,1211.9,277.4,1211.5,266.1z"/>
	<path style="fill:#565353;" d="M593.1,216.2c2.7-18.8-5-29-24-31.9c-20-2.9-39.4,0.2-58.8,5.6c-11.3,3.1-22.5,7.1-33.8,12.7
		c-9.2-18-18.2-35.5-27.5-53.6c17.5-12.7,36.7-19.8,57-24.6c35.1-8.3,70.3-9,105.2,0.8c41.3,11.5,65.7,40.3,66,81.2
		c0.8,65.9,0.2,131.7,0.2,198.3c-24.4,0-48.8,0-74.3,0c0-6.5,0-13.1,0-21.3c-18.2,13.8-36.5,22.7-57.2,26.9
		c-49.5,10.2-94.8-14.2-107.7-58.6c-15.9-54.3,8.3-101.8,61.4-121.3c26.1-9.6,53.4-12.1,80.8-13.1c3.5-0.2,7.1,0,10.6-0.2
		C591.9,217,592.5,216.4,593.1,216.2z M595.2,274.8c-5.2,0-9.6-0.2-14,0c-18.4,1.2-37.1,1-54.1,9.6c-12.9,6.5-19.8,20-18,34.2
		c1.7,14.8,10.2,24.8,25.2,27.6c21.1,4.2,40.3-1.9,58.4-12.7c2.1-1.2,2.9-3.1,2.9-5.6C595.2,310.5,595.2,293,595.2,274.8z"/>
	<path style="fill:#565353;" d="M402.6,405.5c-29.8,0-59.1,0-89.1,0c0-92.9,0-185.3,0-278.4c29.4,0,58.8,0,89.1,0
		C402.6,219.8,402.6,312.4,402.6,405.5z"/>
</g>
</svg>
