<?xml version="1.0" encoding="utf-8"?>
<svg version="1.1" id="Layer_1" xmlns="http://www.w3.org/2000/svg" xmlns:xlink="http://www.w3.org/1999/xlink" x="0px" y="0px"
	 viewBox="0 0 264.8 30" style="enable-background:new 0 0 264.8 30;" xml:space="preserve">
<g style="enable-background:new    ;">
	<path d="M16.4,1.4v13.9c0,2.4-0.7,4.4-2.2,5.8s-3.5,2.1-6.1,2.1s-4.6-0.7-6-2.1S0,17.6,0,15.2V1.4h2.5v14c0,1.8,0.5,3.2,1.5,4.1
		s2.4,1.4,4.3,1.4c1.8,0,3.2-0.5,4.2-1.4s1.5-2.3,1.5-4.1V1.4H16.4z"/>
	<path d="M37.5,22.8h-2.9l-7.8-10.4l-2.2,2v8.4h-2.5V1.4h2.5V12l9.7-10.6h2.9l-8.6,9.3L37.5,22.8z"/>
	<path d="M52.6,17.1c0,1.9-0.7,3.4-2.1,4.4s-3.2,1.6-5.6,1.6c-2.5,0-4.5-0.3-5.9-1v-2.4c0.9,0.4,1.8,0.7,2.9,0.9s2.1,0.3,3.1,0.3
		c1.7,0,2.9-0.3,3.8-0.9c0.8-0.6,1.3-1.5,1.3-2.6c0-0.7-0.1-1.3-0.4-1.8s-0.8-0.9-1.5-1.3s-1.8-0.9-3.2-1.4c-2-0.7-3.4-1.6-4.3-2.5
		S39.4,8,39.4,6.5c0-1.7,0.6-3,1.9-3.9s2.9-1.5,4.9-1.5c2.1,0,4.1,0.4,5.9,1.2l-0.8,2.2c-1.8-0.7-3.5-1.1-5.2-1.1
		c-1.3,0-2.3,0.3-3.1,0.8s-1.1,1.4-1.1,2.4c0,0.7,0.1,1.4,0.4,1.8s0.7,0.9,1.4,1.3c0.6,0.4,1.6,0.8,3,1.3c2.2,0.8,3.8,1.7,4.6,2.6
		S52.6,15.6,52.6,17.1z"/>
	<path d="M70.4,14.8c0,2.6-0.7,4.7-2,6.1c-1.3,1.5-3.1,2.2-5.5,2.2c-1.4,0-2.7-0.3-3.8-1s-2-1.6-2.6-2.9s-0.9-2.7-0.9-4.4
		c0-2.6,0.7-4.7,2-6.1c1.3-1.5,3.1-2.2,5.4-2.2c2.2,0,4,0.7,5.4,2.2S70.4,12.2,70.4,14.8z M58.2,14.8c0,2.1,0.4,3.6,1.2,4.7
		s2,1.6,3.6,1.6s2.8-0.5,3.6-1.6c0.8-1.1,1.2-2.6,1.2-4.7c0-2-0.4-3.6-1.2-4.7c-0.8-1.1-2-1.6-3.7-1.6c-1.6,0-2.8,0.5-3.6,1.6
		S58.2,12.7,58.2,14.8z"/>
	<path d="M81.1,23.1c-2.3,0-4.1-0.7-5.4-2.1c-1.3-1.4-1.9-3.5-1.9-6.1c0-2.7,0.6-4.8,1.9-6.2s3.1-2.2,5.5-2.2c0.8,0,1.5,0.1,2.3,0.2
		s1.4,0.4,1.8,0.6l-0.7,2.1c-0.5-0.2-1.1-0.4-1.8-0.5c-0.6-0.1-1.2-0.2-1.7-0.2c-3.3,0-4.9,2.1-4.9,6.2c0,2,0.4,3.5,1.2,4.5
		s2,1.6,3.5,1.6c1.3,0,2.7-0.3,4.1-0.9v2.2C84.1,22.8,82.7,23.1,81.1,23.1z"/>
	<path d="M95.4,23.1c-2.3,0-4.1-0.7-5.4-2.1c-1.3-1.4-1.9-3.5-1.9-6.1c0-2.7,0.6-4.8,1.9-6.2s3.1-2.2,5.5-2.2c0.8,0,1.5,0.1,2.3,0.2
		s1.4,0.4,1.8,0.6l-0.7,2.1c-0.5-0.2-1.1-0.4-1.8-0.5c-0.6-0.1-1.2-0.2-1.7-0.2c-3.3,0-4.9,2.1-4.9,6.2c0,2,0.4,3.5,1.2,4.5
		s2,1.6,3.5,1.6c1.3,0,2.7-0.3,4.1-0.9v2.2C98.4,22.8,97,23.1,95.4,23.1z"/>
	<path d="M110,23.1c-2.4,0-4.2-0.7-5.6-2.2s-2.1-3.5-2.1-6c0-2.6,0.6-4.6,1.9-6.2s3-2.3,5.1-2.3c2,0,3.6,0.7,4.8,2
		c1.2,1.3,1.8,3.1,1.8,5.2v1.5h-11.1c0,1.9,0.5,3.3,1.4,4.3s2.2,1.5,3.8,1.5c1.7,0,3.4-0.4,5.1-1.1V22c-0.9,0.4-1.7,0.6-2.4,0.8
		C112,23,111.1,23.1,110,23.1z M109.4,8.5c-1.3,0-2.3,0.4-3.1,1.3s-1.2,2-1.4,3.5h8.4c0-1.5-0.3-2.7-1-3.5S110.6,8.5,109.4,8.5z"/>
	<path d="M127.4,6.4c0.7,0,1.4,0.1,1.9,0.2L129,8.9c-0.7-0.1-1.3-0.2-1.8-0.2c-1.3,0-2.4,0.5-3.3,1.6s-1.4,2.4-1.4,3.9v8.6h-2.4V6.7
		h2l0.3,3h0.1c0.6-1,1.3-1.9,2.2-2.4S126.4,6.4,127.4,6.4z"/>
	<path d="M142.7,18.4c0,1.5-0.6,2.6-1.7,3.5s-2.7,1.2-4.7,1.2c-2.1,0-3.8-0.3-5-1v-2.3c0.8,0.4,1.6,0.7,2.5,0.9s1.7,0.3,2.6,0.3
		c1.3,0,2.2-0.2,2.9-0.6c0.7-0.4,1-1,1-1.9c0-0.6-0.3-1.2-0.8-1.6c-0.5-0.4-1.6-1-3.2-1.6c-1.5-0.6-2.6-1-3.2-1.5s-1.1-0.9-1.4-1.4
		s-0.5-1.2-0.5-1.9c0-1.3,0.5-2.3,1.6-3.1c1.1-0.8,2.5-1.1,4.4-1.1c1.7,0,3.4,0.4,5.1,1.1l-0.9,2c-1.6-0.7-3.1-1-4.4-1
		c-1.2,0-2,0.2-2.6,0.5s-0.9,0.9-0.9,1.5c0,0.4,0.1,0.8,0.3,1.1s0.6,0.6,1.1,0.9s1.4,0.7,2.8,1.2c1.9,0.7,3.2,1.4,3.9,2.1
		S142.7,17.3,142.7,18.4z"/>
	<path d="M157.6,22.8V12.4c0-1.3-0.3-2.3-0.9-2.9s-1.5-1-2.8-1c-1.7,0-2.9,0.5-3.7,1.4s-1.2,2.4-1.2,4.5v8.4h-2.4V0h2.4v6.9
		c0,0.8,0,1.5-0.1,2.1h0.1c0.5-0.8,1.2-1.4,2-1.8c0.9-0.4,1.9-0.7,3-0.7c2,0,3.4,0.5,4.4,1.4c1,0.9,1.5,2.4,1.5,4.4v10.5H157.6z"/>
	<path d="M178.9,14.8c0,2.6-0.7,4.7-2,6.1c-1.3,1.5-3.1,2.2-5.5,2.2c-1.4,0-2.7-0.3-3.8-1s-2-1.6-2.6-2.9s-0.9-2.7-0.9-4.4
		c0-2.6,0.7-4.7,2-6.1c1.3-1.5,3.1-2.2,5.4-2.2c2.2,0,4,0.7,5.4,2.2S178.9,12.2,178.9,14.8z M166.7,14.8c0,2.1,0.4,3.6,1.2,4.7
		s2,1.6,3.6,1.6s2.8-0.5,3.6-1.6c0.8-1.1,1.2-2.6,1.2-4.7c0-2-0.4-3.6-1.2-4.7c-0.8-1.1-2-1.6-3.7-1.6c-1.6,0-2.8,0.5-3.6,1.6
		S166.7,12.7,166.7,14.8z"/>
	<path d="M190.6,23.1c-1,0-2-0.2-2.9-0.6c-0.9-0.4-1.6-1-2.2-1.8h-0.2c0.1,0.9,0.2,1.8,0.2,2.7V30h-2.4V6.7h2l0.3,2.2h0.1
		c0.6-0.9,1.4-1.5,2.2-1.9s1.8-0.6,2.9-0.6c2.1,0,3.8,0.7,4.9,2.2s1.7,3.5,1.7,6.1c0,2.6-0.6,4.7-1.8,6.1S192.7,23.1,190.6,23.1z
		 M190.3,8.5c-1.6,0-2.8,0.5-3.6,1.4s-1.1,2.4-1.1,4.3v0.5c0,2.3,0.4,3.9,1.1,4.8c0.8,1,2,1.5,3.6,1.5c1.4,0,2.5-0.6,3.3-1.7
		s1.2-2.7,1.2-4.6c0-2-0.4-3.5-1.2-4.6C192.8,9,191.7,8.5,190.3,8.5z"/>
	<path d="M201.2,21.2c0-0.7,0.1-1.2,0.4-1.5c0.3-0.3,0.7-0.5,1.3-0.5c0.6,0,1,0.2,1.3,0.5c0.3,0.3,0.5,0.8,0.5,1.5
		c0,0.6-0.2,1.1-0.5,1.5s-0.8,0.5-1.3,0.5c-0.5,0-0.9-0.2-1.2-0.5C201.4,22.4,201.2,21.9,201.2,21.2z"/>
	<path d="M216,23.1c-2.3,0-4.1-0.7-5.4-2.1c-1.3-1.4-1.9-3.5-1.9-6.1c0-2.7,0.6-4.8,1.9-6.2s3.1-2.2,5.5-2.2c0.8,0,1.5,0.1,2.3,0.2
		s1.4,0.4,1.8,0.6l-0.7,2.1c-0.5-0.2-1.1-0.4-1.8-0.5c-0.6-0.1-1.2-0.2-1.7-0.2c-3.3,0-4.9,2.1-4.9,6.2c0,2,0.4,3.5,1.2,4.5
		s2,1.6,3.5,1.6c1.3,0,2.7-0.3,4.1-0.9v2.2C218.9,22.8,217.6,23.1,216,23.1z"/>
	<path d="M237.7,14.8c0,2.6-0.7,4.7-2,6.1c-1.3,1.5-3.1,2.2-5.5,2.2c-1.4,0-2.7-0.3-3.8-1s-2-1.6-2.6-2.9s-0.9-2.7-0.9-4.4
		c0-2.6,0.7-4.7,2-6.1c1.3-1.5,3.1-2.2,5.4-2.2c2.2,0,4,0.7,5.4,2.2S237.7,12.2,237.7,14.8z M225.5,14.8c0,2.1,0.4,3.6,1.2,4.7
		s2,1.6,3.6,1.6s2.8-0.5,3.6-1.6c0.8-1.1,1.2-2.6,1.2-4.7c0-2-0.4-3.6-1.2-4.7c-0.8-1.1-2-1.6-3.7-1.6c-1.6,0-2.8,0.5-3.6,1.6
		S225.5,12.7,225.5,14.8z"/>
	<path d="M262.4,22.8V12.3c0-1.3-0.3-2.2-0.8-2.9s-1.4-1-2.5-1c-1.5,0-2.6,0.4-3.4,1.3s-1.1,2.2-1.1,4v9h-2.4V12.3
		c0-1.3-0.3-2.2-0.8-2.9s-1.4-1-2.6-1c-1.5,0-2.6,0.5-3.3,1.4s-1.1,2.4-1.1,4.5v8.4h-2.4V6.7h2l0.4,2.2h0.1c0.5-0.8,1.1-1.4,1.9-1.8
		s1.8-0.7,2.8-0.7c2.5,0,4.2,0.9,4.9,2.7h0.1c0.5-0.8,1.2-1.5,2.1-2s1.9-0.7,3.1-0.7c1.8,0,3.2,0.5,4.1,1.4c0.9,0.9,1.4,2.4,1.4,4.5
		v10.5H262.4z"/>
</g>
</svg>
