<?xml version="1.0" encoding="utf-8"?>
<svg version="1.1" id="Layer_1" xmlns="http://www.w3.org/2000/svg" xmlns:xlink="http://www.w3.org/1999/xlink" x="0px" y="0px"
	width="100px" height="100px" viewBox="0 0 100 100" style="enable-background:new 0 0 100 100;" xml:space="preserve">
<g>
	<path style="fill:#E8E8E8;" d="M50,0c27.61,0,50,22.39,50,50s-22.39,50-50,50S0,77.61,0,50S22.39,0,50,0"/>
	<path style="fill:#FFFFFF;" d="M50,1c27.06,0,49,21.94,49,49S77.06,99,50,99S1,77.06,1,50S22.94,1,50,1"/>
	<g id="layer1" transform="translate(-6.9284729,-184.81385)">
		<g id="g498" transform="translate(0.26458409,-0.26457675)">
			<path id="path258" style="fill:#0A7B92;" d="M87.43,240.3c0.09-1.17,0.87-2.16,2.19-2.16c1.24,0,2.15,0.96,2.21,2.16H87.43z
				 M91.8,242.44c-0.22,0.99-0.95,1.5-1.98,1.5c-1.67,0-2.43-1.18-2.38-2.52h5.73c0.07-1.85-0.76-4.38-3.46-4.38
				c-2.09,0-3.6,1.69-3.6,3.98c0.07,2.34,1.23,4.03,3.67,4.03c1.72,0,2.93-0.92,3.27-2.61H91.8z M78.97,244.86h1.26v-4.32
				c0-1.38,0.74-2.4,2.26-2.4c0.96,0,1.55,0.61,1.55,1.54v5.18h1.26v-5.03c0-1.64-0.62-2.8-2.64-2.8c-1.1,0-1.95,0.44-2.49,1.39
				h-0.03v-1.21h-1.18L78.97,244.86z M72.05,241.04c0-1.87,1.07-2.9,2.38-2.9c1.32,0,2.38,1.04,2.38,2.9c0,1.85-1.07,2.89-2.38,2.89
				C73.11,243.93,72.05,242.9,72.05,241.04 M70.72,241.04c0,2.24,1.29,4,3.72,4c2.43,0,3.72-1.76,3.72-4c0-2.25-1.29-4.01-3.72-4.01
				C72,237.03,70.72,238.79,70.72,241.04 M55.49,247.8h1.26v-3.95h0.03c0.56,0.9,1.69,1.2,2.47,1.2c2.34,0,3.49-1.82,3.49-3.98
				c0-2.16-1.17-4.03-3.52-4.03c-1.05,0-2.03,0.37-2.44,1.21h-0.03v-1.04h-1.26V247.8z M61.41,240.97c0,1.5-0.58,2.96-2.29,2.96
				c-1.73,0-2.41-1.39-2.41-2.9c0-1.44,0.65-2.89,2.34-2.89C60.67,238.14,61.41,239.53,61.41,240.97 M50.75,244.86H52v-3.41
				c0-1.94,0.74-3.09,2.77-3.09v-1.33c-1.36-0.04-2.21,0.56-2.81,1.79h-0.03v-1.61h-1.18L50.75,244.86z M41.46,237.48
				c-0.33-2.25-2.15-3.43-4.35-3.43c-3.26,0-5,2.5-5,5.57c0,3.08,1.6,5.51,4.89,5.51c2.67,0,4.31-1.6,4.58-4.23h-1.41
				c-0.13,1.75-1.2,3.05-3.05,3.05c-2.53,0-3.6-2.01-3.6-4.43c0-2.21,1.07-4.28,3.58-4.28c1.47,0,2.66,0.75,2.96,2.25H41.46z"/>
			<path id="path262" style="fill:#0A7B92;" d="M49.57,237.21h-1.26v1.04h-0.03c-0.41-0.84-1.39-1.21-2.44-1.21
				c-2.35,0-3.52,1.87-3.52,4.03s1.15,3.98,3.49,3.98c0.79,0,1.91-0.3,2.47-1.2h0.03v1.02h1.26V237.21z M43.65,240.97
				c0-1.44,0.74-2.83,2.37-2.83c1.69,0,2.34,1.45,2.34,2.89c0,1.51-0.68,2.9-2.41,2.9C44.23,243.93,43.65,242.47,43.65,240.97"/>
			<path id="path266" style="fill:#15223A;" d="M65.58,230.58c0.07,1.9,1.52,2.59,3.24,2.59c1.55,0,3.26-0.59,3.26-2.41
				c0-1.48-1.24-1.9-2.5-2.18c-1.17-0.28-2.5-0.43-2.5-1.33c0-0.77,0.87-0.98,1.63-0.98c0.83,0,1.69,0.31,1.78,1.29h1.26
				c-0.1-1.87-1.45-2.4-3.14-2.4c-1.33,0-2.86,0.64-2.86,2.18c0,1.47,1.26,1.88,2.5,2.16c1.26,0.28,2.5,0.44,2.5,1.42
				c0,0.96-1.07,1.14-1.85,1.14c-1.04,0-2.01-0.36-2.06-1.48L65.58,230.58z M58.48,233h1.26v-4.32c0-1.38,0.74-2.4,2.27-2.4
				c0.96,0,1.55,0.61,1.55,1.54V233h1.26v-5.03c0-1.64-0.62-2.8-2.63-2.8c-1.1,0-1.95,0.44-2.49,1.39h-0.03v-1.21h-1.18V233z
				 M51.79,229.18c0-1.87,1.07-2.9,2.38-2.9c1.32,0,2.38,1.04,2.38,2.9c0,1.85-1.07,2.89-2.38,2.89
				C52.86,232.06,51.79,231.03,51.79,229.18 M50.46,229.18c0,2.24,1.29,4,3.72,4c2.43,0,3.72-1.76,3.72-4
				c0-2.25-1.29-4.01-3.72-4.01C51.75,225.17,50.46,226.93,50.46,229.18 M43.7,233h1.53l2.13-3.17l2.13,3.17h1.61l-2.96-4.13
				l2.64-3.52h-1.51l-1.91,2.68l-1.84-2.68h-1.61l2.66,3.63L43.7,233z M43.24,222.43h-1.26v1.54h1.26V222.43z M41.98,233h1.26v-7.66
				h-1.26V233z M33.85,223.61h2.37c2.59,0,3.52,1.53,3.52,4.04c0,3.89-2.59,4.16-3.55,4.16h-2.34V223.61z M32.44,233h3.63
				c3.52,0,5.08-2,5.08-5.54c0-3.41-1.82-5.03-5.08-5.03h-3.63V233z"/>
			<path id="path270" style="fill:#0A7B92;" d="M63.55,244.86h1.26v-4.32c0-1.38,0.74-2.4,2.26-2.4c0.96,0,1.55,0.61,1.55,1.54v5.18
				h1.26v-5.03c0-1.64-0.62-2.8-2.64-2.8c-0.92,0-2,0.38-2.41,1.3h-0.03v-4.04h-1.26L63.55,244.86z"/>
			<path id="path274" style="fill:#0A7B92;" d="M25.96,223.46c0.81,0.75,1.53,1.6,2.14,2.53c0.12-0.06,0.23-0.11,0.35-0.17v-3.46
				C27.58,222.63,26.74,223,25.96,223.46"/>
			<path id="path278" style="fill:#15223A;" d="M20.16,241.42v3.46c0.86-0.27,1.69-0.63,2.47-1.09c-0.82-0.75-1.54-1.6-2.15-2.52
				C20.38,241.32,20.27,241.37,20.16,241.42"/>
			<path id="path282" style="fill:#15223A;" d="M25.2,233.55l0.02,0.3c0.05,1.8,0.82,3.48,2.12,4.69c0.73-1.55,1.11-3.26,1.11-4.98
				c0-5.2-3.37-9.71-8.28-11.21v3.46C23.23,227.18,25.19,230.17,25.2,233.55"/>
			<path id="path286" style="fill:#0A7B92;" d="M21.28,228.69c-0.73,1.55-1.11,3.26-1.11,4.98c0,3.59,1.61,6.93,4.42,9.17l0.06,0.05
				c1.15,0.9,2.42,1.57,3.8,1.99v-3.46c-0.57-0.25-1.1-0.57-1.6-0.93c-2.15-1.59-3.43-4.13-3.44-6.79l-0.01-0.07v-0.05
				C23.4,231.69,22.64,229.95,21.28,228.69"/>
		</g>
	</g>
</g>
</svg>
