<svg xmlns="http://www.w3.org/2000/svg" viewBox="0 0 600.1 192.28"><path d="M558.6 158.55l1.5-3c3-3 4.4-3 8.9-1.5l10.4 3c3 0 4.4-1.5 4.4-3 0-5.9-25.2-3-25.2-22.2 0-10.4 10.4-16.3 22.2-16.3l14.8 3c3 1.5 4.4 4.4 3 8.9l-1.5 1.5c-1.5 3-4.4 4.4-7.4 3l-10.4-1.5-4.4 1.5c0 7.4 25.2 3 25.2 22.2 0 10.4-8.9 17.8-22.2 17.8-7.4 0-13.3-3-17.8-4.4-3-3.1-3-6.1-1.5-9zm-48.9 17.8l3 1.5c3 0 5.9-3 7.4-5.9l1.5-3-19.3-45.9c-3-4.4 0-5.9 3-5.9h8.9c3 0 5.9 1.5 5.9 4.4l7.4 19.3 1.5 8.9 1.5-8.9 5.9-19.3c0-3 3-4.4 5.9-4.4h7.4c4.4 0 5.9 1.5 4.4 5.9l-19.3 53.3c-4.2 12.2-17.4 18.7-29.6 14.8-3-1.5-4.4-4.4-3-7.4l1.5-3c1.6-4.4 4.5-4.4 6-4.4zm-31.1-40h1.5c0-4.4-4.4-5.9-7.4-5.9l-10.4 1.5c-3 1.5-5.9 1.5-7.4-1.5l-1.5-3c-1.5-3 0-5.9 3-7.4 3-3 10.4-4.4 17.8-4.4 14.8 0 23.7 7.4 23.7 20.7v28.1c0 3-1.5 5.9-5.9 5.9h-4.4c-4.4 0-5.9-3-5.9-5.9v-1.5s-5.9 7.4-16.3 7.4c-10.4 1.5-17.8-5.9-17.8-14.8 1.4-14.8 17.7-19.2 31-19.2zm-7.4 22.2c4.4 0 8.9-5.9 8.9-10.4v-1.5h-1.5c-5.9 0-11.9 1.5-11.9 5.9.1 3 1.5 6 4.5 6zm-60.7-43c10.4 0 13.3 5.9 13.3 5.9v-19.2c0-4.4 1.5-5.9 5.9-5.9h5.9c4.4 0 5.9 1.5 5.9 4.4v63.7c0 3-1.5 5.9-5.9 5.9h-4.4c-4.4 0-5.9-1.5-5.9-5.9v-1.5s-4.4 8.9-16.3 8.9c-13.3 0-22.2-11.9-22.2-28.1 0-17.8 8.9-28.2 23.7-28.2zm2.9 41.5c5.9 0 10.4-4.4 10.4-13.3 0-7.4-3-13.3-10.4-13.3-4.4 0-10.4 4.4-10.4 13.3.1 7.4 4.5 13.3 10.4 13.3zm-50.3-34.1c0-4.4 1.5-5.9 5.9-5.9h5.9c4.4 0 5.9 1.5 5.9 4.4v43c0 3-1.5 5.9-5.9 5.9H369c-3 0-5.9-1.5-5.9-5.9v-41.5zm0-19.2v-3c0-3 3-4.4 5.9-4.4h5.9c4.4 0 5.9 1.5 5.9 4.4v3c0 4.4-1.5 5.9-5.9 5.9H369c-3 0-5.9-1.5-5.9-5.9zm-31.1-1.5c0-4.4 1.5-5.9 5.9-5.9h5.9c4.4 0 5.9 1.5 5.9 4.4v48.9c0 3 1.5 4.4 3 4.4 3 1.5 4.4 3 4.4 5.9v4.4c0 3-1.5 5.9-5.9 5.9-8.9 0-19.3-1.5-19.3-20.7v-47.3h.1 0zm-37.1 13.3c16.3 0 31.1 11.9 31.1 28.1s-14.8 28.1-31.1 28.1-29.6-11.9-29.6-28.1 13.3-28.1 29.6-28.1zm0 41.5c5.9 0 11.9-5.9 11.9-13.3 0-8.9-5.9-13.3-11.9-13.3-5.9 0-11.9 4.4-11.9 13.3.1 7.4 6 13.3 11.9 13.3zm-88.9-54.8c0-4.4 1.5-5.9 5.9-5.9h5.9c4.4 0 5.9 1.5 5.9 4.4v23.7c3-5.9 8.9-8.9 16.3-8.9 10.4 0 19.3 4.4 19.3 19.3v29.6c0 3-1.5 5.9-5.9 5.9h-5.9c-4.4 0-5.9-3-5.9-5.9v-25.2c0-5.9-1.5-7.4-5.9-7.4-7.4 0-11.9 5.9-11.9 13.3v19.3c0 3-1.5 5.9-5.9 5.9H212c-4.4 0-5.9-1.5-5.9-5.9v-62.2h-.1 0zm-31.1 13.3c16.3 0 25.2 11.9 25.2 25.2 0 3-3 5.9-5.9 5.9H166c1.5 7.4 5.9 10.4 11.9 10.4l10.4-3c3-1.5 5.9-1.5 7.4 1.5l1.5 3c1.5 3 1.5 5.9-1.5 7.4-4.4 3-10.4 5.9-19.3 5.9-19.3 0-28.1-14.8-28.1-28.1-.1-16.3 10.3-28.2 26.6-28.2zm7.4 20.8c0-4.4-3-7.4-7.4-7.4s-7.4 3-8.9 7.4h16.3zm-91.8-13.4c-1.5-4.4 1.5-5.9 5.9-5.9h5.9c3 0 5.9 1.5 7.4 4.4l5.9 23.7 3 8.9 1.5-8.9 7.4-23.7c0-3 3-4.4 5.9-4.4h7.4c3 0 5.9 1.5 4.4 5.9l-14.8 43c-1.5 3-3 4.4-5.9 4.4h-11.9c-4.4 0-5.9-1.5-7.4-4.4l-14.7-43zm-32.6-7.4c17.8 0 31.1 11.9 31.1 28.1s-13.3 28.1-31.1 28.1c-16.3 0-29.6-11.9-29.6-28.1s13.3-28.1 29.6-28.1zm0 41.5a13.23 13.23 0 0 0 13.3-13.3c0-8.9-5.9-13.3-13.3-13.3-5.9 0-11.9 4.4-11.9 13.3 0 7.4 6 13.3 11.9 13.3zM.1 102.25c0-4.4 1.5-5.9 5.9-5.9h5.9c4.4 0 5.9 1.5 5.9 4.4v48.9c0 3 1.5 4.4 3 4.4 3 1.5 4.4 3 4.4 5.9v4.4c0 3-1.5 5.9-5.9 5.9-8.9 0-19.3-1.5-19.3-20.7l.1-47.3h0z" fill="#11aaf6"/><path d="M106.8 97.75c-16.3 3-28.1-1.5-34.1-13.3-8.9-16.3 0-35.6 17.8-40 10.4-3 20.7-3 31.1 3 8.9 7.4 11.9 16.3 10.4 28.1-1.5 10.4-10.4 17.8-20.7 20.7l-4.5 1.5zm-11.9-65.1s7.4-31.1-8.9-32.6c-14.8-1.5-7.4 29.6 8.9 32.6zm-32.6 16.3s-14.8-25.2-23.7-22.2-11.9 10.4-8.9 13.3 19.3 13.3 32.6 8.9zm60.8-7.5s7.4-34.1 22.2-26.7c13.3 7.4 1.5 10.4 1.5 13.3 0 4.6-23.7 13.4-23.7 13.4zm23.7 22.3s13.3-16.3 25.2-5.9-11.9 17.7-25.2 5.9zm-93.4 14.8s-22.2-11.9-23.7 0c-3 13.3 4.4 3 4.4 8.9-1.4 5.9 10.4-1.5 19.3-8.9z" fill="#f9c050"/><path d="M99.4 65.25l7.4-7.4 5.9-1.5c3 0 5.9 3 7.4 7.4 0 4.4 0 8.9-3 13.3l-10.4 16.3h-3c-7.4-3-13.3-7.4-19.3-14.8-1.5-1.5-4.4-5.9-3-8.9 0-5.9 3-8.9 7.4-8.9s6.1 1.5 10.6 4.5z" fill="#fff"/><path d="M192.7 109.65l-8.9-3-7.4-1.5-7.4-1.5-1.5-1.5-11.9-1.5h-5.9l-10.3-1.4h-8.9-1.5-1.5l-4.4-1.5h-17.8-1.5l-1.5-1.5-19.3 1.5-8.9 1.5h-4.4l-1.5 1.5h-4.4l-3 1.5-10.4 3-10.4 4.4-1.5 1.5h-8.9v-3l8.9-7.4 4.4-1.5 14.8-5.9 8.9-1.5 10.4-3h8.9l1.5 1.5 3-1.5 10.4-1.5H132l1.5 1.5h16.3v1.5l1.5 1.5v-1.5c0-1.5 1.5-3 3-1.5l8.9 1.5h7.4l16.3 3 5.9 4.4 1.5 4.4 1.5 1.5v4.4c-.1 3.1-1.6 3.1-3.1 1.6zM87.5 90.35h0zm11.9 0h-1.5l1.5 1.5v-1.5zm29.6 0h-23.7-3v1.5h28.1v-1.5H129zm4.4 1.5v-1.5H132v1.5h1.4zm6 0v-1.5l-1.5 1.5h1.5zm8.8-1.5h-1.5v1.5h1.5v-1.5zm10.4 4.5v1.5l1.5-1.5h-1.5zm1.5-3h-1.5l1.5 1.5v-1.5z" fill="#11aaf6"/></svg>