<?xml version="1.0" encoding="utf-8"?>
<svg version="1.1" id="Layer_1" xmlns="http://www.w3.org/2000/svg" xmlns:xlink="http://www.w3.org/1999/xlink" x="0px" y="0px"
	width="100px" height="100px" viewBox="0 0 100 100" style="enable-background:new 0 0 100 100;" xml:space="preserve">
<g>
	<path style="fill:#E8E8E8;" d="M50,0c27.61,0,50,22.39,50,50s-22.39,50-50,50S0,77.61,0,50S22.39,0,50,0"/>
	<path style="fill:#FFFFFF;" d="M50,1c27.06,0,49,21.94,49,49S77.06,99,50,99S1,77.06,1,50S22.94,1,50,1"/>
	<g>
		<polygon id="XMLID_1_" style="fill:#B52E83;" points="88.71,38.01 88.71,62.2 86.06,62.2 72.27,42.57 72.27,62.2 69.79,62.2 
			69.79,38.01 72.27,38.01 86.06,57.78 86.06,38.01 		"/>
		<path id="XMLID_2_" style="fill:#B52E83;" d="M56,37.48c-6.72,0-12.37,5.64-12.37,12.54c0,0.89,0.17,1.48,0.17,2.33h0.04v0.21
			c-0.64,0-1.27,0-2.02,0c-3.5,0-6.68-0.45-9.23-0.76v-4.6c1.91-0.36,3.88-0.7,6.36-0.7c-2.48,0-4.45,0.17-6.36,0.32v-6.13h11.67
			v-2.76H28.05L11.29,62.11h3.18l15.8-22.36v7.42c-4.03,0.7-5.47,2.12-5.47,3.35c0,1.27,2.08,2.48,5.47,3.18v8.4h14v-2.33H32.61
			v-5.54c2.76,0.36,5.73,0.45,8.91,0.45c1.06,0,2.12,0,2.97,0c1.95,4.67,6.36,7.83,11.5,7.83c6.89,0,12.37-5.64,12.37-12.54
			C68.35,43.08,62.9,37.48,56,37.48z M30.27,51.27c-1.91-0.36-2.82-1.06-2.82-1.59s0.91-1.27,2.82-1.8V51.27z M56,60.08
			c-3.71,0-7.06-2.29-8.65-5.47c6.36-0.7,10.92-2.12,10.92-4.07c0-1.59-2.12-2.97-9.02-3.71c4.07,0.53,6.89,1.8,6.89,2.86
			c0,1.23-4.03,2.29-9.72,2.65c-0.17-0.74-0.17-1.42-0.17-2.33c0-5.47,4.41-9.86,9.72-9.86c5.47,0,9.91,4.41,9.91,9.86
			C65.91,55.51,61.45,60.08,56,60.08z"/>
	</g>
</g>
</svg>
