<?xml version="1.0" encoding="utf-8"?>
<svg version="1.1" id="Layer_1" xmlns="http://www.w3.org/2000/svg" xmlns:xlink="http://www.w3.org/1999/xlink" x="0px" y="0px"
	 viewBox="0 0 923.08 262.97" style="enable-background:new 0 0 923.08 262.97;" xml:space="preserve">
<g>
	<path style="fill:#494B57;" d="M571.35,260.43c-24.88-5.33-45.21-19.52-54.16-37.78c-3.86-7.89-4.47-11.1-4.47-23.75
		c-0.01-18.17,3.75-27.39,15.75-38.66c11.41-10.72,26.07-17.23,62.83-27.92c43.73-12.72,50.67-16.34,50.96-26.63
		c0.2-7.09-4.35-13.03-13.08-17.06c-10.91-5.04-35.59-5.04-44.96,0c-9.2,4.95-14,10.68-16.21,19.38l-1.91,7.53l-22.63-0.26
		c-12.45-0.14-23.11-0.77-23.68-1.39c-2.03-2.2,1.95-22.36,6.09-30.84c8.15-16.71,18.44-25.21,39.06-32.26
		c16.95-5.8,53.51-7.41,72.43-3.2c25.12,5.59,43.16,18.34,50.98,36.02c5.89,13.31,7.74,34.38,6.76,76.89
		c-0.62,26.95-1.56,39.36-3.52,46.44c-10.17,36.78-41.39,56.35-89.35,56.03C591.43,262.9,577.53,261.75,571.35,260.43L571.35,260.43
		z M613.65,221.69c10.18-3.02,20.43-11.7,25.01-21.17c2.8-5.78,3.7-11.24,4.32-26c0.43-10.28,0.48-18.69,0.12-18.69
		c-4.24,0-58.99,17.43-64.03,20.39c-9.22,5.4-13.55,12.84-13.55,23.28c0,7.49,0.63,8.97,6.17,14.51c3.39,3.39,8.7,6.98,11.78,7.96
		C591.62,224.57,604.36,224.45,613.65,221.69z M862.42,260.66c-9.8-2.69-19.05-8.73-24.67-16.11c-8.94-11.72-8.93-11.65-8.93-131.37
		V2.77l17.76,0.55c14.85,0.46,18.5,1.1,22.24,3.89c6.79,5.08,10.06,13.13,11.51,28.35l1.31,13.81l20.72,0.45l20.72,0.45l0,10.11
		c0,19.88-9.38,28.73-30.47,28.77l-11.78,0.03v124.67l3.89,4.19c2.14,2.31,6.59,4.7,9.89,5.32c5.97,1.12,20.92,0.01,25.96-1.92
		c2.35-0.9,2.58,1.06,2.17,18.22l-0.46,19.23l-9.75,2.02C899.87,263.56,872.42,263.41,862.42,260.66L862.42,260.66z M467.44,257.48
		c-8.05-2.87-13.74-8.18-17.5-16.32c-2.76-5.98-3-11.81-3.04-72.32c-0.04-72.42-0.1-72.84-10.24-80.28
		c-6.95-5.1-24.81-5.66-34.26-1.09c-12.74,6.17-12.41,3.7-12.41,92.59v78.17h-52.01v-78.91c0-88.66,0.39-85.66-11.85-91.58
		c-14.08-6.82-33.18-3.61-40.86,6.86c-3.28,4.47-3.38,6.58-3.76,82.08c-0.21,42.62-0.4,78.4-0.41,79.52
		c-0.01,1.54-6.3,2.03-25.99,2.03h-25.97l0-75.78c0-77.96,0.96-93.91,6.27-104.29c4.46-8.73,15.87-19.34,25.88-24.08
		c24.47-11.58,72.51-11.76,95.04-0.36l6.18,3.13l10.43-4.17c14.31-5.73,24.24-7.36,44.77-7.36c31.51,0,49.8,5.92,65.02,21.06
		c15.68,15.6,15.17,12.07,15.76,109.37l0.51,84.11l-12.66-0.07C479.39,259.74,470.88,258.71,467.44,257.48L467.44,257.48z
		 M713.42,174.75c0-49.75,0.67-87.02,1.65-92.23c3.31-17.53,14.65-29.58,32.58-34.64c10.73-3.03,36.5-3.37,54.27-0.73l12.26,1.82
		v38.53l-5.28-1.18c-2.91-0.65-10.9-1.18-17.76-1.18c-10.13,0-13.34,0.64-17.07,3.41c-8.71,6.48-8.6,5.27-8.62,90.45l-0.02,79.23
		h-52.01L713.42,174.75L713.42,174.75z"/>
	<path style="fill:#FEB415;" d="M75.5,260.78c-22.66-4.49-34.62-10.46-48.78-24.34C14.42,224.37,6.17,208.7,2.24,189.91
		C-1.45,172.29-0.33,84.8,3.76,70.63c7.07-24.5,22.21-44.76,41.68-55.77C62.82,5.02,78.05,1.1,102.32,0.21
		c24.08-0.88,39.96,0.93,55.64,6.36c37.88,13.11,60.04,45.65,54.88,80.59c-5,33.84-27.78,53.7-77.62,67.67
		c-29.35,8.22-58.6,17.3-62.83,19.49c-11.32,5.87-17.06,14.53-14.96,22.55c3.81,14.57,17.29,22.39,40.7,23.58
		c29.51,1.51,45.84-8.21,52.61-31.3l1.43-4.88l27.94-0.45l27.94-0.44l-0.95,4.51c-4.87,23.22-12.21,37.79-25.02,49.63
		c-17.6,16.27-39.83,23.72-74.07,24.83C93.91,262.81,83.09,262.29,75.5,260.78L75.5,260.78z M80.58,128.92
		c41.49-12.43,47.15-14.28,53.43-17.43c17.26-8.65,24.63-19.65,23.1-34.48c-1.37-13.31-8.36-22.97-21.47-29.67
		c-11.84-6.05-35.13-7.07-48.24-2.12c-15.74,5.95-26.86,20.52-30.44,39.87c-1.93,10.42-2.44,46.78-0.69,48.53
		C58.06,135.41,60.46,134.95,80.58,128.92L80.58,128.92z"/>
</g>
</svg>
