<?xml version="1.0" encoding="utf-8"?>
<svg version="1.1" id="Layer_1" xmlns="http://www.w3.org/2000/svg" xmlns:xlink="http://www.w3.org/1999/xlink" x="0px" y="0px"
	width="100px" height="100px" viewBox="0 0 72.2 72.2" style="enable-background:new 0 0 72.2 72.2;" xml:space="preserve">
<g>
	<circle style="fill:#E8E8E8;" cx="36.1" cy="36.1" r="36.1"/>
	<circle style="fill:#FFFFFF;" cx="36.1" cy="36.1" r="35.4"/>
	<g>
		<path style="fill:#293A91;" d="M45,58.5h-0.7v-0.4h1.9v0.4h-0.7v1.9H45V58.5 M42.4,58.5h-0.7v-0.4h1.9v0.4h-0.7v1.9h-0.5
			L42.4,58.5 M40,60c0.1,0,0.2,0,0.3-0.1c0.1-0.1,0.1-0.1,0.2-0.1s0.1-0.1,0.1-0.2c0-0.1,0.1-0.2,0.1-0.3c0-0.1,0-0.2-0.1-0.3
			c0-0.1-0.1-0.1-0.1-0.2c-0.1-0.1-0.1-0.1-0.2-0.1c-0.1-0.1-0.2-0.1-0.3-0.1c-0.1,0-0.2,0-0.3,0.1c-0.1,0.1-0.1,0.1-0.2,0.1
			c-0.1,0.1-0.1,0.1-0.1,0.2c0,0.1-0.1,0.2-0.1,0.3c0,0.1,0,0.2,0.1,0.3c0,0.1,0.1,0.1,0.1,0.2c0.1,0.1,0.1,0.1,0.2,0.1
			C39.8,60,39.9,60,40,60 M40,60.5c-0.1,0-0.3,0-0.4-0.1c-0.1-0.1-0.3-0.1-0.4-0.2C39.2,60.1,39,60,39,59.8C39,59.7,39,59.5,39,59.4
			s0-0.3,0.1-0.4c0.1-0.1,0.1-0.3,0.2-0.4c0.1-0.1,0.2-0.2,0.4-0.2c0.1-0.1,0.3-0.1,0.4-0.1s0.3,0,0.4,0.1c0.1,0.1,0.3,0.1,0.4,0.2
			c0.1,0.1,0.2,0.2,0.2,0.4c0.1,0.1,0.1,0.3,0.1,0.4s0,0.3-0.1,0.4c-0.1,0.1-0.1,0.3-0.2,0.4c-0.1,0.1-0.2,0.2-0.4,0.2
			S40.2,60.5,40,60.5 M37.5,58.2h0.4v2.2h-0.4L37.5,58.2 M35.6,59.2c0.1,0,0.2-0.1,0.2-0.1c0.1-0.1,0.1-0.1,0.1-0.2s0-0.2-0.1-0.2
			c-0.1-0.1-0.1-0.1-0.2-0.1h-0.4v0.7L35.6,59.2L35.6,59.2z M34.7,58.2h0.9c0.1,0,0.3,0,0.4,0.1c0.1,0,0.1,0.1,0.2,0.1
			c0.1,0.1,0.1,0.1,0.1,0.2c0,0.1,0.1,0.1,0.1,0.2c0,0.1,0,0.3-0.1,0.4c-0.1,0.1-0.1,0.2-0.3,0.3l0.5,0.9h-0.4l-0.4-0.8h-0.4v0.8
			h-0.4L34.7,58.2 M32.9,59.2c0.1,0,0.2-0.1,0.2-0.1c0.1-0.1,0.1-0.1,0.1-0.2s0-0.2-0.1-0.2c-0.1-0.1-0.1-0.1-0.2-0.1h-0.4v0.7
			L32.9,59.2C32.9,59.3,32.9,59.2,32.9,59.2z M32.1,58.2h0.8c0.1,0,0.3,0,0.4,0.1c0.1,0,0.1,0.1,0.2,0.1c0.1,0.1,0.1,0.1,0.1,0.2
			c0,0.1,0.1,0.1,0.1,0.2c0,0.1,0,0.3-0.1,0.4c-0.1,0.1-0.1,0.2-0.3,0.3l0.5,0.9h-0.4L33,59.6h-0.5v0.8h-0.4L32.1,58.2 M30.4,59.5
			l-0.3-0.9l-0.3,0.9H30.4C30.4,59.5,30.4,59.5,30.4,59.5z M29.9,58.2h0.4l0.8,2.2h-0.4l-0.2-0.6h-0.8l-0.2,0.6H29L29.9,58.2
			 M26.1,58.2h0.4l0.6,1l0.6-1h0.4l0.1,2.2h-0.4l-0.1-1.5l-0.6,0.9h-0.2l-0.6-0.9l-0.1,1.5H26L26.1,58.2 M40.1,13.6
			c-1.2-1.2-2.9-1.9-4.6-1.9h-4.9c-0.2,0-0.4,0.2-0.4,0.7c0,0.5,0.1,0.7,0.4,0.7h4.9c1.4,0,2.6,0.5,3.6,1.5s1.5,2.2,1.5,3.6
			c0,1.4-0.5,2.6-1.5,3.6c-1,0.9-2.2,1.5-3.6,1.5H32c-0.2,0-0.3-0.1-0.4-0.3c0,0,0,0,0,0v-5.5c0-0.2-0.3-0.4-0.8-0.4
			c-0.5,0-0.8,0.1-0.8,0.4v6.6c0,0.4,0.4,0.8,0.8,0.8h4.6c1.7,0,3.4-0.7,4.6-1.9c1.2-1.2,1.9-2.9,1.9-4.7
			C42.1,16.5,41.3,14.9,40.1,13.6 M53.5,38.1L52,35h-0.1l-1.4,3C50.6,38,53.5,38.1,53.5,38.1z M48.3,40.5l3.5-7.7
			c0-0.1,0.1-0.1,0.2-0.1h0.1c0.1,0,0.1,0.1,0.2,0.1l3.5,7.6c0.1,0.1,0,0.3-0.2,0.3h-0.7c-0.1,0-0.2-0.1-0.3-0.2l-0.7-1.6h-3.8
			l-0.7,1.6c0,0.1-0.1,0.2-0.3,0.2h-0.7C48.3,40.8,48.3,40.6,48.3,40.5 M43.4,33.8h-1.9c-0.1,0-0.3-0.1-0.3-0.1V33
			c0-0.1,0.1-0.3,0.3-0.3h4.9c0.1,0,0.2,0.1,0.2,0.3v0.6c0,0.1-0.1,0.1-0.2,0.1h-1.9v6.8c0,0.1-0.1,0.2-0.2,0.2h-0.7
			c-0.1,0-0.2-0.1-0.2-0.2V33.8 M35.1,33c0-0.1,0.1-0.3,0.2-0.3h0.7c0.1,0,0.2,0.1,0.2,0.3v6.6h3.1c0.1,0,0.2,0.1,0.2,0.2v0.6
			c0,0.1-0.1,0.1-0.2,0.1h-4c-0.1,0-0.2-0.1-0.2-0.1V33 M26.6,33c0-0.1,0.1-0.2,0.2-0.2h4.5c0.1,0,0.2,0.1,0.2,0.3v0.6
			c0,0.1-0.1,0.1-0.2,0.1h-3.7v2.4h3.1c0.1,0,0.2,0.1,0.2,0.2v0.6c0,0.1-0.1,0.2-0.2,0.2h-3.1v2.5h3.7c0.1,0,0.2,0.1,0.2,0.2v0.6
			c0,0.1-0.1,0.2-0.2,0.2h-4.6c-0.1,0-0.1-0.1-0.1-0.2L26.6,33 M19,39.8c1.7,0,2.9-1.2,2.9-2.9S20.7,34,19,34h-1.5v5.8H19z M16.4,33
			c0-0.1,0.1-0.2,0.2-0.2h2.6c2.2,0,4,1.8,4,4c0,2.2-1.8,4-4,4h-2.6c-0.1,0-0.2-0.1-0.2-0.1V33 M47.1,48.6l0.1-0.3
			c0.1-0.1,0.1-0.1,0.2-0.1c0,0,0.5,0.4,1,0.4c0.4,0,0.7-0.3,0.7-0.6c0-0.4-0.4-0.6-0.9-0.9c-0.6-0.3-1.2-0.6-1.2-1.3
			c0-0.5,0.4-1.2,1.4-1.2c0.6,0,1.1,0.4,1.2,0.4c0.1,0,0.1,0.1,0,0.2c-0.1,0.1-0.1,0.1-0.1,0.2c-0.1,0.1-0.1,0.1-0.2,0.1
			c-0.1,0-0.5-0.3-0.9-0.3c-0.5,0-0.7,0.4-0.7,0.6c0,0.4,0.3,0.6,0.8,0.8c0.7,0.3,1.4,0.6,1.4,1.4c0,0.6-0.6,1.2-1.4,1.2
			c-0.7,0-1.2-0.4-1.4-0.5C47,48.8,47,48.7,47.1,48.6 M43,44.9c0-0.1,0.1-0.1,0.1-0.1h0.4c0.1,0,0.1,0,0.1,0.1v3.7h1.7
			c0.1,0,0.1,0.1,0.1,0.1v0.4c0,0.1,0,0.1-0.1,0.1h-2.2c-0.1,0-0.1-0.1-0.1-0.1V44.9 M38.2,45c0-0.1,0.1-0.1,0.1-0.1h2.5
			c0.1,0,0.1,0,0.1,0.1v0.4c0,0.1,0,0.1-0.1,0.1h-1.9v1.3h1.6c0.1,0,0.1,0,0.1,0.1v0.4c0,0.1-0.1,0.1-0.1,0.1h-1.6v1.3h1.9
			c0.1,0,0.1,0.1,0.1,0.1v0.4c0,0.1,0,0.1-0.1,0.1h-2.5c-0.1,0-0.1-0.1-0.1-0.1V45 M34.6,45.5h-1c-0.1,0-0.1-0.1-0.1-0.1v-0.4
			c0-0.1,0.1-0.1,0.1-0.1h2.7c0.1,0,0.1,0,0.1,0.1v0.4c0,0.1,0,0.1-0.1,0.1h-1v3.6c0,0.1-0.1,0.1-0.1,0.1h-0.4
			c-0.1,0-0.1-0.1-0.1-0.1L34.6,45.5 M29.9,48.7c0.9,0,1.7-0.7,1.7-1.6s-0.7-1.7-1.7-1.7c-0.9,0-1.6,0.7-1.6,1.7
			C28.4,47.9,29.1,48.7,29.9,48.7 M29.9,44.8c1.2,0,2.2,1,2.2,2.2c0,1.2-1,2.2-2.2,2.2c-1.2,0-2.2-1-2.2-2.2
			C27.7,45.8,28.7,44.8,29.9,44.8 M22.3,45c0-0.1,0-0.1,0.1-0.1h0.4c0.1,0,0.1,0,0.1,0.1v1.8h2.4v-1.8c0-0.1,0-0.1,0.1-0.1h0.4
			c0.1,0,0.1,0,0.1,0.1v4.1c0,0.1,0,0.1-0.1,0.1h-0.4c-0.1,0-0.1-0.1-0.1-0.1v-1.9h-2.4v1.9c0,0.1,0,0.1-0.1,0.1h-0.4
			c-0.1,0-0.1-0.1-0.1-0.1L22.3,45"/>
		<path style="fill:#293A91;" d="M49.9,53.8H22.3v-0.2h27.6L49.9,53.8"/>
	</g>
</g>
</svg>
