<?xml version="1.0" encoding="utf-8"?>
<svg version="1.1" id="Layer_1" xmlns="http://www.w3.org/2000/svg" xmlns:xlink="http://www.w3.org/1999/xlink" x="0px" y="0px"
	 viewBox="0 0 446.9 98.3" style="enable-background:new 0 0 446.9 98.3;" xml:space="preserve">
<g>
	<g id="_x23_06a7e0ff">
		<path style="fill:#06A7E0;" d="M17.1,6.2C17.3,4.1,17.8,2,18.6,0c3.2,4.1,7.1,7.6,11.5,10.4c6.5,4.2,13.9,6.7,21.5,7.8
			c5.3,0.8,10.7,1,16,0.5c1.2-0.1,2.3-0.2,3.5-0.4c-3.9,2-8.1,3.6-12.3,4.7c-7.8,2-16.1,2.2-24.1,0.8c-1.9-0.3-3.9-0.8-5.7-1.4
			c-2.2-0.8-4.4-1.8-6.3-3.2c-1.9-1.4-3.4-3.3-4.4-5.4C17.2,11.4,16.8,8.8,17.1,6.2z"/>
		<path style="fill:#06A7E0;" d="M0.2,26.3c-0.3-2.2-0.3-4.4,0-6.6c3.4,2.2,6.9,4.3,10.6,6c4.7,2.1,9.6,3.5,14.7,4.4
			c8.8,1.5,17.9,1.3,26.7,0.2C61.6,29,70.9,26.8,80,24c-3.2,2.4-6.5,4.5-9.9,6.5c-7.8,4.6-16.1,8.5-24.7,11.1
			c-6.4,1.9-13,3.1-19.7,3.1c-4.8,0-9.6-0.6-14.1-2.2c-2.4-0.9-4.5-2.3-6.2-4.1c-2-2.2-3.4-4.8-4.2-7.6C0.7,29.4,0.4,27.8,0.2,26.3z
			"/>
		<path style="fill:#06A7E0;" d="M63.3,40.9c3.2-1.9,6.2-4,9.2-6.2c-4.5,6.7-9.7,13-15.9,18.2c-3.2,2.7-6.7,5-10.4,6.9
			c-2.3,1.1-4.8,2.1-7.3,2.6c-2.4,0.5-4.9,0.6-7.4,0.3c-2-0.2-3.9-0.8-5.6-1.7c-1.6-0.9-3.1-2.1-4.2-3.6c-1.5-2-2.2-4.5-2.6-6.9
			c3.4,1.2,7,1.8,10.5,1.7c3.5,0,7.1-0.5,10.5-1.3c4.1-1,8.1-2.4,12-4.1C56,45,59.8,43,63.3,40.9z"/>
	</g>
	<g id="_x23_039482ff">
		<path style="fill:#039482;" d="M98.9,10.3c4.1-0.4,8.2-0.5,12.3-0.1c2.4,0.3,4.8,0.7,7,1.7c1,0.5,2.1,1.1,2.8,2
			c0.8,0.8,1.2,1.8,1.3,2.9c0.1,1.1-0.1,2.2-0.5,3.2c-1.4-1.3-3.2-2.1-5.1-2.5c-1.4-0.4-2.9-0.5-4.4-0.6c-1.8,2.1-4.5,3.5-7.3,3.2
			c-1.5-0.1-2.9-0.8-3.9-1.9c-0.3-0.3-0.6-0.6-0.9-0.9c2.4,1,5.3,0.7,7.5-0.7c-3.8-0.5-7.6-0.7-11.4-0.8c-5.6,0-11.2,0.3-16.7,1
			c-1.8,0.2-3.6,0.5-5.4,0.7c3.6-2,7.5-3.4,11.5-4.7C90,11.7,94.4,10.7,98.9,10.3z"/>
		<path style="fill:#039482;" d="M100.3,27c7.5-3,15.7-4.7,23.8-4.1c2.8,0.2,5.7,0.8,8.3,1.9c1.3,0.6,2.7,1.4,3.5,2.6
			c0.7,1,0.9,2.2,0.7,3.4c-0.2,1.8-1.1,3.5-2.2,4.9c-0.2-1-0.6-2.1-1.4-2.8c-1-0.9-2.3-1.3-3.6-1.4c-2.2-0.2-4.3,0.2-6.4,0.7
			c-2.5,0.6-5,1.5-7.4,2.4c-4.1,1.6-8.2,3.5-12.1,5.6c-5.9,3.8-11.7,7.8-17.4,11.9c-4.1,3-8.1,6.2-11.9,9.5
			c-2.6,2.3-5.1,4.6-7.5,7.1c-1.8,1.9-3.5,3.8-4.9,6C63,70.8,64.3,67,66,63.4c1.1-2.2,2.2-4.4,4-6.2c-2.7,2-5.2,4.2-7.6,6.5
			c-1,1-2.1,2-3,3c-4.6,4.7-8.8,9.8-12.8,15.1c-1.3,1.7-2.5,3.4-3.7,5.1c1.2-3.3,2.4-6.6,3.9-9.8c3.3-7.2,7.9-13.8,13.2-19.7
			c1.9-2.1,3.8-4.1,5.8-6.1c2.6-2.5,5.3-5,8-7.3c3.2-2.7,6.4-5.4,9.8-7.8C88.8,32.5,94.4,29.4,100.3,27z"/>
	</g>
	<g id="_x23_2574bbff">
		<path style="fill:#2574BB;" d="M382.6,36.2c2.1-1.4,4.7-2,7.3-2.1c2.4-0.1,4.9,0.1,7.2,0.8c1.1,0.3,2.1,0.7,3,1.3
			c0.7,0.5,1.3,1.3,1.4,2.2c0,0.6-0.1,1.2-0.3,1.7c-0.8,1.1-1.6,2.3-2.4,3.4c-1.5-1.3-3.5-2.1-5.5-2.2c-1.3-0.1-2.8,0-4,0.7
			c-0.6,0.3-1.2,0.8-1.5,1.3c-0.8,1.1-0.9,2.5-1,3.8c0,1.2,0,2.3,0,3.5c3.9,0,7.8,0,11.8,0c0,2.4,0,4.7,0,7.1c-3.9,0-7.8,0-11.8,0
			c0,8.6,0,17.1,0,25.7c-3.1,0-6.2,0-9.4,0c0-11.9,0-23.7,0-35.6c0-2.7,0.4-5.4,1.7-7.7C379.9,38.5,381.1,37.1,382.6,36.2z"/>
		<path style="fill:#2574BB;" d="M181.6,34.8c1.4-0.2,2.8-0.3,4.2-0.2c0.8,0.1,1.7,0.2,2.5,0.6c1.1,0.5,2,1.5,2.4,2.7
			c0.3,0.8,0.3,1.7,0.3,2.5c0,4.1,0,8.3,0,12.4c0.9-0.8,1.9-1.5,3-2c2-1,4.2-1.1,6.4-1c2.4,0.2,4.9,0.8,6.8,2.3
			c1.5,1.1,2.7,2.6,3.5,4.2c0.9,1.7,1.4,3.5,1.7,5.4c0.4,2.7,0.4,5.5,0.1,8.2c-0.2,1.9-0.5,3.8-1.2,5.6c-0.6,1.6-1.4,3.2-2.6,4.6
			c-1.4,1.6-3.2,2.9-5.2,3.5c-2.5,0.8-5.2,1-7.7,0.4c-2.2-0.6-4.3-1.5-5.7-3.3c0,0.8-0.2,1.6-0.7,2.1c-0.5,0.5-1.2,0.6-1.9,0.6
			c-2,0-3.9,0-5.9,0c0-11.8,0-23.6,0-35.3C181.6,43.6,181.5,39.2,181.6,34.8 M193.3,56.8c-1,0.3-1.7,1.1-2.1,2
			c-0.3,0.7-0.2,1.4-0.2,2.1c0,4.6,0,9.3,0,13.9c1,0.8,2.1,1.5,3.4,1.9c1,0.2,2,0.3,3.1,0.2c1.1-0.1,2.2-0.6,3-1.4
			c0.9-0.8,1.4-1.9,1.7-3c0.7-2.3,0.8-4.8,0.8-7.2c-0.1-2.1-0.4-4.4-1.6-6.3c-0.9-1.4-2.4-2.4-4.1-2.6
			C195.9,56.4,194.6,56.4,193.3,56.8z"/>
		<path style="fill:#2574BB;" d="M365.8,34.8c2.1-0.3,4.3,0.9,5.2,2.9c0.7,1.6,0.6,3.6-0.5,5.1c-0.6,0.8-1.4,1.4-2.3,1.7
			c-1.8,0.6-3.9,0.3-5.3-1.1c-0.7-0.7-1.3-1.6-1.4-2.7c-0.2-1.3,0-2.7,0.8-3.8C363,35.7,364.3,34.9,365.8,34.8z"/>
		<path style="fill:#2574BB;" d="M408.5,34.8c1.8-0.2,3.7,0.5,4.7,1.9c0.7,0.9,1,2,1,3.1c0,1.1-0.3,2.3-1.1,3.2
			c-1.2,1.5-3.3,2.1-5.1,1.7c-1.9-0.4-3.5-2-3.7-3.9c-0.2-1.2,0-2.6,0.6-3.7C405.6,35.8,407,35,408.5,34.8z"/>
		<path style="fill:#2574BB;" d="M131.1,50.2c2.7-0.5,5.6-0.4,8.3,0.2c2,0.5,3.9,1.2,5.4,2.6c0.6,0.5,1,1.1,1.1,1.9
			c0.2,1.1-0.2,2.1-0.6,3.1c-0.4,0.9-0.9,1.8-1.6,2.5c-0.7-0.7-1.5-1.3-2.4-1.9c-0.9-0.5-1.8-1-2.8-1.3c-1.5-0.4-3.2-0.5-4.8-0.2
			c-1.7,0.3-3.3,1-4.4,2.4c-1.3,1.8-1.9,4-2,6.2c-0.1,2,0,4,0.5,5.9c0.5,1.8,1.5,3.5,3.1,4.6c1,0.7,2.1,1.1,3.3,1.2
			c1.2,0.1,2.4,0.1,3.5-0.1c2.1-0.5,4-1.5,5.5-3.1c0.7,0.8,1.2,1.6,1.6,2.5c0.4,0.8,0.7,1.7,0.7,2.6c0,0.7-0.2,1.5-0.7,2
			c-0.8,0.9-1.9,1.4-3,1.9c-1.8,0.8-3.8,1.2-5.7,1.3c-2.5,0.2-5.1-0.1-7.6-0.8c-1.9-0.5-3.7-1.5-5.2-2.7c-1.6-1.4-2.9-3.1-3.8-5
			c-1-2-1.4-4.3-1.6-6.5c-0.2-2.8-0.1-5.6,0.6-8.3c0.5-2.1,1.6-3.9,2.9-5.6c1.2-1.5,2.7-2.7,4.4-3.6C127.5,51,129.3,50.5,131.1,50.2
			z"/>
		<path style="fill:#2574BB;" d="M156.5,51.2c2.3-1,4.9-1.5,7.4-1.4c2.3,0,4.7,0.4,6.8,1.6c1.9,1,3.5,2.4,4.6,4.2
			c1.8,2.8,2.3,6.2,2.2,9.5c0,1.2-0.1,2.3-0.2,3.5c-6.8,0-13.5,0-20.3,0c0.2,2.4,1,4.8,2.6,6.6c1.2,1.3,2.9,1.9,4.5,2.1
			c1.4,0.2,2.8,0.2,4.2-0.1c1.7-0.4,3.2-1.1,4.6-2.1c0.5-0.4,1-0.9,1.6-1.3c0.6,0.8,1.2,1.7,1.7,2.6c0.4,0.7,0.8,1.5,0.9,2.3
			c0.1,0.9-0.3,1.9-1,2.5c-1.3,1.2-2.9,1.9-4.5,2.4c-2.6,0.8-5.4,1-8.1,0.8c-2.6-0.2-5.1-0.7-7.4-1.8c-1.7-0.9-3.3-2.1-4.5-3.6
			c-1.1-1.4-1.9-2.9-2.6-4.6c-0.8-2.3-1.1-4.8-1.2-7.2c-0.1-2.6,0.2-5.3,1.1-7.8c0.7-1.8,1.7-3.6,3.1-5
			C153.1,53.1,154.7,52,156.5,51.2 M160.9,56.4c-1.1,0.4-2.1,1.1-2.7,2.1c-1,1.5-1.3,3.3-1.3,5c4,0,8.1,0,12.1,0
			c0-1.5-0.2-3.1-0.8-4.4c-0.3-0.6-0.6-1.2-1-1.6c-0.7-0.7-1.7-1.1-2.7-1.2C163.3,56,162,56,160.9,56.4z"/>
		<path style="fill:#2574BB;" d="M278.1,50.3c2.1-0.6,4.4-0.6,6.6-0.2c2.1,0.4,4.1,1.4,5.6,2.8c1.7,1.5,2.7,3.6,3.4,5.8
			c0.7,2.2,0.9,4.5,1,6.8c0,2.7-0.1,5.3-0.7,7.9c-0.5,1.8-1.2,3.6-2.1,5.2c-1.2,1.9-2.8,3.5-4.8,4.5c-2.1,0.9-4.4,1.3-6.6,1.3
			c-2-0.1-4-0.7-5.7-1.7c-0.7-0.4-1.3-1-1.8-1.6c0,5.8,0,11.5,0,17.3c-3.1,0-6.2,0-9.4,0c0-15.8,0-31.7,0-47.5
			c1.7-0.3,3.4-0.4,5.1-0.1c1.1,0.2,2.3,0.6,3.1,1.5c0.4,0.4,0.6,1,0.8,1.6c0.5-0.5,1-1,1.6-1.4C275.4,51.5,276.6,50.7,278.1,50.3
			 M275.3,57.2c-1,0.3-1.7,1.1-2.1,2.1c-0.2,0.6-0.2,1.3-0.2,1.9c0,4.6,0,9.2,0,13.7c1,0.9,2.2,1.6,3.5,1.9c1.7,0.3,3.5,0.2,5-0.7
			c1.1-0.7,1.8-1.8,2.3-3c0.9-2.3,1.1-4.9,1-7.4c-0.1-2.1-0.4-4.3-1.5-6.1c-0.9-1.5-2.5-2.5-4.2-2.6C278,56.8,276.6,56.8,275.3,57.2
			z"/>
		<path style="fill:#2574BB;" d="M307.6,50.3c2.9-0.5,5.9-0.6,8.8-0.2c2.3,0.3,4.7,1,6.5,2.6c1.5,1.3,2.4,3.1,2.8,5
			c0.6,2.7,0.5,5.5,0.5,8.3c0,3.4,0,6.8,0,10.2c0.1,2.4,0.3,4.9,1.6,7c-1.1,0.4-2.3,0.7-3.5,0.8c-1.5,0.1-3,0.1-4.3-0.6
			c-1.1-0.6-1.9-1.8-2.1-3c-2.4,2.3-5.6,3.6-8.9,3.7c-2.6,0.2-5.3-0.3-7.5-1.7c-1.4-0.9-2.5-2.2-3.2-3.7c-0.6-1.3-0.9-2.8-0.9-4.2
			c-0.1-2,0.3-4.1,1.5-5.8c1.1-1.5,2.5-2.7,4.1-3.6c2-1.1,4.2-1.7,6.5-2c2.6-0.4,5.2-0.6,7.9-0.6c0-1.1,0.1-2.3-0.3-3.4
			c-0.3-0.8-0.9-1.6-1.7-2c-1.1-0.6-2.4-0.7-3.6-0.8c-1.3,0-2.7,0.1-3.9,0.4c-1.1,0.2-2.1,0.7-3.2,1.2c-1.1,0.5-2.1,1-3.1,1.6
			c-0.8-1-1.4-2.1-1.8-3.3c-0.2-0.7-0.5-1.5-0.1-2.2c0.5-0.9,1.3-1.5,2.2-2C303.5,51.2,305.6,50.7,307.6,50.3 M313.9,67.6
			c-1.5,0.2-3.1,0.4-4.6,1.1c-1.4,0.7-2.7,1.8-3.1,3.3c-0.4,1.5-0.2,3.1,0.7,4.4c0.5,0.8,1.4,1.3,2.4,1.5c2,0.4,4,0,5.8-0.9
			c0.7-0.4,1.4-0.9,1.8-1.6c0.2-0.3,0.4-0.7,0.4-1.2c0-2.3,0-4.6,0-6.8C316.2,67.3,315.1,67.5,313.9,67.6z"/>
		<path style="fill:#2574BB;" d="M345.1,50c2.5-0.3,5-0.2,7.4,0.4c2,0.5,4,1.3,5.5,2.7c0.9,0.8,1.1,2,0.9,3.2
			c-0.4,1.5-1.1,2.9-2.1,4.1c-0.5-0.5-1.1-1-1.7-1.4c-1.1-0.7-2.2-1.4-3.4-1.7c-1.5-0.4-3.2-0.5-4.8-0.2c-1.5,0.2-3,0.9-4,2
			c-1.3,1.5-2,3.5-2.3,5.5c-0.2,1.7-0.2,3.3,0.1,5c0.2,1.7,0.7,3.5,1.8,4.9c1.1,1.5,2.9,2.5,4.8,2.8c3.3,0.5,6.9-0.6,9.2-3.2
			c0.7,0.8,1.2,1.7,1.6,2.6c0.4,0.8,0.7,1.6,0.7,2.5c0,0.8-0.3,1.6-0.9,2.2c-1,0.9-2.2,1.4-3.4,1.9c-1.7,0.7-3.6,1-5.4,1.1
			c-2.8,0.2-5.5-0.2-8.2-1c-1.9-0.7-3.6-1.7-5-3c-1.4-1.3-2.5-3-3.3-4.7c-0.9-2-1.3-4.1-1.5-6.3c-0.2-2.8-0.1-5.7,0.6-8.4
			c0.6-2,1.6-3.9,2.9-5.6c1.2-1.5,2.7-2.6,4.3-3.5C340.8,50.8,342.9,50.3,345.1,50z"/>
		<path style="fill:#2574BB;" d="M431.2,50.3c2.5-0.6,5.1-0.6,7.7-0.2c2.2,0.4,4.4,1.1,6.2,2.4c0.6,0.4,1.2,1,1.5,1.7
			c0.4,0.9,0.3,2-0.1,2.9c-0.4,1.2-1.1,2.3-1.9,3.3c-0.9-0.9-2-1.6-3.1-2.3c-2-1.1-4.3-1.4-6.6-1.1c-1.6,0.2-3.2,0.9-4.3,2.1
			c-1.3,1.5-2,3.5-2.2,5.5c-0.2,1.7-0.2,3.5,0.1,5.3c0.2,1.7,0.8,3.4,1.9,4.7c1.1,1.4,2.8,2.4,4.6,2.6c3.3,0.5,7-0.6,9.2-3.2
			c0.8,0.9,1.3,1.9,1.8,3c0.4,0.9,0.7,2,0.4,3c-0.1,0.6-0.6,1.1-1,1.5c-1,0.8-2.2,1.3-3.3,1.8c-2.1,0.8-4.3,1-6.5,1
			c-1.4,0-2.9-0.2-4.3-0.4c-2.1-0.4-4.2-1.1-6-2.4c-1.7-1.1-3-2.7-4-4.4c-1.2-1.9-1.9-4.1-2.1-6.3c-0.3-2.4-0.3-4.9-0.1-7.3
			c0.3-2.3,1-4.5,2.2-6.4c1.1-1.8,2.5-3.4,4.3-4.5C427.2,51.5,429.2,50.7,431.2,50.3z"/>
		<path style="fill:#2574BB;" d="M217.4,50.7c0.9,0,1.7-0.2,2.6-0.2c1.6,0,3.2,0.2,4.6,0.9c0.7,0.3,1.2,0.9,1.6,1.5
			c0.4,0.8,0.6,1.8,0.6,2.8c0,4.9,0,9.7,0,14.6c0.1,1.3,0,2.6,0.5,3.8c0.2,0.6,0.6,1.2,1.2,1.5c0.8,0.5,1.7,0.7,2.6,0.8
			c1.9,0.1,3.8-0.3,5.4-1.3c0.8-0.5,1.4-1.4,1.4-2.4c0-7.3,0-14.7,0-22c2-0.2,4.2-0.4,6.2,0.3c1.2,0.4,2.3,1.4,2.7,2.6
			c0.4,0.9,0.4,1.8,0.4,2.8c0,9,0,17.9,0,26.9c-2,0-4.1,0-6.1,0c-0.6,0-1.3,0-1.9-0.4c-0.4-0.3-0.6-0.7-0.7-1.1
			c-0.2-0.7-0.2-1.4-0.2-2.1c-0.9,1.1-2,2-3.2,2.7c-1.3,0.8-2.7,1.2-4.2,1.4c-1.8,0.2-3.5,0.2-5.3,0c-1.6-0.2-3.1-0.6-4.4-1.6
			c-1.6-1.2-2.7-2.9-3.1-4.9c-0.5-2.2-0.6-4.4-0.6-6.6C217.4,64,217.4,57.4,217.4,50.7z"/>
		<path style="fill:#2574BB;" d="M361.9,50.8c1.3-0.2,2.6-0.3,3.9-0.2c1.1,0.1,2.3,0.3,3.3,0.9c0.9,0.6,1.6,1.5,1.9,2.6
			c0.2,0.8,0.2,1.7,0.2,2.5c0,9.1,0,18.2,0,27.3c-1.5,0.3-3,0.3-4.5,0.2c-0.9-0.1-1.8-0.2-2.6-0.7c-1.1-0.6-1.8-1.7-2-2.9
			c-0.2-0.8-0.2-1.7-0.2-2.5C361.9,68.8,361.9,59.8,361.9,50.8z"/>
		<path style="fill:#2574BB;" d="M404.8,50.8c1.3-0.2,2.7-0.3,4-0.2c1,0.1,2.1,0.2,3,0.7c1.1,0.6,1.9,1.6,2.2,2.8
			c0.2,0.9,0.2,1.9,0.2,2.8c0,9,0,17.9,0,26.9c-1,0.3-2,0.2-3,0.3c-1.2,0-2.5-0.1-3.6-0.5c-0.9-0.4-1.7-1.1-2.1-2.1
			c-0.5-1-0.6-2.2-0.6-3.4C404.8,69,404.8,59.9,404.8,50.8z"/>
	</g>
</g>
</svg>
