<?xml version="1.0" encoding="utf-8"?>
<svg version="1.1" id="Layer_1" xmlns="http://www.w3.org/2000/svg" xmlns:xlink="http://www.w3.org/1999/xlink" x="0px" y="0px"
	 viewBox="0 0 146 106" style="enable-background:new 0 0 146 106;" xml:space="preserve">
<g id="Page-1">
	<g id="Logo-pink-flag">
		<polygon id="Fill-1" style="opacity:0.3001;fill:#B8BABD;enable-background:new    ;" points="145,84.7 20.1,106 10,32 139.1,21 
					"/>
		<polygon id="Fill-3" style="fill:#E52E80;" points="0,0 8.3,95 146,84.1 139.5,2.5 		"/>
		
			<g id="Group-70" transform="translate(73.522263, 45.285346) rotate(3.000000) translate(-73.522263, -45.285346) translate(21.522263, 12.785346)">
			<path id="Fill-4" style="fill:#FEFEFE;" d="M10.9,20.7c0,0.4,0.2,0.7,0.5,0.9c0.2,0.1,0.5,0.1,1,0.1c0.5,0,1-0.1,1.4-0.2
				c0.5-0.2,0.7-0.6,0.7-1.1c-0.1-0.8-0.7-1.3-2-1.3c-0.5,0-0.8,0.1-1.1,0.4C10.9,19.8,10.8,20.2,10.9,20.7 M6.8,10.1
				C7.8,9,9.6,8.3,12.2,8C13.3,8,14.4,8,15.5,8.2c1,0.3,2.3,0.9,2.9,1.8c0.7,1,1,2.3,1.3,3.5c0.3,1.5,0.5,3.1,0.7,4.8
				c0.2,2.9,0.1,4.9-0.2,6c-0.1,0.9-0.7,1.4-2,1.5c-1,0.1-1.5-0.2-1.7-0.7c-0.8,0.5-1.8,0.7-2.8,0.8c-2.2,0.2-4-0.3-5.4-1.3
				c-1-1.1-1.6-2.5-1.7-4c-0.1-1.3,0.2-2.4,0.9-3.2c1-1.1,2.1-1.7,3.5-1.8c0.9-0.1,2.1,0.1,3.7,0.6c0.7-0.1,1-0.5,0.9-1.3
				c-0.1-1.9-2.1-2.5-3.7-2.4c-0.6,0-1.3,0.3-2,0.7c-0.7,0.4-1.4,0.9-2.2,0.6c-0.8-0.3-1.3-1.2-1.3-2C6.2,11.2,6.4,10.6,6.8,10.1"/>
			<path id="Fill-6" style="fill:#FEFEFE;" d="M28.6,23.9c0.1,0.7-0.7,1.1-2.3,1.3c-1.6,0.1-2.5-0.1-2.7-0.8c-0.6-2.3-1-5.2-1.3-8.5
				c-0.3-3.4-0.2-5.6,0.1-6.5c0.2-0.8,0.8-1.3,1.8-1.3c0.6-0.1,1.7,0.1,2,0.8c0.1,0.2,0,0.6,0.2,0.8c0.4,0.3,1.1,0,1.3-0.3
				c0.3-0.4,0.7-0.7,1.1-0.9c0.7-0.3,1.4-0.6,2.1-0.6c1.3-0.1,2.5,0.2,3.5,1.1c1,0.8,1.6,1.9,1.7,3.2c0.2,1.3,0.4,2.7,0.6,4.4
				c0.3,3.3,0.2,5.7-0.1,7.2c-0.2,0.5-1,0.9-2.3,1c-1.2,0.1-1.9-0.2-2.1-0.7c-0.2-0.2-0.3-0.8-0.4-1.8c-0.1-1.3-0.1-2.5-0.2-3.8
				c-0.1-1.1-0.2-2.5-0.7-3.5c-0.5-0.9-2.1-0.5-2.7,0c-0.3,0.3-0.3,0.6-0.4,1c0,0.2,0,0.7,0.1,1.6C27.9,17.1,28.1,19.3,28.6,23.9"/>
			<path id="Fill-8" style="fill:#FEFEFE;" d="M39,12.5c0.3-0.6,1.1-1,2.3-1.1c1.4-0.1,2.3,0.2,2.7,0.8c0.3,0.5,0.6,2.3,0.9,5.4
				c0.2,2.8,0.2,4.5,0.1,5.3c-0.2,0.6-1.1,1-2.6,1.1c-1.4,0.1-2.2-0.1-2.5-0.6c-0.5-0.9-0.8-2.9-1.1-5.9C38.6,14.6,38.7,13,39,12.5
				 M38.1,7.1c0-0.9,0.2-1.8,0.8-2.4c1-0.9,3.2-1.3,4.3-0.4c1.4,1.1,1.7,3.6,0.4,4.9c-0.6,0.6-1.4,0.9-2.4,1
				c-0.9,0.1-1.6-0.2-2.2-0.8C38.4,8.7,38.1,7.9,38.1,7.1"/>
			<path id="Fill-10" style="fill:#FEFEFE;" d="M66.8,21.2c-0.2,0.7-1.3,0.9-1.9,0.9c-0.7,0.1-1.6-0.1-2-0.7
				c-0.7-1.2-0.6-2.5-0.6-3.9c0-0.8,0-1.7,0-2.5c0.1-1.8-1.2-1.8-1.6-1.7c-0.4,0-0.6,0.8-0.5,2.4c0.1,0.7,0.2,3.3,0.2,4
				c0,0.5,0.1,1.1,0,1.7c-0.2,0.7-0.8,0.9-1.4,1.1c-0.6,0.2-1.2,0.3-1.7,0.3c-0.6,0-1.3,0.1-1.9-0.2c-1-0.4-0.8-2.2-0.9-3.1
				c-0.1-1.1-0.1-2.3-0.2-3.4c-0.1-1.5-0.4-2.2-0.9-2.2c-0.5,0-1.1,0.2-1.1,0.7c-0.2,1.1,0,4.5,0.2,5.6c0.1,0.6,0.2,1.3,0.1,2
				c-0.2,0.8-0.9,1-1.7,1.1c-0.8,0.1-1.8,0-2.4-0.6c-0.6-0.5-0.7-1.4-0.9-2.1c-0.5-2.3-0.7-4.7-0.9-7c-0.3-3.3-0.1-5.3,0.3-6.2
				c0.3-0.8,1.3-1.3,3-1.4c1.5-0.1,2.4,0.1,2.6,0.6c0,0,0.3,1.3,0.3,1.3c-0.4-1.6,2.6-2.3,3.6-2.4c1.8-0.1,3,0.4,3.7,1.7
				C60.6,5.8,61.5,5.1,63,5c1.3-0.1,2.7,0.5,3.1,1.9c0.5,1.9,0.8,3.9,0.9,5.9c0.1,1.8,0.2,3.7,0.2,5.5
				C67.2,19.2,67.1,20.2,66.8,21.2"/>
			<path id="Fill-12" style="fill:#FEFEFE;" d="M73.1,15.7c0,0.4,0.2,0.7,0.5,0.9c0.2,0.1,0.5,0.1,1,0.1c0.5,0,1-0.1,1.4-0.2
				c0.5-0.2,0.7-0.6,0.7-1.1c-0.1-0.8-0.7-1.3-2-1.3c-0.5,0-0.8,0.1-1.1,0.4C73.2,14.8,73.1,15.2,73.1,15.7 M69.1,5.2
				c0.4-0.5,0.9-0.8,1.4-1.1c1.2-0.6,2.6-0.9,4-1c2.3-0.2,5.3,0.2,6.5,2.5c0.5,0.9,0.7,2,1,3c0.3,1.5,0.5,3.1,0.7,4.8
				c0.1,1.1,0.2,2.2,0.1,3.3c0,1-0.1,2.3-0.5,3.2c-0.3,0.7-1.1,1-1.8,1c-1,0.1-1.5-0.2-1.7-0.7c-0.8,0.5-1.8,0.7-2.8,0.8
				c-1.6,0.1-3.5-0.1-4.9-1c-1.1-0.7-1.7-1.9-2.1-3c-0.4-1.5-0.3-3.3,0.8-4.5c1-1.1,2.1-1.7,3.5-1.8c0.9-0.1,2.1,0.1,3.7,0.6
				c0.7-0.1,1-0.5,0.9-1.3c0-0.5-0.2-1-0.6-1.4c-0.8-0.9-2-1.1-3.1-1c-0.6,0-1.3,0.3-2,0.7c-0.6,0.4-1.4,0.8-2.2,0.6
				c-0.8-0.2-1.3-1.2-1.4-2C68.5,6.1,68.7,5.6,69.1,5.2"/>
			<path id="Fill-14" style="fill:#FEFEFE;" d="M84.5,2.1c0.4-1.2,1.8-1.6,2.9-1.6c1.3,0,2.5,0.2,2.9,1.7c0.1,0.4,0.1,0.9,0.2,1.3
				c0.1,0.9,0,2.2-0.2,4c-0.2,1.8-0.2,3.1-0.2,4c0.1,0.8,0.1,2.1,0.7,2.7c0.6,0.6,1.4,0.5,2.1,0.4c1.1-0.1,1.7,0.6,1.8,2
				c0.1,1.1-0.2,1.9-0.9,2.3c-1,0.6-2.1,1-3.2,1.1c-1.7,0.1-3.1-0.4-4.2-1.7c-0.9-1-1.4-3.4-1.7-7.2c-0.1-1.4-0.2-2.8-0.2-4.3
				c0-0.8-0.1-1.7-0.1-2.5C84.4,3.7,84.3,2.8,84.5,2.1"/>
			<path id="Fill-16" style="fill:#FEFEFE;" d="M0.8,32.2c0.8-1.6,2.8-2.6,6.1-2.8c1.5-0.1,3.1-0.2,4.6,0.2c1.4,0.4,2.1,1.4,2.2,2.8
				c0.1,0.7-0.1,1.2-0.5,1.6c-0.1,0.1-0.3,0.2-0.5,0.2c-0.3,0-0.8,0-1.5-0.1C10.5,34,10,34,9.6,34c-0.7,0.1-1.3,0.3-1.8,0.6
				C7.2,35,7,35.6,7,36.3c0.1,1.6,2,1.5,3.2,1.5c1.4,0,2.3,0,2.6,0.1c0.3,0.2,0.5,0.6,0.6,1.3c0,0.6-0.1,1.3-0.6,1.7
				C12.5,41,12,40.9,11.7,41c-0.9,0.1-1.8,0.1-2.6,0.3c-0.3,0.1-1.4,0.5-1.4,0.9c0,0.9,0.3,1.9,0.6,2.8c0.3,0.9,0.5,1.7,0.6,2.1
				c0,0.3,0,0.6,0,0.8c-0.2,0.8-1,1.3-2.6,1.4C4.6,49.5,3.5,49,2.8,48c-0.3-0.4-0.8-1.7-1.4-3.7c-0.7-2.3-1.1-4.5-1.3-6.5
				C-0.1,35.4,0.2,33.5,0.8,32.2"/>
			<path id="Fill-18" style="fill:#FEFEFE;" d="M17.1,31.6c0.5-0.2,1-0.3,1.5-0.3c1.1-0.1,2.5,0.2,2.4,1.7c0,0.3-0.1,0.7-0.1,0.9
				c0.1,0.2,0.5,0.3,0.6,0.2c1.6-1.1,3.4-1.8,5.1-1.9c0.9-0.1,2-0.3,2.5,0.6c0.2,0.4,0.4,0.8,0.4,1.4c0.1,0.7,0,2-0.9,2.1
				c-1.7,0.5-3.1,0.9-3.9,1.2c-1.6,0.5-2.6,1.1-2.9,1.7c-0.2,0.3-0.3,0.7-0.3,1.4c0,0.6,0.2,1.5,0.6,2.6c0.3,1.2,0.5,2.1,0.6,2.6
				c0.1,1.6-1.3,2.4-2.6,2.5c-1.2,0.1-2.3-0.3-2.9-1.4c-0.6-1.2-0.8-2.6-1-3.9c-0.3-1.9-0.5-3.5-0.7-4.9c-0.2-3-0.1-4.8,0.4-5.6
				C16,32.1,16.4,31.8,17.1,31.6"/>
			<path id="Fill-20" style="fill:#FEFEFE;" d="M31.4,35.8c0.3-0.6,1.1-1,2.3-1.1c1.4-0.1,2.3,0.2,2.7,0.8c0.3,0.5,0.6,2.3,0.9,5.4
				c0.2,2.8,0.2,4.5,0.1,5.3c-0.2,0.6-1.1,1-2.6,1.1c-1.4,0.1-2.2-0.1-2.5-0.6c-0.5-0.9-0.8-2.9-1.1-5.9C31,37.9,31,36.3,31.4,35.8
				 M30.4,30.3c0-2,1-3.2,3.2-3.4c2.6-0.2,4.3,3.6,2.4,5.5c-0.6,0.6-1.4,0.9-2.4,1c-0.9,0.1-1.6-0.2-2.2-0.8
				C30.7,32,30.4,31.2,30.4,30.3"/>
			<path id="Fill-22" style="fill:#FEFEFE;" d="M45.7,34.2c0.3,0.2,0.6,0.2,1,0.2c0.3,0,0.6-0.1,0.9-0.4c0.3-0.2,0.4-0.5,0.4-0.8
				c0-0.3-0.2-0.6-0.5-0.7c-0.3-0.2-0.6-0.2-0.9-0.2c-0.3,0-0.7,0.1-0.9,0.4c-0.3,0.2-0.4,0.5-0.4,0.8C45.2,33.8,45.4,34,45.7,34.2
				 M47.4,28.9c0.8,0,1.5,0,2.2,0.3c3.2,1.2,3.9,7,0.7,8.5c-0.5,0.2-1,0.3-1.5,0.4c-0.4,0-1,0-1.7-0.1c-0.7-0.1-2.4-0.5-2.3,0.8
				c0.1,0.8,0.7,1.2,1.4,1.3c0.5,0.1,1,0.2,1.4,0.2c1,0.2,1.9,0.1,2.8-0.4c0.9-0.5,2-1.1,2.8-0.2c0.4,0.4,0.5,0.8,0.5,1.4
				c0,0.8-0.1,1.7-0.6,2.4c-1,1.6-3.1,2.3-4.9,2.4c-2.1,0.1-4.3-0.4-6-1.6c-0.4-0.2-0.7-0.5-1-0.8c-1.2-1.2-1.9-2.9-2.1-5.2
				c0-0.6,0-1.2,0.1-2c0.2-1.8,0.8-3.8,2-5.2c0.9-1,2.2-1.6,3.5-1.8C45.7,29,46.6,28.9,47.4,28.9"/>
			<path id="Fill-24" style="fill:#FEFEFE;" d="M61.4,44c0.1,0.7-0.7,1.1-2.3,1.3c-1.1,0.1-2.5,0.2-2.8-1.1
				c-0.4-1.6-0.7-3.3-0.9-4.9c-0.1-1.1-0.2-2.2-0.3-3.3c-0.3-3.4-0.2-5.6,0.1-6.5c0.2-0.6,0.5-1,1.1-1.2c0.8-0.3,2.6-0.2,2.8,0.9
				c0.1,0.9,1,0.7,1.5,0.2c0.3-0.4,0.7-0.7,1.1-0.9c0.7-0.3,1.4-0.6,2.1-0.6c1.3-0.1,2.5,0.2,3.5,1.1c1,0.8,1.5,2,1.7,3.3
				c0.3,1.4,0.4,2.9,0.5,4.3c0.1,1.2,0.1,2.4,0.2,3.6c0,1.1,0.2,2.3-0.2,3.4c-0.4,0.9-1.5,1-2.4,1.1c-0.6,0-1.2,0.1-1.7-0.3
				c-0.2-0.2-0.4-0.4-0.5-0.7c-0.2-0.5-0.2-1-0.3-1.5c-0.1-1.3-0.1-2.6-0.2-3.8c-0.1-1.5-0.1-4.7-2.5-3.9c-0.7,0.3-1.3,0.8-1.3,1.6
				c0,1.4,0.2,2.7,0.3,4C61.1,41.4,61.2,42.7,61.4,44"/>
			<path id="Fill-26" style="fill:#FEFEFE;" d="M80.5,37.7c-0.1-1-0.5-1.5-1.2-1.5c-0.5,0-0.8,0-1,0c-0.8,0.1-1.2,0.5-1.3,1.2
				c0,0.2-0.1,0.4,0,0.6c0.1,0.7,0.7,1.1,1.9,1.2c0.4,0,0.8-0.1,1.2-0.4C80.3,38.4,80.5,38.1,80.5,37.7 M84,24.2
				c0.2,0.4,0.5,1.5,0.8,3.3c0.3,1.8,0.5,3.9,0.7,6.1c0.3,3.8,0.2,6.3-0.3,7.7c-0.3,0.7-1,1.3-2.4,1.7c-0.9,0.3-1.9,0.5-3,0.6
				c-1.1,0.1-2.2,0-3.3-0.1c-0.9-0.2-2-0.4-2.7-1.1c-1.3-1.3-1.9-2.8-2.1-4.6c-0.1-1.3,0.2-2.7,0.9-3.8c0.8-1.1,2.2-1.7,3.5-1.8
				c0.7-0.1,1.4,0.1,2,0.3c0.4,0.1,1.4,0.7,1.7,0.2c0.3-0.5,0.4-1.2,0.3-2.1c-0.1-0.6-0.3-1.6-0.6-2.8c-0.3-1-0.9-2.3-0.5-3.3
				c0.3-0.8,1.6-1,2.3-1C82.8,23.2,83.7,23.5,84,24.2"/>
			<path id="Fill-28" style="fill:#FEFEFE;" d="M101.1,28c0,0.2,0,0.3,0,0.5c-0.2,1.2-1.6,2.1-2.7,1.7c-0.8-0.3-1.6-0.6-2.6-0.5
				c-0.6,0-1.3,0.3-1.4,0.9c-0.4,1.6,2.8,2,3.7,2.1c1.3,0.2,2.3,0.6,2.9,1.2c0.7,0.6,1.1,1.6,1.2,2.8c0.2,2.2-0.8,3.7-2.8,4.6
				c-1.1,0.5-2.4,0.8-4.1,0.9c-1.4,0.1-2.7,0-3.9-0.2c-0.9-0.2-1.8-0.5-2.6-1c-0.9-0.7-1.1-1.8-0.8-2.8c0.2-1,0.8-1.6,1.7-1.6
				c0.4,0,1.1,0.1,2,0.5c0.9,0.4,1.6,0.6,2.1,0.5c0.8-0.1,1.7-0.9,0.6-1.5c-0.6-0.3-1.5-0.2-2.2-0.4c-2-0.5-3.9-1.6-4.3-3.8
				c-0.3-1.8,0.6-3.4,2.2-4.7c1.5-1.3,3.4-2.1,5.4-2.2c1.2-0.1,2.5,0.2,3.6,0.7C99.9,26.2,100.9,27,101.1,28"/>
			<path id="Fill-30" style="fill:#FEFEFE;" d="M3.7,60.3c0.6,0,1-0.1,1.4-0.3c0.3-0.1,0.5-0.3,0.7-0.6c0.1-0.3,0.2-0.6,0.2-1
				c0-0.5-0.2-0.8-0.6-1.1c-0.3-0.2-0.8-0.3-1.5-0.2c-0.4,0-0.7,0.1-0.9,0.1l0.2,3.1L3.7,60.3z M2,56.5c0.7-0.1,1.3-0.2,1.8-0.2
				c1-0.1,1.8,0,2.3,0.4C6.6,57,6.9,57.5,7,58.3c0.1,0.8-0.1,1.5-0.6,2c-0.5,0.5-1.2,0.7-2.2,0.8l-0.8,0.1l0.2,2.9l-1,0.1L2,56.5z"
				/>
			<path id="Fill-32" style="fill:#FEFEFE;" d="M11.6,60.2c-0.1-1-0.5-1.4-1.4-1.4c-0.4,0-0.7,0.2-0.9,0.5C9.1,59.6,9,59.9,9,60.4
				L11.6,60.2z M9,61.1c0.1,0.6,0.3,1,0.6,1.3c0.3,0.3,0.7,0.4,1.3,0.4c0.6-0.1,1.1-0.3,1.4-0.8c0.1,0.1,0.2,0.2,0.3,0.3
				c0.1,0.1,0.1,0.2,0.1,0.3c0,0.1-0.1,0.3-0.2,0.4c-0.4,0.3-0.9,0.5-1.6,0.6c-0.8,0.1-1.5-0.1-2-0.6C8.4,62.6,8.1,61.9,8,61
				c0-0.6,0-1.1,0.2-1.5c0.2-0.4,0.4-0.8,0.8-1c0.4-0.3,0.8-0.4,1.2-0.4c0.5,0,0.9,0,1.2,0.2c0.3,0.2,0.6,0.4,0.8,0.8
				c0.2,0.3,0.3,0.7,0.4,1.2c0,0.3,0,0.5,0,0.6L9,61.1z"/>
			<path id="Fill-34" style="fill:#FEFEFE;" d="M13.6,56.2c0.1,0,0.1,0,0.2,0c0.5,0,0.8,0.2,0.8,0.7l0.1,0.9l1.7-0.1l0.1,0.8
				l-1.7,0.1l0.2,2.9c0,0.6,0.3,0.9,0.8,0.9c0.1,0,0.3,0,0.4-0.1c0.1-0.1,0.2-0.1,0.3-0.2c0.1-0.1,0.2-0.2,0.2-0.2
				c0.2,0.3,0.4,0.5,0.4,0.6c0,0.1-0.1,0.2-0.2,0.3c-0.1,0.1-0.3,0.2-0.5,0.3c-0.2,0.1-0.4,0.1-0.7,0.1c-0.8,0.1-1.3-0.2-1.5-0.7
				c-0.1-0.2-0.2-0.5-0.2-1L13.6,56.2z"/>
			<path id="Fill-36" style="fill:#FEFEFE;" d="M19.9,55.1c0.1,0,0.2,0,0.3,0c0.2,0,0.4,0,0.5,0.1c0.1,0.1,0.2,0.3,0.2,0.5l0.5,7
				l-1,0.1L19.9,55.1z"/>
			<path id="Fill-38" style="fill:#FEFEFE;" d="M22.8,57.1c0.1,0,0.1,0,0.2,0c0.2,0,0.4,0,0.5,0.1c0.1,0.1,0.2,0.2,0.3,0.4
				c0.2-0.2,0.4-0.4,0.7-0.6c0.3-0.1,0.6-0.2,1-0.3c0.5,0,0.8,0,1.1,0.2c0.3,0.2,0.5,0.5,0.7,0.8c0.1,0.2,0.1,0.5,0.2,1l0.3,3.2
				l-1,0.1L26.5,59c0-0.4-0.1-0.6-0.1-0.8c-0.1-0.2-0.2-0.4-0.4-0.4c-0.2-0.1-0.4-0.1-0.7-0.1c-0.3,0-0.5,0.1-0.7,0.2
				c-0.2,0.1-0.4,0.2-0.5,0.3c-0.1,0.1-0.2,0.3-0.2,0.4l0.3,3.8l-1,0.1L22.8,57.1z"/>
			<path id="Fill-40" style="fill:#FEFEFE;" d="M32,57.7c-0.2-0.2-0.4-0.3-0.6-0.4c-0.3-0.1-0.5-0.1-0.8-0.1c-0.3,0-0.5,0.1-0.7,0.2
				c-0.2,0.1-0.2,0.3-0.2,0.5c0,0.1,0.1,0.2,0.1,0.3c0.1,0.1,0.2,0.2,0.3,0.2c0.2,0.1,0.4,0.1,0.7,0.2c0.4,0.1,0.8,0.2,1.1,0.3
				c0.3,0.1,0.5,0.3,0.6,0.5c0.1,0.2,0.2,0.5,0.2,0.8c0,0.5-0.1,0.9-0.5,1.3c-0.4,0.3-0.8,0.5-1.5,0.6c-0.5,0-0.9,0-1.3-0.1
				c-0.3-0.1-0.5-0.3-0.5-0.4c0-0.1,0-0.2,0-0.3c0-0.1,0.1-0.2,0.2-0.4c0.2,0.2,0.5,0.3,0.7,0.4c0.3,0.1,0.5,0.1,0.8,0.1
				c0.3,0,0.6-0.1,0.8-0.3c0.2-0.2,0.3-0.4,0.2-0.6c0-0.2-0.1-0.4-0.3-0.5c-0.2-0.1-0.5-0.2-1-0.3c-0.6-0.1-1-0.2-1.3-0.5
				c-0.3-0.2-0.4-0.6-0.5-1c0-0.5,0.1-0.8,0.5-1.2c0.3-0.3,0.8-0.5,1.3-0.5c0.3,0,0.5,0,0.8,0c0.2,0,0.4,0.1,0.6,0.2
				c0.3,0.1,0.4,0.3,0.4,0.4c0,0.2,0,0.4-0.2,0.6L32,57.7z"/>
			<path id="Fill-42" style="fill:#FEFEFE;" d="M33.6,56.2c0.1,0,0.1,0,0.2,0c0.5,0,0.8,0.2,0.8,0.7l0.2,2.7c0,0.3,0.1,0.6,0.1,0.7
				c0.1,0.2,0.2,0.3,0.3,0.3c0.1,0.1,0.2,0.1,0.4,0.1c0.1,0,0.3,0,0.5,0c0.2,0,0.5-0.1,0.7-0.2c0.2-0.1,0.4-0.2,0.5-0.4
				c0.1-0.1,0.2-0.3,0.2-0.4l-0.3-3.9c0.1,0,0.1,0,0.2,0c0.5,0,0.8,0.2,0.8,0.7l0.4,4.7l-1,0.1l0-0.5c-0.3,0.5-0.9,0.7-1.6,0.8
				c-0.3,0-0.6,0-0.8-0.1c-0.2-0.1-0.4-0.2-0.6-0.3c-0.2-0.1-0.3-0.3-0.4-0.6c-0.1-0.2-0.2-0.6-0.2-1.1L33.6,56.2z"/>
			<path id="Fill-44" style="fill:#FEFEFE;" d="M39.7,55.8c0.1,0,0.1,0,0.2,0c0.2,0,0.4,0,0.5,0.1c0.1,0.1,0.2,0.2,0.3,0.4
				c0.1-0.2,0.3-0.4,0.5-0.5c0.2-0.1,0.4-0.2,0.7-0.2c0.2,0,0.4,0,0.6,0.1c0.2,0.1,0.2,0.2,0.3,0.3c0,0.1,0,0.2-0.1,0.4
				c0,0.1-0.1,0.3-0.2,0.4c-0.1-0.1-0.2-0.2-0.4-0.2c-0.1,0-0.3,0-0.4,0c-0.3,0-0.5,0.1-0.7,0.3c-0.2,0.2-0.3,0.4-0.3,0.6l0.3,3.8
				l-1,0.1L39.7,55.8z"/>
			<path id="Fill-46" style="fill:#FEFEFE;" d="M46.9,57.9l-0.3,0c-0.7,0.1-1.2,0.2-1.5,0.4c-0.3,0.2-0.5,0.5-0.5,0.9
				c0,0.3,0.1,0.5,0.3,0.6C45,60,45.3,60,45.6,60c0.2,0,0.5-0.1,0.7-0.2c0.2-0.1,0.4-0.2,0.5-0.4c0.1-0.1,0.2-0.3,0.2-0.4L46.9,57.9
				z M44,56.7c-0.1-0.1-0.1-0.2-0.2-0.3c-0.1-0.1-0.1-0.2-0.1-0.3c0-0.1,0.1-0.3,0.3-0.4c0.2-0.1,0.4-0.2,0.7-0.3
				c0.3-0.1,0.6-0.1,0.9-0.2c0.7-0.1,1.2,0.1,1.6,0.3c0.3,0.3,0.5,0.8,0.6,1.5l0.2,2.2c0,0.2,0,0.4,0.1,0.5c0,0.1,0.1,0.2,0.1,0.2
				c0.1,0,0.2,0,0.4,0l0,0.5c-0.2,0.1-0.3,0.1-0.5,0.1c-0.6,0-0.9-0.1-1-0.6c-0.2,0.3-0.5,0.5-0.7,0.6c-0.3,0.1-0.6,0.2-0.9,0.2
				c-0.5,0-1-0.1-1.3-0.3c-0.3-0.3-0.5-0.6-0.5-1.2c0-0.6,0.2-1.1,0.7-1.5c0.5-0.4,1.2-0.6,2.1-0.7c0.2,0,0.4,0,0.5,0l0-0.2
				c0-0.4-0.1-0.6-0.3-0.8C46.3,56.1,46,56,45.6,56c-0.3,0-0.6,0.1-0.8,0.2c-0.2,0.1-0.5,0.2-0.7,0.4L44,56.7z"/>
			<path id="Fill-48" style="fill:#FEFEFE;" d="M49.3,55c0.1,0,0.1,0,0.2,0c0.2,0,0.4,0,0.5,0.1c0.1,0.1,0.2,0.2,0.3,0.4
				c0.2-0.2,0.4-0.4,0.7-0.6c0.3-0.1,0.6-0.2,1-0.3c0.5,0,0.8,0,1.1,0.2c0.3,0.2,0.5,0.5,0.7,0.8c0.1,0.2,0.1,0.5,0.2,1l0.3,3.2
				l-1,0.1L53,56.9c0-0.4-0.1-0.6-0.1-0.8c-0.1-0.2-0.2-0.4-0.4-0.4c-0.2-0.1-0.4-0.1-0.7-0.1c-0.3,0-0.5,0.1-0.7,0.2
				c-0.2,0.1-0.4,0.2-0.5,0.3c-0.1,0.1-0.2,0.3-0.2,0.4l0.3,3.8l-1,0.1L49.3,55z"/>
			<path id="Fill-50" style="fill:#FEFEFE;" d="M59.1,55.6c-0.2-0.2-0.4-0.3-0.6-0.4c-0.2-0.1-0.5-0.1-0.7-0.1
				c-0.5,0-0.9,0.2-1.2,0.6c-0.3,0.4-0.4,0.9-0.3,1.5c0.1,0.6,0.2,1.1,0.5,1.5c0.3,0.3,0.7,0.5,1.3,0.4c0.4,0,0.7-0.2,0.9-0.4
				c0.1-0.1,0.3-0.2,0.3-0.3c0.3,0.2,0.4,0.4,0.4,0.6c0,0.1-0.1,0.2-0.2,0.4c-0.1,0.2-0.4,0.3-0.6,0.4c-0.3,0.1-0.6,0.2-0.9,0.2
				c-0.5,0-1,0-1.4-0.2c-0.4-0.2-0.7-0.5-0.9-0.9c-0.2-0.4-0.4-0.9-0.4-1.5c0-0.6,0-1.1,0.2-1.6c0.2-0.4,0.5-0.8,0.9-1
				c0.4-0.3,0.8-0.4,1.3-0.4c0.3,0,0.6,0,0.9,0.1c0.3,0.1,0.5,0.2,0.7,0.3c0.2,0.1,0.3,0.3,0.3,0.4c0,0.2-0.1,0.4-0.2,0.6L59.1,55.6
				z"/>
			<path id="Fill-52" style="fill:#FEFEFE;" d="M64,56c-0.1-1-0.5-1.4-1.4-1.4c-0.4,0-0.7,0.2-0.9,0.5c-0.2,0.3-0.3,0.6-0.3,1.1
				L64,56z M61.5,56.9c0.1,0.6,0.3,1,0.6,1.3c0.3,0.3,0.7,0.4,1.3,0.4c0.6-0.1,1.1-0.3,1.4-0.8c0.1,0.1,0.2,0.2,0.3,0.3
				c0.1,0.1,0.1,0.2,0.1,0.3c0,0.1-0.1,0.3-0.2,0.4c-0.4,0.3-0.9,0.5-1.6,0.6c-0.8,0.1-1.5-0.1-2-0.6c-0.5-0.5-0.8-1.2-0.8-2.1
				c0-0.6,0-1.1,0.2-1.5c0.2-0.4,0.4-0.8,0.8-1c0.4-0.3,0.8-0.4,1.2-0.4c0.5,0,0.9,0,1.2,0.2c0.3,0.2,0.6,0.4,0.8,0.8
				c0.2,0.3,0.3,0.7,0.4,1.2c0,0.3,0,0.5,0,0.6L61.5,56.9z"/>
			<path id="Fill-54" style="fill:#FEFEFE;" d="M68.3,51.2l4.4-0.3c0,0.1,0,0.2,0,0.2c0,0.4-0.2,0.6-0.6,0.7L69.3,52l0.2,2.4
				l2.6-0.2l0.1,0.9l-2.6,0.2l0.2,2.7l2.9-0.2c0.2,0,0.4,0,0.5,0.1c0.1,0.1,0.2,0.2,0.2,0.4c0,0.1,0,0.2,0,0.2l-4.5,0.4L68.3,51.2z"
				/>
			<path id="Fill-56" style="fill:#FEFEFE;" d="M75.8,55.6l-1.9-2.5c0.2-0.1,0.4-0.1,0.5-0.1c0.2,0,0.3,0,0.4,0.1
				c0.1,0.1,0.2,0.2,0.4,0.3l1.1,1.5l0.9-1.6c0.1-0.2,0.2-0.3,0.3-0.4c0.1-0.1,0.3-0.1,0.4-0.2c0.2,0,0.3,0,0.5,0.1l-1.6,2.8l2,2.5
				c-0.1,0.1-0.3,0.1-0.5,0.1c-0.3,0-0.6-0.1-0.8-0.3l-1.2-1.5L75.5,58c-0.1,0.2-0.2,0.3-0.3,0.4c-0.1,0.1-0.3,0.1-0.5,0.1
				c-0.2,0-0.3,0-0.5,0L75.8,55.6z"/>
			<path id="Fill-58" style="fill:#FEFEFE;" d="M80.8,56.6c0.1,0.2,0.3,0.3,0.6,0.4c0.2,0.1,0.5,0.1,0.7,0.1c0.5,0,0.8-0.2,1-0.6
				c0.2-0.4,0.3-0.9,0.2-1.5c-0.1-1.3-0.6-1.9-1.6-1.9c-0.4,0-0.6,0.1-0.9,0.3c-0.2,0.2-0.3,0.4-0.3,0.6L80.8,56.6z M79.5,52.6
				c0.1,0,0.1,0,0.2,0c0.4,0,0.7,0.1,0.8,0.5c0.1-0.2,0.4-0.4,0.6-0.5c0.3-0.1,0.6-0.2,0.9-0.2c0.7-0.1,1.2,0.1,1.7,0.6
				c0.4,0.4,0.7,1.1,0.7,2c0,0.6,0,1.2-0.2,1.6c-0.2,0.4-0.4,0.8-0.7,1.1c-0.3,0.3-0.7,0.4-1.2,0.4c-0.3,0-0.6,0-0.9-0.1
				c-0.3-0.1-0.5-0.2-0.6-0.4l0.2,2.9l-1,0.1L79.5,52.6z"/>
			<path id="Fill-60" style="fill:#FEFEFE;" d="M89.1,54c-0.1-1-0.5-1.4-1.4-1.4c-0.4,0-0.7,0.2-0.9,0.5c-0.2,0.3-0.3,0.6-0.3,1.1
				L89.1,54z M86.5,54.9c0.1,0.6,0.3,1,0.6,1.3c0.3,0.3,0.7,0.4,1.3,0.4c0.6-0.1,1.1-0.3,1.4-0.8c0.1,0.1,0.2,0.2,0.3,0.3
				c0.1,0.1,0.1,0.2,0.1,0.3c0,0.1-0.1,0.3-0.2,0.4c-0.4,0.3-0.9,0.5-1.6,0.6c-0.8,0.1-1.5-0.1-2-0.6c-0.5-0.5-0.8-1.2-0.8-2.1
				c0-0.6,0-1.1,0.2-1.5c0.2-0.4,0.4-0.8,0.8-1c0.4-0.3,0.8-0.4,1.2-0.4c0.5,0,0.9,0,1.2,0.2c0.3,0.2,0.6,0.4,0.8,0.8
				c0.2,0.3,0.3,0.7,0.4,1.2c0,0.3,0,0.5,0,0.6L86.5,54.9z"/>
			<path id="Fill-62" style="fill:#FEFEFE;" d="M91.3,51.6c0.1,0,0.1,0,0.2,0c0.2,0,0.4,0,0.5,0.1c0.1,0.1,0.2,0.2,0.3,0.4
				c0.1-0.2,0.3-0.4,0.5-0.5c0.2-0.1,0.4-0.2,0.7-0.2c0.2,0,0.4,0,0.6,0.1c0.2,0.1,0.2,0.2,0.3,0.3c0,0.1,0,0.2-0.1,0.4
				c0,0.1-0.1,0.3-0.2,0.4c-0.1-0.1-0.2-0.2-0.4-0.2c-0.1,0-0.3,0-0.4,0c-0.3,0-0.5,0.1-0.7,0.3c-0.2,0.2-0.3,0.4-0.3,0.6l0.3,3.8
				l-1,0.1L91.3,51.6z"/>
			<path id="Fill-64" style="fill:#FEFEFE;" d="M95.1,49.7c0.1,0,0.1,0,0.2,0c0.5,0,0.8,0.2,0.8,0.7l0.1,0.9l1.7-0.1l0.1,0.8
				l-1.7,0.1l0.2,2.9c0,0.6,0.3,0.9,0.8,0.9c0.1,0,0.3,0,0.4-0.1c0.1-0.1,0.2-0.1,0.3-0.2c0.1-0.1,0.2-0.2,0.2-0.2
				c0.2,0.3,0.4,0.5,0.4,0.6c0,0.1-0.1,0.2-0.2,0.3c-0.1,0.1-0.3,0.2-0.5,0.3c-0.2,0.1-0.4,0.1-0.7,0.1c-0.8,0.1-1.3-0.2-1.5-0.7
				c-0.1-0.2-0.2-0.5-0.2-1L95.1,49.7z"/>
			<path id="Fill-66" style="fill:#FEFEFE;" d="M102.5,52c-0.2-0.2-0.4-0.3-0.6-0.4c-0.3-0.1-0.5-0.1-0.8-0.1
				c-0.3,0-0.5,0.1-0.7,0.2c-0.2,0.1-0.2,0.3-0.2,0.5c0,0.1,0.1,0.2,0.1,0.3c0.1,0.1,0.2,0.2,0.3,0.2c0.2,0.1,0.4,0.1,0.7,0.2
				c0.4,0.1,0.8,0.2,1.1,0.3c0.3,0.1,0.5,0.3,0.6,0.5c0.1,0.2,0.2,0.5,0.2,0.8c0,0.5-0.1,0.9-0.5,1.3c-0.4,0.3-0.8,0.5-1.5,0.6
				c-0.5,0-0.9,0-1.3-0.1c-0.4-0.1-0.5-0.3-0.5-0.4c0-0.1,0-0.2,0-0.3c0-0.1,0.1-0.2,0.2-0.4c0.2,0.2,0.5,0.3,0.7,0.4
				c0.3,0.1,0.5,0.1,0.8,0.1c0.3,0,0.6-0.1,0.8-0.3c0.2-0.2,0.3-0.4,0.2-0.6c0-0.2-0.1-0.4-0.3-0.5c-0.2-0.1-0.5-0.2-1-0.3
				c-0.6-0.1-1-0.2-1.3-0.5c-0.3-0.2-0.4-0.6-0.5-1c0-0.5,0.1-0.8,0.5-1.2c0.3-0.3,0.8-0.5,1.3-0.5c0.3,0,0.5,0,0.8,0
				c0.2,0,0.4,0.1,0.6,0.2c0.3,0.1,0.4,0.3,0.4,0.4c0,0.2,0,0.4-0.2,0.6L102.5,52z"/>
		</g>
	</g>
</g>
</svg>
