<?xml version="1.0" encoding="utf-8"?>
<svg version="1.1" id="Layer_1" xmlns="http://www.w3.org/2000/svg" xmlns:xlink="http://www.w3.org/1999/xlink" x="0px" y="0px"
	width="100px" height="100px" viewBox="0 0 66.7 66.7" style="enable-background:new 0 0 66.7 66.7;" xml:space="preserve">
<g>
	<circle style="fill:#E8E8E8;" cx="33.3" cy="33.3" r="33.3"/>
	<circle style="fill:#FFFFFF;" cx="33.3" cy="33.3" r="32.7"/>
	<path style="fill:#004E9B;" d="M12.7,45.5H15v0.8h-3.2v-4.5h0.9C12.7,41.7,12.7,45.5,12.7,45.5z M18.3,45.3
		c-0.2,0.6-0.8,1.1-1.5,1.1c-0.9,0-1.7-0.5-1.7-1.8c0-0.4,0.1-1.7,1.6-1.7c0.7,0,1.5,0.3,1.5,1.9v0.1h-2.3c0,0.3,0.1,0.8,0.8,0.8
		c0.3,0,0.5-0.1,0.6-0.4H18.3z M17.5,44.3c-0.1-0.5-0.4-0.7-0.7-0.7c-0.4,0-0.7,0.3-0.7,0.7H17.5z M19.9,42.9h0.5v0.7h-0.5v1.8
		c0,0.2,0,0.3,0.4,0.3h0.2v0.7l-0.4,0.1H20c-0.7,0-0.9-0.3-0.9-0.7v-2.1h-0.5v-0.7h0.4v-0.9h0.9C19.9,42.1,19.9,42.9,19.9,42.9z
		 M21.1,41.7h0.9v0.7c0,0.8-0.4,1-0.9,1.1v-0.3c0.4-0.1,0.5-0.3,0.5-0.6h-0.5V41.7C21.1,41.8,21.1,41.7,21.1,41.7z M24.1,44
		c0-0.2-0.1-0.5-0.6-0.5s-0.5,0.2-0.5,0.3c0,0.5,2.1,0.1,2.1,1.4c0,1-0.9,1.1-1.5,1.1c-0.7,0-1.6-0.2-1.6-1.2h0.9
		c0,0.3,0.2,0.5,0.7,0.5c0.5,0,0.5-0.2,0.5-0.3c0-0.5-2.1-0.1-2.1-1.4c0-0.5,0.3-1.1,1.3-1.1c0.7,0,1.4,0.2,1.5,1.1
		C24.9,43.9,24.1,44,24.1,44z M30.4,46.3h-0.9v-0.4l0,0c-0.2,0.4-0.6,0.5-0.9,0.5c-1,0-1.4-0.9-1.4-1.8c0-1.1,0.7-1.7,1.4-1.7
		c0.5,0,0.8,0.3,0.9,0.5l0,0v-1.6h0.9V46.3C30.4,46.3,30.4,46.3,30.4,46.3z M28.8,45.7c0.5,0,0.8-0.5,0.8-0.9c0-0.5-0.1-1.1-0.7-1.1
		c-0.5,0-0.7,0.5-0.7,1C28.1,45.1,28.3,45.7,28.8,45.7z M32.6,46.4c-0.9,0-1.7-0.5-1.7-1.7s0.8-1.7,1.7-1.7s1.7,0.5,1.7,1.7
		S33.5,46.4,32.6,46.4z M32.6,43.6c-0.7,0-0.8,0.6-0.8,1s0.1,1,0.8,1s0.8-0.6,0.8-1S33.3,43.6,32.6,43.6L32.6,43.6z M37.5,42.6h-0.9
		v-0.9h0.9V42.6z M37.5,42.9v3.3h-0.9v-3.3H37.5z M39.3,42.9h0.5v0.7h-0.5v1.8c0,0.2,0,0.3,0.3,0.3h0.2v0.7l-0.4,0.1h-0.1
		c-0.7,0-0.9-0.3-0.9-0.7v-2.1H38v-0.7h0.4v-0.9h0.9V42.9L39.3,42.9L39.3,42.9z M42.1,42.9h0.8v0.7l0,0c0.2-0.4,0.4-0.7,0.9-0.7H44
		v0.9h-0.3c-0.7,0-0.8,0.4-0.8,0.8v1.7h-0.9L42.1,42.9C42.1,42.9,42.1,42.9,42.1,42.9z M45.4,42.6h-0.9v-0.9h0.9V42.6z M45.4,42.9
		v3.3h-0.9v-3.3H45.4z M49.1,42.9v3.2c0,0.6,0,1.5-1.7,1.5c-0.7,0-1.4-0.3-1.5-1h0.9c0,0.2,0.1,0.4,0.6,0.4c0.5,0,0.7-0.2,0.7-0.7
		v-0.4l0,0c-0.1,0.3-0.4,0.5-0.9,0.5c-0.8,0-1.5-0.5-1.5-1.7c0-1.1,0.7-1.7,1.4-1.7c0.6,0,0.9,0.4,1,0.6l0,0V43L49.1,42.9
		C49.1,42.9,49.1,42.9,49.1,42.9z M47.5,45.6c0.6,0,0.7-0.5,0.7-0.9c0-0.5-0.3-1-0.7-1c-0.3,0-0.7,0.3-0.7,1
		C46.8,45.1,47,45.6,47.5,45.6z M52.7,46.3h-0.9v-2c0-0.3,0-0.7-0.5-0.7c-0.4,0-0.7,0.3-0.7,0.7v1.9h-1v-4.5h1v1.7h-0.1
		c0.1-0.2,0.5-0.5,0.9-0.5c0.7,0,1.1,0.4,1.1,1.1L52.7,46.3C52.7,46.3,52.7,46.3,52.7,46.3z M54.3,42.9h0.6v0.7h-0.5v1.8
		c0,0.2,0,0.3,0.3,0.3h0.2v0.7l-0.5,0.1h-0.1c-0.7,0-0.9-0.3-0.9-0.7v-2.1h-0.5v-0.7h0.5v-0.9h0.9C54.3,42.1,54.3,42.9,54.3,42.9z"
		/>
	<path style="fill:#FFFFFF;" d="M13.1,36V19h40.5v17l-20.3,4.2L13.1,36z"/>
	<path style="fill:#004E9B;" d="M52.1,34.8V19H14.5v15.9l18.8,3.9L52.1,34.8z"/>
	<path style="fill:#FFFFFF;" d="M24.2,32.5h-1.9l-1-4.9l0,0l-1,4.9h-1.9l-2-7.3h1.9l1.1,5.4l0,0l1.1-5.4h1.8l1.1,5.4l0,0l1.1-5.4
		h1.9C26.3,25.1,24.2,32.5,24.2,32.5z M26.3,27.2h1.7v5.3h-1.7V27.2z M28.1,26.5h-1.7v-1.4h1.7V26.5z M32.2,29.1
		c0-0.5-0.4-0.7-0.9-0.7c-1,0-1.1,0.8-1.1,1.5c0,0.7,0.3,1.4,1.1,1.4c0.6,0,0.9-0.4,1-0.9H34c-0.1,1.4-1.3,2.3-2.7,2.3
		c-1.6,0-2.8-1.1-2.8-2.7c0-1.7,1.1-2.9,2.8-2.9c1.3,0,2.5,0.7,2.6,2.1C33.9,29.1,32.2,29.1,32.2,29.1z M34.3,25.1H36v3.8l1.6-1.7h2
		l-1.9,2l2.2,3.3h-2.1l-1.3-2.1L36,30.8v1.7h-1.7L34.3,25.1L34.3,25.1L34.3,25.1z M43.3,29.3c0-0.7-0.5-1.1-1.1-1.1
		c-0.6,0-1,0.5-1.1,1.1C41.1,29.3,43.3,29.3,43.3,29.3z M41.1,30.3c0,0.7,0.5,1.1,1.2,1.1c0.4,0,0.8-0.2,1-0.6h1.7
		c-0.3,1.3-1.5,1.8-2.7,1.8c-1.7,0-2.9-1.1-2.9-2.8c0-1.7,1.3-2.8,2.9-2.8c1.9,0,2.9,1.5,2.8,3.3L41.1,30.3L41.1,30.3L41.1,30.3
		C41.1,30.3,41.1,30.3,41.1,30.3z M46.8,30.7c0,0.3,0.1,0.5,0.3,0.6c0.2,0.1,0.4,0.2,0.7,0.2c0.3,0,0.8-0.1,0.8-0.5
		c0-0.4-0.5-0.5-0.9-0.5c-1.1-0.3-2.5-0.3-2.5-1.7c0-1.3,1.4-1.7,2.5-1.7c1.2,0,2.4,0.4,2.5,1.7h-1.6c0-0.2-0.1-0.3-0.2-0.5
		c-0.2-0.1-0.4-0.1-0.5-0.1c-0.3,0-0.7,0.1-0.7,0.4c0,0.5,1.2,0.6,2,0.7c1.1,0.2,1.3,1,1.3,1.5c0,1.5-1.3,1.9-2.6,1.9
		c-1.3,0-2.6-0.4-2.6-1.9H46.8L46.8,30.7L46.8,30.7z"/>
</g>
</svg>
