<?xml version="1.0" encoding="utf-8"?>
<svg version="1.1" id="Layer_1" xmlns="http://www.w3.org/2000/svg" xmlns:xlink="http://www.w3.org/1999/xlink" x="0px" y="0px"
	width="100px" height="100px" viewBox="0 0 100 100" style="enable-background:new 0 0 100 100;" xml:space="preserve">
<g>
	<path style="fill:#E8E8E8;" d="M50,0c27.6,0,50,22.4,50,50s-22.4,50-50,50S0,77.6,0,50S22.4,0,50,0"/>
	<path style="fill:#FFFFFF;" d="M50,1c27.1,0,49,21.9,49,49S77.1,99,50,99S1,77.1,1,50S22.9,1,50,1"/>
	<g>
		<path style="fill-rule:evenodd;clip-rule:evenodd;" d="M22.2,55.2c-1,0.3-3.9,0.4-4.8,0.4c-7.5,0-9.9-4.5-9.9-8.4
			c0-6.1,4.5-9.4,8.7-9.4c2.4,0,3.4,0.8,4.7,0.8c0.5,0,0.7-0.1,1-0.6h0.5v5h-0.4c-0.4-3.2-3.4-4.6-5.7-4.6c-3.4,0-6.1,3.1-6.1,7.7
			c0,5,3,8.6,7,8.6c1.2,0,2.9-0.3,2.9-1.8v-1.8c0-2-0.4-2.8-1.8-2.8h-0.7v-0.5h6.9v0.5c-1.7,0-2.1,0.8-2.1,2.3L22.2,55.2L22.2,55.2
			L22.2,55.2z"/>
		<path style="fill-rule:evenodd;clip-rule:evenodd;" d="M35.5,53.4c-0.3,0.7-0.4,1-0.7,1c-0.5,0-0.6-0.4-0.6-1.7h0v-4.5
			c0-2.9-2-3.8-3.8-3.8c-1.9,0-3.4,1.2-3.9,3.2l0.5,0.1c0.4-1.5,1.6-2.3,2.8-2.3c1.5,0,2.3,1.1,2.3,2.6v0.8c-1.7,1-5.8,0.9-5.8,3.9
			c0,1.5,1.3,2.8,3,2.8c1.1,0,1.8-0.4,2.8-1.5c0.4,1,0.9,1.5,1.8,1.5c1.2,0,1.9-0.8,2-2.1H35.5z M32.1,53c-0.4,0.9-1.5,1.4-2.2,1.4
			c-0.8,0-1.5-0.9-1.5-2c0-2.1,1.8-2.1,3.7-3V53z"/>
		<path style="fill-rule:evenodd;clip-rule:evenodd;" d="M44.5,44.4c-1.3,0-2.3,0.4-3.7,1.8v-1.8h-0.4L37,44.7v0.5
			c1.5,0,1.8,0.2,1.8,1.6v13.4c0,1.2-0.4,1.5-1.8,1.5v0.5h5.6v-0.5c-1.5,0-1.8-0.5-1.8-1.8v-5.7c1.2,0.9,2,1.2,3.2,1.2
			c3,0,5.2-2.4,5.2-5.6C49.2,46.7,47.3,44.4,44.5,44.4z M43.8,54.9c-1,0-2.1-0.5-2.9-1.3h0V47c1-1.2,1.8-1.6,2.9-1.6
			c2,0,3.4,2,3.4,4.9C47,52.8,45.7,54.9,43.8,54.9z"/>
		<path style="fill-rule:evenodd;clip-rule:evenodd;" d="M59.3,52c0,2,0.5,2.7,2,2.7v0.4h-6.1v-0.4c1.4,0,1.9-0.6,1.9-2.7V41.4
			c0-2.2-0.4-2.7-1.9-2.7v-0.5h6.1v0.5c-1.5,0-2,0.7-2,2.7V52L59.3,52z"/>
		<path style="fill-rule:evenodd;clip-rule:evenodd;" d="M74.7,52.9c0,1.4,0.3,1.8,1.8,1.8v0.4h-5.6v-0.4c1.5,0,1.8-0.4,1.8-1.3
			v-5.5c0-1.8-1.2-2.4-2.3-2.4c-1,0-2,0.7-3,2v5.1c0,1.6,0.2,2,1.8,2v0.4h-5.6v-0.4c1.4,0,1.7-0.1,1.7-2v-5.9c0-1.2-0.3-1.5-1.7-1.5
			v-0.5l3.2-0.3h0.5v2c1.2-1.4,2.5-2,3.8-2c1.8,0,3.6,1.2,3.6,3.7V52.9L74.7,52.9z"/>
		<path style="fill-rule:evenodd;clip-rule:evenodd;" d="M87.3,48.1h-0.5C86.4,46.2,85,45,83.3,45c-2,0-3.5,1.8-3.5,4.3
			c0,2.9,1.8,5.3,3.9,5.3c1.2,0,2.8-0.7,3.9-2.2v0.7c-1.1,1.5-2.7,2.3-4.6,2.3c-3.1,0-5.3-2.2-5.3-5.3c0-3.2,2.4-5.8,5.4-5.8
			c1.6,0,2.4,0.6,3,0.6c0.2,0,0.5-0.2,0.7-0.6h0.5L87.3,48.1L87.3,48.1L87.3,48.1z"/>
		<path style="fill-rule:evenodd;clip-rule:evenodd;" d="M92.5,54.1c0,0.8-0.7,1.5-1.4,1.5c-0.8,0-1.5-0.7-1.5-1.5
			c0-0.7,0.7-1.4,1.5-1.4C91.8,52.7,92.5,53.3,92.5,54.1z"/>
	</g>
</g>
</svg>
