<?xml version="1.0" encoding="utf-8"?>
<svg version="1.1" id="Layer_1" xmlns="http://www.w3.org/2000/svg" xmlns:xlink="http://www.w3.org/1999/xlink" x="0px" y="0px"
	width="100px" height="100px" viewBox="0 0 100 100" style="enable-background:new 0 0 100 100;" xml:space="preserve">
<g>
	<path style="fill:#E8E8E8;" d="M50,0c27.6,0,50,22.4,50,50s-22.4,50-50,50S0,77.6,0,50S22.4,0,50,0"/>
	<path style="fill:#FFFFFF;" d="M50,1c27.1,0,49,21.9,49,49S77.1,99,50,99S1,77.1,1,50S22.9,1,50,1"/>
	<g>
		<path style="fill:#267E44;" d="M50.3,68.2h15.9c0,0,3.1,0.5,5-2.6c2.5-3.9,10.5-15.4,10.5-15.4s2.5-2.6,0.1-6.4
			c-2-3.2-7.9-11.5-7.9-11.5s1.4,2.6-0.6,5.6C70.5,42,54.4,66.2,54.4,66.2s-1.3,1.8-2.8,0.8c-0.8-0.5-0.7-1.3,0-2.5
			c0.7-1.3,8-11.7,8-11.7s1.3-1.6,1.3-3.4c0-1.5,0.1-1.6-0.9-3.3c-1.2-1.9-10-14.2-10-14.2s-8.9,12.3-10,14.2
			c-1,1.7-0.9,1.8-0.9,3.3c0,1.8,1.3,3.4,1.3,3.4s7.3,10.5,8,11.7c0.7,1.3,0.8,2,0,2.5c-1.6,1-2.8-0.8-2.8-0.8S29.5,42,26.7,37.8
			c-2-3-0.6-5.6-0.6-5.6s-5.8,8.3-7.9,11.5c-2.4,3.8,0.1,6.4,0.1,6.4s7.9,11.5,10.5,15.4c2,3,5,2.6,5,2.6L50.3,68.2L50.3,68.2z"/>
		<path style="fill:#267E44;" d="M50.3,68.2h15.9c0,0,3.1,0.5,5-2.6c2.5-3.9,10.5-15.4,10.5-15.4s2.5-2.6,0.1-6.4
			c-2-3.2-7.9-11.5-7.9-11.5s1.4,2.6-0.6,5.6C70.5,42,54.4,66.2,54.4,66.2s-1.3,1.8-2.8,0.8c-0.8-0.5-0.7-1.3,0-2.5
			c0.7-1.3,8-11.7,8-11.7s1.3-1.6,1.3-3.4c0-1.5,0.1-1.6-0.9-3.3c-1.2-1.9-10-14.2-10-14.2s-8.9,12.3-10,14.2
			c-1,1.7-0.9,1.8-0.9,3.3c0,1.8,1.3,3.4,1.3,3.4s7.3,10.5,8,11.7c0.7,1.3,0.8,2,0,2.5c-1.6,1-2.8-0.8-2.8-0.8S29.5,42,26.7,37.8
			c-2-3-0.6-5.6-0.6-5.6s-5.8,8.3-7.9,11.5c-2.4,3.8,0.1,6.4,0.1,6.4s7.9,11.5,10.5,15.4c2,3,5,2.6,5,2.6L50.3,68.2L50.3,68.2z"/>
	</g>
</g>
</svg>
