<?xml version="1.0" encoding="utf-8"?>
<svg version="1.1" id="Layer_1" xmlns="http://www.w3.org/2000/svg" xmlns:xlink="http://www.w3.org/1999/xlink" x="0px" y="0px"
	 viewBox="0 0 556.5 235.7" style="enable-background:new 0 0 556.5 235.7;" xml:space="preserve">
<g>
	<polygon style="fill:#A48D68;" points="187.1,0 156.6,30.5 187.1,60.9 217.6,30.5 	"/>
	<polygon style="fill:#A48D68;" points="248.1,0 217.6,30.5 248.1,60.9 278.5,30.5 	"/>
	<polygon style="fill:#A48D68;" points="309,0 278.5,30.5 309,60.9 339.5,30.5 	"/>
	<polygon style="fill:#A48D68;" points="369.4,0 339,30.5 369.4,60.9 399.9,30.5 	"/>
	<path style="fill:#231F20;" d="M18.2,100.6H3.5v6H0V93.5h3.5V96h35.2v-2.4h3.4v13.1h-3.4v-6H23.9v43.9h7.3v3.3H10.9v-3.3h7.3V100.6
		z"/>
	<path style="fill:#231F20;" d="M81,126.8v-15.5h-5.5v-2.5h15.4v2.5h-5.5v34.1h5.5v2.5H75.5v-2.5H81v-15.8H58.6v15.8h5.4v2.5H48.7
		v-2.5h5.5v-34.1h-5.5v-2.5h15.4v2.5h-5.4v15.5H81z"/>
	<path style="fill:#231F20;" d="M117.3,126.6v-4.9h2.6v13h-2.6v-5.6h-10.9v16.2h14.1v-5.5h2.6v7.9H96.5v-2.5h5.5v-34.1h-5.5v-2.5
		h26.1v7.7H120v-5.2h-13.6v15.4H117.3z"/>
	<path style="fill:#231F20;" d="M162.7,136c0,4,0.2,9.6-1,13.5c-2.6,8.8-9.9,11.1-14,11.1c-1.8,0-3.5-0.3-5.1-1v-1.5
		c8.8,0.2,14.1-6.1,14.1-16.1V99.2h-7.5v-3.3h20.3v3.3h-6.8L162.7,136z"/>
	<path style="fill:#231F20;" d="M197.5,108c13.9,0,20.5,11.5,20.5,20.3s-6.6,20.3-20.5,20.3c-14.5,0-20.5-12.3-20.5-20.3
		C177,119.3,183.9,108,197.5,108z M197.5,146.1c6.8,0,15.1-4.1,15.1-18.2c0-10.6-5.9-17.5-15.1-17.5c-8.9,0-15.1,6.2-15.1,17.8
		C182.4,139.2,188.3,146.1,197.5,146.1z"/>
	<path style="fill:#231F20;" d="M254.4,107.5h2V118h-2c-1.9-5.1-5.3-7.6-10.6-7.6c-8.7,0-13.8,6.4-13.8,17.5
		c0,12.6,7.4,18.2,14.6,18.2c4.7,0,8.8-1.6,13-5v2.5c-4.6,3.6-8,5-13,5c-10.9,0.1-19.9-8.6-20.1-19.6c0-0.2,0-0.3,0-0.5
		c0-11.8,8.7-20.5,20.3-20.5c2.8,0,4.8,0.4,9,1.8L254.4,107.5z"/>
	<path style="fill:#231F20;" d="M269.1,111.3h-5.4v-2.5H279v2.5h-5.5v16.1l15.5-16.1h-5v-2.5h13.7v2.5h-5.3L278,126.2l16.4,19.2h4.4
		v2.5h-15.3v-2.5h5.2l-15-17.6v17.6h5.5v2.5h-15.4v-2.5h5.4V111.3z"/>
	<path style="fill:#231F20;" d="M323.7,126.6v-4.9h2.6v13h-2.6v-5.6h-10.9v16.2h14.1v-5.5h2.6v7.9h-26.6v-2.5h5.5v-34.1h-5.5v-2.5
		H329v7.7h-2.6v-5.2h-13.5v15.4H323.7z"/>
	<path style="fill:#231F20;" d="M350.3,126.8l-11.4-15.5h-4.8v-2.5h14.5v2.5h-4.3l9.3,12.5l9.3-12.5h-4.3v-2.5h11.7v2.5h-3.9
		l-11.5,15.5v18.6h5.3v2.5h-15.1v-2.5h5.4V126.8z"/>
	<path style="fill:#231F20;" d="M434.7,94.3h2.7v13.9h-2.7c-2.5-6.8-7-10.1-14-10.1c-11.5,0-18.4,8.6-18.4,23.2
		c0,16.7,9.9,24.1,19.4,24.1c6.2,0,11.7-2.1,17.2-6.6v3.3c-6.1,4.9-10.6,6.6-17.2,6.6c-14.6,0.2-26.5-11.5-26.7-26
		c0-0.2,0-0.4,0-0.6c0-15.7,11.5-27.3,26.9-27.3c3.7,0,6.4,0.5,12,2.4L434.7,94.3z"/>
	<path style="fill:#231F20;" d="M470.5,145.3v-5.5h2.6v7.9h-27v-2.5h5.5v-34.1h-5.5v-2.5h15.4v2.5h-5.4v34.1H470.5z"/>
	<path style="fill:#231F20;" d="M478.1,111.3v-2.5h15.4v2.5h-5.6v21.9c0,8.2,4.2,13,11.3,13s11.3-5,11.3-12.7v-22.2h-5.6v-2.5h15.4
		v2.5h-5.3v22.5c0,9.7-6.6,14.8-15.8,14.8c-9.3,0-15.8-5.3-15.8-14.8v-22.5H478.1z"/>
	<path style="fill:#231F20;" d="M525.8,108.8h14.4c8.7,0,12.4,4.8,12.4,10c0,3.9-1.7,6.6-6.1,8.5v0.1c6.5,1,10,5,10,9.8
		c0,5.8-3.1,10.6-12.4,10.6h-18.3v-2.5h5.4v-34.1h-5.4V108.8z M539.8,126.8c4.2,0,7.9-2.4,7.9-7.7c0-4.4-2.9-7.8-7.4-7.8h-4.5v15.5
		H539.8z M543.4,145.4c5,0,8-2.1,8-7.9c0-5.4-3.8-8.2-11.7-8.2h-3.9v16.1L543.4,145.4z"/>
	<path style="fill:#A48D68;" d="M166.3,193.5h2.1v10.8h-2.1c-1.9-5.3-5.4-7.8-10.9-7.8c-8.9,0-14.2,6.6-14.2,18
		c0,12.9,7.6,18.7,15,18.7c4.8,0,9.1-1.6,13.3-5.1v2.6c-4.8,3.7-8.2,5.1-13.3,5.1c-11.3,0.1-20.5-8.9-20.6-20.2c0-0.2,0-0.3,0-0.5
		c0-12.1,8.9-21.1,20.8-21.1c2.9,0,5,0.4,9.3,1.9L166.3,193.5z"/>
	<path style="fill:#A48D68;" d="M192.5,193.9l14.1,38.4h3.4v2.5h-11.9v-2.5h3.6l-4.4-11.9h-14.2l-4.2,11.9h3.8v2.5H173v-2.5h3.4
		l13.5-38.4H192.5z M189.9,200.2h-0.1l-5.7,17.7h12.5L189.9,200.2z"/>
	<path style="fill:#A48D68;" d="M222,198.4h-11.4v4.6h-2.7v-10.1h2.7v1.9h27.2v-1.9h2.7V203h-2.7v-4.6h-11.4v34h5.7v2.5h-15.7v-2.6
		h5.6V198.4z"/>
	<path style="fill:#A48D68;" d="M265.7,213.1v-5h2.7v13.3h-2.7v-5.8h-11.2v16.7H269v-5.6h2.7v8.2h-27.4v-2.5h5.6v-35h-5.6v-2.6h26.8
		v7.9h-2.7v-5.4h-13.9v15.8H265.7z"/>
	<path style="fill:#A48D68;" d="M280.9,197.3h-5.6v-2.6h15.1c9,0,12.6,5.2,12.6,10.5c0,5.1-3.7,9.4-8.7,10.1v0.1
		c4.8,1.9,6.9,4.4,9.6,9.9l3.4,7h4v2.5h-7.6l-5-10.2c-3-6-6.2-8.4-11.1-8.4h-2.1v16h5.7v2.5h-16v-2.5h5.6V197.3z M287.4,213.8
		c6.7,0,10.6-3,10.6-8.3c0-3.8-2.1-8.2-8.7-8.2h-3.8v16.5H287.4z"/>
	<path style="fill:#A48D68;" d="M319.8,197.3h-5.6v-2.6H330v2.6h-5.6v35h5.6v2.5h-15.8v-2.5h5.6V197.3z"/>
	<path style="fill:#A48D68;" d="M340,197.3h-5.5v-2.6h10v2.6l24.9,30.6h0.1v-30.6h-5.8v-2.6h13.8v2.6h-5.3v37.6h-2.7l-26.7-32.8
		h-0.1v30.2h5.7v2.5h-13.9v-2.5h5.5L340,197.3z"/>
	<path style="fill:#A48D68;" d="M413.3,193.5h2.1v11h-2.1c-1.3-5-5.4-8-11-8c-9.1,0-14.7,6.6-14.7,17.8s6.4,18.9,15.7,18.9
		c2.6,0,7.9-0.6,7.9-3.7v-10.5h-5.5v-2.6h15.2v2.6h-5.1v15c-4,1.2-8.1,1.8-12.3,1.7c-13,0-21.6-9-21.6-20.6
		c0-12.5,8.7-21.2,20.8-21.2c3.4,0,6.8,0.7,10,2L413.3,193.5z"/>
</g>
</svg>
