<svg xmlns="http://www.w3.org/2000/svg" viewBox="0 0 251 133.5"><path d="M240.169 56.504c-.2-6.3-3.3-12.2-8.6-15 2.1-3.2 4.1-6.4 6-9.6 2 4.1 5 8.5 5 14.2.1 3.7-.8 7.3-2.4 10.4m-5.1 6.2c-2.3 1.6-4.9 2.6-7.9 2.6-4 0-7.4-1.6-9.6-4.5 4-4.9 8-10.4 11.8-16 4.4 2.5 6.2 8.1 6.2 13.3-.1 1.6-.2 3.2-.5 4.6m-19.5-6.2c-.2-1-.3-2-.3-3.1 0-5.5 3.9-9.8 9-9.8h1c-3.3 4.7-6.5 9.1-9.7 12.9m-59.8 24.7c-1.8 0-2.6-1.4-2.6-4 0-8.4 7.5-26.2 19.6-36.6 1.3 2.2 1.9 5 1.9 7.9.1 14-12.7 32.7-18.9 32.7m-47.8 10.4c-1.7 0-2.6-1.5-2.6-4 0-10.9 18.5-46.6 27.8-46.6 1.8 0 2.6 1.5 2.6 4 .1 11-18.3 46.6-27.8 46.6m-27-37.3c-2.3-2.5-4.7-4.5-7.3-6 6.3-13 13.4-25.3 22.2-34.7 3 3.1 4.6 7.3 4.6 12.4 0 12.4-8.3 23.4-19.5 28.3m-35.1 60.6c-2.4 0-4.7-.3-6.7-.9 11-12.4 19.2-32.1 28.1-52 3.8.1 7.4-.3 10.6-.9 1.8 3.8 2.9 8.4 2.9 13.9 0 17.9-13.2 39.9-34.9 39.9m-14.6-5.4c-3.5-3.3-5.3-7.6-5.2-11.1 0-1.8.5-3.4 1.3-4.8 1.1 2.5 3.9 4.4 7.2 4.4 1.3 0 2.5-.3 3.6-.7-2.3 4.5-4.5 8.7-6.9 12.2m23.7-59c0-2.4 2.9-2.8 6-2.5l-3.3 6.3c-1.7-1-2.7-2.4-2.7-3.8m16.5 2.3c1.2 1 2.3 2.1 3.4 3.4-1.7.4-3.5.6-5.3.7.7-1.4 1.3-2.8 1.9-4.1m168.4-24.2c2.1-2.4 3.4-5.4 3.4-7.6 0-1.5-.9-2.4-2.3-2.4-2.3 0-5.1 2.9-5.1 7.2 0 .6.1 1.2.2 1.8-2.7 4.2-5.4 8.4-8.3 12.5-1-.2-2-.3-3-.3-6.8 0-13.7 5.1-13.7 14.2 0 2.5.4 4.7 1.2 6.6-5.8 6.6-10.9 10.9-14.3 10.9-1.4 0-2.2-.7-2.2-2.3s.8-4.3 2.4-7.9l19.9-44 21.5-2.5 2.4-5.1-20.8.7 3.6-8-8.1 1-3.7 7.2-29.1.9-5.2 10.4 30.4-3.6-6.1 12.1c-3.1-1.4-6.9-2.2-11.3-2.2-6.7 0-12.8 1.6-18.4 4.4-2.5-1.2-5.4-1.8-8.3-1.8-7 0-15 3.4-21.4 9.3-1.3-4-4-6.4-8.1-6.4-4.7 0-9.7 2.5-14.5 6.5-2.9-2.4-7-3-11.4-1.4 2.4-4.4 3.6-9.1 3.6-13.7 0-8.1-3.8-14.1-10.8-17.7 2.4-1.9 4.9-3.7 7.5-5.1-1-.8-1.6-1.3-2.4-1.7-3.5 1.4-6.7 3.1-9.8 4.9-4.4-1.4-9.6-2.1-15.6-2.1-27.7 0-54 16-54 35.8 0 8.7 4.9 11.8 9.8 11.8 4.6 0 9-2.6 10.4-5.7-4-.8-6.3-4.3-6.3-8.6 0-15.4 18.7-28.9 37.8-28.9 4.3 0 8 .8 11 2.3-11.6 9-20.6 21.1-27.9 34.2-1.1-.2-2.1-.2-3.1-.2-5.5 0-9.5 2.4-9.5 6.9 0 3.1 2 5.8 5.1 7.7-4.5 9.5-8.5 19-12.4 27.6-1.3-2.6-4.4-4.3-7.9-4.3-8.4 0-14.8 7.4-14.8 16.6 0 6 2.4 11.7 6.6 16.3-4 4.4-8.3 7-13.3 7.2-1.7 0-3.3-.4-4.7-1.2 4-.4 7.2-3.4 7.1-7.2s-3.3-6.5-7.6-6.4c-5.3.1-8.2 4.6-8.1 8.5.2 7.3 6.3 11.1 14.4 10.9 7-.2 12.9-2.6 18.2-6.8 5 3.2 11.4 5.2 18.4 5.2 21.3 0 39.4-18.2 39.4-42.6 0-9.7-2.5-17.4-6.2-23.3 6.9-2.4 13-6.3 17.7-11 6.6-6.6 11.6-6 14.4-4.2-11 11.4-19.9 29.9-19.9 42.3 0 7.7 3.1 12.7 9 12.7 17.7 0 38.9-34.1 38.6-52.9 5.7-6.3 13.3-10.1 19.5-10.1 1.2 0 2.2.1 3.2.4-13.8 9.8-22.5 26.5-22.5 39.4 0 6.8 3.3 12 9.9 12 12.2 0 28.1-19 28.1-37.9 0-5.8-1.6-10.2-4.3-13.3 4.3-2.5 8.9-4.1 14-4.1 2.9 0 6 .7 8.7 1.9l-12.2 24.2c-2.8 5.9-3.9 10.3-3.9 13.5 0 4.9 2.9 7.4 7.4 7.4 6.6 0 14.4-6.1 22.2-14.9 3.4 4.2 8.6 6 12.9 6 1.4 0 2.8-.1 4.2-.4-3.3 4.1-8.7 7.3-16.7 9.3l-105.9 26.5c-16.1 4-25.9 12-21.2 27.2 3.7-3 10.3-6 27.4-11.2l96.2-29.3c14.1-4.3 23-14.4 26.8-24.6 6.6-3.2 12.4-9.3 12.4-17.7 0-9.5-7.8-15-10.6-21.8" fill="#1e1c59"/></svg>