<?xml version="1.0" encoding="utf-8"?>
<svg version="1.1" id="Layer_1" xmlns="http://www.w3.org/2000/svg" xmlns:xlink="http://www.w3.org/1999/xlink" x="0px" y="0px"
	width="100px" height="100px" viewBox="0 0 72.2 72.2" style="enable-background:new 0 0 72.2 72.2;" xml:space="preserve">
<g>
	<circle style="fill:#E8E8E8;" cx="36.1" cy="36.1" r="36.1"/>
	<circle style="fill:#FFFFFF;" cx="36.1" cy="36.1" r="35.4"/>
	<path style="fill:#02472C;" d="M12.7,45.8c-1.5,0-2.7-1.1-2.7-2.5s1.2-2.6,2.7-2.6c0.6,0,1.1,0.1,1.8,0.4V42
		c-0.6-0.3-1.2-0.6-1.8-0.6c-1.1,0-1.9,0.9-1.9,1.8c0,1,0.7,1.8,1.9,1.8c0.5,0,0.7-0.1,0.9-0.2v-1.2h-1.2l0.2-0.8h1.7v2.5
		C13.9,45.7,13.4,45.8,12.7,45.8 M17.5,41.5h-0.4v1.4h0.4c0.6,0,0.9-0.4,0.9-0.7C18.3,41.7,18.1,41.5,17.5,41.5 M19.1,45.7L18,44
		c-0.3-0.4-0.4-0.4-0.5-0.4H17v2.1h-0.9v-5h1.2c1,0,1.7,0.5,1.7,1.4c0,0.6-0.3,1-0.8,1.2c0.2,0,1.7,2.4,1.7,2.4S19.1,45.7,19.1,45.7
		z M21.1,45.7v-5H24l-0.2,0.7H22v1.4h1.8v0.8H22V45h2.1v0.8L21.1,45.7C21.1,45.7,21.1,45.7,21.1,45.7z M25.7,45.7v-5h2.9l-0.3,0.8
		h-1.8v1.4h1.8v0.8h-1.8v1.4h2.1v0.8L25.7,45.7L25.7,45.7z M34.1,45.7L31,42.1v3.5h-0.8v-5h0.6l3.2,3.7v-3.7h0.8v5
		C34.8,45.7,34.1,45.7,34.1,45.7z M36.7,45.7v-5h2.9l-0.3,0.8h-1.8v1.4h1.8v0.8h-1.8v1.4h2.1v0.8L36.7,45.7L36.7,45.7z M47,45.7
		l-2.6-2.5v2.5h-0.9v-5h0.9v2.3l2.1-2.3h1l-2.2,2.4l2.7,2.6C48,45.7,47,45.7,47,45.7z M49,40.8h0.9v5H49V40.8z M55.6,45.7l-3.1-3.5
		v3.5h-0.8v-5h0.6l3.2,3.7v-3.7h0.8v5H55.6z M60.2,45.8c-1.5,0-2.7-1.1-2.7-2.5s1.2-2.6,2.7-2.6c0.6,0,1.1,0.1,1.8,0.4V42
		c-0.6-0.3-1.2-0.6-1.8-0.6c-1.1,0-1.9,0.9-1.9,1.8c0,1,0.7,1.8,1.9,1.8c0.5,0,0.7-0.1,0.9-0.2v-1.2H60l0.2-0.8H62v2.5
		C61.5,45.7,60.9,45.8,60.2,45.8"/>
	<g>
		<path style="fill:#A06F29;" d="M22.5,48.6h-0.3v0.5h0.3c0.3,0,0.4-0.1,0.4-0.3C22.8,48.8,22.7,48.6,22.5,48.6 M22.4,47.9h-0.3v0.4
			h0.2c0.1,0,0.3-0.1,0.3-0.2C22.7,48,22.6,47.9,22.4,47.9 M22.5,49.5h-0.6v-1.9h0.6c0.4,0,0.6,0.2,0.6,0.5c0,0.3-0.1,0.4-0.3,0.4
			c0.3,0.1,0.4,0.3,0.4,0.4C23.2,49.3,22.9,49.5,22.5,49.5 M24.6,49.5c-0.4,0-0.8-0.2-0.8-0.7v-1.2h0.4v1.1c0,0.2,0,0.3,0.1,0.4
			c0.1,0.1,0.2,0.1,0.4,0.1c0.2,0,0.3-0.1,0.4-0.1c0.1-0.1,0.1-0.2,0.1-0.4v-1h0.4v1.2C25.5,49.2,25.2,49.5,24.6,49.5 M26.7,47.9
			h-0.2v0.5h0.2c0.3,0,0.3-0.1,0.3-0.3C27.1,48.1,26.9,47.9,26.7,47.9 M27.3,49.5l-0.4-0.6c-0.1-0.1-0.1-0.1-0.1-0.1h-0.2v0.7h-0.4
			v-1.9h0.6c0.4,0,0.6,0.2,0.6,0.5c0,0.2-0.1,0.4-0.3,0.5c0.1,0,0.6,0.9,0.6,0.9H27.3z M28.9,48.6v0.9h-0.4v-0.8l-0.7-1.1h0.4
			l0.4,0.7l0.5-0.7h0.4C29.6,47.6,28.9,48.6,28.9,48.6z M31.6,49.5c-0.2,0-0.4-0.1-0.6-0.1V49c0.1,0.1,0.3,0.2,0.6,0.2
			c0.2,0,0.3-0.1,0.3-0.2c0-0.1-0.1-0.2-0.2-0.3c-0.4-0.2-0.6-0.4-0.6-0.6c0-0.4,0.3-0.5,0.6-0.5c0.1,0,0.3,0,0.5,0.1V48
			c-0.1-0.1-0.3-0.1-0.5-0.1s-0.3,0.1-0.3,0.2c0,0.1,0.1,0.2,0.5,0.4c0.3,0.1,0.4,0.4,0.4,0.5C32.2,49.4,31.8,49.5,31.6,49.5
			 M34.1,47.9h-0.6v1.6h-0.4v-1.6h-0.6v-0.3h1.7L34.1,47.9z M36.7,47.9h-0.8v0.4h0.7v0.3h-0.7v0.5h0.9v0.3h-1.2v-1.8h1.2L36.7,47.9z
			 M38.1,47.9h-0.4v1.3h0.4c0.4,0,0.6-0.3,0.6-0.6C38.7,48.2,38.5,47.9,38.1,47.9 M38.2,49.5h-0.7v-1.9h0.7c0.6,0,1,0.4,1,0.9
			S38.7,49.5,38.2,49.5 M41.3,49.5v-1.3L40.7,49h-0.1L40,48.2v1.3h-0.4v-1.9h0.3l0.6,0.9l0.6-0.9h0.3v1.9L41.3,49.5
			C41.3,49.5,41.3,49.5,41.3,49.5z M43.1,49.5c-0.4,0-0.8-0.2-0.8-0.7v-1.2h0.4v1.1c0,0.2,0,0.3,0.1,0.4c0.1,0.1,0.2,0.1,0.4,0.1
			c0.2,0,0.3-0.1,0.4-0.1c0.1-0.1,0.1-0.2,0.1-0.4v-1h0.4v1.2C43.9,49.2,43.7,49.5,43.1,49.5 M46,49.5l-1.1-1.3v1.3h-0.4v-1.9h0.3
			L46,49v-1.4h0.4v1.9H46L46,49.5z M47.8,47.9h-0.4v1.3h0.4c0.4,0,0.6-0.3,0.6-0.6C48.4,48.2,48.2,47.9,47.8,47.9 M47.8,49.5H47
			v-1.9h0.7c0.6,0,1,0.4,1,0.9S48.4,49.5,47.8,49.5 M49.7,49.5c-0.2,0-0.4-0.1-0.6-0.1V49c0.1,0.1,0.3,0.2,0.6,0.2
			c0.2,0,0.3-0.1,0.3-0.2c0-0.1-0.1-0.2-0.2-0.3c-0.4-0.2-0.6-0.4-0.6-0.6c0-0.4,0.3-0.5,0.6-0.5c0.1,0,0.3,0,0.5,0.1V48
			c-0.1-0.1-0.3-0.1-0.5-0.1s-0.3,0.1-0.3,0.2c0,0.1,0.1,0.2,0.5,0.4c0.3,0.1,0.4,0.4,0.4,0.5C50.3,49.4,49.9,49.5,49.7,49.5
			 M28.4,31.5h-0.4c0.1-0.6,0.4-1.2,0.7-1.7h-0.9l0.1-0.3h1.4v0.1C28.8,30.2,28.6,30.9,28.4,31.5 M29.4,24c0.6,0.4,1.2-0.1,1.5,0.5
			C30.2,24.2,29.8,24.7,29.4,24 M30.7,25.7c0.6,0.4,1.2-0.1,1.5,0.5C31.5,26,31,26.4,30.7,25.7 M29.7,24.4c0.6,0.4,1.2-0.1,1.5,0.5
			C30.5,24.7,30.2,25.1,29.7,24.4 M30.1,24.8c0.6,0.4,1.2-0.1,1.5,0.5C30.9,25.1,30.4,25.5,30.1,24.8 M30.4,25.3
			c0.6,0.4,1.2-0.1,1.5,0.5C31.2,25.5,30.7,25.9,30.4,25.3 M32.5,26c0-0.7,0.4-1,0.1-1.5l-1.2-1.7c0-0.1-0.1-0.1-0.1-0.1
			c0.2,0.7-0.4,1-0.1,1.5l-0.6-0.9c-0.1-0.1-0.1-0.1-0.1,0s-0.1,0.1-0.1,0.1l4.4,6.1c0.1,0,0.1,0,0.2-0.1L32.5,26"/>
		<path style="fill:#A06F29;" d="M43,24c-0.6,0.4-1.2-0.1-1.5,0.5C42.2,24.2,42.6,24.7,43,24 M41.8,25.7c-0.6,0.4-1.2-0.1-1.5,0.5
			C41,26,41.4,26.4,41.8,25.7 M42.7,24.4c-0.6,0.4-1.2-0.1-1.5,0.5C41.9,24.7,42.3,25.1,42.7,24.4 M42.4,24.8
			c-0.6,0.4-1.2-0.1-1.5,0.5C41.6,25.1,42,25.5,42.4,24.8 M42.1,25.3c-0.6,0.4-1.2-0.1-1.5,0.5C41.3,25.5,41.7,25.9,42.1,25.3
			 M39.9,26c0-0.7-0.4-1-0.1-1.5l1.2-1.7c0-0.1,0.1-0.1,0.1-0.1c-0.2,0.7,0.4,1,0.1,1.5l0.6-0.9c0.1-0.1,0.1-0.1,0.1,0
			c0.1,0.1,0.1,0.1,0.1,0.1l-4.4,6.1c-0.1,0-0.1,0-0.2-0.1L39.9,26 M36.6,30.9c0,0.1-0.1,0.3-0.4,0.3c-0.1,0-0.3-0.1-0.3-0.3
			c0-0.2,0.1-0.3,0.3-0.3C36.4,30.5,36.6,30.7,36.6,30.9 M33,31c0,0.1-0.1,0.2-0.2,0.2c-0.1,0-0.2-0.1-0.2-0.2s0.1-0.2,0.2-0.2
			C32.9,30.8,33,30.9,33,31 M39.9,31c0,0.1-0.1,0.2-0.2,0.2s-0.2-0.1-0.2-0.2s0.1-0.2,0.2-0.2S39.9,30.9,39.9,31 M39.6,31.4
			c-0.2,0-0.4-0.2-0.4-0.4c0-0.2,0.2-0.4,0.4-0.4c0.2,0,0.3,0.1,0.4,0.3c0,0,0,0,0,0C40,31.2,39.8,31.4,39.6,31.4 M36.2,31.4
			c-0.3,0-0.5-0.2-0.5-0.5s0.2-0.5,0.5-0.5s0.5,0.2,0.5,0.5S36.5,31.4,36.2,31.4 M32.8,31.4c-0.2,0-0.4-0.2-0.4-0.4
			c0-0.2,0.2-0.4,0.4-0.4c0.2,0,0.3,0.1,0.4,0.3c0,0,0,0,0,0C33.2,31.2,33,31.4,32.8,31.4 M36.2,30.2c-2.4,0-4.4,0.3-4.8,0.6
			c0.2,0.4,0.4,0.8,0.6,1.2c0.1-0.3,2.2-0.4,4.2-0.4c1.9,0,4,0.2,4.2,0.4c0.2-0.4,0.4-0.8,0.6-1.2C40.7,30.4,38.6,30.2,36.2,30.2"/>
		<path style="fill:#A06F29;" d="M41.2,30.6c0.7-1.3,1.4-2.3,1.4-2.3c-0.8-0.1-0.9,0.8-1.2,0.8c-0.1,0-0.1-0.1-0.1-0.3
			c-0.1-0.3-0.3-0.4-0.6-0.4c-0.6,0.1-0.3,0.8-0.3,0.8c0-0.1,0.4-0.3,0.6-0.1c0.3,0.4-0.1,1-1.1,0.9c-0.8-0.1-0.7-0.5-0.7-0.8l0,0
			c0.1-0.1,0.3-0.2,0.3-0.4c0-0.2-0.2-0.4-0.4-0.4c-0.2,0-0.4,0.2-0.4,0.4c0,0.2,0.1,0.3,0.2,0.4l0,0c-0.1,0.6-2,1-2-0.5
			c0-0.5,0.6-0.8,1.1-0.4c0.2-0.4-0.1-0.9-0.5-0.9s-0.6,0.3-0.7,0.1c-0.1-0.1,0.1-0.4,0.1-0.6c-0.1-0.4-0.6-0.9-0.6-0.9
			s-0.5,0.4-0.6,0.9c0,0.1,0.2,0.5,0.1,0.6c-0.1,0.1-0.3-0.1-0.7-0.1c-0.5,0.1-0.8,0.5-0.5,0.9c0.4-0.4,1-0.1,1.1,0.4
			c0.1,1.5-1.9,1.2-2,0.5l0,0c0.1-0.1,0.2-0.2,0.2-0.4c0-0.2-0.1-0.4-0.4-0.4c-0.2,0-0.4,0.1-0.4,0.4c0,0.2,0.1,0.4,0.3,0.4l0,0
			c0,0.3,0.1,0.6-0.7,0.8c-1,0.2-1.4-0.4-1.1-0.9c0.1-0.3,0.6-0.1,0.6,0.1c0,0,0.4-0.6-0.3-0.8c-0.3-0.1-0.6,0.1-0.6,0.4
			C31,28.9,31,29.1,31,29.1c-0.2,0-0.4-0.9-1.2-0.8c0,0,0.7,1,1.4,2.3c0.4-0.4,2.6-0.6,5-0.6S40.8,30.2,41.2,30.6 M32.3,32.2
			c0,0.1,1.2,0.3,2.8,0.4l0.5-0.7C33.7,31.8,32.3,32,32.3,32.2 M40.2,32.2c0-0.1-1.4-0.4-3.3-0.4l0.5,0.7
			C39,32.5,40.2,32.3,40.2,32.2 M36.2,31.9L36.2,31.9l-0.5,0.6h0.5h0.5L36.2,31.9z"/>
		<path style="fill:#A06F29;" d="M33.1,35.9l3-4.1h-0.3l-2.5,3.4l-0.8-0.1l-0.8,2.5L33.1,35.9 M32.3,37.4l1.9-1.2l-0.4-0.9
			L32.3,37.4z M39.4,35.9l1.2,1.7l-0.7-2.5l-0.8,0.1l-2.5-3.4h-0.3L39.4,35.9 M38.4,36.3l1.9,1.2l-1.5-2.1L38.4,36.3z M43.4,29.8
			c-0.3,0-0.4,0.2-0.4,0.4c0,0.2,0.1,0.3,0.4,0.3s0.3-0.1,0.4-0.1v-0.1C43.8,29.9,43.6,29.8,43.4,29.8 M43.2,31.7L43,31.5
			c0.3-0.1,0.6-0.3,0.7-0.7c-0.1,0.1-0.2,0.1-0.4,0.1c-0.4,0-0.6-0.2-0.6-0.6s0.3-0.6,0.6-0.6c0.4,0,0.7,0.3,0.7,0.8
			C44.2,31,43.7,31.4,43.2,31.7 M45.5,29.8c-0.2,0-0.4,0.2-0.4,0.4c0,0.2,0.1,0.3,0.4,0.3c0.2,0,0.3-0.1,0.4-0.1v-0.1
			C45.9,30,45.8,29.8,45.5,29.8C45.6,29.8,45.5,29.8,45.5,29.8 M45.3,31.7l-0.2-0.2c0.3-0.1,0.6-0.3,0.7-0.7
			c-0.1,0.1-0.2,0.1-0.4,0.1c-0.4,0-0.6-0.2-0.6-0.6s0.3-0.6,0.6-0.6c0.4,0,0.7,0.3,0.7,0.8C46.2,31,45.8,31.4,45.3,31.7 M26.5,31.2
			v-1.3L26,30.1l-0.1-0.3l0.6-0.3h0.3v1.7C26.8,31.2,26.5,31.2,26.5,31.2z"/>
	</g>
</g>
</svg>
