<?xml version="1.0" encoding="utf-8"?>
<svg version="1.1" id="Layer_1" xmlns="http://www.w3.org/2000/svg" xmlns:xlink="http://www.w3.org/1999/xlink" x="0px" y="0px"
	width="100px" height="100px" viewBox="0 0 66.7 66.7" style="enable-background:new 0 0 66.7 66.7;" xml:space="preserve">
<g>
	<circle style="fill:#E8E8E8;" cx="33.3" cy="33.3" r="33.3"/>
	<circle style="fill:#FFFFFF;" cx="33.3" cy="33.3" r="32.7"/>
	<path style="fill:#005458;" d="M12.4,24.5v0.3c0,0.1-0.1,0.1-0.1,0.2c0.1,0.1,0.1,0.2,0.2,0.3s0.1,0.3,0.1,0.5s0,0.4-0.1,0.5
		s-0.1,0.3-0.2,0.3s-0.2,0.1-0.3,0.1c-0.1,0-0.3,0.1-0.4,0.1h-0.9l-0.1-0.1l0,0v-3.1v-0.1h0.8h0.4c0.1,0,0.3,0.1,0.3,0.1
		c0.1,0.1,0.2,0.2,0.3,0.3C12.4,24,12.4,24.5,12.4,24.5z M11.2,24.7h0.3c0.1,0,0.1,0,0.2-0.1c0.1,0,0.1-0.1,0.1-0.2
		c0-0.1,0-0.1-0.1-0.2c-0.1,0-0.1-0.1-0.3-0.1h-0.2C11.2,24.2,11.2,24.7,11.2,24.7z M11.4,26.3h0.2c0.1,0,0.1-0.1,0.1-0.1l0.1-0.1
		c0-0.1,0.1-0.1,0.1-0.2c0-0.1-0.1-0.2-0.1-0.3c-0.1-0.1-0.2-0.1-0.3-0.1h-0.3v0.9C11.2,26.3,11.4,26.3,11.4,26.3z M14,23.7
		C14,23.7,14,23.6,14,23.7h0.7l0.9,3.2c0,0,0,0.1-0.1,0.1h-0.5v-0.1l-0.3-0.7H14l-0.2,0.7v0.1h-0.5c0,0-0.1,0-0.1-0.1
		C13.1,26.9,14,23.7,14,23.7z M14.5,25.6l-0.2-0.7l-0.2,0.7H14.5z M18.1,25.6c-0.1,0.1-0.2,0.3-0.3,0.3l0.4,0.9v0.1h-0.6l-0.4-0.9
		h-0.3v0.8c0,0,0,0.1-0.1,0.1h-0.5v-0.1v-3.1h1c0.3,0,0.5,0.1,0.7,0.2c0.2,0.2,0.3,0.4,0.3,0.7v0.6v0.3
		C18.1,25.5,18.1,25.5,18.1,25.6z M17.5,24.7v-0.2c0,0-0.1-0.1-0.1-0.1c-0.1,0-0.1-0.1-0.1-0.1h-0.2H17v1h0.1h0.2
		c0.1,0,0.1,0,0.1-0.1c0.1,0,0.1-0.1,0.1-0.1c0-0.1,0.1-0.1,0.1-0.2L17.5,24.7z M10.5,42.8V28.5c0-0.1,0.1-0.3,0.2-0.3h7.6
		c0.1,0,0.1,0.1,0.1,0.3v2.4c0,0.1,0,0.2-0.1,0.2h-4.9v3.1h3.8c0.1,0,0.1,0.1,0.1,0.2v2.5c0,0.1,0,0.2-0.1,0.2h-3.8v3.3h4.9
		c0.1,0,0.1,0.1,0.1,0.2v2.4c0,0.1,0,0.2-0.1,0.2h-7.6C10.6,43,10.5,43,10.5,42.8C10.5,42.8,10.5,42.8,10.5,42.8z M25.3,28.5v11.7
		h4.9c0.1,0,0.1,0.1,0.1,0.2v2.4c0,0.1,0,0.2-0.1,0.2h-7.6c-0.1,0-0.2-0.1-0.2-0.2V28.5c0-0.1,0.1-0.3,0.2-0.3h2.5
		C25.2,28.2,25.3,28.3,25.3,28.5C25.3,28.4,25.3,28.5,25.3,28.5z M41.9,32.1c0,0.5,0,0.8-0.1,1.2c-0.1,0.4-0.2,0.7-0.3,1
		c0.4,0.4,0.7,0.9,0.9,1.6c0.2,0.7,0.3,1.4,0.3,2.3c0,1-0.1,1.8-0.3,2.5s-0.5,1.2-1,1.5c-0.5,0.3-0.9,0.5-1.5,0.7
		C39.2,43,38.6,43,38,43h-4.4c-0.1,0-0.2-0.1-0.2-0.2V28.5c0-0.1,0.1-0.3,0.2-0.3h3.6c0.6,0,1.2,0.1,1.8,0.1
		c0.6,0.1,1.1,0.3,1.5,0.5c0.5,0.3,0.9,0.8,1.1,1.3C41.8,30.8,41.9,31.4,41.9,32.1z M36.4,33.2h1.4c0.3,0,0.6-0.1,0.8-0.2
		s0.3-0.4,0.3-0.8c0-0.4-0.1-0.7-0.4-0.8s-0.7-0.3-1.1-0.3h-0.9V33.2L36.4,33.2z M37.3,40.1c0.3,0,0.6,0,0.9-0.1
		c0.3-0.1,0.5-0.2,0.7-0.3c0.2-0.2,0.4-0.4,0.5-0.6c0.1-0.3,0.2-0.5,0.2-0.9c0-0.5-0.2-1-0.5-1.4s-0.8-0.6-1.4-0.6h-1.4v3.9
		C36.3,40.1,37.3,40.1,37.3,40.1z M49.1,28.3c0-0.1,0.1-0.1,0.1-0.1h2.8c0.1,0,0.1,0.1,0.1,0.1l3.9,14.4c0,0.1-0.1,0.3-0.2,0.3h-2.5
		c-0.1,0-0.1-0.1-0.1-0.1l-0.9-3.1h-3.3l-0.9,3.1c0,0.1-0.1,0.1-0.1,0.1h-2.6c-0.1,0-0.2-0.1-0.2-0.3L49.1,28.3L49.1,28.3L49.1,28.3
		z M51.6,36.9l-1-3.4l-0.9,3.4H51.6z"/>
</g>
</svg>
