<svg xmlns="http://www.w3.org/2000/svg" viewBox="0 0 400 400" xmlns:v="https://vecta.io/nano"><path d="M58.58 159a.71.71 0 0 1-.71.72h-11a.71.71 0 0 1-.72-.72v-11a.72.72 0 0 1 .72-.72h11a.72.72 0 0 1 .71.72zm-12.39 12.39a.7.7 0 0 1-.71.7h-11a.72.72 0 0 1-.72-.7v-11a.72.72 0 0 1 .72-.7h11a.7.7 0 0 1 .71.7z" fill="#e5007e"/><path d="M25.63 177.59a.7.7 0 0 1-.7.7h-11a.71.71 0 0 1-.71-.7v-11a.71.71 0 0 1 .71-.7h11a.7.7 0 0 1 .7.7zM38 190a.71.71 0 0 1-.7.72h-11a.72.72 0 0 1-.7-.72v-11a.72.72 0 0 1 .7-.7h11a.71.71 0 0 1 .7.7z" fill="#009ee2"/><path d="M54.15 190a.72.72 0 0 1-.7.72h-11a.73.73 0 0 1-.71-.72v-11a.72.72 0 0 1 .71-.7h11a.72.72 0 0 1 .7.7zm12.39-12.41a.71.71 0 0 1-.71.7h-11a.71.71 0 0 1-.72-.7v-11a.71.71 0 0 1 .72-.7h11a.71.71 0 0 1 .71.7z" fill="#ffec00"/><path d="M100.77 206.39h-3.34q-.38-4.72-3.68-6.93-3.3-2.21-10.44-2.24c-8.1 0-12.15 2.49-12.15 7.42q0 5.33 7.49 6.34l11.86 1.61c7.8 1.06 11.72 4.46 11.72 10.17q0 11.14-17.84 11.13-17.45 0-18.18-12.81h3.35c.34 2.91 1.2 5.05 2.62 6.41Q75.82 231 85.29 231q13.6 0 13.6-8.22c0-3.82-2.5-6.09-7.49-6.76l-13.1-1.74q-10.48-1.38-10.48-9.4a8.85 8.85 0 0 1 3.05-6.88q4.08-3.73 12.59-3.72 16.45.03 17.31 12.11zm4.89 7.72a18.88 18.88 0 0 1 5.53-13.82q5.89-6 15.49-6 9.6 0 15.5 6a20 20 0 0 1 0 27.65q-5.89 5.95-15.5 6-9.61.05-15.49-6a18.89 18.89 0 0 1-5.53-13.83zm3.34 0a16.38 16.38 0 0 0 4.44 11.64c3.25 3.48 7.66 5.23 13.24 5.23s10-1.75 13.24-5.23a17.49 17.49 0 0 0 0-23.28c-3.25-3.49-7.66-5.24-13.24-5.24s-10 1.75-13.24 5.24a16.41 16.41 0 0 0-4.44 11.64zm48.6 18.62V198.4h-8.73v-2.91h8.73v-5.6c0-3.21.6-5.54 1.82-7q2.17-2.53 7.63-2.53c1 0 2.93.14 5.74.42v2.91a30.68 30.68 0 0 0-5.3-.42q-6.55 0-6.55 5.6v6.62h10.76v2.91h-10.75v34.33zm15.4-18.62a18.91 18.91 0 0 1 5.53-13.82q5.9-6 15.5-6 9.6 0 15.5 6a20.06 20.06 0 0 1 0 27.65q-5.91 5.95-15.5 6-9.59.05-15.5-6a18.93 18.93 0 0 1-5.53-13.83zm3.35 0a16.38 16.38 0 0 0 4.44 11.64q4.87 5.22 13.25 5.23 8.38.01 13.24-5.23a17.49 17.49 0 0 0 0-23.28q-4.88-5.23-13.24-5.24-8.36-.01-13.25 5.24a16.4 16.4 0 0 0-4.42 11.64zm44.98 18.62v-52h3.34v52zm9.61-18.62a18.92 18.92 0 0 1 5.53-13.82q5.89-6 15.5-6 9.61 0 15.5 6a20.06 20.06 0 0 1 0 27.65q-5.9 5.95-15.5 6-9.6.05-15.5-6a18.93 18.93 0 0 1-5.53-13.83zm3.35 0a16.34 16.34 0 0 0 4.44 11.64Q243.59 231 252 231q8.41 0 13.24-5.23a17.52 17.52 0 0 0 0-23.28q-4.88-5.23-13.24-5.24-8.36-.01-13.24 5.24a16.37 16.37 0 0 0-4.47 11.62zm80.39-11.05v-7.57H318v35.41q0 17.84-20.37 17.84c-6 0-10.47-1-13.53-2.83q-4.86-3-5.74-9.68h3.34c.88 6.4 6.18 9.61 15.93 9.61q17 0 17-14.77v-7.71h-.15q-4.73 9-17.45 8.94-10.2 0-15.58-5.89c-3.1-3.4-4.65-7.82-4.65-13.32a18.21 18.21 0 0 1 4.8-13c3.64-3.83 8.8-5.76 15.5-5.76q12.87 0 17.38 8.65zm-17.53-5.84a18.08 18.08 0 0 0-11.79 3.78q-5.17 4.3-5.17 11.94 0 7.93 4.51 12.19 4.51 4.26 12.81 4.25 7.64 0 12.22-4 5-4.37 5-12.52 0-7.35-4.66-11.48-4.66-4.13-12.92-4.16zm42.78 35.51l-18.85-37.24h3.78L341.6 229l15.4-33.51h3.79l-20.52 43.78a15.51 15.51 0 0 1-3.35 5 9.49 9.49 0 0 1-6.25 1.88H326v-2.95h4c2.14 0 3.66-.39 4.55-1.16s2.07-2.61 3.54-5.54z" fill="#1d1d1b"/><path d="M171,244.48a1.68,1.68,0,0,1-1.76,1.6H125.49a1.6,1.6,0,1,1,0-3.19H169.2a1.69,1.69,0,0,1,1.76,1.6" fill="#009ee2"/><path d="M220.65,244.48a1.68,1.68,0,0,1-1.76,1.6H175.18a1.6,1.6,0,1,1,0-3.19h43.71a1.69,1.69,0,0,1,1.76,1.6" fill="#e5007e"/><path d="M270.35,244.48a1.67,1.67,0,0,1-1.75,1.6H224.87a1.6,1.6,0,1,1,0-3.19H268.6a1.68,1.68,0,0,1,1.75,1.6" fill="#ffec00"/><path d="M368.61 188.15a8 8 0 1 1 8-8 8 8 0 0 1-8 8zm0-15.4a7.37 7.37 0 1 0 7.36 7.37 7.37 7.37 0 0 0-7.36-7.37zm-3.16 10.92v-7.12h3.89c1.54 0 2.32.66 2.32 1.94a1.79 1.79 0 0 1-.35 1.06 1.67 1.67 0 0 1-1.06.66h0a1.32 1.32 0 0 1 1 .61 3.3 3.3 0 0 1 .27 1.36c0 .86.12 1.36.25 1.47H371a3.35 3.35 0 0 1-.18-1.46 1.81 1.81 0 0 0-.41-1.3 1.9 1.9 0 0 0-1.32-.38h-2.89v3.13zm.74-6.43v2.63h3.12c1 0 1.53-.47 1.53-1.38s-.48-1.25-1.47-1.25z" fill="#868686"/></svg>