<?xml version="1.0" encoding="utf-8"?>
<svg version="1.1" id="Layer_1" xmlns="http://www.w3.org/2000/svg" xmlns:xlink="http://www.w3.org/1999/xlink" x="0px" y="0px"
	 viewBox="0 0 1280 783.99" style="enable-background:new 0 0 1280 783.99;" xml:space="preserve">
<g id="XMLID_1_">
	<path id="XMLID_2_" style="fill:#010202;" d="M27.7,779.22c0.35-1.05,7.72-41.37,16.47-89.42l16.12-87.67h21.4
		c11.58,0,21.4,0.35,21.4,0.7c0,0.35-2.8,15.77-6.3,34.38c-3.5,18.6-6.3,34.02-6.3,34.38s14.38,0.7,32.28,0.35l32.22-0.35l6.3-34.73
		l6.3-34.73l21.05-0.35c11.57,0,21.05,0,21.05,0.7c0,0.7-30.85,169.03-31.9,175.35l-0.7,2.8h-21.4h-21.4l0.7-2.45
		c1.05-4.55,12.97-70.5,12.97-71.55c0-1.05-6.68-1.4-31.9-1.4h-31.9l-0.7,2.45c-1.05,4.55-12.97,70.85-12.97,71.9
		c0,0.7-7.73,1.05-21.75,1.05C28.75,780.98,27.35,780.98,27.7,779.22z"/>
	<path id="XMLID_3_" style="fill:#010202;" d="M28.75,780.63c-1.4-0.35-1.4-0.35-1.05-1.75c0-0.7,7.38-41.03,16.47-89.08
		l16.12-87.67h21.4h21.75l-0.35,2.45c-3.85,19.3-12.28,66.98-11.93,66.98c0.35,0.35,38.57,0.7,51.55,0L155,671.2l6.3-34.73
		c3.5-18.93,6.3-34.73,6.3-34.73s9.82,0,21.4,0h21.4l-0.35,1.05c0,0.7-7.37,40.33-16.12,88.38c-8.78,48.05-16.13,87.67-16.13,88.38
		l-0.35,1.05h-21.4c-11.93,0-21.4,0-21.4,0s3.15-16.83,6.68-37.17c4.55-25.25,6.68-37.17,6.3-37.53c-0.7-0.7-63.47-1.05-63.47-0.35
		c0,0.35-2.1,11.92-4.55,25.95c-2.45,14.02-5.6,30.5-6.67,36.83c-1.05,6.3-2.1,11.58-2.45,11.92
		C69.78,780.63,31.2,780.98,28.75,780.63z"/>
	<path id="XMLID_4_" style="fill:#010202;" d="M248.63,783.42c-16.83-2.1-30.15-12.28-34.38-25.95c-1.4-4.9-1.75-14.38,0-19.65
		c3.85-13.68,15.42-24.55,32.98-30.85c12.98-4.55,35.42-8.42,57.5-9.47c4.9-0.35,7.72-0.7,8.08-1.05c0.35-0.35,1.05-2.45,1.75-4.9
		c3.5-14.02-3.85-22.45-18.92-22.45c-11.57,0-20,4.2-25.6,12.98c-1.05,1.75-2.45,3.85-2.8,4.9c-0.35,1.05-1.05,1.75-1.4,1.75
		c-1.75,0-37.18-3.85-37.18-3.85s1.05-2.8,2.8-5.95c9.47-18.93,26.3-29.8,51.55-32.98c7.38-1.05,23.5-1.05,30.5-0.35
		c21.4,2.45,36.48,12.28,41.02,26.65c1.05,3.5,1.4,4.9,1.05,11.58c0,8.42-0.7,12.63-7.02,47c-5.25,28.4-5.6,30.15-5.6,40.33v9.12
		h-20h-20l-0.35-3.5c-0.35-2.45,0-5.95,0.35-10.18c1.05-9.48,1.05-9.48-1.4-5.25c-2.8,4.55-11.23,12.97-15.08,15.43
		C276.35,782.72,261.95,785.2,248.63,783.42z M282.3,758.52c4.2-1.4,7.38-3.5,11.23-7.38c4.2-4.2,7.38-8.78,10.17-14.73
		c1.75-4.2,4.55-13.67,5.25-18.23l0.35-2.1h-3.15c-8.42,0-21.05,2.1-28.4,4.55c-12.27,3.85-18.57,10.18-20.35,19.3
		c-1.4,7.02,1.4,14.02,7.03,17.53C268.97,760.3,276.35,760.65,282.3,758.52z"/>
	<path id="XMLID_7_" style="fill:#010202;" d="M375.57,778.18c0.35-1.05,5.6-30.5,11.93-65.23c6.3-34.73,11.58-63.47,11.93-64.17
		l0.35-1.05h20c17.17,0,20,0,20,0.7c0,0.35-1.05,7.02-2.45,15.07c-1.4,7.73-2.45,14.38-2.45,14.73s1.4-2.45,3.5-5.95
		c4.2-7.38,7.38-12.27,11.23-16.13c6.67-7.03,12.63-9.13,25.95-10.18l3.5-0.35l-0.35,1.75c0,1.05-1.05,9.13-2.1,18.23
		c-1.05,9.12-2.1,16.83-2.1,17.53c-0.35,1.05-0.7,1.05-5.6,1.4c-12.98,0.7-21.75,5.6-29.1,16.13c-7.03,10.17-9.13,17.17-15.08,49.8
		c-1.75,10.53-3.85,21.4-4.55,24.2c-0.7,2.8-1.05,5.6-1.05,5.6s-9.82,0.35-22.1,0.35h-22.1L375.57,778.18z"/>
	<path id="XMLID_8_" style="fill:#010202;" d="M519.38,782.72c-8.77-1.4-15.08-4.55-21.4-10.52
		c-10.88-10.18-15.77-24.55-15.77-44.18c0-16.83,3.5-31.55,10.88-46.3c13.68-27.35,32.28-39.27,58.23-37.17
		c9.13,0.7,15.78,3.5,21.05,8.78c3.15,3.15,6.3,8.78,8.08,13.32c0.7,1.75,0.7,2.1,1.05,1.05c0.35-0.7,3.15-15.77,6.3-33.67
		l5.95-32.63h21.05h21.05l-0.35,1.75c-0.35,1.05-7.72,41.03-16.47,89.08l-16.13,87.32h-19.65c-10.88,0-19.65,0-19.65,0
		s0.7-4.55,1.75-10.17c1.05-5.25,1.75-9.83,1.75-10.18c0,0-0.7,0.7-1.4,1.75c-6.67,9.82-16.83,17.53-27,20.35
		C534.1,783.42,524.98,783.78,519.38,782.72z M549.17,755.72c4.2-1.05,7.72-3.15,11.23-6.3c6.67-5.95,9.82-15.08,13.33-34.73
		c2.45-14.73,2.8-19.65,2.1-24.2c-1.05-7.72-5.25-13.67-11.23-16.83c-2.8-1.4-3.85-1.75-7.38-2.1c-7.72-0.35-13.67,2.45-18.22,9.12
		c-7.72,10.88-13.33,34.73-12.63,53.65c0.35,5.95,0.35,7.72,1.4,10.52c1.4,3.85,2.8,5.6,5.95,8.08
		C537.95,756.07,543.2,757.13,549.17,755.72z"/>
	<path id="XMLID_11_" style="fill:#010202;" d="M666.65,779.92c0-0.35-20.7-128-21.05-131.15l-0.35-1.4H667
		c20.35,0,21.75,0,21.75,1.05c0,0.35,2.8,19.3,5.6,41.37c3.15,22.1,5.6,40.33,5.6,40.33s8.08-18.57,17.53-41.37l17.17-41.38h19.3
		h19.3l0.35,1.05c0,0.7,2.1,18.58,4.2,40.33c2.1,21.4,4.2,39.63,4.2,40.33s0.35,1.05,0.7,0.7s9.13-18.93,20-41.38l19.65-41.02h16.13
		h16.13l-6.3,13.32c-3.5,7.38-18.23,37.17-32.98,66.63l-26.65,53.3h-18.92h-18.93l-0.35-1.05c-0.35-1.4-10.17-83.1-10.17-84.17
		c0-0.35,0-0.35-0.35,0s-8.78,19.65-18.58,43.13l-18.22,42.42h-18.58C675.08,780.63,666.65,780.28,666.65,779.92z"/>
	<path id="XMLID_12_" style="fill:#010202;" d="M886.52,783.78c-12.28-1.75-20.35-5.6-27.7-12.98c-6.68-6.68-9.83-15.43-9.13-25.25
		c1.05-20,16.13-34.38,43.83-41.38c12.62-3.15,39.27-6.67,51.55-6.67c3.15,0,3.5,0,3.85-1.4c2.45-4.55,2.8-12.62,1.4-16.83
		c-1.4-3.5-5.6-7.38-10.17-8.78c-4.2-1.4-11.92-1.4-16.83-0.35c-8.42,2.1-14.73,7.02-18.57,14.73c-1.05,2.45-2.1,4.2-2.1,4.2
		l-37.88-3.85c-0.35-0.35,3.15-7.73,5.95-11.92c8.08-12.28,20.35-21.05,36.13-24.9c17.88-4.55,41.73-4.55,57.15,0.35
		c15.07,4.9,25.25,14.38,28.05,27.35c1.75,7.38,0.7,14.38-7.38,58.58c-4.55,25.25-5.25,29.8-4.9,38.92v7.03h-20
		c-17.88,0-20,0-20.35-0.7c-0.7-1.4-0.35-9.13,0.35-15.08c0.35-3.15,0.7-5.95,0.7-6.3c0-0.35-1.05,1.05-2.1,3.15
		c-2.8,4.9-10.53,12.63-15.08,15.43c-4.55,2.45-10.52,4.9-16.13,5.95C902.68,783.78,889.7,784.12,886.52,783.78z M918.1,758.52
		c7.72-2.45,15.78-9.47,20.7-18.92c2.8-5.6,5.6-14.38,6.67-21.75l0.35-2.1h-2.8c-8.08,0-22.1,2.1-29.45,4.55
		c-9.48,3.15-15.08,7.72-18.23,14.02c-1.4,3.15-1.75,3.85-1.75,8.42c0,5.25,1.05,8.08,3.85,11.22
		C902.3,759.6,909.67,761,918.1,758.52z"/>
	<path id="XMLID_15_" style="fill:#010202;" d="M1012.07,778.52c0.35-1.05,5.6-30.85,12.28-66.28l11.92-64.52h20.35
		c11.22,0,20.35,0,20.35,0c0,0.35-1.05,6.68-2.45,14.73c-1.4,7.72-2.45,14.73-2.45,15.08c0,0.35,1.4-1.75,2.8-4.55
		c4.2-7.72,7.38-12.62,12.27-17.17c4.55-4.55,8.78-7.02,13.68-8.42c3.15-0.7,14.38-2.1,14.73-1.4c0.35,0.35-3.15,32.97-3.85,36.47
		l-0.35,1.75l-5.6,0.35c-6.3,0.35-10.53,1.4-15.08,3.5c-8.42,4.2-16.82,14.73-21.05,26.65c-2.8,7.72-4.55,16.83-12.63,61.37
		l-0.7,4.55h-22.1h-22.45L1012.07,778.52z"/>
	<path id="XMLID_16_" style="fill:#010202;" d="M1174.8,783.78c-9.82-1.05-17.53-3.15-25.25-7.38c-20-10.52-31.55-29.8-31.55-54
		c0-22.1,8.78-42.42,25.6-58.58c13.68-13.32,30.15-19.3,51.55-19.3c20.7,0,35.07,5.25,46.3,17.53c8.78,9.13,13.68,20.35,15.43,33.32
		c0.7,4.55,0.35,17.17-0.35,22.8l-0.35,2.45h-47.7h-47.7l-0.35,4.55c-0.35,5.95,0,12.28,1.4,16.13c3.5,10.17,14.02,16.47,26.3,15.42
		c10.88-1.05,18.93-6.67,24.55-17.17l2.1-3.85l17.53,2.8c9.83,1.4,17.53,2.8,17.88,2.8c0.35,0.35-3.5,8.08-6.68,12.97
		c-2.1,3.15-5.25,7.03-8.42,10.18c-10.53,10.17-22.1,15.77-36.83,18.57C1193.72,783.78,1178.65,784.12,1174.8,783.78z
		 M1217.57,697.53c0.7-2.45,0.35-11.58-0.35-14.38c-2.45-8.78-11.22-14.38-21.75-14.38c-8.08,0-14.03,2.1-19.3,7.02
		c-4.9,4.55-8.42,10.88-11.22,20l-0.7,2.8h26.65h26.65L1217.57,697.53z"/>
	<path id="XMLID_19_" style="fill:#E73137;" d="M448.88,313.52c-0.35,11.58-4.55,31.9,3.5,69.43c0,0,24.55,180.25,207.95,183.75
		c52.95-3.5,75.05-13.67,102.4-27C864.78,489.9,881.6,378.02,881.6,378.02h-96.1c-55.4,125.2-163.42,83.1-163.42,83.1l60.67-285.1
		c116.42,3.15,120.98,112.92,120.98,112.92h97.5c0,0,7.03-115.38-105.55-183.75c-23.15-14.02-61.03-23.85-98.2-24.9
		C697.5,80.67,489.9,67.7,448.88,313.52"/>
	<polyline id="XMLID_20_" style="fill:#E73137;" points="1280,111.52 1261.07,200.25 1097.65,200.25 1078.7,289.33 1242.47,289.33 
		1223.55,378.05 1059.78,378.05 1041.18,466.78 1204.95,466.78 1186.03,555.15 856.03,555.15 950,111.52 1280,111.52 	"/>
	<polyline id="XMLID_21_" style="fill:#E73137;" points="241.98,556.2 188.68,272.85 0,556.2 241.98,556.2 	"/>
	<polyline id="XMLID_22_" style="fill:#E73137;" points="473.07,556.2 292.82,556.2 229.35,211.83 370.33,0 473.07,556.2 	"/>
	<path id="XMLID_23_" style="fill:#E73137;" d="M1202.85,533.05c0-12.98,10.52-22.8,23.15-22.8c12.28,0,23.15,9.82,23.15,22.8
		c0,13.32-10.53,22.8-23.15,22.8C1213.72,555.85,1202.85,546.38,1202.85,533.05 M1226.35,552.32c10.18,0,18.58-8.08,18.58-19.3
		c0-10.88-8.08-18.93-18.58-18.93c-10.52,0-18.57,8.08-18.57,18.93C1207.75,543.92,1215.82,552.32,1226.35,552.32z M1221.43,546.38
		h-3.85v-26.3h10.18c6.3,0,9.48,2.45,9.48,7.38c0,4.55-2.8,6.68-6.68,7.38l7.38,11.58h-4.55l-7.03-11.58h-4.55v11.58h-0.38V546.38z
		 M1226.35,531.65c3.5,0,6.3-0.35,6.3-4.2c0-3.15-2.8-3.85-5.6-3.85h-5.6v8.08L1226.35,531.65L1226.35,531.65z"/>
</g>
</svg>
