<svg xmlns="http://www.w3.org/2000/svg" viewBox="0 0 360 106.4"><path d="M105.6 0L64.9 106.4h6.8L112.4 0h-6.8zm114.8 0l-40.7 106.4h6.8L227.2 0h-6.8zm132.8 0l-40.7 106.4h6.8L360 0h-6.8zM145.7 9.5c-16.4 0-27.6 9.9-27.6 24.5 0 5.5 1.9 10.3 5.4 14 3.4 3.5 7.6 5.3 15.1 7.6l8.4 2.6c10 3 14.6 7.9 14.6 15 0 4.7-1.9 8.6-5.8 11.5-3.4 2.6-6.7 3.6-12.9 3.6-8.8 0-15.5-2.3-22.6-7.4l-4.9 8.8c8.8 5.4 17.3 7.9 27.6 7.9 7.8 0 13.4-1.7 19-5.2 7.6-4.9 11.8-12.5 11.8-20.5 0-5.4-2.1-11.1-5.6-15.1s-7.5-6.3-15-8.6l-9.6-3.1C133.8 41.9 130 38.3 130 32c0-8.1 5.9-13.2 16.2-13.2 8.3 0 13.6 2.8 20.5 7.3l4.9-8.1c-7.9-5.6-16.2-8.5-25.9-8.5h0zm95.6 1.7v84.7h11.4V55.4h35.8v40.5h11.6V11.2h-11.6v34.7h-35.8V11.2h-11.4zM0 11.4V96h23.3c12.8 0 16.2-.7 20.9-2.5 8.7-3.4 13.9-12.1 13.9-20.9 0-6.4-2.2-13.2-8.1-17.6-2.6-2-5.4-3.3-9.6-4.2 8.8-3.4 14-9.4 14-18 0-9-6-16.4-15-19.5-4.5-1.5-8.8-1.9-25.8-1.9H0zm11.1 9.4h12.2c4.4 0 6.9.3 9.2.9 5.6 1.4 9.4 6 9.4 12.5 0 2.3-.5 3.8-1.3 5.7-2.4 5.5-7.6 7.2-14.6 7.2H11V20.8zm0 35.7h15.2c4.2 0 7.6.4 9.9.9 5.8 1.2 10 7 10 14.3 0 10-4.8 14.8-16.8 14.8H11.1v-30z" fill-rule="evenodd" fill="#231f20"/></svg>