<?xml version="1.0" encoding="utf-8"?>
<svg version="1.1" id="Layer_1" xmlns="http://www.w3.org/2000/svg" xmlns:xlink="http://www.w3.org/1999/xlink" x="0px" y="0px"
	width="100px" height="100px" viewBox="0 0 100 100" style="enable-background:new 0 0 100 100;" xml:space="preserve">
<g>
	<path style="fill:#E8E8E8;" d="M50,0c27.62,0,50,22.38,50,50s-22.38,50-50,50S0,77.62,0,50S22.38,0,50,0"/>
	<path style="fill:#FFFFFF;" d="M49.98,0.98C77.03,0.98,99,22.92,99,50S77.06,99.02,49.98,99.02S1,77.02,1,49.97
		S22.94,0.98,49.98,0.98"/>
	<g>
		<path style="fill:#3C4052;" d="M9.84,47.52h-1.4v-1.31h4.2v1.31h-1.4v6.26h-1.4V47.52z"/>
		<path style="fill:#3C4052;" d="M14.47,46.21h1.4v3.08h2.71v-3.08h1.4v7.57h-1.4V50.6h-2.71v3.17h-1.4V46.21z"/>
		<path style="fill:#3C4052;" d="M22.39,46.21h4.08v1.31h-2.68v1.84h2.56v1.31h-2.56v1.8h2.68v1.31h-4.08V46.21z"/>
		<path style="fill:#3C4052;" d="M32.47,46.21h1.4v3.27l2.38-3.27h1.65l-2.86,3.71l2.86,3.85h-1.65l-2.38-3.32v3.32h-1.4V46.21z"/>
		<path style="fill:#3C4052;" d="M39.55,46.21h1.4v7.57h-1.4V46.21z"/>
		<path style="fill:#3C4052;" d="M43.55,46.21h1.59l3.15,5.51v-5.51h1.4v7.57h-1.57l-3.17-5.5v5.5h-1.4V46.21z"/>
		<path style="fill:#3C4052;" d="M59.92,49.93c0,0.89-0.24,1.67-0.72,2.34c-0.37,0.51-0.85,0.92-1.43,1.21
			c-0.59,0.3-1.2,0.45-1.85,0.45c-1.12,0-2.08-0.38-2.87-1.15c-0.79-0.76-1.19-1.69-1.19-2.78c0-1.08,0.4-2,1.19-2.77
			c0.79-0.77,1.74-1.16,2.85-1.16c0.81,0,1.56,0.23,2.26,0.68c0.7,0.45,1.17,1.01,1.41,1.68h-1.67c-0.23-0.33-0.52-0.59-0.87-0.77
			c-0.36-0.18-0.74-0.28-1.16-0.28c-0.76,0-1.38,0.26-1.86,0.78c-0.22,0.23-0.4,0.52-0.53,0.86c-0.14,0.34-0.2,0.68-0.2,1
			c0,0.73,0.26,1.35,0.77,1.85c0.52,0.5,1.15,0.75,1.9,0.75c0.48,0,0.92-0.12,1.32-0.37c0.4-0.25,0.7-0.58,0.92-1h-3.17v-1.31H59.92
			z"/>
		<path style="fill:#3C4052;" d="M64.75,48.21c-0.02-0.26-0.11-0.47-0.25-0.62c-0.15-0.15-0.34-0.22-0.58-0.22
			c-0.24,0-0.43,0.07-0.57,0.21c-0.14,0.14-0.21,0.33-0.21,0.56c0,0.25,0.1,0.45,0.29,0.6c0.17,0.14,0.49,0.29,0.97,0.45
			c0.6,0.22,1.04,0.45,1.3,0.7c0.46,0.43,0.69,0.96,0.69,1.59c0,0.67-0.23,1.23-0.69,1.69c-0.51,0.5-1.1,0.75-1.76,0.75
			c-0.38,0-0.75-0.08-1.11-0.25c-0.35-0.17-0.64-0.39-0.87-0.68c-0.3-0.39-0.47-0.85-0.5-1.39h1.47c0.01,0.31,0.11,0.56,0.29,0.74
			c0.19,0.18,0.44,0.28,0.75,0.28c0.29,0,0.54-0.09,0.73-0.27c0.19-0.18,0.29-0.4,0.29-0.68c0-0.27-0.08-0.49-0.23-0.66
			c-0.15-0.17-0.42-0.32-0.8-0.46c-0.55-0.2-0.91-0.35-1.09-0.43c-0.18-0.09-0.34-0.21-0.5-0.37c-0.42-0.41-0.63-0.92-0.63-1.55
			c0-0.59,0.22-1.09,0.65-1.51c0.44-0.42,0.96-0.63,1.57-0.63c0.72,0,1.3,0.27,1.75,0.82c0.3,0.37,0.46,0.81,0.49,1.32H64.75z"/>
		<path style="fill:#3C4052;" d="M73.12,47.52h-1.4v-1.31h4.2v1.31h-1.4v6.26h-1.4V47.52z"/>
		<path style="fill:#3C4052;" d="M83.08,51.02c0,0.83-0.17,1.46-0.52,1.89c-0.53,0.69-1.26,1.03-2.17,1.03c-0.46,0-0.89-0.1-1.3-0.3
			c-0.41-0.2-0.73-0.48-0.98-0.82c-0.29-0.41-0.44-1.01-0.44-1.78v-4.81h1.4v4.81c0,0.47,0.08,0.82,0.24,1.06
			c0.23,0.36,0.59,0.54,1.06,0.54c0.48,0,0.84-0.18,1.07-0.53c0.16-0.23,0.24-0.58,0.24-1.07v-4.81h1.4V51.02z"/>
		<path style="fill:#3C4052;" d="M85.42,46.21h1.59l3.15,5.51v-5.51h1.4v7.57h-1.57l-3.17-5.5v5.5h-1.4V46.21z"/>
	</g>
</g>
</svg>
