<?xml version="1.0" encoding="utf-8"?>
<svg version="1.1" id="Layer_1" xmlns="http://www.w3.org/2000/svg" xmlns:xlink="http://www.w3.org/1999/xlink" x="0px" y="0px"
	width="100px" height="100px" viewBox="0 0 520.04 520.04" style="enable-background:new 0 0 520.04 520.04;" xml:space="preserve">
<g>
	<g>
		<path style="fill:#E8E8E8;" d="M260.02,0C403.6,0,520.04,116.44,520.04,260.02c0,143.58-116.44,260.02-260.02,260.02
			S0,403.6,0,260.02C0,116.44,116.44,0,260.02,0"/>
		<path style="fill:#FFFFFF;" d="M260.02,5.2c140.72,0,254.82,114.1,254.82,254.82s-114.1,254.82-254.82,254.82
			S5.2,400.74,5.2,260.02S119.3,5.2,260.02,5.2"/>
	</g>
	<g>
		<path style="fill:#26358C;" d="M376.3,192.55c-24.81,0-46.38,13.36-58.12,33.21c5.92,10.02,9.35,21.76,9.35,34.16
			c0,12.5-3.44,24.14-9.35,34.16c11.74,19.95,33.4,33.31,58.12,33.31c37.22,0,67.47-30.16,67.47-67.47
			C443.77,222.71,413.52,192.55,376.3,192.55L376.3,192.55z"/>
		<path style="fill:#0068B3;" d="M318.19,225.76c-11.74-19.85-33.4-33.21-58.21-33.21s-46.38,13.36-58.12,33.21
			c5.92,10.02,9.35,21.76,9.35,34.16c0,12.5-3.44,24.14-9.35,34.16c11.74,19.95,33.4,33.31,58.12,33.31
			c24.81,0,46.38-13.36,58.12-33.31c-5.92-10.02-9.35-21.76-9.35-34.16C308.83,247.52,312.27,235.88,318.19,225.76L318.19,225.76z"
			/>
		<path style="fill:#36BCEE;" d="M201.86,225.76c-11.74-19.85-33.4-33.21-58.12-33.21c-37.31,0-67.47,30.16-67.47,67.47
			c0,37.22,30.16,67.47,67.47,67.47c24.81,0,46.38-13.36,58.12-33.31c-5.92-10.02-9.35-21.76-9.35-34.16
			C192.6,247.52,195.94,235.88,201.86,225.76L201.86,225.76z"/>
		<g>
			<path style="fill:#005C9E;" d="M201.86,294.19c5.92-10.02,9.35-21.76,9.35-34.16c0-12.5-3.44-24.14-9.35-34.16
				c-5.92,10.02-9.35,21.76-9.35,34.16C192.6,272.52,195.94,284.17,201.86,294.19z"/>
			<path style="fill:#005C9E;" d="M201.86,294.19L201.86,294.19c-6.11-10.31-9.35-22.14-9.35-34.16c0-12.02,3.24-23.86,9.35-34.16
				l0,0l0,0c6.11,10.31,9.35,22.14,9.35,34.16C211.21,272.05,207.96,283.88,201.86,294.19L201.86,294.19z M201.86,225.86
				c-6.11,10.31-9.35,22.14-9.35,34.16c0,12.02,3.24,23.86,9.35,34.16c6.11-10.31,9.35-22.14,9.35-34.16
				C211.21,248,207.96,236.16,201.86,225.86L201.86,225.86z"/>
		</g>
		<path style="fill:#002F60;" d="M318.19,294.19c5.92-10.02,9.35-21.66,9.35-34.16c0-12.5-3.44-24.14-9.35-34.16
			c-5.92,10.02-9.35,21.76-9.35,34.16C308.83,272.52,312.27,284.17,318.19,294.19L318.19,294.19z"/>
		<path style="fill:#FFFFFF;" d="M169.12,236.45h-19.66v60.12h-13.55v-60.12h-19.18v-12.31h52.39V236.45L169.12,236.45z
			 M352.83,224.14h25.38c9.64,0.1,12.22,0.19,15.65,1.24c7.25,2.19,12.41,8.59,12.41,16.51c0,3.15-0.67,7.06-2.77,9.83
			c-2.29,2.96-5.15,4.49-9.07,5.25c8.02,1.43,14.98,7.92,14.98,19.09c0,8.3-3.72,15.65-12.41,18.8c-4.58,1.62-8.21,1.72-16.41,1.72
			h-27.77V224.14z M366.19,235.21v18.04h4.2l8.21-0.1c3.34,0,6.78-0.1,9.26-1.43c2.86-1.43,4.77-4.2,4.77-7.54
			c0-2.77-1.43-5.54-4.2-7.16c-2.86-1.62-4.29-1.72-14.12-1.81H366.19L366.19,235.21z M366.19,263.46v21.47h12.88
			c8.02,0,10.12,0,13.65-2.48c1.81-1.34,3.24-4.1,3.24-7.54c0-1.62-0.29-3.63-1.34-5.44c-3.24-5.82-10.88-5.92-15.46-5.92
			L366.19,263.46L366.19,263.46L366.19,263.46z M266.94,253.63L259.5,252c-6.49-1.24-13.26-2.48-13.26-8.59
			c0-5.53,6.3-8.78,13.55-8.78c10.88,0,15.65,6.39,18.23,10.12l10.69-8.49c-5.15-6.78-13.17-13.65-28.15-13.65
			c-16.89,0-28.44,8.78-28.44,22.43c0,11.93,8.88,16.32,12.12,17.56c2.19,0.95,4.49,1.43,9.07,2.58l8.68,1.81
			c6.49,1.53,6.68,1.62,8.4,2.19c2.19,0.95,5.44,2.58,5.44,7.16c0,2.48-0.95,6.11-6.11,8.21c-2.58,1.05-5.15,1.24-7.73,1.24
			c-14.41,0-19.95-7.44-21.95-10.4l-11.07,8.3c5.44,8.3,13.26,11.36,17.94,12.79c4.39,1.24,8.88,1.62,12.79,1.62
			c15.27,0,30.54-6.58,30.54-23.09C290.32,259.64,276.67,255.63,266.94,253.63L266.94,253.63z"/>
	</g>
</g>
</svg>
