<?xml version="1.0" encoding="utf-8"?>
<svg version="1.1" id="Layer_1" xmlns="http://www.w3.org/2000/svg" xmlns:xlink="http://www.w3.org/1999/xlink" x="0px" y="0px"
	width="100px" height="100px" viewBox="0 0 590 590" style="enable-background:new 0 0 590 590;" xml:space="preserve">
<g>
	<circle style="fill:#00443D;" cx="295" cy="295" r="295"/>
	<g>
		<path style="fill:#FFFFFF;" d="M447.59,259.14c0,2.61,0.18,4.75,0.36,4.75s3.92-2.14,8.25-4.75l7.96-4.75l20.66,12.23
			c11.34,6.71,20.72,12.29,20.84,12.41c0.3,0.3-2.2,4.93-2.85,5.34c-0.36,0.24-9.02-4.57-19.3-10.63
			c-10.27-6.06-18.94-11.04-19.3-11.04c-0.36,0-9.02,4.99-19.3,11.04c-10.27,6.06-18.94,10.87-19.3,10.63
			c-0.36-0.18-1.19-1.48-1.84-2.79c-1.01-1.96-1.07-2.55-0.42-2.91c0.42-0.24,4.51-2.67,9.08-5.4l8.31-4.93l0.18-7.01l0.18-6.95
			h3.21h3.27V259.14z"/>
		<path style="fill:#FFFFFF;" d="M110.94,299.28c0,8.13,0.06,8.55,1.01,7.6c1.66-1.66,4.69-2.61,8.31-2.61
			c4.57,0.06,7.9,1.6,9.74,4.51c1.37,2.2,1.42,2.85,1.6,14.31l0.18,12.05h-2.97h-3.03v-9.38c0-10.45-0.53-13.18-2.85-15.02
			c-1.31-1.01-2.2-1.19-4.81-1.01c-5.88,0.53-7.18,3.5-7.18,16.63v8.79h-2.97H105v-22.27v-22.27h2.97h2.97V299.28z"/>
		<path style="fill:#FFFFFF;" d="M211.82,291.2c1.72,0.3,4.04,1.01,5.17,1.54c1.96,0.95,2.02,1.13,2.02,4.16
			c0,1.78-0.12,3.21-0.3,3.21c-0.18,0-0.95-0.42-1.66-0.83c-1.66-1.13-7.78-2.73-10.21-2.73c-3.27,0-8.02,1.78-10.33,3.92
			c-6.65,6-6.77,19.47-0.24,25.17c3.21,2.85,5.88,3.74,11.16,3.8c3.8,0,5.52-0.3,8.49-1.54l3.74-1.54l-0.18,3.33L219.3,333
			l-2.97,1.19c-4.16,1.6-13.6,1.66-17.99,0.18c-9.44-3.32-15.02-13.77-13.3-24.94C187.18,295.95,197.98,288.59,211.82,291.2z"/>
		<path style="fill:#FFFFFF;" d="M343.75,314.6c-1.66-6.29-7.24-10.33-14.01-10.27c-4.1,0.06-6.71,0.83-8.85,2.73l-1.54,1.37v-17.81
			h-6.53v44.59l2.85-0.18c2.67-0.18,2.79-0.24,3.09-2.2l0.3-1.96l1.19,1.31c2.14,2.38,4.45,3.21,9.2,3.21
			c6.41,0,10.63-2.49,13.36-7.96C344.1,324.87,344.64,317.86,343.75,314.6z M328.67,330.03c-6.12,0-9.62-3.68-9.62-10.03
			c0-4.22,1.37-7.01,4.51-9.08c1.66-1.19,2.61-1.37,5.46-1.19c5.88,0.42,8.73,3.8,8.73,10.33
			C337.75,326.12,334.19,330.03,328.67,330.03z"/>
		<path style="fill:#FFFFFF;" d="M411.38,309.55c0,20.6,0.06,20.84,3.33,20.84c1.25,0,1.42,0.24,1.42,2.38v2.38h-3.5
			c-2.91,0-3.86-0.24-5.23-1.42l-1.66-1.43l-0.18-20.84l-0.18-20.84h3.03h2.97V309.55z"/>
		<path style="fill:#FFFFFF;" d="M517.06,290.61v17.93l-1.78-1.48c-2.55-2.14-5.52-2.97-10.09-2.67c-5.4,0.3-8.97,2.43-11.52,7.01
			c-1.66,2.97-1.84,3.74-1.84,8.61c0,4.33,0.24,5.82,1.31,7.78c3.74,7.07,13.06,9.92,20.37,6.18c1.31-0.65,2.61-1.72,2.85-2.26
			c0.3-0.71,0.47-0.42,0.71,1.07c0.3,2.02,0.42,2.08,3.15,2.26l2.79,0.18v-44.59H517.06z M515.1,326.41
			c-3.09,4.1-8.61,4.93-12.94,2.02c-5.76-3.8-5.34-14.49,0.65-17.69c2.61-1.42,6.83-1.42,9.5-0.06
			C517.12,313.17,518.61,321.78,515.1,326.41z"/>
		<polygon style="fill:#FFFFFF;" points="98.47,294.17 98.47,297.14 92.23,297.14 86,297.14 86,316.14 86,335.14 82.73,335.14 
			79.47,335.14 79.47,316.14 79.47,297.14 73.23,297.14 67,297.14 67,294.17 67,291.2 82.73,291.2 98.47,291.2 		"/>
		<path style="fill:#FFFFFF;" d="M158.73,305.39c-1.48-0.71-3.8-1.13-6.23-1.13c-9.86,0-15.5,6.83-14.72,17.81
			c0.53,7.48,4.51,11.76,12.35,13.18c4.1,0.77,10.57,0,13.72-1.6c1.48-0.77,1.72-1.25,1.72-3.33c0-2.26-0.12-2.43-1.31-2.02
			c-4.57,1.42-7.54,2.08-9.38,2.08c-5.22,0-9.8-2.79-10.45-6.35l-0.36-1.96l11.16-0.12l11.22-0.18l0.18-2.26
			C167.11,314,163.48,307.53,158.73,305.39z M152.14,317.33h-8.08l0.36-1.66c0.53-2.14,2.2-4.39,3.98-5.28
			c1.96-1.01,6.18-0.95,8.25,0.12c1.9,0.95,3.56,3.62,3.56,5.64C160.22,317.27,159.86,317.33,152.14,317.33z"/>
		<path style="fill:#FFFFFF;" d="M279.8,305.1c1.07,0.42,2.49,1.48,3.15,2.32l1.19,1.54l1.37-1.42c3.27-3.5,10.15-4.39,14.49-1.9
			c4.22,2.38,4.81,4.33,4.99,17.75l0.18,11.76h-2.97h-3.03v-9.38c-0.06-13.77-0.95-16.15-6.17-16.15c-5.7,0-7.01,2.85-7.36,15.85
			l-0.24,9.68h-2.91h-2.91v-10.09c0-10.81-0.53-13.54-2.85-14.78c-1.72-0.89-4.63-0.83-6.59,0.24c-2.91,1.48-3.62,4.39-3.62,15.2
			v9.5l-3.09-0.18l-3.15-0.18l-0.18-15.02l-0.12-14.96h2.97c2.79,0,2.97,0.06,2.97,1.6c0,1.43,0.06,1.48,1.07,0.65
			C270.12,304.32,275.76,303.43,279.8,305.1z"/>
		<path style="fill:#FFFFFF;" d="M375.04,328.31c-5.94,1.84-7.6,2.14-10.75,1.84c-5.4-0.53-8.07-2.38-9.02-6.47l-0.42-1.6h22.86
			l-0.3-4.33c-0.48-6.83-3.33-10.98-8.73-12.83c-3.09-1.01-8.91-0.77-11.64,0.48c-2.97,1.31-6.41,5.11-7.48,8.13
			c-0.48,1.31-0.83,4.33-0.83,6.77c0.06,5.58,1.78,9.5,5.46,12.29c4.45,3.33,12.41,3.98,19.42,1.6c2.73-0.95,2.73-0.95,2.73-3.62
			C376.34,328.07,376.28,327.9,375.04,328.31z M355.56,315.55c0.65-2.32,2.02-4.22,3.68-5.17c0.77-0.42,2.73-0.71,4.45-0.77
			c2.43,0,3.44,0.3,4.87,1.48c0.95,0.83,1.9,2.02,2.08,2.55c0.12,0.53,0.42,1.6,0.65,2.32l0.36,1.37h-16.63L355.56,315.55z"/>
		<path style="fill:#FFFFFF;" d="M400.69,306.94v2.67h-2.49c-3.33,0-5.17,1.01-6.65,3.56c-1.07,1.84-1.25,3.27-1.48,11.99
			l-0.18,9.98h-2.91h-2.91V320v-15.14h2.67c2.61,0,2.67,0.06,2.67,1.9v1.9l1.66-1.6c2.08-1.96,3.92-2.73,7.13-2.73l2.49-0.06V306.94
			z"/>
		<path style="fill:#FFFFFF;" d="M447.59,304.86c-2.91,0-2.97,0.06-2.97,1.84v1.78l-1.9-1.42c-1.07-0.77-2.85-1.72-3.98-2.14
			c-3.56-1.19-8.37-0.83-11.82,0.89c-5.22,2.61-7.84,7.36-7.84,14.19c0,9.56,5.58,15.44,14.55,15.44c4.33-0.06,6.95-0.95,9.68-3.44
			l1.31-1.19v4.33h5.94v-30.28H447.59z M434.83,330.03c-3.68,0-6.59-1.54-8.13-4.39c-0.89-1.6-1.07-2.97-0.95-6.35
			c0.24-4.87,1.37-6.95,4.69-8.61c2.91-1.48,7.01-1.37,9.5,0.3c2.79,1.84,4.1,4.75,4.1,8.91
			C444.03,326.35,440.65,330.03,434.83,330.03z"/>
		<path style="fill:#FFFFFF;" d="M480.25,305.57c1.84,0.95,3.03,2.14,3.98,3.98c1.31,2.49,1.37,3.27,1.37,14.13v11.46h-2.97h-2.97
			v-9.8c0-10.57-0.47-13-3.03-14.78c-1.66-1.13-5.58-1.25-7.6-0.18c-0.83,0.36-2.02,1.66-2.67,2.79c-1.07,1.84-1.25,3.27-1.48,11.99
			l-0.18,9.98h-2.91h-2.91V320v-15.14h2.67c2.43,0,2.67,0.12,2.67,1.48c0,1.72,0.71,1.9,1.84,0.48
			C468.43,304.03,475.86,303.37,480.25,305.57z"/>
		<path style="fill:#FFFFFF;" d="M232.66,314.18c0,11.04,0.53,13.42,3.15,15.02c3.62,2.2,7.66,1.19,9.44-2.38
			c0.89-1.72,1.07-3.74,1.07-12.05v-9.92h2.97h2.97v10.21c0,5.64-0.3,11.28-0.65,12.53c-1.48,5.4-7.3,8.67-14.01,7.9
			c-3.92-0.48-6.06-1.48-8.07-3.92c-2.38-2.79-2.79-5.34-2.79-16.51v-10.21h2.97h2.97V314.18z"/>
	</g>
</g>
</svg>
