<?xml version="1.0" encoding="utf-8"?>
<svg version="1.1" id="Layer_1" xmlns="http://www.w3.org/2000/svg" xmlns:xlink="http://www.w3.org/1999/xlink" x="0px" y="0px"
	 viewBox="0 0 365 145.7" style="enable-background:new 0 0 365 145.7;" xml:space="preserve">
<g>
	<path id="XMLID_9_" style="fill:#ED1C24;" d="M309.1,0.1c-16.5,0-31.4,7.4-41.7,19c-3-3.4-6.4-6.4-10.2-9c-4.4-3-9.4-5.3-14.6-7
		c-5.3-1.7-10.9-2.4-16.6-2.4l0,0c-7.7,0-15.1,1.4-21.8,4.3c-8.7,3.7-16.1,9.5-21.9,16.8c-3.5-4.5-7.7-8.5-12.4-11.7
		c-4.4-3-9.4-5.3-14.6-7c-5.3-1.7-10.9-2.4-16.6-2.4l0,0c-7.7,0-15.1,1.4-21.8,4.3c-10,4.3-18.5,11.4-24.5,20.4
		c-3,4.5-5.4,9.4-7,14.7c-1.5,4.9-2.3,10-2.5,15.3l0,0c0,0.2-0.2,0.4-0.1,0.7c0,0.2-0.2,0.4-0.2,0.7l0,0l0,0l0,0l0,0h0.2
		c0,0.3,0.1,0.5,0.1,0.8C82.5,72.5,70.8,84.1,56,84.1c-15.1,0-27-12.1-27-27.4s11.9-27.3,27-27.3c11.9,0,21.8,7.6,25.4,18.3L79,5.1
		C72,1.8,64.2,0,56,0C25.3,0,0,25.5,0,56.7s25.2,56.8,56,56.8c16.4,0,31.2-7.3,41.4-18.8c3,3.3,6.3,6.2,10,8.7
		c4.4,3,9.4,5.5,14.6,7.1c5.3,1.7,10.9,2.3,16.6,2.3v-0.2l0,0l0,0c7.7,0,15.1-1.3,21.8-4.2c8.7-3.7,16.1-9.4,21.9-16.7
		c3.5,4.5,7.7,8.5,12.4,11.7c4.4,3,9.4,5.5,14.6,7.2c5.3,1.7,10.9,2.3,16.6,2.3v-0.2l0,0l0,0c7.7,0,15.1-1.3,21.8-4.2
		c2.2-1,4.4-1.8,6.5-3l-0.2,40.2h29.5v-93c2-13.3,12.1-23.2,25.7-23.2c15.1,0,26.9,12.1,26.9,27.3c0,15.3-11.9,27.4-27,27.4
		c-11.3,0-20.9-6.8-24.9-16.7c1.7,14,3.3,28.2,4.9,42.2c6.2,2.4,13,3.8,20,3.8c30.7,0,55.9-25.6,55.9-56.8
		C365,25.6,339.8,0.1,309.1,0.1z M165.5,56.8c0,3.9-0.6,7.5-2,10.9c-2.1,5-5.5,9.3-9.8,12.2c-2.2,1.5-4.5,2.7-7,3.5s-5.2,1.3-8,1.3
		l0,0c-3.8,0-7.3-0.8-10.5-2.2c-4.8-2.1-9-5.6-12-10c-1.5-2.2-2.6-4.7-3.4-7.3c-0.8-2.6-1.2-5.4-1.2-8.3l0,0l0,0l0,0l0,0
		c0-3.9,0.7-7.5,2.1-10.9c2.1-5,5.6-9.3,9.9-12.2c2.2-1.5,4.5-2.8,7.1-3.6c2.5-0.8,5.2-1.4,8-1.4l0,0l0,0c3.8,0,7.3,0.9,10.5,2.3
		c4.8,2.1,9,5.7,12,10.1c1.5,2.2,2.5,4.7,3.3,7.3C165.2,51,165.5,53.8,165.5,56.8L165.5,56.8L165.5,56.8z M251.2,67.7
		c-2.1,5-5.7,9.3-10,12.2c-2.2,1.5-4.6,2.7-7.1,3.5s-5.2,1.3-8.1,1.3l0,0c-3.8,0-7.3-0.8-10.5-2.2c-4.8-2.1-9-5.6-12-10
		c-1.5-2.2-2.8-4.7-3.6-7.3c-0.8-2.6-1.4-5.4-1.4-8.3l0,0l0,0l0,0c0-3.9,0.9-7.5,2.3-10.9c2.1-5,5.6-9.3,10-12.2
		c2.2-1.5,4.6-2.8,7.1-3.6s5.2-1.4,8.1-1.4l0,0l0,0c3.8,0,7.3,0.9,10.5,2.3c4.8,2.1,9,5.7,12,10.1c1.5,2.2,2.8,4.7,3.6,7.3
		c0.8,2.6,1.4,5.4,1.4,8.4l0,0l0,0C253.5,60.7,252.6,64.4,251.2,67.7z"/>
</g>
</svg>
