<?xml version="1.0"?>
<svg xmlns="http://www.w3.org/2000/svg" xmlns:xlink="http://www.w3.org/1999/xlink" xmlns:svgjs="http://svgjs.com/svgjs" version="1.1" width="512" height="512" x="0" y="0" viewBox="0 0 512 512" style="enable-background:new 0 0 512 512" xml:space="preserve" class=""><g>
<circle xmlns="http://www.w3.org/2000/svg" style="" cx="256" cy="256" r="256" fill="#f1f1f1" data-original="#ff633e" class=""/>
<path xmlns="http://www.w3.org/2000/svg" style="" d="M512,256c0-22.263-2.847-43.861-8.188-64.454L386.19,72.994c-3.201-3.376-7.727-5.482-12.747-5.482  h-0.267c-9.703,0-17.568,7.866-17.568,17.568v2.971c-49.865,49.671-154.453,72.642-154.453,72.642H191.04h-72.85  c-31.345,0-56.754,25.41-56.754,56.754v30.742c0,15.703,6.381,29.912,16.688,40.186l66.23,66.153v63.558  c0,8.462,3.704,16.056,9.576,21.258l71.187,70.795C235.243,511.358,245.546,512,256,512C397.385,512,512,397.385,512,256z" fill="#f1f1f1" data-original="#ca1e00" class=""/>
<circle xmlns="http://www.w3.org/2000/svg" style="" cx="382.45" cy="232.82" r="41.548" fill="#ffed97" data-original="#ffed97"/>
<path xmlns="http://www.w3.org/2000/svg" style="" d="M424,232.82c0,20.01-14.15,36.72-32.99,40.67c-2.76,0.58-5.63,0.88-8.56,0.88  c-7.03,0-13.65-1.75-19.45-4.83c-2.65-1.4-5.12-3.09-7.39-5.01c-8.99-7.63-14.7-19-14.7-31.71H424z" fill="#ffb84d" data-original="#ffb84d" class=""/>
<polygon xmlns="http://www.w3.org/2000/svg" style="" points="215.55,385.635 198.626,385.635 198.626,348.287 207.769,348.287 " fill="#fff5cb" data-original="#fff5cb" class=""/>
<path xmlns="http://www.w3.org/2000/svg" style="" d="M172.754,446.488L172.754,446.488c15.685,0,28.401-12.715,28.401-28.401V302.61h-56.801v115.477  C144.353,433.772,157.069,446.488,172.754,446.488z" fill="#ffb84d" data-original="#ffb84d" class=""/>
<path xmlns="http://www.w3.org/2000/svg" style="" d="M201.155,160.693H191.04v144.251h10.115c0,0,115.877,25.446,161.845,80.691V80.002  C317.032,135.248,201.155,160.693,201.155,160.693z" fill="#ffffff" data-original="#ffffff"/>
<path xmlns="http://www.w3.org/2000/svg" style="" d="M363,232.82v152.82c-2.3-2.76-4.77-5.45-7.39-8.05c-49.87-49.68-154.46-72.65-154.46-72.65h-10.11  v-72.12L363,232.82L363,232.82z" fill="#fff5cb" data-original="#fff5cb" class=""/>
<path xmlns="http://www.w3.org/2000/svg" style="" d="M201.155,304.944H118.19c-31.345,0-56.754-25.41-56.754-56.754v-30.742  c0-31.345,25.41-56.754,56.754-56.754h82.965V304.944z" fill="#00efd1" data-original="#00efd1" class=""/>
<path xmlns="http://www.w3.org/2000/svg" style="" d="M201.15,232.82v72.12h-82.96c-31.34,0-56.75-25.41-56.75-56.75v-15.37H201.15z" fill="#00ad95" data-original="#00ad95"/>
<path xmlns="http://www.w3.org/2000/svg" style="" d="M373.443,398.125h-0.267c-9.703,0-17.568-7.866-17.568-17.568V85.081  c0-9.703,7.866-17.568,17.568-17.568h0.267c9.703,0,17.568,7.866,17.568,17.568v295.476  C391.012,390.26,383.146,398.125,373.443,398.125z" fill="#00efd1" data-original="#00efd1" class=""/>
<path xmlns="http://www.w3.org/2000/svg" style="" d="M391.01,232.82v147.74c0,9.7-7.86,17.57-17.57,17.57h-0.26c-9.71,0-17.57-7.87-17.57-17.57V232.82  H391.01z" fill="#00ad95" data-original="#00ad95"/>
<g xmlns="http://www.w3.org/2000/svg">
</g>
<g xmlns="http://www.w3.org/2000/svg">
</g>
<g xmlns="http://www.w3.org/2000/svg">
</g>
<g xmlns="http://www.w3.org/2000/svg">
</g>
<g xmlns="http://www.w3.org/2000/svg">
</g>
<g xmlns="http://www.w3.org/2000/svg">
</g>
<g xmlns="http://www.w3.org/2000/svg">
</g>
<g xmlns="http://www.w3.org/2000/svg">
</g>
<g xmlns="http://www.w3.org/2000/svg">
</g>
<g xmlns="http://www.w3.org/2000/svg">
</g>
<g xmlns="http://www.w3.org/2000/svg">
</g>
<g xmlns="http://www.w3.org/2000/svg">
</g>
<g xmlns="http://www.w3.org/2000/svg">
</g>
<g xmlns="http://www.w3.org/2000/svg">
</g>
<g xmlns="http://www.w3.org/2000/svg">
</g>
</g></svg>
