<?xml version="1.0" encoding="utf-8"?>
<svg version="1.1" id="Layer_1" xmlns="http://www.w3.org/2000/svg" xmlns:xlink="http://www.w3.org/1999/xlink" x="0px" y="0px"
	width="100px" height="100px" viewBox="0 0 72.2 72.2" style="enable-background:new 0 0 72.2 72.2;" xml:space="preserve">
<g>
	<circle style="fill:#E8E8E8;" cx="36.1" cy="36.1" r="36.1"/>
	<circle style="fill:#FFFFFF;" cx="36.1" cy="36.1" r="35.4"/>
	<path style="fill:#DB3A41;" d="M16.6,50.4l-0.4,1.4H12v-0.2l0.5-0.4v-4.5L12,46.3v-0.1h4.4l0.1,0.1l-0.3,1.3h-0.2
		c-0.1-0.8-0.4-0.9-1.7-0.9h-0.6v2.1l2-0.1h0.1l-0.2,0.6h-0.1l-1.9-0.1v2.2h0.6c1.1,0,1.6-0.1,2.2-1C16.4,50.4,16.5,50.4,16.6,50.4z
		 M60.2,46.4l-0.5,0.4v5.1l-0.1,0.1h-0.9l-3.2-4.5v3.9l0.7,0.4v0.2h-1.7v-0.2l0.5-0.4v-4.5l-0.6-0.4v-0.2h1.7l3.1,4.3v-3.8l-0.7-0.4
		v-0.1h1.7L60.2,46.4L60.2,46.4z M51.2,49.9c1.8,0,3-0.9,3-2.1c0-1.1-0.9-1.7-2.5-1.7h-2.4v0.2l0.6,0.4v4.5l-0.6,0.4v0.2h2.4v-0.2
		L51,51.3v-1.4C51,49.9,51.1,49.9,51.2,49.9z M51,46.8c0.1-0.1,0.4-0.1,0.7-0.1c0.9,0,1.3,0.4,1.3,1.2c0,1-0.9,1.6-2,1.6V46.8z
		 M48.8,46.4l-0.5,0.4l-1.8,5.1h-1.1l-2-5.1l-0.6-0.4v-0.3h2.4v0.2l-0.6,0.4l1.6,4.1l0,0l1.4-4.1L47,46.4v-0.2h1.7
		C48.7,46.2,48.8,46.4,48.8,46.4z M25.3,47.3c-0.6,0-1.2,0.3-1.5,0.7v-0.6l-0.1-0.1l-1.5,0.3v0.2l0.6,0.4v4.9l-0.6,0.4v0.1h2.4v-0.1
		l-0.7-0.4v-1.4c0.4,0.1,0.6,0.2,1,0.2c1.3,0,2.2-1,2.2-2.5C27.1,48.3,26.3,47.3,25.3,47.3z M24.9,51.4c-0.4,0-0.9-0.2-1.1-0.6v-2.4
		c0.4-0.2,0.6-0.4,0.9-0.4c0.8,0,1.3,0.8,1.3,1.8C26,50.9,25.5,51.4,24.9,51.4z M30.7,48.3h-0.2c-0.1-0.1-0.3-0.1-0.4-0.1
		c-0.4,0-0.6,0.1-0.9,0.4v2.7l0.6,0.4v0.2h-2.2v-0.2l0.5-0.4v-3.1l-0.5-0.4v-0.1l1.5-0.3l0.1,0.1v0.7c0.2-0.5,0.8-0.8,1.3-0.8
		c0.2,0,0.4,0.1,0.6,0.1C31,47.5,30.7,48.3,30.7,48.3z M33.6,51.1c-0.9,0-1.4-0.6-1.6-1.6l2,0.1h0.9l0.1-0.1c0-0.6-0.1-1.2-0.5-1.5
		c-0.4-0.4-0.8-0.6-1.4-0.6c-1.4,0-2.2,1-2.2,2.4s0.9,2.3,2.2,2.3c0.9,0,1.5-0.4,1.8-1.1l-0.2-0.1C34.5,50.9,34.1,51.1,33.6,51.1z
		 M33,47.8c0.5,0,0.9,0.4,0.9,1.2L32,49.1C32.1,48.3,32.4,47.8,33,47.8z M35.9,50.5h0.2c0.4,0.6,0.9,0.9,1.3,0.9
		c0.4,0,0.6-0.2,0.6-0.5c0-0.4-0.2-0.6-0.7-0.8L36.9,50c-0.8-0.3-1.2-0.7-1.2-1.4c0-0.7,0.7-1.3,1.7-1.3c0.6,0,1.2,0.1,1.6,0.4
		l-0.4,0.7h-0.1c-0.3-0.4-0.6-0.6-1.1-0.6c-0.4,0-0.6,0.2-0.6,0.5c0,0.4,0.2,0.5,0.9,0.8l0.4,0.2c0.7,0.3,1,0.7,1,1.2
		c0,0.9-0.7,1.4-1.7,1.4c-0.6,0-1.3-0.2-1.8-0.5L35.9,50.5L35.9,50.5z M39.8,50.5H40c0.4,0.6,0.9,0.9,1.3,0.9c0.4,0,0.6-0.2,0.6-0.5
		c0-0.4-0.2-0.6-0.7-0.8L40.8,50c-0.8-0.3-1.2-0.7-1.2-1.4c0-0.7,0.7-1.3,1.7-1.3c0.6,0,1.2,0.1,1.6,0.4l-0.4,0.7h-0.1
		c-0.3-0.4-0.6-0.6-1.1-0.6c-0.4,0-0.6,0.2-0.6,0.5c0,0.4,0.2,0.5,0.9,0.8l0.4,0.2c0.7,0.3,1,0.7,1,1.2c0,0.9-0.7,1.4-1.7,1.4
		c-0.6,0-1.3-0.2-1.8-0.5L39.8,50.5L39.8,50.5z M19.8,49.6l1.4,1.7l0.5,0.4v0.2h-2.4v-0.2l0.5-0.4L19,50.1l-0.9,1.2l0.5,0.4v0.2
		h-1.7v-0.2l0.5-0.4l1.3-1.6l-1.3-1.7L17,47.6v-0.1h2.2v0.1L18.7,48l0.9,1.2l0.9-1.2l-0.6-0.4v-0.1h1.9v0.1L21.1,48
		C21.1,48,19.8,49.6,19.8,49.6z M28.3,43.4c-3.5,0-5.7-2-5.7-4.7c0-0.9,0.3-2,1.3-4.3h-3.6l3.3-7.1h23.2c0.5,0,0.9-0.4,0.9-0.9
		c0-0.4-0.4-0.9-0.9-0.9H28l1.7-3.5c1-2.2,3.2-3.5,5.6-3.5h7.9c4.5,0,7.9,3.1,7.9,7.1c0,4.8-4.5,8.7-9.6,8.7H26.3
		c-0.4,0.9,0.1,1.7,1.2,1.7h12.1c2,0,3.5,1.4,3.5,3.2c0,2.1-2,3.9-4.3,3.9C38.9,43.4,28.3,43.4,28.3,43.4z"/>
</g>
</svg>
