<?xml version="1.0" encoding="utf-8"?>
<svg version="1.1" id="Layer_1" xmlns="http://www.w3.org/2000/svg" xmlns:xlink="http://www.w3.org/1999/xlink" x="0px" y="0px"
	width="100px" height="100px" viewBox="0 0 431.9 431.9" style="enable-background:new 0 0 431.9 431.9;" xml:space="preserve">
<g>
	<g>
		<circle style="fill:#E8E8E8;" cx="215.9" cy="215.9" r="215.9"/>
		<circle style="fill:#FFFFFF;" cx="215.9" cy="215.9" r="211.6"/>
	</g>
	<path style="fill:#49A956;" d="M352.8,166.7h-43.6L298,212.5c0-1.3,0-2.6-0.4-4.8c-0.4-2.2-0.9-4.8-1.3-6.9c-0.4-2.2-1.3-3.9-2.2-6
		c-0.9-2.2-2.2-4.3-3.5-6.5c-1.7-2.6-3.5-4.8-5.6-6.9c-1.7-1.7-3.5-3.5-5.6-4.8c-2.2-1.7-4.8-3.5-7.8-4.8c-3-1.3-5.6-2.2-7.8-3
		c-2.2-0.4-3.9-0.9-5.6-1.3c-1.7-0.4-3.5-0.4-5.2-0.9c-1.3,0-1.7,0-2.2,0h-33.7v54.8c-0.9-1.7-1.3-3-2.2-4.8c-1.3-2.2-3-4.3-5.2-6.5
		c-1.7-1.7-3.9-3.5-6.9-4.8c-3-1.3-6.9-3-10.4-3.9c-3.9-0.9-7.8-1.7-11.7-2.2l-6-0.4c-0.9,0-2.2-0.4-3-0.9c-0.9-0.4-1.7-1.3-2.2-1.7
		c-0.4-0.4-0.9-1.3-0.9-1.7c-0.4-1.3,0-2.6,0.9-3.9c0.4-0.4,0.9-0.9,1.7-1.3c0.4-0.4,1.3-0.4,2.6-0.9c1.3-0.4,3.9-0.4,6-0.4
		c2.2,0,4.8,0.4,7.3,0.9c2.6,0.4,5.6,1.3,7.8,2.2s3.9,1.3,5.6,2.2l11.2-20.7c-1.3-0.9-2.6-1.3-5.2-2.6c-2.6-0.9-6-2.2-9.9-3
		c-4.3-0.9-8.6-1.3-12.5-1.7c-4.3,0-9.1,0.4-12.5,0.4c-3.5,0.4-5.6,0.9-8.6,1.7c-3,0.9-6.9,2.6-9.9,4.8c-2.6,1.7-4.8,3.5-6.9,5.6
		c-1.3,1.7-2.2,2.6-3,3.5c-0.9,1.7-1.7,3-2.6,4.8s-1.3,3.5-1.7,5.6c-0.9,3.5-0.9,6.9,0,10.8c0.4,2.2,0.9,3.9,1.7,6
		c0.9,1.7,2.2,3.9,3.5,5.2c1.3,1.3,2.6,2.6,3.9,3.9c1.3,0.9,2.6,2.2,5.2,3.5s6.5,2.6,9.1,3.5c2.6,0.9,4.8,1.3,6.5,1.7l5.2,0.9
		c0.9,0,1.7,0.4,2.6,0.4s1.7,0,2.6,0.4c0.9,0.4,1.7,0.9,2.2,1.3c0.4,0.4,0.9,1.3,1.3,1.7c0.4,0.9,0.4,1.3,0.4,2.2s-0.4,2.2-0.4,3
		c-0.4,0.9-0.9,1.3-1.3,2.2c-0.9,0.4-1.7,1.3-2.6,1.7c-2.2,1.7-3,1.7-4.3,1.7c-1.3,0-3.5-0.4-4.8-0.9c-1.3-0.4-2.2-0.4-3-0.9
		l-8.6-3.5c-3-1.3-5.6-3-8.6-4.3l-7.8,13l-22.9-78.2H75.6l-25.9,98.5h30.2l4.8-19.9h28.1l5.6,20.3h28.9l-2.2-6.9
		c0.9,0.4,1.3,0.9,3.5,1.7c2.6,1.3,5.2,2.2,8.2,3c3.5,0.9,7.8,1.7,11.7,2.2c3.9,0.4,7.3,0.4,10.4,0c2.6-0.4,5.2-0.9,7.8-1.3
		c4.8-1.3,9.1-2.6,13.8-5.2c2.2-1.3,4.3-2.6,6.5-4.3c1.7-1.3,3.5-3,5.2-4.8c0.9-0.9,1.7-2.2,2.6-3.5c0.4-0.9,1.3-2.2,1.7-3v22.5
		h37.6c0.9,0,1.3,0,3,0c2.2-0.4,4.3-0.9,6.5-1.3c3-0.9,6-1.7,8.6-3c2.6-1.3,5.2-2.6,7.3-4.3c2.2-1.3,3.9-3,6-4.8
		c1.7-1.7,3.9-3.9,5.2-5.6l-4.8,19h28.5l5.6-19.9h27.2l6.5,19.9h28.5L352.8,166.7L352.8,166.7z M90.3,224.1l7.3-31.1l9.1,31.1H90.3
		L90.3,224.1z M268.6,216.8c0,2.6-0.4,5.6-1.3,8.2c-0.9,3-2.2,5.2-3.5,6.9c-1.3,1.7-2.2,2.6-3.5,3.5c-1.3,0.9-3,1.7-4.3,2.2
		c-1.3,0.4-2.6,0.4-3.5,0.4c-2.6,0-5.2,0-8.2,0v-44.9c0.9,0,1.7,0,3,0c1.3,0,3,0,4.8,0.4c2.2,0.4,4.3,1.3,6,1.7
		c1.7,0.9,2.6,1.3,3.9,3c1.3,1.3,3,3.9,3.9,6c0.9,2.2,1.7,3.9,2.2,6C268.2,212.1,268.6,214.2,268.6,216.8L268.6,216.8z M324.8,224.1
		l7.8-31.1l8.2,31.1H324.8L324.8,224.1z"/>
</g>
</svg>
