<?xml version="1.0" encoding="utf-8"?>
<svg version="1.1" id="Layer_1" xmlns="http://www.w3.org/2000/svg" xmlns:xlink="http://www.w3.org/1999/xlink" x="0px" y="0px"
	 viewBox="0 0 569.85 136.71" style="enable-background:new 0 0 569.85 136.71;" xml:space="preserve">
<g>
	<circle id="circle24" style="fill:#FFFFFF;" cx="5.38" cy="18.82" r="5.38"/>
	
		<ellipse id="circle28" transform="matrix(0.7071 -0.7071 0.7071 0.7071 -11.4533 9.4934)" style="fill:#FFFFFF;" cx="5.73" cy="18.57" rx="4.54" ry="4.54"/>
	<g>
		<path style="fill:#4A835B;" d="M140.29,34.09h-11.91l-2.89,3.64c-0.51,0.51-0.34,1.05,0.17,1.22l3.91,1.72l11.06-5.16
			c0.36-0.17,0.5-0.45,0.4-0.84C140.93,34.27,140.69,34.08,140.29,34.09L140.29,34.09z"/>
		<path style="fill:#FFFFFF;" d="M116.74,35.9c0.31,0.31,0.55,0.67,0.72,1.07c0.17,0.4,0.25,0.82,0.25,1.26
			c0,0.44-0.08,0.86-0.25,1.26s-0.4,0.76-0.71,1.07c-0.31,0.31-0.67,0.55-1.07,0.72c-0.4,0.17-0.83,0.25-1.26,0.25
			c-0.44,0-0.86-0.08-1.26-0.25c-0.4-0.17-0.76-0.41-1.07-0.71c-0.31-0.31-0.55-0.67-0.72-1.07c-0.17-0.4-0.25-0.82-0.25-1.26
			c0-0.44,0.08-0.86,0.25-1.26s0.4-0.76,0.71-1.07c0.31-0.31,0.66-0.55,1.07-0.72c0.41-0.17,0.83-0.25,1.26-0.25
			c0.44,0,0.86,0.08,1.26,0.25C116.07,35.35,116.43,35.59,116.74,35.9z"/>
		<path style="fill:#00985F;" d="M116.74,40.57c-0.31,0.31-0.67,0.54-1.07,0.71c-0.41,0.17-0.83,0.25-1.26,0.25
			c-0.44,0-0.86-0.09-1.26-0.25c-0.4-0.17-0.76-0.41-1.07-0.72c-0.31-0.31-0.55-0.67-0.71-1.07c-0.17-0.4-0.25-0.82-0.25-1.26
			c0-0.44,0.08-0.86,0.25-1.26c0.17-0.4,0.4-0.76,0.71-1.07c0.31-0.31,0.67-0.55,1.07-0.72c0.4-0.17,0.82-0.25,1.26-0.25
			c0.44,0,0.86,0.08,1.26,0.25c0.4,0.17,0.76,0.4,1.07,0.71c-0.37-0.37-0.78-0.68-1.23-0.94c-0.45-0.26-0.93-0.45-1.43-0.59
			c-0.5-0.13-1.01-0.2-1.54-0.2c-0.52,0-1.03,0.07-1.53,0.21c-0.5,0.14-0.98,0.33-1.43,0.6c-0.45,0.26-0.86,0.58-1.23,0.94
			c-0.37,0.37-0.68,0.78-0.94,1.23c-0.26,0.45-0.46,0.93-0.59,1.43c-0.13,0.5-0.2,1.01-0.2,1.53c0,0.52,0.07,1.03,0.2,1.53
			c0.14,0.5,0.33,0.98,0.59,1.43c0.26,0.45,0.57,0.86,0.94,1.23c0.37,0.37,0.78,0.68,1.23,0.94c0.45,0.26,0.93,0.46,1.43,0.59
			c0.5,0.14,1.01,0.2,1.54,0.2c0.52,0,1.03-0.07,1.53-0.2c0.5-0.13,0.98-0.33,1.43-0.59c0.45-0.26,0.86-0.57,1.23-0.94
			c0.37-0.37,0.68-0.78,0.95-1.23c0.26-0.45,0.46-0.93,0.6-1.43c0.14-0.5,0.21-1.01,0.21-1.53c0-0.52-0.06-1.03-0.2-1.54
			c-0.13-0.5-0.33-0.98-0.59-1.43c-0.26-0.45-0.57-0.86-0.94-1.23c0.3,0.31,0.54,0.67,0.7,1.07c0.16,0.4,0.24,0.82,0.24,1.26
			c0,0.43-0.09,0.85-0.26,1.25C117.29,39.91,117.05,40.26,116.74,40.57L116.74,40.57z M140.37,34.09h-11.93l-2.89,3.62
			c-0.51,0.52-0.33,1.04,0.17,1.21l3.91,1.71l11.07-5.13c0.36-0.17,0.5-0.45,0.41-0.84C141.02,34.27,140.78,34.08,140.37,34.09z
			 M88.58,107.42l9.71,26.98h7.17L95.2,105.91C93.03,106.56,90.83,107.07,88.58,107.42L88.58,107.42z M98.16,70.79
			c0.8-1.22,1.57-2.56,2.3-3.83c-0.34-0.18-0.64-0.39-0.97-0.04c-2.54,2.92-5.38,5.52-8.5,7.8c-3.12,2.29-6.46,4.2-10.01,5.74
			c-3.55,1.54-7.22,2.67-11.03,3.39c-3.8,0.72-7.63,1.01-11.5,0.88H41.23c-0.52,0-0.95-0.47-0.56-0.98
			C52.05,68.23,65.04,54.2,79.63,41.66L50.77,65.92c-1.2,1.06-2.55,1.86-4.05,2.42c-1.5,0.56-3.05,0.82-4.65,0.81H5.77
			c-1.03,0-0.69,0.74-0.52,1.25c0.35,1.11,0.78,2.19,1.31,3.23c0.53,1.04,1.13,2.03,1.82,2.97c0.69,0.94,1.45,1.82,2.29,2.63
			c0.84,0.81,1.73,1.55,2.69,2.21c0.96,0.67,1.96,1.25,3.02,1.74c1.05,0.5,2.14,0.91,3.26,1.22c1.12,0.32,2.26,0.54,3.42,0.67
			c1.16,0.13,2.32,0.16,3.48,0.09l-8.49,8.89c-0.34,0.34-0.34,1.39,0.51,1.39h32.39c2.33,0.11,4.65,0.06,6.97-0.13
			c2.32-0.2,4.62-0.55,6.89-1.05c2.27-0.5,4.51-1.15,6.69-1.95c2.19-0.8,4.31-1.73,6.38-2.81c2.06-1.08,4.05-2.29,5.95-3.63
			c1.9-1.34,3.71-2.8,5.42-4.38c1.71-1.58,3.31-3.27,4.8-5.06C95.56,74.63,96.92,72.75,98.16,70.79L98.16,70.79z M96.08,92.52H81.43
			c-3.29,1.86-6.7,3.46-10.23,4.8c-0.36,0.16-0.51,0.23-0.33,0.73l13.1,36.34h7.15l-12-33.11h0.32c7.82,0,26.48-1.95,36.58-18.26
			c-1.16,1.53-2.48,2.91-3.97,4.13c-1.49,1.22-3.1,2.24-4.84,3.07c-1.74,0.83-3.54,1.43-5.43,1.83
			C99.91,92.43,98.01,92.59,96.08,92.52z"/>
		<path style="fill:#FFFFFF;" d="M116.59,36.12c0.26,0.26,0.46,0.56,0.6,0.9c0.14,0.34,0.21,0.7,0.21,1.07
			c0,0.37-0.07,0.72-0.21,1.07c-0.14,0.34-0.34,0.64-0.6,0.9c-0.26,0.26-0.56,0.46-0.9,0.6c-0.34,0.14-0.7,0.21-1.07,0.21
			c-0.37,0-0.72-0.07-1.07-0.21c-0.34-0.14-0.64-0.34-0.9-0.6c-0.26-0.26-0.46-0.56-0.6-0.9c-0.14-0.34-0.21-0.7-0.21-1.07
			c0-0.37,0.07-0.73,0.21-1.07c0.14-0.34,0.34-0.64,0.6-0.9c0.26-0.26,0.56-0.46,0.9-0.6c0.34-0.14,0.7-0.21,1.07-0.21
			c0.37,0,0.72,0.07,1.07,0.21C116.03,35.65,116.33,35.85,116.59,36.12z"/>
		<path style="fill:#E0001A;" d="M46.16,60.2l18.69-15.51c3.09-8.33,6.27-16.58,9.59-23.7c1.68,3.79,3.23,7.62,4.88,11.66
			c7.22-5.96,11.95-9.18,12.19-9.33l0.11-0.06c2.96-1.99,6.16-3.48,9.59-4.47C96.96,9.49,93.95,2.92,92.5,0H56.22
			c-3.02,6.82-14.3,30.19-27.49,61.35h13.35C43.59,61.5,44.95,61.12,46.16,60.2z M3.52,134.39h32.39l10.48-32.14H14.79
			C11.21,111.99,7.41,122.71,3.52,134.39z M122.05,86.63c-2.41,3.86-5.36,7.25-8.85,10.17c-3.49,2.92-7.34,5.23-11.57,6.93l11,30.66
			h32c-6.4-18.5-13.25-36.69-19.72-53.19C124.04,83,123.08,84.97,122.05,86.63L122.05,86.63z M108.33,44.31
			c-0.56-0.56-0.99-1.2-1.29-1.93c-0.3-0.73-0.46-1.49-0.46-2.27c0-0.79,0.15-1.55,0.45-2.28c0.3-0.73,0.73-1.37,1.29-1.93
			c0.56-0.56,1.2-0.99,1.93-1.29c0.73-0.3,1.49-0.45,2.28-0.45c0.79,0,1.55,0.15,2.28,0.45s1.37,0.73,1.93,1.29
			c0.56,0.56,0.99,1.2,1.29,1.93c0.3,0.73,0.45,1.49,0.45,2.28c0,0.79-0.15,1.55-0.46,2.27c-0.3,0.73-0.74,1.37-1.3,1.93
			c-0.56,0.55-1.2,0.98-1.92,1.27c-0.72,0.3-1.48,0.45-2.26,0.45c-0.78,0-1.54-0.15-2.26-0.45
			C109.54,45.29,108.9,44.86,108.33,44.31L108.33,44.31z M116.01,83.02c7-13.31,11.54-27.42,13.63-42.31l-3.91-1.73
			c-0.51-0.17-0.68-0.69-0.17-1.21l2.89-3.59c-0.97-1.47-2.11-2.8-3.42-3.99c-1.31-1.18-2.75-2.18-4.31-3
			c-1.56-0.82-3.2-1.43-4.92-1.83c-1.72-0.4-3.46-0.58-5.22-0.54c-5.48-0.07-10.5,1.4-15.08,4.41c-5.52,3.9-10.82,8.08-15.9,12.54
			C65,54.27,52.02,68.27,40.64,83.75c-0.36,0.51,0.07,0.98,0.56,0.98h17.25c3.87,0.13,7.71-0.17,11.51-0.9
			c3.8-0.72,7.48-1.86,11.03-3.41c3.55-1.55,6.89-3.46,10.01-5.75c3.12-2.29,5.96-4.89,8.5-7.82c0.12-0.15,0.28-0.23,0.46-0.25
			c0.19-0.02,0.36,0.02,0.51,0.14c0.17,0.12,0.27,0.29,0.31,0.49c0.04,0.2,0.01,0.39-0.09,0.57c-1.91,4.98-4.51,9.58-7.79,13.79
			c-3.28,4.21-7.1,7.85-11.46,10.92h14.66c1.92,0.07,3.81-0.1,5.69-0.49c1.88-0.39,3.68-1,5.42-1.83c1.73-0.83,3.34-1.85,4.83-3.06
			C113.53,85.92,114.85,84.55,116.01,83.02z"/>
		<path style="fill:#E0001A;" d="M184.94,115.53c-0.82,0.1-1.64,0.12-2.46,0.04c-0.82-0.08-1.62-0.25-2.4-0.51
			c-0.78-0.26-1.53-0.6-2.23-1.03c-0.71-0.42-1.36-0.92-1.95-1.49c-0.6-0.57-1.12-1.2-1.57-1.89c-0.45-0.69-0.83-1.42-1.12-2.19
			c-0.29-0.77-0.49-1.57-0.61-2.38c-0.11-0.82-0.14-1.63-0.07-2.46V53.56h-26.3v53.62c0,19.73,8.8,29.43,27.37,29.43"/>
		<path style="fill:#E0001A;" d="M451.05,109.76c-1.65,1.81-3.6,3.21-5.85,4.19c-2.24,0.98-4.59,1.46-7.04,1.45
			c-7.17,0-11.14-6.66-11.14-19.48c0-15.72,4.34-23.58,12.85-23.58c3.77-0.08,7.5,0.31,11.17,1.19L451.05,109.76z M399.91,96.95
			c0,27.68,10.25,39.66,30.08,39.66c2.39,0.2,4.76,0.1,7.12-0.29c2.36-0.39,4.64-1.07,6.83-2.03c2.19-0.96,4.24-2.17,6.13-3.64
			c1.89-1.47,3.57-3.15,5.05-5.03l1.37,8.81h21.85V56.28c-12.16-3.8-24.6-5.51-37.33-5.12C414.5,51.15,399.91,67.38,399.91,96.95
			L399.91,96.95z M542.29,51.15c-2.57-0.22-5.12-0.15-7.67,0.21c-2.55,0.36-5.03,1-7.43,1.92c-2.41,0.92-4.68,2.09-6.82,3.53
			c-2.14,1.43-4.09,3.09-5.86,4.96l-1.82-9.19h-21.7v81.82h27.27V77.98c1.61-1.74,3.49-3.1,5.65-4.07c2.16-0.98,4.42-1.5,6.78-1.56
			c0.81-0.1,1.62-0.11,2.43-0.02c0.81,0.08,1.6,0.26,2.37,0.53c0.77,0.26,1.5,0.61,2.19,1.05c0.69,0.43,1.32,0.94,1.9,1.51
			c0.57,0.58,1.08,1.21,1.51,1.9c0.43,0.69,0.78,1.42,1.04,2.19c0.26,0.77,0.44,1.56,0.52,2.37c0.08,0.81,0.07,1.62-0.03,2.42v50.09
			h27.27V80.71C569.85,60.9,560.74,51.15,542.29,51.15L542.29,51.15z M362.9,51.15c-4.26-0.25-8.43,0.23-12.53,1.43
			c-4.09,1.2-7.86,3.06-11.31,5.57V22.41h-27.27v111.98h27.27V77.98c1.61-1.74,3.49-3.1,5.64-4.07c2.15-0.98,4.42-1.5,6.78-1.56
			c0.81-0.1,1.62-0.11,2.42-0.02c0.81,0.08,1.6,0.26,2.37,0.53c0.77,0.26,1.5,0.61,2.19,1.05c0.69,0.43,1.32,0.94,1.9,1.51
			c0.57,0.58,1.08,1.21,1.51,1.9c0.43,0.69,0.78,1.42,1.04,2.19c0.26,0.77,0.44,1.56,0.52,2.37c0.08,0.81,0.07,1.62-0.03,2.43v50.09
			h27.27V80.71C390.67,60.9,381.52,51.15,362.9,51.15z M281.41,113.85c-13.15,0-20-8.19-20-20.67c0-11.95,6.84-19.3,19.82-19.3
			c3.12-0.05,6.18,0.36,9.18,1.23c3,0.87,5.8,2.17,8.41,3.89l3.76-22.39c-8.87-3.92-18.15-5.74-27.85-5.47
			c-26.48,0-41.01,15.21-41.01,43.06c0,28.01,13.67,42.37,40.33,42.37c5.27,0.08,10.46-0.51,15.58-1.75
			c5.12-1.24,10.01-3.11,14.65-5.59l-3.76-20.84C294.63,111.84,288.25,113.66,281.41,113.85L281.41,113.85z M197.85,109.76
			c-1.71,1.74-3.68,3.1-5.91,4.08c-2.24,0.97-4.57,1.49-7.01,1.56c-0.82,0.1-1.64,0.12-2.46,0.03c-0.82-0.08-1.63-0.25-2.41-0.51
			c-0.78-0.26-1.53-0.6-2.24-1.03c-0.71-0.43-1.36-0.93-1.95-1.5c-0.59-0.57-1.12-1.2-1.57-1.9c-0.45-0.69-0.82-1.42-1.11-2.2
			c-0.29-0.77-0.49-1.57-0.6-2.39c-0.11-0.82-0.13-1.64-0.06-2.46V52.61h-26.29v54.44c0,19.82,8.73,29.55,27.37,29.55
			c2.57,0.19,5.12,0.09,7.67-0.3c2.54-0.39,5.01-1.06,7.4-2.02c2.39-0.95,4.64-2.16,6.76-3.63c2.11-1.47,4.04-3.15,5.77-5.06
			l1.63,8.81h21.33V52.59h-26.31V109.76z"/>
	</g>
</g>
</svg>
