<?xml version="1.0"?>
<svg xmlns="http://www.w3.org/2000/svg" xmlns:xlink="http://www.w3.org/1999/xlink" xmlns:svgjs="http://svgjs.com/svgjs" version="1.1" width="512" height="512" x="0" y="0" viewBox="0 0 512 512" style="enable-background:new 0 0 512 512" xml:space="preserve" class=""><g>
<circle xmlns="http://www.w3.org/2000/svg" style="" cx="256" cy="256" r="256" fill="#f1f1f1" data-original="#f7cb09" class=""/>
<path xmlns="http://www.w3.org/2000/svg" style="" d="M138.522,373.477L276.25,511.205c125.236-9.801,225.155-109.72,234.955-234.956L373.478,138.522  c0-0.298-19.018,16.293-31.844,27.515c-0.827,0.318-2.115,0.815-3.811,1.468l-73.464-73.465c0,0.26-3.76,15.46-9.404,38.139h-33.437  l-78.106,78.106v32.227c-30.67,11.87-50.813,20.858-50.506,20.858l79.273,80.172C156.641,357.992,139.1,374.055,138.522,373.477z" fill="#f1f1f1" data-original="#ffb541" class=""/>
<path xmlns="http://www.w3.org/2000/svg" style="" d="M411.69,245.551H281.226l92.252-92.252c4.08-4.08,4.08-10.697,0-14.777s-10.697-4.08-14.777,0  l-92.252,92.251V100.31c0-5.771-4.678-10.449-10.449-10.449c-5.771,0-10.449,4.678-10.449,10.449v130.464l-92.252-92.252  c-4.08-4.08-10.697-4.08-14.777,0s-4.08,10.697,0,14.777l92.252,92.252H100.31c-5.771,0-10.449,4.678-10.449,10.449  c0,5.771,4.678,10.449,10.449,10.449h130.463L138.522,358.7c-4.08,4.08-4.08,10.697,0,14.777s10.697,4.08,14.777,0l92.252-92.252  V411.69c0,5.771,4.678,10.449,10.449,10.449c5.771,0,10.449-4.678,10.449-10.449V281.226l92.252,92.252  c4.08,4.08,10.697,4.08,14.777,0s4.08-10.697,0-14.777l-92.252-92.252H411.69c5.771,0,10.449-4.678,10.449-10.449  C422.139,250.229,417.461,245.551,411.69,245.551z" fill="#00baff" data-original="#00baff" class=""/>
<path xmlns="http://www.w3.org/2000/svg" style="" d="M411.69,245.551H281.226l92.252-92.252c4.08-4.08,4.08-10.697,0-14.777s-10.697-4.08-14.777,0  l-92.252,92.251V100.31c0-5.653-4.492-10.246-10.101-10.431v332.242c5.609-0.185,10.101-4.778,10.101-10.431V281.226l92.252,92.252  c4.08,4.08,10.697,4.08,14.777,0s4.08-10.697,0-14.777l-92.252-92.252H411.69c5.771,0,10.449-4.678,10.449-10.449  C422.139,250.229,417.461,245.551,411.69,245.551z" fill="#009eda" data-original="#009eda"/>
<path xmlns="http://www.w3.org/2000/svg" style="" d="M256,122.253c-73.866,0-133.747,59.881-133.747,133.747S182.134,389.747,256,389.747  S389.747,329.866,389.747,256S329.866,122.253,256,122.253z M256,366.237c-60.882,0-110.237-49.355-110.237-110.237  S195.118,145.763,256,145.763S366.237,195.118,366.237,256S316.882,366.237,256,366.237z" fill="#1e495f" data-original="#1e495f" class=""/>
<path xmlns="http://www.w3.org/2000/svg" style="" d="M389.747,256c0-73.75-59.693-133.554-133.399-133.743v23.51  C317.07,145.956,366.237,195.234,366.237,256S317.07,366.044,256.348,366.233v23.51C330.054,389.554,389.747,329.75,389.747,256z" fill="#1d384e" data-original="#1d384e" class=""/>
<path xmlns="http://www.w3.org/2000/svg" style="" d="M256,220.996c-19.333,0-35.004,15.671-35.004,35.004s15.671,35.004,35.004,35.004  s35.004-15.671,35.004-35.004S275.333,220.996,256,220.996z M256,278.558c-12.458,0-22.558-10.1-22.558-22.558  s10.1-22.558,22.558-22.558c12.458,0,22.558,10.1,22.558,22.558C278.558,268.458,268.458,278.558,256,278.558z" fill="#1e495f" data-original="#1e495f" class=""/>
<path xmlns="http://www.w3.org/2000/svg" style="" d="M291.004,256c0-19.216-15.484-34.808-34.656-34.996v12.455c12.296,0.188,22.21,10.199,22.21,22.541  s-9.914,22.352-22.21,22.541v12.455C275.52,290.808,291.004,275.216,291.004,256z" fill="#1d384e" data-original="#1d384e" class=""/>
<g xmlns="http://www.w3.org/2000/svg">
</g>
<g xmlns="http://www.w3.org/2000/svg">
</g>
<g xmlns="http://www.w3.org/2000/svg">
</g>
<g xmlns="http://www.w3.org/2000/svg">
</g>
<g xmlns="http://www.w3.org/2000/svg">
</g>
<g xmlns="http://www.w3.org/2000/svg">
</g>
<g xmlns="http://www.w3.org/2000/svg">
</g>
<g xmlns="http://www.w3.org/2000/svg">
</g>
<g xmlns="http://www.w3.org/2000/svg">
</g>
<g xmlns="http://www.w3.org/2000/svg">
</g>
<g xmlns="http://www.w3.org/2000/svg">
</g>
<g xmlns="http://www.w3.org/2000/svg">
</g>
<g xmlns="http://www.w3.org/2000/svg">
</g>
<g xmlns="http://www.w3.org/2000/svg">
</g>
<g xmlns="http://www.w3.org/2000/svg">
</g>
</g></svg>
