<svg xmlns="http://www.w3.org/2000/svg" xmlns:xlink="http://www.w3.org/1999/xlink" viewBox="0 0 387.8 257.8"><g transform="matrix(8.198939 0 0 -8.198939 -2997.4665 995.21122)"><path d="M412.8 103.4c-.3 0-.6.1-.9.2-.4.1-.8.3-1.4.3s-.9-.1-1.2-.3c-.3-.1-.5-.2-.9-.2s-.7.1-1.1.2c-.3.1-.6.2-1.1.2-.4 0-.7-.1-1-.2s-.6-.2-1.1-.2-.8.1-1.1.2-.6.2-1.1.2-.8-.1-1.1-.2-.6-.2-1-.2-.7.1-1 .2-.6.2-1.1.2-.8-.1-1.1-.2-.6-.2-1-.2-.7.1-1.1.2c-.3.1-.6.2-1.1.2s-.9-.1-1.2-.3c-.3-.1-.6-.2-.9-.2s-.6.1-.9.2c-.4.1-.8.3-1.2.3s-.8-.1-1.1-.2-.6-.2-1-.2-.7.1-1 .2-.7.2-1.1.2-.8-.1-1.2-.3c-.3-.1-.6-.2-1-.2s-.7.1-1 .2c-.4.1-.7.2-1.1.2s-.7-.1-1.1-.2-.7-.2-1.1-.2-.7.1-1 .2-.7.2-1.1.2-.7-.1-1.1-.2c-.3-.1-.7-.2-1.1-.2s-.7.1-1 .2-.7.2-1.1.2-.8-.1-1.2-.3c-.3-.1-.6-.2-.9-.2s-.6.1-.9.2c-.4.1-.8.3-1.2.3-.6 0-1.6-.3-2-.4v-.6a6.9 6.9 0 0 0 2 .4c.4 0 .7-.1 1.1-.2.3-.1.7-.2 1.1-.2s.7.1 1.1.2.7.2 1.1.2c.3 0 .6-.1.9-.2.4-.1.7-.3 1.2-.3s.9.1 1.2.3c.3.1.6.2.9.2s.6-.1 1-.2.7-.3 1.2-.3c.4 0 .8.1 1.2.3.3.1.6.2.9.2s.6-.1 1-.2.8-.3 1.2-.3.8.1 1.1.2.7.2 1 .2c.4 0 .6-.1 1-.2s.7-.3 1.2-.3.8.1 1.2.3c.3.1.6.2 1 .2s.7-.1 1.1-.2c.3-.1.7-.2 1.1-.2s.7.1 1.1.2c.3.1.7.2 1.1.2s.6-.1.9-.2.7-.3 1.2-.3.9.1 1.2.3c.3.1.6.2 1 .2s.6-.1.9-.2.7-.3 1.2-.3.9.1 1.2.3c.3.1.6.2.9.2.4 0 .6-.1.9-.2s.7-.3 1.3-.3 1 .1 1.3.3c.3.1.5.2.9.2s.6-.1.9-.2.7-.3 1.2-.3.8.1 1.1.2.6.2 1 .2a3.73 3.73 0 0 0 1.2-.2c.3-.1.6-.2 1-.2v.9z" fill="#1a5dad"/><use xlink:href="#B" fill="#547cc2"/><use xlink:href="#B" y="-1.3" fill="#97aada"/><path d="M389.5 115.9s-.1 0 0 0c-.1.1-.2 0-.2 0 0-.2-.1-.4 0-.4.2-.1.3.2.3.3.2.1 0 0-.1.1m0 1.7l-.1-.1c0-.1-.1-.2-.1-.3.1-.1.2-.2.3-.1.2.1.3.3.5.5v.1c-.2 0-.5.1-.6-.1m-1.1-.2c-.2-.4 0-.5.1-.5.2 0 .2.3.1.4.1.2-.1.2-.2.1m13.7-7.5c.1 0 .2-.1.3 0 0 0 .1.1 0 .1a.47.47 0 0 0-.1.6c.1.2.4.1.6.1 0 0 .1 0 0 .1 0 0 0 .1-.1.1-.3.1-.7.2-.9.2h-.3c-.2 0-.5.1-.6.2-.2.1-.4.2-.8.1-.1-.1-.1-.1-.3-.2-.1 0-.1-.1-.2-.1s-.3-.1-.3-.1c.1-.3.5-.2.7-.4l2-.7zm-7.1 2.3c.6-.2 1.2-.3 1.8-.5s1.1-.4 1.7-.5c.3-.1.7-.1.8.2.1.1-.2.3-.1.4 0 .1.1.1.1.2-.1.2-.5 0-.7.2-.1.1-.2.1-.3.1-.2 0-.3-.1-.3-.1h-.6c-.1 0-.1.1-.4.1-.2 0-.4-.2-.6-.1s-.3.1-.4.2c-.3 0-.5.1-.8.1-.2 0-.3-.2-.5-.4.1.2.2.2.3.1m-.9.2c.2.1.3.2.4.2.1.1.4.2.4.4 0 0-.1.1-.2.1-.1.1-.2.3-.3.3-.2.1-.6-.1-.7.1 0 .1 0 .1-.2.2h-.2c-.2 0-.4.4-.6.2l-.1-.1c-.3-.1-.2-.1-.8 0-.1 0-.2-.1-.3-.1h-.5c-.1 0-.2.1-.3.1-.2 0-.6-.6-.5-1 1.3-.2 2.6-.3 3.9-.4-.1 0 0 0 0 0m-4.4.9c.1.1.2.2.2.3s-.3.2-.4.1 0-.3.1-.5c0 0 .1.1.1.1m-1.7.1v.3s0 .1-.1 0c-.2-.1-.2-.2 0-.4l.1.1m-3.9-.2c-.2.1-.2.3-.4.3s-.4-.1-.5 0c-.1 0-.1-.2-.1-.3-.1-.2-.4-.3-.4-.4.1-.5.8-.5 1.3-.6s1 0 1.5.2c-.1.4-.4.6-.7.9-.2.1-.5-.2-.7-.1m2 0c-.2 0-.4.3-.5.2v-.2c.3-.2.5-.6.8-.7.4-.1.9-.1 1.3.1-.2.3-.4.6-.7.8-.1 0-.1-.1-.2-.1-.3-.1-.5-.2-.7-.1m-8.1-2.1c.4-.2.8-.3 1.2-.4h.5c1 .4 2.1.6 3.1 1-.2.3-.5.4-.8.6-.1.1-.2.1-.4 0s-.4 0-.6 0-.3-.2-.5-.2h-.2c-.2-.2-.3-.5-.6-.4-.2 0-.3.2-.4.2-.2-.1-.2-.3-.4-.3-.2-.1-.4.1-.5.1-.2-.1-.3-.3-.6-.4-.1 0-.1-.1 0-.1 0 0 .1 0 .2-.1m-4-2.4c1.6.3 2.9.9 4.3 1.5-.4.4-1 .5-1.5.7-.2.1-.4.1-.5 0l-.3-.3c-.2-.1-.5 0-.6-.1-.4-.2-.9-.4-1.3-.2l-.1-.1c.1-.1.1-.2.1-.3s-.1-.2-.2-.3c-.3-.1-.6 0-.9-.1-.2-.1-.3-.1-.5-.2-.1-.1-.1-.2 0-.3.5-.3 1-.4 1.5-.3m-1.5-.5c-.2.2-.5.4-.7.3s-.5-.1-.7-.2c-.1 0-.1-.1-.1-.2.4-.1 1 0 1.5.1m24.3 7.8c-.3-.3-1-.4-1.3-.1-.1-.1-.3-.2-.3-.3.1-.3.4-.5.6-.6.3-.2.7-.2.9-.4a.91.91 0 0 0 1 0c.1 0 .4 0 .4.2s.2.3.3.3c.4.2 1 .2 1.4-.2 0 0 .2.1.5 0s.2-.3.4-.3c0 0 .3.1.5.1.1-.1.2-.1.3-.1.2-.1.2-.3.2-.5s-.3-.2-.2-.4c.1-.1.2.1.4.1h.3c.3-.1.5-.3.7-.5.1-.1.4 0 .5-.1a.78.78 0 0 0 .4-.4c.3.2.8.3 1 0 .1-.1.1-.4.4-.5.2-.1.5.1.7 0 .2 0 .3-.3.4-.3.4-.1.8 0 1.2-.1.2-.1.4-.3.4-.5 0-.3-.2-.5-.4-.6v-.1c.2 0 .3 0 .5-.1l.2-.2c.4 0 .9.1 1.2-.2 0 0 .1-.1.2 0s.4.1.7.1c.3-.1.3-.3.2-.5l-.1-.1v-.2c.3 0 .6 0 .7-.3s0-.6-.3-.7-.7-.1-1 .1a.76.76 0 0 1-.4-.2c-.1-.1-.2 0-.4.1-.1 0-.2 0-.3-.1s-.1-.1-.2-.1c-.2 0-.4.2-.6.3h-.2c-.5-.3-1.2-.2-1.7.2a1.36 1.36 0 0 0-1.6.2c-.2-.1-.3-.3-.7-.3s-.6.5-.6.5c-1-.1-1.9.1-2.8.4l-2.1.7-3 .8c-.8.2-1.6.3-2.5.3-.8 0-1.5.1-2.3-.1-.1 0-.2-.1-.3-.2-.2-.2-.4-.5-.4-.8 0-.4-.1-.9-.2-1.3v-.1c-.1-.9-.1-1.7.2-2.6.1-.2.1-.3.2-.5s.3-.4.5-.5c.5-.2.9-.3 1.4-.3.1 0 .2 0 .2-.1 0 0 0-.1-.1-.1h-1.4c-.2 0-.5-.1-.7 0-.1 0-.1 0-.2.1-.1 0-.3-.1-.4-.1l-.1.1h-.5c-.2 0-.4-.1-.7 0v.1c-.1 0-.1 0-.2-.1s-.3.1-.4.1c-.8-.3-1.5-.1-2.3-.1-.3 0-.6-.1-1-.1-.1 0-.1.1 0 .1.1.1.2 0 .3.1.2.1.2.3.4.4 0-.1.1-.2.1-.2.2.1.2.3.2.6 0 0 .1.2.1.1.1-.2-.1-.4 0-.6 0 0 0-.1.1 0 .2.1 0 .3.1.5h.1c0-.2 0-.5.2-.5.1 0 .3 0 .4-.1.2-.1.4 0 .6.1s.5.3.6.6c.2.4.3.8.4 1.2.1.9.1 1.9 0 2.8 0 .4-.1.9-.4 1.2-.1.1-.2.2-.4.2-1 .2-2 0-3-.2-1-.1-1.8-.4-2.8-.6-.6-.2-1.2-.3-1.8-.6l-4.5-1.7c-.9-.3-1.8-.5-2.7-.6-.7-.1-1.4-.1-2.1 0-.2 0-.4.1-.5 0-.3-.3-.9-.1-1.2-.2-.2 0-.2-.5-.6-.5h-.3c-.1 0-.8-.1-.9.5v.5c.2.8.7.3.8.7 0 .1 0 .2.1.3l.2.2c.2.3.1.6-.1.9-.1.2 0 .4.2.5s.4.1.4.3c.1.2.1.3.3.5.3.2.6.2.9.2.2 0 .2-.3.4-.2.1 0 .3.1.3.2.1.2 0 .4.1.6s.3.3.4.3.3-.1.3 0c.1.5.4.7.7.9.1.1-.1.4 0 .5.1.2.2.4.4.4.2.1.3.1.5.1.4 0 .4-.2.5-.3.1.3.5.5.8.4s.3-.4.5-.5c.1-.1.4 0 .4.1 0 .2-.2.1-.1.6 0 .2.2.3.3.3.3.1.6 0 .9-.1.4-.1.7.3 1.2.2.1.3.3.5.6.5.3.1.7.2 1-.2 0 0 .2.1.3 0 .2 0 .3-.2.5-.1.1 0 .1.1.2.2-.4.3-.3.7-.2 1.1.1.3.4.4.6.4.1 0 .3 0 .4-.1.1.1.3.2.3.3 0 .2 0 .5.1.7.2.2.5.2.8.2.2 0 .5 0 .6.1.1.2.3.2.4.4.1.4.6.3.7.7 0 .1 0 .2.1.3s.4.1.4.3.2.3.3.4h.3a2.27 2.27 0 0 1 .4.1h.1l.1-.1c.3-.2.4.2.5.3.2.2.5.6.8.4.2.4.6.5 1 .3.4.3.9.3 1.4.2.2-.1.4-.3.5-.5.4.2 1 .2 1.5.1.3-.1.7-.4.5-.8.3-.2 1-.3.6-.9-.1-.1.2-.1.4-.1.1 0 .2-.1.2-.2s0-.3.1-.3c.2-.1.4 0 .6-.1s.2-.3.2-.5l.1-.1c.1 0 .1.1.1.2.2.2.5.1.5-.1 0-.1.2-.3.3-.3.3 0 .6.1.9-.1.1-.1.1-.3.2-.4.2-.2.7-.2.7-.2.2 0 .2-.1.4-.4.9-.3.5-.7.5-.7" fill="#009b68"/><g fill="#1a5dad"><path d="M368.4 97.3c0 .2-.1.3-.2.4s-.3.2-.5.2c-.3 0-.6-.2-.6-.4 0-.4.4-.5.8-.6.8-.2 2-.3 2-1.6 0-1-1-1.5-2.1-1.5s-2.1.3-2.1 1.6h1.3c0-.5.3-.7.8-.7.3 0 .7.2.7.5 0 .7-1 .5-2 1-.5.2-.7.7-.7 1.2.1 1.1 1.1 1.5 2.1 1.5s2-.4 1.9-1.5h-1.4zm4.3-.8c.5 0 .8.3.8.6s-.2.6-.8.6h-.7v-1.2h.7zm-2-2.6v4.8h2.2c1.2 0 2-.4 2-1.6s-.8-1.6-2-1.6h-.9v-1.7h-1.3zm4.8 0v4.8h3.7v-.9h-2.4v-1h2.2v-.9h-2.2v-1h2.4V94h-3.7zm4.5 0v4.8h1.3v-3.9h2.2v-.9H380zm4.5 3.9H383v.9h4.3v-.9h-1.5v-3.9h-1.3v3.9zm3.4-3.9v4.8h1.3v-1.9h1.6v1.9h1.3v-4.8h-1.3v2h-1.7v-2h-1.2zm7.6 4c-.9 0-1.1-.8-1.1-1.6 0-.7.2-1.6 1.1-1.6s1.1.8 1.1 1.6c0 .7-.2 1.6-1.1 1.6m-2.5-1.6c0 1.6.9 2.5 2.5 2.5s2.5-.9 2.5-2.5-.9-2.5-2.5-2.5-2.5.9-2.5 2.5m7.6.4c.4 0 .8.1.8.6s-.4.6-.8.6h-.5v-1.1h.5zm-.5-2.8h-1.3v4.8h2.2c.8 0 1.9-.2 1.9-1.2 0-.7-.6-1.1-1.2-1.2h0c.9 0 1-.5 1.1-1.2 0-.4.1-.8.2-1.2h-1.5c-.1.3-.1.7-.1 1-.1.6-.1.8-.8.8h-.5v-1.8zm3.5 4.8h1.9l1.6-3.6h0v3.6h1.2v-4.8h-1.9l-1.6 3.7h0v-3.7h-1.2v4.8zm5.6-4.8v4.8h3.7v-.9h-2.4v-1h2.2v-.9h-2.2v-1h2.4V94h-3.7zM366 92.3h0V90h-.4v2.5h.6l1.1-2.2 1.1 2.2h.6V90h-.4v2.3h0l-1.1-2.3h-.4l-1.1 2.3zm4.5.2h1.9v-.3h-1.5v-.8h1.4v-.3h-1.4v-.9h1.6V90h-1.9v2.5zm5.1-1.6l-.6 1.3-.6-1.3h1.2zm.1-.2h-1.5l-.3-.7h-.4l1.3 2.5h.4l1.3-2.5h-.4l-.4.7zm4 1.8h.4V90h-.5l-1.5 2.2h0V90h-.4v2.5h.5l1.5-2.2h0v2.2z"/><use xlink:href="#C"/><path d="M387.4 90.3h.9c.5 0 .6.2.6.4 0 .3-.2.5-.6.5h-.8v-.9zm0 1.2h.9c.3 0 .5.1.5.4 0 .2-.1.4-.6.4h-.8v-.8zm-.3 1h1.2c.7 0 1-.2 1-.6 0-.3-.2-.5-.5-.6h0c.4 0 .6-.3.6-.6 0-.4-.3-.7-1-.7h-1.3v2.5zm5.6 0h.4V91c0-.7-.5-1.1-1.2-1.1s-1.2.4-1.2 1.1v1.5h.4V91c0-.5.3-.8.8-.8s.8.3.8.8v1.5z"/><use xlink:href="#C" x="13"/><path d="M398.1 92.5h.4V90h-.4v2.5zm3.8 0h.4V90h-.5l-1.5 2.2h0V90h-.4v2.5h.5l1.5-2.2h0v2.2zm1.8 0h1.9v-.3h-1.5v-.8h1.4v-.3h-1.4v-.9h1.6V90h-1.9v2.5z"/><use xlink:href="#C" x="25.5"/><use xlink:href="#C" x="29.1"/></g></g><defs ><path id="B" d="M412.8 102c-.3 0-.6.1-.9.2-.4.1-.8.3-1.4.3s-.9-.1-1.2-.3c-.3-.1-.5-.2-.9-.2s-.7.1-1.1.2c-.3.1-.6.2-1.1.2-.4 0-.7-.1-1-.2s-.6-.2-1.1-.2-.8.1-1.1.2-.6.2-1.1.2-.8-.1-1.1-.2-.6-.2-1-.2-.7.1-1 .2-.6.2-1.1.2-.8-.1-1.1-.2-.6-.2-1-.2-.7.1-1.1.2c-.3.1-.6.2-1.1.2s-.9-.1-1.2-.3c-.3-.1-.6-.2-.9-.2s-.6.1-.9.2c-.4.1-.8.3-1.2.3s-.8-.1-1.1-.2-.6-.2-1-.2-.7.1-1 .2-.7.2-1.1.2-.8-.1-1.2-.3c-.3-.1-.6-.2-1-.2s-.7.1-1 .2c-.4.1-.7.2-1.1.2s-.7-.1-1.1-.2-.7-.2-1.1-.2-.7.1-1 .2-.7.2-1.1.2-.7-.1-1.1-.2c-.3-.1-.7-.2-1.1-.2s-.7.1-1 .2-.7.2-1.1.2-.8-.1-1.2-.3c-.3-.1-.6-.2-.9-.2s-.6.1-.9.2c-.4.1-.8.3-1.2.3-.6 0-1.6-.3-2-.4v-.6c.2.1 1.3.5 2 .5.4 0 .7-.1 1.1-.2.3-.1.7-.2 1.1-.2s.7.1 1.1.2.7.2 1.1.2c.3 0 .6-.1.9-.2.4-.1.7-.3 1.2-.3s.9.1 1.2.3c.3.1.6.2.9.2s.6-.1 1-.2.7-.3 1.2-.3c.4 0 .8.1 1.2.3.3.1.6.2.9.2s.6-.1 1-.2.8-.3 1.2-.3.8.1 1.1.2.7.2 1 .2c.4 0 .6-.1 1-.2s.7-.3 1.2-.3.8.1 1.2.3c.3.1.6.2 1 .2s.7-.1 1.1-.2c.3-.1.7-.2 1.1-.2s.7.1 1.1.2c.3.1.7.2 1.1.2s.6-.1.9-.2.7-.3 1.2-.3.9.1 1.2.3c.3.1.6.2 1 .2s.6-.1.9-.2.7-.3 1.2-.3.9.1 1.2.3c.3.1.6.2.9.2.4 0 .6-.1.9-.2s.7-.3 1.3-.3 1 .1 1.3.3c.3.1.5.2.9.2s.6-.1.9-.2.7-.3 1.2-.3.8.1 1.1.2.6.2 1 .2a3.73 3.73 0 0 0 1.2-.2c.3-.1.6-.2 1-.2v.8z"/><path id="C" d="M383.3 91.9c0 .4-.4.5-.8.5s-.7-.2-.7-.5c0-.1.1-.3.4-.3l.9-.2c.4-.1.6-.3.6-.6 0-.5-.5-.8-1.2-.8s-1.1.3-1.2.8h.4c0-.3.3-.5.8-.5s.8.2.8.5c0 .7-1.9.1-1.9 1.1 0 .5.4.8 1.1.8.5 0 1.1-.2 1.1-.7h-.3z"/></defs></svg>