<?xml version="1.0" encoding="utf-8"?>
<svg version="1.1" id="Layer_1" xmlns="http://www.w3.org/2000/svg" xmlns:xlink="http://www.w3.org/1999/xlink" x="0px" y="0px"
	 viewBox="0 0 54 27.08" style="enable-background:new 0 0 54 27.08;" xml:space="preserve">
<g>
	<path style="fill-rule:evenodd;clip-rule:evenodd;fill:#E3000B;" d="M38.9,0.12L54,26.62h-7.65l-1.66-2.88h-7.61l2.66-4.67h2.29
		l-3.14-5.54l-3.29,5.75c-0.52,0.9-1.04,1.69-1.55,2.37c-2.51,3.31-6.58,5.43-11.1,5.43c-7.58,0-13.8-6-13.8-13.4
		s6.17-13.4,13.8-13.4c2.59,0,4.92,0.68,6.95,1.83l-3.25,5.72c-1.12-0.66-2.4-1.01-3.7-1.01c-3.88,0-7.02,3.06-7.02,6.83
		c0,3.78,3.14,6.83,7.02,6.83c2.11,0,3.84-0.86,5.1-2.12c0.56-0.54,1.18-1.44,1.37-1.76L38.88,0L38.9,0.12z M0,26.62V0.82h6.73v25.8
		H0z"/>
</g>
</svg>
