<?xml version="1.0"?>
<svg xmlns="http://www.w3.org/2000/svg" xmlns:xlink="http://www.w3.org/1999/xlink" xmlns:svgjs="http://svgjs.com/svgjs" version="1.1" width="512" height="512" x="0" y="0" viewBox="0 0 512 512" style="enable-background:new 0 0 512 512" xml:space="preserve" class=""><g>
<circle xmlns="http://www.w3.org/2000/svg" style="" cx="256" cy="256" r="256" fill="#f1f1f1" data-original="#38c6d9" class=""/>
<path xmlns="http://www.w3.org/2000/svg" style="" d="M512,256c0-7.949-0.381-15.808-1.091-23.574l-94.513-94.513l-320.862,4.884v46.609l-11.483-11.483  l-5.713,4.53l-15.791,0.048l32.987,32.987v11.991l-11.307-11.307l-10.674,3.693l-1.11-1.11l-9.895,1.667l34.002,34.002  l-0.128,11.667l-12.436-12.436l-7.27,4.358l-2.227-2.227l-11.941,2.562l33.594,33.594l-0.129,11.821l-11.84-11.84l-5.532,2.508  l-16.093,1.843l33.183,33.183l-0.128,11.638l-11.652-11.652l-5.615,4.667l0.2,0.2l-15.989-0.11l32.773,32.773l-0.074,6.82  l137.111,137.111C240.144,511.617,248.027,512,256,512C397.384,512,512,397.384,512,256z" fill="#f1f1f1" data-original="#02b2b2" class=""/>
<g xmlns="http://www.w3.org/2000/svg">
	<path style="" d="M80.377,184.458H66.155c-2.381,0-4.31-1.929-4.31-4.31s1.929-4.31,4.31-4.31h14.222   c2.381,0,4.31,1.929,4.31,4.31S82.758,184.458,80.377,184.458z" fill="#59595b" data-original="#59595b"/>
	<path style="" d="M80.377,298.236H66.155c-2.381,0-4.31-1.929-4.31-4.31c0-2.381,1.929-4.31,4.31-4.31h14.222   c2.381,0,4.31,1.929,4.31,4.31C84.687,296.307,82.758,298.236,80.377,298.236z" fill="#59595b" data-original="#59595b"/>
	<path style="" d="M80.377,260.31H66.155c-2.381,0-4.31-1.929-4.31-4.31s1.929-4.31,4.31-4.31h14.222   c2.381,0,4.31,1.929,4.31,4.31S82.758,260.31,80.377,260.31z" fill="#59595b" data-original="#59595b"/>
	<path style="" d="M80.377,336.162H66.155c-2.381,0-4.31-1.929-4.31-4.31s1.929-4.31,4.31-4.31h14.222   c2.381,0,4.31,1.929,4.31,4.31S82.758,336.162,80.377,336.162z" fill="#59595b" data-original="#59595b"/>
	<path style="" d="M80.377,222.384H66.155c-2.381,0-4.31-1.929-4.31-4.31s1.929-4.31,4.31-4.31h14.222   c2.381,0,4.31,1.929,4.31,4.31S82.758,222.384,80.377,222.384z" fill="#59595b" data-original="#59595b"/>
</g>
<path xmlns="http://www.w3.org/2000/svg" style="" d="M412.444,222.384c2.381,0,4.31-1.929,4.31-4.31s-1.929-4.31-4.31-4.31h-40.389v-29.306h40.389  c2.381,0,4.31-1.929,4.31-4.31s-1.929-4.31-4.31-4.31h-40.389v-33.616c0-2.381-1.929-4.31-4.31-4.31s-4.31,1.929-4.31,4.31v33.616  h-36.08v-33.616c0-2.381-1.929-4.31-4.31-4.31s-4.31,1.929-4.31,4.31v33.616h-36.08v-33.616c0-2.381-1.929-4.31-4.31-4.31  s-4.31,1.929-4.31,4.31v33.616h-36.078v-33.616c0-2.381-1.929-4.31-4.31-4.31s-4.31,1.929-4.31,4.31v33.616h-36.08v-33.616  c0-2.381-1.929-4.31-4.31-4.31s-4.31,1.929-4.31,4.31v33.616h-36.076v-33.616c0-2.381-1.929-4.31-4.31-4.31s-4.31,1.929-4.31,4.31  v33.616H99.556c-2.381,0-4.31,1.929-4.31,4.31s1.929,4.31,4.31,4.31h40.389v29.306H99.556c-2.381,0-4.31,1.929-4.31,4.31  s1.929,4.31,4.31,4.31h40.389v29.306H99.556c-2.381,0-4.31,1.929-4.31,4.31s1.929,4.31,4.31,4.31h40.389v29.306H99.556  c-2.381,0-4.31,1.929-4.31,4.31c0,2.381,1.929,4.31,4.31,4.31h40.389v29.306H99.556c-2.381,0-4.31,1.929-4.31,4.31  s1.929,4.31,4.31,4.31h40.389v33.616c0,2.381,1.929,4.31,4.31,4.31s4.31-1.929,4.31-4.31v-33.616h36.08v33.616  c0,2.381,1.929,4.31,4.31,4.31s4.31-1.929,4.31-4.31v-33.616h36.08v33.616c0,2.381,1.929,4.31,4.31,4.31s4.31-1.929,4.31-4.31  v-33.616h36.078v33.616c0,2.381,1.929,4.31,4.31,4.31s4.31-1.929,4.31-4.31v-33.616h36.08v33.616c0,2.381,1.929,4.31,4.31,4.31  c2.381,0,4.31-1.929,4.31-4.31v-33.616h36.08v33.616c0,2.381,1.929,4.31,4.31,4.31s4.31-1.929,4.31-4.31v-33.616h40.389  c2.381,0,4.31-1.929,4.31-4.31s-1.929-4.31-4.31-4.31h-40.389v-29.306h40.389c2.381,0,4.31-1.929,4.31-4.31  c0-2.381-1.929-4.31-4.31-4.31h-40.389V260.31h40.389c2.381,0,4.31-1.929,4.31-4.31s-1.929-4.31-4.31-4.31h-40.389v-29.306H412.444z   M363.436,184.458v29.306h-36.08v-29.306H363.436z M318.738,184.458v29.306h-36.08v-29.306H318.738z M229.342,251.69h-36.08v-29.306  h36.08V251.69z M237.961,222.384h36.078v29.306h-36.078V222.384z M229.342,260.31v29.306h-36.08V260.31H229.342z M237.961,260.31  h36.078v29.306h-36.078V260.31z M282.658,260.31h36.08v29.306h-36.08V260.31z M282.658,251.69v-29.306h36.08v29.306H282.658z   M274.039,184.458v29.306h-36.078v-29.306H274.039z M229.342,184.458v29.306h-36.08v-29.306H229.342z M148.564,184.458h36.08v29.306  h-36.08V184.458z M148.564,222.384h36.08v29.306h-36.08V222.384z M148.564,260.31h36.08v29.306h-36.08V260.31z M148.564,327.542  v-29.306h36.08v29.306H148.564z M193.262,327.542v-29.306h36.08v29.306H193.262z M237.961,327.542v-29.306h36.078v29.306H237.961z   M282.658,327.542v-29.306h36.08v29.306H282.658z M363.436,327.542h-36.08v-29.306h36.08V327.542z M363.436,289.616h-36.08V260.31  h36.08V289.616z M363.436,251.69h-36.08v-29.306h36.08V251.69z" fill="#ffffff" data-original="#ffffff" class=""/>
<path xmlns="http://www.w3.org/2000/svg" style="" d="M412.444,222.384c2.381,0,4.31-1.929,4.31-4.31s-1.929-4.31-4.31-4.31h-40.389v-29.306h40.389  c2.381,0,4.31-1.929,4.31-4.31s-1.929-4.31-4.31-4.31h-40.389v-33.616c0-2.381-1.929-4.31-4.31-4.31s-4.31,1.929-4.31,4.31v33.616  h-36.08v-33.616c0-2.381-1.929-4.31-4.31-4.31s-4.31,1.929-4.31,4.31v33.616h-36.08v-33.616c0-2.381-1.929-4.31-4.31-4.31  s-4.31,1.929-4.31,4.31v33.616h-18.182v8.62h18.182v29.306h-18.182v8.62h18.182v29.306h-18.182v8.62h18.182v29.306h-18.182v8.62  h18.182v29.306h-18.182v8.62h18.182v33.616c0,2.381,1.929,4.31,4.31,4.31s4.31-1.929,4.31-4.31v-33.616h36.08v33.616  c0,2.381,1.929,4.31,4.31,4.31s4.31-1.929,4.31-4.31v-33.616h36.08v33.616c0,2.381,1.929,4.31,4.31,4.31s4.31-1.929,4.31-4.31  v-33.616h40.389c2.381,0,4.31-1.929,4.31-4.31s-1.929-4.31-4.31-4.31h-40.389v-29.306h40.389c2.381,0,4.31-1.929,4.31-4.31  c0-2.381-1.929-4.31-4.31-4.31h-40.389V260.31h40.389c2.381,0,4.31-1.929,4.31-4.31s-1.929-4.31-4.31-4.31h-40.389v-29.306H412.444z   M318.738,327.542h-36.08v-29.306h36.08V327.542z M318.738,289.616h-36.08V260.31h36.08V289.616z M318.738,251.69h-36.08v-29.306  h36.08V251.69z M318.738,213.764h-36.08v-29.306h36.08V213.764z M363.436,327.542h-36.08v-29.306h36.08V327.542z M363.436,289.616  h-36.08V260.31h36.08V289.616z M363.436,251.69h-36.08v-29.306h36.08V251.69z M363.436,213.764h-36.08v-29.306h36.08V213.764z" fill="#d0d1d3" data-original="#d0d1d3" class=""/>
<polygon xmlns="http://www.w3.org/2000/svg" style="" points="98.263,370.717 166.357,227.556 227.556,369.778 " fill="#eaa22f" data-original="#eaa22f" class=""/>
<polygon xmlns="http://www.w3.org/2000/svg" style="" points="166.429,227.725 166.429,370.223 227.556,369.778 " fill="#e09112" data-original="#e09112"/>
<polygon xmlns="http://www.w3.org/2000/svg" style="" points="284.444,370.717 349.091,170.667 413.737,369.778 " fill="#386895" data-original="#386895"/>
<polygon xmlns="http://www.w3.org/2000/svg" style="" points="349.091,170.668 349.091,370.248 413.737,369.778 " fill="#273b7a" data-original="#273b7a"/>
<polygon xmlns="http://www.w3.org/2000/svg" style="" points="155.152,370.717 227.556,170.667 284.444,369.778 " fill="#d35933" data-original="#d35933" class=""/>
<polygon xmlns="http://www.w3.org/2000/svg" style="" points="227.628,170.92 227.628,370.192 284.444,369.778 " fill="#b54324" data-original="#b54324" class=""/>
<polygon xmlns="http://www.w3.org/2000/svg" style="" points="212.04,370.717 280.135,227.556 341.333,369.778 " fill="#ffc61b" data-original="#ffc61b" class=""/>
<polygon xmlns="http://www.w3.org/2000/svg" style="" points="280.207,227.725 280.207,370.223 341.333,369.778 " fill="#eaa22f" data-original="#eaa22f" class=""/>
<path xmlns="http://www.w3.org/2000/svg" style="" d="M413.737,375.029H98.263c-2.381,0-4.31-1.929-4.31-4.31V141.281c0-2.381,1.929-4.31,4.31-4.31  h315.475c2.381,0,4.31,1.929,4.31,4.31v229.438C418.047,373.1,416.118,375.029,413.737,375.029z M102.572,366.409h306.855V145.591  H102.572V366.409z" fill="#ffffff" data-original="#ffffff" class=""/>
<path xmlns="http://www.w3.org/2000/svg" style="" d="M413.737,136.971h-157.88v8.62h153.571v220.819H255.857v8.62h157.88c2.381,0,4.31-1.929,4.31-4.31  V141.281C418.047,138.9,416.118,136.971,413.737,136.971z" fill="#d0d1d3" data-original="#d0d1d3" class=""/>
<g xmlns="http://www.w3.org/2000/svg">
</g>
<g xmlns="http://www.w3.org/2000/svg">
</g>
<g xmlns="http://www.w3.org/2000/svg">
</g>
<g xmlns="http://www.w3.org/2000/svg">
</g>
<g xmlns="http://www.w3.org/2000/svg">
</g>
<g xmlns="http://www.w3.org/2000/svg">
</g>
<g xmlns="http://www.w3.org/2000/svg">
</g>
<g xmlns="http://www.w3.org/2000/svg">
</g>
<g xmlns="http://www.w3.org/2000/svg">
</g>
<g xmlns="http://www.w3.org/2000/svg">
</g>
<g xmlns="http://www.w3.org/2000/svg">
</g>
<g xmlns="http://www.w3.org/2000/svg">
</g>
<g xmlns="http://www.w3.org/2000/svg">
</g>
<g xmlns="http://www.w3.org/2000/svg">
</g>
<g xmlns="http://www.w3.org/2000/svg">
</g>
</g></svg>
