<svg xmlns="http://www.w3.org/2000/svg" width="544" height="150.1" fill="#9374d8"><path d="M51.6 69.3l19.7-16.5-16-1.4L48 61.8l-.5 5.7c-.5 5.2-4.9 9.1-10 8.9V76l2.1-23.4 6.5-9.2-19.5 9.1c-5.1 2.4-11.2.2-13.6-5l27.3-12.7L19.2 33c-5.6-.5-9.8-5.5-9.3-11.1l32 2.8-8.6-6.1c-3.9-2.7-5-7.9-2.8-12L58.1 26l.1.1 10.9-.6 17.6 2.4 5.1 1.8L127.2 0l8.7 34.7L66 70.6 50.3 83.7c-3.6-4.3-3-10.7 1.3-14.4zM6 102.1c0 13.3 10.8 24.2 24.2 24.2 13.3 0 24.2-10.8 24.2-24.2 0-13.3-10.8-24.2-24.2-24.2C16.9 77.9 6 88.7 6 102.1zm18.4-2.4c.4-1 1-1.8 1.8-2.5.2-.2.4-.3.7-.5.2-.2.5-.3.8-.4.8-.4 1.7-.6 2.6-.6 3.5 0 6.3 2.8 6.3 6.3 0 .8-.2 1.6-.5 2.3-.4 1-1 1.8-1.8 2.5-.2.2-.4.3-.7.5-.2.2-.5.3-.8.4-.8.4-1.7.6-2.6.6-3.5 0-6.3-2.8-6.3-6.3 0-.8.2-1.6.5-2.3zm20.1 19.4c-.7.6-1.5 1.2-2.4 1.7L34.6 109l.9-.6 9 10.7zM15.9 85c.7-.6 1.5-1.2 2.4-1.7l7.5 11.8-.9.6-9-10.7zm36.6 17c0 2.9-.6 5.7-1.6 8.3l-13-5.2c.4-.9.6-2 .6-3.1a8.24 8.24 0 0 0-8.2-8.2c-1.2 0-2.4.3-3.4.7L21 81.8c2.8-1.3 5.9-2 9.2-2 12.3 0 22.3 10 22.3 22.2zm-44.5.1c0-2.9.6-5.7 1.6-8.3l13 5.2c-.4.9-.6 2-.6 3a8.24 8.24 0 0 0 8.2 8.2c1.2 0 2.4-.3 3.4-.7l5.8 12.8c-2.8 1.3-5.9 2-9.2 2-12.2 0-22.2-10-22.2-22.2zm119.4-10.4c7.4 2.8 12.9 6.1 16.4 10.1s5.2 9 5.2 14.9c0 7.2-2.5 13.1-7.5 17.7-5.9 5.5-14.6 8.3-26.1 8.3-4.3 0-9.8-1-16.4-2.9-2.1-.6-3.7-1.9-4.8-3.8s-1.4-3.9-.8-6l.1-.2c.6-2.3 1.9-4 3.9-5.1s4.1-1.4 6.4-.7c5.4 1.7 9.7 2.5 12.9 2.5 4 0 7.1-.8 9.3-2.3 2.3-1.5 3.4-3.6 3.4-6.2 0-2.3-1-4.3-3-6s-5.5-3.4-10.6-5.1c-15.4-5.5-23.1-13.8-23.1-24.9 0-7.5 2.9-13.6 8.7-18.2 5.8-4.7 13.5-7 22.9-7 3.4 0 8 .7 13.7 2.2 2.2.5 3.8 1.7 4.9 3.6s1.4 4 .8 6.1l-.1.2c-.6 2.1-1.8 3.6-3.7 4.7s-3.9 1.3-5.9.7c-3.8-1.1-7.1-1.6-10-1.6-3.8 0-6.7.8-8.8 2.4-1.9 1.4-2.8 3.2-2.8 5.2 0 2.4 1.2 4.4 3.6 6 1.8 1.5 5.7 3.2 11.4 5.4zm63.3-13.4c8.8 0 16.3 3.1 22.5 9.3s9.3 13.7 9.3 22.5-3.1 16.3-9.3 22.5-13.7 9.3-22.5 9.3c-.6 0-1.2 0-1.8-.1-.6 0-1.3.1-1.9.1-8.8 0-16.3-3.1-22.5-9.3s-9.3-13.7-9.3-22.5c0-8.7 3.1-16.2 9.3-22.5 6.2-6.2 13.7-9.3 22.5-9.3.6 0 1.2 0 1.9.1.6-.1 1.2-.1 1.8-.1zm-1.8 48.6c4.1 0 7.7-1.7 10.6-5s4.4-7.2 4.4-11.8-1.5-8.6-4.4-11.8c-3-3.3-6.5-4.9-10.6-4.9s-7.7 1.6-10.6 4.9c-3 3.3-4.4 7.2-4.4 11.8s1.5 8.6 4.4 11.8c2.9 3.3 6.5 5 10.6 5zm39.8-38.3c0-2.5.9-4.7 2.7-6.6s4-2.7 6.6-2.7h.2c2.6 0 4.8.9 6.6 2.7s2.7 4 2.7 6.6v22.9c0 6.8 1.9 11.2 5.7 13 4 1.9 8.1 1.6 12.4-1 3.8-2.3 5.9-4.8 6.4-7.6.1-.4.1-.9.2-1.5l.1-.1V88.6c0-2.5.9-4.7 2.7-6.6s4-2.7 6.6-2.7h.2c2.6 0 4.8.9 6.6 2.7s2.7 4 2.7 6.6v44.8c0 1.7-.6 3.1-1.8 4.3s-2.6 1.8-4.3 1.8h-7c-1.7 0-3.1-.6-4.2-1.8-1.2-1.2-1.8-2.6-1.8-4.2v-.1c-7.6 4.5-12.4 6.9-14.1 7.3-9.3 1.9-16.6-.6-22-7.4-4.7-5.9-7.1-13.6-7.2-23.1V88.6zM362.5 132c0 2.5-.9 4.7-2.7 6.6-1.8 1.8-4 2.7-6.6 2.7h-.2c-2.5 0-4.7-.9-6.6-2.7-1.8-1.8-2.7-4-2.7-6.6v-22.9c0-6.8-1.9-11.2-5.7-13-4-1.9-8.2-1.6-12.4 1-3.8 2.3-5.9 4.8-6.4 7.6-.1.4-.1.9-.2 1.5l-.1.1V132c0 2.5-.9 4.7-2.7 6.6-1.8 1.8-4 2.7-6.6 2.7h-.3c-2.5 0-4.7-.9-6.6-2.7-1.8-1.8-2.7-4-2.7-6.6V87.2c0-1.7.6-3.1 1.8-4.3s2.7-1.8 4.4-1.8h7c1.7 0 3.1.6 4.2 1.8 1.2 1.2 1.8 2.6 1.8 4.2v.1c7.6-4.5 12.4-6.9 14.2-7.3 9.3-1.9 16.6.5 22 7.3 4.7 5.9 7.1 13.7 7.1 23.1V132zm51.2-48.6v-20c0-2.6.9-4.8 2.8-6.7s4.1-2.8 6.7-2.8h.2c2.6 0 4.8.9 6.7 2.8s2.8 4.1 2.8 6.7V137c0 1.1-.4 2-1.2 2.8-.8.7-1.7 1.1-2.7 1.1h-11.4a3.69 3.69 0 0 1-2.7-1.1c-.8-.8-1.2-1.7-1.2-2.7v-.1c-4.4 2.6-9.1 3.9-14.1 3.9-8.1 0-14.9-3-20.6-9s-8.6-13.2-8.6-21.7 2.9-15.7 8.6-21.7 12.6-9 20.6-9c5 0 9.7 1.3 14.1 3.9zm-25.1 26.4c0 4.6 1.2 8.5 3.6 11.7 2.5 3.2 5.4 4.8 8.9 4.8 2.1.3 4.1.1 6.2-.5 4.1-1.4 6.3-4.6 6.4-9.6V101c-.9-2.5-3.2-4.4-6.7-5.8-4-1.6-8.1-1.4-12.1.6-1.9.9-3.5 2.7-4.7 5.2-1.1 2.4-1.6 5.1-1.6 8.1v.7zM458 72.6c-2 2-4.4 3-7.2 3s-5.3-1-7.3-3-3-4.4-3-7.3c0-2.8 1-5.2 3-7.2s4.4-3 7.3-3c2.8 0 5.2 1 7.2 3s3 4.4 3 7.2-1 5.2-3 7.3zm-7.1 68.3c-2.8 0-5.1-1-7-2.9s-2.9-4.2-2.9-7V90.9c0-2.7 1-5 2.9-7 1.9-1.9 4.3-2.9 7-2.9h.2c2.7 0 5 1 7 2.9 1.9 1.9 2.9 4.3 2.9 7V131c0 2.8-1 5.1-2.9 7s-4.3 2.9-7 2.9h-.2z"/><path d="M485.2 72.6c-2 2-4.4 3-7.2 3s-5.3-1-7.3-3-3-4.4-3-7.3c0-2.8 1-5.2 3-7.2s4.4-3 7.3-3c2.8 0 5.2 1 7.2 3s3 4.4 3 7.2c.1 2.8-.9 5.2-3 7.3zm-7 68.3c-2.8 0-5.1-1-7-2.9s-2.9-4.2-2.9-7V90.9c0-2.7 1-5 2.9-7 1.9-1.9 4.3-2.9 7-2.9h.2c2.7 0 5 1 7 2.9 1.9 1.9 2.9 4.3 2.9 7V131c0 2.8-1 5.1-2.9 7s-4.3 2.9-7 2.9h-.2zm58.7-14.2c3.4 0 5.6 1.6 6.6 4.7l.1.2c.8 2.3.5 4.4-.9 6.3-1.4 2-3.3 3-5.7 3h-37.1c-1.9 0-3.5-.7-4.9-2-1.3-1.4-2-3-2-4.9v-.1c0-1.6.5-3 1.5-4.2l25.7-33.6h-18.5c-3.4 0-5.6-1.6-6.7-4.7v-.2c-.8-2.3-.5-4.4.9-6.3 1.4-2 3.3-3 5.7-3h34.8a6.94 6.94 0 0 1 5.1 2.1c1.4 1.4 2.1 3.1 2.1 5.2v.1c0 1.7-.5 3.1-1.5 4.4l-25.1 33h19.9zM60.4 150.1H0V99.8l30.2 4.4 30.2-4.4z"/></svg>