<svg xmlns="http://www.w3.org/2000/svg" viewBox="0 0 2426.5 427.1"><path d="M145.7 420.4H100V49.5H0V6.7h246.8v42.8H145.7v370.9zM485.9 42.8c95 0 169.7 77.1 169.7 170.7 0 93-75.8 170.7-169.7 170.7s-169.7-77.7-169.7-170.7c0-93.5 74.7-170.7 169.7-170.7h0zm0-42.8c-118 0-215.4 95.9-215.4 214.1 0 118.7 97.4 213 215.5 213s215.5-94.2 215.5-213C701.4 95.9 604 0 485.9 0h0zm324.7 49.5h17.1c54.1 0 108.7 4.9 108.7 72.3 0 59.2-43.6 74.5-94.9 74.5h-30.9V49.5h0zm0 189.7h33.7c34.8 0 70.6-4.4 98.7-27.5 25.6-21.4 39.2-55.4 39.2-88.8 0-36.7-15.8-72.9-46.3-94.3-30.4-20.9-67.4-22-103.2-22h-67.8v413.7h45.8l-.1-181.1h0zm416.8-151.5c-16.5-28.5-36.3-44.9-71.5-44.9-36.9 0-68.8 26.3-68.8 64 0 35.6 36.9 52 65 64.5l27.5 12c53.9 23.6 99.2 50.3 99.2 116 0 72.2-57.9 127.6-130 127.6-66.6 0-115.7-42.8-128.8-106.8l44.8-12.6c6 42.1 38.3 76.6 82.9 76.6s85.3-33.9 85.3-80.4c0-48.2-38-64.6-76.5-82.1l-25.3-10.9c-48.4-21.9-89.8-46.5-89.8-105.6 0-64 54-105.2 115.7-105.2 46.2 0 85.2 23.6 107 64.2l-36.7 23.6h0zm377.6 86.8V6.7h45.8v413.8H1605V217.3h-212.6v203.1h-45.8V6.7h45.8v167.9H1605v-.1zm325.8-131.7c95 0 169.7 77.1 169.7 170.7 0 93-75.8 170.7-169.7 170.7s-169.7-77.7-169.7-170.7c0-93.5 74.7-170.7 169.7-170.7h0zm0-42.8c-118.1 0-215.5 95.9-215.5 214.1 0 118.7 97.4 213 215.5 213s215.5-94.2 215.5-213C2146.2 95.9 2048.9 0 1930.8 0h0zm324.1 49.5h17.1c54.1 0 108.8 4.9 108.8 72.3 0 59.2-43.6 74.5-94.9 74.5H2255l-.1-146.8h0zm0 189.7h33.7c34.8 0 70.7-4.4 98.7-27.5 25.6-21.4 39.2-55.4 39.2-88.8 0-36.7-15.8-72.9-46.3-94.3-30.4-20.9-67.3-22-103.2-22h-67.8v413.7h45.7V239.2z" fill-rule="evenodd"/></svg>