<?xml version="1.0" encoding="utf-8"?>
<svg version="1.1" id="Layer_1" xmlns="http://www.w3.org/2000/svg" xmlns:xlink="http://www.w3.org/1999/xlink" x="0px" y="0px"
	width="100px" height="100px" viewBox="0 0 100 100" style="enable-background:new 0 0 100 100;" xml:space="preserve">
<g>
	<path style="fill:#E8E8E8;" d="M50,0c27.6,0,50,22.4,50,50s-22.4,50-50,50S0,77.6,0,50S22.4,0,50,0"/>
	<path style="fill:#FFFFFF;" d="M50,1c27.1,0,49,21.9,49,49S77.1,99,50,99S1,77.1,1,50S22.9,1,50,1"/>
	<g>
		<path style="fill:#0073B1;" d="M75.4,20.2H24.6c-2.4,0-4.4,1.9-4.4,4.3v50.9c0,2.4,2,4.3,4.4,4.3h50.7c2.4,0,4.4-1.9,4.4-4.3V24.5
			C79.8,22.2,77.8,20.2,75.4,20.2z"/>
		<path style="fill:#FFFFFF;" d="M29.1,42.6h8.8V71h-8.8V42.6z M33.5,28.4c2.8,0,5.1,2.3,5.1,5.1c0,2.8-2.3,5.1-5.1,5.1
			c-2.8,0-5.1-2.3-5.1-5.1C28.4,30.7,30.6,28.4,33.5,28.4"/>
		<path id="XMLID_3_" style="fill:#FFFFFF;" d="M43.4,42.6h8.5v3.9H52c1.2-2.2,4.1-4.6,8.4-4.6c8.9,0,10.6,5.9,10.6,13.5V71h-8.8
			V57.1c0-3.3-0.1-7.5-4.6-7.5c-4.6,0-5.3,3.6-5.3,7.3V71h-8.8V42.6z"/>
	</g>
</g>
</svg>
