<?xml version="1.0" encoding="utf-8"?>
<svg version="1.1" id="Layer_1" xmlns="http://www.w3.org/2000/svg" xmlns:xlink="http://www.w3.org/1999/xlink" x="0px" y="0px"
	width="100px" height="100px" viewBox="0 0 72.2 72.2" style="enable-background:new 0 0 72.2 72.2;" xml:space="preserve">
<g>
	<circle style="fill:#E8E8E8;" cx="36.1" cy="36.1" r="36.1"/>
	<circle style="fill:#FFFFFF;" cx="36.1" cy="36.1" r="35.4"/>
	<path vector-effect="non-scaling-stroke" style="fill:#F05523;" d="M59,43.9H13.1c-2.7,0-4.8-2.2-4.8-4.8l0,0
		c0-2.4,1.8-4.4,4.2-4.8l45.9-6.1c2.9-0.4,5.4,1.9,5.4,4.8v6.1C63.9,41.8,61.7,43.9,59,43.9z"/>
	<path vector-effect="non-scaling-stroke" style="fill:#FFFFFF;" d="M41.8,39.5c-0.9,0-1.6-0.7-1.6-1.6c0-0.9,0.7-1.6,1.6-1.6
		c0.5,0,0.9,0.2,1.2,0.5l1.2-0.1c-0.4-0.9-1.4-1.5-2.4-1.5c-1.4,0-2.7,1.2-2.7,2.6s1.2,2.6,2.7,2.6c1.1,0,1.9-0.6,2.4-1.5H43
		C42.7,39.3,42.3,39.5,41.8,39.5z M14.3,39c-0.3,0.4-0.7,0.5-1.2,0.5c-0.9,0-1.6-0.7-1.6-1.6c0-0.9,0.7-1.6,1.6-1.6
		c0.5,0,0.9,0.2,1.2,0.5l1.2-0.1c-0.4-0.9-1.4-1.5-2.4-1.5c-1.4,0-2.7,1.2-2.7,2.6s1.2,2.6,2.7,2.6c1.1,0,1.9-0.6,2.4-1.5L14.3,39z
		 M53.1,35.4c-0.6,0-1.2,0.2-1.6,0.5v-4.3l-1.1,0.1v6.1V38v0.1v2.4h1.1V40c0.4,0.4,0.9,0.5,1.6,0.5c1.4,0,2.6-1.2,2.6-2.6
		C55.8,36.5,54.5,35.4,53.1,35.4C53.1,35.4,53.1,35.4,53.1,35.4z M53.1,39.5c-0.9,0-1.7-0.7-1.7-1.6c0-0.9,0.7-1.5,1.7-1.5
		c0.9,0,1.6,0.7,1.6,1.6C54.7,38.9,54,39.5,53.1,39.5z M24.7,38c0,1.4-1.2,2.6-2.7,2.6c-1.4,0-2.7-1.2-2.7-2.6
		c0-1.4,1.2-2.6,2.7-2.6C23.5,35.4,24.7,36.5,24.7,38z M22.1,36.4c-0.9,0-1.6,0.7-1.6,1.6c0,0.9,0.7,1.6,1.6,1.6
		c0.9,0,1.6-0.7,1.6-1.6C23.7,37.1,23,36.4,22.1,36.4z M37.4,33.6v2.2c-0.5-0.4-1-0.5-1.6-0.5c-1.4,0-2.7,1.2-2.7,2.6
		c0,1.4,1.2,2.6,2.7,2.6c0.6,0,1.2-0.2,1.6-0.5v0.5h1.1v-7.1C38.5,33.5,37.4,33.6,37.4,33.6z M35.8,39.5c-0.9,0-1.6-0.7-1.6-1.6
		c0-0.9,0.7-1.6,1.6-1.6c0.9,0,1.7,0.7,1.7,1.6C37.4,38.8,36.7,39.5,35.8,39.5z M19.3,35.3H19c-0.6,0-1.2,0.2-1.4,0.5
		c0,0,0,0.1-0.1,0.1v-0.6h-1.1v5.2h1V38v-0.3c0.1-0.9,0.8-1.4,1.6-1.4h0.3L19.3,35.3C19.3,35.3,19.3,35.3,19.3,35.3z M48.5,35.4v2.9
		l0,0v0.4c-0.1,0.6-0.6,0.9-1.2,0.9c-0.6,0-1.2-0.4-1.3-1.1v-0.2v-2.9h-1.1v2.9c0,1.3,1,2.4,2.4,2.4c0.5,0,1.1-0.1,1.3-0.5v0.4h1.1
		v-5.2H48.5C48.5,35.4,48.5,35.4,48.5,35.4z M28,40.5l1-3.7l1,3.7h1.5l1.4-5.2h-1.2l-1.1,4l-1-4h-1.3l-1.1,4l-1.1-4H25l1.4,5.2
		C26.5,40.5,28,40.5,28,40.5z M61.3,38.2h0.4v-0.3c0-1.4-1.2-2.6-2.7-2.6c-1.4,0-2.7,1.2-2.7,2.6s1.2,2.6,2.7,2.6
		c1,0,1.9-0.6,2.4-1.4l-1.2-0.2c-0.3,0.4-0.7,0.6-1.2,0.6c-0.8,0-1.4-0.5-1.6-1.3h3.1L61.3,38.2L61.3,38.2L61.3,38.2L61.3,38.2
		L61.3,38.2z M59,36.4c0.6,0,1.2,0.4,1.4,0.9h-2.9C57.9,36.8,58.4,36.4,59,36.4z"/>
</g>
</svg>
