<svg xmlns="http://www.w3.org/2000/svg" viewBox="0 0 180.1 40.3" fill="#cb1331"><path d="M99.3 8.4c-5 0-9.4 1.2-11.8 2 .1.3 1 5 1.2 5.6 2.9-1 6.8-1.7 9.3-1.7 4.1 0 5.9 1.2 5.9 4.1v1.2c-12.8 0-18.2 4.6-18.2 10.4 0 6.5 6 10.3 14.5 10.3 5.6 0 10.4-.9 12.5-1.6v-20c-.1-7-4.5-10.3-13.4-10.3zm4.6 25.8c-.8.2-2.3.3-3 .3-3 0-6.1-1.2-6.1-4.6s2.9-5 9.1-4.9v9.2zm-73 .1c-5.1 0-8.2-3.7-8.2-9.8 0-6.2 3.5-10.3 8.6-10.3 1.2 0 2.5.3 3.6.7l1.5-5.4c-1.8-.8-4.3-1.2-6.5-1.2-9.1 0-16 6.9-16 16.7 0 9.1 6.3 15.2 15.8 15.2 2.4 0 5.7-.7 7.5-1.4l-1.4-5.3a16.03 16.03 0 0 1-4.9.8zM171.2 0v8.8c-1-.2-2.4-.4-4.4-.4-7.5 0-15.5 5.1-15.5 16.1 0 9.8 6.4 15.7 17.1 15.7 4.5 0 9.6-.7 11.7-1.3V0h-8.9zm0 34.3c-.8.1-1.8.2-2.4.2-5.5 0-8.7-3.8-8.7-10.2 0-4.9 2.1-10 8.2-10 .8 0 2.3.1 2.9.3v19.7zM53.4 8.4c-6.9 0-14.4 5-14.4 16.1 0 9.8 6.6 15.7 17.5 15.7 3.3 0 6.9-.7 8.8-1.4l-1.2-5.3c-1.7.6-4.2.9-6.3.9-6.9 0-9.1-3-9.6-5.7l18.8-4C66.9 11 58.7 8.4 53.4 8.4zm-5.7 14.2c-.1-5.3 2.1-8.4 5.6-8.4 2.9 0 4.8 2.1 5.1 6.1l-10.7 2.3zM71.9 0h8.8v39.6h-8.8zM0 0h8.8v39.6H0zm132.6 8.4c-5.4 0-11.6 1.1-13.8 1.5v29.7h8.8v-25c1.3-.3 3.2-.5 4.8-.5 3.2 0 5.4.9 5.4 5.2v20.3h8.8V18.8c-.1-7.1-4.4-10.4-14-10.4z"/></svg>