<svg xmlns="http://www.w3.org/2000/svg" viewBox="0 0 127.69 191.25" fill="#420147"><path d="M88.23 45.07a27.93 27.93 0 0 1 4.74-6.13c2.89-2.8 6.45-4.37 8.84-4.37a10.32 10.32 0 0 1 3.83.86c.41 0 .77-.59 1.35-.77.23 0 .18-.14.41-.14s.81.5.81.77-.09.23-.14.41c-.14.63-.68.95-.68 1.35s1.22 1.13 1.22 4.15-1.85 7.26-4.46 10.37a22.73 22.73 0 0 1-3.47 3.25c-.32.32-.45.9-.81 1.22s-.59 0-.72.32a.71.71 0 0 1-.81.27c-.27-.09 0 .14-.32.27-.2.09-.41.15-.63.18-.32.09-.14.27-1 .45.64.07 1.3.07 1.94 0 .32 0 1.22-.27 1.53-.27s.32-.09.63-.09h.45c.18 0 .77-.27 1.13 0 .14-.14.77-.09.9-.09s.23.18.45.23c.32.01.64.04.95.09a.77.77 0 0 1 .36.23c.48-.04.94.14 1.26.5.27.32.45.09.59.23s.59.27.68.54 0 .23 0 .32.41.09.5.14.18.18.27.27.41.23.32.59a1 1 0 0 1 .9.9v.32c.09.08.2.15.32.18.29.28.44.68.41 1.08-.09.27 0 .23 0 .41 0 2.75-5.14 5-12.09 5-2.66 0-3.7-1.08-3.83-1.44-.07-.16-.1-.33-.09-.5a.91.91 0 0 1-.14-.95c-.09-.17-.14-.35-.14-.54 0-.63.27-.59.27-.81v-.36c0-.32.14-.36.23-.81s.14-.09.32-.41.18-.09.18-.5.09-.45.5-.59c0 0 .09-.59.54-.63.18 0 .09-.23.18-.45s.36 0 .45-.27c.24-.33.6-.55 1-.63-1.71 0-2.75.41-3.47.36-1.01-.09-2.04.03-3 .36-2.8.63-7.85 3.2-10.37 4.78-3.16 1.94-11.32 7.62-14 12.58-.45.77-1.35 5.41-2.48 9.61-1.26 4.83-2.8 9.47-2.89 10.28.72-1 1.44-1.71 2.25-1.71 1.4 0 1.08 1.71 1.22 1.85s.23-.36.23-.81c.02-.9.28-1.77.77-2.53a16.65 16.65 0 0 1 3.7-3.7c1.58-1.26 2.66-4.46 3.47-6.85s2.39-5 4.51-5a3.39 3.39 0 0 1 2.71 1.85c.36.68.81 2.07 1.31 2 1.22-.23 4.19-6.81 6.72-9.42 1.17-1.22 2.48-2.75 4.74-2.75 4 0 3.38 5.55 5 5.55 1 0 1.76-1.58 2.25-2.25 1-1.44 4.24-4.06 6.13-4.06s2.16 1.49 2.16 2.84c0 1.08-.27 2 .81 2 .68 0 2.62-3.43 5.05-3.43 1.04-.07 1.93.72 2 1.76v.09c0 1.13-.18 1.76-.18 2.12s.32.59.77.59 1-.14 1.49-.14c1.06-.05 1.96.77 2 1.83v.24c-.11 1.53-.81 2.96-1.94 4-.45.5-.59.86-.23 1.44.59.95 1.49 1.13 1.49 1.94a2.76 2.76 0 0 1-2.44 2.89c-1.13.27-3.25.36-3.25 1.85 0 1.31 1.71 2.16 1.71 4.42a2.65 2.65 0 0 1-1.67 2.53c-1.52.61-3.14.91-4.78.9-1.31 0-3.16-.27-4.19-.27s-2 0-2 .68c0 1.17 2.44 2.07 2.44 4.55s-3.92 3-6.22 3a20.92 20.92 0 0 1-7.13-1.26c-1.17-.41-3.56-1.62-5.37-1.62-1 0-1.58.36-1.58.81 0 .77 1.85 2.12 1.85 4 0 1.58-1.31 2.21-2.57 2.21-4.46 0-7.44-5.28-13.89-5.28-1.62 0-2.3.68-4.24.68-2.48 0-3.2-.86-3.16-2.3-1.58.72-3.52 2.3-3.52 4.42 0 1.67.18 2.57.81 3.2s1.4.9 1.53 1.44c.45.45-.18 1.62.09 3.74a22.29 22.29 0 0 0 1 4.33c.23.5-1.58.68-2.07.68-.81 0-3.56 0-3.65-.68-.7-3.95-1.6-7.86-2.71-11.72-.9-2.34-1.26-2.12-2.75-3.25-1.26-1-7.22-5.1-10.37-5.1-.86 0-.41-.14-1.08-.14-.45 0-.09-.09-.36-.09s-.23.23-.68.23c-.27 0-.09.77-.27.77s-.18.27-.23.59-.32.5-.36.77-.36 0-.36.32.14.32 0 .5c-.27.36-.23.54-.45.54s-.23.09-.23.18c0 .41.18.36-.09.59s-.63.23-.63.59c0 .14-.09.23-.14.36-.19.03-.36.15-.45.32-.09.14 0-.09-.23.23s-.14.27-.36.27c-.63 0-.41.32-1.26.32-3 0-6.49-5.14-6.49-9.24-.12-1.14.05-2.29.5-3.34a1.48 1.48 0 0 1 .86-1.17c.36 0 .23-.18.63-.14 0-.23.32-.27.5-.36.26-.15.59-.11.81.09a.73.73 0 0 1 .5-.23c.27 0 .36.27.54.27s.23-.09.5-.09c.26 0 .51.08.72.23.14 0 .23-.14.41-.09s.41.14.45.32c.28-.03.56.05.77.23a.92.92 0 0 1 .32.41c.27 0 .14-.18.54 0 .27.12.49.33.63.59.23.32.18 0 .5.23.5.32.27.5.5.68.13-.01.27.04.36.14.23.18 0 .32.23.41s.18 0 .23.32.36.36.63.72.63.68.77.68.14-.18-.14-.54-.36-.27-.63-1c-.09-.23-.32-.14-.32-.5s-.41-.59-.41-.81 0-.32-.14-.41c-.11-.05-.19-.15-.23-.27-.14-.36 0-.36 0-.59s-.23 0-.27-.14a2.91 2.91 0 0 1 0-.59c0-.18-.18-.09-.18-.41v-.5c0-.32-.18-.23-.23-.5s.09-.23.09-.54-.09 0-.09-.32.14-.23.14-.63c.03-.16.07-.31.14-.45 0-.18-.14-.18 0-.36.45-.68 1.17-1.76 4.83-1.76 4.51 0 8.57 1.13 10.28 3.43.14.18.32.18.36.59s.18.36.18.86c-.06.29-.14.58-.23.86-.09.54.09 1.08-.23 1.08s-.09.9-.36.9 0 .32-.45.32 0 .9-.45 1c-.14 0-.45-.09-.54.36 0 .18-.23.63-.54.68s-.27.09-.5.27c-.59.54-.18.63-.36.81-.45.45-.54-.5-.86-.14-.14.18-.23.18-.23.36 0 .41-.09.27-.41.18s-.68.32-.54.45 0 .27-.27.09-.27 0-.41-.09-.5 0-.5.23 0 .36-.09.36-.09-.36-.32-.36a3.38 3.38 0 0 0-.45 0 33.24 33.24 0 0 0 4.28 2.3c2 1.13 3.47 2.3 4.46 2.3 1.31 0 4.92-8.93 4.69-13.08a10.33 10.33 0 0 1-.09-1.76c.09-.41-.86-.36-.86-2.12a3.15 3.15 0 0 1 .41-1.62 1.61 1.61 0 0 1 .95-.5c.51.16.93.52 1.17 1 .69-2.04 1.13-4.16 1.31-6.31a2.23 2.23 0 0 0-.36-1.26 7.35 7.35 0 0 1-3.11-2.25c-.09-.14-.27-.23-.36-.14s0 .14 0 .45c-.18.91-.96 1.59-1.89 1.62-2 0-2.53-.9-4.74-.9-.88-.01-1.74.31-2.39.9-1.09.87-2.37 1.45-3.74 1.71-2 0-1-2.84-2.25-2.84-.95 0-.95 1.49-1.26 2.48-.59 1.58-4.24 5.91-6.27 5.91s-1.22-3.47-2.39-3.47c-.72 0-1.17 1-1.4 1.71a18.21 18.21 0 0 1-3.25 6.4c-1.17 1.35-2.8 3.83-4.6 3.83s-1.31-2.8-2.16-3.43c-.41-.32-1.17-.68-1.62.18-.9 1.8-1.94 5.28-4.55 5.28a1.9 1.9 0 0 1-2-1.79v-.21a5.38 5.38 0 0 0-.18-1.49c-.14-.5-.27-.95-.77-.95s-.77.23-1.08 1.08a4.34 4.34 0 0 1-3.83 2.8c-2 0-2.71-.81-2.75-1.4 0-.81.18-1.94-1.4-1.53S.54 89.2.54 88.21c0-1.85 1.26-3.2 1.26-3.83 0-.81-1.8-1.22-1.8-3.2 0-4.37 4.64-3.2 4.64-5.23 0-1.85-3.29-2.71-3.29-4.64 0-3.92 5.19-4.64 6.13-4.64s2.07.32 2.62.32 1.94-.27 1.94-.9a4.98 4.98 0 0 0-1.08-2.21c-.54-.72-1.22-1.35-1.22-2.21 0-2.75 2.89-3.74 4.87-3.74a21.14 21.14 0 0 1 7.76 1.26c1.13.5 2.07 1.31 3.07 1.31.5 0 .81-.18.81-.63 0-.9-1.53-2.07-1.53-3.83.13-1.7 1.6-2.97 3.3-2.84h.04c2.39.21 4.71.96 6.76 2.21 1.58 1 4.33 3.61 5.59 3.61s-.18-4.19 2.84-4.19c2.62 0 5.86 2.84 8 6.9.64 1.14 1.53 2.13 2.61 2.87 1.98 1.44 3.32 3.59 3.74 6 .09.68.5 1 .63 1-.14-.68-.23-2 .68-2.16s2.21.9 2.57 1.35c.27-.54-.45-2.44-.68-3s-1.4-4.6-1.71-5.32-1.67-4.06-2.12-4.92c-.73-1.1-1.77-1.95-3-2.44-.96-.67-1.84-1.46-2.62-2.34-.32-.27-.32-.23-.5-.23-.41.65-1.13 1.03-1.89 1-1.53 0-3.38-2.39-5.28-3.38-2.34-1.11-4.86-1.81-7.44-2.07a18.66 18.66 0 0 1-5.46-1.71c-.8-.45-1.3-1.29-1.31-2.21 0-1.49 1.85-2.39 2.3-2.57s.9-.45.9-.77-.81-.81-1.35-1.13c-1.08-.48-2.25-.69-3.43-.63-1.85-.06-3.68-.43-5.41-1.08-1.4-.63-4.46-2.8-4.46-4.6-.04-1.18.61-2.27 1.67-2.79 1-.54 2.8-1.08 2.8-1.89 0-.59-.63-.72-1-1a22.09 22.09 0 0 0-4-1c-1.31-.27-6.76-1.31-6.76-4.69 0-3.2 4.78-3.29 4.78-4s-1.4-1.17-2.93-2.07c-1.76-1.13-3.65-2.66-3.65-4.15 0-3 4.28-2.12 4.28-3.2a1.79 1.79 0 0 0-.45-.86l-1.17-1.4c-.48-.48-.81-1.09-.95-1.76 0-1.22 1.26-1.22 1.26-1.76 0-.36-.14-.45-.14-.77 0-.81.9-1.67 2.62-1.26.47.14.96.17 1.44.09.54-.09.86-.86 2-.86 1.49 0 2.16 1.58 2.53 2s.45.77.77.77.54-1.13 1-1.71c.45-.6 1.14-1 1.89-1.08 2.39 0 4.28 2 5.28 4.15.18.45.5 1 .81 1 .95 0 1.76-3.92 4.6-3.92 1.19-.07 2.36.37 3.2 1.22 1 .95 1.22 3 1.71 4.42s.18 4.92.18 5.64.18 2.8.81 2.8c1.13 0 2.21-2.89 4.92-2.89 1.17 0 3 1.62 3 5.41 0 4.1-1.8 5.46-1.8 8.43 0 .59.09 1.17.63 1.17s.86-.9 1.17-1.26a3.42 3.42 0 0 1 2.62-.9c1.44 0 2.12 1.35 2.12 3.2 0 1.26-.77 6.31-.77 8.88s.9 3.88.9 6.94c0 2.39-1.13 3.88-1.13 4.92 0 .45.59 1.22 1 1.08a2.3 2.3 0 0 1 .41-2.44c.36-.14.77-.14 1.13 0-.32-2 .5-3.92 1.17-4.06 1-.23 2.93 1.67 3.07 2 .23-.3.57-.5.95-.54.68.1 1.29.46 1.71 1a1.23 1.23 0 0 0 .16-.65c0-.5-.95-3-.95-5.14 0-2.57 1.22-5 1.22-6.94 0-3.79-1.22-6.09-1.22-7.89 0-3.79 1.13-5.77 2.93-5.77s2.7 1.74 3.79 1.74c.81 0 1.26-1.53 1.4-2.48.63-4.33.95-13.66 5.68-15.87a2.57 2.57 0 0 1 3 .77c1.67 1.71 2 3.74 3.25 3.74.9 0 2.07-2.21 2.53-3.16.68-1.49 3-4 5.37-4 4.06 0 2.62 4.42 4.6 4.42s3.65-3.79 7-3.79a2.3 2.3 0 0 1 2.07 2.25c0 .81-.09 1.4-.09 1.8s0 .9.45.9 1.76-1.4 2.75-1.4c1.71 0 1.31 1.67 2.12 2.21.45.32 2.16.45 2.16 2.21 0 2.25-2.16 2.21-2.16 3.25 0 .72 1.85 1.26 1.85 2.53a3.3 3.3 0 0 1-2.44 2.93c-.86.09-3.7 0-3.7 1.22 0 .27.72.68 1.31 1.22.89.57 1.47 1.52 1.58 2.57 0 1.58-1.76 3.11-7.26 3.11-.9 0-1.13-.09-2.07-.09-.62 0-1.24.08-1.85.23-1 .27-1.89.63-1.89 1.13 0 1.58 3.11 1.53 3.11 3.47 0 1.44-1 2.44-2.34 3.16a17.47 17.47 0 0 1-6.36 1.85c-1.95-.02-3.9-.19-5.82-.5-1 0-1.8.36-1.8.95s.63 1 1.53 1.49c.59.32 2.93 1.13 2.93 3.07s-3.38 3.11-4.83 3.38a14.84 14.84 0 0 0-8.43 4.28c-1.31 1.26-4.1 4.69-6.9 3.34-1.17 1.71-2.93 3.43-3.16 4.92-.41 2.53 3.34 14.3 5 14.3 1 0 2.48-1.31 4.6-2.75 1.4-.9 2.89-1.94 4.55-3.11 7.31-5 13.39-7.53 13.39-8.52 0-.77-.63-1.4-.86-1.8s-.41-.5-.59-.81c-.1-.22-.19-.45-.27-.68-.17-.25-.31-.52-.41-.81a.97.97 0 0 1 0-.63c-.27-.09-.27-.32-.27-.59v-.54c0-.27-.18-.09-.18-.5s.18-.5.18-.81c0-.09-.32-.27-.32-.5 0-.41.32-.5.32-.77s-.23-.18-.23-.45c0-.9.27-.77.36-1a1.07 1.07 0 0 1 .36-.95c.32-.23.68-.68.95-.63-.14.18 0-.14.36-.09M8.69 190.77v-22.54H.12v-2.57h22v2.57h-8.65v22.54zm35.44-3.38a4.59 4.59 0 0 1-4.64 3.7c-3.34 0-5-2.62-5-5.91v-10.64l4.69-.36v11.63c0 2.21 1 3.25 2.48 3.25 1.06-.08 1.99-.71 2.44-1.67m5.26.21c0 1.67.23 2.62 1.4 2.62-.81.47-1.72.72-2.66.72a3.12 3.12 0 0 1-3.43-2.77 4.09 4.09 0 0 1 0-.7v-12.9l4.69-.36v13.39z"/><path d="M66.09 175.71c2.41-1.34 4.43-3.29 5.86-5.64h.59v4.28h4v1.8h-4v10.33a2.64 2.64 0 0 0 2.39 2.88l.41.01c.98.01 1.91-.48 2.44-1.31-.45 1.4-1.8 3-4.69 3-3.43 0-5.19-2.57-5.19-5.91v-9.06h-1.85v-.41l.04.03zm-40.45 2.03c.72-2.12 2.25-3.92 4.69-3.92.49.01.98.1 1.44.27l-.41 3.2c-2.21-1.49-4.78 0-5.37 2.66v10.82h-4.55v-16.28l4.24-.36-.04 3.61z"/><path d="M57.86 189.6c-1.88-.08-3.56-1.17-4.42-2.84l-.41 3a9.9 9.9 0 0 0 5.1 1.49c4 0 6.4-2.48 6.4-5.1 0-3.11-2.25-4.33-4.24-5.46s-3.65-1.58-3.65-3.25c.12-1.17 1.16-2.01 2.32-1.9.02 0 .05.01.07.01 1.46.14 2.76.96 3.52 2.21l.54-2.75c-1.3-.66-2.73-1-4.19-1-3.83 0-5.82 2.39-5.82 5s1.85 4.15 3.79 5.19 3.88 1.67 3.88 3.29c0 1.26-1.22 2.21-2.89 2.21m65.23-31.3v-25.26l4.6-.36v25.62z"/><path d="M44.45 143.2c2.41-1.34 4.43-3.29 5.86-5.64h.55v4.28h4v1.76h-4v10.33a2.64 2.64 0 0 0 2.39 2.88l.41.01c.98.01 1.91-.48 2.44-1.31-.45 1.4-1.8 3-4.69 3-3.38 0-5.19-2.57-5.19-5.91v-9h-1.85v-.41l.08.01zm14.97-8.66c-.01.99.79 1.79 1.78 1.8h.07c.99-.03 1.78-.86 1.75-1.85s-.86-1.78-1.85-1.75a1.81 1.81 0 0 0-1.75 1.8m4.15 23.86v-16.64l-4.65.4v16.24zm38.73-3.07c0 1.67.23 2.62 1.4 2.62-.81.47-1.72.72-2.66.72a3.12 3.12 0 0 1-3.43-2.77 4.09 4.09 0 0 1 0-.7v-8.8c0-1.85-1-2.89-2.39-2.89-.99 0-1.93.47-2.53 1.26.68-2.04 2.63-3.38 4.78-3.29 3.07 0 4.83 2.3 4.83 5.23v8.62z"/><path d="M92.11 158.4h-4.69v-16.28l4.69-.36zm-16.64-1.13c-2.25 0-3.65-2.12-3.65-7.08s1.4-7.08 3.65-7.08 3.65 2.16 3.65 7.08-1.4 7.08-3.65 7.08m0-15.78c-4.78-.08-8.72 3.74-8.8 8.52s3.74 8.72 8.52 8.8 8.72-3.74 8.8-8.52v-.14c.08-4.7-3.66-8.58-8.36-8.66h-.16m43.29 13.84c0 1.67.23 2.62 1.31 2.62-.74.48-1.6.73-2.48.72-1.8 0-3.16-1-3.16-3.47v-5.77c-3.16 1.62-4.24 2.93-4.24 5 0 2.66 2.66 3 3.7 1.62-.55 1.54-2.01 2.57-3.65 2.57-2.24.14-4.18-1.56-4.32-3.8 0-.07-.01-.13-.01-.2 0-3.92 4.92-5 8.52-6.76v-1.67c0-1.67-.9-2.57-2.89-2.57a11.42 11.42 0 0 0-3.7.77v-2c1.41-.47 2.88-.72 4.37-.72 3.07 0 6.49 1.13 6.49 6v7.67l.06-.01zm-77.11 0c0 1.67.23 2.62 1.31 2.62-.74.48-1.6.73-2.48.72-1.8 0-3.16-1-3.16-3.47v-5.77c-3.16 1.62-4.24 2.93-4.24 5 0 2.66 2.66 3 3.65 1.62-.55 1.54-2.01 2.57-3.65 2.57-2.24.14-4.18-1.56-4.32-3.8 0-.07-.01-.13-.01-.2 0-3.92 4.92-5 8.52-6.76v-1.67c0-1.67-.9-2.57-2.89-2.57a10.64 10.64 0 0 0-3.65.77v-2c1.41-.47 2.88-.72 4.37-.72 3.07 0 6.49 1.13 6.49 6v7.67l.06-.01zM5.84 141.12v17.28H2.87v-25.53h1.17l18.54 17.68v-17.41h2.79v25.57h-1.04z"/></svg>