<?xml version="1.0" encoding="utf-8"?>
<svg version="1.1" id="Layer_1" xmlns="http://www.w3.org/2000/svg" xmlns:xlink="http://www.w3.org/1999/xlink" x="0px" y="0px"
	width="100px" height="100px" viewBox="0 0 100 100" style="enable-background:new 0 0 100 100;" xml:space="preserve">
<g>
	<path style="fill:#E8E8E8;" d="M50,0c27.61,0,50,22.39,50,50s-22.39,50-50,50S0,77.61,0,50S22.39,0,50,0"/>
	<path style="fill:#FFFFFF;" d="M50,1c27.06,0,49,21.94,49,49S77.06,99,50,99S1,77.06,1,50S22.94,1,50,1"/>
	<g>
		<g>
			<g id="g2115">
				<path id="path2113" style="fill:#0F7FCA;" d="M31.19,39.24c1.98-2.61,5.07-4.16,8.35-4.18c5.76,0,10.44,4.67,10.44,10.43
					s-4.67,10.44-10.43,10.44S29.1,51.26,29.1,45.5c0-0.88,0.11-1.76,0.33-2.61c0.24-0.93,1.08-1.57,2.04-1.56
					c1.15,0,2.34,1.03,2,2.6c-0.13,0.51-0.2,1.04-0.2,1.57c0,3.46,2.8,6.26,6.26,6.26c3.46,0,6.26-2.8,6.26-6.26
					c0-3.46-2.8-6.26-6.26-6.26l0,0L31.19,39.24z"/>
			</g>
		</g>
		<g>
			<g id="g2119">
				<path id="path2117" style="fill:#0F7FCA;" d="M15.41,53.86c0,1.15-0.94,2.09-2.09,2.08c-1.15,0-2.08-0.93-2.08-2.08V43.41
					c0-1.15,0.94-2.09,2.09-2.08c1.15,0,2.08,0.93,2.08,2.08V53.86z"/>
			</g>
		</g>
		<g>
			<g id="g2123">
				<path id="path2121" style="fill:#0F7FCA;" d="M23.45,41.02c0.41-0.41,0.41-1.07,0-1.47c-0.2-0.2-0.46-0.31-0.74-0.31h-9.39
					c-1.15,0-2.09-0.93-2.09-2.08c0,0,0,0,0,0c-0.01-1.14,0.91-2.07,2.04-2.08c0.01,0,0.01,0,0.02,0l9.41,0
					c2.89,0.01,5.22,2.35,5.22,5.24c0,1.48-0.64,2.9-1.74,3.89l-4.99,4.99c-0.31,0.27-0.47,0.66-0.46,1.07
					c-0.01,0.83,0.66,1.51,1.49,1.51c0.01,0,0.01,0,0.02,0l3.6,0c1.15,0,2.09,0.94,2.08,2.09c0,1.15-0.93,2.08-2.08,2.08h-3.6
					c-3.14-0.02-5.68-2.57-5.68-5.72c0.03-1.5,0.63-2.93,1.69-4L23.45,41.02z"/>
			</g>
		</g>
		<g>
			<g id="g2127">
				<path id="path2125" style="fill:#0F7FCA;" d="M72.33,45.16c-2.69-1.05-4.01-4.08-2.96-6.77c0.78-2,2.72-3.32,4.86-3.32
					l9.38-0.01c1.15,0,2.09,0.93,2.09,2.08s-0.93,2.09-2.08,2.09c0,0-0.01,0-0.01,0h-9.38c-0.58,0-1.04,0.47-1.04,1.04
					c0,0.41,0.24,0.78,0.61,0.95l8.26,3.75c2.92,1.11,4.39,4.39,3.27,7.31c-0.84,2.2-2.96,3.65-5.31,3.64l-8.93,0
					c-1.15,0-2.08-0.93-2.08-2.08c0-1.15,0.93-2.08,2.08-2.08l8.93-0.01c0.83,0.01,1.51-0.66,1.51-1.49c0-0.01,0-0.01,0-0.02
					c0-0.64-0.4-1.21-1-1.42L72.33,45.16z"/>
			</g>
		</g>
		<g>
			<g id="g2131">
				<path id="path2129" style="fill:#0F7FCA;" d="M54.46,45.16c-2.69-1.05-4.01-4.08-2.96-6.77c0.78-2,2.72-3.32,4.86-3.32
					l9.38-0.01c1.15,0,2.09,0.93,2.09,2.08c0,1.15-0.93,2.09-2.08,2.09c0,0-0.01,0-0.01,0h-9.38c-0.58,0-1.04,0.47-1.04,1.04
					c0,0.41,0.24,0.78,0.61,0.95l8.26,3.75c2.92,1.11,4.39,4.39,3.27,7.31c-0.84,2.2-2.96,3.65-5.31,3.64l-8.93,0
					c-1.15,0-2.08-0.93-2.08-2.08c0-1.15,0.93-2.08,2.08-2.08l8.93-0.01c0.83,0,1.51-0.68,1.51-1.51c0-0.64-0.4-1.21-1-1.42
					L54.46,45.16z"/>
			</g>
		</g>
		<g>
			<g id="g2135">
				<path id="path2133" style="fill:#0F7FCA;" d="M12.51,63.69h0.79c1.03,0,1.86-0.84,1.86-1.87c0-1.03-0.83-1.86-1.86-1.86h-1.41
					c-0.34,0-0.62-0.28-0.62-0.62c0-0.34,0.28-0.62,0.62-0.62c0,0,0,0,0,0l1.41,0c1.72,0.01,3.1,1.4,3.1,3.12
					c-0.01,1.71-1.39,3.09-3.1,3.1h-1.41c-0.34,0-0.62-0.27-0.62-0.61v-3.12c0-0.34,0.27-0.62,0.62-0.62c0.34,0,0.62,0.27,0.62,0.62
					c0,0,0,0,0,0.01V63.69z"/>
			</g>
		</g>
		<g>
			<g id="g2139">
				<path id="path2137" style="fill:#0F7FCA;" d="M23.98,63.69h2.75c0.34,0,0.62,0.28,0.62,0.63c0,0.34-0.28,0.62-0.62,0.62h-3.38
					c-0.34,0-0.62-0.28-0.62-0.62v-3.11c0-0.34,0.28-0.62,0.62-0.63h3.38c0.34,0,0.62,0.28,0.62,0.63c0,0.34-0.28,0.62-0.62,0.62
					h-2.75V63.69z"/>
			</g>
		</g>
		<path id="path2141" style="fill:#0F7FCA;" d="M26.73,59.97c0.34,0,0.62-0.28,0.62-0.62c0-0.34-0.28-0.62-0.62-0.62c0,0,0,0,0,0
			h-3.38c-0.34,0-0.62,0.28-0.62,0.63c0,0.34,0.28,0.62,0.62,0.62H26.73z"/>
		<g>
			<g id="g2145">
				<path id="path2143" style="fill:#0F7FCA;" d="M71.05,63.69h2.76c0.34,0,0.62,0.28,0.62,0.63c0,0.34-0.28,0.62-0.62,0.62h-3.38
					c-0.34,0-0.62-0.28-0.62-0.62v-3.11c0-0.34,0.28-0.62,0.62-0.63h3.38c0.34,0.01,0.62,0.28,0.62,0.63c0,0.34-0.28,0.62-0.62,0.62
					h-2.76V63.69z"/>
			</g>
		</g>
		<path id="path2147" style="fill:#0F7FCA;" d="M73.8,59.97c0.34,0,0.62-0.28,0.62-0.62s-0.28-0.62-0.62-0.62c0,0,0,0,0,0h-3.38
			c-0.34,0-0.62,0.28-0.62,0.63c0,0.34,0.28,0.62,0.62,0.62H73.8z"/>
		<path id="path2149" style="fill:#0F7FCA;" d="M46.98,59.97c0.34,0,0.62-0.28,0.62-0.62c0-0.34-0.28-0.62-0.62-0.62H43.6
			c-0.34,0-0.62,0.28-0.62,0.63c0,0.34,0.28,0.62,0.62,0.62H46.98z"/>
		<g>
			<g id="g2153">
				<path id="path2151" style="fill:#0F7FCA;" d="M65.74,63.7h2.76c0.34,0,0.62,0.28,0.62,0.62c0,0.34-0.28,0.62-0.62,0.62h-3.38
					c-0.34,0-0.62-0.28-0.62-0.62c0,0,0,0,0,0v-4.97c0-0.34,0.27-0.62,0.61-0.62c0.34,0,0.62,0.27,0.62,0.61c0,0,0,0.01,0,0.01
					L65.74,63.7z"/>
			</g>
		</g>
		<g>
			<g id="g2157">
				<path id="path2155" style="fill:#0F7FCA;" d="M44.22,61.83h2.75c0.34,0,0.62-0.27,0.62-0.62c0-0.34-0.27-0.62-0.62-0.62
					c0,0,0,0-0.01,0H43.6c-0.65,0-0.62,0.72-0.62,0.62v3.1c-0.01,0.34,0.27,0.63,0.61,0.63s0.63-0.27,0.63-0.61c0,0,0-0.01,0-0.01
					V61.83z"/>
			</g>
		</g>
		<g>
			<g id="g2161">
				<path id="path2159" style="fill:#0F7FCA;" d="M18.32,64.32c0,0.34-0.27,0.62-0.62,0.62c-0.34,0-0.62-0.27-0.62-0.62
					c0,0,0,0,0-0.01v-3.11c0-0.34,0.27-0.62,0.62-0.62c0.34,0,0.62,0.27,0.62,0.62c0,0,0,0,0,0.01V64.32z"/>
			</g>
		</g>
		<g>
			<g id="g2165">
				<path id="path2163" style="fill:#0F7FCA;" d="M20.71,60.49c0.06-0.06,0.09-0.14,0.09-0.22c0-0.17-0.14-0.31-0.31-0.31H17.7
					c-0.34,0-0.62-0.28-0.62-0.63c0-0.34,0.28-0.62,0.62-0.62h2.79c0.86,0,1.56,0.71,1.55,1.57c0,0.44-0.19,0.86-0.52,1.15
					l-1.49,1.49c-0.09,0.08-0.14,0.2-0.13,0.32c0,0.25,0.19,0.45,0.44,0.45c0,0,0.01,0,0.01,0h1.07c0.34,0,0.62,0.28,0.62,0.62
					c0,0.34-0.28,0.62-0.62,0.62l-1.07,0c-0.93-0.01-1.69-0.77-1.69-1.7c0.01-0.45,0.19-0.87,0.5-1.19L20.71,60.49z"/>
			</g>
		</g>
		<g>
			<g id="g2169">
				<path id="path2167" style="fill:#0F7FCA;" d="M56.28,64.32c0,0.34-0.27,0.62-0.62,0.62c-0.34,0-0.62-0.27-0.62-0.62
					c0,0,0,0,0-0.01v-3.11c0-0.34,0.27-0.62,0.62-0.62c0.34,0,0.62,0.27,0.62,0.62c0,0,0,0,0,0.01V64.32z"/>
			</g>
		</g>
		<g>
			<g id="g2173">
				<path id="path2171" style="fill:#0F7FCA;" d="M58.67,60.49c0.06-0.06,0.09-0.14,0.09-0.22c0-0.17-0.14-0.31-0.31-0.31h-2.79
					c-0.34,0-0.62-0.28-0.62-0.62c0-0.34,0.28-0.62,0.62-0.62c0,0,0,0,0,0h2.79c0.86,0,1.56,0.7,1.55,1.56
					c0,0.44-0.19,0.86-0.52,1.16L58,62.93c-0.09,0.08-0.14,0.2-0.13,0.32c0,0.24,0.19,0.45,0.44,0.45c0,0,0.01,0,0.01,0h1.07
					c0.34,0,0.62,0.28,0.62,0.62c0,0.34-0.28,0.62-0.62,0.62l-1.07,0c-0.93-0.01-1.69-0.77-1.69-1.7c0.01-0.45,0.19-0.87,0.5-1.19
					L58.67,60.49z"/>
			</g>
		</g>
		<g>
			<g id="g2177">
				<path id="path2175" style="fill:#0F7FCA;" d="M29.03,61.73c-0.8-0.31-1.2-1.22-0.88-2.02c0.23-0.6,0.81-0.99,1.45-0.99h2.79
					c0.34,0,0.62,0.28,0.62,0.63c0,0.34-0.28,0.62-0.62,0.62H29.6c-0.17,0-0.31,0.14-0.31,0.31c0,0,0,0,0,0
					c0,0.12,0.07,0.23,0.18,0.29l2.45,1.12c0.87,0.33,1.31,1.31,0.97,2.18c-0.25,0.65-0.88,1.08-1.58,1.08h-2.65
					c-0.34,0-0.62-0.27-0.62-0.62c0-0.34,0.27-0.62,0.62-0.62c0,0,0,0,0.01,0l2.65,0c0.25,0,0.45-0.2,0.45-0.45
					c0-0.19-0.12-0.36-0.3-0.42L29.03,61.73z"/>
			</g>
		</g>
		<g>
			<g id="g2181">
				<path id="path2179" style="fill:#0F7FCA;" d="M34.7,61.73c-0.8-0.31-1.2-1.22-0.88-2.02c0.23-0.6,0.81-0.99,1.45-0.99h2.79
					c0.34,0,0.62,0.28,0.62,0.62c0,0.34-0.28,0.62-0.62,0.62c0,0,0,0,0,0h-2.79c-0.17,0-0.31,0.14-0.31,0.31
					c0,0.12,0.07,0.23,0.18,0.29l2.45,1.12c0.87,0.33,1.31,1.31,0.97,2.18c-0.25,0.65-0.88,1.08-1.58,1.08h-2.65
					c-0.34,0-0.62-0.27-0.62-0.62c0-0.34,0.27-0.62,0.62-0.62c0,0,0,0,0.01,0l2.65,0c0.25,0,0.45-0.2,0.45-0.45
					c0-0.19-0.12-0.36-0.3-0.42L34.7,61.73z"/>
			</g>
		</g>
		<g>
			<g id="g2185">
				<path id="path2183" style="fill:#0F7FCA;" d="M76.09,61.73c-0.8-0.32-1.19-1.22-0.88-2.03c0.24-0.59,0.81-0.98,1.45-0.99h2.79
					c0.34,0,0.62,0.28,0.62,0.63c0,0.34-0.28,0.62-0.62,0.62h-2.79c-0.17,0-0.31,0.14-0.31,0.31c0,0,0,0,0,0
					c0,0.12,0.07,0.23,0.18,0.29l2.45,1.12c0.87,0.33,1.31,1.31,0.97,2.18c-0.25,0.65-0.88,1.08-1.58,1.08h-2.65
					c-0.34,0-0.62-0.28-0.62-0.62c0-0.34,0.28-0.62,0.62-0.62l2.65,0c0.25,0,0.45-0.2,0.45-0.44c0-0.19-0.12-0.36-0.3-0.43
					L76.09,61.73z"/>
			</g>
		</g>
		<g>
			<g id="g2189">
				<path id="path2187" style="fill:#0F7FCA;" d="M81.76,61.73c-0.8-0.32-1.19-1.22-0.88-2.02c0.23-0.59,0.81-0.98,1.45-0.99h2.79
					c0.34,0,0.62,0.28,0.62,0.62c0,0.34-0.28,0.62-0.62,0.62h-2.79c-0.17,0-0.31,0.14-0.31,0.31c0,0,0,0,0,0
					c0,0.12,0.07,0.23,0.18,0.28l2.45,1.12c0.87,0.33,1.31,1.31,0.97,2.18c-0.25,0.65-0.88,1.08-1.58,1.08h-2.65
					c-0.34,0-0.62-0.27-0.62-0.62c0-0.34,0.27-0.62,0.62-0.62c0,0,0,0,0.01,0l2.65,0c0.25,0,0.45-0.2,0.45-0.45
					c0-0.19-0.12-0.36-0.3-0.42L81.76,61.73z"/>
			</g>
		</g>
		<g>
			<g id="g2193">
				<path id="path2191" style="fill:#0F7FCA;" d="M48.77,59.97c1.03-1.37,2.98-1.65,4.35-0.62c1.37,1.03,1.65,2.98,0.62,4.35
					c-1.03,1.37-2.98,1.65-4.35,0.62c-0.78-0.59-1.24-1.51-1.24-2.49c0-0.26,0.03-0.52,0.1-0.78c0.09-0.33,0.43-0.53,0.76-0.44
					c0.33,0.09,0.53,0.42,0.44,0.76c-0.04,0.15-0.06,0.31-0.06,0.46c0,1.03,0.84,1.86,1.86,1.86c1.03,0,1.86-0.84,1.86-1.86
					c0-1.03-0.83-1.86-1.86-1.86L48.77,59.97z"/>
			</g>
		</g>
		<g>
			<g id="g2197">
				<path id="path2195" style="fill:#0F7FCA;" d="M87.6,59.49c-0.07-0.02-0.14-0.03-0.22-0.03H87.3v0.41h0.15
					c0.07,0,0.14-0.02,0.2-0.06c0.05-0.04,0.08-0.1,0.07-0.17C87.72,59.57,87.67,59.51,87.6,59.49 M86.93,60.63v-1.42h0.39
					c0.18,0,0.27,0,0.29,0c0.1,0,0.19,0.03,0.28,0.07c0.13,0.06,0.2,0.2,0.19,0.34c0.01,0.1-0.03,0.19-0.1,0.26
					c-0.07,0.06-0.15,0.09-0.24,0.09c0.07,0.01,0.14,0.04,0.2,0.08c0.09,0.08,0.13,0.2,0.12,0.32v0.13c0,0.01,0,0.02,0,0.04
					c0,0.02,0.01,0.03,0.01,0.04l0.01,0.04h-0.35c-0.01-0.06-0.02-0.13-0.02-0.2c0-0.06-0.01-0.12-0.02-0.17
					c-0.02-0.05-0.05-0.09-0.1-0.11c-0.04-0.01-0.08-0.02-0.13-0.02l-0.08,0H87.3v0.5L86.93,60.63z M86.73,59.17
					c-0.2,0.2-0.31,0.47-0.31,0.74c0,0.28,0.11,0.56,0.31,0.76c0.2,0.2,0.47,0.32,0.75,0.31c0.28,0,0.55-0.11,0.74-0.32
					c0.41-0.41,0.42-1.08,0-1.5c-0.4-0.41-1.06-0.43-1.47-0.03C86.75,59.15,86.74,59.16,86.73,59.17 M88.38,60.83
					c-0.51,0.49-1.31,0.48-1.81-0.01c-0.5-0.51-0.49-1.34,0.02-1.84c0,0,0,0,0.01-0.01c0.24-0.23,0.55-0.35,0.88-0.35
					c0.71,0,1.28,0.58,1.28,1.29C88.77,60.27,88.63,60.59,88.38,60.83"/>
			</g>
		</g>
	</g>
</g>
</svg>
