<?xml version="1.0"?>
<svg xmlns="http://www.w3.org/2000/svg" xmlns:xlink="http://www.w3.org/1999/xlink" xmlns:svgjs="http://svgjs.com/svgjs" version="1.1" width="512" height="512" x="0" y="0" viewBox="0 0 512 512" style="enable-background:new 0 0 512 512" xml:space="preserve" class=""><g><path xmlns="http://www.w3.org/2000/svg" d="m512 256c0 141.386719-114.613281 256-256 256s-256-114.613281-256-256 114.613281-256 256-256 256 114.613281 256 256zm0 0" fill="#f1f1f1" data-original="#4a7aff" style="" class=""/><path xmlns="http://www.w3.org/2000/svg" d="m512 256c0-19.78125-2.246094-39.035156-6.492188-57.527344l-74.933593-74.929687-291.410157 160.566406-18.492187-18.492187-35.867187 23.378906 56.734374 56.738281-39.371093 45.988281 117.730469 117.730469c11.796874 1.664063 23.84375 2.546875 36.101562 2.546875 141.386719 0 256-114.613281 256-256zm0 0" fill="#f1f1f1" data-original="#0053bf" style="" class=""/><path xmlns="http://www.w3.org/2000/svg" d="m131.710938 396.34375h-18.378907c-8.722656 0-15.792969-7.066406-15.792969-15.789062v-55.035157c0-8.71875 7.070313-15.789062 15.792969-15.789062h18.378907c8.71875 0 15.789062 7.070312 15.789062 15.789062v55.035157c0 8.722656-7.070312 15.789062-15.789062 15.789062zm0 0" fill="#414952" data-original="#414952" style=""/><path xmlns="http://www.w3.org/2000/svg" d="m332.988281 396.34375h-18.378906c-8.71875 0-15.789063-7.066406-15.789063-15.789062v-55.035157c0-8.71875 7.070313-15.789062 15.789063-15.789062h18.378906c8.722657 0 15.789063 7.070312 15.789063 15.789062v55.035157c.003906 8.722656-7.066406 15.789062-15.789063 15.789062zm0 0" fill="#333940" data-original="#333940" style=""/><path xmlns="http://www.w3.org/2000/svg" d="m327.078125 288.996094-18.613281-55.085938c-3.359375-9.949218-12.695313-16.648437-23.195313-16.648437h-124.214843c-10.503907 0-19.835938 6.699219-23.199219 16.648437l-18.613281 55.085938-21.554688 5.273437c-9.714844 2.375-16.101562 11.660157-14.84375 21.585938l4.617188 36.371093c1.492187 11.765626 11.503906 20.585938 23.363281 20.585938h224.671875c11.863281 0 21.871094-8.820312 23.363281-20.585938l4.617187-36.371093c1.257813-9.925781-5.128906-19.210938-14.84375-21.585938zm0 0" fill="#ffffff" data-original="#ffffff" style=""/><path xmlns="http://www.w3.org/2000/svg" d="m348.632812 294.269531-21.554687-5.273437-18.613281-55.085938c-3.359375-9.949218-12.695313-16.648437-23.195313-16.648437h-61.222656v155.550781h111.449219c11.859375 0 21.871094-8.820312 23.363281-20.585938l4.617187-36.371093c1.257813-9.925781-5.128906-19.210938-14.84375-21.585938zm0 0" fill="#e9edf5" data-original="#e9edf5" style=""/><path xmlns="http://www.w3.org/2000/svg" d="m119.242188 288.996094-21.554688 5.273437c-9.714844 2.375-16.101562 11.660157-14.84375 21.585938l4.617188 36.371093c1.492187 11.765626 11.5 20.585938 23.359374 20.585938h224.675782c11.859375 0 21.871094-8.820312 23.363281-20.585938l4.617187-36.371093c1.257813-9.925781-5.128906-19.210938-14.84375-21.585938l-21.558593-5.273437" fill="#ffffff" data-original="#ffffff" style=""/><path xmlns="http://www.w3.org/2000/svg" d="m119.242188 288.996094-21.554688 5.273437c-9.714844 2.375-16.101562 11.660157-14.84375 21.585938l4.617188 36.371093c1.492187 11.765626 11.5 20.585938 23.359374 20.585938h113.226563v-83.816406zm0 0" fill="#ffffff" data-original="#ffffff" style=""/><path xmlns="http://www.w3.org/2000/svg" d="m348.632812 294.269531-21.554687-5.273437h-103.03125v83.816406h111.449219c11.859375 0 21.871094-8.820312 23.363281-20.585938l4.617187-36.371093c1.257813-9.925781-5.128906-19.210938-14.84375-21.585938zm0 0" fill="#e9edf5" data-original="#e9edf5" style=""/><path xmlns="http://www.w3.org/2000/svg" d="m300.542969 233.328125h-154.765625c-.066406.195313-.140625.386719-.203125.582031l-16.925781 55.085938h189.027343l-16.929687-55.085938c-.058594-.195312-.136719-.386718-.203125-.582031zm0 0" fill="#a3d4ff" data-original="#a3d4ff" style="" class=""/><path xmlns="http://www.w3.org/2000/svg" d="m300.746094 233.910156c-.058594-.195312-.136719-.382812-.199219-.582031h-76.5v55.667969h93.628906zm0 0" fill="#65b1fc" data-original="#65b1fc" style=""/><path xmlns="http://www.w3.org/2000/svg" d="m122.519531 291.039062h-32.195312c-4.695313 0-8.507813-3.808593-8.507813-8.507812v-11.625c0-4.699219 3.8125-8.507812 8.507813-8.507812h23.6875c4.699219 0 8.507812 3.808593 8.507812 8.507812zm0 0" fill="#ffffff" data-original="#ffffff" style=""/><path xmlns="http://www.w3.org/2000/svg" d="m86.511719 344.746094h45.179687c7.472656 0 11.851563-8.417969 7.558594-14.535156l-6.632812-9.449219c-1.726563-2.464844-4.546876-3.929688-7.558594-3.929688h-42.089844zm0 0" fill="#65b1fc" data-original="#65b1fc" style=""/><path xmlns="http://www.w3.org/2000/svg" d="m323.800781 291.039062h32.191407c4.699218 0 8.511718-3.808593 8.511718-8.507812v-11.625c0-4.699219-3.8125-8.507812-8.511718-8.507812h-23.683594c-4.699219 0-8.507813 3.808593-8.507813 8.507812zm0 0" fill="#ffffff" data-original="#ffffff" style=""/><path xmlns="http://www.w3.org/2000/svg" d="m359.808594 344.746094h-45.179688c-7.472656 0-11.851562-8.417969-7.554687-14.535156l6.628906-9.449219c1.730469-2.464844 4.550781-3.929688 7.558594-3.929688h42.09375zm0 0" fill="#65b1fc" data-original="#65b1fc" style=""/><path xmlns="http://www.w3.org/2000/svg" d="m155.332031 330.90625h135.65625v13.839844h-135.65625zm0 0" fill="#a3d4ff" data-original="#a3d4ff" style="" class=""/><path xmlns="http://www.w3.org/2000/svg" d="m224.046875 330.90625h66.941406v13.839844h-66.941406zm0 0" fill="#65b1fc" data-original="#65b1fc" style=""/><path xmlns="http://www.w3.org/2000/svg" d="m334.367188 429.894531c-18.59375 0-33.667969-15.074219-33.667969-33.667969v-99.664062h67.332031v99.664062c.003906 18.59375-15.070312 33.667969-33.664062 33.667969zm0 0" fill="#ffaa00" data-original="#ffaa00" style=""/><path xmlns="http://www.w3.org/2000/svg" d="m334.167969 296.5625v133.328125c.066406 0 .132812.003906.199219.003906 18.59375 0 33.667968-15.070312 33.667968-33.664062v-99.667969zm0 0" fill="#ff9500" data-original="#ff9500" style=""/><path xmlns="http://www.w3.org/2000/svg" d="m238.15625 123.539062h192.417969v127.496094h-192.417969zm0 0" fill="#ffffff" data-original="#ffffff" style=""/><path xmlns="http://www.w3.org/2000/svg" d="m334.167969 123.542969h96.40625v127.492187h-96.40625zm0 0" fill="#e9edf5" data-original="#e9edf5" style=""/><path xmlns="http://www.w3.org/2000/svg" d="m409.894531 311.363281h-151.054687c-14.097656 0-25.527344-11.425781-25.527344-25.523437v-65.96875h202.109375v65.96875c0 14.097656-11.429687 25.523437-25.527344 25.523437zm0 0" fill="#ffde52" data-original="#ffde52" style="" class=""/><path xmlns="http://www.w3.org/2000/svg" d="m334.167969 219.867188v91.496093h75.726562c14.097657 0 25.527344-11.425781 25.527344-25.523437v-65.96875h-101.253906zm0 0" fill="#ffa300" data-original="#ffa300" style=""/><path xmlns="http://www.w3.org/2000/svg" d="m256.035156 123.539062h25.664063v82h-25.664063zm0 0" fill="#bfe1ff" data-original="#bfe1ff" style=""/><path xmlns="http://www.w3.org/2000/svg" d="m299.699219 123.539062h25.667969v82h-25.667969zm0 0" fill="#bfe1ff" data-original="#bfe1ff" style=""/><g xmlns="http://www.w3.org/2000/svg" fill="#a3d4ff"><path d="m343.367188 123.539062h25.667968v82h-25.667968zm0 0" fill="#a3d4ff" data-original="#a3d4ff" style="" class=""/><path d="m387.035156 123.539062h25.664063v82h-25.664063zm0 0" fill="#a3d4ff" data-original="#a3d4ff" style="" class=""/></g></g></svg>
