<?xml version="1.0"?>
<svg xmlns="http://www.w3.org/2000/svg" xmlns:xlink="http://www.w3.org/1999/xlink" xmlns:svgjs="http://svgjs.com/svgjs" version="1.1" width="512" height="512" x="0" y="0" viewBox="0 0 512 512" style="enable-background:new 0 0 512 512" xml:space="preserve" class=""><g><path xmlns="http://www.w3.org/2000/svg" d="m512 256c0 141.386719-114.613281 256-256 256s-256-114.613281-256-256 114.613281-256 256-256 256 114.613281 256 256zm0 0" fill="#f1f1f1" data-original="#ff4682" style="" class=""/><path xmlns="http://www.w3.org/2000/svg" d="m512 256c0-5.152344-.171875-10.265625-.472656-15.34375l-149.570313-149.570312-15.722656 31.648437-77.234375-77.234375-154.664062 97 208.015624 208.015625-219.101562 69.984375 81.417969 81.417969c22.644531 6.554687 46.574219 10.082031 71.332031 10.082031 141.386719 0 256-114.613281 256-256zm0 0" fill="#f1f1f1" data-original="#d72d73" style="" class=""/><path xmlns="http://www.w3.org/2000/svg" d="m419.5 208c-26.511719 0-48 21.488281-48 48s21.488281 48 48 48 48-21.488281 48-48-21.488281-48-48-48zm0 67.25c-10.632812 0-19.25-8.617188-19.25-19.25s8.617188-19.25 19.25-19.25 19.25 8.617188 19.25 19.25-8.617188 19.25-19.25 19.25zm0 0" fill="#19cffc" data-original="#19cffc" style=""/><path xmlns="http://www.w3.org/2000/svg" d="m259.25 418h-11c-74.421875 0-134.75-60.328125-134.75-134.75v-73h280.5v73c0 74.421875-60.328125 134.75-134.75 134.75zm0 0" fill="#ffffff" data-original="#ffffff" style="" class=""/><path xmlns="http://www.w3.org/2000/svg" d="m255.570312 210.25v207.75h3.679688c74.421875 0 134.75-60.328125 134.75-134.75v-73zm0 0" fill="#fff5f5" data-original="#fff5f5" style="" class=""/><path xmlns="http://www.w3.org/2000/svg" d="m243 45.5h26v183h-26zm0 0" fill="#3b4a70" data-original="#3b4a70" style="" class=""/><path xmlns="http://www.w3.org/2000/svg" d="m255.570312 45.5h13.429688v183h-13.429688zm0 0" fill="#333c5e" data-original="#333c5e" style="" class=""/><path xmlns="http://www.w3.org/2000/svg" d="m259.25 57.25h-11c-69.347656 0-126.453125 37.296875-133.914062 85.25h278.828124c-7.460937-47.953125-64.566406-85.25-133.914062-85.25zm0 0" fill="#ffeb50" data-original="#ffeb50" style=""/><path xmlns="http://www.w3.org/2000/svg" d="m259.25 57.25h-3.679688v85.25h137.59375c-7.460937-47.953125-64.566406-85.25-133.914062-85.25zm0 0" fill="#ffe13c" data-original="#ffe13c" style=""/><path xmlns="http://www.w3.org/2000/svg" d="m256.246094 57.25h-4.992188c-31.460937 0-57.367187 37.296875-60.753906 85.25h126.5c-3.386719-47.953125-29.292969-85.25-60.753906-85.25zm0 0" fill="#ffbc36" data-original="#ffbc36" style=""/><path xmlns="http://www.w3.org/2000/svg" d="m256.246094 57.25h-.675782v85.25h61.429688c-3.386719-47.953125-29.292969-85.25-60.753906-85.25zm0 0" fill="#eaaa28" data-original="#eaaa28" style=""/><path xmlns="http://www.w3.org/2000/svg" d="m103.25 388h305.5v32.5h-305.5zm0 0" fill="#00edff" data-original="#00edff" style=""/><path xmlns="http://www.w3.org/2000/svg" d="m255.570312 388h153.179688v32.5h-153.179688zm0 0" fill="#0ac0ea" data-original="#0ac0ea" style="" class=""/><path xmlns="http://www.w3.org/2000/svg" d="m256 354.5c-28.304688 0-51.25-22.945312-51.25-51.25v-93h102.5v93c0 28.304688-22.945312 51.25-51.25 51.25zm0 0" fill="#00edff" data-original="#00edff" style=""/><path xmlns="http://www.w3.org/2000/svg" d="m255.570312 210.25v144.238281c.144532 0 .285157.011719.429688.011719 28.304688 0 51.25-22.945312 51.25-51.25v-93zm0 0" fill="#0ac0ea" data-original="#0ac0ea" style="" class=""/></g></svg>
