<?xml version="1.0"?>
<svg xmlns="http://www.w3.org/2000/svg" xmlns:xlink="http://www.w3.org/1999/xlink" xmlns:svgjs="http://svgjs.com/svgjs" version="1.1" width="512" height="512" x="0" y="0" viewBox="0 0 512 512" style="enable-background:new 0 0 512 512" xml:space="preserve" class=""><g><path xmlns="http://www.w3.org/2000/svg" d="m512 256c0 2-.019531 4-.070312 6-3.191407 138.609375-116.550782 250-255.929688 250-1.339844 0-2.671875-.011719-4-.03125-1.03125-.019531-2.070312-.039062-3.101562-.070312-3.707032-.097657-7.378907-.277344-11.039063-.539063-.539063-.03125-1.070313-.070313-1.609375-.109375-5.828125-.449219-11.601562-1.089844-17.308594-1.921875-1.851562-.269531-3.691406-.558594-5.519531-.867187-1.121094-.191407-2.242187-.382813-3.351563-.589844-1.730468-.3125-3.449218-.640625-5.171874-.992188-116.898438-23.667968-204.898438-127-204.898438-250.878906 0-141.378906 114.621094-256 256-256 116.921875 0 215.53125 78.378906 246.160156 185.46875 2.480469 8.660156 4.511719 17.5 6.070313 26.511719.28125 1.648437.550781 3.300781.800781 4.960937.007812.027344.007812.070313.019531.097656.640625 4.199219 1.179688 8.449219 1.621094 12.722657.027344.339843.066406.667969.097656 1.007812.230469 2.351563.429688 4.71875.589844 7.089844.421875 5.992187.640625 12.050781.640625 18.140625zm0 0" fill="#f1f1f1" data-original="#aef224" style="" class=""/><path xmlns="http://www.w3.org/2000/svg" d="m511.929688 262c-3.191407 138.609375-116.550782 250-255.929688 250-1.339844 0-2.671875-.011719-4-.03125l-96-95.96875 10-320h180zm0 0" fill="#f1f1f1" data-original="#89bf1d" style="" class=""/><path xmlns="http://www.w3.org/2000/svg" d="m356 416h-200l10-320h180zm0 0" fill="#1b3b6b" data-original="#1b3b6b" style="" class=""/><path xmlns="http://www.w3.org/2000/svg" d="m356 416h-100v-320h90zm0 0" fill="#12254c" data-original="#12254c" style="" class=""/><g xmlns="http://www.w3.org/2000/svg" fill="#fff"><path d="m241 226h30v60h-30zm0 0" fill="#ffffff" data-original="#ffffff" style=""/><path d="m241 326.019531h30v60h-30zm0 0" fill="#ffffff" data-original="#ffffff" style=""/><path d="m241 126h30v60h-30zm0 0" fill="#ffffff" data-original="#ffffff" style=""/></g><path xmlns="http://www.w3.org/2000/svg" d="m256 226h15v60h-15zm0 0" fill="#ebebeb" data-original="#ebebeb" style=""/><path xmlns="http://www.w3.org/2000/svg" d="m256 326.019531h15v60h-15zm0 0" fill="#ebebeb" data-original="#ebebeb" style=""/><path xmlns="http://www.w3.org/2000/svg" d="m256 126h15v60h-15zm0 0" fill="#ebebeb" data-original="#ebebeb" style=""/></g></svg>
