<?xml version="1.0" encoding="utf-8"?>
<svg version="1.1" id="Layer_1" xmlns="http://www.w3.org/2000/svg" xmlns:xlink="http://www.w3.org/1999/xlink" x="0px" y="0px"
	 viewBox="0 0 1395.07 442.43" style="enable-background:new 0 0 1395.07 442.43;" xml:space="preserve">
<g>
	<g id="g6699" transform="matrix(13.641138,0,0,13.641138,420.80128,555.18372)">
		<path id="Shape" style="fill:#FFFFFF;" d="M53.97-9.78c-8.1,0-14.66-6.55-14.66-14.63c0-8.08,6.56-14.62,14.66-14.62
			c8.09,0,14.66,6.55,14.66,14.62C68.63-16.33,62.07-9.78,53.97-9.78"/>
		<path id="path6063" style="fill:#54BBAB;" d="M56.25-40.56c-0.44-0.04-0.67-0.05-1.11-0.05c0.78,0.02,1.57,0.11,2.36,0.27
			c8.34,1.62,13.69,10.02,11.93,18.77c-1.75,8.74-9.94,14.51-18.29,12.89c-0.37-0.07-0.74-0.16-1.1-0.26
			c1.42,0.44,2.94,0.68,4.55,0.68c1.61,0,2.85-0.22,4.04-0.48c5.15-1.17,9.33-4.78,11.41-9.3c0.88-1.98,1.37-4.16,1.37-6.45
			C71.42-33.46,64.4-39.87,56.25-40.56"/>
		<path id="path6065" style="fill:#5BC5F2;" d="M37.15-25.72c-0.61,8.79,6.2,16.45,15.5,17.25c-0.5-0.04-1-0.11-1.5-0.21
			C42.8-10.3,37.46-18.71,39.21-27.45c1.74-8.68,9.83-14.43,18.11-12.93c-0.7-0.13-1.4-0.23-2.12-0.28
			C45.75-41.3,37.77-34.62,37.15-25.72"/>
		<path id="path6067" style="fill:#007E92;" d="M57.5-40.34c-8.34-1.62-16.53,4.15-18.29,12.89C37.46-18.71,42.8-10.3,51.14-8.68
			c8.35,1.62,16.53-4.15,18.29-12.89C71.18-30.32,65.85-38.72,57.5-40.34 M53.97-9.78c-8.1,0-14.66-6.55-14.66-14.63
			c0-8.08,6.56-14.62,14.66-14.62c8.09,0,14.66,6.55,14.66,14.62C68.63-16.33,62.07-9.78,53.97-9.78"/>
		<path id="path6069" style="fill:#E42313;" d="M62.12-31.38H57.1c-0.92,0-1.05,0.37-1.05,0.93c0,0,0,8.14,0,8.15
			c-0.06,1.87-0.76,2.46-2.09,2.46c-1.36,0-2.06-0.63-2.09-2.61v-8c0-0.56-0.13-0.93-1.05-0.93h-5.02v9.69
			c0,2.14,0.42,3.05,1.3,3.97c1.38,1.43,3.78,2.03,6.85,2.03c3.07,0,5.48-0.6,6.86-2.03c0.89-0.92,1.3-1.83,1.3-3.97L62.12-31.38z"
			/>
	</g>
	<g id="text27">
		<path id="path16" style="fill:#0386AF;" d="M106.67,263.95c0-17.14-6.56-31.11-28.57-42.97l-27.09-14.6
			c-11.43-6.14-14.18-8.89-14.18-14.82c0-7.62,4.44-11.22,16.51-11.22c14.39,0,38.94,1.9,44.87,2.33c0.21,0,0.42,0,0.42,0
			c2.75,0,3.6-1.69,3.6-3.6V157.7c0-2.33-1.48-3.39-3.17-3.81c-8.04-2.12-29.42-4.66-44.87-4.66C13.12,149.24,0,167.23,0,190.51
			c0,15.45,5.29,28.78,24.97,40.43l29.21,17.36c11.01,6.56,13.97,9.95,13.97,16.09c0,10.16-4.23,14.82-18.84,14.82
			c-8.25,0-31.54-1.69-40.21-2.54c-0.21,0-0.42,0-0.63,0c-2.12,0-3.81,1.06-3.81,4.02v20.74c0,2.33,2.12,3.6,4.23,4.23
			c10.79,2.75,23.28,4.66,40,4.66C91.86,310.31,106.67,286.39,106.67,263.95L106.67,263.95z"/>
		<path id="path18" style="fill:#0386AF;" d="M234.11,190.93c0-2.12-1.9-3.81-4.02-3.81h-28.15c-2.33,0-4.02,1.9-4.44,4.02
			l-19.68,83.6c0,0-0.21,0-0.85,0c-0.21,0-0.42,0-0.85,0h-0.21c-1.27,0-1.9-1.06-2.54-4.02l-19.05-79.58
			c-0.42-2.12-1.9-4.02-4.02-4.02h-28.15c-2.96,0-4.23,1.27-4.23,3.39c0,0.42,0,0.85,0.21,1.48l27.94,95.24
			c5.29,18.41,11.85,19.68,19.68,19.68h3.17l-1.9,6.56c-2.54,8.47-6.35,11.01-13.97,11.01c-6.98,0-19.47-1.27-26.46-1.69
			c-0.21,0-0.21,0-0.42,0c-2.33,0-4.23,1.69-4.23,4.02v17.14c0,2.33,2.12,2.96,4.44,3.81c5.29,1.69,17.78,3.39,25.61,3.39
			c31.11,0,39.79-11.64,46.35-34.5l35.56-124.66C233.9,191.57,234.11,191.36,234.11,190.93L234.11,190.93z"/>
		<path id="path20" style="fill:#0386AF;" d="M336.3,274.75c0-11.43-3.81-22.44-21.38-32.59l-26.24-15.03
			c-4.23-2.54-6.56-4.23-6.56-7.41c0-4.87,2.96-6.14,11.22-6.14c10.79,0,29,1.9,35.13,2.75c0.21,0,0.42,0,0.63,0
			c2.12,0,3.6-1.48,3.6-4.02v-17.14c0-2.54-1.48-4.23-4.02-4.87c-10.79-2.75-20.95-4.87-37.67-4.87
			c-29.21,0-43.39,11.43-43.39,32.81c0,13.76,6.98,24.55,18.84,31.32l27.51,15.87c5.93,3.39,7.83,5.71,7.83,8.89
			c0,5.5-2.33,8.25-12.49,8.25c-6.77,0-24.55-1.48-35.98-2.96c-0.21,0-0.63,0-0.85,0c-2.54,0-4.02,1.9-4.02,4.02v17.14
			c0,2.54,1.48,4.23,4.02,4.87c10.79,2.96,26.88,4.66,38.52,4.66C321.91,310.31,336.3,294.64,336.3,274.75L336.3,274.75z"/>
		<path id="path22" style="fill:#0386AF;" d="M426.68,304.38v-16.51c0-2.33-1.69-3.6-4.44-3.6h-10.37c-6.35,0-6.98-1.48-6.98-9.95
			v-61.59h17.36c2.33,0,4.23-1.9,4.23-4.23v-17.14c0-2.33-1.9-4.23-4.23-4.23h-17.36v-22.44c0-2.12-1.69-3.6-3.81-3.6
			c-0.21,0-0.42,0-0.63,0l-25.82,4.44c-2.33,0.42-4.23,1.9-4.23,4.23v17.36h-16.93c-2.33,0-4.44,2.12-4.44,4.44v13.97
			c0,2.33,2.12,4.02,4.44,4.44l16.93,2.75v61.38c0,30.05,12.28,36.19,35.56,36.19c6.14,0,10.37-0.63,16.72-1.69
			C425.2,308.19,426.68,306.5,426.68,304.38L426.68,304.38z"/>
		<path id="path24" style="fill:#0386AF;" d="M548.78,253.37V241.1c0-31.96-17.57-55.66-52.28-55.66
			c-33.65,0-53.55,21.59-53.55,55.66v14.82c0,40.85,27.51,54.39,53.12,54.39c18.41,0,29.84-1.69,43.39-5.08
			c3.6-0.85,4.44-2.33,4.44-5.71v-16.09c0-2.33-1.69-3.39-4.02-3.39c-0.21,0-0.42,0-0.63,0c-8.47,0.85-27.3,1.9-40.64,1.9
			c-16.72,0-21.8-11.01-21.8-23.07v-0.42h67.52C547.09,258.45,548.78,256.55,548.78,253.37L548.78,253.37z M515.34,237.29h-38.52
			v-0.85c0-15.45,7.83-23.49,19.47-23.49c11.85,0,19.05,7.83,19.05,23.49V237.29z M519.57,173.58c0-0.63-0.21-1.27-0.85-2.12
			l-19.47-24.76c-1.9-2.33-2.75-3.17-5.71-3.17H465.6c-1.48,0-2.33,0.63-2.33,1.48c0,0.42,0.21,1.06,0.85,1.69l25.82,25.82
			c1.69,1.69,2.33,2.54,5.08,2.54h22.65C518.94,175.06,519.57,174.43,519.57,173.58z"/>
		<path id="path26" style="fill:#0386AF;" d="M730.77,303.96v-72.17c0-27.73-8.47-46.35-36.4-46.35c-13.76,0-22.22,3.39-34.5,10.37
			c-5.93-7.2-13.76-10.37-24.97-10.37c-12.28,0-22.44,4.66-31.32,10.58v-4.66c0-2.33-1.9-4.23-4.23-4.23H575.2
			c-2.33,0-4.23,1.9-4.23,4.23v112.6c0,2.33,2.12,4.44,4.44,4.44h25.61c2.33,0,4.23-2.12,4.23-4.44v-84.24
			c6.56-3.39,12.06-5.5,16.09-5.5c9.74,0,12.28,4.02,12.28,17.57v72.17c0,2.33,2.12,4.44,4.44,4.44h25.61
			c2.33,0,4.23-2.12,4.23-4.44v-72.17c0-4.66-0.21-9.52-0.63-13.76c6.35-2.96,12.7-3.81,16.3-3.81c9.74,0,12.91,4.02,12.91,17.57
			v72.17c0,2.33,1.9,4.44,4.23,4.44h25.61C728.65,308.4,730.77,306.28,730.77,303.96L730.77,303.96z"/>
		<path id="path28" style="fill:#0386AF;" d="M858.82,253.37V241.1c0-31.96-17.57-55.66-52.28-55.66
			c-33.65,0-53.55,21.59-53.55,55.66v14.82c0,40.85,27.51,54.39,53.12,54.39c18.41,0,29.84-1.69,43.39-5.08
			c3.6-0.85,4.44-2.33,4.44-5.71v-16.09c0-2.33-1.69-3.39-4.02-3.39c-0.21,0-0.42,0-0.63,0c-8.47,0.85-27.3,1.9-40.64,1.9
			c-16.72,0-21.8-11.01-21.8-23.07v-0.42h67.52C857.12,258.45,858.82,256.55,858.82,253.37z M825.38,237.29h-38.52v-0.85
			c0-15.45,7.83-23.49,19.47-23.49c11.85,0,19.05,7.83,19.05,23.49V237.29z"/>
	</g>
</g>
</svg>
