<?xml version="1.0"?>
<svg xmlns="http://www.w3.org/2000/svg" xmlns:xlink="http://www.w3.org/1999/xlink" xmlns:svgjs="http://svgjs.com/svgjs" version="1.1" width="512" height="512" x="0" y="0" viewBox="0 0 512 512" style="enable-background:new 0 0 512 512" xml:space="preserve" class=""><g><g xmlns="http://www.w3.org/2000/svg" id="XMLID_1037_"><g id="XMLID_3165_"><g id="XMLID_3166_"><g id="XMLID_3167_"><g id="XMLID_3168_"><g id="XMLID_3169_"><g id="XMLID_3170_"><g id="XMLID_3171_"><g id="XMLID_3172_"><g id="XMLID_3177_"><g id="XMLID_3179_"><g id="XMLID_3180_"><g id="XMLID_3181_"><g id="XMLID_3182_"><g id="XMLID_3183_"><path id="XMLID_3197_" d="m512 256c0 58.58-19.68 112.56-52.78 155.7 0 0-120.42 21.8-203.22 21.8s-203.22-21.8-203.22-21.8c-33.1-43.14-52.78-97.12-52.78-155.7 0-141.38 114.62-256 256-256s256 114.62 256 256z" fill="#f1f1f1" data-original="#404a4a" style="" class=""/></g></g></g></g></g></g></g></g></g></g></g></g></g></g><path id="XMLID_3361_" d="m459.22 411.7c33.1-43.14 52.78-97.12 52.78-155.7 0-27.464-4.343-53.91-12.349-78.71l-40.988-41.108-405.883 275.518s120.42 21.8 203.22 21.8 203.22-21.8 203.22-21.8z" fill="#f1f1f1" data-original="#333d3d" style="" class=""/><g id="XMLID_596_"><g id="XMLID_813_"><path id="XMLID_3195_" d="m459.22 173.58v238.12c-46.79 60.98-120.42 100.3-203.22 100.3s-156.43-39.32-203.22-100.3v-238.12z" fill="#f9f9f9" data-original="#f9f9f9" style="" class=""/></g><g id="XMLID_945_"><path id="XMLID_3193_" d="m459.22 173.58v238.12c-46.79 60.98-120.42 100.3-203.22 100.3v-338.42z" fill="#e7f9fb" data-original="#e7f9fb" style="" class=""/></g><g id="XMLID_810_"><path id="XMLID_1695_" d="m75.154 197.51h103.329v78.443h-103.329z" fill="#ff6326" data-original="#ff6326" style="" class=""/><path id="XMLID_812_" d="m208.483 197.51h94.049v78.443h-94.049z" fill="#ff6326" data-original="#ff6326" style="" class=""/><g fill="#ff1f3d"><path id="XMLID_956_" d="m256 197.51h46.529v78.447h-46.529z" fill="#ff1f3d" data-original="#ff1f3d" style="" class=""/><path id="XMLID_811_" d="m332.529 197.51h104.316v78.443h-104.316z" fill="#ff1f3d" data-original="#ff1f3d" style="" class=""/></g></g><g id="XMLID_799_"><path id="XMLID_809_" d="m150 305.957h91v78.09h-91z" fill="#ff6326" data-original="#ff6326" style="" class=""/><path id="XMLID_808_" d="m271 305.957h92.33v78.09h-92.33z" fill="#ff1f3d" data-original="#ff1f3d" style="" class=""/><path id="XMLID_807_" d="m75.155 305.957h44.845v78.09h-44.845z" fill="#ff6326" data-original="#ff6326" style="" class=""/><path id="XMLID_806_" d="m393.33 305.957h43.52v78.09h-43.52z" fill="#ff1f3d" data-original="#ff1f3d" style="" class=""/></g><g id="XMLID_597_"><path id="XMLID_1041_" d="m178.48 414.05v79.58h-17.89c-32.25-12.96-61.25-32.3-85.44-56.45v-23.13z" fill="#ff6326" data-original="#ff6326" style="" class=""/><path id="XMLID_683_" d="m208.483 414.045h94.049v79.592h-94.049z" fill="#ff6326" data-original="#ff6326" style="" class=""/><g fill="#ff1f3d"><path id="XMLID_953_" d="m256 414.047h46.529v79.585h-46.529z" fill="#ff1f3d" data-original="#ff1f3d" style="" class=""/><path id="XMLID_1045_" d="m436.85 414.05v23.13c-24.19 24.15-53.19 43.49-85.44 56.45h-18.88v-79.58z" fill="#ff1f3d" data-original="#ff1f3d" style="" class=""/></g></g><path id="XMLID_882_" d="m436.247 126.19h-360.494c-16.659 0-30.164 13.505-30.164 30.164v26.867c0 8.652 7.014 15.667 15.667 15.667 4.574 0 9.04 1.47 12.67 4.254 7.847 6.02 18.159 9.678 29.461 9.678 8.677 0 16.773-2.153 23.617-5.877 9.104-4.953 19.97-4.953 29.073 0 6.844 3.724 14.94 5.877 23.617 5.877s16.773-2.153 23.617-5.877c9.104-4.953 19.97-4.953 29.073 0 6.844 3.724 14.94 5.877 23.617 5.877s16.773-2.153 23.617-5.877c9.104-4.953 19.97-4.953 29.073 0 6.844 3.724 14.94 5.877 23.617 5.877s16.773-2.153 23.617-5.877c9.026-4.91 20.048-4.91 29.073 0 6.844 3.724 14.94 5.877 23.617 5.877 11.303 0 21.615-3.658 29.461-9.678 3.629-2.785 8.095-4.254 12.669-4.254 8.652 0 15.667-7.014 15.667-15.667v-26.867c-.001-16.659-13.506-30.164-30.165-30.164z" fill="#e7f9fb" data-original="#e7f9fb" style="" class=""/><path id="XMLID_955_" d="m466.41 156.35v26.87c0 4.32-1.75 8.24-4.59 11.08-2.83 2.84-6.75 4.59-11.08 4.59-1.24 0-2.47.11-3.68.33-3.26.57-6.34 1.89-8.98 3.92-7.85 6.02-18.16 9.68-29.47 9.68-8.67 0-16.77-2.15-23.61-5.88-9.03-4.91-20.05-4.91-29.08 0-6.84 3.73-14.94 5.88-23.61 5.88-6.92 0-13.47-1.37-19.31-3.81-1.48-.62-2.92-1.32-4.31-2.07-9.1-4.95-19.97-4.95-29.07 0-6.85 3.73-14.94 5.88-23.62 5.88v-86.63h180.25c16.66 0 30.16 13.51 30.16 30.16z" fill="#d5e7f6" data-original="#d5e7f6" style=""/></g></g></g></svg>
