<?xml version="1.0" encoding="utf-8"?>
<svg version="1.1" id="Layer_1" xmlns="http://www.w3.org/2000/svg" xmlns:xlink="http://www.w3.org/1999/xlink" x="0px" y="0px"
	width="100px" height="100px" viewBox="0 0 125.3 124.9" style="enable-background:new 0 0 125.3 124.9;" xml:space="preserve">
<g>
	<path style="fill:#015ABA;" d="M62.5,0C27.7,0,0,27.7,0,62.5c0,34.5,28.1,62.4,62.8,62.4c34.7-0.1,62.5-27.9,62.5-62.6
		C125.1,27.6,97.3,0,62.5,0z M62.1,112C35.1,111.8,13,89.6,13,62.5c0-27.6,22.4-50,49.9-49.8c27.4,0.2,49.5,22.5,49.5,49.8
		C112.3,89.9,89.7,112.2,62.1,112z"/>
	<path style="fill:#F08E00;" d="M50.8,29.7c10.1-7.5,20.9-8.4,31.9-3.3c12.8,5.8,19.7,16.1,20.4,30.1c0.6,12.1-4.4,21.3-15.2,29
		c0.1-2.8,0-3.9,0-5.6c-0.2-7.8,0.9-6.7-7.1-6.8c-4.2,0-8.4-1-10.7,4.5c-1.3,3.3-5.3,2.9-8.5,2.6c-1.9-0.2-1.7-1.8-1.7-3
		c0-8.2,0-16.3,0-24.5c0-1.7,0.6-3.2,1.8-4.5c1.1-1.1,3.4-1,3.4-3.2c0-4.7,0.1-9.3-0.1-14c-0.1-1.8-2-1.3-3.2-1.4
		C58.1,29.7,54.4,29.7,50.8,29.7z"/>
	<path style="fill:#015ABA;" d="M82.4,86.7c0-1.6,0-3.3,0-4.9c0-1.2,0.6-3-1.1-3.4c-1.9-0.4-4.4-1.2-5.6,0.8
		c-4.1,6.7-10.6,6.5-17.2,6.5c-3.2,0-3.9-1.2-3.9-4.1c0.1-9.6,0.1-19.3,0-29c0-3.5,0.5-6.5,3.8-8.6c0.7-0.4,1.1-0.9,1.4-1.5v-7.6
		H33.7v1.5v5.8c0.3,0.9,0.8,1.7,1.9,2.4c2.7,1.6,3.3,4.4,3.2,7.4c-0.1,7.8-0.1,15.6,0,23.5c0.1,4-0.5,7.3-4.1,10
		c-0.5,0.4-0.8,0.8-1.1,1.2v8.5v1.7h48.7V86.7H82.4z"/>
</g>
</svg>
