<svg xmlns="http://www.w3.org/2000/svg" width="400" height="132" viewBox="0 0 75 24.75"><path d="M7.807 15.777c.599 0 1.088-.496 1.088-1.094 0-.614-.5-1.092-1.1-1.092H1.317a1.09 1.09 0 0 0-1.089 1.092v8.425c0 .618.505 1.089 1.098 1.089h6.481a1.09 1.09 0 0 0 1.088-1.089c0-.613-.5-1.091-1.1-1.091h-5.39v-2.034l4.593-.007c.601 0 1.085-.485 1.085-1.088 0-.61-.502-1.082-1.094-1.082H2.405v-2.029zm9.753-2.186a1.09 1.09 0 0 0-1.086 1.092v5.048c0 1.429-1.051 2.482-2.232 2.482s-2.225-1.053-2.225-2.482v-5.048c0-.588-.472-1.079-1.068-1.092-.618-.003-1.103.494-1.103 1.092v5.048c0 2.494 1.931 4.572 4.415 4.586 2.455-.014 4.38-2.097 4.38-4.586v-5.048c0-.588-.467-1.092-1.08-1.092m9.944 3.759a1.51 1.51 0 0 0-1.507-1.512h-3.65v3.021h3.65a1.51 1.51 0 0 0 1.507-1.509m13.939 1.606c0 3.133-2.302 5.676-5.288 5.676h-4.96c-2.269 0-3.828-.607-4.795-1.716a5.68 5.68 0 0 1-.409-.509l-1.013-1.374h-2.631v2.146c0 .594-.482 1.075-1.08 1.075a1.08 1.08 0 0 1-1.08-1.075l-.009-8.432c0-.599.487-1.086 1.082-1.086h4.74c2.037 0 3.685 1.651 3.685 3.689 0 1.524-.925 2.832-2.248 3.392l.422.557c.186.248.406.465.665.632.154.096.38.223.634.326.598.233 1.384.385 2.037.385h4.96c1.628 0 2.993-1.674 2.993-3.686 0-2.006-1.363-3.462-2.993-3.462s-2.995 1.456-2.995 3.462c0 1.137.474 2.093 1.181 2.713l.227.199h-2.931a5.82 5.82 0 0 1-.767-2.912c0-3.133 2.301-5.672 5.285-5.672s5.288 2.539 5.288 5.672M34.423 1.949l-2.848.58c-.198.036-.314.197-.271.412l.598 2.922c.2.997.924 1.223 1.728 1.065l1.732-.356-.174-.85-1.679.341c-.438.09-.63.005-.731-.479l-.085-.439 2.093-.427-.175-.835-2.093.427-.205-1.042 2.278-.467zm5.66 1.348l1.66.44.218-.843-1.707-.444c-.788-.206-1.528-.017-1.787.962l-.761 2.887c-.051.213.056.37.251.426l.556.144.492-1.867 2.057.537.218-.824-2.062-.541.119-.437c.121-.469.317-.548.746-.44m-3.929 5.116c3.064 0 5.81 1.348 7.689 3.483l.54-.477C42.38 9.136 39.434 7.69 36.154 7.69s-6.219 1.446-8.225 3.729l.544.477c1.871-2.135 4.62-3.483 7.681-3.483m0-7.613c4.998 0 9.52 2.056 12.757 5.374l.515-.505C46.057 2.221 41.357.078 36.154.078s-9.899 2.142-13.27 5.59l.514.505C26.636 2.856 31.16.8 36.154.8m9.021 9.674l1.339-4.642c.052-.17.068-.334-.148-.499l-.178-.139a.4.4 0 0 0-.523-.012L41.62 7.81l.855.48 2.917-1.892-.458 1.59-.38-.291-.772.505.894.687-.26.893zM28.473 8.39c-.248.202-.549.307-.822.278-.329-.041-.538-.177-.85-.567L25.19 6.12l-.716.588 1.758 2.163c.371.451.79.692 1.279.736.552.051 1.045-.112 1.535-.509.484-.396.75-.843.814-1.398.052-.488-.1-.946-.463-1.395l-1.763-2.172-.714.582 1.609 1.979c.318.388.406.619.378.954-.023.268-.19.541-.436.742M73.4 18.913c0-2.096-1.146-4.232-3.064-4.228-1.971.003-3.035 2.156-3.035 4.18 0 2.096 1.146 4.232 3.064 4.228 1.971-.003 3.035-2.156 3.035-4.18m1.499-.061c0 3.21-1.962 5.613-4.563 5.617-2.627.005-4.534-2.327-4.534-5.543 0-3.21 1.962-5.612 4.563-5.616 2.627-.005 4.534 2.326 4.534 5.543m-17.947.089c0-2.096-1.146-4.232-3.064-4.228-1.971.003-3.035 2.156-3.035 4.18 0 2.096 1.146 4.232 3.064 4.228 1.971-.003 3.035-2.156 3.035-4.18m1.498-.061c0 3.21-1.961 5.613-4.563 5.617-2.627.005-4.534-2.327-4.534-5.544 0-3.209 1.961-5.611 4.562-5.616 2.627-.005 4.534 2.327 4.534 5.543m-9.323 3.948l-5.482.009c.132-.386.388-.691.816-.968l2.985-1.936c1.389-.846 2.429-2.658 1.555-4.713-.509-1.198-1.706-1.887-3.255-1.888-2.114 0-3.588 1.4-3.659 3.489a.75.75 0 0 0 .747.754c.405 0 .74-.341.747-.746.056-1.953 1.666-2.1 2.162-2.1 1.329 0 2.155.839 2.153 2.193-.003.874-.669 1.485-1.231 1.837l-2.991 1.936c-1.107.714-1.596 1.681-1.623 3.213l-.008.308h7.082c.388 0 .697-.308.697-.698a.69.69 0 0 0-.695-.692m17.138.692c-.001.389-.309.698-.698.698h-7.081l.008-.308c.027-1.532.517-2.498 1.624-3.213l2.991-1.936c.562-.352 1.23-.963 1.231-1.837.003-1.354-.823-2.192-2.152-2.193-.496 0-2.106.147-2.162 2.1a.76.76 0 0 1-.747.746.75.75 0 0 1-.747-.754c.071-2.089 1.545-3.489 3.659-3.489 1.549 0 2.745.69 3.255 1.888.874 2.055-.166 3.867-1.555 4.713-.76.463-2.986 1.936-2.986 1.936-.428.277-.685.582-.816.968l5.482-.009a.69.69 0 0 1 .695.692" fill="#0084a4"/></svg>