<?xml version="1.0"?>
<svg xmlns="http://www.w3.org/2000/svg" xmlns:xlink="http://www.w3.org/1999/xlink" xmlns:svgjs="http://svgjs.com/svgjs" version="1.1" width="512" height="512" x="0" y="0" viewBox="0 0 512 512" style="enable-background:new 0 0 512 512" xml:space="preserve" class=""><g>
<circle xmlns="http://www.w3.org/2000/svg" style="" cx="256" cy="256" r="256" fill="#f1f1f1" data-original="#fedb41" class=""/>
<path xmlns="http://www.w3.org/2000/svg" style="" d="M512,256c0-7.623-0.353-15.162-1.006-22.615L419,141.391l-253.333,13.943l-56.333,30.333L93,332.406  l20,19.102L93,370.61l140.385,140.385C240.838,511.647,248.377,512,256,512C397.385,512,512,397.385,512,256z" fill="#f1f1f1" data-original="#fea832" class=""/>
<path xmlns="http://www.w3.org/2000/svg" style="" d="M205.436,300.573h-72.06c-1.436,4.095-2.173,8.376-2.173,12.731c0,21.07,17.134,38.203,38.203,38.203  s38.203-17.134,38.203-38.203C207.609,308.949,206.873,304.668,205.436,300.573z" fill="#57555c" data-original="#57555c"/>
<path xmlns="http://www.w3.org/2000/svg" style="" d="M377.987,300.573h-72.06c-1.436,4.095-2.173,8.376-2.173,12.731c0,21.07,17.134,38.203,38.203,38.203  s38.203-17.134,38.203-38.203C380.16,308.949,379.423,304.668,377.987,300.573z" fill="#3c3a41" data-original="#3c3a41"/>
<g xmlns="http://www.w3.org/2000/svg">
	<path style="" d="M256,236.898c-15.855,0-28.652,12.798-28.652,28.652v28.652h76.406v-57.305L256,236.898L256,236.898   z" fill="#664b34" data-original="#664b34"/>
	<path style="" d="M188.508,150.941v85.957h-28.652c-15.8,0-28.652,12.853-28.652,28.652v28.652h76.406v-47.754v-9.551   V150.94L188.508,150.941L188.508,150.941z" fill="#664b34" data-original="#664b34"/>
</g>
<path xmlns="http://www.w3.org/2000/svg" style="" d="M380.16,150.941v85.957h-28.652c-15.8,0-28.652,12.853-28.652,28.652v28.652h76.406v-47.754v-9.551  V150.94L380.16,150.941L380.16,150.941z" fill="#59422d" data-original="#59422d"/>
<path xmlns="http://www.w3.org/2000/svg" style="" d="M419,141.391v19.102H178.957c-36.866,0-66.855,29.99-66.855,66.855v74.114L93,275.102v-47.754  c0-47.373,38.586-85.957,85.957-85.957L419,141.391L419,141.391z" fill="#fd3018" data-original="#fd3018"/>
<rect xmlns="http://www.w3.org/2000/svg" x="256" y="141.39" style="" width="163" height="19.1" fill="#e61e14" data-original="#e61e14" class=""/>
<rect xmlns="http://www.w3.org/2000/svg" x="93" y="351.51" style="" width="326" height="19.1" fill="#6ecd24" data-original="#6ecd24" class=""/>
<polygon xmlns="http://www.w3.org/2000/svg" style="" points="284.652,217.797 284.652,236.898 256,236.898 256,294.203 303.754,294.203 303.754,265.551   303.754,236.898 303.754,217.797 " fill="#59422d" data-original="#59422d"/>
<rect xmlns="http://www.w3.org/2000/svg" x="256" y="351.51" style="" width="163" height="19.1" fill="#66bd21" data-original="#66bd21" class=""/>
<path xmlns="http://www.w3.org/2000/svg" style="" d="M93,275.102v57.305h326v-57.305H93z" fill="#fd3018" data-original="#fd3018"/>
<rect xmlns="http://www.w3.org/2000/svg" x="256" y="275.1" style="" width="163" height="57.3" fill="#e61e14" data-original="#e61e14" class=""/>
<g xmlns="http://www.w3.org/2000/svg">
</g>
<g xmlns="http://www.w3.org/2000/svg">
</g>
<g xmlns="http://www.w3.org/2000/svg">
</g>
<g xmlns="http://www.w3.org/2000/svg">
</g>
<g xmlns="http://www.w3.org/2000/svg">
</g>
<g xmlns="http://www.w3.org/2000/svg">
</g>
<g xmlns="http://www.w3.org/2000/svg">
</g>
<g xmlns="http://www.w3.org/2000/svg">
</g>
<g xmlns="http://www.w3.org/2000/svg">
</g>
<g xmlns="http://www.w3.org/2000/svg">
</g>
<g xmlns="http://www.w3.org/2000/svg">
</g>
<g xmlns="http://www.w3.org/2000/svg">
</g>
<g xmlns="http://www.w3.org/2000/svg">
</g>
<g xmlns="http://www.w3.org/2000/svg">
</g>
<g xmlns="http://www.w3.org/2000/svg">
</g>
</g></svg>
