<?xml version="1.0" encoding="utf-8"?>
<svg version="1.1" id="Layer_1" xmlns="http://www.w3.org/2000/svg" xmlns:xlink="http://www.w3.org/1999/xlink" x="0px" y="0px"
	width="100px" height="100px" viewBox="0 0 66.7 66.7" style="enable-background:new 0 0 66.7 66.7;" xml:space="preserve">
<g>
	<circle style="fill:#E8E8E8;" cx="33.3" cy="33.3" r="33.3"/>
	<circle style="fill:#FFFFFF;" cx="33.3" cy="33.3" r="32.7"/>
	<g>
		<path style="fill:#333333;" d="M9.1,31.8v4.1H7.9v-4.1H6.5v-1.1h4.1v1.1H9.1z M11.1,35.9v-5.2h3.5v1h-2.3v0.9h2.1v1.1h-2.1v1.1
			h2.3v1.1L11.1,35.9L11.1,35.9z M20.2,35.9l0.1-3.7h-0.1l-1.3,3.7H18l-1.3-3.7l0,0v3.7h-1.2v-5.2h1.8l1.1,3.3h0.1l1.1-3.3h1.7v5.2
			C21.3,35.9,20.2,35.9,20.2,35.9z M26.3,32.3c0,0.3-0.1,0.5-0.1,0.7c-0.1,0.2-0.3,0.3-0.4,0.5c-0.2,0.1-0.4,0.3-0.7,0.3
			c-0.3,0.1-0.5,0.1-0.8,0.1h-0.7v1.9h-1.2v-5.2h1.9c0.3,0,0.5,0.1,0.8,0.1c0.3,0.1,0.5,0.1,0.6,0.3c0.1,0.1,0.3,0.3,0.4,0.5
			C26.3,31.8,26.3,32.1,26.3,32.3 M25.1,32.3c0-0.1-0.1-0.3-0.1-0.3l-0.2-0.2c-0.1-0.1-0.2-0.1-0.3-0.1c-0.1,0-0.2-0.1-0.3-0.1h-0.6
			v1.3h0.6c0.1,0,0.3,0,0.3-0.1c0.1,0,0.2-0.1,0.3-0.1l0.2-0.2C25.1,32.6,25.1,32.5,25.1,32.3 M34.6,35.9l-0.4-1.1h-2l-0.4,1.1h-1.3
			l2.2-5.2h1.2l2.1,5.2C36,35.9,34.6,35.9,34.6,35.9z M33.3,32.1l-0.7,1.8h1.3L33.3,32.1z M38.2,31.8v4.1h-1.3v-4.1h-1.4v-1.1h4.2
			v1.1H38.2z M40.3,35.9v-5.2h3.3v1h-2.1v0.9h2.1v1.1h-2.1v1.1h2.4v1.1L40.3,35.9L40.3,35.9z M45.4,35.5c0,0.1-0.1,0.2-0.1,0.3
			s-0.1,0.1-0.3,0.1s-0.2-0.1-0.3-0.1s-0.1-0.1-0.1-0.3s0.1-0.2,0.1-0.3s0.1-0.1,0.3-0.1s0.2,0.1,0.3,0.1
			C45.4,35.3,45.4,35.5,45.4,35.5"/>
		<path style="fill:#333333;" d="M50.3,35.1L50.3,35.1v-4.4h0.5v5.2h-0.7l-3-4.5l0,0v4.5h-0.5v-5.2h0.7L50.3,35.1z M52.7,35.5h2.8
			v0.4h-3.3v-5.2h3.3v0.4h-2.7v1.9h2.5v0.4h-2.5V35.5z M58.5,35.9h-0.5v-4.7h-1.6v-0.4h3.9v0.4h-1.7V35.9z M28.4,34.9v-4.1h-1.3V36
			h2.7l0.5-1.1L28.4,34.9L28.4,34.9z"/>
	</g>
</g>
</svg>
