<?xml version="1.0" encoding="utf-8"?>
<svg version="1.1" id="Layer_1" xmlns="http://www.w3.org/2000/svg" xmlns:xlink="http://www.w3.org/1999/xlink" x="0px" y="0px"
	width="100px" height="100px" viewBox="0 0 66.7 66.7" style="enable-background:new 0 0 66.7 66.7;" xml:space="preserve">
<g>
	<circle style="fill:#E8E8E8;" cx="33.3" cy="33.3" r="33.3"/>
	<circle style="fill:#FFFFFF;" cx="33.3" cy="33.3" r="32.7"/>
	<path style="fill:#2D0E4E;" d="M39.9,21.5c-4.1,0.9-3.9,6.7,0.3,7.3c2.7,0.3,4.7-2,4.1-4.6C43.8,22.3,41.9,21.1,39.9,21.5z
		 M12.5,21.5c-2.4,0.3-2.4,3.7,0,4h0.2v-0.9l-0.2-0.1c-0.8-0.2-0.9-1.3-0.1-1.7c0.2-0.1,0.3-0.1,0.7-0.1h0.5v1.9
		c0,2.1,0,2.1,0.3,2.7c1,2,4.5,2,5.5,0c0.3-0.7,0.3-0.6,0.3-3.3v-2.5h-1.5v2.2c0,2.3,0,2.6-0.2,2.9c-0.4,0.8-1.9,1-2.5,0.3
		c-0.3-0.4-0.3-0.3-0.3-3v-2.4H14C13.3,21.5,12.7,21.5,12.5,21.5C12.5,21.5,12.5,21.5,12.5,21.5z M22.8,21.5v3.6v3.5h1.5v-2.1v-2.1
		l3.7,4.3h1.1v-7.1h-1.6v4.3l-3.7-4.3h-0.5C23.3,21.5,22.8,21.5,22.8,21.5z M32.5,21.5v3.6v3.5h1.6v-7.2h-0.8
		C32.7,21.5,32.5,21.5,32.5,21.5z M46.8,25.1v3.5h1.6v-2.1v-2.1c0,0,0.9,0.9,1.9,2.1l1.8,2.1h1.1v-7.2h-1.5v4.3L48,21.5h-1.1
		C46.9,21.5,46.8,25.1,46.8,25.1z M41.2,22.9c1.7,0.4,2.2,2.6,0.9,3.8c-1.3,1.3-3.5,0.5-3.7-1.5C38.4,23.7,39.8,22.5,41.2,22.9z
		 M9.8,32.2c0,0,0.2,0.3,0.5,0.5l0.5,0.5H56l0.9-1.1H33.3C33.3,32.2,9.8,32.2,9.8,32.2z M35.9,37.5c-0.8,0.2-1.2,1-1,1.8
		c0.1,0.6,0.7,1,1.3,1.1c0.8,0.1,1.5-0.5,1.6-1.3s-0.5-1.5-1.3-1.6C36.3,37.5,36.1,37.5,35.9,37.5C35.9,37.5,35.9,37.5,35.9,37.5z
		 M42.8,37.5c-0.8,0.3-0.7,1.1,0.1,1.5c0.5,0.2,0.6,0.3,0.6,0.5c0,0.4-0.5,0.5-0.9,0.2l-0.1-0.1L42.1,40l0.2,0.1
		c0.9,0.5,1.9,0.1,1.8-0.7c-0.1-0.3-0.3-0.5-1-0.8c-0.3-0.1-0.3-0.3-0.3-0.4c0.1-0.2,0.5-0.3,0.7-0.1l0.1,0.1l0.3-0.4l-0.1-0.1
		C43.6,37.5,43.2,37.4,42.8,37.5L42.8,37.5L42.8,37.5z M14,38.9v1.4h0.5v-1.3H16v1.3h0.5v-2.9H16V38v0.5h-1.4v-1.1h-0.5
		C14.1,37.5,14.1,38.9,14,38.9L14,38.9z M18.3,38.9l-0.6,1.4c0,0.1,0,0.1,0.3,0.1h0.3l0.3-0.6h1.1l0.3,0.6h0.3
		c0.3,0,0.4,0.1-0.3-1.5l-0.6-1.3h-0.4L18.3,38.9C18.3,38.9,18.3,38.9,18.3,38.9z M21.5,38.9v1.4H22v-0.9v-0.9
		c0.3,0.3,0.5,0.6,0.8,0.9l0.7,0.9h0.4v-2.8h-0.5v0.9v0.9l-1.5-1.8h-0.4V38.9z M25.3,38.9v1.5H26c0.8,0,1-0.1,1.3-0.4
		c0.5-0.5,0.6-1.5,0-2.1l-0.1-0.1c-0.3-0.2-0.4-0.3-1.2-0.3h-0.7V38.9L25.3,38.9z M31.7,38.9v1.4h0.5v-1.3h0.1
		c0.1,0,0.2,0.1,0.6,0.7l0.5,0.7h0.3c0.4,0,0.4,0.1-0.2-0.7l-0.5-0.6l0.1-0.1c0.3-0.1,0.5-0.7,0.3-1c-0.2-0.3-0.4-0.4-1.2-0.4h-0.7
		V38.9L31.7,38.9z M39.7,37.6c-0.1,0.1-1.2,2.7-1.2,2.7h0.3h0.3l0.1-0.3l0.1-0.3h1.1l0.2,0.3l0.1,0.3h0.3c0.2,0,0.3,0,0.3-0.1
		l-0.6-1.4l-0.6-1.3h-0.2C39.8,37.5,39.7,37.5,39.7,37.6L39.7,37.6z M44.9,37.7V38h0.7v2.3h0.5V38h0.7v-0.4h-2.1L44.9,37.7
		L44.9,37.7z M48.1,38.9v1.4h1.7v-0.5h-1.1v-0.7h0.8v-0.4h-0.8V38h1.1v-0.4h-1.7V38.9z M51.1,38.9v1.5h0.7c1.2,0,1.7-0.4,1.7-1.4
		s-0.5-1.4-1.9-1.4h-0.5L51.1,38.9C51.1,38.9,51.1,38.9,51.1,38.9z M36.7,38c0.8,0.3,0.7,1.6-0.1,1.8c-0.9,0.3-1.5-0.9-0.9-1.6
		C35.9,38,36.3,37.9,36.7,38z M26.7,38.1c0.9,0.4,0.5,1.7-0.5,1.7h-0.3V38h0.3C26.5,38,26.6,38,26.7,38.1L26.7,38.1z M33,38.1
		c0.3,0.3,0.1,0.5-0.4,0.5h-0.3v-0.7h0.3C32.9,38,32.9,38,33,38.1z M52.4,38.1c1,0.3,0.6,1.8-0.5,1.8h-0.3V38h0.3
		C52.1,38,52.3,38,52.4,38.1z M19.2,38.8c0.2,0.5,0.2,0.4-0.2,0.4h-0.3l0.1-0.3l0.2-0.4c0-0.1,0.1-0.1,0.1-0.1
		C19,38.5,19.1,38.6,19.2,38.8L19.2,38.8z M40.1,38.8c0.2,0.5,0.2,0.4-0.2,0.4h-0.3c0,0,0.1-0.1,0.1-0.3c0.1-0.1,0.1-0.3,0.2-0.4
		C39.9,38.4,39.9,38.4,40.1,38.8L40.1,38.8L40.1,38.8z M28.9,38.9v0.2h1.5v-0.4h-1.5V38.9C28.9,38.9,28.9,38.9,28.9,38.9z
		 M26.1,42.4c-0.8,0.1-1.3,0.9-1.2,1.6c0,0,0,0,0,0c0.1,0.3,0.2,0.6,0.5,0.9c0.6,0.5,1.5,0.5,2.1,0c0.2-0.1,0.2-0.1-0.1-0.3
		l-0.2-0.1l-0.1,0.1c-0.3,0.3-1,0.3-1.3,0c-0.9-0.8,0.3-2.2,1.2-1.5l0.1,0.1l0.1-0.1c0.2-0.2,0.2-0.3,0.1-0.4
		C27,42.4,26.6,42.3,26.1,42.4C26.1,42.4,26.1,42.4,26.1,42.4z M29.5,42.4c-0.7,0.1-1.2,0.7-1.2,1.5c0.1,1.9,2.9,1.8,2.9-0.1
		C31.3,42.9,30.5,42.3,29.5,42.4L29.5,42.4L29.5,42.4z M32.3,43.8v1.4h0.5V44h0.9v-0.5h-0.9v-0.6H34v-0.5h-1.7L32.3,43.8L32.3,43.8
		C32.3,43.8,32.3,43.8,32.3,43.8z M35.1,43.8v1.4h0.7V44h0.8v-0.3v-0.3h-0.8v-0.5h1.1v-0.5h-1.7V43.8L35.1,43.8L35.1,43.8z
		 M37.9,42.4c0,0-0.1,0.7-0.1,1.4v1.3h1.8v-0.2v-0.2h-1.1V44h0.9v-0.5h-0.9v-0.5h1.1v-0.5h-0.8H37.9L37.9,42.4L37.9,42.4z
		 M40.9,43.8v1.4h1.7V45v-0.3h-1.1v-0.4V44h0.9v-0.5h-0.9v-0.5h1.2v-0.3v-0.3H41v1.4C41,43.8,40.9,43.8,40.9,43.8z M30.1,42.9
		c0.5,0.2,0.7,0.8,0.5,1.3c-0.2,0.5-0.7,0.6-1.2,0.4c-0.2-0.1-0.3-0.3-0.4-0.5C28.7,43.5,29.3,42.7,30.1,42.9L30.1,42.9
		C30.1,42.9,30.1,42.9,30.1,42.9z"/>
</g>
</svg>
