<?xml version="1.0" encoding="utf-8"?>
<!-- Generator: Adobe Illustrator 24.2.1, SVG Export Plug-In . SVG Version: 6.00 Build 0)  -->
<svg version="1.1" xmlns="http://www.w3.org/2000/svg" xmlns:xlink="http://www.w3.org/1999/xlink" x="0px" y="0px"
	 viewBox="0 0 1299.6 330.1" style="enable-background:new 0 0 1299.6 330.1;" xml:space="preserve">
<style type="text/css">
	.st0{fill:#606060;}
	.st1{fill:url(#SVGID_1_);}
	.st2{fill:url(#SVGID_2_);}
	.st3{fill:url(#SVGID_3_);}
	.st4{fill:url(#SVGID_4_);}
	.st5{fill:url(#SVGID_5_);}
</style>
<g id="Layer_1">
	<g>
		<path class="st0" d="M373.2,227c9.9,0,17.7-1.8,23.2-5.4s8.3-9.5,8.3-17.6c0-4.7-0.9-8.6-2.7-11.7s-4.1-5.8-7.1-7.9
			c-3-2.1-6.3-4-10.1-5.5c-3.8-1.5-7.8-3.1-12-4.9c-5.3-2.1-10-4.2-14.2-6.4c-4.2-2.2-7.7-4.7-10.7-7.4s-5.2-5.9-6.7-9.5
			s-2.3-7.7-2.3-12.5c0-10.9,3.6-19.2,10.9-24.8s17.3-8.5,30.2-8.5c3.4,0,6.8,0.2,10.1,0.7s6.4,1.1,9.3,1.9c2.9,0.8,5.5,1.7,7.9,2.7
			c2.4,1,4.4,2,6,3.1l-4.4,10.5c-3.6-2.4-7.9-4.4-13-5.9s-10.6-2.2-16.5-2.2c-4,0-7.8,0.4-11.1,1.2c-3.4,0.8-6.3,2.1-8.7,3.9
			c-2.5,1.8-4.4,4-5.8,6.7c-1.4,2.7-2.1,5.9-2.1,9.8c0,3.9,0.7,7.2,2.2,9.9s3.5,5,6.2,7s5.7,3.7,9.3,5.3c3.6,1.6,7.4,3.2,11.6,5
			c5,2.1,9.8,4.2,14.3,6.3s8.4,4.5,11.7,7.4c3.3,2.8,6,6.3,7.9,10.3s2.9,9,2.9,14.9c0,11.5-4,20.2-12,25.9c-8,5.8-18.9,8.6-32.7,8.6
			c-4.9,0-9.4-0.3-13.4-0.9c-4-0.6-7.7-1.4-10.9-2.3c-3.2-0.9-5.9-1.9-8.1-2.9c-2.2-1-3.9-1.8-5.1-2.6l4-10.9c1.2,0.7,2.9,1.6,5,2.6
			c2.1,1,4.5,1.9,7.4,2.9c2.8,0.9,6,1.7,9.6,2.3C365,226.7,368.9,227,373.2,227z"/>
		<path class="st0" d="M458.1,137.7c6.3,0,11.6,0.9,15.9,2.7c4.4,1.8,7.9,4.2,10.6,7.4c2.7,3.1,4.7,6.8,5.9,11.1
			c1.2,4.3,1.8,9,1.8,14v60c-1.2,0.4-3,0.8-5.3,1.2s-5,0.9-8.1,1.4s-6.5,0.9-10.2,1.2c-3.7,0.3-7.6,0.5-11.5,0.5
			c-5,0-9.7-0.6-13.9-1.7c-4.2-1.1-7.9-2.9-11-5.2c-3.1-2.4-5.6-5.5-7.4-9.2c-1.8-3.7-2.7-8.3-2.7-13.7c0-5.1,1-9.6,2.9-13.2
			c2-3.7,4.7-6.7,8.3-9.1s7.8-4.1,12.7-5.2c4.9-1.1,10.2-1.7,16-1.7c1.7,0,3.5,0.1,5.4,0.3c1.9,0.2,3.7,0.4,5.5,0.7
			c1.8,0.3,3.3,0.6,4.6,0.9c1.3,0.3,2.2,0.6,2.7,0.8v-5.9c0-3.3-0.2-6.5-0.7-9.7s-1.6-5.9-3.2-8.5c-1.7-2.5-4-4.5-7-6.1
			c-3-1.5-7-2.3-11.9-2.3c-7,0-12.2,0.5-15.6,1.5c-3.4,1-6,1.8-7.5,2.4l-1.7-10.5c2.1-1,5.3-1.9,9.7-2.8
			C446.7,138.1,451.9,137.7,458.1,137.7z M459.2,226.4c4.7,0,8.7-0.1,12.2-0.5c3.5-0.3,6.5-0.7,8.9-1.2v-33.5
			c-1.4-0.6-3.5-1.3-6.4-1.9s-7-1-12.1-1c-2.9,0-6,0.2-9.2,0.6c-3.2,0.4-6.1,1.4-8.8,2.8c-2.7,1.4-4.9,3.3-6.6,5.8s-2.6,5.7-2.6,9.8
			c0,3.6,0.6,6.6,1.8,9s2.8,4.4,5,5.9c2.1,1.5,4.7,2.6,7.7,3.2C452,226.1,455.4,226.4,459.2,226.4z"/>
		<path class="st0" d="M546.8,92.2c5.2,0,9.3,0.4,12.6,1.2c3.2,0.8,5.4,1.5,6.3,2.1l-2.4,10.3c-1.3-0.6-3.3-1.3-6-1.9
			c-2.6-0.7-6-1-10-1c-8.5,0-14.5,2.2-18.1,6.4c-3.6,4.3-5.4,11.2-5.4,20.6v9.9h38.3V150h-38.3v85h-12V129.6c0-12.4,2.9-21.7,8.6-28
			C526.1,95.4,534.9,92.2,546.8,92.2z"/>
		<path class="st0" d="M564.3,187.4c0-8.3,1.2-15.6,3.6-21.8c2.4-6.2,5.5-11.4,9.4-15.6c3.9-4.2,8.3-7.3,13.2-9.3c5-2,10.1-3,15.4-3
			c11.7,0,21,3.8,27.9,11.4s10.4,19.3,10.4,35.2c0,1,0,2-0.1,2.9s-0.2,1.9-0.3,2.8H577c0.4,11.7,3.2,20.6,8.7,26.9s14,9.4,25.8,9.4
			c6.5,0,11.7-0.6,15.5-1.8c3.8-1.2,6.6-2.3,8.3-3.1l2.2,10.3c-1.7,1-4.9,2.1-9.7,3.5s-10.3,2-16.7,2c-8.3,0-15.5-1.2-21.3-3.7
			c-5.9-2.4-10.7-5.9-14.5-10.3s-6.6-9.7-8.3-15.7C565.1,201.3,564.3,194.6,564.3,187.4z M631.8,179.9c-0.2-9.9-2.6-17.7-7-23.2
			c-4.4-5.5-10.7-8.3-18.8-8.3c-4.3,0-8.1,0.9-11.5,2.6c-3.4,1.7-6.3,4-8.8,6.9c-2.5,2.9-4.5,6.2-5.9,10c-1.4,3.8-2.2,7.8-2.5,12
			H631.8z"/>
		<path class="st0" d="M713.5,237.8c-8.2,0-15.9-1.5-22.9-4.4c-7.1-2.9-13.2-7.2-18.4-12.9c-5.2-5.6-9.3-12.6-12.3-20.9
			c-3-8.3-4.5-17.8-4.5-28.4s1.6-20.1,4.9-28.4c3.2-8.3,7.6-15.2,13-20.9c5.4-5.6,11.7-9.9,18.8-12.8c7.1-2.9,14.5-4.3,22.3-4.3
			c4.8,0,9.1,0.3,13.1,0.9c3.9,0.6,7.4,1.4,10.3,2.3c3,0.9,5.5,1.8,7.5,2.8c2.1,0.9,3.7,1.8,4.8,2.5l-4,10.9
			c-3.1-1.8-7-3.7-11.7-5.4c-4.7-1.8-10.6-2.7-17.6-2.7c-8,0-14.9,1.3-20.9,4.1c-6,2.7-11,6.5-15,11.4s-7.1,10.7-9.1,17.5
			c-2,6.8-3,14.2-3,22.4c0,8.5,1,16.1,3,22.9c2,6.8,5,12.6,8.9,17.4c3.9,4.8,8.7,8.5,14.5,11c5.7,2.6,12.2,3.9,19.6,3.9
			c8.1,0,14.9-0.8,20.3-2.3c5.5-1.5,9.6-3.1,12.4-4.7l3.5,10.7c-0.9,0.6-2.3,1.3-4.4,2.1c-2.1,0.8-4.7,1.6-7.9,2.5s-6.9,1.6-11,2.1
			C723.3,237.6,718.7,237.8,713.5,237.8z"/>
		<path class="st0" d="M842,187.6c0,7.5-1.1,14.3-3.2,20.4c-2.2,6.1-5.2,11.4-9,15.6c-3.9,4.3-8.4,7.6-13.7,10
			c-5.3,2.4-11.1,3.6-17.5,3.6c-6.4,0-12.2-1.2-17.5-3.6c-5.3-2.4-9.8-5.7-13.7-10c-3.9-4.3-6.9-9.5-9-15.6s-3.2-12.9-3.2-20.4
			c0-7.5,1.1-14.3,3.2-20.4c2.1-6.1,5.2-11.4,9-15.7c3.9-4.4,8.4-7.7,13.7-10.1c5.3-2.4,11.1-3.6,17.5-3.6s12.2,1.2,17.5,3.6
			c5.3,2.4,9.8,5.8,13.7,10.1c3.9,4.4,6.9,9.6,9,15.7C840.9,173.3,842,180.1,842,187.6z M829.3,187.6c0-11.9-2.8-21.4-8.3-28.4
			s-13-10.6-22.5-10.6c-9.5,0-16.9,3.5-22.5,10.6c-5.5,7.1-8.3,16.5-8.3,28.4c0,11.9,2.8,21.4,8.3,28.3c5.5,7,13,10.5,22.5,10.5
			s16.9-3.5,22.5-10.5S829.3,199.5,829.3,187.6z"/>
		<path class="st0" d="M856.9,143.2c3.6-1,8.3-2.1,14.3-3.3c6-1.2,13.4-1.8,22.1-1.8c7.2,0,13.3,1,18.1,3.1
			c4.8,2.1,8.7,5.1,11.6,8.9c2.9,3.9,4.9,8.5,6.2,13.9c1.2,5.4,1.8,11.4,1.8,17.9v53.2h-12v-49.3c0-6.8-0.5-12.4-1.4-17.1
			c-0.9-4.7-2.5-8.5-4.6-11.4c-2.2-2.9-5-5.1-8.5-6.4c-3.5-1.3-7.9-1.9-13.2-1.9c-5.6,0-10.5,0.3-14.6,0.9c-4.1,0.6-6.8,1.2-8,1.7
			v83.6h-12L856.9,143.2L856.9,143.2z"/>
		<path class="st0" d="M950.5,143.2c3.6-1,8.3-2.1,14.4-3.3c6-1.2,13.4-1.8,22.1-1.8c7.2,0,13.3,1,18.1,3.1
			c4.8,2.1,8.7,5.1,11.6,8.9c2.9,3.9,4.9,8.5,6.2,13.9c1.2,5.4,1.8,11.4,1.8,17.9v53.2h-12v-49.3c0-6.8-0.5-12.4-1.4-17.1
			c-0.9-4.7-2.5-8.5-4.6-11.4c-2.2-2.9-5-5.1-8.5-6.4s-7.9-1.9-13.2-1.9c-5.6,0-10.5,0.3-14.6,0.9c-4.1,0.6-6.8,1.2-8,1.7v83.6h-12
			L950.5,143.2L950.5,143.2z"/>
		<path class="st0" d="M1038.5,187.4c0-8.3,1.2-15.6,3.6-21.8c2.4-6.2,5.5-11.4,9.4-15.6c3.9-4.2,8.3-7.3,13.2-9.3
			c5-2,10.1-3,15.4-3c11.7,0,20.9,3.8,27.9,11.4s10.4,19.3,10.4,35.2c0,1,0,2-0.1,2.9c-0.1,1-0.2,1.9-0.3,2.8h-66.8
			c0.4,11.7,3.2,20.6,8.7,26.9s14,9.4,25.8,9.4c6.5,0,11.7-0.6,15.5-1.8c3.8-1.2,6.6-2.3,8.3-3.1l2.2,10.3c-1.7,1-4.9,2.1-9.7,3.5
			c-4.7,1.4-10.3,2-16.7,2c-8.3,0-15.5-1.2-21.3-3.7s-10.7-5.9-14.5-10.3s-6.6-9.7-8.3-15.7C1039.4,201.3,1038.5,194.6,1038.5,187.4
			z M1106.1,179.9c-0.2-9.9-2.6-17.7-7-23.2c-4.4-5.5-10.7-8.3-18.8-8.3c-4.3,0-8.1,0.9-11.5,2.6c-3.4,1.7-6.3,4-8.8,6.9
			c-2.5,2.9-4.5,6.2-5.9,10s-2.2,7.8-2.5,12H1106.1z"/>
		<path class="st0" d="M1173.4,237.1c-7.4,0-13.9-1.2-19.5-3.5s-10.3-5.7-14.1-10c-3.7-4.4-6.6-9.6-8.6-15.6
			c-2-6.1-2.9-12.8-2.9-20.1c0-7.5,1-14.3,3-20.4c2-6.1,4.9-11.4,8.7-15.8s8.4-7.8,13.8-10.2s11.5-3.6,18.2-3.6
			c5.2,0,10,0.4,14.4,1.3s7.9,2,10.4,3.3l-3.1,10.3c-2.5-1.2-5.2-2.2-8.3-2.9c-3.1-0.7-7.2-1.1-12.3-1.1c-10.6,0-18.6,3.4-24,10.2
			c-5.5,6.8-8.2,16.5-8.2,29c0,5.6,0.6,10.8,1.8,15.6c1.2,4.7,3.2,8.8,6,12.1c2.8,3.4,6.3,6,10.7,7.9c4.3,1.9,9.7,2.9,15.9,2.9
			c5.2,0,9.5-0.6,13-1.8c3.5-1.2,6-2.2,7.6-3l2.6,10.3c-2.2,1.2-5.7,2.4-10.4,3.6C1183.5,236.5,1178.6,237.1,1173.4,237.1z"/>
		<path class="st0" d="M1218.9,139.9h37.9V150h-37.9v50.6c0,5.4,0.5,9.8,1.4,13.2c0.9,3.4,2.2,6,4,7.8c1.7,1.8,3.8,3.1,6.3,3.7
			c2.4,0.6,5.2,0.9,8.1,0.9c5,0,9.1-0.6,12.2-1.8c3.1-1.2,5.5-2.2,7.2-3.2l2.9,9.9c-1.7,1.1-4.7,2.4-9,3.8s-9,2.1-14,2.1
			c-5.9,0-10.8-0.8-14.8-2.3c-4-1.5-7.2-3.9-9.6-7s-4.1-7-5.1-11.7c-1-4.7-1.5-10.2-1.5-16.6v-87.6l12-2.2L1218.9,139.9
			L1218.9,139.9z"/>
	</g>
</g>
<g id="Layer_2">
	<g>
		<linearGradient id="SVGID_1_" gradientUnits="userSpaceOnUse" x1="147.0142" y1="147.2354" x2="147.0142" y2="132.3254">
			<stop  offset="0" style="stop-color:#2CC991"/>
			<stop  offset="0.1918" style="stop-color:#2CC693"/>
			<stop  offset="0.3508" style="stop-color:#2DBB99"/>
			<stop  offset="0.4981" style="stop-color:#2EAAA2"/>
			<stop  offset="0.6384" style="stop-color:#2F92B0"/>
			<stop  offset="0.7737" style="stop-color:#3072C2"/>
			<stop  offset="0.9034" style="stop-color:#324CD7"/>
			<stop  offset="1" style="stop-color:#342BEA"/>
		</linearGradient>
		<circle class="st1" cx="147" cy="139.8" r="7.5"/>
		<g>
			<linearGradient id="SVGID_2_" gradientUnits="userSpaceOnUse" x1="81.6351" y1="77.4557" x2="212.3723" y2="77.4557">
				<stop  offset="0" style="stop-color:#FFFFFF"/>
				<stop  offset="5.000000e-02" style="stop-color:#2DB79B"/>
				<stop  offset="0.1149" style="stop-color:#2F92B0"/>
				<stop  offset="0.1934" style="stop-color:#316DC5"/>
				<stop  offset="0.272" style="stop-color:#3250D5"/>
				<stop  offset="0.3497" style="stop-color:#333CE1"/>
				<stop  offset="0.4262" style="stop-color:#342FE8"/>
				<stop  offset="0.5" style="stop-color:#342BEA"/>
				<stop  offset="0.5674" style="stop-color:#352FE8"/>
				<stop  offset="0.6372" style="stop-color:#373CE2"/>
				<stop  offset="0.7082" style="stop-color:#3A50D9"/>
				<stop  offset="0.78" style="stop-color:#3F6DCB"/>
				<stop  offset="0.8524" style="stop-color:#4593BA"/>
				<stop  offset="0.9244" style="stop-color:#4DC0A5"/>
				<stop  offset="0.95" style="stop-color:#50D29D"/>
				<stop  offset="1" style="stop-color:#FFFFFF"/>
			</linearGradient>
			<path class="st2" d="M89.8,116.1c-1.2-14,2.5-36.6,16.7-52.2c10.2-11.2,23.9-16.9,40.5-17c16.7,0.1,30.3,5.8,40.5,17
				c14.2,15.5,17.8,38.2,16.6,52.2h8c1.4-16.4-2.7-40.2-18.7-57.6c-11.6-12.7-27.5-19.4-46.1-19.6v0c-0.1,0-0.2,0-0.3,0
				c-0.1,0-0.2,0-0.3,0v0c-18.6,0.2-34.5,6.9-46.1,19.6c-16,17.4-20.1,41.2-18.7,57.6H89.8z"/>
			<linearGradient id="SVGID_3_" gradientUnits="userSpaceOnUse" x1="101.9325" y1="97.2023" x2="192.0749" y2="97.2023">
				<stop  offset="0" style="stop-color:#FFFFFF"/>
				<stop  offset="5.000000e-02" style="stop-color:#2DB79B"/>
				<stop  offset="0.1149" style="stop-color:#2F92B0"/>
				<stop  offset="0.1934" style="stop-color:#316DC5"/>
				<stop  offset="0.272" style="stop-color:#3250D5"/>
				<stop  offset="0.3497" style="stop-color:#333CE1"/>
				<stop  offset="0.4262" style="stop-color:#342FE8"/>
				<stop  offset="0.5" style="stop-color:#342BEA"/>
				<stop  offset="0.5674" style="stop-color:#352FE8"/>
				<stop  offset="0.6372" style="stop-color:#373CE2"/>
				<stop  offset="0.7082" style="stop-color:#3A50D9"/>
				<stop  offset="0.78" style="stop-color:#3F6DCB"/>
				<stop  offset="0.8524" style="stop-color:#4593BA"/>
				<stop  offset="0.9244" style="stop-color:#4DC0A5"/>
				<stop  offset="0.95" style="stop-color:#50D29D"/>
				<stop  offset="1" style="stop-color:#FFFFFF"/>
			</linearGradient>
			<path class="st3" d="M191.7,124.2c0.1-1,3.2-24.3-10.8-40.4c-7.7-8.9-19-13.4-33.5-13.5v0c-0.1,0-0.2,0-0.3,0c-0.1,0-0.2,0-0.3,0
				v0c-14.5,0.1-25.8,4.7-33.5,13.5c-14.1,16.1-11,39.4-10.8,40.4l7.9,0c0-0.2-2.8-21.7,8.9-35.1c6.2-7.1,15.6-10.7,27.8-10.8
				c12.3,0.1,21.6,3.7,27.8,10.8c11.7,13.4,8.9,34.8,8.9,35.1L191.7,124.2z"/>
			<linearGradient id="SVGID_4_" gradientUnits="userSpaceOnUse" x1="126.7519" y1="118.2397" x2="167.2765" y2="118.2397">
				<stop  offset="0" style="stop-color:#FFFFFF"/>
				<stop  offset="5.000000e-02" style="stop-color:#2DB79B"/>
				<stop  offset="0.1149" style="stop-color:#2F92B0"/>
				<stop  offset="0.1934" style="stop-color:#316DC5"/>
				<stop  offset="0.272" style="stop-color:#3250D5"/>
				<stop  offset="0.3497" style="stop-color:#333CE1"/>
				<stop  offset="0.4262" style="stop-color:#342FE8"/>
				<stop  offset="0.5" style="stop-color:#342BEA"/>
				<stop  offset="0.5674" style="stop-color:#352FE8"/>
				<stop  offset="0.6372" style="stop-color:#373CE2"/>
				<stop  offset="0.7082" style="stop-color:#3A50D9"/>
				<stop  offset="0.78" style="stop-color:#3F6DCB"/>
				<stop  offset="0.8524" style="stop-color:#4593BA"/>
				<stop  offset="0.9244" style="stop-color:#4DC0A5"/>
				<stop  offset="0.95" style="stop-color:#50D29D"/>
				<stop  offset="1" style="stop-color:#FFFFFF"/>
			</linearGradient>
			<path class="st4" d="M167.2,132.3c0-0.6,1-14.3-6.6-22.4c-3.4-3.7-7.9-5.6-13.3-5.7v0c-0.1,0-0.2,0-0.3,0c-0.1,0-0.2,0-0.3,0v0
				c-5.4,0.1-9.9,2-13.3,5.7c-7.6,8.2-6.7,21.8-6.6,22.4l8-0.2c0-0.1-0.7-11.2,4.5-16.8c1.9-2.1,4.4-3.1,7.7-3.2
				c3.3,0.1,5.8,1.1,7.7,3.2c5.2,5.6,4.5,16.7,4.5,16.8L167.2,132.3z"/>
			<linearGradient id="SVGID_5_" gradientUnits="userSpaceOnUse" x1="50.6122" y1="209.5538" x2="243.3952" y2="209.5538">
				<stop  offset="0" style="stop-color:#342CE9"/>
				<stop  offset="0.1844" style="stop-color:#342BEA"/>
				<stop  offset="0.2074" style="stop-color:#3637E4"/>
				<stop  offset="0.2935" style="stop-color:#3D60D1"/>
				<stop  offset="0.3848" style="stop-color:#4383C1"/>
				<stop  offset="0.4808" style="stop-color:#48A0B4"/>
				<stop  offset="0.583" style="stop-color:#4BB6AA"/>
				<stop  offset="0.6943" style="stop-color:#4EC6A3"/>
				<stop  offset="0.8216" style="stop-color:#50CF9E"/>
				<stop  offset="1" style="stop-color:#50D29D"/>
			</linearGradient>
			<path class="st5" d="M231.1,130.6l-1.1-2.1h-48.8l-0.8,2.9c-3.9,14.1-23.4,20.8-33.2,20.8h-0.4c-11,0-29.3-6.7-33.2-20.8
				l-0.8-2.9H64l-1.1,2.1c-15.4,29-18.4,80.8,3.2,117.2c11.5,19.3,34.7,42.3,80.6,42.9l0,0c0.1,0,0.2,0,0.3,0c0.1,0,0.2,0,0.3,0l0,0
				c45.9-0.6,69.2-23.7,80.6-42.9C249.5,211.3,246.5,159.6,231.1,130.6z M221,243.6c-14.9,25.1-40.5,38.6-74,39
				c-33.5-0.4-59.1-13.9-74-39c-19.7-33.1-17.5-79.8-4.1-107.2h38c2.9,7.2,9,13.5,17.4,18c7.7,4.2,14.5,6,22.7,6
				c10.2,0,15.1-1.9,22.7-6c8.4-4.6,14.5-10.9,17.4-18h38C238.6,163.9,240.7,210.5,221,243.6z"/>
		</g>
	</g>
</g>
</svg>
