<?xml version="1.0" encoding="utf-8"?>
<svg version="1.1" id="Layer_1" xmlns="http://www.w3.org/2000/svg" xmlns:xlink="http://www.w3.org/1999/xlink" x="0px" y="0px"
	width="100px" height="100px" viewBox="0 0 100 100" style="enable-background:new 0 0 100 100;" xml:space="preserve">
<g>
	<path style="fill:#E8E8E8;" d="M50,0c27.61,0,50,22.39,50,50s-22.39,50-50,50S0,77.61,0,50S22.39,0,50,0"/>
	<path style="fill:#FFFFFF;" d="M50,1c27.06,0,49,21.94,49,49S77.06,99,50,99S1,77.06,1,50S22.94,1,50,1"/>
	<g>
		<path style="fill-rule:evenodd;clip-rule:evenodd;fill:#FBBB17;" d="M18.74,49.73h-3.06v-3.84c0.01-0.21-0.15-0.39-0.35-0.4
			c-0.21-0.01-0.39,0.15-0.4,0.35c0,0.01,0,0.03,0,0.04v3.84h-3.05c-0.27,0.01-0.48,0.22-0.48,0.49v3.48c0,0.27,0.21,0.48,0.48,0.49
			h6.86c0.27-0.01,0.48-0.22,0.48-0.49v-3.48C19.22,49.95,19.01,49.73,18.74,49.73"/>
		<path style="fill-rule:evenodd;clip-rule:evenodd;fill:#A71E59;" d="M20.01,46.66c0.12,0.1,0.08,0.15,0,0.26
			c-0.25,0.36-0.7,0.89-0.73,1.2c-0.04,0.35,0.07,0.88-0.32,1.24c-0.16-0.01-2.09,0-2.09,0c0.38-0.5,0.86-1.39,1.59-1.59
			c0.46-0.12,0.78-0.66,1.07-1.1c0.15-0.22,0.27-0.18,0.48-0.01"/>
		<path style="fill-rule:evenodd;clip-rule:evenodd;fill:#BBD43A;" d="M17.83,47.57c-0.26,0.17-0.49,0.38-0.68,0.63
			c-0.4,0.5-0.83,1.15-0.83,1.15h-0.2c0.27-0.98-0.17-1.65,0.26-1.91c0.28-0.18,0.42,0.1,0.82-0.11
			C17.71,47.08,17.83,47.57,17.83,47.57 M20.41,48.45c0.07,0.04,0.1,0.12,0.08,0.2c-0.06,0.3,0.37,0.54,0.06,0.76
			c-0.31,0.22-0.23,0.37-0.41,0.37c-0.22,0-0.11-0.28-0.61-0.43c0.11-0.2,0.17-0.28,0.19-0.86C19.94,48.38,20.19,48.36,20.41,48.45
			 M12.21,46.66c0.5-0.32,0.41,0.41,0.65,0.27c0.12-0.08,0.24-0.01,0.26,0.08c0.04,0.24-0.26,0.66-0.24,0.92
			c0,0.01-0.01,0.02-0.02,0.02c0,0,0,0,0,0c-0.09-0.01-0.18,0.01-0.27,0.04c-0.13,0.04-0.25,0.1-0.36,0.17
			c-0.25-0.1-0.48-0.22-0.71-0.36c-0.18-0.1-0.22-0.18-0.23-0.33c0-0.18,0.14-0.22,0.08-0.34c-0.08-0.17-0.15-0.36-0.06-0.52
			c0.05-0.09,0.14-0.15,0.24-0.16C11.88,46.46,11.93,46.84,12.21,46.66 M10.9,47.34c0.03,0.04,0.03,0.08,0.01,0.12
			c-0.09,0.17-0.02,0.35,0.1,0.51c0.2,0.28,0.77,0.44,1.03,0.52l-0.07,0.23c-0.46-0.13-0.94-0.13-1.4,0.01c0,0-0.24,0.11-0.4-0.03
			c-0.11-0.09-0.12-0.26-0.03-0.36c0.01-0.01,0.02-0.02,0.03-0.03c0,0-0.35-0.22-0.19-0.54c0.06-0.14,0.2-0.23,0.35-0.22
			c-0.03-0.16,0.05-0.32,0.2-0.4c0.09-0.04,0.2-0.04,0.28,0.02C10.85,47.24,10.88,47.29,10.9,47.34 M11.88,49.11v0.25
			c-0.55-0.02-0.8,0.18-0.94,0.61c-0.15,0.58-1.08,0.34-0.77-0.45C10.41,48.97,11.28,48.91,11.88,49.11"/>
		<path style="fill-rule:evenodd;clip-rule:evenodd;fill:#F05C2C;" d="M14.54,48.17c-0.2-0.02-0.41,0.04-0.58,0.16
			c-0.45-0.29-0.78-0.21-0.74-0.27c0.19-0.29,0.79-0.53,1.32-0.28C14.54,47.78,14.55,48.08,14.54,48.17 M13.66,48.53l-0.08,0.09
			c-0.17,0.2-0.27,0.45-0.29,0.72h-1.04c-0.03-0.14-0.03-0.28,0-0.42c0.09-0.39,0.34-0.58,0.76-0.58c0.23,0,0.45,0.06,0.65,0.17
			C13.67,48.5,13.67,48.51,13.66,48.53C13.66,48.52,13.66,48.52,13.66,48.53 M14.54,49.36h-0.87c0.02-0.48,0.32-0.76,0.54-0.83
			c0.11-0.03,0.22-0.05,0.34-0.05L14.54,49.36z"/>
		<ellipse style="fill:none;stroke:#229E6B;stroke-width:0.1798;" cx="15.45" cy="50" rx="6.86" ry="6.81"/>
		<path style="fill-rule:evenodd;clip-rule:evenodd;fill:#229E6B;" d="M29.52,49.48l-1.08-2.45c-0.2-0.49-0.67-0.81-1.2-0.82
			c-0.62,0-1.06,0.43-1.18,1.14l-0.82,4.73c-0.01,0.1-0.02,0.2-0.02,0.3c0,0.78,0.5,1.33,1.21,1.33c0.62,0,1.08-0.43,1.2-1.14
			l0.2-1.18l0.48,1.32c0.25,0.69,0.63,1,1.22,1c0.57,0,0.99-0.34,1.23-1.01l0.47-1.31l0.26,1.39c0.1,0.55,0.58,0.93,1.19,0.93
			c0.65,0,1.17-0.52,1.17-1.17c0,0,0-0.01,0-0.01c0-0.14-0.01-0.28-0.04-0.41l-0.83-4.77c-0.06-0.4-0.16-0.61-0.37-0.81
			c-0.23-0.21-0.52-0.33-0.83-0.33c-0.45,0-0.85,0.25-1.05,0.65L29.52,49.48L29.52,49.48z M36.71,51.37v-0.56h0.86
			c0.38,0,0.55-0.04,0.73-0.19c0.2-0.18,0.32-0.43,0.32-0.7c0-0.52-0.38-0.88-0.97-0.88h-0.95v-0.51h1.2c0.45,0,0.7-0.08,0.91-0.27
			c0.26-0.23,0.4-0.56,0.4-0.9c0-0.5-0.34-0.94-0.83-1.06c-0.16-0.04-0.23-0.06-0.91-0.06h-1.44c-0.71,0-0.76,0.01-1.03,0.12
			c-0.27,0.12-0.47,0.34-0.58,0.61c-0.1,0.23-0.11,0.31-0.11,0.93v4.01c0,0.51,0.01,0.58,0.04,0.73c0.05,0.4,0.31,0.74,0.68,0.89
			c0.21,0.08,0.36,0.1,0.91,0.1h1.86c0.54,0,0.75-0.06,0.99-0.25c0.25-0.23,0.39-0.55,0.39-0.89c0-0.33-0.14-0.65-0.39-0.86
			c-0.24-0.21-0.48-0.28-1-0.28L36.71,51.37z M42.38,48.52c0.08,0.01,0.17,0.01,0.25,0.01c0.36-0.01,0.56,0.13,0.56,0.4
			c0,0.27-0.19,0.4-0.54,0.39h-0.26L42.38,48.52L42.38,48.52z M44.76,50.81c0.56-0.63,0.77-1.18,0.77-1.88
			c0.01-1.18-0.77-2.22-1.9-2.55c-0.38-0.09-0.77-0.13-1.16-0.11h-1c-0.58,0-0.82,0.08-1.09,0.32s-0.39,0.55-0.39,1.09v4.56
			c0,0.46,0.09,0.79,0.28,1.04c0.23,0.28,0.57,0.44,0.94,0.44c0.66,0,1.17-0.53,1.17-1.23v-1.01l0.99,1.67
			c0.2,0.36,0.58,0.57,0.99,0.57c0.65,0.01,1.19-0.52,1.19-1.17c0-0.01,0-0.02,0-0.03c0-0.28-0.08-0.55-0.23-0.79L44.76,50.81z
			 M53.32,51.5c-0.02-0.65-0.54-1.18-1.2-1.2c-0.31,0-0.61,0.13-0.83,0.35l-0.25,0.27c-0.27,0.31-0.66,0.48-1.07,0.49
			c-0.8-0.03-1.42-0.69-1.39-1.49c0.02-0.76,0.64-1.37,1.4-1.39c0.39,0,0.77,0.16,1.03,0.44l0.35,0.39c0.2,0.19,0.47,0.3,0.75,0.3
			c0.67-0.01,1.2-0.56,1.2-1.22c0-0.49-0.29-0.99-0.88-1.47c-0.68-0.58-1.54-0.9-2.43-0.9c-2.14-0.03-3.9,1.69-3.93,3.83
			c-0.03,2.14,1.69,3.9,3.83,3.93c0.97,0.01,1.9-0.34,2.62-0.98C53.05,52.41,53.32,51.94,53.32,51.5 M57.16,50.93l0.37-0.89
			l0.38,0.89H57.16z M56.42,52.69h2.22c0.34,0.75,0.66,1.02,1.22,1.02c0.67,0,1.21-0.54,1.21-1.21c0-0.2-0.05-0.41-0.14-0.59
			l-2.29-4.96c-0.19-0.45-0.63-0.74-1.12-0.74c-0.48,0-0.91,0.29-1.1,0.73l-2.27,4.91c-0.1,0.2-0.15,0.42-0.15,0.64
			c-0.02,0.66,0.5,1.2,1.16,1.22c0.01,0,0.02,0,0.03,0C55.76,53.71,56.12,53.42,56.42,52.69L56.42,52.69z M64.03,48.53h0.2
			c0.45,0,0.7,0.05,0.92,0.16c0.48,0.25,0.77,0.74,0.77,1.28c0,0.46-0.22,0.89-0.59,1.17c-0.28,0.2-0.48,0.23-1.3,0.24V48.53
			L64.03,48.53z M63.01,46.26c-0.7,0-1.14,0.28-1.32,0.81c-0.06,0.17-0.06,0.23-0.06,0.86v4.07c0,0.51,0,0.63,0.04,0.8
			c0.07,0.28,0.25,0.52,0.5,0.67c0.22,0.16,0.45,0.2,1.01,0.2h1.01c0.41,0.01,0.82-0.02,1.23-0.09c0.64-0.14,1.23-0.45,1.71-0.9
			c0.74-0.71,1.16-1.69,1.16-2.72c0.01-1.04-0.43-2.04-1.2-2.75c-0.71-0.64-1.54-0.94-2.63-0.94L63.01,46.26z M71.38,49.95
			c0-0.79,0.64-1.42,1.43-1.42s1.42,0.64,1.42,1.43c0.03,0.79-0.59,1.45-1.37,1.48c-0.79,0.03-1.45-0.59-1.48-1.37
			C71.37,50.03,71.37,49.99,71.38,49.95 M68.97,49.92c0,2.18,1.7,3.92,3.83,3.92c2.1,0,3.82-1.75,3.82-3.89
			c0.01-2.11-1.69-3.83-3.81-3.84C70.7,46.1,68.98,47.8,68.97,49.92L68.97,49.92 M81.34,49.07l-1.9-2.38
			c-0.27-0.34-0.54-0.49-0.89-0.49c-0.75,0-1.25,0.52-1.25,1.31v4.68c0,0.54,0.06,0.76,0.24,1.04c0.39,0.53,1.14,0.63,1.67,0.24
			c0.08-0.06,0.15-0.13,0.21-0.21c0.21-0.27,0.27-0.49,0.27-0.98v-1.55l1.89,2.47c0.21,0.31,0.57,0.5,0.95,0.5
			c0.37,0,0.71-0.17,0.94-0.45c0.21-0.28,0.26-0.52,0.26-1.11v-4.52c0-0.45-0.08-0.71-0.28-0.98c-0.4-0.5-1.13-0.59-1.63-0.19
			c-0.1,0.08-0.19,0.17-0.26,0.28c-0.17,0.25-0.22,0.48-0.22,0.96L81.34,49.07L81.34,49.07z M87.58,50.92l0.37-0.89l0.37,0.89H87.58
			z M86.84,52.69h2.23c0.34,0.75,0.66,1.02,1.22,1.02c0.67,0,1.21-0.54,1.21-1.21c0-0.2-0.05-0.41-0.14-0.59l-2.29-4.96
			c-0.19-0.45-0.63-0.74-1.12-0.74c-0.48,0-0.91,0.29-1.1,0.73l-2.27,4.91c-0.1,0.2-0.15,0.42-0.15,0.64
			c-0.02,0.66,0.5,1.2,1.16,1.22c0.01,0,0.02,0,0.03,0C86.19,53.71,86.55,53.42,86.84,52.69L86.84,52.69z"/>
	</g>
</g>
</svg>
