<?xml version="1.0"?>
<svg xmlns="http://www.w3.org/2000/svg" xmlns:xlink="http://www.w3.org/1999/xlink" xmlns:svgjs="http://svgjs.com/svgjs" version="1.1" width="512" height="512" x="0" y="0" viewBox="0 0 512 512" style="enable-background:new 0 0 512 512" xml:space="preserve" class=""><g><path xmlns="http://www.w3.org/2000/svg" d="m512 256v.87c-.02 6.93-.32 13.78-.89 20.56-.82 9.97-2.22 19.78-4.16 29.39-20.6 102.34-102.25 182.59-205.33 201.11-.43.09-.87.16-1.3.24-7.74 1.35-15.6 2.36-23.57 3-5.57.45-11.18.72-16.84.8-1.3.02-2.6.03-3.91.03-2.38 0-4.74-.03-7.1-.1-3.7-.1-7.38-.28-11.04-.54-.53-.03-1.07-.07-1.6-.11-.09-.01-.17-.02-.26-.02h-.03c-5.73-.45-11.41-1.08-17.03-1.9-1.85-.27-3.69-.56-5.52-.87-1.12-.19-2.24-.38-3.35-.59-1.73-.31-3.45-.64-5.17-.99-116.9-23.67-204.9-127-204.9-250.88 0-141.38 114.62-256 256-256 116.92 0 215.53 78.38 246.16 185.47 2.48 8.66 4.51 17.5 6.07 26.51.29 1.66.55 3.32.81 5 0 .02.01.05.01.07.32 2.11.62 4.24.9 6.37.26 2.1.51 4.22.72 6.34.03.34.07.67.1 1.01.23 2.35.43 4.72.59 7.09.23 3.33.41 6.69.51 10.06.09 2.69.13 5.38.13 8.08z" fill="#f1f1f1" data-original="#ffc43a" style="" class=""/><path xmlns="http://www.w3.org/2000/svg" d="m512 256v.87c-.02 6.93-.32 13.78-.89 20.56-.82 9.97-2.22 19.78-4.16 29.39-20.6 102.34-102.25 182.59-205.33 201.11-.43.09-.87.16-1.3.24-7.74 1.35-15.6 2.36-23.57 3-32-32-85.42-85.42-85.42-85.42l-5.05-33.85-26.21-25.97v-.01l-13.53-154.63-58.87-58.7 79.59-28.22 29.06 29.35 182.76-61.55 130.87 131.25c.26 2.1.51 4.22.72 6.34.03.34.07.67.1 1.01.23 2.35.43 4.72.59 7.09.23 3.33.41 6.69.51 10.06.09 2.69.13 5.38.13 8.08z" fill="#f1f1f1" data-original="#fda632" style="" class=""/><path xmlns="http://www.w3.org/2000/svg" d="m204.665 265.579-11.448-2.019c-8.702-1.534-14.257-11.291-12.427-21.806h-.001l.009-.053 27.207-154.3 19.574 17.478 126.059 22.228 16.257 2.867 2.426.428-28.172 159.773z" fill="#f1444f" data-original="#f1444f" style=""/><path xmlns="http://www.w3.org/2000/svg" d="m271.44 277.353 28.172-159.772 54.026 9.526 16.257 2.866 2.426.428-28.172 159.773z" fill="#db2835" data-original="#db2835" style=""/><path xmlns="http://www.w3.org/2000/svg" d="m180.79 241.754h-.001l.009-.053 26.97-152.955 2.173.383 17.036 15.213-28.246 160.191-5.514-.972c-8.702-1.535-14.257-11.291-12.427-21.807z" fill="#db2835" data-original="#db2835" style=""/><path xmlns="http://www.w3.org/2000/svg" d="m235.044 74.066c-9.358-1.65-18.37 4.944-20.09 14.699s4.493 19.034 13.851 20.684l135.687 23.925 6.239-35.383z" fill="#fff3dc" data-original="#fff3dc" style=""/><path xmlns="http://www.w3.org/2000/svg" d="m316.835 76.579h35.929v66.638h-35.929z" fill="#ebd9be" transform="matrix(.174 -.985 .985 .174 168.434 420.527)" data-original="#ebd9be" style=""/><path xmlns="http://www.w3.org/2000/svg" d="m369.484 105.068-2.632-.464-132.168-23.305c-5.872-1.035-11.488 2.884-12.52 8.737s2.905 11.457 8.777 12.492l132.168 23.305 2.632.464 7.099 1.252-2.496 14.153-141.899-25.021c-13.722-2.42-22.891-15.47-20.479-29.149 2.412-13.679 15.491-22.807 29.213-20.387l141.899 25.021-2.496 14.153z" fill="#db2835" data-original="#db2835" style=""/><path xmlns="http://www.w3.org/2000/svg" d="m366.852 104.604-62.993-11.107 2.495-14.153 72.724 12.823-2.495 14.153-7.099-1.252z" fill="#c42639" data-original="#c42639" style=""/><path xmlns="http://www.w3.org/2000/svg" d="m297.62 128.88 2.495-14.153 62.994 11.107 2.632.464 7.098 1.252-2.495 14.153z" fill="#c42639" data-original="#c42639" style=""/><path xmlns="http://www.w3.org/2000/svg" d="m380.885 315.27h-219.402l-.083-130.44h248.332z" fill="#c1eaff" data-original="#c1eaff" style=""/><path xmlns="http://www.w3.org/2000/svg" d="m287.753 184.83v130.44h93.132l28.847-130.44z" fill="#7cd9ff" data-original="#7cd9ff" style=""/><path xmlns="http://www.w3.org/2000/svg" d="m185.923 337.709-18.665-213.339-.036.003v-.003h-79.55v28.22h53.728l18.665 213.338h.002 215.194l5.644-28.219z" fill="#3bc3ff" data-original="#3bc3ff" style=""/><path xmlns="http://www.w3.org/2000/svg" d="m287.753 337.709v28.219h87.508l5.644-28.219z" fill="#09a1e8" data-original="#09a1e8" style=""/><circle xmlns="http://www.w3.org/2000/svg" cx="210.996" cy="405.513" fill="#3477a6" r="28.22" data-original="#3477a6" style="" class=""/><path xmlns="http://www.w3.org/2000/svg" d="m210.996 377.293v56.439c15.585 0 28.22-12.634 28.22-28.22s-12.634-28.219-28.22-28.219z" fill="#185f8d" data-original="#185f8d" style=""/><circle xmlns="http://www.w3.org/2000/svg" cx="335.162" cy="405.513" fill="#3477a6" r="28.22" data-original="#3477a6" style="" class=""/><path xmlns="http://www.w3.org/2000/svg" d="m335.162 377.293v56.439c15.585 0 28.22-12.634 28.22-28.22s-12.635-28.219-28.22-28.219z" fill="#185f8d" data-original="#185f8d" style=""/><path xmlns="http://www.w3.org/2000/svg" d="m272.753 220.05h30v60h-30z" fill="#3bc3ff" data-original="#3bc3ff" style=""/><path xmlns="http://www.w3.org/2000/svg" d="m287.753 220.05h15v60h-15z" fill="#09a1e8" data-original="#09a1e8" style=""/><path xmlns="http://www.w3.org/2000/svg" d="m212.753 220.05h30v60h-30z" fill="#3bc3ff" data-original="#3bc3ff" style=""/><path xmlns="http://www.w3.org/2000/svg" d="m332.753 220.05h30v60h-30z" fill="#09a1e8" data-original="#09a1e8" style=""/></g></svg>
