<?xml version="1.0" encoding="utf-8"?>
<svg version="1.1" id="Layer_1" xmlns="http://www.w3.org/2000/svg" xmlns:xlink="http://www.w3.org/1999/xlink" x="0px" y="0px"
	width="100px" height="100px" viewBox="0 0 100 100" style="enable-background:new 0 0 100 100;" xml:space="preserve">
<g>
	<path style="fill:#E8E8E8;" d="M50,0c27.61,0,50,22.39,50,50s-22.39,50-50,50S0,77.61,0,50S22.39,0,50,0"/>
	<path style="fill:#FFFFFF;" d="M50,1c27.06,0,49,21.94,49,49S77.06,99,50,99S1,77.06,1,50S22.94,1,50,1"/>
	<g>
		<path style="fill:#00539F;" d="M18.11,41.97h-5.77c0,0-1.12-0.17-1.79,0.95c-0.72,1.21,0.18,2.94,0.18,2.94l2.49,4.03
			c0,0,0.26,0.32,0.06,0.65c-0.18,0.3-0.53,0.27-0.53,0.27h-2.66l0.72,3.79h5.91c0,0,1.4,0.17,2.08-1.27
			c0.63-1.33-0.26-2.51-0.26-2.51l-2.49-4.61c0,0-0.08-0.15,0-0.26c0.07-0.09,0.2-0.08,0.2-0.08h2.58L18.11,41.97z M27.32,54.61
			c0,0-4.08,0.44-6.86-3.79c-1.52-2.32-1.89-8.71,4.17-8.88c1.57,0,2.85,0.02,2.85,0.02l0.78,3.89c0,0-1.45,0.01-2.69,0.01
			c-1.25,0-1.82,0.82-1.82,1.7s0.12,2.59,3.01,3.25c0.99,0.23,1.71,0.02,1.71,0.02L27.32,54.61L27.32,54.61z M29.55,46.28h4.39v8.31
			h-4.39V46.28z M58.45,41.97l-1.19,5.63l-1.08-5.63h-4.35l3.1,12.63h4.42l0.99-4.89l0.86,4.1l1.8-7.45l-0.64-4.39L58.45,41.97z"/>
		<path style="fill:#ED1C24;" d="M64.75,41.97l-0.37,1.8h7.98l0.51-1.8H64.75z"/>
		<path style="fill:#00539F;" d="M64.25,44.38l-0.59,2.21h3.78l0.7-2.21H64.25z"/>
		<path style="fill:#ED1C24;" d="M63.52,47.4l-0.42,1.73h7.32l0.53-1.73H63.52z"/>
		<path style="fill:#00539F;" d="M63.02,49.88h3.83l-1.08,4.71H61.9L63.02,49.88z"/>
		<path style="fill:#ED1C24;" d="M71.81,54.6h2.44l3.19-12.63h-2.39L71.81,54.6z M78.97,41.95h2.41l1.73,4.28l4.16-4.28h2.64
			l-5.81,6.38l2.75,6.25h-2.5l-1.94-4.4l-4.14,4.4h-2.75l5.99-6.6L78.97,41.95z"/>
		<path style="fill:#00539F;" d="M41.91,41.95h9.04l1.03,3.77h-5.27v0.7h4.5l-1.17,3.74h-3.38v0.61h5.61l-1.19,3.81h-9.15
			L41.91,41.95z M44.66,56.09c-1.35-0.57-3.06-1.42-4.1-2.47c-1.91-1.93-2.12-3.43-2.12-3.43s3.03-2.34,2.34-5.14
			C40,41.91,38.03,42.02,35,42.02l-5.34-0.04l-0.72,3.88c0,0,5.21-0.02,5.89,0c0.68,0.02,1.46,0.05,1.45,1.1
			c-0.01,0.9-1.98,1.97-1.98,1.97s-0.31,2.24,2.48,5.68c1.08,1.33,2.36,2.51,3.53,3.45L44.66,56.09L44.66,56.09z"/>
	</g>
</g>
</svg>
