<?xml version="1.0" encoding="utf-8"?>
<svg version="1.1" id="Layer_1" xmlns="http://www.w3.org/2000/svg" xmlns:xlink="http://www.w3.org/1999/xlink" x="0px" y="0px"
	width="100px" height="100px" viewBox="0 0 72.2 72.2" style="enable-background:new 0 0 72.2 72.2;" xml:space="preserve">
<g>
	<circle style="fill:#E8E8E8;" cx="36.1" cy="36.1" r="36.1"/>
	<circle style="fill:#FFFFFF;" cx="36.1" cy="36.1" r="35.4"/>
	<g>
		<g>
			<g>
				<path style="fill:#07080A;" d="M16.5,39.6L16.5,39.6c-0.3,0.5-0.7,0.9-1.1,1.2c-0.5,0.2-1,0.4-1.6,0.4c-0.7,0-1.3-0.1-1.8-0.4
					c-0.5-0.2-1-0.6-1.4-1c-0.4-0.5-0.7-1-0.9-1.6c-0.2-0.6-0.3-1.3-0.3-2.1c0-0.8,0.1-1.6,0.4-2.3c0.3-0.7,0.7-1.3,1.2-1.7
					c0.4-0.3,0.8-0.6,1.3-0.8c0.5-0.2,1-0.3,1.6-0.3c0.6,0,1.1,0.1,1.6,0.2c0.5,0.2,0.9,0.4,1.2,0.7s0.6,0.6,0.8,1
					c0.2,0.4,0.4,0.8,0.4,1.3h-2.1c-0.1-0.4-0.3-0.7-0.6-0.9c-0.3-0.3-0.7-0.4-1.2-0.4c-0.4,0-0.8,0.1-1.1,0.3
					c-0.3,0.2-0.6,0.4-0.8,0.7c-0.2,0.3-0.4,0.6-0.5,1c-0.1,0.4-0.2,0.8-0.2,1.3c0,0.5,0.1,0.9,0.2,1.3c0.1,0.4,0.3,0.7,0.5,1
					c0.2,0.3,0.5,0.5,0.8,0.7c0.3,0.2,0.6,0.2,1,0.2c0.3,0,0.6-0.1,0.9-0.2c0.3-0.1,0.5-0.3,0.7-0.4c0.2-0.2,0.3-0.4,0.4-0.6
					c0.1-0.2,0.2-0.5,0.2-0.7v0h-1.9v-1.7h3.9v5.2h-1.5L16.5,39.6z"/>
				<path style="fill:#07080A;" d="M19.6,31.2H24c0.4,0,0.9,0.1,1.2,0.2c0.4,0.1,0.7,0.3,1,0.5c0.3,0.2,0.5,0.5,0.7,0.9
					s0.2,0.7,0.2,1.2c0,0.6-0.1,1.1-0.4,1.5c-0.3,0.4-0.7,0.7-1.3,0.9v0c0.5,0.2,0.8,0.4,1,0.7c0.2,0.3,0.4,0.7,0.4,1.2
					c0,0.3,0.1,0.6,0.1,0.9s0,0.6,0.1,0.8c0,0.2,0.1,0.4,0.1,0.6s0.1,0.2,0.2,0.3v0.1h-2.1c-0.1,0-0.1-0.1-0.1-0.3
					c0-0.1-0.1-0.3-0.1-0.5c0-0.2,0-0.4-0.1-0.7c0-0.3,0-0.5-0.1-0.8c-0.1-0.5-0.2-0.9-0.5-1.1s-0.6-0.4-1.1-0.4h-1.6v3.7h-2.1
					L19.6,31.2L19.6,31.2z M21.7,35.6h1.9c0.5,0,0.8-0.1,1.1-0.3c0.2-0.2,0.4-0.5,0.4-0.9c0-0.4-0.1-0.7-0.3-1
					c-0.2-0.2-0.6-0.4-1-0.4h-1.9V35.6z"/>
				<path style="fill:#07080A;" d="M32.2,41.1c-1.3,0-2.2-0.3-2.9-0.9c-0.6-0.6-1-1.5-1-2.7v-6.4h2.1v6.4c0,0.5,0.1,1,0.4,1.3
					c0.3,0.3,0.7,0.5,1.3,0.5c0.6,0,1-0.2,1.3-0.5c0.3-0.3,0.4-0.7,0.4-1.3v-6.4H36v6.4c0,1.1-0.3,2-1,2.7
					C34.4,40.8,33.4,41.1,32.2,41.1z"/>
				<path style="fill:#07080A;" d="M37.4,31.2h4.4c1,0,1.7,0.2,2.2,0.7c0.5,0.5,0.8,1.1,0.8,1.9c0,1-0.5,1.6-1.5,2v0.1
					c0.6,0.2,1.1,0.4,1.4,0.8s0.5,0.9,0.5,1.5c0,0.5-0.1,0.9-0.2,1.2c-0.2,0.3-0.4,0.6-0.7,0.9c-0.6,0.5-1.3,0.7-2.3,0.7h-4.5
					L37.4,31.2L37.4,31.2z M41.5,35.1c0.4,0,0.7-0.1,0.9-0.3c0.2-0.2,0.3-0.5,0.3-0.8c0-0.4-0.1-0.6-0.3-0.8
					c-0.2-0.2-0.5-0.3-0.9-0.3h-2v2.2L41.5,35.1L41.5,35.1z M41.7,39.2c0.4,0,0.7-0.1,1-0.4c0.2-0.2,0.3-0.5,0.3-0.9
					c0-0.4-0.1-0.8-0.4-1c-0.3-0.2-0.6-0.3-1-0.3h-2.1v2.5L41.7,39.2L41.7,39.2z"/>
				<path style="fill:#07080A;" d="M46.3,31.2h4.4c1,0,1.7,0.2,2.2,0.7c0.5,0.5,0.8,1.1,0.8,1.9c0,1-0.5,1.6-1.5,2v0.1
					c0.6,0.2,1.1,0.4,1.4,0.8s0.5,0.9,0.5,1.5c0,0.5-0.1,0.9-0.2,1.2c-0.2,0.3-0.4,0.6-0.7,0.9c-0.6,0.5-1.3,0.7-2.3,0.7h-4.5V31.2z
					 M50.3,35.1c0.4,0,0.7-0.1,0.9-0.3c0.2-0.2,0.3-0.5,0.3-0.8c0-0.4-0.1-0.6-0.3-0.8c-0.2-0.2-0.5-0.3-0.9-0.3h-2v2.2L50.3,35.1
					L50.3,35.1z M50.5,39.2c0.4,0,0.7-0.1,1-0.4c0.2-0.2,0.3-0.5,0.3-0.9c0-0.4-0.1-0.8-0.4-1c-0.3-0.2-0.6-0.3-1-0.3h-2.1v2.5
					L50.5,39.2L50.5,39.2z"/>
				<path style="fill:#07080A;" d="M57.2,37.3l-3.2-6.1h2.3l1,2c0.1,0.2,0.2,0.5,0.3,0.7c0.1,0.3,0.2,0.5,0.3,0.8
					c0.1,0.3,0.2,0.6,0.3,0.8h0c0.1-0.3,0.2-0.5,0.3-0.8c0.1-0.2,0.2-0.5,0.3-0.8c0.1-0.3,0.2-0.5,0.3-0.7l1-2h2.2l-3.2,6.1v3.7
					h-2.1V37.3z"/>
			</g>
		</g>
		<g>
			<g>
				<g>
					<g>
						<path style="fill:#07080A;" d="M61,39.4h0.6c0.1,0,0.1,0,0.2,0c0,0,0.1,0,0.1,0.1c0,0,0.1,0.1,0.1,0.1c0,0,0,0.1,0,0.1
							c0,0.1,0,0.1-0.1,0.2c0,0.1-0.1,0.1-0.2,0.1v0c0,0,0.1,0,0.1,0c0,0,0,0,0.1,0.1c0,0,0,0.1,0,0.1c0,0,0,0.1,0,0.1
							c0,0.1,0,0.1,0,0.1c0,0,0,0.1,0,0.1c0,0,0,0,0,0.1c0,0,0,0,0,0v0h-0.2c0,0,0,0,0,0c0,0,0,0,0-0.1c0,0,0-0.1,0-0.1s0-0.1,0-0.1
							c0-0.1,0-0.2-0.1-0.2c0,0-0.1-0.1-0.2-0.1h-0.3v0.5H61L61,39.4L61,39.4z M61.2,40h0.4c0.1,0,0.2,0,0.2-0.1
							c0,0,0.1-0.1,0.1-0.2c0-0.1,0-0.1-0.1-0.2c0,0-0.1-0.1-0.2-0.1h-0.4L61.2,40L61.2,40z"/>
					</g>
				</g>
				<g>
					<path style="fill:#07080A;" d="M61.5,41.2c-0.6,0-1.2-0.5-1.2-1.2c0-0.6,0.5-1.2,1.2-1.2c0.6,0,1.2,0.5,1.2,1.2
						C62.7,40.6,62.2,41.2,61.5,41.2z M61.5,39c-0.6,0-1,0.5-1,1c0,0.6,0.5,1,1,1c0.6,0,1-0.5,1-1C62.6,39.4,62.1,39,61.5,39z"/>
				</g>
			</g>
		</g>
	</g>
</g>
</svg>
