<?xml version="1.0" encoding="utf-8"?>
<svg version="1.1" id="Layer_1" xmlns="http://www.w3.org/2000/svg" xmlns:xlink="http://www.w3.org/1999/xlink" x="0px" y="0px"
	width="100px" height="100px" viewBox="0 0 100 100" style="enable-background:new 0 0 100 100;" xml:space="preserve">
<g>
	<path style="fill:#E8E8E8;" d="M50,0c27.61,0,50,22.39,50,50s-22.39,50-50,50S0,77.61,0,50S22.39,0,50,0"/>
	<path style="fill:#FFFFFF;" d="M50,1c27.06,0,49,21.94,49,49S77.06,99,50,99S1,77.06,1,50S22.94,1,50,1"/>
	<g id="Layer_2">
		<g id="Layer_1-2">
			<polygon points="12.89,46.38 12.89,49.21 9.51,49.21 9.51,46.38 8.65,46.38 8.65,52.98 9.51,52.98 9.51,50.02 12.89,50.02 
				12.89,52.98 13.76,52.98 13.76,46.38 			"/>
			<path d="M18.42,52.29c-1.24,0-2.52-0.96-2.52-2.62c0-1.7,1.31-2.59,2.52-2.59c1.28,0,2.59,0.87,2.59,2.59
				c0.03,1.42-1.1,2.59-2.52,2.62C18.46,52.29,18.44,52.29,18.42,52.29 M18.42,46.25c-2.24,0-3.44,1.76-3.44,3.42
				c0,1.7,1.27,3.44,3.44,3.44c2.27,0,3.48-1.79,3.48-3.44C21.9,48.01,20.69,46.25,18.42,46.25"/>
			<path d="M28.31,46.38v3.86c0,1.38-0.69,2.79-2.59,2.79s-2.59-1.42-2.59-2.79v-3.86h0.85v3.86c0,1.24,0.65,2,1.76,2
				c0.48,0,1.68-0.17,1.68-2v-3.86H28.31"/>
			<polygon points="38.9,46.38 38.9,47.21 36.35,47.21 36.35,49.25 38.35,49.25 38.35,50.04 36.35,50.04 36.35,52.15 38.9,52.15 
				38.9,52.98 35.45,52.98 35.45,46.38 			"/>
			<polygon points="54.87,46.38 54.87,47.21 52.08,47.21 52.08,49.25 54.29,49.25 54.29,50.04 52.08,50.04 52.08,52.98 51.22,52.98 
				51.22,46.38 			"/>
			<path d="M66.04,49.6h-0.93v-2.46h1c0.93,0,1.46,0.48,1.46,1.31C67.56,49.19,67.02,49.6,66.04,49.6 M67.19,50.18l0.04-0.04
				c0.76-0.31,1.2-0.96,1.2-1.7c0-1.38-0.87-2.07-2.52-2.07h-1.66v6.58h0.87v-2.6h1.27c0,0,1.22,2.55,1.24,2.62h1.07
				C68.61,52.83,67.19,50.18,67.19,50.18"/>
			<path d="M71.44,50.67l1.13-3.27l0.07-0.13l1.13,3.42h-2.34V50.67z M73.16,46.38h-1c-0.04,0.07-2.48,6.45-2.52,6.58h0.96
				c0-0.07,0.59-1.52,0.59-1.52h2.86c0,0,0.55,1.44,0.59,1.52h0.96C75.54,52.83,73.19,46.46,73.16,46.38"/>
			<polygon points="62.84,46.38 62.84,47.21 60.01,47.21 60.01,49.25 62.22,49.25 62.22,50.04 60.01,50.04 60.01,52.98 59.15,52.98 
				59.15,46.38 			"/>
			<path d="M46.32,52.29c-1.41,0-2.55-1.15-2.55-2.56c0-0.02,0-0.04,0-0.06c0-1.7,1.31-2.59,2.55-2.59c1.28,0,2.55,0.89,2.55,2.59
				C48.87,51.39,47.56,52.29,46.32,52.29 M46.32,46.25c-2.24,0-3.48,1.76-3.48,3.42c-0.01,1.9,1.52,3.44,3.42,3.45
				c0.02,0,0.04,0,0.07,0c2.27,0,3.48-1.79,3.48-3.44C49.81,48.01,48.59,46.25,46.32,46.25"/>
			<polygon points="85.47,46.38 85.47,47.21 82.92,47.21 82.92,49.25 84.92,49.25 84.92,50.04 82.92,50.04 82.92,52.18 85.47,52.18 
				85.47,52.98 82.05,52.98 82.05,46.38 			"/>
			<path d="M88.69,49.63l-0.85-0.04h-0.07v-2.4h1c0.93,0,1.44,0.45,1.44,1.28C90.21,48.91,90,49.63,88.69,49.63 M89.82,50.18h0.04
				c0.76-0.35,1.2-1,1.2-1.72c0-1.38-0.87-2.07-2.52-2.07h-1.66v6.58h0.87v-2.58h1.28c0,0,1.2,2.52,1.24,2.59h1.07
				C91.28,52.83,89.82,50.18,89.82,50.18"/>
			<path d="M33.18,51.22c0-0.72-0.76-0.96-1.55-1.24c-0.89-0.35-1.86-0.65-1.86-1.76c0-1.87,1.83-1.96,2.2-1.96
				c0.65,0,1.3,0.14,1.9,0.41c-0.08,0.27-0.15,0.55-0.2,0.83c-0.5-0.31-1.07-0.48-1.66-0.48c-0.93,0-1.35,0.55-1.35,1.07
				c0,0.69,0.69,0.89,1.44,1.13c0.93,0.31,1.96,0.61,1.96,1.94c0,1.13-0.93,1.94-2.24,1.94c-1.11,0-2.07-0.55-2.24-0.65
				c0.04-0.03,0.24-0.69,0.28-0.79c0.6,0.44,1.33,0.68,2.07,0.69C32.84,52.33,33.18,51.74,33.18,51.22"/>
			<path d="M79.78,51.22c0-0.72-0.76-0.96-1.55-1.24c-0.89-0.35-1.86-0.65-1.86-1.76c0-1.87,1.83-1.96,2.2-1.96
				c0.65,0,1.3,0.14,1.9,0.41c-0.08,0.27-0.15,0.55-0.2,0.83c-0.5-0.31-1.07-0.48-1.66-0.48c-0.93,0-1.35,0.55-1.35,1.07
				c0,0.69,0.69,0.89,1.42,1.13c0.96,0.31,2,0.61,2,1.94c0,1.13-0.93,1.94-2.24,1.94c-1.11,0-2.07-0.55-2.24-0.65
				c0.04-0.03,0.24-0.69,0.28-0.79c0.6,0.44,1.33,0.68,2.07,0.69C79.44,52.33,79.78,51.74,79.78,51.22"/>
		</g>
	</g>
</g>
</svg>
