<?xml version="1.0"?>
<svg xmlns="http://www.w3.org/2000/svg" xmlns:xlink="http://www.w3.org/1999/xlink" xmlns:svgjs="http://svgjs.com/svgjs" version="1.1" width="512" height="512" x="0" y="0" viewBox="0 0 512 512" style="enable-background:new 0 0 512 512" xml:space="preserve" class=""><g>
<g xmlns="http://www.w3.org/2000/svg">
	<circle style="" cx="256" cy="256" r="256" fill="#f1f1f1" data-original="#8c4a37" class=""/>
	<path style="" d="M509.881,289.051L305.423,84.593l-47.962,47.962l-10.514-10.514l-72.121,72.121l70.813,70.813   L106.606,404.006l103.976,103.976C225.323,510.621,240.5,512,256,512C386.185,512,493.668,414.823,509.881,289.051z" fill="#f1f1f1" data-original="#663325" class=""/>
	<g>
		<path style="" d="M405.414,299.543V404H106.586V299.543c0-19.523,11.555-37.254,29.285-45.421l50.403-22.114    l12.351,6.973l7.57-15.739l9.762-4.183L256,219.456l44.226,0.399l25.501,11.555l11.156,18.328l8.766-9.363l30.481,13.746    C393.859,262.289,405.414,280.019,405.414,299.543z" fill="#e0f4ff" data-original="#e0f4ff" class=""/>
		<path style="" d="M405.414,299.543V404H256V219.456l44.226,0.399l25.501,11.555l11.156,18.328l8.766-9.363    l30.481,13.746C393.859,262.289,405.414,280.019,405.414,299.543z" fill="#bbdcff" data-original="#bbdcff" class=""/>
		<g>
			<polygon style="" points="206.195,223.241 206.195,293.766 186.273,293.766 186.273,232.007    " fill="#bbdcff" data-original="#bbdcff" class=""/>
		</g>
		<g>
			<g>
				<g>
					<polygon style="" points="345.648,240.375 345.648,313.688 325.727,313.688 325.727,231.41      " fill="#9abadb" data-original="#9abadb"/>
				</g>
			</g>
		</g>
		<path style="" d="M335.688,363.492c-16.478,0-29.883-13.404-29.883-29.883s13.404-29.883,29.883-29.883    s29.883,13.404,29.883,29.883S352.166,363.492,335.688,363.492z" fill="#e0f4ff" data-original="#e0f4ff" class=""/>
		<path style="" d="M335.688,343.57c-5.496,0-9.961-4.465-9.961-9.961s4.465-9.961,9.961-9.961    s9.961,4.465,9.961,9.961S341.184,343.57,335.688,343.57z" fill="#9abadb" data-original="#9abadb"/>
		<g>
			<path style="" d="M256,64c-38.449,0-69.727,31.277-69.727,69.727v29.883h49.805c7.172,0,13.746-1.395,19.922-4.184     c7.969-3.386,14.742-8.965,19.922-15.738c9.164,12.152,23.508,19.922,39.844,19.922h9.961v-29.883     C325.727,95.277,294.449,64,256,64z" fill="#fdbf00" data-original="#fdbf00"/>
		</g>
		<path style="" d="M325.727,133.727v29.883h-9.961c-16.336,0-30.679-7.77-39.844-19.922    c-5.18,6.773-11.953,12.351-19.922,15.738V64C294.449,64,325.727,95.277,325.727,133.727z" fill="#ff9100" data-original="#ff9100"/>
		<g>
			<path style="" d="M315.766,143.688c-16.535,0-29.883-13.349-29.883-29.883h-19.922     c0,8.766-3.785,16.734-9.961,22.113c-5.18,4.781-12.152,7.77-19.922,7.77h-39.844c-16.535,0-29.883,13.347-29.883,29.883     c0,13.946,9.562,25.699,23.707,28.887c9.822,34.018,34.698,50.305,65.941,62.023c30.81-11.555,55.805-28.078,65.941-61.625     c13.547-2.789,23.707-14.941,23.707-29.285C345.648,157.035,332.301,143.688,315.766,143.688z" fill="#fed2a4" data-original="#fed2a4"/>
		</g>
		<path style="" d="M345.648,173.57c0,14.343-10.16,26.495-23.707,29.285c-10.147,33.585-35.185,50.09-65.941,61.625    V135.918c6.176-5.379,9.961-13.347,9.961-22.113h19.922c0,16.534,13.347,29.883,29.883,29.883S345.648,157.035,345.648,173.57z" fill="#ffbd86" data-original="#ffbd86"/>
		<g>
			<path style="" d="M246.039,363.492h-39.844V343.57h19.922v-9.961c0-16.478-13.404-29.883-29.883-29.883     s-29.883,13.404-29.883,29.883v9.961h19.922v19.922H146.43v-29.883c0-27.461,22.344-49.805,49.805-49.805     s49.805,22.344,49.805,49.805V363.492z" fill="#00ab94" data-original="#00ab94"/>
		</g>
	</g>
</g>















</g></svg>
