<?xml version="1.0" encoding="utf-8"?>
<svg version="1.1" id="Layer_1" xmlns="http://www.w3.org/2000/svg" xmlns:xlink="http://www.w3.org/1999/xlink" x="0px" y="0px"
	width="100px" height="100px" viewBox="0 0 100 100" style="enable-background:new 0 0 100 100;" xml:space="preserve">
<g>
	<path style="fill:#E8E8E8;" d="M50,0c27.61,0,50,22.39,50,50s-22.39,50-50,50S0,77.61,0,50S22.39,0,50,0"/>
	<path style="fill:#FFFFFF;" d="M50,1c27.06,0,49,21.94,49,49S77.06,99,50,99S1,77.06,1,50S22.94,1,50,1"/>
	<g>
		<path id="path7696" style="fill:#9F043E;" d="M29.24,50c0-5.55-4.5-10.06-10.06-10.06c-5.55,0-10.06,4.5-10.06,10.06
			s4.5,10.06,10.06,10.06C24.74,60.06,29.24,55.55,29.24,50 M14.15,51.69h6.11c1.14,0,2.06-0.75,2.06-1.67
			c0-0.14-0.02-0.28-0.06-0.41c0.33,0.38,0.52,0.86,0.52,1.38c0,1.21-1.09,2.25-2.49,2.25h-6.13
			C14.15,53.24,14.15,51.69,14.15,51.69z M23.48,45.43h-5.47c-1.68,0-3.05,1.35-3.05,3.01v0.26c0,1.02,0.52,1.92,1.3,2.47
			c-1.22-0.51-2.08-1.71-2.08-3.1v-0.06c0-1.86,1.53-3.37,3.42-3.37h5.88C23.48,44.64,23.48,45.43,23.48,45.43z M23.48,46.6h-5.2
			c-1.33,0-2.48,0.85-2.76,2.01v-0.17c0-1.36,1.12-2.46,2.49-2.46h5.47V46.6z M23.48,47.95h-4.82c-1.35,0-2.51,0.8-2.51,1.85l0,0.05
			c-0.09-0.22-0.14-0.45-0.14-0.69c0-1.08,0.99-2.01,2.27-2.01h5.2L23.48,47.95L23.48,47.95z M24.22,51.88
			c0,1.92-1.58,3.48-3.52,3.48h-6.55v-1.28h6.13c1.82,0,3.35-1.36,3.35-3.09c0-0.66-0.22-1.26-0.59-1.75
			c0.72,0.64,1.18,1.56,1.18,2.59C24.22,51.83,24.22,51.88,24.22,51.88z"/>
		<path id="path7700" d="M90.87,45.35v-0.97h-4.48v6.04h1.06v-2.46h3.04V47h-3.04v-1.65C87.45,45.35,90.87,45.35,90.87,45.35z
			 M86.59,53.89h-0.34l-0.53,1.36l-0.53-1.36h-0.34l0.73,1.78h0.27L86.59,53.89L86.59,53.89z M84.09,55.65h0.34v-0.35h-0.34V55.65z
			 M80.85,45.35h3.43v-0.97h-4.48v6.04h1.06v-2.46h3.04V47h-3.04V45.35z M79.59,55.15L79.59,55.15c0-0.3-0.19-0.43-0.57-0.52
			c-0.34-0.08-0.42-0.14-0.42-0.28v-0.01c0-0.12,0.11-0.21,0.29-0.21c0.16,0,0.32,0.06,0.48,0.18l0.17-0.23
			c-0.18-0.14-0.38-0.22-0.64-0.22c-0.35,0-0.6,0.21-0.6,0.51v0.01c0,0.33,0.21,0.44,0.59,0.53c0.33,0.08,0.4,0.14,0.4,0.27v0.01
			c0,0.13-0.12,0.22-0.31,0.22c-0.22,0-0.39-0.08-0.56-0.23l-0.19,0.22c0.21,0.19,0.47,0.28,0.74,0.28
			C79.33,55.68,79.59,55.48,79.59,55.15 M77.57,47.41v-0.02c0-1.7-1.29-3.11-3.14-3.11c-1.85,0-3.16,1.42-3.16,3.12v0.02
			c0,1.7,1.29,3.11,3.14,3.11S77.57,49.11,77.57,47.41 M76.46,47.42c0,1.17-0.83,2.13-2.03,2.13c-1.2,0-2.05-0.98-2.05-2.15v-0.02
			c0-1.17,0.84-2.13,2.03-2.13s2.05,0.98,2.05,2.15V47.42L76.46,47.42z M71.27,54.76c0-0.5-0.38-0.88-0.94-0.88h-0.66v1.77h0.66
			C70.89,55.65,71.27,55.27,71.27,54.76L71.27,54.76L71.27,54.76z M70.95,54.77c0,0.35-0.24,0.6-0.61,0.6h-0.35v-1.2h0.35
			C70.7,54.17,70.95,54.42,70.95,54.77L70.95,54.77L70.95,54.77z M67.98,50.43h1.06v-6.04h-1.06v2.51H65.1v-2.51h-1.06v6.04h1.06
			v-2.55h2.87V50.43z M63.77,53.89v0.73h-0.84v-0.73h-0.31v1.77h0.31v-0.74h0.84v0.74h0.31v-1.77H63.77z M60.66,50.43h0.89v-6.04
			h-1.04v4.18l-3.23-4.18H56.3v6.04h1.04v-4.3L60.66,50.43L60.66,50.43z M55.67,55.65h0.26v-1.77h-0.31v1.22l-0.95-1.22h-0.29v1.77
			h0.31v-1.26L55.67,55.65L55.67,55.65z M52.68,50.43h1.06v-6.04h-1.06V50.43z M52.61,53.85c-0.54,0-0.93,0.42-0.93,0.91v0
			c0,0.5,0.38,0.91,0.92,0.91c0.54,0,0.93-0.42,0.93-0.91v-0.01C53.53,54.27,53.16,53.86,52.61,53.85 M53.21,54.77
			c0,0.34-0.24,0.62-0.6,0.62s-0.6-0.29-0.6-0.63v-0.01c0-0.34,0.24-0.62,0.6-0.62S53.21,54.43,53.21,54.77L53.21,54.77L53.21,54.77
			z M50.5,55.65h0.31v-1.77H50.5V55.65z M45.91,50.43h4.51v-0.95h-3.45v-1.62h3.02v-0.95h-3.02v-1.57h3.41v-0.95h-4.47V50.43
			L45.91,50.43z M44.93,55.65h0.26v-1.77h-0.31v1.22l-0.95-1.22h-0.29v1.77h0.31v-1.26L44.93,55.65z M41.93,45.37h1.91v-0.98h-4.89
			v0.98h1.91v5.06h1.07C41.93,50.43,41.93,45.37,41.93,45.37z M37.81,54.17h0.56v-0.29h-1.43v0.29h0.56v1.48h0.31V54.17z
			 M37.32,48.71v-0.02c0-1-0.66-1.46-1.94-1.77c-1.15-0.28-1.43-0.48-1.43-0.95v-0.02c0-0.4,0.36-0.72,0.98-0.72
			c0.55,0,1.09,0.22,1.64,0.62l0.57-0.8c-0.61-0.49-1.31-0.76-2.19-0.76c-1.2,0-2.06,0.72-2.06,1.75v0.02c0,1.11,0.72,1.49,2.01,1.8
			c1.12,0.26,1.36,0.49,1.36,0.92v0.02c0,0.46-0.41,0.76-1.07,0.76c-0.75,0-1.33-0.28-1.9-0.79l-0.64,0.76
			c0.72,0.65,1.59,0.97,2.51,0.97C36.43,50.51,37.32,49.84,37.32,48.71 M33.64,53.89h-0.31v1.77h0.31V53.89z M34.88,53.89h-0.29
			v1.77h0.31v-1.26l0.97,1.26h0.26v-1.77h-0.31v1.22L34.88,53.89z M40.49,53.89h-1.31v1.77h1.32v-0.28h-1.01V54.9h0.89v-0.28h-0.89
			v-0.46h1V53.89z M42.14,53.89h-0.79v1.77h0.31v-0.62h0.39l0.43,0.62h0.37l-0.48-0.67c0.25-0.07,0.42-0.24,0.42-0.53v-0.01
			c0-0.15-0.05-0.29-0.15-0.38C42.53,53.95,42.36,53.89,42.14,53.89 M42.11,54.17c0.23,0,0.37,0.1,0.37,0.29v0
			c0,0.18-0.14,0.3-0.36,0.3h-0.45v-0.59L42.11,54.17L42.11,54.17z M46.75,53.87l-0.78,1.78h0.32l0.18-0.43h0.83l0.18,0.43h0.33
			l-0.78-1.78H46.75L46.75,53.87z M46.59,54.95l0.3-0.71l0.31,0.71H46.59L46.59,54.95z M49.68,53.89h-1.43v0.29h0.56v1.48h0.31
			v-1.48h0.56V53.89z M57.49,53.87l-0.78,1.78h0.32l0.18-0.43h0.84l0.18,0.43h0.33l-0.78-1.78H57.49z M57.32,54.95l0.3-0.71
			l0.31,0.71H57.32z M59.64,53.89h-0.31v1.77h1.24v-0.28h-0.93V53.89L59.64,53.89z M64.93,54.77L64.93,54.77
			c0,0.5,0.38,0.91,0.92,0.91s0.93-0.42,0.93-0.91v-0.01c0-0.5-0.38-0.91-0.92-0.91S64.93,54.27,64.93,54.77 M65.26,54.76
			c0-0.34,0.24-0.62,0.6-0.62s0.6,0.29,0.6,0.63v0c0,0.34-0.24,0.62-0.6,0.62S65.26,55.11,65.26,54.76L65.26,54.76L65.26,54.76z
			 M67.94,53.89h-0.31v1.77h1.24v-0.28h-0.93V53.89z M72.46,53.89h-0.31v1.77h0.31V53.89z M73.69,53.89h-0.29v1.77h0.3v-1.26
			l0.97,1.26h0.26v-1.77h-0.31v1.22L73.69,53.89L73.69,53.89z M75.8,54.77L75.8,54.77c0,0.52,0.36,0.91,0.92,0.91
			c0.31,0,0.56-0.13,0.74-0.27v-0.74H76.7v0.27h0.45v0.33c-0.11,0.08-0.26,0.13-0.43,0.13c-0.36,0-0.6-0.27-0.6-0.63v-0.01
			c0-0.34,0.25-0.62,0.57-0.62c0.22,0,0.36,0.07,0.49,0.19l0.2-0.23c-0.18-0.15-0.37-0.24-0.68-0.24
			C76.18,53.85,75.8,54.27,75.8,54.77 M81.96,53.89h-0.29v1.77h0.31v-1.26l0.97,1.26h0.26v-1.77H82.9v1.22L81.96,53.89z
			 M87.35,55.31h-0.34v0.35h0.34V55.31z"/>
	</g>
</g>
</svg>
