<?xml version="1.0"?>
<svg xmlns="http://www.w3.org/2000/svg" xmlns:xlink="http://www.w3.org/1999/xlink" xmlns:svgjs="http://svgjs.com/svgjs" version="1.1" width="512" height="512" x="0" y="0" viewBox="0 0 512 512" style="enable-background:new 0 0 512 512" xml:space="preserve" class=""><g>
<circle xmlns="http://www.w3.org/2000/svg" style="" cx="256" cy="256" r="256" fill="#f1f1f1" data-original="#366695" class=""/>
<path xmlns="http://www.w3.org/2000/svg" style="" d="M512,256c0-1.965-0.031-3.924-0.074-5.879L368.993,107.189l-53.231,48.824l-27.582,15.515  l-49.131,35.34l1.724,27.582l-35.34-5.172l-61.199,12.067l-28.444,66.37l16.27,73.266l133.515,130.82  C402.52,506.766,512,394.178,512,256z" fill="#f1f1f1" data-original="#263a7a" class=""/>
<polygon xmlns="http://www.w3.org/2000/svg" style="" points="312.889,174.514 368.993,107.189 346.552,84.747 279.226,84.747 256.784,107.189 " fill="#71e2ef" data-original="#71e2ef"/>
<g xmlns="http://www.w3.org/2000/svg">
	<polygon style="" points="312.889,174.514 340.492,107.189 329.45,84.747 296.327,84.747 285.286,107.189  " fill="#38c6d9" data-original="#38c6d9" class=""/>
	<polygon style="" points="368.993,107.189 346.552,84.747 279.226,84.747 256.784,107.189  " fill="#38c6d9" data-original="#38c6d9" class=""/>
</g>
<polygon xmlns="http://www.w3.org/2000/svg" style="" points="340.492,107.189 329.45,84.747 296.327,84.747 285.286,107.189 " fill="#71e2ef" data-original="#71e2ef"/>
<path xmlns="http://www.w3.org/2000/svg" style="" d="M312.889,351.677c-52.757,0-95.677-42.92-95.677-95.677s42.92-95.677,95.677-95.677  s95.677,42.92,95.677,95.677S365.646,351.677,312.889,351.677z M312.889,181.01c-41.35,0-74.99,33.64-74.99,74.99  s33.64,74.99,74.99,74.99s74.99-33.64,74.99-74.99S354.238,181.01,312.889,181.01z" fill="#ffc91b" data-original="#ffc91b" class=""/>
<path xmlns="http://www.w3.org/2000/svg" style="" d="M312.889,160.323c-0.384,0-0.764,0.024-1.148,0.029v20.687c0.384-0.005,0.764-0.029,1.148-0.029  c41.35,0,74.99,33.64,74.99,74.99s-33.64,74.99-74.99,74.99c-0.384,0-0.765-0.024-1.148-0.029v20.687  c0.384,0.005,0.764,0.029,1.148,0.029c52.757,0,95.677-42.92,95.677-95.677S365.646,160.323,312.889,160.323z" fill="#d48b07" data-original="#d48b07" class=""/>
<path xmlns="http://www.w3.org/2000/svg" style="" d="M199.111,408.566c-52.757,0-95.677-42.92-95.677-95.677s42.92-95.677,95.677-95.677  s95.677,42.92,95.677,95.677S251.868,408.566,199.111,408.566z M199.111,237.899c-41.35,0-74.99,33.64-74.99,74.99  s33.64,74.99,74.99,74.99s74.99-33.64,74.99-74.99S240.461,237.899,199.111,237.899z" fill="#ffc91b" data-original="#ffc91b" class=""/>
<path xmlns="http://www.w3.org/2000/svg" style="" d="M199.111,387.879c41.35,0,74.99-33.64,74.99-74.99s-33.64-74.99-74.99-74.99v-20.687  c52.757,0,95.677,42.92,95.677,95.677s-42.92,95.677-95.677,95.677V387.879z" fill="#d48b07" data-original="#d48b07" class=""/>
<g xmlns="http://www.w3.org/2000/svg">
</g>
<g xmlns="http://www.w3.org/2000/svg">
</g>
<g xmlns="http://www.w3.org/2000/svg">
</g>
<g xmlns="http://www.w3.org/2000/svg">
</g>
<g xmlns="http://www.w3.org/2000/svg">
</g>
<g xmlns="http://www.w3.org/2000/svg">
</g>
<g xmlns="http://www.w3.org/2000/svg">
</g>
<g xmlns="http://www.w3.org/2000/svg">
</g>
<g xmlns="http://www.w3.org/2000/svg">
</g>
<g xmlns="http://www.w3.org/2000/svg">
</g>
<g xmlns="http://www.w3.org/2000/svg">
</g>
<g xmlns="http://www.w3.org/2000/svg">
</g>
<g xmlns="http://www.w3.org/2000/svg">
</g>
<g xmlns="http://www.w3.org/2000/svg">
</g>
<g xmlns="http://www.w3.org/2000/svg">
</g>
</g></svg>
