<svg xmlns="http://www.w3.org/2000/svg" viewBox="0 0 858.49 246.38"><path d="M484.81 47.48h-35.93a5.15 5.15 0 0 0-3.23 1.03c-1.03.63-1.83 1.59-2.26 2.72l-1.23 3.34-28.85 88.34c-.67 1.39-1.44 2.1-2.26 2.1s-2.67-2.87-4.06-7.19c-.82-2.21-28.9-84.54-29.31-85.87a5.99 5.99 0 0 0-2.05-3.03c-1.51-1.01-3.31-1.52-5.13-1.44h-34.8a1.16 1.16 0 0 0-.82 0c-1.34.22-2.54.95-3.34 2.05a8.08 8.08 0 0 0-.62 2.41c-.08 1.08-.08 2.16 0 3.23v131.35c-.08 1.49-.08 2.98 0 4.47a4.55 4.55 0 0 0 1.44 3.23c.89.71 1.99 1.11 3.13 1.13h18.27a7.83 7.83 0 0 0 3.08-.31c1.27-.1 2.43-.78 3.13-1.85a4.21 4.21 0 0 0 .82-2.72v-87.26c0-1.08.46-2.67 1.69-2.52.37.06.72.2 1.03.41l.82.72c.96 1.49 1.71 3.09 2.26 4.77 0 .26 29.36 83.1 29.77 83.98 1.08 2.57 2.77 4.57 5.13 4.57h19.01a4.51 4.51 0 0 0 3.9-3.39c5.85-14.99 25.66-76.22 30.8-88.75a13.85 13.85 0 0 1 1.8-3.03c.26 0 1.23-.82 1.64-.72s1.03.36 1.18 1.49c.1 1.44.1 2.88 0 4.31v81.77 3.54a4.21 4.21 0 0 0 .82 2.72c1.14 1.45 2.94 2.22 4.77 2.05h19.76c1.12-.03 2.2-.43 3.08-1.13a4.35 4.35 0 0 0 1.39-3.23V52.74a4.82 4.82 0 0 0-2.31-4.67c-.76-.42-1.64-.63-2.52-.59zM735.3 0c-68.04 0-123.19 55.15-123.19 123.19s55.15 123.19 123.19 123.19 123.19-55.15 123.19-123.19c0-32.67-12.98-64.01-36.08-87.11S767.97 0 735.3 0zm-42.29 194.74c-.99 1.36-2.53 2.19-4.21 2.26h-22.53a6.12 6.12 0 0 1-3.18-1.23c-.77-.87-1.22-1.97-1.28-3.13v-4.36V57.13c-.2-1.94.14-3.89.98-5.65a5.13 5.13 0 0 1 3.8-2.16h23.2a3.81 3.81 0 0 1 3.13 1.54c.73 1.11 1.12 2.42 1.13 3.75v135.3c.06 1.68-.29 3.34-1.04 4.83zm121.7-2.82a4.41 4.41 0 0 1-3.03 4.67c-7.3.41-14.62.41-21.92 0-1.21-.14-2.29-.79-2.98-1.8a6.52 6.52 0 0 1-.98-3.18v-49.79c0-5.13 0-9.86-.62-14.22.01-4.97-2.04-9.72-5.65-13.14s-8.48-5.18-13.44-4.88c-10.64-.31-19.75 7.55-20.99 18.12a145.4 145.4 0 0 0-1.28 20.53v42.45c.03 1.06-.18 2.11-.62 3.08-.57 1.42-1.83 2.44-3.34 2.72-2.1.51-19.04.36-20.53 0-1.26-.02-2.46-.53-3.34-1.44-1.07-1.6-1.56-3.52-1.39-5.44V94.23a5.11 5.11 0 0 1 1.18-3.13c.82-1.13 2.62-1.64 5.9-1.64h11.81c3.34 0 7.44 0 7.96 3.18 0 .77.87 7.13 3.59 7.19.81-.01 1.56-.39 2.05-1.03 2.3-2.4 4.84-4.55 7.6-6.42 12.85-6.69 27.99-7.43 41.42-2 5.43 2.48 10 6.54 13.09 11.65a50.13 50.13 0 0 1 5.59 23.87l-.08 66.02zM842.94 34.7a13.65 13.65 0 1 0 0-27.3 13.65 13.65 0 1 0 0 27.3zm0-25.15c6.35 0 11.5 5.15 11.5 11.5s-5.15 11.5-11.5 11.5-11.5-5.15-11.5-11.5a11.49 11.49 0 0 1 11.5-11.5zm-4.36 17.6v.31h.46.51.51c.12-.06.22-.17.26-.31.08-.18.08-.38 0-.56v-4c-.04-.2-.04-.41 0-.62.09-.07.22-.07.31 0h.41.87c.15-.04.31-.04.46 0a1.74 1.74 0 0 1 .56.67l.51.77 1.95 3.13c.16.16.28.35.36.56.13.18.28.34.46.46h.26.31c.18.05.38.05.56 0h.46a.45.45 0 0 0 0-.56 1.77 1.77 0 0 0 0-.46l-.31-.46-1.9-2.93-.26-.41v-.41h0 0a.6.6 0 0 1 .26-.36c.14-.03.28-.03.41 0h.46.41c.34-.23.65-.51.92-.82.29-.33.5-.71.62-1.13a3.75 3.75 0 0 0 0-.67c.05-.24.05-.48 0-.72v-.31-.56a5.04 5.04 0 0 0-.67-1.54c-.18-.22-.41-.4-.67-.51-.57-.43-1.24-.68-1.95-.72h-2.57-3.59c-.18.04-.33.15-.41.31v.46 11.09.46c-.03.14-.03.28 0 .41v-.57zm2.05-9.75a.73.73 0 0 1 0-.36v-.36a.57.57 0 0 1 0-.26h0c.12-.16.28-.28.46-.36h1.8a6.93 6.93 0 0 1 1.44 0c.39.05.77.15 1.13.31.32.2.57.48.72.82.04.22.04.45 0 .67a2.26 2.26 0 0 1 0 .82 2.26 2.26 0 0 1-.41.82 1.82 1.82 0 0 1-.56.51l-.87.26h-1.03-1.9a.8.8 0 0 1-.72-.31 1.64 1.64 0 0 1 0-.98V17.4h-.06zM550.87 85.52c-38.19 1.13-52.92 34.34-52.92 56.46 0 13.09 5.13 56.46 55.13 56.46 36.39 0 46.2-26.69 47.48-30.18a6.05 6.05 0 0 0 .31-2.46 2.69 2.69 0 0 0 0-.98c-.11-1.15-1.01-2.07-2.16-2.21h-17.5a6.47 6.47 0 0 0-4.52 2.46c-.46.51-1.03 1.28-1.49 1.85-4.97 6.23-12.56 9.8-20.53 9.65-20.12 0-25.97-13.45-26.69-20.53v-1.54c-.17-2.21 1.09-4.28 3.13-5.13a7.1 7.1 0 0 1 2.31-.51h62.57c1.38.08 2.77.08 4.16 0 1.08-.13 2.12-.52 3.03-1.13.82-.68 1.33-1.66 1.44-2.72a41.92 41.92 0 0 0 .31-5.13c.35-21.36-14.74-55.55-54.06-54.36zm22.69 43.21a5.14 5.14 0 0 1-4.26 1.8h-34.85a8.4 8.4 0 0 1-4.57-1.08c-.67-.51-1.14-1.24-1.33-2.05-.15-.87-.15-1.75 0-2.62 2.81-10.92 12.91-18.36 24.18-17.81a22.84 22.84 0 0 1 21.25 16.58 5.6 5.6 0 0 1-.42 5.18zM317.27 89.67c-.85-.72-1.92-1.12-3.03-1.13h-18.27a5.82 5.82 0 0 0-3.03.92 5.1 5.1 0 0 0-1.13 1.95 9.84 9.84 0 0 0 0 1.33c-.41 2.52-1.28 4.52-3.08 4.72-1.06.08-2.08-.39-2.72-1.23a35.32 35.32 0 0 0-27.05-10.78c-36.39 0-45.22 34.54-46.2 47.02v5.13c0 38.24 21.51 54.77 46.2 54.77a41.08 41.08 0 0 0 26.33-9.7c.32-.32.66-.61 1.03-.87.4-.35.87-.62 1.39-.77.8-.36 1.72-.36 2.52 0 1.44.82 1.69 2.57 1.44 5.13l-1.08 11.14c-1.43 10.43-10.02 18.41-20.53 19.04-10.09 1.89-20.2-3.14-24.79-12.32a5.14 5.14 0 0 0-4.16-2.16c-.72 0-18.79-.31-20.17 0-1.24.2-2.39.81-3.23 1.75a4.7 4.7 0 0 0-.51 4.06c3.49 14.06 18.89 28.28 47.02 28.28h.51c42.65 0 54.15-24.33 54.15-49.48V92.84a4.34 4.34 0 0 0-1.61-3.17zm-51.33 80.74c-13.91 0-24.07-10.83-24.07-33.98 0-19.2 11.45-29 23.92-29 11.19 0 25.66 9.65 25.66 29.21-.26 21.51-10.63 33.77-25.56 33.77h.05zM148.86 85.72h-.72c-45.02 0-54.92 37.62-54.92 55.28-.28 8.98 1.38 17.91 4.88 26.18 7.19 15.71 22.28 31.31 50.76 31.31s55.64-17.81 55.64-56.98v-.31a53.48 53.48 0 0 0-15.7-39.9 53.51 53.51 0 0 0-39.94-15.58zm-.97 90.96c-11.6 0-25.66-9.34-25.66-34.39s13.45-34.49 27.82-34.49 25.25 12.32 25.25 34.65c0 28.12-16.28 34.23-27.41 34.23zm-57.08-6.57a4.11 4.11 0 0 0-2.57-1.23c-1.4-.31-2.83-.48-4.26-.51H38.45c-2.3.29-4.55-.77-5.8-2.72a6.67 6.67 0 0 1-.51-2.41c-.05-.92-.05-1.85 0-2.77v-2.1-2.67-3.54-99.19c.07-1.37-.31-2.72-1.08-3.85-.74-1.01-1.93-1.58-3.18-1.54H4.06c-1.34.22-2.54.95-3.34 2.05-.47.9-.71 1.91-.72 2.93v137.31c-.05 1.13.24 2.26.82 3.23a4.46 4.46 0 0 0 3.23 1.95l82.79.31c2.17.04 4.18-1.18 5.13-3.13.15-.76.15-1.55 0-2.31v-16.63c.04-1.17-.38-2.31-1.16-3.18z" fill="#165c7d"/></svg>