<?xml version="1.0" encoding="utf-8"?>
<svg version="1.1" id="Layer_1" xmlns="http://www.w3.org/2000/svg" xmlns:xlink="http://www.w3.org/1999/xlink" x="0px" y="0px"
	 viewBox="0 0 1920 159.36" style="enable-background:new 0 0 1920 159.36;" xml:space="preserve">
<g id="Layer_2">
	<g id="Layer_1-2">
		<polygon points="98.28,3.1 98.28,68.83 19.84,68.83 19.84,3.1 0,3.1 0,156.25 19.84,156.25 19.84,87.43 98.28,87.43 98.28,156.25 
			118.43,156.25 118.43,3.1 		"/>
		<path d="M226.63,140.13c-28.83,0-58.6-22.32-58.6-60.77c0-39.37,30.38-60.15,58.6-60.15c29.76,0,60.15,20.15,60.15,60.15
			c0.63,32.93-25.56,60.13-58.49,60.76C227.73,140.13,227.18,140.14,226.63,140.13 M226.63,0c-52.08,0-79.99,40.92-79.99,79.37
			c0,39.37,29.45,79.99,79.99,79.99c52.7,0,80.92-41.54,80.92-79.99S279.33,0,226.63,0"/>
		<path d="M456.36,3.1v89.6c0,31.93-16.12,64.8-60.15,64.8s-60.15-32.86-60.15-64.8V3.1h19.84v89.6c0,28.83,15.19,46.5,40.92,46.5
			c11.16,0,39.06-4.03,39.06-46.5V3.1H456.36"/>
		<polygon points="702.21,3.1 702.21,22.32 643,22.32 643,69.76 689.5,69.76 689.5,88.05 643,88.05 643,137.03 702.21,137.03 
			702.21,156.25 622.23,156.25 622.23,3.1 		"/>
		<polygon points="1073.01,3.1 1073.01,22.32 1008.21,22.32 1008.21,69.76 1059.67,69.76 1059.67,88.05 1008.21,88.05 
			1008.21,156.25 988.37,156.25 988.37,3.1 		"/>
		<path d="M1332.5,77.82h-21.7V20.77h23.25c21.7,0,33.79,11.16,33.79,30.38C1367.84,68.21,1355.13,77.82,1332.5,77.82
			 M1359.16,91.15l0.93-0.93c17.67-7.13,27.9-22.32,27.9-39.37c0-31.93-20.15-48.05-58.6-48.05h-38.44v152.84h20.15V95.18h29.45
			c0,0,28.21,59.22,28.83,60.77h24.8C1392.02,152.84,1359.16,91.15,1359.16,91.15"/>
		<path d="M1457.75,102.62l26.35-75.96l1.55-3.1l26.35,79.37h-54.25V102.62z M1497.74,3.1h-23.25
			c-0.93,1.55-57.67,149.74-58.6,152.84h22.32c0-1.55,13.64-35.34,13.64-35.34h66.35c0,0,12.71,33.48,13.64,35.34h22.32
			C1552.93,152.84,1498.36,4.96,1497.74,3.1"/>
		<polygon points="1258.09,3.1 1258.09,22.32 1192.37,22.32 1192.37,69.76 1243.83,69.76 1243.83,88.05 1192.37,88.05 
			1192.37,156.25 1172.52,156.25 1172.52,3.1 		"/>
		<path d="M874.59,140.13c-32.74-0.03-59.26-26.6-59.23-59.35c0-0.47,0.01-0.95,0.02-1.42c0-39.37,30.38-60.15,59.22-60.15
			c29.76,0,59.22,20.77,59.22,60.15C933.8,119.36,903.42,140.13,874.59,140.13 M874.59,0c-52.08,0-80.92,40.92-80.92,79.37
			c-0.17,44.01,35.38,79.83,79.39,80c0.51,0,1.02,0,1.52-0.01c52.7,0,80.92-41.54,80.92-79.99S927.29,0,874.59,0"/>
		<polygon points="1783.59,3.1 1783.59,22.32 1724.37,22.32 1724.37,69.76 1770.88,69.76 1770.88,88.05 1724.37,88.05 
			1724.37,137.65 1783.59,137.65 1783.59,156.25 1704.22,156.25 1704.22,3.1 		"/>
		<path d="M1858.3,78.44l-19.84-0.93h-1.55V21.7h23.25c21.7,0,33.48,10.54,33.48,29.76C1893.65,61.7,1888.69,78.44,1858.3,78.44
			 M1884.66,91.15h0.93c17.67-8.06,27.9-23.25,27.9-39.99c0-31.93-20.15-48.05-58.59-48.05h-38.44v152.84h20.15V96.11h29.76
			c0,0,27.9,58.6,28.83,60.15h24.8C1918.45,152.84,1884.66,91.15,1884.66,91.15"/>
		<path d="M569.52,115.33c0-16.74-17.67-22.32-35.96-28.83c-20.77-8.06-43.09-15.19-43.09-40.92C490.46,2.17,532.94,0,541.62,0
			c15.19,0.05,30.2,3.33,44.02,9.61c-1.95,6.3-3.5,12.72-4.65,19.22c-11.54-7.19-24.85-11.05-38.44-11.16
			c-21.7,0-31.31,12.71-31.31,24.8c0,16.12,16.12,20.77,33.48,26.35c21.7,7.13,45.57,14.26,45.57,44.95
			c0,26.35-21.7,44.95-52.08,44.95c-25.73,0-48.05-12.71-52.08-15.19c0.93-0.62,5.58-16.12,6.51-18.29
			c14,10.14,30.77,15.77,48.05,16.12C561.46,141.06,569.52,127.42,569.52,115.33"/>
		<path d="M1651.52,115.33c0-16.74-17.67-22.32-35.96-28.83c-20.77-8.06-43.09-15.19-43.09-40.92c0-43.4,42.47-45.57,51.15-45.57
			c15.19,0.05,30.2,3.33,44.02,9.61c-1.95,6.3-3.5,12.72-4.65,19.22c-11.52-7.24-24.84-11.11-38.44-11.16
			c-21.7,0-31.31,12.71-31.31,24.8c0,16.12,16.12,20.77,32.86,26.35c22.32,7.13,46.5,14.26,46.5,44.95
			c0,26.35-21.7,44.95-52.08,44.95c-25.73,0-48.05-12.71-52.08-15.19c0.93-0.62,5.58-16.12,6.51-18.29
			c14,10.14,30.77,15.77,48.05,16.12C1643.46,141.06,1651.52,127.42,1651.52,115.33"/>
	</g>
</g>
</svg>
