<?xml version="1.0"?>
<svg xmlns="http://www.w3.org/2000/svg" xmlns:xlink="http://www.w3.org/1999/xlink" xmlns:svgjs="http://svgjs.com/svgjs" version="1.1" width="512" height="512" x="0" y="0" viewBox="0 0 512 512" style="enable-background:new 0 0 512 512" xml:space="preserve" class=""><g>
<g xmlns="http://www.w3.org/2000/svg">
	<g>
		<g>
			<g>
				<g>
					<g>
						<g>
							<g>
								<g>
									<g>
										<g>
											<g>
												<circle style="" cx="256" cy="256" r="256" fill="#f1f1f1" data-original="#ffda00" class=""/>
											</g>
										</g>
									</g>
								</g>
							</g>
						</g>
					</g>
				</g>
			</g>
		</g>
	</g>
	<g>
		<path style="" d="M378.541,480.814l-115.84-115.84l-94.891,18.312c0,0-55.664,84.213-54.773,85.104l0,0    C153.861,495.924,203.053,512,256,512C300.394,512,342.145,500.695,378.541,480.814z" fill="#f1f1f1" data-original="#ffb000" class=""/>
		<path style="" d="M512,256c0-52.948-16.076-102.139-43.611-142.965l0,0L218.667,233l32.008,85.73l149.102,149.102    C467.508,421.772,512,344.084,512,256z" fill="#f1f1f1" data-original="#ffb000" class=""/>
	</g>
	<g>
		<path style="" d="M245.448,178.292l-53.464,81.748l58.69,58.69l81.748-53.464L245.448,178.292z M263.16,282.91    l-35.355-35.355l16.583-22.24l42.426,42.426L263.16,282.91z" fill="#ffffff" data-original="#ffffff"/>
	</g>
	<g>
		<polygon style="" points="264.846,245.773 286.814,267.741 263.16,282.91 245.434,265.185 221.281,289.338     250.674,318.73 332.422,265.266 288.887,221.731   " fill="#e9edf5" data-original="#e9edf5"/>
	</g>
	<g>
		<path style="" d="M397.414,42.59L276.207,163.796l70.711,70.711l121.471-121.472    C449.588,85.158,425.434,61.195,397.414,42.59z" fill="#7e8596" data-original="#7e8596" class=""/>
	</g>
	<g>
		<path style="" d="M468.389,113.035c-9.411-13.953-20.163-26.926-32.069-38.737L311.515,199.104l35.403,35.403    L468.389,113.035z" fill="#707789" data-original="#707789"/>
	</g>
	<g>
		
			<rect x="216.956" y="173.891" transform="matrix(0.7071 0.7071 -0.7071 0.7071 237.0069 -150.0739)" style="" width="165.405" height="74.331" fill="#555a66" data-original="#555a66"/>
	</g>
	<g>
		
			<rect x="291.709" y="198.887" transform="matrix(0.7071 -0.7071 0.7071 0.7071 -73.5726 302.9233)" style="" width="74.331" height="82.77" fill="#353d44" data-original="#353d44" class=""/>
	</g>
	<g>
		<path style="" d="M42.59,397.415c18.605,28.02,42.568,52.174,70.446,70.975l88.356-88.356l-70.711-70.71    L42.59,397.415z" fill="#7e8596" data-original="#7e8596" class=""/>
	</g>
	<g>
		<path style="" d="M74.299,436.321c11.811,11.906,24.784,22.658,38.738,32.069l88.356-88.356l-35.404-35.403    L74.299,436.321z" fill="#707789" data-original="#707789"/>
	</g>
	<g>
		
			<rect x="90.281" y="293.556" transform="matrix(-0.7071 -0.7071 0.7071 -0.7071 56.4896 698.8631)" style="" width="165.404" height="88.353" fill="#555a66" data-original="#555a66"/>
	</g>
	<g>
		
			<rect x="158.023" y="325.562" transform="matrix(0.7071 -0.7071 0.7071 0.7071 -200.2488 250.4546)" style="" width="88.353" height="82.771" fill="#353d44" data-original="#353d44" class=""/>
	</g>
</g>















</g></svg>
