<?xml version="1.0" encoding="utf-8"?>
<svg version="1.1" id="Layer_1" xmlns="http://www.w3.org/2000/svg" xmlns:xlink="http://www.w3.org/1999/xlink" x="0px" y="0px"
	width="100px" height="100px" viewBox="0 0 66.7 66.7" style="enable-background:new 0 0 66.7 66.7;" xml:space="preserve">
<g>
	<circle style="fill:#E8E8E8;" cx="33.3" cy="33.3" r="33.3"/>
	<circle style="fill:#FFFFFF;" cx="33.3" cy="33.3" r="32.7"/>
	<path style="fill:#E5007E;" d="M13.7,27.7l-0.1,0.1H12c-0.1,0-0.1-0.1-0.1-0.1v-1.6c0-0.1,0.1-0.1,0.1-0.1h1.6
		c0.1,0,0.1,0.1,0.1,0.1C13.7,26.1,13.7,27.7,13.7,27.7z M11.9,29.5c0,0.1-0.1,0.1-0.1,0.1h-1.6c-0.1,0-0.1,0-0.1-0.1v-1.6
		c0-0.1,0-0.1,0.1-0.1h1.6c0.1,0,0.1,0,0.1,0.1V29.5z"/>
	<path style="fill:#009EE2;" d="M8.9,30.4l-0.1,0.1H7.3c-0.1,0-0.1-0.1-0.1-0.1v-1.6c0-0.1,0.1-0.1,0.1-0.1h1.6
		c0.1,0,0.1,0.1,0.1,0.1C9,28.8,8.9,30.4,8.9,30.4z M10.7,32.2C10.7,32.3,10.7,32.3,10.7,32.2L9,32.3c-0.1,0-0.1,0-0.1-0.1v-1.6
		c0-0.1,0.1-0.1,0.1-0.1h1.6c0.1,0,0.1,0,0.1,0.1V32.2z"/>
	<path style="fill:#FFEC00;" d="M13.1,32.2C13.1,32.3,13,32.3,13.1,32.2l-1.7,0.1c-0.1,0-0.1,0-0.1-0.1v-1.6c0-0.1,0.1-0.1,0.1-0.1
		H13c0.1,0,0.1,0,0.1,0.1V32.2z M14.8,30.4c0,0-0.1,0.1-0.1,0.1h-1.6c-0.1,0-0.1-0.1-0.1-0.1v-1.6c0-0.1,0.1-0.1,0.1-0.1h1.6
		c0.1,0,0.1,0.1,0.1,0.1L14.8,30.4C14.8,30.4,14.8,30.4,14.8,30.4z"/>
	<path style="fill:#1D1D1B;" d="M19.7,34.5h-0.5c0-0.4-0.2-0.8-0.5-1c-0.3-0.2-0.8-0.3-1.5-0.3c-1.1,0-1.7,0.3-1.7,1.1
		c0,0.5,0.3,0.8,1.1,0.9l1.7,0.2c1.1,0.1,1.7,0.7,1.7,1.5c0,1.1-0.9,1.6-2.6,1.6c-1.7,0-2.5-0.7-2.6-1.8h0.5
		c0.1,0.4,0.2,0.7,0.4,0.9c0.3,0.3,1,0.5,1.9,0.5c1.3,0,1.9-0.4,1.9-1.2c0-0.5-0.3-0.9-1.1-1l-1.9-0.3c-1-0.1-1.5-0.6-1.5-1.3
		c0-0.4,0.1-0.7,0.5-1c0.4-0.3,1-0.5,1.8-0.5C18.9,32.8,19.7,33.3,19.7,34.5z M20.5,35.7c0-0.7,0.3-1.5,0.8-2
		c0.5-0.6,1.3-0.9,2.2-0.9c0.9,0,1.7,0.3,2.2,0.9c1.1,1.1,1.1,2.9,0,4c-0.5,0.6-1.3,0.9-2.2,0.9c-0.9,0-1.7-0.3-2.2-0.9
		C20.7,37.1,20.5,36.4,20.5,35.7z M20.9,35.7c0,0.6,0.2,1.2,0.7,1.7c0.5,0.5,1.1,0.7,1.9,0.7c0.8,0,1.5-0.3,1.9-0.7
		c0.9-0.9,0.9-2.4,0-3.3c-0.5-0.5-1.1-0.7-1.9-0.7c-0.8,0-1.5,0.3-1.9,0.7C21.2,34.4,20.9,35,20.9,35.7z M27.9,38.3v-5h-1.2V33h1.2
		v-0.9c0-0.5,0.1-0.8,0.3-1c0.2-0.3,0.5-0.4,1.1-0.4c0.1,0,0.5,0,0.8,0.1v0.4c-0.2-0.1-0.5-0.1-0.7-0.1c-0.6,0-0.9,0.3-0.9,0.8v1H30
		v0.4h-1.5v4.9L27.9,38.3C27.9,38.3,27.9,38.3,27.9,38.3z M30.2,35.7c0-0.7,0.3-1.5,0.8-2c0.5-0.6,1.3-0.9,2.2-0.9
		c0.9,0,1.7,0.3,2.2,0.9c1.1,1.1,1.1,2.9,0,4c-0.6,0.6-1.3,0.9-2.2,0.9c-0.9,0-1.7-0.3-2.2-0.9C30.5,37.1,30.1,36.4,30.2,35.7z
		 M30.7,35.7c0,0.6,0.2,1.2,0.7,1.7c0.5,0.5,1.1,0.7,1.9,0.7s1.5-0.3,1.9-0.7c0.9-0.9,0.9-2.4,0-3.3c-0.5-0.5-1.1-0.7-1.9-0.7
		s-1.5,0.3-1.9,0.7C30.9,34.4,30.7,35,30.7,35.7L30.7,35.7z M37.1,38.3v-7.5h0.5v7.5H37.1L37.1,38.3z M38.5,35.7
		c0-0.7,0.3-1.5,0.8-2c0.5-0.6,1.3-0.9,2.2-0.9s1.7,0.3,2.2,0.9c1.1,1.1,1.1,2.9,0,4c-0.5,0.6-1.3,0.9-2.2,0.9
		c-0.9,0-1.7-0.3-2.2-0.9C38.8,37.1,38.5,36.4,38.5,35.7L38.5,35.7z M39,35.7c0,0.6,0.2,1.2,0.7,1.7c0.5,0.5,1.1,0.7,1.9,0.7
		s1.5-0.3,1.9-0.7c0.9-0.9,0.9-2.4,0-3.3c-0.5-0.5-1.1-0.7-1.9-0.7s-1.5,0.3-1.9,0.7C39.3,34.4,39,35,39,35.7L39,35.7L39,35.7z
		 M50.6,34.1V33h0.5v5.1c0,1.7-1,2.6-2.9,2.6c-0.9,0-1.5-0.1-1.9-0.4c-0.5-0.3-0.7-0.7-0.9-1.4h0.5c0.1,1,0.9,1.4,2.3,1.4
		c1.6,0,2.5-0.7,2.5-2.1V37l0,0c-0.5,0.9-1.3,1.3-2.5,1.3c-1,0-1.7-0.3-2.3-0.9c-0.5-0.5-0.7-1.1-0.7-1.9c0-0.7,0.2-1.4,0.7-1.9
		c0.5-0.5,1.3-0.8,2.2-0.8C49.3,32.8,50.1,33.3,50.6,34.1C50.6,34.1,50.6,34.1,50.6,34.1z M48.1,33.2c-0.6,0-1.2,0.2-1.7,0.5
		c-0.5,0.4-0.7,1-0.7,1.7c0,0.7,0.2,1.3,0.7,1.7c0.4,0.4,1.1,0.6,1.9,0.6c0.7,0,1.3-0.2,1.8-0.6c0.5-0.4,0.7-1,0.7-1.8
		c0-0.7-0.2-1.3-0.7-1.7C49.5,33.4,48.9,33.2,48.1,33.2L48.1,33.2z M54.3,38.3L51.5,33h0.5l2.4,4.8l2.2-4.8h0.5l-2.9,6.3
		c-0.1,0.3-0.3,0.5-0.5,0.7c-0.3,0.2-0.6,0.3-0.9,0.3h-0.7v-0.4h0.6c0.3,0,0.5-0.1,0.7-0.1s0.3-0.4,0.5-0.8L54.3,38.3L54.3,38.3z"/>
	<path style="fill:#009EE2;" d="M29.9,40c0,0.1-0.1,0.2-0.3,0.2h-6.3c-0.1,0-0.3-0.1-0.3-0.2c0-0.1,0.1-0.3,0.2-0.3l0,0h6.3
		C29.7,39.8,29.9,39.9,29.9,40"/>
	<path style="fill:#E5007E;" d="M37.1,40c0,0.1-0.1,0.2-0.3,0.2h-6.3c-0.1,0-0.3-0.1-0.3-0.2c0-0.1,0.1-0.3,0.2-0.3l0,0h6.3
		C36.9,39.8,37.1,39.9,37.1,40"/>
	<path style="fill:#FFEC00;" d="M44.2,40c0,0.1-0.1,0.2-0.3,0.2h-6.3c-0.1,0-0.3-0.1-0.3-0.2c0-0.1,0.1-0.3,0.2-0.3l0,0H44
		C44.1,39.8,44.2,39.9,44.2,40"/>
	<path style="fill:#868686;" d="M58.4,31.9c-0.7,0-1.1-0.5-1.1-1.1c0-0.6,0.5-1.1,1.1-1.1c0.6,0,1.1,0.5,1.1,1.1
		C59.5,31.4,59,31.9,58.4,31.9z M58.4,29.7c-0.6,0-1.1,0.5-1.1,1.1c0,0.6,0.5,1.1,1.1,1.1l0,0c0.6,0,1.1-0.5,1.1-1c0,0,0,0,0,0
		C59.4,30.1,58.9,29.7,58.4,29.7z M57.9,31.3v-1.1h0.5c0.2,0,0.3,0.1,0.3,0.3c0,0.1,0,0.1-0.1,0.1c0,0.1-0.1,0.1-0.1,0.1l0,0
		c0.1,0,0.1,0.1,0.1,0.1c0,0.1,0.1,0.1,0.1,0.2v0.2h-0.1v-0.2c0-0.1,0-0.1-0.1-0.2c-0.1-0.1-0.1-0.1-0.2-0.1H58v0.4
		C58,31.1,57.9,31.3,57.9,31.3z M58.1,30.3v0.4h0.4c0.1,0,0.2-0.1,0.2-0.2s-0.1-0.2-0.2-0.2L58.1,30.3
		C58.1,30.3,58.1,30.3,58.1,30.3z"/>
</g>
</svg>
