<?xml version="1.0" encoding="utf-8"?>
<svg version="1.1" id="Layer_1" xmlns="http://www.w3.org/2000/svg" xmlns:xlink="http://www.w3.org/1999/xlink" x="0px" y="0px"
	 viewBox="0 0 2426.5 723.8" style="enable-background:new 0 0 2426.5 723.8;" xml:space="preserve">
<path style="fill:#49A956;" d="M2212,3.7l-317.9,0.1l-83.9,334.2c-0.2-10.1-1.1-20.1-3.6-35c-2.5-14.9-6.7-34.5-11.1-50.9
	c-3.9-15-9.1-29.6-15.6-43.6c-7.5-16.4-16.5-32-26.8-46.8c-12.6-17.9-26.4-35-41.2-51.2c-12-13.2-25.3-25.1-39.8-35.4
	c-15.5-11.3-35.5-24.3-55.7-34.2c-20.2-10-40.7-16.9-56.9-21.7s-28.3-7.4-42.1-9.7c-12.9-2-25.9-3.7-39-5.1
	c-9.5-1-12.9-0.9-16.4-0.9L1214.9,4l0.1,398.5c-4.9-11.7-10.6-23.2-17-34.2c-10.3-16.8-22.8-32.2-37.1-45.8
	c-13.9-13.2-29-23.8-50.2-34.3c-21.2-10.5-48.6-20.7-76.3-28.3c-27.7-7.6-55.8-11.8-84.1-14.6l-42.3-4.1c-7.3-0.2-14.5-2-21-5.2
	c-6.8-3.3-13.1-8.2-17.2-12.8c-4-4.6-5.7-8.8-6.7-13.1c-2.2-9.6-0.4-20.1,5.4-27.7c3.2-4.1,7.2-7.5,11.8-9.9c4.5-2.5,9.3-4.1,20-5.6
	c10.8-1.5,27.5-2.8,44.6-2.3c17.1,0.5,34.5,2.8,53.9,6.8c19.4,4,40.8,9.9,57.5,15.1c16.8,5.3,28.9,10,40.7,15.5l81-150.3
	c-9.6-5.9-19.8-10.9-37.8-17.8c-18-7-43.8-15.9-72.5-22.5c-30.5-6.9-61.6-10.8-92.8-11.5c-32.4-0.7-65.5,2-90.3,4.9
	c-24.8,2.9-41.2,5.8-63.6,13.4c-22.4,7.6-50.6,19.8-73,34.1S709.2,83,698.7,94.2c-10.5,11.2-14.9,17.5-20.6,27
	c-6.9,11.5-12.9,23.4-18.2,35.7c-5.4,12.8-9.6,26.2-12.5,39.8c-5.6,26.2-5.6,51.6-0.1,80.1c2.7,14.2,6.9,29,13.4,43.1
	c6.5,14.1,15.5,27.4,24.4,38.3c8.3,10,17.5,19.1,27.4,27.3c9.5,8,19.4,15.4,37.9,24.3c18.5,8.9,45.6,19.3,66,25.9
	c20.4,6.7,34.1,9.6,47.8,12.2c13.7,2.6,27.5,4.8,36.5,6.2c6.2,1,12.5,1.8,18.8,2.5c5.4,0.6,12.1,1.3,18.5,3.4
	c6.5,2.2,12.7,5.8,17.2,10.1c4.4,4.3,7,9.1,8.9,14s2.9,10,2.6,16.5c-0.4,7.2-2,14.2-4.6,20.9c-2.5,6.4-5.9,11.1-11.2,15.6
	c-5.3,4.5-12.5,8.9-18.8,11.4c-6.3,2.5-11.8,3-21.9,2.1c-10.1-0.9-24.9-3.3-34.9-5.3c-10.1-2-15.4-3.8-20.5-6.1
	c-21.5-8.5-43-17-63.9-26.7c-20.9-9.8-41.2-20.8-61.5-31.8l-57.2,93.9L504.4,4.6L188.9,4.4L0,722.1l219.6-0.4l36.3-146.1l204.6,0
	l40.8,146.4l212.1-0.6l-14.7-50c5.4,3.1,11,5.9,24,11.6c19.3,8.6,39.2,15.9,59.4,21.9c25.9,7.5,57.3,14,85.9,16.9
	c28.6,2.9,54.5,2.2,76.1,0.1c18.8-1.7,37.5-5,55.9-9.7c33.5-8.6,65.7-19.6,99.3-37.9c17.1-9.4,33.3-20.3,48.5-32.6
	c13.2-11,25.5-23.1,36.7-36.1c6.7-7.6,12.9-15.8,18.3-24.4c4.6-7.2,8.9-14.5,12.8-22l0.5,163.6c91.4-0.5,182.7-0.1,274.1-0.2
	c4.9,0.3,9.9,0.1,20.6-1.4c15.8-2.2,31.4-5.5,46.8-9.8c21.6-6.1,42.6-13.8,63-23c19.1-8.7,37.5-19,54.8-30.9
	c15.1-10.3,29.3-21.8,42.6-34.5c13.8-13.2,26.8-27.2,38.9-42l-33.8,140l208.9,0.2l39.8-146l199.2,0.3l46.6,145.6l208.9,0.1L2212,3.7
	L2212,3.7z M295,421.5l53.8-224.9l65.4,225.3L295,421.5L295,421.5z M1597,366.9c-0.3,18.1-2.9,40.4-9.2,60.8
	c-6.2,20.4-16.1,39.1-24.7,51.6c-8.6,12.6-16.1,19.2-26,25.3s-22.3,11.8-32.4,15c-10.1,3.1-17.8,3.7-26.6,4c-18,0.4-39.2-0.1-59-0.3
	l-0.1-326.1c6.3-0.3,12.7-0.4,21.8-0.6c9.1-0.1,21-0.2,35.6,2.6c14.6,2.9,32.1,8.7,43.9,13.9s18,9.7,27.1,20.9
	c9.1,11.1,21.3,28.9,29.4,44.5c8.2,15.6,12.3,29,15.4,42.7C1595.3,334.8,1597.3,348.8,1597,366.9z M2005.7,422.1l56.3-227.8
	l61.3,227.8H2005.7z"/>
</svg>
