<?xml version="1.0" encoding="utf-8"?>
<svg version="1.1" id="Layer_1" xmlns="http://www.w3.org/2000/svg" xmlns:xlink="http://www.w3.org/1999/xlink" x="0px" y="0px"
	 viewBox="0 0 1920 437.4" style="enable-background:new 0 0 1920 437.4;" xml:space="preserve">
<g>
	<path d="M600.6,229.4h-66.2L522.1,260H472l70-182.5h51.7L662.4,260h-50.6L600.6,229.4z M588,193.3l-20.5-59.1l-20,59.1L588,193.3z
		 M817.8,260H671.4l46.2-48.4c16.4-17.2,28.7-32.3,37.5-46.2c4.9-7.7,9.8-16.7,9.8-28.5c0-2,0-11.5-5.5-17.5
		c-3.5-3.6-8.4-5.6-13.4-5.5c-6.2-0.2-12,2.6-15.9,7.4c-4.4,5.8-6.3,16.1-6.6,22.4h-49c-0.1-18.9,7.2-37,20.2-50.6
		c12.3-12.3,29-19.7,51.7-19.7c27.4,0,43.2,10.7,51.4,18.9c7.4,7.4,17.8,21.3,17.8,44.9c0,23-10.7,38.8-27.1,54.2l-30.6,28.5h59.6
		L817.8,260z M1021.3,152.3V79.6h22.5V260h-22.5v-86.6h-85.9V260h-22.5V79.6h22.5v72.8H1021.3z M1158.2,75.7
		c12.6-0.1,25.1,2.5,36.6,7.4c11.2,4.8,21.3,11.6,30,20.2c8.6,8.6,15.5,18.8,20.3,30c5.1,11.5,7.7,23.9,7.6,36.4
		c0.5,38.1-22.4,72.5-57.7,86.9c-35.4,14.7-76.3,7-103.8-19.7c-17.9-17.7-27.8-41.9-27.6-67.1c-0.1-12.6,2.5-25,7.5-36.5
		c4.9-11.2,11.8-21.3,20.3-30c8.6-8.6,18.8-15.5,30-20.2C1133.2,78.1,1145.6,75.6,1158.2,75.7L1158.2,75.7z M1158.2,242.8
		c9.5,0,18.9-1.9,27.6-5.6c8.6-3.7,16.4-8.9,23-15.4c6.7-6.6,12-14.5,15.7-23.1c3.9-9.1,5.9-19,5.8-28.9c0-9.6-1.8-19.1-5.3-28
		c-3.4-8.6-8.4-16.5-14.8-23.2c-28-28.7-74-29.2-102.6-1.2c-0.4,0.4-0.8,0.8-1.2,1.2c-6.4,6.7-11.5,14.6-14.9,23.2
		c-3.5,8.9-5.3,18.4-5.3,28c-0.1,9.9,1.9,19.7,5.8,28.8c3.7,8.6,9,16.5,15.7,23.1c6.6,6.5,14.4,11.8,23,15.4
		C1139.3,240.9,1148.7,242.8,1158.2,242.8L1158.2,242.8z M1354.7,113.8c-2.9-5.1-7-9.4-11.8-12.7c-5.2-3-11.1-4.5-17.1-4.3
		c-3.7,0-7.4,0.6-10.9,1.8c-3.5,1.2-6.8,2.9-9.7,5.2c-2.8,2.2-5.2,4.9-6.9,8c-1.8,3.3-2.7,6.9-2.6,10.6c-0.1,3.3,0.8,6.5,2.4,9.3
		c1.6,2.7,3.6,5.1,6,7.2c2.4,2.1,5.1,3.9,8,5.4c2.8,1.5,5.8,2.8,8.7,4l12.9,5c6.1,2.4,12.1,5.2,17.9,8.3c5.3,3,10.1,6.7,14.2,11.2
		c4,4.4,7.2,9.4,9.3,15c2.3,6.3,3.5,13,3.4,19.7c0.1,7.8-1.4,15.5-4.4,22.6c-2.8,6.7-7,12.8-12.2,17.8c-5.3,5-11.5,9-18.3,11.6
		c-7.2,2.8-15,4.3-22.7,4.2c-13.8,0.1-27.2-5-37.5-14.3c-4.9-4.6-9-10-12.1-16c-3.2-6.3-5.3-13.1-6.2-20.1l22.7-4.8
		c0,4.7,0.9,9.4,2.6,13.8c1.7,4.1,4.2,7.8,7.4,10.9c3.2,3.1,7.1,5.5,11.2,7c4.3,1.7,9,2.5,13.6,2.5c4.6,0,9.1-0.9,13.3-2.9
		c4-1.8,7.5-4.5,10.5-7.7c3-3.2,5.3-7,6.9-11.1c1.7-4.3,2.5-8.9,2.5-13.5c0.1-4.3-0.8-8.6-2.6-12.6c-1.7-3.6-4.1-6.8-7.1-9.5
		c-3-2.7-6.4-5-10-6.9c-3.8-2-7.5-3.8-11.4-5.4l-12.4-5.3c-5.1-2.2-10.1-4.7-14.8-7.3c-4.6-2.5-8.8-5.7-12.6-9.3
		c-3.6-3.6-6.5-7.9-8.6-12.6c-2.2-5.2-3.3-10.8-3.2-16.5c-0.1-6.8,1.4-13.5,4.4-19.6c2.9-5.6,6.9-10.6,11.8-14.6
		c5.1-4.1,10.8-7.2,17-9.2c6.4-2.2,13.2-3.3,20-3.2c9.5-0.1,18.8,2.3,27,7c8.2,4.9,14.8,11.9,19.4,20.2L1354.7,113.8z M1451.6,260
		h-22.4V100.2h-42.8V79.6h108.2v20.6h-42.9V260z M1534,260h-22.5V79.6h22.5L1534,260z M1565.6,70.9L1701,212.9V79.6h22.5v187.9
		l-135.5-141.9V260h-22.5L1565.6,70.9z M1920,169.1v7.2c0.1,11.8-2,23.5-6.2,34.6c-4,10.3-9.9,19.8-17.6,27.8
		c-7.7,8-16.9,14.3-27,18.5c-11,4.6-22.7,6.8-34.6,6.7c-12.3,0.1-24.4-2.5-35.5-7.5c-10.9-4.9-20.7-11.8-29-20.5
		c-8.3-8.7-14.9-18.9-19.5-30c-4.8-11.3-7.2-23.4-7.2-35.7c-0.1-12.6,2.4-25,7.3-36.6c4.7-11.2,11.5-21.5,20-30.2
		c8.5-8.7,18.6-15.6,29.8-20.3c11.5-5,24-7.5,36.5-7.4c14,0,27.9,3.1,40.6,9.1c12.8,5.9,24.1,14.8,32.9,25.9l-15.8,15.1
		c-6.7-8.9-15.2-16.1-25-21.3c-9.7-5.3-20.6-8.1-31.7-8.1c-9.7-0.1-19.3,1.9-28.2,5.8c-8.6,3.7-16.3,9-22.9,15.7
		c-6.5,6.7-11.7,14.7-15.3,23.3c-3.8,9-5.7,18.7-5.6,28.5c0,9.4,1.9,18.7,5.5,27.4c3.6,8.7,8.6,16.7,15,23.6
		c6.3,6.9,13.9,12.5,22.3,16.5c8.5,4.1,17.9,6.3,27.4,6.2c7.2,0,14.3-1.5,20.9-4.2c6.9-2.7,13.2-6.6,18.8-11.5
		c5.6-4.8,10.2-10.6,13.6-17.1c3.5-6.4,5.4-13.5,5.8-20.8h-46.7v-20.6L1920,169.1z"/>
	<g>
		<path id="B" d="M549,346.7c0,20.3-16.5,36.1-37.7,36.1s-37.7-15.8-37.7-36.1s16.5-35.9,37.7-35.9C532.5,310.8,549,326.4,549,346.7
			z M485.8,346.7c0.1,14.1,11.6,25.4,25.6,25.3c13.9-0.2,25-11.7,24.8-25.6c-0.2-13.9-11.7-25-25.6-24.8
			C496.9,321.8,485.8,333,485.8,346.7L485.8,346.7z"/>
	</g>
	<g>
		<path id="C" d="M622.3,352.8c0,18.6-11.7,30-30.9,30s-31-11.4-31-30v-41.7h12v41.7c0,12,7.4,19.2,19.1,19.2s18.8-7.1,18.8-19.2
			v-41.7h12L622.3,352.8z"/>
	</g>
	<path d="M671.6,360.7c-1,0.1-2.1,0.1-3.3,0.1h-16.9v21.4h-12v-71.1h28.9c18.2,0,28.7,8.8,28.7,24.3c0,11.4-5.3,19.4-14.7,23.1
		l16,23.8h-13.6L671.6,360.7z M668.3,350.1c11,0,17.3-4.7,17.3-14.3c0-9.3-6.3-13.8-17.3-13.8h-16.9v28.2L668.3,350.1z M787.4,318
		l-5,10.6c-6.3-4-13.4-6.3-20.8-6.6c-7,0-11.6,2.6-11.6,7.4c0,15.6,38.4,7.2,38.3,32.8c0,12.7-11.2,20.5-26.8,20.5
		c-10.7-0.1-21.1-4.1-29.1-11.3l5.2-10.4c6.5,6.2,15.1,9.9,24.1,10.4c8.3,0,13.3-3.2,13.3-8.6c0-15.9-38.4-7-38.4-32.3
		c0-12.2,10.5-19.8,26-19.8C771.4,310.6,780,313.2,787.4,318L787.4,318z M830.7,311.1c18,0,28.2,8.8,28.2,24.3
		c0,16-10.3,25.4-28.2,25.4h-16.4v21.4h-12v-71.2H830.7z M814.4,350.1h15.9c11,0,17.2-4.7,17.2-14.3c0-9.3-6.2-13.8-17.2-13.8h-15.9
		V350.1z M882.8,321.9v19.2h34.8v10.8h-34.8v19.6h40.1v10.8h-52.1v-71.2h50.8v10.8L882.8,321.9z M949.4,321.9v19.2h34.8v10.8h-34.8
		v19.6h40.1v10.8h-52v-71.2h50.9v10.8L949.4,321.9z M1033.3,311.1c21.3,0,36.8,14.9,36.8,35.6c0,20.6-15.6,35.6-37.1,35.6h-28.9
		v-71.2L1033.3,311.1z M1016.1,371.5h17.5c13.2,0.2,24.2-10.3,24.4-23.5c0-0.4,0-0.8,0-1.2c0.4-13.4-10.2-24.5-23.6-24.9
		c-0.4,0-0.9,0-1.3,0h-17L1016.1,371.5z M1090.8,376.5c0,1.9-0.7,3.8-1.8,5.4l-5.8,8.7h-6l3.9-8.8c-3-1.9-3.9-5.8-2-8.8
		c1.9-3,5.8-3.9,8.8-2C1089.7,372.1,1090.9,374.2,1090.8,376.5L1090.8,376.5z M1160.1,382.3h-12V359l-26.5-47.9h12.1l20.4,34.7
		l20-34.7h12.2l-26.2,47.5V382.3z"/>
	<g>
		<path id="B_1_" d="M1262.1,346.7c0,20.3-16.5,36.1-37.7,36.1c-21.2,0-37.7-15.8-37.7-36.1s16.5-35.9,37.7-35.9
			C1245.6,310.8,1262.1,326.4,1262.1,346.7z M1198.9,346.7c0.1,14.1,11.6,25.4,25.6,25.3c13.9-0.2,25-11.7,24.8-25.6
			c-0.2-13.9-11.7-25-25.6-24.8C1210,321.8,1199,333,1198.9,346.7L1198.9,346.7z"/>
	</g>
	<path d="M1335.4,352.8c0,18.6-11.7,30-30.9,30s-31-11.4-31-30v-41.7h12v41.7c0,12,7.4,19.2,19.1,19.2c11.7,0,18.8-7.1,18.8-19.2
		v-41.7h12L1335.4,352.8z M1384.7,360.7c-1,0.1-2.1,0.1-3.3,0.1h-16.9v21.4h-12v-71.1h28.9c18.2,0,28.7,8.8,28.7,24.3
		c0,11.4-5.3,19.4-14.7,23.1l16,23.8h-13.7L1384.7,360.7z M1381.4,350.1c11,0,17.3-4.7,17.3-14.3c0-9.3-6.3-13.8-17.3-13.8h-16.9
		v28.2L1381.4,350.1z M1500.6,318l-5,10.6c-6.3-4-13.4-6.3-20.8-6.6c-7,0-11.6,2.6-11.6,7.4c0,15.6,38.4,7.2,38.3,32.8
		c0,12.7-11.2,20.5-26.8,20.5c-10.7-0.1-21.1-4.1-29-11.3l5.2-10.4c6.5,6.2,15,9.9,24,10.4c8.3,0,13.3-3.2,13.3-8.6
		c0-15.9-38.4-7-38.4-32.3c0-12.2,10.5-19.8,26-19.8C1484.5,310.6,1493.1,313.2,1500.6,318L1500.6,318z"/>
	<g>
		<path id="C_1_" d="M1576,352.8c0,18.6-11.7,30-30.9,30s-31-11.4-31-30v-41.7h12v41.7c0,12,7.4,19.2,19.1,19.2s18.8-7.1,18.8-19.2
			v-41.7h12L1576,352.8z"/>
	</g>
	<path d="M1651.7,321.8l-7,8.7c-5.1-5.6-12.3-8.9-19.8-9c-13.8,0-25.1,11.2-25.1,25.1s11.2,25.1,25.1,25.1
		c7.4-0.2,14.5-3.2,19.8-8.4l7.1,8c-7.3,7.3-17.2,11.5-27.5,11.7c-20.8,0-37-15.8-37-36.2c0-20.4,16.4-35.8,37.4-35.8
		C1634.7,310.9,1644.4,314.8,1651.7,321.8L1651.7,321.8z M1721,321.8l-7,8.7c-5.1-5.6-12.3-8.9-19.8-9.1
		c-13.8,0-25.1,11.2-25.1,25.1s11.2,25.1,25.1,25.1l0,0c7.4-0.2,14.5-3.2,19.8-8.4l7.1,8c-7.3,7.3-17.2,11.5-27.5,11.7
		c-20.8,0-37-15.8-37-36.2c0-20.4,16.4-35.8,37.4-35.8C1704.1,310.9,1713.8,314.8,1721,321.8L1721,321.8z M1745.3,321.9v19.2h34.8
		v10.8h-34.8v19.6h40.1v10.8h-52.1v-71.2h50.8v10.8L1745.3,321.9z"/>
	<g>
		<path id="D" d="M1848.3,318l-5,10.6c-6.3-4-13.4-6.3-20.8-6.6c-7,0-11.6,2.6-11.6,7.4c0,15.6,38.4,7.2,38.3,32.8
			c0,12.7-11.2,20.5-26.8,20.5c-10.8-0.1-21.1-4.1-29.1-11.3l5.2-10.4c6.5,6.2,15.1,9.9,24.1,10.4c8.3,0,13.3-3.2,13.3-8.6
			c0-15.9-38.4-7-38.4-32.3c0-12.2,10.5-19.8,26-19.8C1832.2,310.6,1840.9,313.2,1848.3,318L1848.3,318z"/>
	</g>
	<g>
		<path id="D_1_" d="M1911.5,318l-5,10.6c-6.3-4-13.4-6.3-20.8-6.6c-7,0-11.6,2.6-11.6,7.4c0,15.6,38.4,7.2,38.3,32.8
			c0,12.7-11.2,20.5-26.8,20.5c-10.8-0.1-21.1-4.1-29.1-11.3l5.2-10.4c6.5,6.2,15.1,9.9,24.1,10.4c8.3,0,13.3-3.2,13.3-8.6
			c0-15.9-38.4-7-38.4-32.3c0-12.2,10.5-19.8,26-19.8C1895.5,310.6,1904.1,313.2,1911.5,318L1911.5,318z"/>
	</g>
	
		<linearGradient id="SVGID_1_" gradientUnits="userSpaceOnUse" x1="94.5835" y1="834.6721" x2="94.5835" y2="615.6196" gradientTransform="matrix(1.9967 0 0 -1.9967 0.9955 1666.5839)">
		<stop  offset="0" style="stop-color:#89C23E"/>
		<stop  offset="1" style="stop-color:#41691A"/>
	</linearGradient>
	<path style="fill:url(#SVGID_1_);" d="M67.9,11.6l13.2,87.1c0,0,56.1-29.7,121.4-13.9s71.2,65.3,66.3,89.7s-16.8,57.4-96.6,99.3
		l83.4,14.2l-9.2,54.4L71.1,313.7l5.3-41.2c0,0,65.7-31.3,92.5-57.1s43.9-48.5,27.5-70.3S98.2,132,55.9,170.5S-4.4,253,0.9,301.5
		S38.8,399.1,103.2,408c64.3,8.9,103.8-9.2,130-30.7l1,40.9l111.2,19.1c0,0,7.6-102.9,12.9-132.3s29.7-114.1,18.8-177.7
		C366.1,63.8,312.9-33.6,67.9,11.6z"/>
</g>
</svg>
