<?xml version="1.0" encoding="utf-8"?>
<svg version="1.1" id="Layer_1" xmlns="http://www.w3.org/2000/svg" xmlns:xlink="http://www.w3.org/1999/xlink" x="0px" y="0px"
	width="100px" height="100px" viewBox="0 0 66.7 66.7" style="enable-background:new 0 0 66.7 66.7;" xml:space="preserve">
<g>
	<circle style="fill:#E8E8E8;" cx="33.3" cy="33.3" r="33.3"/>
	<circle style="fill:#FFFFFF;" cx="33.3" cy="33.3" r="32.7"/>
	<path style="fill:#CB3032;" d="M56.1,38h-0.5c0-4.3-3.5-7.9-8-7.9v-0.5C52.2,29.5,56.1,33.3,56.1,38z M56.5,35.1
		c-0.7-2.7-2.9-5-5.7-5.8l0.1-0.4c2.9,0.8,5.2,3.3,5.9,6.1L56.5,35.1z M56.9,32.5c-0.7-1.5-1.8-2.7-3.2-3.6l0.2-0.3
		c1.5,0.9,2.7,2.2,3.3,3.7C57.2,32.4,56.9,32.5,56.9,32.5z"/>
	<path style="fill:#1B171B;" d="M9.7,36.7c0.3,0.1,0.7,0.3,1.1,0.3s0.5-0.1,0.5-0.3s-0.1-0.3-0.6-0.5C9.9,36,9.5,35.5,9.5,35
		c0-0.8,0.7-1.4,1.7-1.4c0.4,0,0.8,0.1,1.2,0.3l-0.3,0.9c-0.2-0.1-0.5-0.3-0.9-0.3c-0.3,0-0.5,0.1-0.5,0.3c0,0.2,0.1,0.3,0.7,0.5
		c0.8,0.3,1.1,0.7,1.1,1.3c0,0.8-0.6,1.4-1.9,1.4c-0.5,0-1-0.1-1.4-0.3C9.3,37.8,9.7,36.7,9.7,36.7z M17.3,35.7
		c0,1.5-1.1,2.3-2.3,2.3c-1.2,0-2.2-0.8-2.2-2.2s0.9-2.3,2.3-2.3S17.3,34.5,17.3,35.7L17.3,35.7z M14.3,35.7c0,0.7,0.3,1.3,0.9,1.3
		c0.5,0,0.8-0.5,0.8-1.3c0-0.7-0.3-1.3-0.8-1.3C14.5,34.5,14.3,35.1,14.3,35.7z M17.8,35v-1.3h1.1l0.1,0.5l0,0
		c0.1-0.2,0.7-0.7,1.3-0.7c0.9,0,1.5,0.6,1.5,1.9v2.5h-1.4v-2.3c0-0.5-0.1-0.9-0.7-0.9c-0.4,0-0.5,0.3-0.7,0.5c-0.1,0.1,0,0.2,0,0.3
		v2.5h-1.4C17.7,37.9,17.8,35,17.8,35z M25,37.9l-0.1-0.5l0,0c-0.3,0.4-0.7,0.5-1.2,0.5c-0.9,0-1.4-0.6-1.4-1.3c0-1.1,1-1.6,2.5-1.6
		v-0.1c0-0.2-0.1-0.5-0.8-0.5c-0.4,0-0.9,0.1-1.2,0.3l-0.3-0.9c0.5-0.3,1.1-0.4,1.7-0.4c1.4,0,1.9,0.8,1.9,1.8v1.5v1.1L25,37.9
		L25,37.9C25,37.9,25,37.9,25,37.9z M24.9,35.9c-0.7,0-1.2,0.1-1.2,0.7c0,0.3,0.2,0.5,0.5,0.5c0.3,0,0.6-0.2,0.7-0.5v-0.2V35.9
		C24.8,35.9,24.9,35.9,24.9,35.9z M26.9,35.1v-1.4H28l0.1,0.7l0,0c0.2-0.7,0.7-0.9,1.1-0.9h0.3v1.2h-0.3c-0.4,0-0.8,0.3-0.9,0.7v0.3
		v2.1h-1.3C26.9,37.8,26.9,35.1,26.9,35.1z M29.8,37.1c0.2,0.1,0.6,0.3,1,0.3c0.5,0,0.8-0.3,0.8-0.6c0-0.4-0.2-0.5-0.8-0.8
		c-0.7-0.3-1.1-0.7-1.1-1.2c0-0.7,0.5-1.2,1.5-1.2c0.4,0,0.8,0.1,1.1,0.3L32,34.5c-0.1-0.1-0.5-0.3-0.9-0.3c-0.5,0-0.7,0.3-0.7,0.5
		c0,0.3,0.3,0.5,0.8,0.7c0.7,0.3,1.1,0.7,1.1,1.3c0,0.7-0.5,1.3-1.6,1.3c-0.5,0-0.9-0.1-1.2-0.3L29.8,37.1L29.8,37.1z M36.8,35.7
		c0,1.5-1.1,2.2-2.1,2.2c-1.1,0-2-0.8-2-2.2s0.9-2.2,2.1-2.2C36,33.6,36.8,34.5,36.8,35.7z M33.5,35.8c0,0.9,0.5,1.6,1.3,1.6
		s1.3-0.7,1.3-1.7c0-0.7-0.3-1.6-1.3-1.6C33.9,34.1,33.5,35,33.5,35.8z M41,36.7v1.1h-0.7l-0.1-0.7l0,0c-0.2,0.3-0.6,0.7-1.4,0.7
		c-0.7,0-1.4-0.4-1.4-1.9v-2.5h0.7V36c0,0.8,0.2,1.3,0.9,1.3c0.5,0,0.9-0.3,1-0.7c0.1-0.1,0.1-0.3,0.1-0.4v-2.6h0.7L41,36.7L41,36.7
		C41,36.8,41,36.7,41,36.7z M41.9,35v-1.3h0.7v0.9l0,0c0.2-0.5,0.6-0.9,1.1-0.9h0.2v0.7h-0.3c-0.5,0-0.9,0.4-1,1v0.3V38h-0.7V35z
		 M47.3,37.7c-0.2,0.1-0.7,0.3-1.2,0.3c-1.3,0-2.1-0.9-2.1-2.1s0.9-2.2,2.3-2.2c0.5,0,0.9,0.1,1.1,0.2l-0.2,0.6
		c-0.2-0.1-0.5-0.2-0.9-0.2c-1,0-1.5,0.7-1.5,1.6c0,1,0.6,1.6,1.5,1.6c0.4,0,0.7-0.1,0.9-0.2C47.3,37.3,47.3,37.7,47.3,37.7z
		 M48.2,35.9c0,1.1,0.7,1.5,1.5,1.5c0.5,0,0.9-0.1,1.1-0.2l0.1,0.5c-0.3,0.1-0.7,0.3-1.4,0.3c-1.3,0-2.1-0.9-2.1-2.1s0.7-2.3,2-2.3
		c1.4,0,1.7,1.2,1.7,2v0.3C51.2,35.9,48.2,35.9,48.2,35.9z M50.5,35.4c0-0.5-0.2-1.2-1.1-1.2c-0.8,0-1.1,0.7-1.2,1.2H50.5z"/>
</g>
</svg>
