<?xml version="1.0" encoding="utf-8"?>
<svg version="1.1" id="Layer_1" xmlns="http://www.w3.org/2000/svg" xmlns:xlink="http://www.w3.org/1999/xlink" x="0px" y="0px"
	width="100px" height="100px" viewBox="0 0 72.2 72.2" style="enable-background:new 0 0 72.2 72.2;" xml:space="preserve">
<g>
	<circle style="fill:#E8E8E8;" cx="36.1" cy="36.1" r="36.1"/>
	<circle style="fill:#FFFFFF;" cx="36.1" cy="36.1" r="35.4"/>
	<path style="fill:#11793D;" d="M58.7,47l-1.6-1.5l-0.2-0.2l-1.4-1.3l-6.4-6.2l-9.6-9.4l-0.1-0.1l-1.9-1.9l-0.8-0.8l-0.1-0.1
		l-0.1-0.1c-0.1-0.1-0.1-0.1-0.2-0.1c0,0-0.1-0.1-0.1,0c-0.1,0-0.1,0.1-0.1,0.1c-0.1,0.1-0.1,0.1-0.1,0.1l-0.1,0.1l-0.8,0.8
		l-2.2,2.2l-0.1,0.1h-0.1l-9.4,9.1l-4,3.9l-2.5,2.3l-1.7,1.6l0,0l-0.1,0.1L13.4,47c0,0-0.8,0.6,0.1,0.6H30h6.1h22.4
		C59.5,47.6,58.7,47,58.7,47z M56.8,46.9h-3.1l-1.4-1.3l-1.6-1.4h-3l0.5,1.4l0.5,1.3h-2.5l-0.3-1.3L45.5,44l-1.2-5.4l1.7-0.1L53,44
		l2,1.6C55.1,45.6,56.8,46.9,56.8,46.9z M29.4,45.6l0.1-1.6l0.2-5.6l1.9-0.1l0.3,4.7l2.6-4.6l1.7-0.1L33.5,44l-0.7,1.6l-0.5,1.2h-3
		V45.6z M37.2,40.5L37,38.6v-0.1l1.9-0.1l1.3,5.6l0.1,0.6h4l0.5,1l0.6,1.2h-7.7l-0.1-1.2l-0.1-1.6L37.2,40.5L37.2,40.5z M37.2,28.6
		l0.1,0.6h-2.5l0.1-0.6l0.3-1.2h1.6C36.9,27.3,37.2,28.6,37.2,28.6z M38.2,32.7h-4.1l0.6-2.9l2.7,0.1C37.4,29.9,38.2,32.7,38.2,32.7
		z M33.8,33.5l4.5,0.1l0.8,3.7H33L33.8,33.5z M35.6,26h1.2v0.4v0.4h-1.4l0.1-0.4C35.5,26.3,35.6,26,35.6,26z M23.8,38.2l3.8,0.2
		c0,0,2.5,0.5,0.1,4c0,0-0.5,0.7-1.4,1.6c-0.5,0.5-1.2,1.1-2.2,1.6c-0.9,0.5-1.9,0.9-3,1.1h-5.8c0,0-0.4-0.3,0-0.3l0.8-0.8l1.6-1.6
		L23.8,38.2z M47.1,42.4l1.5-0.1l-2.2-2L47.1,42.4z M22.7,43.9c0.6-0.1,1.3-0.5,1.9-1.2c0,0,2.2-1.9,1.7-3.2l-1.6-0.1l-4,4.4
		l-0.1,0.1C20.6,44.2,21.6,44.3,22.7,43.9z M61.2,48l-4-4l-0.1-0.1L57,43.8l0,0l-4-4l-2-2.1L39.5,26.3l-0.1-0.1l-0.6-0.6l-0.1-0.1
		l-2.3-2.3c-0.1-0.1-0.1-0.1-0.2-0.1h-0.2c-0.1,0-0.1,0.1-0.2,0.1l-2.3,2.3l-0.1,0.1l-0.8,0.8l-0.1,0.1l0,0L21.2,37.7l-1.9,1.9
		l-4.2,4.3l-0.1,0.1L11,47.9c-0.7,1.2,0.6,1.2,0.6,1.2h24.4h24.5C60.5,49.3,61.9,49.2,61.2,48z M59.7,48.8H35.9l0,0H12.5
		c0,0-1.4-0.1-0.6-1.2l3-3l0.1-0.1l0.5-0.5l6.3-6.2l10.6-10.5l0.1-0.1l0.9-0.9l0.9-0.9l0.1-0.1l1.4-1.4c0-0.1,0.1-0.1,0.2-0.1h0.1
		c0.1,0,0.1,0,0.2,0.1l1.4,1.4l0.1,0.1l0.9,0.9l0.6,0.6l0.1,0.1l10.9,10.7l6.3,6.2l0.1,0.1l0.2,0.2l3.2,3.2
		C61.1,48.7,59.7,48.8,59.7,48.8L59.7,48.8z"/>
</g>
</svg>
