<?xml version="1.0" encoding="utf-8"?>
<svg version="1.1" id="Layer_1" xmlns="http://www.w3.org/2000/svg" xmlns:xlink="http://www.w3.org/1999/xlink" x="0px" y="0px"
	width="100px" height="100px" viewBox="0 0 66.7 66.7" style="enable-background:new 0 0 66.7 66.7;" xml:space="preserve">
<g>
	<circle style="fill:#E8E8E8;" cx="33.3" cy="33.3" r="33.3"/>
	<circle style="fill:#FFFFFF;" cx="33.3" cy="33.3" r="32.7"/>
	<path style="fill:#2CDF72;" d="M29.4,27l7.3-10.5c1.4-2,3.1-3,5.3-3c1.8,0,3.3,0.7,4.6,1.9c1.3,1.3,1.9,2.8,1.9,4.5
		c0,1.3-0.3,2.5-1,3.5L41,32.9l8,10.2c0.8,1,1.2,2.2,1.2,3.5c0,1.8-0.6,3.3-1.9,4.6c-1.3,1.3-2.8,1.9-4.6,1.9
		c-1.9,0-3.5-0.7-4.5-1.9L29.3,39v6.7c0,1.9-0.3,3.4-1,4.5c-1.2,1.9-3,2.9-5.3,2.9c-2.1,0-3.7-0.7-4.9-2.1c-1.1-1.3-1.6-3.1-1.6-5.3
		v-25c0-2.1,0.5-3.7,1.7-5.1c1.1-1.4,2.7-2.1,4.8-2.1c1.9,0,3.6,0.7,4.9,2.1c0.7,0.8,1.2,1.6,1.4,2.4c0.1,0.5,0.1,1.4,0.1,2.8
		L29.4,27"/>
</g>
</svg>
