<?xml version="1.0" encoding="utf-8"?>
<svg version="1.1" id="Layer_1" xmlns="http://www.w3.org/2000/svg" xmlns:xlink="http://www.w3.org/1999/xlink" x="0px" y="0px"
	 viewBox="0 0 232.6 58.9" style="enable-background:new 0 0 232.6 58.9;" xml:space="preserve">
<g>
	<path style="fill:#121526;" d="M42.8,49.7c-1.3,1.5-3,2.7-4.9,3.5c-1.7,0.7-4.7,1.1-9.1,1.1h-3.5c-3.7,0-6.5,0-7.2-0.4
		c-0.6-0.3-1.2-0.8-1.6-1.4c-0.5-0.9-0.7-2.6-0.7-4.9V10.9c0-3.3,0.2-5.4,0.7-6.3c0.5-1,1.4-1.8,2.4-2.3C20.1,1.6,22,1.4,25,1.4V0H0
		v1.4h1.9c2.3,0,3.8,0.7,4.9,1.9C7.7,4.2,8,6.4,8,9.9v37.2c0,3.1-0.4,5.2-0.9,6.1c-1.1,1.6-2.3,2.3-4.7,2.3H0.3v1.6h43.2l4.9-14.9
		L47,41.8C46.2,44.8,44.7,47.5,42.8,49.7z"/>
	<path style="fill:#121526;" d="M80.7,1.6c0.2,0.1,0.5,0.2,0.7,0.2c1.6,0.2,3,0.7,4.4,1.6C86.6,3.9,87,4.8,87,5.7
		c0,1.2-0.7,3.5-1.9,6.8l-13.5,33L57.3,12.2c-1.2-3-1.9-5.2-1.9-6.6c0-1,0.5-1.8,1.2-2.4c0.8-0.7,1.6-1.2,4.2-1.4V0.2H39.1v1.6
		c1.2,0,2.4,0.3,3.5,0.9c1,0.5,1.9,1.2,2.6,2.1c0.9,1.5,1.6,3.1,2.3,4.7l21,49.4h1.7L90,10c0.8-2.3,2.1-4.5,3.8-6.3
		c1-1,2.4-1.7,3.8-1.9V0.2H80.7L80.7,1.6z"/>
	<path style="fill:#121526;" d="M136.3,44.8L115.9,0.1H101v1.4c1.6-0.1,3.2,0.2,4.7,0.9c1,0.7,1.7,1.2,2.1,2.1
		c0.7,1.7,1,3.6,0.9,5.4v37.6c0,3.1-0.2,5.2-0.9,6.1c-0.9,1.4-2.6,2.1-5.1,2.1h-3.3v1.6h20.1v-1.6h-2.1c-2.3,0-3.5-0.5-4.6-1.7
		c-0.9-0.9-1.2-3-1.2-6.5V9.7l21.5,47.5h1.4l21.9-48.1v38.3c0,3.1-0.2,5.2-0.9,6.1c-0.9,1.4-2.6,2.1-5.1,2.1h-1.7v1.6h23.1v-1.6
		h-1.6c-2.3,0-3.7-0.5-4.7-1.7c-0.9-0.9-1.2-3-1.2-6.5V9.9c0-3.1,0.4-5.2,1.1-6.1c0.9-1.4,2.3-2.1,4.7-2.1h1.9V0.1h-15.4L136.3,44.8
		z"/>
	<path style="fill:#121526;" d="M230.7,56c-1.2,0-2.4-0.4-3.5-1.1c-0.7-0.4-1.4-1-1.7-1.8c-0.4-1-0.5-2.8-0.5-5.8V10.4
		c0-2.8,0.2-4.7,0.5-5.6c0.2-0.9,0.9-1.7,1.7-2.1c1-0.7,2.1-1.1,3.3-1.1h1.9V0h-23.2v1.4h1.9c1.2,0,2.5,0.4,3.5,1.1
		c0.7,0.4,1.4,1,1.7,1.7c0.4,0.9,0.5,2.8,0.5,5.8v16.3h-26.4l0.2-15.9c0-2.8,0.2-4.7,0.5-5.6s0.9-1.7,1.7-2.1c1-0.7,2.1-1.1,3.3-1.1
		h2.1V0h-23v1.4h1.9c1.2,0,2.5,0.4,3.5,1.1c0.7,0.4,1.4,1,1.7,1.7c0.4,0.9,0.5,2.8,0.5,5.8v37.2c0,3.5-0.4,5.6-1.1,6.5
		c-1.1,1.4-2.8,2.2-4.6,2.1h-1.9v1.6h22.9v-1.6H196c-1.2,0-2.5-0.4-3.5-1.1c-0.7-0.4-1.4-1-1.7-1.7c-0.4-1-0.5-2.8-0.5-5.8V29.5
		h26.6v18c0,3.5-0.4,5.6-1.1,6.5c-1.1,1.4-2.4,2.1-4.7,2.1h-1.9v1.6h23.4v-1.6h-1.9L230.7,56z"/>
</g>
</svg>
