<?xml version="1.0"?>
<svg xmlns="http://www.w3.org/2000/svg" xmlns:xlink="http://www.w3.org/1999/xlink" xmlns:svgjs="http://svgjs.com/svgjs" version="1.1" width="512" height="512" x="0" y="0" viewBox="0 0 512 512" style="enable-background:new 0 0 512 512" xml:space="preserve" class=""><g><path xmlns="http://www.w3.org/2000/svg" d="m512 256c0 141.386719-114.613281 256-256 256s-256-114.613281-256-256 114.613281-256 256-256 256 114.613281 256 256zm0 0" fill="#f1f1f1" data-original="#61d7a8" style="" class=""/><path xmlns="http://www.w3.org/2000/svg" d="m316.140625 96.359375-50.074219 50.074219-17.1875-17.191406-53.03125 53.03125 60.464844 60.464843-.582031.582031-77.070313-77.070312-53.03125 53.03125 77.074219 77.070312-93.304687 93.304688 121.082031 121.078125c8.394531.832031 16.90625 1.265625 25.519531 1.265625 129.867188 0 237.136719-96.707031 253.753906-222.03125zm0 0" fill="#f1f1f1" data-original="#00ab94" style="" class=""/><path xmlns="http://www.w3.org/2000/svg" d="m230.21875 165.082031h51.5625v52.707031h-51.5625zm0 0" fill="#000000" data-original="#000000" style=""/><path xmlns="http://www.w3.org/2000/svg" d="m230.21875 173.675781h51.5625v35.523438h-51.5625zm0 0" fill="#47568c" data-original="#47568c" style="" class=""/><path xmlns="http://www.w3.org/2000/svg" d="m256 173.675781h25.78125v35.523438h-25.78125zm0 0" fill="#2c3b73" data-original="#2c3b73" style=""/><path xmlns="http://www.w3.org/2000/svg" d="m127.09375 166.230469h51.5625v42.96875h-51.5625zm0 0" fill="#47568c" data-original="#47568c" style="" class=""/><path xmlns="http://www.w3.org/2000/svg" d="m402.667969 200.605469v51.5625c0 9.625-7.734375 17.1875-17.1875 17.1875h-258.386719c-9.453125 0-17.757812-7.566407-17.757812-17.1875v-51.5625zm0 0" fill="#61729b" data-original="#61729b" style="" class=""/><path xmlns="http://www.w3.org/2000/svg" d="m402.667969 200.605469v51.5625c0 9.625-7.734375 17.1875-17.1875 17.1875h-129.480469v-68.75zm0 0" fill="#47568c" data-original="#47568c" style="" class=""/><path xmlns="http://www.w3.org/2000/svg" d="m289.171875 252.167969c21.3125 11.6875 35.578125 34.203125 35.578125 60.15625 0 37.984375-30.765625 68.75-68.75 68.75s-68.75-30.765625-68.75-68.75c0-25.953125 14.265625-48.46875 35.578125-60.15625h-113.496094v137.5h293.332031v-137.5zm0 0" fill="#a2b4c7" data-original="#e0f4ff" style="" class=""/><path xmlns="http://www.w3.org/2000/svg" d="m402.667969 252.167969v137.5h-146.667969v-8.59375c37.984375 0 68.75-30.765625 68.75-68.75 0-25.953125-14.265625-48.46875-35.578125-60.15625zm0 0" fill="#bbdcff" data-original="#bbdcff" style="" class=""/><path xmlns="http://www.w3.org/2000/svg" d="m256 234.980469c-42.625 0-77.34375 34.714843-77.34375 77.34375 0 42.625 34.71875 77.34375 77.34375 77.34375s77.34375-34.71875 77.34375-77.34375c0-42.628907-34.71875-77.34375-77.34375-77.34375zm0 0" fill="#47568c" data-original="#47568c" style="" class=""/><path xmlns="http://www.w3.org/2000/svg" d="m256 234.980469v154.683593c42.625 0 77.34375-34.71875 77.34375-77.34375s-34.71875-77.339843-77.34375-77.339843zm0 0" fill="#2c3b73" data-original="#2c3b73" style=""/><path xmlns="http://www.w3.org/2000/svg" d="m316.15625 312.324219c0 33.171875-26.984375 60.15625-60.15625 60.15625s-60.15625-26.984375-60.15625-60.15625 26.984375-60.15625 60.15625-60.15625 60.15625 26.984375 60.15625 60.15625zm0 0" fill="#25d9f8" data-original="#25d9f8" style=""/><path xmlns="http://www.w3.org/2000/svg" d="m316.15625 312.324219c0 33.171875-26.984375 60.15625-60.15625 60.15625v-120.3125c33.171875 0 60.15625 26.984375 60.15625 60.15625zm0 0" fill="#00c0f1" data-original="#00c0f1" style=""/><path xmlns="http://www.w3.org/2000/svg" d="m298.96875 312.324219h-17.1875c0-14.21875-11.566406-25.78125-25.78125-25.78125v-17.1875c23.691406 0 42.96875 19.277343 42.96875 42.96875zm0 0" fill="#a2b4c7" data-original="#e0f4ff" style="" class=""/><path xmlns="http://www.w3.org/2000/svg" d="m195.84375 96.332031v85.9375h120.3125v-85.9375zm0 0" fill="#47568c" data-original="#47568c" style="" class=""/><path xmlns="http://www.w3.org/2000/svg" d="m256 96.332031h60.15625v85.9375h-60.15625zm0 0" fill="#2c3b73" data-original="#2c3b73" style=""/><path xmlns="http://www.w3.org/2000/svg" d="m213.03125 113.519531h85.9375v51.566407h-85.9375zm0 0" fill="#25d9f8" data-original="#25d9f8" style=""/><path xmlns="http://www.w3.org/2000/svg" d="m256 113.519531h42.96875v51.566407h-42.96875zm0 0" fill="#00c0f1" data-original="#00c0f1" style=""/><path xmlns="http://www.w3.org/2000/svg" d="m230.21875 130.707031h51.5625v17.1875h-51.5625zm0 0" fill="#a2b4c7" data-original="#e0f4ff" style="" class=""/><path xmlns="http://www.w3.org/2000/svg" d="m256 130.707031h25.78125v17.1875h-25.78125zm0 0" fill="#bbdcff" data-original="#bbdcff" style="" class=""/></g></svg>
