<?xml version="1.0" encoding="utf-8"?>
<svg version="1.1" id="Layer_1" xmlns="http://www.w3.org/2000/svg" xmlns:xlink="http://www.w3.org/1999/xlink" x="0px" y="0px"
	width="100px" height="100px" viewBox="0 0 66.7 66.7" style="enable-background:new 0 0 66.7 66.7;" xml:space="preserve">
<g>
	<circle style="fill:#990000;" cx="33.3" cy="33.3" r="33.3"/>
	<path style="fill:#FFFFFF;" d="M47.6,40c5.4-2.3,8.9-6.7,8.9-13.3v-0.1c0-4.3-1.3-7.6-3.9-10.1c-2.9-3-7.5-4.7-14.2-4.7H7.9
		l9.9,10.7V55h12V41.4h5.9l9.6,13.5h13.5L47.6,40z M44.5,27.4c0,3.1-2.3,5.3-6.3,5.3h-8.5V21.5H38c4,0,6.6,2.4,6.6,5.8v0.2
		L44.5,27.4C44.5,27.4,44.5,27.4,44.5,27.4z"/>
</g>
</svg>
