<?xml version="1.0" encoding="utf-8"?>
<svg version="1.1" id="Layer_1" xmlns="http://www.w3.org/2000/svg" xmlns:xlink="http://www.w3.org/1999/xlink" x="0px" y="0px"
	width="100px" height="100px" viewBox="0 0 66.7 66.7" style="enable-background:new 0 0 66.7 66.7;" xml:space="preserve">
<g>
	<circle style="fill:#E8E8E8;" cx="33.3" cy="33.3" r="33.3"/>
	<g>
		<circle style="fill:#FFFFFF;" cx="33.3" cy="33.3" r="32.7"/>
		<path style="fill:#FFFFFF;" d="M51.1,14.1H15.5c-0.8,0-1.4,0.7-1.3,1.5L17,51.1c0.1,0.7,0.7,1.2,1.3,1.2h29.9
			c0.7,0,1.3-0.5,1.3-1.2l2.8-35.5C52.5,14.9,51.9,14.2,51.1,14.1"/>
	</g>
	<path style="fill:#161012;" d="M51.1,14.1v0.3H15.5l-1.1,1.1v0.1l0,0l2.9,35.6l1.1,1h29.9l1.1-1l2.8-35.5v-0.1l-1.1-1.1V14
		c0.9,0,1.7,0.7,1.7,1.6v0.1l-2.8,35.5c-0.1,0.9-0.7,1.5-1.6,1.5H18.4c-0.8,0-1.5-0.6-1.6-1.5L14,15.7h0.3H14v-0.1
		c0-0.9,0.7-1.6,1.7-1.6h35.5v0.1"/>
	<g>
		<defs>
			<polyline id="SVGID_3_" points="15.9,15.3 15.3,15.9 18.1,51.1 18.5,51.4 48.3,51.4 48.7,51.1 51.5,15.9 50.8,15.3 15.9,15.3 			
				"/>
		</defs>
		<clipPath id="SVGID_1_">
			<use xlink:href="#SVGID_3_"  style="overflow:visible;"/>
		</clipPath>
		<path style="clip-path:url(#SVGID_1_);fill:#ED2F2A;" d="M15.3,15.3h8.5v26.1h-8.5V15.3z M42.9,15.3h8.5v26.1h-8.5V15.3z"/>
	</g>
	<path style="fill:#161012;" d="M28.8,31.5c0,0.5,0.3,1.8,1.9,3l1.1,0.8h-0.3h-0.9l-0.3,0.4v0.7l0.1,0.5l0.6,0.1l1.7-0.1l0.1,0.3
		c-0.2,0.4-0.7,2.1-1.7,3.7l0.5,0.3l0.7,0.1l1.1-2.7h0.1l-0.1,3.1v0.1l0.1,0.1l0.9-0.1h0.1l0.1-0.1l0.1-0.1l0,0v-0.2v-0.1v-0.1V41
		v-0.4v-0.1c0-1-0.1-2.1-0.4-3.1l-0.1-0.2v-0.1H34h0.1H35l0.9,0.1l0.3-0.5v-0.9l-0.1-0.5L35,35.3l0,0l0,0l1.3-1
		c0.7-0.7,1.1-1.1,1.3-1.5c0,0,0.8-1.6,0.8-2.9l0.2-0.3l0.3-0.1l0.7-1.3l0.7-2.5L40,24.3l-0.1-0.1v-0.1v-0.1l0.5-1.9l-0.1-0.1
		L40,21.7v-0.1c-0.1-1.3-0.5-2.9-1.9-4.3l-0.1-0.1c-2-2.2-6.5-2.3-8.7-0.5v0.1c-0.4,0.8-1.3,0.9-1.7,0.9l-0.3,0.2l0.8,0.7l-0.3,0.1
		h-0.5l-0.7,0.5v0.1L27,20l0,0l0.1,0.2v0.4l-0.7,0.7c-0.1,0.5,0.1,0.8,0.3,1.5l0.3,1.3l0,0h-0.1l-0.3,0.7c-0.1,0.9,0.5,2.1,0.7,3.3
		l0.5,1.2l0.3,0.1l0.3,0.1v0.3C28.4,30.7,28.8,31.5,28.8,31.5 M29.2,18.2l0.3-0.3l1.3-0.7l0.2-0.1v-0.3h-0.3l-0.1-0.1l0.4-0.3
		l1.8-0.3h1l0.7,0.1l2,0.7l1,0.7c0.9,0.7,2,2.1,1.8,4.9l-0.1,0.6l-0.2,0.1c-0.2-0.6-0.4-1.7-1-2.5h-0.2v0.7
		c-0.1,0.7,0.1,0.4,0.5,1.2l0.3,1v0.3L38.5,24l-0.8-0.1h-2.5L34,24.4l-0.2,0.1h-0.1h-0.1h-0.5h-0.4c-0.2-0.1-0.5-0.7-1.7-0.7h-2.1
		h-0.3v-0.1c0-0.9,0.6-0.7,0.7-1c0.2-0.6,0.2-2.1,1.3-3l1.3-0.5l1.3,0.3l0.4,0.1l0.4-0.3v-0.3c-0.1-0.1-0.9-1-2-1.2l-0.7-0.1h-0.5
		l-1.4,0.5L29.2,18.2 M38.3,24.3l-0.2,0.1h-0.2l-0.1-0.2h0.3h0.1L38.3,24.3 M36.8,24.8l-0.3-0.3l0.1-0.1l0.7,0.1l0.1,0.4L37.1,25
		L36.8,24.8 M36.9,25.4l-0.3-0.1l-0.4-0.3l-0.5-0.1L35.3,25l-0.1-0.1l0.5-0.3h0.2l0.5,0.2l0.5,0.4L36.9,25.4 M32,27.8l0.1,0.2
		l-0.4-0.1v-0.7H32V27.8 M29.7,25.1l0.2-0.1l0.3-0.2l0.7-0.3l0.4,0.1v0.2h-0.6l-0.7,0.3H29.7L29.7,25.1 M29.5,24.7L29.1,25l-0.3-0.2
		l0.4-0.4l0.2-0.1h0.3l0.1,0.2L29.5,24.7 M27.1,21.7l0.5-0.9v-0.7l-0.1-0.5v-0.1l0,0h0.3c0.8-0.1,1.5-0.4,1.7-0.5l0.3-0.1l0.4-0.1
		l0.3-0.1l0.3,0.1l-1.3,0.9l-0.5,0.8L28.7,21l-0.3,0.5c-0.1,0.2-0.4,1-0.4,2.3l-0.1,0.3l-0.2,0.1l-0.3-1.3l-0.1-0.3L27.1,21.7
		 M27.7,27.7l-0.3-0.5l-0.4-1.3l0.3-0.9l0.3,0.2l-0.1,0.7l0.2,1.1L27.7,27.7 M28.7,24.4l-0.2-0.1l-0.2-0.1v-0.1h0.1h0.3L28.7,24.4
		 M28.8,27l0.3-0.1l0.4,0.1l0.2-0.1v-0.3l-0.7-0.6l0.1-0.2l0.2,0.1l0.3,0.2l0.1-0.1l0.9-0.5l0.5,0.1h0.4l0.3,0.1L31.9,26l0,0v0.4
		l0,0l-1,0.3l-0.3,0.1v0.1l0.3,0.1h0.3l0.1,0.1l-0.1,0.1L31,27.6l-0.1,0.2l-0.7,0.3l-0.9,0.1L28.8,27 M31.2,33.1
		c-0.5,0-1.7-0.7-2.1-2.7l0.4-1l0.2-0.1l0.3,0.2l0.5,2.3h0.3l0.1-0.3l0.2-0.1l0.4,1.3L31.2,33.1 M31.5,29.7l-0.9-0.3l0.1-0.1
		l0.5-0.3l0.5-0.3l0.7-0.1l1.2,0.3l0.7-0.4l0.4-0.2l0.3,0.1l0.4,0.5l0.6,0.4l0.1,0.1l-0.3,0.2c-0.8,0.2-1.7,0.1-2.1-0.1H33
		L31.5,29.7 M34.5,30.3l-0.7,0.1h-0.9l-0.5-0.2l0.1-0.1c0.2,0,0.5-0.1,1.7,0h0.2L34.5,30.3 M39.7,25.5c-0.1,0.9-0.3,1.3-0.5,1.8
		l-0.5,1.4h-0.5l-0.3,0.3l-0.1,0.3l-0.2,1.3c-0.2,1-0.6,1.7-1,2.1c-0.7,0.9-1.5,1.1-1.5,1.1h-0.3l-0.1-0.2l-0.1,0.1l-0.1,0.7
		l-0.5,0.9l-0.2,0.3c-0.5-0.3-1.2-1.1-1.3-1.7l0.1-0.9l0.1-0.7v-0.5l0.4,0.4v-0.7l-0.4-0.3v-0.2l0.5-0.1c1.2,0.2,1.5-0.1,2.1-0.2
		h0.2l0.3,0.3l0.1,0.8l0.3-0.1l0.1-0.5c1.4-2.7,0.2-1.9-0.7-3.5l-0.7-0.5l-0.2,0.3v0.4l-1.3,0.3l-1-0.9l0.3-0.8l0.1-0.7l0.1-0.7
		l0.3-0.1l0.3,0.3l0.4,0.7l0.3-0.1l0.1-0.2l-0.1-0.2l0.1-0.1l0.8,0.3l1.2-0.1l0.2,0.1l0.1,0.2l0.3,0.1l0.3,0.2l-0.9,0.6l-0.1,0.1
		v0.3h0.5l0.8-0.5l0.4-1.3l0.2-0.5l0.5-0.1l0.1,0.2v1.1l0.1,0.1l0.4-0.4v-0.5l0.2-0.3L39.7,25.5 M44.8,43.5l0.1,0.3l-0.4,1.7
		l-0.2,0.1h-0.5l-0.2-0.1l0,0c0-0.5-0.3-1-1.1-1c-1.3,0-2.3,1.1-2.4,2.5c-0.1,1.5,0.9,2.3,2.3,2.3c0.7,0,1.3-0.1,1.7-0.3l0.2,0.2
		l-0.1,0.9L44,50.2c-0.3,0.1-1.1,0.3-2.4,0.3c-3,0-4.2-1.7-4-3.5c0.1-1.6,1.2-3.9,5.3-3.9C43.6,43.2,44.2,43.3,44.8,43.5 M28,43.5
		l0.2-0.1h2.9l0.2,0.2L31.2,44l-0.1,0.1l0,0l-0.9,0.4l-2.4,2l1.9,2.5l0.9,0.5l0.2,0.3l-0.1,0.5l-0.1,0.1H29c-1.6,0-2.1-0.7-3.4-3.1
		l0,0l-0.4,1.8l0.3,0.5l0,0l0.1,0.2l-0.1,0.5l-0.2,0.1h-3.4l-0.2-0.2l0.1-0.5l0.2-0.2l0,0c0.3,0,0.6-0.2,0.9-1.1l0.7-3.5l-0.3-0.7
		l0,0L23.1,44l0.1-0.5l0.2-0.1h3.2l0.1,0.2l-0.1,0.3l-0.1,0.1l0,0l-0.5,0.5l-0.4,1.9l2.5-2.1l-0.1-0.3l-0.1-0.2L28,43.5 M37,45.4
		l-0.2-0.2l0,0l-0.6-0.7h-1.5l-0.4,1.9h2.2l0.2,0.2l-0.2,1l-0.2,0.1H34l-0.3,1.2l0.3,0.7l0,0l0.1,0.2L34,50.3l-0.1,0.1h-2.7L31,50.3
		l1.2-5.3l-0.3-0.7l0,0L31.7,44l0.1-0.5l0.2-0.2h6l0.1,0.2l-0.4,1.7l-0.2,0.1H37"/>
</g>
</svg>
