<?xml version="1.0"?>
<svg xmlns="http://www.w3.org/2000/svg" xmlns:xlink="http://www.w3.org/1999/xlink" xmlns:svgjs="http://svgjs.com/svgjs" version="1.1" width="512" height="512" x="0" y="0" viewBox="0 0 512 512" style="enable-background:new 0 0 512 512" xml:space="preserve" class=""><g><path xmlns="http://www.w3.org/2000/svg" d="m512 256c0 141.386719-114.613281 256-256 256s-256-114.613281-256-256 114.613281-256 256-256 256 114.613281 256 256zm0 0" fill="#f1f1f1" data-original="#fdbf00" style="" class=""/><path xmlns="http://www.w3.org/2000/svg" d="m353.890625 225.527344-67.492187-67.488282-220.398438 220.398438 125.308594 125.308594c20.664062 5.382812 42.34375 8.253906 64.691406 8.253906 141.386719 0 256-114.613281 256-256 0-22.300781-2.859375-43.929688-8.214844-64.554688l-57.90625-57.90625zm0 0" fill="#f1f1f1" data-original="#ff9f00" style="" class=""/><path xmlns="http://www.w3.org/2000/svg" d="m446 178.070312v200.390626h-380v-200.390626l22.265625-22.265624h335.46875zm0 0" fill="#6e6e6e" data-original="#6e6e6e" style=""/><path xmlns="http://www.w3.org/2000/svg" d="m446 178.070312v200.390626h-190v-222.65625h167.734375zm0 0" fill="#5a5a5a" data-original="#5a5a5a" style=""/><path xmlns="http://www.w3.org/2000/svg" d="m345.804688 222.601562h-34.140626l-22.265624 22.265626v66.796874l22.265624 22.265626h34.140626c30.691406 0 55.664062-24.972657 55.664062-55.664063s-24.972656-55.664063-55.664062-55.664063zm0 0" fill="#444444" data-original="#444444" style=""/><path xmlns="http://www.w3.org/2000/svg" d="m166.9375 222.601562c-30.691406 0-55.664062 24.972657-55.664062 55.664063s24.972656 55.664063 55.664062 55.664063h33.398438l22.265624-22.265626v-66.796874l-22.265624-22.265626zm0 0" fill="#5a5a5a" data-original="#5a5a5a" style=""/><path xmlns="http://www.w3.org/2000/svg" d="m379.203125 278.265625c0 18.480469-14.917969 33.398437-33.398437 33.398437h-178.867188c-18.480469 0-33.398438-14.917968-33.398438-33.398437s14.917969-33.398437 33.398438-33.398437h178.867188c18.480468 0 33.398437 14.917968 33.398437 33.398437zm0 0" fill="#deecf1" data-original="#deecf1" style=""/><path xmlns="http://www.w3.org/2000/svg" d="m379.203125 278.265625c0 18.480469-14.917969 33.398437-33.398437 33.398437h-89.804688v-66.796874h89.804688c18.480468 0 33.398437 14.917968 33.398437 33.398437zm0 0" fill="#c6e2e7" data-original="#c6e2e7" style=""/><path xmlns="http://www.w3.org/2000/svg" d="m200.335938 222.601562h111.328124v111.328126h-111.328124zm0 0" fill="#ffe470" data-original="#ffe470" style=""/><g xmlns="http://www.w3.org/2000/svg" fill="#ffd400"><path d="m256 222.601562h55.664062v111.328126h-55.664062zm0 0" fill="#ffd400" data-original="#ffd400" style=""/><path d="m222.601562 244.867188h66.796876v22.265624h-66.796876zm0 0" fill="#ffd400" data-original="#ffd400" style=""/><path d="m222.601562 289.398438h66.796876v22.265624h-66.796876zm0 0" fill="#ffd400" data-original="#ffd400" style=""/></g><path xmlns="http://www.w3.org/2000/svg" d="m256 244.867188h33.398438v22.265624h-33.398438zm0 0" fill="#f1f1f1" data-original="#fdbf00" style="" class=""/><path xmlns="http://www.w3.org/2000/svg" d="m256 289.398438h33.398438v22.265624h-33.398438zm0 0" fill="#f1f1f1" data-original="#fdbf00" style="" class=""/><path xmlns="http://www.w3.org/2000/svg" d="m66 133.539062h380v44.53125h-380zm0 0" fill="#67a2f9" data-original="#67a2f9" style="" class=""/><path xmlns="http://www.w3.org/2000/svg" d="m256 133.539062h190v44.53125h-190zm0 0" fill="#567ee2" data-original="#567ee2" style=""/></g></svg>
