<?xml version="1.0" encoding="utf-8"?>
<svg version="1.1" id="Layer_1" xmlns="http://www.w3.org/2000/svg" xmlns:xlink="http://www.w3.org/1999/xlink" x="0px" y="0px"
	width="100px" height="100px" viewBox="0 0 100 100" style="enable-background:new 0 0 100 100;" xml:space="preserve">
<g>
	<path style="fill:#E8E8E8;" d="M50,0c27.6,0,50,22.4,50,50s-22.4,50-50,50S0,77.6,0,50S22.4,0,50,0"/>
	<path style="fill:#FFFFFF;" d="M50,1c27.1,0,49,21.9,49,49S77.1,99,50,99S1,77.1,1,50S22.9,1,50,1"/>
	<g transform="translate(-134.76 -228.26)">
		<path style="fill:#D20000;" d="M150.9,272.7c-0.1,0-0.2,0-0.3,0.1c-0.1,0.1-0.2,0.2-0.2,0.4l-2.2,5.6c-0.1,0.2-0.1,0.3,0.1,0.5
			c0.1,0.1,0.2,0.1,0.3,0.1c0.2,0,0.4-0.1,0.5-0.3c0.1-0.4,0.4-1.2,0.4-1.2h2.8c0,0,0.3,0.8,0.4,1.2c0,0.1,0.1,0.2,0.2,0.2
			c0.1,0,0.2,0.1,0.3,0.1c0.1,0,0.3,0,0.3-0.1c0.1-0.1,0.1-0.1,0.1-0.2c0-0.1,0-0.2,0-0.2c-0.7-1.9-2.2-5.7-2.2-5.7
			c-0.1-0.2-0.1-0.3-0.2-0.3C151.2,272.8,151,272.7,150.9,272.7L150.9,272.7z M150.9,274.2L150.9,274.2l1.1,2.9h-2.2L150.9,274.2z"
			/>
		<path style="fill:#D20000;" d="M158.6,272.8c-0.8,0-1.7,0.6-1.9,1.4c-0.2,0.6,0,1.3,0.6,1.7c0.6,0.5,1.4,0.6,2,0.8
			c0.3,0.2,0.5,0.6,0.4,0.9c-0.1,0.7-0.7,1.1-1.4,1c-0.4,0-0.7-0.2-1.1-0.4c-0.2-0.1-0.5,0.1-0.6,0.3c-0.1,0.3,0.2,0.6,0.5,0.7
			c0.8,0.3,1.7,0.4,2.5,0c0.8-0.4,1.3-1.4,1.1-2.3c-0.1-0.5-0.5-0.9-0.9-1.1c-0.5-0.3-1-0.3-1.5-0.6c-0.3-0.2-0.6-0.5-0.5-0.9
			c0.1-0.4,0.5-0.6,1-0.6c0.5,0,0.7,0.3,1.1,0.4c0.3,0,0.5-0.4,0.4-0.7c-0.2-0.3-0.7-0.6-1-0.6C159,272.8,158.8,272.8,158.6,272.8
			L158.6,272.8z"/>
		<g>
			<path style="fill:#737373;" d="M150.2,282.6l0.2,0.5h0.3l-0.9-2.2l-0.2,0l-0.9,2.2h0.2l0.2-0.5L150.2,282.6z M150.2,282.4h-0.9
				l0.5-1.2L150.2,282.4z"/>
			<path style="fill:#737373;" d="M152.1,281.5h-0.3v1.6h0.2v-0.8c0-0.2,0.1-0.6,0.4-0.6c0.3,0,0.4,0.3,0.4,0.5v0.9h0.2v-0.9
				c0-0.2,0.1-0.6,0.4-0.6c0.3,0,0.4,0.3,0.4,0.5v0.9h0.2v-1c0-0.3-0.1-0.7-0.6-0.7c-0.2,0-0.4,0.1-0.5,0.3
				c-0.1-0.2-0.3-0.3-0.5-0.3c-0.2,0-0.3,0.1-0.4,0.2h0L152.1,281.5z"/>
			<path style="fill:#737373;" d="M155.3,281.4c-0.5,0-0.8,0.4-0.8,0.9c0,0.5,0.3,0.8,0.8,0.8c0.3,0,0.5-0.1,0.7-0.3l-0.2-0.2
				c-0.1,0.2-0.3,0.3-0.5,0.3c-0.3,0-0.5-0.2-0.5-0.5h1.2C156,281.9,155.8,281.4,155.3,281.4L155.3,281.4z M155.3,281.7
				c0.3,0,0.4,0.3,0.4,0.5h-0.9C154.8,281.9,155,281.7,155.3,281.7L155.3,281.7z"/>
			<path style="fill:#737373;" d="M159.9,281.7c0.3,0,0.5,0.3,0.5,0.6c0,0.3-0.2,0.6-0.5,0.6c-0.3,0-0.5-0.3-0.5-0.6
				C159.4,282,159.6,281.7,159.9,281.7z M159.2,283.1h0.2v-0.2h0c0.1,0.2,0.3,0.3,0.5,0.3c0.4,0,0.7-0.4,0.7-0.9
				c0-0.5-0.3-0.9-0.7-0.9c-0.2,0-0.4,0.1-0.5,0.3h0v-0.9h-0.2V283.1z"/>
			<path style="fill:#737373;" d="M163.1,281.5h-0.3v1.6h0.2v-0.9c0-0.2,0.1-0.4,0.3-0.5c0.1,0,0.2,0,0.2,0l0.1-0.2
				c-0.1,0-0.1-0.1-0.2-0.1c-0.1,0-0.2,0.1-0.3,0.2h0V281.5z"/>
			<path style="fill:#737373;" d="M165.5,283.1c0.4,0,0.8-0.4,0.8-0.9c0-0.5-0.3-0.9-0.8-0.9c-0.4,0-0.8,0.4-0.8,0.9
				S165,283.1,165.5,283.1z M165.5,281.7c0.3,0,0.5,0.3,0.5,0.6c0,0.3-0.2,0.6-0.5,0.6c-0.3,0-0.5-0.3-0.5-0.6
				C165,282,165.2,281.7,165.5,281.7L165.5,281.7z"/>
			<path style="fill:#737373;" d="M166.9,281.7h0.3v-0.2h-0.3v-0.2c0-0.2,0-0.3,0.2-0.4c0.1,0,0.1,0,0.2,0v-0.2c-0.1,0-0.1,0-0.2,0
				c-0.2,0-0.3,0.1-0.3,0.2c-0.1,0.1-0.1,0.3-0.1,0.4v0.2h-0.2v0.2h0.2v1.4h0.2V281.7z"/>
			<path style="fill:#737373;" d="M169.5,280.9c-0.6,0-1.1,0.5-1.1,1.2c0,0.6,0.5,1.1,1.1,1.1c0.2,0,0.5-0.1,0.7-0.3l-0.2-0.2
				c-0.1,0.1-0.3,0.2-0.5,0.2c-0.5,0-0.8-0.5-0.8-0.9c0-0.4,0.3-0.9,0.8-0.9c0.2,0,0.4,0.1,0.5,0.2l0.2-0.2
				C169.9,281,169.7,280.9,169.5,280.9L169.5,280.9z"/>
			<path style="fill:#737373;" d="M170.7,281.8v-1h-0.2v2.2h0.2v-1l0.1,0l1.1,1h0.3l-1.2-1.2l1.2-1.1h-0.3L170.7,281.8L170.7,281.8z
				"/>
			<path style="fill:#737373;" d="M173.5,281.9v-1h-0.3v2.2h0.3v-1h1.2v1h0.3v-2.2h-0.3v1L173.5,281.9z"/>
			<path style="fill:#737373;" d="M175.8,281.5h-0.2v0.9c0,0.4,0.1,0.7,0.6,0.7s0.6-0.3,0.6-0.7v-0.9h-0.2v0.9
				c0,0.3-0.1,0.5-0.4,0.5s-0.4-0.3-0.4-0.5V281.5z"/>
			<path style="fill:#737373;" d="M177.7,281.7h0.2v-0.2h-0.2V281h-0.2v0.5h-0.2v0.2h0.2v1.4h0.2V281.7z"/>
			<path style="fill:#737373;" d="M179,281.4c-0.5,0-0.9,0.4-0.9,0.9c0,0.5,0.4,0.9,0.9,0.9c0.2,0,0.3-0.1,0.4-0.1l-0.1-0.2
				c-0.1,0.1-0.2,0.1-0.3,0.1c-0.3,0-0.6-0.3-0.6-0.6c0-0.3,0.2-0.6,0.6-0.6c0.1,0,0.2,0,0.3,0.1l0.1-0.2
				C179.3,281.5,179.2,281.4,179,281.4L179,281.4z"/>
			<path style="fill:#737373;" d="M179.8,280.8v2.3h0.2v-0.8c0-0.2,0-0.7,0.4-0.7c0.3,0,0.4,0.3,0.4,0.5v0.9h0.2v-1
				c0-0.4-0.1-0.7-0.5-0.7c-0.2,0-0.4,0.1-0.5,0.2l0,0v-0.9L179.8,280.8z"/>
			<path style="fill:#737373;" d="M181.9,281.5h-0.3v1.6h0.3V281.5z M181.7,280.8c-0.1,0-0.2,0.1-0.2,0.2c0,0.1,0.1,0.2,0.2,0.2
				c0.1,0,0.2-0.1,0.2-0.2C181.9,280.9,181.8,280.8,181.7,280.8z"/>
			<path style="fill:#737373;" d="M183.5,281.7c-0.1-0.2-0.3-0.3-0.5-0.3c-0.3,0-0.7,0.2-0.7,0.5c0,0.5,0.9,0.4,0.9,0.8
				c0,0.1-0.1,0.3-0.3,0.3c-0.2,0-0.3-0.1-0.4-0.2l-0.3,0.1c0.1,0.3,0.3,0.3,0.7,0.3c0.3,0,0.6-0.2,0.6-0.5c0-0.3-0.2-0.4-0.4-0.5
				c-0.2-0.1-0.4-0.1-0.4-0.3c0-0.1,0.2-0.2,0.3-0.2c0.1,0,0.3,0.1,0.3,0.2L183.5,281.7z"/>
			<path style="fill:#737373;" d="M186,281.5h-0.3v1.6h0.2v-0.9c0-0.3,0.1-0.6,0.4-0.6c0.3,0,0.4,0.3,0.4,0.5v0.9h0.2v-1
				c0-0.4-0.1-0.7-0.6-0.7c-0.2,0-0.4,0.1-0.5,0.2h0L186,281.5z"/>
			<path style="fill:#737373;" d="M192.7,280.8h-0.2v2.3h0.2V280.8z"/>
			<path style="fill:#737373;" d="M193.9,281.7c0.3,0,0.5,0.3,0.5,0.6c0,0.3-0.2,0.6-0.5,0.6c-0.3,0-0.5-0.3-0.5-0.6
				C193.4,282,193.6,281.7,193.9,281.7z M194.4,283.1h0.2v-2.3h-0.2v0.9h0c-0.1-0.2-0.3-0.3-0.5-0.3c-0.4,0-0.7,0.4-0.7,0.9
				c0,0.5,0.3,0.9,0.7,0.9c0.2,0,0.4-0.1,0.5-0.3h0V283.1z"/>
			<path style="fill:#737373;" d="M198.3,281.4c-0.4,0-0.7,0.4-0.7,0.9c0,0.5,0.3,0.9,0.7,0.9c0.2,0,0.4-0.1,0.5-0.3h0v0.2
				c0,0.4-0.2,0.5-0.5,0.5c-0.2,0-0.4,0-0.5-0.3l-0.2,0.2c0.1,0.3,0.4,0.3,0.7,0.3c0.2,0,0.4-0.1,0.6-0.3c0.1-0.2,0.2-0.4,0.2-0.6
				v-1.5h-0.3v0.2h0C198.7,281.5,198.5,281.4,198.3,281.4L198.3,281.4z M198.3,281.7c0.3,0,0.5,0.3,0.5,0.6c0,0.3-0.2,0.6-0.5,0.6
				c-0.3,0-0.5-0.3-0.5-0.6C197.8,282,198,281.7,198.3,281.7L198.3,281.7z"/>
			<path style="fill:#737373;" d="M161.7,281.4c-0.5,0-0.8,0.4-0.8,0.9c0,0.5,0.3,0.8,0.8,0.8c0.3,0,0.5-0.1,0.7-0.3l-0.2-0.2
				c-0.1,0.2-0.3,0.3-0.5,0.3c-0.3,0-0.5-0.2-0.5-0.5h1.2C162.4,281.9,162.2,281.4,161.7,281.4L161.7,281.4z M161.7,281.7
				c0.3,0,0.4,0.3,0.4,0.5h-0.9C161.2,281.9,161.4,281.7,161.7,281.7L161.7,281.7z"/>
			<path style="fill:#737373;" d="M156.6,281.5h-0.3v1.6h0.2v-0.8c0-0.2,0.1-0.6,0.4-0.6c0.3,0,0.4,0.3,0.4,0.5v0.9h0.2v-0.9
				c0-0.2,0.1-0.6,0.4-0.6c0.3,0,0.4,0.3,0.4,0.5v0.9h0.2v-1c0-0.3-0.1-0.7-0.6-0.7c-0.2,0-0.4,0.1-0.5,0.3
				c-0.1-0.2-0.3-0.3-0.5-0.3c-0.2,0-0.3,0.1-0.4,0.2h0L156.6,281.5z"/>
			<path style="fill:#737373;" d="M184.6,283.1c0.4,0,0.8-0.4,0.8-0.9c0-0.5-0.3-0.9-0.8-0.9s-0.8,0.4-0.8,0.9
				S184.1,283.1,184.6,283.1z M184.6,281.7c0.3,0,0.5,0.3,0.5,0.6c0,0.3-0.2,0.6-0.5,0.6c-0.3,0-0.5-0.3-0.5-0.6
				C184.1,282,184.3,281.7,184.6,281.7z"/>
			<path style="fill:#737373;" d="M191.3,283.1c0.4,0,0.8-0.4,0.8-0.9c0-0.5-0.3-0.9-0.8-0.9s-0.8,0.4-0.8,0.9
				S190.9,283.1,191.3,283.1z M191.3,281.7c0.3,0,0.5,0.3,0.5,0.6c0,0.3-0.2,0.6-0.5,0.6c-0.3,0-0.5-0.3-0.5-0.6
				C190.8,282,191,281.7,191.3,281.7z"/>
			<path style="fill:#737373;" d="M188.6,281.9v-1h-0.3v2.2h0.3v-1h1.2v1h0.3v-2.2h-0.3v1L188.6,281.9z"/>
			<path style="fill:#737373;" d="M195.4,281.5h-0.3v1.6h0.3V281.5z M195.2,280.8c-0.1,0-0.2,0.1-0.2,0.2c0,0.1,0.1,0.2,0.2,0.2
				s0.2-0.1,0.2-0.2C195.4,280.9,195.3,280.8,195.2,280.8z"/>
			<path style="fill:#737373;" d="M200.7,281.7c-0.1-0.2-0.3-0.3-0.5-0.3c-0.3,0-0.7,0.2-0.7,0.5c0,0.5,0.9,0.4,0.9,0.8
				c0,0.1-0.1,0.3-0.3,0.3c-0.2,0-0.3-0.1-0.4-0.2l-0.3,0.1c0.1,0.3,0.3,0.3,0.7,0.3c0.3,0,0.6-0.2,0.6-0.5c0-0.3-0.2-0.4-0.4-0.5
				c-0.2-0.1-0.4-0.1-0.4-0.3c0-0.1,0.2-0.2,0.3-0.2c0.1,0,0.3,0.1,0.3,0.2L200.7,281.7z"/>
			<path style="fill:#737373;" d="M196.1,281.5h-0.3v1.6h0.2v-0.9c0-0.3,0.1-0.6,0.4-0.6c0.3,0,0.4,0.3,0.4,0.5v0.9h0.2v-1
				c0-0.4-0.1-0.7-0.6-0.7c-0.2,0-0.4,0.1-0.5,0.2h0V281.5z"/>
		</g>
		<g>
			<path style="fill:#D20000;" d="M155.1,278.3c-0.1,0-0.3,0.1-0.4,0.2c-0.1,0.1-0.2,0.2-0.2,0.4c0,0.1,0.1,0.3,0.2,0.4
				c0.1,0.1,0.2,0.2,0.4,0.2c0.1,0,0.3-0.1,0.4-0.2c0.1-0.1,0.2-0.2,0.2-0.4c0-0.1-0.1-0.3-0.2-0.4
				C155.4,278.4,155.2,278.3,155.1,278.3z"/>
			<path style="fill:#D20000;" d="M161.9,278.3c-0.1,0-0.3,0.1-0.4,0.2c-0.1,0.1-0.2,0.2-0.2,0.4c0,0.1,0.1,0.3,0.2,0.4
				c0.1,0.1,0.2,0.2,0.4,0.2c0.1,0,0.3-0.1,0.4-0.2c0.1-0.1,0.2-0.2,0.2-0.4c0-0.1-0.1-0.3-0.2-0.4
				C162.1,278.4,162,278.3,161.9,278.3z"/>
			<path style="fill:#D20000;" d="M172.6,272.7c-0.1,0-0.3,0-0.4,0.1c-0.1,0-0.1,0.1-0.1,0.2c0,0,0,0.1,0,0.1l-0.8,4.9l-1.5-4.9
				c0-0.1-0.1-0.2-0.2-0.2c-0.1-0.1-0.2-0.1-0.3-0.1c-0.2,0-0.3,0.1-0.4,0.3l-1.4,4.9l-0.9-4.8c0-0.1-0.1-0.2-0.1-0.3
				c-0.1-0.1-0.2-0.1-0.3-0.1c-0.1,0-0.2,0-0.3,0.1c-0.1,0.1-0.1,0.2-0.1,0.4l1,5.6c0,0.2,0.1,0.3,0.2,0.4c0.1,0.1,0.3,0.1,0.4,0.1
				c0.1,0,0.3,0,0.4-0.1c0.1-0.1,0.2-0.2,0.2-0.3l1.3-4.4h0l1.3,4.4c0,0.1,0.1,0.2,0.1,0.3c0,0,0,0,0.1,0.1c0.1,0.1,0.2,0.1,0.4,0.1
				c0.2,0,0.3-0.1,0.4-0.2c0.1-0.1,0.2-0.2,0.2-0.4l1-5.5v-0.2c0-0.2,0-0.3-0.1-0.4C172.8,272.7,172.8,272.7,172.6,272.7
				L172.6,272.7z"/>
			<path style="fill:#D20000;" d="M179.5,272.9c-0.1,0-0.2,0-0.3,0.1c-0.1,0.1-0.1,0.2-0.1,0.3v1.1h-0.3c-0.3,0-0.4,0.2-0.4,0.4
				c0,0.1,0.1,0.2,0.1,0.3c0.1,0.1,0.2,0.1,0.3,0.1h0.3v3.7c0,0.1,0,0.2,0.1,0.3c0.1,0.1,0.2,0.1,0.3,0.1c0.1,0,0.3,0,0.3-0.1
				c0.1-0.1,0.1-0.2,0.1-0.3v-3.7h0.4c0.1,0,0.2-0.1,0.3-0.2c0-0.1,0.1-0.2,0.1-0.3c0-0.1-0.1-0.3-0.1-0.3c-0.1-0.1-0.2-0.1-0.3-0.1
				H180v-1.1c0-0.1,0-0.2-0.1-0.3C179.8,273,179.7,272.9,179.5,272.9L179.5,272.9z"/>
			<path style="fill:#D20000;" d="M182.8,274.4c-0.6,0-1.2,0.3-1.5,0.8c-0.3,0.4-0.2,0.9,0,1.2c0.2,0.4,0.9,0.6,1.3,0.8
				c0.3,0.2,0.9,0.3,1,0.5c0.2,0.2,0.1,0.5-0.1,0.7c-0.4,0.3-1.1,0.2-1.6-0.1c-0.2-0.1-0.4-0.3-0.7-0.2c-0.2,0.1-0.3,0.5-0.2,0.7
				c0.1,0.2,0.3,0.3,0.5,0.4c0.6,0.4,1.4,0.4,2.1,0.2c0.5-0.2,1-0.6,1.1-1.2c0.1-0.4-0.1-0.8-0.3-1c-0.4-0.5-1.5-0.7-1.8-0.9
				c-0.2-0.1-0.4-0.3-0.3-0.5c0.1-0.3,0.5-0.4,0.7-0.4c0.3,0,0.5,0.1,0.7,0.2c0.2,0.1,0.5,0.4,0.7,0.3c0.2-0.1,0.3-0.4,0.3-0.6
				c-0.1-0.4-0.6-0.6-0.9-0.7C183.3,274.4,183.1,274.3,182.8,274.4L182.8,274.4z"/>
			<path style="fill:#D20000;" d="M190.9,274.4c-0.1,0-0.3,0-0.4,0.1c-0.1,0.1-0.1,0.2-0.1,0.3v4.2c0,0.1,0,0.2,0.1,0.3
				c0.1,0.1,0.2,0.1,0.4,0.1c0.1,0,0.3,0,0.3-0.1c0.1-0.1,0.1-0.2,0.1-0.3v-2.6c0-0.3,0-0.5,0.2-0.6c0.1-0.1,0.3-0.3,0.4-0.4
				c0.2-0.1,0.4-0.1,0.6-0.1c0.2,0,0.4,0.1,0.6,0.2c0.2,0.2,0.3,0.4,0.3,0.8v2.7c0,0.1,0,0.2,0.1,0.3c0.1,0.1,0.2,0.1,0.4,0.1
				c0.1,0,0.3,0,0.4-0.1c0.1-0.1,0.1-0.2,0.1-0.3v-2.7c0-0.4-0.1-0.7-0.2-1c-0.2-0.3-0.4-0.5-0.6-0.6c-0.3-0.1-0.5-0.2-0.9-0.2
				c-0.3,0-0.5,0.1-0.8,0.2c-0.2,0.1-0.4,0.2-0.5,0.4l0,0v-0.2c0-0.1,0-0.2-0.1-0.2C191.2,274.4,191,274.4,190.9,274.4L190.9,274.4z
				"/>
			<path style="fill:#D20000;" d="M200.6,272.8c-0.9,0-1.8,0.4-2.3,1.2c-0.5,0.7-0.7,1.5-0.6,2.4c0.1,0.9,0.4,1.8,1.1,2.4
				c0.5,0.5,1.3,0.7,2,0.7c0.7,0,1.5-0.2,1.9-0.8c0.4-0.4,0.6-1,0.7-1.6c0-0.4,0.1-0.8,0-1.2c-0.1-0.3-0.4-0.4-0.6-0.3
				c-0.5,0-1.1,0-1.5,0c-0.4,0.1-0.4,0.8,0,0.8c0.4,0,0.8,0,1.2,0c0,0.6,0,1.1-0.4,1.5c-0.7,0.8-1.9,0.7-2.5,0.2
				c-0.7-0.5-0.8-1.4-0.8-2.2c0-0.8,0.3-1.4,0.9-1.9c0.6-0.4,1.2-0.5,1.9-0.2c0.3,0.1,0.6,0.4,1,0.6c0.3,0.1,0.7-0.3,0.6-0.6
				c-0.2-0.3-0.6-0.7-0.9-0.8C201.6,272.8,201.1,272.8,200.6,272.8L200.6,272.8z"/>
			<path style="fill:#D20000;" d="M206.3,274.4c-0.3,0-0.4,0.1-0.6,0.2c-0.1,0.1-0.3,0.2-0.4,0.4c0,0.1-0.1,0-0.1,0.1h0v-0.3
				c0-0.1,0-0.2-0.1-0.2c-0.1-0.1-0.2-0.1-0.4-0.1c-0.1,0-0.3,0-0.4,0.1c-0.1,0.1-0.1,0.2-0.1,0.3v4.2c0,0.1,0,0.2,0.1,0.3
				c0.1,0.1,0.3,0.1,0.4,0.1c0.1,0,0.3-0.1,0.4-0.1c0.1-0.1,0.1-0.2,0.1-0.3v-2.4c0-0.3,0.1-0.5,0.2-0.7c0.1-0.2,0.3-0.4,0.5-0.5
				c0.1,0,0.2-0.1,0.4-0.1c0.2-0.1,0.3-0.1,0.4-0.2c0.1-0.1,0.1-0.3,0.1-0.4c0-0.1,0-0.2-0.1-0.3
				C206.5,274.4,206.4,274.3,206.3,274.4L206.3,274.4z"/>
			<path style="fill:#D20000;" d="M209.1,274.4c-0.8,0-1.5,0.5-1.9,1.2c-0.4,0.7-0.4,1.5-0.2,2.3c0.2,0.8,0.9,1.5,1.7,1.6
				c0.6,0.1,1.2-0.1,1.7-0.5c0.7-0.6,0.9-1.6,0.8-2.4c-0.1-0.8-0.6-1.7-1.4-2C209.6,274.4,209.3,274.4,209.1,274.4L209.1,274.4z
				 M209.1,275.2c0.4,0,0.8,0.3,1,0.7c0.3,0.5,0.3,1.3,0.1,1.8c-0.2,0.4-0.6,0.8-1.1,0.8c-0.3,0-0.7-0.2-0.9-0.5
				c-0.4-0.6-0.4-1.4-0.1-2.1C208.2,275.6,208.6,275.2,209.1,275.2L209.1,275.2z"/>
			<path style="fill:#D20000;" d="M212.5,274.4c-0.1,0-0.3,0-0.4,0.1c-0.1,0.1-0.1,0.2-0.1,0.3v2.7c0,0.4,0.1,0.7,0.2,1
				c0.1,0.3,0.4,0.5,0.6,0.7c0.3,0.2,0.7,0.3,1.1,0.3c0.5,0,0.8-0.1,1.1-0.3c0.3-0.2,0.5-0.4,0.7-0.7c0.1-0.3,0.2-0.6,0.2-0.9v-2.7
				c0-0.1,0-0.2-0.1-0.3c-0.1-0.1-0.2-0.1-0.3-0.1c0,0-0.2,0-0.2,0c-0.1,0-0.1,0-0.2,0.1c-0.1,0.1-0.1,0.2-0.1,0.3v2.5
				c0,0.8-0.2,1.2-1,1.2c-0.4,0-0.5-0.1-0.7-0.3c-0.2-0.2-0.3-0.5-0.3-0.9v-2.5c0-0.1,0-0.2-0.1-0.3
				C212.8,274.4,212.6,274.4,212.5,274.4L212.5,274.4z"/>
			<path style="fill:#D20000;" d="M217.5,274.4c-0.1,0-0.3,0-0.4,0.1c-0.1,0.1-0.1,0.2-0.1,0.3v6c0,0.1,0,0.3,0.1,0.3
				c0.1,0.1,0.3,0.1,0.4,0.1c0.1,0,0.3,0,0.4-0.1c0.1-0.1,0.1-0.2,0.1-0.4v-2h0c0.3,0.4,0.7,0.6,1.2,0.6c0.4,0,0.8-0.1,1.1-0.3
				c0.3-0.2,0.6-0.5,0.7-0.9c0.2-0.4,0.3-0.8,0.3-1.3c0-0.4-0.1-0.7-0.2-1c-0.1-0.3-0.3-0.6-0.5-0.8c-0.2-0.2-0.4-0.4-0.7-0.5
				c-0.3-0.1-0.6-0.2-0.9-0.2c-0.6,0-0.8,0.2-1.1,0.6c0,0,0,0.1,0,0.1h0v-0.3c0-0.1,0-0.2-0.1-0.3
				C217.8,274.4,217.7,274.3,217.5,274.4L217.5,274.4z M219.2,275.2c0.3,0,0.4,0.1,0.6,0.3c0.2,0.2,0.3,0.4,0.4,0.7
				c0.1,0.3,0.1,0.4,0.1,0.7c0,0.4,0,0.5-0.1,0.7c-0.1,0.3-0.3,0.5-0.4,0.6c-0.2,0.2-0.4,0.3-0.6,0.3c-0.3,0-0.7-0.2-1-0.5
				c-0.2-0.3-0.3-0.6-0.3-1.2c0-0.3,0.1-0.5,0.2-0.7c0.1-0.3,0.2-0.5,0.5-0.7C218.8,275.3,218.9,275.2,219.2,275.2L219.2,275.2z"/>
			<path style="fill:#D20000;" d="M187.4,274.3c-0.8,0-1.5,0.5-1.9,1.2c-0.4,0.7-0.4,1.5-0.2,2.3c0.2,0.8,0.9,1.5,1.7,1.6
				c0.6,0.1,1.2-0.1,1.7-0.5c0.7-0.6,0.9-1.6,0.8-2.4c-0.1-0.8-0.6-1.7-1.4-2C187.9,274.4,187.6,274.3,187.4,274.3L187.4,274.3z
				 M187.4,275.2c0.4,0,0.8,0.3,1,0.7c0.3,0.5,0.3,1.3,0.1,1.8c-0.2,0.4-0.6,0.8-1.1,0.8c-0.3,0-0.7-0.2-0.9-0.5
				c-0.4-0.6-0.4-1.4-0.1-2.1C186.6,275.5,187,275.2,187.4,275.2L187.4,275.2z"/>
			<path style="fill:#D20000;" d="M177.2,274.4c0.3,0,0.5,0.2,0.5,0.5c0,1.4,0,2.8,0,4.1c0,0.4-0.6,0.6-0.8,0.3
				c-0.1-0.1-0.1-0.3-0.1-0.4c-0.2,0.2-0.3,0.4-0.6,0.5c-0.5,0.2-1,0.2-1.5-0.1c-0.7-0.4-1.2-1.2-1.2-2c-0.1-0.8,0.1-1.6,0.6-2.2
				c0.4-0.4,0.9-0.7,1.5-0.7c0.5,0,1,0.2,1.2,0.6c0,0,0-0.2,0-0.2C176.8,274.5,177,274.3,177.2,274.4L177.2,274.4z M175.5,275.2
				c-0.3,0-0.7,0.1-0.8,0.4c-0.3,0.4-0.4,1-0.4,1.5c0,0.6,0.3,1.2,0.9,1.4c0.4,0.1,0.9-0.1,1.2-0.4c0.3-0.3,0.4-0.7,0.4-1.1
				c0-0.4-0.1-0.9-0.3-1.3C176.3,275.4,176,275.2,175.5,275.2L175.5,275.2z"/>
		</g>
	</g>
</g>
</svg>
