<?xml version="1.0"?>
<svg xmlns="http://www.w3.org/2000/svg" xmlns:xlink="http://www.w3.org/1999/xlink" xmlns:svgjs="http://svgjs.com/svgjs" version="1.1" width="512" height="512" x="0" y="0" viewBox="0 0 512 512" style="enable-background:new 0 0 512 512" xml:space="preserve" class=""><g><path xmlns="http://www.w3.org/2000/svg" d="m512 256c0 141.386719-114.613281 256-256 256s-256-114.613281-256-256 114.613281-256 256-256 256 114.613281 256 256zm0 0" fill="#f1f1f1" data-original="#09ce67" style="" class=""/><path xmlns="http://www.w3.org/2000/svg" d="m512 256c0-22.132812-2.808594-43.605469-8.089844-64.089844l-72.910156-72.910156-350 234 158.453125 158.453125c5.472656.347656 10.984375.546875 16.546875.546875 141.386719 0 256-114.613281 256-256zm0 0" fill="#f1f1f1" data-original="#1aad5c" style="" class=""/><path xmlns="http://www.w3.org/2000/svg" d="m208 342h91v67h-91zm0 0" fill="#636978" data-original="#636978" style=""/><path xmlns="http://www.w3.org/2000/svg" d="m255.808594 342h43.191406v67h-43.191406zm0 0" fill="#555a66" data-original="#555a66" style=""/><path xmlns="http://www.w3.org/2000/svg" d="m81 119h350v234h-350zm0 0" fill="#414952" data-original="#414952" style=""/><path xmlns="http://www.w3.org/2000/svg" d="m255.808594 119h175.191406v234h-175.191406zm0 0" fill="#333940" data-original="#333940" style=""/><path xmlns="http://www.w3.org/2000/svg" d="m97.25 137h317.5v198h-317.5zm0 0" fill="#4a7aff" data-original="#4a7aff" style=""/><path xmlns="http://www.w3.org/2000/svg" d="m255.808594 137h158.941406v198h-158.941406zm0 0" fill="#2864f0" data-original="#2864f0" style=""/><path xmlns="http://www.w3.org/2000/svg" d="m218.046875 273.046875h-36.03125l-5.007813 16.953125h-32.402343l38.601562-102.710938h34.621094l38.59375 102.710938h-33.234375zm-6.582031-22.210937-11.335938-36.921876-11.222656 36.921876zm0 0" fill="#ffffff" data-original="#ffffff" style=""/><path xmlns="http://www.w3.org/2000/svg" d="m266.929688 187.289062h47.148437c9.296875 0 16.804687 1.261719 22.527344 3.785157 5.71875 2.523437 10.449219 6.144531 14.1875 10.859375 3.734375 4.71875 6.445312 10.207031 8.125 16.464844 1.683593 6.257812 2.523437 12.890624 2.523437 19.898437 0 10.976563-1.25 19.488281-3.75 25.535156-2.496094 6.050781-5.964844 11.117188-10.402344 15.203125-4.4375 4.085938-9.203124 6.808594-14.292968 8.160156-6.960938 1.871094-13.265625 2.804688-18.917969 2.804688h-47.148437zm31.738281 23.261719v56.117188h7.773437c6.632813 0 11.351563-.734375 14.152344-2.207031 2.804688-1.46875 5-4.039063 6.585938-7.707032 1.589843-3.664062 2.382812-9.609375 2.382812-17.828125 0-10.882812-1.773438-18.332031-5.324219-22.351562-3.550781-4.015625-9.433593-6.023438-17.652343-6.023438zm0 0" fill="#e9edf5" data-original="#e9edf5" style=""/><path xmlns="http://www.w3.org/2000/svg" d="m193 393h126v35h-126zm0 0" fill="#414952" data-original="#414952" style=""/><path xmlns="http://www.w3.org/2000/svg" d="m255.808594 393h63.191406v35h-63.191406zm0 0" fill="#333940" data-original="#333940" style=""/></g></svg>
