<?xml version="1.0"?>
<svg xmlns="http://www.w3.org/2000/svg" xmlns:xlink="http://www.w3.org/1999/xlink" xmlns:svgjs="http://svgjs.com/svgjs" version="1.1" width="512" height="512" x="0" y="0" viewBox="0 0 512 512" style="enable-background:new 0 0 512 512" xml:space="preserve" class=""><g>
<circle xmlns="http://www.w3.org/2000/svg" style="" cx="256" cy="256" r="256" fill="#f1f1f1" data-original="#ffdc00" class=""/>
<path xmlns="http://www.w3.org/2000/svg" style="" d="M506.873,307.206L259.667,60l1.501,18.501L242.667,60L87.333,305.333l77.306,77.306l-45.578,9.651  l119.08,119.08c5.902,0.407,11.854,0.63,17.858,0.63C379.848,512,483.15,424.053,506.873,307.206z M240.191,366.642l0.642-0.642  l0.418,0.418L240.191,366.642z" fill="#f1f1f1" data-original="#ffc000" class=""/>
<polygon xmlns="http://www.w3.org/2000/svg" style="" points="242.667,60 242.667,330 87.333,305.333 " fill="#ff3f84" data-original="#ff3f84"/>
<g xmlns="http://www.w3.org/2000/svg">
	<polygon style="" points="259.667,60 259.667,330 396,330  " fill="#983262" data-original="#983262" class=""/>
	<path style="" d="M422.667,337.333h-354l57.672,62.892c12.528,13.663,30.215,21.441,48.752,21.441h193.576   L422.667,337.333z" fill="#983262" data-original="#983262" class=""/>
</g>
<polygon xmlns="http://www.w3.org/2000/svg" style="" points="422.667,337.333 256.333,337.333 256.333,421.667 368.667,421.667 " fill="#662e57" data-original="#662e57"/>
<g xmlns="http://www.w3.org/2000/svg">
</g>
<g xmlns="http://www.w3.org/2000/svg">
</g>
<g xmlns="http://www.w3.org/2000/svg">
</g>
<g xmlns="http://www.w3.org/2000/svg">
</g>
<g xmlns="http://www.w3.org/2000/svg">
</g>
<g xmlns="http://www.w3.org/2000/svg">
</g>
<g xmlns="http://www.w3.org/2000/svg">
</g>
<g xmlns="http://www.w3.org/2000/svg">
</g>
<g xmlns="http://www.w3.org/2000/svg">
</g>
<g xmlns="http://www.w3.org/2000/svg">
</g>
<g xmlns="http://www.w3.org/2000/svg">
</g>
<g xmlns="http://www.w3.org/2000/svg">
</g>
<g xmlns="http://www.w3.org/2000/svg">
</g>
<g xmlns="http://www.w3.org/2000/svg">
</g>
<g xmlns="http://www.w3.org/2000/svg">
</g>
</g></svg>
