<?xml version="1.0"?>
<svg xmlns="http://www.w3.org/2000/svg" xmlns:xlink="http://www.w3.org/1999/xlink" xmlns:svgjs="http://svgjs.com/svgjs" version="1.1" width="512" height="512" x="0" y="0" viewBox="0 0 512 512" style="enable-background:new 0 0 512 512" xml:space="preserve" class=""><g><g xmlns="http://www.w3.org/2000/svg"><circle cx="256" cy="256" fill="#f1f1f1" r="256" data-original="#f8e884" style="" class=""/><path d="m512 256c0-28.231-4.582-55.39-13.022-80.787l-122.978-122.978-117.706 122.647-98.086-98.086-24.207 24.207 104.999 104.998-78.292 78.292 66.632 66.632-85.002 85.002-19.131-19.131-24.207 24.207 47.278 47.278c32.747 15.211 69.238 23.719 107.722 23.719 141.385 0 256-114.615 256-256z" fill="#f1f1f1" data-original="#f5db48" style="" class=""/><path d="m101 411v30h155l10.647-15-10.647-15-52.5-15.529-52.5 15.529z" fill="#1dd882" data-original="#1dd882" style=""/><path d="m136 52.235v48.765h15l54.769 11.235 50.231-11.235 15-14.995-15-33.77z" fill="#20254d" data-original="#20254d" style="" class=""/><path d="m411 411h-50l-52.5-15.529-52.5 15.529v30h155z" fill="#2cc47f" data-original="#2cc47f" style=""/><path d="m376 52.235h-120v48.765l50.231 11.235 54.769-11.235h15z" fill="#141835" data-original="#141835" style=""/><path d="m151 101v310h45l7.5-4.118 7.5 4.118h15l30-25.235 30-129.765-30-155z" fill="#e6e4f0" data-original="#e6e4f0" style="" class=""/><path d="m361 101h-105v284.765l30 25.235h15l7.5-5.294 7.5 5.294h45z" fill="#cdcde3" data-original="#cdcde3" style="" class=""/><path d="m211 336-7.5-6.882-7.5 6.882v75h15z" fill="#f1f1f1" data-original="#f8e884" style="" class=""/><path d="m316 336-7.5-6.882-7.5 6.882v75h15z" fill="#f1f1f1" data-original="#f5db48" style="" class=""/><path d="m226 336v75h30l10.647-37.5-10.647-37.5-15.471-6.882z" fill="#87c7ff" data-original="#87c7ff" style="" class=""/><path d="m286 336-15-6.882-15 6.882v75h30z" fill="#65b1fc" data-original="#65b1fc" style=""/><path d="m256 276c-33.137 0-60 26.863-60 60h60l10.647-29z" fill="#ff4a4a" data-original="#ff4a4a" style="" class=""/><path d="m316 336c0-33.137-26.863-60-60-60v60z" fill="#d0004f" data-original="#d0004f" style=""/><path d="m181 191h30v30h-30z" fill="#87c7ff" data-original="#87c7ff" style="" class=""/><path d="m301 191h30v30h-30z" fill="#65b1fc" data-original="#65b1fc" style=""/><path d="m241 191v30h15l5.529-15-5.529-15z" fill="#87c7ff" data-original="#87c7ff" style="" class=""/><path d="m256 191h15v30h-15z" fill="#65b1fc" data-original="#65b1fc" style=""/><path d="m181 131h30v30h-30z" fill="#87c7ff" data-original="#87c7ff" style="" class=""/><path d="m301 131h30v30h-30z" fill="#65b1fc" data-original="#65b1fc" style=""/><path d="m241 131v30h15l5.529-15-5.529-15z" fill="#87c7ff" data-original="#87c7ff" style="" class=""/><path d="m256 131h15v30h-15z" fill="#65b1fc" data-original="#65b1fc" style=""/><path d="m198.5 64.118h25v25h-25z" fill="#f1f1f1" data-original="#f8e884" style="" class=""/><path d="m288.5 64.118h25v25h-25z" fill="#f1f1f1" data-original="#f5db48" style="" class=""/><path d="m243.5 64.118v25h12.5l3.941-12.5-3.941-12.5z" fill="#f1f1f1" data-original="#f8e884" style="" class=""/><path d="m256 64.118h12.5v25h-12.5z" fill="#f1f1f1" data-original="#f5db48" style="" class=""/></g></g></svg>
