<?xml version="1.0" encoding="utf-8"?>
<svg version="1.1" id="Layer_1" xmlns="http://www.w3.org/2000/svg" xmlns:xlink="http://www.w3.org/1999/xlink" x="0px" y="0px"
	width="100px" height="100px" viewBox="0 0 205.8 205.8" style="enable-background:new 0 0 205.8 205.8;" xml:space="preserve">
<g>
	<circle style="fill:#E8E8E8;" cx="102.9" cy="102.9" r="102.9"/>
	<circle style="fill:#FFFFFF;" cx="102.9" cy="102.9" r="100.8"/>
	<path d="M163.6,144.9c-2.3,5.1-4.9,10.1-8,14.6c-4.3,6-7.8,10.3-10.5,12.6c-4.1,3.9-8.6,5.8-13.4,6c-3.5,0-7.6-1-12.3-2.9
		c-4.9-2.1-9.3-2.9-13.4-2.9c-4.3,0-8.8,1-13.8,2.9c-4.9,2.1-8.8,3.1-11.9,3.1c-4.5,0.2-9.3-1.9-13.8-6c-2.9-2.5-6.6-6.8-10.9-13
		c-4.7-6.6-8.6-14.2-11.5-22.8c-3.3-9.5-4.9-18.5-4.9-27.4c0-10.1,2.3-18.7,6.6-26.1c3.5-5.8,8-10.5,13.8-13.8
		C65,65.9,71.4,64,78,64c3.7,0,8.4,1,14.4,3.3c6,2.3,9.7,3.3,11.3,3.3c1.2,0,5.4-1.2,12.6-3.9c6.8-2.5,12.6-3.5,17.1-3.1
		c12.6,1,22.2,6,28.6,15c-11.3,6.8-16.9,16.5-16.9,28.8c0,9.7,3.5,17.7,10.5,23.9c3.1,2.9,6.6,5.1,10.5,6.8
		C165.5,140.4,164.6,142.8,163.6,144.9L163.6,144.9L163.6,144.9z M134.6,30.7c0,7.6-2.7,14.6-8.2,21c-6.6,7.8-14.6,12.1-23.3,11.5
		c-0.2-1-0.2-1.9-0.2-2.9c0-7.2,3.1-15,8.6-21.4c2.9-3.3,6.4-6,10.7-8c4.3-2.1,8.4-3.3,12.1-3.5C134.6,28.6,134.6,29.6,134.6,30.7z"
		/>
</g>
</svg>
