<?xml version="1.0" encoding="utf-8"?>
<svg version="1.1" id="Layer_1" xmlns="http://www.w3.org/2000/svg" xmlns:xlink="http://www.w3.org/1999/xlink" x="0px" y="0px"
	width="100px" height="100px" viewBox="0 0 100 100" style="enable-background:new 0 0 100 100;" xml:space="preserve">
<g>
	<path style="fill:#E8E8E8;" d="M50,0c27.61,0,50,22.39,50,50s-22.39,50-50,50S0,77.61,0,50S22.39,0,50,0"/>
	<path style="fill:#FFFFFF;" d="M50,1c27.06,0,49,21.94,49,49S77.06,99,50,99S1,77.06,1,50S22.94,1,50,1"/>
	<g>
		<g>
			<path style="fill:#F8EC00;" d="M73.28,78.33H26.72V21.67h46.57V78.33z"/>
			<path style="fill:#1561AC;" d="M73.5,78.55h-47V21.45h47V78.55z M26.93,78.11h46.13V21.89H26.93V78.11z"/>
		</g>
		<g>
			<path style="fill:#1561AC;" d="M31.87,62.92h36.15v-9.55l-24.97,0v-3.58h24.97v-9.66l-24.97,0v-3.69h24.97v-9.44l-36.15,0V62.92z
				 M39.52,73.07v-6.41h1.7c1.27,0,2.16,0.02,2.68,0.11c0.9,0.16,2.64,1.04,2.64,3.12c0,1.76-1.46,2.92-2.6,3.12
				c-0.51,0.09-1.3,0.05-2.36,0.05L39.52,73.07L39.52,73.07z M41.51,71.41c0,0,1.22,0.01,1.68,0.01c0.75,0,1.43-0.8,1.43-1.56
				c0-0.73-0.62-1.45-1.43-1.45c-0.49,0-1.68-0.01-1.68-0.01V71.41z M54.97,73.07v-6.41h1.91v2.48l2.25-2.48h2.59l-2.49,2.76
				l2.73,3.65h-2.54l-1.56-2.15l-0.98,1.01v1.14H54.97z M62.1,73.07l2.11-6.41h3.07l2.12,6.41h-1.92l-0.47-1.26h-2.53l-0.48,1.26
				H62.1z M65.02,70.23h1.49l-0.75-2.21L65.02,70.23z"/>
		</g>
		<g>
			<path style="fill:none;" d="M34.13,69.08h4.21v-0.79h-4.21V69.08z M34.13,71.41h4.21v-0.74h-4.21V71.41z"/>
		</g>
		<g>
			<path style="fill:#1561AC;" d="M34.13,71.41v-0.74h4.21v-1.59h-4.21v-0.79h4.21v-1.63h-6.39v6.41h6.39v-1.66H34.13z M49.54,71.41
				v-0.74h4.21v-1.59h-4.21v-0.79h4.21v-1.63h-6.39v6.41h6.39v-1.66H49.54z"/>
		</g>
	</g>
</g>
</svg>
