<?xml version="1.0" encoding="utf-8"?>
<svg version="1.1" id="Layer_1" xmlns="http://www.w3.org/2000/svg" xmlns:xlink="http://www.w3.org/1999/xlink" x="0px" y="0px"
	 viewBox="0 0 1254.06 698.58" style="enable-background:new 0 0 1254.06 698.58;" xml:space="preserve">
<g>
	<path style="fill:#134B97;" d="M339.54,291.61v-32.78H280v201h61V348.44c10.45-23.27,28.09-34.91,52.91-34.92
		c7.24-0.03,14.47,0.68,21.56,2.14v-57.72c-5.23-1.9-11.59-2.85-19.07-2.85C375.71,255.09,356.76,267.26,339.54,291.61z"/>
	<path style="fill:#134B97;" d="M610.58,433.3c19.66-20,29.49-44.73,29.49-74.2c0-29.22-9.83-53.87-29.49-73.94
		c-19.66-20.07-44.07-30.11-73.23-30.11c-29.16,0-53.54,10.08-73.13,30.25c-19.59,20.17-29.39,44.77-29.4,73.8
		c0,29.03,9.8,53.66,29.4,73.88c19.6,20.22,43.98,30.33,73.13,30.34C566.51,463.35,590.92,453.34,610.58,433.3z M505.11,393.82
		c-8.37-9.43-12.56-20.99-12.56-34.68c0-13.46,4.19-24.93,12.56-34.41s19.12-14.22,32.25-14.23c13.12,0,23.9,4.74,32.34,14.23
		c8.44,9.49,12.66,20.96,12.65,34.41c0,13.58-4.22,25.11-12.65,34.59s-19.21,14.22-32.34,14.22
		C524.23,407.95,513.48,403.24,505.11,393.82z"/>
	<path style="fill:#134B97;" d="M995.65,255.09c-28.27,0-52.2,9.86-71.8,29.58c-19.6,19.72-29.4,44.54-29.4,74.47
		c0,30.67,9.38,55.7,28.15,75.09c18.77,19.39,43.35,29.1,73.76,29.13c20.43,0,37.89-3.81,52.38-11.44
		c15.08-8.09,28.59-18.79,39.91-31.62l-44.18-24.71c-11.4,10.4-26.25,15.6-44.54,15.6c-26.25,0-41.69-11.64-46.32-34.92h138.26
		c0.03-1.64,0.15-3.27,0.36-4.9c0.23-2.07,0.41-3.97,0.53-5.7c0.12-1.72,0.18-3.17,0.18-4.36c0-29.45-9.09-54.51-27.26-75.18
		S1024.16,255.12,995.65,255.09z M954.32,340.09c2.97-11.15,8.01-19.76,15.14-25.82c6.92-5.98,15.79-9.22,24.94-9.09
		c9.03,0,17.19,3.52,24.5,10.55c7.31,7.03,11.67,15.16,13.1,24.37L954.32,340.09z"/>
	<path style="fill:#134B97;" d="M1235,255.09c-20.67,0-39.61,12.18-56.83,36.53v-32.79h-59.51v201h60.93V348.44
		c10.45-23.27,28.09-34.91,52.91-34.92c7.24-0.03,14.47,0.68,21.56,2.14v-57.72C1248.8,256.04,1242.45,255.09,1235,255.09z"/>
	<path style="fill:#134B97;" d="M221.3,220.91c0.9-6.91,1.44-13.87,1.62-20.84H223c0-78.63,64-142.6,142.6-142.6
		s142.6,64,142.6,142.6h57.47C565.67,89.75,475.92,0,365.6,0c-109.17,0-198.14,87.9-200,196.64h-0.1
		c-0.04,5.66-0.44,11.32-1.19,16.93c-2.63,20.42-10.25,49.86-31.61,74.13c-16.71,19-39.57,31.86-68.21,38.56V192.73H0V459.8h64.5
		v-74.83c18.94-3.18,37.37-8.9,54.79-17l58.16,91.82h77.15l-85.11-127.34c2.16-2.21,4.29-4.46,6.35-6.79
		C206.79,290.48,217.64,249.3,221.3,220.91z"/>
	<path style="fill:#134B97;" d="M868.71,518.57V258.83h-58.08v17.11c-13.66-13.9-30.94-20.85-51.84-20.85
		c-25.78,0-48.11,9.69-67,29.08c-18.89,19.39-28.33,43.43-28.33,72.13c0,28.55,9.67,52.35,29,71.4
		c19.33,19.05,41.43,28.57,66.28,28.56c20.19-0.12,37.71-5.68,52.56-16.68c0,0.4,0,60.57,0,79l0,0
		c-0.61,67.69-55.98,122.07-123.67,121.46c-66.83-0.6-120.85-54.63-121.46-121.46h-57.46c0,99.27,80.76,180,180,180
		c97.48,0,177.06-77.89,179.9-174.7h0.07v-2.74c0-0.87,0.07-1.72,0.07-2.59L868.71,518.57z M798.61,390.37
		c-8.25,9.11-19.09,13.66-32.52,13.66c-13.19,0-23.97-4.55-32.34-13.66c-8.37-9.11-12.56-20.44-12.56-34
		c0-13.55,4.19-24.88,12.56-34c8.37-9.12,19.15-13.68,32.34-13.67c13.3,0,24.11,4.56,32.43,13.67s12.48,20.45,12.47,34
		c0.01,13.55-4.12,24.89-12.39,34H798.61z"/>
	<path style="fill:#134B97;" d="M913.59,612.19c-0.26,12.19-10.35,21.86-22.54,21.61c-11.83-0.25-21.35-9.78-21.61-21.61
		c0-11.92,9.83-21.49,22.14-21.49S913.59,600.3,913.59,612.19z M874.94,612.19c0,9.56,7.08,17.16,16.77,17.16
		c9.43,0,16.38-7.6,16.38-17s-6.94-17.29-16.51-17.29s-16.63,7.7-16.63,17.13H874.94z M888.17,623.46h-5v-21.49
		c2.72-0.48,5.49-0.7,8.25-0.65c4.06,0,5.9,0.65,7.47,1.57c1.38,1.18,2.15,2.91,2.1,4.72c0,2.36-1.83,4.19-4.45,5v0.26
		c2.09,0.79,3.27,2.36,3.93,5.24c0.66,3.27,1,4.58,1.57,5.37h-5.37c-0.66-0.79-1-2.75-1.7-5.24c-0.39-2.36-1.7-3.41-4.46-3.41h-2.36
		L888.17,623.46z M888.3,611.28h2.36c2.75,0,5-0.92,5-3.14c0-2-1.44-3.28-4.58-3.28c-0.92-0.02-1.85,0.07-2.75,0.26L888.3,611.28z"
		/>
</g>
</svg>
