<?xml version="1.0"?>
<svg xmlns="http://www.w3.org/2000/svg" xmlns:xlink="http://www.w3.org/1999/xlink" xmlns:svgjs="http://svgjs.com/svgjs" version="1.1" width="512" height="512" x="0" y="0" viewBox="0 0 512 512" style="enable-background:new 0 0 512 512" xml:space="preserve" class=""><g><path xmlns="http://www.w3.org/2000/svg" d="m512 256c0 141.386719-114.613281 256-256 256s-256-114.613281-256-256 114.613281-256 256-256 256 114.613281 256 256zm0 0" fill="#f1f1f1" data-original="#bd6018" style="" class=""/><path xmlns="http://www.w3.org/2000/svg" d="m511.792969 265.855469-67.332031-67.332031-.582032.496093-39.414062-39.410156-22.746094 24.199219-79.902344-79.90625-191.601562 91.058594 30.226562 30.226562-72.902344 54.789062 64.523438 64.527344-27.871094 43.777344 121.980469 121.980469c9.789063 1.132812 19.734375 1.738281 29.828125 1.738281 138.085938 0 250.613281-109.332031 255.792969-246.144531zm0 0" fill="#f1f1f1" data-original="#7f4233" style="" class=""/><path xmlns="http://www.w3.org/2000/svg" d="m202.261719 117.230469-84.113281 34.390625c-9.832032 4.019531-16.253907 13.589844-16.253907 24.210937 0 14.445313 11.707031 26.15625 26.15625 26.15625h127.949219zm0 0" fill="#ffbeaa" data-original="#ffbeaa" style="" class=""/><path xmlns="http://www.w3.org/2000/svg" d="m238.378906 187.972656c-.320312 0-.640625-.019531-.964844-.050781l-79.351562-8.4375c-4.945312-.523437-8.527344-4.957031-8-9.898437.523438-4.945313 4.953125-8.519532 9.902344-8l79.351562 8.433593c4.945313.527344 8.523438 4.957031 8 9.902344-.492187 4.617187-4.394531 8.050781-8.9375 8.050781zm0 0" fill="#faa68e" data-original="#faa68e" style="" class=""/><path xmlns="http://www.w3.org/2000/svg" d="m309.738281 117.230469 84.113281 34.390625c9.832032 4.019531 16.253907 13.589844 16.253907 24.210937 0 14.445313-11.707031 26.15625-26.15625 26.15625h-127.949219zm0 0" fill="#faa68e" data-original="#faa68e" style="" class=""/><path xmlns="http://www.w3.org/2000/svg" d="m273.621094 187.972656c-4.542969 0-8.445313-3.433594-8.9375-8.050781-.523438-4.945313 3.058594-9.375 8-9.902344l79.355468-8.433593c4.953126-.519532 9.375 3.054687 9.898438 8 .527344 4.941406-3.054688 9.375-7.996094 9.898437l-79.355468 8.4375c-.324219.03125-.644532.050781-.964844.050781zm0 0" fill="#e09380" data-original="#e09380" style=""/><path xmlns="http://www.w3.org/2000/svg" d="m314.402344 140.121094c0 32.253906-26.148438 58.398437-58.402344 58.398437s-58.402344-26.144531-58.402344-58.398437 26.148438-58.402344 58.402344-58.402344 58.402344 26.148438 58.402344 58.402344zm0 0" fill="#ffdecf" data-original="#ffdecf" style="" class=""/><path xmlns="http://www.w3.org/2000/svg" d="m256 81.71875c-.097656 0-.191406.007812-.285156.007812v116.789063c.09375 0 .1875.003906.285156.003906 32.253906 0 58.402344-26.144531 58.402344-58.398437s-26.148438-58.402344-58.402344-58.402344zm0 0" fill="#ffcdbe" data-original="#ffcdbe" style=""/><path xmlns="http://www.w3.org/2000/svg" d="m104.191406 253.722656h35.652344v134.558594h-35.652344zm0 0" fill="#e6e6e6" data-original="#e6e6e6" style="" class=""/><path xmlns="http://www.w3.org/2000/svg" d="m372.15625 253.722656h35.652344v134.558594h-35.652344zm0 0" fill="#d7d7d7" data-original="#d7d7d7" style=""/><path xmlns="http://www.w3.org/2000/svg" d="m67.539062 198.523438h376.921876v81.453124h-376.921876zm0 0" fill="#ffffff" data-original="#ffffff" style="" class=""/><path xmlns="http://www.w3.org/2000/svg" d="m255.714844 198.519531h188.746094v81.457031h-188.746094zm0 0" fill="#cbe8fe" data-original="#cbe8fe" style=""/></g></svg>
