<?xml version="1.0" encoding="utf-8"?>
<svg version="1.1" id="Layer_1" xmlns="http://www.w3.org/2000/svg" xmlns:xlink="http://www.w3.org/1999/xlink" x="0px" y="0px"
	 viewBox="0 0 1920 1280" enable-background="new 0 0 1920 1280" xml:space="preserve">
<g>
	<path fill="#0B0B0A" d="M1325.2,769.5c-58.9,61-155.8,62.3-216.1,3.5c-1.4-1.4-2.1-2.1-3.5-3.5c-27.7-29.8-43.6-76.2-43.6-128.8
		c0-51.3,15.9-97.7,43.6-127.4c58.2-60.3,153.8-62.3,214-4.8c1.4,1.4,3.5,2.8,4.8,4.8c27.7,29.8,43.6,76.2,43.6,127.4
		C1368.9,693.3,1353,739.7,1325.2,769.5z M938.8,640v6.9c-44.3-40.2-108.1-55.4-146.8-63c-72-15.2-127.4-29.1-127.4-80.3
		c0-36,32.6-62.3,94.9-58.2c56.8,4.2,81,38.8,87.3,72.7c0.7,5.5,3.5,9.7,9.7,9.7l102.5,0.7h1.4C945.7,563.8,938.8,601.9,938.8,640
		L938.8,640z M764.2,829.1c-49.9,0-103.9-17.3-117.1-85.9c-1.4-6.2-4.2-9-9-9l-99-1.4V557.6c13.2,51.3,56.1,87.3,149.6,108.1
		c62.3,15.2,170.4,24.2,170.4,88.7C859.8,798.6,826.5,829.8,764.2,829.1L764.2,829.1z M271,815.9c-79.7,0-153.1-63-153.1-175.9
		c0-88.7,54.7-173.9,153.8-173.9c42.9,0,151,14.5,151,173.9S309.1,815.9,271,815.9z M1489.4,597.7c22.9,30.5,63.7,52.6,130.2,67.9
		c62.3,15.2,171.1,24.2,171.1,88.7c0,44.3-33.2,76.2-95.6,74.8c-49.2,0-103.9-17.3-117.1-85.9c-0.7-6.2-4.2-9-9-9l-91.4-1.4
		c9.7-29.8,14.5-61,14.5-92.1C1492.2,626.1,1491.5,611.6,1489.4,597.7L1489.4,597.7z M1688.2,918.4c110.1,0,239.7-40.9,229.3-173.9
		c-11.1-117.7-133.7-147.5-195.3-160c-72-15.2-127.4-29.1-127.4-80.3c0-36,32.6-62.3,94.9-58.2c56.8,4.2,81,38.8,87.3,72.7
		c0.7,5.5,3.5,9.7,9.7,9.7l102.5,0.7c7.6,0,10.4-4.2,9-9.7c-18.7-123.3-121.2-157.9-215.4-157.9c-94.2,0-207.8,26.3-216.1,144.1
		c0,4.8-0.7,9-0.7,13.2c-47.1-95.6-144.1-156.5-250-157.2h-2.1c-33.2,0-65.8,6.2-97,18.7c-63.7,25.6-116.4,72.7-148.2,133.7
		c-22.2-118.4-123.3-152.4-216.1-152.4c-86.6,0-189.8,22.2-211.9,117.1v-93.5c0-4.8-4.2-9-9-9h-97c-4.8,0-9,4.2-9,9V410
		c0,4.2-2.8,5.5-6.2,3.5c-35.3-24.9-85.9-51.9-146.8-51.9c-33.2,0-66.5,6.2-97.7,18c-31.9,12.5-61,31.2-85.9,54
		c-29.1,25.6-51.9,57.5-68.6,92.8c-29.3,71.3-30,150.3-2.3,221.6c41.6,103.9,142.7,171.1,254.2,170.4
		c53.3-0.7,104.6-19.4,145.5-52.6c3.5-2.8,6.2-1.4,6.2,3.5v25.6c0,4.8,4.2,9,9,9h96.3c4.8,0,9-4.2,9-9v-89.4
		c45.7,107.4,161.4,112.9,218.2,112.9c94.9,0,204.3-30.5,225.8-124c10.4,15.2,22.2,29.8,35.3,42.9c51.9,51.9,122.6,81,196,81h3.5
		c36,0,71.3-6.9,104.6-20.8c33.2-13.9,63-34.6,88.7-60.3c18.7-18.7,35.3-40.2,47.8-63.7C1493.6,911.5,1625.9,918.4,1688.2,918.4
		L1688.2,918.4z"/>
</g>
</svg>
