<?xml version="1.0"?>
<svg xmlns="http://www.w3.org/2000/svg" xmlns:xlink="http://www.w3.org/1999/xlink" xmlns:svgjs="http://svgjs.com/svgjs" version="1.1" width="512" height="512" x="0" y="0" viewBox="0 0 512 512" style="enable-background:new 0 0 512 512" xml:space="preserve" class=""><g><circle xmlns="http://www.w3.org/2000/svg" cx="256" cy="256" fill="#f1f1f1" r="256" data-original="#ffce00" style="" class=""/><path xmlns="http://www.w3.org/2000/svg" d="m512 256c0-8.638-.428-17.176-1.264-25.594l-127.652-127.652-320.12 99.68 130.206 130.205-76.467 40.467 138.893 138.894h.404c141.385 0 256-114.615 256-256z" fill="#f1f1f1" data-original="#ffa300" style="" class=""/><circle xmlns="http://www.w3.org/2000/svg" cx="182.386" cy="315.888" fill="#bf947a" r="87.112" data-original="#bf947a" style="" class=""/><path xmlns="http://www.w3.org/2000/svg" d="m95.276 316.024c.074 48.048 39.045 86.976 87.11 86.976s87.037-38.928 87.11-86.976z" fill="#a37862" data-original="#a37862" style="" class=""/><circle xmlns="http://www.w3.org/2000/svg" cx="182.386" cy="315.888" fill="#cfa388" r="57.218" data-original="#cfa388" style="" class=""/><path xmlns="http://www.w3.org/2000/svg" d="m125.172 316.024c.074 31.538 25.659 57.082 57.214 57.082s57.141-25.544 57.214-57.082z" fill="#b2876d" data-original="#b2876d" style=""/><circle xmlns="http://www.w3.org/2000/svg" cx="182.386" cy="315.888" fill="#b2876d" r="25.03" data-original="#b2876d" style=""/><path xmlns="http://www.w3.org/2000/svg" d="m157.359 316.024c.073 13.761 11.249 24.895 25.027 24.895s24.954-11.134 25.027-24.895z" fill="#966857" data-original="#966857" style="" class=""/><path xmlns="http://www.w3.org/2000/svg" d="m361.924 403c48.111 0 87.112-39.001 87.112-87.112s-39.001-87.112-87.112-87.112h-179.538c48.111 0 87.112 39.001 87.112 87.112s-39.001 87.112-87.112 87.112z" fill="#a37862" data-original="#a37862" style="" class=""/><path xmlns="http://www.w3.org/2000/svg" d="m269.496 316.024c-.073 48.048-39.045 86.976-87.11 86.976h179.537c48.065 0 87.037-38.928 87.11-86.976z" fill="#8d5c4d" data-original="#8d5c4d" style="" class=""/><path xmlns="http://www.w3.org/2000/svg" d="m391.698 278.167h-111.24c-7.576 0-13.718-6.142-13.718-13.718 0-7.576 6.142-13.718 13.718-13.718h111.24c7.576 0 13.718 6.142 13.718 13.718.001 7.576-6.141 13.718-13.718 13.718z" fill="#b2876d" data-original="#b2876d" style=""/><path xmlns="http://www.w3.org/2000/svg" d="m391.698 381.046h-111.24c-7.576 0-13.718-6.142-13.718-13.718 0-7.577 6.142-13.718 13.718-13.718h111.24c7.576 0 13.718 6.142 13.718 13.718.001 7.576-6.141 13.718-13.718 13.718z" fill="#966857" data-original="#966857" style="" class=""/><path xmlns="http://www.w3.org/2000/svg" d="m419.975 329.607h-111.24c-7.576 0-13.718-6.142-13.718-13.718 0-7.577 6.142-13.718 13.718-13.718h111.24c7.577 0 13.718 6.142 13.718 13.718.001 7.576-6.141 13.718-13.718 13.718z" fill="#b2876d" data-original="#b2876d" style=""/><path xmlns="http://www.w3.org/2000/svg" d="m295.024 316.024c.074 7.513 6.181 13.583 13.712 13.583h111.24c7.531 0 13.638-6.07 13.712-13.583z" fill="#966857" data-original="#966857" style="" class=""/><path xmlns="http://www.w3.org/2000/svg" d="m62.965 151.124v51.309c111.451 0 222.901-28.733 334.351-28.733 0-17.103 0-34.206 0-51.309-111.45 0-222.901 28.733-334.351 28.733z" fill="#d9351c" data-original="#d9351c" style="" class=""/><path xmlns="http://www.w3.org/2000/svg" d="m358.979 293.371c32.032-5.558 52.672-23.295 52.672-23.295l-7.543-15.086c-13.826-27.652-21.024-58.144-21.024-89.06v-63.177h-86.722v63.177c0 21.67-3.55 43.128-10.427 63.55 35.331 4.503 64.046 30.172 73.044 63.891z" fill="#ffffff" data-original="#ffffff" style=""/><path xmlns="http://www.w3.org/2000/svg" d="m411.651 270.077-7.543-15.086c-13.826-27.652-21.024-58.144-21.024-89.06v-63.177h-44.156v154.176c9.384 10.202 16.369 22.646 20.051 36.441 32.032-5.558 52.672-23.294 52.672-23.294z" fill="#e9edf5" data-original="#e9edf5" style=""/><path xmlns="http://www.w3.org/2000/svg" d="m358.979 293.371c32.032-5.558 52.672-23.295 52.672-23.295l-7.543-15.086c-3.241-6.482-6.103-13.124-8.608-19.886-14.28 7.679-37.121 16.337-64.805 13.964 13.549 11.344 23.594 26.729 28.284 44.303z" fill="#e9edf5" data-original="#e9edf5" style=""/><path xmlns="http://www.w3.org/2000/svg" d="m411.651 270.077-7.543-15.086c-3.241-6.481-6.103-13.124-8.608-19.886-12.838 6.904-32.598 14.593-56.572 14.353v7.49c9.381 10.2 16.37 22.632 20.05 36.424 32.033-5.559 52.673-23.295 52.673-23.295z" fill="#cdd2e1" data-original="#cdd2e1" style=""/></g></svg>
