<?xml version="1.0" encoding="utf-8"?>
<svg version="1.1" id="Layer_1" xmlns="http://www.w3.org/2000/svg" xmlns:xlink="http://www.w3.org/1999/xlink" x="0px" y="0px"
	width="100px" height="100px" viewBox="0 0 100 100" style="enable-background:new 0 0 100 100;" xml:space="preserve">
<g>
	<path style="fill:#E8E8E8;" d="M50,0c27.61,0,50,22.39,50,50s-22.39,50-50,50S0,77.61,0,50S22.39,0,50,0"/>
	<path style="fill:#FFFFFF;" d="M50,1c27.06,0,49,21.94,49,49S77.06,99,50,99S1,77.06,1,50S22.94,1,50,1"/>
	<g>
		<path style="fill:#494B57;" d="M58.68,60.2c-1.97-0.42-3.58-1.54-4.28-2.99c-0.31-0.62-0.35-0.88-0.35-1.88
			c0-1.44,0.3-2.17,1.25-3.06c0.9-0.85,2.06-1.36,4.97-2.21c3.46-1.01,4.01-1.29,4.03-2.11c0.02-0.56-0.34-1.03-1.03-1.35
			c-0.86-0.4-2.81-0.4-3.56,0c-0.73,0.39-1.11,0.84-1.28,1.53l-0.15,0.6l-1.79-0.02c-0.98-0.01-1.83-0.06-1.87-0.11
			c-0.16-0.17,0.15-1.77,0.48-2.44c0.64-1.32,1.46-1.99,3.09-2.55c1.34-0.46,4.23-0.59,5.73-0.25c1.99,0.44,3.41,1.45,4.03,2.85
			c0.47,1.05,0.61,2.72,0.53,6.08c-0.05,2.13-0.12,3.11-0.28,3.67c-0.8,2.91-3.27,4.46-7.07,4.43C60.27,60.39,59.17,60.3,58.68,60.2
			L58.68,60.2z M62.03,57.13c0.8-0.24,1.62-0.93,1.98-1.67c0.22-0.46,0.29-0.89,0.34-2.06c0.03-0.81,0.04-1.48,0.01-1.48
			c-0.34,0-4.66,1.38-5.06,1.61c-0.73,0.43-1.07,1.02-1.07,1.84c0,0.59,0.05,0.71,0.49,1.15c0.27,0.27,0.69,0.55,0.93,0.63
			C60.29,57.36,61.29,57.35,62.03,57.13z M81.7,60.22c-0.77-0.21-1.51-0.69-1.95-1.27c-0.71-0.93-0.71-0.92-0.71-10.39v-8.73
			l1.4,0.04c1.17,0.04,1.46,0.09,1.76,0.31c0.54,0.4,0.8,1.04,0.91,2.24l0.1,1.09l1.64,0.04l1.64,0.04l0,0.8
			c0,1.57-0.74,2.27-2.41,2.28l-0.93,0v9.86l0.31,0.33c0.17,0.18,0.52,0.37,0.78,0.42c0.47,0.09,1.65,0,2.05-0.15
			c0.19-0.07,0.2,0.08,0.17,1.44l-0.04,1.52l-0.77,0.16C84.66,60.44,82.49,60.43,81.7,60.22L81.7,60.22z M50.47,59.96
			c-0.64-0.23-1.09-0.65-1.38-1.29c-0.22-0.47-0.24-0.93-0.24-5.72c0-5.73-0.01-5.76-0.81-6.35c-0.55-0.4-1.96-0.45-2.71-0.09
			c-1.01,0.49-0.98,0.29-0.98,7.32v6.18h-4.11v-6.24c0-7.01,0.03-6.77-0.94-7.24c-1.11-0.54-2.62-0.29-3.23,0.54
			c-0.26,0.35-0.27,0.52-0.3,6.49c-0.02,3.37-0.03,6.2-0.03,6.29c0,0.12-0.5,0.16-2.06,0.16h-2.05l0-5.99c0-6.17,0.08-7.43,0.5-8.25
			c0.35-0.69,1.26-1.53,2.05-1.9c1.94-0.92,5.73-0.93,7.52-0.03l0.49,0.25L43,43.77c1.13-0.45,1.92-0.58,3.54-0.58
			c2.49,0,3.94,0.47,5.14,1.67c1.24,1.23,1.2,0.95,1.25,8.65l0.04,6.65l-1-0.01C51.41,60.14,50.74,60.06,50.47,59.96L50.47,59.96z
			 M69.92,53.42c0-3.93,0.05-6.88,0.13-7.29c0.26-1.39,1.16-2.34,2.58-2.74c0.85-0.24,2.89-0.27,4.29-0.06l0.97,0.14v3.05
			l-0.42-0.09c-0.23-0.05-0.86-0.09-1.4-0.09c-0.8,0-1.06,0.05-1.35,0.27c-0.69,0.51-0.68,0.42-0.68,7.15l0,6.27h-4.11L69.92,53.42
			L69.92,53.42z"/>
		<path style="fill:#FEB415;" d="M19.47,60.23c-1.79-0.36-2.74-0.83-3.86-1.92c-0.97-0.95-1.63-2.19-1.94-3.68
			c-0.29-1.39-0.2-8.31,0.12-9.43c0.56-1.94,1.76-3.54,3.3-4.41c1.37-0.78,2.58-1.09,4.5-1.16c1.9-0.07,3.16,0.07,4.4,0.5
			c3,1.04,4.75,3.61,4.34,6.37c-0.4,2.68-2.2,4.25-6.14,5.35c-2.32,0.65-4.63,1.37-4.97,1.54c-0.9,0.46-1.35,1.15-1.18,1.78
			c0.3,1.15,1.37,1.77,3.22,1.87c2.33,0.12,3.63-0.65,4.16-2.48l0.11-0.39l2.21-0.04l2.21-0.04l-0.07,0.36
			c-0.38,1.84-0.97,2.99-1.98,3.93c-1.39,1.29-3.15,1.88-5.86,1.96C20.93,60.39,20.07,60.34,19.47,60.23L19.47,60.23z M19.87,49.8
			c3.28-0.98,3.73-1.13,4.23-1.38c1.37-0.68,1.95-1.55,1.83-2.73c-0.11-1.05-0.66-1.82-1.7-2.35c-0.94-0.48-2.78-0.56-3.81-0.17
			c-1.24,0.47-2.12,1.62-2.41,3.15c-0.15,0.82-0.19,3.7-0.05,3.84C18.09,50.31,18.28,50.27,19.87,49.8L19.87,49.8z"/>
	</g>
</g>
</svg>
