<?xml version="1.0" encoding="utf-8"?>
<svg version="1.1" id="Layer_1" xmlns="http://www.w3.org/2000/svg" xmlns:xlink="http://www.w3.org/1999/xlink" x="0px" y="0px"
	width="100px" height="100px" viewBox="0 0 66.7 66.7" style="enable-background:new 0 0 66.7 66.7;" xml:space="preserve">
<g>
	<circle style="fill:#E8E8E8;" cx="33.3" cy="33.3" r="33.3"/>
	<circle style="fill:#FFFFFF;" cx="33.3" cy="33.3" r="32.7"/>
	<path style="fill:#757474;" d="M11.5,35.6h43.8v7H11.5V35.6z"/>
	<path style="fill:#E5504E;" d="M11.5,24.1h43.8v10.7H11.5V24.1z"/>
	<g>
		<path style="fill:#FFFFFF;" d="M20.8,33h-1.9c-0.4-0.7-0.8-1.1-1.1-1.7c-0.3-0.5-0.7-1-1.1-1.4h-0.7v2.1c0,0.1,0,0.2,0.1,0.3
			c0.1,0.1,0.1,0.1,0.2,0.2c0.1,0,0.2,0.1,0.3,0.1h0.4V33h-2.9v-0.3h0.3c0.1,0,0.3,0,0.3-0.1s0.2-0.1,0.3-0.2
			c0.1-0.1,0.1-0.2,0.1-0.3V27c0-0.1-0.1-0.2-0.1-0.3c0-0.1-0.1-0.1-0.3-0.2c-0.1,0-0.2-0.1-0.3-0.1c-0.1,0-0.3-0.1-0.3-0.1v-0.4
			h3.2c0.3,0,0.5,0.1,0.8,0.1c0.3,0.1,0.5,0.1,0.7,0.3c0.2,0.1,0.3,0.3,0.5,0.5c0.1,0.2,0.2,0.5,0.2,0.7c0,0.3-0.1,0.5-0.1,0.7
			s-0.2,0.4-0.3,0.5c-0.1,0.1-0.3,0.3-0.5,0.4c-0.2,0.1-0.5,0.2-0.7,0.3l0.9,1.1l0.9,1.1c0.1,0.2,0.3,0.3,0.4,0.5
			c0.1,0.1,0.2,0.2,0.3,0.2c0.1,0.1,0.2,0.1,0.3,0.1c0.1,0,0.2,0,0.3,0.1L20.8,33C20.8,33,20.8,33,20.8,33z M18.2,27.8
			c0-0.4-0.1-0.7-0.3-1c-0.2-0.3-0.6-0.3-1-0.3H16v2.9h0.7c0.4,0,0.8-0.1,1.1-0.4C18.1,28.7,18.2,28.3,18.2,27.8 M25.9,26.9
			c0.3,0.3,0.5,0.7,0.7,1.1c0.2,0.5,0.3,0.9,0.3,1.5c0,0.5-0.1,1.1-0.3,1.5c-0.2,0.5-0.4,0.9-0.7,1.1c-0.3,0.3-0.7,0.5-1.1,0.7
			s-0.8,0.3-1.3,0.3s-0.9-0.1-1.3-0.3c-0.4-0.2-0.7-0.5-1.1-0.7c-0.3-0.3-0.5-0.7-0.7-1.1c-0.2-0.5-0.3-0.9-0.3-1.5
			c0-0.5,0.1-1.1,0.3-1.5c0.2-0.5,0.4-0.8,0.7-1.1c0.3-0.3,0.7-0.5,1.1-0.7c0.4-0.2,0.8-0.3,1.3-0.3s0.9,0.1,1.3,0.3
			C25.2,26.3,25.6,26.5,25.9,26.9 M25.1,31.8c0.2-0.3,0.3-0.6,0.4-1c0.1-0.4,0.1-0.8,0.1-1.3s-0.1-0.9-0.1-1.3
			c-0.1-0.4-0.2-0.7-0.4-1c-0.2-0.3-0.4-0.5-0.7-0.7c-0.3-0.1-0.6-0.2-0.9-0.2c-0.4,0-0.7,0.1-1,0.3c-0.3,0.2-0.5,0.4-0.7,0.7
			c-0.2,0.3-0.3,0.7-0.4,1c-0.1,0.4-0.1,0.8-0.1,1.2c0,0.5,0.1,0.9,0.1,1.3c0.1,0.4,0.2,0.7,0.4,1c0.2,0.3,0.4,0.5,0.7,0.7
			c0.3,0.1,0.6,0.3,0.9,0.3c0.3,0,0.7-0.1,0.9-0.3C24.7,32.3,25,32.1,25.1,31.8 M33.8,33h-1.9c-0.4-0.7-0.8-1.1-1.3-1.7
			c-0.5-0.6-0.9-1.2-1.5-1.7H29V32c0,0.1,0,0.2,0.1,0.3l0.2,0.2c0.1,0,0.1,0.1,0.3,0.1c0.1,0,0.1,0.1,0.4,0.1v0.3h-2.9v-0.3h0.3
			c0.1,0,0.3,0,0.3-0.1s0.2-0.1,0.3-0.2c0.1-0.1,0.1-0.2,0.1-0.3v-5c0-0.1,0-0.2-0.1-0.3c0-0.1-0.1-0.1-0.2-0.2
			c-0.1-0.1-0.2-0.1-0.3-0.1c-0.1,0-0.2-0.1-0.3-0.1V26H30v0.3c-0.2,0-0.2,0-0.3,0.1c-0.1,0-0.3,0.1-0.3,0.1
			c-0.1,0.1-0.2,0.1-0.3,0.2S29,26.9,29,26.9v2.4h0.1c0.3-0.3,0.6-0.5,0.9-0.8l0.8-0.8c0.3-0.3,0.5-0.5,0.5-0.7
			c0.1-0.2,0.2-0.3,0.2-0.5c0-0.1,0-0.1-0.1-0.1c-0.1,0-0.1-0.1-0.2-0.1H31h-0.2v-0.4h2.5v0.3l0,0h-0.1h-0.1h-0.2
			c-0.1,0-0.2,0.1-0.3,0.1s-0.2,0.1-0.3,0.2L31.2,28l-1.1,1.1c0.5,0.5,0.9,1.1,1.2,1.5l1.1,1.3c0.1,0.2,0.3,0.3,0.4,0.4
			c0.1,0.1,0.3,0.2,0.3,0.3s0.2,0.1,0.3,0.1c0.1,0,0.2,0,0.3,0.1L33.8,33L33.8,33L33.8,33z M40.2,30.9L40.1,33h-5.8v-0.3l0.4-0.1
			c0.1,0,0.3-0.1,0.3-0.1c0.1-0.1,0.2-0.1,0.2-0.2c0.1-0.1,0.1-0.2,0.1-0.3v-5c0-0.1,0-0.2-0.1-0.3c0-0.1-0.1-0.1-0.2-0.2
			c-0.1-0.1-0.2-0.1-0.3-0.1s-0.3-0.1-0.3-0.1V26h5.3v1.7h-0.3c-0.1-0.2-0.2-0.5-0.4-0.7c-0.2-0.3-0.4-0.4-0.6-0.5
			c-0.1,0-0.2-0.1-0.3-0.1s-0.3-0.1-0.5-0.1h-1.1v2.9h0.7c0.3,0,0.5-0.1,0.5-0.1c0.1-0.1,0.2-0.1,0.3-0.3c0.1-0.1,0.1-0.2,0.2-0.4
			c0.1-0.1,0.1-0.5,0.1-0.5h0.3v2.6h-0.4c0-0.1-0.1-0.3-0.1-0.5s-0.1-0.3-0.2-0.3c-0.1-0.1-0.2-0.2-0.3-0.2c-0.1-0.1-0.3,0-0.5,0
			h-0.7v2.1v0.5c0,0.1,0.1,0.2,0.1,0.3s0.2,0.1,0.3,0.1s0.3,0.1,0.6,0.1H38c0.2,0,0.3-0.1,0.5-0.1s0.3-0.1,0.4-0.1s0.2-0.1,0.3-0.1
			c0.1-0.1,0.3-0.4,0.5-0.7l0.3-0.7L40.2,30.9C40.2,30.9,40.2,30.9,40.2,30.9z"/>
		<path style="fill:#FFFFFF;" d="M47.5,33h-1.9c-0.4-0.7-0.8-1.1-1.1-1.7s-0.7-1-1.1-1.4h-0.7v2.1c0,0.1,0,0.2,0.1,0.3
			c0.1,0.1,0.1,0.1,0.2,0.2c0.1,0,0.2,0.1,0.3,0.1h0.4V33h-3.1v-0.3h0.4c0.1,0,0.3,0,0.3-0.1l0.2-0.2c0.1-0.1,0.1-0.2,0.1-0.3V27
			c0-0.1,0-0.2-0.1-0.3c0-0.1-0.1-0.1-0.2-0.2c-0.1,0-0.2-0.1-0.3-0.1s-0.2-0.1-0.4-0.1v-0.4h3.3c0.3,0,0.5,0.1,0.8,0.1
			c0.3,0.1,0.5,0.1,0.7,0.3c0.2,0.1,0.3,0.3,0.5,0.5c0.1,0.2,0.2,0.5,0.2,0.7c0,0.3-0.1,0.5-0.1,0.7s-0.2,0.4-0.3,0.5
			c-0.1,0.1-0.3,0.3-0.5,0.4c-0.2,0.1-0.5,0.2-0.7,0.3l0.9,1.1l0.9,1.1c0.1,0.2,0.3,0.3,0.4,0.5c0.1,0.1,0.2,0.2,0.3,0.2
			c0.1,0.1,0.2,0.1,0.3,0.1s0.3,0,0.3,0.1C47.5,32.5,47.5,33,47.5,33z M44.9,27.8c0-0.4-0.1-0.7-0.3-1c-0.3-0.3-0.6-0.3-1-0.3h-0.8
			v2.9h0.5c0.4,0,0.8-0.1,1.1-0.4C44.7,28.7,44.9,28.3,44.9,27.8 M52.3,29.8c0.1,0.1,0.3,0.3,0.3,0.5s0.1,0.4,0.1,0.7
			c0,0.6-0.2,1.1-0.7,1.5c-0.5,0.4-1,0.6-1.7,0.6c-0.3,0-0.6-0.1-0.9-0.1c-0.3-0.1-0.6-0.2-0.8-0.3L48.5,33h-0.4L48,30.6h0.4
			c0.1,0.3,0.2,0.5,0.3,0.8c0.1,0.3,0.3,0.5,0.5,0.7c0.2,0.2,0.4,0.3,0.6,0.5s0.5,0.2,0.8,0.2c0.2,0,0.4,0,0.6-0.1
			c0.2-0.1,0.3-0.1,0.4-0.3c0.1-0.1,0.2-0.3,0.2-0.4c0.1-0.1,0.1-0.3,0.1-0.5c0-0.3-0.1-0.6-0.3-0.8c-0.1-0.3-0.4-0.4-0.7-0.5
			l-0.7-0.3c-0.3-0.1-0.5-0.2-0.7-0.3c-0.3-0.2-0.7-0.4-0.9-0.7c-0.3-0.3-0.3-0.7-0.3-1.1c0-0.3,0.1-0.5,0.1-0.7
			c0.1-0.2,0.3-0.5,0.5-0.6c0.2-0.2,0.4-0.3,0.7-0.4c0.3-0.1,0.5-0.1,0.8-0.1c0.3,0,0.6,0.1,0.9,0.1s0.5,0.2,0.7,0.3l0.2-0.3h0.4
			l0.1,2.3H52c-0.1-0.2-0.1-0.5-0.3-0.7c-0.1-0.3-0.2-0.5-0.3-0.7s-0.3-0.3-0.5-0.5c-0.2-0.1-0.5-0.1-0.7-0.1
			c-0.3,0-0.6,0.1-0.8,0.3c-0.2,0.2-0.3,0.5-0.3,0.7c0,0.3,0.1,0.5,0.2,0.7c0.1,0.2,0.3,0.3,0.6,0.5s0.5,0.2,0.7,0.3
			c0.2,0.1,0.5,0.2,0.7,0.3c0.2,0.1,0.4,0.2,0.5,0.3C52.1,29.6,52.2,29.7,52.3,29.8 M24.8,38.2c0.1,0.1,0.1,0.2,0.2,0.3
			s0.1,0.3,0.1,0.4s0,0.3-0.1,0.4s-0.1,0.2-0.2,0.3s-0.2,0.1-0.3,0.2c-0.1,0.1-0.2,0.1-0.3,0.1c-0.1,0-0.3,0-0.3-0.1
			s-0.2-0.1-0.3-0.2c-0.1-0.1-0.1-0.2-0.2-0.3c-0.1-0.1-0.1-0.3-0.1-0.4s0-0.3,0.1-0.4s0.1-0.2,0.2-0.3s0.2-0.1,0.3-0.2
			C24,38,24.1,38,24.2,38c0.1,0,0.2,0,0.3,0.1C24.7,38.1,24.7,38.1,24.8,38.2 M24.7,39.5c0.1-0.1,0.1-0.1,0.1-0.3v-0.3v-0.3
			c0-0.1-0.1-0.2-0.1-0.3c-0.1-0.1-0.1-0.1-0.2-0.1c-0.1-0.1-0.1-0.1-0.3-0.1c-0.1,0-0.2,0-0.3,0.1l-0.2,0.2
			c-0.1,0.1-0.1,0.1-0.1,0.3v0.3v0.3c0,0.1,0.1,0.2,0.1,0.3l0.2,0.2c0.1,0.1,0.1,0.1,0.3,0.1c0.1,0,0.2,0,0.3-0.1
			C24.5,39.6,24.6,39.6,24.7,39.5 M27.1,38.1C27.1,38.1,27.1,38.1,27.1,38.1c-0.1,0-0.1,0.1-0.1,0.1v0.1v0.2v1.3h-0.2l-1.1-1.5v0.9
			v0.3c0,0.1,0,0.1,0.1,0.1c0,0,0.1,0,0.1,0.1H26v0.1h-0.7v-0.1h0.1c0.1,0,0.1,0,0.1-0.1c0,0,0-0.1,0.1-0.1v-0.3v-0.9v-0.1
			c0-0.1,0-0.1-0.1-0.1c0,0-0.1-0.1-0.1-0.1h-0.1V38h0.5l1,1.3v-0.9v-0.3c0-0.1,0-0.1-0.1-0.1c-0.1,0-0.1-0.1-0.1-0.1h-0.1l0,0
			L27.1,38.1L27.1,38.1C27.1,38.1,27.1,38.1,27.1,38.1z M28.9,39.3v0.5h-1.4v-0.1h0.1h0.1c0,0,0.1,0,0.1-0.1v-0.1v-1.3v-0.1
			c0,0,0-0.1-0.1-0.1h-0.1h-0.1V38h0.7v0.1h-0.1H28v0.1v0.1v1.2v0.1v0.1h0.1h0.1h0.1h0.1h0.1h0.1c0-0.1,0.1-0.1,0.1-0.1
			s0.1-0.1,0.1-0.1L28.9,39.3C28.9,39.3,28.9,39.3,28.9,39.3z M29.9,39.9h-0.9v-0.1h0.1h0.1l0.1-0.1v-0.1v-1.3v-0.1l-0.1-0.1h-0.1
			h-0.1V38h0.9v0.1h-0.1h-0.1c0,0-0.1,0-0.1,0.1v0.1v1.3v0.1c0,0,0,0.1,0.1,0.1h0.1h0.1V39.9L29.9,39.9z M32,38.1h-0.1
			c-0.1,0-0.1,0-0.1,0.1c0,0-0.1,0.1-0.1,0.1v0.2v1.3h-0.1l-1-1.5v0.9v0.3c0,0.1,0,0.1,0.1,0.1c0,0,0.1,0,0.1,0.1h0.1v0.1h-0.9v-0.1
			h0.1c0.1,0,0.1,0,0.1-0.1c0,0,0.1-0.1,0.1-0.1v-0.3v-0.9v-0.1c0-0.1,0-0.1-0.1-0.1c0,0-0.1-0.1-0.1-0.1h-0.1V38h0.5l1,1.3v-0.9
			v-0.3c0-0.1,0-0.1-0.1-0.1c-0.1,0-0.1-0.1-0.1-0.1h-0.1l0,0L32,38.1L32,38.1L32,38.1L32,38.1z M33.7,39.3v0.5h-1.5v-0.1h0.1h0.1
			c0,0,0.1,0,0.1-0.1l0.1-0.1v-1.3l-0.1-0.1l-0.1-0.1h-0.1h-0.1V38h1.4v0.3h-0.1l-0.1-0.1c-0.1-0.1-0.1-0.1-0.1-0.1h-0.1h-0.1h-0.4
			V39h0.3c0.1,0,0.1-0.1,0.1-0.1l0.1-0.1c0,0,0-0.1,0.1-0.1v-0.1h0.1v0.7h-0.1v-0.1c0-0.1,0-0.1-0.1-0.1l-0.1-0.1H33h-0.3v0.5
			c0,0.1,0.1,0.1,0.1,0.1l0.1,0.1h0.1h0.2h0.1h0.1h0.1h0.1l0.1-0.1c0.1-0.1,0.1-0.1,0.1-0.1C33.7,39.3,33.7,39.3,33.7,39.3z
			 M35.9,39c0,0.1,0.1,0.1,0.1,0.1v0.2c0,0.1-0.1,0.3-0.2,0.4c-0.1,0.1-0.3,0.1-0.5,0.1H35c-0.1,0-0.1,0-0.2-0.1l-0.1,0.1h-0.1v-0.7
			h0.1c0,0.1,0.1,0.1,0.1,0.2l0.1,0.1l0.1,0.1c0.1,0,0.1,0.1,0.2,0.1h0.1c0,0,0.1,0,0.1-0.1l0.1-0.1v-0.1c0-0.1,0-0.1-0.1-0.2
			s-0.1-0.1-0.2-0.1l-0.2-0.1c-0.1,0-0.1-0.1-0.2-0.1c-0.1-0.1-0.2-0.1-0.3-0.2c-0.1-0.1-0.1-0.2-0.1-0.3s0-0.1,0.1-0.2
			c0-0.1,0.1-0.1,0.1-0.1c0.1-0.1,0.1-0.1,0.2-0.1h0.2h0.2c0.1,0,0.1,0.1,0.2,0.1l0.1-0.1h0.1v0.5h-0.1c0,0-0.1-0.1-0.1-0.2
			c0-0.1-0.1-0.1-0.1-0.1c0-0.1-0.1-0.1-0.1-0.1c-0.1,0-0.1-0.1-0.2-0.1s-0.1,0-0.2,0.1c-0.1,0.1-0.1,0.1-0.1,0.2
			c0,0.1,0,0.1,0.1,0.2c0,0.1,0.1,0.1,0.1,0.1c0.1,0,0.1,0.1,0.2,0.1l0.2,0.1c0.1,0,0.1,0.1,0.1,0.1C35.8,38.9,35.8,38.9,35.9,39
			 M37.7,38.6L37.7,38.6c-0.1,0-0.1-0.1-0.1-0.1l-0.1-0.1c0-0.1-0.1-0.1-0.1-0.1l-0.1-0.1l-0.1-0.1c-0.1,0-0.1-0.1-0.1-0.1h-0.1v1.5
			v0.1l0.1,0.1h0.1h0.1v0.1h-0.7v-0.1h0.1h0.1v-0.1v-0.1V38l0,0l-0.1,0.1h-0.1c0,0-0.1,0-0.1,0.1c0,0-0.1,0.1-0.1,0.1l-0.1,0.1
			c0,0,0,0.1-0.1,0.1h-0.2V38h1.7C37.7,38.1,37.7,38.6,37.7,38.6L37.7,38.6z M39.4,38.2c0.1,0.1,0.1,0.2,0.2,0.3
			c0.1,0.1,0.1,0.3,0.1,0.4s0,0.3-0.1,0.4s-0.1,0.2-0.2,0.3s-0.2,0.1-0.3,0.2c-0.1,0.1-0.2,0.1-0.3,0.1s-0.3,0-0.3-0.1
			c-0.1-0.1-0.2-0.1-0.3-0.2c-0.1-0.1-0.1-0.2-0.2-0.3c-0.1-0.1-0.1-0.3-0.1-0.4s0-0.3,0.1-0.4s0.1-0.2,0.2-0.3
			c0.1-0.1,0.2-0.1,0.3-0.2c0.1-0.1,0.2-0.1,0.3-0.1c0.1,0,0.2,0,0.3,0.1C39.2,38.1,39.3,38.1,39.4,38.2 M39.2,39.5
			c0.1-0.1,0.1-0.1,0.1-0.3v-0.3v-0.3c0-0.1-0.1-0.2-0.1-0.3c-0.1-0.1-0.1-0.1-0.2-0.1c-0.1-0.1-0.1-0.1-0.3-0.1
			c-0.1,0-0.2,0-0.3,0.1l-0.2,0.2c-0.1,0.1-0.1,0.1-0.1,0.3v0.3v0.3c0,0.1,0.1,0.2,0.1,0.3l0.2,0.2c0.1,0.1,0.1,0.1,0.3,0.1
			c0.1,0,0.2,0,0.3-0.1C39.1,39.6,39.2,39.6,39.2,39.5 M41.7,39.9h-0.5c-0.1-0.2-0.2-0.3-0.3-0.5s-0.2-0.2-0.3-0.4h-0.1v0.5v0.1
			c0,0,0,0.1,0.1,0.1h0.1v0.1H40v-0.1h0.1h0.1c0,0,0.1,0,0.1-0.1v-0.1v-1.3v-0.1c0,0,0-0.1-0.1-0.1h-0.1H40V38h0.8H41
			c0.1,0,0.1,0,0.2,0.1c0.1,0,0.1,0.1,0.1,0.1c0,0.1,0.1,0.1,0.1,0.2v0.2c0,0.1-0.1,0.1-0.1,0.1c0,0-0.1,0.1-0.1,0.1
			s-0.1,0.1-0.2,0.1l0.2,0.3l0.2,0.3c0,0.1,0.1,0.1,0.1,0.1s0.1,0.1,0.1,0.1h0.1h0.1L41.7,39.9L41.7,39.9L41.7,39.9z M41.1,38.5
			c0-0.1,0-0.3-0.1-0.3c-0.1-0.1-0.2-0.1-0.3-0.1h-0.1v0.9h0.1c0.1,0,0.2-0.1,0.3-0.1S41.1,38.6,41.1,38.5 M43.4,39.3v0.5h-1.6v-0.1
			h0.1h0.1c0,0,0.1,0,0.1-0.1v-0.1v-1.3v-0.1c0,0,0-0.1-0.1-0.1h-0.1c-0.1,0,0.1,0-0.1,0V38h1.5v0.3h-0.1l-0.1-0.1
			c-0.1-0.1-0.1-0.1-0.1-0.1h-0.1h-0.1h-0.3V39h0.2c0.1,0,0.1-0.1,0.1-0.1l0.1-0.1c0,0,0-0.1,0.1-0.1v-0.1H43v0.7h-0.1v-0.1
			c0-0.1,0-0.1-0.1-0.1l-0.1-0.1h-0.1h-0.2v0.5v0.1c0,0,0,0.1,0.1,0.1h0.1h0.1h0.1H43h0.1h0.1l0.1-0.1c0.1-0.1,0.1-0.1,0.1-0.1
			C43.3,39.3,43.4,39.3,43.4,39.3L43.4,39.3z"/>
	</g>
</g>
</svg>
