<svg xmlns="http://www.w3.org/2000/svg" viewBox="0 0 580.15 174.6" fill="#284c86"><path d="M78.82 77.31c10.04-10.91 10.6-23.76 11.5-37.5.86-13.22-15.88-34.84-28.33-37.18-18.11-3.41-36-4.48-53.59 2.91C2.53 8-.11 11.44 0 18l1.05 91.26c.23 15.92.54 31.86 1.43 47.75.58 10.24 4.9 13.03 15.03 11.21 7.48-1.34 11.68-6.93 11.5-15.67l-.77-23.23-.03-33.13h4.5c17.76-.44 33.53-5.22 46.11-18.88zM59.89 60.22c-7.31 9.19-17.23 11.79-28.31 10.96-1.27-.1-3.29-2.69-3.38-4.22-.67-11.39-1.05-22.8-1.29-34.21-.2-9.6.41-10.06 9.87-9.81 2.83.31 5.67.91 8.5.89 9.01-.07 15.43 4.04 18.56 12.26 3.26 8.56 1.89 16.8-3.95 24.13zm304.42 33.22l-15.39 7.9c-1.61-3.57-2.79-6.82-4.48-9.79-3.12-5.48-9.47-8.28-14.45-6.71-5.01 1.59-8.74 8.27-7.94 14.45.29 2.22.95 4.39 1.35 6.6 2.16 11.93 3.35 23.89.15 35.81-1.11 4.12-3.13 8.02-4.03 12.17-1.6 7.37 2.82 13.08 10.54 14.34 8.23 1.35 14.2-2.58 15.53-9.99.9-5.01 2.53-9.91 3.1-14.94 1.25-11.07 7.81-18.13 16.9-23.28 5.35-3.02 11.74-6.48 17.22-2.71 5.61 3.87 4.28 10.95 2.99 17.06l-4.98 22.7c-1.36 7.12 2.68 11.77 9.93 12.1 7.06.32 12.34-2.92 14.07-9.42 2.65-9.97 4.41-20.22 5.93-30.44.86-5.76 1.81-12.03.44-17.5-5.21-20.69-26.89-28.87-46.88-18.35zm-236.4 15.99c-2-4.94-6.55-9.32-10.94-12.63-2.32-1.75-7.66-2.04-10.04-.51-2.6 1.67-4.24 6.08-4.75 9.52-1.58 10.67-2.16 21.48-3.72 32.15-.44 3-2.48 6.05-4.51 8.48-3.72 4.47-8.4 4.33-10.76-.98-2.68-6.01-4.41-12.65-5.28-19.18-.77-5.79.38-11.81.36-17.73-.01-5.68-4.97-10.74-10.71-11.38-4.61-.52-11.19 3.78-11.8 8.82-2.23 18.36-3.28 36.58 6.36 53.72 9.83 17.48 31.25 20.11 44.71 5.06l7.31-8.15c2.29 3.36 3.83 6.03 5.75 8.39 6.39 7.81 14.83 8.49 21.06 1.66 4.36-4.77 2.97-10.42 1.3-15.62-4.47-13.99-8.84-28.04-14.34-41.62zm450.73-31.56c-4.4-8.01-22.52-14.81-30.95-11.1-7.04 3.1-14.16 6.65-20.09 11.44-7.78 6.29-13.65 14.75-11.9 25.45 1.88 11.47 6.44 21.56 19.45 24.87 2.86.73 5.63 2.5 7.97 4.38 2.84 2.28 3.43 5.55-.12 7.56-3.98 2.25-8.3 4.43-12.73 5.26-7.71 1.43-14.88-.88-21.45-5.28-3.87-2.59-8.89-3.29-11.78.34-1.95 2.45-2.32 7.36-1.43 10.64 1.97 7.26 6.91 12.51 14.55 14.33 5.73 1.37 11.56 2.29 17.35 3.4 9.47.31 18.19-2.17 25.75-7.27 9.02-6.08 17.46-13.16 18.13-25.38.72-13.21-8.75-25.15-23.49-29.87-6.62-2.12-7.86-7.49-2.86-12.41 4.91-4.83 9.86-5.09 18.39-.47 5.2 2.82 9.43 1.66 13.18-2.38 3.73-3.99 4.69-8.68 2.03-13.51zm-157.01 76.85c2.02 6.87 6.92 11.21 14.13 13.06 11.6 2.97 22.29-.04 32.61-4.77 18.71-8.58 25.68-32.46 22.97-50.55-1.5-10.02-4.65-18.78-14.3-23.36-5.11-2.42-10.73-3.85-16.2-5.44-19.79-5.73-44.39 12.51-43.73 31.41.07 2.04 0 4.09-.13 6.13a61.66 61.66 0 0 0 1.1 15.98l3.55 17.54zm34.2-12.07c-10.16 4.36-14.3 2.05-15.41-9.08-.46-4.62-.34-9.44.47-14 1.78-9.96 14.99-16.51 24.07-12 6.44 3.2 5.56 9.83 6.52 16.56-1.62 8.48-7.03 14.81-15.65 18.52zM178.65 96.76c2.22-1.89 5.86-2.6 8.94-2.9 4.23-.42 8.56.12 12.84.14 5.07.02 8.99-3 8.69-7.47-.21-3.11-3.86-6.59-6.82-8.72-2.47-1.78-6.15-1.96-9.35-2.63-16.51-3.47-29.8 1.99-39.03 16.05-6.45 9.81-10.11 20.47-9.27 31.23 0 5.01-.37 8.92.06 12.74 3.7 32.91 30.45 40.03 53.91 30.85 6.49-2.54 11.26-14 8.73-19.06-2.82-5.64-11.74-6.59-19.67-2.09-5.78 3.28-10.19 2.27-14.16-3.23-7.69-10.68-5.01-36.26 5.13-44.91zm98.53-7.42c-3.1-1.98-6.1-4.2-9.43-5.7-12.32-5.55-28.85-6.25-40.94 6.75-12.58 13.52-15.35 29.53-14.88 46.43.27 9.68 4.23 19.47 13.63 24 5.57 2.68 11.6 4.4 17.21 5.94 5.54 1.51 11.36 1.69 16.97.49 2.58-.55 4.86-1.08 7.1-1.77 5.66-1.76 8.75-7.1 7.99-12.86-.74-5.64-5.89-10.31-11.93-10.15-5.07.13-10.13 1.39-15.19 1.36-7.86-.05-12.85-5.67-12.53-13.44.32-7.91 2.2-15.23 7.36-21.61 5.76-7.13 13.83-9.57 22.38-6.22 1.7.67 3.4 1.42 5.16 1.86 4.48 1.13 8.12.06 10.13-4.46 1.93-4.36 1.07-8-3.03-10.62zm5.9 65.06c.05 7.94 2.88 11.4 9.9 12.12 8.15.84 12.42-1.53 13.46-9.47 1.75-13.32 2.6-26.77 3.6-40.18.49-6.67.97-13.42.51-20.06-.36-5.16-7.09-9.5-12.68-9.26-5.63.24-9.92 4.14-10.41 10.11l-3.93 51.85m214.77-49.07c14.5-2.54 23.2-18.19 18.59-33.02-3.06-9.84-16.04-15.95-25.4-11.81-4.93 2.18-7.61 5.76-7.08 11.57.53 5.7 3.09 10.02 8.5 11.43 3.04.79 6.61-.45 11.55-.94-1.47 3.19-2.29 5.94-3.88 8.14-1.89 2.62-4.74 4.56-6.6 7.19-1.11 1.57-2.06 4.47-1.33 5.77.72 1.26 3.82 1.99 5.65 1.67zM299.36 54.3c-6.66.06-12.01 5.78-12 12.82.02 9.3 4.52 14.05 13.16 13.86 7.59-.17 12.32-5.76 12.23-14.45-.09-7.97-4.84-12.31-13.39-12.23z"/></svg>