<?xml version="1.0"?>
<svg xmlns="http://www.w3.org/2000/svg" xmlns:xlink="http://www.w3.org/1999/xlink" xmlns:svgjs="http://svgjs.com/svgjs" version="1.1" width="512" height="512" x="0" y="0" viewBox="0 0 512 512" style="enable-background:new 0 0 512 512" xml:space="preserve" class=""><g>
<circle xmlns="http://www.w3.org/2000/svg" style="" cx="256" cy="256" r="256" fill="#f1f1f1" data-original="#fe9a35" class=""/>
<path xmlns="http://www.w3.org/2000/svg" style="" d="M512,256c0-9.54-0.539-18.953-1.556-28.223L431.667,149l-3.288,4.712l-80.045-80.045L80.333,431  l45.408,45.408C163.904,499.01,208.432,512,256,512C397.385,512,512,397.385,512,256z" fill="#f1f1f1" data-original="#ff7c11" class=""/>
<rect xmlns="http://www.w3.org/2000/svg" x="80.33" y="149" style="" width="351.33" height="282" fill="#37474f" data-original="#37474f" class=""/>
<rect xmlns="http://www.w3.org/2000/svg" x="255.95" y="149" style="" width="175.71" height="282" fill="#263238" data-original="#263238" class=""/>
<rect xmlns="http://www.w3.org/2000/svg" x="163.67" y="73.67" style="" width="184.67" height="357.33" fill="#455a64" data-original="#455a64" class=""/>
<rect xmlns="http://www.w3.org/2000/svg" x="255.95" y="73.67" style="" width="92.38" height="357.33" fill="#37474f" data-original="#37474f" class=""/>
<rect xmlns="http://www.w3.org/2000/svg" x="219.5" y="316" style="" width="73" height="115" fill="#98b4b6" data-original="#98b4b6" class=""/>
<rect xmlns="http://www.w3.org/2000/svg" x="255.95" y="316" style="" width="36.548" height="115" fill="#728d8e" data-original="#728d8e" class=""/>
<rect xmlns="http://www.w3.org/2000/svg" x="148.5" y="324.75" style="" width="30" height="106.25" fill="#ab6a50" data-original="#ab6a50"/>
<rect xmlns="http://www.w3.org/2000/svg" x="332.75" y="324.75" style="" width="30" height="106.25" fill="#854830" data-original="#854830"/>
<rect xmlns="http://www.w3.org/2000/svg" x="187" y="110" style="" width="138" height="46" fill="#98b4b6" data-original="#98b4b6" class=""/>
<rect xmlns="http://www.w3.org/2000/svg" x="255.95" y="110" style="" width="69.05" height="46" fill="#728d8e" data-original="#728d8e" class=""/>
<rect xmlns="http://www.w3.org/2000/svg" x="187" y="175" style="" width="138" height="46" fill="#98b4b6" data-original="#98b4b6" class=""/>
<rect xmlns="http://www.w3.org/2000/svg" x="255.95" y="175" style="" width="69.05" height="46" fill="#728d8e" data-original="#728d8e" class=""/>
<g xmlns="http://www.w3.org/2000/svg">
	<rect x="362.75" y="175.5" style="" width="52.5" height="46" fill="#e0e0e0" data-original="#e0e0e0" class=""/>
	<rect x="362.75" y="252" style="" width="52.5" height="46" fill="#e0e0e0" data-original="#e0e0e0" class=""/>
</g>
<g xmlns="http://www.w3.org/2000/svg">
	<rect x="96.75" y="175.5" style="" width="52.5" height="46" fill="#dce6d3" data-original="#dce6d3"/>
	<rect x="96.75" y="252" style="" width="52.5" height="46" fill="#dce6d3" data-original="#dce6d3"/>
</g>
<rect xmlns="http://www.w3.org/2000/svg" x="187" y="240" style="" width="138" height="46" fill="#98b4b6" data-original="#98b4b6" class=""/>
<rect xmlns="http://www.w3.org/2000/svg" x="255.95" y="240" style="" width="69.05" height="46" fill="#728d8e" data-original="#728d8e" class=""/>
<circle xmlns="http://www.w3.org/2000/svg" style="" cx="163.5" cy="313.67" r="44" fill="#65e1ba" data-original="#65e1ba" class=""/>
<circle xmlns="http://www.w3.org/2000/svg" style="" cx="347.75" cy="313.67" r="44" fill="#00ce8e" data-original="#00ce8e" class=""/>
<g xmlns="http://www.w3.org/2000/svg">
</g>
<g xmlns="http://www.w3.org/2000/svg">
</g>
<g xmlns="http://www.w3.org/2000/svg">
</g>
<g xmlns="http://www.w3.org/2000/svg">
</g>
<g xmlns="http://www.w3.org/2000/svg">
</g>
<g xmlns="http://www.w3.org/2000/svg">
</g>
<g xmlns="http://www.w3.org/2000/svg">
</g>
<g xmlns="http://www.w3.org/2000/svg">
</g>
<g xmlns="http://www.w3.org/2000/svg">
</g>
<g xmlns="http://www.w3.org/2000/svg">
</g>
<g xmlns="http://www.w3.org/2000/svg">
</g>
<g xmlns="http://www.w3.org/2000/svg">
</g>
<g xmlns="http://www.w3.org/2000/svg">
</g>
<g xmlns="http://www.w3.org/2000/svg">
</g>
<g xmlns="http://www.w3.org/2000/svg">
</g>
</g></svg>
