<?xml version="1.0" encoding="utf-8"?>
<svg version="1.1" id="Layer_1" xmlns="http://www.w3.org/2000/svg" xmlns:xlink="http://www.w3.org/1999/xlink" x="0px" y="0px"
	width="100px" height="100px" viewBox="0 0 200.6 200.6" style="enable-background:new 0 0 200.6 200.6;" xml:space="preserve">
<g>
	<circle style="fill:#E8E8E8;" cx="100.3" cy="100.3" r="100.3"/>
	<circle style="fill:#FFFFFF;" cx="100.3" cy="100.3" r="98.3"/>
	<g>
		<g>
			
				<linearGradient id="SVGID_1_" gradientUnits="userSpaceOnUse" x1="-629.4429" y1="201.5427" x2="-629.4429" y2="217.4543" gradientTransform="matrix(3.8835 0 0 -3.8835 2476.9224 896.3689)">
				<stop  offset="0" style="stop-color:#27348B"/>
				<stop  offset="0.3855" style="stop-color:#45BCCC"/>
				<stop  offset="0.559" style="stop-color:#45BCCC"/>
				<stop  offset="1" style="stop-color:#27348B"/>
			</linearGradient>
			<path style="fill:url(#SVGID_1_);" d="M33.2,104.2l-3.2-6.8c-0.1-0.2-0.4-0.2-0.5,0L29,98.3l-0.6,1.3c0,0.1,0,0.2,0,0.3l2.8,5.9
				l2.8,5.8c0,0.1,0.1,0.2,0.3,0.2h1.1h0.9c0.2,0,0.4-0.2,0.3-0.4L33.2,104.2z"/>
			
				<linearGradient id="SVGID_2_" gradientUnits="userSpaceOnUse" x1="-632.093" y1="201.5427" x2="-632.093" y2="217.4543" gradientTransform="matrix(3.8835 0 0 -3.8835 2476.9224 896.3689)">
				<stop  offset="0" style="stop-color:#27348B"/>
				<stop  offset="0.3855" style="stop-color:#45BCCC"/>
				<stop  offset="0.559" style="stop-color:#45BCCC"/>
				<stop  offset="1" style="stop-color:#27348B"/>
			</linearGradient>
			<path style="fill:url(#SVGID_2_);" d="M27.4,92l-0.5-1c0-0.1-0.1-0.1-0.1-0.2c-0.1,0-0.1-0.1-0.2-0.1s-0.1,0-0.2,0.1
				c-0.1,0-0.1,0.1-0.1,0.2l-4.9,10.3l-4.7,9.9c-0.1,0.2,0.1,0.4,0.3,0.4h0.9h1.1c0.1,0,0.2-0.1,0.3-0.2l4.3-9.2l4.4-9.2
				c0-0.1,0-0.2,0-0.2L27.4,92z"/>
			
				<linearGradient id="SVGID_3_" gradientUnits="userSpaceOnUse" x1="-624.6344" y1="201.5427" x2="-624.6344" y2="217.4543" gradientTransform="matrix(3.8835 0 0 -3.8835 2476.9224 896.3689)">
				<stop  offset="0" style="stop-color:#27348B"/>
				<stop  offset="0.3855" style="stop-color:#45BCCC"/>
				<stop  offset="0.559" style="stop-color:#45BCCC"/>
				<stop  offset="1" style="stop-color:#27348B"/>
			</linearGradient>
			<path style="fill:url(#SVGID_3_);" d="M52,90.7h-0.9h-0.9c-0.2,0-0.3,0.1-0.3,0.3v10.1v10.1c0,0.2,0.1,0.3,0.3,0.3h0.9H52
				c0.2,0,0.3-0.1,0.3-0.3v-10.1V91.1C52.4,90.8,52.2,90.7,52,90.7z"/>
			
				<linearGradient id="SVGID_4_" gradientUnits="userSpaceOnUse" x1="-599.933" y1="201.5427" x2="-599.933" y2="217.4543" gradientTransform="matrix(3.8835 0 0 -3.8835 2476.9224 896.3689)">
				<stop  offset="0" style="stop-color:#27348B"/>
				<stop  offset="0.3855" style="stop-color:#45BCCC"/>
				<stop  offset="0.559" style="stop-color:#45BCCC"/>
				<stop  offset="1" style="stop-color:#27348B"/>
			</linearGradient>
			<path style="fill:url(#SVGID_4_);" d="M148,90.7h-0.9h-0.9c-0.2,0-0.3,0.1-0.3,0.3v10.1v10.1c0,0.2,0.1,0.3,0.3,0.3h0.9h0.9
				c0.2,0,0.3-0.1,0.3-0.3v-10.1V91.1C148.2,90.8,148.1,90.7,148,90.7z"/>
			
				<linearGradient id="SVGID_5_" gradientUnits="userSpaceOnUse" x1="-606.5153" y1="201.5427" x2="-606.5153" y2="217.4543" gradientTransform="matrix(3.8835 0 0 -3.8835 2476.9224 896.3689)">
				<stop  offset="0" style="stop-color:#27348B"/>
				<stop  offset="0.3855" style="stop-color:#45BCCC"/>
				<stop  offset="0.559" style="stop-color:#45BCCC"/>
				<stop  offset="1" style="stop-color:#27348B"/>
			</linearGradient>
			<path style="fill:url(#SVGID_5_);" d="M122.4,90.7h-0.9h-0.9c-0.2,0-0.3,0.1-0.3,0.3v10.1v10.1c0,0.2,0.1,0.3,0.3,0.3h0.9h0.9
				c0.2,0,0.3-0.1,0.3-0.3v-0.9v-1.2V100v-9C122.7,90.8,122.5,90.7,122.4,90.7z"/>
			
				<linearGradient id="SVGID_6_" gradientUnits="userSpaceOnUse" x1="-604.5089" y1="201.5427" x2="-604.5089" y2="217.4543" gradientTransform="matrix(3.8835 0 0 -3.8835 2476.9224 896.3689)">
				<stop  offset="0" style="stop-color:#27348B"/>
				<stop  offset="0.3855" style="stop-color:#45BCCC"/>
				<stop  offset="0.559" style="stop-color:#45BCCC"/>
				<stop  offset="1" style="stop-color:#27348B"/>
			</linearGradient>
			<path style="fill:url(#SVGID_6_);" d="M132.1,109.2h-2.8h-2.8c-0.2,0-0.3,0.1-0.3,0.3v0.9v0.9c0,0.2,0.1,0.3,0.3,0.3h2.8h2.8
				c0.2,0,0.3-0.1,0.3-0.3v-0.9v-0.9C132.4,109.4,132.3,109.2,132.1,109.2z"/>
			
				<linearGradient id="SVGID_7_" gradientUnits="userSpaceOnUse" x1="-594.2702" y1="201.5427" x2="-594.2702" y2="217.4543" gradientTransform="matrix(3.8835 0 0 -3.8835 2476.9224 896.3689)">
				<stop  offset="0" style="stop-color:#27348B"/>
				<stop  offset="0.3855" style="stop-color:#45BCCC"/>
				<stop  offset="0.559" style="stop-color:#45BCCC"/>
				<stop  offset="1" style="stop-color:#27348B"/>
			</linearGradient>
			<path style="fill:url(#SVGID_7_);" d="M174.4,92.8c-1.2-1.2-3-2-4.9-2h-3.9H162c-0.2,0-0.3,0.1-0.3,0.3v3.6v3.6
				c0,0.2,0.1,0.3,0.3,0.3h0.9h0.9c0.2,0,0.3-0.1,0.3-0.3v-2.4v-2.4c0-0.2,0.1-0.3,0.3-0.3h2.4h2.7c1.2,0,2.4,0.5,3.2,1.3
				s1.3,1.9,1.3,3.2s-0.5,2.4-1.3,3.2s-1.9,1.3-3.2,1.3h-1.6h-1.6H164h-2c-0.2,0-0.3,0.1-0.3,0.3v4.4v4.4c0,0.2,0.1,0.3,0.3,0.3h0.9
				h0.9c0.2,0,0.3-0.1,0.3-0.3v-3.3v-3.3c0-0.2,0.1-0.3,0.3-0.3h2.4h2.7c1.9,0,3.6-0.8,4.9-2s2-3,2-4.9
				C176.4,95.7,175.7,94,174.4,92.8z"/>
			
				<linearGradient id="SVGID_8_" gradientUnits="userSpaceOnUse" x1="-618.9501" y1="201.5427" x2="-618.9501" y2="217.4543" gradientTransform="matrix(3.8835 0 0 -3.8835 2476.9224 896.3689)">
				<stop  offset="0" style="stop-color:#27348B"/>
				<stop  offset="0.3855" style="stop-color:#45BCCC"/>
				<stop  offset="0.559" style="stop-color:#45BCCC"/>
				<stop  offset="1" style="stop-color:#27348B"/>
			</linearGradient>
			<path style="fill:url(#SVGID_8_);" d="M78.6,107.4l-2.1-4c-0.1-0.1,0-0.3,0.1-0.4c1.1-0.5,2-1.2,2.7-2.2c0.8-1.1,1.2-2.3,1.2-3.7
				c0-1.8-0.7-3.4-1.9-4.5c-1.2-1.2-2.8-1.9-4.5-1.9H70h-3.9c-0.2,0-0.3,0.1-0.3,0.3v10.1v10.1c0,0.2,0.1,0.3,0.3,0.3H67h0.9
				c0.2,0,0.3-0.1,0.3-0.3v-9v-9c0-0.2,0.1-0.3,0.3-0.3h2.7h3c1.1,0,2.1,0.4,2.8,1.2c0.7,0.8,1.2,1.7,1.2,2.8c0,1.1-0.4,2.1-1.2,2.9
				c-0.8,0.8-1.7,1.2-2.8,1.2h-1.2H72c-0.2,0-0.3,0.1-0.3,0.3v0.9v0.9c0,0.2,0.1,0.3,0.3,0.3h0.8h0.9c0.1,0,0.2,0.1,0.3,0.2l2.1,3.9
				l2.1,3.9c0,0.1,0.1,0.2,0.3,0.2h1.2h0.9c0.2,0,0.4-0.2,0.3-0.4L78.6,107.4z"/>
			
				<linearGradient id="SVGID_9_" gradientUnits="userSpaceOnUse" x1="-612.9514" y1="201.5427" x2="-612.9514" y2="217.4543" gradientTransform="matrix(3.8835 0 0 -3.8835 2476.9224 896.3689)">
				<stop  offset="0" style="stop-color:#27348B"/>
				<stop  offset="0.3855" style="stop-color:#45BCCC"/>
				<stop  offset="0.559" style="stop-color:#45BCCC"/>
				<stop  offset="1" style="stop-color:#27348B"/>
			</linearGradient>
			<path style="fill:url(#SVGID_9_);" d="M98.7,109.1c-0.5-0.2-1-0.4-1.5-0.7c-0.5-0.3-1-0.6-1.6-1.1c-0.1-0.1-0.3-0.1-0.4,0.1
				l-0.5,0.7l-0.5,0.8c-0.1,0.1-0.1,0.3,0.1,0.4c0.8,0.6,1.5,1.1,2.3,1.4c0.7,0.3,1.4,0.6,2.1,0.8c0.2,0,0.4-0.1,0.4-0.3v-0.8v-1
				C98.9,109.3,98.8,109.2,98.7,109.1z"/>
			
				<linearGradient id="SVGID_10_" gradientUnits="userSpaceOnUse" x1="-611.8312" y1="201.5427" x2="-611.8312" y2="217.4543" gradientTransform="matrix(3.8835 0 0 -3.8835 2476.9224 896.3689)">
				<stop  offset="0" style="stop-color:#27348B"/>
				<stop  offset="0.3855" style="stop-color:#45BCCC"/>
				<stop  offset="0.559" style="stop-color:#45BCCC"/>
				<stop  offset="1" style="stop-color:#27348B"/>
			</linearGradient>
			<path style="fill:url(#SVGID_10_);" d="M104.1,101.3c-0.8-0.5-1.6-0.9-2.4-1.3l-0.1,0l-0.1,0c-0.9-0.4-1.7-0.9-2.5-1.4
				c-0.8-0.6-1.3-1.2-1.6-2.1c-0.2-0.6-0.2-1.3,0-1.8c0.2-0.6,0.6-1.1,1.2-1.4c0.8-0.5,1.7-0.6,2.8-0.4c1,0.2,1.9,0.6,2.9,1.4
				c0.1,0.1,0.3,0.1,0.4-0.1l0.5-0.7l0.5-0.7c0.1-0.1,0.1-0.3-0.1-0.4c-1.4-1-2.8-1.7-4.2-1.8c-1.5-0.2-2.9,0.1-4.1,0.9
				c-1,0.6-1.7,1.6-2.1,2.7s-0.3,2.3,0.1,3.4c0.4,1.2,1.2,2.2,2.2,2.9c1,0.8,2.1,1.4,3.1,1.9l0.1,0l0.1,0c0.7,0.3,1.4,0.6,1.9,1
				c0.6,0.4,1.1,0.8,1.4,1.4c0.3,0.5,0.5,1.2,0.5,1.8s-0.2,1.2-0.6,1.7c-0.2,0.3-0.5,0.5-0.8,0.7c-0.2,0.2-0.5,0.3-0.8,0.4
				c-0.1,0-0.2,0.1-0.2,0.3v1v0.9c0,0.2,0.2,0.3,0.4,0.3c0.6-0.2,1.2-0.4,1.7-0.7c0.6-0.4,1.2-0.9,1.6-1.4c0.6-0.9,1-1.9,1-3
				c0-1.1-0.2-2.2-0.8-3.1C105.6,102.4,104.8,101.8,104.1,101.3z"/>
			
				<linearGradient id="SVGID_11_" gradientUnits="userSpaceOnUse" x1="-626.8432" y1="201.5427" x2="-626.8432" y2="217.4543" gradientTransform="matrix(3.8835 0 0 -3.8835 2476.9224 896.3689)">
				<stop  offset="0" style="stop-color:#27348B"/>
				<stop  offset="0.3855" style="stop-color:#45BCCC"/>
				<stop  offset="0.559" style="stop-color:#45BCCC"/>
				<stop  offset="1" style="stop-color:#27348B"/>
			</linearGradient>
			<path style="fill:url(#SVGID_11_);" d="M42.6,90.6c-0.9,0-1.6,0.7-1.6,1.6c0,0.9,0.7,1.6,1.6,1.6s1.6-0.7,1.6-1.6
				C44.2,91.4,43.5,90.6,42.6,90.6z"/>
			
				<linearGradient id="SVGID_12_" gradientUnits="userSpaceOnUse" x1="-602.1066" y1="201.5427" x2="-602.1066" y2="217.4543" gradientTransform="matrix(3.8835 0 0 -3.8835 2476.9224 896.3689)">
				<stop  offset="0" style="stop-color:#27348B"/>
				<stop  offset="0.3855" style="stop-color:#45BCCC"/>
				<stop  offset="0.559" style="stop-color:#45BCCC"/>
				<stop  offset="1" style="stop-color:#27348B"/>
			</linearGradient>
			<path style="fill:url(#SVGID_12_);" d="M138.6,90.6c-0.9,0-1.6,0.7-1.6,1.6c0,0.9,0.7,1.6,1.6,1.6c0.9,0,1.6-0.7,1.6-1.6
				C140.2,91.4,139.5,90.6,138.6,90.6z"/>
		</g>
		<g>
			<path style="fill:#41A5C1;" d="M184.4,90.9c0.3,0.2,0.6,0.5,0.8,0.8s0.3,0.7,0.3,1.2c0,0.4-0.1,0.8-0.3,1.2
				c-0.2,0.3-0.5,0.6-0.8,0.8c-0.3,0.2-0.7,0.3-1.2,0.3c-0.4,0-0.8-0.1-1.2-0.3s-0.6-0.5-0.8-0.8c-0.2-0.3-0.3-0.7-0.3-1.1
				s0.1-0.8,0.3-1.1c0.2-0.3,0.5-0.6,0.8-0.8s0.8-0.3,1.2-0.3C183.7,90.6,184,90.7,184.4,90.9z M184.1,94.5c0.3-0.2,0.5-0.4,0.6-0.7
				c0.2-0.3,0.2-0.6,0.2-1c0-0.3-0.1-0.6-0.2-0.9c-0.2-0.3-0.4-0.5-0.6-0.6c-0.3-0.2-0.6-0.2-1-0.2c-0.3,0-0.6,0.1-1,0.2
				c-0.3,0.2-0.5,0.4-0.6,0.7c-0.2,0.3-0.2,0.6-0.2,0.9s0.1,0.6,0.2,0.9c0.2,0.3,0.4,0.5,0.6,0.7c0.3,0.2,0.6,0.2,0.9,0.2
				C183.5,94.7,183.9,94.7,184.1,94.5z M184.3,93c-0.1,0.1-0.2,0.2-0.3,0.3l0.5,0.8h-0.7l-0.5-0.7h0h-0.4v0.7h-0.7v-2.5h1.1
				c0.3,0,0.6,0.1,0.8,0.2c0.2,0.2,0.3,0.4,0.3,0.6C184.4,92.7,184.4,92.9,184.3,93z M183.3,92.9c0.1,0,0.3,0,0.3-0.1
				c0.1-0.1,0.1-0.2,0.1-0.3s0-0.2-0.1-0.3c-0.1-0.1-0.2-0.1-0.3-0.1h-0.4V93L183.3,92.9L183.3,92.9z"/>
		</g>
	</g>
</g>
</svg>
