<?xml version="1.0" encoding="utf-8"?>
<svg version="1.1" id="Layer_1" xmlns="http://www.w3.org/2000/svg" xmlns:xlink="http://www.w3.org/1999/xlink" x="0px" y="0px"
	 viewBox="0 0 100 100" style="enable-background:new 0 0 100 100;" xml:space="preserve">
<g>
	<path style="fill:#292929;" d="M50,0.1L50,0.1c27.6,0,49.9,22.3,49.9,49.9l0,0c0,27.6-22.3,49.9-49.9,49.9l0,0
		C22.4,100.1,0.1,77.6,0.1,50l0,0C0.1,22.4,22.4,0.1,50,0.1z"/>
	<g>
		<path style="fill:#FFFFFF;" d="M50,55.6c-0.7,2.4-2.5,3.4-4.6,4c-2.4,0.7-4.8,0.7-7.2,0.1c-2.1-0.4-3.7-1.6-4.8-3.6L33.3,56v2.8
			c0,0.7,0,0.7-0.7,0.7h-3c-0.4,0-0.6-0.1-0.6-0.7v-1c-0.3,0.1-0.3,0.1-0.4,0.1c-3.7,2.8-9.1,2.1-12.1-0.7c-1.9-1.6-3.1-3.7-3.4-6.3
			c-1-6.7,3.7-11.1,8.1-12c2.7-0.4,5.1,0,7.3,1.5c0.1,0.1,0.1,0.1,0.6,0.3v-1c0-0.4,0-0.6,0.4-0.6h3.1c0.4,0,0.7,0.1,0.7,0.7v2.5
			v0.4l0.4-1c0.7-1.2,1.8-1.9,3.1-2.2c2.2-0.7,4.6-0.9,7-0.3c2.8,0.6,4.6,2.2,5.4,5.2c2.2-3.6,5.2-5.7,9.4-5.5
			c4.2,0,7.2,2.1,9.4,5.7v-0.1c0.1-2.5,1.6-4.2,4-4.9c1.8-0.6,3.6-0.7,5.4-0.4c1.3,0.1,2.7,0.4,3.9,1c1.8,1,2.8,2.5,3.1,4.6
			c0.1,0.3,0,0.4-0.4,0.4h-3.7c-0.3,0-0.4-0.1-0.4-0.3c-0.3-2.1-1.8-2.8-3.8-2.8c-0.6,0-1.3,0.1-1.9,0.4c-1.3,0.7-1.3,2.5-0.3,3.4
			c0.7,0.4,1.5,0.7,2.2,1l3.1,0.7c1.6,0.4,3.1,1,4.3,2.2c2.2,2.2,2.5,7-1.6,8.8c-1.5,0.7-3.1,1-4.8,1c-1.6,0.1-3.1,0-4.6-0.4
			c-2.2-0.7-3.9-2.2-4.6-4.6c0,0,0-0.1-0.1-0.1c-1.9,3.3-4.8,5.2-8.7,5.4C55.4,60.2,52.4,58.7,50,55.6z M64.7,49.7L64.7,49.7
			c-0.1-0.9-0.1-1.8-0.4-2.7c-0.7-2.2-2.5-3.7-4.9-3.9c-2.4-0.1-4.5,1-5.4,3.1c-1,2.2-1,4.6,0.1,6.9c0.9,1.9,2.5,2.8,4.6,3
			c2.1,0.1,3.9-0.7,5.1-2.5C64.4,52.4,64.7,51.1,64.7,49.7z M28.9,49.7c-0.1-0.6-0.1-1.3-0.1-1.9c-0.4-2.2-1.5-3.7-3.7-4.3
			s-4.3-0.3-6,1.6c-2.1,2.4-2.2,6.7-0.3,9.1c2.5,3.3,7.9,2.7,9.4-1C28.7,52.1,28.9,50.9,28.9,49.7z M33.2,53.2h0.4h2.8
			c0.4,0,0.6,0.1,0.7,0.4c0.1,0.7,0.4,1.3,1,1.9c1.2,1.2,3.7,1.6,5.4,0.7c1-0.4,1.6-1.3,1.6-2.4c0-1-0.7-1.8-1.6-2.1
			c-1-0.4-1.9-0.7-3-0.9c-1.5-0.4-3.1-0.6-4.6-1.3c-1-0.4-1.9-1-2.5-2.1c-0.1-0.3-0.3-0.6-0.4-0.9C33.2,46.7,33.2,53.2,33.2,53.2z
			 M68.9,53.2h3.2c0.4,0,0.4,0.1,0.6,0.4c0.1,0.7,0.4,1.6,1.2,2.1c0.7,0.6,1.6,0.9,2.5,1c1,0.1,2.1,0,3.1-0.4c1.5-1,1.6-3.1,0-4
			c-0.3-0.1-0.4-0.3-0.7-0.4L75.4,51c-1.6-0.4-3.1-0.7-4.5-1.5c-0.4-0.3-1-0.7-1.3-1c0,0.7,0.1,1.6,0,2.4
			C69.2,51.5,69.1,52.4,68.9,53.2L68.9,53.2z M49.1,45.5h-3.7c-0.3,0-0.4-0.1-0.6-0.4c-0.1-0.4-0.4-1.2-0.7-1.6
			c-1-1.2-3.6-1.5-4.9-0.7c-1.3,0.7-1.3,2.5-0.1,3.4c0.4,0.3,0.9,0.4,1.3,0.7l3.4,0.9c1.6,0.4,3.3,1,4.6,2.2
			C48.4,48.4,48.5,47,49.1,45.5L49.1,45.5L49.1,45.5z"/>
	</g>
</g>
</svg>
