<?xml version="1.0" encoding="utf-8"?>
<svg version="1.1" id="Layer_1" xmlns="http://www.w3.org/2000/svg" xmlns:xlink="http://www.w3.org/1999/xlink" x="0px" y="0px"
	width="100px" height="100px" viewBox="0 0 66.7 66.7" style="enable-background:new 0 0 66.7 66.7;" xml:space="preserve">
<g>
	<circle style="fill:#E8E8E8;" cx="33.3" cy="33.3" r="33.3"/>
	<circle style="fill:#FFFFFF;" cx="33.3" cy="33.3" r="32.7"/>
	<path style="fill:#F06C00;" d="M55.3,31.9c0,0.9,3.1,0.5,3.1,2.4c0,2.2-2.5,2.2-3.7,1.6c-0.1-0.1-0.2-0.2-0.2-0.3v-0.5
		c0-0.2,0.1-0.2,0.2-0.2c0.1,0,0.1,0.1,0.2,0.1c1,0.8,2.5,0.7,2.5-0.1c0-1-3-0.7-3-2.5c0-1.7,2.1-2.1,3.7-1.4
		c0.1,0.1,0.2,0.2,0.2,0.3v0.4c0,0.2-0.1,0.2-0.2,0.2c-0.1,0-0.1-0.1-0.3-0.1C56.7,31.1,55.3,31.1,55.3,31.9z M54.1,28.7
		c1.1,0,0.4,2.1-0.1,2.1h-0.3c-0.1,0-0.1-0.1-0.1-0.1c0-0.1,0.2-0.3,0.2-0.9c0-0.5-0.3-0.9-0.3-1c0-0.1,0-0.2,0.1-0.2L54.1,28.7
		C54.1,28.6,54.1,28.7,54.1,28.7z M50.7,36.6c-0.3,0.8-1.1,1.4-2.1,1.4c-0.1,0-0.3,0-0.5-0.1c-0.1,0-0.3-0.1-0.3-0.3V37
		c0-0.1,0.1-0.1,0.2-0.1c0.1,0,0.3,0,0.4,0.1c0.9,0.3,1.8-0.1,1.8-0.9l-2.2-5C48,30.9,48,30.8,48,30.7s0-0.1,0.1-0.1h1.3
		c0.1,0,0.1,0.1,0.2,0.1l1.2,3.3l0.1,0.3l0.1-0.2l1.2-3.3c0-0.1,0.1-0.1,0.2-0.1h0.5c0.1,0,0.1,0.1,0.1,0.1s0,0.1-0.1,0.1
		C52.9,30.9,50.7,36.6,50.7,36.6z M47.4,30.7c0.1,0,0.3,0.1,0.3,0.3v0.7c0,0.1-0.1,0.1-0.2,0.1s-0.3-0.1-0.5-0.1
		c-0.7-0.1-1.7-0.1-1.7,0.9v3.2c0,0.1,0,0.1-0.1,0.1h-1.1c-0.1,0-0.1-0.1-0.1-0.1v-5.1c0-0.1,0.1-0.2,0.1-0.2h1.1
		c0.1,0,0.1,0.1,0.1,0.1v0.7c0.2-0.3,0.7-0.9,1.5-0.9C47.1,30.6,47.2,30.6,47.4,30.7C47.4,30.7,47.4,30.7,47.4,30.7z M42.9,30.7
		c0,0,0.1,0.1,0.1,0.1v3.3c0,1.5-1.2,2-2.4,2s-2.3-0.5-2.3-1.9v-3.5c0-0.1,0-0.2,0.1-0.2h1.1c0.1,0,0.2,0.1,0.2,0.2v3.7
		c0,0.5,0.3,0.9,1,0.9c0.7,0,1-0.4,1-1.2v-3.5c0-0.1,0-0.2,0.1-0.2L42.9,30.7C42.9,30.7,42.9,30.7,42.9,30.7z M35.5,30.6
		c1.2,0,2,1.1,2,2.5c0,1.9-1.3,3.1-2.9,3.1c-0.9,0-1.5-0.3-1.9-0.6c-0.2-0.1-0.2-0.3-0.2-0.5v-6.2c0-0.1,0.1-0.1,0.1-0.1h1.1
		c0.1,0,0.1,0.1,0.1,0.1v2.4C34.2,31.1,34.7,30.6,35.5,30.6L35.5,30.6z M34.8,35.5c0.7,0,1.3-0.8,1.3-2.1c0-0.5-0.1-1.9-1.2-1.9
		c-0.4,0-0.8,0.3-0.9,0.4v3.3c0,0.1,0,0.2,0.1,0.3C34.3,35.5,34.5,35.5,34.8,35.5z M28.9,31.9c0,0.9,3.1,0.5,3.1,2.4
		c0,2.2-2.5,2.2-3.8,1.6c-0.1-0.1-0.2-0.2-0.2-0.3v-0.5c0-0.2,0.1-0.2,0.2-0.2c0.1,0,0.1,0.1,0.3,0.1c1,0.8,2.5,0.7,2.5-0.1
		c0-1-3-0.7-3-2.5c0-1.7,2.1-2.1,3.6-1.4c0.1,0.1,0.1,0.2,0.1,0.3v0.4c0,0.2-0.1,0.2-0.2,0.2c-0.1,0-0.1-0.1-0.2-0.1
		C30.3,31.1,28.9,31.1,28.9,31.9z M25.4,30.5c1.1,0,1.7,0.7,1.7,1.7v3.7c0,0.1-0.1,0.1-0.1,0.1h-1.1c-0.1,0-0.1-0.1-0.1-0.1v-3.6
		c0-0.4-0.1-0.9-0.8-0.9c-0.4,0-0.9,0.3-1.1,0.4v4.1c0,0.1-0.1,0.1-0.2,0.1h-1.1c-0.1,0-0.1-0.1-0.1-0.1v-5.1c0-0.1,0-0.2,0.1-0.2
		h1.1c0.1,0,0.1,0.1,0.1,0.1v0.3C24.1,30.9,24.7,30.5,25.4,30.5L25.4,30.5z M20.9,30.7c0.1,0,0.2,0,0.2,0.1v5.1
		c0,0.1-0.1,0.1-0.2,0.1h-1.1c-0.1,0-0.1-0.1-0.1-0.1v-5.1c0-0.1,0-0.1,0.1-0.1H20.9z M19.6,29.3c0-0.3,0.3-0.7,0.8-0.7l0,0
		c0.5,0,0.7,0.3,0.7,0.7c0,0.4-0.3,0.7-0.7,0.7S19.6,29.7,19.6,29.3z M16.5,30.5c1.7,0,2.2,0.7,2.2,1.7v3.7c0,0.1-0.1,0.1-0.1,0.1
		h-1.1c-0.1-0.1-0.1-0.1-0.1-0.1v-0.3c-0.4,0.3-0.8,0.6-1.4,0.6c-1,0-1.9-0.6-1.9-1.7c0-1.3,1.5-1.6,2.1-1.7
		c1.1-0.1,1.1-0.2,1.1-0.5c0-0.6-0.1-1.1-0.9-1.1c-0.6,0-1,0.2-1.5,0.5c-0.1,0-0.1,0.1-0.3,0.1c-0.1,0-0.2-0.1-0.2-0.3v-0.5
		c0-0.1,0.1-0.2,0.2-0.3C15.1,30.7,15.8,30.5,16.5,30.5z M17.3,34.9v-1.6c-1.3,0-1.9,0.6-1.9,1.3c0,0.5,0.3,0.9,0.9,0.9
		C16.9,35.5,17.3,35,17.3,34.9z M9.7,30.3c0,1.3,3.8,1.2,3.8,3.4c0,2.4-2.9,2.9-4.9,2c-0.1-0.1-0.1-0.1-0.1-0.3v-0.6
		c0-0.1,0.1-0.2,0.3-0.2c0.1,0,0.2,0.1,0.3,0.2c1.7,1.1,3.1,0.5,3.1-0.5c0-1.6-3.7-1.1-3.7-3.5c0-1.1,0.9-2.1,2.5-2.1
		c0.8,0,1.5,0.1,1.9,0.3c0.1,0.1,0.1,0.1,0.1,0.2v0.7c0,0.1,0,0.2-0.1,0.2s-0.2-0.1-0.3-0.1c-0.5-0.3-0.9-0.5-1.5-0.5
		C10.2,29.4,9.7,29.8,9.7,30.3C9.7,30.3,9.7,30.3,9.7,30.3z"/>
</g>
</svg>
