<?xml version="1.0" encoding="utf-8"?>
<svg version="1.1" id="Layer_1" xmlns="http://www.w3.org/2000/svg" xmlns:xlink="http://www.w3.org/1999/xlink" x="0px" y="0px"
	width="100px" height="100px" viewBox="0 0 100 100" style="enable-background:new 0 0 100 100;" xml:space="preserve">
<g>
	<circle style="fill:#E7E7E7;" cx="49.9" cy="49.9" r="49.9"/>
	<circle style="fill:#FFFFFF;" cx="49.9" cy="49.9" r="49"/>
	<path d="M72.1,57.1l-0.7-2.2c-0.4-1-0.6-2.1-1.3-3c-0.1-0.1-0.1-0.3,0.1-0.4c0.7-0.4,1.2-1,1.3-1.8c0.3-1.2,0.3-2.4,0-3.6
		c-0.3-1.5-1.5-2.5-3.1-2.5c-2.2,0-4.6,0-6.7,0c-0.3,0-0.4,0-0.4,0.4v13.3c0,0.3,0.1,0.4,0.4,0.4c0.7,0,1.3,0,1.9,0
		c0.4,0,0.4-0.1,0.4-0.4v-4.3c0-0.3,0.1-0.4,0.4-0.4c0.6,0,1.2,0,1.9,0s1.2,0.4,1.3,1l0.7,2.1l0.6,1.6c0.1,0.4,0.3,0.6,0.7,0.6
		c0.6,0,1.3,0,1.9,0h0.6C72.4,57.4,72.4,57.3,72.1,57.1L72.1,57.1z M69,49c-0.1,0.4-0.6,0.7-1.2,0.7c-0.4,0-1,0-1.5,0h-1.6
		c-0.3,0-0.4-0.1-0.4-0.4v-2.8c0-0.3,0.1-0.4,0.4-0.4h3.4c0.4,0,0.7,0.4,1,0.9C69.3,47.7,69.3,48.4,69,49z M58,50.2l0.4,0.4
		c0.6,0.6,0.7,1.3,0.9,2.1c0.1,1.3,0.1,2.5-0.7,3.6c-0.6,0.7-1.5,1.3-2.5,1.3c-2.2,0-4.3,0-6.4,0c-0.4,0-0.4-0.1-0.4-0.4
		c0-0.4,0-1,0-1.5c0-0.3,0.1-0.4,0.4-0.4h4.9c1,0,1.8-0.7,1.9-1.6c0.1-1-0.4-1.9-1.6-2.2c-0.6-0.1-1.3-0.1-1.9-0.1s-1.3,0-1.9,0
		c-0.3,0-0.4-0.1-0.4-0.4c0-0.6,0-1,0-1.6c0-0.3,0.1-0.4,0.4-0.4h3.9c0.6,0,1-0.4,1.3-1c0.1-0.4,0.1-1-0.4-1.5
		c-0.3-0.1-0.6-0.3-1-0.4c-1.8,0-3.4,0-5.2,0c-0.4,0-0.4,0-0.4-0.4v-1.3c0-0.1,0.1-0.4,0.3-0.4h6.1c1,0,1.9,0.3,2.8,1
		c0.6,0.4,0.9,1.2,1,1.9c0.1,0.6,0,1.3,0,1.9C59.4,49.3,58.9,49.9,58,50.2z M38.4,46v-2.5h0.4l4.9,0.1c1.9,0,3.6,1.6,3.7,3.4
		c0,0.6,0,1.2-0.1,1.8c-0.1,1-0.7,1.6-1.6,2.1c-1,0.4-2.2,0.7-3.3,1.3c-0.4,0.1-0.7,0.3-1.2,0.6c-0.1,0.1-0.3,0.4-0.3,0.7
		c-0.1,0.4,0,0.7,0,1.2c0,0.3,0.1,0.4,0.4,0.4h5.4c0.4,0,0.4,0,0.4,0.4v1.6c0,0.1-0.1,0.3-0.3,0.3h-8.8c-0.1,0-0.3,0-0.3-0.3
		c0-1.3,0-2.7,0-4c0.1-1.6,1-2.5,2.5-3.1c0.7-0.3,1.8-0.4,2.5-0.9c0.4-0.1,1-0.4,1.3-0.9c0.4-0.4,0.4-1,0.1-1.5
		c-0.1-0.4-0.6-0.7-1.2-0.7h-4.6L38.4,46C38.2,46,38.4,46,38.4,46z M73.9,51.6v-5.2c0-1.9,1.2-2.7,2.7-2.7h6.9
		c0.3,0,0.4,0.1,0.4,0.4c0,0.6,0,1.2,0,1.8c0,0.3-0.1,0.4-0.4,0.4H78h-0.4c-0.4,0-0.7,0.3-0.7,0.7c0,0.7,0,1.3,0,2.1
		c0,0.3,0.1,0.1,0.4,0.1h5.4c0.1,0,0.1,0,0.3,0c0.3,0,0.4,0.1,0.4,0.4c0,0.6,0,1.2,0,1.8c0,0.3-0.1,0.4-0.4,0.4h-3.7h-1.8
		c-0.4,0-0.4,0-0.4,0.4v4.8c0,0.4-0.1,0.4-0.4,0.4c-0.7,0-1.3,0-1.9,0c-0.3,0-0.4-0.1-0.4-0.4L73.9,51.6L73.9,51.6L73.9,51.6z
		 M35.8,57.7h-1.6c-1,0-1,0-1-1v-10c0-0.4,0-0.6-0.4-0.4c-0.3,0-0.4-0.1-0.4-0.4c0-0.6,0-1,0-1.6c0-0.3,0.1-0.4,0.4-0.4
		c0.7,0,1.6,0,2.5,0c0.4,0,0.7,0.3,0.7,0.7v13C35.8,57.4,35.8,57.4,35.8,57.7z M87.3,42.3c-1,0-1.9,0.7-1.9,1.9c0,1,0.7,1.9,1.9,1.9
		c1,0,1.9-0.7,1.9-1.8C89.2,43.2,88.5,42.3,87.3,42.3z M87.1,45.7c-0.7,0-1.5-0.7-1.5-1.6s0.7-1.6,1.6-1.6c0.9,0,1.6,0.7,1.6,1.6
		C88.9,45.1,88,45.9,87.1,45.7z M87.9,44.7c0-0.1-0.1-0.3-0.3-0.4l0,0c0.1-0.1,0.4-0.3,0.4-0.6c0-0.1-0.1-0.3-0.1-0.4
		S87.4,43,87.1,43c-0.1,0-0.3,0-0.6,0v2.1h0.3v-0.7h0.3c0.3,0,0.4,0,0.4,0.4l0.1,0.4H88C87.9,45.1,87.9,45,87.9,44.7z M87.1,44.1
		h-0.4v-0.7c0.1,0,0.1,0,0.3,0c0.3,0,0.4,0.1,0.4,0.4C87.6,43.9,87.4,44.1,87.1,44.1L87.1,44.1z"/>
	<g>
		<path style="fill:#FACC36;" d="M27.1,47.2c-0.4,0-0.9-0.4-0.9-0.9v-1c0-1-0.9-2.1-2.1-2.1h-8.4c-1,0-2.1,0.9-2.1,2.1v1
			c0,0.4-0.4,0.9-0.9,0.9c-1,0-1.9,0.9-1.9,1.9v6.3c0,1,0.9,1.9,1.9,1.9h1.6h11.2h1.6c1,0,1.9-0.7,1.9-1.9v-6.3
			C29.2,48.1,28.3,47.2,27.1,47.2z M28.3,55.6L28.3,55.6c-0.1,0.7-0.4,1-1,1h-1.9v0.1l0,0c-0.3-0.7-0.9-1.3-1.6-1.8
			c-0.1,0-0.1-0.1-0.1-0.1h-6.7c-0.1,0-0.1,0-0.1,0.1c-0.7,0.4-1.2,1-1.6,1.6l0,0H13c-0.4,0-0.9-0.3-0.9-0.7v-6.4
			c0-0.4,0.4-0.9,0.9-0.9c1,0,1.9-0.9,1.9-1.9v-1c0-0.4,0.4-0.9,0.9-0.9h8.4c0.4,0,0.7,0.4,0.7,0.9v1c0,1,1,1.9,2.2,1.9
			c0.4,0,1,0.4,1,0.9L28.3,55.6L28.3,55.6z"/>
		<circle style="fill:#FACC36;" cx="19.9" cy="50.2" r="3.4"/>
	</g>
</g>
</svg>
