<?xml version="1.0"?>
<svg xmlns="http://www.w3.org/2000/svg" xmlns:xlink="http://www.w3.org/1999/xlink" xmlns:svgjs="http://svgjs.com/svgjs" version="1.1" width="512" height="512" x="0" y="0" viewBox="0 0 512 512" style="enable-background:new 0 0 512 512" xml:space="preserve" class=""><g>
<circle xmlns="http://www.w3.org/2000/svg" style="" cx="256" cy="256" r="256" fill="#f1f1f1" data-original="#ff5419" class=""/>
<path xmlns="http://www.w3.org/2000/svg" style="" d="M512,256c0-6.473-0.245-12.888-0.717-19.241L389.518,114.995l-47.75,138.278l1.769,1.769  L119.67,376.363L255.297,511.99c0.234,0,0.467,0.009,0.703,0.009C397.384,512,512,397.384,512,256z" fill="#f1f1f1" data-original="#c92f00" class=""/>
<path xmlns="http://www.w3.org/2000/svg" style="" d="M366.618,105.158H145.382c-17.455,0-31.604,14.15-31.604,31.604v221.234  c0,17.456,14.15,31.606,31.604,31.606h67.069l31.863,31.851c6.454,6.451,16.915,6.447,23.364-0.009l31.813-31.842h67.127  c17.455,0,31.604-14.15,31.604-31.604V136.763C398.222,119.308,384.072,105.158,366.618,105.158z" fill="#ffedb5" data-original="#ffedb5" class=""/>
<path xmlns="http://www.w3.org/2000/svg" style="" d="M366.618,105.158H254.852v321.076c4.601,0.317,9.311-1.271,12.826-4.789l31.813-31.842h67.127  c17.455,0,31.604-14.15,31.604-31.604V136.763C398.222,119.308,384.072,105.158,366.618,105.158z" fill="#fee187" data-original="#fee187" class=""/>
<rect xmlns="http://www.w3.org/2000/svg" x="217.385" y="151.135" style="" width="6.896" height="31.254" fill="#386895" data-original="#386895" class=""/>
<rect xmlns="http://www.w3.org/2000/svg" x="287.72" y="151.135" style="" width="6.896" height="31.254" fill="#273b7a" data-original="#273b7a" class=""/>
<rect xmlns="http://www.w3.org/2000/svg" x="197.387" y="176.718" style="" width="117.226" height="195.37" fill="#386895" data-original="#386895" class=""/>
<rect xmlns="http://www.w3.org/2000/svg" x="254.845" y="176.718" style="" width="59.761" height="195.37" fill="#273b7a" data-original="#273b7a" class=""/>
<g xmlns="http://www.w3.org/2000/svg">
	<rect x="220.832" y="207.972" style="" width="23.445" height="23.445" fill="#71e2ef" data-original="#71e2ef"/>
	<rect x="267.723" y="207.972" style="" width="23.445" height="23.445" fill="#71e2ef" data-original="#71e2ef"/>
	<rect x="220.832" y="242.502" style="" width="23.445" height="23.445" fill="#71e2ef" data-original="#71e2ef"/>
	<rect x="267.723" y="242.502" style="" width="23.445" height="23.445" fill="#71e2ef" data-original="#71e2ef"/>
	<rect x="220.832" y="278.756" style="" width="23.445" height="23.445" fill="#71e2ef" data-original="#71e2ef"/>
	<rect x="267.723" y="278.756" style="" width="23.445" height="23.445" fill="#71e2ef" data-original="#71e2ef"/>
</g>
<rect xmlns="http://www.w3.org/2000/svg" x="206.265" y="126.983" style="" width="99.464" height="39.788" fill="#38c6d9" data-original="#38c6d9"/>
<rect xmlns="http://www.w3.org/2000/svg" x="254.845" y="126.983" style="" width="50.881" height="39.788" fill="#02b2b2" data-original="#02b2b2"/>
<rect xmlns="http://www.w3.org/2000/svg" x="241.778" y="326.68" style="" width="28.444" height="44.822" fill="#ffffff" data-original="#ffffff" class=""/>
<rect xmlns="http://www.w3.org/2000/svg" x="254.845" y="326.68" style="" width="15.37" height="44.822" fill="#d0d1d3" data-original="#d0d1d3"/>
<g xmlns="http://www.w3.org/2000/svg">
</g>
<g xmlns="http://www.w3.org/2000/svg">
</g>
<g xmlns="http://www.w3.org/2000/svg">
</g>
<g xmlns="http://www.w3.org/2000/svg">
</g>
<g xmlns="http://www.w3.org/2000/svg">
</g>
<g xmlns="http://www.w3.org/2000/svg">
</g>
<g xmlns="http://www.w3.org/2000/svg">
</g>
<g xmlns="http://www.w3.org/2000/svg">
</g>
<g xmlns="http://www.w3.org/2000/svg">
</g>
<g xmlns="http://www.w3.org/2000/svg">
</g>
<g xmlns="http://www.w3.org/2000/svg">
</g>
<g xmlns="http://www.w3.org/2000/svg">
</g>
<g xmlns="http://www.w3.org/2000/svg">
</g>
<g xmlns="http://www.w3.org/2000/svg">
</g>
<g xmlns="http://www.w3.org/2000/svg">
</g>
</g></svg>
