<?xml version="1.0" encoding="utf-8"?>
<svg version="1.1" id="Layer_1" xmlns="http://www.w3.org/2000/svg" xmlns:xlink="http://www.w3.org/1999/xlink" x="0px" y="0px"
	width="100px" height="100px" viewBox="0 0 66.7 66.7" style="enable-background:new 0 0 66.7 66.7;" xml:space="preserve">
<g>
	<circle style="fill:#E8E8E8;" cx="33.3" cy="33.3" r="33.3"/>
	<circle style="fill:#FFFFFF;" cx="33.3" cy="33.3" r="32.7"/>
	
		<linearGradient id="SVGID_1_" gradientUnits="userSpaceOnUse" x1="512.6415" y1="-298.9333" x2="512.6415" y2="-267.7223" gradientTransform="matrix(0.6667 0 0 -0.6667 -308.4444 -155.5555)">
		<stop  offset="0" style="stop-color:#161998"/>
		<stop  offset="0.129" style="stop-color:#441E93"/>
		<stop  offset="0.266" style="stop-color:#6E228F"/>
		<stop  offset="0.407" style="stop-color:#90258C"/>
		<stop  offset="0.549" style="stop-color:#AB2889"/>
		<stop  offset="0.694" style="stop-color:#BE2A87"/>
		<stop  offset="0.842" style="stop-color:#C92B86"/>
		<stop  offset="1" style="stop-color:#CD2B86"/>
	</linearGradient>
	<path style="fill:url(#SVGID_1_);" d="M43.9,30.3h4.3l-5.1,6.8h-4.3L43.9,30.3L43.9,30.3L43.9,30.3z M43.6,29.7l-5.5,7.2
		c-0.1,0.2-0.1,0.4-0.1,0.6s0.3,0.3,0.5,0.3h4.9l5.5-7.3c0.1-0.1,0.1-0.4,0.1-0.5c-0.1-0.2-0.3-0.3-0.5-0.3L43.6,29.7L43.6,29.7
		L43.6,29.7z M27.9,26.2c0-0.1,0.1-0.1,0.1-0.1h2.9l0.4-2.3c0-0.1,0.1-0.1,0.1-0.1h2.7h0.1c0,0,0.1,0.1,0.1,0.1l-0.3,1.5h12.6
		c0.1,0,0.1,0.1,0.1,0.1v0.2l-1.1,1.5H55c0.1,0,0.1,0,0.1,0.1v0.1l-7.8,10.1c-0.1,0.1-0.1,0.4,0,0.5c0.1,0.1,0.3,0.3,0.4,0.3h5.5
		c0.1,0,0.1,0,0.1,0.1c0,0,0.1,0.1,0,0.1l-0.4,2.3c0,0.1-0.1,0.1-0.1,0.1H32h-0.3v0.4c0,1.1-0.9,1.9-1.9,1.9s-1.9-0.9-1.9-1.9
		s0.9-1.9,1.9-1.9c0.7,0,1.3,0.4,1.7,1l8.5-11.1c0.1-0.3,0.1-0.4,0-0.5s-0.3-0.3-0.5-0.3h-5.9L32,37c0,0.1-0.1,0.1-0.1,0.1h-2.7
		c-0.1,0-0.1-0.1-0.1-0.1s-0.1-0.1,0-0.1l1.7-9.3L24,40.7c-0.1,0.1-0.2,0.2-0.3,0.2h-2.3c-0.1,0-0.1-0.1-0.1-0.1l-0.7-9.5l-4.9,9.5
		c-0.1,0.1-0.2,0.1-0.3,0.1h-2.3c-0.1,0-0.1-0.1-0.1-0.1l-1.5-14.4c0-0.1,0-0.1,0.1-0.1h0.1h3.1c0.1,0,0.1,0.1,0.1,0.1l0.4,9.4
		l4.5-9.5c0-0.1,0.1-0.1,0.1-0.1h2.8c0.1,0,0.1,0.1,0.1,0.1l0.5,9.5C23.4,35.7,27.9,26.2,27.9,26.2z M31.4,22.9
		c-0.3,0-0.6,0.3-0.7,0.5l-0.3,1.9H28c-0.3,0-0.5,0.1-0.6,0.3L24,33l-0.3-6.9c0-0.3-0.3-0.6-0.7-0.6h-3.1c-0.3,0-0.5,0.1-0.6,0.3
		L15.9,33l-0.3-6.9c0-0.3-0.3-0.7-0.7-0.7h-3.4c-0.2,0-0.3,0.1-0.5,0.2c-0.1,0.1-0.2,0.3-0.2,0.5l1.5,14.7c0.1,0.3,0.3,0.6,0.7,0.6
		h2.5c0.3,0,0.6-0.1,0.7-0.5l3.9-7.4l0.5,7.3c0.1,0.3,0.3,0.6,0.7,0.6h2.5c0.3,0,0.6-0.1,0.7-0.5l4.7-9.3l-0.9,5.2
		c0,0.2,0,0.4,0.1,0.5c0.1,0.1,0.3,0.3,0.5,0.3h3c0.3,0,0.6-0.2,0.7-0.5l1.5-8.2h5.1l-7.8,10.2c-0.5-0.4-1.1-0.6-1.7-0.6
		c-1.4,0-2.6,1.1-2.6,2.5c0,0,0,0.1,0,0.1c0,1.4,1.1,2.6,2.5,2.6c0,0,0.1,0,0.1,0c1.3,0,2.4-1,2.6-2.3h20.5c0.3,0,0.6-0.2,0.7-0.5
		l0.5-2.7c0-0.2,0-0.4-0.1-0.5s-0.3-0.2-0.5-0.2H48l7.7-10.2c0.1-0.2,0.1-0.5,0-0.7c-0.1-0.2-0.3-0.3-0.5-0.3h-8.3l0.5-0.7
		c0.1-0.2,0.1-0.5,0-0.7c-0.1-0.2-0.3-0.3-0.6-0.3h-12l0.1-0.9c0-0.2,0-0.3-0.1-0.5c-0.1-0.1-0.3-0.2-0.5-0.2L31.4,22.9
		C31.4,22.9,31.4,22.9,31.4,22.9z"/>
</g>
</svg>
