<?xml version="1.0" encoding="utf-8"?>
<svg version="1.1" id="Layer_1" xmlns="http://www.w3.org/2000/svg" xmlns:xlink="http://www.w3.org/1999/xlink" x="0px" y="0px"
	 viewBox="0 0 340.4 52.5" style="enable-background:new 0 0 340.4 52.5;" xml:space="preserve">
<g>
	<path style="fill:#010101;" d="M240.9,17.3c-4.1,0-10,1.4-12.3,2.3l-0.5,8.7h0.9l5.9-7.8c1.4-1.8,2.7-2.3,5-2.3
		c3.2,0,4.6,1.8,4.6,5c0,2.7-0.5,4.1-2.3,5c-0.9,0.9-2.7,2.3-5,3.2c-6.4,2.7-11.9,5-11.9,11.4c0,5,3.7,9.1,10,9.1l0,0
		c4.6,0,7.8-2.3,8.7-6.8l0.5,6.4h8.7V27.8C253.7,18.7,247.8,17.3,240.9,17.3z M244.1,42c0,3.7-1.8,5.9-4.1,5.9
		c-2.3,0-4.6-2.3-4.6-7.8s3.7-8.7,6.8-11.4c0.9-0.5,1.4-1.4,2.3-1.8C244.1,27.4,244.1,42,244.1,42z M140.5,44.7
		c-7.3,0-11.9-6.4-11.9-15.1v-1.4h22.8c-2.3-8.2-9.1-11-15.1-11c-8.7,0-16.9,7.3-16.9,17.3c0,10.5,7.8,16.9,16.9,16.9l0,0
		c8.2,0,15.1-4.6,16.4-16.9h-0.5C150.6,43.3,144.6,44.7,140.5,44.7z M135.5,18.3c3.7,0,5.5,3.2,5.5,5.5c0,2.7-1.4,3.7-5.5,3.7h-7.3
		C129.1,21,132.3,18.3,135.5,18.3z M68.4,44.7c-7.3,0-11.9-6.4-11.9-15.1v-1.4h22.8c-2.3-8.2-9.1-11-15.1-11
		c-8.7,0-16.9,7.3-16.9,17.3c0,10.5,7.8,16.9,16.9,16.9l0,0c8.2,0,15.1-4.6,16.4-16.9h-0.5C78.5,43.3,72.5,44.7,68.4,44.7z
		 M63.4,18.3c3.7,0,5.5,3.2,5.5,5.5c0,2.7-1.4,3.7-5.5,3.7h-7.3C57,21,60.2,18.3,63.4,18.3z M300.7,17.3c-5,0-9.1,2.3-10,7.8
		c-0.9-5.5-4.6-7.8-10-7.8c-5,0-8.7,2.3-10,6.8v-7.3l-14.1,8.2v0.5l4.6,3.2v22.8h9.6V29.7c0-6.4,1.8-9.1,5.5-9.1c3.2,0,5,2.7,5,9.1
		v21.9h9.6V29.7c0-6.4,1.8-9.1,5.5-9.1c3.2,0,5,2.7,5,9.1v21.9h9.6V29.7C310.7,21,306.6,17.3,300.7,17.3z M177.5,17.3
		c-5,0-8.7,2.3-10,6.8v-7.3l-14.1,8.2v0.5l4.6,3.2v22.8h9.6V29.7c0-6.4,1.8-9.1,5.5-9.1c3.2,0,5,2.7,5,9.1v21.9h9.6V29.7
		C187.5,21,183.4,17.3,177.5,17.3z M15.5,1.4H0v50.2l10.5-6.4V1.8h4.6c11.4,0,17.8,8.2,18.3,23.7c0.9,17.3-7.8,24.6-18.3,24.6h-2.7
		v0.9h3.2c16.4,0,29.2-10,29.2-25.1C45.2,11,32.9,1.4,15.5,1.4z M211.7,17.3c-5,0-9.1,2.3-10.5,6.8V0l0,0l-9.1,5.5v45.6h9.1V29.2
		c0-6.4,2.3-9.1,5.9-9.1c3.2,0,5.5,2.7,5.5,9.1v21.9h9.6V29.2C222.2,21,218.1,17.3,211.7,17.3z M102.7,17.3c-4.6,0-8.2,2.7-9.6,6.4
		V0l0,0l-9.6,5.5v45.6h9.6v-5.5c1.4,3.7,5,6.4,9.1,6.4l0,0c7.3,0,14.6-6.4,14.6-17.3S109.5,17.3,102.7,17.3z M98.6,48.8
		c-2.3,0-4.6-1.8-5.5-5V25.6c0.9-3.2,3.2-5,5-5c4.1,0,7.3,4.6,7.3,14.1C105.9,45.2,101.8,48.8,98.6,48.8z M330.4,30.1l-3.7-0.9
		c-3.7-0.9-5.9-2.7-5.9-5.9c0-3.7,3.7-5,6.8-4.6c1.8,0,3.2,0,4.1,0.9l6.4,8.2h0.9l-0.9-8.7c-2.7-0.9-6.4-1.8-9.1-1.8l0,0
		c-7.3,0-13.7,3.7-13.7,10.5c0,5.5,3.2,9.1,9.6,10.5l4.1,1.4c3.7,0.9,5.9,2.7,5.9,5.9c0,3.7-3.7,5.5-7.3,5.5c-1.4,0-3.2,0-4.1-0.9
		l-6.8-8.2h-1.4l0.9,8.7c3.2,0.9,6.8,1.8,10,1.8l0,0l0,0l0,0c8.2,0,14.1-4.1,14.1-11C340.4,35.1,337.2,31.9,330.4,30.1z"/>
</g>
</svg>
