<?xml version="1.0"?>
<svg xmlns="http://www.w3.org/2000/svg" xmlns:xlink="http://www.w3.org/1999/xlink" xmlns:svgjs="http://svgjs.com/svgjs" version="1.1" width="512" height="512" x="0" y="0" viewBox="0 0 512 512" style="enable-background:new 0 0 512 512" xml:space="preserve" class=""><g>
<circle xmlns="http://www.w3.org/2000/svg" style="" cx="256" cy="256" r="256" fill="#f1f1f1" data-original="#590f38" class=""/>
<path xmlns="http://www.w3.org/2000/svg" style="" d="M512,256c0-1.961-0.03-3.915-0.074-5.866L389.979,128.188L122.021,395.813l115.52,115.52  C243.638,511.767,249.792,512,256,512C397.385,512,512,397.385,512,256z" fill="#f1f1f1" data-original="#3f0628" class=""/>
<g xmlns="http://www.w3.org/2000/svg">
	<rect id="SVGCleanerId_0" x="122.02" y="193.81" style="" width="267.96" height="202" fill="#ffffff" data-original="#ffffff" class=""/>
</g>
<g xmlns="http://www.w3.org/2000/svg">
	<rect id="SVGCleanerId_0_1_" x="122.02" y="193.81" style="" width="267.96" height="202" fill="#ffffff" data-original="#ffffff" class=""/>
</g>
<g xmlns="http://www.w3.org/2000/svg">
	<rect id="SVGCleanerId_0_2_" x="122.02" y="193.81" style="" width="267.96" height="202" fill="#ffffff" data-original="#ffffff" class=""/>
</g>
<rect xmlns="http://www.w3.org/2000/svg" x="256" y="193.81" style="" width="133.98" height="202" fill="#e0e0e0" data-original="#e0e0e0"/>
<rect xmlns="http://www.w3.org/2000/svg" x="157.67" y="251.75" style="" width="63.33" height="144.06" fill="#0074a3" data-original="#0074a3"/>
<rect xmlns="http://www.w3.org/2000/svg" x="237.67" y="251.75" style="" width="123.33" height="95.17" fill="#35ccff" data-original="#35ccff"/>
<rect xmlns="http://www.w3.org/2000/svg" x="256" y="251.75" style="" width="105" height="95.17" fill="#00baff" data-original="#00baff"/>
<rect xmlns="http://www.w3.org/2000/svg" x="122.02" y="128.19" style="" width="46.667" height="93.39" fill="#f1333f" data-original="#f1333f" class=""/>
<rect xmlns="http://www.w3.org/2000/svg" x="166.28" y="128.19" style="" width="46.667" height="93.39" fill="#ff9451" data-original="#ff9451" class=""/>
<rect xmlns="http://www.w3.org/2000/svg" x="210.54" y="128.19" style="" width="46.667" height="93.39" fill="#f1333f" data-original="#f1333f" class=""/>
<rect xmlns="http://www.w3.org/2000/svg" x="254.8" y="128.19" style="" width="46.667" height="93.39" fill="#f7674f" data-original="#f7674f"/>
<rect xmlns="http://www.w3.org/2000/svg" x="299.05" y="128.19" style="" width="46.667" height="93.39" fill="#ae283f" data-original="#ae283f"/>
<rect xmlns="http://www.w3.org/2000/svg" x="343.31" y="128.19" style="" width="46.667" height="93.39" fill="#f7674f" data-original="#f7674f"/>
<g xmlns="http://www.w3.org/2000/svg">
</g>
<g xmlns="http://www.w3.org/2000/svg">
</g>
<g xmlns="http://www.w3.org/2000/svg">
</g>
<g xmlns="http://www.w3.org/2000/svg">
</g>
<g xmlns="http://www.w3.org/2000/svg">
</g>
<g xmlns="http://www.w3.org/2000/svg">
</g>
<g xmlns="http://www.w3.org/2000/svg">
</g>
<g xmlns="http://www.w3.org/2000/svg">
</g>
<g xmlns="http://www.w3.org/2000/svg">
</g>
<g xmlns="http://www.w3.org/2000/svg">
</g>
<g xmlns="http://www.w3.org/2000/svg">
</g>
<g xmlns="http://www.w3.org/2000/svg">
</g>
<g xmlns="http://www.w3.org/2000/svg">
</g>
<g xmlns="http://www.w3.org/2000/svg">
</g>
<g xmlns="http://www.w3.org/2000/svg">
</g>
</g></svg>
