<?xml version="1.0" encoding="utf-8"?>
<svg version="1.1" id="Layer_1" xmlns="http://www.w3.org/2000/svg" xmlns:xlink="http://www.w3.org/1999/xlink" x="0px" y="0px"
	 viewBox="0 0 1905.23 1065.23" style="enable-background:new 0 0 1905.23 1065.23;" xml:space="preserve">
<g>
	<g>
		<path d="M327.88,417.23l-10.71-21.78H101.91V566.4h126.28l16.25,29.54l3.32,5.17l-4.43-5.17l-17.72-21.78H101.91v177.23
			l-33.23,13.29l-15.88,6.28l-42.09,17.35h184.25c0,0-42.83-4.06-52.8-47.63V612.92l-3.69-3.32l-21.42-22.15l25.11,18.83l4.43,3.32
			h70.52c47.26,0,53.54,27.32,53.54,27.32V503.26c0,0-6.28,27.69-53.54,27.69h-70.15l-4.43,3.32l-25.11,18.83l21.42-22.15l3.69-4.06
			v-93.42l-25.11-25.85l30.28,22.89h164.68c10.71,1.85,21.05,5.91,30.28,11.82l-6.28-11.82L327.88,417.23z"/>
		<path d="M52.8,399.88v130.71c-2.22,19.57-16.62,35.82-35.82,39.51c14.4,2.95,26.58,12.92,32.86,26.22l3.32-32.12v176.12
			c-1.85,10.34-6.65,19.57-13.66,27.32l13.66-5.54l15.88-6.28l24.37-9.6V387.69h230.03l15.14,29.54l7.02,14.03l19.57,37.29V352.62H0
			C0,352.62,42.83,355.94,52.8,399.88z"/>
		<path d="M477.78,399.88v130.71c-2.22,19.57-16.62,35.82-35.82,39.51c14.4,3.32,26.22,12.92,32.49,26.22l3.32-32.12v176.12
			c-1.85,10.34-6.65,19.57-13.66,27.32l13.66-5.54l15.88-6.28l24.37-9.6V391.38h8.86v360l-33.23,13.29l-15.88,6.28l-42.09,17.35
			h183.88c0,0-42.83-3.69-52.8-47.63V610.71c2.22-19.94,16.98-36.18,36.55-39.88c0,0-23.26-3.69-32.86-25.85l-3.69,32.12V400.25
			c9.97-43.94,52.8-47.26,52.8-47.26H424.62C424.98,352.62,467.82,355.94,477.78,399.88z"/>
		<path d="M1152,548.31c-11.45-110.03-111.14-195.69-231.51-195.69c-118.89,0-216,82.71-230.77,190.15c0,1.85-0.74,2.95-0.74,4.43
			c-0.37,9.6,0.37,19.2,1.85,28.8c-1.11-3.32-2.22-7.02-3.32-10.71c-1.11-4.43-1.85-8.49-2.58-11.82
			c-6.28,8.49-15.14,14.03-25.11,16.25c12.55,2.95,22.89,11.45,28.8,22.89c12.18,108.92,111.14,194.22,231.14,194.22
			s218.58-84.92,231.51-194.22v-0.37c0.74-10.34,0-20.68-1.85-30.65c1.11,3.32,1.85,6.65,3.32,9.97c1.11,5.17,1.85,9.97,3.32,14.03
			c6.28-7.75,14.77-13.29,24.37-15.51C1168.62,567.14,1158.28,559.38,1152,548.31z M920.49,751.38
			c-106.34,0-193.11-81.23-193.11-182.03l0,0c0-100.06,86.77-182.03,192.74-182.03s192.37,81.6,192.37,182.03
			C1112.86,670.15,1026.83,751.38,920.49,751.38z"/>
		<path d="M920.49,395.45c-101.17,0-184.25,78.65-184.25,174.28l0,0c0,96.37,82.71,174.28,184.25,174.28S1104,665.72,1104,569.72
			C1104.37,473.72,1021.66,395.45,920.49,395.45z M1061.54,541.66c2.58,11.08,3.69,22.15,3.69,33.23c-0.37-1.48-0.74-2.95-0.74-4.43
			c-1.48-7.02-3.32-13.66-5.54-20.68c-5.17,9.97-14.4,17.35-25.11,19.94c14.03,2.58,25.11,13.66,27.69,27.69
			c-13.66,62.77-71.63,110.77-140.68,110.77c-67.2,0-124.43-45.05-139.57-105.6l0,0c-0.74-1.48-1.11-3.32-1.11-5.17
			c-2.58-11.08-3.69-22.52-3.69-33.97c0,1.85,0.37,3.32,0.74,5.17c1.11,7.02,2.95,13.66,5.54,19.94
			c4.8-9.97,14.03-16.98,24.37-18.83c-1.85-0.37-23.26-6.28-26.95-28.43c13.29-62.77,70.89-110.77,140.68-110.77
			c65.72,0,121.85,43.57,138.83,103.02C1059.69,533.91,1060.43,536.86,1061.54,541.66z"/>
		<path d="M1622.03,489.6c0-75.69-69.05-136.98-154.71-136.98h-249.6c0,0,42.83,3.32,52.8,47.26v130.71
			c-1.85,19.57-16.25,35.82-35.45,39.51c14.4,2.95,26.22,12.92,32.12,26.22l3.69-32.12v176.12c-1.85,11.45-7.38,21.78-15.88,29.91
			l15.88-6.28l15.88-5.54l24.37-8.86V387.32h156.55c63.51,0,114.46,45.78,114.46,101.91c0,41.72-28.43,77.91-69.05,93.42
			c-13.66,4.8-28.06,7.38-42.83,7.75l26.22,32.86L1603.2,758.4l-36.92,12.92l-9.97,3.32l-39.14,13.29h49.11v-1.11l0.74,1.11h108.92
			L1536,611.82C1586.58,589.66,1622.03,542.77,1622.03,489.6z"/>
		<path d="M1468.06,583.02c13.29,0,26.58-2.22,39.14-6.65c39.14-14.03,66.09-48,66.09-86.77c0-51.69-47.26-94.15-105.6-94.15H1320
			v187.57h147.69H1468.06z M1332.92,570.09l26.95-27.69V436.43l-26.95-27.69l29.54,22.89h104.86c36.55,0,66.09,26.22,66.09,58.34
			s-29.54,58.34-66.09,58.34h-104.86L1332.92,570.09z"/>
		<path d="M1438.52,626.22l99.69,125.91c5.17,8.49,5.54,14.4,3.32,18.83l9.6-2.95l15.14-5.54l23.26-7.75l-103.02-129.6l-26.95-34.34
			H1320v164.68l-33.23,11.82l-15.88,6.28l-40.62,15.14h182.77c0,0-42.83-3.69-52.8-47.63v-110.4l-26.95-27.69l30.65,24h74.58V626.22
			z"/>
		<path d="M1852.06,740.31V610.34c2.22-19.94,16.98-36.18,36.55-39.88c-14.4-2.58-26.58-12.18-32.49-25.85l-3.69,32.12V399.88
			c9.97-43.94,52.8-47.26,52.8-47.26h-194.95c0,0,42.83,3.32,52.8,47.26v130.71c-2.22,19.57-16.62,35.82-35.82,39.51
			c14.4,3.32,26.22,12.92,32.86,26.22l3.32-32.12v176.12c-1.85,10.34-6.65,19.57-13.66,27.32l13.66-5.54l15.88-6.28l24.37-9.6
			V391.38h8.86v360l-33.23,13.29l-15.88,6.28l-42.09,17.35h183.88C1904.86,788.31,1862.4,784.62,1852.06,740.31z"/>
	</g>
	<path style="fill:#B79888;" d="M1410.46,154.34c0,10.34-8.49,19.2-18.83,19.2c0,0,0,0-0.37,0c-8.49,0-15.88-5.54-18.46-13.66
		H539.82c-2.58,8.12-10.34,13.66-18.83,13.66c-10.34,0-18.83-8.49-18.83-18.83s8.49-18.83,18.83-18.83l0,0
		c8.49-0.37,16.25,5.17,18.83,13.29h93.78l85.66-80.12l39.88,37.66l76.06-70.52l43.57,40.62L956.31,0l77.54,76.43l43.57-40.62
		l75.69,71.63l41.72-38.4l84.92,79.75h93.42c3.32-9.97,14.4-15.51,24.37-12.18C1404.92,139.57,1410.09,146.58,1410.46,154.34
		L1410.46,154.34z M528.74,154.34c0-4.06-3.32-7.75-7.38-7.75h-0.37c-4.43,0-7.75,3.32-7.75,7.75c0,4.43,3.32,7.75,7.75,7.75
		c4.06,0,7.75-2.95,7.75-7.38C528.74,154.71,528.74,154.71,528.74,154.34L528.74,154.34z M649.48,149.17h64.25l37.66-34.71
		l-32.12-29.91L649.48,149.17z M759.14,121.85l-29.17,27.32h57.97L759.14,121.85z M767.63,114.46l36.92,34.71h56.86V94.15l9.6-9.6
		L835.2,51.32L767.63,114.46z M872.12,138.09l84.18-82.71l83.45,83.08V98.58l-83.45-82.34l-84.18,82.34V138.09z M992.49,148.8h42.46
		l-78.65-77.17l-78.65,77.54h42.46l36.18-35.82L992.49,148.8z M956.31,128.86l-19.94,20.31h39.88L956.31,128.86z M1041.6,84.18
		l9.6,9.97v55.02h56.86l36.92-33.97l-67.94-63.88L1041.6,84.18z M1152.74,122.95l-28.43,26.22h56.12L1152.74,122.95z M1161.23,115.2
		l35.82,33.97h65.72l-68.31-64.25L1161.23,115.2z M1399.02,154.34c0-4.43-3.32-7.75-7.75-8.12c-4.43,0-7.75,3.32-8.12,7.75
		c0,4.43,3.32,7.75,7.75,8.12h0.37C1395.32,162.09,1399.02,158.77,1399.02,154.34L1399.02,154.34z"/>
	<g>
		<path d="M458.58,999.14c0-7.02-2.58-14.03-7.75-19.2c-6.28-6.28-15.88-9.6-27.32-9.6h-41.35v93.05h14.03v-34.71h23.26l26.58,34.71
			h17.35l-28.8-37.29C450.09,1022.77,458.58,1012.8,458.58,999.14z M396.18,1016.12v-32.49h26.58c13.66,0,21.42,5.91,21.42,15.88
			l0,0c0,10.34-8.49,16.98-21.78,16.98h-26.22V1016.12z"/>
		<polygon points="517.66,1023.14 567.88,1023.14 567.88,1010.58 517.66,1010.58 517.66,983.26 573.78,983.26 573.78,970.71 
			503.63,970.71 503.63,1063.75 574.52,1063.75 574.52,1051.2 517.66,1051.2 		"/>
		<path d="M653.17,1010.58c-19.94-4.06-23.26-8.49-23.26-15.51c0-7.75,7.38-12.92,17.72-12.92c9.23,0,18.46,3.32,25.48,9.23
			l1.48,1.11l8.12-10.71l-1.48-1.11c-9.23-7.75-21.42-11.82-33.6-11.45c-18.46,0-32.12,11.08-32.12,26.22
			c0,17.35,12.92,23.63,32.49,27.69c19.57,4.06,22.52,8.12,22.52,15.14c0,8.12-7.38,13.66-18.83,13.66
			c-11.82,0-20.31-3.69-30.28-12.18l-1.48-1.11l-8.86,10.34l1.48,1.11c10.34,9.6,24.37,15.14,38.77,14.77
			c19.57,0,33.23-11.08,33.23-27.32C684.55,1023.51,675.32,1015.38,653.17,1010.58z"/>
		<polygon points="720,983.63 750.65,983.63 750.65,1063.75 765.05,1063.75 765.05,983.63 796.06,983.63 796.06,970.71 720,970.71 
					"/>
		<path d="M861.05,969.97l-43.57,93.78h14.77l11.08-23.63h47.63l10.71,23.63h15.14l-43.57-93.78H861.05z M848.49,1027.57
			l18.09-39.51l18.09,39.51H848.49z"/>
		<path d="M1017.97,1024.62c0,18.09-9.23,27.69-25.85,27.69c-16.62,0-26.22-10.34-26.22-28.43v-53.17h-14.03v53.91
			c0,25.11,15.51,40.62,40.25,40.62c24.74,0,40.25-15.51,40.25-41.35v-53.17h-14.03v53.91H1017.97z"/>
		<path d="M1155.69,999.14c0-7.02-2.58-14.03-7.75-19.2c-6.28-6.28-15.88-9.6-27.32-9.6h-41.35v93.05h14.03v-34.71h23.63
			l26.58,34.71h17.35l-28.8-37.29C1146.83,1022.77,1155.69,1012.8,1155.69,999.14z M1093.29,1016.49v-32.86h26.58
			c13.66,0,21.78,5.91,21.78,15.88s-8.49,16.98-21.78,16.98H1093.29z"/>
		<path d="M1235.45,969.97l-43.57,93.78h14.77l11.08-23.63h47.63l10.71,23.63h15.14l-43.57-93.78H1235.45z M1222.89,1027.57
			l18.09-39.51l18.09,39.51H1222.89z"/>
		<polygon points="1398.65,1039.02 1343.26,970.71 1330.71,970.71 1330.71,1063.75 1344.74,1063.75 1344.74,993.6 1401.23,1063.75 
			1412.31,1063.75 1412.31,970.71 1398.65,970.71 		"/>
		<polygon points="1454.4,970.71 1454.4,983.63 1485.42,983.63 1485.42,1063.75 1499.45,1063.75 1499.45,983.63 1530.46,983.63 
			1530.46,970.71 		"/>
	</g>
</g>
</svg>
