<?xml version="1.0"?>
<svg xmlns="http://www.w3.org/2000/svg" xmlns:xlink="http://www.w3.org/1999/xlink" xmlns:svgjs="http://svgjs.com/svgjs" version="1.1" width="512" height="512" x="0" y="0" viewBox="0 0 512 512" style="enable-background:new 0 0 512 512" xml:space="preserve" class=""><g><g xmlns="http://www.w3.org/2000/svg"><g><g><g><g><g><g><g><g><g><g><circle cx="256" cy="256" fill="#f1f1f1" r="256" data-original="#fe6a16" style="" class=""/></g></g></g></g></g></g></g></g></g></g><path d="m512 256c0-25.155-3.628-49.463-10.39-72.429l-100.563-100.563-306.178 333.984 82.802 82.802c24.687 7.926 51.008 12.206 78.329 12.206 141.385 0 256-114.615 256-256z" fill="#f1f1f1" data-original="#ef3300" style="" class=""/><g><path d="m110.953 83.008h290.093v54.402h-290.093z" fill="#fdba12" data-original="#fdba12" style=""/></g><g><path d="m255.595 83.008h145.451v54.402h-145.451z" fill="#ffa300" data-original="#ffa300" style="" class=""/></g><g><path d="m94.869 112.882h322.263v304.11h-322.263z" fill="#ffffff" data-original="#ffffff" style="" class=""/></g><g><path d="m255.595 112.882h161.536v304.11h-161.536z" fill="#e9edf5" data-original="#e9edf5" style="" class=""/></g><g><path d="m110.844 133.999h43.452v83.25h-43.452z" fill="#a3d4ff" data-original="#a3d4ff" style="" class=""/></g><g><path d="m110.844 175.624h43.452v41.625h-43.452z" fill="#65b1fc" data-original="#65b1fc" style=""/></g><g><path d="m173.661 133.999h43.452v83.25h-43.452z" fill="#a3d4ff" data-original="#a3d4ff" style="" class=""/></g><g><path d="m173.661 175.624h43.452v41.625h-43.452z" fill="#65b1fc" data-original="#65b1fc" style=""/></g><g><path d="m357.594 133.999h43.452v83.25h-43.452z" fill="#65b1fc" data-original="#65b1fc" style=""/></g><g><path d="m357.594 175.624h43.452v41.625h-43.452z" fill="#4a7aff" data-original="#4a7aff" style=""/></g><g><path d="m234.274 133.999h43.452v83.25h-43.452z" fill="#a3d4ff" data-original="#a3d4ff" style="" class=""/></g><g><path d="m255.595 133.999h22.131v83.25h-22.131z" fill="#65b1fc" data-original="#65b1fc" style=""/></g><g><path d="m234.274 175.624h43.452v41.625h-43.452z" fill="#65b1fc" data-original="#65b1fc" style=""/></g><g><path d="m255.595 175.624h22.131v41.625h-22.131z" fill="#4a7aff" data-original="#4a7aff" style=""/></g><g><path d="m296.461 133.999h43.452v83.25h-43.452z" fill="#65b1fc" data-original="#65b1fc" style=""/></g><g><path d="m296.461 175.624h43.452v41.625h-43.452z" fill="#4a7aff" data-original="#4a7aff" style=""/></g><g><path d="m110.844 240.905h43.452v83.25h-43.452z" fill="#a3d4ff" data-original="#a3d4ff" style="" class=""/></g><g><path d="m110.844 282.53h43.452v41.625h-43.452z" fill="#65b1fc" data-original="#65b1fc" style=""/></g><g><path d="m173.661 240.905h43.452v83.25h-43.452z" fill="#a3d4ff" data-original="#a3d4ff" style="" class=""/></g><g><path d="m173.661 282.53h43.452v41.625h-43.452z" fill="#65b1fc" data-original="#65b1fc" style=""/></g><g><path d="m357.594 240.905h43.452v83.25h-43.452z" fill="#65b1fc" data-original="#65b1fc" style=""/></g><g><path d="m357.594 282.53h43.452v41.625h-43.452z" fill="#4a7aff" data-original="#4a7aff" style=""/></g><g><path d="m234.274 240.905h43.452v83.25h-43.452z" fill="#a3d4ff" data-original="#a3d4ff" style="" class=""/></g><g><path d="m255.595 240.905h22.131v83.25h-22.131z" fill="#65b1fc" data-original="#65b1fc" style=""/></g><g><path d="m234.274 282.53h43.452v41.625h-43.452z" fill="#65b1fc" data-original="#65b1fc" style=""/></g><g><path d="m255.595 282.53h22.131v41.625h-22.131z" fill="#4a7aff" data-original="#4a7aff" style=""/></g><g><path d="m296.461 240.905h43.452v83.25h-43.452z" fill="#65b1fc" data-original="#65b1fc" style=""/></g><g><path d="m296.461 282.53h43.452v41.625h-43.452z" fill="#4a7aff" data-original="#4a7aff" style=""/></g><g><path d="m217.113 343h79.348v73.992h-79.348z" fill="#636978" data-original="#636978" style=""/></g><g><path d="m255.595 343h40.866v73.992h-40.866z" fill="#414952" data-original="#414952" style="" class=""/></g></g></g></svg>
