<?xml version="1.0" encoding="utf-8"?>
<svg version="1.1" id="Layer_1" xmlns="http://www.w3.org/2000/svg" xmlns:xlink="http://www.w3.org/1999/xlink" x="0px" y="0px"
	width="100px" height="100px" viewBox="0 0 66.7 66.7" style="enable-background:new 0 0 66.7 66.7;" xml:space="preserve">
<g>
	<circle style="fill:#E8E8E8;" cx="33.3" cy="33.3" r="33.3"/>
	<circle style="fill:#FFFFFF;" cx="33.3" cy="33.3" r="32.7"/>
	<path style="fill:#231F20;" d="M25.4,33.3c0.4,0,0.7-0.1,0.9-0.2c0.3-0.2,0.5-0.5,0.5-0.9c0-0.5-0.1-0.7-0.4-0.9
		c-0.2-0.1-0.5-0.2-1-0.2h-0.5v5.3H24v-5.9h1.6c0.6,0,1.1,0.1,1.5,0.3c0.7,0.5,0.7,1.1,0.7,1.3c0,0.7-0.4,1.3-1.1,1.5h-0.2l1.9,2.7
		h-1.1l-2.1-3.1C25.2,33.3,25.4,33.3,25.4,33.3z M8.1,33.2c0.4,0,0.7-0.1,0.9-0.2c0.3-0.2,0.5-0.5,0.5-0.9c0-0.5-0.1-0.7-0.4-0.9
		c-0.2-0.1-0.5-0.2-1-0.2H7.5v5.3H6.7v-5.9h1.6c0.6,0,1.1,0.1,1.6,0.3c0.7,0.5,0.7,1.1,0.7,1.3c0,0.7-0.4,1.3-1.1,1.5H9.2l1.9,2.7
		h-1.1l-2.1-3.1C7.9,33.2,8.1,33.2,8.1,33.2z M11.7,30.4h1v5.9h-1V30.4z M18.8,30.3l-2.3,5.9h-0.7l-2.3-5.9h1l1.7,4.7l1.7-4.7
		L18.8,30.3C18.8,30.3,18.8,30.3,18.8,30.3z M20.4,35.7h2.7v0.5h-3.6v-5.9h3.4v0.5h-2.5v1.9h2.4v0.7h-2.4L20.4,35.7
		C20.4,35.7,20.4,35.7,20.4,35.7z M32.3,30.4h1v5.9h-1V30.4z M36.3,30.3c0.5,0,1,0.1,1.5,0.3v0.7c-0.7-0.3-1.1-0.5-1.6-0.5
		c-0.6,0-1.1,0.3-1.1,0.8c0,1.3,3,1.1,3,3.1c0,0.9-0.7,1.7-2.1,1.7c-0.6,0-1.3-0.1-1.7-0.4v-0.9c0.3,0.3,1.1,0.6,1.8,0.6
		c0.7,0,1.2-0.3,1.2-0.9c0-1.4-3.1-1.1-3.1-3.1C34.4,30.7,35.3,30.3,36.3,30.3 M40.3,30.4v5.3h2.5l-0.2,0.5h-3.3v-5.9H40.3
		C40.3,30.4,40.3,30.4,40.3,30.4z M48.6,36.3h-1L47,34.7h-2.5l-0.6,1.5h-0.7l2.3-5.9h0.7L48.6,36.3L48.6,36.3z M44.7,34.1h2l-1-2.6
		L44.7,34.1z M54.1,30.4v5.9h-0.6L50,31.9v4.4h-0.7v-5.9h0.7l3.3,4.3v-4.3C53.4,30.4,54.1,30.4,54.1,30.4z M59.2,35.6
		c-0.5,0.5-1.3,0.7-2.2,0.7h-1.8v-5.9H57c0.9,0,1.7,0.2,2.2,0.7c0.6,0.5,0.9,1.3,0.9,2.3C60.1,34.3,59.7,35.1,59.2,35.6 M58.2,31.3
		c-0.4-0.2-0.9-0.4-1.6-0.4H56v4.8h0.6c0.7,0,1.2-0.1,1.6-0.4c0.6-0.4,0.9-1.1,0.9-2.1C59.1,32.4,58.8,31.7,58.2,31.3"/>
</g>
</svg>
