<?xml version="1.0" encoding="utf-8"?>
<svg version="1.1" id="Layer_1" xmlns="http://www.w3.org/2000/svg" xmlns:xlink="http://www.w3.org/1999/xlink" x="0px" y="0px"
	width="100px" height="100px" viewBox="0 0 66.7 66.7" style="enable-background:new 0 0 66.7 66.7;" xml:space="preserve">
<g>
	<circle style="fill:#E8E8E8;" cx="33.3" cy="33.3" r="33.3"/>
	<circle style="fill:#FFFFFF;" cx="33.3" cy="33.3" r="32.7"/>
	<path style="fill:#FFCB08;" d="M10.7,38.2C10.7,38.1,10.7,38.1,10.7,38.2L10.5,38l-0.2-0.2l-0.1-0.1c-0.1-0.1-0.1-0.1-0.2-0.1
		l-0.3-0.2l-0.2-0.1l-0.1-0.1l-0.1-0.1l-0.1-0.1c0,0-0.1-0.1-0.2-0.1s-0.2-0.1-0.2-0.1l-0.1-0.1l-0.1-0.1l0.1-0.1L8.8,36l0.1-0.1
		c0,0,0.1-0.1,0.3-0.2l0.3-0.3l0.1-0.1l0.3-0.2c0,0,0.1-0.1,0.1-0.1l0.2-0.2c0.1-0.1,0.1-0.1,0.2-0.1s0.1-0.1,0.1-0.1
		c0-0.1,0.3-0.3,0.3-0.3v0.5v0.4h0.5h2.9h0.1l0.1-0.1c0.1-0.1,0.1-0.3,0-0.4s-0.1-0.2-1.1-0.6l-0.4-0.2c-0.1,0-0.2-0.1-0.3-0.1
		c-0.1-0.1-0.2-0.1-0.3-0.1s-0.3-0.2-0.5-0.3c-0.1-0.1-0.5-0.5-0.6-0.5c0,0-0.1-0.1-0.1-0.1c-0.1-0.1-0.2-0.3-0.2-0.5l-0.1-0.3
		c-0.1-0.3,0-1,0-1.1v-0.1c0-0.1,0.3-0.5,0.3-0.5v-0.1c0-0.1,0.3-0.3,0.5-0.5c0.1-0.1,0.2-0.1,0.3-0.2c0.6-0.3,0.7-0.3,2.4-0.3h1.6
		H16v0.9v1h-1.3h-1.5c-0.1,0-0.1,0.1-0.1,0.1c-0.1,0.1-0.1,0.1-0.1,0.2c0,0.1,0,0.1,0.1,0.2c0,0.1,0.1,0.1,0.1,0.1
		c0.1,0.1,0.2,0.1,0.3,0.2l0.3,0.1c0,0,0.1,0,0.1,0.1l0.1,0.1c0.2,0.1,0.4,0.2,0.6,0.3h0.1h0.1l0.2,0.1c0,0,0.1,0,0.1,0.1
		c0.1,0,0.1,0.1,0.1,0.1c0,0,0.1,0,0.1,0.1s0.1,0.1,0.1,0.1c0.1,0,0.1,0.1,0.1,0.1c0.1,0.1,0.2,0.1,0.2,0.2l0.1,0.1l0.1,0.1l0.1,0.2
		c0,0,0,0.1,0.1,0.1c0.1,0.3,0.2,0.9,0.1,1.3c0,0.2-0.1,0.5-0.2,0.7s-0.3,0.4-0.4,0.5c-0.1,0-0.1,0.1-0.1,0.1
		c-0.1,0.1-0.1,0.1-0.1,0.1c0,0-0.2,0.1-0.2,0.1c0,0-0.1,0.1-0.1,0.1S15,36.9,15,36.9c-0.1,0-0.4,0.1-0.7,0.1c-0.3,0-1.1,0.1-1.1,0
		h-1.2h-1.3h-0.1v0.5C10.8,38.3,10.8,38.3,10.7,38.2L10.7,38.2L10.7,38.2L10.7,38.2L10.7,38.2z M19.5,37.4c-0.3,0-0.5-0.1-0.9-0.2
		c-0.2,0-0.4-0.1-0.6-0.3c-0.1,0-0.1-0.1-0.1-0.1s-0.7-0.6-0.7-0.7c0,0,0-0.1-0.1-0.1c-0.1-0.1-0.1-0.3-0.2-0.5l-0.1-3.1v-3h2.4V35
		l0.1,0.1c0.1,0.1,0.1,0.2,0.3,0.3l0.2,0.1h0.3c0.3,0,0.5,0,0.6-0.1h0.1c0.1,0,0.2-0.1,0.2-0.3v-2.9v-2.8h2.4v6l-0.2,0.2l-0.1,0.3
		c0,0.1-0.2,0.4-0.3,0.5c0,0-0.1,0.1-0.1,0.1c-0.1,0.1-0.4,0.4-0.5,0.5c-0.1,0-0.1,0.1-0.1,0.1c-0.1,0.1-0.4,0.3-0.5,0.3h-0.1
		c-0.2,0.1-0.5,0.1-0.9,0.2C20.5,37.5,19.8,37.5,19.5,37.4C19.5,37.4,19.5,37.4,19.5,37.4z M33.6,37.4c-0.3,0-0.5-0.1-0.8-0.2
		c-0.4-0.1-0.7-0.3-0.9-0.5l-0.1-0.1c0,0-0.1-0.1-0.1-0.1c-0.3-0.1-0.3-0.3-0.3-0.4v-0.1c0,0-0.1-0.3-0.1-0.5c0-0.1-0.1-0.5-0.1-3.1
		v-2.9h2.3v2.8v2.9c0.1,0.1,0.1,0.2,0.3,0.3c0.3,0.1,0.7,0,0.9-0.2l0.1-0.1v-2.9v-2.9H37v2.8l0.1,3.1c0.1,0.1,0.3,0.1,0.5,0.1
		c0.1,0,0.3,0,0.3-0.1c0.1-0.1,0.2-0.1,0.3-0.2c0.1-0.1,0-0.2,0-2.9v-2.8h2.4v2.9v3.1l-0.2,0.7c0,0.1-0.1,0.1-0.1,0.1v0.1
		c0,0-0.1,0.1-0.1,0.1c-0.1,0.2-0.3,0.4-0.4,0.5l-0.6,0.4c-0.1,0-0.1,0.1-0.3,0.1c-0.4,0.1-1.1,0.2-1.5,0.1c-0.3,0-0.7-0.1-0.8-0.2
		c-0.1,0-0.1-0.1-0.2-0.1c-0.1,0-0.4-0.2-0.5-0.3s-0.1-0.1-0.3,0c-0.1,0-0.1,0.1-0.1,0.1s-0.3,0.2-0.4,0.2c0,0-0.1,0-0.3,0.1
		C34.7,37.4,34.1,37.5,33.6,37.4L33.6,37.4L33.6,37.4z M41.3,37.3v-3l0.1-3.1c0-0.1,0.1-0.4,0.1-0.5l0.1-0.1c0-0.1,0.1-0.1,0.1-0.1
		c0.1-0.1,0.2-0.2,0.2-0.3l0.1-0.1l0.2-0.2l0.1-0.1c0,0,0.1-0.1,0.1-0.1c0.3-0.2,0.7-0.4,1.3-0.5c0.3-0.1,1-0.1,1.3,0l1,0.2
		c0.1,0,0.1,0.1,0.1,0.1c0.1,0,0.3,0.1,0.4,0.2c0.1,0,0.1,0.1,0.1,0.1c0.1,0.1,0.5,0.4,0.5,0.5l0.1,0.1c0.1,0.1,0.3,0.5,0.3,0.9
		c0.1,0.2,0,0.3,0,3.1v2.9h-2.3v-1.1v-1.1h-1.7v1.1v1.1h-1.1H41.3L41.3,37.3z M45.4,32.5c0-0.7,0-0.7-0.1-0.9s-0.1-0.2-0.3-0.3
		c-0.3-0.1-0.7-0.1-1.1,0c-0.2,0.1-0.2,0.1-0.3,0.3l-0.1,0.1v1.5h1.7L45.4,32.5L45.4,32.5z M50.3,36.2v-1.1L50.1,35
		c-0.1,0-0.3-0.1-0.4-0.1c-0.1-0.1-0.2-0.1-0.2-0.1s-0.3-0.1-0.5-0.3c-0.1-0.1-0.3-0.3-0.5-0.5c0-0.1-0.1-0.1-0.1-0.1l-0.2-0.6v-1.9
		v-1.8h2.3V31l0.1,1.9c0.1,0.1,0.3,0.2,0.5,0.3s0.5,0.1,0.7,0c0.3-0.1,0.4-0.2,0.5-0.4c0.1-0.1,0.1-0.1,0.1-0.8V31
		c0-0.3,0.1-0.6,0.2-0.7s0.3-0.5,0.4-0.5c0,0,0.1-0.1,0.1-0.1c0.1-0.1,0.3-0.2,0.5-0.2c0.1,0,0.2-0.1,0.3-0.1c0.1,0,0.3,0.1,1.1-0.1
		h1v-0.5c0-0.5,0-0.5,0.1-0.5l0.1,0.1c0.1,0,0.1,0.1,0.2,0.2c0.1,0.1,0.1,0.1,0.2,0.1c0.1,0,0.1,0.1,0.1,0.1c0,0.1,0.3,0.3,0.3,0.3
		l0.3,0.3c0.1,0.1,0.2,0.2,0.3,0.3l0.1,0.1c0,0,0.1,0.1,0.2,0.1c0.1,0.1,0.1,0.1,0.2,0.1c0.1,0.1,0.3,0.3,0.3,0.3
		c0,0.1-0.2,0.2-0.3,0.3c-0.1,0-0.1,0.1-0.1,0.1c0,0-0.1,0.1-0.3,0.3l-0.3,0.3L57,31.4c0,0-0.1,0.1-0.2,0.1l-0.1,0.1l-0.1,0.1
		L56.3,32c-0.1,0.1-0.1,0.1-0.3,0.2l-0.2,0.2l-0.1,0.1v-0.5v-0.5h-0.5h-0.6c0,0,0,0.2-0.1,0.9c0,1,0,1-0.3,1.5
		c-0.1,0.1-0.1,0.2-0.1,0.3c0,0.1-0.1,0.1-0.2,0.2l-0.1,0.1c0,0-0.1,0-0.1,0.1s-0.3,0.2-0.3,0.3c-0.1,0-0.1,0.1-0.3,0.1
		C53,34.9,52.9,35,52.8,35l-0.1,0.1v1.1v1.1h-1.1h-1.1L50.3,36.2L50.3,36.2z M24.1,33.4v-3.9h1.9l2.7,0.1c0.2,0.1,0.5,0.2,0.7,0.3
		c0.1,0.1,0.3,0.3,0.5,0.4c0.1,0.1,0.3,0.4,0.3,0.7c0.1,0.2,0.1,0.2,0.1,0.6v0.5c0,0.1-0.1,0.1-0.1,0.1s-0.1,0.3-0.2,0.5l-0.1,0.1
		c0,0-0.3,0.4-0.4,0.4c0,0-0.1,0.1-0.1,0.1s0.1,0,0.1,0.1c0.1,0,0.1,0.1,0.1,0.1l0.1,0.1c0.2,0.1,0.5,0.5,0.5,0.6
		c0,0.1,0,0.1,0.1,0.1s0.1,0.4,0.1,0.6s0,0.7-0.1,0.8c-0.1,0.2-0.2,0.6-0.3,0.7c-0.1,0.1-0.2,0.3-0.3,0.4l-0.4,0.4l-0.2,0.1
		c-0.2,0.1-0.4,0.2-0.5,0.2h-0.1c-0.2-0.1-0.4-0.1-2.5-0.1h-2.1L24.1,33.4L24.1,33.4z M27.7,35.5c0.1,0,0.3-0.1,0.3-0.1h0.1l0.1-0.1
		c0.1-0.1,0.1-0.1,0.1-0.5v-0.3l-0.1-0.1L28,34.1l-0.1-0.1h-0.7h-0.7v0.7v0.7h0.6C27.4,35.6,27.7,35.6,27.7,35.5
		C27.7,35.5,27.7,35.5,27.7,35.5z M27.7,32.5c0.1,0,0.3-0.3,0.3-0.3c0.1-0.3,0-0.7-0.1-0.8s-0.1-0.1-0.8-0.1h-0.6v1.4h0.6
		C27.7,32.5,27.7,32.6,27.7,32.5C27.7,32.5,27.7,32.5,27.7,32.5z"/>
	<path style="fill:#009743;stroke:#009743;stroke-width:0.6667;stroke-miterlimit:2.9714;" d="M33.4,37.4c-0.3-0.1-0.5-0.1-0.7-0.2
		c-0.3-0.1-0.3-0.1-0.5-0.3L32,36.9l-0.2-0.2c-0.3-0.3-0.5-0.5-0.6-0.9c-0.1-0.4-0.1-0.3-0.1-3.5v-2.9h1.1c0.9,0,1.1,0,1.1,0.1v2.8
		l0.1,2.9c0.1,0.1,0.1,0.2,0.1,0.2h0.1c0.1,0.1,0.3,0.1,0.5,0.1c0.3,0,0.5-0.1,0.5-0.3l0.1-2.9v-2.8h1.1c1,0,1.1,0,1.1,0.1v2.8
		l0.1,2.9c0,0.1,0.1,0.1,0.1,0.1c0.1,0.1,0.6,0.2,0.9,0.1c0.1-0.1,0.2-0.1,0.3-0.2l0.1-0.1v-2.8v-2.8h1.1h1.1v2.9l-0.1,3.1l-0.2,0.6
		c0,0.1-0.1,0.1-0.1,0.1c0,0.1-0.2,0.3-0.4,0.5c-0.1,0.1-0.2,0.2-0.3,0.3l-0.3,0.1c-0.1,0-0.1,0.1-0.1,0.1c-0.1,0-0.1,0-0.1,0.1
		c-0.2,0.1-0.4,0.1-0.6,0.1c-0.3,0.1-1.1,0.1-1.3,0c-0.2-0.1-0.4-0.1-0.5-0.1h-0.1c-0.1,0-0.5-0.3-0.5-0.3l-0.1-0.1
		c-0.1,0-0.1,0-0.3,0.1c-0.1,0.1-0.1,0.1-0.2,0.1c-0.1,0.1-0.6,0.3-0.9,0.3C34.3,37.5,33.7,37.5,33.4,37.4L33.4,37.4L33.4,37.4z
		 M41.4,34.3l0.1-3.5c0.1-0.3,0.1-0.3,0.3-0.5c0.1-0.1,0.1-0.1,0.1-0.1L42,30l0.2-0.2c0.1-0.1,0.1-0.1,0.1-0.1c0,0,0.1,0,0.1-0.1
		c0.1-0.1,0.4-0.3,0.5-0.3h0.1c0.3-0.1,0.7-0.2,1.1-0.2c0.5-0.1,1.1,0,1.6,0.1l0.3,0.1c0.1,0.1,0.3,0.1,0.5,0.3
		c0.1,0.1,0.1,0.1,0.1,0.1l0.1,0.1c0.1,0.1,0.1,0.1,0.2,0.1l0.1,0.1c0.1,0.1,0.1,0.1,0.1,0.2c0.1,0.1,0.3,0.6,0.3,0.9
		c0,0.2,0.1,0.6,0.1,3.1v2.9h-2.3v-2.3h-1.9v2.3h-2.3L41.4,34.3L41.4,34.3L41.4,34.3z M45.5,32.5v-0.7l-0.1-0.1
		c-0.1-0.2-0.1-0.2-0.3-0.3c-0.1-0.1-0.2-0.1-0.4-0.1c-0.3,0-0.5,0-0.6,0.1c-0.2,0.1-0.2,0.1-0.3,0.3l-0.1,0.1v0.7v0.7h1.8
		L45.5,32.5L45.5,32.5z M50.3,36.2v-1.1h-0.1c-0.1-0.1-0.5-0.1-0.5-0.2c-0.1,0-0.1-0.1-0.1-0.1s-0.1,0-0.1-0.1c0,0-0.1-0.1-0.2-0.1
		c-0.3-0.2-0.6-0.5-0.7-0.9c-0.1-0.1-0.2-0.5-0.2-0.7v-1.9v-1.7h1.1h1.1v1.7l0.1,1.7c0,0.1,0.1,0.2,0.3,0.3c0.1,0.1,0.4,0.1,0.5,0.1
		c0.3,0,0.7-0.1,0.7-0.3c0.1-0.2,0.1-0.1,0.1-1.1v-1c0-0.3,0.2-0.6,0.3-0.8c0.2-0.3,0.5-0.5,0.9-0.5c0.4-0.1,0.5-0.1,1.3-0.1h0.9V29
		c0-0.5,0-0.5,0.1-0.5l0.1,0.1c0.1,0,0.1,0.1,0.2,0.2l0.1,0.1c0,0,0.1,0.1,0.2,0.1c0.1,0.1,0.2,0.1,0.2,0.1s0.1,0,0.1,0.1
		c0.1,0.1,0.2,0.2,0.3,0.3l0.3,0.3c0.1,0.1,0.1,0.1,0.2,0.1s0.1,0.1,0.2,0.1l0.1,0.1c0,0,0.1,0.1,0.2,0.1l0.1,0.1L58,30.6l-0.2,0.2
		c-0.1,0.1-0.5,0.5-0.7,0.6L57,31.5l-0.1,0.1c-0.1,0.1-0.2,0.1-0.2,0.2l-0.2,0.2l-0.1,0.1c0,0-0.1,0.1-0.2,0.1
		c-0.1,0.1-0.2,0.1-0.2,0.1V32v-0.5h-0.5c-0.5,0-0.7,0-0.7,0.1v0.7c0,0.7,0,0.9-0.1,1.2c-0.1,0.2-0.2,0.5-0.3,0.7
		c-0.1,0.1-0.4,0.4-0.5,0.5c-0.1,0.1-0.7,0.4-0.9,0.5l-0.2,0.1v2.2h-2.3L50.3,36.2C50.3,36.2,50.3,36.2,50.3,36.2z"/>
</g>
</svg>
