<?xml version="1.0" encoding="utf-8"?>
<!-- Generator: Adobe Illustrator 24.2.1, SVG Export Plug-In . SVG Version: 6.00 Build 0)  -->
<svg version="1.1" id="Layer_1" xmlns="http://www.w3.org/2000/svg" xmlns:xlink="http://www.w3.org/1999/xlink" x="0px" y="0px"
	 viewBox="0 0 2500 2500" style="enable-background:new 0 0 2500 2500;" xml:space="preserve">
<style type="text/css">
	.st0{fill:#FFFFFF;}
</style>
<path id="XMLID_44_" d="M1250,0L1250,0c690.4,0,1250,559.6,1250,1250v0c0,690.4-559.6,1250-1250,1250h0C559.6,2500,0,1940.4,0,1250
	v0C0,559.6,559.6,0,1250,0z"/>
<g id="XMLID_34_">
	<path id="XMLID_43_" class="st0" d="M621.7,1068.3v211.3c0,70.4-31.4,99.7-104.6,99.7s-104.6-29.3-104.6-99.7v-220.4h-69.7
		c-6.3,0-9.1,2.8-9.1,9.1v214.1c0,117.8,75.3,159,184.1,159s184.1-41.1,184.1-159v-223.8h-70.4
		C625.1,1059.3,621.7,1062.1,621.7,1068.3z"/>
	<path id="XMLID_42_" class="st0" d="M1643.2,1119.9c5.6,0,8.4-2.1,10.5-6.3l20.2-50.2c1.4-2.8,0-4.9-2.8-4.9h-283.8
		c-26.5,0-36.3,8.4-36.3,26.5v327.7c0,15.3,7.7,22.3,27.9,22.3h264.3c5.6,0,8.4-2.1,10.5-6.3l20.2-50.2c1.4-2.8,0-4.9-2.8-4.9h-242
		v-66.9c0-23,12.6-33.5,46.7-33.5h105.3c5.6,0,8.4-2.1,10.5-6.3l19.5-48.8c1.4-2.8,0-4.9-2.8-4.9h-179.2v-94.1h214.1L1643.2,1119.9z
		"/>
	<path id="XMLID_38_" class="st0" d="M1143.3,1237.1c30.7-16,43.2-46.7,43.2-82.3c0-83-67.6-95.5-138.1-95.5H888
		c-26.5,0-36.3,8.4-36.3,26.5v327.7c0,15.3,7.7,22.3,27.9,22.3H1077c74.6,0,127.6-28.6,127.6-103.9
		C1205.3,1285.9,1185.8,1248.3,1143.3,1237.1z M930.6,1119.3h124.1c41.8,0,53,15.3,53,48.1s-11.9,48.1-53,48.1H930.6V1119.3
		L930.6,1119.3z M1069.3,1374.5H930.6v-69c0-23,12.6-33.5,46.7-33.5h92c43.9,0,56.5,16.7,56.5,51.6
		C1126.5,1358.4,1114,1374.5,1069.3,1374.5z"/>
	<path id="XMLID_35_" class="st0" d="M2165.5,1428.9l-84.4-145c41.8-10.5,76-38.4,76-108.8c0-91.3-56.5-115.8-149.9-115.8h-161.1
		c-26.5,0-36.3,8.4-36.3,26.5v341c0,6.3,2.8,9.1,9.1,9.1h69v-109.5c0-23,12.6-33.5,46.7-33.5h69l76,137.4c2.1,4.2,4.9,6.3,10.5,6.3
		h71.8C2166.9,1435.1,2166.9,1431,2165.5,1428.9L2165.5,1428.9z M2018.4,1233.6h-131.1v-113.7h131.1c48.8,0,60,18.8,60,57.2
		C2078.4,1214.8,2067.2,1233.6,2018.4,1233.6z"/>
</g>
</svg>
