<?xml version="1.0" encoding="utf-8"?>
<svg version="1.1" id="Layer_1" xmlns="http://www.w3.org/2000/svg" xmlns:xlink="http://www.w3.org/1999/xlink" x="0px" y="0px"
	width="100px" height="100px" viewBox="0 0 100 100" style="enable-background:new 0 0 100 100;" xml:space="preserve">
<g>
	<path style="fill:#E8E8E8;" d="M50,0c27.6,0,50,22.4,50,50s-22.4,50-50,50S0,77.6,0,50S22.4,0,50,0"/>
	<path style="fill:#FFFFFF;" d="M50,1c27.1,0,49,21.9,49,49S77.1,99,50,99S1,77.1,1,50S22.9,1,50,1"/>
	<g>
		<g>
			<path style="fill:#EE1C2E;" d="M42.6,49.6c-1-1.1-1.7-2.5-1.2-3.9c0.5-1.1,1-2.2,1.2-3.5c0.1,1.3,0.9,2.5,1.3,3.8
				c0.1,0.6,0.2,1.3-0.1,1.9C43.6,48.6,43.2,49.2,42.6,49.6"/>
			<path style="fill:#004785;" d="M49.8,48.5c-0.6,0.5-1.4,0.5-2,0.2l-0.3-0.2l-3.1-4.1c1,0.2,1.8-0.3,2.4-1.3
				c0.6-0.9,0.6-2.2,0-3.1c-0.7-1-2-1.3-3-1.2c-1.9,0.3-3.2,2-3.7,3.8c-0.4,2.1-0.1,4,0.6,5.8c0.2,0.4,0.4,0.8,0.6,1.1
				c-2-0.9-3.7-2.5-4.7-4.7c-1-2.4-1-5.4,0.2-7.8c1-1.9,2.6-3.6,4.7-4.3c2.2-0.9,5.1-0.7,7.3,0.5c2.6,1.3,4.5,4.6,4.6,7.6
				C53.4,43.9,52.1,46.7,49.8,48.5"/>
			<g>
				<path style="fill:#EE1C2E;" d="M17.9,57v4.8h-3.3V47.5c1.4-0.1,2.8-0.1,4.2-0.1c3.3,0,5.2,1.4,5.2,4.2c0,1.1-0.3,2-1,2.8
					c-0.5,0.6-1.2,1-2,1.2c0.3,0.4,0.5,0.7,0.7,1l3.6,5.2h-4.1 M18.5,50.4c-0.2,0-0.4,0-0.6,0v3.2l0.5,0c1,0,2.1-0.4,2.1-1.7
					C20.5,50.9,19.9,50.4,18.5,50.4"/>
				<path style="fill:#EE1C2E;" d="M34.1,57L34,57.3h-5.9c0.1,1.3,0.8,2,2.3,2c1.2,0,2.1-0.3,3.1-0.8l0.3,2.9
					c-1.3,0.5-2.5,0.8-3.9,0.8c-3.4,0-5.2-1.9-5.2-5.5c0-1.6,0.4-3,1.3-4.1c0.9-1.1,2.1-1.6,3.6-1.6c1.4,0,2.6,0.5,3.4,1.5
					c0.7,0.9,1.1,2,1.1,3.4C34.2,56.2,34.1,56.6,34.1,57 M30.6,54c-0.2-0.2-0.5-0.4-1-0.4c-0.7,0-1.2,0.5-1.4,1.2h2.7
					C30.9,54.4,30.7,54.1,30.6,54"/>
			</g>
			<path style="fill:#EE1C2E;" d="M35.7,61.9V46.8c0.8,1.4,2,2.5,3.3,3.4v11.7"/>
			<rect x="41.1" y="51.1" style="fill:#EE1C2E;" width="3.3" height="10.8"/>
			<path style="fill:#EE1C2E;" d="M51.4,61.1l-0.5,0.4c-0.6,0.4-1.3,0.6-2.1,0.6c-0.9,0-1.7-0.2-2.3-0.8c-0.6-0.6-0.8-1.3-0.8-2.2
				c0-1.3,0.6-2.4,1.7-3.1c1-0.6,2.3-0.9,3.8-1v-0.1c0-0.8-0.4-1.2-1.5-1.2c-1.3,0-2.1,0.4-3.2,1l-0.3-3.1c1.3-0.5,2.5-0.7,3.9-0.7
				c1.5,0,2.7,0.3,3.4,1c0.7,0.7,0.9,1.6,0.9,2.9v4.2c0,1,0,2,0.1,3h-3.2v-0.4L51.4,61.1 M51.2,57.5c-1.9,0.1-2.4,0.6-2.4,1.2
				c0,0.5,0.2,0.7,0.8,0.7c0.5,0,0.9-0.2,1.2-0.6C51,58.3,51.2,57.9,51.2,57.5"/>
			<path style="fill:#EE1C2E;" d="M59.5,52.2c0.5-0.9,1.5-1.3,2.8-1.3c2.2,0,3.3,1.3,3.3,3.6v7.4h-3.3v-6.8c0-1-0.3-1.3-0.8-1.3
				c-0.5,0-0.9,0.2-1.3,0.8c-0.4,0.6-0.6,1.2-0.6,2v5.2h-3.3V51.1h3.1v0.4C59.5,51.7,59.5,52,59.5,52.2"/>
			<path style="fill:#EE1C2E;" d="M72,62.1c-3.2,0-4.7-1.8-4.7-5.2c0-1.7,0.4-3.1,1.3-4.2c1-1.2,2.3-1.7,4.1-1.7
				c0.9,0,1.6,0.2,2.4,0.4l-0.3,3.1c-0.7-0.2-1.4-0.5-2.1-0.5c-1.5,0-2,1.3-2,2.7c0,1.8,0.7,2.5,1.9,2.5c1,0,1.4-0.2,2.2-0.7
				l0.3,3.1C74,61.9,73.1,62.1,72,62.1"/>
			<path style="fill:#EE1C2E;" d="M85.4,57l-0.1,0.3h-5.9c0.1,1.3,0.8,2,2.3,2c1.2,0,2.1-0.3,3.1-0.8l0.3,2.9
				c-1.3,0.5-2.5,0.8-3.9,0.8c-3.4,0-5.2-1.9-5.2-5.5c0-1.6,0.4-3,1.3-4.1c0.9-1.1,2.1-1.6,3.6-1.6c1.4,0,2.6,0.5,3.4,1.5
				c0.7,0.9,1.1,2,1.1,3.4C85.4,56.2,85.4,56.6,85.4,57 M81.9,54c-0.2-0.2-0.5-0.4-1-0.4c-0.7,0-1.2,0.5-1.4,1.2h2.7
				C82.1,54.4,82,54.1,81.9,54"/>
		</g>
		<g>
			<g>
				<path style="fill:#004785;" d="M70.1,67.8l-0.7-1.2h-0.5v1.2h-0.7v-3.5h1.4c0.3,0,0.6,0.1,0.8,0.3c0.2,0.2,0.3,0.5,0.3,0.8
					c0,0.2-0.1,0.4-0.2,0.6c-0.1,0.2-0.3,0.3-0.5,0.4l0.8,1.3H70.1z M68.8,64.9v1h0.7c0.1,0,0.2-0.1,0.3-0.2
					c0.1-0.1,0.1-0.2,0.1-0.4s0-0.3-0.1-0.4c-0.1-0.1-0.2-0.2-0.3-0.2H68.8z"/>
				<path style="fill:#004785;" d="M72.4,67.1h1.5v0.7h-2.2v-3.5h2.2v0.7h-1.5v0.8h1.3v0.7h-1.3V67.1z"/>
				<path style="fill:#004785;" d="M77.2,64.2v0.7h-1v2.9h-0.7v-2.9h-1v-0.7H77.2z"/>
				<path style="fill:#004785;" d="M80.1,67.8l-0.2-0.6h-1.5l-0.2,0.6h-0.8l1.2-3.5h0.9l1.2,3.5H80.1z M78.6,66.5h1L79.1,65
					L78.6,66.5z"/>
				<path style="fill:#004785;" d="M81.6,64.2h0.7v3.5h-0.7V64.2z"/>
				<path style="fill:#004785;" d="M84.1,67.1h1.4v0.7h-2v-3.5h0.7V67.1z"/>
			</g>
			<g>
				<rect x="14.6" y="65.5" style="fill:#004785;" width="51.1" height="1.1"/>
			</g>
		</g>
	</g>
</g>
</svg>
