<?xml version="1.0" encoding="utf-8"?>
<svg version="1.1" id="Layer_1" xmlns="http://www.w3.org/2000/svg" xmlns:xlink="http://www.w3.org/1999/xlink" x="0px" y="0px"
	width="100px" height="100px" viewBox="0 0 66.7 66.7" style="enable-background:new 0 0 66.7 66.7;" xml:space="preserve">
<g>
	<circle style="fill:#E8E8E8;" cx="33.3" cy="33.3" r="33.3"/>
	<circle style="fill:#FFFFFF;" cx="33.3" cy="33.3" r="32.7"/>
	<path style="fill:#950A1C;" d="M16,41.4h0.3c0.3,0,0.3-0.1,0.3-0.3c0-0.1-0.1-0.2-0.3-0.2h-0.3L16,41.4C16,41.4,16,41.4,16,41.4z
		 M15.4,42.3v-0.2h0.1c0.1,0,0.1,0,0.1-0.1v-1c0-0.1,0,0-0.1,0h-0.1v-0.2h1.1c0.3,0,0.5,0.1,0.5,0.3c0,0.3-0.3,0.3-0.5,0.3l0,0
		c0.2,0,0.3,0.1,0.3,0.3c0,0,0,0,0,0c0,0.3,0.1,0.3,0.1,0.3s0.1-0.1,0.1-0.2v-0.1h0.1v0.1c0,0.3-0.1,0.4-0.3,0.4
		c-0.3,0-0.3-0.1-0.3-0.3c0-0.4-0.1-0.5-0.4-0.5H16V42c0,0.1,0.1,0.1,0.1,0.1h0.2v0.2H15.4z M18,41.7c0-0.1-0.1-0.3-0.2-0.3
		s-0.2,0.2-0.2,0.3H18z M17.6,41.7c0,0.2,0,0.3,0.3,0.3c0.2,0,0.3,0,0.3-0.3h0.2c0,0.3-0.2,0.4-0.5,0.4c-0.4,0-0.6-0.2-0.6-0.6
		c0-0.3,0.2-0.6,0.5-0.6c0.4,0,0.6,0.3,0.5,0.6C18.3,41.6,17.6,41.7,17.6,41.7z M19.1,41.7l-0.3,0.1c-0.1,0-0.1,0.1-0.1,0.1
		s0,0.1,0.1,0.1S19.1,41.9,19.1,41.7L19.1,41.7C19.1,41.7,19.1,41.7,19.1,41.7z M19.6,41.9L19.6,41.9c0,0.3-0.1,0.4-0.3,0.4
		c-0.1,0-0.2-0.1-0.3-0.2c-0.1,0.1-0.3,0.2-0.4,0.2c-0.2,0-0.3-0.1-0.3-0.3c0-0.5,0.7-0.2,0.7-0.5c0-0.1-0.1-0.2-0.3-0.2
		c-0.1,0-0.2,0-0.2,0.1c0.1,0,0.1,0,0.1,0.1s-0.1,0.1-0.2,0.1c-0.1,0-0.2-0.1-0.2-0.2c0-0.3,0.3-0.3,0.5-0.3c0.3,0,0.5,0.1,0.5,0.3
		V42c0,0.1,0,0.1,0.1,0.1c0,0,0.1,0,0.1-0.2v-0.1L19.6,41.9C19.7,41.9,19.6,41.9,19.6,41.9L19.6,41.9z M19.7,42.3L19.7,42.3
		L19.7,42.3c0.1-0.1,0.2-0.1,0.2-0.2V41c0-0.1-0.1-0.1-0.1-0.1h-0.1v-0.1h0.4V42c0,0.1,0.1,0.1,0.1,0.1h0.1v0.1H19.7
		C19.7,42.3,19.7,42.3,19.7,42.3z M22.1,40.8h0.2v0.7h-0.2c0-0.3-0.1-0.5-0.5-0.5c-0.3,0-0.5,0.3-0.5,0.6s0.1,0.6,0.5,0.6
		c0.3,0,0.4-0.2,0.4-0.4h0.2c0,0.3-0.3,0.6-0.7,0.6c-0.5,0-0.8-0.3-0.8-0.9c0-0.4,0.3-0.8,0.8-0.8C21.7,40.7,21.9,40.8,22.1,40.8
		L22.1,40.8L22.1,40.8C22.1,40.8,22.1,40.8,22.1,40.8z M23.1,41.7l-0.3,0.1c-0.1,0-0.1,0.1-0.1,0.1s0,0.1,0.1,0.1
		S23.1,41.9,23.1,41.7C23.1,41.8,23.1,41.7,23.1,41.7z M23.6,41.9L23.6,41.9c0,0.3-0.1,0.4-0.3,0.4c-0.1,0-0.2-0.1-0.2-0.2
		c-0.1,0.1-0.3,0.2-0.4,0.2c-0.2,0-0.3-0.1-0.3-0.3c0-0.5,0.7-0.2,0.7-0.5c0-0.1-0.1-0.2-0.3-0.2c-0.1,0-0.2,0-0.2,0.1
		c0.1,0,0.1,0,0.1,0.1s-0.1,0.1-0.2,0.1c-0.1,0-0.2-0.1-0.2-0.2c0-0.3,0.3-0.3,0.5-0.3c0.3,0,0.5,0.1,0.5,0.3V42
		c0,0.1,0,0.1,0.1,0.1c0,0,0.1,0,0.1-0.2v-0.1L23.6,41.9C23.7,41.9,23.6,41.9,23.6,41.9L23.6,41.9z M23.7,42.3L23.7,42.3L23.7,42.3
		c0.1-0.1,0.2-0.1,0.2-0.2V41c0-0.1-0.1-0.1-0.1-0.1h-0.1v-0.1h0.4V42c0,0.1,0.1,0.1,0.1,0.1h0.1v0.1H23.7
		C23.7,42.3,23.7,42.3,23.7,42.3z M24.8,40.7c0.1,0,0.2,0.1,0.2,0.1S24.9,41,24.8,41c-0.1,0-0.2-0.1-0.2-0.1S24.7,40.7,24.8,40.7
		 M24.5,42.3v-0.1h0.1c0.1,0,0.1-0.1,0.1-0.1v-0.6c0-0.1-0.1,0-0.1,0h-0.1v-0.2h0.4V42c0,0.1,0.1,0.1,0.1,0.1h0.1v0.1
		C25.1,42.3,24.5,42.3,24.5,42.3z M25.2,41.2h0.3v-0.1c0-0.3,0.1-0.4,0.4-0.4c0.1,0,0.3,0.1,0.3,0.3c0,0.1-0.1,0.1-0.1,0.1
		c-0.1,0-0.1-0.1-0.1-0.1s0.1-0.1,0.1-0.1l0,0h-0.1c-0.1,0-0.2,0.1-0.2,0.2v0.2H26v0.2h-0.3V42c0,0.1,0.1,0.1,0.1,0.1H26v0.1h-0.7
		v-0.1h0.1c0.1,0,0.1-0.1,0.1-0.1v-0.6h-0.2L25.2,41.2L25.2,41.2L25.2,41.2z M26.7,42.1c0.2,0,0.3-0.1,0.3-0.4s-0.1-0.4-0.3-0.4
		c-0.2,0-0.3,0.1-0.3,0.4S26.5,42.1,26.7,42.1 M26.7,41.1c0.3,0,0.6,0.2,0.6,0.6c0,0.3-0.3,0.6-0.6,0.6c-0.3,0-0.6-0.2-0.6-0.6
		S26.3,41.1,26.7,41.1 M27.9,41.4L27.9,41.4c0.1,0,0.2-0.3,0.3-0.3s0.3,0.1,0.3,0.3c0,0.1-0.1,0.2-0.2,0.2c-0.1,0-0.2-0.1-0.2-0.1
		s0.1-0.1,0.1-0.1h-0.1c-0.2,0-0.3,0.2-0.3,0.3V42c0,0.1,0.1,0.1,0.1,0.1h0.2v0.1h-0.9v-0.1h0.2c0.1,0,0.1-0.1,0.1-0.1v-0.6
		c0-0.1-0.1,0-0.1,0h-0.1v-0.2h0.5C27.8,41.2,27.9,41.4,27.9,41.4z M29,41.4L29,41.4c0-0.1,0.2-0.3,0.4-0.3s0.3,0.1,0.3,0.4V42
		c0,0.1,0.1,0.2,0.1,0.2H30v0.1h-0.7v-0.1l0,0c0.1,0,0.1-0.1,0.1-0.2v-0.5c0-0.2-0.1-0.2-0.2-0.2c-0.1,0-0.3,0.1-0.3,0.3V42
		c0,0.1,0,0.1,0.1,0.1h0.1v0.1h-0.7v-0.1h0.3c0.1,0,0.1-0.1,0.1-0.1v-0.5c0-0.1,0-0.1-0.1-0.1h-0.1v-0.2H29C29,41.2,29,41.4,29,41.4
		z M30.4,40.7c0.1,0,0.2,0.1,0.2,0.1S30.5,41,30.4,41c-0.1,0-0.2-0.1-0.2-0.1S30.3,40.7,30.4,40.7 M30.1,42.3v-0.1h0.1
		c0.1,0,0.1-0.1,0.1-0.1v-0.6c0-0.1-0.1,0-0.1,0h-0.1v-0.2h0.4V42c0,0.1,0.1,0.1,0.1,0.1h0.1v0.1C30.7,42.3,30.1,42.3,30.1,42.3z
		 M31.5,41.7l-0.2,0.1c-0.1,0-0.1,0.1-0.1,0.2c0,0.1,0,0.1,0.1,0.1s0.3-0.1,0.3-0.3L31.5,41.7C31.5,41.7,31.5,41.7,31.5,41.7z
		 M32.1,41.9L32.1,41.9c0,0.3-0.1,0.4-0.3,0.4c-0.1,0-0.3-0.1-0.3-0.2c-0.1,0.1-0.3,0.2-0.4,0.2c-0.2,0-0.3-0.1-0.3-0.3
		c0-0.5,0.7-0.2,0.7-0.5c0-0.1-0.1-0.2-0.3-0.2c-0.1,0-0.2,0-0.2,0.1c0.1,0,0.1,0,0.1,0.1s-0.1,0.1-0.2,0.1s-0.2-0.1-0.2-0.2
		c0-0.3,0.3-0.3,0.5-0.3c0.3,0,0.5,0.1,0.5,0.3V42c0,0.1,0,0.1,0.1,0.1c0,0,0.1,0,0.1-0.2v-0.1L32.1,41.9L32.1,41.9L32.1,41.9z
		 M46.3,40.7v0.7h-0.1v-0.1c0-0.3-0.2-0.3-0.4-0.3V42c0,0.1,0,0.1,0.1,0.1h0.1v0.2h-0.9v-0.2h0.2c0.1,0,0.1,0,0.1-0.1v-1.1
		c-0.3,0-0.4,0.1-0.4,0.3v0.1h-0.2v-0.7L46.3,40.7C46.3,40.7,46.3,40.7,46.3,40.7z M47.1,41.7l-0.3,0.1c-0.1,0-0.1,0.1-0.1,0.1
		s0.1,0.1,0.2,0.1C47.1,42.1,47.2,41.9,47.1,41.7L47.1,41.7C47.1,41.7,47.1,41.7,47.1,41.7z M47.7,41.9L47.7,41.9
		c0,0.3-0.1,0.4-0.3,0.4c-0.1,0-0.3-0.1-0.3-0.2c-0.1,0.1-0.3,0.2-0.4,0.2c-0.2,0-0.3-0.1-0.3-0.3c0-0.5,0.7-0.2,0.7-0.5
		c0-0.1-0.1-0.2-0.3-0.2c-0.1,0-0.2,0-0.2,0.1c0.1,0,0.1,0,0.1,0.1s-0.1,0.1-0.2,0.1c-0.1,0-0.2-0.1-0.2-0.2c0-0.3,0.3-0.3,0.5-0.3
		c0.3,0,0.5,0.1,0.5,0.3V42c0,0.1,0,0.1,0.1,0.1c0,0,0.1,0,0.1-0.2v-0.1L47.7,41.9L47.7,41.9L47.7,41.9z M48.8,41.8
		c0,0.3-0.2,0.5-0.5,0.5c-0.4,0-0.6-0.2-0.6-0.6c0-0.3,0.3-0.5,0.6-0.5c0.3,0,0.5,0.1,0.5,0.3c0,0.1-0.1,0.2-0.2,0.2
		c-0.1,0-0.2-0.1-0.2-0.1s0.1-0.1,0.1-0.1c0.1-0.1,0-0.1-0.1-0.1c-0.3,0-0.3,0.2-0.3,0.4s0.1,0.4,0.3,0.4c0.1,0,0.3-0.1,0.3-0.3
		C48.6,41.9,48.8,41.8,48.8,41.8z M49.5,42.1c0.2,0,0.3-0.1,0.3-0.4c0-0.3-0.1-0.4-0.3-0.4c-0.2,0-0.3,0.1-0.3,0.4
		C49.2,42,49.3,42.1,49.5,42.1 M49.5,41.1c0.3,0,0.6,0.2,0.6,0.6c0,0.4-0.3,0.6-0.6,0.6c-0.3,0-0.6-0.2-0.6-0.6
		C48.9,41.3,49.1,41.1,49.5,41.1 M50.4,41.9c0,0.1,0.1,0.2,0.1,0.2c0.1,0.1,0.1,0.1,0.3,0.1c0.1,0,0.2-0.1,0.2-0.1
		c0-0.2-0.7-0.1-0.7-0.5c0-0.2,0.2-0.3,0.5-0.3c0.1,0,0.3,0.1,0.3,0.1l0.1-0.1h0.2v0.4h-0.2c0-0.1-0.1-0.2-0.1-0.2
		c-0.1-0.1-0.1-0.1-0.2-0.1s-0.2,0-0.2,0.1c0,0.2,0.7,0.1,0.7,0.5c0,0.3-0.2,0.3-0.5,0.3c-0.1,0-0.3,0-0.4-0.1l-0.1,0.1h-0.2v-0.4
		L50.4,41.9z M43.5,41c0-0.1-0.1-0.1-0.1-0.1s-0.1,0.1-0.1,0.1s0.1,0.1,0.1,0.2C43.3,41.2,43.5,41.1,43.5,41 M43.2,42.1
		c0.1,0,0.1,0,0.3-0.1c-0.1-0.1-0.2-0.3-0.3-0.5c-0.1,0.1-0.1,0.1-0.1,0.3C42.9,41.9,43,42.1,43.2,42.1 M43.7,41.3h0.8v0.2h-0.1
		c-0.1,0-0.2,0-0.3,0.1L43.8,42c0.1,0.1,0.1,0.1,0.2,0.1c0.2,0,0.3-0.1,0.3-0.3h0.2c0,0.3-0.1,0.5-0.5,0.5c-0.1,0-0.3-0.1-0.4-0.1
		c-0.1,0.1-0.3,0.1-0.5,0.1c-0.4,0-0.5-0.2-0.5-0.5s0.1-0.3,0.4-0.5c-0.1-0.1-0.1-0.2-0.1-0.3c0-0.3,0.1-0.4,0.4-0.4
		c0.2,0,0.3,0.1,0.3,0.3c0,0,0,0,0,0c0,0.2-0.1,0.3-0.3,0.4c0.1,0.1,0.2,0.3,0.3,0.4c0.1-0.1,0.2-0.2,0.2-0.3s0-0.1-0.1-0.1h-0.1
		L43.7,41.3L43.7,41.3z M33.1,42.1h0.3c0.2,0,0.3,0,0.3-0.2c0-0.2-0.1-0.2-0.3-0.2h-0.3C33.1,41.7,33.1,42.1,33.1,42.1z M33.1,41.4
		h0.3c0.2,0,0.3,0,0.3-0.2c0-0.2-0.1-0.2-0.3-0.2h-0.3C33.1,41,33.1,41.4,33.1,41.4z M32.5,42.1h0.2c0.1,0,0.1,0,0.1-0.1v-1
		c0-0.1,0,0-0.1,0h-0.1v-0.2h0.9c0.5,0,0.7,0.1,0.7,0.3c0,0.2-0.1,0.3-0.3,0.3l0,0c0.2,0.1,0.4,0.1,0.4,0.4c0,0.3-0.1,0.4-0.5,0.4
		h-1L32.5,42.1C32.5,42.1,32.5,42.1,32.5,42.1z M35.3,42.3v-0.2h-0.1c-0.1,0.2-0.3,0.2-0.4,0.2c-0.2,0-0.4-0.1-0.4-0.3v-0.5
		c0-0.1,0,0-0.1,0h-0.1v-0.2h0.5v0.7c0,0.1,0.1,0.1,0.2,0.1c0.2,0,0.3-0.1,0.3-0.3v-0.4c0-0.1-0.1,0-0.1,0H35v-0.2h0.5V42
		c0,0.1,0.1,0.1,0.2,0.1h0.1v0.1L35.3,42.3C35.2,42.3,35.3,42.3,35.3,42.3L35.3,42.3z M36.3,41.3L36.3,41.3c0-0.1,0.1-0.2,0.3-0.2
		s0.3,0.1,0.3,0.3c0,0.1-0.1,0.2-0.2,0.2c-0.1,0-0.2-0.1-0.2-0.1s0.1-0.1,0.1-0.1h-0.1c-0.2,0-0.3,0.2-0.3,0.3V42
		c0,0.1,0,0.1,0.1,0.1h0.1v0.1h-0.7v-0.1h0.1c0.1,0,0.1-0.1,0.1-0.1v-0.6c0-0.1,0,0-0.1,0h-0.1v-0.2h0.5
		C36.3,41.2,36.3,41.3,36.3,41.3z M37.5,41.4L37.5,41.4c0.1,0,0.2-0.3,0.3-0.3s0.3,0.1,0.3,0.3c0,0.1-0.1,0.2-0.2,0.2
		c-0.1,0-0.2-0.1-0.2-0.1s0.1-0.1,0.1-0.1h-0.1c-0.2,0-0.3,0.2-0.3,0.3V42c0,0.1,0.1,0.1,0.1,0.1h0.2v0.1H37v-0.1h0.1
		c0.1,0,0.1-0.1,0.1-0.1v-0.6c0-0.1-0.1,0-0.1,0H37v-0.2h0.4L37.5,41.4L37.5,41.4C37.5,41.4,37.5,41.4,37.5,41.4z M38.5,40.7
		c0.1,0,0.2,0.1,0.2,0.1S38.6,41,38.5,41c-0.1,0-0.2-0.1-0.2-0.1S38.3,40.7,38.5,40.7 M38.2,42.3v-0.1h0.1c0.1,0,0.1-0.1,0.1-0.1
		v-0.6c0-0.1,0,0-0.1,0h-0.1v-0.2h0.4V42c0,0.1,0.1,0.1,0.1,0.1h0.1v0.1L38.2,42.3L38.2,42.3z M38.9,41.3v-0.1
		c0.2,0,0.3-0.2,0.3-0.4h0.1v0.4h0.3v0.1h-0.3V42c0,0.1,0,0.1,0.1,0.1s0.1-0.1,0.1-0.1v-0.2h0.1v0.2c0,0.3-0.1,0.3-0.3,0.3
		s-0.3-0.1-0.3-0.3L38.9,41.3L38.9,41.3C38.9,41.3,38.9,41.3,38.9,41.3z M40.3,42.1c0.2,0,0.3-0.1,0.3-0.4c0-0.3-0.1-0.4-0.3-0.4
		c-0.2,0-0.3,0.1-0.3,0.4C40,42,40.1,42.1,40.3,42.1 M40.3,41.1c0.3,0,0.6,0.2,0.6,0.6c0,0.4-0.3,0.6-0.6,0.6
		c-0.3,0-0.6-0.2-0.6-0.6C39.7,41.3,40,41.1,40.3,41.1 M41.2,41.9c0,0.1,0.1,0.2,0.1,0.2c0.1,0.1,0.1,0.1,0.3,0.1
		c0.1,0,0.2-0.1,0.2-0.1c0-0.2-0.7-0.1-0.7-0.5c0-0.2,0.2-0.3,0.5-0.3c0.1,0,0.3,0.1,0.3,0.1l0.1-0.1h0.1v0.4h-0.2
		c0-0.1-0.1-0.2-0.1-0.2c-0.1-0.1-0.1-0.1-0.2-0.1c-0.1,0-0.2,0-0.2,0.1c0,0.2,0.7,0.1,0.7,0.5c0,0.3-0.2,0.3-0.5,0.3
		c-0.1,0-0.3,0-0.4-0.1l-0.1,0.1H41v-0.4L41.2,41.9L41.2,41.9L41.2,41.9z M17.4,28.3v4.9h-1.3v-4.9h-1.1v-1.2h3.5v1.2H17.4z
		 M22.2,28.1c-1.1,0-2.1,0.9-2.1,2s0.9,2,2.1,2c1.1,0,2.1-0.9,2.1-2S23.3,28.1,22.2,28.1 M22.2,33.3c-1.9,0-3.4-1.5-3.4-3.2
		c0-1.8,1.5-3.3,3.4-3.3c1.9,0,3.4,1.5,3.4,3.3S24.1,33.3,22.2,33.3 M28.1,28.3h-0.3v2.1h0.3c0.6,0,1.1-0.5,1.1-1.1
		C29.2,28.7,28.7,28.3,28.1,28.3 M29.6,33.4l-1.9-1.8v1.6h-1.3v-6.1h1.6c1.3,0,2.5,1,2.5,2.3c0,0.9-0.5,1.6-1.3,2.1l1.3,1.1
		C30.5,32.5,29.6,33.4,29.6,33.4z M33.5,28.3v4.9h-1.3v-4.9h-1.1v-1.2h3.5v1.2H33.5z M35.7,27.1H37v6.1h-1.3V27.1z M38.2,33.2v-6.1
		h1.3V32h2.1v1.2C41.6,33.2,38.2,33.2,38.2,33.2z M42.6,33.2v-6.1h1.3V32H46v1.2C46,33.2,42.6,33.2,42.6,33.2z M49.1,30.2l-0.7,1.9
		h1.5L49.1,30.2z M50.3,33.2l-0.4-1l-0.8,0.9l-0.8-1l-0.4,1h-1.4l2.6-6.4l2.6,6.4L50.3,33.2L50.3,33.2L50.3,33.2z M8.3,34.9V24.8
		h50.1v10.1l0.4-0.5V24.4H7.9v10.1L8.3,34.9L8.3,34.9L8.3,34.9z M58.3,35.1v3.7h-50v-3.7l-0.4,0.5v3.8h50.9v-3.8L58.3,35.1z
		 M17.7,34.9c-0.1,0-0.1,0-0.1,0.1s0.1,0.1,0.1,0.1l0,0l0,0c8.5,0.1,15.1,0.5,15.6,1.1l0,0l0,0l0,0c0.5-0.5,7.1-1,15.6-1.1l0,0l0,0
		c0.1,0,0.1,0,0.1-0.1S48.9,35,48.9,35l0,0H33.3l0,0L17.7,34.9z"/>
</g>
</svg>
