<?xml version="1.0" encoding="utf-8"?>
<svg version="1.1" id="Layer_1" xmlns="http://www.w3.org/2000/svg" xmlns:xlink="http://www.w3.org/1999/xlink" x="0px" y="0px"
	 viewBox="0 0 169.7 42.7" style="enable-background:new 0 0 169.7 42.7;" xml:space="preserve">
<g>
	<path style="fill:#ED7F32;" d="M31.5,2.6C26.9,0,21.4-0.6,16.3,0.5c-4.8,1.1-9.2,4-12,8c-2.8,3.7-4.4,8.4-4.3,13
		c0,5.8,2.6,11.6,6.9,15.6c3.9,3.6,9.1,5.6,14.4,5.6c4,0,8.1-1.2,11.5-3.5c4.8-3.1,8.2-8.2,9.3-13.7c0.9-4.6,0.2-9.3-1.7-13.5
		C38.4,8.1,35.4,4.7,31.5,2.6z M34.2,32c-2.9,3.7-7.4,6-12.1,6.3c-4.6,0.3-9.3-1.5-12.6-4.7c-3.2-3-5.1-7.4-5.2-11.7
		C4.2,17.4,5.9,13,9,9.8c2.7-3,6.3-4.8,10.1-5.3C23.2,4,27.6,5,30.9,7.6c3.8,2.7,6.3,7,6.9,11.7C38.4,23.8,37,28.5,34.2,32z"/>
	<path style="fill:#051E78;" d="M54.4,9.1c1.2-0.8,0-2.5,0.9-3.6c0.2,0,0.5,0,0.7,0c0.7,0.9,0.2,2.2,0.4,3.3c0.3,0.1,0.8,0.3,1,0.4
		c0.5-1.2,0.3-2.5,0.2-3.8c-0.3-1.2-1.8-1.1-2.7-0.8C54.8,4,55,3.3,54.7,2.7c-0.2-0.6-1.2-0.2-1.1,0.3c0,1.9-0.1,3.9,0.1,5.7
		C53.9,8.8,54.2,9,54.4,9.1z"/>
	<path style="fill:#051E78;" d="M50.5,9c0.2,0,0.7-0.1,1-0.2c0.2-1.5,0.1-3,0.1-4.6C52.1,4,53,4.3,53.1,3.6c0.2-0.3-0.3-0.6-0.6-0.7
		c-1.2,0-2.4-0.1-3.6,0.1c-0.1,0.2-0.3,0.6-0.3,0.6C49,4,49.6,4,50.2,4.1C50.3,5.7,50,7.4,50.5,9z"/>
	<path style="fill:#051E78;" d="M59.5,8.7c1.1,0.8,2.6,0.4,3.5-0.5c-0.1-0.2-0.3-0.6-0.4-0.8c-1,0.4-2.3,0.8-3-0.3
		C60.8,7,62,7.2,63.1,6.8c0-1.4-1.3-2.9-2.8-2.5C58.4,4.7,57.9,7.6,59.5,8.7z M61,5.3c0.3,0.2,0.6,0.5,0.9,0.8
		c-0.7,0.1-1.5,0.1-2.2,0C60.1,5.8,60.4,5.3,61,5.3z"/>
	<path style="fill:#ED7F32;" d="M28.2,20.8c0.9-0.9,2.1-1.7,2.5-3c0.9-2.9-0.2-6.2-2.6-8c-1.9-1.4-4.3-1.9-6.6-2
		c-2.6,0-5.3,0.5-7.3,2.2c-1.9,1.6-3,4.1-2.9,6.7c0,5,0,9.9,0,14.9c-0.1,0.7,0.5,1.2,0.9,1.7c1.2-0.1,2.5-0.1,3.7-0.1
		c0.6,0,1-0.5,1.4-0.9c0-3,0-6,0-9c1.4,0,2.9-0.1,4.3,0c1.7,0.1,3.2,1.5,3.6,3.1c0.3,1.8-0.1,3.7,0.2,5.5c0.1,0.7,0.7,1.3,1.5,1.3
		c1.4,0,3.2,0.4,4.3-0.8c0-2.8,0.4-5.7-0.6-8.4C30.2,22.7,29.1,21.8,28.2,20.8z M23.2,18.1c-1.9,0.2-3.9,0.1-5.8,0
		c-1-2,0.6-4.7,2.7-4.9c1.4-0.1,3.3-0.2,4.2,1.1C25.3,15.6,24.9,17.7,23.2,18.1z"/>
	<path style="fill:#051E78;" d="M68.7,19.1c1.2-3.7-1.7-8.1-5.6-8.4c-4.8-0.1-9.7,0.1-14.5-0.1c0,7.1,0,14.2,0,21.1
		c0,0.5-0.1,1.4,0.7,1.4c1.4,0.1,2.7,0,4.1,0c0.5,0,1.2,0,1.1-0.6c0.1-2.8,0-5.5,0-8.2c1.7,0.1,3.5-0.1,5.2,0.1
		c1.3,0.1,2.6,0.9,2.9,2.2c0.2,2-0.1,4,0.1,6c0.1,0.5,0.7,0.6,1.1,0.6c1.6,0,3.2,0.1,4.8-0.1c0.1-2.1,0.2-4.3,0-6.4
		c-0.2-1.8-1.4-3.2-2.7-4.3C67,21.4,68.2,20.5,68.7,19.1z M61,20c-2.2,0.1-4.4,0-6.6,0.1c0.2-1.7,0.2-3.3,0.1-4.9
		c2.2,0.1,4.5-0.1,6.7,0.1C63.3,15.9,63.3,19.6,61,20z"/>
	<path style="fill:#051E78;" d="M83.1,10.6c-2.6,0-5.5,0.6-7.4,2.6c0.6,1.1,1.3,2.2,2.2,3.3c0.4,0.4,1,0,1.5-0.1
		c2.2-1,4.7-1.3,6.9-0.3c1.3,0.6,1.8,2,2,3.3c-1.6-0.9-3.3-1.5-5.1-1.4c-3.2,0.1-6.6,1.5-8.1,4.5c-1.9,3.4-0.4,8.2,3,10
		c3.2,1.8,7.5,2.1,10.7,0.1c0.3,0.3,0.6,0.6,0.9,0.9c1.3-0.1,2.5,0,3.8-0.1c0.3-0.3,0.3-0.8,0.3-1.2c0-4.5,0-9.1,0-13.6
		c0.1-1.7-0.7-3.4-1.9-4.6C89.6,11.7,86.3,10.5,83.1,10.6z M83.2,29.4c-1.7-0.2-3.2-1.5-3.4-3.2c-0.2-1.5,0.9-2.8,2.2-3.4
		c2.2-1.1,5.4,0.1,5.8,2.7C88.2,27.9,85.4,29.9,83.2,29.4z"/>
	<path style="fill:#051E78;" d="M119,11.5c-1.4,0-2.9-0.1-4.3,0.1c-0.3,0.3-0.4,0.7-0.4,1.1c0,3.9,0,7.9,0,11.8
		c-2.8-3.9-5.5-7.9-8.3-11.8c-0.4-0.4-0.8-1.1-1.4-1.1c-1.3-0.1-2.5,0-3.8,0c-0.7,0-1.3,0.8-1.2,1.5c0,6.4,0,12.7,0.1,19
		c0,0.4,0,1.1,0.6,1.1c1.3,0.1,2.5,0,3.8,0c0.5,0.1,1.1-0.3,1-0.8c0-3.7-0.1-7.3,0-10.9c2.6,3.5,5,7,7.5,10.5
		c0.4,0.5,0.8,1.2,1.6,1.1c1.8-0.1,3.7,0.1,5.5-0.2c0.2-6.6,0-13.3,0.1-19.9C119.8,12.4,119.8,11.5,119,11.5z"/>
	<path style="fill:#051E78;" d="M144.9,21.2c-0.1-0.7-1-0.6-1.5-0.7c-2.4,0-4.7-0.1-7,0c-0.4,0.1-1.2-0.1-1.2,0.6
		c-0.1,1.1-0.1,2.2,0,3.2c0.2,0.4,0.5,0.7,0.9,0.7c1.1,0.1,2.2-0.1,3.3,0.1c0.3,0.3,0.4,0.7,0.2,1.1c-0.3,1.1-1,2.2-2,2.8
		c-2,1.3-4.9,0.8-6.4-1c-0.6-0.8-0.4-1.8-0.4-2.7c0.1-2.2-0.1-4.3,0.1-6.5c0.5-2.1,3-3,4.9-2.6c1.8,0.2,3.2,1.4,4.1,2.8
		c0.4,0.7,1.3,0,1.8-0.2c1-0.6,2.2-0.9,2.9-1.8c-0.4-1.4-1.6-2.3-2.7-3.2c-2.7-2-6.4-2.8-9.7-1.9c-3.2,0.8-6.6,3.3-6.9,7.1
		c-0.1,2.7,0,5.5,0,8.2c0.2,3.2,3.2,5.5,6.1,6.3c3.5,0.8,7.4,0.7,10.4-1.3c1.9-1.3,3.2-3.6,3.2-5.9
		C144.9,24.6,145.1,22.9,144.9,21.2z"/>
	<path style="fill:#051E78;" d="M157.2,24.6c3.6,0,7.2,0,10.8,0c1,0,1.7-0.8,1.7-1.7c0.1-3.1-0.4-6.5-2.6-8.8
		c-2-2.1-5.1-2.6-7.9-2.4c-2.7,0.1-5.5,1.2-7.1,3.5c-1.8,2.6-2.1,5.9-2.1,9.1c0.3,3.6,2.3,7.3,5.7,8.8c5,2.3,11.5-0.2,14-5
		c-1.1-0.8-2.2-1.7-3.4-2.2c-1,0.7-1.8,1.8-3,2.4c-1.6,0.9-3.7,1.1-5.3,0.2c-1.2-0.6-2.2-1.9-2.2-3.3
		C155.9,24.5,156.7,24.6,157.2,24.6z M155.9,19.9c0-1.7,1.2-3.3,2.8-3.8c2-0.6,4.6,0,5.4,2c0.3,0.8,0.7,1.9,0.1,2.6
		c-2.4,0.2-4.8,0-7.2,0.1C156.5,20.9,155.7,20.6,155.9,19.9z"/>
</g>
</svg>
