<?xml version="1.0" encoding="utf-8"?>
<svg version="1.1" id="Layer_1" xmlns="http://www.w3.org/2000/svg" xmlns:xlink="http://www.w3.org/1999/xlink" x="0px" y="0px"
	width="100px" height="100px" viewBox="0 0 100 100" style="enable-background:new 0 0 100 100;" xml:space="preserve">
<g>
	<path style="fill:#E8E8E8;" d="M50,0c27.61,0,50,22.39,50,50s-22.39,50-50,50S0,77.61,0,50S22.39,0,50,0"/>
	<path style="fill:#FFFFFF;" d="M50,1c27.06,0,49,21.94,49,49S77.06,99,50,99S1,77.06,1,50S22.94,1,50,1"/>
	<g>
		<path style="fill:#D20A11;" d="M19.43,51.6c0,1.84-0.97,3.71-4.01,3.71c-2.53,0-3.95-1.41-3.95-3.95v-0.84h1.8v0.57
			c0,1.58,0.42,2.7,2.19,2.7c1.65,0,2.17-0.95,2.17-2.45v-9.92h1.81V51.6z"/>
		<path style="fill:#D20A11;" d="M30.55,45.5c-0.38-1.92-1.92-2.89-3.8-2.89c-3.23,0-4.6,2.66-4.6,5.49c0,3.1,1.37,5.68,4.62,5.68
			c2.38,0,3.74-1.67,3.92-3.92h1.81c-0.34,3.38-2.45,5.44-5.87,5.44c-4.22,0-6.27-3.12-6.27-7.07c0-3.93,2.24-7.15,6.42-7.15
			c2.83,0,5.17,1.52,5.59,4.41H30.55L30.55,45.5z"/>
		<path style="fill:#D20A11;" d="M33.26,41.41h5.95c2.7,0,4.16,1.5,4.16,4.01c0,2.51-1.46,4.03-4.16,4.01h-4.14v5.55h-1.81V41.41
			L33.26,41.41z M35.06,47.91h3.53c2.03,0.02,2.96-0.87,2.96-2.49c0-1.62-0.93-2.49-2.96-2.49h-3.53V47.91L35.06,47.91z"/>
		<path style="fill:#D20A11;" d="M51.88,51.86c-0.44,2.17-2,3.35-4.2,3.35c-3.14,0-4.62-2.17-4.71-5.17c0-2.95,1.94-5.11,4.62-5.11
			c3.48,0,4.54,3.25,4.45,5.62h-7.36c-0.06,1.71,0.91,3.23,3.06,3.23c1.33,0,2.26-0.65,2.55-1.92H51.88z M50.32,49.13
			c-0.08-1.54-1.24-2.77-2.83-2.77c-1.69,0-2.7,1.27-2.81,2.77L50.32,49.13L50.32,49.13z"/>
		<path style="fill:#D20A11;" d="M52.76,45.15h1.52v1.56h0.04c0.68-1.22,1.79-1.79,3.19-1.79c2.58,0,3.38,1.48,3.38,3.59v6.46h-1.61
			v-6.65c0-1.2-0.76-1.98-2-1.98c-1.96,0-2.91,1.31-2.91,3.08v5.55h-1.62V45.15z"/>
		<path style="fill:#D20A11;" d="M61.96,45.15h1.52v1.56h0.04c0.68-1.22,1.79-1.79,3.19-1.79c2.58,0,3.38,1.48,3.38,3.59v6.46h-1.62
			v-6.65c0-1.2-0.76-1.98-1.99-1.98c-1.96,0-2.91,1.31-2.91,3.08v5.55h-1.61L61.96,45.15L61.96,45.15z"/>
		<path style="fill:#D20A11;" d="M79.75,51.86c-0.44,2.17-2,3.35-4.2,3.35c-3.14,0-4.62-2.17-4.71-5.17c0-2.95,1.94-5.11,4.62-5.11
			c3.48,0,4.54,3.25,4.45,5.62h-7.35c-0.06,1.71,0.91,3.23,3.06,3.23c1.33,0,2.26-0.65,2.55-1.92H79.75z M78.19,49.13
			c-0.08-1.54-1.24-2.77-2.83-2.77c-1.69,0-2.7,1.27-2.81,2.77L78.19,49.13L78.19,49.13z"/>
		<path style="fill:#D20A11;" d="M80.29,58.74v-1.48c0.3,0.09,0.63,0.23,0.95,0.23c0.66,0,1.03-0.32,1.33-0.89l0.67-1.67l-3.9-9.77
			h1.82l2.87,8.04h0.04l2.76-8.04h1.71l-4.28,11.14c-0.74,1.92-1.41,2.62-2.85,2.62"/>
	</g>
</g>
</svg>
