<?xml version="1.0" encoding="utf-8"?>
<svg version="1.1" id="Layer_1" xmlns="http://www.w3.org/2000/svg" xmlns:xlink="http://www.w3.org/1999/xlink" x="0px" y="0px"
	width="100px" height="100px" viewBox="0 0 100 100" style="enable-background:new 0 0 100 100;" xml:space="preserve">
<g>
	<path style="fill:#E8E8E8;" d="M50,0c27.6,0,50,22.4,50,50s-22.4,50-50,50S0,77.6,0,50S22.4,0,50,0"/>
	<path style="fill:#FFFFFF;" d="M50,1c27.1,0,49,21.9,49,49S77.1,99,50,99S1,77.1,1,50S22.9,1,50,1"/>
	<g>
		<path style="fill:#CF4044;" d="M73.6,47.3c-2.4-0.2-3.9,2.3-4.5,3.4c-0.7,1.1-1,2.8-0.2,3.4c1.4,1,3.6,0.3,4.3-0.5
			c0.9-0.9,1.3-1.5,1.9-2.7C76.5,47.9,74.6,47.4,73.6,47.3L73.6,47.3z M71.5,50.6c0.7-1.1,1.1-1.3,1.4-1.1c0.3,0.2,0,0.7-0.5,1.6
			c-0.8,1.1-1.1,1.4-1.4,1.1C70.8,52.1,71,51.5,71.5,50.6z"/>
		<path style="fill:#D9782D;" d="M18.5,45.4h-8.1v8.9h2.8L18.5,45.4z M18.2,54.3h0.1l0-0.3L18.2,54.3L18.2,54.3z M19,45.4l-5.3,8.9
			h4.5l5.3-8.9H19z M23.9,45.4l-5.3,8.9h3.7l5.3-8.9H23.9z M28.1,45.4l-5.3,8.9h2.8l5.3-8.9H28.1z M31.5,45.4l-5.3,8.9H28l5.2-8.9
			H31.5z M34.2,45.4l-5.3,8.9H30l5.2-8.9H34.2z M36.4,45.4l-5.3,8.9h0.6l5.3-8.9H36.4z M38.3,45.4L33,54.3h0.3l5.2-8.9H38.3
			L38.3,45.4z"/>
		<path style="fill:#CF4044;" d="M45.5,47.6l-2.7,4.8c-0.6,1,0.7,1.9,2.1,2c1.7,0.1,2.7-0.3,3.5-1.5l3-5.3H49L46.4,52
			c-0.1,0.2-0.4,0.4-0.7,0.4c-0.4,0-0.3-0.4-0.1-0.6l2.4-4.2H45.5L45.5,47.6z M52.6,46.6l-3,5.5c-0.3,0.5-0.3,1.1,0.1,1.7
			c0.3,0.4,0.6,0.6,1.2,0.6h1.5l1-1.8h-1.1c-0.1,0-0.2,0-0.2-0.1c0-0.1,0-0.1,0-0.1l1.5-2.7h1.5l1-1.9h-1.4l0.6-1.1H52.6L52.6,46.6z
			 M64.4,45.7h7.4l-1.2,2.1l-5.9,4.4h3.4l-1.2,2.1h-7.4l1.3-2.4l5.9-4.2h-3.5L64.4,45.7z M77.3,47.9H80l-0.1,0.3
			c-0.3,0.6,0.5-0.8,1.8-0.3c0.6,0.2,0.9,1,0.6,1.5l-2.7,5h-2.4l2.2-4c0.1-0.2,0.1-0.5-0.1-0.5c-0.3-0.1-0.5,0.3-0.6,0.5l-2.3,4
			h-2.6L77.3,47.9L77.3,47.9z M87.7,51.6c0.2-0.6,1.1-2.1,0.4-3.3c-0.4-0.7-1.2-0.9-1.9-0.9c-2.2-0.1-3.5,2-4.1,3.4
			c-0.5,1.1-1.7,3.8,1.6,3.9c1.4,0.1,3.3-1.3,3.8-2.7h-2.5c-0.3,0.4-0.6,1-1,0.7c-0.3-0.1-0.1-0.6,0.2-1.1H87.7L87.7,51.6z
			 M85.8,49.6c0.1,0.2,0,0.4-0.4,1h-0.9C85,50,85.5,49.1,85.8,49.6z M59.4,47.3c-2.4-0.2-3.9,2.3-4.6,3.4c-0.6,1.1-0.9,2.8-0.1,3.4
			c1.4,1,3.6,0.3,4.3-0.5c0.9-0.9,1.3-1.5,1.9-2.7C62.2,47.9,60.4,47.4,59.4,47.3L59.4,47.3z M57.3,50.6c0.7-1.1,1.1-1.3,1.4-1.1
			c0.3,0.2,0,0.7-0.5,1.6c-0.8,1.1-1.1,1.4-1.4,1.1C56.5,52.1,56.8,51.5,57.3,50.6z M42.6,45.4c-0.9,0.1-3.2,0.4-4.1,1.9l-4.2,7.1
			h2.9l1.2-2h1.3l-1.1,2h2.7l3.6-6.5C45.5,46.7,44.5,45.3,42.6,45.4z M42,48.3l-1.1,1.9h-1.3l1.3-2.1c0.1-0.3,0.5-0.3,0.7-0.3
			C42,47.7,42.3,47.8,42,48.3z M88.7,46h0.2c0.1,0,0.1,0,0.1,0.1c0,0.1-0.1,0.1-0.2,0.1h-0.2L88.7,46L88.7,46L88.7,46z M88.5,45.9
			v0.8h0.2v-0.3h0.2c0.1,0,0.2,0,0.2,0.2c0,0.1,0,0.1,0,0.2h0.2c0,0,0-0.1,0-0.2c0-0.1,0-0.2-0.1-0.2v0c0.1,0,0.2-0.1,0.2-0.2
			c0-0.2-0.3-0.2-0.3-0.2H88.5L88.5,45.9z M88.8,45.5c-0.4,0-0.8,0.3-0.8,0.7c0,0.4,0.3,0.7,0.8,0.7c0.4,0,0.8-0.3,0.8-0.7
			C89.6,45.9,89.2,45.5,88.8,45.5C88.8,45.5,88.8,45.5,88.8,45.5z M88.8,45.7c0.3,0,0.6,0.3,0.6,0.6s-0.3,0.6-0.6,0.6
			c-0.3,0-0.6-0.2-0.6-0.6c0,0,0,0,0,0C88.3,46,88.5,45.7,88.8,45.7z"/>
	</g>
</g>
</svg>
