<?xml version="1.0" encoding="utf-8"?>
<svg version="1.1" id="Layer_1" xmlns="http://www.w3.org/2000/svg" xmlns:xlink="http://www.w3.org/1999/xlink" x="0px" y="0px"
	 viewBox="0 0 238.9 215.8" style="enable-background:new 0 0 238.9 215.8;" xml:space="preserve">
<g>
	<path id="path94" style="fill:#ED1C2E;" d="M4.3,180.2c0.6-41.9,7.5-64,24.3-98.4c1.9-3.9-31-5-28.5-43.9c0-0.3,32,12.5,49.2,3.6
		c31.6-16.2,33.4-30,61.8-19c10.1,3.9,24-42.8,67.1-12c10.6,7.6,60-15.1,52.4,31.4c0,0.1-9.6-8.2-14.9-1.5c-1.7,2.1-0.4,7.8,5,18.7
		c9.2,18.4,18.7,55,18.2,86.4c-0.6,31.9-0.8,33.8-0.8,33.8S4.3,180.8,4.3,180.2"/>
	<path id="path98" style="fill:#FFFFFF;" d="M113.6,145.6C103,159.8,98.4,171,97.4,169.3c-17.3-28.5,2.2-68.2,19.6-76.9
		c2.8-1.4-0.8,26,13.7,37.2C131.8,130.5,123.5,132.4,113.6,145.6"/>
	<path id="path100" style="fill:#FFFFFF;" d="M105.4,78.8c3.7-16-1.6-31.1-12.9-34.8c-12.2-4-24.9,5.1-32.7,20.7
		c-2.7,5.5-7.1,17.6-6.7,22.9C61,81.1,80.5,70.4,105.4,78.8"/>
	<path id="path102" style="fill:#FFFFFF;" d="M60.8,96.2c2.4,5.2,6.2,9.1,11.2,10.7c10.3,3.3,22.3-4,29.1-16.9
		C92.5,87.9,70.1,83.9,60.8,96.2"/>
	<path id="path104" style="fill:#FFFFFF;" d="M161.8,17.4c-18.9-2.4-37.2,18.2-40.7,46.1c-2.5,19.8,3,37.8,13.2,47.5
		c-1.8-7.9-2.2-17.8-0.9-28.3c3.1-24.2,14.3-42.6,25.1-41.2c10.8,1.4,17,22.1,13.9,46.3c-1.4,10.7-4.4,20.4-8.2,27.6
		c12.6-6.6,22.8-22.9,25.4-43C193.2,44.3,180.7,19.8,161.8,17.4"/>
	<path id="path106" style="fill:#FFFFFF;" d="M159.1,77.7c-0.7,8-5,14.1-9.5,13.7c-4.5-0.4-7.5-7.2-6.8-15.2c0.7-8,5-14.1,9.5-13.7
		C156.7,62.9,159.8,69.7,159.1,77.7"/>
	<path style="fill:none;" d="M224.5,198.4c-0.2-0.1-0.5-0.2-0.8-0.2l0,0c-0.2,0-0.4,0-0.6,0c-0.1,0-0.2,0.1-0.3,0.1
		c-0.5,0.2-1.1,0.6-1.6,1.2c-0.4,0.5-0.7,1.1-1,1.8s-0.6,1.5-0.8,2.3c0,0.2-0.1,0.4-0.1,0.6c-0.1,0.6-0.2,1.2-0.2,1.8
		c0,0.5,0,1,0,1.5c0.1,0.7,0.2,1.3,0.5,1.8c0.1,0.2,0.2,0.3,0.3,0.4c0.2,0.2,0.4,0.4,0.7,0.5c0.1,0,0.2,0.1,0.3,0.1
		c0.2,0,0.3,0,0.5,0c0.3,0,0.6-0.1,0.8-0.2c0.3-0.1,0.5-0.3,0.7-0.5c0.3-0.3,0.6-0.7,0.9-1.1c0.3-0.6,0.6-1.3,0.9-2
		c0.3-0.8,0.5-1.6,0.7-2.4c0-0.1,0.1-0.3,0.1-0.4c0.2-0.7,0.3-1.5,0.3-2.3c0-1.1-0.2-2.2-0.9-2.8
		C224.8,198.6,224.6,198.5,224.5,198.4z"/>
	<path style="fill:none;" d="M40.4,197.1c-1.9-0.5-4.3,2.2-5.2,6c-0.9,3.8-0.1,7.3,1.8,7.7c1.9,0.5,4.3-2.2,5.2-6
		C43.1,201,42.3,197.5,40.4,197.1z"/>
	<path style="fill:none;" d="M183.2,199.5c-0.1-0.3-0.2-0.5-0.4-0.7c-0.3-0.4-0.8-0.7-1.4-0.8v0c-0.4,0-0.8,0.1-1.2,0.3
		c-1.2,0.7-2.4,2.6-3,5.1c-0.1,0.4-0.2,0.8-0.2,1.3c-0.1,0.8-0.1,1.6-0.1,2.3c0,0.5,0.1,1,0.2,1.5c0.1,0.4,0.3,0.8,0.5,1.1
		c0.3,0.4,0.6,0.6,1,0.7c2.6,0.3,3.6-2.9,4.5-6.2c0.1-0.4,0.2-0.8,0.3-1.3c0-0.3,0.1-0.6,0.1-1c0-0.2,0-0.3,0-0.5
		c0-0.3,0-0.6-0.1-0.9S183.3,199.7,183.2,199.5z"/>
	<path style="fill:none;" d="M134,197.8c-2-1.9-4.9,1.6-5.8,4.9c0.9,0.2,1.7,0.1,3.8-0.8C134.4,200.7,134.8,198.6,134,197.8z"/>
	<path style="fill:#00538E;stroke:#FFFFFF;stroke-width:0.8483;stroke-miterlimit:3.614;" d="M23.9,192.7c0.8,0.4,2,0.7,2.4,1.2
		l2.6-4.7c-2.2-2.1-3.3-2.3-7.2-2.6c-3.6-0.3-13.6,1.6-15.3,12.1c-1.3,8,3.8,14.7,9.8,16c5.1,1.1,7.7-0.4,8.4-0.8
		c0.1,0,0.1-5.9,0.1-5.9s-4.2,1.7-6.8,0.1c-2.5-1.6-4.9-5-3.6-9.7C15.7,193.8,20.7,191.3,23.9,192.7z"/>
	<polygon style="fill:#00538E;stroke:#FFFFFF;stroke-width:0.8483;stroke-miterlimit:3.614;" points="62.8,193.3 55.3,193.2 
		55.3,193.2 	"/>
	<path style="fill:#00538E;stroke:#FFFFFF;stroke-width:0.8483;stroke-miterlimit:3.614;" d="M65.6,205.6c-0.7,4.3-6.5,6.9-5.4,0.7
		c1.3-7.2,2.6-13,2.6-13l-7.5-0.1v0c0,0-2.7,13.3-3.1,15.1c-0.8,3.6,0.9,11.8,11.9,3.2c0.2-0.2-0.1,3.3-0.1,3.3l7.1,0.1l4.4-21.6
		l-7.4,0C68.1,193.3,65.9,204,65.6,205.6z"/>
	<polygon style="fill:#00538E;stroke:#FFFFFF;stroke-width:0.8483;stroke-miterlimit:3.614;" points="93,212.1 90.8,208.7 
		90.8,208.7 	"/>
	<path style="fill:#00538E;stroke:#FFFFFF;stroke-width:0.8483;stroke-miterlimit:3.614;" d="M94.2,194.4c-4.8-3.4-12-1.7-15.7,3.5
		c-3.7,5.2-3.7,12.2,1.1,15.6c3.8,2.7,10.3,1.3,13.4-1.5l-2.2-3.4v0c-1.7,1.4-4.2,1.4-4.9,1.1c-1.7-1-3-3-2.1-6.8
		c0.9-3.8,2.6-5.1,4.6-5.4c1.1-0.2,3.1,0.3,3.9,1.4l2.3-3.7C95.2,195.1,94.3,194.5,94.2,194.4z"/>
	<path style="fill:#00538E;stroke:#FFFFFF;stroke-width:0.8483;stroke-miterlimit:3.614;" d="M105.7,197.5
		c-0.2,0.4,2.1-10.5,2.1-10.5l-7.4,0.1l-5.4,27.4l7.6-0.1c0,0,1.3-7.6,2.3-12.9c0.6-3.3,5.9-3.4,5.2-0.2c-0.3,1.3-2.7,13.4-2.7,13.4
		l7.8,0.1c0,0,0.7-4.8,3.2-16.4C120.2,190.3,107.8,193.4,105.7,197.5z"/>
	<path style="fill:#00538E;stroke:#FFFFFF;stroke-width:0.8483;stroke-miterlimit:3.614;" d="M45.4,194.4
		c-4.8-3.4-11.7-1.9-15.4,3.3c-3.7,5.2-2.7,12.2,2.1,15.6c4.8,3.4,11.7,1.9,15.4-3.3C51.1,204.8,50.2,197.8,45.4,194.4z M42.2,204.8
		c-0.9,3.8-3.2,6.5-5.2,6c-1.9-0.5-2.8-3.9-1.8-7.7c0.9-3.8,3.2-6.5,5.2-6C42.3,197.5,43.1,201,42.2,204.8z"/>
	<path style="fill:#00538E;stroke:#FFFFFF;stroke-width:0.8483;stroke-miterlimit:3.614;" d="M130.4,205.9c6.9,0,15.3-9,5.2-12.7
		c-3-1.1-10,0.6-13.1,5.1c-3.7,5.2-3.7,12.2,1.1,15.6c3.8,2.7,10.3,1.3,14.7-2.7l-2.2-3.4c-3,2.6-6.2,2.1-6.8,1.7
		c-1.3-0.7-1.7-1.5-1.7-3.8C129.1,206,129.4,205.9,130.4,205.9z M128.1,202.7c1-3.3,3.8-6.7,5.8-4.9c0.8,0.8,0.5,2.9-2.1,4
		C129.9,202.8,129,202.9,128.1,202.7z"/>
	<polygon style="fill:#00538E;stroke:#FFFFFF;stroke-width:0.8483;stroke-miterlimit:3.614;" points="142.5,205.9 151.4,206 
		152.1,202.1 143.2,202.1 	"/>
	<polygon style="fill:#00538E;stroke:#FFFFFF;stroke-width:0.8483;stroke-miterlimit:3.614;" points="174,187 152.6,187 152.5,187 
		151.4,193.2 158.4,193.3 154.6,214.6 161.9,214.7 165.9,193.4 172.6,193.3 	"/>
	<path style="fill:#00538E;stroke:#FFFFFF;stroke-width:0.8483;stroke-miterlimit:3.614;" d="M209.2,193.2c-3.1,0.2-5.5,4.8-5.5,4.8
		l0.8-4.8l-6.9,0.1l-4.4,21.4v0h7c0,0,1-5,2.3-10.9c1.3-5.9,7-3.2,7-3.2l3.2-5.7C212.6,194.8,212,193,209.2,193.2z"/>
	<path style="fill:#00538E;" d="M181.4,198c-0.4,0-0.8,0.1-1.2,0.3C180.6,198.1,181,198,181.4,198L181.4,198z"/>
	<polygon style="fill:#00538E;stroke:#FFFFFF;stroke-width:0.8483;stroke-miterlimit:3.614;" points="181.2,212.5 181,214.7 
		181.2,212.5 	"/>
	<path style="fill:#00538E;stroke:#FFFFFF;stroke-width:0.8483;stroke-miterlimit:3.614;" d="M184.7,195.4c0,0-2.1-3-5.7-2.5
		c-10,1.3-11.9,16.6-7.8,20.8c3.6,3.7,9.4-0.5,10-1.2v0l-0.2,2.2l7.4-0.1l4.1-21.4l-7.1,0.1L184.7,195.4z M183.4,201.7
		c0,0.3-0.1,0.6-0.1,1c-0.1,0.5-0.2,0.9-0.3,1.3c-0.9,3.3-1.9,6.5-4.5,6.2c-0.4,0-0.7-0.3-1-0.7c-0.2-0.3-0.4-0.6-0.5-1.1
		c-0.1-0.4-0.2-0.9-0.2-1.5c0-0.7,0-1.5,0.1-2.3c0.1-0.4,0.1-0.8,0.2-1.3c0.6-2.5,1.8-4.4,3-5.1c0.4-0.2,0.8-0.3,1.2-0.3
		c0.6,0.1,1.1,0.3,1.4,0.8c0.2,0.2,0.3,0.4,0.4,0.7s0.2,0.6,0.2,0.9s0.1,0.6,0.1,0.9C183.4,201.4,183.4,201.6,183.4,201.7z"/>
	<polygon style="fill:#00538E;" points="223.5,212.6 223.3,214.8 223.5,212.6 	"/>
	<path style="fill:#00538E;" d="M219.1,206.1c0-0.6,0.1-1.2,0.2-1.8C219.2,204.9,219.2,205.5,219.1,206.1z"/>
	<path style="fill:#00538E;" d="M223.7,198.2L223.7,198.2c-0.2,0-0.4,0-0.6,0C223.3,198.2,223.5,198.2,223.7,198.2z"/>
	<path style="fill:#00538E;" d="M224.6,206.6c-0.3,0.8-0.6,1.5-0.9,2C224.1,208,224.3,207.3,224.6,206.6z"/>
	<path style="fill:#00538E;stroke:#FFFFFF;stroke-width:0.8483;stroke-miterlimit:3.614;" d="M219.9,209.8c0.2,0.2,0.4,0.4,0.7,0.5
		C220.3,210.2,220.1,210,219.9,209.8z"/>
	<path style="fill:#00538E;stroke:#FFFFFF;stroke-width:0.8483;stroke-miterlimit:3.614;" d="M225.7,201.4c0,0.8-0.1,1.6-0.3,2.3
		C225.6,203.1,225.7,202.2,225.7,201.4z"/>
	<path style="fill:#00538E;stroke:#FFFFFF;stroke-width:0.8483;stroke-miterlimit:3.614;" d="M228.9,187.2l-1.9,8.3
		c0,0-2.1-3-5.7-2.5c-10,1.3-11.9,16.6-7.8,20.8c3.6,3.7,9.4-0.5,10-1.2l-0.2,2.2l7.6-0.1l5.5-27.6L228.9,187.2z M225.4,203.8
		c0,0.1-0.1,0.3-0.1,0.4c-0.2,0.8-0.5,1.7-0.7,2.4c-0.3,0.8-0.6,1.5-0.9,2c-0.3,0.4-0.5,0.8-0.9,1.1c-0.2,0.2-0.4,0.4-0.7,0.5
		c-0.3,0.1-0.5,0.2-0.8,0.2c-0.1,0-0.3,0-0.5,0c-0.1,0-0.2,0-0.3-0.1c-0.3-0.1-0.5-0.3-0.7-0.5c-0.1-0.1-0.2-0.3-0.3-0.4
		c-0.2-0.5-0.4-1.1-0.5-1.8c-0.1-0.5-0.1-1,0-1.5c0-0.6,0.1-1.2,0.2-1.8c0-0.2,0.1-0.4,0.1-0.6c0.2-0.8,0.5-1.6,0.8-2.3
		s0.7-1.3,1-1.8c0.5-0.6,1-1,1.6-1.2c0.1,0,0.2-0.1,0.3-0.1c0.2,0,0.4-0.1,0.6,0c0.3,0,0.6,0.1,0.8,0.2c0.1,0.1,0.2,0.1,0.3,0.2
		c0.7,0.6,0.9,1.7,0.9,2.8C225.7,202.2,225.6,203.1,225.4,203.8z"/>
	<path style="fill:#00538E;stroke:#FFFFFF;stroke-width:0.8483;stroke-miterlimit:3.614;" d="M222.8,198.3c-0.5,0.2-1.1,0.6-1.6,1.2
		C221.8,199,222.3,198.5,222.8,198.3z"/>
</g>
</svg>
