<?xml version="1.0" encoding="utf-8"?>
<svg version="1.1" id="Layer_1" xmlns="http://www.w3.org/2000/svg" xmlns:xlink="http://www.w3.org/1999/xlink" x="0px" y="0px"
	width="100px" height="100px" viewBox="0 0 100 100" style="enable-background:new 0 0 100 100;" xml:space="preserve">
<g>
	<g>
		<path style="fill:#E8E8E8;" d="M50,0c27.61,0,50,22.39,50,50s-22.39,50-50,50S0,77.61,0,50S22.39,0,50,0"/>
		<path style="fill:#FFFFFF;" d="M50,1c27.06,0,49,21.94,49,49S77.06,99,50,99S1,77.06,1,50S22.94,1,50,1"/>
	</g>
	<g>
		<g id="g6699" transform="matrix(13.641138,0,0,13.641138,420.80128,555.18372)">
			<path id="Shape" style="fill:#FFFFFF;" d="M-25.43-36.27c-0.42,0-0.76-0.34-0.76-0.76c0-0.42,0.34-0.76,0.76-0.76
				c0.42,0,0.76,0.34,0.76,0.76C-24.67-36.61-25.01-36.27-25.43-36.27"/>
			<path id="path6063" style="fill:#54BBAB;" d="M-25.31-37.87c-0.02,0-0.03,0-0.06,0c0.04,0,0.08,0.01,0.12,0.01
				c0.43,0.08,0.71,0.52,0.62,0.98c-0.09,0.45-0.52,0.76-0.95,0.67c-0.02,0-0.04-0.01-0.06-0.01c0.07,0.02,0.15,0.04,0.24,0.04
				c0.08,0,0.15-0.01,0.21-0.03c0.27-0.06,0.49-0.25,0.59-0.48c0.05-0.1,0.07-0.22,0.07-0.34C-24.52-37.5-24.89-37.83-25.31-37.87"
				/>
			<path id="path6065" style="fill:#5BC5F2;" d="M-26.31-37.1c-0.03,0.46,0.32,0.86,0.81,0.9c-0.03,0-0.05-0.01-0.08-0.01
				c-0.43-0.08-0.71-0.52-0.62-0.98c0.09-0.45,0.51-0.75,0.94-0.67c-0.04-0.01-0.07-0.01-0.11-0.01
				C-25.86-37.91-26.27-37.56-26.31-37.1"/>
			<path id="path6067" style="fill:#007E92;" d="M-25.25-37.86c-0.43-0.08-0.86,0.22-0.95,0.67c-0.09,0.46,0.19,0.89,0.62,0.98
				c0.43,0.08,0.86-0.22,0.95-0.67C-24.53-37.34-24.81-37.77-25.25-37.86 M-25.43-36.27c-0.42,0-0.76-0.34-0.76-0.76
				c0-0.42,0.34-0.76,0.76-0.76c0.42,0,0.76,0.34,0.76,0.76C-24.67-36.61-25.01-36.27-25.43-36.27"/>
			<path id="path6069" style="fill:#E42313;" d="M-25.01-37.39h-0.26c-0.05,0-0.05,0.02-0.05,0.05c0,0,0,0.42,0,0.42
				c0,0.1-0.04,0.13-0.11,0.13c-0.07,0-0.11-0.03-0.11-0.14v-0.42c0-0.03-0.01-0.05-0.05-0.05h-0.26v0.5c0,0.11,0.02,0.16,0.07,0.21
				c0.07,0.07,0.2,0.11,0.36,0.11c0.16,0,0.29-0.03,0.36-0.11c0.05-0.05,0.07-0.1,0.07-0.21L-25.01-37.39z"/>
		</g>
		<g id="text27">
			<path id="path16" style="fill:#0386AF;" d="M19.26,52.22c0-0.89-0.34-1.62-1.49-2.24l-1.41-0.76c-0.59-0.32-0.74-0.46-0.74-0.77
				c0-0.4,0.23-0.58,0.86-0.58c0.75,0,2.03,0.1,2.33,0.12c0.01,0,0.02,0,0.02,0c0.14,0,0.19-0.09,0.19-0.19V46.7
				c0-0.12-0.08-0.18-0.17-0.2c-0.42-0.11-1.53-0.24-2.33-0.24c-2.14,0-2.82,0.94-2.82,2.15c0,0.8,0.28,1.5,1.3,2.1l1.52,0.9
				c0.57,0.34,0.73,0.52,0.73,0.84c0,0.53-0.22,0.77-0.98,0.77c-0.43,0-1.64-0.09-2.09-0.13c-0.01,0-0.02,0-0.03,0
				c-0.11,0-0.2,0.06-0.2,0.21v1.08c0,0.12,0.11,0.19,0.22,0.22c0.56,0.14,1.21,0.24,2.08,0.24C18.49,54.63,19.26,53.39,19.26,52.22
				L19.26,52.22z"/>
			<path id="path18" style="fill:#0386AF;" d="M25.89,48.42c0-0.11-0.1-0.2-0.21-0.2h-1.46c-0.12,0-0.21,0.1-0.23,0.21l-1.02,4.35
				c0,0-0.01,0-0.04,0c-0.01,0-0.02,0-0.04,0h-0.01c-0.07,0-0.1-0.06-0.13-0.21l-0.99-4.14c-0.02-0.11-0.1-0.21-0.21-0.21h-1.46
				c-0.15,0-0.22,0.07-0.22,0.18c0,0.02,0,0.04,0.01,0.08l1.45,4.96c0.28,0.96,0.62,1.02,1.02,1.02h0.17l-0.1,0.34
				c-0.13,0.44-0.33,0.57-0.73,0.57c-0.36,0-1.01-0.07-1.38-0.09c-0.01,0-0.01,0-0.02,0c-0.12,0-0.22,0.09-0.22,0.21v0.89
				c0,0.12,0.11,0.15,0.23,0.2c0.28,0.09,0.92,0.18,1.33,0.18c1.62,0,2.07-0.61,2.41-1.79l1.85-6.49
				C25.88,48.46,25.89,48.45,25.89,48.42L25.89,48.42z"/>
			<path id="path20" style="fill:#0386AF;" d="M31.21,52.79c0-0.59-0.2-1.17-1.11-1.7l-1.37-0.78c-0.22-0.13-0.34-0.22-0.34-0.39
				c0-0.25,0.15-0.32,0.58-0.32c0.56,0,1.51,0.1,1.83,0.14c0.01,0,0.02,0,0.03,0c0.11,0,0.19-0.08,0.19-0.21v-0.89
				c0-0.13-0.08-0.22-0.21-0.25c-0.56-0.14-1.09-0.25-1.96-0.25c-1.52,0-2.26,0.59-2.26,1.71c0,0.72,0.36,1.28,0.98,1.63L29,52.3
				c0.31,0.18,0.41,0.3,0.41,0.46c0,0.29-0.12,0.43-0.65,0.43c-0.35,0-1.28-0.08-1.87-0.15c-0.01,0-0.03,0-0.04,0
				c-0.13,0-0.21,0.1-0.21,0.21v0.89c0,0.13,0.08,0.22,0.21,0.25c0.56,0.15,1.4,0.24,2,0.24C30.46,54.63,31.21,53.82,31.21,52.79
				L31.21,52.79z"/>
			<path id="path22" style="fill:#0386AF;" d="M35.91,54.33v-0.86c0-0.12-0.09-0.19-0.23-0.19h-0.54c-0.33,0-0.36-0.08-0.36-0.52
				v-3.2h0.9c0.12,0,0.22-0.1,0.22-0.22v-0.89c0-0.12-0.1-0.22-0.22-0.22h-0.9v-1.17c0-0.11-0.09-0.19-0.2-0.19
				c-0.01,0-0.02,0-0.03,0L33.2,47.1c-0.12,0.02-0.22,0.1-0.22,0.22v0.9H32.1c-0.12,0-0.23,0.11-0.23,0.23v0.73
				c0,0.12,0.11,0.21,0.23,0.23l0.88,0.14v3.19c0,1.56,0.64,1.88,1.85,1.88c0.32,0,0.54-0.03,0.87-0.09
				C35.83,54.52,35.91,54.44,35.91,54.33L35.91,54.33z"/>
			<path id="path24" style="fill:#0386AF;" d="M42.26,51.67v-0.64c0-1.66-0.91-2.9-2.72-2.9c-1.75,0-2.79,1.12-2.79,2.9v0.77
				c0,2.13,1.43,2.83,2.76,2.83c0.96,0,1.55-0.09,2.26-0.26c0.19-0.04,0.23-0.12,0.23-0.3v-0.84c0-0.12-0.09-0.18-0.21-0.18
				c-0.01,0-0.02,0-0.03,0c-0.44,0.04-1.42,0.1-2.11,0.1c-0.87,0-1.13-0.57-1.13-1.2v-0.02h3.51
				C42.17,51.94,42.26,51.84,42.26,51.67L42.26,51.67z M40.52,50.84h-2v-0.04c0-0.8,0.41-1.22,1.01-1.22c0.62,0,0.99,0.41,0.99,1.22
				V50.84z M40.74,47.52c0-0.03-0.01-0.07-0.04-0.11l-1.01-1.29c-0.1-0.12-0.14-0.17-0.3-0.17h-1.45c-0.08,0-0.12,0.03-0.12,0.08
				c0,0.02,0.01,0.06,0.04,0.09l1.34,1.34c0.09,0.09,0.12,0.13,0.26,0.13h1.18C40.71,47.6,40.74,47.57,40.74,47.52z"/>
			<path id="path26" style="fill:#0386AF;" d="M51.73,54.3v-3.75c0-1.44-0.44-2.41-1.89-2.41c-0.72,0-1.16,0.18-1.79,0.54
				c-0.31-0.37-0.72-0.54-1.3-0.54c-0.64,0-1.17,0.24-1.63,0.55v-0.24c0-0.12-0.1-0.22-0.22-0.22h-1.26c-0.12,0-0.22,0.1-0.22,0.22
				v5.86c0,0.12,0.11,0.23,0.23,0.23h1.33c0.12,0,0.22-0.11,0.22-0.23v-4.38c0.34-0.18,0.63-0.29,0.84-0.29
				c0.51,0,0.64,0.21,0.64,0.91v3.75c0,0.12,0.11,0.23,0.23,0.23h1.33c0.12,0,0.22-0.11,0.22-0.23v-3.75c0-0.24-0.01-0.5-0.03-0.72
				c0.33-0.15,0.66-0.2,0.85-0.2c0.51,0,0.67,0.21,0.67,0.91v3.75c0,0.12,0.1,0.23,0.22,0.23h1.33
				C51.62,54.54,51.73,54.43,51.73,54.3L51.73,54.3z"/>
			<path id="path28" style="fill:#0386AF;" d="M58.39,51.67v-0.64c0-1.66-0.91-2.9-2.72-2.9c-1.75,0-2.79,1.12-2.79,2.9v0.77
				c0,2.13,1.43,2.83,2.76,2.83c0.96,0,1.55-0.09,2.26-0.26c0.19-0.04,0.23-0.12,0.23-0.3v-0.84c0-0.12-0.09-0.18-0.21-0.18
				c-0.01,0-0.02,0-0.03,0c-0.44,0.04-1.42,0.1-2.11,0.1c-0.87,0-1.13-0.57-1.13-1.2v-0.02h3.51C58.3,51.94,58.39,51.84,58.39,51.67
				z M56.65,50.84h-2v-0.04c0-0.8,0.41-1.22,1.01-1.22c0.62,0,0.99,0.41,0.99,1.22V50.84z"/>
		</g>
	</g>
</g>
</svg>
