<?xml version="1.0" encoding="utf-8"?>
<svg version="1.1" id="Layer_1" xmlns="http://www.w3.org/2000/svg" xmlns:xlink="http://www.w3.org/1999/xlink" x="0px" y="0px"
	 viewBox="0 0 2279.6 469.74" style="enable-background:new 0 0 2279.6 469.74;" xml:space="preserve">
<g>
	<path d="M2279.6,469.74V0H0v469.74L2279.6,469.74L2279.6,469.74z"/>
	<path style="fill:#FFFFFF;" d="M127.94,92.45h141.95v95.26h0.93l108.33-95.26h159.69L408.11,209.19l151.29,159.68H379.16
		L270.83,255.88h-0.93v112.99H127.94V92.45z M763.91,84.98c161.56,0,205.45,33.62,205.45,146.61
		c0,113.01-43.89,146.63-205.45,146.63c-160.63,0-204.52-33.62-204.52-146.63C559.39,118.6,603.29,84.98,763.91,84.98z
		 M763.91,321.24c63.5,0,58.83-70.02,58.83-92.44c0-23.35,0.93-86.85-58.83-86.85s-58.83,63.5-58.83,86.85
		C705.08,251.23,701.34,321.24,763.91,321.24z M1275.68,265.24v105.52h145.69V94.32h-145.69v95.26h-104.61V94.32H1025.4v276.43
		h145.67V265.24L1275.68,265.24L1275.68,265.24z M1490.47,94.32h149.42v210.14c0,0,118.62,0.93,134.47,0.93
		c15.89,0,25.23-14.01,25.23-14.01v79.37h-309.11L1490.47,94.32L1490.47,94.32z M2146.98,185.84
		c-30.81-24.28-56.95-31.75-84.97-32.69c-28.02,0-53.24,9.34-53.24,25.21c0,14.01,18.69,18.68,85,32.69
		c55.1,11.21,90.59,38.3,90.59,89.65c0,56.98-97.12,89.65-183.97,89.65c-61.64,0-108.36-10.26-150.38-28.92v-77.53
		c26.17,27.08,84.05,41.09,128.9,41.09c24.27,0,36.41-3.75,36.41-23.36c0-12.14-14.92-22.4-61.64-30.81
		c-88.72-15.89-118.59-41.09-118.59-83.13c0-61.64,77.5-97.12,172.74-97.12c51.38,0,98.07,0.93,139.16,19.61V185.84L2146.98,185.84z
		"/>
	<path style="fill:#FFFFFF;" d="M1716.47,207.32l10.26-17.74c-30.81-14.94-40.16-53.23-24.27-74.71
		c16.82-23.35,63.5-33.62,88.72,2.8c21.48,30.82,0.93,56.97-8.4,64.44C1773.45,189.58,1716.47,207.32,1716.47,207.32L1716.47,207.32
		z"/>
</g>
</svg>
