<?xml version="1.0" encoding="utf-8"?>
<svg version="1.1" id="Layer_1" xmlns="http://www.w3.org/2000/svg" xmlns:xlink="http://www.w3.org/1999/xlink" x="0px" y="0px"
	width="100px" height="100px" viewBox="0 0 1299.3 1299.3" style="enable-background:new 0 0 1299.3 1299.3;" xml:space="preserve">
<g>
	<g>
		<circle style="fill:#E8E8E8;" cx="649.6" cy="649.6" r="649.6"/>
		<circle style="fill:#FFFFFF;" cx="649.6" cy="649.6" r="636.6"/>
	</g>
	<path d="M368.8,693.8c51-69.5-5.4-100.2-5.4-100.2s62.1-10.6,77.4-46.1c14.9-35.5-11.7-49.9-16.9-51.5c-19.2-5.9-38.2-7-66.4-2.7
		c-18.1,2.7-38.2,7.9-60,19.6c-20.1,10.6-5.9,20.7-5.9,20.7s7.9,4.3,25.5-1.6c0,0-89.6,100.2-126.2,211.1
		c-2.7,7.9,22.3,10.6,24.4,7.4c2.1-3.2,4.8-12.7,10.1-12.7C230.9,737.4,318,762.7,368.8,693.8L368.8,693.8z M362.5,525
		c3.6-3.2,1.6-3.2,1.6-7.4c0-3.6,7.4-1.1,9-1.6c2.1-1.1,53.5-4.8,37.2,21.2c-18.1,29.1-90.7,40.4-90.7,40.4
		C325.9,567.4,360.4,526.7,362.5,525L362.5,525z M341.7,676.9c-47.2,64.1-106.1,34.5-106.1,34.5c6.3-24.9,55.7-110.4,63.2-109.9
		c2.1,0,5.4,7.4,30.7,1.6C344.4,599.9,371,637,341.7,676.9z M667,721.8c7,4.8,47.2,20.7,63.7-8.6c21.7-38.8,11.1-56.2,6.3-69
		c-2.7-7-3.2-10.6,0-16c5.4-9,9-8.6,19.6-9c10.6-0.5,9.5-5.4,9.5-11.7s-9-13.8-22.8-12.2c-13.8,1.1-26.6,18.1-30.7,21.7
		c-4.3,3.6-47.8,65.2-51,69.5c-3.2,4.3-7.4,13.3-13.8,10.1c-5.9-3.2,3.2-15.4,10.6-26.6c7-11.1,18.1-24.4,27.1-42.4
		c9-18.1-2.1-17.6-9-18.1c-5.4-0.5-13.3,5.9-19.6,16.5c-4.3,6.3-27.1,42-39.7,56.2c-12.7,13.8-18.1,10.6-19.6,10.6
		c-2.1,0-6.3-2.1-6.3-10.1c0-7.9,16.9-29.1,20.1-32.9c3.2-3.6,19.6-23.9,27.1-31.4c7.4-7.4,5.4-10.1,5.4-11.7
		c0-1.1-2.1-5.9-14.9-3.6c-12.7,2.1-26,19.2-37.2,30.7c-11.1,11.1-14.9,23.9-29.8,42.4c-15.4,19.2-27.1,22.3-39.3,23.3
		c-11.7,1.1-8.6-11.1-5.9-15.4c2.7-4.3,32.9-26,44-36.1c10.1-11.1,14.9-15.4,53.5-57.8c38.8-42.4,39.3-64.8,39.7-68.4
		c0.5-3.6,3.6-24.9-12.2-30.2c-11.1-3.6-21.2-6.3-54.6,17.6c-36.6,25.5-75.9,113.5-81.2,126.8c-5.4,13.3-20.7,34.5-20.7,34.5
		s-23.3,29.1-56.2,31.8s-11.1-29.1-11.1-29.1c30.7,4.3,46.7-7.9,57.8-16.5s23.3-24.9,21.7-40.4c-1.6-15.4-11.1-20.1-35-18.1
		c-23.9,2.1-44.5,26-60.5,48.8c-12.7,18.1-18.1,36.1-16.9,52.6c1.1,16.5,14.9,25.5,37.2,27.1s41.3-11.1,51.5-18.5
		c10.1-7.4,12.2-4.3,14.9-1.1c2.7,2.7,1.1,10.6,16.5,14.9c15.4,4.3,29.8-1.6,45.6-11.7c16-10.1,13.3-8.6,17.6-6.3
		c4.3,1.6,0.5,10.6,17.6,13.8c16.9,3.2,23.9-5.9,31.4-10.1c7.9-4.3,9.5-2.7,10.6,4.8s3.6,12.2,12.7,12.7
		C651.6,725,659.1,716.6,667,721.8L667,721.8z M694.1,683.2c17.6-22.3,18.5-22.8,24.9-21.7c5.9,1.1,2.7,11.1,0,24.4
		c-3.2,13.3-21.7,30.7-31.8,24.4C677.1,703.8,694.1,683.2,694.1,683.2L694.1,683.2z M586.9,548.4c14.9-20.7,32.9-31.4,39.3-26
		c5.9,5.4,5.9,7-12.7,33.9c-20.7,30.2-79.7,80.6-79.7,80.6C546,604.2,574.7,565.4,586.9,548.4L586.9,548.4z M434.7,647.6
		c10.6-20.1,19.6-21.7,24.9-22.3c5.2-0.6,13.3,3.6,5.9,12.7c-9,11.1-21.2,13.3-27.6,14.3C429.8,654.5,434.7,647.6,434.7,647.6
		L434.7,647.6z M933.8,674.2c-13.3,24.4-19.6,32.3-29.1,37.2c-7.9,3.6-9,3.2-16.5-1.1c-7.4-4.3,11.1-22.3,16-28.2
		c4.8-5.9,16.5-20.7,19.2-27.6c2.7-6.3,7-11.7-4.3-16c-7-2.7-7.9-5.4-21.2,5.9c-13.3,11.1-22.3,31.8-24.9,36.1
		c-2.7,4.3-8.6,18.1-20.1,19.2s-10.6-8.6-5.4-16l21.7-30.2c4.8-5.9,12.2-23.3,1.1-30.7c-11.1-7.4-36.6,7.9-50.4,18.5l-22.8,18.5
		c-2.7,2.1-8.6,4.8-5.4-3.2c4.3-9.5,5.9-14.3,7.4-16.9c2.1-2.7,51.5-26,76.3-57.8c24.9-31.8,36.1-55.7,33.4-72.7s-12.2-26.6-45.6-9
		c-34.5,18.1-91.8,135.2-96,146.5l-21.7,57.3c0,0-7.9,16.5,7.4,18.5c9,1.6,17.6-5.9,17.6-5.9l20.7-20.7c3.2-3.2,19.2-19.6,23.9-20.1
		c5.4-1.1,9-3.6,7,2.1c-2.1,5.7-14.3,25.5-4.8,36.6c9.5,11.1,20.1,12.2,21.7,12.2s10.6,0,16.9-4.3c6.3-4.8,7.4-5.4,9.5-1.6
		c2.1,3.6,3.6,15.4,16.5,16.9c12.7,1.6,26.6,2.7,38.2-6.3c12.2-9,35.5-31.4,37.2-55.1C958.2,659.3,938.1,666.3,933.8,674.2
		L933.8,674.2z M818.2,593.6c4.8-10.6,29.8-50.4,46.1-65.2c16.5-14.9,16-11.1,17.6-7.4c2.1,4.3,0.5,11.7-16,32.3
		c-16,20.7-35.5,39.3-45.1,43.5C820.9,596.7,814.4,601,818.2,593.6L818.2,593.6z M1042.6,611.6c-7.9,0-14.9,0-27.6,11.1
		c-12.2,10.6-29.1,31.4-71.6,99.8c-1.6,2.1-2.7,4.3-3.6,7.9c-0.5,2.7,0,7.4,4.8,9.5c9,3.6,14.9,0,17.6-2.7c1.1-1.1,0.5-5.4,7.4,2.7
		c9,10.1,11.1,11.1,26.6,11.1c14.9,0,28.7-7.9,33.4-16.9c5.4-9,17.6-32.9,10.1-55.1c-7.4-22.8-9-27.1-7-31.8
		c2.1-5.4,2.7-7.9,10.1-7.9c7.9,0,16,2.1,18.5-9.5C1064.3,616.8,1050.5,611.6,1042.6,611.6L1042.6,611.6z M1000.6,720.9
		c-5.4,4.3-9.5,6.3-14.3,4.3c-7-3.2,0-14.3,0-14.3c2.1-4.3,16.5-28.2,23.3-28.2c4.8,0,5.9,4.3,5.9,13.8
		C1015.1,708.1,1005.4,716.6,1000.6,720.9L1000.6,720.9z M930.2,632.8c10.1,2.7,22.3-4.3,28.2-16.9c4.8-10.1,1.1-15.4-3.2-19.6
		c-3.6-3.6-23.3-4.8-31.4,13.3C914.8,629.5,930.2,632.8,930.2,632.8z M1006.5,581.8c11.7-5.4,27.6-12.7,42-50.4
		c9-23.9-7.9-28.2-12.7-29.1c-12.7-3.2-14.3,10.1-15.4,17.6c-1.1,6.3-3.2,26-27.6,41.3c-13.3,8.6-10.1,12.2-4.8,18.5
		C990,583,994.8,587.1,1006.5,581.8L1006.5,581.8z M1068.1,493.2h6.8v19.2h2.7v-19.2h6.3v-2.1h-15.8V493.2z M1106.7,491.1h-3.6
		l-3.6,10.6c-1.1,2.7-1.6,5.4-2.1,7.4l0,0l-2.1-7.4l-3.6-10.6h-3.6l-1.6,21.7h2.7l0.5-9c0-3.2,0.5-7,0.5-9.5l0,0
		c0.5,2.7,1.6,5.4,2.7,8.6l3.6,10.1h2.1l3.6-10.6l2.7-7.9l0,0c0,2.7,0,6.3,0.5,9.5l0.5,9.5h2.7L1106.7,491.1L1106.7,491.1z
		 M275.5,802h6.3v-12.7h11.6v-5.9h-11.6V776h13.8v-5.9h-20.1V802z M318.9,769.7c-9,0-16.5,7.4-16.5,16.5c0,9,7.4,16.5,16.5,16.5
		s16.5-7.4,16.5-16.5C335.4,777.1,327.9,769.7,318.9,769.7z M318.9,796.1c-5.4,0-9.5-4.8-9.5-10.1c0-5.9,4.3-10.6,9.5-10.6
		c5.4,0,10.1,4.8,10.1,10.6C328.6,792,324.3,796.1,318.9,796.1z M358.2,769.7c-9,0-16.5,7.4-16.5,16.5c0,9,7.4,16.5,16.5,16.5
		s16.5-7.4,16.5-16.5C374.7,777.1,367.2,769.7,358.2,769.7z M358.2,796.1c-5.4,0-9.5-4.8-9.5-10.1c0-5.9,4.3-10.6,9.5-10.6
		c5.4,0,10.1,4.8,10.1,10.6C368.3,792,363.6,796.1,358.2,796.1z M392.2,770.1h-10.6V802h10.6c10.1,0,17.6-6.3,17.6-16
		C409.7,776.5,402.2,770.1,392.2,770.1z M392.2,796.1H388V776h4.3c7,0,11.1,3.6,11.1,10.1C403.3,792,398.6,796.1,392.2,796.1
		L392.2,796.1z M454.3,770.1h-10.6V802h10.6c10.1,0,17.6-6.3,17.6-16C472.2,776.5,464.9,770.1,454.3,770.1z M454.3,796.1H450V776
		h4.3c7,0,11.1,3.6,11.1,10.1C465.9,792,461.1,796.1,454.3,796.1L454.3,796.1z M502.5,780.3c0-5.9-4.8-10.1-12.2-10.1h-11.1V802h6.3
		v-11.7h4.8l6.3,11.7h7.4l-7.4-12.7C500.4,787.7,502.5,784.5,502.5,780.3z M490.9,784.5H485v-9h5.9c3.2,0,5.4,1.6,5.4,4.8
		C496.1,783,494.1,784.5,490.9,784.5z M509.4,770.1h6.3V802h-6.3V770.1z M543.9,792l-14.9-21.9h-6.3V802h5.9v-21.7l14.7,21.7h7
		v-31.8h-6.3V792z M582.1,770.1h-7l-9,12.8h-3.2v-12.8h-6.3V802h6.3v-13.1h3.2l9,13.1h7.4l-11.1-16.5L582.1,770.1z M622.5,778.7
		c0-2.1,1.6-3.2,4.8-3.2c2.9,0,5.7,1.3,7.4,3.6l4.3-4.3c-2.1-3.2-6.3-5.4-11.7-5.4c-7,0-11.7,3.6-11.7,9c0,11.1,16.5,8.6,16.5,14.3
		c0,2.1-2.1,3.6-5.4,3.6c-3.2,0-5.9-1.6-7.9-3.6l-4.3,4.3c2.1,3.2,5.9,5.9,12.2,5.9c7.4,0,12.2-4.3,12.2-10.1
		C638.8,781.4,622.5,783.9,622.5,778.7L622.5,778.7z M656.4,770.1h-11.1V802h6.3v-10.6h4.8c7.9,0,12.7-4.3,12.7-10.6
		S664.3,770.1,656.4,770.1L656.4,770.1z M656.9,785.5H651v-10.1h5.9c3.2,0,5.9,2.1,5.9,5.4C662.7,783.4,660.7,785.5,656.9,785.5
		L656.9,785.5z M692.5,769.7c-9,0-16.5,7.4-16.5,16.5c0,9,7.4,16.5,16.5,16.5c9,0,16.5-7.4,16.5-16.5
		C709,777.1,701.5,769.7,692.5,769.7z M692.5,796.1c-5.4,0-9.5-4.8-9.5-10.1c0-5.9,4.3-10.6,9.5-10.6c5.4,0,10.1,4.8,10.1,10.6
		C702,792,697.7,796.1,692.5,796.1z M739.2,780.3c0-5.9-4.8-10.1-12.2-10.1h-11.1V802h6.3v-11.7h4.8l6.3,11.7h7.4l-7.4-12.7
		C736.5,787.7,739.2,784.5,739.2,780.3z M727.5,784.5h-5.9v-9h5.9c3.2,0,5.4,1.6,5.4,4.8C732.7,783,730.6,784.5,727.5,784.5z
		 M746,776h9.5v26h5.9v-26h9.7v-5.9h-25V776z M784.2,778.7c0-2.1,1.6-3.2,4.8-3.2c2.9,0,5.7,1.3,7.4,3.6l4.3-4.3
		c-2.1-3.2-6.3-5.4-11.7-5.4c-7,0-11.7,3.6-11.7,9c0,11.1,16.5,8.6,16.5,14.3c0,2.1-2.1,3.6-5.4,3.6c-3.2,0-5.9-1.6-7.9-3.6
		l-4.3,4.3c2.1,3.2,5.9,5.9,12.2,5.9c7.4,0,12.2-4.3,12.2-10.1C801.3,781.4,784.2,783.9,784.2,778.7L784.2,778.7z M851.6,785.5
		l-10.1-15.4h-6.8V802h5.9v-22.2l10.6,15.8l10.6-15.8V802h6.3v-31.8h-6.3L851.6,785.5z M894.5,788.8c0,4.3-2.7,7.4-7,7.4
		c-4.3,0-7-3.2-7-7.4v-18.5h-6.3v18.5c0,7.9,5.4,13.8,12.7,13.8c7.9,0,13.3-5.4,13.3-13.8v-18.5h-5.9v18.5H894.5z M914.2,778.7
		c0-2.1,1.6-3.2,4.8-3.2c2.9,0,5.7,1.3,7.4,3.6l4.3-4.3c-2.1-3.2-6.3-5.4-11.7-5.4c-7,0-11.7,3.6-11.7,9c0,11.1,16.5,8.6,16.5,14.3
		c0,2.1-2.1,3.6-5.4,3.6s-5.9-1.6-7.9-3.6l-4.3,4.3c2.1,3.2,5.9,5.9,12.2,5.9c7.4,0,12.2-4.3,12.2-10.1
		C930.7,781.4,914.2,783.9,914.2,778.7L914.2,778.7z M937,770.1h6.3V802H937V770.1z M966.3,775.5c3.2,0,5.9,1.1,7.4,2.7l4.3-4.8
		c-2.7-2.7-6.3-4.3-11.7-4.3c-9,0-16.5,7.4-16.5,16.5s7,16.5,16.5,16.5c5.4,0,9-1.6,11.7-4.3l-4.3-4.8c-1.6,1.6-4.3,2.7-7.4,2.7
		c-5.9,0-10.1-4.8-10.1-10.1C956.6,780.3,960.9,775.5,966.3,775.5z M423.4,762.2h7V810h-7V762.2z M595.4,762.2h7V810h-7V762.2z
		 M813.9,762.2h7V810h-7V762.2z"/>
</g>
</svg>
