<svg xmlns="http://www.w3.org/2000/svg" viewBox="0 0 770.7 770.7"><path d="M385.3 770.7h0C172.5 770.7 0 598.2 0 385.3h0C0 172.5 172.5 0 385.3 0h0c212.8 0 385.3 172.5 385.3 385.3h0c.1 212.9-172.4 385.4-385.3 385.4z" fill="#f56401"/><path d="M163.2 271.7v76.1s26.8 0 41.2-1.1c11.2-2 13.4-3.1 15.4-14.3l4.1-16.6h12.3l-2.1 36.1 1.1 37.1h-12.4l-3.1-14.4c-3.1-10.3-7.2-12.4-15.4-13.4-10.3-1.1-41.2-1.1-41.2-1.1v63.8c0 12.3 6.3 17.5 20.6 17.5h43.2c13.4 0 26.8-1.1 35.1-20.6l11.1-24.7h10.4c-1.1 5.1-6.3 50.4-7.2 60.6l-55.5-.9h-74.1l-44.3.9v-11.1l14.3-3.2c10.4-2.1 13.5-5.1 13.5-13.4 0 0 1.1-27.8 1.1-74.1 0-46.2-1.1-74-1.1-74 0-9.2-3.1-11.2-13.5-13.4l-14.3-3.1v-11.2l43.2.8h82.3c16.5 0 44.2-3 44.2-3s-.9 17.4-2.1 58.6h-11.2l-4.1-14.4c-4-18.5-10.2-27.7-21.6-27.7h-64.7c-5.2 0-5.2 1.1-5.2 4.2zm166.6 8.1h12.4V323l42.3-2.1-2.1 19.5-41.2-3.2v76.1c0 21.6 7.2 29.8 19.5 29.8 11.1 0 19.5-6.3 22.6-11.4l6.2 7.2c-6.2 14.3-23.6 21.6-40 21.6-20.5 0-37.1-12.3-37.1-35.9v-86.4h-24.5V328c20.5-1.9 35.9-14.2 41.9-48.2h0zm88.6 132.8l8.2 19.5c3.1 8.2 10.3 16.6 26.8 16.6 17.5 0 24.7-9.4 24.7-20.6 0-35.1-68.9-24.7-68.9-72 0-26.8 21.6-39.2 49.4-39.2 12.4 0 30.9 2.1 40.1 6.3-2.1 10.3-3.2 23.7-3.2 34l-10.2.9-7.2-20.6c-2.1-5.1-10.4-9.2-20.6-9.2-12.4 0-24.7 5.1-24.7 18.5 0 31.9 71.1 24.7 71.1 72 0 26.8-23.7 41.2-52.6 41.2-21.6 0-43.2-8.3-43.2-8.3 2.1-12.3 1.1-25.6 0-39.1h10.3zm80.3 98.7c3.1-11.2 5.1-25.6 7.2-39.1l11.2-.9 4.1 21.6c.9 5.1 4 9.4 12.3 9.4 13.4 0 30.9-8.2 47.4-37.1-7.3-17.5-28.9-74-48.4-117.2-5.1-11.4-6.2-12.4-13.3-14.4l-5.2-2V321l31 1.1 38-2.1v10.3l-9.4 2.1c-7.2.9-10.2 5.1-10.2 9.2 0 1.1 0 2.1.9 4.1 2 6.3 18.5 52.5 30.9 83.4 10.2-21.6 29.8-70 32.8-78.2 1.1-4.1 2.1-5.1 2.1-8.2 0-5.2-3.1-8.3-10.2-10.3l-7.5-2.3V320l28.9.9 26.8-.9v10.3l-5.1 4c-10.3 4.1-11.4 5.1-15.4 13.5l-45.2 105.9c-26.8 60.7-54.6 66-74.1 66-12.2-.1-21.6-3.3-29.6-8.4h0z" fill="#fff"/></svg>