<svg xmlns="http://www.w3.org/2000/svg" width="413.333" height="413.333" viewBox="0 0 310 310" preserveAspectRatio="xMidYMid meet"><path d="M140.5 87.7c-14.6 3.1-29.3 12.2-38.5 23.8l-5.2 6.5H48.7.6l4.4 4.5 4.4 4.5h41.4 41.3l-.7 2.2c-.4 1.3-1.2 3.9-1.9 5.8l-1.2 3.5-33.3.3-33.4.2 4.4 4.5 4.4 4.5h28.3H87v6 6H64.8 42.6l4.4 4.5 4.4 4.5 18.4.2 18.5.3 1.2 3.5c.7 1.9 1.5 4.5 1.9 5.7l.7 2.3H77.9 63.6l4.4 4.5 4.4 4.5h12.2 12.2l5.2 6.5c12.3 15.5 33.1 25.5 53 25.5s40.7-10 53-25.5l5.2-6.5h12.2 12.2l4.4-4.5 4.4-4.5h-14.3-14.2l.7-2.3c.4-1.2 1.2-3.8 1.9-5.7l1.2-3.5 18.5-.3 18.4-.2 4.4-4.5 4.4-4.5h-22.2H223v-6-6h28.3 28.3l4.4-4.5 4.4-4.5-33.4-.2-33.3-.3-1.2-3.5c-.7-1.9-1.5-4.5-1.9-5.8l-.7-2.2h41.3 41.4l4.4-4.5 4.4-4.5h-48.1-48.1l-5.2-6.5c-15.7-19.8-42.4-29.2-67.5-23.8zm28.4 9.8c20 4.7 37.3 21.9 42.5 42.1 2 7.9 2 20.9 0 28.8-3.9 15.2-15.3 29.7-29 36.8-22.9 12-50.3 7.9-68.4-10.2-22.8-22.8-22.8-59.2 0-82 7.3-7.3 17.5-13.2 26.6-15.4 7.8-1.9 20.4-1.9 28.3-.1zM108 154v15h3 3v-10.2c0-5.6.3-9.8.8-9.4.4.4 2.1 4.9 3.8 9.9 3 9.1 3.1 9.2 6.6 9.5l3.5.3 3.5-10.8 3.6-10.8.1 10.7.1 10.8h3 3v-15.1-15l-4.7.3-4.7.3L129 151c-4.2 13.1-3.7 13.2-8.5-2.8l-2.8-9.2h-4.9-4.8v15zm41 0v15h3 3v-15-15h-3-3v15zm13-.1V169h3 2.9l.3-10.8.3-10.7 5.9 10.7 5.9 10.8h3.9 3.8v-15-15h-3-2.9l-.3 10.5-.3 10.4-5.6-10.2-5.6-10.2-4.1-.3-4.2-.3v15zm33 .1v15h3.5 3.5v-15-15h-3.5-3.5v15z"/></svg>