<?xml version="1.0"?>
<svg xmlns="http://www.w3.org/2000/svg" xmlns:xlink="http://www.w3.org/1999/xlink" xmlns:svgjs="http://svgjs.com/svgjs" version="1.1" width="512" height="512" x="0" y="0" viewBox="0 0 512 512" style="enable-background:new 0 0 512 512" xml:space="preserve" class=""><g><g xmlns="http://www.w3.org/2000/svg"><g><g><g><g><g><g><path d="m11.718 332.795c-7.614-24.243-11.718-50.04-11.718-76.795 0-141.385 114.615-256 256-256s256 114.615 256 256-114.615 256-256 256c-77.448 0-146.864-34.392-193.808-88.737z" fill="#f1f1f1" data-original="#fe8205" style="" class=""/></g></g></g></g></g></g><path d="m62.192 423.261 26.546 26.546c44.864 38.754 103.325 62.193 167.262 62.193 128.893 0 235.538-95.257 253.376-219.213l-146.182-146.182-123.652-47.368-72.904 70.098 60.973 60.973-52.749 31.692 49.232 49.232z" fill="#f1f1f1" data-original="#f24500" style="" class=""/><g><path d="m376.684 326.811-92.656 57.914-65.348-36.225 72.507-19.471c9.459-4.715 14.256-15.472 11.443-25.663-2.947-10.68-13.344-17.526-24.316-16.011l-92.833 2.652c-12.448.356-24.814 2.139-36.856 5.314l-136.904 37.482c10.581 33.686 27.936 64.371 50.471 90.458 32.713-17.887 61.981-34.167 61.981-34.167l120.379 45.451c21.24 7.944 45.024 4.97 63.654-7.96l112.438-80.217-6.853-11.365c-7.88-12.658-24.631-16.356-37.107-8.192z" fill="#ffdecf" data-original="#ffdecf" style="" class=""/></g><g fill="#ffcdbe"><path d="m291.187 329.029c9.459-4.715 14.256-15.472 11.443-25.663-2.947-10.68-13.344-17.526-24.316-16.011l-22.329.638v50.489z" fill="#ffcdbe" data-original="#ffcdbe" style="" class=""/><path d="m413.79 335.004c-7.879-12.659-24.629-16.357-37.106-8.193l-92.656 57.914-28.042-15.545v68.548c18.035 3.395 36.875-.493 52.219-11.142l112.438-80.217z" fill="#ffcdbe" data-original="#ffcdbe" style="" class=""/></g><g><g><g><path d="m337.137 262h-52.064l-28.413-7.631-29.733 7.631h-52.065v-121.731l81.138-59.401 81.137 59.401z" fill="#ffffff" data-original="#ffffff" style="" class=""/></g></g><g><g><path d="m256 80.868v.01 173.664l.66-.173 28.413 7.631h52.065v-121.731z" fill="#e9edf5" data-original="#e9edf5" style=""/></g></g><g><g><path d="m345.362 169.335-89.362-70.107-89.362 70.107-17.832-22.73 107.194-84.097 107.194 84.097z" fill="#636978" data-original="#636978" style=""/></g></g><g><g><path d="m256 99.228 89.362 70.107 17.832-22.73-107.194-84.097z" fill="#414952" data-original="#414952" style=""/></g></g><g><g><path d="m226.927 188.794h58.146v73.206h-58.146z" fill="#636978" data-original="#636978" style=""/></g></g><g><g><path d="m256 188.794h29.073v73.206h-29.073z" fill="#414952" data-original="#414952" style=""/></g></g></g></g></g></svg>
