<?xml version="1.0"?>
<svg xmlns="http://www.w3.org/2000/svg" xmlns:xlink="http://www.w3.org/1999/xlink" xmlns:svgjs="http://svgjs.com/svgjs" version="1.1" width="512" height="512" x="0" y="0" viewBox="0 0 512 512" style="enable-background:new 0 0 512 512" xml:space="preserve" class=""><g><g xmlns="http://www.w3.org/2000/svg"><g id="XMLID_562_"><g id="XMLID_563_"><g id="XMLID_564_"><g id="XMLID_565_"><g id="XMLID_566_"><g id="XMLID_567_"><g id="XMLID_569_"><g id="XMLID_570_"><g id="XMLID_571_"><g id="XMLID_572_"><g id="XMLID_576_"><g id="XMLID_577_"><g id="XMLID_578_"><g id="XMLID_579_"><path id="XMLID_580_" d="m0 256c0-141.385 114.615-256 256-256s256 114.615 256 256c0 67.727-26.3 129.311-69.245 175.097-46.705 49.795-113.097 18.903-186.755 18.903-73.519 0-139.8 31.009-186.491-18.622-43.101-45.814-69.509-107.512-69.509-175.378z" fill="#f1f1f1" data-original="#ff405c" style="" class=""/></g></g></g></g></g></g></g></g></g></g></g></g></g></g><path d="m256 450c73.658 0 140.05 30.892 186.755-18.903 42.945-45.786 69.245-107.37 69.245-175.097 0-8.486-.424-16.873-1.231-25.147l-152.266-152.267s-12.945-10.089-28.427-15.745l-14.251-14.176-175.413 174.677 26.498 26.747c3.575 21.313 23.596 48.772 23.596 48.772l25.536 25.596 11.261 32.989-157.753 73.974c46.689 49.57 112.952 18.58 186.45 18.58z" fill="#f1f1f1" data-original="#d01273" style="" class=""/><g><g><g><path id="XMLID_964_" d="m442.62 416.364v14.606c-46.71 49.87-113.15 81.03-186.87 81.03-73.46 0-139.69-30.94-186.37-80.5v-33.173c0-33.842 27.435-61.277 61.277-61.277h232.649c43.804 0 79.314 35.51 79.314 79.314z" fill="#ffffff" data-original="#ffffff" style="" class=""/><path id="XMLID_1060_" d="m442.62 395.942v35.028c-46.39 49.53-112.25 80.61-185.37 81.02v-174.94h126.478c32.525 0 58.892 26.367 58.892 58.892z" fill="#d1fefb" data-original="#d1fefb" style="" class=""/><g id="XMLID_2506_"><path id="XMLID_2508_" d="m307.581 277.258v59.792l-50.331 102.95-50.343-102.95v-59.792z" fill="#ffc473" data-original="#ffc473" style=""/><path id="XMLID_2507_" d="m307.575 277.258v59.792l-50.325 102.95v-162.742z" fill="#ffb74f" data-original="#ffb74f" style="" class=""/></g><path id="XMLID_2444_" d="m365.94 161.221c-4.538-66.807-61.513-104.724-108.696-104.724s-104.157 37.917-108.696 104.724c-12.209 2.287-20.874 13.698-19.515 26.244l2.102 19.412c1.426 13.17 13.368 22.778 26.538 21.352l2.268-.246c26.959 70.175 70.465 88.242 97.303 92.347 26.838-4.104 70.344-22.172 97.303-92.347l2.268.246c13.17 1.426 25.112-8.182 26.538-21.352l2.102-19.412c1.359-12.547-7.306-23.957-19.515-26.244z" fill="#ffdba9" data-original="#ffdba9" style="" class=""/><path id="XMLID_2443_" d="m385.453 187.462-2.095 19.419c-1.432 13.167-13.377 22.772-26.544 21.352l-2.27-.245c-26.951 70.167-70.458 88.235-97.293 92.345v-263.833c47.174 0 104.15 37.918 108.69 104.72 12.212 2.283 20.874 13.704 19.512 26.242z" fill="#ffc473" data-original="#ffc473" style=""/><g><path d="m257.344 171.985h30v64.462h-30z" fill="#ffb74f" data-original="#ffb74f" style="" class=""/></g><path d="m257.25 46.358c-176.561 0-107.282 147.975-107.282 147.975h20.178l15.379-70.765c28.913 18.833 71.725 17.965 71.725 17.965s42.813.868 71.725-17.965l15.379 70.765h20.178c.001 0 69.279-147.975-107.282-147.975z" fill="#b38a65" data-original="#b38a65" style=""/><path d="m364.53 194.33h-20.18l-13.33-61.35-1.97-9.09-.07-.32c-.17.11-.33.21-.5.32-28.91 18.5-71.23 17.64-71.23 17.64s-.44.01-1.25.01v-95.17c.42-.01.83-.01 1.25-.01 26.63 0 47.67 3.36 64.19 9.08 20.87 7.22 34.55 18.19 43.2 30.86 7.94 11.62 11.66 24.68 12.85 37.59 3.27 35.77-12.96 70.44-12.96 70.44z" fill="#a3734b" data-original="#a3734b" style=""/><path d="m377.491 123.889h-240.481c-1.367-13.469 3.07-26.882 12.201-36.878l.649-.71h214.787l1.741 1.883c8.891 9.621 12.971 22.738 11.103 35.705z" fill="#efefef" data-original="#efefef" style=""/><path d="m377.49 123.89h-121.49v-37.59h108.65l1.74 1.88c8.89 9.62 12.97 22.74 11.1 35.71z" fill="#e1e1e3" data-original="#e1e1e3" style="" class=""/><circle cx="257.25" cy="102.721" fill="#ffffff" r="79.721" data-original="#ffffff" style="" class=""/><path d="m336.97 102.72c0 7.33-.99 14.43-2.84 21.17-.85 3.11-1.89 6.15-3.11 9.09-11.91 29.02-40.45 49.46-73.77 49.46-.42 0-.83 0-1.25-.02v-159.4c.42-.02.83-.02 1.25-.02 26.33 0 49.68 12.76 64.19 32.44 6.66 9.02 11.46 19.5 13.83 30.86 1.12 5.3 1.7 10.79 1.7 16.42z" fill="#d1fefb" data-original="#d1fefb" style="" class=""/><circle cx="257.25" cy="102.721" fill="#e1e1e3" r="35.428" data-original="#e1e1e3" style="" class=""/><path d="m292.68 102.72c0 7.93-2.61 15.26-7.02 21.17-6.45 8.66-16.78 14.26-28.41 14.26-.42 0-.83-.01-1.25-.02v-70.82c.42-.01.83-.02 1.25-.02 13.64 0 25.48 7.71 31.41 19.01 2.57 4.91 4.02 10.5 4.02 16.42z" fill="#d3d3d3" data-original="#d3d3d3" style="" class=""/></g><path d="m206.907 337.05-44.657 16.617 32 92.666 24-6.333 39 62v-77.475z" fill="#efefef" data-original="#efefef" style=""/><path d="m307.581 337.05 44.687 16.599-32 92.667-24-6.334-39 62v-77.475z" fill="#e1e1e3" data-original="#e1e1e3" style="" class=""/></g><path d="m257.901 325h-1.315c-53.376 0-96.646-43.27-96.646-96.646v-.371h194.606v.371c.001 53.376-43.269 96.646-96.645 96.646z" fill="#8ff2be" data-original="#8ff2be" style=""/><path d="m354.55 227.98v.37c0 53.38-43.27 96.65-96.65 96.65h-1.31c-.2 0-.4 0-.59-.01v-97.01z" fill="#8ee26b" data-original="#8ee26b" style="" class=""/></g></g></g></svg>
