<?xml version="1.0" encoding="utf-8"?>
<svg version="1.1" id="Layer_1" xmlns="http://www.w3.org/2000/svg" xmlns:xlink="http://www.w3.org/1999/xlink" x="0px" y="0px"
	width="100px" height="100px" viewBox="0 0 501.73 549.63" style="enable-background:new 0 0 501.73 549.63;" xml:space="preserve">
<g>
	<g>
		<g>
			<defs>
				<path id="SVGID_5_" d="M280.93,549.6C132.13,552,4.93,432,0.13,283.2c-4.8-156,120-283.2,276-283.2
					c88.8,0,172.8,43.2,225.6,117.6l-60,40.8c-38.4-55.2-100.8-86.4-165.6-86.4c-117.6,0-208.8,98.4-204,213.6
					c4.8,108,93.6,192,199.2,194.4c52.8,0,103.2-16.8,139.2-52.8c7.2-4.8,16.8-4.8,24,0l26.4,26.4c7.2,7.2,7.2,19.2,0,24
					C408.13,523.2,345.73,547.2,280.93,549.6L280.93,549.6z"/>
			</defs>
			<clipPath id="SVGID_1_">
				<use xlink:href="#SVGID_5_"  style="overflow:visible;"/>
			</clipPath>
			<g style="clip-path:url(#SVGID_1_);">
				
					
			</g>
		</g>
	</g>
	<g>
		<g>
			<defs>
				<path id="SVGID_7_" d="M273.73,468c-108,0-192-86.4-192-192c0-108,86.4-192,192-192c48,0,93.6,16.8,124.8,48
					c7.2,7.2,7.2,19.2,0,26.4l-28.8,26.4c-7.2,4.8-16.8,7.2-21.6,0c-21.6-16.8-48-26.4-76.8-28.8c-62.4,0-117.6,48-120,110.4
					c-4.8,72,50.4,129.6,117.6,129.6c38.4,0,74.4-16.8,98.4-48l57.6,43.2C391.33,439.2,333.73,468,273.73,468L273.73,468z"/>
			</defs>
			<clipPath id="SVGID_2_">
				<use xlink:href="#SVGID_7_"  style="overflow:visible;"/>
			</clipPath>
			<g style="clip-path:url(#SVGID_2_);">
				
					
			</g>
		</g>
	</g>
</g>
</svg>
