<?xml version="1.0"?>
<svg xmlns="http://www.w3.org/2000/svg" xmlns:xlink="http://www.w3.org/1999/xlink" xmlns:svgjs="http://svgjs.com/svgjs" version="1.1" width="512" height="512" x="0" y="0" viewBox="0 0 512 512" style="enable-background:new 0 0 512 512" xml:space="preserve" class=""><g><g xmlns="http://www.w3.org/2000/svg"><g><g><g id="XMLID_1375_"><g id="XMLID_1376_"><g id="XMLID_1377_"><g id="XMLID_1378_"><g id="XMLID_1379_"><g id="XMLID_1389_"><g id="XMLID_1390_"><g id="XMLID_1391_"><g id="XMLID_1424_"><g id="XMLID_1425_"><g id="XMLID_1426_"><g id="XMLID_1492_"><g id="XMLID_1493_"><g id="XMLID_1494_"><g id="XMLID_1495_"><circle cx="256" cy="256" fill="#f1f1f1" r="256" data-original="#494949" style="" class=""/></g></g></g></g></g></g></g></g></g></g></g></g></g></g></g></g></g><path d="m512 256c0-9.523-.537-18.92-1.55-28.173l-108.8-108.8-282.513 282.733 108.69 108.69c9.253 1.013 18.65 1.55 28.173 1.55 141.385 0 256-114.615 256-256z" fill="#f1f1f1" data-original="#232323" style="" class=""/><g><circle cx="256" cy="256" fill="#f1f4f6" r="166.057" data-original="#f1f4f6" style="" class=""/><path d="m422.06 256c0 91.71-74.35 166.06-166.06 166.06v-332.12c91.71 0 166.06 74.35 166.06 166.06z" fill="#cedfe2" data-original="#cedfe2" style="" class=""/><g><path d="m306.321 196.624c-35.373-9.945-50.322 21.486-50.322 21.486s-14.949-31.431-50.322-21.486c-16.101 4.527-31.143 27.162-22.457 57.559 6.388 22.353 35.116 53.247 72.779 71.14 37.662-17.893 66.391-48.787 72.779-71.14 8.686-30.397-6.356-53.032-22.457-57.559z" fill="#ff4d05" data-original="#ff4d05" style="" class=""/><path d="m328.779 254.183c-6.39 22.349-35.12 53.243-72.78 71.139v-107.215s14.95-31.425 50.32-21.487c16.1 4.529 31.15 27.162 22.46 57.563z" fill="#c30047" data-original="#c30047" style="" class=""/></g><g><g><g fill="#ff4d05"><path d="m256 55.95c-48.16 0-92.4 17.1-126.96 45.56-16.882 13.899 25.909 40.826 30.5 37.05 26.26-21.62 59.87-34.61 96.46-34.61 3.193 0 13.94-24.219 17.084-24.024 0 0-13.896-23.976-17.084-23.976z" fill="#ff4d05" data-original="#ff4d05" style="" class=""/><path d="m103.95 256c0-10.108-48-10.038-48 0 0 48.16 17.1 92.4 45.56 126.96 15.116 18.36 42.253-24.174 37.05-30.5-21.62-26.26-34.61-59.87-34.61-96.46z" fill="#ff4d05" data-original="#ff4d05" style="" class=""/></g></g></g><g><g><g fill="#c30047"><path d="m408.05 256c0 11.367 48 11.276 48 0 0-48.16-17.1-92.4-45.56-126.96-19.098-23.197-43.702-13.068-43.702-13.068s-6.741 27.292 6.652 43.568c21.614 26.265 34.61 59.87 34.61 96.46z" fill="#c30047" data-original="#c30047" style="" class=""/><path d="m352.46 373.44c-26.26 21.62-59.87 34.61-96.46 34.61v48c48.16 0 92.4-17.1 126.96-45.56 22.19-18.269-19.842-45.817-30.5-37.05z" fill="#c30047" data-original="#c30047" style="" class=""/></g></g></g><g><path d="m410.49 129.04-37.05 30.5c-27.9-33.92-70.19-55.59-117.44-55.59v-48c62.15 0 117.77 28.49 154.49 73.09z" fill="#f1f4f6" data-original="#f1f4f6" style="" class=""/><path d="m256 408.05v48c-62.15 0-117.77-28.49-154.49-73.09l37.05-30.5c27.9 33.92 70.19 55.59 117.44 55.59z" fill="#ffffff" data-original="#ffffff" style="" class=""/></g><g><path d="m456.05 256c0 62.15-28.49 117.77-73.09 154.49l-30.5-37.05c33.92-27.9 55.59-70.19 55.59-117.44z" fill="#f1f4f6" data-original="#f1f4f6" style="" class=""/><path d="m159.54 138.56c-33.92 27.9-55.59 70.19-55.59 117.44h-48c0-62.15 28.49-117.77 73.09-154.49z" fill="#ffffff" data-original="#ffffff" style="" class=""/></g></g></g></g></svg>
