<?xml version="1.0" encoding="utf-8"?>
<svg version="1.1" id="Layer_1" xmlns="http://www.w3.org/2000/svg" xmlns:xlink="http://www.w3.org/1999/xlink" x="0px" y="0px"
	width="100px" height="100px" viewBox="0 0 100 100" style="enable-background:new 0 0 100 100;" xml:space="preserve">
<g>
	<path style="fill:#E8E8E8;" d="M50,0c27.6,0,50,22.4,50,50s-22.4,50-50,50S0,77.6,0,50S22.4,0,50,0"/>
	<path style="fill:#FFFFFF;" d="M50,1c27.1,0,49,21.9,49,49S77.1,99,50,99S1,77.1,1,50S22.9,1,50,1"/>
	<g>
		<rect x="12.4" y="42.7" style="fill:#00788A;" width="75.2" height="14.7"/>
		<path style="fill:#FFFFFF;" d="M16.1,46.9c0-0.5,0-1-0.1-1.4c0.1,0,0.3,0,0.4,0c0.2,0,0.3,0,0.5,0c0.3,0,0.6,0,0.9,0
			c0.3,0,0.6,0,0.9,0c0.4,0,0.9,0,1.3,0.1c0.3,0.1,0.5,0.2,0.8,0.3c0.2,0.2,0.4,0.4,0.6,0.6c0.1,0.3,0.2,0.6,0.2,0.9
			c0,0.4-0.1,0.7-0.2,1.1c-0.1,0.3-0.4,0.6-0.6,0.7c-0.3,0.2-0.6,0.3-1,0.4c-0.4,0.1-0.8,0.1-1.2,0.1h-0.6c0,0.6,0,1.1,0,1.7
			c0,0.5,0,1.1,0.1,1.6c-0.1,0-0.3,0-0.4,0h-1.1c-0.1,0-0.3,0-0.4,0c0-0.5,0.1-0.9,0.1-1.4c0-0.5,0-1,0-1.6v-1.5
			C16.1,48,16.1,47.4,16.1,46.9z M19.6,46.9c-0.1-0.2-0.2-0.3-0.3-0.5c-0.1-0.1-0.3-0.2-0.4-0.3c-0.2-0.1-0.3-0.1-0.5-0.1h-0.4
			c0,0-0.1,0-0.1,0c0,0.5,0,1.1,0,1.6c0,0.5,0,1,0,1.5c0.2,0,0.4,0,0.6-0.1c0.2,0,0.4-0.1,0.6-0.2c0.2-0.1,0.3-0.3,0.4-0.5
			c0.1-0.3,0.2-0.6,0.2-0.9C19.7,47.4,19.7,47.1,19.6,46.9L19.6,46.9z"/>
		<path style="fill:#FFFFFF;" d="M22,49.3c0.1-0.4,0.4-0.7,0.7-0.9c0.3-0.2,0.6-0.4,0.9-0.6c0.4-0.1,0.7-0.2,1.1-0.2
			c0.8-0.1,1.6,0.2,2.2,0.7c0.5,0.5,0.8,1.2,0.8,2c0,0.4-0.1,0.8-0.2,1.2c-0.1,0.3-0.3,0.7-0.6,0.9c-0.3,0.3-0.6,0.5-0.9,0.6
			c-0.4,0.1-0.8,0.2-1.2,0.2c-0.4,0-0.7,0-1.1-0.1c-0.3-0.1-0.7-0.2-0.9-0.4c-0.3-0.2-0.5-0.5-0.7-0.8c-0.2-0.4-0.3-0.8-0.3-1.3
			C21.7,50.2,21.8,49.7,22,49.3z M25.5,48.7c-0.2-0.3-0.5-0.6-0.9-0.5c-0.4,0-0.7,0.2-0.9,0.6c-0.2,0.6-0.4,1.2-0.3,1.9
			c0,0.3,0,0.6,0.1,0.9c0,0.2,0.1,0.5,0.2,0.7c0.1,0.2,0.2,0.3,0.4,0.5c0.2,0.1,0.4,0.2,0.6,0.2c0.8,0,1.2-0.9,1.2-2.6
			C25.8,49.7,25.7,49.2,25.5,48.7z"/>
		<path style="fill:#FFFFFF;" d="M32.3,52.3c-0.2,0.3-0.5,0.5-0.8,0.7c-0.3,0.2-0.7,0.2-1,0.2c-0.5,0-1-0.1-1.4-0.5
			c-0.4-0.4-0.5-1-0.5-1.5c0-0.4,0-0.7,0-1c0-0.3,0-0.6,0-0.9c0-0.2,0-0.5,0-0.8c0-0.3,0-0.6,0-0.8c0.1,0,0.2,0,0.4,0s0.3,0,0.5,0
			s0.3,0,0.5,0s0.3,0,0.4,0c-0.1,0.5-0.1,0.9-0.1,1.4c0,0.5,0,1.1,0,1.8c0,0.4,0.1,0.7,0.3,1c0.2,0.2,0.4,0.3,0.7,0.3
			c0.3,0,0.6-0.1,0.8-0.4c0.2-0.4,0.3-0.8,0.3-1.2v-0.4c0-0.4,0-0.9,0-1.3c0-0.4,0-0.8-0.1-1.2c0.3,0,0.6,0.1,0.9,0.1
			c0.2,0,0.3,0,0.5,0c0.2,0,0.3,0,0.4,0c0,0.4-0.1,0.8-0.1,1.2c0,0.4,0,0.8,0,1.3v0.4c0,0.4,0,0.9,0,1.3c0,0.4,0,0.8,0.1,1.2
			c-0.1,0-0.3,0-0.4,0h-0.8c-0.1,0-0.3,0-0.4,0L32.3,52.3L32.3,52.3L32.3,52.3z"/>
		<path style="fill:#FFFFFF;" d="M37,48.6c0.2-0.3,0.5-0.5,0.8-0.7c0.3-0.2,0.7-0.3,1-0.3c0.5,0,1,0.1,1.4,0.5
			c0.4,0.4,0.5,1,0.5,1.6c0,0.4,0,0.7,0,1c0,0.3,0,0.6,0,0.9c0,0.2,0,0.5,0,0.8s0,0.5,0,0.8c-0.1,0-0.3,0-0.4,0h-1
			c-0.1,0-0.3,0-0.4,0c0.1-0.4,0.1-0.9,0.1-1.4c0-0.5,0-1.1,0-1.8c0-0.4-0.1-0.7-0.3-1c-0.2-0.2-0.4-0.3-0.7-0.3
			c-0.3,0-0.6,0.1-0.8,0.4c-0.2,0.4-0.3,0.8-0.3,1.2v0.4c0,0.4,0,0.9,0,1.3c0,0.4,0,0.8,0.1,1.2c-0.1,0-0.3,0-0.4,0h-1
			c-0.1,0-0.3,0-0.4,0c0-0.4,0.1-0.8,0.1-1.2c0-0.4,0-0.8,0-1.3v-0.4c0-0.4,0-0.9,0-1.3c0-0.4,0-0.8-0.1-1.2c0.1,0,0.3,0,0.4,0
			c0.1,0,0.3,0,0.4,0c0.1,0,0.3,0,0.4,0c0.1,0,0.3,0,0.4,0L37,48.6L37,48.6L37,48.6z"/>
		<path style="fill:#FFFFFF;" d="M47.2,51.3c0,0.6,0,1.2,0.1,1.8c-0.1,0-0.3,0-0.4,0h-1c-0.1,0-0.2,0-0.3,0c0,0,0-0.1,0-0.1
			c0-0.1,0-0.2,0-0.3c0-0.1,0-0.2,0-0.3c0-0.1,0-0.1,0-0.2l0,0c-0.1,0.3-0.3,0.6-0.6,0.8c-0.3,0.2-0.7,0.3-1.1,0.3
			c-0.4,0-0.7-0.1-1-0.2c-0.3-0.1-0.5-0.3-0.7-0.6c-0.2-0.3-0.3-0.6-0.4-0.9c-0.1-0.4-0.1-0.7-0.1-1.1c0-0.4,0.1-0.7,0.2-1.1
			c0.1-0.3,0.3-0.6,0.5-0.9c0.2-0.2,0.5-0.4,0.7-0.6c0.3-0.1,0.6-0.2,0.9-0.2c0.3,0,0.7,0.1,1,0.2c0.3,0.1,0.5,0.3,0.6,0.6h0
			c0-0.7,0-1.3,0-1.9c0-0.6,0-1.2-0.1-1.8c0.1,0,0.2,0,0.4,0s0.3,0,0.5,0c0.2,0,0.3,0,0.5,0s0.3,0,0.4,0c0,0.6-0.1,1.2-0.1,1.8
			c0,0.6,0,1.3,0,2v0.7C47.2,50,47.2,50.7,47.2,51.3z M43.5,51.5c0,0.2,0.1,0.4,0.2,0.6c0.1,0.1,0.2,0.3,0.3,0.3
			c0.1,0.1,0.3,0.1,0.4,0.1c0.3,0,0.7-0.2,0.8-0.5c0.3-0.5,0.4-1.1,0.3-1.7c0-0.5-0.1-1-0.3-1.5c-0.2-0.3-0.4-0.5-0.8-0.5
			c-0.1,0-0.3,0-0.4,0.1c-0.1,0.1-0.3,0.2-0.3,0.3c-0.1,0.2-0.2,0.4-0.3,0.7c-0.1,0.3-0.1,0.7-0.1,1.1
			C43.5,50.9,43.5,51.2,43.5,51.5z"/>
		<path style="fill:#FFFFFF;" d="M48.8,46.6c0-0.6,0-1.2-0.1-1.8c0.1,0,0.2,0,0.4,0c0.2,0,0.3,0,0.5,0c0.2,0,0.3,0,0.5,0
			s0.3,0,0.4,0c0,0.6-0.1,1.2-0.1,1.8s0,1.3,0,2v0.7c0,0.7,0,1.4,0,2c0,0.6,0,1.2,0.1,1.8c-0.1,0-0.3,0-0.4,0h-1c-0.1,0-0.3,0-0.4,0
			c0-0.6,0.1-1.2,0.1-1.8c0-0.6,0-1.3,0-2v-0.7C48.8,47.9,48.8,47.2,48.8,46.6z"/>
		<path style="fill:#FFFFFF;" d="M53.1,47.8c0.4-0.1,0.8-0.2,1.2-0.2c0.3,0,0.6,0,0.9,0.1c0.2,0.1,0.5,0.2,0.7,0.3
			c0.2,0.1,0.4,0.3,0.5,0.6c0.1,0.3,0.2,0.5,0.2,0.8c0,0.5,0,0.9,0,1.3c0,0.4,0,0.8,0,1.2c0,0.1,0,0.3,0,0.4c0,0.1,0.1,0.2,0.1,0.2
			c0.1,0.1,0.1,0.1,0.2,0.1c0.1,0,0.2,0,0.3,0V53c-0.2,0.1-0.4,0.2-0.6,0.2c-0.2,0-0.3,0.1-0.5,0.1c-0.3,0-0.5-0.1-0.7-0.2
			c-0.2-0.1-0.3-0.3-0.4-0.6c-0.2,0.2-0.4,0.4-0.6,0.6c-0.3,0.1-0.6,0.2-0.9,0.2c-0.3,0-0.5,0-0.8-0.1c-0.2-0.1-0.4-0.2-0.5-0.3
			c-0.1-0.1-0.2-0.3-0.3-0.5c-0.1-0.2-0.1-0.3-0.1-0.5c0-0.2,0-0.4,0.1-0.6c0.1-0.2,0.2-0.3,0.4-0.5c0.2-0.1,0.4-0.2,0.6-0.3
			c0.2-0.1,0.5-0.2,0.7-0.2c0.3-0.1,0.6-0.1,0.8-0.2c0.2,0,0.3-0.1,0.4-0.2c0.1,0,0.1-0.1,0.2-0.2c0-0.1,0-0.2,0-0.2
			c0-0.3-0.1-0.5-0.3-0.7c-0.2-0.2-0.5-0.3-0.8-0.3c-0.1,0-0.3,0-0.4,0c-0.1,0-0.3,0.1-0.4,0.1c-0.1,0.1-0.2,0.1-0.4,0.2
			c-0.1,0.1-0.2,0.1-0.2,0.2h-0.1L52,48.4C52.3,48.2,52.7,48,53.1,47.8z M54.8,50.7c0-0.2,0-0.3,0-0.4c-0.2,0.1-0.3,0.2-0.5,0.2
			c-0.2,0.1-0.4,0.1-0.5,0.2c-0.2,0.1-0.3,0.2-0.4,0.3c-0.1,0.2-0.2,0.4-0.1,0.6c0,0.2,0.1,0.4,0.2,0.6c0.1,0.1,0.3,0.2,0.5,0.2
			c0.2,0,0.5-0.1,0.6-0.3c0.2-0.2,0.3-0.5,0.2-0.8C54.8,51.1,54.8,50.9,54.8,50.7z"/>
		<path style="fill:#FFFFFF;" d="M59.6,48.6c0.2-0.3,0.5-0.5,0.8-0.7c0.3-0.2,0.7-0.3,1-0.3c0.5,0,1,0.1,1.4,0.5
			c0.4,0.4,0.5,1,0.5,1.6c0,0.4,0,0.7,0,1s0,0.6,0,0.9c0,0.2,0,0.5,0,0.8c0,0.3,0,0.5,0,0.8c-0.1,0-0.3,0-0.4,0h-1
			c-0.1,0-0.3,0-0.4,0c0.1-0.4,0.1-0.9,0.1-1.4c0-0.5,0-1.1,0-1.8c0-0.4-0.1-0.7-0.3-1c-0.2-0.2-0.4-0.3-0.7-0.3
			c-0.3,0-0.6,0.1-0.8,0.4c-0.2,0.4-0.3,0.8-0.3,1.2v0.4c0,0.4,0,0.9,0,1.3c0,0.4,0,0.8,0.1,1.2c-0.1,0-0.3,0-0.4,0h-1
			c-0.1,0-0.3,0-0.4,0c0-0.4,0.1-0.8,0.1-1.2c0-0.4,0-0.8,0-1.3v-0.4c0-0.4,0-0.9,0-1.3c0-0.4,0-0.8-0.1-1.2c0.1,0,0.3,0,0.4,0
			c0.1,0,0.3,0,0.4,0c0.1,0,0.3,0,0.4,0s0.3,0,0.4,0L59.6,48.6L59.6,48.6L59.6,48.6z"/>
		<path style="fill:#FFFFFF;" d="M69.9,51.3c0,0.6,0,1.2,0.1,1.8c-0.1,0-0.3,0-0.4,0h-1c-0.1,0-0.2,0-0.3,0c0,0,0-0.1,0-0.1
			c0-0.1,0-0.2,0-0.3c0-0.1,0-0.2,0-0.3c0-0.1,0-0.1,0-0.2l0,0c-0.1,0.3-0.3,0.6-0.6,0.8c-0.3,0.2-0.7,0.3-1.1,0.3
			c-0.4,0-0.7-0.1-1-0.2c-0.3-0.1-0.5-0.3-0.7-0.6c-0.2-0.3-0.3-0.6-0.4-0.9c-0.1-0.4-0.1-0.7-0.1-1.1c0-0.4,0.1-0.7,0.2-1.1
			c0.1-0.3,0.3-0.6,0.5-0.9c0.2-0.2,0.5-0.4,0.7-0.6c0.3-0.1,0.6-0.2,0.9-0.2c0.3,0,0.7,0.1,1,0.2c0.3,0.1,0.5,0.3,0.6,0.6h0
			c0-0.7,0-1.3,0-1.9c0-0.6,0-1.2-0.1-1.8c0.1,0,0.2,0,0.4,0c0.2,0,0.3,0,0.5,0c0.2,0,0.3,0,0.5,0s0.3,0,0.4,0
			c0,0.6-0.1,1.2-0.1,1.8c0,0.6,0,1.3,0,2v0.7C69.9,50,69.9,50.7,69.9,51.3z M66.2,51.5c0,0.2,0.1,0.4,0.2,0.6
			c0.1,0.1,0.2,0.3,0.3,0.3c0.1,0.1,0.3,0.1,0.4,0.1c0.3,0,0.7-0.2,0.8-0.5c0.3-0.5,0.4-1.1,0.3-1.7c0-0.5-0.1-1-0.3-1.5
			c-0.2-0.3-0.4-0.5-0.8-0.5c-0.1,0-0.3,0-0.4,0.1c-0.1,0.1-0.3,0.2-0.3,0.3c-0.1,0.2-0.2,0.4-0.3,0.7c-0.1,0.3-0.1,0.7-0.1,1.1
			C66.1,50.9,66.1,51.2,66.2,51.5z"/>
		<path style="fill:#FFFFFF;" d="M72.7,47.5c-0.6,0-1.2-0.5-1.2-1.2s0.5-1.2,1.2-1.2c0.6,0,1.2,0.5,1.2,1.2c0,0,0,0,0,0
			C73.8,47,73.3,47.5,72.7,47.5L72.7,47.5z M72.7,45.4c-0.5,0-1,0.4-1,1c0,0.5,0.4,1,1,1c0.5,0,1-0.4,1-1c0,0,0,0,0,0
			C73.6,45.8,73.2,45.4,72.7,45.4L72.7,45.4z"/>
		<path style="fill:#FFFFFF;" d="M72.1,45.7h0.6c0.1,0,0.2,0,0.2,0c0.1,0,0.2,0.2,0.2,0.3c0,0.1,0,0.1,0,0.2c0,0-0.1,0.1-0.1,0.1
			c0,0,0.1,0,0.1,0.1c0,0,0,0.1,0,0.2l0,0.2c0,0,0,0.1,0,0.1c0,0,0,0.1,0.1,0.1v0H73c0,0,0,0,0,0c0,0,0-0.1,0-0.1l0-0.2
			c0-0.1,0-0.1-0.1-0.2c0,0-0.1,0-0.2,0h-0.4V47h-0.2C72.1,47,72.1,45.7,72.1,45.7z M72.7,46.3c0.1,0,0.1,0,0.2,0
			c0.1,0,0.1-0.1,0.1-0.2c0-0.1,0-0.1-0.1-0.2c0,0-0.1,0-0.1,0h-0.4v0.4H72.7L72.7,46.3z"/>
		<path style="fill:#F7B800;" d="M79.1,44.5c-0.7,0.1-1.2,0.7-1.2,1.4C78.7,45.8,79.2,45.2,79.1,44.5z"/>
		<path style="fill:#F7B800;" d="M79.3,45.7c0.7,0.1,1.3-0.4,1.5-1.1C80.1,44.6,79.5,45.1,79.3,45.7"/>
		<path style="fill:#F7B800;" d="M83,46.6c0.4,0.6,1.2,0.7,1.8,0.4C84.3,46.4,83.6,46.2,83,46.6"/>
		<path style="fill:#F7B800;" d="M83.7,47.7c0,0.7,0.6,1.3,1.3,1.2C84.9,48.2,84.3,47.7,83.7,47.7"/>
		<path style="fill:#F7B800;" d="M83.9,49.2c-0.5,0.5-0.5,1.3,0,1.8C84.3,50.5,84.3,49.7,83.9,49.2"/>
		<path style="fill:#F7B800;" d="M82.9,50.8c-0.7,0.2-1.1,0.9-0.9,1.5C82.6,52.1,83,51.4,82.9,50.8"/>
		<path style="fill:#F7B800;" d="M81.1,52c-0.7,0-1.3,0.5-1.3,1.2C80.5,53.3,81,52.7,81.1,52"/>
		<path style="fill:#F7B800;" d="M82.8,44.6c0.1,0.7,0.7,1.2,1.4,1.1C84.1,45.1,83.5,44.6,82.8,44.6"/>
		<path style="fill:#F7B800;" d="M84.8,44.5c-0.4,0.6-0.3,1.4,0.2,1.8C85.4,45.7,85.3,45,84.8,44.5"/>
		<path style="fill:#F7B800;" d="M86.1,45.8c-0.6,0.3-0.9,1-0.7,1.7C86,47.2,86.3,46.5,86.1,45.8"/>
		<path style="fill:#F7B800;" d="M86.1,47.6c-0.7,0.2-1.1,0.9-0.9,1.5C85.8,48.9,86.2,48.2,86.1,47.6"/>
		<path style="fill:#F7B800;" d="M85.9,49.3c-0.7,0-1.3,0.6-1.3,1.3C85.3,50.6,85.9,50,85.9,49.3"/>
		<path style="fill:#F7B800;" d="M85,51c-0.7-0.1-1.4,0.3-1.5,1C84.2,52.1,84.8,51.7,85,51"/>
		<path style="fill:#F7B800;" d="M83.7,52.6c-0.6-0.3-1.4-0.1-1.8,0.5C82.6,53.4,83.4,53.2,83.7,52.6"/>
		<path style="fill:#F7B800;" d="M82,53.7c-0.5-0.5-1.3-0.5-1.8,0C80.7,54.2,81.5,54.2,82,53.7"/>
		<path style="fill:#F7B800;" d="M77.6,45.9c-0.7,0.2-1.1,0.8-1,1.5C77.2,47.3,77.7,46.6,77.6,45.9z"/>
		<path style="fill:#F7B800;" d="M77.7,47.1c0.7,0.2,1.4-0.1,1.6-0.8C78.7,46.1,78,46.5,77.7,47.1"/>
		<path style="fill:#F7B800;" d="M75.9,47.3c-0.5,0.4-0.7,1.2-0.3,1.8C76.2,48.7,76.3,47.9,75.9,47.3z"/>
		<path style="fill:#F7B800;" d="M76.4,48.9c0.7,0.1,1.3-0.4,1.4-1.1C77.1,47.7,76.5,48.2,76.4,48.9"/>
		<path style="fill:#F7B800;" d="M74.9,49.1c-0.2,0.7,0,1.4,0.7,1.7C75.8,50.2,75.5,49.4,74.9,49.1z"/>
		<path style="fill:#F7B800;" d="M76.2,50.8c0.7-0.2,1.1-0.9,0.9-1.6C76.4,49.5,76,50.1,76.2,50.8"/>
		<path style="fill:#F7B800;" d="M74.6,50.9c0,0.7,0.6,1.2,1.3,1.3C75.8,51.5,75.3,50.9,74.6,50.9z"/>
		<path style="fill:#F7B800;" d="M76.6,52.4c0.6-0.3,0.9-1.1,0.6-1.7C76.6,51.1,76.4,51.8,76.6,52.4"/>
		<path style="fill:#F7B800;" d="M74.9,52.7c0.4,0.6,1.1,0.8,1.7,0.5C76.3,52.6,75.5,52.3,74.9,52.7z"/>
		<path style="fill:#F7B800;" d="M76.1,53.9c0.6,0.4,1.4,0.3,1.8-0.2C77.3,53.2,76.5,53.4,76.1,53.9z"/>
		<path style="fill:#F7B800;" d="M78.5,53.4c0.3-0.6,0.1-1.4-0.6-1.7C77.6,52.3,77.9,53.1,78.5,53.4"/>
	</g>
</g>
</svg>
