<?xml version="1.0" encoding="utf-8"?>
<svg version="1.1" id="Layer_1" xmlns="http://www.w3.org/2000/svg" xmlns:xlink="http://www.w3.org/1999/xlink" x="0px" y="0px"
	width="100px" height="100px" viewBox="0 0 100 100" style="enable-background:new 0 0 100 100;" xml:space="preserve">
<g>
	<path style="fill:#E8E8E8;" d="M50,0c27.61,0,50,22.39,50,50s-22.39,50-50,50S0,77.61,0,50S22.39,0,50,0"/>
	<path style="fill:#FFFFFF;" d="M50,1c27.06,0,49,21.94,49,49S77.06,99,50,99S1,77.06,1,50S22.94,1,50,1"/>
	<g>
		<g>
			<g>
				<g>
					<g>
						<path style="fill:#1C4CA0;" d="M19.21,69.36c-2.39-2.09-3-4.81-3-7.18c0-1.64,0.52-4.53,2.84-6.66
							c1.76-1.59,4.06-2.58,7.67-2.58c1.5,0,2.42,0.09,3.52,0.23c0.91,0.12,1.71,0.35,2.44,0.42c0.26,0.02,0.38,0.14,0.38,0.28
							c0,0.19-0.07,0.49-0.12,1.34c-0.05,0.8-0.02,2.13-0.07,2.63c-0.02,0.38-0.07,0.56-0.28,0.56c-0.19,0-0.23-0.19-0.23-0.54
							c-0.02-0.75-0.35-1.59-0.94-2.23c-0.8-0.84-2.7-1.5-4.92-1.5c-2.11,0-3.49,0.54-4.57,1.5c-1.78,1.62-2.23,3.94-2.23,6.28
							c0,5.79,4.41,8.65,7.64,8.65c2.16,0,3.47-0.23,4.46-1.36c0.42-0.47,0.73-1.17,0.82-1.59c0.07-0.4,0.12-0.49,0.3-0.49
							c0.16,0,0.21,0.16,0.21,0.38c0,0.28-0.28,2.42-0.54,3.24c-0.12,0.42-0.21,0.54-0.63,0.7c-0.96,0.4-2.81,0.56-4.38,0.56
							C24.23,72.01,21.44,71.26,19.21,69.36z"/>
						<path style="fill:#1C4CA0;" d="M36.61,60.28c0-3.82,0-4.53-0.05-5.32c-0.05-0.84-0.26-1.27-1.08-1.43
							c-0.21-0.05-0.63-0.07-0.98-0.07c-0.28,0-0.42-0.05-0.42-0.23s0.19-0.23,0.56-0.23c1.34,0,2.91,0.07,3.61,0.07
							c1.03,0,2.49-0.07,3.66-0.07c3.14,0,4.27,1.06,4.69,1.43c0.56,0.54,1.27,1.66,1.27,3c0,3.56-2.63,6.1-6.19,6.1
							c-0.12,0-0.4,0-0.54-0.02c-0.12-0.02-0.3-0.05-0.3-0.23c0-0.21,0.19-0.28,0.7-0.28c1.41,0,3.38-1.59,3.38-4.15
							c0-0.82-0.07-2.51-1.48-3.78c-0.91-0.82-1.95-0.98-2.51-0.98c-0.38,0-0.75,0.02-0.98,0.09c-0.12,0.05-0.21,0.21-0.21,0.47
							v10.06c0,2.32,0,4.29,0.12,5.39c0.07,0.7,0.23,1.27,0.98,1.36c0.35,0.05,0.91,0.09,1.29,0.09c0.28,0,0.4,0.07,0.4,0.21
							c0,0.16-0.21,0.26-0.47,0.26c-1.66,0-3.24-0.07-3.89-0.07c-0.59,0-2.16,0.07-3.17,0.07c-0.33,0-0.49-0.07-0.49-0.26
							c0-0.12,0.09-0.21,0.4-0.21c0.38,0,0.68-0.05,0.91-0.09c0.49-0.09,0.63-0.66,0.73-1.38c0.12-1.06,0.12-3.05,0.12-5.35v-4.43
							H36.61z"/>
						<path style="fill:#1C4CA0;" d="M52.93,67.06c-0.09,0-0.14,0.05-0.16,0.14l-1.03,2.72c-0.19,0.47-0.28,0.94-0.28,1.15
							c0,0.35,0.16,0.59,0.75,0.59h0.28c0.23,0,0.28,0.05,0.28,0.14c0,0.14-0.12,0.19-0.33,0.19c-0.61,0-1.43-0.05-2.02-0.05
							c-0.21,0-1.24,0.05-2.23,0.05c-0.23,0-0.35-0.05-0.35-0.19c0-0.12,0.07-0.14,0.23-0.14c0.16,0,0.45-0.02,0.59-0.05
							c0.87-0.12,1.24-0.75,1.62-1.71l4.76-11.91c0.23-0.54,0.35-0.75,0.54-0.75c0.16,0,0.28,0.16,0.47,0.61
							c0.45,1.03,3.49,8.79,4.71,11.65c0.73,1.71,1.27,1.97,1.66,2.06c0.28,0.05,0.56,0.07,0.8,0.07c0.14,0,0.26,0.02,0.26,0.14
							c0,0.14-0.16,0.19-0.87,0.19c-0.68,0-2.06,0-3.59-0.05c-0.35-0.02-0.56-0.02-0.56-0.14s0.07-0.14,0.26-0.16
							c0.14-0.05,0.26-0.21,0.16-0.45l-1.52-4.03c-0.05-0.09-0.09-0.14-0.19-0.14h-4.24V67.06z M56.8,66.1
							c0.09,0,0.12-0.05,0.09-0.12l-1.71-4.69c-0.02-0.07-0.05-0.16-0.09-0.16s-0.09,0.09-0.12,0.16l-1.74,4.67
							c-0.02,0.07,0,0.14,0.07,0.14H56.8z"/>
						<path style="fill:#1C4CA0;" d="M67.87,66.29c0,2.49,0,3.82,0.4,4.17c0.33,0.28,0.84,0.42,2.34,0.42
							c1.03,0,1.78-0.02,2.27-0.54c0.23-0.26,0.47-0.8,0.52-1.17c0.02-0.16,0.05-0.28,0.21-0.28c0.14,0,0.16,0.09,0.16,0.33
							c0,0.21-0.14,1.66-0.28,2.23c-0.12,0.42-0.21,0.52-1.22,0.52c-1.41,0-2.42-0.05-3.28-0.07c-0.87-0.05-1.57-0.05-2.37-0.05
							c-0.21,0-0.63,0-1.1,0.02c-0.45,0-0.96,0.05-1.34,0.05c-0.26,0-0.4-0.05-0.4-0.19c0-0.09,0.07-0.16,0.3-0.16
							c0.28,0,0.52-0.05,0.7-0.07c0.4-0.07,0.49-0.52,0.56-1.08c0.09-0.82,0.09-2.34,0.09-4.15v-3.42c0-2.95,0-3.49-0.05-4.13
							c-0.05-0.66-0.19-0.96-0.84-1.1c-0.16-0.05-0.4-0.05-0.63-0.05c-0.21,0-0.33-0.05-0.33-0.19s0.14-0.16,0.42-0.16
							c0.91,0,2.13,0.05,2.67,0.05c0.47,0,1.88-0.05,2.65-0.05c0.28,0,0.4,0.05,0.4,0.16c0,0.14-0.12,0.19-0.35,0.19
							c-0.21,0-0.52,0.02-0.75,0.05c-0.52,0.09-0.68,0.42-0.73,1.1c-0.05,0.63-0.05,1.17-0.05,4.13V66.29L67.87,66.29z"/>
						<path style="fill:#1C4CA0;" d="M77.88,66.29c0,2.49,0,3.82,0.4,4.17c0.33,0.28,0.84,0.42,2.34,0.42
							c1.03,0,1.78-0.02,2.27-0.54c0.23-0.26,0.47-0.8,0.52-1.17c0.02-0.16,0.05-0.28,0.21-0.28c0.14,0,0.16,0.09,0.16,0.33
							c0,0.21-0.14,1.66-0.28,2.23c-0.12,0.42-0.21,0.52-1.22,0.52c-1.41,0-2.42-0.05-3.28-0.07c-0.87-0.05-1.57-0.05-2.37-0.05
							c-0.21,0-0.63,0-1.1,0.02c-0.45,0-0.96,0.05-1.34,0.05c-0.26,0-0.4-0.05-0.4-0.19c0-0.09,0.07-0.16,0.3-0.16
							c0.28,0,0.52-0.05,0.7-0.07c0.4-0.07,0.49-0.52,0.56-1.08c0.09-0.82,0.09-2.34,0.09-4.15v-3.42c0-2.95,0-3.49-0.05-4.13
							c-0.05-0.66-0.19-0.96-0.84-1.1c-0.16-0.05-0.4-0.05-0.63-0.05c-0.21,0-0.33-0.05-0.33-0.19s0.14-0.16,0.42-0.16
							c0.91,0,2.13,0.05,2.67,0.05c0.47,0,1.88-0.05,2.65-0.05c0.28,0,0.4,0.05,0.4,0.16c0,0.14-0.12,0.19-0.35,0.19
							c-0.21,0-0.52,0.02-0.75,0.05c-0.52,0.09-0.68,0.42-0.73,1.1c-0.05,0.63-0.05,1.17-0.05,4.13L77.88,66.29L77.88,66.29z"/>
					</g>
				</g>
			</g>
			<g>
				<g>
					<path style="fill:#01A7DF;" d="M51.74,49.47l1.01-5.86c0,0,0.54-7.01,7.03-6.07c5.35,0.8,7.36,0.8,9.24-1.45
						c0,0,1.31,9.66-7.36,9.61h-3.05c0,0-2.65-0.28-4.53,0.89C53.12,47.17,52.42,48.11,51.74,49.47z"/>
					<path style="fill:#EC1C24;" d="M49.93,52.87l0.96-6.05c0.16-1.06,0.21-2.04-0.07-3.12c-0.73-2.63-3.21-3.35-5.63-3.61
						c-2.25-0.23-4.43-0.4-6.57-1.2c-0.56-0.21-1.1-0.45-1.64-0.73c-1.2-0.63-2.37-1.59-2.81-2.93c-0.12-0.33-0.4-1.31-0.21-1.62
						c0,0-4.76,8.18-0.16,13.01C38.51,51.61,48.59,45.67,49.93,52.87z"/>
					<path style="fill:#38B14A;" d="M51.66,42.6c0,0,0.35-1.95,0.7-4.06c0.23-1.43,0.35-2.72-0.26-3.87
						c-1.03-1.9-4.13-3.26-5.16-4.55c-0.8-0.98-0.38-2.13-0.38-2.13s-2.84,3.02-2.44,6.66c0.4,3.61,4.01,3.78,5.77,5.21
						C51.48,41.15,51.66,42.6,51.66,42.6z"/>
				</g>
			</g>
		</g>
	</g>
</g>
</svg>
