<?xml version="1.0" encoding="utf-8"?>
<svg version="1.1" id="Layer_1" xmlns="http://www.w3.org/2000/svg" xmlns:xlink="http://www.w3.org/1999/xlink" x="0px" y="0px"
	width="100px" height="100px" viewBox="0 0 66.5 66.8" style="enable-background:new 0 0 66.5 66.8;" xml:space="preserve">
<g>
	<path d="M66.5,33.5c0,18.3-14.9,33.3-33.3,33.3l0,0C14.9,66.8,0,51.9,0,33.5v-0.3C0,14.9,14.9,0,33.3,0l0,0
		c18.3,0,33.3,14.9,33.3,33.3V33.5z"/>
	<g>
		<path style="fill:#FFFFFF;" d="M11.5,49.7h19.7v3.4H11.5V49.7z M11.3,20.9l1.5-1.5c0.4,0.5,0.8,0.8,1.4,0.8s0.9-0.4,0.9-1.3v-5.5
			h2.3V19c0,1-0.3,1.9-0.8,2.4s-1.3,0.8-2.3,0.8C12.8,22.3,12,21.7,11.3,20.9C11.3,20.9,11.3,20.9,11.3,20.9z M18,13.7h6.9v1.9h-4.5
			V17h4.1v1.9h-4.1v1.4h4.7v2.1h-6.9C18.1,22.3,18,13.7,18,13.7z M27.9,15.8h-2.5v-2.1h7.5v2.1h-2.6v6.5h-2.4V15.8z M11.6,24.1h4.3
			c1,0,1.9,0.3,2.3,0.8c0.3,0.3,0.5,0.8,0.5,1.5l0,0c0,1-0.5,1.6-1.3,2c1,0.3,1.7,1,1.7,2.1l0,0c0,1.5-1.3,2.4-3.2,2.4h-4.4V24.1
			L11.6,24.1z M16.5,26.9c0-0.5-0.4-0.7-1-0.7h-1.5v1.5h1.4C16.1,27.7,16.5,27.4,16.5,26.9C16.5,26.9,16.5,26.9,16.5,26.9z
			 M15.7,29.4h-1.9V31h1.9c0.7,0,1.1-0.3,1.1-0.9l0,0C16.7,29.6,16.4,29.4,15.7,29.4z M19.5,24.1h3.9c1.4,0,2.2,0.3,2.8,1
			c0.5,0.5,0.7,1.2,0.7,2l0,0c0,1.4-0.7,2.2-1.7,2.7l2.1,3h-2.7l-1.8-2.6h-1.1v2.5h-2.3L19.5,24.1C19.6,24.2,19.5,24.1,19.5,24.1z
			 M23.5,28.4c0.8,0,1.3-0.4,1.3-1l0,0c0-0.7-0.5-1-1.3-1H22v2.1C22,28.4,23.5,28.4,23.5,28.4z"/>
		<path style="fill:#FFFFFF;" d="M29.8,24.1h2.3l3.5,8.7h-2.5l-0.6-1.6h-3.3l-0.6,1.7h-2.5L29.8,24.1C29.8,24.2,29.8,24.1,29.8,24.1
			z M31.9,29.4L30.9,27l-1,2.4H31.9z M36,24.1h2.4v8.6H36C36,32.7,36,24.1,36,24.1z M38.9,24.1h2.2l3.5,4.6v-4.6H47v8.6h-2.1
			l-3.5-4.6v4.7h-2.4V24.1z M47.1,31.5l1.4-1.6c0.8,0.7,1.7,1,2.7,1c0.6,0,1-0.2,1-0.6l0,0c0-0.4-0.3-0.5-1.5-0.8
			c-1.9-0.4-3.2-0.9-3.2-2.7l0,0c0-1.6,1.3-2.8,3.3-2.8c1.5,0,2.6,0.4,3.5,1.1l-1.3,1.7c-0.8-0.5-1.7-0.8-2.4-0.8
			c-0.6,0-0.8,0.2-0.8,0.5l0,0c0,0.4,0.3,0.5,1.5,0.8c2,0.4,3.2,1,3.2,2.7l0,0c0,1.8-1.4,2.8-3.5,2.8C49.7,32.9,48.1,32.5,47.1,31.5
			z"/>
	</g>
</g>
</svg>
