<?xml version="1.0" encoding="utf-8"?>
<svg version="1.1" id="Layer_1" xmlns="http://www.w3.org/2000/svg" xmlns:xlink="http://www.w3.org/1999/xlink" x="0px" y="0px"
	width="100px" height="100px" viewBox="0 0 66.7 66.7" style="enable-background:new 0 0 66.7 66.7;" xml:space="preserve">
<g>
	<circle style="fill:#E8E8E8;" cx="33.3" cy="33.3" r="33.3"/>
	<circle style="fill:#FFFFFF;" cx="33.3" cy="33.3" r="32.7"/>
	<path style="fill:#009CDE;" d="M39.6,36.1L39.6,36.1c-0.4,0.5-0.8,0.9-1.5,0.9c-0.9,0-1.5-0.5-1.5-1.4c0-1.7,1.9-1.7,3.1-1.7H40
		c0.1-0.2,0.1-0.3,0.1-0.5c0-0.5-0.5-0.7-1-0.7c-0.6,0-1.2,0.1-1.7,0.4l0.2-1.1c0.5-0.2,1.1-0.3,1.7-0.3c1,0,1.9,0.3,1.9,1.5
		c0,0.7-0.5,2.6-0.6,3.5h-1.1L39.6,36.1 M38.4,36.1c1,0,1.3-0.7,1.5-1.5h-0.5c-0.6,0-1.7,0.1-1.7,0.9C37.7,35.9,38.1,36.1,38.4,36.1
		L38.4,36.1C38.4,36.1,38.4,36.1,38.4,36.1z M6.1,31.9H7l0.2-1l1.4-0.5l-0.3,1.5h1.1l-0.2,1H8.1l-0.5,2.1c-0.1,0.1-0.1,0.3-0.1,0.5
		C7.5,35.9,7.7,36,8,36c0.3,0,0.5-0.1,0.6-0.1l-0.2,1C8.2,36.9,7.9,37,7.7,37c-0.9,0-1.5-0.3-1.5-1.3c0-0.4,0.1-0.7,0.1-1.1l0.4-1.7
		H5.9L6.1,31.9C6.1,31.9,6.1,31.9,6.1,31.9z M9.9,31.9h1.3l-1.1,4.9H8.9L9.9,31.9 M10.5,29.8h1.3L11.5,31h-1.3L10.5,29.8z
		 M15.2,33.1c-0.3-0.1-0.6-0.3-0.9-0.3c-1.1,0-1.6,1-1.6,1.9c0,0.7,0.2,1.3,1.1,1.3c0.3,0,0.7-0.1,1.1-0.3l-0.2,1.1
		C14.3,37,13.9,37,13.4,37c-1.3,0-2.1-0.9-2.1-2.1c0-1.7,1.1-3.1,2.9-3.1c0.5,0,0.9,0.1,1.3,0.2C15.5,32,15.2,33.1,15.2,33.1z
		 M16.6,29.7h1.3l-0.9,4l0,0l1.8-1.7h1.7l-2.4,2.3l1.5,2.7h-1.5l-1.3-2.7l0,0l-0.5,2.7H15C15.1,36.9,16.6,29.7,16.6,29.7z
		 M25.3,31.9h0.9l0.2-1l1.4-0.5l-0.3,1.5h1.2l-0.2,1h-1.1l-0.5,2.1c0,0.1-0.1,0.3-0.1,0.5c0,0.3,0.2,0.5,0.5,0.5s0.5-0.1,0.6-0.1
		l-0.2,1C27.5,36.9,27.2,37,27,37c-0.9,0-1.5-0.3-1.5-1.3c0-0.4,0.1-0.7,0.1-1.1l0.4-1.7h-0.9L25.3,31.9
		C25.3,31.9,25.3,31.9,25.3,31.9z M24.8,33.7c0-1.3-0.8-1.9-2.1-1.9c-1.7,0-2.9,1.5-2.9,3.1c0,1.5,1,2.2,2.4,2.2
		c0.5,0,1.1-0.1,1.6-0.3l0.1-1c-0.5,0.2-1,0.3-1.5,0.3c-0.8,0-1.3-0.3-1.4-1.1V35v-0.1c0-0.3,0.1-0.7,0.2-1c0.3-0.7,0.6-1.1,1.4-1.1
		c0.5,0,0.8,0.3,0.8,0.9v0.4h-1.8c-0.1,0.3-0.1,0.7-0.1,0.7h3.1C24.7,34.4,24.8,34.1,24.8,33.7C24.8,33.7,24.8,33.7,24.8,33.7
		L24.8,33.7z M29.3,32.5l0.1-0.5h1.2l-0.1,0.7l0,0c0.3-0.5,0.9-0.8,1.5-0.8s1.2,0.4,1.3,0.9l0,0c0.3-0.7,1.1-0.9,1.7-0.9
		c0.7,0,1.4,0.6,1.4,1.4c0,0.5-0.1,0.9-0.2,1.3l-0.5,2.4h-1.3l0.5-2.4c0.1-0.3,0.1-0.7,0.1-1.1c0-0.4-0.3-0.6-0.6-0.6
		c-0.9,0-1.1,1.1-1.3,1.7l-0.5,2.3h-1.3l0.5-2.4c0.1-0.3,0.1-0.7,0.1-1.1c0-0.4-0.3-0.6-0.6-0.6c-0.9,0-1.1,1.1-1.3,1.7l-0.5,2.3
		h-1.3L29.3,32.5L29.3,32.5L29.3,32.5C29.3,32.5,29.3,32.5,29.3,32.5z M45.1,32.9c-0.3-0.1-0.6-0.2-0.9-0.2c-0.4,0-0.9,0.1-0.9,0.5
		c0,0.6,1.7,0.9,1.7,2.1c0,1.3-1.1,1.7-2.3,1.7c-0.5,0-1.1-0.1-1.5-0.3l0.3-1.1c0.4,0.2,0.7,0.4,1.3,0.4c0.4,0,0.9-0.1,0.9-0.5
		c0-0.8-1.7-0.9-1.7-2.1c0-1.2,1.1-1.6,2.1-1.6c0.4,0,0.8,0,1.2,0.1L45.1,32.9C45.1,32.9,45.1,32.9,45.1,32.9z M45.9,31.9h0.9l0.2-1
		l1.4-0.5l-0.3,1.5h1.1l-0.2,1h-1.1l-0.5,2.1c-0.1,0.1-0.1,0.3-0.1,0.5c0,0.3,0.2,0.5,0.5,0.5s0.5-0.1,0.6-0.1l-0.2,1
		c-0.2,0.1-0.5,0.1-0.7,0.1c-0.9,0-1.5-0.3-1.5-1.3c0-0.4,0.1-0.7,0.1-1.1l0.4-1.7h-0.9C45.7,32.9,45.9,31.9,45.9,31.9z M54.7,32.6
		l0.1-0.7h1.3l-0.2,1l0,0c0.3-0.5,0.9-1.1,1.5-1.1h0.5l-0.3,1.3c-0.1-0.1-0.3-0.1-0.5-0.1c-0.9,0-1.4,0.8-1.5,1.6l-0.5,2.2h-1.3
		C53.8,36.9,54.7,32.6,54.7,32.6z M53.8,33.7c0-1.3-0.8-1.9-2.1-1.9c-1.7,0-2.9,1.5-2.9,3.1c0,1.5,0.9,2.2,2.4,2.2
		c0.5,0,1.1-0.1,1.6-0.3l0.1-1c-0.5,0.2-1,0.3-1.5,0.3c-0.8,0-1.3-0.3-1.4-1.1V35l0,0v-0.1l0,0c0-0.2,0.1-0.7,0.2-0.9
		c0.3-0.7,0.6-1.1,1.4-1.1c0.5,0,0.8,0.3,0.8,0.9v0.4h-1.8c-0.1,0.3-0.1,0.7-0.1,0.7h3.1C53.7,34.4,53.8,34.1,53.8,33.7L53.8,33.7
		L53.8,33.7L53.8,33.7L53.8,33.7z M59.7,31.6c0.6,0,1.1,0.5,1.1,1.1c0,0.6-0.5,1.1-1.1,1.1c-0.6,0-1.1-0.5-1.1-1.1
		C58.5,32.1,59.1,31.6,59.7,31.6z M59.7,33.7c0.5,0,0.9-0.4,0.9-0.9c0-0.5-0.4-0.9-0.9-0.9c-0.5,0-0.9,0.4-0.9,0.9
		C58.8,33.3,59.2,33.7,59.7,33.7z M59.3,32.1h0.5c0.3,0,0.5,0.1,0.5,0.4c0,0.2-0.1,0.4-0.3,0.4l0.4,0.6H60l-0.4-0.7h-0.1v0.7h-0.3
		L59.3,32.1L59.3,32.1z M59.5,32.6h0.2c0.1,0,0.3,0,0.3-0.2c0-0.1-0.1-0.1-0.3-0.1h-0.2V32.6z"/>
</g>
</svg>
