<?xml version="1.0"?>
<svg xmlns="http://www.w3.org/2000/svg" xmlns:xlink="http://www.w3.org/1999/xlink" xmlns:svgjs="http://svgjs.com/svgjs" version="1.1" width="512" height="512" x="0" y="0" viewBox="0 0 512 512" style="enable-background:new 0 0 512 512" xml:space="preserve" class=""><g><path xmlns="http://www.w3.org/2000/svg" d="m512 256c0 141.386719-114.613281 256-256 256s-256-114.613281-256-256 114.613281-256 256-256 256 114.613281 256 256zm0 0" fill="#f1f1f1" data-original="#3570d8" style="" class=""/><path xmlns="http://www.w3.org/2000/svg" d="m257.421875 44.074219-184.074219 282.566406 185.324219 185.324219c126.773437-1.296875 231.472656-94.730469 250.304687-216.535156zm0 0" fill="#f1f1f1" data-original="#1450a8" style="" class=""/><path xmlns="http://www.w3.org/2000/svg" d="m21.585938 359c39.640624 90.089844 129.671874 153 234.414062 153s194.773438-62.910156 234.414062-153zm0 0" fill="#f1f1f1" data-original="#cdeffe" style="" class=""/><path xmlns="http://www.w3.org/2000/svg" d="m490.414062 359h-232.914062v152.984375c104.097656-.597656 193.464844-63.328125 232.914062-152.984375zm0 0" fill="#f1f1f1" data-original="#94def7" style="" class=""/><path xmlns="http://www.w3.org/2000/svg" d="m110.695312 330.484375 146.726563-224.238281 143.882813 224.238281zm0 0" fill="#8c613e" data-original="#8c613e" style="" class=""/><path xmlns="http://www.w3.org/2000/svg" d="m257.421875 108.558594.078125 221.925781h143.804688zm0 0" fill="#70482b" data-original="#70482b" style="" class=""/><path xmlns="http://www.w3.org/2000/svg" d="m110.695312 330.484375h290.609376v58.515625h-290.609376zm0 0" fill="#774d2f" data-original="#774d2f" style="" class=""/><path xmlns="http://www.w3.org/2000/svg" d="m257.5 330.484375h143.804688v58.515625h-143.804688zm0 0" fill="#59351b" data-original="#59351b" style="" class=""/><path xmlns="http://www.w3.org/2000/svg" d="m106.308594 347.945312-32.667969-21.304687 183.78125-282.566406 180.9375 280.28125-32.792969 21.113281-148.144531-229.675781zm0 0" fill="#ffffff" data-original="#ffffff" style="" class=""/><path xmlns="http://www.w3.org/2000/svg" d="m438.066406 324.355469-180.644531-280.28125v71.859375l147.851563 229.535156zm0 0" fill="#d2f7ff" data-original="#d2f7ff" style="" class=""/><path xmlns="http://www.w3.org/2000/svg" d="m303 244c0 25.957031-21.042969 47-47 47s-47-21.042969-47-47 21.042969-47 47-47 47 21.042969 47 47zm0 0" fill="#ffb255" data-original="#ffb255" style=""/><path xmlns="http://www.w3.org/2000/svg" d="m303 244c0-25.453125-20.238281-46.167969-45.5-46.960938v93.921876c25.261719-.792969 45.5-21.507813 45.5-46.960938zm0 0" fill="#ffb761" data-original="#ffb761" style="" class=""/><path xmlns="http://www.w3.org/2000/svg" d="m212 337.292969h88v51.707031h-88zm0 0" fill="#ffb255" data-original="#ffb255" style=""/><path xmlns="http://www.w3.org/2000/svg" d="m257.5 337.292969h42.5v51.707031h-42.5zm0 0" fill="#ffb761" data-original="#ffb761" style="" class=""/></g></svg>
