<?xml version="1.0" encoding="utf-8"?>
<!-- Generator: Adobe Illustrator 24.2.1, SVG Export Plug-In . SVG Version: 6.00 Build 0)  -->
<svg version="1.1" id="Layer_1" xmlns="http://www.w3.org/2000/svg" xmlns:xlink="http://www.w3.org/1999/xlink" x="0px" y="0px"
	 viewBox="0 0 535.67 173.56" style="enable-background:new 0 0 535.67 173.56;" xml:space="preserve">
<g transform="translate(-139.418888 -161.273559)">
	<path style="fill:#FFFFFF;" d="M645.05,306.2c-14.92,15.64-34.81,24.21-55.84,24.21h-366.1c-21.05,0-40.93-8.57-55.9-24.21
		c-14.88-15.62-23.09-36.39-23.09-58.52c0-45.59,35.45-82.7,79-82.7h366.1c21.03,0,40.92,8.58,55.84,24.25
		c14.88,15.58,23.08,36.4,23.08,58.45C668.13,269.81,659.93,290.59,645.05,306.2"/>
	<path style="fill:#EE2824;" d="M641.33,303.02c-14.7,14.65-34.26,22.76-54.95,22.76H226.23c-20.77,0-40.27-8.1-54.96-22.76
		c-14.68-14.71-22.78-34.21-22.78-54.99c0-42.89,34.88-77.7,77.74-77.7h360.15c20.69,0,40.25,8.03,54.95,22.71
		c14.64,14.71,22.81,34.21,22.81,54.99S655.97,288.31,641.33,303.02 M647.75,186.65c-16.39-16.39-38.17-25.38-61.37-25.38H226.23
		c-47.85,0-86.81,38.85-86.81,86.76c0,23.15,9.03,44.99,25.47,61.34c16.37,16.41,38.15,25.46,61.34,25.46h360.15
		c23.2,0,44.99-9.05,61.37-25.46c16.4-16.35,25.39-38.18,25.39-61.34C673.14,224.81,664.14,203.05,647.75,186.65"/>
	<path style="fill:#EE2824;" d="M586.37,178.07H226.21c-38.6,0-69.88,31.32-69.88,69.95c0,38.61,31.28,69.95,69.88,69.95h360.16
		c38.61,0,69.88-31.34,69.88-69.95C656.26,209.38,624.99,178.07,586.37,178.07"/>
	<path style="fill-rule:evenodd;clip-rule:evenodd;fill:#EE2824;" d="M665.88,333.23c5,0,9.21-3.83,9.21-9.11
		c0-5.21-4.21-9.02-9.21-9.02c-5.01,0-9.24,3.81-9.24,9.02C656.63,329.39,660.86,333.23,665.88,333.23 M658.48,324.11
		c0-4.26,3.27-7.59,7.39-7.59c4.14,0,7.38,3.33,7.38,7.59c0,4.39-3.25,7.61-7.38,7.61C661.75,331.72,658.48,328.5,658.48,324.11
		 M663.93,324.87h1.83l2.76,4.52h1.79l-2.91-4.58c1.5-0.27,2.68-1.07,2.68-2.92c0-2.03-1.23-2.98-3.71-2.98h-3.99v10.48h1.55
		L663.93,324.87z M663.93,323.46v-3.24h2.23c1.07,0,2.25,0.35,2.25,1.57c0,1.65-1.18,1.67-2.53,1.67H663.93z"/>
	<g>
		<path style="fill:#FFFFFF;" d="M212.09,209.21h39.62l-1.05,35.66h24.13l-1.5-35.18h38.59l-3.57,78.89h-32.48l-1.03-27.51h-24.57
			l-0.47,27.04h-33.63L212.09,209.21z"/>
		<path style="fill:#FFFFFF;" d="M362.22,210.18h98.73l-1.03,21.75h-59.06v13.44h42.38l-0.52,15.7l-42.4-0.03v13.44h57.61
			l-0.53,14.62h-91.58L362.22,210.18z"/>
		<path style="fill:#FFFFFF;" d="M324.31,245.92h24.31v14.65h-23.83L324.31,245.92z"/>
		<path style="fill:#FFFFFF;" d="M472.6,261.07h23.32v-15.16H472.6V261.07z"/>
		<path style="fill:#FFFFFF;" d="M513.33,289.61l-3.56-79.43h74.52c14.56,0,25.64,8.67,25.64,22.69c0,15.46-12.31,20.73-16.67,21.03
			l0.07,0.62c7.3,1.61,11.77,5.4,11.77,15.05c0,19.01-18.01,20.11-27.6,20.11L513.33,289.61"/>
	</g>
	<path style="fill:#EE2824;" d="M548.78,275.27v-14.52h13.52c4.06,0,8.08,2.32,8.08,7.09c0,4.62-5.12,7.43-10.64,7.43H548.78z"/>
	<path style="fill:#EE2824;" d="M549.05,247.28v-16.7h13.48c5.41,0,10.77,3.07,10.77,8.62c0,4.63-6.29,8.21-11.87,8.08
		C556.75,247.18,549.05,247.28,549.05,247.28"/>
</g>
</svg>
