<svg xmlns="http://www.w3.org/2000/svg" viewBox="0 0 449.8 108.1" fill="#c32436"><path d="M322.2 68.9c.1.1.2.1.4.2.4-.4.8-.8 1.1-1.3l20.8-29.7c1-1.4 1-1.6 0-3L324.1 5.7c-.4-.6-1-1-1.5-1.5-.2.7-.5 1.4-.5 2.2v61.3 1.2h.1zm-38.1-10.4c9.3 0 16.8-8.2 16.7-18.3 0-9.8-7.6-17.8-16.6-17.9-9.1-.1-16.9 8.3-16.9 18.2.1 9.9 7.6 18 16.8 18m.8-58.4c1.7.3 3.3.5 5 .8 3.6.8 6.9 2.2 9.8 4.6.2.1.4.2.8.5.2-.6.3-1.1.4-1.6s0-1.1 0-1.8h1.3 45c.8 0 1.3.2 1.8.9l6.1 8.6c-.3.3-.5.5-.7.6-1.2.6-1.3.7-.5 1.9l23.3 34.1c1 1.5 1 1.5 0 3l-9.8 14.2c-.2.4-.5.7-.9 1.1l-1.1-1.4-5.3-7.4c-.8-1-1-1-1.8.1l-13.8 19.5c-.5.7-1.1 1-1.9 1h-41c-.3 0-.5-.1-.9-.1v-2.5c0-1.1-.3-1.3-1.2-.8-.2.1-.3.2-.5.3-5 3.8-10.6 5.2-16.6 5-17.7-.3-30.4-14.1-34.5-28.5-7.4-26 10.2-47.8 27.9-51.3l5.1-.9h4v.1zM0 .5h24.4 35.4 1.4v22.3H41.4v53.9H19.9V22.9H0V.5zM142.2 79V66.3l.1-32.8c0-16.2 11.6-30.5 26.5-32.7 8.7-1.3 16.6 1.1 23.7 6.8.8.7 1.5.8 2.3.1 5.6-5 12.2-7.1 19.4-7.2 15 0 27.7 11.4 30.2 27.4.6 3.6.5 7.4.5 11.1l.1 38.7c0 .4 0 .7-.1 1.1h-20.8v-1.5l-.1-43.5c0-1.3-.2-2.6-.5-3.8-1.5-5.4-5.1-8-10.4-7.5-4.4.4-8.2 4.2-8.9 9.2-.2 1.5-.2 3-.2 4.5v41.6c0 .3 0 .6-.1 1.1-.5 0-.9.1-1.4.1h-17.8c-1.6 0-1.6 0-1.6-1.7l-.1-44.2c0-6.1-4.6-10.5-8.9-10.7-5.7-.4-10.3 3.5-11 9.4-.1.8-.1 1.7-.1 2.5v43.1c0 1.6 0 1.6-1.5 1.6h-17.9-1.4zM90.9 36.5l1.2-1.6 14.4-20.5c.4-.6.8-.9 1.6-.9l23.9.1c.2 0 .4.1.9.1-.3.6-.5 1.1-.8 1.5l-20.2 30.7c-1 1.6-1 2 .1 3.7l13.8 20.2 25.4 36.8c.3.4.5.8.8 1.4-.6 0-.9.1-1.3.1H126c-.8 0-1.3-.3-1.9-1L91.8 60.6l-1-1.4v17.5h-21V.8h20.8v35.6c.1 0 .2.1.3.1m264.4 49.2l.9-1.5 23.4-34.5c1.1-1.6 1.1-1.8 0-3.5l-21.5-31.7-.6-1.2c.4-.1.8-.3 1.2-.3h24.8c.5 0 1.2.3 1.5.7l8.7 12.2c1 1.3 1.2 1.3 2.2 0l8.4-11.7c.3-.4.8-.7 1.3-.7l24.2.1c.2 0 .4 0 .7.1-.2.5-.4.9-.6 1.3l-20.2 30.8c-1.1 1.7-1.1 2 .1 3.8l18.3 26.8 20.8 30c.3.4.5.8.9 1.4-.6.1-.9.1-1.2.1-8.3 0-16.6-.1-24.8 0-.9 0-1.4-.4-1.9-1.1l-25.5-36.5c-.1-.2-.3-.4-.4-.6-.8-1-1-1.1-1.8 0l-10.4 14.9c-.5.8-1.1 1-2 1h-24.7l-1.8.1h0zM128 35c6.7.1 11.7 4.8 11.8 12.5.1 6.5-5.5 12-11.8 12-6.3-.1-11.3-5.4-11.2-12.2 0-6.8 5.1-12.3 11.2-12.3M44.2 47.4c0-6.8 5.1-12.3 11.4-12.3s11.3 5.5 11.3 12.3-5.1 12.3-11.3 12.3-11.4-5.5-11.4-12.3M396.6 1.1L387.8 14c-.6-.9-1.1-1.5-1.6-2.1-.6-.9-1.4-1.2-2.4-1.2-6.6 0-13.2-.1-19.8-.1-.2 0-.5-.1-.9-.1.1-.3.2-.5.3-.7l5.8-8.2c.6-.8 1.3-1.2 2.3-1.2h23.6c.5 0 .9.1 1.4.2a.9.9 0 0 1 .1.5m41.7 30.6c4.3 0 7.8-3.8 7.8-8.4 0-4.5-3.5-8.3-7.7-8.3s-7.7 3.7-7.8 8.3c0 4.5 3.5 8.4 7.7 8.4m.1.9c-4.8 0-8.6-4.2-8.6-9.3s3.9-9.2 8.6-9.3c4.8 0 8.6 4.2 8.6 9.4 0 5-3.9 9.2-8.6 9.2M436.5 19c-.8 3.1-.4 3.7 2.3 3.7h.8c1.1-.1 1.6-.8 1.6-2 0-1.1-.5-1.6-1.6-1.7-1-.1-2 0-3.1 0m-1.3-1h5c1 0 1.8.5 2.1 1.6.3 1.2.2 2.2-.7 3.1l-.1.1.8 2.5c.2.9.2 1.8.2 2.7-.7.3-1.1.1-1.2-.8-.1-.7 0-1.5-.2-2.2-.2-.5-.6-1.2-1-1.2-1.1-.2-2.2-.2-3.2-.1-.2 0-.5.5-.5.9-.1 1 0 1.9-.1 2.9 0 .2-.4.4-.6.7-.2-.2-.5-.4-.5-.6V18"/></svg>