<?xml version="1.0"?>
<svg xmlns="http://www.w3.org/2000/svg" xmlns:xlink="http://www.w3.org/1999/xlink" xmlns:svgjs="http://svgjs.com/svgjs" version="1.1" width="512" height="512" x="0" y="0" viewBox="0 0 512 512" style="enable-background:new 0 0 512 512" xml:space="preserve" class=""><g><g xmlns="http://www.w3.org/2000/svg"><g><g><g><g><g><g><path d="m392.683 39.503c71.705 45.365 119.317 125.371 119.317 216.497 0 141.385-114.615 256-256 256s-256-114.615-256-256c0-91.126 47.612-171.132 119.317-216.497l29.988-16.278c32.479-14.911 68.616-23.225 106.695-23.225 38.074 0 74.207 8.312 106.683 23.22z" fill="#f1f1f1" data-original="#ffce00" style="" class=""/></g></g></g></g></g></g><path d="m512 256c0-50.259-14.483-97.135-39.503-136.683l-79.814-79.814-5.634 221.448-237.732-237.731-33.687 301.752-55.63 14.08 171.821 171.821c7.959.745 16.024 1.127 24.179 1.127 141.385 0 256-114.615 256-256z" fill="#f1f1f1" data-original="#ffa300" style="" class=""/><g><path d="m119.317 39.503v151.499h30v-167.782c-10.393 4.771-20.412 10.218-30 16.283z" fill="#636978" data-original="#636978" style=""/></g><g><path d="m362.683 23.22v167.782h30v-151.499c-9.588-6.065-19.607-11.512-30-16.283z" fill="#414952" data-original="#414952" style=""/></g><g><path d="m60 172.948h407.252v166.105h-407.252z" fill="#555a66" data-original="#555a66" style="" class=""/></g><g><path d="m250.37 172.948h216.882v166.104h-216.882z" fill="#333940" data-original="#333940" style="" class=""/></g><g><g fill="#ff7d81"><path d="m140.231 284.226v-33.99l-12.63 33.99h-7.628l-12.63-33.99v33.99h-17.121v-56.537h23.648l9.918 27.124 9.917-27.124h23.648v56.537z" fill="#ff7d81" data-original="#ff7d81" style=""/><path d="m163.45 256c0-17.376 13.478-29.243 30.939-29.243s30.938 11.867 30.938 29.243-13.478 29.243-30.938 29.243c-17.461 0-30.939-11.867-30.939-29.243zm44.501 0c0-7.883-5.34-14.156-13.562-14.156s-13.562 6.273-13.562 14.156 5.34 14.155 13.562 14.155 13.562-6.272 13.562-14.155z" fill="#ff7d81" data-original="#ff7d81" style=""/><path d="m241.852 284.226v-41.618h-15.173v-14.918h47.383v14.918h-15.088v41.618z" fill="#ff7d81" data-original="#ff7d81" style=""/></g><path d="m250.385 227.689v56.537h8.589v-41.619h15.088v-14.918z" fill="#ff475a" data-original="#ff475a" style="" class=""/><path d="m280.159 284.226v-56.537h42.89v14.918h-25.767v5.594h25.175v14.918h-25.175v6.188h25.767v14.918h-42.89z" fill="#ff475a" data-original="#ff475a" style="" class=""/><path d="m330.674 284.226v-56.537h17.122v41.618h21.445v14.918h-38.567z" fill="#ff475a" data-original="#ff475a" style="" class=""/></g><g><path d="m402.239 314.092-21.213-21.213 32.761-32.76-32.761-32.76 21.213-21.214 53.974 53.974z" fill="#ff475a" data-original="#ff475a" style="" class=""/></g></g></g></svg>
