<svg xmlns="http://www.w3.org/2000/svg" viewBox="0 0 478 226.8"><path d="M51.4 17.4v64.3s22.6 0 34.8-.9c9.5-1.7 11.3-2.6 13-12.1l3.5-14h10.4l-1.8 30.5.9 31.3h-10.5l-2.6-12.2c-2.6-8.7-6.1-10.5-13-11.3-8.7-.9-34.8-.9-34.8-.9V146c0 10.4 5.3 14.8 17.4 14.8h36.5c11.3 0 22.6-.9 29.6-17.4l9.4-20.9h8.8c-.9 4.3-5.3 42.6-6.1 51.2l-46.9-.8H37.4l-37.4.8v-9.4l12.1-2.7c8.8-1.8 11.4-4.3 11.4-11.3 0 0 .9-23.5.9-62.6l-.9-62.5c0-7.8-2.6-9.5-11.4-11.3L0 11.3V1.8l36.5.7H106c13.9 0 37.3-2.5 37.3-2.5s-.8 14.7-1.8 49.5H132l-3.5-12.2c-3.4-15.6-8.6-23.4-18.2-23.4H55.7c-4.3 0-4.3.9-4.3 3.5zm140.7 6.9h10.5v36.5l35.7-1.8-1.8 16.5-34.8-2.7v64.3c0 18.2 6.1 25.2 16.5 25.2 9.4 0 16.5-5.3 19.1-9.6l5.2 6.1c-5.2 12.1-19.9 18.2-33.8 18.2-17.3 0-31.3-10.4-31.3-30.3v-73h-20.7V65c17.3-1.6 30.3-12 35.4-40.7h0zm74.8 112.1l6.9 16.5c2.6 6.9 8.7 14 22.6 14 14.8 0 20.9-7.9 20.9-17.4 0-29.6-58.2-20.9-58.2-60.8 0-22.6 18.2-33.1 41.7-33.1 10.5 0 26.1 1.8 33.9 5.3-1.8 8.7-2.7 20-2.7 28.7l-8.6.8-6.1-17.4c-1.8-4.3-8.8-7.8-17.4-7.8-10.5 0-20.9 4.3-20.9 15.6 0 26.9 60 20.9 60 60.8 0 22.6-20 34.8-44.4 34.8-18.2 0-36.5-7-36.5-7 1.8-10.4.9-21.6 0-33h8.8zm67.8 83.4c2.6-9.5 4.3-21.6 6.1-33l9.5-.8 3.5 18.2c.8 4.3 3.4 7.9 10.4 7.9 11.3 0 26.1-6.9 40-31.3-6.2-14.8-24.4-62.5-40.9-99-4.3-9.6-5.2-10.5-11.2-12.2l-4.4-1.7v-8.8l26.2.9 32.1-1.8v8.7l-7.9 1.8c-6.1.8-8.6 4.3-8.6 7.8 0 .9 0 1.8.8 3.5 1.7 5.3 15.6 44.3 26.1 70.4 8.6-18.2 25.2-59.1 27.7-66 .9-3.5 1.8-4.3 1.8-6.9 0-4.4-2.6-7-8.6-8.7l-6.3-1.9v-8.7l24.4.8 22.6-.8v8.7l-4.3 3.4c-8.7 3.5-9.6 4.3-13 11.4l-38.2 89.4c-22.6 51.3-46.1 55.7-62.6 55.7-10.5 0-18.4-2.7-25.2-7h0z" fill="#f56401"/></svg>