<?xml version="1.0" encoding="utf-8"?>
<svg version="1.1" id="Layer_1" xmlns="http://www.w3.org/2000/svg" xmlns:xlink="http://www.w3.org/1999/xlink" x="0px" y="0px"
	width="100px" height="100px" viewBox="0 0 1299.3 1299.3" style="enable-background:new 0 0 1299.3 1299.3;" xml:space="preserve">
<g>
	<circle style="fill:#E8E8E8;" cx="649.6" cy="649.6" r="649.6"/>
	<circle style="fill:#FFFFFF;" cx="649.6" cy="649.6" r="636.6"/>
</g>
<g>
	<path style="fill:#7F2C53;" d="M133.1,602.1h28.3c14.6,0,30.6,5.2,30.6,24.2c0,10-6.7,18.1-16.8,20.4v0.3
		c12.4,1.3,21.5,10,21.5,23.8c0,15.8-13.6,26.3-35.5,26.3h-28.2V602.1z M142.8,643.8h19.5c9.3,0,20.1-4,20.1-16.6
		c0-12-10.3-16.6-22.8-16.6h-16.8V643.8z M142.8,688.9h18.1c13.9,0,26.1-5.2,26.1-18.5c0-12.5-9-18.7-24.4-18.7h-19.8V688.9z
		 M233.1,688.6h50.8v8.6h-60.5v-95h58.9v8.6h-49.2v32.8h46.1v8.4h-46.1L233.1,688.6L233.1,688.6z M307,697.3h-10.6l41.2-95h9.3
		l40.9,95H377l-10.5-25h-49.1L307,697.3L307,697.3z M321,663.4h42L342,612.9L321,663.4z M404.4,661.8v-59.7h9.7v58.6
		c0,15.4,6.7,30.4,26,30.4s26-15,26-30.4v-58.6h9.7v59.7c0,15.8-7.1,37.8-35.6,37.8S404.4,677.7,404.4,661.8L404.4,661.8z
		 M535.5,697.3h-9.7v-86.5H494v-8.6h73.3v8.6h-31.8V697.3L535.5,697.3z M617.6,697.3h-9.7v-41l-35.6-54.2h12l28.7,46.1l28.8-46.1
		H653l-35.6,54.2v41H617.6z"/>
	<path style="fill:#474747;" d="M658.3,612.1h31.8v86.5h12.2v-86.5h31.8v-11.2h-75.9L658.3,612.1z M812.2,642.2h-49.2v-41.3h-12.2
		v97.7h12.2v-45h49.2v45h12.2v-97.7h-12.2V642.2z M851.9,600.9h12.2v97.5h-12.2V600.9z M959.3,679.4l-53.5-78.5h-14.1v97.7h12.2
		v-79.3l53.7,79.3h13.9v-97.7h-12.2L959.3,679.4z M1047.2,657.2h22.2v26.9c-5.7,3.5-14.7,5.5-24.4,5.5c-25,0-38.2-20.1-38.2-40.1
		s13.1-40.2,38.2-40.2c11.1,0,20,3.6,26.6,10.6l1,1l8.6-8.6l-1-1c-8.9-8.7-20.7-13.1-35.3-13.1c-29,0-50.8,22-50.8,51.1
		c0,29.6,21.4,51.1,50.8,51.1c13.3,0,25.8-3.3,36.1-9.5l0.6-0.3v-44.5h-34.4V657.2z M1138.2,643.6l-1.7-0.6
		c-10.3-3.3-19.2-6.3-19.2-17.3c0-12.2,11.4-16.6,19-16.6c8.1,0,14.4,3.2,18.5,9l0.8,1.1l9.7-7.8l-0.8-1c-4.3-5.9-13.9-12-27.9-12
		c-15.2,0-31.7,8.6-31.7,27.4c0,18.2,13.6,23.9,26.4,27.9l0.3,0.2c11.9,3.6,22,6.8,22,19.2c0,11.1-10.1,17.1-19.8,17.1
		c-8.6,0-16.3-4.3-20.7-11.4l-0.8-1.1l-10.5,7.8l0.8,1c6.7,9.2,18.2,14.6,31,14.6c16,0,32.3-8.9,32.3-28.7
		C1166.1,652.8,1151.4,647.9,1138.2,643.6L1138.2,643.6z"/>
</g>
</svg>
