<?xml version="1.0" encoding="utf-8"?>
<svg version="1.1" id="Layer_1" xmlns="http://www.w3.org/2000/svg" xmlns:xlink="http://www.w3.org/1999/xlink" x="0px" y="0px"
	width="100px" height="100px" viewBox="0 0 100 100" style="enable-background:new 0 0 100 100;" xml:space="preserve">
<g>
	<path style="fill:#E8E8E8;" d="M50,0c27.61,0,50,22.39,50,50s-22.39,50-50,50S0,77.61,0,50S22.39,0,50,0"/>
	<path style="fill:#FFFFFF;" d="M50,1c27.06,0,49,21.94,49,49S77.06,99,50,99S1,77.06,1,50S22.94,1,50,1"/>
	<g>
		<path style="fill:#FFF200;stroke:#FFF200;stroke-width:0.1916;" d="M87.8,56.7c-0.03,0-0.06,0-0.09,0
			c-12.5-0.75-25.19-1.13-37.71-1.13s-25.21,0.38-37.71,1.13c-0.03,0-0.06,0-0.09,0c-0.35,0-0.69-0.14-0.93-0.38
			c-0.25-0.25-0.39-0.59-0.38-0.95V44.63c-0.01-0.72,0.57-1.31,1.29-1.32c0.01,0,0.02,0,0.03,0c0.03,0,0.06,0,0.09,0
			c12.5,0.75,25.19,1.13,37.71,1.13s25.21-0.38,37.71-1.13h0.09c0.72-0.01,1.31,0.58,1.32,1.3c0,0.01,0,0.02,0,0.03v10.73
			c0.01,0.72-0.57,1.32-1.29,1.33C87.82,56.69,87.81,56.69,87.8,56.7L87.8,56.7z"/>
		<path style="fill:#FFF200;stroke:#FFF200;stroke-width:0.1916;" d="M87.8,43.02c0.88-0.01,1.6,0.7,1.6,1.58c0,0.01,0,0.02,0,0.03
			v10.73c0.01,0.88-0.69,1.6-1.57,1.61c-0.01,0-0.02,0-0.03,0h-0.11C75.14,56.22,62.58,55.85,50,55.85s-25.14,0.38-37.7,1.14H12.2
			c-0.88,0.01-1.6-0.7-1.6-1.58c0-0.01,0-0.02,0-0.03V44.64c-0.01-0.88,0.69-1.61,1.57-1.62c0.01,0,0.02,0,0.03,0h0.11
			c12.56,0.76,25.12,1.14,37.7,1.14s25.14-0.38,37.69-1.13L87.8,43.02 M87.8,43.6L87.8,43.6c-0.02,0-0.05,0-0.07,0
			c-12.51,0.75-25.2,1.13-37.73,1.13s-25.22-0.38-37.73-1.14c-0.02,0-0.05,0-0.07,0c-0.57,0-1.03,0.46-1.03,1.02c0,0,0,0.01,0,0.01
			v10.73c-0.01,0.57,0.44,1.03,1.01,1.04c0.01,0,0.01,0,0.02,0c0.02,0,0.05,0,0.07,0c12.51-0.75,25.2-1.13,37.73-1.13
			s25.22,0.38,37.72,1.13c0.02,0,0.05,0,0.07,0c0.57,0,1.03-0.45,1.04-1.02c0-0.01,0-0.01,0-0.02V44.63
			c0.01-0.57-0.45-1.04-1.02-1.05c-0.01,0-0.01,0-0.02,0V43.6z"/>
		<path d="M17.23,52.84h-1.9v-4.57h-0.57v-1.11h2.3c2.15,0,3.35,0.54,3.35,2.9C20.41,52.2,19.06,52.84,17.23,52.84z M17.25,48.27
			h-0.34v3.48h0.48c1.18,0,1.37-0.67,1.37-1.8C18.76,48.54,18.21,48.27,17.25,48.27L17.25,48.27z"/>
		<path d="M23.43,52.95c-1.72,0-2.65-1.2-2.65-2.95c0-1.74,0.93-2.95,2.65-2.95c1.72,0,2.65,1.21,2.65,2.95
			C26.08,51.74,25.14,52.95,23.43,52.95z M23.43,48.26c-0.63,0-0.98,0.52-0.98,1.74c0,1.22,0.35,1.74,0.98,1.74s0.98-0.51,0.98-1.74
			C24.41,48.77,24.06,48.26,23.43,48.26z"/>
		<path d="M30.63,51.74l-0.07,1.1h-3.89v-5.68h1.57v4.58H30.63z"/>
		<path d="M35.08,51.74l-0.07,1.1h-3.89v-5.68h1.57v4.58H35.08z"/>
		<path d="M41.02,52.84h-1.64l-0.34-1.04h-1.89l-0.3,1.04h-1.53l1.49-4.57l0.31-1.11h1.87L41.02,52.84z M38.69,50.75l-0.44-1.36
			c-0.1-0.28-0.18-0.56-0.21-0.86h-0.02c-0.03,0.29-0.09,0.57-0.18,0.85l-0.4,1.37H38.69z"/>
		<path d="M46.14,51.84c-0.23,0-0.37-0.08-0.54-0.35l-0.46-0.73c0.64-0.26,1.07-0.85,1.07-1.75c0-0.69-0.28-1.22-0.84-1.53
			c-0.38-0.22-0.96-0.31-1.76-0.31h-2.13v5.68h1.57v-1.89h0.43l0.63,1.02c0.16,0.28,0.37,0.52,0.62,0.71
			c0.27,0.18,0.58,0.27,0.9,0.25c0.3,0,0.59-0.08,0.85-0.21l0.1-1.03C46.45,51.79,46.3,51.83,46.14,51.84z M43.73,49.98h-0.67v-1.71
			h0.45c0.43,0,0.71,0.04,0.87,0.2c0.15,0.17,0.22,0.4,0.21,0.63C44.59,49.71,44.35,49.98,43.73,49.98L43.73,49.98z"/>
		<path style="fill-rule:evenodd;clip-rule:evenodd;" d="M84.02,47.16c0.32,0,0.57,0.26,0.57,0.57c0,0.32-0.26,0.57-0.57,0.57
			c-0.32,0-0.57-0.26-0.57-0.57C83.45,47.42,83.7,47.16,84.02,47.16z M84.02,47.25c-0.27,0-0.49,0.22-0.49,0.49
			c0,0.27,0.22,0.49,0.49,0.49c0.27,0,0.49-0.22,0.49-0.49C84.51,47.47,84.29,47.25,84.02,47.25z M83.91,48.08h-0.1v-0.65
			c0.06-0.01,0.13-0.01,0.19-0.01c0.07,0,0.13,0.01,0.19,0.04c0.04,0.03,0.06,0.08,0.06,0.14c0,0.07-0.05,0.14-0.12,0.16l0,0
			c0.05,0.01,0.09,0.06,0.11,0.16c0,0.06,0.02,0.11,0.04,0.16h-0.11c-0.02-0.05-0.04-0.11-0.04-0.16c0-0.07-0.06-0.12-0.13-0.12
			c0,0-0.01,0-0.01,0h-0.07L83.91,48.08L83.91,48.08z M83.91,47.72h0.08c0.09,0,0.15-0.03,0.15-0.11c0-0.08-0.04-0.12-0.15-0.12
			c-0.03,0-0.06,0-0.08,0V47.72L83.91,47.72z"/>
		<path d="M80.89,52.84h-1.64L78.9,51.8h-1.9l-0.3,1.04h-1.53l1.49-4.57l0.31-1.11h1.87L80.89,52.84z M78.56,50.75l-0.44-1.36
			c-0.1-0.28-0.18-0.56-0.21-0.86h-0.02c-0.03,0.29-0.09,0.57-0.18,0.85l-0.38,1.37H78.56z"/>
		<path d="M54.38,52.84h-0.93l-0.19-0.29c-0.45,0.27-0.96,0.4-1.48,0.4c-1.84,0-2.58-1.29-2.58-2.95c0-1.87,1-2.95,2.73-2.95
			c1.28,0,2.11,0.61,2.34,1.76l-1.63,0.28c-0.12-0.54-0.34-0.84-0.79-0.84c-0.57,0-0.96,0.62-0.96,1.69c0,1.18,0.42,1.81,1.28,1.81
			c0.23,0,0.46-0.05,0.68-0.14v-0.78h-0.61v-0.9h2.16L54.38,52.84z"/>
		<path d="M59.1,51.74l-0.07,1.1h-3.94v-5.68h3.81v1.11h-2.24v1.15h1.83v1.1h-1.83v1.23L59.1,51.74z"/>
		<path d="M64.46,52.84h-0.99l-2.3-2.72c-0.1-0.11-0.18-0.24-0.25-0.38v3.1h-1.29v-5.68h0.96l2.32,2.73
			c0.11,0.12,0.19,0.26,0.26,0.4v-3.13h1.28L64.46,52.84z"/>
		<path d="M69.3,51.74l-0.07,1.1h-3.94v-5.68h3.8v1.11h-2.23v1.15h1.83v1.1h-1.83v1.23L69.3,51.74z"/>
		<path d="M85.24,51.74l-0.07,1.1h-3.89v-5.68h1.57v4.58H85.24z"/>
		<path d="M74.49,51.84c-0.23,0-0.37-0.08-0.54-0.35l-0.46-0.73c0.64-0.26,1.07-0.85,1.07-1.75c0-0.69-0.28-1.22-0.84-1.53
			c-0.39-0.22-0.97-0.31-1.76-0.31h-2.13v5.68h1.57v-1.89h0.42l0.63,1.02c0.16,0.28,0.37,0.52,0.62,0.71
			c0.27,0.18,0.59,0.27,0.91,0.25c0.3,0,0.59-0.07,0.85-0.21l0.1-1.03C74.81,51.79,74.65,51.83,74.49,51.84z M72.07,49.98h-0.66
			v-1.71h0.44c0.43,0,0.71,0.04,0.87,0.2c0.15,0.17,0.22,0.4,0.21,0.63C72.94,49.71,72.69,49.98,72.07,49.98L72.07,49.98z"/>
	</g>
</g>
</svg>
