<?xml version="1.0" encoding="utf-8"?>
<svg version="1.1" id="Layer_1" xmlns="http://www.w3.org/2000/svg" xmlns:xlink="http://www.w3.org/1999/xlink" x="0px" y="0px"
	width="100px" height="100px" viewBox="0 0 66.7 66.7" style="enable-background:new 0 0 66.7 66.7;" xml:space="preserve">
<g>
	<circle style="fill:#E8E8E8;" cx="33.3" cy="33.3" r="33.3"/>
	<circle style="fill:#FFFFFF;" cx="33.3" cy="33.3" r="32.7"/>
	<path style="fill:#82D170;" d="M53,26.2l-2.5-9.4c-0.1-0.3-0.3-0.6-0.7-0.7l-9.3-2.5c-0.3-0.1-0.7,0-0.9,0.3l-6.3,6.3l13.1,13.1
		l6.3-6.3C53,26.8,53.1,26.5,53,26.2L53,26.2z"/>
	<path style="fill:#F8CF1C;" d="M13.7,40.5l2.5,9.4c0.1,0.3,0.3,0.6,0.7,0.7l9.5,2.5c0.3,0.1,0.7,0,0.9-0.3l6.3-6.3L20.2,33.3
		l-6.3,6.3C13.7,39.9,13.6,40.1,13.7,40.5z"/>
	<path style="fill:#C6D636;" d="M26.3,13.7l-9.4,2.5c-0.3,0.1-0.6,0.3-0.7,0.7l-2.5,9.3c-0.1,0.3,0,0.7,0.3,0.9l6.3,6.3l13.1-13.1
		l-6.3-6.3C26.9,13.7,26.5,13.6,26.3,13.7z"/>
	<path style="fill:#D57DEA;" d="M52.7,39.5l-6.2-6.2L33.3,46.5l6.2,6.2c0.3,0.3,0.7,0.4,1.1,0.3l9.1-2.4c0.4-0.1,0.7-0.4,0.8-0.8
		l2.4-9.1C53.1,40.2,53,39.8,52.7,39.5z"/>
	<path style="fill:#762A7D;" d="M46.5,33.3L33.3,46.5L20.2,33.3l13.1-13.1L46.5,33.3z"/>
</g>
</svg>
