<svg xmlns="http://www.w3.org/2000/svg" viewBox="0 0 153.8 122.9"><path d="M68.1 73.1H61V43.8h-6v34.6h13.1v-5.3zm-53.4 31.1c1.4-1.2 2.5-3.2 2.5-6.6.3-2.8-.5-5.5-2.2-7.7-1.6-1.6-3.9-2.4-6.1-2.3H2.4v34.6h7.1.4a7.94 7.94 0 0 0 5.8-2.5c1.6-2.3 2.4-5.1 2.1-7.8.1-4.3-1.4-6.5-3.1-7.7zm-5.6-2.1h-.7v-9.3h.7c.6 0 1.1.2 1.6.5.6 1 .9 2.2.7 3.4v1.1c.1 4.3-1.6 4.3-2.3 4.3h0zm2.9 9.3v1.4c.1 1.2-.1 2.4-.7 3.4-.4.5-1.1.8-1.8.8H8.4v-10.1h1.1c.7-.1 2.5-.1 2.5 4.5zM13 70V43.8H7.1v26.9c0 2.7-.6 3.1-.6 3.1-.1 0-.2 0-.3-.1-.4-.8-.5-1.6-.6-2.5v-1.3l-5.6.9v1c0 2 .8 4 2.1 5.5C3.2 78.4 4.7 79 6.3 79c3 .1 6.7-1.5 6.7-9zm59.9 8.4h5.9V66.6l6.4-22.8h-6L75.8 57l-3.4-13.2h-6l6.5 22.8v11.8zM54 29.3h-8V20h7.2v-5.3H46V5.3h7.9V0H40v34.6h14v-5.3zM4.6 34.6h5.9V5.3H15V0H.1v5.3h4.5v29.3zM24.1 20h4.7v14.6h5.9V0h-5.9v14.7h-4.7V0h-6v34.6h6V20zm81.8 87.6h7.2v-5.3h-7.2v-9.5h7.9v-5.3H99.9v34.6h14v-5.3h-8v-9.2zm-17.3-5.3h-4.7V87.6h-6v34.6h6v-14.6h4.7v14.6h5.9V87.6h-5.9v14.7zm44.9-3.4v-.1c.3-3.1-.5-6.1-2.2-8.7-1.6-1.7-3.8-2.7-6.2-2.5h-6.9v34.6h6v-12.4h.2l3.6 12.4h6.2l-4-13.8c2.2-1.7 3.3-4.9 3.3-9.5zm-6-.9v1.4c0 5.2-1.8 5.2-2.4 5.2h-.9V92.9h.9c.6 0 1.2.3 1.5.7.8 1.4 1.1 2.9.9 4.4h0zm-102-18.9c2.5.1 4.8-.9 6.4-2.8a14.05 14.05 0 0 0 2-8.7v-13c.3-3.1-.5-6.3-2.2-8.9-1.4-1.7-3.7-2.7-6-2.6-2.5-.1-4.8.9-6.4 2.8a14.05 14.05 0 0 0-2 8.7v12.9c-.3 3.1.5 6.3 2.1 9 1.4 1.7 3.5 2.6 5.7 2.6h.4zm-2.3-25.3c-.1-1.5.1-3.1.8-4.5.3-.6 1-.9 1.6-.9 1.5 0 2.5 1.8 2.5 5.5v14.4c0 3.6-.8 5.5-2.4 5.5-.6 0-1.2-.3-1.6-.8-.7-1.5-1-3.1-.8-4.7l-.1-14.5zm130.5 59.9c0-1.6-.2-3.2-.8-4.7-.4-1.1-1-2.2-1.8-3.1-.7-.7-1.4-1.3-2.2-1.9l-3.6-2.7c-.7-.5-1.2-1.1-1.5-1.9-.3-1.1-.5-2.2-.4-3.3 0-3.9 1.5-3.9 2.1-3.9 1.4 0 2.2 1.6 2.3 4.8v1.4l5.8-1.3v-.9c0-2.6-.8-5.1-2.4-7.2l-.2-.2c-3.3-2.8-8.2-2.7-11.4.2l-.2.2a10.09 10.09 0 0 0-2 7.3c-.2 3.8 1.5 7.5 4.6 9.7l3.6 2.7c1.4 1.2 2.2 2.9 2.1 4.7v.1c0 3.7-1.7 3.7-2.5 3.7h0a1.78 1.78 0 0 1-1.6-1c-.7-1.6-1.1-3.3-1-5.1v-1.4l-5.8 1v1c0 3 .9 5.9 2.6 8.3 1.5 1.7 3.7 2.6 5.9 2.5h.5c2.1 0 4.1-.8 5.7-2.2 1.7-1.8 2.5-4.3 2.2-6.8zm-85-.8c0 1.4-.3 2.8-.9 4-.3.5-.9.8-1.5.7a1.75 1.75 0 0 1-1.4-.7c-.6-1.5-.9-3-.8-4.6h0V97.7c-.1-1.6.1-3.2.8-4.7.3-.5.8-.8 1.4-.8.4 0 .9.2 1.2.5.6 1.1.9 2.3.9 3.6v1.4l5.6-1.4v-.9c0-2.4-.9-4.8-2.4-6.6-1.5-1.3-3.5-2-5.5-1.9-2.3-.1-4.6 1-6 2.8a14.65 14.65 0 0 0-2 8.9V111a14.96 14.96 0 0 0 2 9l.2.3a7.94 7.94 0 0 0 5.8 2.5c2 0 4-.8 5.5-2.2l.2-.2a12.34 12.34 0 0 0 2.3-7.2v-1l-5.5-.7.1 1.4zM38.2 87.6h-5.9v24.6c.1 1.5-.1 3.1-.8 4.5-.3.6-.9.9-1.6.9h-.1c-.6 0-1.1-.3-1.5-.8-.7-1.5-1-3.1-.8-4.7V87.6h-5.9v23.7c-.3 3.1.5 6.3 2.1 9 1.4 1.7 3.5 2.6 5.7 2.6h.4c2.4.1 4.8-.9 6.3-2.8a14.05 14.05 0 0 0 2-8.7l.1-23.8zm13.6-14.5h-7.1V43.8h-6v34.6h13.1v-5.3zM40.9 92.9h4.5v29.3h5.9V92.9h4.5v-5.3H40.9v5.3z" fill="#373737"/><path d="M70.651 71h-6.9V42.5h-5.8v33.6h12.8V71zm-51.8 30.2c1.3-1.1 2.4-3.1 2.4-6.4.3-2.7-.5-5.4-2.1-7.5-1.6-1.5-3.7-2.3-5.9-2.2h-6.3v33.6h6.9.4c2.1 0 4.2-.9 5.6-2.5 1.6-2.2 2.3-4.9 2-7.6.1-4.2-1.3-6.3-3-7.4zm-5.5-2.1h-.6v-9h.7c.6 0 1.1.2 1.5.5.6 1 .9 2.1.7 3.3V95c0 4.1-1.6 4.1-2.3 4.1h0zm2.8 9v1.3c.1 1.1-.1 2.3-.7 3.3-.4.5-1.1.8-1.7.7h-1v-9.8h1c.7.1 2.4.1 2.4 4.5h0zm1-40.2V42.5h-5.8v26.1c0 2.6-.5 3-.6 3s-.2 0-.2-.1c-.3-.7-.5-1.6-.5-2.4v-1.3l-5.5.9v1c0 2 .7 3.9 2 5.4 1.1 1.1 2.5 1.7 4 1.7 3.1-.1 6.6-1.6 6.6-8.9zm58.1 8.2h5.7V64.6l6.2-22.1h-5.8l-3.3 12.8-3.3-12.8h-5.8l6.3 22.1v11.5zm-18.3-47.6h-7.8v-9.1h7v-5.1h-7V5.1h7.7V0h-13.5v33.6h13.6v-5.1zm-47.9 5.1h5.8V5.1h4.3V0h-14.5v5.1h4.3l.1 28.5zm18.9-14.2h4.5v14.2h5.8V0h-5.8v14.3h-4.5V0h-5.8v33.6h5.8V19.4zm79.3 85h7v-5.1h-7v-9.2h7.7V85h-13.5v33.6h13.6v-5.1h-7.8v-9.1zm-16.7-5.1h-4.5V85h-5.8v33.6h5.8v-14.2h4.5v14.2h5.8V85h-5.8v14.3zm43.5-3.3v-.1c.3-3-.5-5.9-2.1-8.4-1.5-1.7-3.7-2.6-6-2.5h-6.7v33.6h5.8v-12h.2l3.5 12h6l-3.9-13.4c2.2-1.7 3.2-4.7 3.2-9.2zm-5.7-.9v1.3c0 5.1-1.8 5.1-2.3 5.1h-.8V90.1h.9c.6 0 1.2.3 1.5.7.5 1.4.8 2.8.7 4.3h0zm-99-18.4c2.4.1 4.7-.9 6.2-2.7a13.17 13.17 0 0 0 2-8.4V53c.3-3-.5-6.1-2.1-8.6-1.5-1.7-3.7-2.7-6-2.6-2.4-.1-4.7.9-6.2 2.7a13.17 13.17 0 0 0-2 8.4v12.5c-.3 3.1.4 6.1 2.1 8.7 1.4 1.6 3.4 2.5 5.5 2.6h.5zm-2.3-24.5c-.1-1.5.1-3 .8-4.4.3-.5.9-.9 1.6-.9 1.5 0 2.4 1.7 2.4 5.3v14c0 3.5-.8 5.3-2.4 5.3-.6 0-1.2-.3-1.5-.7-.7-1.4-1-3-.8-4.6l-.1-14zm126.7 58.2c0-1.6-.2-3.1-.8-4.6-.4-1.1-1-2.1-1.7-3a16.8 16.8 0 0 0-2.1-1.8l-3.5-2.6c-.6-.5-1.1-1.1-1.4-1.9-.3-1-.5-2.1-.4-3.2 0-3.8 1.4-3.8 2-3.8 1.4 0 2.1 1.6 2.2 4.6v1.4l5.6-1.2v-.9a11.45 11.45 0 0 0-2.3-6.9l-.2-.2c-3.2-2.7-7.9-2.6-11.1.2l-.2.2c-1.5 2-2.2 4.6-2 7.1-.2 3.7 1.5 7.3 4.5 9.4l3.5 2.6c1.4 1.1 2.1 2.8 2 4.6v.1c0 3.6-1.6 3.6-2.4 3.6h0c-.6 0-1.2-.4-1.5-.9-.7-1.6-1-3.2-1-4.9V107l-5.6 1v.9c0 2.9.8 5.7 2.5 8.1 1.5 1.6 3.6 2.5 5.7 2.4h.4c2 0 4-.8 5.5-2.2 1.7-2 2.5-4.4 2.3-6.8zm-82.5-.9a8.91 8.91 0 0 1-.9 3.9c-.3.5-.9.7-1.4.7s-1.1-.3-1.4-.7c-.6-1.4-.9-3-.8-4.5h0v-14c-.1-1.6.1-3.1.7-4.6.3-.5.8-.8 1.4-.8.4 0 .9.2 1.1.5.6 1.1.9 2.3.9 3.5v1.4l5.5-1.3v-.9a10.05 10.05 0 0 0-2.3-6.4c-1.5-1.3-3.4-2-5.3-1.8-2.3-.1-4.4.9-5.8 2.7-1.6 2.6-2.2 5.6-1.9 8.6v12.1c-.3 3 .4 6.1 1.9 8.7l.2.3c1.5 1.6 3.5 2.4 5.7 2.4 2 0 3.9-.8 5.3-2.1l.1-.2c1.5-2.1 2.2-4.5 2.2-7v-1l-5.4-.7.2 1.2zM41.551 85h-5.8v23.9c.1 1.5-.1 3-.8 4.4-.3.5-.9.9-1.5.9h-.1c-.6 0-1.1-.3-1.4-.8-.7-1.4-.9-3-.8-4.6V85h-5.8v23c-.3 3 .4 6.1 2.1 8.7 1.4 1.6 3.4 2.5 5.5 2.6h.4a7.45 7.45 0 0 0 6.1-2.7 13.17 13.17 0 0 0 2-8.4l.1-23.2zm13.3-14h-6.9V42.5h-5.8v33.6h12.8V71zm-10.6 19.1h4.3v28.5h5.8V90.1h4.3V85h-14.4v5.1z" fill="#ddcaad"/></svg>