<?xml version="1.0"?>
<svg xmlns="http://www.w3.org/2000/svg" xmlns:xlink="http://www.w3.org/1999/xlink" xmlns:svgjs="http://svgjs.com/svgjs" version="1.1" width="512" height="512" x="0" y="0" viewBox="0 0 512 512" style="enable-background:new 0 0 512 512" xml:space="preserve" class=""><g>
<circle xmlns="http://www.w3.org/2000/svg" style="" cx="256" cy="256" r="256" fill="#f1f1f1" data-original="#ffecb3" class=""/>
<path xmlns="http://www.w3.org/2000/svg" style="" d="M511.942,260.607L411.879,160.544L236.905,80.861l-126.026,96.544L231.164,297.69l-177.991,7.308  l76.976,76.976l-57.623,7.871L184.57,501.888C207.243,508.463,231.207,512,256,512C395.845,512,509.482,399.864,511.942,260.607z" fill="#f1f1f1" data-original="#ffd863" class=""/>
<polygon xmlns="http://www.w3.org/2000/svg" style="" points="381.667,404.371 130.333,404.371 130.333,161.051 256,80.861 381.667,161.051 " fill="#ae4e32" data-original="#ae4e32" class=""/>
<polygon xmlns="http://www.w3.org/2000/svg" style="" points="381.667,161.051 256,80.861 256,80.891 256,404.371 381.667,404.371 " fill="#752f1f" data-original="#752f1f" class=""/>
<rect xmlns="http://www.w3.org/2000/svg" x="192.33" y="272.33" style="" width="127.33" height="132.04" fill="#ff6838" data-original="#ff6838" class=""/>
<rect xmlns="http://www.w3.org/2000/svg" x="256.01" y="272.33" style="" width="63.66" height="132.04" fill="#ae4e32" data-original="#ae4e32" class=""/>
<polygon xmlns="http://www.w3.org/2000/svg" style="" points="401.121,177.404 256,84.8 110.879,177.404 100.121,160.544 256,61.075 411.879,160.544 " fill="#ff6838" data-original="#ff6838" class=""/>
<polygon xmlns="http://www.w3.org/2000/svg" style="" points="256,84.8 401.121,177.404 411.879,160.544 256,61.075 " fill="#ae4e32" data-original="#ae4e32" class=""/>
<rect xmlns="http://www.w3.org/2000/svg" x="151.67" y="168.97" style="" width="82.67" height="86.74" fill="#ffb344" data-original="#ffb344"/>
<rect xmlns="http://www.w3.org/2000/svg" x="277.67" y="168.97" style="" width="82.67" height="86.74" fill="#ff9451" data-original="#ff9451" class=""/>
<path xmlns="http://www.w3.org/2000/svg" style="" d="M405.878,303.456H183.04c-2.717-6.141-5.965-12.004-10.047-17.249  C159.716,271.463,140.695,262,119.293,262c-29.512,0-54.796,17.695-66.12,42.997h52.755l22.289,29.531l-22.288,29.532H53.174  c11.324,25.301,36.609,42.994,66.121,42.994c21.402,0,40.423-9.461,53.699-24.207c4.082-5.245,7.332-11.108,10.048-17.251h222.837  c17.16,0,31.07-13.911,31.07-31.071l0,0C436.947,317.366,423.037,303.456,405.878,303.456z" fill="#005c83" data-original="#005c83" class=""/>
<path xmlns="http://www.w3.org/2000/svg" style="" d="M405.878,303.456H256v62.14h149.878c17.16,0,31.07-13.911,31.07-31.071l0,0  C436.947,317.366,423.037,303.456,405.878,303.456z" fill="#00263f" data-original="#00263f"/>
<path xmlns="http://www.w3.org/2000/svg" style="" d="M353,346.527H229.667c-6.627,0-12-5.373-12-12l0,0c0-6.627,5.373-12,12-12H353  c6.627,0,12,5.373,12,12l0,0C365,341.154,359.627,346.527,353,346.527z" fill="#0074a3" data-original="#0074a3" class=""/>
<path xmlns="http://www.w3.org/2000/svg" style="" d="M353,322.527h-96.988v24H353c6.627,0,12-5.373,12-12l0,0C365,327.899,359.627,322.527,353,322.527z" fill="#005c83" data-original="#005c83" class=""/>
<g xmlns="http://www.w3.org/2000/svg">
</g>
<g xmlns="http://www.w3.org/2000/svg">
</g>
<g xmlns="http://www.w3.org/2000/svg">
</g>
<g xmlns="http://www.w3.org/2000/svg">
</g>
<g xmlns="http://www.w3.org/2000/svg">
</g>
<g xmlns="http://www.w3.org/2000/svg">
</g>
<g xmlns="http://www.w3.org/2000/svg">
</g>
<g xmlns="http://www.w3.org/2000/svg">
</g>
<g xmlns="http://www.w3.org/2000/svg">
</g>
<g xmlns="http://www.w3.org/2000/svg">
</g>
<g xmlns="http://www.w3.org/2000/svg">
</g>
<g xmlns="http://www.w3.org/2000/svg">
</g>
<g xmlns="http://www.w3.org/2000/svg">
</g>
<g xmlns="http://www.w3.org/2000/svg">
</g>
<g xmlns="http://www.w3.org/2000/svg">
</g>
</g></svg>
