<?xml version="1.0" encoding="utf-8"?>
<svg version="1.1" id="Layer_1" xmlns="http://www.w3.org/2000/svg" xmlns:xlink="http://www.w3.org/1999/xlink" x="0px" y="0px"
	width="100px" height="100px" viewBox="0 0 100 100" style="enable-background:new 0 0 100 100;" xml:space="preserve">
<g>
	<path style="fill:#00C4CC;" d="M50,0C22.4,0,0,22.4,0,50s22.4,50,50,50s50-22.4,50-50S77.6,0,50,0z"/>
	<path style="fill:#FFFFFF;" d="M83.4,51.5c-0.6,0-1.6-0.1-1.6-0.7c0-0.6,1.3-0.3,1.2-1.6c-0.1-0.9-1-1.2-1.9-1.2
		c-2.8,0-4.7,3.7-4.3,6.8c0.1,1.2,0.7,2.5,1.9,2.5c0.9,0,2.2-1.3,2.6-3.1c0.3-1.2,1.5-2.2,2.5-2.2c0.4,0,0.7,0.1,0.9,0.7
		c0,0.3,0,0.9-0.6,2.6c-0.7,1.3-0.7,2.1-0.6,2.5c0.1,1.2,0.7,2.1,1.3,2.5c0.1,0.1,0.2,0.3,0.3,0.4c0,0.3-0.1,0.6-0.6,0.6
		c-0.1,0-0.3,0-0.4-0.1c-2.2-0.9-2.9-2.4-3.2-3.7c-0.9,1-1.9,1.6-2.9,1.6c-1.9,0-3.7-1.8-4-3.8c-0.1-0.9,0-1.7,0.3-2.6
		c-0.9,0.6-1.8,0.9-2.6,0.9h-0.7c-1.9,2.6-3.8,4.5-5.3,5.4c-0.6,0.3-1.2,0.4-1.6,0.4c-0.3,0-0.7-0.1-0.9-0.5
		c-0.4-0.6-0.6-1.6-0.7-2.8c-2.1,2.2-4.7,3.4-6.1,3.4c-1.5,0-2.4-0.9-2.5-2.4v-1.6c0.5-3.1,1.7-5,1.7-5.6c0-0.1-0.1-0.3-0.3-0.3
		c-1,0-4.3,3.4-4.8,5.7l-0.4,1.9c-0.3,1.3-1.7,2.2-2.5,2.2c-0.4,0-0.8-0.1-0.9-0.7v-0.6l0.2-1c-1.8,1.3-3.7,2.1-4.4,2.1
		c-1.3,0-2.1-0.7-2.2-1.8c-0.9,1.2-1.9,1.8-3.1,1.8c-1.5,0-2.9-1-3.5-2.5c-1,1.2-2.2,2.4-3.5,3.2c-2.1,1.3-4.3,2.4-7.1,2.4
		c-2.5,0-4.6-1.3-5.7-2.5c-1.8-1.6-2.6-4-2.8-6.3c-0.9-7.1,3.4-16,10-20c1.6-0.9,3.1-1.5,4.7-1.5c3.1,0,5.6,2.4,5.9,5
		c0.3,2.5-0.7,4.6-3.4,5.9c-1.5,0.7-2.1,0.7-2.4,0.3c-0.1-0.3,0-0.6,0.3-0.9c2.5-2.2,2.5-3.8,2.4-6.3c-0.1-1.6-1.3-2.5-2.5-2.5
		c-5,0-12.2,11.2-11.2,19.3c0.4,3.1,2.4,6.9,6.3,6.9c1.3,0,2.6-0.4,4-1c2.1-1,3.4-1.9,4.6-3.4c-0.3-3.7,2.9-8.5,7.6-8.5
		c2.2,0,3.8,0.9,4,2.5c0.3,2.2-1.6,2.5-2.2,2.5s-1.6-0.1-1.6-0.7c-0.1-0.6,1.3-0.3,1.2-1.6c-0.1-0.9-1-1.2-1.9-1.2
		c-2.9,0-4.7,4.1-4.3,6.8c0.1,1.2,0.7,2.4,1.9,2.4c0.9,0,2.2-1.3,2.5-3.1c0.3-1.3,1.4-2.2,2.5-2.2c0.4,0,0.7,0.1,0.8,0.7v0.6
		C43.3,54,42.9,55.7,43,56c0,0.3,0.2,0.7,0.8,0.7c0.4,0,1.8-0.7,3.3-1.9l1-5.6c0.1-1,0.6-2.1,2.5-2.1c0.4,0,0.7,0.1,0.9,0.7v0.6
		L50.9,51c1.9-2.5,4.6-4.1,6.3-4.1c0.7,0,1.3,0.4,1.3,1.2c0,0.4,0,1.2-0.3,1.9c-0.6,1.6-1.3,4-1.8,6.2c0,0.6,0.2,1.2,0.9,1.2
		c0.7,0,2.8-0.9,4.6-3.1v-0.9c0-1.8,0.1-3.1,0.4-4.1c0.3-1.2,1.8-2.2,2.5-2.2c0.4,0,0.9,0.3,0.9,0.7c0,0.1,0,0.4-0.1,0.6
		c-0.6,1.9-1,3.5-1,5.3c0,1,0.1,2.5,0.4,3.2c0,0.1,0.1,0.3,0.3,0.3c0.3,0,2.4-1.9,3.7-4.3c-1.3-0.9-2.1-2.4-2.1-4
		c0-2.9,1.9-4.6,3.5-4.6c1.5,0,2.5,1,2.5,2.9c0,1.3-0.4,2.6-1.2,4h0.4c1.2,0,1.9-0.4,2.5-1c0.1-0.1,0.3-0.4,0.6-0.4
		c1.3-1.8,3.5-3.1,5.9-3.1c2.1,0,3.8,0.9,4,2.5C85.9,51,84,51.5,83.4,51.5L83.4,51.5L83.4,51.5z"/>
	<path style="fill:#00C4CC;" d="M69.7,45.7c-0.4,0-0.7,0.7-0.7,1.5c0,1.2,0.6,2.5,1.3,3.1c0.3-0.9,0.4-1.6,0.4-2.5
		C70.7,46.5,70.1,45.7,69.7,45.7"/>
</g>
</svg>
