<svg xmlns="http://www.w3.org/2000/svg" viewBox="0 0 2500 1079" fill="#039" xmlns:v="https://vecta.io/nano"><path d="M2388.426 877.773c-32.8 0-59.3-26.5-59.3-59.3s26.5-59.3 59.3-59.3 59.3 26.5 59.3 59.3c.3 32.8-26.2 59.3-59.3 59.3zm0-107.4c-26.5 0-48 21.5-48 48s21.3 48 48 48c26.3 0 48-21.5 48-48 .1-26.7-21.4-48-48-48zm20.5 80.9c-7.8 0-11.3-4.3-13.8-9.3-3-6.5-4.5-14.3-11.3-15.3-1.5-.3-2.8-.3-3.8-.5v25.3h-7c-7.5 0-11.8-4.5-11.8-10.5v-54.6c5-1.8 14.8-3 20-3h7.5c14.8 0 24.8 8.5 24.8 20.3 0 7.5-4.3 14.3-12.5 17.5 5.8 2.8 7.5 9 11 15.8 2.5 4.8 4.8 7.5 6.8 9.8v.5c-3.8 3.5-5.8 4-9.9 4h0zm-21.2-53.8h-3.8c-.8 0-2.3.3-3.5.3v14c2 0 4.3 0 7 .3 4.3 0 7.5-2.3 7.5-6.5.3-6.6-3-8.1-7.2-8.1h0zm-1305.6-424c-14 0-24.8-.5-32-1.3v-188.8h-70.8l2-53.8h201.5c1.3 10 2.3 28 3.3 53.8h-70.1v188.9c-5 .5-10.3 1-16.3 1-6.1.2-11.6.2-17.6.2zm149.4.5c-6.8 0-13-.3-18.8-.5l-13.5-1v-119.8c0-22-.3-44-1-66.1l-3-65.1c4.5-1.5 13.3-3 26.5-4.3s27-2.5 41.3-3c1 6.3 1.5 11.8 2 18.3.5 6.3.8 14.8 1 25.3.5 11 .5 20 .5 27v21.5c4.3-6 9.5-11 15.3-15.5 5.8-4.3 12.5-7.5 19.8-9.8s15-3.3 22.5-3.3c14.3 0 25.8 2.3 34.8 7.5 8.8 5.3 15.8 11.8 20 20.5 4.5 8.5 7.5 17 8.5 25.8 1.3 8.5 2 17.5 2.3 26.8.3 6.8.5 21.8.5 45.5v69.1c-12 1.3-22.8 1.8-32.5 1.8-4 0-10-.3-17.5-.5-7.5-.3-13.5-.8-18-1.3l1.3-83.3c0-14.5-.8-25.5-2.3-33.3s-4.3-13.5-8.3-17-8.5-5.3-13.5-5.3c-5.5 0-10.3 1.8-14.8 5-4.5 3.3-8 8-10.5 13.8-2.5 6-4 12.3-5 19-2 16.5-3 37.5-3 63.1l.5 38c-10.3.6-22.1 1.1-35.1 1.1h0zm296.6 2.5c-18.8 0-35-2.5-48.8-7.8-14-5.3-25.5-12.3-34.8-21-9.3-9-16-19.5-20.8-31.5-4.5-12-6.8-24.8-6.8-38.5 0-14 2.3-27.3 7-39.3 4.8-12.3 11.5-22.8 20.5-31.8s20-16 33-21.3 28-7.8 44.5-7.8c22 0 40.3 4.3 54.6 13.3s23.8 19.5 28.5 32c4.8 12.3 7 24.3 7 35.8 0 5.5-.3 11.3-1 18-.8 6.5-1.8 12.8-3 18.3h-120.1c1.3 5.8 3.3 10.5 6.3 15 3 4.3 7 8 11.5 11 4.8 2.8 10 5.3 16.3 6.8 6 1.5 12.8 2.3 20 2.3a124.8 124.8 0 0 0 27.3-3c9-2 17.3-4.5 24.3-7.8l9 42c-6.8 4-15 7.3-24.8 9.5-9.5 2.5-18.8 4-27.3 4.8-8.2.5-15.7 1-22.4 1h0zm-40.6-118.8h60.8c.3-1.5.5-3.3.5-5.5 0-6.8-1.3-12.3-3.8-17-2.5-4.8-6.3-8.3-10.8-10.3-4.8-2-9.5-3-14.5-3-7.8 0-14 2.3-19.3 7-5.3 4.8-8.5 9.8-10.3 15-1.6 5.3-2.3 10-2.6 13.8h0zm-454.4 433.9c-13.5 0-24.3-.3-32-1v-158.9c0-14.8-.3-29-.8-43s-1.3-27.5-2.5-40.5h57.3l98.1 139.1v-139.2h64.6v242.7h-53.3l-99.6-131.6c.5 10.5.5 22.3.5 35.3v96.3c-8.3.8-19.1.8-32.3.8h0zm280.8 3.3c-10.5 0-19.8-1.3-28-4s-15.3-6.5-21-11.8c-5.8-5.3-10.3-11.5-13.3-18.8-3-7.5-4.8-15.8-4.8-25.3 0-14 3.3-26 10-35.5 6.8-9.5 15.8-16.8 26.8-21.5 11-4.8 22.3-8 33.3-9.3s21-2 30-2c8 0 15.8.5 23.3 1.3 0-6.8-2-12-6-15.5-4-3.8-9-6-15.3-7-6-1-12.3-1.5-18.3-1.5-6.5 0-15 .8-25.8 2-10.8 1.3-19.8 3-27.3 5l-8.3-44c9.5-2.8 22.5-5.5 39-7.8 16.3-2.3 31.8-3.3 46.3-3.3 18.8 0 34.3 3.3 47 9.8 12.8 6.8 21.3 14.8 26 24.5 4.8 10 7.5 19.5 8 29 .5 7.5.5 20 .5 37v47.3c0 12.3.5 28 2 47.3-4.3.8-9.8 1.3-17 1.5-7 .3-14.3.3-21.8.3-11.3 0-20.3-.3-27.5-.8v-20c-12.8 15.6-32.3 23.1-57.8 23.1h0zm21.7-42.8c8.8 0 16-2.5 21.5-7.8 5.8-5.3 9.5-11.5 11.3-18.8s2.8-14.3 2.8-20.3c-2-.3-5-.8-9-1-4-.3-7.8-.5-11.3-.5-5.3 0-10 .5-14.8 1.5s-8.8 2.5-12.3 4.8-6.5 5-8.5 8.5-3.3 7.8-3.3 12.8c0 4.8 1 9 2.8 12.3 2 3.3 4.8 5.3 8.5 6.8 4.3 1.2 8.1 1.7 12.3 1.7h0zm218.2 42.8c-13.5 0-24.8-2-33.8-6-9.3-4-16-9.8-20.8-17-4.8-7.3-7.8-14.8-9-22.5-1.3-7.8-2-15.5-2-23.3v-79.9h-24.5v-39l25.8-7.5v-37c6-2.3 16-4.3 29.5-6.3 13.8-2 25.3-3.3 34.5-3.5 1.5 12.3 2.3 28 2.3 46.8h45.8c-.3 7.8-1.3 16.5-2.5 26.3-1.3 9.8-2.5 16.8-3.5 21h-40v68.1c0 5.3.5 9.5 1 13.3.8 3.8 2 7 3.8 9.8s4.3 4.8 7 6.3c3 1.5 7 2.3 11.8 2.3 3.5 0 7.5-.3 11.8-1s8.3-1.5 12.3-2.8l6.3 41c-8.3 3.3-17.5 6-27.5 7.5-10.2 1.4-19.5 3.4-28.3 3.4h0zm111.7-211c-12.5 0-22-2.8-28.3-8.3s-9.3-13.3-9.3-23.5c0-10 3.3-18 10-23.8 6.8-5.8 16-8.5 27.8-8.5 13.3 0 22.8 2.8 28.5 8.5 5.8 5.8 8.5 13.8 8.5 23.5 0 10-3.3 17.8-9.8 23.5-6.2 5.6-15.7 8.6-27.4 8.6zm.7 207.7c-13.3 0-24-.3-32-1v-52.1l-.8-65.6c-.5-23.6-1.3-45.5-2.5-65.6 5-1.5 13.8-3 26.8-4.3s26.3-2.3 40.3-3c1 6.3 1.5 15.8 2.3 28.8l1 41.8v119.9c-4 .5-8.5.8-13.3.5s-8.8 0-12 .3l-9.8.3h0zm177.4 3.3c-14.8 0-28.5-2-41-6.3s-23.3-10.5-32.3-18.8-16-18.5-21-31c-5-12.3-7.5-26.5-7.5-42.8s3-30.5 8.8-43 13.5-23 23.3-31.5 20.8-15 33.3-19.3 25.8-6.5 39.3-6.5c15.3 0 29 2.3 41.3 6.5 12.5 4.3 22.8 11 31.8 19 8.8 8.5 15.8 18.5 20.5 30.8 4.8 12.3 7 26 7 41.5 0 16.3-2.8 30.5-8.3 43.3-5.5 12.5-13 23-22.5 31.8-9.5 8.5-20.5 15-33 19.5-12.4 4.8-25.9 6.8-39.7 6.8h0zm.5-48.1c8.5 0 15.5-2.8 20.8-8.3s8.8-12 10.5-19.8c1.8-7.8 2.5-15.3 2.5-22.3 0-11.8-1.5-21.5-4.8-29.3-3.3-8-7.5-13.5-12.5-16.8-5.3-3.3-10.3-5-15.5-5-5.5 0-10.3 1.3-14.5 3.8s-7.8 6-10.8 10.3c-2.8 4.5-5 9.8-6.5 15.8-1.5 6.3-2.3 13-2.3 20.5s.5 14.3 2.3 20.5c1.5 6.3 3.3 11.5 6.3 16.3 2.8 4.8 6.3 8 10.5 10.8 4 2 8.8 3.5 14 3.5zm168 45.6c-6.8 0-13-.3-18.8-.5l-13.5-1v-112.4c0-12.3-.3-24.5-.8-36.8s-1.3-23.8-2.3-34.5c2.5-.8 7.5-1.5 14.5-2.5 7.3-1 16.5-2 27.8-2.8 11.3-1 20-1.3 25.8-1.3 1.5 8 2.3 17 2.3 27.5 4-6.8 9-12.5 15.3-17.3s13.3-8.5 21-10.8c7.8-2.3 15.5-3.5 23-3.5 14.5 0 26 2.3 35.3 7.5 9 5.3 15.5 11.8 20 20.5 4.3 8.5 7 17 8.5 25.8 1.3 8.5 2 17.5 2.3 26.5.3 6.8.5 21.8.5 45.5v68.8c-12 1.3-22.8 1.8-32.5 1.8-3.8 0-9.5-.3-17.3-.5-7.8-.3-13.8-.8-18-1.3l1-82.6c0-8.3-.3-15.8-1-22.8-.8-7-2-12.8-3.8-17.5-2-4.8-4.5-8.8-7.8-11.3-3.3-2.8-7.8-4-13-4-5.5 0-10.3 1.8-14.8 4.8-4.5 3.3-8 8-10.5 14s-4 12.3-5 19c-2 16.5-3 37.3-3 62.3l.5 38c-11 .9-22.7 1.4-35.7 1.4h0zm252.7 2.5c-10.5 0-19.8-1.3-28-4s-15.3-6.5-21-11.8c-5.8-5.3-10.3-11.5-13.3-18.8-3-7.5-4.8-15.8-4.8-25.3 0-14 3.3-26 10-35.5 6.8-9.5 15.8-16.8 26.8-21.5 11-4.8 22.3-8 33.3-9.3s21-2 30-2c8 0 15.8.5 23.3 1.3 0-6.8-2-12-6-15.5-4-3.8-9-6-15.3-7-6-1-12.3-1.5-18.3-1.5-6.5 0-15 .8-25.8 2-10.8 1.3-19.8 3-27.3 5l-8.3-44c9.5-2.8 22.5-5.5 39-7.8 16.3-2.3 31.8-3.3 46.3-3.3 18.8 0 34.3 3.3 47 9.8 12.8 6.8 21.3 14.8 26 24.5 4.8 10 7.5 19.5 8 29 .5 7.5.5 20 .5 37v47.3c0 12.3.5 28 2 47.3-4.3.8-9.8 1.3-17 1.5-7 .3-14.3.3-21.8.3-11.3 0-20.3-.3-27.5-.8v-20c-13 15.6-32.3 23.1-57.8 23.1h0zm21.8-42.8c8.8 0 16-2.5 21.5-7.8 5.8-5.3 9.5-11.5 11.3-18.8s2.8-14.3 2.8-20.3c-2-.3-5-.8-9-1-4-.3-7.8-.5-11.3-.5-5.3 0-10 .5-14.8 1.5s-8.8 2.5-12.3 4.8-6.5 5-8.5 8.5-3.3 7.8-3.3 12.8c0 4.8 1 9 2.8 12.3 2 3.3 4.8 5.3 8.5 6.8 4 1.2 8 1.7 12.3 1.7h0zm178.2 39.5c-13.3 0-24-.3-32-1v-119.9c0-22-.3-44-1-66.1l-3-65.1c4.5-1.5 13.3-3 26.5-4.3 13.3-1.3 27-2.5 41.3-3 1 6.3 1.5 15.8 2.3 28.8l1 41.8v187.9c-4 .5-8.5.8-13.3.5-4.8 0-8.8 0-12 .3l-9.8.1h0zm-1463 312.6v-157.2c0-33.5-.8-61.6-2.3-83.3 4.8-.8 11.8-1.5 20.8-2s17.8-.8 26-.8c7.8 0 13.8 0 18 .8 1.3 11 2 23.8 2.3 38.5.5 14.3.5 30.5.5 48.3v104.1h93.8c.3 2 1 8.5 1.5 20.3.8 11.5 1.5 21.8 1.5 31.8l-162.1-.5zm270 4.5c-14.8 0-28.5-2-41-6.3s-23.3-10.5-32.3-18.8-16-18.5-21-31-7.5-26.5-7.5-42.8c0-16 3-30.5 8.8-43s13.5-23 23.3-31.5 20.8-15 33.3-19.3 25.8-6.5 39.3-6.5c15.3 0 29 2.3 41.3 6.8 12.5 4.3 22.8 11 31.8 19 8.8 8.5 15.8 18.5 20.5 30.8 4.8 12.3 7 26 7 41.8 0 16.3-2.8 30.5-8.3 43.3-5.5 12.5-13 23-22.5 31.8-9.5 8.5-20.5 15-33 19.5-12.4 4.2-25.7 5.9-39.7 6.2h0zm.5-48.3c8.5 0 15.5-2.8 20.8-8.3s8.8-12 10.5-19.8c1.8-7.8 2.5-15.3 2.5-22.3 0-11.8-1.5-21.5-4.8-29.3s-7.3-13.5-12.5-16.8c-5.3-3.3-10.3-5-15.5-5-5.5 0-10.3 1.3-14.5 3.8-4.3 2.5-7.8 6-10.8 10.3-2.8 4.5-5 9.8-6.5 15.8-1.5 6.3-2.3 13-2.3 20.5s.5 14.3 2.3 20.5c1.8 6.3 3.5 11.5 6.3 16 2.8 4.8 6.3 8 10.5 10.8 4 2.5 9 3.8 14 3.8h0zm207.7 48.3c-13.5 0-24.8-2-33.8-6-9.3-4-16-9.8-20.8-17-4.8-7.3-7.8-14.8-9-22.5-1.3-7.8-2-15.5-2-23.3v-79.8h-24.5v-39l25.8-7.5v-37c6-2.3 16-4.3 29.5-6.3 13.8-2 25.3-3.3 34.5-3.5 1.5 12.3 2.3 28 2.3 46.8h46c-.3 7.8-1.3 16.5-2.5 26.3-1.3 9.8-2.5 16.8-3.5 21h-40.3v68.3c0 5.3.5 9.5 1 13.3.8 3.8 2 7 3.8 9.8s4.3 4.8 7 6.3c3 1.5 7 2.3 11.8 2.3 3.5 0 7.5-.3 11.8-1 4.3-.8 8.3-1.5 12.3-2.8l6.3 41c-8.3 3.3-17.5 6-27.5 7.5-10.2 1.8-19.4 2.8-28.2 3.1h0zm152.4 0c-13.5 0-24.8-2-33.8-6-9.3-4-16-9.8-20.8-17-4.8-7.3-7.8-14.8-9-22.5-1.3-7.8-2-15.5-2-23.3v-79.8h-24.5v-39l25.8-7.5v-37c6-2.3 16-4.3 29.5-6.3 13.8-2 25.3-3.3 34.5-3.5 1.5 12.3 2.3 28 2.3 46.8h45.8c-.3 7.8-1.3 16.5-2.5 26.3-1.3 9.8-2.5 16.8-3.5 21h-40.3v68.3c0 5.3.5 9.5 1 13.3.8 3.8 2 7 3.8 9.8s4.3 4.8 7 6.3c3 1.5 7 2.3 11.8 2.3 3.5 0 7.5-.3 11.8-1 4.3-.8 8.3-1.5 12.3-2.8l6.3 41c-8.3 3.3-17.5 6-27.5 7.5-10 1.8-19.5 2.8-28 3.1h0zm182.5 0c-18.8 0-35-2.5-48.8-7.8-14-5.3-25.5-12.3-34.8-21-9.3-9-16-19.5-20.8-31.5s-6.8-24.8-6.8-38.5c0-14 2.3-27.3 7-39.3 4.8-12.3 11.5-22.8 20.5-31.8s20-16 33-21.3 28-7.8 44.5-7.8c22 0 40.3 4.3 54.6 13.3s23.8 19.5 28.5 32c4.8 12.3 7 24.3 7 35.8 0 5.5-.3 11.3-1 18-.8 6.5-1.8 12.8-3 18.3h-120.1c1.3 5.8 3.3 10.5 6.3 15 3 4.3 7 8 11.5 11 4.8 2.8 10 5.3 16.3 6.8 6 1.5 12.8 2.3 20 2.3a124.8 124.8 0 0 0 27.3-3c9-2 17.3-4.5 24.3-7.8l9 42c-6.8 4-15 7.3-24.8 9.5-9.5 2.5-18.8 4-27.3 4.8-8.4.2-15.9.7-22.4 1h0zm-40.6-119.1h60.8c.3-1.5.5-3.3.5-5.5 0-6.8-1.3-12.3-3.8-17-2.5-4.8-6.3-8.3-10.8-10.3-4.8-2-9.5-3-14.5-3-7.8 0-14 2.3-19.3 7-5.3 4.8-8.5 9.8-10.3 15-1.6 5.3-2.6 10-2.6 13.8h0zm199 115.8c-15 0-25.8-.3-32-1v-88.8c0-8.5-.3-22.8-.8-42.3s-1.3-37.3-2.5-53.1c6.8-1.5 16-3 28.3-3.8 12-1 24.5-1.8 37.3-2.5 1 5.8 2 15.3 2.3 28.3 3.5-7 8.5-13.3 14.8-18.5 6.3-5.3 12.8-9 19.3-11s12.5-3 18-3c4.3 0 8.5.5 12.8 1.3 4 1 8 2 11.8 3.3v6.5c0 7.5-.8 15.8-2 24.3-1.3 8.8-2.8 16.3-4.3 22.3-1.5 6.3-3 11.3-4.3 14.8-4-4.3-8.5-7.5-13.5-9.8s-10.3-3.5-15.3-3.5c-6.3 0-12 2.3-17.5 6.5-5.3 4.5-9.3 10-12 17-2.8 7-4.3 13.8-5 21-1.3 12-1.8 27-1.8 45.3l.5 46-15.3 1c-5.6-.5-12.1-.5-18.8-.3h0zm140.6 73.3c-1.5-2.8-3.3-6.3-5.3-10.5-2-4.5-3.8-9.3-5.5-14.3-1.8-5-3.3-10.3-4.8-15.3-1.3-5.3-2-9.8-2.3-14 9.5-2.8 17.8-5.5 25.3-8.5s14-6.3 19.8-10c5.8-3.8 10.5-7.5 14-11.3-4.3-6.3-8.8-13.5-13-21.5-4.3-8-8.5-16.8-12.8-26.3-4.3-9.3-8.3-19.3-12-29.5-3.8-10.3-7.3-21-10.5-31.8-3.3-10.8-6-21.8-8.5-32.8s-4.5-22-5.8-32.8c6.3-1.5 17-3 32-4.3s27-2 36-2c1.5 11.5 3.3 23.3 5.8 35 2.5 11.8 5.3 23.3 8.5 34.3 3.3 11 6.8 21.8 10.5 31.8 3.8 10 7.5 19 11.8 27.5 8.5-18.8 15.3-39 20.5-60.6 5-21.5 9.3-44 12.5-67.8a314.79 314.79 0 0 1 35.5 2c13.5 1.5 23.3 2.8 29 4.3-2.8 18-6.3 35.8-10.8 53.1s-9.5 33.8-15.3 49.5c-5.8 15.5-12 30.3-19 43.8s-14.3 25.3-21.8 35.3c-11.8 15.5-25 28.8-39.3 39.8-14.5 11-28 19.3-41 24.8-12.7 5.1-23.7 9.4-33.5 12.1h0zm-1286.5-380.6l-6 12.8c-11.5 21-25 38-39.8 49.8-14.8 12.3-30.8 18.8-46.5 19-17.8-.3-32.3-8.3-43.5-22.5-11.5-14.5-18.8-33.8-22.3-58.3-9 12-19.3 21.8-31.8 29.3-12 8.3-24.5 13.5-36.5 16-12.3 2-23.5 1.8-35-2.5-17.5-7.3-30.3-20.8-39-40.8-8.5-20.3-12.8-44.3-11.3-72.6 1-28 7.3-57.3 18.5-88.1 8.3-21.5 17.8-40.5 28.8-57.6 11.3-16.5 23-31 36.3-42.8l-20.5-80.3-10.8 21.5c-9 17.5-19 32-30.3 44.3-10.8 11.8-22.5 21-35 29l45.8-83.3c18.5-36 34.8-69.8 49.8-102.1 14.8-32 26.5-61.6 35.3-88.1 8.5-26.8 12.8-49.5 11.8-67.8-.5-18.8-7.3-31.8-20.5-39.5-16.3-9-33.8-8.5-52.6 1-18.5 10-37 26.8-56.6 50.3-19.5 23.8-38.5 51.8-57.1 84.3-18.8 32.3-36.3 66.3-53.1 102.6-16.5 36.3-31 71.6-44.3 105.6-12.8 33.8-23.5 64.6-32.5 92.3l-20.3 65.1-7 24.8c0-.3-2.8-4.5-8.3-12.8-4.8-8.3-13-18-23.5-30.3-10.3-12.3-23-24.3-39-36.3-15.8-12.3-33.8-22.3-54.3-30.5-20.8-8.3-43.8-12-69.8-12.8-22 0-41 3.3-57.1 9-15.8 6-28 13.5-36.5 23.3-8.8 9-13.3 18.5-13.3 28 .5 10 4.3 18 11 24.5 6.8 6.8 16.3 11.5 27 13.8 13.5 3.3 25.8 8 36 13.3 10.3 5.3 20.5 12.8 30 21.8 9.3 9 19 21 29.5 35.3 8.3 11.5 16.3 25.3 22.8 41.8 7 17 12.8 34.3 18.5 52.6 5.5 17.5 10 34.3 13.8 48.5 3.3 14.3 6.3 24.8 7.5 31.8 11.8 47.5 32.8 89.8 62.3 127.1 29.8 37 66.1 65.6 109.4 86.8 42.8 21.3 89.8 32.3 141.1 32.8 44.8-.3 86.8-8.5 125.4-25.3 39-16.3 73.3-39.3 102.9-68.8 29.3-29.3 52.1-63.3 68.6-102.4 17-39 25-80.6 25.8-125.4-.1-15.7-1.6-31.4-3.8-47.2h0zm-158.9 221c-30.3 17.3-62.8 25.8-96.8 26.3-38.3-.5-74.6-11.8-108.6-33.3-33.5-21.8-63.3-51.6-89.6-89.8-26.3-38.5-47-83.8-62.8-134.9 22 39.5 48.5 73.6 78.8 103.4 30.8 29 65.1 51.8 102.1 68.1 37 15.8 76.6 24.3 117.9 24.5 51.1-.3 98.1-12.8 141.9-36.3-25.1 31.2-52.4 55-82.9 72h0zm47.8-462.5c-5.8-14.8-14.8-24.5-27.3-29.3-4.8-1.5-9.3-2.5-14.5-2.5-13 0-26.3 5.3-40 15-14.3 10-26.8 23.5-39 41-12.3 17.8-23.3 38-32.3 61.8-10 26.8-15.8 51.6-17.5 75.8-2.5 23.8 0 44.3 5.8 61.1 6 17 15.3 27.5 29 33.8 4.5 1.5 9.5 2.3 14.3 2.5 13.3 0 27.3-5.5 41.3-16 15.5-11.3 27.5-26 37-45.5 10.3-23.3 15.5-44 14-62.1-1.3-17.5-9.3-30.3-24.5-37-5.8-2-11.8-3.5-17.5-3.5-15.5.5-30.8 6.3-46.8 18 1.5-1.8 2.5-3.5 3.3-5.8 7.5-16 17.5-28 29.8-36.8 11.8-9 23.8-13.5 36.5-13.5 7-.3 12.8 1.5 18.5 4.5 10 5.3 17 12.8 21 23.8 4.5 10.5 6.3 22.8 4.8 36.8 7.3-24.3 11.5-46.8 11.8-67.6 1-21.9-1.5-40.2-7.7-54.5h0zm123.8 106.9c-2.5-14.5-6.3-25.8-12.3-34.5-6.3-8.5-14.5-12.8-24.5-12.8-11.8 0-23.5 5.5-35.3 16-12.3 10.3-23.5 24.5-33.5 42-10.3 17.8-19 37-24.8 58.8-6 22-8.3 41.3-7.8 58.8s4.3 31.8 11 42.3c6 10.5 15.3 15.8 27 16.3 10.8-.5 22-5.5 33.8-15 11.5-10 22.3-23 32.5-39.3 3.3-4.8 6-10.5 8.3-15.5 4.5-12 7-24.3 7-34.5 0-10.8-2-20-6-27.8-4-7.3-10.3-12-18-14.5-4-1.3-8.3-1.8-12-1.8-11.5-.3-23.3 4.5-34.5 14.5.3-1.3 1.3-3 2-4.8 6-13.3 13.5-23.5 23.3-31.3 9-7.5 19-11.8 29.3-12 3.3 0 7 .5 10 2 7.8 2.8 12.8 8 17 15.8 4.3 8 5.3 16.3 4.8 26.8 3-18.5 4-35 2.7-49.5h0zm-391.1-531c-15.5-21.5-30.8-31.8-45.8-32.3-7-.3-13 1.8-19.3 6.3-23.8 16.3-33.5 45.5-29.5 88.8 4.3 42.8 20.5 99.8 49.8 172.2 13.3-26.8 27.3-52.8 42.5-78.8 15.5-26.3 31.8-50.3 48.8-71.6-15.7-35.8-31.5-63.9-46.5-84.6h0z"/></svg>