<?xml version="1.0"?>
<svg xmlns="http://www.w3.org/2000/svg" xmlns:xlink="http://www.w3.org/1999/xlink" xmlns:svgjs="http://svgjs.com/svgjs" version="1.1" width="512" height="512" x="0" y="0" viewBox="0 0 512 512" style="enable-background:new 0 0 512 512" xml:space="preserve" class=""><g>
<circle xmlns="http://www.w3.org/2000/svg" style="" cx="256" cy="256" r="256" fill="#f1f1f1" data-original="#e02424" class=""/>
<path xmlns="http://www.w3.org/2000/svg" style="" d="M512,256c0-10.419-0.639-20.689-1.848-30.782L373.799,88.865H125.022V411.74l98.176,98.176  C233.938,511.289,244.886,512,256,512C397.385,512,512,397.385,512,256z" fill="#f1f1f1" data-original="#990011" class=""/>
<rect xmlns="http://www.w3.org/2000/svg" x="125.02" y="88.86" style="" width="248.78" height="322.87" fill="#ffffff" data-original="#ffffff" class=""/>
<rect xmlns="http://www.w3.org/2000/svg" x="249.41" y="88.86" style="" width="124.39" height="322.88" fill="#fff5cb" data-original="#fff5cb" class=""/>
<rect xmlns="http://www.w3.org/2000/svg" x="169.03" y="141.71" style="" width="160.75" height="24.1" fill="#0088ff" data-original="#0088ff" class=""/>
<rect xmlns="http://www.w3.org/2000/svg" x="249.41" y="141.71" style="" width="80.38" height="24.1" fill="#004eb1" data-original="#004eb1" class=""/>
<rect xmlns="http://www.w3.org/2000/svg" x="169.03" y="206.07" style="" width="160.75" height="24.1" fill="#0088ff" data-original="#0088ff" class=""/>
<rect xmlns="http://www.w3.org/2000/svg" x="249.41" y="206.07" style="" width="80.38" height="24.1" fill="#004eb1" data-original="#004eb1" class=""/>
<rect xmlns="http://www.w3.org/2000/svg" x="169.03" y="270.43" style="" width="160.75" height="24.1" fill="#0088ff" data-original="#0088ff" class=""/>
<rect xmlns="http://www.w3.org/2000/svg" x="249.41" y="270.43" style="" width="80.38" height="24.11" fill="#004eb1" data-original="#004eb1" class=""/>
<rect xmlns="http://www.w3.org/2000/svg" x="249.41" y="334.8" style="" width="80.38" height="24.1" fill="#fec000" data-original="#fec000"/>
<polygon xmlns="http://www.w3.org/2000/svg" style="" points="353.602,331.5 321.22,348.799 324.877,312.269 420.18,169.921 448.905,189.153 " fill="#00e8f2" data-original="#00e8f2"/>
<polygon xmlns="http://www.w3.org/2000/svg" style="" points="448.905,189.153 353.602,331.5 321.22,348.799 434.542,179.537 " fill="#00b7be" data-original="#00b7be"/>
<polygon xmlns="http://www.w3.org/2000/svg" style="" points="353.602,331.5 324.877,312.269 321.22,348.799 " fill="#0088ff" data-original="#0088ff" class=""/>
<polygon xmlns="http://www.w3.org/2000/svg" style="" points="353.602,331.5 321.22,348.799 339.24,321.885 " fill="#004eb1" data-original="#004eb1" class=""/>
<g xmlns="http://www.w3.org/2000/svg">
</g>
<g xmlns="http://www.w3.org/2000/svg">
</g>
<g xmlns="http://www.w3.org/2000/svg">
</g>
<g xmlns="http://www.w3.org/2000/svg">
</g>
<g xmlns="http://www.w3.org/2000/svg">
</g>
<g xmlns="http://www.w3.org/2000/svg">
</g>
<g xmlns="http://www.w3.org/2000/svg">
</g>
<g xmlns="http://www.w3.org/2000/svg">
</g>
<g xmlns="http://www.w3.org/2000/svg">
</g>
<g xmlns="http://www.w3.org/2000/svg">
</g>
<g xmlns="http://www.w3.org/2000/svg">
</g>
<g xmlns="http://www.w3.org/2000/svg">
</g>
<g xmlns="http://www.w3.org/2000/svg">
</g>
<g xmlns="http://www.w3.org/2000/svg">
</g>
<g xmlns="http://www.w3.org/2000/svg">
</g>
</g></svg>
