<?xml version="1.0" encoding="utf-8"?>
<svg version="1.1" id="Layer_1" xmlns="http://www.w3.org/2000/svg" xmlns:xlink="http://www.w3.org/1999/xlink" x="0px" y="0px"
	 viewBox="0 0 766 162" style="enable-background:new 0 0 766 162;" xml:space="preserve">
<g>
	<linearGradient id="SVGID_1_" gradientUnits="userSpaceOnUse" x1="0" y1="81" x2="766" y2="81">
		<stop  offset="0" style="stop-color:#E03E3C"/>
		<stop  offset="0.3659" style="stop-color:#963E5F"/>
		<stop  offset="1" style="stop-color:#134B8D"/>
	</linearGradient>
	<rect style="fill:url(#SVGID_1_);" width="766" height="162"/>
	<g>
		<path style="fill:#FFFFFF;" d="M112.8,79.2c-1.1-0.5-2.2-0.9-3.6-1.4c11.5-4.5,17.6-12.9,18.9-24.8c0-1.9,0-3.8-0.2-5.7
			c-0.5-2.4-1.2-4.7-2.4-6.9c-2.2-3.9-5.5-6.5-9.5-8.4c-3.5-1.3-7.1-1.8-10.8-2.2H90c-4.9,0.1-9.7,0.1-14.6,0
			c-1.7,0.1-3.4,0.1-5.1,0C66.3,30,62,30,58,29.8c-2.9,0.1-5.7,0.1-8.6,0c-1.1,0.3-2.5-0.4-2.8,1.8c-0.7,5.3-1.7,10.6-2.6,15.9
			c-1.1,6.1-2.1,12.1-3.2,18.2c0,0.6,0,1.1-0.1,1.6c-1.3,8-2.6,16.1-4,24.2c-0.8,4.7-1.7,9.3-2.5,14c-0.5,4.5-1.4,8.9-2.1,13.3
			c-0.7,4.4-1.6,8.8-2.1,13.3c0.6,0.1,1.3,0.1,1.9,0.1h39.9c0.8,0,1.6,0.1,2.4,0.1c4.9-0.1,9.9,0,14.8-0.5c0.4-0.1,0.7-0.3,1.1-0.3
			c5.2-0.6,10.3-1.2,15.2-3c4.1-1.9,7.6-4.7,10.8-7.9c5.2-6.1,8.1-13.1,8.8-21.1C125.5,90.2,121.3,82.8,112.8,79.2z M94.6,99.3
			c-0.9,5.8-4.9,9.5-11.1,10.3c-3.1,0.4-6.2,0.4-9.4,0.3c0,0-0.1-0.1-0.1-0.1c-3,0-5.8,0-8.8,0.1c-0.8,0-1.1-0.2-1-1.1
			c1-6,2.1-12,3.1-18.1c0.1-0.7,0.4-1,1.1-1c1.9,0.2,3.8,0.2,5.7,0.2c4.9,0,9.7-0.5,14.6,0.6C93.3,91.6,95.3,94.7,94.6,99.3z
			 M88.8,69.3c-1.5,0.5-3,0.6-4.5,0.6H72.3c-1.1,0-1.4-0.3-1.2-1.3c1-5.5,1.9-10.9,2.8-16.4c0.1-0.6,0.2-1.1,1-1.1
			c4.4,0.1,8.9,0.1,13.3,0.1c2,0,4,0.3,5.8,1.1c1.4,0.6,2.3,1.6,2.9,3C99.3,60.9,95,68.6,88.8,69.3z"/>
		<path style="fill:#FFFFFF;" d="M154.6,29.8c2.2,0.1,4.4,0.1,6.7,0c5.4,0.1,10.8,0.1,16.2,0c3.2,0.1,6.4,0.1,9.5,0
			c3.2,0.2,6.4,0.1,9.5,0c4.4,0.1,8.9,0.1,13.3,0c3.3,0.2,6.6,0.1,9.9,0c3.1,0.1,6.1,0.1,9.2,0c1.5,0,3.1,0.1,4.6,0.1
			c0.9,0,1.1,0.3,0.9,1.1c-1.1,6.7-2.2,13.4-3.4,20.2c-0.1,0.6-0.2,1-0.9,1.1c-3.3-0.1-6.6-0.1-9.9,0c-0.5,0.7-1.2,0.7-2,0.7
			c-2.8,0-5.7,0.1-8.5-0.1c-4.5,0.1-9,0.2-13.5,0c-4.2,0.2-8.5,0-12.7,0.1c-2,0-2.3,0.2-2.6,2.2c-0.5,3.2-1.1,6.5-1.6,9.7
			c-0.3,1.9,0,2.2,2,2.2c5,0.1,9.9-0.1,14.9,0.1c4.5-0.2,9-0.1,13.5,0c2.8-0.2,5.6-0.1,8.5-0.1c0.7,0,1.5,0,2,0.7
			c0.9,0,1.9,0.1,2.8,0c1.2-0.1,1.4,0.3,1.2,1.4c-0.7,3.9-1.3,7.9-2,11.8c-0.4,2.3-0.8,4.6-1.1,6.9c-0.1,0.6-0.2,1.2-0.9,1.2
			c-0.5,0.6-1.3,0.7-2,0.7c-2.8,0-5.6,0.1-8.5-0.1c-4.4,0.1-8.9,0.2-13.3,0c-3.1,0.1-6.3,0.2-9.4,0c-3.1,0.2-6.1,0.1-9.2,0.1
			c-2.6,0-2.6,0.1-3,2.6c-0.8,4.5-1.5,9-2.2,13.5c-0.3,1.6,0,1.9,1.6,1.9c4.3,0.1,8.6-0.1,12.9,0.1c3.1-0.2,6.3-0.1,9.4,0
			c4.4-0.1,8.9-0.1,13.3,0c2.8-0.2,5.7-0.1,8.5-0.1c0.7,0,1.5,0,2,0.7c2.6,0.2,2.6,0.2,2.1,2.7c-0.4,2.3-0.7,4.6-1.1,6.8
			c-0.7,4.2-1.5,8.4-2.1,12.7c-0.2,1.1-0.6,1.4-1.7,1.4c-8-0.1-16.1,0-24.1,0c-18.7,0-37.3,0-56,0c-0.5-0.5-0.2-1-0.1-1.5
			c2.1-12.8,4.2-25.6,6.4-38.3c3.4-20.5,6.9-40.9,10.3-61.4C154.1,30.5,154.1,30.1,154.6,29.8z"/>
		<path style="fill:#FFFFFF;" d="M367.5,132.2c-10.1,0-20.1,0-30.2,0c-0.2-2.2,0.5-4.3,0.8-6.4c1.5-9.1,3-18.3,4.6-27.4
			c0.1-0.3,0-0.6,0-0.9c0.9-3.8,1.4-7.8,2-11.7c0.9-5.3,1.8-10.6,2.7-15.9c0.1-0.4,0.1-0.8,0.1-1.3c0.8-4.7,1.7-9.4,2.5-14
			c1.3-7.8,2.6-15.6,3.9-23.5c0.2-1,0.6-1.4,1.6-1.3c0.4,0,0.8,0,1.3-0.1c4,0.2,8.1,0.1,12.1,0c4,0.2,8.1,0.2,12.1,0
			c5.1,0.2,10.2,0.2,15.3,0c5,0.1,10,0.2,14.9,0c4.2,0.2,8.5,0.1,12.7,0c1.1,0,2.2,0.1,3.3,0.1c1.1-0.1,1.2,0.4,1.1,1.3
			c-1.2,6.8-2.3,13.6-3.5,20.4c-0.1,0.4-0.2,0.7-0.6,0.8c-2.6,0-5.3,0-7.9,0c-3.6,0-7.2,0-10.8,0c-0.5,0.6-1.1,0.7-1.8,0.7
			c-2.5,0-5,0.1-7.5-0.1c-4.1,0.2-8.1,0-12.2,0.1c-2,0-2.2,0.2-2.6,2.2c-0.7,3.6-1.2,7.3-1.8,10.9c-0.4,2.4-0.3,2.5,2.2,2.6
			c4.8,0,9.6-0.1,14.4,0.1c2.5-0.2,5-0.1,7.5-0.1c0.7,0,1.4,0.1,1.9,0.6c2.9,0,5.8,0.1,8.7,0c1,0,1.3,0.3,1.1,1.3
			c-1.1,6.5-2.2,13-3.3,19.5c0,0.1-0.1,0.2-0.2,0.3c-11.9,0-23.8,0-35.7,0c-1.2,0-1.5,0.4-1.7,1.4c-1.8,10.9-3.6,21.9-5.4,32.8
			C368.4,127.3,368,129.7,367.5,132.2z"/>
		<path style="fill:#FFFFFF;" d="M306.5,29.8c2.6,0.2,5.3,0.1,7.9,0c4.3,0.1,8.7,0.2,13,0c3.2,0,6.4,0.1,9.7,0.1
			c1.1,0,1.4,0.3,1.2,1.4c-1.3,7.7-2.6,15.4-3.9,23.1c-0.1,0.9-0.5,1.1-1.3,1.1c-1.1,0-2.1,0-3.2,0c-2,0-4,0-6,0c-3.3,0-6.6,0-9.9,0
			c-2.5,0-5.1,0-7.6,0c-2.6-0.1-2.6-0.1-3,2.4c-2.2,13-4.3,25.9-6.5,38.9c-1,5.7-1.9,11.3-2.9,17c-0.9,5.5-1.9,11-2.7,16.6
			c-0.2,1.6-0.9,1.8-2.2,1.8c-9.4,0-18.7,0-28.1,0c-0.5-1.6,0.4-3.2,0.4-4.7c0-0.5,0.1-0.9,0.2-1.4c0-2.9,0.2-5.8,0.7-8.6
			c2.9-16.9,5.7-33.9,8.5-50.8c0.5-2.8,0.9-5.6,1.4-8.4c0.3-1.5,0-1.9-1.6-2c-2.4,0-4.9,0-7.3,0c-0.7,0-1.5,0-2-0.6
			c-2.6,0-5.3,0-7.9,0c-2.5,0-5.1,0-7.6,0c-0.9-0.2-2.2,0.4-2.7-0.3c-0.3-0.5,0.3-1.6,0.5-2.5c1.2-7.2,2.4-14.4,3.6-21.6
			c0.2-1,0.6-1.3,1.6-1.3c1.6,0.1,3.2,0,4.8-0.1c3.3,0.1,6.6,0.1,9.9,0c3.2,0.1,6.4,0.2,9.5,0c3.8,0.1,7.6,0.2,11.4,0
			c4.3,0.2,8.7,0.2,13,0C300.4,30,303.4,30,306.5,29.8z"/>
		<path style="fill:#FFFFFF;" d="M735.9,62.6c-0.2-1.7-0.4-3.3-0.6-5c-0.4-2.9-1.4-5.5-2.1-8.3c-0.7-1.5-1.5-3-2.2-4.5
			c-2-3.3-4.6-6.2-7.6-8.6c-3.2-2.2-6.7-3.8-10.5-4.8c-1.9-0.3-3.8-0.7-5.7-1c-2.3-0.2-4.7-0.4-7-0.6c-1.3,0.1-2.5,0.1-3.8,0
			c-2.3,0.1-4.7,0.1-7,0c-1.3,0.1-2.5,0.1-3.8,0c-2,0.2-4,0.2-5.9,0.1c-1.6,0.1-3.2,0.1-4.8,0c-2.4,0.2-4.9,0.1-7.3,0
			c-4.1,0.2-8.3,0.1-12.4,0c-0.8,0-1.2,0.3-1.3,1.2c-2.2,13.4-4.5,26.7-6.7,40.1c-3.3,19.9-6.5,39.7-9.9,59.6
			c-0.3,1.5,0.3,1.5,1.4,1.5h47c1.3-0.2,2.5-0.5,3.8-0.4c2.4-0.5,4.9-1,7.3-1.5c1.3-0.4,2.5-0.7,3.8-1c1.9-0.7,3.8-1.5,5.7-2.2
			c2-1.3,4-2.5,6-3.8c1.1-0.8,2.1-1.7,3.2-2.5c2.9-2.7,5.5-5.6,7.9-8.7c3-4.4,5.4-9.1,7.3-14c2.7-8.6,4.5-17.4,5.2-26.4
			c0.2-0.5,0-1.1,0.2-1.7v-5.8C735.7,63.7,736,63.1,735.9,62.6z M700.4,96c-0.6,1.8-1.6,3.3-2.7,4.9c0,0,0,0.1,0,0.1
			c-1.9,2.9-4.4,5.1-7.9,6.1c0,0-0.1-0.1-0.1-0.1v0.1c-1.2,0.6-2.5,0.9-4,0.9c0,0,0,0,0,0c-2,0.5-4,0.5-6,0.6c0,0-0.1-0.1-0.1-0.1
			c-2.4,0-4.9,0-7.3,0.1c-0.9,0-1-0.3-0.9-1.1c1.5-9,3.1-18.1,4.6-27.1c0.9-5.4,1.8-10.7,2.7-16.1c0-0.3,0.1-0.6,0.2-0.9
			c0.5-3,0.9-6,1.4-9c0.1-0.6,0.4-0.9,1.1-0.9c1.4,0.1,2.7,0.1,4.2,0.1c1.4-0.2,2.8-0.1,4.1,0v0.2c0,0,0.1-0.1,0.1-0.1
			c2.7,0,5.2,0.4,7.7,1.5c0,0,0,0.1,0,0.1c5.9,2.2,7.5,7.2,7.7,12.8C705.4,77.7,703.6,87,700.4,96z"/>
		<path style="fill:#FFFFFF;" d="M594.7,29.8c2.5,0.1,5.1,0.1,7.6,0c3.8,0.1,7.6,0.2,11.4,0c3.6,0.1,7.2,0.2,10.8,0
			c2.7,0,5.4,0.1,8.1,0.1c1.2,0,1.5,0.3,1.3,1.5c-1,5-1.8,10.1-2.6,15.1c-0.1,0.5,0,1.1-0.1,1.6c-0.2,1-0.5,2-0.6,3.1
			c-0.1,0.8-0.4,1.1-1.2,1.1c-1.6,0-3.2,0-4.8,0.1c-0.5,0.7-1.2,0.7-2,0.7c-2.9,0-5.9,0.1-8.8-0.1c-3.8,0.1-7.6,0.2-11.4,0
			c-2.5,0.1-5,0.2-7.5,0c-3.9,0.2-7.8,0-11.7,0.1c-1.9,0-2.1,0.2-2.5,2.1c-0.6,3.3-1.1,6.7-1.7,10c-0.3,1.6,0.1,2,1.7,2
			c4.7,0.1,9.4-0.1,14.1,0.1c2.5-0.2,5-0.1,7.5,0c3.8-0.1,7.6-0.1,11.4,0c2.8-0.2,5.7-0.1,8.5,0c1,0,2,0.2,1.7,1.6
			c-1.1,6.3-2.2,12.7-3.2,19c-0.2,1-0.5,1.3-1.5,1.3c-1.6-0.1-3.3,0-4.9,0c-0.5,0.6-1.2,0.7-1.9,0.7c-3.4,0-6.8,0.1-10.2-0.1
			c-2.6,0.1-5.1,0.1-7.7,0c-3.5,0.1-7.1,0.2-10.6,0c-2.5,0.2-5,0.1-7.4,0.1c-1.3,0-2,0.5-2.2,1.8c-0.7,4.8-1.6,9.6-2.4,14.4
			c-0.2,1.6-0.1,1.8,1.6,1.8c3.4,0.1,6.9-0.1,10.3,0.1c3.5-0.2,7.1-0.1,10.6,0c2.6-0.1,5.1-0.1,7.7,0c3.4-0.2,6.8-0.1,10.2-0.1
			c0.7,0,1.4,0.1,1.8,0.7c2.1,0,4.2,0.1,6.3,0c1.3,0,1.7,0.2,1.5,1.7c-1.3,7.3-2.5,14.5-3.7,21.8c-0.6,0-1.3,0.1-1.9,0.1
			c-26,0-52,0-78,0c-2,0-2,0-1.7-2.2c2-11.7,3.9-23.5,5.9-35.2c0-0.2,0-0.3,0-0.5c2.3-13.7,4.6-27.3,6.9-41
			c0.6-3.4,1.1-6.8,1.6-10.2c0.7-4,1.4-8,2-12c0.1-0.9,0.5-1.2,1.4-1.2c1.7,0,3.5,0,5.2-0.1c3,0.1,5.9,0.1,8.9,0
			c3.3,0.1,6.6,0.2,9.9,0C584,30,589.3,30,594.7,29.8z"/>
		<path style="fill:#FFFFFF;" d="M527.9,41.5c-2.6-4.9-6.6-8.2-12-9.7c-2.8-0.7-5.6-1.2-8.5-1.5c-3.3-0.2-6.6-0.3-9.9-0.5
			c-2.2,0.2-4.3,0.1-6.4,0c-4.1,0.2-8.2,0.2-12.4-0.1c-4.2,0.2-8.5,0.1-12.7,0c-4.8,0.2-9.5,0.2-14.3,0c-1.2,0.1-2.4,0.1-3.6,0.1
			c-1,0-1.3,0.3-1.5,1.3c-0.7,4.2-1.5,8.4-2.2,12.6v0.6c-1.5,8.5-2.9,17-4.3,25.5c-2.4,14.3-4.8,28.6-7.2,42.9
			c-0.8,5.3-1.7,10.6-2.6,15.9c-0.6,3.4-0.6,3.3,2.7,3.6c6.5,0,13.1-0.1,19.6-0.1c2.5,0,5.1-0.1,7.7-0.1c1.3-8.1,2.7-16.1,4-24.1
			c0.8-4.6,1.6-9.1,2.4-13.7c0.1-0.8,0.2-1.7,0.3-2.6c0-0.4,0.2-0.7,0.6-0.8c3.7-1,8.8,1.4,10.5,5c0.9,1.3,1.4,2.8,1.9,4.3
			c3.5,10.1,7,20.3,10.5,30.4c0.3,0.7,0.3,1.6,1.6,1.6c11-0.1,22-0.1,33-0.1c0-0.4-0.1-0.8-0.2-1.2c-3.1-9.7-5.9-19.4-9.4-28.9
			c-2.3-6.3-5.4-12.3-12.6-14.7c0-0.1,0-0.2-0.1-0.3c0.5-0.1,0.9-0.3,1.4-0.4c5.6-1.4,10.5-4,14.8-7.9c4.1-3.7,7-8.2,9.1-13.3
			c0.1-0.6,0.2-1.1,0.4-1.7C530.5,56.2,531.1,48.8,527.9,41.5z M498.5,61.5c-1.2,4.4-3.9,7.4-8.6,8.3c-2.9,0.6-5.6,1.4-8.7,1.2v0.1
			c-3.3,0-6.5,0-9.8,0.1c-0.9,0-1-0.3-0.9-1.1c1-5.9,2-11.9,3-17.8c0.1-0.9,0.4-1.3,1.4-1.2h6.3c3.4-0.1,6.9-0.2,10.3,0.2
			C497.5,52.1,500,55.7,498.5,61.5z"/>
	</g>
</g>
</svg>
