<?xml version="1.0" encoding="utf-8"?>
<svg version="1.1" id="Layer_1" xmlns="http://www.w3.org/2000/svg" xmlns:xlink="http://www.w3.org/1999/xlink" x="0px" y="0px"
	width="100px" height="100px" viewBox="0 0 807.6 807.6" style="enable-background:new 0 0 807.6 807.6;" xml:space="preserve">
<g>
	<g>
		<circle style="fill:#E8E8E8;" cx="403.8" cy="403.8" r="403.8"/>
		<circle style="fill:#FFFFFF;" cx="403.8" cy="403.8" r="395.7"/>
	</g>
	<g>
		<path style="fill:#373737;" d="M336.1,403.6v-25v-11.9v-1.2c0-0.1,0.1-0.3,0.1-0.4c0.1-0.2,0.2-0.3,0.4-0.4c0.1,0,0.3-0.1,0.4-0.1
			h1.2h13.9c0.9,0,1.8,0,2.7,0.2c0.1,0,0.3,0,0.4,0.1c1.4,0.1,2.8,0.5,4.1,1c1.4,0.6,2.6,1.5,3.5,2.7c0.6,0.8,1,1.7,1.3,2.7
			c0.1,0.2,0.1,0.5,0.2,0.7l0.5,3.3v5v1.5v10.7v1.4c0,1.4-0.2,2.8-0.6,4.2c-0.4,1.5-1.3,2.8-2.5,3.9c-0.3,0.3-0.6,0.5-0.9,0.8
			c-0.1,0.1-0.1,0.3,0,0.4l0.3,0.3l1,0.7c1,0.8,1.7,1.8,2.2,3s0.8,2.5,0.9,3.8v1.7v15.5v2.9c0,1.7-0.4,3.4-1,5
			c-0.9,2.1-2.2,3.8-4.3,4.8c-0.6,0.3-1.3,0.6-2,0.8l-2.3,0.5h-0.1l-3.9,0.3h-13h-1.5c-0.3,0-0.5-0.1-0.7-0.2l-0.3-0.3
			c0-0.1-0.1-0.3-0.1-0.4v-1.7L336.1,403.6L336.1,403.6z M346.9,420.2v10.1v1.2c0,0.3,0.3,0.6,0.6,0.6h0.1h3.9c0.5,0,1-0.1,1.5-0.3
			s0.9-0.6,1.1-1.2c0.2-0.7,0.4-1.4,0.3-2.1v-5.1v-11.5c0-0.7-0.1-1.4-0.4-2.1c-0.2-0.5-0.5-0.9-0.9-1.2c-0.4-0.3-0.9-0.4-1.4-0.5
			c-1.4-0.1-2.7-0.1-4.1,0h-0.3c-0.2,0-0.5,0.3-0.5,0.5c0,0.3-0.1,0.7-0.1,1.1C346.9,413.3,346.9,416.7,346.9,420.2L346.9,420.2z
			 M354.2,386.3v-6.8v-1.8c0-0.5-0.2-1-0.4-1.4c-0.2-0.3-0.4-0.6-0.7-0.7c-0.4-0.2-0.9-0.4-1.4-0.4h-3.8h-0.1
			c-0.2,0-0.5,0.3-0.5,0.5c0,0.1-0.1,0.3-0.1,0.4v1.2v5.6c0,0.5,0,1-0.1,1.5c-0.1,0.6-0.1,1.2-0.1,1.8v10.2v0.9c0,0.1,0,0.2,0.1,0.3
			c0,0.2,0.3,0.5,0.5,0.5h0.4h3.2c0.5,0,0.9-0.1,1.3-0.3c0.6-0.2,1.1-0.7,1.4-1.3c0.2-0.6,0.4-1.1,0.4-1.7v-2.3
			C354.2,390.4,354.2,388.3,354.2,386.3L354.2,386.3z M202,406.9v-5.7v-27.4l0.1-2.1c0.1-0.4,0.1-0.8,0.1-1.2v-3.8v-1.2
			c0-0.5,0.3-0.8,0.9-0.8h0.6h1.1H217h2.4c0.7,0,1.4,0,2.1,0.2c0.3,0.1,0.7,0.1,1,0.1c1.2,0.3,2.4,0.7,3.5,1.3
			c1.6,0.9,2.8,2.1,3.6,3.7c0.6,1.1,0.9,2.3,1.2,3.6c0.1,0.5,0.2,1,0.2,1.5c0.1,0.8,0.1,1.5,0.1,2.3v18.8l-0.1,2.6
			c0,0.5-0.1,1-0.2,1.5l-0.4,2.2c-0.4,1.6-1.1,3.1-2.3,4.3c-0.6,0.7-1.4,1.2-2.2,1.6l-1.2,0.6c-0.1,0.1-0.2,0.2-0.4,0.2
			c-0.1,0.1-0.1,0.2-0.1,0.3c0,0.4,0.2,0.8,0.3,1.2l2.7,8l4.1,12.4l2.8,8.4c0.2,0.6,0.4,1.1,0.5,1.7c0.1,0.2,0.1,0.4,0.1,0.6
			s-0.2,0.4-0.3,0.5c-0.1,0-0.3,0.1-0.4,0.1c-0.2,0-0.5,0.1-0.8,0.1h-6.6h-0.9c-0.6-0.1-1.2-0.1-1.8-0.1c-0.5,0-0.7-0.3-0.9-0.7
			l-0.6-1.9L221,435l-1.1-4.1c0-0.1-0.1-0.3-0.1-0.4l-2.3-8c-0.3-1.3-0.7-2.5-1.1-3.8l-0.9-3.3l-1.2-4.2c-0.1-0.4-0.2-0.8-0.4-1.1
			c-0.1-0.1-0.2-0.2-0.4-0.3c-0.2,0-0.4,0.1-0.5,0.3c0,0.1-0.1,0.2-0.1,0.3v0.6v1.5v27.1v1.5c0,0.2-0.1,0.5-0.2,0.7
			c-0.1,0.2-0.2,0.3-0.4,0.4c-0.1,0-0.3,0.1-0.4,0.1H211h-7.1c-0.4,0-0.8,0-1.2-0.1c-0.3,0-0.6-0.3-0.6-0.6c0-0.1-0.1-0.3-0.1-0.4
			v-1.4v-19.3C201.9,416,202,411.4,202,406.9L202,406.9z M213,387.2v10.1v1.4c0,0.1,0,0.3,0.1,0.4c0.1,0.2,0.2,0.4,0.4,0.4
			c0.1,0,0.3,0.1,0.4,0.1h3.3c0.3,0,0.6,0,0.9-0.1c0.6-0.1,1.1-0.4,1.6-0.8c0.1-0.1,0.2-0.3,0.3-0.5c0.2-0.6,0.4-1.2,0.4-1.9v-3.5
			v-13.7v-1.2c0-0.5-0.1-1-0.3-1.5c-0.1-0.2-0.2-0.4-0.3-0.5c-0.4-0.5-1-0.8-1.7-0.9c-1.4-0.1-2.8-0.1-4.2-0.1
			c-0.5,0-0.8,0.3-0.8,0.7v0.6v6.3C212.9,384.2,213,385.7,213,387.2L213,387.2z M619.1,426.3v5.3v9.2v0.9c0,0.1,0,0.3-0.1,0.4
			c-0.1,0.2-0.2,0.4-0.4,0.4s-0.4,0.1-0.6,0.1h-2.4h-5.7c-0.4,0-0.7,0-1-0.1c-0.2-0.1-0.4-0.2-0.4-0.4c-0.1-0.2-0.1-0.4-0.1-0.6
			c0-0.4-0.1-0.8-0.1-1.2v-9.9c0-0.5,0-0.9,0.1-1.4c0.1-0.8,0.1-1.6,0.1-2.4V420v-37.2v-15.7v-1.4c0-0.1,0.1-0.3,0.1-0.4
			c0.1-0.2,0.2-0.3,0.4-0.4c0.2,0,0.4-0.1,0.6-0.1h2.1h12.2h2c1.6,0.1,3.1,0.4,4.6,0.9c0.9,0.3,1.7,0.7,2.5,1.1
			c1.5,0.9,2.6,2.2,3.3,3.8c0.3,0.8,0.7,1.6,0.8,2.4c0.3,0.8,0.3,1.7,0.4,2.5c0.1,0.6,0.1,1.3,0.1,2v8.4v9.9v1.8
			c0,0.7,0,1.4-0.2,2.1c0,0.1-0.1,0.3-0.1,0.4c0,0.8-0.2,1.6-0.4,2.4c-0.2,1-0.6,2-1.2,2.9c-0.8,1.3-1.9,2.3-3.3,3
			c-0.5,0.3-1,0.5-1.5,0.7c-0.2,0.1-0.3,0.4-0.2,0.5c0,0.1,0,0.2,0.1,0.3l0.3,0.9l2.4,7.1l2.9,8.6l1.7,5.2l1.8,5.6l1.3,4
			c0.1,0.2,0.1,0.4,0.1,0.6c0,0.2-0.1,0.4-0.3,0.5c-0.1,0.1-0.3,0.1-0.4,0.1c-0.6,0.1-1.2,0.1-1.8,0c-0.5-0.1-1.1-0.1-1.7-0.1h-5.6
			h-1.2c-0.3,0-0.5-0.2-0.6-0.4l-0.3-0.8l-1.2-4l-0.9-3l-1.6-5.6l-2.4-8.2l-2.4-8.4c-0.1-0.4-0.2-0.9-0.4-1.3c0-0.1-0.1-0.2-0.2-0.3
			c-0.1-0.2-0.3-0.3-0.5-0.2c-0.2,0-0.2,0.2-0.3,0.3c0,0.1-0.1,0.2-0.1,0.3l-0.2,2.3v1.4C619.1,418.4,619.1,422.4,619.1,426.3
			L619.1,426.3z M619.3,387.6v9.9v1.5c0,0.1,0,0.3,0.1,0.4c0.1,0.3,0.3,0.4,0.5,0.5c0.1,0,0.3,0.1,0.4,0.1h3.3c0.3,0,0.7,0,1-0.1
			c0.8-0.2,1.4-0.7,1.7-1.6c0.2-0.8,0.3-1.6,0.3-2.4v-1.4v-15c0-0.8-0.1-1.6-0.3-2.4c-0.2-0.7-0.6-1.1-1.3-1.4
			c-0.5-0.2-1-0.4-1.6-0.4h-3.3c-0.1,0-0.3,0-0.4,0.1c-0.2,0.1-0.3,0.2-0.4,0.4c0,0.1-0.1,0.3-0.1,0.4v1.4
			C619.3,380.9,619.3,384.3,619.3,387.6z M418.4,403.8V396v-27.1l0.1-2.9c0-0.2,0-0.4,0.1-0.6c0.1-0.3,0.2-0.4,0.5-0.5
			c0.1,0,0.3-0.1,0.4-0.1h0.3c0.8,0.2,1.7,0.1,2.6,0.1h11.8h2.4c2,0.1,3.9,0.6,5.6,1.5c1.7,0.8,2.9,2.1,3.8,3.8
			c0.4,0.8,0.7,1.6,1,2.5c0.4,1.6,0.6,3.2,0.6,4.8v3.8v10.9v6.2c0,1.3-0.2,2.5-0.5,3.7c-0.1,0.5-0.2,1.1-0.4,1.6
			c-0.4,1.3-1.1,2.5-2.1,3.5c-0.6,0.7-1.4,1.2-2.2,1.6l-1.1,0.5c-0.1,0-0.2,0.1-0.3,0.1c-0.2,0.1-0.4,0.4-0.3,0.6
			c0.1,0.4,0.2,0.8,0.4,1.1l2.9,8.7l2.3,7l2.4,7.4l2.3,6.9c0.1,0.2,0.1,0.5,0.2,0.7v0.3c0,0.2-0.2,0.4-0.4,0.4
			c-0.3,0-0.6,0.1-0.9,0.1h-3.8h-4.7h-0.6c-0.9,0-1.2-0.2-1.5-1.2c-0.2-0.6-0.4-1.3-0.5-1.9l-1.5-5.1l-3.6-12.4l-1.6-5.5l-1.4-4.8
			c-0.1-0.4-0.3-0.9-0.4-1.3l-0.3-0.3c-0.3-0.2-0.8,0-0.8,0.3c0,0.1-0.1,0.3-0.1,0.4v1.5V440v1.4v0.4c0,0.2-0.3,0.5-0.5,0.5
			c-0.1,0-0.2,0.1-0.3,0.1h-0.6h-8c-0.2,0-0.5,0-0.7-0.1c-0.1,0-0.2-0.1-0.3-0.1l-0.3-0.3c0-0.2-0.1-0.4-0.1-0.6v-2.4V425
			L418.4,403.8L418.4,403.8z M429.4,387.6v8.9l-0.1,2.3v0.6c0,0.2,0.3,0.5,0.5,0.5h1.4h3c0.4,0,0.8-0.1,1.2-0.3
			c0.5-0.2,0.9-0.7,1.1-1.2c0.2-0.7,0.4-1.3,0.4-2.1v-0.6v-16.1v-1.1c0-0.6-0.1-1.2-0.4-1.8c-0.3-0.8-1-1.3-1.8-1.4
			c-0.2,0-0.5-0.1-0.7-0.1h-3.5c-0.1,0-0.3,0-0.4,0.1c-0.2,0-0.5,0.3-0.5,0.5c0,0.1,0,0.3-0.1,0.4v1.4
			C429.4,381,429.4,384.3,429.4,387.6L429.4,387.6z"/>
		<path style="fill:#373737;" d="M188.9,403v25.8v0.9c0,1.1-0.1,2.3-0.3,3.4c-0.2,1.2-0.5,2.5-1,3.6c-0.5,1-1,1.9-1.8,2.8
			s-1.8,1.6-2.9,2.2c-1.2,0.6-2.5,1-3.8,1.3c-1.6,0.3-3.3,0.5-4.9,0.5c-0.6,0-1.2,0-1.8-0.1c-0.2,0-0.5-0.1-0.7-0.1
			c-1.3-0.1-2.5-0.4-3.7-0.7c-1.2-0.4-2.3-0.9-3.4-1.6c-1.7-1.2-2.9-2.8-3.7-4.7c-0.4-0.9-0.6-1.8-0.8-2.8c0-0.2-0.1-0.4-0.1-0.6
			c-0.1-0.5-0.2-1.1-0.2-1.6c0-0.6,0-1.1-0.1-1.7s-0.1-1.2,0-1.8c0.1-0.7,0.1-1.4,0.1-2.1v-11.5v-33v-4.4c0-0.7,0-1.3,0.2-1.9
			l0.4-2.4c0.3-1,0.6-2,1.1-3c1-1.9,2.5-3.4,4.4-4.4c1.3-0.7,2.8-1.1,4.3-1.4c0.2,0,0.5-0.1,0.7-0.1c0.6-0.1,1.3-0.2,1.9-0.2h3.2
			c2.1,0,4.2,0.5,6.2,1.3c2.3,1,4.1,2.5,5.2,4.8c0.4,0.9,0.8,1.7,1,2.7l0.3,1c0.2,0.9,0.3,1.9,0.3,2.8v0.9v8.1v2.3L188.9,403
			L188.9,403z M170.7,403.3v5v1.5c-0.1,0.9-0.1,1.8-0.1,2.7v16v0.8c0,0.7,0.1,1.3,0.3,1.9s0.5,1.2,1,1.6c0.3,0.3,0.7,0.5,1.2,0.6
			c0.8,0.1,1.7,0.1,2.5,0c0.4-0.1,0.7-0.2,1-0.4c0.4-0.3,0.7-0.6,0.9-1c0.3-0.5,0.4-1.1,0.5-1.7v-1.1v-5.1v-25.3v-14.2v-4.7
			c0-0.5,0-1,0.1-1.5s0.1-1,0-1.5c-0.1-0.3-0.1-0.7-0.1-1c-0.2-1.4-1.5-2.6-2.9-2.6h-0.9c-0.6,0-1.1,0.2-1.6,0.4
			c-0.4,0.2-0.7,0.4-0.9,0.8c-0.4,0.5-0.7,1.1-0.7,1.8c-0.1,0.8-0.1,1.6-0.1,2.4C170.7,386.9,170.7,395.1,170.7,403.3L170.7,403.3z
			 M576.8,403.9v14.2v10.7l0.1,2.1c0,0,0.3,1.4,0.8,1.9c0.2,0.3,0.5,0.5,0.8,0.7c0.5,0.3,1.1,0.5,1.7,0.5c0.7,0,1.3-0.1,1.9-0.3
			c0.4-0.1,0.7-0.4,1-0.7c0.4-0.4,0.6-0.8,0.8-1.3c0.2-0.5,0.3-1.1,0.3-1.6v-1.8v-15.8v-2.7c0-0.2,0-0.5-0.1-0.7
			c0-0.2-0.3-0.5-0.5-0.5s-0.4-0.1-0.6-0.1h-1.5c-0.3,0-0.6-0.1-0.9-0.2c-0.2-0.1-0.3-0.2-0.4-0.4c-0.1-0.4-0.2-0.9-0.2-1.3v-2.3
			c0.1-1.1,0.1-2.1,0.1-3.2v-1.7c0-0.2,0-0.4,0.1-0.6c0-0.1,0.1-0.3,0.3-0.3c0.2-0.1,0.4-0.2,0.6-0.2c0.3,0,0.7-0.1,1.1-0.1h10.9
			h0.9c0.2,0,0.4,0.1,0.6,0.1c0.3,0.1,0.4,0.3,0.5,0.5c0,0.1,0.1,0.3,0.1,0.4v1.4v15.8v12.8c0,0.8,0,1.6-0.2,2.4
			c0,0.9-0.3,1.8-0.4,2.7c0,0.1,0,0.3-0.1,0.4c-0.4,1.5-1,2.8-1.9,4.1c-0.3,0.4-0.6,0.8-1,1.1c-1,0.9-2.1,1.7-3.4,2.3
			c-1.5,0.6-3,1.1-4.6,1.2c-0.2,0-0.4,0-0.6,0.1c-1.3,0.3-2.7,0.2-4.1,0.2c-0.2,0-0.5-0.1-0.7-0.1s-0.5-0.1-0.7-0.1
			c-0.7,0-1.4-0.2-2.1-0.3c-1.5-0.3-2.9-0.8-4.2-1.6c-1.8-1.1-3.1-2.6-4-4.6c-0.4-0.9-0.7-1.8-0.9-2.7l-0.5-3.3
			c-0.1-0.3,0-0.7,0-1.1v-2v-12.7v-24.6l0.1-2.1c0.1-0.4,0-0.9,0.1-1.4v-9.5v-2.1c0.1-2.1,0.6-4.1,1.5-5.9c0.8-1.5,1.8-2.7,3.2-3.7
			c0.9-0.6,1.9-1.1,3-1.5c1-0.3,1.9-0.6,2.9-0.7c1-0.2,2.1-0.3,3.1-0.3h1.7c0.8,0,1.5,0.1,2.2,0.2s1.4,0.2,2.1,0.4l1.9,0.6
			c0,0,1.2,0.5,1.8,0.8c1.7,1,3,2.4,3.9,4.1c0.5,1,0.9,2.1,1.2,3.3c0.1,0.6,0.3,1.2,0.3,1.8c0.1,0.6,0.1,1.2,0.2,1.8v0.9v8.3
			c0,0.3,0,0.6-0.1,0.9c0,0.1-0.1,0.3-0.1,0.4l-0.3,0.3c-0.2,0.1-0.4,0.1-0.6,0.1h-1.1H588c-0.6,0-1.1,0-1.7-0.1
			c-0.4-0.1-0.8-0.1-1.2-0.1c-0.1,0-0.3,0-0.4-0.1c-0.2,0-0.4-0.2-0.4-0.4c-0.1-0.2-0.1-0.4-0.1-0.6v-1.4V378c0-0.6,0-1.2-0.1-1.8
			c0-0.7-0.3-1.3-0.7-1.8c-0.3-0.5-0.8-0.8-1.3-0.9c-0.3-0.1-0.6-0.2-0.9-0.2c-0.5-0.1-1.1-0.1-1.6,0c-0.2,0.1-0.4,0.1-0.6,0.2
			c-0.9,0.3-1.5,0.9-1.8,1.7c-0.2,0.6-0.4,1.2-0.4,1.9v0.6v0.6L576.8,403.9L576.8,403.9L576.8,403.9z M391.6,364.6h3.6
			c0.7,0,1.3,0,2,0.1c0.2,0,0.4,0,0.6,0.1c0.4,0.1,0.6,0.3,0.7,0.7c0,0.1,0.1,0.3,0.1,0.4c0.1,1.5,0.4,3,0.6,4.5
			c0,0.3,0.1,0.7,0.1,1c0,0.4,0.1,0.8,0.2,1.2c0,0.1,0,0.2,0.1,0.3l0.4,3.7c0,0.4,0.1,0.8,0.2,1.2c0.1,0.3,0.1,0.6,0.1,0.9
			s0.1,0.7,0.1,1c0,0.1,0.1,0.3,0.1,0.4l0.4,3.3c0.1,0.6,0.1,1.3,0.3,1.9c0.1,1.3,0.4,2.5,0.4,3.7c0,0.2,0,0.5,0.1,0.7
			c0.1,0.5,0.2,1,0.2,1.5c0,0.3,0.1,0.6,0.1,0.9s0.1,0.6,0.1,0.9c0.1,0.4,0.1,0.9,0.2,1.3s0.1,0.9,0.2,1.3c0,0.6,0.1,1.2,0.2,1.8
			c0.1,0.2,0.1,0.4,0.1,0.6c0,0.5,0.1,1,0.2,1.5c0,0.3,0.1,0.6,0.1,0.9c0.1,0.8,0.1,1.5,0.3,2.2c0.1,0.2,0.1,0.5,0.1,0.7
			c0,0.4,0.1,0.7,0.1,1c0,0.2,0.1,0.4,0.1,0.6c0,0.8,0.2,1.5,0.3,2.2c0.1,0.6,0.1,1.2,0.2,1.8l0.3,1.8c0,0.2,0,0.4,0.1,0.6
			c0.1,0.6,0.2,1.2,0.2,1.8c0,0.5,0.1,1,0.2,1.5c0,0.1,0,0.2,0.1,0.3c0,1,0.3,2,0.4,3c0,0.2,0.1,0.5,0.1,0.7
			c0.1,0.5,0.1,1.1,0.2,1.6c0,0.6,0.1,1.2,0.2,1.8c0.1,0.2,0.1,0.4,0.1,0.6c0,0.5,0.1,0.9,0.2,1.3c0.1,0.3,0.1,0.6,0.1,0.9
			c0.1,0.5,0.1,1.1,0.2,1.6c0.1,0.4,0.1,0.9,0.1,1.3s0.1,0.8,0.2,1.2c0.1,0.2,0.1,0.4,0.1,0.6c0,0.7,0.1,1.3,0.2,1.9
			s0.1,1.3,0.2,1.9l0.3,1.9c0,0.6,0.2,1.2,0.3,1.8c0,0.6,0.1,1.1,0.2,1.6l0.2,2.6c0,0.2-0.2,0.5-0.4,0.5c-0.1,0-0.2,0.1-0.3,0.1
			h-0.6h-7.5c-0.4,0-0.7,0-1.1-0.1c-0.1,0-0.3-0.1-0.4-0.1c-0.2-0.1-0.4-0.2-0.4-0.4c-0.2-0.9-0.4-1.9-0.4-2.8v-0.6
			c-0.2-0.8-0.2-1.7-0.2-2.5c0-0.4-0.1-0.8-0.1-1.2c-0.1-0.6-0.1-1.2-0.2-1.8c0-0.9-0.1-1.7-0.2-2.5c-0.1-0.4-0.1-0.9-0.1-1.4
			c0-0.6-0.1-1.2-0.2-1.8c0-0.1-0.1-0.2-0.1-0.3c-0.1-0.1-0.2-0.3-0.3-0.3c-0.2-0.1-0.4-0.1-0.6-0.1h-6c-0.1,0-0.3,0-0.4,0.1
			c-0.2,0-0.4,0.2-0.4,0.4c0,0.1-0.1,0.3-0.1,0.4l-0.3,3.3v0.3c-0.2,0.9-0.2,1.8-0.3,2.7c0,0.3,0,0.5-0.1,0.7l-0.2,2.6v0.5l-0.3,3.1
			c0,0.4-0.1,0.8-0.2,1.2c-0.1,0.3-0.3,0.5-0.6,0.6c-0.2,0-0.5,0.1-0.7,0.1h-1.8h-5.7c-0.4,0-0.8,0-1.2-0.1c-0.2,0-0.3-0.1-0.4-0.2
			c-0.1-0.1-0.2-0.2-0.2-0.4l0.1-2.4c0.2-1,0.2-2,0.4-3c0.1-0.4,0-0.8,0.1-1.2c0.2-0.8,0.2-1.6,0.3-2.4c0.2-1.1,0.2-2.2,0.5-3.3
			c0-0.2,0.1-0.4,0.1-0.6c0-0.7,0.2-1.3,0.3-1.9s0-1.2,0.2-1.8c0.2-0.9,0.2-1.9,0.4-2.8c0-0.2,0-0.4,0.1-0.6c0.1-0.5,0.1-1,0.2-1.5
			c0.1-0.4,0.1-0.9,0.2-1.3c0-0.2,0-0.5,0.1-0.7c0.1-0.6,0.2-1.2,0.2-1.8l0.4-3.1c0.1-0.5,0.2-1.1,0.2-1.6c0-0.7,0.3-1.3,0.3-1.9
			s0.1-1.2,0.2-1.8l0.4-3.1v-0.3c0.2-0.9,0.3-1.8,0.3-2.7c0.1-0.7,0.3-1.4,0.3-2.1c0.2-1.1,0.3-2.2,0.4-3.3c0.1-0.3,0.1-0.7,0.1-1
			c0-0.6,0.1-1.1,0.2-1.6c0-0.2,0.1-0.4,0.1-0.6c0-0.7,0.2-1.3,0.3-1.9s0.1-1.2,0.2-1.8c0.1-0.5,0.1-1,0.2-1.5
			c0-0.3,0.1-0.6,0.1-0.9c0-0.2,0.1-0.4,0.1-0.6c0-1.3,0.3-2.5,0.4-3.7c0.2-0.9,0.2-1.9,0.4-2.8c0.1-0.2,0.1-0.5,0.1-0.7
			c0-0.8,0.2-1.5,0.2-2.2c0.1-1.1,0.4-2.2,0.4-3.3c0-0.2,0.1-0.5,0.1-0.7c0.1-0.4,0.1-0.9,0.2-1.3c0-0.5,0.1-1,0.2-1.5
			c0.1-0.3,0.1-0.6,0.1-0.9c0-0.6,0.2-1.2,0.3-1.8c0-0.6,0.1-1.1,0.2-1.7c0-0.1,0.1-0.3,0.1-0.4c0.1-0.3,0.4-0.6,0.7-0.7h0.4h1.2
			C388.7,364.6,390.2,364.6,391.6,364.6L391.6,364.6z M391.5,389.8l-0.3,3.2c0,0.2,0,0.5-0.1,0.7c0,0.3-0.1,0.6-0.1,0.9
			c-0.1,0.4-0.1,0.8-0.2,1.2c0,0.3,0,0.5-0.1,0.7c-0.2,0.7-0.2,1.5-0.3,2.2c0,0.3-0.1,0.6-0.1,0.9c-0.1,0.4-0.1,0.9-0.2,1.3
			c0,0.2-0.1,0.5-0.1,0.7c-0.1,0.4-0.1,0.8-0.2,1.2c0,0.5-0.1,1-0.2,1.5s-0.1,1-0.2,1.5c0,0.6-0.2,1.1-0.2,1.6
			c-0.1,0.5-0.1,1.1-0.1,1.7v0.1c-0.1,0.6-0.2,1.2-0.2,1.8l-0.2,2.6c-0.1,0.6-0.1,1.3-0.1,2c0,0.1,0,0.2,0.1,0.3
			c0,0.2,0.2,0.4,0.4,0.4s0.4,0.1,0.6,0.1h3.8h0.3c0.4,0,0.7-0.3,0.6-0.7s-0.1-0.8-0.2-1.2c0-0.6-0.1-1.2-0.2-1.8
			c-0.1-0.3-0.1-0.7-0.1-1c-0.1-0.9-0.1-1.8-0.3-2.7c-0.1-0.2,0-0.5-0.1-0.7c0-0.2,0-0.4-0.1-0.6l-0.5-3.7c-0.1-0.9-0.1-1.8-0.3-2.7
			v-0.6c0-0.4-0.1-0.8-0.1-1.2c-0.1-0.3-0.1-0.6-0.1-0.9c0-1.5-0.4-3-0.4-4.5v-0.3c-0.2-0.8-0.2-1.6-0.2-2.4c0-0.5-0.1-1-0.2-1.5
			C391.6,389.9,391.5,389.9,391.5,389.8L391.5,389.8z M96.1,423.9V420v-2.1c0-0.3,0-0.5-0.1-0.7l-0.5-2.5c-0.4-1.9-1.1-3.7-2.2-5.3
			c-0.4-0.6-0.9-1.2-1.4-1.8c-1-1.1-2.1-2.1-3.3-3.1l-2.4-1.9c-1.1-0.8-2.1-1.8-3-2.7c-1-1-1.8-2.1-2.6-3.3
			c-0.7-1.2-1.2-2.4-1.6-3.7c-0.1-0.4-0.3-0.9-0.4-1.3c-0.3-1-0.5-2.1-0.5-3.1c0-0.3,0-0.5-0.1-0.7c-0.2-0.6-0.2-1.3-0.2-1.9v-1.2
			v-6.8v-1.5c0-0.5,0-0.9,0.1-1.3c0.1-0.2,0.1-0.5,0.1-0.7c0.1-1.6,0.6-3.2,1.3-4.6c0.9-1.9,2.4-3.4,4.2-4.4c1.5-0.8,3-1.3,4.7-1.6
			c0.2,0,0.5-0.1,0.7-0.1s0.4,0,0.6-0.1c1.3-0.3,2.6-0.2,3.9-0.2c0.2,0,0.5,0,0.7,0.1c0.5,0.1,1.1,0.1,1.6,0.2
			c1,0.1,1.9,0.3,2.8,0.6c1.1,0.4,2.1,0.9,3.1,1.5c1.6,1.1,2.8,2.5,3.6,4.2c0.3,0.6,0.5,1.2,0.7,1.8l0.5,2.1
			c0.1,0.4,0.1,0.8,0.2,1.2c0.1,0.5,0.1,1.1,0.1,1.7v5.6v3.3c0,0.3,0,0.6-0.1,0.9c0,0.3-0.3,0.7-0.7,0.7c-0.2,0-0.4,0.1-0.6,0.1
			h-1.5h-5.9h-1.1c-0.2,0-0.4-0.1-0.6-0.1s-0.4-0.2-0.4-0.4c-0.1-0.2-0.1-0.4-0.1-0.6v-1.4V378c0-0.6,0-1.2-0.1-1.8
			c-0.2-1-0.6-1.8-1.5-2.3c-0.2-0.1-0.5-0.2-0.7-0.2c-0.8-0.1-1.6-0.1-2.4,0c-0.7,0.1-1.2,0.4-1.7,0.9c-0.4,0.5-0.7,1.1-0.7,1.8
			c0,0.5-0.1,1-0.1,1.5v6.9l0.1,2.4c0,0.1,0,0.3,0.1,0.4l0.4,1.6c0.5,1.9,1.4,3.5,2.7,5l1.8,1.8l2.9,2.3c0.3,0.2,0.6,0.5,1,0.7
			c1.1,0.8,2.1,1.7,3,2.7c1.8,1.8,3.1,3.8,4,6.1c0.6,1.4,1,2.8,1.3,4.3c0.1,0.7,0.3,1.4,0.3,2.1c0,0.2,0,0.4,0.1,0.6
			c0.1,0.6,0.2,1.2,0.2,1.8c0,0.4,0,0.7,0.1,1.1l0.2,2.6v2.3v4.7v2.1c0,0.6,0,1.1-0.1,1.7v0.3c0,0.8-0.2,1.6-0.3,2.4
			c-0.3,1.6-0.9,3.1-1.7,4.5c-0.9,1.4-2,2.5-3.4,3.3c-1.2,0.7-2.5,1.3-3.9,1.5c-0.8,0.2-1.6,0.3-2.4,0.4c-0.4,0.1-0.9,0.1-1.4,0.1
			h-2.6c-0.6,0-1.1,0-1.6-0.1l-2.2-0.4c-1.3-0.3-2.6-0.8-3.8-1.4c-1.7-1-3.1-2.4-4-4.2c-0.6-1.2-1.1-2.5-1.3-3.8
			c0-0.2-0.1-0.4-0.1-0.6s-0.1-0.4-0.1-0.6l-0.2-3.3v-8.4v-0.9c0-0.2,0.1-0.4,0.1-0.6c0.1-0.2,0.2-0.3,0.4-0.4
			c0.1,0,0.3-0.1,0.4-0.1h0.9h7.1h0.9c0.1,0,0.3,0,0.4,0.1c0.2,0,0.5,0.3,0.5,0.5s0.1,0.5,0.1,0.7v5.6v3.8c0,0.7,0.1,1.3,0.3,1.9
			c0.1,0.5,0.4,0.9,0.7,1.3c0.6,0.7,1.3,1.1,2.2,1.1h1.1c0.7,0,1.3-0.3,1.8-0.7c0.4-0.3,0.7-0.8,0.9-1.3s0.3-1,0.3-1.6v-1.4
			C96.1,426.9,96.1,425.4,96.1,423.9L96.1,423.9z"/>
		<path style="fill:#373737;" d="M295.5,423.8v-4.4V418c-0.1-0.6,0-1.3-0.2-1.9c-0.3-1.3-0.6-2.7-1.1-3.9c-0.7-1.7-1.7-3.3-3-4.7
			l-2.4-2.3l-3.3-2.6c-0.9-0.7-1.7-1.5-2.6-2.3c-1.9-2-3.3-4.3-4.2-6.9l-0.8-3.1c-0.2-1.2-0.4-2.5-0.3-3.7c0-0.5,0-0.9-0.1-1.3v-0.1
			c-0.1-1.5-0.1-2.9,0-4.4c0-0.4,0.1-0.8,0.1-1.2v-2.1V376c0-2.1,0.6-4.1,1.5-6c1.1-2.3,2.9-4,5.2-5c1.1-0.5,2.3-0.8,3.5-1
			c0.8-0.1,1.7-0.3,2.5-0.3h0.6c0.8-0.1,1.6-0.1,2.4,0h0.6c1.4,0,2.7,0.3,4,0.7c1.4,0.4,2.7,1,3.9,1.8c1.2,0.9,2.2,1.9,2.9,3.2
			s1.2,2.6,1.5,4.1c0.1,0.8,0.3,1.6,0.3,2.4c0.2,1.3,0.2,2.6,0.2,3.9v3.2c0,1.3-0.1,2.5-0.2,3.8c0,0.3-0.3,0.6-0.7,0.7h-0.5h-0.8
			h-6.9c-0.4,0-0.8,0-1.2-0.1c-0.3,0-0.6-0.3-0.7-0.7v-0.3v-0.8v-7.2v-0.6c0-0.8-0.1-1.5-0.3-2.2c-0.2-0.5-0.5-1-0.9-1.3
			c-0.5-0.4-1.1-0.6-1.8-0.7h-1.2c-0.7,0-1.4,0.3-1.9,0.8c-0.2,0.1-0.3,0.3-0.4,0.4c-0.4,0.6-0.6,1.4-0.7,2.1v0.8v7.4
			c0,0.6,0,1.1,0.1,1.7c0.2,1.2,0.4,2.4,0.8,3.5c0.2,0.6,0.5,1.2,0.8,1.8c0.6,1.1,1.3,2.1,2.2,3c0.7,0.7,1.6,1.4,2.4,2.1l3.1,2.4
			c1.2,0.9,2.2,1.9,3.2,3c1.5,1.7,2.7,3.5,3.5,5.6c0.7,1.7,1.2,3.5,1.5,5.4l0.3,2.1c0,0.2,0,0.4,0.1,0.6c0.2,0.8,0.2,1.6,0.2,2.4
			v3.9v6.5v2.1c0,0.4-0.1,0.8-0.1,1.2c-0.1,0.3-0.1,0.7-0.2,1c-0.2,1.6-0.7,3-1.5,4.4c-1,1.8-2.4,3.2-4.2,4.2
			c-0.8,0.4-1.6,0.8-2.5,1c-1.4,0.4-2.8,0.7-4.3,0.7c-0.4,0-0.7,0-1,0.1s-0.7,0.1-1,0c-0.4-0.1-0.9-0.1-1.3-0.1
			c-1.6,0-3.1-0.3-4.6-0.8c-1.6-0.5-3-1.2-4.2-2.3c-0.6-0.5-1.2-1.1-1.6-1.8c-1.1-1.6-1.7-3.3-2.1-5.1c0-0.2-0.1-0.5-0.1-0.7
			s0-0.5-0.1-0.7c-0.2-0.7-0.2-1.4-0.2-2.1v-0.6v-8.9c0-0.4,0-0.7,0.1-1.1c0-0.3,0.3-0.7,0.7-0.7c0.2,0,0.5-0.1,0.7-0.1h4.7h0.6
			c0.8,0.2,1.6,0.1,2.4,0.2h0.9c0.5,0,0.7,0.3,0.8,0.8c0,0.2,0.1,0.4,0.1,0.6v1.4v7.4c0,0.6,0,1.2,0.1,1.8s0.2,1.1,0.5,1.6
			c0.5,0.8,1.2,1.2,2.1,1.4c0.7,0.1,1.4,0.1,2.1,0s1.3-0.5,1.7-1.1c0.3-0.5,0.6-1.1,0.6-1.7c0-0.5,0.1-0.9,0.1-1.4
			C295.5,427.7,295.5,425.8,295.5,423.8L295.5,423.8z M119.7,403.3v-15.4v-21.3v-1.4c0-0.1,0.1-0.3,0.1-0.4c0.1-0.3,0.3-0.4,0.5-0.5
			c0.1,0,0.3-0.1,0.4-0.1h0.9h6.6h7.5c1.5,0,2.9,0.1,4.3,0.5c1.1,0.1,2,0.5,3,1c0.9,0.4,1.7,1,2.4,1.7c0.3,0.3,0.5,0.6,0.8,0.9
			c0.7,0.9,1.2,2,1.6,3.1l0.5,2.1c0.3,1.8,0.3,1.8,0.3,3.6v1.7v17.6c0,1.7-0.2,3.3-0.6,4.9c-0.4,1.7-1.2,3.2-2.3,4.5
			c-0.6,0.7-1.3,1.2-2.1,1.7c-1.1,0.7-2.2,1.1-3.5,1.4c-0.8,0.2-1.7,0.4-2.5,0.4c-0.3,0-0.6,0-0.9,0.1c-0.6,0.1-1.3,0.1-2,0.1h-3
			c-0.3,0-0.5,0-0.7,0.1c-0.2,0.1-0.3,0.2-0.4,0.4c0,0.1-0.1,0.3-0.1,0.4v1.1v4.2v18.5l-0.1,2.4v1.2v2.4v0.9c0,0.4-0.3,0.6-0.7,0.7
			c-0.2,0-0.4,0.1-0.6,0.1h-0.9h-6.5h-1.1c-0.2,0-0.4-0.1-0.6-0.1c-0.2-0.1-0.3-0.2-0.4-0.4c0-0.1-0.1-0.3-0.1-0.4v-1.2v-33.6
			L119.7,403.3L119.7,403.3z M130.6,387L130.6,387l-0.1,3.3v7.5v0.8c0,0.1,0,0.3,0.1,0.4c0,0.2,0.3,0.5,0.5,0.5h0.6h2.9
			c0.6,0,1.2-0.1,1.8-0.3c0.6-0.3,1.1-0.7,1.3-1.4s0.3-1.4,0.3-2.1v-1.1v-15.5v-1.4c0-0.6-0.2-1.1-0.4-1.6s-0.6-0.8-1-1.1
			c-0.5-0.2-0.9-0.4-1.4-0.4h-3.8c-0.1,0-0.2,0-0.3,0.1c-0.2,0.1-0.3,0.2-0.4,0.4c0,0.1-0.1,0.3-0.1,0.4v1.4L130.6,387L130.6,387z
			 M260,408.7v2v19.4l-0.1,2.4v1.5v5.9v1.4c0,0.2-0.1,0.4-0.1,0.6c-0.1,0.3-0.3,0.5-0.6,0.6c-0.1,0-0.3,0.1-0.4,0.1h-0.9h-6.6h-1.2
			c-0.1,0-0.3-0.1-0.4-0.1c-0.2-0.1-0.4-0.3-0.5-0.5c0-0.1-0.1-0.3-0.1-0.4v-1.2v-14.3v-23.2l0.1-2.3c0-0.2,0-0.5,0.1-0.7V399v-22.2
			v-0.9c0-0.3-0.3-0.6-0.6-0.6h-1.4h-5.1c-0.3,0-0.6,0-0.9-0.1c-0.2,0-0.6-0.4-0.6-0.6s-0.1-0.4-0.1-0.6v-1.4V367v-1.2
			c0-0.1,0.1-0.3,0.1-0.4c0-0.2,0.3-0.5,0.5-0.5c0.3,0,0.6-0.1,0.9-0.1h4.2h6.8h13.1h1.5c0.1,0,0.3,0,0.4,0.1
			c0.3,0.1,0.4,0.2,0.5,0.5c0.1,0.2,0.1,0.5,0.1,0.7v7.8c0,0.2,0,0.5-0.1,0.7c0,0.2-0.3,0.5-0.5,0.5c-0.3,0-0.7,0.1-1,0.1H262h-1.2
			c-0.5,0-0.7,0.3-0.7,0.8v0.5v0.8v29.2C260,407.1,260,407.9,260,408.7L260,408.7z M686.6,407.8v7.1V431c0,0.3,0,0.6,0.1,0.9
			c0,0.2,0.3,0.5,0.5,0.5h0.4h2.3h5.1h1.2c0.1,0,0.3,0.1,0.4,0.1c0.3,0.1,0.4,0.3,0.5,0.5c0,0.2,0.1,0.4,0.1,0.6v7.7v0.6
			c0,0.4-0.4,0.7-0.8,0.8h-0.6h-1.4H678c-0.5,0-1,0-1.5-0.1c-0.3-0.1-0.6-0.3-0.6-0.6c0-0.2-0.1-0.4-0.1-0.6V440v-16v-22l0.1-3.2
			c0.1-0.5,0-1,0-1.5v-8.9v-9v-12.7c0-0.5,0-0.9,0.1-1.4c0.1-0.3,0.2-0.4,0.5-0.5c0.1-0.1,0.3-0.1,0.4-0.1h1.1h7.1h0.8
			c0.1,0,0.3,0,0.4,0.1c0.3,0.1,0.4,0.3,0.5,0.5c0,0.1,0.1,0.3,0.1,0.4v1.1v14.5c0,0.6,0,1.2-0.1,1.8s-0.1,1.2-0.1,1.8v13.4v6.5
			L686.6,407.8L686.6,407.8z M718.5,399.1V410c-0.1,6.8,0,13.6,0,20.3v1.4v0.4c0,0.3,0.3,0.5,0.6,0.6h0.4h1.2h6.3h1.2
			c0.3,0,0.6,0.3,0.6,0.6c0,0.1,0.1,0.3,0.1,0.4v0.9v6.3v1.1c0,0.1-0.1,0.3-0.1,0.4c-0.1,0.2-0.3,0.3-0.5,0.4
			c-0.1,0-0.3,0.1-0.4,0.1h-1.2h-16.4h-1.7h-0.4c-0.3,0-0.6-0.4-0.7-0.7v-0.4v-1.2v-9.2v-23.1v-23.4c0-0.7,0-1.4,0.1-2.1
			c0.1-0.3,0.1-0.6,0.1-0.9v-2.1v-12.4v-1.5c0-0.4,0.2-0.6,0.7-0.7c0.2,0,0.4-0.1,0.6-0.1h0.9h6.5h1.1c0.2,0,0.4,0.1,0.6,0.1
			c0.2,0.1,0.4,0.3,0.4,0.6v1.1v13.4v6.9L718.5,399.1L718.5,399.1z M661.6,403.8v7v13.9v15.8v1.2c0,0.2-0.1,0.4-0.1,0.6
			s-0.2,0.4-0.4,0.4c-0.1,0-0.3,0.1-0.4,0.1h-0.9h-7.1c-0.4,0-0.7,0-1.1-0.1c-0.1,0-0.3-0.1-0.4-0.1c-0.2-0.1-0.3-0.2-0.4-0.4
			c0-0.1-0.1-0.3-0.1-0.4v-1.5v-17.8v-23.7v-23.2l0.1-2.3c0.1-0.4,0-0.8,0-1.2v-5.4v-1.1c0-0.3,0.3-0.6,0.6-0.6
			c0.1,0,0.3-0.1,0.4-0.1h1.1h5.4l2.1,0.1c0.2,0,0.4,0.1,0.6,0.1c0.3,0.1,0.4,0.3,0.5,0.5c0,0.2,0.1,0.5,0.1,0.7v14.5v2.1v19.3
			L661.6,403.8L661.6,403.8z M514.8,402.8v13.7c0,0.5,0,1-0.1,1.5c0,0.2-0.2,0.4-0.4,0.5c-0.1,0.1-0.3,0.1-0.4,0.2
			c-0.2,0-0.4,0.1-0.6,0.1c-0.7,0-1.3,0.1-1.9,0.2H511c-0.3,0-0.6-0.2-0.7-0.5c-0.1-0.2-0.2-0.4-0.2-0.6l-1.6-5.5l-1.9-6.5
			c-0.1-0.4-0.1-0.9-0.4-1.3l-0.1-0.1l-0.1,0.1v3.5v10.1v0.8c0,0.3-0.3,0.6-0.6,0.6c-1,0.2-2,0.4-3,0.4h-0.1c-0.2,0-0.5-0.2-0.6-0.4
			c0-0.1-0.1-0.3-0.1-0.4V418v-27.4v-1.2c0-0.1,0-0.3,0.1-0.4c0.1-0.2,0.2-0.4,0.4-0.4c0.2-0.1,0.4-0.1,0.6-0.2
			c0.3-0.1,0.7-0.1,1-0.1c0.6,0,1.2-0.1,1.8-0.2c0.3,0,0.6,0.2,0.7,0.5c0.2,0.5,0.4,1,0.5,1.6l1.6,5.7l1.7,6.1c0,0,0,0.1,0.1,0.1
			c0,0.1,0.1,0.2,0.2,0.2l0.1-0.1v-1.5V390v-1.5c0-0.2,0.1-0.4,0.2-0.6s0.3-0.3,0.5-0.4l2.1-0.3c0.3,0,0.7-0.1,1,0
			c0.2,0,0.5,0.3,0.5,0.5c0,0.1,0,0.3,0.1,0.4v1.5L514.8,402.8L514.8,402.8z M521.8,401.8v-13.5v-1.4c0-0.1,0-0.3,0.1-0.4
			c0-0.2,0.2-0.4,0.4-0.5s0.4-0.2,0.6-0.2c0.2-0.1,0.5-0.1,0.7-0.1c0.4,0,0.9,0,1.3-0.2c0.2-0.1,0.4-0.1,0.6-0.1c1,0,2-0.3,3-0.3
			h1.7c0.4,0,0.8,0.1,1.2,0.2c1.3,0.4,2.1,1.3,2.4,2.6c0.2,0.7,0.3,1.5,0.3,2.2v1.1v18.2c0,1.1-0.1,2.1-0.3,3.1
			c-0.1,0.7-0.3,1.3-0.7,1.8c-0.3,0.5-0.7,0.9-1.2,1.3c-0.6,0.4-1.3,0.7-2.1,0.9c-0.6,0.1-1.3,0.3-1.9,0.3c-0.3,0-0.7,0.1-1,0.1
			c-0.4,0.1-0.8,0.1-1.2,0.1c-0.6,0-1.2,0.1-1.8,0.2c-0.4,0.1-0.8,0.1-1.2,0.1h-0.3c-0.2,0-0.5-0.3-0.5-0.5c0-0.1-0.1-0.3-0.1-0.4
			v-1.5V401.8z M526.5,401.3v9.3v1.4c0,0.2,0.3,0.5,0.5,0.5h0.3l1.2-0.3c0.2-0.1,0.4-0.3,0.5-0.6c0.1-0.2,0.1-0.4,0.1-0.6v-1.4
			v-17.3v-1.2c0-0.2,0-0.4-0.1-0.6c0-0.4-0.4-0.7-0.7-0.7c-0.4-0.1-0.8,0-1.2,0c-0.3,0-0.6,0.3-0.6,0.6v1.4V401.3L526.5,401.3z"/>
		<path style="fill:#373737;" d="M495.4,420.1v0.3c-0.1,0.2-0.2,0.4-0.4,0.4c-0.2,0.1-0.4,0.1-0.6,0.2s-0.5,0.1-0.7,0.1
			c-0.6,0-1.2,0.1-1.8,0.2h-0.4c-0.3,0-0.6-0.2-0.7-0.5c-0.2-0.7-0.3-1.4-0.3-2.1c0-1.1-0.2-2.1-0.3-3.1v-0.1c0-0.1-0.3-0.3-0.4-0.3
			c-0.6,0.1-1.3,0.1-1.9,0.2c-0.2,0-0.4,0.2-0.4,0.4c-0.2,0.4-0.3,0.8-0.3,1.3v0.9c0,1.1-0.2,2.1-0.3,3.1v0.1
			c-0.1,0.3-0.3,0.5-0.6,0.6c-1.1,0.3-2.3,0.4-3.4,0.4h-0.3c-0.2,0-0.4-0.2-0.4-0.4c0-0.7,0-1.3,0.2-1.9c0-0.2,0.1-0.4,0.1-0.6
			c0-1.3,0.4-2.6,0.4-3.9c0-0.2,0-0.4,0.1-0.6c0.1-0.5,0.1-1,0.2-1.5c0.2-0.9,0.2-1.9,0.3-2.8c0.2-1.1,0.2-2.2,0.4-3.3
			c0-0.1,0-0.3,0.1-0.4l0.5-4.6c0-0.2,0.1-0.5,0.1-0.7s0-0.4,0.1-0.6c0.2-0.8,0.2-1.7,0.3-2.5l0.4-3.3c0-0.2,0.1-0.5,0.1-0.7
			c0-0.5,0.1-1,0.2-1.5s0.1-1,0.2-1.5c0-0.2,0.1-0.4,0.2-0.6s0.3-0.4,0.5-0.5h0.1l2.8-0.4c0.4,0,0.8-0.1,1.2-0.2h0.6
			c0.1,0,0.3,0.1,0.4,0.3c0.2,0.3,0.3,0.6,0.3,1c0.1,1.2,0.4,2.3,0.4,3.4c0,0.3,0.1,0.6,0.1,0.9c0.1,0.4,0.1,0.8,0.2,1.2
			c0,0.2,0,0.5,0.1,0.7c0.1,0.4,0.2,0.9,0.2,1.3c0,0.3,0.1,0.6,0.1,0.9c0.1,0.4,0.1,0.9,0.2,1.3c0.1,0.6,0.1,1.3,0.3,1.9v0.1
			c0,0.8,0.2,1.6,0.3,2.4c0.1,0.6,0.2,1.3,0.2,1.9c0,0.3,0.1,0.7,0.1,1c0,0.4,0,0.8,0.2,1.2c0,0.1,0,0.2,0.1,0.3l0.4,3.4
			c0,0.4,0.1,0.8,0.2,1.2c0.1,0.3,0.1,0.6,0.1,0.9c0,0.4,0.1,0.8,0.2,1.2c0,0.2,0.1,0.4,0.1,0.6l0.3,2.5
			C495.4,419.9,495.4,420,495.4,420.1L495.4,420.1z M488.6,402.1l-0.5,4.7c-0.2,0.6-0.2,1.3-0.2,1.9c0,0.3-0.1,0.7-0.1,1
			c0,0.1-0.1,0.3-0.1,0.4v0.3c0,0.3,0.3,0.6,0.6,0.5l0.9-0.3c0.2-0.1,0.3-0.2,0.3-0.5c0.1-0.4,0-0.9,0-1.3l-0.3-2.7
			c0-0.2,0-0.4-0.1-0.6c-0.1-0.5-0.2-1.1-0.2-1.6S488.8,402.8,488.6,402.1L488.6,402.1z M534,375.9c0,0.5,0,1-0.1,1.4
			c0,0.1,0,0.2-0.1,0.3c-0.1,0.3-0.3,0.6-0.6,0.6c-0.8,0.2-1.6,0.3-2.4,0.4c-0.6,0-1.1,0.1-1.6,0.2c-0.3,0.1-0.6,0.1-0.9,0.1
			s-0.6,0.1-0.9,0.1s-0.7,0.1-1,0.2c-0.5,0.1-1,0.1-1.5,0.2c-0.3,0-0.7,0.1-1,0.1c-0.5,0-1,0.1-1.5,0.2c-1,0.2-2,0.3-3,0.4
			c-0.6,0.1-1.3,0.1-1.9,0.3c-1,0-1.9,0.3-2.8,0.4c-0.4,0-0.8,0.1-1.2,0.2s-0.9,0.1-1.3,0.2c-0.4,0-0.8,0.1-1.2,0.2
			c-0.1,0-0.2,0-0.3,0.1c-0.9,0-1.8,0.3-2.7,0.3c-0.6,0.1-1.2,0.1-1.8,0.2c-0.2,0-0.5,0.1-0.7,0.1c-0.5,0-0.9,0.1-1.3,0.2h-0.1
			l-3.4,0.4c-0.4,0-0.8,0.1-1.2,0.2c-0.3,0.1-0.6,0.1-0.9,0.1s-0.7,0.1-1,0.1c-0.1,0-0.3,0.1-0.4,0.1l-3.1,0.4L491,384
			c-0.5,0.1-1,0.1-1.5,0.2c-0.6,0-1.2,0.1-1.8,0.2l-2.2,0.3l-2.2,0.3h-0.4c-0.2,0-0.4-0.2-0.5-0.4s-0.1-0.4-0.2-0.6
			c-0.1-0.9-0.1-1.7,0-2.6c0-0.2,0.1-0.4,0.1-0.6c0.1-0.2,0.2-0.4,0.4-0.4c0.6-0.2,1.2-0.3,1.8-0.4c0.4,0,0.8-0.1,1.2-0.2
			c0.2-0.1,0.5-0.1,0.7-0.1c1.1,0,2.2-0.3,3.3-0.4c0.9-0.2,1.9-0.2,2.8-0.4c0.3-0.1,0.7-0.1,1-0.1c0.6-0.1,1.2-0.1,1.8-0.2
			c0.2-0.1,0.4-0.1,0.6-0.1c0.5,0,0.9-0.1,1.3-0.2s0.8-0.1,1.2-0.1c0.5,0,1-0.1,1.5-0.2c0.3-0.1,0.6-0.1,0.9-0.1
			c0.4,0,0.8-0.1,1.2-0.2c0.2,0,0.4-0.1,0.6-0.1c0.6,0,1.2-0.1,1.8-0.2c0.4-0.1,0.8-0.1,1.2-0.1s0.8-0.1,1.2-0.2
			c0.2-0.1,0.5-0.1,0.7-0.1c0.5,0,0.9-0.1,1.3-0.2h0.3l3.1-0.4c0.6,0,1.1-0.1,1.6-0.2c1.3-0.1,2.5-0.4,3.7-0.4h0.3
			c0.8-0.3,1.7-0.3,2.5-0.4l3.6-0.5c0.3,0,0.6,0,0.9-0.1c0.4-0.1,0.9-0.2,1.3-0.2c0.3,0,0.6-0.1,0.9-0.1c0.5-0.1,1.1-0.1,1.6-0.2
			c0.3,0,0.7-0.1,1-0.1c0.3-0.1,0.7-0.1,1-0.1c0.4,0,0.8-0.1,1.2-0.2c0.3-0.1,0.7-0.1,1-0.1h0.4c0.2,0,0.4,0.2,0.5,0.4
			c0.1,0.1,0.1,0.3,0.1,0.4C534,375,534,375.5,534,375.9L534,375.9z M534,423.6v1.4c0,0.1-0.1,0.3-0.1,0.4c-0.1,0.2-0.3,0.4-0.5,0.5
			h-0.1l-2.8,0.4c-0.4,0-0.8,0.1-1.2,0.1c-0.1,0-0.3,0.1-0.4,0.1c-1,0-2,0.3-3,0.4c-0.9,0.1-1.9,0.3-2.8,0.3c-0.2,0-0.4,0.1-0.6,0.1
			c-0.3,0.1-0.6,0.1-0.9,0.1c-0.5,0-1,0.1-1.5,0.2c-1.2,0.1-2.5,0.4-3.7,0.5H516c-0.7,0.2-1.4,0.2-2.1,0.3l-2.2,0.3
			c-0.2,0-0.5,0.1-0.7,0.1c-0.4,0.1-0.8,0.1-1.2,0.2c-0.3,0-0.7,0.1-1,0.1c-0.2,0-0.5,0.1-0.7,0.1c-0.7,0-1.3,0.1-1.9,0.2
			c-0.4,0.1-0.8,0.1-1.2,0.1c-0.2,0-0.5,0-0.7,0.1c-0.4,0.1-0.9,0.2-1.3,0.2c-0.3,0-0.6,0.1-0.9,0.1c-0.5,0.1-1.1,0.1-1.6,0.2
			c-0.4,0-0.8,0.1-1.2,0.2c-0.1,0-0.2,0.1-0.3,0.1l-3.1,0.4c-0.3,0-0.6,0.1-0.9,0.1c-0.5,0.1-1,0.1-1.5,0.2c-0.2,0-0.4,0-0.6,0.1
			c-0.8,0.2-1.7,0.2-2.5,0.4c-0.4,0.1-0.8,0.1-1.2,0.1c-0.6,0-1.2,0.1-1.8,0.2h-0.1c-1.3,0.1-2.5,0.4-3.7,0.5c-0.2,0-0.4,0-0.6-0.1
			c-0.2-0.1-0.3-0.2-0.4-0.4c0-0.1-0.1-0.3-0.1-0.4c-0.1-0.9-0.1-1.7,0-2.6c0-0.2,0.1-0.4,0.1-0.6c0.1-0.2,0.2-0.3,0.4-0.4l0.9-0.3
			c1.2-0.1,2.4-0.4,3.6-0.4c0.2,0,0.4-0.1,0.6-0.1c0.3-0.1,0.7-0.1,1-0.2c0.3,0,0.7-0.1,1-0.1c0.4-0.1,0.8-0.1,1.2-0.2l1.9-0.2
			c0.2-0.1,0.5-0.1,0.7-0.1c0.4,0,0.7-0.1,1-0.1c0.2-0.1,0.5-0.1,0.7-0.1c0.5,0,1-0.1,1.5-0.2c0.4-0.1,0.9-0.1,1.3-0.1
			c0.5,0,0.9-0.1,1.3-0.2c0.1,0,0.2,0,0.3-0.1l2.4-0.3l1.9-0.3c0.3,0,0.7-0.1,1-0.1c0.2,0,0.4,0,0.6-0.1c0.7-0.2,1.5-0.2,2.2-0.3
			c0.6-0.1,1.3-0.2,1.9-0.2c0.2,0,0.4,0,0.6-0.1c0.9-0.2,1.8-0.2,2.7-0.4c0.2,0,0.4-0.1,0.6-0.1c0.7,0,1.4-0.1,2.1-0.3h0.3
			c0.7-0.1,1.4-0.1,2.1-0.3l1.9-0.3c0.3-0.1,0.6-0.1,0.9-0.1c0.7,0,1.3-0.1,1.9-0.2c0.7-0.1,1.4-0.1,2.1-0.3
			c1.2-0.1,2.4-0.4,3.6-0.4h0.3c0.9-0.3,1.9-0.2,2.8-0.4c0.5-0.1,1-0.1,1.5-0.1c0.4,0,0.6,0.2,0.7,0.6c0,0.1,0,0.2,0.1,0.3v0.5v0.3
			C534,423.2,534,423.4,534,423.6L534,423.6z"/>
	</g>
</g>
</svg>
