<?xml version="1.0"?>
<svg xmlns="http://www.w3.org/2000/svg" xmlns:xlink="http://www.w3.org/1999/xlink" xmlns:svgjs="http://svgjs.com/svgjs" version="1.1" width="512" height="512" x="0" y="0" viewBox="0 0 512 512" style="enable-background:new 0 0 512 512" xml:space="preserve" class=""><g><path xmlns="http://www.w3.org/2000/svg" d="m512 256c0 141.386719-114.613281 256-256 256s-256-114.613281-256-256 114.613281-256 256-256 256 114.613281 256 256zm0 0" fill="#f1f1f1" data-original="#2864f0" style="" class=""/><path xmlns="http://www.w3.org/2000/svg" d="m508.636719 297.492188-205.445313-205.441407-66.046875-7.574219-27.976562 40.167969 148.832031 228.261719-235.828125 67.09375 87.878906 87.878906c14.910157 2.703125 30.261719 4.121094 45.949219 4.121094 127.253906 0 232.804688-92.855469 252.636719-214.507812zm0 0" fill="#f1f1f1" data-original="#0053bf" style="" class=""/><path xmlns="http://www.w3.org/2000/svg" d="m122.171875 214.894531h267.65625v205.105469h-267.65625zm0 0" fill="#09ce67" data-original="#09ce67" style="" class=""/><path xmlns="http://www.w3.org/2000/svg" d="m256 214.894531h133.828125v205.105469h-133.828125zm0 0" fill="#1aad5c" data-original="#1aad5c" style=""/><path xmlns="http://www.w3.org/2000/svg" d="m155.628906 297.808594c-18.480468 0-33.457031-14.980469-33.457031-33.457032v-70.550781h66.914063v70.550781c0 18.476563-14.980469 33.457032-33.457032 33.457032zm0 0" fill="#fe6a16" data-original="#fe6a16" style="" class=""/><path xmlns="http://www.w3.org/2000/svg" d="m222.542969 297.808594c-18.476563 0-33.457031-14.980469-33.457031-33.457032v-70.550781h66.914062v70.550781c0 18.476563-14.980469 33.457032-33.457031 33.457032zm0 0" fill="#ffffff" data-original="#ffffff" style=""/><path xmlns="http://www.w3.org/2000/svg" d="m289.457031 297.808594c-18.476562 0-33.457031-14.980469-33.457031-33.457032v-70.550781h66.914062v70.550781c0 18.476563-14.980468 33.457032-33.457031 33.457032zm0 0" fill="#f24500" data-original="#f24500" style=""/><path xmlns="http://www.w3.org/2000/svg" d="m356.371094 297.808594c-18.476563 0-33.457032-14.980469-33.457032-33.457032v-70.550781h66.914063v70.550781c0 18.476563-14.976563 33.457032-33.457031 33.457032zm0 0" fill="#e9edf5" data-original="#e9edf5" style=""/><path xmlns="http://www.w3.org/2000/svg" d="m214.179688 317.445312h83.640624v102.554688h-83.640624zm0 0" fill="#ffffff" data-original="#ffffff" style=""/><path xmlns="http://www.w3.org/2000/svg" d="m256 317.445312h41.820312v102.554688h-41.820312zm0 0" fill="#e9edf5" data-original="#e9edf5" style=""/><path xmlns="http://www.w3.org/2000/svg" d="m256 67.332031c-31.703125 0-57.40625 25.703125-57.40625 57.40625 0 54.46875 57.40625 96.46875 57.40625 96.46875s57.40625-43.570312 57.40625-96.46875c0-31.703125-25.703125-57.40625-57.40625-57.40625zm0 92.628907c-19.503906 0-35.316406-15.8125-35.316406-35.316407 0-19.507812 15.8125-35.316406 35.316406-35.316406s35.316406 15.8125 35.316406 35.316406c0 19.503907-15.8125 35.316407-35.316406 35.316407zm0 0" fill="#ffd400" data-original="#ffd400" style="" class=""/><path xmlns="http://www.w3.org/2000/svg" d="m256 67.332031v21.996094c19.503906 0 35.316406 15.8125 35.316406 35.316406 0 19.503907-15.8125 35.316407-35.316406 35.316407v61.246093s57.40625-43.570312 57.40625-96.46875c0-31.703125-25.703125-57.40625-57.40625-57.40625zm0 0" fill="#fdba12" data-original="#fdba12" style="" class=""/></g></svg>
