<svg xmlns="http://www.w3.org/2000/svg" viewBox="0 0 59.23 16"><path d="M20.67 6.35l-.46.59q-1.74 2.19-3.47 4.39a3.65 3.65 0 0 0-.67 1.14 1 1 0 0 0 0 .39.24.24 0 0 0 .25.24h.07a4.08 4.08 0 0 0 .67-.23 6.45 6.45 0 0 0 1.68-1.25A27.52 27.52 0 0 0 21 9l2-2.54a.25.25 0 0 1 .19-.09h1.48a1.23 1.23 0 0 0-.08.12l-3.78 4.77a4.6 4.6 0 0 0-.66 1.08 1.92 1.92 0 0 0-.09.32c-.05.33.12.5.45.46a2 2 0 0 0 .87-.31 12 12 0 0 0 2.16-1.67 21.4 21.4 0 0 0 2.26-2.59l2.35-3 .08-.1h-2.05l.44-.46c.15-.14.08 0 .13 0h1.76a.21.21 0 0 0 .21-.1l1.37-1.73a.24.24 0 0 1 .23-.16h1.42l-1.53 2h2.9a.21.21 0 0 0 .21-.1l1.35-1.71a.28.28 0 0 1 .26-.19h1.24.17l-1.53 2H37l-.42.46c-.14.14-.09 0-.13 0h-2a.26.26 0 0 0-.15.07l-4.53 5.79a8.85 8.85 0 0 0-.6 1 1.19 1.19 0 0 0-.1.32c-.06.33.11.51.45.48a3.07 3.07 0 0 0 1-.31 11.25 11.25 0 0 0 2.27-1.49 26.36 26.36 0 0 0 2.94-2.85l3-3.42.35.29a2.19 2.19 0 0 0-.51 1.9 13.34 13.34 0 0 1 .23 2.27 4.18 4.18 0 0 1-1.08 2.9 3.47 3.47 0 0 1-2 1.15 1.56 1.56 0 0 1-1.6-.62 1.27 1.27 0 0 1 0-1.43 1.07 1.07 0 0 1 1.11-.42.7.7 0 0 1 .51.72.6.6 0 0 1-.57.65H35a.17.17 0 0 0-.22.12.13.13 0 0 0 0 .06.39.39 0 0 0 .27.39 1 1 0 0 0 .62 0 1.82 1.82 0 0 0 1.09-.87 7.49 7.49 0 0 0 .8-1.94A10.36 10.36 0 0 0 38 7.57c0-.27 0-.54.06-.83a33.65 33.65 0 0 1-2.44 2.76 23.65 23.65 0 0 1-3 2.71 7.61 7.61 0 0 1-2.13 1.16 2.61 2.61 0 0 1-1 .15 1 1 0 0 1-1-.91 2.64 2.64 0 0 1 .11-1.08v-.09h0l-.7.58a10.65 10.65 0 0 1-1.9 1.24 2.49 2.49 0 0 1-1.1.31c-.89 0-1.25-.55-1.18-1.33a6 6 0 0 1 .13-.69l-.2.17A11.17 11.17 0 0 1 22 13a3.17 3.17 0 0 1-1.38.54 1.84 1.84 0 0 1-.62-.05.93.93 0 0 1-.71-1c0-.29.06-.58.08-.85l-.44.42a6.3 6.3 0 0 1-1.78 1.21 3.11 3.11 0 0 1-.83.23 1 1 0 0 1-1.06-1 2.76 2.76 0 0 1 .39-1.4A11.71 11.71 0 0 1 17 9.29c.15-.17.29-.35.43-.54h-.07A8.35 8.35 0 0 1 14.75 10a.51.51 0 0 0-.24.17A12.33 12.33 0 0 1 12 12.74a5 5 0 0 1-1.63.8 1.73 1.73 0 0 1-1.64-.34 1.63 1.63 0 0 1-.52-1.52v-.26l-.36.32a11 11 0 0 1-3.24 2.07 6.13 6.13 0 0 1-2.27.49 2.13 2.13 0 0 1-2.2-1.65 4.79 4.79 0 0 1 0-2.35 10.36 10.36 0 0 1 1.47-3.23A19 19 0 0 1 4 4.1a17.56 17.56 0 0 1 2.88-2.44A10 10 0 0 1 10.14.18 5.2 5.2 0 0 1 11.85 0a2 2 0 0 1 1.82 2 2.29 2.29 0 0 1-1.07 1.9 1.75 1.75 0 0 1-1.14.35 1.06 1.06 0 0 1-.77-.36.77.77 0 0 1 .31-1.22.63.63 0 0 1 .87.7c0 .15 0 .21.17.21a.9.9 0 0 0 .59-.27 1.68 1.68 0 0 0 .56-1.53A1.39 1.39 0 0 0 11.91.64a3.3 3.3 0 0 0-1.7.24 8.51 8.51 0 0 0-2.29 1.39 25.06 25.06 0 0 0-3.18 3.17A26.1 26.1 0 0 0 2.3 8.65a9.76 9.76 0 0 0-1.2 2.5 3.13 3.13 0 0 0-.1 1.52 1.23 1.23 0 0 0 1.15 1A4.18 4.18 0 0 0 4 13.41a10.51 10.51 0 0 0 2.81-1.61 16.81 16.81 0 0 0 2.54-2.45 10.53 10.53 0 0 1 3.11-2.56 4.46 4.46 0 0 1 1.73-.56 2.16 2.16 0 0 1 .67 0 1.1 1.1 0 0 1 .89 1.28 4.88 4.88 0 0 1-.5 1.54 1.05 1.05 0 0 0-.06.24.82.82 0 0 0 .27 0 9.47 9.47 0 0 0 1.67-1 11.08 11.08 0 0 0 2-1.92.22.22 0 0 1 .18-.1h1.35zm12.17-.89h-2.93a.26.26 0 0 0-.16.09l-4.18 5.33a7 7 0 0 0-.87 1.27 1.47 1.47 0 0 0-.17.62.29.29 0 0 0 .25.3 1.1 1.1 0 0 0 .26 0 2.27 2.27 0 0 0 1-.38 14.36 14.36 0 0 0 3.46-3.04l2.21-2.77 1.13-1.42zM14 10a.53.53 0 0 1-.27-.49.8.8 0 0 1 .2-.51 1.82 1.82 0 0 1 .89-.51.21.21 0 0 0 .11-.08 2.79 2.79 0 0 0 .29-1.07.57.57 0 0 0-.52-.62h-.07a1.27 1.27 0 0 0-.34 0 3.39 3.39 0 0 0-1.23.65 14.77 14.77 0 0 0-2.48 2.39 7.48 7.48 0 0 0-1.15 1.7 2.22 2.22 0 0 0-.27.94.57.57 0 0 0 .51.6 1.4 1.4 0 0 0 .41 0 3.49 3.49 0 0 0 1.38-.64 12.06 12.06 0 0 0 1.85-1.65zm37.57-3.8c-.08-.2-.19-.2-.44-.2a.63.63 0 0 0-.19-.68.65.65 0 0 0-.2.68c-.25 0-.37 0-.44.21l.4.18c.13.07.1.13 0 .23a.7.7 0 0 1-.54.38.56.56 0 0 0 0-.12l-.5-1.71a1.55 1.55 0 0 1 .11-1.1 1.21 1.21 0 0 1 1.09-.7 2.49 2.49 0 0 1 1 .19l.31.1a.47.47 0 0 1 .2-.61.42.42 0 0 1 .49.05.45.45 0 0 1 .13.56 2.13 2.13 0 0 0 .3-.09 2.84 2.84 0 0 1 1-.2 1.25 1.25 0 0 1 1.31 1.31 3.09 3.09 0 0 1-.11.8l-.46 1.5a.62.62 0 0 1-.57-.44.19.19 0 0 1 .07-.15.45.45 0 0 1 .19-.11h.22c-.06-.18-.18-.24-.44-.23a.64.64 0 0 0-.2-.67.63.63 0 0 0-.2.67c-.26 0-.37 0-.43.21a2.17 2.17 0 0 1 .35.15c.19.12.17.14 0 .29a.81.81 0 0 1-1 .13 1.08 1.08 0 0 1-.24-.18l-.18-.2a5.7 5.7 0 0 1-.55.42.76.76 0 0 1-.94-.22c-.06-.08-.06-.15 0-.19a4.11 4.11 0 0 1 .46-.26zm3.49-1a4.87 4.87 0 0 0 .06-.55.8.8 0 0 0-1-.86 6 6 0 0 0-.73.17 2.73 2.73 0 0 1-1.65 0 6.58 6.58 0 0 0-.74-.14.78.78 0 0 0-.82.36 1.26 1.26 0 0 0 0 1 4.75 4.75 0 0 1 4.88 0zm-1.71 1.47v-1l-.5.51zm-1-.51l-.5-.49v1zm-.26-.76l.5.5.51-.5zM49.4 9c.12 0 .22-.06.31-.1a2.49 2.49 0 0 1 1.08-.19A1.25 1.25 0 0 1 52 9.86a2.09 2.09 0 0 1-.09.93l-.45 1.48v.08a.66.66 0 0 1-.55-.44.23.23 0 0 1 0-.14.67.67 0 0 1 .44-.18c0-.17-.18-.25-.43-.24a1.51 1.51 0 0 0 0-.37 1.37 1.37 0 0 0-.16-.32c-.21.15-.25.27-.24.66a1.58 1.58 0 0 0-.31.09c-.06 0-.09.1-.13.14l.42.2c.11.05.09.13 0 .22a.8.8 0 0 1-1 .19 3.9 3.9 0 0 1-.51-.4 3.08 3.08 0 0 1-.44.37.77.77 0 0 1-.91-.06c-.21-.19-.22-.26 0-.4l.29-.1c-.07-.18-.19-.24-.44-.22a.62.62 0 0 0-.2-.67.63.63 0 0 0-.2.67.37.37 0 0 0-.44.21l.4.18a.14.14 0 0 1 .08.19h0a.72.72 0 0 1-.55.39l-.23-.76-.33-1.22A1.4 1.4 0 0 1 46.46 9a1.3 1.3 0 0 1 1-.3 2.4 2.4 0 0 1 .87.2l.28.08a.46.46 0 0 1 .17-.59.42.42 0 0 1 .49 0 .48.48 0 0 1 .13.61zm-2.82 1.55A3.92 3.92 0 0 1 49 9.9a4 4 0 0 1 2.43.68c0-.12 0-.23.07-.33a.86.86 0 0 0-1.06-1.06 4.21 4.21 0 0 0-.61.16 2.57 2.57 0 0 1-1.2.09c-.3 0-.58-.14-.87-.21a1.42 1.42 0 0 0-.71 0c-.63.17-.67 1-.47 1.37zm3.16.44l-.49.49.49.5zm-1.23-.25l.49.49.49-.49zm.25.76l-.5-.51v1zm9.89.86a.72.72 0 0 1-.56-.42v-.18l.42-.2c0-.14-.18-.22-.43-.21a.64.64 0 0 0-.2-.67.62.62 0 0 0-.19.68.37.37 0 0 0-.45.2 2.76 2.76 0 0 1 .39.18c.13.08.13.13 0 .25a.81.81 0 0 1-.86.22 1 1 0 0 1-.53-.4l-.05-.06a5.56 5.56 0 0 1-.54.42.76.76 0 0 1-.91-.16c-.11-.13-.11-.2 0-.29a2.39 2.39 0 0 1 .37-.15c-.05-.17-.18-.24-.44-.21a.65.65 0 0 0-.19-.68.65.65 0 0 0-.2.68.37.37 0 0 0-.44.2 4.11 4.11 0 0 1 .42.21c.07 0 .08.1 0 .18a.74.74 0 0 1-.56.41l-.33-1.09-.24-1a1.36 1.36 0 0 1 .17-.94 1.25 1.25 0 0 1 1.23-.64 2.77 2.77 0 0 1 .86.2l.28.09a.49.49 0 0 1 .33-.57.42.42 0 0 1 .48 0 .46.46 0 0 1 .14.57l.38-.05a2.45 2.45 0 0 1 1-.19A1.26 1.26 0 0 1 59.23 10a2.76 2.76 0 0 1-.16 1zm0-1.78a2.89 2.89 0 0 0 .07-.49.82.82 0 0 0-1-.91 3.53 3.53 0 0 0-.54.13 3 3 0 0 1-1.64.08 8.11 8.11 0 0 0-.85-.21.78.78 0 0 0-.84.33 1.15 1.15 0 0 0 0 1.05 4.72 4.72 0 0 1 4.85 0zm-1.93.18h-1l.5.51zm-.77.76l-.44-.52v1zM57 11l-.49.49.49.51zM43 0h.34v16H43zm7.27 8.09v-.34h4.66v.34zm-3.6 5.35v-.34h4.64v.34zm7.25.01v-.34h4.65v.34z"/><path d="M49.51 12.65l-.49.2H49l-.49-.21.47-.23h.11zm3.62-5.36l-.5.2a.08.08 0 0 1-.08 0c-.15-.05-.29-.12-.46-.19l.49-.3h.06zm3.64 5.35l-.49.2h-.06l-.5-.2.47-.24h.1zm-3.08-5.52h.68v.32h-.68zm-3.61 5.67v-.31h.67v.31zm7.25-.31H58v.31h-.68zm-6.55-5.34h.68v.31h-.68zm-3.6 5.36h.66v.31h-.66zm7.24.31v-.31h.67v.31zm-6.05-4.95v-.78l.39.4zm1.27 0l-.38-.39.38-.39zm5.99-.79l.41.4-.41.39zM49 7.7l.41.4h-.79zm4.26-5.19l-.4-.39.39-.4zm3.02 5.22l.37.38h-.75zM52.6 1.85l-.38-.37H53zm4.08 4.99l-.42.4-.41-.4zm.22.23v.79l-.39-.4zm-7.9.15l-.38-.38h.76zm4-4.48h-.81l.42-.39zm-1-.23v-.8l.39.41z"/></svg>