<?xml version="1.0"?>
<svg xmlns="http://www.w3.org/2000/svg" xmlns:xlink="http://www.w3.org/1999/xlink" xmlns:svgjs="http://svgjs.com/svgjs" version="1.1" width="512" height="512" x="0" y="0" viewBox="0 0 512 512" style="enable-background:new 0 0 512 512" xml:space="preserve" class=""><g>
<circle xmlns="http://www.w3.org/2000/svg" style="" cx="256" cy="256" r="256" fill="#f1f1f1" data-original="#ffad9e" class=""/>
<path xmlns="http://www.w3.org/2000/svg" style="" d="M512,256c0-10.23-0.619-20.313-1.786-30.23L398.222,113.778l-62.567,77.5l-90.429-90.429  l-81.167,24.135v15.174l-39.507,8.961l39.507,39.507v47.049H346.29l5.935,5.935L113.778,398.222L225.77,510.214  C235.685,511.381,245.77,512,256,512C397.384,512,512,397.384,512,256z" fill="#f1f1f1" data-original="#ff6262" class=""/>
<g xmlns="http://www.w3.org/2000/svg">
	<rect x="138.774" y="130.155" style="" width="6.896" height="37.926" fill="#386895" data-original="#386895" class=""/>
	<rect x="224.108" y="130.155" style="" width="6.896" height="37.926" fill="#386895" data-original="#386895" class=""/>
	<rect x="113.778" y="161.185" style="" width="199.111" height="237.037" fill="#386895" data-original="#386895" class=""/>
</g>
<rect xmlns="http://www.w3.org/2000/svg" x="256" y="113.778" style="" width="142.222" height="284.444" fill="#273b7a" data-original="#273b7a"/>
<g xmlns="http://www.w3.org/2000/svg">
	<rect x="284.444" y="142.222" style="" width="28.444" height="28.444" fill="#02b2b2" data-original="#02b2b2"/>
	<rect x="341.333" y="142.222" style="" width="28.444" height="28.444" fill="#02b2b2" data-original="#02b2b2"/>
	<rect x="284.444" y="199.111" style="" width="28.444" height="28.444" fill="#02b2b2" data-original="#02b2b2"/>
	<rect x="341.333" y="199.111" style="" width="28.444" height="28.444" fill="#02b2b2" data-original="#02b2b2"/>
	<rect x="284.444" y="256" style="" width="28.444" height="28.444" fill="#02b2b2" data-original="#02b2b2"/>
	<rect x="341.333" y="256" style="" width="28.444" height="28.444" fill="#02b2b2" data-original="#02b2b2"/>
	<rect x="142.222" y="199.111" style="" width="28.444" height="28.444" fill="#02b2b2" data-original="#02b2b2"/>
	<rect x="199.111" y="199.111" style="" width="28.444" height="28.444" fill="#02b2b2" data-original="#02b2b2"/>
	<rect x="142.222" y="256" style="" width="28.444" height="28.444" fill="#02b2b2" data-original="#02b2b2"/>
	<rect x="199.111" y="256" style="" width="28.444" height="28.444" fill="#02b2b2" data-original="#02b2b2"/>
	<rect x="142.222" y="312.889" style="" width="28.444" height="28.444" fill="#02b2b2" data-original="#02b2b2"/>
	<rect x="199.111" y="312.889" style="" width="28.444" height="28.444" fill="#02b2b2" data-original="#02b2b2"/>
	<rect x="298.667" y="312.889" style="" width="56.889" height="85.333" fill="#02b2b2" data-original="#02b2b2"/>
	<rect x="124.552" y="100.848" style="" width="120.673" height="48.269" fill="#02b2b2" data-original="#02b2b2"/>
</g>
<g xmlns="http://www.w3.org/2000/svg">
</g>
<g xmlns="http://www.w3.org/2000/svg">
</g>
<g xmlns="http://www.w3.org/2000/svg">
</g>
<g xmlns="http://www.w3.org/2000/svg">
</g>
<g xmlns="http://www.w3.org/2000/svg">
</g>
<g xmlns="http://www.w3.org/2000/svg">
</g>
<g xmlns="http://www.w3.org/2000/svg">
</g>
<g xmlns="http://www.w3.org/2000/svg">
</g>
<g xmlns="http://www.w3.org/2000/svg">
</g>
<g xmlns="http://www.w3.org/2000/svg">
</g>
<g xmlns="http://www.w3.org/2000/svg">
</g>
<g xmlns="http://www.w3.org/2000/svg">
</g>
<g xmlns="http://www.w3.org/2000/svg">
</g>
<g xmlns="http://www.w3.org/2000/svg">
</g>
<g xmlns="http://www.w3.org/2000/svg">
</g>
</g></svg>
