<?xml version="1.0" encoding="utf-8"?>
<svg version="1.1" id="Layer_1" xmlns="http://www.w3.org/2000/svg" xmlns:xlink="http://www.w3.org/1999/xlink" x="0px" y="0px"
	width="100px" height="100px" viewBox="0 0 66.7 66.7" style="enable-background:new 0 0 66.7 66.7;" xml:space="preserve">
<g>
	<circle style="fill:#E8E8E8;" cx="33.3" cy="33.3" r="33.3"/>
	<circle style="fill:#FFFFFF;" cx="33.3" cy="33.3" r="32.7"/>
	<path style="fill:#1D1D1B;" d="M22.3,19.5h21.1v20.7H22.3C22.3,40.1,22.3,19.5,22.3,19.5z"/>
	<path style="fill:#FFFFFF;" d="M37.4,22.4l-0.3-0.2l-7.7-0.3l-1.2,0.7C28.1,22.6,37.4,22.4,37.4,22.4z M39.7,24.5l-0.3-0.3
		l-12.9-0.3c-0.2,0.3-0.5,0.6-0.7,0.9C25.9,24.7,39.7,24.5,39.7,24.5z M40.9,26.5l-0.1-0.2L25.1,26c-0.1,0.3-0.3,0.5-0.3,0.8
		L40.9,26.5z M26.1,27.8h-1.7c-0.1,0.3-0.1,0.5-0.1,0.8h1.8V27.8z M39.7,28.3l1.8-0.1v-0.1h-1.8V28.3z M26.1,29.5l-1.9-0.1v0.3v0.5
		h1.9V29.5C26.1,29.5,26.1,29.5,26.1,29.5z M39.7,30l2-0.1v-0.1h-2V30z M40.8,33.3l-0.1,0.2l-15.5,0.3L24.9,33
		C24.9,33,40.8,33.3,40.8,33.3z M39.7,31.7l1.7-0.1v-0.1l-1.7-0.1C39.7,31.5,39.7,31.7,39.7,31.7z M26.1,32h-1.5
		c-0.1-0.3-0.2-0.5-0.2-0.8l1.7,0.1V32C26.1,32,26.1,32,26.1,32z M31.7,31.4h0.5v0.7h-1.8v-0.7h0.5v-2.5l-1.2,3.2h-0.6l-1.3-3.2v2.5
		h0.5v0.7h-1.9v-0.7h0.5v-2.9h-0.5v-0.7h1.7l1.2,3.1l1.2-3.1h1.7v0.7h-0.5C31.7,28.5,31.7,31.4,31.7,31.4z M33.7,31.4h0.5
		c0.2,0,0.5,0,0.6-0.1S35,31,35,30.8s-0.1-0.4-0.3-0.5c-0.2-0.1-0.4-0.1-0.6-0.1h-0.5V31.4L33.7,31.4z M33.7,29.5h0.4
		c0.2,0,0.4,0,0.6-0.1c0.1-0.1,0.2-0.3,0.2-0.4c0-0.2-0.1-0.3-0.2-0.4s-0.3-0.1-0.5-0.1h-0.5V29.5C33.7,29.5,33.7,29.5,33.7,29.5z
		 M32.4,31.4h0.5v-2.9h-0.5v-0.7h1.9c0.3,0,0.7,0,0.9,0.2c0.3,0.2,0.4,0.5,0.4,0.9c0,0.4-0.2,0.7-0.6,0.9c0.5,0.2,0.8,0.6,0.8,1.1
		c0,0.3-0.1,0.7-0.4,0.9c-0.3,0.3-0.7,0.3-1,0.3h-2.1C32.4,32.1,32.4,31.4,32.4,31.4z M36,31.4h0.5v-2.9H36v-0.7h3.3v1.3h-0.9v-0.6
		h-1.1v1.1h1.3v0.7h-1.3v1.1h1.1v-0.6h0.9v1.3H36C36,32.1,36,31.4,36,31.4z M37.5,37L37,37.3l-7.7,0.3c-0.3-0.2-0.9-0.5-1.3-0.7
		C28,36.8,37.5,37,37.5,37z M39.7,35.1l-0.2,0.2l-12.9,0.3c-0.2-0.3-0.5-0.5-0.7-0.8C25.9,34.9,39.7,35.1,39.7,35.1z"/>
	<g>
		<path style="fill:#1D1D1B;" d="M55.8,44.1c-0.3-0.4-0.7-0.7-1.2-0.7c-0.9,0-1.5,0.7-1.5,1.5c0,0.8,0.7,1.5,1.5,1.5
			c0.5,0,1-0.3,1.3-0.7h0.9c-0.3,0.9-1.2,1.5-2.1,1.5c-0.6,0-1.2-0.3-1.6-0.7c-0.5-0.5-0.7-1.1-0.7-1.7c0-1.3,1-2.3,2.3-2.3
			c0.5,0,1,0.2,1.4,0.5v-0.4h0.7v1.4H55.8L55.8,44.1z M56.5,46.3h0.8v0.9h-0.8V46.3z M12.5,42.7l-1.2,3.1l-1.2-3.1H8.5v0.7h0.5v3
			H8.5v0.7h1.9v-0.7H9.8v-2.6l1.3,3.3h0.6l1.2-3.3v2.6h-0.5v0.7h1.8v-0.7h-0.5v-3h0.5v-0.7C14.2,42.7,12.5,42.7,12.5,42.7z
			 M16.7,43.7L16.7,43.7l-0.6,1.5h1.1L16.7,43.7z M17.3,46.5h0.5l-0.3-0.7h-1.5l-0.3,0.7h0.5v0.6h-1.8v-0.7h0.5l1.3-3h-0.5v-0.7h1.5
			l1.5,3.7h0.5v0.7h-1.9C17.3,47.1,17.3,46.5,17.3,46.5z M20.7,46.4h0.5v0.7h-1.8v-0.7h0.5v-3h-0.5v-0.7h1.8v0.7h-0.5
			C20.7,43.4,20.7,46.4,20.7,46.4z M21.3,46.4h0.5v-3h-0.5v-0.7h1.8v0.7h-0.5v3h1.1v-0.6h0.9v1.3h-3.3
			C21.3,47.1,21.3,46.4,21.3,46.4z M27,46.4h0.5c0.2,0,0.5,0,0.6-0.1c0.1-0.1,0.3-0.3,0.3-0.5s-0.1-0.4-0.3-0.5
			c-0.2-0.1-0.4-0.1-0.6-0.1H27L27,46.4C27,46.4,27,46.4,27,46.4z M27,44.5h0.4c0.2,0,0.4,0,0.6-0.1c0.1-0.1,0.2-0.3,0.2-0.4
			c0-0.2-0.1-0.3-0.2-0.5c-0.1-0.1-0.3-0.1-0.5-0.1H27C27,43.4,27,44.5,27,44.5z M25.7,46.4h0.5v-3h-0.5v-0.7h2c0.3,0,0.7,0,0.9,0.2
			c0.3,0.2,0.4,0.5,0.4,0.9c0,0.4-0.2,0.8-0.6,0.9c0.5,0.2,0.8,0.6,0.8,1.1c0,0.3-0.1,0.7-0.4,0.9c-0.3,0.3-0.7,0.3-1,0.3h-2.1
			L25.7,46.4z M37.8,47.1H36v-0.7h0.5l-0.8-1l-0.8,1h0.5v0.7h-1.8v-0.7H34l1.3-1.5l-1.2-1.5h-0.5v-0.7h1.7v0.7h-0.4l0.7,0.9l0.7-0.9
			H36v-0.7h1.8v0.7h-0.5l-1.2,1.5l1.2,1.5h0.5C37.8,46.4,37.8,47.1,37.8,47.1z M37.9,46.4h0.5v-3h-0.5v-0.7h3.3V44h-0.9v-0.6h-1.1
			v1.1h1.3v0.7h-1.3v1.2h1.1v-0.6h0.9v1.3h-3.3C37.9,47.1,37.9,46.4,37.9,46.4z"/>
		<path style="fill:#1D1D1B;" d="M42.1,45.8c0,0.3,0.2,0.6,0.6,0.7c0,0,0.1,0,0.1,0c0.4,0,0.7-0.2,0.7-0.6c0-0.5-0.4-0.5-0.7-0.7
			c-0.3-0.1-0.6-0.2-0.9-0.4c-0.3-0.3-0.5-0.6-0.5-1c0-0.7,0.6-1.3,1.3-1.3c0.3,0,0.6,0.1,0.8,0.3v-0.2h0.7v1.2h-0.9
			c0-0.3-0.3-0.6-0.6-0.6s-0.6,0.2-0.6,0.5c0,0.5,0.4,0.5,0.7,0.6s0.7,0.2,0.9,0.4c0.3,0.2,0.5,0.6,0.5,0.9c0,0.8-0.6,1.4-1.4,1.4
			c-0.3,0-0.7-0.1-0.9-0.4V47h-0.7v-1.3C41.3,45.7,42.1,45.8,42.1,45.8z M45.3,46.4h0.5v-3h-0.5v-0.7h3.3V44h-0.9v-0.6h-1.1v1.1h1.3
			v0.7h-1.3v1.2h1.1v-0.6h0.9v1.3h-3.3V46.4z"/>
		<path style="fill:#1D1D1B;" d="M51,46.4h0.5v0.7h-1.8v-0.7h0.5v-3h-0.7v0.7h-0.7v-1.4h3.5v1.4h-0.7v-0.7h-0.7L51,46.4L51,46.4z
			 M57.6,42.9c0.1,0,0.3,0,0.3-0.1s-0.1-0.1-0.2-0.1h-0.2v0.3C57.5,42.9,57.6,42.9,57.6,42.9z M57.9,43.3L57.9,43.3L57.7,43h-0.1
			v0.3h-0.1v-0.7h0.3h0.1c0.1,0,0.1,0.1,0.1,0.1c0,0.1-0.1,0.2-0.2,0.2L57.9,43.3z M58.1,43c0-0.3-0.3-0.5-0.5-0.5s-0.5,0.3-0.5,0.5
			c0,0.3,0.3,0.5,0.5,0.5S58.1,43.3,58.1,43 M57,43c0-0.3,0.3-0.6,0.6-0.6c0.3,0,0.6,0.3,0.6,0.6c0,0.3-0.3,0.6-0.6,0.6
			C57.3,43.6,57,43.3,57,43 M30.2,46.3h2.7v-2.7h-2.7V46.3z M29.2,44.9c0-1.3,1.1-2.3,2.3-2.3c1.3,0,2.3,1,2.3,2.3
			c0,1.3-1,2.3-2.3,2.3C30.2,47.2,29.2,46.2,29.2,44.9 M44.7,20.1c0.1,0,0.3,0,0.3-0.1c0-0.1-0.1-0.1-0.2-0.1h-0.2v0.3
			C44.5,20.1,44.7,20.1,44.7,20.1z M45,20.5h-0.1l-0.2-0.3h-0.1v0.3h-0.1v-0.7h0.3H45c0.1,0,0.1,0.1,0.1,0.1c0,0.1-0.1,0.2-0.2,0.2
			C44.8,20.2,45,20.5,45,20.5z M45.3,20.1c0-0.3-0.3-0.5-0.5-0.5c-0.3,0-0.5,0.3-0.5,0.5c0,0.3,0.3,0.6,0.5,0.6S45.3,20.5,45.3,20.1
			 M44.1,20.1c0-0.3,0.3-0.7,0.7-0.7c0.3,0,0.6,0.2,0.7,0.6c0,0,0,0.1,0,0.1c0,0.3-0.3,0.7-0.7,0.7C44.4,20.8,44.1,20.6,44.1,20.1
			C44.1,20.2,44.1,20.2,44.1,20.1"/>
	</g>
</g>
</svg>
