<?xml version="1.0" encoding="utf-8"?>
<svg version="1.1" id="Layer_1" xmlns="http://www.w3.org/2000/svg" xmlns:xlink="http://www.w3.org/1999/xlink" x="0px" y="0px"
	width="100px" height="100px" viewBox="0 0 100 100" style="enable-background:new 0 0 100 100;" xml:space="preserve">
<g>
	<g>
		<path style="fill:#E8E8E8;" d="M50,0c27.61,0,50,22.39,50,50s-22.39,50-50,50S0,77.61,0,50S22.39,0,50,0"/>
		<path style="fill:#FFFFFF;" d="M50,1c27.06,0,49,21.94,49,49S77.06,99,50,99S1,77.06,1,50S22.94,1,50,1"/>
	</g>
	<g>
		<path d="M71.54,61.01h-0.05c-0.1,0-0.18,0.06-0.2,0.16l-0.07,0.29c-0.18,0.72-0.42,1.19-0.74,1.44c-0.32,0.25-0.98,0.37-2,0.37
			h-2.82c-0.99,0-1.61-0.16-1.87-0.5c-0.27-0.33-0.39-1.07-0.39-2.27v-7.29c0-1.2,0.13-1.94,0.39-2.27
			c0.25-0.31,0.78-0.47,1.64-0.49c0.11,0,0.2-0.09,0.2-0.21v-0.01c0-0.11-0.09-0.21-0.21-0.21h-5.87c-0.11,0-0.21,0.09-0.21,0.21
			v0.01c0,0.11,0.09,0.2,0.2,0.21c0.86,0.02,1.39,0.19,1.64,0.49c0.27,0.33,0.4,1.07,0.4,2.27v7.64c0,1.18-0.14,1.94-0.41,2.28
			c-0.25,0.31-0.78,0.48-1.63,0.5c-0.11,0-0.2,0.1-0.2,0.21v0.01c0,0.11,0.09,0.21,0.21,0.21h11.83c0.11,0,0.2-0.09,0.21-0.19
			l0.16-2.63c0-0.01,0-0.02,0-0.03C71.75,61.1,71.66,61.01,71.54,61.01L71.54,61.01z M57.94,50.02h-5.86
			c-0.11,0-0.21,0.09-0.21,0.21v0.01c0,0.11,0.09,0.2,0.2,0.21c0.86,0.02,1.39,0.19,1.64,0.49c0.27,0.33,0.4,1.07,0.4,2.27v7.64
			c0,1.18-0.14,1.95-0.41,2.28c-0.25,0.31-0.78,0.48-1.63,0.5c-0.11,0-0.2,0.1-0.2,0.21v0.01c0,0.11,0.09,0.21,0.21,0.21h5.86
			c0.11,0,0.21-0.09,0.21-0.21v-0.01c0-0.11-0.09-0.2-0.2-0.21c-0.86-0.02-1.39-0.19-1.64-0.49c-0.27-0.33-0.4-1.08-0.4-2.29v-7.64
			c0-1.2,0.13-1.94,0.4-2.27c0.25-0.31,0.78-0.47,1.64-0.49c0.11,0,0.2-0.09,0.2-0.21v-0.01C58.15,50.12,58.05,50.02,57.94,50.02
			L57.94,50.02z M84.73,51.99c-1.3-1.3-3.27-1.96-5.85-1.96h-6.13c-0.11,0-0.21,0.09-0.21,0.21v0.01c0,0.11,0.09,0.2,0.2,0.21
			c0.86,0.02,1.39,0.19,1.64,0.49c0.27,0.33,0.4,1.07,0.4,2.27v7.64c0,1.2-0.13,1.94-0.41,2.28c-0.25,0.31-0.78,0.48-1.63,0.5
			c-0.11,0-0.2,0.09-0.2,0.21v0.01c0,0.11,0.09,0.21,0.21,0.21h6.13c2.6,0,4.57-0.66,5.87-1.95c1.3-1.3,1.95-3,1.95-5.07
			C86.69,54.99,86.03,53.29,84.73,51.99L84.73,51.99z M76.97,62.78c-0.36-0.41-0.38-1.07-0.38-2.28v-9.68h2.32
			c2.07,0,3.54,0.61,4.37,1.83c0.82,1.21,1.24,2.69,1.24,4.39c0,1.69-0.42,3.17-1.24,4.38c-0.83,1.22-2.3,1.84-4.37,1.84h-0.09
			C77.83,63.26,77.28,63.13,76.97,62.78z M50.74,50.02l-5.86,0.01c-0.05,0-0.11,0.02-0.15,0.06c-0.04,0.04-0.06,0.09-0.06,0.15v0.01
			c0,0.11,0.09,0.2,0.2,0.21c0.11,0,0.25,0.01,0.37,0.01c0.05,0,0.09,0,0.14,0v0c0.84,0.01,1.33,0.18,1.5,0.51
			c0.12,0.25,0.22,0.6,0.01,1.29l-2.47,7.78l-3.18-10.02h-0.36L37.7,60.07l-2.49-7.8c-0.19-0.64-0.2-1.02-0.02-1.27
			c0.15-0.2,0.67-0.42,1.2-0.51c0.12-0.01,0.24-0.02,0.38-0.03c0.11,0,0.2-0.09,0.2-0.21v-0.01c0-0.06-0.02-0.11-0.06-0.15
			c-0.04-0.04-0.09-0.06-0.15-0.06l-5.86,0.01c-0.11,0-0.21,0.09-0.21,0.21v0.01c0,0.11,0.09,0.2,0.2,0.21
			c0.14,0.01,0.31,0.02,0.5,0.03c0.99,0.17,1.47,0.68,1.89,2.03l3.71,11.65h0.34l3.2-10.06l3.18,10.06h0.34l3.71-11.65
			c0.45-1.43,0.72-2.06,2.58-2.08v0h0.1c0.11,0,0.22,0,0.31,0c0.11,0,0.2-0.09,0.2-0.2l0-0.02c0-0.05-0.02-0.11-0.06-0.15
			C50.85,50.05,50.8,50.02,50.74,50.02L50.74,50.02z M39.57,45.62c1.52,1.45,3.37,2.18,5.5,2.18c2.14,0,4-0.73,5.52-2.18
			c1.52-1.44,2.29-3.21,2.29-5.24c0-2.03-0.77-3.8-2.29-5.24c-1.52-1.45-3.38-2.18-5.52-2.18c-2.13,0-3.98,0.73-5.5,2.18
			c-1.52,1.44-2.29,3.21-2.29,5.24C37.28,42.41,38.05,44.17,39.57,45.62L39.57,45.62z M49.31,44.92c-0.94,1.33-2.37,2-4.24,2
			c-1.87,0-3.29-0.67-4.23-2c-0.93-1.32-1.41-2.85-1.41-4.55c0-1.69,0.48-3.23,1.42-4.56c0.94-1.34,2.36-2.01,4.22-2.01
			c1.88,0,3.31,0.68,4.25,2.02c0.93,1.33,1.41,2.87,1.41,4.56C50.73,42.07,50.26,43.6,49.31,44.92L49.31,44.92z M69.45,40.38
			c0-2.03-0.77-3.8-2.29-5.24c-1.52-1.44-3.38-2.18-5.52-2.18c-2.13,0-3.98,0.73-5.5,2.18c-1.52,1.44-2.29,3.21-2.29,5.24
			s0.77,3.8,2.29,5.24c1.52,1.45,3.38,2.18,5.5,2.18c2.14,0,4-0.73,5.52-2.18C68.68,44.17,69.45,42.41,69.45,40.38z M61.64,33.8
			c1.88,0,3.31,0.68,4.25,2.02c0.93,1.33,1.41,2.87,1.41,4.56c0,1.69-0.48,3.22-1.42,4.55c-0.94,1.33-2.37,2-4.24,2
			c-1.87,0-3.29-0.67-4.23-2C56.48,43.6,56,42.07,56,40.38c0-1.69,0.48-3.23,1.42-4.56C58.36,34.48,59.78,33.8,61.64,33.8
			L61.64,33.8z M24.46,41.22c-0.54-0.67-1.27-1.14-2.17-1.42l-0.08-0.02l0.07-0.04c0.57-0.34,1.02-0.76,1.34-1.26
			c0.32-0.49,0.48-1.04,0.48-1.63c0-1.02-0.39-1.83-1.19-2.5c-0.79-0.66-1.91-0.99-3.32-0.99h-6.08c-0.11,0-0.21,0.09-0.21,0.21
			v0.01c0,0.11,0.09,0.2,0.2,0.21c0.85,0.02,1.39,0.19,1.64,0.49c0.27,0.34,0.4,1.06,0.4,2.27v7.64c0,1.18-0.14,1.95-0.41,2.28
			c-0.25,0.31-0.79,0.48-1.63,0.5c-0.11,0-0.2,0.09-0.2,0.21v0.01c0,0.11,0.09,0.21,0.21,0.21h6.74c1.58,0,2.83-0.37,3.7-1.11
			c0.89-0.74,1.32-1.66,1.32-2.81C25.28,42.65,25,41.89,24.46,41.22z M23.28,43.48c0,0.9-0.26,1.65-0.79,2.23
			c-0.52,0.59-1.28,0.88-2.26,0.88h-0.61c-0.99,0-1.47-0.13-1.87-0.49c-0.4-0.35-0.4-1.07-0.4-2.27v-3.52h2.88
			c0.99,0,1.76,0.3,2.27,0.89C23.02,41.8,23.28,42.57,23.28,43.48z M17.35,39.52v-5.36h2.13c0.87,0,1.53,0.25,1.97,0.75
			c0.44,0.5,0.66,1.15,0.66,1.94c0,0.79-0.22,1.44-0.67,1.93c-0.44,0.49-1.1,0.74-1.95,0.74L17.35,39.52L17.35,39.52z"/>
		<path d="M37.13,47.2l0.16-2.63c0-0.01,0-0.02,0-0.02c0-0.11-0.09-0.21-0.21-0.21h-0.05c-0.09,0-0.18,0.06-0.2,0.16l-0.07,0.29
			c-0.18,0.72-0.42,1.19-0.74,1.44c-0.32,0.25-0.98,0.37-2,0.37h-2.82c-0.99,0-1.61-0.16-1.87-0.49c-0.27-0.34-0.4-1.06-0.4-2.27
			v-7.29c0-1.21,0.13-1.93,0.4-2.27c0.25-0.31,0.78-0.47,1.64-0.49c0.11,0,0.2-0.1,0.2-0.21v-0.01c0-0.11-0.09-0.21-0.21-0.21H25.1
			c-0.11,0-0.21,0.09-0.21,0.21v0.01c0,0.11,0.09,0.2,0.2,0.21c0.86,0.02,1.39,0.19,1.64,0.49c0.27,0.33,0.4,1.07,0.4,2.27v7.64
			c0,1.18-0.14,1.95-0.41,2.28c-0.25,0.31-0.79,0.48-1.63,0.5c-0.11,0-0.2,0.09-0.2,0.21v0.01c0,0.11,0.09,0.21,0.21,0.21h11.83
			C37.04,47.4,37.13,47.31,37.13,47.2L37.13,47.2z M84.83,34.28c0.25-0.31,0.79-0.47,1.66-0.49c0.11,0,0.2-0.1,0.2-0.21v-0.01
			c0-0.11-0.09-0.21-0.21-0.21h-3.29c-0.08,0-0.16,0.05-0.19,0.12l-4.94,11.4l-4.95-11.39c-0.03-0.08-0.11-0.12-0.19-0.12h-3.59
			c-0.11,0-0.21,0.09-0.21,0.21v0.01c0,0.11,0.09,0.2,0.2,0.21c0.85,0.02,1.39,0.19,1.64,0.49c0.27,0.33,0.4,1.07,0.4,2.27v7.64
			c0,1.2-0.13,1.94-0.41,2.28c-0.25,0.31-0.79,0.48-1.63,0.5c-0.11,0-0.2,0.09-0.2,0.21v0.01c0,0.11,0.09,0.21,0.21,0.21h4.88
			c0.11,0,0.21-0.09,0.21-0.21v-0.01c0-0.11-0.09-0.2-0.2-0.21c-0.87-0.02-1.41-0.19-1.66-0.49c-0.27-0.33-0.4-1.08-0.4-2.29v-8.54
			l5.22,12.01c0,0,0,0,0,0h0.38l4.89-11.28v7.82c0,1.18-0.14,1.94-0.41,2.27c-0.25,0.31-0.79,0.48-1.63,0.5
			c-0.11,0-0.2,0.09-0.2,0.21v0.01c0,0.11,0.09,0.21,0.21,0.21h5.87c0.11,0,0.21-0.09,0.21-0.21v-0.01c0-0.11-0.09-0.2-0.2-0.21
			c-0.87-0.02-1.41-0.19-1.66-0.49c-0.27-0.33-0.4-1.08-0.4-2.29v-7.64C84.44,35.35,84.57,34.61,84.83,34.28L84.83,34.28z
			 M28.82,66.21c0.01,0,0.03,0,0.04-0.01c0.07-0.02,0.12-0.08,0.12-0.16c0-0.07-0.04-0.13-0.1-0.15c-0.09-0.03-0.21-0.05-0.32-0.1
			c-0.24-0.11-0.44-0.27-0.62-0.45l-2.52-2.78c-0.07-0.08-0.09-0.19-0.06-0.28c0.01-0.03,0.02-0.06,0.04-0.09v0
			c0.05-0.13,0.24-0.55,0.36-0.66c0.2-0.18,0.45-0.24,0.7-0.27c0.03,0,0.04-0.02,0.04-0.05c-0.01-0.37-0.09-0.85-0.37-1.1
			c-0.24-0.22-0.69-0.31-0.85-0.24c0,0-0.04,0.02-0.04,0.05c0.04,0.29,0.05,0.75,0,1.03c-0.04,0.24-0.1,0.45-0.22,0.65
			c-0.11,0.14-0.32,0.16-0.45,0.03l-4.57-5.07c-0.03-0.03-0.03-0.07-0.02-0.09c0.01-0.03,0.02-0.06,0.05-0.07
			c1.43-0.79,2.42-1.43,2.78-2.42c0.54-1.48-0.14-3.12-1.17-3.82c-0.69-0.47-1.7-0.63-2.63-0.42c-0.95,0.21-1.74,0.79-2.22,1.62
			c-0.94,1.61-0.62,3.25,1.06,5.49c0.02,0.02,0.03,0.06,0.02,0.09c-0.01,0.03-0.02,0.06-0.05,0.07c-0.11,0.06-0.23,0.13-0.35,0.19
			c-1.56,0.85-4.47,2.42-4.15,5.45c0.15,1.41,0.81,2.61,1.86,3.39c1.98,1.47,4.4,1.06,5.83,0.46c1.33-0.56,2.29-1.44,2.88-2.08
			c0.12-0.13,0.32-0.12,0.43,0.01l1.54,1.79L28.82,66.21z M18.24,51.07c0.32-0.66,0.9-1,1.67-1c0.52,0,0.94,0.22,1.25,0.66
			c0.67,0.95,0.65,2.61,0.38,3.39c-0.23,0.66-0.69,1.11-1.9,1.85c-0.05,0.03-0.1,0.02-0.14-0.02c-0.08-0.1-0.15-0.19-0.22-0.27
			C18.1,54.16,17.66,52.27,18.24,51.07z M23.52,63.86c-0.62,0.7-1.53,1.54-2.62,2.02c-1.09,0.48-2.42,0.43-3.48-0.12
			c-0.76-0.4-1.75-1.24-2.09-3.01c-0.55-2.81,0.59-4.04,2.87-5.34c0.02-0.01,0.04-0.01,0.05-0.01c0.03,0,0.06,0.01,0.08,0.04
			c0.07,0.09,4.09,4.76,5.19,6.04C23.62,63.59,23.61,63.75,23.52,63.86z"/>
		<path d="M24.77,57.85c0-0.36,0.03-0.64,0.08-0.91c0.05-0.26,0.13-0.54,0.24-0.84c0.1-0.26,0.2-0.51,0.32-0.78
			c0.09-0.2,0.21-0.47,0.38-0.73c0.26-0.41,0.65-0.93,1.7-1.6c0,0,0.07-0.05,0.06-0.13c-0.08-0.43-0.42-0.57-0.83-0.68
			c-0.24-0.07-0.42-0.04-0.86-0.06c-0.42-0.02-0.64-0.39-0.84-0.41c-0.28-0.03-0.55,0.01-0.82,0.07c0,0,0,0-0.01,0
			c-0.02,0-0.04,0.02-0.04,0.05c0.04,0.59-0.14,1.15-0.35,1.7c-0.2,0.53-0.4,1.06-0.51,1.62c-0.1,0.53-0.14,1.08-0.05,1.61
			c0.09,0.52,0.3,1.01,0.6,1.44c0.33,0.48,0.78,0.84,1.16,1.28C24.91,59.07,24.76,58.31,24.77,57.85z M33.79,61.69
			c-0.06-0.23-0.18-0.43-0.26-0.66c-0.1-0.26-0.21-0.57-0.57-0.77c-0.26-0.14-0.61-0.02-0.9,0.04c0,0,0,0-0.01,0
			c-0.04,0.01-0.09,0.02-0.13,0.02c-0.21,0.03-0.43,0.04-0.68,0.03c-0.05,0-0.11-0.01-0.17-0.01c-0.2-0.02-0.39-0.04-0.58-0.07
			c-0.23-0.03-0.45-0.06-0.67-0.07c-0.02,0-0.04,0-0.05,0c-0.04,0-0.09,0-0.14,0c-0.07,0.01-0.14,0.03-0.2,0.05
			c-0.09,0.02-0.17,0.06-0.26,0.09c-0.34,0.13-0.65,0.3-0.99,0.49l-0.14,0.08c-0.16,0.09-0.29,0.16-0.47,0.25
			c-0.02,0.01-0.08,0.04-0.16,0.08c-0.05,0.02-0.31,0.15-0.42,0.17c0,0.02,0.02,0.04,0.04,0.05c0.35,0.28,0.5,0.63,0.84,0.92
			c0.2,0.17,0.4,0.29,0.65,0.37c0.26,0.08,0.54,0.15,0.81,0.2c0.25,0.04,0.51,0.03,0.76-0.03c0.23-0.06,0.44-0.16,0.65-0.26
			c0.46-0.23,0.89-0.5,1.4-0.61c0.3-0.07,0.62-0.12,0.93-0.06c0.32,0.07,0.55,0.12,0.73,0.37c0.03,0.04,0.09,0.01,0.09-0.03
			C33.89,62.04,33.85,61.93,33.79,61.69z"/>
		<path d="M32.77,58.82c-0.02-0.43-0.07-0.86-0.25-1.25c-0.18-0.4-0.35-0.64-0.56-1.03c-0.1-0.19-0.2-0.39-0.29-0.59
			c-0.09-0.19-0.12-0.33-0.22-0.51c-0.18-0.31-0.34-0.4-0.66-0.54c-0.19-0.08-0.9-0.3-1.08-0.41c-0.2-0.12-0.49-0.47-0.65-0.64
			c-0.31-0.32-1-0.48-1.08-0.45c-0.08,0.03-0.29,0.17-0.29,0.17c-0.94,0.6-1.14,1.01-1.37,1.36c-0.14,0.22-0.25,0.45-0.33,0.63
			c-0.11,0.26-0.22,0.5-0.31,0.75c-0.1,0.27-0.17,0.51-0.21,0.74c-0.04,0.23-0.06,0.47-0.07,0.8c0,0.35,0.11,0.99,0.2,1.42
			c0.28,0.04,0.57,0.14,0.83,0.35c0.33,0.26,0.54,0.65,0.63,1.15c0.11-0.04,0.2-0.08,0.24-0.11l0.01-0.01
			c0.17-0.08,0.28-0.15,0.45-0.23l0.14-0.08c0.3-0.17,0.57-0.37,0.9-0.5c0.75-0.29,1.53-0.19,2.31-0.13c0.48,0.04,0.89,0,1.16-0.11
			l0.03-0.01c0.09-0.03,0.2-0.06,0.31-0.1c0.04-0.04,0.07-0.08,0.09-0.13C32.79,59.2,32.78,59,32.77,58.82L32.77,58.82z"/>
	</g>
</g>
</svg>
