<?xml version="1.0"?>
<svg xmlns="http://www.w3.org/2000/svg" xmlns:xlink="http://www.w3.org/1999/xlink" xmlns:svgjs="http://svgjs.com/svgjs" version="1.1" width="512" height="512" x="0" y="0" viewBox="0 0 512 512" style="enable-background:new 0 0 512 512" xml:space="preserve" class=""><g><g xmlns="http://www.w3.org/2000/svg"><g><g><g><g><g><g><g><g><circle cx="256" cy="256" fill="#f1f1f1" r="256" data-original="#b180ff" style="" class=""/></g></g></g></g></g></g></g></g><path d="m380.428 160.132-2.909 5.064-68.37-68.37h-78.505l1.38-1.638-39.212-39.212-8.712 36.884-30.501 2.327 45.021 45.021 2.981-8.905 14.131-16.775-21.95 44.793-62.21 219.742 132.802 132.802c126.233-4.057 229.381-99.501 245.45-222.337z" fill="#f1f1f1" data-original="#8d48f9" style="" class=""/><g><path d="m256 175.286-178.735 46.913 54.307 156.864 124.428-19.054.009.001v-184.722z" fill="#e9edf5" data-original="#e9edf5" style="" class=""/><path d="m434.735 222.199-178.726-46.911v184.722l124.419 19.053z" fill="#cdd2e1" data-original="#cdd2e1" style="" class=""/></g><g><path d="m256.009 379.064h-124.437v-218.932h124.437l3.909 102.276z" fill="#ffffff" data-original="#ffffff" style="" class=""/></g><g><path d="m256.009 160.132h124.419v218.932h-124.419z" fill="#e9edf5" data-original="#e9edf5" style="" class=""/></g><g><path d="m256 73.299c-39.646 0-71.9 32.254-71.9 71.9v67.669h30v-67.669c0-23.104 18.796-41.9 41.9-41.9 1.322 0 2.627.069 3.918.189v-30.078c-1.298-.07-2.603-.111-3.918-.111z" fill="#ffd400" data-original="#ffd400" style=""/></g><g><path d="m256.009 73.3v30c23.099.004 41.891 18.799 41.891 41.899v67.669h30v-67.669c0-39.643-32.25-71.895-71.891-71.899z" fill="#fdba12" data-original="#fdba12" style="" class=""/></g><g><path d="m213.479 244.952h46.439v34.913h-46.439z" fill="#ffd400" data-original="#ffd400" style=""/></g><g><path d="m256.009 244.952h42.512v34.913h-42.512z" fill="#fdba12" data-original="#fdba12" style="" class=""/></g><g><path d="m192.812 134.4c-12.841-34.668-4.544-26.371-39.212-39.212 34.668-12.841 26.371-4.544 39.212-39.212 12.841 34.668 4.544 26.371 39.212 39.212-34.668 12.841-26.371 4.544-39.212 39.212z" fill="#ffffff" data-original="#ffffff" style="" class=""/></g></g></g></svg>
