<?xml version="1.0"?>
<svg xmlns="http://www.w3.org/2000/svg" xmlns:xlink="http://www.w3.org/1999/xlink" xmlns:svgjs="http://svgjs.com/svgjs" version="1.1" width="512" height="512" x="0" y="0" viewBox="0 0 512 512" style="enable-background:new 0 0 512 512" xml:space="preserve" class=""><g><path xmlns="http://www.w3.org/2000/svg" d="m512 256c0 141.378906-114.621094 256-256 256-2.378906 0-4.738281-.03125-7.101562-.101562-3.699219-.097657-7.378907-.277344-11.039063-.539063-.53125-.03125-1.070313-.070313-1.597656-.109375-.089844-.011719-.171875-.019531-.261719-.019531h-.03125c-5.730469-.449219-11.410156-1.082031-17.027344-1.902344-1.851562-.269531-3.691406-.558594-5.519531-.867187-1.121094-.191407-2.242187-.382813-3.351563-.589844-1.730468-.3125-3.449218-.640625-5.171874-.992188-116.898438-23.667968-204.898438-127-204.898438-250.878906 0-141.378906 114.621094-256 256-256 116.921875 0 215.53125 78.378906 246.160156 185.46875 2.480469 8.660156 4.511719 17.5 6.070313 26.511719.289062 1.660156.550781 3.320312.808593 5 0 .019531.011719.050781.011719.070312.640625 4.199219 1.1875 8.4375 1.621094 12.710938.027344.339843.066406.667969.097656 1.007812.230469 2.351563.429688 4.71875.589844 7.089844.230469 3.332031.410156 6.691406.511719 10.0625.089844 2.6875.128906 5.378906.128906 8.078125zm0 0" fill="#f1f1f1" data-original="#ff2c49" style="" class=""/><path xmlns="http://www.w3.org/2000/svg" d="m512 256c0 141.378906-114.621094 256-256 256-2.378906 0-4.738281-.03125-7.101562-.101562-3.699219-.097657-7.378907-.277344-11.039063-.539063-.53125-.03125-1.070313-.070313-1.597656-.109375-.089844-.011719-.171875-.019531-.261719-.019531l-116-115.742188 66-136.066406 55-69.351563v-103.148437h110l160.871094 161c.089844 2.6875.128906 5.378906.128906 8.078125zm0 0" fill="#f1f1f1" data-original="#bf0032" style="" class=""/><path xmlns="http://www.w3.org/2000/svg" d="m241 137.378906h30v60h-30zm0 0" fill="#0052c4" data-original="#0052c4" style=""/><path xmlns="http://www.w3.org/2000/svg" d="m256.003906 137.382812h15v60h-15zm0 0" fill="#00386d" data-original="#00386d" style="" class=""/><path xmlns="http://www.w3.org/2000/svg" d="m326.003906 301.257812h-140v-80l70-39.695312 70 39.695312zm0 0" fill="#ebebeb" data-original="#ebebeb" style="" class=""/><path xmlns="http://www.w3.org/2000/svg" d="m325.996094 221.238281v80h-70l.007812-119.675781 14.992188 8.496094zm0 0" fill="#c9c9c9" data-original="#c9c9c9" style="" class=""/><path xmlns="http://www.w3.org/2000/svg" d="m120 259.414062v136.082032h111v-10h50v10h111.125v-136.082032zm0 0" fill="#ffffff" data-original="#ffffff" style="" class=""/><path xmlns="http://www.w3.org/2000/svg" d="m256.003906 259.414062v126.082032h24.996094v9.996094l111.128906.003906v-136.082032zm0 0" fill="#ebebeb" data-original="#ebebeb" style="" class=""/><path xmlns="http://www.w3.org/2000/svg" d="m241 86.914062h110v65h-110zm0 0" fill="#ffe100" data-original="#ffe100" style=""/><path xmlns="http://www.w3.org/2000/svg" d="m296 86.914062h55v65h-55zm0 0" fill="#d9bf00" data-original="#d9bf00" style=""/><path xmlns="http://www.w3.org/2000/svg" d="m231 335.496094h50v60h-50zm0 0" fill="#0052c4" data-original="#0052c4" style=""/><path xmlns="http://www.w3.org/2000/svg" d="m256.003906 335.496094h25v60h-25zm0 0" fill="#00386d" data-original="#00386d" style="" class=""/><path xmlns="http://www.w3.org/2000/svg" d="m241 214.175781h30v30h-30zm0 0" fill="#ffffff" data-original="#ffffff" style="" class=""/><path xmlns="http://www.w3.org/2000/svg" d="m256 214.175781h15v30h-15zm0 0" fill="#ebebeb" data-original="#ebebeb" style="" class=""/><path xmlns="http://www.w3.org/2000/svg" d="m332.125 289.351562h30v30h-30zm0 0" fill="#c9c9c9" data-original="#c9c9c9" style="" class=""/><path xmlns="http://www.w3.org/2000/svg" d="m271.5625 289.351562h30v30h-30zm0 0" fill="#c9c9c9" data-original="#c9c9c9" style="" class=""/><path xmlns="http://www.w3.org/2000/svg" d="m210.4375 289.351562h30v30h-30zm0 0" fill="#ebebeb" data-original="#ebebeb" style="" class=""/><path xmlns="http://www.w3.org/2000/svg" d="m150 289.351562h30v30h-30zm0 0" fill="#ebebeb" data-original="#ebebeb" style="" class=""/><path xmlns="http://www.w3.org/2000/svg" d="m332.125 334.824219h30v30h-30zm0 0" fill="#c9c9c9" data-original="#c9c9c9" style="" class=""/><path xmlns="http://www.w3.org/2000/svg" d="m150 334.824219h30v30h-30zm0 0" fill="#ebebeb" data-original="#ebebeb" style="" class=""/></g></svg>
