<?xml version="1.0"?>
<svg xmlns="http://www.w3.org/2000/svg" xmlns:xlink="http://www.w3.org/1999/xlink" xmlns:svgjs="http://svgjs.com/svgjs" version="1.1" width="512" height="512" x="0" y="0" viewBox="0 0 512 512" style="enable-background:new 0 0 512 512" xml:space="preserve" class=""><g><path xmlns="http://www.w3.org/2000/svg" d="m512 256c0 141.386719-114.613281 256-256 256s-256-114.613281-256-256 114.613281-256 256-256 256 114.613281 256 256zm0 0" fill="#f1f1f1" data-original="#00ec88" style="" class=""/><path xmlns="http://www.w3.org/2000/svg" d="m499.316406 335.738281-269.050781-269.046875-83.789063 83.792969 43.519532 43.519531-95.105469 127.574219 30.277344 29.921875-4.332031 60.742188 96.90625 96.910156c12.484374 1.871094 25.253906 2.847656 38.257812 2.847656 113.539062 0 209.800781-73.921875 243.316406-176.261719zm0 0" fill="#f1f1f1" data-original="#00ca76" style="" class=""/><path xmlns="http://www.w3.org/2000/svg" d="m165.835938 293.574219h209.332031v56h-209.332031zm0 0" fill="#ffe767" data-original="#ffe767" style="" class=""/><path xmlns="http://www.w3.org/2000/svg" d="m270.5 293.574219h104.671875v56h-104.671875zm0 0" fill="#fad818" data-original="#fad818" style="" class=""/><path xmlns="http://www.w3.org/2000/svg" d="m120.835938 344.242188h299.332031v68h-299.332031zm0 0" fill="#fad818" data-original="#fad818" style="" class=""/><path xmlns="http://www.w3.org/2000/svg" d="m270.5 344.242188h149.671875v68h-149.671875zm0 0" fill="#ffb400" data-original="#ffb400" style="" class=""/><path xmlns="http://www.w3.org/2000/svg" d="m73.671875 300.359375 121.0625-121.0625 21.210937 21.214844-121.058593 121.058593zm0 0" fill="#fad818" data-original="#fad818" style="" class=""/><path xmlns="http://www.w3.org/2000/svg" d="m84.277344 310.96875 121.0625-121.0625 10.605468 10.605469-121.0625 121.0625zm0 0" fill="#f4b913" data-original="#f4b913" style=""/><path xmlns="http://www.w3.org/2000/svg" d="m87.253906 286.777344 21.214844-21.210938 21.210938 21.210938-21.210938 21.214844zm0 0" fill="#797880" data-original="#797880" style=""/><path xmlns="http://www.w3.org/2000/svg" d="m97.859375 297.382812 21.214844-21.210937 10.605469 10.605469-21.210938 21.214844zm0 0" fill="#3a383f" data-original="#3a383f" style=""/><path xmlns="http://www.w3.org/2000/svg" d="m118.839844 255.195312 21.210937-21.214843 21.214844 21.214843-21.214844 21.210938zm0 0" fill="#797880" data-original="#797880" style=""/><path xmlns="http://www.w3.org/2000/svg" d="m129.449219 265.796875 21.210937-21.210937 10.605469 10.605468-21.210937 21.214844zm0 0" fill="#3a383f" data-original="#3a383f" style=""/><path xmlns="http://www.w3.org/2000/svg" d="m215.597656 69.339844 110.304688 110.308594-66.464844 66.46875-110.308594-110.308594zm0 0" fill="#797880" data-original="#797880" style=""/><path xmlns="http://www.w3.org/2000/svg" d="m204.28125 190.964844 66.464844-66.464844 55.15625 55.152344-66.46875 66.46875zm0 0" fill="#3a383f" data-original="#3a383f" style=""/><path xmlns="http://www.w3.org/2000/svg" d="m125.261719 129.269531 83.792969-83.789062 21.210937 21.210937-83.789063 83.792969zm0 0" fill="#fad818" data-original="#fad818" style="" class=""/><path xmlns="http://www.w3.org/2000/svg" d="m244.761719 248.773438 83.792969-83.792969 21.210937 21.210937-83.789063 83.792969zm0 0" fill="#f4b913" data-original="#f4b913" style=""/></g></svg>
