<svg xmlns="http://www.w3.org/2000/svg" width="1000" height="249" xmlns:v="https://vecta.io/nano"><path d="M0 .324v248.003L1000 249V.324H0z" fill="#1482c2"/><path d="M399.832 59.812l-56.002 82.93c-5.825 8.776-16.043 14.081-26.737 14.081-17.415 0-31.83-14.309-31.83-31.576 0-17.521 14.415-31.804 31.952-31.804 1.738-.223 4.07-.466 5.697-.466 12.089 0 24.406 5.072 32.774 13.604l16.726-25.349C359.4 67.878 340.109 59.33 320.813 59.33c-36.022 0-69.018 29.726-69.018 65.674 0 35.736 29.514 64.991 65.547 64.991 17.426 0 34.851-7.372 46.94-19.593h38.577l.229 19.593h33.479V59.812h-36.733zm-15.321 82.013l18.348-25.555.229 25.555h-18.575zm116.197 48.168H467.24V90.21h-26.027V60.028l85.511-.218v30.4h-26.016v99.783zM638.29 59.812l-33.468.008-.233 48.604h-39.515l-.25-48.614h-33.441v130.183h33.69v-51.392h39.748v51.392h33.468V59.81zm268.191 0v60.581l-46.012-60.581-30.457.212-.229 47.48c-7.669-27.654-33.934-47.692-63.215-47.692-36.017 0-65.537 29.244-65.537 65.192 0 11.543 3.482 23.266 9.052 33.42h-33.155V59.812h-34.104v130.183h77.964V171.78c12.317 11.299 29.048 18.215 45.779 18.215 29.281 0 55.085-19.593 63.215-47.252l.229 47.252h33.711v-63.353l45.763 63.353h30.436l.042-130.183h-33.479zm-139.913 98.384c-18.358 0-33.463-14.744-33.463-33.192 0-18.194 15.104-33.166 33.463-33.166 18.602 0 33.706 14.972 33.706 33.166 0 18.448-15.104 33.192-33.706 33.192m-555.248.23v-18.22h35.917l-.064-31.783H211.32V91.84h39.589l-.068-32.026-76.226.212v44.709c-7.902-24.421-30.685-42.403-56.712-44.709l-57.868-.212v130.177h58.106c25.789-2.295 48.572-20.266 56.474-44.465v44.465h76.295l-.068-31.565h-39.52zm-73.661-13.599c-2.083 8.766-10.457 14.972-19.519 15.205H96.761V90.208h21.379c9.063 0 17.436 6.482 19.519 15.454 2.099 5.994 3.259 12.905 3.259 19.344a63.01 63.01 0 0 1-3.259 19.821" fill="#fff"/></svg>