<?xml version="1.0" encoding="utf-8"?>
<svg version="1.1" id="Layer_1" xmlns="http://www.w3.org/2000/svg" xmlns:xlink="http://www.w3.org/1999/xlink" x="0px" y="0px"
	width="100px" height="100px" viewBox="0 0 100 100" style="enable-background:new 0 0 100 100;" xml:space="preserve">
<g>
	<g>
		<circle style="fill:#E8E8E8;" cx="50" cy="50" r="50"/>
		<circle style="fill:#FFFFFF;" cx="50" cy="50" r="49"/>
	</g>
	<g>
		<polygon style="fill:#A48D68;" points="36.4,32.4 31.8,36.9 36.4,41.5 40.9,36.9 		"/>
		<polygon style="fill:#A48D68;" points="45.5,32.4 40.9,36.9 45.5,41.5 50,36.9 		"/>
		<polygon style="fill:#A48D68;" points="54.6,32.4 50,36.9 54.6,41.5 59.2,36.9 		"/>
		<polygon style="fill:#A48D68;" points="63.6,32.4 59.1,36.9 63.6,41.5 68.2,36.9 		"/>
		<path style="fill:#231F20;" d="M11.1,47.4H8.9v0.9H8.4v-2h0.5v0.4h5.3v-0.4h0.5v2h-0.5v-0.9h-2.2V54H13v0.5h-3V54h1.1V47.4z"/>
		<path style="fill:#231F20;" d="M20.5,51.3V49h-0.8v-0.4H22V49h-0.8v5.1H22v0.4h-2.3v-0.4h0.8v-2.4h-3.3v2.4h0.8v0.4h-2.3v-0.4h0.8
			V49h-0.8v-0.4h2.3V49h-0.8v2.3H20.5z"/>
		<path style="fill:#231F20;" d="M25.9,51.3v-0.7h0.4v1.9h-0.4v-0.8h-1.6v2.4h2.1v-0.8h0.4v1.2h-4v-0.4h0.8V49h-0.8v-0.4h3.9v1.2
			h-0.4V49h-2v2.3H25.9z"/>
		<path style="fill:#231F20;" d="M32.7,52.7c0,0.6,0,1.4-0.1,2c-0.4,1.3-1.5,1.7-2.1,1.7c-0.3,0-0.5,0-0.8-0.1V56
			c1.3,0,2.1-0.9,2.1-2.4v-6.4h-1.1v-0.5h3v0.5h-1L32.7,52.7z"/>
		<path style="fill:#231F20;" d="M37.9,48.5c2.1,0,3.1,1.7,3.1,3c0,1.3-1,3-3.1,3c-2.2,0-3.1-1.8-3.1-3
			C34.8,50.2,35.9,48.5,37.9,48.5z M37.9,54.2c1,0,2.3-0.6,2.3-2.7c0-1.6-0.9-2.6-2.3-2.6c-1.3,0-2.3,0.9-2.3,2.7
			C35.7,53.2,36.5,54.2,37.9,54.2z"/>
		<path style="fill:#231F20;" d="M46.4,48.5h0.3V50h-0.3c-0.3-0.8-0.8-1.1-1.6-1.1c-1.3,0-2.1,1-2.1,2.6c0,1.9,1.1,2.7,2.2,2.7
			c0.7,0,1.3-0.2,1.9-0.7v0.4c-0.7,0.5-1.2,0.7-1.9,0.7c-1.6,0-3-1.3-3-2.9c0,0,0,0,0-0.1c0-1.8,1.3-3.1,3-3.1
			c0.4,0,0.7,0.1,1.3,0.3L46.4,48.5z"/>
		<path style="fill:#231F20;" d="M48.6,49h-0.8v-0.4h2.3V49h-0.8v2.4l2.3-2.4h-0.7v-0.4h2.1V49h-0.8L50,51.2l2.4,2.9h0.7v0.4h-2.3
			v-0.4h0.8l-2.2-2.6v2.6h0.8v0.4h-2.3v-0.4h0.8V49z"/>
		<path style="fill:#231F20;" d="M56.8,51.3v-0.7h0.4v1.9h-0.4v-0.8h-1.6v2.4h2.1v-0.8h0.4v1.2h-4v-0.4h0.8V49h-0.8v-0.4h3.9v1.2
			h-0.4V49h-2v2.3H56.8z"/>
		<path style="fill:#231F20;" d="M60.8,51.3L59.1,49h-0.7v-0.4h2.2V49h-0.6l1.4,1.9l1.4-1.9H62v-0.4h1.7V49h-0.6l-1.7,2.3v2.8h0.8
			v0.4H60v-0.4h0.8V51.3z"/>
		<path style="fill:#231F20;" d="M73.4,46.5h0.4v2.1h-0.4c-0.4-1-1-1.5-2.1-1.5c-1.7,0-2.7,1.3-2.7,3.5c0,2.5,1.5,3.6,2.9,3.6
			c0.9,0,1.7-0.3,2.6-1v0.5c-0.9,0.7-1.6,1-2.6,1c-2.2,0-4-1.7-4-3.9c0,0,0-0.1,0-0.1c0-2.3,1.7-4.1,4-4.1c0.6,0,1,0.1,1.8,0.4
			L73.4,46.5z"/>
		<path style="fill:#231F20;" d="M78.8,54.1v-0.8h0.4v1.2h-4v-0.4h0.8V49h-0.8v-0.4h2.3V49h-0.8v5.1H78.8z"/>
		<path style="fill:#231F20;" d="M79.9,49v-0.4h2.3V49h-0.8v3.3c0,1.2,0.6,1.9,1.7,1.9c1.1,0,1.7-0.7,1.7-1.9V49h-0.8v-0.4h2.3V49
			h-0.8v3.4c0,1.5-1,2.2-2.4,2.2c-1.4,0-2.4-0.8-2.4-2.2V49H79.9z"/>
		<path style="fill:#231F20;" d="M87.1,48.6h2.2c1.3,0,1.9,0.7,1.9,1.5c0,0.6-0.3,1-0.9,1.3v0c1,0.1,1.5,0.7,1.5,1.5
			c0,0.9-0.5,1.6-1.9,1.6h-2.7v-0.4h0.8V49h-0.8V48.6z M89.1,51.3c0.6,0,1.2-0.4,1.2-1.2c0-0.7-0.4-1.2-1.1-1.2h-0.7v2.3H89.1z
			 M89.7,54.1c0.7,0,1.2-0.3,1.2-1.2c0-0.8-0.6-1.2-1.8-1.2h-0.6v2.4L89.7,54.1z"/>
		<path style="fill:#A48D68;" d="M33.2,61.3h0.3v1.6h-0.3c-0.3-0.8-0.8-1.2-1.6-1.2c-1.3,0-2.1,1-2.1,2.7c0,1.9,1.1,2.8,2.2,2.8
			c0.7,0,1.4-0.2,2-0.8v0.4c-0.7,0.6-1.2,0.8-2,0.8c-1.7,0-3.1-1.3-3.1-3c0,0,0,0,0-0.1c0-1.8,1.3-3.2,3.1-3.2
			c0.4,0,0.7,0.1,1.4,0.3L33.2,61.3z"/>
		<path style="fill:#A48D68;" d="M37.2,61.4l2.1,5.7h0.5v0.4H38v-0.4h0.5l-0.7-1.8h-2.1l-0.6,1.8h0.6v0.4h-1.5v-0.4h0.5l2-5.7H37.2z
			 M36.8,62.3L36.8,62.3L35.9,65h1.9L36.8,62.3z"/>
		<path style="fill:#A48D68;" d="M41.6,62h-1.7v0.7h-0.4v-1.5h0.4v0.3h4.1v-0.3h0.4v1.5h-0.4V62h-1.7v5.1h0.8v0.4h-2.4v-0.4h0.8V62z
			"/>
		<path style="fill:#A48D68;" d="M48.1,64.3v-0.7h0.4v2h-0.4v-0.9h-1.7v2.5h2.2v-0.8H49v1.2h-4.1v-0.4h0.8v-5.2h-0.8v-0.4h4v1.2
			h-0.4v-0.8h-2.1v2.4H48.1z"/>
		<path style="fill:#A48D68;" d="M50.4,61.9h-0.8v-0.4h2.3c1.4,0,1.9,0.8,1.9,1.6c0,0.8-0.6,1.4-1.3,1.5v0c0.7,0.3,1,0.7,1.4,1.5
			l0.5,1H55v0.4h-1.1L53.1,66c-0.4-0.9-0.9-1.3-1.7-1.3h-0.3v2.4h0.9v0.4h-2.4v-0.4h0.8V61.9z M51.4,64.4c1,0,1.6-0.4,1.6-1.2
			c0-0.6-0.3-1.2-1.3-1.2h-0.6v2.5H51.4z"/>
		<path style="fill:#A48D68;" d="M56.2,61.9h-0.8v-0.4h2.4v0.4h-0.8v5.2h0.8v0.4h-2.4v-0.4h0.8V61.9z"/>
		<path style="fill:#A48D68;" d="M59.2,61.9h-0.8v-0.4h1.5v0.4l3.7,4.6h0v-4.6h-0.9v-0.4h2.1v0.4h-0.8v5.6h-0.4l-4-4.9h0v4.5h0.9
			v0.4h-2.1v-0.4h0.8L59.2,61.9z"/>
		<path style="fill:#A48D68;" d="M70.2,61.3h0.3V63h-0.3c-0.2-0.7-0.8-1.2-1.6-1.2c-1.4,0-2.2,1-2.2,2.7s1,2.8,2.3,2.8
			c0.4,0,1.2-0.1,1.2-0.6v-1.6h-0.8v-0.4h2.3v0.4h-0.8v2.2c-0.6,0.2-1.2,0.3-1.8,0.3c-1.9,0-3.2-1.3-3.2-3.1c0-1.9,1.3-3.2,3.1-3.2
			c0.5,0,1,0.1,1.5,0.3L70.2,61.3z"/>
	</g>
</g>
</svg>
