<?xml version="1.0" encoding="utf-8"?>
<svg version="1.1" id="Layer_1" xmlns="http://www.w3.org/2000/svg" xmlns:xlink="http://www.w3.org/1999/xlink" x="0px" y="0px"
	width="100px" height="100px" viewBox="0 0 66.7 66.7" style="enable-background:new 0 0 66.7 66.7;" xml:space="preserve">
<g>
	<circle style="fill:#E8E8E8;" cx="33.3" cy="33.3" r="33.3"/>
	<circle style="fill:#FFFFFF;" cx="33.3" cy="33.3" r="32.7"/>
	<g>
		<path style="fill:#5E686D;" d="M23.6,32.5c0-0.2-0.1-0.3-0.2-0.5c-0.1-0.1-0.3-0.2-0.6-0.2h-0.7c0,0-0.1,0-0.1,0.1l0,0v1.3
			c0,0,0,0.1,0.1,0.1l0,0h0.7c0.3,0,0.5-0.1,0.6-0.2C23.5,32.9,23.6,32.7,23.6,32.5 M24.8,32.5c0,0.3,0,0.5-0.1,0.7
			c-0.1,0.2-0.2,0.4-0.3,0.5c-0.1,0.1-0.3,0.3-0.5,0.3s-0.5,0.1-0.7,0.1h-0.9c0,0-0.1,0-0.1,0.1l0,0v1.5v0.1l0,0h-1
			c0,0-0.1,0-0.1-0.1l0,0v-4.9c0,0,0-0.1,0.1-0.1h1.1h0.9c0.3,0,0.5,0.1,0.7,0.1c0.2,0.1,0.4,0.2,0.5,0.3c0.1,0.1,0.3,0.3,0.3,0.5
			C24.7,32,24.8,32.3,24.8,32.5 M29.9,32.5c0-0.2-0.1-0.3-0.2-0.5c-0.1-0.1-0.3-0.2-0.6-0.2h-0.8c0,0-0.1,0-0.1,0.1l0,0v1.2v0.1l0,0
			h0.8c0.3,0,0.5-0.1,0.6-0.2C29.9,32.8,29.9,32.7,29.9,32.5 M31.1,35.9h-1.1h-0.1l-0.7-1.7h-0.1h-0.7c0,0-0.1,0-0.1,0.1v1.7
			c0,0,0,0.1-0.1,0.1l0,0h-1l-0.1-0.1v-4.9V31l0,0H29c0.7,0,1.1,0.1,1.4,0.4c0.3,0.3,0.5,0.7,0.5,1.2c0,0.3-0.1,0.6-0.2,0.9
			c-0.1,0.2-0.3,0.4-0.5,0.5c0,0-0.1,0.1,0,0.1l0.8,1.8C31.1,35.8,31.1,35.9,31.1,35.9 M43.7,31.9h-1.2h-0.1l0,0v3.9v0.1l0,0h-1
			c0,0-0.1,0-0.1-0.1l0,0v-3.9h-0.1l0,0H40l-0.1-0.1l0,0v-0.9v-0.1l0,0h3.7c0,0,0.1,0,0.1,0.1L43.7,31.9
			C43.8,31.9,43.7,31.9,43.7,31.9L43.7,31.9 M47.4,31.9v0.9l0.1,0.1l0,0h1.7l0.1,0.1l0,0v0.9c0,0,0,0.1-0.1,0.1h-1.7
			c0,0-0.1,0-0.1,0.1l0,0v0.9c0,0,0,0.1,0.1,0.1l0,0h1.9h0.1l0,0v0.9c0,0,0,0.1-0.1,0.1h-3.1c0,0-0.1,0-0.1-0.1l0,0V31
			c0,0,0-0.1,0.1-0.1l0,0h3.1c0,0,0.1,0,0.1,0.1v0.9c0,0,0,0.1-0.1,0.1l0,0L47.4,31.9"/>
		<path style="fill:#5E686D;" d="M52.5,35.7v-4.9l0.1-0.1l0,0h1v0.1v4.9c0.1,0,0,0.1,0,0.1l0,0h-0.9C52.6,35.9,52.5,35.8,52.5,35.7
			C52.5,35.8,52.5,35.8,52.5,35.7 M61.2,30.9v4.9c0,0,0,0.1-0.1,0.1l0,0H60c0,0-0.1,0-0.1-0.1L58,32.7h-0.1v3v0.1l0,0h-1
			c0,0-0.1,0-0.1-0.1l0,0v-4.9l0.1-0.1l0,0h1.1c0,0,0.1,0,0.1,0.1l1.9,3h0.1v-3c0,0,0-0.1,0.1-0.1l0,0h1V30.9 M35.6,34.9
			c0.7,0,1.4-0.5,1.4-1.5c0-1.1-0.7-1.5-1.4-1.5s-1.5,0.5-1.5,1.5C34.2,34.4,34.9,34.9,35.6,34.9 M35.6,30.7c1.4,0,2.6,1,2.6,2.6
			s-1.2,2.6-2.6,2.6s-2.6-1-2.6-2.6C33.1,31.7,34.2,30.7,35.6,30.7 M15.5,30.8C15.5,30.8,15.6,30.8,15.5,30.8l1.1,1.9h0.1l1-1.9
			l0.1-0.1h1.1c0,0,0.1,0,0,0.1l-1.7,2.9c0,0-0.1,0.1-0.1,0.1v1.8v0.1l0,0h-1c0,0-0.1,0-0.1-0.1v-1.8v-0.1l-1.7-2.9
			c0,0,0-0.1,0.1-0.1C14.4,30.8,15.5,30.8,15.5,30.8z M9.4,35.9H8.3c0,0-0.1,0,0-0.1l2.7-4.9H11h1.2c0,0,0.1,0,0,0.1L9.4,35.9
			 M5.5,30.8h1.1h0.1l1.7,3.1V34l-0.6,1.1H7.7l-1.2-2.3v2.9c0,0,0,0.1-0.1,0.1h-1c0,0-0.1,0-0.1-0.1v-4.9
			C5.5,30.9,5.5,30.8,5.5,30.8 M11.1,34.1l0.9-1.8v3.6v0.1h-1v-0.1v-1.7L11.1,34.1"/>
	</g>
</g>
</svg>
