<svg xmlns="http://www.w3.org/2000/svg" viewBox="0 0 699.6 136.5"><path d="M188.5 0c-37.9 0-68.7 30.5-68.7 68s30.8 68 68.7 68 68.7-30.5 68.7-68-30.8-68-68.7-68zm0 111.6c-24 0-43.6-19.5-43.6-43.6 0-24 19.5-43.6 43.6-43.6 24 0 43.6 19.5 43.6 43.6 0 24-19.6 43.6-43.6 43.6zM379 78L296.1 1.5v129.6h24.5V58.8l82.9 76.3V5.2H379V78zM50.1 56.2c12.8 4 21.4 8 27.9 12.9 9.7 7.3 14.6 16.7 14.6 27.9 0 10.4-4.9 20.5-13.3 27.8-8.5 7.3-20.2 11.3-33 11.3-26.5 0-41.7-17.6-42.3-18.3l-2.2-2.5 19.8-13.2 1.7 1.3c3.2 2.4 11.8 7.9 23 7.9 13.2 0 21.1-7.2 21.1-14.2 0-3 0-9.2-24.9-17-12.8-4-21.4-8-27.9-12.9C4.9 59.7 0 50.4 0 39.2c0-10.4 4.9-20.6 13.4-27.8C21.9 4 33.6 0 46.3 0 72.8 0 88 17.6 88.7 18.3l2.1 2.5L71 34.1l-1.7-1.3c-3.2-2.4-11.9-7.9-23-7.9-13.2 0-21.1 7.3-21.1 14.3 0 3 0 9.2 24.9 17zM511.1.5c-37.9 0-68.7 30.5-68.7 68s30.8 68 68.7 68 68.7-30.5 68.7-68S549 .5 511.1.5zm0 111.6c-24 0-43.6-19.5-43.6-43.6 0-24 19.5-43.6 43.6-43.6s43.6 19.5 43.6 43.6c0 24-19.5 43.6-43.6 43.6zm138.5-31.8c-12.8-4-21.4-8-27.9-12.9C612 60 607 50.7 607 39.5c0-10.4 4.9-20.5 13.3-27.8C628.8 4.4 640.5.4 653.2.4c26.5 0 41.7 17.6 42.3 18.3l2.2 2.5L678 34.4l-1.7-1.3c-3.2-2.4-11.8-7.9-23-7.9-13.2 0-21.1 7.2-21.1 14.2 0 3 0 9.2 24.9 17 12.8 4 21.4 8 27.9 12.9 9.7 7.3 14.6 16.7 14.6 27.9 0 10.4-4.9 20.6-13.4 27.8-8.5 7.3-20.2 11.3-32.9 11.3-26.5 0-41.7-17.6-42.3-18.3l-2.2-2.5 19.8-13.2 1.7 1.3c3.2 2.4 11.9 7.9 23 7.9 13.2 0 21.1-7.2 21.1-14.3.1-2.9.1-9.1-24.8-16.9z" fill-rule="evenodd"/></svg>