<?xml version="1.0"?>
<svg xmlns="http://www.w3.org/2000/svg" xmlns:xlink="http://www.w3.org/1999/xlink" xmlns:svgjs="http://svgjs.com/svgjs" version="1.1" width="512" height="512" x="0" y="0" viewBox="0 0 512 512" style="enable-background:new 0 0 512 512" xml:space="preserve" class=""><g><g xmlns="http://www.w3.org/2000/svg"><circle cx="256" cy="256" fill="#f1f1f1" r="256" data-original="#df6426" style="" class=""/><path d="m389.896 163.995-61.782-.445-20-20-20.446 20.445h-22.254l-20-20.445-20.445 20.445h-82.228l-20-20.445-39.21 40.891 18.764 19v165.01l143.323 143.323c3.446.136 6.903.226 10.382.226 19.818 0 39.108-2.254 57.632-6.516l6.324-1.539c110.437-28.403 192.044-128.644 192.044-247.945 0-3.843-.101-7.662-.268-11.463l-101.391-100.987z" fill="#f1f1f1" data-original="#ce3b0e" style="" class=""/><g><g><g><g><path d="m420.564 225.332c-5.636 0-10.223-4.587-10.223-10.223v-40.891h-30.668v10.223c0 16.908-13.76 30.668-30.668 30.668s-30.668-13.76-30.668-30.668v-10.223h-30.668v40.891c0 5.636-4.587 10.223-10.223 10.223h-10.223v143.118h163.564v-143.118z" fill="#9cd6f4" data-original="#9cd6f4" style=""/></g></g><path d="m430.787 225.332v143.118h-81.782v-153.341c16.908 0 30.668-13.76 30.668-30.668v-10.223h30.668v40.891c0 5.636 4.587 10.223 10.223 10.223z" fill="#7fa6fb" data-original="#7fa6fb" style="" class=""/><g><path d="m297.891 163.995h102.228v20.445h-102.228z" fill="#000000" data-original="#000000" style=""/></g><g><g><path d="m245.414 174.218h-143.118v48.633l9.201 13.61-9.201 7.98v124.009h61.337v-122.673h20.445v122.673h61.337v-124.37l-9.487-10.229 9.487-12.54v-47.093z" fill="#90776f" data-original="#90776f" style=""/></g></g><path d="m245.414 221.311-9.486 12.54 9.486 10.229v124.37h-61.336v-122.673h-10.223v-71.559h71.559z" fill="#674d55" data-original="#674d55" style=""/><g><path d="m431.468 163.995v20.446h-20.445l-7.954-10.448-12.492 10.448h-81.782l-9.316-10.448-11.129 10.448h-42.254l-10.223-10.448-10.223 10.448h-102.227l-11.586-10.448-8.86 10.448h-20.445v-20.446z" fill="#4b5055" data-original="#4b5055" style="" class=""/></g><path d="m431.468 163.995v20.446h-20.445l-7.954-10.448-12.492 10.448h-81.782l-9.316-10.448-11.129 10.448h-32.031v-20.446z" fill="#373c41" data-original="#373c41" style=""/><g><g><path d="m153.157 207.149c-.627 2.747-6.672 27.131-26.579 35.773-8.021 3.482-16.247 3.592-24.282 1.52v-21.591c6.331 2.76 11.729 3.21 16.097 1.336 8.901-3.823 13.726-16.888 14.83-21.597z" fill="#674d55" data-original="#674d55" style=""/></g></g><g><path d="m214.214 201.628c0 .007.007.021.007.027-.007-.02-.014-.041-.021-.048.008.008.008.015.014.021z" fill="#000000" data-original="#000000" style=""/><path d="m245.414 221.311v22.769c-6.638 2.167-13.63 2.379-20.568-.116-19.948-7.156-29.046-32.931-30.021-35.847l19.396-6.461c1.704 5.003 8.533 19.867 17.556 23.076 2.447.866 6.59 1.534 13.637-3.421z" fill="#52374c" data-original="#52374c" style=""/></g><g><path d="m102.296 143.55h20.445v40.891h-20.445z" fill="#f3d652" data-original="#f3d652" style=""/></g><g><path d="m224.969 143.55h20.445v40.891h-20.445z" fill="#f3d652" data-original="#f3d652" style=""/></g><g><path d="m287.668 143.55h20.445v40.891h-20.445z" fill="#e9bc3e" data-original="#e9bc3e" style=""/></g><g><path d="m389.896 143.55h20.445v40.891h-20.445z" fill="#e9bc3e" data-original="#e9bc3e" style=""/></g></g></g></g></g></svg>
