<?xml version="1.0" encoding="utf-8"?>
<svg version="1.1" id="Layer_1" xmlns="http://www.w3.org/2000/svg" xmlns:xlink="http://www.w3.org/1999/xlink" x="0px" y="0px"
	 viewBox="0 0 439.04 533.33" style="enable-background:new 0 0 439.04 533.33;" xml:space="preserve">
<g>
	<path style="fill:#F8EC00;stroke:#1561AC;stroke-width:4.0558;stroke-miterlimit:4.0558;" d="M437.01,531.31H2.03V2.03h434.98
		V531.31z"/>
	<path style="fill:#1561AC;" d="M50.19,387.33h337.64V298.1l-233.21,0v-33.46h233.21V174.4l-233.21,0v-34.48h233.21V51.71l-337.64,0
		V387.33z M121.6,482.14v-59.87h15.9c11.83,0,20.16,0.18,25.07,1.05c8.45,1.5,24.69,9.74,24.69,29.18
		c0,16.43-13.65,27.26-24.25,29.18c-4.72,0.86-12.1,0.45-22.03,0.45L121.6,482.14L121.6,482.14z M140.17,466.65
		c0,0,11.41,0.12,15.67,0.12c6.99,0,13.37-7.51,13.33-14.56c-0.04-6.79-5.77-13.5-13.33-13.5c-4.6,0-15.67-0.05-15.67-0.05V466.65z
		 M265.92,482.14v-59.87h17.83v23.14l21.04-23.14h24.18l-23.28,25.75l25.52,34.13h-23.72l-14.59-20.09l-9.14,9.45v10.65H265.92z
		 M332.55,482.14l19.74-59.87h28.67l19.82,59.87h-17.93l-4.36-11.81H354.9l-4.45,11.81H332.55z M359.8,455.68h13.88L366.72,435
		L359.8,455.68z"/>
	<path style="fill:none;" d="M71.27,444.86h39.33v-7.36H71.27V444.86z M71.27,466.65h39.33v-6.96H71.27V466.65z"/>
	<path style="fill:#1561AC;" d="M71.27,466.65v-6.96h39.33v-14.83H71.27v-7.36h39.33v-15.23H50.95v59.87h59.65v-15.5H71.27z
		 M215.25,466.65v-6.96h39.33v-14.83h-39.33v-7.36h39.33v-15.23h-59.65v59.87h59.65v-15.5H215.25z"/>
</g>
</svg>
