<?xml version="1.0" encoding="utf-8"?>
<svg version="1.1" id="Layer_1" xmlns="http://www.w3.org/2000/svg" xmlns:xlink="http://www.w3.org/1999/xlink" x="0px" y="0px"
	width="100px" height="100px" viewBox="0 0 100 100" style="enable-background:new 0 0 100 100;" xml:space="preserve">
<g>
	<path style="fill:#E8E8E8;" d="M50,0c27.61,0,50,22.39,50,50s-22.39,50-50,50S0,77.61,0,50S22.39,0,50,0"/>
	<path style="fill:#FFFFFF;" d="M50,1c27.06,0,49,21.94,49,49S77.06,99,50,99S1,77.06,1,50S22.94,1,50,1"/>
	<g>
		<path style="fill:#252F3E;" d="M33.8,43.93c0,0.91,0.1,1.65,0.27,2.2c0.2,0.54,0.44,1.14,0.79,1.78c0.12,0.2,0.17,0.4,0.17,0.57
			c0,0.25-0.15,0.49-0.47,0.74l-1.56,1.04c-0.22,0.15-0.44,0.22-0.64,0.22c-0.25,0-0.49-0.12-0.74-0.35
			c-0.35-0.37-0.64-0.77-0.89-1.16c-0.25-0.42-0.49-0.89-0.77-1.46c-1.93,2.27-4.35,3.41-7.26,3.41c-2.07,0-3.73-0.59-4.94-1.78
			c-1.21-1.19-1.83-2.77-1.83-4.74c0-2.1,0.74-3.8,2.25-5.09c1.51-1.28,3.51-1.93,6.05-1.93c0.84,0,1.7,0.07,2.62,0.2
			s1.85,0.32,2.84,0.54v-1.8c0-1.88-0.4-3.19-1.16-3.95c-0.79-0.77-2.12-1.14-4.02-1.14c-0.86,0-1.75,0.1-2.67,0.32
			c-0.91,0.22-1.8,0.49-2.67,0.84c-0.4,0.17-0.69,0.27-0.86,0.32c-0.17,0.05-0.3,0.07-0.4,0.07c-0.35,0-0.52-0.25-0.52-0.77v-1.21
			c0-0.4,0.05-0.69,0.17-0.86c0.12-0.17,0.35-0.35,0.69-0.52c0.86-0.44,1.9-0.81,3.11-1.11c1.21-0.32,2.49-0.47,3.85-0.47
			c2.94,0,5.09,0.67,6.47,2c1.36,1.33,2.05,3.36,2.05,6.07v8H33.8z M23.78,47.68c0.81,0,1.65-0.15,2.54-0.44
			c0.89-0.3,1.68-0.84,2.35-1.58c0.4-0.47,0.69-0.99,0.84-1.58s0.25-1.31,0.25-2.15v-1.04c-0.72-0.17-1.48-0.32-2.27-0.42
			s-1.56-0.15-2.32-0.15c-1.65,0-2.86,0.32-3.68,0.99c-0.81,0.67-1.21,1.61-1.21,2.84c0,1.16,0.3,2.02,0.91,2.62
			C21.78,47.38,22.64,47.68,23.78,47.68z M43.6,50.35c-0.44,0-0.74-0.07-0.94-0.25c-0.2-0.15-0.37-0.49-0.52-0.96l-5.8-19.09
			c-0.15-0.49-0.22-0.81-0.22-0.99c0-0.4,0.2-0.62,0.59-0.62h2.42c0.47,0,0.79,0.07,0.96,0.25c0.2,0.15,0.35,0.49,0.49,0.96
			L44.74,46l3.85-16.35c0.12-0.49,0.27-0.81,0.47-0.96c0.2-0.15,0.54-0.25,0.99-0.25h1.98c0.47,0,0.79,0.07,0.99,0.25
			c0.2,0.15,0.37,0.49,0.47,0.96l3.9,16.54l4.27-16.54c0.15-0.49,0.32-0.81,0.49-0.96c0.2-0.15,0.52-0.25,0.96-0.25h2.3
			c0.4,0,0.62,0.2,0.62,0.62c0,0.12-0.02,0.25-0.05,0.4c-0.02,0.15-0.07,0.35-0.17,0.62l-5.95,19.09c-0.15,0.49-0.32,0.81-0.52,0.96
			s-0.52,0.25-0.94,0.25h-2.12c-0.47,0-0.79-0.07-0.99-0.25c-0.2-0.17-0.37-0.49-0.47-0.99l-3.83-15.93l-3.8,15.9
			c-0.12,0.49-0.27,0.81-0.47,0.99c-0.2,0.17-0.54,0.25-0.99,0.25H43.6z M75.33,51.01c-1.28,0-2.57-0.15-3.8-0.44
			c-1.23-0.3-2.2-0.62-2.84-0.99c-0.4-0.22-0.67-0.47-0.77-0.69c-0.1-0.22-0.15-0.47-0.15-0.69v-1.26c0-0.52,0.2-0.77,0.57-0.77
			c0.15,0,0.3,0.02,0.44,0.07s0.37,0.15,0.62,0.25c0.84,0.37,1.75,0.67,2.72,0.86c0.99,0.2,1.95,0.3,2.94,0.3
			c1.56,0,2.77-0.27,3.61-0.81s1.28-1.33,1.28-2.35c0-0.69-0.22-1.26-0.67-1.73c-0.44-0.47-1.28-0.89-2.49-1.28l-3.58-1.11
			c-1.8-0.57-3.14-1.41-3.95-2.52c-0.81-1.09-1.23-2.3-1.23-3.58c0-1.04,0.22-1.95,0.67-2.74s1.04-1.48,1.78-2.02
			c0.74-0.57,1.58-0.99,2.57-1.28s2.02-0.42,3.11-0.42c0.54,0,1.11,0.02,1.65,0.1c0.57,0.07,1.09,0.17,1.61,0.27
			c0.49,0.12,0.96,0.25,1.41,0.4c0.44,0.15,0.79,0.3,1.04,0.44c0.35,0.2,0.59,0.4,0.74,0.62c0.15,0.2,0.22,0.47,0.22,0.81v1.16
			c0,0.52-0.2,0.79-0.57,0.79c-0.2,0-0.52-0.1-0.94-0.3c-1.41-0.64-2.99-0.96-4.74-0.96c-1.41,0-2.52,0.22-3.28,0.69
			s-1.16,1.19-1.16,2.2c0,0.69,0.25,1.28,0.74,1.75c0.49,0.47,1.41,0.94,2.72,1.36l3.51,1.11c1.78,0.57,3.06,1.36,3.83,2.37
			s1.14,2.17,1.14,3.46c0,1.06-0.22,2.02-0.64,2.86c-0.44,0.84-1.04,1.58-1.8,2.17c-0.77,0.62-1.68,1.06-2.74,1.38
			C77.75,50.84,76.59,51.01,75.33,51.01z"/>
		<g>
			<path style="fill:#FF9900;" d="M80,63.01c-8.12,6-19.93,9.19-30.08,9.19c-14.22,0-27.04-5.26-36.72-14
				c-0.77-0.69-0.07-1.63,0.84-1.09c10.47,6.07,23.38,9.75,36.74,9.75c9.01,0,18.91-1.88,28.03-5.73
				C80.17,60.52,81.33,62.03,80,63.01z"/>
			<path style="fill:#FF9900;" d="M83.38,59.16c-1.04-1.33-6.86-0.64-9.51-0.32c-0.79,0.1-0.91-0.59-0.2-1.11
				c4.64-3.26,12.27-2.32,13.16-1.23c0.89,1.11-0.25,8.74-4.59,12.4c-0.67,0.57-1.31,0.27-1.01-0.47
				C82.22,65.98,84.42,60.47,83.38,59.16z"/>
		</g>
	</g>
</g>
</svg>
