<?xml version="1.0"?>
<svg xmlns="http://www.w3.org/2000/svg" xmlns:xlink="http://www.w3.org/1999/xlink" xmlns:svgjs="http://svgjs.com/svgjs" version="1.1" width="512" height="512" x="0" y="0" viewBox="0 0 512 512" style="enable-background:new 0 0 512 512" xml:space="preserve" class=""><g><circle xmlns="http://www.w3.org/2000/svg" cx="256" cy="256" fill="#f1f1f1" r="256" data-original="#a3d4ff" style="" class=""/><path xmlns="http://www.w3.org/2000/svg" d="m508.906 295.854-106.758-106.759-95.443 19.723-119.813-119.813-61.225 140.114-15.334 199.881 72.317 72.316c23.239 6.939 47.855 10.684 73.35 10.684 127.827 0 233.763-93.691 252.906-216.146z" fill="#f1f1f1" data-original="#65b1fc" style="" class=""/><path xmlns="http://www.w3.org/2000/svg" d="m349.285 436.457-69.981-274.219-23.304 5.948-23.304-5.948-69.981 274.219 36.82 9.396 56.465-221.257 56.465 221.257z" fill="#555a66" data-original="#555a66" style="" class=""/><path xmlns="http://www.w3.org/2000/svg" d="m279.304 162.238-23.304 5.948v56.41l56.465 221.257 36.82-9.396z" fill="#333940" data-original="#333940" style="" class=""/><path xmlns="http://www.w3.org/2000/svg" d="m425.852 212.829-17.072 45.714-264.188-98.987 17.073-45.714z" fill="#636978" data-original="#636978" style="" class=""/><path xmlns="http://www.w3.org/2000/svg" d="m425.852 212.829-169.852-63.641v52.111l152.78 57.244z" fill="#414952" data-original="#414952" style="" class=""/><path xmlns="http://www.w3.org/2000/svg" d="m110.333 193.424h30.667v235.576h-30.667z" fill="#636978" data-original="#636978" style="" class=""/><path xmlns="http://www.w3.org/2000/svg" d="m126.333 193.424h14.667v235.576h-14.667z" fill="#414952" data-original="#414952" style="" class=""/><path xmlns="http://www.w3.org/2000/svg" d="m120.968 97.247-23.259 62.279 7.953 39.024c2.481 12.172 11.058 22.207 22.695 26.553l21.848 8.159 41.001-109.785c7.244-19.396-2.607-40.992-22.003-48.235-19.396-7.243-40.991 2.609-48.235 22.005z" fill="#414952" data-original="#414952" style="" class=""/><path xmlns="http://www.w3.org/2000/svg" d="m169.222 75.25-51.839 143.32c3.198 2.771 6.893 5.009 10.975 6.533l21.848 8.159 41.001-109.786c7.241-19.389-2.601-40.976-21.985-48.226z" fill="#23272b" data-original="#23272b" style=""/><path xmlns="http://www.w3.org/2000/svg" d="m100.598 173.701 5.064 24.849c2.481 12.172 11.058 22.208 22.695 26.553l21.848 8.159 14.024-37.55z" fill="#f92814" data-original="#f92814" style="" class=""/><path xmlns="http://www.w3.org/2000/svg" d="m117.383 218.57c3.198 2.771 6.893 5.009 10.975 6.533l21.848 8.159 14.024-37.55-34.289-11.861z" fill="#c10000" data-original="#c10000" style=""/><path xmlns="http://www.w3.org/2000/svg" d="m156.354 406h199.292v46h-199.292z" fill="#414952" data-original="#414952" style="" class=""/><g xmlns="http://www.w3.org/2000/svg" fill="#23272b"><path d="m256 406h99.646v46h-99.646z" fill="#23272b" data-original="#23272b" style=""/><path d="m359.222 181.008h29v81.999h-29z" transform="matrix(.931 .364 -.364 .931 106.408 -120.774)" fill="#23272b" data-original="#23272b" style=""/></g></g></svg>
