<?xml version="1.0"?>
<svg xmlns="http://www.w3.org/2000/svg" xmlns:xlink="http://www.w3.org/1999/xlink" xmlns:svgjs="http://svgjs.com/svgjs" version="1.1" width="512" height="512" x="0" y="0" viewBox="0 0 512 512" style="enable-background:new 0 0 512 512" xml:space="preserve" class=""><g><g xmlns="http://www.w3.org/2000/svg"><g><g><g><g><g><g><circle cx="256" cy="256" fill="#f1f1f1" r="256" data-original="#ffce00" style="" class=""/></g></g></g></g></g></g><path d="m512 256c0-1.733-.017-3.462-.052-5.188l-124.267-124.267-124.451-28.433 76.801 76.801-220.658 222.453 115.312 113.76c7.029.579 14.137.874 21.315.874 141.385 0 256-114.615 256-256z" fill="#f1f1f1" data-original="#f9ac00" style="" class=""/><g><path d="m374.934 173.403h55.325v69.019h-55.325z" fill="#636978" transform="matrix(.707 .707 -.707 .707 264.934 -223.782)" data-original="#636978" style=""/></g><g><path d="m251.111 146.315h49.817v192.627h-49.817z" fill="#7e8596" transform="matrix(.707 .707 -.707 .707 252.409 -124.111)" data-original="#7e8596" style=""/></g><g><path d="m187.998 237.739h192.627v26.364h-192.627z" fill="#636978" transform="matrix(.707 -.707 .707 .707 -94.155 274.529)" data-original="#636978" style=""/></g><g><path d="m120.31 398.338c-15.522-15.522-15.522-40.688 0-56.21l92.484-92.484 56.21 56.21-92.484 92.484c-15.522 15.522-40.688 15.522-56.21 0z" fill="#fe8205" data-original="#fe8205" style="" class=""/></g><g><path d="m119.307 397.283c.33.354.658.71 1.003 1.055 15.522 15.522 40.688 15.522 56.21 0l92.484-92.484-29.134-29.134z" fill="#fa5d0f" data-original="#fa5d0f" style="" class=""/></g><g><path d="m403.162 177.784h32.588v93.978h-32.588z" fill="#414952" transform="matrix(.707 .707 -.707 .707 281.794 -230.766)" data-original="#414952" style=""/></g><g><path d="m343.812 82.676-55.748-9.398-24.834 24.834 44.271 30.061-25.548 25.549 83.407 83.407 66.453-66.452z" fill="#636978" data-original="#636978" style=""/></g><g><path d="m330.122 152.058h93.978v60.74h-93.978z" fill="#414952" transform="matrix(.707 -.707 .707 .707 -18.543 320.088)" data-original="#414952" style=""/></g></g></g></svg>
