<?xml version="1.0" encoding="utf-8"?>
<svg version="1.1" id="Layer_1" xmlns="http://www.w3.org/2000/svg" xmlns:xlink="http://www.w3.org/1999/xlink" x="0px" y="0px"
	width="100px" height="100px" viewBox="0 0 66.7 66.7" style="enable-background:new 0 0 66.7 66.7;" xml:space="preserve">
<g>
	<circle style="fill:#E8E8E8;" cx="33.3" cy="33.3" r="33.3"/>
	<circle style="fill:#FFFFFF;" cx="33.3" cy="33.3" r="32.7"/>
	<path d="M54.7,19.8H27.8v27h26.9V19.8L54.7,19.8z M26.6,19.8h-4.3v27h4.3V19.8z M19.3,19.8h-1.9v27h1.9V19.8z M13.2,19.8H12v27h1.2
		C13.2,46.8,13.2,19.8,13.2,19.8z"/>
	<path style="fill:#FFFFFF;" d="M34.1,24.7h0.5v2.9c0,0.3,0,0.7-0.3,0.9c-0.1,0.1-0.3,0.2-0.4,0.2l-0.5-0.5c0.1,0,0.3,0,0.4-0.1
		c0.1-0.1,0.1-0.1,0.2-0.2c0.1-0.1,0.1-0.3,0.1-0.5V24.7C34.1,24.7,34.1,24.7,34.1,24.7z M37.9,25.1c-0.4,0-0.7,0.1-1,0.4
		s-0.4,0.5-0.4,0.9s0.1,0.7,0.4,0.9s0.5,0.4,0.9,0.4s0.7-0.1,0.9-0.4s0.4-0.5,0.4-0.9c0-0.3-0.1-0.7-0.4-0.9
		C38.5,25.3,38.2,25.1,37.9,25.1 M37.8,24.7c0.5,0,1,0.1,1.3,0.5c0.3,0.3,0.5,0.7,0.5,1.3s-0.2,0.9-0.5,1.3
		c-0.3,0.3-0.8,0.5-1.3,0.5s-0.9-0.1-1.3-0.5c-0.4-0.4-0.5-0.8-0.5-1.3c0-0.5,0.2-0.9,0.5-1.3C36.9,24.9,37.3,24.7,37.8,24.7
		 M44.1,28.1h-0.5v-1.5h-1.9v1.4h-0.5v-3.4h0.5v1.5h1.9v-1.5h0.5V28.1L44.1,28.1z M49.1,28.1h-0.5l-2.4-2.6v2.6h-0.5v-3.4h0.4
		l2.5,2.7v-2.7h0.5V28.1z M34.2,35.5v-0.5h-1.7V32H32v3.5L34.2,35.5C34.2,35.5,34.2,35.5,34.2,35.5z M38,35.5v-0.5h-1.7V34h1.7v-0.5
		h-1.7v-1H38V32h-2.2v3.5L38,35.5L38,35.5z M42.3,32h-0.5l-0.9,2.4l-1-2.4h-0.5l1.4,3.5h0.1l1.1-2.8l1.1,2.8h0.1l1.4-3.5h-0.5
		l-0.9,2.4L42.3,32C42.3,32.1,42.3,32,42.3,32z M46.7,32h-0.5v3.5h0.5V32L46.7,32z M49.5,34.1l-0.4-0.2c-0.2-0.1-0.4-0.3-0.5-0.4
		c-0.1-0.1-0.1-0.3-0.1-0.5c0-0.3,0.1-0.5,0.3-0.7c0.2-0.1,0.4-0.3,0.7-0.3s0.5,0.1,0.8,0.3v0.5c-0.2-0.3-0.5-0.3-0.8-0.3
		c-0.1,0-0.3,0-0.4,0.1c-0.1,0.1-0.1,0.2-0.1,0.3c0,0.1,0,0.2,0.1,0.3s0.2,0.2,0.4,0.3l0.4,0.2c0.4,0.3,0.6,0.5,0.6,0.9
		c0,0.3-0.1,0.5-0.3,0.7c-0.2,0.2-0.4,0.3-0.7,0.3s-0.7-0.1-0.9-0.3v-0.6c0.2,0.3,0.5,0.5,0.9,0.5c0.1,0,0.3,0,0.4-0.1
		c0.1-0.1,0.1-0.2,0.1-0.3C49.9,34.5,49.8,34.3,49.5,34.1 M32.4,39.7c0,0.1,0,0.1,0.1,0.1c0,0.1,0.1,0.1,0.1,0.1
		c0.1-0.1,0.1-0.1,0.1-0.1s0.1-0.1,0.1-0.1s0-0.1-0.1-0.1s-0.1-0.1-0.1-0.1s-0.1,0-0.1,0.1C32.4,39.6,32.4,39.7,32.4,39.7
		 M32.2,40.7c0,0.1,0,0.1,0.1,0.1c0.1,0.1,0.1,0.1,0.1,0.1c0.1,0,0.2-0.1,0.3-0.1l-0.3-0.3c-0.1,0.1-0.1,0.1-0.2,0.1L32.2,40.7
		 M32.6,39.3c0.1,0,0.3,0.1,0.3,0.1s0.1,0.2,0.1,0.3c0,0.1,0,0.2-0.1,0.3c-0.1,0.1-0.2,0.2-0.3,0.2l0.3,0.3c0.1-0.1,0.1-0.2,0.2-0.3
		h0.3c-0.1,0.2-0.2,0.4-0.3,0.5l0.4,0.5h-0.5l-0.2-0.2c-0.1,0.1-0.2,0.1-0.3,0.1c-0.1,0-0.2,0.1-0.3,0.1s-0.3-0.1-0.4-0.1
		c-0.1-0.1-0.1-0.2-0.1-0.3s0-0.2,0.1-0.3c0.1-0.1,0.2-0.1,0.3-0.3c-0.1-0.1-0.1-0.1-0.1-0.2c0-0.1-0.1-0.1-0.1-0.2
		c0-0.1,0.1-0.3,0.1-0.3C32.3,39.3,32.5,39.3,32.6,39.3 M35.5,40.1c0.1,0,0.2,0,0.2-0.1c0.1-0.1,0.1-0.1,0.1-0.2
		c0-0.2-0.1-0.3-0.3-0.3h-0.3v0.5H35.5z M35.5,39.3c0.2,0,0.3,0.1,0.5,0.1s0.2,0.3,0.2,0.4s-0.1,0.3-0.1,0.3
		c-0.1,0.1-0.3,0.1-0.4,0.1h-0.3v0.9H35v-1.8L35.5,39.3C35.5,39.3,35.5,39.3,35.5,39.3z M37.1,40.4h0.6l-0.3-0.7L37.1,40.4
		L37.1,40.4z M37.5,39.3l0.8,1.9H38l-0.2-0.5H37l-0.2,0.5h-0.4l0.7-1.9H37.5z M39.4,40.1c0.1,0,0.1,0,0.2-0.1s0.1-0.1,0.1-0.2
		c0-0.1,0-0.1-0.1-0.2c-0.1-0.1-0.1-0.1-0.2-0.1h-0.2v0.5H39.4L39.4,40.1z M39.5,39.3c0.2,0,0.3,0.1,0.4,0.1
		c0.1,0.1,0.1,0.2,0.1,0.4c0,0.1,0,0.2-0.1,0.3s-0.1,0.1-0.3,0.2c0.1,0,0.1,0.1,0.1,0.1c0.1,0.1,0.1,0.1,0.2,0.3
		c0.1,0.2,0.2,0.4,0.3,0.5h-0.4c0-0.1-0.1-0.1-0.1-0.2c-0.1-0.2-0.2-0.3-0.2-0.4s-0.1-0.1-0.1-0.2c-0.1,0-0.1-0.1-0.1-0.1h-0.1v0.9
		h-0.3v-1.9C38.9,39.3,39.5,39.3,39.5,39.3z M41.7,39.5v1.6h-0.5v-1.7h-0.7v-0.1h1.7v0.2L41.7,39.5C41.7,39.5,41.7,39.5,41.7,39.5z
		 M44.3,39.3h0.3v1.9h-0.3l-1.1-1.3v1.3h-0.3v-1.9h0.3l1.1,1.3L44.3,39.3C44.3,39.3,44.3,39.3,44.3,39.3z M45.9,39.5v0.5h0.7v0.2
		h-0.7v0.5h0.7v0.3h-1.2v-1.8h1.2v0.3L45.9,39.5C45.9,39.6,45.9,39.5,45.9,39.5z M47.9,40.1c0.1,0,0.1,0,0.2-0.1
		c0.1-0.1,0.1-0.1,0.1-0.2s0-0.1-0.1-0.2c-0.1-0.1-0.1-0.1-0.2-0.1h-0.3v0.5H47.9z M48.1,39.3c0.2,0,0.3,0.1,0.4,0.1
		c0.1,0.1,0.1,0.2,0.1,0.4c0,0.1,0,0.2-0.1,0.3s-0.1,0.1-0.3,0.2c0.1,0,0.1,0.1,0.1,0.1c0.1,0.1,0.1,0.1,0.2,0.3
		c0.1,0.2,0.2,0.4,0.3,0.5h-0.4c0-0.1-0.1-0.1-0.1-0.2c-0.1-0.2-0.2-0.3-0.2-0.4c-0.1-0.1-0.1-0.1-0.1-0.2c-0.1,0-0.1-0.1-0.1-0.1
		h-0.1v0.9h-0.3v-1.9C47.4,39.3,48.1,39.3,48.1,39.3z M50,39.3c0.2,0,0.3,0.1,0.5,0.1v0.3c-0.2-0.1-0.4-0.2-0.5-0.2
		c-0.1,0-0.2,0-0.2,0.1c-0.1,0-0.1,0.1-0.1,0.1s0.1,0.1,0.1,0.2c0,0,0.1,0.1,0.3,0.1c0.1,0.1,0.3,0.1,0.3,0.3
		c0.1,0.1,0.1,0.2,0.1,0.3s-0.1,0.3-0.2,0.4c-0.1,0.1-0.3,0.1-0.5,0.1c-0.1,0-0.2,0-0.3-0.1c-0.1,0-0.2-0.1-0.3-0.1v-0.3
		c0.2,0.1,0.4,0.3,0.5,0.3c0.1,0,0.1,0,0.2-0.1c0.1-0.1,0.1-0.1,0.1-0.1s-0.1-0.1-0.1-0.2s-0.2-0.1-0.3-0.1s-0.3-0.1-0.3-0.2
		c-0.1-0.1,0-0.3,0-0.4c0-0.1,0.1-0.3,0.2-0.4C49.6,39.3,49.8,39.3,50,39.3"/>
</g>
</svg>
