<?xml version="1.0" encoding="utf-8"?>
<svg version="1.1" id="Layer_1" xmlns="http://www.w3.org/2000/svg" xmlns:xlink="http://www.w3.org/1999/xlink" x="0px" y="0px"
	width="100px" height="100px" viewBox="0 0 66.7 66.7" style="enable-background:new 0 0 66.7 66.7;" xml:space="preserve">
<g>
	<circle style="fill:#E8E8E8;" cx="33.3" cy="33.3" r="33.3"/>
	<circle style="fill:#FFFFFF;" cx="33.3" cy="33.3" r="32.7"/>
	<path style="fill:#2350A0;" d="M27.8,37.5l-0.4-1.4H25l-0.4,1.4h-1.8l2.3-7.5h2.1l2.3,7.5C29.7,37.5,27.8,37.5,27.8,37.5z
		 M26.2,31.7l-0.8,2.9h1.7L26.2,31.7z M35,29.2v8.3h-1.7v-0.7c-0.3,0.5-1,0.9-1.6,0.9c-0.5,0-0.9-0.2-1.3-0.5
		c-0.5-0.5-0.7-1.2-0.7-2.3c0-1.1,0.2-1.9,0.7-2.4c0.3-0.3,0.9-0.5,1.5-0.5c0.5,0,0.9,0.1,1.1,0.4v-3.1C33.2,29.2,35,29.2,35,29.2z
		 M32.8,35.8c0.3-0.4,0.5-0.9,0.5-1.4c0-0.4-0.1-0.7-0.3-0.9c-0.2-0.1-0.4-0.3-0.7-0.2c-0.7,0-0.8,0.5-0.8,1.5
		c0,1.1,0.1,1.5,0.5,1.5C32.4,36.2,32.7,36.1,32.8,35.8L32.8,35.8z M37.6,31.9v0.9c0.3-0.6,0.9-1,1.6-1c0.7,0,1.2,0.3,1.5,1
		c0.3-0.6,0.9-1,1.7-1c1,0,1.6,0.7,1.6,2v3.7h-1.7v-3.4c0-0.5-0.1-0.7-0.4-0.7c-0.5,0-1,0.5-1,1.9v2.2h-1.7v-3.4
		c0-0.4-0.1-0.7-0.4-0.7c-0.5,0-1,0.5-1,1.9v2.2H36v-5.5C35.9,31.9,37.6,31.9,37.6,31.9z M45.7,29.1c0.5,0,1,0.5,1,1l0,0
		c0,0.5-0.4,1-0.9,1h-0.1c-0.5,0-1-0.5-1-1l0,0C44.7,29.5,45.2,29.1,45.7,29.1z M46.6,31.9v5.5h-1.7v-5.5H46.6z M49.2,31.9v0.9
		c0.3-0.6,0.7-1,1.3-1c0.1,0,0.2,0,0.3,0.1l-0.1,1.7c-0.1,0-0.2,0-0.3,0c-0.9,0-1.1,1.1-1.1,2.1v1.9h-1.7v-5.7
		C47.6,31.9,49.2,31.9,49.2,31.9z M51.3,32.6c0.5-0.5,1.3-0.8,2.2-0.8c1.6,0,2.3,0.6,2.3,2.1v3.5h-1.4v-0.7c-0.3,0.5-1,0.9-1.6,0.9
		c-0.5,0-0.9-0.1-1.2-0.5c-0.3-0.3-0.5-0.7-0.5-1.3c0-0.7,0.2-1.1,0.7-1.5c0.5-0.3,1.2-0.5,1.9-0.5h0.6v-0.1c0-0.6-0.2-0.8-0.9-0.8
		c-0.5,0-0.9,0.1-1.3,0.5L51.3,32.6L51.3,32.6z M53.7,35.1c-0.6,0-0.9,0.1-0.9,0.7c0,0.3,0.1,0.5,0.4,0.5c0.5,0,1.2-0.5,1.3-1.3
		H53.7z M58.6,29.2v8.3h-1.7v-8.3H58.6z"/>
	<path style="fill:#CC0033;" d="M18.3,37.3c-0.1,0.4-0.3,0.7-0.7,1c-0.4,0.3-0.8,0.5-1.3,0.6c-0.5,0.1-1.1,0.1-1.7,0.1
		c-0.6-0.1-1.3-0.3-1.8-0.5c-0.6-0.3-1.1-0.6-1.7-1c-0.5-0.4-0.9-0.8-1.3-1.3c-0.3-0.4-0.5-0.9-0.6-1.5c-0.1-0.4-0.1-0.9,0.1-1.3
		c0.1-0.4,0.4-0.7,0.7-0.9c0.3-0.3,0.8-0.4,1.3-0.5c0.3-0.1,0.6-0.1,0.9-0.1c-0.1-0.1-0.1-0.2-0.1-0.3c-0.4,0-0.7,0-1.1,0.1
		c-0.6,0.1-1.2,0.3-1.7,0.7c-0.5,0.3-0.8,0.7-1,1.2C8.1,34,8,34.5,8.1,35.1c0.1,0.6,0.3,1.3,0.8,1.9c0.5,0.7,1,1.3,1.7,1.7
		c0.7,0.5,1.4,0.9,2.2,1.3c0.7,0.3,1.5,0.5,2.4,0.7c0.7,0.1,1.5,0.1,2.3-0.1c0.7-0.2,1.3-0.5,1.7-0.8c0.4-0.3,0.7-0.8,0.8-1.3
		s0.1-1.1-0.1-1.5h-1.4C18.3,37,18.3,37.1,18.3,37.3L18.3,37.3z"/>
	<g>
		<path style="fill:#2350A0;" d="M12.7,29.4c0.1-0.5,0.3-2.5,1.5-3.2c-1.9-1-3.2,0.4-2.7,3.5C11.7,30.2,12.5,30,12.7,29.4L12.7,29.4
			z M17.2,30.3c0.1,0.2,0.1,0.4,0.1,0.6l1.1,0.1v-0.1c0-0.1,0.1-0.1,0.1-0.1c-0.1-0.1-0.1-0.1-0.2-0.2c0,0,0-0.1,0.1-0.3
			C18.1,30.2,17.5,30.2,17.2,30.3L17.2,30.3z"/>
		<path style="fill:#2350A0;" d="M23.5,29.9L20.8,30l-0.3,0.1l0.1-0.1c-0.2-0.1-0.4-0.1-0.6-0.2c-0.1,0-0.1,0-0.1,0.1
			c-0.1-0.1-0.2-0.1-0.3-0.1c-0.1,0-0.1,0-0.1,0.1c-0.1,0-0.1,0-0.2-0.1c-0.1,0-0.1,0.1-0.1,0.1c-0.1,0-0.1,0-0.2,0l0,0
			c-0.1,0.1-0.2,0.2-0.3,0.3c-0.1,0.1-0.1,0.2-0.1,0.3s0.1,0.2,0.1,0.3l-0.1,0.1c0,0.1,0,0.3,0,0.5c0.1,0.3,0.4,0.5,0.7,0.5h-0.3
			c0,0,0.2,1.6,0.1,2.4c-0.7,0-1.4-0.1-2.1-0.2l0.4-1.8l-0.8-0.1l0.1-0.3l0.1-0.3c0.1,0,0.3-0.1,0.3-0.1c-0.1-0.3-0.1-0.7-0.2-1.1
			l0.1-0.1l0.1-0.4l0.2,0.1l0,0c0.1-0.9,0.3-3.2,0.3-3.7c0-0.2-1.1-0.2-1.1-0.2c-1.5,0-2.9,1.1-3.5,3.5c-0.1,0.3-0.3,0.7-0.9,0.7
			c-0.3,0-0.3-0.1-0.3-0.1s0.7,0.9,2.9-0.1c1.4-0.6,2.1-0.1,2.1-0.1c0,0.1,0.1,0.1,0.1,0.2l-0.2,0.2c0,0,0.2,0.4,0.3,1.1
			c-0.1,0-0.3,0-0.5,0.1c0,0.1,0.1,0.1,0.1,0.2c0,0.1-0.1,0.4-0.1,0.4l-0.1,0.3c0,0,0.1,0.1,0.1,0.3c-0.1,0.2-0.2,0.4-0.3,0.4
			c-0.5,0-1.3-0.3-1.7-0.4c-0.1,0-0.3,0.5-0.7,2.6c0-1.2-0.1-2.5-0.3-3.7c0,0-0.5,0.1-0.7-0.8c-0.3,0-0.5-0.1-0.7-0.2
			c0,0.4,0.1,1.2,0.7,1.7l-1.1,0.2l0.1,1.6c-0.8,0.2-1.6,0.4-2.5,0.5v0.1c0.1,0.4,0.3,0.8,0.5,1.2c0.3,0.5,0.7,0.8,1.1,1.1
			s0.9,0.6,1.5,0.9c0.5,0.2,1.1,0.3,1.6,0.5c0.5,0.1,1,0.1,1.5-0.1c0.4-0.1,0.8-0.3,1.1-0.5c0.3-0.2,0.5-0.5,0.5-0.9
			c0-0.1,0-0.1,0.1-0.3h3c1,0,1-4.7,1-4.7H21l-0.1-0.7l2.1,0.1L23.5,29.9L23.5,29.9z M16.1,30.5c0.1-0.1,0.1-0.2,0.1-0.3h0.1
			l0.1-0.1c-0.5-0.3-0.9,0.3-0.9,0.3l0.3-0.1C15.7,30.5,16,30.7,16.1,30.5z"/>
		<path style="fill:#2350A0;" d="M16.5,31.7L16,31.7c0,0,0.3,0.3,0.5,0.1c0.1-0.1,0.1-0.1,0.1-0.1L16.5,31.7z"/>
	</g>
</g>
</svg>
