<?xml version="1.0"?>
<svg xmlns="http://www.w3.org/2000/svg" xmlns:xlink="http://www.w3.org/1999/xlink" xmlns:svgjs="http://svgjs.com/svgjs" version="1.1" width="512" height="512" x="0" y="0" viewBox="0 0 512 512" style="enable-background:new 0 0 512 512" xml:space="preserve" class=""><g><path xmlns="http://www.w3.org/2000/svg" d="m512 256c0 141.386719-114.613281 256-256 256s-256-114.613281-256-256 114.613281-256 256-256 256 114.613281 256 256zm0 0" fill="#f1f1f1" data-original="#ff9a00" style="" class=""/><path xmlns="http://www.w3.org/2000/svg" d="m512 256c0-22.78125-2.992188-44.863281-8.574219-65.886719l-42.917969-42.328125c-4.980468-6.160156-12.597656-10.097656-21.136718-10.097656-3.796875 0-7.40625.78125-10.6875 2.191406l-80.539063-81.945312c-4.984375-5.945313-12.464843-9.726563-20.828125-9.726563-15.003906 0-27.167968 12.160157-27.167968 27.164063 0 8.839844 4.222656 16.6875 10.757812 21.648437v21.441407h-41.40625v3.683593l-63.367188-63.449219c-4.972656-6.382812-12.730468-10.492187-21.445312-10.492187-15.003906 0-27.167969 12.164063-27.167969 27.167969 0 9.984375 5.386719 18.703125 13.410157 23.425781v48.664063l16.320312 16.078124h-4.53125c-6.054688 0-11.363281 3.351563-14.164062 8.296876l-23.835938-20.742188h-48.667969c-4.722656-8.019531-13.441406-13.40625-23.421875-13.40625-15.003906 0-27.167968 12.160156-27.167968 27.164062 0 7.8125 3.300781 14.855469 8.578124 19.8125l68.070313 66.796876h-17.933594c-4.8125-7.609376-13.296875-12.667969-22.96875-12.667969-15.003906 0-27.167969 12.164062-27.167969 27.167969 0 7.429687 2.984376 14.160156 7.816407 19.066406l104.585937 104.042968v55.191407c0 3.910156 1.394532 7.511719 3.714844 10.324219l55.40625 55.605468c9.984375 1.183594 20.136719 1.808594 30.4375 1.808594 141.386719 0 256-114.613281 256-256zm0 0" fill="#f1f1f1" data-original="#e67500" style="" class=""/><path xmlns="http://www.w3.org/2000/svg" d="m199.929688 92.460938h-29v55h41.40625v70.417968h29v-99.417968h-41.40625zm0 0" fill="#ffffff" data-original="#ffffff" style="" class=""/><path xmlns="http://www.w3.org/2000/svg" d="m339.90625 92.460938h-29v26h-41.40625v99.417968h29v-70.417968h41.40625zm0 0" fill="#fff5cb" data-original="#fff5cb" style=""/><path xmlns="http://www.w3.org/2000/svg" d="m211.851562 75.371094c0 15.003906-12.160156 27.167968-27.164062 27.167968s-27.167969-12.164062-27.167969-27.167968 12.164063-27.164063 27.167969-27.164063 27.164062 12.160157 27.164062 27.164063zm0 0" fill="#00ffea" data-original="#00ffea" style="" class=""/><path xmlns="http://www.w3.org/2000/svg" d="m354.480469 75.371094c0 15.003906-12.164063 27.167968-27.167969 27.167968s-27.164062-12.164062-27.164062-27.167968 12.160156-27.164063 27.164062-27.164063 27.167969 12.160157 27.167969 27.164063zm0 0" fill="#00dfc1" data-original="#00dfc1" style="" class=""/><path xmlns="http://www.w3.org/2000/svg" d="m422.28125 180.097656v-29h-55v41.40625h-70.417969v29h99.417969v-41.40625zm0 0" fill="#fff5cb" data-original="#fff5cb" style=""/><path xmlns="http://www.w3.org/2000/svg" d="m466.539062 164.855469c0 15.003906-12.164062 27.164062-27.167968 27.164062s-27.167969-12.160156-27.167969-27.164062c0-15.003907 12.164063-27.167969 27.167969-27.167969s27.167968 12.164062 27.167968 27.167969zm0 0" fill="#00dfc1" data-original="#00dfc1" style="" class=""/><path xmlns="http://www.w3.org/2000/svg" d="m89.71875 180.097656v-29h55v41.40625h70.417969v29h-99.417969v-41.40625zm0 0" fill="#ffffff" data-original="#ffffff" style="" class=""/><path xmlns="http://www.w3.org/2000/svg" d="m99.796875 164.855469c0 15.003906-12.164063 27.164062-27.167969 27.164062s-27.167968-12.160156-27.167968-27.164062c0-15.003907 12.164062-27.167969 27.167968-27.167969s27.167969 12.164062 27.167969 27.167969zm0 0" fill="#00ffea" data-original="#00ffea" style="" class=""/><path xmlns="http://www.w3.org/2000/svg" d="m83.917969 251.460938h96.332031v29h-96.332031zm0 0" fill="#ffffff" data-original="#ffffff" style="" class=""/><path xmlns="http://www.w3.org/2000/svg" d="m331.75 251.460938h96.332031v29h-96.332031zm0 0" fill="#fff5cb" data-original="#fff5cb" style=""/><path xmlns="http://www.w3.org/2000/svg" d="m345.558594 179.820312v264.441407c0 8.960937-7.328125 16.277343-16.277344 16.277343h-146.5625c-8.949219 0-16.277344-7.316406-16.277344-16.277343v-264.441407c0-8.960937 7.328125-16.28125 16.277344-16.28125h146.5625c8.949219 0 16.277344 7.320313 16.277344 16.28125zm0 0" fill="#006ef5" data-original="#006ef5" style=""/><path xmlns="http://www.w3.org/2000/svg" d="m345.558594 179.820312v264.441407c0 8.960937-7.328125 16.277343-16.277344 16.277343h-73.28125v-297h73.28125c8.949219 0 16.277344 7.320313 16.277344 16.28125zm0 0" fill="#004eb2" data-original="#004eb2" style=""/><path xmlns="http://www.w3.org/2000/svg" d="m273.21875 449.230469h-34.4375c-6.75 0-12.21875-5.46875-12.21875-12.21875 0-6.746094 5.46875-12.214844 12.21875-12.214844h34.441406c6.746094 0 12.214844 5.46875 12.214844 12.214844 0 6.75-5.46875 12.21875-12.21875 12.21875zm0 0" fill="#84caff" data-original="#84caff" style=""/><path xmlns="http://www.w3.org/2000/svg" d="m285.4375 437.011719c0-6.746094-5.46875-12.214844-12.214844-12.214844h-17.222656v24.433594h17.21875c6.75 0 12.21875-5.46875 12.21875-12.21875zm0 0" fill="#00a6ff" data-original="#00a6ff" style="" class=""/><path xmlns="http://www.w3.org/2000/svg" d="m179.144531 183.109375h153.710938v235.261719h-153.710938zm0 0" fill="#00ffea" data-original="#00ffea" style="" class=""/><path xmlns="http://www.w3.org/2000/svg" d="m256 182.394531h76.859375v235.265625h-76.859375zm0 0" fill="#00dfc1" data-original="#00dfc1" style="" class=""/><path xmlns="http://www.w3.org/2000/svg" d="m311.734375 300.027344c0 30.78125-24.953125 55.734375-55.734375 55.734375s-55.734375-24.953125-55.734375-55.734375 24.953125-55.734375 55.734375-55.734375 55.734375 24.953125 55.734375 55.734375zm0 0" fill="#ffffff" data-original="#ffffff" style="" class=""/><path xmlns="http://www.w3.org/2000/svg" d="m311.730469 300.03125c0 30.777344-24.949219 55.730469-55.730469 55.730469v-111.472657c30.78125 0 55.730469 24.960938 55.730469 55.742188zm0 0" fill="#fff5cb" data-original="#fff5cb" style=""/><path xmlns="http://www.w3.org/2000/svg" d="m253.671875 334.449219-37.335937-30.933594 11.804687-14.25 22.816406 18.898437 30.238281-37.910156 14.472657 11.542969zm0 0" fill="#006ef5" data-original="#006ef5" style=""/><path xmlns="http://www.w3.org/2000/svg" d="m295.671875 281.800781-39.671875 49.730469v-29.679688l25.199219-31.601562zm0 0" fill="#004eb2" data-original="#004eb2" style=""/><path xmlns="http://www.w3.org/2000/svg" d="m108.375 265.960938c0 15.003906-12.160156 27.167968-27.164062 27.167968-15.003907 0-27.167969-12.164062-27.167969-27.167968 0-15.003907 12.164062-27.167969 27.167969-27.167969 15.003906 0 27.164062 12.164062 27.164062 27.167969zm0 0" fill="#00ffea" data-original="#00ffea" style="" class=""/><path xmlns="http://www.w3.org/2000/svg" d="m457.960938 265.960938c0 15.003906-12.164063 27.167968-27.167969 27.167968-15.003907 0-27.167969-12.164062-27.167969-27.167968 0-15.003907 12.164062-27.167969 27.167969-27.167969 15.003906 0 27.167969 12.164062 27.167969 27.167969zm0 0" fill="#00dfc1" data-original="#00dfc1" style="" class=""/></g></svg>
