<?xml version="1.0"?>
<svg xmlns="http://www.w3.org/2000/svg" xmlns:xlink="http://www.w3.org/1999/xlink" xmlns:svgjs="http://svgjs.com/svgjs" version="1.1" width="512" height="512" x="0" y="0" viewBox="0 0 512 512" style="enable-background:new 0 0 512 512" xml:space="preserve" class=""><g><g xmlns="http://www.w3.org/2000/svg"><g><g><g><g><g><g><g><g><g><g><circle cx="256" cy="256" fill="#f1f1f1" r="256" data-original="#4a7aff" style="" class=""/></g></g></g></g></g></g></g></g></g></g><path d="m512 256c0-20.951-2.517-41.314-7.265-60.804l-126.735-126.735-291.378 338.539 93.598 93.598c23.947 7.411 49.397 11.402 75.78 11.402 141.385 0 256-114.615 256-256z" fill="#f1f1f1" data-original="#0053bf" style="" class=""/><g><path d="m86.622 211h338.757v196h-338.757z" fill="#fe6a16" data-original="#fe6a16" style="" class=""/></g><g><path d="m256 211h169.378v196h-169.378z" fill="#f24500" data-original="#f24500" style=""/></g><g><path d="m134 68.461h244v338.539h-244z" fill="#ff9500" data-original="#ff9500" style="" class=""/></g><g><path d="m256 68.461h122v338.539h-122z" fill="#fe6a16" data-original="#fe6a16" style="" class=""/></g><g><g fill="#fff"><path d="m181.778 112.506 8.899 2.69c-.598 2.496-1.539 4.581-2.824 6.254-1.286 1.674-2.881 2.937-4.786 3.789s-4.33 1.278-7.274 1.278c-3.572 0-6.49-.519-8.754-1.557s-4.218-2.863-5.862-5.477-2.466-5.959-2.466-10.036c0-5.436 1.446-9.614 4.338-12.534 2.892-2.919 6.983-4.379 12.273-4.379 4.14 0 7.394.837 9.763 2.511 2.368 1.674 4.128 4.244 5.279 7.711l-8.967 1.995c-.314-1.001-.644-1.734-.986-2.197-.568-.777-1.264-1.375-2.085-1.793-.822-.418-1.741-.628-2.758-.628-2.301 0-4.064.926-5.29 2.777-.927 1.373-1.39 3.53-1.39 6.47 0 3.642.553 6.139 1.658 7.49 1.106 1.351 2.66 2.026 4.663 2.026 1.942 0 3.411-.545 4.405-1.636.994-1.093 1.716-2.677 2.164-4.754z" fill="#ffffff" data-original="#ffffff" style="" class=""/><path d="m215.813 120.531h-11.529l-1.602 5.425h-10.368l12.352-32.863h11.076l12.349 32.863h-10.634zm-2.106-7.106-3.628-11.814-3.589 11.814z" fill="#ffffff" data-original="#ffffff" style="" class=""/><path d="m229.549 115.084 9.661-.605c.209 1.569.635 2.765 1.277 3.587 1.046 1.33 2.541 1.995 4.483 1.995 1.45 0 2.567-.34 3.352-1.02s1.177-1.468 1.177-2.365c0-.852-.373-1.614-1.12-2.286-.748-.673-2.481-1.308-5.201-1.906-4.453-1.001-7.629-2.331-9.527-3.99-1.913-1.659-2.869-3.773-2.869-6.344 0-1.688.489-3.284 1.469-4.786.979-1.502 2.45-2.682 4.416-3.542 1.965-.859 4.658-1.289 8.081-1.289 4.199 0 7.401.781 9.605 2.342 2.204 1.562 3.516 4.046 3.935 7.454l-9.572.561c-.255-1.479-.788-2.556-1.603-3.228s-1.939-1.009-3.374-1.009c-1.181 0-2.07.25-2.668.751s-.896 1.11-.896 1.827c0 .523.247.994.74 1.412.478.434 1.613.837 3.407 1.21 4.438.957 7.617 1.924 9.538 2.903 1.92.979 3.317 2.193 4.192 3.643.874 1.45 1.311 3.071 1.311 4.864 0 2.107-.582 4.05-1.748 5.829s-2.795 3.127-4.887 4.046c-2.093.919-4.73 1.379-7.913 1.379-5.59 0-9.46-1.076-11.612-3.228-2.152-2.153-3.371-4.888-3.654-8.205z" fill="#ffffff" data-original="#ffffff" style="" class=""/></g><path d="m264.877 93.093h10.178v32.863h-10.178z" fill="#e9edf5" data-original="#e9edf5" style="" class=""/><path d="m282.407 93.093h9.482l12.374 18.181v-18.181h9.571v32.863h-9.571l-12.307-18.044v18.044h-9.55v-32.863z" fill="#e9edf5" data-original="#e9edf5" style="" class=""/><path d="m319.306 109.547c0-5.365 1.494-9.542 4.482-12.531 2.989-2.989 7.151-4.483 12.486-4.483 5.47 0 9.685 1.468 12.644 4.405s4.438 7.05 4.438 12.34c0 3.841-.646 6.991-1.939 9.449s-3.16 4.372-5.604 5.739-5.489 2.051-9.136 2.051c-3.706 0-6.773-.59-9.201-1.771-2.429-1.181-4.398-3.049-5.907-5.604-1.509-2.556-2.263-5.754-2.263-9.595zm10.154.045c0 3.318.616 5.702 1.85 7.151 1.232 1.45 2.91 2.174 5.032 2.174 2.182 0 3.87-.709 5.066-2.129 1.195-1.419 1.793-3.968 1.793-7.644 0-3.094-.624-5.354-1.871-6.781-1.248-1.427-2.94-2.141-5.078-2.141-2.047 0-3.691.725-4.932 2.174-1.24 1.45-1.86 3.848-1.86 7.196z" fill="#e9edf5" data-original="#e9edf5" style="" class=""/></g><g><g><path d="m160.5 161h44v44h-44z" fill="#ffffff" data-original="#ffffff" style="" class=""/></g><g><path d="m307.5 161h44v44h-44z" fill="#e9edf5" data-original="#e9edf5" style="" class=""/></g></g><g><path d="m234 161h44v44h-44z" fill="#ffffff" data-original="#ffffff" style="" class=""/></g><g><path d="m256 161h22v44h-22z" fill="#e9edf5" data-original="#e9edf5" style="" class=""/></g><g><g><path d="m160.5 228h44v44h-44z" fill="#ffffff" data-original="#ffffff" style="" class=""/></g><g><path d="m307.5 228h44v44h-44z" fill="#e9edf5" data-original="#e9edf5" style="" class=""/></g></g><g><path d="m234 228h44v44h-44z" fill="#ffffff" data-original="#ffffff" style="" class=""/></g><g><path d="m256 228h22v44h-22z" fill="#e9edf5" data-original="#e9edf5" style="" class=""/></g><g><g><path d="m160.5 302.342h44v44h-44z" fill="#ffffff" data-original="#ffffff" style="" class=""/></g><g><path d="m307.5 302.342h44v44h-44z" fill="#e9edf5" data-original="#e9edf5" style="" class=""/></g></g><g><path d="m234 302.342h44v104.658h-44z" fill="#ffffff" data-original="#ffffff" style="" class=""/></g><g><path d="m256 302.342h22v104.658h-22z" fill="#e9edf5" data-original="#e9edf5" style="" class=""/></g></g></g></svg>
