<?xml version="1.0" encoding="utf-8"?>
<svg version="1.1" id="Layer_1" xmlns="http://www.w3.org/2000/svg" xmlns:xlink="http://www.w3.org/1999/xlink" x="0px" y="0px"
	 viewBox="0 0 300 418.12" style="enable-background:new 0 0 300 418.12;" xml:space="preserve">
<g>
	<path style="fill:#CC0000;" d="M0.06,149.98C0.06,67.14,67.19,0,150.02,0C232.85,0,300,67.13,300,149.98
		c0,82.79-67.15,149.96-149.98,149.96C67.19,299.94,0.06,232.77,0.06,149.98z M149.99,249.93c55.21,0,99.96-44.76,99.96-99.96
		c0-55.22-44.75-99.98-99.96-99.98c-55.2,0-99.96,44.76-99.96,99.98C50.04,205.17,94.79,249.93,149.99,249.93z M199.97,149.97
		c0,27.6-22.37,49.98-49.98,49.98s-49.97-22.38-49.97-49.98S122.39,99.99,150,99.99S199.97,122.37,199.97,149.97L199.97,149.97z"/>
	<path style="fill:#CC0000;" d="M25.94,319.38v17.63h11.83v10.81H25.94v29.13c0,5.46,1.37,6.82,6.82,6.82
		c1.82,0,3.64-0.11,5.01-0.46v12.63c-2.73,0.46-6.37,0.57-9.56,0.57c-12.4,0-18.43-3.75-18.43-14.22v-34.47H0v-10.81h9.78v-17.63
		L25.94,319.38z M96.01,380.47c0,3.87,0.68,4.66,4.1,4.66h0.46v10.47c-1.48,0.68-3.3,1.37-6.71,1.37c-7.51,0-11.37-2.28-12.63-7.62
		c-3.87,4.66-10.69,8.07-20.47,8.07c-12.06,0-20.02-6.26-20.02-17.63c0-5.69,1.82-9.67,5.12-12.51c3.75-3.19,9.21-4.89,19-5.91
		c10.47-1.14,15.01-2.05,15.01-7.28c0-6.71-4.89-7.85-10.35-7.85c-6.71,0-10.24,2.73-10.81,8.87H42.55
		c0.68-12.86,11.26-19.68,27.76-19.68c17.18,0,25.71,5.8,25.71,16.72L96.01,380.47L96.01,380.47z M66.78,386.61
		c8.65,0,13.08-4.66,13.08-13.31v-6.26c-1.48,1.37-4.32,2.16-9.78,2.84c-8.31,1.02-13.2,2.84-13.2,9.21
		C56.88,383.77,59.72,386.61,66.78,386.61L66.78,386.61z M142.43,335.99V351c-1.91-0.39-3.85-0.58-5.8-0.57
		c-11.72,0-15.93,8.07-15.93,18.89v26.5h-16.15v-58.82h15.36v10.92h0.23c3.07-7.4,10.69-12.51,18.77-12.51
		C140.5,335.42,141.63,335.76,142.43,335.99L142.43,335.99z M185.21,344.86h0.23v-7.85h15.36v55.17c0,15.24-8.87,25.94-30.37,25.94
		c-13.65,0-25.37-6.94-26.05-18.89h16.04c1.37,5.69,5.8,8.08,12.06,8.08c8.31,0,12.97-5.23,12.97-14.22v-8.07h-0.23
		c-3.18,5.69-9.67,9.1-17.63,9.1c-16.95,0-25.14-12.4-25.14-29.58c0-15.02,8.76-29.13,25.26-29.13
		C176.11,335.42,181.56,338.61,185.21,344.86L185.21,344.86z M171.67,381.95c8.76,0,13.77-7.17,13.77-16.38
		c0-8.19-2.5-17.98-13.88-17.98c-8.3,0-12.97,7.05-12.97,16.72C158.58,373.87,162.34,381.95,171.67,381.95L171.67,381.95z
		 M263.93,367.39c0,0.91-0.11,2.96-0.11,2.96h-42.43c0.46,10.12,5.12,14.9,14.33,14.9c6.14,0,11.6-3.53,12.85-7.62h14.22
		c-4.33,13.31-13.43,19.8-27.53,19.8c-18.66,0-30.03-12.86-30.03-30.94c0-17.75,12.28-31.06,30.03-31.06
		C253.81,335.42,263.93,349.98,263.93,367.39L263.93,367.39z M247.66,360.11c-1.59-8.87-5.46-12.51-12.97-12.51
		c-7.85,0-12.63,4.78-13.31,12.51H247.66z M288.17,319.38v17.63H300v10.81h-11.83v29.13c0,5.46,1.37,6.82,6.82,6.82
		c1.82,0,3.64-0.11,5.01-0.46v12.63c-2.73,0.46-6.37,0.57-9.56,0.57c-12.4,0-18.43-3.75-18.43-14.22v-34.47h-9.78v-10.81h9.78
		v-17.63L288.17,319.38z"/>
</g>
</svg>
