<svg xmlns="http://www.w3.org/2000/svg" viewBox="0 0 349.5 36" fill="#60a5a5"><path d="M9.2 28.1c-.4 1.7-1.3 3.1-2.6 4.4S3.5 35 1 36c-.6-.4-.9-1.1-1-2 1-.7 1.7-1.5 2.3-2.2.6-.8 1-1.7 1.3-2.8s.4-2.5.4-4.1V7.5c0-1-.1-1.8-.2-2.3s-.3-.9-.6-1.1c-.4-.2-.9-.3-1.6-.4-.2-.5-.3-1.3-.3-2.3.9.1 2.8.1 5.6.1l5.6-.1c0 1-.1 1.7-.3 2.3-.7.1-1.2.2-1.6.4-.3.2-.6.6-.7 1.1l-.1 2.3v14.3c0 2.6-.2 4.7-.6 6.3zm24.2-3.9c0 .6-.1 1.2-.3 1.7-.9 0-1.9.2-2.9.4s-1.9.5-2.7.8c-.4-.2-.7-.4-.9-.7s-.3-.8-.3-1.4c0-.5 0-1 .1-1.5-.4.9-.9 1.6-1.6 2.1-1.1.9-2.5 1.3-4.2 1.3-1.8 0-3.1-.4-4-1.1s-1.4-1.8-1.4-3.2c0-1.5.6-2.7 1.8-3.6s2.5-1.5 3.9-1.9 3.1-.7 4.9-.9c0-1.1-.1-2-.2-2.5s-.3-1-.7-1.4c-.2-.3-.6-.5-.9-.7-.4-.2-.8-.2-1.2-.2-.9 0-1.6.4-2.1 1.2s-.7 1.8-.8 3c-.7 0-1.3 0-1.8-.1-.5 0-.9-.1-1.3-.3 0-.6.1-1.2.1-1.6 0-1-.1-2-.3-2.9 1.1-.5 2.2-.8 3.5-1.1s2.5-.4 3.8-.4c1.5 0 2.7.1 3.6.4s1.6.7 2.2 1.3 1 1.3 1.3 2.3c.3.9.4 2.3.4 3.9v3.4c0 .8 0 1.4.1 1.8s.3.7.6.8c.3.2.8.3 1.4.3-.1.2-.1.4-.1.8zm-11.5-4.7c-.8.5-1.3 1.3-1.3 2.3 0 .7.2 1.2.5 1.5s.7.5 1.3.5c.5 0 1-.2 1.5-.5s.9-.8 1.3-1.5c.3-.7.5-1.5.5-2.5v-1c-1.7.3-2.9.7-3.8 1.2zM47.8 15c-.5.1-1.1.2-1.6.2-.1-1-.5-1.9-1.1-2.5s-1.4-1-2.5-1c-.6 0-1 .1-1.4.4-.3.3-.5.7-.5 1.1a1.69 1.69 0 0 0 .3 1c.2.3.6.6 1.1.9l2.7 1.2c1.4.6 2.6 1.1 3.3 1.6.8.5 1.3 1.1 1.7 1.7s.5 1.3.5 2.2c0 1.7-.7 3-2.1 3.9s-3.3 1.4-5.8 1.4c-1.5 0-2.7-.1-3.7-.3s-2-.5-3-1c.1-.6.1-1.4.1-2.4l-.1-2.2c.3-.2.8-.4 1.3-.5s1.1-.2 1.6-.2c.1 1.3.5 2.4 1.2 3.1.6.7 1.5 1.1 2.5 1.1.7 0 1.3-.2 1.8-.5.4-.3.7-.8.7-1.3 0-.6-.2-1.1-.7-1.5s-1.4-.9-2.9-1.4c-1.3-.5-2.3-1-3.1-1.5-.7-.5-1.3-1.1-1.7-1.7-.4-.7-.6-1.5-.6-2.6 0-1.6.7-2.8 2-3.6s3-1.2 5-1.2c1.3 0 2.4.1 3.4.3.9.2 1.8.5 2.7.9v1.5l.1 2.4c-.2.2-.7.3-1.2.5zm36.3 8.1c.1.5.4.9.7 1.1s.9.3 1.6.4c.2.5.3 1.3.3 2.3-1.3-.1-3.1-.1-5.3-.1l-5.9.1c0-.9.1-1.7.3-2.3.7 0 1.2-.2 1.5-.4s.6-.6.7-1.1.2-1.3.2-2.3v-5.9l-9.1.2v5.7c0 1 .1 1.8.2 2.3s.4.9.7 1.1.9.3 1.6.4c.1.5.2 1.3.2 2.3-1.3-.1-3-.1-5.3-.1l-5.9.1c0-.9.1-1.7.3-2.3.7 0 1.2-.2 1.6-.4.3-.2.6-.6.7-1.1s.2-1.3.2-2.3V7.5c0-1-.1-1.8-.2-2.3s-.4-.8-.7-1-.9-.4-1.6-.4c-.2-.5-.3-1.3-.3-2.3 1.3.1 3.2.1 5.7.1l5.5-.1v1.2c0 .4-.1.8-.2 1.1-.7.1-1.2.2-1.6.4-.3.2-.6.5-.7 1s-.2 1.3-.2 2.3v5.1h9.1V7.5c0-1-.1-1.8-.2-2.3s-.4-.8-.7-1-.9-.4-1.6-.4c-.2-.5-.3-1.3-.3-2.3 1.3.1 3.2.1 5.7.1l5.5-.1c0 1-.1 1.8-.3 2.3-.7.1-1.2.2-1.5.4s-.6.5-.7 1-.2 1.3-.2 2.3v13.3c0 1 .1 1.8.2 2.3zm23.6 1.1c0 .6-.1 1.2-.3 1.7-.9 0-1.9.2-2.9.4s-1.9.5-2.7.8c-.4-.2-.7-.4-.9-.7s-.3-.8-.3-1.4c0-.5 0-1 .1-1.5-.4.9-.9 1.6-1.6 2.1-1 1-2.4 1.4-4.1 1.4-1.8 0-3.1-.4-4-1.1s-1.4-1.8-1.4-3.2c0-1.5.6-2.7 1.8-3.6s2.5-1.5 3.9-1.9 3.1-.7 4.9-.9c0-1.1-.1-2-.2-2.5s-.3-1-.7-1.4c-.2-.3-.6-.5-.9-.7-.4-.2-.8-.2-1.2-.2-.9 0-1.6.4-2.1 1.2s-.7 1.8-.8 3c-.7 0-1.3 0-1.8-.1-.5 0-.9-.1-1.3-.3 0-.6.1-1.2.1-1.6 0-1-.1-2-.3-2.9 1.1-.5 2.2-.8 3.5-1.1s2.5-.4 3.8-.4c1.5 0 2.7.1 3.6.4s1.6.7 2.2 1.3 1 1.3 1.3 2.3c.3.9.4 2.3.4 3.9v3.4c0 .8 0 1.4.1 1.8s.3.7.6.8c.3.2.8.3 1.4.3-.2.1-.2.3-.2.7zm-11.4-4.7c-.9.5-1.3 1.3-1.3 2.3 0 .7.2 1.2.5 1.5s.7.5 1.3.5c.5 0 1-.2 1.5-.5s.9-.8 1.3-1.5c.3-.7.5-1.5.5-2.5v-1c-1.7.3-3 .7-3.8 1.2zm22.2 4.3c.3.4.9.7 1.9.7.2.5.3 1.3.3 2.3-1.1-.1-2.9-.1-5.4-.1l-5.4.1c0-1 .1-1.8.3-2.3.7 0 1.2-.1 1.5-.3s.6-.5.7-1c.1-.4.2-1.1.2-2v-5.9c0-.9-.2-1.6-.5-2s-1.1-.6-2.2-.7c0-.9.1-1.7.4-2.2 1.2 0 2.5-.1 3.9-.4 1.3-.2 2.3-.5 2.9-.9.7.3 1.1 1 1.1 2v10c-.1 1.4 0 2.3.3 2.7zm-1.3-22.1c.6.5.8 1.2.8 2.1a2.32 2.32 0 0 1-.9 1.9c-.6.5-1.4.8-2.4.8-.9 0-1.7-.2-2.2-.7a2.32 2.32 0 0 1-.9-1.9c0-.9.3-1.6.9-2.1s1.4-.8 2.3-.8c1.1 0 1.9.2 2.4.7zm21.4 11.5c-.1 1.1-.1 2 0 2.7-.3.1-.8.3-1.4.3-.6.1-1.2.1-1.7.1 0-.9-.2-1.6-.4-2-.3-.4-.7-.6-1.2-.6-.4 0-.8.2-1.2.7-.4.4-.8 1-1 1.7-.3.7-.4 1.5-.4 2.2v1.8c0 1.1.1 1.9.4 2.5.2.6.6 1 1.1 1.3s1.3.4 2.2.5c.2.5.3 1.3.3 2.3-1.3-.1-3.2-.1-5.8-.1l-6.4.1c0-1 .1-1.8.3-2.3.7 0 1.2-.2 1.6-.4.3-.2.6-.6.7-1.1s.2-1.3.2-2.3v-5c0-.8-.1-1.4-.2-1.8s-.4-.7-.7-.9c-.4-.2-1-.3-1.8-.4 0-.9.1-1.7.4-2.2 1.3 0 2.6-.2 3.8-.4s2.2-.5 2.8-.8c.7.3 1.1 1 1.1 2.1 0 .5-.1 1.1-.2 1.7l-.4 2c0-.1.2-.5.4-1.1s.4-1 .6-1.3c.6-.9 1.3-1.7 2.1-2.2s1.7-.8 2.6-.8c1 0 1.9.3 2.6.9-.3.9-.4 1.8-.4 2.8zm34.3 13.7c-1.2-.1-2.9-.1-5.1-.1l-5.5.1c0-1 .1-1.8.3-2.3a3.2 3.2 0 0 0 1.3-.5c.3-.2.4-.5.4-.8s-.2-.8-.5-1.6l-.9-2-9.1.3-.5 1.2c-.2.7-.4 1.2-.4 1.6 0 1 .6 1.6 1.8 1.8.2.6.3 1.4.3 2.3-.8-.1-2.2-.1-4-.1l-3.4.1c0-.9.1-1.7.3-2.3a2.37 2.37 0 0 0 1.5-.9c.4-.5.9-1.5 1.5-3l7.8-19.2c.3-.1.7-.1 1.1-.1h1.2l8.5 19.1c.5 1.2.9 2 1.3 2.6.3.5.6.9.9 1.1s.6.3 1 .4c.1.6.2 1.4.2 2.3zm-13-14c-.8-1.7-1.4-3.3-1.8-4.8l-1.6 4.7-1.9 4.7h7.3l-2-4.6zm36.8 14l-4.7-.1-5.3.1c0-1 .1-1.8.3-2.3.7 0 1.3-.3 1.6-.8.4-.5.5-1.4.5-2.7v-3.9c0-1.5-.2-2.6-.7-3.2s-1.2-1-2.1-1c-.6 0-1.2.2-1.8.7-.5.5-1 1.2-1.3 2.1s-.5 2-.5 3.2v2.4c0 1.2.2 2.1.5 2.5.3.5.9.7 1.6.7.2.5.3 1.3.3 2.3-1.1-.1-2.8-.1-5.1-.1l-5.5.1c0-1 .1-1.8.3-2.3 1 0 1.6-.2 2-.7.3-.4.5-1.3.5-2.6v-5.5c0-.8-.1-1.4-.2-1.8s-.4-.7-.7-.9c-.4-.2-1-.3-1.8-.4 0-.9.1-1.7.4-2.2 1.3 0 2.6-.2 3.8-.4s2.2-.5 2.8-.8c.7.3 1.1 1 1.1 2.1 0 .7-.1 1.4-.4 2.2 0-.1.1-.3.3-.7s.4-.8.7-1.1c.6-.6 1.3-1.2 2.2-1.6s1.9-.7 3-.7c1.7 0 3.1.5 4.3 1.5s1.7 2.5 1.7 4.6v5.7c0 1.2.1 2.1.4 2.5.3.5.8.7 1.5.7.2.6.3 1.4.3 2.4zm22.4-2.9c0 .7-.1 1.3-.4 1.8-.9 0-1.9.2-2.9.4s-1.9.5-2.7.8c-.4-.2-.7-.4-.9-.7s-.3-.8-.3-1.4c0-.5.1-1.1.2-1.8-.4.7-.9 1.4-1.4 1.8-.5.5-1.2 1-2 1.4-.9.4-1.8.6-2.9.6-2.3 0-4.1-.7-5.4-2s-2-3.3-2-5.9c0-1.9.4-3.6 1.3-5.1s2.1-2.7 3.6-3.5c1.6-.8 3.3-1.3 5.4-1.3.9 0 1.8.1 2.7.4V6c0-.9-.2-1.6-.5-2s-1.1-.6-2.2-.7c0-.9.1-1.7.4-2.2 1.2 0 2.5-.1 3.9-.4 1.3-.2 2.3-.5 2.9-.9.7.3 1.1 1 1.1 2v18.5c0 .8 0 1.5.1 1.9s.3.7.6.9.8.3 1.4.3v.6zm-8.8-1.5c.7-1 1.1-2.6 1.1-4.8v-4.9a6.42 6.42 0 0 0-1.3-1c-.4-.2-.9-.3-1.5-.3-1.2 0-2.3.5-3.2 1.5s-1.4 2.8-1.4 5.3c0 1.7.3 3.1 1 4.1.6 1 1.5 1.5 2.5 1.5 1.1.1 2-.4 2.8-1.4zm40.6-3c0 2.2-.8 4-2.5 5.3s-4.4 2-8 2l-11.5.1c0-1 .1-1.8.2-2.3.7 0 1.2-.2 1.6-.4s.6-.6.7-1.1.2-1.3.2-2.4V7.5c0-1-.1-1.8-.2-2.3s-.4-.8-.7-1-.9-.4-1.6-.4c-.1-.6-.2-1.4-.2-2.3 1 .1 2.3.1 4 .1h3.5 3.6c3.2 0 5.6.4 7.1 1.3s2.2 2.3 2.2 4.3c0 1.5-.5 2.8-1.5 3.9s-2.4 1.7-4.2 2c4.8.2 7.3 2.3 7.3 6.4zm-8.8-14.7a4.96 4.96 0 0 0-3.2-1.1 4.53 4.53 0 0 0-1.6.3v8.4h1.3c1.7 0 2.9-.4 3.7-1.2s1.2-1.8 1.2-3.2c-.1-1.3-.5-2.4-1.4-3.2zm1.3 18.5c.7-.8 1.1-1.9 1.1-3.4 0-1.8-.6-3.1-1.7-3.9-1.1-.7-2.7-1.1-4.6-1.1h-.9v5.9c0 1 .1 1.8.3 2.4.2.5.5.9 1 1.1.4.2 1 .3 1.7.3 1.3-.1 2.3-.5 3.1-1.3zm26.5 0c.2.4.3.8.3 1.2-1.8 1.8-4.3 2.6-7.2 2.6-3.1 0-5.4-.8-6.9-2.4s-2.3-3.7-2.3-6.3c0-1.8.4-3.4 1.1-4.8s1.8-2.4 3.1-3.2a10.18 10.18 0 0 1 4.7-1.1c1.7 0 3.1.4 4.3 1.1s2 1.7 2.5 2.9a10.19 10.19 0 0 1 .8 4c-.1.7-.5 1.3-.9 1.8-3.8 0-7.2.1-10 .2.2 1.5.8 2.7 1.6 3.6s2 1.3 3.6 1.3c.8 0 1.7-.2 2.5-.5s1.6-.7 2.1-1.3c.3.2.5.5.7.9zm-9.7-10.4c-.6.8-.9 2.2-.9 4h6c0-1.6-.2-2.9-.7-3.8s-1.2-1.5-2.1-1.5c-1 0-1.7.5-2.3 1.3zm31 11.3c0 .6-.1 1.2-.3 1.7-.9 0-1.9.2-2.9.4s-1.9.5-2.7.8c-.4-.2-.7-.4-.9-.7s-.4-.8-.4-1.4c0-.5 0-1 .1-1.5-.4.9-.9 1.6-1.6 2.1-1.1.9-2.5 1.3-4.2 1.3-1.8 0-3.1-.4-4-1.1s-1.4-1.8-1.4-3.2c0-1.5.6-2.7 1.8-3.6s2.5-1.5 3.9-1.9 3.1-.7 4.9-.9c0-1.1-.1-2-.2-2.5s-.3-1-.7-1.4c-.2-.3-.6-.5-.9-.7-.4-.2-.8-.2-1.2-.2-.9 0-1.6.4-2.1 1.2s-.7 1.8-.8 3c-.7 0-1.3 0-1.8-.1-.5 0-.9-.1-1.3-.3 0-.6.1-1.2.1-1.6 0-1-.1-2-.3-2.9 1.1-.5 2.2-.8 3.5-1.1s2.5-.4 3.8-.4c1.5 0 2.7.1 3.6.4s1.6.7 2.2 1.3 1 1.3 1.2 2.3c.3.9.4 2.3.4 3.9v3.4c0 .8 0 1.4.1 1.8s.3.7.6.8c.3.2.8.3 1.4.3.1.2.1.4.1.8zm-11.5-4.7c-.8.5-1.3 1.3-1.3 2.3 0 .7.2 1.2.5 1.5s.7.5 1.3.5 1-.2 1.5-.5.9-.8 1.3-1.5c.3-.7.5-1.5.5-2.5v-1c-1.7.3-2.9.7-3.8 1.2zm34.4 4.7c0 .6-.1 1.2-.3 1.7-2.1.1-4 .5-5.6 1.2-.4-.2-.7-.4-.9-.7s-.3-.8-.3-1.4c0-.5.1-1.1.2-1.8-.3.9-.8 1.5-1.3 2-1.2 1.2-2.9 1.8-5 1.8-1.9 0-3.3-.5-4.3-1.6-.9-1.1-1.4-2.8-1.4-5.3v-4.3c0-.8-.1-1.4-.1-1.8a1.27 1.27 0 0 0-.7-.9c-.3-.2-.9-.3-1.6-.4 0-.9.1-1.7.4-2.2 1.3 0 2.5-.2 3.7-.4s2-.5 2.7-.8c.7.3 1.1 1 1.1 2.1v7.8c0 1.7.2 2.8.5 3.5s.9 1 1.8 1c1 0 1.9-.5 2.6-1.5s1-2.5 1-4.4v-2.3c0-.8-.1-1.4-.2-1.8s-.4-.7-.8-.9-1-.3-1.7-.4c0-1 .1-1.7.4-2.2 1.4 0 2.7-.1 4-.3 1.2-.2 2.1-.4 2.7-.7.7.3 1.1 1 1.1 2.1v9.1c0 .8 0 1.5.1 1.9s.3.7.6.9.8.3 1.4.3c-.1.1-.1.3-.1.7zm6.4-19.4c.8-.3 1.5-.7 2-1.2.4.1.6.4.7.7s.2.8.2 1.7v4h4.6c0 .8-.1 1.6-.4 2.4-1.7 0-3.1.2-4.2.6v7.5c0 1.5.1 2.5.4 3s.8.8 1.5.8c.8 0 1.6-.2 2.3-.6.3.4.5 1.1.6 1.9a5.14 5.14 0 0 1-2.1 1c-.9.2-1.9.4-2.8.4-1.8 0-3.1-.5-4-1.4S318 23.2 318 21v-8.3c-.7-.3-1.6-.5-2.7-.5 0-.9.1-1.7.4-2.3h2.3V5.4c.9-.1 1.7-.3 2.5-.6zm29 4.7c0 1-.1 1.8-.4 2.4-.6.1-1.1.4-1.5.8-.3.4-.8 1.2-1.3 2.3l-5.5 13.1c-.9 2.2-1.7 3.9-2.5 5-.7 1.1-1.4 1.9-2.1 2.3s-1.5.6-2.3.6-1.5-.1-2.1-.4-1.1-.6-1.5-1.1c0-.3-.1-.7-.1-.9 0-.9.1-1.7.4-2.5 1.1.3 2.3.5 3.5.5.8 0 1.5-.1 2-.4s1-.8 1.5-1.5c.2-.2.5-.8.9-1.7-1.9-4.5-3.8-8.7-5.8-12.8-.6-1.3-1.1-2.1-1.5-2.6-.4-.4-.9-.7-1.5-.8-.2-.7-.3-1.5-.3-2.4 1.4.1 3.1.1 5 .1 2.3 0 4.2 0 5.8-.1 0 .4 0 .9-.1 1.3s-.2.8-.3 1c-.7.1-1.2.3-1.5.5s-.4.5-.4.8c0 .4.2 1.1.7 2.1 1 2.1 1.9 4.2 2.6 6.2l2.3-5.9c.4-1 .6-1.7.6-2.2 0-.4-.1-.8-.4-1a3.2 3.2 0 0 0-1.3-.5c-.2-.6-.3-1.4-.3-2.4 1.1.1 2.4.1 3.7.1 1.3.3 2.6.2 3.7.1z"/></svg>