<?xml version="1.0" encoding="utf-8"?>
<!-- Generator: Adobe Illustrator 22.0.1, SVG Export Plug-In . SVG Version: 6.00 Build 0)  -->
<svg version="1.1" id="Layer_1" xmlns="http://www.w3.org/2000/svg" xmlns:xlink="http://www.w3.org/1999/xlink" x="0px" y="0px"
	 viewBox="0 0 528.5 235.9" style="enable-background:new 0 0 528.5 235.9;" xml:space="preserve">
<style type="text/css">
	.st0{fill:#1E357A;}
</style>
<title>ob-bos</title>
<g id="g421" transform="matrix(0.6605755,0,0,0.6605755,1056.6001,101.86204)">
	<path id="path423" class="st0" d="M-1135.8-55v47.1l-36.8-47.1h-10.5v67.6h11.3v-49.4l38.3,49.4h8.6V-55
		C-1124.8-55-1135.8-55-1135.8-55z"/>
</g>
<g id="g429">
	<g id="g435" transform="translate(1178.0209,88.8605)">
		<path id="path437" class="st0" d="M-891.7,79.6c-8.8,0-15.1-7.1-15.1-15.9c-0.1-8.6,6.6-15.8,15.1-15.8c8.8,0,15.1,7.1,15.1,15.8
			C-876.7,72.5-883.1,79.6-891.7,79.6 M-891.7,40.9c-12.7,0-22.9,10.2-22.9,22.9c0,12.8,9.9,23,22.9,23c12.8,0,22.9-10.2,22.9-23
			C-868.9,51.1-879,40.9-891.7,40.9"/>
	</g>
</g>
<g id="g441">
	<g id="g447" transform="translate(1113.8667,88.8597)">
		<path id="path449" class="st0" d="M-714.7,14.3c-8.8,0-15.1-7.1-15.1-15.9c-0.1-8.6,6.6-15.8,15.1-15.8c8.8,0,15.1,7.1,15.1,15.8
			C-699.5,7.1-705.9,14.3-714.7,14.3 M-714.7-24.4c-12.7,0-22.9,10.2-22.9,22.9c0,12.8,9.9,23,22.9,23c12.8,0,22.9-10.2,22.9-23
			S-701.9-24.4-714.7-24.4"/>
	</g>
</g>
<g id="g453">
	<g id="g459" transform="translate(1095.1572,102.5486)">
		<path id="path461" class="st0" d="M-747.3-37L-765.9-16V-37h-7.5V7.8h7.5v-21.5l19,21.3h10.2l-20.6-22.9l19.7-21.9L-747.3-37
			L-747.3-37z"/>
	</g>
</g>
<g id="g465">
	<g id="g471" transform="translate(1145.6705,101.7752)">
		<path id="path473" class="st0" d="M-948.3,31.2c-3.1,2.2-4.7,5.4-4.7,9.3c0,7.5,5.9,10.9,11.9,12.7c5.4,1.8,9.8,3.1,9.8,7.5
			c0,4.2-4.2,6.1-7.9,6.1c-5,0-9.8-2-12.5-3.9l-0.3-0.1v7.7h0.1c2.6,1.5,7.5,3.2,12.8,3.2c7.8,0,15.2-5.2,15.2-13.2
			c0-7.5-5.2-11.2-12.3-13.4c-7.4-2.2-9.6-3.9-9.6-6.7c0-4.2,4.2-5.4,8.1-5.4c2.9,0,7,0.7,10.6,2.5h0.1v-7.1
			c-3.3-1.5-7-2.2-11.3-2.2C-942,28.3-945.6,29.4-948.3,31.2"/>
	</g>
</g>
<g id="g477">
	<g id="g483" transform="translate(1253.6062,88.8605)">
		<path id="path485" class="st0" d="M-759.9,79.6h-6.6V49.3h6.6c8.9,0,15.1,6.6,15.1,15.1S-750.9,79.6-759.9,79.6 M-759.9,42h-14.1
			v44.8h14.1c12.7,0,23-9.5,23-22.3C-736.9,51.5-747.2,42-759.9,42"/>
	</g>
</g>
<g id="g489">
	<g id="g495" transform="translate(1202.0627,102.5478)">
		<path id="path497" class="st0" d="M-849.8,28.3v44.8h24.8l3.5-7.4h-20.6V28.3H-849.8z"/>
	</g>
</g>
<g id="g501">
	<g id="g507" transform="translate(1044.2117,88.7691)">
		<path id="path509" class="st0" d="M-836.3,14.6h-7.8V2.1h9.1c4.2,0,7.1,2.5,7.1,6.3C-827.8,12.3-830.8,14.6-836.3,14.6
			 M-844.1-16.3h7.9c3.6,0,6.8,1.8,6.8,5.6c0,3.6-2.8,6-6.6,6h-8.4L-844.1-16.3L-844.1-16.3z M-826.7-2.4c2.6-1.4,5-4.7,5-8.9
			c0-7.8-6.1-12-13.8-12h-16.2v44.8h15.6c8.8,0,15.9-3.9,15.9-13C-820.1,3.9-822.5,0.1-826.7-2.4"/>
	</g>
</g>
<g id="g513">
	<g id="g519" transform="translate(1242.7509,102.5484)">
		<path id="path521" class="st0" d="M-778.8,28.3v31.1L-803,28.3h-6.8v44.8h7.4V40.4l25.5,32.6h5.7V28.3H-778.8z"/>
	</g>
</g>
<g id="g525">
	<g id="g531" transform="translate(1056.5291,93.2268)">
		<path id="path533" class="st0" d="M-814.8-2l6.6-16.7l6.4,16.7H-814.8z M-804.5-27.8h-7.5L-830.2,17h7.9l4.7-12.3h18.3l4.9,12.3
			h8.1L-804.5-27.8z"/>
	</g>
</g>
<g id="g537">
	<g id="g543" transform="translate(1218.8624,93.2268)">
		<path id="path545" class="st0" d="M-820.4,63.2l6.6-16.7l6.4,16.7H-820.4z M-810.2,37.6h-7.5l-18.1,44.8h7.9l4.7-12.3h18.3
			l4.9,12.3h8.1L-810.2,37.6z"/>
	</g>
</g>
<g id="g549">
	<g id="g555" transform="translate(1164.6093,100.4336)">
		<path id="path557" class="st0" d="M-915.1,36.2c3.2,0,7,0.8,10,1.8v-7.5c-2.2-0.7-6-1.7-10-1.7c-13.7,0-24,9.1-24.3,22.2l0,0
			c0,0.1,0,0.3,0,0.4s0,0.3,0,0.3c0,0.1,0,0.3,0,0.3c0,0.1,0,0.3,0,0.4l0,0c0.3,13.2,10.5,22.2,24.3,22.2c4,0,7.8-0.8,10-1.7v-7.5
			c-3.1,1-6.7,1.8-10,1.8c-9.9,0-16.6-6.8-16.5-15.5c0-0.1,0-0.3,0-0.3c0-0.1,0-0.3,0-0.3C-931.7,43.1-925,36.2-915.1,36.2"/>
	</g>
</g>
<g id="g561">
	<g id="g567" transform="translate(1134.9301,99.8654)">
		<path id="path569" class="st0" d="M-678-27v-7.4h-28.2v44.8h7.7V-9h18.8v-7.4h-18.8V-27H-678z"/>
	</g>
</g>
<g id="g573">
	<g id="g579" transform="translate(1199.6188,102.5461)">
		<path id="path581" class="st0" d="M-854.1,28.3h-35.7v7.4h13.8v37.4h7.9V35.7h13.8L-854.1,28.3L-854.1,28.3z"/>
	</g>
</g>
<g id="g585">
	<g id="g591" transform="translate(1022.0269,101.0614)">
		<path id="path593" class="st0" d="M-912.7-22.9c0-7.9-6.4-14.4-14.4-14.4s-14.4,6.4-14.4,14.4S-935-8.5-927-8.5
			C-918.9-8.5-912.7-15-912.7-22.9"/>
	</g>
</g>
<g id="g597">
	<g id="g603" transform="translate(1022.0269,87.8022)">
		<path id="path605" class="st0" d="M-912.7,75.7c0-7.9-6.4-14.4-14.4-14.4s-14.4,6.4-14.4,14.4s6.4,14.4,14.4,14.4
			C-918.9,90-912.7,83.6-912.7,75.7"/>
	</g>
</g>
<g id="g609">
	<g id="g615" transform="translate(1011.3079,94.4106)">
		<path id="path617" class="st0" d="M-970.8,26.5c0-7.9-6.4-14.4-14.4-14.4s-14.4,6.4-14.4,14.4s6.4,14.4,14.4,14.4
			C-977.2,40.8-970.8,34.4-970.8,26.5"/>
	</g>
</g>
<g id="g621">
	<g id="g627" transform="translate(1032.9076,94.411)">
		<path id="path629" class="st0" d="M-853.4,26.5c0-7.9-6.4-14.4-14.4-14.4s-14.4,6.4-14.4,14.4s6.4,14.4,14.4,14.4
			C-859.8,40.8-853.4,34.4-853.4,26.5"/>
	</g>
</g>
<g id="g633">
	<g id="g639" transform="translate(1029.8667,98.3729)">
		<path id="path641" class="st0" d="M-870-2.9v-26.9l-64.4,39l-0.3,0.1l-64.8-39.2v26.9l42.5,25.5l-42.7,25.5V75l64.8-39.2L-870,75
			V48.1l-42.7-25.5L-870-2.9z"/>
	</g>
</g>
</svg>
