<?xml version="1.0"?>
<svg xmlns="http://www.w3.org/2000/svg" xmlns:xlink="http://www.w3.org/1999/xlink" xmlns:svgjs="http://svgjs.com/svgjs" version="1.1" width="512" height="512" x="0" y="0" viewBox="0 0 512 512" style="enable-background:new 0 0 512 512" xml:space="preserve" class=""><g>
<circle xmlns="http://www.w3.org/2000/svg" style="" cx="256" cy="256" r="256" fill="#f1f1f1" data-original="#ffe733" class=""/>
<path xmlns="http://www.w3.org/2000/svg" style="" d="M259.292,511.958C399.157,510.193,512,396.284,512,256c0-5.079-0.165-10.118-0.457-15.123  l-113.21-113.21l-7.649,15.684L370.333,123l-256.667,40.667l168.842,168.842l-140.842,61.824L259.292,511.958z" fill="#f1f1f1" data-original="#f2d813" class=""/>
<rect xmlns="http://www.w3.org/2000/svg" x="113.67" y="127.67" style="" width="284.67" height="36" fill="#b9783d" data-original="#b9783d"/>
<rect xmlns="http://www.w3.org/2000/svg" x="255.57" y="127.67" style="" width="142.76" height="36" fill="#aa6432" data-original="#aa6432"/>
<polygon xmlns="http://www.w3.org/2000/svg" style="" points="370.333,394.333 256,454.333 141.667,394.333 141.667,123 370.333,123 " fill="#87afb9" data-original="#87afb9" class=""/>
<polygon xmlns="http://www.w3.org/2000/svg" style="" points="256,454.333 370.333,394.333 370.333,123 255.571,123 " fill="#6c9baa" data-original="#6c9baa" class=""/>
<circle xmlns="http://www.w3.org/2000/svg" style="" cx="256" cy="270" r="86.85" fill="#ffffff" data-original="#ffffff" class=""/>
<path xmlns="http://www.w3.org/2000/svg" style="" d="M256,183.153c-0.143,0-0.285,0.005-0.429,0.005V356.84c0.143,0.001,0.285,0.005,0.429,0.005  c47.964,0,86.847-38.882,86.847-86.847S303.964,183.153,256,183.153z" fill="#f0f0f0" data-original="#f0f0f0" class=""/>
<polygon xmlns="http://www.w3.org/2000/svg" style="" points="256,234.224 222.464,258.589 235.274,298.012 276.726,298.012 289.536,258.589 " fill="#555a66" data-original="#555a66" class=""/>
<polygon xmlns="http://www.w3.org/2000/svg" style="" points="289.536,258.589 256,234.224 255.571,234.535 255.571,298.012 276.726,298.012 " fill="#414952" data-original="#414952" class=""/>
<path xmlns="http://www.w3.org/2000/svg" style="" d="M224.469,189.058L256,211.967l31.531-22.909c-9.775-3.811-20.408-5.905-31.531-5.905  S234.244,185.248,224.469,189.058z" fill="#555a66" data-original="#555a66" class=""/>
<g xmlns="http://www.w3.org/2000/svg">
	<path style="" d="M287.531,189.058c-9.775-3.811-20.408-5.905-31.531-5.905c-0.144,0-0.285,0.01-0.429,0.01v28.492   l0.429,0.311L287.531,189.058z" fill="#414952" data-original="#414952" class=""/>
	<path style="" d="M310.89,251.39l31.84,23.133c0.077-1.498,0.116-3.006,0.116-4.524   c0-21.074-7.508-40.392-19.992-55.432L310.89,251.39z" fill="#414952" data-original="#414952" class=""/>
	<path style="" d="M278.023,354.026c21.425-5.6,39.625-19.176,51.235-37.366h-39.094L278.023,354.026z" fill="#414952" data-original="#414952" class=""/>
</g>
<g xmlns="http://www.w3.org/2000/svg">
	<path style="" d="M189.145,214.568c-12.484,15.04-19.992,34.359-19.992,55.432c0,1.517,0.04,3.025,0.116,4.524   l31.84-23.133L189.145,214.568z" fill="#555a66" data-original="#555a66" class=""/>
	<path style="" d="M221.836,316.66h-39.094c11.61,18.191,29.81,31.766,51.235,37.366L221.836,316.66z" fill="#555a66" data-original="#555a66" class=""/>
</g>
<g xmlns="http://www.w3.org/2000/svg">
</g>
<g xmlns="http://www.w3.org/2000/svg">
</g>
<g xmlns="http://www.w3.org/2000/svg">
</g>
<g xmlns="http://www.w3.org/2000/svg">
</g>
<g xmlns="http://www.w3.org/2000/svg">
</g>
<g xmlns="http://www.w3.org/2000/svg">
</g>
<g xmlns="http://www.w3.org/2000/svg">
</g>
<g xmlns="http://www.w3.org/2000/svg">
</g>
<g xmlns="http://www.w3.org/2000/svg">
</g>
<g xmlns="http://www.w3.org/2000/svg">
</g>
<g xmlns="http://www.w3.org/2000/svg">
</g>
<g xmlns="http://www.w3.org/2000/svg">
</g>
<g xmlns="http://www.w3.org/2000/svg">
</g>
<g xmlns="http://www.w3.org/2000/svg">
</g>
<g xmlns="http://www.w3.org/2000/svg">
</g>
</g></svg>
