<?xml version="1.0"?>
<svg xmlns="http://www.w3.org/2000/svg" xmlns:xlink="http://www.w3.org/1999/xlink" xmlns:svgjs="http://svgjs.com/svgjs" version="1.1" width="512" height="512" x="0" y="0" viewBox="0 0 512 512" style="enable-background:new 0 0 512 512" xml:space="preserve" class=""><g><g xmlns="http://www.w3.org/2000/svg"><circle cx="256" cy="256" fill="#f1f1f1" r="256" data-original="#7ccbbf" style="" class=""/><path d="m512 256c0-2.705-.056-5.396-.14-8.081-42.882-42.881-81.222-81.214-81.222-81.214l-35.773-13.148-52.613-52.594-75.106 34.442-34.464-34.442-61.933 61.933s42.142 42.151 42.215 42.225c-7.08 2.716-13.841 6.08-20.209 10.022-.15-.149-48.459-48.438-48.459-48.438l-61.933 61.933 57.349 57.366 14.698 84.099s80.614 80.622 139.143 139.148c123.579-18.167 218.447-124.624 218.447-253.251z" fill="#f1f1f1" data-original="#5a9898" style="" class=""/><g><g><path d="m256 394.398c-47.99 0-120.527 0-120.527-76.699 0-66.459 54.068-120.527 120.527-120.527s120.527 54.068 120.527 120.527c0 76.699-72.536 76.699-120.527 76.699z" fill="#54747f" data-original="#54747f" style="" class=""/></g><path d="m376.527 317.699c0-66.459-54.068-120.527-120.527-120.527v197.227c47.991-.001 120.527-.001 120.527-76.7z" fill="#455e72" data-original="#455e72" style="" class=""/><g id="Veterinary_2_"><g><path d="m112.828 241c-24.172 0-43.828-19.656-43.828-43.828s19.656-43.828 43.828-43.828 43.828 19.656 43.828 43.828-19.656 43.828-43.828 43.828z" fill="#54747f" data-original="#54747f" style="" class=""/></g><g><path d="m201.215 175.258c-24.172 0-43.828-19.656-43.828-43.828s19.656-43.828 43.828-43.828 43.828 19.656 43.828 43.828-19.656 43.828-43.828 43.828z" fill="#54747f" data-original="#54747f" style="" class=""/></g><g><g><path d="m310.785 175.258c-24.172 0-43.828-19.656-43.828-43.828s19.656-43.828 43.828-43.828 43.828 19.656 43.828 43.828-19.656 43.828-43.828 43.828z" fill="#455e72" data-original="#455e72" style="" class=""/></g></g><g><g><path d="m399.172 241c-24.172 0-43.828-19.656-43.828-43.828s19.656-43.828 43.828-43.828 43.828 19.656 43.828 43.828-19.656 43.828-43.828 43.828z" fill="#455e72" data-original="#455e72" style="" class=""/></g></g><path d="m288.871 284.828h-21.914v-21.914h-21.914v21.914h-21.914v21.914h21.914v21.914h21.914v-21.914h21.914z" fill="#e27266" data-original="#e27266" style="" class=""/></g><g id="Veterinary_3_"><path d="m266.957 262.914h-10.957v65.742h10.957v-21.914h21.914v-21.914h-21.914z" fill="#c7475a" data-original="#c7475a" style=""/></g></g></g></g></svg>
