<?xml version="1.0" encoding="utf-8"?>
<svg version="1.1" id="Layer_1" xmlns="http://www.w3.org/2000/svg" xmlns:xlink="http://www.w3.org/1999/xlink" x="0px" y="0px"
	width="100px" height="100px" viewBox="0 0 66.7 66.7" style="enable-background:new 0 0 66.7 66.7;" xml:space="preserve">
<g>
	<circle style="fill:#E8E8E8;" cx="33.3" cy="33.3" r="33.3"/>
	<circle style="fill:#FFFFFF;" cx="33.3" cy="33.3" r="32.7"/>
	<path style="fill:#1CAFDA;" d="M57,36.6l-2.7-3.9l2.4-2.5H56l-3.5,3.7v-3.7H52v6.4h0.5v-2.1l1.4-1.5l2.3,3.5L57,36.6L57,36.6z
		 M44.5,33.3v-2.5H46h0.8c0.2,0,0.4,0.1,0.5,0.2c0.1,0.1,0.3,0.3,0.4,0.5c0.1,0.2,0.1,0.3,0.1,0.6c0,0.2,0,0.4-0.1,0.5
		s-0.1,0.3-0.3,0.4c-0.1,0.1-0.3,0.2-0.6,0.3s-0.5,0.1-0.9,0.1H44.5L44.5,33.3z M48.7,36.6l-2.1-2.9c0.6-0.1,1.1-0.3,1.4-0.5
		c0.3-0.3,0.5-0.7,0.5-1.2c0-0.4-0.1-0.7-0.3-1c-0.1-0.3-0.4-0.5-0.7-0.6c-0.2-0.1-0.5-0.1-0.7-0.2h-0.9h-2.1v6.4h0.7v-2.8h1.5
		l1.9,2.8L48.7,36.6L48.7,36.6L48.7,36.6z M37.2,34.2l0.7-1.7l0.4-1l0.2-0.7l0.2,0.7l0.4,1l0.7,1.8C39.7,34.2,37.2,34.2,37.2,34.2z
		 M41.3,36.6l-2.5-6.5h-0.6l-2.5,6.4h0.6l0.7-1.9h2.9l0.7,1.9L41.3,36.6z M33.1,36.6v-6.5h-0.8l-1.1,3.1l-0.5,1.6l-0.3,1l-0.4-1.1
		l-0.6-1.6l-1.1-3h-0.9v6.4h0.6v-3.3v-1.7v-0.8c0.1,0.3,0.2,0.6,0.3,1l0.6,1.7l1.3,3.3h0.5l1.1-2.8l0.7-1.8l0.5-1.3v0.9v1.7v3.4
		C32.8,36.7,33.1,36.6,33.1,36.6z M23.7,36.6v-6.4h-0.5v6.4H23.7z M15.8,33.3v-2.5h1.5h0.8c0.2,0,0.4,0.1,0.5,0.2
		c0.1,0.1,0.3,0.3,0.4,0.5c0.1,0.2,0.1,0.3,0.1,0.6c0,0.2,0,0.4-0.1,0.5s-0.1,0.3-0.3,0.4s-0.3,0.2-0.6,0.3
		c-0.3,0.1-0.5,0.1-0.9,0.1C17.4,33.3,15.8,33.3,15.8,33.3z M20,36.6l-2-2.9c0.6-0.1,1.1-0.3,1.3-0.5c0.3-0.3,0.5-0.7,0.5-1.2
		c0-0.4-0.1-0.7-0.3-1c-0.1-0.3-0.4-0.5-0.7-0.6c-0.2-0.1-0.5-0.1-0.7-0.2h-0.9h-2v6.4h0.5v-2.8h1.6l1.9,2.8L20,36.6L20,36.6
		L20,36.6z M8.2,33.2v-2.5h1.5h1c0.3,0,0.5,0.1,0.6,0.2c0.1,0.1,0.2,0.2,0.3,0.4c0.1,0.1,0.1,0.3,0.1,0.5c0,0.3-0.1,0.5-0.1,0.7
		c-0.1,0.2-0.3,0.3-0.5,0.4c-0.2,0.1-0.4,0.1-0.7,0.1s-0.5,0.1-0.9,0.1L8.2,33.2C8.2,33.2,8.2,33.2,8.2,33.2z M8.2,36.6v-2.8h1.4
		c0.4,0,0.7-0.1,1.1-0.1c0.3,0,0.5-0.1,0.7-0.2c0.3-0.1,0.6-0.4,0.8-0.7c0.1-0.3,0.3-0.6,0.3-1c0-0.3-0.1-0.7-0.2-0.9
		c-0.1-0.3-0.3-0.5-0.6-0.6c-0.1-0.1-0.3-0.1-0.6-0.1c-0.3-0.1-0.6-0.1-1.1-0.1H7.7v6.4L8.2,36.6C8.2,36.6,8.2,36.6,8.2,36.6z
		 M58.2,30.7v-0.2h0.1h0.1h0.1h0.1v0.1v0.1h-0.1h-0.1L58.2,30.7C58.2,30.7,58.2,30.7,58.2,30.7z M58.7,31.2l-0.3-0.3
		c0.1,0,0.1-0.1,0.1-0.1s0.1-0.1,0.1-0.1v-0.1c0-0.1-0.1-0.1-0.1-0.1h-0.1h-0.1h-0.3v0.7h0.1v-0.3h0.1l0.2,0.3
		C58.6,31.2,58.7,31.2,58.7,31.2z M59,30.8c0,0.2-0.1,0.3-0.2,0.5c-0.1,0.1-0.3,0.2-0.5,0.2s-0.3-0.1-0.5-0.2
		c-0.1-0.1-0.2-0.3-0.2-0.5s0.1-0.3,0.2-0.5c0.1-0.1,0.3-0.2,0.5-0.2s0.3,0.1,0.5,0.2S58.9,30.6,59,30.8L59,30.8L59,30.8z
		 M59.1,30.8c0-0.2-0.1-0.4-0.2-0.5c-0.1-0.1-0.3-0.2-0.5-0.2c-0.2,0-0.4,0.1-0.5,0.2c-0.1,0.1-0.2,0.3-0.2,0.5
		c0,0.2,0.1,0.4,0.2,0.5s0.3,0.2,0.5,0.2c0.2,0,0.4-0.1,0.5-0.2C59,31.1,59.1,31,59.1,30.8L59.1,30.8z"/>
</g>
</svg>
