<svg xmlns="http://www.w3.org/2000/svg" xmlns:xlink="http://www.w3.org/1999/xlink" viewBox="0 0 1250.1 504.6"><path d="M0 0h1250.1v504.6H0z" fill="#ffec00"/><g fill="#0067b2"><path d="M952.2 196.6c-3.1 9.3-9.1 16-18.2 19.8-6.3 2.6-12.7 3.8-19.5 2.9-10.2-1.3-17-7.1-20.1-16.7-1.9-5.9-2.6-11.7-2.2-17.4l61.9-9.2c.7 7 .4 13.9-1.9 20.6m10.9-24.2c-3.3-12.6-10.3-21.9-22.5-26.8-9.7-3.9-19.7-4.4-29.9-2.6-12.9 2.2-23.8 8.3-31.9 18.6-12.5 15.9-16.5 34.3-12.9 54 2.8 15.8 12.3 26.2 28 30.5 10.4 2.8 20.8 2.3 31.1-.4 15.1-4 25.8-13.2 32.6-27.1 4.9-10.2 9.4-31.1 5.5-46.2"/><use xlink:href="#B"/><path d="M268.4 176v-.2c-5.1-5.5-11.3-8.6-18.7-8.6-15.3 0-24.5 20.8-24.5 37.5 0 11.1 5.1 18.3 13 18.3 12.4-.1 26.7-16.7 30.2-47m38.4-37.5l-13.9 113.1H258l2.3-18.5h-.5c-7.9 12.3-19.2 20.6-32.6 20.6-24.5 0-37-20.1-37-46.2 0-40.2 23.8-71.2 53.4-71.2 12 0 21 3.9 27.1 10.4h.2l.9-8.1h35v-.1z"/><use xlink:href="#C"/><path d="M458.1 176v-.5c-5.1-5.8-11.3-8.3-19-8.3-15.5 0-24.5 20.8-24.5 37.5 0 11.1 5.1 18.3 12.9 18.3 12.6-.1 26.9-16.7 30.6-47m45.3-94.6l-20.8 170.2h-34.9l2.3-18.5h-.5c-7.9 12.3-19.2 20.6-33.1 20.6-24.3 0-36.8-20.1-36.8-46.2 0-40.2 23.8-71.2 53.2-71.2 11.6 0 21 3.9 27.3 10.6h.5l8.1-65.4h34.7v-.1zm58.9 27.7c-6.2 0-9.5 3-11.3 17.8l-1.4 11.6h18l-3.5 28h-18.3l-10.2 85.1h-34.9l10.4-85.1h-9.5l3.5-28h9.5l2.3-19c3.2-26.6 16.4-40.5 38.8-40.5 9.9 0 19.4 3 26.8 8.8l-8.6 25.4c-3.8-2.4-7.7-4.1-11.6-4.1m79.4 66.9v-.2c-5.1-5.5-11.3-8.6-18.7-8.6-15.3 0-24.5 20.8-24.5 37.5 0 11.1 5.1 18.3 13 18.3 12.4-.1 26.7-16.7 30.2-47m38.3-37.5l-13.9 113.1h-34.9l2.3-18.5h-.5c-7.9 12.3-19.2 20.6-32.6 20.6-24.5 0-37-20.1-37-46.2 0-40.2 23.8-71.2 53.4-71.2 12 0 21 3.9 27.1 10.4h.2l.9-8.1h35v-.1z"/><use xlink:href="#B" x="589.3"/><path d="M856.4 245.6c-9.9 5.5-19.9 8.1-30.5 8.1-17.3 0-30.1-9.9-26.8-36.1l6-51.1h-11.3l3.5-28h11.3l4.2-33.1 35.6-6.9-4.9 40h23.4l-3.5 28H840l-5.5 46.5c-.9 6.5 1.2 9.5 5.1 9.5 3 0 6.7-1.4 11.3-3.7l5.5 26.8z"/><use xlink:href="#C" x="661.9"/><path d="M1154.3 138.5l-12.3 97.8c-6 51.1-35.1 63.1-63.8 63.1-13.6 0-27.7-3-40.9-10.9l10.9-26.4c9.2 6.5 19 8.8 28.2 8.8 15.7 0 26.8-5.5 31.4-36.1h-.5c-8.3 11.6-19.7 18.7-34 18.7-21.3 0-33.1-11.6-28.9-44.9l8.6-70.3h34.5l-7.4 59.9c-2.1 18.3-.7 24.3 7.4 24.3 10.2 0 23.8-16.6 25.7-32.6h.2l6.2-51.6h34.7v.2zm-1045.2 250h0c-1.5-1.7-3.5-2.6-5.6-2.6-4.6 0-7.3 6.2-7.3 11.2 0 3.3 1.5 5.5 3.9 5.5 3.6 0 7.9-5 9-14.1m11.5-11.2l-5.9 47.6h-10.4l2.4-19.4h-.1c-2.4 3.7-5.8 6.3-9.9 6.3-7.3 0-11-6-11-13.8 0-12 7.1-21.3 15.9-21.3 3.7 0 6.4 1.2 8.2 3.3h.1l.3-2.6h10.4v-.1zm35.4 0l-4.2 33.9h-10.4l.6-5h0c-2.4 3.5-5.8 5.6-10 5.6-6.3 0-9.8-3.5-8.7-13.4l2.6-21h10.3l-2.2 17.9c-.6 5.5-.2 7.3 2.2 7.3 2.8 0 6.7-4.6 7.6-9.3l1.9-15.9H156v-.1zm25.1 11.2h0c-1.5-1.7-3.4-2.6-5.6-2.6-4.6 0-7.3 6.2-7.3 11.2 0 3.3 1.5 5.5 3.9 5.5 3.6 0 7.9-5 9-14.1m11.5-11.2l-4.2 33.9H178l.7-5.5h-.1c-2.4 3.7-5.7 6.2-9.8 6.2-7.3 0-11.1-6-11.1-13.8 0-12 7.1-21.3 16-21.3 3.6 0 6.3 1.2 8.1 3.1h.1l.3-2.4h10.4v-.2zm18.7-17.1l-6.3 50.9h-10.4l6.2-50.9z"/><use xlink:href="#D"/><use xlink:href="#E"/><path d="M284.8 377.3l-3.7 29.3c-1.8 15.3-10.5 18.9-19.1 18.9-4.1 0-8.3-.9-12.3-3.3l3.3-7.9c2.8 1.9 5.7 2.6 8.4 2.6 4.7 0 8-1.7 9.4-10.8h-.1c-2.5 3.5-5.9 5.6-10.2 5.6-6.4 0-9.9-3.5-8.7-13.4l2.6-21h10.3l-2.2 17.9c-.6 5.5-.2 7.3 2.2 7.3 3 0 7.1-5 7.7-9.8h.1l1.9-15.4h10.4 0zm35.9 11.2h0c-1.5-1.7-3.4-2.6-5.6-2.6-4.6 0-7.3 6.2-7.3 11.2 0 3.3 1.5 5.5 3.9 5.5 3.7 0 8-5 9-14.1m11.5-11.2l-4.2 33.9h-10.5l.7-5.5h-.1c-2.4 3.7-5.7 6.2-9.8 6.2-7.3 0-11.1-6-11.1-13.8 0-12 7.1-21.3 16-21.3 3.6 0 6.3 1.2 8.1 3.1h.1l.3-2.4h10.5v-.2zm34.8 13.1l-2.7 20.7h-10.4l2.5-18.3c.6-4.7.3-6.9-2-6.9-3.2 0-7.6 4.4-8.7 13.1l-1.5 12.1h-10.4l4.2-33.9h10.4l-.6 4.9h.2c3-3.6 6.7-5.5 11.3-5.5 6.3.1 9 4.4 7.7 13.8m26.6-1.9v-.1c-1.5-1.7-3.4-2.5-5.7-2.5-4.6 0-7.3 6.2-7.3 11.2 0 3.3 1.5 5.5 3.9 5.5 3.7 0 8-5 9.1-14.1m13.5-28.3l-6.2 51h-10.5l.7-5.5h-.1c-2.4 3.7-5.7 6.2-9.9 6.2-7.3 0-11-6-11-13.8 0-12 7.1-21.3 15.9-21.3 3.5 0 6.3 1.2 8.2 3.2h.1l2.4-19.6h10.4v-.2zm10.8 36.8l2.4-19.7h10.3l-2.1 17.6c-.6 4.8-.4 7.6 1.8 7.6 2.6 0 7.3-3.4 8.4-15.7.2-3 .1-5.8-.4-9.5h10.4c.6 3 .7 6.4.6 9.6-1.1 18.7-10.7 24.9-20.7 24.9-8.9 0-11.8-6.1-10.7-14.8m55.9-8.5h0c-1.5-1.7-3.4-2.6-5.6-2.6-4.6 0-7.3 6.2-7.3 11.2 0 3.3 1.5 5.5 3.9 5.5 3.6 0 7.9-5 9-14.1m11.4-11.2l-4.2 33.9h-10.5l.7-5.5h-.1c-2.4 3.7-5.7 6.2-9.8 6.2-7.3 0-11.1-6-11.1-13.8 0-12 7.1-21.3 16-21.3 3.6 0 6.3 1.2 8.1 3.1h.1l.3-2.4h10.5v-.2zm18.7-17.1l-6.3 50.9h-10.3l6.2-50.9zm33.6 17.1l-4.2 33.9H523l.6-5h-.1c-2.4 3.5-5.8 5.6-10 5.6-6.3 0-9.8-3.5-8.7-13.4l2.6-21h10.3l-2.2 17.9c-.6 5.5-.2 7.3 2.2 7.3 2.8 0 6.7-4.6 7.5-9.3l1.9-15.9h10.4v-.1zm12.2 15.3l.4.3c5-.9 9.3-2.6 9.3-5.6 0-1.1-.8-1.9-2.4-1.9-3-.1-6 2.5-7.3 7.2m10.7 7.2l7.7 4.5c-3.5 5-8.1 7.5-14.7 7.5-8.8 0-14.2-5.3-14.2-14.5 0-10.9 7-20.7 18.6-20.7 5.6 0 11.5 3 11.5 9.7 0 7.7-9.2 11.6-19.2 13.2l-.4.6c.8 2.2 2.8 3.1 4.5 3.1 2.2 0 4.3-.9 6.2-3.4m40-31.3c-1.9 0-2.8.9-3.4 5.3l-.4 3.5h5.4l-1 8.4h-5.5l-3 25.5H582l3.1-25.5h-2.8l1-8.4h2.8l.7-5.7c1-8 4.9-12.1 11.6-12.1 3 0 5.8.9 8 2.6l-2.6 7.6c-1.1-.7-2.2-1.2-3.4-1.2m11.1 28.2c0 4.2 2.3 5.8 4.6 5.8 4.6 0 7.6-5.1 7.6-10.7 0-5.1-3-5.9-4.8-5.9-4.7 0-7.4 5.5-7.4 10.8m22.7-5.6c0 11-5.9 20.6-18.8 20.6-8.6 0-14.3-5.3-14.3-14.5 0-10.9 6.8-20.6 18.7-20.6 8.6.1 14.4 5.3 14.4 14.5m25.8-14.4l-1.5 11.5c-5.2-1.8-9.4 2.2-10.5 10.6l-1.5 12.4h-10.4l4.1-33.9h10.4l-.6 4.7h.1c2.8-3.5 6.2-5.3 9.9-5.3m33.4 11.8h0c-1.5-1.7-3.4-2.6-5.6-2.6-4.6 0-7.3 6.2-7.3 11.2 0 3.3 1.5 5.5 3.9 5.5 3.6 0 7.9-5 9-14.1m11.5-11.2l-4.2 33.9h-10.5l.7-5.5h-.1c-2.4 3.7-5.7 6.2-9.8 6.2-7.3 0-11.1-6-11.1-13.8 0-12 7.1-21.3 16-21.3 3.6 0 6.3 1.2 8.1 3.1h.1l.3-2.4h10.5v-.2zm18.7-17.1l-6.3 50.9h-10.4l6.2-50.9zm16.9 0l-6.3 50.9h-10.4l6.2-50.9zm27.7 0l-6.3 50.9h-10.4l6.3-50.9z"/><use xlink:href="#D" x="556.9"/><path d="M804.1 368.5c-1.9 0-2.8.9-3.4 5.3l-.4 3.5h5.4l-1 8.4h-5.5l-3 25.5h-10.5l3.1-25.5H786l1-8.4h2.8l.7-5.7c1-8 4.9-12.1 11.6-12.1 3 0 5.8.9 8 2.6l-2.6 7.6c-1.1-.7-2.2-1.2-3.4-1.2m11.1 24.1l.4.3c5-.9 9.3-2.6 9.3-5.6 0-1.1-.8-1.9-2.3-1.9-3.1-.1-6.2 2.5-7.4 7.2m10.7 7.2l7.7 4.5c-3.5 5-8.1 7.5-14.7 7.5-8.8 0-14.2-5.3-14.2-14.5 0-10.9 7-20.7 18.6-20.7 5.6 0 11.5 3 11.5 9.7 0 7.7-9.2 11.6-19.2 13.2l-.4.6c.8 2.2 2.8 3.1 4.5 3.1 2.2 0 4.3-.9 6.2-3.4m24.9-37.8l-6.6 18.5h-7.8l4.1-18.5zm9.2 41.9c1.8 0 3-.7 3-1.9s-1.3-1.8-5.2-3.8c-5.2-2.6-8.3-5.4-8.3-10.3 0-6.8 5.6-11.4 12.5-11.4 4.6 0 9.2 1.8 12.2 5.5l-6.2 6c-1.9-2.6-4.2-3.4-5.8-3.4-1.4-.1-2.7.7-2.7 2 0 1.2 1.7 2.2 4.8 3.7 5.3 2.6 8.8 5.1 8.8 10.4.1 6.7-5.1 11-13.4 11-4.9 0-10.3-2.1-13.2-5.8l5.8-6c2 2.5 5.1 4 7.7 4m78.4-13l-2.7 20.3h-10.3l2.4-18.3c.6-4.7.3-6.9-1.9-6.9-2.4 0-6.7 4.4-7.8 12.9h-.1l-1.6 12.3h-10.3l2.4-18.3c.6-4.7.4-6.9-1.9-6.9-2.4 0-6.9 4.4-7.9 13.1l-1.5 12.1h-10.4l4.2-33.9h10.4l-.6 4.6h.2c2.8-3.4 6.2-5.2 10.5-5.2 3.9 0 6.4 1.6 7.4 5.3h.2c2.8-3.5 6.6-5.3 11.4-5.3 6.7 0 9.2 4.4 7.9 14.2m13.8 5.8c0 4.2 2.3 5.8 4.6 5.8 4.6 0 7.6-5.1 7.6-10.7 0-5.1-3-5.9-4.8-5.9-4.7 0-7.4 5.5-7.4 10.8m22.6-5.6c0 11-5.9 20.6-18.8 20.6-8.6 0-14.3-5.3-14.3-14.5 0-10.9 6.8-20.6 18.7-20.6 8.7.1 14.4 5.3 14.4 14.5m53.6-.2l-2.7 20.3h-10.3l2.4-18.3c.6-4.7.3-6.9-1.9-6.9-2.4 0-6.7 4.4-7.8 12.9h-.1l-1.6 12.3h-10.3l2.4-18.3c.6-4.7.4-6.9-1.9-6.9-2.4 0-6.9 4.4-7.9 13.1l-1.5 12.1h-10.4l4.2-33.9h10.4l-.6 4.6h.2c2.8-3.4 6.2-5.2 10.5-5.2 3.9 0 6.4 1.6 7.4 5.3h.2c2.8-3.5 6.6-5.3 11.4-5.3 6.8 0 9.2 4.4 7.9 14.2m13.7 1.7l.4.3c5-.9 9.3-2.6 9.3-5.6 0-1.1-.8-1.9-2.4-1.9-3-.1-6 2.5-7.3 7.2m10.8 7.2l7.7 4.5c-3.5 5-8.1 7.5-14.7 7.5-8.8 0-14.2-5.3-14.2-14.5 0-10.9 7-20.7 18.6-20.7 5.6 0 11.5 3 11.5 9.7 0 7.7-9.2 11.6-19.2 13.2l-.4.6c.8 2.2 2.8 3.1 4.5 3.1 2.2 0 4.2-.9 6.2-3.4m43-9.4l-2.7 20.7h-10.4l2.5-18.3c.6-4.7.3-6.9-2-6.9-3.2 0-7.6 4.4-8.7 13.1l-1.5 12.1h-10.4l4.2-33.9h10.4l-.6 4.9h.2c3-3.6 6.7-5.5 11.3-5.5 6.4.1 9.1 4.4 7.7 13.8"/><use xlink:href="#E" x="871"/><path d="M1134.8 403.9c1.8 0 3-.7 3-1.9s-1.3-1.8-5.2-3.8c-5.2-2.6-8.3-5.4-8.3-10.3 0-6.8 5.6-11.4 12.5-11.4 4.6 0 9.2 1.8 12.2 5.5l-6.2 6c-1.9-2.6-4.2-3.4-5.8-3.4-1.4-.1-2.7.7-2.7 2 0 1.2 1.7 2.2 4.8 3.7 5.3 2.6 8.8 5.1 8.8 10.4.1 6.7-5.1 11-13.4 11-4.9 0-10.3-2.1-13.2-5.8l5.8-6c1.9 2.5 5 4 7.7 4"/></g><defs ><path id="B" d="M90.8 204.4c0-36.1 23.8-68.2 62.4-68.2 18 0 32.8 6.9 40.9 19.7l-26.6 19.7c-4.4-6.7-10.6-8.3-16.4-8.3-14.6.2-25.2 16.9-25.2 35.8 0 15.7 8.6 19.7 15.3 19.7s12.9-2.8 19.7-10.9l26.8 16.9c-11.6 16.4-27.3 25-49 25-29.4-.1-47.9-17.2-47.9-49.4"/><path id="C" d="M382.4 136.4l-4.9 38.4c-17.3-6-31.4 7.4-34.9 35.4l-5.1 41.4h-34.7l13.9-113.1h34.7l-1.8 15.7h.5c8.7-11.5 19.8-17.8 32.3-17.8"/><path id="D" d="M228.4 366.8c0 3.5-2.6 6.2-6.4 6.2-3.7 0-6.2-2.6-6.2-6 0-3.5 2.6-6.2 6.4-6.2 3.7.1 6.2 2.6 6.2 6m-2.5 10.5l-4.2 33.9h-10.4l4.2-33.9h10.4z"/><path id="E" d="M247 409.3c-3 1.7-6 2.4-9.1 2.4-5.2 0-9-3-8-10.8l1.8-15.3h-3.4l1-8.4h3.4l1.2-9.9 10.7-2.1-1.5 12h7l-1 8.4h-7l-1.7 13.9c-.3 1.9.3 2.8 1.5 2.8.9 0 2-.4 3.4-1.1l1.7 8.1z"/></defs></svg>