<?xml version="1.0" encoding="utf-8"?>
<svg version="1.1" id="Layer_1" xmlns="http://www.w3.org/2000/svg" xmlns:xlink="http://www.w3.org/1999/xlink" x="0px" y="0px"
	width="100px" height="100px" viewBox="0 0 66.8 58.8" style="enable-background:new 0 0 66.8 58.8;" xml:space="preserve">
<g>
	<path style="fill:#0D78BF;" d="M20.9,32.5c0,0-2.8-8.4,6.3-14.3s30.5,1,20.7,22.5c0,0-3.9,11.4-20.2,11.4c-0.7,0-0.7,1-0.1,1.1
		c3.9,1,10.9,1.7,19.4-2.7c12.9-6.6,19.7-32.3-1-45.9S-4.4,9.6,0.5,36.7c0,0-3.1-28.4,24.9-35.1c0,0,13.3-3.5,24.6,8.4
		c5.1,5.3,6.7,10.7,7.1,15c0.1,1.9-2.5,2.7-3.2,0.9c-1.9-4.3-6.1-9.4-13.7-11.5c-5.7-1.8-12.1-0.3-16.3,3.9
		C20.7,21.6,18.8,25.5,20.9,32.5z"/>
	<path style="fill:#C01E2B;" d="M44.8,23.2c0,0,5.3,7.1-1.4,15.6s-29.3,8.6-26.7-14.7c0,0,0.3-12.1,15.6-17.1
		c0.6-0.1,0.4-1.1-0.1-1.1c-4.1,0.3-10.9,1.9-17.5,8.5C4.4,24.8,6.1,51.2,30.1,57.8s45.8-20.9,32.7-44.9c0,0,11.9,26-12.7,41.1
		c0,0-11.5,7.6-26-0.3c-6.5-3.5-9.8-8-11.5-11.9C12,40,14.2,38.6,15.5,40c3.4,3.5,8.7,7,16.7,6.6c6.1-0.3,11.5-3.7,14.1-9
		C48.3,33.6,48.9,29.2,44.8,23.2z"/>
</g>
</svg>
