<?xml version="1.0" encoding="utf-8"?>
<svg version="1.1" id="Layer_1" xmlns="http://www.w3.org/2000/svg" xmlns:xlink="http://www.w3.org/1999/xlink" x="0px" y="0px"
	width="100px" height="100px" viewBox="0 0 100 100" style="enable-background:new 0 0 100 100;" xml:space="preserve">
<g>
	<g>
		<path style="fill:#E8E8E8;" d="M50,0c27.61,0,50,22.39,50,50s-22.39,50-50,50S0,77.61,0,50S22.39,0,50,0"/>
		<path style="fill:#FFFFFF;" d="M50,1c27.06,0,49,21.94,49,49S77.06,99,50,99S1,77.06,1,50S22.94,1,50,1"/>
	</g>
	<g>
		<g>
			<path style="fill:#EC0677;" d="M17.31,36.06c0-1.43-1.18-2.61-2.61-2.61s-2.61,1.18-2.61,2.61v27.89c0,1.43,1.18,2.61,2.61,2.61
				s2.61-1.18,2.61-2.61V52.91c0-2.7,2.19-4.89,4.89-4.89s4.89,2.19,4.89,4.89v11.04c0,1.43,1.18,2.61,2.61,2.61
				s2.61-1.18,2.61-2.61V52.91c0-5.6-4.55-10.15-10.15-10.15c-1.77,0-3.45,0.46-4.89,1.26v-7.96H17.31z"/>
			<path style="fill:#EC0677;" d="M53.24,52.44c0-2.44,1.98-4.42,4.42-4.42c2.44,0,4.42,1.98,4.42,4.42v11.5
				c0,1.43,1.18,2.61,2.61,2.61c1.43,0,2.61-1.18,2.61-2.61v-11.5c0-5.31-4.34-9.65-9.65-9.65c-2.78,0-5.27,1.18-7.03,3.03
				c-1.77-1.9-4.25-3.03-7.03-3.03c-5.31,0-9.65,4.34-9.65,9.65v11.5c0,1.43,1.18,2.61,2.61,2.61c1.43,0,2.61-1.18,2.61-2.61v-11.5
				c0-2.44,1.98-4.42,4.42-4.42c2.44,0,4.42,1.98,4.42,4.42v11.5c0,1.43,1.18,2.61,2.61,2.61c1.43,0,2.61-1.18,2.61-2.61
				L53.24,52.44L53.24,52.44z"/>
			<path style="fill:#EC0677;" d="M86.35,43.01c-1.31-0.59-2.86,0.04-3.45,1.35c0,0-3.2,8.64-5.56,14.11
				c-2.36-5.43-5.56-14.11-5.56-14.11c-0.59-1.35-2.11-1.94-3.45-1.39c-1.35,0.59-1.94,2.11-1.39,3.45l7.96,18.53
				c0.42,0.97,1.35,1.6,2.4,1.6s1.98-0.63,2.4-1.6l7.96-18.53C88.29,45.11,87.7,43.6,86.35,43.01"/>
		</g>
	</g>
</g>
</svg>
