<?xml version="1.0" encoding="utf-8"?>
<svg version="1.1" id="Layer_1" xmlns="http://www.w3.org/2000/svg" xmlns:xlink="http://www.w3.org/1999/xlink" x="0px" y="0px"
	width="100px" height="100px" viewBox="0 0 72.2 72.2" style="enable-background:new 0 0 72.2 72.2;" xml:space="preserve">
<g>
	<path style="fill:#E8E8E8;" d="M36.1,0C56,0,72.2,16.2,72.2,36.1S56,72.2,36.1,72.2S0,56,0,36.1S16.2,0,36.1,0"/>
	<path style="fill:#FFFFFF;" d="M36.1,0.7c19.6,0,35.4,15.8,35.4,35.4S55.6,71.4,36.1,71.4S0.7,55.6,0.7,36.1S16.5,0.7,36.1,0.7"/>
</g>
<g id="Group-14" transform="translate(220.000000, 100.000000)">
	<polygon id="Fill-1" style="fill-rule:evenodd;clip-rule:evenodd;fill:#0E2A47;" points="-190.9,-60.8 -189.4,-60.8 -189.4,-69.3 
		-190.9,-69.3 	"/>
	<g id="Group-13" transform="translate(0.000000, 0.277246)">
		<path id="Fill-2" style="fill-rule:evenodd;clip-rule:evenodd;fill:#0E2A47;" d="M-187-63.9c0,0.9,0.6,1.6,1.5,1.6
			c0.9,0,1.5-0.7,1.5-1.6c0-0.9-0.6-1.6-1.5-1.6C-186.5-65.5-187-64.8-187-63.9L-187-63.9z M-182.6-61h-1.5v-0.6
			c-0.4,0.5-0.9,0.8-1.7,0.8c-1.6,0-2.8-1.3-2.8-3c0-1.7,1.2-3,2.8-3c0.8,0,1.3,0.3,1.7,0.8v-0.6h1.5V-61z"/>
		<g id="Clip-5">
		</g>
		<defs>
			<filter id="Adobe_OpacityMaskFilter" filterUnits="userSpaceOnUse" x="-176.9" y="-69.6" width="2" height="8.6">
				<feColorMatrix  type="matrix" values="1 0 0 0 0  0 1 0 0 0  0 0 1 0 0  0 0 0 1 0"/>
			</filter>
		</defs>
		<mask maskUnits="userSpaceOnUse" x="-176.9" y="-69.6" width="2" height="8.6" id="mask-2_8_">
			<g style="filter:url(#Adobe_OpacityMaskFilter);">
				<polygon id="path-1_8_" style="fill-rule:evenodd;clip-rule:evenodd;fill:#FFFFFF;" points="-210.7,-60.1 -157,-60.1 
					-157,-70.5 -210.7,-70.5 				"/>
			</g>
		</mask>
		<path id="Fill-4" style="mask:url(#mask-2_8_);fill-rule:evenodd;clip-rule:evenodd;fill:#0E2A47;" d="M-176.7-61h1.5v-5.7h-1.5
			V-61z M-174.9-68.6c0,0.6-0.4,1-1,1c-0.6,0-1-0.4-1-1c0-0.6,0.4-1,1-1C-175.4-69.6-174.9-69.2-174.9-68.6L-174.9-68.6z"/>
		<defs>
			<filter id="Adobe_OpacityMaskFilter_1_" filterUnits="userSpaceOnUse" x="-196.1" y="-69.7" width="4.4" height="8.7">
				<feColorMatrix  type="matrix" values="1 0 0 0 0  0 1 0 0 0  0 0 1 0 0  0 0 0 1 0"/>
			</filter>
		</defs>
		<mask maskUnits="userSpaceOnUse" x="-196.1" y="-69.7" width="4.4" height="8.7" id="mask-2_7_">
			<g style="filter:url(#Adobe_OpacityMaskFilter_1_);">
				<polygon id="path-1_7_" style="fill-rule:evenodd;clip-rule:evenodd;fill:#FFFFFF;" points="-210.7,-60.1 -157,-60.1 
					-157,-70.5 -210.7,-70.5 				"/>
			</g>
		</mask>
		<path id="Fill-6" style="mask:url(#mask-2_7_);fill-rule:evenodd;clip-rule:evenodd;fill:#0E2A47;" d="M-191.7-68.1
			c-0.2-0.1-0.6-0.2-1.1-0.2c-0.4,0.1-0.7,0.3-0.7,0.8v0.7h1.8v1.4h-1.8v4.4h-1.5v-4.4h-1.1v-1.4h1.1v-0.7c0-1.3,0.7-2.2,2-2.2
			c0.5,0,0.9,0.1,1.3,0.2L-191.7-68.1z"/>
		<defs>
			<filter id="Adobe_OpacityMaskFilter_2_" filterUnits="userSpaceOnUse" x="-181.8" y="-68.5" width="4.4" height="7.6">
				<feColorMatrix  type="matrix" values="1 0 0 0 0  0 1 0 0 0  0 0 1 0 0  0 0 0 1 0"/>
			</filter>
		</defs>
		<mask maskUnits="userSpaceOnUse" x="-181.8" y="-68.5" width="4.4" height="7.6" id="mask-2_6_">
			<g style="filter:url(#Adobe_OpacityMaskFilter_2_);">
				<polygon id="path-1_6_" style="fill-rule:evenodd;clip-rule:evenodd;fill:#FFFFFF;" points="-210.7,-60.1 -157,-60.1 
					-157,-70.5 -210.7,-70.5 				"/>
			</g>
		</mask>
		<path id="Fill-7" style="mask:url(#mask-2_6_);fill-rule:evenodd;clip-rule:evenodd;fill:#0E2A47;" d="M-178.7-62.3
			c-0.5,0-0.9-0.3-0.9-1v-2.1h2.1v-1.4h-2.1v-1.7h-1.5v1.7h-0.8v1.4h0.8v2.2c0,1.5,0.7,2.3,2.1,2.3c0.6,0,1.1-0.1,1.5-0.3l-0.6-1.2
			C-178.3-62.4-178.5-62.3-178.7-62.3"/>
		<defs>
			<filter id="Adobe_OpacityMaskFilter_3_" filterUnits="userSpaceOnUse" x="-169.3" y="-66.9" width="6.2" height="6">
				<feColorMatrix  type="matrix" values="1 0 0 0 0  0 1 0 0 0  0 0 1 0 0  0 0 0 1 0"/>
			</filter>
		</defs>
		<mask maskUnits="userSpaceOnUse" x="-169.3" y="-66.9" width="6.2" height="6" id="mask-2_5_">
			<g style="filter:url(#Adobe_OpacityMaskFilter_3_);">
				<polygon id="path-1_5_" style="fill-rule:evenodd;clip-rule:evenodd;fill:#FFFFFF;" points="-210.7,-60.1 -157,-60.1 
					-157,-70.5 -210.7,-70.5 				"/>
			</g>
		</mask>
		<path id="Fill-8" style="mask:url(#mask-2_5_);fill-rule:evenodd;clip-rule:evenodd;fill:#0E2A47;" d="M-167.8-63.9
			c0,0.9,0.6,1.6,1.5,1.6c0.9,0,1.5-0.6,1.5-1.6c0-0.9-0.7-1.6-1.5-1.6C-167.1-65.5-167.8-64.8-167.8-63.9 M-163.2-63.9
			c0,1.7-1.3,3-3.1,3c-1.8,0-3.1-1.3-3.1-3c0-1.7,1.3-3,3.1-3C-164.5-66.9-163.2-65.6-163.2-63.9"/>
		<defs>
			<filter id="Adobe_OpacityMaskFilter_4_" filterUnits="userSpaceOnUse" x="-162.4" y="-66.9" width="5.4" height="5.9">
				<feColorMatrix  type="matrix" values="1 0 0 0 0  0 1 0 0 0  0 0 1 0 0  0 0 0 1 0"/>
			</filter>
		</defs>
		<mask maskUnits="userSpaceOnUse" x="-162.4" y="-66.9" width="5.4" height="5.9" id="mask-2_4_">
			<g style="filter:url(#Adobe_OpacityMaskFilter_4_);">
				<polygon id="path-1_4_" style="fill-rule:evenodd;clip-rule:evenodd;fill:#FFFFFF;" points="-210.7,-60.1 -157,-60.1 
					-157,-70.5 -210.7,-70.5 				"/>
			</g>
		</mask>
		<path id="Fill-9" style="mask:url(#mask-2_4_);fill-rule:evenodd;clip-rule:evenodd;fill:#0E2A47;" d="M-157-64.7v3.6h-1.5v-3.1
			c0-0.8-0.4-1.3-1.1-1.3c-0.7,0-1.2,0.4-1.2,1.3v3.1h-1.5v-5.7h1.5v0.7c0.4-0.6,1-0.8,1.7-0.8C-157.9-66.9-157-66-157-64.7"/>
		<defs>
			<filter id="Adobe_OpacityMaskFilter_5_" filterUnits="userSpaceOnUse" x="-174.3" y="-66.9" width="5" height="6">
				<feColorMatrix  type="matrix" values="1 0 0 0 0  0 1 0 0 0  0 0 1 0 0  0 0 0 1 0"/>
			</filter>
		</defs>
		<mask maskUnits="userSpaceOnUse" x="-174.3" y="-66.9" width="5" height="6" id="mask-2_3_">
			<g style="filter:url(#Adobe_OpacityMaskFilter_5_);">
				<polygon id="path-1_3_" style="fill-rule:evenodd;clip-rule:evenodd;fill:#FFFFFF;" points="-210.7,-60.1 -157,-60.1 
					-157,-70.5 -210.7,-70.5 				"/>
			</g>
		</mask>
		<path id="Fill-10" style="mask:url(#mask-2_3_);fill-rule:evenodd;clip-rule:evenodd;fill:#0E2A47;" d="M-170.1-62.9L-170.1-62.9
			c-0.3,0.3-0.7,0.5-1.1,0.6c0,0-0.1,0-0.1,0c-0.1,0-0.2,0-0.2,0c-0.4-0.1-0.8-0.3-1-0.8c-0.1-0.2-0.2-0.5-0.2-0.8
			c0-0.3,0.1-0.6,0.2-0.8c0.2-0.4,0.6-0.7,1-0.8c0.1,0,0.2,0,0.2,0c0,0,0.1,0,0.1,0c0.5,0,0.8,0.2,1.1,0.6l0.8-1.3
			c-0.3-0.3-0.7-0.5-1.1-0.6c-0.3-0.1-0.5-0.1-0.8-0.1c-0.4,0-0.7,0.1-1,0.2c-0.4,0.1-0.8,0.3-1.1,0.6c-0.6,0.5-0.9,1.3-0.9,2.2
			c0,0.9,0.3,1.7,0.9,2.2c0.3,0.3,0.7,0.5,1.1,0.6c0.3,0.1,0.7,0.2,1,0.2c0.3,0,0.6,0,0.8-0.1c0.4-0.1,0.8-0.3,1.1-0.6L-170.1-62.9z
			"/>
		<defs>
			<filter id="Adobe_OpacityMaskFilter_6_" filterUnits="userSpaceOnUse" x="-210.7" y="-70.5" width="8.4" height="10.4">
				<feColorMatrix  type="matrix" values="1 0 0 0 0  0 1 0 0 0  0 0 1 0 0  0 0 0 1 0"/>
			</filter>
		</defs>
		<mask maskUnits="userSpaceOnUse" x="-210.7" y="-70.5" width="8.4" height="10.4" id="mask-2_2_">
			<g style="filter:url(#Adobe_OpacityMaskFilter_6_);">
				<polygon id="path-1_2_" style="fill-rule:evenodd;clip-rule:evenodd;fill:#FFFFFF;" points="-210.7,-60.1 -157,-60.1 
					-157,-70.5 -210.7,-70.5 				"/>
			</g>
		</mask>
		<path id="Fill-11" style="mask:url(#mask-2_2_);fill-rule:evenodd;clip-rule:evenodd;fill:#4AD295;" d="M-204.4-66.9h-2.6
			l-0.8-1.4h4.3l1.3-2.2h-7.1c-0.5,0-0.9,0.2-1.1,0.6c-0.2,0.4-0.2,0.9,0,1.3l4.5,7.9c0.2,0.4,0.6,0.6,1.1,0.6
			c0.5,0,0.9-0.2,1.1-0.6l0.2-0.3l-2.1-3.6L-204.4-66.9z"/>
		<defs>
			<filter id="Adobe_OpacityMaskFilter_7_" filterUnits="userSpaceOnUse" x="-204.1" y="-70.5" width="5" height="8.1">
				<feColorMatrix  type="matrix" values="1 0 0 0 0  0 1 0 0 0  0 0 1 0 0  0 0 0 1 0"/>
			</filter>
		</defs>
		<mask maskUnits="userSpaceOnUse" x="-204.1" y="-70.5" width="5" height="8.1" id="mask-2_1_">
			<g style="filter:url(#Adobe_OpacityMaskFilter_7_);">
				<polygon id="path-1_1_" style="fill-rule:evenodd;clip-rule:evenodd;fill:#FFFFFF;" points="-210.7,-60.1 -157,-60.1 
					-157,-70.5 -210.7,-70.5 				"/>
			</g>
		</mask>
		<path id="Fill-12" style="mask:url(#mask-2_1_);fill-rule:evenodd;clip-rule:evenodd;fill:#4AD295;" d="M-199.3-69.9
			c-0.2-0.4-0.6-0.6-1.1-0.6h-0.3l-3.4,5.9l1.3,2.2l3.6-6.2C-199-69-199-69.5-199.3-69.9"/>
	</g>
</g>
</svg>
