<svg xmlns="http://www.w3.org/2000/svg" width="101" height="26" fill-rule="evenodd"><path d="M.498 25.031v-.736c1.615 0 2.761-.13 2.761-2.466V9.568c0-2.416-.876-2.478-2.761-2.478v-.704h9.487v.704c-1.95 0-2.754.063-2.754 2.478v12.26c0 2.336 1.014 2.466 2.754 2.466v.736H.498zM33.1 10.879v14.293h-1.109L17.644 10.405c.069.404.069.743.069 1.139v9.004c0 2.739 0 3.746 2.525 3.746v.736h-6.737v-.736c2.552 0 2.552-1.201 2.552-3.746V10.287c0-1.526 0-3.197-2.684-3.197v-.704h6.35l11.8 12.075c-.065-.339-.065-.538-.065-1.007V10.88c0-2.654.065-3.789-2.467-3.789v-.704h6.728v.704c-2.485 0-2.615 1.07-2.615 3.789zm23.295 7.85v4.762c-2.685 1.345-5.217 2.01-7.738 2.01-7.007 0-11.218-4.081-11.218-9.288 0-5.604 4.821-10.23 10.945-10.23 1.516 0 2.665.267 3.862.658.863.273 1.395.574 1.93.574.476 0 .605-.781.669-1.233h.674l.604 6.439h-.805c-.333-1.273-.937-2.322-1.746-3.056-1.26-1.273-2.997-1.949-4.984-1.949-4.21 0-6.666 3.328-6.666 8.328 0 4.932 3.002 8.277 6.999 8.277 1.18 0 2.257-.264 3.578-.87v-4.895c0-1.571-.253-2.177-2.532-2.177v-.739h8.461v.739c-2.099 0-2.033.67-2.033 2.648z" fill="#006"/><path d="M72.703 9.635c-.134-.271-.472 0-.807-.134 0 .134 0 .261.202.404a1.09 1.09 0 0 1 .605-.271zm.537-3.528c0-.125-.134-.261-.331-.401h-1.618c0 .275.197.401.401.401 0 .277.204.327.27.401.206.134.268.134.472 0 .2.134.268-.124.34 0 0 .407 0 .581-.072.908-.068.472-.472.407-.807.607 0 .2-.204.539 0 .739.202-.134.334-.2.672-.337 0-.202.206-.402.47-.538 0-.604.202-1.178.202-1.78zm3.033 3.856v-.329h-.675l-.059.066.734.262zm-3.971-6.124c-.071-.655-.814-.716-1.148-.981h-.272c-.53.193-.643.733-.703 1.174.173.603.568.204.837.603.275-.199.946-.672 1.286-.795zm1.477.729c-.128-.132-.538.066-.74.136-.263.065-.47.269-.47.468h.741c.066-.199.34-.468.468-.604zm3.316 1.413s.132 0 0-.073l-1.43-.202c-.126.202-.461.202-.461.401h-.141c.141.534.141 1.106.141 1.715.264.065.53.201.53.603.272.137.54.203.801.405.123-.069.184-.268.242-.47-.242-.337-.841-.137-.841-.743l-.396-.134c0-.394 0-.774-.071-1.048l.071-.051c0 .051.059.124.195.258.272 0 .54.067.801-.134.123-.073.123-.401.242-.401s.25 0 .319-.125zm-1.024-.81c0-.199-.066-.199-.136-.199-.337 0-.337-.538-.605-.405-.127 0-.268-.132-.468 0 0 .066 0 .066.133.066.336 0 .209.468.473.538h.604zm2.238-.403c.126-.333.126-.93-.144-1.247-.132-.267-.467-.399-.799-.664l-.467.265c-.242.132-.365.399-.365.716.427.193.895.729 1.095 1.135h.203c.203-.204.334 0 .478-.204zm-13.81 18.518c-.07 0-.267-.2-.472-.2-.192.403 0 .67 0 1.142 0 .203-.069.403-.069.403-.123 0-.359-.272-.422-.537V23.02l.561-.722c.402.251.536.655.402.989zm1.725-.739c0 .271-.06.539-.196.739-.07-.267-.261-.602-.587-.602-.272.532-.334.735-.064 1.543-.208.203-.34.268-.601.403-.142-.272-.142-.736-.142-1.006 0-.474.07-.941.205-1.328.198-.204.331-.54.538-.687h.712c-.321 0-.321.285-.321.482.191.067.457.135.457.455zm2.361.404c0 .538-.879 1.276-.879 1.276 0-.333.206-.739.206-1.142 0 0-.268-.268-.546-.268-.197.134-.197.268-.264.468-.204.407-.607.808-.672 1.21-.066 0-.066-.065-.066-.065 0-.675.066-1.814.468-2.271.338-.403.608-.403 1.007-.472l.344.069-.27.403c.27.137.672.388.672.792zm1.832-.655l-.178.655-.445-1.195c-.54-.474-1.145-.544-1.483-.814-.269-.069-.269.134-.4 0 0-.131 0-.34.202-.535h.401l.406.195c.203.209.674.209.674.611 0 .07-.063.13.134.397l.624.147.065.54zm1.003-.954l-.471.414c-.134-.147 0-.474-.203-.681 0-.134.135-.202.069-.265-.069-.137-.823-.404-.823-.404-.264-.201-.601-.41-.869-.671-.268-.064-.473.067-.811.132v-.132c.135-.274.135-.61.543-.61.197 0 .471 0 .599.203.274 0 .406.268.598.343.3.325.566.462.764.597 0 .204.066.333.2.405.404 0 .275.402.404.669zm.337-2.08c0 .199-.065 1.006-.065 1.006-.13-.466-.472-.94-.876-.94-.198-.203-.399-.402-.464-.603-.173-.201-.359 0-.624-.201-.274 0-.605 0-.873.201v-.201l.471-.542c.468.071 1.026 0 1.154.339.336.203.674.404.74.538v.206c.133.06.407.129.537.197zm-.337-3.391l-.267.982c-.338.258-.802.132-1.161.132.487-.132.89-.713 1.161-1.114.066-.069.138 0 .267 0zm-.941-.801c0 .268-.128.603-.428.938-.059.065-.257.197-.257.197 0-.403.198-.735.198-1.07.186-.066.359-.202.487-.066zm-.752-1.016c-.337.343-.676.476-.808.88 0-.201-.065-.404-.13-.538.065-.273.262-.402.333-.462.203.06.331.06.605.119zm4.862 5.071c-.274.203-.474.203-.811.137l-.402-.537h1.012l.202.399zm-1.35-3.051c-.202.402-.396.78-.805.912-.204 0-.538.125-.946 0 .204-.132.408-.196.681-.373l.534-.539h.537zm6.14 7.012l-.203.2c-.2-.2-.068-.739-.402-.802-.34 0-.61-.324-.741-.391l.275-.134s.126-.064.272 0c.129.134.264.201.264.338.132.187.332 0 .478.187.057.201.129.468.057.603zm-4.926-6.473c-.066.373-.272.499-.607.973-.197.134-.607.203-1.003.397.065-.194.262-.264.396-.469.136-.199.41-.527.474-.723.337-.177.468-.177.74-.177zm-3.234-2.348a2.25 2.25 0 0 1-1.041-.84 2.11 2.11 0 0 1-.186-.805c.247 0 .425.199.487.334v.069c.336.402.674.704.74 1.242zm5.187 4.801h-.134c-.064 0-.54-.206-.675-.339-.059-.201-.059-.404-.059-.404h.533l.336.743zm5.309 3.094c-.068.137-.205.525-.269.792-.141-.404-.269-.993-.741-.993-.068-.271-.138-.349-.407-.545l-.514-.071c.066.267.448.267.195.616.254.201.459.201.588.525.138.201 0 .468.07.603l-.404.2c0-.334.065-.989-.382-1.126-.399.137-.471-.403-.741-.55-.133 0-.133-.327-.334-.196-.34.196-.741 0-1.077.196l.336-.534c.275-.202.547-.134.811-.202l.535-.063c.538 0 .993.265 1.528.472a.63.63 0 0 1 .397.612c.141.064.41.064.41.265zm-9.618-8.933l-.202.828c-.204-.401-.408-.762-.476-1.236l.677.408zm1.279 1.911c-.402-.403-.741-.74-.741-1.142.209 0 .403 0 .605.129 0 .338.136.61.136 1.013zm7.663 5.674c-.27-.209-.667-.209-.807-.542-.254-.063-.448-.063-.78-.063-.275.063-.607.063-.872.063-.074 0 0-.063-.146-.135-.401.135-.807.135-1.209.54l.336-.806c.269 0 .472-.132.604-.132.269-.064.477-.064.68-.064v.064c.738 0 1.593-.064 2.133.533l.062.542zm-4.014-3.824c-.127.125-.492.266-.753.266-.406-.331-.675-.707-1.07-1.243l1.07.197c.198.142.568.584.753.78zm-2.23-2.932c0 .476-.072 1.083-.546 1.285l-.135-.676c.2-.132.406-.266.681-.609zm6.112 5.407c-.34 0-.61 0-.81-.336-.064 0-.179-.199-.247-.06-.332.264-.674-.206-1.076-.138a1.31 1.31 0 0 1-.741.402v-.066c0-.197.132-.403.401-.537.41.134.742-.743 1.148-.268.202.067.396.067.515.067.47.201.607.6.81.936zm1.551 2.497h-.07c-.141-.202-.205-.349-.337-.349.196-.736-.208-1.341-.337-1.938v-.21c.204.342.744.672.674 1.012a12.52 12.52 0 0 1 .07 1.486zm-6.186-6.821c-.338-.202-.943-.269-.805-.675.13-.338.337-.408.467-.527.07.462.136.799.338 1.202zm-6.881-8.631l-.339.407c.071.639-.197 1.109-.197 1.714l-.34-1.074c.07-.271.135-.518.34-.845l.536-.201zm9.989 10.107h-.203c-.742.241-1.346-.206-1.951-.604.336-.137.808-.206 1.209-.206l.208.403c.203.067.535.269.738.407zm-3.445-5.406c-.068.404-.202 1.009-.605 1.281 0-.272-.127-.404-.268-.604-.068 0 0 .2-.068.2 0 .132-.133.404-.133.671-.138.063-.407.199-.678.063v-.199c-.068-.131-.068-.403-.068-.535l-.064-.07c-.204.07-.204.202-.204.34-.069.134-.197.265-.197.463-.274 0-.41-.063-.612-.199v-.605c0-.13 0-.13-.064-.13l-.339.332c-.269-.202-.333-.739-.333-1.07 1.075-.607 2.422-.408 3.237-.072.126.072.266.072.396.132zm1.896 3.66c-.269.067-.737.203-.871-.134-.364-.61-.185-1.143 0-1.578.134.385.2.779.266 1.109.069.266.472.398.605.603zm-8.576-9.295l-.465.132.065-.338c.13-.196.197-.395.4-.599v.805zm11.246 10.3c-.268 0-.716 0-.982-.199a2.28 2.28 0 0 1-.744-.537c.273-.202.605-.202.744-.269.266.269.515.737.982 1.005zm-1.859-1.877c-.333.059-.608-.268-.944-.404-.136-.365-.136-.773-.269-.971.269.199.88.199.737.805 0 .167.269.303.477.571zm5.509 4.731c0 .399-.266.735-.334 1.142 0-.407-.069-.742-.331-1.008 0-.134.19-.134.064-.334 0 0-.377-.203-.377-.472s.248-.468.377-.665c0-.073.267.125.267.533 0 .061 0 .268-.069.401-.072.203.403.203.403.404zm1.55.735c0 .342-.404.745-.54 1.012.135-.339.135-1.012 0-1.012-.139-.06-.409 0-.409-.132 0-.203.075-.469.075-.603 0-.268-.211-.404-.211-.537 0-.401.477-.47.613-.74.068.269.068.533.068.872 0 .136.2.538 0 .872 0 .207.404.069.404.267zm-5.469-6.235c-.382 0-.853.199-1.056-.203.146-.069.275-.267.406-.403l.65.606zm1.886 1.508l-.336.134c-.744 0-1.078-.204-1.41-.47.264 0 .605-.343.605-.343.327.343.805.609 1.141.68zm-2.739-4.194c-.799-.446-1.682-.779-2.663-.84 0 .204 0 .395-.06.461.772.379 1.509.715 2.188 1.318v.606c-.68-.671-1.416-1.345-2.249-1.545-.063.136-.324.266-.388.535-.476-.336-1.006-.671-1.551-.737-.203 0-.342-.704-.342-.704a1.1 1.1 0 0 0 .678-.675h.269c.204 0 .204-.13.204-.332 0-.405-.878-.405-1.284-.405-.468 0-.807 0-1.077.202-.132 0-.068.203-.068.337 0 .069.202.199.202.199.136 0 .272-.13.41-.13-.071.405.064.604.465.805l-.064.652c-.811 0-1.349.319-1.953.59-.202-.136-.34-.336-.471-.538-.811.267-2.173 1.34-2.173 1.34v-.47c.598-.532 1.362-.804 1.966-1.113v-.461c-.267-.134-.538 0-.803 0a3.25 3.25 0 0 0-1.566.652c0-.191-.066-.453-.066-.453.742-.401 1.632-.735 2.503-.599V8.96c-.068-.13-.068-.332-.197-.332-.409-.405-.811-1.012-.811-1.415l.267-.124c-.129-.381-.267-1.383 0-1.721-.395-.196-.754-.535-.887-.8-.132-.332-.266-.537-.329-.909.197-.404.329-.537.521-.934.127 0 .3-.07.365-.204.33-.065.533-.397.936-.199.274 0 .543.134.745.199a.37.37 0 0 0 .133.337c.404 0 .404.397.613.733.195.069.396.069.533.069.402.123.739.123.874.303.546-.303 1.079-.371 1.684-.303.07-.207.199-.475.274-.801.064.193.064 0 .198 0 .25-.202.554-.535 1.022-.402.269.2.737.065 1.006.402.208.265.34.664.542.981-.202.397 0 .93-.396 1.135l-.415.395c-.132 0-.132.142-.334.142.203.472.068 1.131-.133 1.579.133-.053.336-.053.336-.245.071.07 0 .191 0 .245v.194c0 .333-.203.674-.472.94-.133.405-.467.941-.905 1.013v.129c.971 0 1.778.271 2.723.732v.446zm5.171 6.447c0 .125-.197.266-.268.266 0 0-.337-.331-.397-.639-.069-.265.197-.741.197-.741.069 0 .138.137.2.137.071.065 0 .265.071.467.197.137.333.378.197.511zm5.414 4.623c0 .025-.127.147-.127.147a1.77 1.77 0 0 0-.904-.212c0-.262-.2-.603-.34-.603-.397 0-.338.271-.67.271l.605-.611c.065-.129.065-.129.205-.129.2.129.268.201.466.201 0 .137 0 .2-.068.402.206.137.333-.067.461.137.186.07.371.13.371.397zm-6.29-6.069c0 .201-.126.262-.255.404 0 0-.248-.34-.248-.474 0-.269 0-.401.059-.604.189.203.444.472.444.674zm2.633 1.972c0 .408-.068.883-.068 1.346-.203 0-.203-.134-.203-.402-.066-.404-.203-.739-.337-1.143-.133-.525-.472-.967-.741-1.573-.065-.271-.409-.403-.677-.605.333 0 .677 0 .946.264 0 .141.068.204.268.403.474 0 .338.604.744.882-.203.169-.269.301-.406.427.203.141.406.203.473.402zm-3.449-3.787c-.202.208-.741.268-1.145-.073l.533-.229c.211.167.482.229.612.303zm-1.483-1.51c-.072.272-.338 0-.4 0h-.605c-.075-.132-.14-.202-.14-.332.268-.069.472-.207.675-.069.132.199.269.401.47.401zm5.872 5.233c0 .269-.134.472-.065.74-.136-.401-.407-.801-.542-1.203 0-.065-.069-.065.065-.132.07 0 .34 0 .34.067.068.129.202.331.202.528zm3.38 2.756c0 .267-.069.34-.14.668-.463-.063-.463-.605-.524-.668-.317-.403-.765-.072-1.102-.072-.129-.398.071-.398.071-.672.198 0 .404-.132.593 0 .311-.132.499.21.834.21.068.131.199.462.268.534zm1.349 1.886c-.138.204-.138.204-.203.391 0-.324-.409-.525-.675-1.07l.266-.472c.206.134.474.34.474.668 0 0-.065.147 0 .285 0 .064.138.064.138.197zM80.908 10.741c-.407 0-.61-.2-.81-.579 0-.199-.064-.461 0-.798.135.271.135.398.275.541.264-.143.264.19.332.256.064.177.203.379.203.579zm5.735 4.934c-.604-.334-.941-.94-1.48-1.549.54 0 .674.539 1.079.61.134.134.264.201.401.403v.537zm4.194 3.788c-.474 0-.206-.936-1.187-.936-.183 0-.31.334-.575.402 0-.067.059-.469.059-.469 0-.136.068-.404.333-.537.499 0 .372.195.757.332.206.069.338.204.613.204v1.003zm1.614.875c0 .402 0 .538-.204.877l-.406-.611c.138-.195.138-.468.338-.799.068 0 .272.466.272.533zM79.52 7.554c0 .063-.139.669-.139.669l-.535.137.332-1.445c.146.234.342.501.342.639zm11.654 10.431c-.209-.061-.683-.131-.683-.325 0-.269-.128-.343-.463-.343-.247 0-.433.073-.827.199 0 0-.198-.261-.266-.527a3.32 3.32 0 0 1 .904-.196c.451 0 .925 0 .925.196 0 .266.409.329.409.996zm.603-1.437c-.476 0-.939-.138-1.012-.339-.134-.132 0-.403-.334-.403-.14 0-.337.206-.337.206-.127.065-.498-.206-.498 0 0 .339-.255.467-.592.467-.139 0-.268 0-.408-.069v-.665c.872 0 .809-.271 1.186-.271.247 0 .442.134.649.134.334 0 .132-.134.468-.134s.468.271.675.332c0 .206.203.47.203.742zm-.203-1.475c-.538-.337-1.35-.54-1.792-.54-.253 0-1.046.337-1.319.606l-.135-.606c.408-.069.408-.407.676-.407.198 0 .464-.07.646-.07.19 0 .317-.119.378-.119.334 0 .196.33.402.33.2 0 .334-.141.468-.141.336 0 .607.539.675.947zm-1.545-1.48c-.378 0-.433-.05-.688-.05-.337 0-.745.112-.946.454-.136-.268-.066-.404 0-.571.202-.199.542-.47.808-.47.448 0 .827.338.827.637zm.065-.971c-.444-.131-.689-.338-1.09-.338-.139 0-.746.207-.805.338-.206-.265.129-.804.397-.942s.408-.066.538 0c0 .407.461.207.706.337a1.78 1.78 0 0 1 .254.605zm1.611-7.648h-.739c-.128-.204-.334 0-.474 0-.128 0-.2 0-.463-.204.402 0 .603-.201.937-.333.269.199.541.268.739.538zm2.026 1.41c-.135-.277-.406-.402-.607-.402-.198-.275-.471-.613-.744-.613.205 0 .476-.196.808-.196.138.338.408.534.47.81l.074.402zM76.135 23.218c-.063 0 .075.141-.595-.532-.142 0-.336.402-.336.532a5.52 5.52 0 0 0 .336 1.813h.533l.063-1.813zm1.428.07c0-.267-.196-.334-.467-.334-.134 0-.438.2-.438.334 0 .272-.123 1.743-.123 1.743h.427c.2-.598.601-1.404.601-1.743zm8.814-.802l-.674.064c.27.137.27.472.27.539 0 .2-.136.403-.27.539-.133-.136-.133-.339-.274-.539-.13 0-.198.333-.198.472 0 .606.268 1.073.472 1.471h.607c-.068-.533-.209-1.008-.209-1.61 0-.333.209-.735.275-.936zm14.479-6.076a11.3 11.3 0 0 0-3.374-7.984c-.933-.942-1.956-1.389-2.768-2.318-.403-.401-.712-.795-.983-1.338-.34-.333-.543-.533-.945-.737l.203.603h-.063c-.34 0-.677-.199-.945-.398l.268-.274c-.068-.123-.268-.123-.406-.123-1.077-.18-2.06.397-3.106.597v.132c.669.201.793 1.006 1.165 1.413h.39c.14 0 .34.125.474.125 0-.125-.134-.401-.134-.401.134-.132.268-.132.404 0 .332.202.807-.132 1.145.401-.403 0-.812 0-1.145.204 0 .072.199.196.139.33-.337-.134-.744 0-.884-.258l-.066.051c.407.48 1.011.849 1.618 1.048.881.134 1.617-.269 2.468-.067 3.041 1.481 5.2 4.941 5.2 8.39 0 4.934-2.832 6.881-4.594 6.881-.342 0-.855-.201-1.05-.388.195-.687.323-1.486.323-2.699 0-2.848-1.135-5.943-2.683-7.513-.741-.743-1.539-1.345-2.372-1.345-.399 0-.807 0-1.078.336-.333.266-.538.81-.466 1.142-.541.403-1.417.602-2.091.602-.745 0-1.681-.266-2.514-.934v-1.009c-.191-.07-.865-.472-.524-.781.199.066.333.191.401.243-.068-.434-.068-.975-.401-1.379-.138 0-.34 0-.54-.13-.204-.202-.409-.47-.409-.807.205.337.542.2.738.402-.329-.808-.196-1.142-.802-2.318-.141-.597-.741-.935-1.148-1.338-.2-.135-.264-.333-.514-.333-.266-.07-.266-.404-.266-.597.064 0 .266.123.4.193-.4-.909-.669-1.907-1.547-2.45l-.206.136h-1.071c.132-.136.399-.202.604-.337-.205-.201-.332-.269-.738-.269-.185.069-.427.269-.688.269h-.064c0-.201-.075-.475.325-.603-.4-.067-.729-.067-1.204 0-.066.333-.268.531-.268.804-.2.136-.266.334-.472.542 0-.407.206-.815.272-1.218-.272.074-.611.274-.746.274-.536-.274-1.206-.533-1.48-.533.403.259.209.734.274 1.071l-.274-.136c-.066-.273-.404-.47-.466-.804-.412 0-.681.128-1.015.333v.069c.199 0 .473.201.604.402-.466 0-.808-.201-1.277-.201 0 0 0-.072-.063-.072-.178.072-.365.273-.487.409-.476.407-.807.739-1.009 1.333.132 0 .334 0 .406.072-.274.061-.406.399-.676.468v.977c-.203.201-.467.405-.607.8-.337 1.066-.399 2.248-.399 3.592-.069.275-.204.336-.343.404v1.041s.404-.376.611-.5v.836c-.268 0-.472.336-.472.542 0 .259.068.534.068.802 0 .132 0 .132.068.271 0-.138.13-.271.337-.34 0 0 .13-.13.4-.13-.198.2-.269.47-.4.735l-.206.199s-.062.136-.062.204c.268 1.374.668 2.582 1.211 3.899-.543.867-1.149 2.54-1.554 4.154-.339-.338-.807-.402-1.213-.402-.38.064-.774.2-1.052.609-.403-.207-.939-.141-1.201.131-.555.481-.555.746-.555 1.133-.139.137-.41.472-.41.942 0 .605.071 1.007.41 1.54h10.097c-.066-.196-.202-.46-.338-.598-.195-.41-.064-.942-.064-1.345.2-.402.402-.789.676-1.127.064-.202 0-.202.064-.271l.468-.078c.272 0 .474-.196.811-.196.209.274.209-.201.544-.338.734-.134 1.422 0 1.828.534 0 .078.063.078.063.147h-.334c-.377-.147-.822-.343-1.29-.147 0 .147-.071.147-.071.349v.338c.272 0 .476.251.738.388.126-.201.49-.388.756-.388.336 0 .808.187.808.722v.737c.275.265.608.338.943.472-.132.268-.334.268-.542.268h-.536c-.068-.065-.2-.065-.2-.268-.205.268-.332.538-.472.801h7.797c-.128-.264-.27-.46-.336-.598-.136-.41-.136-.942-.136-1.345l.746-.994c.404 0 .741-.134 1.48-.197.14-.207 0-.285.605-.285.474 0 .815.078.944.147.066.138.066.138 0 .265-.129.138-.402-.126-.605-.063-.133.134.064.201.064.338.139.115-.601-.137-.601-.137l-.202.525.4.402c.134.2-.198.403-.198.606-.136-.067-.407-.273-.407-.203-.135.532 0 1.007-.07 1.54h.741l.068-1.135c.072-.678.876-1.873 1.347-1.873.269 0 .476.138.664.275.121.251.438.388.438.521s-.185.201-.499.201c-.127 0-.127-.201-.333-.334l-.399.402s.466.403.466.67a.79.79 0 0 1-.266.675l-.406-.806c-.203 0-.538.396-.538.603 0 .268-.134.403-.134.801h4.122c.472 0 .875-.128 1.345-.398h.805c1.658 0 2.95-.467 4.167-1.679 1.618-1.538 2.559-4.091 2.559-6.544zm-25.861 8.621c-.337-.598-.404-1.54-.404-1.743 0-.334 0-.802.206-1.126l-.745.137c-.204.251-.273.388-.273.521l.337-.134c.068 0 .135.134.2.267-.065.334-.468.334-.601.468-.203.675.401 1.077.468 1.61h.811z" fill="#ff6200"/></svg>