<?xml version="1.0" encoding="utf-8"?>
<svg version="1.1" id="Layer_1" xmlns="http://www.w3.org/2000/svg" xmlns:xlink="http://www.w3.org/1999/xlink" x="0px" y="0px"
	width="100px" height="100px" viewBox="0 0 100 100" style="enable-background:new 0 0 100 100;" xml:space="preserve">
<g>
	<path style="fill:#E8E8E8;" d="M50,0c27.61,0,50,22.39,50,50s-22.39,50-50,50S0,77.61,0,50S22.39,0,50,0"/>
	<path style="fill:#FFFFFF;" d="M50,1c27.06,0,49,21.94,49,49S77.06,99,50,99S1,77.06,1,50S22.94,1,50,1"/>
	<g>
		<path style="fill:#071E48;" d="M53.88,52.48l0.54-3.66c-0.43-0.43-0.97-0.65-1.62-0.65c-1.62,0-2.26,1.56-2.26,2.96
			c0,1.24,0.7,1.89,1.72,1.89C52.86,53.07,53.45,52.86,53.88,52.48 M56.09,44.88l-1.29,9h-0.97v-0.59
			c-0.48,0.48-1.13,0.75-1.78,0.75c-1.51,0-2.64-1.02-2.64-2.91c0-1.94,0.97-3.93,3.23-3.93c0.7-0.05,1.35,0.22,1.89,0.7l0.43-3.02
			H56.09z"/>
		<path style="fill:#071E48;" d="M57.54,44.88h1.13l-0.16,1.19h-1.13L57.54,44.88z M57.22,47.31h1.13l-0.92,6.57H56.3L57.22,47.31z"
			/>
		<path style="fill:#071E48;" d="M63.47,47.36l-0.22,0.92c-0.27-0.11-0.54-0.16-0.81-0.16c-0.75,0-1.45,0.48-1.72,1.24l-0.65,4.53
			h-1.13l0.92-6.52h0.97v0.92c0.27-0.65,0.92-1.08,1.62-1.08C62.77,47.14,63.14,47.2,63.47,47.36"/>
		<path style="fill:#071E48;" d="M64.54,50h3.34c0-0.11,0-0.27,0-0.38c0-0.97-0.43-1.45-1.4-1.45C65.41,48.17,64.76,48.98,64.54,50
			 M64.44,50.97v0.11c0,1.35,0.7,1.99,1.99,1.99c0.75,0.05,1.56-0.27,2.1-0.75l-0.27,1.24c-0.59,0.38-1.29,0.59-1.99,0.54
			c-1.78,0-2.91-1.02-2.91-2.96c0-1.94,1.02-3.88,3.18-3.88c1.72,0,2.48,1.08,2.48,2.53c0,0.43-0.05,0.86-0.16,1.24L64.44,50.97z"/>
		<path style="fill:#071E48;" d="M69.77,51.13c0-2.1,1.24-3.99,3.5-3.99c0.65,0,1.24,0.16,1.72,0.48l-0.22,0.92
			c-0.43-0.27-0.97-0.43-1.51-0.43c-1.62,0-2.37,1.45-2.37,3.02c0,1.35,0.75,1.99,1.89,1.99c0.54,0,1.02-0.11,1.51-0.43l-0.22,1.08
			c-0.38,0.22-0.86,0.32-1.29,0.32C70.9,54.04,69.77,53.02,69.77,51.13"/>
		<path style="fill:#071E48;" d="M76.56,51.35c-0.05,0.27-0.05,0.59-0.11,0.92c0,0.54,0.32,0.81,0.92,0.81
			c0.43,0,0.92-0.11,1.29-0.32l-0.22,1.08c-0.38,0.16-0.75,0.27-1.19,0.27c-1.13,0-1.94-0.48-1.94-1.78c0-0.32,0.05-0.59,0.11-0.92
			l0.75-5.66l1.13-0.16l-0.27,1.78h2.26l-0.22,0.92h-2.15L76.56,51.35z"/>
		<path style="fill:#E80413;" d="M9.54,44.88h1.83l-1.24,9H8.31L9.54,44.88z"/>
		<path style="fill:#E80413;" d="M17.19,49.08c0,0.22,0,0.43-0.05,0.65l-0.38,2.48c-0.05,0.38-0.11,0.81-0.11,1.19
			c0,0.16,0,0.27,0,0.48h-1.72c-0.05-0.22-0.05-0.43-0.05-0.59c-0.48,0.48-1.13,0.81-1.83,0.81c-1.24,0-1.99-0.75-1.99-1.83
			c0-1.08,0.7-1.83,2.21-2.21l1.19-0.27c0.7-0.16,0.92-0.27,0.92-0.59l0,0c0-0.43-0.38-0.59-1.19-0.59c-0.81,0-1.67,0.22-2.42,0.54
			l0.43-1.51c0.7-0.27,1.45-0.43,2.26-0.43C16.28,47.14,17.19,47.85,17.19,49.08z M15.04,52.15l0.22-1.45
			c-0.16,0.05-0.32,0.11-0.48,0.16l-0.92,0.22c-0.7,0.16-1.02,0.43-1.02,0.97c0,0.54,0.32,0.7,0.86,0.7
			C14.18,52.75,14.66,52.53,15.04,52.15L15.04,52.15z"/>
		<path style="fill:#E80413;" d="M24.47,50.11c0,1.99-1.02,3.93-3.34,3.93c-0.65,0.05-1.29-0.22-1.72-0.65l-0.43,2.91h-1.83l1.29-9
			h1.62v0.48c0.43-0.48,1.08-0.7,1.72-0.7C23.33,47.14,24.47,48.22,24.47,50.11z M22.63,50.11c0-1.02-0.59-1.56-1.35-1.56
			c-0.43,0-0.86,0.11-1.24,0.38l-0.43,3.18c0.32,0.38,0.81,0.54,1.29,0.54C22.2,52.64,22.63,51.24,22.63,50.11z"/>
		<path style="fill:#E80413;" d="M26.94,51.13c-0.05,0.27-0.05,0.48-0.05,0.75c0,0.43,0.27,0.7,0.81,0.7c0.38,0,0.75-0.05,1.08-0.22
			l-0.32,1.45c-0.38,0.11-0.75,0.16-1.13,0.16c-1.56,0-2.32-0.7-2.32-2.1c0-0.27,0.05-0.54,0.05-0.81l0.75-5.28l1.89-0.22
			l-0.22,1.72h1.99L29.1,48.6h-1.78L26.94,51.13z"/>
		<path style="fill:#E80413;" d="M29.21,51.13c0-1.99,1.02-3.99,3.56-3.99c1.99,0,3.12,1.19,3.12,2.96c0,2.05-1.02,3.99-3.56,3.99
			C30.34,54.09,29.21,52.91,29.21,51.13z M34,50.05c0-1.02-0.43-1.51-1.24-1.51c-1.24,0-1.67,1.45-1.67,2.59
			c0,1.02,0.48,1.51,1.24,1.51C33.57,52.64,34,51.24,34,50.05z"/>
		<path style="fill:#E80413;" d="M43.1,50.11c0,1.99-1.02,3.93-3.34,3.93c-0.65,0.05-1.29-0.22-1.72-0.65l-0.43,2.91h-1.83l1.29-9
			h1.62v0.48c0.43-0.48,1.08-0.7,1.67-0.7C41.97,47.14,43.1,48.22,43.1,50.11z M41.27,50.11c0-1.02-0.59-1.56-1.35-1.56
			c-0.43,0-0.86,0.11-1.24,0.38l-0.43,3.18c0.32,0.38,0.81,0.54,1.24,0.54C40.84,52.64,41.27,51.24,41.27,50.11z"/>
		<path style="fill:#E80413;" d="M46.82,52.1c0-0.32-0.16-0.48-0.75-0.7l-0.81-0.32c-1.02-0.43-1.51-0.97-1.51-1.89
			c0-1.19,0.92-2.05,2.8-2.05c0.86,0,1.72,0.22,2.48,0.65l-0.32,1.29c-0.65-0.32-1.35-0.54-2.1-0.59c-0.65,0-0.97,0.22-0.97,0.59
			c0,0.38,0.16,0.48,0.65,0.65l0.86,0.38c1.08,0.43,1.56,0.92,1.56,1.94c0,1.02-0.81,2.05-2.8,2.05c-0.92,0-1.83-0.27-2.64-0.75
			l0.38-1.35c0.7,0.43,1.45,0.65,2.32,0.65C46.55,52.69,46.82,52.48,46.82,52.1z"/>
		<polygon style="fill:#071E48;" points="79.36,56.3 79.41,56.3 85.72,50 		"/>
		<polygon style="fill:#071E48;" points="85.34,56.3 79.41,56.3 79.36,56.36 85.34,56.36 91.69,50 		"/>
		<polygon style="fill:#071E48;" points="85.34,43.64 79.36,43.64 85.72,50 91.69,50 		"/>
		<polygon style="fill:#E80413;" points="91.69,50 85.72,50 79.41,56.3 85.34,56.3 		"/>
	</g>
</g>
</svg>
