<svg xmlns="http://www.w3.org/2000/svg" viewBox="0 0 999 327.55"><path d="M245.61 115.68H129.04v34.59h82.67c-4.08 48.51-44.44 69.19-82.53 69.19-48.74 0-91.26-38.35-91.26-92.09 0-52.36 40.54-92.68 91.37-92.68 39.22 0 62.33 25 62.33 25l24.22-25.08S184.75 0 128.06 0C55.85 0 0 60.93 0 126.75c0 64.49 52.54 127.38 129.89 127.38 68.03 0 117.83-46.6 117.83-115.52 0-14.54-2.11-22.94-2.11-22.93h0z" fill="#4285f4"/><path d="M341.1 90.63c-47.83 0-82.11 37.4-82.11 81.01 0 44.26 33.25 82.35 82.67 82.35 44.74 0 81.4-34.2 81.4-81.4 0-54.1-42.64-81.96-81.96-81.96zm.48 32.08c23.52 0 45.81 19.02 45.81 49.66 0 29.99-22.2 49.55-45.92 49.55-26.07 0-46.63-20.88-46.63-49.79 0-28.29 20.31-49.42 46.74-49.42z" fill="#ea4335"/><path d="M519.68 90.63c-47.83 0-82.11 37.4-82.11 81.01 0 44.26 33.25 82.35 82.67 82.35 44.74 0 81.4-34.2 81.4-81.4 0-54.1-42.64-81.96-81.96-81.96h0zm.48 32.08c23.52 0 45.81 19.02 45.81 49.66 0 29.99-22.2 49.55-45.92 49.55-26.07 0-46.63-20.88-46.63-49.79 0-28.29 20.31-49.42 46.74-49.42z" fill="#fbbc05"/><path d="M694.84 90.71c-43.9 0-78.41 38.45-78.41 81.61 0 49.16 40.01 81.76 77.66 81.76 23.28 0 35.66-9.24 44.8-19.85v16.11c0 28.18-17.11 45.06-42.94 45.06-24.95 0-37.46-18.55-41.81-29.08l-31.39 13.12c11.14 23.55 33.55 48.1 73.46 48.1 43.65 0 76.92-27.49 76.92-85.16V95.62h-34.25v13.84c-10.53-11.35-24.93-18.75-44.04-18.75h0zm3.18 32.02c21.53 0 43.63 18.38 43.63 49.77 0 31.9-22.06 49.49-44.1 49.49-23.41 0-45.18-19.01-45.18-49.18-.01-31.37 22.61-50.08 45.65-50.08h0z" fill="#4285f4"/><path d="M925.39 90.52c-41.41 0-76.19 32.95-76.19 81.57 0 51.45 38.76 81.96 80.16 81.96 34.56 0 55.77-18.9 68.43-35.85l-28.23-18.79c-7.33 11.37-19.58 22.48-40.02 22.48-22.96 0-33.52-12.57-40.06-24.75L999 151.7l-5.69-13.32c-10.57-26.08-35.25-47.86-67.92-47.86h0zm1.43 31.41c14.92 0 25.66 7.93 30.22 17.45l-73.14 30.57c-3.15-23.67 19.27-48.02 42.92-48.02z" fill="#ea4335"/><path d="M796.99,249.2h35.97V8.45h-35.97V249.2z" fill="#34a853"/></svg>