<svg xmlns="http://www.w3.org/2000/svg" width="292.693" height="104.689" viewBox="0 0 77.442 27.699" fill="#950a1c"><path d="M12.59 26.038h.431c.394 0 .507-.121.507-.376 0-.214-.149-.334-.471-.334h-.467zm-.916 1.327v-.255h.256c.113 0 .15-.034.15-.124v-1.528c0-.089-.037-.124-.15-.124h-.256v-.255h1.588c.53 0 .778.196.778.571 0 .356-.317.528-.686.559v.007c.383.045.471.203.471.472 0 .366.088.421.15.421.088 0 .124-.072.124-.276v-.107h.241v.107c0 .442-.201.6-.504.6-.362 0-.471-.186-.471-.469 0-.552-.131-.673-.558-.673h-.216v.693c0 .09.037.124.15.124h.266v.255z"/><path d="M15.598 26.372c.003-.217-.07-.431-.329-.431-.248 0-.339.213-.35.431zm-.679.228c-.011.269.077.558.416.558.263 0 .394-.128.442-.365h.303c-.047.393-.299.624-.785.624-.566 0-.865-.3-.865-.858a.81.81 0 0 1 .847-.859c.599 0 .85.507.81.9z"/><path d="M17.277 26.514l-.387.165c-.106.045-.22.1-.22.262 0 .144.07.217.22.217.248 0 .387-.2.387-.421zm.85.252v.103c0 .386-.164.548-.47.548-.182 0-.339-.072-.369-.255-.135.193-.369.255-.599.255-.285 0-.508-.127-.508-.437 0-.669 1.095-.345 1.095-.831 0-.221-.197-.262-.39-.262-.103 0-.274.031-.34.114.136-.017.241.038.241.18 0 .155-.113.203-.255.203a.25.25 0 0 1-.262-.255c0-.351.445-.427.733-.427.493 0 .704.211.704.5v.845c0 .076.033.114.087.114s.099-.049.099-.262v-.131z"/><path d="M18.174 27.365v-.228h.179c.103 0 .146-.038.146-.138v-1.555c0-.1-.043-.138-.146-.138h-.179v-.227h.756V27c0 .1.044.138.146.138h.171v.228zm3.63-2.32h.259v.945h-.27c-.048-.376-.252-.683-.69-.683-.537 0-.672.463-.672.915 0 .445.146.917.672.917.415 0 .617-.276.657-.641h.314c-.044.6-.41.938-1.048.938-.767 0-1.168-.51-1.168-1.244a1.14 1.14 0 0 1 1.212-1.18c.237 0 .504.107.664.252z"/><path d="M23.307 26.514l-.387.165c-.106.045-.219.1-.219.262 0 .144.07.217.219.217.248 0 .387-.2.387-.421zm.85.252v.103c0 .386-.164.548-.471.548-.183 0-.339-.072-.369-.255-.135.193-.369.255-.599.255-.285 0-.507-.127-.507-.437 0-.669 1.095-.345 1.095-.831 0-.221-.197-.262-.391-.262-.102 0-.274.031-.34.114.135-.017.242.038.242.18 0 .155-.114.203-.256.203-.157 0-.263-.113-.263-.255 0-.351.446-.427.734-.427.494 0 .705.211.705.5v.845c0 .076.032.114.088.114s.098-.049.098-.262v-.131z"/><path d="M24.204 27.365v-.228h.18c.102 0 .146-.038.146-.138v-1.555c0-.1-.043-.138-.146-.138h-.18v-.227h.756V27c0 .1.044.138.147.138h.171v.228z"/><path d="M25.84 25.038c.142 0 .263.11.263.248s-.121.249-.263.249-.263-.11-.263-.249.12-.248.263-.248m-.482 2.327v-.228h.168c.103 0 .147-.038.147-.138v-.883c0-.1-.044-.138-.147-.138h-.168v-.228h.745V27c0 .1.043.138.146.138h.179v.228zm1.117-1.613h.347v-.09c0-.441.248-.652.631-.652.234 0 .511.131.511.383 0 .138-.084.238-.233.238-.135 0-.237-.086-.237-.2 0-.107.08-.176.186-.19a.32.32 0 0 0-.186-.059c-.19 0-.241.121-.241.276v.294h.373v.228h-.373V27c0 .1.043.138.146.138h.223v.228h-1.143v-.228h.198c.102 0 .145-.038.145-.138v-1.02h-.347z"/><path d="M28.694 27.19c.296 0 .449-.217.449-.631s-.153-.631-.449-.631-.449.218-.449.631.153.631.449.631m0-1.49c.548 0 .938.31.938.859s-.391.859-.938.859-.938-.31-.938-.859.39-.859.938-.859"/><path d="M30.453 26.013h.007c.146-.206.259-.314.456-.314.234 0 .442.127.442.379 0 .155-.098.29-.278.29-.142 0-.259-.08-.259-.221 0-.131.109-.204.241-.207-.041-.042-.099-.049-.154-.049-.299 0-.452.283-.452.531V27c0 .1.044.138.146.138h.23v.228h-1.154v-.228h.201c.103 0 .146-.038.146-.138v-.883c0-.1-.043-.137-.146-.137h-.201v-.228h.774z"/><path d="M32.205 26.051h.007c.15-.214.351-.352.635-.352.322 0 .519.183.519.555V27c0 .1.044.138.219.138h.131v.228h-1.066v-.228h.088c.153 0 .197-.038.197-.138v-.718c0-.259-.146-.314-.321-.314s-.409.176-.409.397V27c0 .1.044.138.146.138h.143v.228H31.42v-.228h.208c.102 0 .146-.038.146-.138v-.835c0-.148-.044-.186-.234-.186h-.121v-.228h.785z"/><path d="M34.292 25.038c.143 0 .262.11.262.248s-.12.249-.262.249-.263-.11-.263-.249.121-.248.263-.248m-.482 2.327v-.228h.168c.102 0 .145-.038.145-.138v-.883c0-.1-.043-.138-.145-.138h-.168v-.228h.744V27c0 .1.044.138.147.138h.179v.228z"/><path d="M36.038 26.514l-.387.165c-.106.045-.22.1-.22.262 0 .144.07.217.22.217.248 0 .387-.2.387-.421zm.85.252v.103c0 .386-.164.548-.471.548-.182 0-.34-.072-.369-.255-.135.193-.369.255-.599.255-.285 0-.507-.127-.507-.437 0-.669 1.095-.345 1.095-.831 0-.221-.197-.262-.391-.262-.102 0-.273.031-.339.114.135-.017.242.038.242.18 0 .155-.114.203-.256.203a.25.25 0 0 1-.263-.255c0-.351.446-.427.734-.427.494 0 .705.211.705.5v.845c0 .076.033.114.088.114s.099-.049.099-.262v-.131zM58.29 25.08v.941h-.27v-.155c0-.365-.201-.531-.606-.531v1.651c0 .09.036.125.15.125h.277v.255h-1.365v-.255h.278c.113 0 .149-.035.149-.125v-1.651c-.405 0-.606.166-.606.531v.155h-.27v-.941z"/><path d="M59.479 26.514l-.387.165c-.106.045-.219.1-.219.262 0 .144.069.217.219.217.249 0 .387-.2.387-.421zm.851.252v.103c0 .386-.165.548-.471.548-.182 0-.34-.072-.369-.255-.135.193-.369.255-.599.255-.284 0-.507-.127-.507-.438 0-.669 1.095-.344 1.095-.831 0-.221-.197-.262-.39-.262-.103 0-.274.031-.34.114.135-.017.241.038.241.18 0 .155-.113.203-.255.203a.25.25 0 0 1-.263-.255c0-.351.445-.427.733-.427.494 0 .705.211.705.5v.845c0 .076.034.114.088.114s.098-.049.098-.262v-.131z"/><path d="M62.045 26.703c-.033.462-.288.714-.785.714-.562 0-.858-.307-.858-.862 0-.51.427-.855.902-.855.423 0 .752.217.752.507 0 .151-.106.286-.263.286-.127 0-.285-.062-.285-.207 0-.138.07-.214.216-.224-.08-.101-.204-.135-.347-.135-.379 0-.485.338-.485.6s.091.6.471.6c.218 0 .373-.176.397-.424z"/><path d="M63.1 27.189c.296 0 .449-.217.449-.631s-.154-.631-.449-.631-.449.218-.449.631.153.631.449.631m0-1.489c.548 0 .938.31.938.858s-.391.859-.938.859-.938-.31-.938-.859.39-.858.938-.858"/><path d="M64.443 26.735a.55.55 0 0 0 .216.338c.106.073.241.114.401.114.128 0 .285-.066.285-.207 0-.337-1.15-.145-1.15-.762 0-.342.347-.518.668-.518.194 0 .38.069.537.169l.073-.117h.201v.576h-.238c-.043-.128-.109-.221-.196-.283a.58.58 0 0 0-.344-.097c-.12 0-.277.049-.277.187 0 .269 1.15.141 1.15.773 0 .362-.325.51-.667.51-.22 0-.439-.034-.611-.175l-.073.124h-.241v-.631zm-10.431-1.249c0-.131-.084-.207-.223-.207a.21.21 0 0 0-.227.228c0 .114.073.228.136.32.149-.055.314-.175.314-.341m-.42 1.624a.71.71 0 0 0 .358-.079c-.205-.231-.373-.486-.533-.748-.139.087-.248.189-.248.38 0 .248.175.448.423.448m.697-1.166h1.168v.255h-.08c-.211 0-.296.038-.361.127l-.471.628c.076.086.149.131.274.131.302 0 .364-.276.364-.5h.278c0 .48-.114.848-.709.848a.96.96 0 0 1-.573-.18c-.233.121-.448.18-.683.18-.592 0-.84-.324-.84-.676 0-.365.117-.496.621-.751-.066-.08-.106-.262-.106-.394 0-.366.252-.604.65-.604.285 0 .519.187.519.462 0 .283-.23.479-.472.611a2.67 2.67 0 0 0 .479.648c.084-.079.274-.307.274-.406 0-.083-.043-.124-.186-.124h-.146zM38.457 27.11h.41c.291 0 .543-.052.543-.4s-.252-.404-.543-.404h-.41zm0-1.059h.351c.288 0 .518-.048.518-.351 0-.317-.23-.365-.518-.365h-.351zm-.92 1.059h.26c.113 0 .15-.034.15-.124v-1.528c0-.09-.037-.124-.15-.124h-.26v-.255h1.355c.715 0 .945.211.945.565 0 .303-.215.459-.511.503v.007c.303.062.595.183.595.576 0 .373-.212.635-.817.635h-1.567z"/><path d="M41.592 27.365v-.272h-.007c-.15.252-.376.323-.617.323-.34 0-.537-.162-.537-.483v-.817c0-.1-.043-.138-.146-.138h-.187v-.227h.763v1.144c0 .145.102.252.28.252.31 0 .449-.279.449-.445v-.586c0-.096-.062-.138-.179-.138h-.197v-.227h.807V27c0 .1.044.138.208.138h.146v.228zm1.643-1.352h.007c.146-.206.258-.314.456-.314.233 0 .442.127.442.379 0 .155-.098.29-.278.29-.142 0-.259-.08-.259-.221 0-.131.11-.204.241-.207-.04-.042-.098-.049-.153-.049-.299 0-.453.283-.453.531V27c0 .1.044.138.147.138h.23v.228H42.46v-.228h.201c.102 0 .146-.038.146-.138v-.883c0-.1-.044-.137-.146-.137h-.201v-.228h.775z"/><path d="M44.986 26.013h.007c.146-.206.26-.314.457-.314.233 0 .441.127.441.379 0 .155-.099.29-.278.29-.142 0-.259-.08-.259-.221 0-.131.108-.204.24-.207-.04-.042-.098-.049-.153-.049-.3 0-.453.283-.453.531V27c0 .1.043.138.145.138h.231v.228h-1.154v-.228h.201c.102 0 .147-.038.147-.138v-.883c0-.1-.044-.137-.147-.137h-.201v-.228h.774z"/><path d="M46.454 25.038c.142 0 .263.11.263.248s-.121.249-.263.249-.263-.111-.263-.249.121-.248.263-.248m-.482 2.327v-.228h.168c.102 0 .146-.038.146-.138v-.883c0-.1-.044-.138-.146-.138h-.168v-.228h.745V27c0 .1.044.138.146.138h.179v.228z"/><path d="M46.949 25.98v-.218c.373-.025.468-.334.501-.651h.226v.641h.482v.228h-.471v1.017c0 .068.04.113.139.113.113 0 .156-.058.156-.196v-.307h.241v.289c0 .363-.211.521-.5.521-.274 0-.467-.107-.467-.382V25.98z"/><path d="M49.271 27.189c.296 0 .449-.217.449-.631s-.153-.631-.449-.631-.449.218-.449.631.153.631.449.631m0-1.489c.548 0 .938.31.938.858s-.391.859-.938.859-.939-.31-.939-.859.391-.858.939-.858"/><path d="M50.618 26.735c.036.152.11.265.216.338s.241.114.401.114c.128 0 .284-.066.284-.207 0-.337-1.15-.145-1.15-.762 0-.342.346-.518.668-.518.193 0 .38.069.537.169l.073-.117h.201v.576h-.237c-.044-.128-.109-.221-.197-.283a.58.58 0 0 0-.343-.097c-.121 0-.277.049-.277.187 0 .269 1.149.141 1.149.773 0 .362-.325.51-.668.51-.219 0-.438-.034-.609-.175l-.074.124h-.241v-.631zM14.673 6.234v7.501H12.72V6.234h-1.664V4.376h5.28v1.858zm7.261-.164c-1.75 0-3.182 1.339-3.182 2.993s1.432 2.992 3.182 2.992 3.168-1.339 3.168-2.992-1.419-2.993-3.168-2.993m0 7.856c-2.849 0-5.163-2.172-5.163-4.864s2.314-4.878 5.163-4.878 5.149 2.186 5.149 4.878-2.299 4.864-5.149 4.864m8.809-7.692h-.534v3.225h.534c.941 0 1.707-.725 1.707-1.612s-.767-1.613-1.707-1.613m2.3 7.761l-2.834-2.678v2.418h-1.967V4.376h2.502c2.025 0 3.674 1.557 3.674 3.47 0 1.298-.781 2.487-1.996 3.088l2.01 1.762zm6.003-7.761v7.501h-1.953V6.234H35.43V4.376h5.279v1.858zm3.182-1.858h1.967v9.36h-1.967zm3.776 9.359V4.376h1.967v7.501h3.313v1.858zm6.654 0V4.376h1.967v7.501h3.313v1.858zm9.807-4.536l-1.114 2.76h2.227zm1.822 4.536l-.593-1.461-1.215 1.447-1.244-1.475-.593 1.489h-2.097l3.92-9.646 3.92 9.646zM1.035 16.372V.993h75.371v15.379l.77-.727V.265H.265v15.38zm75.372.169v5.625H1.036v-5.625l-.77.728v5.625h76.912v-5.625zM15.11 16.28c-.088 0-.159.066-.159.15s.071.15.159.15h.001v.001c12.907.155 22.778.825 23.587 1.644h.009.027.008c.809-.819 10.68-1.49 23.588-1.644v-.001h.001c.088 0 .159-.067.159-.15s-.071-.15-.159-.15h-.005-23.591-.028-23.592z"/></svg>