<?xml version="1.0" encoding="utf-8"?>
<svg version="1.1" id="Layer_1" xmlns="http://www.w3.org/2000/svg" xmlns:xlink="http://www.w3.org/1999/xlink" x="0px" y="0px"
	 viewBox="0 0 372.49 94.39" style="enable-background:new 0 0 372.49 94.39;" xml:space="preserve">
<g>
	<g>
		<g>
			<g>
				<polygon id="XMLID_15_" style="fill:#0073B1;" points="0,13.96 14.56,13.96 14.56,66.99 41.52,66.99 41.52,80.43 0,80.43 				
					"/>
				<g>
					<path style="fill:#0073B1;" d="M47.95,35.36h13.99v45.04H47.95V35.36z M54.95,12.97c4.48,0,8.12,3.64,8.12,8.11
						c0,4.49-3.64,8.11-8.12,8.11c-4.48,0-8.11-3.63-8.11-8.11C46.83,16.61,50.47,12.97,54.95,12.97"/>
				</g>
				<polygon id="XMLID_12_" style="fill:#0073B1;" points="120.44,13.95 134.43,13.95 134.43,53.68 150.28,35.34 167.43,35.34 
					149.08,56.2 167.05,80.43 149.46,80.43 134.61,58.16 134.43,58.16 134.43,80.43 120.44,80.43 				"/>
				<path id="XMLID_11_" style="fill:#0073B1;" d="M69.68,35.37h13.43v6.16h0.19c1.86-3.55,6.44-7.28,13.25-7.28
					c14.18,0,16.79,9.33,16.79,21.45v24.7H99.35v-21.9c0-5.23-0.1-11.94-7.28-11.94c-7.28,0-8.39,5.69-8.39,11.57v22.27H69.68V35.37
					z"/>
				<path style="fill:#0073B1;" d="M196.89,52.65c0.09-4.67-3.55-8.58-8.59-8.58c-6.15,0-9.52,4.2-9.88,8.58H196.89z M208.73,72.61
					c-4.48,5.69-11.84,8.96-19.13,8.96c-13.99,0-25.19-9.33-25.19-23.79c0-14.46,11.2-23.79,25.19-23.79
					c13.07,0,21.27,9.33,21.27,23.79v4.39h-32.47c1.11,5.32,5.13,8.77,10.54,8.77c4.57,0,7.65-2.33,9.98-5.51L208.73,72.61z"/>
				<path style="fill:#0073B1;" d="M240.03,46.26c-6.99,0-11.19,4.67-11.19,11.47c0,6.82,4.2,11.48,11.19,11.48
					c7,0,11.2-4.66,11.2-11.48C251.23,50.93,247.03,46.26,240.03,46.26 M264.11,80.4h-12.88v-5.97h-0.18
					c-2.15,3.26-7.56,7.09-13.9,7.09c-13.44,0-22.3-9.7-22.3-23.41c0-12.6,7.84-24.16,20.71-24.16c5.79,0,11.2,1.58,14.37,5.97h0.18
					V13.95h14V80.4z"/>
			</g>
			<path style="fill:#0073B1;" d="M365.5,0h-80.43c-3.84,0-6.97,3.05-6.97,6.8v80.77c0,3.76,3.12,6.81,6.97,6.81h80.43
				c3.85,0,6.99-3.05,6.99-6.81V6.8C372.49,3.05,369.35,0,365.5,0z"/>
			<path style="fill:#FFFFFF;" d="M292.1,35.38h14v45.04h-14V35.38z M299.1,12.99c4.48,0,8.11,3.64,8.11,8.11
				c0,4.48-3.64,8.12-8.11,8.12c-4.49,0-8.12-3.64-8.12-8.12C290.98,16.63,294.61,12.99,299.1,12.99"/>
			<path id="XMLID_3_" style="fill:#FFFFFF;" d="M314.88,35.38h13.43v6.15h0.19c1.87-3.54,6.44-7.27,13.25-7.27
				c14.18,0,16.79,9.33,16.79,21.46v24.71h-13.99V58.52c0-5.22-0.1-11.94-7.27-11.94c-7.28,0-8.4,5.69-8.4,11.56v22.28h-13.99V35.38
				z"/>
		</g>
	</g>
</g>
</svg>
