<?xml version="1.0" encoding="utf-8"?>
<svg version="1.1" id="Layer_1" xmlns="http://www.w3.org/2000/svg" xmlns:xlink="http://www.w3.org/1999/xlink" x="0px" y="0px"
	width="100px" height="100px" viewBox="0 0 100 100" style="enable-background:new 0 0 100 100;" xml:space="preserve">
<g>
	<path style="fill:#E8E8E8;" d="M50,0c27.6,0,50,22.4,50,50s-22.4,50-50,50S0,77.6,0,50S22.4,0,50,0"/>
	<path style="fill:#FFFFFF;" d="M50,1c27.1,0,49,21.9,49,49S77.1,99,50,99S1,77.1,1,50S22.9,1,50,1"/>
	<g>
		<g>
			<path style="fill:#E6000E;" d="M31.5,55.2V44.8h2.7l2.6,4l2.6-4H42v10.4h-2.7v-6.3l-1.9,2.8H36l-1.9-2.8v6.3H31.5z"/>
			<path style="fill:#E6000E;" d="M42.8,55.2l4.4-10.4h2.6l4.4,10.4h-2.9L50.4,53h-3.9l-0.9,2.2H42.8z M47.4,50.9h2.2l-1.1-2.8
				L47.4,50.9z"/>
			<path style="fill:#E6000E;" d="M55.6,53.9c-1.1-1-1.6-2.3-1.6-3.9c0-1.6,0.5-2.9,1.6-3.9c1.1-1,2.5-1.5,4.1-1.5
				c1.1,0,2.1,0.3,3,0.7v2.5c-0.9-0.5-1.9-0.8-2.8-0.8c-0.9,0-1.7,0.3-2.3,0.8c-0.6,0.5-0.9,1.3-0.9,2.2c0,0.9,0.3,1.6,0.8,2.2
				c0.6,0.5,1.2,0.8,2.1,0.8c0.7,0,1.2-0.2,1.6-0.5v-3.4H64v4.6c-0.4,0.5-1,0.8-1.8,1.2c-0.8,0.3-1.6,0.5-2.5,0.5
				C58.1,55.4,56.7,54.9,55.6,53.9z"/>
			<path style="fill:#E6000E;" d="M65.6,55.2V44.8h2.3l4.5,5.7v-5.7H75v10.4h-2.2l-4.6-5.7v5.7C68.2,55.2,65.6,55.2,65.6,55.2z"/>
			<path style="fill:#E6000E;" d="M76.9,55.2V44.8h2.7v10.4C79.6,55.2,76.9,55.2,76.9,55.2z"/>
			<path style="fill:#E6000E;" d="M83.6,55.2v-8h-3.1v-2.3h8.9v2.3h-3.1v8L83.6,55.2L83.6,55.2z"/>
		</g>
		<path style="fill:#E6000E;" d="M10.6,47c0-1.2,0.5-2.4,1.3-3.3c0.9-0.9,2-1.4,3.2-1.4h10.6v2.4H15.2c-0.6,0-1.2,0.2-1.6,0.7
			c-0.4,0.4-0.7,1-0.7,1.6l0,4C12.8,52,12,52.9,11,53l-0.4,0.1V47z"/>
		<path style="fill:#E6000E;" d="M10.6,57.7v-2.4h10.6c0.6,0,1.2-0.2,1.6-0.7c0.4-0.4,0.7-1,0.7-1.6l0-3.8c0-1.1,0.8-2.1,1.9-2.3
			l0.4-0.1V53c0,1.2-0.5,2.4-1.3,3.3c-0.9,0.9-2,1.4-3.2,1.4H10.6z"/>
		<polygon style="fill:#E6000E;" points="19.5,53.1 19.5,50 18.2,51.7 16.8,50 16.8,53.1 14.9,53.1 14.9,47 16.7,47 18.2,49 
			19.6,47 21.4,47 21.4,53.1 		"/>
	</g>
</g>
</svg>
