<?xml version="1.0" encoding="utf-8"?>
<svg version="1.1" id="Layer_1" xmlns="http://www.w3.org/2000/svg" xmlns:xlink="http://www.w3.org/1999/xlink" x="0px" y="0px"
	width="100px" height="100px" viewBox="0 0 100 100" style="enable-background:new 0 0 100 100;" xml:space="preserve">
<g>
	<path style="fill:#E8E8E8;" d="M50,0c27.61,0,50,22.39,50,50s-22.39,50-50,50S0,77.61,0,50S22.39,0,50,0"/>
	<path style="fill:#FFFFFF;" d="M50,1c27.06,0,49,21.94,49,49S77.06,99,50,99S1,77.06,1,50S22.94,1,50,1"/>
	<g>
		<g id="_x23_1a8b49ff" transform="scale(0.09601075,0.09601075)">
			<path id="path5" style="fill:#1A8B49;" d="M185.88,331.87h0.24c12.6,3.75,25.31,7.22,37.96,10.87
				c206.19,58.72,412.38,117.44,618.57,176.15c4.33,1.31,8.75,2.32,13.01,3.83c-151.7,42.38-303.42,84.66-455.14,127
				c-70.12,19.52-140.19,39.19-210.34,58.62c-1.39,0.39-2.82,0.67-4.12,1.32h-0.19V331.87 M461.93,460.18
				c0.73,13.1,1.67,26.2,2.44,39.3c0.23,3.32,0.6,6.65,0.43,9.99c-5.28,5.52-8.77,12.51-11.07,19.74
				c-3.01,9.71-4.27,20.04-3.04,30.16c0.73,5.25,2.16,10.71,5.81,14.73c2.32,2.6,6.05,3.98,9.48,3.11c3.82-0.94,6.75-3.95,8.55-7.33
				c3.02-5.7,4.03-12.21,4.57-18.56c0.57-9.8,0.21-19.67-1.13-29.4c-0.29-1.54,0.7-3.69,2.53-3.43c3.77,0.5,6.64,4.15,6.71,7.88
				c0.2,7.13,0.6,14.25,0.78,21.37c4.2,0.04,8.4,0.12,12.6,0.08c0.07-6.47-0.03-12.96,0.41-19.42c0.08-1.91,1.17-3.84,2.95-4.63
				c1.58-0.65,3.6-0.34,4.79,0.94c1.14,1.19,1.66,2.85,1.68,4.48c0.06,5.23-0.15,10.46-0.12,15.69c4.42,0.04,8.84,0.06,13.26,0.09
				c0.04-4.99,0.12-9.98,0.14-14.96c-0.34-5.57-1.52-11.48-5.27-15.83c-2.47-2.96-6.34-4.66-10.19-4.43
				c-4.26-0.01-8.21,2.12-11.27,4.96c-1.52-3.41-3.87-6.52-7.07-8.52c-3.8-2.47-8.48-3.14-12.93-2.85
				c-0.97-14.43-1.85-28.87-2.91-43.29C470.01,460.15,465.96,460.23,461.93,460.18 M209.46,478.83c-4.43,3.41-7.64,8.33-8.86,13.79
				c-2.05,8.11,0.22,16.55,3.48,24.02c0.44,1.23,1.5,2.38,1.07,3.77c-0.89,5.58-0.35,11.63,2.83,16.45
				c3.23,4.94,8.71,8.13,14.46,9.17c9.01,1.76,18.49-0.71,26.1-5.67c2.33,1.88,4.99,3.53,8,4.01c4.65,0.88,9.49-0.21,13.61-2.42
				c0.67-3.84,0.29-7.75,0.47-11.63c-3.37,2.16-7.7,3.47-11.57,1.86c0.87-3.13,2.5-5.96,3.56-9.02c3-7.89,5.08-16.4,3.99-24.88
				c-0.54-3.75-2.21-7.56-5.39-9.79c-2.96-1.92-7.01-1.49-9.84,0.48c-4.16,2.83-6.76,7.42-8.31,12.1
				c-2.84,8.91-2.58,18.44-1.33,27.61c-4.8,2.44-10.14,4.86-15.65,3.81c-2.65-0.35-4.77-2.18-6.43-4.16
				c3.91-0.14,8.02-0.12,11.57-2.02c2.97-1.45,5.28-4.25,5.9-7.53c1.38-6.54-2.91-13.87-9.49-15.45c-4.49-1.25-8.96,0.89-12.74,3.14
				c-0.49-2.86-0.94-5.84,0.01-8.66c1.35-4.88,5.63-8.72,10.55-9.79c4.76-1.19,9.71,0.02,14.14,1.84
				c0.04-5.02,0.18-10.05,0.06-15.08C229.76,470.98,217.85,472.21,209.46,478.83 M304.46,477.76c-7.72,1.31-15.01,5.31-20.04,11.34
				c-9.61,11.62-10.78,28.9-4.28,42.28c2.97,6.08,7.91,11.35,14.19,14.05c6.06,2.68,12.99,2.64,19.35,1.13
				c5.79-1.38,11.17-4.07,16.23-7.13c1.48,0.59,2.87,1.56,4.42,2.05c4.73,1.81,10.19,2.05,14.88-0.03
				c5.93-2.48,10.85-7.96,11.64-14.47c2.32,0.04,4.63,0.96,6.22,2.68c0.51,4.69,0.12,9.4,0.17,14.1c3.46,0.02,6.93,0.06,10.39,0.14
				c0.1-4.64,0.09-9.29,0.5-13.91c-0.04-0.82,0.66-1.36,1.17-1.89c1.42-1.35,3.36-1.97,5.27-2.23c0.04-4.01,0.19-8.01-0.01-12.02
				c-3.44-0.15-7.11,1.16-9.05,4.13c-2.97-4.56-8.64-6.31-13.83-6.55c-1.6-3.41-3.77-6.72-6.97-8.82c-2.81-1.93-6.58-2.15-9.7-0.91
				c-5.8,2.4-8.95,9.03-8.38,15.1c-0.81-1.26-2.11-2.21-3.62-2.36c-3.26-0.37-6.47,1.41-8.44,3.93c-2.06,2.71-2.34,6.29-1.99,9.57
				c-2.94,2.03-6.02,3.94-9.42,5.08c-3.61,1.28-7.66,1.53-11.34,0.35c-4.33-1.48-7.7-5-9.79-8.98c-3.25-6.43-3.82-14.2-1.38-20.99
				c1.73-5.1,5.49-9.5,10.45-11.68c6.54-3.08,14.06-2.3,20.89-0.75c0.02-4.45,0.18-8.9,0.06-13.34
				C316.22,477.02,310.26,476.59,304.46,477.76 M629.62,504.23c2.54,3.32,5.16,6.57,7.64,9.94c2.12-0.74,3.92-2.1,5.84-3.24
				c6.66-4.16,13.34-8.27,20.02-12.38c-1.97-3.81-4.22-7.48-6.34-11.21C647.69,492.92,638.67,498.6,629.62,504.23 M393.43,498.64
				c-0.32,5.31-1.02,10.59-1.09,15.91c-1.17,0.05-2.33,0.05-3.49-0.02c-0.31,0.55-0.76,1.1-0.68,1.78c-0.05,3.24-0.03,6.49-0.1,9.73
				c0.84,0.47,1.8,0.44,2.74,0.51c-0.04,6.31-0.31,12.62-0.14,18.94c3.75-0.04,7.5-0.02,11.26,0.06c0.12-5.19,0.29-10.39,0.51-15.57
				c0.99,0.06,2.27-0.12,2.94,0.81c2.1,2.84,2.53,6.58,4.83,9.3c6.35,9.3,20.86,11.41,29.55,4.21c0.09-4.46,0.15-8.91,0.16-13.37
				c-3.54,2.16-7.36,4.52-11.68,4.24c-2.81,0-4.95-2.04-6.87-3.83c2.27-1.45,4.81-2.45,7.08-3.94c4.53-2.91,8.8-7.05,9.95-12.51
				c1.19-5.06-1.68-10.57-6.29-12.84c-4.38-2.3-9.84-1.52-13.97,0.96c-5.04,3.1-8.79,7.96-11.37,13.22c-1.24,0.02-2.48,0-3.72-0.02
				c1.1-9.06,1.76-18.16,2.77-27.23c-3.82-0.04-7.65-0.01-11.47-0.09C393.85,492.14,393.67,495.39,393.43,498.64 M579.83,496.75
				c-4.29,4.08-6.5,9.88-7.43,15.62c-1.16,7.4,0.08,14.96,2.25,22.07c-2.44,0.72-4.78,1.7-7.19,2.46
				c-0.14-5.71,0.01-11.42,0.08-17.13c-4.12-0.07-8.24-0.12-12.35-0.18c-1.84,4.02-4.47,7.81-8.18,10.31
				c-1.76,1.28-3.89,2.15-6.1,2.09c-0.56-2.98,0.45-6.26,2.9-8.13c5.76-4.73,13.44-5.92,20.65-6.44c0.16-4.4,0.16-8.81,0.16-13.22
				c-4.22,0.35-8.46,0.77-12.57,1.81c-5.81,1.56-11.47,4.03-16.14,7.88c-3.81,3.09-6.91,7.11-8.63,11.72
				c-1.36,3.85-1.09,8.17,0.35,11.96c1.48,3.7,5.13,6.38,9.09,6.78c5.86,0.65,11.73-1.41,16.52-4.71c-0.02,1.34-0.03,2.68-0.05,4.03
				c-4.2,1.56-8.16,3.98-11.09,7.41c-3.48,3.98-5.48,9.5-4.45,14.78c0.67,3.82,3.24,7.23,6.72,8.94c3.09,1.56,6.67,1.82,10.07,1.44
				c3.9-0.48,7.52-2.81,9.53-6.19c3.22-5.12,3.37-11.43,3.09-17.28c4.87-3.15,9.52-6.62,14.4-9.76c2.36,3.67,6.58,5.62,10.77,6.31
				c6.33,0.99,12.9,0.54,19.01-1.41c2.15-0.55,4.14-1.68,6.24-2.26c5.2,2.37,11.38,2.03,16.52-0.33c9.94-5.88,19.84-11.8,29.77-17.7
				c2.19-1.29,4.53-2.82,7.18-2.64c2.91,0.22,4.55,3.63,3.67,6.23c-0.41,1.56-1.79,2.51-3,3.43c-3.81,2.79-8.34,4.27-12.76,5.77
				c-0.03,4.41-0.07,8.81-0.1,13.22c2.84-0.23,5.67-0.62,8.43-1.34c6.68-1.66,12.81-5.59,16.93-11.12
				c3.56-4.79,5.81-10.77,5.21-16.8c-0.28-3.82-2.07-7.63-5.24-9.88c-3.53-2.51-8.1-3.03-12.3-2.57
				c-6.91,0.98-13.01,4.61-19.01,7.93c-7.63,4.36-14.82,9.63-23.14,12.64c1.54-4.2,2.74-8.9,1.25-13.3
				c-1.27-4.27-5.09-7.39-9.32-8.45c-3.1-0.79-6.41-0.64-9.47,0.25c-5.2,1.68-9.23,6.4-10.2,11.76c-1.07,4.93-0.04,9.97,1.18,14.77
				c-3.78,1.34-8.83,1.21-11.29-2.44c1.76-2.87,3.71-5.64,5.19-8.69c3.22-6.13,5.22-13.09,4.63-20.06
				c-0.31-4.09-2.3-8.16-5.75-10.49c-2.72-1.74-5.97-2.89-9.24-2.56C583.99,493.5,581.71,495.02,579.83,496.75L579.83,496.75z"/>
			<path id="path7" style="fill:#1A8B49;" d="M253.22,505.47c0.33-1,1.5-0.93,2.34-1.13c1.25,3.93,0.86,8.22-0.43,12.09
				c-0.43,1.21-0.99,2.42-1.91,3.34c-1.25,0.28-1.72-1.3-1.87-2.24C250.75,513.45,251.41,509.17,253.22,505.47z"/>
			<path id="path9" style="fill:#1A8B49;" d="M585.16,510.05c0.44-1.21,1.43-2.06,2.36-2.9c1.74,2.91,1.39,6.47,0.67,9.63
				c-0.33,1.85-1.17,3.54-2.09,5.16c-0.54,0.06-1.08,0.13-1.62,0.2C583.03,518.22,583.73,513.88,585.16,510.05z"/>
			<path id="path11" style="fill:#1A8B49;" d="M347.87,511.86c1.14-0.98,3-0.47,3.52,0.93c0.19,0.97-0.33,1.89-0.62,2.79
				c-1.04-0.1-2.31,0.23-3.16-0.55C346.95,514.08,346.8,512.57,347.87,511.86z"/>
			<path id="path13" style="fill:#1A8B49;" d="M419.16,520.2c-0.44-3.66,2.29-8.26,6.43-7.6
				C425.86,516.24,423.16,520.48,419.16,520.2z"/>
			<path id="path15" style="fill:#1A8B49;" d="M220.68,518.18c-1.91-1.89,0.43-5.52,2.94-4.77c1.48,0.27,2.03,1.84,2.65,3
				c-0.55,0.94-1.12,1.87-1.72,2.77C223.24,519.13,221.56,519.46,220.68,518.18z"/>
			<path id="path17" style="fill:#1A8B49;" d="M337.18,517.88c1.45,3.34,4.44,5.82,7.88,6.93c1.23,0.45,2.92,0.55,3.43,1.99
				c0.47,0.96-0.16,1.92-0.77,2.63c-2.18,2.68-7.09,2.72-8.93-0.37C337.01,525.62,337.43,521.63,337.18,517.88z"/>
			<path id="path19" style="fill:#1A8B49;" d="M616.4,521.68c1.58-0.67,3.15,0.88,3.52,2.33c0.57,2.2,0.57,5.05-1.46,6.52
				c-0.83,0.8-2.07,0.33-2.98-0.03C613.59,527.93,613.41,523.49,616.4,521.68z"/>
			<path id="path21" style="fill:#1A8B49;" d="M465.02,531.85c0.45-0.09,0.91-0.18,1.37-0.27c1.26,3.48,1.26,7.24,1.21,10.9
				c-0.14,5.18-0.42,10.5-2.43,15.36c-0.48-0.07-0.96-0.13-1.43-0.19c-1.06-4.03-1-8.22-0.92-12.35
				C462.97,540.75,463.47,536.15,465.02,531.85z"/>
			<path id="path23" style="fill:#1A8B49;" d="M550.11,558.22c0.83-1.62,3.48-1.71,4.34-0.07c0.96,1.4,0.34,3.18-0.28,4.58
				c-1.11,0.69-2.53,0.49-3.76,0.31C549.73,561.56,549.02,559.68,550.11,558.22z"/>
		</g>
		<g id="_x23_ffffffff" transform="scale(0.09601075,0.09601075)">
			<path id="path26" style="fill:#FFFFFF;" d="M461.93,460.18c4.04,0.05,8.08-0.03,12.12-0.14c1.06,14.42,1.94,28.86,2.91,43.29
				c4.45-0.29,9.13,0.39,12.93,2.85c3.19,2,5.55,5.11,7.07,8.52c3.06-2.83,7.01-4.96,11.27-4.96c3.85-0.23,7.72,1.48,10.19,4.43
				c3.75,4.34,4.93,10.25,5.27,15.83c-0.02,4.99-0.1,9.98-0.14,14.96c-4.42-0.03-8.84-0.05-13.26-0.09
				c-0.03-5.23,0.18-10.46,0.12-15.69c-0.01-1.62-0.54-3.29-1.68-4.48c-1.19-1.27-3.21-1.59-4.79-0.94
				c-1.78,0.79-2.87,2.72-2.95,4.63c-0.44,6.46-0.33,12.95-0.41,19.42c-4.2,0.04-8.4-0.04-12.6-0.08
				c-0.18-7.13-0.57-14.25-0.78-21.37c-0.07-3.73-2.94-7.38-6.71-7.88c-1.83-0.27-2.82,1.89-2.53,3.43
				c1.35,9.73,1.7,19.59,1.13,29.4c-0.54,6.35-1.54,12.87-4.57,18.56c-1.8,3.38-4.73,6.39-8.55,7.33c-3.42,0.87-7.16-0.51-9.48-3.11
				c-3.65-4.02-5.08-9.48-5.81-14.73c-1.23-10.12,0.03-20.45,3.04-30.16c2.3-7.23,5.79-14.22,11.07-19.74
				c0.17-3.34-0.2-6.66-0.43-9.99C463.59,486.38,462.66,473.28,461.93,460.18 M465.02,531.85c-1.56,4.3-2.06,8.9-2.19,13.45
				c-0.08,4.13-0.14,8.32,0.92,12.35c0.47,0.06,0.95,0.12,1.43,0.19c2.01-4.86,2.29-10.17,2.43-15.36c0.05-3.66,0.04-7.42-1.21-10.9
				C465.94,531.67,465.48,531.76,465.02,531.85L465.02,531.85z"/>
			<path id="path28" style="fill:#FFFFFF;" d="M209.46,478.83c8.39-6.63,20.31-7.85,30.18-4.06c0.13,5.02-0.01,10.05-0.06,15.08
				c-4.43-1.82-9.38-3.03-14.14-1.84c-4.92,1.07-9.2,4.92-10.55,9.79c-0.96,2.82-0.5,5.8-0.01,8.66c3.78-2.25,8.26-4.39,12.74-3.14
				c6.58,1.58,10.87,8.91,9.49,15.45c-0.62,3.28-2.92,6.07-5.9,7.53c-3.54,1.9-7.66,1.88-11.57,2.02c1.66,1.98,3.78,3.81,6.43,4.16
				c5.52,1.05,10.85-1.37,15.65-3.81c-1.25-9.16-1.51-18.7,1.33-27.61c1.55-4.69,4.14-9.28,8.31-12.1c2.83-1.97,6.88-2.4,9.84-0.48
				c3.18,2.23,4.85,6.04,5.39,9.79c1.09,8.48-0.99,16.99-3.99,24.88c-1.05,3.06-2.69,5.89-3.56,9.02c3.87,1.61,8.2,0.29,11.57-1.86
				c-0.18,3.87,0.2,7.79-0.47,11.63c-4.12,2.21-8.96,3.3-13.61,2.42c-3.01-0.48-5.67-2.13-8-4.01c-7.61,4.96-17.09,7.43-26.1,5.67
				c-5.75-1.04-11.23-4.23-14.46-9.17c-3.18-4.81-3.71-10.87-2.83-16.45c0.43-1.39-0.63-2.54-1.07-3.77
				c-3.27-7.46-5.54-15.91-3.48-24.02C201.82,487.17,205.03,482.24,209.46,478.83 M253.22,505.47c-1.81,3.71-2.47,7.99-1.87,12.07
				c0.15,0.94,0.62,2.52,1.87,2.24c0.91-0.92,1.47-2.13,1.91-3.34c1.29-3.87,1.68-8.16,0.43-12.09
				C254.72,504.54,253.55,504.46,253.22,505.47 M220.68,518.18c0.87,1.27,2.55,0.95,3.87,1c0.61-0.9,1.17-1.83,1.72-2.77
				c-0.62-1.17-1.17-2.74-2.65-3C221.12,512.66,218.78,516.29,220.68,518.18z"/>
			<path id="path30" style="fill:#FFFFFF;" d="M304.46,477.76c5.8-1.17,11.76-0.74,17.6-0.13c0.12,4.45-0.04,8.89-0.06,13.34
				c-6.83-1.55-14.35-2.33-20.89,0.75c-4.96,2.18-8.71,6.58-10.45,11.68c-2.44,6.79-1.86,14.57,1.38,20.99
				c2.09,3.99,5.46,7.5,9.79,8.98c3.67,1.17,7.72,0.92,11.34-0.35c3.41-1.15,6.49-3.05,9.42-5.08c-0.35-3.28-0.07-6.86,1.99-9.57
				c1.97-2.52,5.18-4.3,8.44-3.93c1.51,0.14,2.81,1.1,3.62,2.36c-0.57-6.07,2.58-12.7,8.38-15.1c3.12-1.25,6.9-1.02,9.7,0.91
				c3.2,2.11,5.37,5.41,6.97,8.82c5.18,0.24,10.85,1.99,13.83,6.55c1.93-2.97,5.61-4.28,9.05-4.13c0.2,4,0.05,8.01,0.01,12.02
				c-1.91,0.26-3.85,0.88-5.27,2.23c-0.51,0.53-1.21,1.07-1.17,1.89c-0.41,4.63-0.41,9.27-0.5,13.91
				c-3.46-0.08-6.93-0.12-10.39-0.14c-0.05-4.7,0.35-9.41-0.17-14.1c-1.59-1.72-3.9-2.64-6.22-2.68
				c-0.79,6.52-5.71,11.99-11.64,14.47c-4.69,2.08-10.15,1.84-14.88,0.03c-1.56-0.5-2.94-1.46-4.42-2.05
				c-5.06,3.06-10.45,5.75-16.23,7.13c-6.35,1.51-13.29,1.56-19.35-1.13c-6.28-2.69-11.21-7.97-14.19-14.05
				c-6.5-13.38-5.33-30.66,4.28-42.28C289.45,483.07,296.74,479.06,304.46,477.76 M347.87,511.86c-1.07,0.72-0.92,2.23-0.26,3.17
				c0.85,0.78,2.11,0.45,3.16,0.55c0.29-0.9,0.82-1.82,0.62-2.79C350.87,511.39,349.01,510.88,347.87,511.86 M337.18,517.88
				c0.25,3.74-0.17,7.74,1.62,11.18c1.83,3.08,6.75,3.05,8.93,0.37c0.6-0.71,1.24-1.67,0.77-2.63c-0.51-1.44-2.2-1.54-3.43-1.99
				C341.62,523.7,338.63,521.23,337.18,517.88z"/>
			<path id="path32" style="fill:#FFFFFF;" d="M629.62,504.23c9.05-5.63,18.07-11.31,27.16-16.89c2.12,3.73,4.37,7.39,6.34,11.21
				c-6.68,4.11-13.37,8.22-20.02,12.38c-1.91,1.14-3.72,2.5-5.84,3.24C634.78,510.8,632.16,507.55,629.62,504.23z"/>
			<path id="path34" style="fill:#FFFFFF;" d="M393.43,498.64c0.24-3.24,0.41-6.5,0.89-9.72c3.82,0.08,7.65,0.05,11.47,0.09
				c-1.01,9.07-1.66,18.17-2.77,27.23c1.24,0.02,2.48,0.04,3.72,0.02c2.58-5.26,6.32-10.12,11.37-13.22
				c4.13-2.48,9.59-3.27,13.97-0.96c4.6,2.27,7.47,7.78,6.29,12.84c-1.15,5.45-5.42,9.6-9.95,12.51c-2.26,1.49-4.8,2.49-7.08,3.94
				c1.92,1.79,4.07,3.82,6.87,3.83c4.32,0.28,8.14-2.07,11.68-4.24c-0.01,4.46-0.06,8.91-0.16,13.37
				c-8.69,7.19-23.2,5.09-29.55-4.21c-2.29-2.73-2.73-6.47-4.83-9.3c-0.67-0.94-1.95-0.75-2.94-0.81
				c-0.22,5.19-0.38,10.38-0.51,15.57c-3.75-0.08-7.51-0.1-11.26-0.06c-0.16-6.31,0.1-12.63,0.14-18.94
				c-0.93-0.06-1.9-0.04-2.74-0.51c0.07-3.24,0.05-6.49,0.1-9.73c-0.08-0.68,0.37-1.23,0.68-1.78c1.16,0.07,2.33,0.07,3.49,0.02
				C392.41,509.23,393.11,503.94,393.43,498.64 M419.16,520.2c4.01,0.28,6.7-3.96,6.43-7.6
				C421.45,511.94,418.72,516.55,419.16,520.2z"/>
			<path id="path36" style="fill:#FFFFFF;" d="M579.83,496.75c1.88-1.73,4.16-3.25,6.77-3.46c3.26-0.32,6.51,0.82,9.24,2.56
				c3.45,2.33,5.44,6.4,5.75,10.49c0.59,6.97-1.41,13.93-4.63,20.06c-1.48,3.04-3.43,5.81-5.19,8.69c2.46,3.65,7.51,3.78,11.29,2.44
				c-1.23-4.79-2.25-9.84-1.18-14.77c0.97-5.36,5-10.08,10.2-11.76c3.06-0.9,6.37-1.04,9.47-0.25c4.23,1.06,8.05,4.18,9.32,8.45
				c1.49,4.4,0.3,9.09-1.25,13.3c8.32-3.01,15.51-8.28,23.14-12.64c6-3.33,12.1-6.96,19.01-7.93c4.2-0.47,8.77,0.06,12.3,2.57
				c3.17,2.25,4.96,6.06,5.24,9.88c0.6,6.03-1.66,12.01-5.21,16.8c-4.12,5.53-10.26,9.46-16.93,11.12
				c-2.76,0.72-5.59,1.11-8.43,1.34c0.03-4.41,0.06-8.81,0.1-13.22c4.42-1.5,8.95-2.98,12.76-5.77c1.21-0.92,2.59-1.87,3-3.43
				c0.88-2.59-0.76-6.01-3.67-6.23c-2.65-0.17-4.99,1.35-7.18,2.64c-9.92,5.9-19.83,11.83-29.77,17.7
				c-5.14,2.36-11.32,2.7-16.52,0.33c-2.1,0.58-4.1,1.71-6.24,2.26c-6.12,1.95-12.68,2.4-19.01,1.41c-4.19-0.7-8.4-2.64-10.77-6.31
				c-4.88,3.14-9.53,6.61-14.4,9.76c0.28,5.86,0.13,12.17-3.09,17.28c-2.01,3.38-5.63,5.71-9.53,6.19
				c-3.4,0.38-6.98,0.12-10.07-1.44c-3.48-1.71-6.05-5.12-6.72-8.94c-1.03-5.29,0.97-10.8,4.45-14.78
				c2.93-3.43,6.89-5.86,11.09-7.41c0.02-1.35,0.03-2.69,0.05-4.03c-4.79,3.3-10.66,5.35-16.52,4.71c-3.96-0.4-7.61-3.08-9.09-6.78
				c-1.43-3.79-1.71-8.11-0.35-11.97c1.72-4.61,4.83-8.63,8.63-11.72c4.67-3.85,10.33-6.32,16.14-7.88
				c4.11-1.04,8.35-1.46,12.57-1.81c0,4.41-0.01,8.81-0.16,13.22c-7.21,0.52-14.89,1.71-20.65,6.44c-2.46,1.87-3.46,5.15-2.9,8.13
				c2.21,0.06,4.34-0.8,6.1-2.09c3.71-2.49,6.34-6.28,8.18-10.31c4.12,0.06,8.23,0.11,12.35,0.18c-0.08,5.71-0.23,11.41-0.08,17.13
				c2.42-0.76,4.76-1.74,7.19-2.46c-2.17-7.11-3.4-14.66-2.25-22.07C573.34,506.62,575.55,500.83,579.83,496.75 M585.16,510.05
				c-1.43,3.82-2.13,8.17-0.68,12.09c0.53-0.07,1.07-0.14,1.62-0.2c0.92-1.62,1.76-3.32,2.09-5.16c0.72-3.16,1.08-6.72-0.67-9.63
				C586.6,507.99,585.6,508.85,585.16,510.05 M616.4,521.68c-2.99,1.81-2.81,6.25-0.92,8.81c0.91,0.36,2.15,0.84,2.98,0.03
				c2.03-1.47,2.03-4.32,1.46-6.52C619.55,522.56,617.98,521.01,616.4,521.68 M550.11,558.22c-1.09,1.46-0.38,3.34,0.3,4.82
				c1.23,0.18,2.65,0.39,3.76-0.31c0.62-1.41,1.24-3.18,0.28-4.58C553.59,556.51,550.94,556.6,550.11,558.22z"/>
		</g>
	</g>
</g>
</svg>
