<?xml version="1.0" encoding="utf-8"?>
<svg version="1.1" id="Layer_1" xmlns="http://www.w3.org/2000/svg" xmlns:xlink="http://www.w3.org/1999/xlink" x="0px" y="0px"
	 viewBox="0 0 50.7 14.1" style="enable-background:new 0 0 50.7 14.1;" xml:space="preserve">
<g>
	<path style="fill:#1DBDEF;" d="M14.4,2.5l-0.1,1.1c0.3-0.8,0.8-1.2,1.5-1.3v2.6L14.3,5l0.1,5.7l-2,0.1l0.2-8.3L14.4,2.5
		C14.4,2.5,14.4,2.5,14.4,2.5z M18.8,1.3v1.3h0.7v1.3h-0.7V9l1.1-0.1l-0.1,1.9h-1c-0.5,0-0.9,0-1.1-0.1c-0.2-0.1-0.4-0.1-0.5-0.3
		c-0.1-0.1-0.3-0.4-0.3-0.6c-0.1-0.2,0-0.8,0-1.6L17,4.1h-0.7V2.6h0.7V1.3L18.8,1.3C18.8,1.3,18.8,1.3,18.8,1.3z M23.1,0.5l0.1,10.2
		h-2.3l0.1-10.2H23.1C23.1,0.5,23.1,0.5,23.1,0.5z M29.9,6.5l-3.7,0.1v2.7H28v-2l1.9,0.1v0.6c0,0.5,0,0.9-0.1,1.1
		c-0.1,0.3-0.2,0.5-0.4,0.8c-0.3,0.3-0.5,0.6-0.9,0.7c-0.4,0.2-0.9,0.3-1.3,0.3c-0.5,0-1-0.1-1.4-0.2c-0.4-0.1-0.7-0.4-0.9-0.7
		s-0.5-0.5-0.5-0.9c-0.1-0.5-0.1-0.9-0.1-1.4V5.3c0-0.7,0.1-1.1,0.3-1.5c0.2-0.4,0.5-0.9,1-1.1c0.4-0.2,0.9-0.3,1.5-0.3
		c0.7,0,1.3,0.1,1.7,0.4s0.7,0.7,0.9,1.1c0.2,0.5,0.3,1,0.3,1.8L29.9,6.5L29.9,6.5z M27.8,5.5l0.1-2l-1.6-0.1l0.1,2.1
		C26.4,5.5,27.8,5.5,27.8,5.5z M40.3,5.5h-1.8V5.1c0-0.6,0.1-1.1,0.2-1.5c0.1-0.3,0.4-0.7,0.8-0.9c0.4-0.3,0.9-0.4,1.6-0.4
		c0.8,0,1.4,0.1,1.8,0.5c0.4,0.3,0.7,0.7,0.7,1.1s0.1,1.3,0.1,2.6l0.1,4.1H42V9.7l-1,0.7c-0.2,0.1-0.5,0.2-0.8,0.2
		c-0.4,0-0.8-0.1-1.1-0.3c-0.3-0.3-0.5-0.8-0.5-1.6V8c0-0.6,0.2-0.9,0.4-1.1s0.5-0.5,1.3-0.8l1.7-0.8V3.4l-1.5,0.1V5.5z M42,6.6
		l-1.5,0.1l-0.1,2.7l1.5-0.2C41.9,9.1,42,6.6,42,6.6z M50.7,2.5l-0.2,8.7c0,0.5-0.3,1.3-0.5,1.7c-0.1,0.2-0.6,0.6-0.9,0.7
		c-0.3,0.1-3.5,0.2-3.5,0.2v-2l3.2,0.1l0.1-1.1c0-0.1-1.9,0.1-2.5,0c-0.3-0.1-0.9-0.3-1-0.5c0,0-0.2-0.2-0.3-0.7
		c-0.1-0.7-0.2-6.9-0.2-6.9l2.1,0.1l-0.1,5.9h2l-0.3-5.9L50.7,2.5L50.7,2.5z M11.3,2.5l-0.2,5.7c-0.1,0.7-0.4,1.5-0.6,1.8
		c-0.2,0.3-0.5,0.5-0.8,0.6c-0.3,0.1-0.7,0.2-1.1,0.2c-0.5,0-0.9-0.1-1.3-0.3c-0.4-0.1-0.8-0.5-1-0.9C6.1,9.3,5.9,8.1,5.9,7.2V2.4
		l1.9,0.1L7.5,8.4l2,0.1L9.3,2.5C9.3,2.5,11.3,2.5,11.3,2.5z M32.7,0.1h2.1c0.7,0,1.2,0.1,1.5,0.2s0.6,0.4,0.9,0.8
		c0.2,0.4,0.3,1.1,0.3,2c0,0.6-0.1,1.1-0.2,1.3S36.9,4.8,36.5,5c0.5,0.1,0.9,0.4,1,0.7c0.2,0.3,0.3,0.9,0.3,1.5v1
		c0,0.7-0.1,1.3-0.2,1.6c-0.1,0.3-0.3,0.6-0.6,0.7c-0.3,0.1-0.9,0.2-1.7,0.2h-2.6C32.7,10.8,32.7,0.1,32.7,0.1z M34.1,1.7l-0.1,2.6
		h1.7V1.7C35.7,1.7,34.1,1.7,34.1,1.7z M34.2,6v2.9c0.3,0,1.7-0.1,1.7-0.1V6.1L34.2,6C34.2,6,34.2,6,34.2,6z M5.3,0v2L3.6,1.8
		l0.3,8.8l-2.3,0.1l0.2-8.9L0,2.1V0.1C0,0.1,5.3,0,5.3,0z"/>
	<g>
		<path style="fill:#FFE700;" d="M9.8,12.5C9.8,12.5,9.7,12.5,9.8,12.5c-0.1-0.1-0.1-0.1-0.2-0.1H9.3c-0.1,0-0.2,0.1-0.3,0.1
			c-0.1,0.1-0.2,0.1-0.3,0.1l-0.3,0.1l-0.3,0.1L8.1,13v-0.1v-0.1v-0.1v-0.1v-0.1v-0.1v-0.1v-0.1v-0.1v-0.1H8.1H8H7.9
			c0,0-0.1,0-0.1,0.1c0,0-0.1,0-0.1,0.1l-0.1,0.1v0.1v0.1l0,0l-0.3,0.2c-0.1,0.1-0.3,0.2-0.5,0.3l-0.2,0.1H6.5H6.4l-0.1-0.1
			c0,0,0-0.1-0.1-0.1v-0.1v-0.1l0.1-0.1c0,0,0-0.1,0.1-0.1v-0.1c0,0,0-0.1-0.1-0.1H6.3H6.2v-0.1l-0.1-0.1H6.1H6
			c-0.1,0-0.3,0-0.5,0.1c-0.1,0-0.3,0.1-0.4,0.1s-0.2,0.1-0.3,0.2l-0.2,0.2c0,0-0.1-0.1-0.1-0.1l0,0l0,0c0,0-0.1,0-0.1,0.1
			c-0.1,0-0.1,0-0.1,0.1L4.1,13H4l-0.3,0.1l-0.3,0.2l-0.4,0.1c-0.1,0.1-0.3,0.1-0.4,0.1l-0.4,0.1H1.7H1.4c-0.1,0-0.1-0.1-0.2-0.1
			s-0.1-0.1-0.1-0.1v-0.1v-0.1c0-0.1,0-0.1,0.1-0.1c0-0.1,0.1-0.1,0.1-0.1l0.1-0.1c0.1-0.1,0.2-0.2,0.3-0.3s0.3-0.2,0.5-0.3l0.2-0.1
			l0.3-0.1L2.9,12h0.2h0.1h0.1l-0.1,0.1c-0.1,0-0.1,0.1-0.1,0.1L3,12.2c0,0.1,0,0.1,0.1,0.1c0.1,0,0.1,0.1,0.1,0.1
			c0.1,0,0.1,0,0.2-0.1c0,0,0.1,0,0.1-0.1l0.1-0.1c0,0,0.1-0.1,0.1-0.1S3.7,12,3.7,12v-0.1l-0.1-0.1l-0.1-0.1l-0.1-0.1
			c-0.1,0-0.1,0-0.1-0.1s-0.1,0-0.3,0H2.9l-0.3,0.1H2.4l-0.2,0.1c-0.1,0-0.1,0.1-0.3,0.1c-0.1,0-0.1,0.1-0.3,0.1l-0.2,0.1
			c-0.1,0.1-0.1,0.1-0.2,0.1S1.1,12.4,1,12.5c-0.1,0.1-0.2,0.2-0.2,0.3c-0.1,0.1-0.1,0.2-0.1,0.3c0,0.1-0.1,0.2-0.1,0.3
			s0,0.2,0.1,0.3l0.2,0.2c0.1,0.1,0.2,0.1,0.3,0.1c0.1,0,0.3,0.1,0.5,0.1c0.1,0,0.3,0,0.5-0.1c0.2,0,0.3-0.1,0.5-0.1l0.5-0.1
			l0.5-0.2l0.1-0.1l0.2-0.1c0.1,0,0.1-0.1,0.1-0.1l0.1-0.1v0.1c-0.1,0.1-0.1,0.2-0.1,0.3s0,0.1,0.1,0.1c0,0,0.1,0.1,0.1,0.1
			c0.1,0,0.1,0.1,0.1,0.1h0.2h0.1l0.2-0.1c0.1,0,0.1-0.1,0.2-0.1s0.1-0.1,0.2-0.1l0.1-0.1l0.1-0.1l0.1-0.1l0.1-0.1l0.1-0.1l0,0v0.1
			v0.1l0.1,0.1l0.1,0.1c0,0,0.1,0,0.1,0.1h0.1c0.1,0,0.2,0,0.3-0.1c0.1,0,0.3-0.1,0.3-0.1c0.1-0.1,0.3-0.1,0.3-0.2l0.3-0.1V13v0.1
			l0,0v0.1v0.1v0.1v0.2v0.1c0,0.1,0.1,0.1,0.1,0.1s0.1,0.1,0.1,0.1l0,0h0.1h0.1h0.1c0,0,0.1,0,0.1-0.1v-0.1v-0.1v-0.1v-0.1v-0.1
			v-0.1c0-0.1,0-0.1,0.1-0.1l0.1-0.1c0,0,0.1-0.1,0.1-0.1l0.1-0.1C8.4,13,8.5,13,8.5,12.9l0.3-0.1l0.3-0.1h0.2h0.1h0.2h0.1
			c0,0,0.1,0,0.1-0.1C9.8,12.6,9.8,12.5,9.8,12.5C9.9,12.5,9.8,12.5,9.8,12.5L9.8,12.5L9.8,12.5L9.8,12.5z M5.9,12.5v0.1v0.1
			c0,0.1-0.1,0.1-0.1,0.1l-0.2,0.2l-0.2,0.2l-0.2,0.1l-0.2,0.1c-0.1,0-0.1,0.1-0.1,0.1H4.8c0,0-0.1,0-0.1-0.1v-0.1
			c0-0.1,0.1-0.1,0.1-0.1s0.1-0.1,0.1-0.1l0.1-0.1l0.3-0.3c0.1-0.1,0.1-0.1,0.3-0.1c0.1-0.1,0.1-0.1,0.2-0.1L5.9,12.5L5.9,12.5
			C5.9,12.5,5.9,12.5,5.9,12.5C5.9,12.5,5.9,12.5,5.9,12.5L5.9,12.5L5.9,12.5L5.9,12.5C5.9,12.6,5.9,12.5,5.9,12.5z M10.6,12.1
			L10.6,12.1h0.1h0.1c0,0,0.1,0,0.1-0.1l0.1-0.1c0,0,0.1-0.1,0.1-0.1v-0.1c0,0,0-0.1-0.1-0.1l-0.1-0.1h-0.1h-0.1
			c-0.1,0-0.1,0-0.2,0.1s0.1,0.1,0.1,0.2v0.1v0.1L10.6,12.1L10.6,12.1C10.5,12,10.6,12.1,10.6,12.1z"/>
		<path style="fill:#FFE700;" d="M27.3,13.3L27.3,13.3h-0.1c-0.1,0-0.1,0.1-0.2,0.1l-0.1,0.1h-0.1h-0.2c-0.1,0-0.2,0-0.3-0.1
			c-0.1,0-0.1-0.1-0.2-0.1c-0.1-0.1-0.1-0.1-0.1-0.2v-0.2v-0.1c0,0,0-0.1,0.1-0.1v-0.1l0,0l0,0c0,0,0-0.1-0.1-0.1h-0.1h-0.2
			l-0.2,0.1l-0.1,0.1l-0.1,0.1c-0.1,0-0.1,0.1-0.1,0.1l-0.2,0.1c-0.1,0.1-0.1,0.1-0.2,0.1l-0.1,0.1v-0.1v-0.1V13
			c0-0.1,0-0.1,0.1-0.2c0,0,0-0.1,0.1-0.1v-0.1v-0.1v-0.1v-0.1v-0.1v-0.1h-0.1h-0.1h-0.1c-0.1,0-0.1,0-0.1,0.1l-0.1,0.1v0.1l0,0
			l-0.4,0.3c-0.1,0.1-0.3,0.2-0.5,0.3l-0.2,0.1h-0.1h-0.1L22.9,13c0-0.1,0-0.1-0.1-0.1v-0.1v-0.1l0.1-0.1c0,0,0-0.1,0.1-0.1v-0.1
			c0,0,0-0.1-0.1-0.1l-0.1-0.1l0,0h-0.1l0,0l0,0l-0.1-0.1h-0.1h-0.1c-0.1,0-0.3,0-0.5,0.1c-0.1,0-0.3,0.1-0.4,0.1s-0.2,0.1-0.3,0.2
			l-0.2,0.2l-0.1,0.1l-0.5,0.3l-0.4,0.2c-0.1,0-0.1,0.1-0.3,0.1l-0.3,0.1c-0.1,0-0.2,0.1-0.3,0.1h-0.3c-0.1,0-0.3,0-0.4-0.1
			c-0.1-0.1-0.1-0.1-0.1-0.2l0.3-0.1l0.3-0.1l0.3-0.1c0.1-0.1,0.1-0.1,0.2-0.1l0.1-0.1v-0.1c0-0.1,0-0.1-0.1-0.1
			c0,0-0.1-0.1-0.1-0.1h-0.1h-0.1h-0.1h-0.1h-0.1h-0.1l-0.1,0.1c-0.1,0-0.1,0.1-0.1,0.1c-0.2,0.1-0.3,0.3-0.4,0.4
			c-0.1,0.1-0.1,0.2-0.1,0.3L18,13.1l-0.3,0.1l-0.3,0.1l-0.3,0.1l-0.1,0.1l0,0c0,0,0.1-0.1,0.1-0.1l0.1-0.1l0.1-0.1l0.1-0.1
			c0-0.1,0.1-0.1,0.1-0.1v-0.1c0-0.1,0-0.1-0.1-0.1s-0.1-0.1-0.2-0.1c-0.1,0-0.1,0-0.2-0.1c-0.1,0-0.2,0-0.3,0.1
			c-0.1,0-0.3,0.1-0.4,0.1l-0.5,0.2c-0.1,0.1-0.2,0.1-0.4,0.3l0,0V13v-0.1v-0.1v-0.1v-0.1v-0.1v-0.1c0-0.1,0.1-0.1,0.1-0.2l0.1-0.2
			l0.1-0.2v-0.2v-0.1v-0.1c0,0,0-0.1-0.1-0.1c0,0-0.1-0.1-0.1-0.1l0,0c-0.1,0-0.1,0.1-0.1,0.1c-0.1,0,0.1,0.3,0.1,0.3l-0.1,0.1
			l-0.1,0.1L15.4,12l-0.1,0.1l-0.1,0.4c-0.1,0.1-0.1,0.1-0.1,0.2c-0.1,0.1-0.2,0.1-0.3,0.2c-0.1,0.1-0.3,0.1-0.4,0.3L14,13.4
			c0,0,0-0.1,0.1-0.1c0.1-0.1,0.1-0.1,0.1-0.1s0.1-0.1,0.1-0.1v-0.1v-0.1c0-0.1-0.1-0.1-0.1-0.1c0,0-0.1-0.1-0.1-0.1
			c-0.1-0.1-0.3,0-0.5,0c-0.1,0.1-0.3,0.1-0.4,0.1s-0.3,0.1-0.4,0.3l-0.3,0.2l0.1-0.2c0-0.1,0.1-0.1,0.1-0.3l0.1-0.2l0.1-0.1
			c0-0.1,0.1-0.1,0.1-0.1l0.1-0.1l0.1-0.1v-0.1c0-0.1-0.1-0.2-0.1-0.2h-0.1c0,0-0.1,0-0.1,0.1l-0.1,0.1c0,0.1-0.1,0.1-0.1,0.1
			l-0.1,0.1l-0.1,0.2l-0.1,0.2l-0.1,0.2c0,0.1,0,0.1-0.1,0.1l-0.1,0.1L12,13l-0.1,0.1l-0.1,0.1l-0.5,0.3c-0.1,0.1-0.2,0.1-0.3,0.1
			l-0.3,0.1h-0.2h-0.1c0,0-0.1,0-0.1-0.1s0-0.1-0.1-0.1v-0.1v-0.1c0-0.1,0-0.1,0.1-0.1c0-0.1,0-0.1,0.1-0.1c0-0.1,0.1-0.1,0.1-0.1
			l0.1-0.1v-0.1c0-0.1-0.1-0.1-0.1-0.1h-0.2h-0.1l-0.1,0.1l-0.1,0.1v0.1v0.1v0.1v0.1v0.1v0.1v0.1v0.2v0.2v0.1c0,0.1,0.1,0.1,0.1,0.1
			c0.1,0,0.1,0.1,0.2,0.1h0.2h0.3c0.1,0,0.3-0.1,0.3-0.1l0.4-0.2l0.5-0.3c0.1,0,0.1-0.1,0.1-0.1v0.1l-0.1,0.1v0.1v0.1l0,0h0.1h0.1
			l0,0l-0.1,0.1l0,0c0,0,0,0.1,0.1,0.1c0,0,0.1,0.1,0.1,0.1l0.1,0.1h0.1H13l0.3-0.1l0,0h0.1l0.2-0.1c0.1,0,0.2-0.1,0.3-0.1l0.3-0.1
			l0.3-0.1l0.3-0.1c0.1-0.1,0.3-0.1,0.3-0.2l0.3-0.2l0,0l-0.1,0.2v0.1v0.1v0.1v0.1v0.1v0.1v0.1v0.1v0.1h0.1c0,0,0,0.1,0.1,0.1
			l0.1,0.1l0.1,0.1h0.1h0.1h0.1h0.1H16h0.1l0.2-0.1l0.2-0.1l0.3-0.1l0.2-0.1l0.3-0.1l0.3-0.1l0.1-0.1l0.2-0.1l0.2-0.1l0.2-0.1h0.1
			c0,0.1,0.1,0.3,0.2,0.3c0.1,0.1,0.3,0.1,0.6,0.1l0,0c0.1,0,0.3,0,0.4-0.1c0.1,0,0.3-0.1,0.4-0.1l0.4-0.1l0.4-0.2l0.1-0.1
			c0,0.1-0.1,0.1-0.1,0.2c0,0.1,0,0.1,0.1,0.1c0,0,0.1,0.1,0.1,0.1s0.1,0.1,0.1,0.1h0.2h0.1l0.2-0.1l0.2-0.1
			c0.1-0.1,0.1-0.1,0.2-0.1l0.1-0.1l0.1-0.1l0.1-0.1l0.1-0.1l0.1-0.1l0,0v0.1v0.1l0.1,0.1l0.1,0.1c0,0,0.1,0,0.1,0.1h0.1
			c0.1,0,0.2,0,0.3-0.1c0.1,0,0.3-0.1,0.3-0.1c0.1-0.1,0.3-0.1,0.3-0.2l0.3-0.2l0,0c0,0.1,0,0.2-0.1,0.3l-0.1,0.2v0.1v0.1v0.1v0.1
			v0.1l0.1,0.1H24h0.1h0.1h0.1c0,0,0.1,0,0.1-0.1l0.1-0.1c0,0,0.1-0.1,0.1-0.1l0.1-0.1l0.2-0.1l0.2-0.1l0.2-0.1l0.1-0.1
			c0,0.1,0,0.2,0.1,0.3c0.1,0.1,0.1,0.2,0.2,0.3c0.1,0.1,0.2,0.1,0.3,0.1c0.1,0,0.3,0.1,0.4,0.1h0.4c0.1,0,0.2-0.1,0.3-0.1
			s0.1-0.1,0.2-0.1c0.1-0.1,0.1-0.1,0.1-0.1L27.3,13.3L27.3,13.3L27.3,13.3L27.3,13.3L27.3,13.3L27.3,13.3z M13.9,13.1
			c0,0-0.1,0.1-0.1,0.1s-0.1,0.1-0.1,0.1l-0.1,0.1l-0.1,0.1c0,0-0.1,0.1-0.1,0.1l-0.1,0.1h-0.2h-0.2h-0.3c0,0-0.1,0-0.1-0.1
			s0.1-0.1,0.1-0.1l0.2-0.2c0.1-0.1,0.1-0.1,0.3-0.2c0.1-0.1,0.2-0.1,0.3-0.1c0.1-0.1,0.2-0.1,0.3-0.1c0.1,0,0.2-0.1,0.3-0.1h0.1
			v0.1L13.9,13.1C13.9,13,13.9,13,13.9,13.1z M16.9,13.1l-0.1,0.1l-0.1,0.1l-0.1,0.1c-0.1,0-0.1,0.1-0.1,0.1l-0.1,0.1
			c-0.1,0-0.1,0.1-0.2,0.1l-0.1,0.1h-0.1h-0.1l0,0l0,0l0,0v-0.1l0,0v-0.1c0,0,0-0.1,0.1-0.1l0.1-0.1l0.1-0.1l0.1-0.1l0.1-0.1
			c0,0,0.1-0.1,0.1-0.1l0.1-0.1l0.1-0.1l0.1-0.1c0,0,0.1,0,0.1-0.1l0.1-0.1l0.2-0.1h0.1l0,0h0.1h0.1l0,0v0.1c0,0-0.1,0.1-0.1,0.1
			C17.1,13,16.9,13.1,16.9,13.1z M18.7,13L18.7,13c0-0.1,0-0.1,0.1-0.1c0,0,0-0.1,0.1-0.1c0.1-0.1,0.1-0.1,0.3-0.2
			c0.1-0.1,0.1-0.1,0.3-0.1h0.1l0,0v0.1l-0.1,0.1l-0.1,0.1c-0.1,0-0.1,0.1-0.1,0.1s-0.1,0.1-0.2,0.1C18.9,12.9,18.7,13,18.7,13z
			 M22.3,12.5c0,0.1,0,0.1-0.1,0.1v0.1c0,0.1-0.1,0.1-0.1,0.1L22,13.1l-0.2,0.2l-0.2,0.1l-0.2,0.1c-0.1,0-0.1,0.1-0.1,0.1h-0.1
			c0,0-0.1,0-0.1-0.1v-0.1c0-0.1,0.1-0.1,0.1-0.1c0,0,0.1-0.1,0.1-0.1l0.1-0.1l0.3-0.3c0.1-0.1,0.1-0.1,0.3-0.1
			c0.1-0.1,0.1-0.1,0.2-0.1h0.2l0,0C22.3,12.5,22.3,12.5,22.3,12.5L22.3,12.5C22.3,12.5,22.3,12.5,22.3,12.5z M37.4,11.9h0.2
			c0.1,0,0.2,0,0.3-0.1s0.1-0.1,0.1-0.2s0-0.1-0.1-0.1h-0.2h-0.1c-0.1,0-0.1,0.1-0.2,0.1s-0.1,0.1-0.1,0.1
			C37.2,11.9,37.3,11.9,37.4,11.9z"/>
		<path style="fill:#FFE700;" d="M44.1,13.1c-0.1,0-0.1,0.1-0.1,0.1l-0.1,0.1l-0.1,0.1l-0.2,0.1l-0.2,0.1l-0.2,0.1H43
			c-0.1,0-0.3-0.1-0.3-0.1s-0.1-0.2-0.1-0.4v-0.1v-0.1v-0.1l0.1-0.1l0.1-0.5c0.1-0.1,0.1-0.3,0.1-0.3l0,0l0,0c0,0,0-0.1-0.1-0.1
			h-0.1c-0.1,0-0.1,0-0.1,0.1c-0.1,0-0.1,0.1-0.1,0.1l-0.1,0.2l-0.1,0.3l0.1,0.1l-0.1,0.3L42,12.9l-0.2,0.2l-0.2,0.1l-0.2,0.1
			l-0.2,0.1h-0.1c-0.1,0-0.1,0-0.1-0.1c0,0-0.1-0.1-0.1-0.1s-0.1-0.1-0.1-0.1v-0.1v-0.1c0,0,0-0.1,0.1-0.1c0,0,0-0.1,0.1-0.1v-0.1
			v-0.1l0,0l0,0c0-0.1-0.1-0.1-0.1-0.1c-0.1,0-0.1-0.1-0.2-0.1h-0.3H40c-0.1,0-0.1,0.1-0.2,0.1l-0.2,0.1c-0.1,0-0.1,0.1-0.1,0.1
			l-0.1,0.1l0,0h-0.1l-0.2,0.1l-0.2,0.1l-0.3,0.1l-0.3,0.1l-0.3,0.1c-0.1,0.1-0.3,0.1-0.4,0.1s-0.2-0.1-0.2-0.1
			c-0.1-0.1-0.1-0.2-0.1-0.3v-0.1l0.1-0.2v-0.1v-0.1c0-0.1,0-0.1-0.1-0.1s-0.2,0-0.3,0.1c-0.1,0-0.1,0.1-0.1,0.1l-0.2,0.1l-0.3,0.1
			l-0.3,0.2l-0.3,0.1l-0.3,0.1c-0.1,0-0.2,0.1-0.3,0.1l-0.3,0.1h-0.3h-0.1l-0.1-0.1l-0.1-0.1v-0.1v-0.1c0-0.1,0-0.1,0.1-0.1l0.1-0.1
			c0-0.1,0.1-0.1,0.1-0.1l0.1-0.1l0.1-0.1c0.1,0,0.1-0.1,0.1-0.1h0.1c0,0,0.1,0,0.1,0.1c0,0,0.1,0.1,0.1,0.1v0.1c0,0.1,0,0,0.1,0.1
			h0.1h0.1h0.1c0,0,0.1,0,0.1-0.1v-0.1v-0.1v-0.1c0,0,0-0.1-0.1-0.1l-0.1-0.1l-0.1-0.1c0,0-0.1-0.1-0.1-0.1H35l-0.2,0.1
			c-0.1,0-0.1,0.1-0.1,0.1l-0.1,0.1l-0.1,0.1h-0.1h-0.2H34h-0.5l-0.3-0.1L33,12.4h-0.1h-0.1c0,0-0.1-0.1-0.1-0.1c0,0-0.1,0-0.1-0.1
			h-0.3L32,12.3c-0.1,0-0.1,0.1-0.2,0.1c-0.1,0-0.1,0.1-0.2,0.1h-0.1l0,0l-0.1,0.1l-0.1,0.1l-0.2,0.1l-0.3,0.1l-0.2,0.1l-0.3,0.1
			l-0.2,0.1h-0.1L30,13.2l-0.1-0.1l-0.1-0.1c0-0.1-0.1-0.1-0.1-0.1c-0.1-0.1-0.1-0.1-0.1-0.1h0.1c0,0,0.1,0,0.1-0.1l0.1-0.1l0.1-0.1
			l0,0l0.1-0.1c0.1-0.1,0.1-0.1,0-0.2c0-0.1-0.1-0.1-0.1-0.1s-0.2,0.1-0.3,0.1s-0.2,0.1-0.3,0.1s-0.1,0.1-0.1,0.1
			c-0.1,0.1-0.1,0.1-0.1,0.1c-0.1,0.1-0.1,0.1-0.1,0.2c0,0.1,0,0.1,0.1,0.2l0.1,0.1l0.1,0.1c0.1,0.1,0.1,0.1,0.1,0.2
			c0,0.1,0,0.1-0.1,0.1l-0.4,0.1c-0.1,0-0.3,0.1-0.4,0.1c-0.1,0.1-0.1,0.1-0.1,0.2c0,0.1,0.1,0.1,0.1,0.1h0.1c0.1,0,0.3-0.1,0.5-0.1
			l0.3-0.1l0.3-0.1l0.2-0.1l0.2-0.1l0.2-0.1l0.2-0.1h0.1v0.2c0,0,0,0.1,0.1,0.1l0.1,0.1l0.1,0.1c0.1,0,0.1,0.1,0.2,0.1h0.3h0.3
			l0.3-0.1l0.2-0.1c0.1-0.1,0.2-0.1,0.3-0.2c0.1-0.1,0.2-0.1,0.3-0.3c0.1-0.1,0.1-0.2,0.1-0.3v-0.1l0.3,0.1h0.4h0.4h0.1
			c-0.1,0.1-0.1,0.3-0.1,0.4l0,0v0.2c0,0.1,0.1,0.1,0.1,0.1c0.1,0.1,0.1,0.1,0.2,0.1c0.1,0,0.2,0.1,0.3,0.1h0.3l0.3-0.1l0.3-0.1
			l0.3-0.1l0.4-0.2l0.4-0.2l0.3-0.2v0.1c0,0.1,0,0.3,0.1,0.3c0.1,0.1,0.1,0.2,0.3,0.3c0.1,0.1,0.3,0.1,0.5,0.1s0.4-0.1,0.6-0.1
			l0.3-0.1l0.3-0.1H39v0.1v0.1c0,0.1,0,0.1,0.1,0.1s0.1,0.1,0.1,0.1s0.1,0.1,0.1,0.1h0.1c0.1,0,0.2,0,0.3-0.1c0.1,0,0.2-0.1,0.3-0.1
			c0.1-0.1,0.2-0.1,0.3-0.2s0.1-0.1,0.2-0.2l0,0c0,0.1,0.1,0.1,0.1,0.1c0,0.1,0.1,0.1,0.1,0.1c0.1,0,0.1,0.1,0.1,0.1h0.2h0.2
			l0.3-0.1c0.1-0.1,0.2-0.1,0.3-0.1s0.2-0.1,0.3-0.2c0.1,0,0.1-0.1,0.1-0.1v0.1c0,0.1,0.1,0.2,0.1,0.3c0,0.1,0.1,0.1,0.1,0.2
			s0.1,0.1,0.3,0.1c0.1,0,0.2,0.1,0.3,0.1h0.3c0.1,0,0.2-0.1,0.3-0.1l0.3-0.1l0.2-0.1c0,0,0.1,0,0.1-0.1l0.1-0.1l0.1-0.1
			C44.2,13.3,44.2,13.2,44.1,13.1C44.2,13.2,44.2,13.1,44.1,13.1L44.1,13.1L44.1,13.1L44.1,13.1z M32.7,13
			C32.7,13.1,32.7,13.1,32.7,13l-0.1,0.1l-0.1,0.1l-0.1,0.1l-0.1,0.1l-0.1,0.1c-0.1,0-0.1,0.1-0.2,0.1s-0.1,0-0.1,0.1h-0.1h-0.2
			h-0.1c0,0-0.1,0-0.1-0.1c0,0-0.1,0-0.1-0.1v-0.1v-0.1v-0.1v-0.1c0-0.1,0.1-0.1,0.1-0.1l0.1-0.1l0.1-0.1l0.1-0.1l0.1-0.1
			c0,0,0.1,0,0.1-0.1h0.1h0.1h0.1l0.2,0.1l0,0l0,0h0.1l0.1,0.1l0.1,0.1C32.7,12.9,32.8,12.9,32.7,13L32.7,13L32.7,13
			C32.7,13,32.7,13,32.7,13z M40.4,12.9c-0.1,0.1-0.1,0.2-0.2,0.3l-0.1,0.1l-0.2,0.1c-0.1,0-0.1,0.1-0.2,0.1h-0.1h-0.1
			c0,0-0.1,0-0.1-0.1s0-0.1,0.1-0.2c0-0.1,0.1-0.1,0.1-0.2l0.1-0.2l0.2-0.1l0.1-0.1l0.1-0.1h0.1h0.1h0.1h0.1h0.1
			C40.5,12.7,40.5,12.9,40.4,12.9L40.4,12.9z"/>
	</g>
</g>
</svg>
