<?xml version="1.0" encoding="utf-8"?>
<svg version="1.1" id="Layer_1" xmlns="http://www.w3.org/2000/svg" xmlns:xlink="http://www.w3.org/1999/xlink" x="0px" y="0px"
	 viewBox="0 0 1872.6 639.6" style="enable-background:new 0 0 1872.6 639.6;" xml:space="preserve">
<g>
	<g>
		<path style="fill:#AAD63E;" d="M168.6,138c9-40.2,17.4-75.6,48-105.6C237.6,12,265.2,0,294.6,0c0,0,11.4,0,18.6,1.2l-2.4,15
			c0,0-15.6-2.4-25.2,0c-12.6,3-19.8,8.4-28.8,16.8c-16.2,16.2-21.6,34.8-31.8,78.6l-32.4,145.2h81l-4.8,19.2h-81l-51,225.6
			c-9,40.2-17.4,75.6-48,105.6c-21,20.4-48.6,32.4-78.6,32.4H0l5.4-16.8c3,0,6.6,0,9-0.6c16.2-2.4,27-7.8,36-19.8
			c15-19.2,18.6-31.2,29.4-74.4l56.4-251.4H57l4.8-19.2H141L168.6,138z"/>
		<path style="fill:#AAD63E;" d="M1269,349.2h-115.2c7.8-29.4,31.8-76.2,74.4-76.2C1274.4,272.4,1275.6,319.2,1269,349.2
			 M1232.4,249c-60.6,0-114.6,40.8-127.2,105c-21.6,109.2,59.4,129.6,93.6,129.6c29.4,0,52.2-10.2,69.6-23.4l-15.6-18
			c-12.6,7.8-26.4,13.2-42.6,13.2c-56.4,0-64.2-48-61.2-81.6h162C1327.8,319.8,1309.8,249,1232.4,249"/>
		<path style="fill:#AAD63E;" d="M568.8,85.2c0,0-67.8,291.6-73.8,326.4c-9,54,19.2,61.8,34.2,64.2c27.6,4.2,45.6-0.6,45.6-0.6l3-18
			c0,0-10.2,3.6-22.8,1.2c-17.4-3-19.8-13.2-15.6-42.6c5.4-34.2,76.8-331.2,76.8-331.2h-47.4V85.2z"/>
		<path style="fill:#AAD63E;" d="M1408.8,85.2c0,0-67.8,291.6-73.8,326.4c-9,54,19.2,61.8,34.2,64.2c27.6,4.2,45.6-0.6,45.6-0.6
			l3-18c0,0-10.2,3.6-22.8,1.2c-17.4-3-19.8-13.2-15.6-42.6c5.4-34.2,76.8-331.2,76.8-331.2h-47.4V85.2z"/>
		<path style="fill:#AAD63E;" d="M1512.6,85.2c0,0-67.8,291.6-73.8,326.4c-9,54,18.6,61.8,34.2,64.2c27.6,4.2,45.6-0.6,45.6-0.6
			l3-18c0,0-10.2,3.6-22.8,1.2c-17.4-3-19.8-13.2-15.6-42.6c5.4-34.2,76.8-331.2,76.8-331.2h-47.4V85.2z"/>
		<path style="fill:#AAD63E;" d="M406.8,381c-5.4,18-27,81.6-78,81.6c-60.6,0-31.2-91.8-26.4-109.8c4.8-17.4,27-82.2,76.2-82.2
			C438,270.6,412.2,363,406.8,381 M433.8,255l-5.4,22.8h-1.8c-12-22.8-34.2-29.4-57-29.4c-69,0-108.6,57-120,111.6
			c-16.8,78,7.2,123,72,123c28.2,0,49.8-7.2,77.4-32.4l12,25.2h22.8l48-220.8L433.8,255L433.8,255z"/>
		<path style="fill:#AAD63E;" d="M770.4,381c-5.4,18-27,81.6-78,81.6c-60.6,0-31.2-91.8-26.4-109.8c4.8-17.4,27-82.8,75.6-82.8
			C801.6,270.6,775.8,363,770.4,381 M797.4,255l-5.4,22.8h-1.2c-12-22.8-34.2-29.4-57-29.4c-69,0-108.6,57-120,111.6
			c-16.8,78,7.2,123,72,123c28.2,0,49.8-7.2,77.4-32.4l12,25.2H798L846,255L797.4,255L797.4,255z"/>
		<path style="fill:#AAD63E;" d="M1709.4,381c-5.4,18-27,81.6-78,81.6c-60.6,0-31.2-91.8-26.4-109.8c4.8-17.4,26.4-82.8,75.6-82.8
			C1740.6,270.6,1714.8,363,1709.4,381 M1736.4,255l-5.4,22.8h-1.2c-12.6-22.8-34.2-29.4-57-29.4c-69,0-108,57-120,111.6
			c-16.8,78,7.2,123,72,123c28.2,0,49.8-7.2,77.4-32.4l12,25.2h22.8l48-220.8L1736.4,255L1736.4,255z"/>
		<path style="fill:#AAD63E;" d="M1021.8,383.4c-4.8,18-26.4,81.6-72,81.6c-54.6,0-36.6-91.8-31.8-109.8c7.2-28.8,23.4-81,68.4-81
			C1047.6,274.2,1026.6,364.8,1021.8,383.4 M1004.4,250.2c-27,0-55.2,12-69.6,32.4H933l45-196.8h-50.4c0,0-70.2,303.6-89.4,392.4
			h28.2l22.8-25.2c16.8,25.2,34.8,32.4,63.6,32.4c64.8,0,107.4-45,124.2-123C1089,307.2,1073.4,250.2,1004.4,250.2"/>
	</g>
	<path style="fill:#AAD63E;" d="M1811.4,442.8c0-16.8,13.8-30.6,30.6-30.6c16.8,0,30.6,13.8,30.6,30.6c0,16.8-13.8,30.6-30.6,30.6
		C1824.6,473.4,1811.4,460.2,1811.4,442.8"/>
</g>
</svg>
