<?xml version="1.0"?>
<svg xmlns="http://www.w3.org/2000/svg" xmlns:xlink="http://www.w3.org/1999/xlink" xmlns:svgjs="http://svgjs.com/svgjs" version="1.1" width="512" height="512" x="0" y="0" viewBox="0 0 460 460" style="enable-background:new 0 0 512 512" xml:space="preserve" class=""><g>
<g xmlns="http://www.w3.org/2000/svg">
	<path style="" d="M457.028,193.029C439.341,83.584,344.439,0,230,0C102.974,0,0,102.975,0,230   c0,20.18,2.608,39.748,7.489,58.397L457.028,193.029z" fill="#f1f1f1" data-original="#2db8d4" class=""/>
	<path style="" d="M457.028,193.029L334.999,71v209.998L125.001,71v217.399H452.52   c4.881-18.648,7.48-38.22,7.48-58.399C460,217.413,458.973,205.067,457.028,193.029z" fill="#f1f1f1" data-original="#0c8faa" class=""/>
	<path style="" d="M125.001,91l-64.865,99.998L7.489,288.397c16.694,63.784,60.085,116.761,117.516,146.28   l9.998-181.839L125.001,91z" fill="#9fc657" data-original="#9fc657" class=""/>
	<polygon style="" points="189.864,190.998 125.001,91 125.001,434.685 324.358,439.812  " fill="#7fb21e" data-original="#7fb21e" class=""/>
	<polygon style="" points="334.999,91 270.135,190.998 135.642,439.812 334.998,434.683 344.998,252.841  " fill="#7fb21e" data-original="#7fb21e" class=""/>
	<path style="" d="M334.999,434.685c57.432-29.521,100.817-82.503,117.512-146.288l-52.65-97.399L334.999,91V434.685z" fill="#557714" data-original="#557714" class=""/>
	<path style="" d="M190,60c0,22.091,17.909,40,40,40l10-40l-10-40C207.909,20,190,37.909,190,60z" fill="#ffd170" data-original="#ffd170"/>
	<path style="" d="M230,20v80c22.091,0,40-17.909,40-40S252.091,20,230,20z" fill="#ffc240" data-original="#ffc240"/>
	<polygon style="" points="60.136,191 92.567,211 124.997,191 134.999,131 125.001,71  " fill="#ffffff" data-original="#ffffff" class=""/>
	<polygon style="" points="125.001,71 124.997,191 157.432,211 189.866,191  " fill="#c4f5ff" data-original="#c4f5ff" class=""/>
	<polygon style="" points="270.134,191 302.565,211 334.995,191 344.997,131 334.999,71  " fill="#ffffff" data-original="#ffffff" class=""/>
	<polygon style="" points="334.999,71 334.995,191 367.43,211 399.864,191  " fill="#89ebff" data-original="#89ebff" class=""/>
	<path style="" d="M7.489,288.397c15.207,58.102,52.564,107.241,102.507,137.85H240l-67.5-137.85H7.489z" fill="#557714" data-original="#557714" class=""/>
	<path style="" d="M452.511,288.397c-15.207,58.102-52.564,107.241-102.507,137.85H230l57.5-137.85H452.511z" fill="#405a0f" data-original="#405a0f"/>
	<path style="" d="M110,426.242C144.936,447.651,186.024,460,230,460l10-85.802l-10-85.802h-57.5L110,426.242z" fill="#064855" data-original="#064855" class=""/>
	<path style="" d="M230,288.397V460c43.976,0,85.064-12.349,120-33.758l-62.5-137.845H230z" fill="#03242b" data-original="#03242b"/>
	<path style="" d="M220,459.771c3.317,0.142,6.648,0.229,10,0.229l5-25.802l-5-25.802h-10V459.771z" fill="#ffffff" data-original="#ffffff" class=""/>
	<path style="" d="M240,459.771v-51.374h-10V460C233.352,460,236.683,459.913,240,459.771z" fill="#c4f5ff" data-original="#c4f5ff" class=""/>
	<polygon style="" points="220,388.397 230,388.397 235,365.897 230,343.397 220,343.397  " fill="#ffffff" data-original="#ffffff" class=""/>
	<rect x="230" y="343.397" style="" width="10" height="45" fill="#c4f5ff" data-original="#c4f5ff" class=""/>
	<polygon style="" points="220,288.397 220,323.397 230,323.397 235,305.897 230,288.397  " fill="#ffffff" data-original="#ffffff" class=""/>
	<rect x="230" y="288.397" style="" width="10" height="35" fill="#c4f5ff" data-original="#c4f5ff" class=""/>
</g>
<g xmlns="http://www.w3.org/2000/svg">
</g>
<g xmlns="http://www.w3.org/2000/svg">
</g>
<g xmlns="http://www.w3.org/2000/svg">
</g>
<g xmlns="http://www.w3.org/2000/svg">
</g>
<g xmlns="http://www.w3.org/2000/svg">
</g>
<g xmlns="http://www.w3.org/2000/svg">
</g>
<g xmlns="http://www.w3.org/2000/svg">
</g>
<g xmlns="http://www.w3.org/2000/svg">
</g>
<g xmlns="http://www.w3.org/2000/svg">
</g>
<g xmlns="http://www.w3.org/2000/svg">
</g>
<g xmlns="http://www.w3.org/2000/svg">
</g>
<g xmlns="http://www.w3.org/2000/svg">
</g>
<g xmlns="http://www.w3.org/2000/svg">
</g>
<g xmlns="http://www.w3.org/2000/svg">
</g>
<g xmlns="http://www.w3.org/2000/svg">
</g>
</g></svg>
