<?xml version="1.0" encoding="utf-8"?>
<svg version="1.1" id="Layer_1" xmlns="http://www.w3.org/2000/svg" xmlns:xlink="http://www.w3.org/1999/xlink" x="0px" y="0px"
	 viewBox="0 0 1920 416.49" style="enable-background:new 0 0 1920 416.49;" xml:space="preserve">
<g>
	<path d="M0,5.91h138.83c88.62,0,144.74,70.89,144.74,168.37c0,53.17-17.72,100.43-53.17,129.97
		c-23.63,20.68-56.12,32.49-97.48,32.49H0V5.91z M128.49,279.14c63.51,0,87.14-38.4,87.14-103.38S187.57,64.98,129.97,64.98H66.46
		v215.63h62.03V279.14z M293.91,218.58c0-70.89,50.22-125.54,124.06-125.54s124.06,54.65,124.06,125.54s-50.22,125.54-124.06,125.54
		S293.91,288,293.91,218.58L293.91,218.58z M477.05,218.58c0-45.78-22.15-78.28-60.55-78.28s-60.55,31.02-60.55,78.28
		s20.68,76.8,60.55,76.8S477.05,264.37,477.05,218.58z M553.85,218.58c0-70.89,45.78-125.54,118.15-125.54
		c62.03,0,98.95,35.45,107.82,87.14h-62.03c-4.43-20.68-20.68-36.92-42.83-36.92c-38.4,0-57.6,29.54-57.6,75.32
		c0,44.31,17.72,75.32,56.12,75.32c25.11,0,42.83-13.29,47.26-39.88h62.03c-4.43,50.22-42.83,90.09-106.34,90.09
		C601.11,342.65,553.85,288,553.85,218.58L553.85,218.58z M948.18,336.74v-28.06h-1.48c-16.25,22.15-33.97,33.97-67.94,33.97
		c-53.17,0-82.71-33.97-82.71-85.66V98.95h62.03v147.69c0,28.06,11.82,42.83,39.88,42.83c29.54,0,47.26-22.15,47.26-53.17V98.95
		h63.51v236.31h-60.55L948.18,336.74z M1314.46,7.38h63.51v59.08h-63.51V7.38z M1314.46,98.95h63.51v236.31h-63.51V98.95
		L1314.46,98.95z M1403.08,342.65h62.03c4.43,14.77,19.2,26.58,47.26,26.58c35.45,0,53.17-17.72,53.17-48.74v-26.58h-1.48
		c-13.29,16.25-32.49,28.06-62.03,28.06c-53.17,0-104.86-41.35-104.86-113.72c0-70.89,42.83-115.2,101.91-115.2
		c29.54,0,51.69,11.82,64.98,31.02h1.48V98.95h60.55v218.58c0,33.97-10.34,56.12-28.06,72.37c-19.2,19.2-50.22,26.58-85.66,26.58
		C1450.34,416.49,1410.46,389.91,1403.08,342.65L1403.08,342.65z M1569.97,206.77c0-33.97-19.2-63.51-56.12-63.51
		c-32.49,0-53.17,25.11-53.17,64.98s20.68,63.51,53.17,63.51C1553.72,271.75,1569.97,242.22,1569.97,206.77L1569.97,206.77z
		 M1716.18,131.45c17.72-25.11,39.88-38.4,70.89-38.4c48.74,0,81.23,36.92,81.23,88.62v155.08h-63.51V192
		c0-25.11-14.77-42.83-41.35-42.83c-28.06,0-48.74,22.15-48.74,54.65v134.4h-60.55V101.91h62.03V131.45L1716.18,131.45z
		 M1171.2,137.35c-48.74-10.34-70.89-19.2-70.89-45.78c0-23.63,23.63-38.4,59.08-38.4c32.49,0,57.6,14.77,63.51,45.78h64.98
		C1280.49,35.45,1233.23,0,1159.38,0s-127.02,33.97-127.02,98.95c0,69.42,54.65,84.18,113.72,97.48
		c50.22,11.82,81.23,17.72,81.23,50.22c0,31.02-29.54,42.83-63.51,42.83c-47.26,0-69.42-16.25-73.85-56.12h-64.98
		c2.95,69.42,53.17,109.29,143.26,109.29c73.85,0,128.49-36.92,128.49-104.86C1295.26,168.37,1239.14,152.12,1171.2,137.35
		L1171.2,137.35z"/>
	<g>
		<path d="M1894.89,143.26c-13.29,0-25.11-11.82-25.11-25.11s11.82-25.11,25.11-25.11s25.11,11.82,25.11,25.11
			S1908.18,143.26,1894.89,143.26z M1894.89,97.48c-11.82,0-20.68,8.86-20.68,20.68s8.86,20.68,20.68,20.68s20.68-8.86,20.68-20.68
			S1906.71,97.48,1894.89,97.48z"/>
		<path d="M1886.03,104.86h8.86c2.95,0,5.91,0,7.38,1.48s2.95,2.95,2.95,5.91c0,4.43-2.95,5.91-4.43,7.38l5.91,10.34h-5.91
			l-4.43-8.86h-5.91v8.86h-4.43L1886.03,104.86L1886.03,104.86z M1890.46,109.29v7.38h4.43c1.48,0,4.43,0,4.43-4.43
			c0,0,0-2.95-1.48-2.95H1890.46z"/>
	</g>
</g>
</svg>
