<?xml version="1.0" encoding="utf-8"?>
<svg version="1.1" id="Layer_1" xmlns="http://www.w3.org/2000/svg" xmlns:xlink="http://www.w3.org/1999/xlink" x="0px" y="0px"
	width="100px" height="100px" viewBox="0 0 520.04 520.04" style="enable-background:new 0 0 520.04 520.04;" xml:space="preserve">
<g>
	<g>
		<path style="fill:#E8E8E8;" d="M260.02,0C403.6,0,520.04,116.44,520.04,260.02c0,143.58-116.44,260.02-260.02,260.02
			S0,403.6,0,260.02C0,116.44,116.44,0,260.02,0"/>
		<path style="fill:#FFFFFF;" d="M260.02,5.2c140.72,0,254.82,114.1,254.82,254.82s-114.1,254.82-254.82,254.82
			S5.2,400.74,5.2,260.02S119.3,5.2,260.02,5.2"/>
	</g>
	<g>
		<path style="fill:#F06C00;" d="M224.42,317.52l4.98-4.5l4.71-4.85l4.04-4.81c1.2-1.58,2.2-3.04,2.98-4.38h5.57
			c-1.2,2.33-2.9,4.89-5.1,7.68c-2.19,2.79-4.63,5.53-7.29,8.22l9.49,15.2c0.58,0.88,1.11,1.53,1.61,1.94s1.14,0.62,1.92,0.62
			c0.84,0,1.6-0.21,2.28-0.62l-0.16,3.88c-0.42,0.26-0.98,0.49-1.69,0.7c-0.7,0.21-1.43,0.31-2.16,0.31c-1.52,0-2.78-0.32-3.81-0.97
			c-1.02-0.65-2.05-1.8-3.1-3.45l-8.55-13.65l-2.86,2.44l-2.86,2.21v13.1h-6.04v-48.63h-4.39v-4.42h8.79c0.63,0,1.06,0.1,1.29,0.31
			c0.24,0.21,0.35,0.6,0.35,1.16L224.42,317.52L224.42,317.52z M183.8,303.56c1.2-1.71,2.77-3.01,4.7-3.92
			c1.93-0.91,4.32-1.36,7.14-1.36c2.25,0,4.29,0.35,6.12,1.05c1.83,0.7,3.32,1.67,4.47,2.91c1.17,1.28,1.98,2.85,2.35,4.54
			c0.37,1.68,0.55,3.58,0.55,5.7v24.12h-6.04v-23.42c0-1.91-0.11-3.46-0.31-4.65c-0.21-1.19-0.76-2.25-1.65-3.18
			c-1.41-1.55-3.61-2.33-6.59-2.33c-3.24,0-5.7,0.96-7.37,2.87c-0.89,1.04-1.53,2.27-1.84,3.6c-0.34,1.37-0.51,3.17-0.51,5.39v21.71
			h-6.04V303.4h-4.39v-4.42h7.45c0.63,0,1.03,0.08,1.22,0.23c0.18,0.15,0.32,0.57,0.43,1.24L183.8,303.56L183.8,303.56z
			 M161.99,317.36c-0.73-0.21-1.8-0.41-3.22-0.62c-1.41-0.21-2.82-0.31-4.23-0.31c-3.61,0-6.13,0.77-7.57,2.33
			c-1.44,1.55-2.16,3.51-2.16,5.89c0,2.79,0.79,4.89,2.35,6.28c1.57,1.39,3.48,2.09,5.72,2.09c3.14,0,5.49-0.93,7.06-2.79
			c1.36-1.71,2.04-4.11,2.04-7.21C161.99,323.02,161.99,317.36,161.99,317.36z M172.19,335.81c-0.56,0.35-1.17,0.61-1.8,0.78
			c-0.77,0.21-1.56,0.31-2.35,0.31c-3.35,0-5.2-1.45-5.57-4.34c-0.99,1.55-2.45,2.73-4.35,3.53c-1.9,0.8-3.94,1.21-6,1.2
			c-3.92,0-7.11-1.06-9.57-3.18s-3.69-5.17-3.69-9.15c0-3.83,1.24-6.9,3.73-9.23c2.49-2.33,6.26-3.49,11.33-3.49
			c1.52,0,3.04,0.1,4.55,0.31c1.46,0.21,2.64,0.44,3.53,0.7v-2.02c0-1.45-0.15-2.65-0.43-3.6c-0.27-0.93-0.74-1.79-1.37-2.52
			c-0.68-0.77-1.64-1.4-2.86-1.86c-1.22-0.46-2.71-0.7-4.43-0.7c-1.99,0-3.88,0.24-5.69,0.7c-1.71,0.43-3.38,1.03-4.98,1.78
			l-0.08-4.42c1.36-0.62,3.03-1.16,5.02-1.63c1.99-0.47,4.1-0.7,6.35-0.7c2.67,0,4.99,0.32,6.98,0.97c1.98,0.65,3.58,1.64,4.79,2.98
			c1.83,2.01,2.74,4.99,2.74,8.92v18.22c0,1.14,0.13,1.97,0.39,2.48c0.26,0.51,0.81,0.77,1.65,0.77c0.84,0,1.62-0.23,2.35-0.7
			L172.19,335.81L172.19,335.81z M126.23,322.48c0-1.45-0.18-2.74-0.55-3.88c-0.36-1.13-0.99-2.07-1.88-2.79
			c-1.2-1.03-2.64-1.71-4.31-2.01c-1.67-0.31-3.74-0.47-6.2-0.47h-7.45v18.69h7.29c2.56,0,4.65-0.18,6.27-0.54
			c1.62-0.36,2.95-0.93,4-1.71c1.02-0.74,1.79-1.79,2.2-2.98C126.02,325.57,126.23,324.13,126.23,322.48 M123.88,300.22
			c0-1.24-0.25-2.47-0.74-3.68c-0.48-1.19-1.32-2.21-2.4-2.91c-0.97-0.63-2.07-1.05-3.21-1.24c-1.2-0.21-2.8-0.31-4.79-0.31h-6.9
			v17.06h6.98c2.2,0,3.97-0.15,5.33-0.47c1.36-0.31,2.48-0.88,3.37-1.71C123.09,305.52,123.88,303.27,123.88,300.22 M133.05,322.55
			c0,2.59-0.42,4.77-1.26,6.55c-0.81,1.75-2.07,3.24-3.65,4.34c-1.6,1.11-3.57,1.91-5.92,2.41c-2.35,0.49-5.02,0.73-8,0.73h-14.9
			v-44.51h-4.32v-4.58h18.35c2.62,0,4.89,0.17,6.82,0.5c1.93,0.33,3.66,1.02,5.18,2.05c1.62,1.03,2.82,2.39,3.61,4.07
			c0.78,1.68,1.18,3.5,1.18,5.46c0,2.74-0.52,4.99-1.57,6.75c-1.05,1.76-2.62,3.13-4.71,4.11c2.77,0.73,4.99,2.03,6.67,3.92
			C132.21,316.26,133.05,318.99,133.05,322.55 M355.62,282.45c45.21,0,76.44-29.63,82.24-35.57c0.65-0.66,1.72-0.68,2.4-0.04
			c0.66,0.63,0.69,1.68,0.06,2.34c-0.01,0.01-0.01,0.01-0.02,0.02c-1.45,1.49-4.58,4.54-9.1,8.23c-5.61,4.56-11.58,8.67-17.84,12.28
			c-8.26,4.76-16.85,8.52-25.54,11.19c-10.58,3.25-21.41,4.89-32.2,4.89c-0.3,0-0.6,0-0.89,0L355.62,282.45L355.62,282.45z"/>
		
			<linearGradient id="SVGID_1_" gradientUnits="userSpaceOnUse" x1="-692.9095" y1="870.4814" x2="-692.0483" y2="870.4814" gradientTransform="matrix(123.679 0 0 -19.946 85777.6172 17640.2617)">
			<stop  offset="0" style="stop-color:#F06C00;stop-opacity:0"/>
			<stop  offset="1" style="stop-color:#F06C00"/>
		</linearGradient>
		<path style="fill:url(#SVGID_1_);" d="M128.4,260.97c-8.56,1.95-16.18,4.44-22.67,7.39l0,0c-6.73,3.05-12.41,6.67-16.87,10.77l0,0
			c-4.68,4.29-7.8,9.2-9.03,14.19l0,0c-0.34,1.41-0.56,2.79-0.56,4.13l0,0c0,0.91,0.04,2.51,1.73,2.51l0,0
			c1.68,0,1.67-1.81,1.67-2.63l0,0c0-1.04,0.19-2.12,0.46-3.22l0,0c1.07-4.36,3.85-8.69,8.04-12.53l0,0
			c8.34-7.66,21.13-13.5,38-17.35l0,0c16.19-3.7,36.15-5.57,59.34-5.57l0,0c44.05,0,77.85,8.76,107.67,16.49l0,0
			c22.03,5.71,41.07,10.65,59.45,10.65l0,0h0.5v-3.35l-0.5,0l0,0c-17.95,0-36.78-4.88-58.59-10.54l0,0
			c-14.4-3.73-30.71-7.96-48.6-11.16l0,0c-20.49-3.66-40.1-5.44-59.93-5.44l0,0C165.05,255.32,144.83,257.22,128.4,260.97"/>
		<path style="fill:#F06C00;" d="M403.56,183.1h-3.9c-0.9,0-1.07,0.65-1.07,1.14c0,0.99,2.48,3.44,2.48,6.8
			c0,3.43-1.32,4.66-1.32,5.72c0,0.41,0.4,0.73,1,0.73h1.73C406.36,197.49,410.74,183.1,403.56,183.1L403.56,183.1L403.56,183.1z
			 M411.07,204.49c0-5.29,10.28-4.79,16.19-0.81c0.51,0.33,1.15,0.65,1.57,0.65c0.83,0,1.33-0.32,1.33-1.47v-2.67
			c0-0.9-0.25-1.72-1.25-2.11c-10.68-4.39-24.98-2.03-24.98,9.42c0,12.92,20.71,10.24,20.71,17.24c0,5.58-9.79,6.18-16.84,0.82
			c-0.5-0.41-0.99-0.66-1.57-0.66c-0.81,0-1.3,0.33-1.3,1.47v3.17c0,0.9,0.23,1.63,1.22,2.1c9.11,4.07,25.89,4.16,25.89-10.8
			C432.04,207.99,411.07,210.91,411.07,204.49L411.07,204.49L411.07,204.49z M428.92,198.09c0.03,0.01,0.08,0.03,0.14,0.05
			C429.02,198.12,428.98,198.1,428.92,198.09L428.92,198.09z M429.19,198.19c0.07,0.03,0.12,0.04,0.15,0.05
			C429.31,198.23,429.27,198.22,429.19,198.19L429.19,198.19z M206.02,195.72c-4.53,0-9.32,2.19-11.78,3.66l-0.17-1.87
			c0-0.57-0.41-0.99-0.99-0.99h-7.67c-0.41,0-0.82,0.42-0.82,0.99v34.58c0,0.57,0.41,0.99,0.82,0.99h7.91c0.59,0,1-0.41,1-0.99
			V204.2c1.57-0.92,4.86-2.54,7.66-2.54c5.46,0,5.79,3.27,5.79,6.05v24.39c0,0.57,0.41,0.99,0.81,0.99h7.93
			c0.58,0,0.99-0.41,0.99-0.99v-25.2C217.5,200.27,213.94,195.72,206.02,195.72L206.02,195.72L206.02,195.72z M357.31,196.32
			c-1.57-0.41-2.56-0.41-3.64-0.41c-4.57,0-8.27,3.74-9.84,6.01l-0.17-4.38c0-0.57-0.42-0.98-0.98-0.98h-7.65
			c-0.41,0-0.82,0.4-0.82,0.98v34.45c0,0.57,0.41,0.98,0.82,0.98h7.9c0.56,0,0.98-0.41,0.98-0.98v-21.93
			c0-6.99,6.71-7.24,11.18-6.35c1.05,0.25,1.89,0.59,2.78,0.59c0.59,0,1.08-0.59,1.08-1.14v-5.13
			C358.94,197.23,358.37,196.57,357.31,196.32L357.31,196.32L357.31,196.32z M357.31,196.32l0.39,0.09L357.31,196.32L357.31,196.32z
			 M326.15,196.56h-7.87c-0.41,0-0.83,0.4-0.83,0.98v23.64c0,5.29-1.63,8.13-6.75,8.13c-4.18,0-6.66-2.35-6.66-6.18v-25.6
			c0.02-0.52-0.38-0.96-0.9-0.98c-0.03,0-0.05,0-0.08,0h-7.89c-0.41,0-0.83,0.4-0.83,0.98v23.72c0,9.1,8.21,12.52,16.36,12.52
			c8.22,0,16.43-3.42,16.43-13.49v-22.75C327.13,196.96,326.71,196.56,326.15,196.56L326.15,196.56L326.15,196.56z M171.48,182.75
			c-3.62,0-5.35,2.12-5.35,4.55c0,2.93,2.12,4.89,5.35,4.89c3.2,0,5.18-1.96,5.18-4.89C176.65,184.87,174.92,182.75,171.48,182.75
			L171.48,182.75z M175.5,196.66h-7.89c-0.41,0-0.82,0.41-0.82,0.96v34.46c0,0.57,0.41,0.98,0.82,0.98h7.89
			c0.52,0.02,0.96-0.38,0.98-0.9c0-0.03,0-0.05,0-0.08v-34.47c0.01-0.52-0.4-0.95-0.92-0.96
			C175.54,196.66,175.52,196.66,175.5,196.66L175.5,196.66L175.5,196.66z M270.42,229.61c-2.38,0-3.62-0.42-4.43-0.9
			c-1-0.66-1.15-1.38-1.15-2.1v-21.96c1.22-0.89,3.37-2.51,6.34-2.51c7.47,0,8.23,9.59,8.23,12.99
			C279.4,224.25,275.68,229.61,270.42,229.61C270.42,229.61,270.42,229.61,270.42,229.61z M275.61,196.13
			c-5.6,0-9.22,2.85-10.78,4.14V184.1c0-0.56-0.42-0.97-0.99-0.97h-7.88c-0.41,0-0.81,0.41-0.81,0.97v41.94
			c0,1.3,0.25,2.84,1.48,3.74c2.87,2.18,7.21,4.22,13.14,4.22c10.85,0,19.65-8.28,19.65-20.81
			C289.42,203.45,284.08,196.13,275.61,196.13L275.61,196.13L275.61,196.13z M97.75,194.19c0-3.75,3.62-6.27,8.21-6.27
			c4.11,0,7.25,1.38,10.53,3.74c0.89,0.65,1.48,1.05,2.23,1.05c0.89,0,1.14-0.57,1.14-1.3v-4.72c0-0.72-0.16-1.13-0.9-1.47
			c-2.81-1.05-7.73-2.1-13.14-2.1c-10.94,0-16.86,6.66-16.86,14.22c0,16.43,25.63,13.02,25.63,24.14c0,6.75-9.85,11.46-21.27,3.58
			c-1.08-0.72-1.56-1.14-2.31-1.14c-1.39,0-1.64,0.73-1.64,1.47v4.13c0,0.73,0.16,1.13,0.98,1.63c13.81,6.43,33.46,2.68,33.46-13.65
			C123.8,202.47,97.75,203.44,97.75,194.19L97.75,194.19L97.75,194.19z M150.02,225.07c0,1.06-2.8,3.89-6.59,3.89
			c-4.35,0-5.99-3.07-5.99-6.16c0-4.4,3.45-8.47,12.58-8.47C150.02,214.33,150.02,225.07,150.02,225.07z M144.59,195.65
			c-4.43,0-9.52,0.9-12.81,2.51c-0.9,0.49-1.24,1.21-1.24,1.96v3.65c0,1.13,0.9,1.63,1.39,1.63c0.98,0,1.72-0.9,2.21-1.22
			c3.05-2.03,6.09-3.42,10.12-3.42c5.02,0,5.76,3.25,5.76,7.24c0,1.88-0.66,2.35-7.81,3.25c-4.37,0.58-14.31,2.51-14.31,11.38
			c0,7.32,5.91,11.21,12.82,11.21c3.78,0,6.9-1.63,9.53-3.9l0.19,2.11c0,0.57,0.4,0.97,0.81,0.97h7.48c0.57,0,0.99-0.4,0.99-0.97
			v-25.28C159.73,200.2,156.19,195.65,144.59,195.65L144.59,195.65L144.59,195.65z M247.87,198.19c0.04,0.01,0.09,0.03,0.13,0.05
			C247.97,198.23,247.92,198.22,247.87,198.19L247.87,198.19z M229.74,204.49c0-5.29,10.27-4.79,16.19-0.81
			c0.48,0.33,1.16,0.65,1.57,0.65c0.81,0,1.3-0.32,1.3-1.47v-2.67c0-0.9-0.24-1.72-1.23-2.11c-10.69-4.39-24.98-2.03-24.98,9.42
			c0,12.92,20.7,10.24,20.7,17.24c0,5.58-9.77,6.18-16.85,0.82c-0.49-0.41-0.98-0.66-1.55-0.66c-0.82,0-1.33,0.33-1.33,1.47v3.17
			c0,0.9,0.25,1.63,1.25,2.1c9.1,4.07,25.88,4.16,25.88-10.8C250.69,207.99,229.74,210.91,229.74,204.49
			C229.74,204.49,229.74,204.49,229.74,204.49z M394.94,196.57h-3.77c-0.58,0-1,0.33-1.16,0.9l-8.14,21.94l-0.49,1.54l-0.5-1.54
			l-8.37-21.94c-0.25-0.65-0.58-0.9-1.3-0.9h-8.98c-0.49,0-0.74,0.25-0.74,0.73c0,0.24,0.09,0.48,0.42,1.3l14.96,34.21
			c-0.17,6.02-5.93,8.07-12.41,6.27c-0.99-0.25-1.65-0.49-2.55-0.49c-0.59,0.05-1.05,0.54-1.07,1.13v4.63c0,0.83,0.58,1.46,1.63,1.7
			c1.42,0.42,2.38,0.42,3.46,0.42c6.34,0,12.25-4.4,14.31-9.67l15.11-38.45c0.17-0.5,0.34-0.73,0.34-1.05
			C395.69,196.89,395.35,196.57,394.94,196.57L394.94,196.57L394.94,196.57z"/>
	</g>
</g>
</svg>
