<?xml version="1.0" encoding="utf-8"?>
<svg version="1.1" id="Layer_1" xmlns="http://www.w3.org/2000/svg" xmlns:xlink="http://www.w3.org/1999/xlink" x="0px" y="0px"
	width="100px" height="100px" viewBox="0 0 66.7 66.7" style="enable-background:new 0 0 66.7 66.7;" xml:space="preserve">
<g>
	<circle style="fill:#E8E8E8;" cx="33.3" cy="33.3" r="33.3"/>
	<circle style="fill:#FFFFFF;" cx="33.3" cy="33.3" r="32.7"/>
	<path style="fill:#FFC300;" d="M40,18.8c3.3,0,6.1,14.1,6.1,31.5h4.9c0-18.7-4.9-33.9-10.9-33.9c-3.4,0-6.5,4.5-8.5,11.7
		c-2-7.1-5.1-11.7-8.5-11.7c-6,0-10.9,15.2-10.9,33.9H17c0-17.4,2.7-31.5,6.1-31.5s6.1,13,6.1,29.1H34C33.9,31.8,36.7,18.8,40,18.8
		 M53.3,47.9c0.7,0,1.2,0.5,1.2,1.2c0,0.7-0.5,1.2-1.2,1.2c-0.7,0-1.2-0.5-1.2-1.2C52.1,48.4,52.7,47.9,53.3,47.9 M53.3,50.1
		c0.5,0,1-0.5,1-1.1c0-0.6-0.4-1.1-1-1.1c-0.5,0-1,0.5-1,1.1C52.3,49.7,52.8,50.1,53.3,50.1z M52.9,48.4h0.6c0.3,0,0.5,0.1,0.5,0.4
		c0,0.3-0.1,0.3-0.4,0.4l0.4,0.6h-0.2l-0.4-0.5h-0.3v0.5h-0.2L52.9,48.4C52.9,48.4,52.9,48.4,52.9,48.4z M53.1,49h0.2
		c0.2,0,0.4,0,0.4-0.2c0-0.2-0.1-0.2-0.3-0.2h-0.3L53.1,49L53.1,49C53.1,49,53.1,49,53.1,49z"/>
</g>
</svg>
