<?xml version="1.0"?>
<svg xmlns="http://www.w3.org/2000/svg" xmlns:xlink="http://www.w3.org/1999/xlink" xmlns:svgjs="http://svgjs.com/svgjs" version="1.1" width="512" height="512" x="0" y="0" viewBox="0 0 512 512" style="enable-background:new 0 0 512 512" xml:space="preserve" class=""><g><path xmlns="http://www.w3.org/2000/svg" d="m512 256c0 141.386719-114.613281 256-256 256s-256-114.613281-256-256 114.613281-256 256-256 256 114.613281 256 256zm0 0" fill="#f1f1f1" data-original="#4a7aff" style="" class=""/><path xmlns="http://www.w3.org/2000/svg" d="m119.875 318.332031 188.332031 188.332031c99.25-20.5625 177.453125-98.585937 198.300781-197.730468l-197.972656-197.96875zm0 0" fill="#f1f1f1" data-original="#1f5edd" style="" class=""/><path xmlns="http://www.w3.org/2000/svg" d="m260.214844 317.890625 57.667968-57.671875 115.339844 115.339844-57.667968 57.667968zm0 0" fill="#ffce00" data-original="#ffce00" style=""/><path xmlns="http://www.w3.org/2000/svg" d="m289.597656 288.507812 28.289063-28.289062 115.335937 115.339844-28.289062 28.285156zm0 0" fill="#fdba12" data-original="#fdba12" style="" class=""/><path xmlns="http://www.w3.org/2000/svg" d="m318.328125 119.875c-54.800781-54.800781-143.652344-54.800781-198.457031 0-54.800782 54.800781-54.800782 143.652344 0 198.457031 54.804687 54.800781 143.65625 54.800781 198.457031 0 54.800781-54.804687 54.800781-143.65625 0-198.457031zm0 0" fill="#414952" data-original="#414952" style="" class=""/><path xmlns="http://www.w3.org/2000/svg" d="m318.332031 119.875c-54.617187-54.621094-143.058593-54.796875-197.902343-.542969l198.441406 198.445313c54.253906-54.84375 54.078125-143.285156-.539063-197.902344zm0 0" fill="#333940" data-original="#333940" style="" class=""/><path xmlns="http://www.w3.org/2000/svg" d="m289.050781 149.152344c-38.632812-38.632813-101.269531-38.632813-139.902343 0-38.632813 38.632812-38.632813 101.269531 0 139.902344 38.632812 38.632812 101.269531 38.632812 139.902343 0 38.632813-38.632813 38.632813-101.269532 0-139.902344zm0 0" fill="#87c7ff" data-original="#87c7ff" style="" class=""/><path xmlns="http://www.w3.org/2000/svg" d="m289.054688 149.152344c-38.449219-38.449219-100.667969-38.621094-139.34375-.535156l139.875 139.875c38.085937-38.675782 37.917968-100.890626-.53125-139.339844zm0 0" fill="#87c7ff" data-original="#87c7ff" style="" class=""/><path xmlns="http://www.w3.org/2000/svg" d="m138.335938 195.316406c-7.234376 7.234375-13.273438 15.203125-18.160157 23.65625 4.886719 8.453125 10.925781 16.421875 18.160157 23.65625 44.605468 44.605469 116.925781 44.605469 161.53125 0 7.234374-7.234375 13.273437-15.203125 18.160156-23.65625-4.886719-8.453125-10.925782-16.421875-18.160156-23.65625-44.605469-44.605468-116.925782-44.605468-161.53125 0zm0 0" fill="#ffffff" data-original="#ffffff" style=""/><path xmlns="http://www.w3.org/2000/svg" d="m299.867188 195.316406c-22.351563-22.351562-51.664063-33.503906-80.964844-33.453125v114.21875c29.300781.050781 58.613281-11.101562 80.964844-33.453125 7.234374-7.230468 13.273437-15.203125 18.160156-23.65625-4.886719-8.453125-10.925782-16.421875-18.160156-23.65625zm0 0" fill="#e9edf5" data-original="#e9edf5" style="" class=""/><path xmlns="http://www.w3.org/2000/svg" d="m263.269531 218.972656c0 24.394532-19.773437 44.167969-44.167969 44.167969-24.390624 0-44.164062-19.773437-44.164062-44.167969 0-24.390625 19.773438-44.167968 44.164062-44.167968 24.394532 0 44.167969 19.777343 44.167969 44.167968zm0 0" fill="#15e874" data-original="#15e874" style="" class=""/><path xmlns="http://www.w3.org/2000/svg" d="m219.101562 174.804688c-.066406 0-.128906.007812-.195312.007812v88.320312c.066406 0 .128906.007813.195312.007813 24.394532 0 44.167969-19.777344 44.167969-44.167969 0-24.394531-19.773437-44.167968-44.167969-44.167968zm0 0" fill="#0ac154" data-original="#0ac154" style="" class=""/><path xmlns="http://www.w3.org/2000/svg" d="m243.039062 218.972656c0 13.21875-10.71875 23.933594-23.9375 23.933594s-23.933593-10.714844-23.933593-23.933594 10.714843-23.933594 23.933593-23.933594 23.9375 10.714844 23.9375 23.933594zm0 0" fill="#414952" data-original="#414952" style="" class=""/><path xmlns="http://www.w3.org/2000/svg" d="m219.101562 195.039062c-.066406 0-.128906.003907-.195312.003907v47.859375c.066406 0 .128906.003906.195312.003906 13.21875 0 23.9375-10.714844 23.9375-23.933594s-10.71875-23.933594-23.9375-23.933594zm0 0" fill="#333940" data-original="#333940" style="" class=""/></g></svg>
