<?xml version="1.0" encoding="utf-8"?>
<svg version="1.1" id="Layer_1" xmlns="http://www.w3.org/2000/svg" xmlns:xlink="http://www.w3.org/1999/xlink" x="0px" y="0px"
	 viewBox="0 0 613.19 58.06" style="enable-background:new 0 0 613.19 58.06;" xml:space="preserve">
<g>
	<path style="fill:#3C4052;" d="M10.33,10.75H0V1.08h30.99v9.66H20.66v46.15H10.33V10.75z"/>
	<path style="fill:#3C4052;" d="M44.48,1.08h10.33v22.74H74.8V1.08h10.33v55.81H74.8V33.49H54.81v23.41H44.48V1.08z"/>
	<path style="fill:#3C4052;" d="M102.88,1.08h30.07v9.66h-19.74v13.58h18.91v9.66h-18.91v13.24h19.74v9.66h-30.07V1.08z"/>
	<path style="fill:#3C4052;" d="M177.27,1.08h10.33v24.16l17.58-24.16h12.16l-21.07,27.41l21.07,28.4h-12.16L187.6,32.4v24.49
		h-10.33V1.08z"/>
	<path style="fill:#3C4052;" d="M229.5,1.08h10.33v55.81H229.5V1.08z"/>
	<path style="fill:#3C4052;" d="M258.99,1.08h11.75l23.24,40.65V1.08h10.33v55.81h-11.58l-23.41-40.57v40.57h-10.33V1.08z"/>
	<path style="fill:#3C4052;" d="M379.78,28.49c0,6.55-1.78,12.3-5.33,17.24c-2.72,3.78-6.25,6.76-10.58,8.95
		c-4.33,2.19-8.88,3.29-13.66,3.29c-8.27,0-15.34-2.82-21.2-8.46c-5.86-5.64-8.79-12.48-8.79-20.53c0-7.94,2.92-14.76,8.75-20.45
		C334.8,2.85,341.79,0,349.96,0c5.94,0,11.5,1.67,16.66,5c5.16,3.33,8.63,7.47,10.41,12.41H364.7c-1.67-2.44-3.82-4.35-6.46-5.71
		c-2.64-1.36-5.48-2.04-8.54-2.04c-5.61,0-10.19,1.92-13.74,5.75c-1.61,1.72-2.92,3.85-3.92,6.37c-1,2.53-1.5,4.98-1.5,7.37
		c0,5.39,1.9,9.93,5.71,13.62s8.48,5.54,14.04,5.54c3.55,0,6.79-0.92,9.7-2.75c2.92-1.83,5.18-4.3,6.79-7.41h-23.41v-9.66H379.78z"
		/>
	<path style="fill:#3C4052;" d="M415.43,15.83c-0.17-1.94-0.79-3.46-1.87-4.54s-2.51-1.62-4.29-1.62c-1.78,0-3.18,0.51-4.21,1.54
		s-1.54,2.4-1.54,4.12c0,1.83,0.72,3.3,2.17,4.41c1.22,1,3.61,2.11,7.16,3.33c4.44,1.61,7.64,3.33,9.58,5.17
		c3.39,3.17,5.08,7.08,5.08,11.75c0,4.94-1.69,9.11-5.08,12.49c-3.78,3.67-8.11,5.5-12.99,5.5c-2.83,0-5.55-0.61-8.16-1.83
		c-2.61-1.22-4.75-2.89-6.41-5c-2.22-2.89-3.44-6.3-3.67-10.25h10.83c0.06,2.28,0.78,4.1,2.17,5.46c1.39,1.36,3.22,2.04,5.5,2.04
		c2.17,0,3.96-0.65,5.37-1.96s2.12-2.98,2.12-5.04c0-2-0.57-3.62-1.71-4.87s-3.1-2.37-5.87-3.37c-4.05-1.5-6.73-2.57-8.04-3.21
		c-1.31-0.64-2.54-1.54-3.71-2.71c-3.11-3-4.67-6.8-4.67-11.41c0-4.33,1.61-8.05,4.83-11.16C401.25,1.56,405.11,0,409.6,0
		c5.28,0,9.58,2.03,12.91,6.08c2.22,2.72,3.42,5.97,3.58,9.75H415.43z"/>
	<path style="fill:#3C4052;" d="M477.16,10.75h-10.33V1.08h30.99v9.66h-10.33v46.15h-10.33V10.75z"/>
	<path style="fill:#3C4052;" d="M550.63,36.57c0,6.11-1.28,10.75-3.83,13.91c-3.94,5.05-9.27,7.58-15.99,7.58
		c-3.39,0-6.58-0.75-9.58-2.25c-3-1.5-5.42-3.53-7.25-6.08c-2.17-3.05-3.25-7.44-3.25-13.16V1.08h10.33v35.48
		c0,3.44,0.58,6.05,1.75,7.83c1.72,2.67,4.33,4,7.83,4c3.55,0,6.19-1.3,7.91-3.91c1.17-1.67,1.75-4.3,1.75-7.91V1.08h10.33V36.57z"
		/>
	<path style="fill:#3C4052;" d="M567.88,1.08h11.75l23.24,40.65V1.08h10.33v55.81h-11.58l-23.41-40.57v40.57h-10.33V1.08z"/>
</g>
</svg>
