<?xml version="1.0"?>
<svg xmlns="http://www.w3.org/2000/svg" xmlns:xlink="http://www.w3.org/1999/xlink" xmlns:svgjs="http://svgjs.com/svgjs" version="1.1" width="512" height="512" x="0" y="0" viewBox="0 0 512 512" style="enable-background:new 0 0 512 512" xml:space="preserve" class=""><g><g xmlns="http://www.w3.org/2000/svg"><g><g><g><g><g><g><g><g><g><g><circle cx="256" cy="256" fill="#f1f1f1" r="256" data-original="#dcd6d4" style="" class=""/></g></g></g></g></g></g></g></g></g></g><path d="m450.624 211.964-162.44-162.44-7.927 39.871-39.871-39.871-7.408 37.136-34.308 20.611 42.167 42.167-18.121 18.121 35.027 35.027-9.305 18.796 78.143 78.143-7.926 11.19-238.205 83.081 109.614 109.614c21.039 5.593 43.136 8.59 65.936 8.59 139.451 0 252.85-111.503 255.927-250.216l-55.284-55.284z" fill="#f1f1f1" data-original="#beb2ae" style="" class=""/><path d="m384.058 367.272h43.608v26.524h-43.608z" fill="#be3700" data-original="#be3700" style="" class=""/><g><path d="m456.592 323.741h-47.127v-15h32.127v-87.245h-193.092v-48.035h15v33.035h193.092z" fill="#504541" data-original="#504541" style=""/></g><g><path d="m404.133 251.459h-148.133l-41.842 77.256 41.842 64.081h166.631l-5.407-41.311-6.562-9.592 4.051-9.592z" fill="#be3700" data-original="#be3700" style="" class=""/><path d="m256 251.459h-31.403l-49.796 57.752-85.432 19.504v3.586l10.001 9.592-10.001 9.592v41.311h166.631z" fill="#ff4c04" data-original="#ff4c04" style="" class=""/><path d="m391.242 266.149h-67.084v42.592h72.658zm-142.373 42.592h59.512v-42.592h-52.38z" fill="#b2d7f3" data-original="#b2d7f3" style=""/><path d="m194.602 308.741h61.399v-42.592h-24.675z" fill="#d6e9f8" data-original="#d6e9f8" style=""/><path d="m414.713 332.301h-11.119c-5.298 0-9.592 4.294-9.592 9.592 0 5.298 4.295 9.592 9.592 9.592h13.63z" fill="#d6e9f8" data-original="#d6e9f8" style=""/><path d="m80.45 367.272h51.64v26.524h-51.64z" fill="#be3700" data-original="#be3700" style="" class=""/><circle cx="359.276" cy="392.796" fill="#504541" r="37.539" data-original="#504541" style=""/><circle cx="160.943" cy="392.796" fill="#7f6d67" r="37.539" data-original="#7f6d67" style=""/><path d="m89.369 351.485h14.269c5.298 0 9.592-4.294 9.592-9.592 0-5.298-4.294-9.592-9.592-9.592h-14.269z" fill="#ffcc00" data-original="#ffcc00" style=""/><circle cx="160.943" cy="392.796" fill="#9f8f89" r="16.44" data-original="#9f8f89" style=""/><circle cx="359.276" cy="392.796" fill="#7f6d67" r="16.44" data-original="#7f6d67" style=""/></g><g><g><g><path d="m223.815 49.524h16.571v52.566h-16.571z" fill="#7f6d67" data-original="#7f6d67" style=""/></g><g><path d="m271.613 49.524h16.571v52.566h-16.571z" fill="#504541" data-original="#504541" style=""/></g></g></g><path d="m256 94.542v-7.571h-57.33v20.3h11.577v28.914c0 25.269 20.484 45.753 45.753 45.753l12.208-45.753z" fill="#e0f473" data-original="#e0f473" style="" class=""/><path d="m313.33 86.971h-57.33v94.967c25.269 0 45.753-20.484 45.753-45.753v-28.914h11.577z" fill="#c2db4b" data-original="#c2db4b" style="" class=""/></g></g></svg>
