<svg xmlns="http://www.w3.org/2000/svg" viewBox="0 0 95.8 101.6"><path d="M51 59.3a39.12 39.12 0 0 0-1.5 10.8v31.5h14V70.1a17.68 17.68 0 0 1 .8-5.2c.7-2.3 2.6-4 5-4.5a18.7 18.7 0 0 1 3.4-.3 19.53 19.53 0 0 1 3.4.3c2.4.5 4.3 2.2 5 4.5.5 1.7.8 3.4.8 5.2s-.3 3.5-.8 5.2c-.7 2.3-2.6 4-5 4.5a18.7 18.7 0 0 1-3.4.3 19.53 19.53 0 0 1-3.4-.3c-.5-.1-.9-.2-1.3-.4l4.7 13c4.4 0 8.7-.7 12.9-2.2a14.32 14.32 0 0 0 8.7-9.4A39.12 39.12 0 0 0 95.8 70c0-3.7-.5-7.3-1.5-10.7-1.3-4.3-4.5-7.8-8.7-9.4-4.2-1.5-8.5-2.2-12.9-2.2s-8.8.7-12.9 2.2c-4.4 1.7-7.5 5.1-8.8 9.4m-18.7-37h14a38.94 38.94 0 0 0-1.5-10.7c-1.3-4.3-4.5-7.8-8.7-9.4C31.9.7 27.6 0 23.2 0s-8.7.7-12.9 2.2a14.32 14.32 0 0 0-8.7 9.4A38.94 38.94 0 0 0 .1 22.3a39.65 39.65 0 0 0 1.5 10.8c1.3 4.3 4.5 7.8 8.7 9.4 4.2 1.5 8.5 2.2 12.9 2.2s8.7-.7 12.9-2.2a14.32 14.32 0 0 0 8.7-9.4c.2-.6.3-1.2.5-1.8l-13.2-6.1c-.1.8-.3 1.6-.6 2.4-.7 2.3-2.6 4-5 4.5-1.1.2-2.2.3-3.3.3a19.53 19.53 0 0 1-3.4-.3c-2.4-.5-4.3-2.2-5-4.5-.5-1.7-.8-3.4-.8-5.2a17.68 17.68 0 0 1 .8-5.2c.7-2.3 2.7-4 5-4.5a18.7 18.7 0 0 1 3.4-.3c1.2 0 2.3.1 3.3.3 2.4.5 4.3 2.2 5 4.5.5 1.6.8 3.3.8 5.1m0 47.8c0 1.8-.3 3.5-.8 5.2-.7 2.3-2.6 4-5 4.5-1.1.2-2.2.3-3.3.3a19.53 19.53 0 0 1-3.4-.3c-2.4-.5-4.3-2.2-5-4.5-.5-1.7-.8-3.4-.8-5.2a17.68 17.68 0 0 1 .8-5.2c.7-2.3 2.7-4 5-4.5a18.7 18.7 0 0 1 3.4-.3c1.2 0 2.3.1 3.3.3 2.4.5 4.3 2.2 5 4.5a17.68 17.68 0 0 1 .8 5.2m12.4 10.7A39.12 39.12 0 0 0 46.2 70a39.12 39.12 0 0 0-1.5-10.8c-1.3-4.3-4.5-7.8-8.7-9.4-4.2-1.5-8.5-2.2-12.9-2.2s-8.7.7-12.9 2.2a14.32 14.32 0 0 0-8.7 9.4A39.12 39.12 0 0 0 0 70c0 3.6.5 7.2 1.5 10.8 1.3 4.3 4.5 7.8 8.7 9.4 4.2 1.4 8.5 2.2 12.9 2.2s8.7-.7 12.9-2.2c4.3-1.6 7.4-5 8.7-9.4m37.1-58.5a17.68 17.68 0 0 1-.8 5.2c-.7 2.3-2.6 4-5 4.5a18.7 18.7 0 0 1-3.4.3 19.53 19.53 0 0 1-3.4-.3c-2.4-.5-4.3-2.2-5-4.5-.5-1.7-.8-3.4-.8-5.2a17.68 17.68 0 0 1 .8-5.2c.7-2.3 2.6-4 5-4.5a18.7 18.7 0 0 1 3.4-.3 19.53 19.53 0 0 1 3.4.3c2.4.5 4.3 2.2 5 4.5.5 1.7.8 3.4.8 5.2m12.4 10.8a39.12 39.12 0 0 0 1.5-10.8c0-3.7-.5-7.3-1.5-10.7-1.3-4.3-4.5-7.8-8.7-9.4C81.3.7 77 0 72.6 0s-8.8.7-12.9 2.2c-4.3 1.6-7.4 5-8.7 9.4a38.94 38.94 0 0 0-1.5 10.7A39.65 39.65 0 0 0 51 33.1c1.3 4.3 4.5 7.8 8.7 9.4 4.2 1.5 8.5 2.2 12.9 2.2s8.7-.7 12.9-2.2c4.3-1.7 7.4-5.1 8.7-9.4" fill="#05a1cc"/></svg>