<?xml version="1.0" encoding="utf-8"?>
<svg version="1.1" id="Layer_1" xmlns="http://www.w3.org/2000/svg" xmlns:xlink="http://www.w3.org/1999/xlink" x="0px" y="0px"
	width="100px" height="100px" viewBox="0 0 100 100" style="enable-background:new 0 0 100 100;" xml:space="preserve">
<g>
	<path style="fill:#E8E8E8;" d="M50,0c27.61,0,50,22.39,50,50s-22.39,50-50,50S0,77.61,0,50S22.39,0,50,0"/>
	<path style="fill:#FFFFFF;" d="M50,1c27.06,0,49,21.94,49,49S77.06,99,50,99S1,77.06,1,50S22.94,1,50,1"/>
	<g id="g10" transform="matrix(1.3333333,0,0,-1.3333333,0,156.12)">
		<g id="g12" transform="scale(0.1)">
			<path id="path14" style="fill:#231F20;" d="M255.97,796.17h-13.06v24.94h13.06c6.32,0,11.35-5.57,11.35-12.42
				C267.32,801.73,262.29,796.17,255.97,796.17z M265.39,787.07l0.21,0.11c1.18,0.54,2.36,1.29,3.32,2.03
				c5.89,4.39,9.42,11.56,9.42,19.37c0,12.84-9.53,23.33-21.19,23.33h-25.26V760.2h10.92v25.15h0.21c0,0,5.89,0,10.28,0h0.11
				l0.11-0.11l16.59-25.05h13.06L265.39,787.07z M314.31,770.37h-6.64v51.06h6.64c11.77,0,20.66-11.45,20.66-25.58
				C334.97,781.82,326.08,770.37,314.31,770.37L314.31,770.37z M314.63,831.81h-17.77v-71.72h17.77c17.34,0,31.04,16.06,31.04,35.86
				C345.67,815.65,331.86,831.81,314.63,831.81z M487.82,796.17h-13.06v24.94h13.06c6.32,0,11.35-5.57,11.35-12.42
				C499.17,801.73,494.14,796.17,487.82,796.17z M497.24,787.07l0.21,0.11c1.18,0.54,2.35,1.29,3.32,2.03
				c5.89,4.39,9.42,11.56,9.42,19.37c0,12.84-9.53,23.33-21.19,23.33h-25.26V760.2h10.92v25.15h0.21c0,0,5.89,0,10.28,0h0.11
				l0.11-0.11l16.59-25.05h13.17L497.24,787.07z M449.39,831.81h-45.81v-10.06h17.23v-61.66h11.35v61.66h17.23L449.39,831.81z
				 M127.95,758.17v73.64h-10.92v-45.71l-42.92,47.2v-73.22h10.92v44.96l0.43-0.43L127.95,758.17z M559.86,769.09
				c-14.77,0-26.76,11.99-26.76,26.76c0,14.77,11.99,26.76,26.76,26.76s26.76-11.99,26.76-26.76
				C586.62,781.18,574.63,769.09,559.86,769.09z M559.86,833.63c-20.77,0-37.68-16.91-37.68-37.68c0-20.77,16.91-37.68,37.68-37.68
				c20.77,0,37.68,16.91,37.68,37.68C597.54,816.72,580.62,833.63,559.86,833.63z M179.97,769.09c-14.77,0-26.76,11.99-26.76,26.76
				c0,14.77,11.99,26.76,26.76,26.76s26.76-11.99,26.76-26.76C206.84,781.18,194.75,769.09,179.97,769.09L179.97,769.09z
				 M179.97,833.63c-20.77,0-37.68-16.91-37.68-37.68c0-20.77,16.91-37.68,37.68-37.68s37.68,16.91,37.68,37.68
				C217.76,816.72,200.85,833.63,179.97,833.63z M394.27,779.04c-0.21,3.75-1.93,11.24-11.67,19.05l-8.56,7.49
				c-3.64,2.89-5.35,5.99-5.46,9.63c0,4.17,2.78,7.06,6.96,7.28c0.11,0,5.35,0.64,8.56-3.85l0.11-0.21l8.67,5.89l-0.11,0.21
				c-1.5,2.36-8.24,8.78-17.34,8.35c-5.14-0.21-9.74-2.25-12.95-5.46c-3.32-3.43-4.92-7.92-4.6-13.17
				c0.32-6.1,3.85-11.77,11.24-17.77l8.03-7.06c4.5-3.64,6.42-6.74,6.64-10.38c0.21-2.68-0.75-5.24-2.46-7.17
				c-1.5-1.71-3.21-2.46-5.57-2.68h-0.54c-6.74,0-9.53,4.82-11.13,7.71l-0.43,0.75l-9.31-4.5c0.86-2.35,5.89-14.24,20.66-14.24h0.21
				c5.35,0.32,10.28,2.46,13.81,6.1C392.66,768.66,394.59,773.69,394.27,779.04L394.27,779.04z M643.78,789.64l32.11,43.57v-73.22
				h-10.92v39.39l-21.3-28.37l-21.09,28.37v-39.39h-10.92v73.32L643.78,789.64"/>
		</g>
	</g>
</g>
</svg>
