<svg xmlns="http://www.w3.org/2000/svg" viewBox="0 0 1919.73 785.95"><path d="M1635.95 302.27l283.78-176.86v47.97l-283.78 177.66-284.05-177.66v-47.97l284.05 176.86zm0-221.88c-64.04 0-120.32 32.16-152.74 82h0c2.68-2.68 4.02-4.02 6.7-5.9 79.85-66.46 195.08-51.45 257.52 32.16l41.54-26.53h0c-32.7-48.5-89.24-81.73-153.02-81.73m0 82c-34.84 0-65.65 17.69-83.87 43.14 15.01-10.99 32.16-16.61 50.65-16.61 30.82 0 58.15 15.81 76.37 42.34l39.66-24.65h0c-17.15-27.34-47.97-44.22-82.81-44.22m-191.86-71.82c117.1-92.18 282.44-66.99 370.6 55.47l.8.8 43.14-26.53h0C1811.47 47.97 1729.21 0 1636.22 0c-92.18 0-174.45 47.16-222.41 120.32 8.57-9.92 19.29-21.71 30.28-29.75" fill="#f8991c"/><g fill="#2d2d2d"><path d="M69.67 710.65c-2.68 4.02-5.9 7.5-10.99 10.18s-10.18 4.02-16.61 4.02c-4.02 0-7.5-.8-11.52-1.61-3.48-.8-6.7-2.68-8.31-4.82-2.68-2.68-4.02-4.02-5.9-7.5-1.61-3.48-2.68-6.7-2.68-10.18 0-6.7 1.61-11.52 4.82-15.01s7.5-5.9 13.13-7.5c4.82-1.61 11.52-2.68 17.69-3.48 6.7-.8 13.13-.8 19.03-.8v-4.82c0-5.9-1.61-10.99-4.82-14.2-3.22-3.22-8.31-4.82-14.2-4.82s-11.52.8-14.2 4.02-4.82 5.9-5.9 10.99c-1.61 0-4.02-.8-4.82-.8h-4.82c.8-7.5 4.02-13.13 10.18-17.69 4.82-4.02 13.13-5.9 22.51-5.9 10.18 0 17.69 2.68 22.51 7.5s7.5 12.33 7.5 22.51v51.45h-7.5l-5.1-11.54h0zm-.8-28.13l-19.03.8c-4.82.8-10.18.8-13.13 2.68-3.48 1.61-6.7 2.68-8.31 4.82-1.61 2.68-2.68 4.82-2.68 9.11 0 4.82 1.61 8.31 4.02 10.99s6.7 4.02 12.33 4.02c4.02 0 8.31-.8 11.52-2.68 3.48-.8 5.9-3.48 8.31-4.82 2.68-2.68 4.02-4.82 4.82-8.31.8-3.48 1.61-6.7 1.61-10.18l.54-6.43h0zm38.32-38.86h6.7l4.02 13.13c3.22-4.56 6.97-8.58 11.52-11.52 4.82-2.68 10.18-4.02 15.01-4.02 9.11 0 15.81 2.68 20.63 7.5 4.02 4.82 6.7 12.33 6.7 21.71v52.52h-10.99v-50.65c0-6.7-1.61-12.33-4.02-15.81s-7.5-4.82-13.13-4.82c-4.02 0-8.31.8-11.52 2.68-3.22 1.34-5.63 3.75-7.5 6.7-2.68 2.68-3.48 6.7-4.02 10.18-.8 4.02-.8 8.31-.8 12.33v39.12h-11.52l-1.08-79.05h0 0zm756.48 52.79c-.8 8.31-4.02 15.81-10.18 20.63s-13.13 8.31-22.51 8.31c-5.9 0-11.52-.8-15.81-3.48s-8.31-4.82-11.52-8.31c-3.48-4.02-4.82-8.31-6.7-13.13-1.61-4.82-2.68-10.99-2.68-16.61 0-5.9.8-11.52 2.68-16.61 1.61-4.82 4.02-10.18 6.7-13.13s6.7-6.7 11.52-9.11c4.02-2.68 10.18-3.48 15.81-3.48 4.02 0 8.31.8 12.33 2.68 4.02 1.61 6.7 3.48 10.18 5.9 2.68 2.68 4.82 4.82 6.7 8.31 1.88 3.48 2.68 6.7 2.68 11.52h-11.52c-.8-4.82-2.68-10.18-5.9-13.13s-8.31-4.82-14.2-4.82c-4.82 0-8.31.8-11.52 2.68-3.48 1.61-4.82 4.02-7.5 6.7-1.61 2.68-3.48 6.7-4.02 10.18s-.8 7.5-.8 11.52.8 8.31.8 11.52c0 3.48 2.68 6.7 4.02 10.18s4.02 4.82 7.5 6.7c3.48 1.61 6.7 2.68 11.52 2.68 6.7 0 11.52-1.61 14.2-4.82 3.48-4.02 4.82-8.31 6.7-13.13h11.52v.25h0 0zm53.05 28.41c-5.9 0-11.52-.8-15.81-3.48s-8.31-4.82-11.52-8.31c-3.48-4.02-4.82-8.31-6.7-13.13-1.61-4.82-2.68-10.99-2.68-16.61s.8-11.52 2.68-16.61c1.61-4.82 4.02-10.18 6.7-13.13 2.68-4.02 6.7-6.7 11.52-8.31 4.02-2.68 10.18-3.48 15.81-3.48s11.52.8 15.81 3.48 8.31 4.82 11.52 8.31c2.68 4.02 4.82 8.31 6.7 13.13 1.61 4.82 2.68 10.99 2.68 16.61s-.8 11.52-2.68 16.61c-1.61 4.82-4.02 10.18-6.7 13.13-3.48 4.02-6.7 6.7-11.52 8.31-4.82 2.41-10.18 3.48-15.81 3.48zm0-9.92c4.82 0 8.31-.8 11.52-2.68 3.22-1.34 5.9-3.75 7.5-6.7 1.61-2.68 3.48-6.7 4.02-10.18.8-4.02.8-7.5.8-11.52s-.8-8.31-.8-11.52c-.8-4.02-2.68-6.7-4.02-10.18s-4.02-4.82-7.5-6.7c-3.48-1.61-6.7-2.68-11.52-2.68s-8.31.8-11.52 2.68c-3.48 1.61-4.82 4.02-7.5 6.7s-3.48 6.7-4.02 10.18c-.8 4.02-.8 7.5-.8 11.52s.8 8.31.8 11.52c.8 4.02 2.68 7.5 4.02 10.18 2.68 2.68 4.02 4.82 7.5 6.7 2.14 1.88 6.7 2.68 11.52 2.68zm157.84 8.04v-51.45c0-6.7-.8-12.33-4.02-15.01-2.68-3.48-6.7-4.82-12.33-4.82-2.68 0-4.82.8-8.31 1.61-2.68.8-4.82 2.68-6.7 4.82-2.68 2.68-4.02 4.82-4.82 7.5s-1.61 5.9-1.61 10.18v47.16h-11.52v-51.45c0-6.7-.8-11.52-4.02-15.01-2.68-3.48-6.7-4.82-12.33-4.82-2.68 0-5.9.8-8.31 2.68-2.68.8-4.82 3.48-6.7 4.82-2.68 2.68-4.02 4.82-4.82 8.31-.8 3.48-1.61 6.7-1.61 11.52v43.14h-11.52V644.2h6.7l4.02 12.33c2.68-4.82 6.7-8.31 10.99-10.99s8.31-4.02 14.2-4.02c6.7 0 11.52 1.61 15.01 4.02 4.02 2.68 6.7 6.7 8.31 11.52 2.68-4.82 6.7-8.31 10.99-11.52 4.29-3.22 10.18-4.02 15.81-4.02 8.31 0 14.2 2.68 19.03 6.7 4.02 4.82 6.7 11.52 6.7 20.63v54.13h-13.14 0 0zm37.24-79.32h7.5l4.02 11.52c2.95-4.56 6.97-8.31 11.52-10.99 4.02-2.68 10.18-4.02 15.01-4.02 5.9 0 10.99.8 15.01 3.48s7.5 4.82 10.99 9.11c2.68 4.02 4.82 8.31 6.7 13.13.8 4.82 2.68 10.18 2.68 15.81 0 5.9-.8 11.52-2.68 16.61-1.61 4.82-4.02 10.18-6.7 13.13-2.68 4.02-6.7 6.7-10.99 8.31-4.02 2.68-9.11 3.48-15.01 3.48-4.82 0-10.18-.8-14.2-3.48s-8.31-4.82-11.52-10.18v41.54h-11.52v-109.6h-.8l-.01 2.15h0zm10.99 38.05c0 4.82.8 10.18.8 13.13.8 4.02 2.68 7.5 4.02 10.99 2.68 2.68 4.02 4.82 7.5 6.7 3.48 1.61 6.7 2.68 11.52 2.68 8.31 0 14.2-2.68 17.69-8.31 4.02-5.9 5.9-13.13 5.9-23.31s-2.68-17.69-6.7-23.31c-4.02-4.82-10.18-8.31-17.69-8.31-4.02 0-7.5.8-10.99 2.68-3.48 1.61-5.9 4.02-8.31 6.7-2.68 2.68-4.02 5.9-4.82 10.18 1.62 1.61 1.08 5.9 1.08 10.18h0zm131.04 28.94c-2.68 4.29-6.43 7.77-10.99 10.18-4.82 2.68-10.18 4.02-16.61 4.02-4.02 0-7.5-.8-11.52-1.61-3.48-.8-6.7-2.68-8.31-4.82-2.68-2.68-4.02-4.02-5.9-7.5-1.61-3.48-2.68-6.7-2.68-10.18 0-6.7 1.61-11.52 4.82-15.01s7.5-5.9 13.13-7.5c4.82-1.61 11.52-2.68 17.69-3.48 6.7-.8 13.13-.8 19.03-.8v-4.82c0-5.9-1.61-10.99-4.82-14.2s-8.31-4.82-14.2-4.82-11.52.8-14.2 4.02c-3.48 2.68-4.82 5.9-5.9 10.99-1.61 0-4.02-.8-4.82-.8h-4.82c.8-7.5 4.02-13.13 10.18-17.69 4.82-4.02 13.13-5.9 22.51-5.9 10.18 0 17.69 2.68 22.51 7.5s7.5 12.33 7.5 22.51v51.45h-9.11l-3.49-11.54h0zm0-28.13l-19.03.8c-4.82.8-10.18.8-13.13 2.68-3.48 1.61-6.7 2.68-8.31 4.82-1.61 2.68-2.68 4.82-2.68 9.11 0 4.82 1.61 8.31 4.02 10.99s6.7 4.02 12.33 4.02c4.02 0 8.31-.8 11.52-2.68 3.48-.8 5.9-3.48 8.31-4.82 2.68-2.68 4.02-4.82 4.82-8.31.8-3.48 1.61-6.7 1.61-10.18l.54-6.43h0zm38.32-38.86h6.7l4.02 13.13c3.22-4.56 6.97-8.58 11.52-11.52 4.82-3.48 10.18-4.02 15.01-4.02 9.11 0 15.81 2.68 20.63 7.5 4.02 4.82 6.7 12.33 6.7 21.71v52.52h-11.52v-50.65c0-6.7-1.61-12.33-4.02-15.81s-7.5-4.82-13.13-4.82c-4.02 0-8.31.8-11.52 2.68-3.48 1.61-5.9 4.02-7.5 6.7-1.61 3.48-3.48 6.7-4.02 10.18-.8 4.02-.8 8.31-.8 12.33v39.12h-11.52l-.55-79.05h0 0zm84.68 107.99c0-1.61.8-3.48.8-4.82s.8-3.48.8-4.82c.8.8 2.68.8 4.02.8s3.48.8 4.82.8 4.02-.8 5.9-1.61c1.61-.8 2.68-2.68 4.02-4.02 1.61-2.68 2.68-4.02 3.48-6.7s2.68-5.9 4.02-10.18c-4.82-13.13-10.99-26.53-15.81-39.12s-10.99-26.53-16.61-39.12h13.13c4.02 10.99 8.31 22.51 13.13 32.16 4.02 10.99 8.31 21.71 13.13 32.16l12.33-32.16 12.33-32.16h12.33c-4.82 14.2-10.99 28.14-15.81 41.54-4.82 14.2-11.52 28.14-16.61 41.54-1.61 4.02-3.48 7.5-4.02 10.99-1.61 3.48-3.48 5.9-4.82 8.31s-4.02 4.02-6.7 4.82-5.9 1.61-10.18 1.61c-2.68 0-4.82 0-6.7-.8-2.7.78-5.38 1.32-6.98.78h0zm-831.24 2.15c-29.21 20.63-71.28 32.16-107.99 32.16-50.65 0-97-18.49-131.3-49.04-2.68-2.68-.8-5.9 3.48-4.02 37.52 21.71 83.87 34.03 132.11 34.03 32.16 0 66.99-6.7 100.49-19.83 4.01-1.61 8.03 3.21 3.21 6.7h0zm12.32-13.13c-4.02-4.82-24.65-2.68-34.03-.8-2.68.8-3.48-2.68-.8-4.02 16.61-11.52 43.95-8.31 47.16-4.02 3.22 4.29-.8 30.82-16.61 43.14-2.68 2.68-4.82.8-4.02-1.61 4.28-9.38 11.79-27.87 8.3-32.69h0zm-34.03-85.49v-11.52c0-1.61.8-2.68 2.68-2.68h50.65c1.61 0 2.68.8 2.68 2.68v10.18c0 1.61-1.61 4.02-4.02 6.7l-26.53 36.44c10.18 0 20.63.8 29.21 5.9 2.68.8 2.68 2.68 2.68 4.02v11.52c0 1.61-1.61 3.48-4.02 2.68-15.81-8.31-36.44-9.11-54.13 0-1.61.8-4.02-.8-4.02-2.68V706.9c0-1.61 0-4.82 2.68-7.5l30.28-43.14h-25.46c-.8 1.07-2.68.53-2.68-1.08h0zm-185.97 69.68H322.1c-1.61 0-2.68-.8-2.68-2.68V645c0-1.61 1.61-2.68 3.48-2.68h14.2c1.61 0 2.68.8 2.68 2.68v10.18h.8c4.02-10.18 10.99-14.2 20.63-14.2 10.18 0 15.81 4.02 20.63 14.2 4.02-10.18 12.33-14.2 21.71-14.2 6.7 0 13.13 2.68 18.49 8.31 4.82 6.7 4.02 15.81 4.02 24.12v49.04c0 1.61-1.61 2.68-3.48 2.68h-15.81c-1.61 0-2.68-.8-2.68-2.68v-41.54c0-3.48.8-11.52-.8-14.2-.8-4.82-4.82-6.7-9.11-6.7s-7.5 2.68-9.11 6.7-1.61 10.18-1.61 15.01v41.54c0 1.61-.8 2.68-3.48 2.68h-15.81c-1.61 0-2.68-.8-2.68-2.68v-41.54c0-8.31 1.61-21.71-10.18-21.71s-10.99 12.33-10.99 21.71v41.54c.8-.28-.53 1.6-2.41 1.6h0zm287.53-85.49c23.31 0 35.64 19.03 35.64 43.14 0 23.31-14.2 42.34-35.64 42.34-22.51 0-34.84-19.03-34.84-43.14 0-23.04 12.33-42.34 34.84-42.34zm0 16.62c-11.52 0-12.33 15.01-12.33 24.65 0 9.65 0 30.01 11.52 30.01s12.33-15.81 12.33-26.53c0-6.7-.8-14.2-2.68-20.63-.53-6.16-4.02-7.5-8.84-7.5h0zm65.38 68.87h-15.81c-1.61 0-2.68-.8-2.68-2.68V645c0-1.61 1.61-2.68 3.48-2.68h14.2c1.61 0 2.68.8 2.68 2.68v11.52h.8c4.02-10.99 10.18-15.81 20.63-15.81 6.7 0 14.2 2.68 18.49 9.11s4.02 16.61 4.02 24.12v49.04c0 1.61-1.61 2.68-3.48 2.68h-15.81c-1.61 0-2.68-.8-2.68-2.68v-41.54c0-8.31.8-20.63-10.18-20.63-4.02 0-7.5 2.68-9.11 6.7-2.68 4.82-2.68 10.18-2.68 14.2v41.54c.55-.27.01 1.61-1.87 1.61h0zm-180.87-15.55c-2.68-4.02-5.9-7.5-5.9-14.2V671.8c0-10.18.8-19.03-6.7-25.99-5.9-4.82-15.81-7.5-23.31-7.5-15.01 0-31.62 5.9-34.84 23.31 0 2.68 1.61 2.68 2.68 3.48l15.01 1.61c1.61 0 1.61-.8 2.68-2.68.8-6.7 6.7-9.11 12.33-9.11 3.48 0 6.7 1.61 8.31 4.02 3.48 2.68 2.68 6.7 2.68 10.99v2.68c-8.31.8-20.63.8-29.21 4.82-10.18 4.02-16.61 12.33-16.61 24.65 0 15.01 10.18 23.31 23.31 23.31 11.52 0 17.69-2.68 25.99-10.99 3.48 4.02 4.02 5.9 9.11 10.18 1.61 0 3.48 0 4.02-.8 3.48-2.68 9.11-7.5 10.99-10.99.26-.53.26-2.14-.54-3.48h0zm-25.73-21.97c0 5.9 0 10.99-2.68 15.81-2.68 4.02-6.7 6.7-10.99 6.7-5.9 0-10.18-4.02-10.18-10.99 0-13.13 11.52-15.01 23.31-15.01v3.48l.54.01h0zm-177.13 21.97c-2.68-4.02-5.9-7.5-5.9-14.2V671.8c0-10.18.8-19.03-6.7-25.99-5.9-4.82-15.81-7.5-23.31-7.5-15.01 0-31.62 5.9-34.84 23.31 0 2.68 1.61 2.68 2.68 3.48l15.01 1.61c1.61 0 1.61-.8 2.68-2.68.8-6.7 6.7-9.11 12.33-9.11 3.48 0 5.9 1.61 8.31 4.02s1.61 6.7 1.61 10.99v2.68c-8.31.8-20.63.8-29.21 4.82-10.18 4.02-16.61 12.33-16.61 24.65 0 15.01 10.18 23.31 23.31 23.31 11.52 0 17.69-2.68 25.99-10.99 3.48 4.02 4.02 5.9 9.11 10.18 1.61 0 3.48 0 4.02-.8 3.48-2.68 9.11-7.5 11.52-10.99 1.07-.53 1.07-2.14 0-3.48h0zm-27.33-21.97c0 5.9 0 10.99-2.68 15.81-2.68 4.02-6.7 6.7-10.99 6.7-5.9 0-10.18-4.02-10.18-10.99 0-13.13 11.52-15.01 23.31-15.01v3.48l.54.01h0zm-21.44-238.49V279.49h55.47v167.48c0 41 34.03 50.65 53.33 50.65 41.54 0 55.47-24.65 55.47-39.12V279.22h55.47v263.15H445.9l-21.71-30.01c-15.01 18.49-39.66 34.84-76.37 34.84-53.05.8-89.5-34.04-89.5-98.35h0zm631.07-262.08V542.9h31.62l20.63-30.01c15.01 18.49 39.66 35.64 76.37 35.64 49.04 0 90.31-30.01 90.31-96.47V370.6c0-66.46-41.54-96.47-92.99-96.47-35.64 0-59.76 15.81-72.35 31.62V186.51l-53.59.26h0zm112.82 311.38c-34.03 0-58.95-16.61-58.15-52.52h0v-72.35c0-28.14 22.51-49.84 58.95-49.84 25.99 0 51.45 19.03 51.45 49.84v73.96c0 32.43-26.26 50.91-52.25 50.91zm-320.5-311.38v119.51c-12.33-15.81-36.44-31.62-72.35-31.62-51.45 0-92.99 30.01-92.99 96.47v81.46c0 66.46 41.54 96.47 90.31 96.47 36.44 0 61.36-17.69 76.37-35.64l20.63 30.01h31.62V187.31h-53.59v-.54zM570.24 448.31v-73.96c0-30.82 25.99-49.84 51.45-49.84 36.44 0 58.95 20.63 58.95 49.84v72.35h0c.8 35.64-24.12 52.52-58.15 52.52-25.45-1.07-52.25-19.55-52.25-50.91h0zm575.6-261.54h55.47V542.9h-55.47V186.77zm-360.15 92.99h55.47v263.15h-55.47V279.76z"/><circle cx="813.82" cy="216.52" r="31.62"/><path d="M1354.32 498.15c-38.32 0-56.54-19.83-56.54-47.16v-21.71h164.27v-58.95c0-60.83-42.34-96.47-107.99-96.47-68.33 0-112.01 38.32-112.01 97.81v81.46c0 60.83 43.95 96.47 112.01 96.47 50.65 0 88.16-20.63 103.17-55.47l-39.66-24.65c-13.95 18.76-34.31 28.67-63.25 28.67h0zm-56.54-127.28c0-27.33 19.03-46.63 54.67-46.63s54.67 19.03 54.67 46.63v16.61h-108.8l-.54-16.61h0zM115.49 273.86c-54.13 0-88.97 21.71-102.1 53.86l43.14 26.53c18.49-29.21 35.64-30.82 58.95-30.82 34.03 0 49.04 15.81 49.04 41.54v20.63h-46.89C83.61 385.61 0 397.13 0 469.48c0 51.45 39.12 77.18 86.29 77.18 37.52 0 64.85-17.69 80.66-35.64l21.71 30.01h32.16V360.69c-.82-49.31-35.65-86.83-105.33-86.83h0zm48.78 185.17c-.8 4.02-.8 9.11-5.9 15.81-8.31 11.52-30.01 23.31-54.67 23.31-26.53 0-45.82-10.99-45.82-32.16 0-31.62 50.65-38.32 82.8-39.66h24.12l-.53 32.7h0z"/></g></svg>