<?xml version="1.0" encoding="utf-8"?>
<svg version="1.1" id="Layer_1" xmlns="http://www.w3.org/2000/svg" xmlns:xlink="http://www.w3.org/1999/xlink" x="0px" y="0px"
	 viewBox="0 0 1593 95.6" style="enable-background:new 0 0 1593 95.6;" xml:space="preserve">
<g id="g3577" transform="matrix(1.25,0,0,-1.25,160.35739,776.505)">
	<g id="g3605" transform="matrix(5.2535789,0,0,5.2535789,-87.350026,584.77043)">
		<path id="path3607" style="fill:#004165;" d="M0,0h1.8c3.6,0,5.5,0.8,5.5,3.2c0,1.8-2,3-5.2,3C1,6.2,0.5,6.1,0,6.1V0z M-4.6,4.8
			c0,1.5-1.4,1.6-2.5,1.6h-0.6v0.6c1.1,0,3.4-0.1,5.6-0.1c2.2,0,3.9,0.1,5.8,0.1c4.5,0,8.5-0.7,8.5-3.6c0-1.8-2.2-3-5-3.6l6.1-5.3
			c1-0.9,1.7-1.1,3.5-1.2v-0.6c-1.2,0-2.3,0.1-3.5,0.1c-1.1,0-2.3-0.1-3.4-0.1C7.1-5.3,4.7-3.1,2.4-0.7H0v-4.4
			c0-1.6,1.3-1.6,2.9-1.6h0.6v-0.6c-2,0-4.1,0.1-6.2,0.1c-1.7,0-3.4-0.1-5.2-0.1v0.6h0.6c1.3,0,2.5,0.3,2.5,1.1V4.8"/>
	</g>
	<g id="g3609" transform="matrix(5.2535789,0,0,5.2535789,39.518651,548.38414)">
		<path id="path3611" style="fill:#004165;" d="M0,0h0.4c1,0,2,0.1,2,0.9v8.1c0,0.8-1,0.9-2,0.9H0v0.5c1,0,2.7-0.1,4-0.1
			c1.3,0,3,0.1,4.2,0.1V9.8H7.8c-1,0-2-0.1-2-0.9V0.9c0-0.8,1-0.9,2-0.9h0.4l0-0.5C6.9-0.5,5.3-0.4,4-0.4C2.6-0.4,1-0.5,0-0.5V0"/>
	</g>
	<g id="g3613" transform="matrix(5.2535789,0,0,5.2535789,225.44281,585.74235)">
		<path id="path3615" style="fill:#004165;" d="M0,0c-0.8,1.5-2,2.7-6,2.7c-4.4,0-6.7-2-6.7-4.7c0-2.6,2.3-5.2,7.4-5.2
			c2.9,0,4.8,1,5.5,2.6l0.8-0.1C0.5-5.4,0.3-6.3,0.2-7.1C-1.4-7.5-3.5-7.8-6-7.8C-12-7.8-16.5-5.9-16.5-2c0,3.4,4.9,5.4,10.4,5.4
			c3.2,0,4.2-0.6,6.7-0.8c0-0.8,0-1.7,0.2-2.6L0,0"/>
	</g>
	<g id="g3617" transform="matrix(5.2535789,0,0,5.2535789,310.61383,552.99153)">
		<path id="path3619" style="fill:#004165;" d="M0,0c0-0.8,1.1-0.9,2.1-0.9h0.5v-0.5c-1.2,0-2.9,0.1-4.4,0.1c-1.4,0-3-0.1-4.1-0.1
			v0.5h0.4c1,0,2,0.1,2,0.9v8.1c0,0.8-1,0.9-2,0.9h-0.4v0.5c1.1,0,2.7-0.1,4.1-0.1c1.5,0,3.2,0.1,4.4,0.1V8.9H2.1
			c-1,0-2.1,0-2.1-0.9V4.7h9.8v3.4c0,0.8-1.1,0.9-2.1,0.9H7.2v0.5c1.2,0,2.9-0.1,4.4-0.1c1.4,0,3,0.1,4.1,0.1V8.9h-0.4
			c-1,0-2-0.1-2-0.9V0c0-0.8,1-0.9,2-0.9h0.4v-0.5c-1.1,0-2.7,0.1-4.1,0.1c-1.5,0-3.2-0.1-4.4-0.1v0.5h0.5c1,0,2.1,0,2.1,0.9v3.8H0
			V0"/>
	</g>
	<g id="g3621" transform="matrix(5.2535789,0,0,5.2535789,443.19314,548.38414)">
		<path id="path3623" style="fill:#004165;" d="M0,0h0.4c1,0,2,0.1,2,0.9v8.1c0,0.8-1,0.9-2,0.9H0v0.5c1.6,0,4.4-0.1,6.7-0.1
			s5.1,0.1,6.9,0.1c-0.1-0.7,0-1.7,0.1-2.4l-0.8-0.1c-0.1,1-0.5,1.8-3.3,1.8H5.8v-4H9c1.6,0,2,0.5,2.1,1.4H12
			c-0.1-0.6-0.1-1.2-0.1-1.8c0-0.6,0-1.2,0.1-1.8l-0.8-0.1C11,4.2,10.9,4.8,9,4.8H5.8V1.2c0-1,1.6-1,3.3-1c3.2,0,4.7,0.1,5.5,1.9
			L15.3,2c-0.4-0.8-0.7-1.6-0.9-2.4c-1.7,0-4.8,0.1-7.2,0.1S1.5-0.5,0-0.5V0"/>
	</g>
	<g id="g3625" transform="matrix(5.2535789,0,0,5.2535789,638.5895,560.11013)">
		<path id="path3627" style="fill:#004165;" d="M0,0l6.4,8C7.2,8,8.2,8,9.1,8C10.1,8,11,8,12,8V7.6h-0.2c-0.8,0-2.4,0-2.5-0.7
			c0-0.4,0.1-0.9,0.1-1.2l1-7c0.1-0.8,0.8-0.8,2.4-0.9v-0.5c-1.3,0-2.6,0.1-3.9,0.1c-1.5,0-3,0-4.4-0.1v0.5c1.4,0,2.3,0,2.3,0.7
			c0,0.2,0,0.4,0,0.8L6,5.7H6l-6.9-8.7h-0.6l-6.5,8.5h-0.1L-9-1.2c0-0.5,0.2-0.7,0.6-0.9c0.4-0.1,1-0.2,1.7-0.2h0.3v-0.5
			c-1.2,0-2.5,0.1-3.7,0.1c-1,0-2.1,0-3.2-0.1v0.5h0.4c2.1,0,2.2,0.6,2.5,1.7l0.8,4.3c0.2,1.1,0.3,2.1,0.3,2.7
			c0,0.9-1.2,1.2-2.3,1.2H-12V8C-10.9,8-9.8,8-8.7,8C-7.9,8-7.1,8-6.3,8L0,0"/>
	</g>
	<g id="g3629" transform="matrix(5.2535789,0,0,5.2535789,802.15443,548.30534)">
		<path id="path3631" style="fill:#004165;" d="M0,0c5.2,0,6.1,2.6,6.1,4.9c0,2.2-2.1,5-6.6,5c-4.7,0-6.1-2.4-6.1-4.5
			C-6.6,2.6-4.4,0,0,0z M-0.4,10.5c5.7,0,10.3-2,10.3-5.3c0-3.5-4.4-5.9-10.2-5.9c-5.7,0-10.1,2.2-10.1,5.5C-10.3,8-6,10.5-0.4,10.5
			"/>
	</g>
	<g id="g3633" transform="matrix(5.2535789,0,0,5.2535789,987.79489,561.8911)">
		<path id="path3635" style="fill:#004165;" d="M0,0L0,0l0.1,5.8c0,1.3-1.5,1.4-2.3,1.4h-0.6v0.5c1.3,0,2.5-0.1,3.8-0.1
			c1.1,0,2.2,0.1,3.3,0.1V7.2H3.8c-1.1,0-2.4-0.1-2.4-2v-7c0-0.5,0-1.1,0.2-1.6h-1l-13.9,8.8v-6.3c0-1.3,0.5-1.8,2.5-1.8h0.5V-3
			C-11.5-3-12.7-3-13.8-3C-15-3-16.3-3-17.5-3v0.5h0.4c1.9,0,2.4,0.7,2.4,2v6.5c0,0.9-1.2,1.4-2.5,1.4h-0.4v0.5c1,0,2.1-0.1,3.1-0.1
			c0.8,0,1.6,0.1,2.4,0.1L0,0"/>
	</g>
	<g id="g3637" transform="matrix(5.2535789,0,0,5.2535789,1065.0487,598.35094)">
		<path id="path3639" style="fill:#004165;" d="M0,0c-2,0-2.1-0.3-2.5-1.4h-0.8C-3.2-1-3.1-0.5-3-0.1c0.1,0.4,0.2,0.9,0.2,1.3h0.6
			C-2,0.8-1.3,0.8-0.6,0.8h13.9c0.7,0,1.4,0,1.5,0.5l0.6-0.1c-0.1-0.4-0.2-0.8-0.3-1.2c-0.1-0.4-0.1-0.8-0.1-1.2l-0.8-0.2
			c-0.1,0.6-0.2,1.5-2,1.5H7.9v-8.2c0-1.2,0.9-1.3,2.2-1.3h0.5V-10c-1.1,0-2.9,0.1-4.4,0.1C4.6-9.9,2.7-10,1.7-10v0.5h0.5
			c1.5,0,2.2,0.1,2.2,1.3V0H0"/>
	</g>
</g>
</svg>
