<?xml version="1.0" encoding="utf-8"?>
<svg version="1.1" id="Layer_1" xmlns="http://www.w3.org/2000/svg" xmlns:xlink="http://www.w3.org/1999/xlink" x="0px" y="0px"
	width="100px" height="100px" viewBox="0 0 66.7 66.7" style="enable-background:new 0 0 66.7 66.7;" xml:space="preserve">
<g>
	<circle style="fill:#E8E8E8;" cx="33.3" cy="33.3" r="33.3"/>
	<circle style="fill:#FFFFFF;" cx="33.3" cy="33.3" r="32.7"/>
	<path style="fill:#867D57;" d="M8.4,31.1v-0.4c0-0.1-0.1-0.2-0.1-0.3S8.1,30.3,8,30.3H7.6v-0.2h2.8c0.3,0,0.6,0.1,0.9,0.1
		s0.5,0.2,0.7,0.4c0.2,0.1,0.3,0.3,0.5,0.6c0.1,0.3,0.2,0.5,0.2,0.8c0,0.3-0.1,0.5-0.1,0.8c-0.1,0.3-0.3,0.4-0.5,0.5
		c-0.2,0.1-0.4,0.3-0.6,0.3s-0.5,0.1-0.7,0.1h-0.3h-0.3H9.7c-0.1,0-0.1,0-0.3-0.1v1.9c0,0.2,0.1,0.3,0.1,0.4c0,0.1,0.1,0.2,0.2,0.3
		c0.1,0.1,0.2,0.1,0.3,0.1h0.5v0.2H7.7v-0.2h0.4c0.1,0,0.2-0.1,0.3-0.1c0.1-0.1,0.1-0.1,0.1-0.3v-0.4L8.4,31.1
		C8.4,31.1,8.4,31.1,8.4,31.1z M9.4,33.2l0.4,0.1c0.1,0,0.3,0.1,0.4,0.1c0.2,0,0.4,0,0.5-0.1c0.1-0.1,0.3-0.1,0.4-0.3
		s0.2-0.3,0.3-0.4s0.1-0.3,0.1-0.5c0-0.2,0-0.4-0.1-0.6c-0.1-0.2-0.1-0.3-0.3-0.5c-0.1-0.1-0.3-0.3-0.4-0.3s-0.3-0.1-0.5-0.1H9.9
		c-0.1,0-0.2,0-0.4,0.1L9.4,33.2z M13.9,31.1c0-0.2,0-0.3-0.1-0.4c0-0.1-0.1-0.2-0.1-0.3s-0.2-0.1-0.3-0.1h-0.5v-0.2h2.8v0.2h-0.4
		c-0.1,0-0.2,0.1-0.3,0.1c-0.1,0.1-0.1,0.1-0.1,0.3c0,0.1-0.1,0.3-0.1,0.4v4.4c0,0.2,0,0.3,0.1,0.4c0,0.1,0.1,0.2,0.1,0.3
		c0.1,0.1,0.1,0.1,0.3,0.1h0.4v0.2h-2.8v-0.2h0.5c0.1,0,0.2-0.1,0.3-0.1s0.1-0.1,0.2-0.3c0-0.1,0.1-0.3,0.1-0.4V31.1z M22.1,32.1
		h-0.2c0-0.2-0.1-0.5-0.2-0.7c-0.1-0.2-0.3-0.4-0.5-0.6c-0.2-0.1-0.4-0.3-0.6-0.4c-0.2-0.1-0.5-0.1-0.7-0.1c-0.3,0-0.7,0.1-0.9,0.2
		c-0.3,0.1-0.5,0.4-0.8,0.7c-0.3,0.3-0.4,0.6-0.5,1c-0.1,0.4-0.1,0.8-0.1,1.3s0.1,0.9,0.2,1.2c0.1,0.3,0.3,0.7,0.5,0.9
		c0.2,0.3,0.5,0.5,0.8,0.5c0.3,0.1,0.7,0.2,1,0.2c0.2,0,0.4,0,0.6-0.1c0.2-0.1,0.4-0.2,0.5-0.3c0.2-0.1,0.3-0.3,0.5-0.5
		c0.1-0.1,0.3-0.3,0.4-0.5l0.1,0.1c-0.1,0.2-0.3,0.4-0.5,0.6c-0.2,0.2-0.4,0.4-0.6,0.5l-0.7,0.4c-0.2,0.1-0.5,0.1-0.8,0.1
		c-0.5,0-0.9-0.1-1.3-0.3c-0.4-0.2-0.7-0.4-1.1-0.7c-0.3-0.3-0.5-0.7-0.7-1.1c-0.1-0.4-0.3-0.8-0.3-1.3c0-0.5,0.1-0.9,0.3-1.3
		c0.2-0.4,0.4-0.8,0.7-1.1c0.3-0.3,0.7-0.5,1.1-0.7c0.4-0.2,0.9-0.3,1.3-0.3c0.3,0,0.5,0,0.7,0.1c0.2,0.1,0.3,0.1,0.5,0.1
		c0.1,0.1,0.2,0.1,0.3,0.1c0.1,0.1,0.1,0.1,0.2,0.1s0.1-0.1,0.2-0.1s0.1-0.2,0.1-0.3h0.1L22.1,32.1L22.1,32.1z M28.6,32.1h-0.2
		c0-0.2-0.1-0.5-0.2-0.7c-0.1-0.2-0.3-0.4-0.5-0.6c-0.2-0.1-0.4-0.3-0.6-0.4c-0.2-0.1-0.5-0.1-0.7-0.1c-0.3,0-0.7,0.1-0.9,0.2
		c-0.3,0.1-0.5,0.4-0.8,0.7c-0.3,0.3-0.4,0.6-0.5,1c-0.1,0.4-0.1,0.8-0.1,1.3s0.1,0.9,0.2,1.2c0.1,0.3,0.3,0.7,0.5,0.9
		c0.2,0.3,0.5,0.5,0.8,0.5c0.3,0.1,0.7,0.2,1,0.2c0.2,0,0.4,0,0.6-0.1c0.2-0.1,0.4-0.2,0.5-0.3c0.2-0.1,0.3-0.3,0.5-0.5
		c0.1-0.1,0.3-0.3,0.4-0.5l0.1,0.1c-0.1,0.2-0.3,0.4-0.5,0.6c-0.2,0.2-0.4,0.4-0.6,0.5l-0.7,0.4c-0.3,0.1-0.5,0.1-0.8,0.1
		c-0.5,0-0.9-0.1-1.3-0.3c-0.4-0.2-0.7-0.4-1.1-0.7c-0.3-0.3-0.5-0.7-0.7-1.1c-0.1-0.4-0.3-0.8-0.3-1.3c0-0.5,0.1-0.9,0.3-1.3
		c0.2-0.4,0.4-0.8,0.7-1.1c0.3-0.3,0.7-0.5,1.1-0.7c0.4-0.2,0.9-0.3,1.3-0.3c0.3,0,0.5,0,0.7,0.1c0.2,0.1,0.3,0.1,0.5,0.1
		c0.1,0.1,0.2,0.1,0.3,0.1s0.1,0.1,0.2,0.1c0.1,0,0.1-0.1,0.2-0.1c0.1-0.1,0.1-0.2,0.1-0.3h0.1L28.6,32.1L28.6,32.1z M32.6,36.7
		c-0.5,0-0.9-0.1-1.3-0.3c-0.4-0.2-0.7-0.4-1-0.7s-0.5-0.7-0.7-1.1s-0.3-0.9-0.3-1.3c0-0.5,0.1-0.9,0.3-1.3c0.1-0.4,0.4-0.7,0.7-1.1
		c0.3-0.3,0.6-0.5,1-0.7s0.8-0.3,1.3-0.3s0.9,0.1,1.3,0.3c0.4,0.2,0.7,0.4,1,0.7c0.3,0.3,0.5,0.7,0.7,1.1c0.1,0.4,0.3,0.9,0.3,1.3
		c0,0.5-0.1,0.9-0.3,1.3c-0.1,0.4-0.4,0.8-0.7,1.1c-0.3,0.3-0.6,0.5-1,0.7C33.5,36.6,33.1,36.7,32.6,36.7z M32.6,36.4
		c0.3,0,0.6-0.1,0.9-0.2c0.3-0.1,0.5-0.4,0.7-0.7c0.2-0.3,0.3-0.6,0.4-1c0.1-0.3,0.1-0.8,0.1-1.2c0-0.5-0.1-0.9-0.1-1.2
		c-0.1-0.4-0.2-0.7-0.4-0.9c-0.2-0.3-0.4-0.5-0.7-0.6c-0.3-0.1-0.5-0.2-0.9-0.2s-0.7,0.1-0.9,0.2c-0.3,0.1-0.5,0.3-0.7,0.6
		c-0.2,0.3-0.3,0.6-0.4,0.9c-0.1,0.3-0.1,0.8-0.1,1.2c0,0.4,0.1,0.9,0.1,1.3c0.1,0.4,0.2,0.7,0.4,1c0.2,0.3,0.4,0.5,0.7,0.7
		C31.9,36.3,32.3,36.4,32.6,36.4z M37.3,31.1c0-0.2,0-0.3-0.1-0.4c0-0.1-0.1-0.2-0.1-0.3s-0.1-0.1-0.3-0.1h-0.4v-0.2h2.7v0.2h-0.4
		c-0.1,0-0.2,0.1-0.3,0.1s-0.1,0.1-0.1,0.3c0,0.1-0.1,0.3-0.1,0.4v4.6c0,0.1,0,0.3,0.1,0.3s0.1,0.1,0.3,0.1h1.2
		c0.3,0,0.5-0.1,0.7-0.1s0.4-0.2,0.5-0.3s0.3-0.3,0.4-0.5s0.2-0.4,0.3-0.6l0.2,0.1l-0.5,1.8h-5v-0.2h0.4c0.1,0,0.2-0.1,0.3-0.1
		s0.1-0.1,0.1-0.3s0.1-0.3,0.1-0.4L37.3,31.1C37.3,31.1,37.3,31.1,37.3,31.1z M43.3,31.1c0-0.2,0-0.3-0.1-0.4c0-0.1-0.1-0.2-0.1-0.3
		s-0.1-0.1-0.3-0.1h-0.4v-0.2h2.7v0.2h-0.4c-0.1,0-0.2,0.1-0.3,0.1s-0.1,0.1-0.1,0.3c0,0.1-0.1,0.3-0.1,0.4v4.4c0,0.2,0,0.3,0.1,0.4
		c0,0.1,0.1,0.2,0.1,0.3s0.1,0.1,0.3,0.1h0.4v0.2h-2.7v-0.2h0.4c0.1,0,0.2-0.1,0.3-0.1s0.1-0.1,0.1-0.3s0.1-0.3,0.1-0.4V31.1
		L43.3,31.1z M46.5,31.1c0-0.1,0-0.3-0.1-0.3s-0.1-0.2-0.2-0.3c-0.1-0.1-0.2-0.1-0.3-0.2c-0.1-0.1-0.2-0.1-0.4-0.1v-0.2h1.7l3.9,4.8
		h0.1v-3.7c0-0.2,0-0.3-0.1-0.4c0-0.1-0.1-0.2-0.1-0.3s-0.1-0.1-0.3-0.1h-0.4v-0.2h2.2v0.2H52c-0.1,0-0.2,0.1-0.3,0.1
		s-0.1,0.1-0.1,0.3s-0.1,0.3-0.1,0.4v5.6h-0.3l-4.2-5.2H47v4.1c0,0.2,0,0.3,0.1,0.4c0,0.1,0.1,0.2,0.1,0.3s0.2,0.1,0.3,0.1H48v0.2
		h-2.3v-0.2h0.4c0.1,0,0.2-0.1,0.3-0.1s0.1-0.1,0.1-0.3v-0.4L46.5,31.1C46.4,31.1,46.5,31.1,46.5,31.1z M55.9,36.7
		c-0.5,0-0.9-0.1-1.3-0.3c-0.4-0.2-0.7-0.4-1-0.7s-0.5-0.7-0.7-1.1s-0.3-0.9-0.3-1.3c0-0.5,0.1-0.9,0.3-1.3c0.1-0.4,0.4-0.7,0.7-1.1
		c0.3-0.3,0.6-0.5,1-0.7s0.8-0.3,1.3-0.3c0.5,0,0.9,0.1,1.3,0.3c0.4,0.2,0.7,0.4,1,0.7c0.3,0.3,0.5,0.7,0.7,1.1
		c0.1,0.4,0.3,0.9,0.3,1.3c0,0.5-0.1,0.9-0.3,1.3c-0.1,0.4-0.4,0.8-0.7,1.1c-0.3,0.3-0.6,0.5-1,0.7C56.8,36.6,56.4,36.7,55.9,36.7z
		 M55.9,36.4c0.3,0,0.6-0.1,0.9-0.2c0.3-0.1,0.5-0.4,0.7-0.7c0.2-0.3,0.3-0.6,0.4-1c0.1-0.4,0.1-0.8,0.1-1.3c0-0.5-0.1-0.9-0.1-1.2
		c-0.1-0.4-0.2-0.7-0.4-0.9c-0.2-0.3-0.4-0.5-0.7-0.6c-0.3-0.1-0.5-0.2-0.9-0.2c-0.3,0-0.7,0.1-0.9,0.2c-0.3,0.1-0.5,0.3-0.7,0.6
		c-0.2,0.3-0.3,0.6-0.4,0.9c-0.1,0.4-0.1,0.8-0.1,1.2c0,0.5,0.1,0.9,0.1,1.3c0.1,0.4,0.2,0.7,0.4,1c0.2,0.3,0.4,0.5,0.7,0.7
		C55.3,36.3,55.6,36.4,55.9,36.4z"/>
</g>
</svg>
