<?xml version="1.0"?>
<svg xmlns="http://www.w3.org/2000/svg" xmlns:xlink="http://www.w3.org/1999/xlink" xmlns:svgjs="http://svgjs.com/svgjs" version="1.1" width="512" height="512" x="0" y="0" viewBox="0 0 512 512" style="enable-background:new 0 0 512 512" xml:space="preserve" class=""><g>
<circle xmlns="http://www.w3.org/2000/svg" style="" cx="256" cy="256" r="256" fill="#f1f1f1" data-original="#ff6308" class=""/>
<path xmlns="http://www.w3.org/2000/svg" style="" d="M512,256c0-0.328-0.011-0.653-0.012-0.981c-53.12-53.119-110.457-110.452-110.457-110.452  l-54.022,54.021l23.758,23.769h-9.956l-77.8-77.79l-54.022,54.021l23.758,23.769h-9.956l-77.801-77.791l-54.021,54.022  l23.758,23.769L88.333,307.28l12.599,12l3.824,59.857l132.155,132.155C243.214,511.757,249.578,512,256,512  C397.385,512,512,397.385,512,256z" fill="#f1f1f1" data-original="#c9460d" class=""/>
<polygon xmlns="http://www.w3.org/2000/svg" style="" points="296.318,268.085 289.224,379.137 256,379.137 229.87,241.955 " fill="#01538d" data-original="#01538d"/>
<polygon xmlns="http://www.w3.org/2000/svg" style="" points="215.682,268.085 222.776,379.137 256,379.137 256,241.955 " fill="#0272aa" data-original="#0272aa"/>
<path xmlns="http://www.w3.org/2000/svg" style="" d="M256,132.863c21.107,0,38.215,17.108,38.215,38.215S277.107,209.293,256,209.293l-25.477-38.215  L256,132.863z" fill="#ff8945" data-original="#ff8945"/>
<path xmlns="http://www.w3.org/2000/svg" style="" d="M256,132.863v76.43c-21.107,0-38.215-17.107-38.215-38.215  C217.785,149.971,234.893,132.863,256,132.863z" fill="#ffa851" data-original="#ffa851" class=""/>
<polygon xmlns="http://www.w3.org/2000/svg" style="" points="305.647,222.358 305.647,307.28 256,307.28 236.403,265.945 256,222.358 " fill="#ffc65c" data-original="#ffc65c"/>
<rect xmlns="http://www.w3.org/2000/svg" x="206.35" y="222.36" style="" width="49.647" height="84.92" fill="#ffdd7d" data-original="#ffdd7d"/>
<polygon xmlns="http://www.w3.org/2000/svg" style="" points="178.298,268.085 171.204,379.137 137.98,379.137 111.85,241.955 " fill="#04afe3" data-original="#04afe3"/>
<polygon xmlns="http://www.w3.org/2000/svg" style="" points="97.662,268.085 104.756,379.137 137.98,379.137 137.98,241.955 " fill="#05ceff" data-original="#05ceff" class=""/>
<path xmlns="http://www.w3.org/2000/svg" style="" d="M137.98,132.863c21.107,0,38.215,17.108,38.215,38.215s-17.108,38.215-38.215,38.215l-25.477-38.215  L137.98,132.863z" fill="#ff8945" data-original="#ff8945"/>
<path xmlns="http://www.w3.org/2000/svg" style="" d="M137.98,132.863v76.43c-21.107,0-38.215-17.107-38.215-38.215  C99.765,149.971,116.873,132.863,137.98,132.863z" fill="#ffa851" data-original="#ffa851" class=""/>
<polygon xmlns="http://www.w3.org/2000/svg" style="" points="187.627,222.358 187.627,307.28 137.98,307.28 118.383,265.945 137.98,222.358 " fill="#ff39a1" data-original="#ff39a1"/>
<rect xmlns="http://www.w3.org/2000/svg" x="88.33" y="222.36" style="" width="49.647" height="84.92" fill="#ff69b8" data-original="#ff69b8"/>
<polygon xmlns="http://www.w3.org/2000/svg" style="" points="414.338,268.085 407.244,379.137 374.02,379.137 347.89,241.955 " fill="#04afe3" data-original="#04afe3"/>
<polygon xmlns="http://www.w3.org/2000/svg" style="" points="333.702,268.085 340.796,379.137 374.02,379.137 374.02,241.955 " fill="#05ceff" data-original="#05ceff" class=""/>
<path xmlns="http://www.w3.org/2000/svg" style="" d="M374.02,132.863c21.107,0,38.215,17.108,38.215,38.215s-17.108,38.215-38.215,38.215l-25.477-38.215  L374.02,132.863z" fill="#ff8945" data-original="#ff8945"/>
<path xmlns="http://www.w3.org/2000/svg" style="" d="M374.02,132.863v76.43c-21.107,0-38.215-17.107-38.215-38.215  C335.805,149.971,352.913,132.863,374.02,132.863z" fill="#ffa851" data-original="#ffa851" class=""/>
<polygon xmlns="http://www.w3.org/2000/svg" style="" points="423.667,222.358 423.667,307.28 374.02,307.28 354.423,265.945 374.02,222.358 " fill="#297f58" data-original="#297f58"/>
<rect xmlns="http://www.w3.org/2000/svg" x="324.37" y="222.36" style="" width="49.647" height="84.92" fill="#51946f" data-original="#51946f"/>
<g xmlns="http://www.w3.org/2000/svg">
</g>
<g xmlns="http://www.w3.org/2000/svg">
</g>
<g xmlns="http://www.w3.org/2000/svg">
</g>
<g xmlns="http://www.w3.org/2000/svg">
</g>
<g xmlns="http://www.w3.org/2000/svg">
</g>
<g xmlns="http://www.w3.org/2000/svg">
</g>
<g xmlns="http://www.w3.org/2000/svg">
</g>
<g xmlns="http://www.w3.org/2000/svg">
</g>
<g xmlns="http://www.w3.org/2000/svg">
</g>
<g xmlns="http://www.w3.org/2000/svg">
</g>
<g xmlns="http://www.w3.org/2000/svg">
</g>
<g xmlns="http://www.w3.org/2000/svg">
</g>
<g xmlns="http://www.w3.org/2000/svg">
</g>
<g xmlns="http://www.w3.org/2000/svg">
</g>
<g xmlns="http://www.w3.org/2000/svg">
</g>
</g></svg>
