<?xml version="1.0"?>
<svg xmlns="http://www.w3.org/2000/svg" xmlns:xlink="http://www.w3.org/1999/xlink" xmlns:svgjs="http://svgjs.com/svgjs" version="1.1" width="512" height="512" x="0" y="0" viewBox="0 0 512 512" style="enable-background:new 0 0 512 512" xml:space="preserve" class=""><g><g xmlns="http://www.w3.org/2000/svg"><g><g><g id="XMLID_956_"><g id="XMLID_957_"><g id="XMLID_958_"><g id="XMLID_959_"><g id="XMLID_960_"><g id="XMLID_961_"><g id="XMLID_962_"><g id="XMLID_963_"><g id="XMLID_964_"><g id="XMLID_965_"><g id="XMLID_966_"><g id="XMLID_970_"><g id="XMLID_971_"><g id="XMLID_972_"><g id="XMLID_973_"><path d="m0 256c0-141.385 114.615-256 256-256s256 114.615 256 256c0 59.106-20.031 113.533-53.674 156.864-46.834 60.32-120.047 49.005-202.326 49.005s-155.492 11.315-202.326-49.004c-33.643-43.332-53.674-97.759-53.674-156.865z" fill="#f1f1f1" data-original="#43e9ff" style="" class=""/></g></g></g></g></g></g></g></g></g></g></g></g></g></g></g></g></g><path d="m82.615 439.738c45.603 29.607 106.498 22.131 173.385 22.131 82.279 0 155.492 11.315 202.326-49.004 33.643-43.332 53.674-97.759 53.674-156.865 0-11.518-.774-22.853-2.248-33.968l-163.821-163.822z" fill="#f1f1f1" data-original="#19c4e0" style="" class=""/><g><path d="m386.916 182.051c-7.602-173.295-130.916-163.733-130.916-163.733h-.009s-123.314-9.563-130.916 163.732 59.128 170.761 59.128 170.761h71.788.009 71.788s66.73 2.534 59.128-170.76z" fill="#f4b94e" data-original="#f4b94e" style=""/><path d="m327.79 352.81h-71.79v-334.49s123.31-9.56 130.92 163.73c7.6 173.3-59.13 170.76-59.13 170.76z" fill="#ff936b" data-original="#ff936b" style="" class=""/><path d="m201.155 240.511h109.691v116.327h-109.691z" fill="#ffbb7d" data-original="#ffbb7d" style=""/><path d="m256 240.514h54.845v116.327h-54.845z" fill="#efa36a" data-original="#efa36a" style=""/><path d="m156.463 305.075h199.071v111.878h-199.071z" fill="#ffd4a6" data-original="#ffd4a6" style=""/><path d="m255.999 305.075h99.538v111.875h-99.538z" fill="#ffbb7d" data-original="#ffbb7d" style=""/><path d="m458.32 378.27v34.59c-11.75 15.13-25.16 28.91-39.96 41.07-44.18 36.29-100.72 58.07-162.36 58.07s-118.18-21.78-162.36-58.07c-14.8-12.16-28.21-25.94-39.96-41.07v-34.59c1.16-37.61 29.8-68.29 66.51-72.66 2.95-.35 80.97-.53 80.97-.53 0 2.79.72 5.48 2.04 7.85 1.31 2.36 3.22 4.39 5.59 5.87l38.7 24.02c5.21 3.23 11.81 3.23 17.02 0l38.7-24.02c4.74-2.95 7.63-8.14 7.63-13.72h38.73s39.29.18 42.24.53c36.72 4.36 65.36 35.04 66.51 72.66z" fill="#fcfcfc" data-original="#fcfcfc" style="" class=""/><path d="m458.32 378.27v34.59c-11.75 15.13-25.16 28.91-39.96 41.07-44.18 36.29-100.72 58.07-162.36 58.07v-166.76c2.95 0 5.9-.8 8.51-2.42l22.91-14.22 15.79-9.8c4.74-2.95 7.63-8.14 7.63-13.72 0 0 78.02.18 80.97.53 7.38.88 14.44 2.82 21.01 5.66 26.12 11.32 44.58 36.95 45.5 67z" fill="#ddd9d4" data-original="#ddd9d4" style="" class=""/><path d="m347.641 125.978c-3.871-58.774-51.413-80.495-91.641-80.495s-87.77 21.721-91.641 80.494c-10.403 2.012-17.792 15.657-16.629 26.688l1.783 25.106c1.22 11.585 11.404 20.043 22.627 18.784l1.936-.21c22.989 61.73 59.041 68.166 81.925 71.78 22.884-3.614 58.936-10.05 81.925-71.78l1.936.21c11.223 1.259 21.406-7.199 22.627-18.784l1.783-25.106c1.161-11.031-6.228-24.676-16.631-26.687z" fill="#ffd4a6" data-original="#ffd4a6" style=""/><path d="m364.27 152.666-1.783 25.106c-1.221 11.585-11.404 20.043-22.627 18.784l-1.936-.21c-7.857 21.073-17.23 35.709-27.079 45.978-18.994 19.814-39.77 23.418-54.845 25.802v-222.643c40.228 0 87.77 21.721 91.641 80.494 10.403 2.012 17.792 15.657 16.629 26.689z" fill="#ffbb7d" data-original="#ffbb7d" style=""/><path d="m255.991 32.943c-104.302-8.44-99.528 97.138-99.528 97.138 77.052 18.333 99.158-34.85 99.528-36.134.37 1.284 22.476 54.466 99.528 36.134 0 0 4.774-105.578-99.528-97.138z" fill="#f4b94e" data-original="#f4b94e" style=""/><path d="m355.52 130.08c-76.57 18.21-98.88-34.18-99.52-36.1v-61.04c104.29-8.43 99.52 97.14 99.52 97.14z" fill="#ff936b" data-original="#ff936b" style="" class=""/><g><path d="m293.67 414.909h87.847v30h-87.847z" fill="#ea1c81" data-original="#ea1c81" style=""/></g><path d="m256 345.24-54.845-70.217-44.692 30.633 68.848 74.748z" fill="#8e4dd5" data-original="#8e4dd5" style=""/><path d="m255.999 345.24 54.846-70.217 44.691 30.633-68.847 74.748z" fill="#4540c6" data-original="#4540c6" style=""/></g></g></g></svg>
