<?xml version="1.0"?>
<svg xmlns="http://www.w3.org/2000/svg" xmlns:xlink="http://www.w3.org/1999/xlink" xmlns:svgjs="http://svgjs.com/svgjs" version="1.1" width="512" height="512" x="0" y="0" viewBox="0 0 512 512" style="enable-background:new 0 0 512 512" xml:space="preserve" class=""><g><g xmlns="http://www.w3.org/2000/svg"><g><g><g><g><g><circle cx="256" cy="256" fill="#f1f1f1" r="256" data-original="#a3d4ff" style="" class=""/></g></g></g></g></g><path d="m512 256c0-4.697-.126-9.364-.376-13.999l-153.038-153.038-11.516 17.741-76.07-76.07-138.845 113.69-23.836 48.512 98.352 98.352-47.881 50.152 66.393 66.393-57.447 34.409 69.156 69.156c6.309.465 12.681.702 19.108.702 141.385 0 256-114.615 256-256z" fill="#f1f1f1" data-original="#65b1fc" style="" class=""/><g><path d="m241 30.634h30v271.71h-30z" fill="#ffffff" data-original="#ffffff" style="" class=""/></g><g><path d="m256 30.634h15v271.71h-15z" fill="#e9edf5" data-original="#e9edf5" style="" class=""/></g><g><g><g><path d="m344.263 442.142h-56.637l-31.626-7.142-31.626 7.142h-56.637v-132.421l88.263-64.617 88.263 64.617z" fill="#ffffff" data-original="#ffffff" style="" class=""/></g></g><g><g><path d="m256 245.135v189.875l31.626 7.132h56.637v-132.42z" fill="#e9edf5" data-original="#e9edf5" style="" class=""/></g></g><g><g><path d="m353.209 341.34-97.209-76.264-97.209 76.264-19.398-24.726 116.607-91.482 116.607 91.482z" fill="#636978" data-original="#636978" style=""/></g></g><g><g><path d="m372.607 316.614-116.607-91.482v39.944l97.209 76.264z" fill="#414952" data-original="#414952" style="" class=""/></g></g><g><g><path d="m224.374 362.508h63.252v79.634h-63.252z" fill="#636978" data-original="#636978" style=""/></g></g><g><g><path d="m256 362.508h31.626v79.634h-31.626z" fill="#414952" data-original="#414952" style="" class=""/></g></g></g><g><path d="m158.856 165.164c19.978 0 37.674 9.77 48.572 24.791 10.898-15.021 28.594-33.022 48.572-33.022s37.674 18.001 48.572 33.022c10.898-15.021 28.594-24.791 48.572-24.791 21.228 0 39.88 11.03 50.537 27.672-1.269-80.478-66.901-145.326-147.681-145.326s-146.412 64.848-147.681 145.326c10.657-16.642 29.309-27.672 50.537-27.672z" fill="#fe8205" data-original="#fe8205" style="" class=""/></g><g><path d="m256.042 47.511-.042 109.423c19.961.025 37.682 18.01 48.572 33.021 10.898-15.021 28.594-24.791 48.572-24.791 21.228 0 39.88 11.03 50.537 27.672-1.269-80.463-66.879-145.302-147.639-145.325z" fill="#fa5d0f" data-original="#fa5d0f" style=""/></g><g><path d="m256 165.164c19.941 0 37.669 9.817 48.572 24.791-.924-79.099-22.35-142.445-48.572-142.445s-47.648 63.346-48.572 142.445c10.903-14.974 28.631-24.791 48.572-24.791z" fill="#fe6a16" data-original="#fe6a16" style=""/></g><g><path d="m304.572 189.955c-.923-79.056-22.37-142.375-48.572-142.443v117.653c19.923.014 37.677 9.827 48.572 24.79z" fill="#f24500" data-original="#f24500" style=""/></g></g></g></svg>
