<?xml version="1.0" encoding="utf-8"?>
<svg version="1.1" id="Layer_1" xmlns="http://www.w3.org/2000/svg" xmlns:xlink="http://www.w3.org/1999/xlink" x="0px" y="0px"
	width="100px" height="100px" viewBox="0 0 100 100" style="enable-background:new 0 0 100 100;" xml:space="preserve">
<g>
	<path style="fill:#E8E8E8;" d="M50,0c27.61,0,50,22.39,50,50s-22.39,50-50,50S0,77.61,0,50S22.39,0,50,0"/>
	<path style="fill:#FFFFFF;" d="M50,1c27.06,0,49,21.94,49,49S77.06,99,50,99S1,77.06,1,50S22.94,1,50,1"/>
	<g id="Brand_Blue">
		<g id="Wise_1_">
			<path style="fill:#00B9FF;" d="M88.1,48.92c0-4.43-3.08-7.54-7.41-7.54c-5.5,0-9.19,4-9.19,9.71c0,4.46,3.11,7.54,7.51,7.54
				c4,0,6.98-1.93,8.21-5.02h-4.44c-0.59,0.96-1.84,1.56-3.38,1.56c-2.36,0-3.84-1.56-3.97-3.78h12.43
				C88.02,50.55,88.1,49.83,88.1,48.92z M75.77,48.4c0.4-2.04,2.38-3.66,4.77-3.66c2.07,0,3.63,1.51,3.63,3.66H75.77z"/>
			<path style="fill:#00B9FF;" d="M59.56,58.23l0.8-4.25c2.44,0.49,2.8-0.89,3.44-4.19l0.31-1.64c0.89-4.62,2.67-6.92,7.78-6.3
				l-0.8,4.25c-2.44-0.49-2.86,1.36-3.41,4.22l-0.31,1.64C66.48,56.63,64.64,58.85,59.56,58.23z"/>
			<polygon style="fill:#00B9FF;" points="53.6,58.24 56.61,41.77 60.58,41.77 57.59,58.24 			"/>
			<polygon style="fill:#00B9FF;" points="30.86,41.77 34.71,41.77 35.97,53.68 41.01,41.77 44.83,41.77 46.18,53.8 51.05,41.77 
				54.88,41.77 47.9,58.24 43.54,58.24 42.12,46.91 37.29,58.24 33.07,58.24 			"/>
		</g>
		<polygon id="FF_1_" style="fill:#00B9FF;" points="16.47,46.14 11.9,50.51 19.67,50.51 20.48,48.61 16.54,48.61 19.01,46.14 
			17.58,43.68 24.26,43.68 18.09,58.24 20.41,58.24 27.39,41.77 13.9,41.77 		"/>
	</g>
</g>
</svg>
