<?xml version="1.0" encoding="utf-8"?>
<svg version="1.1" id="Layer_1" xmlns="http://www.w3.org/2000/svg" xmlns:xlink="http://www.w3.org/1999/xlink" x="0px" y="0px"
	width="100px" height="100px" viewBox="0 0 1920 664.3" style="enable-background:new 0 0 1920 664.3;" xml:space="preserve">
<g>
	<g>
		<path style="fill:#333E49;" d="M580.6,216.2v96.9h-42.1V65.4h91.8c47.6,0,79.1,32.3,79.1,75.7c0,43.8-31.5,75.7-79.1,75.7
			L580.6,216.2L580.6,216.2z M624,179.3c26.8,0,42.5-14.9,42.5-38.3c0-23.8-16.2-38.7-42.5-38.7h-43.8v76.9H624z"/>
		<path style="fill:#333E49;" d="M723.5,313.2V65.4h40.4v247.8H723.5z"/>
		<path style="fill:#333E49;" d="M837.4,215.8l43.8-6.8c9.8-1.3,12.8-6.4,12.8-12.3c0-14.5-9.8-25.9-32.3-25.9
			c-21.3,0-33.2,13.6-34.9,30.6l-37-8.5c3-29.3,29.8-55.7,71.8-55.7c52.3,0,72.3,29.8,72.3,63.8v84.6c0,15.3,1.7,25.5,2.1,27.2
			h-37.8c-0.4-0.9-1.7-8.1-1.7-21.7c-8.1,12.8-24.7,26.8-52.3,26.8c-35.7,0-57.8-24.7-57.8-51.4
			C785.9,236.7,808.5,220.1,837.4,215.8z M893.9,242.6V235l-44.6,6.8c-12.8,2.1-22.5,8.9-22.5,23c0,11.5,8.9,22.1,24.7,22.1
			C874.4,286.8,893.9,275.8,893.9,242.6z"/>
		<path style="fill:#333E49;" d="M990.4,228.2c0,34.4,22.1,53.6,47.6,53.6c26.8,0,38.7-18.7,42.5-31.5l35.7,12.8
			c-8.1,26.8-33.6,55.7-78.2,55.7c-50.2,0-88-38.7-88-90.5c0-52.3,38.3-90.1,87.1-90.1c45.9,0,71,28.5,78.2,56.1l-36.6,13.2
			c-3.8-14.9-15.3-31.9-41.2-31.9C1012.5,175,990.4,193.7,990.4,228.2z"/>
		<path style="fill:#333E49;" d="M1282,264.7c-8.9,29.8-36.1,54-76.9,54c-46.3,0-87.1-33.6-87.1-91.4c0-54,40-89.7,82.9-89.7
			c52.3,0,83.3,34.4,83.3,88.4c0,6.8-0.9,12.3-0.9,12.8h-124.5c0.9,25.9,21.3,44.6,46.3,44.6c24.7,0,37-12.8,42.5-29.8L1282,264.7z
			 M1243.3,209.4c-0.9-20-14-37.8-42.1-37.8c-25.5,0-40.4,19.6-41.7,37.8L1243.3,209.4L1243.3,209.4z"/>
		<path style="fill:#333E49;" d="M1324.1,257.5c1.3,15.3,12.8,28.9,34.4,28.9c17,0,25.5-8.9,25.5-19.6c0-8.9-6.4-16.2-20-18.7
			l-25.1-5.5c-30.2-6.8-45.9-26.4-45.9-49.7c0-29.8,27.2-54.8,62.5-54.8c47.6,0,62.9,30.6,65.9,47.6l-34.4,9.8
			c-1.3-9.8-8.9-25.5-31.5-25.5c-14.5,0-24.7,8.9-24.7,19.6c0,8.9,6.8,15.7,17,17.9l25.9,5.1c32.3,6.8,48.9,26.8,48.9,51.9
			c0,25.9-20.8,54.4-64.2,54.4c-49.3,0-68-32.3-70.1-51.4L1324.1,257.5z"/>
	</g>
	<g>
		<path style="fill:#333E49;" d="M579.4,404.6v22.5h39.5v35.3h-39.5v135.2h-40.8V462.4h-29.8v-35.3h29.8v-23.4
			c0-38.3,24.7-61.2,59.5-61.2c10.2,0,18.7,2.1,21.3,3.4v34.4c-2.6-0.9-6.8-1.7-14.9-1.7C593.8,378.6,579.4,383.7,579.4,404.6z"/>
		<path style="fill:#333E49;" d="M791.9,512.1c0,52.3-37.4,90.5-88.4,90.5c-50.6,0-88-38.3-88-90.5s37.4-90.1,88-90.1
			C754.5,422,791.9,459.8,791.9,512.1z M751.1,512.1c0-35.3-22.5-53.6-47.6-53.6c-24.7,0-47.6,18.3-47.6,53.6s22.5,54.4,47.6,54.4
			C728.6,566.1,751.1,547.8,751.1,512.1z"/>
		<path style="fill:#333E49;" d="M908.4,467.5c-4.7-0.9-8.9-0.9-13.2-0.9c-31.5,0-45.9,18.3-45.9,50.2V598h-40.4V427.5h39.5v27.2
			c8.1-18.7,26.8-29.3,49.3-29.3c5.1,0,8.9,0.9,11.1,0.9v41.2L908.4,467.5L908.4,467.5z"/>
		<path style="fill:#333E49;" d="M1031.6,500.6v96.9h-42.1V349.3h91.8c47.6,0,79.1,32.3,79.1,75.7c0,43.8-31.5,75.7-79.1,75.7
			H1031.6L1031.6,500.6z M1075.4,463.6c26.8,0,42.5-14.9,42.5-38.3c0-23.8-16.2-38.7-42.5-38.7h-43.8v76.9H1075.4z"/>
		<path style="fill:#333E49;" d="M1314.3,548.6c-8.9,29.8-36.1,54-76.9,54c-46.3,0-87.1-33.6-87.1-91.4c0-54,40-89.7,82.9-89.7
			c52.3,0,83.3,34.4,83.3,88.4c0,6.8-0.9,12.3-0.9,12.8H1191c0.9,25.9,21.3,44.6,46.3,44.6c24.7,0,37-12.8,42.5-29.8L1314.3,548.6z
			 M1275.6,493.4c-0.9-20-14-37.8-42.1-37.8c-25.5,0-40.4,19.6-41.7,37.8H1275.6z"/>
		<path style="fill:#333E49;" d="M1504.7,512.1c0,52.3-37.4,90.5-88.4,90.5c-50.6,0-88-38.3-88-90.5s37.4-90.1,88-90.1
			C1467.3,422,1504.7,459.8,1504.7,512.1z M1463.5,512.1c0-35.3-22.5-53.6-47.6-53.6c-24.7,0-47.6,18.3-47.6,53.6
			s22.5,54.4,47.6,54.4C1441.4,566.1,1463.5,547.8,1463.5,512.1z"/>
		<path style="fill:#333E49;" d="M1515.8,663.8V427.1h39.1v23c8.5-14.9,28.1-26.8,54.4-26.8c50.6,0,78.6,38.7,78.6,88.8
			c0,51-31,89.7-79.9,89.7c-24.7,0-42.9-10.6-51.9-23.4v85.9h-40.4V663.8z M1601.6,459.4c-26.8,0-45.9,20.8-45.9,52.7
			c0,32.7,19.1,53.6,45.9,53.6s45.9-20.8,45.9-53.6C1647.1,480.2,1628.8,459.4,1601.6,459.4z"/>
		<path style="fill:#333E49;" d="M1700.7,597.5V349.3h40.4v248.2H1700.7L1700.7,597.5z"/>
		<path style="fill:#333E49;" d="M1917.9,548.6c-8.9,29.8-36.1,54-76.9,54c-46.3,0-87.1-33.6-87.1-91.4c0-54,40-89.7,82.9-89.7
			c52.3,0,83.3,34.4,83.3,88.4c0,6.8-0.9,12.3-0.9,12.8h-124.5c0.9,25.9,21.3,44.6,46.3,44.6c24.7,0,37-12.8,42.5-29.8L1917.9,548.6
			z M1878.8,493.4c-0.9-20-14-37.8-42.1-37.8c-25.5,0-40.4,19.6-41.7,37.8H1878.8z"/>
	</g>
	<g>
		
			<linearGradient id="SVGID_1_" gradientUnits="userSpaceOnUse" x1="91.1062" y1="854.6874" x2="43.2316" y2="902.562" gradientTransform="matrix(4.2506 0 0 4.2506 -3.2509 -3435.9961)">
			<stop  offset="0.2" style="stop-color:#98D6F1"/>
			<stop  offset="0.9" style="stop-color:#6F58A2"/>
		</linearGradient>
		<path style="fill:url(#SVGID_1_);" d="M357.5,274.9L357.5,274.9c0,11.1-4.3,22.1-12.8,30.6l-72.3,72.3c-17,17-44.6,17-61.2,0
			c-17-17-17-44.6,0-61.2L346.8,181c5.5-5.5,6.8-13.2,3.8-20l0,0c4.3,4.7,6.8,11.1,6.8,17.9V274.9"/>
		
			<linearGradient id="SVGID_2_" gradientUnits="userSpaceOnUse" x1="-13.0225" y1="861.5318" x2="83.375" y2="957.9294" gradientTransform="matrix(4.2506 0 0 4.2506 -3.2509 -3435.9961)">
			<stop  offset="0.2" style="stop-color:#98D6F1"/>
			<stop  offset="0.9" style="stop-color:#6F58A2"/>
		</linearGradient>
		<path style="fill:url(#SVGID_2_);" d="M241.9,597.5h54.8l0,0c2.6,0,4.7-2.1,4.7-4.7l0,0V538c0-1.3-0.4-2.6-1.3-3.4l0,0L20.4,254.9
			C8.1,243,1.3,227.7,0,212v127.1c0,11.9,4.7,23,12.8,30.6l0,0l226.1,226.1l0,0C239.3,597.1,240.6,597.5,241.9,597.5z"/>
		<path style="fill:#6F58A2;" d="M351.1,160.6L195.5,5.4l0,0c-7.2-7.2-18.7-7.2-25.9,0l0,0L6.4,168.2l0,0C2.1,172.5,0,178.4,0,183.9
			l0,0V212c1.7,15.7,8.5,30.6,20.4,42.9l66.3,66.3V210.7l96.1-96.1L298,229.9l49.3-49.3C352.4,175.4,353.7,167.4,351.1,160.6z"/>
	</g>
</g>
</svg>
