<?xml version="1.0"?>
<svg xmlns="http://www.w3.org/2000/svg" xmlns:xlink="http://www.w3.org/1999/xlink" xmlns:svgjs="http://svgjs.com/svgjs" version="1.1" width="512" height="512" x="0" y="0" viewBox="0 0 512 512" style="enable-background:new 0 0 512 512" xml:space="preserve" class=""><g>
<g xmlns="http://www.w3.org/2000/svg" id="surface1">
<path d="M 512 256 C 512 397.386719 397.386719 512 256 512 C 114.613281 512 0 397.386719 0 256 C 0 114.613281 114.613281 0 256 0 C 397.386719 0 512 114.613281 512 256 Z M 512 256 " style="" fill="#f1f1f1" data-original="#414952" class=""/>
<path d="M 509.914062 223.199219 L 396.535156 109.816406 L 365.183594 199.183594 L 275.816406 109.816406 L 276.3125 237.375 L 148.757812 109.816406 L 152.074219 389.601562 L 274.691406 511.316406 C 407.347656 501.742188 512 391.097656 512 256 C 512 244.886719 511.289062 233.9375 509.914062 223.199219 Z M 509.914062 223.199219 " style="" fill="#f1f1f1" data-original="#333940" class=""/>
<path d="M 371.890625 121.316406 C 365.320312 144.042969 344.371094 160.664062 319.53125 160.664062 C 294.6875 160.664062 273.742188 144.042969 267.171875 121.316406 L 244.828125 121.316406 C 238.257812 144.042969 217.3125 160.664062 192.46875 160.664062 C 167.628906 160.664062 146.683594 144.042969 140.109375 121.316406 L 126.964844 121.316406 L 126.964844 299.949219 C 126.964844 344.894531 152.808594 385.832031 193.378906 405.164062 L 256 435 L 318.621094 405.164062 C 359.195312 385.832031 385.035156 344.894531 385.035156 299.949219 L 385.035156 121.316406 Z M 371.890625 121.316406 " style="" fill="#09ce67" data-original="#09ce67"/>
<path d="M 371.890625 121.316406 C 365.320312 144.042969 344.371094 160.664062 319.53125 160.664062 C 294.6875 160.664062 273.742188 144.042969 267.171875 121.316406 L 255.761719 121.316406 L 255.761719 434.886719 L 256 435 L 318.621094 405.164062 C 359.195312 385.832031 385.035156 344.894531 385.035156 299.949219 L 385.035156 121.316406 Z M 371.890625 121.316406 " style="" fill="#1aad5c" data-original="#1aad5c"/>
<path d="M 256 447.738281 L 188.433594 415.546875 C 166.5625 405.125 148.164062 388.789062 135.230469 368.300781 C 122.300781 347.8125 115.464844 324.179688 115.464844 299.949219 L 115.464844 109.816406 L 148.757812 109.816406 L 151.15625 118.125 C 156.441406 136.402344 173.429688 149.164062 192.46875 149.164062 C 211.511719 149.164062 228.496094 136.402344 233.78125 118.125 L 236.183594 109.816406 L 275.816406 109.816406 L 278.21875 118.125 C 283.503906 136.402344 300.492188 149.164062 319.53125 149.164062 C 338.570312 149.164062 355.558594 136.402344 360.84375 118.125 L 363.246094 109.816406 L 396.535156 109.816406 L 396.535156 299.949219 C 396.535156 324.179688 389.699219 347.8125 376.769531 368.300781 C 363.835938 388.785156 345.441406 405.125 323.566406 415.546875 Z M 138.464844 144.050781 L 138.464844 299.949219 C 138.464844 340.230469 161.960938 377.457031 198.324219 394.78125 L 256 422.261719 L 313.675781 394.78125 C 350.039062 377.457031 373.535156 340.230469 373.535156 299.949219 L 373.535156 144.050781 C 361.390625 161.25 341.335938 172.167969 319.53125 172.167969 C 293.289062 172.167969 269.585938 156.363281 259.148438 132.820312 L 252.851562 132.820312 C 242.414062 156.363281 218.710938 172.167969 192.46875 172.167969 C 170.664062 172.167969 150.609375 161.25 138.464844 144.050781 Z M 138.464844 144.050781 " style="" fill="#ffffff" data-original="#ffffff" class=""/>
<path d="M 363.242188 109.816406 L 360.84375 118.125 C 355.558594 136.402344 338.570312 149.164062 319.53125 149.164062 C 300.488281 149.164062 283.503906 136.402344 278.21875 118.125 L 275.816406 109.816406 L 255.761719 109.816406 L 255.761719 132.816406 L 259.148438 132.816406 C 269.585938 156.363281 293.289062 172.164062 319.53125 172.164062 C 341.335938 172.164062 361.390625 161.25 373.535156 144.050781 L 373.535156 299.949219 C 373.535156 340.230469 350.039062 377.453125 313.675781 394.78125 L 256 422.261719 L 255.761719 422.148438 L 255.761719 447.625 L 256 447.738281 L 323.566406 415.546875 C 345.4375 405.125 363.835938 388.789062 376.769531 368.300781 C 389.699219 347.8125 396.535156 324.179688 396.535156 299.949219 L 396.535156 109.816406 Z M 363.242188 109.816406 " style="" fill="#e9edf5" data-original="#e9edf5" class=""/>
<path d="M 222.605469 231.003906 L 161.421875 231.003906 L 161.421875 248.8125 L 183.109375 248.8125 L 183.109375 292.996094 L 200.914062 292.996094 L 200.914062 248.8125 L 222.605469 248.8125 Z M 222.605469 231.003906 " style="" fill="#ffffff" data-original="#ffffff" class=""/>
<path d="M 338.578125 231.8125 L 319.402344 231.8125 L 310.726562 246.90625 L 302.050781 231.8125 L 282.875 231.8125 L 300.453125 262.402344 L 282.875 292.996094 L 302.050781 292.996094 L 310.726562 277.898438 L 319.402344 292.996094 L 338.578125 292.996094 L 321 262.402344 Z M 338.578125 231.8125 " style="" fill="#e9edf5" data-original="#e9edf5" class=""/>
<path d="M 261.414062 292.996094 L 279.222656 292.996094 L 262.328125 231.8125 L 235.390625 231.8125 L 218.496094 292.996094 L 236.300781 292.996094 L 240.597656 277.445312 L 257.121094 277.445312 Z M 244.027344 265.019531 L 248.859375 247.519531 L 253.691406 265.019531 Z M 244.027344 265.019531 " style="" fill="#ffffff" data-original="#ffffff" class=""/>
<path d="M 262.328125 231.8125 L 255.761719 231.8125 L 255.761719 277.445312 L 257.121094 277.445312 L 261.414062 292.996094 L 279.222656 292.996094 Z M 262.328125 231.8125 " style="" fill="#e9edf5" data-original="#e9edf5" class=""/>
</g>
</g></svg>
