<?xml version="1.0"?>
<svg xmlns="http://www.w3.org/2000/svg" xmlns:xlink="http://www.w3.org/1999/xlink" xmlns:svgjs="http://svgjs.com/svgjs" version="1.1" width="512" height="512" x="0" y="0" viewBox="0 0 512 512" style="enable-background:new 0 0 512 512" xml:space="preserve" class=""><g><path xmlns="http://www.w3.org/2000/svg" d="m512 256c0 141.386719-114.613281 256-256 256s-256-114.613281-256-256 114.613281-256 256-256 256 114.613281 256 256zm0 0" fill="#f1f1f1" data-original="#c7461f" style="" class=""/><path xmlns="http://www.w3.org/2000/svg" d="m511.652344 269.390625-136.277344-136.28125-117.527344 9.957031-9.957031-9.957031-158.402344 244.558594 132.015625 132.011719c11.28125 1.519531 22.796875 2.320312 34.496094 2.320312 136.894531 0 248.6875-107.449219 255.652344-242.609375zm0 0" fill="#f1f1f1" data-original="#8b2613" style="" class=""/><path xmlns="http://www.w3.org/2000/svg" d="m422.507812 377.667969h-19.511718v-29.269531l19.511718 9.753906zm0 0" fill="#eb7330" data-original="#eb7330" style=""/><path xmlns="http://www.w3.org/2000/svg" d="m109.003906 377.667969h-19.511718v-19.515625l19.511718-9.753906zm0 0" fill="#f9963b" data-original="#f9963b" style=""/><path xmlns="http://www.w3.org/2000/svg" d="m256 358.152344h166.507812v-19.511719l-205.535156-19.511719zm0 0" fill="#480306" data-original="#480306" style=""/><path xmlns="http://www.w3.org/2000/svg" d="m89.492188 338.640625v19.511719h166.507812v-39.023438zm0 0" fill="#593927" data-original="#593927" style=""/><path xmlns="http://www.w3.org/2000/svg" d="m422.507812 211.808594c0-16.164063-13.101562-29.269532-29.269531-29.269532h-202.28125l65.042969 156.101563h166.507812zm0 0" fill="#21b4d3" data-original="#21b4d3" style=""/><path xmlns="http://www.w3.org/2000/svg" d="m118.761719 182.539062c-16.167969 0-29.269531 13.105469-29.269531 29.269532v126.832031h166.507812v-156.101563zm0 0" fill="#26d4f8" data-original="#26d4f8" style="" class=""/><path xmlns="http://www.w3.org/2000/svg" d="m383.484375 153.269531v117.078125l-173.015625 16.257813 45.53125-133.335938c0-16.097656 13.171875-29.269531 29.269531-29.269531h68.945313c16.097656 0 29.269531 13.171875 29.269531 29.269531zm0 0" fill="#26d4f8" data-original="#26d4f8" style="" class=""/><path xmlns="http://www.w3.org/2000/svg" d="m256 153.269531v133.335938l-127.484375-16.257813v-117.078125c0-16.097656 22.929687-29.269531 39.027344-29.269531h59.1875c16.097656 0 29.269531 13.171875 29.269531 29.269531zm0 0" fill="#7de5fb" data-original="#7de5fb" style="" class=""/><path xmlns="http://www.w3.org/2000/svg" d="m354.214844 241.078125c0-21.464844-17.5625-39.027344-39.027344-39.027344h-59.1875l-32.519531 68.296875h130.734375zm0 0" fill="#fff2a3" data-original="#fff2a3" style=""/><path xmlns="http://www.w3.org/2000/svg" d="m196.8125 202.050781c-21.464844 0-39.027344 17.5625-39.027344 39.027344v29.269531h98.214844v-68.296875zm0 0" fill="#ffffff" data-original="#ffffff" style=""/><path xmlns="http://www.w3.org/2000/svg" d="m148.027344 377.667969h-19.511719v-39.027344l19.511719-9.753906zm0 0" fill="#d6d0cd" data-original="#d6d0cd" style=""/><path xmlns="http://www.w3.org/2000/svg" d="m363.972656 377.667969h19.511719v-39.027344l-19.511719-9.753906zm0 0" fill="#bdb5b2" data-original="#bdb5b2" style=""/><path xmlns="http://www.w3.org/2000/svg" d="m383.484375 299.617188-166.511719-39.027344 39.027344 78.050781h127.484375zm0 0" fill="#d6d0cd" data-original="#d6d0cd" style=""/><path xmlns="http://www.w3.org/2000/svg" d="m256 260.589844-127.484375 39.027344v39.023437h127.484375zm0 0" fill="#ffffff" data-original="#ffffff" style=""/><path xmlns="http://www.w3.org/2000/svg" d="m354.214844 241.078125h-98.214844l-19.511719 29.269531 19.511719 29.269532h127.484375v-29.269532c0-16.101562-13.171875-29.269531-29.269531-29.269531zm0 0" fill="#f1f1f1" data-original="#c7461f" style="" class=""/><path xmlns="http://www.w3.org/2000/svg" d="m157.785156 241.078125c-16.097656 0-29.269531 13.167969-29.269531 29.269531v29.265625h127.484375v-58.535156zm0 0" fill="#d95d27" data-original="#d95d27" style=""/></g></svg>
