<?xml version="1.0" encoding="utf-8"?>
<svg version="1.1" id="Layer_1" xmlns="http://www.w3.org/2000/svg" xmlns:xlink="http://www.w3.org/1999/xlink" x="0px" y="0px"
	width="100px" height="100px" viewBox="0 0 100 100" style="enable-background:new 0 0 100 100;" xml:space="preserve">
<g>
	<path style="fill:#E8E8E8;" d="M50,0c27.61,0,50,22.39,50,50s-22.39,50-50,50S0,77.61,0,50S22.39,0,50,0"/>
	<path style="fill:#FFFFFF;" d="M50,1c27.06,0,49,21.94,49,49S77.06,99,50,99S1,77.06,1,50S22.94,1,50,1"/>
	<g>
		<path id="path2500" style="fill:#F08200;" d="M45.07,32.23H28.24V20.99h30.47C51.69,24.18,45.74,31.05,45.07,32.23"/>
		<path id="path2502" style="fill:#009944;" d="M61.14,57.89c-2.13,2.63-18.64,23.52-33.12,21.08c-10.3-1.74-4.12-13.06,1.39-16.49
			c0,0-5.67,10.59,10.3,4.74c10.55-3.87,17.33-11.38,19.67-14.52C59.39,52.71,59.66,55.32,61.14,57.89"/>
		<path id="path2504" style="fill:#009944;" d="M71.14,41.67c0.19-0.47,0.38-0.96,0.58-1.47c0.9-2.32,1.83-5.17,1.39-6.59
			c0,0-0.12-0.28-0.2-0.4c-0.57-0.83-1.93-1.43-3.01-1.28h-0.04c-0.38,0.01-0.77,0.15-1.15,0.37c-0.18,0.09-0.35,0.18-0.51,0.3
			c-0.37,0.26-0.68,0.51-0.93,0.84c-1.07,1.11-2.36,3.49-2.36,3.49c-0.38,0.58-0.93,1.85-1.74,3.37c-0.22,0.41-0.43,0.87-0.63,1.37
			H71.14z"/>
		<path id="path2506" style="fill:#009944;" d="M68.95,54.86c-0.84-0.35-1.41-1.01-1.71-1.99c-0.64-1.85-0.6-3.06-0.6-3.06
			c0.01-0.01,0.01-0.02,0.02-0.03h-5.98c-0.06,1.81,0.2,3.62,0.77,5.42c0,0,1.93,5.46,5.75,5.77c8,0.65,9.64-8.99,9.64-8.99
			C71.72,56.21,68.95,54.86,68.95,54.86"/>
		<path id="path2508" style="fill:#009944;" d="M67.81,28.26c1.3,1.9,4.27,2.15,6.62,0.54c2.36-1.61,3.21-4.46,1.92-6.36
			c-1.31-1.92-4.27-2.16-6.63-0.56C67.37,23.5,66.51,26.35,67.81,28.26"/>
		<path id="path2510" style="fill:#E60012;" d="M54.38,41.67c0.47-0.94,1.05-1.77,1.79-2.77c1.7-2.28,4-4.15,6.86-5.45V20.99
			c-1.82,0.25-7.76,3.46-11.96,7.35c-4.18,3.85-7.08,7.39-9.28,13.34H54.38z"/>
		<path id="path2512" style="fill:#E60012;" d="M39.25,65.93c5.5-2.02,9.73-4.84,12.79-7.45c0.08-2.7,0.2-5.26,0.39-7.25
			c0.05-0.51,0.09-0.99,0.14-1.44H39.61c-1.15,6.26-1.33,12.56-1.36,16.5C38.57,66.17,38.9,66.06,39.25,65.93"/>
		<path id="path2514" style="fill:#009944;" d="M40.52,45.78c0.05,0.08,0.97,1.52,1.01,1.57c-0.32,0.41-0.64,0.76-1.04,0.76
			c-0.43,0-0.84-0.52-0.84-1.08c0-0.51,0.44-0.89,0.76-1.17l0.09-0.08C40.5,45.8,40.51,45.79,40.52,45.78 M40.53,44.48l-0.02-0.02
			c-0.14-0.22-0.26-0.43-0.26-0.71c0-0.34,0.21-0.6,0.48-0.6c0.31,0,0.51,0.24,0.51,0.62c0,0.37-0.23,0.59-0.46,0.81l-0.1,0.1
			l-0.03,0.03C40.62,44.63,40.53,44.48,40.53,44.48 M39.61,43.83c0,0.42,0.17,0.86,0.51,1.32c-0.05,0.04-0.27,0.25-0.27,0.25
			C39.4,45.82,39,46.26,39,47.05c0,1.05,0.65,1.84,1.51,1.84c0.51,0,1.01-0.33,1.42-0.92c0.06,0.1,0.5,0.79,0.5,0.79h0.84
			c0,0-0.85-1.34-0.88-1.39c0.03-0.05,0.58-0.87,0.58-0.87l-0.44-0.58c0,0-0.49,0.72-0.55,0.82c-0.07-0.11-0.9-1.38-0.94-1.44
			c0.35-0.33,0.85-0.81,0.85-1.52c0-0.86-0.58-1.31-1.15-1.31C40.07,42.46,39.61,43.01,39.61,43.83"/>
		<path id="path2516" style="fill:#009944;" d="M17.67,44.49c0,1.15,0.46,1.38,1.23,1.66l0.04,0.01c0.27,0.1,0.77,0.28,0.77,0.78
			c0,0.49-0.36,0.71-0.69,0.71c-0.36,0-0.71-0.19-1.07-0.57c-0.08,0.2-0.41,1-0.45,1.11c0.47,0.41,1.02,0.64,1.56,0.64
			c0.51,0,0.96-0.2,1.29-0.55c0.31-0.34,0.47-0.88,0.47-1.6c0-1.04-0.6-1.41-1.12-1.61c0,0-0.32-0.12-0.32-0.12
			c-0.23-0.1-0.61-0.25-0.61-0.68c0-0.38,0.32-0.61,0.62-0.61c0.27,0,0.55,0.13,0.79,0.35c0.07-0.19,0.37-0.94,0.42-1.05
			c-0.4-0.28-0.93-0.45-1.38-0.45C18.29,42.51,17.67,43.31,17.67,44.49"/>
		<path id="path2518" style="fill:#009944;" d="M21.46,42.67v6.01h2.52V47.5h-1.47v-1.25h1.39v-1.18h-1.39v-1.22h1.47v-1.18H21.46z"
			/>
		<path id="path2520" style="fill:#009944;" d="M28.06,42.67c-0.04,0.13-1.22,3.98-1.22,3.98s-1.18-3.86-1.22-3.98h-1.15
			c0.07,0.23,1.9,5.89,1.94,6.01h0.83c0.04-0.12,1.9-5.78,1.97-6.01H28.06z"/>
		<path id="path2522" style="fill:#009944;" d="M29.74,42.67v6.01h2.53V47.5H30.8v-1.25h1.4v-1.18h-1.4v-1.22h1.48v-1.18H29.74z"/>
		<path id="path2524" style="fill:#009944;" d="M36.61,42.67v4.03l-0.19-0.28c0,0-2.19-3.65-2.24-3.74h-1.09v6.01h1.05v-4.04
			l0.18,0.29c0,0,2.19,3.66,2.24,3.75h1.09v-6.01H36.61z"/>
		<path id="path2526" style="fill:#009944;" d="M51.43,42.67v2.39h-1.97v-2.39H48.4v6.01h1.06v-2.54h1.97v2.54h1.05v-6.01H51.43z"/>
		<path id="path2528" style="fill:#009944;" d="M54.21,45.57c0-0.94,0.66-1.73,1.44-1.73c0.78,0,1.44,0.79,1.44,1.73
			c0,1.09-0.63,1.94-1.44,1.94C54.85,47.51,54.21,46.66,54.21,45.57 M53.11,45.56c0,1.93,1.07,3.32,2.54,3.32
			c1.48,0,2.54-1.4,2.54-3.32c0-1.71-1.14-3.09-2.54-3.09C54.25,42.47,53.11,43.85,53.11,45.56"/>
		<path id="path2530" style="fill:#009944;" d="M58.82,42.67v6.01h2.54V47.5h-1.49v-4.83H58.82z"/>
		<path id="path2532" style="fill:#009944;" d="M63,47.41v-3.56h0.38c0.88,0,1.45,0.71,1.45,1.82c0,1.34-0.76,1.82-1.46,1.82H63
			V47.41z M61.95,42.67v6.01h1.67c1.28,0,2.33-1.35,2.33-3c0-1.65-1.05-3.01-2.33-3.01H61.95z"/>
		<path id="path2534" style="fill:#009944;" d="M66.58,48.68h1.06v-6.01h-1.06V48.68z"/>
		<path id="path2536" style="fill:#009944;" d="M72.14,42.67v4.03l-0.18-0.28c0,0-2.19-3.65-2.24-3.74h-1.09v6.01h1.05v-4.04
			l0.19,0.29c0,0,2.19,3.66,2.24,3.75h1.09v-6.01H72.14z"/>
		<path id="path2538" style="fill:#009944;" d="M73.82,45.71c0,1.87,1.01,3.18,2.45,3.18c0.81,0,1.47-0.4,1.89-1.17
			c0.4-0.73,0.46-1.48,0.47-2.31h-2.27v1.08h1.01l-0.01,0.1c-0.05,0.72-0.47,1.16-1.09,1.16c-0.89,0-1.35-1.02-1.35-2.03
			c0-1.02,0.46-2.05,1.33-2.05c0.49,0,0.87,0.35,1.07,0.95c0.14-0.08,0.9-0.49,1.01-0.55c-0.4-1.04-1.09-1.6-2.03-1.6
			C74.82,42.47,73.82,43.77,73.82,45.71"/>
		<path id="path2540" style="fill:#009944;" d="M79.36,44.49c0,1.15,0.47,1.38,1.23,1.66c0,0,0.04,0.01,0.04,0.01
			c0.27,0.1,0.77,0.29,0.77,0.78c0,0.49-0.36,0.71-0.69,0.71c-0.36,0-0.71-0.19-1.06-0.57c-0.08,0.2-0.41,1-0.45,1.11
			c0.47,0.41,1.02,0.64,1.56,0.64c0.5,0,0.96-0.2,1.28-0.55c0.31-0.34,0.47-0.88,0.47-1.6c0-1.04-0.6-1.41-1.11-1.61
			c0,0-0.32-0.12-0.32-0.12c-0.23-0.1-0.61-0.25-0.61-0.68c0-0.38,0.32-0.61,0.62-0.61c0.27,0,0.54,0.13,0.78,0.35
			c0.07-0.19,0.37-0.94,0.42-1.05c-0.4-0.28-0.93-0.45-1.38-0.45C79.98,42.51,79.36,43.31,79.36,44.49"/>
		<path id="path2542" style="fill:#009944;" d="M44.48,48.78h1.24v-4.21h-1.24V48.78z"/>
		<path id="path2544" style="fill:#009944;" d="M45.8,43.19c0,0.39-0.32,0.71-0.72,0.71c-0.4,0-0.71-0.32-0.71-0.71
			c0-0.4,0.32-0.71,0.71-0.71C45.48,42.47,45.8,42.79,45.8,43.19"/>
	</g>
</g>
</svg>
