<?xml version="1.0" encoding="utf-8"?>
<svg version="1.1" id="Layer_1" xmlns="http://www.w3.org/2000/svg" xmlns:xlink="http://www.w3.org/1999/xlink" x="0px" y="0px"
	 viewBox="0 0 425.49 163.99" style="enable-background:new 0 0 425.49 163.99;" xml:space="preserve">
<g>
	<g>
		<g id="g2115">
			<path id="path2113" style="fill:#0F7FCA;" d="M109.53,22.92C120.41,8.59,137.34,0.12,155.33,0
				c31.63-0.01,57.28,25.63,57.28,57.26s-25.63,57.28-57.26,57.28S98.08,88.92,98.07,57.28c-0.01-4.84,0.6-9.66,1.82-14.34
				c1.34-5.08,5.95-8.61,11.2-8.59c6.31,0,12.85,5.67,10.96,14.29c-0.71,2.82-1.08,5.72-1.08,8.63c0,18.98,15.38,34.36,34.36,34.36
				s34.36-15.38,34.36-34.36c0-18.98-15.38-34.36-34.36-34.36h0L109.53,22.92z"/>
		</g>
	</g>
	<g>
		<g id="g2119">
			<path id="path2117" style="fill:#0F7FCA;" d="M22.9,103.15c-0.01,6.32-5.14,11.44-11.47,11.44C5.12,114.58,0.01,109.46,0,103.15
				V45.85c0.01-6.32,5.14-11.44,11.47-11.44c6.31,0.01,11.43,5.12,11.44,11.44V103.15z"/>
		</g>
	</g>
	<g>
		<g id="g2123">
			<path id="path2121" style="fill:#0F7FCA;" d="M67.04,32.7c2.24-2.23,2.25-5.85,0.02-8.09c-1.08-1.08-2.54-1.69-4.07-1.69H11.46
				C5.14,22.93,0.01,17.81,0,11.49c0,0,0,0,0,0C-0.05,5.23,4.97,0.12,11.22,0.07c0.04,0,0.07,0,0.11,0l51.66-0.02
				c15.84,0.03,28.66,12.9,28.63,28.74c-0.02,8.14-3.49,15.9-9.56,21.32l-27.4,27.4c-1.68,1.48-2.6,3.63-2.51,5.86
				c-0.04,4.55,3.61,8.26,8.16,8.3c0.04,0,0.08,0,0.12,0l19.74-0.02c6.33,0.01,11.45,5.15,11.44,11.48
				c-0.01,6.31-5.13,11.43-11.44,11.44H60.42c-17.25-0.12-31.17-14.13-31.18-31.38c0.16-8.24,3.48-16.1,9.28-21.95L67.04,32.7z"/>
		</g>
	</g>
	<g>
		<g id="g2127">
			<path id="path2125" style="fill:#0F7FCA;" d="M335.28,55.45c-14.74-5.78-22.01-22.41-16.23-37.15
				c4.3-10.99,14.9-18.21,26.7-18.21l51.49-0.04c6.32-0.01,11.45,5.1,11.46,11.42c0.01,6.32-5.1,11.45-11.42,11.46
				c-0.01,0-0.03,0-0.04,0h-51.49c-3.16,0-5.73,2.56-5.73,5.72c0,2.25,1.32,4.3,3.37,5.23l45.3,20.57
				c16.04,6.12,24.08,24.08,17.96,40.11c-4.61,12.09-16.23,20.06-29.16,20l-48.98,0.02c-6.32,0-11.44-5.12-11.44-11.44
				s5.12-11.44,11.44-11.44l48.98-0.04c4.55,0.04,8.26-3.61,8.3-8.16c0-0.04,0-0.08,0-0.12c-0.01-3.5-2.22-6.62-5.51-7.81
				L335.28,55.45z"/>
		</g>
	</g>
	<g>
		<g id="g2131">
			<path id="path2129" style="fill:#0F7FCA;" d="M237.23,55.45c-14.74-5.78-22.01-22.41-16.23-37.15
				c4.3-10.99,14.9-18.21,26.7-18.21l51.49-0.04c6.32-0.01,11.45,5.1,11.46,11.42s-5.1,11.45-11.42,11.46c-0.01,0-0.03,0-0.04,0
				h-51.49c-3.16,0-5.73,2.56-5.73,5.72c0,2.25,1.32,4.3,3.37,5.23l45.3,20.57c16.04,6.12,24.08,24.08,17.96,40.11
				c-4.61,12.09-16.23,20.06-29.16,20l-48.98,0.02c-6.32,0-11.44-5.12-11.44-11.44s5.12-11.44,11.44-11.44l48.98-0.04
				c4.57,0,8.28-3.71,8.28-8.28c0-3.51-2.21-6.63-5.51-7.81L237.23,55.45z"/>
		</g>
	</g>
	<g>
		<g id="g2135">
			<path id="path2133" style="fill:#0F7FCA;" d="M6.99,157.15h4.35c5.65-0.01,10.22-4.6,10.21-10.25
				c-0.01-5.63-4.57-10.19-10.21-10.21H3.59c-1.89,0-3.42-1.52-3.42-3.41c0-1.89,1.52-3.42,3.41-3.42c0,0,0.01,0,0.01,0l7.74,0.02
				c9.42,0.03,17.03,7.69,17,17.1c-0.03,9.38-7.62,16.97-17,17H3.59c-1.87,0.01-3.4-1.5-3.42-3.37V143.5
				c-0.01-1.88,1.51-3.41,3.39-3.43c1.88-0.01,3.41,1.51,3.43,3.39c0,0.01,0,0.03,0,0.04V157.15z"/>
		</g>
	</g>
	<g>
		<g id="g2139">
			<path id="path2137" style="fill:#0F7FCA;" d="M69.96,157.15h15.12c1.89,0.01,3.41,1.55,3.4,3.44c-0.01,1.87-1.53,3.38-3.4,3.4
				H66.54c-1.88-0.01-3.39-1.54-3.4-3.42v-17.04c0-1.88,1.51-3.41,3.4-3.44h18.53c1.88,0.02,3.4,1.56,3.4,3.44
				c0,1.87-1.52,3.39-3.4,3.4H69.96V157.15z"/>
		</g>
	</g>
	<path id="path2141" style="fill:#0F7FCA;" d="M85.03,136.69c1.89,0,3.42-1.53,3.42-3.41c0-1.89-1.53-3.42-3.41-3.42c0,0,0,0-0.01,0
		H66.5c-1.89,0.01-3.41,1.55-3.4,3.44c0.01,1.87,1.53,3.38,3.4,3.4H85.03z"/>
	<g>
		<g id="g2145">
			<path id="path2143" style="fill:#0F7FCA;" d="M328.25,157.15h15.14c1.89,0.01,3.41,1.55,3.4,3.44c-0.01,1.87-1.53,3.38-3.4,3.4
				h-18.53c-1.88-0.01-3.39-1.54-3.4-3.42v-17.04c0-1.88,1.51-3.41,3.4-3.44h18.53c1.88,0.03,3.39,1.56,3.4,3.44
				c-0.01,1.87-1.52,3.38-3.4,3.4h-15.14V157.15z"/>
		</g>
	</g>
	<path id="path2147" style="fill:#0F7FCA;" d="M343.34,136.69c1.89,0,3.42-1.53,3.42-3.41c0-1.89-1.53-3.42-3.41-3.42
		c0,0,0,0-0.01,0h-18.53c-1.89,0.01-3.41,1.55-3.4,3.44c0.01,1.87,1.53,3.38,3.4,3.4H343.34z"/>
	<path id="path2149" style="fill:#0F7FCA;" d="M196.16,136.69c1.89,0,3.42-1.53,3.41-3.42c0-1.88-1.53-3.41-3.41-3.41h-18.53
		c-1.89,0.01-3.41,1.55-3.4,3.44c0.01,1.87,1.53,3.38,3.4,3.4H196.16z"/>
	<g>
		<g id="g2153">
			<path id="path2151" style="fill:#0F7FCA;" d="M299.14,157.17h15.14c1.88,0.01,3.4,1.54,3.39,3.43c-0.01,1.87-1.52,3.38-3.39,3.39
				h-18.53c-1.88-0.01-3.4-1.54-3.4-3.42c0,0,0,0,0,0v-27.29c-0.01-1.88,1.5-3.41,3.37-3.42c1.88-0.01,3.41,1.5,3.42,3.37
				c0,0.01,0,0.03,0,0.04L299.14,157.17z"/>
		</g>
	</g>
	<g>
		<g id="g2157">
			<path id="path2155" style="fill:#0F7FCA;" d="M181.05,146.92h15.12c1.88,0.01,3.41-1.51,3.43-3.39c0.01-1.88-1.51-3.41-3.39-3.43
				c-0.01,0-0.03,0-0.04,0h-18.53c-3.55,0-3.4,3.96-3.4,3.42v17c-0.03,1.88,1.47,3.43,3.35,3.46s3.43-1.47,3.46-3.35
				c0-0.02,0-0.04,0-0.07V146.92z"/>
		</g>
	</g>
	<g>
		<g id="g2161">
			<path id="path2159" style="fill:#0F7FCA;" d="M38.88,160.57c0.01,1.88-1.51,3.41-3.39,3.43c-1.88,0.01-3.41-1.51-3.43-3.39
				c0-0.01,0-0.03,0-0.04V143.5c-0.01-1.88,1.51-3.41,3.39-3.43c1.88-0.01,3.41,1.51,3.43,3.39c0,0.01,0,0.03,0,0.04V160.57z"/>
		</g>
	</g>
	<g>
		<g id="g2165">
			<path id="path2163" style="fill:#0F7FCA;" d="M51.99,139.59c0.33-0.32,0.51-0.76,0.5-1.21c0-0.93-0.76-1.69-1.69-1.69H35.47
				c-1.89-0.01-3.41-1.55-3.4-3.44c0.01-1.87,1.53-3.38,3.4-3.4h15.31c4.73,0.02,8.54,3.87,8.52,8.6c-0.01,2.41-1.04,4.71-2.83,6.32
				l-8.15,8.15c-0.49,0.44-0.76,1.09-0.74,1.75c-0.02,1.35,1.06,2.45,2.41,2.47c0.02,0,0.04,0,0.06,0h5.86
				c1.88,0.01,3.4,1.54,3.39,3.43c-0.01,1.87-1.52,3.38-3.39,3.39l-5.88,0.02c-5.13-0.05-9.26-4.22-9.26-9.34
				c0.03-2.45,1.02-4.79,2.75-6.53L51.99,139.59z"/>
		</g>
	</g>
	<g>
		<g id="g2169">
			<path id="path2167" style="fill:#0F7FCA;" d="M247.2,160.57c0.01,1.88-1.51,3.41-3.39,3.43c-1.88,0.01-3.41-1.51-3.43-3.39
				c0-0.01,0-0.03,0-0.04V143.5c-0.01-1.88,1.51-3.41,3.39-3.43c1.88-0.01,3.41,1.51,3.43,3.39c0,0.01,0,0.03,0,0.04V160.57z"/>
		</g>
	</g>
	<g>
		<g id="g2173">
			<path id="path2171" style="fill:#0F7FCA;" d="M260.32,139.59c0.32-0.32,0.5-0.76,0.5-1.21c0-0.93-0.76-1.69-1.69-1.69H243.8
				c-1.89,0-3.42-1.52-3.42-3.41c0-1.89,1.52-3.42,3.41-3.42c0,0,0.01,0,0.01,0h15.31c4.72,0.01,8.53,3.85,8.52,8.57
				c-0.01,2.43-1.05,4.73-2.85,6.35l-8.13,8.15c-0.49,0.44-0.76,1.09-0.74,1.75c-0.02,1.34,1.06,2.45,2.4,2.47c0.01,0,0.03,0,0.04,0
				h5.88c1.88,0.01,3.4,1.54,3.39,3.43c-0.01,1.87-1.52,3.38-3.39,3.39l-5.88,0.02c-5.13-0.04-9.27-4.21-9.28-9.34
				c0.04-2.45,1.03-4.8,2.77-6.53L260.32,139.59z"/>
		</g>
	</g>
	<g>
		<g id="g2177">
			<path id="path2175" style="fill:#0F7FCA;" d="M97.66,146.38c-4.4-1.73-6.56-6.7-4.84-11.09c1.28-3.27,4.44-5.42,7.95-5.43h15.31
				c1.89,0.01,3.41,1.55,3.4,3.44c-0.01,1.87-1.53,3.38-3.4,3.4h-15.31c-0.94-0.01-1.7,0.74-1.71,1.68c0,0,0,0.01,0,0.01
				c0,0.67,0.39,1.29,0.99,1.58l13.47,6.12c4.78,1.83,7.16,7.18,5.33,11.96c-1.37,3.59-4.82,5.95-8.66,5.95H95.65
				c-1.88,0.01-3.41-1.51-3.43-3.39c-0.01-1.88,1.51-3.41,3.39-3.43c0.01,0,0.03,0,0.04,0l14.55-0.02c1.36,0,2.46-1.09,2.47-2.45
				c0-1.05-0.66-1.98-1.64-2.33L97.66,146.38z"/>
		</g>
	</g>
	<g>
		<g id="g2181">
			<path id="path2179" style="fill:#0F7FCA;" d="M128.76,146.38c-4.4-1.73-6.56-6.7-4.84-11.09c1.28-3.27,4.44-5.42,7.95-5.43h15.29
				c1.89,0,3.42,1.52,3.42,3.41c0,1.89-1.52,3.42-3.41,3.42c0,0-0.01,0-0.01,0h-15.31c-0.93,0-1.69,0.76-1.69,1.69
				c0,0.67,0.39,1.29,0.99,1.58l13.47,6.12c4.78,1.83,7.16,7.18,5.33,11.96c-1.37,3.59-4.82,5.95-8.66,5.95h-14.55
				c-1.88,0.01-3.41-1.51-3.43-3.39c-0.01-1.88,1.51-3.41,3.39-3.43c0.01,0,0.03,0,0.04,0l14.55-0.02c1.36,0,2.46-1.09,2.47-2.45
				c0-1.05-0.66-1.98-1.64-2.33L128.76,146.38z"/>
		</g>
	</g>
	<g>
		<g id="g2185">
			<path id="path2183" style="fill:#0F7FCA;" d="M355.95,146.38c-4.4-1.74-6.55-6.72-4.8-11.12c1.29-3.26,4.44-5.4,7.94-5.41h15.29
				c1.89,0.01,3.41,1.55,3.4,3.44c-0.01,1.87-1.53,3.38-3.4,3.4h-15.31c-0.94-0.01-1.7,0.74-1.71,1.68c0,0,0,0.01,0,0.01
				c0,0.67,0.39,1.29,0.99,1.58l13.47,6.12c4.78,1.83,7.16,7.18,5.33,11.96c-1.37,3.59-4.82,5.95-8.66,5.95h-14.55
				c-1.88-0.01-3.4-1.54-3.39-3.43c0.01-1.87,1.52-3.38,3.39-3.39l14.55-0.02c1.36,0.02,2.47-1.07,2.49-2.43
				c0.01-1.05-0.65-2-1.64-2.35L355.95,146.38z"/>
		</g>
	</g>
	<g>
		<g id="g2189">
			<path id="path2187" style="fill:#0F7FCA;" d="M387.05,146.38c-4.39-1.74-6.54-6.7-4.81-11.09c1.29-3.26,4.44-5.4,7.94-5.41h15.29
				c1.88,0.01,3.4,1.54,3.39,3.43c-0.01,1.87-1.52,3.38-3.39,3.39h-15.31c-0.94-0.01-1.7,0.75-1.71,1.69c0,0.01,0,0.01,0,0.02
				c0,0.67,0.39,1.27,0.99,1.56l13.47,6.12c4.78,1.83,7.16,7.18,5.33,11.96c-1.37,3.59-4.82,5.95-8.66,5.95h-14.55
				c-1.88,0.01-3.41-1.51-3.43-3.39c-0.01-1.88,1.51-3.41,3.39-3.43c0.01,0,0.03,0,0.04,0l14.55-0.02c1.36,0,2.46-1.09,2.47-2.45
				c0-1.05-0.66-1.98-1.64-2.33L387.05,146.38z"/>
		</g>
	</g>
	<g>
		<g id="g2193">
			<path id="path2191" style="fill:#0F7FCA;" d="M206.02,136.69c5.66-7.53,16.34-9.05,23.87-3.4c7.53,5.66,9.05,16.34,3.4,23.87
				c-5.66,7.53-16.34,9.05-23.87,3.4c-4.29-3.22-6.82-8.28-6.81-13.65c-0.01-1.44,0.17-2.87,0.54-4.26
				c0.47-1.82,2.33-2.91,4.15-2.44c1.82,0.47,2.91,2.33,2.44,4.15c-0.22,0.83-0.33,1.69-0.32,2.55c0.01,5.64,4.59,10.2,10.23,10.19
				c5.64-0.01,10.2-4.59,10.19-10.23c-0.01-5.63-4.58-10.19-10.21-10.19L206.02,136.69z"/>
		</g>
	</g>
	<g>
		<g id="g2197">
			<path id="path2195" style="fill:#0F7FCA;" d="M419.12,134.05c-0.38-0.12-0.79-0.17-1.19-0.15h-0.5v2.27h0.8
				c0.39,0.02,0.78-0.09,1.1-0.3c0.28-0.22,0.44-0.57,0.41-0.93C419.75,134.54,419.5,134.18,419.12,134.05 M415.4,140.33v-7.81h2.16
				c0.97,0.02,1.49,0.02,1.6,0.02c0.54,0.02,1.06,0.16,1.54,0.41c0.7,0.35,1.12,1.08,1.06,1.86c0.05,0.53-0.16,1.05-0.56,1.41
				c-0.38,0.31-0.85,0.49-1.34,0.52c0.4,0.07,0.77,0.22,1.1,0.45c0.48,0.45,0.73,1.1,0.67,1.75v0.71c0,0.06,0.02,0.13,0.02,0.22
				c0.02,0.09,0.04,0.15,0.06,0.24l0.06,0.22h-1.95c-0.08-0.36-0.12-0.72-0.13-1.08c0.01-0.32-0.03-0.64-0.13-0.95
				c-0.09-0.27-0.3-0.48-0.56-0.58c-0.22-0.08-0.46-0.12-0.69-0.13l-0.45-0.02h-0.43v2.77L415.4,140.33z M414.34,132.32
				c-1.1,1.08-1.7,2.55-1.69,4.09c-0.02,1.56,0.6,3.06,1.71,4.15c1.07,1.11,2.56,1.73,4.11,1.71c1.54,0.02,3.03-0.61,4.09-1.73
				c2.27-2.27,2.28-5.94,0.02-8.22c-2.19-2.28-5.81-2.34-8.09-0.15C414.44,132.22,414.39,132.27,414.34,132.32 M423.4,141.45
				c-2.78,2.67-7.17,2.65-9.93-0.04c-2.75-2.81-2.7-7.33,0.11-10.08c0.01-0.01,0.03-0.03,0.04-0.04c1.3-1.24,3.04-1.93,4.84-1.9
				c3.89,0.01,7.04,3.18,7.03,7.07C425.49,138.33,424.73,140.13,423.4,141.45"/>
		</g>
	</g>
</g>
</svg>
