<svg xmlns="http://www.w3.org/2000/svg" width="816" height="144"><path d="M107.8 66.3c-.2-5.1-1.7-10.3-4.3-14.9L80 10.7c-1.8-3.1-3-6.4-3.7-9.8l-1 1.7c-5.8 10.1-5.8 22.5 0 32.6l18.8 32.6c5.8 10.1 5.8 22.5 0 32.6l-1 1.7c-.7-3.4-1.9-6.7-3.7-9.8L72.2 62.5l-11-19c-1.8-3.1-3-6.4-3.7-9.8l-1 1.7c-5.8 10-5.8 22.4-.1 32.5l18.9 32.7c5.8 10.1 5.8 22.5 0 32.6l-1 1.7c-.7-3.4-1.9-6.7-3.7-9.8L47.1 84c-3.2-5.5-4.6-11.6-4.3-17.7C17.6 72.9.3 86.8.3 103c0 22.5 33.6 40.7 75.1 40.7s75.1-18.2 75.1-40.7c-.1-16.2-17.5-30.1-42.7-36.7zm70.9 69.5c.3-5.8 1.1-9.7 2.7-14.2 7.9 3.7 18.1 5.5 25.8 5.5 13.1 0 20.5-4.2 20.5-12.6 0-8.2-5.4-12-18.6-17.8l-7.2-3.1c-13.3-5.8-22.3-13.3-22.3-28.2 0-16.1 11.1-26.4 34-26.4 9.2 0 17.8 1.3 25.8 4.1-.4 5.6-1.4 10-2.8 14.1-7.6-2.8-16.6-4.1-23.1-4.1-12.3 0-17.9 4.8-17.9 12.3 0 7.3 5.5 11.6 15.4 15.8l7.6 3.2c17.9 7.6 25.4 15.7 25.4 29.3 0 16.2-12.3 27.4-36.2 27.4-11.7.1-21.2-1.6-29.1-5.3zm140.9-67.4v70.5h-14.2l-.8-8.5c-3.9 6.2-10 10.2-19.9 10.2-18.6 0-31-13.5-31-37.2 0-24.8 13.3-38.9 39.4-38.9 10-.1 18.4 1.1 26.5 3.9zm-15.5 54.4V78.5c-3.2-.6-6.8-.8-11.1-.8-16.1 0-23.6 9.9-23.6 25.7 0 14.4 5.8 24.5 19.6 24.5 6.1 0 11-2 15.1-5.1zm95-31.3v47.4h-15.5V94.2c0-11.1-3.7-16.5-19.2-16.5-3.7 0-8 .4-12.3 1.1v60.1h-15.5V68.4c9.9-2.4 20.7-3.9 28.2-3.9 25.9-.1 34.3 10 34.3 27zm43 35.9c4.5 0 8.7-.8 12.1-2.1-.4 4.2-1 9-1.8 13.1-4.2 1.7-8.7 2.3-13.1 2.3-15.1 0-24.7-6.9-24.7-24.1V42.5c4.8-1.6 10.7-2.3 15.5-2.3v26.7h24.5c-.3 4.8-.7 9.2-1.4 13.3h-23.1v34.6c0 9 4.5 12.6 12 12.6zm83.2-59v70.5h-14.2l-.8-8.5c-4 6.2-10 10.2-19.9 10.2-18.6 0-31-13.5-31-37.2 0-24.8 13.3-38.9 39.4-38.9 10-.1 18.3 1.1 26.5 3.9zm-15.5 54.4V78.5c-3.2-.6-6.8-.8-11.1-.8-16.1 0-23.6 9.9-23.6 25.7 0 14.4 5.8 24.5 19.6 24.5 6.1 0 11-2 15.1-5.1zm94.9-31.3v47.4h-15.5V94.2c0-11.1-3.7-16.5-19.2-16.5-3.7 0-8 .4-12.3 1.1v60.1h-15.5V68.4c9.9-2.4 20.7-3.9 28.2-3.9 26-.1 34.3 10 34.3 27zm78.7-51.3v98.7h-14.2l-.8-9c-4 6.6-10 10.7-20.2 10.7-18.6 0-31-13.5-31-37.2 0-24.8 13.3-38.9 39.4-38.9 4.1 0 7.9.4 11.6 1.1V42.3c4.6-1.7 10.1-2.1 15.2-2.1zm-15.3 82.4V79.2c-4.1-.8-8.3-1.4-12.4-1.4-15.4 0-22.7 9.6-22.7 25.7 0 14.4 5.8 24.5 19.6 24.5 6.1-.1 11.2-2.2 15.5-5.4zm93.3-13.9h-49.5c2 12.6 9.3 18.6 23.1 18.6 8.5 0 17.1-1.8 24.8-5.4-.6 4.1-1.4 9.5-2.4 14.1-7.1 3.2-14.5 4.5-22.9 4.5-26 0-38.5-14.4-38.5-38.5 0-21 9.7-37.7 34.4-37.7 22.1 0 31.7 14.5 31.7 32.3.2 4.5-.1 8-.7 12.1zm-49.8-12.9h35c0-11.6-6.2-18.3-16.9-18.3-11-.1-16.8 6.3-18.1 18.3zM815.7 65c0 4.7-.6 10.3-1.4 13.3-3.7-.4-7.3-.6-11.7-.6-3.8 0-7.6.3-11.4.8v60.4h-15.5V68.4c6.6-2.3 17.8-3.9 26.5-3.9 4.8-.1 10.2.1 13.5.5z" fill="#ec0000"/></svg>