<svg xmlns="http://www.w3.org/2000/svg" viewBox="0 0 462 160.71"><path d="M303.86 116.23h-.06c-19.06 13.49-41.65 27.67-65.94 42.55l-1 .56a.72.72 0 0 0-.17 1 .71.71 0 0 0 1 .17l.81-.42 68.08-36.62.38-.21a29.74 29.74 0 0 1-3.1-7.03zM429 14.94c-30.06-33.15-223.42-3.33-305.66 14.63l-1.92.42a.73.73 0 0 0-.494 1.216.73.73 0 0 0 .744.214l1.9-.37C191.7 18.92 333.38 2.1 363.86 32.33c9.3 9.22 7.08 21.1-3.7 35.12a27.81 27.81 0 0 1 11.82 17C414.1 56.4 442.38 29.7 429 14.94z" fill="#d03027"/><g fill="#004977"><path d="M316 107.53c.39 11.67 7.77 21.22 17.39 21.22 18.65 0 26.59-22.9 26-38.2-.39-11.69-8-21.22-17.57-21.22-15.99-.01-26.34 22.79-25.82 38.2zm-9.85-.62c-.69-19.9 14.9-40.26 37.55-40.26 15.15 0 25.07 10.09 25.62 25.55.72 21-13.84 40.26-37.55 40.26-15.13.02-25.05-10.07-25.6-25.55zm-214.54-5.26a21.86 21.86 0 0 1-3.15.88q-1.94.44-7.09 1.25a12.3 12.3 0 0 0-4.94 1.54 3.66 3.66 0 0 0-1.57 2.41 2.34 2.34 0 0 0 1 2.49 8.26 8.26 0 0 0 4.57 1 15.55 15.55 0 0 0 4.7-.75 11.45 11.45 0 0 0 3.84-2 6.12 6.12 0 0 0 1.65-2.41 31.81 31.81 0 0 0 .99-4.41zM111.3 89.4a48.63 48.63 0 0 1-.89 6.23l-3.33 18.7a3.46 3.46 0 0 0 1.87 3.85l-.1.73H89.77l-.17-4.75a38 38 0 0 1-9.16 3.92 33.46 33.46 0 0 1-9.14 1.12c-6.16 0-9.69-.64-12.13-2.78s-3.67-3.66-3.56-6.69a10.34 10.34 0 0 1 2.31-5.55 14.05 14.05 0 0 1 5.08-3.57 27 27 0 0 1 7.65-2.13c3.37-.55 8.07-1.09 14.36-1.62a20.79 20.79 0 0 0 6.27-1.42c1.31-.51 1.83-1.07 2-2.15.35-1.92-.26-3-2.81-3.52-6.87-1.35-19.75.87-26.39 2.53l3.61-9.73a174.43 174.43 0 0 1 25.6-2.09c13.71 0 18.14 3.89 18.01 8.92zm55.28 29.51l6.62-37.36h18.26l-6.62 37.36zm7.63-46c.55-3.07 5.39-5.56 10.81-5.56s9.38 2.49 8.86 5.56-5.4 5.57-10.88 5.57-9.33-2.51-8.78-5.58zm82.12 28.83c-.82.28-1.88.58-3.17.88s-3.65.68-7.1 1.25a12.07 12.07 0 0 0-4.92 1.54 3.81 3.81 0 0 0-1.59 2.4 2.36 2.36 0 0 0 1 2.49 8.39 8.39 0 0 0 4.6.94 15.49 15.49 0 0 0 4.68-.72 11.55 11.55 0 0 0 3.86-2 6.31 6.31 0 0 0 1.62-2.43 32.71 32.71 0 0 0 1.02-4.35zM276 89.48a45.43 45.43 0 0 1-.9 6.22l-3.31 18.72a3.5 3.5 0 0 0 1.86 3.87l-.11.65h-19.07l-.15-4.77a37.4 37.4 0 0 1-9.17 3.91 32.82 32.82 0 0 1-9.18 1.12c-6.15 0-9.66-.62-12.1-2.77s-3.69-3.66-3.55-6.68a10 10 0 0 1 2.3-5.55 13.9 13.9 0 0 1 5.09-3.55 28.54 28.54 0 0 1 7.62-2.17c3.39-.53 8.1-1.1 14.39-1.62a21.45 21.45 0 0 0 6.28-1.38c1.33-.51 1.86-1.09 2.05-2.17.34-1.88-.27-3-2.8-3.52-6.91-1.37-19.75.87-26.39 2.52l3.59-9.73a173.89 173.89 0 0 1 25.55-2.1c13.75 0 18.12 4 18 9zm-222.88 16A66.87 66.87 0 0 1 38 107.12c-8.72 0-15.65-4.33-15.28-12.27.27-5.29 6.53-16.45 22.45-16.45a26 26 0 0 1 14.2 3.89l2.31-13a43.85 43.85 0 0 0-18.06-3c-20.86.22-40.91 9.71-43.39 29-2.53 19.6 21.41 24.53 32 24.48 6.14 0 12.51-.27 18.47-.89zm148.41-24.14l1.31-7.61 19.1-4.16-2 11.77h9.35l-1.78 7.52h-9.07l-5.51 30s-18.39-.12-18.46 0l5.49-30H193l1.41-7.58zm93.02 37.55l-18.6.02 9.36-52.12 18.12.51-8.88 51.59zM142.43 90.31a10.5 10.5 0 0 0-6.48 2.17 9.78 9.78 0 0 0-3.61 6.4c-.57 3.26-.24 5.6 1.05 7.05a7.24 7.24 0 0 0 5.65 2.15 11 11 0 0 0 4.65-.92 9.15 9.15 0 0 0 3.57-3.07 12.3 12.3 0 0 0 2-4.93c.52-3 .08-5.16-1.29-6.62a7 7 0 0 0-5.54-2.23zm-33.25 41.5l8.89-50.08h16l-1.24 6.39a15.26 15.26 0 0 1 6.68-4.75 27.32 27.32 0 0 1 10.36-2.2c4.19 0 6.77.23 9.9 1.85a13.23 13.23 0 0 1 6.47 7.09 18.59 18.59 0 0 1 .8 10.17 22.08 22.08 0 0 1-9 14.61c-4.9 3.57-9.3 4.51-15.59 4.54a23.87 23.87 0 0 1-5.64-.61 12.92 12.92 0 0 1-3.64-1.46 16.93 16.93 0 0 1-3-2.71l-3 17.16zM440.74 94.9c-.1-3-1.62-5-4.73-5-7.49 0-15.46 14.67-16.83 20.59 12.29-.01 21.82-7.36 21.56-15.59zm1.6 23l1.45 1c-3.65 7.44-11.1 13.43-19.84 13.43-7.15 0-13-4.76-13.32-13.69-.58-16 14.42-30.89 26.71-30.89 5.27 0 10.16 2.3 10.38 8 .45 12.73-17.43 16.63-29.21 16.89a14.39 14.39 0 0 0-.46 4.7c.19 5.28 3.39 9.72 10 9.72 5.7-.04 11.41-4.64 14.29-9.17z"/><path d="M369.07 94.48l4.19-.39c1.35 0 2.61.25 2.67 1.58 0 .79-1.4 6.46-1.7 7.78l-2.85 12.56-3.5 14.77h7.32l4.11-19.9c12.56-13.07 17.38-17.34 20.35-17.34a2.13 2.13 0 0 1 2.31 2.3c.07 2.3-1.35 7.53-1.85 9l-4.2 14.51a30.15 30.15 0 0 0-1.59 8.3c.13 3.19 2.06 4.6 4.91 4.6 5.35 0 9.23-5.57 12.63-11l-1-1.8c-1.38 2.2-4.54 7-7 7-.79 0-1.54-.53-1.57-1.85a21.69 21.69 0 0 1 1.14-5.92l4.66-17c1.25-4.68 1.85-7.7 1.82-9.3-.12-3.17-2-4.66-4.81-4.66-4.81 0-11.21 3.52-24.74 19.1h-.19l1.7-7.6c.93-4.16 1.83-8.5 2.71-11.49A122.34 122.34 0 0 1 369 92.09zm79.77-13.53a6.58 6.58 0 1 1 6.6 6.53 6.47 6.47 0 0 1-6.6-6.53zm6.6 5.45a5.42 5.42 0 1 0-5.3-5.45 5.25 5.25 0 0 0 5.3 5.45zm-1.38-1.68h-1.16v-7.5h2.87c1.78 0 2.65.65 2.65 2.12a2 2 0 0 1-2 2.07l2.14 3.3h-1.28l-2-3.25h-1.3zm1.34-4.21c1 0 1.83-.07 1.83-1.23 0-.93-.83-1.1-1.63-1.1h-1.53v2.3z"/></g></svg>