<?xml version="1.0" encoding="utf-8"?>
<svg version="1.1" id="Layer_1" xmlns="http://www.w3.org/2000/svg" xmlns:xlink="http://www.w3.org/1999/xlink" x="0px" y="0px"
	width="100px" height="100px" viewBox="0 0 72.2 72.2" style="enable-background:new 0 0 72.2 72.2;" xml:space="preserve">
<g>
	<circle style="fill:#E8E8E8;" cx="36.1" cy="36.1" r="36.1"/>
	<circle style="fill:#FFFFFF;" cx="36.1" cy="36.1" r="35.4"/>
	<g>
		<path style="fill:#010101;fill-opacity:0.535;" d="M41.5,46.8l0.1,0.5c-0.1,0.1-0.2,0.1-0.3,0.1c-0.1,0-0.2,0-0.4-0.1
			c-0.1-0.1-0.1-0.1-0.1-0.3c-0.1-0.1-0.1-0.3-0.1-0.6v-1.8h-0.3v-0.4h0.3v-0.8l0.4-0.3v1.1h0.4v0.4h-0.4v1.9c0,0.1,0,0.3,0.1,0.3
			C41.3,46.8,41.3,46.8,41.5,46.8C41.4,46.8,41.5,46.8,41.5,46.8z M42.5,47.2v-4.3h0.4v1.6c0.1-0.1,0.2-0.3,0.4-0.3
			c0.1-0.1,0.3-0.1,0.4-0.1c0.3,0,0.5,0.1,0.6,0.3c0.1,0.1,0.2,0.5,0.2,0.9v1.9h-0.4v-2c0-0.3-0.1-0.4-0.1-0.6
			c-0.1-0.1-0.2-0.1-0.4-0.1c-0.2,0-0.4,0.1-0.5,0.2s-0.2,0.4-0.2,0.8v1.7C42.9,47.2,42.5,47.2,42.5,47.2z M47.7,46.2l0.4,0.1
			c-0.1,0.3-0.2,0.6-0.4,0.8c-0.2,0.2-0.4,0.3-0.7,0.3c-0.4,0-0.6-0.1-0.9-0.4c-0.2-0.3-0.4-0.7-0.4-1.2c0-0.5,0.1-0.9,0.4-1.2
			c0.2-0.3,0.5-0.4,0.9-0.4c0.4,0,0.6,0.1,0.9,0.4c0.2,0.3,0.4,0.6,0.4,1.2v0.1h-2c0,0.4,0.1,0.6,0.3,0.8s0.3,0.3,0.5,0.3
			C47.3,46.8,47.5,46.6,47.7,46.2z M46.2,45.4h1.4c0-0.3-0.1-0.5-0.1-0.6c-0.1-0.1-0.3-0.3-0.5-0.3c-0.2,0-0.4,0.1-0.5,0.2
			C46.3,44.8,46.2,45,46.2,45.4z M49.3,47.2v-3.1h0.4v0.4c0.1-0.1,0.1-0.3,0.4-0.4c0.1-0.1,0.3-0.1,0.4-0.1c0.1,0,0.4,0.1,0.4,0.1
			c0.1,0.1,0.2,0.2,0.3,0.4c0.1-0.1,0.2-0.3,0.4-0.4c0.1-0.1,0.3-0.1,0.4-0.1c0.3,0,0.4,0.1,0.6,0.3c0.1,0.1,0.2,0.4,0.2,0.8v2.2
			h-0.4v-1.9c0-0.2,0-0.4-0.1-0.5c-0.1-0.1-0.1-0.1-0.1-0.2c-0.1-0.1-0.1-0.1-0.3-0.1c-0.1,0-0.4,0.1-0.4,0.2
			c-0.1,0.1-0.1,0.4-0.1,0.7v1.9h-0.4v-2.1c0-0.3-0.1-0.4-0.1-0.5c-0.1-0.1-0.1-0.1-0.3-0.1c-0.2,0-0.4,0.1-0.5,0.2
			c-0.1,0.1-0.1,0.4-0.1,0.9v1.6L49.3,47.2L49.3,47.2z M55.8,46.2l0.4,0.1c-0.1,0.3-0.2,0.6-0.4,0.8s-0.4,0.3-0.7,0.3
			c-0.4,0-0.6-0.1-0.9-0.4s-0.4-0.6-0.4-1.2c0-0.5,0.1-0.9,0.4-1.2s0.5-0.4,0.9-0.4c0.4,0,0.6,0.1,0.9,0.4s0.4,0.6,0.4,1.2v0.1h-1.9
			c0,0.4,0.1,0.6,0.3,0.8s0.3,0.3,0.5,0.3C55.5,46.8,55.7,46.6,55.8,46.2z M54.3,45.4h1.4c0-0.3-0.1-0.5-0.1-0.6
			c-0.1-0.1-0.3-0.3-0.5-0.3c-0.2,0-0.4,0.1-0.5,0.2C54.5,44.8,54.4,45,54.3,45.4z M57.2,46.2l0.4-0.1c0.1,0.2,0.1,0.4,0.2,0.5
			c0.1,0.1,0.3,0.1,0.4,0.1c0.1,0,0.4-0.1,0.4-0.1c0.1-0.1,0.1-0.2,0.1-0.4s-0.1-0.2-0.1-0.3c-0.1-0.1-0.2-0.1-0.4-0.1
			c-0.4-0.1-0.6-0.1-0.6-0.3c-0.1-0.1-0.2-0.2-0.3-0.3c-0.1-0.1-0.1-0.3-0.1-0.4c0-0.3,0.1-0.5,0.3-0.6c0.2-0.2,0.5-0.3,0.7-0.3
			c0.1,0,0.4,0.1,0.5,0.1c0.1,0.1,0.3,0.1,0.4,0.3c0.1,0.1,0.1,0.3,0.1,0.5l-0.4,0.1c-0.1-0.4-0.2-0.5-0.6-0.5
			c-0.1,0-0.3,0.1-0.4,0.1c-0.1,0.1-0.1,0.1-0.1,0.3s0.1,0.2,0.1,0.3c0.1,0.1,0.2,0.1,0.5,0.1l0.7,0.3c0.1,0.1,0.1,0.1,0.3,0.3
			c0.1,0.1,0.1,0.3,0.1,0.4c0,0.3-0.1,0.5-0.3,0.7s-0.4,0.3-0.8,0.3C57.7,47.3,57.4,47,57.2,46.2C57.2,46.2,57.2,46.2,57.2,46.2z"/>
		<path style="fill:#010101;" d="M11.6,37.1c0-1.4,0.4-2.5,1.1-3.2c0.7-0.8,1.6-1.2,2.7-1.2c0.7,0,1.4,0.2,1.9,0.5
			c0.6,0.4,1.1,0.8,1.5,1.4c0.1,0.1,0.1,0.3,0.1,0.4V35c0,0.1-0.1,0.2-0.1,0.3c0,0.1-0.1,0.1-0.3,0.2s-0.3,0.1-0.4,0.1
			c-0.1,0.1-0.3,0.1-0.4,0.1c-0.1,0.1-0.3,0.1-0.4,0.1l-4.3,1.6c-0.1,0.1-0.1,0.1-0.1,0.1c0,0.1,0,0.3,0.1,0.4
			c0.1,0.1,0.1,0.4,0.3,0.7c0.1,0.3,0.3,0.6,0.5,0.9c0.1,0.3,0.5,0.5,0.9,0.6c0.4,0.1,0.8,0.3,1.2,0.3c0.9,0,1.7-0.3,2.4-1
			c0.1-0.1,0.3-0.3,0.4-0.3c0.2,0,0.3,0.1,0.3,0.3c0,0.1-0.1,0.1-0.1,0.3c-0.4,0.5-0.9,1-1.6,1.3s-1.3,0.5-1.9,0.5
			c-0.4,0-0.9-0.1-1.3-0.2c-0.4-0.1-0.8-0.5-1.1-0.9c-0.4-0.3-0.7-0.8-0.9-1.4C11.8,38.6,11.6,37.9,11.6,37.1z M17,35
			c0-0.1-0.2-0.4-0.6-0.8c-0.4-0.4-0.9-0.5-1.4-0.5c-0.6,0-1.1,0.3-1.4,0.8c-0.3,0.5-0.5,1.2-0.5,2.1c0,0.1,0.1,0.1,0.1,0.1L15,36
			l1.9-0.7C17,35.2,17,35.1,17,35z M23.2,41c0,0.3-0.1,0.4-0.2,0.4h-0.1c-0.1,0-0.1,0-0.3-0.1c-0.1-0.1-0.3-0.1-0.4-0.1
			c-0.1,0-0.3-0.1-0.5-0.1H21h-0.5H20c-0.1,0-0.3,0-0.4,0.1c-0.1,0.1-0.1,0.1-0.3,0.1h-0.1c-0.1,0-0.3-0.1-0.3-0.4v-0.1
			c0-0.1,0.1-0.3,0.1-0.3c0.1-0.1,0.3-0.1,0.7-0.1c0.2-0.1,0.4-0.1,0.4-0.2c0.1-0.1,0.1-0.4,0.1-0.5V29.4v-0.1c0,0,0-0.1-0.1-0.1
			c0-0.1-0.1-0.1-0.1-0.1c0-0.1-0.1-0.1-0.1-0.1c-0.1,0-0.1-0.1-0.1-0.1S19.8,29,19.8,29c-0.1-0.1-0.1-0.1-0.1-0.1l-0.4-0.2
			l-0.3-0.1c-0.1-0.1-0.1-0.1-0.1-0.1v-0.2c-0.1-0.1,0.1-0.1,0.1-0.1l0,0c0-0.1,0.3-0.2,0.8-0.5l1.7-0.9c0.1-0.1,0.1-0.1,0.2-0.1
			c0.1,0,0.3,0.1,0.3,0.4v12.8V40c0,0.1,0,0.1,0.1,0.1c0,0.1,0.1,0.1,0.1,0.1l0.1,0.1l0.1,0.1c0,0,0.1,0.1,0.1,0.1
			c0.1,0,0.1,0.1,0.1,0.1s0.1,0,0.2,0.1c0.1,0.1,0.1,0.1,0.2,0.1C23.1,40.6,23.2,40.8,23.2,41z M22.6,37.1c0-1.4,0.4-2.5,1.1-3.2
			c0.7-0.8,1.6-1.2,2.7-1.2c0.7,0,1.4,0.2,1.9,0.5c0.6,0.4,1.1,0.8,1.5,1.4c0.1,0.1,0.1,0.3,0.1,0.4V35c0,0.1-0.1,0.2-0.1,0.3
			c0,0.1-0.1,0.1-0.3,0.2c-0.1,0.1-0.3,0.1-0.4,0.1s-0.3,0.1-0.4,0.1c-0.1,0.1-0.3,0.1-0.4,0.1l-4.3,1.6C24,37.6,24,37.6,24,37.7
			c0,0.1,0,0.3,0.1,0.4c0.1,0.1,0.1,0.4,0.3,0.7s0.3,0.6,0.5,0.9c0.1,0.3,0.5,0.5,0.9,0.6c0.4,0.1,0.8,0.3,1.2,0.3
			c0.9,0,1.7-0.3,2.4-1c0.1-0.1,0.3-0.3,0.4-0.3c0.2,0,0.3,0.1,0.3,0.3c0,0.1-0.1,0.1-0.1,0.3c-0.4,0.5-0.9,1-1.6,1.3
			c-0.5,0.2-1.2,0.4-1.9,0.4c-0.4,0-0.9-0.1-1.3-0.2S24.3,41,24,40.7c-0.4-0.3-0.7-0.8-0.9-1.4C22.7,38.6,22.6,37.9,22.6,37.1z
			 M28.1,35c0-0.1-0.2-0.4-0.6-0.8c-0.4-0.4-0.9-0.5-1.4-0.5c-0.6,0-1.1,0.3-1.4,0.8c-0.3,0.5-0.5,1.2-0.5,2.1
			c0,0.1,0.1,0.1,0.1,0.1L26,36l1.9-0.7C28.1,35.2,28.1,35.1,28.1,35z M30.3,35.6c0-0.9,0.3-1.6,0.9-2.2c0.6-0.6,1.4-0.9,2.3-0.9
			c0.6,0,1.1,0.1,1.7,0.4l0.9,0.4c0.4,0,0.8-0.2,1.1-0.6c0.1-0.3,0.4-0.5,0.6-0.5c0.1,0,0.4,0.1,0.5,0.3c0.2,0.1,0.2,0.4,0.2,0.6
			c0,0.2-0.1,0.4-0.3,0.6l-0.7,0.4c-0.3,0.1-0.4,0.1-0.4,0.1c-0.1,0.1-0.1,0.1-0.1,0.1s0,0.1,0.1,0.1c0.1,0.1,0.1,0.3,0.1,0.4
			c0.1,0.1,0.1,0.4,0.1,0.6c0,0.9-0.3,1.7-1,2.4c-0.6,0.6-1.4,1-2.4,1c-0.3,0-0.5-0.1-0.8-0.1c-0.3-0.1-0.4-0.1-0.4-0.1
			c-0.1,0-0.4,0.1-0.6,0.4c-0.2,0.2-0.3,0.4-0.3,0.6c0,0.4,0.3,0.6,0.9,0.7c0.6,0.1,1.3,0.1,2.2,0.2s1.5,0.1,1.9,0.2
			c0.6,0.1,1.1,0.4,1.4,0.9c0.3,0.4,0.4,0.9,0.4,1.4c0,0.3-0.1,0.6-0.1,0.9c-0.1,0.3-0.4,0.6-0.6,0.9c-0.3,0.3-0.7,0.5-1.3,0.7
			c-0.6,0.1-1.2,0.3-2.1,0.3c-1.4,0-2.5-0.3-3-0.8c-0.6-0.5-0.9-1.1-0.9-1.7c0-0.1,0-0.3,0.1-0.4c0.1-0.1,0.1-0.2,0.1-0.3l0.1-0.3
			c0.1-0.1,0.1-0.1,0.1-0.2l0.1-0.1c0.1-0.1,0.1-0.1,0.1-0.1c0.1,0,0.1-0.1,0.1-0.1l0.1-0.1h0.1l0.1-0.1l-0.1-0.1
			c-0.1-0.1-0.3-0.2-0.4-0.4c-0.1-0.2-0.1-0.4-0.1-0.6c0-0.6,0.4-1.2,1.1-1.9l0,0l0,0c0-0.1-0.1-0.1-0.1-0.1
			c-0.1-0.1-0.3-0.1-0.5-0.4c-0.2-0.2-0.4-0.4-0.5-0.7C30.4,36.7,30.3,36.2,30.3,35.6L30.3,35.6z M33.6,33.2c-0.5,0-0.9,0.2-1.2,0.6
			s-0.5,0.9-0.5,1.6c0,0.8,0.1,1.4,0.6,2c0.4,0.6,0.9,0.9,1.5,0.9c0.5,0,1-0.2,1.3-0.6s0.5-0.9,0.5-1.6c0-0.8-0.1-1.4-0.6-1.9
			C34.7,33.5,34.3,33.2,33.6,33.2z M31.5,43c0,0.6,0.3,1.1,0.9,1.4c0.6,0.4,1.4,0.5,2.3,0.5c0.9,0,1.6-0.1,1.9-0.4
			c0.4-0.3,0.6-0.6,0.6-1c0-0.5-0.3-0.9-0.8-1.2c-0.3-0.1-0.6-0.2-0.9-0.3c-0.4-0.1-0.9-0.1-1.5-0.1c-0.6,0-1.2-0.1-1.7-0.1h-0.1
			c-0.1,0-0.2,0.1-0.4,0.2C31.6,42.3,31.5,42.6,31.5,43C31.5,43,31.5,43,31.5,43z M38.2,34.3c0-0.4,0.3-0.8,0.9-1.2s1.4-0.6,2.1-0.6
			c0.3,0,0.5,0.1,0.8,0.1c0.3,0.1,0.5,0.1,0.9,0.3c0.3,0.1,0.6,0.4,0.9,0.6s0.4,0.7,0.4,1.2c0.1,0.3,0.1,0.5,0.1,0.7v4
			c0,0.2,0.1,0.4,0.1,0.6c0.1,0.1,0.2,0.2,0.3,0.3c0.1,0.1,0.1,0.1,0.3,0.1c0.1,0,0.3-0.1,0.4-0.1c0.1-0.1,0.1-0.2,0.2-0.3
			c0.1-0.1,0.1-0.1,0.2-0.1c0.1,0,0.1,0.1,0.1,0.3c0,0.3-0.1,0.6-0.4,1c-0.3,0.4-0.6,0.6-1.1,0.6c-0.1,0-0.3-0.1-0.5-0.1l-0.4-0.2
			c-0.1-0.1-0.1-0.1-0.3-0.2L43,40.8l-0.1-0.1h-0.1c-0.1,0-0.1,0-0.1,0.1c0,0.1-0.1,0.1-0.1,0.1l-0.3,0.3c-0.6,0.4-1.2,0.5-1.9,0.5
			c-0.6,0-1.2-0.2-1.7-0.6s-0.6-1-0.6-1.6c0-0.8,0.3-1.4,0.9-1.8c0.1-0.1,0.4-0.3,0.8-0.4c0.3-0.1,0.6-0.2,0.9-0.3
			c0.3-0.1,0.6-0.1,0.9-0.1c0.3-0.1,0.5-0.1,0.6-0.1h0.3c0.1-0.1,0.1-0.1,0.1-0.3v-0.7c0-0.7-0.1-1.2-0.5-1.6
			c-0.3-0.4-0.7-0.5-1.2-0.5c-0.7,0-1.3,0.4-1.7,1.4c-0.1,0.1-0.3,0.2-0.4,0.2c-0.2,0-0.4-0.1-0.5-0.1
			C38.2,34.8,38.2,34.5,38.2,34.3L38.2,34.3L38.2,34.3L38.2,34.3L38.2,34.3z M41,40.5c0.3,0,0.6-0.1,0.9-0.1
			c0.3-0.1,0.4-0.3,0.5-0.4l0.3-0.3c0.1-0.1,0.1-0.3,0.1-0.4V38c0-0.3,0-0.4-0.1-0.5s-0.1-0.1-0.1-0.1c-0.3,0-0.7,0.1-1.2,0.1
			c-0.5,0.1-0.9,0.3-1.2,0.6s-0.5,0.6-0.5,1.1c0,0.5,0.1,0.9,0.4,1.1C40.3,40.5,40.6,40.5,41,40.5z M48.5,33.6
			C48.5,33.7,48.5,33.7,48.5,33.6L48.5,33.6l0.2-0.1c0.1-0.1,0.2-0.1,0.4-0.3s0.4-0.2,0.5-0.4c0.1-0.1,0.4-0.2,0.8-0.3
			c0.3-0.1,0.6-0.1,0.9-0.1h0.1c0.3,0,0.5,0.1,0.8,0.1c0.3,0.1,0.5,0.2,0.9,0.4c0.3,0.1,0.6,0.5,0.8,0.9c0.2,0.4,0.4,0.9,0.4,1.5
			c0.1,0.2,0.1,0.6,0.1,1v0.4v1.1v2V40v0.1c0,0.1,0.1,0.1,0.1,0.1c0,0.1,0.1,0.1,0.1,0.1l0.1,0.1c0,0.1,0.1,0.1,0.1,0.1
			c0.1,0,0.1,0.1,0.1,0.1h0.2c0.1,0,0.1,0.1,0.2,0.1c0.1,0.1,0.3,0.1,0.3,0.4c0,0.3-0.1,0.4-0.3,0.4c-0.1,0-0.1,0-0.3-0.1
			c-0.1-0.1-0.4-0.1-0.6-0.1c-0.3,0-0.5-0.1-0.8-0.1h-0.5c-0.1,0-0.3,0-0.4,0.1c-0.1,0.1-0.2,0.1-0.4,0.1c-0.1,0-0.1,0.1-0.3,0.1
			h-0.1c-0.1,0-0.3-0.1-0.3-0.4c0-0.1,0.1-0.2,0.1-0.3c0.1-0.1,0.3-0.1,0.6-0.1c0.1-0.1,0.2-0.1,0.3-0.1c0.1-0.1,0.2-0.1,0.3-0.1
			c0.1-0.1,0.1-0.1,0.1-0.4v-3.1c0-1-0.1-1.7-0.3-2.2c-0.1-0.4-0.5-0.8-0.9-0.9c-0.4-0.1-0.8-0.3-1.1-0.3c-0.5,0-1,0.1-1.4,0.5
			c-0.4,0.3-0.6,0.6-0.6,0.8c-0.1,0.1-0.1,0.1-0.1,0.3v4.8c0,0.4,0.1,0.5,0.4,0.6c0.6,0.1,0.9,0.1,0.9,0.2s0.1,0.1,0.1,0.3
			c0,0.2-0.1,0.4-0.3,0.4h-0.1c-0.1,0-0.1,0-0.3-0.1c-0.1,0-0.3-0.1-0.4-0.1s-0.3-0.1-0.5-0.1h-0.5h-0.5c-0.1,0-0.4,0-0.5,0.1
			s-0.3,0.1-0.4,0.1c-0.1,0-0.1,0.1-0.3,0.1h-0.1c-0.2,0-0.3-0.1-0.3-0.4c0-0.1,0.1-0.3,0.1-0.4c0.1-0.1,0.3-0.1,0.6-0.1
			c0.2-0.1,0.4-0.1,0.4-0.2c0.1-0.1,0.1-0.3,0.1-0.5v-4.8c0-0.2-0.1-0.4-0.1-0.5c-0.1-0.1-0.3-0.3-0.8-0.6l-0.1-0.1l0,0
			c0-0.1,0.1-0.1,0.1-0.1c0.1-0.1,0.4-0.2,0.9-0.4l0.9-0.5c0.1-0.1,0.1-0.1,0.1-0.1c0.1,0,0.2,0.1,0.2,0.3v0.8
			C48.5,33.5,48.5,33.5,48.5,33.6L48.5,33.6L48.5,33.6L48.5,33.6L48.5,33.6z M54.8,33.8c-0.3,0-0.4-0.1-0.4-0.3
			c0-0.1,0.1-0.1,0.3-0.4l0.9-0.7c0.4-0.4,0.6-0.9,1-1.4c0.1-0.3,0.3-0.4,0.4-0.4s0.3,0.1,0.3,0.3v0.7v0.7c0,0.3,0.1,0.4,0.4,0.4
			h1.8h0.1h0.1c0.4,0,0.5,0.1,0.5,0.4s-0.1,0.4-0.1,0.6c-0.1,0.1-0.1,0.1-0.4,0.1h-2.4c-0.3,0-0.3,0-0.3,0.1v2.7v1.5v0.5
			c0,1,0.4,1.5,1,1.5c0.3,0,0.6-0.1,0.9-0.3l0.8-0.6c0.2-0.2,0.4-0.3,0.5-0.3c0.1,0,0.1,0.1,0.3,0.1c0.1,0.1,0.1,0.1,0.1,0.3
			c0,0.1-0.1,0.1-0.1,0.3c-1.1,1.2-1.9,1.8-2.8,1.8c-0.5,0-0.9-0.1-1.4-0.6c-0.4-0.4-0.6-1-0.7-1.9v-0.6l0.1-2.4l0.1-2.1
			c0-0.1-0.1-0.1-0.1-0.1L54.8,33.8L54.8,33.8L54.8,33.8L54.8,33.8z"/>
	</g>
	<path style="fill:#EE348A;" d="M50.5,31.4l-1.4-1.1c0.4-0.5,0.9-1,1.4-1.4l0.4-0.4l-1.4-0.4l-1-0.3l0.5-1.7
		c0.8,0.3,1.5,0.7,2.2,1.1c-0.1-1-0.2-1.9-0.2-2.5h1.7c0,0.4-0.1,1.3-0.3,2.5c0.1-0.1,0.4-0.1,0.8-0.4c0.5-0.3,1.1-0.5,1.5-0.6
		l0.5,1.7l-2.4,0.4l1.1,1.2c0.2,0.3,0.4,0.4,0.5,0.6l-1.4,0.9l-1.3-2.1C51.4,29.9,50.9,30.7,50.5,31.4L50.5,31.4z"/>
</g>
</svg>
