<?xml version="1.0" encoding="utf-8"?>
<svg version="1.1" id="Layer_1" xmlns="http://www.w3.org/2000/svg" xmlns:xlink="http://www.w3.org/1999/xlink" x="0px" y="0px"
	 viewBox="0 0 1898.97 1135.58" style="enable-background:new 0 0 1898.97 1135.58;" xml:space="preserve">
<g>
	<path style="fill:#252F3E;" d="M535.15,412.42c0,23.37,2.53,42.32,6.95,56.21c5.05,13.89,11.37,29.05,20.21,45.47
		c3.16,5.05,4.42,10.11,4.42,14.53c0,6.32-3.79,12.63-12,18.95l-39.79,26.53c-5.68,3.79-11.37,5.68-16.42,5.68
		c-6.32,0-12.63-3.16-18.95-8.84c-8.84-9.47-16.42-19.58-22.74-29.68c-6.32-10.74-12.63-22.74-19.58-37.26
		c-49.26,58.11-111.16,87.16-185.68,87.16c-53.05,0-95.37-15.16-126.32-45.47s-46.74-70.74-46.74-121.26
		c0-53.68,18.95-97.26,57.47-130.11s89.68-49.26,154.74-49.26c21.47,0,43.58,1.89,66.95,5.05c23.37,3.16,47.37,8.21,72.63,13.89
		v-46.11c0-48-10.11-81.47-29.68-101.05c-20.21-19.58-54.32-29.05-102.95-29.05c-22.11,0-44.84,2.53-68.21,8.21
		c-23.37,5.68-46.11,12.63-68.21,21.47c-10.11,4.42-17.68,6.95-22.11,8.21c-4.42,1.26-7.58,1.89-10.11,1.89
		c-8.84,0-13.26-6.32-13.26-19.58V77.05c0-10.11,1.26-17.68,4.42-22.11s8.84-8.84,17.68-13.26c22.11-11.37,48.63-20.84,79.58-28.42
		c30.95-8.21,63.79-12,98.53-12c75.16,0,130.11,17.05,165.47,51.16c34.74,34.11,52.42,85.89,52.42,155.37v204.63H535.15z
		 M278.73,508.42c20.84,0,42.32-3.79,65.05-11.37c22.74-7.58,42.95-21.47,60-40.42c10.11-12,17.68-25.26,21.47-40.42
		c3.79-15.16,6.32-33.47,6.32-54.95v-26.53c-18.32-4.42-37.89-8.21-58.11-10.74c-20.21-2.53-39.79-3.79-59.37-3.79
		c-42.32,0-73.26,8.21-94.11,25.26c-20.84,17.05-30.95,41.05-30.95,72.63c0,29.68,7.58,51.79,23.37,66.95
		C227.57,500.84,249.68,508.42,278.73,508.42z M785.89,576.63c-11.37,0-18.95-1.89-24-6.32c-5.05-3.79-9.47-12.63-13.26-24.63
		L600.2,57.47c-3.79-12.63-5.68-20.84-5.68-25.26c0-10.11,5.05-15.79,15.16-15.79h61.89c12,0,20.21,1.89,24.63,6.32
		c5.05,3.79,8.84,12.63,12.63,24.63l106.11,418.11l98.53-418.11c3.16-12.63,6.95-20.84,12-24.63c5.05-3.79,13.89-6.32,25.26-6.32
		h50.53c12,0,20.21,1.89,25.26,6.32c5.05,3.79,9.47,12.63,12,24.63l99.79,423.16l109.26-423.16c3.79-12.63,8.21-20.84,12.63-24.63
		c5.05-3.79,13.26-6.32,24.63-6.32h58.74c10.11,0,15.79,5.05,15.79,15.79c0,3.16-0.63,6.32-1.26,10.11
		c-0.63,3.79-1.89,8.84-4.42,15.79l-152.21,488.21c-3.79,12.63-8.21,20.84-13.26,24.63c-5.05,3.79-13.26,6.32-24,6.32h-54.32
		c-12,0-20.21-1.89-25.26-6.32s-9.47-12.63-12-25.26l-97.89-407.37l-97.26,406.74c-3.16,12.63-6.95,20.84-12,25.26
		c-5.05,4.42-13.89,6.32-25.26,6.32H785.89z M1597.47,593.68c-32.84,0-65.68-3.79-97.26-11.37c-31.58-7.58-56.21-15.79-72.63-25.26
		c-10.11-5.68-17.05-12-19.58-17.68s-3.79-12-3.79-17.68v-32.21c0-13.26,5.05-19.58,14.53-19.58c3.79,0,7.58,0.63,11.37,1.89
		c3.79,1.26,9.47,3.79,15.79,6.32c21.47,9.47,44.84,17.05,69.47,22.11c25.26,5.05,49.89,7.58,75.16,7.58
		c39.79,0,70.74-6.95,92.21-20.84c21.47-13.89,32.84-34.11,32.84-60c0-17.68-5.68-32.21-17.05-44.21
		c-11.37-12-32.84-22.74-63.79-32.84l-91.58-28.42c-46.11-14.53-80.21-36-101.05-64.42c-20.84-27.79-31.58-58.74-31.58-91.58
		c0-26.53,5.68-49.89,17.05-70.11s26.53-37.89,45.47-51.79c18.95-14.53,40.42-25.26,65.68-32.84S1590.52,0,1618.31,0
		c13.89,0,28.42,0.63,42.32,2.53c14.53,1.89,27.79,4.42,41.05,6.95c12.63,3.16,24.63,6.32,36,10.11
		c11.37,3.79,20.21,7.58,26.53,11.37c8.84,5.05,15.16,10.11,18.95,15.79c3.79,5.05,5.68,12,5.68,20.84v29.68
		c0,13.26-5.05,20.21-14.53,20.21c-5.05,0-13.26-2.53-24-7.58c-36-16.42-76.42-24.63-121.26-24.63c-36,0-64.42,5.68-84,17.68
		s-29.68,30.32-29.68,56.21c0,17.68,6.32,32.84,18.95,44.84c12.63,12,36,24,69.47,34.74l89.68,28.42
		c45.47,14.53,78.32,34.74,97.89,60.63c19.58,25.89,29.05,55.58,29.05,88.42c0,27.16-5.68,51.79-16.42,73.26
		c-11.37,21.47-26.53,40.42-46.11,55.58c-19.58,15.79-42.95,27.16-70.11,35.37C1659.36,589.26,1629.68,593.68,1597.47,593.68z"/>
	<g>
		<path style="fill:#FF9900;" d="M1716.83,900.63c-207.79,153.47-509.68,234.95-769.26,234.95
			c-363.79,0-691.58-134.53-939.16-358.11c-19.58-17.68-1.89-41.68,21.47-27.79c267.79,155.37,598.11,249.47,939.79,249.47
			c230.53,0,483.79-48,716.84-146.53C1721.26,836.84,1750.94,875.37,1716.83,900.63z"/>
		<path style="fill:#FF9900;" d="M1803.36,802.11c-26.53-34.11-175.58-16.42-243.16-8.21c-20.21,2.53-23.37-15.16-5.05-28.42
			c118.74-83.37,313.89-59.37,336.63-31.58c22.74,28.42-6.32,223.58-117.47,317.05c-17.05,14.53-33.47,6.95-25.89-12
			C1773.68,976.42,1829.89,835.58,1803.36,802.11z"/>
	</g>
</g>
</svg>
