<?xml version="1.0" encoding="utf-8"?>
<svg version="1.1" id="Layer_1" xmlns="http://www.w3.org/2000/svg" xmlns:xlink="http://www.w3.org/1999/xlink" x="0px" y="0px"
	 viewBox="0 0 78.8 13.6" style="enable-background:new 0 0 78.8 13.6;" xml:space="preserve">
<g>
	<path style="fill:#1E1E1E;" d="M21.4,7.6c0-2.2,1.4-2.3,3.3-2.3h0.2c1.9,0,2.9,0.3,2.9,2.5v1.5c0,1.8-0.5,2.6-3,2.6h-0.5
		c-2.4,0-3-0.6-3-2.4C21.4,9.5,21.4,7.6,21.4,7.6z M21.4,12.4L21.4,12.4c0.6,0.8,1.7,1.2,3,1.2h0.7c2.8,0,4.8-0.7,4.8-3.9v-2
		c0-3-1.3-4-4.7-4h-1.1c-1.5,0-2.3,0.5-2.7,1.1h0V0h-2.1v13.3h2.1L21.4,12.4 M55.3,3.9h-2.8V3.1c0-0.8,0.5-1.5,1.7-1.5l2.1,0V0
		l-2.8,0c-1.7,0-3.1,0.9-3.1,3.1v0.8h-1.1v1.7h1.1v8h2.1v-8h2.8V3.9 M43.2,10.5c0,2.2,1.4,3.1,3.1,3.1h2.6v-1.7l-2.1,0
		c-1.1,0-1.5-0.6-1.5-1.4V5.6h2.8V3.9h-2.8V0h-2.1v3.9h-1.1v1.7h1.1L43.2,10.5 M67.3,2.1h2.1V0l-2.1,0V2.1 M67.3,13.6h2.1V3.7h-2.1
		L67.3,13.6 M33.1,7.5c0-1.9,0.9-2.1,3-2.1l0.4,0c2.4,0,2.7,0.6,2.7,1.9l0,0.5l-6.2,0C33.1,7.8,33.1,7.5,33.1,7.5z M35.3,13.6h1.9
		c2.5,0,3.7-0.8,4-2.2l-1.9-0.6c-0.3,0.9-1.1,1.1-2.7,1.1h-0.5c-2.7,0-3.1-0.3-3.1-2.4l0,0h8.3V7.6c0-3.3-1.7-3.9-4.5-3.9h-1
		c-2.2,0-4.8,0.4-4.8,3.7v2.3C31.1,13,33.3,13.6,35.3,13.6 M63.3,10.6c0,0.9-0.6,1.3-3.1,1.3h-0.6c-2.1,0-2.4-0.4-2.4-1.2l0-0.5
		c0-0.9,0.5-1.3,2.3-1.3h0.9c1.6,0,2.8,0.3,2.8,1.4C63.3,10.2,63.3,10.6,63.3,10.6z M60.7,3.7h-0.8c-2.8,0-4.1,0.9-4.1,2.2l2,0.7
		c0.1-0.9,1.1-1.2,2.7-1.2c2.3,0,2.9,0.1,2.9,1.8v0.9h0c-0.5-0.7-1.2-0.9-3-0.9h-0.8c-2.7,0-4.2,0.7-4.2,2.8v0.6c0,1.7,0.7,3,3.5,3
		h2c2,0,2.2-0.3,2.6-0.9h0v0.9h2.1V7.2C65.4,4.4,63.6,3.7,60.7,3.7 M75.7,3.7c-0.9,0-1.9,0.4-2.5,1.3h-0.1V3.7l-2,0v9.9h2.1V7.6
		c0-1.2,0.7-2.3,2.3-2.3c1.2,0,1.7,0.3,1.8,0.6l1.3-0.9C78.4,4.2,77.6,3.7,75.7,3.7 M15.4,0H10v2.7H7.1l5.6,6.5l5.6-6.5h-2.9V0
		 M0,10.8h2.9v2.7h5.4v-2.7h2.9L5.6,4.3L0,10.8"/>
</g>
</svg>
