<?xml version="1.0" encoding="utf-8"?>
<svg version="1.1" id="Layer_1" xmlns="http://www.w3.org/2000/svg" xmlns:xlink="http://www.w3.org/1999/xlink" x="0px" y="0px"
	width="100px" height="100px" viewBox="0 0 100 100" style="enable-background:new 0 0 100 100;" xml:space="preserve">
<g>
	<path style="fill:#E8E8E8;" d="M50,0c27.61,0,50,22.39,50,50s-22.39,50-50,50S0,77.61,0,50S22.39,0,50,0"/>
	<path style="fill:#FFFFFF;" d="M50,1c27.06,0,49,21.94,49,49S77.06,99,50,99S1,77.06,1,50S22.94,1,50,1"/>
	<g>
		<path d="M11.99,41.99h5.5c3.51,0,5.73,2.81,5.73,6.67c0,2.11-0.7,3.98-2.11,5.15c-0.94,0.82-2.22,1.29-3.86,1.29h-5.26V41.99z
			 M17.07,52.81c2.51,0,3.45-1.52,3.45-4.09s-1.11-4.39-3.39-4.39h-2.51v8.54h2.46V52.81z M23.62,50.41c0-2.81,1.99-4.97,4.91-4.97
			s4.91,2.16,4.91,4.97c0,2.81-1.99,4.97-4.91,4.97S23.62,53.16,23.62,50.41L23.62,50.41z M30.88,50.41c0-1.81-0.88-3.1-2.4-3.1
			c-1.52,0-2.4,1.23-2.4,3.1c0,1.87,0.82,3.04,2.4,3.04S30.88,52.22,30.88,50.41z M33.92,50.41c0-2.81,1.81-4.97,4.68-4.97
			c2.46,0,3.92,1.4,4.27,3.45h-2.46c-0.18-0.82-0.82-1.46-1.7-1.46c-1.52,0-2.28,1.17-2.28,2.98c0,1.75,0.7,2.98,2.22,2.98
			c0.99,0,1.7-0.53,1.87-1.58h2.46c-0.18,1.99-1.7,3.57-4.21,3.57C35.79,55.32,33.92,53.16,33.92,50.41L33.92,50.41z M49.53,55.09
			v-1.11h-0.06c-0.64,0.88-1.35,1.35-2.69,1.35c-2.11,0-3.28-1.35-3.28-3.39v-6.26h2.46v5.85c0,1.11,0.47,1.7,1.58,1.7
			c1.17,0,1.87-0.88,1.87-2.11v-5.44h2.51v9.36h-2.4L49.53,55.09z M64.04,42.05h2.51v2.34h-2.51V42.05z M64.04,45.67h2.51v9.36
			h-2.51V45.67L64.04,45.67z M67.54,55.32H70c0.18,0.58,0.76,1.05,1.87,1.05c1.4,0,2.11-0.7,2.11-1.93v-1.05h-0.06
			c-0.53,0.64-1.29,1.11-2.46,1.11c-2.11,0-4.15-1.64-4.15-4.5c0-2.81,1.7-4.56,4.04-4.56c1.17,0,2.05,0.47,2.57,1.23h0.06v-0.99
			h2.4v8.66c0,1.35-0.41,2.22-1.11,2.87c-0.76,0.76-1.99,1.05-3.39,1.05C69.42,58.25,67.84,57.19,67.54,55.32L67.54,55.32z
			 M74.15,49.94c0-1.35-0.76-2.51-2.22-2.51c-1.29,0-2.11,0.99-2.11,2.57s0.82,2.51,2.11,2.51C73.51,52.51,74.15,51.35,74.15,49.94
			L74.15,49.94z M79.94,46.96c0.7-0.99,1.58-1.52,2.81-1.52c1.93,0,3.22,1.46,3.22,3.51v6.14h-2.51v-5.73c0-0.99-0.58-1.7-1.64-1.7
			c-1.11,0-1.93,0.88-1.93,2.16v5.32h-2.4v-9.36h2.46V46.96L79.94,46.96z M58.36,47.19c-1.93-0.41-2.81-0.76-2.81-1.81
			c0-0.94,0.94-1.52,2.34-1.52c1.29,0,2.28,0.58,2.51,1.81h2.57c-0.29-2.51-2.16-3.92-5.09-3.92c-2.92,0-5.03,1.35-5.03,3.92
			c0,2.75,2.16,3.33,4.5,3.86c1.99,0.47,3.22,0.7,3.22,1.99c0,1.23-1.17,1.7-2.51,1.7c-1.87,0-2.75-0.64-2.92-2.22h-2.57
			c0.12,2.75,2.11,4.33,5.67,4.33c2.92,0,5.09-1.46,5.09-4.15C63.28,48.42,61.05,47.78,58.36,47.19L58.36,47.19z"/>
		<g>
			<path d="M87.02,47.43c-0.53,0-0.99-0.47-0.99-0.99s0.47-0.99,0.99-0.99s0.99,0.47,0.99,0.99S87.55,47.43,87.02,47.43z
				 M87.02,45.61c-0.47,0-0.82,0.35-0.82,0.82c0,0.47,0.35,0.82,0.82,0.82c0.47,0,0.82-0.35,0.82-0.82S87.49,45.61,87.02,45.61z"/>
			<path d="M86.67,45.91h0.35c0.12,0,0.23,0,0.29,0.06s0.12,0.12,0.12,0.23c0,0.18-0.12,0.23-0.18,0.29l0.23,0.41h-0.23l-0.18-0.35
				h-0.23v0.35h-0.18L86.67,45.91L86.67,45.91z M86.84,46.08v0.29h0.18c0.06,0,0.18,0,0.18-0.18c0,0,0-0.12-0.06-0.12H86.84z"/>
		</g>
	</g>
</g>
</svg>
