<?xml version="1.0" encoding="utf-8"?>
<svg version="1.1" id="Layer_1" xmlns="http://www.w3.org/2000/svg" xmlns:xlink="http://www.w3.org/1999/xlink" x="0px" y="0px"
	width="100px" height="100px" viewBox="0 0 66.7 66.7" style="enable-background:new 0 0 66.7 66.7;" xml:space="preserve">
<g>
	<circle style="fill:#E8E8E8;" cx="33.3" cy="33.3" r="33.3"/>
	<circle style="fill:#FFFFFF;" cx="33.3" cy="33.3" r="32.7"/>
	<path style="fill:#AC29B5;" d="M27.1,32.5c0,2.1,1.7,3.7,3.7,3.7c2.1,0,3.7-1.7,3.7-3.7l0,0c0-0.3-0.1-0.5-0.1-0.8h-2.6l-1.5,1.5
		h2.1c-0.3,0.7-0.9,1.1-1.6,1.1c-0.9,0-1.7-0.8-1.7-1.7c0-0.9,0.8-1.7,1.7-1.7c0.3,0,0.7,0.1,0.9,0.3l1.4-1.4
		c-0.7-0.5-1.5-0.8-2.3-0.8C28.9,28.8,27.1,30.5,27.1,32.5L27.1,32.5L27.1,32.5z M35.2,30.5h1.7v5.5h-1.7V30.5z M35.2,29h1.7v1.1
		h-1.7V29z M41.1,36.1l2.3-5.6h-1.9l-1.1,3.1l-1.1-3.1h-1.9l2.2,5.6v0.1L41.1,36.1L41.1,36.1z M43.7,30.5h1.9v5.5h-1.9V30.5z
		 M43.7,29h1.9v1.1h-1.9V29z M51.2,36.1v-3.5c0-1.3-0.7-2.1-1.9-2.1c-0.5,0-1,0.2-1.4,0.6l-0.5-0.5h-1.3V36H48v-3.1
		c0-0.4,0.1-0.9,0.7-0.9c0.5,0,0.7,0.3,0.7,0.9V36L51.2,36.1L51.2,36.1L51.2,36.1L51.2,36.1z M9.3,36.2c1.7,0,2.6-0.9,2.6-2.6V29H10
		v4.5c0,0.6-0.3,0.9-0.7,0.9c-0.4,0-0.7-0.2-1.1-0.6l-0.1-0.1l-1.3,1.3l0.1,0.1C7.5,35.8,8.3,36.2,9.3,36.2z M54.5,36.3
		c-0.5,0-0.9-0.1-1.3-0.3l-1.2,1.2l0.2,0.1c0.7,0.4,1.5,0.5,2.4,0.5c2.1,0,3.1-1.1,3.1-3.1v-4.3h-1.4L55.8,31
		c-0.5-0.4-0.9-0.5-1.5-0.5c-1.3,0-2.5,0.9-2.5,2.6l0,0c0,1.7,1.2,2.6,2.5,2.6c0.6,0,1.1-0.2,1.5-0.5C55.6,35.8,55.2,36.3,54.5,36.3
		C54.5,36.3,54.5,36.3,54.5,36.3z M54.6,34.2c-0.7,0-1.1-0.5-1.1-1.1l0,0c0-0.7,0.5-1.1,1.1-1.1c0.7,0,1.1,0.5,1.1,1.1l0,0
		C55.8,33.7,55.3,34.2,54.6,34.2z M12.5,30.5v3.5c0,1.3,0.7,2.1,1.9,2.1c0.5,0,1-0.2,1.4-0.6l0.5,0.5h1.3v-5.5h-1.9v3.1
		c0,0.4-0.1,0.9-0.7,0.9c-0.5,0-0.7-0.3-0.7-0.9v-3.1L12.5,30.5C12.5,30.5,12.5,30.5,12.5,30.5z M26.6,32.1v-1.7h-1.2v-1.5h-1.9v1.5
		h-0.7v1.7h0.7v2.3c0,1.2,0.5,1.7,1.7,1.7c0.5,0,0.9-0.1,1.3-0.3l0.1-0.1v-1.6l-0.3,0.1c-0.2,0.1-0.4,0.2-0.7,0.2
		c-0.3,0-0.3-0.1-0.3-0.3v-2.1L26.6,32.1L26.6,32.1C26.6,32.1,26.6,32.1,26.6,32.1z M20.5,34.8c-0.5,0-1-0.2-1.5-0.5l-1,1l0,0
		l0.1,0.1c0.7,0.5,1.5,0.8,2.3,0.8c1.3,0,2.2-0.7,2.2-1.9l0,0c0-1.1-1.1-1.5-1.7-1.7l-0.2-0.1c-0.4-0.1-0.9-0.3-0.9-0.5l0,0
		c0-0.2,0.3-0.3,0.5-0.3c0.3,0,0.7,0.1,1.1,0.3l1.1-1.1l-0.1-0.1c-0.6-0.4-1.3-0.7-2.1-0.7c-1.3,0-2.1,0.7-2.1,1.9l0,0
		c0,1.1,0.9,1.5,1.7,1.7c0.1,0,0.1,0.1,0.2,0.1c0.5,0.1,0.9,0.3,0.9,0.4l0,0C21.1,34.7,20.8,34.8,20.5,34.8
		C20.5,34.8,20.5,34.8,20.5,34.8z M57.9,30.8h0.2v0.5h0.3v-0.5h0.2v-0.3h-0.7L57.9,30.8C57.9,30.8,57.9,30.8,57.9,30.8z M59.5,30.5
		l-0.2,0.3l-0.2-0.3h-0.3v0.9h0.3v-0.4l0.1,0.2h0.1l0.1-0.2v0.4h0.3v-0.9L59.5,30.5L59.5,30.5z"/>
</g>
</svg>
