<?xml version="1.0" encoding="utf-8"?>
<svg version="1.1" id="Layer_1" xmlns="http://www.w3.org/2000/svg" xmlns:xlink="http://www.w3.org/1999/xlink" x="0px" y="0px"
	 viewBox="0 0 1920.2 241.1" style="enable-background:new 0 0 1920.2 241.1;" xml:space="preserve">
<g>
	<path style="fill:#152864;" d="M1350.4,115.2l-5.3-1.9c1.5-0.7,3-1.5,4.5-2.4c5.8-3.7,11.3-7.9,16.4-12.5
		c11.9-12.5,15.4-27.8,13.3-44.6c-1.7-16.2-10.8-30.8-24.6-39.4c-14.8-9.7-31.4-12.8-48.6-13.1c-24.8-0.5-49.6,0-74.4,0
		c-1.3,0-2.5,0-3.9,0.2V237h3.3l73.6-0.2c9.5-0.2,19-1.5,28.2-3.9c30.2-7.9,50.6-25.6,54.3-58.3
		C1390.4,147.6,1378.4,124.9,1350.4,115.2L1350.4,115.2z M1269.4,38c0.1-1.3,0.2-2.5,0.5-3.8c14.4,0.4,28.7,0,42.8,1.5
		c15.3,1.7,23.3,13.8,23,30.5c-0.4,20.1-16.8,31.4-32.4,32.3c-10.1,0.6-20.2,0.2-30.2,0.5c-2.7,0-3.7-0.9-3.7-3.6L1269.4,38
		L1269.4,38z M1334.7,191.3c-5.3,6.1-12.9,9.8-21,10.3c-14.5,1.1-29,1-44.1,1.4c0-2.3-0.3-3.7-0.3-5.1v-59.4c0-7.7,0.2-6.3,6.6-6.2
		c11.6,0,23.4-0.2,34.9,0.9c13.1,1.3,24.8,6.9,29.9,20.2C1345.8,166.7,1344.4,179.9,1334.7,191.3L1334.7,191.3z M492,2h-40.7v4.8
		v140.5c-0.1,8.2-0.9,16.4-2.4,24.5c-3.1,16.2-12.4,27.3-28.7,31.4c-13.1,3.3-26.9,3.4-40,0.2c-17.1-4-28.3-15.7-30.5-33.2
		c-1.3-10-1.9-20.1-2-30.1V6.3V2h-41.6c0,1.5-0.2,2.8-0.2,4v138.1c0.1,12.2,1.2,24.3,3.3,36.3c4.3,24.9,18.1,43.1,41.9,52.5
		c27.8,10.8,56.3,10.3,84.7,2.7c20.5-4.8,37.8-18.5,47-37.4c6.5-13.6,9.7-28.6,9.3-43.7V6.1L492,2L492,2z M1917.1,233l-60.7-82.7
		c-5.5-7.5-5.5-7.5,0.2-14.6l49.7-60.9c3.1-3.8,6-7.7,9.3-12l-2.1-0.3h-45.3c-1.7,0.2-3.3,1.1-4.4,2.5l-46.4,61
		c-1,1.3-2.2,2.6-3.3,3.9l-1.1-0.5V1.9h-40.4c0,1.4-0.2,2.4-0.2,3.3v228.2c0,3.3,1.2,3.9,4.2,3.9h31.9c4,0,5.1-1.1,5-5.1v-70.8
		c0-1.3,0.3-2.6,0.4-3.8c1.5,0.9,2.7,2.2,3.6,3.7l49.2,73c1.2,2,3.4,3.2,5.7,3h44.1c1.2-0.1,2.5-0.2,3.7-0.4
		C1918.7,235.3,1917.9,234.1,1917.1,233L1917.1,233z M1550.8,107.3c-1-22.1-13.9-37.8-35.2-43.9c-14.5-3.9-29.7-5.1-44.6-3.5
		c-13.3,1.1-26.4,3.5-39.1,7.3c-10.5,3.1-10.5,3-9.8,13.7v1.6l2.7,24.6c0.9-0.3,1.7-0.7,2.5-1.1c18-10.8,39.1-15.4,59.9-13.1
		c8.5,1,16.1,3.9,20.4,12c4.3,8.1,3.8,17.1,3.5,26.2l-21,1.4c-16.5,1.1-32.6,5.5-47.3,12.8c-20.4,10.5-35.1,29.9-31.6,57
		c1.3,16.1,12.2,29.9,27.6,34.8c9.5,3.5,19.7,4.6,29.7,3.3c16.5-1.6,31.7-9.6,42.4-22.2c0.7-0.9,1.2-1.9,1.7-3l1.2,1v20.9h39.1
		l0.3-1.6l-1-66.5C1551.4,148.4,1551.7,127.9,1550.8,107.3L1550.8,107.3z M1495.7,197.7c-7.6,7.7-18.3,11.3-29,9.8
		c-7.7-1-13.7-4.5-16-12.3c-2.5-7.1-0.7-15,4.5-20.4c5.6-5.8,13-9.6,20.9-10.7c10.4-1.8,20.9-2.6,31.4-3.7c1.1,0,2.2,0.1,3.3,0.3
		C1510.4,174.9,1506.3,187.6,1495.7,197.7L1495.7,197.7z M972.5,64.4c-12.7-4.6-26.4-6-39.8-4.3c-29.7,3.3-50.5,19-61.8,46.5
		c-11,26.6-10.9,54.2-3.3,81.5c9.4,34.8,34.7,48.9,65.4,51.8c12.5,0.8,25.1,0.6,37.6-0.8c12.1-1.1,24-4.1,35.2-8.9
		c2.4-1,3.1-2.1,2.5-4.7c-0.7-3.5-0.9-7.3-1.3-10.9l-2.3-19.3l-3.7,1.7c-18.4,8.7-38.9,12-59.1,9.4c-17.5-2.3-29.5-11.5-34.2-28.9
		c-2.3-7.6-3.2-15.5-2.8-23.4h108.3c2.5-16.1,1.6-32.5-2.8-48.2C1004.4,86.3,992.3,71.7,972.5,64.4L972.5,64.4z M905.8,123.9
		c2.6-12.7,7.7-23.2,19.2-29.3c10.7-6.1,23.9-5.9,34.3,0.8c10.5,6.3,14.2,16.4,14,28.6L905.8,123.9L905.8,123.9z M1735.1,118.2
		c0.1-5.8-0.1-11.5-0.9-17.2c-2.1-14.4-8.2-26.7-21.2-34.5c-6.7-3.8-14.2-6-21.9-6.6c-19-1.8-36.4,1.7-51.6,13.8
		c-4.6,3.7-9,7.8-12.6,10.9V62.8h-38.4v174.4h4.1h31.9c3.7,0,4.9-1,4.9-4.8v-77.5c0-9.1,1.3-18.2,3.7-27
		c5.1-17.1,14.7-30.6,33.8-33.9c13.1-2.3,24.3,2.5,26.7,17.3c1,5.8,1.5,11.6,1.6,17.5v103.5v4.9h39.9v-4.5V118.2z M845.4,205.4
		c0-0.9-0.1-1.8-0.3-2.7c-8.9,0.8-17.3,2.2-25.7,2.2c-9.3,0-15.3-2.4-17.3-13.7c-0.8-4.2-1.3-8.5-1.4-12.8V102v-5h44.5V62.6h-44.7V1
		l-37.1,10.4c-2.6,0.7-3.5,1.7-3.5,4.5v42.6v4.4h-28.5c-3.3,0-4.2,1-4.2,4.2c0.2,8.7,0.2,17.5,0,26.2c0,3.3,1.2,3.9,4.2,3.9H760v5.2
		v79.1c0.1,8.6,0.6,17.2,1.6,25.8c0.8,7.3,3.6,14.3,8.2,20c7.8,9.6,18.7,12.3,30.1,13.1c14.1,1,28.3,0,42.2-2.9
		c2.5-0.6,3.3-1.5,3.3-4.2L845.4,205.4L845.4,205.4z M704.3,150.9c-6.6-4.7-13.7-8.7-21-12.1c-8.5-4.3-17.6-7.6-26-12
		c-4.1-2.1-7.5-5.2-10.1-9c-6-9.3-1.1-20.5,10.1-24.2c11.2-3.7,22.2-2.8,33.4-1c5.7,0.9,11.4,2.4,17.4,3.7V64.2c0-0.9-2-2.3-3.3-2.5
		c-5-0.8-10.1-1.3-15.2-1.9C675.4,58,661,58.6,647,61.6c-25.9,6.1-43.2,22.7-44.1,48c-0.6,17.2,4.4,32.1,19.7,41.5
		c9.6,6,20.2,10.4,30.4,15.5c6.1,2.7,12,5.7,17.8,9.1c6,3.6,8.8,10.8,6.7,17.4c-1.6,6.4-6.9,11.3-13.4,12.3
		c-16.2,3.9-32.2,1.6-47.9-2.8l-8.7-2.6l-4.4,35.3c0.3,0.2,0.6,0.4,1,0.6c22,5.4,45,6.2,67.3,2.2c9.5-1.8,18.6-5.4,26.6-10.8
		c13.8-9.2,22-24.8,21.7-41.3C719.9,171.9,715.8,159.6,704.3,150.9L704.3,150.9z M571.2,1.9h-40.5c0,1.4-0.2,2.4-0.2,3.5v228.3
		c0,3.3,1.2,3.7,3.9,3.7h33.1c3.3,0,4.1-0.9,4.1-4.2V5.7C571.4,4.5,571.3,3.3,571.2,1.9L571.2,1.9z M1084,86.3l1.5-23.5h-39.4v174.4
		h41.1v-5l0.9-83.8c0.2-10.1,2.4-20,6.6-29.2c5-10.8,12.5-18.9,25-20.2c5.9-0.3,11.9-0.3,17.8,0l1.8-39.2
		C1114.5,56.5,1096.9,66.3,1084,86.3L1084,86.3z M218.8,76.5h-28.7c1.6-1.7,2.3-2.6,3.3-3.3l40.2-40.4c7.1-7.8,6.9-19.8-0.6-27.3
		c-7.6-7.4-19.8-7.3-27.3,0.3L205.5,6l-34.1,34c-2.9,2.9-5.9,5.7-9.5,9.2V18.7c0.1-1.6,0-3.1-0.4-4.7c-2.4-8.9-10.9-14.7-20.1-13.7
		c-10.1,0.5-17.9,8.8-17.8,18.9V55c-0.8,9.4,4.9,18.2,13.8,21.3c11.6,4.7,20.7,14.1,25,25.9c3.1,8.1,11,13.4,19.7,13.1h35.8
		c3,0,6-0.6,8.8-1.7c8.7-3.7,13.5-13.1,11.4-22.3C236.1,82.5,228,76.2,218.8,76.5L218.8,76.5z M102.9,162.6
		c-12.6-4.8-22.4-14.8-26.8-27.5c-1.8-6.2-7.2-10.6-13.6-11c-15.6-0.8-31.1-0.8-46.7,0c-10.1,0.7-16.4,10.6-15.5,20
		c1.1,11.2,9.4,18,20.6,18h23c1.3,0,2.6,0,4.7,0.3l-3.6,3.8L6.8,204.5c-8.1,7.7-8.3,20.5-0.6,28.6c0.8,0.8,1.7,1.6,2.6,2.3
		c8,5.5,18.9,4.2,25.4-3L73.6,193c1-1,2-1.9,3.6-3.3c0,2,0.3,3.1,0.3,4.2v27.2c-0.2,5.5,2.5,10.7,7.1,13.7
		c6.2,4.2,14.2,4.7,20.9,1.2c6.6-3.1,10.7-9.9,10.3-17.2c0.2-12.3,0-24.7,0-37C116.1,173.2,110.9,165.5,102.9,162.6L102.9,162.6z"/>
	<path style="fill:#152864;" d="M98.3,0.6c-8.6-1.2-16.9,3.7-20,11.9c-0.9,3-1.4,6.1-1.3,9.3c-0.2,8.7,0,17.5,0,27.5
		c-2.4-2.2-4-3.3-5.4-4.9L33.2,6C27.6,0.4,19-1.2,11.8,2.1C2.1,6.3-2.4,17.6,1.8,27.4c1,2.3,2.5,4.4,4.3,6.2l25.3,25.3l17.7,17.2
		l-0.8,1.3h-4.2c-9.1,0-18.1-0.5-27.1,0C5.8,77.9-0.6,86.3,0,98.5c1.2,9.6,9.2,17,18.9,17.3c12.5,0,24.9-0.4,37.4,0
		c9.8,0.4,16.4-5.7,20-13.7c4.7-11.8,14-21.1,25.8-25.7c8-2.6,13.3-10.1,13.1-18.4c0.4-12.9,0.3-25.7,0-38.6
		C115.2,9.8,107.9,1.7,98.3,0.6L98.3,0.6z M220.4,123.6c-13.6,0-27.3-0.3-40.9,0c-7.6,0.1-14.3,5-16.8,12.2
		c-4.7,12.3-14.5,21.9-26.8,26.5c-7.3,2.3-12.3,9.1-12.3,16.7c-0.4,14.3-0.4,28.6,0.2,42.8c0.3,9.6,9.8,17,20,16.4
		c10-0.4,18-8.5,18.3-18.5v-29.9c1,0.6,1.9,1.3,2.8,2.1l13.9,13.9l26.5,26.8c7.4,7.6,19.5,7.8,27.1,0.4c1.4-1.3,2.5-2.9,3.5-4.5
		c4.7-8.2,3-17.4-4.8-25.3L193,165.1c-1-1-2-2.2-3.4-3.7c2,0,3-0.2,4,0l25.5,0.7c10.6,0.4,19.5-7.9,19.9-18.6
		C239.4,132.9,231.1,124,220.4,123.6L220.4,123.6L220.4,123.6L220.4,123.6z"/>
</g>
</svg>
