<?xml version="1.0" encoding="utf-8"?>
<svg version="1.1" id="Layer_1" xmlns="http://www.w3.org/2000/svg" xmlns:xlink="http://www.w3.org/1999/xlink" x="0px" y="0px"
	 viewBox="0 0 126.6 40.3" style="enable-background:new 0 0 126.6 40.3;" xml:space="preserve">
<g>
	<path style="fill:#1D7BCE;" d="M48.9,32.6c-0.2,0.2-0.4,0.3-0.6,0.3h-4.7c-0.2,0-0.4-0.1-0.6-0.3c-0.2-0.2-0.3-0.4-0.3-0.6v-1
		c-1.2,0.8-2.3,1.4-3.3,1.7s-2.2,0.5-3.6,0.5c-1.5,0-2.8-0.2-3.7-0.7c-1-0.5-1.7-1.2-2.3-2.1c-0.5-0.9-0.9-1.9-1.1-3.1
		c-0.2-1.2-0.3-2.4-0.3-3.8V9.4c0-0.2,0.1-0.4,0.3-0.6c0.2-0.2,0.4-0.3,0.6-0.3h5.1c0.2,0,0.4,0.1,0.6,0.3c0.2,0.2,0.3,0.4,0.3,0.6
		v14.1c0,0.7,0,1.4,0.1,1.9s0.2,0.9,0.5,1.2c0.2,0.3,0.5,0.5,1,0.7c0.4,0.1,0.9,0.2,1.6,0.2c0.6,0,1.3-0.1,1.9-0.4
		c0.7-0.3,1.3-0.6,2.1-1V9.4c0-0.2,0.1-0.4,0.3-0.6c0.2-0.2,0.4-0.3,0.6-0.3h5.1c0.2,0,0.4,0.1,0.6,0.3c0.2,0.2,0.3,0.4,0.3,0.6V32
		C49.1,32.2,49,32.4,48.9,32.6 M60.1,32c0,0.2-0.1,0.4-0.3,0.6c-0.2,0.2-0.4,0.3-0.6,0.3H54c-0.2,0-0.4-0.1-0.6-0.3
		c-0.2-0.2-0.3-0.4-0.3-0.6V9.3c0-0.2,0.1-0.4,0.3-0.6s0.4-0.3,0.6-0.3h5.2c0.2,0,0.4,0.1,0.6,0.3c0.2,0.2,0.3,0.4,0.3,0.6V32z
		 M84.5,30.9c0,0.3-0.1,0.6-0.2,0.8c-0.2,0.2-0.5,0.3-1.1,0.5C82,32.5,80.6,32.8,79,33s-3.2,0.3-4.8,0.3c-3.4,0-6.1-1-7.9-2.8
		c-1.8-1.9-2.7-4.6-2.7-8V19c0-3.3,0.9-6,2.6-7.9c1.7-2,4.4-2.9,8-2.9c0.4,0,0.9,0,1.6,0.1c0.6,0.1,1.3,0.1,1.9,0.2V1.1
		c0-0.2,0.1-0.4,0.3-0.6c0.2-0.2,0.4-0.3,0.6-0.3h5.1c0.2,0,0.4,0.1,0.6,0.3c0.2,0.2,0.3,0.4,0.3,0.6v29.8L84.5,30.9z M77.6,14.1
		C77.1,14,76.5,14,75.9,14s-1.2-0.1-1.7-0.1c-0.8,0-1.4,0.1-1.9,0.4s-0.9,0.6-1.1,1.1c-0.3,0.5-0.5,1-0.6,1.7
		c-0.1,0.6-0.2,1.3-0.2,2.1v3.3c0,0.8,0.1,1.5,0.2,2.1s0.3,1.2,0.6,1.7s0.7,0.8,1.1,1.1c0.5,0.3,1.1,0.4,1.9,0.4c0.7,0,1.4,0,2-0.1
		s1.1-0.1,1.5-0.2V14.1L77.6,14.1z M103.7,32.3c-0.1,0.1-0.4,0.2-0.7,0.3c-0.6,0.1-1.4,0.3-2.3,0.4c-0.9,0.1-2,0.2-3.3,0.2
		c-3,0-5.4-0.9-7.2-2.8c-1.8-1.8-2.7-4.5-2.7-8v-3.6c0-3.5,0.9-6.1,2.7-8C92,9,94.4,8,97.4,8c1.3,0,2.4,0.1,3.3,0.2
		c0.9,0.1,1.7,0.3,2.3,0.4c0.3,0.1,0.5,0.2,0.7,0.3c0.1,0.1,0.2,0.4,0.2,0.7v3.8c0,0.2-0.1,0.4-0.2,0.5c-0.2,0.1-0.3,0.2-0.6,0.2
		H103c-0.8-0.1-1.5-0.2-2.3-0.2c-0.7-0.1-1.7-0.1-2.9-0.1c-0.5,0-0.9,0.1-1.4,0.2c-0.4,0.2-0.8,0.4-1.1,0.8
		c-0.3,0.4-0.6,0.9-0.7,1.5c-0.2,0.6-0.3,1.4-0.3,2.4v3.6c0,0.9,0.1,1.7,0.3,2.4c0.2,0.6,0.4,1.1,0.7,1.5c0.3,0.4,0.7,0.6,1.1,0.8
		s0.9,0.2,1.4,0.2c1.2,0,2.2,0,2.9-0.1c0.7-0.1,1.5-0.1,2.3-0.2h0.1c0.2,0,0.4,0.1,0.6,0.2c0.2,0.1,0.2,0.3,0.2,0.5v3.8
		C103.9,31.9,103.8,32.1,103.7,32.3 M126.6,22.2c0,1.7-0.2,3.2-0.7,4.6s-1.1,2.5-2,3.5s-2,1.7-3.3,2.2s-2.8,0.8-4.6,0.8
		c-1.7,0-3.2-0.3-4.6-0.8c-1.3-0.5-2.4-1.3-3.3-2.2s-1.6-2.1-2.1-3.5s-0.7-2.9-0.7-4.6v-3c0-1.7,0.2-3.2,0.7-4.6s1.2-2.5,2.1-3.5
		s2-1.7,3.3-2.2s2.8-0.8,4.6-0.8c1.7,0,3.2,0.3,4.6,0.8c1.3,0.5,2.4,1.3,3.3,2.2c0.9,1,1.6,2.1,2,3.5c0.5,1.4,0.7,2.9,0.7,4.6
		C126.6,19.2,126.6,22.2,126.6,22.2z M119.8,19.2c0-3.5-1.2-5.2-3.7-5.2c-1.2,0-2.2,0.4-2.8,1.3c-0.6,0.9-1,2.2-1,3.9v3
		c0,1.7,0.3,3,1,3.9c0.6,0.9,1.6,1.3,2.8,1.3c2.5,0,3.7-1.7,3.7-5.2C119.8,22.2,119.8,19.2,119.8,19.2z M60.3,4.9
		c0,0.2-0.1,0.4-0.3,0.6c-0.2,0.2-0.4,0.3-0.6,0.3H54c-0.2,0-0.4-0.1-0.6-0.3c-0.2-0.2-0.3-0.4-0.3-0.6v-4c0-0.2,0.1-0.4,0.3-0.6
		S53.8,0,54,0h5.5c0.2,0,0.4,0.1,0.6,0.3c0.2,0.2,0.3,0.4,0.3,0.6L60.3,4.9L60.3,4.9z M24.2,8.2c-0.7-1.7-1.5-3.1-2.7-4.2
		c-1.1-1.1-2.4-1.9-4-2.4c-1.5-0.5-3.2-0.7-4.9-0.7c-1.7,0-3.4,0.3-4.9,0.7C6.2,2.1,4.9,2.9,3.7,4C2.6,5.1,1.7,6.5,1,8.2
		C0.4,9.9,0,12,0,14.5v5.1c0,2.5,0.3,4.6,1,6.3c0.6,1.7,1.5,3.1,2.7,4.2c1.1,1.1,2.4,1.9,4,2.4c0.8,0.3,1.7,0.5,2.6,0.6
		c0.1,0.2,0.3,0.4,0.5,0.7c0.8,1,1.9,2.1,3.3,3.2c0.4,0.3,0.8,0.6,1.3,0.9c0.5,0.3,1,0.6,1.4,0.9c0.5,0.3,1,0.5,1.4,0.8
		c0.5,0.2,0.8,0.4,1.1,0.5c0.3,0.1,0.5,0.1,0.8,0.2c0.2,0,0.4-0.1,0.6-0.3l2.4-3.2c0.2-0.2,0.2-0.4,0.2-0.7s-0.2-0.5-0.4-0.6
		l-0.1-0.1c-0.3-0.2-0.7-0.5-1.2-0.8s-0.9-0.6-1.4-0.9c-0.5-0.3-1-0.6-1.4-0.9c-0.2-0.1-0.4-0.3-0.5-0.4c1.2-0.5,2.3-1.2,3.2-2.1
		c1.1-1.1,2-2.5,2.7-4.2c0.6-1.7,1-3.8,1-6.3v-5.1C25.2,12.1,24.9,10,24.2,8.2z M8.8,25.2c-0.8-1.1-1.3-3-1.3-5.6v-5.1
		c0-2.6,0.4-4.5,1.3-5.6c0.8-1.1,2.2-1.7,3.9-1.7c1.8,0,3.1,0.6,4,1.7c0.9,1.1,1.3,3,1.3,5.6v5.1c0,2.6-0.4,4.5-1.3,5.6
		c-0.9,1.1-2.2,1.7-4,1.7C11,26.9,9.7,26.3,8.8,25.2z"/>
</g>
</svg>
