<?xml version="1.0" encoding="utf-8"?>
<svg version="1.1" id="Layer_1" xmlns="http://www.w3.org/2000/svg" xmlns:xlink="http://www.w3.org/1999/xlink" x="0px" y="0px"
	width="100px" height="100px" viewBox="0 0 100 100" style="enable-background:new 0 0 100 100;" xml:space="preserve">
<g>
	<g>
		<circle style="fill:#E8E8E8;" cx="50" cy="50" r="50"/>
		<circle style="fill:#FFFFFF;" cx="50" cy="50" r="49"/>
	</g>
	<g>
		<path style="fill-rule:evenodd;clip-rule:evenodd;fill:#152342;" d="M55.8,59.2h-3.7V40.4h3.7v7c0.9-1.3,2.4-2,4.2-2
			c3.8,0,6.5,3.1,6.5,7.1s-2.7,7.1-6.5,7.1c-1.8,0-3.3-0.8-4.2-2C55.8,57.5,55.8,59.2,55.8,59.2z M59.3,55.8c1.9,0,3.4-1.6,3.4-3.4
			c0-1.9-1.4-3.4-3.4-3.4c-2,0-3.4,1.6-3.4,3.4C55.8,54.3,57.3,55.8,59.3,55.8z M70.5,53.9c0.3,1.6,1.7,2.6,3.6,2.6
			c1.7,0,3.4-0.5,4.6-1.3v3.6c-1.2,0.6-3,1.1-4.9,1.1c-4.1,0-7-2.9-7-7.1c0-4,2.9-7.1,6.8-7.1s6.4,3,6.4,6.5c0,0.6-0.1,1.3-0.2,1.8
			H70.5z M70.5,51.1h5.9c-0.1-1.4-1.2-2.3-2.8-2.3C71.9,48.7,70.7,49.8,70.5,51.1z"/>
		<path style="fill-rule:evenodd;clip-rule:evenodd;fill:#152342;" d="M82,42.9v3h-2.3v3.2h2.1v10.4h3.7V49.1h2.3v-3.2h-2.3v-3.8
			L82,42.9z M23.4,52.4c0,1.5-1.2,2.7-2.7,2.7c-1.5,0-2.7-1.2-2.7-2.7c0-1.5,1.2-2.7,2.7-2.7C22.2,49.7,23.4,50.9,23.4,52.4"/>
		<path style="fill-rule:evenodd;clip-rule:evenodd;fill:#152342;" d="M21,43.9c-1,0-1.9,0.2-2.8,0.5v2.1c0.9-0.4,1.8-0.6,2.8-0.6
			c3.7,0,6.8,3,6.8,6.8c0,0.7-0.1,1.4-0.3,2c-0.9,2.7-3.4,4.7-6.5,4.7h0l0,0h-6.8v0h0v-1.2l0,0v-5.4c0-0.1,0-0.1,0-0.2
			c0-0.1,0-0.1,0-0.2v-5.3c0,0,0,0,0,0V38l-2,2v21.4H21c4.8,0,8.8-3.9,8.8-8.7C29.8,47.9,25.8,43.9,21,43.9"/>
		<g>
			<path style="fill-rule:evenodd;clip-rule:evenodd;fill:#F28C00;" d="M34.1,47.4v-1.5h-3.7v13.6h3.7v-7.9c0.1-1.4,1-2.3,2.3-2.3
				c0.8,0,1.5,0.2,2,0.4v-4c-0.3-0.1-0.8-0.1-1.1-0.1C35.8,45.6,34.8,46.4,34.1,47.4z"/>
			<rect x="38.9" y="45.9" style="fill-rule:evenodd;clip-rule:evenodd;fill:#F28C00;" width="3.7" height="13.6"/>
			<polygon style="fill-rule:evenodd;clip-rule:evenodd;fill:#F28C00;" points="49.1,45.9 49.1,42.1 45.6,42.9 45.6,45.9 43.3,45.9 
				43.3,49.1 45.4,49.1 45.4,59.5 49.1,59.5 49.1,49.1 51.4,49.1 51.4,45.9 			"/>
			<path style="fill-rule:evenodd;clip-rule:evenodd;fill:#F28C00;" d="M40.8,39.8c-1.3,0-2.2,1-2.2,2.2c0,1.2,0.9,2.2,2.2,2.2
				c1.3,0,2.2-1,2.2-2.2C43,40.8,42.1,39.8,40.8,39.8z"/>
			<path style="fill-rule:evenodd;clip-rule:evenodd;fill:#F28C00;" d="M20.9,47c-1.4,0-2.8,0.5-3.8,1.4V35.1l-2,2v11.5v4v5.8H20
				c0.3,0,0.6,0.1,0.9,0.1c3.2,0,5.8-2.6,5.8-5.8C26.7,49.6,24.1,47,20.9,47z M20.9,56.5L20.9,56.5l-2.7,0l-0.1-0.1h-1v-1.3l0,0
				v-2.3h0c0-2.1,1.7-3.8,3.8-3.8c2.1,0,3.8,1.7,3.8,3.8C24.7,54.8,23,56.5,20.9,56.5z"/>
		</g>
		<path style="fill-rule:evenodd;clip-rule:evenodd;fill:#152342;" d="M52.5,64c0.4,0,0.7-0.3,0.7-0.7c0-0.4-0.3-0.7-0.7-0.7
			c-0.4,0-0.7,0.3-0.7,0.7C51.8,63.7,52.1,64,52.5,64z M51.8,64.2h-0.3v-2.8h0.3v1.2c0.1-0.3,0.4-0.4,0.7-0.4c0.6,0,1,0.4,1,1
			c0,0.6-0.4,1-1,1c-0.3,0-0.6-0.2-0.7-0.4C51.8,63.9,51.8,64.2,51.8,64.2z M55.4,62.1l-0.6,1.4l-0.6-1.4h-0.4l0.7,1.8l-0.4,1h0.4
			l1.2-2.8H55.4z M57.7,62.4c0.1-0.2,0.3-0.3,0.5-0.3c0.1,0,0.1,0,0.2,0v0.4c-0.1,0-0.2,0-0.2,0c-0.3,0-0.4,0.2-0.4,0.5v1.2h-0.3v-2
			h0.3C57.7,62.1,57.7,62.4,57.7,62.4z M59.3,63.8c0.2,0,0.4-0.2,0.4-0.4c0-0.2-0.2-0.4-0.4-0.4c-0.2,0-0.4,0.2-0.4,0.4
			C58.9,63.7,59.1,63.8,59.3,63.8L59.3,63.8z M58.8,62.2c0.1-0.1,0.3-0.1,0.6-0.1c0.4,0,0.7,0.2,0.7,0.8v1.2h-0.3v-0.2
			c-0.1,0.2-0.3,0.3-0.5,0.3c-0.4,0-0.7-0.3-0.7-0.7c0-0.4,0.3-0.6,0.7-0.6c0.2,0,0.4,0.1,0.5,0.2v-0.2c0-0.3-0.2-0.4-0.4-0.4
			c-0.2,0-0.4,0.1-0.5,0.2L58.8,62.2L58.8,62.2z M61.8,64c-0.2,0.1-0.3,0.1-0.5,0.1c-0.6,0-1-0.4-1-1c0-0.6,0.4-1,1-1
			c0.2,0,0.4,0.1,0.5,0.1v0.4c-0.1-0.1-0.3-0.2-0.5-0.2c-0.4,0-0.7,0.3-0.7,0.7c0,0.4,0.3,0.7,0.7,0.7c0.2,0,0.4-0.1,0.5-0.2
			C61.8,63.6,61.8,64,61.8,64z M62.1,64.3h0.3v-2h-0.3V64.3z M62.3,61.5c0.1,0,0.2,0.1,0.2,0.2c0,0.1-0.1,0.2-0.2,0.2
			c-0.1,0-0.2-0.1-0.2-0.2c0,0,0,0,0,0C62.1,61.6,62.2,61.5,62.3,61.5z M63.6,62.4c0.1-0.2,0.3-0.4,0.6-0.4c0.4,0,0.7,0.3,0.7,0.8
			v1.2h-0.3v-1.1c0-0.3-0.2-0.5-0.5-0.5c-0.3,0-0.5,0.2-0.5,0.5v1.2h-0.3v-2h0.3C63.6,62.1,63.6,62.4,63.6,62.4z M66,62.4
			c-0.4,0-0.6,0.3-0.6,0.7c0,0.4,0.3,0.7,0.6,0.7c0.4,0,0.7-0.3,0.7-0.7C66.7,62.7,66.4,62.4,66,62.4L66,62.4z M67,62.1v1.8
			c0,0.6-0.4,1-1,1c-0.3,0-0.5-0.1-0.7-0.2v-0.4c0.2,0.1,0.4,0.2,0.7,0.2c0.4,0,0.7-0.3,0.7-0.7v-0.3C66.5,63.9,66.3,64,66,64
			c-0.5,0-0.9-0.4-0.9-1c0-0.6,0.4-1,0.9-1c0.3,0,0.6,0.2,0.7,0.4v-0.4L67,62.1L67,62.1z M68.1,63.8l-0.1,1h0.3l0.2-1H68.1z
			 M70.2,62.6h-0.5v1.7h-0.3v-1.7h-0.3v-0.3h0.3v-0.2c0-0.4,0.2-0.6,0.6-0.6c0.1,0,0.2,0,0.2,0v0.3c-0.1,0-0.1,0-0.2,0
			c-0.2,0-0.3,0.1-0.3,0.3v0.2h0.5C70.2,62.3,70.2,62.6,70.2,62.6z M71.3,63.8c0.4,0,0.7-0.3,0.7-0.7c0-0.4-0.3-0.7-0.7-0.7
			c-0.4,0-0.7,0.3-0.7,0.7C70.6,63.5,70.9,63.8,71.3,63.8 M71.3,62.1c0.6,0,1,0.4,1,1c0,0.6-0.4,1-1,1c-0.6,0-1-0.4-1-1
			C70.3,62.5,70.7,62.1,71.3,62.1 M73.5,62.4c0.1-0.2,0.3-0.3,0.5-0.3c0.1,0,0.1,0,0.2,0v0.4c-0.1,0-0.2,0-0.2,0
			c-0.3,0-0.4,0.2-0.4,0.5v1.2h-0.3v-2h0.3C73.5,62.1,73.5,62.4,73.5,62.4z M75.3,62.4c0.1-0.2,0.3-0.3,0.5-0.3c0.1,0,0.1,0,0.2,0
			v0.4c-0.1,0-0.2,0-0.2,0c-0.3,0-0.4,0.2-0.4,0.5v1.2H75v-2h0.3C75.3,62.1,75.3,62.4,75.3,62.4z M77.5,63.8c0.2,0,0.4-0.2,0.4-0.4
			c0-0.2-0.2-0.4-0.4-0.4c-0.2,0-0.4,0.2-0.4,0.4C77.1,63.7,77.3,63.8,77.5,63.8L77.5,63.8z M76.9,62.2c0.1-0.1,0.3-0.1,0.6-0.1
			c0.4,0,0.7,0.2,0.7,0.8v1.2h-0.3v-0.2c-0.1,0.2-0.3,0.3-0.5,0.3c-0.4,0-0.7-0.3-0.7-0.7c0-0.4,0.3-0.6,0.7-0.6
			c0.2,0,0.4,0.1,0.5,0.2v-0.2c0-0.3-0.2-0.4-0.5-0.4c-0.2,0-0.4,0.1-0.5,0.2L76.9,62.2L76.9,62.2z M80,64c-0.2,0.1-0.3,0.1-0.5,0.1
			c-0.6,0-1-0.4-1-1c0-0.6,0.4-1,1-1c0.2,0,0.4,0.1,0.5,0.1v0.4c-0.1-0.1-0.3-0.2-0.5-0.2c-0.4,0-0.7,0.3-0.7,0.7
			c0,0.4,0.3,0.7,0.7,0.7c0.2,0,0.4-0.1,0.5-0.2C80,63.6,80,64,80,64z M80.3,64.3h0.3v-2h-0.3V64.3z M80.5,61.5
			c0.1,0,0.2,0.1,0.2,0.2c0,0.1-0.1,0.2-0.2,0.2c-0.1,0-0.2-0.1-0.2-0.2c0,0,0,0,0,0C80.3,61.6,80.4,61.5,80.5,61.5z M81.8,62.4
			c0.1-0.2,0.3-0.4,0.6-0.4c0.4,0,0.7,0.3,0.7,0.8v1.2h-0.3v-1.1c0-0.3-0.2-0.5-0.5-0.5c-0.3,0-0.5,0.2-0.5,0.5v1.2h-0.3v-2h0.3
			C81.8,62.1,81.8,62.4,81.8,62.4z M84.2,62.4c-0.4,0-0.6,0.3-0.6,0.7c0,0.4,0.3,0.7,0.6,0.7c0.4,0,0.7-0.3,0.7-0.7
			C84.8,62.7,84.6,62.4,84.2,62.4L84.2,62.4z M85.2,62.1v1.8c0,0.6-0.4,1-1,1c-0.3,0-0.5-0.1-0.7-0.2v-0.4c0.2,0.1,0.4,0.2,0.7,0.2
			c0.4,0,0.7-0.3,0.7-0.7v-0.3c-0.1,0.2-0.4,0.4-0.7,0.4c-0.5,0-0.9-0.4-0.9-1c0-0.6,0.4-1,0.9-1c0.3,0,0.6,0.2,0.7,0.4v-0.4
			L85.2,62.1L85.2,62.1z"/>
	</g>
</g>
</svg>
