<?xml version="1.0" encoding="utf-8"?>
<svg version="1.1" id="Layer_1" xmlns="http://www.w3.org/2000/svg" xmlns:xlink="http://www.w3.org/1999/xlink" x="0px" y="0px"
	 viewBox="0 0 1920 292.71" style="enable-background:new 0 0 1920 292.71;" xml:space="preserve">
<g>
	<path style="fill:#071E48;" d="M1049.3,203.41l12.4-84.34c-9.92-9.92-22.33-14.88-37.21-14.88c-37.21,0-52.09,35.97-52.09,68.22
		c0,28.53,16.12,43.41,39.69,43.41C1025.74,217.05,1039.38,212.09,1049.3,203.41 M1100.16,28.53l-29.77,207.13h-22.33v-13.64
		c-11.16,11.16-26.05,17.36-40.93,17.36c-34.73,0-60.78-23.57-60.78-66.98c0-44.65,22.33-90.54,74.42-90.54
		c16.12-1.24,31.01,4.96,43.41,16.12l9.92-69.46L1100.16,28.53z"/>
	<path style="fill:#071E48;" d="M1133.64,28.53h26.05l-3.72,27.29h-26.05L1133.64,28.53z M1126.2,84.34h26.05l-21.09,151.32h-26.05
		L1126.2,84.34z"/>
	<path style="fill:#071E48;" d="M1270.08,85.58l-4.96,21.09c-6.2-2.48-12.4-3.72-18.6-3.72c-17.36,0-33.49,11.16-39.69,28.53
		l-14.88,104.19h-26.05l21.09-150.08h22.33v21.09c6.2-14.88,21.09-24.81,37.21-24.81C1253.95,80.62,1262.64,81.86,1270.08,85.58"/>
	<path style="fill:#071E48;" d="M1294.88,146.36h76.9c0-2.48,0-6.2,0-8.68c0-22.33-9.92-33.49-32.25-33.49
		C1314.73,104.19,1299.84,122.79,1294.88,146.36 M1292.4,168.68v2.48c0,31.01,16.12,45.89,45.89,45.89
		c17.36,1.24,35.97-6.2,48.37-17.36l-6.2,28.53c-13.64,8.68-29.77,13.64-45.89,12.4c-40.93,0-66.98-23.57-66.98-68.22
		s23.57-89.3,73.18-89.3c39.69,0,57.05,24.81,57.05,58.29c0,9.92-1.24,19.84-3.72,28.53L1292.4,168.68z"/>
	<path style="fill:#071E48;" d="M1415.19,172.4c0-48.37,28.53-91.78,80.62-91.78c14.88,0,28.53,3.72,39.69,11.16l-4.96,21.09
		c-9.92-6.2-22.33-9.92-34.73-9.92c-37.21,0-54.57,33.49-54.57,69.46c0,31.01,17.36,45.89,43.41,45.89c12.4,0,23.57-2.48,34.73-9.92
		l-4.96,24.81c-8.68,4.96-19.84,7.44-29.77,7.44C1441.24,239.38,1415.19,215.81,1415.19,172.4"/>
	<path style="fill:#071E48;" d="M1571.47,177.36c-1.24,6.2-1.24,13.64-2.48,21.09c0,12.4,7.44,18.6,21.09,18.6
		c9.92,0,21.09-2.48,29.77-7.44l-4.96,24.81c-8.68,3.72-17.36,6.2-27.29,6.2c-26.05,0-44.65-11.16-44.65-40.93
		c0-7.44,1.24-13.64,2.48-21.09l17.36-130.23l26.05-3.72l-6.2,40.93h52.09l-4.96,21.09h-49.61L1571.47,177.36z"/>
	<path style="fill:#E80413;" d="M28.53,28.53H70.7L42.17,235.66H0L28.53,28.53z"/>
	<path style="fill:#E80413;" d="M204.65,125.27c0,4.96,0,9.92-1.24,14.88l-8.68,57.05c-1.24,8.68-2.48,18.6-2.48,27.29
		c0,3.72,0,6.2,0,11.16h-39.69c-1.24-4.96-1.24-9.92-1.24-13.64c-11.16,11.16-26.05,18.6-42.17,18.6
		c-28.53,0-45.89-17.36-45.89-42.17s16.12-42.17,50.85-50.85l27.29-6.2c16.12-3.72,21.09-6.2,21.09-13.64l0,0
		c0-9.92-8.68-13.64-27.29-13.64s-38.45,4.96-55.81,12.4l9.92-34.73c16.12-6.2,33.49-9.92,52.09-9.92
		C183.57,80.62,204.65,96.74,204.65,125.27z M155.04,195.97l4.96-33.49c-3.72,1.24-7.44,2.48-11.16,3.72l-21.09,4.96
		c-16.12,3.72-23.57,9.92-23.57,22.33c0,12.4,7.44,16.12,19.84,16.12C135.19,209.61,146.36,204.65,155.04,195.97L155.04,195.97z"/>
	<path style="fill:#E80413;" d="M372.09,148.84c0,45.89-23.57,90.54-76.9,90.54c-14.88,1.24-29.77-4.96-39.69-14.88l-9.92,66.98
		h-42.17l29.77-207.13h37.21V95.5c9.92-11.16,24.81-16.12,39.69-16.12C346.05,80.62,372.09,105.43,372.09,148.84z M329.92,148.84
		c0-23.57-13.64-35.97-31.01-35.97c-9.92,0-19.84,2.48-28.53,8.68l-9.92,73.18c7.44,8.68,18.6,12.4,29.77,12.4
		C320,207.13,329.92,174.88,329.92,148.84z"/>
	<path style="fill:#E80413;" d="M429.15,172.4c-1.24,6.2-1.24,11.16-1.24,17.36c0,9.92,6.2,16.12,18.6,16.12
		c8.68,0,17.36-1.24,24.81-4.96l-7.44,33.49c-8.68,2.48-17.36,3.72-26.05,3.72c-35.97,0-53.33-16.12-53.33-48.37
		c0-6.2,1.24-12.4,1.24-18.6L403.1,49.61l43.41-4.96l-4.96,39.69h45.89l-8.68,29.77h-40.93L429.15,172.4z"/>
	<path style="fill:#E80413;" d="M481.24,172.4c0-45.89,23.57-91.78,81.86-91.78c45.89,0,71.94,27.29,71.94,68.22
		c0,47.13-23.57,91.78-81.86,91.78C507.29,240.62,481.24,213.33,481.24,172.4z M591.63,147.6c0-23.57-9.92-34.73-28.53-34.73
		c-28.53,0-38.45,33.49-38.45,59.53c0,23.57,11.16,34.73,28.53,34.73C581.71,207.13,591.63,174.88,591.63,147.6z"/>
	<path style="fill:#E80413;" d="M801.24,148.84c0,45.89-23.57,90.54-76.9,90.54c-14.88,1.24-29.77-4.96-39.69-14.88l-9.92,66.98
		h-42.17l29.77-207.13h37.21V95.5c9.92-11.16,24.81-16.12,38.45-16.12C775.19,80.62,801.24,105.43,801.24,148.84z M759.07,148.84
		c0-23.57-13.64-35.97-31.01-35.97c-9.92,0-19.84,2.48-28.53,8.68l-9.92,73.18c7.44,8.68,18.6,12.4,28.53,12.4
		C749.15,207.13,759.07,174.88,759.07,148.84z"/>
	<path style="fill:#E80413;" d="M886.82,194.73c0-7.44-3.72-11.16-17.36-16.12l-18.6-7.44c-23.57-9.92-34.73-22.33-34.73-43.41
		c0-27.29,21.09-47.13,64.5-47.13c19.84,0,39.69,4.96,57.05,14.88l-7.44,29.77c-14.88-7.44-31.01-12.4-48.37-13.64
		c-14.88,0-22.33,4.96-22.33,13.64s3.72,11.16,14.88,14.88l19.84,8.68c24.81,9.92,35.97,21.09,35.97,44.65s-18.6,47.13-64.5,47.13
		c-21.09,0-42.17-6.2-60.78-17.36l8.68-31.01c16.12,9.92,33.49,14.88,53.33,14.88C880.62,208.37,886.82,203.41,886.82,194.73z"/>
	<polygon style="fill:#071E48;" points="1635.97,291.47 1637.21,291.47 1782.33,146.36 	"/>
	<polygon style="fill:#071E48;" points="1773.64,291.47 1637.21,291.47 1635.97,292.71 1773.64,292.71 1920,146.36 	"/>
	<polygon style="fill:#071E48;" points="1773.64,0 1635.97,0 1782.33,146.36 1920,146.36 	"/>
	<polygon style="fill:#E80413;" points="1920,146.36 1782.33,146.36 1637.21,291.47 1773.64,291.47 	"/>
</g>
</svg>
