<?xml version="1.0" encoding="utf-8"?>
<!-- Generator: Adobe Illustrator 24.2.1, SVG Export Plug-In . SVG Version: 6.00 Build 0)  -->
<svg version="1.1"
	 id="svg2386" inkscape:output_extension="org.inkscape.output.svg.inkscape" inkscape:version="0.48.4 r9939" sodipodi:docname="TfL_mark.svg" sodipodi:version="0.32" xmlns:cc="http://creativecommons.org/ns#" xmlns:dc="http://purl.org/dc/elements/1.1/" xmlns:inkscape="http://www.inkscape.org/namespaces/inkscape" xmlns:rdf="http://www.w3.org/1999/02/22-rdf-syntax-ns#" xmlns:sodipodi="http://sodipodi.sourceforge.net/DTD/sodipodi-0.dtd" xmlns:svg="http://www.w3.org/2000/svg"
	 xmlns="http://www.w3.org/2000/svg" xmlns:xlink="http://www.w3.org/1999/xlink" x="0px" y="0px" viewBox="0 0 329 265.3"
	 style="enable-background:new 0 0 329 265.3;" xml:space="preserve">
<style type="text/css">
	.st0{fill:#003888;}
</style>
<defs>
	
		<inkscape:perspective  id="perspective2394" inkscape:persp3d-origin="372.04724 : 350.78739 : 1" inkscape:vp_x="0 : 526.18109 : 1" inkscape:vp_y="0 : 1000 : 0" inkscape:vp_z="744.09448 : 526.18109 : 1" sodipodi:type="inkscape:persp3d">
		</inkscape:perspective>
	
		<inkscape:perspective  id="perspective2403" inkscape:persp3d-origin="372.04724 : 350.78739 : 1" inkscape:vp_x="0 : 526.18109 : 1" inkscape:vp_y="0 : 1000 : 0" inkscape:vp_z="744.09448 : 526.18109 : 1" sodipodi:type="inkscape:persp3d">
		</inkscape:perspective>
</defs>
<sodipodi:namedview  bordercolor="#666666" borderopacity="1.0" id="base" inkscape:current-layer="layer1" inkscape:cx="955.46345" inkscape:cy="380.59458" inkscape:document-units="px" inkscape:pageopacity="0.0" inkscape:pageshadow="2" inkscape:window-height="750" inkscape:window-width="1280" inkscape:window-x="-8" inkscape:window-y="-8" inkscape:zoom="0.35" pagecolor="#ffffff" showgrid="false">
	</sodipodi:namedview>
<g>
	<path class="st0" d="M311.8,105.4l-17.3,0l-1.6-6.7c-9.9-41-43.9-77.5-85.3-91.7c-26.3-9-58-9.2-84.5-0.6
		C79.7,20.5,46.3,56.5,35,101.1l-1.1,4.3H0v55h17c12.8,0,17.1,0.3,17.4,1.3c0.2,0.7,1.4,5,2.7,9.7c3,11.2,12.3,29.7,20,40.1
		c20.2,27.3,51.7,46.9,84,52.3c11.8,2,34.4,2,46,0c28.1-4.8,52.1-17.6,72.6-38.7c11-11.4,19.4-23.2,25.2-35.9
		c3.9-8.5,9.1-23.9,9.1-27.1c0-1.5,1.7-1.7,17.5-1.7H329v-55L311.8,105.4z M243.1,167.5c-11.3,26.8-38.8,47-69.1,50.8
		c-9.3,1.2-10.8,1.2-19.6,0c-30.2-4-55.1-22-68.1-49.3c-2-4.2-3.4-7.9-3.2-8.2c0.3-0.3,37-0.3,81.6-0.2l81.1,0.3L243.1,167.5z
		 M164.4,105.4H82.9l0.7-2.3c0.4-1.2,2-5,3.7-8.3c11.4-22.9,31.1-38.8,56.2-45.6c11.2-3,30.6-3,42,0c25.8,6.9,46.7,24.6,57.6,48.8
		c1.6,3.5,2.9,6.5,2.9,6.8C246,105.1,209.3,105.4,164.4,105.4z"/>
</g>
</svg>
