<?xml version="1.0" encoding="utf-8"?>
<svg version="1.1" id="Layer_1" xmlns="http://www.w3.org/2000/svg" xmlns:xlink="http://www.w3.org/1999/xlink" x="0px" y="0px"
	 viewBox="0 0 1006 261" style="enable-background:new 0 0 1006 261;" xml:space="preserve">
<g>
	<polygon points="0,261 0,69 190,69 190,118 56,118 56,147 190,147 190,192 56,192 56,261 	"/>
	<polygon points="199,69 252,69 252,211 352,211 461,0 567,211 620,211 620,69 811,69 811,118 669,118 669,261 538,261 462,101 
		381,261 199,261 	"/>
	<polygon points="821,69 1006,69 1006,116 871,116 871,139 1006,139 1006,189 871,189 871,218 1006,218 1006,261 821,261 	"/>
</g>
</svg>
