<?xml version="1.0"?>
<svg xmlns="http://www.w3.org/2000/svg" xmlns:xlink="http://www.w3.org/1999/xlink" xmlns:svgjs="http://svgjs.com/svgjs" version="1.1" width="512" height="512" x="0" y="0" viewBox="0 0 512 512" style="enable-background:new 0 0 512 512" xml:space="preserve" class=""><g><g xmlns="http://www.w3.org/2000/svg"><circle cx="256" cy="256" fill="#f1f1f1" r="256" data-original="#c774f0" style="" class=""/><path d="m410.977 175.91-12.618 12.618-49.223-49.223-108.504 108.504-41.906-41.906-105.892 105.892 42.927 42.928-6.499 6.499 149.74 149.738c123.978-11.043 222.529-110.449 232.212-234.813z" fill="#f1f1f1" data-original="#9f4ad4" style="" class=""/><path d="m92.834 139.305v172.489h47.343l33.465 8.609h47.343l19.947-94.089-19.947-87.009z" fill="#8cc7fc" data-original="#8cc7fc" style="" class=""/><path d="m439.167 311.794h-32.24l-28.255 8.609h-31.768v-144.493h64.071l4.531 15-3.565 32.545 27.226 32.545z" fill="#cdd2e1" data-original="#cdd2e1" style=""/><path d="m415.506 190.91h-35.873v65.09h59.534z" fill="#6cb1f8" data-original="#6cb1f8" style="" class=""/><circle cx="392.896" cy="333.653" fill="#333940" r="39.042" data-original="#333940" style=""/><circle cx="392.896" cy="333.653" fill="#e9edf5" r="16.732" data-original="#e9edf5" style="" class=""/><path d="m220.985 139.305h128.15v181.099h-128.15z" fill="#6cb1f8" data-original="#6cb1f8" style="" class=""/><circle cx="156.91" cy="333.653" fill="#555a65" r="39.042" data-original="#555a65" style="" class=""/><circle cx="156.91" cy="333.653" fill="#ffffff" r="16.732" data-original="#ffffff" style="" class=""/><g><path d="m212.814 184.627c0 4.512 3.658 8.17 8.17 8.17l2.977-8.17-2.977-8.17c-4.512 0-8.17 3.658-8.17 8.17z" fill="#ffffff" data-original="#ffffff" style="" class=""/><path d="m229.155 184.627c0-4.512-3.658-8.17-8.17-8.17v16.341c4.512-.001 8.17-3.659 8.17-8.171z" fill="#e9edf5" data-original="#e9edf5" style="" class=""/><path d="m220.985 190.277c-35.963 0-65.117 23.687-65.117 52.907h65.117l5.863-26.454z" fill="#e9edf5" data-original="#e9edf5" style="" class=""/><path d="m286.101 243.184c0-29.22-29.154-52.907-65.117-52.907v52.907z" fill="#cdd2e1" data-original="#cdd2e1" style=""/><path d="m147.451 241.118v16.341h73.534l3.484-8.17-3.484-8.171z" fill="#ffffff" data-original="#ffffff" style="" class=""/><path d="m220.985 241.118h73.533v16.341h-73.533z" fill="#e9edf5" data-original="#e9edf5" style="" class=""/></g></g></g></svg>
