<?xml version="1.0" encoding="utf-8"?>
<svg version="1.1" id="Layer_1" xmlns="http://www.w3.org/2000/svg" xmlns:xlink="http://www.w3.org/1999/xlink" x="0px" y="0px"
	 viewBox="0 0 854.5 538.9" style="enable-background:new 0 0 854.5 538.9;" xml:space="preserve">
<g>
	<path d="M854.5,0H315.6v538.9h538.9V0z M292.5,0h-84.7v538.9h84.7V0z M146.3,0h-38.5v538.9h38.5V0z M23.1,0H0v538.9h23.1L23.1,0
		L23.1,0z"/>
	<path style="fill:#FFFFFF;" d="M442,97.4h9.8V156c0,6.7-0.3,13.9-5.1,19c-2.4,2.4-5.2,4-8.6,4.6l-9-9c2.7,0,5.4,0.2,7.9-0.8
		c1.7-0.6,3-1.9,3.6-3.6c1-1.7,1.3-5.7,1.3-11.2L442,97.4L442,97.4z M517.5,105.6c-7.8,0-14.3,2.4-19.3,7.3
		c-5.1,4.9-7.6,11.1-7.6,18.8c0,7.4,2.5,13.5,7.6,18.4s11.4,7.3,19,7.3c7.6,0,13.9-2.5,19.2-7.4c5.1-5.1,7.6-11.2,7.6-18.7
		c0-7.3-2.5-13.3-7.6-18.4C531.3,108.2,525,105.6,517.5,105.6 M517.2,96.4c10.6,0,19.5,3.3,26.4,10c7,6.7,10.6,15,10.6,25.2
		s-3.5,18.5-10.6,25c-7.1,6.7-16,10-26.9,10c-10.3,0-18.8-3.3-25.8-10c-6.8-6.7-10.3-14.9-10.3-24.9c0-10.3,3.5-18.7,10.5-25.3
		C498,99.8,506.6,96.4,517.2,96.4 M642.5,165.8h-9.8V136h-40.1v29.8h-9.8V97.4h9.8v29.8h40.1V97.4h9.8V165.8z M742.9,165.8h-8.4
		l-47.8-52.7v52.7h-9.2V97.4h7.9l48.3,53.2V97.4h9.3v68.4H742.9z M443.9,313.1v-8.9h-32.3v-60h-9.8v68.9H443.9z M521.5,313.1v-8.9
		h-34.5v-21.4h32.5V274h-32.6v-20.7h33.6v-8.9h-43.5v68.9L521.5,313.1L521.5,313.1z M607,244.2h-9.3l-19,47.5l-19-47.5h-9.8
		l27.9,69.5h1.9l22.8-56.4l22.6,56.4h1.9l28-69.5h-9.8l-18.8,47.5L607,244.2z M694.6,244.2h-10v68.9h10V244.2z M750.1,284.4
		l-7.4-4.6c-4.8-2.9-7.6-5.7-9.8-8.4c-2.2-2.7-3.3-6.2-3.3-9.8c0-5.4,1.9-9.8,5.7-13.1c3.8-3.3,8.7-5.1,14.7-5.1
		c6.3,0,11.1,1.6,15.8,4.9v11.2c-4.9-4.8-10.3-7.1-16-7.1c-3.2,0-5.9,0.8-7.9,2.2c-2.1,1.4-3.2,3.5-3.2,5.7c0,2.1,0.5,3.8,2.1,5.5
		s4.3,4,7.6,5.9l7.8,4.4c8.4,5.1,12.4,11.4,12.4,19.2c0,5.5-1.9,10.1-5.5,13.5c-3.6,3.5-8.4,5.2-14.4,5.2
		c-6.8-0.2-12.8-2.1-18.5-6.3v-12.5c5.4,6.8,11.6,10,18.5,10c3.2,0,5.7-0.8,7.8-2.4c2.1-1.7,3.2-3.8,3.2-6.5
		C759.3,292.2,756.3,288.2,750.1,284.4 M408.7,397.2c0,0.8,0.3,1.7,1,2.9c0.6,1.1,1.4,2.1,2.2,2.9c1.3-0.8,2.4-1.6,3.2-2.4
		s1.1-1.7,1.1-2.9c0-1-0.3-1.9-1.1-2.5c-0.7-0.6-1.7-1-2.7-1c-1,0-1.9,0.3-2.5,1C409,395.4,408.7,396.2,408.7,397.2 M404.3,416.3
		c0,1.2,0.5,2.3,1.4,3c1,0.8,2.1,1.3,3.3,1.3c2.2,0,4.4-1.1,6.8-3.2l-6.3-7.1c-1.6,1-2.9,1.9-3.6,2.9
		C404.8,414.3,404.3,415.2,404.3,416.3 M412.5,388.4c2.9,0,5.2,0.8,7.1,2.4c1.9,1.6,2.9,3.6,2.9,6.2c0,1.7-0.6,3.5-1.7,5.1
		s-2.9,3.2-5.2,4.6l5.1,5.9c1.6-1.6,2.9-3.5,4.1-5.9h6.8c-1.7,4.3-4.1,7.8-6.8,10.5l7.4,8.4h-9.3l-3.5-4c-1.9,1.6-3.6,2.7-5.4,3.3
		s-3.8,1.1-6.3,1.1c-3,0-5.5-1-7.6-2.7c-2.1-1.7-3.2-4.1-3.2-6.7c0-2.2,0.8-4.1,2.2-5.9s3.6-3.3,6.3-4.8c-1.1-1.4-2.1-2.9-2.9-4.4
		c-0.6-1.3-1-2.7-1-4.1c0-2.7,1-4.9,3-6.7C407,389.2,409.5,388.4,412.5,388.4 M470.2,404.4c1.9,0,3.5-0.5,4.4-1.3
		c1.1-1,1.6-2.2,1.6-4c0-3.5-2.2-5.2-6.7-5.2h-4.9v10.5L470.2,404.4L470.2,404.4z M471.9,388.4c3.5,0,6.3,1,8.6,3
		c2.2,2.1,3.3,4.6,3.3,7.8s-1.1,5.9-3.3,7.8c-2.2,2.1-5.1,3-8.7,3h-7v15.7h-7.3v-37.4h14.4V388.4z M501.8,411.3h12l-6.3-14.7
		L501.8,411.3z M511.3,388.4l16.5,37.4h-7.6l-3.8-9h-16.6l-3.6,9h-7.6l15.4-37.4H511.3L511.3,388.4z M549.2,404.3
		c1.9,0,3.3-0.5,4.4-1.4c1.1-1,1.6-2.2,1.6-3.8c0-1.7-0.5-3-1.6-3.8s-2.5-1.3-4.6-1.3h-4.4v10.5h4.6V404.3z M550.8,388.4
		c3.5,0,6.3,1,8.6,2.9c2.2,1.9,3.3,4.4,3.3,7.6c0,2.1-0.5,4-1.6,5.5c-1.1,1.6-2.7,2.9-4.9,3.6c1.3,0.6,2.2,1.6,3.2,2.7
		c1,1.1,2.1,3,3.5,5.5c2.2,4.6,4,7.6,5.1,9.3h-8.1c-0.6-0.8-1.3-2.1-2.2-4c-2.1-4-3.6-6.7-4.6-8.1c-1-1.4-1.9-2.4-2.9-3
		c-1-0.6-1.9-1-3-1h-2.7v15.8h-7.3v-37.4L550.8,388.4L550.8,388.4z M594,394.2v31.7h-7.3v-31.7h-13.3v-5.7h33.7v5.7H594z
		 M647.5,388.4h7v37.4h-6.2L626,399.4v26.4h-7.1v-37.4h6.3l22.2,26v-26H647.5z M676.8,394.2v9.8H693v5.7h-16.2v10.6h17.3v5.7h-24.5
		v-37.4h24.1v5.7L676.8,394.2L676.8,394.2z M719.9,404.3c1.9,0,3.3-0.5,4.4-1.4c1.1-1,1.6-2.2,1.6-3.8c0-1.7-0.5-3-1.6-3.8
		s-2.5-1.3-4.6-1.3h-4.4v10.5h4.6V404.3z M721.5,388.4c3.5,0,6.3,1,8.6,2.9c2.2,1.9,3.3,4.4,3.3,7.6c0,2.1-0.5,4-1.6,5.5
		c-1.1,1.6-2.7,2.9-4.9,3.6c1.3,0.6,2.2,1.6,3.2,2.7c1,1.1,2.1,3,3.5,5.5c2.2,4.6,4,7.6,5.1,9.3h-8.1c-0.6-0.8-1.3-2.1-2.2-4
		c-2.1-4-3.6-6.7-4.6-8.1s-1.9-2.4-2.9-3c-1-0.6-1.9-1-3-1h-2.7v15.8h-7.3v-37.4L721.5,388.4L721.5,388.4z M760.3,388
		c3.6,0,7.1,1,10.5,2.7v6.3c-3.8-2.4-7.3-3.5-10.3-3.5c-1.7,0-3.2,0.3-4.3,1.1c-1,0.6-1.6,1.6-1.6,2.9c0,1.4,1,2.7,2.9,4
		c0.5,0.3,2.5,1.4,6.2,3c3,1.4,5.2,3,6.7,4.8c1.4,1.7,2.1,4,2.1,6.3c0,3.2-1.1,5.9-3.5,7.8s-5.2,3-9,3c-2.4,0-4.4-0.3-6.2-0.8
		c-1.7-0.5-3.6-1.4-5.7-2.7v-7.1c4,3.3,7.8,4.9,11.2,4.9c1.7,0,3.2-0.3,4.3-1.1c1.1-0.8,1.6-1.7,1.6-3c0-1.7-1-3.2-2.9-4.3
		c-1.6-0.8-3.6-1.9-6-3c-3-1.3-5.1-2.9-6.7-4.8c-1.4-1.7-2.2-3.8-2.2-6.2c0-3.2,1.1-5.7,3.5-7.4C753.3,388.9,756.3,388,760.3,388"/>
</g>
</svg>
