<?xml version="1.0"?>
<svg xmlns="http://www.w3.org/2000/svg" xmlns:xlink="http://www.w3.org/1999/xlink" xmlns:svgjs="http://svgjs.com/svgjs" version="1.1" width="512" height="512" x="0" y="0" viewBox="0 0 512 512" style="enable-background:new 0 0 512 512" xml:space="preserve" class=""><g><g xmlns="http://www.w3.org/2000/svg"><g><g><g id="XMLID_1633_"><g id="XMLID_1634_"><g id="XMLID_1635_"><g id="XMLID_1636_"><g id="XMLID_1637_"><g id="XMLID_1638_"><g id="XMLID_1639_"><g id="XMLID_1640_"><g id="XMLID_1641_"><g id="XMLID_1642_"><g id="XMLID_1643_"><g id="XMLID_1644_"><g id="XMLID_1645_"><g id="XMLID_1649_"><g id="XMLID_1650_"><circle cx="256" cy="256" fill="#f1f1f1" r="256" data-original="#43e9ff" style="" class=""/></g></g></g></g></g></g></g></g></g></g></g></g></g></g></g></g></g><path d="m512 256c0-29.019-4.837-56.906-13.734-82.91l-50.787-50.787-375.73 180.59 81.61 81.76-55.887 34.957 80.149 80.149c24.704 7.938 51.037 12.241 78.379 12.241 141.385 0 256-114.615 256-256z" fill="#f1f1f1" data-original="#19c4e0" style="" class=""/><path d="m404.65 315.826h-297.3c-30.67 0-55.763-25.093-55.763-55.763v-102.159c0-30.67 25.093-55.763 55.763-55.763h297.3c30.67 0 55.763 25.093 55.763 55.763v102.159c0 30.67-25.094 55.763-55.763 55.763z" fill="#ff6b6b" data-original="#ff6b6b" style="" class=""/><path d="m460.41 157.9v102.16c0 30.67-25.09 55.77-55.76 55.77h-148.65v-213.69h148.65c30.67 0 55.76 25.09 55.76 55.76z" fill="#ea1c81" data-original="#ea1c81" style="" class=""/><g><path d="m256 287.839-146.051 51.973 33.66 33.66-46.137 46.138 26.756 26.757 46.138-46.138 33.66 33.66z" fill="#474d54" data-original="#474d54" style=""/><path d="m204.026 433.897-33.662-33.662-46.137 46.137-13.38-13.38 144.503-144.503-.309-.309.958-.34z" fill="#33373a" data-original="#33373a" style=""/></g><g><path d="m187.41 204.291c4.044-4.924 6.476-11.221 6.476-18.075 0-15.729-12.796-28.525-28.525-28.525h-33.951v41.385 15.792 48.421l7.879-.035s24.012-.106 30.631-.106c17.664 0 32.036-14.371 32.036-32.036 0-11.215-5.797-21.096-14.546-26.821zm-40.311-30.911h18.262c7.077 0 12.836 5.759 12.836 12.836s-5.759 12.835-12.836 12.835c-1.929 0-5.573.01-9.539.024h-8.723zm22.822 74.079c-4.161 0-15.184.042-22.821.073v-32.733c2.733-.011 5.852-.023 8.791-.034h14.031c9.014 0 16.347 7.334 16.347 16.348-.002 9.013-7.335 16.346-16.348 16.346z" fill="#ffffff" data-original="#ffffff" style=""/><path d="m392.034 163.469-13.148-8.559-26.189 40.228-26.417-40.459-13.136 8.576 31.714 48.573-.126 51.406 15.689.039.125-51.436z" fill="#e5e5e5" data-original="#e5e5e5" style=""/><path d="m281.406 227.313c0 4.867-1.308 11.995-12.622 17.692-3.373 1.699-7.163 2.56-11.268 2.56-.013 0-.027 0-.041 0-4.566-.006-8.723-1.185-12.352-3.503-7.443-4.756-10.479-9.589-10.479-16.683v-69.688h-15.689v69.688c0 12.503 5.797 22.284 17.721 29.904 6.187 3.952 13.177 5.961 20.777 5.971h.063c6.577 0 12.741-1.425 18.323-4.236 17.567-8.845 21.255-22.124 21.255-31.705v-69.623h-15.689v69.623z" fill="#ffffff" data-original="#ffffff" style=""/><path d="m297.09 157.69v69.62c0 9.58-3.68 22.86-21.25 31.71-5.58 2.81-11.75 4.23-18.32 4.23h-.07c-.49 0-.97-.01-1.45-.03v-15.71c.48.04.97.05 1.47.05h.05c4.1 0 7.89-.86 11.26-2.55 11.32-5.7 12.63-12.83 12.63-17.7v-69.62z" fill="#e5e5e5" data-original="#e5e5e5" style=""/></g></g></g></svg>
