<svg xmlns="http://www.w3.org/2000/svg" viewBox="0 0 697.37 192.31"><path d="M1.95 169.08h2.19a59.66 59.66 0 0 0 6.82 11.55c4.04 5.88 10.77 9.32 17.9 9.15a23.23 23.23 0 0 0 15.4-5.34 16.4 16.4 0 0 0 6.37-13c0-7.04-5.71-11.9-17.13-14.58l-12.88-3.1C8.43 150.7 2.34 143.54 2.33 132.29c0-7.43 2.38-13.43 7.15-18s11.01-6.84 18.74-6.83c4.29-.05 8.54.73 12.54 2.28 2.35 1 4.6 2.23 6.7 3.68l3.87-4.95h2.57v21.28l-2.19-.12c-1.37-6.25-4.09-11.18-8.18-14.8-4.02-3.61-9.27-5.56-14.67-5.44a20.11 20.11 0 0 0-12.68 4.36c-3.74 2.91-5.61 6.24-5.61 10 .05 2.87 1.29 5.59 3.42 7.51a16.28 16.28 0 0 0 8.43 4.42l14.56 2.86c4.68.68 9.11 2.54 12.88 5.39a23.53 23.53 0 0 1 7.21 9c1.73 3.51 2.65 7.37 2.69 11.28-.06 3.36-.74 6.69-2 9.81-1.3 3.42-3.12 6.61-5.41 9.46-4.9 5.89-12.29 8.84-22.16 8.83a31.72 31.72 0 0 1-12.43-2.38c-2.75-1.16-5.31-2.72-7.6-4.64l-4.9 5.87H3.07l-1.12-22.08zm121.58-21.39A38.49 38.49 0 0 1 135.7 119c7.82-7.74 18.43-11.99 29.43-11.79 12.54 0 22.67 4.33 30.4 13 3.52 4.04 6.31 8.67 8.23 13.68a40.47 40.47 0 0 1 3.22 14.95c0 11.73-4.23 21.91-12.68 30.53s-18.45 12.93-30 12.94c-11.08 0-20.65-4.26-28.72-12.77-7.9-8.07-12.25-18.95-12.11-30.24l.06-1.61zm20.48-1.61v1.49a229.38 229.38 0 0 0 1.16 25c.42 3.77 1.64 7.4 3.59 10.65 1.65 2.39 3.92 4.3 6.56 5.52 2.94 1.4 6.16 2.11 9.41 2.07 4.35.08 8.63-1.12 12.3-3.45 3.37-2.06 5.9-5.25 7.15-9 .58-2.16 1.03-4.34 1.35-6.55a61.14 61.14 0 0 0 .58-8.86l.38-14.72c0-6.05-.13-11.12-.38-15.23-.16-3.53-.61-7.04-1.35-10.5-1.03-5.13-3.52-8.84-7.47-11.15-3.01-1.76-7.04-2.64-12.11-2.65-5.24 0-9.33 1-12.3 3s-5.17 5.26-6.63 9.78c-.63 1.72-1.13 3.49-1.48 5.29a35.18 35.18 0 0 0-.45 6.32l-.07 5.75-.24 7.24zm120.5 45.08v-2h10.25v-79h-10.25v-2h45.93c7.65 0 13.81 1.76 18.48 5.27 4.49 3.16 7.11 8.34 7 13.82 0 4.55-1.22 8.27-3.65 11.16s-6.4 5.33-11.9 7.34c-3.42 1.29-6.98 2.17-10.61 2.63 3.73.52 7.38 1.48 10.88 2.87 8.85 3.44 13.28 12.35 13.28 26.72 0 4.43.42 7.41 1.25 8.94s2.45 2.3 4.85 2.29a9.32 9.32 0 0 0 1.67-.12c.68-.22 1.32-.52 1.92-.91l.71 1.72a30.04 30.04 0 0 1-10.52 2c-3.81.12-7.58-.85-10.86-2.81-2.88-1.73-4.96-4.51-5.81-7.76a54.35 54.35 0 0 1-1.37-7.48 72.55 72.55 0 0 1-.66-9.08c0-10.89-5.02-16.33-15.07-16.33h-8.37v40.82h10.29v2l-37.44-.09zm27.15-81v36.22h11.36c5.42 0 9.35-1.4 11.78-4.19s3.65-7.26 3.65-13.4c.13-3.38-.21-6.77-1-10.06-.69-2.28-2.04-4.3-3.88-5.81a14.33 14.33 0 0 0-3.65-2.07c-1.44-.49-2.96-.73-4.49-.69h-13.77zm102.21 81v-2h11.08v-79h-11.08v-2h44.44c8.33 0 15.24 1.96 20.73 5.87s8.24 8.86 8.25 14.83c.12 5.12-2.26 9.97-6.38 13-4.25 3.33-10.45 5.4-18.61 6.21 4.14.51 8.24 1.35 12.24 2.53 4.52 1.25 8.58 3.76 11.72 7.24a17.29 17.29 0 0 1 4.25 11.62c0 6.67-2.94 11.94-8.83 15.81s-13.89 5.81-24 5.81l-43.81.08zm29.24-81v37h9.27c6.1 0 10.24-1.44 12.43-4.31s3.28-8.26 3.29-16.16a29.98 29.98 0 0 0-.91-8.28 10.64 10.64 0 0 0-3.09-4.95c-2.92-2.22-6.5-3.39-10.17-3.33l-10.82.03zm0 39v40h10.82c5.58 0 9.66-1.61 12.23-4.83s3.86-8.43 3.87-15.64c0-9.58-2.4-15.41-7.21-17.48a22.81 22.81 0 0 0-10.06-2.03l-9.65-.02zm100.85 42v-2h11.08v-79h-11.08v-2h40.31v2H553.2v79h11.07v2h-40.31zm99.43 0v-2h11.08v-79h-11.08v-2h69l1.16 22.54h-2.19c-.36-2.06-.95-4.07-1.74-6-.94-2.09-2.08-4.07-3.41-5.93a23.74 23.74 0 0 0-6.83-6.49 15.73 15.73 0 0 0-8.12-2.13h-18.63v38.23h1.8c2.59.07 5.17-.08 7.73-.46a10.55 10.55 0 0 0 4.38-2.07c1.91-1.41 3.42-3.29 4.38-5.46a20.81 20.81 0 0 0 1.54-8.57h2.19v35.19h-2.19c0-6-1.35-10.28-4.05-12.85s-7.19-3.84-13.46-3.83h-2.32v38.87h18.29c3.43-.07 6.79-.97 9.79-2.64a23.64 23.64 0 0 0 8.11-6.79c1.33-2.07 2.45-4.26 3.35-6.55.96-2.58 1.69-5.23 2.19-7.94h2.06l-1.16 25.88h-71.87zM58.76.88v4.39H32.14v63.81h-5.53V5.27H0V.88h58.76zm78.36 0h18.18c7.61 0 13.44 1.59 17.47 4.76a15.53 15.53 0 0 1 6 12.87c0 7.88-4.5 13.41-13.51 16.6 2.34 1.07 5.49 4.54 9.45 10.4l16.05 23.57h-6.49l-12.36-18.69c-4.13-6.25-7.34-10.15-9.64-11.7s-5.67-2.33-10.1-2.32h-9.6v32.71h-5.48l.03-68.2zm5.48 4.39v26.71h11.78c6 0 10.58-1.16 13.74-3.49a12.53 12.53 0 0 0 2.05-17.59 12.15 12.15 0 0 0-2.13-2.11c-3.21-2.34-7.84-3.52-13.86-3.52H142.6zM305.21.88v4.39H272v27.3h32.35v4.44H272V64.7h34v4.38h-39.5V.88h38.71zm130.98 0l-29.73 68.9h-1.62L375 .88h5.55l25.14 57.72 25-57.72h5.5zM539.57 0c10.49 0 19.38 3.39 26.68 10.18 13.7 12.49 14.68 33.73 2.19 47.42-.69.76-1.42 1.49-2.19 2.19-7.29 6.79-16.18 10.19-26.68 10.18s-19.36-3.4-26.59-10.18c-13.7-12.6-14.59-33.92-1.99-47.62.64-.69 1.3-1.36 1.99-1.99C520.24 3.39 529.1-.01 539.57 0zm.19 65.08c8.32.2 16.38-2.94 22.37-8.72 11.81-11.34 12.19-30.11.85-41.92a34.06 34.06 0 0 0-.85-.85c-5.99-5.78-14.05-8.91-22.37-8.71-8.37-.19-16.47 2.94-22.52 8.72-11.81 11.15-12.35 29.76-1.2 41.57.39.41.79.81 1.2 1.2a31.56 31.56 0 0 0 22.52 8.71zM643.69.88h18.18c7.62 0 13.44 1.59 17.47 4.76 3.96 3.07 6.2 7.86 6 12.87 0 7.88-4.5 13.41-13.5 16.6 2.33 1.07 5.48 4.54 9.44 10.4l16.09 23.57h-6.49l-12.36-18.69c-4.13-6.25-7.34-10.15-9.65-11.7s-5.68-2.32-10.11-2.31h-9.59v32.7h-5.49l.01-68.2zm5.49 4.39v26.71h11.78c6 0 10.58-1.16 13.73-3.49 5.42-4.3 6.34-12.18 2.04-17.6-.62-.78-1.33-1.49-2.11-2.1-3.24-2.34-7.86-3.51-13.86-3.52h-11.58z"/></svg>