<?xml version="1.0" encoding="utf-8"?>
<svg version="1.1" id="Layer_1" xmlns="http://www.w3.org/2000/svg" xmlns:xlink="http://www.w3.org/1999/xlink" x="0px" y="0px"
	width="100px" height="100px" viewBox="0 0 100 100" style="enable-background:new 0 0 100 100;" xml:space="preserve">
<g>
	<g>
		<path style="fill:#E8E8E8;" d="M50,0c27.61,0,50,22.39,50,50s-22.39,50-50,50S0,77.61,0,50S22.39,0,50,0"/>
		<path style="fill:#FFFFFF;" d="M50,1c27.06,0,49,21.94,49,49S77.06,99,50,99S1,77.06,1,50S22.94,1,50,1"/>
	</g>
	<g id="layer1" transform="translate(-4397.099,-577.1118)">
		<g id="g45263" transform="translate(10.62987,8.863696)">
			<path id="path45125" style="fill:#CC071E;" d="M4449.84,597.82c2.39-1.18,3.58-1.02,3.61,0.17c0.03,1.55-0.2,3.61-0.36,5.1
				c-0.89,8.1-2.37,14.72-2.49,23.03c3.91-10.13,7.19-17.16,11.42-25.83c1.34-2.76,2.2-2.25,3.3-2.74c4.29-1.91,4.45-0.74,3.89,1.6
				c-2.08,8.65-7.41,35.9-8.22,40.09c-0.23,1.21-1.55,0.7-1.89,0.22c-1.53-2.11-3.25-2.15-3.06-3.55
				c0.96-6.99,4.41-24.54,5.31-28.68c-4.58,9.39-9.33,21.14-11.78,27.8c-0.52,1.41-1.46,1.31-2.04,0.28
				c-0.82-1.45-2.43-2.2-2.69-3.91c-0.84-5.46,0.96-15.87,1.21-22.45c-2.5,7.19-6.68,21.16-8.52,27.47
				c-0.76,2.61-3.28,2.18-2.61-0.36c2.79-10.59,8.8-29.31,11.39-36.05C4446.91,598.42,4448.51,598.47,4449.84,597.82"/>
			<path id="path45127" style="fill:#CC071E;" d="M4434.63,596.52c-0.81-0.2-3.16,1.07-4.6,1.32c-0.46,0.08-0.89,0.56-1.05,0.91
				c-2.31,5.31-4.38,10.36-6.17,14.97c-2.29,0.39-4.98,0.91-7.98,1.58c2.15-5.52,4.32-10.95,6.44-16.19
				c1.04-2.58-1.7-2.82-2.77-0.21c-1.38,3.39-3.98,9.74-6.84,17.14c-2.11,0.52-4.34,1.11-6.68,1.78c-1.7,0.49-1.77,0.94-1.03,1.96
				c0.4,0.57,1.24,0.51,1.62,0.91c0.99,1.05,1.59,2.3,3.36,2.49c-1.58,4.23-3.16,8.59-4.59,12.79c-0.9,2.64,1.66,3.17,2.65,0.39
				c1.59-4.5,3.26-9.05,4.98-13.58c1.43-0.33,4.9-1.08,8.09-1.77c-2.54,6.96-4.21,12.24-4.84,14.81c-0.12,0.49,0.08,0.77,0.19,0.97
				c0.86,1.25,1.67,1.3,2.77,2.84c0.3,0.42,1.3,0.65,1.64-0.39c2.35-7.11,4.77-13.77,7.03-19.75c0.94-0.2,2.62-0.61,3.66-2.15
				c1.84-2.73,2.36-2.18,2.8-3.01c0.55-1.04,0.19-2.02-1.77-1.78c0,0-0.74,0.05-2.11,0.21c2.17-5.59,4.07-10.33,5.44-13.95
				C4435.33,597.6,4435.39,596.7,4434.63,596.52"/>
			<path id="path45129" style="fill:#CC071E;" d="M4431.42,632.78c0.51,1.28,2.09,0.89,1.48-0.65c-0.61-1.57-2.13-6.3-2.53-7.82
				c-0.54-2.05,1.81-1.49,0.62-0.15c-1.02,1.15-1.7,1.62-3.59,3.81c-1.83,2.12-1.33,4.87,0.62,5.48c2.2,0.69,4.15-1.74,5.35-3.52
				c1.17-1.72,0.04-2.74-1.14-1.72c-0.76,0.66-1.63,1.66-2.51,2.21c-0.72,0.44-1.28-0.03-0.32-1.35c1.11-1.53,2.36-2.81,3.28-4.25
				c1.89-2.94-1.85-4.64-3.45-2.73c-0.86,1.02-0.64,2.02-0.41,2.88C4429.19,626.33,4430.6,630.72,4431.42,632.78"/>
		</g>
	</g>
</g>
</svg>
