<?xml version="1.0" encoding="utf-8"?>
<svg version="1.1" id="Layer_1" xmlns="http://www.w3.org/2000/svg" xmlns:xlink="http://www.w3.org/1999/xlink" x="0px" y="0px"
	width="100px" height="100px" viewBox="0 0 100 100" style="enable-background:new 0 0 100 100;" xml:space="preserve">
<g>
	<path style="fill:#E8E8E8;" d="M50,0c27.61,0,50,22.39,50,50s-22.39,50-50,50S0,77.61,0,50S22.39,0,50,0"/>
	<path style="fill:#FFFFFF;" d="M50,1c27.06,0,49,21.94,49,49S77.06,99,50,99S1,77.06,1,50S22.94,1,50,1"/>
	<g>
		<path style="fill:#E41D25;" d="M15.64,32.95l-0.64,3.97c0,0,8.27,0.09,10.06,0.09c1.79,0,2.64,2.5,2.36,4.29
			c-0.28,1.79-1.48,4.15-3.27,4.2h-3.89l1.25-7.75h-3.83l-2.1,11.75h8.4c1.31,0,6.76-2.21,7.38-7.55c0.62-5.34-2.84-9-5.34-9
			C23.53,32.95,15.64,32.95,15.64,32.95 M38.46,37.58c3.44,0,5.93,2.53,5.76,5.45c-0.12,1.98-1.02,6.47-1.02,6.47h-3.72
			c0,0,0.5-3.5,0.85-5.51c0.4-2.24-2.27-2.64-3.49-1.93c-0.94,0.55-1.52,2.26-1.02,3.12c0.62,1.08,2.58,0.17,2.7,0.06
			c0.11-0.11,0.4,3.43,0.4,3.43s-1.08,1.33-3.77,0.99c-2.04-0.26-4.14-3.35-3.44-6.42C32.56,39.53,35.97,37.58,38.46,37.58
			 M46.3,37.74h3.83l-1.9,11.7h-3.95L46.3,37.74z M46.19,34.95c0-1.26,1.02-2.29,2.28-2.29c1.26,0,2.28,1.02,2.28,2.29
			c0,1.26-1.02,2.29-2.28,2.29C47.21,37.24,46.19,36.21,46.19,34.95 M49.22,49.5H53c0,0,0.68-4.6,0.85-5.85
			c0.17-1.25,1.3-1.59,1.96-1.7l-0.37-4.32c0,0-3.94,0.06-4.85,4.17C49.91,44.87,49.22,49.5,49.22,49.5 M56.32,37.74h3.72l1.14,6.07
			l-2.81,5.68L56.32,37.74z"/>
		<path style="fill:#E41D25;" d="M64.66,37.74h4.17c0,0-4.94,11.98-5.48,13.17c-0.54,1.19-1.88,3.32-4.26,3.32h-6.39l0.8-3.89h3.89
			c1.45,0,2.19-0.23,2.81-1.96C60.72,46.97,64.66,37.74,64.66,37.74"/>
		<path style="fill:#234379;" d="M40.56,67.27l-3.99-0.05c0,0,1.62-11.98,2.16-13.17c0.54-1.19,1.84-3.63,4.23-3.63h9.23l-0.71,3.77
			h-6.67c-1.45,0-2.44,0.72-2.79,2.53C41.67,58.47,40.56,67.27,40.56,67.27"/>
		<path style="fill:#234379;" d="M43.15,56.76l-0.63,3.55h4.91l0.45-3.55L43.15,56.76z M54.79,55.19c3.44,0,5.93,2.53,5.76,5.45
			c-0.12,1.98-1.02,6.47-1.02,6.47h-3.72c0,0,0.5-3.5,0.85-5.51c0.4-2.24-2.27-2.64-3.49-1.93c-0.94,0.55-1.52,2.26-1.02,3.12
			c0.62,1.08,2.58,0.17,2.7,0.06c0.11-0.12,0.4,3.43,0.4,3.43s-1.08,1.33-3.78,1c-2.04-0.26-4.14-3.35-3.43-6.42
			C48.88,57.15,52.29,55.19,54.79,55.19 M60.49,67.21h3.78c0,0,0.68-4.6,0.85-5.85c0.17-1.25,1.31-1.59,1.96-1.7l-0.37-4.32
			c0,0-3.95,0.06-4.85,4.17C61.18,62.58,60.49,67.21,60.49,67.21 M66.74,67.21c0,0,0.97-6.19,1.19-7.44
			c0.23-1.25,1.87-4.68,4.8-4.68c2.87,0,3.38,1.62,4,2.24c0.68-0.51,1.85-2.24,4.4-2.24c2.25,0,3.95,2.95,3.86,4.63
			c-0.09,1.67-0.88,7.49-0.88,7.49h-4c0,0,0.71-4.15,0.91-5.99c0.17-1.62-0.68-2.07-1.19-2.07c-0.46,0-1.42,0.51-1.59,1.9
			c-0.25,2.01-0.82,6.16-0.82,6.16h-4c0,0,0.77-4.6,0.99-6.1c0.23-1.51-0.77-1.68-1.39-1.73c-0.74-0.06-1.3,0.54-1.47,1.5
			c-0.17,0.96-0.91,6.33-0.91,6.33H66.74z"/>
	</g>
</g>
</svg>
