<?xml version="1.0" encoding="utf-8"?><!-- Generator: Adobe Illustrator 24.0.2, SVG Export Plug-In . SVG Version: 6.00 Build 0)  --><svg version="1.1" id="Layer_1" xmlns="http://www.w3.org/2000/svg" xmlns:xlink="http://www.w3.org/1999/xlink" x="0px" y="0px"	 viewBox="0 0 109 50" style="enable-background:new 0 0 109 50;" xml:space="preserve"><style type="text/css">	.st0{fill-rule:evenodd;clip-rule:evenodd;fill-opacity:0.5351;}	.st1{fill-rule:evenodd;clip-rule:evenodd;}	.st2{fill-rule:evenodd;clip-rule:evenodd;fill:#F92C8B;}</style><g>	<path class="st0" d="M66.6,48.8l0.1,1.1c-0.3,0.1-0.5,0.1-0.7,0.1c-0.3,0-0.6-0.1-0.8-0.2s-0.4-0.3-0.4-0.6		c-0.1-0.2-0.1-0.7-0.1-1.4v-4h-0.7v-0.9h0.7v-1.7l1-0.7v2.5h1v0.9h-1v4.1c0,0.4,0,0.6,0.1,0.7c0.1,0.2,0.2,0.2,0.5,0.2		C66.3,48.8,66.5,48.8,66.6,48.8z M68.8,49.8v-9.7h1v3.5c0.2-0.3,0.5-0.6,0.8-0.7s0.6-0.2,1-0.2c0.6,0,1.1,0.2,1.5,0.6		s0.5,1.1,0.5,2.1v4.4h-1v-4.4c0-0.6-0.1-1-0.3-1.3s-0.5-0.4-0.9-0.4c-0.4,0-0.8,0.2-1.1,0.5c-0.3,0.3-0.5,0.9-0.5,1.8v3.8		L68.8,49.8z M80.3,47.6l1,0.2c-0.2,0.7-0.5,1.3-0.9,1.7s-1,0.6-1.6,0.6c-0.8,0-1.5-0.3-2-0.9S76,47.6,76,46.4		c0-1.2,0.3-2.1,0.8-2.8s1.2-1,2-1c0.8,0,1.4,0.3,1.9,0.9c0.5,0.6,0.8,1.5,0.8,2.7l0,0.3H77c0,0.8,0.2,1.4,0.6,1.8s0.7,0.6,1.2,0.6		C79.5,49,80,48.5,80.3,47.6z M77.1,45.7h3.2c0-0.6-0.2-1.1-0.4-1.4c-0.3-0.4-0.7-0.7-1.2-0.7c-0.4,0-0.8,0.2-1.1,0.5		S77.1,45,77.1,45.7z M83.9,49.8v-7h0.9v1c0.2-0.4,0.4-0.6,0.8-0.8s0.6-0.3,1-0.3c0.4,0,0.8,0.1,1,0.3s0.5,0.5,0.6,0.9		c0.2-0.4,0.5-0.7,0.8-0.9s0.6-0.3,1-0.3c0.6,0,1,0.2,1.3,0.6s0.5,1,0.5,1.8v4.8h-1v-4.4c0-0.5,0-0.9-0.1-1.1		c-0.1-0.2-0.2-0.4-0.4-0.5s-0.3-0.2-0.6-0.2c-0.4,0-0.8,0.2-1,0.5c-0.3,0.3-0.4,0.9-0.4,1.6v4.1h-1v-4.6c0-0.6-0.1-1-0.3-1.2		s-0.4-0.4-0.7-0.4c-0.4,0-0.8,0.2-1.1,0.5s-0.4,1-0.4,2v3.6L83.9,49.8z M98.5,47.6l1,0.2c-0.2,0.7-0.5,1.3-0.9,1.7s-1,0.6-1.6,0.6		c-0.8,0-1.5-0.3-2-0.9s-0.8-1.5-0.8-2.7c0-1.2,0.3-2.1,0.8-2.8s1.2-1,2-1c0.8,0,1.4,0.3,1.9,0.9c0.5,0.6,0.8,1.5,0.8,2.7l0,0.3		h-4.3c0,0.8,0.2,1.4,0.6,1.8s0.7,0.6,1.2,0.6C97.7,49,98.2,48.5,98.5,47.6z M95.2,45.7h3.2c0-0.6-0.2-1.1-0.4-1.4		c-0.3-0.4-0.7-0.7-1.2-0.7c-0.4,0-0.8,0.2-1.1,0.5S95.3,45,95.2,45.7z M101.6,47.7l1-0.2c0.1,0.5,0.2,0.9,0.5,1.1		c0.3,0.2,0.6,0.4,1,0.4s0.8-0.1,1-0.3s0.4-0.5,0.4-0.8c0-0.3-0.1-0.5-0.3-0.6c-0.1-0.1-0.5-0.2-1-0.4c-0.8-0.2-1.3-0.4-1.5-0.6		c-0.3-0.2-0.5-0.4-0.6-0.7c-0.1-0.3-0.2-0.6-0.2-0.9c0-0.6,0.2-1.1,0.6-1.5s0.9-0.6,1.6-0.6c0.4,0,0.8,0.1,1.1,0.2s0.6,0.4,0.8,0.6		s0.3,0.6,0.4,1.1l-1,0.2c-0.1-0.8-0.5-1.1-1.3-1.1c-0.4,0-0.7,0.1-1,0.3s-0.3,0.4-0.3,0.7c0,0.3,0.1,0.5,0.3,0.6		c0.1,0.1,0.5,0.2,1.1,0.4c0.8,0.3,1.3,0.5,1.6,0.6s0.4,0.4,0.6,0.6s0.2,0.6,0.2,0.9c0,0.7-0.2,1.2-0.6,1.6s-1,0.6-1.8,0.6		C102.7,50,101.9,49.2,101.6,47.7L101.6,47.7z"/>	<path class="st1" d="M0,27.3c0-3,0.8-5.5,2.4-7.3s3.6-2.8,5.9-2.8c1.5,0,2.9,0.4,4.3,1.2s2.5,1.8,3.4,3.1c0.2,0.3,0.4,0.6,0.4,1		v0.1c0,0.3-0.1,0.5-0.2,0.7s-0.4,0.4-0.7,0.5s-0.6,0.3-0.8,0.4s-0.6,0.2-1,0.4s-0.7,0.2-0.9,0.3c-6.1,2.1-9.2,3.2-9.4,3.3		c-0.1,0.1-0.2,0.1-0.2,0.3c0,0.2,0,0.5,0.1,0.9c0.1,0.4,0.3,1,0.6,1.6s0.7,1.3,1.1,1.9s1.1,1.1,1.9,1.5s1.8,0.6,2.8,0.6		c2,0,3.8-0.7,5.3-2.2c0.4-0.4,0.7-0.6,1-0.6c0.5,0,0.7,0.2,0.7,0.7c0,0.2-0.1,0.4-0.4,0.7c-0.9,1.2-2.1,2.2-3.5,2.9		c-1.4,0.7-2.9,1.1-4.4,1.1c-1,0-2-0.2-2.9-0.5S3.8,35.9,3,35.2s-1.6-1.8-2.1-3.2S0,29.1,0,27.3z M12,22.6c0-0.4-0.5-1-1.5-1.8		c-1-0.8-2.1-1.2-3.2-1.2c-1.3,0-2.4,0.6-3.1,1.7S3,24,3,26c0,0.2,0.1,0.4,0.2,0.4c0.1,0,1.5-0.5,4.2-1.6c2.7-1.1,4.1-1.6,4.2-1.6		C11.9,23,12,22.8,12,22.6z M25.7,35.9c0,0.6-0.2,0.9-0.5,0.9c0,0-0.1,0-0.3,0s-0.4,0-0.6-0.1s-0.6-0.1-0.9-0.1		c-0.3,0-0.7-0.1-1.1-0.1s-0.9,0-1.3,0s-0.8,0-1.2,0s-0.8,0-1.1,0s-0.6,0-0.9,0.1s-0.4,0.1-0.6,0.1s-0.2,0-0.3,0		c-0.4,0-0.7-0.3-0.7-0.8v-0.1c0-0.4,0.1-0.6,0.3-0.7s0.7-0.2,1.6-0.3c0.5-0.1,0.9-0.2,1-0.5s0.2-0.7,0.2-1.2V10.2		c0-0.1,0-0.2,0-0.2s0-0.1-0.1-0.2c0-0.1-0.1-0.1-0.1-0.2s-0.1-0.1-0.1-0.1c-0.1,0-0.1-0.1-0.2-0.1c0,0-0.1-0.1-0.3-0.2		s-0.2-0.1-0.3-0.2c-0.3-0.2-0.6-0.4-0.9-0.5c-0.3-0.2-0.6-0.3-0.7-0.4s-0.3-0.2-0.4-0.3c-0.1-0.1-0.2-0.2-0.3-0.3S16,7.4,16,7.3v0		c0-0.1,0.6-0.5,1.7-1.1c1.4-0.7,2.7-1.3,3.9-2C21.7,4.1,21.9,4,22.1,4c0.4,0,0.6,0.3,0.6,0.8v28.5c0,0.2,0,0.3,0,0.4s0,0.2,0.1,0.3		c0,0.1,0.1,0.2,0.1,0.2s0.1,0.1,0.2,0.2s0.2,0.1,0.2,0.1c0,0,0.1,0.1,0.3,0.1s0.3,0.1,0.4,0.1s0.2,0,0.5,0.1S24.9,35,25,35		C25.5,35.1,25.7,35.4,25.7,35.9z M24.4,27.3c0-3,0.8-5.5,2.4-7.3s3.6-2.8,5.9-2.8c1.5,0,2.9,0.4,4.3,1.2s2.5,1.8,3.4,3.1		c0.2,0.3,0.4,0.6,0.4,1v0.1c0,0.3-0.1,0.5-0.2,0.7c-0.1,0.2-0.4,0.4-0.7,0.5s-0.6,0.3-0.8,0.4c-0.2,0.1-0.6,0.2-1,0.4		s-0.7,0.2-0.9,0.3c-6.1,2.1-9.2,3.2-9.4,3.3c-0.1,0.1-0.2,0.1-0.2,0.3c0,0.2,0,0.5,0.1,0.9s0.3,1,0.6,1.6s0.7,1.3,1.1,1.9		s1.1,1.1,1.9,1.5c0.8,0.4,1.8,0.6,2.8,0.6c2,0,3.8-0.7,5.3-2.2c0.4-0.4,0.7-0.6,1-0.6c0.5,0,0.7,0.2,0.7,0.7c0,0.2-0.1,0.4-0.4,0.7		c-0.9,1.2-2.1,2.2-3.5,2.9C36,37,34.5,37.4,33,37.4c-1,0-2-0.2-2.9-0.5s-1.9-0.9-2.8-1.6s-1.6-1.8-2.1-3.2S24.4,29.1,24.4,27.3z		 M36.7,22.6c0-0.4-0.5-1-1.5-1.8c-1-0.8-2.1-1.2-3.2-1.2c-1.3,0-2.4,0.6-3.1,1.7S27.7,24,27.7,26c0,0.2,0.1,0.4,0.2,0.4		c0.1,0,1.5-0.5,4.2-1.6c2.7-1.1,4.1-1.6,4.2-1.6C36.6,23,36.7,22.8,36.7,22.6z M41.7,24.1c0-1.9,0.7-3.5,2.1-4.9s3.1-2.1,5.1-2.1		c1.3,0,2.5,0.3,3.7,0.8s1.8,0.8,2,0.8c0.9,0,1.7-0.5,2.4-1.4c0.4-0.7,0.9-1.1,1.3-1.1s0.8,0.2,1.2,0.6c0.4,0.4,0.5,0.8,0.5,1.3		c0,0.5-0.2,1-0.7,1.4c-0.5,0.4-1,0.7-1.6,0.9s-0.9,0.4-0.9,0.4c-0.1,0.1-0.2,0.3-0.2,0.4c0,0.1,0,0.2,0.1,0.4s0.2,0.6,0.3,1		s0.1,0.9,0.1,1.4c0,2.1-0.7,3.9-2.2,5.3s-3.2,2.2-5.3,2.2c-0.6,0-1.1-0.1-1.7-0.2s-0.8-0.2-1-0.2c-0.4,0-0.8,0.3-1.3,0.8		c-0.5,0.5-0.7,1-0.7,1.5c0,0.8,0.6,1.3,1.9,1.6c1.3,0.3,2.9,0.4,4.9,0.5s3.4,0.2,4.2,0.5c1.3,0.4,2.4,1,3,2s1,1.9,1,3		c0,0.7-0.1,1.3-0.4,2s-0.8,1.3-1.4,2s-1.6,1.2-2.9,1.6s-2.8,0.6-4.6,0.6c-3.2,0-5.5-0.6-6.8-1.8c-1.3-1.2-1.9-2.5-1.9-3.9		c0-0.3,0-0.6,0.1-0.9s0.1-0.5,0.2-0.7c0.1-0.2,0.2-0.4,0.3-0.6s0.2-0.4,0.4-0.5c0.1-0.2,0.3-0.3,0.4-0.4c0.1-0.1,0.3-0.2,0.4-0.3		c0.1-0.1,0.2-0.2,0.3-0.2c0.1-0.1,0.2-0.1,0.2-0.2l0.1,0c0.1-0.1,0.1-0.1,0.1-0.2c0,0-0.1-0.1-0.4-0.3c-0.3-0.2-0.6-0.5-0.8-0.9		s-0.4-0.9-0.4-1.5c0-1.4,0.8-2.8,2.5-4.2l0,0c0,0,0-0.1,0-0.1c0-0.1-0.1-0.2-0.4-0.4c-0.3-0.1-0.6-0.4-1.1-0.9s-0.9-1-1.2-1.6		C41.9,26.4,41.7,25.3,41.7,24.1z M49,18.6c-1.1,0-2.1,0.5-2.8,1.4s-1.1,2.1-1.1,3.6c0,1.7,0.4,3.2,1.3,4.5s2,1.9,3.3,1.9		c1.2,0,2.2-0.5,2.9-1.4c0.7-1,1.1-2.1,1.1-3.5c0-1.7-0.4-3.1-1.3-4.4C51.5,19.2,50.4,18.6,49,18.6z M44.4,40.5		c0,1.3,0.7,2.4,2.1,3.2s3.1,1.2,5.2,1.2c2.1,0,3.5-0.3,4.4-1s1.3-1.4,1.3-2.3c0-1.2-0.6-2.1-1.8-2.7c-0.6-0.3-1.3-0.5-2.1-0.6		s-2-0.2-3.4-0.2s-2.8-0.1-3.9-0.2H46c-0.2,0-0.5,0.2-0.8,0.5C44.6,38.9,44.4,39.6,44.4,40.5z M59.2,21c0-0.9,0.7-1.8,2.1-2.7		s3-1.3,4.7-1.3c0.6,0,1.1,0.1,1.7,0.2c0.6,0.1,1.2,0.3,2,0.6c0.7,0.3,1.4,0.8,1.9,1.5s0.8,1.6,0.9,2.6c0.1,0.7,0.1,1.2,0.1,1.6v8.9		c0,0.5,0.1,1,0.3,1.3s0.4,0.5,0.6,0.6c0.2,0.1,0.4,0.1,0.6,0.1c0.4,0,0.7-0.1,1-0.4s0.4-0.5,0.5-0.7s0.3-0.4,0.5-0.4		c0.3,0,0.4,0.2,0.4,0.6c0,0.7-0.3,1.5-1,2.3c-0.6,0.8-1.5,1.3-2.5,1.3c-0.4,0-0.7-0.1-1.1-0.2c-0.4-0.1-0.6-0.3-0.9-0.5		s-0.4-0.4-0.6-0.5c-0.2-0.2-0.3-0.3-0.5-0.5l-0.1-0.2c0,0-0.1,0-0.1,0c-0.1,0-0.1,0-0.1,0.1s-0.1,0.2-0.3,0.4		c-0.2,0.2-0.4,0.4-0.7,0.6c-1.3,0.8-2.7,1.2-4.2,1.2c-1.5,0-2.7-0.5-3.7-1.5s-1.4-2.2-1.4-3.6c0-1.7,0.6-3.1,1.9-4		c0.4-0.4,1-0.7,1.7-0.9s1.4-0.5,2.1-0.6s1.3-0.3,1.9-0.4c0.6-0.1,1.1-0.2,1.5-0.2l0.6,0c0.2-0.1,0.4-0.3,0.4-0.6v-1.6		c0-1.6-0.4-2.8-1.1-3.6c-0.7-0.8-1.6-1.2-2.6-1.2c-1.6,0-2.9,1-3.9,3c-0.3,0.4-0.6,0.5-1,0.5c-0.5,0-0.9-0.1-1.2-0.4		S59.2,21.5,59.2,21L59.2,21z M65.5,35c0.7,0,1.3-0.1,1.9-0.4s1-0.6,1.2-0.8c0.2-0.2,0.4-0.4,0.6-0.6c0.2-0.2,0.3-0.6,0.3-1v-2.9		c0-0.6,0-0.9-0.1-1.1s-0.2-0.2-0.4-0.2c-0.7,0-1.6,0.1-2.7,0.4s-2,0.7-2.6,1.3c-0.7,0.6-1.1,1.4-1.1,2.5c0,1.1,0.3,1.9,0.9,2.5		C64,34.8,64.6,35,65.5,35z M82.1,19.6c0,0.1,0,0.2,0.1,0.2h0c0,0,0.1-0.1,0.3-0.3s0.5-0.4,0.8-0.7s0.8-0.5,1.2-0.8s1-0.5,1.7-0.7		s1.4-0.3,2.1-0.3h0.1c0.6,0,1.2,0.1,1.8,0.2s1.2,0.5,1.9,0.9c0.7,0.4,1.3,1.1,1.7,2c0.5,0.9,0.8,2,0.9,3.3c0.1,0.5,0.1,1.3,0.1,2.3		v0.9c0,0.5,0,1.3,0,2.4s0,2.7,0,4.5v0.1c0,0.1,0,0.3,0,0.4c0,0.1,0.1,0.2,0.1,0.3s0.1,0.1,0.2,0.2s0.2,0.1,0.2,0.2s0.1,0.1,0.3,0.1		S96,35,96,35s0.2,0,0.5,0s0.4,0.1,0.5,0.1c0.4,0.1,0.7,0.3,0.7,0.8c0,0.6-0.2,0.9-0.7,0.9c-0.1,0-0.3,0-0.6-0.1s-0.8-0.1-1.3-0.1		c-0.6,0-1.2-0.1-1.8-0.1c-0.4,0-0.8,0-1.1,0s-0.7,0-1,0.1s-0.5,0.1-0.8,0.1c-0.2,0-0.4,0.1-0.6,0.1h-0.2c-0.4,0-0.6-0.3-0.6-0.9		c0-0.3,0.1-0.5,0.3-0.6c0.2-0.1,0.6-0.2,1.4-0.3c0.3-0.1,0.5-0.1,0.7-0.1c0.3-0.1,0.5-0.2,0.6-0.3s0.2-0.4,0.2-0.8v-7		c0-2.2-0.2-3.8-0.6-4.9c-0.4-1-1.1-1.7-2-2.1s-1.7-0.6-2.5-0.6c-1.1,0-2.2,0.4-3.1,1.1s-1.4,1.3-1.5,1.8c-0.1,0.2-0.1,0.4-0.1,0.6		v10.8c0,0.8,0.3,1.2,1,1.3c1.3,0.2,2,0.4,2.1,0.5c0.2,0.1,0.3,0.4,0.3,0.7c0,0.5-0.2,0.8-0.6,0.8c0,0-0.1,0-0.3,0		c-0.2,0-0.4,0-0.6-0.1c-0.3,0-0.6-0.1-0.9-0.1c-0.3,0-0.7-0.1-1.1-0.1s-0.8,0-1.2,0s-0.8,0-1.2,0s-0.8,0-1.1,0.1s-0.6,0.1-0.8,0.1		s-0.4,0.1-0.6,0.1s-0.2,0-0.3,0c-0.5,0-0.7-0.3-0.7-0.8c0-0.4,0.1-0.7,0.3-0.8c0.2-0.1,0.7-0.2,1.5-0.3c0.5-0.1,0.9-0.2,1-0.5		s0.2-0.6,0.2-1.1V22.6c0-0.5-0.1-0.9-0.2-1.1s-0.7-0.7-1.8-1.5c-0.2-0.2-0.3-0.3-0.3-0.4v0c0-0.1,0.1-0.3,0.3-0.4s0.8-0.5,1.9-1		c0.8-0.4,1.5-0.8,2.1-1.1c0.2-0.1,0.3-0.2,0.4-0.2c0.4,0,0.5,0.2,0.5,0.7v1.8C82.1,19.3,82.1,19.4,82.1,19.6L82.1,19.6z M96.3,20.1		c-0.6,0-0.9-0.2-0.9-0.6c0-0.2,0.2-0.4,0.6-0.8s1-1,1.8-1.8s1.5-1.9,2.2-3.1c0.3-0.6,0.6-0.8,0.9-0.8c0.4,0,0.6,0.2,0.6,0.7		c0,0.2,0,0.7,0,1.6c0,0.8,0,1.4,0,1.6c0,0.6,0.3,0.9,0.9,0.9h4c0.1,0,0.1,0,0.2,0c0.1,0,0.1,0,0.2,0c0.8,0,1.1,0.3,1.1,0.8		s-0.1,1-0.4,1.3c-0.1,0.1-0.4,0.2-0.8,0.2h-5.3c-0.3,0-0.4,0.1-0.4,0.4c0,2.4,0,4.5,0,6.1c0,1.6,0,2.7,0,3.3s0,1,0,1.2		c0,2.2,0.8,3.3,2.3,3.3c0.6,0,1.3-0.2,1.9-0.7s1.3-0.9,1.8-1.4s0.9-0.7,1.2-0.7c0.2,0,0.4,0.1,0.6,0.3c0.2,0.2,0.2,0.4,0.2,0.6		c0,0.2-0.1,0.4-0.3,0.7c-2.4,2.7-4.4,4-6.3,4c-1.1,0-2.1-0.4-3-1.3c-0.9-0.9-1.4-2.2-1.6-4.2c0-0.3,0-0.8,0-1.5		c0-0.7,0-2.5,0.1-5.3s0.1-4.4,0.1-4.6c0-0.3-0.1-0.4-0.3-0.4L96.3,20.1z"/>	<path class="st2" d="M86.6,14.6l-3.1-2.4c1-1.1,2-2.2,3.1-3.2c0.4-0.4,0.7-0.7,0.8-0.8C87,8.1,86,7.8,84.4,7.4		c-1.2-0.3-1.9-0.5-2.3-0.6l1.2-3.7c1.8,0.7,3.4,1.6,4.8,2.4c-0.3-2.3-0.5-4.1-0.5-5.6h3.7c0,1-0.2,2.9-0.6,5.6		c0.3-0.1,0.9-0.4,1.8-0.8c1.2-0.6,2.4-1.1,3.4-1.5L97,7.1c-1.5,0.3-3.3,0.7-5.3,1l2.5,2.8c0.5,0.6,0.9,1,1.2,1.4l-3.1,2.1l-2.8-4.7		C88.6,11.3,87.7,12.9,86.6,14.6z"/></g></svg>