<svg xmlns="http://www.w3.org/2000/svg" viewBox="22.5 55.7 1920 1231.6"><path d="M1808.6 667.7l103.3-168.3h-76.5l-65 103.3-65-103.3h-76.5l103.3 168.3L1625 847.4h76.5l65-114.7 68.8 114.7h76.5l-103.2-179.7zm-321.2-164.5h-84.1l-122.4 348h76.5l22.9-57.4h145.3l22.9 61.2 68.8-3.8-129.9-348h0zm-88 218l49.7-145.3 49.7 145.3h-99.4zm-122.4-153l3.8-65h-210.4v344.2h68.8v-130H1277v-68.8h-137.7v-80.3H1277zm-340.4-65h68.8v348h-68.8v-348zm-172.1 283l-3.8-283h-68.8v344.2h206.5v-61.2H764.5zM535 503.2h-84.1l-122.4 348h72.7l22.9-61.2h145.3l22.9 65 68.8-3.8-126.1-348h0zm-88 218l49.7-145.3 49.7 145.3H447zm-218-218v137.7H99V503.2H30.1v344.2H99V705.9h130v141.5h68.8V503.2H229zM722.4 59.5l348 371H408.8L22.5 59.5h699.9z" fill="#005eb8"/><path d="M1246.4 55.7L997.8 319.6l-15.3 15.3 88 95.6h30.6 455.1l386.3-371v-3.8h-696.1z" fill="#1c2546"/><path d="M1070.5 430.5H408.8L22.5 59.5h699.9l348.1 371zM408.8 916.3h661.7l-348 367.2h-700l386.3-367.2z" fill="#005eb8"/><path d="M1556.2 916.3h-459-26.8l-88 91.8 15.3 15.3 248.6 263.9h696.1v-3.8l-386.2-367.2z" fill="#1c2546"/><path d="M1070.5 916.3l-348 367.2h-700l386.3-367.2h661.7z" fill="#005eb8"/></svg>