<?xml version="1.0" encoding="utf-8"?>
<svg version="1.1" id="Layer_1" xmlns="http://www.w3.org/2000/svg" xmlns:xlink="http://www.w3.org/1999/xlink" x="0px" y="0px"
	width="100px" height="100px" viewBox="0 0 100 100" style="enable-background:new 0 0 100 100;" xml:space="preserve">
<g>
	<path style="fill:#E8E8E8;" d="M50,0c27.61,0,50,22.39,50,50s-22.39,50-50,50S0,77.61,0,50S22.39,0,50,0"/>
	<path style="fill:#FFFFFF;" d="M50,1c27.06,0,49,21.94,49,49S77.06,99,50,99S1,77.06,1,50S22.94,1,50,1"/>
	<g>
		<path style="fill:#D4D6C9;" d="M57.22,49.65c-0.16-0.03-0.31-0.06-0.47-0.07 M49.32,59.81c0.01-0.03,0.04-0.06,0.07-0.08
			 M39.98,54.09c1.61,0.42,3.34,0.23,4.81-0.59c-1.15,1.15-2.48,2.48-2.53,2.53c-0.92,0.07-1.84-0.03-2.73-0.25
			c-0.86-0.23-1.67-0.59-2.41-1.09l2.56-0.69C39.78,54.02,39.88,54.06,39.98,54.09 M35.09,52.79l1.85-0.5
			c-0.37-0.38-0.68-0.81-0.95-1.26c-0.69-1.19-0.99-2.58-0.85-3.93l0.01-0.18l0.17,0.04c0,0,0.18,0.06,0.5,0.14
			c-0.24-0.62-0.41-1.27-0.5-1.94c-0.81-0.21-1.34-0.35-1.4-0.37l-0.28,0.82l-0.2,0.99c-0.27,1.84,0.1,3.71,1.03,5.31
			C34.68,52.19,34.87,52.49,35.09,52.79 M37.89,45.83c0.24,0.76,0.62,1.49,1.13,2.11c2.31,0.62,5.19,1.39,7.07,1.9l1.54-0.41
			c-0.25-0.25-0.74-0.74-1.33-1.33l-2.59-0.69L37.89,45.83 M50.82,43.46c0.64-1.09,1.5-2.04,2.55-2.76c0.25-0.96,0.51-1.9,0.75-2.76
			c-0.78,0.25-1.5,0.67-2.12,1.2L50.82,43.46z M48.91,36.03c1.19-0.69,2.58-0.99,3.95-0.85l0.18,0.01l-0.2,0.71
			c0.62-0.25,1.27-0.42,1.94-0.51c0.23-0.85,0.38-1.39,0.38-1.43l-0.82-0.28l-0.99-0.2c-1.84-0.27-3.71,0.1-5.31,1.03
			c-0.27,0.16-0.54,0.34-0.79,0.52l0.5,1.84C48.1,36.56,48.49,36.28,48.91,36.03 M46.01,39.53c-0.27-0.99-0.5-1.87-0.67-2.49
			c-0.95,1.39-1.46,3.01-1.46,4.68c0,0.21,0.01,0.42,0.03,0.62l0,0l2.55,2.55c-0.83-1.49-1.05-3.24-0.61-4.88
			C45.9,39.84,45.95,39.69,46.01,39.53 M59.51,41.67c-0.81-0.17-1.66-0.17-2.46,0l-3.16,3.16c0.04-0.03,0.07-0.06,0.11-0.07
			c1.08-0.62,2.29-1,3.54-1.12C58.23,42.94,58.9,42.27,59.51,41.67 M58.52,56.57c0.04,0.13,0.06,0.28,0.08,0.42
			c0,0.01,0,0.01,0,0.03l1.84,1.84v-0.03c0.01-0.18,0.04-0.37,0.04-0.55c0-1.66-0.5-3.28-1.41-4.66c-0.08-0.03-1.85-0.5-3.41-0.92
			l-0.03-0.01c1.25,0.76,2.19,1.91,2.7,3.27C58.4,56.15,58.48,56.37,58.52,56.57 M51.7,59.79L51.7,59.79
			c0.23,0.85,0.48,1.77,0.72,2.65l0,0c0.55-0.62,0.96-1.36,1.22-2.15c-0.34-1.27-0.72-2.72-1.09-4.06c-0.03,1.2-0.3,2.38-0.81,3.45
			v0.01l-0.03,0.06C51.71,59.76,51.7,59.78,51.7,59.79 M57.87,61.55c-0.65,1.12-1.61,2.02-2.77,2.59c-0.08,0.03-0.14,0.08-0.21,0.13
			l-0.17,0.07l-0.04-0.17c0,0-0.01-0.04-0.03-0.1l-0.11-0.44c-0.42,0.52-0.89,1-1.43,1.41c0.23,0.81,0.37,1.36,0.38,1.43l0.85-0.17
			l0.95-0.33c1.71-0.69,3.16-1.94,4.09-3.55c0.16-0.28,0.3-0.57,0.42-0.88c-0.4-0.4-0.85-0.86-1.36-1.36
			C58.31,60.65,58.11,61.11,57.87,61.55 M54.85,35.7c-0.06,0.01-0.11,0.01-0.17,0.03c-0.67,0.11-1.33,0.3-1.95,0.57
			c-0.06,0.03-0.11,0.06-0.18,0.08c-0.07,0.03-0.13,0.06-0.18,0.08c-0.82,0.4-1.57,0.93-2.21,1.57c-0.62,0.64-1.15,1.36-1.56,2.15
			l0.88,3.27c0.1-1.58,0.78-3.07,1.9-4.2c0.1-0.1,0.2-0.18,0.31-0.27c0.07-0.07,0.13-0.13,0.2-0.18c0.07-0.06,0.13-0.1,0.2-0.14
			c0.62-0.47,1.33-0.82,2.08-1.05c0.06-0.01,0.11-0.03,0.17-0.04c0.06-0.01,0.11-0.03,0.17-0.04c0.5-0.11,1-0.17,1.51-0.17
			c1.37,0,2.72,0.42,3.83,1.25l0.14,0.1l-0.57,0.57c0.67,0.1,1.32,0.27,1.94,0.52c0.65-0.65,1.06-1.06,1.09-1.09
			c-0.17-0.2-0.58-0.65-0.58-0.65l-0.76-0.67c-1.46-1.15-3.25-1.77-5.11-1.77c-0.34,0-0.68,0.03-1,0.07
			C54.98,35.68,54.92,35.7,54.85,35.7 M62.42,40.6c-0.31-0.17-0.62-0.33-0.95-0.47c-0.06-0.01-0.1-0.04-0.16-0.06
			c-0.06-0.03-0.1-0.04-0.16-0.06c-0.64-0.24-1.3-0.4-1.98-0.48c-0.06,0-0.13-0.01-0.2-0.01c-0.07-0.01-0.13-0.01-0.2-0.01
			c-0.89-0.06-1.78,0.03-2.65,0.25c-0.89,0.24-1.73,0.62-2.49,1.13c-0.01,0.01-0.03,0.03-0.04,0.03c-0.06,0.04-0.1,0.08-0.16,0.11
			s-0.13,0.1-0.2,0.16c-0.88,0.67-1.6,1.49-2.15,2.43c-0.34,0.61-0.62,1.25-0.82,1.91c0,0,0,0,0,0.01l-0.1,0.37l0,0l0.47,1.73
			l0.01,0.03c0.37-0.37,0.82-0.82,1.17-1.16v-0.01l0.01-0.06c0.01-0.06,0.04-0.13,0.04-0.13c0.11-0.5,0.3-0.96,0.52-1.41
			c0.07-0.13,0.13-0.27,0.2-0.4l0.13-0.2c0.88-1.41,2.25-2.43,3.86-2.86c0.11-0.03,0.21-0.04,0.33-0.07
			c0.11-0.03,0.18-0.04,0.28-0.06c0.1-0.01,0.17-0.01,0.24-0.03c0.78-0.11,1.58-0.07,2.35,0.11l0.17,0.06
			c0.06,0.01,0.11,0.03,0.17,0.04c1.84,0.52,3.37,1.85,4.15,3.61l0.07,0.17l-0.69,0.17c0.52,0.41,1,0.89,1.41,1.43
			c0.5-0.13,1.25-0.34,1.4-0.38c-0.04-0.25-0.17-0.85-0.17-0.85l-0.33-0.95C65.27,42.97,64.02,41.52,62.42,40.6 M59.69,48.3
			l0.03-0.01l2.77-0.75c-0.61-0.55-1.32-0.96-2.08-1.25l-4.39,1.17c1.26,0,2.49,0.28,3.62,0.81C59.68,48.3,59.69,48.3,59.69,48.3
			 M38.44,59.88l1.36-1.36c-0.5-0.14-0.96-0.35-1.4-0.61c-1.2-0.68-2.15-1.73-2.7-3l-0.07-0.16l0.17-0.04c0,0,0.23-0.07,0.62-0.17
			c0.06-0.01,0.11-0.03,0.18-0.06s0.13-0.03,0.2-0.06c0.61-0.16,1.44-0.4,2.39-0.64l0.24-0.06c0.08-0.03,0.18-0.06,0.27-0.07
			l6.78-1.83l1.26-1.26l0.13-0.13l0.13-0.13l0.3-0.3c-0.16-0.16-0.31-0.31-0.37-0.38l-1.2,0.33l-0.3,0.08l-0.3,0.08l-0.51,0.13
			l0.01,0.01l0,0v0.01l-5.43,1.46l-0.04-0.01c-0.83,0.23-1.74,0.47-2.6,0.69c-0.06,0.01-0.11,0.04-0.18,0.06
			c-0.06,0.01-0.13,0.03-0.18,0.06c-0.69,0.18-1.33,0.35-1.9,0.51c-0.06,0.01-0.11,0.03-0.16,0.04c-0.06,0.01-0.1,0.03-0.16,0.04
			c-0.85,0.23-1.44,0.38-1.5,0.4c0.06,0.25,0.17,0.85,0.17,0.85l0.33,0.95c0.68,1.73,1.92,3.17,3.54,4.09
			C37.82,59.59,38.13,59.75,38.44,59.88 M43.36,58.57c-0.13,0.03-0.24,0.06-0.37,0.08c-0.75,0.74-1.4,1.4-1.85,1.85
			c1.81,0.11,3.62-0.37,5.14-1.37c0.31-1.13,0.61-2.29,0.91-3.38C46.31,57.13,44.95,58.15,43.36,58.57 M59.66,48.63
			c-0.01,0-0.01-0.01-0.03-0.01c-0.01,0-0.01-0.01-0.03-0.01c-0.06-0.03-0.11-0.04-0.17-0.07c-0.01,0-0.01,0-0.03-0.01
			c-0.07-0.03-0.14-0.06-0.21-0.08l-0.03-0.01c-1-0.42-2.08-0.64-3.16-0.64c-0.68,0-1.34,0.08-2.01,0.24
			c-0.03,0-0.04,0.01-0.07,0.01l-0.47,0.13c0,0,0,0-0.01,0.01c-0.25,0.25-1.09,1.08-1.19,1.19c0.1,0.03,0.78,0.21,1.74,0.47
			c0,0,0,0,0.01,0l0.06-0.01c0.07-0.01,0.13-0.03,0.2-0.04c0.4-0.11,0.79-0.17,1.2-0.2c0.03,0,0.07,0,0.1,0
			c0.14-0.01,0.27-0.03,0.41-0.03c0.08,0,0.17,0.01,0.25,0.01l0.21,0.01c0.08,0,0.17,0.01,0.25,0.01c0.16,0.01,0.31,0.04,0.47,0.07
			l0.13,0.01c1.26,0.25,2.42,0.88,3.33,1.78c0.07,0.07,0.13,0.14,0.18,0.21c0.01,0,0.03,0,0.03,0c1,0.27,1.9,0.51,2.55,0.68
			C62.62,50.74,61.31,49.42,59.66,48.63 M62.41,54.5L62.41,54.5c0.11,0.52,0.18,1.05,0.18,1.58c0,1.02-0.24,2.04-0.71,2.96
			c-0.16,0.31-0.34,0.61-0.54,0.89l-0.1,0.14l-0.54-0.54l0,0l-0.13-0.13l-0.14-0.14l0,0l-1.74-1.73l-0.18-0.18l-0.2-0.2l-3.24-3.24
			c0.03,0.03,0.04,0.07,0.07,0.1c0.62,1.08,0.99,2.26,1.1,3.49c0,0.01,0,0.01,0,0.03s0,0.01,0,0.03c0.01,0.01,0.04,0.03,0.06,0.06
			c0.68,0.68,1.34,1.34,1.95,1.95c0.06,0.04,0.1,0.08,0.14,0.14s0.08,0.08,0.13,0.13l0,0c0.51,0.51,0.98,0.98,1.37,1.37
			c0.04,0.04,0.08,0.08,0.13,0.13l0,0c0.04,0.04,0.08,0.07,0.11,0.11l0,0c0.64,0.64,1.03,1.03,1.08,1.08
			c0.2-0.17,0.65-0.58,0.65-0.58l0.67-0.75c0.28-0.37,0.54-0.75,0.76-1.16c0.67-1.22,1-2.58,0.99-3.95c0-0.37-0.03-0.74-0.08-1.09
			C63.7,54.85,63.07,54.7,62.41,54.5 M65.49,48.05c0.74,1.25,1.12,2.67,1.12,4.12c0,0.4-0.03,0.79-0.08,1.19l-0.2,0.99
			c0,0-0.2,0.58-0.28,0.82c-0.04-0.01-0.62-0.17-1.51-0.41h-0.01c-0.04-0.01-0.1-0.03-0.16-0.04c0,0,0,0-0.01,0l-0.16-0.04h0
			l-1.88-0.51H62.3c-0.06-0.01-0.11-0.03-0.16-0.04h-0.01l-0.17-0.04c-0.01,0-0.01,0-0.01,0c-0.83-0.23-1.75-0.47-2.69-0.72
			c-0.08-0.03-0.16-0.04-0.24-0.07s-0.17-0.04-0.24-0.06c-1.88-0.51-3.82-1.03-5.36-1.44c-0.01,0-0.01,0-0.03-0.01
			c-0.01,0-0.04-0.01-0.06-0.01c-0.34-0.35-0.76-0.78-1.12-1.12c-0.04-0.04-0.08-0.08-0.13-0.13l0,0c-0.04-0.04-0.08-0.08-0.11-0.13
			l0,0l-0.34-0.35l-0.01-0.01L51.5,49.9l-0.11-0.1l-0.23-0.23l0,0l-0.06-0.21l-0.03-0.08l-0.04-0.08l-0.04-0.17l-0.04-0.17
			l-0.04-0.14l-0.04-0.14l-0.14-0.52l0.92-0.92l0,0c0.07-0.07,0.16-0.16,0.21-0.21l0,0c0.08-0.07,0.16-0.16,0.21-0.21l0,0
			c0.25-0.25,0.41-0.41,0.41-0.41c0.51-0.48,1.08-0.89,1.67-1.25c0.93-0.54,1.97-0.89,3.03-1.03c0.08-0.01,0.17-0.03,0.25-0.03
			c0.08-0.01,0.16-0.03,0.23-0.03h0.01c1.85-0.14,3.71,0.35,5.25,1.4c0.06,0.04,0.11,0.07,0.17,0.11c0.06,0.04,0.11,0.07,0.17,0.11
			C63.8,46,64.29,46.46,64.72,47l0.1,0.13c0.03,0.04,0.07,0.08,0.1,0.13C65.14,47.48,65.32,47.76,65.49,48.05 M64.87,52.18
			c0-1.66-0.64-3.25-1.77-4.46c-0.04-0.04-0.08-0.08-0.13-0.13c-0.04-0.04-0.08-0.08-0.13-0.13c-0.57-0.54-1.22-0.98-1.94-1.27
			c-0.07-0.03-0.14-0.07-0.23-0.1s-0.17-0.06-0.25-0.08c-0.14-0.06-0.28-0.1-0.42-0.13c-1.63-0.44-3.37-0.23-4.84,0.58l-0.13,0.07
			c-0.17,0.1-0.33,0.21-0.48,0.33c-0.38,0.25-0.74,0.55-1.05,0.89l-0.16,0.13c0,0-0.01,0.01-0.04,0.04l0,0l-0.21,0.21l-0.01,0.01
			c-0.07,0.07-0.13,0.14-0.21,0.21c0,0-0.01,0-0.01,0.01l-0.47,0.47l-0.42,0.42c-0.01,0.01-0.03,0.03-0.04,0.04
			c-0.03,0.03-0.07,0.08-0.11,0.13c-0.07,0.07-0.13,0.13-0.13,0.13l0.14,0.04L52,49.65l1.43,0.38h0.01l0.28,0.08h0.01l0.3,0.08l0,0
			l1.7,0.45l0.75,0.2l4.2,1.13L60.71,52l0.24,0.06l0.03,0.01l0.21,0.06l0.03,0.01l2.38,0.64h0.01l0.17,0.04h0.01l0.17,0.04h0.01
			l0.82,0.23l0.01-0.18C64.86,52.63,64.87,52.41,64.87,52.18 M35.65,45.06c0.01,0.06,0.01,0.11,0.03,0.17
			c0.1,0.67,0.28,1.32,0.54,1.95c0.03,0.06,0.06,0.11,0.08,0.18c0.03,0.06,0.06,0.13,0.08,0.18c0.79,1.68,2.14,3.04,3.82,3.86
			l0.03,0.01c0.08-0.01,1.88-0.51,3.44-0.92c-0.03,0-0.06,0-0.08,0c-1.64-0.06-3.2-0.74-4.36-1.91c-0.13-0.13-0.24-0.25-0.37-0.4
			c-0.06-0.07-0.11-0.13-0.17-0.2l-0.14-0.2c-0.45-0.62-0.79-1.33-1-2.07c-0.01-0.06-0.03-0.11-0.04-0.17
			c-0.01-0.06-0.03-0.11-0.04-0.17c-0.42-1.83-0.03-3.75,1.08-5.26l0.1-0.14l0.13,0.13c0,0,0.18,0.18,0.48,0.48
			c0.08-0.67,0.25-1.33,0.5-1.97c-0.64-0.64-1.08-1.08-1.12-1.12c-0.2,0.17-0.65,0.58-0.65,0.58l-0.67,0.75
			c-1.15,1.46-1.77,3.25-1.75,5.11l0,0c0,0.31,0.01,0.62,0.06,0.93C35.62,44.95,35.64,45.01,35.65,45.06 M43.63,42.49
			c-0.65-0.65-1.33-1.33-1.97-1.97c-0.07,0.37-0.11,0.75-0.11,1.13c0,0.47,0.06,0.93,0.17,1.39c0.99,1,2.12,2.12,3.14,3.14
			c0.18,0.18,0.37,0.37,0.54,0.54c0.4,0.4,0.75,0.75,1.08,1.08c0.07,0.07,0.14,0.14,0.21,0.21c0.07,0.07,0.14,0.14,0.21,0.21
			c0.54,0.54,0.92,0.92,1.08,1.08c0.06,0.06,0.08,0.08,0.08,0.08l0.04,0.04l0.13,0.13l0.25,0.25l0,0c0.01,0,0.03-0.01,0.03-0.03
			c0.06-0.06,0.1-0.1,0.13-0.13c0.03-0.03,0.04-0.06,0.06-0.06l0,0c-0.01-0.03-0.03-0.08-0.04-0.14c-0.01-0.06-0.03-0.08-0.04-0.14
			c-0.01-0.06-0.03-0.1-0.04-0.14c-0.06-0.2-0.11-0.4-0.13-0.5c-0.01-0.06-0.03-0.08-0.03-0.08s-0.01-0.03-0.01-0.08
			c-0.01-0.06-0.03-0.1-0.04-0.17c-0.08-0.28-0.21-0.81-0.4-1.47l-0.08-0.08l-0.38-0.38c0,0-1.66-1.66-3.54-3.52l-0.17-0.18
			C43.75,42.61,43.69,42.56,43.63,42.49 M47.92,60.85l1.87-6.98v-0.01l0.03-0.11c-0.11-0.42-0.37-1.4-0.41-1.53
			c-0.01,0.01-0.04,0.03-0.06,0.06l0,0l-1.23,1.25c-0.01,0.01-0.03,0.03-0.04,0.04c-0.03,0.1-0.06,0.21-0.08,0.31
			c-0.42,1.61-0.95,3.58-1.46,5.45c-0.25,0.93-0.5,1.83-0.72,2.67c0.01-0.01,0.03-0.01,0.04-0.01
			C46.62,61.74,47.31,61.36,47.92,60.85 M54.41,63.2c0.04-0.06,0.08-0.11,0.11-0.17c0.03-0.06,0.08-0.11,0.11-0.17l0,0
			c0.48-0.74,0.85-1.54,1.08-2.39c0.24-0.91,0.33-1.84,0.25-2.77v-0.01l0,0c0-0.01,0-0.01,0-0.03c0-0.07-0.01-0.13-0.03-0.2
			c0-0.01,0-0.01,0-0.03V57.4c-0.01-0.07-0.01-0.13-0.03-0.2c0-0.01,0-0.01,0-0.03c0-0.01,0-0.01,0-0.03
			c-0.14-1.05-0.5-2.07-1.02-2.99c-0.35-0.61-0.78-1.16-1.26-1.67l-0.47-0.47l-0.01-0.01l-0.21-0.21l0,0l-0.21-0.21l0,0l-0.88-0.88
			l-0.13-0.13l-0.13-0.13l-0.24-0.24l-0.06-0.07l0.03,0.1l0.07,0.25l0.04,0.14l0.03,0.13v0.01c0.01,0.04,0.06,0.21,0.13,0.47l0,0
			c0.01,0.06,0.03,0.11,0.04,0.17l0,0c0.01,0.06,0.03,0.11,0.04,0.17l0,0c0.16,0.58,0.35,1.33,0.48,1.81c0,0.01,0,0.01,0,0.03
			c0,0.03,0.01,0.06,0.01,0.07c0.04,0.03,0.07,0.08,0.11,0.11c0.24,0.23,0.45,0.48,0.65,0.75c0.01,0.03,0.04,0.06,0.06,0.08
			c0.01,0.03,0.03,0.04,0.04,0.07c0.11,0.16,0.23,0.31,0.31,0.48c0.01,0.03,0.03,0.06,0.04,0.08c0.01,0.03,0.01,0.03,0.03,0.04
			c0.82,1.49,1.03,3.21,0.59,4.85c-0.03,0.1-0.06,0.18-0.08,0.27l0,0c-0.03,0.08-0.06,0.18-0.08,0.27s-0.06,0.16-0.1,0.24
			c-0.3,0.74-0.72,1.41-1.26,2l0,0c-0.04,0.04-0.08,0.08-0.13,0.13L52.24,63l0,0c-0.23,0.21-0.47,0.42-0.72,0.61
			c-0.17,0.13-0.35,0.24-0.55,0.35c-1.19,0.69-2.58,0.99-3.95,0.85l-0.18-0.01l0.21-0.78c-0.61,0.24-1.25,0.4-1.9,0.5
			c-0.01,0-0.03,0-0.04,0l0,0c-0.24,0.89-0.4,1.47-0.41,1.51c0.25,0.08,0.82,0.28,0.82,0.28l0.99,0.2c1.84,0.27,3.71-0.1,5.31-1.03
			c0.24-0.14,0.47-0.28,0.69-0.45c0.07-0.06,0.13-0.11,0.2-0.16l0,0c0.04-0.03,0.08-0.07,0.13-0.1l0,0c0.04-0.03,0.08-0.07,0.13-0.1
			c0.52-0.44,0.99-0.93,1.4-1.5 M44.93,64.28c0.04,0,0.08-0.01,0.13-0.01c0.01,0,0.03,0,0.04-0.01l0.13-0.01c0.01,0,0.03,0,0.03,0
			c0.65-0.1,1.3-0.28,1.91-0.54c0.01,0,0.03-0.01,0.04-0.01l0.14-0.07c0.01,0,0.03-0.01,0.04-0.01c0.04-0.03,0.08-0.04,0.13-0.07
			c0.01,0,0.03-0.01,0.04-0.01c0.83-0.41,1.58-0.95,2.25-1.58c0.07-0.07,0.13-0.16,0.2-0.23c0.54-0.58,0.99-1.23,1.34-1.92l0,0
			c0.03-0.04,0.06-0.08,0.07-0.13c0.01-0.03,0.03-0.06,0.03-0.07l0,0c0.01-0.03,0.03-0.06,0.04-0.1c0.01-0.04,0.03-0.08,0.06-0.13
			l0,0c0.01-0.03,0.03-0.06,0.04-0.1c0.42-1,0.65-2.08,0.64-3.18c0-0.45-0.04-0.89-0.11-1.33v-0.01C52.08,54.49,52.05,54.24,52,54
			l-0.07-0.24l-0.01-0.07l-0.01-0.03l-0.06-0.23l-0.01-0.04v-0.04l-0.06-0.21l-0.01-0.04v-0.03l-0.4-1.47l-0.04-0.17l-0.04-0.17l0,0
			l-0.07-0.3v-0.01l-0.03-0.13c-0.01-0.04-0.03-0.08-0.04-0.16l-0.11-0.42c-0.04-0.13-0.07-0.28-0.11-0.44
			c-0.03-0.1-0.06-0.2-0.08-0.3l-0.04-0.17c-0.01-0.04-0.03-0.08-0.04-0.13c-0.01-0.03,0-0.03-0.01-0.06
			c-0.01-0.06-0.03-0.11-0.04-0.17l0,0c-0.01-0.04-0.03-0.1-0.04-0.14c-0.01-0.04-0.03-0.1-0.04-0.14c-0.03-0.11-0.06-0.24-0.1-0.35
			c0-0.01,0-0.01,0-0.03c-0.01-0.04-0.03-0.1-0.04-0.14c-0.01-0.06-0.03-0.11-0.04-0.17c-0.11-0.44-0.24-0.92-0.38-1.41l0,0
			c-0.03-0.1-0.06-0.2-0.08-0.3l0,0c-0.01-0.1-0.04-0.18-0.07-0.28V46c-0.1-0.37-0.2-0.74-0.3-1.1c-0.37-1.36-0.75-2.8-1.13-4.19
			c-0.03-0.08-0.04-0.16-0.07-0.24c-0.01-0.08-0.04-0.16-0.07-0.24c-0.25-0.95-0.5-1.84-0.71-2.66c-0.01-0.06-0.03-0.11-0.06-0.17
			c-0.01-0.06-0.03-0.11-0.04-0.17c-0.18-0.71-0.35-1.34-0.51-1.88c-0.01-0.06-0.03-0.1-0.04-0.16c-0.01-0.06-0.03-0.1-0.04-0.16
			c-0.23-0.86-0.38-1.4-0.4-1.46l-0.85,0.17l-0.96,0.31c-1.73,0.68-3.18,1.92-4.12,3.52c-0.18,0.33-0.35,0.68-0.5,1.03
			c-0.01,0.06-0.04,0.11-0.06,0.16c-0.01,0.06-0.04,0.11-0.06,0.16c-0.24,0.65-0.38,1.32-0.45,2.01c0,0.07-0.01,0.13-0.01,0.21
			c-0.01,0.07-0.01,0.13-0.01,0.2c-0.01,0.13-0.03,0.24-0.03,0.37c0,1.66,0.5,3.28,1.43,4.66c0.08,0.01,1.88,0.51,3.44,0.92
			c-1.43-0.86-2.46-2.25-2.89-3.86c-0.01-0.06-0.01-0.11-0.03-0.17c-0.01-0.1-0.03-0.18-0.06-0.27c-0.03-0.08-0.04-0.18-0.06-0.27
			c-0.06-0.33-0.08-0.67-0.08-0.99c0-0.47,0.06-0.93,0.16-1.39c0.01-0.06,0.01-0.13,0.04-0.18c0.01-0.06,0.03-0.11,0.04-0.17
			c0.16-0.54,0.37-1.05,0.64-1.53c0.68-1.2,1.73-2.15,3-2.7l0.17-0.07c0,0,0.07,0.25,0.18,0.72c0.01,0.06,0.03,0.13,0.04,0.18
			c0.01,0.06,0.04,0.13,0.06,0.18c0.17,0.61,0.38,1.41,0.64,2.35c0.01,0.07,0.04,0.16,0.06,0.24c0.01,0.08,0.04,0.16,0.07,0.24
			c0.34,1.3,0.75,2.79,1.12,4.16c0.06,0.21,0.11,0.42,0.17,0.62c0.08,0.31,0.16,0.61,0.24,0.91c0.13,0.5,0.25,0.96,0.37,1.37
			c0.01,0.03,0.01,0.06,0.01,0.07c0.01,0.07,0.04,0.16,0.06,0.23c0,0.03,0.01,0.04,0.01,0.07c0.01,0.08,0.04,0.16,0.06,0.23
			c0.01,0.03,0.01,0.04,0.03,0.07c0.16,0.58,0.25,0.98,0.3,1.13c0,0.03,0.01,0.06,0.03,0.08l0.01,0.08l0.04,0.17l0.08,0.34
			l0.03,0.14l0.01,0.06l0.01,0.07l0.01,0.03l0.03,0.14l0.01,0.06l0.01,0.03l0.01,0.08l0.04,0.18l0.18,0.69l0.08,0.3l0.06,0.2
			l0.03,0.1l0.01,0.04l0.04,0.16l0.07,0.28l0.04,0.17l0.03,0.08l0,0l0.03,0.08l0.17,0.64c0,0,0.07,0.25,0.16,0.55
			c0.01,0.01,0.01,0.04,0.01,0.07c0.01,0.07,0.04,0.16,0.06,0.23c0.01,0.03,0.01,0.04,0.01,0.07c0.03,0.08,0.04,0.16,0.06,0.23
			c0.01,0.03,0.01,0.04,0.01,0.07c0.01,0.04,0.03,0.07,0.03,0.08l0.04,0.18c0.01,0.06,0.03,0.13,0.04,0.18
			c0.07,0.27,0.13,0.54,0.17,0.81v0.03c0.03,0.16,0.03,0.31,0.03,0.47c0.01,0.11,0.01,0.23,0.03,0.33v0.01c0,0.03,0,0.07,0,0.1
			c0,0.07,0,0.16-0.01,0.23c0,0.07,0,0.14-0.01,0.2v0.01c-0.07,1.16-0.45,2.28-1.1,3.23c-0.03,0.03-0.04,0.06-0.07,0.08
			c-0.1,0.13-0.18,0.27-0.3,0.4c-0.14,0.17-0.28,0.33-0.44,0.48c-0.11,0.11-0.23,0.21-0.34,0.31c-0.01,0.01-0.03,0.03-0.06,0.04
			c-0.06,0.04-0.11,0.1-0.16,0.13c-0.01,0.01-0.03,0.03-0.06,0.03c-0.04,0.04-0.1,0.08-0.16,0.11c-0.01,0.01-0.03,0.01-0.04,0.03
			c-0.61,0.45-1.3,0.79-2.02,1c-0.01,0-0.03,0.01-0.04,0.01c-0.04,0.01-0.08,0.03-0.13,0.03c-0.01,0-0.03,0.01-0.04,0.01
			c-0.04,0.01-0.08,0.01-0.13,0.03c-0.01,0-0.03,0-0.03,0.01c-0.47,0.1-0.96,0.16-1.44,0.16c-1.37,0-2.72-0.42-3.83-1.23l-0.16-0.11
			l0.5-0.5l0.13-0.13l0.14-0.14l1.74-1.74l0.17-0.17l0.2-0.2l4.97-4.97l0.04-0.04l0.17-0.17l0.04-0.04l0.17-0.17l0.04-0.06
			l0.99-0.99l0,0l0.06-0.06l0,0l-0.11-0.45l-0.04-0.16l-0.04-0.14l-0.1-0.37l-0.01-0.04l-0.03-0.13l-0.03-0.13l-0.01-0.04
			l-0.01-0.03l-0.06-0.2l-0.01-0.03l-0.01-0.04l-0.04-0.18l-0.06,0.06l-0.01,0.01l-0.03,0.03l-0.08,0.08l-0.03,0.03l-0.08,0.08
			l-0.03,0.03l-0.16,0.17l-0.13,0.13l-0.13,0.13l-1.02,1l-0.21,0.23l-0.23,0.23l-6.23,6.23l-0.13,0.13l-0.13,0.13l-1.27,1.27
			c0,0-0.04,0.04-0.11,0.11c-0.04,0.03-0.07,0.07-0.13,0.11c-0.06,0.04-0.07,0.08-0.11,0.11c-0.37,0.37-0.91,0.89-1.02,1
			c0.06,0.06,0.13,0.14,0.2,0.23l0.38,0.44l0,0l0.75,0.67c1.46,1.15,3.25,1.77,5.11,1.77c0.31,0,0.62-0.01,0.93-0.06L44.93,64.28"/>
		<path style="fill:#5F6638;" d="M13.25,55.25h-1.39c-0.59,0-1.37-0.44-1.37-1.71v-7.09c0-1.06,0.71-1.8,1.56-1.8
			c0.85,0,1.47,0.74,1.47,1.8v0.23h-0.85v-0.42c0.01-0.34-0.24-0.62-0.58-0.65c-0.01,0-0.03,0-0.04,0c-0.33,0-0.61,0.25-0.61,0.59
			c0,0.01,0,0.03,0,0.06v7.47c0,0.44,0.18,0.72,0.61,0.72s0.62,0,0.62,0v-3.45h-0.55v-0.85h1.5v5.11H13.25z"/>
		<polygon style="fill:#5F6638;" points="15.97,55.26 15.97,44.78 18.52,44.78 18.52,45.67 16.92,45.67 16.92,49.42 18.08,49.42 
			18.08,50.33 16.92,50.33 16.92,54.37 18.52,54.37 18.52,55.26 		"/>
		<polygon style="fill:#5F6638;" points="23.36,55.26 21.97,49.84 21.66,48.25 21.66,55.26 20.75,55.26 20.75,44.78 21.69,44.78 
			22.89,50.25 23.17,51.88 23.17,44.78 24.06,44.78 24.06,55.26 		"/>
		<polygon style="fill:#5F6638;" points="28.18,45.7 28.18,55.26 27.23,55.26 27.23,45.7 26.22,45.7 26.22,44.78 29.13,44.78 
			29.13,45.7 		"/>
		<polygon style="fill:#5F6638;" points="31.31,55.26 31.31,44.78 32.24,44.78 32.24,54.32 33.8,54.32 33.8,55.26 		"/>
		<polygon style="fill:#5F6638;" points="36.01,55.26 36.01,44.78 38.55,44.78 38.55,45.67 36.95,45.67 36.95,49.42 38.11,49.42 
			38.11,50.33 36.95,50.33 36.95,54.37 38.55,54.37 38.55,55.26 		"/>
		<polygon style="fill:#5F6638;" points="44.35,55.26 44.35,47.44 44.2,49.18 43.45,55.26 42.6,55.26 41.84,49.18 41.65,47.44 
			41.65,55.26 40.83,55.26 40.83,44.78 42.2,44.78 42.91,51.23 43.08,52.97 43.25,51.23 43.93,44.78 45.27,44.78 45.27,55.26 		"/>
		<polygon style="fill:#5F6638;" points="47.72,55.26 47.72,44.78 50.28,44.78 50.28,45.67 48.67,45.67 48.67,49.42 49.84,49.42 
			49.84,50.33 48.67,50.33 48.67,54.37 50.28,54.37 50.28,55.26 		"/>
		<polygon style="fill:#5F6638;" points="55.12,55.26 53.74,49.84 53.42,48.25 53.42,55.26 52.52,55.26 52.52,44.78 53.45,44.78 
			54.66,50.25 54.94,51.88 54.94,44.78 55.83,44.78 55.83,55.26 		"/>
		<path style="fill:#5F6638;" d="M60.27,55.39c-0.98,0-1.56-0.72-1.56-1.78v-0.07h0.92v0.11c0,0.52,0.25,0.92,0.61,0.92
			c0.48,0,0.68-0.33,0.68-0.92c0-1.06-0.37-2.02-0.93-3.21c-0.51-1.03-1.2-2.63-1.2-3.72c0-1.22,0.48-2.08,1.6-2.08
			c0.86,0,1.41,0.72,1.41,1.8v0.17h-0.91v-0.14c0-0.64-0.18-0.93-0.54-0.93c-0.41,0-0.67,0.27-0.67,0.83c0,1.23,0.38,2.05,1.02,3.4
			c0.61,1.27,1.1,2.49,1.1,3.59C61.84,55.01,60.91,55.39,60.27,55.39"/>
		<polygon style="fill:#5F6638;" points="57,44.79 57.92,44.79 57.47,47.59 		"/>
		<polygon style="fill:#5F6638;" points="68.97,45.7 68.97,55.26 68.03,55.26 68.03,45.7 66.99,45.7 66.99,44.76 69.91,44.76 
			69.91,45.7 		"/>
		<path style="fill:#5F6638;" d="M73.5,44.65c-0.85,0-1.56,0.74-1.56,1.8v7.16c0,1.08,0.71,1.8,1.56,1.8s1.56-0.72,1.56-1.8v-7.16
			C75.06,45.39,74.35,44.65,73.5,44.65z M74.11,53.78c0.03,0.34-0.23,0.62-0.57,0.65c-0.01,0-0.04,0-0.06,0
			c-0.4,0-0.62-0.28-0.62-0.65v-7.53c-0.03-0.34,0.23-0.62,0.55-0.65c0.01,0,0.04,0,0.06,0c0.34,0,0.61,0.27,0.61,0.61
			c0,0.01,0,0.03,0,0.04v7.53H74.11z"/>
		<polygon style="fill:#5F6638;" points="80.02,55.26 78.64,49.84 78.33,48.26 78.33,55.26 77.42,55.26 77.42,44.76 78.36,44.76 
			79.54,50.25 79.83,51.88 79.83,44.76 80.73,44.76 80.73,55.26 		"/>
		<rect x="83.15" y="44.76" style="fill:#5F6638;" width="0.96" height="10.5"/>
		<path style="fill:#5F6638;" d="M88.03,55.39c-0.85,0-1.53-0.72-1.53-1.8v-7.16c0-1.06,0.68-1.8,1.53-1.8s1.47,0.74,1.47,1.8v0.2
			h-0.83v-0.4c0-0.35-0.23-0.65-0.61-0.65c-0.38,0-0.61,0.3-0.61,0.65v7.53c0,0.37,0.23,0.65,0.61,0.65c0.4,0,0.61-0.28,0.61-0.65
			v-0.4h0.82v0.21C89.49,54.66,88.88,55.39,88.03,55.39"/>
	</g>
</g>
</svg>
