<?xml version="1.0" encoding="utf-8"?>
<svg version="1.1" id="Layer_1" xmlns="http://www.w3.org/2000/svg" xmlns:xlink="http://www.w3.org/1999/xlink" x="0px" y="0px"
	width="100px" height="100px" viewBox="0 0 66.7 66.7" style="enable-background:new 0 0 66.7 66.7;" xml:space="preserve">
<g>
	<circle style="fill:#E8E8E8;" cx="33.3" cy="33.3" r="33.3"/>
	<circle style="fill:#FFFFFF;" cx="33.3" cy="33.3" r="32.7"/>
	<path style="fill:#1D1D1B;" d="M13.9,36.8c1-0.1,1.9-0.4,1.9-1.4v-3.2l-0.5-0.4l-0.5,0.5v2.4l0.4,0.4l-0.9,0.8l0,0l-0.9-0.7
		l0.2-0.2V30c0-0.3-0.2-0.5-0.4-0.6v-0.1c0.1-0.1,0.2-0.1,0.4-0.1c0.3,0,0.6,0.2,0.7,0.4h0.1c0.2-0.3,0.5-0.4,0.7-0.4h0.3v0.1
		c-0.2,0.1-0.4,0.2-0.4,0.7v2l1.3-1.1h0.1c0.1,0.1,0.6,0.5,0.7,0.6c0.1,0.1,0.1,0.1,0.2,0.1c0.1,0,0.1-0.1,0.3-0.1v0.1
		c-0.1,0.1-0.2,0.2-0.2,0.5v2.7c0,1.2-1.4,1.9-3.1,2.1v-0.2L13.9,36.8L13.9,36.8C13.9,36.8,13.9,36.8,13.9,36.8z M13.5,29.3
		c0.2,0.1,0.3,0.3,0.3,0.6v4.9l-0.1,0.2l0.7,0.6l0.2-0.2L14,35l0.1-0.1V30C14.1,29.6,13.7,29.4,13.5,29.3 M15.6,36.5
		c0.3-0.2,0.7-0.5,0.7-1v-3.4l-0.5-0.6l-0.3,0.2l0.5,0.5v3.2C15.9,35.9,15.8,36.3,15.6,36.5z M17.8,32.1c0.5-0.3,1.3-0.7,1.9-1.1
		h0.1l1.3,1.3v0.1l-1.9,1.3v0.8c0.1,0.1,0.7,0.4,1.1,0.5l0.8-0.7l0.1,0.1l-1.5,1.5h-0.1c-0.6-0.2-1.1-0.5-1.7-0.7
		c0.1-0.2,0.1-0.5,0.1-1.1L17.8,32.1L17.8,32.1L17.8,32.1L17.8,32.1z M19.7,35.5c-0.5-0.2-1-0.5-1.5-0.7c0.1-0.1,0-0.3,0-0.9v-2
		l-0.3,0.2V34v1l1.5,0.7C19.4,35.7,19.7,35.5,19.7,35.5z M19.1,33.5l0.9-0.6c-0.3-0.3-0.6-0.6-0.9-1V33.5z M19.3,31.5l-0.2,0.2
		l1,1.1l0.3-0.2L19.3,31.5 M56.2,36.8c0.9-0.1,1.9-0.4,1.9-1.4v-3.2l-0.5-0.5l-0.5,0.5v2.4l0.4,0.4l-0.9,0.8h-0.1l-0.9-0.7l0.2-0.2
		V30c0-0.3-0.2-0.5-0.4-0.6v-0.1c0.1-0.1,0.2-0.1,0.4-0.1c0.3,0,0.6,0.2,0.7,0.4h0.1c0.2-0.3,0.5-0.4,0.7-0.4h0.3v0.1
		c-0.1,0.1-0.4,0.2-0.4,0.7v2l1.2-1.1h0.1c0.1,0.1,0.6,0.5,0.7,0.6c0.1,0.1,0.1,0.1,0.1,0.1s0.2-0.1,0.2-0.1v0.2
		c0,0.1-0.2,0.2-0.2,0.5v2.7c0,1.2-1.3,1.9-3.1,2.1C56.1,36.9,56.2,36.8,56.2,36.8C56.2,36.8,56.2,36.8,56.2,36.8z M55.7,29.3
		c0.1,0.1,0.3,0.3,0.3,0.6v4.9l-0.2,0.2l0.7,0.6l0.2-0.2L56.2,35l0.1-0.1V30C56.3,29.6,56,29.4,55.7,29.3 M57.7,36.5
		c0.3-0.2,0.7-0.5,0.7-1v-3.3l-0.5-0.6l-0.3,0.2l0.4,0.5v3.2C58.3,35.9,58,36.3,57.7,36.5z M29.3,32.1c0.5-0.3,1.4-0.7,1.9-1.1h0.1
		c0.3,0.3,0.8,0.9,1.2,1.3v0.1l-1.9,1.3v0.8c0.2,0.1,0.8,0.4,1.1,0.5l0.8-0.7l0.1,0.1l-1.5,1.5h-0.1c-0.5-0.2-1.2-0.5-1.7-0.7
		c0.1-0.2,0.1-0.6,0.1-1.1v-1.9L29.3,32.1L29.3,32.1C29.3,32.1,29.3,32.1,29.3,32.1z M31.2,35.5l-1.5-0.7c0.1-0.1,0-0.3,0-0.8v-2
		l-0.2,0.1V34c0,0.5,0,0.9-0.1,1l1.5,0.7C31.1,35.7,31.2,35.5,31.2,35.5z M30.7,33.5l0.9-0.6c-0.3-0.3-0.6-0.7-0.9-1V33.5z
		 M30.9,31.5l-0.3,0.2l1,1.1l0.3-0.2C31.5,32.3,31.2,31.9,30.9,31.5 M34.3,29.9v4.7c0,0.2,0.2,0.4,0.4,0.5l0.3-0.3l0.1,0.1l-1,1H34
		c-0.3-0.1-0.9-0.4-0.9-1v-4.4l-0.3-0.3l-0.3,0.3l-0.1-0.1l1.1-1.1h0.1C33.7,29.3,34.3,29.9,34.3,29.9z M34.3,35.5
		c-0.3-0.1-0.7-0.3-0.7-0.8v-4.4l-0.4-0.4l-0.3,0.2l0.3,0.3v4.4c0,0.5,0.4,0.8,0.8,0.9C34,35.7,34.3,35.5,34.3,35.5z M35.5,32.1
		c0.5-0.3,1.3-0.7,1.9-1.1h0.1c0.3,0.3,0.8,0.9,1.3,1.3v0.1l-1.9,1.3v0.8c0.4,0.2,0.7,0.4,1.1,0.5l0.8-0.7l0.1,0.1l-1.5,1.5h-0.1
		c-0.5-0.2-1.2-0.5-1.7-0.7c0.1-0.2,0.1-0.6,0.1-1.1L35.5,32.1L35.5,32.1C35.5,32.1,35.5,32.1,35.5,32.1z M37.3,35.5
		c-0.5-0.2-1-0.4-1.5-0.7c0.1-0.1,0-0.3,0-0.8v-2l-0.2,0.1V34c0,0.5,0,0.9-0.1,1l1.5,0.7C37.2,35.7,37.3,35.5,37.3,35.5z M36.8,33.5
		l0.9-0.6c-0.3-0.3-0.6-0.6-0.9-1V33.5z M37.1,31.5l-0.2,0.2l1,1.1l0.2-0.2L37.1,31.5 M45,32.3v2.3c0,0.2,0.2,0.4,0.4,0.4l0.3-0.3
		l0.1,0.1l-1,1.1h-0.1c-0.3-0.1-0.9-0.4-0.9-1.1v-2.6l-0.3-0.3l-0.3,0.3l-0.1-0.1l1.1-1.1h0.1l0.7,0.7v0.4l0.9-1.1h0.1l0.7,0.7
		L46,32.5c-0.2-0.2-0.5-0.5-0.7-0.6L45,32.3L45,32.3L45,32.3L45,32.3z M44.9,35.5c-0.3-0.1-0.7-0.3-0.7-0.8V32l-0.3-0.4l-0.3,0.2
		l0.3,0.3v2.7c0,0.5,0.4,0.8,0.8,0.9C44.7,35.7,44.9,35.5,44.9,35.5L44.9,35.5C44.9,35.5,44.9,35.5,44.9,35.5z M45.5,31.9
		c0.1,0.1,0.3,0.3,0.5,0.5l0.2-0.2c-0.2-0.1-0.5-0.4-0.6-0.5C45.6,31.6,45.5,31.9,45.5,31.9z M47.9,35.8l-1.1-0.7v-1.5l1.1-0.7
		c-0.5-0.2-0.8-0.5-1-0.8v-0.1c0.5-0.3,1.1-0.7,1.5-1.1h0.1l1.4,0.7c0.1,0.1,0.1,0.1,0.2,0.1s0.1-0.1,0.3-0.1v0.1
		c-0.1,0.1-0.2,0.2-0.2,0.4v2.4c0,0.3,0.2,0.4,0.4,0.5l0.3-0.3l0.1,0.1l-1,1.1h-0.1c-0.4-0.1-0.9-0.5-0.9-0.9L48.1,36L47.9,35.8
		L47.9,35.8L47.9,35.8C47.9,35.8,47.9,35.8,47.9,35.8z M48.2,35.5l-0.9-0.6v-1.3l-0.3,0.2V35l1,0.7L48.2,35.5L48.2,35.5z M48.9,33.1
		v-0.7l-1.3-0.7c-0.1,0.1-0.5,0.3-0.5,0.3C47.4,32.5,48.3,33,48.9,33.1 M50.1,35.5c-0.3-0.1-0.7-0.4-0.7-0.9v-2.5L48,31.5
		c-0.1,0.1-0.2,0.1-0.2,0.2l1.3,0.7v2.4c0,0.5,0.5,0.8,0.8,0.9L50.1,35.5C50.1,35.5,50.1,35.5,50.1,35.5z M48.9,34.7v-1.5L48,32.9
		v1.8l0.5,0.3C48.5,35.1,48.9,34.7,48.9,34.7z M39.1,35.1v-3l1.7-1.1h0.1l1.5,0.6c0.1,0,0.1,0.1,0.2,0.1s0.2-0.1,0.3-0.1v0.2
		c-0.1,0.1-0.2,0.3-0.2,0.4v2.5c0,0.6,0.1,0.9,0.3,1.1v0.1l-1.5,1.6h-0.1c-0.3-0.2-0.9-0.4-1.4-0.4c-0.3,0-0.7,0.1-1,0.3L39,37.3
		c0.3-0.6,0.9-1.3,1.6-1.3c0.5,0,1.1,0.2,1.6,0.5c-0.3-0.4-0.7-1.1-0.7-1.7l-0.9,0.9h-0.1L39.1,35.1C39.1,35.1,39.1,35.1,39.1,35.1z
		 M39.9,36.8c-0.3,0-0.7,0.2-0.9,0.4v0.1c0.3-0.1,0.5-0.2,0.9-0.2c0.5,0,1.1,0.1,1.4,0.3l0.2-0.2C41.1,37,40.5,36.8,39.9,36.8
		 M40.3,35.7l0.2-0.2l-0.9-0.7V32l-0.2,0.2v2.9L40.3,35.7L40.3,35.7L40.3,35.7z M41.8,32.1l-1.3-0.6v0.3l1,0.5v2.7
		c0,0.6,0.3,1.2,0.7,1.7l0.2-0.2c-0.3-0.5-0.6-0.9-0.6-1.5L41.8,32.1C41.8,32.1,41.8,32.1,41.8,32.1z M41.3,34.7v-2.5l-0.9-0.4v2.8
		l0.6,0.4L41.3,34.7C41.3,34.7,41.3,34.7,41.3,34.7z M52.8,32.1l1.1-1.1H54c0.1,0.1,0.6,0.6,0.7,0.6l0.1,0.1c0.1,0,0.3-0.1,0.3-0.1
		v0.2c0,0.1-0.2,0.3-0.2,0.5v2.9c-0.4,0.1-0.9,0.3-1.3,0.9h-0.1l-0.9-0.1v0.6l0.5,0.3l-0.9,0.8h-0.1l-0.9-0.7l0.2-0.3v-1.1
		c-0.1,0-0.3-0.1-0.4-0.1v-0.1c0.1-0.1,0.4-0.3,0.4-0.5v-2.5L51.3,32L51,32.3l-0.1-0.1l1.1-1.1h0.1l0.7,0.7L52.8,32.1
		C52.9,32.1,52.8,32.1,52.8,32.1L52.8,32.1z M51.7,36.6l-0.2,0.2l0.7,0.7l0.2-0.2l-0.6-0.5l0.1-0.1V32l-0.4-0.4l-0.2,0.2l0.3,0.3
		L51.7,36.6L51.7,36.6C51.7,36.6,51.7,36.6,51.7,36.6z M53.7,34.9v-2.6l-0.5-0.5l-0.5,0.5v2.4C52.9,34.7,53.6,34.8,53.7,34.9
		 M53.6,35.8c0.1-0.1,0.1-0.2,0.2-0.2l-1-0.2v0.3C52.7,35.7,53.6,35.8,53.6,35.8z M53.3,31.8l0.5,0.5v2.6l0.2-0.1v-2.7l-0.5-0.5
		L53.3,31.8z M7.5,33.2c0-1.1,0.9-1.9,1.7-2.3L9.3,31c-0.3,0.3-0.5,0.6-0.5,1.3c0,0.8,0.2,1.3,0.5,1.7c0.1-0.1,0.2-0.3,0.2-0.5v-1.1
		l1.5-1v0.1c-0.1,0.1-0.2,0.3-0.2,0.6v0.7c0,0.5-0.9,1.1-1.4,1.3c0.3,0.3,0.9,0.5,1.4,0.5c0.2,0,0.3,0,0.5-0.1v-3.3
		c-0.5-0.1-0.9-0.1-1.3-0.3c-0.5-0.1-0.9-0.3-1.3-0.3c-0.6,0-1.3,0.2-1.3,1v0.3l-0.1,0.1c-0.1-0.3-0.1-0.5-0.1-0.7
		c0-1,0.7-1.9,2-1.9c0.5,0,1,0.1,1.5,0.3c0.5,0.1,0.9,0.3,1.3,0.3c0.2,0,0.3-0.1,0.3-0.3c0,0,0,0,0,0c0-0.2-0.1-0.3-0.3-0.3v-0.1
		c0.5,0.1,1.1,0.4,1.1,1.1c0.1,0.7-0.5,1.1-1.5,1.1h-0.1v3.3c0.7-0.1,1.1-0.4,1.4-0.9l0.1,0.1c-0.3,1.1-1.2,2.2-2.7,2.2
		S7.5,35,7.5,33.2 M11.6,30.9c-1.1,0-2.1-0.5-2.8-0.5c-0.5,0-1.1,0.2-1.3,0.8h0.1c0.2-0.4,0.7-0.5,1.3-0.5c0.8,0,1.7,0.5,2.8,0.5
		c0.9,0,1.4-0.3,1.5-1h-0.1C12.9,30.7,12.5,30.9,11.6,30.9 M8.5,31.5c-0.4,0.4-0.7,0.9-0.7,1.7c0,1.7,1.1,2.5,2.6,2.5
		c0.7,0,1.4-0.3,1.9-0.9l-0.1-0.1c-0.4,0.3-1,0.6-1.9,0.6c-1.1,0-2.3-0.7-2.3-2.3C8,32.6,8.2,31.9,8.5,31.5
		C8.5,31.5,8.5,31.5,8.5,31.5z M9.9,33.5v-1.2l-0.3,0.2v1.1v0.3h0.1C9.8,33.7,9.9,33.6,9.9,33.5 M23.5,33.2c0-1.1,0.9-1.9,1.7-2.3
		l0.1,0.1c-0.3,0.3-0.5,0.7-0.5,1.3c0,0.8,0.2,1.3,0.5,1.7c0.1-0.1,0.1-0.3,0.1-0.5v-1.1l1.5-1.1l0.1,0.1c-0.1,0.2-0.1,0.3-0.1,0.6
		v0.7c0,0.5-0.9,1.1-1.4,1.3c0.3,0.3,0.9,0.5,1.4,0.5c0.2,0,0.3,0,0.5-0.1v-3.3c-0.5-0.1-0.9-0.1-1.3-0.3c-0.5-0.1-0.9-0.3-1.3-0.3
		c-0.6,0-1.3,0.2-1.3,1v0.3l-0.1,0.2c-0.1-0.3-0.1-0.5-0.1-0.7c0-1,0.7-1.9,1.9-1.9c0.5,0,1,0.1,1.4,0.3c0.5,0.1,0.9,0.3,1.3,0.3
		c0.2,0,0.3-0.1,0.3-0.3c0,0,0,0,0,0c0-0.2-0.1-0.3-0.3-0.3v-0.1c0.5,0.1,1.1,0.4,1.1,1.1c0,0.8-0.5,1.2-1.5,1.2h-0.1v3.2
		c0.7-0.1,1.1-0.4,1.4-0.9l0.1,0.1c-0.3,1.1-1.2,2.2-2.7,2.2C24.7,35.9,23.5,35,23.5,33.2 M27.5,30.9c-1.1,0-2.1-0.5-2.8-0.5
		c-0.5,0-1.1,0.2-1.3,0.8h0.1c0.2-0.4,0.7-0.5,1.3-0.5c0.8,0,1.7,0.5,2.8,0.5c0.9,0,1.4-0.3,1.5-1h-0.1
		C28.7,30.7,28.3,30.9,27.5,30.9 M24.4,31.5c-0.4,0.4-0.7,0.9-0.7,1.7c0,1.7,1.1,2.5,2.6,2.5c0.7,0,1.4-0.3,1.9-0.9l-0.1-0.1
		c-0.4,0.3-1,0.6-1.9,0.6c-1.1,0-2.3-0.7-2.3-2.3C23.9,32.6,24.1,31.9,24.4,31.5C24.4,31.5,24.4,31.5,24.4,31.5z M25.8,33.5v-1.2
		l-0.2,0.2v1.1v0.3h0.1C25.7,33.8,25.8,33.7,25.8,33.5"/>
</g>
</svg>
