<?xml version="1.0" encoding="utf-8"?>
<svg version="1.1" id="Layer_1" xmlns="http://www.w3.org/2000/svg" xmlns:xlink="http://www.w3.org/1999/xlink" x="0px" y="0px"
	width="100px" height="100px" viewBox="0 0 100 100" style="enable-background:new 0 0 100 100;" xml:space="preserve">
<g>
	<path style="fill:#E8E8E8;" d="M50,0c27.6,0,50,22.4,50,50s-22.4,50-50,50S0,77.6,0,50S22.4,0,50,0"/>
	<path style="fill:#FFFFFF;" d="M50,1c27.1,0,49,21.9,49,49S77.1,99,50,99S1,77.1,1,50S22.9,1,50,1"/>
	<g transform="scale(0.9410288582183187) translate(10, 10)">
		<g id="SvgjsG2318">
		</g>
		<g id="_x31_544044734791">
			<path style="fill:#65CEC8;" d="M48.8,61.9c-0.3-0.3-0.6-0.6-1-0.8c-0.4-0.2-0.8-0.4-1.3-0.6c-0.4-0.2-0.9-0.4-1.4-0.5
				c-0.5-0.2-0.9-0.3-1.4-0.5c-0.4-0.2-0.9-0.4-1.3-0.6c-0.4-0.2-0.7-0.5-1-0.8c-0.3-0.3-0.5-0.7-0.7-1.1c-0.2-0.4-0.3-1-0.3-1.6
				c0-0.6,0.1-1.1,0.3-1.7s0.5-1.1,0.8-1.5c0.3-0.5,0.7-0.9,1.2-1.3c0.5-0.4,0.9-0.7,1.5-1c0.5-0.3,1.1-0.5,1.6-0.7
				c0.6-0.2,1.1-0.2,1.6-0.2c0.4,0,0.7,0.1,1,0.2c0.3,0.1,0.5,0.3,0.7,0.5c0.2,0.2,0.3,0.5,0.4,0.8c0.1,0.3,0.1,0.6,0.1,1
				c0,0.5-0.1,1-0.3,1.5s-0.5,0.9-0.8,1.3c-0.3,0.4-0.7,0.7-1.2,1c-0.5,0.3-0.9,0.5-1.4,0.6v0.2h0.2c0.6,0,1.2-0.1,1.8-0.3
				c0.6-0.2,1.2-0.5,1.7-0.9c0.5-0.4,0.9-0.9,1.2-1.4c0.3-0.5,0.5-1.1,0.5-1.8l0,0c0-0.6-0.1-1.1-0.3-1.5c-0.2-0.4-0.5-0.7-0.8-1
				s-0.7-0.5-1.2-0.6c-0.5-0.1-0.9-0.2-1.5-0.2c-0.7,0-1.4,0.1-2.2,0.2c-0.7,0.2-1.4,0.4-2.1,0.7c-0.7,0.3-1.3,0.7-1.8,1.2
				c-0.6,0.5-1.1,1-1.5,1.5c-0.4,0.6-0.8,1.2-1,1.9c-0.2,0.7-0.4,1.4-0.4,2.2c0,0.9,0.1,1.6,0.4,2.1c0.3,0.6,0.6,1.1,1.1,1.5
				c0.4,0.4,0.9,0.7,1.5,1c0.6,0.3,1.1,0.5,1.7,0.7c0.6,0.2,1.2,0.4,1.7,0.6c0.6,0.2,1.1,0.4,1.5,0.7c0.4,0.3,0.8,0.6,1.1,1
				c0.3,0.4,0.4,0.9,0.4,1.6c0,0.4-0.1,0.8-0.2,1.2c-0.2,0.3-0.4,0.6-0.7,0.9c-0.3,0.2-0.6,0.4-1,0.5s-0.8,0.2-1.2,0.2
				c-0.5,0-1-0.1-1.5-0.3c-0.5-0.2-0.9-0.4-1.3-0.8c-0.4-0.3-0.7-0.7-1-1.1c-0.3-0.4-0.6-0.8-0.8-1.2l-0.2,0.1
				c0.2,0.5,0.4,1,0.8,1.5c0.3,0.5,0.7,0.9,1.1,1.2c0.4,0.4,0.9,0.6,1.4,0.9c0.5,0.2,1.1,0.3,1.7,0.3c0.6,0,1.1-0.1,1.7-0.3
				c0.5-0.2,1-0.4,1.5-0.8c0.4-0.3,0.8-0.8,1-1.2c0.3-0.5,0.4-1.1,0.4-1.7c0-0.6-0.1-1.1-0.3-1.5C49.4,62.5,49.1,62.2,48.8,61.9z"/>
			<path style="fill:#65CEC8;" d="M32.7,63.2c-0.5,0.2-1.1,0.3-1.7,0.3c-0.8,0-1.4-0.2-1.9-0.6c-0.5-0.4-0.7-0.9-0.8-1.6h0.3
				c0.2,0,0.5,0,0.8-0.1c0.3,0,0.6-0.1,0.9-0.2c0.3-0.1,0.6-0.2,0.9-0.3c0.3-0.1,0.5-0.3,0.7-0.5c0.2-0.2,0.4-0.4,0.5-0.6
				s0.2-0.5,0.2-0.9c0-0.3,0-0.5-0.1-0.7s-0.2-0.4-0.4-0.5c-0.2-0.1-0.4-0.2-0.6-0.3c-0.2-0.1-0.5-0.1-0.7-0.1
				c-0.6,0-1.1,0.1-1.6,0.3c-0.5,0.2-0.9,0.5-1.3,0.9s-0.6,0.8-0.8,1.3c-0.2,0.5-0.3,1-0.3,1.6c0,0.6,0.1,1.1,0.3,1.5c0,0,0,0,0,0
				c0,0.1-0.1,0.1-0.2,0.2c-0.2,0.2-0.3,0.3-0.5,0.5c-0.2,0.1-0.4,0.2-0.6,0.3c-0.2,0.1-0.4,0.1-0.6,0.1c-0.2,0-0.5-0.1-0.6-0.3
				s-0.3-0.5-0.5-0.8c-0.1-0.3-0.2-0.7-0.3-1.1s-0.1-0.8-0.2-1.2c-0.1-0.4-0.1-0.8-0.1-1.1c0-0.4-0.1-0.6-0.1-0.9
				c0-0.1,0-0.2-0.1-0.3c0-0.1-0.1-0.2-0.1-0.3c0-0.1-0.1-0.2-0.2-0.3c-0.1-0.1-0.2-0.1-0.3-0.1c-0.1,0-0.2,0-0.3,0.1
				c-0.1,0.1-0.2,0.1-0.3,0.2s-0.1,0.2-0.2,0.3c-0.1,0.1-0.1,0.2-0.2,0.3c-0.4,0.7-0.9,1.5-1.2,2.3c-0.4,0.8-0.7,1.7-1.1,2.6
				c-0.1-1-0.2-1.5-0.2-1.6c0-0.1-0.1-0.6-0.1-1.4c0-0.9,0-1.3,0-1.3v-1.2c0-0.6,0-1.2,0.1-1.9s0.2-1.3,0.3-1.9
				c0.1-0.6,0.3-1.3,0.5-1.8c0.2-0.6,0.4-1.1,0.7-1.5s0.5-0.8,0.8-1.1c0.3-0.3,0.6-0.4,1-0.4c0.2,0,0.3,0,0.4,0.1
				c0.1,0.1,0.2,0.2,0.3,0.3c0.1,0.1,0.1,0.2,0.2,0.4s0,0.3,0,0.5c0,0.3,0,0.7-0.1,1s-0.2,0.8-0.3,1.2c-0.1,0.4-0.3,0.8-0.5,1.2
				c-0.2,0.4-0.4,0.8-0.6,1.2c-0.2,0.4-0.4,0.7-0.6,1s-0.4,0.6-0.6,0.8l0.2,0.1c0.4-0.5,0.9-1,1.4-1.5c0.5-0.5,0.9-1.1,1.3-1.7
				s0.7-1.2,1-1.9c0.2-0.7,0.4-1.4,0.4-2.1c0-0.5-0.1-0.8-0.4-1.1s-0.6-0.4-1-0.4c-0.7,0-1.3,0.1-1.8,0.4c-0.5,0.3-1,0.7-1.4,1.2
				c0,0-0.1,0.1-0.1,0.1c-0.2-0.1-0.4-0.1-0.6-0.2c-0.5-0.2-1.1-0.3-1.7-0.4c-0.6-0.1-1.2-0.2-1.8-0.3c-0.6-0.1-1.2-0.1-1.8-0.2
				c0-0.2,0.1-0.4,0.1-0.6c0-0.2,0.1-0.3,0.1-0.4L14,47.4c-0.1,0.3-0.3,0.6-0.4,1c-0.3,0-0.5,0-0.8,0c-0.3,0-0.5,0-0.7,0
				c-0.2,0-0.5,0-0.8,0s-0.6,0.1-1,0.1c-0.4,0-0.7,0.1-1.1,0.2c-0.4,0.1-0.7,0.2-1.1,0.3c-0.3,0.1-0.6,0.2-0.9,0.4
				c-0.3,0.1-0.5,0.3-0.6,0.5c-0.1,0.1-0.2,0.3-0.3,0.4c-0.1,0.2-0.1,0.3-0.1,0.5c0,0.2,0.1,0.3,0.3,0.3c0.1,0,0.2,0,0.3-0.1
				c0.4-0.1,0.9-0.3,1.4-0.4c0.5-0.1,1-0.2,1.5-0.3s1.1-0.2,1.7-0.2c0.6-0.1,1.1-0.1,1.7-0.2c-0.2,0.7-0.3,1.4-0.5,2.2
				c-0.1,0.8-0.3,1.6-0.4,2.4c-0.1,0.8-0.2,1.6-0.3,2.5c-0.1,0.8-0.1,1.6-0.2,2.4c0,0.8-0.1,1.5-0.1,2.2c0,0.7,0,1.4,0,1.9
				c0,0.2,0,0.6,0,0.9c0,0.4,0,0.8,0.1,1.2c0.1,0.4,0.1,0.8,0.3,1.1c0.1,0.3,0.3,0.6,0.5,0.7c0.1,0.1,0.3,0.2,0.4,0.3
				c0.2,0.1,0.3,0.1,0.5,0.1c0.1,0,0.2,0,0.3-0.1c0.1-0.1,0.1-0.2,0.1-0.3c0-0.1,0-0.1,0-0.2c0-0.1,0-0.1-0.1-0.2
				c-0.1-0.4-0.2-1-0.3-1.6c-0.1-0.6-0.2-1.3-0.2-2c0-0.7-0.1-1.5-0.1-2.3c0-0.8,0-1.6,0-2.4c0-0.8,0-1.6,0.1-2.5
				c0-0.8,0.1-1.6,0.1-2.4c0-0.8,0.1-1.5,0.2-2.2c0.1-0.7,0.1-1.3,0.2-1.9c0.3,0,0.6,0,0.8,0c0.3,0,0.5,0,0.8,0c0.8,0,1.7,0,2.5,0.1
				c0.5,0,1,0.1,1.5,0.1c-0.2,0.3-0.5,0.7-0.7,1.1c-0.3,0.6-0.6,1.3-0.8,2.1c-0.2,0.7-0.3,1.5-0.4,2.2c-0.1,0.8-0.1,1.5-0.1,2.2
				c0,0.5,0,1,0,1.6c0,0.6,0.1,1.2,0.1,1.7c0.1,0.6,0.1,1.1,0.2,1.6c0.1,0.5,0.2,0.9,0.2,1.3c0,0.1,0,0.1,0.1,0.2
				c0,0.1,0.1,0.1,0.1,0.2c0,0.1,0.1,0.1,0.2,0.1c0.1,0,0.2,0.1,0.3,0.1c0.1,0,0.2,0,0.3-0.1c0.1-0.1,0.2-0.1,0.2-0.2
				c0.1-0.1,0.1-0.2,0.2-0.3c0-0.1,0.1-0.2,0.1-0.3c0.2-0.4,0.4-0.8,0.6-1.2c0.2-0.4,0.4-0.8,0.5-1.2c0.2-0.4,0.4-0.8,0.6-1.1
				c0.2-0.4,0.4-0.7,0.7-1c0,0.3,0.1,0.7,0.1,1.1c0,0.4,0.1,0.8,0.2,1.2c0.1,0.4,0.2,0.8,0.3,1.2c0.1,0.4,0.3,0.7,0.4,1
				c0.2,0.3,0.4,0.5,0.6,0.7c0.3,0.2,0.6,0.3,0.9,0.3c0.3,0,0.6-0.1,0.9-0.2s0.5-0.3,0.8-0.5c0.2-0.2,0.4-0.5,0.6-0.7
				c0.1-0.1,0.2-0.2,0.2-0.4c0.2,0.3,0.4,0.6,0.7,0.8c0.3,0.3,0.7,0.5,1.2,0.6c0.5,0.1,0.9,0.2,1.5,0.2c0.4,0,0.7-0.1,1.1-0.2
				c0.4-0.1,0.7-0.3,1.1-0.4c0.3-0.2,0.6-0.4,0.9-0.7c0.3-0.3,0.5-0.5,0.7-0.8l-0.1,0C33.8,62.7,33.3,63,32.7,63.2z M28.3,60.7
				c0-0.3,0-0.5,0.1-0.9c0.1-0.3,0.2-0.6,0.3-0.9c0.1-0.3,0.3-0.5,0.6-0.8c0.2-0.2,0.5-0.3,0.9-0.3c0.3,0,0.6,0.1,0.7,0.3
				s0.2,0.5,0.2,0.8c0,0.3-0.1,0.6-0.2,0.9c-0.2,0.3-0.3,0.5-0.6,0.6c-0.2,0.2-0.5,0.3-0.8,0.4S28.9,61,28.6,61h-0.3L28.3,60.7
				L28.3,60.7z"/>
			<path style="fill:#65CEC8;" d="M80.3,62.4c-0.1,0.2-0.3,0.3-0.4,0.5c-0.2,0.2-0.3,0.3-0.5,0.4s-0.4,0.2-0.6,0.3
				c-0.2,0.1-0.4,0.1-0.6,0.1c-0.3,0-0.5-0.1-0.7-0.3c-0.2-0.2-0.3-0.5-0.5-0.8c-0.1-0.3-0.2-0.7-0.3-1.1c-0.1-0.4-0.2-0.8-0.2-1.2
				c-0.1-0.4-0.1-0.8-0.1-1.1c0-0.4-0.1-0.6-0.1-0.9c0-0.1,0-0.2-0.1-0.3s-0.1-0.2-0.1-0.2c0-0.1-0.1-0.1-0.2-0.2
				c-0.1,0-0.2-0.1-0.3-0.1c-0.2,0-0.4,0.1-0.5,0.2c-0.1,0.1-0.3,0.2-0.4,0.4c-0.3,0.3-0.5,0.7-0.8,1.1s-0.5,0.9-0.7,1.4
				c-0.2,0.5-0.4,1-0.6,1.5c-0.2,0.5-0.3,0.9-0.4,1.3c-0.1-1-0.2-2-0.2-3c0-1,0.1-2.1,0.3-3.1c0,0-0.1-0.1,0-0.1c0,0,0,0-0.1-0.1
				c-0.1,0-0.1,0-0.1,0H72c-0.2,0-0.4,0-0.5,0.1c-0.2,0-0.3,0.1-0.4,0.2c-0.1,0.1-0.2,0.2-0.3,0.4s-0.1,0.3-0.1,0.6
				c0,0.9,0,1.8,0.1,2.7c0,0.4,0.1,0.8,0.2,1.2l0,0c-0.2,0.3-0.5,0.5-0.9,0.7c-0.3,0.2-0.7,0.3-1.1,0.3c-0.3,0-0.6-0.1-0.8-0.2
				c-0.2-0.1-0.4-0.2-0.5-0.4s-0.2-0.4-0.2-0.6c0-0.2-0.1-0.5-0.1-0.8c0-0.3,0-0.5,0.1-0.8c0-0.3,0.1-0.5,0.2-0.8l-0.2-0.1
				c-0.2,0.2-0.3,0.4-0.5,0.6c-0.2,0.2-0.3,0.5-0.4,0.8s-0.2,0.5-0.3,0.8c-0.1,0.3-0.1,0.5-0.1,0.8c-0.2,0.2-0.5,0.3-0.7,0.4
				c-0.3,0.1-0.5,0.2-0.8,0.2c-0.3,0-0.5-0.1-0.6-0.2s-0.3-0.2-0.4-0.4c-0.1-0.2-0.2-0.4-0.2-0.6c0-0.2-0.1-0.4-0.1-0.7
				c0-0.3,0.1-0.7,0.2-1.1c0.1-0.4,0.3-0.8,0.5-1.1c0.2-0.3,0.5-0.6,0.8-0.9c0.3-0.2,0.6-0.4,1-0.4c0.2,0,0.3,0,0.4,0.1
				c0.1,0,0.2,0.1,0.3,0.1s0.2,0.1,0.3,0.1s0.2,0.1,0.2,0.1c0.1,0,0.2,0,0.2-0.1c0.1-0.1,0.1-0.1,0.1-0.2l0,0c0-0.1,0-0.2-0.1-0.3
				c-0.1-0.1-0.2-0.2-0.3-0.2s-0.2-0.1-0.4-0.1s-0.2,0-0.3,0c-0.4,0-0.7,0.1-1.1,0.2c-0.4,0.1-0.7,0.3-1,0.6
				c-0.3,0.2-0.6,0.5-0.9,0.8c-0.3,0.3-0.5,0.7-0.7,1s-0.4,0.7-0.5,1.1c-0.1,0.4-0.2,0.7-0.2,1.1c0,0.3,0,0.6,0.1,0.9
				c0.1,0.3,0.2,0.5,0.4,0.7c0.2,0.2,0.4,0.4,0.6,0.5c0.2,0.1,0.5,0.2,0.9,0.2c0.4,0,0.9-0.1,1.3-0.3c0.4-0.2,0.8-0.5,1.1-0.8
				c0.1,0.4,0.3,0.7,0.6,0.9c0.3,0.2,0.6,0.4,1,0.4c0.3,0,0.6-0.1,0.9-0.2s0.6-0.3,0.9-0.5c0.3-0.2,0.5-0.4,0.7-0.7
				c0.2-0.2,0.4-0.5,0.5-0.7c0.1,0.5,0.2,1,0.3,1.5c0,0.2,0.1,0.3,0.2,0.5c0.1,0.1,0.2,0.2,0.4,0.2c0.1,0,0.2,0,0.3-0.1
				c0.1-0.1,0.2-0.1,0.3-0.2s0.1-0.2,0.2-0.3c0.1-0.1,0.1-0.2,0.1-0.3c0.1-0.5,0.3-1,0.5-1.5c0.2-0.5,0.4-1,0.6-1.4s0.4-0.8,0.6-1.2
				s0.4-0.6,0.5-0.7l0.1,1.1c0,0.4,0.1,0.8,0.2,1.2s0.2,0.8,0.3,1.2c0.1,0.4,0.3,0.8,0.5,1.1c0.2,0.3,0.4,0.6,0.7,0.8
				c0.3,0.2,0.6,0.3,1,0.3c0.3,0,0.6-0.1,0.9-0.2c0.3-0.1,0.5-0.3,0.7-0.5c0.2-0.2,0.4-0.4,0.6-0.7C80.1,62.9,80.3,62.7,80.3,62.4
				L80.3,62.4z"/>
			<path style="fill:#65CEC8;" d="M60.9,55.7c-0.3-0.4-0.8-0.5-1.5-0.5c-0.2,0-0.5,0-0.7,0.1c-0.2,0.1-0.4,0.1-0.6,0.2l0,0.1
				c0.3,0,0.5,0,0.7,0.1c0.2,0.1,0.4,0.2,0.5,0.4c0.2,0.2,0.3,0.4,0.4,0.7s0.2,0.5,0.3,0.8c0.1,0.3,0.1,0.6,0.2,0.8s0,0.5,0,0.8
				c0,0.3,0,0.6-0.1,0.9c0,0.3-0.1,0.7-0.2,1s-0.2,0.7-0.3,1c-0.1,0.3-0.2,0.6-0.4,0.8c-0.1,0.2-0.3,0.4-0.5,0.6
				c-0.2,0.1-0.4,0.2-0.6,0.2c-0.1,0-0.1-0.1-0.2-0.3c-0.1-0.2-0.2-0.5-0.3-0.8c-0.1-0.3-0.2-0.7-0.3-1.1c-0.1-0.4-0.2-0.7-0.2-1.1
				s-0.1-0.6-0.2-0.9c0-0.2-0.1-0.4-0.1-0.5c0-0.1-0.1-0.3-0.1-0.5c0-0.2-0.1-0.4-0.1-0.6c-0.1-0.2-0.1-0.4-0.2-0.5
				c-0.1-0.1-0.2-0.2-0.4-0.2c-0.1,0-0.2,0-0.3,0.1c-0.1,0-0.2,0.1-0.4,0.2s-0.2,0.2-0.3,0.2c-0.1,0.1-0.1,0.2-0.1,0.3
				c0,0.1,0,0.1,0,0.2c0,0.1,0.1,0.3,0.1,0.6c0.1,0.2,0.1,0.5,0.2,0.8c-0.1,0.4-0.2,0.8-0.3,1.3c-0.1,0.5-0.2,0.9-0.4,1.3
				c-0.2,0.4-0.3,0.8-0.5,1c-0.2,0.3-0.4,0.4-0.6,0.4c-0.1,0-0.1-0.1-0.2-0.2c-0.1-0.2-0.1-0.3-0.2-0.6c-0.1-0.2-0.1-0.5-0.2-0.8
				c-0.1-0.3-0.1-0.5-0.2-0.8c0-0.2-0.1-0.5-0.1-0.7c0-0.2,0-0.3-0.1-0.4c0-0.1,0-0.2-0.1-0.4c0-0.2,0-0.4-0.1-0.6s-0.1-0.4-0.1-0.7
				s-0.1-0.4-0.2-0.6c-0.1-0.2-0.2-0.3-0.3-0.5c-0.1-0.1-0.2-0.2-0.4-0.2c-0.2,0-0.3,0-0.5,0.1c-0.2,0.1-0.4,0.2-0.6,0.3
				c-0.2,0.1-0.4,0.2-0.5,0.4c-0.2,0.1-0.3,0.2-0.4,0.4l0.1,0.1c0.1-0.1,0.2-0.1,0.4-0.2c0.2-0.1,0.3-0.1,0.5-0.1c0,0,0.1,0,0.1,0.1
				c0,0.1,0.1,0.2,0.1,0.3c0,0.1,0,0.2,0.1,0.3c0,0.1,0,0.2,0,0.2c0,0.2,0.1,0.4,0.1,0.7c0.1,0.3,0.1,0.7,0.2,1.1s0.2,0.8,0.3,1.2
				c0.1,0.4,0.3,0.8,0.4,1.1c0.2,0.3,0.3,0.6,0.5,0.9c0.2,0.2,0.4,0.3,0.7,0.3c0.4,0,0.7-0.1,1-0.4c0.3-0.2,0.5-0.6,0.7-0.9
				c0.2-0.4,0.4-0.8,0.5-1.3c0.1-0.5,0.3-0.9,0.4-1.3c0.1,0.5,0.3,0.9,0.4,1.4c0.1,0.5,0.3,0.9,0.5,1.3c0.2,0.4,0.4,0.7,0.5,0.9
				c0.2,0.2,0.4,0.4,0.6,0.4c0.3,0,0.7-0.1,1-0.4c0.3-0.2,0.6-0.6,0.9-1c0.3-0.4,0.5-0.9,0.7-1.4c0.2-0.5,0.4-1,0.6-1.6
				c0.2-0.5,0.3-1.1,0.4-1.6c0.1-0.5,0.1-1,0.1-1.4l0,0C61.4,56.6,61.3,56.1,60.9,55.7z"/>
		</g>
		<g id="_x31_544044736187">
			<polygon style="fill:#65CEC8;" points="25.1,71.2 25.8,71.2 25.8,73.3 26.1,73.3 26.1,71.2 26.8,71.2 26.8,71 25.1,71 			"/>
			<rect x="27.1" y="71" style="fill:#65CEC8;" width="0.3" height="2.3"/>
			<path style="fill:#65CEC8;" d="M29.6,73c0.2-0.1,0.3-0.2,0.4-0.4c0.1-0.2,0.2-0.4,0.2-0.6c0-0.2-0.1-0.4-0.2-0.6
				c-0.1-0.2-0.2-0.3-0.4-0.4c-0.2-0.1-0.4-0.2-0.6-0.2l0,0c-0.2,0-0.4,0-0.6,0.2c-0.2,0.1-0.3,0.2-0.4,0.4
				c-0.1,0.2-0.2,0.4-0.2,0.6c0,0.3,0.1,0.6,0.3,0.8c0.2,0.2,0.5,0.3,0.8,0.3h1.3V73L29.6,73L29.6,73L29.6,73z M29,73
				c-0.2,0-0.5-0.1-0.6-0.3s-0.3-0.4-0.3-0.6c0-0.3,0.1-0.5,0.3-0.7c0.2-0.2,0.4-0.3,0.6-0.3c0.3,0,0.5,0.1,0.6,0.3s0.3,0.4,0.3,0.6
				c0,0.3-0.1,0.5-0.3,0.6C29.5,72.9,29.3,73,29,73z"/>
			<path style="fill:#65CEC8;" d="M32.1,72.4c0,0.2-0.1,0.4-0.1,0.5c-0.1,0.1-0.2,0.2-0.4,0.2c-0.2,0-0.3-0.1-0.4-0.2
				c-0.1-0.1-0.1-0.3-0.1-0.5V71l0,0h-0.3v1.4c0,0.3,0.1,0.5,0.2,0.7c0.2,0.2,0.4,0.2,0.6,0.2c0.3,0,0.5-0.1,0.6-0.2
				c0.1-0.2,0.2-0.4,0.2-0.7V71h-0.3L32.1,72.4L32.1,72.4z"/>
			<path style="fill:#65CEC8;" d="M21.4,70.9c-0.3,0-0.6,0.1-0.9,0.3c-0.2,0.2-0.3,0.5-0.3,0.8c0,0.3,0.1,0.6,0.3,0.9
				c0.2,0.2,0.5,0.3,0.8,0.3c0.3,0,0.6-0.1,0.8-0.3c0.2-0.2,0.3-0.5,0.3-0.9c0-0.3-0.1-0.6-0.3-0.9C22.1,71.1,21.8,70.9,21.4,70.9z
				 M22.1,72.8c-0.2,0.2-0.4,0.3-0.6,0.3c-0.3,0-0.5-0.1-0.6-0.3c-0.2-0.2-0.3-0.4-0.3-0.7c0-0.3,0.1-0.5,0.3-0.7
				c0.2-0.2,0.4-0.3,0.6-0.3c0.3,0,0.5,0.1,0.7,0.3s0.2,0.4,0.2,0.7C22.3,72.4,22.2,72.6,22.1,72.8z"/>
			<polygon style="fill:#65CEC8;" points="67.9,71 67.2,72.8 67.2,72.8 66.4,71 66,71 66,73.3 66.3,73.3 66.3,71.4 66.3,71.4 
				67.1,73.3 67.2,73.3 68.1,71.4 68.1,71.4 68.1,73.3 68.3,73.3 68.3,71 			"/>
			<path style="fill:#65CEC8;" d="M24.5,72.4c0,0.2-0.1,0.4-0.1,0.5c-0.1,0.1-0.2,0.2-0.4,0.2c-0.2,0-0.3-0.1-0.4-0.2
				s-0.1-0.3-0.1-0.5V71H23v1.4c0,0.3,0.1,0.5,0.2,0.7c0.2,0.2,0.4,0.2,0.6,0.2c0.3,0,0.5-0.1,0.6-0.2s0.2-0.4,0.2-0.7V71h-0.3
				L24.5,72.4L24.5,72.4z"/>
			<path style="fill:#65CEC8;" d="M19.4,72.1L19.4,72.1c0.1,0,0.2-0.1,0.3-0.2c0.1-0.1,0.1-0.2,0.1-0.3c0-0.2-0.1-0.3-0.2-0.4
				C19.5,71,19.3,71,19.1,71h-0.7v2.3h0.7c0.3,0,0.5-0.1,0.6-0.2c0.2-0.1,0.2-0.3,0.2-0.5c0-0.1,0-0.3-0.1-0.4
				C19.7,72.1,19.6,72.1,19.4,72.1z M18.6,71.2H19c0.3,0,0.5,0.1,0.5,0.3c0,0.1,0,0.2-0.1,0.3S19.2,72,19,72h-0.4V71.2z M19.5,72.9
				C19.4,73,19.3,73,19.1,73l0,0h-0.5v-0.8h0.5c0.2,0,0.3,0,0.4,0.1c0.1,0.1,0.1,0.2,0.1,0.3C19.6,72.7,19.6,72.8,19.5,72.9z"/>
			<path style="fill:#65CEC8;" d="M64.4,70.9L64.4,70.9c-0.3,0-0.6,0.1-0.9,0.3c-0.2,0.2-0.3,0.5-0.3,0.8c0,0.3,0.1,0.6,0.3,0.9
				c0.2,0.2,0.5,0.3,0.8,0.3c0.3,0,0.6-0.1,0.8-0.3c0.2-0.2,0.3-0.5,0.3-0.9c0-0.3-0.1-0.6-0.3-0.9C65,71.1,64.7,70.9,64.4,70.9z
				 M65,72.8c-0.2,0.2-0.4,0.3-0.6,0.3c-0.3,0-0.5-0.1-0.6-0.3c-0.2-0.2-0.3-0.4-0.3-0.7l0,0c0-0.3,0.1-0.5,0.3-0.7
				c0.2-0.2,0.4-0.3,0.6-0.3c0.3,0,0.5,0.1,0.7,0.3c0.2,0.2,0.2,0.4,0.2,0.7C65.3,72.4,65.2,72.6,65,72.8z"/>
			<polygon style="fill:#65CEC8;" points="33.2,72.2 34.2,72.2 34.2,72 33.2,72 33.2,71.2 34.3,71.2 34.3,71 32.9,71 32.9,73.3 
				34.4,73.3 34.4,73 33.2,73 			"/>
			<path style="fill:#65CEC8;" d="M38.4,71l-1,2.3h0.3l0.2-0.6h1.1l0.2,0.6h0.3l-1-2.3H38.4z M38.1,72.5l0.5-1.1h0l0.4,1.1H38.1z"/>
			<path style="fill:#65CEC8;" d="M56.3,71l-1,2.3h0.3l0.2-0.6H57l0.2,0.6h0.3l-1-2.3H56.3z M55.9,72.5l0.5-1.1h0l0.4,1.1H55.9z"/>
			<path style="fill:#65CEC8;" d="M45.2,72c0.1-0.1,0.1-0.2,0.1-0.4c0-0.2-0.1-0.4-0.2-0.5C45,71,44.8,71,44.5,71h-0.6v2.3h0.3v-1
				h0.3l0.6,1h0.3l-0.6-1C45,72.2,45.1,72.1,45.2,72z M44.5,72h-0.3v-0.7h0.4c0.2,0,0.3,0,0.4,0.1s0.1,0.2,0.1,0.3
				c0,0.1,0,0.2-0.1,0.3C44.8,72,44.7,72,44.5,72z"/>
			<polygon style="fill:#65CEC8;" points="46.5,72 45.9,71 45.5,71 46.4,72.3 46.4,73.3 46.6,73.3 46.6,72.3 47.5,71 47.2,71 			"/>
			<path style="fill:#65CEC8;" d="M50.5,72h-0.3l-0.3,0.5L49.4,72c0.2-0.1,0.3-0.2,0.4-0.3c0.1-0.1,0.1-0.2,0.1-0.3
				c0-0.1,0-0.3-0.2-0.4S49.5,71,49.3,71c-0.2,0-0.3,0-0.4,0.1s-0.2,0.2-0.2,0.4c0,0.1,0,0.2,0.1,0.3c0,0.1,0.1,0.2,0.2,0.3
				c-0.3,0.2-0.5,0.4-0.5,0.7c0,0.2,0.1,0.3,0.2,0.5s0.3,0.2,0.5,0.2c0.1,0,0.3,0,0.4-0.1c0.1-0.1,0.2-0.2,0.3-0.3l0.3,0.3h0.4
				l-0.5-0.5L50.5,72z M49,71.5c0-0.1,0-0.2,0.1-0.2s0.1-0.1,0.2-0.1c0.1,0,0.2,0,0.2,0.1c0.1,0,0.1,0.1,0.1,0.2
				c0,0.1,0,0.2-0.1,0.2c-0.1,0.1-0.2,0.1-0.3,0.2c-0.1-0.1-0.1-0.2-0.2-0.2C49,71.6,49,71.5,49,71.5z M49.5,73
				c-0.1,0-0.2,0.1-0.3,0.1c-0.1,0-0.2,0-0.3-0.1c-0.1-0.1-0.1-0.2-0.1-0.3l0,0c0-0.1,0-0.2,0.1-0.3c0.1-0.1,0.2-0.2,0.3-0.2
				l0.6,0.6C49.7,72.9,49.6,73,49.5,73z"/>
			<polygon style="fill:#65CEC8;" points="53.9,72.2 55,72.2 55,72 53.9,72 53.9,71.2 55.1,71.2 55.1,71 53.7,71 53.7,73.3 
				55.1,73.3 55.1,73 53.9,73 			"/>
			<path style="fill:#65CEC8;" d="M36.7,72.1L36.7,72.1c0.1,0,0.2-0.1,0.3-0.2c0.1-0.1,0.1-0.2,0.1-0.3c0-0.2-0.1-0.3-0.2-0.4
				C36.8,71,36.6,71,36.4,71h-0.7v2.3h0.7c0.3,0,0.5-0.1,0.6-0.2c0.2-0.1,0.2-0.3,0.2-0.5c0-0.1,0-0.3-0.1-0.4
				C37,72.1,36.9,72.1,36.7,72.1z M36,71.2h0.4c0.3,0,0.5,0.1,0.5,0.3c0,0.1,0,0.2-0.1,0.3c-0.1,0.1-0.2,0.1-0.4,0.1H36L36,71.2
				L36,71.2z M36.8,72.9C36.7,73,36.6,73,36.4,73l0,0H36v-0.8h0.5c0.2,0,0.3,0,0.4,0.1c0.1,0.1,0.1,0.2,0.1,0.3
				C37,72.7,36.9,72.8,36.8,72.9z"/>
			<path style="fill:#65CEC8;" d="M61.7,70.9c-0.3,0-0.6,0.1-0.9,0.3c-0.2,0.2-0.3,0.5-0.3,0.8c0,0.3,0.1,0.6,0.3,0.9
				c0.2,0.2,0.5,0.3,0.8,0.3c0.3,0,0.6-0.1,0.8-0.3s0.3-0.5,0.3-0.9c0-0.3-0.1-0.6-0.3-0.9C62.3,71.1,62.1,70.9,61.7,70.9z
				 M62.3,72.8c-0.2,0.2-0.4,0.3-0.6,0.3c-0.3,0-0.5-0.1-0.6-0.3c-0.2-0.2-0.3-0.4-0.3-0.7c0-0.3,0.1-0.5,0.3-0.7
				c0.2-0.2,0.4-0.3,0.6-0.3c0.3,0,0.5,0.1,0.7,0.3c0.2,0.2,0.2,0.4,0.2,0.7C62.6,72.4,62.5,72.6,62.3,72.8z"/>
			<path style="fill:#65CEC8;" d="M60,72c0.1-0.1,0.1-0.2,0.1-0.4c0-0.2-0.1-0.4-0.2-0.5C59.8,71,59.6,71,59.3,71l0,0h-0.6v2.3H59
				v-1h0.3l0.6,1h0.3l-0.6-1C59.8,72.2,59.9,72.1,60,72z M59.3,72H59v-0.7h0.4c0.2,0,0.3,0,0.4,0.1c0.1,0.1,0.1,0.2,0.1,0.3
				c0,0.1,0,0.2-0.1,0.3C59.7,72,59.5,72,59.3,72z"/>
			<polygon style="fill:#65CEC8;" points="51.6,71.2 52.3,71.2 52.3,73.3 52.6,73.3 52.6,71.2 53.3,71.2 53.3,71 51.6,71 			"/>
			<polygon style="fill:#65CEC8;" points="41.7,71 41.3,71 40.3,72 40.2,72 40.2,71 40.2,71 40,71 40,73.3 40.2,73.3 40.2,72.1 
				40.3,72.1 41.3,73.3 41.7,73.3 40.6,72 			"/>
			<polygon style="fill:#65CEC8;" points="42.2,72.2 43.3,72.2 43.3,72 42.2,72 42.2,71.2 43.4,71.2 43.4,71 42,71 42,73.3 
				43.5,73.3 43.5,73 42.2,73 			"/>
		</g>
		<g id="_x31_544044737728">
			<path style="fill:#65CEC8;" d="M35.2,38.9c0.4-1.7,2.4-4.3,5.2-6.5c3.9-3.1,9.2-3.1,9.2-3.1s-0.9,4.9-4.7,8
				c-2.5,2-5.3,3.5-7.2,3.8c2.5,0.2,6.4-1.3,10-4.1c4.8-3.7,5.6-10.2,5.6-10.2s-7.1-0.5-11.9,3.3C37.3,33,34.9,36.6,35.2,38.9z"/>
			<path style="fill:#65CEC8;" d="M54.3,29.4c-0.9,3.6-2.2,6.1-6.4,9.2c-3,2.3-6.9,3.5-9.5,3.5c-1.6,0-3-0.6-3.8-1.5
				c-1.5-1.7-0.9-4.7,0-6.5c1.9-3.8,4.4-7.3,5.7-11.4c0.7-2.2,0.4-4.8-1.8-5.9c-1.8-0.9-3.7-0.3-5.3,0.7c-1.2,0.7-2.3,1.7-3,2.9
				c-0.9,1.5-0.6,2.8-0.2,4.4c0.2,1.1-0.1,2-0.2,3c0,0.1,0,0.1,0.1,0.1l0.3,0c0.1,0,0.1,0,0.1-0.1c0,0,0,0,0,0c0,0,0,0,0,0
				c0,0,0,0,0,0c0,0,0,0,0,0c0,0,0,0,0,0c0-0.1,0.1-0.2,0.1-0.4c0.5-1.3,1.5-2.2,2.3-3.3c0.5-0.6,0.8-1.3,1.1-2l0,0
				c0,0,1.5-2.7,2.8-2.1c1.5,0.6,0.5,4.8-0.9,7.6c-0.1,0.1-0.1,0.2-0.2,0.3c-0.9,1.6-2,3.2-2.7,4.8c-0.5,1.1-0.8,2.1-1,3.3
				c-0.1,0.8-0.1,1.7,0.1,2.5c1.7,6,9.7,5.1,14,3.1c0.8-0.4,2-0.9,3.5-1.8c6-3.7,8-9.8,8-9.8S56.4,29.8,54.3,29.4z"/>
		</g>
	</g>
</g>
</svg>
