<svg xmlns="http://www.w3.org/2000/svg" xmlns:xlink="http://www.w3.org/1999/xlink" viewBox="0 0 491.3 199.5"><path d="M221 67h-36s8.8 6.2 8.8 16.6v101.6c0 6 4.9 10.8 10.8 10.8h27.2V77.8c0-6-4.8-10.8-10.8-10.8m-79.3-55c-6 0-10.8 4.8-10.8 10.8v93.9L56.4 16.8c-2.3-3-5.8-4.8-9.6-4.8H0s8.8 6.2 8.8 16.6v156.6c0 6 4.9 10.8 10.8 10.8h27.2V71.6l89.3 120c2 2.8 5.3 4.4 8.7 4.4h24V28.6c0-10.4 8.8-16.6 8.8-16.6" fill-rule="evenodd" fill="#283795"/><defs><path id="A" d="M242 53h111v146.5H242z"/></defs><clipPath id="B"><use xlink:href="#A"/></clipPath><g clip-path="url(#B)"><path d="M315.2 112.7c-23.2-7.5-32-11.2-32-18.8 0-6.3 8.3-11.8 21-11.8 15.9 0 32.3 8.2 40.9 13.2l-4.4-28.7c-.6-4-3.5-7.4-7.4-8.7-9.4-2.9-19.2-4.4-29.1-4.3-34.8 0-54.7 20.8-54.7 42.2s14 34 35.7 41.7S316 150.2 316 158c0 6.3-4.8 11.5-24.2 11.5a79.15 79.15 0 0 1-38.1-10.1l-10.8 28.1c9.6 5 27.4 11.8 52.9 11.8 40.3 0 56.3-22.3 56.3-43.7s-12.8-35.1-36.9-42.9" fill-rule="evenodd" fill="#283795"/></g><defs><path id="C" d="M360 53h127v146.5H360z"/></defs><clipPath id="D"><use xlink:href="#C"/></clipPath><g clip-path="url(#D)"><path d="M397.2 151.7c0-12.7 12.3-18.3 29-18.3 7.5 0 14.9.8 22.2 2.3V159c-6.3 4.7-16.9 10.6-29.8 10.6-12.8-.1-21.4-5.3-21.4-17.9m26.6-98.4c-17.9 0-34.2 4.8-45.1 9.2-5.5 2.3-8.2 8.6-5.9 14.1 0 .1.1.1.1.2l8.6 19.8c7-4.9 20-11.3 39.3-11.3 24.9 0 27.3 9.2 27.5 21-5.7-.9-15.4-1.9-30.5-1.9-31 0-57 17.6-57 48.2s26.3 46.8 52.7 46.8c12.5.1 24.8-3.2 35.6-9.5 1.6 3.6 5.1 6 9.1 6h28.1v-91.6c0-27.5-18-51-62.5-51" fill-rule="evenodd" fill="#283795"/></g><defs><path id="E" d="M185 0h306.3v63H185z"/></defs><clipPath id="F"><use xlink:href="#E"/></clipPath><g clip-path="url(#F)"><path d="M458.2 35.7c-.3.2-.4.5.1.9s.9-.1.9-.8-.7-.3-1-.1m2.6 1.3c-.9.2-1.3.7-.9 1.4s2.3 1.3 2.3.2-.5-1.8-1.4-1.6m-42-4.4c1.9.1 3-.1 3.1-1.1s-1.6-.6-1.9-1.2-.9-1.2-1.3-.7-.8 1-1.4 1.1-1.7 0-1.7.9 1.3.9 3.2 1m66 25.6c1.3.3 1.5.8 1.9 2s1.2 1.6 2.5 1.8 1.9-.3 2-1.3-.7-2.3-1.3-2.4-1 0-.9-1.2-1.3-1.6-2.2-1.5-1.3 0-1.8-1.1-1.5-.8-1.9 0-.8 1.2-.6 2.1c.3 1.2 1 1.3 2.3 1.6m-27.7-10.8c1.1-.3 1.9 0 2.3.8s.9 1 2.2 1c1 0 2 .4 2.8 1s1 1.3 2.5 1.3c1.1 0 2.1.5 2.8 1.3.8.7 1.9 1 2.9.8.7-.2 1.5.2 1.9.8.6.7 1.4 1.2 2.3 1.2 1 0 1.8.5 1.9 1.9s1.4-.3 1.6-1.3-.2-1.9-1.1-2.4c-.7-.3-1.1-.3-1.1-1s-.6-1.3-1.3-1.3c-1.2 0-2.4.2-3.6.4-1.7.3-1.4-.9-1.3-2s-2.3-1.5-3.3-1.5-1.9.2-2.3-.4-1-.8-2-1.2-.7-1.7-.6-2.8-1.4-1.1-2.5-.6c-1.2.5-2.5.6-3.7.1-1.5-.5-2.2.9-2.2 1.8.1 2.5.7 2.4 1.8 2.1m15.9-1c.4.9 1.3-.2 1.9-.9.5-.5.5-1.4-.1-1.9l-.1-.1c-.6-.7-1.8-.8-2.2-.1-.4 1 .1 2.1.5 3m-5.7-6.6c.8.4.7.8.7 1.8s.5 1.9 1.3 1.9 1.4-.8 1.9-2.1c.4-.8 0-1.8-.8-2.1-.2-.1-.3-.1-.5-.1-.8 0-.8-.3-1.2-.9s-1.6-1.4-2.1-.8 0 1.9.7 2.3M226.7 52.2s-12.5 6.5-22.8 6.5-18-2.8-18-9.3 8.2-16.2 18.7-22.7S258.2 0 318.7 0c49.7 0 79.5 6.7 107.7 16.8 1.7.7 3.2 1.9 4.2 3.5 1.4-.1 2.9-.1 4.3 0 1 .2 1.9.9 2.3 1.8 1.3-.2 2.7.1 3.8.7 1.5 1 1.5 3 3.3 3.3s5 .3 5 2.2c0 0 3.5.5 3.5 2 0 0 3 1 3.8 2.3s1.2 1.5 2.7 1.5c1.5-.1 3 .8 3.7 2.2.7 1.5 1.5 4 .7 4.7s-5.2 0-5.7-1-1.2-1.5-2.3-.8-3.2-.7-5.2-.5-5.7 1.2-6.8-.5-3.5-4-5.8-3.7-5.7 1.5-6.5.7 0-3.7-1.7-2.8c-1.7.8-1.5 2.8-2.8 2.8s-7-.2-8.7 0c-1.8.1-3.5-.3-5-1.3-1-.8-2.7-.2-3.8-1.3s-2.2-2-3.5-1.8-2-1.7-3.5-1.5-2.5 1.2-5.3 1.3-11 .2-14.3 0-13.3-1.8-20.3-1.8-15 .5-21.3 1-21 1.2-27.8 1-10.3-.2-12.8.8c-3.3 1.1-6.8 1.5-10.3 1.2-3.8-.3-7.5.3-11 1.8-3.7 1.5-19.7 7.3-23.8 9.2-4.7 1.9-9.9 2.3-14.8 1.3-4.8-1-8.2-1.3-9-.2-.6 1.2-2 2-3.3 1.8-2.4 0-6.1 2.6-1.7 5.5" fill-rule="evenodd" fill="#fd0"/></g></svg>