<?xml version="1.0" encoding="utf-8"?>
<svg version="1.1" id="Layer_1" xmlns="http://www.w3.org/2000/svg" xmlns:xlink="http://www.w3.org/1999/xlink" x="0px" y="0px"
	width="100px" height="100px" viewBox="0 0 66.7 66.7" style="enable-background:new 0 0 66.7 66.7;" xml:space="preserve">
<g>
	<circle style="fill:#E8E8E8;" cx="33.3" cy="33.3" r="33.3"/>
	<circle style="fill:#FFFFFF;" cx="33.3" cy="33.3" r="32.7"/>
	<path style="fill:#292929;" d="M29.3,32.9c0.7,0,1.2,0.5,1.2,1.2c0,0,0,0,0,0c0,0.7-0.5,1.1-1.2,1.1h-5.8c-0.7,0-1.2-0.5-1.2-1.2
		c0-0.7,0.5-1.2,1.2-1.2l0,0C23.5,32.9,29.3,32.9,29.3,32.9z M29.3,31.9h-5.8c-1.1,0-2.1,0.9-2.1,2.1s0.9,2.1,2.1,2.1h5.8
		c1.1,0,2.1-0.9,2.1-2.1S30.5,31.9,29.3,31.9z M55.7,32.5v3.3c0,0.3,0.3,0.5,0.5,0.5c0.3,0,0.5-0.2,0.5-0.5l0,0v-3.3
		c0-0.3-0.3-0.5-0.5-0.5C55.9,31.9,55.7,32.1,55.7,32.5L55.7,32.5z M33.9,35.7v-1.3c0-0.4,0.1-0.7,0.4-1c0.3-0.3,0.6-0.4,0.9-0.4
		c0.3,0,0.6,0.1,0.9,0.3l2.9,2.4c0.4,0.3,0.9,0.5,1.5,0.5c0.6,0,1.2-0.3,1.7-0.7c0.5-0.5,0.7-1.1,0.7-1.7v-1.3
		c0-0.3-0.2-0.5-0.5-0.5s-0.5,0.2-0.5,0.5v1.3c0,0.4-0.1,0.7-0.5,1c-0.3,0.3-0.6,0.4-1,0.4c-0.3,0-0.6-0.1-0.9-0.3l-2.9-2.4
		c-0.4-0.3-0.9-0.5-1.5-0.5c-0.6,0-1.3,0.3-1.7,0.7c-0.5,0.5-0.7,1.1-0.7,1.7v1.3c0,0.3,0.3,0.5,0.5,0.5S33.9,35.9,33.9,35.7
		C33.9,35.7,33.9,35.7,33.9,35.7z M44.5,32.9l2.8,2.5c0.5,0.5,1.3,0.8,2.1,0.8c0.7,0,1.5-0.3,2.1-0.8l2.7-2.5c0.2-0.2,0.2-0.5,0-0.7
		c-0.2-0.2-0.5-0.2-0.7-0.1l0,0l-2.7,2.6c-0.4,0.3-0.9,0.5-1.4,0.5c-0.5,0-1-0.2-1.4-0.5l-2.8-2.5c-0.2-0.2-0.5-0.2-0.7,0l0,0
		C44.3,32.3,44.3,32.7,44.5,32.9z"/>
	<path style="fill:#00BC91;" d="M10.5,34.5l3-2.3c0.5-0.5,0.5-1.3,0-1.8l-3-2.3c-0.1-0.1-0.3-0.1-0.5,0c-0.1,0.1-0.1,0.3,0,0.4
		l1.1,1.5c0.5,0.7,0.5,1.7,0,2.5L10,34.1c-0.1,0.1-0.1,0.3,0,0.4C10.1,34.6,10.4,34.6,10.5,34.5z M18,29.4l-4.3,3.3
		c-0.7,0.7-0.7,1.9,0,2.6l4.3,3.3c0.2,0.2,0.5,0.2,0.7,0c0.1-0.2,0.1-0.4,0-0.5l-1.5-2.2c-0.7-1.1-0.7-2.5,0-3.5l1.5-2.2
		c0.1-0.2,0.1-0.4,0-0.5C18.5,29.3,18.1,29.3,18,29.4L18,29.4C18,29.4,18,29.4,18,29.4z"/>
</g>
</svg>
