<?xml version="1.0"?>
<svg xmlns="http://www.w3.org/2000/svg" xmlns:xlink="http://www.w3.org/1999/xlink" xmlns:svgjs="http://svgjs.com/svgjs" version="1.1" width="512" height="512" x="0" y="0" viewBox="0 0 512 512" style="enable-background:new 0 0 512 512" xml:space="preserve" class=""><g><path xmlns="http://www.w3.org/2000/svg" d="m512 256c0 141.386719-114.613281 256-256 256s-256-114.613281-256-256 114.613281-256 256-256 256 114.613281 256 256zm0 0" fill="#f1f1f1" data-original="#abddff" style="" class=""/><path xmlns="http://www.w3.org/2000/svg" d="m511.609375 270.09375-178.234375-178.234375-150.574219 148.160156 51.703125 51.699219h-99.527344l-44.394531 103.90625 110.4375 110.4375c17.710938 3.875 36.105469 5.9375 54.980469 5.9375 136.65625 0 248.292969-107.078125 255.609375-241.90625zm0 0" fill="#f1f1f1" data-original="#78b0f0" style="" class=""/><path xmlns="http://www.w3.org/2000/svg" d="m246.5 240.605469h19v99.726562h-19zm0 0" fill="#ff432e" data-original="#ff432e" style=""/><path xmlns="http://www.w3.org/2000/svg" d="m255.808594 240.605469h9.691406v99.726562h-9.691406zm0 0" fill="#db0404" data-original="#db0404" style=""/><path xmlns="http://www.w3.org/2000/svg" d="m389.933594 361.332031h-19v-61.363281h-233.101563v61.363281h-19v-80.363281h271.101563zm0 0" fill="#ff432e" data-original="#ff432e" style=""/><path xmlns="http://www.w3.org/2000/svg" d="m255.808594 280.96875v19h115.125v61.363281h19v-80.363281zm0 0" fill="#db0404" data-original="#db0404" style=""/><path xmlns="http://www.w3.org/2000/svg" d="m361.667969 163.816406c0 58.359375-47.308594 105.667969-105.667969 105.667969s-105.667969-47.308594-105.667969-105.667969 47.308594-105.667968 105.667969-105.667968 105.667969 47.308593 105.667969 105.667968zm0 0" fill="#27488f" data-original="#27488f" style="" class=""/><path xmlns="http://www.w3.org/2000/svg" d="m256 58.148438c-.0625 0-.128906.003906-.191406.003906v211.328125c.066406 0 .128906.003906.191406.003906 58.359375 0 105.667969-47.308594 105.667969-105.667969s-47.308594-105.667968-105.667969-105.667968zm0 0" fill="#12254c" data-original="#12254c" style=""/><path xmlns="http://www.w3.org/2000/svg" d="m271.890625 212.375v-10.585938h-31.78125v10.585938c0 4.796875-3 9.082031-7.507813 10.722656l-48.871093 17.800782c18.898437 17.722656 44.316406 28.585937 72.269531 28.585937s53.371094-10.863281 72.269531-28.585937l-48.871093-17.800782c-4.507813-1.640625-7.507813-5.925781-7.507813-10.722656zm0 0" fill="#faa68e" data-original="#faa68e" style=""/><path xmlns="http://www.w3.org/2000/svg" d="m328.269531 240.898438-48.871093-17.800782c-4.507813-1.640625-7.507813-5.925781-7.507813-10.722656v-10.585938h-16.082031v67.691407c.066406 0 .128906.003906.191406.003906 27.953125 0 53.371094-10.863281 72.269531-28.585937zm0 0" fill="#e09380" data-original="#e09380" style=""/><path xmlns="http://www.w3.org/2000/svg" d="m228.515625 157.171875c0 7.539063-6.113281 13.652344-13.652344 13.652344-7.539062 0-13.648437-6.113281-13.648437-13.652344s6.109375-13.648437 13.648437-13.648437c7.539063 0 13.652344 6.109374 13.652344 13.648437zm0 0" fill="#ffbeaa" data-original="#ffbeaa" style=""/><path xmlns="http://www.w3.org/2000/svg" d="m310.785156 157.171875c0 7.539063-6.109375 13.652344-13.648437 13.652344-7.539063 0-13.652344-6.113281-13.652344-13.652344s6.113281-13.648437 13.652344-13.648437c7.539062 0 13.648437 6.109374 13.648437 13.648437zm0 0" fill="#faa68e" data-original="#faa68e" style=""/><path xmlns="http://www.w3.org/2000/svg" d="m274.175781 208.277344-9.117187 4.683594c-5.683594 2.921874-12.429688 2.921874-18.117188 0l-9.113281-4.683594c-13.507813-6.9375-22.003906-20.851563-22.003906-36.035156v-35.527344c0-22.191406 17.988281-40.175782 40.175781-40.175782s40.175781 17.984376 40.175781 40.175782v35.527344c0 15.183593-8.492187 29.097656-22 36.035156zm0 0" fill="#ffbeaa" data-original="#ffbeaa" style=""/><path xmlns="http://www.w3.org/2000/svg" d="m256 96.535156c-.0625 0-.128906.007813-.191406.007813v118.601562c3.171875.03125 6.347656-.695312 9.25-2.183593l9.117187-4.683594c13.507813-6.9375 22-20.847656 22-36.035156v-35.53125c0-22.1875-17.988281-40.175782-40.175781-40.175782zm0 0" fill="#faa68e" data-original="#faa68e" style=""/><path xmlns="http://www.w3.org/2000/svg" d="m280.046875 91.859375h-4.164063c-1.6875 0-3.15625.90625-3.960937 2.257813-.683594-1.339844-2.070313-2.257813-3.675781-2.257813h-28.964844c-19.488281 0-35.289062 15.800781-35.289062 35.289063 0 6.878906 2.941406 13.066406 7.636718 17.378906v28.164062h8.253906v-23.238281c2.414063.832031 5.007813 1.292969 7.707032 1.292969h21.1875c10.710937 0 19.746094-7.140625 22.628906-16.917969 1.113281 9.527344 9.207031 16.917969 19.027344 16.917969.566406 0 1.128906-.03125 1.683594-.078125v22.023437h8.253906v-24.71875c5.53125-3.363281 9.226562-9.445312 9.226562-16.386718v-10.175782c0-16.320312-13.230468-29.550781-29.550781-29.550781zm0 0" fill="#ffe000" data-original="#ffe000" style=""/><path xmlns="http://www.w3.org/2000/svg" d="m280.046875 91.859375h-4.164063c-1.6875 0-3.15625.90625-3.960937 2.257813-.683594-1.339844-2.070313-2.257813-3.675781-2.257813h-12.4375v57.800781c7.488281-2.335937 13.378906-8.292968 15.597656-15.832031 1.113281 9.527344 9.207031 16.917969 19.027344 16.917969.570312 0 1.128906-.03125 1.683594-.078125v22.023437h8.253906v-24.71875c5.53125-3.363281 9.226562-9.445312 9.226562-16.386718v-10.175782c0-16.320312-13.230468-29.550781-29.550781-29.550781zm0 0" fill="#ffc200" data-original="#ffc200" style=""/><path xmlns="http://www.w3.org/2000/svg" d="m279.398438 223.097656c-2.191407-.796875-4.023438-2.222656-5.328126-4.027344l-18.070312 13.402344-18.066406-13.402344c-1.308594 1.800782-3.140625 3.230469-5.332032 4.027344l-48.867187 17.796875c18.898437 17.726563 44.3125 28.585938 72.265625 28.585938 27.957031 0 53.371094-10.859375 72.269531-28.585938zm0 0" fill="#dbeeff" data-original="#dbeeff" style=""/><path xmlns="http://www.w3.org/2000/svg" d="m328.269531 240.898438-48.871093-17.800782c-2.191407-.796875-4.023438-2.222656-5.328126-4.027344l-18.070312 13.402344-.191406-.140625v37.148438c.066406 0 .128906.003906.191406.003906 27.953125 0 53.371094-10.863281 72.269531-28.585937zm0 0" fill="#bfe1ff" data-original="#bfe1ff" style=""/><path xmlns="http://www.w3.org/2000/svg" d="m260.953125 248.726562h-9.90625l-4.128906-16.238281h18.164062zm0 0" fill="#27488f" data-original="#27488f" style="" class=""/><path xmlns="http://www.w3.org/2000/svg" d="m265.082031 232.488281h-9.273437v16.238281h5.144531zm0 0" fill="#12254c" data-original="#12254c" style=""/><path xmlns="http://www.w3.org/2000/svg" d="m248.039062 269.1875c2.625.195312 5.28125.296875 7.960938.296875s5.332031-.101563 7.960938-.296875l-3.007813-20.460938h-9.90625zm0 0" fill="#27488f" data-original="#27488f" style="" class=""/><path xmlns="http://www.w3.org/2000/svg" d="m263.960938 269.1875-3.007813-20.460938h-5.144531v20.753907c.0625 0 .128906.003906.191406.003906 2.679688 0 5.332031-.101563 7.960938-.296875zm0 0" fill="#12254c" data-original="#12254c" style=""/><path xmlns="http://www.w3.org/2000/svg" d="m256 232.472656-14.996094 16.511719-12.488281-26.144531 6.707031-5.777344zm0 0" fill="#ffffff" data-original="#ffffff" style=""/><path xmlns="http://www.w3.org/2000/svg" d="m228.515625 222.839844-45.710937 17.179687c15.359374 14.761719 35.175781 24.921875 57.230468 28.265625zm0 0" fill="#2864f0" data-original="#2864f0" style=""/><path xmlns="http://www.w3.org/2000/svg" d="m256 232.472656 14.996094 16.511719 12.488281-26.144531-6.707031-5.777344zm0 0" fill="#e9edf5" data-original="#e9edf5" style=""/><path xmlns="http://www.w3.org/2000/svg" d="m329.195312 240.019531-45.710937-17.179687-11.519531 45.441406c22.054687-3.339844 41.871094-13.5 57.230468-28.261719zm0 0" fill="#27488f" data-original="#27488f" style="" class=""/><path xmlns="http://www.w3.org/2000/svg" d="m240.035156 268.285156-11.519531-45.441406-15.304687 26.140625 15.304687 7.703125-4.527344 7.851562c5.1875 1.648438 10.546875 2.910157 16.046875 3.746094zm0 0" fill="#27488f" data-original="#27488f" style="" class=""/><path xmlns="http://www.w3.org/2000/svg" d="m271.964844 268.285156 11.519531-45.441406 15.304687 26.140625-15.304687 7.703125 4.527344 7.851562c-5.1875 1.648438-10.546875 2.910157-16.046875 3.746094zm0 0" fill="#12254c" data-original="#12254c" style=""/><path xmlns="http://www.w3.org/2000/svg" d="m179.332031 361.332031c0 28.167969-22.832031 51-51 51-28.164062 0-51-22.832031-51-51 0-28.164062 22.835938-51 51-51 28.167969 0 51 22.835938 51 51zm0 0" fill="#27488f" data-original="#27488f" style="" class=""/><path xmlns="http://www.w3.org/2000/svg" d="m431.433594 361.332031c0 28.167969-22.835938 51-51 51-28.167969 0-51-22.832031-51-51 0-28.164062 22.832031-51 51-51 28.164062 0 51 22.835938 51 51zm0 0" fill="#12254c" data-original="#12254c" style=""/><path xmlns="http://www.w3.org/2000/svg" d="m307 361.332031c0 28.167969-22.832031 51-51 51s-51-22.832031-51-51c0-28.164062 22.832031-51 51-51s51 22.835938 51 51zm0 0" fill="#27488f" data-original="#27488f" style="" class=""/><path xmlns="http://www.w3.org/2000/svg" d="m256 310.332031c-.0625 0-.128906.007813-.191406.007813v101.988281c.066406 0 .128906.003906.191406.003906 28.167969 0 51-22.832031 51-51 0-28.164062-22.832031-51-51-51zm0 0" fill="#12254c" data-original="#12254c" style=""/></g></svg>
