<?xml version="1.0"?>
<svg xmlns="http://www.w3.org/2000/svg" xmlns:xlink="http://www.w3.org/1999/xlink" xmlns:svgjs="http://svgjs.com/svgjs" version="1.1" width="512" height="512" x="0" y="0" viewBox="0 0 512 512" style="enable-background:new 0 0 512 512" xml:space="preserve" class=""><g>
<path xmlns="http://www.w3.org/2000/svg" style="" d="M511.105,277.367C511.687,270.32,512,263.197,512,256C512,114.615,397.384,0,256,0S0,114.615,0,256  c0,119.42,81.77,219.737,192.373,248.026L511.105,277.367z" fill="#f1f1f1" data-original="#a72b1a" class=""/>
<path xmlns="http://www.w3.org/2000/svg" style="" d="M511.105,277.367l-77.018-77.018l-192-13.913l-97.391-97.391l-44.522,322.783l92.199,92.199  C212.717,509.23,234.034,512,256,512C390.187,512,500.246,408.753,511.105,277.367z" fill="#f1f1f1" data-original="#701c12" class=""/>
<polygon xmlns="http://www.w3.org/2000/svg" style="" points="250.435,135.503 278.261,411.827 411.826,411.827 411.826,200.349 " fill="#fef2cc" data-original="#fef2cc" class=""/>
<polygon xmlns="http://www.w3.org/2000/svg" style="" points="122.435,200.349 144.696,411.827 278.261,411.827 278.261,166.958 " fill="#ffffff" data-original="#ffffff" class=""/>
<polygon xmlns="http://www.w3.org/2000/svg" style="" points="200.348,311.653 211.478,356.175 256,356.175 256,333.914 " fill="#fde59a" data-original="#fde59a"/>
<polygon xmlns="http://www.w3.org/2000/svg" style="" points="211.478,311.653 166.957,333.914 166.957,356.175 211.478,356.175 " fill="#fef2cc" data-original="#fef2cc" class=""/>
<polygon xmlns="http://www.w3.org/2000/svg" style="" points="333.913,389.564 345.043,434.086 389.565,434.086 389.565,411.825 " fill="#616f6d" data-original="#616f6d"/>
<polygon xmlns="http://www.w3.org/2000/svg" style="" points="345.043,389.564 300.522,411.825 300.522,434.086 345.043,434.086 " fill="#889391" data-original="#889391"/>
<polygon xmlns="http://www.w3.org/2000/svg" style="" points="211.478,244.871 198.117,289.392 211.478,333.914 256,333.914 256,244.871 " fill="#7ddcd4" data-original="#7ddcd4"/>
<rect xmlns="http://www.w3.org/2000/svg" x="166.957" y="244.87" style="" width="44.522" height="89.043" fill="#b1eae5" data-original="#b1eae5" class=""/>
<polygon xmlns="http://www.w3.org/2000/svg" style="" points="434.087,200.349 434.087,222.61 278.261,222.61 256,178.088 " fill="#fde59a" data-original="#fde59a"/>
<rect xmlns="http://www.w3.org/2000/svg" x="122.435" y="178.087" style="" width="155.826" height="44.522" fill="#fef2cc" data-original="#fef2cc" class=""/>
<polygon xmlns="http://www.w3.org/2000/svg" style="" points="434.087,200.349 278.261,200.349 256,166.958 278.261,133.566 367.304,133.566 " fill="#f63341" data-original="#f63341" class=""/>
<rect xmlns="http://www.w3.org/2000/svg" x="122.435" y="133.565" style="" width="155.826" height="66.783" fill="#f85c67" data-original="#f85c67" class=""/>
<polygon xmlns="http://www.w3.org/2000/svg" style="" points="345.043,267.129 331.682,328.348 345.043,411.827 389.565,411.827 389.565,267.129 " fill="#f63341" data-original="#f63341" class=""/>
<rect xmlns="http://www.w3.org/2000/svg" x="300.522" y="267.13" style="" width="44.522" height="144.696" fill="#f85c67" data-original="#f85c67" class=""/>
<polygon xmlns="http://www.w3.org/2000/svg" style="" points="345.043,289.39 338.363,317.217 345.043,333.914 367.304,333.914 367.304,289.39 " fill="#02c8a7" data-original="#02c8a7"/>
<rect xmlns="http://www.w3.org/2000/svg" x="322.783" y="289.391" style="" width="22.261" height="44.522" fill="#7ddcd4" data-original="#7ddcd4"/>
<polygon xmlns="http://www.w3.org/2000/svg" style="" points="144.696,333.914 144.696,411.827 100.174,411.827 100.174,333.914 122.435,311.653 " fill="#889391" data-original="#889391"/>
<rect xmlns="http://www.w3.org/2000/svg" x="100.174" y="89.043" style="" width="44.522" height="244.87" fill="#b0b7b6" data-original="#b0b7b6" class=""/>
<g xmlns="http://www.w3.org/2000/svg">
</g>
<g xmlns="http://www.w3.org/2000/svg">
</g>
<g xmlns="http://www.w3.org/2000/svg">
</g>
<g xmlns="http://www.w3.org/2000/svg">
</g>
<g xmlns="http://www.w3.org/2000/svg">
</g>
<g xmlns="http://www.w3.org/2000/svg">
</g>
<g xmlns="http://www.w3.org/2000/svg">
</g>
<g xmlns="http://www.w3.org/2000/svg">
</g>
<g xmlns="http://www.w3.org/2000/svg">
</g>
<g xmlns="http://www.w3.org/2000/svg">
</g>
<g xmlns="http://www.w3.org/2000/svg">
</g>
<g xmlns="http://www.w3.org/2000/svg">
</g>
<g xmlns="http://www.w3.org/2000/svg">
</g>
<g xmlns="http://www.w3.org/2000/svg">
</g>
<g xmlns="http://www.w3.org/2000/svg">
</g>
</g></svg>
