<?xml version="1.0" encoding="utf-8"?>
<svg version="1.1" id="Layer_1" xmlns="http://www.w3.org/2000/svg" xmlns:xlink="http://www.w3.org/1999/xlink" x="0px" y="0px"
	width="100px" height="100px" viewBox="0 0 66.7 66.7" style="enable-background:new 0 0 66.7 66.7;" xml:space="preserve">
<g>
	<circle style="fill:#E8E8E8;" cx="33.3" cy="33.3" r="33.3"/>
	<circle style="fill:#FFFFFF;" cx="33.3" cy="33.3" r="32.7"/>
	<path d="M40.9,31.8c-0.9-0.7-1.9-1.1-3.1-1.1c-1.2,0-2.2,0.3-3.1,1.1c-0.9,0.7-1.3,1.7-1.3,3.1s0.4,2.3,1.3,3.1s1.9,1.1,3.1,1.1
		s2.2-0.3,3.1-1.1c0.9-0.7,1.3-1.7,1.3-3.1S41.7,32.5,40.9,31.8z M36.2,36.5c-0.5-0.4-0.7-1-0.7-1.7s0.2-1.3,0.7-1.7
		c0.5-0.4,1-0.6,1.6-0.6c0.6,0,1.2,0.2,1.6,0.6c0.5,0.4,0.7,1,0.7,1.7s-0.2,1.3-0.7,1.7c-0.5,0.4-1,0.6-1.6,0.6
		C37.1,37.1,36.6,36.9,36.2,36.5z M45.2,38.8V27.9h-2.1v10.9L45.2,38.8L45.2,38.8z M51.7,30.9v4.3c0,1.1-0.6,1.7-1.7,1.7
		c-1.1,0-1.7-0.7-1.7-1.7v-4.3h-1.9v4.7c0,1.8,1.1,3.4,3.7,3.4l0,0c2.5,0,3.7-1.6,3.7-3.4v-4.7H51.7L51.7,30.9z M31.3,30.9l-2,5.3
		l-2-5.3h-2.1l3.2,7.9h1.9l3.2-7.9C33.5,30.9,31.3,30.9,31.3,30.9z M25.1,34.6c0-1.1-0.4-2.1-1.1-2.8c-0.7-0.7-1.7-1.1-2.8-1.1
		c-1.2,0-2.2,0.4-3,1.2c-0.8,0.8-1.2,1.7-1.2,3c0,1.2,0.4,2.2,1.2,3c0.8,0.8,1.7,1.1,2.9,1.1c1.7,0,3-0.7,3.7-2.3l-1.5-0.9
		c-0.5,1-1.2,1.4-2.2,1.4c-1.2,0-2.1-0.8-2.2-2h6.1L25.1,34.6C25.1,34.6,25.1,34.6,25.1,34.6z M21.2,32.3c1.1,0,1.9,0.5,2.1,1.7H19
		C19.3,32.9,20.1,32.3,21.2,32.3z M17.1,38.8l-2.7-4.7c1.7-0.6,2.5-1.7,2.5-3.3c0-1.9-1.5-3.1-4-3.1H8.1v11.1h2.1v-4.5H12l2.6,4.5
		H17.1C17.1,38.8,17.1,38.8,17.1,38.8z M12.9,29.5c1.3,0,1.9,0.5,1.9,1.5c0,1-0.6,1.5-1.9,1.5h-2.7v-2.9L12.9,29.5
		C12.9,29.5,12.9,29.5,12.9,29.5z M57.2,39c-1.3,0-2.4-1.1-2.4-2.3v-7.9h2.1v2.2h1.7v1.7h-1.7v4c0,0.4,0.3,0.7,0.7,0.7h1v1.7
		L57.2,39C57.2,39,57.2,39,57.2,39z"/>
</g>
</svg>
