<?xml version="1.0"?>
<svg xmlns="http://www.w3.org/2000/svg" xmlns:xlink="http://www.w3.org/1999/xlink" xmlns:svgjs="http://svgjs.com/svgjs" version="1.1" width="512" height="512" x="0" y="0" viewBox="0 0 512 512" style="enable-background:new 0 0 512 512" xml:space="preserve" class=""><g><g xmlns="http://www.w3.org/2000/svg"><circle cx="256" cy="256" fill="#f1f1f1" r="256" data-original="#fff275" style="" class=""/><g><path d="m510.543 283.355-229.32-229.32-26.701 26.701v300.166l-84.136 34.797 26.674 26.674-32.127 24.609 39.897 39.897c16.535 3.355 33.646 5.121 51.17 5.121 132.143 0 240.889-100.124 254.543-228.645z" fill="#f1f1f1" data-original="#ffd300" style="" class=""/></g><g><g><path d="m365.79 159.954c0-16.456-13.34-29.797-29.796-29.797s-29.796 13.34-29.796 29.797c-16.456 0-29.796 13.34-29.796 29.796s13.34 29.797 29.796 29.797c0 16.456 13.34 29.796 29.796 29.796s29.796-13.34 29.796-29.796c15.389 0 29.631-26.639 29.631-26.639.109-1.038.165-2.091.165-3.158 0-16.455-13.34-29.796-29.796-29.796z" fill="#4cb8eb" data-original="#4cb8eb" style=""/><circle cx="335.994" cy="189.75" fill="#f1f1f1" r="16.702" data-original="#ffd300" style="" class=""/></g><g><path d="m205.803 159.954c0-16.456-13.34-29.797-29.796-29.797s-29.796 13.34-29.796 29.797c-16.456 0-29.796 13.34-29.796 29.796 0 1.073.057 2.132.167 3.175 0 0 14.246 26.621 29.629 26.621 0 16.456 13.34 29.796 29.796 29.796s29.796-13.34 29.796-29.796c16.456 0 29.796-13.34 29.796-29.797 0-16.454-13.34-29.795-29.796-29.795z" fill="#9dcfff" data-original="#9dcfff" style=""/><circle cx="176.006" cy="189.75" fill="#f1f1f1" r="16.702" data-original="#fff275" style="" class=""/></g><path d="m116.581 192.926 70.615 175.508 68.804 73.199 20-142.915-20-105.801z" fill="#afc2cb" data-original="#ffffff" style="" class=""/><g><path d="m256 192.917v248.716l68.804-73.199 70.617-175.526z" fill="#7b97a7" data-original="#e3eaee" style="" class=""/></g><g><path d="m209.147 386.235-44.213 80.748h91.066l20-40.374-20-40.374z" fill="#afc2cb" data-original="#ffffff" style="" class=""/><path d="m302.855 386.235h-46.855v80.748h91.068z" fill="#7b97a7" data-original="#e3eaee" style="" class=""/></g><g><path d="m216.214 84.804c-21.973 0-39.787 17.813-39.787 39.786 0 21.974 17.813 39.787 39.787 39.787 0 21.973 17.813 39.786 39.786 39.786l20-79.573-20-79.573c-21.973 0-39.786 17.813-39.786 39.787z" fill="#ff7cb7" data-original="#ff7cb7" style="" class=""/><path d="m295.788 84.804c0-21.974-17.813-39.787-39.787-39.787h-.001v159.147h.001c21.973 0 39.787-17.813 39.787-39.786 21.973 0 39.787-17.813 39.787-39.787-.001-21.974-17.814-39.787-39.787-39.787z" fill="#ff3996" data-original="#ff3996" style="" class=""/></g><g><g><path d="m233.699 124.59c0 12.317 9.984 22.301 22.301 22.302l20-22.302-20-22.302c-12.317.001-22.301 9.986-22.301 22.302z" fill="#f1f1f1" data-original="#fff275" style="" class=""/><path d="m256.001 102.288-.001 44.604h.001c12.317 0 22.302-9.985 22.302-22.302s-9.985-22.302-22.302-22.302z" fill="#f1f1f1" data-original="#ffd300" style="" class=""/></g><g><g><path d="m320.289 334.636-46.131 32.812.512 9.454-.512 19.454 46.131 22.812c10.16 7.226 24.239-.037 24.239-12.505v-27.012-5.498-27.012c0-12.467-14.08-19.731-24.239-12.505z" fill="#a04cd9" data-original="#a04cd9" style="" class=""/><path d="m191.713 334.636c-10.16-7.226-24.239.037-24.239 12.505v27.012 5.498 27.012c0 12.467 14.08 19.731 24.239 12.505l46.131-22.812-.512-19.454.512-9.454z" fill="#c975f4" data-original="#c975f4" style="" class=""/></g><g><path d="m227.523 380.902c0 15.727 12.749 28.477 28.477 28.478l20-28.478-20-28.478c-15.727.001-28.477 12.751-28.477 28.478z" fill="#7a83ea" data-original="#7a83ea" style="" class=""/><path d="m256.001 352.424-.001 56.956h.001c15.728 0 28.478-12.75 28.478-28.478s-12.75-28.478-28.478-28.478z" fill="#3a4de1" data-original="#3a4de1" style="" class=""/></g></g></g></g></g></g></svg>
