<?xml version="1.0"?>
<svg xmlns="http://www.w3.org/2000/svg" xmlns:xlink="http://www.w3.org/1999/xlink" xmlns:svgjs="http://svgjs.com/svgjs" version="1.1" width="512" height="512" x="0" y="0" viewBox="0 0 512 512" style="enable-background:new 0 0 512 512" xml:space="preserve" class=""><g>
<circle xmlns="http://www.w3.org/2000/svg" style="" cx="256" cy="256" r="256" fill="#f1f1f1" data-original="#01579a" class=""/>
<path xmlns="http://www.w3.org/2000/svg" style="" d="M262.631,511.916c136.117-3.461,245.823-113.168,249.284-249.285L329.284,80l-5.988,53.297L270,80  l-8.901,50.383L210.716,80l-2.298,108.087L80,210.715l49.204,49.204L80,270l50.542,50.542L80,329.284L262.631,511.916z" fill="#f1f1f1" data-original="#004777" class=""/>
<rect xmlns="http://www.w3.org/2000/svg" x="242" y="80" style="" width="28" height="77.81" fill="#ced7db" data-original="#ced7db"/>
<rect xmlns="http://www.w3.org/2000/svg" x="255.57" y="80" style="" width="14.429" height="77.81" fill="#afbdc4" data-original="#afbdc4"/>
<rect xmlns="http://www.w3.org/2000/svg" x="242" y="354.19" style="" width="28" height="77.81" fill="#ced7db" data-original="#ced7db"/>
<g xmlns="http://www.w3.org/2000/svg">
	<rect x="255.57" y="354.19" style="" width="14.429" height="77.81" fill="#afbdc4" data-original="#afbdc4"/>
	<rect x="301.28" y="80" style="" width="28" height="77.81" fill="#afbdc4" data-original="#afbdc4"/>
	<rect x="301.28" y="354.19" style="" width="28" height="77.81" fill="#afbdc4" data-original="#afbdc4"/>
</g>
<g xmlns="http://www.w3.org/2000/svg">
	<rect x="182.72" y="80" style="" width="28" height="77.81" fill="#ced7db" data-original="#ced7db"/>
	<rect x="182.72" y="354.19" style="" width="28" height="77.81" fill="#ced7db" data-original="#ced7db"/>
</g>
<rect xmlns="http://www.w3.org/2000/svg" x="354.19" y="242" style="" width="77.81" height="28" fill="#afbdc4" data-original="#afbdc4"/>
<rect xmlns="http://www.w3.org/2000/svg" x="80" y="242" style="" width="77.81" height="28" fill="#ced7db" data-original="#ced7db"/>
<rect xmlns="http://www.w3.org/2000/svg" x="354.19" y="301.29" style="" width="77.81" height="28" fill="#afbdc4" data-original="#afbdc4"/>
<rect xmlns="http://www.w3.org/2000/svg" x="80" y="301.28" style="" width="77.81" height="28" fill="#ced7db" data-original="#ced7db"/>
<rect xmlns="http://www.w3.org/2000/svg" x="354.19" y="182.72" style="" width="77.81" height="28" fill="#afbdc4" data-original="#afbdc4"/>
<rect xmlns="http://www.w3.org/2000/svg" x="80" y="182.72" style="" width="77.81" height="28" fill="#ced7db" data-original="#ced7db"/>
<rect xmlns="http://www.w3.org/2000/svg" x="138" y="138" style="" width="236" height="236" fill="#ffffff" data-original="#ffffff" class=""/>
<rect xmlns="http://www.w3.org/2000/svg" x="255.57" y="138" style="" width="118.43" height="236" fill="#e6e6e6" data-original="#e6e6e6"/>
<path xmlns="http://www.w3.org/2000/svg" style="" d="M318.223,346.904H193.777c-15.84,0-28.681-12.841-28.681-28.681V193.777  c0-15.84,12.841-28.681,28.681-28.681h124.446c15.84,0,28.681,12.841,28.681,28.681v124.446  C346.904,334.063,334.063,346.904,318.223,346.904z" fill="#17ce59" data-original="#17ce59"/>
<path xmlns="http://www.w3.org/2000/svg" style="" d="M318.223,165.096h-62.651v181.808h62.651c15.84,0,28.681-12.841,28.681-28.681V193.777  C346.904,177.937,334.063,165.096,318.223,165.096z" fill="#10bb67" data-original="#10bb67" class=""/>
<g xmlns="http://www.w3.org/2000/svg">
</g>
<g xmlns="http://www.w3.org/2000/svg">
</g>
<g xmlns="http://www.w3.org/2000/svg">
</g>
<g xmlns="http://www.w3.org/2000/svg">
</g>
<g xmlns="http://www.w3.org/2000/svg">
</g>
<g xmlns="http://www.w3.org/2000/svg">
</g>
<g xmlns="http://www.w3.org/2000/svg">
</g>
<g xmlns="http://www.w3.org/2000/svg">
</g>
<g xmlns="http://www.w3.org/2000/svg">
</g>
<g xmlns="http://www.w3.org/2000/svg">
</g>
<g xmlns="http://www.w3.org/2000/svg">
</g>
<g xmlns="http://www.w3.org/2000/svg">
</g>
<g xmlns="http://www.w3.org/2000/svg">
</g>
<g xmlns="http://www.w3.org/2000/svg">
</g>
<g xmlns="http://www.w3.org/2000/svg">
</g>
</g></svg>
