<?xml version="1.0"?>
<svg xmlns="http://www.w3.org/2000/svg" xmlns:xlink="http://www.w3.org/1999/xlink" xmlns:svgjs="http://svgjs.com/svgjs" version="1.1" width="512" height="512" x="0" y="0" viewBox="0 0 512 512" style="enable-background:new 0 0 512 512" xml:space="preserve" class=""><g><circle xmlns="http://www.w3.org/2000/svg" cx="256" cy="256" fill="#f1f1f1" r="256" data-original="#ffd400" style="" class=""/><path xmlns="http://www.w3.org/2000/svg" d="m375.122 140.475-332.071 154.152 217.336 217.336c132.474-2.226 240.452-105.078 250.801-235.422z" fill="#f1f1f1" data-original="#fcaf03" style="" class=""/><path xmlns="http://www.w3.org/2000/svg" d="m404.147 211.045-20.106-56.815c-4.977-14.063-18.275-23.464-33.193-23.464h-137.451c-11.029 0-21.421 5.168-28.077 13.963l-50.185 66.316-64.543 7.995c-10.256 1.27-18.376 9.277-19.791 19.514l-7.75 56.073h417.839l-6.702-56.002c-.962-8.042-6.618-14.739-14.384-17.036z" fill="#fe6a16" data-original="#fe6a16" style=""/><path xmlns="http://www.w3.org/2000/svg" d="m454.188 238.625c-.962-8.042-6.617-14.74-14.384-17.036l-35.657-10.544-20.106-56.815c-4.977-14.063-18.275-23.464-33.193-23.464h-73.728v163.861h183.77z" fill="#f24500" data-original="#f24500" style=""/><circle xmlns="http://www.w3.org/2000/svg" cx="379.767" cy="294.627" fill="#23272b" r="45.373" data-original="#23272b" style=""/><circle xmlns="http://www.w3.org/2000/svg" cx="379.767" cy="294.627" fill="#cdd2e1" r="22.089" data-original="#cdd2e1" style=""/><circle xmlns="http://www.w3.org/2000/svg" cx="138.448" cy="294.627" fill="#414952" r="45.373" data-original="#414952" style=""/><circle xmlns="http://www.w3.org/2000/svg" cx="138.448" cy="294.627" fill="#e9edf5" r="22.089" data-original="#e9edf5" style=""/><path xmlns="http://www.w3.org/2000/svg" d="m183.025 147.762-44.577 58.905h125.498v-58.905z" fill="#e9edf5" data-original="#e9edf5" style=""/><path xmlns="http://www.w3.org/2000/svg" d="m365.251 154.23c-.633-2.286-1.437-4.448-2.392-6.467h-65.083v58.905h81.99z" fill="#cdd2e1" data-original="#cdd2e1" style=""/><path xmlns="http://www.w3.org/2000/svg" d="m65.052 263.184c12.908 0 23.372-10.464 23.372-23.372v-6.08h-36.41c-.57 1.535-.982 3.149-1.213 4.822l-3.404 24.63z" fill="#ffffff" data-original="#ffffff" style=""/></g></svg>
