<svg xmlns="http://www.w3.org/2000/svg" viewBox="0 0 412 224.9"><path d="M0 63.7V2h18.4c6.8 0 11.9 1.3 15.4 4S39 12.6 39 17.7c0 3.1-.8 5.8-2.4 8s-4.1 3.9-7.3 5.1c3.5.9 6.3 2.6 8.2 5.2s2.9 5.8 2.9 9.7c0 6-2 10.6-5.9 13.5-3.9 3-9.8 4.5-17.7 4.5H0zm10.5-36.1h6.3c3.6 0 6.4-.8 8.5-2.4 2-1.6 3.1-3.9 3.1-6.7s-1-4.9-2.9-6.3c-1.9-1.3-4.9-2-9.1-2h-5.9v17.4zm0 27.4h7.7c3.7 0 6.5-.9 8.5-2.6s3-4.1 3-7.3c0-3-1-5.3-3-7-2-1.6-4.9-2.4-8.6-2.4h-7.6V55zM62 63.7V2h35.9v9.5H72.6v15.2h21.8v9.4H72.6v18h25.8v9.6H62zm58.4 0V0h1.1l39.7 41.2V2h10.5v63.7h-1.1l-39.8-41.2v39.2h-10.4zM221 11.4v52.3h-10.9V11.4h-20.8V2h52.4v9.4H221zm33.6 52.3h-11L273.9 0h.9l29.3 63.7h-11.4l-5-11h-28l-5.1 11zm9.1-19.8h20.2l-10-23-10.2 23zm56.1 19.8V2h10.8v52H357v9.7h-37.2zm54.9 0V2h10.8v52H412v9.7h-37.3zM71.2 146.8c-2.8 2-5.7 3.4-8.8 4.5-3.1 1-6.4 1.5-9.7 1.5-3.5 0-6.9-.6-10.2-1.7s-6.3-2.8-9-5c-3.8-3.1-6.8-6.9-8.8-11.4-2.1-4.5-3.1-9.4-3.1-14.7 0-9.4 3-17.3 9-23.5 6-6.3 13.4-9.4 22.4-9.4a32.39 32.39 0 0 1 9.4 1.4c3 1 5.9 2.4 8.7 4.4l-1.1 12c-2.5-2.6-5-4.6-7.7-5.9s-5.5-2-8.5-2c-6.1 0-11.1 2.1-15.1 6.4-3.9 4.3-5.9 9.7-5.9 16.4 0 6.5 1.9 11.8 5.7 16.1 3.8 4.2 8.7 6.3 14.6 6.3 3.3 0 6.5-.7 9.6-2.2s6.1-3.8 9.2-6.9l-.7 13.7zm20.8 4V89.1h35.9v9.5h-25.3v15.2h21.8v9.4h-21.8v18h25.8v9.6H92zm58.4 0V87.1h1.1l39.7 41.2V89.1h10.5v63.7h-1.1l-39.8-41.2v39.2h-10.4zM251 98.5v52.3h-10.9V98.5h-20.8v-9.4h52.4v9.4H251zm38.3 52.3V89.1h14.3c5.1 0 9 .3 11.8 1s5.3 1.8 7.5 3.3c2.3 1.6 4 3.6 5.3 5.9s1.9 4.7 1.9 7.3c0 4.1-1.2 7.6-3.5 10.5s-5.7 5.2-10 6.6l19.9 27.1h-12.6l-18.7-25.6H300v25.6h-10.7zm10.6-33.5h5c4.7 0 8.2-.8 10.7-2.5s3.7-4.1 3.7-7.3c0-3.3-1.2-5.7-3.7-7.2s-6.4-2.3-11.7-2.3h-4v19.3zm54.2 33.5V89.1H390v9.5h-25.3v15.2h21.8v9.4h-21.8v18h25.8v9.6h-36.4zM76.6 223.9v-29.6h5.1v13.2l12.6-13.2h6l-13.5 14.2 14.9 15.4H95l-13.3-13.8v13.8h-5.1zm35.1 0v-29.6h5.2v29.6h-5.2zm19.8 0v-30.6h.6l19.1 19.8v-18.8h5.1v30.6h-.6l-19.1-19.8v18.8h-5.1zm61.8-22.1c-1.4-1.3-2.8-2.2-4.3-2.9-1.5-.6-3-.9-4.6-.9-3.1 0-5.6 1-7.6 3.1-1.9 2-2.9 4.7-2.9 8 0 3.2 1 5.9 2.9 7.9s4.5 3 7.6 3c.9 0 1.8-.1 2.7-.3s2-.5 3.1-.9v-6.2H183V208h12.3v14c-1.8 1-3.6 1.7-5.4 2.2s-3.7.7-5.5.7c-4.7 0-8.5-1.5-11.4-4.4-2.9-3-4.4-6.7-4.4-11.4 0-4.6 1.5-8.4 4.5-11.4s6.8-4.5 11.4-4.5c1.6 0 3.2.2 4.8.6s3.1 1 4.6 1.9l-.6 6.1zm13.6 15.5c1.6 1 3.1 1.8 4.4 2.3s2.6.7 3.8.7c1.6 0 2.8-.4 3.8-1.2s1.4-1.8 1.4-3a3.94 3.94 0 0 0-1-2.7c-.6-.8-1.8-1.7-3.4-2.6l-2.2-1.3c-2.3-1.3-3.9-2.6-4.8-3.9s-1.4-2.8-1.4-4.4c0-2.3.8-4.2 2.5-5.6s3.8-2.2 6.5-2.2c1.3 0 2.5.1 3.8.4 1.2.3 2.4.7 3.7 1.4l-.2 4.7c-1.5-.8-2.8-1.4-3.9-1.8s-2.1-.6-3-.6c-1.4 0-2.4.3-3.2.9s-1.2 1.4-1.2 2.5c0 .8.3 1.6.9 2.2.6.7 1.6 1.5 3.2 2.4l2.1 1.2c2.5 1.5 4.2 2.9 5.3 4.4s1.6 3.1 1.6 5c0 2.6-.9 4.8-2.8 6.4s-4.3 2.4-7.4 2.4c-1.4 0-2.8-.1-4.1-.4s-2.6-.7-3.8-1.3l-.6-5.9zm43.1-18.5v25.1h-5.2v-25.1h-10v-4.5H260v4.5h-10zm18.8 10.3a17.68 17.68 0 0 1 .8-5.2c.5-1.6 1.3-3.1 2.3-4.5 1.4-1.9 3.1-3.4 5.2-4.4 2-1.1 4.2-1.6 6.5-1.6 2 0 3.8.4 5.7 1.2a15.82 15.82 0 0 1 4.8 3.3c1.4 1.5 2.5 3.2 3.2 5.1s1.1 4 1.1 6.1c0 2.2-.4 4.2-1.1 6.1s-1.8 3.6-3.2 5.1-3 2.6-4.8 3.4-3.7 1.2-5.6 1.2a13.42 13.42 0 0 1-5.6-1.2 15.82 15.82 0 0 1-4.8-3.3c-1.4-1.5-2.5-3.2-3.2-5.1-.9-1.9-1.3-4-1.3-6.2zm5.4 0c0 3.1.9 5.6 2.7 7.7 1.8 2 4 3.1 6.7 3.1s4.9-1 6.7-3.1c1.8-2 2.7-4.6 2.7-7.7s-.9-5.6-2.7-7.7c-1.8-2-4-3.1-6.7-3.1s-4.9 1-6.7 3.1-2.7 4.6-2.7 7.7zm36.5 14.8v-30.6h.6l19.1 19.8v-18.8h5.1v30.6h-.6l-19.1-19.8v18.8h-5.1z"/></svg>