<?xml version="1.0" encoding="UTF-8" standalone="no"?>
<!-- Created with Inkscape (http://www.inkscape.org/) -->

<svg
   xmlns:dc="http://purl.org/dc/elements/1.1/"
   xmlns:cc="http://creativecommons.org/ns#"
   xmlns:rdf="http://www.w3.org/1999/02/22-rdf-syntax-ns#"
   xmlns:svg="http://www.w3.org/2000/svg"
   xmlns="http://www.w3.org/2000/svg"
   xmlns:sodipodi="http://sodipodi.sourceforge.net/DTD/sodipodi-0.dtd"
   xmlns:inkscape="http://www.inkscape.org/namespaces/inkscape"
   width="773"
   height="153"
   id="svg2"
   version="1.1">
  <g
     inkscape:label="Layer 1"
     inkscape:groupmode="layer"
     id="layer1"
     transform="translate(11.499975,-373.91615)">
    <path
       id="path4404"
       d="m 34.617314,449.69146 c 7.601811,0 13.774936,-6.17313 13.774936,-13.77494 l 0,-21.20019 -24.992374,0 -0.0306,-40.21344 c -19.5069712,3.10416 -34.587125,19.93032 -34.869252,40.21344 l 0,70.88506 c 0,22.78769 18.5369696,41.30691 41.324656,41.30691 l 29.225344,0 0,-21.20019 c 0,-7.60181 -6.173125,-13.77493 -13.774937,-13.77493 l -8.254344,0.0153 c -7.495937,-0.1224 -13.563188,-6.24366 -13.563188,-13.77494 l 0,-28.48453 z"
       style="fill:#482f92;fill-rule:nonzero;stroke:none" />
    <path
       id="path4408"
       d="m 398.06074,449.69146 c 7.60181,0 13.77493,-6.17313 13.77493,-13.77494 l 0,-21.20019 -24.99237,0 -0.0306,-40.21344 c -19.50697,3.10416 -34.58713,19.93032 -34.86925,40.21344 l 0,70.88506 c 0,22.78769 18.53697,41.30691 41.32465,41.30691 l 29.22535,0 0,-21.20019 c 0,-7.60181 -6.17313,-13.77493 -13.77494,-13.77493 l -8.25434,0.0153 c -7.49594,-0.1224 -13.56319,-6.24366 -13.56319,-13.77494 l 0,-28.48453 z"
       style="fill:#482f92;fill-rule:nonzero;stroke:none" />
    <path
       id="path4412"
       d="m 174.67831,456.04083 c 0,-22.78768 -18.53697,-41.32465 -41.32466,-41.32465 l -26.73837,0 c -22.787689,0 -41.307064,18.53697 -41.307064,41.32465 l 0,29.56041 c 0,22.78769 18.519375,41.30706 41.307064,41.30706 l 54.28809,0 0,-21.09447 c 0,-7.58406 -6.17312,-13.77493 -13.77478,-13.77493 l -43.31775,0 c -1.97534,0 -3.65097,-1.65788 -3.65097,-3.63322 l 0,-35.16928 c 0,-1.97535 1.67563,-3.65082 3.65097,-3.65082 l 32.36484,0 c 1.97535,0 3.63338,1.67547 3.63338,3.65082 l 0,28.07893 21.09431,0 c 7.60182,0 13.77494,-6.19072 13.77494,-13.77478 z"
       style="fill:#482f92;fill-rule:nonzero;stroke:none" />
    <path
       id="path4416"
       d="m 538.12525,456.04083 c 0,-22.78768 -18.53697,-41.32465 -41.32466,-41.32465 l -26.73837,0 c -22.78769,0 -41.32466,18.53697 -41.32466,41.32465 l 0,29.56041 c 0,22.78769 18.53697,41.30706 41.32466,41.30706 l 54.28809,0 0,-21.09447 c 0,-7.58406 -6.17312,-13.77493 -13.77478,-13.77493 l -43.33534,0 c -1.95775,0 -3.63338,-1.65788 -3.63338,-3.63322 l 0,-35.16928 c 0,-1.97535 1.67563,-3.65082 3.63338,-3.65082 l 32.38243,0 c 1.97535,0 3.65097,1.67547 3.65097,3.65082 l 0,28.07893 21.07672,0 c 7.60182,0 13.77494,-6.19072 13.77494,-13.77478 z"
       style="fill:#482f92;fill-rule:nonzero;stroke:none" />
    <path
       id="path4420"
       d="m 340.85697,456.04083 c 0,-22.78768 -18.53697,-41.32465 -41.30706,-41.32465 l -26.75597,0 c -22.77009,0 -41.30706,18.53697 -41.30706,41.32465 l 0,29.56041 c 0,22.78769 18.53697,41.30706 41.30706,41.30706 l 54.2881,0 0,-21.09447 c 0,-7.58406 -6.17313,-13.77493 -13.77479,-13.77493 l -43.31774,0 c -1.97535,0 -3.65097,-1.65788 -3.65097,-3.63322 l 0,-35.16928 c 0,-1.97535 1.67562,-3.65082 3.65097,-3.65082 l 32.36484,0 c 1.97534,0 3.65097,1.67547 3.65097,3.65082 l 0,28.07893 21.07672,0 c 7.60181,0 13.77493,-6.19072 13.77493,-13.77478 z"
       style="fill:#482f92;fill-rule:nonzero;stroke:none" />
    <path
       id="path4424"
       d="m 184.96109,414.55568 0,112.35079 21.20019,0 c 7.60181,0 13.77493,-6.17313 13.77493,-13.77494 L 219.82912,373.9189 c -19.70097,3.1395 -34.78113,20.24778 -34.78113,40.79559"
       style="fill:#482f92;fill-rule:nonzero;stroke:none" />
    <path
       id="path4428"
       d="m 737.06731,449.69146 c 7.60182,0 13.77494,-6.17313 13.77494,-13.77494 l 0,-21.20019 -24.99237,0 -0.0306,-40.21344 c -19.50697,3.10416 -34.58713,19.93032 -34.86925,40.21344 l 0,70.88506 c 0,22.78769 18.53697,41.30691 41.32465,41.30691 l 29.22535,0 0,-21.20019 c 0,-7.60181 -6.17313,-13.77493 -13.77494,-13.77493 l -8.25434,0.0153 c -7.49594,-0.1224 -13.56319,-6.24366 -13.56319,-13.77494 l 0,-28.48453 z"
       style="fill:#482f92;fill-rule:nonzero;stroke:none" />
    <path
       id="path4432"
       d="m 580.9808,423.23689 c -3.22763,-5.57338 -9.11863,-8.65994 -15.15054,-8.58941 l -29.61334,0 32.29416,56.12238 -32.29416,56.14013 29.61334,0 c 6.03191,0.0765 11.92291,-3.03363 15.15054,-8.60701 l 27.67318,-47.53312 z"
       style="fill:#482f92;fill-rule:nonzero;stroke:none" />
    <path
       id="path4436"
       d="m 638.20383,518.30834 c 3.22763,5.57337 9.11863,8.65994 15.15054,8.60715 l 29.61334,0 -32.29416,-56.14012 32.29416,-56.14013 -29.61334,0 c -6.03191,-0.0459 -11.92291,3.03363 -15.15054,8.607 l -27.67318,47.53313 z"
       style="fill:#482f92;fill-rule:nonzero;stroke:none" />
  </g>
</svg>
