<?xml version="1.0"?>
<svg xmlns="http://www.w3.org/2000/svg" xmlns:xlink="http://www.w3.org/1999/xlink" xmlns:svgjs="http://svgjs.com/svgjs" version="1.1" width="512" height="512" x="0" y="0" viewBox="0 0 512 512" style="enable-background:new 0 0 512 512" xml:space="preserve" class=""><g><g xmlns="http://www.w3.org/2000/svg"><circle cx="256" cy="256" fill="#f1f1f1" r="256" data-original="#7797fb" style="" class=""/><path d="m502.046 326.898c-67.355-67.357-219.224-219.219-219.224-219.219l-100.839 177.088s18.477 18.492 18.72 18.733l-94.703 112.5 88.56 88.56c19.685 4.85 40.258 7.44 61.44 7.44 116.786 0 215.299-78.206 246.046-185.102z" fill="#f1f1f1" data-original="#6666fa" style="" class=""/><g><path d="m188.687 303.5 22.117 16.832 16.102 80.51-15.719 15.158h-105.187v-65.625c0-25.875 21-46.875 46.875-46.875z" fill="#7f584f" data-original="#7f584f" style="" class=""/><path d="m349.75 350.375v46.875h-18.75l-18.75 18.75h-67.687l-13.769-24.905 15.189-75.947 21.08-11.649h35.812c25.875.001 46.875 21.001 46.875 46.876z" fill="#5b362d" data-original="#5b362d" style=""/><path d="m227.875 303.5h-39.188l11.251 56.25 14.167 9.375h13.77 13.477l14.462-9.375 11.249-56.25z" fill="#efbeaa" data-original="#efbeaa" style=""/><path d="m255.814 359.75 11.249-56.25h-39.188v65.625h13.477z" fill="#e19480" data-original="#e19480" style=""/><path d="m256 171.625c-20.711 0-37.5-16.789-37.5-37.5v-1.25c0-20.366 16.51-36.875 36.875-36.875 21.056 0 38.125 17.069 38.125 38.125 0 20.711-16.789 37.5-37.5 37.5z" fill="#45251e" data-original="#45251e" style=""/><path d="m265.375 199.75-37.5-11.969-57.818-18.456c-4.82 9.134-7.807 19.381-7.807 30.425v38.125c0 36.243 29.382 65.625 65.625 65.625s65.625-29.382 65.625-65.625v-19.375z" fill="#f5dbca" data-original="#f5dbca" style=""/><path d="m293.5 237.875v-19.375l-28.125-18.75-37.5-11.969v115.719c36.243 0 65.625-29.382 65.625-65.625z" fill="#efbeaa" data-original="#efbeaa" style=""/><path d="m227.875 134.125c-23.479 0-46.069 12.933-57.818 35.2 11.486 24.978 33.412 41.239 57.818 46.848 6.147 1.412 12.41 2.328 18.75 2.328h46.875v-18.75c0-36.244-29.382-65.626-65.625-65.626z" fill="#7f584f" data-original="#7f584f" style="" class=""/><path d="m293.5 218.5v-18.75c0-36.243-29.382-65.625-65.625-65.625v82.047c6.147 1.412 12.41 2.328 18.75 2.328z" fill="#5b362d" data-original="#5b362d" style=""/><path d="m227.875 359.75h-27.937l11.249 56.25h16.688 16.688l11.251-56.25z" fill="#f1f1fa" data-original="#f1f1fa" style=""/><path d="m255.814 359.75h-27.939v56.25h16.688z" fill="#dfe5f2" data-original="#dfe5f2" style=""/><g><path d="m312.25 284.75v131.25h93.75v-131.25z" fill="#4b5055" data-original="#4b5055" style=""/></g><path d="m359.125 284.75h46.875v131.25h-46.875z" fill="#373c41" data-original="#373c41" style=""/><path d="m331 303.5h56.25v18.75h-56.25z" fill="#f1f1f1" data-original="#7797fb" style="" class=""/><path d="m368.5 341h18.75v18.75h-18.75z" fill="#dfe5f2" data-original="#dfe5f2" style=""/><path d="m331 341h18.75v18.75h-18.75z" fill="#f1f1fa" data-original="#f1f1fa" style=""/><path d="m331 378.5h18.75v18.75h-18.75z" fill="#f1f1fa" data-original="#f1f1fa" style=""/><path d="m368.5 378.5h18.75v18.75h-18.75z" fill="#c53232" data-original="#c53232" style=""/><path d="m359.125 303.5h28.125v18.75h-28.125z" fill="#f1f1f1" data-original="#6666fa" style="" class=""/></g></g></g></svg>
