<?xml version="1.0"?>
<svg xmlns="http://www.w3.org/2000/svg" xmlns:xlink="http://www.w3.org/1999/xlink" xmlns:svgjs="http://svgjs.com/svgjs" version="1.1" width="512" height="512" x="0" y="0" viewBox="0 0 512 512" style="enable-background:new 0 0 512 512" xml:space="preserve" class=""><g><circle xmlns="http://www.w3.org/2000/svg" cx="256" cy="256" fill="#f1f1f1" r="256" data-original="#ffce00" style="" class=""/><path xmlns="http://www.w3.org/2000/svg" d="m286.521 510.199c126.997-15.087 225.479-123.142 225.479-254.199 0-.16 0-.319-.001-.479l-78.399-78.398-1.852 2.966-117.385-117.386-113.666 361.672z" fill="#f1f1f1" data-original="#ffa300" style="" class=""/><path xmlns="http://www.w3.org/2000/svg" d="m314.363 62.703s10.319 102.257 119.238 114.42c0 0 7.53 185.613-177.153 284.174h-.857c-193.769-109.918-177.154-284.174-177.154-284.174 108.919-12.164 119.238-114.42 119.238-114.42z" fill="#4a7aff" data-original="#4a7aff" style="" class=""/><path xmlns="http://www.w3.org/2000/svg" d="m433.601 177.123c-108.919-12.164-119.238-114.42-119.238-114.42h-58.363v398.595h.447c184.683-98.563 177.154-284.175 177.154-284.175z" fill="#0053bf" data-original="#0053bf" style="" class=""/><circle xmlns="http://www.w3.org/2000/svg" cx="256.019" cy="295.732" fill="#ffffff" r="39.748" data-original="#ffffff" style=""/><path xmlns="http://www.w3.org/2000/svg" d="m256.019 255.984c-.006 0-.012 0-.019 0v79.495h.019c21.952 0 39.748-17.796 39.748-39.748s-17.796-39.747-39.748-39.747z" fill="#e9edf5" data-original="#e9edf5" style=""/><circle xmlns="http://www.w3.org/2000/svg" cx="374.249" cy="158.975" fill="#e9edf5" r="24.327" data-original="#e9edf5" style=""/><circle xmlns="http://www.w3.org/2000/svg" cx="137.788" cy="158.975" fill="#ffffff" r="24.327" data-original="#ffffff" style=""/><circle xmlns="http://www.w3.org/2000/svg" cx="352.549" cy="204.629" fill="#e9edf5" r="27.506" data-original="#e9edf5" style=""/><circle xmlns="http://www.w3.org/2000/svg" cx="159.488" cy="204.629" fill="#ffffff" r="27.506" data-original="#ffffff" style=""/><circle xmlns="http://www.w3.org/2000/svg" cx="313.369" cy="251.584" fill="#e9edf5" r="33.927" data-original="#e9edf5" style=""/><circle xmlns="http://www.w3.org/2000/svg" cx="198.668" cy="251.584" fill="#ffffff" r="33.927" data-original="#ffffff" style=""/></g></svg>
