<svg xmlns="http://www.w3.org/2000/svg" viewBox="0 0 1395.2 218.8" xml:space="preserve"><path d="M725.5 0c-4.7 1.6-23.5 8.1-32 11.2v42.6H670v28h23.6V177c0 32.5 20.7 41.6 38 41.6 14.7 0 23.6-1.2 33.7-3.7V187c-4 1.3-10 2.5-17 2.5-12.6 0-22.7-2.4-22.7-20.4V82h39.7V53.8h-39.8V0zm228 141.3c-1.7 8.6-2.8 14.5-3.1 17.3-.5-2.8-1.9-9-3.8-17.4C937 103.7 912.8 8.8 910.9.6h-32.2a29842 29842 0 0 1-35.1 140.7c-2.2 8.6-3.7 16.5-3.8 17.3-.2-.8-1.6-8.7-3.4-17.3L808.2.3c-6.7.2-30 .3-33.5.3L819.6 215h33.2c1.7-5.8 27.7-107 37.5-145.2 2-8 3.3-14.4 3.6-15.5.3 1.1 1.6 7.6 3.6 15.3A16130 16130 0 0 1 934.6 215h33.6c2-10.3 41-203.4 43.1-214.6L979.5.3c-.7 4.7-18.7 103-26 141zm-361.1-91c-18 0-35.8 3-48.7 8.5v28.6A130 130 0 0 1 587 79c35.8 0 36 15.7 36 32.8h-36.7c-41.7 0-64 25.5-64 52.8 0 37.8 31 54 56.2 54a60.7 60.7 0 0 0 44.8-19.5v16H655v-110c0-50.6-45-54.8-62.5-54.8zM623 169.9a52.5 52.5 0 0 1-40.3 20.3c-18.4 0-28.2-11.5-28.2-25.4 0-14 10.5-25 33.8-25H623v30zM467 .6v147.6c0 2-.1 7.7.3 13-2.6-5.2-5.7-10-6.6-11.5-2.7-5-87-140.3-92-149.1h-32.2V215H368V67.8c0-3 0-8.9-.3-12.6 1.5 3.3 4.4 8.2 6.5 11.6 2.1 3.5 87.8 139.7 92.8 148.3h31.4V.6H467zm622 50.2c-24.6 0-72.9 16-72.9 84.3 0 69.8 49 83.5 75.4 83.5a102 102 0 0 0 51-11.2v-29.2a92.3 92.3 0 0 1-46 12c-37.3 0-46.8-25.5-46.8-43.7H1156c6-41.3-11-95.7-67-95.7zm-39.3 68.7c0-17.9 12.4-40.6 37.6-40.6 27.3 0 36.3 25 36.3 40.6h-73.9zM1395 81.8v-28h-39.8V0c-4.7 1.6-23.5 8.1-32 11.2v42.6h-23.5v28h23.5V177c0 32.5 20.7 41.6 38.2 41.6a128 128 0 0 0 33.6-3.7V187c-4 1.3-10 2.5-17 2.5-12.5 0-22.7-2.4-22.7-20.4V81.8h39.7zm-140.9 42.6-20.6-9c-9.3-4.2-23.4-9.6-23.4-21.2 0-10.6 10.5-15.7 25.4-15.7 15 0 28.5 3.3 43.8 11v-30c-6.8-3.3-25.4-8.5-45-8.5-43.2 0-57.1 26.8-57.1 44.5 0 27.6 19.6 37.6 30.8 42.8l28.8 12.7c14.2 6.2 21.8 9.7 21.8 21.2 0 10.2-8.4 18.7-28.5 18.7-19.4 0-39.4-7.7-50.4-13.5v30.4c13.6 6.5 33.3 11 51.4 11 40.7 0 60.5-25.2 60.5-47.6 0-23.2-10.9-35.4-37.5-46.8z" fill="#1c1848"/><path d="M156.7 122.4c.3.5 1 1 1.7 1a2 2 0 0 0 1.7-1l32.2-55.7a7.9 7.9 0 0 0 0-7.7L161 5a8.6 8.6 0 0 0-7.5-4.4h-2.8a4.6 4.6 0 0 1 4 6.7L126.5 56a15.6 15.6 0 0 0 .2 14.8l30 51.7zM105 93a2 2 0 0 0 0-2 2 2 0 0 0-1.7-1H39c-2.5 0-5 1.4-6.5 3.8L1.1 148a8.9 8.9 0 0 0 0 8.7l1.5 2.3c-1.3-2-.5-5 1.7-6.2a4 4 0 0 1 2-.5h56.4c5-.2 10-2.8 12.7-7.6L105 93.1zm.6 59c-.7 0-1.4.5-1.8 1.2-.3.6-.3 1.3 0 2L136 211a8 8 0 0 0 6.8 4l62.4-.1c3 0 5.9-1.7 7.5-4.5l1.4-2.3a4.7 4.7 0 0 1-6.3 1.4c-.6-.3-1.2-.9-1.6-1.3l-28-49a15.7 15.7 0 0 0-13-7h-59.6z" fill="#f16560"/><path d="m126.4 56 28.4-48.6c.3-.7.5-1.4.5-2.1 0-2.6-2-4.7-4.6-4.7H90.9a7.6 7.6 0 0 0-6.7 3.8L51.9 60.2a2 2 0 0 0 0 2c.4.5 1 1 1.7 1L114 63c5.3 0 10 3 12.5 7.2l.2.4a15.5 15.5 0 0 1-.2-14.7zm-63.7 96.3H6.4a4 4 0 0 0-2.1.5c-2.2 1.3-3 4.1-1.7 6.2l30 51.8c1.4 2.6 4 4.1 6.5 4.1h64.3c.7 0 1.4-.4 1.8-1a2 2 0 0 0 0-2l-30.1-52.3c-2.6-4.5-2.4-10 0-14.4l.3-.4a15.1 15.1 0 0 1-12.7 7.5zm115.7 7 28 49c.3.3.9.9 1.5 1.2 2.2 1.4 5 .7 6.3-1.4l29.9-51.8a7.8 7.8 0 0 0 0-7.8l-32-55.7a2 2 0 0 0-1.8-1 2 2 0 0 0-1.8 1l-30.1 52.1a14.4 14.4 0 0 1-12.5 7.2h-.6c5.4 0 10.3 3 13 7.2z" fill="#e21e2e"/></svg>