<?xml version="1.0" encoding="utf-8"?>
<svg version="1.1" id="Layer_1" xmlns="http://www.w3.org/2000/svg" xmlns:xlink="http://www.w3.org/1999/xlink" x="0px" y="0px"
	 viewBox="0 0 45 20.9" style="enable-background:new 0 0 45 20.9;" xml:space="preserve">
<g>
	
		<linearGradient id="SVGID_1_" gradientUnits="userSpaceOnUse" x1="502.1748" y1="-323.5333" x2="502.1748" y2="-292.3223" gradientTransform="matrix(0.6667 0 0 -0.6667 -312.2667 -194.8889)">
		<stop  offset="0" style="stop-color:#161998"/>
		<stop  offset="0.129" style="stop-color:#441E93"/>
		<stop  offset="0.266" style="stop-color:#6E228F"/>
		<stop  offset="0.407" style="stop-color:#90258C"/>
		<stop  offset="0.549" style="stop-color:#AB2889"/>
		<stop  offset="0.694" style="stop-color:#BE2A87"/>
		<stop  offset="0.842" style="stop-color:#C92B86"/>
		<stop  offset="1" style="stop-color:#CD2B86"/>
	</linearGradient>
	<path style="fill:url(#SVGID_1_);" d="M33.1,7.4h4.3l-5.1,6.8H28L33.1,7.4L33.1,7.4L33.1,7.4z M32.8,6.7l-5.5,7.2
		c-0.1,0.2-0.1,0.4-0.1,0.6c0.1,0.2,0.3,0.3,0.5,0.3h4.9l5.5-7.3c0.1-0.1,0.1-0.4,0.1-0.5c-0.1-0.2-0.3-0.3-0.5-0.3L32.8,6.7
		L32.8,6.7L32.8,6.7z M17.1,3.3c0-0.1,0.1-0.1,0.1-0.1h2.9l0.4-2.3c0-0.1,0.1-0.1,0.1-0.1h2.7h0.1c0,0,0.1,0.1,0.1,0.1l-0.3,1.5
		h12.6c0.1,0,0.1,0.1,0.1,0.1v0.2l-1.1,1.5h9.3c0.1,0,0.1,0,0.1,0.1v0.1l-7.8,10.1c-0.1,0.1-0.1,0.4,0,0.5s0.3,0.3,0.4,0.3h5.5
		c0.1,0,0.1,0,0.1,0.1c0,0,0.1,0.1,0,0.1l-0.4,2.3c0,0.1-0.1,0.1-0.1,0.1H21.2h-0.3v0.4c0,1.1-0.9,1.9-1.9,1.9S17,19.3,17,18.3
		s0.9-1.9,1.9-1.9c0.7,0,1.3,0.4,1.7,1l8.5-11.1c0.1-0.3,0.1-0.4,0-0.5c-0.1-0.1-0.3-0.3-0.5-0.3h-5.9l-1.5,8.6
		c0,0.1-0.1,0.1-0.1,0.1h-2.7c-0.1,0-0.1-0.1-0.1-0.1s-0.1-0.1,0-0.1l1.7-9.3l-6.7,13.1c-0.1,0.1-0.2,0.2-0.3,0.2h-2.3
		c-0.1,0-0.1-0.1-0.1-0.1L9.9,8.3l-4.9,9.5c-0.1,0.1-0.2,0.1-0.3,0.1H2.3c-0.1,0-0.1-0.1-0.1-0.1L0.7,3.3c0-0.1,0-0.1,0.1-0.1h0.1H4
		c0.1,0,0.1,0.1,0.1,0.1l0.4,9.4l4.5-9.5c0-0.1,0.1-0.1,0.1-0.1H12c0.1,0,0.1,0.1,0.1,0.1l0.5,9.5C12.6,12.8,17.1,3.3,17.1,3.3z
		 M20.6,0c-0.3,0-0.6,0.3-0.7,0.5l-0.3,1.9h-2.4c-0.3,0-0.5,0.1-0.6,0.3l-3.4,7.3l-0.3-6.9c0-0.3-0.3-0.6-0.7-0.6H9.1
		c-0.3,0-0.5,0.1-0.6,0.3l-3.5,7.2L4.7,3.1c0-0.3-0.3-0.7-0.7-0.7H0.7c-0.2,0-0.3,0.1-0.5,0.2S0,3,0,3.2l1.5,14.7
		c0.1,0.3,0.3,0.6,0.7,0.6h2.5c0.3,0,0.6-0.1,0.7-0.5l3.9-7.4l0.5,7.3c0.1,0.3,0.3,0.6,0.7,0.6H13c0.3,0,0.6-0.1,0.7-0.5l4.7-9.3
		L17.5,14c0,0.2,0,0.4,0.1,0.5s0.3,0.3,0.5,0.3h3c0.3,0,0.6-0.2,0.7-0.5l1.5-8.2h5.1l-7.8,10.2c-0.5-0.4-1.1-0.6-1.7-0.6
		c-1.4,0-2.6,1.1-2.6,2.5c0,0,0,0.1,0,0.1c0,1.4,1.1,2.6,2.5,2.6c0,0,0.1,0,0.1,0c1.3,0,2.4-1,2.6-2.3h20.5c0.3,0,0.6-0.2,0.7-0.5
		l0.5-2.7c0-0.2,0-0.4-0.1-0.5c-0.1-0.1-0.3-0.2-0.5-0.2h-5.3l7.7-10.2c0.1-0.2,0.1-0.5,0-0.7c-0.1-0.2-0.3-0.3-0.5-0.3h-8.3
		l0.5-0.7c0.1-0.2,0.1-0.5,0-0.7c-0.1-0.2-0.3-0.3-0.6-0.3h-12l0.1-0.9c0-0.2,0-0.3-0.1-0.5c-0.1-0.1-0.3-0.2-0.5-0.2L20.6,0
		C20.6,0,20.6,0,20.6,0z"/>
</g>
</svg>
