<?xml version="1.0"?>
<svg xmlns="http://www.w3.org/2000/svg" xmlns:xlink="http://www.w3.org/1999/xlink" xmlns:svgjs="http://svgjs.com/svgjs" version="1.1" width="512" height="512" x="0" y="0" viewBox="0 0 512 512" style="enable-background:new 0 0 512 512" xml:space="preserve" class=""><g>
<g xmlns="http://www.w3.org/2000/svg" id="surface1">
<path d="M 512 256 C 512 397.386719 397.386719 512 256 512 C 114.613281 512 0 397.386719 0 256 C 0 114.613281 114.613281 0 256 0 C 397.386719 0 512 114.613281 512 256 Z M 512 256 " style="" fill="#f1f1f1" data-original="#fa5d0f" class=""/>
<path d="M 512 256 C 512 238.414062 510.222656 221.242188 506.847656 204.65625 L 431.621094 129.429688 L 418.234375 148.246094 L 358.988281 89 L 82.449219 356.855469 L 236.882812 511.289062 C 243.195312 511.757812 249.570312 512 256 512 C 397.386719 512 512 397.386719 512 256 Z M 512 256 " style="" fill="#f1f1f1" data-original="#d84c0f" class=""/>
<path d="M 153.199219 89 L 358.988281 89 L 358.988281 423 L 153.199219 423 Z M 153.199219 89 " style="" fill="#4b5568" data-original="#4b5568" class=""/>
<path d="M 255.761719 89 L 358.988281 89 L 358.988281 423 L 255.761719 423 Z M 255.761719 89 " style="" fill="#323750" data-original="#323750"/>
<path d="M 176.421875 114.039062 L 335.769531 114.039062 L 335.769531 397.960938 L 176.421875 397.960938 Z M 176.421875 114.039062 " style="" fill="#ffffff" data-original="#ffffff" class=""/>
<path d="M 176.421875 114.039062 L 255.761719 114.039062 L 255.761719 397.960938 L 176.421875 397.960938 Z M 176.421875 114.039062 " style="" fill="#ffffff" data-original="#ffffff" class=""/>
<path d="M 431.621094 299.8125 L 431.621094 129.429688 L 292.445312 129.429688 L 292.445312 186.390625 L 240.535156 214.621094 L 292.445312 242.855469 L 292.445312 299.8125 Z M 431.621094 299.8125 " style="" fill="#5a54e0" data-original="#5a54e0"/>
<path d="M 240.535156 214.621094 L 292.445312 242.855469 L 292.445312 299.8125 L 431.621094 299.8125 L 431.621094 214.5 Z M 240.535156 214.621094 " style="" fill="#3a41cc" data-original="#3a41cc"/>
<path d="M 82.449219 197.25 L 82.449219 356.855469 L 212.816406 356.855469 L 212.816406 303.5 L 261.445312 277.054688 L 212.816406 250.605469 L 212.816406 197.25 Z M 82.449219 197.25 " style="" fill="#3de000" data-original="#3de000"/>
<path d="M 261.445312 277.054688 L 82.449219 277 L 82.449219 356.855469 L 212.816406 356.855469 L 212.816406 303.5 Z M 261.445312 277.054688 " style="" fill="#00cc00" data-original="#00cc00" class=""/>
<path d="M 186.132812 327.96875 L 207.691406 306.410156 L 175.777344 274.496094 L 154.195312 296.074219 L 154.242188 296.121094 C 141.988281 290.234375 132.039062 280.269531 126.171875 268 L 126.195312 268.027344 L 147.777344 246.445312 L 115.949219 214.621094 L 94.371094 236.203125 L 94.375 236.203125 C 94.371094 236.203125 94.371094 236.203125 94.367188 236.203125 C 91.101562 288.164062 134.136719 331.214844 186.089844 327.96875 L 186.109375 327.988281 Z M 186.132812 327.96875 " style="" fill="#ffffff" data-original="#ffffff" class=""/>
<path d="M 173.273438 277 L 154.199219 296.074219 L 154.246094 296.121094 C 145.148438 291.753906 137.328125 285.132812 131.5 277 L 101.726562 277 C 115.949219 308.671875 148.710938 330.300781 186.089844 327.96875 L 186.109375 327.988281 L 207.691406 306.40625 L 178.28125 277 Z M 173.273438 277 " style="" fill="#ebebf0" data-original="#ebebf0" class=""/>
<path d="M 313.578125 188.664062 L 415.980469 188.664062 L 415.980469 205.890625 L 313.578125 205.890625 Z M 313.578125 188.664062 " style="" fill="#ffffff" data-original="#ffffff" class=""/>
<path d="M 313.578125 153.96875 L 415.980469 153.96875 L 415.980469 171.195312 L 313.578125 171.195312 Z M 313.578125 153.96875 " style="" fill="#ffffff" data-original="#ffffff" class=""/>
<path d="M 313.578125 223.597656 L 415.980469 223.597656 L 415.980469 240.820312 L 313.578125 240.820312 Z M 313.578125 223.597656 " style="" fill="#ebebf0" data-original="#ebebf0" class=""/>
<path d="M 313.578125 258.527344 L 415.980469 258.527344 L 415.980469 275.753906 L 313.578125 275.753906 Z M 313.578125 258.527344 " style="" fill="#ebebf0" data-original="#ebebf0" class=""/>
</g>
</g></svg>
