<?xml version="1.0" encoding="utf-8"?>
<svg version="1.1" id="Layer_1" xmlns="http://www.w3.org/2000/svg" xmlns:xlink="http://www.w3.org/1999/xlink" x="0px" y="0px"
	 viewBox="0 0 89.6 36.4" style="enable-background:new 0 0 89.6 36.4;" xml:space="preserve">
<g>
	<path style="fill:#00A397;" d="M6,34.9c31.6,2.5,35.8,1.2,76.9,1c2.8,0,6.6-2.3,6.6-5.1c0.1-9.2-0.2-15.7-0.1-24.9
		c0-2.8-2.2-5.1-5-5.2c-33-1-22.6-0.5-56.1-0.6C20,0.1,12.7-0.3,4.8,0.3C2.1,0.6,0,2.7,0,5.4c-0.1,6.5,0,17.2,0.5,23.8
		C0.7,32.4,3.4,34.7,6,34.9z"/>
	<path style="fill:#FFFFFF;" d="M79.4,23v-8.5h1.8c0.2,0,0.3-0.1,0.3-0.3v-1.3c0-0.2-0.1-0.3-0.3-0.3h-1.8v-4c0-0.2-0.1-0.3-0.3-0.3
		h-1.3c-0.2,0-0.3,0.1-0.3,0.3v4h-1.7c-0.2,0-0.3,0.1-0.3,0.3v1.3c0,0.2,0.1,0.3,0.3,0.3h1.8v9.4c0,0.8,0.3,1.5,0.8,2
		s1.2,0.8,1.9,0.8H81c0.2,0,0.3-0.1,0.3-0.3v-1.3c0-0.2-0.1-0.3-0.3-0.3h-0.7c-0.6,0-0.9-0.3-0.9-0.9C79.4,23.9,79.4,23,79.4,23z
		 M63.5,26.7h1.3c0.2,0,0.3-0.1,0.3-0.3v-7.6c0-0.5,0.1-1.1,0.3-1.5c0.2-0.5,0.5-1,0.9-1.5c0.8-0.8,1.8-1.3,3-1.3s2.1,0.4,3,1.3
		c0.8,0.8,1.2,1.8,1.2,3v7.6c0,0.2,0.1,0.3,0.3,0.3h1.4c0.2,0,0.3-0.1,0.3-0.3v-7.6c0-1.6-0.5-3-1.6-4.1c-0.1-0.1-0.1-0.2-0.2-0.2
		c-1.2-1.2-2.7-1.8-4.3-1.8c-0.9,0-1.8,0.2-2.6,0.6c-0.6,0.3-1.1,0.7-1.6,1.2V8.7c0-0.2-0.1-0.3-0.3-0.3h-1.3
		c-0.2,0-0.3,0.1-0.3,0.3v17.7C63.2,26.5,63.3,26.7,63.5,26.7z M47,21.5v-8.6c0-0.2,0.1-0.3,0.3-0.3h1.3c0.2,0,0.3,0.1,0.3,0.3v13.5
		c0,0.2-0.1,0.3-0.3,0.3h-1.3c-0.2,0-0.3-0.1-0.3-0.3V21.5 M47.3,10.5h1.4c0.2,0,0.3-0.1,0.3-0.3V8.7c0-0.2-0.1-0.3-0.3-0.3h-1.4
		c-0.2,0-0.3,0.1-0.3,0.3v1.5C47,10.3,47.1,10.5,47.3,10.5z M44.4,8.4c0.2,0,0.3,0.1,0.3,0.3v15.2c0,0.6,0.3,0.9,0.9,0.9h0.2
		c0.2,0,0.3,0.1,0.3,0.3v1.3c0,0.2-0.1,0.3-0.3,0.3h-0.2c-0.8,0-1.4-0.3-2-0.8c-0.5-0.5-0.8-1.2-0.8-2V8.7c0-0.2,0.1-0.3,0.3-0.3
		H44.4z M10.1,8.6v4H8.3c-0.2,0-0.3,0.1-0.3,0.3v1.3c0,0.2,0.1,0.3,0.3,0.3h1.8v9.4c0,0.8,0.3,1.5,0.8,2s1.2,0.8,1.9,0.8h0.7
		c0.2,0,0.3-0.1,0.3-0.3v-1.3c0-0.2-0.1-0.3-0.3-0.3h-0.7c-0.6,0-0.9-0.3-0.9-0.9v-9.3h1.8c0.2,0,0.3-0.1,0.3-0.3v-1.4
		c0-0.2-0.1-0.3-0.3-0.3h-1.8v-4c0-0.2-0.1-0.3-0.3-0.3h-1.3C10.2,8.3,10.1,8.5,10.1,8.6z M14.8,8.7v17.7c0,0.2,0.1,0.3,0.3,0.3h1.3
		c0.2,0,0.3-0.1,0.3-0.3v-7.5c0-1.2,0.4-2.2,1.2-3c0.8-0.8,1.8-1.3,3-1.3s2.2,0.4,3,1.3c0.8,0.8,1.3,1.8,1.3,3v7.5
		c0,0.2,0.1,0.3,0.3,0.3h1.3c0.2,0,0.3-0.1,0.3-0.3v-7.5c0-1.7-0.6-3.2-1.8-4.4c-1.2-1.2-2.7-1.8-4.3-1.8c-0.9,0-1.8,0.2-2.6,0.6
		c-0.6,0.3-1.1,0.7-1.6,1.2V8.7c0-0.2-0.1-0.3-0.3-0.3h-1.4C14.9,8.4,14.8,8.5,14.8,8.7z M40,18.8c0-1.7-0.6-3.2-1.8-4.4
		s-2.6-1.8-4.3-1.8s-3.1,0.6-4.3,1.8c-1.2,1.2-1.8,2.7-1.8,4.4v1.9c0,1.7,0.6,3.2,1.8,4.4c1.2,1.1,2.7,1.6,4.3,1.6h2.9
		c0.2,0,0.3-0.1,0.3-0.3v-1.1c0-0.2-0.1-0.3-0.3-0.3h-2.9c-1.1,0-2.1-0.4-3-1.2c-0.8-0.8-1.2-1.8-1.2-3h10.1c0.2,0,0.3-0.1,0.3-0.3
		v-1.7H40z M29.6,18.8c0-1.2,0.4-2.2,1.2-3c0.8-0.8,1.8-1.3,3-1.3s2.2,0.4,3,1.3c0.8,0.8,1.2,1.8,1.2,3C38,18.8,29.6,18.8,29.6,18.8
		z M60.9,15.4c-0.2-0.3-0.4-0.5-0.6-0.7c-1.2-1.2-2.7-1.8-4.3-1.8c-1.7,0-3.1,0.6-4.3,1.8c-0.9,0.9-1.4,1.9-1.6,3
		c-0.1,0.4-0.2,0.9-0.2,1.4v1.8c0,1.6,0.5,2.9,1.5,4.1l0.1,0.1l0.1,0.1c1,0.8,2.1,1.3,3.3,1.5H55c0.3,0,0.6,0.1,0.8,0.1
		c0.9,0,1.8-0.2,2.6-0.5c0.6-0.3,1.1-0.6,1.6-1.1c0,0.7-0.2,1.4-0.7,2c-0.2,0.2-0.3,0.4-0.5,0.6c-0.6,0.6-1.4,1-2.2,1.2
		c-0.4,0.1-2.3,0-3,0c-0.2,0-0.3,0.1-0.3,0.3v1.3c0,0.2,0.1,0.3,0.3,0.3c0.7,0,2.4,0.1,3.1,0c0.9-0.1,1.8-0.4,2.6-1
		c0.3-0.2,0.7-0.5,1-0.8c0.8-0.8,1.3-1.6,1.6-2.5c0.2-0.5,0.2-1.1,0.2-1.6v-6C62.1,17.6,61.7,16.4,60.9,15.4L60.9,15.4z M52.5,23.3
		c-0.5-0.7-0.7-1.5-0.7-2.4V19c0-0.2,0-0.5,0.1-0.7c0.1-0.9,0.5-1.6,1.2-2.3c0.8-0.8,1.8-1.3,3-1.3s2.1,0.4,3,1.3
		c0,0.1,0.1,0.1,0.1,0.2c0.7,0.8,1.1,1.7,1.1,2.8v2.3c-0.1,1-0.5,1.8-1.2,2.6c-0.8,0.8-1.8,1.2-3,1.2c-1.1,0-2.1-0.4-3-1.2
		C52.8,23.7,52.6,23.5,52.5,23.3z"/>
</g>
</svg>
