<?xml version="1.0"?>
<svg xmlns="http://www.w3.org/2000/svg" xmlns:xlink="http://www.w3.org/1999/xlink" xmlns:svgjs="http://svgjs.com/svgjs" version="1.1" width="512" height="512" x="0" y="0" viewBox="0 0 512 512" style="enable-background:new 0 0 512 512" xml:space="preserve" class=""><g><g xmlns="http://www.w3.org/2000/svg"><circle cx="256" cy="256" fill="#f1f1f1" r="256" data-original="#554e56" style="" class=""/><g><path d="m512 256c0-4.211-.109-8.397-.31-12.559l-102.299-102.299-342.72 215.28 153 153c11.869 1.687 23.994 2.578 36.329 2.578 141.385 0 256-114.615 256-256z" fill="#f1f1f1" data-original="#40383f" style="" class=""/></g><g><g><path d="m66.671 141.142v215.28h171.36l20-107.64-20-107.64z" fill="#fcd0a2" data-original="#fcd0a2" style="" class=""/><path d="m238.031 141.142h171.36v215.28h-171.36z" fill="#ffba84" data-original="#ffba84" style="" class=""/></g><path d="m259.271 202.084h128.88v30h-128.88z" fill="#ff5b5b" data-original="#ff5b5b" style=""/><path d="m259.271 265.48h128.88v30h-128.88z" fill="#ff5b5b" data-original="#ff5b5b" style=""/><g><path d="m452.807 314.508c16.695-16.695 16.696-43.764 0-60.46-16.696-16.696-43.765-16.695-60.46 0l-41.914 41.914 20.609 40.609 39.851 19.851z" fill="#7a555e" data-original="#e3eaee" style="" class=""/><path d="m350.433 295.962-41.914 41.914c-16.695 16.695-16.696 43.764 0 60.46 16.696 16.696 43.765 16.695 60.46 0l41.914-41.914z" fill="#ca2e43" data-original="#ca2e43" style="" class=""/></g><g><ellipse cx="152.351" cy="248.782" fill="#ffffff" rx="62.122" ry="62.122" transform="matrix(.122 -.993 .993 .122 -113.182 369.595)" data-original="#ffffff" style=""/><path d="m165.519 235.614v-27.827h-26.336v27.827h-27.827v26.336h27.827v27.827h26.336v-27.827h27.827v-26.336z" fill="#ca2e43" data-original="#ca2e43" style="" class=""/></g></g></g></g></svg>
