<?xml version="1.0" encoding="utf-8"?>
<svg version="1.1" id="Layer_1" xmlns="http://www.w3.org/2000/svg" xmlns:xlink="http://www.w3.org/1999/xlink" x="0px" y="0px"
	 viewBox="0 0 923.08 465.01" style="enable-background:new 0 0 923.08 465.01;" xml:space="preserve">
<g>
	<path style="fill:#CC0000;" d="M390.66,0h8.87c19.5,0.59,39.6,4.73,56.74,15.37c14.18,8.87,24.82,21.87,30.73,37.24
		c4.14,10.05,6.5,21.28,7.09,31.92h-63.83c-0.59-8.87-3.55-18.32-10.64-24.23c-7.09-6.5-17.14-8.27-26.6-7.68
		c-8.27,0-16.55,2.96-22.46,8.87c-7.09,7.09-10.64,16.55-12.41,26.01c-2.36,11.23-2.36,23.05-1.18,34.28
		c1.18,11.23,3.55,23.05,10.64,31.92c5.32,7.09,13,11.23,21.87,12.41c8.87,1.18,18.32,0.59,26.6-3.55
		c6.5-3.55,11.23-9.46,13.59-15.96c1.77-4.14,2.36-8.87,2.96-13.59h63.24c-1.18,18.32-6.5,36.64-17.14,51.42
		c-10.05,13.59-24.23,23.05-40.19,28.96c-11.82,4.14-24.82,5.91-37.23,6.5h-10.05c-17.14-0.59-34.28-4.14-49.65-11.82
		c-15.37-7.68-27.78-19.5-36.64-34.28c-10.64-17.73-15.37-39.01-15.96-59.1c-1.18-22.46,2.36-44.33,12.41-63.24
		c7.68-15.37,19.5-28.37,34.28-36.64C352.25,4.73,371.16,0,390.66,0L390.66,0z M762.42,0h9.46c18.91,0.59,38.42,4.14,54.37,14.78
		c8.27,5.32,15.37,12.41,20.09,20.69c5.32,9.46,8.27,19.5,9.46,30.14h-63.24c-0.59-4.73-2.96-8.87-5.91-11.82
		c-4.14-4.14-10.64-5.32-16.55-5.91c-5.32-0.59-11.23,0-16.55,1.18c-3.55,1.18-7.09,3.55-8.27,7.68c-1.18,3.55-1.18,8.27,1.18,11.23
		c1.77,2.96,5.32,4.73,8.87,5.91c5.91,2.36,11.82,3.55,17.73,5.32c12.41,3.55,24.82,5.91,37.23,9.46
		c8.27,2.36,15.96,5.32,23.05,9.46c7.68,4.73,14.78,11.23,20.1,18.91c5.32,7.68,7.68,17.14,8.27,26.6
		c0.59,11.23-1.18,23.05-5.91,33.69c-3.55,8.27-9.46,15.96-16.55,21.87c-13.59,10.64-30.14,15.96-47.28,18.32
		c-6.5,0.59-12.41,1.18-18.91,1.18h-9.46c-15.37-0.59-30.73-2.96-44.92-9.46c-13.59-5.91-26-16.55-33.1-29.55
		c-5.32-9.46-8.27-20.69-9.46-31.33h65.01c1.18,4.73,2.96,10.05,6.5,13.59c2.96,2.96,6.5,5.32,10.64,5.91
		c5.32,1.18,11.23,1.77,16.55,1.18c5.32-0.59,11.23-1.18,15.96-4.14c2.96-1.77,5.32-5.32,5.91-8.87c0.59-3.55,0-7.68-2.96-10.64
		c-2.36-2.96-6.5-4.14-10.05-5.32c-6.5-1.77-12.41-3.55-18.91-5.32c-11.82-2.96-23.05-5.91-34.87-10.05
		c-8.27-2.96-16.55-5.32-24.23-10.05c-8.27-5.32-15.37-12.41-20.1-21.28c-4.73-9.46-6.5-20.69-6.5-31.33
		c0.59-10.05,2.96-19.5,7.68-28.37c4.73-8.27,11.82-15.37,20.09-20.69C723.41,3.55,742.91,0.59,762.42,0L762.42,0z M52.6,8.87
		C57.92,3.55,65.6,0,73.88,0c8.27,0,16.55,2.96,22.46,8.87l36.05,36.05l36.05-36.05C173.76,3.55,182.03,0,189.72,0
		c8.27,0,15.96,2.96,21.87,8.87l44.33,44.33c5.91,5.91,9.46,14.78,8.87,23.05c-0.59,7.68-3.55,14.78-8.87,20.1
		c-41.37,40.78-82.15,82.16-123.52,122.94C91.02,178.49,50.24,137.12,8.87,96.34C3.55,91.02,0.59,83.93,0,76.84v-4.73
		c0.59-7.09,3.55-14.18,8.87-19.5C23.64,38.42,37.83,23.64,52.6,8.87z M480.5,5.32h67.97c11.82,44.92,23.05,89.25,34.87,134.17
		c12.41-44.92,24.82-89.25,37.23-134.17h65.6c-23.05,69.15-46.69,138.3-70.33,207.46h-66.79C527.19,144.21,504.14,75.06,480.5,5.32
		L480.5,5.32z"/>
	<g>
		<path d="M34.14,279.3v-18.77h63.81v18.77H78.01v64.84h100.84V279.3h-19.94v-18.77h63.81v18.77h-19.94v162.67h19.94v18.77h-63.81
			v-18.77h19.94v-79.63H78.01v79.63h19.94v18.77H34.14v-18.77h19.94V279.3H34.14z M557.96,260.53h41.63v166.7
			c0.57,3.98,1.14,9.1,3.42,12.52c2.28,2.84,5.7,3.98,9.12,3.98c3.99,0,7.41,0,11.4-1.14v18.21c-6.84,2.28-14.26,2.28-21.1,1.14
			c-5.7-1.14-11.97-3.41-15.97-7.4c-4.56-3.98-6.84-10.24-7.98-15.93c-1.71-7.4-1.14-15.36-1.14-22.76V278.74h-18.82
			C557.96,273.05,557.96,266.79,557.96,260.53L557.96,260.53z M706.96,260.53h41.02v77.35c6.27-8.53,15.95-14.22,26.21-17.06
			c10.26-2.84,21.08-2.84,31.9-0.57c10.82,2.28,20.51,7.96,27.92,15.93c9.12,9.67,13.67,22.18,15.38,35.26
			c0.57,6.26,0.57,12.51,0.57,18.2v52.9h18.8v18.2h-60.39v-18.2h18.8v-63.7c0-10.81-2.85-21.61-9.68-30.15
			c-6.27-6.83-15.38-10.81-24.5-11.38c-9.69-0.57-19.94,0.57-28.49,5.69c-6.27,3.98-10.82,10.24-13.67,17.06
			c-2.28,6.26-2.85,12.51-2.85,19.34v62.57h18.8v18.2h-59.82v-18.2h18.8V278.17h-18.8V260.53L706.96,260.53z M643.69,287.31h22.85
			v35.27h27.99v18.2h-27.99v84.76c0,4.55,0.57,9.1,2.86,13.08c2.29,2.84,5.71,4.55,9.14,4.55c5.14,0.57,10.85,0,16-0.57v18.2
			c-7.43,2.28-14.85,2.28-22.28,1.14c-7.43-1.14-14.85-3.41-20-9.1c-7.43-7.39-8.57-18.77-8.57-29.01v-83.62h-21.71V322h21.71
			V287.31L643.69,287.31z M282.46,321.46c12.53-3.41,26.2-3.41,38.73-1.14c14.81,2.84,28.48,10.8,37.59,22.18
			c6.83,8.53,10.82,18.2,13.1,28.43c2.28,9.1,1.71,18.77,1.71,27.87H254.55c0.57,11.37,4.56,22.75,11.96,31.28
			c6.27,7.39,15.38,12.51,25.06,14.22c10.25,2.27,21.07,1.71,30.76-1.14c10.82-2.84,20.5-10.24,25.63-19.9h22.78
			c-6.27,14.22-17.09,26.16-31.33,32.98c-10.25,5.12-21.64,7.39-33.04,7.96c-17.66,0.57-35.31-4.55-48.98-15.35
			c-13.1-10.24-21.64-26.16-24.49-42.65c-3.42-19.9,0-41.51,11.39-58.01C252.27,335.11,266.51,325.44,282.46,321.46L282.46,321.46z
			 M292.14,338.52c-9.68,1.71-19.37,6.26-26.2,13.65c-7.4,7.96-11.39,18.77-12.53,29h96.83c-1.14-10.24-4.56-20.47-11.39-28.43
			c-4.56-5.69-11.39-10.24-18.23-13.08C312.08,336.81,301.82,336.81,292.14,338.52L292.14,338.52z M426.82,326.5
			c14.83-7.97,32.51-9.68,49.05-5.69c13.12,3.42,25.1,11.39,33.65,22.21v-20.5h41.07v18.22h-18.82v101.93h18.82v18.22h-41.07v-20.5
			c-8.56,11.39-21.1,19.36-35.36,22.78c-18.82,4.56-39.93,0.57-55.33-10.82c-13.69-10.25-23.39-25.63-26.81-42.14
			c-3.99-17.65-2.28-36.45,5.7-52.39C403.43,344.15,413.7,333.33,426.82,326.5L426.82,326.5z M455.9,337.89
			c-13.12,1.14-25.67,8.54-33.08,19.93c-9.7,14.24-11.98,32.46-8.56,48.97c2.85,13.67,11.41,26.76,24.53,33.6
			c15.4,7.97,35.36,7.4,49.05-2.85c7.41-5.13,12.55-11.96,16.54-20.5c5.7-13.67,6.84-29.61,2.85-43.85
			c-3.42-13.1-12.55-25.63-25.1-31.89C474.16,338.46,465.03,336.75,455.9,337.89L455.9,337.89z M889.47,425.56
			c7.41-6.82,20.51-6.25,27.34,1.14c3.42,3.41,5.13,7.95,6.27,12.5v4.55c-0.57,4.55-2.28,9.09-5.7,12.5
			c-5.7,6.25-14.81,7.95-22.79,5.11c-5.7-2.27-10.25-6.82-11.39-12.5C880.92,439.76,883.2,430.67,889.47,425.56z M899.72,424.42
			c-2.85,0.57-5.13,1.7-7.41,3.98c-6.84,6.25-6.84,18.18-0.57,25c5.13,5.68,15.38,6.25,21.08,1.14c7.98-6.82,7.98-20.45,0-26.7
			C908.83,424.99,903.71,423.85,899.72,424.42z"/>
		<path d="M895.14,430.09h10.94c2.3,0,5.18,1.14,5.76,4.01c0.58,2.29,0.58,4.58-0.58,6.87c-1.15,1.72-2.88,2.29-4.61,2.29
			c2.3,3.43,4.61,6.87,6.33,9.73h-4.03c-2.3-3.43-4.03-6.3-5.76-9.73h-3.45v9.73h-4.03C895.14,445.55,895.14,438.11,895.14,430.09
			L895.14,430.09z M898.59,433.53v6.87c2.3,0,5.18,0,7.48-0.57c2.88-0.57,2.88-5.15,0-5.72
			C903.78,432.96,901.47,433.53,898.59,433.53z"/>
	</g>
</g>
</svg>
