<svg xmlns="http://www.w3.org/2000/svg" viewBox="0 0 126.6 49.28"><path d="M44.34 32.2h-3.71V11.93h5.57c2.49 0 3.83.43 5.03 1.55 1.23 1.15 1.94 2.95 1.94 4.8 0 4.1-2.31 6.41-6.43 6.41h-2.4v7.51m1.51-10.94c2.34 0 3.49-.97 3.49-2.98s-1.17-2.92-3.72-2.92h-1.28v5.9h1.51 0zm10.66 6.66l-1.72 4.28h-3.94l8.26-20.7h2.8l8 20.7h-3.97l-1.63-4.28h-7.8zm3.97-10.49l-2.77 7.3h5.43l-2.66-7.3zM84.65 32.2h-4.57l-5.14-8.15h-.49v8.15h-3.71V11.93h5.51c4.29 0 6.74 2.19 6.74 5.99 0 3.1-1.54 5.14-4.34 5.74l6 8.54m-9.11-10.94c2.37 0 3.63-1.1 3.63-3.13 0-1.98-1.26-3.01-3.57-3.01h-1.15v6.14h1.09zm20.91-9.33h4.69l-8.06 9.36 8.49 10.91h-4.89l-6.77-9.12-.46.49v8.63h-3.71V11.93h3.71v8.57z" fill="#1c1c1c"/><g fill="#ed1c2e"><path d="M91.05 35.47L77.36 49.28h10.88l13.78-13.81z"/><path d="M112.9 35.47h-10.88l13.69-13.83h10.89z"/></g><path d="M26.83 21.61H15.95l8.65 8.74c-2.07 1.16-4.46 1.81-7.01 1.81-7.94 0-14.38-6.42-14.38-14.33C3.22 9.92 9.65 3.5 17.59 3.5s14.38 6.42 14.38 14.33c0 2.57-.68 4.99-1.87 7.08l-3.27-3.3m.14 11.13l2.67 2.7h10.88l-8.02-8.1a17.6 17.6 0 0 0 2.87-9.65C35.38 7.92 27.46 0 17.69 0S0 7.92 0 17.69s7.92 17.69 17.69 17.69a17.59 17.59 0 0 0 9.28-2.64" fill="#1c1c1c"/></svg>