<?xml version="1.0"?>
<svg xmlns="http://www.w3.org/2000/svg" xmlns:xlink="http://www.w3.org/1999/xlink" xmlns:svgjs="http://svgjs.com/svgjs" version="1.1" width="512" height="512" x="0" y="0" viewBox="0 0 512 512" style="enable-background:new 0 0 512 512" xml:space="preserve" class=""><g>
<circle xmlns="http://www.w3.org/2000/svg" style="" cx="256" cy="256" r="256" fill="#f1f1f1" data-original="#303f9e" class=""/>
<path xmlns="http://www.w3.org/2000/svg" style="" d="M261.043,511.936C400.098,509.248,512,395.699,512,256c0-9.303-0.509-18.485-1.477-27.531  l-70.828-70.829l-23.827,56.393L321.835,120l-7.152,21.796l-73.945-73.945l-73.222,63.819l46.751,46.751L77,274.664l109.011,109.011  L155.585,407L261.043,511.936z" fill="#f1f1f1" data-original="#1a237e" class=""/>
<circle xmlns="http://www.w3.org/2000/svg" style="" cx="373.55" cy="215.19" r="87.68" fill="#feea3b" data-original="#feea3b" class=""/>
<path xmlns="http://www.w3.org/2000/svg" style="" d="M373.551,127.515c-0.113,0-0.224,0.004-0.337,0.004v175.349c0.113,0,0.224,0.004,0.337,0.004  c48.424,0,87.679-39.255,87.679-87.679C461.23,166.77,421.975,127.515,373.551,127.515z" fill="#fed500" data-original="#fed500" class=""/>
<circle xmlns="http://www.w3.org/2000/svg" style="" cx="373.55" cy="215.19" r="66.14" fill="#fec007" data-original="#fec007" class=""/>
<path xmlns="http://www.w3.org/2000/svg" style="" d="M373.551,149.05c-0.113,0-0.224,0.008-0.337,0.008v132.27c0.113,0.001,0.224,0.009,0.337,0.009  c36.53,0,66.143-29.614,66.143-66.144C439.695,178.663,410.081,149.05,373.551,149.05z" fill="#feaa00" data-original="#feaa00" class=""/>
<path xmlns="http://www.w3.org/2000/svg" style="" d="M403.128,197.268v-3.563c0-11.208-9.082-20.328-20.271-20.404v-7.222h-18.611v7.222  c-11.19,0.075-20.272,9.195-20.272,20.404v10.257c0,11.254,9.156,20.41,20.41,20.41h18.333c0.992,0,1.799,0.807,1.799,1.799v10.508  c0,0.992-0.807,1.8-1.799,1.8h-18.333c-0.992,0-1.799-0.807-1.799-1.8v-2.331h-18.611v2.331c0,11.208,9.082,20.328,20.272,20.404  v7.222h18.611v-7.222c11.189-0.076,20.271-9.196,20.271-20.404v-10.508c0-11.254-9.156-20.41-20.41-20.41h-18.333  c-0.992,0-1.799-0.808-1.799-1.8v-10.257c0-0.992,0.807-1.8,1.799-1.8h18.333c0.992,0,1.799,0.807,1.799,1.8v3.563L403.128,197.268  L403.128,197.268z" fill="#fef5e0" data-original="#fef5e0" class=""/>
<g xmlns="http://www.w3.org/2000/svg">
	<path style="" d="M403.128,197.268v-3.563c0-11.208-9.082-20.328-20.271-20.404v-7.222h-9.643v25.826h9.504   c0.992,0,1.799,0.807,1.799,1.8v3.563H403.128z" fill="#e0e0e0" data-original="#e0e0e0" class=""/>
	<path style="" d="M382.718,224.373c0.992,0,1.799,0.807,1.799,1.799v10.509c0,0.992-0.807,1.8-1.799,1.8h-9.504   v25.826h9.643v-7.222c11.189-0.076,20.271-9.196,20.271-20.403v-10.509c0-11.254-9.156-20.41-20.41-20.41h-9.504v18.61   L382.718,224.373L382.718,224.373z" fill="#e0e0e0" data-original="#e0e0e0" class=""/>
</g>
<circle xmlns="http://www.w3.org/2000/svg" style="" cx="277.38" cy="399.59" r="48.578" fill="#feea3b" data-original="#feea3b" class=""/>
<path xmlns="http://www.w3.org/2000/svg" style="" d="M277.384,351.011c-0.201,0-0.398,0.013-0.598,0.015v97.125c0.2,0.002,0.398,0.015,0.598,0.015  c26.829,0,48.578-21.749,48.578-48.578C325.962,372.76,304.213,351.011,277.384,351.011z" fill="#fed500" data-original="#fed500" class=""/>
<circle xmlns="http://www.w3.org/2000/svg" style="" cx="277.38" cy="399.59" r="36.646" fill="#fec007" data-original="#fec007" class=""/>
<path xmlns="http://www.w3.org/2000/svg" style="" d="M277.384,362.942c-0.201,0-0.398,0.012-0.598,0.015v73.263c0.2,0.003,0.398,0.015,0.598,0.015  c20.239,0,36.646-16.407,36.646-36.647C314.03,379.35,297.623,362.942,277.384,362.942z" fill="#feaa00" data-original="#feaa00" class=""/>
<path xmlns="http://www.w3.org/2000/svg" style="" d="M293.771,389.658v-1.974c0-6.21-5.032-11.262-11.231-11.305v-4.001h-10.311v4.001  c-6.2,0.042-11.232,5.095-11.232,11.305v5.683c0,6.235,5.073,11.308,11.308,11.308h10.158c0.55,0,0.997,0.447,0.997,0.997v5.822  c0,0.55-0.447,0.997-0.997,0.997h-10.158c-0.55,0-0.997-0.447-0.997-0.997v-1.291h-10.311v1.291c0,6.21,5.032,11.263,11.232,11.305  v4.001h10.311v-4.001c6.199-0.042,11.231-5.095,11.231-11.305v-5.822c0-6.235-5.073-11.308-11.308-11.308h-10.158  c-0.55,0-0.997-0.447-0.997-0.997v-5.683c0-0.55,0.447-0.997,0.997-0.997h10.158c0.55,0,0.997,0.447,0.997,0.997v1.974H293.771z" fill="#fef5e0" data-original="#fef5e0" class=""/>
<g xmlns="http://www.w3.org/2000/svg">
	<path style="" d="M282.463,404.675c0.55,0,0.997,0.447,0.997,0.997v5.822c0,0.55-0.447,0.997-0.997,0.997h-5.677   V426.8h5.754v-4.001c6.199-0.042,11.231-5.095,11.231-11.305v-5.822c0-6.235-5.073-11.308-11.308-11.308h-5.677v10.311H282.463z" fill="#e0e0e0" data-original="#e0e0e0" class=""/>
	<path style="" d="M293.771,389.658v-1.974c0-6.21-5.032-11.262-11.231-11.304v-4.001h-5.754v14.309h5.677   c0.55,0,0.997,0.447,0.997,0.997v1.974h10.311V389.658z" fill="#e0e0e0" data-original="#e0e0e0" class=""/>
</g>
<circle xmlns="http://www.w3.org/2000/svg" style="" cx="204.16" cy="99.8" r="48.578" fill="#feea3b" data-original="#feea3b" class=""/>
<path xmlns="http://www.w3.org/2000/svg" style="" d="M204.162,51.224c-0.198,0-0.393,0.013-0.591,0.015v97.126c0.198,0.002,0.393,0.015,0.591,0.015  c26.829,0,48.578-21.749,48.578-48.578S230.991,51.224,204.162,51.224z" fill="#fed500" data-original="#fed500" class=""/>
<circle xmlns="http://www.w3.org/2000/svg" style="" cx="204.16" cy="99.8" r="36.646" fill="#fec007" data-original="#fec007" class=""/>
<path xmlns="http://www.w3.org/2000/svg" style="" d="M204.162,63.155c-0.198,0-0.394,0.012-0.591,0.015v73.263c0.197,0.003,0.393,0.015,0.591,0.015  c20.239,0,36.646-16.407,36.646-36.646C240.809,79.562,224.402,63.155,204.162,63.155z" fill="#feaa00" data-original="#feaa00" class=""/>
<path xmlns="http://www.w3.org/2000/svg" style="" d="M220.549,89.87v-1.974c0-6.21-5.032-11.262-11.231-11.304v-4.001h-10.311v4.001  c-6.2,0.042-11.232,5.095-11.232,11.304v5.683c0,6.235,5.073,11.308,11.308,11.308h10.158c0.55,0,0.997,0.447,0.997,0.997v5.822  c0,0.55-0.447,0.997-0.997,0.997h-10.158c-0.55,0-0.997-0.447-0.997-0.997v-1.291h-10.311v1.291c0,6.21,5.032,11.263,11.232,11.304  v4.001h10.311v-4.001c6.199-0.042,11.231-5.095,11.231-11.304v-5.822c0-6.235-5.073-11.308-11.308-11.308h-10.158  c-0.55,0-0.997-0.447-0.997-0.997v-5.683c0-0.55,0.447-0.997,0.997-0.997h10.158c0.55,0,0.997,0.447,0.997,0.997v1.974H220.549z" fill="#fef5e0" data-original="#fef5e0" class=""/>
<g xmlns="http://www.w3.org/2000/svg">
	<path style="" d="M220.549,89.87v-1.974c0-6.21-5.032-11.262-11.231-11.304v-4.001h-5.747V86.9h5.67   c0.55,0,0.997,0.447,0.997,0.997v1.974L220.549,89.87L220.549,89.87z" fill="#e0e0e0" data-original="#e0e0e0" class=""/>
	<path style="" d="M209.241,104.888c0.55,0,0.997,0.447,0.997,0.997v5.822c0,0.55-0.447,0.997-0.997,0.997h-5.67   v14.309h5.747v-4.001c6.199-0.042,11.231-5.095,11.231-11.304v-5.822c0-6.235-5.073-11.308-11.308-11.308h-5.67v10.311   L209.241,104.888L209.241,104.888z" fill="#e0e0e0" data-original="#e0e0e0" class=""/>
</g>
<path xmlns="http://www.w3.org/2000/svg" style="" d="M178.752,417.43L178.752,417.43c-13.145,0-24.856-8.306-29.202-20.712l-46.078-131.546  c-7.047-20.119,7.884-41.17,29.202-41.17l0,0c13.145,0,24.856,8.306,29.202,20.712l46.078,131.547  C215,396.379,200.069,417.43,178.752,417.43z" fill="#afbdc4" data-original="#afbdc4" class=""/>
<path xmlns="http://www.w3.org/2000/svg" style="" d="M321.835,352.646c0,0-59.317-55.812-207.293-61.225c-29.614-1.083-53.04-25.464-53.04-55.098l0,0  c0-29.634,23.426-54.015,53.04-55.098C262.518,175.812,321.835,120,321.835,120V352.646z" fill="#ffffff" data-original="#ffffff" class=""/>
<path xmlns="http://www.w3.org/2000/svg" style="" d="M61.503,236.262c0,0.02-0.001,0.04-0.001,0.061l0,0c0,29.634,23.426,54.015,53.04,55.098  c147.976,5.413,207.293,61.225,207.293,61.225V236.262H61.503z" fill="#e0e0e0" data-original="#e0e0e0" class=""/>
<path xmlns="http://www.w3.org/2000/svg" style="" d="M251.835,315.459c13.671,4.826,25.185,9.867,34.667,14.627V142.559  c-9.482,4.76-20.995,9.801-34.667,14.627L251.835,315.459L251.835,315.459z" fill="#fe5722" data-original="#fe5722"/>
<path xmlns="http://www.w3.org/2000/svg" style="" d="M251.835,236.262v79.197c13.671,4.826,25.185,9.867,34.667,14.627v-93.825L251.835,236.262  L251.835,236.262z" fill="#e54a19" data-original="#e54a19"/>
<g xmlns="http://www.w3.org/2000/svg">
</g>
<g xmlns="http://www.w3.org/2000/svg">
</g>
<g xmlns="http://www.w3.org/2000/svg">
</g>
<g xmlns="http://www.w3.org/2000/svg">
</g>
<g xmlns="http://www.w3.org/2000/svg">
</g>
<g xmlns="http://www.w3.org/2000/svg">
</g>
<g xmlns="http://www.w3.org/2000/svg">
</g>
<g xmlns="http://www.w3.org/2000/svg">
</g>
<g xmlns="http://www.w3.org/2000/svg">
</g>
<g xmlns="http://www.w3.org/2000/svg">
</g>
<g xmlns="http://www.w3.org/2000/svg">
</g>
<g xmlns="http://www.w3.org/2000/svg">
</g>
<g xmlns="http://www.w3.org/2000/svg">
</g>
<g xmlns="http://www.w3.org/2000/svg">
</g>
<g xmlns="http://www.w3.org/2000/svg">
</g>
</g></svg>
