<?xml version="1.0" encoding="utf-8"?>
<svg version="1.1" id="Layer_1" xmlns="http://www.w3.org/2000/svg" xmlns:xlink="http://www.w3.org/1999/xlink" x="0px" y="0px"
	width="100px" height="100px" viewBox="0 0 100 100" style="enable-background:new 0 0 100 100;" xml:space="preserve">
<g>
	<path style="fill:#E8E8E8;" d="M50,0c27.61,0,50,22.39,50,50s-22.39,50-50,50S0,77.61,0,50S22.39,0,50,0"/>
	<path style="fill:#FFFFFF;" d="M50,1c27.06,0,49,21.94,49,49S77.06,99,50,99S1,77.06,1,50S22.94,1,50,1"/>
	<g id="g3348">
		<path id="path3354" style="fill:#DB1F26;" d="M78.79,48.45l-0.06,0.77c-0.45,5.54-2.25,7.25-4.48,7.25c-2,0-3.41-1.35-3.12-4.96
			l0.06-0.81c0.45-5.51,2.25-7.25,4.48-7.25C77.63,43.46,79.08,44.85,78.79,48.45 M28.88,48.45l-0.06,0.77
			c-0.45,5.54-2.25,7.25-4.48,7.25c-2,0-3.41-1.35-3.12-4.96l0.06-0.81c0.45-5.51,2.25-7.25,4.48-7.25
			C27.72,43.46,29.16,44.85,28.88,48.45 M76.31,38.02c-3.54,0-6.42,1.09-8.45,3.35c0.29-0.78,0.44-1.74,0.46-2.87h-12.4
			c-2.7,0-4.25,1.19-5.31,4.25l0.55-4.25H38.63c-2.29,0-3.87,1.1-4.44,3.24c-1.55-2.49-4.31-3.73-7.8-3.73
			c-6.63,0-10.95,3.83-11.72,12.01l-0.1,1.03c-0.68,7.31,3.16,10.92,9.11,10.92c6.63,0,10.95-3.86,11.72-12.04l0.1-1.03
			c0.17-1.88,0.05-3.51-0.34-4.89h5.62l-1.61,13.78c-0.32,2.74,1.16,3.99,3.64,3.99c1.51,0,2.03-0.1,2.61-0.19l2-17.58h6.54
			l-1.61,13.78c-0.32,2.74,1.16,3.99,3.64,3.99c1.51,0,2.03-0.1,2.61-0.19l2-17.58h3.22c1.11,0,2.01-0.26,2.71-0.77
			c-1.01,1.79-1.68,4.04-1.94,6.79l-0.1,1.03c-0.68,7.31,3.16,10.92,9.11,10.92c6.63,0,10.95-3.86,11.72-12.04l0.1-1.03
			C86.1,41.63,82.27,38.02,76.31,38.02"/>
	</g>
</g>
</svg>
