<svg xmlns="http://www.w3.org/2000/svg" viewBox="0 0 200 200"><path d="M0 0h200v200H0z" fill="#01478d"/><path d="M82.9 89.3c.4-.7.8-.8 2.8-.8h.4v-.8H75v.8h.7c2 0 2.4.1 2.8.8s.4 1.2.4 4.5v4.8H66.1v-4.8c0-3.3 0-3.8.4-4.5s.8-.8 2.8-.8h.6v-.8H59.8h-1-5.7v.8c1.7 0 2.5.8 2.5 2.4a6.28 6.28 0 0 1-.3 1.9l-.4 1.5-3.7 13h-.1l-7.2-19.6h-1l-6.4 19.6h-.1l-4.3-14.2-.4-1.4c-.2-.6-.3-1.3-.3-1.6 0-1 .5-1.3 2.4-1.5h.2v-.8h-9.1v.8h.3c1.7.1 2.4.8 3.1 3.3l.6 1.8 5.9 19.1h.8l6.5-20.2h.1l7.4 20.2h.8l5.4-18.4c.8-2.8 1.1-3.6 1.7-4.5.6-.8 1.2-1.2 2.3-1.3 1.6 0 2 .2 2.4.8.4.7.4 1.2.4 4.5v12c0 5.2-.1 5.5-3.1 5.5h-.6v.8h11v-.8h-.6c-2.9 0-3.1-.3-3.1-5.5V100h12.7v5.9c0 5.2-.2 5.5-3.1 5.5H75v.8h11.1v-.8h-.6c-2.9 0-3.1-.3-3.1-5.5v-12c0-3.4.1-3.9.5-4.6zm7 14.7h1c.5 2.7 1.3 4.4 2.5 5.7 1.3 1.3 2.9 2 4.7 2 3.1 0 5.4-2 5.4-4.8 0-2.3-1.4-3.9-5-5.4l-1.6-.6c-3.1-1.3-4.6-2.4-5.6-3.7-.7-1.1-1.2-2.5-1.2-3.8 0-3.5 2.7-6.1 6.4-6.1 2.4 0 4 .7 5.7 2.6.6-.7.8-1.3.9-2.1h.8v6.4h-.8c-.9-3.7-3.4-6-6.5-6-2.6 0-4.2 1.5-4.2 3.8 0 1.3.8 2.6 2.2 3.5.9.6 1.6 1 3.7 1.9l4.5 2.2c.8.5 1.4 1.1 1.9 1.7.9 1.2 1.4 2.7 1.4 4.5 0 4-3.2 6.8-7.7 6.8-2.7 0-4.9-1-6.7-3.1-.4.6-.7 1.3-.9 2.4h-.9V104h0zm22.6-7.2c.4.9.5 1.8.5 2.8v.3h.1c1.6-2.1 3.4-3.1 5.4-3.1 2.5 0 4.1 1.1 4.7 3.3 2.1-2.5 3.6-3.3 5.9-3.3 1.5 0 3 .7 3.7 1.7.7.9.8 1.4.8 4.2v4.4c0 2.9 0 3.1.2 3.5.3.6.8.7 2 .7h.3v.8h-7.4v-.8h.1c1.8 0 2.2-.4 2.2-2.3v-2-4.9c0-3.1-.7-4.1-3-4.1-1.6 0-3 1-4.7 3.2v5.8c0 3 0 3.1.3 3.5.3.5.8.7 1.8.7h.1v.8h-7.1v-.8h.2c1.8 0 2.2-.4 2.2-2.3V107v-4.1c0-3.9-.7-5-3.1-5-1.5 0-2.5.6-4.4 2.7l-.2.2v6.2c0 3 0 3.1.3 3.5.3.5.8.7 1.9.7h.2v.8h-7.2v-.8h.2c1.8 0 2.2-.4 2.2-2.3V107v-4.4c0-2.9 0-3.1-.3-3.5-.3-.5-.8-.7-2-.7h-.2v-.8c1.6-.1 3.2-.5 4.3-.8h0 0zm30.2 10.3c0 2.9 0 3.1.3 3.5.3.6.8.7 1.9.7h.4v.8h-8v-.8h.6c1.8 0 2.1-.4 2.2-2.3v-2-4.5c0-3.8-.1-4.1-2.3-4.1h-.5v-.8c1.7-.1 4-.6 5-1h.4v10.5h0zm-1.6-19.8c1 0 1.8.9 1.8 1.9s-.8 1.9-1.8 1.9a1.97 1.97 0 0 1-1.9-1.9c0-1 .8-1.9 1.9-1.9h0zm9.8 10.9v8.9c0 3.4.5 4.4 2.2 4.4.8 0 1.5-.5 2.3-1.5l.6.3c-.7 1.5-2.2 2.4-3.8 2.4-1.4 0-2.7-.7-3.2-1.8-.5-.9-.6-1.6-.6-4.4v-8.3h-2.1v-.8c2.2-.1 3.7-1.8 4.1-4.6h.6v4.6h4.5v.8h-4.6 0zm11.2 1.6h0c1.5-2 3.3-3 5.4-3 1.5 0 2.8.4 3.7 1.2 1.1 1 1.3 1.9 1.3 5v4.1c0 2.9 0 3.1.3 3.5.3.6.8.7 2 .7h.3v.8h-7.7v-.8h.4c1.8 0 2.2-.4 2.2-2.3v-2-4.4c0-3.7-.7-4.8-3.4-4.8-1.7 0-3.3 1.2-4.4 3.2v6c0 3 0 3.1.3 3.5.3.6.8.7 2 .7h.1v.8h-7.7v-.8h.4c1.8 0 2.1-.4 2.2-2.3V107 92.3c0-3-.3-3.4-2.2-3.4h-.3V88h.2c.7 0 2-.1 3.3-.4.6-.1.7-.2 1.2-.4h.4v12.6h0z" fill="#fff"/></svg>