<?xml version="1.0" encoding="utf-8"?>
<!-- Generator: Adobe Illustrator 24.2.1, SVG Export Plug-In . SVG Version: 6.00 Build 0)  -->
<svg version="1.1" id="Layer_1" xmlns="http://www.w3.org/2000/svg" xmlns:xlink="http://www.w3.org/1999/xlink" x="0px" y="0px"
	 viewBox="0 0 730.7 117.8" style="enable-background:new 0 0 730.7 117.8;" xml:space="preserve">
<g>
	<g>
		<path style="fill:#0A51A1;" d="M270.8,111.3c-13.2,0-23.7-4.3-31.6-13c-7.9-8.7-11.9-20-11.9-33.9c0-14.9,4-26.9,12.1-35.8
			c8.1-8.9,19.1-13.3,33-13.3c12.8,0,23.2,4.3,31,13c7.8,8.6,11.8,19.9,11.8,33.9c0,15.2-4,27.1-12.1,36S284.2,111.3,270.8,111.3z
			 M271.5,25.1c-9.8,0-17.7,3.5-23.8,10.6c-6.1,7-9.1,16.3-9.1,27.7c0,11.4,3,20.7,8.9,27.6c5.9,7,13.7,10.5,23.2,10.5
			c10.2,0,18.2-3.3,24.1-10c5.9-6.7,8.8-16,8.8-27.9c0-12.3-2.9-21.7-8.6-28.4C289.4,28.4,281.6,25.1,271.5,25.1z"/>
		<path style="fill:#0A51A1;" d="M381.7,109.7h-10.6V71.9c0-14.1-5.1-21.1-15.4-21.1c-5.3,0-9.7,2-13.2,6c-3.5,4-5.2,9-5.2,15.1
			v37.8h-10.6V43.4h10.6v11h0.3c5-8.4,12.3-12.6,21.8-12.6c7.3,0,12.8,2.3,16.7,7c3.8,4.7,5.8,11.5,5.8,20.3V109.7z"/>
		<path style="fill:#0A51A1;" d="M449.7,79.2h-46.8c0.2,7.4,2.2,13.1,6,17.1c3.8,4,9,6,15.7,6c7.5,0,14.3-2.5,20.6-7.4v10
			c-5.8,4.2-13.5,6.3-23.1,6.3c-9.4,0-16.7-3-22.1-9c-5.4-6-8-14.5-8-25.4c0-10.3,2.9-18.7,8.8-25.2c5.9-6.5,13.1-9.8,21.8-9.8
			s15.4,2.8,20.1,8.4c4.8,5.6,7.1,13.4,7.1,23.4V79.2z M438.8,70.2c0-6.1-1.5-10.9-4.4-14.3c-2.9-3.4-7-5.1-12.1-5.1
			c-5,0-9.3,1.8-12.8,5.4c-3.5,3.6-5.7,8.3-6.5,14.1H438.8z"/>
		<path style="fill:#0A51A1;" d="M461.9,109.7V16.8h25.7c32.7,0,49.1,15.1,49.1,45.3c0,14.3-4.5,25.9-13.6,34.6
			c-9.1,8.7-21.3,13.1-36.5,13.1H461.9z M472.8,26.7v73.2h13.9c12.2,0,21.7-3.3,28.4-9.8c6.8-6.5,10.2-15.8,10.2-27.7
			c0-23.8-12.7-35.7-38-35.7H472.8z"/>
		<path style="fill:#0A51A1;" d="M583.6,54.1c-1.9-1.4-4.5-2.1-8-2.1c-4.5,0-8.3,2.1-11.4,6.4c-3,4.3-4.6,10.1-4.6,17.5v33.8H549
			V43.4h10.6V57h0.3c1.5-4.7,3.8-8.3,6.9-10.9c3.1-2.6,6.6-3.9,10.4-3.9c2.8,0,4.9,0.3,6.3,0.9V54.1z"/>
		<path style="fill:#0A51A1;" d="M597,26.5c-1.9,0-3.5-0.6-4.9-1.9c-1.3-1.3-2-2.9-2-4.9c0-2,0.7-3.6,2-5c1.3-1.3,3-2,4.9-2
			c1.9,0,3.6,0.7,5,2c1.4,1.3,2,3,2,5c0,1.9-0.7,3.5-2,4.9C600.5,25.9,598.9,26.5,597,26.5z M602.1,109.7h-10.6V43.4h10.6V109.7z"/>
		<path style="fill:#0A51A1;" d="M671.3,43.4l-26.4,66.3h-10.4l-25.1-66.3H621l16.8,48.2c1.3,3.5,2,6.6,2.3,9.3h0.3
			c0.4-3.3,1.1-6.3,2.1-9l17.6-48.5H671.3z"/>
		<path style="fill:#0A51A1;" d="M730.7,79.2h-46.8c0.2,7.4,2.2,13.1,6,17.1c3.8,4,9,6,15.7,6c7.5,0,14.3-2.5,20.6-7.4v10
			c-5.8,4.2-13.5,6.3-23.1,6.3c-9.4,0-16.7-3-22.1-9c-5.4-6-8-14.5-8-25.4c0-10.3,2.9-18.7,8.8-25.2c5.9-6.5,13.1-9.8,21.8-9.8
			c8.7,0,15.4,2.8,20.1,8.4c4.8,5.6,7.1,13.4,7.1,23.4V79.2z M719.8,70.2c0-6.1-1.5-10.9-4.4-14.3c-2.9-3.4-7-5.1-12.1-5.1
			c-5,0-9.3,1.8-12.8,5.4c-3.5,3.6-5.7,8.3-6.5,14.1H719.8z"/>
	</g>
	<path style="fill:#0A51A1;" d="M179.7,74.4c0-0.7,0.1-1.4,0.1-2.1c0-15.8-12.8-28.6-28.6-28.6c-5.8,0-11.2,1.7-15.7,4.7
		C130,37.8,119,30.6,106.3,30.6c-18.1,0-32.8,14.7-32.8,32.8c0,0.7,0,1.3,0.1,2c-0.7-0.1-1.4-0.1-2.2-0.1
		c-14.5,0-26.2,11.7-26.2,26.2c0,14.4,11.7,26.1,26.1,26.2v0h0.2h96.3h17c0.6-0.2,1.1-0.5,1.7-0.8c7.4-3.7,12.4-11.4,12.4-20.2
		C198.8,85.5,190.5,76.1,179.7,74.4z"/>
	<path style="fill:#0A51A1;" d="M67.8,59.7c1.9-19.6,18.4-34.9,38.5-34.9c12.6,0,24.1,6,31.3,16c4.3-1.8,8.9-2.8,13.6-2.8
		c0.3,0,0.6,0,0.9,0C149.9,16.6,131.9,0,110,0C93.4,0,79.1,9.5,72.1,23.4c-4.9-3.3-10.8-5.2-17.1-5.2c-16.9,0-30.6,13.7-30.6,30.6
		c0,2.3,0.3,4.5,0.7,6.6C11.1,56.4,0,68.2,0,82.5c0,15,12.2,27.2,27.2,27.2H45c-3.6-5.2-5.6-11.4-5.6-18.1
		C39.3,75.1,51.8,61.5,67.8,59.7z"/>
</g>
</svg>
