<?xml version="1.0" encoding="utf-8"?>
<svg version="1.1" id="Layer_1" xmlns="http://www.w3.org/2000/svg" xmlns:xlink="http://www.w3.org/1999/xlink" x="0px" y="0px"
	 viewBox="0 0 923.08 401.75" style="enable-background:new 0 0 923.08 401.75;" xml:space="preserve">
<g>
	<path d="M848.89,228.88c-12.57,11.85-17.11,21.38-17.11,34.45c0,20.3,17.79,24.69,38.23,32.65c15.17,5.9,26.86,10.48,26.86,24.21
		c0,28.02-49.01,38.35-60.1,49.82c-5.08,5.26-7.65,10.35-7.65,18.1c0,4.03,0.24,12.97,11.1,12.97c13.12,0,40.4-15.99,54.99-26.86
		c16.12-11.99,24.74-26.23,24.74-45.15c0-15.77-9.47-28.75-19.76-35.08c-9.24-5.69-22.9-8.42-32.67-12.39
		c-18.1-7.4-12.77-16.76-4.91-25.18c24.04-25.73,44.12-17.97,54.95-30.02c4.59-5.14,5.52-13.3,5.52-15.77
		c0-8.57-6.25-14.47-13.05-14.47C903.43,196.16,870.22,208.77,848.89,228.88L848.89,228.88z M779.47,237.69
		c6.3,0,4.62,7.31,4.62,9.84c0,10.85-21.94,68.87-35.57,68.87c-3.03,0-4.73-1.79-4.73-7.84
		C743.79,293.92,765.07,237.69,779.47,237.69L779.47,237.69z M637.27,253.59c9,1.12,8.31,6.05,18.16,9.07
		c9.84,3.03,15.89,1.51,21.17,1.51c5.32,0,5.48,2.27,5.48,12.13c0,12.61-5.32,43.71-29.04,43.71c-22.95,0-25.16-28.82-25.16-41.45
		C627.89,262.66,631.22,252.82,637.27,253.59L637.27,253.59z M646.81,236.28c0-8.08,6.54-10.98,12.59-10.98
		c7.06,0,17.21,8.51,17.21,16.09c0,4.28-3.44,9.55-11.26,9.55C658.55,250.94,646.81,245.36,646.81,236.28L646.81,236.28z
		 M124.96,401.75h13.71c13.72,0,15.51-6.64,15.51-22.52c0,0-0.1-123.18-0.1-131.5c0-8.32,1.66-10.04,10.03-11.17
		c8.42-1.14,32.72-3.6,38.8-3.6c4.95,0,8.84,1.21,8.23,10.79V381.5c0,15.92,1.86,18.94,8.71,18.94h12.76
		c8.98,0,10.89-8.59,10.89-18.94c0-9.09-0.1-130.17-0.1-140.02c0-8.59,1.19-11.23,11.35-12.37c3.32-0.39,18.91-1.53,25.93-1.53
		c16.3,0,20.74,4.42,14.1,14.76c-4.54,7.07-19.49,43.55-19.49,63.5c0,9.82,5.49,28.75,19.12,28.75c13.62,0,26.93-20.13,35.58-34.54
		c7.37-12.29,11.15-12.06,15.12,1.99c2.38,8.32,4.56,26.24,14.45,31.64c3.26,1.79,8.45,2.36,12.74-0.06
		c19.78-11.09,38.73-55.65,46.6-89.58c4.63-19.9,20.32-17.29,19.32-0.29v59.9c0,9.44,4.24,24.48,15.35,30.16
		c5.08,2.58,13.11,1.74,18.39-0.42c22.02-8.96,40.83-80.68,44.21-92.58c4.17-14.72,18.9-11.2,18.14,2.18v60.26
		c0,13.43,5.77,26.86,13.71,30.6c6.45,3.04,14.59,2.58,20.59-0.52c7.73-3.95,14.36-14.86,19.45-22.99
		c6.27-9.99,10.41-9.92,18.18,1.53c4.25,6.29,15.91,23.74,40.12,23.74c34.3,0,49.65-36.1,49.65-58.46c0-10.57,1.21-17.83,6.52-20.62
		c5.58-2.93,14.16-7,18.74-7c7.26,0,3.38,9.64,2.65,12.48c-1.42,5.58-5.68,22.99-5.68,34.82c0,19.43,7.06,38.41,23.46,38.41
		c16.25,0,29.9-21.19,34.44-28.47c5.42-8.71,10.22-8.5,11.17,0.47c0.76,7.2,0.57,9.65,0.57,9.65c0,12.61,3.77,18.26,10.51,18.26
		h8.13c6.62,0,13.91-5.99,13.91-21.39V75.71c0-12.12-2.39-14.38-10.7-14.38h-6.7c-8.34,0-12.9,3.77-12.9,14.38v125.62
		c0,6.07-2.15,9-6.69,9c-8.23,0-11.26,0.82-15.98,3.12c-18.55,9.08-40,19.66-54.23,24.3c-13.96,4.54-17.5,5.65-21.48-0.58
		c-8.72-13.75-18.23-28.26-43.89-28.26c-17.19,0-30.51,8.41-39.86,20.96c-9.91,13.3-12.07,27.98-16.43,41.02
		c-9.64,28.91-25.45,47.6-25.45,25.06l-0.09-25.34l0.65-23.56c0-16.56-18.27-21.95-29.13-25.25c-13.19-4.03-14.2-11.36-14.2-24.32
		c0-13.12-1.51-23.75-12.86-23.75c-5.79,0-20.53,4.32-20.53,23.75c0,14.37,14.47,20.34,14.47,33.11c0,8.6-9.48,38.3-15.62,52.69
		c-4.05,9.57-9.98,21.68-13.73,21.68c-3.56,0-4.51-3.93-4.51-11.84v-49.47c0-15.61-20.82-20.91-32.34-24.88
		c-10.29-3.55-10.51-9.97-10.51-23.08c0-19.94-7.03-23.95-14.1-23.95c-9.07,0-19.3,6.6-19.3,23c0,17.11,14.29,20.05,14.29,34.62
		c0,9.18-14,52.59-22.52,66.52c-6.13,9.98-9.16,9.51-12.21,0.56c-3.59-10.54-6.47-44.42-9.27-51.84c-2.73-7.3-13.7-7.28-17.99-0.11
		c-5.86,9.84-24.29,46.65-36.6,61.7c-0.97,1.18-9.92,12.14-9.92,0.76c0-14.14,19.67-44.09,35.47-60.37
		c12.45-12.81,27.7-15.71,27.7-27.35c0-12.35-15.5-11.82-26.85-11.82c-33.61,0-70.58,2.46-82.88,3.03
		c-9.6,0.45-9.86-0.87-9.86-11.74V12.89c0-7.47-3.75-12.89-11.71-12.89l-4.06,0.01c-12.49,0-16.76,4.17-16.76,22.72v177.86
		c0,10.35-2.11,13.51-10.51,14.56l-36.43,3.6c-7.56,0.66-9.07-1.04-9.07-14.38V22.73c0-22.91-11.41-22.72-17.21-22.72h-10.5
		c-5.57,0-17.7,5.55-17.7,22.72v187.7c0,12.49-1,14.31-12.12,15.9c-10.59,1.51-67.55,8.33-86.68,10.59
		c-7.09,0.86-9.84,1.57-10.76,4.78c-0.29,1.01-0.11,4.79-0.03,5.75c0.28,3.72,4.4,5.84,9.18,5.29c9.87-1.14,81.1-9.74,81.1-9.74
		c14.69-1.89,18.52-1.44,18.52,10.12v129.14c0,11.6,5.65,19.49,16.01,19.49"/>
</g>
</svg>
