<?xml version="1.0" encoding="utf-8"?>
<svg version="1.1" id="Layer_1" xmlns="http://www.w3.org/2000/svg" xmlns:xlink="http://www.w3.org/1999/xlink" x="0px" y="0px"
	width="100px" height="100px" viewBox="0 0 100 100" style="enable-background:new 0 0 100 100;" xml:space="preserve">
<g>
	<path style="fill:#E8E8E8;" d="M50,0c27.61,0,50,22.39,50,50s-22.39,50-50,50S0,77.61,0,50S22.39,0,50,0"/>
	<path style="fill:#FFFFFF;" d="M50,1c27.06,0,49,21.94,49,49S77.06,99,50,99S1,77.06,1,50S22.94,1,50,1"/>
	<g>
		<path d="M25.82,42.19c0.28,0,0.55,0,0.83,0c0,2.09,0,4.17,0,6.28c0.04-0.05,0.06-0.07,0.07-0.1c0.72-1.29,1.83-2,3.27-2.21
			c0.82-0.12,1.62-0.07,2.4,0.23c0.93,0.36,1.64,0.98,2.18,1.81c0.46,0.71,0.73,1.49,0.88,2.32c0.12,0.65,0.15,1.31,0.11,1.97
			c-0.06,1.1-0.31,2.15-0.89,3.1c-0.59,0.98-1.42,1.67-2.52,2.01c-0.64,0.2-1.3,0.23-1.96,0.16c-0.83-0.09-1.58-0.37-2.24-0.87
			c-0.5-0.37-0.9-0.83-1.21-1.37c-0.02-0.04-0.04-0.07-0.07-0.11c0,0-0.01,0-0.03-0.02c0,0.15,0,0.29,0,0.43c0,0.14,0,0.29,0,0.43
			c0,0.14,0,0.28,0,0.42c0,0.14,0,0.29,0,0.43c0,0.14,0,0.29,0,0.44c-0.28,0-0.55,0-0.82,0C25.8,57.44,25.79,42.42,25.82,42.19z
			 M34.74,51.96c-0.01-0.46-0.05-0.93-0.14-1.39c-0.14-0.69-0.37-1.34-0.75-1.93c-0.49-0.76-1.16-1.3-2.05-1.54
			c-0.59-0.16-1.18-0.17-1.78-0.07c-0.78,0.13-1.45,0.46-2.01,1.02c-0.5,0.5-0.84,1.1-1.04,1.77c-0.35,1.12-0.41,2.26-0.19,3.41
			c0.13,0.7,0.37,1.35,0.76,1.95c0.45,0.69,1.04,1.21,1.81,1.51c0.59,0.23,1.2,0.29,1.83,0.24c0.67-0.06,1.29-0.27,1.83-0.68
			c0.5-0.38,0.86-0.87,1.13-1.42C34.56,53.92,34.72,52.96,34.74,51.96z"/>
		<path d="M74.1,48.45c0-2.09,0-4.17,0-6.26c0.28,0,0.55,0,0.83,0c0,5.12,0,10.23,0,15.35c-0.28,0-0.55,0-0.83,0
			c0-0.71,0-1.42,0-2.13c-0.07,0.02-0.08,0.07-0.1,0.1c-0.31,0.54-0.71,1.01-1.21,1.38c-0.67,0.5-1.43,0.79-2.26,0.87
			c-0.78,0.08-1.54,0.01-2.27-0.27c-0.97-0.38-1.7-1.05-2.23-1.94c-0.39-0.66-0.62-1.37-0.75-2.12c-0.11-0.63-0.14-1.27-0.11-1.91
			c0.06-1.1,0.31-2.15,0.88-3.11c0.51-0.86,1.21-1.53,2.14-1.93c0.58-0.25,1.18-0.36,1.8-0.35c0.69,0,1.36,0.12,2,0.4
			c0.87,0.38,1.54,0.99,2.01,1.82c0.02,0.04,0.04,0.07,0.07,0.11C74.07,48.44,74.07,48.44,74.1,48.45z M66.01,52
			c0.01,0.4,0.04,0.82,0.11,1.24c0.11,0.65,0.31,1.27,0.63,1.85c0.4,0.7,0.94,1.25,1.69,1.57c0.57,0.25,1.18,0.32,1.8,0.28
			c0.46-0.03,0.91-0.13,1.33-0.32c0.75-0.33,1.3-0.87,1.72-1.57c0.53-0.89,0.76-1.86,0.8-2.88c0.02-0.44-0.01-0.89-0.08-1.33
			c-0.09-0.62-0.26-1.22-0.55-1.79c-0.44-0.85-1.08-1.47-1.98-1.82c-0.64-0.25-1.31-0.31-1.99-0.24c-0.7,0.07-1.32,0.33-1.86,0.79
			c-0.46,0.39-0.8,0.88-1.06,1.43C66.18,50.09,66.02,51.02,66.01,52z"/>
		<path d="M44.93,50.12c-0.28,0-0.55,0-0.83,0c0-0.1-0.01-0.2,0-0.3c0.05-0.76,0.26-1.47,0.7-2.09c0.5-0.71,1.19-1.15,2.01-1.39
			c0.65-0.2,1.31-0.24,1.99-0.21c0.47,0.03,0.94,0.1,1.39,0.26c1.07,0.39,1.7,1.15,1.91,2.26c0.06,0.3,0.08,0.61,0.08,0.91
			c0,2.19,0,4.37,0,6.56c0,0.07,0,0.13,0,0.2c0.01,0.21,0.11,0.33,0.31,0.38c0.2,0.05,0.41,0.03,0.61,0.02
			c0.14-0.01,0.28-0.03,0.42-0.04c0,0.29,0,0.57,0,0.85c-0.43,0.04-0.86,0.08-1.29-0.02c-0.58-0.13-0.88-0.53-0.91-1.12
			c-0.01-0.19,0-0.38,0-0.6c-0.03,0.03-0.06,0.05-0.07,0.07c-0.7,0.97-1.66,1.55-2.82,1.81c-0.95,0.21-1.91,0.19-2.85-0.1
			c-0.57-0.18-1.07-0.46-1.47-0.91c-0.38-0.43-0.59-0.93-0.67-1.5c-0.07-0.55-0.04-1.09,0.1-1.62c0.23-0.87,0.76-1.47,1.58-1.83
			c0.42-0.19,0.87-0.29,1.32-0.36c0.61-0.09,1.23-0.11,1.84-0.15c0.65-0.04,1.3-0.06,1.94-0.2c0.12-0.02,0.23-0.06,0.34-0.1
			c0.44-0.15,0.69-0.45,0.73-0.92c0.04-0.51,0.01-1.02-0.15-1.52c-0.19-0.62-0.61-1.03-1.22-1.26c-0.37-0.14-0.76-0.2-1.15-0.22
			c-0.59-0.03-1.17,0-1.73,0.17c-0.81,0.24-1.43,0.71-1.8,1.48c-0.18,0.38-0.27,0.78-0.31,1.2C44.95,49.92,44.94,50.02,44.93,50.12z
			 M51.33,51.51c-0.02,0-0.04,0-0.05,0.01c-0.4,0.23-0.84,0.34-1.3,0.39c-0.57,0.06-1.15,0.1-1.73,0.14
			c-0.59,0.04-1.18,0.05-1.77,0.15c-0.39,0.07-0.77,0.16-1.12,0.35c-0.48,0.25-0.8,0.64-0.96,1.16c-0.13,0.44-0.17,0.88-0.1,1.33
			c0.06,0.44,0.24,0.83,0.55,1.16c0.32,0.32,0.71,0.51,1.14,0.62c0.53,0.14,1.07,0.16,1.62,0.12c0.66-0.05,1.28-0.22,1.84-0.57
			c1.22-0.76,1.81-1.89,1.86-3.31c0.02-0.47,0-0.95,0-1.42C51.34,51.59,51.33,51.55,51.33,51.51z"/>
		<path d="M85.06,49.97c-0.28,0-0.55,0-0.83,0c-0.01-0.17-0.01-0.34-0.02-0.5c-0.04-0.58-0.19-1.12-0.58-1.57
			c-0.33-0.38-0.76-0.61-1.23-0.75c-0.4-0.12-0.8-0.17-1.22-0.18c-0.5-0.01-0.99,0.01-1.48,0.14c-0.41,0.11-0.78,0.28-1.1,0.56
			c-0.4,0.36-0.62,0.81-0.64,1.35c-0.01,0.26,0.02,0.52,0.11,0.78c0.11,0.32,0.32,0.58,0.62,0.75c0.2,0.11,0.4,0.2,0.62,0.27
			c0.64,0.19,1.29,0.37,1.93,0.55c0.59,0.16,1.19,0.32,1.78,0.49c0.41,0.12,0.81,0.29,1.17,0.53c0.78,0.5,1.15,1.21,1.17,2.13
			c0.01,0.43-0.05,0.85-0.21,1.25c-0.23,0.58-0.63,1.02-1.16,1.35c-0.49,0.31-1.02,0.49-1.59,0.59c-1.03,0.18-2.06,0.14-3.07-0.13
			c-0.54-0.15-1.03-0.39-1.45-0.76c-0.52-0.45-0.84-1.03-1.02-1.69c-0.14-0.53-0.18-1.06-0.18-1.61c0-0.01,0-0.03,0.01-0.04
			c0.11-0.03,0.67-0.03,0.84,0c0,0.07,0,0.14,0,0.21c0,0.4,0.04,0.8,0.15,1.19c0.27,0.94,0.89,1.54,1.81,1.85
			c0.45,0.15,0.91,0.22,1.38,0.24c0.66,0.04,1.31-0.03,1.94-0.24c0.4-0.14,0.78-0.33,1.09-0.62c0.47-0.45,0.65-1.01,0.6-1.65
			c-0.05-0.64-0.39-1.09-0.93-1.41c-0.38-0.22-0.79-0.36-1.21-0.47c-0.72-0.19-1.45-0.36-2.17-0.55c-0.56-0.15-1.13-0.31-1.66-0.55
			c-0.15-0.07-0.3-0.15-0.44-0.24c-0.36-0.24-0.63-0.56-0.78-0.96c-0.22-0.59-0.27-1.2-0.13-1.82c0.16-0.68,0.56-1.21,1.13-1.6
			c0.48-0.33,1.02-0.52,1.59-0.61c0.89-0.14,1.78-0.12,2.66,0.11c0.48,0.13,0.93,0.33,1.32,0.64c0.6,0.48,0.94,1.11,1.09,1.85
			c0.07,0.35,0.1,0.71,0.09,1.07C85.07,49.9,85.06,49.93,85.06,49.97z"/>
		<path d="M63.6,57.54c-0.29,0-0.56,0-0.85,0c0-0.07,0-0.13,0-0.19c0-2.38,0-4.76,0-7.15c0-0.43-0.06-0.86-0.2-1.27
			c-0.32-0.94-0.95-1.56-1.92-1.83c-0.73-0.2-1.46-0.2-2.18,0.01c-0.93,0.27-1.6,0.88-2.04,1.73c-0.31,0.58-0.47,1.21-0.52,1.86
			c-0.02,0.25-0.03,0.5-0.03,0.74c0,1.97,0,3.93,0,5.9c0,0.06,0,0.11,0,0.19c-0.29,0-0.56,0-0.84,0c0-3.73,0-7.45,0-11.17
			c0.28,0,0.55,0,0.84,0c0.01,0.14,0,0.29,0,0.44c0,0.14,0,0.29,0,0.43c0,0.15,0,0.3,0,0.44c0,0.14,0,0.28,0,0.42
			c0.01,0,0.02,0,0.02,0.01c0.02-0.03,0.04-0.05,0.05-0.08c0.59-0.98,1.46-1.57,2.57-1.81c0.89-0.19,1.77-0.16,2.63,0.15
			c1.21,0.44,1.96,1.3,2.3,2.54c0.11,0.39,0.15,0.79,0.15,1.19c0,2.43,0,4.85,0,7.28C63.6,57.43,63.6,57.48,63.6,57.54z"/>
		<path d="M15.48,56.7c2.91,0,5.81,0,8.71,0c0,0.28,0,0.56,0,0.84c-3.18,0-6.36,0-9.55,0c0-5.11,0-10.22,0-15.35
			c0.28,0,0.55,0,0.84,0C15.48,47.03,15.48,51.86,15.48,56.7z"/>
		<path d="M38.72,57.54c-0.29,0-0.57,0-0.84,0c0-3.72,0-7.44,0-11.16c0.28,0,0.55,0,0.84,0c0,0.57,0,1.15,0,1.72
			c0.01,0,0.02,0.01,0.02,0.01c0.02-0.02,0.04-0.04,0.05-0.06c0.59-1.01,1.49-1.58,2.61-1.82c0.47-0.1,0.95-0.13,1.43-0.11
			c0.04,0,0.08,0,0.11,0.01c0.01,0,0.02,0.01,0.03,0.01c0,0.27,0,0.54,0,0.83c-0.06,0-0.12,0-0.18,0c-0.28,0.01-0.56-0.01-0.83,0.02
			c-1.19,0.13-2.08,0.73-2.66,1.78c-0.31,0.56-0.48,1.17-0.55,1.81c-0.03,0.29-0.04,0.59-0.04,0.89c0,1.96,0,3.91,0,5.87
			C38.72,57.41,38.72,57.47,38.72,57.54z"/>
	</g>
</g>
</svg>
