<?xml version="1.0"?>
<svg xmlns="http://www.w3.org/2000/svg" xmlns:xlink="http://www.w3.org/1999/xlink" xmlns:svgjs="http://svgjs.com/svgjs" version="1.1" width="512" height="512" x="0" y="0" viewBox="0 0 512 512" style="enable-background:new 0 0 512 512" xml:space="preserve" class=""><g><g xmlns="http://www.w3.org/2000/svg"><g><g><g><g><g><g><g><g><g><g><circle cx="256" cy="256" fill="#f1f1f1" r="256" data-original="#ffe78d" style="" class=""/></g></g></g></g></g></g></g></g></g></g><path d="m335.282 168.041-51.74-51.74-3.906 3.906-8.839-8.839-22.237 19.785-14.851-14.851-6.663 17.106 8.16 8.16 2.232 22.24-150.592 4.734 10.67 10.67-53.082 194.487 122.29 122.29c27.799 10.345 57.874 16.011 89.276 16.011 141.385 0 256-114.615 256-256 0-3.961-.103-7.897-.281-11.814l-86.833-86.833z" fill="#f1f1f1" data-original="#ffdf5f" style="" class=""/><g><path d="m44.434 373.699h49.95l111.532-131.969h-161.482z" fill="#ff78a1" data-original="#ff78a1" style="" class=""/><path d="m44.434 241.73h161.482v-56.149h-143.498z" fill="#6d6d6d" data-original="#6d6d6d" style="" class=""/><g><g><path d="m232.452 141.325-26.06 16.028 34.862 6.586-1.708-22.614z" fill="#ff78a1" data-original="#ff78a1" style="" class=""/><path d="m279.28 141.235 26.06 16.028-34.862 6.585 1.708-22.613z" fill="#ff598d" data-original="#ff598d" style=""/></g><g><path d="m255.866 175.261h-23.616v-45.446h23.616l2.596 22.723z" fill="#ff96b6" data-original="#ff96b6" style=""/><path d="m255.866 129.815h23.616v45.446h-23.616z" fill="#ff78a1" data-original="#ff78a1" style="" class=""/></g><g><path d="m467.298 373.699h-49.95l-111.532-131.969h161.482z" fill="#ff598d" data-original="#ff598d" style=""/><path d="m467.298 241.73h-161.482v-56.149h143.498z" fill="#585858" data-original="#585858" style="" class=""/><path d="m255.866 349.321h-161.482v-186.373h161.482l17.753 93.186z" fill="#ff96b6" data-original="#ff96b6" style=""/><path d="m255.866 162.948h161.482v186.373h-161.482z" fill="#ff78a1" data-original="#ff78a1" style="" class=""/></g><g><path d="m255.866 187.569h-169.02v-11.189h169.02l18.582 5.594z" fill="#ff78a1" data-original="#ff78a1" style="" class=""/><path d="m255.866 176.38h169.02v11.189h-169.02z" fill="#ff598d" data-original="#ff598d" style=""/></g><g><path d="m255.866 168.542h-169.02v-11.189h169.02l18.582 5.595z" fill="#ff78a1" data-original="#ff78a1" style="" class=""/><path d="m255.866 157.353h169.02v11.189h-169.02z" fill="#ff598d" data-original="#ff598d" style=""/></g><g><path d="m268.236 125.107-12.37 20.273c-11.197 0-20.273-9.077-20.273-20.273s9.077-20.273 20.273-20.273z" fill="#ff96b6" data-original="#ff96b6" style=""/><path d="m276.139 125.107c0 11.197-9.077 20.273-20.273 20.273v-40.547c11.197.001 20.273 9.077 20.273 20.274z" fill="#ff78a1" data-original="#ff78a1" style="" class=""/></g><g><path d="m255.866 133.408h-28.82v-11.189h28.82l3.168 5.594z" fill="#ff78a1" data-original="#ff78a1" style="" class=""/><path d="m255.866 122.219h28.82v11.189h-28.82z" fill="#ff598d" data-original="#ff598d" style=""/></g><g><path d="m259.622 145.381-3.756 6.156c-3.4 0-6.156-2.756-6.156-6.156s2.756-6.156 6.156-6.156z" fill="#ffffff" data-original="#ffffff" style="" class=""/><path d="m262.022 145.381c0 3.4-2.756 6.156-6.156 6.156v-12.312c3.4 0 6.156 2.756 6.156 6.156z" fill="#f0f0f2" data-original="#f0f0f2" style=""/></g><g><circle cx="280.783" cy="119.062" fill="#ff598d" r="3.903" data-original="#ff598d" style=""/><circle cx="230.949" cy="119.062" fill="#ff78a1" r="3.903" data-original="#ff78a1" style="" class=""/></g><g><g><path d="m248.35 201.674c0-4.151 3.365-7.516 7.516-7.516l2.284 8.944-2.284 29.567h-7.516z" fill="#585858" data-original="#585858" style="" class=""/><path d="m255.866 194.158c4.151 0 7.516 3.365 7.516 7.516v30.995h-7.516z" fill="#3b3b3b" data-original="#3b3b3b" style=""/></g><path d="m276.945 194.158c-4.151 0-7.516 3.365-7.516 7.516v30.995h15.032v-30.995c0-4.151-3.365-7.516-7.516-7.516z" fill="#3b3b3b" data-original="#3b3b3b" style=""/><path d="m298.024 194.158c-4.151 0-7.516 3.365-7.516 7.516v30.995h15.032v-30.995c0-4.151-3.365-7.516-7.516-7.516z" fill="#3b3b3b" data-original="#3b3b3b" style=""/><g fill="#585858"><path d="m213.708 194.158c-4.151 0-7.516 3.365-7.516 7.516v30.995h15.032v-30.995c0-4.151-3.365-7.516-7.516-7.516z" fill="#585858" data-original="#585858" style="" class=""/><path d="m234.787 194.158c-4.151 0-7.516 3.365-7.516 7.516v30.995h15.032v-30.995c0-4.151-3.365-7.516-7.516-7.516z" fill="#585858" data-original="#585858" style="" class=""/></g></g><path d="m336.162 153.58c-12.793 0-23.163 10.371-23.163 23.163v53.798h46.327v-53.798c0-12.793-10.371-23.163-23.164-23.163z" fill="#ff78a1" data-original="#ff78a1" style="" class=""/><path d="m336.162 161.386c-8.704 0-15.761 7.056-15.761 15.761v53.394h31.521v-53.394c.001-8.704-7.056-15.761-15.76-15.761z" fill="#ff598d" data-original="#ff598d" style=""/><path d="m257.318 286.222h118.765v7.403h-118.765z" fill="#ff598d" transform="matrix(0 -1 1 0 26.777 606.624)" data-original="#ff598d" style=""/><path d="m296.242 286.222h118.765v7.403h-118.765z" fill="#ff598d" transform="matrix(0 -1 1 0 65.701 645.548)" data-original="#ff598d" style=""/><path d="m175.57 153.58c-12.793 0-23.163 10.371-23.163 23.163v53.798h46.327v-53.798c-.001-12.793-10.372-23.163-23.164-23.163z" fill="#ff96b6" data-original="#ff96b6" style=""/><g fill="#ff78a1"><path d="m175.57 161.386c-8.704 0-15.761 7.056-15.761 15.761v53.394h31.521v-53.394c0-8.704-7.056-15.761-15.76-15.761z" fill="#ff78a1" data-original="#ff78a1" style="" class=""/><path d="m96.725 286.222h118.765v7.403h-118.765z" transform="matrix(0 -1 1 0 -133.816 446.031)" fill="#ff78a1" data-original="#ff78a1" style="" class=""/><path d="m135.649 286.222h118.765v7.403h-118.765z" transform="matrix(0 -1 1 0 -94.892 484.955)" fill="#ff78a1" data-original="#ff78a1" style="" class=""/></g><g fill="#3b3b3b"><path d="m371.91 194.158c-2.831 0-5.125 2.295-5.125 5.125v33.386h10.251v-33.386c0-2.831-2.295-5.125-5.126-5.125z" fill="#3b3b3b" data-original="#3b3b3b" style=""/><path d="m386.557 194.158c-2.831 0-5.125 2.295-5.125 5.125v33.386h10.251v-33.386c-.001-2.831-2.296-5.125-5.126-5.125z" fill="#3b3b3b" data-original="#3b3b3b" style=""/><path d="m401.203 194.158c-2.831 0-5.125 2.295-5.125 5.125v33.386h10.251v-33.386c0-2.831-2.295-5.125-5.126-5.125z" fill="#3b3b3b" data-original="#3b3b3b" style=""/></g><g fill="#585858"><path d="m110.529 194.158c-2.831 0-5.125 2.295-5.125 5.125v33.386h10.251v-33.386c-.001-2.831-2.296-5.125-5.126-5.125z" fill="#585858" data-original="#585858" style="" class=""/><path d="m125.175 194.158c-2.831 0-5.125 2.295-5.125 5.125v33.386h10.25v-33.386c0-2.831-2.294-5.125-5.125-5.125z" fill="#585858" data-original="#585858" style="" class=""/><path d="m139.822 194.158c-2.831 0-5.125 2.295-5.125 5.125v33.386h10.251v-33.386c-.001-2.831-2.296-5.125-5.126-5.125z" fill="#585858" data-original="#585858" style="" class=""/></g><g><path d="m255.866 241.73h-169.02v-11.189h169.02l18.582 5.594z" fill="#ff78a1" data-original="#ff78a1" style="" class=""/><path d="m255.866 230.541h169.02v11.189h-169.02z" fill="#ff598d" data-original="#ff598d" style=""/></g><path d="m386.557 251.566c-7.275 0-13.172 5.897-13.172 13.172v31.379h26.345v-31.379c-.001-7.275-5.898-13.172-13.173-13.172z" fill="#3b3b3b" data-original="#3b3b3b" style=""/><path d="m386.557 304.712c-7.275 0-13.172 5.897-13.172 13.172v40.371h26.345v-40.371c-.001-7.275-5.898-13.172-13.173-13.172z" fill="#3b3b3b" data-original="#3b3b3b" style=""/><path d="m125.175 251.566c-7.275 0-13.172 5.897-13.172 13.172v31.379h26.345v-31.379c-.001-7.275-5.898-13.172-13.173-13.172z" fill="#585858" data-original="#585858" style="" class=""/><path d="m125.175 304.712c-7.275 0-13.172 5.897-13.172 13.172v40.371h26.345v-40.371c-.001-7.275-5.898-13.172-13.173-13.172z" fill="#585858" data-original="#585858" style="" class=""/><path d="m326.286 251.566h19.752v44.552h-19.752z" fill="#3b3b3b" data-original="#3b3b3b" style=""/><path d="m326.286 304.712h19.752v53.543h-19.752z" fill="#3b3b3b" data-original="#3b3b3b" style=""/><path d="m165.693 251.566h19.752v44.552h-19.752z" fill="#585858" data-original="#585858" style="" class=""/><path d="m165.693 304.712h19.752v53.543h-19.752z" fill="#585858" data-original="#585858" style="" class=""/><g><path d="m255.866 349.321h-161.482v24.027h161.482l17.753-12.014z" fill="#ffffff" data-original="#ffffff" style="" class=""/><path d="m255.866 349.321h161.482v24.027h-161.482z" fill="#f0f0f2" data-original="#f0f0f2" style=""/></g><g><path d="m221.224 286.208c0-19.132 15.51-34.642 34.642-34.642l10.528 41.227-10.528 80.555h-34.642z" fill="#585858" data-original="#585858" style="" class=""/><path d="m255.866 251.566c19.132 0 34.642 15.51 34.642 34.642v87.14h-34.642z" fill="#3b3b3b" data-original="#3b3b3b" style=""/></g></g></g></g></g></svg>
