<?xml version="1.0"?>
<svg xmlns="http://www.w3.org/2000/svg" xmlns:xlink="http://www.w3.org/1999/xlink" xmlns:svgjs="http://svgjs.com/svgjs" version="1.1" width="512" height="512" x="0" y="0" viewBox="0 0 512 512" style="enable-background:new 0 0 512 512" xml:space="preserve" class=""><g><g xmlns="http://www.w3.org/2000/svg"><g><g><g><g><g><g><g><g><g><g><g><g><g><g><g><circle cx="256" cy="256" fill="#f1f1f1" r="256" data-original="#ffea98" style="" class=""/></g></g></g></g></g></g></g></g></g></g></g></g></g></g></g><path d="m367.527 142.925-30-15h-163.054l-15 15v59.203l-72.884 154.513 154.944 154.944c4.79.267 9.611.415 14.467.415 131.345 0 239.568-98.922 254.278-226.324z" fill="#f1f1f1" data-original="#ffdd55" style="" class=""/><g><g><path d="m256 202.128h-123.218l-7.5 10-7.5-10h-3.56c-27.244 0-49.329 37.834-49.329 84.504s22.085 84.504 49.329 84.504h30.25l15-11.063 15 11.063h81.528l129.086-84.504z" fill="#8e4dd5" data-original="#8e4dd5" style="" class=""/><path d="m397.777 202.128h-3.56l-7.5 10-7.5-10h-123.217v169.009h81.527l15-10 15 10h30.25c27.243 0 49.329-37.834 49.329-84.504s-22.085-84.505-49.329-84.505z" fill="#7a3eb4" data-original="#7a3eb4" style=""/></g><g><g><g><path d="m256 256.284h-67.034v-15h67.034l33.488 7.5z" fill="#464646" data-original="#464646" style=""/></g></g><g><path d="m256 241.284h67.034v15h-67.034z" fill="#2d2d2d" data-original="#2d2d2d" style=""/></g><path d="m317.367 278.266h-19.555l4-29.482h11.555z" fill="#464646" data-original="#464646" style=""/></g><g><g><g><g><path d="m256 142.925h-103.743l22.216-30h81.527l25.011 15z" fill="#ff415b" data-original="#ff415b" style=""/></g></g><g><path d="m358.104 142.925h-102.104v-30h81.527z" fill="#ff1f3e" data-original="#ff1f3e" style=""/></g></g><path d="m174.473 371.137h-30v-228.212l30-30z" fill="#ff6379" data-original="#ff6379" style="" class=""/><path d="m367.527 371.137h-30v-258.212l30 30z" fill="#ff415b" data-original="#ff415b" style=""/></g><g><path d="m379.218 202.128h15v70.105h-15z" fill="#8e4dd5" data-original="#8e4dd5" style="" class=""/><path d="m117.782 202.128h15v70.105h-15z" fill="#a160e4" data-original="#a160e4" style=""/></g></g></g></g></svg>
