<?xml version="1.0"?>
<svg xmlns="http://www.w3.org/2000/svg" xmlns:xlink="http://www.w3.org/1999/xlink" xmlns:svgjs="http://svgjs.com/svgjs" version="1.1" width="512" height="512" x="0" y="0" viewBox="0 0 512 512" style="enable-background:new 0 0 512 512" xml:space="preserve" class=""><g><path xmlns="http://www.w3.org/2000/svg" d="m512 256c0 141.386719-114.613281 256-256 256s-256-114.613281-256-256 114.613281-256 256-256 256 114.613281 256 256zm0 0" fill="#f1f1f1" data-original="#fecb45" style="" class=""/><path xmlns="http://www.w3.org/2000/svg" d="m512 256c0-9.042969-.476562-17.976562-1.390625-26.777344l-131.847656-131.847656-245.523438 50.648438 109.074219 109.074218-115.96875 147.902344 105.894531 105.894531c7.824219.71875 15.746094 1.105469 23.761719 1.105469 141.386719 0 256-114.613281 256-256zm0 0" fill="#f1f1f1" data-original="#fca741" style="" class=""/><path xmlns="http://www.w3.org/2000/svg" d="m427.273438 293.097656c0-94.589844-76.683594-171.269531-171.273438-171.269531s-171.273438 76.679687-171.273438 171.269531c0 54.457032 25.417969 102.972656 65.035157 134.34375h212.476562c39.617188-31.371094 65.035157-79.886718 65.035157-134.34375zm0 0" fill="#ffffff" data-original="#ffffff" style="" class=""/><path xmlns="http://www.w3.org/2000/svg" d="m256 121.828125c-.097656 0-.191406 0-.285156 0v305.613281h106.523437c39.617188-31.371094 65.035157-79.886718 65.035157-134.34375 0-94.589844-76.683594-171.269531-171.273438-171.269531zm0 0" fill="#e3fbff" data-original="#e3fbff" style="" class=""/><path xmlns="http://www.w3.org/2000/svg" d="m133.238281 97.375h245.523438v50.648438h-245.523438zm0 0" fill="#fa0f40" data-original="#fa0f40" style=""/><path xmlns="http://www.w3.org/2000/svg" d="m255.714844 97.375h123.046875v50.648438h-123.046875zm0 0" fill="#e20c2f" data-original="#e20c2f" style=""/><path xmlns="http://www.w3.org/2000/svg" d="m339 208-31-20-31 20v-110.625h62zm0 0" fill="#3dd542" data-original="#3dd542" style="" class=""/><path xmlns="http://www.w3.org/2000/svg" d="m308 97.375.210938 90.792969-.210938-.167969 31 20v-110.625zm0 0" fill="#10b537" data-original="#10b537" style=""/><path xmlns="http://www.w3.org/2000/svg" d="m277 361c0-24.300781-29.550781-44-66-44s-66 19.699219-66 44 29.550781 44 66 44 66-19.699219 66-44zm0 0" fill="#e2742b" data-original="#e2742b" style=""/><path xmlns="http://www.w3.org/2000/svg" d="m395.585938 325.285156c-6.027344-23.539062-39.539063-35.289062-74.851563-26.246094-35.308594 9.042969-59.046875 35.457032-53.015625 58.996094 6.027344 23.539063 39.539062 35.292969 74.851562 26.25 35.308594-9.042968 59.042969-35.457031 53.015626-59zm0 0" fill="#c65f1a" data-original="#c65f1a" style="" class=""/><path xmlns="http://www.w3.org/2000/svg" d="m296.800781 317.132812c-28.535156-22.683593-63.925781-25.648437-79.046875-6.628906-15.121094 19.023438-4.25 52.832032 24.285156 75.515625 28.53125 22.683594 63.921876 25.652344 79.046876 6.628907 15.121093-19.023438 4.25-52.832032-24.285157-75.515626zm0 0" fill="#c65f1a" data-original="#c65f1a" style="" class=""/><path xmlns="http://www.w3.org/2000/svg" d="m296.792969 317.15625c-13.121094-10.433594-27.691407-16.683594-41.078125-18.554688v96.566407c25.347656 13.945312 52.585937 13.570312 65.359375-2.5 15.121093-19.019531 4.25-52.828125-24.28125-75.511719zm0 0" fill="#984c1a" data-original="#984c1a" style="" class=""/></g></svg>
