<svg xmlns="http://www.w3.org/2000/svg" viewBox="0 0 923.1 229"><path d="M694.1 196.9c0 7.3-7.3 13.3-16.2 13.3H16.2c-9 0-16.2-5.9-16.2-13.3V35.1c0-7.3 7.3-13.3 16.2-13.3h661.6c9 0 16.2 5.9 16.2 13.3" fill="#1a68bb"/><path d="M150.6 112.1s5.4-18.9 23.2-17.2c0 0 12.2-.4 11.2 17.5l-.1.4-34.3.1v-.8zm51.5 8.4c6.3-31.8-21-33-21-33-45.2-4.2-50.7 31.5-50.7 31.5-3.6 11.5-2.3 26.7-2.3 26.7 2.8 15.1 13.5 20.8 13.5 20.8 22.5 12.1 50.7 1.1 50.7 1.1l.9-7.8-.1-.9c-18.8 8.9-33 0-33 0-17-14.8-11.2-38.4-11.2-38.4m56.9 32.1l-2.7 15.8s44.5 15.7 59.8-14.1c0 0 9.8-19.3-12.4-30.6 0 0-17-9-17.9-12.1 0 0-6.5-10.6 9.1-13.9 0 0 10.6-2.4 23.5 7.4l1 .2 2.8-15.1s-3.2-.6-3.8-.8c0 0-16.2-5.7-35.2.8 0 0-19.6 6.5-17 27.5 0 0 .3 8 17.9 17.5 0 0 12.4 6.3 15 12.4 0 0 2.8 11.4-13.5 13.1 0 0-13.2 1.8-25.6-8.1m87-82.2l19.9-9.8.9.2-5 28.4 23.8.3-1 8.9-24.1.2-8.2 47.5s-5 16.4 9.4 16.5c0 0 6.9-.5 9.9-1.8l-1.7 10.2s-31.8 7.1-37.4-8.6c0 0-2.1-4.9-.3-12.7l9.1-51.1-13.9-.4 1.2-9 14.5.4m38.7 27.5l36.2.1.4.8-2.3 12.9-36.6.2" fill="#fff200"/><path d="M442.4 126.3s-1.5 15.8-8.7 27.9c0 0-5.8 12.1-18.8 10.8 0 0-8-.5-10.6-7.8 0 0-4.1-9.3.3-28.1 0 0 3-36.5 27.6-33.9-.1-.1 15 .1 10.2 31.1h0zm18.1-23.3c-9.3-18.8-34.7-15.3-34.7-15.3-41.4 1.9-43.3 47.6-43.3 47.6-1 9.2.8 17.7.8 17.7 6.6 20.5 30 19.5 30 19.5 34.7 1.5 44.2-25.8 44.2-25.8 11.1-27.7 3-43.7 3-43.7" fill="#fff"/><path d="M101.1 126.9s-3.2 30.7-19.5 37.1c0 0-16.7 4.8-19.6-10.1 0 0-.3-10.2.4-15.9 0 0 2.6-40.2 25.6-40.2-.1 0 17.2-2.6 13.1 29.1zm3.5-38.2c-24.8-6.2-36.1 11.5-36.1 11.5h-.8l8.2-47.4H57l-15.4 90.8c0 18 8.6 22.6 8.6 22.6 15.1 11 39.9 4.3 39.9 4.3 30.6-8.6 32.2-46.6 32.2-46.6 2.4-33-17.7-35.2-17.7-35.2" fill="#fff200"/><path d="M468.9 170.2l13.9-80.5h19.1l-3.5 19h.7s11.7-23.4 39.3-20.4c0 0 18.5.4 13 27.9l-9.6 54.7h-19.1l9.6-56.3s2.8-16.4-11-13.6c0 0-16.2.6-26 29.9 0 0-1.7 3.7-7.4 39.8M608 95.5s13.1 1.2 10.8 18.2l-34.2-.5c0 0 4.2-19.4 23.4-17.7zm27.2 25.9s8.1-28.6-18.2-32.6c0 0-33.1-8.5-48.9 20.8 0 0-11 18.9-4.1 43.8 0 0 7.1 22.9 44.4 19.3 0 0 11.4-1.8 17.5-4.2l1.5-8.8s-9.8 5.9-25.8 3.5c0 0-16.3-3.3-19.3-25.7 0 0-1.2-8.1 0-16" fill="#fff"/><path d="M725.9 16.7c-16.9 0-47 15.7-47 47 0 36.6 35 69.8 46.5 80.7l5 4.8c13.7 13.1 49.7 47.4 59.4 50.8 9.7-3.4 45.5-37.5 59.1-50.5l5.3-5c11.5-10.9 46.4-44 46.4-80.7 0-31.3-30.1-47-46.9-47-17.9 0-35 9.1-44 18.1-7.7 7.6-14.3 11.5-19.7 11.5h-.5c-5.4 0-12.1-3.9-19.7-11.5-8.9-9.1-26.1-18.2-43.9-18.2" fill="#fff200"/><path d="M725.4 22.9c-16.9 0-47 15.7-47 47 0 36.6 35 69.8 46.5 80.7l5 4.8c13.7 13.1 49.7 47.4 59.4 50.8 9.7-3.4 45.5-37.5 59.1-50.5l5.3-5c11.5-10.9 46.4-44 46.4-80.7 0-31.3-30.1-47-46.9-47-17.9 0-35 9.1-44 18.1-7.7 7.6-14.3 11.5-19.7 11.5h-.5c-5.4 0-12.1-3.9-19.7-11.5-8.9-9.1-26.1-18.2-43.9-18.2h0zm64 199.6c-9.6 0-26.1-12.9-70.7-55.4l-5-4.7c-12.8-12.1-51.6-48.9-51.6-92.5 0-40.8 37.4-63.3 63.3-63.3 24 0 44.9 12.3 55.6 22.9 4.6 4.6 7.4 6.2 8.4 6.6 1-.5 3.8-2 8.4-6.6 10.6-10.6 31.4-22.9 55.5-22.9 25.9 0 63.3 22.5 63.3 63.3 0 43.7-38.8 80.5-51.5 92.5l-5.2 5c-44.5 42.2-61 55.1-70.5 55.1" fill="#1a68bb"/><path d="M725.4 22.9c-16.9 0-47 15.7-47 47 0 36.6 35 69.8 46.5 80.7l5 4.8c13.7 13.1 49.7 47.4 59.4 50.8 9.7-3.4 45.5-37.5 59.1-50.5l5.3-5c11.5-10.9 46.4-44 46.4-80.7 0-31.3-30.1-47-46.9-47-17.9 0-35 9.1-44 18.1-7.7 7.6-14.3 11.5-19.7 11.5h-.5c-5.4 0-12.1-3.9-19.7-11.5-8.9-9.1-26.1-18.2-43.9-18.2h0zm64 199.6c-9.6 0-26.1-12.9-70.7-55.4l-5-4.7c-12.8-12.1-51.6-48.9-51.6-92.5 0-40.8 37.4-63.3 63.3-63.3 24 0 44.9 12.3 55.6 22.9 4.6 4.6 7.4 6.2 8.4 6.6 1-.5 3.8-2 8.4-6.6 10.6-10.6 31.4-22.9 55.5-22.9 25.9 0 63.3 22.5 63.3 63.3 0 43.7-38.8 80.5-51.5 92.5l-5.2 5c-44.5 42.2-61 55.1-70.5 55.1h0z" fill="none" stroke="#1a68bb" stroke-width="13.057" stroke-miterlimit="57.564"/><path d="M770 142.4c-2.1-.2-4.3-1.1-6.1-1.1 1.6.6 4 1.9 6.1 1.1h0zm-6.7 3c0-.8-1.4-1-1.1-1.7 1.5.4 5 2.2 6.4 1.2-1.9-1.4-5.1-1.5-7.3-2.6 0 .2.1.6-.2.6-2.2-1.7-4.1-3.7-5.3-6.4-1.4-.3-2.1-2.3-3.2-2.4.3.8.9 1.5 1.2 2.3-4.5-2.7-5.3-9.7-11.1-10.5 7.1 6.3 12 14.7 20.6 19.5h0zm-3.2-14.6c2.1 1.9 4.1 3.6 7.2 4.3.8.2 1.7 1.5 2.6 2 .6.3 1.4.3 2 .6 1.2.6 2 1.8 3.4 2.1.5 0 .9-.2 1.4-.3 1.6 2.4 7.3.6 10.1 1.8.4 0 .7-.1.9-.3 1.7 1 3.2 2.3 4.1 4.1-2.7-.4-4.6-1.6-7.3-2 1.1 1.2 3.1 1.4 4.6 2.1-3 .6-7.7-.5-11.1 0 2.9.9 7.4.3 10.4 1.2-2.1.7-4.3 1.6-6.5 1.5a5.02 5.02 0 0 1-1.2-.2c-2.5-.7-5.2-1.4-8.2-1.2 1-.9 2.4-1.3 4.1-1.4-1.8-1.4-4.1 1.4-6.4.1-.2.5 1.1.9 1.2 1.7-2.3 0-3.8-.9-5.6-1.4-1.2.9-2.9.5-4.3 0-.4.1.5.3 0 .6-1.3-.6-2.5-1.2-3.5-2.1-.1-.5.5-.4.2-.8-5.8-5.2-11.1-11-16.6-16.4 4.1 6.9 10.2 11.6 15.8 16.9-4.7-2.5-8.8-6.4-12.2-10.7-2-2.5-4.7-3.9-5-7.9-1.5-.7-3.2-1.1-3.8-2.6 1 .2.9-.7.8-1.2 2.4.5 4.1 1.6 6.4 2.1-.2-1.1-1.2-.8-2-1.1-1.1-.4-2.2-1.2-3.3-2-1.6-1.1-3.5-1.7-4.3-3.7 1-.8 2.6.3 4.3.9 2.2.8 3.9 1 5.5 2 1.3.8 2.3 2.2 3.7 3.2 1.3 1 2.9 1.7 4.3 2.6 2.8 1.9 5 4.5 7.9 5.6-.2.6.2.2.4-.1m48.9 17.9c-.7.1-1.6 0-2.3.2-.6.2-1.1.8-1.7 1.1-1 .5-2.2.3-2.7 1.2 1.1-.1 2.1-.3 3.2-.5-3.9 2.5-10.8 2.7-14.5 5-.8.5-1.9 1.1-2 2 8.3-3.6 18.4-6.4 26.6-9.9 1-.4 3.3-1.2 3.1-1.7-3.2.4-6.4 2.1-9.7 2.6zm6.2-2.2c2.8.4 3.5-2.6 6.1-2.9.2-.4.5-.7.8-1.1-3.1 0-4.8 2.5-6.9 4zm.8-3.1c1.8-1.2 4-2.2 5.5-3.8-2.2.8-4.5 2.4-5.5 3.8zm28.8-14.1c-2.3 1.3-6 1.1-8.5 2.1 1.4.6 4.4-.6 6.1-.3-3.8 2-8.1 3.4-11.6 5.6 4.2-1 7-3.5 11.4-4.3-1.3 1.3-2.8 2.4-4.6 3.5-.5.3-1.1.8-1.5 1.1-1.7.8-3.8.7-5.5 1.7-1.7.9-2.7 2.1-4.4 2.7.7-1.6 1.8-2.7 3-3.8-2.5.3-3.1 4-6.1 4.4.6.3 1.8 0 2.4.3-1.2 1.5-3.7 1.6-5.3 2.6 0 1.8-1.3 2.5-2.6 3.4 0 .3.5.1.8.2-.9 1-2.5 1.4-3.8 2.1-.3 0 0-.7-.5-.6-8.5 3.2-16.4 6.8-25.3 9.6 9.7-.9 17-5.7 25.1-8.7-4.6 3.3-11 6.1-17.7 8.1-3.3 1-6.2 2.8-9.7 1.4-1.4.9-2.6 2.1-4.6 2.4-.1-.5.2-.6.5-.8-.2-.4-.7-.5-1.1-.8 1.6-1.9 3.8-3.2 5.6-4.9-1.3-.3-1.8 1-2.6 1.7-1.9 1.5-4.4 2.2-7 3 .4-1.3 2.4-.9 3-2-1-.5-2.3.1-3.2.3 2.2-1.4 3.8-3.4 6.1-4.7s4.7-2.3 7-3.7c4.5-2.7 9.3-4.9 13.4-7.9 0-.4-.3-.5-.2-.9 1.8-.8 3.3-1.4 5-2.3 1.6-.8 2.7-2.1 4.3-3 1-.6 2.6-.8 4.1-1.2 1.9-.6 3-.8 5.2-1.1 1.5-.2 2.8-.3 3.5-1.5 5.3-.2 7.1-3.8 12-4.4.4-.2.5-.6.9-.8 2.7.2 4.7.7 6.4 1.5M0 0" fill-rule="evenodd" fill="#498a33"/><g fill="#1a68bb"><path d="M776.5 83.4c-.4.6-.6 1.4-1.2 1.9-8.4 7.4-9.1 23.1-3.6 32.8.3.4.5.9.8 1.3 0 .2.1.4.1.6.6.5 1.5.8 1.7 1.4 1.5 4.6 5.3 6.7 8.9 9.1.6.4 1 .9 1.3 1.7-5.7-1.6-9.7-5.7-14.2-9.8 1.1 3.2 4.2 6.5 10.3 10.1 4.1 2.4 8.7 4.2 13 6.7-2-.4-4.1-.7-6-1.3-15.9-5.2-25.3-16.7-26.3-34.1-.2-3.2-.2-6.5.4-9.6 1.8-10.7 11.4-20 22.1-22 2.1-.4 4.2-1.4 6.3-1.5 14.6-.8 27.5 10.1 29.6 24.7.9 6.2.3 12.3-1.1 18.3-.3 1.2-.7 2.6-1.5 3.5-4.5 5.3-9.6 9.6-16.6 11.1-11.2 2.4-20.7-3.4-23.3-14.8 3 5.2 6 10.5 12.5 12.4-.1-.7-.2-1.2-.3-1.8 5.1 1.9 9.9 1.7 14.7-.6 1.6-.8 2.9-1.8 3.7-3.7.9-2.1 2.5-3.8 3.9-5.9.1.8.1 1.3.2 2.4 2.3-1.8 2-4.2 2.1-6.4s.7-4.8-.3-6.4c-1.1-1.7-1.8-3.3-2-5.3h1.7c0-2.7-.9-5.2-2.1-7.6l4.3 7.2c-.7-4.1-1.9-8-5.1-10.9l.6 3.2c-5.8-9.1-14.8-12.1-24.9-12.7-3.8-.2-7.9.8-10.3 3.5-4.3 4.8-9.1 9.7-10.5 16.5-1.3 6.1-.6 12 2.2 17.5.2.3.5.5 1.3 1.5-.3-1.6-.4-2.5-.6-3.3-1.9-6.3-1.9-12.6.2-18.9 1.4-4.4 4-8.2 8-10.8zm10.8 37.6l14.3 1.8c-5.3 1.3-10.1 1.4-14.3-1.8z"/><path d="M797.5 82.1c-6.5-2.2-12.9-2.1-19.2 1-.5.3-1.2.2-1.8.3 0 0 .1.1.1 0 5.8-3.7 12.1-4.1 18.6-2.5.7.2 1.4.9 2.3 1.2-.1.1 0 0 0 0zm-.1.1c2.4-.1 3.9 1.3 5.8 2.9-2.7-.3-3.4-.8-5.7-2.9 0-.1-.1 0-.1 0zm10.7 8.4l-1.4-2.1c.2-.1.4-.3.6-.4.5.7 1 1.3 1.6 2-.3.2-.6.3-.8.5zm-35.5 29.3c0-.2-.1-.4-.1-.6v-2.4c1.1 1.5 1.1 2.2.1 3z"/></g></svg>