<?xml version="1.0" encoding="utf-8"?>
<svg version="1.1" id="Layer_1" xmlns="http://www.w3.org/2000/svg" xmlns:xlink="http://www.w3.org/1999/xlink" x="0px" y="0px"
	width="100px" height="100px" viewBox="0 0 100 100" style="enable-background:new 0 0 100 100;" xml:space="preserve">
<g>
	<path style="fill:#E8E8E8;" d="M50,0c27.61,0,50,22.39,50,50s-22.39,50-50,50S0,77.61,0,50S22.39,0,50,0"/>
	<path style="fill:#FFFFFF;" d="M50,1c27.06,0,49,21.94,49,49S77.06,99,50,99S1,77.06,1,50S22.94,1,50,1"/>
	<g>
		<path d="M12.68,56.7v-5.68l-0.61-0.1c-0.12-0.02-0.23-0.07-0.32-0.15c-0.09-0.08-0.13-0.19-0.12-0.31V49.7h1.05v-0.52
			c-0.01-0.37,0.05-0.74,0.17-1.08c0.11-0.31,0.29-0.59,0.52-0.82c0.23-0.23,0.52-0.41,0.83-0.51c0.35-0.12,0.72-0.18,1.08-0.18
			c0.31,0,0.61,0.04,0.91,0.13l-0.04,0.85c0.01,0.12-0.07,0.22-0.18,0.25c-0.13,0.03-0.27,0.05-0.4,0.05
			c-0.18,0-0.36,0.02-0.54,0.06c-0.15,0.04-0.29,0.12-0.4,0.23c-0.12,0.12-0.2,0.27-0.25,0.43c-0.06,0.21-0.09,0.43-0.09,0.65v0.46
			h1.83v1.22h-1.75v5.78L12.68,56.7z"/>
		<path d="M18.75,49.64v4.48c-0.02,0.36,0.09,0.71,0.3,1c0.23,0.25,0.56,0.38,0.9,0.35c0.29,0,0.57-0.06,0.83-0.18
			c0.27-0.14,0.51-0.32,0.73-0.54v-5.11h1.71v7.07h-1.04c-0.2,0.01-0.38-0.11-0.43-0.3l-0.12-0.55c-0.14,0.14-0.29,0.27-0.45,0.39
			c-0.32,0.24-0.68,0.41-1.07,0.5c-0.22,0.05-0.44,0.07-0.66,0.07c-0.35,0.01-0.7-0.06-1.02-0.19c-0.29-0.13-0.54-0.32-0.75-0.55
			c-0.21-0.25-0.36-0.54-0.46-0.85c-0.11-0.35-0.16-0.72-0.15-1.08v-4.49H18.75z"/>
		<path d="M25,56.71v-7.07H26c0.13-0.01,0.26,0.02,0.37,0.09c0.08,0.09,0.13,0.21,0.14,0.33l0.1,0.86c0.22-0.4,0.51-0.75,0.87-1.02
			c0.33-0.25,0.73-0.38,1.14-0.38c0.31-0.01,0.61,0.08,0.87,0.26l-0.18,1.25c0,0.07-0.04,0.13-0.09,0.18
			c-0.05,0.03-0.12,0.05-0.18,0.05c-0.1,0-0.19-0.02-0.28-0.05c-0.16-0.04-0.32-0.05-0.48-0.05c-0.33-0.01-0.65,0.1-0.91,0.3
			c-0.28,0.23-0.5,0.53-0.64,0.86v4.39H25z"/>
		<path d="M30.62,56.71v-7.07h1.04c0.2-0.02,0.38,0.12,0.43,0.31l0.12,0.56c0.14-0.15,0.29-0.28,0.45-0.4
			c0.32-0.23,0.68-0.39,1.07-0.47c0.22-0.05,0.44-0.07,0.66-0.07c0.35-0.01,0.7,0.06,1.02,0.19c0.29,0.13,0.54,0.31,0.75,0.55
			c0.21,0.24,0.37,0.52,0.47,0.82c0.11,0.35,0.16,0.72,0.15,1.08v4.49h-1.71v-4.49c0.03-0.35-0.06-0.71-0.27-1
			c-0.23-0.26-0.58-0.39-0.93-0.36c-0.29,0-0.57,0.07-0.82,0.22c-0.28,0.16-0.52,0.37-0.73,0.61v5.02H30.62z"/>
		<path d="M40.48,47.59c0,0.14-0.03,0.28-0.09,0.41c-0.05,0.13-0.13,0.24-0.23,0.34c-0.1,0.1-0.22,0.17-0.35,0.23
			c-0.13,0.06-0.28,0.09-0.43,0.09c-0.14,0-0.28-0.03-0.41-0.09c-0.13-0.05-0.25-0.13-0.34-0.23c-0.1-0.09-0.18-0.21-0.23-0.34
			c-0.06-0.13-0.09-0.27-0.09-0.41c0-0.15,0.03-0.29,0.09-0.43c0.05-0.13,0.13-0.24,0.23-0.34c0.2-0.2,0.47-0.32,0.76-0.32
			c0.15,0,0.29,0.03,0.43,0.09c0.13,0.06,0.24,0.14,0.35,0.23c0.1,0.1,0.18,0.21,0.23,0.34C40.45,47.3,40.48,47.45,40.48,47.59z
			 M40.23,49.64v7.07h-1.69v-7.07H40.23z"/>
		<path d="M44.46,56.8c-0.52,0.03-1.03-0.16-1.41-0.52c-0.35-0.4-0.52-0.91-0.49-1.44v-3.94h-0.71c-0.09,0-0.17-0.03-0.24-0.09
			c-0.07-0.07-0.11-0.17-0.1-0.27v-0.68l1.13-0.18l0.35-1.93c0.01-0.08,0.06-0.16,0.13-0.21c0.07-0.05,0.16-0.08,0.25-0.08h0.88
			v2.21h1.83v1.22h-1.83v3.83c-0.01,0.19,0.05,0.37,0.16,0.52c0.11,0.12,0.27,0.19,0.44,0.18c0.09,0,0.18-0.01,0.26-0.04
			c0.07-0.02,0.13-0.05,0.19-0.08l0.14-0.08c0.04-0.02,0.08-0.04,0.12-0.04c0.04,0,0.09,0.01,0.12,0.04
			c0.04,0.03,0.08,0.07,0.1,0.12l0.51,0.83c-0.25,0.2-0.54,0.36-0.85,0.46C45.13,56.75,44.8,56.8,44.46,56.8z"/>
		<path d="M49.01,49.64v4.48c-0.02,0.36,0.08,0.71,0.3,1c0.23,0.25,0.56,0.38,0.9,0.35c0.29,0,0.57-0.07,0.82-0.19
			c0.27-0.14,0.52-0.33,0.73-0.54v-5.1h1.69v7.07h-1.04c-0.2,0.01-0.38-0.11-0.43-0.3l-0.13-0.55c-0.14,0.14-0.3,0.27-0.46,0.39
			c-0.15,0.12-0.32,0.22-0.5,0.3c-0.18,0.09-0.37,0.15-0.57,0.19c-0.22,0.05-0.44,0.07-0.66,0.07c-0.35,0.01-0.7-0.06-1.02-0.19
			c-0.29-0.13-0.54-0.32-0.75-0.55c-0.21-0.25-0.36-0.54-0.45-0.85c-0.11-0.35-0.16-0.72-0.16-1.08v-4.49H49.01z"/>
		<path d="M55.26,56.71v-7.07h1c0.13-0.01,0.25,0.02,0.36,0.09c0.08,0.09,0.13,0.21,0.14,0.33l0.1,0.86
			c0.22-0.4,0.52-0.76,0.88-1.04c0.33-0.25,0.73-0.38,1.14-0.38c0.31-0.01,0.61,0.08,0.87,0.26l-0.22,1.25
			c-0.01,0.07-0.04,0.13-0.09,0.18c-0.06,0.03-0.12,0.05-0.19,0.05c-0.1,0-0.19-0.02-0.28-0.05c-0.16-0.04-0.32-0.05-0.48-0.05
			c-0.33-0.01-0.65,0.1-0.91,0.3c-0.27,0.23-0.48,0.53-0.61,0.86v4.41H55.26z"/>
		<path d="M63.79,49.54c0.42,0,0.83,0.07,1.22,0.21c0.36,0.13,0.69,0.34,0.96,0.61c0.27,0.29,0.48,0.63,0.61,1.01
			c0.16,0.44,0.23,0.9,0.23,1.36c0.01,0.11,0.01,0.22,0,0.32c0,0.07-0.02,0.14-0.06,0.2c-0.03,0.05-0.07,0.08-0.12,0.1
			c-0.06,0.02-0.13,0.03-0.19,0.03h-4.34c0.01,0.59,0.22,1.15,0.61,1.59c0.36,0.35,0.85,0.53,1.35,0.51
			c0.24,0.01,0.48-0.03,0.71-0.1c0.18-0.06,0.35-0.12,0.52-0.21l0.4-0.21c0.1-0.06,0.21-0.1,0.32-0.1c0.06,0,0.13,0.01,0.18,0.04
			c0.05,0.03,0.09,0.07,0.13,0.12l0.49,0.61c-0.18,0.21-0.38,0.39-0.61,0.54c-0.23,0.14-0.48,0.26-0.73,0.35
			c-0.25,0.09-0.51,0.15-0.77,0.18c-0.25,0.04-0.51,0.05-0.77,0.05c-0.47,0.01-0.93-0.08-1.36-0.24c-0.41-0.16-0.79-0.4-1.1-0.72
			c-0.33-0.35-0.58-0.76-0.74-1.22c-0.2-0.5-0.31-1.02-0.34-1.56c0-0.46,0.08-0.92,0.23-1.36c0.15-0.41,0.38-0.78,0.67-1.1
			c0.3-0.32,0.66-0.58,1.07-0.75C62.8,49.63,63.29,49.53,63.79,49.54z M63.79,50.76c-0.43-0.02-0.85,0.13-1.16,0.42
			c-0.31,0.34-0.5,0.76-0.54,1.22h3.19c0-0.21-0.03-0.41-0.09-0.61c-0.05-0.19-0.15-0.36-0.27-0.51c-0.13-0.15-0.29-0.27-0.47-0.35
			c-0.19-0.1-0.41-0.16-0.63-0.17H63.79z"/>
		<polygon style="fill:#4D9C97;" points="70.14,58.34 71.26,61.63 80.96,58.34 		"/>
		<polygon style="fill:#4D9C97;" points="69.17,48.32 70.91,47.05 70.91,44.58 72.73,44.58 72.73,45.72 77,42.58 84.66,48.32 
			84.66,57.08 88.39,55.81 82.57,38.67 65.43,44.5 69.17,55.5 		"/>
		<path style="fill:#4D9C97;" d="M77.86,45.85c-0.38,0-0.72,0.41-0.88,0.74c-0.16-0.33-0.49-0.74-0.88-0.74
			c-0.56,0.01-1,0.47-0.99,1.02c0,0,0,0,0,0c0,0.99,1.86,2.57,1.86,2.57s1.86-1.58,1.86-2.57C78.85,46.32,78.42,45.87,77.86,45.85
			C77.86,45.85,77.86,45.85,77.86,45.85z"/>
		<path d="M71.53,56.69v-3.84h-1.36v-0.93h0.12c0.39,0.03,0.79-0.06,1.13-0.26c0.26-0.19,0.42-0.49,0.43-0.82h1.16v5.85H71.53z"/>
		<path d="M73.99,56.69c0.03-0.43,0.14-0.84,0.34-1.22c0.23-0.39,0.53-0.74,0.9-1.01c0.13-0.1,0.32-0.24,0.61-0.41
			c0.29-0.18,0.44-0.3,0.56-0.4c0.17-0.14,0.32-0.31,0.44-0.5c0.09-0.15,0.14-0.33,0.15-0.51c0.02-0.22-0.05-0.44-0.19-0.61
			c-0.3-0.31-0.79-0.32-1.1-0.02c-0.02,0.02-0.05,0.05-0.07,0.07c-0.15,0.25-0.22,0.53-0.2,0.82h-1.37c-0.02-0.6,0.2-1.18,0.61-1.62
			c0.42-0.41,0.99-0.64,1.57-0.61c0.57-0.03,1.14,0.16,1.58,0.52c0.4,0.34,0.62,0.84,0.61,1.36c0,0.3-0.06,0.59-0.19,0.86
			c-0.15,0.3-0.36,0.58-0.61,0.81c-0.25,0.22-0.52,0.42-0.8,0.61c-0.3,0.19-0.57,0.41-0.8,0.66h2.38v1.18H73.99z"/>
		<path d="M78.98,54.85h1.41c-0.01,0.24,0.07,0.47,0.22,0.65c0.35,0.31,0.87,0.31,1.22,0c0.15-0.15,0.23-0.35,0.22-0.55
			c0.02-0.23-0.08-0.46-0.26-0.61c-0.24-0.15-0.52-0.22-0.8-0.2h-0.13v-0.97h0.1c0.25,0.02,0.51-0.05,0.73-0.18
			c0.17-0.13,0.26-0.34,0.24-0.55c0.01-0.18-0.06-0.36-0.18-0.49c-0.13-0.13-0.31-0.19-0.49-0.18c-0.21-0.01-0.42,0.06-0.57,0.19
			c-0.14,0.17-0.22,0.39-0.23,0.61H79.1c-0.01-0.53,0.21-1.04,0.61-1.39c0.91-0.62,2.11-0.65,3.05-0.06
			c0.55,0.45,0.71,1.23,0.38,1.86c-0.14,0.22-0.32,0.41-0.54,0.56c0.28,0.11,0.51,0.3,0.67,0.55c0.15,0.26,0.23,0.57,0.23,0.87
			c0.02,0.54-0.2,1.05-0.61,1.4c-0.49,0.37-1.09,0.55-1.7,0.51c-0.58,0.04-1.15-0.15-1.6-0.52C79.18,55.95,78.96,55.41,78.98,54.85z
			"/>
	</g>
</g>
</svg>
