<?xml version="1.0" encoding="utf-8"?>
<svg version="1.1" id="Layer_1" xmlns="http://www.w3.org/2000/svg" xmlns:xlink="http://www.w3.org/1999/xlink" x="0px" y="0px"
	width="100px" height="100px" viewBox="0 0 100 100" style="enable-background:new 0 0 100 100;" xml:space="preserve">
<g>
	<path style="fill:#E8E8E8;" d="M50,0c27.6,0,50,22.4,50,50s-22.4,50-50,50S0,77.6,0,50S22.4,0,50,0"/>
	<path style="fill:#FFFFFF;" d="M50,1c27.1,0,49,21.9,49,49S77.1,99,50,99S1,77.1,1,50S22.9,1,50,1"/>
	<g>
		<path style="fill:#00A397;" d="M18.4,63.6c25.8,2,29.2,1,62.7,0.8c2.3,0,5.4-1.9,5.4-4.2c0.1-7.5-0.2-12.8-0.1-20.3
			c0-2.3-1.8-4.2-4.1-4.2c-26.9-0.8-18.4-0.4-45.7-0.5c-6.8,0-12.7-0.3-19.2,0.2c-2.2,0.2-3.9,2-3.9,4.2c-0.1,5.3,0,14,0.4,19.4
			C14.1,61.6,16.3,63.5,18.4,63.6z"/>
		<path style="fill:#FFFFFF;" d="M78.3,53.9V47h1.5c0.2,0,0.2-0.1,0.2-0.2v-1.1c0-0.2-0.1-0.2-0.2-0.2h-1.5v-3.3
			c0-0.2-0.1-0.2-0.2-0.2h-1.1c-0.2,0-0.2,0.1-0.2,0.2v3.3h-1.4c-0.2,0-0.2,0.1-0.2,0.2v1.1c0,0.2,0.1,0.2,0.2,0.2h1.5v7.7
			c0,0.7,0.2,1.2,0.7,1.6c0.4,0.4,1,0.7,1.5,0.7h0.6c0.2,0,0.2-0.1,0.2-0.2v-1.1c0-0.2-0.1-0.2-0.2-0.2H79c-0.5,0-0.7-0.2-0.7-0.7
			C78.3,54.7,78.3,53.9,78.3,53.9z M65.3,56.9h1.1c0.2,0,0.2-0.1,0.2-0.2v-6.2c0-0.4,0.1-0.9,0.2-1.2c0.2-0.4,0.4-0.8,0.7-1.2
			C68.2,47.4,69,47,70,47c1,0,1.7,0.3,2.4,1.1c0.7,0.7,1,1.5,1,2.4v6.2c0,0.2,0.1,0.2,0.2,0.2h1.1c0.2,0,0.2-0.1,0.2-0.2v-6.2
			c0-1.3-0.4-2.4-1.3-3.3c-0.1-0.1-0.1-0.2-0.2-0.2c-1-1-2.2-1.5-3.5-1.5c-0.7,0-1.5,0.2-2.1,0.5c-0.5,0.2-0.9,0.6-1.3,1v-4.7
			c0-0.2-0.1-0.2-0.2-0.2h-1.1c-0.2,0-0.2,0.1-0.2,0.2v14.4C65,56.8,65.1,56.9,65.3,56.9z M51.8,52.7v-7c0-0.2,0.1-0.2,0.2-0.2h1.1
			c0.2,0,0.2,0.1,0.2,0.2v11c0,0.2-0.1,0.2-0.2,0.2h-1.1c-0.2,0-0.2-0.1-0.2-0.2V52.7 M52.1,43.7h1.1c0.2,0,0.2-0.1,0.2-0.2v-1.2
			c0-0.2-0.1-0.2-0.2-0.2h-1.1c-0.2,0-0.2,0.1-0.2,0.2v1.2C51.8,43.6,51.9,43.7,52.1,43.7z M49.7,42c0.2,0,0.2,0.1,0.2,0.2v12.4
			c0,0.5,0.2,0.7,0.7,0.7h0.2c0.2,0,0.2,0.1,0.2,0.2v1.1c0,0.2-0.1,0.2-0.2,0.2h-0.2c-0.7,0-1.1-0.2-1.6-0.7c-0.4-0.4-0.7-1-0.7-1.6
			V42.3c0-0.2,0.1-0.2,0.2-0.2H49.7z M21.8,42.2v3.3h-1.5c-0.2,0-0.2,0.1-0.2,0.2v1.1c0,0.2,0.1,0.2,0.2,0.2h1.5v7.7
			c0,0.7,0.2,1.2,0.7,1.6c0.4,0.4,1,0.7,1.5,0.7h0.6c0.2,0,0.2-0.1,0.2-0.2v-1.1c0-0.2-0.1-0.2-0.2-0.2H24c-0.5,0-0.7-0.2-0.7-0.7
			v-7.6h1.5c0.2,0,0.2-0.1,0.2-0.2v-1.1c0-0.2-0.1-0.2-0.2-0.2h-1.5v-3.3c0-0.2-0.1-0.2-0.2-0.2h-1.1C21.8,41.9,21.8,42.1,21.8,42.2
			z M25.6,42.3v14.4c0,0.2,0.1,0.2,0.2,0.2h1.1c0.2,0,0.2-0.1,0.2-0.2v-6.1c0-1,0.3-1.8,1-2.4c0.7-0.7,1.5-1.1,2.4-1.1
			s1.8,0.3,2.4,1.1c0.7,0.7,1.1,1.5,1.1,2.4v6.1c0,0.2,0.1,0.2,0.2,0.2h1.1c0.2,0,0.2-0.1,0.2-0.2v-6.1c0-1.4-0.5-2.6-1.5-3.6
			c-1-1-2.2-1.5-3.5-1.5c-0.7,0-1.5,0.2-2.1,0.5c-0.5,0.2-0.9,0.6-1.3,1v-4.7c0-0.2-0.1-0.2-0.2-0.2h-1.1
			C25.7,42,25.6,42.1,25.6,42.3z M46.1,50.5c0-1.4-0.5-2.6-1.5-3.6s-2.1-1.5-3.5-1.5c-1.4,0-2.5,0.5-3.5,1.5c-1,1-1.5,2.2-1.5,3.6
			V52c0,1.4,0.5,2.6,1.5,3.6c1,0.9,2.2,1.3,3.5,1.3h2.4c0.2,0,0.2-0.1,0.2-0.2v-0.9c0-0.2-0.1-0.2-0.2-0.2h-2.4
			c-0.9,0-1.7-0.3-2.4-1c-0.7-0.7-1-1.5-1-2.4H46c0.2,0,0.2-0.1,0.2-0.2L46.1,50.5L46.1,50.5z M37.7,50.5c0-1,0.3-1.8,1-2.4
			c0.7-0.7,1.5-1.1,2.4-1.1s1.8,0.3,2.4,1.1c0.7,0.7,1,1.5,1,2.4C44.5,50.5,37.7,50.5,37.7,50.5z M63.2,47.7
			c-0.2-0.2-0.3-0.4-0.5-0.6c-1-1-2.2-1.5-3.5-1.5c-1.4,0-2.5,0.5-3.5,1.5c-0.7,0.7-1.1,1.5-1.3,2.4c-0.1,0.3-0.2,0.7-0.2,1.1v1.5
			c0,1.3,0.4,2.4,1.2,3.3l0.1,0.1l0.1,0.1c0.8,0.7,1.7,1.1,2.7,1.2h0.1c0.2,0,0.5,0.1,0.7,0.1c0.7,0,1.5-0.2,2.1-0.4
			c0.5-0.2,0.9-0.5,1.3-0.9c0,0.6-0.2,1.1-0.6,1.6c-0.2,0.2-0.2,0.3-0.4,0.5c-0.5,0.5-1.1,0.8-1.8,1c-0.3,0.1-1.9,0-2.4,0
			c-0.2,0-0.2,0.1-0.2,0.2v1.1c0,0.2,0.1,0.2,0.2,0.2c0.6,0,2,0.1,2.5,0c0.7-0.1,1.5-0.3,2.1-0.8c0.2-0.2,0.6-0.4,0.8-0.7
			c0.7-0.7,1.1-1.3,1.3-2c0.2-0.4,0.2-0.9,0.2-1.3v-4.9C64.1,49.5,63.8,48.5,63.2,47.7L63.2,47.7z M56.3,54.2
			c-0.4-0.6-0.6-1.2-0.6-2v-1.5c0-0.2,0-0.4,0.1-0.6c0.1-0.7,0.4-1.3,1-1.9c0.7-0.7,1.5-1.1,2.4-1.1s1.7,0.3,2.4,1.1
			c0,0.1,0.1,0.1,0.1,0.2c0.6,0.7,0.9,1.4,0.9,2.3v1.9c-0.1,0.8-0.4,1.5-1,2.1c-0.7,0.7-1.5,1-2.4,1c-0.9,0-1.7-0.3-2.4-1
			C56.6,54.5,56.4,54.3,56.3,54.2z"/>
	</g>
</g>
</svg>
