<?xml version="1.0" encoding="utf-8"?>
<svg version="1.1" id="Layer_1" xmlns="http://www.w3.org/2000/svg" xmlns:xlink="http://www.w3.org/1999/xlink" x="0px" y="0px"
	width="100px" height="100px" viewBox="0 0 154 154" style="enable-background:new 0 0 154 154;" xml:space="preserve">
<g>
	<circle style="fill:#005FA2;" cx="77" cy="77" r="77"/>
	<path style="fill:#FFFFFF;" d="M24.5,63.2v9.6H20V51.4h4.5v8.1h8.4v-8.1h4.5v21.4h-4.5v-9.6L24.5,63.2z M53.9,69.7
		c0,1.9,0.4,2.3,0.9,2.5v0.6h-4.5c-0.2-0.6-0.3-1.2-0.4-1.9c-1.3,1.5-3.2,2.4-5.1,2.3c-2.4,0-4.8-1.3-4.8-4.6c0-3.1,2-4.7,4.6-5.1
		l3.7-0.5c0.7-0.1,1.5-0.4,1.5-1.3c0-1.8-1.7-1.8-2.7-1.8c-1.2-0.2-2.4,0.7-2.5,1.9c0,0.1,0,0.2,0,0.3h-4c0.5-4.9,3.8-5.5,7.1-5.5
		c2.2,0,6.3,0.7,6.3,4.6L53.9,69.7L53.9,69.7z M49.9,65.1C49,65.6,48,65.9,47,65.9c-1.5,0.3-2.8,0.7-2.8,2.4c0,1,0.7,1.9,1.7,1.9
		c0.1,0,0.1,0,0.2,0c1.8,0,3.7-1.2,3.7-3.1L49.9,65.1z M71.7,72.8h-4.2v-9.6c0-1.2-0.1-3.1-2.7-3.1c-1.8,0-3.3,1.3-3.3,3.7v9.1h-4.2
		V56.9h4v2.3h0.1c0.9-1.8,2.8-2.8,4.8-2.8c3.1,0,5.5,1.8,5.5,5.3V72.8L71.7,72.8z M89.8,72.8h-4.1v-2h-0.1c-1,1.6-2.7,2.5-4.6,2.4
		c-4.7,0-6.7-4.2-6.7-8.5c0-5.5,3.1-8.2,6.6-8.2c1.9-0.1,3.6,0.9,4.6,2.5h0.1v-7.6h4.2C89.8,51.4,89.8,72.8,89.8,72.8z M82.1,69.8
		c2.7,0,3.7-2.2,3.7-4.6c0-2.5-0.7-5.1-3.6-5.1c-2.7,0-3.6,2.4-3.6,4.9C78.7,66.9,79.4,69.8,82.1,69.8L82.1,69.8z M106.9,68.1
		c-0.8,3.1-3.8,5.2-7,5.1c-4.5,0-7.9-2.2-7.9-8.7c0-1.9,0.7-8,7.6-8c3.1,0,7.5,1.5,7.5,8.7V66H96.2c0.1,1.2,0.4,3.9,3.7,3.9
		c1.2,0.1,2.3-0.6,2.7-1.7L106.9,68.1L106.9,68.1z M102.8,63.3c-0.2-2.6-1.9-3.3-3.2-3.3c-2,0-3,1.3-3.3,3.3H102.8z M113.8,72.8
		h-4.2V51.4h4.2V72.8z M141.4,62.8V67h-7v-4.2L141.4,62.8z M126.5,61.8c-0.2-1-0.5-2.1-2.8-2.1s-2.6,0.9-2.6,1.5
		c0,2.5,9.9,0.7,9.9,6.5c0,4.6-4.5,5.5-7,5.5c-3.6,0-7.5-1.3-7.6-5.5h4.3c0,1.3,0.8,2.3,3.5,2.3c2.2,0,2.7-1,2.7-1.6
		c0-2.7-9.8-0.7-9.8-6.6c0-2.3,1.5-5.3,6.4-5.3c3.1,0,6.8,0.8,7.1,5.3L126.5,61.8z M24.2,88.4L24.2,88.4c1-1.6,2.8-2.6,4.7-2.5
		c3.5,0,6.6,2.7,6.6,8.2c0,4.3-2,8.5-6.7,8.5c-1.9,0.1-3.6-0.8-4.6-2.4h-0.1v2H20V80.8h4.2L24.2,88.4z M27.6,89.5
		c-2.9,0-3.6,2.6-3.6,5.1c0,2.4,1,4.6,3.7,4.6s3.4-2.9,3.4-4.8C31.2,91.9,30.3,89.5,27.6,89.5L27.6,89.5z M50.9,99.1
		c0,1.9,0.4,2.3,0.9,2.5v0.6h-4.5c-0.2-0.6-0.3-1.2-0.4-1.9c-1.3,1.5-3.2,2.3-5.1,2.3c-2.4,0-4.8-1.3-4.8-4.6c0-3.1,2-4.7,4.6-5.1
		l3.8-0.6c0.7-0.1,1.5-0.4,1.5-1.3c0-1.8-1.7-1.8-2.7-1.8c-1.2-0.2-2.4,0.7-2.5,1.9c0,0.1,0,0.2,0,0.3h-4c0.5-4.9,3.8-5.6,7.1-5.6
		c2.2,0,6.3,0.7,6.3,4.6L50.9,99.1L50.9,99.1z M46.8,94.5C46,95,45,95.3,44,95.3c-1.5,0.3-2.8,0.7-2.8,2.4c0,1,0.7,1.9,1.7,1.9
		c0.1,0,0.1,0,0.2,0c1.8,0,3.7-1.2,3.7-3.1L46.8,94.5L46.8,94.5z M68.7,102.2h-4.2v-9.6c0-1.2-0.1-3.1-2.7-3.1
		c-1.8,0-3.3,1.3-3.3,3.7v9.1h-4.2V86.3h4v2.3h0.1c0.9-1.8,2.8-2.8,4.8-2.7c3.1,0,5.5,1.8,5.5,5.3L68.7,102.2L68.7,102.2z
		 M76.6,102.2h-4.2V80.8h4.2v11.6l5.3-6H87l-5.6,6.2l5.8,9.7h-5l-3.8-6.8l-1.8,1.8L76.6,102.2z M102.2,97.6c-0.8,3.1-3.8,5.2-7,5.1
		c-4.5,0-7.9-2.1-7.9-8.7c0-1.9,0.7-8,7.6-8c3.1,0,7.4,1.5,7.4,8.7v0.8H91.5c0.1,1.2,0.4,3.9,3.7,3.9c1.2,0.1,2.3-0.6,2.7-1.7
		L102.2,97.6z M98.1,92.7c-0.2-2.6-1.9-3.3-3.2-3.3c-2,0-3,1.3-3.3,3.3H98.1z M119.2,102.2h-4.2v-9.6c0-1.2-0.1-3.1-2.7-3.1
		c-1.8,0-3.3,1.3-3.3,3.7v9.1h-4.2V86.3h4v2.3h0.1c0.9-1.8,2.8-2.8,4.8-2.7c3.1,0,5.5,1.8,5.5,5.3L119.2,102.2L119.2,102.2z"/>
</g>
</svg>
