<?xml version="1.0" encoding="utf-8"?>
<svg version="1.1" id="Layer_1" xmlns="http://www.w3.org/2000/svg" xmlns:xlink="http://www.w3.org/1999/xlink" x="0px" y="0px"
	width="100px" height="100px" viewBox="0 0 72.2 72.2" style="enable-background:new 0 0 72.2 72.2;" xml:space="preserve">
<g>
	<path style="fill:#2160AD;" d="M72.2,36.1C72.2,56,56,72.2,36.1,72.2l0,0C16.2,72.2,0,56,0,36.1l0,0C0,16.2,16.2,0,36.1,0l0,0
		C56,0,72.2,16.2,72.2,36.1L72.2,36.1z"/>
	<path style="fill:#FFFFFF;" d="M61.9,20.1l-10.1,9.7H39.1l-2.3-2.5l6.9-7.3L61.9,20.1L61.9,20.1z M61.9,52.1l-10.1-9.7H39.1
		l-2.3,2.5l6.9,7.3L61.9,52.1L61.9,52.1z M17.1,31.6h1.8v9.1h-1.8v-3.8h-3.4v3.8h-1.8v-9.1h1.8v3.7h3.4V31.6
		C17.1,31.6,17.1,31.6,17.1,31.6z M26.6,40.8L26,39.1h-3.8l-0.6,1.6h-1.9l3.2-9.1h2.2l3.2,9.1L26.6,40.8
		C26.6,40.8,26.6,40.8,26.6,40.8z M22.8,37.4h2.6l-1.3-3.8L22.8,37.4z M31.1,39h3.5v1.7h-5.3v-9.1H31L31.1,39
		C31.1,39,31.1,39,31.1,39z M35.6,31.6h1.8v9.1h-1.8C35.6,40.7,35.6,31.6,35.6,31.6z M44.5,33.3h-3.6v2.1h3.5v1.8h-3.5v3.4H39v-9
		h5.6L44.5,33.3C44.5,33.3,44.5,33.3,44.5,33.3z M51.4,40.8l-0.6-1.6h-3.8l-0.6,1.5h-1.9l3.2-9.1H50l3.2,9.1L51.4,40.8L51.4,40.8z
		 M47.7,37.4h2.6L49,33.6C49,33.6,47.7,37.4,47.7,37.4z M61.1,40.7h-2l-1.8-3l-1.7,3h-2l2.8-4.7l-2.7-4.4h2l1.7,2.7l1.7-2.7h2
		L58.4,36C58.3,36,61.1,40.7,61.1,40.7L61.1,40.7z"/>
	<path style="fill:#2160AD;" d="M21.6,30.3L10.2,19.5h19.9l10.2,10.8H21.6z"/>
	<path style="fill:#FFFFFF;" d="M39.1,29.7H21.8l-10.1-9.7h18.3C29.9,20.1,39.1,29.7,39.1,29.7z"/>
	<path style="fill:#2160AD;" d="M10.2,52.7l11.3-10.8h18.8L30.2,52.7H10.2z"/>
	<path style="fill:#FFFFFF;" d="M39.1,42.4H21.8l-10.1,9.7h18.3L39.1,42.4z"/>
</g>
</svg>
