<?xml version="1.0"?>
<svg xmlns="http://www.w3.org/2000/svg" xmlns:xlink="http://www.w3.org/1999/xlink" xmlns:svgjs="http://svgjs.com/svgjs" version="1.1" width="512" height="512" x="0" y="0" viewBox="0 0 512 512" style="enable-background:new 0 0 512 512" xml:space="preserve" class=""><g>
<g xmlns="http://www.w3.org/2000/svg">
	<g>
		<g>
			<circle style="" cx="256" cy="256" r="256" fill="#f1f1f1" data-original="#ffce00" class=""/>
		</g>
	</g>
	<path style="" d="M512,256c0-4.571-0.125-9.113-0.362-13.626L390.632,121.368L121.367,390.632l121.007,121.006   C246.886,511.875,251.428,512,256,512C397.385,512,512,397.385,512,256z" fill="#f1f1f1" data-original="#ffa300" class=""/>
	<g>
		<g>
			
				<ellipse transform="matrix(0.7071 -0.7071 0.7071 0.7071 -106.0387 256.0001)" style="" cx="256" cy="256" rx="190.398" ry="190.398" fill="#2864f0" data-original="#2864f0" class=""/>
		</g>
		<g>
			<path style="" d="M390.632,121.368c-37.281-37.281-86.175-55.865-135.037-55.762v380.787     c48.862,0.104,97.756-18.481,135.037-55.762C464.987,316.277,464.987,195.723,390.632,121.368z" fill="#1b3b6b" data-original="#1b3b6b" class=""/>
		</g>
		<g>
			<path style="" d="M121.368,121.368c74.355-74.355,194.909-74.355,269.264,0L256,256L121.368,121.368z" fill="#27488f" data-original="#27488f" class=""/>
		</g>
		<g>
			<path style="" d="M390.632,121.368c-37.281-37.281-86.175-55.865-135.037-55.762v189.989L256,256L390.632,121.368z" fill="#27488f" data-original="#27488f" class=""/>
		</g>
	</g>
	<g>
		<g>
			<path style="" d="M390.631,390.632c-74.355,74.355-194.909,74.355-269.264,0L255.999,256L390.631,390.632z" fill="#27488f" data-original="#27488f" class=""/>
		</g>
	</g>
	<g>
		<g>
			<path style="" d="M390.631,390.632L256,256l-0.404,0.404v189.989C304.457,446.497,353.351,427.912,390.631,390.632z     " fill="#27488f" data-original="#27488f" class=""/>
		</g>
	</g>
	<g>
		<path style="" d="M97.566,275.203c0-24.458,22.655-94.692,50.602-94.692s50.602,70.234,50.602,94.692    s-22.655,44.286-50.602,44.286S97.566,299.662,97.566,275.203z" fill="#ffa426" data-original="#ffa426" class=""/>
	</g>
	<g>
		<path style="" d="M198.769,275.203c0-24.375-22.501-94.205-50.316-94.681v138.961    C176.267,319.348,198.769,299.578,198.769,275.203z" fill="#ff9500" data-original="#ff9500" class=""/>
	</g>
	<g>
		<path style="" d="M127.92,275.203c0-24.458,9.065-94.692,20.247-94.692s20.247,70.234,20.247,94.692    s-9.065,44.286-20.247,44.286S127.92,299.662,127.92,275.203z" fill="#ff9500" data-original="#ff9500" class=""/>
	</g>
	<g>
		<path style="" d="M168.414,275.203c0-24.25-8.911-93.485-19.962-94.665v138.935    C159.502,319.138,168.414,299.452,168.414,275.203z" fill="#fe8205" data-original="#fe8205" class=""/>
	</g>
	<g>
		<path style="" d="M211.117,173.497c0-21.772,20.167-84.291,45.044-84.291s45.044,62.519,45.044,84.291    s-20.167,39.421-45.044,39.421S211.117,195.269,211.117,173.497z" fill="#93d632" data-original="#93d632" class=""/>
	</g>
	<g>
		<path style="" d="M256.16,89.206c-0.189,0-0.377,0.015-0.565,0.022v123.678c0.189,0.002,0.375,0.013,0.565,0.013    c24.877,0,45.043-17.65,45.043-39.422C301.204,151.726,281.037,89.206,256.16,89.206z" fill="#78b22a" data-original="#78b22a" class=""/>
	</g>
	<g>
		<path style="" d="M220.764,385.273c0-20.836,15.848-80.667,35.396-80.666c19.549,0.001,35.396,59.834,35.396,80.67    c0,20.836-15.848,37.726-35.396,37.725C236.611,423.001,220.764,406.109,220.764,385.273z" fill="#93d632" data-original="#93d632" class=""/>
	</g>
	<g>
		<path style="" d="M243.566,385.274c0-20.836,5.639-80.668,12.594-80.667c6.956,0,12.594,59.833,12.594,80.669    s-5.639,37.727-12.594,37.726C249.205,423.001,243.566,406.11,243.566,385.274z" fill="#78b22a" data-original="#78b22a" class=""/>
	</g>
	<g>
		<path style="" d="M256.16,304.607c-0.189,0-0.377,0.016-0.565,0.027v118.353c0.189,0.003,0.375,0.016,0.565,0.016    c19.549,0.001,35.396-16.889,35.396-37.725S275.709,304.608,256.16,304.607z" fill="#78b22a" data-original="#78b22a" class=""/>
	</g>
	<g>
		<path style="" d="M256.16,304.607c-0.189,0-0.377,0.052-0.565,0.139v118.213c0.188,0.025,0.375,0.043,0.565,0.043    c6.956,0,12.594-16.89,12.594-37.727C268.754,364.439,263.116,304.607,256.16,304.607z" fill="#78b22a" data-original="#78b22a" class=""/>
	</g>
	<g>
		<path style="" d="M255.217,213.043c-24.353,5.078-47.698-8.083-52.142-29.396s2.536-86.634,26.889-91.712    L255.217,213.043z" fill="#f5e3a7" data-original="#f5e3a7" class=""/>
	</g>
	<g>
		<path style="" d="M256.16,213.043c24.353,5.078,47.698-8.083,52.142-29.396c4.444-21.314-2.536-86.634-26.889-91.712    L256.16,213.043z" fill="#f5d882" data-original="#f5d882" class=""/>
	</g>
	<g>
		<path style="" d="M380.187,313.689c-13.215,0-26.373-4.638-37.294-13.355c-12.768-10.19-21.604-25.046-24.883-41.829    c-4.95-25.344,3.92-51.335,22.597-66.217c11.878-9.463,29.18-7.508,38.645,4.371c9.464,11.878,7.508,29.18-4.371,38.644    c-1.794,1.43-4.165,6.13-2.89,12.658c0.769,3.935,2.668,7.356,5.212,9.387c0.945,0.754,2.275,1.503,3.154,1.328    c14.903-2.912,29.353,6.807,32.266,21.713c2.914,14.905-6.808,29.351-21.713,32.265    C387.361,313.348,383.771,313.689,380.187,313.689z" fill="#f5e3a7" data-original="#f5e3a7" class=""/>
	</g>
	<g>
		<path style="" d="M412.622,280.389c-2.913-14.906-17.362-24.625-32.266-21.713c-0.879,0.175-2.209-0.573-3.154-1.328    c-2.544-2.031-4.443-5.452-5.212-9.387c-1.275-6.528,1.096-11.229,2.89-12.658c11.879-9.464,13.835-26.766,4.371-38.644    c-6.308-7.917-16.097-11.419-25.441-10.077v120.755c8.299,4.173,17.324,6.352,26.377,6.352c3.584,0,7.175-0.342,10.723-1.035    C405.814,309.74,415.536,295.294,412.622,280.389z" fill="#f5d882" data-original="#f5d882" class=""/>
	</g>
</g>















</g></svg>
