<?xml version="1.0" encoding="utf-8"?>
<svg version="1.1" id="Layer_1" xmlns="http://www.w3.org/2000/svg" xmlns:xlink="http://www.w3.org/1999/xlink" x="0px" y="0px"
	 viewBox="0 0 923.08 142.8" style="enable-background:new 0 0 923.08 142.8;" xml:space="preserve">
<g>
	<path style="fill:#00539F;" d="M91.54,0.35C62.63,33,33.71,68.3,5.68,101.66c-1.6,1.95-2.48,4.44-3.73,6.56
		c-4.44,11.18-1.06,24.48,7.63,31.93c16.14,0.35,31.76,0.71,48.61,0c-0.18-1.42-1.42-2.31-2.13-3.55
		c-5.85-8.69-5.85-21.47-0.35-30.16c28.39-35.13,57.66-69.37,87.46-104.5c0.35-0.35,0.89-1.24,0-1.6c-7.45,0.18-14.9,0-22.35-0.18
		c-5.68,0-11.18-0.18-16.5-0.18C100.06,0,95.8,0,91.54,0.35"/>
	<path style="fill:#00A0E0;" d="M122.95,31.4l-0.18,1.77l38.14,46.48c7.45,9.58,15.97,18.27,22.53,28.39
		c4.79,10.11,3.02,23.6-4.08,32.29l0.18,0.71h47.37c3.02-0.53,4.61-3.73,6.74-6.03c5.14-9.23,5.5-22-0.18-30.87
		C205.8,70.08,177.59,35.48,149.56,1.77l-1.24-0.18L122.95,31.4"/>
	<path style="fill:#00539F;" d="M105.2,66.53c-7.27,17.03,7.1,29.63,13.66,43.47c4.08-8.87,12.6-16.5,15.08-26.43
		c5.14-15.08-7.1-27.14-14.55-38.85C114.43,51.8,108.75,58.9,105.2,66.53"/>
	<path style="fill:#00A0E0;" d="M609.05,48.26c-6.21,3.55-12.06,9.76-18.1,14.02c-8.69,9.4-24.48,0-32.82,10.11
		c-1.6,0.89-3.02,5.14-5.32,3.55c0-3.73,0.89-8.52-3.37-10.11c-6.03-0.89-12.77-0.18-18.63,0.53c-2.66,0.35-5.32,0.89-7.1,2.84
		c-2.84,4.97,4.26,6.21,4.79,10.64c1.42,16.32,1.42,32.11-0.53,47.55c-0.89,3.37-5.5,5.5-4.08,9.58c0.35,1.95,2.48,2.31,4.08,3.02
		c6.74,0.18,13.48,0.89,20.58,0.53c3.55-0.18,7.81,0,9.76-3.37c2.31-4.08-2.31-6.56-3.55-10.11c-1.77-10.64,0-23.6-0.18-35.13
		l1.06-2.48c4.08-7.63,13.48-6.56,20.93-6.74c2.66,0.71,6.56-0.35,8.34,2.66c1.42,7.27,0.53,15.79,0.18,22.53
		c0.35,9.76-3.37,20.4,2.66,28.56c8.52,6.21,20.05,4.08,29.98,3.02c9.05-6.74-5.32-9.76-6.39-15.61
		c-1.06-13.84-0.71-25.72,0.18-39.92c3.19-4.26,9.05-1.06,12.6-4.61c1.77-2.84,1.24-6.39,1.24-9.94c-0.89-3.02-3.55-3.02-6.39-3.02
		c-2.13,0-4.26,0-5.68-1.24c-1.42-4.97,1.06-9.94-0.53-14.73c-0.35-1.6-1.95-2.48-3.73-2.48C609.23,48.26,609.05,48.26,609.05,48.26
		 M284.39,90.66c0.35-8.69,3.9-16.5,6.74-24.31c0.53-1.6,2.31-3.19,4.26-3.55c5.85,0.53,5.32,7.27,6.56,11.53
		c0.53,5.32,3.19,10.47,2.84,15.79c-1.77,2.31-5.5,1.77-7.98,2.13C292.2,92.08,288.29,92.08,284.39,90.66 M347.9,46.66
		c-10.29,4.61,3.02,10.11,1.6,16.68c1.6,17.92,1.42,38.85,0.71,56.06c-0.53,3.73-0.18,7.98-2.66,11c-1.06,0.71-2.31,1.42-3.73,0.89
		c-2.48-1.06-3.37-4.08-4.44-6.39c-7.45-26.43-13.48-53.4-21.11-79.66c-0.89-1.95-2.48-4.08-4.44-4.97l-8.87-1.24
		c-2.13,0-4.44-0.18-6.92-0.35c-5.85-0.35-11.89-0.71-16.85,1.6c-1.6,1.24-1.6,3.19-1.42,5.32c4.08,4.44,0.35,10.47-0.71,15.26
		c-6.74,16.85-12.24,33.89-19.16,50.56c-2.48,8.34-6.74,15.79-8.16,24.31c1.42,6.56,9.4,4.97,14.9,5.68
		c3.19-0.35,7.1,0.18,8.87-3.02c2.13-5.14-6.03-7.45-2.84-13.31c2.48-8.69,4.79-17.21,7.98-25.72l1.42-0.18l6.74,6.21
		c3.37,1.77,7.45,1.6,11.53,1.6c3.02,0,6.03,0,8.69,0.53c2.48,3.9,2.48,9.4,3.9,14.02c4.26,6.56-4.26,10.64-1.95,16.85
		c1.77,2.66,5.5,2.66,8.69,3.19l40.98-0.35c6.56-0.18,13.84,0.35,19.34-2.13c4.79-6.03-4.97-8.87-4.08-14.73
		c-1.24-25.55,0.18-53.93,1.06-81.25l-0.53-2.84c-0.89-2.48-3.55-2.48-5.5-2.66C362.45,39.92,355.18,43.82,347.9,46.66"/>
	<path style="fill:#00A0E0;" d="M633.71,68.13c-9.58,4.97-8.52,16.14-8.16,25.37c0.89,9.76,10.11,14.9,18.45,17.56
		c6.39,3.19,15.79,4.08,18.27,11.71c0,2.13-0.35,4.26-2.13,5.68c-6.74,2.66-14.9,1.06-20.58-2.66c-5.85-2.31-4.97-11.71-12.6-10.82
		c-5.32,3.02-2.84,11.71-2.31,17.21c0.35,9.4,11,7.45,17.21,9.58c12.06,0.71,26.43,1.95,35.48-6.39c5.32-5.5,6.56-14.55,6.03-22
		c-1.95-18.98-22.89-15.79-33.71-25.55c-1.77-2.31-3.37-5.14-1.95-7.98c2.31-4.08,7.27-3.73,11.53-3.9c1.24,1.6,3.55,0.89,4.79,2.66
		c3.19,4.08-1.95,7.27-2.13,11.53c0.53,1.95,2.66,2.66,4.61,3.02c5.14,1.06,8.16-3.55,10.82-6.92c2.66-4.61,5.68-11.35,2.13-16.32
		l-1.77-1.24c-6.92-3.19-14.9-4.79-22.71-4.79C647.91,63.69,640.46,65.11,633.71,68.13 M850.69,70.08
		c-7.27,7.63-4.61,20.4-2.84,29.45c5.5,8.87,15.61,10.82,24.48,13.84c4.44,1.95,11,2.66,12.06,8.34c-0.35,2.13-0.71,4.44-3.02,5.5
		c-5.14,2.48-11.89,1.24-17.39-0.18c-5.68-1.77-8.52-7.63-12.42-11.35c-1.42-0.18-2.31-0.18-3.73,0c-4.97,3.02-1.77,9.58-2.66,14.55
		l-0.53,0.53c-1.95-0.89-3.37-1.95-4.79-3.55c-5.85-15.61-8.87-32.64-13.84-48.97c-1.06-4.26-2.66-8.34-5.5-12.06
		c-3.9-4.26-11.18-2.84-15.97-1.06c-4.97,1.95-9.4,5.5-14.55,7.1c-1.95-1.06-0.89-3.55-1.77-5.32c-3.55-4.08-9.93-1.77-15.08-1.6
		c-4.44,0.89-9.23,0.89-12.6,4.44c-2.84,4.61,3.73,7.45,4.08,11.89c1.24,13.66,1.77,29.98,0.71,44.53c-0.89,3.37-4.44,5.68-4.08,9.4
		c0.71,4.26,5.32,4.26,8.69,4.97c1.95-0.18,4.08,0,6.39,0c6.56,0.18,13.66,0.35,18.1-3.9c1.6-4.08-2.48-6.21-3.9-9.4
		c-1.95-11.18-1.6-23.77-1.42-34.77c-0.35-2.66,0.18-4.79,1.6-6.56c1.24-1.42,3.19-1.42,4.97-1.42h0.53
		c2.48,1.06,4.26,3.02,5.14,5.32c4.61,14.55,7.63,30.51,11.71,45.59c0.89,2.66,3.73,4.26,6.39,5.14c8.34,0.53,16.5,0.89,24.31-1.6
		c1.42-0.53,1.77-2.48,3.19-2.48c6.92,5.5,16.32,5.32,25.19,5.14c2.66,0,5.5-0.18,7.98,0c6.03-0.71,12.6-0.71,17.39-4.44
		c8.52-5.32,9.93-15.08,9.23-24.66c-1.77-15.26-18.98-15.97-29.45-20.76c-3.55-1.95-7.98-4.97-7.45-9.58
		c0.53-1.77,0.53-3.55,2.13-4.79c2.84-2.31,7.27-2.13,10.82-1.24c1.77,1.06,2.48,2.84,2.84,4.79c0.71,3.55-3.19,5.68-2.48,9.76
		c0,1.06,1.24,1.77,1.95,2.31c4.61,1.6,8.52-0.71,11.89-3.37c4.08-4.61,5.68-11.53,4.44-17.92c-4.26-7.1-12.95-6.92-20.22-7.81
		c-1.77,0-3.73-0.18-5.68-0.18C866.83,63.16,857.43,64.22,850.69,70.08 M717.81,127.56c-4.26-4.79-5.14-11-5.68-17.56
		c0-9.94-2.84-22.89,2.13-32.29c3.19-2.48,9.23-2.84,13.13-0.89c5.68,6.74,4.97,16.68,6.21,25.02c-0.18,7.81,2.48,17.03-1.24,24.31
		c-0.71,0.89-1.95,1.24-2.31,2.48v-0.35c-1.95,0.35-4.26,0.89-6.56,0.89C721.35,129.33,719.4,128.98,717.81,127.56 M699.18,67.24
		c-10.47,6.39-11.35,18.81-12.24,30.34c0,15.61-0.53,35.84,15.97,42.58c12.6,3.9,28.03,3.19,40.8-0.18
		c7.45-1.95,12.6-9.76,13.66-17.21c0.89-15.43-0.71-30.87-4.97-45.24c-1.77-5.32-6.39-9.94-11.89-11.53
		c-6.56-1.24-14.19-2.31-21.64-2.31C711.95,63.69,705.03,64.58,699.18,67.24 M413.55,128.27c-3.73-5.5-2.31-13.31-2.66-20.05
		c0.53-6.92-0.71-14.37,1.6-21.64c1.24-1.95,3.37-2.48,5.5-2.84c6.56,2.13,6.74,9.76,8.69,15.26c1.24,8.34,4.26,17.39,1.6,25.72
		c-1.42,2.48-3.73,4.08-6.56,4.97c-0.71,0.18-1.6,0.35-2.31,0.35C417.45,130.04,415.32,129.33,413.55,128.27 M407.87,40.27
		c-7.98,3.37-15.61,7.1-23.06,12.24c-6.03,5.32,4.26,7.1,3.19,12.42c1.24,21.47,1.24,42.05-0.53,63.69
		c-1.24,2.48-2.84,4.97-2.84,8.16c0.71,2.31,2.84,3.37,4.97,3.9c12.24,0.89,25.37,1.06,37.97,0.18c5.68-1.24,11.71-0.89,16.5-4.61
		c11.18-9.94,8.87-25.9,6.92-39.03c-3.19-10.29-4.79-21.82-13.31-29.98c-8.69-5.85-16.85,1.77-24.48,4.44l-1.06-1.06
		c0.18-9.4,1.6-19.87,0.18-29.27c-1.06-0.89-2.13-1.24-3.55-1.24C408.4,40.27,408.22,40.27,407.87,40.27"/>
	<path style="fill:#00539F;" d="M75.75,92.25H69.9l-0.53,0.35c-0.71,5.85-0.18,12.06,2.48,17.39c6.03,11.89,18.45,17.21,31.58,15.79
		c7.1,1.06,13.31,6.21,14.9,13.13c2.13-3.73,4.61-9.23,9.4-11.18c9.05-3.9,21.11-0.18,28.74-6.74c9.58-6.03,14.37-17.56,11.89-28.39
		c-2.48,0-5.14,0-7.63-0.18c-9.23-0.18-18.81-0.53-25.9,4.61c-7.98,4.61-13.13,12.42-15.97,20.76c-2.66-7.27-7.1-14.9-13.66-19.34
		c-6.74-5.32-15.43-6.03-24.31-6.03C79.3,92.25,77.53,92.25,75.75,92.25"/>
	<path style="fill:#00A0E0;" d="M487.53,129.33c-3.73-3.19-5.85-7.98-5.32-13.13c5.32-3.37,11.89-3.9,17.92-5.68
		c2.31-0.35,5.5,0.18,6.03,3.02c0.71,6.39-1.6,12.95-7.1,16.32c-1.95,0.53-4.08,1.06-6.03,1.06
		C491.07,130.75,489.3,130.4,487.53,129.33 M481.49,91.54c0.71-5.5,0.18-12.6,5.85-15.26c2.66-0.71,6.03-0.71,8.16,1.24
		c3.37,5.5,4.44,13.13,2.66,20.05c-2.84,4.44-9.05,4.61-14.02,4.97C480.08,100.24,481.85,95.27,481.49,91.54 M463.04,75.4
		c-6.56,16.68-6.74,38.85-1.42,55.71c1.95,4.79,7.1,6.92,11.35,8.69c11.53,2.48,23.95,3.55,34.6-1.42
		c7.63-4.08,12.6-12.24,12.06-20.76c-0.18-5.5-5.68-6.74-9.23-9.4v-0.71c3.19-1.77,7.45-2.13,9.05-6.03
		c2.31-9.58-0.18-19.16-4.61-27.32c-2.66-3.73-5.68-6.74-9.94-7.98c-5.5-0.89-11.89-1.95-18.27-1.95
		C477.24,64.4,468.01,66.71,463.04,75.4 M911.36,58.72h3.02c1.24,0,2.84,0.18,2.84,1.77c0,1.95-1.95,1.95-3.37,1.95h-2.31
		L911.36,58.72 M914.73,57.66h-4.61V68.3h1.24v-4.97h2.31l3.02,4.97h1.6l-3.19-4.97c1.95,0,3.37-0.89,3.37-3.02
		c0-0.89-0.35-1.77-1.24-2.31c-0.71-0.35-1.6-0.53-2.31-0.53C914.91,57.66,914.91,57.66,914.73,57.66 M905.33,63.16
		c0-4.61,3.73-8.34,8.34-8.52c4.61,0,8.52,3.73,8.52,8.34s-3.73,8.52-8.34,8.52C909.06,71.5,905.33,67.77,905.33,63.16 M913.67,53.4
		c-5.32,0-9.58,4.44-9.58,9.58c0,5.32,4.44,9.58,9.58,9.58c5.32,0,9.58-4.44,9.4-9.58C923.25,57.66,918.99,53.4,913.67,53.4"/>
</g>
</svg>
