<?xml version="1.0"?>
<svg xmlns="http://www.w3.org/2000/svg" xmlns:xlink="http://www.w3.org/1999/xlink" xmlns:svgjs="http://svgjs.com/svgjs" version="1.1" width="512" height="512" x="0" y="0" viewBox="0 0 512 512" style="enable-background:new 0 0 512 512" xml:space="preserve" class=""><g><path xmlns="http://www.w3.org/2000/svg" d="m512 256c0 6.51-.24 12.95-.72 19.34-.08 1-.16 2-.25 3-2 23.24-7.12 45.6-14.94 66.66-2.85 7.71-6.06 15.24-9.63 22.57-41.45 85.49-129.07 144.43-230.46 144.43-2.01 0-4.01-.02-6-.08-3.69-.08-7.35-.24-11-.48-16.57-1.09-32.72-3.75-48.28-7.85-.41-.11-.81-.22-1.22-.33-109.14-29.26-189.5-128.88-189.5-247.26 0-141.38 114.62-256 256-256 130.01 0 237.4 96.93 253.82 222.47.09.68.18 1.37.25 2.05 1.02 8.18 1.64 16.48 1.85 24.88.03 1.47.06 2.94.07 4.41.01.73.01 1.46.01 2.19z" fill="#f1f1f1" data-original="#3477a6" style="" class=""/><path xmlns="http://www.w3.org/2000/svg" d="m512 256c0 6.51-.24 12.95-.72 19.34-.08 1-.16 2-.25 3-2 23.24-7.12 45.6-14.94 66.66-2.85 7.71-6.06 15.24-9.63 22.57-41.45 85.49-129.07 144.43-230.46 144.43-2.01 0-4.01-.02-6-.08-3.69-.08-7.35-.24-11-.48-16.57-1.09-32.72-3.75-48.28-7.85-.41-.11-.81-.22-1.22-.33l-118.5-118.24 174.4-247.35 12.85 12.85 152.75-25.5 99.07 99.5c1.02 8.18 1.64 16.48 1.85 24.88.03 1.47.06 2.94.07 4.41.01.73.01 1.46.01 2.19z" fill="#f1f1f1" data-original="#185f8d" style="" class=""/><path xmlns="http://www.w3.org/2000/svg" d="m441 158.389h-370v226.653h145v.57l8.652 21.372h62.696l8.652-21.372v-.57h145z" fill="#fda632" data-original="#fda632" style="" class=""/><path xmlns="http://www.w3.org/2000/svg" d="m256 158.389v248.595h31.348l8.652-21.372v-.57h145v-226.653z" fill="#ed972f" data-original="#ed972f" style=""/><path xmlns="http://www.w3.org/2000/svg" d="m256 158.366c-3.325-19.245-20.589-33.35-40.817-33.35h-114.183v230h310v-230h-114.183c-20.228 0-37.492 14.106-40.817 33.35z" fill="#d9b570" data-original="#fff3dc" style="" class=""/><path xmlns="http://www.w3.org/2000/svg" d="m296.817 125.016c-20.228 0-37.491 14.105-40.817 33.35v196.65h155v-230z" fill="#bf9f64" data-original="#ffe7bb" style="" class=""/><path xmlns="http://www.w3.org/2000/svg" d="m286 295.016c-16.569 0-30 13.431-30 30 0-16.568-13.431-30-30-30h-125v30 30h310v-30-30z" fill="#ffd27d" data-original="#ffd27d" style="" class=""/><path xmlns="http://www.w3.org/2000/svg" d="m286 295.016c-16.569 0-30 13.431-30 30v30h155v-30-30z" fill="#ffc466" data-original="#ffc466" style="" class=""/><path xmlns="http://www.w3.org/2000/svg" d="m286 325.016c-16.569 0-30 13.431-30 30 0-16.568-13.431-30-30-30h-125v30h155 155v-30z" fill="#bf9f64" data-original="#ffe7bb" style="" class=""/><path xmlns="http://www.w3.org/2000/svg" d="m286 325.016c-16.569 0-30 13.431-30 30h155v-30z" fill="#ffd27d" data-original="#ffd27d" style="" class=""/><path xmlns="http://www.w3.org/2000/svg" d="m411 195.016h-70v-70z" fill="#ffffff" data-original="#ffffff" style="" class=""/><path xmlns="http://www.w3.org/2000/svg" d="m341 125.016h70v70z" fill="#ffd27d" data-original="#ffd27d" style="" class=""/><path xmlns="http://www.w3.org/2000/svg" d="m256 279.004-46.226-27.32v-51.361l46.226-27.319z" fill="#3bc3ff" data-original="#3bc3ff" style="" class=""/><path xmlns="http://www.w3.org/2000/svg" d="m256 226.004h-46.226v25.68l46.226 27.32z" fill="#09a1e8" data-original="#09a1e8" style="" class=""/><path xmlns="http://www.w3.org/2000/svg" d="m178.957 200.323h30.817v51.362h-30.817z" fill="#c1eaff" data-original="#c1eaff" style="" class=""/><path xmlns="http://www.w3.org/2000/svg" d="m271.019 226.004c0 2.832-2.304 5.136-5.136 5.136v20.545c14.161 0 25.681-11.52 25.681-25.681s-11.52-25.681-25.681-25.681v20.545c2.832-.001 5.136 2.304 5.136 5.136z" fill="#f1444f" data-original="#f1444f" style=""/><path xmlns="http://www.w3.org/2000/svg" d="m291.564 226.004h-20.545c0 2.832-2.304 5.136-5.136 5.136v20.545c14.16-.001 25.681-11.521 25.681-25.681z" fill="#db2835" data-original="#db2835" style="" class=""/><path xmlns="http://www.w3.org/2000/svg" d="m301.384 226.004c0 19.483-15.851 35.333-35.333 35.333v17.667c29.224 0 53-23.776 53-53s-23.776-53-53-53v17.667c19.482-.001 35.333 15.85 35.333 35.333z" fill="#f1444f" data-original="#f1444f" style=""/><path xmlns="http://www.w3.org/2000/svg" d="m319.05 226.004h-17.667c0 19.483-15.851 35.333-35.333 35.333v17.667c29.225 0 53-23.776 53-53z" fill="#db2835" data-original="#db2835" style="" class=""/><path xmlns="http://www.w3.org/2000/svg" d="m178.957 226.004h30.817v25.681h-30.817z" fill="#7cd9ff" data-original="#7cd9ff" style=""/></g></svg>
