<?xml version="1.0" encoding="utf-8"?>
<svg version="1.1" id="Layer_1" xmlns="http://www.w3.org/2000/svg" xmlns:xlink="http://www.w3.org/1999/xlink" x="0px" y="0px"
	width="100px" height="100px" viewBox="0 0 72.2 72.2" style="enable-background:new 0 0 72.2 72.2;" xml:space="preserve">
<g>
	<circle style="fill:#E8E8E8;" cx="36.1" cy="36.1" r="36.1"/>
	<circle style="fill:#FFFFFF;" cx="36.1" cy="36.1" r="35.4"/>
	<path style="fill:#0677A6;" d="M12.4,43.9h1.2v2h2.1v-2h1.1v5.2h-1.1v-2.2h-2.1v2.2h-1.2V43.9z M19.7,43.9h1.1l2.2,5.2h-1.2
		l-0.5-1.2h-2.2l-0.5,1.2h-1.2L19.7,43.9L19.7,43.9z M20.9,46.9l-0.6-1.7l-0.7,1.7H20.9z M23.7,43.9H26c0.6,0,1.2,0.1,1.5,0.5
		c0.3,0.3,0.5,0.6,0.5,1.2l0,0c0,0.9-0.5,1.4-1.2,1.7l1.2,1.9h-1.4l-1.1-1.7l0,0h-0.8v1.7h-1.2L23.7,43.9L23.7,43.9L23.7,43.9z
		 M26,46.4c0.6,0,0.8-0.3,0.8-0.7l0,0c0-0.5-0.3-0.7-0.8-0.7h-1.2v1.4H26C26,46.3,26,46.4,26,46.4z M35.4,47l-2-3.1h1.3l1.2,2.1
		l1.2-2.1h1.3l-2,3.1v2.1h-1C35.4,49.1,35.4,47,35.4,47z M51.7,43.9h1.1V48h2.6v1.1h-3.7V43.9z M28.9,43.9h2.3
		c0.6,0,1.2,0.1,1.5,0.5c0.3,0.3,0.4,0.6,0.4,1.2l0,0c0,0.9-0.4,1.4-1.1,1.7l1.3,1.9H32l-1.1-1.7l0,0h-0.9v1.7h-1.1V43.9z
		 M31.1,46.4c0.6,0,0.8-0.3,0.8-0.7l0,0c0-0.5-0.3-0.7-0.9-0.7h-1.2v1.4H31.1C31.1,46.3,31.1,46.4,31.1,46.4z M40.3,43.9h1.1V46h2.1
		v-2.1h1.2v5.2h-1.2v-2.2h-2.1v2.2h-1.1V43.9z M56.1,43.9h1.1V48h2.6v1.1h-3.7V43.9z M47.6,43.9h1.1l2.2,5.2h-1.2l-0.5-1.2h-2.2
		l-0.6,1.2h-1.2L47.6,43.9L47.6,43.9z M48.8,46.9l-0.6-1.7l-0.7,1.7H48.8z M36.8,51.7h-0.6v-0.1h0.2c0.1,0,0.1,0,0.2-0.1
		c0.1,0,0.1-0.1,0.1-0.1c0-0.1,0.1-0.1,0.1-0.2H37v2.1h-0.2V51.7L36.8,51.7z M38.2,52.2c-0.1,0-0.1-0.1-0.1-0.1L38,52.1
		c0,0,0-0.1-0.1-0.1v-0.1c0-0.1,0-0.1,0.1-0.2c0.1-0.1,0.1-0.1,0.1-0.1l0.2-0.1h0.3h0.3c0.1,0,0.1,0.1,0.2,0.1s0.1,0.1,0.1,0.1
		c0,0.1,0.1,0.1,0.1,0.2c0,0.1,0,0.2-0.1,0.3c0,0.1-0.1,0.1-0.2,0.2c0.1,0,0.2,0.1,0.3,0.2c0.1,0.1,0.1,0.2,0.1,0.3
		c0,0.1,0,0.2-0.1,0.3c0,0.1-0.1,0.1-0.1,0.2c-0.1,0.1-0.1,0.1-0.3,0.1c-0.1,0.1-0.2,0-0.4,0h-0.3c-0.1,0-0.1-0.1-0.2-0.1L38,53
		c0-0.1-0.1-0.1-0.1-0.3s0-0.2,0.1-0.4C37.9,52.4,38,52.3,38.2,52.2L38.2,52.2z M38.5,52.3h-0.2c-0.1,0-0.1,0-0.1,0.1
		c-0.1,0-0.1,0.1-0.1,0.1v0.2v0.1c0,0.1,0.1,0.1,0.1,0.1c0.1,0.1,0.1,0.1,0.1,0.1h0.2h0.2c0.1,0,0.1-0.1,0.1-0.1l0.1-0.1v-0.2v-0.2
		c0-0.1-0.1-0.1-0.1-0.1c-0.1,0-0.1-0.1-0.1-0.1C38.7,52.3,38.6,52.3,38.5,52.3z M38.5,51.4h-0.1c-0.1,0-0.1,0-0.1,0.1
		c0,0-0.1,0.1-0.1,0.1v0.1v0.1l0.1,0.1c0,0,0.1,0.1,0.1,0.1h0.1h0.1c0.1,0,0.1,0,0.1-0.1c0,0,0.1-0.1,0.1-0.1v-0.2
		c0-0.1,0-0.2-0.1-0.3L38.5,51.4L38.5,51.4z M40,53c0,0.1,0.1,0.1,0.1,0.2c0.1,0.1,0.1,0.1,0.3,0.1s0.3,0,0.4-0.1l0.2-0.2
		c0-0.1,0.1-0.2,0.1-0.3v-0.3l0,0c-0.1,0.1-0.1,0.2-0.3,0.3c-0.1,0.1-0.2,0.1-0.4,0.1h-0.3c-0.1,0-0.1-0.1-0.2-0.1
		c-0.1-0.1-0.1-0.1-0.1-0.2s-0.1-0.1-0.1-0.3v-0.3c0-0.1,0.1-0.1,0.1-0.2c0.1-0.1,0.1-0.1,0.2-0.1c0.1-0.1,0.2-0.1,0.4-0.1
		s0.3,0,0.4,0.1c0.1,0.1,0.2,0.1,0.3,0.2c0.1,0.1,0.1,0.2,0.1,0.4v0.4c0,0.1,0,0.3-0.1,0.5c0,0.1-0.1,0.3-0.1,0.4
		c-0.1,0.1-0.2,0.2-0.3,0.2c-0.1,0-0.2,0.1-0.4,0.1h-0.3c-0.1,0-0.1-0.1-0.2-0.1c-0.1,0-0.1-0.1-0.1-0.1c0-0.1-0.1-0.1-0.1-0.2
		L40,53L40,53L40,53C40,53,40,53,40,53z M40.5,51.4c-0.1,0-0.3,0.1-0.4,0.1c-0.1,0.1-0.1,0.2-0.1,0.4s0,0.3,0.1,0.4
		c0.1,0.1,0.2,0.1,0.4,0.1h0.2c0.1,0,0.1-0.1,0.1-0.1c0,0,0.1-0.1,0.1-0.1v-0.2c0-0.1,0-0.3-0.1-0.4C40.8,51.4,40.7,51.4,40.5,51.4z
		 M42.4,51.7h-0.6v-0.1H42c0.1,0,0.1,0,0.1-0.1c0.1,0,0.1-0.1,0.1-0.1c0-0.1,0.1-0.1,0.1-0.2h0.2v2.1h-0.2L42.4,51.7
		C42.4,51.7,42.4,51.7,42.4,51.7z M29.6,53.3v-2.2h1.5v0.2h-1.3v0.7H31v0.2h-1.2v0.8h1.3v0.3L29.6,53.3
		C29.6,53.4,29.6,53.3,29.6,53.3z M31.7,52.7c0,0.1,0,0.1,0.1,0.2s0.1,0.1,0.1,0.1s0.1,0.1,0.2,0.1h0.3h0.3c0.1,0,0.1-0.1,0.1-0.1
		s0.1-0.1,0.1-0.1v-0.1c0-0.1,0-0.1-0.1-0.2c0-0.1-0.1-0.1-0.1-0.1c-0.1,0-0.1-0.1-0.2-0.1l-0.3-0.1c-0.1,0-0.1,0-0.3-0.1
		c-0.1,0-0.1-0.1-0.2-0.1s-0.1-0.1-0.1-0.1s-0.1-0.1-0.1-0.3c0-0.1,0-0.1,0.1-0.2c0-0.1,0.1-0.1,0.1-0.1c0.1-0.1,0.1-0.1,0.3-0.1
		c0.1-0.1,0.2,0,0.4,0c0.1,0,0.3,0,0.4,0.1c0.1,0.1,0.1,0.1,0.3,0.1c0.1,0.1,0.1,0.1,0.1,0.1v0.2h-0.2v-0.2c0-0.1-0.1-0.1-0.1-0.1
		c-0.1,0-0.1-0.1-0.1-0.1h-0.2h-0.3c-0.1,0-0.1,0.1-0.1,0.1c0,0-0.1,0.1-0.1,0.1v0.1c0,0.1,0,0.1,0.1,0.1C32,52,32,52,32.1,52
		l0.2,0.1l0.3,0.1c0.1,0,0.1,0,0.3,0.1c0.1,0,0.1,0.1,0.2,0.1c0.1,0,0.1,0.1,0.1,0.1c0,0.1,0.1,0.1,0.1,0.3c0,0.2-0.1,0.4-0.2,0.5
		c-0.1,0.1-0.4,0.1-0.6,0.1h-0.4c-0.1,0-0.2-0.1-0.3-0.1c-0.1-0.1-0.1-0.1-0.1-0.2S31.6,52.9,31.7,52.7L31.7,52.7L31.7,52.7
		L31.7,52.7z M33.7,51.2h1.7v0.2h-0.7v2h-0.2v-2h-0.7V51.2C33.7,51.2,33.7,51.2,33.7,51.2z M35.6,53.1l0.2-0.2l0.2,0.2l-0.2,0.2
		L35.6,53.1z M42.6,34.5v-1.6l0.4-0.1c0.3-0.1,0.4-0.2,0.4-0.5c0-0.1,0-0.2,0.1-0.3c0.1-0.1,0.1-0.3,0.1-0.4v-1.1
		c0-0.1-0.1-0.1-0.1-0.1c-0.2,0-0.5,0-0.7,0.1l-3.4,1.1h-0.2l-0.2-0.2c-0.6,0.5-1.3,0.9-2,1c-0.6,0.1-1.4,0.1-2-0.1l-3.2-0.7
		c-0.3-0.1-0.6,0-1,0l-0.1,0.1c-0.4,0.9-1.1,1.4-1.8,2l-2.4,1.7c-1,0.7-1.7,1.8-2.2,3c-0.4,0.8-0.6,1.7-0.9,2.5
		c-0.1,0.4-0.4,0.8-0.7,1.1c-0.1,0-0.1,0.1-0.2,0.1l-0.1-1.4c0-0.1,0-0.2,0.1-0.3c0.3-0.1,0.5-0.6,0.4-0.9c0.7-0.5,0.9-1.2,1.2-2
		c0.1-0.6,0.2-1.2,0.3-1.7c0.4-0.1,0.8-0.4,1.1-0.7c0.6-0.6,0.9-1.4,0.6-2.3l0,0c0-0.6-0.1-1.2,0-1.9c0-0.6,0.2-1.1,0.3-1.7
		c-0.3-0.4-0.6,0-0.9,0.1c-0.5,0.3-0.8,0.8-1.2,1.2c-0.6,1.2-1,2.5-1.3,3.7l-0.3,1.2c0,0,0,0.1-0.1,0.1l-0.4-1l-0.4-0.9
		c-0.1-0.1-0.1-0.3,0-0.4c0.2-0.3,0.4-0.6,0.5-1c0.4-0.6,0.8-1.3,1.3-1.9c0.6-0.8,1.4-1.4,2.3-1.8c0.3-0.1,0.6-0.2,0.9-0.4
		c0.2-0.1,0.4-0.2,0.6-0.4c0.7-0.5,1.4-0.9,2.3-0.9c0.6-0.1,1.2-0.1,1.7-0.1c0.1,0,0.4,0,0.5,0.1c0.2,0.1,0.2,0,0.3-0.1
		c0-0.1,0.1-0.3,0.1-0.4s0.1-0.2,0.2-0.1c0.3,0.1,0.3,0,0.4-0.3c0-0.1,0.1-0.3,0.1-0.4c0.5,0.3,1.2,0.4,1.7,0.3
		c-0.1-0.1-0.1-0.4-0.2-0.5c-0.1-0.3-0.4-0.6-0.3-0.9c0-0.1-0.1-0.1-0.1-0.2c0-0.1-0.1-0.1-0.1-0.2c0.5-1.2,1.3-2,2.5-2.5l1.9-0.6
		c0.3-0.1,0.3-0.1,0.3-0.4c-0.1-0.9,0.4-1.4,1.2-1.4c0.4,0,0.6,0.2,0.9,0.6c0.1,0.2,0.1,0.5,0.4,0.6h-0.1c-0.4,0.1-0.4,0.2-0.3,0.6
		c0,0.1,0.1,0.1-0.1,0.3c-0.1,0-0.1,0.2-0.1,0.3c-0.1,0.3-0.1,0.3-0.4,0.1c-0.1-0.1-0.2-0.1-0.3-0.1c-0.1,0.1-0.2,0.3-0.4,0.4
		c-0.1,0.1-0.2,0.3-0.1,0.5c0.1,0.3,0,0.6,0.1,0.8c0.1,0.4,0.4,0.6,0.5,0.9c0.7-0.2,1.4-0.4,2-0.5c0.7-0.1,1.4-0.1,2.2,0
		c1,0.1,1.9,0.4,2.8,0.8c0.1,0.1,0.3,0.1,0.4,0h0.4c0.4,0,0.6-0.1,1-0.1H49c-0.1,0.1-0.1,0.1-0.1,0.1c-0.1,0.1-0.3,0.3-0.5,0.4
		c-0.1,0.1-0.1,0.1-0.1,0.3l0.3,1.8c0.1,0.6,0.3,1.3,0.4,1.9c0,0.3,0.1,0.6-0.3,0.7c-0.1,0-0.2,0.1-0.3,0.2
		c-0.2,0.1-0.7,0.1-0.9-0.1v-0.1c0.1-0.4-0.1-0.6-0.3-0.8c-0.1-0.1-0.2-0.3-0.4-0.5c-0.1-0.1-0.2-0.2-0.3-0.2
		c-0.6-0.2-1-0.6-1.1-1.4l-0.5,0.1c-0.7,0.2-1.4,0.6-1.9,1.1c-0.1,0.1-0.2,0.4-0.3,0.6c-0.1,0.5-0.1,0.9,0,1.4
		c0,0.1,0.1,0.1,0.2,0.1l1.9-0.1L44.6,32c-0.1,0.6-0.3,1.2-0.8,1.7c-0.3,0.3-0.6,0.5-0.8,0.8C42.7,34.5,42.6,34.5,42.6,34.5
		L42.6,34.5z M37.7,23.4c-0.4,0.3-0.6,0.9-1.2,0.9l0.2,0.4c0.1-0.1,0.2-0.2,0.4-0.3c0.4-0.3,0.4-0.3,0.7,0c0.1,0.1,0.1,0.1,0.3,0.1
		c0.3-0.1,0.5-0.2,0.8-0.3C38.5,24,38,24,37.7,23.4z"/>
</g>
</svg>
