<?xml version="1.0" encoding="utf-8"?>
<svg version="1.1" id="Layer_1" xmlns="http://www.w3.org/2000/svg" xmlns:xlink="http://www.w3.org/1999/xlink" x="0px" y="0px"
	width="100px" height="100px" viewBox="0 0 100 100" style="enable-background:new 0 0 100 100;" xml:space="preserve">
<g>
	<path style="fill:#E8E8E8;" d="M50,0c27.61,0,50,22.39,50,50s-22.39,50-50,50S0,77.61,0,50S22.39,0,50,0"/>
	<path style="fill:#FFFFFF;" d="M50,1c27.06,0,49,21.94,49,49S77.06,99,50,99S1,77.06,1,50S22.94,1,50,1"/>
	<g>
		<path style="fill:#004EA2;" d="M10.09,57.22H23.6V42.78H10.09V57.22z M11.18,43.89h11.31v12.25H11.18V43.89z"/>
		<path style="fill:#E60012;" d="M16.17,52.35c-0.13-0.14-3.21-3.27-3.45-3.52c-0.18-0.18-0.66-0.18-0.66,0.3v5.63
			c0,0.25,0.2,0.44,0.44,0.44h3.54c0.25,0,0.43-0.19,0.43-0.44v-1.87C16.47,52.67,16.47,52.65,16.17,52.35z M21.59,49.13
			c0-0.48-0.47-0.48-0.65-0.3c-0.25,0.25-3.32,3.38-3.45,3.52c-0.3,0.29-0.3,0.33-0.3,0.54v1.87c0,0.25,0.2,0.44,0.44,0.44
			l3.54,0.03c0.24,0,0.44-0.2,0.44-0.44C21.61,54.79,21.59,49.13,21.59,49.13z M20.17,47.94c0,0-1.93-1.91-3.24-3.22
			c-1.27,1.27-3.36,3.33-3.65,3.63c0.69,0.69,3.24,3.25,3.24,3.25c0.17,0.16,0.44,0.16,0.61,0l3.04-3.05
			C20.34,48.39,20.34,48.12,20.17,47.94z"/>
		<g>
			<path style="fill:#004EA2;" d="M38,45.99l-3.83,11.23h2.21l0.01-0.02l2.87-8.41l2.84,8.43h2.27l-3.84-11.23
				C40.53,45.99,38,45.99,38,45.99z M61.53,45.99L57.7,57.22h2.21l0.01-0.02l2.88-8.41l2.84,8.43h2.27l-3.86-11.23H61.53z
				 M86.05,45.99h-2.52L79.7,57.22h2.21l0.01-0.02l2.87-8.41l2.84,8.43h2.28L86.05,45.99z M51.02,54.3l-2.76-8.31H45.7v11.23h2.04
				v-6.5l2.15,6.5h2.21l2.21-6.46v6.46h2V45.99h-2.58L51.02,54.3z M75.94,45.99h-6.78v11.23h6.16c0.43-0.02,4.37-0.3,4.37-5.63
				C79.69,46.22,75.94,45.99,75.94,45.99z M75.39,55.26c-0.06-0.01-2.41,0-4.2,0v-7.35h4.4c0.21,0.01,1.93,0.5,1.93,3.69
				C77.51,54.9,75.52,55.24,75.39,55.26z M28.68,42.78l3.66,6.28l-0.38,0.63l-4.04-6.91h-3.17l4.73,8.13v6.3h3.16v-6.28l4.79-8.15
				C37.43,42.78,28.68,42.78,28.68,42.78z"/>
			<path style="fill:#E60012;" d="M28.68,42.78l3.66,6.28l3.7-6.28H28.68z"/>
		</g>
	</g>
</g>
</svg>
