<?xml version="1.0" encoding="utf-8"?>
<svg version="1.1" id="Layer_1" xmlns="http://www.w3.org/2000/svg" xmlns:xlink="http://www.w3.org/1999/xlink" x="0px" y="0px"
	 viewBox="0 0 283.46 47.83" style="enable-background:new 0 0 283.46 47.83;" xml:space="preserve">
<g id="Artwork">
	<path style="fill:#003B7E;" d="M259.62,12.27c5.49-0.03,10.26,3.78,11.44,9.15c0.06,0.27,0.3,0.46,0.58,0.46h11.23
		c0.33,0,0.59-0.26,0.59-0.59c0,0,0,0,0,0c0-4.79-5.41-21.28-23.85-21.28c-18.44,0-23.85,16.49-23.85,21.28
		c0,0.33,0.26,0.59,0.59,0.59c0,0,0,0,0,0h11.23c0.28,0,0.52-0.19,0.58-0.46C249.35,16.05,254.12,12.24,259.62,12.27z"/>
	<path style="fill:#003B7E;" d="M259.62,35.57c5.49,0.03,10.26-3.78,11.44-9.15c0.06-0.27,0.3-0.46,0.58-0.46h11.23
		c0.33,0,0.59,0.26,0.59,0.59c0,0,0,0,0,0c0,4.79-5.41,21.29-23.85,21.29c-18.44,0-23.85-16.49-23.85-21.29
		c0-0.33,0.26-0.59,0.59-0.59c0,0,0,0,0,0h11.23c0.28,0,0.52,0.19,0.58,0.46C249.35,31.78,254.12,35.6,259.62,35.57z"/>
	<path style="fill:#003B7E;" d="M137.63,16.14h11.56c0.32,0,0.57,0.26,0.57,0.57c0,0,0,0,0,0v29.68c0,0.32-0.26,0.57-0.57,0.57l0,0
		h-11.56c-0.31,0-0.57-0.25-0.57-0.57c0,0,0,0,0,0V16.71C137.06,16.4,137.32,16.14,137.63,16.14L137.63,16.14z"/>
	<path style="fill:#003B7E;" d="M123.29,0.87h40.25c0.32,0,0.57,0.26,0.57,0.57c0,0,0,0,0,0V11.5c0,0.32-0.26,0.57-0.57,0.57l0,0
		h-40.25c-0.32,0-0.57-0.26-0.57-0.57V1.44C122.72,1.13,122.97,0.87,123.29,0.87L123.29,0.87z"/>
	<path style="fill:#003B7E;" d="M86.27,18.88h16.9c0.31,0,0.57,0.26,0.57,0.57c0,0,0,0,0,0v8.93c0,0.32-0.26,0.57-0.57,0.57l0,0
		h-16.9c-0.31,0-0.57-0.26-0.57-0.57v-8.93C85.7,19.14,85.96,18.88,86.27,18.88L86.27,18.88z"/>
	<path style="fill:#003B7E;" d="M105.81,35.77H81.7v-23.7h23.79c0.32,0,0.57-0.26,0.57-0.57V1.44c0-0.32-0.25-0.57-0.57-0.57
		c0,0,0,0,0,0H69.56c-0.32,0-0.57,0.26-0.57,0.57c0,0,0,0,0,0v44.95c0,0.32,0.25,0.57,0.57,0.57c0,0,0,0,0,0h36.26
		c0.32,0,0.57-0.25,0.57-0.57c0,0,0,0,0,0V36.34C106.39,36.03,106.13,35.77,105.81,35.77C105.82,35.77,105.82,35.77,105.81,35.77z"
		/>
	<path style="fill:#003B7E;" d="M48.99,1c0-0.33-0.27-0.59-0.6-0.59c-0.11,0-0.21,0.03-0.31,0.09L24.5,14.85L0.9,0.49
		c-0.28-0.17-0.65-0.08-0.82,0.2C0.03,0.78,0,0.89,0,1v45.4c0,0.32,0.26,0.57,0.57,0.57c0,0,0,0,0,0h11.56
		c0.32,0,0.57-0.26,0.57-0.57c0,0,0,0,0,0V21.43l11.22,6.74c0.17,0.11,0.37,0.18,0.57,0.21c0.2-0.02,0.4-0.1,0.57-0.21
		c0,0,23.46-14.02,23.63-14.12c0.25-0.15,0.29-0.31,0.29-0.7C48.99,13.16,48.99,1,48.99,1z"/>
	<path style="fill:#F9AE00;" d="M48.69,19.13c-0.19-0.1-0.41-0.1-0.6,0.01L36.7,25.91c-0.28,0.16-0.41,0.32-0.41,0.8v19.68
		c0,0.31,0.25,0.57,0.57,0.57c0,0,0,0,0,0h11.56c0.32,0,0.57-0.26,0.57-0.57V19.65C48.99,19.43,48.87,19.24,48.69,19.13"/>
	<path style="fill:#003B7E;" d="M191.66,0.87h-11.51c-0.33,0-0.59,0.27-0.59,0.6v44.9c0,0.33,0.27,0.59,0.59,0.59c0,0,0,0,0,0h11.51
		c0.33,0,0.59-0.26,0.59-0.59c0,0,0,0,0,0V1.47C192.26,1.14,191.99,0.87,191.66,0.87C191.66,0.87,191.66,0.87,191.66,0.87"/>
	<path style="fill:#003B7E;" d="M180.13,0.87h11.56c0.31,0,0.57,0.26,0.57,0.57v44.95c0,0.32-0.26,0.57-0.57,0.57l0,0h-11.56
		c-0.31,0-0.57-0.25-0.57-0.57V1.44C179.56,1.13,179.81,0.87,180.13,0.87L180.13,0.87z"/>
	<path style="fill:#003B7E;" d="M209.57,31c0,0,10.81-3.1,10.81-14.57c0-15.56-14.93-15.56-21.12-15.56h-2.35
		c-0.32,0-0.57,0.26-0.57,0.57V11.5c0,0.32,0.26,0.57,0.57,0.57h3.72c1.76,0,6.92,0.3,6.92,5.53c0,5.23-5.37,5.53-6.85,5.53h-3.79
		c-0.32,0-0.57,0.26-0.57,0.57v8.79c-0.02,0.32,0.07,0.63,0.26,0.89l8.98,13.32c0.11,0.16,0.3,0.26,0.49,0.26h13.31
		c0.33,0,0.59-0.26,0.59-0.59c0-0.12-0.04-0.24-0.1-0.34L209.57,31"/>
</g>
</svg>
