<?xml version="1.0"?>
<svg xmlns="http://www.w3.org/2000/svg" xmlns:xlink="http://www.w3.org/1999/xlink" xmlns:svgjs="http://svgjs.com/svgjs" version="1.1" width="512" height="512" x="0" y="0" viewBox="0 0 512 512" style="enable-background:new 0 0 512 512" xml:space="preserve" class=""><g><path xmlns="http://www.w3.org/2000/svg" d="m512 256c0 141.386719-114.613281 256-256 256s-256-114.613281-256-256 114.613281-256 256-256 256 114.613281 256 256zm0 0" fill="#f1f1f1" data-original="#ff328e" style="" class=""/><path xmlns="http://www.w3.org/2000/svg" d="m512 256c0-23.921875-3.289062-47.070312-9.425781-69.03125l-94.777344-94.777344c-15.929687-15.929687-57.640625-.578125-116.382813 53.714844l-157.277343-69.828125-24.039063 24.039063 118.160156 116.292968-71.609374 105.042969-75.109376-24.277344-36.578124 20.675781 193.535156 193.539063c5.785156.390625 11.621094.609375 17.503906.609375 141.386719 0 256-114.613281 256-256zm0 0" fill="#f1f1f1" data-original="#c50a5b" style="" class=""/><path xmlns="http://www.w3.org/2000/svg" d="m399.875 389.890625 24.039062-24.039063-69.832031-157.273437c54.292969-58.742187 69.644531-100.457031 53.714844-116.386719-15.929687-15.929687-57.640625-.578125-116.382813 53.714844l-157.277343-69.828125-24.039063 24.039063 129.425782 99.765624-82.875 121.570313-75.109376-24.277344-36.578124 20.675781 86.082031 51.09375 51.09375 86.085938 20.675781-36.582031-24.277344-75.109375 121.570313-82.871094zm0 0" fill="#ffffff" data-original="#ffffff" style="" class=""/><path xmlns="http://www.w3.org/2000/svg" d="m300.109375 260.46875-121.566406 82.871094 24.265625 75.109375-20.675782 36.585937-51.085937-86.089844 276.753906-276.753906c15.929688 15.929688.578125 57.640625-53.71875 116.382813l69.824219 157.28125-24.035156 24.035156zm0 0" fill="#fff5cb" data-original="#fff5cb" style="" class=""/><path xmlns="http://www.w3.org/2000/svg" d="m120.667969 89.546875-10.570313 10.570313 129.425782 99.769531c5.0625-5.871094 10.214843-11.671875 15.421874-17.339844zm0 0" fill="#00f8fe" data-original="#00f8fe" style=""/><path xmlns="http://www.w3.org/2000/svg" d="m399.875 389.890625 10.570312-10.570313-93-134.277343c-5.671874 5.207031-11.46875 10.359375-17.339843 15.425781zm0 0" fill="#00d9e0" data-original="#00d9e0" style=""/></g></svg>
