<?xml version="1.0"?>
<svg xmlns="http://www.w3.org/2000/svg" xmlns:xlink="http://www.w3.org/1999/xlink" xmlns:svgjs="http://svgjs.com/svgjs" version="1.1" width="512" height="512" x="0" y="0" viewBox="0 0 512 512" style="enable-background:new 0 0 512 512" xml:space="preserve" class=""><g><path xmlns="http://www.w3.org/2000/svg" d="m512 256c0 141.386719-114.613281 256-256 256s-256-114.613281-256-256 114.613281-256 256-256 256 114.613281 256 256zm0 0" fill="#f1f1f1" data-original="#99503d" style="" class=""/><path xmlns="http://www.w3.org/2000/svg" d="m278.691406 98.5-42.5-42.5-52.121094 52.121094 34.738282 34.734375-51.753906 51.753906 125.304687 125.304687-10.660156 10.65625-51.148438-51.148437-42.40625 42.40625-42.40625-42.40625-52.121093 52.121094 33.957031 33.957031-52.488281 52.488281 67.617187 67.617188c34.15625 16.886719 72.613281 26.394531 113.296875 26.394531 141.386719 0 256-114.613281 256-256 0-3.144531-.078125-6.265625-.1875-9.382812l-190.621094-190.617188zm0 0" fill="#f1f1f1" data-original="#804231" style="" class=""/><path xmlns="http://www.w3.org/2000/svg" d="m193.796875 56h42.421875v53.027344h-42.421875zm0 0" fill="#ff5ca8" data-original="#ff5ca8" style="" class=""/><path xmlns="http://www.w3.org/2000/svg" d="m278.640625 56h42.421875v53.027344h-42.421875zm0 0" fill="#ff3997" data-original="#ff3997" style=""/><path xmlns="http://www.w3.org/2000/svg" d="m166.929688 88.523438h179.300781v106.054687h-179.300781zm0 0" fill="#ff9ac9" data-original="#ff9ac9" style="" class=""/><path xmlns="http://www.w3.org/2000/svg" d="m283.589844 279.421875h42.421875v53.027344h-42.421875zm0 0" fill="#fdbf00" data-original="#fdbf00" style=""/><path xmlns="http://www.w3.org/2000/svg" d="m368.433594 279.421875h42.421875v53.027344h-42.421875zm0 0" fill="#ff9f00" data-original="#ff9f00" style="" class=""/><path xmlns="http://www.w3.org/2000/svg" d="m437.015625 311.238281v106.761719h-179.585937l-17.253907-22.058594 1.699219-60.3125 15.554688-24.390625zm0 0" fill="#ffe470" data-original="#ffe470" style="" class=""/><path xmlns="http://www.w3.org/2000/svg" d="m256.085938 88.523438h90.144531v106.054687h-90.144531zm0 0" fill="#ff7cb9" data-original="#ff7cb9" style=""/><path xmlns="http://www.w3.org/2000/svg" d="m103.296875 279.421875h42.421875v53.027344h-42.421875zm0 0" fill="#25d9f8" data-original="#25d9f8" style=""/><path xmlns="http://www.w3.org/2000/svg" d="m188.140625 279.421875h42.421875v53.027344h-42.421875zm0 0" fill="#00c0f1" data-original="#00c0f1" style=""/><path xmlns="http://www.w3.org/2000/svg" d="m75.085938 311.238281h182.34375v106.761719h-182.34375zm0 0" fill="#a8ebfa" data-original="#a8ebfa" style=""/><path xmlns="http://www.w3.org/2000/svg" d="m166.929688 311.238281h90.5v106.761719h-90.5zm0 0" fill="#76e2f8" data-original="#76e2f8" style="" class=""/><path xmlns="http://www.w3.org/2000/svg" d="m347.222656 311.238281h89.792969v106.761719h-89.792969zm0 0" fill="#ffd400" data-original="#ffd400" style=""/></g></svg>
