<?xml version="1.0"?>
<svg xmlns="http://www.w3.org/2000/svg" xmlns:xlink="http://www.w3.org/1999/xlink" xmlns:svgjs="http://svgjs.com/svgjs" version="1.1" width="512" height="512" x="0" y="0" viewBox="0 0 512 512" style="enable-background:new 0 0 512 512" xml:space="preserve" class=""><g>
<circle xmlns="http://www.w3.org/2000/svg" style="" cx="256" cy="256" r="256" fill="#f1f1f1" data-original="#ffe45c" class=""/>
<path xmlns="http://www.w3.org/2000/svg" style="" d="M512,256c0-11.429-0.76-22.679-2.212-33.712L415,127.5L97,186l191.733,191.733L97,417l83.752,83.752  C204.545,508.059,229.812,512,256,512C397.385,512,512,397.385,512,256z" fill="#f1f1f1" data-original="#ffbc36" class=""/>
<rect xmlns="http://www.w3.org/2000/svg" x="115.33" y="151" style="" width="281.33" height="261.33" fill="#78938c" data-original="#78938c" class=""/>
<g xmlns="http://www.w3.org/2000/svg">
	<rect x="256" y="151" style="" width="140.67" height="261.33" fill="#425e61" data-original="#425e61" class=""/>
	<path style="" d="M351,412.333H161V313c0-52.467,42.533-95,95-95l0,0c52.467,0,95,42.533,95,95V412.333z" fill="#425e61" data-original="#425e61" class=""/>
</g>
<path xmlns="http://www.w3.org/2000/svg" style="" d="M351,313c0-52.467-42.533-95-95-95l0,0c-0.143,0-0.285,0.005,0,0.005v194.328h95V313z" fill="#364849" data-original="#364849" class=""/>
<rect xmlns="http://www.w3.org/2000/svg" x="97" y="127.5" style="" width="318" height="58.5" fill="#425e61" data-original="#425e61" class=""/>
<rect xmlns="http://www.w3.org/2000/svg" x="255.96" y="127.5" style="" width="159.04" height="58.5" fill="#364849" data-original="#364849" class=""/>
<path xmlns="http://www.w3.org/2000/svg" style="" d="M298.439,315.167c0,0-4.438,5.94-9.878,14.168C276.022,304.959,256,278.165,256,278.165  s-20.022,26.794-32.561,51.169c-5.44-8.228-9.878-14.168-9.878-14.168s-29.638,39.662-29.638,56.031s13.269,29.638,29.638,29.638  c7.284,0,13.95-2.632,19.111-6.991c6.695,4.415,14.709,6.991,23.328,6.991c8.619,0,16.633-2.577,23.328-6.991  c5.16,4.359,11.827,6.991,19.111,6.991c16.369,0,29.638-13.269,29.638-29.638S298.439,315.167,298.439,315.167z" fill="#f84f24" data-original="#f84f24" class=""/>
<path xmlns="http://www.w3.org/2000/svg" style="" d="M255.571,400.827c0.143,0.001,0.285,0.008,0.429,0.008c8.619,0,16.633-2.577,23.328-6.991  c5.16,4.359,11.827,6.991,19.111,6.991c16.369,0,29.638-13.269,29.638-29.638s-29.638-56.031-29.638-56.031  s-4.438,5.94-9.878,14.168C276.022,304.959,256,278.165,256,278.165L255.571,400.827z" fill="#db2b0e" data-original="#db2b0e" class=""/>
<rect xmlns="http://www.w3.org/2000/svg" x="97" y="374.5" style="" width="318" height="42.5" fill="#364849" data-original="#364849" class=""/>
<rect xmlns="http://www.w3.org/2000/svg" x="255.57" y="374.5" style="" width="159.43" height="42.5" fill="#2a3838" data-original="#2a3838" class=""/>
<g xmlns="http://www.w3.org/2000/svg">
</g>
<g xmlns="http://www.w3.org/2000/svg">
</g>
<g xmlns="http://www.w3.org/2000/svg">
</g>
<g xmlns="http://www.w3.org/2000/svg">
</g>
<g xmlns="http://www.w3.org/2000/svg">
</g>
<g xmlns="http://www.w3.org/2000/svg">
</g>
<g xmlns="http://www.w3.org/2000/svg">
</g>
<g xmlns="http://www.w3.org/2000/svg">
</g>
<g xmlns="http://www.w3.org/2000/svg">
</g>
<g xmlns="http://www.w3.org/2000/svg">
</g>
<g xmlns="http://www.w3.org/2000/svg">
</g>
<g xmlns="http://www.w3.org/2000/svg">
</g>
<g xmlns="http://www.w3.org/2000/svg">
</g>
<g xmlns="http://www.w3.org/2000/svg">
</g>
<g xmlns="http://www.w3.org/2000/svg">
</g>
</g></svg>
