<?xml version="1.0" encoding="utf-8"?>
<svg version="1.1" id="Layer_1" xmlns="http://www.w3.org/2000/svg" xmlns:xlink="http://www.w3.org/1999/xlink" x="0px" y="0px"
	 viewBox="0 0 191.7 43.28" style="enable-background:new 0 0 191.7 43.28;" xml:space="preserve">
<g>
	<title>Layer 1</title>
	<g id="svg_9">
		<path id="svg_2" style="fill:#231F20;" d="M0,32.81c1.66,0.52,5.58,1.31,7.24,1.31c2.44,0,5.06-0.52,5.06-5.58V0.61h9.86v27.4
			c0,8.9-4.28,15.27-15.1,15.27c-2.44,0-4.8-0.79-7.07-1.31V32.81"/>
		<path id="svg_3" style="fill:#231F20;" d="M26.18,0.61h22.69v6.11H34.73v6.54H47.9v6.11H34.73v7.24h14.48v5.93H26.18V0.52"/>
		<path id="svg_4" style="fill:#231F20;" d="M53.4,24.78c2.27,1.13,5.24,2.01,8.9,2.01c2.62,0,5.24-0.52,5.24-2.97
			c0-6.11-15.27-2.27-15.27-13.96C52.27,2.01,59.86,0,66.23,0c3.14,0,6.11,0.35,8.38,1.13l-0.52,6.72
			c-2.27-0.96-4.62-1.48-7.07-1.48c-2.27,0-5.76,0.17-5.76,2.97c0,5.24,15.1,1.66,15.1,13.44c0,8.2-6.89,10.38-13.96,10.38
			c-3.14,0-6.89-0.35-9.69-1.31l0.79-7.07"/>
		<path id="svg_5" style="fill:#231F20;" d="M79.4,24.78c2.27,1.13,5.41,2.01,8.9,2.01c2.62,0,5.24-0.52,5.24-2.97
			c0-6.11-15.1-2.27-15.1-13.96C78.44,2.01,85.86,0,92.4,0c2.97,0,6.11,0.35,8.2,1.13l-0.52,6.72c-2.27-0.96-4.62-1.48-7.07-1.48
			c-2.27,0-5.76,0.17-5.76,2.97c0,5.24,15.27,1.66,15.27,13.44c0,8.2-7.07,10.38-14.14,10.38c-2.97,0-6.72-0.35-9.69-1.31l0.79-7.07
			"/>
		<path id="svg_6" style="fill:#231F20;" d="M168.75,24.78c2.27,1.13,5.24,2.01,8.73,2.01c2.79,0,5.41-0.52,5.41-2.97
			c0-6.11-15.27-2.27-15.27-13.96c0-7.85,7.59-9.86,13.96-9.86c3.14,0,6.11,0.35,8.38,1.13l-0.52,6.72
			c-2.27-0.96-4.62-1.48-7.24-1.48c-2.01,0-5.58,0.17-5.58,2.97c0,5.24,15.1,1.66,15.1,13.44c0,8.2-6.89,10.38-14.14,10.38
			c-2.97,0-6.72-0.35-9.51-1.31l0.79-7.07"/>
		<path id="svg_7" style="fill:#231F20;" d="M113.87,16.84c0-5.58,2.01-10.21,7.24-10.21c5.24,0,7.24,4.62,7.24,10.21
			c0,5.24-2.01,10.21-7.24,10.21C115.88,27.05,113.87,21.99,113.87,16.84z M104.97,16.84c0,10.21,5.76,16.58,16.23,16.58
			c10.38,0,15.97-6.37,15.97-16.58c0-10.38-5.41-16.58-15.97-16.58C110.55,0.26,104.97,6.37,104.97,16.84"/>
		<path id="svg_8" style="fill:#231F20;" d="M149.03,6.81h2.27c2.97,0,5.24,0.96,5.24,4.28c0,3.32-2.27,4.28-5.24,4.28h-2.27V6.81z
			 M140.48,32.9h8.55V21.55h3.32c8.03,0,12.65-3.93,12.65-10.21c0-7.24-4.45-10.65-14.31-10.65h-10.21V32.9"/>
	</g>
</g>
</svg>
