<svg xmlns="http://www.w3.org/2000/svg" viewBox="0 0 177.6 34.8"><path d="M173.5 34.7h-2c0-16.2-13.4-29.4-29.8-29.4v-2c17.5 0 31.8 14.1 31.8 31.4zm1.4-10.8c-2.4-10.2-10.6-18.6-21-21.6l.5-1.6c10.9 3.1 19.5 12.1 22.1 22.8l-1.6.4zm1.5-9.5c-2.5-5.4-6.7-10.1-11.9-13.3l.7-1.1c5.4 3.3 9.9 8.2 12.4 13.9l-1.2.5z" fill="#cb3032"/><path d="M.8 30.1c.9.5 2.8 1.2 4.2 1.2 1.5 0 2.1-.5 2.1-1.3s-.5-1.2-2.3-1.8C1.5 27.1.3 25.3.3 23.4c0-2.9 2.5-5.2 6.5-5.2 1.8 0 3.5.4 4.5.9l-.9 3.4a7.66 7.66 0 0 0-3.4-.9c-1.2 0-1.9.5-1.9 1.3 0 .7.6 1.1 2.6 1.8 3 1 4.3 2.6 4.3 4.9 0 3-2.3 5.1-6.9 5.1-2.1 0-3.9-.5-5.1-1.1l.8-3.5zm28.5-3.8c0 5.8-4.1 8.5-8.4 8.5-4.6 0-8.2-3-8.2-8.2s3.4-8.4 8.5-8.4c4.8 0 8.1 3.3 8.1 8.1zm-11.5.1c0 2.7 1.1 4.8 3.2 4.8 1.9 0 3.1-1.9 3.1-4.8 0-2.4-.9-4.8-3.1-4.8-2.3.1-3.2 2.5-3.2 4.8zM31 23.6l-.1-5.1h4.3l.2 2.2h.1c.6-1 2.3-2.5 4.9-2.5 3.2 0 5.7 2.1 5.7 6.8v9.4h-4.9v-8.8c0-2-.7-3.4-2.5-3.4-1.4 0-2.2.9-2.5 1.8-.2.3-.2.8-.2 1.2v9.1h-5V23.6zm26.8 10.8l-.3-1.6h-.1c-1 1.3-2.7 1.9-4.5 1.9-3.2 0-5.1-2.3-5.1-4.9 0-4.1 3.7-6.1 9.3-6.1v-.2c0-.8-.5-2-2.9-2-1.6 0-3.3.6-4.4 1.2l-.9-3.2c1.1-.6 3.3-1.4 6.2-1.4 5.3 0 7 3.1 7 6.8v5.5c0 1.5.1 3 .2 3.9h-4.5v.1zm-.6-7.5c-2.6 0-4.6.6-4.6 2.5 0 1.3.8 1.9 1.9 1.9 1.2 0 2.2-.8 2.6-1.8.1-.3.1-.6.1-.8v-1.8zm7.4-3.2l-.1-5.2h4.2l.2 2.9h.1c.8-2.3 2.8-3.3 4.3-3.3.5 0 .7 0 1 .1v4.6c-.3 0-.8-.1-1.3-.1-1.8 0-3 1-3.4 2.5-.1.3-.1.7-.1 1.1v8h-4.9V23.7zm11 7.8c.8.5 2.3 1.1 3.8 1.1 2.1 0 3-1 3-2.3 0-1.4-.8-2.1-2.9-2.9-2.8-1-4.2-2.6-4.2-4.4 0-2.5 2-4.6 5.4-4.6a8.25 8.25 0 0 1 3.9 1l-.7 2.1c-.6-.4-1.8-.9-3.2-.9-1.7 0-2.6 1-2.6 2.1 0 1.3.9 1.9 3 2.7 2.7 1 4.1 2.4 4.1 4.7 0 2.8-2.1 4.7-5.9 4.7-1.7 0-3.3-.4-4.4-1.1l.7-2.2zm26.2-5.1c0 5.8-4 8.3-7.8 8.3-4.2 0-7.5-3.1-7.5-8.1 0-5.3 3.4-8.3 7.8-8.3s7.5 3.3 7.5 8.1zm-12.5.2c0 3.4 2 6 4.8 6 2.7 0 4.8-2.6 4.8-6.1 0-2.7-1.3-6-4.7-6s-4.9 3.1-4.9 6.1zm27.9 3.5l.1 4.3h-2.5l-.2-2.6h-.1c-.7 1.3-2.4 2.9-5.2 2.9-2.5 0-5.4-1.4-5.4-6.9v-9.2h2.9v8.7c0 3 .9 5 3.5 5 1.9 0 3.2-1.3 3.8-2.6.2-.4.3-.9.3-1.5v-9.6h2.9v11.5h-.1zm3.4-6.5l-.1-4.9h2.5l.1 3.1h.1c.7-2.1 2.4-3.4 4.3-3.4.3 0 .6 0 .8.1v2.7c-.3-.1-.6-.1-1-.1-2 0-3.4 1.5-3.8 3.7-.1.4-.1.8-.1 1.3v8.4h-2.8V23.6zm20.2 10.2c-.7.4-2.4.9-4.5.9-4.7 0-7.8-3.2-7.8-8s3.3-8.3 8.4-8.3c1.7 0 3.2.4 4 .8l-.7 2.2c-.7-.4-1.7-.7-3.3-.7-3.6 0-5.5 2.7-5.5 5.9 0 3.6 2.3 5.9 5.4 5.9 1.6 0 2.7-.4 3.5-.8l.5 2.1zm3.5-6.8c.1 3.9 2.5 5.5 5.4 5.5 2 0 3.3-.4 4.3-.8l.5 2c-1 .5-2.7 1-5.2 1-4.8 0-7.7-3.2-7.7-7.9s2.8-8.5 7.4-8.5c5.1 0 6.5 4.5 6.5 7.4 0 .6-.1 1-.1 1.3h-11.1zm8.3-2c0-1.8-.7-4.6-4-4.6-2.9 0-4.2 2.7-4.4 4.6h8.4z" fill="#1b171b"/></svg>