<?xml version="1.0"?>
<svg xmlns="http://www.w3.org/2000/svg" xmlns:xlink="http://www.w3.org/1999/xlink" xmlns:svgjs="http://svgjs.com/svgjs" version="1.1" width="512" height="512" x="0" y="0" viewBox="0 0 512 512" style="enable-background:new 0 0 512 512" xml:space="preserve" class=""><g>
<circle xmlns="http://www.w3.org/2000/svg" style="" cx="256" cy="256" r="256" fill="#f1f1f1" data-original="#b6e1f7" class=""/>
<path xmlns="http://www.w3.org/2000/svg" style="" d="M512,256c0-21.309-2.621-42.003-7.527-61.794l-79.515-79.515h-53.625l-7-8.333h-26v8.333H182.167  l-8.5-8.333h-26v8.333H87.042v26.5l27.108,24.836H105V403.32l104.445,104.445C224.543,510.538,240.1,512,256,512  C397.385,512,512,397.385,512,256z" fill="#f1f1f1" data-original="#7fc8f1" class=""/>
<rect xmlns="http://www.w3.org/2000/svg" x="87.04" y="114.69" style="" width="337.92" height="26.5" fill="#802897" data-original="#802897" class=""/>
<rect xmlns="http://www.w3.org/2000/svg" x="256" y="114.69" style="" width="168.96" height="26.5" fill="#451152" data-original="#451152" class=""/>
<rect xmlns="http://www.w3.org/2000/svg" x="147.67" y="106.36" style="" width="26" height="67.33" fill="#ffffff" data-original="#ffffff" class=""/>
<rect xmlns="http://www.w3.org/2000/svg" x="338.33" y="106.36" style="" width="26" height="67.33" fill="#fff5cb" data-original="#fff5cb" class=""/>
<rect xmlns="http://www.w3.org/2000/svg" x="105" y="166.03" style="" width="302" height="237.29" fill="#fec000" data-original="#fec000" class=""/>
<rect xmlns="http://www.w3.org/2000/svg" x="256" y="166.02" style="" width="151" height="237.3" fill="#ff9a00" data-original="#ff9a00" class=""/>
<path xmlns="http://www.w3.org/2000/svg" style="" d="M368.5,195.934L368.5,195.934h-225l0,0c0,12.841-10.409,23.25-23.25,23.25l0,0V350.16l0,0  c12.841,0,23.25,10.409,23.25,23.25l0,0h225l0,0c0-12.841,10.409-23.25,23.25-23.25l0,0V219.184l0,0  C378.909,219.184,368.5,208.775,368.5,195.934z" fill="#c06200" data-original="#c06200" class=""/>
<path xmlns="http://www.w3.org/2000/svg" style="" d="M391.747,219.184v130.98c-6.42,0-12.23,2.6-16.44,6.81s-6.81,10.02-6.81,16.44h-112.5v-177.48h112.5  c0,6.42,2.6,12.23,6.81,16.44C379.517,216.583,385.326,219.184,391.747,219.184z" fill="#9a4c00" data-original="#9a4c00" class=""/>
<g xmlns="http://www.w3.org/2000/svg">
	<path style="" d="M174.88,294.174c0,1.658-0.331,3.113-0.995,4.364c-0.663,1.253-1.574,2.302-2.734,3.149   c-1.16,0.848-2.505,1.491-4.033,1.933c-1.529,0.442-3.158,0.663-4.889,0.663h-18.948v-39.221h20.992   c1.362,0,2.596,0.295,3.701,0.884c1.105,0.59,2.044,1.354,2.817,2.293s1.372,2.008,1.795,3.204   c0.423,1.197,0.635,2.403,0.635,3.618c0,1.915-0.479,3.71-1.436,5.386c-0.958,1.677-2.357,2.919-4.198,3.729   c2.246,0.663,4.023,1.85,5.331,3.563C174.225,289.451,174.88,291.597,174.88,294.174z M150.905,271.581v9.888h10.164   c1.289,0,2.384-0.442,3.287-1.326c0.902-0.884,1.354-2.1,1.354-3.646c0-1.51-0.414-2.707-1.243-3.591s-1.851-1.326-3.066-1.326   L150.905,271.581L150.905,271.581z M167.201,292.738c0-0.699-0.12-1.372-0.359-2.016c-0.24-0.644-0.562-1.206-0.967-1.685   c-0.405-0.478-0.884-0.856-1.436-1.133c-0.552-0.276-1.16-0.414-1.823-0.414h-11.711v10.331h11.324   c0.699,0,1.354-0.129,1.961-0.387c0.607-0.257,1.133-0.616,1.574-1.078c0.442-0.46,0.792-1.002,1.049-1.629   C167.072,294.101,167.201,293.437,167.201,292.738z" fill="#ffffff" data-original="#ffffff" class=""/>
	<path style="" d="M193.938,265.062h6.74l14.915,39.221h-7.844l-3.646-9.777h-13.7l-3.59,9.777h-7.844L193.938,265.062   z M202.721,289.147l-5.414-15.412l-5.634,15.412H202.721z" fill="#ffffff" data-original="#ffffff" class=""/>
	<path style="" d="M222.662,304.283v-39.165h7.623v18.616l16.462-18.672h8.396l-15.026,17.401l15.965,21.82h-8.562   l-12.208-16.959l-5.027,5.248v11.711L222.662,304.283L222.662,304.283z" fill="#ffffff" data-original="#ffffff" class=""/>
</g>
<g xmlns="http://www.w3.org/2000/svg">
	<path style="" d="M289.614,297.599v6.684H262.38v-39.221h26.737v6.684h-19.113v9.446h16.516v6.187h-16.516v10.219   h19.61V297.599z" fill="#fff5cb" data-original="#fff5cb" class=""/>
	<path style="" d="M298.341,304.283v-39.221h17.345c1.804,0,3.471,0.378,5,1.133c1.527,0.755,2.844,1.75,3.95,2.982   c1.105,1.235,1.97,2.634,2.596,4.198c0.625,1.566,0.939,3.14,0.939,4.723c0,2.541-0.635,4.852-1.906,6.933   c-1.27,2.081-2.992,3.581-5.165,4.502l8.948,14.749h-8.562l-8.01-13.147h-7.512v13.147h-7.623V304.283z M305.965,284.452h9.556   c0.699,0,1.354-0.166,1.961-0.498c0.608-0.331,1.133-0.782,1.574-1.353c0.442-0.571,0.791-1.243,1.049-2.016   c0.257-0.773,0.387-1.602,0.387-2.486c0-0.92-0.147-1.768-0.442-2.542c-0.296-0.773-0.691-1.445-1.188-2.016   c-0.497-0.57-1.068-1.012-1.712-1.326c-0.645-0.312-1.298-0.469-1.961-0.469h-9.225L305.965,284.452L305.965,284.452z" fill="#fff5cb" data-original="#fff5cb" class=""/>
	<path style="" d="M340.988,265.062l9.667,18.892l9.833-18.892h8.23l-14.252,25.522v13.7h-7.568v-13.81l-14.196-25.411   h8.286V265.062z" fill="#fff5cb" data-original="#fff5cb" class=""/>
</g>
<g xmlns="http://www.w3.org/2000/svg">
</g>
<g xmlns="http://www.w3.org/2000/svg">
</g>
<g xmlns="http://www.w3.org/2000/svg">
</g>
<g xmlns="http://www.w3.org/2000/svg">
</g>
<g xmlns="http://www.w3.org/2000/svg">
</g>
<g xmlns="http://www.w3.org/2000/svg">
</g>
<g xmlns="http://www.w3.org/2000/svg">
</g>
<g xmlns="http://www.w3.org/2000/svg">
</g>
<g xmlns="http://www.w3.org/2000/svg">
</g>
<g xmlns="http://www.w3.org/2000/svg">
</g>
<g xmlns="http://www.w3.org/2000/svg">
</g>
<g xmlns="http://www.w3.org/2000/svg">
</g>
<g xmlns="http://www.w3.org/2000/svg">
</g>
<g xmlns="http://www.w3.org/2000/svg">
</g>
<g xmlns="http://www.w3.org/2000/svg">
</g>
</g></svg>
