<svg id="Capa_1" enable-background="new 0 0 512.738 512.738" height="512" viewBox="0 0 512.738 512.738" width="512" xmlns="http://www.w3.org/2000/svg"><g><path d="m170.392 181.366h-95.39c-8.284 0-15 6.716-15 15s6.716 15 15 15h95.39c8.284 0 15-6.716 15-15s-6.716-15-15-15z"/><path d="m170.392 121.366h-95.39c-8.284 0-15 6.716-15 15s6.716 15 15 15h95.39c8.284 0 15-6.716 15-15s-6.716-15-15-15z"/><path d="m170.392 241.366h-95.39c-8.284 0-15 6.716-15 15s6.716 15 15 15h95.39c8.284 0 15-6.716 15-15s-6.716-15-15-15z"/><path d="m170.392 301.366h-95.39c-8.284 0-15 6.716-15 15s6.716 15 15 15h95.39c8.284 0 15-6.716 15-15s-6.716-15-15-15z"/><path d="m170.392 361.366h-95.39c-8.284 0-15 6.716-15 15s6.716 15 15 15h95.39c8.284 0 15-6.716 15-15s-6.716-15-15-15z"/><path d="m412.769 203.639c-9.602-8.757-25.114-1.936-25.108 11.09l.014 31.693h-36.295v-107.431c0-3.829-1.53-7.749-4.393-10.61l-95.992-95.981c-2.855-2.854-6.843-4.478-10.949-4.389h-225.046c-8.284 0-15 6.716-15 15v426.721c0 8.284 6.716 15 15 15h321.38c8.284 0 15-6.716 15-15v-113.31h36.3v31.7c0 13.094 15.56 19.787 25.107 11.084l95.06-86.681c6.522-5.947 6.519-16.221.001-22.167zm-157.379-124.422 44.776 44.771h-44.776zm65.99 375.514h-291.38v-396.721h195.39v80.978c0 8.284 6.716 15 15 15h80.99v92.435h-59.68c-8.284 0-15 6.716-15 15v80c0 8.284 6.716 15 15 15h59.68zm96.3-100.586v-12.723c0-8.284-6.716-15-15-15-3.244 0-122.741 0-125.98 0v-50h125.98c8.283 0 15.003-6.721 15-15.007l-.005-12.697 57.805 52.723z"/></g></svg>