<svg xmlns="http://www.w3.org/2000/svg" viewBox="0 0 293.86 82.75"><g fill="#19161e"><path d="M284.27,38.83a5.68,5.68,0,0,0-4.82-2.68,5.62,5.62,0,0,0-5.73,5.78,5.75,5.75,0,0,0,10.6,3.1h3.6a9.06,9.06,0,0,1-8.49,6.1,9.1,9.1,0,0,1-9.05-9.22,9,9,0,0,1,8.93-9.06A7.39,7.39,0,0,1,284.7,35V33.23h2.74v5.6h-3.18"/><path d="M287.17 47.35h3.08v3.43h-3.08zM118.91 48h1.91v2.79h-7.12V48h1.89V37.85l-4.82 12.94h-2.35l-4.97-12.94V48h2.03v2.79h-7.27V48h1.91V36.12h-1.91v-2.81h6.56l4.75 12.34 4.75-12.34h6.55v2.81h-1.91V48m11.87-10.85h0l-2.22 6H133l-2.2-6m2.13 11.18h1.94l-1-2.61h-6.14l-1 2.61h1.88v2.45h-7.12V48h1.86l5.08-11.9h-1.93v-2.79h5.85L138.42 48h1.86v2.79h-7.37v-2.45zm13.32-.33h1.88v2.79h-7.12V48h1.91V36.12h-1.91v-2.81h7.12v2.81h-1.88V48m2.59 0h1.91V36.12h-1.91v-2.81h7.12v2.81h-1.89V47.8h4.19v-2.31h3.32v5.3h-12.74V48m22.37-.13H173a4.34 4.34 0 0 0 2.42-.44 2.27 2.27 0 0 0 1-1.91 2.32 2.32 0 0 0-1-2 3.93 3.93 0 0 0-2.43-.51h-1.86v4.83m0-7.59h1.69a3.54 3.54 0 0 0 2.25-.44 2 2 0 0 0 .79-1.65 2 2 0 0 0-.9-1.73 3.88 3.88 0 0 0-2.11-.34h-1.71v4.16zM166 48h1.88V36.12H166v-2.81h7.76a5.7 5.7 0 0 1 3.62.93A4.14 4.14 0 0 1 179 37.7a4 4 0 0 1-2.28 3.72 4.66 4.66 0 0 1 3 4.52 5 5 0 0 1-1.64 3.69 5.69 5.69 0 0 1-4 1.16H166V48zm47.57 2.79h-7.17v-2.56h1.71l-3.13-4-3.16 4h1.74v2.56h-7.17V48h1.71l4.87-6.07-4.6-5.81h-1.78v-2.81h7.19v2.58h-1.62l2.82 3.72 2.81-3.72h-1.61v-2.58h7.22v2.81h-1.77l-4.69 5.81 4.84 6.07h1.79v2.79m.51-2.79h1.91V36.12h-1.91v-2.81h12.95v5.27h-3.33V36.3h-4.38v4.37h5.09v2.58h-5.09v4.62h4.38v-2.38h3.33v5.3h-12.95V48"/><path d="M230.65 45.6a2.53 2.53 0 0 0 2.59 2.66 2.37 2.37 0 0 0 2.57-2.38c0-1.76-1.64-2.19-3-2.58a9.3 9.3 0 0 1-3.43-1.5 4.59 4.59 0 0 1-1.89-3.8 5.18 5.18 0 0 1 5.29-5 3.78 3.78 0 0 1 3.11 1.34v-1h2.55V38h-3a2.25 2.25 0 0 0-2.28-2.27 2.19 2.19 0 0 0-2.37 2.19c0 1.71 1.52 2.07 2.86 2.46A10.76 10.76 0 0 1 237.4 42a4.58 4.58 0 0 1 1.74 3.66 5.35 5.35 0 0 1-5.53 5.48 4.17 4.17 0 0 1-3.35-1.47v1.14h-2.64V45.6h3m12.27 2.4h1.91V36.12h-1.91v-2.81h12.95v5.27h-3.33V36.3h-4.38v4.37h5.08v2.58h-5.08v4.62h4.38v-2.38h3.33v5.3h-12.95V48m22.56 0h1.91v2.79h-7.15V48h1.91V36.27h-2.57v2.56h-2.64v-5.52h13.75v5.52h-2.64v-2.56h-2.57V48m25.97-13.74c.37 0 1 .07 1-.49 0-.41-.36-.44-.69-.44h-.76v.93h.5m1.25 1.49h-.39l-.76-1.23h-.6v1.23h-.32v-2.67h1.17a1.34 1.34 0 0 1 .65.13.69.69 0 0 1 .3.59.74.74 0 0 1-.84.73zm.91-1.34a2.1 2.1 0 1 0-2.1 2.09 2.09 2.09 0 0 0 2.1-2.09m-4.49 0a2.39 2.39 0 1 1 2.39 2.4 2.38 2.38 0 0 1-2.39-2.4M183.6 47.28h10.49V36.8H183.6v10.48m-3.94-5.21a9.16 9.16 0 1 1 9.15 9.09 9.17 9.17 0 0 1-9.15-9.09M0 0h84.36v82.75H0z"/></g><path d="M60.54 11.78L59.2 11 28.42 9.89l-4.83 2.71 36.95-.82m9.34 8.05l-1-1-51.21-1.3-2.81 3.41 55-1.11M74.75 28l-.35-.83-62.67-1.25-1.43 3.28L74.75 28m-58.94 5l-6.5-.15A17.21 17.21 0 0 0 8.65 36l7.16-.1V33m53.75 2.01l7.22-.25-.03-.26-7.19-.16v.67m-53.75 4.86l-7.45-.15c0 .29-.09 1-.09 1.24v2l7.52-.13v-3m53.77 2.11l7.8-.21v-.36l-7.8-.16v.73M74.18 55l-.39.8-61.4 1.2a35.43 35.43 0 0 1-1.53-3.25L74.18 55m-4.62-6.28l6.86-.15.11-.37-6.97-.15v.67m-53.75 1.01l-6.14.1a10.47 10.47 0 0 1-.87-3.2l7 .16v2.94m22.26-2.27h1.92v2.76h-7.16v-2.76h1.89V37.44l-4.84 12.78H27.5l-4.99-12.78v10.02h2.05v2.76h-7.31v-2.76h1.91V35.74h-1.91v-2.76h6.59l4.77 12.15 4.77-12.15h6.6v2.76h-1.92v11.72m7.94-.13h1.8a4.65 4.65 0 0 0 2.44-.41 2.25 2.25 0 0 0 1-1.89 2.33 2.33 0 0 0-1-2 4 4 0 0 0-2.44-.51H46v4.77m0-7.46h1.69a3.61 3.61 0 0 0 2.27-.44 2.09 2.09 0 0 0-.12-3.36 3.91 3.91 0 0 0-2.12-.34H46v4.13zm-5.27 7.59h1.89V35.74h-1.91V33h7.8a5.89 5.89 0 0 1 3.64.91 4.08 4.08 0 0 1 1.65 3.43A4 4 0 0 1 51.51 41a4.59 4.59 0 0 1 3 4.44 4.83 4.83 0 0 1-1.65 3.64 5.76 5.76 0 0 1-4 1.16h-8.15v-2.78zm14.49.04h1.92V35.74h-1.92v-2.76h13.01v5.18h-3.34v-2.24h-4.4v4.31h5.11v2.55h-5.11v4.55h4.4v-2.32h3.34v5.21H55.22v-2.76M61 69.56l-1.92 1.09-30.73 1.08-5-2.84 37.65.67m8.59-7.48l-.82 1-51 1.17a37.66 37.66 0 0 1-2.67-3.15l54.44 1" fill="#fff"/><path d="M89.57 2.66c.4 0 1 .05 1-.52s-.39-.49-.74-.49H89v1h.53m1.33 1.57h-.38l-.81-1.3H89v1.32h-.31V1.39h1.24a1.29 1.29 0 0 1 .69.16.66.66 0 0 1 .32.59.76.76 0 0 1-.89.78zm1-1.42a2.23 2.23 0 1 0-2.22 2.25 2.24 2.24 0 0 0 2.22-2.25m-4.77 0a2.54 2.54 0 1 1 2.55 2.56 2.54 2.54 0 0 1-2.55-2.56" fill="#10151f"/></svg>