<?xml version="1.0" encoding="utf-8"?>
<svg version="1.1" id="Layer_1" xmlns="http://www.w3.org/2000/svg" xmlns:xlink="http://www.w3.org/1999/xlink" x="0px" y="0px"
	width="100px" height="100px" viewBox="0 0 100 100" style="enable-background:new 0 0 100 100;" xml:space="preserve">
<g>
	<path style="fill:#E8E8E8;" d="M50,0c27.6,0,50,22.4,50,50s-22.4,50-50,50S0,77.6,0,50S22.4,0,50,0"/>
	<path style="fill:#FFFFFF;" d="M50,1c27.1,0,49,21.9,49,49S77.1,99,50,99S1,77.1,1,50S22.9,1,50,1"/>
	<g>
		<path id="path7974" style="fill:#E30613;" d="M81.2,61.9c-3,2-8.8,4.6-18,2.3c-0.9-0.2-1.7-0.5-2.5-0.7c-5.8-2.5-11.6-5.2-14-6.9
			c6.6,1,16.5,2,32.4-0.5C79.1,56.1,80.6,58.5,81.2,61.9 M19.3,63.6l-2.8,1c0,0,3.2,3.8,3.7,5l0.8,2.2c0,0,10.1-5.5,24.7-4.7
			c3.3,0.2,6.2,1.1,6.2,1.1s-6-3.9-7.1-4.2c-5.7-1.4-11.2-1.9-14.4-2c-5.5,1.5-10.3,4-10.3,4S19.6,64.8,19.3,63.6"/>
		<path id="path7976" style="fill:#FEC700;" d="M83.4,60.1c0,0-0.7,0.9-2.2,1.9c-3,2-8.8,4.6-18,2.3c-0.9-0.2-1.7-0.5-2.5-0.7
			c-8.3-2.4-13.3-5.6-24.4-6.9c-7.6,0.2-15.2,1.1-19.4,2.7c0,0,1.1,1.2,1.5,1.7c0.2,0.4,0.6,1.5,0.9,2.6c0.4,1.2,0.8,2.4,0.8,2.4
			s4.7-2.5,10.3-4c2.6-0.7,5.4-1.1,7.9-1c8.5,0.5,15.4,4.9,23,8.5c5.3,1.5,18.2,2.6,21.8,1C83,70.4,83.8,66.9,83.4,60.1"/>
		<path id="path7978" style="fill:#1F3685;" d="M39.1,40.7c-3.5,0-5.4,4.8-5.4,8.2c0,1.4,0.3,2,1.1,2c1.9,0,5.2-5.6,5.9-9.1l0.2-0.9
			C40.4,40.9,39.8,40.7,39.1,40.7 M43.2,55.2h-5c0.2-1.3,0.6-2.8,1.4-4.7h-0.1c-1.6,2.7-3.8,5.2-6.7,5.2c-2.9,0-4.4-1.9-4.4-5.8
			c0-6.9,3.6-13.3,11.6-13.3c0.5,0,0.9,0,1.6,0.2l0.8-4.2v0c-0.8-0.2-2-0.3-3.1-0.4l0.7-3.5c2.5-0.3,5.2-0.5,8.2-0.3L43.2,55.2z
			 M73.4,55.2h-5L70.3,44c0.4-1.8,0.1-2.5-0.7-2.5c-1.7,0-4.7,4.5-5.5,8.9l-0.8,4.9h-5L60.1,44c0.4-1.8,0.1-2.5-0.7-2.5
			c-1.7,0-4.7,4.4-5.5,8.8l-0.9,5h-5l2.7-14.1V41c-0.8-0.2-2-0.3-3.1-0.4l0.7-3.5c2.7-0.3,5.2-0.5,7.9-0.3c-0.3,1.4-0.8,3.1-1.4,4.7
			h0.1c1.7-2.8,3.5-5,6.7-5c2.2,0,3.6,1.1,3.6,3.6c0,0.5-0.1,0.9-0.3,1.7l0,0c1.7-3,3.8-5.3,7-5.3c3.6,0,4.3,2.6,3.6,6L73.4,55.2z"
			/>
	</g>
</g>
</svg>
