<svg width="37" height="37" viewBox="0 0 37 37" fill="none" xmlns="http://www.w3.org/2000/svg">
<path d="M19.3488 36.2377C29.0973 36.2377 37 28.2962 37 18.5C37 8.70376 29.0973 0.762333 19.3488 0.762333C9.60025 0.762333 1.69752 8.70376 1.69752 18.5C1.69752 28.2962 9.60025 36.2377 19.3488 36.2377Z" fill="#C9F0FF"/>
<path d="M19.3488 0.762333C18.9737 0.762333 18.6013 0.774185 18.232 0.797382C27.4603 1.3763 34.7666 9.08068 34.7666 18.5C34.7666 27.9193 27.4603 35.6237 18.232 36.2026C18.6013 36.2258 18.9736 36.2377 19.3488 36.2377C29.0973 36.2377 37 28.2963 37 18.5C37 8.70374 29.0973 0.762333 19.3488 0.762333Z" fill="#B5EAFF"/>
<path d="M9.80009 3.16105C9.4978 3.09919 9.20289 3.29387 9.14103 3.59594C9.11277 3.73397 9.13814 3.8704 9.20274 3.98393C9.55843 3.73245 9.92374 3.49383 10.2981 3.26872C10.1327 3.23143 9.96673 3.19523 9.80009 3.16105Z" fill="#3498AC"/>
<path d="M1.59779 16.1866C1.63183 16.316 1.70865 16.4227 1.8091 16.4957C1.84581 16.1677 1.89148 15.8425 1.94575 15.5201C1.67793 15.6179 1.52379 15.9054 1.59779 16.1866Z" fill="#3498AC"/>
<path d="M8.87617 33.0533C8.87632 33.1044 8.88332 33.1563 8.89828 33.2077C8.90291 33.2235 8.90818 33.239 8.91404 33.2542C8.91418 33.2548 8.91425 33.2553 8.91433 33.2558C8.96621 33.5225 9.19992 33.7076 9.46173 33.7076C9.49707 33.7076 9.53299 33.7043 9.56898 33.6972C9.70462 33.6709 9.81901 33.5974 9.89879 33.4971C9.90349 33.4957 9.90819 33.4942 9.91289 33.4928C9.53863 33.2544 9.17383 33.0024 8.8193 32.7373C8.83765 32.8426 8.85651 32.948 8.87617 33.0533Z" fill="#3498AC"/>
<path d="M29.1285 33.6972C29.1645 33.7043 29.2004 33.7077 29.2357 33.7077C29.4975 33.7077 29.7313 33.5225 29.7831 33.2558C29.8168 33.083 29.8484 32.91 29.8786 32.737C29.5262 33.0006 29.1636 33.2512 28.7916 33.4883C28.8718 33.593 28.9889 33.6701 29.1285 33.6972Z" fill="#3498AC"/>
<path d="M29.5564 3.59594C29.4945 3.29387 29.1994 3.09926 28.8973 3.16105C28.7307 3.19523 28.5649 3.23143 28.3994 3.26872C28.7737 3.49383 29.139 3.73245 29.4947 3.98394C29.5593 3.87041 29.5847 3.73397 29.5564 3.59594Z" fill="#3498AC"/>
<path d="M33.8628 7.90051C33.9322 7.6001 33.7451 7.3002 33.4446 7.23068C33.2983 7.19693 33.1522 7.2241 33.0327 7.29536C33.2907 7.61304 33.5379 7.9399 33.7738 8.27535C33.8041 8.15069 33.8338 8.02575 33.8628 7.90051Z" fill="#3498AC"/>
<path d="M28.8916 19.4158C31.1246 16.065 32.7949 12.3063 33.7738 8.27543C33.5379 7.93997 33.2907 7.61319 33.0327 7.29544C32.9067 7.37059 32.8103 7.49474 32.7747 7.64889C31.8824 11.5074 30.3373 15.1144 28.2586 18.3442C27.6362 16.8682 26.8719 15.4405 25.9683 14.0785C24.3972 11.7105 22.4818 9.65592 20.2993 7.96584C22.9314 6.17821 25.915 4.91204 29.1214 4.255C29.2855 4.2214 29.4178 4.11893 29.4946 3.98394C29.1389 3.73245 28.7736 3.49383 28.3992 3.26872C25.1041 4.01118 22.0437 5.37252 19.3486 7.26479C16.6535 5.37252 13.5931 4.01118 10.298 3.26872C9.92366 3.49383 9.55835 3.73245 9.20266 3.98394C9.27948 4.11893 9.41173 4.2214 9.57584 4.255C12.7823 4.91212 15.7659 6.17821 18.398 7.96584C16.2155 9.65592 14.3001 11.7105 12.729 14.0785C12.6597 14.1829 12.5915 14.2879 12.5238 14.3931C9.00054 14.2251 5.4494 14.5949 1.99547 15.5044C1.97842 15.5089 1.96187 15.5143 1.94561 15.5202C1.89134 15.8425 1.84566 16.1678 1.80895 16.4958C1.9399 16.591 2.11095 16.6288 2.27976 16.5844C5.42339 15.7566 8.6499 15.3905 11.8588 15.4849C8.85051 20.7066 7.77831 26.755 8.81915 32.7373C9.17368 33.0025 9.53848 33.2545 9.91274 33.4929C17.2576 31.2848 23.5463 26.7471 27.9609 20.7448C29.2327 24.671 29.4969 28.8799 28.6868 33.0426C28.6551 33.2057 28.6979 33.366 28.7915 33.4884C29.1634 33.2513 29.526 33.0007 29.8784 32.7371C30.574 28.7389 30.3255 24.7112 29.1863 20.9206C31.3569 22.333 33.3681 23.9952 35.1717 25.8787C35.2235 25.9327 35.2836 25.9736 35.3479 26.0022C35.5117 25.65 35.6642 25.2913 35.8051 24.927C33.7371 22.7979 31.4106 20.9475 28.8916 19.4158ZM19.3488 8.64565C21.5472 10.2996 23.4714 12.335 25.0379 14.6959C25.8198 15.8744 26.4929 17.1045 27.0549 18.3737C24.9903 17.283 22.8151 16.3979 20.5619 15.739C18.3508 15.0923 16.0875 14.6722 13.806 14.4783C15.3454 12.2097 17.2182 10.2485 19.3488 8.64565ZM9.8834 32.3342C8.91779 26.4898 10.057 20.5909 13.1203 15.546C15.5279 15.7077 17.9183 16.1293 20.2483 16.8107C22.7056 17.5294 25.0671 18.5257 27.2876 19.7717C23.0619 25.656 16.9935 30.1262 9.8834 32.3342Z" fill="#78D2F5"/>
<path d="M19.3488 9.50591C20.2862 9.50591 21.0462 8.74221 21.0462 7.80014C21.0462 6.85808 20.2862 6.09438 19.3488 6.09438C18.4113 6.09438 17.6513 6.85808 17.6513 7.80014C17.6513 8.74221 18.4113 9.50591 19.3488 9.50591Z" fill="#FF815C"/>
<path d="M12.7428 17.0006C13.6803 17.0006 14.4403 16.2369 14.4403 15.2949C14.4403 14.3528 13.6803 13.5891 12.7428 13.5891C11.8053 13.5891 11.0454 14.3528 11.0454 15.2949C11.0454 16.2369 11.8053 17.0006 12.7428 17.0006Z" fill="#FF815C"/>
<path d="M28.1808 21.3548C29.1183 21.3548 29.8783 20.5911 29.8783 19.649C29.8783 18.707 29.1183 17.9433 28.1808 17.9433C27.2434 17.9433 26.4834 18.707 26.4834 19.649C26.4834 20.5911 27.2434 21.3548 28.1808 21.3548Z" fill="#FF815C"/>
<path d="M9.43449 34.758C8.49851 34.758 7.73705 33.9928 7.73705 33.0522C7.73705 32.1117 8.49851 31.3465 9.43449 31.3465C10.3705 31.3465 11.132 32.1117 11.132 33.0522C11.132 33.9928 10.3705 34.758 9.43449 34.758Z" fill="#FF815C"/>
<path d="M29.3611 34.855C28.4251 34.855 27.6636 34.0898 27.6636 33.1492C27.6636 32.2086 28.4251 31.4434 29.3611 31.4434C30.2971 31.4434 31.0586 32.2086 31.0586 33.1492C31.0586 34.0897 30.2971 34.855 29.3611 34.855Z" fill="#FF815C"/>
<path d="M33.3188 9.41946C32.3828 9.41946 31.6213 8.65424 31.6213 7.7137C31.6213 6.77317 32.3828 6.00795 33.3188 6.00795C34.2548 6.00795 35.0162 6.77317 35.0162 7.7137C35.0162 8.65424 34.2548 9.41946 33.3188 9.41946Z" fill="#FF815C"/>
<path d="M29.0094 5.41386C28.0735 5.41386 27.312 4.64864 27.312 3.7081C27.312 2.76756 28.0735 2.00234 29.0094 2.00234C29.9454 2.00234 30.707 2.76756 30.707 3.7081C30.707 4.64864 29.9454 5.41386 29.0094 5.41386Z" fill="#FF815C"/>
<path d="M9.43449 5.41386C8.49851 5.41386 7.73705 4.64864 7.73705 3.7081C7.73705 2.76756 8.49851 2.00234 9.43449 2.00234C10.3705 2.00234 11.132 2.76756 11.132 3.7081C11.132 4.64864 10.3705 5.41386 9.43449 5.41386Z" fill="#FF815C"/>
<path d="M1.69745 17.8795C2.63492 17.8795 3.39489 17.1158 3.39489 16.1738C3.39489 15.2317 2.63492 14.468 1.69745 14.468C0.759973 14.468 0 15.2317 0 16.1738C0 17.1158 0.759973 17.8795 1.69745 17.8795Z" fill="#FF815C"/>
</svg>
