<?xml version="1.0" encoding="utf-8"?>
<!-- Generator: Adobe Illustrator 18.0.0, SVG Export Plug-In . SVG Version: 6.00 Build 0)  -->
<!DOCTYPE svg PUBLIC "-//W3C//DTD SVG 1.1//EN" "http://www.w3.org/Graphics/SVG/1.1/DTD/svg11.dtd">
<svg version="1.1" id="Layer_1" xmlns="http://www.w3.org/2000/svg" xmlns:xlink="http://www.w3.org/1999/xlink" x="0px" y="0px"
	width="100px" height="100px" viewBox="-340 -340 780 780" style="enable-background:new -340 -340 780 780;" xml:space="preserve">
<g>
	<circle style="fill:#E8E8E8;" cx="50" cy="50" r="390"/>
	<circle style="fill:#FFFFFF;" cx="50" cy="50" r="382.2"/>
</g>
<path d="M-204.2,22.9c-11.3,3.2-18.4,12.3-19.3,25c-1,14,6.6,25.3,19.8,29.3c4.4,1.4,13.4,1.4,19.1,0c4.2-0.9,6.1-1.6,10-3.5
	l1.6-0.9V59.7V47h-8.5h-8.9l-4.3,4.5l-4.3,4.5h8h8v5.1v5.2l-2.3,1c-1.4,0.6-4.3,1-7.6,1.2c-7.2,0.3-10-0.7-14.3-4.8
	c-2.6-2.6-3.3-3.7-4.3-7.1c-3.8-12.8,3.1-24.3,15.2-25.2c4.7-0.3,9.2,0.9,13,3.3l2.7,1.7l3.5-3.8c3.1-3.5,3.4-3.8,2.6-4.8
	c-1.2-1.4-7-4.1-10.8-5C-189.9,21.5-199.9,21.6-204.2,22.9L-204.2,22.9z M29.5,22.4c-9.4,1-16.2,6-17.6,12.9
	c-1.4,6.3,1.7,11.8,8,14.8c1.6,0.8,6.1,2.3,9.9,3.3c8,2.3,10.5,3.4,12.2,5.5c1.4,1.8,1.4,3.1,0.3,5.2c-1.4,2.8-4.8,4.1-10.5,4.1
	c-5.4,0-9.5-1.2-13.7-3.8L16,63l-3.1,3.5L9.7,70l1.5,1.3c7.7,6.5,23.3,8.4,32.8,4c4.4-2.1,6.7-4.1,8.3-7.5
	c2.5-5.2,1.5-11.7-2.2-15.5c-3-2.9-6.8-4.8-15.1-7c-10.2-2.7-12.6-4.3-12.6-7.8c0-2.1,3.1-4.9,6.1-5.8c3.5-1,9.2-0.4,13.2,1.4
	l3.3,1.4l3.3-3.2c1.8-1.8,3.2-3.4,3.2-3.7c0-0.7-6.8-3.7-10.2-4.5C36.9,22.2,33.9,22,29.5,22.4L29.5,22.4z M301.5,22.2
	c-6.8,0.5-12.6,2.9-16.2,6.7c-2.7,2.9-3.7,5.4-3.7,9.6c0.1,7.4,4.6,11.1,17.9,14.8c7.7,2.2,12,4.1,12.8,5.7c1.9,3.6-0.9,7.7-6,8.8
	c-5.9,1.3-11.4,0.3-17.6-3.2c-1.6-0.9-3.1-1.6-3.1-1.4c-0.1,0.1-1.4,1.5-3.1,3.2c-3,3.1-3,3.1-2,4.3c2.8,3.1,11,6.1,18.4,6.9
	c7.1,0.7,15.1-1.4,19.5-5.4c3.7-3.1,4.9-5.9,4.9-10.6c0.1-4.5-1.2-7.3-4.3-10c-3-2.6-5.5-3.7-14.5-6.3c-4.5-1.4-8.8-2.8-9.6-3.3
	c-3.9-2.6-3.8-6,0.1-8.8c4.1-2.9,12.8-2.5,18.1,0.9l1.6,1l3.5-3.5l3.5-3.5l-1.3-0.9C315.8,23.9,307.5,21.8,301.5,22.2L301.5,22.2z
	 M-142,23.2c-7.5,2-13.4,6.9-16.5,13.4c-6.2,12.9-2.6,28.8,8.3,36.1c5,3.3,9.5,4.7,16.3,4.7c16.4,0,27.2-10,28.1-25.9
	c0.8-14-6.3-24.5-19-28.2C-128.5,22.1-138.1,22.1-142,23.2L-142,23.2z M-125.6,33.2c10.4,5.4,12.7,21.4,4.3,30
	c-6.3,6.5-17.4,6.6-24,0.4c-5.5-5.3-7.1-14.7-4-22.3c1-2.6,4.8-6.7,7.1-7.9c3-1.5,4.3-1.8,9.4-1.6C-129,32-127.3,32.3-125.6,33.2
	L-125.6,33.2z M-94,50v26h16.7h16.6l4.7-4.5l4.7-4.5h-16.1H-84V45.1V23h-4.7H-94V50L-94,50z M-46,43v18.6l5-4.9l5-4.9v-9.5v-9.5
	l7.4,0.3c6.5,0.2,7.9,0.4,10.3,1.4c5.9,2.6,8.9,7.9,8.9,15.5c0,6.8-2.2,11.4-7,14.2c-3.9,2.3-8,2.9-19.7,2.9h-10.5l4.7,4.5l4.7,4.5
	h7.1c11.6,0,17.9-2.1,24-8.2C5.8,56,2.8,34.3-11.6,26.6C-17,23.7-20.4,23-34.1,23H-46V43L-46,43z M70,24.1
	c-0.3,0.9-5.3,49.2-5.3,50.9c0,1.2,0.2,1.3,4.8,1.3c4.3,0,4.9-0.2,5.2-1c0.1-0.5,1-9,2.1-19L79,38.3c0.2,0,4.3,8.7,9,19.3L97.2,77
	c0.2,0.1,4.4-8.6,9.4-19.5c8.9-19.3,9.1-19.6,9.4-17.3c0.3,1.2,1,8.6,1.8,16.2l1.8,16.7l0.3,2.8h5h5l-1.8-16.3l-2.7-26.3l-1-10
	l-6.3,0.2l-6.3,0.2l-7.2,15.7l-7.5,15.8c-0.2-0.1-3.5-7.1-7.5-15.8l-7.1-15.7l-6.1-0.2C71.7,23.5,70.2,23.6,70,24.1L70,24.1z
	 M144,49.8V76h5.6h5.4V49.8V23h-5.4H144V49.8z M165,28.1V33h9.1h8.9v21.5V76h5.7h5.3V54.5V33h6.6h6.7l4.7-5l4.7-5h-26H165V28.1z
	 M222,50v26h5.9h5.1V65.5V55h8.2h7.8l4.8-5l4.8-5h-12.5H234V34.4V23h-6h-6V50L222,50z M259,49.8V76h5.4h5.6V49.8V23h-5.6H259V49.8z"
	/>
</svg>
