<?xml version="1.0" encoding="utf-8"?>
<!-- Generator: Adobe Illustrator 24.2.1, SVG Export Plug-In . SVG Version: 6.00 Build 0)  -->
<svg version="1.1" id="Layer_1" xmlns="http://www.w3.org/2000/svg" xmlns:xlink="http://www.w3.org/1999/xlink" x="0px" y="0px"
	 viewBox="0 0 396 66.6" style="enable-background:new 0 0 396 66.6;" xml:space="preserve">
<style type="text/css">
	.st0{fill:#89BD24;}
	.st1{fill:#E6007E;}
</style>
<g>
	<path class="st0" d="M9.8,27.8l-2.3,0.1L5.1,28c-2,0-4.4-0.3-4.9-2.5L0,24.9l0.7-0.1l5-0.3l5.9,0.2l5.1,0.2h0.1h0.7l1.7-0.1
		l1.7-0.1c1.5,0,3.4,0.2,4.1,1.9l0.1,0.3l-0.2,0.2c-0.5,0.9-1.4,1-2.2,1c-0.3,0-0.7-0.1-1-0.1c-0.3,0-0.6-0.1-0.8-0.1l-2,0.1
		l-1.9,0.1c-0.5,0-1-0.1-1.4-0.1c0.4,7.6,0.2,17.6,0.1,26.6l-0.1,6.1v0.1V62c0.1,1,0.2,2.1-0.4,3.1l-0.1,0.2l-0.2,0.1
		c-0.3,0.1-0.6,0.1-0.9,0.1c-0.4,0-0.8-0.1-1.1-0.4c-0.6-0.6-0.5-1.6-0.5-2.4c0.1-0.2,0.1-0.4,0.1-0.5c0.4-12.7,0.3-22.8-0.2-34
		C11.5,27.9,10.8,27.8,9.8,27.8z M32.7,55.2l0.4,9.9v0.3l-0.2,0.2c-0.3,0.2-0.9,0.3-1.3,0.3c-1,0-1.3-0.4-1.4-0.7l-0.1-0.1V65
		c-1.5-10-2-22.2-1.3-36.3v-1.1c-0.1-0.9-0.2-1.9,0.5-2.5l0.2-0.2h0.3c0.5,0.1,1.2,0.2,1.9,0.5l0.2,0.1l0.1,0.3
		c0.3,2.8,0.3,5.6,0.2,8.6c-0.1,2.1-0.1,4.3,0,6.6l2.4-0.5c4.4-0.9,8.8-1.9,13.8-1.9c0.4-1.7,0.4-4.4,0.4-6.9
		c-0.1-2.7-0.1-5.2,0.4-6.8l0.1-0.1c0-0.1,0-0.1,0.1-0.1c0.2-0.4,0.3-0.6,0.9-0.8h0.1h0.1c0.4-0.1,0.8,0.1,1.2,0.4
		c0.8,0.8,0.8,2.6,0.7,4.2v0.8c0,3.3-0.2,6.4-0.4,9.5c-0.2,3-0.4,5.9-0.4,8.7c0,2.1,0.2,4.5,0.3,6.8c0.3,3.5,0.5,6.8,0.2,9.1
		l-0.1,0.4l-0.4,0.1C51.2,63.9,51,64,50.8,64c-0.1,0-0.3-0.1-0.4-0.1c-0.2,0-0.3-0.1-0.6-0.1h-0.5l-0.1-0.4
		c-0.9-7.6-1.2-15.2-0.9-21.3c-0.6-0.1-1.3-0.1-1.9-0.1c-3.5,0-6.8,0.7-10,1.4c-1.4,0.3-2.8,0.6-4.2,0.8
		C32.2,47.8,32.4,51.6,32.7,55.2z M75.3,23.6l1.6-0.1c0.6,0,1.5,0.1,2.1,0.7c0.3,0.3,0.4,0.7,0.4,1.3v0.2l-0.1,0.1
		c-0.7,0.9-1.9,1.1-3.1,1.1c-0.3,0-0.6-0.1-0.8-0.1h-0.7L72,26.8c-3.5,0.1-7.3,0.2-10.1,0.8l-0.2,16.2c2.3,0.2,4.4,0.3,6.2,0.3
		c1.4,0,2.8-0.1,4-0.1c0.5-0.1,1-0.2,1.6-0.2c0.8-0.1,1.5-0.3,2.3-0.3c1.3,0,2.2,0.5,2.8,1.4l0.2,0.3l-0.3,0.3
		c-0.9,0.9-2.4,1-3.8,1.1c-0.4,0-0.8,0-1.2,0.1c-2.6,0.3-5.6,0.4-8.5,0.4c-1,0-2.1,0-3.1-0.1l-0.3,4.4c-0.3,4.1-0.6,7.7-0.7,12
		c0.9,0.1,1.9,0.2,3,0.2c1.8,0,3.6-0.2,5.4-0.3c1.7-0.2,3.5-0.3,5.1-0.3c2.6,0,4.3,0.4,5.5,1.1l0.4,0.3l-0.2,0.4
		c-0.4,1.1-1.2,1.6-2.5,1.6c-0.6,0-1.3-0.1-1.9-0.2C75,66.1,74.4,66,73.9,66c-1.6,0-3.3,0.1-5.1,0.3c-1.9,0.1-3.8,0.3-5.7,0.3
		c-2.1,0-3.8-0.2-5.2-0.6l-0.3-0.1l-0.1-0.4c-0.2-6.2,0.1-13,0.3-19.6c0.3-7.2,0.6-14.1,0.2-20.3v-0.4l0.4-0.1
		c2.8-1.2,7.1-1.2,11.3-1.3c1.6,0,3.1-0.1,4.5-0.1h0.1C74.5,23.6,74.9,23.6,75.3,23.6L75.3,23.6z M119.3,10.1
		c-1,3.7-1.9,7.1-2.7,10.3c-1.1,4.6-2.2,9-3.9,14.3c-0.9,2.9-1.6,5.8-2.3,8.6c-1.3,5-2.7,10.3-4.7,15.7c-0.1,0.3-0.3,0.6-0.3,1.1
		c-0.7,2.3-1.8,6.3-4.8,6.3c-0.3,0-0.8,0-1.1-0.2c-2-0.6-3.4-5.1-5.3-13.2c-0.2-0.9-0.4-1.7-0.5-2.2L90.1,39c-2.6-9.2-5.1-18-8-26.7
		c-0.1-0.4-0.3-0.9-0.4-1.3c-0.7-2-1.5-4.2-1.4-6.6V3.8l0.5-0.2c0.6-0.2,1.3-0.3,1.9-0.3c3,0,3.9,3.3,4.5,5.8
		c0.2,0.6,0.3,1.1,0.5,1.6c0.4,1.6,1,3.2,1.6,4.8c0.7,1.7,1.3,3.5,1.8,5.2l9.4,34.3c3.6-10.4,6.6-21.5,9.4-32.4L115.7,1l0.2-0.4
		l0.4-0.1c0.9-0.3,1.6-0.5,2.2-0.5c1.2,0,1.8,0.6,2.2,1c1,1.5,0.2,4.1-0.8,6.9L119.3,10.1L119.3,10.1z M127.8,64.2
		c-1.2-4.8-1.5-10.8-0.8-17c0-13.6,0.1-30.8,0.8-44.6V1.7h27.6h1c0.4-0.1,0.9-0.1,1.3-0.1c0.8,0,2,0.1,2.7,1
		c0.4,0.5,0.5,1.3,0.3,2.2l-0.1,0.4l-0.4,0.2c-5.6,1.9-12.2,1.9-18.5,1.9l-8.4,0.3c0,3.8-0.1,7.7-0.3,11.5l-0.3,12.2
		c4.2,0.4,8.9,0.5,13.5,0.5c4.9,0,9.7,0,13.7,0.6l0.8,0.1v0.8c0,3.7-4.8,3.7-6.5,3.7c-0.6,0-1.3,0-1.8-0.1h-1.2
		c-2.8,0-6-0.2-9.3-0.3c-3-0.2-6.2-0.3-9.2-0.3c0,2.3-0.1,4.7-0.2,7.1c-0.1,5.4-0.3,10.8,0.1,17.2c1.1,0.1,2.3,0.1,3.5,0.1
		c2.7,0,5.4-0.2,7.9-0.3c2.6-0.2,5.3-0.3,8.1-0.3c2.7,0,5.3,0.2,7.7,0.5h0.5l0.2,0.5c0.3,0.8,0.2,1.5-0.3,2.1
		c-0.9,1.3-3.1,1.6-4.2,1.7c-1,0.2-2,0.3-3.3,0.3c-1.2,0-2.5-0.1-3.7-0.2s-2.4-0.2-3.5-0.2c-3.5,0.4-6.9,0.9-10.1,0.9
		c-2.6,0-4.9-0.3-7.1-1l-0.4-0.1L127.8,64.2L127.8,64.2z M165.7,41.2c-0.5-7.9,1.6-16.4,5.6-23.2c2.3-3.8,5.9-7.5,9.4-10l0.2-0.1
		c3.4-2.6,8-6.2,13.1-6.2c1.6,0,3.1,0.4,4.6,1.1c1,0.3,2.9,1,2.3,4.1l-0.1,0.6l-0.5,0.1c-0.3,0.1-0.6,0.1-0.9,0.1
		c-0.9,0-1.6-0.3-2.2-0.5s-1.1-0.5-1.8-0.5c-3.4,0-7.1,2.5-9.8,4.2c-0.6,0.4-1.2,0.9-1.8,1.2c-7.5,6.3-16.2,21.3-12.4,35.3
		c2.3,7.9,10.9,13.7,20,13.7c2.2,0,4.4-0.3,6.6-1c2.2-0.7,3.6-3.1,4.4-7.2c0.7-3.8,0.6-8.4,0.6-12.4v-5c-0.5-0.1-1.1-0.1-1.8-0.1
		c-0.9,0-1.6,0-2.5,0.1c-0.8,0-1.6,0.1-2.4,0.1h-1h-1.5c-1.6,0-3.5-0.1-4.3-1.2c-0.3-0.3-0.6-0.9-0.3-1.8c0.4-2.2,3.6-2.5,6.7-2.5h2
		c0.5,0.1,1,0.1,1.5,0.1c0.6,0,1.2-0.1,1.9-0.1h2.2c2.2,0,4.4,0.2,5.3,1.8c0.8,1,0.4,2.5,0.1,4.2c-0.3,0.9-0.4,1.8-0.4,2.6v0.1
		c-0.1,1.6-0.2,3.2-0.2,4.8c-0.3,6.2-0.4,12.7-2.9,16.8c-0.7,1.6-3.2,4.2-4.8,4.7c-2.2,0.8-4.7,1.2-7.4,1.2
		c-6.7,0-14.6-2.5-18.2-5.7C169.5,56.5,166.3,49.6,165.7,41.2z M213,64.9c-0.9-1.3-0.4-3.5,0-5l0.3-1v-0.1v-0.1
		c2.5-10.4,5.4-20.9,8.3-31.1c2.3-8.1,4.7-16.5,6.7-24.5l0.1-0.3l0.3-0.3c0.7-0.3,1.3-0.5,1.9-0.5c1.2,0,2.1,0.7,2.6,2.2
		c0.4,1.1,0.6,2.4,0.8,3.7c0,0.5,0.1,1,0.2,1.4l4.5,14.9c2.6,8.8,5.1,17,7.9,24.6l0.1,0.1v0.1c0.5,2.4,1.4,4.7,2.7,6.8
		c1.4,2.5,2.2,5.6,2.2,8.2v0.3l-0.3,0.3c-0.7,0.7-1.5,1.1-2.2,1.1c-2.1,0-2.9-2.8-3.5-4.9c-0.2-0.6-0.3-1.2-0.5-1.5v-0.1h-0.1
		c-1.3-4-3.1-8.5-4.9-12.9c-1.5-3.5-2.8-6.8-3.6-9.3c-1.1-0.3-2.3-0.4-3.9-0.4c-1.6,0-3.5,0.2-5,0.3l-2.8,0.3
		c-1.6,3.8-2.7,7.9-3.9,12.3c-0.9,3-1.7,6.2-2.8,9.6c0,0.6,0,2.1-0.3,3.4c-0.5,2.8-1.7,3.4-2.7,3.4C213.9,65.7,213.3,65.2,213,64.9
		L213,64.9z M228.5,31.9c1.1-0.1,2.2-0.2,3.3-0.2c0.9,0,1.9,0.1,2.9,0.2c-0.3-1-0.4-2.1-0.7-3.1c-1-4.9-1.9-9.6-3.6-13.6
		c-0.6,3-1.5,5.7-2.4,8.4c-0.9,2.7-1.8,5.4-2.4,8.6L228.5,31.9z M297.2,64.4l-0.1,0.3l-0.3,0.2c-0.6,0.3-1.2,0.5-1.9,0.5
		c-2.9,0-4.5-3.5-5.4-5.3c0-0.1-0.1-0.2-0.1-0.3c-0.3-0.5-0.6-1.1-1-1.8l-3.3-6c-1.5-2.4-2.7-4.9-3.9-7.3l-3.8-7.3
		c-2-3.6-4.2-7.3-6.4-10.8c-3.1-4.8-6.1-10.3-9.3-15.4c-0.1,5.3,0.4,32.3,0.4,39.5c0,0.9,0.2,2.6,0,4.5c-0.1,1.1,0.1,2.3,0,3.5
		c-0.1,0.6-0.1,1.2-0.1,1.9c0,1.2,0,2.5-0.3,3.5c-0.5,1.8-1.7,2.2-2.7,2.2h-0.1H259c-2.9-0.3-2.2-5.6-2.2-7.4
		c0.3-11.5,0.2-20.8,0.2-32.8c0-7.5-0.3-14.9-0.3-23.4V1.8l0.5-0.2c0.5-0.2,0.6-0.3,1.1-0.3c2.3,0,3.8,1,5.2,3
		c3.5,4.8,6,8.2,9.5,14.3c4,6.9,8.9,15.4,12.9,23.4l6.1,11.8c-0.5-17.6-2.5-32.8-2.5-51V2.5l0.3-0.3c0.5-0.3,0.5-0.5,1.6-0.5
		c0.9,0,2.2,0.3,2.8,0.5l0.4,0.2l0.1,0.5L296,33c0.3,9.3,0.3,18.1,1.2,26.3v0.1c0,0.5,0.1,1,0.2,1.6C297.7,62,297.7,63.2,297.2,64.4
		L297.2,64.4z M305.1,35l-0.2-9.8V25l0.2-0.2c0.3-0.3,0.8-0.4,1.4-0.4c0.4,0,0.8,0.1,1.2,0.1l0.3,0.1l0.1,0.3
		c0.8,3.1,0.8,7.2,0.8,11.4c0,2.1,0,4.2,0.1,6.3c5.2-3.5,9.5-7.9,14.3-12.8l0.1-0.1h0.1c0.7-0.4,1.2-1,1.7-1.7
		c0.9-1.2,1.9-2.5,4-2.6h0.2l0.1,0.1c0.6,0.3,0.9,0.8,1.1,1.3c0.2,1.2-1.2,2.5-2.3,3.5l-0.7,0.7h-0.1c-2.9,3.1-6.5,6.3-9.6,9.2
		l3.1,5.3c2.8,5,5.8,10.1,9.3,14.7c0.9,1,2.3,2.9,1.7,4.1c-0.2,0.3-0.6,0.8-1.7,0.8h-0.7c-0.9-0.2-2-1.5-4-4.2
		c-0.2-0.4-0.5-0.7-0.7-1.1c-1.9-2.8-3.6-5.8-5.3-8.8c-1.6-2.9-3.1-5.6-4.7-8.1c-0.6,0.4-1.2,0.9-1.7,1.4c-1.1,1-2.3,2-3.9,2.6v0.4
		c0.2,5.6,0.3,11.5-0.3,17.9v0.3l-0.2,0.1c-0.3,0.2-0.8,0.5-1.5,0.5c-0.6,0-1-0.2-1.4-0.6l-0.2-0.2v-0.3c0.2-7.1-0.1-14.2-0.3-21.1
		L305.1,35L305.1,35z M334.8,39.8c-0.1-4.7-0.1-9.5,0.5-14.1l0.1-0.1l0.1-0.1c0.3-0.5,0.8-0.8,1.5-0.8c0.7,0,1.5,0.3,1.9,0.8
		l0.1,0.2v0.2l-0.3,7.2c-0.3,7.6-0.5,15.4-0.2,23.6c0,0.5,0.1,0.9,0.1,1.4c0.2,2.5,0.4,4.9-0.2,7.1l-0.1,0.2l-0.3,0.1
		c-0.3,0.1-0.8,0.3-1.3,0.3s-0.8-0.2-0.9-0.4c-0.8-0.5-0.7-1.5-0.6-2.2c0.1-0.2,0.1-0.4,0.1-0.6C335,58.8,335,55,335,51.3l-0.2-7.5
		L334.8,39.8L334.8,39.8z M365.4,24.3c0.4-0.2,0.8-0.3,1.2-0.3c0.6,0,1.2,0.2,1.7,0.7l0.1,0.1l0.1,0.2c0.4,5.5,0.6,11.9,0.9,18.1
		c0.4,7.4,0.5,15.1,1.2,21.6l0.1,0.4l-0.3,0.2c-0.5,0.3-0.9,0.4-1.4,0.4c-1.6,0-2.4-1.8-2.9-3v-0.1c-0.9-1.9-1.7-4-2.6-6.2
		c-1.2-3.2-2.5-6.5-4-9c-3.4-6.2-6.6-12.2-9.4-16.5l-1.6,29.8c-0.1,2.2-0.3,3.8-0.3,4.2v0.4l-0.4,0.1c-0.6,0.2-1.2,0.3-1.8,0.3
		c-0.3,0-0.7-0.1-0.9-0.2l-0.3-0.2V65c0.2-5.4,0.4-11.4,0.8-17.9l0.8-15.7l0.2-5.6v-0.4l0.4-0.1c0.3-0.1,0.6-0.1,0.9-0.1
		c2.4,0,4.1,2.4,5.2,3.9c5.2,9.2,9.9,16.8,13.9,27.4c-0.1-4.4-0.8-11.9-1.1-17c-0.3-5.4-0.6-10.5-0.6-14.7v-0.3L365.4,24.3
		L365.4,24.3z M374.6,29.4c-0.1-1.7-0.3-3.9,1.2-4.7h0.1c0.3-0.1,0.7-0.2,1-0.2c1,0,2,0.4,3,0.8c1,0.3,1.9,0.7,2.6,0.7h0.2l0.1,0.1
		c4.4,2.5,10,7,12.1,14.1c2.3,6.8,1.3,14.8-2.4,20c-2.6,3.7-6.4,5.7-10.9,5.7c-1.4,0-2.9-0.2-4.4-0.6l-0.4-0.1v-0.4
		c0-0.4-0.1-0.5-0.4-0.6c-0.3-0.1-0.9-0.2-0.9-0.9V49.5c-0.3-3.6-0.3-6.7-0.4-9.7c0-3.1,0-6-0.4-9.3v-0.1
		C374.6,30.2,374.6,29.8,374.6,29.4L374.6,29.4z M378.4,62.1c1,0.2,2,0.4,3,0.4c3.1,0,5.8-1.4,7.7-3.9c3.1-4.1,4.2-10.9,2.6-17v-0.1
		c-1.3-6.7-6.7-11.9-14-13.3C378.4,39.9,378.4,51.2,378.4,62.1z"/>
	<path class="st1" d="M349.7,4.8c0.4,0.1,1.5-0.5,0.8-0.7c-3-0.6-5.4,1-7.1,3.2c0.1-1.3-0.4-3.4-3-4.8c-1.3-0.7-9,0.1-6.3,7.9
		c2.5,7.2,1.6,10.5,1.6,10.5s2.8-2.5,9.7-2.9c6.4-0.4,6.3-9.3,2.9-10.5c-1.9-0.7-3.4,0.1-4.4,0.7C345.2,6.2,347,4.3,349.7,4.8z"/>
</g>
</svg>
