<svg xmlns="http://www.w3.org/2000/svg" width="184" height="40" fill-rule="evenodd" xmlns:v="https://vecta.io/nano"><g fill="#05053c"><path d="M52.007 11.68c1.277 1.12 1.916 2.72 1.916 4.76 0 2-.639 3.52-1.916 4.64s-3.113 1.68-5.428 1.68h-4.51V30h-4.151V10h8.661c2.315 0 4.151.56 5.428 1.68zm-3.193 7.04c.599-.52.918-1.28.918-2.32s-.319-1.8-.918-2.32-1.557-.76-2.834-.76h-3.872v6.16h3.872c1.277 0 2.235-.24 2.834-.76z" fill-rule="nonzero"/><path d="M96.231 15.96c.998.96 1.517 2.32 1.517 4.08V30h-4.151v-9.12c0-1.04-.239-1.84-.679-2.32-.479-.48-1.118-.76-1.916-.76-.958 0-1.756.36-2.395 1.08s-.918 1.68-.918 2.96V30h-4.151v-9.12c0-1.04-.239-1.84-.679-2.32-.479-.48-1.118-.76-1.916-.76-.918 0-1.676.36-2.355 1.04-.639.68-.998 1.72-.998 3.12V30h-4.151V14.84h3.712l.12 2.68c.519-1 1.197-1.72 2.075-2.24s1.876-.76 2.954-.76c1.118 0 2.115.28 2.993.8s1.517 1.28 1.916 2.28c.479-1 1.197-1.76 2.115-2.28s1.916-.8 3.033-.8c1.557.04 2.874.52 3.872 1.44z"/><path d="M115.31 27.36l-.319 2.52c-.559.28-1.237.44-1.956.44-1.916 0-3.113-.76-3.472-2.28-.439.76-1.118 1.32-2.075 1.68-.918.4-2.036.56-3.313.56-1.477 0-2.634-.32-3.433-1-.838-.68-1.237-1.64-1.237-2.88 0-2.48 1.956-4.08 5.907-4.8l3.632-.68v-.72c0-.8-.239-1.44-.679-1.92s-1.078-.72-1.876-.72c-.918 0-1.676.2-2.275.6s-.998 1.08-1.197 1.96l-3.313-1.4c.319-1.32 1.038-2.36 2.195-3.08 1.118-.76 2.594-1.12 4.43-1.12 2.155 0 3.832.48 5.069 1.4 1.197.92 1.796 2.32 1.796 4.16v6.2c0 .4.08.68.279.88s.479.28.838.28c.399.04.718 0 .998-.08zm-7.344-.52c.718-.44 1.118-1.04 1.118-1.76v-1.56l-3.233.72c-.679.16-1.197.36-1.517.64s-.519.64-.519 1.12.16.84.439 1.12c.319.24.718.36 1.277.36a4.72 4.72 0 0 0 2.435-.64zM66.536 30h4.151V14.84h-4.151V30zm0-20v2.96h4.151V10h-4.151z" fill-rule="nonzero"/><path d="M60.19 22.44h0c0-.8.12-1.44.319-2a3.7 3.7 0 0 1 .679-1.16c.639-.68 1.437-1.04 2.355-1.04h0c.239 0 .479.04.679.08l.479-3.48c-.16 0-.08-.04-.239-.04-2.315 0-3.911 1.08-4.75 3.28l-.16-3.24H56.04V30h4.151v-7.56h0zm60.748 0h0c0-.8.12-1.44.319-2a3.7 3.7 0 0 1 .679-1.16c.639-.68 1.437-1.04 2.355-1.04.239 0 .479.04.679.08l.479-3.48c-.16 0-.08-.04-.239-.04-2.315 0-3.911 1.08-4.75 3.28l-.16-3.24h-3.512V30h4.151v-7.56zm15.925 7.84c-.758 2.08-1.597 3.52-2.594 4.32-.998.84-2.275 1.24-3.911 1.24s-2.914-.4-3.832-1.2l1.038-2.92c.319.36.679.6 1.078.76.399.12.878.2 1.477.2.639 0 1.118-.12 1.517-.4s.718-.72.958-1.44l.279-.64-1.676-3.92-4.63-11.44h4.59l2.834 9.08.798 3.04.918-3.2 2.794-8.92h4.191l-5.827 15.44z"/><path d="M143.967 10h8.422c2.395 0 4.151.48 5.308 1.4s1.756 2.28 1.756 4.04c0 1.12-.319 2.08-.998 2.88s-1.597 1.32-2.794 1.52v.04c1.357.2 2.435.72 3.193 1.56s1.118 1.84 1.118 3.04c0 1.72-.639 3.08-1.876 4.04s-3.073 1.44-5.428 1.44h-8.741V10h.04zm7.863 8.4c2.235 0 3.313-.84 3.313-2.56s-1.118-2.56-3.313-2.56h-3.792v5.12h3.792zm.519 8.44c1.118 0 1.956-.24 2.515-.68s.838-1.12.838-1.96-.279-1.48-.838-1.92-1.397-.68-2.515-.68h-4.311v5.24h4.311 0zM183.641 10v20h-3.672l-.2-2.8c-.439.96-1.118 1.72-1.996 2.28s-1.876.84-2.993.84c-2.036 0-3.592-.68-4.75-2.08s-1.716-3.32-1.716-5.76c0-2.48.559-4.44 1.716-5.8 1.157-1.4 2.714-2.08 4.75-2.08 1.078 0 2.036.24 2.834.76.798.48 1.437 1.16 1.876 2.04V10h4.151zm-5.069 15.92c.639-.8.918-1.92.918-3.36v-.32c0-1.44-.319-2.56-.918-3.36-.639-.8-1.477-1.2-2.554-1.2-1.118 0-1.996.4-2.594 1.2-.639.8-.918 1.96-.918 3.48s.319 2.68.918 3.48c.639.8 1.477 1.2 2.594 1.2a2.82 2.82 0 0 0 2.554-1.12zM162.088 30h4.151V14.84h-4.151V30zm0-20v2.96h4.151V10h-4.151z" fill-rule="nonzero"/></g><path d="M21.912 26.24c.04.24.04.52.04.76 0 4.96-4.031 9-8.98 9h-8.98V26h8.98c3.073 0 5.867-1.08 8.102-2.88h0c.279-.2.519-.44.798-.68A12.9 12.9 0 0 0 25.944 13c0-7.16-5.827-13-12.972-13H0v18h12.972c2.115 0 4.071.76 5.628 2-1.557 1.24-3.512 2-5.628 2H0v18h12.972c7.144 0 12.972-5.84 12.972-13 0-1.36-.2-2.68-.599-3.92-.998 1.24-2.155 2.28-3.433 3.16zM3.991 14V4h8.98c4.949 0 8.98 4.04 8.98 9 0 1.4-.319 2.68-.878 3.88-2.235-1.8-5.029-2.88-8.102-2.88h-8.98z" fill="#00c3b9" fill-rule="nonzero"/><path d="M25.345 23.08A12.82 12.82 0 0 0 23.908 20c-.758 1.2-1.716 2.24-2.794 3.12.439.96.758 2 .838 3.12 1.237-.88 2.395-1.92 3.393-3.16z" fill="#00969b"/></svg>