<?xml version="1.0" encoding="utf-8"?>
<svg version="1.1" id="Layer_1" xmlns="http://www.w3.org/2000/svg" xmlns:xlink="http://www.w3.org/1999/xlink" x="0px" y="0px"
	width="100px" height="100px" viewBox="0 0 520.04 520.04" style="enable-background:new 0 0 520.04 520.04;" xml:space="preserve">
<g>
	<g>
		<path style="fill:#E8E8E8;" d="M260.02,0C403.6,0,520.04,116.44,520.04,260.02c0,143.58-116.44,260.02-260.02,260.02
			S0,403.6,0,260.02C0,116.44,116.44,0,260.02,0"/>
		<path style="fill:#FFFFFF;" d="M260.02,5.2c140.72,0,254.82,114.1,254.82,254.82s-114.1,254.82-254.82,254.82
			S5.2,400.74,5.2,260.02S119.3,5.2,260.02,5.2"/>
	</g>
	<g>
		<path style="fill:#152864;" d="M378.4,208.89H344.2c1.91-2.02,2.72-3.12,3.93-3.93l47.96-48.19c8.49-9.3,8.2-23.63-0.69-32.53
			c-9.13-8.84-23.69-8.72-32.59,0.35l-0.23,0.23l-40.68,40.56c-3.47,3.47-7.05,6.82-11.33,10.98v-36.4c0.12-1.91,0-3.7-0.46-5.6
			c-2.89-10.63-13-17.51-23.98-16.35c-12.02,0.58-21.32,10.52-21.21,22.53v42.7c-0.98,11.21,5.84,21.73,16.47,25.42
			c13.81,5.6,24.67,16.81,29.82,30.86c3.7,9.65,13.12,16.01,23.52,15.6h42.7c3.58,0,7.16-0.69,10.52-2.02
			c10.4-4.39,16.12-15.6,13.58-26.58C399.03,216.06,389.38,208.55,378.4,208.89L378.4,208.89z M240.19,311.57
			c-15.02-5.72-26.69-17.62-31.95-32.76c-2.14-7.4-8.61-12.65-16.24-13.12c-18.55-0.98-37.15-0.98-55.7,0
			c-12.02,0.81-19.53,12.65-18.49,23.86c1.33,13.35,11.21,21.44,24.56,21.44h27.45c1.56,0,3.12,0,5.6,0.35l-4.28,4.51l-45.53,45.65
			c-9.65,9.19-9.88,24.44-0.69,34.09c0.98,0.98,2.02,1.91,3.12,2.72c9.53,6.53,22.53,5.03,30.28-3.58l46.98-46.98
			c1.21-1.21,2.37-2.25,4.28-3.93c0,2.37,0.35,3.7,0.35,5.03v32.42c-0.23,6.53,2.95,12.77,8.49,16.35c7.4,5.03,16.93,5.6,24.9,1.44
			c7.86-3.7,12.77-11.79,12.31-20.51c0.23-14.68,0-29.47,0-44.14C255.97,324.22,249.73,315.04,240.19,311.57L240.19,311.57z"/>
		<path style="fill:#152864;" d="M234.7,118.41c-10.23-1.44-20.17,4.39-23.86,14.21c-1.1,3.58-1.68,7.28-1.56,11.09
			c-0.23,10.4,0,20.86,0,32.76c-2.89-2.6-4.8-3.93-6.41-5.84l-45.76-45.82c-6.7-6.64-16.93-8.55-25.54-4.62
			c-11.56,5.03-16.93,18.49-11.9,30.16c1.21,2.72,3,5.26,5.14,7.4l30.16,30.16l21.09,20.51l-0.98,1.56h-5.03
			c-10.86,0-21.61-0.58-32.3,0c-13.35,0.58-20.97,10.57-20.22,25.13c1.44,11.44,10.98,20.28,22.53,20.63c14.91,0,29.7-0.46,44.61,0
			c11.67,0.46,19.53-6.82,23.86-16.35c5.6-14.1,16.7-25.13,30.74-30.62c9.53-3.12,15.83-12.02,15.6-21.96
			c0.46-15.37,0.35-30.62,0-46.05C254.87,129.39,246.14,119.74,234.7,118.41L234.7,118.41z M380.31,265.06
			c-16.24,0-32.53-0.35-48.77,0c-9.07,0.12-17.05,5.95-20.05,14.56c-5.6,14.68-17.28,26.12-31.95,31.61
			c-8.72,2.72-14.68,10.86-14.68,19.93c-0.46,17.05-0.46,34.09,0.23,51.02c0.35,11.44,11.67,20.28,23.86,19.53
			c11.9-0.46,21.44-10.11,21.84-22.07v-35.65c1.21,0.69,2.25,1.56,3.35,2.48l16.58,16.58L362.34,395c8.84,9.07,23.23,9.3,32.3,0.46
			c1.68-1.56,3-3.47,4.16-5.37c5.6-9.76,3.58-20.74-5.72-30.16l-45.42-45.42c-1.21-1.21-2.37-2.6-4.04-4.39c2.37,0,3.58-0.23,4.8,0
			l30.39,0.81c12.65,0.46,23.23-9.42,23.75-22.19C402.96,276.15,393.08,265.52,380.31,265.06L380.31,265.06L380.31,265.06
			L380.31,265.06z"/>
	</g>
</g>
</svg>
