<?xml version="1.0"?>
<svg xmlns="http://www.w3.org/2000/svg" xmlns:xlink="http://www.w3.org/1999/xlink" xmlns:svgjs="http://svgjs.com/svgjs" version="1.1" width="512" height="512" x="0" y="0" viewBox="0 0 512 512" style="enable-background:new 0 0 512 512" xml:space="preserve" class=""><g><g xmlns="http://www.w3.org/2000/svg"><g><g><g><g><g><g><g><g><g><g><g><g><g><circle cx="256" cy="256" fill="#f1f1f1" r="256" data-original="#00ed89" style="" class=""/></g></g></g></g></g></g></g></g></g></g></g></g></g><path d="m413.092 297.135-99.392-99.392-8.833 1.234-17.314-17.314-7.354 2.713-18.793-18.793-196.939 167.031 179.08 179.08c4.127.198 8.277.306 12.453.306 115.719 0 213.487-76.786 245.177-182.181l-56.196-56.196z" fill="#f1f1f1" data-original="#00dc80" style="" class=""/><g><path d="m265.013 187.187-51.232-33.801c-11.627 28.61-39.683 48.791-72.468 48.791-21.212 0-40.439-8.458-54.528-22.168-.87 2.076-4.654 11.585-8.327 28.276.227.023 93.613 90.986 93.613 90.986l28.784 3.831 64.158 14.975 28.09-55.973z" fill="#b46d3c" data-original="#b46d3c" style=""/><path d="m415.31 257.648-80.719-14.728v-9.826l-69.579-45.906v130.889l25.81 6.024h157.241l12.018-12.772c.001-26.359-18.84-48.95-44.771-53.681z" fill="#8e562f" data-original="#8e562f" style=""/><path d="m70.763 285.785 101.309 13.485c-2.174-81.823-93.386-90.964-93.613-90.986-3.912 17.773-7.696 43.681-7.696 77.501z" fill="#ce7d46" data-original="#ce7d46" style="" class=""/><path d="m265.013 310.264-55.061-24.479h-145.485v46.829h145.485v-23.021l55.061 23.021 10.643-11.175z" fill="#464646" data-original="#464646" style=""/><path d="m265.013 310.264h202.519v22.35h-202.519z" fill="#2d2d2d" data-original="#2d2d2d" style=""/><g><path d="m238.819 200.97-13.44-8.617 22.587-35.387 13.44 8.617z" fill="#464646" data-original="#464646" style=""/></g><path d="m265.013 187.303-13.487 21.131 13.44 8.616.047-.074 4.168-18.674z" fill="#464646" data-original="#464646" style=""/><path d="m265.013 216.976 22.54-35.313-13.44-8.617-9.1 14.257z" fill="#2d2d2d" data-original="#2d2d2d" style=""/><g><path d="m291.113 233.13-13.44-8.616 22.587-35.387 13.44 8.616z" fill="#2d2d2d" data-original="#2d2d2d" style=""/></g></g></g></g></svg>
