<?xml version="1.0" encoding="utf-8"?>
<svg version="1.1" id="Layer_1" xmlns="http://www.w3.org/2000/svg" xmlns:xlink="http://www.w3.org/1999/xlink" x="0px" y="0px"
	 viewBox="0 0 307.67 150.47" style="enable-background:new 0 0 307.67 150.47;" xml:space="preserve">
<g>
	<g>
		<path style="fill:#006B37;" d="M18.59,122.39V108.2h4.01l3.77,9.84h0.05v-9.84h2.78v14.19h-3.92l-3.88-10.37h-0.03v10.37H18.59z"
			/>
		<path style="fill:#006B37;" d="M33.12,115.3c0-3.75,0-7.33,4.9-7.33c4.88,0,4.88,3.58,4.88,7.33c0,3.71,0,7.33-4.88,7.33
			C33.12,122.64,33.12,119.02,33.12,115.3z M39.91,115.3c0-3.64-0.22-5.22-1.88-5.22c-1.68,0-1.88,1.58-1.88,5.22s0.21,5.2,1.88,5.2
			C39.69,120.51,39.91,118.94,39.91,115.3z"/>
		<path style="fill:#006B37;" d="M56.42,108.2v10.06c0,2.12-1.2,4.37-4.81,4.37c-3.26,0-4.83-1.7-4.83-4.37V108.2h2.97v9.87
			c0,1.75,0.76,2.43,1.83,2.43c1.3,0,1.88-0.87,1.88-2.43v-9.87C53.46,108.2,56.42,108.2,56.42,108.2z"/>
		<path style="fill:#006B37;" d="M63.32,122.39h-2.97V108.2h5.49c2.03,0,3.31,1.32,3.31,3.71c0,1.83-0.69,3.16-2.63,3.49v0.04
			c0.65,0.07,2.57,0.23,2.57,2.79c0,0.91,0.06,3.58,0.34,4.17h-2.91c-0.39-0.87-0.31-1.83-0.31-2.75c0-1.68,0.16-3.11-2.13-3.11
			h-0.76L63.32,122.39L63.32,122.39z M63.32,114.34h1.32c1.18,0,1.51-1.19,1.51-2.09c0-1.36-0.57-1.86-1.51-1.86h-1.32V114.34z"/>
		<path style="fill:#006B37;" d="M75.82,122.39h-2.97V108.2h5.47c2.04,0,3.33,1.32,3.33,3.71c0,1.83-0.71,3.16-2.64,3.49v0.04
			c0.64,0.07,2.57,0.23,2.57,2.79c0,0.91,0.06,3.58,0.33,4.17h-2.9c-0.4-0.87-0.32-1.83-0.32-2.75c0-1.68,0.17-3.11-2.13-3.11h-0.75
			V122.39z M75.82,114.34h1.32c1.17,0,1.51-1.19,1.51-2.09c0-1.36-0.56-1.86-1.51-1.86h-1.32V114.34z"/>
		<path style="fill:#006B37;" d="M85.41,122.39V108.2h2.96v14.19H85.41z"/>
		<path style="fill:#006B37;" d="M95.34,122.39h-2.97V108.2h5.49c2.01,0,3.32,1.32,3.32,3.71c0,1.83-0.72,3.16-2.64,3.49v0.04
			c0.66,0.07,2.57,0.23,2.57,2.79c0,0.91,0.07,3.58,0.35,4.17h-2.92c-0.38-0.87-0.3-1.83-0.3-2.75c0-1.68,0.15-3.11-2.13-3.11h-0.77
			L95.34,122.39L95.34,122.39z M95.34,114.34h1.32c1.19,0,1.51-1.19,1.51-2.09c0-1.36-0.57-1.86-1.51-1.86h-1.32V114.34z"/>
		<path style="fill:#006B37;" d="M120.46,108.2v10.06c0,2.12-1.2,4.37-4.82,4.37c-3.26,0-4.82-1.7-4.82-4.37V108.2h2.97v9.87
			c0,1.75,0.74,2.43,1.82,2.43c1.3,0,1.88-0.87,1.88-2.43v-9.87C117.49,108.2,120.46,108.2,120.46,108.2z"/>
		<path style="fill:#006B37;" d="M124.48,122.39V108.2h4l3.77,9.84h0.04v-9.84h2.76v14.19h-3.9l-3.87-10.37h-0.05v10.37H124.48z"/>
		<path style="fill:#E40521;" d="M145.41,122.39v-19.12h6.44l3.01,12.99h0.04l3.18-12.99h6.22v19.12h-3.88v-14.76h-0.06l-3.68,14.76
			h-3.82l-3.49-14.76h-0.07v14.76H145.41z"/>
		<path style="fill:#E40521;" d="M169.49,112.84c0-5.07,0-9.88,6.6-9.88c6.6,0,6.6,4.81,6.6,9.88c0,4.99,0,9.87-6.6,9.87
			C169.49,122.71,169.49,117.83,169.49,112.84z M178.63,112.84c0-4.9-0.28-7.03-2.54-7.03c-2.24,0-2.53,2.13-2.53,7.03
			c0,4.9,0.29,7.02,2.53,7.02C178.35,119.85,178.63,117.74,178.63,112.84z"/>
		<path style="fill:#E40521;" d="M188.02,122.39v-19.12h5.41l5.08,13.24h0.05v-13.24h3.75v19.12h-5.27l-5.22-13.98h-0.06v13.98
			H188.02z"/>
		<path style="fill:#E40521;" d="M207.86,103.27h6.67c5.24,0,6.22,3.48,6.22,9.45c0,2.94,0.45,9.67-6.38,9.67h-6.51V103.27z
			 M211.85,119.45h1.94c2.43,0,2.9-1.83,2.9-6.61c0-3.53,0-6.63-2.77-6.63h-2.07L211.85,119.45L211.85,119.45z"/>
		<path style="fill:#E40521;" d="M226.08,122.39v-19.12h10.44v2.94h-6.43v4.7h5.93v2.94h-5.93v5.6h6.64v2.94L226.08,122.39
			L226.08,122.39z"/>
		<path style="fill:#006B37;" d="M131.38,135.98h4.95c3.9,0,4.62,2.58,4.62,7.01c0,2.19,0.34,7.17-4.73,7.17h-4.84L131.38,135.98
			L131.38,135.98z M134.35,147.97h1.43c1.81,0,2.16-1.36,2.16-4.91c0-2.62,0-4.92-2.06-4.92h-1.53L134.35,147.97L134.35,147.97z"/>
		<path style="fill:#006B37;" d="M144.9,150.16v-14.18h7.74v2.16h-4.78v3.51h4.41v2.18h-4.41v4.15h4.94v2.19H144.9z"/>
		<path style="fill:#C7D530;" d="M162.69,131.62h6.45c5.09,0,6.04,3.39,6.04,9.16c0,2.85,0.43,9.38-6.2,9.38h-6.29V131.62z
			 M166.55,147.3h1.88c2.36,0,2.82-1.77,2.82-6.41c0-3.41,0-6.42-2.7-6.42h-2V147.3z"/>
		<path style="fill:#C7D530;" d="M180.34,150.16v-18.54h3.87v18.54H180.34z"/>
		<path style="fill:#C7D530;" d="M188.03,131.62h4.02l2.88,13.48h0.06l3.22-13.48h3.83l-4.91,18.54h-4.54L188.03,131.62z"/>
		<path style="fill:#C7D530;" d="M205.83,150.16v-18.54h10.12v2.85h-6.24v4.57h5.75v2.85h-5.75v5.41h6.44v2.85L205.83,150.16
			L205.83,150.16z"/>
		<path style="fill:#C7D530;" d="M224.52,150.16h-3.86v-18.54h7.14c2.65,0,4.33,1.7,4.33,4.84c0,2.38-0.91,4.15-3.43,4.56v0.06
			c0.85,0.09,3.35,0.3,3.35,3.64c0,1.17,0.07,4.67,0.44,5.44h-3.8c-0.51-1.13-0.41-2.38-0.41-3.59c0-2.21,0.21-4.09-2.77-4.09h-1
			L224.52,150.16L224.52,150.16z M224.52,139.63h1.71c1.53,0,1.98-1.53,1.98-2.71c0-1.77-0.75-2.44-1.98-2.44h-1.71V139.63z"/>
		<path style="fill:#C7D530;" d="M242.07,150.47c-4.81,0-5.7-2.82-5.5-6.04h3.87c0,1.78,0.07,3.25,2.22,3.25
			c1.3,0,1.94-0.84,1.94-2.09c0-3.33-7.8-3.54-7.8-9.06c0-2.88,1.38-5.21,6.11-5.21c3.77,0,5.64,1.71,5.39,5.58h-3.77
			c0-1.38-0.23-2.8-1.79-2.8c-1.26,0-2.01,0.69-2.01,1.97c0,3.53,7.8,3.21,7.8,9.04C248.52,149.9,245.02,150.47,242.07,150.47z"/>
		<path style="fill:#C7D530;" d="M253.35,150.16v-18.54h3.87v18.54H253.35z"/>
		<path style="fill:#C7D530;" d="M273.57,131.62v3.08h-4.32v15.45h-3.86v-15.45h-4.31v-3.08H273.57z"/>
		<path style="fill:#C7D530;" d="M277.42,150.16v-18.54h10.11v2.85h-6.24v4.57h5.75v2.85h-5.75v5.41h6.44v2.85L277.42,150.16
			L277.42,150.16z M285.79,126.06l-4.1,3.67h-1.68l2.31-3.67H285.79z"/>
	</g>
	<g>
		<g>
			<path style="fill:#006B37;" d="M101.5,3c-1.05-0.38-2.32-0.87-3.64-0.87c-3.26,0-5.39,2.3-5.39,5.39c0,2.94,2.01,5.13,5.17,5.13
				c0.63,0,1.25-0.25,1.86-0.42V8.59h-2.64V6.57h5.29v7.36c-1.36,0.45-2.92,0.92-4.59,0.92c-5.06,0-8-2.92-8-7.37
				c0-4.52,2.98-7.48,8.18-7.48c1.3,0,2.68,0.46,4.05,0.75L101.5,3z"/>
			<path style="fill:#006B37;" d="M110.39,0.3c3.48,0,5.21,1.22,5.21,3.67c0,1.81-1.04,3.05-2.96,3.49
				c1.07,0.34,1.38,1.07,1.82,2.15l1.97,4.95h-2.96l-1.6-4.31c-0.47-1.3-1.13-1.66-2.49-1.66h-0.89v5.96h-2.77V0.3H110.39z
				 M108.5,6.58h1.44c1.86,0,2.85-0.79,2.85-2.15c0-1.49-0.98-2.15-3.05-2.15h-1.24L108.5,6.58L108.5,6.58z"/>
			<path style="fill:#006B37;" d="M131.56,7.42c0,4.67-2.6,7.42-6.77,7.42c-4.16,0-6.73-2.75-6.73-7.42c0-4.65,2.56-7.42,6.73-7.42
				C128.96,0,131.56,2.79,131.56,7.42z M120.91,7.4c0,3.29,1.6,5.29,3.88,5.29c2.28,0,3.91-2.03,3.91-5.29
				c0-3.27-1.63-5.28-3.91-5.28C122.52,2.11,120.91,4.13,120.91,7.4z"/>
			<path style="fill:#006B37;" d="M137.25,0.3v8.37c0,2.71,0.87,4.01,2.86,4.01c2.01,0,3.03-1.39,3.03-4.12V0.3h2.66v8.29
				c0,4.16-1.92,6.26-5.72,6.26c-3.72,0-5.65-2.07-5.65-6.14V0.3C134.44,0.3,137.25,0.3,137.25,0.3z"/>
			<path style="fill:#006B37;" d="M153.66,0.3c3.66,0,5.45,1.39,5.45,4.45c0,2.72-1.9,4.39-5.34,4.39h-1.52v5.42h-2.82V0.3H153.66z
				 M152.25,7.12h1.15c1.85,0,2.82-0.86,2.82-2.37c0-1.57-0.94-2.43-2.66-2.43h-1.32V7.12z"/>
			<path style="fill:#006B37;" d="M170.29,0.3v2.05h-5.9v3.77h5.6v2.11h-5.6v4.17h6.1v2.16h-8.92V0.3H170.29z"/>
		</g>
		<path style="fill:#006B37;" d="M1.86,102.29c-1.75-0.19-3.01-1.24-0.23-2.69c0,0,107.54-18.33,166.33-21.69
			c58.79-3.34,102.82-5.13,139.71,0.45l-13.85,10.51c0,0-29.98-2.66-53.65-3.58c-11.42-0.45-52.54-1.79-100.61,1.78
			C98.03,90.16,33.03,96.49,5.22,101.83C5.21,101.83,3.35,102.43,1.86,102.29z"/>
		<g>
			<g>
				<path style="fill:#006B37;" d="M72,20.46l0.19,0.68c0.18,0.47,0.29,0.64,0.98,0.6c6.85-0.25,11.95-5.24,11.95-8.01
					c0-3.24-3.25-7.33-16.75-7.33c-39.68,0-65.24,19.35-67.04,40.33c-2.36,27.71,36,41.63,68.54,32.49
					c7.44-2.1,11.63-4.89,11.73-6.13c0.1-1.19,0.06-2.02-0.12-2.88c-2.24,1.09-4.52,2.02-6.82,2.81
					c-26.46,9.01-58.13-2.05-55.95-27.61c1.56-18.39,23.76-33.94,47.38-33.73c1.41,0.01,2.71,0.08,3.84,0.3
					c3.38,0.58,4.65,2.11,4.64,3.86C74.52,17.38,73.49,19.08,72,20.46z"/>
				<path style="fill:#006B37;" d="M118.77,29.51c0.76-1.61,0.51-2.87-1.02-3.26c-2.26-0.58-5.73-1.06-8.61-1.19
					c-30.64-1.38-52.01,17.96-52.6,32.43c-0.25,6.07,3,10.04,10.77,10.04c8.54,0,18.82-5.05,25.68-10.63
					c1.71-1.39,1.94-0.79,1.68,0.3c-1.31,5.14-0.85,9.59,3.73,9.82c5.14,0.23,11.65-2.64,13.81-3.79c0.19-0.11,0.45-0.77,0.26-2.11
					c-2.82-0.17-3.86-2.9-3.16-6.07C110.81,48.26,116.19,35.1,118.77,29.51z M76.05,59.3c-2.64-0.12-4.15-2-4.05-4.6
					c0.47-11.33,16.17-25.75,32.15-23.34C96.64,50.29,83.96,59.66,76.05,59.3z"/>
				<path style="fill:#006B37;" d="M157.57,33.41c0.23,0.41,0.37,0.44,0.91,0.22c2.38-1.03,5.06-3.25,5.13-5.17
					c0.09-2.41-2.94-4.1-11.51-4.48c-13.74-0.61-25.13,4.27-25.13,12.5c0,9.97,18.55,11.21,18.55,19.38c0,4-3.82,7.38-11.85,7.4
					c-5.45,0.04-10.21-1.96-10.21-6.31c0-2.79,2.24-6.11,10.52-8.27c-1.16-1.53-1.76-1.7-3.32-1.45c-9.55,1.6-15,5.71-15.22,10.68
					c-0.22,5.48,4.04,9.95,19.53,9.95c17.45,0,25.06-8.4,25.06-15.83c0-8.29-11.5-12.57-16.58-16.38c-1.6-1.21-2.28-2.47-2.28-3.58
					c-0.02-2.21,2.31-4.4,8.59-4.45c3.03-0.03,5.93,0.68,7.21,1.93c1.07,0.99,1.12,2.35,0.47,3.62L157.57,33.41z"/>
				<path style="fill:#006B37;" d="M284.87,22.84c-15.22-0.7-27.05,11.55-29.04,24.02c-10.89,12.69-15.75,11.11-14.75,6.52
					c1.21-5.51,8.08-19.6,8.31-24.97c0.13-2.96-1.64-5.12-5.37-5.28c-6.2-0.28-16.4,6.61-25.72,15.15
					c-1.62,1.49-2.82,0.76-2.22-0.81c1.46-4.07,2.21-6.16,3.61-10.1c0.26-0.89,0.22-1.33-0.34-1.79c-2.01-1.77-3.8-2.67-5.47-2.71
					c-1.8-0.06-3.15,0.79-4.37,2.34c-8.07,7.93-24.26,31.98-29.78,31.73c-0.96-0.04-1.87-0.42-1.81-1.91
					c0.13-3.33,10.01-26.77,10.11-29.5c0.07-1.45-1.07-1.81-1.73-1.85c-2.46-0.09-13.7,4.13-15.02,5.43
					c-0.4,0.4-0.55,1.21-0.76,2.19c1.19-0.04,2.42,0.7,1.79,3.05c-1.47,5.43-8.83,22.75-8.97,26.49c-0.13,3.35,1.69,5.21,5.15,5.36
					c9.65,0.42,19.45-7.33,32.03-23.22c-3.23,7.23-5.45,13.28-5.63,17.78c-0.16,4.36,5.6,5,9.04,4.52c1.21-0.16,1.3-0.18,1.7-1.54
					c1.16-4.03,5.45-12.02,14.43-20.9c4.3-4.26,9.54-8.47,12.01-8.37c1.83,0.09,2.09,1.85,1.85,2.91c-0.9,4.25-4,11.53-6.08,17.87
					c-1.94,5.99,0.7,9.71,5.33,9.93c6.29,0.28,14.31-3.64,22.53-12.19c0.9,6.82,5.61,12.49,14.07,12.88
					c15.41,0.68,29.64-11.38,30.29-27.62C300.44,29.26,293.65,23.23,284.87,22.84z M287.46,40.03c-2.06,10.85-9.82,19.06-16.96,18.7
					c-4.52-0.21-5.9-5.22-4.86-10.72c1.69-8.93,9.02-18.54,16.57-18.18C286.25,30.04,288.6,33.99,287.46,40.03z"/>
				<path style="fill:#006B37;" d="M176.47,21.92c-1.13-0.3-1.49-0.53-1.13-2.35c0.48-2.47,1.13-5.33,1.77-7.69
					c0.98-3.56,2.92-5.56,8.38-6.14c4.45-0.51,10.01-0.89,13.57-2.45c-3.82,12.98-16.35,9.5-21.96,18.79L176.47,21.92z"/>
			</g>
		</g>
	</g>
</g>
</svg>
