<?xml version="1.0" encoding="utf-8"?>
<svg version="1.1" id="Layer_1" xmlns="http://www.w3.org/2000/svg" xmlns:xlink="http://www.w3.org/1999/xlink" x="0px" y="0px"
	 viewBox="0 0 165.13 74" style="enable-background:new 0 0 165.13 74;" xml:space="preserve">
<g>
	<polygon style="fill:#0000ED;" points="165.13,34.85 165.13,0 0,0 0,34.85 	"/>
	<polygon style="fill:#ED0000;" points="165.13,74 165.13,39.15 0,39.15 0,74 	"/>
	<path style="fill:#FFFFFF;" d="M47.29,4.98h-9.45l-4.32,24.89h7.12l1.34-7.81h3.71c8.89,0,11.26-5.44,11.26-9.92
		C56.96,6.31,52.17,4.98,47.29,4.98z M45.87,16.97h-2.93l1.12-6.9h3.11c1.38,0,3.11,0.56,3.11,3.02
		C50.27,14.99,49.15,16.97,45.87,16.97z M72.67,4.37c-9.45,0-13.72,7.38-13.72,14.76c0,7.29,4.36,11.35,11.87,11.35
		c9.4,0,13.68-7.38,13.68-14.72C84.49,8.47,80.13,4.37,72.67,4.37z M70.94,24.82c-2.5,0-4.57-1.42-4.57-6.08
		c0-4.27,1.6-8.72,6.21-8.72c2.46,0,4.57,1.42,4.57,6.14C77.15,20.38,75.51,24.82,70.94,24.82z M109.98,11.75
		c0-5.65-4.75-6.77-9.28-6.77H90.66l-4.27,24.89h7.12l1.55-9.1h2.98l3.58,9.1h7.29l-4.36-10.05
		C108.39,18.61,109.98,15.24,109.98,11.75z M99.11,16.02h-3.24l1.08-6.13h3.24c1.38,0,3.02,0.52,3.02,2.68
		C103.21,14.04,102.48,16.02,99.11,16.02z M133.15,10.71h-6.81l-3.28,19.16h-7.13l3.32-19.16h-6.82l0.95-5.74h20.8
		C134.19,4.98,133.15,10.71,133.15,10.71z M133.41,27.45l2.46-4.7c2.17,1.37,4.68,2.1,7.25,2.12c1.69,0,3.97-0.34,3.97-2.29
		c0-1.12-0.73-1.69-2.54-2.12l-2.38-0.56c-3.62-0.86-6.35-2.8-6.35-6.73c0-3.15,1.47-5.44,3.58-6.9c2.07-1.47,4.83-1.81,6.73-1.81
		c2.85,0,6.43,0.82,8.89,2.8l-2.54,4.7c-2.72-1.81-4.87-2.12-6.82-2.12c-1.6,0-3.28,0.42-3.28,2.07c0,0.99,0.6,1.51,2.68,2.07
		l2.89,0.78c4.05,1.08,6.08,3.54,6.08,6.64c0,5.35-4.32,8.98-10.96,8.98C140.01,30.39,136.13,29.78,133.41,27.45L133.41,27.45z
		 M10.1,27.45l2.46-4.7c2.17,1.37,4.68,2.1,7.25,2.12c1.69,0,3.97-0.34,3.97-2.29c0-1.12-0.73-1.69-2.54-2.12l-2.38-0.56
		c-3.62-0.86-6.34-2.8-6.34-6.73c0-3.15,1.47-5.44,3.58-6.9c2.07-1.47,4.83-1.81,6.73-1.81c2.85,0,6.43,0.82,8.89,2.8l-2.54,4.7
		c-2.72-1.81-4.87-2.12-6.82-2.12c-1.6,0-3.28,0.42-3.28,2.07c0,0.99,0.6,1.51,2.67,2.07l2.89,0.78c4.06,1.08,6.08,3.54,6.08,6.64
		c0,5.35-4.31,8.98-10.96,8.98C16.71,30.39,12.83,29.78,10.1,27.45L10.1,27.45z M32.28,46.03c-2.16-1.21-5.39-1.9-9.02-1.9h-8.11
		l-4.36,24.9h11.17c10.31,0,14.97-6.77,14.97-13.94C36.94,50.86,35.39,47.75,32.28,46.03L32.28,46.03z M22.05,63.8h-2.93l2.54-14.45
		h2.33c2.98,0,5.39,1.51,5.39,5.87C29.39,58.93,27.88,63.8,22.05,63.8z M39.31,69.02l4.36-24.9h7.42l-4.36,24.9H39.31z
		 M104.28,57.98c0-6.21,3.54-14.45,13.68-14.45c6.21,0,9.88,2.8,11.04,7.16l-6.51,2.12c-0.69-2.8-2.33-3.58-4.66-3.58
		c-4.66,0-6,5.09-6,8.72c0,3.49,1.42,6.04,4.7,6.04c2.89,0,4.66-1.51,5.52-3.63l5.91,2.42c-1.63,3.49-5.18,6.86-11.73,6.86
		C108.52,69.63,104.29,65.57,104.28,57.98L104.28,57.98z M153.34,49.87h-7.41l-3.37,19.16h-7.33l3.37-19.16h-7.39l0.99-5.74h22.13
		L153.34,49.87L153.34,49.87z M76.89,50.9c0-5.65-4.75-6.77-9.28-6.77H57.09L52.7,69.02h7.33l1.6-9.1h2.92l3.58,9.1h7.68
		l-4.36-10.05C75.25,57.63,76.89,54.39,76.89,50.9L76.89,50.9z M65.62,55.17h-3.14l1.08-6.13h3.15c1.38,0,3.02,0.52,3.02,2.67
		C69.73,53.19,68.99,55.17,65.62,55.17L65.62,55.17z M90.39,49.48l-0.78,4.23h9.29l-0.95,5.35h-9.27l-0.82,4.62h12.64l-0.91,5.35
		H79.53l4.36-24.9h19.5l-0.91,5.35L90.39,49.48z"/>
</g>
</svg>
