<svg xmlns="http://www.w3.org/2000/svg" xmlns:xlink="http://www.w3.org/1999/xlink" viewBox="0 0 172.9 60.4"><path d="M33.5 38.5c9.6-13.1-1-18.9-1-18.9s11.7-2 14.6-8.7c2.8-6.7-2.2-9.4-3.2-9.7C40.3.1 36.7-.1 31.4.7c-3.4.5-7.2 1.5-11.3 3.7-3.8 2-1.1 3.9-1.1 3.9s1.5.8 4.8-.3C23.8 8 6.9 26.9 0 47.8c-.5 1.5 4.2 2 4.6 1.4s.9-2.4 1.9-2.4c1-.1 17.4 4.7 27-8.3zM32.3 6.7c.7-.6.3-.6.3-1.4 0-.7 1.4-.2 1.7-.3.4-.2 10.1-.9 7 4-3.4 5.5-17.1 7.6-17.1 7.6 1.2-1.9 7.7-9.6 8.1-9.9zm-3.9 28.6c-8.9 12.1-20 6.5-20 6.5C9.6 37.1 18.9 21 20.3 21.1c.4 0 1 1.4 5.8.3 2.8-.6 7.8 6.4 2.3 13.9zm61.3 8.5c1.3.9 8.9 3.9 12-1.6 4.1-7.3 2.1-10.6 1.2-13-.5-1.3-.6-2 0-3 1-1.7 1.7-1.6 3.7-1.7s1.8-1 1.8-2.2-1.7-2.6-4.3-2.3c-2.6.2-5 3.4-5.8 4.1s-9 12.3-9.6 13.1-1.4 2.5-2.6 1.9c-1.1-.6.6-2.9 2-5 1.3-2.1 3.4-4.6 5.1-8s-.4-3.3-1.7-3.4c-1-.1-2.5 1.1-3.7 3.1-.8 1.2-5.1 7.9-7.5 10.6-2.4 2.6-3.4 2-3.7 2-.4 0-1.2-.4-1.2-1.9s3.2-5.5 3.8-6.2 3.7-4.5 5.1-5.9 1-1.9 1-2.2c0-.2-.4-1.1-2.8-.7s-4.9 3.6-7 5.8c-2.1 2.1-2.8 4.5-5.6 8-2.9 3.6-5.1 4.2-7.4 4.4-2.2.2-1.6-2.1-1.1-2.9s6.2-4.9 8.3-6.8c1.9-2.1 2.8-2.9 10.1-10.9s7.4-12.2 7.5-12.9S88 1.5 85 .5c-2.1-.7-4-1.2-10.3 3.3-6.9 4.8-14.3 21.4-15.3 23.9s-3.9 6.5-3.9 6.5-4.4 5.5-10.6 6-2.1-5.5-2.1-5.5c5.8.8 8.8-1.5 10.9-3.1s4.4-4.7 4.1-7.6-2.1-3.8-6.6-3.4-8.4 4.9-11.4 9.2c-2.4 3.4-3.4 6.8-3.2 9.9s2.8 4.8 7 5.1 7.8-2.1 9.7-3.5 2.3-.8 2.8-.2c.5.5.2 2 3.1 2.8s5.6-.3 8.6-2.2 2.5-1.6 3.3-1.2c.8.3.1 2 3.3 2.6s4.5-1.1 5.9-1.9c1.5-.8 1.8-.5 2 .9s.7 2.3 2.4 2.4c2.1-.1 3.5-1.7 5-.7zm5.1-7.3c3.3-4.2 3.5-4.3 4.7-4.1 1.1.2.5 2.1 0 4.6-.6 2.5-4.1 5.8-6 4.6s1.3-5.1 1.3-5.1zM74.6 11.1c2.8-3.9 6.2-5.9 7.4-4.9 1.1 1 1.1 1.3-2.4 6.4-3.9 5.7-15 15.2-15 15.2 2.3-6.2 7.7-13.5 10-16.7zM45.9 29.8c2-3.8 3.7-4.1 4.7-4.2s2.5.7 1.1 2.4c-1.7 2.1-4 2.5-5.2 2.7-1.5.4-.6-.9-.6-.9zm94.1 5c-2.5 4.6-3.7 6.1-5.5 7-1.5.7-1.7.6-3.1-.2s2.1-4.2 3-5.3 3.1-3.9 3.6-5.2c.5-1.2 1.3-2.2-.8-3-1.3-.5-1.5-1-4 1.1s-4.2 6-4.7 6.8-1.6 3.4-3.8 3.6-2-1.6-1-3l4.1-5.7c.9-1.1 2.3-4.4.2-5.8s-6.9 1.5-9.5 3.5l-4.3 3.5c-.5.4-1.6.9-1-.6l1.4-3.2c.4-.5 9.7-4.9 14.4-10.9s6.8-10.5 6.3-13.7-2.3-5-8.6-1.7c-6.5 3.4-17.3 25.5-18.1 27.6l-4.1 10.8s-1.5 3.1 1.4 3.5c1.7.3 3.3-1.1 3.3-1.1s3.3-3.4 3.9-3.9c.6-.6 3.6-3.7 4.5-3.8 1-.2 1.7-.7 1.3.4s-2.7 4.8-.9 6.9 3.8 2.3 4.1 2.3 2 0 3.2-.8c1.2-.9 1.4-1 1.8-.3s.7 2.9 3.1 3.2 5 .5 7.2-1.2c2.3-1.7 6.7-5.9 7-10.4.2-3.2-3.6-1.9-4.4-.4zm-21.8-15.2c.9-2 5.6-9.5 8.7-12.3s3-2.1 3.3-1.4c.4.8.1 2.2-3 6.1-3 3.9-6.7 7.4-8.5 8.2 0 0-1.2.8-.5-.6zm42.3 3.4c-1.5 0-2.8 0-5.2 2.1-2.3 2-5.5 5.9-13.5 18.8-.3.4-.5.8-.7 1.5-.1.5 0 1.4.9 1.8 1.7.7 2.8 0 3.3-.5.2-.2.1-1 1.4.5 1.7 1.9 2.1 2.1 5 2.1 2.8 0 5.4-1.5 6.3-3.2 1-1.7 3.3-6.2 1.9-10.4-1.4-4.3-1.7-5.1-1.3-6 .4-1 .5-1.5 1.9-1.5 1.5 0 3 .4 3.5-1.8.6-2.4-2-3.4-3.5-3.4zm-7.9 20.6c-1 .8-1.8 1.2-2.7.8-1.3-.6 0-2.7 0-2.7.4-.8 3.1-5.3 4.4-5.3.9 0 1.1.8 1.1 2.6-.1 2.2-1.9 3.8-2.8 4.6zM139.3 27c1.9.5 4.2-.8 5.3-3.2.9-1.9.2-2.9-.6-3.7-.7-.7-4.4-.9-5.9 2.5-1.7 3.8 1.2 4.4 1.2 4.4zm14.4-9.6c2.2-1 5.2-2.4 7.9-9.5 1.7-4.5-1.5-5.3-2.4-5.5-2.4-.6-2.7 1.9-2.9 3.3-.2 1.2-.6 4.9-5.2 7.8-2.5 1.6-1.9 2.3-.9 3.5.4.6 1.3 1.4 3.5.4zM165.3.7h1.3v3.6h.5V.7h1.2V.3h-3zm7.3-.4h-.7l-.7 2c-.2.5-.3 1-.4 1.4h0c-.1-.4-.2-.9-.4-1.4l-.7-2h-.7l-.3 4.1h.5l.1-1.7c0-.6.1-1.3.1-1.8h0c.1.5.3 1 .5 1.6l.7 1.9h.4l.7-2 .5-1.5h0c0 .5 0 1.2.1 1.8l.1 1.8h.5l-.3-4.2zM15.9 58.9h1.2v-2.4h2.2v-1.1h-2.2V54h2.6v-1.1h-3.8z"/><use xlink:href="#B"/><path d="M31.5 52.8a3.12 3.12 0 0 0-3.1 3.1 3.12 3.12 0 0 0 3.1 3.1 3.12 3.12 0 0 0 3.1-3.1 3.12 3.12 0 0 0-3.1-3.1zm0 5c-1 0-1.8-.9-1.8-1.9 0-1.1.8-2 1.8-2s1.9.9 1.9 2-.9 1.9-1.9 1.9zm6.4-4.9h-2v6h2c1.9 0 3.3-1.2 3.3-3s-1.4-3-3.3-3zm0 4.9h-.8V54h.8c1.3 0 2.1.7 2.1 1.9 0 1.1-.9 1.9-2.1 1.9zm11.7-4.9h-2v6h2c1.9 0 3.3-1.2 3.3-3 .1-1.8-1.3-3-3.3-3zm0 4.9h-.8V54h.8c1.3 0 2.1.7 2.1 1.9.1 1.1-.8 1.9-2.1 1.9zm9.1-3c0-1.1-.9-1.9-2.3-1.9h-2.1v6h1.2v-2.2h.9l1.2 2.2H59l-1.4-2.4c.7-.3 1.1-.9 1.1-1.7zm-2.2.8h-1.1v-1.7h1.1c.6 0 1 .3 1 .9 0 .5-.4.8-1 .8zm3.5-2.7h1.2v6H60zm6.5 4.1l-2.8-4.1h-1.2v6h1.1v-4.1l2.8 4.1h1.3v-6h-1.2zm7.2-4.1h-1.3l-1.7 2.4h-.6v-2.4h-1.2v6h1.2v-2.5h.6l1.7 2.5h1.4l-2.1-3.1z"/><use xlink:href="#C"/><path d="M87.7 52.9h-2.1v6h1.2v-2h.9c1.5 0 2.4-.8 2.4-2s-.9-2-2.4-2zm.1 2.9h-1.1v-1.9h1.1c.6 0 1.1.4 1.1 1 0 .5-.4.9-1.1.9z"/><use xlink:href="#B" x="70.4"/><path d="M103.3 54.8c0-1.1-.9-1.9-2.3-1.9h-2.1v6h1.2v-2.2h.9l1.2 2.2h1.4l-1.4-2.4c.6-.3 1.1-.9 1.1-1.7zm-2.2.8H100v-1.7h1.1c.6 0 1 .3 1 .9 0 .5-.4.8-1 .8zm3.5-1.6h1.8v4.9h1.1V54h1.8v-1.1h-4.7zm7.2.5c0-.4.3-.6.9-.6a1.75 1.75 0 0 1 1.4.7l.8-.8c-.4-.6-1.2-1-2.2-1-1.3 0-2.2.7-2.2 1.7 0 2.1 3.1 1.6 3.1 2.7 0 .4-.4.7-1 .7s-1.1-.3-1.5-.7l-.8.8c.4.6 1.1 1.1 2.3 1.1 1.4 0 2.3-.8 2.3-1.9.1-2.2-3.1-1.7-3.1-2.7zm12.7 1.3l-1.9-2.9h-1.3v6h1.1v-4.2l2 3 2-3v4.2h1.2v-6h-1.2zm8.1.6c0 .8-.5 1.4-1.3 1.4s-1.3-.6-1.3-1.4v-3.5h-1.2v3.5c0 1.5 1 2.6 2.4 2.6 1.5 0 2.5-1 2.5-2.6v-3.5h-1.1v3.5z"/><use xlink:href="#C" x="55"/><path d="M140.6 52.9h1.2v6h-1.2zm5.5 1c.6 0 1.1.2 1.4.5l.8-.9c-.5-.5-1.2-.8-2.2-.8a3.12 3.12 0 0 0-3.1 3.1 3.05 3.05 0 0 0 3.1 3.1c1 0 1.7-.3 2.2-.8l-.8-.9c-.3.3-.8.5-1.4.5-1.1 0-1.9-.9-1.9-1.9.1-1 .9-1.9 1.9-1.9zM43.8 51.4h1.3v9h-1.3zm32.4 0h1.3v9h-1.3zm41.2 0h1.3v9h-1.3z"/><defs ><path id="B" d="M24.1 52.8a3.12 3.12 0 0 0-3.1 3.1 3.12 3.12 0 0 0 3.1 3.1 3.12 3.12 0 0 0 3.1-3.1 3.12 3.12 0 0 0-3.1-3.1zm0 5c-1 0-1.8-.9-1.8-1.9 0-1.1.8-2 1.8-2s1.9.9 1.9 2c-.1 1.1-.9 1.9-1.9 1.9z"/><path id="C" d="M81.3 54.5c0-.4.3-.6.9-.6a1.75 1.75 0 0 1 1.4.7l.8-.8c-.4-.6-1.2-1-2.2-1-1.3 0-2.2.7-2.2 1.7 0 2.1 3.1 1.6 3.1 2.7 0 .4-.4.7-1 .7s-1.1-.3-1.5-.7l-.8.8c.4.6 1.1 1.1 2.3 1.1 1.4 0 2.3-.8 2.3-1.9 0-2.2-3.1-1.7-3.1-2.7z"/></defs></svg>