<?xml version="1.0"?>
<svg xmlns="http://www.w3.org/2000/svg" xmlns:xlink="http://www.w3.org/1999/xlink" xmlns:svgjs="http://svgjs.com/svgjs" version="1.1" width="512" height="512" x="0" y="0" viewBox="0 0 460 460" style="enable-background:new 0 0 512 512" xml:space="preserve" class=""><g>
<g xmlns="http://www.w3.org/2000/svg">
	<path style="" d="M230,0C102.974,0,0,102.975,0,230c0,99.311,62.943,183.919,151.112,216.112l295-295   C413.919,62.943,329.311,0,230,0z" fill="#f1f1f1" data-original="#ffc240" class=""/>
	<path style="" d="M460,230c0-27.714-4.904-54.283-13.888-78.888L360,65L100,395l51.112,51.112   C175.717,455.096,202.285,460,230,460C357.026,460,460,357.025,460,230z" fill="#f1f1f1" data-original="#ff984c" class=""/>
	<polygon style="" points="100,65 100,395 210,395 220,230 210,65  " fill="#096c80" data-original="#096c80" class=""/>
	<g>
		<polygon style="" points="320,65 310,230 320,395 360,395 360,65   " fill="#03242b" data-original="#03242b" class=""/>
	</g>
	<g>
		<polygon style="" points="320,85 310,230 320,375 340,375 340,85   " fill="#ffffff" data-original="#ffffff"/>
	</g>
	<g>
		<rect x="210" y="65" style="" width="110" height="330" fill="#064855" data-original="#064855" class=""/>
	</g>
	<path style="" d="M200.292,220H210l10-10l-10-10h-9.708c1.273-21.7,6.482-34.989,9.708-39.084l10-10.458L210,140   c-38.598,0-70,31.402-70,70s31.402,70,70,70l10-10.458l-10-10.458C206.774,254.989,201.565,241.7,200.292,220z M161.006,220h19.253   c0.631,12.128,2.433,23.868,5.492,33.706C173.206,246.718,163.96,234.492,161.006,220z M180.26,200h-19.253   c2.954-14.492,12.199-26.718,24.746-33.706C182.693,176.132,180.891,187.872,180.26,200z" fill="#ffd170" data-original="#ffd170"/>
	<polygon style="" points="140,300 140,320 210,320 220,310 210,300  " fill="#ffd170" data-original="#ffd170"/>
	<rect x="210" y="300" style="" width="70" height="20" fill="#f1f1f1" data-original="#ffc240" class=""/>
	<path style="" d="M280,210c0-38.598-31.402-70-70-70v20.916c3.226,4.095,8.435,17.384,9.708,39.084H210v20h9.708   c-1.273,21.7-6.482,34.989-9.708,39.084V280C248.598,280,280,248.598,280,210z M234.248,253.706   c3.059-9.838,4.861-21.578,5.492-33.706h19.253C256.04,234.492,246.794,246.718,234.248,253.706z M239.74,200   c-0.631-12.128-2.433-23.868-5.492-33.706c12.546,6.988,21.792,19.214,24.746,33.706H239.74z" fill="#f1f1f1" data-original="#ffc240" class=""/>
</g>
<g xmlns="http://www.w3.org/2000/svg">
</g>
<g xmlns="http://www.w3.org/2000/svg">
</g>
<g xmlns="http://www.w3.org/2000/svg">
</g>
<g xmlns="http://www.w3.org/2000/svg">
</g>
<g xmlns="http://www.w3.org/2000/svg">
</g>
<g xmlns="http://www.w3.org/2000/svg">
</g>
<g xmlns="http://www.w3.org/2000/svg">
</g>
<g xmlns="http://www.w3.org/2000/svg">
</g>
<g xmlns="http://www.w3.org/2000/svg">
</g>
<g xmlns="http://www.w3.org/2000/svg">
</g>
<g xmlns="http://www.w3.org/2000/svg">
</g>
<g xmlns="http://www.w3.org/2000/svg">
</g>
<g xmlns="http://www.w3.org/2000/svg">
</g>
<g xmlns="http://www.w3.org/2000/svg">
</g>
<g xmlns="http://www.w3.org/2000/svg">
</g>
</g></svg>
