<?xml version="1.0" encoding="utf-8"?>
<svg version="1.1" id="Layer_1" xmlns="http://www.w3.org/2000/svg" xmlns:xlink="http://www.w3.org/1999/xlink" x="0px" y="0px"
	width="100px" height="100px" viewBox="0 0 520.04 520.04" style="enable-background:new 0 0 520.04 520.04;" xml:space="preserve">
<g>
	<g>
		<path style="fill:#E8E8E8;" d="M260.02,0C403.6,0,520.04,116.44,520.04,260.02c0,143.58-116.44,260.02-260.02,260.02
			S0,403.6,0,260.02C0,116.44,116.44,0,260.02,0"/>
		<path style="fill:#FFFFFF;" d="M260.02,5.2c140.72,0,254.82,114.1,254.82,254.82s-114.1,254.82-254.82,254.82
			S5.2,400.74,5.2,260.02S119.3,5.2,260.02,5.2"/>
	</g>
	<g>
		<defs>
			<path id="SVGID_4_" d="M146.31,97.14c-9.64,1.97-16.57,10.45-16.59,20.3V402c-0.08,11.46,9.14,20.82,20.6,20.9
				c0.05,0,0.1,0,0.15,0h218.86c11.46,0.14,20.86-9.04,21-20.5c0-0.13,0-0.27,0-0.4V117.44c-0.13-9.75-7.04-18.09-16.59-20.05
				L146.31,97.14z"/>
		</defs>
		<clipPath id="SVGID_1_">
			<use xlink:href="#SVGID_4_"  style="overflow:visible;"/>
		</clipPath>
		<g style="clip-path:url(#SVGID_1_);">
			
				<linearGradient id="SVGID_2_" gradientUnits="userSpaceOnUse" x1="-1127.291" y1="81.0614" x2="-1127.0366" y2="81.0614" gradientTransform="matrix(0 -1281.5762 1281.5762 0 -103626.4219 -1444279.75)">
				<stop  offset="0" style="stop-color:#1E3D84"/>
				<stop  offset="0.45" style="stop-color:#1C98D5"/>
			</linearGradient>
			<path style="fill:url(#SVGID_2_);" d="M129.72,97.14h260.36v325.61H129.72V97.14z"/>
		</g>
	</g>
	<g>
		<path style="fill:#FFFFFF;" d="M242.4,259.75h-2.71c-10.21-0.24-20.33-1.93-30.07-5.01c5.46,0.76,10.97,1.16,16.49,1.2
			c9.45,0.31,18.83-1.65,27.36-5.71c11.47-5.5,20.5-15.05,25.36-26.81l0.65-1.65c0-0.5-0.35-0.95-1.1-1.45h-0.55l-1.85,1.05
			c-2.67,1.75-5.6,3.08-8.67,3.96c-7.75,2.51-15.86,3.75-24.01,3.66c-4.38-0.11-8.75-0.48-13.08-1.1
			c-38.84-4.36-53.93-15.04-53.93-37.44v-30.57h38.89v30.07c0.13,10.36,5.08,20.07,13.38,26.26c6.18,4.53,13.69,6.87,21.35,6.67
			c6.99-0.23,13.8-2.29,19.75-5.96c9.97-4.95,16.23-15.18,16.09-26.31v-30.57h39.69v31.37c0,23.55-10.02,42-28.47,53.32
			c-16.64,9.57-35.44,14.75-54.63,15.04 M272.77,199.5c-1.35,2.51-4.21,5.36-5.76,5.36h-0.3c-0.59-0.48-1.06-1.1-1.35-1.8
			c-0.71-1.29-1.55-2.5-2.51-3.61c-1.15-1.79-2.65-3.32-4.41-4.51l-0.8-0.65v-0.65c1.07-1.45,1.65-3.21,1.65-5.01l0,0l0.25-0.65
			c2.66-0.21,5.28-0.8,7.77-1.75c0.69-0.22,1.33-0.56,1.9-1c0.78-0.67,1.66-1.21,2.61-1.6c0.35-0.2,0.75-0.3,1.15-0.3
			c1,0,1.3,1.6,1.6,3.51c-0.03,0.37-0.03,0.74,0,1.1c-0.06,4.01-0.81,7.97-2.21,11.73 M257.14,211.33l-2.05,0.6
			c-1.38,0.19-2.77,0.29-4.16,0.3c-2.4-0.06-4.78-0.37-7.12-0.9c-1.7-0.35-4.51-1.4-4.16-3.26c0.35-1.85,1.3-2.21,2.46-3.31
			c0.69-0.63,1.34-1.3,1.95-2c1.56-1.75,2.76-3.79,3.51-6.01h0.9c0.77,0.28,1.58,0.43,2.41,0.45c0.89,0,1.77-0.15,2.61-0.45h0.55
			c0.77,2.46,1.94,4.78,3.46,6.87c0.6,0.85,1.2,1.55,1.75,2.21c0.55,0.65,1.7,1.95,1.6,2.91
			C260.74,209.68,259.39,210.78,257.14,211.33 M236.69,201.31c-1.2,1.55-1.85,2.36-2.61,2.41c-2.3-0.57-4.23-2.13-5.26-4.26
			c-1.41-3.74-2.17-7.68-2.26-11.68c0.25-3.06,0.8-4.21,2.1-4.21l0,0c1.13,0.17,2.2,0.58,3.16,1.2c0.83,0.52,1.72,0.95,2.66,1.25
			l0,0c2.51,0.87,5.09,1.51,7.72,1.9v0.6c0.04,1.8,0.61,3.54,1.65,5.01v0.5c-0.34,0.27-0.71,0.51-1.1,0.7
			c-1.76,1.02-3.31,2.36-4.56,3.96c-0.68,0.8-1.31,1.64-1.9,2.51 M232.78,172.74l0.5-0.7c2.53-3.09,6.09-5.17,10.02-5.86
			c0.8-0.2,1.63-0.3,2.46-0.3c0.8-0.09,1.61,0.12,2.26,0.6c0.13,0.34,0.13,0.71,0,1.05c0,1.4,0,2.16-0.3,2.86
			c-0.06,0.93-0.06,1.87,0,2.81c-0.05,2.2,0.22,4.39,0.8,6.52v0.55l-0.55,0.4c-1.67,0.56-3.12,1.65-4.11,3.11l0,0
			c-0.42-0.28-0.82-0.58-1.2-0.9c-1.34-1.18-2.91-2.07-4.61-2.61c-1.21-0.46-2.45-0.84-3.71-1.15c-1.09-0.16-2.11-0.61-2.96-1.3
			c-1.25-1.1-0.5-2.46,1.45-5.01 M256.13,188.78c0,2.96-2.4,5.36-5.36,5.36c-2.84-0.16-5.04-2.52-5.01-5.36
			c0-2.77,2.24-5.01,5.01-5.01c2.76-0.19,5.16,1.89,5.35,4.65C256.13,188.54,256.13,188.66,256.13,188.78 M253.83,173.74
			c0.07-0.95,0.07-1.91,0-2.86c0-0.7,0-1.45-0.3-2.91c-0.07-0.34,0.02-0.69,0.25-0.95c0.71-0.52,1.58-0.75,2.46-0.65
			c0.86,0,1.72,0.1,2.56,0.3c3.84,0.72,7.31,2.78,9.77,5.81l1.05,1.35c2,2.56,2.36,3.41,1,4.56c-0.57,0.4-1.26,0.61-1.95,0.6
			c-1.65,0.22-3.25,0.7-4.76,1.4c-1.87,0.77-3.57,1.89-5.01,3.31l-0.7,0.6c-1.21-1.9-3.12-3.25-5.31-3.76v-0.35
			c0.58-2.1,0.85-4.28,0.8-6.47 M275.73,180.91l1.65-2.61l-3.01-0.55c0.18-2.27-0.54-4.52-2-6.26c-4.1-5.34-10.24-8.73-16.94-9.37
			c-1.14-0.03-2.27,0.19-3.31,0.65l-1.2-2.51l-2,2.66c-1.22-0.46-2.51-0.7-3.81-0.7c-6.82,0.66-12.98,4.34-16.79,10.02
			c-1.18,1.58-1.7,3.56-1.45,5.51c-0.36,0.13-0.73,0.23-1.1,0.3h-1.8l1.8,2.61c-2.66,1.95-3.16,7.57-2.41,12.68
			c1.05,6.97,4.51,13.98,10.02,13.83v3.06l2.66-0.7c0.07,0.72,0.35,1.39,0.8,1.95c2.31,3.21,9.07,4.36,14.13,4.36
			c4.26,0.42,8.53-0.8,11.93-3.41c0.47-0.53,0.8-1.16,0.95-1.85l3.56,1.15l-0.35-3.41c5.51,0,9.17-6.16,10.73-11.78
			s1.65-12.88-1.85-15.94 M302.64,289.36c-0.83-0.02-1.63,0.31-2.21,0.9c-0.62,0.59-0.96,1.4-0.95,2.26
			c-0.02,0.84,0.33,1.64,0.95,2.21c1.21,1.22,3.18,1.23,4.39,0.02c0.59-0.59,0.92-1.39,0.92-2.22c0.01-0.84-0.32-1.65-0.9-2.26
			C304.27,289.67,303.47,289.35,302.64,289.36 M234.08,298.39c-0.84-0.53-1.81-0.82-2.81-0.85c-1.2,0-2.37,0.36-3.36,1.05
			c-0.47,0.3-0.91,0.66-1.3,1.05v-1.6h-4.56v22.95h4.56v-7.92c-0.11-2.37,0.06-4.74,0.5-7.07c0.26-1.15,0.84-2.21,1.65-3.06
			c0.53-0.54,1.25-0.87,2-0.9c0.38,0.05,0.75,0.15,1.1,0.3l0.7,0.3l2.36-3.71L234.08,298.39z"/>
		<path style="fill:#FFFFFF;" d="M256.79,298.08h-6.72l-8.57,7.47v-15.64h-4.56v31.12h4.56v-8.42l9.37,8.42h6.52l-13.28-11.98
			L256.79,298.08L256.79,298.08z M264.95,301.84c1.4,0.14,2.7,0.83,3.61,1.9l0.65,0.6l3.01-3.06l-0.65-0.65
			c-1.62-1.79-3.86-2.9-6.26-3.11c-1.77-0.04-3.49,0.62-4.76,1.85c-2.43,2.25-2.83,5.94-0.95,8.67c1.14,1.36,2.58,2.44,4.21,3.16
			c1.15,0.52,2.21,1.21,3.16,2.05c0.35,0.42,0.54,0.95,0.55,1.5c0,0.71-0.33,1.38-0.9,1.8c-0.58,0.56-1.35,0.87-2.16,0.85
			c-1.51-0.1-2.89-0.87-3.76-2.1l-0.4-0.9l-2.86,3.21l0.45,0.6c0.82,1.04,1.86,1.88,3.06,2.46c1.2,0.59,2.52,0.9,3.86,0.9
			c1.87-0.01,3.67-0.75,5.01-2.05c1.36-1.31,2.12-3.12,2.1-5.01c0.01-1.39-0.43-2.74-1.25-3.86c-1.2-1.42-2.71-2.55-4.41-3.31
			c-1.12-0.48-2.13-1.16-3.01-2c-0.37-0.37-0.59-0.88-0.6-1.4c0-0.54,0.24-1.05,0.65-1.4c0.47-0.41,1.08-0.64,1.7-0.65
			 M291.92,298.89c-1.4-0.91-3.04-1.38-4.71-1.35c-1.65-0.01-3.27,0.41-4.71,1.2c-0.83,0.47-1.61,1.04-2.31,1.7v-10.52h-4.51v31.12
			h4.66v-8.67c-0.19-1.85-0.19-3.71,0-5.56c0.38-1.39,1.16-2.63,2.26-3.56c1.1-0.91,2.48-1.41,3.91-1.4
			c1.04-0.08,2.07,0.22,2.91,0.85c0.78,0.7,1.33,1.63,1.55,2.66c0.22,1.56,0.3,3.14,0.25,4.71v10.98h4.51v-11.83
			c0.13-2.26-0.2-4.53-0.95-6.67c-0.61-1.51-1.68-2.79-3.06-3.66 M300.39,298.08h4.51v22.95h-4.51V298.08z M321.64,298.39
			c-1.87-1.29-4.34-1.29-6.21,0c-0.46,0.28-0.88,0.62-1.25,1v-1.35h-4.51v22.95h4.51v-7.92c-0.11-2.37,0.06-4.74,0.5-7.07
			c0.26-1.15,0.84-2.21,1.65-3.06c0.55-0.54,1.28-0.86,2.05-0.9l1.05,0.3l0.7,0.3l2.36-3.71L321.64,298.39z M189.08,306.7
			l9.77-16.04h-5.41l-6.72,10.98l-6.82-10.98h-5.36l9.92,16.04v14.33h4.61L189.08,306.7L189.08,306.7z"/>
		<path style="fill:#FFFFFF;" d="M206.57,301.99c1.92,0,3.74,0.82,5.01,2.26c1.46,1.42,2.26,3.38,2.21,5.41c0,1.35-0.34,2.68-1,3.86
			c-0.62,1.12-1.52,2.07-2.61,2.76c-1.16,0.62-2.45,0.95-3.76,0.95c-2.61,0-5.01-1.42-6.26-3.71c-0.66-1.18-1-2.51-1-3.86
			c-0.02-2.04,0.77-4.01,2.21-5.46c1.29-1.4,3.11-2.2,5.01-2.21 M215.19,318.08c4.35-4.67,4.35-11.91,0-16.59
			c-4.42-4.84-11.94-5.18-16.78-0.76c-0.26,0.24-0.52,0.5-0.76,0.76c-4.28,4.7-4.28,11.89,0,16.59c4.51,4.84,12.08,5.12,16.93,0.61
			C214.79,318.5,214.99,318.29,215.19,318.08 M328.8,303.8c1.28-1.19,2.97-1.83,4.71-1.8c1.09,0.03,2.17,0.28,3.16,0.75
			c0.93,0.39,1.74,1.01,2.36,1.8c0.46,0.57,0.82,1.21,1.05,1.9h-13.03C327.41,305.44,328.01,304.53,328.8,303.8 M340.48,312.62
			c-0.55,1.01-1.24,1.94-2.05,2.76c-0.7,0.54-1.48,0.98-2.31,1.3c-0.9,0.34-1.85,0.51-2.81,0.5c-1.89,0.06-3.71-0.69-5.01-2.05
			c-1.13-1.21-1.83-2.76-2-4.41h19.19v-1c0.09-2.79-0.8-5.52-2.51-7.72c-2.2-2.91-5.68-4.57-9.32-4.46
			c-3.54-0.11-6.92,1.49-9.07,4.31c-1.78,2.2-2.74,4.94-2.71,7.77c-0.11,3.09,0.95,6.12,2.96,8.47c2.21,2.51,5.43,3.87,8.77,3.71
			c1.54,0,3.07-0.27,4.51-0.8c1.34-0.51,2.57-1.27,3.61-2.26c1.14-1.1,2.07-2.39,2.76-3.81l0,0L340.48,312.62z M191.68,339.58
			c-0.41,0.63-1,1.13-1.7,1.4c-1.29,0.36-2.62,0.51-3.96,0.45h-0.9v-7.12h2.31c1.3-0.13,2.61,0.19,3.71,0.9
			c0.68,0.54,1.06,1.38,1,2.26c0.02,0.75-0.21,1.49-0.65,2.1 M185.12,346.2h0.65c1.59-0.05,3.19,0.05,4.76,0.3
			c1.11,0.22,2.13,0.78,2.91,1.6c0.65,0.75,1.01,1.71,1,2.71c0,0.79-0.25,1.56-0.7,2.21c-0.46,0.71-1.12,1.27-1.9,1.6
			c-1.35,0.38-2.76,0.55-4.16,0.5h-2.56V346.2z M196.39,344.49c-0.59-0.54-1.27-0.96-2-1.25c0.61-0.51,1.14-1.12,1.55-1.8
			c1.5-2.5,1.5-5.62,0-8.12c-0.78-1.24-1.92-2.22-3.26-2.81c-1.78-0.63-3.67-0.92-5.56-0.85h-6.52v30.07h8.72
			c2.69,0.15,5.33-0.79,7.32-2.61c1.81-1.66,2.81-4.01,2.76-6.47c0.01-1.19-0.25-2.37-0.75-3.46c-0.48-1.07-1.2-2.01-2.1-2.76
			 M218.95,343.14c2.3,2.49,2.8,6.15,1.25,9.17c-0.62,1.13-1.56,2.06-2.71,2.66c-1.11,0.64-2.37,0.99-3.66,1
			c-1.29,0-2.55-0.35-3.66-1c-1.13-0.69-2.06-1.65-2.71-2.81c-0.65-1.15-0.99-2.44-1-3.76c0-1.3,0.35-2.58,1-3.71
			c0.62-1.16,1.56-2.12,2.71-2.76c2.87-1.68,6.52-1.2,8.87,1.15 M221,339.28c-0.69-0.64-1.47-1.18-2.31-1.6
			c-1.55-0.81-3.27-1.22-5.01-1.2c-6.53-0.09-11.9,5.13-11.99,11.66c-0.04,3.2,1.21,6.28,3.47,8.53c2.16,2.26,5.15,3.53,8.27,3.51
			c1.74,0.01,3.45-0.38,5.01-1.15c0.88-0.43,1.71-0.97,2.46-1.6v2.21h4.31v-22.65h-4.51L221,339.28z M245.71,337.78
			c-1.4-0.87-3.02-1.32-4.66-1.3c-1.65-0.02-3.27,0.4-4.71,1.2c-0.8,0.42-1.54,0.94-2.21,1.55v-2.26h-4.56v22.8h4.56v-8.62
			c-0.04-1.83,0.07-3.66,0.35-5.46c0.4-1.35,1.18-2.55,2.26-3.46c1.03-0.92,2.37-1.42,3.76-1.4c1.02-0.07,2.04,0.23,2.86,0.85
			c0.79,0.67,1.32,1.59,1.5,2.61c0.13,1.52,0.13,3.04,0,4.56v10.93h4.56v-11.63c0.11-2.26-0.19-4.52-0.9-6.67
			c-0.64-1.49-1.7-2.76-3.06-3.66 M260.79,347.9l12.53-10.93h-6.87l-8.32,7.32v-15.39h-4.61v30.87h4.61v-8.22l9.17,8.22h6.62
			L260.79,347.9z"/>
	</g>
</g>
</svg>
