<?xml version="1.0"?>
<svg xmlns="http://www.w3.org/2000/svg" xmlns:xlink="http://www.w3.org/1999/xlink" xmlns:svgjs="http://svgjs.com/svgjs" version="1.1" width="512" height="512" x="0" y="0" viewBox="0 0 512 512" style="enable-background:new 0 0 512 512" xml:space="preserve" class=""><g><path xmlns="http://www.w3.org/2000/svg" d="m512 256c0 141.386719-114.613281 256-256 256s-256-114.613281-256-256 114.613281-256 256-256 256 114.613281 256 256zm0 0" fill="#f1f1f1" data-original="#0c2093" style="" class=""/><path xmlns="http://www.w3.org/2000/svg" d="m512 256c0-16.308594-1.542969-32.253906-4.457031-47.714844l-86.105469-86.105468-330.875 268.605468 116.53125 116.527344c15.832031 3.066406 32.179688 4.6875 48.90625 4.6875 141.386719 0 256-114.613281 256-256zm0 0" fill="#f1f1f1" data-original="#0e1c66" style="" class=""/><path xmlns="http://www.w3.org/2000/svg" d="m421.4375 390.785156h-330.875v-268.605468l165.4375-57.179688 165.4375 57.179688zm0 0" fill="#d84a0b" data-original="#d84a0b" style=""/><path xmlns="http://www.w3.org/2000/svg" d="m421.4375 122.179688-165.4375-57.179688.167969 325.785156h165.269531zm0 0" fill="#ad2f15" data-original="#ad2f15" style="" class=""/><path xmlns="http://www.w3.org/2000/svg" d="m122.203125 179.605469h267.59375v211.179687h-267.59375zm0 0" fill="#ffffff" data-original="#ffffff" style="" class=""/><path xmlns="http://www.w3.org/2000/svg" d="m256.167969 179.605469h133.628906v211.179687h-133.628906zm0 0" fill="#dce1eb" data-original="#dce1eb" style=""/><path xmlns="http://www.w3.org/2000/svg" d="m149.152344 302.59375h106.847656v88.191406h-106.847656zm0 0" fill="#ffe600" data-original="#ffe600" style=""/><path xmlns="http://www.w3.org/2000/svg" d="m202.878906 302.59375h53.121094v88.191406h-53.121094zm0 0" fill="#ffc200" data-original="#ffc200" style=""/><path xmlns="http://www.w3.org/2000/svg" d="m188.507812 302.59375h28.136719v33.394531h-28.136719zm0 0" fill="#ff9100" data-original="#ff9100" style="" class=""/><path xmlns="http://www.w3.org/2000/svg" d="m202.878906 302.59375h13.765625v33.394531h-13.765625zm0 0" fill="#ff6e0b" data-original="#ff6e0b" style="" class=""/><path xmlns="http://www.w3.org/2000/svg" d="m256 302.59375h106.847656v88.191406h-106.847656zm0 0" fill="#ffc200" data-original="#ffc200" style=""/><path xmlns="http://www.w3.org/2000/svg" d="m309.546875 302.59375h53.300781v88.191406h-53.300781zm0 0" fill="#e8c917" data-original="#e8c917" style="" class=""/><path xmlns="http://www.w3.org/2000/svg" d="m295.355469 302.59375h28.136719v33.394531h-28.136719zm0 0" fill="#ff9100" data-original="#ff9100" style="" class=""/><path xmlns="http://www.w3.org/2000/svg" d="m309.546875 302.59375h13.945313v33.394531h-13.945313zm0 0" fill="#ff6e0b" data-original="#ff6e0b" style="" class=""/><path xmlns="http://www.w3.org/2000/svg" d="m202.578125 214.40625h106.847656v88.1875h-106.847656zm0 0" fill="#fdba12" data-original="#fdba12" style="" class=""/><path xmlns="http://www.w3.org/2000/svg" d="m256.167969 214.40625h53.257812v88.1875h-53.257812zm0 0" fill="#ff9d00" data-original="#ff9d00" style="" class=""/><path xmlns="http://www.w3.org/2000/svg" d="m241.929688 214.40625h28.140624v33.390625h-28.140624zm0 0" fill="#ff9100" data-original="#ff9100" style="" class=""/><path xmlns="http://www.w3.org/2000/svg" d="m256.167969 214.40625h13.902343v33.390625h-13.902343zm0 0" fill="#ff6e0b" data-original="#ff6e0b" style="" class=""/></g></svg>
