<?xml version="1.0"?>
<svg xmlns="http://www.w3.org/2000/svg" xmlns:xlink="http://www.w3.org/1999/xlink" xmlns:svgjs="http://svgjs.com/svgjs" version="1.1" width="512" height="512" x="0" y="0" viewBox="0 0 512 512" style="enable-background:new 0 0 512 512" xml:space="preserve" class=""><g><g xmlns="http://www.w3.org/2000/svg"><g><g><g><g><g><g><g><g><circle cx="256" cy="256" fill="#f1f1f1" r="256" data-original="#ff475a" style="" class=""/></g></g></g></g></g></g></g></g><path d="m512 256c0-20.434-2.394-40.309-6.917-59.36l-96.613-96.612-304.94 280.079 131.006 131.006c7.076.587 14.235.887 21.464.887 141.385 0 256-114.615 256-256z" fill="#f1f1f1" data-original="#d1093a" style="" class=""/><g><path d="m103.53 111.042h304.941v269.065h-304.941z" fill="#ffffff" data-original="#ffffff" style="" class=""/></g><g><path d="m256.121 111.042h152.35v269.065h-152.35z" fill="#e9edf5" data-original="#e9edf5" style=""/></g><g><path d="m103.53 100.028h304.941v39.393h-304.941z" fill="#dce1eb" data-original="#dce1eb" style=""/></g><g><path d="m256.121 100.028h152.35v39.393h-152.35z" fill="#bec3d2" data-original="#bec3d2" style=""/></g><g><circle cx="126.277" cy="119.921" fill="#ff9500" r="11.269" data-original="#ff9500" style=""/></g><g><circle cx="186.874" cy="119.921" fill="#ff9500" r="11.269" data-original="#ff9500" style=""/></g><g><circle cx="156.576" cy="119.921" fill="#ff9500" r="11.269" data-original="#ff9500" style=""/></g><g><path d="m216.66 359.14c-11.857 0-21.893-8.754-23.504-20.501l-12.967-94.574h47.891l12.084 88.128c1.954 14.251-9.121 26.947-23.504 26.947z" fill="#9196aa" data-original="#9196aa" style=""/></g><g><path d="m354.222 263.26h-10.664c-10.601 0-19.195-8.594-19.195-19.195 0-10.601 8.594-19.195 19.195-19.195h10.664c10.601 0 19.195 8.594 19.195 19.195 0 10.602-8.594 19.195-19.195 19.195z" fill="#f03049" data-original="#f03049" style=""/></g><g><path d="m348.89 322.978-201.759-39.812v-78.202l201.759-39.812z" fill="#636978" data-original="#636978" style=""/></g><g><path d="m348.89 165.152-92.769 18.306v121.215l92.769 18.305z" fill="#414952" data-original="#414952" style=""/></g><g><path d="m180.189 289.69 134.156 26.472v-144.193l-134.156 26.472z" fill="#707789" data-original="#707789" style=""/></g><g><path d="m314.345 171.969-58.224 11.489v121.215l58.224 11.489z" fill="#555a66" data-original="#555a66" style="" class=""/></g></g></g></svg>
