<?xml version="1.0"?>
<svg xmlns="http://www.w3.org/2000/svg" xmlns:xlink="http://www.w3.org/1999/xlink" xmlns:svgjs="http://svgjs.com/svgjs" version="1.1" width="512" height="512" x="0" y="0" viewBox="0 0 512 512" style="enable-background:new 0 0 512 512" xml:space="preserve" class=""><g><g xmlns="http://www.w3.org/2000/svg"><circle cx="256" cy="256" fill="#f1f1f1" r="256" data-original="#a1d7f3" style="" class=""/><g><path d="m511.825 265.015-149.387-149.387-10.124-2.847-39.718-39.718-99.633 99.633 38.254 38.254 4.311 11.588 108.606 108.607-156.009-17.09-81.092-81.092 14.29 134.838-21.5 47.89 92.601 92.601c14.164 2.427 28.72 3.708 43.576 3.708 138.366 0 251.074-109.777 255.825-246.985z" fill="#f1f1f1" data-original="#72bbff" style="" class=""/></g><g><g><path d="m169.847 313.851-42.812-80.889h-46.603l64.051 119.808h86.666l10-16.121-10-22.798z" fill="#a6d12b" data-original="#a6d12b" style=""/><path d="m231.149 313.851h165.905v38.919h-165.905z" fill="#80b405" data-original="#80b405" style="" class=""/></g><g><g><g><g><path d="m338.149 157.52h58.905v15.176h-58.905z" fill="#f67e00" data-original="#f67e00" style=""/><path d="m212.963 157.52h58.905v15.176h-58.905z" fill="#ff9e00" data-original="#ff9e00" style=""/></g><g><path d="m314.893 124.079h51.046v11.242h-51.046z" fill="#ef3800" transform="matrix(.707 -.707 .707 .707 7.994 278.699)" data-original="#ef3800" style=""/><path d="m244.078 194.894h51.046v11.242h-51.046z" fill="#ff641a" transform="matrix(.707 -.707 .707 .707 -62.821 249.366)" data-original="#ff641a" style=""/></g><g><path d="m334.795 174.992h11.242v51.046h-11.242z" fill="#ef3800" transform="matrix(.707 -.707 .707 .707 -42.079 299.442)" data-original="#ef3800" style=""/><path d="m263.98 104.177h11.242v51.046h-11.242z" fill="#ff641a" transform="matrix(.707 -.707 .707 .707 -12.747 228.627)" data-original="#ff641a" style=""/></g></g><g><path d="m297.421 73.063v58.904h7.587l5.059-40.533-5.059-18.371z" fill="#ff9e00" data-original="#ff9e00" style=""/><path d="m305.008 73.063h7.588v58.905h-7.588z" fill="#f67e00" data-original="#f67e00" style=""/><path d="m297.421 257.152h7.587l5.059-14.83-5.059-44.074h-7.587z" fill="#ff9e00" data-original="#ff9e00" style=""/><path d="m305.008 198.248h7.588v58.905h-7.588z" fill="#f67e00" data-original="#f67e00" style=""/></g><g><path d="m305.008 114.905c-27.726 0-50.203 22.476-50.203 50.202s22.476 50.203 50.203 50.203l5.059-50.203z" fill="#ffd300" data-original="#ffd300" style="" class=""/><path d="m355.211 165.108c0-27.726-22.476-50.202-50.202-50.202v100.404c27.726 0 50.202-22.476 50.202-50.202z" fill="#ff9e00" data-original="#ff9e00" style=""/></g></g><g><path d="m396.958 350.095h-155.809v-26.892h14.108c5.523 0 10-4.478 10-10s-4.477-10-10-10h-24.108v76.892h152.863l22.13 38.843h28.431z" fill="#56281b" data-original="#56281b" style="" class=""/><path d="m120.692 303.203-34.393-66.711c-3.156-7.66-11.924-11.311-19.584-8.154-7.659 3.156-11.31 11.924-8.154 19.583l61.262 120.143v47.625h28.411v-35.595h82.914v-76.892h-110.456zm24.175 46.892-13.864-26.892h90.146v26.892z" fill="#6d3326" data-original="#6d3326" style="" class=""/></g></g></g></g></g></svg>
