<?xml version="1.0"?>
<svg xmlns="http://www.w3.org/2000/svg" xmlns:xlink="http://www.w3.org/1999/xlink" xmlns:svgjs="http://svgjs.com/svgjs" version="1.1" width="512" height="512" x="0" y="0" viewBox="0 0 512 512" style="enable-background:new 0 0 512 512" xml:space="preserve" class=""><g><g xmlns="http://www.w3.org/2000/svg"><g><g><g><g><g><g><g><g><circle cx="256" cy="256" fill="#f1f1f1" r="256" data-original="#a3d4ff" style="" class=""/></g></g></g></g></g></g></g></g><path d="m512 256c0-16.066-1.48-31.787-4.311-47.032l-137.474-148.968-228.43 131.016 60.06 48.646-6.811 3.063 27.368 27.368-102.333 180.486 44.678 44.679c28.346 10.817 59.107 16.742 91.253 16.742 141.385 0 256-114.615 256-256z" fill="#f1f1f1" data-original="#65b1fc" style="" class=""/><g><path d="m234.283 182.127h43.433v39.747h-43.433z" fill="#a5a3a3" data-original="#ffffff" style="" class=""/></g><g><path d="m256.121 182.127h21.596v39.747h-21.596z" fill="#999797" data-original="#e9edf5" style="" class=""/></g><g><path d="m234.283 230.127h43.433v189.176h-43.433z" fill="#a5a3a3" data-original="#dce1eb" style="" class=""/></g><g><path d="m256.121 230.127h21.596v189.176h-21.596z" fill="#706565" data-original="#bec3d2" style="" class=""/></g><g><path d="m391.931 450.579h-43.433l-93.51-220.452h43.434z" fill="#999797" data-original="#e9edf5" style="" class=""/></g><g><path d="m120.069 450.579h43.433l93.51-220.452h-43.434z" fill="#a5a3a3" data-original="#ffffff" style="" class=""/></g><g><g><path d="m141.785 60h228.429v131.016h-228.429z" fill="#707789" data-original="#707789" style="" class=""/></g><g><path d="m256.121 60h114.094v131.016h-114.094z" fill="#555a66" data-original="#555a66" style="" class=""/></g><g><circle cx="254.902" cy="125.508" fill="#555a66" r="62.063" data-original="#555a66" style="" class=""/></g><g><path d="m316.965 125.508c0-33.868-27.133-61.38-60.845-62.032v124.065c33.713-.652 60.845-28.165 60.845-62.033z" fill="#333940" data-original="#333940" style="" class=""/></g><g><circle cx="254.902" cy="125.508" fill="#333940" r="38.245" data-original="#333940" style="" class=""/></g><g><path d="m293.147 125.508c0-20.713-16.469-37.569-37.026-38.214v76.428c20.556-.645 37.026-17.501 37.026-38.214z" fill="#101214" data-original="#101214" style="" class=""/></g><g><path d="m319.521 70.527h36.129v23.69h-36.129z" fill="#6ba5ab" data-original="#afb4c8" style="" class=""/></g><g><circle cx="241.463" cy="108.726" fill="#a5a3a3" r="8.878" data-original="#ffffff" style="" class=""/></g></g><g><path d="m195.035 209.494h121.931v33.231h-121.931z" fill="#707789" data-original="#707789" style="" class=""/></g><g><path d="m256.121 209.494h60.845v33.231h-60.845z" fill="#555a66" data-original="#555a66" style="" class=""/></g></g></g></svg>
