<?xml version="1.0" encoding="utf-8"?>
<svg version="1.1" id="Layer_1" xmlns="http://www.w3.org/2000/svg" xmlns:xlink="http://www.w3.org/1999/xlink" x="0px" y="0px"
	width="100px" height="100px" viewBox="0 0 72.2 72.2" style="enable-background:new 0 0 72.2 72.2;" xml:space="preserve">
<g>
	<circle style="fill:#E8E8E8;" cx="36.1" cy="36.1" r="36.1"/>
	<circle style="fill:#FFFFFF;" cx="36.1" cy="36.1" r="35.4"/>
	<path style="fill:#D07928;" d="M25.8,28.4c-0.4,0-0.7,0.3-0.7,0.6c0,0,0,0.1,0,0.1v2.5c0,0.4,0.3,0.8,0.7,0.8h3v-1.3h-2.2v-1.5h2.2
		v-1.2L25.8,28.4C25.8,28.4,25.8,28.4,25.8,28.4z M30.5,28.4c-0.4,0-0.7,0.3-0.7,0.7v3.3h1.5v-0.9l1.2-0.2v1.1H34v-3.3
		c0-0.4-0.3-0.7-0.6-0.7c0,0-0.1,0-0.1,0H30.5C30.5,28.4,30.5,28.4,30.5,28.4z M31.4,29.6h1.2v0.7l-1.2,0.1
		C31.4,30.4,31.4,29.6,31.4,29.6z M35.1,28.4v4h1.5V31h1.1l0.2-1.2h-1.2v-0.2h2.1v-1.2H35.1z M39.5,28.4v4h1.6V31h1l0.2-1.2h-1.2
		v-0.2h2.1v-1.2L39.5,28.4C39.5,28.4,39.5,28.4,39.5,28.4z M43.9,28.4v4h4v-1.3h-2.5V31h1.1l0.2-1.2h-1.3v-0.2h2.5v-1.2L43.9,28.4
		L43.9,28.4z M45.2,26.8v0.4c0,0.2,0,0.4,0.1,0.6c0.1,0.3,0.4,0.4,0.7,0.4h1.9l-0.1-0.6C47.8,27.5,45.2,26.8,45.2,26.8z M37.4,34.4
		v10.5h3.7v-3h1.8l1.9,3h3.8l0.2-0.4l-1.9-2.7c0.6-0.2,0.9-0.7,0.9-1.4v-4.2c0-1-0.8-1.8-1.8-1.8L37.4,34.4
		C37.4,34.4,37.4,34.4,37.4,34.4z M41,37.2h3.2v2.1h-3.1L41,37.2L41,37.2L41,37.2z M11,34.4v10.5h3.2v-4.5l8.4,5l0.4-0.2V34.4h-3.2
		v4.7l-8.4-4.9L11,34.4L11,34.4z M25,34.4v10.5h10.5v-2.8h-6.6v-1.3l2.9-0.1l0.5-2.7h-3.4v-0.8h6.7v-2.8H25L25,34.4z M51.7,34.4
		c-0.9,0-1.8,0.8-1.8,1.8l0,0V43c0,1,0.8,1.9,1.8,1.9l0,0l0,0h7.5c1,0,1.8-0.9,1.8-1.8v-6.9c0-1-0.8-1.8-1.8-1.8H51.7L51.7,34.4z
		 M53.4,37.2h4.3v4.7h-4.3C53.4,42.1,53.4,37.2,53.4,37.2z"/>
	<path style="fill:#FDFCE6;" d="M37.8,34.8v9.7h3v-3h2.4l1.9,3h3.3l-2.1-3c0.6,0,1.2-0.4,1.2-1.1v-4.2c0-0.8-0.6-1.4-1.4-1.4l0,0
		H37.8C37.9,34.9,37.8,34.8,37.8,34.8z M40.8,36.9h3.9v2.8h-3.9V36.9L40.8,36.9z M11.3,44.6h2.5v-4.7l8.7,5.1V34.9h-2.5v4.9
		l-8.7-5.1L11.3,44.6C11.3,44.6,11.3,44.6,11.3,44.6z M25.3,34.9v9.7h9.7v-2.1h-6.7v-1.9l3-0.1l0.4-1.9h-3.4v-1.5h6.7V35L25.3,34.9
		L25.3,34.9z M51.9,34.9c-0.8,0-1.4,0.6-1.4,1.4l0,0v6.8c0,0.8,0.6,1.4,1.4,1.4h7.5c0.8,0,1.4-0.6,1.4-1.4l0,0v-6.8
		c0-0.8-0.6-1.4-1.4-1.4l0,0H51.9L51.9,34.9z M53.2,37h5.1v5.4h-5.1V37z M26,28.6c-0.3,0-0.5,0.2-0.5,0.5c0,0,0,0,0,0v2.5
		c0,0.3,0.2,0.5,0.5,0.5c0,0,0,0,0,0l0,0h2.7v-0.7h-2.1v-2h2.1v-0.8H26L26,28.6C26,28.7,26,28.6,26,28.6z M30.7,28.6
		c-0.3,0-0.5,0.3-0.5,0.6v3h1.1v-0.7l1.7-0.3v1h1.2v-3c0-0.3-0.3-0.6-0.6-0.6C33.5,28.6,30.7,28.6,30.7,28.6z M31.2,29.4h1.7v1.1
		l-1.7,0.3V29.4L31.2,29.4z M35.5,28.6v3.5h1.1v-1.4h1.1l0.1-0.7h-1.2v-0.6h2.1v-0.8C38.7,28.6,35.4,28.6,35.5,28.6
		C35.4,28.6,35.5,28.6,35.5,28.6z M39.8,28.6v3.5h1.1v-1.4H42l0.1-0.7h-1.2v-0.6H43v-0.8L39.8,28.6C39.8,28.6,39.8,28.6,39.8,28.6z
		 M45.6,27.2c0,0.1,0,0.7,0.6,0.7h1.6v-0.1L45.6,27.2L45.6,27.2C45.6,27.3,45.6,27.2,45.6,27.2z M44.2,28.6v3.5h3.5v-0.7h-2.5v-0.6
		h1.2l0.1-0.7h-1.3v-0.6h2.5v-0.8C47.8,28.7,44.2,28.6,44.2,28.6z"/>
</g>
</svg>
