<?xml version="1.0"?>
<svg xmlns="http://www.w3.org/2000/svg" xmlns:xlink="http://www.w3.org/1999/xlink" xmlns:svgjs="http://svgjs.com/svgjs" version="1.1" width="512" height="512" x="0" y="0" viewBox="0 0 512 512" style="enable-background:new 0 0 512 512" xml:space="preserve" class=""><g>
<circle xmlns="http://www.w3.org/2000/svg" style="" cx="256" cy="256" r="256" fill="#f1f1f1" data-original="#e6f3ff" class=""/>
<path xmlns="http://www.w3.org/2000/svg" style="" d="M510.902,279.652L404.785,173.537l-54.968,170.399l-57.715-57.715l-26.765,42.158l-88.107-88.107  l-0.802,2.846L85.333,401.092l101.421,101.421c22.025,6.175,45.247,9.485,69.246,9.485  C389.408,511.998,498.964,409.946,510.902,279.652z" fill="#f1f1f1" data-original="#cfdbe6" class=""/>
<rect xmlns="http://www.w3.org/2000/svg" x="85.333" y="240.278" style="" width="68.923" height="160.823" fill="#31bafd" data-original="#31bafd" class=""/>
<rect xmlns="http://www.w3.org/2000/svg" x="128.396" y="240.278" style="" width="48.833" height="160.823" fill="#2b9ed8" data-original="#2b9ed8" class=""/>
<rect xmlns="http://www.w3.org/2000/svg" x="312.889" y="173.546" style="" width="68.923" height="227.556" fill="#fc6f58" data-original="#fc6f58" class=""/>
<rect xmlns="http://www.w3.org/2000/svg" x="357.142" y="173.546" style="" width="47.65" height="227.556" fill="#f1543f" data-original="#f1543f" class=""/>
<rect xmlns="http://www.w3.org/2000/svg" x="200.197" y="286.22" style="" width="68.923" height="114.881" fill="#ffd15d" data-original="#ffd15d" class=""/>
<rect xmlns="http://www.w3.org/2000/svg" x="243.278" y="286.22" style="" width="48.833" height="114.881" fill="#f9b54c" data-original="#f9b54c" class=""/>
<g xmlns="http://www.w3.org/2000/svg">
</g>
<g xmlns="http://www.w3.org/2000/svg">
</g>
<g xmlns="http://www.w3.org/2000/svg">
</g>
<g xmlns="http://www.w3.org/2000/svg">
</g>
<g xmlns="http://www.w3.org/2000/svg">
</g>
<g xmlns="http://www.w3.org/2000/svg">
</g>
<g xmlns="http://www.w3.org/2000/svg">
</g>
<g xmlns="http://www.w3.org/2000/svg">
</g>
<g xmlns="http://www.w3.org/2000/svg">
</g>
<g xmlns="http://www.w3.org/2000/svg">
</g>
<g xmlns="http://www.w3.org/2000/svg">
</g>
<g xmlns="http://www.w3.org/2000/svg">
</g>
<g xmlns="http://www.w3.org/2000/svg">
</g>
<g xmlns="http://www.w3.org/2000/svg">
</g>
<g xmlns="http://www.w3.org/2000/svg">
</g>
</g></svg>
