<?xml version="1.0" encoding="utf-8"?>
<svg version="1.1" id="Layer_1" xmlns="http://www.w3.org/2000/svg" xmlns:xlink="http://www.w3.org/1999/xlink" x="0px" y="0px"
	 viewBox="0 0 50.6 26.2" style="enable-background:new 0 0 50.6 26.2;" xml:space="preserve">
<g>
	<path style="fill:#11793D;" d="M47.9,24l-1.6-1.5l-0.2-0.2L44.7,21l-6.4-6.2l-9.6-9.4l-0.1-0.1l-1.9-1.9l-0.8-0.8l-0.1-0.1
		l-0.1-0.1c-0.1-0.1-0.1-0.1-0.2-0.1c0,0-0.1-0.1-0.1,0c-0.1,0-0.1,0.1-0.1,0.1C25,2.5,25,2.5,25,2.5l-0.1,0.1l-0.8,0.8l-2.2,2.2
		l-0.1,0.1h-0.1l-9.4,9.1l-4,3.9L5.8,21l-1.7,1.6l0,0L4,22.7L2.6,24c0,0-0.8,0.6,0.1,0.6h16.5h6.1h22.4C48.6,24.7,47.9,24,47.9,24z
		 M46,24h-3.1l-1.4-1.3l-1.6-1.4h-3l0.5,1.4l0.5,1.3h-2.5l-0.3-1.3l-0.4-1.6l-1.2-5.4l1.7-0.1l6.9,5.6l2,1.6C44.3,22.7,46,24,46,24z
		 M18.5,22.7l0.1-1.6l0.2-5.6l1.9-0.1l0.3,4.7l2.6-4.6l1.7-0.1l-2.6,5.7L22,22.7l-0.5,1.2h-3V22.7z M26.4,17.6l-0.2-1.9v-0.1
		l1.9-0.1l1.3,5.6l0.1,0.6h4l0.5,1l0.6,1.2H27l-0.1-1.2L26.8,21L26.4,17.6L26.4,17.6z M26.3,5.6l0.1,0.6H24l0.1-0.6l0.3-1.2H26
		C26,4.4,26.3,5.6,26.3,5.6z M27.3,9.7h-4.1l0.6-2.9l2.7,0.1C26.6,6.9,27.3,9.7,27.3,9.7z M23,10.5l4.5,0.1l0.8,3.7h-6.1L23,10.5z
		 M24.7,3h1.2v0.4v0.4h-1.4l0.1-0.4C24.7,3.4,24.7,3,24.7,3z M13,15.2l3.8,0.2c0,0,2.5,0.5,0.1,4c0,0-0.5,0.7-1.4,1.6
		c-0.5,0.5-1.2,1.1-2.2,1.6c-0.9,0.5-1.9,0.9-3,1.1H4.7c0,0-0.4-0.3,0-0.3l0.8-0.8L7.1,21L13,15.2z M36.3,19.5l1.5-0.1l-2.2-2
		L36.3,19.5z M11.9,21c0.6-0.1,1.3-0.5,1.9-1.2c0,0,2.2-1.9,1.7-3.2l-1.6-0.1l-4,4.4l-0.1,0.1C9.8,21.2,10.7,21.4,11.9,21z M50.4,25
		l-4-4L46.3,21l-0.1-0.1l0,0l-4-4l-2-2.1L28.7,3.3l-0.1-0.1L28,2.6l-0.1-0.1l-2.3-2.3C25.5,0,25.4,0,25.3,0h-0.2
		C25,0,25,0.1,24.9,0.1l-2.3,2.3l-0.1,0.1l-0.8,0.8l-0.1,0.1l0,0L10.4,14.8l-1.9,1.9L4.3,21l-0.1,0.1L0.2,25
		c-0.7,1.2,0.6,1.2,0.6,1.2h24.4h24.5C49.7,26.3,51.1,26.3,50.4,25z M48.9,25.8H25.1l0,0H1.7c0,0-1.4-0.1-0.6-1.2l3-3l0.1-0.1
		l0.5-0.5l6.3-6.2L21.6,4.3l0.1-0.1l0.9-0.9l0.9-0.9l0.1-0.1L25,0.9c0-0.1,0.1-0.1,0.2-0.1h0.1c0.1,0,0.1,0,0.2,0.1L27,2.3l0.1,0.1
		L28,3.3l0.6,0.6L28.7,4l10.9,10.7l6.3,6.2l0.1,0.1l0.2,0.2l3.2,3.2C50.3,25.8,48.9,25.8,48.9,25.8L48.9,25.8z"/>
</g>
</svg>
