<?xml version="1.0" encoding="utf-8"?>
<svg version="1.1" id="Layer_1" xmlns="http://www.w3.org/2000/svg" xmlns:xlink="http://www.w3.org/1999/xlink" x="0px" y="0px"
	width="100px" height="100px" viewBox="0 0 100 100" style="enable-background:new 0 0 100 100;" xml:space="preserve">
<g>
	<path style="fill:#E8E8E8;" d="M50,0c27.61,0,50,22.39,50,50s-22.39,50-50,50S0,77.61,0,50S22.39,0,50,0"/>
	<path style="fill:#FFFFFF;" d="M50,1c27.06,0,49,21.94,49,49S77.06,99,50,99S1,77.06,1,50S22.94,1,50,1"/>
	<g>
		<path style="fill:#FCBA30;" d="M49.99,38.18c1.7,0,3.09-0.88,3.28-2.02l1.68-18.94c0-1.87-2.19-3.41-4.95-3.41
			c-2.76,0-4.94,1.54-4.94,3.41l1.66,18.94C46.91,37.3,48.3,38.18,49.99,38.18L49.99,38.18z"/>
		<path style="fill:#FCBA30;" d="M39.75,44.1c0.85-1.47,0.78-3.11-0.11-3.85L24.08,29.33c-1.62-0.94-4.04,0.19-5.42,2.59
			c-1.38,2.4-1.13,5.04,0.48,5.97l17.23,8.03c1.08,0.4,2.54-0.37,3.39-1.83L39.75,44.1z"/>
		<path style="fill:#FCBA30;" d="M60.23,44.08c0.85,1.47,2.31,2.23,3.39,1.83l17.24-8.03c1.62-0.93,1.86-3.6,0.48-5.99
			c-1.37-2.39-3.82-3.52-5.44-2.59L60.34,40.23C59.45,40.97,59.38,42.62,60.23,44.08L60.23,44.08z"/>
		<path style="fill:#FCBA30;" d="M49.99,61.83c1.7,0,3.09,0.88,3.28,2.02l1.68,18.93c0,1.88-2.19,3.41-4.95,3.41
			c-2.76,0-4.94-1.53-4.94-3.41l1.66-18.93C46.91,62.71,48.3,61.83,49.99,61.83L49.99,61.83z"/>
		<path style="fill:#FCBA30;" d="M60.23,55.92c0.85-1.47,2.31-2.23,3.39-1.83l17.24,8.03c1.62,0.94,1.86,3.61,0.48,5.99
			c-1.37,2.39-3.82,3.51-5.44,2.58L60.34,59.78C59.45,59.04,59.38,57.39,60.23,55.92L60.23,55.92z"/>
		<path style="fill:#FCBA30;" d="M39.75,55.91c0.85,1.47,0.78,3.11-0.11,3.85L24.08,70.68c-1.62,0.93-4.04-0.2-5.42-2.58
			c-1.38-2.38-1.13-5.06,0.48-5.99l17.23-8.03C37.44,53.67,38.91,54.44,39.75,55.91L39.75,55.91z"/>
	</g>
</g>
</svg>
