<?xml version="1.0"?>
<svg xmlns="http://www.w3.org/2000/svg" xmlns:xlink="http://www.w3.org/1999/xlink" xmlns:svgjs="http://svgjs.com/svgjs" version="1.1" width="512" height="512" x="0" y="0" viewBox="0 0 512 512" style="enable-background:new 0 0 512 512" xml:space="preserve" class=""><g>
<circle xmlns="http://www.w3.org/2000/svg" style="" cx="256" cy="256" r="256" fill="#f1f1f1" data-original="#e48c21" class=""/>
<path xmlns="http://www.w3.org/2000/svg" style="" d="M110.333,324.81l184.291,184.291C417.682,490.478,512,384.255,512,256  c0-7.564-0.348-15.047-0.99-22.444L401.667,124.213L110.333,324.81z" fill="#f1f1f1" data-original="#966117" class=""/>
<polygon xmlns="http://www.w3.org/2000/svg" style="" points="301.368,379.252 301.368,324.81 244.611,313.421 244.611,379.252 " fill="#a1b8d8" data-original="#a1b8d8"/>
<g xmlns="http://www.w3.org/2000/svg">
	<polygon style="" points="210.632,379.252 256,379.252 256,313.421 210.632,324.81  " fill="#d6e6fd" data-original="#d6e6fd"/>
	<polygon style="" points="401.667,288.515 244.611,277.126 256,324.81 401.667,324.81  " fill="#d6e6fd" data-original="#d6e6fd"/>
	<polygon style="" points="328.589,387.787 328.589,370.717 256,370.717 250.305,379.252 256,387.787  " fill="#d6e6fd" data-original="#d6e6fd"/>
</g>
<g xmlns="http://www.w3.org/2000/svg">
	<rect x="183.41" y="370.72" style="" width="72.59" height="17.07" fill="#f4f4ff" data-original="#f4f4ff"/>
	<polygon style="" points="110.333,288.515 110.333,324.81 256,324.81 256,277.126  " fill="#f4f4ff" data-original="#f4f4ff"/>
</g>
<polygon xmlns="http://www.w3.org/2000/svg" style="" points="401.667,124.213 256,124.213 244.611,206.364 256,288.515 401.667,288.515 " fill="#384c6c" data-original="#384c6c"/>
<rect xmlns="http://www.w3.org/2000/svg" x="110.33" y="124.21" style="" width="145.67" height="164.3" fill="#6c819f" data-original="#6c819f"/>
<path xmlns="http://www.w3.org/2000/svg" style="" d="M264.535,241.584c3.695-0.896,7.172-2.352,10.33-4.285l13.942,13.941l12.07-12.07l-13.942-13.941  c1.933-3.158,3.389-6.635,4.285-10.33h19.71v-17.07h-19.71c-0.896-3.695-2.352-7.172-4.285-10.33l13.942-13.941l-12.07-12.071  l-13.942,13.942c-3.158-1.933-6.635-3.389-10.33-4.285v-19.71H256l-5.695,25.474L256,187.19c10.573,0,19.174,8.602,19.174,19.174  c0,10.573-8.602,19.174-19.174,19.174l-5.695,7.701L256,261.294h8.535V241.584z" fill="#d6e6fd" data-original="#d6e6fd"/>
<path xmlns="http://www.w3.org/2000/svg" style="" d="M236.826,206.364c0-10.573,8.602-19.174,19.174-19.174v-35.756h-8.535v19.71  c-3.695,0.896-7.172,2.352-10.33,4.285l-13.942-13.942l-12.07,12.071l13.942,13.941c-1.933,3.158-3.389,6.635-4.285,10.33h-19.71  v17.07h19.71c0.896,3.695,2.352,7.172,4.285,10.33l-13.942,13.941l12.07,12.07l13.942-13.941c3.158,1.933,6.635,3.389,10.33,4.285  v19.71H256v-35.756C245.427,225.538,236.826,216.937,236.826,206.364z" fill="#f4f4ff" data-original="#f4f4ff"/>
<g xmlns="http://www.w3.org/2000/svg">
</g>
<g xmlns="http://www.w3.org/2000/svg">
</g>
<g xmlns="http://www.w3.org/2000/svg">
</g>
<g xmlns="http://www.w3.org/2000/svg">
</g>
<g xmlns="http://www.w3.org/2000/svg">
</g>
<g xmlns="http://www.w3.org/2000/svg">
</g>
<g xmlns="http://www.w3.org/2000/svg">
</g>
<g xmlns="http://www.w3.org/2000/svg">
</g>
<g xmlns="http://www.w3.org/2000/svg">
</g>
<g xmlns="http://www.w3.org/2000/svg">
</g>
<g xmlns="http://www.w3.org/2000/svg">
</g>
<g xmlns="http://www.w3.org/2000/svg">
</g>
<g xmlns="http://www.w3.org/2000/svg">
</g>
<g xmlns="http://www.w3.org/2000/svg">
</g>
<g xmlns="http://www.w3.org/2000/svg">
</g>
</g></svg>
