<?xml version="1.0" encoding="utf-8"?>
<svg version="1.1" id="Layer_1" xmlns="http://www.w3.org/2000/svg" xmlns:xlink="http://www.w3.org/1999/xlink" x="0px" y="0px"
	width="100px" height="100px" viewBox="0 0 200.6 200.6" style="enable-background:new 0 0 200.6 200.6;" xml:space="preserve">
<g>
	<circle style="fill:#E8E8E8;" cx="100.3" cy="100.3" r="100.3"/>
	<circle style="fill:#FFFFFF;" cx="100.3" cy="100.3" r="98.3"/>
	<path style="fill:#FF7977;" d="M151,122.9c-1-2.4-2-4.6-3-6.8c-8.2-18-16.8-35.9-26.1-53.3l-3.8-7.4c-1.4-2.4-2.8-4.6-4.8-6.6
		c-3.2-3-7.4-4.6-11.8-5.2h-2c-4.4,0.4-8.8,2.2-12.2,5.2c-1.8,1.8-3.4,4-4.6,6.4c-1.4,2.4-2.6,4.8-3.8,7.2
		c-6,11.8-12,23.7-17.6,35.7l-10,21.7c-1.4,3-2.6,6.2-3,9.4c-0.8,5.6,0.4,11.4,3.4,16.2c2.6,4.2,6.4,7.4,10.8,9.4
		c3.6,1.6,7.4,2.2,11.2,2c5-0.2,10-2,14.2-4.8c4.8-3,8.8-6.8,12.8-11c3.6,3.8,7.4,7.4,11.8,10.4c4.2,2.8,9,4.8,14.2,5.2
		c5.6,0.6,11.2-0.8,15.8-3.8c4.2-2.8,7.2-6.6,9-11.2c1.2-3,1.8-6.2,1.6-9.4C152.8,129.2,152.2,125.9,151,122.9L151,122.9z
		 M100.3,130.2c-1.4-1.6-2.6-3.4-3.8-5.2c-2-3-4-6.2-5.4-9.6c-1.2-2.8-2.2-5.6-2.6-8.6c-0.2-2.4-0.2-4.8,0.6-7.2
		c0.8-2.2,2.2-4,4.2-5.2c4.6-3,11-2.6,15.2,1c2,1.8,3.4,4.4,3.6,7.2c0.4,3.6-0.4,7.2-1.6,10.6C108.1,119.3,104.3,124.9,100.3,130.2z
		 M145.2,138c-1.2,4.2-4.2,7.8-8,10c-3.4,1.8-7.4,2.6-11.2,1.8c-4.8-0.8-9.2-3.4-13-6.4c-2.8-2.2-5.2-4.8-7.8-7.4
		c3.8-4.8,7.4-9.8,10.2-15.4c2.4-4.8,4.2-10,4.4-15.4c0-3.4-0.6-7-2.2-10c-2-4.2-5.8-7.2-10.2-8.8c-4-1.4-8.6-1.6-12.6-0.4
		c-3.8,1-7.4,3.4-9.8,6.6c-2.2,2.8-3.4,6.4-3.6,9.8c-0.4,5,0.8,10.2,2.8,14.8c2.8,6.8,7,13,11.6,18.7c-2,2.4-4.4,4.6-6.8,6.8
		c-3.8,3.2-8,6-13,7c-4,0.8-8.2,0.4-11.8-1.4c-4.2-2-7.4-6-8.6-10.6c-1-3.4-0.8-7,0.4-10.2c1-2.8,2.2-5.2,3.4-8
		c8.2-17.8,16.6-35.5,25.7-52.9l4-7.8c1.2-2,2.4-4,4.4-5.4c2-1.6,4.6-2.4,7.2-2.4c2.6,0,5.2,1,7.4,2.6c2,1.6,3.4,4,4.6,6.2l8,15.6
		c7.6,15,14.8,30.3,21.9,45.5c1,2.4,2.2,4.8,3,7.2C146,131.4,146.2,134.8,145.2,138L145.2,138z"/>
</g>
</svg>
