<?xml version="1.0" encoding="utf-8"?>
<!-- Generator: Adobe Illustrator 24.2.1, SVG Export Plug-In . SVG Version: 6.00 Build 0)  -->
<svg version="1.1"
	 id="svg2" xmlns:cc="http://creativecommons.org/ns#" xmlns:dc="http://purl.org/dc/elements/1.1/" xmlns:inkscape="http://www.inkscape.org/namespaces/inkscape" xmlns:rdf="http://www.w3.org/1999/02/22-rdf-syntax-ns#" xmlns:sodipodi="http://sodipodi.sourceforge.net/DTD/sodipodi-0.dtd" xmlns:svg="http://www.w3.org/2000/svg"
	 xmlns="http://www.w3.org/2000/svg" xmlns:xlink="http://www.w3.org/1999/xlink" x="0px" y="0px" viewBox="0 0 321.2 325.8"
	 style="enable-background:new 0 0 321.2 325.8;" xml:space="preserve">
<style type="text/css">
	.st0{fill:#0058AB;}
	.st1{fill-rule:evenodd;clip-rule:evenodd;fill:#FBD914;}
	.st2{fill:#0058A3;}
</style>
<sodipodi:namedview  bordercolor="#666666" borderopacity="1.0" fit-margin-bottom="0" fit-margin-left="0" fit-margin-right="0" fit-margin-top="0" id="base" inkscape:current-layer="layer1" inkscape:cx="133.94373" inkscape:cy="222.84368" inkscape:document-units="px" inkscape:pageopacity="0.0" inkscape:pageshadow="2" inkscape:window-height="705" inkscape:window-maximized="1" inkscape:window-width="1366" inkscape:window-x="-8" inkscape:window-y="-8" inkscape:zoom="0.70710678" pagecolor="#ffffff" showgrid="false">
	</sodipodi:namedview>
<path id="rect4180" class="st0" d="M160.6,0c214.2,3.7,214.1,322.2,0,325.8C-53.6,322.2-53.5,3.6,160.6,0z"/>
<g>
	<path class="st1" d="M31.4,162.9c0,26.4,54.1,48.5,129.2,48.5s129.2-22.1,129.2-48.5s-54.1-48.5-129.2-48.5S31.4,136.5,31.4,162.9z
		"/>
	<path class="st2" d="M150.9,179.1c0.8,1.1,1.9,2.4,3,3.2h-29.1c0-1.1-1.1-3.5-2.4-5.1l-7.8-11.8v13.7c0,1.1,0,2.2,0.5,3.2H90.9
		c0.5-1.1,0.5-2.2,0.5-3.2v-32.3c0-1.1,0-2.2-0.5-3.2h24.2c-0.5,1.1-0.5,2.2-0.5,3.2v14l9.4-12.1c1.3-1.6,3-4.3,3-5.4h25.3
		c-1.6,1.1-3.8,3.2-5.1,5.1l-9.2,11L150.9,179.1L150.9,179.1z M158.7,146.8v32.3c0,1.1,0,2.2-0.5,3.2H205v-10.8
		c-1.1,0.5-2.2,0.5-3.5,0.5h-19.7V167h18.8v-8.1h-18.8v-5.1h19.7c1.1,0,2.2,0,3.5,0.5v-10.8h-46.8
		C158.7,144.6,158.7,145.7,158.7,146.8z M269.9,179.1c0.3,1.3,1.1,2.4,1.9,3.2h-25.3c0-1.1-0.3-2.2-0.8-3.2l-0.8-2.2l-0.5-0.5h-14.5
		l-0.3,0.5c0,0-0.5,1.1-0.8,2.2c-0.3,1.1-0.8,2.2-0.5,3.2h-19.9c0.8-1.1,1.3-2.2,1.9-3.2l12.1-32.3c0.5-1.1,0.8-2.2,0.8-3.2H257
		c-0.3,1.1,0.3,2.2,0.8,3.2C258.1,149.2,269.1,176.9,269.9,179.1z M241.1,168l-3.5-9.2c-0.3-0.8-0.5-1.6-0.8-2.7
		c-0.3,0.8-0.3,1.6-0.8,2.7c0,0.3-1.6,4.3-3.2,9.2C232.7,168,241.1,168,241.1,168z M79.3,143.5H52.9c0.5,1.1,0.5,2.2,0.5,3.2v32.3
		c0,1.1,0,2.2-0.5,3.2h26.4c-0.5-1.1-0.5-2.2-0.5-3.2v-32.3C78.8,145.7,78.8,144.6,79.3,143.5L79.3,143.5z M261.8,146.5
		c0-2.7,2.2-5.1,4.8-5.1h0.3c3,0,5.1,2.2,5.1,4.8v0.3c0,2.7-2.2,5.1-5.1,5.4C264.2,151.9,261.8,149.7,261.8,146.5
		C261.8,146.8,261.8,146.5,261.8,146.5z M262.9,146.5c0,2.2,1.9,4,4.3,4s4.3-1.9,4.3-4c0-2.2-1.9-4-4.3-4c-2.2,0-4,1.6-4.3,3.8
		V146.5z M265.9,149.5h-0.8v-6.2h2.4c1,0,1.9,0.8,1.9,1.8c0,0,0,0.1,0,0.1c0,0.8-0.5,1.3-1.1,1.9l1.3,2.4h-1.1l-1.3-2.2h-1.3
		C265.9,147.3,265.9,149.5,265.9,149.5z M265.9,146.5h1.3c0.5,0,1.1-0.5,1.1-1.1c0-0.5-0.5-1.1-1.1-1.1h-1.3
		C265.9,144.3,265.9,146.5,265.9,146.5z"/>
</g>
</svg>
