<?xml version="1.0" encoding="utf-8"?>
<svg version="1.1" id="Layer_1" xmlns="http://www.w3.org/2000/svg" xmlns:xlink="http://www.w3.org/1999/xlink" x="0px" y="0px"
	 viewBox="0 0 577 134.9" style="enable-background:new 0 0 577 134.9;" xml:space="preserve">
<g id="Layer_2_1_">
	<g id="Layer_1-2">
		<g>
			<path style="fill:#005F83;" d="M349.6,32.3C349.6,13.3,363.7,0,383.4,0c19.5,0,33.8,13.8,33.7,32.5s-14.6,32.1-34.8,31.9
				C363.1,64.2,349.5,50.9,349.6,32.3z M383.2,56.1c14.1,0,24.6-10.3,24.5-24c-0.1-13.3-10.4-23.2-24.1-23.3
				c-14.4,0-24.7,9.8-24.7,23.6C358.8,45.9,369.3,56,383.2,56.1z"/>
			<path style="fill:#005F83;" d="M457.1,17.1v46.2c-2.9,1-5.3,0.4-8.1,0.5V1.4c2.1-0.9,4.5-0.3,7.1-0.4
				c13.6,15.7,27.3,31.4,41.1,47.2l1-0.3V1.4c3.1-0.8,5.5-0.3,8.4-0.5v62.3c-2.2,1.4-4.7,0.1-7.3,0.8l-41.2-47.4L457.1,17.1z"/>
			<path style="fill:#005F83;" d="M29.3,30.5c1.5,0.6,3,1.2,4.5,2c11.4,5.9,12.1,20.7,1.2,27.6c-2.4,1.6-5.1,2.6-7.9,3
				c-2,0.3-3.9,0.5-5.9,0.6c-6.9,0.1-13.9,0-21.2,0V1c8.7,0.2,17.5-1.2,26,1.2c5.8,1.6,9.8,5.6,10.8,11.8s-0.6,11.6-6.3,15
				C29.9,29.3,29.4,29.9,29.3,30.5z M9,36v19.4c5.5,0.6,11.1,0.5,16.6-0.5c5-1,8.3-5.8,7.3-10.8c-0.6-3.1-2.8-5.7-5.7-6.8
				c-1.4-0.6-2.8-0.9-4.3-1.1C18.2,35.7,13.6,35.7,9,36z M8.9,27.3c6,0.6,9.4,0.5,12.4-0.5c4.1-1.2,6.8-5.2,6.4-9.6
				c-0.3-4.2-2.5-6.9-7.1-7.8c-3.9-0.8-7.9-0.8-11.8,0V27.3z"/>
			<path style="fill:#005F83;" d="M108,63.5H72V1.2h34.9c1.1,2.5,0.4,4.8,0.5,7.6H81.2c-0.7,6.5-0.2,12.4-0.4,19h25.4
				c0.6,2.6,0.6,5.3,0.3,8H81.2v19.7h26.4C108.4,58.4,108.1,60.6,108,63.5z"/>
			<path style="fill:#005F83;" d="M549.9,36.1v19.2h26.2c1.1,3.8,1.1,3.8,0.5,8.1H541V1.3h34.7c0.7,2.4,0.4,4.7,0.1,7.6H550
				c-0.7,6.6-0.2,12.5-0.4,19h24.9c1,2.8,0.7,5.1,0.4,8.2L549.9,36.1z"/>
			<path style="fill:#005F83;" d="M223.7,51.2c-2.8,0.5-5.7,0.6-8.5,0.3c-2.1-1.5-2.1-4.2-4-6.2h-26c-1.8,1.6-1.8,4.3-3.7,6
				c-2.7,0.6-5.4,0.3-8.9,0.1l21.8-50.3c2.4-0.9,4.4-0.5,6.8-0.4C208.6,17.4,216,34,223.7,51.2z M207.6,36.8
				c-3.1-7.4-6.1-14.3-9.9-22.1c-3.3,8.1-6.1,15-9,22.1H207.6z"/>
			<path style="fill:#005F83;" d="M272.7,51.2c-3.1,0.6-6.3,0.6-9.3,0V9.1h-20.8c-1.4-2.8-0.5-5.2-0.8-7.9h52.1
				c0.6,2.5,0.6,5,0.1,7.5h-21.3V51.2z"/>
			<path style="fill:#005F83;" d="M294,60.2c0.7,1.6,0.7,3.3,0,4.9H173.4c-1.1-1.4-0.7-3-0.3-4.9L294,60.2z"/>
			<path style="fill:#005F83;" d="M384.5,106.6c3-0.5,6.1-0.6,9.2-0.3c3.2,0.2,6.5,0.9,7.8,4.3s0,6.4-3,8.8c0.8,0.4,1.5,0.9,2.2,1.5
				c4.5,4,3.5,10-2.1,12.3c-2.7,1.1-7.5,1.3-14.1,0.5L384.5,106.6z M387.7,121.3c0.1,3.4-0.3,6.3,0.3,9.5c2.8,0.1,5.4,0.5,8-0.3
				c2.2-0.7,3.8-2.1,3.7-4.6c-0.1-2.3-1.5-3.5-3.6-4.2C393.6,120.9,391,121.1,387.7,121.3L387.7,121.3z M387.7,117.8
				c2.3,0.1,4.7,0.1,7-0.1c2.1-0.1,3.7-1.9,3.6-4.1c0,0,0,0,0,0c0-2.3-1.4-3.6-3.7-3.9c-2.2-0.5-4.4-0.4-6.5,0.2
				c-0.2,0.6-0.3,1.2-0.4,1.8C387.7,113.7,387.7,115.5,387.7,117.8L387.7,117.8z"/>
			<path style="fill:#005F83;" d="M139.6,120.5c-0.1-8.6,5.7-14.6,14.2-14.8c8.7-0.1,15,6,14.9,14.6c0.2,7.8-6,14.4-13.8,14.6
				c-0.2,0-0.5,0-0.7,0C145.9,134.9,139.7,128.9,139.6,120.5z M154.1,108.9c-6.2,0-10.8,4.8-10.9,11.3s5,11.7,11.2,11.5
				s10.6-5.1,10.5-11.6S160.3,108.8,154.1,108.9z"/>
			<path style="fill:#005F83;" d="M462.1,122.4c-1.2-0.6-2.7-0.7-4-0.3c-1,3.6,0.1,7.5-0.7,11.1c-0.9,1-1.8,0.8-3,0.2v-26.9
				c3.8-0.6,7.8-0.5,11.6,0.1c4,0.8,5.9,2.6,6.4,6c0.5,3.2-0.9,6-4.1,7.8c-0.7,0.4-1.4,0.7-2.5,1.2l7,11.5c-1.3,1.2-2.4,0.9-3.8,0.5
				L462.1,122.4z M458.1,118.1c2.5,0.6,5,0.5,7.4-0.1c1.9-0.3,3.3-1.9,3.3-3.8c0.2-2.1-1.3-4-3.4-4.3c-2.5-0.6-5.1-0.6-7.6,0
				C457.8,112.8,457.4,115.3,458.1,118.1z"/>
			<path style="fill:#005F83;" d="M239.7,107.2l-12.6,11.7c3.9,5.4,9.3,9.4,13.2,14.7c-1.5,0.9-2.8,0.4-4.1,0.5l-12.9-13.6
				c-1,4.7-0.1,8.9-0.7,12.8c-1,1.1-1.9,0.9-3.2,0.4v-26.4c0.6-0.9,1.6-1.2,3.2-0.1v10.5C229.2,115,231.5,106.5,239.7,107.2z"/>
			<path style="fill:#005F83;" d="M441.6,133.4c-1,0.7-2.2,0.8-3.4,0.4c-1.8-1.6-1.6-4.3-3.5-6.2c-4.4-0.5-8.8-0.5-13.2-0.1l-2.9,6
				c-1.2,0.7-2.2,0.5-3.8,0.3c4.1-9.3,8.1-18.3,11.9-27c2.8-1.2,3.8,0.2,4.5,2.1C434.6,117,438.1,125.1,441.6,133.4z M428.4,111.3
				c-2.2,4-3.9,8.2-5.2,12.6h10C432,119.6,430.4,115.4,428.4,111.3L428.4,111.3z"/>
			<path style="fill:#005F83;" d="M304.3,133.4c-1,0.7-2.2,0.9-3.3,0.4c-1.7-1.6-1.7-4.3-3.4-6.1c-2.1-0.8-4.5-0.3-6.8-0.4
				s-4.3,0-6.1,0c-1.8,1.9-2.1,4.2-3.3,6.1c-0.8,0.7-2,0.9-3,0.4c-0.4-0.4-0.5-0.9-0.2-1.4c3.4-7.7,6.8-15.5,10.2-23.2
				c0.8-1.7,1.5-3.5,4.3-2.6c2.5,4,4,8.8,6,13.3S302.3,128.7,304.3,133.4z M296.5,124l-5.4-12.9c-2,4.9-4.3,8.5-5,12.9H296.5z"/>
			<path style="fill:#005F83;" d="M125.4,128.2c1.1,0.6,1.9,1,2,2.2c-1.9,2.9-4.9,4-8.3,4.5c-6.5,0.9-12.8-2.9-15.1-9
				c-2.5-6.6-0.3-14.1,5.2-17.8c5.3-3.6,12.1-3.1,17.4,1.4c0.1,1.3-0.9,1.6-2.3,2.5c-2.4-2.6-6.2-3.7-9.6-2.8
				c-2.3,0.6-4.3,2-5.6,3.9c-3.4,4.8-3,11.3,1,15.6C114.2,132.8,119.2,132.7,125.4,128.2z"/>
			<path style="fill:#005F83;" d="M203.7,128.3c0.9,0.3,1.6,1.1,1.8,2c-1.5,2-3.8,3.5-6.3,4c-6.7,1.9-13.7-1.3-16.7-7.6
				c-3-6.4-1.2-14.4,4.2-18.5c5.3-4,12.4-3.5,17.8,1c0.2,1.5-1,1.8-2,2.3c-6.4-4-11.3-3.7-15,0.9c-3.7,4.6-3.6,11.1,0.2,15.6
				C191.6,132.7,196.7,132.7,203.7,128.3z"/>
			<path style="fill:#005F83;" d="M258.8,133.6v-23.4c-3-1.3-6,0.1-8.5-1.2c-0.4-0.8-0.5-1.4,0.3-2.7c6.5,0.1,13.4-0.5,20.3,0.4
				c0.7,0.1,0.8,1,0.7,1.9c-2.4,2.2-5.8,0-8.9,1.8v22.3C261.3,134.3,260.4,134.1,258.8,133.6z"/>
			<path style="fill:#005F83;" d="M336.3,106.9c1-0.6,1.8-0.7,3.1,0.3v23.6h11c1.7,1,1.5,1.8,1.3,3h-15.5V106.9z"/>
			<path style="fill:#005F83;" d="M317.3,106.8c0.8-0.7,2-0.6,2.8,0.1v26.4c-0.8,0.8-1.6,0.8-2.8,0.3V106.8z"/>
		</g>
	</g>
</g>
</svg>
