<svg xmlns="http://www.w3.org/2000/svg" xmlns:xlink="http://www.w3.org/1999/xlink" viewBox="0 0 2308.8 700.4"><path d="M632.7 685.7c15.2 0 25.3-13 25.3-28.7V43.4c0-15.7-10.1-28.7-25.3-28.7H40c-12.7 0-25.3 13-25.3 28.7V657c0 15.7 12.7 28.7 25.3 28.7h592.7 0z" fill-rule="evenodd" fill="#ebce45"/><path d="M632.7 700.4H40c-21.3 0-40-20.3-40-43.4V43.4C0 20.3 18.7 0 40 0h592.6c22.8 0 40 18.7 40 43.4V657c.1 24.7-17.1 43.4-39.9 43.4zM40 29.4c-4.2 0-10.6 6.3-10.6 14V657c0 7.8 6.4 14 10.6 14h592.6c7.3 0 10.6-7.3 10.6-14V43.4c0-6.8-3.3-14-10.6-14H40z" fill="#0c0e0f"/><path d="M1448.2 685.7c15.2 0 27.9-13 27.9-28.7V43.4c0-15.7-12.7-28.7-27.9-28.7H858.1c-15.2 0-25.3 13-25.3 28.7V657c0 15.7 10.1 28.7 25.3 28.7h590.1 0z" fill-rule="evenodd" fill="#ebce45"/><path d="M1448.2 700.4H858.1c-22.8 0-40-18.7-40-43.4V43.4c0-24.7 17.2-43.4 40-43.4h590.1c23.5 0 42.5 19.5 42.5 43.4V657c0 23.9-19.1 43.4-42.5 43.4zm-590.1-671c-7.3 0-10.6 7.3-10.6 14V657c0 6.8 3.3 14 10.6 14h590.1c7.1 0 13.2-6.4 13.2-14V43.4c0-7.6-6-14-13.2-14H858.1z" fill="#0c0e0f"/><use xlink:href="#B" fill-rule="evenodd" fill="#ebce45"/><use xlink:href="#B" fill="none" stroke="#0c0e0f" stroke-width="29.364" stroke-miterlimit="33.89"/><path d="M422.4 375l-7.6-120.1V87.8h159.6v524.8h-157L237.6 325.4l7.6 120.1v167.1H85.6V87.8h154.5L422.4 375zm833.3-86.2c-5.1-54.8-38-86.2-91.2-86.2-58.3 0-93.7 52.2-93.7 151.4 0 75.7 15.2 143.6 101.3 143.6 53.2 0 78.5-39.2 83.6-88.8h159.6c-12.7 135.8-106.4 216.7-240.6 216.7-167.2 0-268.5-107-268.5-276.7s111.4-274.1 250.7-274.1c157 0 243.1 78.3 255.8 214.1h-157 0 0zm683.8 36.6V210.5h48.1c32.9 0 88.7 7.8 88.7 54.8 0 44.4-30.4 60-68.4 60l-68.4.1h0 0zm0 287.2V448.1h83.6c144.4 0 210.2-70.5 210.2-182.8 0-107.1-70.9-177.5-215.3-177.5h-245.7v524.8h167.2z" fill-rule="evenodd" fill="#0c0e0f"/><defs ><path id="B" d="M2266.2 685.7c15.2 0 27.9-13 27.9-28.7V43.4c0-15.7-12.7-28.7-27.9-28.7h-590.1c-15.2 0-27.9 13-27.9 28.7V657c0 15.7 12.7 28.7 27.9 28.7h590.1 0z"/></defs></svg>