<?xml version="1.0" encoding="utf-8"?>
<svg version="1.1" id="Layer_1" xmlns="http://www.w3.org/2000/svg" xmlns:xlink="http://www.w3.org/1999/xlink" x="0px" y="0px"
	width="100px" height="100px" viewBox="0 0 100 100" style="enable-background:new 0 0 100 100;" xml:space="preserve">
<g>
	<path style="fill:#E8E8E8;" d="M50,0c27.6,0,50,22.4,50,50s-22.4,50-50,50S0,77.6,0,50S22.4,0,50,0"/>
	<path style="fill:#FFFFFF;" d="M50,1c27.1,0,49,21.9,49,49S77.1,99,50,99S1,77.1,1,50S22.9,1,50,1"/>
	<g id="g4005">
		<g id="g4011" transform="translate(303.5803,639.4783)">
			<path id="path4013" style="fill:#231F20;" d="M-255-591.1v6.8c0,1.7-0.1,1.7-0.1,1.8c-0.1,0.1-0.1,0.1-0.2,0.2
				c-0.1,0.1-0.2,0.2-0.3,0.2c-0.1,0.1-0.2,0.1-0.2,0.1c0,0,0,0-0.1,0c0,0,0,0-0.1,0c0,0,0,0,0,0.1h5.2v-0.1c0,0,0,0-0.1,0
				c-0.1,0-0.1-0.1-0.2-0.1c-0.1-0.1-0.2-0.2-0.3-0.3c-0.1-0.1-0.1-0.2-0.2-0.3c0-0.1-0.1-0.1-0.1-2.7v-13.1l-4.5,4.5
				c0.3-0.1,0.7-0.1,0.9,0.2C-255-593.5-255-593-255-591.1"/>
		</g>
		<g id="g4015" transform="translate(277.2133,647.007)">
			<path id="path4017" style="fill:#6BC856;" d="M-240.2-601.9c0-0.4,0-0.9,0.1-1.3l11.5-11.5c0.4,0,0.9-0.1,1.3-0.1
				c0.6,0,1.2,0,1.8,0.1l-14.6,14.6C-240.2-600.7-240.2-601.3-240.2-601.9"/>
		</g>
		<g id="g4019" transform="translate(287.3654,624.8147)">
			<path id="path4021" style="fill:#6BC856;" d="M-245.9-570c-0.6-0.5-1.1-1-1.6-1.6l7-7c0.3-0.1,0.8-0.1,1,0.2
				c0.1,0.2,0.1,0.4,0.2,1.9L-245.9-570"/>
		</g>
		<g id="g4023" transform="translate(325.0032,669.7935)">
			<path id="path4025" style="fill:#6BC856;" d="M-267-634.7c0.6,0.5,1.1,1,1.6,1.6l-7.1,7.1v-3.2L-267-634.7"/>
		</g>
		<g id="g4027" transform="translate(319.3264,673.4052)">
			<path id="path4029" style="fill:#6BC856;" d="M-263.9-639.9c0.7,0.3,1.4,0.7,2,1.2l-18,18c-0.5-0.6-0.9-1.3-1.2-2L-263.9-639.9"
				/>
		</g>
		<g id="g4031" transform="translate(312.3721,675.7515)">
			<path id="path4033" style="fill:#6BC856;" d="M-260-643.3c0.9,0.2,1.7,0.4,2.5,0.8l-16.9,16.9c-0.3-0.8-0.6-1.6-0.8-2.5
				L-260-643.3"/>
		</g>
		<g id="g4035" transform="translate(277.6894,652.2979)">
			<path id="path4037" style="fill:#6BC856;" d="M-240.5-609.5c1-5.2,5.1-9.4,10.3-10.3L-240.5-609.5"/>
		</g>
		<g id="g4039" transform="translate(329.4559,628.994)">
			<path id="path4041" style="fill:#0FAA4B;" d="M-269.5-576c-0.5,0.6-1,1.1-1.6,1.7l-5.8-5.8v-3.2L-269.5-576"/>
		</g>
		<g id="g4043" transform="translate(333.131,634.4778)">
			<path id="path4045" style="fill:#0FAA4B;" d="M-271.6-583.9c-0.3,0.7-0.7,1.3-1.1,1.9l-7.9-7.9l1.5-1.5L-271.6-583.9"/>
		</g>
		<g id="g4047" transform="translate(335.4306,641.4548)">
			<path id="path4049" style="fill:#0FAA4B;" d="M-272.9-593.9c-0.2,0.9-0.4,1.7-0.7,2.5l-7.3-7.3l1.6-1.6L-272.9-593.9"/>
		</g>
		<g id="g4051" transform="translate(326.3195,661.8088)">
			<path id="path4053" style="fill:#0FAA4B;" d="M-267.8-623.2l1.5-1.5c1.2,1.6,2.2,3.4,2.5,5.5L-267.8-623.2"/>
		</g>
		<g id="g4055" transform="translate(325.3447,660.8351)">
			<path id="path4057" style="fill:#0FAA4B;" d="M-267.2-621.8l4.6,4.6c0.1,0.5,0.1,1,0.1,1.4c0,0.6,0,1.2-0.1,1.7l-6.2-6.2
				L-267.2-621.8"/>
		</g>
		<g id="g4059" transform="translate(338.5345,607.6329)">
			<path id="path4061" style="fill:#0A974B;" d="M-274.6-545.3l-1.1,5.2l-2.3,0l1.1-5.2l-2.1,0l0.4-1.8l6.5,0l-0.4,1.8L-274.6-545.3
				z"/>
		</g>
		<g id="g4063" transform="translate(378.8348,599.5872)">
			<path id="path4065" style="fill:#0A974B;" d="M-297.3-533.7l3,0l-0.3,1.7l-5.3,0l1.4-7l5.2,0l-0.3,1.7l-2.9,0l-0.2,0.9l2.7,0
				l-0.4,1.7l-2.7,0L-297.3-533.7z"/>
		</g>
		<g id="g4067" transform="translate(364.4312,599.5824)">
			<path id="path4069" style="fill:#0A974B;" d="M-289.2-533.7l3,0l-0.3,1.7l-5.3,0l1.4-7l5.2,0l-0.3,1.7h-2.9l-0.2,0.9h2.7
				l-0.4,1.7l-2.7,0L-289.2-533.7z"/>
		</g>
		<g id="g4071" transform="translate(349.4442,605.3569)">
			<path id="path4073" style="fill:#0A974B;" d="M-280.8-542l0.9,0c0.4,0,0.7-0.3,0.8-0.6c0,0,0-0.1,0-0.1c0-0.1,0-0.2-0.1-0.3
				c-0.1-0.1-0.1-0.1-0.4-0.1l-0.9,0L-280.8-542z M-281.1-540.3l-0.5,2.5l-2.3,0l1.5-7l3.3,0c1.1,0,1.5,0.1,1.7,0.4
				c0.4,0.3,0.6,0.7,0.6,1.2c0,0.1,0,0.3,0,0.4c-0.1,0.7-0.6,1.3-1.3,1.6c0.4,0.2,0.6,0.6,0.6,1.1c0,0,0,0.1,0,0.1l-0.1,1.1
				c0,0.1,0,0.1,0,0.2c0,0.2,0,0.3,0.1,0.7l0,0.3h-0.3l-1.9,0l-0.2,0l0-0.2c0-0.1-0.1-0.2-0.1-0.5c0-0.1,0-0.2,0-0.4l0.1-1.1
				c0,0,0-0.1,0-0.1c0-0.2-0.1-0.4-0.4-0.4H-281.1z"/>
		</g>
		<g id="g4075" transform="translate(264.3759,599.8281)">
			<path id="path4077" style="fill:#0A974B;" d="M-233-534l2.8,0l-0.4,1.8l-5.1,0l1.5-7l2.3,0L-233-534z"/>
		</g>
		<g id="g4079" transform="translate(277.4843,599.831)">
			<path id="path4081" style="fill:#0A974B;" d="M-240.4-534l2.8,0l-0.4,1.8l-5.1,0l1.5-7l2.3,0L-240.4-534z"/>
		</g>
		<g id="g4083" transform="translate(249.2959,599.3164)">
			<path id="path4085" style="fill:#0A974B;" d="M-224.5-533.3c0.5,0,1.3-0.4,1.6-2c0.1-0.3,0.1-0.6,0.1-0.8c0-0.9-0.4-1.1-0.8-1.1
				c-0.6,0-1.3,0.4-1.7,2c-0.1,0.3-0.1,0.6-0.1,0.8C-225.4-533.5-225-533.3-224.5-533.3 M-224.8-531.6L-224.8-531.6
				c-0.5,0-0.6,0-0.7-0.1c0,0,0,0,0,0c-0.7-0.1-1.2-0.4-1.6-0.9c-0.3-0.4-0.5-1-0.5-1.7c0-0.3,0-0.7,0.1-1.1
				c0.5-2.2,2.1-3.6,4.1-3.6c1.1,0,1.8,0.3,2.3,0.9c0.4,0.4,0.6,1,0.6,1.8c0,0.3,0,0.7-0.1,1.1c-0.2,1-0.7,1.8-1.3,2.4
				C-222.7-532-223.5-531.6-224.8-531.6"/>
		</g>
		<g id="g4087" transform="translate(230.1893,599.5724)">
			<path id="path4089" style="fill:#0A974B;" d="M-213.8-533.7l0.5,0c0.6,0,1-0.2,1.4-0.6c0.3-0.3,0.5-0.8,0.6-1.3
				c0-0.2,0.1-0.4,0.1-0.6c0-0.8-0.5-1.2-1.2-1.2l-0.6,0L-213.8-533.7z M-216.4-532l1.5-7l3.3,0c1,0,1.9,0.4,2.3,1
				c0.3,0.4,0.4,0.9,0.4,1.6c0,0.3,0,0.6-0.1,0.9c-0.2,1.2-0.8,2.1-1.5,2.6c-0.8,0.7-1.7,0.9-2.5,0.9L-216.4-532z"/>
		</g>
		<g id="g4091" transform="translate(311.2837,605.3665)">
			<path id="path4093" style="fill:#0A974B;" d="M-259.3-542l0.9,0c0.4,0,0.7-0.3,0.8-0.6c0,0,0-0.1,0-0.1c0-0.1,0-0.2-0.1-0.3
				c-0.1-0.1-0.1-0.1-0.4-0.1l-0.9,0L-259.3-542z M-259.7-540.3l-0.5,2.5l-2.3,0l1.4-7l3.3,0c1.1,0,1.5,0.1,1.7,0.4
				c0.4,0.3,0.5,0.7,0.6,1.2c0,0.1,0,0.3,0,0.4c-0.1,0.7-0.6,1.3-1.3,1.6c0.4,0.2,0.6,0.6,0.6,1.1c0,0,0,0.1,0,0.1l-0.1,1.1
				c0,0.1,0,0.1,0,0.2c0,0.2,0,0.3,0.1,0.7l0,0.3h-0.3l-1.9,0h-0.2l0-0.2c0-0.1-0.1-0.2-0.1-0.5c0-0.1,0-0.2,0-0.4l0.1-1.1
				c0,0,0-0.1,0-0.1c0-0.2-0.1-0.4-0.4-0.4H-259.7L-259.7-540.3z"/>
		</g>
		<g id="g4095" transform="translate(293.6126,602.6227)">
			<path id="path4097" style="fill:#0A974B;" d="M-249.4-538.1l1.1,0c-0.1-0.5-0.1-1.1-0.2-1.7C-248.8-539.3-249-538.7-249.4-538.1
				 M-250.4-536.4l-0.8,1.3l-2.3,0l4.3-7l2.4,0l1.3,7l-2.4,0l-0.2-1.3L-250.4-536.4z"/>
		</g>
		<g id="g4099" transform="translate(387.4331,597.692)">
			<path id="path4101" style="fill:#0A974B;" d="M-302.1-531l0.1,0c0.1,0,0.2,0,0.2-0.1c0-0.1-0.1-0.1-0.2-0.1h-0.1V-531z
				 M-301.9-531.4c0.2,0,0.4,0.1,0.4,0.2c0,0.1-0.1,0.2-0.2,0.2l0.2,0.4h-0.2l-0.2-0.4h-0.1v0.4h-0.2v-0.9L-301.9-531.4z
				 M-302.4-531.4c-0.1,0.1-0.2,0.3-0.2,0.5c0,0.2,0.1,0.3,0.2,0.5c0.1,0.1,0.3,0.2,0.5,0.2c0.2,0,0.4-0.1,0.5-0.2
				c0.1-0.1,0.2-0.3,0.2-0.5c0-0.2-0.1-0.4-0.2-0.5c-0.1-0.1-0.3-0.2-0.5-0.2C-302.1-531.6-302.3-531.5-302.4-531.4 M-301.4-531.5
				c0.1,0.1,0.2,0.3,0.2,0.5c0,0.2-0.1,0.4-0.2,0.6c-0.2,0.1-0.3,0.2-0.6,0.2c-0.2,0-0.4-0.1-0.6-0.2c-0.1-0.2-0.2-0.3-0.2-0.5
				c0-0.2,0.1-0.4,0.2-0.6c0.1-0.1,0.3-0.2,0.5-0.2C-301.8-531.7-301.6-531.6-301.4-531.5"/>
		</g>
	</g>
</g>
</svg>
