<?xml version="1.0" encoding="utf-8"?>
<svg version="1.1" id="Layer_1" xmlns="http://www.w3.org/2000/svg" xmlns:xlink="http://www.w3.org/1999/xlink" x="0px" y="0px"
	 viewBox="0 0 1919.7 355.9" style="enable-background:new 0 0 1919.7 355.9;" xml:space="preserve">
<g>
	<g>
		<path style="fill:#F6D330;" d="M286.6,294.9L258.2,0l0,0l-29.3,299.6C248,297.7,267,296,286.6,294.9L286.6,294.9z"/>
		<path style="fill:#66B24C;" d="M356.8,292.7V0h-98.6l0,0l28.7,294.6C309.6,293.5,333,292.7,356.8,292.7z"/>
		<path style="fill:#004FB6;" d="M228.9,299.6L258.2,0l0,0H0v355.9C60.8,329.4,139.7,309.6,228.9,299.6L228.9,299.6z"/>
	</g>
	<path style="fill:#004FB6;" d="M1124.7,24c6.1,1.1,28.4,7.5,28.4,23.2v252.1h75.1V15.2H1125V24H1124.7z"/>
	<path style="fill:#004FB6;" d="M659.4,15.2H535.2v9.1c9.1,1.9,28.7,7.5,20.7,25.1L444,299.9h59.1l35.1-78.1h124l30.7,78.1h77.6
		L659.4,15.2z M553.9,186.4l50.3-111.8l43.9,111.8H553.9z"/>
	<path style="fill:#004FB6;" d="M1809,15.2h-124.3v9.1c9.1,1.9,28.7,7.5,20.7,25.1l-111.8,250.5h59.1l35.1-78.1h123.7l30.7,78.1
		h77.6L1809,15.2z M1703.5,186.4l50.3-111.8l43.9,111.8H1703.5z"/>
	<path style="fill:#004FB6;" d="M1485.1,299.6l118.5-284.4h-56.1l-86.7,208.8l-82.8-208.8h-105.5v9.1c12.2,2.2,26,7.5,32,23.2
		l100,252.1H1485.1L1485.1,299.6L1485.1,299.6z"/>
	<path style="fill:#004FB6;" d="M965.4,299.6l118.7-284.4h-56.1l-87,208.8L858.2,15.2H752.8v9.1c12.2,2.2,25.7,7.5,32,23.2
		l100,252.1H965.4L965.4,299.6z"/>
</g>
</svg>
