<?xml version="1.0" encoding="utf-8"?>
<svg version="1.1" id="Layer_1" xmlns="http://www.w3.org/2000/svg" xmlns:xlink="http://www.w3.org/1999/xlink" x="0px" y="0px"
	width="100px" height="100px" viewBox="0 0 72.2 72.2" style="enable-background:new 0 0 72.2 72.2;" xml:space="preserve">
<g>
	<circle style="fill:#E8E8E8;" cx="36.1" cy="36.1" r="36.1"/>
	<circle style="fill:#FFFFFF;" cx="36.1" cy="36.1" r="35.4"/>
	<path style="fill:#010101;" d="M52.3,33.3l-3.8,7.9h-1.6l1.4-3l-2.2-5h1.6l1.4,3.3l1.6-3.3L52.3,33.3
		C52.3,33.3,52.3,33.3,52.3,33.3z M38,36.1c0-0.9-0.6-1.6-1.5-1.6c-0.8,0-1.5,0.6-1.5,1.6c0,0.9,0.6,1.6,1.5,1.6
		C37.3,37.7,38,37,38,36.1z M33.6,41.1v-7.8h1.3V34c0.5-0.5,1-0.8,1.7-0.8c1.5,0,2.7,1.2,2.7,2.9S38.2,39,36.7,39
		c-0.7,0-1.3-0.3-1.7-0.7v3L33.6,41.1z M44.2,36.1c0-0.9-0.6-1.6-1.5-1.6c-0.8,0-1.5,0.6-1.5,1.6c0,0.9,0.6,1.6,1.5,1.6
		C43.6,37.7,44.2,37,44.2,36.1z M44.2,38.9v-0.7c-0.4,0.5-1,0.8-1.7,0.8c-1.5,0-2.7-1.2-2.7-2.9s1.2-2.9,2.7-2.9
		c0.7,0,1.4,0.3,1.7,0.8v-0.6h1.4v5.6L44.2,38.9C44.2,38.9,44.2,38.9,44.2,38.9z M31.1,33.8c0,0,0.4-0.6,1.2-0.6
		c0.4,0,0.6,0.1,0.6,0.1v1.4c0,0-0.5-0.3-1-0.2c-0.5,0.1-0.8,0.5-0.8,1.1v3.2h-1.4v-5.6H31L31.1,33.8L31.1,33.8
		C31.1,33.8,31.1,33.8,31.1,33.8z M62.8,33L61.3,32l-1.7-0.9c-1.1-0.6-2.5,0.1-2.5,1.4v0.2c0,0.1,0.1,0.2,0.1,0.3l0.8,0.4
		c0.2,0.1,0.5,0,0.5-0.3v-0.5c0-0.2,0.2-0.4,0.5-0.3l1.5,0.9l1.5,0.9c0.2,0.1,0.2,0.4,0,0.6l-1.5,0.9l-1.4,0.9
		c-0.2,0.1-0.5,0-0.5-0.3v-0.2c0-1.2-1.4-2-2.5-1.4l-1.7,0.9L53,36.4c-1.1,0.6-1.1,2.2,0,2.8l1.6,0.9l1.7,0.9
		c1.1,0.6,2.5-0.1,2.5-1.4v-0.2c0-0.1-0.1-0.2-0.1-0.3l-0.8-0.4c-0.2-0.1-0.5,0-0.5,0.3v0.5c0,0.2-0.3,0.4-0.5,0.3l-1.5-0.9L53.7,38
		c-0.2-0.1-0.2-0.4,0-0.6l1.5-0.9l1.5-0.9c0.2-0.1,0.5,0,0.5,0.3v0.2c0,1.2,1.4,2,2.5,1.4l1.6-0.9l1.6-0.9
		C63.9,35.2,63.9,33.6,62.8,33L62.8,33z M14.1,36.8c-0.3,1.3-1.4,2.2-2.8,2.2c-1.7,0-2.9-1.2-2.9-2.9s1.2-2.9,2.9-2.9
		c1.4,0,2.5,0.9,2.7,2.2h-1.4c-0.3-0.6-0.8-0.9-1.3-0.9c-0.8,0-1.5,0.6-1.5,1.6c0,0.9,0.6,1.6,1.5,1.6c0.6,0,1.1-0.3,1.3-0.9H14.1
		C14.1,36.8,14.1,36.8,14.1,36.8z M14.9,38.9V31h1.3v7.9L14.9,38.9L14.9,38.9z M18.3,36.4c0.1,0.8,0.6,1.3,1.4,1.3
		c0.6,0,1-0.2,1.3-0.7h1.4c-0.4,1.2-1.4,1.9-2.7,1.9c-1.7,0-2.8-1.2-2.8-2.9s1.2-2.9,2.9-2.9s2.8,1.2,2.8,2.9v0.4H18.3L18.3,36.4z
		 M21.1,35.6c-0.1-0.7-0.6-1.2-1.4-1.2c-0.6,0-1.2,0.4-1.4,1.2C18.3,35.6,21.1,35.6,21.1,35.6z M27.5,38.8v-0.7
		c-0.4,0.5-1,0.8-1.7,0.8c-1.5,0-2.7-1.2-2.7-2.9c0-1.7,1.2-2.9,2.7-2.9c0.7,0,1.4,0.3,1.7,0.8v-0.7h1.4v5.7L27.5,38.8L27.5,38.8
		L27.5,38.8z M27.5,36.1c0-0.9-0.6-1.6-1.5-1.6c-0.9,0-1.5,0.6-1.5,1.6c0,0.9,0.6,1.6,1.5,1.6C26.8,37.7,27.5,37,27.5,36.1z"/>
</g>
</svg>
