<?xml version="1.0"?>
<svg xmlns="http://www.w3.org/2000/svg" xmlns:xlink="http://www.w3.org/1999/xlink" xmlns:svgjs="http://svgjs.com/svgjs" version="1.1" width="512" height="512" x="0" y="0" viewBox="0 0 512 512" style="enable-background:new 0 0 512 512" xml:space="preserve" class=""><g><circle xmlns="http://www.w3.org/2000/svg" cx="256" cy="256" fill="#f1f1f1" r="256" data-original="#4a7aff" style="" class=""/><path xmlns="http://www.w3.org/2000/svg" d="m512 256c0-23.117-3.064-45.519-8.809-66.821l-68.191-68.191-27.623 25.535-43.378-43.377-127.341 52.659-52.659-52.659-48.277 17.132-79.916 79.916 163.05 163.05-115.82 66.92 67.07 67.069c26.848 9.561 55.763 14.767 85.894 14.767 141.385 0 256-114.615 256-256z" fill="#f1f1f1" data-original="#0053bf" style="" class=""/><path xmlns="http://www.w3.org/2000/svg" d="m413.397 109.644h-367.441c-11.329 16.229-20.839 33.821-28.203 52.498h395.643c14.497 0 26.249-11.752 26.249-26.249s-11.752-26.249-26.248-26.249z" fill="#fe8205" data-original="#fe8205" style="" class=""/><path xmlns="http://www.w3.org/2000/svg" d="m413.397 109.644h-157.802v52.498h157.801c14.497 0 26.249-11.752 26.249-26.249s-11.752-26.249-26.248-26.249z" fill="#fa5d0f" data-original="#fa5d0f" style="" class=""/><path xmlns="http://www.w3.org/2000/svg" d="m103.035 187.5h305.93v242.664h-305.93z" fill="#ffffff" data-original="#ffffff" style="" class=""/><path xmlns="http://www.w3.org/2000/svg" d="m255.595 187.5h153.37v242.664h-153.37z" fill="#e9edf5" data-original="#e9edf5" style="" class=""/><path xmlns="http://www.w3.org/2000/svg" d="m148.001 103.146h35.998v131.993h-35.998z" fill="#ffce00" data-original="#ffce00" style="" class=""/><path xmlns="http://www.w3.org/2000/svg" d="m328.001 103.146h35.998v131.993h-35.998z" fill="#fdba12" data-original="#fdba12" style="" class=""/><path xmlns="http://www.w3.org/2000/svg" d="m288.568 256v47h-65.136v-47h-39.433v139h39.433v-47h65.136v47h39.433v-139z" fill="#555a66" data-original="#555a66" style="" class=""/><path xmlns="http://www.w3.org/2000/svg" d="m288.568 256v47h-32.973v45h32.973v47h39.433v-139z" fill="#333940" data-original="#333940" style="" class=""/></g></svg>
