<?xml version="1.0"?>
<svg xmlns="http://www.w3.org/2000/svg" xmlns:xlink="http://www.w3.org/1999/xlink" xmlns:svgjs="http://svgjs.com/svgjs" version="1.1" width="512" height="512" x="0" y="0" viewBox="0 0 512 512" style="enable-background:new 0 0 512 512" xml:space="preserve" class=""><g><circle xmlns="http://www.w3.org/2000/svg" cx="256" cy="256" fill="#f1f1f1" r="256" data-original="#ff636e" style="" class=""/><path xmlns="http://www.w3.org/2000/svg" d="m512 256c0-6.823-.267-13.584-.791-20.273l-76.209-76.208-60.544 127.75-128.982-128.982-77.974 294.046 57.851 57.851c10.049 1.199 20.277 1.816 30.649 1.816 141.385 0 256-114.615 256-256z" fill="#f1f1f1" data-original="#f03049" style="" class=""/><path xmlns="http://www.w3.org/2000/svg" d="m449.487 382.231h-145.509v-179.139c0-40.181 32.573-72.754 72.754-72.754 40.181 0 72.754 32.573 72.754 72.754v179.139z" fill="#414952" data-original="#414952" style="" class=""/><path xmlns="http://www.w3.org/2000/svg" d="m449.487 203.092c0-40.181-32.573-72.754-72.754-72.754-.102 0-.202.007-.304.008v251.886h73.058z" fill="#23272b" data-original="#23272b" style="" class=""/><path xmlns="http://www.w3.org/2000/svg" d="m486.035 365.499-73.937-33.369c-6.82-3.078-11.358-11.112-11.358-20.106v-19.844h-48.085v19.844c0 8.994-4.539 17.028-11.358 20.106l-73.937 33.369-10.279 17.361c31.205 29.509 73.313 47.608 119.651 47.608z" fill="#faa68e" data-original="#faa68e" style="" class=""/><path xmlns="http://www.w3.org/2000/svg" d="m486.035 365.499-73.937-33.369c-6.82-3.078-11.358-11.112-11.358-20.106v-19.844h-24.312v138.285c.102 0 .202.004.304.004z" fill="#e09380" data-original="#e09380" style=""/><path xmlns="http://www.w3.org/2000/svg" d="m315.013 224.347v28.559c0 23.329 13.047 44.7 33.799 55.36l14.004 7.193c8.736 4.488 19.099 4.488 27.835 0l14.004-7.193c20.751-10.66 33.799-32.031 33.799-55.36v-28.559c-.002-4.852-30.454-35.347-30.454-35.347s-92.987 30.495-92.987 35.347z" fill="#ffbeaa" data-original="#ffbeaa" style="" class=""/><path xmlns="http://www.w3.org/2000/svg" d="m408 189s-14.238 4.669-31.571 10.644v119.171c4.876.049 9.761-1.065 14.221-3.357l14.004-7.193c20.752-10.66 33.799-32.031 33.799-55.36v-28.559c-.001-4.851-30.453-35.346-30.453-35.346z" fill="#faa68e" data-original="#faa68e" style="" class=""/><path xmlns="http://www.w3.org/2000/svg" d="m486.852 366.779-.817-1.28-71.611-32.319-22.356 22.356c-8.47 8.47-22.202 8.47-30.672 0l-22.378-22.378h-256.267c-7.87 0-14.251 6.38-14.251 14.251v34.404h196.777l1.481 129.946c97.109-4.017 180.256-62.111 220.094-144.98z" fill="#e9edf5" data-original="#e9edf5" style="" class=""/><path xmlns="http://www.w3.org/2000/svg" d="m486.852 366.779-.817-1.28-71.611-32.319-22.356 22.356c-4.312 4.312-9.988 6.417-15.64 6.338v120.072c47.956-25.608 86.803-66.032 110.424-115.167z" fill="#cdd2e1" data-original="#cdd2e1" style=""/><path xmlns="http://www.w3.org/2000/svg" d="m260.905 382.231h-145.509v-179.139c0-40.181 32.573-72.754 72.754-72.754 40.181 0 72.754 32.573 72.754 72.754v179.139z" fill="#ffce00" data-original="#ffce00" style=""/><path xmlns="http://www.w3.org/2000/svg" d="m260.905 203.092c0-40.181-32.573-72.754-72.754-72.754-.138 0-.274.01-.412.01v251.883h73.167v-179.139z" fill="#fdba12" data-original="#fdba12" style=""/><path xmlns="http://www.w3.org/2000/svg" d="m188.151 430.468c46.564 0 67.681-17.844 98.931-47.608l-13.228-28.012-50.337-22.718c-6.82-3.078-11.358-11.112-11.358-20.106v-19.844h-48.085v19.844c0 8.994-4.539 17.028-11.358 20.106l-73.937 33.369-10.279 17.361c31.206 29.509 73.313 47.608 119.651 47.608z" fill="#e09380" data-original="#e09380" style=""/><path xmlns="http://www.w3.org/2000/svg" d="m287.082 382.86-13.229-28.012-50.337-22.718c-6.82-3.078-11.358-11.112-11.358-20.106v-19.844h-24.421v138.283c.138 0 .275.005.412.005 46.566 0 67.682-17.844 98.933-47.608z" fill="#d47f6c" data-original="#d47f6c" style="" class=""/><path xmlns="http://www.w3.org/2000/svg" d="m126.431 224.347v28.559c0 23.329 13.047 44.7 33.799 55.36l14.004 7.193c8.736 4.488 19.099 4.488 27.835 0l14.004-7.193c20.751-10.66 33.799-32.031 33.799-55.36v-28.559c-.002-4.852-123.441-4.852-123.441 0z" fill="#faa68e" data-original="#faa68e" style="" class=""/><path xmlns="http://www.w3.org/2000/svg" d="m187.738 220.708v98.104c4.912.067 9.836-1.045 14.33-3.354l14.004-7.193c20.752-10.66 33.799-32.031 33.799-55.36v-28.559c-.001-2.436-31.136-3.649-62.133-3.638z" fill="#e09380" data-original="#e09380" style=""/><path xmlns="http://www.w3.org/2000/svg" d="m299.437 382.294c-1.231-10.422-7.834-19.436-17.399-23.753l-56.195-25.362c-20.817 20.817-54.568 20.817-75.385 0l-.021-.021-71.658 32.341-30.642 39.939c46.479 64.536 122.259 106.562 207.863 106.562 19.941 0 39.348-2.282 57.977-6.595z" fill="#b47bff" data-original="#b47bff" style="" class=""/><path xmlns="http://www.w3.org/2000/svg" d="m313.977 505.405-14.54-123.111c-1.231-10.422-7.834-19.436-17.399-23.753l-56.195-25.362c-10.513 10.513-24.326 15.709-38.105 15.603v154.008c21.732 5.999 44.621 9.21 68.262 9.21 19.941 0 39.348-2.282 57.977-6.595z" fill="#8c5adb" data-original="#8c5adb" style="" class=""/><path xmlns="http://www.w3.org/2000/svg" d="m92.26 413.231c-13.122 0-23.76-10.638-23.76-23.76v-40.74h46.896v40.74c.088 13.123-10.014 23.76-23.136 23.76z" fill="#ffbeaa" data-original="#ffbeaa" style="" class=""/></g></svg>
