<?xml version="1.0" encoding="utf-8"?>
<svg version="1.1" id="Layer_1" xmlns="http://www.w3.org/2000/svg" xmlns:xlink="http://www.w3.org/1999/xlink" x="0px" y="0px"
	width="100px" height="100px" viewBox="0 0 72.2 72.2" style="enable-background:new 0 0 72.2 72.2;" xml:space="preserve">
<g>
	<circle style="fill:#E8E8E8;" cx="36.1" cy="36.1" r="36.1"/>
	<circle style="fill:#FFFFFF;" cx="36.1" cy="36.1" r="35.4"/>
	<path style="fill:#ABABAB;" d="M56.3,38.8v-0.5h0.4v0.5H56.3z M58.5,37.2c0-0.3-0.3-0.6-0.6-0.6c-0.5,0-0.8,0.5-0.8,0.9
		c0,0.5,0.3,0.9,0.8,0.9c0.4,0,0.6-0.3,0.6-0.6h0.3c-0.1,0.6-0.4,0.9-0.9,0.9c-0.6,0-1.1-0.6-1.1-1.2c0-0.6,0.4-1.2,1.1-1.2
		c0.4,0,0.9,0.3,0.9,0.8l0,0H58.5z M61.1,37.7c0,0.6-0.4,1.2-1.1,1.2c-0.6,0-1.1-0.6-1.1-1.2c0-0.6,0.4-1.2,1.1-1.2
		C60.7,36.5,61.1,37,61.1,37.7z M59.2,37.7c0,0.5,0.3,0.9,0.8,0.9c0.5,0,0.8-0.5,0.8-0.9c0-0.5-0.3-0.9-0.8-0.9
		C59.5,36.7,59.2,37.2,59.2,37.7z M61.4,36.6h0.3v0.4l0,0c0.1-0.2,0.4-0.4,0.7-0.4s0.6,0.1,0.6,0.4c0.1-0.3,0.4-0.4,0.7-0.4
		c0.5,0,0.7,0.3,0.7,0.8v1.5h-0.2v-1.5c0-0.4-0.1-0.6-0.6-0.6c-0.5,0-0.6,0.4-0.6,0.8v1.3h-0.2v-1.5c0-0.3-0.1-0.6-0.5-0.6
		c-0.5,0-0.6,0.4-0.6,0.8v1.2h-0.3C61.4,38.7,61.4,36.6,61.4,36.6z"/>
	<path style="fill:#323031;" d="M7.6,33.5h1.4v2H11v-2h1.4v5.4H11v-2.2H9.1v2.2H7.6C7.6,38.9,7.6,33.5,7.6,33.5z M16.7,38.9h-1.3
		v-0.6l0,0c-0.3,0.5-0.7,0.6-1.2,0.6c-1.2,0-1.4-0.6-1.4-1.7V35H14v2.2c0,0.5,0.3,0.7,0.6,0.7c0.3,0,0.7-0.1,0.7-0.9V35h1.3
		L16.7,38.9L16.7,38.9z M21.1,38.5c0,0.6-0.1,1.9-1.9,1.9c-0.9,0-1.8-0.2-1.9-1.2h1.3c0,0.2,0.1,0.3,0.2,0.4
		c0.1,0.1,0.3,0.1,0.4,0.1c0.6,0,0.6-0.4,0.6-0.9v-0.3l0,0c-0.2,0.4-0.6,0.6-1,0.6c-1.2,0-1.7-0.9-1.7-1.9c0-1,0.6-1.9,1.7-1.9
		c0.4,0,0.9,0.1,1.1,0.6l0,0v-0.5h1.2C21.1,35,21.1,38.5,21.1,38.5z M19,35.9c-0.6,0-0.7,0.5-0.7,1c0,0.4,0.2,0.9,0.7,0.9
		c0.6,0,0.8-0.4,0.8-0.9C19.8,36.3,19.6,35.9,19,35.9L19,35.9z M22.7,37.2c0,0.5,0.4,0.9,0.9,0.9c0.3,0,0.6-0.2,0.7-0.4h1.2
		c-0.2,0.8-1.1,1.3-1.9,1.3c-1.3,0-2.2-0.8-2.2-2.1c0-1.2,0.9-2.1,2-2.1h0.1c1.4,0,2.1,1.1,2,2.4C25.5,37.2,22.7,37.2,22.7,37.2z
		 M24.2,36.6c0-0.5-0.4-0.8-0.8-0.8c-0.4,0-0.7,0.4-0.8,0.8C22.7,36.6,24.2,36.6,24.2,36.6z"/>
	<path style="fill:#557CBE;" d="M25.8,33.3h2.4c1.7,0,2.7,1,2.7,2.7c0,1.8-1,2.7-2.7,2.7h-2.4V33.3z M27.2,37.6h0.7
		c1.1-0.1,1.5-0.5,1.5-1.6c0-1-0.5-1.5-1.5-1.5h-0.7C27.2,34.5,27.2,37.6,27.2,37.6z M33.1,34.8c1.1,0,2,0.9,2.1,1.9v0.1
		c0,1.2-0.9,2.1-2.1,2.1S31,38,31,36.8c0-1.1,0.8-2,1.9-2.1L33.1,34.8L33.1,34.8z M33.1,37.9c0.6,0,0.8-0.6,0.8-1.1
		s-0.2-1.1-0.8-1.1s-0.8,0.6-0.8,1.1S32.5,37.9,33.1,37.9L33.1,37.9z M35.5,34.9h1.2v0.4h0.1c0.2-0.4,0.6-0.6,1.2-0.6
		c0.5,0,0.9,0.1,1.2,0.6c0.3-0.4,0.7-0.6,1.2-0.6c1.2,0,1.4,0.9,1.4,1.7v2.4h-1.3v-2.3c0-0.4-0.2-0.6-0.6-0.6
		c-0.6,0-0.6,0.4-0.6,1.1v1.9h-1.3v-2.2c0-0.4-0.1-0.7-0.4-0.7c-0.4,0-0.6,0.3-0.6,1.1V39h-1.3L35.5,34.9L35.5,34.9L35.5,34.9z
		 M42.1,36.1c0-0.4,0.2-0.9,0.6-1.1c0.4-0.2,0.8-0.3,1.2-0.3c0.9,0,1.8,0.2,1.8,1.3v1.7c0,0.4,0.1,0.6,0.1,1h-1.3
		c0-0.1-0.1-0.2-0.1-0.4c-0.4,0.4-0.8,0.5-1.3,0.5c-0.7,0-1.3-0.4-1.3-1.2c0-1.3,1.4-1.2,2.3-1.4c0.2-0.1,0.4-0.1,0.4-0.4
		c0-0.3-0.4-0.4-0.6-0.4c-0.4,0-0.6,0.1-0.6,0.5C43.3,36.1,42.1,36.1,42.1,36.1L42.1,36.1z M43.7,38.1c0.6,0,0.8-0.4,0.8-1.2
		c-0.1,0.1-0.5,0.1-0.8,0.2s-0.5,0.2-0.5,0.5C43.2,38,43.4,38.1,43.7,38.1L43.7,38.1z M46.3,34.9h1.3v3.9h-1.3
		C46.3,38.8,46.3,34.9,46.3,34.9z M48.2,34.9h1.2v0.4h0.1c0.3-0.4,0.7-0.6,1.2-0.6c1.3,0,1.4,0.9,1.4,1.5v2.5h-1.3v-1.9
		c0-0.5,0.1-1.1-0.6-1.1c-0.5,0-0.6,0.4-0.6,0.9v2.2h-1.3L48.2,34.9L48.2,34.9z M53.6,37.5c0,0.1,0.1,0.4,0.2,0.4s0.3,0.1,0.5,0.1
		c0.2,0,0.6-0.1,0.6-0.4c0-0.3-0.4-0.4-0.6-0.4c-0.8-0.2-1.8-0.2-1.8-1.3c0-0.9,1-1.2,1.8-1.2c0.9,0,1.7,0.3,1.8,1.2h-1.2
		c0-0.1-0.1-0.2-0.1-0.3c-0.1-0.1-0.3-0.1-0.4-0.1c-0.2,0-0.6,0-0.6,0.3c0,0.4,0.9,0.4,1.4,0.6c0.8,0.1,1,0.7,1,1.1
		c0,1.1-1,1.4-1.9,1.4c-0.9,0-1.9-0.3-1.9-1.4C52.3,37.5,53.6,37.5,53.6,37.5z"/>
	<path style="fill:#323031;" d="M45.7,33.2l1.2,1.4l2.2-2.6L47,33.7C47,33.6,45.7,33.2,45.7,33.2z"/>
</g>
</svg>
