<?xml version="1.0" encoding="utf-8"?>
<svg version="1.1" id="Layer_1" xmlns="http://www.w3.org/2000/svg" xmlns:xlink="http://www.w3.org/1999/xlink" x="0px" y="0px"
	width="100px" height="100px" viewBox="0 0 66.7 66.7" style="enable-background:new 0 0 66.7 66.7;" xml:space="preserve">
<g>
	<circle style="fill:#E8E8E8;" cx="33.3" cy="33.3" r="33.3"/>
	<circle style="fill:#FFFFFF;" cx="33.3" cy="33.3" r="32.7"/>
	<path style="fill:#BC9753;" d="M45.5,34.7c-3.6,0-8.6,3.6-11.6,7.5c-0.3,0.5-0.8,0.5-1.2,0c-0.9-1-5.1-5.4-11.1-5.4
		c-1.5,0-3.7,0.4-5.2,0.8v14.7c0.9-0.7,2.9-1.4,4.9-1.4c3,0,8.9,2.6,11,4.5c0.8,0.7,1.4,0.7,2.1,0c3.1-3.1,8.7-5.7,15.9-5.7V31.9
		h-29c3.6-1.4,8.6-3.7,11.5-7.5c0.3-0.5,0.9-0.5,1.3,0c0.9,1,5.1,5.4,11,5.4c1.5,0,3.8-0.4,5.2-0.8V14.3c-0.9,0.7-2.9,1.4-4.9,1.4
		c-2.9,0-8.8-2.6-10.9-4.5c-0.8-0.7-1.4-0.7-2.1,0c-3.2,3.1-8.7,5.7-15.9,5.7v17.9L45.5,34.7"/>
</g>
</svg>
