<?xml version="1.0"?>
<svg xmlns="http://www.w3.org/2000/svg" xmlns:xlink="http://www.w3.org/1999/xlink" xmlns:svgjs="http://svgjs.com/svgjs" version="1.1" width="512" height="512" x="0" y="0" viewBox="0 0 512 512" style="enable-background:new 0 0 512 512" xml:space="preserve" class=""><g><g xmlns="http://www.w3.org/2000/svg"><g><g><g><g><g><g><circle cx="256" cy="256" fill="#f1f1f1" r="256" data-original="#ff6c52" style="" class=""/></g></g></g></g></g></g><path d="m211.587 411.509 95.411 95.411c116.952-23.642 205.002-126.998 205.002-250.92 0-10.203-.597-20.268-1.758-30.159l-116.107-116.107z" fill="#f1f1f1" data-original="#f92814" style="" class=""/><g><path d="m256 60-138.135 49.734v126.679c0 57.105 24.047 111.57 66.246 150.044l71.889 65.543 71.889-65.543c42.199-38.474 66.246-92.939 66.246-150.044v-126.679z" fill="#ffce00" data-original="#ffce00" style="" class=""/></g><g><path d="m256.014 60.005v391.982l71.875-65.53c42.199-38.474 66.246-92.939 66.246-150.044v-126.679z" fill="#fdba12" data-original="#fdba12" style="" class=""/></g><g><circle cx="256" cy="226" fill="#fdba12" r="115.157" data-original="#fdba12" style="" class=""/></g><g><path d="m371.157 226c0-63.595-51.55-115.149-115.143-115.157l-.014 99.276.003 29.263.011 101.775c63.593-.008 115.143-51.562 115.143-115.157z" fill="#ffa300" data-original="#ffa300" style="" class=""/></g><g><g><g><path d="m202.921 292.461 129.935-129.934-14.632-14.632-106.392 106.392-17.198-17.198c-7.398-7.398-19.394-7.399-26.792 0l-15.796 15.796z" fill="#ffffff" data-original="#ffffff" style="" class=""/></g></g><g><g><path d="m318.224 147.895-62.224 62.224.014 29.249 76.842-76.842z" fill="#e9edf5" data-original="#e9edf5" style=""/></g></g><g><g><path d="m193.778 147.894-14.631 14.632 77.004 77.004v-29.263z" fill="#e9edf5" data-original="#e9edf5" style=""/></g></g><g><g><path d="m359.954 252.881-15.796-15.795c-7.398-7.398-19.394-7.398-26.792 0l-17.198 17.198-44.168-44.165.003 29.263 53.076 53.076z" fill="#cdd2e1" data-original="#cdd2e1" style=""/></g></g></g><g><circle cx="256" cy="301.462" fill="#ffffff" r="29.744" data-original="#ffffff" style="" class=""/></g><g><path d="m285.745 301.462c0-16.423-13.309-29.736-29.73-29.744v59.488c16.42-.007 29.73-13.321 29.73-29.744z" fill="#e9edf5" data-original="#e9edf5" style=""/></g></g></g></svg>
