<?xml version="1.0"?>
<svg xmlns="http://www.w3.org/2000/svg" xmlns:xlink="http://www.w3.org/1999/xlink" xmlns:svgjs="http://svgjs.com/svgjs" version="1.1" width="512" height="512" x="0" y="0" viewBox="0 0 512 512" style="enable-background:new 0 0 512 512" xml:space="preserve" class=""><g><circle xmlns="http://www.w3.org/2000/svg" cx="256" cy="256" fill="#f1f1f1" r="256" data-original="#ff5f96" style="" class=""/><path xmlns="http://www.w3.org/2000/svg" d="m285.823 510.281c127.334-14.773 226.177-122.984 226.177-254.281 0-2.832-.046-5.653-.137-8.463l-170.538-170.537-56.563 124.738-57.22 250.262z" fill="#f1f1f1" data-original="#d72878" style="" class=""/><path xmlns="http://www.w3.org/2000/svg" d="m256 463.5c-22.644 0-41-18.356-41-41v-237.5h82v237.5c0 22.644-18.356 41-41 41z" fill="#ffffff" data-original="#ffffff" style="" class=""/><path xmlns="http://www.w3.org/2000/svg" d="m255.595 185v278.49c.135.001.269.01.405.01 22.644 0 41-18.356 41-41v-237.5z" fill="#e9edf5" data-original="#e9edf5" style="" class=""/><path xmlns="http://www.w3.org/2000/svg" d="m215 197h82v66h-82z" fill="#555a66" data-original="#555a66" style=""/><path xmlns="http://www.w3.org/2000/svg" d="m255.595 197h41.405v66h-41.405z" fill="#333940" data-original="#333940" style=""/><path xmlns="http://www.w3.org/2000/svg" d="m297 213.042h-82l-47.329-101.898c-10.573-22.764 6.048-48.81 31.147-48.81h114.363c25.099 0 41.721 26.047 31.147 48.81z" fill="#ffce00" data-original="#ffce00" style="" class=""/><path xmlns="http://www.w3.org/2000/svg" d="m313.181 62.333h-57.586v150.708h41.405l47.329-101.898c10.573-22.763-6.048-48.81-31.148-48.81z" fill="#fdba12" data-original="#fdba12" style=""/></g></svg>
