<?xml version="1.0"?>
<svg xmlns="http://www.w3.org/2000/svg" xmlns:xlink="http://www.w3.org/1999/xlink" xmlns:svgjs="http://svgjs.com/svgjs" version="1.1" width="512" height="512" x="0" y="0" viewBox="0 0 512 512" style="enable-background:new 0 0 512 512" xml:space="preserve" class=""><g>
<circle xmlns="http://www.w3.org/2000/svg" style="" cx="256" cy="256" r="256" fill="#f1f1f1" data-original="#ffdc00" class=""/>
<path xmlns="http://www.w3.org/2000/svg" style="" d="M512,256c0-6.404-0.243-12.752-0.705-19.038L412,137.667l-5.263,5.07L351,87L88.573,357  l154.683,154.683C247.479,511.89,251.726,512,256,512C397.385,512,512,397.385,512,256z" fill="#f1f1f1" data-original="#ffc000" class=""/>
<rect xmlns="http://www.w3.org/2000/svg" x="100" y="137.67" style="" width="312" height="219.33" fill="#008cc3" data-original="#008cc3"/>
<g xmlns="http://www.w3.org/2000/svg">
	<rect x="256" y="137.67" style="" width="156" height="219.33" fill="#0074a3" data-original="#0074a3"/>
	<rect x="161" y="87" style="" width="190" height="270" fill="#0074a3" data-original="#0074a3"/>
</g>
<rect xmlns="http://www.w3.org/2000/svg" x="256" y="87" style="" width="95" height="270" fill="#005c83" data-original="#005c83" class=""/>
<rect xmlns="http://www.w3.org/2000/svg" x="215.33" y="238.33" style="" width="81.33" height="118.67" fill="#35ccff" data-original="#35ccff"/>
<g xmlns="http://www.w3.org/2000/svg">
	<rect x="256" y="238.33" style="" width="40.667" height="118.67" fill="#00baff" data-original="#00baff" class=""/>
	<rect x="185.83" y="107.67" style="" width="53.33" height="40.667" fill="#00baff" data-original="#00baff" class=""/>
</g>
<rect xmlns="http://www.w3.org/2000/svg" x="272.83" y="107.67" style="" width="53.33" height="40.667" fill="#008cc3" data-original="#008cc3"/>
<rect xmlns="http://www.w3.org/2000/svg" x="185.83" y="170.17" style="" width="53.33" height="40.667" fill="#00baff" data-original="#00baff" class=""/>
<rect xmlns="http://www.w3.org/2000/svg" x="272.83" y="170.17" style="" width="53.33" height="40.667" fill="#008cc3" data-original="#008cc3"/>
<path xmlns="http://www.w3.org/2000/svg" style="" d="M80,330.804c0-24.488,19.851-44.339,44.339-44.339c18.584,0,34.488,11.437,41.081,27.653  c1.708-0.294,3.461-0.456,5.253-0.456c16.975,0,30.737,13.761,30.737,30.737c0,4.492-0.972,8.755-2.704,12.602H88.573  C83.187,349.66,80,340.606,80,330.804z" fill="#6eba3b" data-original="#6eba3b" class=""/>
<path xmlns="http://www.w3.org/2000/svg" style="" d="M215.333,340.026c0-15.867-12.863-28.73-28.73-28.73c-12.042,0-22.347,7.411-26.619,17.918  c-1.107-0.191-2.242-0.296-3.404-0.296c-10.999,0-19.916,8.917-19.916,19.916c0,2.911,0.63,5.673,1.752,8.166h71.363  C213.268,352.244,215.333,346.377,215.333,340.026z" fill="#47ab4b" data-original="#47ab4b" class=""/>
<path xmlns="http://www.w3.org/2000/svg" style="" d="M431.743,330.804c0-24.488-19.851-44.339-44.339-44.339c-18.584,0-34.488,11.437-41.081,27.653  c-1.708-0.294-3.461-0.456-5.253-0.456c-16.975,0-30.737,13.761-30.737,30.737c0,4.492,0.972,8.755,2.704,12.602H423.17  C428.556,349.66,431.743,340.606,431.743,330.804z" fill="#488057" data-original="#488057"/>
<path xmlns="http://www.w3.org/2000/svg" style="" d="M296.667,340.026c0-15.867,12.863-28.73,28.73-28.73c12.042,0,22.347,7.411,26.619,17.918  c1.107-0.191,2.242-0.296,3.404-0.296c10.999,0,19.916,8.917,19.916,19.916c0,2.911-0.63,5.673-1.752,8.166h-71.363  C298.732,352.244,296.667,346.377,296.667,340.026z" fill="#2b9153" data-original="#2b9153"/>
<g xmlns="http://www.w3.org/2000/svg">
</g>
<g xmlns="http://www.w3.org/2000/svg">
</g>
<g xmlns="http://www.w3.org/2000/svg">
</g>
<g xmlns="http://www.w3.org/2000/svg">
</g>
<g xmlns="http://www.w3.org/2000/svg">
</g>
<g xmlns="http://www.w3.org/2000/svg">
</g>
<g xmlns="http://www.w3.org/2000/svg">
</g>
<g xmlns="http://www.w3.org/2000/svg">
</g>
<g xmlns="http://www.w3.org/2000/svg">
</g>
<g xmlns="http://www.w3.org/2000/svg">
</g>
<g xmlns="http://www.w3.org/2000/svg">
</g>
<g xmlns="http://www.w3.org/2000/svg">
</g>
<g xmlns="http://www.w3.org/2000/svg">
</g>
<g xmlns="http://www.w3.org/2000/svg">
</g>
<g xmlns="http://www.w3.org/2000/svg">
</g>
</g></svg>
