<svg xmlns="http://www.w3.org/2000/svg" viewBox="0 0 500 500" fill="#0066b3"><path d="M67.5 231.5h8v13.9h14.7v-13.9h8v36.3h-8v-15.7H75.5v15.7h-8zm36.2 18.1c.4-6.8 6.5-8.8 12.4-8.8 5.2 0 11.6 1.2 11.6 7.5V262c0 2.4.3 4.8.9 5.9h-7.3c-.3-.8-.5-1.7-.5-2.5-2.3 2.4-5.7 3.3-8.9 3.3-5 0-9-2.5-9-7.9 0-6 4.5-7.4 9-8 4.4-.7 8.6-.5 8.6-3.5 0-3.1-2.1-3.6-4.7-3.6-2.8 0-4.5 1.1-4.8 4h-7.3zm16.7 5.3c-1.2 1.1-3.8 1.1-6 1.5-2.2.5-4.3 1.2-4.3 3.9s2.1 3.4 4.4 3.4c5.7 0 5.9-4.5 5.9-6.1v-2.7zm12.3-13.4h6.9v3.7h.2c1.8-3 5-4.4 8.1-4.4 7.7 0 9.6 4.3 9.6 10.9v16.2h-7.2V253c0-4.3-1.3-6.5-4.6-6.5-3.9 0-5.6 2.2-5.6 7.5v13.8h-7.2v-26.3zm48.5 23h-.1c-1.7 2.9-4.6 4.1-8 4.1-7.9 0-11.8-6.8-11.8-14.1 0-7.1 3.9-13.7 11.7-13.7 3.1 0 6.2 1.3 7.8 3.9h.1v-13.2h7.2v36.4h-6.9v-3.4zm-6.3-18.3c-4.7 0-6.4 4.1-6.4 8.4 0 4.1 1.9 8.5 6.4 8.5 4.8 0 6.2-4.2 6.2-8.5s-1.5-8.4-6.2-8.4zm24.1 10.2c.2 4.6 2.4 6.7 6.5 6.7 2.9 0 5.2-1.8 5.7-3.4h6.4c-2 6.2-6.4 8.9-12.3 8.9-8.3 0-13.5-5.7-13.5-13.9 0-7.9 5.5-13.9 13.5-13.9 9 0 13.3 7.5 12.8 15.6H199h0zm11.8-4.6c-.7-3.7-2.2-5.6-5.8-5.6-4.6 0-5.9 3.6-6 5.6h11.8zm11.2-20.3h7.2v36.4H222zm18 27.8c.1 3.2 2.7 4.4 5.6 4.4 2.1 0 4.7-.8 4.7-3.4 0-2.2-3-3-8.2-4.1-4.2-.9-8.4-2.4-8.4-7 0-6.7 5.8-8.5 11.5-8.5 5.8 0 11.1 1.9 11.6 8.4h-6.9c-.2-2.8-2.3-3.6-4.9-3.6-1.6 0-4 .3-4 2.4 0 2.6 4.1 3 8.2 3.9 4.2 1 8.4 2.5 8.4 7.4 0 6.9-6 9.2-12 9.2-6.1 0-12.1-2.3-12.4-9.3l6.8.2h0zm21.3-27.8h7.2v13.2h.1c1.8-2.7 5-3.9 8.3-3.9 5.2 0 10.9 4.2 10.9 13.9s-5.7 13.9-10.9 13.9c-3.9 0-7.1-1.2-8.7-4.1h-.1v3.4h-6.9l.1-36.4h0zm13.1 14.7c-4.3 0-6.2 4-6.2 8.5 0 4.4 1.9 8.4 6.2 8.4s6.2-4 6.2-8.4-1.9-8.5-6.2-8.5zm17.2 3.4c.4-6.8 6.5-8.8 12.4-8.8 5.2 0 11.6 1.2 11.6 7.5V262c0 2.4.3 4.8.9 5.9h-7.3c-.3-.8-.5-1.7-.5-2.5-2.3 2.4-5.7 3.3-8.9 3.3-5 0-9-2.5-9-7.9 0-6 4.5-7.4 9-8 4.4-.7 8.6-.5 8.6-3.5 0-3.1-2.1-3.6-4.7-3.6-2.8 0-4.5 1.1-4.8 4h-7.3zm16.7 5.3c-1.2 1.1-3.8 1.1-6 1.5-2.2.5-4.3 1.2-4.3 3.9s2.1 3.4 4.4 3.4c5.7 0 5.9-4.5 5.9-6.1v-2.7h0zm12.3-13.4h6.9v3.7h.2c1.8-3 5-4.4 8.1-4.4 7.7 0 9.6 4.3 9.6 10.9v16.2h-7.2V253c0-4.3-1.3-6.5-4.6-6.5-3.9 0-5.6 2.2-5.6 7.5v13.8h-7.2l-.2-26.3h0zm30.4-10h7.2V251l9.1-9.5h8.6l-9.9 9.7 11 16.6h-8.7l-7.3-11.7-2.8 2.7v9H351v-36.3zm34 24.9c.2 4.6 2.4 6.7 6.5 6.7 2.9 0 5.2-1.8 5.7-3.4h6.4c-2 6.2-6.4 8.9-12.3 8.9-8.3 0-13.5-5.7-13.5-13.9 0-7.9 5.5-13.9 13.5-13.9 9 0 13.3 7.5 12.8 15.6H385h0zm11.8-4.6c-.7-3.7-2.2-5.6-5.8-5.6-4.6 0-5.9 3.6-6 5.6h11.8zm11-10.3h6.9v3.7h.2c1.8-3 5-4.4 8.1-4.4 7.7 0 9.6 4.3 9.6 10.9v16.2h-7.2V253c0-4.3-1.3-6.5-4.6-6.5-3.9 0-5.6 2.2-5.6 7.5v13.8H408l-.2-26.3h0z"/></svg>