<?xml version="1.0" encoding="utf-8"?>
<svg version="1.1" id="Layer_1" xmlns="http://www.w3.org/2000/svg" xmlns:xlink="http://www.w3.org/1999/xlink" x="0px" y="0px"
	width="100px" height="100px" viewBox="0 0 1920 657.9" style="enable-background:new 0 0 1920 657.9;" xml:space="preserve">
<g>
	<path style="fill:#000929;" d="M933.9,354.6c0,35.9,22.2,65.8,57.2,65.8c30.8,0,58.1-22.2,58.1-64.9c0-45.3-28.2-66.6-58.1-66.6
		C956.2,288.8,933.9,317.9,933.9,354.6z M1068.9,251.2c13.7,0,25.6,11.1,25.6,25.6V546c0,13.7-11.1,23.9-23.9,23.9
		c-13.7,0-23.9-11.1-23.9-23.9V434.9c-21.4,25.6-47,29.1-61.5,29.1c-64.1,0-100-52.1-100-110.2c0-67.5,46.1-108.5,100.8-108.5
		c20.5,0,43.6,6.8,61.5,28.2C1046.7,260.6,1057,251.2,1068.9,251.2z"/>
	<path style="fill:#000929;" d="M1263.8,294.8v138.4c0,13.7-11.1,23.9-23.9,23.9c-13.7,0-23.9-11.1-23.9-23.9V294.8
		c-11.1,0-20.5-9.4-20.5-20.5V270c0-11.1,9.4-20.5,20.5-20.5v-51.3c0-13.7,11.1-23.9,23.9-23.9c13.7,0,23.9,11.1,23.9,23.9v51.3
		h14.5c12,0,22.2,9.4,22.2,22.2c0,12-9.4,22.2-22.2,22.2L1263.8,294.8L1263.8,294.8z"/>
	<path style="fill:#000929;" d="M1430.4,354.6c0,35.9,22.2,65.8,57.2,65.8c30.8,0,58.1-22.2,58.1-64.9c0-45.3-28.2-66.6-58.1-66.6
		C1452.6,288.8,1430.4,317.9,1430.4,354.6z M1567.1,251.2c13.7,0,23.9,11.1,23.9,23.9v160.6c0,12-9.4,21.4-21.4,21.4h-5.1
		c-12,0-21.4-9.4-21.4-21.4c-21.4,24.8-47,28.2-61.5,28.2c-64.1,0-100-53-100-110.2c0-67.5,46.1-108.5,100.8-108.5
		c15.4,0,41.9,4.3,61.5,29.1C1543.2,261.5,1553.4,251.2,1567.1,251.2z"/>
	<path style="fill:#000929;" d="M1755.9,355.5c0,43.6,28.2,64.9,58.1,64.9c35,0,57.2-29.9,57.2-65.8c0-36.7-22.2-66.6-57.2-66.6
		C1783.3,288.8,1755.9,310.2,1755.9,355.5z M1734.6,569.9c-12.8,0-23.9-11.1-23.9-23.9V273.4c0-12.8,10.3-22.2,22.2-22.2h2.6
		c12.8,0,22.2,10.3,22.2,22.2c17.9-21.4,41-28.2,61.5-28.2c54.7,0,100.8,41.9,100.8,107.7c0,70.1-51.3,111.1-100,111.1
		c-11.1,0-40.2-4.3-61.5-30.8V546C1758.5,558.8,1747.4,569.9,1734.6,569.9z"/>
	<g>
		<path style="fill:#68DD4A;" d="M329,59.8C181.1,59.8,59.8,180.3,59.8,329S180.3,598.1,329,598.1h263.2l6-269.2
			C597.3,180.3,476.8,59.8,329,59.8z M651.1,657.9H329C147.8,657.9,0,510.1,0,329S147.8,0,329,0s329,147.8,329,329v0.9L651.1,657.9z
			"/>
		<path style="fill:#68DD4A;" d="M329,197.4c-72.6,0-131.6,59-131.6,131.6s59,131.6,131.6,131.6h129l3.4-131.6
			C461.4,256.3,401.6,197.4,329,197.4z M517.8,521.2h-188c-106.8,0-193.1-86.3-193.1-192.3S223,136.7,329,136.7S521.2,223,521.2,329
			v0.9L517.8,521.2z"/>
	</g>
</g>
</svg>
