<?xml version="1.0" encoding="utf-8"?>
<svg version="1.1" id="Layer_1" xmlns="http://www.w3.org/2000/svg" xmlns:xlink="http://www.w3.org/1999/xlink" x="0px" y="0px"
	width="100px" height="100px" viewBox="0 0 100 100" style="enable-background:new 0 0 100 100;" xml:space="preserve">
<g>
	<path style="fill:#E8E8E8;" d="M50,0c27.61,0,50,22.39,50,50s-22.39,50-50,50S0,77.61,0,50S22.39,0,50,0"/>
	<path style="fill:#FFFFFF;" d="M50,1c27.06,0,49,21.94,49,49S77.06,99,50,99S1,77.06,1,50S22.94,1,50,1"/>
	<g>
		<path id="path895" style="fill:#00C81E;" d="M49.99,16.24c1.11,0,2.02-0.91,2.02-2.02s-0.91-2.02-2.06-2.02
			c-1.11,0-2.02,0.91-2.02,2.02C47.98,15.33,48.88,16.24,49.99,16.24"/>
		<path id="path897" style="fill:#00C81E;" d="M49.99,16.24c1.11,0,2.02-0.91,2.02-2.02s-0.91-2.02-2.06-2.02
			c-1.11,0-2.02,0.91-2.02,2.02C47.98,15.33,48.88,16.24,49.99,16.24"/>
		<path id="path899" style="fill:#00C81E;" d="M35.38,26.77h4.07c0,0-0.66-0.66-3.17-3.33c-1.44-1.52-1.56-2.72,0.25-2.72h0.41
			l2.06-3.09c0,0-1.77-0.04-2.51-0.04c-4.86,0-5.72,4.77-3.29,7.08C35.06,26.36,35.38,26.77,35.38,26.77"/>
		<path id="path901" style="fill:#00C81E;" d="M35.38,26.77h4.07c0,0-0.66-0.66-3.17-3.33c-1.44-1.52-1.56-2.72,0.25-2.72h0.41
			l2.06-3.09c0,0-1.77-0.04-2.51-0.04c-4.86,0-5.72,4.77-3.29,7.08C35.06,26.36,35.38,26.77,35.38,26.77"/>
		<path id="path903" style="fill:#00C81E;" d="M63.49,20.6c1.81,0,1.69,1.19,0.25,2.72c-2.51,2.67-3.13,3.33-3.13,3.33h4.07
			c0,0,0.37-0.37,2.18-2.14c2.43-2.3,1.52-7.08-3.29-7.08c-0.78,0-2.51,0.08-2.51,0.08l2.06,3.09H63.49z"/>
		<path id="path905" style="fill:#00C81E;" d="M63.49,20.6c1.81,0,1.69,1.19,0.25,2.72c-2.51,2.67-3.13,3.33-3.13,3.33h4.07
			c0,0,0.37-0.37,2.18-2.14c2.43-2.3,1.52-7.08-3.29-7.08c-0.78,0-2.51,0.08-2.51,0.08l2.06,3.09H63.49z"/>
		<polygon id="polygon907" style="fill:#00C81E;" points="50.03,26.57 51.6,25.21 51.56,17.51 48.43,17.51 48.47,25.25 		"/>
		<polygon id="polygon909" style="fill:#00C81E;" points="50.03,26.57 51.6,25.21 51.56,17.51 48.43,17.51 48.47,25.25 		"/>
		<path id="path911" style="fill:#00C81E;" d="M74.6,58.54c0.78,3.7,0.53,7.41-0.74,11.03c-1.6,4.44-4.07,7.45-7.16,8.6
			c-0.7,0.25-1.98,0.66-3.58,0.7c-1.03,0-2.39-0.37-3.25-0.78c-0.49-0.21-1.52-0.7-1.52-0.7c-2.76-1.52-6.67-4.61-6.62-6.67
			c0-0.7,1.6-1.85,2.96-1.89c1.89,0,3.42-1.56,3.42-3.46V65.2l-0.7-3l-0.04-0.08c-0.49-1.65-1.77-7.24,2.59-9.75l3.79-1.81
			l-1.36-2.84l-3.87,1.85l-0.12,0.04c-4.32,2.47-5.84,7.45-4.11,13.37l0.58,2.55c-0.04,0.08-0.12,0.16-0.25,0.16
			c-1.28,0-2.72,0.49-3.87,1.32c-0.25,0.16-0.45,0.33-0.66,0.53c-1.28-1.15-3.13-1.81-4.57-1.77c-0.12,0-0.21-0.08-0.25-0.16
			l0.58-2.55c1.69-5.93,0.12-10.9-4.24-13.33l-3.95-1.85l-1.32,2.84l3.79,1.77c4.36,2.47,3.17,8.06,2.67,9.75l-0.7,3.09v0.16
			c0,1.89,1.56,3.42,3.46,3.42c1.32,0,2.96,1.11,2.96,1.85c0.04,2.06-3.83,5.14-6.58,6.71c-0.25,0.12-0.53,0.29-0.78,0.41
			c-0.91,0.53-2.26,1.11-3.87,1.11c-0.41,0-1.89,0.04-3.74-0.66c-3.09-1.19-5.64-4.11-7.24-8.56c-1.56-4.24-1.69-8.56-0.37-12.88
			c0.37-1.32,1.28-3.25,1.23-3.29c2.02-4.32,5.35-8.35,9.63-11.77c0.08-0.04,6.42-4.98,11.69-8.48l-7.16-4.86h-4.36
			c0,0-0.37,0-0.58,0l0,0l0,0c-4.24,0.41-7.94,2.02-10.9,4.86c-3,2.76-4.81,7.9-4.44,12.84c0.16,2.1,0.66,4.03,1.48,5.84
			c0.49-0.99,1.15-2.26,2.02-3.74c-0.21-0.82-0.33-1.6-0.37-2.35c-0.29-3.95,1.11-8.19,3.42-10.29c2.47-2.35,5.51-3.66,9.01-4.03
			l8.85-0.04c-5.06,3.46-10.49,7.69-10.57,7.74c-3.54,2.84-6.46,6.01-8.6,9.46c-1.36,2.26-2.67,5.18-2.63,5.23
			c-2.14,5.6-2.22,11.4-0.25,16.83c2.47,6.75,6.3,9.38,9.09,10.41c1.36,0.49,2.84,0.74,4.32,0.74c2.26,0,4.24-0.74,4.2-0.74
			c0.66-0.25,1.89-0.7,2.51-1.07l0,0c0.58-0.33,4.44-2.55,6.62-5.47c2.18,2.84,5.93,4.98,6.62,5.39c0,0,1.69,0.99,3.04,1.4
			c1.52,0.41,3.17,0.41,3.7,0.41c1.48,0,2.92-0.29,4.32-0.78c2.8-1.07,6.62-3.74,9.01-10.49c1.73-4.81,1.81-9.88,0.33-14.85
			C76.49,56.65,75.67,57.59,74.6,58.54"/>
		<path id="path913" style="fill:#00C81E;" d="M74.6,58.54c0.78,3.7,0.53,7.41-0.74,11.03c-1.6,4.44-4.07,7.45-7.16,8.6
			c-0.7,0.25-1.98,0.66-3.58,0.7c-1.03,0-2.39-0.37-3.25-0.78c-0.49-0.21-1.52-0.7-1.52-0.7c-2.76-1.52-6.67-4.61-6.62-6.67
			c0-0.7,1.6-1.85,2.96-1.89c1.89,0,3.42-1.56,3.42-3.46V65.2l-0.7-3l-0.04-0.08c-0.49-1.65-1.77-7.24,2.59-9.75l3.79-1.81
			l-1.36-2.84l-3.87,1.85l-0.12,0.04c-4.32,2.47-5.84,7.45-4.11,13.37l0.58,2.55c-0.04,0.08-0.12,0.16-0.25,0.16
			c-1.28,0-2.72,0.49-3.87,1.32c-0.25,0.16-0.45,0.33-0.66,0.53c-1.28-1.15-3.13-1.81-4.57-1.77c-0.12,0-0.21-0.08-0.25-0.16
			l0.58-2.55c1.69-5.93,0.12-10.9-4.24-13.33l-3.95-1.85l-1.32,2.84l3.79,1.77c4.36,2.47,3.17,8.06,2.67,9.75l-0.7,3.09v0.16
			c0,1.89,1.56,3.42,3.46,3.42c1.32,0,2.96,1.11,2.96,1.85c0.04,2.06-3.83,5.14-6.58,6.71c-0.25,0.12-0.53,0.29-0.78,0.41
			c-0.91,0.53-2.26,1.11-3.87,1.11c-0.41,0-1.89,0.04-3.74-0.66c-3.09-1.19-5.64-4.11-7.24-8.56c-1.56-4.24-1.69-8.56-0.37-12.88
			c0.37-1.32,1.28-3.25,1.23-3.29c2.02-4.32,5.35-8.35,9.63-11.77c0.08-0.04,6.42-4.98,11.69-8.48l-7.16-4.86h-4.36
			c0,0-0.37,0-0.58,0l0,0l0,0c-4.24,0.41-7.94,2.02-10.9,4.86c-3,2.76-4.81,7.9-4.44,12.84c0.16,2.1,0.66,4.03,1.48,5.84
			c0.49-0.99,1.15-2.26,2.02-3.74c-0.21-0.82-0.33-1.6-0.37-2.35c-0.29-3.95,1.11-8.19,3.42-10.29c2.47-2.35,5.51-3.66,9.01-4.03
			l8.85-0.04c-5.06,3.46-10.49,7.69-10.57,7.74c-3.54,2.84-6.46,6.01-8.6,9.46c-1.36,2.26-2.67,5.18-2.63,5.23
			c-2.14,5.6-2.22,11.4-0.25,16.83c2.47,6.75,6.3,9.38,9.09,10.41c1.36,0.49,2.84,0.74,4.32,0.74c2.26,0,4.24-0.74,4.2-0.74
			c0.66-0.25,1.89-0.7,2.51-1.07l0,0c0.58-0.33,4.44-2.55,6.62-5.47c2.18,2.84,5.93,4.98,6.62,5.39c0,0,1.69,0.99,3.04,1.4
			c1.52,0.41,3.17,0.41,3.7,0.41c1.48,0,2.92-0.29,4.32-0.78c2.8-1.07,6.62-3.74,9.01-10.49c1.73-4.81,1.81-9.88,0.33-14.85
			C76.49,56.65,75.67,57.59,74.6,58.54"/>
		<path id="path915" style="fill:#00C81E;" d="M43.29,27.55l10,7.16c0.12,0.08,0.78,0.49,0.78,0.49c4.57,3.13,9.01,6.5,9.05,6.54
			c3.79,2.92,6.79,6.38,8.89,10.08c0.86-1.23,1.36-2.59,1.6-3.46c-2.18-3.33-5.06-6.42-8.56-9.13c-0.04-0.04-3.99-3.04-8.31-6.05
			c-1.81-1.11-7.16-4.73-7.16-4.73c-2.55-1.65-6.21-5.02-6.21-5.02c-1.36-1.32-1.52-2.76,0.12-2.76h3.21v-3.13h-3.17
			c-5.14,0.04-5.93,4.28-3.13,7.28C41.47,26.03,43.29,27.55,43.29,27.55"/>
		<path id="path917" style="fill:#00C81E;" d="M43.29,27.55l10,7.16c0.12,0.08,0.78,0.49,0.78,0.49c4.57,3.13,9.01,6.5,9.05,6.54
			c3.79,2.92,6.79,6.38,8.89,10.08c0.86-1.23,1.36-2.59,1.6-3.46c-2.18-3.33-5.06-6.42-8.56-9.13c-0.04-0.04-3.99-3.04-8.31-6.05
			c-1.81-1.11-7.16-4.73-7.16-4.73c-2.55-1.65-6.21-5.02-6.21-5.02c-1.36-1.32-1.52-2.76,0.12-2.76h3.21v-3.13h-3.17
			c-5.14,0.04-5.93,4.28-3.13,7.28C41.47,26.03,43.29,27.55,43.29,27.55"/>
		<path id="path919" style="fill:#00C81E;" d="M57.52,82.36c-1.89,1.56-4.81,2.22-7.37,2.26c-2.51-0.04-5.35-0.66-7.24-2.1
			c-0.86,0.33-2.14,0.78-3.42,1.07c1.15,1.4,2.76,2.47,4.81,3.21c2.1,0.74,4.2,0.95,5.55,0.99l0,0c0.12,0,0.21,0,0.33,0
			c0.12,0,0.25,0,0.37,0l0,0c1.36-0.04,3.46-0.29,5.55-1.03c2.06-0.74,3.66-1.85,4.81-3.29C59.54,83.14,58.3,82.69,57.52,82.36"/>
		<path id="path921" style="fill:#00C81E;" d="M57.52,82.36c-1.89,1.56-4.81,2.22-7.37,2.26c-2.51-0.04-5.35-0.66-7.24-2.1
			c-0.86,0.33-2.14,0.78-3.42,1.07c1.15,1.4,2.76,2.47,4.81,3.21c2.1,0.74,4.2,0.95,5.55,0.99l0,0c0.12,0,0.21,0,0.33,0
			c0.12,0,0.25,0,0.37,0l0,0c1.36-0.04,3.46-0.29,5.55-1.03c2.06-0.74,3.66-1.85,4.81-3.29C59.54,83.14,58.3,82.69,57.52,82.36"/>
		<path id="path923" style="fill:#00C81E;" d="M74.39,33.15c-2.96-2.72-6.54-4.32-10.66-4.73l-0.37-0.04c-0.21,0-0.58,0-0.58,0
			l-7.24,0.04c0.74-0.58,1.48-1.15,2.22-1.77c0,0,0.12-0.04,0.45-0.37c0.33-0.29,0.91-0.99,0.91-0.99c0.16-0.16,0.33-0.37,0.53-0.58
			c2.84-3,2.02-7.24-3.13-7.24h-3.17v3.13h3.21c1.73,0,1.19,1.48,0,3c-1.6,1.4-3.33,2.72-5.18,3.99c2.18,1.56,4.4,2.96,6.01,3.95
			l5.84-0.04c3.5,0.33,6.54,1.65,9.05,3.95c2.3,2.1,3.74,6.3,3.5,10.25c-0.08,1.19-0.33,2.63-0.86,4.07
			c-0.58,1.52-1.6,3.58-3.42,5.02l-0.04,0.04c-0.45,0.41-0.91,0.78-1.44,1.15c-8.27,5.8-8.89,13.21-9.22,17.16
			c-0.04,0.33-0.04,0.66-0.08,0.95c0,0.16-0.04,0.37-0.04,0.53c-0.04,0.49-0.08,1.11-0.21,1.73c0.78,0.41,1.89,0.78,3.09,0.66
			c0.12-0.82,0.21-1.52,0.25-2.14c0-0.16,0.04-0.37,0.04-0.49c0.04-0.33,0.04-0.66,0.08-1.03c0.33-3.91,0.86-9.88,7.82-14.81
			c0.04-0.04,0.12-0.12,0.16-0.16c3.83-2.76,5.31-6.09,5.31-6.13c0.04-0.08,0.08-0.12,0.12-0.16c0.95-1.93,1.48-4.07,1.65-6.3
			C79.25,41.01,77.4,35.87,74.39,33.15"/>
		<path id="path925" style="fill:#00C81E;" d="M74.39,33.15c-2.96-2.72-6.54-4.32-10.66-4.73l-0.37-0.04c-0.21,0-0.58,0-0.58,0
			l-7.24,0.04c0.74-0.58,1.48-1.15,2.22-1.77c0,0,0.12-0.04,0.45-0.37c0.33-0.29,0.91-0.99,0.91-0.99c0.16-0.16,0.33-0.37,0.53-0.58
			c2.84-3,2.02-7.24-3.13-7.24h-3.17v3.13h3.21c1.73,0,1.19,1.48,0,3c-1.6,1.4-3.33,2.72-5.18,3.99c2.18,1.56,4.4,2.96,6.01,3.95
			l5.84-0.04c3.5,0.33,6.54,1.65,9.05,3.95c2.3,2.1,3.74,6.3,3.5,10.25c-0.08,1.19-0.33,2.63-0.86,4.07
			c-0.58,1.52-1.6,3.58-3.42,5.02l-0.04,0.04c-0.45,0.41-0.91,0.78-1.44,1.15c-8.27,5.8-8.89,13.21-9.22,17.16
			c-0.04,0.33-0.04,0.66-0.08,0.95c0,0.16-0.04,0.37-0.04,0.53c-0.04,0.49-0.08,1.11-0.21,1.73c0.78,0.41,1.89,0.78,3.09,0.66
			c0.12-0.82,0.21-1.52,0.25-2.14c0-0.16,0.04-0.37,0.04-0.49c0.04-0.33,0.04-0.66,0.08-1.03c0.33-3.91,0.86-9.88,7.82-14.81
			c0.04-0.04,0.12-0.12,0.16-0.16c3.83-2.76,5.31-6.09,5.31-6.13c0.04-0.08,0.08-0.12,0.12-0.16c0.95-1.93,1.48-4.07,1.65-6.3
			C79.25,41.01,77.4,35.87,74.39,33.15"/>
		<path id="path927" style="fill:#00C81E;" d="M39.83,76.64c-0.12-0.66-0.16-1.32-0.25-1.81c0-0.21-0.04-0.37-0.04-0.53
			c-0.04-0.29-0.08-0.62-0.08-0.95c-0.37-3.95-1.07-11.36-9.38-17.08c-0.58-0.37-1.07-0.78-1.52-1.19
			c-0.49,1.23-0.82,2.39-0.99,3.25c0.25,0.16,0.45,0.37,0.7,0.53c7.12,4.9,7.65,10.86,8.02,14.77c0.04,0.37,0.08,0.7,0.08,1.03
			c0,0.16,0.04,0.33,0.04,0.49c0.04,0.58,0.12,1.32,0.29,2.1C37.94,77.38,39.01,77.05,39.83,76.64"/>
		<path id="path929" style="fill:#00C81E;" d="M39.83,76.64c-0.12-0.66-0.16-1.32-0.25-1.81c0-0.21-0.04-0.37-0.04-0.53
			c-0.04-0.29-0.08-0.62-0.08-0.95c-0.37-3.95-1.07-11.36-9.38-17.08c-0.58-0.37-1.07-0.78-1.52-1.19
			c-0.49,1.23-0.82,2.39-0.99,3.25c0.25,0.16,0.45,0.37,0.7,0.53c7.12,4.9,7.65,10.86,8.02,14.77c0.04,0.37,0.08,0.7,0.08,1.03
			c0,0.16,0.04,0.33,0.04,0.49c0.04,0.58,0.12,1.32,0.29,2.1C37.94,77.38,39.01,77.05,39.83,76.64"/>
	</g>
</g>
</svg>
