<?xml version="1.0"?>
<svg xmlns="http://www.w3.org/2000/svg" xmlns:xlink="http://www.w3.org/1999/xlink" xmlns:svgjs="http://svgjs.com/svgjs" version="1.1" width="512" height="512" x="0" y="0" viewBox="0 0 512 512" style="enable-background:new 0 0 512 512" xml:space="preserve" class=""><g><g xmlns="http://www.w3.org/2000/svg"><g><g><g><g><g><g><circle cx="256" cy="256" fill="#f1f1f1" r="256" data-original="#00c8c8" style="" class=""/></g></g></g></g></g></g><path d="m511.951 261.036-142.327-142.328-107.624 6.574-19.54 120.591 73.476 73.793-203.272 94.696 92.614 92.614c16.395 3.295 33.356 5.024 50.722 5.024 139.702 0 253.268-111.903 255.951-250.964z" fill="#f1f1f1" data-original="#1cadb5" style="" class=""/><g><path d="m140.209 319.665h175.726v56.445h-175.726z" fill="#636978" data-original="#636978" style="" class=""/></g><g><path d="m228.121 319.665h87.814v56.445h-87.814z" fill="#414952" data-original="#414952" style="" class=""/></g><g><path d="m112.664 357.916h230.818v56.445h-230.818z" fill="#414952" data-original="#414952" style="" class=""/></g><g><path d="m228.121 357.916h115.36v56.445h-115.36z" fill="#23272b" data-original="#23272b" style="" class=""/></g><g><path d="m226.314 203.737h262.293v59.946h-262.293z" fill="#fdba12" transform="matrix(.707 .707 -.707 .707 269.956 -184.311)" data-original="#fdba12" style="" class=""/></g><g><path d="m352.015 92.404h31.211v262.293h-31.211z" fill="#ffa300" transform="matrix(.707 -.707 .707 .707 -50.401 325.422)" data-original="#ffa300" style="" class=""/></g><g><path d="m206.293 65.243h106.353v132.022h-106.353z" fill="#ffce00" transform="matrix(.707 .707 -.707 .707 168.807 -145.03)" data-original="#ffce00" style="" class=""/></g><g><path d="m246.051 56.292h70.406v106.354h-70.406z" fill="#fdba12" transform="matrix(.707 -.707 .707 .707 4.971 230.939)" data-original="#fdba12" style="" class=""/></g><g><g><path d="m139.308 161.645h138.04v41.501h-138.04z" fill="#fdba12" transform="matrix(.707 .707 -.707 .707 189.991 -93.888)" data-original="#fdba12" style="" class=""/></g><g><path d="m237.126 63.826h138.04v41.501h-138.04z" fill="#ffa300" transform="matrix(.707 .707 -.707 .707 149.473 -191.706)" data-original="#ffa300" style="" class=""/></g></g></g></g></svg>
