<?xml version="1.0" encoding="utf-8"?>
<svg version="1.1" id="Layer_1" xmlns="http://www.w3.org/2000/svg" xmlns:xlink="http://www.w3.org/1999/xlink" x="0px" y="0px"
	width="100px" height="100px" viewBox="0 0 66.7 66.7" style="enable-background:new 0 0 66.7 66.7;" xml:space="preserve">
<g>
	<circle style="fill:#E8E8E8;" cx="33.3" cy="33.3" r="33.3"/>
	<circle style="fill:#FFFFFF;" cx="33.3" cy="33.3" r="32.7"/>
	<path style="fill:#141414;" d="M15.5,33.8c0.5-0.1,0.9-0.5,1.1-0.8c0.3-0.4,0.4-0.8,0.4-1.3c0-0.3-0.1-0.7-0.2-0.9
		c-0.1-0.3-0.3-0.5-0.5-0.7c-0.2-0.2-0.5-0.3-0.9-0.5c-0.3-0.1-0.7-0.1-1.1-0.1h-4.2c-0.1,0-0.1,0.1-0.1,0.1v7.5
		c0,0.1,0.1,0.2,0.1,0.2h0.9c0.1,0,0.2-0.1,0.2-0.2V34H14l1.7,3.2c0,0.1,0.1,0.1,0.2,0.1h1.1c0.1,0,0.2-0.1,0.1-0.3L15.5,33.8
		C15.5,33.8,15.5,33.8,15.5,33.8z M14.5,32.8h-3.1v-2.2h3.1c0.4,0,0.7,0.1,0.9,0.3c0.2,0.2,0.3,0.5,0.3,0.8s-0.1,0.6-0.3,0.8
		C15.1,32.7,14.8,32.8,14.5,32.8z M28.3,36.2h-5.2v-2.4h3.8c0.1,0,0.3-0.1,0.3-0.2v-0.8c0-0.1-0.1-0.2-0.3-0.2h-3.8v-2.1h5.1
		c0.1,0,0.3,0,0.3-0.1v-0.8c0-0.1-0.1-0.3-0.3-0.3H22c-0.1,0-0.2,0.1-0.2,0.3v7.5c0,0.1,0.1,0.2,0.2,0.2h6.3c0.1,0,0.2-0.1,0.2-0.2
		v-0.8C28.5,36.3,28.5,36.2,28.3,36.2L28.3,36.2L28.3,36.2z M34.2,29.4h-0.9c-0.1,0-0.1,0.1-0.1,0.2v7.5c0,0.1,0,0.2,0.1,0.2h0.9
		c0.1,0,0.3-0.1,0.3-0.2v-7.5C34.4,29.5,34.3,29.4,34.2,29.4z M44.1,33.1l-3.1-0.9c-0.4-0.2-0.5-0.4-0.5-0.7c0-0.4,0.4-0.6,0.9-0.8
		c0.6-0.2,1.5-0.2,1.9-0.1c0.5,0.1,1.1,0.3,1.5,0.6c0.3,0.1,0.3,0,0.4,0s0.3-0.5,0.4-0.7s0-0.2-0.1-0.3c-0.2-0.1-0.7-0.5-1.6-0.7
		c-0.9-0.2-1.7-0.2-2.5,0c-0.8,0.3-1.3,0.7-1.7,1.1c-0.3,0.5-0.4,0.8-0.3,1.2c0,0.5,0.2,0.9,0.8,1.3c0.6,0.4,1.1,0.6,1.8,0.8
		l2.1,0.6c0.4,0.1,0.7,0.4,0.7,0.9s-0.6,1.1-2.2,1.1c-1.7,0-2.6-0.9-2.6-0.9s-0.1-0.1-0.3,0l-0.5,0.6c-0.1,0.1,0,0.2,0,0.3
		c0.1,0.1,0.6,0.7,1.9,1c1.3,0.3,2.6,0.3,3.7-0.3c0.9-0.5,1.2-1.2,1.2-1.9C45.9,34.1,45.3,33.5,44.1,33.1
		C44.1,33.1,44.1,33.1,44.1,33.1z M54.9,33.1l-3.1-0.9c-0.4-0.2-0.5-0.4-0.5-0.7c0-0.4,0.4-0.6,0.9-0.8c0.6-0.2,1.5-0.2,1.9-0.1
		c0.5,0.1,1.1,0.3,1.5,0.6c0.3,0.1,0.3,0,0.4,0s0.3-0.5,0.4-0.7s0-0.2-0.1-0.3c-0.2-0.1-0.7-0.5-1.6-0.7c-0.9-0.2-1.7-0.2-2.5,0
		c-0.8,0.2-1.4,0.6-1.7,1c-0.3,0.5-0.4,0.8-0.3,1.2c0,0.5,0.2,0.9,0.8,1.3c0.6,0.4,1.1,0.6,1.8,0.8l2.1,0.6c0.4,0.1,0.7,0.4,0.7,0.9
		s-0.6,1.1-2.2,1.1c-1.7,0-2.6-0.9-2.6-0.9s-0.1-0.1-0.3,0L49.9,36c-0.1,0.1,0,0.2,0,0.3c0.1,0.1,0.6,0.7,1.9,1s2.6,0.3,3.7-0.3
		c0.9-0.5,1.2-1.2,1.2-1.9C56.7,34.1,56.1,33.5,54.9,33.1z"/>
</g>
</svg>
