<svg xmlns="http://www.w3.org/2000/svg" viewBox="0 0 96 76" fill="#00f" fill-rule="evenodd"><path d="M92.417 34.136c1.16 0 2.246.398 3.04.945v-2.637c-.6-.3-1.903-.675-3.602-.675-4.166 0-5.877 2.513-5.877 5.706V52.33h4.15V41.06h2.928v-2.382H90.13V36.8c0-1.536.842-2.682 2.288-2.676m-16.264 3.96c2.24-.015 3.194 2 3.237 6.234.043 4.183-.908 6.085-3.237 6.085s-3.225-1.902-3.225-6.085c0-4.387.9-6.22 3.225-6.234m.028 14.7c3.932 0 7.6-2.287 7.578-8.475-.03-6.225-3.333-8.634-7.578-8.6-4.056.02-7.638 2.38-7.628 8.6.02 6.218 3.705 8.475 7.628 8.475m-55-5.07c0-1.882 1.8-2.83 3.634-3.352l2.098-.537v5.05c-.52.478-1.858 1.188-3.292 1.188-1.545 0-2.432-.78-2.44-2.348m6.033 3.465l.285 1.132h3.907c-.2-.644-.37-1.862-.37-3.38V40.9c0-4.733-3.526-5.173-6.628-5.173-5.282 0-6.7 2.868-6.7 5.027l3.794-.007c.007-1.843 1.416-2.803 2.97-2.803 1.282 0 2.45.58 2.45 2.658v1.015L22.017 42.8c-3.012.72-5.114 2.22-5.097 5.326.01 3.066 2.103 4.676 5.205 4.676 2.8-.004 4.56-1.25 5.08-1.605m-20.58-1.123H5.15V42.67h1.475c2.285-.006 3.9 1.067 3.94 3.544.014 2.484-1.22 3.86-3.94 3.86zM5.15 34.476h1.128c1.908-.007 3.5.6 3.497 2.822C9.77 39.5 8.42 40.403 6.26 40.4h-1.1v-5.934zm10.183 12.038c0-3.646-3.26-5.093-5.386-5.2 2.13-.463 4.334-1.572 4.334-4.616 0-3.166-2.53-4.456-5.354-4.463H.666V52.33h7.37c3.96.013 7.297-1.865 7.297-5.817z"/><path d="M43.365 42.05v10.282h4.117v-10.5c0-2.6-.45-6.116-5.094-6.116-2.18 0-4.042 1.23-4.665 1.628v-1.2h-4.118v16.178h4.118v-12.44c.652-.525 1.828-1.388 3.142-1.388 2.02 0 2.506 1.2 2.5 3.546m6.7-9.823v20.105h4.143V32.227z"/><path d="M58.485 42.482l5.233-6.328h-3.55L54.2 43.26l4.623 9.072h5.1zM22.85 64.978c.2-1.915.774-4.484 3.17-4.496 2.392 0 3.015 2.512 3.125 4.496H22.85zm3.17-6.862c-4.208.005-7.594 2.67-7.607 8.338-.01 6.57 3.447 8.738 7.607 8.738 3.276 0 6.474-1.446 7.33-5.925l-4.315-.01c-.247 2.1-1.018 3.555-3.015 3.55-2.502-.01-3.216-2.172-3.22-5.672h10.74a16.56 16.56 0 0 0 .012-.704c.017-5.668-3.464-8.316-7.53-8.316zM52.2 71.282c-.522.478-1.855 1.2-3.287 1.2-1.547 0-2.43-.78-2.437-2.348-.002-1.883 1.8-2.83 3.63-3.352l2.094-.537v5.05zm4.133-7.993c0-4.734-3.532-5.173-6.63-5.173-5.28 0-6.72 2.867-6.72 5.027l3.797-.006c.003-1.844 1.4-2.804 2.972-2.804 1.28 0 2.446.58 2.446 2.658v1.015l-4.87 1.194c-3.022.72-5.116 2.22-5.1 5.326.018 3.066 2.1 4.676 5.214 4.676 2.797-.003 4.558-1.248 5.07-1.605l.287 1.13h3.908c-.198-.643-.364-1.862-.364-3.38v-8.05zM35.837 74.72h4.145V54.617h-4.145zm32.03-16.604c-2.18 0-4.042 1.23-4.667 1.628v-1.2h-4.113v16.18H63.2V62.28c.66-.524 1.83-1.388 3.142-1.388 2.02 0 2.503 1.2 2.503 3.546V74.72h4.116v-10.5c0-2.6-.445-6.116-5.094-6.116M85.98 70.9c-.304.53-1.624 1.77-3.008 1.77-1.834 0-3.405-1.033-3.396-6.082.01-4.823 1.66-5.913 3.365-5.913 1.457 0 2.65 1.075 3.04 1.724v8.5zm0-11.26c-.866-.775-2.213-1.5-4.135-1.488-2.494 0-6.655 1.416-6.663 8.447-.016 6.716 3.293 8.613 6.416 8.603 2.462-.02 4.226-1.555 4.382-1.692v1.22h4.15V54.617h-4.15v5.014zM.666 74.72h4.48V54.617H.666zm11.687-14.085v-2.092H8.2l.003 16.178h4.138v-9.25c0-3.972 3.464-4.24 5.437-4.155v-3.153c-3.176-.37-5.073 1.588-5.437 2.473M61.522.666c0 3.042-13.314 3.374-13.314 6.647h-.294C47.914 4.04 34.6 3.708 34.6.666h-.298V3.84c0 3.792 13.338 3.436 13.6 7.082h.294c.273-3.646 13.6-3.3 13.6-7.082V.666h-.297zm0 7.204c0 3.042-13.314 3.374-13.314 6.647h-.294c0-3.273-13.313-3.605-13.313-6.647h-.298v3.175c0 3.792 13.338 3.436 13.6 7.082h.294c.273-3.646 13.6-3.3 13.6-7.082V7.87h-.297zm0 7.206c0 3.042-13.314 3.373-13.314 6.647h-.294c0-3.274-13.313-3.605-13.313-6.647h-.298v3.175c0 3.8 13.338 3.436 13.6 7.082h.294c.273-3.646 13.6-3.3 13.6-7.082v-3.175h-.297z"/></svg>