<?xml version="1.0"?>
<svg xmlns="http://www.w3.org/2000/svg" xmlns:xlink="http://www.w3.org/1999/xlink" xmlns:svgjs="http://svgjs.com/svgjs" version="1.1" width="512" height="512" x="0" y="0" viewBox="0 0 512.007 512.007" style="enable-background:new 0 0 512 512" xml:space="preserve" class=""><g>
<circle xmlns="http://www.w3.org/2000/svg" style="" cx="256.003" cy="256.003" r="256.003" fill="#f1f1f1" data-original="#ff8db4" class=""/>
<path xmlns="http://www.w3.org/2000/svg" style="" d="M276.389,166.426l-78.052-78.052l-5.387,20.066l-20.066,5.387l52.6,52.6h-28.281l-45.481-45.481l0,0  l-18.334-18.334l0,0l-3.88,14.454l-14.454,3.88l0,0l44.688,44.688l-0.829,3.089l-29.442,7.905l15.804,15.804l-30.177,46.713  l140.656,184.482l0,0l76.745,76.745c83.883-26.231,149.206-94.459,171.354-180.064l-154.149-153.88H276.389z" fill="#f1f1f1" data-original="#ff5a97" class=""/>
<polygon xmlns="http://www.w3.org/2000/svg" style="" points="255.754,423.626 114.829,239.144 396.411,239.144 " fill="#ffffff" data-original="#ffffff"/>
<polygon xmlns="http://www.w3.org/2000/svg" style="" points="255.754,166.426 208.779,239.144 302.728,239.144 " fill="#b6fff6" data-original="#b6fff6"/>
<polygon xmlns="http://www.w3.org/2000/svg" style="" points="349.703,166.426 302.728,239.144 396.678,239.144 " fill="#5fd2d0" data-original="#5fd2d0"/>
<polygon xmlns="http://www.w3.org/2000/svg" style="" points="302.728,239.144 255.754,166.426 349.703,166.426 " fill="#78e9e1" data-original="#78e9e1"/>
<polygon xmlns="http://www.w3.org/2000/svg" style="" points="161.804,166.426 208.779,239.144 114.829,239.144 " fill="#97f4ec" data-original="#97f4ec" class=""/>
<polygon xmlns="http://www.w3.org/2000/svg" style="" points="255.754,239.144 255.754,423.626 396.678,239.144 " fill="#54b5b7" data-original="#54b5b7" class=""/>
<polygon xmlns="http://www.w3.org/2000/svg" style="" points="208.779,239.144 255.754,166.426 161.804,166.426 " fill="#ffffff" data-original="#ffffff"/>
<polygon xmlns="http://www.w3.org/2000/svg" style="" points="255.754,423.626 208.779,239.144 302.728,239.144 " fill="#97f4ec" data-original="#97f4ec" class=""/>
<polygon xmlns="http://www.w3.org/2000/svg" style="" points="302.728,239.144 255.754,239.144 255.754,423.626 " fill="#5fd2d0" data-original="#5fd2d0"/>
<polygon xmlns="http://www.w3.org/2000/svg" style="" points="302.728,239.144 255.754,239.144 255.754,166.426 " fill="#97f4ec" data-original="#97f4ec" class=""/>
<g xmlns="http://www.w3.org/2000/svg">
	<polygon style="" points="166.817,139.28 174.722,168.723 204.164,176.627 174.722,184.532 166.817,213.974    158.912,184.532 129.47,176.627 158.912,168.723  " fill="#ffffff" data-original="#ffffff"/>
	<polygon style="" points="198.337,88.374 203.724,108.44 223.79,113.827 203.724,119.215 198.337,139.28    192.951,119.215 172.884,113.827 192.951,108.44  " fill="#ffffff" data-original="#ffffff"/>
	<polygon style="" points="133.388,102.612 137.268,117.065 151.722,120.946 137.268,124.826 133.388,139.28    129.507,124.826 115.054,120.946 129.507,117.065  " fill="#ffffff" data-original="#ffffff"/>
</g>
<g xmlns="http://www.w3.org/2000/svg">
</g>
<g xmlns="http://www.w3.org/2000/svg">
</g>
<g xmlns="http://www.w3.org/2000/svg">
</g>
<g xmlns="http://www.w3.org/2000/svg">
</g>
<g xmlns="http://www.w3.org/2000/svg">
</g>
<g xmlns="http://www.w3.org/2000/svg">
</g>
<g xmlns="http://www.w3.org/2000/svg">
</g>
<g xmlns="http://www.w3.org/2000/svg">
</g>
<g xmlns="http://www.w3.org/2000/svg">
</g>
<g xmlns="http://www.w3.org/2000/svg">
</g>
<g xmlns="http://www.w3.org/2000/svg">
</g>
<g xmlns="http://www.w3.org/2000/svg">
</g>
<g xmlns="http://www.w3.org/2000/svg">
</g>
<g xmlns="http://www.w3.org/2000/svg">
</g>
<g xmlns="http://www.w3.org/2000/svg">
</g>
</g></svg>
