<?xml version="1.0" encoding="utf-8"?>
<svg version="1.1" id="Layer_1" xmlns="http://www.w3.org/2000/svg" xmlns:xlink="http://www.w3.org/1999/xlink" x="0px" y="0px"
	width="100px" height="100px" viewBox="0 0 100 100" style="enable-background:new 0 0 100 100;" xml:space="preserve">
<g>
	<path style="fill:#E8E8E8;" d="M50,0c27.61,0,50,22.39,50,50s-22.39,50-50,50S0,77.61,0,50S22.39,0,50,0"/>
	<path style="fill:#FFFFFF;" d="M50,1c27.06,0,49,21.94,49,49S77.06,99,50,99S1,77.06,1,50S22.94,1,50,1"/>
	<g>
		<path style="fill:#121526;" d="M28.83,55.83c-0.37,0.43-0.86,0.78-1.41,1.01c-0.49,0.2-1.35,0.32-2.62,0.32h-1.01
			c-1.07,0-1.87,0-2.07-0.12c-0.17-0.09-0.35-0.23-0.46-0.4c-0.14-0.26-0.2-0.75-0.2-1.41V44.66c0-0.95,0.06-1.56,0.2-1.81
			c0.14-0.29,0.4-0.52,0.69-0.66c0.35-0.2,0.89-0.26,1.76-0.26v-0.4h-7.2v0.4h0.55c0.66,0,1.09,0.2,1.41,0.55
			c0.26,0.26,0.35,0.89,0.35,1.9v10.72c0,0.89-0.12,1.5-0.26,1.76c-0.32,0.46-0.66,0.66-1.35,0.66h-0.6v0.46h12.44l1.41-4.29
			l-0.4-0.12C29.81,54.42,29.38,55.2,28.83,55.83z"/>
		<path style="fill:#121526;" d="M39.75,41.98c0.06,0.03,0.14,0.06,0.2,0.06c0.46,0.06,0.86,0.2,1.27,0.46
			c0.23,0.14,0.35,0.4,0.35,0.66c0,0.35-0.2,1.01-0.55,1.96l-3.89,9.51l-4.12-9.59c-0.35-0.86-0.55-1.5-0.55-1.9
			c0-0.29,0.14-0.52,0.35-0.69c0.23-0.2,0.46-0.35,1.21-0.4v-0.46h-6.25v0.46c0.35,0,0.69,0.09,1.01,0.26
			c0.29,0.14,0.55,0.35,0.75,0.6c0.26,0.43,0.46,0.89,0.66,1.35l6.05,14.23h0.49l5.7-14.09c0.23-0.66,0.6-1.3,1.09-1.81
			c0.29-0.29,0.69-0.49,1.09-0.55v-0.46h-4.87L39.75,41.98z"/>
		<path style="fill:#121526;" d="M55.76,54.42l-5.88-12.88h-4.29v0.4c0.46-0.03,0.92,0.06,1.35,0.26c0.29,0.2,0.49,0.35,0.6,0.6
			c0.2,0.49,0.29,1.04,0.26,1.56V55.2c0,0.89-0.06,1.5-0.26,1.76c-0.26,0.4-0.75,0.6-1.47,0.6h-0.95v0.46h5.79v-0.46h-0.6
			c-0.66,0-1.01-0.14-1.33-0.49c-0.26-0.26-0.35-0.86-0.35-1.87V44.31l6.19,13.68h0.4l6.31-13.86v11.03c0,0.89-0.06,1.5-0.26,1.76
			c-0.26,0.4-0.75,0.6-1.47,0.6h-0.49v0.46h6.65v-0.46h-0.46c-0.66,0-1.07-0.14-1.35-0.49c-0.26-0.26-0.35-0.86-0.35-1.87v-10.8
			c0-0.89,0.12-1.5,0.32-1.76c0.26-0.4,0.66-0.6,1.35-0.6h0.55v-0.46h-4.44L55.76,54.42z"/>
		<path style="fill:#121526;" d="M82.95,57.65c-0.35,0-0.69-0.12-1.01-0.32c-0.2-0.12-0.4-0.29-0.49-0.52
			c-0.12-0.29-0.14-0.81-0.14-1.67V44.51c0-0.81,0.06-1.35,0.14-1.61c0.06-0.26,0.26-0.49,0.49-0.6c0.29-0.2,0.6-0.32,0.95-0.32
			h0.55v-0.46h-6.68v0.4h0.55c0.35,0,0.72,0.12,1.01,0.32c0.2,0.12,0.4,0.29,0.49,0.49c0.12,0.26,0.14,0.81,0.14,1.67v4.7h-7.6
			l0.06-4.58c0-0.81,0.06-1.35,0.14-1.61s0.26-0.49,0.49-0.6c0.29-0.2,0.6-0.32,0.95-0.32h0.6v-0.46h-6.63v0.4h0.55
			c0.35,0,0.72,0.12,1.01,0.32c0.2,0.12,0.4,0.29,0.49,0.49c0.12,0.26,0.14,0.81,0.14,1.67v10.72c0,1.01-0.12,1.61-0.32,1.87
			c-0.32,0.4-0.81,0.63-1.33,0.6h-0.55v0.46h6.6v-0.46h-0.6c-0.35,0-0.72-0.12-1.01-0.32c-0.2-0.12-0.4-0.29-0.49-0.49
			c-0.12-0.29-0.14-0.81-0.14-1.67v-5.1h7.66v5.18c0,1.01-0.12,1.61-0.32,1.87c-0.32,0.4-0.69,0.6-1.35,0.6h-0.55v0.46h6.74v-0.46
			h-0.55L82.95,57.65z"/>
	</g>
</g>
</svg>
