<?xml version="1.0" encoding="utf-8"?>
<svg version="1.1" id="Layer_1" xmlns="http://www.w3.org/2000/svg" xmlns:xlink="http://www.w3.org/1999/xlink" x="0px" y="0px"
	width="100px" height="100px" viewBox="0 0 66.7 66.7" style="enable-background:new 0 0 66.7 66.7;" xml:space="preserve">
<g>
	<circle style="fill:#E8E8E8;" cx="33.3" cy="33.3" r="33.3"/>
	<circle style="fill:#FFFFFF;" cx="33.3" cy="33.3" r="32.7"/>
	<path style="fill:#637C8C;" d="M33.3,38.9L33.3,38.9c0,0.1-9.2,0.9-9.7,0.9c-0.3,0.4,0.1,0.7,0.1,0.7s4.1-0.9,9.6-0.9l0,0
		c5.4,0,9.5,0.9,9.5,0.9s0.3-0.3,0.1-0.7C42.5,39.8,40.2,39.1,33.3,38.9L33.3,38.9z"/>
	<path style="fill:#FFFFFF;" d="M34.1,22.1l1.7,0.3v-1.7l-1.7,0.4c0.1,0.1,0.1,0.3,0.1,0.5C34.2,21.9,34.2,22,34.1,22.1z M33.3,22.2
		c0.3,0,0.5-0.3,0.5-0.5c0-0.3-0.3-0.5-0.5-0.5c-0.3,0-0.5,0.3-0.5,0.5C32.8,22,33,22.2,33.3,22.2z M33.5,20.9l0.5-2.3h-1.7l0.6,2.3
		c0.1,0,0.2-0.1,0.3-0.1C33.4,20.8,33.5,20.8,33.5,20.9z"/>
	<path style="fill:#637C8C;" d="M32.5,27.3v6.6h0.9l0,0h0.8v-6.6c-0.1-0.1-0.6-0.1-0.9-0.1C33.1,27.2,32.7,27.3,32.5,27.3z
		 M33.3,33.6c-0.3,0-0.5-0.2-0.5-0.5c0-0.3,0.2-0.5,0.5-0.5c0.3,0,0.5,0.2,0.5,0.4c0,0,0,0,0,0C33.7,33.3,33.5,33.6,33.3,33.6z
		 M33.3,32.3c-0.3,0-0.5-0.2-0.5-0.5c0-0.3,0.2-0.5,0.5-0.5c0.3,0,0.5,0.2,0.5,0.5C33.8,32.1,33.6,32.3,33.3,32.3z M33.3,31.1
		c-0.3,0-0.5-0.2-0.5-0.5c0-0.3,0.2-0.5,0.5-0.5c0.3,0,0.5,0.2,0.5,0.4c0,0,0,0,0,0C33.7,30.9,33.6,31.1,33.3,31.1z M32.9,29.3
		c0-0.3,0.2-0.5,0.5-0.5c0.3,0,0.5,0.2,0.5,0.5s-0.2,0.5-0.5,0.5C33.1,29.8,32.9,29.6,32.9,29.3z M33.7,28.1c0,0.3-0.2,0.5-0.5,0.5
		c-0.3,0-0.5-0.2-0.5-0.5c0-0.3,0.3-0.5,0.5-0.5C33.5,27.6,33.7,27.8,33.7,28.1C33.7,28,33.7,28.1,33.7,28.1z M33,28.1
		c0,0.1,0.1,0.3,0.3,0.3c0.2,0,0.3-0.1,0.3-0.3s-0.1-0.3-0.3-0.3C33.1,27.7,33,27.9,33,28.1z M33.3,30.3c-0.1,0-0.3,0.1-0.3,0.3
		c0,0.2,0.1,0.3,0.3,0.3s0.3-0.1,0.3-0.3C33.7,30.4,33.5,30.3,33.3,30.3z M33.3,24.5L33.3,24.5c-0.2,0-0.3-0.1-0.5-0.1
		c-0.1,0-0.2,0-0.3,0.1c-0.1,0.1-0.1,0.6,0.1,1.1c0.3,0.5,0.5,0.8,0.7,0.7c0.2,0,0.5-0.5,0.7-0.9c0.1-0.5,0.1-0.8,0-1
		C34,24.3,33.8,24.3,33.3,24.5z M33.3,29.7c0.1,0,0.3-0.1,0.3-0.3c0-0.2-0.1-0.3-0.3-0.3S33,29.1,33,29.3
		C33,29.5,33.1,29.7,33.3,29.7C33.3,29.7,33.3,29.7,33.3,29.7z M33.3,31.5c-0.1,0-0.3,0.1-0.3,0.3c0,0.2,0.1,0.3,0.3,0.3
		s0.3-0.1,0.3-0.3C33.7,31.7,33.5,31.5,33.3,31.5z M33.3,32.8c-0.1,0-0.3,0.1-0.3,0.3c0,0.2,0.1,0.3,0.3,0.3s0.3-0.1,0.3-0.3l0,0
		C33.7,32.9,33.5,32.8,33.3,32.8z"/>
	<path style="fill:#FFFFFF;" d="M33.3,22.5c0.5,0,0.8-0.3,0.8-0.8c0-0.4-0.3-0.8-0.8-0.8c-0.5,0-0.8,0.3-0.8,0.8
		S32.9,22.5,33.3,22.5z M33.3,21.1c0.3,0,0.7,0.3,0.7,0.7c0,0.3-0.3,0.7-0.7,0.7c-0.3,0-0.7-0.3-0.7-0.7
		C32.6,21.4,32.9,21.1,33.3,21.1C33.3,21.1,33.3,21.1,33.3,21.1L33.3,21.1z M32.4,21.7c0-0.1,0.1-0.3,0.1-0.5l-1.6-0.5v1.7l1.5-0.3
		C32.5,22,32.4,21.9,32.4,21.7z"/>
	<g>
		<path style="fill:#637C8C;" d="M27.2,31.8L27.2,31.8c0,0-0.5-0.8-1-0.7L26,31.4C26.3,31.8,27.2,31.8,27.2,31.8L27.2,31.8z
			 M29.3,30.2L28.9,30c-0.3,0.3-0.2,1.3-0.2,1.3l0,0C28.7,31.3,29.4,30.6,29.3,30.2z M27.4,33.2L27.4,33.2c-0.6,0.9,1.1,1.5,1.2,0.4
			l0,0c0.7,0.8,1.7-0.7,0.7-1.1l0,0c1-0.3-0.1-1.9-0.8-1h-0.1c-0.1-1.1-1.8-0.5-1.2,0.4C26.4,31.7,26.4,33.5,27.4,33.2z M28,31.7
			c0.5-0.1,1,0.1,1.1,0.5c0.1,0.5-0.1,1-0.5,1.1c-0.5,0.1-1-0.1-1.1-0.5C27.3,32.4,27.5,31.8,28,31.7z M29.6,32.5
			c0,0,0.9,0.5,1.3,0.3v-0.5C30.5,32.1,29.6,32.5,29.6,32.5C29.6,32.5,29.6,32.5,29.6,32.5z M28.5,33.1c0.3-0.1,0.5-0.4,0.4-0.7
			c-0.1-0.3-0.4-0.5-0.7-0.4c-0.3,0.1-0.5,0.4-0.4,0.7C27.9,33,28.2,33.2,28.5,33.1z M28.2,32.1c0.2-0.1,0.4,0.1,0.5,0.3
			c0.1,0.2-0.1,0.4-0.3,0.5s-0.4-0.1-0.5-0.3C27.9,32.5,28,32.2,28.2,32.1z M27.7,34.2c0,0.1-0.1,0.1-0.1,0.2h0.1
			C27.7,34.3,27.7,34.2,27.7,34.2z M26,33.9l0.3,0.4c0.5-0.1,0.9-0.9,0.9-0.9l0,0C27.2,33.3,26.2,33.5,26,33.9z M28.7,33.9
			c0,0-0.3,0.9,0.1,1.3l0.5-0.1C29.4,34.6,28.7,33.9,28.7,33.9C28.7,33.9,28.7,33.9,28.7,33.9z M38.6,33.9c-0.1,0-0.2-0.1-0.3-0.2
			c0,0.1,0.1,0.5,0,0.7c0.3,0,0.6,0.1,0.9,0.1c0-0.2,0-0.3-0.1-0.5v-0.1h-0.3C38.7,33.9,38.7,33.9,38.6,33.9z M39.2,29.4
			c0.1,0.2,0.1,0.4,0.1,0.6c0.1-0.3,0.3-0.4,0.5-0.5c-0.1-0.1-0.1-0.4,0-0.7v-0.1h-0.1c0,0-0.1,0.1-0.1,0.1
			C39.5,29.2,39.3,29.4,39.2,29.4C39.2,29.4,39.2,29.4,39.2,29.4z M37.7,31.1c-0.3,0.1-0.5,0.3-0.5,0.6c0,0.1,0.1,0.3,0.3,0.5
			c0,0,0.1,0.1,0.1,0.1l-0.1,0.1c-0.3,0.1-0.3,0.3-0.3,0.4c0,0.3,0.2,0.5,0.5,0.7c0.1,0.1,0.3,0.1,0.5-0.1l0,0l0,0l0,0h0.1
			c0,0.3,0.1,0.4,0.3,0.5c0.3,0.1,0.6,0,0.7-0.3c0.1-0.1,0.1-0.3,0-0.5v-0.1l0,0h0.1c0.3,0.1,0.5,0,0.5-0.1c0.1-0.2,0.1-0.5,0-0.7
			c-0.1-0.1-0.3-0.3-0.5-0.1h-0.1l0,0v-0.1c0.1-0.3,0.1-0.5,0-0.5c-0.1-0.2-0.5-0.3-0.7-0.2c-0.1,0-0.3,0.1-0.3,0.4v0.1h-0.1l0,0
			C38,31,37.8,31,37.7,31.1z M38.2,32c0.1-0.2,0.3-0.3,0.5-0.3s0.3,0.3,0.3,0.5c-0.1,0.1-0.2,0.3-0.4,0.3h-0.1
			C38.3,32.5,38.1,32.3,38.2,32z M39.5,30.8c0.1,0.1,0.1,0.3,0.1,0.4c0.1-0.3,0.5-0.7,0.9-0.7c0.1,0,0.1,0,0.1,0.1s0,0.1-0.1,0.1
			c-0.3,0-0.5,0.4-0.7,0.7c0.3-0.1,0.8-0.1,0.9-0.4c0,0,0.1-0.1,0.1,0c0,0,0.1,0.1,0,0.1c-0.1,0.3-0.7,0.5-1,0.5
			c0.1,0,0.2,0.1,0.3,0.3s0.1,0.3,0.1,0.4c0.1,0,0.9-0.1,1.1-0.5c0.1-0.3,0.1-0.5-0.1-1l0,0c0-0.1,0-0.1,0.1-0.3
			c0.1-0.1,0.1-0.2,0.1-0.3h-0.2h-0.3c-0.4-0.3-0.7-0.5-0.9-0.4c-0.3,0.1-0.5,0.4-0.7,0.9C39.3,30.7,39.5,30.8,39.5,30.8z
			 M41.4,31.9c-0.1,0.1-0.4,0.3-0.6,0.3c0.3,0.1,0.5,0.1,0.7,0.3c0.1-0.1,0.4-0.1,0.7-0.2v-0.1H42C41.7,32.1,41.5,32,41.4,31.9
			L41.4,31.9L41.4,31.9z M36.8,30.9c-0.1-0.1-0.3-0.4-0.3-0.6c-0.1,0-0.5-0.1-0.7-0.2c-0.1,0-0.1-0.1-0.1-0.1
			c0.1,0.1,0.1,0.1,0.1,0.2c0.3,0.3,0.3,0.5,0.4,0.5C36.3,30.7,36.5,30.8,36.8,30.9z M41.5,32.8c-0.1-0.3-0.7-0.5-1.1-0.5h-0.1
			c0,0.1-0.1,0.3-0.1,0.3c-0.1,0.1-0.1,0.1-0.3,0.2c0.3,0.1,0.8,0.3,0.9,0.6c0,0.1,0,0.1-0.1,0.1c-0.1,0-0.1,0-0.1-0.1
			c-0.1-0.3-0.5-0.4-0.9-0.5c0.1,0.3,0.4,0.7,0.7,0.7c0.1,0,0.1,0.1,0.1,0.1s0,0.1-0.1,0.1l0,0c-0.3-0.1-0.6-0.5-0.7-0.7
			c0,0.1,0,0.2-0.1,0.3l-0.3,0.3v0.1c0.1,0.1,0.1,0.4,0.3,0.7l1,0.1c0.1-0.1,0.2-0.1,0.3-0.3c0.1-0.1,0.3-0.1,0.4-0.1h0.1v-0.2
			c0-0.1-0.1-0.3,0-0.3C41.5,33.3,41.6,33,41.5,32.8z M42.1,32.5c-0.1,0-0.4,0.1-0.5,0.1c0,0,0.1,0.1,0.1,0.1
			c0.1,0.1,0.1,0.3,0.1,0.5C41.8,33,41.9,32.7,42.1,32.5C42.1,32.5,42.1,32.5,42.1,32.5z"/>
		<path style="fill:#637C8C;" d="M35.5,31.9L35.5,31.9L35.5,31.9c-0.1,0.1-0.2,0.2-0.3,0.2s-0.1,0-0.1,0.1c0,0.1,0,0.1,0.1,0.1
			c0.1,0.1,0.2,0.1,0.2,0.2l0,0c0.1,0.5,0.3,0.7,0.5,0.9c0.3,0.1,0.6,0,1.2-0.3c-0.1-0.1-0.1-0.3-0.1-0.4s0.1-0.3,0.1-0.3
			c-0.2,0.1-0.5,0.3-0.8,0.3c-0.1,0-0.2,0-0.3-0.1c0,0-0.1-0.1,0-0.1c0,0,0.1-0.1,0.1,0c0.3,0.1,0.7,0,1-0.1c-0.3-0.1-0.7-0.3-1-0.1
			H36v-0.1c0.3-0.2,0.9,0,1.2,0.1c-0.1-0.1-0.1-0.3-0.1-0.4s0.1-0.3,0.1-0.4c-0.1,0-0.1-0.1-0.1-0.1c-0.3-0.1-0.7-0.4-1-0.3
			C35.8,31.1,35.5,31.4,35.5,31.9L35.5,31.9z M37.3,29.3c-0.4,0.1-0.6,0.4-0.7,0.7c-0.1,0.5,0.5,1,0.7,1.1c0.1-0.1,0.2-0.2,0.3-0.3
			h0.3c-0.3-0.2-0.5-0.5-0.5-0.9c0-0.1,0-0.1,0.1-0.1l0,0c0.1,0,0.1,0,0.1,0.1c0,0.3,0.3,0.6,0.6,0.8c0-0.3-0.1-0.8-0.3-0.9
			c0,0-0.1-0.1,0-0.1c0,0,0.1-0.1,0.1,0c0.3,0.2,0.4,0.7,0.4,1.1c0.1-0.1,0.1-0.2,0.3-0.3c0.1-0.1,0.3-0.1,0.5,0
			c0.1-0.1,0.3-0.9-0.1-1.3c-0.1-0.2-0.5-0.3-1-0.2l0,0l0,0c-0.1,0-0.1-0.1-0.3-0.1c-0.1-0.1-0.1-0.1-0.2-0.1s-0.1,0.1-0.1,0.1
			C37.4,29.1,37.3,29.3,37.3,29.3L37.3,29.3L37.3,29.3z M38.1,34.3v-0.7c-0.1,0.1-0.3,0.4-0.4,0.7H38.1z M35.7,27.1
			c-0.9,0.3-1.3-0.3-1.3-0.4s1.7-2,0.1-2.9c-0.1-0.2-0.1-1-0.1-1l1.9,0.3v-3l-1.9,0.4l0.5-2.5h-1.5l0,0h-1.7l0.7,2.5l-1.9-0.4V23
			l1.9-0.3v1c-1.5,0.9,0.1,2.8,0.1,2.9s-0.4,0.7-1.3,0.4c-0.7-0.2-13.3-7.5-8.1,8.1l2.3-0.5c-0.1-0.1,0.1-0.3,0.1-0.5
			c-0.7-1.6,0.6-1.6,1.2-1.7c0,0-2.1,0-1.3-1.6c0-0.2-0.2-0.4-0.1-0.5c0.1-0.1,0.5,0,0.5-0.1c1.3-1.4,1.9,0.6,1.9,0.6
			c-0.3-1.3,0.1-1.7,1.2-1.7c0.1,0,0.3-0.3,0.5-0.3c0.2,0.1,0.1,0.5,0.3,0.5c1.6,0.8,0,2,0,2c0.3-0.1,0.8-0.5,1.3-0.4l0,0l0,0
			c0.3,0.1,0.5,0.3,0.7,1c0,0.2,0.4,0.3,0.4,0.5s-0.4,0.2-0.4,0.5c-0.3,1.7-1.6,0.8-1.9,0.6c0.3,0.2,0.5,0.3,0.5,0.5h0.1L30.3,34
			c0.1,0.1,0.3,0.1,0.3,0.1l1.7-0.1v-6.7h0.1c0,0,0.5-0.1,0.9-0.1c0.4,0,0.9,0.1,0.9,0.1l0,0V34c0.5,0,0.8,0,1.3,0.1
			c0.1-0.1,0.3-0.3,0.4-0.5h-0.1c-0.3-0.1-0.5-0.5-0.6-0.9c0-0.1-0.1-0.1-0.1-0.1c-0.1-0.1-0.3-0.1-0.3-0.3c0-0.2,0.1-0.3,0.2-0.3
			c0.1,0,0.1,0,0.1-0.1c0.1-0.5,0.3-0.9,0.7-1l0,0c0-0.1-0.3-0.3-0.3-0.5c-0.3-0.3-0.3-0.4-0.3-0.5c0.1-0.1,0.2,0,0.5,0.1
			c0.2,0.1,0.6,0.3,0.6,0.2l0,0v-0.1c0.1-0.3,0.3-0.6,0.7-0.8c0-0.1,0.1-0.1,0.1-0.2c0-0.1,0.1-0.2,0.1-0.3
			c-1.2,0.1-1.9,0.5-2.7,0.7c0-0.3-0.1-0.4,0-0.5c1-0.1,2.4-0.9,3.6-1.4c8.5-3.5,4.2,5.9,4.2,5.9l-0.7-0.1c0,0.1-0.1,0.3-0.2,0.5V34
			c0.1,0.1,0.1,0.3,0,0.4s-0.2,0.1-0.3,0.1h-0.3l-0.1,0.1c0.9,0.1,1.9,0.3,2.9,0.5C48.9,19.6,36.3,26.9,35.7,27.1L35.7,27.1
			C35.7,27.1,35.7,27.1,35.7,27.1z M31,30.9l-0.7,0.3c0.5-0.6,0.3-0.7,0.4-0.7c0.4-0.1,0.9-0.5,1-0.4C31.7,30,31.1,30.7,31,30.9z
			 M32.1,29.4c-1.3-0.3-2.1-0.9-4.9-0.7l0.4,0.8v0.7c-0.4-0.7-0.5-0.5-0.5-0.6v-0.9h-0.2c-3.1,0.1-2.7,2.3-2.1,3.7
			c0.3,0,0.5-0.1,0.5-0.1l0.7,0.3c-0.8,0.1-0.7,0.3-0.8,0.3c-0.1-0.1-0.3-0.1-0.3-0.1c0.1,0.2,0.2,0.4,0.3,0.5
			c-0.6,0.1-0.9,0.1-0.9,0.1s-4.3-9.4,4.2-5.9c1.2,0.5,2.6,1.3,3.6,1.4C32.1,29,32.1,29.2,32.1,29.4z M30.8,22.7L30.8,22.7
			L30.8,22.7L30.8,22.7l-0.1-2v-0.1h0.1l1.7,0.5h0.1c0.1-0.1,0.1-0.1,0.1-0.1l0,0l-0.7-2.5v-0.1h0.1l0,0h1.9h0.1c0.1,0,0,0,0,0.1
			l-0.5,2.5c0.1,0,0.1,0.1,0.1,0.1l1.9-0.5h0.1v0.1v1.9v0.1v0.1l0,0l-1.8-0.4v-0.1c0,0.2-0.3,0.3-0.6,0.3c-0.3,0-0.5-0.1-0.7-0.3
			l0,0C32.6,22.3,30.8,22.7,30.8,22.7z M33.4,26.6C33.4,26.6,33.3,26.6,33.4,26.6c-0.3,0-0.6-0.5-0.9-0.9c-0.1-0.2-0.4-0.9-0.1-1.3
			c0.1-0.1,0.5-0.2,0.9-0.1c0.5-0.1,0.7-0.1,0.9,0c0.3,0.3,0.1,0.9,0,1.1C34.1,26,33.7,26.5,33.4,26.6z M36.2,34.1
			c0.1-0.1,0.3-0.1,0.3-0.1c0.1-0.2,0.1-0.4,0.3-0.5c-0.3,0.1-0.5,0.1-0.7,0.1c0,0.1-0.1,0.3-0.3,0.5C35.9,34.1,36.1,34.1,36.2,34.1
			z M36.7,34.1c0.3,0,0.6,0.1,0.9,0.1c0.1-0.3,0.3-0.5,0.4-0.7h-0.4c-0.1-0.1-0.3-0.1-0.3-0.3C37.1,33.3,36.7,33.7,36.7,34.1z
			 M40,28.7L40,28.7c0,0.3-0.1,0.6,0,0.7c0.3-0.1,0.7,0.1,1.1,0.5h0.2c0.1,0,0.3,0,0.3,0.1c0.1,0.1,0,0.3,0,0.5
			c0,0.1-0.1,0.1-0.1,0.1c0.3,0.5,0.3,0.8,0.1,1.1v0.1l0,0c0,0.1,0.4,0.1,0.6,0.2c0.1,0,0.1,0.1,0.1,0.1
			C42.7,30.7,42.8,28.9,40,28.7L40,28.7z M37.7,28.7c0.1,0,0.1,0.1,0.1,0.1c0,0,0.1,0.1,0.1,0.1c0.5-0.1,0.9,0,1.1,0.3
			c0,0,0,0.1,0.1,0.1l0,0c0.1,0,0.3-0.3,0.3-0.5c0,0,0-0.1,0.1-0.1C38.8,28.7,38.1,28.7,37.7,28.7L37.7,28.7L37.7,28.7z M37.5,35.5
			c0.1,0,0.1,0,0.2-0.1c0.1-0.1,0.1-0.1,0.3-0.1l0,0l0,0c0.1,0,0.4,0,0.6-0.1c-0.5-0.1-0.9-0.1-1.3-0.1v0.1
			C37.4,35.4,37.4,35.5,37.5,35.5z M39.7,35.7c0,0.1,0.1,0.1,0.1,0.1v-0.3v-0.2h-0.2C39.5,35.4,39.6,35.5,39.7,35.7z M43.7,36.1
			c-0.1-0.1-1.7-0.4-3.7-0.7v0.1c0,0.4-0.1,0.5-0.1,0.7l0,0c-0.1,0-0.1-0.1-0.3-0.4l-0.2-0.4c-0.1,0-0.3,0-0.3-0.1
			c-0.3,0.2-0.7,0.2-0.9,0.2l0,0c-0.1,0-0.1,0-0.1,0.1c-0.1,0.1-0.1,0.1-0.3,0.1h-0.1c-0.2-0.1-0.3-0.3-0.3-0.4v-0.1
			c-0.1,0-0.1-0.1-0.1-0.1c-1.5-0.1-2.8-0.3-3.7-0.3c-0.5,0-1.1,0-1.6,0.1l0.1,0.1c0,0-0.3-0.1-0.5-0.1c-0.3,0-0.6,0-0.9,0.1
			c-0.1,0.3-0.5,0.5-0.6,0.6c-0.1,0.1-0.1,0.5-0.3,0.5c-0.3,0.1-0.3-0.1-0.5-0.3c-0.8,0.1-1.1-0.3-1.2-0.5H28
			c0.1,0.3,0.1,0.3,0.1,0.3c-0.1,0.3-0.3,0.7-0.4,0.9l0.8,0.4l-0.9,0.8l-1.1-0.5l0.9-0.8l0.1,0.1v-0.9l0.1-0.2
			c-2.2,0.3-4,0.6-4.3,0.8c-0.5,1.1,0.6,3,0.6,3s6.2-0.9,9.9-0.9c3.7,0,9.5,0.9,9.5,0.9S44.2,36.9,43.7,36.1L43.7,36.1
			C43.7,36.1,43.7,36.1,43.7,36.1z M24.5,38.1c-0.3,0.1-0.5-0.1-0.6-0.5c-0.1-0.4,0-0.7,0.3-0.7s0.5,0.1,0.6,0.5
			C24.8,37.7,24.7,38,24.5,38.1z M30.4,37.1c-0.5,0.1-1-0.1-1-0.4s0.3-0.5,0.9-0.6c0.5-0.1,1,0.1,1,0.4
			C31.3,36.8,30.9,37.1,30.4,37.1z M33.3,37.1l-1-0.7l1-0.7l1,0.7L33.3,37.1z M36.3,37.1c-0.5-0.1-0.9-0.3-0.9-0.7
			c0-0.3,0.5-0.4,1-0.3c0.5,0.1,0.9,0.4,0.9,0.7C37.3,37.1,36.9,37.3,36.3,37.1z M39.3,37.7l-0.9-0.9l1.1-0.5l0.9,0.9L39.3,37.7z
			 M42.5,37.6c-0.1,0.3-0.4,0.6-0.7,0.5c-0.2-0.1-0.3-0.5-0.1-0.8c0.1-0.3,0.4-0.6,0.7-0.5C42.5,36.9,42.7,37.2,42.5,37.6z
			 M30.1,48.5c-0.8,0-1.4-0.5-1.4-1.3c0-0.8,0.6-1,0.9-1.1c-0.2-0.1-0.3-0.3-0.3-0.5c0-0.3,0.3-0.7,0.8-0.7c0.5,0,0.7,0.4,0.7,0.5
			c0,0,0,0.1-0.1,0.1s-0.2-0.3-0.5-0.3c-0.3,0-0.6,0.2-0.6,0.5c0,0.1,0.1,0.3,0.1,0.4c0.1,0,0.6,0.2,0.6,0.4c0,0,0,0.1-0.1,0.1
			s-0.1-0.1-0.3-0.1c-0.5,0-0.8,0.3-0.8,0.8c0,0.5,0.4,1,1,1c0,0,0,0,0,0c0.7,0,1-0.5,1-0.8c0-0.3-0.1-0.5-0.2-0.5
			c-0.1,0.1-0.3,0.1-0.4,0.3c-0.3,0.1-0.3,0.3-0.3,0.5c0,0.1,0,0.2-0.1,0.2s-0.1-0.2-0.1-0.3c0-0.6,0.3-0.7,0.8-1.1
			c0.5-0.3,0.7-0.4,0.7-0.5c0,0-0.1,0.1-0.2,0.1c-0.1,0-0.3-0.1-0.3-0.2s0.1-0.3,0.3-0.3c0.2,0,0.3,0.1,0.3,0.3c0,0,0,0,0,0
			c0,0.5-0.4,0.7-0.7,0.9c0.1,0.1,0.2,0.3,0.2,0.5C31.4,48.1,30.8,48.5,30.1,48.5 M14.4,46.9c-0.1-0.1-0.1-0.1-0.1-0.1
			c0,0,0-0.1,0.1-0.1h0.3c0.5,0,0.9-0.1,0.9-0.7c0-0.6-0.5-0.9-1-0.9c-0.2,0-0.3,0.1-0.4,0.1v1.5v1.5c0.1,0,0.3,0,0.5,0.1v0.1
			c0,0,0,0.1-0.1,0.1h-0.7h-0.7c0,0-0.1,0-0.1-0.1v-0.1c0.1-0.1,0.4-0.1,0.5-0.1v-1.5v-1.5c-0.1,0-0.4,0-0.5-0.1v-0.1
			c0,0,0-0.1,0.1-0.1h0.7h0.9c0.6,0,1.3,0.1,1.3,0.8s-0.7,0.9-1.1,0.9l0.7,1c0.1,0.2,0.3,0.4,0.5,0.4c0.1,0,0.1-0.1,0.2-0.1
			c0,0,0.1,0,0.1,0.1s-0.3,0.3-0.6,0.3s-0.5-0.2-0.7-0.5C15.3,47.9,14.4,46.9,14.4,46.9z M20.5,46.7c0,0.9-0.7,1.7-1.8,1.7
			c-1.3,0-1.9-0.7-1.9-1.7c0-1.1,0.9-1.7,1.9-1.7C19.8,45,20.5,45.7,20.5,46.7 M19.8,46.7c0-0.6-0.3-1.6-1.1-1.6
			c-0.9,0-1.3,0.7-1.3,1.6c0,0.7,0.3,1.6,1.3,1.6C19.5,48.3,19.8,47.5,19.8,46.7 M23.3,46C23.3,46.1,23.3,46.1,23.3,46
			c-0.1,0.1-0.1-0.3-0.1-0.3c-0.3-0.2-0.6-0.4-1.1-0.4c-0.3,0-0.9,0.1-0.9,0.5c0,0.7,1.1,0.5,1.7,0.7c0.4,0.1,0.6,0.4,0.6,0.9
			c0,0.7-0.5,1.1-1.3,1.1c-0.4,0-0.6-0.1-1-0.2c0,0.1,0,0.4-0.1,0.4c0,0-0.1,0-0.1-0.1v-0.7v-0.7v-0.1c0.1,0,0.1,0.3,0.1,0.4
			c0.3,0.3,0.7,0.5,1.3,0.5c0.5,0,0.8-0.1,0.8-0.5c0-0.7-1.3-0.5-1.8-0.8c-0.3-0.1-0.4-0.5-0.4-0.8c0-0.7,0.6-1,1.3-1
			c0.4,0,0.6,0.1,0.9,0.1c0-0.3,0.1-0.4,0.1-0.4s0.1,0,0.1,0.1v0.7L23.3,46L23.3,46L23.3,46L23.3,46C23.3,46,23.3,46,23.3,46z
			 M24.9,46.7v1.5h0.3c0.5,0,1.1-0.1,1.5-0.3c0-0.1,0-0.3,0.1-0.3c0,0,0-0.1,0.1-0.1s0.1,0,0.1,0.1V48v0.5c0,0,0,0.1-0.1,0.1
			c0,0-0.1,0-0.1-0.1v-0.1c-0.3-0.1-0.7-0.1-1.5-0.1h-0.9h-0.4c0,0-0.1,0-0.1-0.1v-0.1c0.1,0,0.4-0.1,0.5-0.1v-1.5V45
			c-0.1,0-0.4,0-0.5-0.1v-0.1c0,0,0-0.1,0.1-0.1h0.4h0.9c0.7,0,1.1,0,1.5-0.1c0-0.1,0-0.1,0.1-0.2h0.1c0,0,0.1,0,0.1,0.1V45v0.5
			c0,0.1,0,0.1-0.1,0.1c0,0-0.1,0-0.1-0.1s-0.1-0.3-0.1-0.3c-0.3-0.1-0.9-0.2-1.5-0.2h-0.3C24.9,45.5,24.9,46.2,24.9,46.7l0.3,0
			c0.3,0,1.1-0.1,1.3-0.2c0-0.1,0-0.2,0.1-0.3h0.1c0,0,0.1,0,0.1,0.1v0.5v0.5c0,0,0,0.1-0.1,0.1h-0.1c-0.1-0.1-0.1-0.3-0.1-0.4
			c-0.3-0.1-0.9-0.1-1.3-0.1C25.1,46.7,24.9,46.7,24.9,46.7L24.9,46.7L24.9,46.7L24.9,46.7z M36.5,46.3
			C36.5,46.3,36.5,46.3,36.5,46.3c-0.1,0.1-0.1-0.3-0.1-0.4c-0.1-0.2-0.4-0.7-1.1-0.7c-0.9,0-1.2,0.9-1.2,1.6c0,0.8,0.4,1.5,1.3,1.5
			c0.8,0,1.1-0.5,1.3-0.5c0,0.1-0.5,0.7-1.4,0.7c-1.3,0-1.7-0.9-1.7-1.6c0-1.1,0.9-1.8,1.8-1.8c0.6,0,0.9,0.1,1.1,0.3
			c0.1-0.3,0.1-0.5,0.1-0.5c0,0,0.1,0,0.1,0.1c0,0-0.1,0.7-0.1,0.9L36.5,46.3C36.5,46.3,36.5,46.3,36.5,46.3z M38.3,46.9
			c-0.1-0.1-0.1-0.1-0.1-0.1c0,0,0-0.1,0.1-0.1h0.3c0.5,0,0.9-0.1,0.9-0.7c0-0.6-0.5-0.9-1-0.9c-0.2,0-0.3,0.1-0.4,0.1v1.5v1.5
			c0.1,0,0.3,0,0.5,0.1v0.1c0,0,0,0.1-0.1,0.1h-0.7h-0.7c0,0-0.1,0-0.1-0.1v-0.1c0.1-0.1,0.4-0.1,0.5-0.1v-1.5v-1.5
			c-0.1,0-0.4,0-0.5-0.1v-0.1c0,0,0-0.1,0.1-0.1h0.7h0.9c0.6,0,1.3,0.1,1.3,0.8s-0.7,0.9-1.1,0.9l0.7,1c0.1,0.2,0.3,0.4,0.5,0.4
			c0.1,0,0.2-0.1,0.2-0.1s0.1,0,0.1,0.1s-0.3,0.3-0.6,0.3c-0.3,0-0.5-0.2-0.7-0.5C39.2,47.9,38.3,46.9,38.3,46.9z M44.4,46.7
			c0,0.9-0.7,1.7-1.8,1.7c-1.3,0-1.9-0.7-1.9-1.7c0-1.1,0.9-1.7,1.9-1.7C43.7,45,44.4,45.7,44.4,46.7 M43.7,46.7
			c0-0.6-0.3-1.6-1.1-1.6c-0.9,0-1.3,0.7-1.3,1.6c0,0.7,0.3,1.6,1.3,1.6C43.4,48.3,43.7,47.5,43.7,46.7 M47.1,46.3L47.1,46.3
			c0.1-0.2,0.2-0.8,0.3-1c0,0-0.2,0-0.3-0.1v-0.1c0,0,0-0.1,0.1-0.1h1h1.3c0,0,0.1,0,0.1,0.1v0.1c-0.1,0-0.3,0.1-0.4,0.1
			c-0.4,0.7-1.1,2.4-1.4,3.1c0,0.1-0.1,0.2-0.1,0.2s-0.1-0.1-0.1-0.3L47,47.1l-0.5,1.3c0,0.1,0,0.1-0.1,0.1s-0.1-0.1-0.1-0.1
			L45,45.4c-0.1,0-0.3,0-0.4-0.1v-0.1c0,0,0-0.1,0.1-0.1h1.3h1.2c0,0,0.1,0,0.1,0.1v0.1H47L47.1,46.3C47.1,46.3,47.1,46.3,47.1,46.3
			z M46.9,46.9l-0.7-1.7h-0.7l1,2.5C46.5,47.7,46.9,46.9,46.9,46.9z M47.7,47.8c0.2-0.4,0.4-0.9,0.6-1.5c0.2-0.5,0.3-0.9,0.3-1.1
			h-0.9c-0.1,0.3-0.5,0.9-0.6,1.2L47.7,47.8L47.7,47.8z M52.7,46.8c0-0.6-0.1-1.3-0.1-1.6c-0.1,0-0.4,0-0.5-0.1v-0.1
			c0,0,0-0.1,0.1-0.1h0.7h0.6c0,0,0.1,0,0.1,0.1v0.1c-0.1,0-0.3,0.1-0.4,0.1c-0.1,0.3-0.1,0.9-0.1,1.6v1.6v0.1c-0.1,0-0.1,0-0.9-0.9
			l-1.6-1.8c0,1.4,0.1,1.9,0.1,2.5c0.1,0,0.4,0,0.5,0.1v0.1c0,0,0,0.1-0.1,0.1h-0.7h-0.6c0,0-0.1,0-0.1-0.1v-0.1
			c0.1,0,0.3-0.1,0.4-0.1c0.1-0.5,0.1-1.1,0.1-2.7c-0.2-0.2-0.3-0.3-0.5-0.4c-0.1,0-0.1,0-0.1-0.1c0,0,0-0.1,0.1-0.1h0.4h0.4
			l2.2,2.5L52.7,46.8L52.7,46.8L52.7,46.8C52.7,46.8,52.7,46.8,52.7,46.8z"/>
	</g>
</g>
</svg>
