<?xml version="1.0"?>
<svg xmlns="http://www.w3.org/2000/svg" xmlns:xlink="http://www.w3.org/1999/xlink" xmlns:svgjs="http://svgjs.com/svgjs" version="1.1" width="512" height="512" x="0" y="0" viewBox="0 0 512 512" style="enable-background:new 0 0 512 512" xml:space="preserve" class=""><g><path xmlns="http://www.w3.org/2000/svg" d="m512 256c0 141.386719-114.613281 256-256 256s-256-114.613281-256-256 114.613281-256 256-256 256 114.613281 256 256zm0 0" fill="#f1f1f1" data-original="#06b26b" style="" class=""/><path xmlns="http://www.w3.org/2000/svg" d="m512 256c0-1.152344-.027344-2.300781-.042969-3.453125l-154.480469-154.480469-153.070312-21.066406-63.097656 127.714844 114.691406 250.332031 51.722656 51.722656c116.589844-23.921875 204.277344-127.105469 204.277344-250.769531zm0 0" fill="#f1f1f1" data-original="#0a9154" style="" class=""/><path xmlns="http://www.w3.org/2000/svg" d="m256 56.953125c-80.535156 0-145.820312 65.285156-145.820312 145.820313 0 126.125 145.820312 252.273437 145.820312 252.273437s145.820312-109.9375 145.820312-252.273437c0-80.535157-65.285156-145.820313-145.820312-145.820313zm0 238.445313c-53.332031 0-96.566406-43.234376-96.566406-96.566407s43.234375-96.566406 96.566406-96.566406 96.566406 43.234375 96.566406 96.566406-43.234375 96.566407-96.566406 96.566407zm0 0" fill="#ffce00" data-original="#ffce00" style="" class=""/><path xmlns="http://www.w3.org/2000/svg" d="m256 455.046875s145.820312-109.9375 145.820312-252.273437c0-80.535157-65.289062-145.820313-145.820312-145.820313-.136719 0-.269531.007813-.40625.007813v45.308593c.136719 0 .269531-.003906.40625-.003906 53.332031 0 96.566406 43.234375 96.566406 96.566406s-43.234375 96.566407-96.566406 96.566407zm0 0" fill="#ffa300" data-original="#ffa300" style="" class=""/><path xmlns="http://www.w3.org/2000/svg" d="m294.519531 129.074219v43.113281l-38.523437 21.742188-38.523438-21.742188v-43.113281c-15.492187 11.6875-25.511718 30.246093-25.511718 51.148437 0 24.507813 13.773437 45.792969 33.996093 56.554688v53.847656c9.457031 3.09375 19.550781 4.773438 30.042969 4.773438 10.488281 0 20.582031-1.679688 30.039062-4.769532v-53.851562c20.222657-10.761719 33.992188-32.046875 33.992188-56.554688 0-20.902344-10.015625-39.460937-25.511719-51.148437zm0 0" fill="#dbeeff" data-original="#dbeeff" style=""/><path xmlns="http://www.w3.org/2000/svg" d="m256 295.398438c10.488281 0 20.585938-1.679688 30.039062-4.769532v-53.847656c20.222657-10.765625 33.996094-32.046875 33.996094-56.554688 0-20.90625-10.019531-39.464843-25.511718-51.152343v43.113281l-38.527344 21.742188zm0 0" fill="#bfe1ff" data-original="#bfe1ff" style=""/><path xmlns="http://www.w3.org/2000/svg" d="m266.011719 294.882812v-58.921874h-20.027344v58.921874c3.292969.339844 6.632813.515626 10.015625.515626s6.722656-.175782 10.011719-.515626zm0 0" fill="#a3d4ff" data-original="#a3d4ff" style=""/><path xmlns="http://www.w3.org/2000/svg" d="m256 295.398438c3.382812 0 6.722656-.175782 10.011719-.511719v-58.925781h-10.417969" fill="#65b1fc" data-original="#65b1fc" style=""/></g></svg>
