<?xml version="1.0" encoding="utf-8"?>
<!-- Generator: Adobe Illustrator 24.2.1, SVG Export Plug-In . SVG Version: 6.00 Build 0)  -->
<svg version="1.1" id="Layer_1" xmlns="http://www.w3.org/2000/svg" xmlns:xlink="http://www.w3.org/1999/xlink" x="0px" y="0px"
	 viewBox="0 0 239.5 46.5" style="enable-background:new 0 0 239.5 46.5;" xml:space="preserve">
<g id="Group-14" transform="translate(220.000000, 100.000000)">
	<polygon id="Fill-1" style="fill-rule:evenodd;clip-rule:evenodd;fill:#0E2A47;" points="-131.7,-57.8 -124.8,-57.8 -124.8,-95.7 
		-131.7,-95.7 	"/>
	<g id="Group-13" transform="translate(0.000000, 0.277246)">
		<path id="Fill-2" style="fill-rule:evenodd;clip-rule:evenodd;fill:#0E2A47;" d="M-114.4-70.9c0,3.9,2.6,7,6.6,7
			c3.9,0,6.6-3,6.6-7c0-4-2.7-7-6.6-7C-111.8-77.9-114.4-74.8-114.4-70.9L-114.4-70.9z M-94.7-58.1h-6.7v-2.8
			c-1.7,2.1-4.1,3.5-7.6,3.5c-7,0-12.3-5.8-12.3-13.4s5.3-13.4,12.3-13.4c3.5,0,5.9,1.4,7.6,3.5v-2.8h6.7V-58.1z"/>
		<g id="Clip-5">
		</g>
		<defs>
			<filter id="Adobe_OpacityMaskFilter" filterUnits="userSpaceOnUse" x="-69.3" y="-96.4" width="8.8" height="38.3">
				<feColorMatrix  type="matrix" values="1 0 0 0 0  0 1 0 0 0  0 0 1 0 0  0 0 0 1 0"/>
			</filter>
		</defs>
		<mask maskUnits="userSpaceOnUse" x="-69.3" y="-96.4" width="8.8" height="38.3" id="mask-2_16_">
			<g style="filter:url(#Adobe_OpacityMaskFilter);">
				<polygon id="path-1_16_" style="fill-rule:evenodd;clip-rule:evenodd;fill:#FFFFFF;" points="-220,-53.8 19.5,-53.8 
					19.5,-100.3 -220,-100.3 				"/>
			</g>
		</mask>
		<path id="Fill-4" style="mask:url(#mask-2_16_);fill-rule:evenodd;clip-rule:evenodd;fill:#0E2A47;" d="M-68.3-58.1h6.9v-25.5
			h-6.9V-58.1z M-60.5-91.9c0,2.5-1.9,4.4-4.4,4.4c-2.5,0-4.4-1.9-4.4-4.4c0-2.5,1.9-4.4,4.4-4.4C-62.4-96.4-60.5-94.4-60.5-91.9
			L-60.5-91.9z"/>
		<defs>
			<filter id="Adobe_OpacityMaskFilter_1_" filterUnits="userSpaceOnUse" x="-154.6" y="-96.7" width="19.5" height="38.6">
				<feColorMatrix  type="matrix" values="1 0 0 0 0  0 1 0 0 0  0 0 1 0 0  0 0 0 1 0"/>
			</filter>
		</defs>
		<mask maskUnits="userSpaceOnUse" x="-154.6" y="-96.7" width="19.5" height="38.6" id="mask-2_15_">
			<g style="filter:url(#Adobe_OpacityMaskFilter_1_);">
				<polygon id="path-1_15_" style="fill-rule:evenodd;clip-rule:evenodd;fill:#FFFFFF;" points="-220,-53.8 19.5,-53.8 
					19.5,-100.3 -220,-100.3 				"/>
			</g>
		</mask>
		<path id="Fill-6" style="mask:url(#mask-2_15_);fill-rule:evenodd;clip-rule:evenodd;fill:#0E2A47;" d="M-135.2-89.4
			c-1-0.4-2.9-1.1-4.9-0.9c-1.9,0.2-3,1.2-3,3.6v3.1h7.9v6.1h-7.9v19.4h-6.8v-19.4h-4.8v-6.1h4.8v-3.2c0-6,3.2-9.9,9.1-9.9
			c2.3,0,4.1,0.4,5.6,1.1L-135.2-89.4z"/>
		<defs>
			<filter id="Adobe_OpacityMaskFilter_2_" filterUnits="userSpaceOnUse" x="-91.3" y="-91.2" width="19.5" height="33.7">
				<feColorMatrix  type="matrix" values="1 0 0 0 0  0 1 0 0 0  0 0 1 0 0  0 0 0 1 0"/>
			</filter>
		</defs>
		<mask maskUnits="userSpaceOnUse" x="-91.3" y="-91.2" width="19.5" height="33.7" id="mask-2_14_">
			<g style="filter:url(#Adobe_OpacityMaskFilter_2_);">
				<polygon id="path-1_14_" style="fill-rule:evenodd;clip-rule:evenodd;fill:#FFFFFF;" points="-220,-53.8 19.5,-53.8 
					19.5,-100.3 -220,-100.3 				"/>
			</g>
		</mask>
		<path id="Fill-7" style="mask:url(#mask-2_14_);fill-rule:evenodd;clip-rule:evenodd;fill:#0E2A47;" d="M-77.1-63.8
			c-2.1,0-3.8-1.2-3.8-4.3v-9.3h9.2v-6.1H-81v-7.6h-6.9v7.6h-3.4v6.1h3.4v9.9c0,6.6,3.2,10.2,9.6,10.2c2.6,0,4.7-0.6,6.5-1.5
			l-2.6-5.5C-75.3-64.1-76.2-63.8-77.1-63.8"/>
		<defs>
			<filter id="Adobe_OpacityMaskFilter_3_" filterUnits="userSpaceOnUse" x="-35.6" y="-84.3" width="27.6" height="26.8">
				<feColorMatrix  type="matrix" values="1 0 0 0 0  0 1 0 0 0  0 0 1 0 0  0 0 0 1 0"/>
			</filter>
		</defs>
		<mask maskUnits="userSpaceOnUse" x="-35.6" y="-84.3" width="27.6" height="26.8" id="mask-2_13_">
			<g style="filter:url(#Adobe_OpacityMaskFilter_3_);">
				<polygon id="path-1_13_" style="fill-rule:evenodd;clip-rule:evenodd;fill:#FFFFFF;" points="-220,-53.8 19.5,-53.8 
					19.5,-100.3 -220,-100.3 				"/>
			</g>
		</mask>
		<path id="Fill-8" style="mask:url(#mask-2_13_);fill-rule:evenodd;clip-rule:evenodd;fill:#0E2A47;" d="M-28.6-70.9
			c0,4.1,2.9,7,6.8,7c3.9,0,6.8-2.9,6.8-7c0-4.1-2.9-7-6.8-7C-25.7-77.9-28.6-75-28.6-70.9 M-8-70.9c0,7.7-5.9,13.4-13.8,13.4
			c-7.9,0-13.8-5.7-13.8-13.4c0-7.7,5.8-13.4,13.8-13.4C-13.9-84.3-8-78.5-8-70.9"/>
		<defs>
			<filter id="Adobe_OpacityMaskFilter_4_" filterUnits="userSpaceOnUse" x="-4.6" y="-84.3" width="24.1" height="26.2">
				<feColorMatrix  type="matrix" values="1 0 0 0 0  0 1 0 0 0  0 0 1 0 0  0 0 0 1 0"/>
			</filter>
		</defs>
		<mask maskUnits="userSpaceOnUse" x="-4.6" y="-84.3" width="24.1" height="26.2" id="mask-2_12_">
			<g style="filter:url(#Adobe_OpacityMaskFilter_4_);">
				<polygon id="path-1_12_" style="fill-rule:evenodd;clip-rule:evenodd;fill:#FFFFFF;" points="-220,-53.8 19.5,-53.8 
					19.5,-100.3 -220,-100.3 				"/>
			</g>
		</mask>
		<path id="Fill-9" style="mask:url(#mask-2_12_);fill-rule:evenodd;clip-rule:evenodd;fill:#0E2A47;" d="M19.5-74.3v16.2h-6.9v-14
			c0-3.7-1.8-5.7-5-5.7c-2.9,0-5.4,1.9-5.4,5.8v14h-6.9v-25.5h6.7v3c1.8-2.7,4.6-3.7,7.5-3.7C15.4-84.3,19.5-80.3,19.5-74.3"/>
		<defs>
			<filter id="Adobe_OpacityMaskFilter_5_" filterUnits="userSpaceOnUse" x="-57.9" y="-84.3" width="22.3" height="26.8">
				<feColorMatrix  type="matrix" values="1 0 0 0 0  0 1 0 0 0  0 0 1 0 0  0 0 0 1 0"/>
			</filter>
		</defs>
		<mask maskUnits="userSpaceOnUse" x="-57.9" y="-84.3" width="22.3" height="26.8" id="mask-2_11_">
			<g style="filter:url(#Adobe_OpacityMaskFilter_5_);">
				<polygon id="path-1_11_" style="fill-rule:evenodd;clip-rule:evenodd;fill:#FFFFFF;" points="-220,-53.8 19.5,-53.8 
					19.5,-100.3 -220,-100.3 				"/>
			</g>
		</mask>
		<path id="Fill-10" style="mask:url(#mask-2_11_);fill-rule:evenodd;clip-rule:evenodd;fill:#0E2A47;" d="M-38.9-66.4L-38.9-66.4
			c-1.3,1.4-3,2.4-5,2.5c-0.2,0-0.4,0-0.5,0c-0.4,0-0.7,0-1.1-0.1c-2-0.3-3.6-1.6-4.5-3.4c-0.5-1-0.8-2.2-0.8-3.5
			c0-1.4,0.3-2.6,0.8-3.6c0.9-1.8,2.6-3,4.5-3.4c0.3-0.1,0.7-0.1,1-0.1c0.1,0,0.3,0,0.4,0c2,0.1,3.6,1,5,2.5l3.4-5.8
			c-1.4-1.2-3.1-2.1-5-2.6c-1.2-0.3-2.4-0.5-3.7-0.5c-1.6,0-3.2,0.2-4.6,0.7c-1.9,0.6-3.5,1.5-4.9,2.8c-2.6,2.4-4.1,5.9-4.1,10
			c0,4,1.5,7.5,4.1,9.9c1.3,1.3,3,2.2,4.9,2.8c1.4,0.5,3,0.7,4.7,0.7c1.3,0,2.6-0.2,3.8-0.5c1.9-0.5,3.5-1.4,4.9-2.7L-38.9-66.4z"/>
		<defs>
			<filter id="Adobe_OpacityMaskFilter_6_" filterUnits="userSpaceOnUse" x="-220" y="-100.3" width="37.5" height="46.5">
				<feColorMatrix  type="matrix" values="1 0 0 0 0  0 1 0 0 0  0 0 1 0 0  0 0 0 1 0"/>
			</filter>
		</defs>
		<mask maskUnits="userSpaceOnUse" x="-220" y="-100.3" width="37.5" height="46.5" id="mask-2_10_">
			<g style="filter:url(#Adobe_OpacityMaskFilter_6_);">
				<polygon id="path-1_10_" style="fill-rule:evenodd;clip-rule:evenodd;fill:#FFFFFF;" points="-220,-53.8 19.5,-53.8 
					19.5,-100.3 -220,-100.3 				"/>
			</g>
		</mask>
		<path id="Fill-11" style="mask:url(#mask-2_10_);fill-rule:evenodd;clip-rule:evenodd;fill:#4AD295;" d="M-191.8-84.2h-11.8
			l-3.7-6.4h19.2l5.6-9.7h-31.8c-2.1,0-3.9,1.1-4.9,2.8c-1,1.8-1,3.9,0,5.7l20.3,35.1c1,1.8,2.9,2.8,4.9,2.8s3.9-1.1,4.9-2.8
			l0.7-1.2l-9.3-16.1L-191.8-84.2z"/>
		<defs>
			<filter id="Adobe_OpacityMaskFilter_7_" filterUnits="userSpaceOnUse" x="-190.3" y="-100.3" width="22.2" height="36">
				<feColorMatrix  type="matrix" values="1 0 0 0 0  0 1 0 0 0  0 0 1 0 0  0 0 0 1 0"/>
			</filter>
		</defs>
		<mask maskUnits="userSpaceOnUse" x="-190.3" y="-100.3" width="22.2" height="36" id="mask-2_9_">
			<g style="filter:url(#Adobe_OpacityMaskFilter_7_);">
				<polygon id="path-1_9_" style="fill-rule:evenodd;clip-rule:evenodd;fill:#FFFFFF;" points="-220,-53.8 19.5,-53.8 19.5,-100.3 
					-220,-100.3 				"/>
			</g>
		</mask>
		<path id="Fill-12" style="mask:url(#mask-2_9_);fill-rule:evenodd;clip-rule:evenodd;fill:#4AD295;" d="M-168.9-97.4
			c-1-1.8-2.9-2.8-4.9-2.8h-1.4l-15.2,26.3l5.6,9.7l15.9-27.5C-167.8-93.5-167.8-95.7-168.9-97.4"/>
	</g>
</g>
</svg>
