<?xml version="1.0"?>
<svg xmlns="http://www.w3.org/2000/svg" xmlns:xlink="http://www.w3.org/1999/xlink" xmlns:svgjs="http://svgjs.com/svgjs" version="1.1" width="512" height="512" x="0" y="0" viewBox="0 0 512 512" style="enable-background:new 0 0 512 512" xml:space="preserve" class=""><g><path xmlns="http://www.w3.org/2000/svg" d="m512 256c0 141.386719-114.613281 256-256 256s-256-114.613281-256-256 114.613281-256 256-256 256 114.613281 256 256zm0 0" fill="#f1f1f1" data-original="#fcfac3" style="" class=""/><path xmlns="http://www.w3.org/2000/svg" d="m512 256c0-14.964844-1.296875-29.628906-3.761719-43.890625l-95.242187-95.242187-152.8125 152.8125-147.800782-147.796876-13.371093 13.375 147.796875 147.796876-124.476563-5.390626 33.644531 118.347657-20.125 20.121093 94.601563 94.601563c8.402344.832031 16.925781 1.265625 25.546875 1.265625 141.386719 0 256-114.613281 256-256zm0 0" fill="#f1f1f1" data-original="#f5e4aa" style="" class=""/><path xmlns="http://www.w3.org/2000/svg" d="m373.136719 356.652344v18.398437h-117.136719l-9.976562-9.199219 9.976562-9.199218zm0 0" fill="#694819" data-original="#694819" style=""/><path xmlns="http://www.w3.org/2000/svg" d="m138.863281 356.652344h117.136719v18.398437h-117.136719zm0 0" fill="#805b28" data-original="#805b28" style="" class=""/><path xmlns="http://www.w3.org/2000/svg" d="m154.195312 416.140625h-18.398437c0-35.625-4.242187-48.5-8.738281-62.128906-4.75-14.40625-9.660156-29.304688-9.660156-67.886719l18.398437-25.144531v25.144531c0 35.625 4.242187 48.5 8.734375 62.128906 4.753906 14.40625 9.664062 29.304688 9.664062 67.886719zm0 0" fill="#976f37" data-original="#976f37" style="" class=""/><path xmlns="http://www.w3.org/2000/svg" d="m376.203125 416.140625h-18.398437c0-38.582031 4.914062-53.480469 9.664062-67.886719 4.492188-13.628906 8.734375-26.5 8.734375-62.128906v-25.144531l18.398437 25.144531c0 38.582031-4.910156 53.480469-9.660156 67.886719-4.496094 13.628906-8.738281 26.503906-8.738281 62.128906zm0 0" fill="#805b28" data-original="#805b28" style="" class=""/><path xmlns="http://www.w3.org/2000/svg" d="m256 322.921875-36.796875-187.050781 175.398437 18.398437v131.855469h-45.996093c0 10.160156-8.238281 18.398438-18.398438 18.398438h-30.417969c-11.132812 11.351562-26.636718 18.398437-43.789062 18.398437zm0 0" fill="#ff7524" data-original="#ff7524" style=""/><path xmlns="http://www.w3.org/2000/svg" d="m256 135.871094v187.050781c-17.152344 0-32.65625-7.046875-43.789062-18.398437h-30.417969c-10.160157 0-18.398438-8.234376-18.398438-18.398438h-45.996093v-131.855469zm0 0" fill="#fd9435" data-original="#fd9435" style="" class=""/><path xmlns="http://www.w3.org/2000/svg" d="m394.601562 126.058594v28.210937h-138.601562l-18.398438-28.210937zm0 0" fill="#ff4c18" data-original="#ff4c18" style=""/><path xmlns="http://www.w3.org/2000/svg" d="m117.398438 126.058594h138.601562v28.210937h-138.601562zm0 0" fill="#ff7524" data-original="#ff7524" style=""/><path xmlns="http://www.w3.org/2000/svg" d="m413 116.859375v18.398437h-157l-27.128906-9.199218 27.128906-9.199219zm0 0" fill="#694819" data-original="#694819" style=""/><path xmlns="http://www.w3.org/2000/svg" d="m99 116.859375h157v18.398437h-157zm0 0" fill="#805b28" data-original="#805b28" style="" class=""/><path xmlns="http://www.w3.org/2000/svg" d="m376.203125 154.269531v113.457031h-120.203125l-18.398438-56.730468 18.398438-56.726563zm0 0" fill="#694819" data-original="#694819" style=""/><path xmlns="http://www.w3.org/2000/svg" d="m274.398438 172.667969h83.40625v76.660156h-83.40625zm0 0" fill="#805b28" data-original="#805b28" style="" class=""/><path xmlns="http://www.w3.org/2000/svg" d="m306.902344 201.800781h18.398437v18.394531h-18.398437zm0 0" fill="#fad357" data-original="#fad357" style=""/><path xmlns="http://www.w3.org/2000/svg" d="m135.796875 154.269531h120.203125v113.457031h-120.203125zm0 0" fill="#805b28" data-original="#805b28" style="" class=""/><path xmlns="http://www.w3.org/2000/svg" d="m154.195312 172.667969h83.40625v76.660156h-83.40625zm0 0" fill="#976f37" data-original="#976f37" style="" class=""/><path xmlns="http://www.w3.org/2000/svg" d="m186.699219 201.800781h18.398437v18.394531h-18.398437zm0 0" fill="#f8f368" data-original="#f8f368" style=""/></g></svg>
