<?xml version="1.0"?>
<svg xmlns="http://www.w3.org/2000/svg" xmlns:xlink="http://www.w3.org/1999/xlink" xmlns:svgjs="http://svgjs.com/svgjs" version="1.1" width="512" height="512" x="0" y="0" viewBox="0 0 512 512" style="enable-background:new 0 0 512 512" xml:space="preserve" class=""><g><path xmlns="http://www.w3.org/2000/svg" d="m512 256c0 141.386719-114.613281 256-256 256s-256-114.613281-256-256 114.613281-256 256-256 256 114.613281 256 256zm0 0" fill="#f1f1f1" data-original="#5475ac" style="" class=""/><path xmlns="http://www.w3.org/2000/svg" d="m375.332031 160.667969-69.261719 11.695312-225.179687 225.183594 104.621094 104.621094c22.394531 6.398437 46.039062 9.832031 70.488281 9.832031 141.386719 0 256-114.613281 256-256 0-22.644531-2.953125-44.59375-8.472656-65.503906l-62.59375-62.597656zm0 0" fill="#f1f1f1" data-original="#555970" style="" class=""/><path xmlns="http://www.w3.org/2000/svg" d="m186.421875 195.621094h-105.535156v48.394531l180.113281 52.765625zm0 0" fill="#f34a28" data-original="#f34a28" style="" class=""/><path xmlns="http://www.w3.org/2000/svg" d="m261 244.015625h-180.113281v153.527344h105.535156zm0 0" fill="#f9a167" data-original="#f9a167" style="" class=""/><path xmlns="http://www.w3.org/2000/svg" d="m325.023438 149.035156h42.214843v21.105469h-42.214843zm0 0" fill="#cde2ff" data-original="#cde2ff" style="" class=""/><path xmlns="http://www.w3.org/2000/svg" d="m325.023438 254.570312h42.214843v21.105469h-42.214843zm0 0" fill="#cde2ff" data-original="#cde2ff" style="" class=""/><path xmlns="http://www.w3.org/2000/svg" d="m335.578125 296.78125v100.761719h-42.214844l-32.363281-138.601563zm0 0" fill="#fccc86" data-original="#fccc86" style=""/><path xmlns="http://www.w3.org/2000/svg" d="m186.421875 296.78125v100.761719h42.214844l32.363281-138.601563zm0 0" fill="#fee3ac" data-original="#fee3ac" style="" class=""/><path xmlns="http://www.w3.org/2000/svg" d="m239.894531 258.941406 21.105469 138.601563h32.363281v-138.601563zm0 0" fill="#9e5544" data-original="#9e5544" style=""/><path xmlns="http://www.w3.org/2000/svg" d="m228.636719 258.941406h32.363281v138.601563h-32.363281zm0 0" fill="#c84f36" data-original="#c84f36" style=""/><path xmlns="http://www.w3.org/2000/svg" d="m261 74.460938-31.660156 102.792968 31.660156 119.527344h74.578125v-147.746094zm0 0" fill="#f9a167" data-original="#f9a167" style="" class=""/><path xmlns="http://www.w3.org/2000/svg" d="m186.421875 149.035156v147.746094h74.578125v-222.324219zm0 0" fill="#fccc86" data-original="#fccc86" style=""/><path xmlns="http://www.w3.org/2000/svg" d="m441.113281 296.78125h-84.429687v-168.851562h84.429687zm0 0" fill="#9e5544" data-original="#9e5544" style=""/><path xmlns="http://www.w3.org/2000/svg" d="m388.34375 159.589844h21.109375v21.105468h-21.109375zm0 0" fill="#ffef4a" data-original="#ffef4a" style="" class=""/><path xmlns="http://www.w3.org/2000/svg" d="m388.34375 201.800781h21.109375v21.109375h-21.109375zm0 0" fill="#ffef4a" data-original="#ffef4a" style="" class=""/><path xmlns="http://www.w3.org/2000/svg" d="m388.34375 244.015625h21.109375v21.105469h-21.109375zm0 0" fill="#ffef4a" data-original="#ffef4a" style="" class=""/><path xmlns="http://www.w3.org/2000/svg" d="m282.105469 195.621094h-21.105469l-10.554688-26.382813 10.554688-26.386719h21.105469zm0 0" fill="#e6f1ff" data-original="#e6f1ff" style="" class=""/><path xmlns="http://www.w3.org/2000/svg" d="m282.105469 269.492188h-21.105469l-10.554688-26.382813 10.554688-26.382813h21.105469zm0 0" fill="#e6f1ff" data-original="#e6f1ff" style="" class=""/><g xmlns="http://www.w3.org/2000/svg" fill="#fff"><path d="m239.894531 142.851562h21.105469v52.769532h-21.105469zm0 0" fill="#ffffff" data-original="#ffffff" style=""/><path d="m239.894531 216.726562h21.105469v52.765626h-21.105469zm0 0" fill="#ffffff" data-original="#ffffff" style=""/><path d="m123.101562 317.890625h21.109376v31.660156h-21.109376zm0 0" fill="#ffffff" data-original="#ffffff" style=""/><path d="m123.101562 265.121094h21.109376v31.660156h-21.109376zm0 0" fill="#ffffff" data-original="#ffffff" style=""/></g></g></svg>
