<?xml version="1.0" encoding="utf-8"?>
<svg version="1.1" id="Layer_1" xmlns="http://www.w3.org/2000/svg" xmlns:xlink="http://www.w3.org/1999/xlink" x="0px" y="0px"
	 viewBox="0 0 49.1 21.2" style="enable-background:new 0 0 49.1 21.2;" xml:space="preserve">
<g>
	<path d="M0,6.4c0-0.3,0-0.5,0.1-0.8c0.5-1.1,1.4-1.5,2.5-1.5c0.1,0,0.1,0.1,0.1,0.1v0.7c1.5-0.9,3.1-1.2,4.7-0.7
		c1.7,0.4,2.9,1.4,3.8,2.9c1.3,2.2,1,4.9-0.6,6.9c-1,1.1-2.2,1.9-3.7,2.1c-1.5,0.2-2.9-0.1-4.2-0.9V21H0V6.4L0,6.4z M6.1,13.4
		c1.8,0,3.3-1.5,3.3-3.3c0-1.8-1.5-3.3-3.3-3.3c-1.8,0-3.3,1.5-3.3,3.3C2.8,11.9,4.3,13.4,6.1,13.4z M25,0v16.2v0.1h-2.7
		c-0.1-0.3,0-0.6-0.1-0.9c-1.9,1.1-3.7,1.3-5.7,0.4c-1.2-0.5-2.1-1.3-2.8-2.5c-1.3-2.2-1.1-5.1,0.6-7c1-1.1,2.2-1.9,3.7-2.1
		c1.5-0.2,2.9,0.1,4.1,0.9c0.1-0.1,0.1-0.2,0.1-0.3V2.3c0-1,0.5-1.8,1.5-2.1c0.1,0,0.1,0,0.1-0.1C23.9,0,25,0,25,0z M15.7,10.2
		c0,1.8,1.5,3.3,3.3,3.3c1.8,0,3.3-1.5,3.3-3.3c0-1.8-1.5-3.3-3.3-3.3C17.1,6.9,15.7,8.4,15.7,10.2z M49.1,16.3h-2.5h-0.3v-0.9
		c-1.5,0.9-3.1,1.2-4.8,0.7c-1.7-0.5-3-1.5-3.8-3c-1.2-2.3-0.8-5.2,0.9-7c1.8-1.9,4.9-2.6,7.7-0.9c0.1-0.3,0-0.5,0-0.8
		c1-0.3,2.3,0.3,2.7,1.3 M43,13.5c1.8,0,3.3-1.5,3.3-3.3c0-1.8-1.5-3.3-3.3-3.3c-1.8,0-3.3,1.5-3.3,3.3C39.7,12,41.2,13.5,43,13.5z
		 M36.2,5.5l-1.5,2.3c-0.6-0.3-1.1-0.5-1.8-0.7s-1.4-0.4-2.1-0.3c-0.3,0-0.5,0.1-0.8,0.2c-0.5,0.3-0.5,0.8-0.1,1.1
		c0.3,0.2,0.7,0.3,1,0.5c0.9,0.3,1.8,0.5,2.7,0.9c0.6,0.2,1.2,0.5,1.7,0.9c1.7,1.3,1.2,3.7,0.3,4.6c-0.7,0.7-1.6,1.1-2.6,1.3
		c-2.7,0.5-5.1-0.1-7.4-1.5c0,0-0.1-0.1-0.1-0.1l1.7-2.2c0.5,0.3,1.1,0.6,1.7,0.9c0.9,0.4,1.9,0.6,2.9,0.5c0.3,0,0.6-0.1,0.9-0.2
		c0.5-0.3,0.5-0.9,0.1-1.3c-0.3-0.2-0.7-0.3-1.1-0.5c-0.9-0.3-1.7-0.4-2.6-0.7c-0.5-0.2-1.1-0.5-1.6-0.8c-1.6-1.2-1.5-3.7-0.1-4.9
		C28.1,4.8,29,4.4,30,4.3C32.2,4.1,34.2,4.5,36.2,5.5C36.1,5.5,36.1,5.5,36.2,5.5L36.2,5.5z M37.1,19.9v-0.7c0-0.1-0.1-0.3,0.2-0.3
		c0.3,0,0.4,0.1,0.5,0.3v0.7V21v0.1c-0.4,0.1-0.5,0.1-0.7-0.3l-0.4-0.6l-0.1-0.1v0.9h-0.7v-0.8v-1.1c0-0.1-0.1-0.3,0.1-0.3
		c0.2,0,0.4-0.1,0.5,0.1c0.1,0.1,0.2,0.3,0.3,0.5L37.1,19.9L37.1,19.9L37.1,19.9C37.1,19.9,37.1,19.9,37.1,19.9z M11.8,20.1V21
		c-0.2,0.1-0.4,0-0.7,0v-0.9v-0.9c0-0.1-0.1-0.3,0.1-0.3c0.2-0.1,0.4-0.1,0.5,0.1c0.1,0.1,0.2,0.3,0.3,0.5l0.3,0.4
		c0.1-0.3,0-0.5,0-0.8c0-0.1-0.1-0.3,0.2-0.3c0.3,0,0.5,0.1,0.5,0.3v0.7v1.1c-0.5,0.1-0.5,0.1-0.7-0.3L11.8,20.1
		C11.8,20.1,11.8,20.1,11.8,20.1z M31.2,21h-0.7c-0.1-0.2,0-0.4,0-0.6v-1.2c0-0.1-0.1-0.3,0.1-0.3c0.2,0,0.4-0.1,0.5,0.1l0.3,0.7
		l0.1,0.2h0.1v-0.7c0-0.1-0.1-0.3,0.2-0.3s0.5,0.1,0.5,0.3v1.8c-0.4,0.1-0.5,0.1-0.7-0.3c-0.1-0.2-0.3-0.5-0.5-0.7V21z M26.2,18.9
		c0.5-0.1,0.7,0,0.7,0.5v0.3c0.2,0.1,0.3,0,0.5,0v-0.5c0-0.1-0.1-0.3,0.1-0.3s0.4,0,0.5,0.2v0.1V21h-0.7v-0.8c-0.2-0.1-0.3,0-0.5,0
		V21h-0.7V18.9z M34,20.3l-0.3-0.1c-0.1-0.3,0-0.5,0.3-0.5h0.5v1.1c0,0.1-0.1,0.1-0.1,0.1c-0.3,0.1-0.7,0.1-1,0.1
		c-0.5-0.1-0.9-0.7-0.7-1.4c0.1-0.7,1.1-1.1,1.7-0.7c0.2,0.1,0.2,0.3-0.1,0.5c-0.3-0.2-0.6-0.2-0.8-0.1c-0.2,0.2-0.2,0.7-0.1,0.9
		l0.1,0.1c0.1,0.1,0.3,0.2,0.4,0.1C34.1,20.5,33.9,20.4,34,20.3z M39.9,19.7v1c0,0.1-0.1,0.2-0.2,0.2c-0.3,0.1-0.7,0.1-1.1,0
		c-0.5-0.1-0.7-0.7-0.6-1.3c0.1-0.8,1-1.2,1.7-0.7c0.2,0.1,0.2,0.3,0,0.5c-0.1,0-0.1,0-0.1-0.1c-0.3-0.2-0.6-0.2-0.8,0.1
		c-0.2,0.3-0.1,0.9,0.1,1h0.1c0.1,0.1,0.3,0.1,0.3,0.1c0.1-0.1,0.1-0.2,0.1-0.3c-0.1-0.1-0.1,0-0.2-0.1c-0.1-0.1-0.1-0.2,0-0.3
		c0-0.1,0.1-0.1,0.2-0.1C39.5,19.7,39.7,19.7,39.9,19.7C39.9,19.7,39.9,19.7,39.9,19.7z M14.6,20.3c-0.1,0-0.3-0.1-0.3-0.3
		s0.1-0.3,0.3-0.3h0.5v1.1c0,0.1-0.1,0.1-0.2,0.2c-0.3,0.1-0.7,0.1-1,0.1c-0.5-0.1-0.9-0.8-0.7-1.5c0.2-0.7,1.1-1,1.7-0.6
		c0.2,0.1,0.2,0.3-0.1,0.5h-0.1c-0.3-0.2-0.6-0.2-0.8,0c-0.2,0.3-0.1,0.8,0.1,1l0.1,0.1c0.1,0.1,0.3,0.1,0.4,0.1
		C14.7,20.5,14.6,20.4,14.6,20.3z M28.2,21l0.5-1.4c0.1-0.1,0.1-0.3,0.1-0.5c0.1-0.3,0.2-0.3,0.4-0.3s0.4,0,0.5,0.3l0.7,1.9h-0.7
		c0-0.1-0.1-0.1-0.1-0.2c-0.1-0.3-0.2-0.3-0.5-0.3c-0.1,0-0.2,0.1-0.3,0.2c0,0.3-0.2,0.4-0.5,0.3C28.3,21,28.3,21,28.2,21
		C28.2,21,28.2,21,28.2,21z M29.4,20.1l-0.1-0.6c-0.1,0.2-0.1,0.4-0.1,0.6C29.1,20.1,29.4,20.1,29.4,20.1z M5.9,21l0.7-2
		c0.1-0.2,0.3-0.1,0.4-0.1c0.2,0,0.4,0,0.5,0.2L8.1,21c-0.2,0.1-0.4,0-0.5,0c-0.1,0-0.1-0.1-0.2-0.2c-0.1-0.3-0.3-0.3-0.6-0.3
		c-0.1,0-0.1,0.1-0.1,0.1c0,0.3-0.3,0.4-0.5,0.3H5.9z M7,19.5c-0.1,0.2-0.2,0.3-0.1,0.5c0.1,0,0.2,0,0.3-0.1C7.1,20,7,19.5,7,19.5z
		 M43.5,18.9c0.5-0.2,0.7-0.1,0.8,0.4l0.3,1l0.3-0.9c0.1-0.5,0.3-0.6,0.8-0.5v0.1L45,20.9c-0.1,0.1-0.1,0.2-0.3,0.2
		c-0.5,0-0.5,0-0.7-0.5C44,20.6,43.5,18.9,43.5,18.9z M18.1,18.9h1.5c0.1,0.3,0,0.5-0.4,0.5h-0.4c-0.1,0.3-0.1,0.3,0.2,0.3h0.3v0.5
		c-0.2,0.1-0.4,0-0.6,0.1c-0.1,0.1,0,0.2,0,0.3c0.1,0.1,0.3,0,0.5,0c0.3,0,0.4,0.1,0.3,0.5H18C18,20.9,18.1,18.9,18.1,18.9z
		 M9.9,18.9L9.3,21c0,0.1-0.1,0.1-0.1,0.1c-0.5,0.1-0.6,0.1-0.8-0.5l-0.5-1.7c0.5-0.2,0.7-0.1,0.8,0.4l0.2,0.9l0.1,0.1
		C9,20.2,9,20.1,9.1,20l0.2-0.7C9.3,18.8,9.5,18.7,9.9,18.9z M23.1,19.5c-0.1-0.1-0.3-0.1-0.5-0.1c-0.1,0-0.2,0-0.2,0.1
		c0,0.1,0.1,0.1,0.1,0.1l0.3,0.1c0.3,0.1,0.5,0.3,0.5,0.7c0,0.3-0.2,0.6-0.5,0.7c-0.3,0.1-0.5,0.1-0.8,0c-0.4-0.1-0.5-0.3-0.1-0.6
		c0.1,0.1,0.3,0.2,0.5,0.2s0.2,0,0.3-0.1c0-0.1-0.1-0.2-0.1-0.3l-0.4-0.1c-0.3-0.1-0.4-0.3-0.3-0.6c0-0.3,0.1-0.5,0.4-0.6
		c0.3-0.1,0.6-0.1,0.9,0C23.3,19,23.4,19.1,23.1,19.5z M48.9,19.5c-0.1-0.1-0.3-0.1-0.5-0.1c-0.1,0-0.2,0-0.2,0.1
		c0,0.1,0.1,0.1,0.1,0.1l0.3,0.1c0.3,0.1,0.5,0.3,0.5,0.7c0,0.3-0.2,0.6-0.5,0.7c-0.3,0.1-0.5,0.1-0.8,0c-0.4-0.1-0.5-0.3-0.1-0.6
		c0.1,0.1,0.3,0.2,0.5,0.2s0.2,0,0.3-0.1c0-0.1-0.1-0.2-0.1-0.3l-0.4-0.1c-0.3-0.1-0.4-0.3-0.3-0.6c0-0.3,0.1-0.5,0.4-0.6
		c0.3-0.1,0.6-0.1,0.9,0C49.1,19,49.1,19.1,48.9,19.5z M5.6,19.5c-0.2-0.1-0.3-0.1-0.5-0.1c-0.1,0-0.2,0-0.2,0.1s0.1,0.1,0.1,0.2
		l0.3,0.1c0.3,0.1,0.5,0.3,0.5,0.7c0,0.3-0.2,0.5-0.5,0.7c-0.3,0.1-0.5,0.1-0.7,0C4.1,21,4,20.8,4.3,20.5c0.1,0.1,0.3,0.2,0.5,0.2
		c0.1,0,0.2,0,0.3-0.1c0-0.1-0.1-0.2-0.1-0.2c-0.1-0.1-0.3-0.1-0.3-0.1c-0.3-0.1-0.4-0.4-0.4-0.7c0-0.3,0.2-0.5,0.5-0.6
		c0.3-0.1,0.5-0.1,0.9,0C5.8,19,5.9,19.1,5.6,19.5z M47.3,21h-1.5v-2.1h1.5c0.1,0.3,0,0.5-0.3,0.5h-0.4c-0.1,0.1,0,0.2-0.1,0.3
		c0.2,0.1,0.4,0,0.6,0.1v0.5h-0.6c-0.1,0.1,0,0.2,0,0.3c0.1,0.1,0.3,0,0.5,0C47.3,20.5,47.3,20.6,47.3,21C47.3,21,47.3,21,47.3,21z
		 M16.2,18.9c0.3-0.1,0.7-0.1,1,0c0.4,0.1,0.6,0.3,0.6,0.6c0,0.4-0.2,0.7-0.6,0.8s-0.4,0.1-0.4,0.5V21c-0.2,0.1-0.4,0-0.6,0V18.9
		C16.2,18.9,16.2,18.9,16.2,18.9z M16.8,19.3c0,0.2-0.1,0.4,0,0.6c0.2,0,0.3-0.2,0.3-0.3C17.1,19.4,17.1,19.3,16.8,19.3L16.8,19.3z
		 M25.7,19.5c-0.3-0.2-0.6-0.3-0.7-0.1c-0.2,0.2-0.2,0.7,0,1c0.1,0.2,0.4,0.2,0.7,0c0.3,0.3,0.3,0.5-0.1,0.6
		c-0.7,0.1-1.3-0.1-1.4-0.9c0-0.2,0-0.4,0.1-0.5c0.2-0.7,1-1,1.6-0.6C26,19.1,26,19.3,25.7,19.5C25.7,19.5,25.7,19.5,25.7,19.5z
		 M21,19.4V21c-0.2,0.1-0.4,0-0.7,0v-1c0-0.2,0.1-0.4,0-0.5c-0.1-0.1-0.3,0-0.5-0.1h-0.1c-0.1-0.3,0-0.5,0.4-0.5h1.5
		C21.7,19.3,21.7,19.3,21,19.4z M40.9,21v-1.2v-0.7c0-0.1-0.1-0.3,0.2-0.3s0.5,0.1,0.5,0.3v1.1v0.3c0.3,0.1,0.9-0.2,0.8,0.5H40.9
		L40.9,21z M10.8,21h-0.6c-0.1-0.2,0-0.4,0-0.6v-1.3c0-0.1-0.1-0.3,0.2-0.3c0.3,0,0.5,0.1,0.5,0.3v0.3L10.8,21L10.8,21z M34.9,18.9
		c0.5-0.1,0.7,0,0.7,0.5V21c-0.2,0.1-0.4,0-0.7,0V18.9L34.9,18.9z M42.7,18.9c0.5-0.1,0.7,0,0.7,0.5V21h-0.7V18.9z"/>
</g>
</svg>
