<?xml version="1.0" encoding="utf-8"?>
<svg version="1.1" id="Layer_1" xmlns="http://www.w3.org/2000/svg" xmlns:xlink="http://www.w3.org/1999/xlink" x="0px" y="0px"
	width="100px" height="100px" viewBox="0 0 295.3 290.8" style="enable-background:new 0 0 295.3 290.8;" xml:space="preserve">
<g>
	<g id="Layer_2">
		<ellipse style="fill:#8B1D31;" cx="147.7" cy="145.4" rx="147.7" ry="145.4"/>
	</g>
	<g id="Layer_1_1_">
		<g>
			<path style="fill:#FFFFFF;" d="M136.3,6.5c6.8-0.3,13.6-0.2,20.3-0.1c11.9,1,23.8,3.2,35.2,7c6.4,2.1,12.5,4.9,18.6,7.7
				c23.4,11.5,43,30,56.8,52c11.6,18.6,18.5,40.1,20.1,61.9c1.3,17.9-0.9,36.1-6.5,53.1s-14.7,32.8-26.3,46.5
				c-14.8,17.4-33.9,31.1-55.1,39.4c-13.8,5.6-28.5,8.6-43.3,9.7c-5.8,0.1-11.5,0.1-17.3,0c-14.9-1.1-29.7-4.4-43.7-9.9
				c-3.2-1.1-6-2.9-9.2-4.1c-20.3-9.9-38.2-24.8-51.6-42.9c-15.3-20.9-24.8-46-26.6-71.8C6.9,142,7.5,128.9,10.4,116
				c6.4-30,23.1-57.6,46.6-77.2c14.7-12.3,32-21.6,50.4-27C116.8,9,126.5,7.5,136.3,6.5L136.3,6.5z"/>
			<path style="fill:#8B1D31;" d="M134.5,9.8c6.4-0.7,12.8-0.5,19.3-0.5c16.8,0.9,33.5,4.6,48.9,11.3c6.2,3.1,12.5,6,18.2,9.9
				c28.6,18,50.3,47,58.9,79.8c7.1,26,5.8,54.1-3.1,79.4c-5.8,16.3-14.7,31.4-26.1,44.4c-13.9,15.9-31.6,28.5-51.2,36.5
				c-15.6,6.4-32.3,9.7-49.1,10.1c-21.6,0.5-43.3-4.2-62.7-13.7c-28.7-13.8-52.4-38-65.4-67.1c-13.4-29.4-15.2-63.7-5.8-94.6
				c8-26.1,24.2-49.7,45.7-66.6C82.8,22.4,108.3,12.2,134.5,9.8L134.5,9.8z"/>
			<path style="fill:#FFFFFF;" d="M137.8,35.3c-1.1-6.6,1.9-13.6,7.5-17.2c5.1-0.3,10.3,0.3,15.4,0.6c-3.1,2.9-6.7,5.9-7.3,10.4
				c-0.7,5.2,2.6,9.5,4.8,13.8c2.1,3.8,3.3,8.8,1.1,12.8c-2,3.7-5.3,6.9-9,8.8c-4.4-0.9-8.7-2.7-13.1-3.7c3.3-3.2,7.4-6.6,7.2-11.7
				C143.6,43.9,139,40.3,137.8,35.3L137.8,35.3z"/>
			<path style="fill:#FFFFFF;" d="M176.8,21.2c5.8,1.9,11.4,4.2,17.1,6.1c4,1.3,7.9,2.8,11.9,4.1c-0.9,3-1.8,6.1-2.8,9.1
				c-3.1-0.5-5.9-1.9-9-2.5c-3.3,9.3-6.4,18.7-9.4,28.1c-4.2-1.1-8.3-2.9-12.4-4.1c0.9-4.6,3.1-8.8,4.4-13.2
				c1.6-5.1,3.7-10.1,5-15.3c-2.4-1.1-5-1.7-7.6-2.5C174.7,27.7,175.9,24.5,176.8,21.2L176.8,21.2z"/>
			<path style="fill:#FFFFFF;" d="M103,25.3c10.3-1.7,21,5.3,23.7,15.4c1.7,5.8,0.8,12.3-2.5,17.3c-2.6,4.4-6.9,7.4-11.6,9.1
				c-6,2-12.8,1.1-18-2.2c-6.3-3.9-10.3-11.1-10.3-18.5C84.3,35.9,92.7,26.4,103,25.3L103,25.3z"/>
			<path style="fill:#8B1D31;" d="M103,37.3c2.6-0.9,5.5-0.6,7.8,0.8c3.2,1.5,4.8,5.2,4.7,8.7c-0.1,4.5-3.7,8.7-8.2,9.2
				c-4.8,0.8-9.9-2.6-10.8-7.5C95.6,43.8,98.5,38.8,103,37.3L103,37.3z"/>
			<path style="fill:#FFFFFF;" d="M225.4,49.1c1.1-0.7,2.2-1.3,3.4-1.8c3.6,3,6.9,6.2,10.4,9.2c0.6,0.5,1.3,1.2,0.7,1.9
				c-6,12.9-11.9,26-18.1,38.7c-3.4-3.3-6.8-6.7-10-10.2c0.9-1.9,1.8-3.8,2.6-5.7c-2.3-2.5-4.8-4.7-7.4-6.8
				c-1.9,0.7-3.7,1.8-5.6,2.8c-2.7-1.7-5-3.8-7.6-5.6c-1.2-0.9-2.5-1.6-3.3-2.9C202.1,62.3,213.8,55.7,225.4,49.1L225.4,49.1z"/>
			<path style="fill:#FFFFFF;" d="M50.4,62c4.4-8.1,14.2-12.4,23.1-10.5c-0.6,3.8-1.4,7.7-2,11.6C69.3,63.1,67,62.8,65,64
				c-4.6,2.2-6.7,8.4-4.4,13c1.5,3.1,4.9,5.4,8.4,5.2c4.9,0.3,9-3.9,9.9-8.5c3.8,0.4,7.6,1.3,11.4,1.8C89.7,85.8,79.7,94.3,69.5,94
				c-6.1,0.3-12.1-2.5-16.2-6.9C47.1,80.5,45.7,69.9,50.4,62L50.4,62z"/>
			<path style="fill:#8B1D31;" d="M215.7,68.5c2.8-2.6,6.2-4.3,9.2-6.6c-1.4,3.6-3.5,6.8-5.3,10.1C218.1,70.9,216.9,69.7,215.7,68.5
				L215.7,68.5z"/>
			<path style="fill:#FFFFFF;" d="M140.8,68.9c16-1.3,32.4,2.2,46.1,10.7c17.9,10.5,31.3,28.5,35.9,48.9c3.3,14.3,2.1,29.5-2.7,43.2
				c-5.7,15.6-16.8,29.1-30.7,38c-12.3,7.7-26.8,12.3-41.4,12.1c-12.9,0.3-25.7-3-37.1-9c-16.4-8.7-29.4-23.4-36-40.7
				c-5.2-13.6-6.3-28.6-3.3-42.9c3.6-16.8,13.1-32.2,26.4-43C110.1,76.3,125.2,70.1,140.8,68.9L140.8,68.9z"/>
			<path style="fill:#8B1D31;" d="M140.8,70.5c16.1-1.4,32.7,2.5,46.4,11c6.2,4,12,8.7,17,14c1.5,1.9,3,3.9,4.5,5.8
				c9.6,12.9,14.7,29,14.3,45.1c0.1,9.4-1.9,18.8-5.7,27.3c-5.6,13.6-15.5,25.4-27.7,33.6c-10.9,7.4-23.8,11.7-36.9,12.6
				c-4.9-0.1-9.9,0.2-14.8-0.5c-18.6-2.2-36.2-11.7-48.3-26.1c-9.2-10.8-15.2-24.4-17.1-38.4c-2-15.4,0.8-31.4,8.2-45.1
				C92.3,87.9,115.8,72.4,140.8,70.5L140.8,70.5z"/>
			<path style="fill:#FFFFFF;" d="M163.8,93.5c2.6-2.6,6.2-4.5,10-4.3c6.5-0.1,12.6,2.6,17.9,6.2c3.8,2.1,6.9,5.3,9.7,8.6
				c9.6,11.7,15.5,26.7,14.8,41.9c-0.4,7.9-3.2,15.9-9.2,21.3c-3.3,2.8-7.2,5-11.5,5.7c-3.4,0.3-6.9,0.2-10.3-0.3
				c1.2-7.2,2.5-15.1-0.7-22c-1.1-3-3.7-5.1-6.1-7c-2.4-1.8-5.9-2.3-7.7-4.9c-3.1-4.2-7.2-8-12.3-9.5c-4.9-1.8-10.1-0.5-15,0.3
				c-0.8-4.2-1.1-8.5-0.6-12.7c0.2-4.6,1.8-9.3,5.2-12.6c2.8-2.9,6.5-4.5,10.3-5.8C160.7,97.5,162,95.2,163.8,93.5L163.8,93.5z"/>
			<path style="fill:#FFFFFF;" d="M100.8,95.8c3.9-2,8.4-2,12.6-1.2c2.5,0.4,4.8,1.8,7.3,1.1c3-0.7,6.2-1.4,9.3-0.6
				c3.6,0.6,6.3,3.1,8.8,5.6c1.4,1.5,2.9,3.2,3.7,5.2c-0.6,2.1-1.8,3.9-2.2,6.1c-1.3,6.1-1.2,12.5,0.1,18.6
				c-4.8,2.1-9.7,4.4-13.5,8.1c-3.2,2.6-5.7,5.8-8.7,8.7c0.4-6-0.3-12-0.7-17.9c-0.1-4.8-0.1-9.6-0.1-14.3c0-5,1.2-9.9,0.7-14.9
				c-2.1,1.1-2.6,3.7-3.4,5.7c-3.8,10-3.8,21-3.2,31.6c0.4,6.1,0.5,12.2,0.2,18.3c0.1,1.5-1,2.7-1.6,4c-2.8,5.1-4.9,10.5-6.1,16.2
				c-0.2,0.7-0.4,1.3-0.7,1.9c-6.4-3.3-10.9-9.3-14-15.6c-5.5-11.6-7-24.8-5.5-37.4c0.9-6.4,2.5-12.9,6.2-18.3
				C93,102.3,96.1,98,100.8,95.8L100.8,95.8z"/>
			<path style="fill:#8B1D31;" d="M162.7,103.2c-0.1-0.8-0.5-2.3,0.7-2.4c1.7,1.8,2.9,4,4.1,6.1c4.6,8,10.3,15.2,16.1,22.3
				c6.6,7.7,12.3,16.3,15.3,26c0.8,3,1.9,6,1.3,9.1c-1.3-0.1-1.8-1.3-2.4-2.3c-1.9-3.4-3.7-6.9-5.7-10.3c-4.3-6.7-9.1-13-14.1-19.1
				C171.1,124,164.7,114.4,162.7,103.2L162.7,103.2z"/>
			<path style="fill:#FFFFFF;" d="M19.5,125.9c-0.1-2.8,4.6-3.1,5.4-0.6c0.5,1.3,0.3,2.7,0.4,4c-0.7,0.1-1.4,0.2-2.1,0.2
				c-0.1-1.3,0-2.7-0.2-4c-0.6-1.3-1.8,0.1-1.6,1c-0.6,2.9,1.4,5.2,2.8,7.5c1.4,2,1.1,4.7,0.9,7c-0.3,2.3-3.7,2.8-4.9,1.1
				c-0.9-1.8-0.7-4-0.5-5.8c0.5-0.1,1.3-0.1,1.8-0.1c0.2,1.7-0.2,3.6,0.6,5.2c1.5-0.6,1.1-2.2,1.1-3.5c0.1-2.3-1.7-4-2.7-6
				C19.3,130.2,19.4,127.9,19.5,125.9L19.5,125.9z"/>
			<path style="fill:#FFFFFF;" d="M47.9,125.9c-0.3-2.8,4.5-3.2,5.2-0.8c0.5,1.5,0.2,3.2,0.2,4.7c-0.6-0.1-1.3-0.1-1.9-0.1
				c0-1.5-0.1-3-0.1-4.6c-0.3,0.1-1,0.1-1.3,0.2c-0.4,5.4-0.2,10.8-0.1,16.2c0.3,0,1-0.1,1.3-0.1c0.2-1.3,0.2-2.6,0.2-4
				c0.7-0.2,1.3-0.2,2-0.2c0,1.5,0.1,3-0.2,4.5c-0.9,2.2-5.4,1.8-5.3-0.9C47.8,135.8,47.8,130.9,47.9,125.9L47.9,125.9z"/>
			<path style="fill:#FFFFFF;" d="M60.4,125.4c-0.3,1.8-0.2,3.7-0.1,5.6c0.7,0.1,1.5,0.1,2.2,0.2c0,0.3-0.1,1-0.1,1.3
				c-0.7,0.3-1.7,0.2-2.2,0.9c-0.2,2.4-0.1,4.9,0.1,7.3c0.7,0.1,1.5,0.2,2.2,0.2c-0.1,0.6-0.1,1.2-0.2,1.8c-1.3,0.1-2.7,0.1-4,0.1
				c-0.3-6.4-0.1-12.8-0.1-19.1l0,0c1.4,0,2.9,0,4.3,0c0,0.3-0.1,1.1-0.1,1.4"/>
			<path style="fill:#FFFFFF;" d="M237.2,123.8c0.6-0.1,1.2-0.1,1.8-0.2c0,6.5,0,12.9,0,19.3c-0.9,0-1.7,0-2.5,0
				c0.1-4.6,0.1-9.1,0.1-13.6c0.2-1-0.5-1.7-1.3-2.1C235.2,125.8,236.5,125,237.2,123.8L237.2,123.8z"/>
			<path style="fill:#FFFFFF;" d="M244.5,125c1.7-2.2,6.4-1.5,6.4,1.6c0.1,4.5,0,9.1,0,13.6c0.3,3.1-4.5,4-6.2,1.9
				c-0.7-1.6-0.6-3.5-0.3-5.2c0.7,0,1.3-0.1,2-0.1c0.2,1.5-0.2,3.2,0.8,4.5c2.2-0.8,1-4,1.1-5.7c-1.3-0.1-3.3,0.3-4-1.3
				C244,131.3,244,128,244.5,125L244.5,125z"/>
			<path style="fill:#FFFFFF;" d="M255.3,123.8c2.1,0,4.1,0,6.1,0c0.4,2.7-0.6,5.3-1,7.9c-0.9,3.7-1.4,7.6-2.4,11.3
				c-0.8,0-1.5,0-2.3,0.1c0.5-5.8,2.6-11.3,3-17.1c-1.1,0-2.3-0.1-3.4-0.2C255.3,125.1,255.3,124.4,255.3,123.8L255.3,123.8z"/>
			<path style="fill:#FFFFFF;" d="M265.6,126.6c0.9-1.3,1.9-3.1,3.7-3c0.1,6.5,0,12.9,0,19.4c-0.9,0-1.7,0-2.5,0
				c0-4.6,0.1-9.2,0-13.7C267.1,128,265,127.9,265.6,126.6L265.6,126.6z"/>
			<path style="fill:#8B1D31;" d="M246.8,126.6c-0.3-1,1.8-1.4,1.6-0.2c0.2,2.3,0.1,4.6-0.1,7c-0.4,0-1.2-0.1-1.6-0.1
				C246.7,131.1,246.5,128.9,246.8,126.6L246.8,126.6z"/>
			<path style="fill:#FFFFFF;" d="M148.3,131.8c5.2-1,10.8,0,15,3.4c3,2,4.7,5.3,7.3,7.7c3.2,1.9,7,3,9.3,6.1
				c3.6,4,3.7,9.6,3.6,14.6c-0.7,12.7-7.4,24.1-16.3,32.8c-9,9.5-21.8,16.2-35.1,15.5c-6.6-0.2-13.5-2.4-18.6-6.9
				c-5.8-5.4-7.6-13.8-7.2-21.4c1-14.8,8.6-28.5,18.8-39c4.1-4.1,8.6-8,14-10.1C142,133.4,145.1,132.4,148.3,131.8L148.3,131.8z"/>
			<path style="fill:#8B1D31;" d="M159.4,149.8c2.3-1.7,4.6-3.7,7.6-3.9c-0.4,2.4-2.5,4-3.9,5.8c-7.3,7.8-13.2,16.8-19,25.7
				c-4.9,7.3-10.7,14.3-18.1,19.1c-2.6,1.7-5.3,3.4-8.3,4.2c0.2-2.5,2.5-4,4-5.7c7.7-7.6,13.9-16.4,19.8-25.5
				C146.4,162.3,151.9,154.9,159.4,149.8L159.4,149.8z"/>
			<path style="fill:#FFFFFF;" d="M230,176.4c2.6,1.5,5.2,3.1,7.9,4.6c-2.2,4.4-5.4,8.3-7.2,12.8c1.9,1.1,3.7,2.3,5.7,3.3
				c2.8-3.5,4.6-7.5,7-11.3c2.6,1.1,4.9,2.6,7.2,4.1c-2.1,3.9-4.5,7.6-6.6,11.5c2.1,1.5,4.3,2.8,6.6,4c2.6-4.1,4.8-8.5,7.6-12.5
				c2.3,1.3,4.6,2.6,6.8,4.1c-3.6,8-8,15.7-13.2,22.7c-0.5,1-1.5,0.6-2.2,0.1c-10.9-6.7-22.1-13.1-33.1-19.7
				c0.6-1.4,1.8-2.6,2.7-3.9C223.6,190.2,227.1,183.4,230,176.4L230,176.4z"/>
			<path style="fill:#FFFFFF;" d="M41.4,181.3c7.4-6,19-5.7,26.2,0.3c5.8,4.5,8.8,12,8.1,19.3c-3.9-0.1-7.8-0.6-11.7-1.1
				c0.3-4.2-1.8-8.8-6-10.3c-3.7-1.6-8.4-0.5-11,2.8c-3.8,4.2-2.5,11.7,2.5,14.4c1.4,1.1,3.4,0.8,4.7,1.8c-0.2,3.8-0.8,7.5-0.9,11.3
				c-10.3-0.3-19.4-9.3-20.1-19.5C32.4,193.1,35.6,185.6,41.4,181.3L41.4,181.3z"/>
			<path style="fill:#FFFFFF;" d="M201.6,214.3c2.6-1.7,4.6-4.2,7.1-6.1c1.7,2.5,3.3,4.9,4.7,7.4c-3.7,2.9-8,5.1-11.5,8.2
				c0.7,2.1,2.3,3.9,3.6,5.7c4-2,7.4-5,11.3-7.1c1.6,2.1,3,4.3,4.4,6.5c-3.2,2.9-7.1,4.8-10.4,7.6l-0.1,0.3c1.1,2.2,2.7,4.1,4,6.1
				c4.2-2.6,8.1-5.7,12.3-8.3c1.3,2.2,3.2,4.1,4.2,6.5c-6.5,6-13.9,11-21.7,15.2c-0.6,0.5-1.3,0.2-1.5-0.4c-6.2-9-12.1-18.1-18.3-27
				c-1.1-1.7-2.5-3.3-3.3-5.3C191.7,221.2,196.8,218,201.6,214.3L201.6,214.3z"/>
			<path style="fill:#FFFFFF;" d="M78.4,209.2c5.3-0.8,10.8,0.2,15.4,3c4.7,3.1,8.3,7.9,9.5,13.4c1.1,5.5,0.3,11.6-2.9,16.3
				c-4.6,7.2-13.7,11-22,9.2c-9.2-1.6-16.7-9.9-17.4-19.2C59.7,221.3,67.8,210.8,78.4,209.2L78.4,209.2z"/>
			<path style="fill:#8B1D31;" d="M78.9,221.2c3.8-1.3,8.4-0.1,10.8,3.2c3.3,3.8,2.6,10.1-1.2,13.3c-4,3.4-10.9,2.8-13.9-1.7
				C70.9,231.2,73.1,223.2,78.9,221.2L78.9,221.2z"/>
			<path style="fill:#FFFFFF;" d="M113.7,226.1c8.3,3.4,17,5.4,25.8,6.3c-0.3,2.8-1.3,5.3-1.9,8.1c-4.6-0.6-9-2.4-13.6-3
				c-0.6,2.3-1.3,4.6-1.7,6.9c4.1,1.3,8.3,2.1,12.4,3.1c-0.2,2.8-1,5.3-1.7,8c-4.3-0.5-8.4-2.1-12.6-2.7c-1.9,5-2.7,10.4-4.1,15.6
				c-3.9-0.7-7.6-2.1-11.3-3.2c-1.1-0.2-0.5-1.5-0.5-2.3C107.6,250.7,110.3,238.4,113.7,226.1L113.7,226.1z"/>
			<path style="fill:#FFFFFF;" d="M150.5,232.7c8.8-0.2,17.6-2.1,26-4.7c0.4,2.8,1,5.6,1.3,8.4c-4,1-8.1,1.4-12.2,2.1
				c-0.7,0.1-1.4,0.6-1.3,1.4c0.3,2.1,0.9,4.1,1.2,6.2c4.3-0.3,8.6-1.4,12.9-1.9c0.5,2.7,1,5.4,1.1,8.1c-4.2,0.5-8.4,1.3-12.5,2
				c0.2,5.4,1.6,10.7,2.5,16c-0.7,0.3-1.5,0.6-2.3,0.7c-3.5,0.3-6.9,1-10.4,0.9C154.6,258.9,152.3,245.8,150.5,232.7L150.5,232.7z"
				/>
		</g>
		<rect x="30" y="123.6" style="fill:#FFFFFF;" width="1.8" height="19"/>
		<polyline style="fill:none;" points="58.3,123.7 58.2,142.9 62.6,142.9 62.6,140.7 60.3,140.8 60.4,133.1 		"/>
	</g>
	<g id="Layer_3">
		<g>
			<path style="fill:#FFFFFF;" d="M238.1,77.6c1.5,0,3,0,4.4,0c0,0.3,0,0.5,0,0.8c-0.6,0-1.2,0-1.8,0c0,0.1,0,0.3,0,0.4
				c0,1.4,0,2.8,0,4.2c-0.3,0-0.6,0-0.9,0c0-0.2,0-0.3,0-0.5c0-1.4,0-2.8,0-4.2c-0.6,0-1.2,0-1.8,0
				C238.1,78.1,238.1,77.9,238.1,77.6L238.1,77.6z"/>
			<path style="fill:#FFFFFF;" d="M243.1,77.6c0.4,0,0.9,0,1.3,0c0.4,1.4,0.9,2.9,1.4,4.3c0.1-0.1,0.1-0.3,0.1-0.4
				c0.4-1.3,0.8-2.6,1.2-3.9c0.4,0,0.9,0,1.3,0c0,0.2,0,0.3,0,0.5c0,1.5,0,3,0,4.6c0,0.1,0,0.3,0,0.4c-0.3,0-0.5,0-0.8,0
				c0-0.3,0-0.5,0-0.8c0-1.2,0-2.5,0-3.7c-0.2,0.7-0.4,1.3-0.6,2c-0.2,0.8-0.5,1.6-0.8,2.5c-0.3,0-0.6,0-0.8,0
				c-0.5-1.5-0.9-2.9-1.4-4.4c0,0,0,0-0.1-0.1c0,1.5,0,3,0,4.5c-0.3,0-0.6,0-0.8,0c0-1.7,0-3.4,0-5.1
				C243.1,77.9,243.1,77.7,243.1,77.6L243.1,77.6z"/>
		</g>
		<polygon style="fill:#FFFFFF;" points="36.5,123.8 36.5,142.6 38.4,142.6 38.4,127.3 40.4,142.6 43,142.5 43,123.7 41.6,123.7 
			41.4,137.6 39.6,123.7 		"/>
	</g>
</g>
</svg>
