<?xml version="1.0" encoding="utf-8"?>
<svg version="1.1" id="Layer_1" xmlns="http://www.w3.org/2000/svg" xmlns:xlink="http://www.w3.org/1999/xlink" x="0px" y="0px"
	 viewBox="0 0 359.06 125.11" style="enable-background:new 0 0 359.06 125.11;" xml:space="preserve">
<g id="layer1" transform="translate(-6.9284729,-184.81385)">
	<g id="g498" transform="translate(0.26458409,-0.26457675)">
		<path id="path258" style="fill:#0A7B92;" d="M337.51,273.34c0.44-5.75,4.3-10.63,10.78-10.63c6.12,0,10.56,4.74,10.85,10.63
			H337.51z M359,283.83c-1.09,4.88-4.66,7.36-9.76,7.36c-8.23,0-11.94-5.83-11.72-12.38h28.19c0.36-9.1-3.72-21.56-17.04-21.56
			c-10.27,0-17.7,8.3-17.7,19.59c0.37,11.51,6.04,19.81,18.06,19.81c8.45,0,14.42-4.52,16.1-12.82L359,283.83z M295.89,295.77h6.19
			V274.5c0-6.77,3.64-11.8,11.14-11.8c4.73,0,7.65,2.99,7.65,7.58v25.49h6.19v-24.76c0-8.09-3.06-13.77-12.96-13.77
			c-5.39,0-9.61,2.19-12.24,6.85h-0.15v-5.97h-5.83L295.89,295.77z M261.86,276.98c0-9.17,5.24-14.27,11.73-14.27
			c6.48,0,11.72,5.1,11.72,14.27c0,9.1-5.24,14.2-11.72,14.2C267.11,291.18,261.86,286.08,261.86,276.98 M255.31,276.98
			c0,11,6.34,19.66,18.28,19.66c11.94,0,18.28-8.67,18.28-19.66c0-11.07-6.34-19.74-18.28-19.74
			C261.65,257.24,255.31,265.91,255.31,276.98 M180.41,310.19h6.19v-19.45h0.15c2.77,4.44,8.3,5.9,12.16,5.9
			c11.51,0,17.19-8.96,17.19-19.59c0-10.63-5.76-19.81-17.33-19.81c-5.17,0-9.98,1.82-12.01,5.97h-0.15v-5.1h-6.19V310.19z
			 M209.54,276.61c0,7.36-2.84,14.57-11.29,14.57c-8.52,0-11.87-6.85-11.87-14.27c0-7.07,3.2-14.2,11.5-14.2
			C205.9,262.7,209.54,269.55,209.54,276.61 M157.08,295.77h6.19v-16.75c0-9.54,3.64-15.22,13.62-15.22v-6.56
			c-6.7-0.22-10.85,2.77-13.84,8.81h-0.15v-7.94h-5.83L157.08,295.77z M111.41,259.43c-1.6-11.07-10.56-16.89-21.41-16.89
			c-16.02,0-24.61,12.31-24.61,27.38c0,15.15,7.86,27.09,24.03,27.09c13.11,0,21.19-7.86,22.5-20.83H105c-0.66,8.59-5.9,15-15,15
			c-12.45,0-17.69-9.91-17.69-21.78c0-10.85,5.24-21.05,17.62-21.05c7.21,0,13.11,3.71,14.57,11.07L111.41,259.43z"/>
		<path id="path262" style="fill:#0A7B92;" d="M151.32,258.12h-6.19v5.1h-0.15c-2.04-4.15-6.85-5.97-12.02-5.97
			c-11.58,0-17.33,9.18-17.33,19.81c0,10.63,5.68,19.59,17.19,19.59c3.86,0,9.4-1.46,12.16-5.9h0.15v5h6.19V258.12z M122.19,276.62
			c0-7.07,3.64-13.91,11.65-13.91c8.3,0,11.51,7.14,11.51,14.2c0,7.43-3.35,14.28-11.87,14.28
			C125.03,291.18,122.19,283.97,122.19,276.62"/>
		<path id="path266" style="fill:#15223A;" d="M230.03,225.53c0.36,9.32,7.5,12.74,15.95,12.74c7.65,0,16.02-2.91,16.02-11.87
			c0-7.28-6.12-9.32-12.31-10.71c-5.75-1.38-12.31-2.11-12.31-6.55c0-3.79,4.3-4.81,8.01-4.81c4.08,0,8.3,1.53,8.74,6.34h6.19
			c-0.51-9.18-7.14-11.8-15.44-11.8c-6.56,0-14.06,3.13-14.06,10.71c0,7.21,6.19,9.25,12.31,10.63c6.19,1.39,12.31,2.19,12.31,6.99
			c0,4.73-5.24,5.61-9.1,5.61c-5.1,0-9.9-1.75-10.12-7.28L230.03,225.53z M195.12,237.4h6.19v-21.27c0-6.77,3.64-11.8,11.14-11.8
			c4.73,0,7.65,2.98,7.65,7.57v25.49h6.19v-24.76c0-8.08-3.06-13.76-12.96-13.76c-5.39,0-9.61,2.19-12.24,6.85h-0.15v-5.97h-5.83
			V237.4z M162.22,218.61c0-9.18,5.24-14.27,11.73-14.27c6.48,0,11.72,5.1,11.72,14.27c0,9.1-5.24,14.2-11.72,14.2
			C167.46,232.81,162.22,227.71,162.22,218.61 M155.67,218.61c0,11,6.34,19.66,18.28,19.66c11.94,0,18.28-8.67,18.28-19.66
			c0-11.07-6.34-19.74-18.28-19.74C162,198.88,155.67,207.54,155.67,218.61 M122.44,237.4h7.5l10.49-15.58l10.49,15.58h7.94
			l-14.57-20.32l12.96-17.33h-7.43l-9.39,13.18l-9.03-13.18h-7.94l13.11,17.84L122.44,237.4z M120.17,185.41h-6.19v7.57h6.19V185.41
			z M113.98,237.4h6.19v-37.65h-6.19V237.4z M73.96,191.23h11.65c12.75,0,17.33,7.5,17.33,19.88c0,19.15-12.74,20.47-17.48,20.47
			H73.96V191.23z M67.04,237.4h17.84c17.33,0,24.98-9.83,24.98-27.24c0-16.75-8.96-24.76-24.98-24.76H67.04L67.04,237.4z"/>
		<path id="path270" style="fill:#0A7B92;" d="M220.07,295.77h6.19V274.5c0-6.77,3.64-11.8,11.14-11.8c4.73,0,7.65,2.98,7.65,7.57
			v25.49h6.19v-24.76c0-8.09-3.06-13.77-12.96-13.77c-4.51,0-9.83,1.89-11.87,6.41h-0.14v-19.88h-6.19L220.07,295.77z"/>
		<path id="path274" style="fill:#0A7B92;" d="M35.16,190.5c4.01,3.7,7.53,7.86,10.53,12.42c0.57-0.29,1.15-0.56,1.73-0.82v-17
			C43.13,186.41,39.03,188.22,35.16,190.5"/>
		<path id="path278" style="fill:#15223A;" d="M6.66,278.81v17.01c4.25-1.31,8.32-3.09,12.16-5.35c-4.01-3.7-7.55-7.86-10.55-12.42
			C7.74,278.32,7.2,278.57,6.66,278.81"/>
		<path id="path282" style="fill:#15223A;" d="M31.43,240.14l0.08,1.5c0.26,8.86,4.02,17.12,10.41,23.09
			c3.58-7.63,5.46-16.03,5.46-24.51c0-25.58-16.57-47.77-40.71-55.14v17.01C21.75,208.77,31.4,223.5,31.43,240.14"/>
		<path id="path286" style="fill:#0A7B92;" d="M12.16,216.2c-3.58,7.62-5.46,16.03-5.46,24.51c0,17.64,7.92,34.08,21.73,45.11
			l0.3,0.24c5.63,4.43,11.91,7.72,18.68,9.79v-17.01c-2.79-1.24-5.43-2.79-7.87-4.6c-10.55-7.82-16.86-20.31-16.9-33.42l-0.06-0.34
			v-0.26C22.59,230.98,18.82,222.4,12.16,216.2"/>
	</g>
</g>
</svg>
