<?xml version="1.0" encoding="utf-8"?>
<svg version="1.1" id="Layer_1" xmlns="http://www.w3.org/2000/svg" xmlns:xlink="http://www.w3.org/1999/xlink" x="0px" y="0px"
	width="100px" height="100px" viewBox="0 0 72.2 72.2" style="enable-background:new 0 0 72.2 72.2;" xml:space="preserve">
<g>
	<circle style="fill:#E8E8E8;" cx="36.1" cy="36.1" r="36.1"/>
	<circle style="fill:#FFFFFF;" cx="36.1" cy="36.1" r="35.4"/>
	<path style="fill:#B68B6A;" d="M11.6,34.3c0.3,0,0.5-0.1,0.7-0.1c0.2-0.1,0.4-0.3,0.6-0.5l0.9,0.9c-0.3,0.4-0.6,0.6-1,0.8
		c-0.4,0.2-0.9,0.3-1.3,0.3s-0.8-0.1-1.2-0.2c-0.4-0.1-0.6-0.4-0.9-0.6c-1.2-1.1-1.2-2.9-0.1-4l0.1-0.1c0.3-0.3,0.6-0.4,0.9-0.6
		c0.4-0.1,0.8-0.2,1.2-0.2c0.2,0,0.4,0,0.6,0.1l0.6,0.2c0.2,0.1,0.4,0.2,0.6,0.4l0.4,0.4L12.8,32c-0.2-0.2-0.4-0.4-0.6-0.6
		c-0.2-0.1-0.5-0.1-0.8-0.1c-0.2,0-0.4,0-0.6,0.1c-0.4,0.1-0.6,0.4-0.8,0.9c-0.1,0.2-0.1,0.4-0.1,0.6c0,0.2,0,0.4,0.1,0.6
		c0.1,0.2,0.2,0.4,0.4,0.5c0.1,0.1,0.3,0.3,0.5,0.4C11.2,34.3,11.4,34.3,11.6,34.3C11.6,34.3,11.6,34.3,11.6,34.3z M13.9,35.5
		l2.2-5.4h1.6l2.2,5.4h-1.4L18,34.2h-2.2l-0.5,1.3C15.4,35.5,13.9,35.5,13.9,35.5z M16.2,33.1h1.4L17,31.4L16.2,33.1z M20.4,35.5
		v-5.4h2.9c0.3,0,0.5,0,0.7,0.1c0.4,0.1,0.8,0.5,1,0.9c0.1,0.2,0.1,0.4,0.1,0.7c0,0.2-0.1,0.5-0.1,0.7s-0.2,0.4-0.4,0.6
		s-0.4,0.3-0.6,0.4c-0.2,0.1-0.5,0.1-0.7,0.1h-1.6v1.9H20.4L20.4,35.5z M23.1,31.1h-1.4v1.3h1.4c0.1,0,0.4-0.1,0.5-0.1
		c0.1-0.1,0.2-0.3,0.2-0.4c0-0.2-0.1-0.4-0.2-0.5C23.4,31.2,23.3,31.1,23.1,31.1C23.1,31.1,23.1,31.1,23.1,31.1z M25.8,35.5v-5.4h3
		c0.3,0,0.5,0,0.7,0.1c0.4,0.1,0.8,0.5,1,0.9c0.1,0.2,0.1,0.4,0.1,0.7c0,0.2-0.1,0.5-0.1,0.7s-0.2,0.4-0.4,0.6s-0.4,0.3-0.6,0.4
		c-0.2,0.1-0.5,0.1-0.7,0.1h-1.5v1.9H25.8L25.8,35.5z M28.6,31.1h-1.4v1.3h1.4c0.1,0,0.4-0.1,0.5-0.1c0.1-0.1,0.2-0.3,0.2-0.4
		C29.3,31.4,29,31.1,28.6,31.1C28.6,31.1,28.6,31.1,28.6,31.1z M29.9,35.5l2.2-5.5h1.6l2.2,5.4h-1.4l-0.5-1.3h-2.2l-0.5,1.3
		L29.9,35.5L29.9,35.5z M32.3,33.1h1.4L33,31.4C32.9,31.4,32.3,33.1,32.3,33.1z M36.3,35.5V30h2.3c0.4,0,0.8,0.1,1.2,0.2
		c0.4,0.1,0.6,0.3,0.9,0.6c0.3,0.2,0.5,0.6,0.6,0.9c0.1,0.4,0.2,0.7,0.2,1.1c0,0.4-0.1,0.7-0.2,1.1c-0.1,0.4-0.4,0.6-0.6,0.9
		c-0.3,0.2-0.6,0.4-0.9,0.6c-0.4,0.1-0.7,0.2-1.2,0.2L36.3,35.5C36.3,35.5,36.3,35.5,36.3,35.5z M38.5,31.2h-0.9v3h0.9
		c0.2,0,0.4,0,0.6-0.1c0.4-0.1,0.6-0.4,0.8-0.8C40,33.2,40,33,40,32.8c0-0.2,0-0.4-0.1-0.6c-0.1-0.2-0.2-0.4-0.4-0.5
		c-0.1-0.1-0.3-0.2-0.5-0.3C39,31.2,38.7,31.2,38.5,31.2z M47.9,32.8c0,0.4-0.1,0.7-0.2,1.2c-0.1,0.3-0.4,0.6-0.6,0.9
		c-0.3,0.3-0.6,0.4-0.9,0.6c-0.7,0.3-1.6,0.3-2.3,0c-0.4-0.1-0.6-0.4-0.9-0.6c-0.3-0.3-0.5-0.6-0.6-0.9c-0.3-0.7-0.3-1.5,0-2.2
		c0.1-0.4,0.4-0.6,0.6-0.9s0.6-0.4,0.9-0.6c0.7-0.3,1.6-0.3,2.3,0c0.4,0.1,0.6,0.4,0.9,0.6s0.5,0.6,0.6,0.9
		C47.8,32,47.9,32.4,47.9,32.8z M46.5,32.8c0-0.2-0.1-0.4-0.1-0.6c-0.1-0.4-0.4-0.6-0.8-0.9c-0.2-0.1-0.4-0.1-0.6-0.1
		c-0.4,0-0.8,0.1-1.1,0.4c-0.1,0.1-0.2,0.3-0.3,0.5c-0.1,0.4-0.1,0.9,0,1.3c0.2,0.6,0.8,0.9,1.4,0.9c0.6,0,1.2-0.4,1.4-0.9
		C46.5,33.2,46.5,33,46.5,32.8z M51.4,34.3c0.3,0,0.5-0.1,0.7-0.1c0.2-0.1,0.4-0.3,0.6-0.5l0.9,0.9c-0.3,0.4-0.6,0.6-1,0.8
		c-0.4,0.2-0.9,0.3-1.3,0.3s-0.8-0.1-1.2-0.2c-0.4-0.1-0.6-0.4-0.9-0.6c-1.2-1.1-1.2-2.9-0.1-4l0.1-0.1c0.3-0.3,0.6-0.4,0.9-0.6
		c0.4-0.1,0.8-0.2,1.2-0.2c0.2,0,0.4,0,0.6,0.1l0.6,0.2c0.2,0.1,0.4,0.2,0.6,0.4l0.4,0.4L52.7,32c-0.2-0.2-0.4-0.4-0.6-0.6
		c-0.2-0.1-0.5-0.2-0.8-0.2c-0.2,0-0.4,0-0.6,0.1c-0.4,0.1-0.6,0.4-0.8,0.9c-0.1,0.2-0.1,0.4-0.1,0.6c0,0.2,0,0.4,0.1,0.6
		c0.1,0.2,0.2,0.4,0.4,0.5c0.1,0.1,0.3,0.3,0.5,0.4C50.7,34.3,51.4,34.3,51.4,34.3z M54.3,35.5v-5.4h1.4v5.4H54.3z M56,35.5l2.2-5.4
		h1.6l2.2,5.4h-1.4l-0.5-1.3h-2.2l-0.5,1.3H56z M58.3,33.1h1.4L59,31.4L58.3,33.1z"/>
	<path style="fill:#3D877C;" d="M39.6,39c0,0.3,0,0.6-0.1,0.8c-0.1,0.2-0.2,0.4-0.4,0.6c-0.1,0.1-0.4,0.3-0.6,0.4s-0.5,0.1-0.8,0.1
		s-0.6-0.1-0.8-0.1c-0.2-0.1-0.4-0.2-0.6-0.4c-0.2-0.1-0.4-0.4-0.4-0.6c-0.2-0.5-0.2-1.1,0-1.6c0.1-0.2,0.2-0.4,0.4-0.6
		c0.4-0.4,0.9-0.6,1.4-0.6c0.3,0,0.6,0.1,0.9,0.2c0.3,0.1,0.5,0.3,0.7,0.6l-0.6,0.6c-0.1-0.1-0.3-0.3-0.4-0.4
		c-0.1-0.1-0.4-0.1-0.5-0.1s-0.3,0-0.4,0.1c-0.1,0.1-0.2,0.1-0.4,0.2c-0.1,0.1-0.1,0.2-0.2,0.4s-0.1,0.3-0.1,0.4
		c0,0.3,0.1,0.6,0.3,0.8c0.1,0.1,0.2,0.1,0.4,0.2s0.3,0.1,0.4,0.1c0.2,0,0.4-0.1,0.6-0.1c0.1-0.1,0.3-0.2,0.4-0.4h-1v-0.8h1.9V39
		L39.6,39z M40,39.5c0-0.2,0.1-0.4,0.1-0.6c0.1-0.2,0.2-0.4,0.4-0.5c0.6-0.6,1.6-0.6,2.2,0c0.1,0.1,0.3,0.3,0.4,0.5
		c0.1,0.4,0.1,0.8,0,1.2c-0.1,0.2-0.2,0.4-0.4,0.5c-0.1,0.1-0.3,0.2-0.5,0.3c-0.4,0.1-0.9,0.1-1.2,0c-0.2-0.1-0.4-0.1-0.5-0.3
		c-0.1-0.1-0.3-0.3-0.4-0.5C40,40,40,39.8,40,39.5z M41.6,40.3c0.2,0,0.4-0.1,0.5-0.2c0.1-0.1,0.2-0.3,0.2-0.5
		c0-0.2-0.1-0.4-0.2-0.5c-0.3-0.3-0.7-0.3-1,0l0,0c-0.1,0.1-0.2,0.3-0.2,0.5c0,0.2,0.1,0.4,0.2,0.5C41.2,40.3,41.3,40.3,41.6,40.3
		C41.6,40.3,41.6,40.3,41.6,40.3z M43.4,38v-0.8h3.5V38h-1.3v3.1h-0.9v-3L43.4,38L43.4,38z M47.8,38.1v1.7c0,0.3,0.2,0.5,0.5,0.5
		c0,0,0,0,0,0h0.1c0.1,0,0.2,0,0.3-0.1c0.1,0,0.2-0.1,0.2-0.1v-2h0.9v3h-0.9v-0.2c-0.1,0.1-0.2,0.1-0.4,0.2
		c-0.1,0.1-0.2,0.1-0.4,0.1c-0.3,0-0.6-0.1-0.8-0.4c-0.2-0.2-0.3-0.5-0.3-0.9V38L47.8,38.1L47.8,38.1z M47.8,37.7
		c-0.1,0-0.2-0.1-0.4-0.1c-0.1-0.1-0.1-0.4,0-0.6c0.1-0.1,0.2-0.1,0.4-0.1s0.2,0.1,0.4,0.1c0.1,0.1,0.1,0.2,0.1,0.3
		c0,0.1-0.1,0.2-0.1,0.3C48,37.7,47.9,37.7,47.8,37.7z M49.1,37.7c-0.1,0-0.2-0.1-0.4-0.1c-0.1-0.1-0.1-0.4,0-0.6
		c0.1-0.1,0.2-0.1,0.4-0.1s0.2,0.1,0.4,0.1c0.1,0.1,0.1,0.2,0.1,0.3c0,0.1-0.1,0.2-0.1,0.3C49.4,37.7,49.2,37.7,49.1,37.7
		C49.1,37.7,49.1,37.7,49.1,37.7z M50.4,41.1v-3h0.9v0.3c0.1-0.1,0.2-0.2,0.4-0.3c0.1-0.1,0.3-0.1,0.4-0.1h0.2c0.1,0,0.1,0,0.1,0.1
		v0.8c0,0-0.1-0.1-0.1-0.1h-0.2c-0.1,0-0.3,0-0.4,0.1c-0.1,0.1-0.1,0.1-0.3,0.3v1.9L50.4,41.1L50.4,41.1z M52.8,41.1v-3.8l0.8-0.2
		v2.3l1.2-1.2h1l-1.3,1.3l1.4,1.6h-1.1l-1.2-1.3v1.4L52.8,41.1L52.8,41.1L52.8,41.1z M56.5,37.8c-0.3,0-0.5-0.2-0.5-0.5
		c0-0.3,0.2-0.5,0.5-0.5c0.1,0,0.2,0.1,0.4,0.1c0.2,0.2,0.2,0.5,0,0.7C56.8,37.8,56.6,37.9,56.5,37.8z M56.9,38.1v3H56v-3L56.9,38.1
		L56.9,38.1z M58.3,41.1L58.3,41.1l-1.2-3h1l0.6,1.8l0.7-1.8h0.9l-1.3,3.1c-0.1,0.3-0.3,0.6-0.6,0.8c-0.2,0.1-0.6,0.2-0.9,0.2h-0.2
		h-0.2v-0.7c0.1,0,0.1,0.1,0.1,0.1h0.1c0.1,0,0.2-0.1,0.4-0.1C58.2,41.3,58.3,41.2,58.3,41.1z M63.3,40.6c-0.1,0.1-0.4,0.3-0.6,0.4
		c-0.2,0.1-0.4,0.1-0.6,0.1s-0.4,0-0.6-0.1c-0.2-0.1-0.4-0.1-0.5-0.3s-0.3-0.3-0.4-0.5c-0.1-0.2-0.1-0.4-0.1-0.6
		c0-0.2,0-0.4,0.1-0.6c0.1-0.1,0.2-0.4,0.3-0.5c0.1-0.1,0.3-0.2,0.5-0.3c0.2-0.1,0.4-0.1,0.6-0.1c0.4,0,0.8,0.1,1.1,0.4
		c0.1,0.1,0.2,0.3,0.3,0.5c0.1,0.2,0.1,0.4,0.1,0.6v0.1h-2.1c0.1,0.2,0.1,0.3,0.3,0.4c0.1,0.1,0.3,0.1,0.4,0.1s0.2,0,0.4-0.1
		c0.1,0,0.1-0.1,0.2-0.1L63.3,40.6z M62,38.8c-0.1,0-0.3,0.1-0.4,0.1c-0.1,0.1-0.1,0.2-0.2,0.4h1.2c-0.1-0.1-0.1-0.3-0.2-0.4
		C62.3,38.8,62.2,38.8,62,38.8z"/>
</g>
</svg>
