<?xml version="1.0" encoding="utf-8"?>
<svg version="1.1" id="Layer_1" xmlns="http://www.w3.org/2000/svg" xmlns:xlink="http://www.w3.org/1999/xlink" x="0px" y="0px"
	width="100px" height="100px" viewBox="0 0 72.2 72.2" style="enable-background:new 0 0 72.2 72.2;" xml:space="preserve">
<g>
	<circle style="fill:#E8E8E8;" cx="36.1" cy="36.1" r="36.1"/>
	<circle style="fill:#FFFFFF;" cx="36.1" cy="36.1" r="35.4"/>
	<path vector-effect="non-scaling-stroke" style="fill:#010101;" d="M12.8,34.3v5.9H12v-2.7h-3v2.7H8.3v-5.9h0.8v2.6h3v-2.6H12.8
		L12.8,34.3z M19.2,37v0.4l0,0c0,0.6-0.1,1.1-0.3,1.5l0,0l0,0c-0.2,0.4-0.5,0.7-0.8,1l0,0l0,0c-0.4,0.2-0.8,0.4-1.2,0.4l0,0l0,0
		c-0.4,0-0.9-0.1-1.2-0.4l0,0l0,0c-0.4-0.2-0.6-0.6-0.9-0.9l0,0l0,0c-0.2-0.4-0.3-0.9-0.3-1.4l0,0v-0.4l0,0c0-0.6,0.1-1.1,0.3-1.5
		l0,0l0,0c0.2-0.4,0.5-0.7,0.9-1l0,0l0,0c0.4-0.2,0.8-0.4,1.2-0.4l0,0l0,0c0.5,0,0.9,0.1,1.2,0.4l0,0l0,0c0.4,0.2,0.6,0.6,0.8,1l0,0
		l0,0C19.1,36,19.2,36.5,19.2,37L19.2,37L19.2,37z M18.3,37.4V37l0,0c0-0.7-0.1-1.2-0.4-1.6l0,0l0,0c-0.3-0.4-0.6-0.6-1.2-0.6l0,0
		l0,0c-0.5,0-0.9,0.2-1.2,0.6l0,0l0,0c-0.3,0.4-0.4,0.9-0.4,1.5l0,0v0.4l0,0c0,0.6,0.1,1.2,0.4,1.6l0,0l0,0c0.3,0.4,0.6,0.6,1.2,0.6
		l0,0l0,0c0.5,0,0.9-0.1,1.2-0.6l0,0l0,0C18.3,38.7,18.3,38.1,18.3,37.4L18.3,37.4L18.3,37.4z M24.2,40.1l-1.3-2.4h-1.4v2.4h-0.8
		v-5.9h2l0,0c0.6,0,1.2,0.1,1.5,0.4l0,0l0,0c0.4,0.3,0.5,0.7,0.5,1.3l0,0l0,0c0,0.4-0.1,0.6-0.3,0.9l0,0l0,0
		c-0.2,0.3-0.4,0.5-0.8,0.6l0,0l1.4,2.5V40L24.2,40.1C24.2,40.1,24.2,40.1,24.2,40.1z M21.5,34.9v2.2h1.2l0,0c0.4,0,0.6-0.1,0.9-0.3
		l0,0l0,0c0.2-0.2,0.4-0.4,0.4-0.8l0,0l0,0c0-0.4-0.1-0.6-0.3-0.8l0,0l0,0c-0.2-0.2-0.5-0.3-0.9-0.3l0,0H21.5L21.5,34.9
		C21.5,35,21.5,34.9,21.5,34.9z M30,34.3v0.6h-1.9v5.2h-0.8v-5.2h-1.9v-0.7L30,34.3L30,34.3C30,34.3,30,34.3,30,34.3z M35.6,37v0.4
		l0,0c0,0.6-0.1,1.1-0.3,1.5l0,0l0,0c-0.2,0.4-0.4,0.7-0.8,1l0,0l0,0c-0.4,0.2-0.8,0.4-1.2,0.4l0,0l0,0c-0.4,0-0.9-0.1-1.2-0.4l0,0
		l0,0c-0.4-0.2-0.6-0.6-0.9-0.9l0,0l0,0C31,38.5,31,38.1,31,37.5l0,0v-0.4l0,0c0-0.6,0.1-1.1,0.3-1.5l0,0l0,0c0.2-0.4,0.5-0.7,0.9-1
		l0,0l0,0c0.4-0.2,0.8-0.4,1.2-0.4l0,0l0,0c0.5,0,0.9,0.1,1.2,0.4l0,0l0,0c0.4,0.2,0.6,0.6,0.8,1l0,0l0,0C35.6,36,35.7,36.5,35.6,37
		L35.6,37L35.6,37L35.6,37z M35,37.4V37l0,0c0-0.7-0.1-1.2-0.4-1.6l0,0l0,0c-0.3-0.4-0.6-0.6-1.2-0.6l0,0l0,0
		c-0.5,0-0.9,0.2-1.2,0.6l0,0l0,0c-0.3,0.4-0.4,0.9-0.4,1.5l0,0v0.4l0,0c0,0.6,0.1,1.2,0.4,1.6l0,0l0,0c0.3,0.4,0.6,0.6,1.2,0.6l0,0
		l0,0c0.5,0,0.9-0.1,1.2-0.6l0,0l0,0C34.8,38.7,34.9,38.1,35,37.4L35,37.4L35,37.4C34.9,37.4,35,37.4,35,37.4z M38,34.3v5.3h2.8v0.6
		h-3.5v-5.9L38,34.3C38,34.3,38,34.3,38,34.3z M46.4,37v0.4l0,0c0,0.6-0.1,1.1-0.3,1.5l0,0l0,0c-0.2,0.4-0.4,0.7-0.8,1l0,0l0,0
		c-0.4,0.2-0.8,0.4-1.2,0.4l0,0l0,0c-0.4,0-0.9-0.1-1.2-0.4l0,0l0,0c-0.4-0.2-0.6-0.6-0.9-0.9l0,0l0,0c-0.2-0.4-0.3-0.9-0.3-1.4l0,0
		v-0.4l0,0c0-0.6,0.1-1.1,0.3-1.5l0,0l0,0c0.2-0.4,0.5-0.7,0.9-1l0,0l0,0c0.4-0.2,0.8-0.4,1.2-0.4l0,0l0,0c0.5,0,0.9,0.1,1.2,0.4
		l0,0l0,0c0.4,0.2,0.6,0.6,0.8,1l0,0l0,0C46.3,35.9,46.4,36.4,46.4,37L46.4,37L46.4,37L46.4,37z M45.6,37.4V37l0,0
		c0-0.7-0.1-1.2-0.4-1.6l0,0l0,0c-0.3-0.4-0.6-0.6-1.2-0.6l0,0l0,0c-0.5,0-0.9,0.2-1.2,0.6l0,0l0,0c-0.3,0.4-0.4,0.9-0.4,1.5l0,0
		v0.4l0,0c0,0.6,0.1,1.2,0.4,1.6l0,0l0,0c0.3,0.4,0.6,0.6,1.2,0.6l0,0l0,0c0.5,0,0.9-0.1,1.2-0.6l0,0l0,0
		C45.5,38.7,45.6,38.1,45.6,37.4L45.6,37.4L45.6,37.4z M52.3,37.2v2.2l0,0c0,0.3-0.4,0.5-0.8,0.6l0,0l0,0c-0.4,0.1-0.8,0.2-1.2,0.2
		l0,0l0,0c-0.5,0-0.9-0.1-1.2-0.4l0,0l0,0c-0.4-0.2-0.6-0.6-0.9-0.9l0,0l0,0c-0.2-0.4-0.3-0.9-0.3-1.4l0,0V37l0,0
		c0-0.9,0.2-1.6,0.6-2l0,0l0,0c0.4-0.5,1-0.7,1.7-0.7l0,0l0,0c0.6,0,1.1,0.1,1.4,0.5l0,0l0,0c0.4,0.3,0.6,0.7,0.6,1.4l0,0h-0.8l0,0
		c-0.1,0-0.6-1.2-1.4-1.2l0,0l0,0c-0.5,0-0.9,0.1-1.2,0.5l0,0l0,0c-0.3,0.4-0.4,0.9-0.4,1.6l0,0v0.5l0,0c0,0.6,0.1,1.2,0.5,1.6l0,0
		l0,0c0.3,0.4,0.7,0.6,1.2,0.6l0,0l0,0c0.3,0,0.6,0,0.8-0.1l0,0l0,0c0.2-0.1,0.4-0.1,0.6-0.3l0,0V38h-1.4v-0.6L52.3,37.2L52.3,37.2
		L52.3,37.2z M54.3,34.3l1.5,3l1.5-3h0.9l-2,3.7v2.2h-0.7V38l-2.1-3.7H54.3L54.3,34.3L54.3,34.3z M59.4,34c0,0.3,0.1,1.3,1.4,1.4
		c0-0.1,0.1-0.5,0.3-0.9l-0.1-0.1C60.2,33.8,59.6,33.9,59.4,34C59.4,34,59.4,34,59.4,34z M61.5,35.8L61.5,35.8L61.5,35.8
		c0.1-0.1,0.1-0.2,0-0.4C61.4,35.5,61.3,35.7,61.5,35.8C61.4,35.8,61.4,35.8,61.5,35.8L61.5,35.8L61.5,35.8z M61.4,36.1
		c-0.1,0-0.2-0.1-0.2-0.1c-0.1-0.2,0-0.6,0.1-0.9c-0.1-0.1-0.1-0.2-0.1-0.3c-0.2,0.4-0.3,0.8-0.3,0.8c0,0.1-0.1,0.1-0.1,0.1
		c-0.6,0-1-0.2-1.2-0.6c-0.4-0.5-0.4-1.2-0.4-1.3c0-0.1,0-0.1,0.1-0.1c0,0,1-0.3,1.8,0.4c0.1,0,0.1,0.1,0.1,0.1
		c0-0.1,0.1-0.1,0.1-0.1c0.2-0.2,0.4-0.5,0.8-0.6c0-0.2-0.1-0.9-0.6-1.3c-0.2,0.1-0.6,0.5-0.6,1.4c0,0.1-0.1,0.1-0.1,0.1l0,0
		c-0.1,0-0.1-0.1-0.1-0.1c0-1.2,0.9-1.7,0.9-1.7h0.1c0.7,0.6,0.7,1.6,0.7,1.6c0,0.1,0,0.1-0.1,0.1c-0.4,0.1-0.7,0.4-0.9,0.8l0.1,0.2
		c0.1-0.2,0.3-0.4,0.4-0.6c0.9-0.7,1.8-0.4,1.8-0.4c0.1,0,0.1,0.1,0.1,0.1c0,0-0.1,1.8-1.6,1.9c-0.1,0-0.1-0.1-0.1-0.1
		s-0.1-0.8,0.8-1.3h0.1v0.1c-0.5,0.4-0.6,0.8-0.6,1c1-0.1,1.2-1.2,1.2-1.6c-0.2,0-0.9-0.1-1.5,0.4c-0.2,0.1-0.4,0.4-0.4,0.6
		c0.1,0.4,0.2,0.7,0.1,0.9C61.7,36,61.5,36.1,61.4,36.1L61.4,36.1L61.4,36.1L61.4,36.1L61.4,36.1L61.4,36.1z"/>
</g>
</svg>
