<?xml version="1.0" encoding="utf-8"?>
<svg version="1.1" id="Layer_1" xmlns="http://www.w3.org/2000/svg" xmlns:xlink="http://www.w3.org/1999/xlink" x="0px" y="0px"
	width="100px" height="100px" viewBox="0 0 100 100" style="enable-background:new 0 0 100 100;" xml:space="preserve">
<g>
	<g>
		<path style="fill:#E8E8E8;" d="M50,0c27.61,0,50,22.39,50,50s-22.39,50-50,50S0,77.61,0,50S22.39,0,50,0"/>
		<path style="fill:#FFFFFF;" d="M50,1c27.06,0,49,21.94,49,49S77.06,99,50,99S1,77.06,1,50S22.94,1,50,1"/>
	</g>
	<g>
		<g>
			<defs>
				<rect id="SVGID_3_" x="11.5" y="40.69" width="77" height="18.61"/>
			</defs>
			<clipPath id="SVGID_1_">
				<use xlink:href="#SVGID_3_"  style="overflow:visible;"/>
			</clipPath>
			<g style="clip-path:url(#SVGID_1_);">
				<path style="fill:#272A2B;" d="M88.5,59.31h-77V40.69h77V59.31z"/>
			</g>
		</g>
		<g>
			<g>
				<path style="fill:#8DBC3B;" d="M17.3,46.13h1.8l0.62,5.41h0.02l0.56-5.41h1.71l0.53,5.41h0.02l0.63-5.41h1.76l-1.33,7.62h-1.95
					l-0.51-4.69h-0.02l-0.58,4.69H18.6L17.3,46.13z"/>
			</g>
			<g>
				<path style="fill:#8DBC3B;" d="M25.49,46.13h3.9v1.47h-2.14v1.52h1.88v1.47h-1.88v1.7h2.23v1.47h-3.98V46.13z"/>
			</g>
			<g>
				<path style="fill:#8DBC3B;" d="M30.25,46.13h1.75v6.15h1.91v1.47h-3.66L30.25,46.13z"/>
			</g>
			<g>
				<path style="fill:#8DBC3B;" d="M34.49,48.21c0-1.49,0.95-2.2,2.26-2.2c1.31,0,2.26,0.71,2.26,2.2v0.71h-1.75v-0.86
					c0-0.26,0-0.7-0.51-0.7c-0.51,0-0.51,0.44-0.51,0.7v3.76c0,0.2,0,0.7,0.51,0.7c0.51,0,0.51-0.5,0.51-0.7V50.7H39v0.96
					c0,1.35-0.87,2.2-2.26,2.2c-1.39,0-2.26-0.85-2.26-2.2V48.21z"/>
			</g>
			<g>
				<path style="fill:#8DBC3B;" d="M41.54,51.82c0,0.2,0,0.7,0.51,0.7c0.51,0,0.51-0.5,0.51-0.7v-3.76c0-0.26,0-0.7-0.51-0.7
					c-0.51,0-0.51,0.44-0.51,0.7V51.82z M39.79,48.21c0-1.49,0.95-2.2,2.26-2.2s2.26,0.71,2.26,2.2v3.46c0,1.35-0.87,2.2-2.26,2.2
					c-1.39,0-2.26-0.85-2.26-2.2V48.21z"/>
			</g>
			<g>
				<path style="fill:#8DBC3B;" d="M45.13,46.13h2.76l0.5,3.77h0.02l0.5-3.77h2.76v7.62h-1.7v-5.92h-0.02l-0.98,5.92h-1.14
					l-0.98-5.92h-0.02v5.92h-1.7V46.13z"/>
			</g>
			<g>
				<path style="fill:#8DBC3B;" d="M52.5,46.13h3.9v1.47h-2.14v1.52h1.88v1.47h-1.88v1.7h2.23v1.47H52.5L52.5,46.13z"/>
			</g>
			<g>
				<path style="fill:#FFFFFF;" d="M59.02,52.45h0.36c0.58,0,0.65-0.29,0.65-1.04c0-0.52-0.07-1.03-0.61-1.03h-0.4L59.02,52.45z
					 M59.02,49.14h0.32c0.55,0,0.61-0.41,0.61-0.89c0-0.53-0.11-0.83-0.54-0.83h-0.39L59.02,49.14z M57.27,46.13h2.43
					c1.28,0,1.9,0.49,1.9,1.79c0,0.8-0.11,1.51-0.96,1.79v0.02c0.86,0.15,1.15,0.79,1.15,1.75c0,1.28-0.47,2.26-2.03,2.26h-2.49
					V46.13z"/>
			</g>
			<g>
				<path style="fill:#FFFFFF;" d="M64.32,49.16h0.43c0.6,0,0.6-0.4,0.6-0.9c0-0.53,0-0.84-0.69-0.84h-0.34V49.16z M62.57,46.13
					h2.32c1.56,0,2.22,0.47,2.22,1.84c0,0.9-0.12,1.48-1.06,1.76v0.02c0.62,0.12,1.02,0.57,1.02,1.21v1.34
					c0,0.51-0.02,1.19,0.18,1.44h-1.73c-0.2-0.25-0.2-0.93-0.2-1.44v-1.22c0-0.44-0.17-0.63-0.67-0.63h-0.32v3.29h-1.75V46.13z"/>
			</g>
			<g>
				<path style="fill:#FFFFFF;" d="M67.87,46.13h3.9v1.47h-2.14v1.52h1.88v1.47h-1.88v1.7h2.23v1.47h-3.98V46.13z"/>
			</g>
			<g>
				<path style="fill:#FFFFFF;" d="M74.43,51.04h0.88l-0.41-3.73h-0.02L74.43,51.04z M73.72,46.13h2.33l1.43,7.62h-1.84l-0.16-1.35
					h-1.23l-0.18,1.35h-1.75L73.72,46.13z"/>
			</g>
			<g>
				<path style="fill:#FFFFFF;" d="M77.93,46.13h1.7v3.12h0.03l1.16-3.12h1.86l-1.46,3.15l1.47,4.46h-1.87l-0.78-2.73l-0.41,0.63
					v2.1h-1.7V46.13z"/>
			</g>
		</g>
	</g>
</g>
</svg>
