<?xml version="1.0" encoding="utf-8"?>
<svg version="1.1" id="Layer_1" xmlns="http://www.w3.org/2000/svg" xmlns:xlink="http://www.w3.org/1999/xlink" x="0px" y="0px"
	width="100px" height="100px" viewBox="0 0 66.7 66.7" style="enable-background:new 0 0 66.7 66.7;" xml:space="preserve">
<g>
	<circle style="fill:#E8E8E8;" cx="33.3" cy="33.3" r="33.3"/>
	<circle style="fill:#FFFFFF;" cx="33.3" cy="33.3" r="32.7"/>
	<path d="M30.7,21.3c-2.7,0.5-5.3,2.2-7,4.3l-0.9,1.2h-8.7H5.3l0.8,0.8l0.8,0.8h7.5h7.5l-0.1,0.4c-0.1,0.3-0.2,0.7-0.3,1.1l-0.2,0.6
		l-6.1,0.1H9.1l0.8,0.8l0.8,0.8h5.1H21v1.2v1.1h-4h-4l0.8,0.8l0.8,0.8h3.3l3.3,0.1l0.2,0.6c0.1,0.3,0.3,0.8,0.3,1.1l0.1,0.4h-2.6
		h-2.6l0.8,0.8l0.8,0.8h2.2h2.3l0.9,1.1c2.3,2.8,6,4.6,9.6,4.6c3.6,0,7.4-1.8,9.6-4.6l0.9-1.1h2.2h2.2l0.8-0.8l0.8-0.8h-2.5h-2.6
		l0.1-0.4c0.1-0.2,0.2-0.7,0.3-1.1l0.2-0.6l3.3-0.1h3.3l0.8-0.8l0.8-0.8h-4.1h-4v-1.1v-1.1h5.1h5.1l0.8-0.8l0.8-0.8h-6.1l-6.1-0.1
		L45.1,30c-0.1-0.3-0.3-0.8-0.3-1.1l-0.1-0.4h7.5h7.5l0.8-0.8l0.8-0.8h-8.7h-8.7l-0.9-1.2C40.1,22,35.3,20.3,30.7,21.3L30.7,21.3
		L30.7,21.3z M35.9,23.1c3.6,0.9,6.7,4,7.7,7.6c0.4,1.5,0.4,3.8,0,5.2c-0.7,2.7-2.8,5.4-5.3,6.7c-4.1,2.2-9.1,1.5-12.4-1.9
		c-4.1-4.1-4.1-10.7-0.1-14.8c0,0,0,0,0.1-0.1c1.3-1.3,3.2-2.4,4.8-2.8C32.1,22.7,34.5,22.7,35.9,23.1z M24.9,33.3v2.7h0.5h0.5v-1.9
		c0-1,0.1-1.8,0.1-1.7c0.1,0.1,0.4,0.9,0.7,1.8c0.5,1.7,0.5,1.7,1.2,1.7l0.6,0.1l0.6-1.9l0.7-1.9v1.9v2h0.5h0.6v-2.8v-2.7l-0.9,0.1
		h-0.7l-0.7,2.1c-0.7,2.4-0.7,2.4-1.5-0.5l-0.5-1.7h-0.9h-0.9L24.9,33.3C24.9,33.3,24.9,33.3,24.9,33.3z M32.3,33.3v2.7h0.5h0.5
		v-2.7v-2.7h-0.5h-0.5V33.3z M34.7,33.3v2.8h0.5h0.5l0.1-2l0.1-1.9l1.1,1.9l1.1,2h0.7h0.7v-2.7v-2.7h-0.5h-0.5l-0.1,1.9l-0.1,1.9
		l-1-1.9l-1-1.8l-0.8-0.1l-0.7-0.1L34.7,33.3C34.7,33.3,34.7,33.3,34.7,33.3z M40.7,33.3v2.7h0.6h0.6v-2.7v-2.7h-0.6h-0.6V33.3z"/>
</g>
</svg>
