<?xml version="1.0" encoding="utf-8"?>
<svg version="1.1" id="Layer_1" xmlns="http://www.w3.org/2000/svg" xmlns:xlink="http://www.w3.org/1999/xlink" x="0px" y="0px"
	width="100px" height="100px" viewBox="0 0 586.37 162.26" style="enable-background:new 0 0 586.37 162.26;" xml:space="preserve">
<g>
	<path style="fill:#005DAA;" d="M199.58,121.93l1.5,23.68h0.38c0.75-2.51,1.7-4.95,2.84-7.31l8.18-16.36h13.29l2.04,23.68h0.38
		c0.67-2.39,1.51-4.73,2.53-6.99l7.97-16.68h17.99l-24.33,39.67h-15.18l-1.33-21.57h-0.56c-0.5,2.06-1.19,4.07-2.04,6l-7.76,15.57
		h-14.69l-9.14-39.67L199.58,121.93z"/>
	<path style="fill:#005DAA;" d="M255.34,121.93h16.67l-2.54,13.36h10.6l2.55-13.36h16.67l-7.55,39.67h-16.67l2.63-13.78H267.1
		l-2.62,13.78h-16.67L255.34,121.93z"/>
	<path style="fill:#005DAA;" d="M348.12,141.87c-2.42,12.73-15.68,20.36-30.2,20.36s-24.88-7.63-22.49-20.36
		c2.37-12.47,15.79-20.57,30.25-20.57C340.15,121.3,350.49,129.4,348.12,141.87z M312.84,142.08c-0.86,4.53,2.22,7.63,7.45,7.63
		s9.5-3.07,10.36-7.63c0.81-4.2-1.94-7.73-7.43-7.73c-5.49,0-9.57,3.53-10.38,7.76L312.84,142.08z"/>
	<path style="fill:#005DAA;" d="M351.9,121.93h17.31l-5.11,26.94h14.53l-2.42,12.73h-31.84L351.9,121.93z"/>
	<path style="fill:#005DAA;" d="M419.55,147.39l0.77,0.58c2.89,2.26,6.44,3.54,10.11,3.63c1.71,0,4.53-0.58,4.88-2.37
		c0.35-1.79-1.91-1.94-3.44-2.21l-3.37-0.53c-6.56-1.02-11.62-4.31-10.44-10.52c1.79-9.42,13.08-14.67,23.43-14.67
		c5.03-0.14,10.01,1.04,14.44,3.42l-6.6,10.22c-2.8-1.9-6.09-2.94-9.47-3c-1.51,0-3.81,0.47-4.09,2.11
		c-0.28,1.47,1.83,1.68,3.07,1.94l3.77,0.74c7.06,1.37,11.75,4.63,10.47,11.37c-1.8,9.47-13.05,14.15-23.34,14.15
		c-6.06-0.01-12.06-1.24-17.63-3.63L419.55,147.39z"/>
	<path style="fill:#005DAA;" d="M478.99,147.22l-0.68-6.99c-0.15-1.7-0.21-3.41-0.17-5.11h-0.62l-5.46,12.1H478.99z M463.93,161.58
		h-18.29l24.09-39.67h19.14l9.45,39.67h-18.34l-0.64-4.94h-13.08L463.93,161.58z"/>
	<path style="fill:#005DAA;" d="M504.38,121.93h17.3l-5.11,26.94h14.53l-2.42,12.73h-31.84L504.38,121.93z"/>
	<path style="fill:#005DAA;" d="M539.41,121.93h31.98l-2.04,10.84h-14.56l-0.73,3.79h13.29l-1.96,10.31H552.1l-0.75,3.9h15.09
		l-2.04,10.84h-32.52L539.41,121.93z"/>
	<path style="fill:#E31837;" d="M302.41,50.5l22.02-0.82l-18.48,60.88h39.5l18.49-60.88l21.52,0.82l8.77-28.86h-83.05L302.41,50.5z"
		/>
	<path style="fill:#E31837;" d="M220.96,66.31c-5.36,27.73-34.76,44.34-66.96,44.34s-55.18-16.61-49.82-44.34
		c5.25-27.15,35.03-44.79,67.05-44.79S226.25,39.16,220.96,66.31z M142.74,66.77c-1.9,9.86,4.91,16.61,16.53,16.61
		c11.62,0,21.02-6.76,22.96-16.61c1.77-9.17-4.3-16.84-16.48-16.84S144.51,57.6,142.74,66.77L142.74,66.77z"/>
	<path style="fill:#E31837;" d="M208.32,103.83c11.27,5.08,26.54,8.14,40.24,8.14c23.5,0,49.18-10.5,53.29-31.74
		c2.92-15.1-7.78-22.41-23.91-25.49l-8.62-1.69c-2.91-0.59-7.72-1.03-7.08-4.37c0.7-3.66,5.96-4.72,9.42-4.72
		c8.5,0,15.58,2.95,21.64,6.73l15.08-22.77c-9.64-5.31-20.55-7.78-32.98-7.78c-23.6,0.04-49.44,11.83-53.49,32.92
		c-2.69,13.92,8.84,21.35,23.85,23.6l7.7,1.17c3.49,0.59,8.62,0.95,7.83,4.96c-0.78,4.01-7.21,5.31-11.12,5.31
		c-9.08,0-16.88-3.66-23.08-8.14l-1.76-1.3L208.32,103.83z"/>
	<path style="fill:#E31837;" d="M471.14,23.83c-8.39-2.44-17.09-3.67-25.83-3.65c-31.86,0-60.8,20.76-65.84,46.71
		c-4.92,25.37,15.46,45.08,46.5,45.08c7.07,0,21.98-1.03,28.8-3.53l7.6-33.28c-7.33,5.07-15.16,8.24-24.24,8.24
		c-11.82,0-20.61-7.54-18.7-17.34c1.91-9.8,13.02-17.34,24.84-17.34c8.93,0,16.08,4.12,21.48,8.97L471.14,23.83z"/>
	<path style="fill:#E31837;" d="M534.39,20.19c-32.98,0-63.64,18.17-69.05,46.13c-5.52,28.56,18.13,45.66,51.29,45.66
		c33.16,0,63.43-17.11,68.96-45.66C591.01,38.35,567.41,20.19,534.39,20.19z M528.73,49.44c12.54,0,18.8,7.9,16.97,17.34
		c-1.96,10.15-11.68,17.11-23.64,17.11c-11.96,0-18.98-6.96-17.02-17.11C506.87,57.35,516.18,49.44,528.73,49.44L528.73,49.44z"/>
	<path style="fill:#E31837;" d="M114.31,4.36C103.91,1.44,93.16-0.03,82.36,0c-39.43,0-75.31,24.87-81.44,56
		c-6.13,30.43,19.15,54.05,57.51,54.05c8.74,0,27.19-1.27,35.64-4.24l9.39-39.87c-9.06,6.08-18.75,9.91-29.99,9.91
		c-14.63,0-25.49-9.06-23.15-20.81s16.1-20.79,30.73-20.79c11.06,0,19.9,4.95,26.58,10.76L114.31,4.36z"/>
	<path style="fill:#E31837;" d="M561.49,105.92c0.58-3.07,4.02-5.57,7.76-5.57s6.23,2.48,5.64,5.57c-0.58,3.09-4.09,5.59-7.76,5.59
		S560.9,109.03,561.49,105.92z M573.14,105.92c0.47-2.48-1.31-4.09-4.17-4.09s-5.27,1.63-5.74,4.09c-0.47,2.46,1.26,4.09,4.17,4.09
		S572.67,108.37,573.14,105.92z M570.75,108.83h-1.73l-1.09-2.5h-1.12l-0.47,2.47h-1.47l1.1-5.84h3.38c1.49,0,2.31,0.41,2.04,1.79
		c-0.17,0.91-0.96,1.57-1.88,1.57L570.75,108.83z M568.6,105.25c0.74,0,1.37,0,1.49-0.63s-0.53-0.51-1.27-0.51h-1.59l-0.21,1.15
		H568.6z"/>
	<polygon style="fill:#005DAA;" points="3.63,161.67 187.07,161.67 187.06,161.59 186.9,161.59 184.58,151.51 3.63,151.51 	"/>
	<polygon style="fill:#005DAA;" points="3.63,147.24 183.6,147.24 181.26,137.09 3.63,137.09 	"/>
	<polygon style="fill:#005DAA;" points="3.63,132.76 180.21,132.76 179.42,129.06 177.79,122.01 3.63,122.01 	"/>
	<path style="fill:#005DAA;" d="M386.95,121.93h32.02l-2.04,10.84h-14.61l-0.72,3.79h13.29l-1.96,10.31h-13.29l-0.74,3.9h15.05
		l-2.04,10.84h-32.49L386.95,121.93z"/>
</g>
</svg>
