<?xml version="1.0"?>
<svg xmlns="http://www.w3.org/2000/svg" xmlns:xlink="http://www.w3.org/1999/xlink" xmlns:svgjs="http://svgjs.com/svgjs" version="1.1" width="512" height="512" x="0" y="0" viewBox="0 0 512 512" style="enable-background:new 0 0 512 512" xml:space="preserve" class=""><g>
<circle xmlns="http://www.w3.org/2000/svg" style="" cx="256" cy="255.996" r="255.996" fill="#f1f1f1" data-original="#394ce2" class=""/>
<path xmlns="http://www.w3.org/2000/svg" style="" d="M511.869,263.964l-122.121-122.12L256.003,58.253l-133.745,83.591l23.065,23.076v45.886H80.407  v165.092H59.336v24.212l87.491,87.491C179.945,503.241,216.95,512,256.004,512C394.723,512,507.659,401.662,511.869,263.964z" fill="#f1f1f1" data-original="#1b2ddd" class=""/>
<rect xmlns="http://www.w3.org/2000/svg" x="80.407" y="210.805" style="" width="351.196" height="189.301" fill="#d8d8da" data-original="#d8d8da" class=""/>
<rect xmlns="http://www.w3.org/2000/svg" x="256" y="210.805" style="" width="175.603" height="189.301" fill="#c8c6cc" data-original="#c8c6cc" class=""/>
<rect xmlns="http://www.w3.org/2000/svg" x="145.326" y="139.408" style="" width="221.358" height="260.698" fill="#ffffff" data-original="#ffffff" class=""/>
<rect xmlns="http://www.w3.org/2000/svg" x="256" y="139.408" style="" width="110.684" height="260.698" fill="#e1e1e3" data-original="#e1e1e3"/>
<polygon xmlns="http://www.w3.org/2000/svg" style="" points="256.003,58.253 122.258,141.844 389.748,141.844 " fill="#00cdb3" data-original="#00cdb3"/>
<polygon xmlns="http://www.w3.org/2000/svg" style="" points="389.748,141.844 256.003,58.253 256,58.255 256,141.844 " fill="#00b5a3" data-original="#00b5a3" class=""/>
<polygon xmlns="http://www.w3.org/2000/svg" style="" points="256.003,159.376 269.365,182.892 295.859,188.333 277.624,208.308 280.636,235.186   256.003,224.016 231.371,235.186 234.383,208.308 216.147,188.333 242.642,182.892 " fill="#ffa91f" data-original="#ffa91f"/>
<polygon xmlns="http://www.w3.org/2000/svg" style="" points="256.003,224.016 280.636,235.186 277.624,208.308 295.859,188.333 269.365,182.892   256.003,159.376 256,159.382 256,224.017 " fill="#ff8800" data-original="#ff8800" class=""/>
<polygon xmlns="http://www.w3.org/2000/svg" style="" points="191.781,189.157 199.894,203.436 215.981,206.738 204.908,218.866 206.737,235.186   191.781,228.404 176.825,235.186 178.655,218.866 167.582,206.738 183.668,203.436 " fill="#ffa91f" data-original="#ffa91f"/>
<polygon xmlns="http://www.w3.org/2000/svg" style="" points="320.226,189.157 328.338,203.436 344.425,206.738 333.353,218.866 335.182,235.186   320.226,228.404 305.27,235.186 307.099,218.866 296.026,206.738 312.113,203.436 " fill="#ff8800" data-original="#ff8800" class=""/>
<rect xmlns="http://www.w3.org/2000/svg" x="215.981" y="277.678" style="" width="80.048" height="122.429" fill="#00cdb3" data-original="#00cdb3"/>
<rect xmlns="http://www.w3.org/2000/svg" x="256" y="277.678" style="" width="40.029" height="122.429" fill="#00b5a3" data-original="#00b5a3" class=""/>
<rect xmlns="http://www.w3.org/2000/svg" x="59.336" y="375.897" style="" width="393.336" height="24.21" fill="#ffa91f" data-original="#ffa91f"/>
<rect xmlns="http://www.w3.org/2000/svg" x="256" y="375.897" style="" width="196.668" height="24.21" fill="#ff8800" data-original="#ff8800" class=""/>
<g xmlns="http://www.w3.org/2000/svg">
</g>
<g xmlns="http://www.w3.org/2000/svg">
</g>
<g xmlns="http://www.w3.org/2000/svg">
</g>
<g xmlns="http://www.w3.org/2000/svg">
</g>
<g xmlns="http://www.w3.org/2000/svg">
</g>
<g xmlns="http://www.w3.org/2000/svg">
</g>
<g xmlns="http://www.w3.org/2000/svg">
</g>
<g xmlns="http://www.w3.org/2000/svg">
</g>
<g xmlns="http://www.w3.org/2000/svg">
</g>
<g xmlns="http://www.w3.org/2000/svg">
</g>
<g xmlns="http://www.w3.org/2000/svg">
</g>
<g xmlns="http://www.w3.org/2000/svg">
</g>
<g xmlns="http://www.w3.org/2000/svg">
</g>
<g xmlns="http://www.w3.org/2000/svg">
</g>
<g xmlns="http://www.w3.org/2000/svg">
</g>
</g></svg>
