<?xml version="1.0" encoding="utf-8"?>
<svg version="1.1" id="Layer_1" xmlns="http://www.w3.org/2000/svg" xmlns:xlink="http://www.w3.org/1999/xlink" x="0px" y="0px"
	width="100px" height="100px" viewBox="0 0 72.2 72.2" style="enable-background:new 0 0 72.2 72.2;" xml:space="preserve">
<g>
	<circle style="fill:#E8E8E8;" cx="36.1" cy="36.1" r="36.1"/>
	<circle style="fill:#FFFFFF;" cx="36.1" cy="36.1" r="35.4"/>
	<path style="fill:#F89722;" d="M8.5,30.4H11v4.1l0,0c0-0.8,1.5-1.3,2.4-1.3c2.6,0,2.8,2,2.8,3.1v5.2h-2.6v-3.9
		c0-1.1,0.1-2.2-1.2-2.2c-0.9,0-1.4,0.8-1.4,1.7v4.4H8.5C8.5,41.6,8.5,30.4,8.5,30.4z M17.5,35.9c0-1,0.5-1.8,1.2-2.2
		c0.6-0.4,1.5-0.6,2.5-0.6c1.8,0,3.6,0.4,3.6,2.7v3.5c0,0.6,0,1.4,0.3,2h-2.5c-0.1-0.2-0.1-0.5-0.1-0.7c-0.6,0.7-1.7,1-2.5,1
		c-1.4,0-2.7-0.8-2.7-2.5c0-2.7,2.7-2.5,4.5-2.8c0.4-0.1,0.6-0.2,0.6-0.7c0-0.6-0.6-0.8-1.2-0.8c-0.6,0-1.1,0.3-1.2,1L17.5,35.9
		C17.5,36.1,17.5,35.9,17.5,35.9z M20.6,40.1c1.2,0,1.7-0.7,1.5-2.4c-0.4,0.2-1,0.3-1.5,0.4c-0.6,0.1-1,0.4-1,1S20.1,40.1,20.6,40.1
		 M26,30.4h2.5v11.1H26V30.4z M39,33.2c2.2,0,3.5,1.2,3.2,3.5c-0.3,2.9-2.3,4.9-5.1,4.9c-2.2,0-3.5-1.1-3.3-3.5
		C34.3,35.4,36.2,33.2,39,33.2 M37.5,39.8c1.4,0,2.2-1.7,2.2-2.9c0.1-1-0.1-1.7-1.1-1.7c-1.4,0-2.1,1.8-2.2,3
		C36.4,39,36.6,39.8,37.5,39.8 M34.4,33.3h-1.6V33c0-0.7,0.4-0.8,1-0.8c0.2,0,0.4,0,0.6,0.1v-1.9c-0.4-0.1-0.9-0.1-1.3-0.1
		c-2.2,0-3,0.7-3,3h-1.2v1.8h1.2v6.3h2.5v-6.3h0.9L34.4,33.3z M48.7,35.6L48.7,35.6L48.7,35.6L48.7,35.6z M43.1,39.8v-6.5h2.5v1.4
		l0,0c0-0.9,1.2-1.4,2.3-1.4c0.1,0,0.4,0,0.5,0.1l-0.1,0.3l-0.6,1.9h-0.1c-1.2,0-1.9,0.9-1.9,1.8v4.3h-2.5L43.1,39.8L43.1,39.8z
		 M56.2,41.5h-2.5v-0.9l0,0c0,0.7-1.2,1.2-2.2,1.2c-2.5,0-3.5-2.2-3.5-4.5c0-2.2,1-4.1,3.2-4.1c0.9,0,1.7,0.4,2.2,1.1l0,0v-4h2.5
		v11.2C56.1,41.5,56.2,41.5,56.2,41.5z M50.7,37.4c0,1.1,0.4,2.4,1.5,2.4c1.2,0,1.4-1.2,1.4-2.3c0-1.2-0.4-2.3-1.4-2.3
		C51.2,35.2,50.7,36.4,50.7,37.4 M60.2,41.7c-1.3,0-2.3-0.4-3.2-0.9l0.7-2.1c0.8,0.6,1.8,1,2.5,1c0.6,0,0.9-0.2,0.9-0.5
		c0-1-3.8-0.4-3.8-3.1c0-1.7,1.4-2.7,3.3-2.7c0.9,0,2.2,0.4,3,0.8l-0.7,2c-0.8-0.4-1.7-0.7-2.3-0.7c-0.5,0-0.8,0.2-0.8,0.5
		c0,1,3.9,0.4,3.9,3.3C63.7,40.6,62.3,41.7,60.2,41.7"/>
</g>
</svg>
