<?xml version="1.0" encoding="utf-8"?>
<!-- Generator: Adobe Illustrator 24.2.1, SVG Export Plug-In . SVG Version: 6.00 Build 0)  -->
<svg version="1.1" id="Layer_1" xmlns="http://www.w3.org/2000/svg" xmlns:xlink="http://www.w3.org/1999/xlink" x="0px" y="0px"
	 viewBox="0 0 664 664" style="enable-background:new 0 0 664 664;" xml:space="preserve">
<style type="text/css">
	.st0{fill:#FFFFFF;}
	.st1{fill:#2A3692;}
</style>
<rect class="st0" width="664" height="664"/>
<g>
	<path id="path28" class="st1" d="M393.8,487h-5.1v-2.5h13.1v2.5h-5.1v12.6h-2.9L393.8,487 M375.9,487h-5.1v-2.5h13.1v2.5h-5.1v12.6
		h-2.9L375.9,487 M359.2,497.3c0.7,0,1.4-0.1,2-0.4c0.6-0.3,1.1-0.7,1.5-1.2c0.4-0.5,0.8-1.1,1-1.7c0.2-0.7,0.3-1.3,0.3-2
		c0-0.7-0.1-1.4-0.3-2c-0.2-0.6-0.6-1.2-1-1.7c-0.4-0.5-0.9-0.9-1.5-1.1c-0.6-0.3-1.3-0.4-2-0.4c-0.8,0-1.4,0.1-2,0.4
		c-0.6,0.3-1.1,0.7-1.5,1.1c-0.4,0.5-0.8,1-1,1.7c-0.2,0.6-0.3,1.3-0.3,2c0,0.7,0.1,1.4,0.3,2c0.2,0.7,0.6,1.2,1,1.7
		c0.4,0.5,0.9,0.9,1.5,1.2C357.7,497.2,358.4,497.3,359.2,497.3 M359.2,500c-1.1,0-2.1-0.2-3.1-0.6c-0.9-0.4-1.8-1-2.5-1.7
		c-0.7-0.7-1.3-1.6-1.7-2.5c-0.4-1-0.6-2-0.6-3.1c0-1.1,0.2-2.1,0.6-3.1c0.4-1,1-1.8,1.7-2.5c0.7-0.7,1.5-1.3,2.5-1.7
		c1-0.4,2-0.6,3.1-0.6c1.1,0,2.1,0.2,3.1,0.6c1,0.4,1.8,1,2.5,1.7c0.7,0.7,1.3,1.6,1.7,2.5c0.4,1,0.6,2,0.6,3.1
		c0,1.1-0.2,2.1-0.6,3.1c-0.4,1-1,1.8-1.7,2.5c-0.7,0.7-1.5,1.3-2.5,1.7C361.3,499.8,360.2,500,359.2,500 M341.5,484.5h2.9v15.1
		h-2.9V484.5 M328.2,491.3c0.7,0,1.3-0.2,1.7-0.6c0.4-0.4,0.6-0.9,0.6-1.5c0-0.6-0.2-1.2-0.6-1.6c-0.4-0.4-1-0.6-1.7-0.6h-3v4.4
		H328.2z M322.5,484.5h5.7c1,0,1.8,0.2,2.4,0.4c0.7,0.3,1.2,0.6,1.6,1.1c0.4,0.5,0.7,0.9,0.9,1.5c0.2,0.5,0.3,1,0.3,1.5
		c0,1-0.2,1.8-0.6,2.5c-0.4,0.7-1.1,1.3-1.9,1.8l3.5,6.3h-3.2l-3.1-6h-2.9v6h-2.8L322.5,484.5 M309.9,491.3c0.7,0,1.3-0.2,1.7-0.6
		c0.4-0.4,0.6-0.9,0.6-1.5c0-0.6-0.2-1.2-0.6-1.6c-0.4-0.4-1-0.6-1.7-0.6h-3v4.4H309.9z M304.1,484.5h5.7c1,0,1.8,0.2,2.4,0.4
		c0.7,0.3,1.2,0.6,1.6,1.1c0.4,0.5,0.7,0.9,0.9,1.5c0.2,0.5,0.3,1,0.3,1.5c0,1-0.2,1.8-0.6,2.5c-0.4,0.7-1,1.3-1.9,1.8l3.5,6.3h-3.2
		l-3.1-6h-2.9v6h-2.8L304.1,484.5 M292.8,493.4l-2-5.9l-2,5.9H292.8z M289.5,484.5h3l5.7,15.1H295l-1.3-3.8H288l-1.3,3.8h-3
		L289.5,484.5 M262.9,484.5h2.6l4.5,7.1l4.5-7.1h2.7l0.7,15.1h-2.8l-0.5-10.5l-4,6.2h-1.3l-4-6l-0.5,10.3h-2.7L262.9,484.5"/>
	<path id="path30" class="st1" d="M359.9,177.3c-8.6-8.6-20-13.3-32-13.3h-33.7c-1.7,0-2.7,1.9-2.7,5.1s1.1,5.1,2.7,5.1h33.7
		c9.3,0,18.2,3.7,24.8,10.3c6.7,6.7,10.3,15.5,10.3,24.8c0,9.3-3.7,18.2-10.3,24.8c-6.7,6.7-15.5,10.3-24.8,10.3h-24.1
		c-1.5,0-2.7-1.2-2.7-2.7V204c0-1.7-2-2.7-5.1-2.7c-3.1,0-5.1,1.1-5.1,2.7v45.7c0,2.8,2.2,5,5.1,5h31.9c12.1,0,23.4-4.7,32-13.3
		c8.6-8.6,13.3-20,13.3-32S368.4,185.9,359.9,177.3"/>
	<path id="path40" class="st1" d="M451.8,345.9l-9.7-21.5h-0.4l-9.6,21.5H451.8z M416.2,362.6l24.1-52.8c0.2-0.5,0.9-0.9,1.3-0.9
		h0.8c0.4,0,1.1,0.4,1.3,0.9l24,52.8c0.5,1-0.2,2-1.3,2h-4.9c-0.9,0-1.5-0.5-1.8-1.2l-4.9-10.8h-25.7c-1.6,3.6-3.2,7.1-4.8,10.8
		c-0.2,0.5-0.9,1.2-1.8,1.2h-4.9C416.4,364.6,415.8,363.6,416.2,362.6 M382.3,317h-12.8c-0.9,0-1.5-0.7-1.5-1.5v-4.4
		c0-0.8,0.6-1.5,1.5-1.5h33.8c0.9,0,1.5,0.7,1.5,1.5v4.4c0,0.8-0.6,1.5-1.5,1.5h-12.8v46.1c0,0.8-0.7,1.5-1.5,1.5h-5.2
		c-0.8,0-1.5-0.7-1.5-1.5L382.3,317 M325.6,311.1c0-0.8,0.6-1.5,1.5-1.5h5.2c0.8,0,1.5,0.7,1.5,1.5v46.2H355c0.9,0,1.5,0.7,1.5,1.5
		v4.3c0,0.8-0.6,1.5-1.5,1.5h-27.9c-0.9,0-1.5-0.7-1.5-1.5L325.6,311.1 M266,311.1c0-0.8,0.6-1.5,1.5-1.5h31.4
		c0.9,0,1.5,0.7,1.5,1.5v4.4c0,0.8-0.6,1.5-1.5,1.5h-24.8v16h21c0.8,0,1.5,0.7,1.5,1.5v4.4c0,0.9-0.7,1.5-1.5,1.5h-21v16.9h24.8
		c0.9,0,1.5,0.7,1.5,1.5v4.3c0,0.8-0.6,1.5-1.5,1.5h-31.4c-0.9,0-1.5-0.7-1.5-1.5V311.1 M214.5,357.2c11.5,0,19.9-8.5,19.9-20.1
		c0-11.5-8.4-19.9-19.9-19.9h-10.4v40H214.5z M196.1,311.2c0-0.8,0.6-1.5,1.4-1.5h18.1c15.2,0,27.6,12.3,27.6,27.4
		c0,15.2-12.4,27.6-27.6,27.6h-18.1c-0.8,0-1.4-0.7-1.4-1.5L196.1,311.2"/>
	<path id="path52" class="st1" d="M407.9,418.3c0.4-0.6,0.7-1.2,1.1-1.8c0.4-0.6,1-0.7,1.5-0.3c0.3,0.2,3.6,3,6.9,3
		c3,0,4.9-1.8,4.9-4c0-2.6-2.2-4.2-6.5-6c-4.4-1.9-7.8-4.1-7.8-9.1c0-3.4,2.6-8,9.4-8c4.3,0,7.5,2.2,8,2.5c0.3,0.2,0.7,0.8,0.3,1.5
		c-0.3,0.5-0.7,1.1-1.1,1.6c-0.3,0.6-0.9,0.8-1.5,0.4c-0.3-0.2-3.3-2.2-5.8-2.2c-3.6,0-4.9,2.3-4.9,3.9c0,2.5,1.9,4,5.5,5.4
		c5,2,9.3,4.4,9.3,9.6c0,4.5-4,8.1-9.6,8.1c-5.3,0-8.6-2.8-9.3-3.4C407.7,419.4,407.4,419,407.9,418.3 M380.2,393.3
		c0-0.4,0.3-0.8,0.8-0.8h2.8c0.4,0,0.8,0.4,0.8,0.8v25.3h11.7c0.5,0,0.8,0.4,0.8,0.8v2.4c0,0.4-0.3,0.8-0.8,0.8H381
		c-0.5,0-0.8-0.4-0.8-0.8L380.2,393.3 M346.6,393.3c0-0.4,0.3-0.8,0.8-0.8h17.2c0.5,0,0.8,0.4,0.8,0.8v2.4c0,0.4-0.3,0.8-0.8,0.8
		h-13.6v8.8h11.5c0.4,0,0.8,0.4,0.8,0.8v2.4c0,0.5-0.4,0.8-0.8,0.8h-11.5v9.3h13.6c0.5,0,0.8,0.4,0.8,0.8v2.4c0,0.4-0.3,0.8-0.8,0.8
		h-17.2c-0.5,0-0.8-0.4-0.8-0.8V393.3 M321.5,396.6h-7c-0.5,0-0.8-0.4-0.8-0.8v-2.4c0-0.4,0.3-0.8,0.8-0.8H333
		c0.5,0,0.8,0.4,0.8,0.8v2.4c0,0.4-0.3,0.8-0.8,0.8h-7v25.3c0,0.4-0.4,0.8-0.8,0.8h-2.8c-0.4,0-0.8-0.4-0.8-0.8L321.5,396.6
		 M289.7,418.8c6.2,0,11.2-5,11.2-11.2c0-6.1-5-11.2-11.2-11.2c-6.1,0-11.2,5.1-11.2,11.2C278.6,413.8,283.6,418.8,289.7,418.8
		 M289.7,392.1c8.6,0,15.5,6.9,15.5,15.5c0,8.6-6.9,15.5-15.5,15.5c-8.6,0-15.5-6.8-15.5-15.5C274.3,399,281.1,392.1,289.7,392.1
		 M237,393.3c0-0.4,0.4-0.8,0.8-0.8h2.8c0.5,0,0.8,0.4,0.8,0.8v12h15.8v-12c0-0.4,0.3-0.8,0.8-0.8h2.8c0.4,0,0.8,0.4,0.8,0.8v28.5
		c0,0.4-0.4,0.8-0.8,0.8h-2.8c-0.5,0-0.8-0.4-0.8-0.8v-12.4h-15.8v12.4c0,0.4-0.3,0.8-0.8,0.8h-2.8c-0.4,0-0.8-0.4-0.8-0.8V393.3"/>
	<path id="path54" class="st1" d="M427,454.3H237v-1.2h190V454.3"/>
</g>
</svg>
