<?xml version="1.0"?>
<svg xmlns="http://www.w3.org/2000/svg" xmlns:xlink="http://www.w3.org/1999/xlink" xmlns:svgjs="http://svgjs.com/svgjs" version="1.1" width="512" height="512" x="0" y="0" viewBox="0 0 512 512" style="enable-background:new 0 0 512 512" xml:space="preserve" class=""><g><g xmlns="http://www.w3.org/2000/svg"><g><g><g><g><g><g><g><g><circle cx="256" cy="256" fill="#f1f1f1" r="256" data-original="#fe8205" style="" class=""/></g></g></g></g></g></g></g></g><path d="m511.041 278.318-78.868-78.868-3.918 26.936-172.255-172.255-6.374 196.479-81.944-81.944-22.482 277.952 60.427 60.427c16.286 3.25 33.131 4.955 50.373 4.955 133.865 0 243.733-102.748 255.041-233.682z" fill="#f1f1f1" data-original="#fa5d0f" style="" class=""/><g><g><path d="m454.408 276.909-22.236-77.459-71.104 37.929-101.456 209.239h132.899z" fill="#96ebe6" data-original="#96ebe6" style="" class=""/></g><g><path d="m454.408 276.909-22.236-77.459-.73.39-99.568 246.778h60.637z" fill="#00c8c8" data-original="#00c8c8" style="" class=""/></g><g><path d="m432.172 199.45-71.103 37.929 93.339 39.53z" fill="#b4f5f0" data-original="#b4f5f0" style=""/></g><g><path d="m432.172 199.45-23.936 57.904 46.172 19.555z" fill="#64e1dc" data-original="#64e1dc" style=""/></g></g><g><path d="m330.574 446.618h-149.148l16.318-320.47 58.256-72.017 58.256 72.017z" fill="#64e1dc" data-original="#64e1dc" style=""/></g><g><path d="m314.256 126.148-58.135-71.868v392.338h74.453z" fill="#00c8c8" data-original="#00c8c8" style="" class=""/></g><g><path d="m256 54.131 58.256 72.017h-116.512z" fill="#96ebe6" data-original="#96ebe6" style="" class=""/></g><g><path d="m256 54.131.121 72.017h58.135z" fill="#64e1dc" data-original="#64e1dc" style=""/></g><g><g><path d="m167.683 168.666-81.729-43.596-25.558 89.033 84.804 232.515h157.257z" fill="#cbf7f7" data-original="#cbf7f7" style="" class=""/></g><g><path d="m167.683 168.666-81.729-43.596-.1.347 124.386 321.201h92.217z" fill="#96ebe6" data-original="#96ebe6" style="" class=""/></g><g><path d="m85.954 125.07 81.728 43.596-107.286 45.437z" fill="#b4f5f0" data-original="#b4f5f0" style=""/></g><g><path d="m111.772 192.345 55.911-23.679-81.729-43.596z" fill="#64e1dc" data-original="#64e1dc" style=""/></g></g></g></g></svg>
