<?xml version="1.0"?>
<svg xmlns="http://www.w3.org/2000/svg" xmlns:xlink="http://www.w3.org/1999/xlink" xmlns:svgjs="http://svgjs.com/svgjs" version="1.1" width="512" height="512" x="0" y="0" viewBox="0 0 512 512" style="enable-background:new 0 0 512 512" xml:space="preserve" class=""><g><g xmlns="http://www.w3.org/2000/svg"><g><g><g><g><g><g><g><circle cx="256" cy="256" fill="#f1f1f1" r="256" data-original="#fe8205" style="" class=""/></g></g></g></g></g></g></g><path d="m511.139 277.143-61.139-61.14-9.875 7.598-35.641-35.641-13.97 23.24-72.349-72.349-241.165 217.699 154.27 154.271c8.138.78 16.387 1.179 24.73 1.179 134.266 0 244.389-103.363 255.139-234.857z" fill="#f1f1f1" data-original="#f24500" style="" class=""/><g><path d="m143.644 321.039h174.521v64.11h-174.521z" fill="#ffce00" data-original="#ffce00" style="" class=""/></g><g><path d="m230.22 321.039h87.945v64.11h-87.945z" fill="#fdba12" data-original="#fdba12" style="" class=""/></g><g><path d="m143.644 260.31h174.521v64.11h-174.521z" fill="#ffa300" data-original="#ffa300" style="" class=""/></g><g><path d="m143.644 199.58h174.521v64.11h-174.521z" fill="#ffce00" data-original="#ffce00" style="" class=""/></g><g><path d="m230.22 199.58h87.945v64.11h-87.945z" fill="#fdba12" data-original="#fdba12" style="" class=""/></g><g><path d="m143.644 138.851h174.521v64.11h-174.521z" fill="#fdba12" data-original="#fdba12" style="" class=""/></g><g><path d="m230.22 138.851h87.945v64.11h-87.945z" fill="#ffa300" data-original="#ffa300" style="" class=""/></g><g><ellipse cx="143.644" cy="293.196" fill="#ffe85f" rx="91.954" ry="91.954" transform="matrix(.707 -.707 .707 .707 -165.248 187.447)" data-original="#ffe85f" style="" class=""/></g><g><path d="m143.644 201.242c-.238 0-.474.007-.712.009v183.889c.238.002.474.009.712.009 50.785 0 91.954-41.169 91.954-91.954s-41.169-91.953-91.954-91.953z" fill="#ffe04a" data-original="#ffe04a" style="" class=""/></g><g><ellipse cx="143.644" cy="293.196" fill="#ffce00" rx="53.623" ry="53.623" transform="matrix(.23 -.973 .973 .23 -174.711 365.635)" data-original="#ffce00" style="" class=""/></g><g><path d="m143.644 239.572c-.239 0-.474.015-.712.018v107.21c.238.003.473.018.712.018 29.615 0 53.623-24.008 53.623-53.623s-24.008-53.623-53.623-53.623z" fill="#fdba12" data-original="#fdba12" style="" class=""/></g><g><g><path d="m394.182 202.961h-85.67c-6.306 16.399-22.198 28.043-40.818 28.043v79.045c0 27.222 13.167 52.763 35.341 68.553l48.313 34.405 48.313-34.405c22.172-15.791 35.339-41.331 35.339-68.553v-79.045c-18.62 0-34.512-11.644-40.818-28.043z" fill="#1dd882" data-original="#1dd882" style=""/><path d="m394.182 202.961h-42.835v210.039.006l48.313-34.405c22.173-15.789 35.34-41.33 35.34-68.552v-79.045c-18.62 0-34.512-11.644-40.818-28.043z" fill="#12c66c" data-original="#12c66c" style="" class=""/><path d="m351.347 431.421-57.014-40.602c-26.073-18.567-41.64-48.762-41.64-80.771v-94.045h15c11.802 0 22.579-7.405 26.818-18.427l3.697-9.616h106.275l3.697 9.616c4.239 11.022 15.017 18.427 26.818 18.427h15v94.045c0 32.009-15.566 62.204-41.64 80.772zm-68.654-187.397v66.024c0 22.325 10.856 43.385 29.042 56.334l39.611 28.209 39.611-28.208c18.187-12.949 29.043-34.009 29.043-56.334v-66.024c-14.482-3.878-27.138-13.234-35.054-26.064h-67.199c-7.916 12.829-20.571 22.185-35.054 26.063z" fill="#12c66c" data-original="#12c66c" style="" class=""/><path d="m351.347 431.421 57.014-40.601c26.073-18.567 41.64-48.762 41.64-80.771v-94.045h-15c-11.802 0-22.579-7.405-26.818-18.427l-3.697-9.616h-53.138v30h33.6c7.916 12.83 20.571 22.186 35.054 26.064v66.024c0 22.325-10.856 43.385-29.042 56.334l-39.611 28.208v36.83z" fill="#06b26b" data-original="#06b26b" style=""/></g><g><path d="m340.367 343.61-40.322-40.323 21.213-21.213 19.109 19.109 49.9-49.899 21.212 21.213z" fill="#ffffff" data-original="#ffffff" style=""/></g><g><path d="m390.267 251.284-38.92 38.92v42.426l60.132-60.133z" fill="#ffffff" data-original="#ffffff" style=""/></g></g></g></g></svg>
