<?xml version="1.0" encoding="utf-8"?>
<svg version="1.1" id="Layer_1" xmlns="http://www.w3.org/2000/svg" xmlns:xlink="http://www.w3.org/1999/xlink" x="0px" y="0px"
	 viewBox="0 0 623.6 209" style="enable-background:new 0 0 623.6 209;" xml:space="preserve">
<g>
	<g transform="translate(0 .962)">
		<g transform="translate(495)">
			<defs>
				<filter id="Adobe_OpacityMaskFilter" filterUnits="userSpaceOnUse" x="0.8" y="-1" width="60.4" height="85.3">
					<feColorMatrix  type="matrix" values="1 0 0 0 0  0 1 0 0 0  0 0 1 0 0  0 0 0 1 0"/>
				</filter>
			</defs>
			<mask maskUnits="userSpaceOnUse" x="0.8" y="-1" width="60.4" height="85.3" id="B_1_">
				<g style="filter:url(#Adobe_OpacityMaskFilter);">
					<path id="A_1_" style="fill:#FFFFFF;" d="M0.8-1h60.4v85.3H0.8V-1z"/>
				</g>
			</mask>
			<path style="mask:url(#B_1_);fill:#25A541;" d="M56.8,2.2l0,17.4c-5.5-2.7-13.1-3.7-19.3-3.7C32,15.9,23,17.2,23,23.8
				c0,13.4,38.2,4,38.2,33.4c0,21.4-17.6,27.2-35.6,27.2c-7.5,0-16.2-1.8-24.2-4.7l0-17.3c5.5,2.7,14.8,5,23.4,5
				c6.8,0,14-1.6,14-7.9c0-15.4-38.1-5.7-38.1-35C0.8,5.6,17.2-1,36-1C43.8-1,51.4,0.1,56.8,2.2"/>
		</g>
		<path style="fill:#25A541;" d="M462,0.4l30.9,82.5h-23.4l-5.6-17.6h-30.7l-5.8,17.6h-21.9l27.2-73.7c2.7-7.1,7.2-8.8,10.9-8.8
			C443.6,0.4,462,0.4,462,0.4z M459,49.7l-10.1-32.2h-0.2l-10.5,32.2H459L459,49.7z M330.8,0.4v15.5h-37.6v17.4h34.2v15.6h-34.2
			v18.4h37.6v15.6h-59.5V10.4c0-1.1,0-2,0.2-2.8c0.7-3.5,3.5-6.2,7-7c0.8-0.2,1.7-0.2,2.8-0.2C281.4,0.4,330.8,0.4,330.8,0.4z
			 M623.6,0.4v15.6H586v17.4h34.2v15.6H586v18.4h37.6v15.6h-59.5V10.4c0-1.1,0-2,0.2-2.8c0.7-3.5,3.5-6.2,7-7
			c0.8-0.2,1.7-0.2,2.8-0.2C574.2,0.4,623.6,0.4,623.6,0.4z M389.6,40.1c6.6-1.6,14.8-6.6,14.8-19c0-14.4-12.5-20.8-28.9-20.7
			l-25.6,0c-1.1,0-2,0.1-2.8,0.2c-3.5,0.8-6.2,3.5-7,7c-0.2,0.8-0.2,1.7-0.2,2.8v72.5l36.1,0c16.7,0,30.4-8,30.4-22.9
			C406.3,46.5,396.2,41.7,389.6,40.1L389.6,40.1z M361.5,15.8h10.4c6.4,0,10.3,3.2,10.3,8.7c0,5.5-3.9,8.9-10.3,8.9h-10.4
			C361.5,33.4,361.5,15.8,361.5,15.8z M372.6,67.4h-11.1V48.7h10.9c7.1,0,11.9,3.7,11.9,9.2C384.2,63.7,380.4,67.4,372.6,67.4
			C372.6,67.4,372.6,67.4,372.6,67.4z M226.3,9.5c1.7-6,5.2-9.1,11-9.1h21.6v82.5h-19.5l0-55.6l-16.3,55.6h-19.4l-16.3-55.6l0,55.6
			h-18.6l0-72.5c0-1.1,0-2,0.2-2.8c0.8-3.5,3.5-6.2,7-7c0.8-0.2,1.7-0.2,2.8-0.2h19.7l15.6,52.1L226.3,9.5L226.3,9.5z M0,82.9V10.4
			c0-1.1,0-2,0.2-2.8c0.7-3.5,3.5-6.2,7-7C8,0.4,8.9,0.4,10,0.4l12,0v32.9h26l0-22.9c0-1.1,0-2,0.2-2.8c0.8-3.5,3.5-6.2,7-7
			c0.8-0.2,1.7-0.2,2.8-0.2l12,0v82.5H48V49H22v33.9H0z"/>
		<path style="fill:#ED702A;" d="M160.7,41.6c0,22.8-18.5,41.3-41.3,41.3c-22.8,0-41.3-18.5-41.3-41.3S96.6,0.4,119.4,0.4
			C142.2,0.4,160.7,18.9,160.7,41.6"/>
	</g>
	<path style="fill:#494948;" d="M0,123.5L0.4,176H8v-21.7h11.9v-6.7H7.7v-17.5h13.9v-6.7H0z M27.3,123.5h22.5v6.7H34.9v15.7h13.4
		v6.7H34.9v16.7h14.9v6.7H27.3V123.5z M56.6,123.5h22.5v6.7H64.3v15.7h13.4v6.7H64.3v16.7h14.9v6.7H56.6V123.5z M86.1,123.5h7.7
		v45.9h13.4v6.7h-21V123.5z M112.7,173c-2.9-3.1-3.3-6.9-3.3-12.7h7.7c0,4.5,0,6.4,1.2,8c0.8,1.1,2.2,1.8,4.1,1.8
		c3.2,0,5.6-2,5.6-6.5v-1c0-4.4-1.1-6.2-6.2-9.3l-3.4-1.9c-6.3-3.7-9-6.9-9-14.3V136c0-7.9,4.4-13.1,12.8-13.1c4.6,0,7.8,1.6,10,4.2
		c2.2,2.8,2.8,5.5,2.8,11.9h-7.7c0-4.4-0.1-6.3-1.1-7.7c-0.7-1.1-2.1-1.9-4.1-1.9c-3.3,0-5.1,2.2-5.1,6.2v1c0,4.2,1.4,6,6,8.8l3.3,2
		c6.6,4,9.2,6.8,9.2,14.7v1.1c0,8.6-4.9,13.4-13,13.4C118.3,176.6,115,175.3,112.7,173 M338,130.2h-9.3v-6.7h26.1v6.7h-9.2V176H338
		V130.2z M360.6,172.1c-2.5-2.9-3.1-7.2-3.1-13.7v-17.3c0-6.4,0.6-10.7,3.1-13.7c2.3-2.8,5.9-4.5,10.8-4.5s8.5,1.7,10.8,4.5
		c2.4,3,3.1,7.3,3.1,13.7v17.3c0,6.5-0.7,10.8-3.1,13.7c-2.3,2.8-5.9,4.5-10.8,4.5S362.9,174.9,360.6,172.1 M376,167.5
		c1.1-1.6,1.5-3.5,1.5-8.1v-19.3c0-4.6-0.4-6.5-1.5-8.1c-1-1.3-2.5-2.1-4.6-2.1c-2.1,0-3.7,0.8-4.7,2.1c-1.1,1.6-1.5,3.5-1.5,8.1
		v19.3c0,4.6,0.4,6.5,1.5,8.1c1,1.3,2.5,2.1,4.7,2.1C373.5,169.6,375,168.8,376,167.5 M431.9,159.9v1.6c0,10-5,14.5-13.9,14.5h-12.9
		v-52.5h11.9c9.9,0,13.9,4.5,13.9,12.6v1.1c0,5.1-1.8,8.8-4.4,10.8C429.9,150.2,431.9,154.2,431.9,159.9L431.9,159.9L431.9,159.9z
		 M412.8,145.8h4c5,0,6.6-2.5,6.6-7.7v-0.7c0-5.2-1.6-7.3-6.6-7.3h-4V145.8L412.8,145.8z M424.3,160c0-6-2.1-8-6.4-8h-5.1v17.4h5.1
		c4.2,0,6.4-2.1,6.4-8V160z M439.5,123.5H462v6.7h-14.9v15.7h13.4v6.7h-13.4v16.7H462v6.7h-22.5V123.5z M507.7,123.5V176h-7.7v-23.1
		h-11.3V176h-7.7v-52.5h7.7v22.3h11.3v-22.3L507.7,123.5z M519.5,172.1c-2.4-2.9-3.1-7.2-3.1-13.7v-17.3c0-6.4,0.6-10.7,3.1-13.7
		c2.3-2.8,5.9-4.5,10.8-4.5s8.5,1.7,10.8,4.5c2.4,3,3.1,7.3,3.1,13.7v17.3c0,6.5-0.7,10.8-3.1,13.7c-2.3,2.8-5.9,4.5-10.8,4.5
		S521.8,174.9,519.5,172.1 M534.9,167.5c1.1-1.6,1.5-3.5,1.5-8.1v-19.3c0-4.6-0.4-6.5-1.5-8.1c-1-1.3-2.5-2.1-4.6-2.1
		c-2.1,0-3.7,0.8-4.7,2.1c-1.1,1.6-1.5,3.5-1.5,8.1v19.3c0,4.6,0.4,6.5,1.5,8.1c1,1.3,2.5,2.1,4.7,2.1
		C532.4,169.6,533.9,168.8,534.9,167.5 M552.8,123.5h9.6l5.7,22.8c1.5,6.1,2.8,12.2,4.1,18.4h0.2c1-5.1,2.5-12,4.1-18.2l5.6-23h9.5
		V176h-7.3v-18c0-7,0.2-14.1,0.5-21.1h-0.2c-0.9,5-2.1,10.6-3.1,14.9l-5.8,24.3H569l-6-24.4l-3.1-14h-0.2l0.4,20.4V176h-7.3
		L552.8,123.5L552.8,123.5z M601.1,123.5V176h22.5v-6.7h-14.8v-16.7h13.4v-6.7h-13.4v-15.7h14.8v-6.7L601.1,123.5z"/>
	<path style="fill:#25A541;" d="M200.3,128.7c0.6-2,0.3-3.1-0.2-3.7c-0.5-0.7-1.3-1.1-2.4-1.1c-1.5,0-3.4,0.9-4.3,2.6
		c-1.7-2.7-5.6-3.9-8.6-3.9c-9.5,0-15.1,9.3-17.6,14.8l-10.1,21.3c-0.6,1.5-1.9,5.3-1.9,7.6c0,6.7,4.4,10.5,12.1,10.5
		c0.8,0,2.6-0.5,3.9-1.5l-0.5,1c-6.1,14.5-17.1,25.1-26.1,25.1c-9.2,0-10.2-5.2-10.2-7.5c0-2.9,2.2-7.2,7.1-7.6h0
		c2.5,0,3.8-1.9,3.8-3.8c0-1-0.3-1.9-1-2.5c-0.7-0.7-1.7-1.1-2.9-1.1c-5.5,0.2-9,2.9-10.9,5.2c-2.4,2.8-3.8,6.5-3.8,9.8
		c0,7.2,4.7,14.9,17.9,14.9c12.7,0,23.4-9.6,32.4-29.4l17.8-39L200.3,128.7L200.3,128.7z M188.9,134c0,1-0.1,1.6-1.1,3.7l-9.7,21.2
		c-2.1,4.5-5.4,10.5-10.9,10.5c-2.7,0-4.4-1.1-4.4-3c0-0.9,0.4-2.6,1.2-4.4l9.7-20.8c1.2-2.8,4.9-11.2,11-11.2
		C187.5,130.1,188.9,131.4,188.9,134L188.9,134z M233.8,133.1c0-6.7-4.4-10.5-12.1-10.5c-10.4,0-15.8,11.2-17.6,14.8L194,158.7
		c-0.9,2-1.9,5.5-1.9,7.6c0,6.7,4.4,10.5,12.1,10.5c10.4,0,15.8-11.2,17.6-14.8l10-21.2C232.8,138.8,233.8,135,233.8,133.1
		 M224.9,137.4l-9.7,21l-0.1,0.2c-1.5,3.2-5.1,10.7-10.9,10.7c-2.7,0-4.4-1.1-4.4-3c0-1,0.4-2.7,1.2-4.4l9.7-20.8l0.3-0.6
		c1.6-3.4,5-10.6,10.7-10.6c1.8,0,3.1,0.5,3.7,1.5C226.5,133.2,225.5,136,224.9,137.4 M269.8,133.1c0-6.7-4.4-10.5-12.1-10.5
		c-10.4,0-15.8,11.2-17.6,14.8L230,158.7c-0.9,2-1.9,5.5-1.9,7.6c0,6.7,4.4,10.5,12.1,10.5c10.4,0,15.8-11.2,17.6-14.8l10-21.2
		C268.8,138.8,269.8,135,269.8,133.1 M240.2,169.4c-2.7,0-4.4-1.1-4.4-3c0-1,0.4-2.7,1.2-4.4l9.7-20.8l0.3-0.6
		c1.6-3.4,5-10.6,10.7-10.6c1.8,0,3,0.5,3.7,1.5c1.1,1.7,0.1,4.4-0.5,5.9l-9.7,21l-0.1,0.2C249.5,161.9,245.9,169.4,240.2,169.4
		 M322,101.3c0.8-1.7,0.9-3.3,0.2-4.4c-0.6-1-1.7-1.5-2.9-1.5c-1.4,0-3.2,0.8-4.2,2.9l-12.9,28c-1.7-2.5-5.5-3.7-8.3-3.7
		c-10.4,0-15.8,11.2-17.6,14.8L266,158.7c-0.9,2-1.9,5.5-1.9,7.6c0,6.7,4.4,10.5,12.1,10.5c3.8,0,7.4-1.6,10.3-4.6
		c0.4,0.8,1,1.5,1.7,2.1c0.6,0.5,1.3,0.9,2.2,1.4l0.3,0.2v-0.1c1.6,0.7,3.6,1.1,5.8,1.1c3.8,0,7.7-1.9,11.3-5.6
		c2.7-2.8,4.9-6.1,6.4-9.6c0.5-1.3,0.4-2.5-0.3-3.5s-1.8-1.5-3-1.5c-1.5,0-2.8,0.8-3.6,2.2l-0.2,0.4c-1.5,3-5,10.1-10.7,10.1
		c-1.5,0-2.6-0.4-3.1-1.3c-1.2-1.9,0.3-5.3,0.7-6.3L322,101.3L322,101.3z M293.7,130c1.7,0,2.9,0.5,3.6,1.4c0.8,1.1,0.8,2.9,0.1,4.9
		l-1.3,2.9l-8.9,19.3c-1.1,2.5-5.2,10.8-11,10.8c-1.7,0-2.9-0.5-3.5-1.5c-0.9-1.3-0.7-3.5,0.4-5.8l9.7-20.8l0.3-0.6
		C284.7,137.2,288,130,293.7,130L293.7,130L293.7,130z"/>
</g>
</svg>
