<?xml version="1.0" encoding="utf-8"?>
<svg version="1.1" id="Layer_1" xmlns="http://www.w3.org/2000/svg" xmlns:xlink="http://www.w3.org/1999/xlink" x="0px" y="0px"
	width="100px" height="100px" viewBox="0 0 100 100" style="enable-background:new 0 0 100 100;" xml:space="preserve">
<g>
	<path style="fill:#E8E8E8;" d="M50,0c27.61,0,50,22.39,50,50s-22.39,50-50,50S0,77.61,0,50S22.39,0,50,0"/>
	<path style="fill:#FFFFFF;" d="M50,1c27.06,0,49,21.94,49,49S77.06,99,50,99S1,77.06,1,50S22.94,1,50,1"/>
	<g>
		<path style="fill:#EDC0F9;" d="M16.03,46.26c0.69,0,1.45,0.1,2.09,0.66c0.68,0.6,0.77,1.38,0.77,1.93c0,1-0.38,1.56-0.68,1.87
			c-0.63,0.65-1.46,0.71-2.02,0.71h-1.13v2.79h-1.84v-7.95H16.03z M15.06,49.91h0.66c0.25,0,0.69-0.01,0.99-0.3
			c0.16-0.16,0.3-0.44,0.3-0.78c0-0.33-0.12-0.61-0.3-0.77c-0.27-0.26-0.67-0.3-1.03-0.3h-0.62C15.06,47.76,15.06,49.91,15.06,49.91
			z M23.78,46.26c1.02,0,1.64,0.33,2.02,0.69c0.33,0.32,0.69,0.89,0.69,1.77c0,0.5-0.11,1.12-0.62,1.62
			c-0.27,0.26-0.67,0.5-1.11,0.61l2.44,3.25h-2.24l-2.12-3.12v3.13H21v-7.94H23.78z M22.84,49.86h0.42c0.33,0,0.78-0.04,1.09-0.35
			c0.14-0.14,0.3-0.38,0.3-0.77c0-0.45-0.21-0.69-0.37-0.81c-0.3-0.22-0.77-0.25-1.02-0.25h-0.43V49.86z M33.69,47.8h-2.65v1.54
			h2.52v1.55h-2.52v1.76h2.66v1.55h-4.5v-7.94h4.49V47.8z M38.62,52.65h3.41v1.55h-6.42l3.81-6.39h-3.19v-1.55h6.19L38.62,52.65z
			 M46.98,52.65h3.41v1.55h-6.42l3.81-6.39h-3.19v-1.55h6.19L46.98,52.65z M55.28,50.49l-2.84-4.24h2.17l1.6,2.47l1.6-2.47h2.17
			l-2.84,4.24v3.71h-1.84L55.28,50.49L55.28,50.49z M64.31,46.26c0.43,0,1.4,0.02,2.02,0.61c0.51,0.48,0.57,1.15,0.57,1.5
			c0,0.31-0.05,0.67-0.26,1.02c-0.2,0.33-0.47,0.5-0.67,0.58c0.38,0.06,0.81,0.25,1.09,0.53c0.26,0.26,0.51,0.72,0.51,1.42
			c0,0.8-0.31,1.3-0.62,1.61c-0.66,0.63-1.61,0.68-2.1,0.68h-2.99v-7.94H64.31L64.31,46.26z M63.69,49.48h0.3
			c0.25,0,0.67-0.04,0.93-0.22c0.16-0.12,0.32-0.36,0.32-0.71c0-0.35-0.16-0.56-0.31-0.67c-0.26-0.2-0.62-0.2-0.96-0.2h-0.29
			L63.69,49.48L63.69,49.48z M63.69,52.77h0.44c0.46,0,1.03-0.01,1.35-0.32c0.16-0.15,0.26-0.38,0.26-0.67
			c0-0.32-0.14-0.53-0.25-0.64c-0.32-0.3-0.94-0.3-1.31-0.3h-0.5V52.77z M76.9,47.23c0.75,0.73,1.24,1.77,1.24,3
			c0,1.06-0.38,2.15-1.24,2.98c-0.74,0.72-1.74,1.17-3.08,1.17c-1.49,0-2.51-0.6-3.1-1.17c-0.76-0.72-1.24-1.79-1.24-2.95
			c0-1.14,0.51-2.3,1.23-3.02c0.53-0.53,1.53-1.17,3.11-1.17C75.07,46.07,76.1,46.46,76.9,47.23L76.9,47.23z M72.08,48.44
			c-0.35,0.33-0.71,0.92-0.71,1.8c0,0.73,0.24,1.31,0.73,1.79c0.51,0.48,1.08,0.66,1.7,0.66c0.81,0,1.38-0.3,1.76-0.68
			c0.31-0.3,0.69-0.86,0.69-1.77c0-0.82-0.33-1.43-0.69-1.79c-0.4-0.38-1.03-0.68-1.75-0.68C73.12,47.77,72.5,48.02,72.08,48.44
			L72.08,48.44z M82.23,49.98l-2.47-3.72h2.21l1.31,2.26l1.31-2.26h2.21l-2.47,3.72l2.92,4.22h-2.21l-1.76-2.75l-1.76,2.75h-2.21
			L82.23,49.98L82.23,49.98z"/>
		<path style="fill:#333333;" d="M14.67,53.83h-1.92V45.8h2.84c0.64,0,1.45,0.08,2.11,0.67c0.53,0.46,0.78,1.1,0.78,1.96
			c0,0.78-0.23,1.42-0.69,1.9c-0.62,0.64-1.42,0.72-2.05,0.72h-1.08V53.83L14.67,53.83z M12.83,53.74h1.76v-2.79h1.16
			c0.61,0,1.39-0.08,1.99-0.69c0.44-0.46,0.67-1.08,0.67-1.84c0-0.83-0.25-1.45-0.76-1.9c-0.64-0.58-1.43-0.66-2.05-0.66h-2.77
			V53.74L12.83,53.74z M15.29,49.55h-0.7V47.3h0.66c0.36,0,0.76,0.04,1.05,0.31c0.19,0.18,0.31,0.47,0.31,0.8
			c0,0.32-0.12,0.62-0.31,0.81C15.98,49.55,15.49,49.55,15.29,49.55z M14.67,49.46h0.61c0.19,0,0.66,0,0.96-0.29
			c0.18-0.18,0.28-0.45,0.28-0.75c0-0.3-0.11-0.57-0.28-0.74c-0.26-0.25-0.65-0.29-1-0.29h-0.58L14.67,49.46L14.67,49.46z
			 M26.87,53.83h-2.34l-2.08-3.04v3.04h-1.93V45.8h2.82c1.07,0,1.71,0.38,2.05,0.71c0.26,0.25,0.71,0.82,0.71,1.81
			c0,0.7-0.2,1.24-0.63,1.65c-0.29,0.28-0.68,0.49-1.06,0.6L26.87,53.83z M24.57,53.74h2.14l-2.43-3.24l0.06-0.02
			c0.4-0.1,0.79-0.31,1.09-0.6c0.41-0.4,0.61-0.92,0.61-1.59c0-0.95-0.43-1.5-0.68-1.74c-0.33-0.31-0.95-0.68-1.99-0.68h-2.76v7.86
			h1.75v-3.22L24.57,53.74L24.57,53.74z M22.82,49.5h-0.45v-2.26h0.47c0.32,0,0.75,0.05,1.04,0.26c0.25,0.19,0.39,0.48,0.39,0.84
			c0,0.43-0.19,0.69-0.31,0.8C23.63,49.45,23.17,49.5,22.82,49.5L22.82,49.5z M22.45,49.41h0.38c0.34,0,0.77-0.04,1.06-0.33
			c0.11-0.11,0.29-0.35,0.29-0.74c0-0.34-0.12-0.6-0.36-0.77c-0.2-0.15-0.55-0.24-0.99-0.24h-0.39L22.45,49.41L22.45,49.41z
			 M33.3,53.83h-4.58V45.8h4.58v1.63h-2.65v1.45h2.52v1.63h-2.52v1.68h2.66L33.3,53.83L33.3,53.83z M28.81,53.74h4.41v-1.46h-2.66
			v-1.85h2.52v-1.47h-2.52v-1.62h2.66v-1.47h-4.41V53.74L28.81,53.74z M41.64,53.83h-6.53l3.81-6.39h-3.16V45.8h6.31l-3.8,6.39h3.38
			V53.83z M35.26,53.74h6.31v-1.46h-3.43l3.8-6.39h-6.08v1.47h3.22L35.26,53.74z M50,53.83h-6.53l3.81-6.39h-3.16V45.8h6.31
			l-3.8,6.39H50V53.83z M43.62,53.74h6.31v-1.46h-3.43l3.8-6.39h-6.08v1.47h3.22L43.62,53.74z M56.72,53.83h-1.92V50.1l-2.88-4.3
			h2.26l1.58,2.43l1.58-2.43h2.26l-2.88,4.3V53.83z M54.9,53.74h1.75v-3.68l2.82-4.19h-2.07l-1.62,2.5l-1.63-2.5h-2.07l2.82,4.19
			V53.74L54.9,53.74z M64.44,53.83h-3.03V45.8h2.47c0.35,0,1.39,0,2.05,0.62c0.48,0.46,0.58,1.08,0.58,1.53
			c0,0.41-0.09,0.74-0.27,1.04c-0.16,0.28-0.39,0.45-0.57,0.54c0.38,0.09,0.75,0.28,1,0.52c0.24,0.24,0.52,0.69,0.52,1.45
			c0,0.67-0.21,1.22-0.63,1.63C66.09,53.6,65.39,53.83,64.44,53.83z M61.49,53.74h2.95c0.93,0,1.61-0.22,2.07-0.67
			c0.41-0.41,0.61-0.94,0.61-1.58c0-0.74-0.27-1.16-0.5-1.39c-0.26-0.26-0.67-0.46-1.07-0.52l-0.14-0.02l0.13-0.06
			c0.19-0.09,0.45-0.25,0.65-0.57c0.17-0.28,0.25-0.6,0.25-0.99c0-0.43-0.1-1.04-0.56-1.47c-0.63-0.6-1.66-0.6-1.99-0.6h-2.39V53.74
			z M63.71,52.4h-0.48v-2.01h0.54c0.38,0,1.01,0,1.33,0.31c0.08,0.07,0.26,0.28,0.26,0.68c0,0.29-0.1,0.53-0.27,0.7
			C64.73,52.4,64.11,52.4,63.71,52.4z M63.3,52.32h0.4c0.4,0,1,0,1.33-0.31c0.16-0.15,0.25-0.37,0.25-0.64
			c0-0.37-0.18-0.56-0.23-0.61c-0.31-0.29-0.92-0.29-1.29-0.29H63.3L63.3,52.32L63.3,52.32z M63.56,49.11h-0.34v-1.88h0.33
			c0.33,0,0.71,0,0.98,0.21c0.1,0.08,0.33,0.29,0.33,0.7c0,0.31-0.13,0.58-0.34,0.74C64.23,49.08,63.8,49.11,63.56,49.11
			L63.56,49.11z M63.3,49.03h0.26c0.18,0,0.64-0.02,0.91-0.22c0.19-0.14,0.31-0.39,0.31-0.67c0-0.38-0.2-0.57-0.29-0.64
			c-0.25-0.19-0.6-0.19-0.93-0.19h-0.24v1.72H63.3z M73.4,54.01c-1.65,0-2.67-0.74-3.12-1.18c-0.79-0.74-1.25-1.84-1.25-2.98
			c0-1.09,0.48-2.29,1.24-3.05c0.44-0.45,1.43-1.18,3.13-1.18c1.26,0,2.3,0.4,3.11,1.17c0.8,0.78,1.25,1.86,1.25,3.03
			c0,1.15-0.44,2.23-1.25,3.01C75.69,53.61,74.65,54.01,73.4,54.01z M73.4,45.7c-1.59,0-2.55,0.63-3.08,1.15
			c-0.74,0.74-1.22,1.91-1.22,2.99c0,1.13,0.44,2.2,1.23,2.92c0.45,0.44,1.45,1.16,3.07,1.16c1.23,0,2.25-0.39,3.05-1.15
			c0.79-0.76,1.23-1.82,1.23-2.95c0-1.15-0.44-2.21-1.23-2.97C75.66,46.09,74.64,45.7,73.4,45.7L73.4,45.7z M73.37,52.31
			c-0.71,0-1.26-0.21-1.73-0.67c-0.49-0.48-0.74-1.08-0.74-1.82c0-0.99,0.44-1.57,0.72-1.83c0.44-0.44,1.07-0.69,1.77-0.69
			c0.67,0,1.33,0.26,1.78,0.69c0.44,0.45,0.71,1.11,0.71,1.82c0,0.93-0.39,1.5-0.71,1.81C74.72,52.08,74.1,52.31,73.37,52.31
			L73.37,52.31z M73.38,47.4c-0.68,0-1.28,0.23-1.71,0.67c-0.26,0.25-0.69,0.81-0.69,1.77c0,0.72,0.23,1.29,0.72,1.76
			c0.46,0.44,1,0.65,1.67,0.65c0.7,0,1.3-0.23,1.73-0.67c0.31-0.3,0.68-0.84,0.68-1.74c0-0.98-0.47-1.56-0.68-1.76
			C74.68,47.65,74.03,47.4,73.38,47.4L73.38,47.4z M86.9,53.83h-2.3l-1.74-2.72l-1.74,2.72h-2.3l2.95-4.26l-2.5-3.77h2.3l1.29,2.22
			l1.29-2.22h2.3l-2.5,3.77L86.9,53.83z M84.63,53.74h2.1l-2.89-4.18l2.44-3.69h-2.1l-1.33,2.3l-1.33-2.3h-2.11l2.44,3.69
			l-0.02,0.02l-2.87,4.15h2.1l1.79-2.79L84.63,53.74L84.63,53.74z"/>
	</g>
</g>
</svg>
