<?xml version="1.0" encoding="utf-8"?>
<svg version="1.1" id="Layer_1" xmlns="http://www.w3.org/2000/svg" xmlns:xlink="http://www.w3.org/1999/xlink" x="0px" y="0px"
	width="100px" height="100px" viewBox="0 0 66.7 66.7" style="enable-background:new 0 0 66.7 66.7;" xml:space="preserve">
<g>
	<path style="fill:#323232;" d="M33.3,4.2c16.1,0,29.1,13,29.1,29.1s-13,29.1-29.1,29.1S4.2,49.5,4.2,33.3S17.2,4.2,33.3,4.2
		 M33.3,0C24.5,0,16.1,3.5,9.7,9.7C3.5,16.1,0,24.5,0,33.3s3.5,17.3,9.7,23.6c6.3,6.3,14.7,9.7,23.6,9.7c8.9,0,17.3-3.5,23.6-9.7
		c6.3-6.3,9.7-14.7,9.7-23.6c0-8.9-3.5-17.3-9.7-23.6C50.6,3.5,42.2,0,33.3,0z"/>
	<path style="fill:#C8102E;" d="M51.7,38.7c0-4.5-9.2-12.2-9.2-12.2c-0.9-0.7-1.7-1.5-2.4-2.1c-1.2-1.2-1.2-2.8-0.7-5.3
		c0.6-4.1,3.9-5.1,3.9-5.1l0.5,0.1c0.3-2.8-2.9-2-2.9-2L40,13.4l-2.4,0.1l0.7-1.1l1.3,0.4l0.7-1.1c0,0-0.7-0.6-1.3-0.5l-5,0.9
		c-2.7,0.7-3.5,2.5-4.7,6l1.7-1.1l-2,3.8l1.7-0.9c0,0-1.9,3.7-6.4,7c0,0-9.2,7.3-9.2,11.9c0,0,1.3,15.3,6.8,19.4
		c-1.3-2.6-2.9-5.6-2.5-14c0,3,0.5,6.9,4.5,14.8c0.7,0.3,1.4,0.5,2.1,0.7c-1.2-3.9-2.6-7.7-2.4-17c0,2.5,0.3,8,4.1,17.4
		c0.7,0.1,0.9,0.2,1.7,0.3c-0.5-1.9-0.9-3.9-1.3-6.3c0.4,2.1,1.2,4.2,2.2,6.4c1,0.1,2,0.1,3.1,0.1s2.1-0.1,3.2-0.2
		c0.9-2.3,1.7-4.4,2-6.5c-0.3,2.4-0.5,4.5-1.1,6.4c0.7-0.1,1.1-0.2,1.8-0.4c3.7-9.1,4-14.5,4-17.2v-0.1v0.1
		c0.2,9.2-1.1,12.9-2.3,16.8c0.7-0.2,1.4-0.4,2.1-0.7c4.1-8,4.5-11.9,4.5-14.7c0.3,8.3-1.2,11.3-2.5,13.9
		C51.4,52.5,51.7,38.7,51.7,38.7L51.7,38.7L51.7,38.7L51.7,38.7z M58.4,27.8C55.9,16.3,45.6,7.6,33.3,7.6S10.7,16.2,8.2,27.8h0.1
		c0.1-0.5,2.4-2.9,2.4-2.9c-2.3,5.1-2.5,14.1-1.5,17.3l0,0c-0.3-1.7,2-7.5,2-7.5c-1.1,5.3,1.1,15,5.3,18.3
		c-2.9-7.5-2.7-13.9-2.7-14.3v0.1c0-5.1,8.7-12.1,9.7-12.9l0,0c1-0.7,1.8-1.5,2.5-2.2l1.5-2.9c-0.3,0.2-0.8,0.5-0.8,0.5l1.3-3.6
		c1.3-3.5,2.3-5.9,5.7-6.8h0.1l5.1-0.9c1-0.2,2,0.5,2.3,0.7c0.7-0.1,2.1-0.1,3.1,0.7c0.5,0.5,1.1,1.3,0.9,2.8l-0.1,1.3l-1.3-0.3
		c-0.7,0.3-2.5,1.4-2.8,4l0,0c-0.2,0.9-0.3,1.7-0.3,2.3c0,0.9,0.2,1.4,0.6,1.9c0.6,0.7,1.3,1.3,2.3,2l0,0c1,0.8,9.3,7.9,9.7,12.9
		v0.7v1.2c0,0.9-0.1,2.5-0.5,4.3c-0.3,2.1-1,5.1-2.1,8.1c4.3-4.2,6.1-12.9,5.1-18.1c0,0,2.2,5.8,2,7.5l0,0
		c1.3-3.4,0.2-13.9-1.5-17.3C56.1,24.9,58.3,27.3,58.4,27.8L58.4,27.8z"/>
</g>
</svg>
