<svg xmlns="http://www.w3.org/2000/svg" viewBox="0 0 455.4 132"><path d="M308.2 36.6h-.2c-4.8 0-9.5 1.9-12.9 5.4-3.4-3.4-8-5.3-12.9-5.4h-.2c-9.9 0-18 8-18 17.9v.1 34.9c.1 2.8 2.5 5 5.4 4.9 2.7-.1 4.8-2.3 4.9-4.9V54.6c0-4.2 3.4-7.7 7.7-7.7h.1.2c4.2 0 7.6 3.3 7.7 7.5v35.1c.3 2.5 2 4.9 4.9 4.9 2.8 0 5-2.2 5.1-4.9V54.2c.2-4.1 3.6-7.4 7.7-7.5h.2c4.2 0 7.7 3.4 7.7 7.7v.1 35.1c.1 2.8 2.5 5 5.4 4.9 2.7-.1 4.8-2.3 4.9-4.9v-35c.1-9.8-7.8-17.9-17.6-18 0 0-.1 0-.1 0zm-60.9 0c-2.8 0-5 2.2-5.1 4.9v34.9c0 4.3-3.5 7.7-7.7 7.7h-.2-.3c-4.3 0-7.8-3.4-7.9-7.7v-35c-.1-2.8-2.5-5-5.4-4.9-2.7.1-4.8 2.3-4.9 4.9v34.9c.1 10 8.2 18 18.2 18h.2c10 0 18.1-8 18.2-18V41.6c0-2.8-2.3-5-5.1-5h0zm121.7 0c-2.8 0-5 2.2-5.1 4.9v34.9c0 4.3-3.5 7.7-7.7 7.7h-.2-.2c-4.3 0-7.8-3.4-7.9-7.7v-35c-.1-2.8-2.5-5-5.4-4.9-2.7.1-4.8 2.3-4.9 4.9v34.9c.1 10 8.2 18 18.2 18h.2c10 0 18.1-8 18.2-18V41.6c-.2-2.8-2.4-4.9-5.2-5h0z" fill-rule="evenodd"/><path d="M403.1 36.6h-.2c-10.1-.1-18.3 8-18.4 18.1v.2 63.4c0 2.8 2.3 5.2 5.1 5.2s5.2-2.3 5.2-5.1V91.9c1.9 1.7 5.1 2.6 8.1 2.6h.2c10.3 0 18-8.8 18-18.9V54.4c0-10-7.7-17.8-18-17.8h0zm8.1 39.5c0 5.6-3.6 7.9-7.9 7.9h-.2c-4.5 0-7.9-2.4-7.9-7.9V54.9c.1-4.4 3.6-7.9 7.9-7.9h.2c4.3-.1 7.8 3.3 7.9 7.6v.3 21.2z"/><path d="M190.5 59.6c-5.8-2.4-9.4-3.9-9.4-7.3 0-2.8 2.1-5.4 7.1-5.4 3 0 5.8 1.4 7.5 3.9 1.3 1.5 2.6 2.4 4.1 2.4 2.9.1 5.3-2.2 5.4-5.1.1-1-.2-2-.9-2.8-3.2-4.9-9.9-8.4-16.1-8.4-8.6 0-17.4 5.4-17.4 15.6 0 10.5 8.6 13.9 15.6 16.5 5.6 2.1 10.5 4.1 10.5 8.6 0 3.4-3.2 6.9-9.2 6.9-2.9.1-5.7-1.1-7.7-3.2-1-1.3-2.5-2.1-4.1-2.1-2.9 0-5.2 2.3-5.4 5.1 0 1.1.4 2.1 1.1 3 3.2 4.9 10.5 7.3 16.1 7.3 9.4 0 19.7-6 19.7-16.9-.2-11.7-9.4-15.3-16.9-18.1h0z" fill-rule="evenodd"/><path d="M123.2 0H9.4A9.39 9.39 0 0 0 0 9.4v113.1a9.39 9.39 0 0 0 9.4 9.4h113.8a9.39 9.39 0 0 0 9.4-9.4V9.4c0-5.2-4.1-9.4-9.3-9.4h-.1 0zM83.1 99.2c-11.5 11.5-29.9 12.1-42.2 1.5l-.2-.2a1.93 1.93 0 0 1 0-2.8l41.1-40.9c.8-.6 2-.6 2.8 0 10.9 12.3 10.2 30.9-1.5 42.4h0zm8.6-65.3L50.6 74.8c-.8.6-2 .6-2.8 0-11.3-12.8-10-32.3 2.8-43.6 11.6-10.2 29-10.3 40.7-.1.1 0 .2.1.2.2.7.4 1 1.3.7 2-.1.2-.3.4-.5.6h0zm353.4 2.7c-5.7 0-10.3 4.6-10.3 10.3s4.6 10.3 10.3 10.3 10.3-4.6 10.3-10.3c0-5.6-4.6-10.3-10.3-10.3h0zm0 18c-4.3 0-7.7-3.5-7.7-7.7s3.5-7.7 7.7-7.7c4.3 0 7.7 3.5 7.7 7.7 0 4.3-3.4 7.7-7.7 7.7zm1.1-7.2c1.3-.2 2.2-1.3 2.1-2.6 0-1.7-1.3-2.8-3.2-2.8h-2.6c-.6 0-1 .4-1.1.9v.1 7.1a1.11 1.11 0 0 0 1.1 1.1 1.11 1.11 0 0 0 1.1-1.1v-2.6l2.6 3.2c.2.4.4.4 1.1.4.6 0 1-.4 1.1-.9v-.1c0-.3-.2-.7-.4-.9l-1.8-1.8zm-.9-1.5H444v-2.1h1.3c.6 0 1 .4 1.1.9v.1a1.27 1.27 0 0 1-1.1 1.1h0z"/></svg>