<svg xmlns="http://www.w3.org/2000/svg" height="40" width="204" fill="#f06c00" fill-rule="evenodd" xmlns:v="https://vecta.io/nano"><path d="M191.375 13.863c0 3.857 12.444 2.105 12.444 9.811 0 8.975-9.959 8.921-15.366 6.481-.586-.287-.725-.725-.725-1.266v-1.898c0-.684.287-.884.77-.884.345 0 .639.154.931.399 4.181 3.219 9.992 2.866 9.992-.487 0-4.205-12.286-2.596-12.286-10.351 0-6.87 8.488-8.291 14.822-5.653.596.231.744.725.744 1.266v1.603c0 .691-.296.884-.789.884-.249 0-.631-.193-.929-.389-3.507-2.392-9.607-2.686-9.607.484zM186.917 1.03c4.257 0 1.661 8.636-.642 8.636h-1.024c-.355 0-.596-.194-.596-.435 0-.636.789-1.379.789-3.434 0-2.021-1.473-3.487-1.473-4.081 0-.293.098-.685.631-.685zm-13.843 32.226c-1.221 3.156-4.729 5.798-8.492 5.798-.638 0-1.21 0-2.051-.253-.628-.144-.967-.526-.967-1.017v-2.778c0-.343.297-.68.635-.68.534 0 .924.144 1.51.295 3.852 1.076 7.268-.151 7.368-3.764l-8.878-20.535c-.198-.487-.25-.629-.25-.774 0-.292.147-.44.438-.44h5.331c.431 0 .626.148.774.537l4.966 13.169.295.922.292-.922 4.83-13.169c.101-.34.343-.537.691-.537h2.234c.243 0 .445.197.445.44 0 .191-.102.332-.203.631zM159.469 8.957c.631.149.971.546.971 1.027v3.08c0 .329-.292.68-.642.68-.526 0-1.024-.203-1.649-.351-2.646-.533-6.631-.386-6.631 3.813v13.162a.57.57 0 0 1-.582.59h-4.692c-.244 0-.486-.246-.486-.59V9.693c0-.346.241-.586.486-.586h4.544a.56.56 0 0 1 .582.586l.099 2.628c.932-1.36 3.129-3.606 5.838-3.606.635 0 1.228 0 2.162.243zm-18.491.151c.329 0 .582.24.582.586v13.652c0 6.047-4.872 8.1-9.753 8.1-4.834 0-9.71-2.053-9.71-7.512V9.694c0-.346.243-.586.49-.586h4.685a.56.56 0 0 1 .582.586v15.36c0 2.301 1.467 3.708 3.954 3.708 3.034 0 4.001-1.704 4.001-4.877V9.694c0-.346.249-.586.494-.586zm-29.993-.264c5.025 0 8.193 4.392 8.193 10.237 0 7.521-5.219 12.491-11.662 12.491-3.518 0-6.093-1.225-7.797-2.534-.73-.536-.881-1.458-.881-2.241V1.621c0-.339.241-.58.484-.58h4.675c.342 0 .59.241.59.58v9.707c.925-.774 3.071-2.484 6.397-2.484zM107.9 28.941c3.122 0 5.331-3.214 5.331-8.686 0-2.043-.453-7.801-4.885-7.801-1.761 0-3.034.974-3.76 1.508v13.18c0 .438.091.868.684 1.263.484.286 1.218.536 2.629.536zM83.764 13.863c0 3.857 12.434 2.105 12.434 9.811 0 8.975-9.957 8.921-15.356 6.481-.599-.287-.743-.725-.743-1.266v-1.898c0-.684.302-.884.786-.884.336 0 .634.154.925.399 4.198 3.219 9.996 2.866 9.996-.487 0-4.205-12.283-2.596-12.283-10.351 0-6.87 8.477-8.291 14.826-5.653.582.231.727.725.727 1.266v1.603c0 .691-.289.884-.773.884-.246 0-.645-.193-.929-.389-3.518-2.392-9.61-2.686-9.61.484zM69.685 8.6c4.703 0 6.811 2.74 6.811 6.703V30.43a.57.57 0 0 1-.589.592h-4.703c-.238 0-.48-.246-.48-.592V15.797c0-1.665-.197-3.629-3.438-3.629-1.662 0-3.616.974-4.548 1.524V30.43a.57.57 0 0 1-.596.592h-4.693c-.246 0-.491-.246-.491-.592V9.677c0-.345.246-.596.491-.596H62c.351 0 .589.251.589.596l.102 1.122c1.462-.886 4.304-2.199 6.993-2.199zm-18.116.569a.56.56 0 0 1 .579.579V30.43a.56.56 0 0 1-.579.59h-4.683c-.244 0-.49-.244-.49-.59V9.747c0-.335.246-.579.49-.579zm-5.563-5.613c0-1.462 1.024-2.732 3.161-2.735h.02c2.041.003 3.066 1.273 3.066 2.735 0 1.757-1.174 2.928-3.076 2.928-1.908 0-3.171-1.171-3.171-2.928zM33.222 8.558c6.884 0 8.982 2.732 8.982 6.685v15.174a.56.56 0 0 1-.585.578h-4.441c-.243 0-.48-.238-.48-.578l-.109-1.27c-1.564 1.36-3.413 2.339-5.657 2.339-4.1 0-7.611-2.339-7.611-6.731 0-5.324 5.9-6.482 8.49-6.828 4.245-.54 4.637-.827 4.637-1.954 0-2.391-.438-4.346-3.421-4.346-2.388 0-4.191.835-6.004 2.051-.292.2-.727.737-1.312.737-.287 0-.823-.299-.823-.974v-2.194c0-.448.191-.886.728-1.178 1.954-.971 4.974-1.511 7.604-1.511zm3.227 17.663v-6.452c-5.419 0-7.466 2.445-7.466 5.083 0 1.856.974 3.698 3.556 3.698 2.251 0 3.91-1.698 3.91-2.329zM5.422 7.682c0 5.554 15.467 4.975 15.467 13.996 0 9.796-11.664 12.049-19.861 8.19-.483-.299-.579-.539-.579-.978v-2.48c0-.448.149-.884.977-.884.441 0 .724.251 1.363.688 6.782 4.728 12.628 1.898 12.628-2.155 0-6.675-15.214-4.63-15.214-14.487 0-4.53 3.513-8.532 10.003-8.532 3.217 0 6.136.629 7.804 1.261.44.203.532.448.532.878v2.836c0 .441-.147.782-.674.782-.442 0-.789-.247-1.323-.635-1.945-1.412-3.808-2.241-6.246-2.241-2.725 0-4.876 1.507-4.876 3.761z"/></svg>