<?xml version="1.0"?>
<svg xmlns="http://www.w3.org/2000/svg" xmlns:xlink="http://www.w3.org/1999/xlink" xmlns:svgjs="http://svgjs.com/svgjs" version="1.1" width="512" height="512" x="0" y="0" viewBox="0 0 512 512" style="enable-background:new 0 0 512 512" xml:space="preserve" class=""><g><path xmlns="http://www.w3.org/2000/svg" d="m512 256c0 141.386719-114.613281 256-256 256s-256-114.613281-256-256 114.613281-256 256-256 256 114.613281 256 256zm0 0" fill="#f1f1f1" data-original="#966442" style="" class=""/><path xmlns="http://www.w3.org/2000/svg" d="m512 256c0-10.917969-.6875-21.675781-2.015625-32.234375l-85.484375-85.488281-325.832031 152.746094-11.167969 106.953124 106.429688 106.429688c19.875 4.949219 40.664062 7.59375 62.070312 7.59375 141.386719 0 256-114.613281 256-256zm0 0" fill="#f1f1f1" data-original="#66402d" style="" class=""/><path xmlns="http://www.w3.org/2000/svg" d="m97 138.277344h318v204.535156h-318zm0 0" fill="#a0f6fa" data-original="#a0f6fa" style="" class=""/><path xmlns="http://www.w3.org/2000/svg" d="m255.808594 138.277344h159.191406v204.535156h-159.191406zm0 0" fill="#53edf5" data-original="#53edf5" style="" class=""/><path xmlns="http://www.w3.org/2000/svg" d="m424.5 352.3125h-337v-214.035156h19v195.035156h299v-195.035156h19zm0 0" fill="#ffffff" data-original="#ffffff" style="" class=""/><path xmlns="http://www.w3.org/2000/svg" d="m424.5 138.277344h-19v195.035156h-149.691406v19h168.691406zm0 0" fill="#e9edf5" data-original="#e9edf5" style="" class=""/><path xmlns="http://www.w3.org/2000/svg" d="m87.5 310.085938h19v87.890624h-19zm0 0" fill="#ffffff" data-original="#ffffff" style="" class=""/><path xmlns="http://www.w3.org/2000/svg" d="m405.5 310.085938h19v87.890624h-19zm0 0" fill="#e9edf5" data-original="#e9edf5" style="" class=""/><path xmlns="http://www.w3.org/2000/svg" d="m196.203125 190.253906c-5.074219 0-9.640625 3.023438-12.796875 5.851563-4.648438-4.753907-12.730469-11.316407-21.925781-11.316407-14.414063 0-26.097657 7.21875-26.097657 16.121094 0 8.90625 11.683594 16.125 26.097657 16.125 9.199219 0 17.277343-6.5625 21.925781-11.316406 3.15625 2.828125 7.722656 5.851562 12.796875 5.851562zm0 0" fill="#ff583e" data-original="#ff583e" style=""/><path xmlns="http://www.w3.org/2000/svg" d="m152.679688 200.914062c0 2.175782-1.769532 3.945313-3.945313 3.945313-2.179687 0-3.945313-1.769531-3.945313-3.945313 0-2.179687 1.765626-3.945312 3.945313-3.945312 2.175781 0 3.945313 1.765625 3.945313 3.945312zm0 0" fill="#f1f1f1" data-original="#966442" style="" class=""/><path xmlns="http://www.w3.org/2000/svg" d="m352.308594 190.929688c-6.632813 0-12.597656 3.953124-16.722656 7.644531-6.074219-6.207031-16.636719-14.785157-28.652344-14.785157-18.835938 0-34.105469 9.433594-34.105469 21.070313 0 11.632813 15.269531 21.066406 34.105469 21.066406 12.019531 0 22.578125-8.578125 28.652344-14.785156 4.125 3.695313 10.089843 7.644531 16.722656 7.644531zm0 0" fill="#db0404" data-original="#db0404" style="" class=""/><path xmlns="http://www.w3.org/2000/svg" d="m295.433594 204.859375c0 2.84375-2.308594 5.152344-5.15625 5.152344s-5.15625-2.308594-5.15625-5.152344c0-2.847656 2.308594-5.15625 5.15625-5.15625s5.15625 2.308594 5.15625 5.15625zm0 0" fill="#f1f1f1" data-original="#66402d" style="" class=""/><g xmlns="http://www.w3.org/2000/svg" fill="#fff"><path d="m184.46875 262.632812c0 6.324219-5.125 11.453126-11.453125 11.453126-6.324219 0-11.453125-5.128907-11.453125-11.453126 0-6.328124 5.128906-11.453124 11.453125-11.453124 6.328125 0 11.453125 5.125 11.453125 11.453124zm0 0" fill="#ffffff" data-original="#ffffff" style="" class=""/><path d="m207.660156 298.667969c0 4.367187-3.542968 7.910156-7.910156 7.910156s-7.910156-3.542969-7.910156-7.910156c0-4.367188 3.542968-7.90625 7.910156-7.90625s7.910156 3.539062 7.910156 7.90625zm0 0" fill="#ffffff" data-original="#ffffff" style="" class=""/><path d="m240.523438 168.542969c0 6.328125-5.128907 11.453125-11.453126 11.453125-6.328124 0-11.453124-5.125-11.453124-11.453125 0-6.324219 5.125-11.453125 11.453124-11.453125 6.324219 0 11.453126 5.128906 11.453126 11.453125zm0 0" fill="#ffffff" data-original="#ffffff" style="" class=""/><path d="m263.710938 204.582031c0 4.367188-3.539063 7.910157-7.90625 7.910157-4.371094 0-7.910157-3.542969-7.910157-7.910157 0-4.367187 3.539063-7.910156 7.910157-7.910156 4.367187 0 7.90625 3.542969 7.90625 7.910156zm0 0" fill="#ffffff" data-original="#ffffff" style="" class=""/></g><path xmlns="http://www.w3.org/2000/svg" d="m263.710938 204.582031c0-4.367187-3.535157-7.90625-7.902344-7.910156v15.820313c4.367187-.003907 7.902344-3.542969 7.902344-7.910157zm0 0" fill="#e9edf5" data-original="#e9edf5" style="" class=""/><path xmlns="http://www.w3.org/2000/svg" d="m379.425781 332.875h-27.117187v-45.789062c0-22.75 3.964844-45.328126 11.71875-66.722657l1.839844-5.066406 1.835937 5.066406c7.753906 21.394531 11.722656 43.972657 11.722656 66.722657zm0 0" fill="#5fad14" data-original="#5fad14" style=""/><path xmlns="http://www.w3.org/2000/svg" d="m337.78125 332.875h-20.070312v-33.886719c0-16.839843 2.9375-33.546875 8.675781-49.378906l1.359375-3.75 1.359375 3.75c5.738281 15.832031 8.675781 32.542969 8.675781 49.378906zm0 0" fill="#5fad14" data-original="#5fad14" style=""/></g></svg>
