<svg id="Layer_1" data-name="Layer 1" xmlns="http://www.w3.org/2000/svg" viewBox="0 0 808.3 808.3"><defs><style>.cls-1{fill:#5d8000;}.cls-2{fill:#fff;}</style></defs><path class="cls-1" d="M404.15,0h0C627.36,0,808.3,180.94,808.3,404.15h0c0,223.21-180.94,404.15-404.15,404.15h0C180.94,808.3,0,627.36,0,404.15H0C-.08,181,180.94,0,404.15,0Z"/><path class="cls-2" d="M209,465.61l-29.67-70.17-30.55,70.17L103.7,358.85h17.94l27.17,68.21,30.55-73.53L209,427.06l27.17-68.21h17.94Zm102.31-4.09V451.4c-5.15,7.28-14.39,11.54-24.51,11.54-20.43,0-39.44-15.81-39.44-39.25,0-22.92,17.77-39.44,39.44-39.44,10.12,0,19.36,4.27,24.51,11.55V385.68h15.81v75.84Zm-24.51-63.06c-11.73,0-23.09,8-23.09,25.23,0,16.52,11.36,25,23.09,25,16.16,0,24.51-9.94,24.51-25.22S303,398.46,286.83,398.46Zm64.65-30.72a9.41,9.41,0,0,1-9.23-9.24,9.25,9.25,0,0,1,9.23-9.06,9.1,9.1,0,0,1,9.06,9.06A9.25,9.25,0,0,1,351.48,367.74Zm-8,93.78V385.68H359.3v75.84Zm59.68-62v62H387.36v-62H372.62V385.68h14.74V358.5l15.81-15.81v43h17.05v13.85Zm72.12,1.6a17.13,17.13,0,0,0-10-2.67c-9.24,0-16.52,5.69-16.52,18.3v44.76H433V385.68h15.81v10.65c4.44-8.7,11.55-12.08,19.18-12.08,5.51,0,12.62,1.78,17.77,6.58l-10.48,10.3Zm48.49,61.81c-22.38,0-40.14-16.69-40.14-39.43s17.76-39.26,40.14-39.26,40.14,16.52,40.14,39.26-17.76,39.43-40.14,39.43Zm0-64.48c-14.92,0-23.8,10.48-23.8,25.05s8.88,25.22,23.8,25.22,23.8-10.66,23.8-25.22S538.7,398.46,523.78,398.46Zm75.13,64.48c-8,0-15.63-1.77-25.75-7.28V439.5c7.46,5,17.58,9.77,25.22,9.77,5.69,0,11.37-1.43,11.37-7.11,0-4.62-2.13-6.57-16-14.39-12.25-6.92-20.25-12.43-20.25-22.56,0-12.25,9.06-21,25.58-21a48.27,48.27,0,0,1,23.09,6v15.63c-6.92-4.44-15.45-7.81-23.09-7.81-6,0-9.77,2.31-9.77,6.22,0,3.19,1.07,4.79,14.92,12.43s21.5,12.79,21.5,24C625.74,455,614.55,462.94,598.91,462.94Zm51.16-35.17c1.78,15.63,11.19,21,22.2,21a44.39,44.39,0,0,0,19.19-4.79l10.48,10.3a54,54,0,0,1-29.13,8.7c-20.61,0-38.73-13.14-38.73-40.32,0-22.73,14.75-38.37,36.06-38.37,20.61,0,34.46,14,34.46,42.28v1.24Zm20.07-29.48c-9.41,0-16.87,5.86-19,16.34h36.23c-.53-9.59-7.28-16.34-17.23-16.34Z"/></svg>