<?xml version="1.0" encoding="utf-8"?>
<!-- Generator: Adobe Illustrator 24.2.1, SVG Export Plug-In . SVG Version: 6.00 Build 0)  -->
<svg version="1.1" id="Layer_1" xmlns="http://www.w3.org/2000/svg" xmlns:xlink="http://www.w3.org/1999/xlink" x="0px" y="0px"
	 viewBox="0 0 293.7 76.4" style="enable-background:new 0 0 293.7 76.4;" xml:space="preserve">
<g>
	<path d="M0,0c23.2,2.4,46.2,4.8,69.3,7.3c-0.7,4.1-1.3,8.1-1.9,12.1c-0.3,1.9-0.7,3.7-0.9,5.6c-0.1,1-0.5,1.4-1.5,1.4
		c-4.7,0.4-9.4,0.9-14,1.4c-6.4,0.7-12.7,1.3-19.1,2.2c1.2,0.1,2.3,0.3,3.5,0.4c6.5,0.7,12.9,1.4,19.4,2c1.1,0.1,1.6,0.4,1.7,1.6
		c0.2,5.5,0.6,11,0.9,16.5c0,0.4,0,0.9,0,1.5h-1.5c-5.2,0-10.4,0-15.6,0c-1,0-1.3,0.3-1.5,1.3c-1.1,7.4-2.3,14.8-3.5,22.1
		c0,0.3-0.1,0.5-0.3,0.9C27.4,75.6,20,74.8,12.4,74c-0.2-3.3-0.4-6.6-0.6-9.8c-0.1-1.8-0.1-3.6-0.3-5.4c-0.1-1.1,0.2-1.5,1.2-1.8
		c4.7-1.4,9.3-2.9,14-4.3c0.4-0.1,0.8-0.2,1.1-0.6H5.1C6.2,45.4,7.2,39,8.2,32.3C6,32.5,4,32.7,1.8,32.9C1.2,21.9,0.6,11,0,0"/>
	<path d="M250.1,61.6c-3,0-5.7,0-8.4,0c-0.4,0-0.8-0.5-1.1-0.9c-2.4-3.5-4.8-6.9-7.2-10.4c-0.3-0.4-0.5-0.7-0.8-1.1
		c-1.7,1.4-3.2,2.6-2.9,5.2c0.3,2.3,0.1,4.8,0.1,7.2h-7.1V24.9c2.3-0.3,4.6-0.6,7.1-1v18.8c0.5-0.4,0.8-0.6,1.1-0.9
		c2.7-2.6,5.4-5.2,8.2-7.8c0.5-0.4,1.2-0.7,1.9-0.8c2.5-0.1,5,0,7.9,0c-3.8,3.7-7.4,7.2-11.1,10.8C241.8,49.8,245.9,55.6,250.1,61.6
		"/>
	<path d="M124.3,44c-0.1-3.2-2.4-5.2-5.9-5.1c-3.3,0.1-5.9,2.3-5.9,5.1H124.3z M131.8,49.7h-19.5c0.2,3.4,1.7,5.5,4.2,6.2
		c3.4,0.9,5.4,0,7.4-3.3c2.2,0.3,4.4,0.6,6.8,1c-0.6,2.5-2,4.4-3.8,6c-5.1,4.4-14.3,3.6-18.7-1.4c-4.4-5.1-4.9-17.9,2.2-23
		c4.3-3.1,9-3.5,13.8-1.5c4.6,1.9,6.7,5.9,7.3,10.7C131.8,46,131.7,47.8,131.8,49.7"/>
	<path d="M269.4,44c-0.4-3.4-2.6-5.2-6-5.1c-3.3,0.1-5.7,2.2-5.8,5.1H269.4z M276.6,49.7h-19.3c-0.1,3,1.5,5.4,4,6.1
		c3.1,0.8,6.1,0,7.3-2.7c0.1-0.3,0.6-0.5,0.9-0.5c2,0.2,4.1,0.5,6.2,0.8c-0.8,3.2-2.7,5.4-5.3,7c-8.8,5.4-19.6-0.3-20.4-10.7
		c-0.3-3.7,0.1-7.4,1.9-10.7c2.8-4.9,8.2-7.3,14.4-6.3c5.1,0.8,8.9,4.8,9.9,10.2c0.3,1.4,0.3,2.9,0.4,4.3
		C276.8,48,276.7,48.7,276.6,49.7"/>
	<path d="M158.2,40.9c-2.3,0.3-4.5,0.6-6.6,0.9c-1.4-3-3.3-3.9-6.5-3.2c-1.1,0.2-2,0.7-2.1,1.9c-0.1,1.2,0.6,1.9,1.6,2.2
		c2.2,0.8,4.5,1.5,6.7,2.3c1,0.4,2,0.7,3,1.2c2.8,1.3,4.5,3.3,4.6,6.5c0.1,3.3-1.1,6-4,7.7c-3.1,1.8-6.5,2.1-10,1.8
		c-2.5-0.2-4.9-0.9-6.9-2.4c-2.1-1.6-3.2-3.7-3.1-6.5c2.3-0.3,4.5-0.6,6.7-1c1.4,3.8,5,5.2,8.7,3.5c0.6-0.3,1.2-1.2,1.4-1.9
		c0.3-0.9-0.3-1.7-1.2-2c-2.2-0.8-4.5-1.6-6.7-2.4c-1.4-0.5-2.7-0.9-4-1.5c-6-2.9-5-10.6-1-13.3c3.6-2.5,7.6-2.7,11.7-2
		c2.1,0.4,4.1,1.1,5.6,2.6C157.5,36.9,158.2,38.7,158.2,40.9"/>
	<path d="M218.4,42.9c-2.2,0.3-4.5,0.6-6.8,1c-0.1-0.3-0.2-0.5-0.3-0.7c-1-2.8-2.5-3.9-5.2-4.1c-2.7-0.1-4.7,1.1-5.8,3.6
		c-1.4,3.1-1.3,6.3-0.1,9.5c1,2.6,3,3.7,6,3.6c2.6-0.1,4.2-1.3,5.1-3.9c0.1-0.2,0.1-0.3,0.2-0.6c2.2,0.3,4.5,0.6,6.7,0.9
		c-0.2,4.9-4.3,9.3-9.5,10c-2.2,0.3-4.6,0.2-6.8-0.2c-4.2-0.8-7.2-3.5-8.6-7.5c-2-5.5-1.8-11,1.4-16.1c4.2-6.7,14.9-7.8,20.5-2.2
		C217.1,37.9,218.2,40.3,218.4,42.9"/>
	<path d="M90.7,39.7h-3.6v-6.3h3.7c0-1.3-0.1-2.5,0-3.6c0.4-4.4,2.4-6.6,6.8-7.2c0.7-0.1,1.4-0.1,2.1-0.2c1.4,0,2.8,0,4.4,0v6.4
		c-0.8,0-1.6,0-2.4,0c-3.4,0-4.1,0.8-3.7,4.5h3h3.1c-0.3,2.2-0.7,4.2-1,6.4h-5.2v21.9h-7.2L90.7,39.7z"/>
	<path d="M162.8,24.9c2.4-0.3,4.6-0.6,7.1-0.9v9.3h5.9v6.3h-5.8c-0.1,0.4-0.2,0.7-0.2,0.9c0,4,0,8,0,12c0,2.1,0.6,2.7,2.7,2.8
		c1,0.1,2.1,0,3.2,0v6.2c-3.2,0-6.4,0.3-9.5-0.8c-1.9-0.7-2.9-2.3-3.2-4.2c-0.2-0.8-0.3-1.7-0.3-2.6c0-9.4,0-18.7,0-28.1L162.8,24.9
		L162.8,24.9z"/>
	<path d="M293.7,55.3v6.2c-3.3,0-6.5,0.4-9.6-0.9c-2.8-1.1-3.4-3.6-3.4-6.3c0-5.9,0-11.8,0-17.7c0-3.9,0-7.7,0-11.7
		c2.3-0.3,4.5-0.6,7-1v9.3h6v6.3h-5.8c0,0.5-0.1,0.9-0.1,1.2c0,3.8,0,7.6,0,11.4c0,2.5,0.6,3.1,3.1,3.2
		C291.7,55.3,292.7,55.3,293.7,55.3"/>
	<path d="M180.5,33.3h6.9v28.2h-6.9V33.3z"/>
	<path d="M188.6,25.8c0,2.4-1.9,4.4-4.3,4.4c-2.5,0.1-4.4-1.8-4.5-4.2c-0.1-2.4,1.9-4.5,4.4-4.5C186.6,21.5,188.6,23.4,188.6,25.8"
		/>
</g>
</svg>
