<svg xmlns="http://www.w3.org/2000/svg" viewBox="0 0 202.5 24"><path d="M68.53 3.99c-.75-.52-1.73-.79-3.23-.79h-2.52v7.75h2.52c2.96 0 4.7-1.41 4.7-3.89-.01-1.28-.55-2.42-1.47-3.07m3.57 19.73c-.64 0-1.19-.45-1.53-.96l-6.12-9.09h-1.67v8.02c0 1.34-.72 2.03-1.7 2.03-.92 0-1.7-.62-1.7-2.03V3.09c0-1.45.17-1.86.51-2.2.44-.41.78-.52 1.87-.52h3.57c2.62 0 4.42.41 5.78 1.48 1.43 1.1 2.28 3.03 2.28 5.13 0 3.41-2.01 5.79-5.48 6.3l5.38 7.61c.24.34.41.76.41 1.21 0 .89-.75 1.62-1.6 1.62M199.5 2.96c0 .28-.17.45-.58.45h-.31v-.9h.31c.2 0 .34.07.44.1.11.08.14.18.14.35m.82 2.04c0-.17-.03-.17-.27-.45l-.58-.69c.48-.1.79-.42.79-.9 0-.31-.14-.62-.38-.79s-.54-.21-.95-.21h-.58c-.17 0-.27-.03-.37.07-.1.07-.1.17-.1.38v2.52c0 .24.17.38.37.38a.36.36 0 0 0 .38-.38v-.96h.1l.89 1.17a.38.38 0 0 0 .34.17c.22 0 .36-.14.36-.31m1.26-1.31c0 1.45-1.12 2.59-2.56 2.59-1.43 0-2.56-1.14-2.56-2.59s1.12-2.59 2.56-2.59 2.56 1.14 2.56 2.59m.92 0c0-1.97-1.54-3.52-3.48-3.52s-3.47 1.55-3.47 3.52 1.53 3.52 3.47 3.52 3.48-1.55 3.48-3.52m-10.43 18.65V2.1c0-1.31-.78-2.03-1.7-2.03s-1.7.72-1.7 2.03v14.66L176.05.97c-.21-.21-.65-.9-1.53-.9-1.26 0-1.33 1.31-1.33 1.69v20c0 1.31.78 2.03 1.7 2.03s1.7-.72 1.7-2.03V7.17l11.93 15c.99 1.24 1.43 1.62 2.18 1.62.86 0 1.37-.69 1.37-1.45m-23.92-10.75c0-1.45-1.33-2.03-2.35-2.72L153.29.46c-.34-.24-.72-.38-1.12-.38-.78 0-1.47.72-1.47 1.52 0 .76.65 1.24.96 1.45l12.54 8.52-12.61 9.21c-.75.55-.89 1.1-.89 1.52 0 .83.68 1.52 1.5 1.52.44 0 .88-.17 1.26-.45l12.37-9.03c.92-.72 2.32-1.41 2.32-2.75m-23.11 10.17V2.1c0-1.31-.78-2.03-1.7-2.03s-1.7.72-1.7 2.03v7.66H131V2.1c0-1.31-.78-2.03-1.7-2.03s-1.7.72-1.7 2.03v19.66c0 1.41.78 2.03 1.7 2.03.99 0 1.7-.69 1.7-2.03v-9h10.63v9c0 1.41.75 2.03 1.7 2.03 1 0 1.71-.69 1.71-2.03m-22.8-19.79c0-.83-.68-1.55-1.84-1.55h-12.92c-1.16 0-1.84.72-1.84 1.55s.68 1.55 1.84 1.55h4.74v18.24c0 1.31.78 2.03 1.7 2.03s1.71-.72 1.71-2.03V3.52h4.77c1.16 0 1.84-.73 1.84-1.55M93.82 21.9c0-.83-.68-1.55-1.84-1.55h-7.74v-7.48h7.46c1.16 0 1.84-.73 1.84-1.55 0-.83-.68-1.55-1.84-1.55h-7.46V3.52h7.74c1.16 0 1.84-.72 1.84-1.55S93.14.42 91.98.42h-8.76c-.95 0-1.43.03-1.91.52-.48.48-.48.76-.48 2.21v17.93c0 1.24.27 1.62.51 1.86.48.48.95.52 1.91.52h8.73c1.16-.01 1.84-.74 1.84-1.56m-43.89-9.94c0 4.83-3.75 8.72-8.42 8.72-4.63 0-8.45-3.93-8.45-8.66 0-4.93 3.75-8.72 8.45-8.72 4.67.01 8.42 3.8 8.42 8.66m3.44.04c0-6.69-5.28-12-11.86-12-6.65 0-11.89 5.31-11.89 12.03 0 6.69 5.25 11.97 11.89 11.97 6.61 0 11.86-5.31 11.86-12M20.45.03c.78 0 1.16.65 1.3 1.38l3.61 19.9c.07.31.07.52.07.76 0 .93-.61 1.73-1.6 1.73-1.09 0-1.57-.86-1.74-1.79l-2.7-14.36-5.04 11.93c-.37.86-.75 1.83-1.87 1.83s-1.43-.93-1.84-1.83L5.45 7.65 3.27 22c-.14.9-.58 1.79-1.7 1.79C.55 23.79 0 23 0 22.07c0-.38.03-.45.07-.76L3.34 1.38C3.44.66 3.82.04 4.6.04c.85 0 1.09.59 1.4 1.27l6.58 15.11 6.48-15.07c.3-.7.57-1.32 1.39-1.32" fill-rule="evenodd" fill="#004421"/></svg>