<?xml version="1.0" encoding="utf-8"?>
<svg version="1.1" id="Layer_1" xmlns="http://www.w3.org/2000/svg" xmlns:xlink="http://www.w3.org/1999/xlink" x="0px" y="0px"
	width="100px" height="100px" viewBox="0 0 72.2 72.2" style="enable-background:new 0 0 72.2 72.2;" xml:space="preserve">
<g>
	<circle style="fill:#E8E8E8;" cx="36.1" cy="36.1" r="36.1"/>
	<circle style="fill:#FFFFFF;" cx="36.1" cy="36.1" r="35.4"/>
	
		<linearGradient id="SVGID_1_" gradientUnits="userSpaceOnUse" x1="421.5209" y1="-222.7937" x2="407.644" y2="-193.0337" gradientTransform="matrix(0.7215 0 0 -0.7215 -256.9162 -115.4085)">
		<stop  offset="0" style="stop-color:#2BACE2"/>
		<stop  offset="0.8" style="stop-color:#0D50A0"/>
		<stop  offset="1" style="stop-color:#2F358F"/>
	</linearGradient>
	<path style="fill:url(#SVGID_1_);" d="M32.7,26.3c0,0-5.4,1.8-8.3,4.3c-1.9,1.5-3.1,3.6-3.7,5.9c2-1.1,4.2-1.8,4.2-1.8l19.5-6.3
		c0,0,0.8,14.9-7.9,21.4c2.5-0.5,5.5-1.6,8.8-3.5C58.2,39,57.1,18.4,57.1,18.4S32.7,26.3,32.7,26.3z"/>
	
		<linearGradient id="SVGID_2_" gradientUnits="userSpaceOnUse" x1="9681.7744" y1="8122.0586" x2="9843.8008" y2="8402.6973" gradientTransform="matrix(0.1179 0 0 0.1179 -1125.8173 -926.8705)">
		<stop  offset="0" style="stop-color:#D6E042"/>
		<stop  offset="1" style="stop-color:#048040"/>
	</linearGradient>
	<path style="fill:url(#SVGID_2_);" d="M18.3,38.2c-1.9,1.6-3.1,4-3.1,6.6c0,4.9,4.4,8.9,9.7,8.9c2.6,0.1,5.9-0.7,10.1-3
		c0.5-0.3,1-0.6,1.5-1c-1.4,0.3-2.6,0.4-3.8,0.4c-6.7,0-12.2-5-12.2-11.1c0-0.8,0.1-1.6,0.3-2.4C19.8,37.1,18.9,37.6,18.3,38.2
		C18.3,38.2,18.3,38.2,18.3,38.2z"/>
</g>
</svg>
