<svg xmlns="http://www.w3.org/2000/svg" xmlns:xlink="http://www.w3.org/1999/xlink" width="150" height="90" xmlns:v="https://vecta.io/nano"><defs><path id="A" d="M0 .371h51.26v51.156H0z"/></defs><g fill="none" fill-rule="evenodd"><g transform="translate(49)"><mask id="B" fill="#fff"><use xlink:href="#A"/></mask><path d="M14.498 2.893c6.798-3.319 15.046-3.343 21.91-.189-5.307-.441-10.611 1.317-15.029 4.185-4.591 2.956-7.969 7.697-9.345 12.971-.973 3.758-.806 7.855.748 11.435 2.141 5.109 7.351 8.909 12.956 8.924 3.198.034 6.422-1.027 8.887-3.084 2.943-2.425 4.815-6.114 5.009-9.924.139-3.093-.62-6.332-2.607-8.767-2.16-2.694-5.448-4.195-8.736-4.994-.328-4.952 3.519-9.658 8.334-10.624 5.508 2.605 10.027 7.233 12.469 12.818 2.384 5.363 2.815 11.556 1.221 17.204a25.59 25.59 0 0 1-8.729 13.124 25.5 25.5 0 0 1-15.834 5.555 25.46 25.46 0 0 1-14.219-4.208C6.416 43.971 2.565 38.736.941 32.839c-1.504-5.353-1.199-11.202.872-16.364C4.147 10.574 8.775 5.633 14.498 2.893" fill="#e60000" mask="url(#B)"/></g><path d="M82.427 64.567c.83-1.431 2.405-2.285 4.008-2.476 1.855-.236 3.771-.015 5.514.684l-.542 4.094c-1.32-.511-2.968-.91-4.244-.099-.989.676-.915 2-.879 3.062l4.051-.006-.002 3.988c-1.347-.002-2.69.004-4.034-.006l-.002 15.108c-1.613.002-3.227-.005-4.838.004l-.006-15.115-2.516.008v-3.988l2.52.006c-.047-1.789-.002-3.696.97-5.265M48.08 74.06c-1.395.826-2.157 2.42-2.39 3.986-.16 1.54-.049 3.147.579 4.578.471 1.081 1.359 2.027 2.503 2.366 1.542.457 3.276-.208 4.249-1.474l-.013-9.494c-1.558-.598-3.424-.841-4.927.037m4.931-11.56l4.868.004v26.413c-1.489-.002-2.974-.011-4.46.007l-.197-1.48c-2.231 2.534-6.367 2.42-8.86.347-2.467-1.997-3.505-5.327-3.488-8.431-.064-3.298 1.282-6.822 4.116-8.648 2.339-1.582 5.394-1.659 8.02-.822V62.5m-24.86 11.159c-1.426.472-2.389 1.828-2.754 3.252-.463 1.796-.427 3.761.261 5.494.452 1.172 1.384 2.227 2.622 2.547 1.346.409 2.911.008 3.851-1.06 1.261-1.377 1.569-3.364 1.475-5.175-.072-1.6-.56-3.306-1.817-4.37-.981-.873-2.416-1.045-3.639-.688m-1.248-4.017c2.405-.54 5.1-.375 7.212 1.01 2.199 1.369 3.609 3.785 4.087 6.316.52 2.838.102 5.909-1.442 8.369-1.174 1.91-3.123 3.343-5.314 3.792-2.197.435-4.605.238-6.56-.934-1.864-1.066-3.216-2.907-3.906-4.936-1.053-2.972-.879-6.385.55-9.202 1.066-2.154 3.055-3.828 5.373-4.416m39.887 11.285c-.975.564-1.443 1.849-1.1 2.923.301.86 1.225 1.298 2.079 1.341 1.391.161 2.745-.442 3.789-1.337l-.006-3.898c-1.603.174-3.303.193-4.762.972m-4.609-9.26c2.613-1.931 6.042-2.72 9.222-2.094 1.622.309 3.146 1.285 3.975 2.75.955 1.588 1.07 3.506 1.023 5.317l-.002 11.274a490.18 490.18 0 0 0-4.458 0 20.44 20.44 0 0 0-.191-1.412c-2.459 2.512-6.957 2.437-9.365-.109-1.391-1.483-1.913-3.708-1.377-5.671.433-1.684 1.774-2.978 3.295-3.705 2.248-1.079 4.768-1.3 7.214-1.491.057-1.077-.202-2.403-1.308-2.853-2.195-.951-4.641.109-6.429 1.456l-1.598-3.463m37.097 1.955c-1.261.382-2.227 1.463-2.673 2.69a8.86 8.86 0 0 0-.06 5.765c.308.87.783 1.72 1.537 2.276 1.425 1.106 3.643.994 4.915-.308 1.272-1.26 1.652-3.151 1.662-4.89-.057-1.764-.499-3.71-1.932-4.861-.941-.813-2.282-.957-3.45-.672m-1.248-4.004c2.357-.502 4.976-.332 7.049 1.007 2.239 1.364 3.679 3.825 4.133 6.393.561 2.682.098 5.567-1.223 7.955-1.11 2.025-3.065 3.57-5.299 4.108-2.39.53-5.051.3-7.127-1.09-2.087-1.334-3.422-3.632-3.947-6.033-.694-2.918-.216-6.123 1.365-8.672 1.125-1.821 2.979-3.173 5.049-3.669m19.118 1.7c1.968-1.603 4.632-2.304 7.118-1.798 1.61.257 3.108 1.235 3.921 2.673 1.062 1.832 1.244 4.018 1.198 6.097v10.625c-1.622.006-3.244-.004-4.865.006l.002-10.633c-.002-1.302-.153-2.729-1.023-3.761-.586-.718-1.524-1.083-2.435-1.03-1.476-.056-2.692.938-3.728 1.879l.002 13.544-4.851-.002.002-19.092 4.433-.002.227 1.493m21.535 2.874c-.881.695-1.272 1.804-1.418 2.885h7.256c-.14-1.377-.762-2.864-2.087-3.458-1.219-.665-2.732-.292-3.751.573m-3.86-2.167c2.994-3.33 8.804-3.64 12.003-.457 2.257 2.383 2.713 5.882 2.614 9.047l-12.246-.007c-.004 1.669.839 3.42 2.442 4.053 2.554 1 5.556.374 7.755-1.197.382 1.347.888 2.654 1.251 4.008-2.004 1.317-4.429 1.776-6.783 1.873-2.499.062-5.156-.665-6.914-2.549-2.119-2.156-2.83-5.347-2.609-8.299.081-2.349.887-4.735 2.488-6.473M0 69.827l5.206-.002 4.575 11.74c.112.285.248.562.389.835l4.751-12.568 4.955-.006-7.69 19.077-4.233.015L0 69.827" fill="#e60000"/></g></svg>