<svg id="Layer_1" data-name="Layer 1" xmlns="http://www.w3.org/2000/svg" viewBox="0 0 148.69 33"><defs><style>.cls-1{fill:#9997bb;}.cls-2{fill:#bcb8d2;}.cls-3{fill:#1463a8;}.cls-4{fill:#5e5d93;}.cls-5{fill:#cecdde;}.cls-6{fill:#2aa5de;}.cls-7{fill:#146caf;}.cls-8{fill:#b6b4ce;}.cls-9{fill:#666698;}.cls-10{fill:#9090b5;}.cls-11{fill:#c4c2d9;}.cls-12{fill:#1864ab;}.cls-13{fill:#1574b7;}.cls-14{fill:#bab7d1;}.cls-15{fill:#a5a4c5;}.cls-16{fill:#9b99bc;}.cls-17{fill:#67679a;}.cls-18{fill:#8a87af;}.cls-19{fill:#6c6c9d;}.cls-20{fill:#aeacc7;}.cls-21{fill:#9e9cbe;}.cls-22{fill:#126fb3;}.cls-23{fill:#156caf;}.cls-24{fill:#1d7cbe;}.cls-25{fill:#2485c5;}.cls-26{fill:#74719f;}.cls-27{fill:#2384c5;}.cls-28{fill:#b1afca;}.cls-29{fill:#268bc8;}.cls-30{fill:#1864ac;}.cls-31{fill:#1979b8;}.cls-32{fill:#278fcd;}.cls-33{fill:#2193d0;}.cls-34{fill:#258bc8;}.cls-35{fill:#2083c1;}.cls-36{fill:#2596d2;}.cls-37{fill:#219dd8;}.cls-38{fill:#9d9bbd;}.cls-39{fill:#2083c0;}.cls-40{fill:#1370b3;}.cls-41{fill:#9694b8;}.cls-42{fill:#1964a9;}.cls-43{fill:#1763a8;}.cls-44{fill:#a6a5c6;}.cls-45{fill:#2697d3;}.cls-46{fill:#75729f;}.cls-47{fill:#8a86ae;}.cls-48{fill:#a9a7c6;}.cls-49{fill:#9895ba;}.cls-50{fill:#b9b7d0;}.cls-51{fill:#34a4dc;}.cls-52{fill:#8583ac;}.cls-53{fill:#69699a;}.cls-54{fill:#9897bb;}.cls-55{fill:#2987c7;}.cls-56{fill:#a4a1c2;}.cls-57{fill:#7773a1;}.cls-58{fill:#1b77b9;}.cls-59{fill:#807ca8;}.cls-60{fill:#b7b5ce;}.cls-61{fill:#a3a1c2;}.cls-62{fill:#8785ae;}.cls-63{fill:#105ca5;}.cls-64{fill:#239dd7;}.cls-65{fill:#2092d0;}.cls-66{fill:#0a59a4;}.cls-67{fill:#646496;}.cls-68{fill:#7b7ba5;}.cls-69{fill:#7976a4;}.cls-70{fill:#8585ae;}.cls-71{fill:#847da8;}.cls-72{fill:#807ba7;}.cls-73{fill:#7875a3;}.cls-74{fill:#5c5b8f;}.cls-75{fill:#5c5b90;}.cls-76{fill:#6f6e9e;}.cls-77{fill:#9996bb;}.cls-78{fill:#8b87af;}.cls-79{fill:#7975a3;}.cls-80{fill:#736e9e;}.cls-81{fill:#54558c;}.cls-82{fill:#a79ebf;}.cls-83{fill:#8c8bb2;}.cls-84{fill:#9391b6;}.cls-85{fill:#6b6c9d;}.cls-86{fill:#736e9d;}.cls-87{fill:#7c7aa6;}.cls-88{fill:#8b8ab1;}.cls-89{fill:#9d9cbe;}.cls-90{fill:#1764ab;}.cls-91{fill:#1f70b1;}.cls-92{fill:#6a6b9c;}.cls-93{fill:#7673a1;}.cls-94{fill:#636598;}.cls-95{fill:#1c7cbe;}.cls-96{fill:#1a65ab;}.cls-97{fill:#2ea6de;}.cls-98{fill:#2a91ce;}.cls-99{fill:#186fb2;}.cls-100{fill:#1876b7;}.cls-101{fill:#1e7cbc;}.cls-102{fill:#2986c5;}.cls-103{fill:#2ba0d9;}</style></defs><title>logos</title><path class="cls-1" d="M20.83,31.79l3.8-1.27A9.17,9.17,0,0,1,21.24,32l-.42,0c-.05,0-.07-.08-.05-.12S20.81,31.79,20.83,31.79Z"/><path class="cls-2" d="M15.92.61a2.48,2.48,0,0,1,2-.33,16.94,16.94,0,0,1,8.65,3.49c.23.19.43.42.64.63A5.72,5.72,0,0,0,28.82,6a14.59,14.59,0,0,1,3.62,7.81,2.22,2.22,0,0,0,0,.89c.11,1.25.13,1.26-1.11,1.57a4.12,4.12,0,0,1-2.75-.1c-.45-.2-1,0-1.35-.33-.21-.55.07-1.08.09-1.62a7.22,7.22,0,0,0,.11-2.32,2.32,2.32,0,0,1-.13-.37.25.25,0,0,1,.07-.23c.41-1.17-.22-2.16-.62-3.15a12.08,12.08,0,0,0-5.23-5.73,8.88,8.88,0,0,0-4.8-1.38C16.38,1.05,16,1.13,15.92.61Z"/><path class="cls-3" d="M13.92,6.84a14.83,14.83,0,0,0-2.69-1.53c-.05-.36.28-.41.48-.57s.42-.2.33-.47S11.72,4,11.51,4,11,4,10.7,3.9s-.58,0-.56-.39c.25-.16.52,0,.77-.1-.29,0-.6-.08-.86.18a.5.5,0,0,1-.59-.5c0-.3.18-.47.4-.63s.46-.07.66-.18a9.74,9.74,0,0,1,5.65.48,20.57,20.57,0,0,1,5.2,2.8.26.26,0,0,1-.13.43,19.76,19.76,0,0,0-3.07,1.66.74.74,0,0,1-.6.08c-.4-.35-.06-.88-.32-1.26a8.25,8.25,0,0,0-1.58-2.13c-.23-.21-.44-.38-.57.08S15.18,5.52,15,6,14.66,7.09,13.92,6.84Z"/><path class="cls-4" d="M5.42,9.49A13.36,13.36,0,0,1,8.68,9a.18.18,0,0,1,0,.23C7.19,9.72,6.61,11.06,6,12.28S5,14.88,4.47,16.15c-.3.67-.16,1.1.58,1.3.2.05.42.11.4.4a2.24,2.24,0,0,1-.92.56A6.05,6.05,0,0,1,3,18.79c-.73,0-.9-.43-.91-1.05A14.38,14.38,0,0,1,3,12.42c.16-.46.24-.94.44-1.38C3.93,10.31,4.78,10,5.42,9.49Z"/><path class="cls-5" d="M13.92,6.84c1-.19.93-.94.95-1.67,0-.32-.31-.71.15-1a.59.59,0,0,1,.73,0,3.83,3.83,0,0,1,1.6,2.24c.24.36.07.75.12,1.12a4.79,4.79,0,0,1-.38,1.79c-.29.61-.4,1.34-1.08,1.7a2.12,2.12,0,0,1-1.72-2.66A1.08,1.08,0,0,0,14,7.15Z"/><path class="cls-6" d="M17.23,26.35l-1.34-1.43c-.55-.59-.31-1,.27-1.43s1.24-1.11,1.92-1.59a1.85,1.85,0,0,1,1.22-.5,5.94,5.94,0,0,1,1.33,3,.8.8,0,0,1-.05.26,2.4,2.4,0,0,1-.78.67l-.76.4c-.37.17-.74.36-1.1.55S17.48,26.55,17.23,26.35Z"/><path class="cls-7" d="M7.56,20.57l-1.65-.35c-.43-.48-.24-.85.2-1.18,1.11-.81,2.13-1.74,3.17-2.64a1.31,1.31,0,0,0,.4-.47,2.46,2.46,0,0,1,1-.76,8,8,0,0,0,1.25-.75.76.76,0,0,1,.62-.13c.4.19.83.33,1,.82a36.43,36.43,0,0,1-3.06,2.62A34.33,34.33,0,0,1,7.73,20c-.38.27,0,.18.09.23s.23.21.08.36S7.67,20.63,7.56,20.57Z"/><path class="cls-8" d="M27.35,15.82a1.58,1.58,0,0,1,1.18.1,4.62,4.62,0,0,0,3.66-.12c.38-.14.24-.5.18-.78s-.27-.8.07-1.18a14.75,14.75,0,0,1,.17,3.81c-1.95.64-3.91,1.21-5.93.28A2,2,0,0,1,27.35,15.82Z"/><path class="cls-9" d="M15.51,27a.72.72,0,0,1,.56-.16c.44.2.83.47,1.29.66a12.58,12.58,0,0,0,4.65.91c.9,0,1.79.13,2.69.21.26,0,.6,0,.66.34s-.21.42-.42.54-.56.36-.84.53a2,2,0,0,1-.51.26,3,3,0,0,0-1.28.5c-1.28.86-2.79.78-4.21,1a9.72,9.72,0,0,1-1.79,0,19.13,19.13,0,0,1-3.2-.46c-.35,0-.81-.14-.79-.69.35-.33.73-.14,1.1-.05a8.77,8.77,0,0,0,3.71.25,2.32,2.32,0,0,1,.58-.08,12.34,12.34,0,0,0,4.82-1.08,7.78,7.78,0,0,0-2.87-.58,20.16,20.16,0,0,1-3.81-1.07C15.14,27.85,15.1,27.62,15.51,27Z"/><path class="cls-10" d="M31,23.62l-.19.38a.25.25,0,0,1-.22.08.34.34,0,0,1-.24-.26,1,1,0,0,1,0-.24,1.59,1.59,0,0,0,.24-.79c-.27-.42-.53-.05-.75.05a15.61,15.61,0,0,1-2.13,1,5.92,5.92,0,0,1-5.08-.6c-.17-.47.23-.67.44-1s.53-.57,1-.5a6.21,6.21,0,0,0,5.42-.07,3.82,3.82,0,0,1,1.19-.41c.35,0,.67,0,.82.4A4.21,4.21,0,0,1,31,23.62Z"/><path class="cls-11" d="M14,7.15c.79,0,.8.42.65,1A2.06,2.06,0,0,0,16,11c.07.1.12.24.05.33-.62.72-1,1.68-2.14,1.81a6.4,6.4,0,0,0-1-1.91,1.08,1.08,0,0,1-.2-1.12,2.39,2.39,0,0,0-.22-2.22Z"/><path class="cls-12" d="M9.76,16c0,.66-.63.77-1,1.09a32.08,32.08,0,0,1-2.62,2.17c-.37.29-.66.53,0,.75.06,0,.21.06,0,.14a1.28,1.28,0,0,1-.35.06A36,36,0,0,0,1.27,20c-.24,0-.54.11-.73-.18a4.66,4.66,0,0,1,2.74-.15c.4.05.11-.13.13-.19.2-.58.84-.78,1.11-1.29l.9-.38c.35-.57,1-.49,1.53-.81l.45-.22c.4-.17.81-.35,1.2-.55.15-.07.31-.12.45-.19S9.51,15.81,9.76,16Z"/><path class="cls-13" d="M9.35,21.13l-1.09-.36a.6.6,0,0,1,.1-.89c1.53-1.36,3.14-2.6,4.69-3.93a2.1,2.1,0,0,1,1.27-.39.91.91,0,0,1,.79.62,17.41,17.41,0,0,1-2.22,1.9,24.52,24.52,0,0,0-3.38,3.06S9.41,21.16,9.35,21.13Z"/><path class="cls-4" d="M15.51,27c-.19.54.11.77.56.93a24.3,24.3,0,0,0,6,1.27c.36,0,.71.09.76.48s-.41.37-.64.45a12.83,12.83,0,0,1-4.45.89c.07-.52.53-.48.88-.57A8.62,8.62,0,0,0,20.3,30a.37.37,0,0,0-.43-.32c-1.82,0-3.43-.75-5.09-1.32A5.08,5.08,0,0,0,12.94,28a2.68,2.68,0,0,1-.85-.1.36.36,0,0,1-.18-.22c.07-.21.26-.27.45-.31.9.05,1.75-.4,2.65-.3Z"/><path class="cls-14" d="M10.52,2.28a2.85,2.85,0,0,0-.55.28c-.49.4-.65.77.16.95h0c.46.31,1,.08,1.47.23.32.1.78,0,.86.48s-.36.55-.65.74-.48.08-.58.35c-.66-.28-1.33.17-2,0,0-.4-.34-.17-.5-.27-.43-.25-1-.34-1.11-.94a1.28,1.28,0,0,1,.7-1.35A4.53,4.53,0,0,1,10.52,2.28Z"/><path class="cls-15" d="M32.44,19.11a3.5,3.5,0,0,1-.35,1.63s-.08,0-.09,0c-.51-1.06-1.26-.89-2.11-.43a2.45,2.45,0,0,1-1.15.11c-.46,0-.91,0-1.36,0a3.76,3.76,0,0,1-2-.31c-.38-.73.17-1.08.59-1.49a1.41,1.41,0,0,1,1,0,4.51,4.51,0,0,0,4-.31C31.73,18,32.14,18.25,32.44,19.11Z"/><path class="cls-16" d="M21.24,32a14.08,14.08,0,0,1-6.93.69A16.24,16.24,0,0,1,4,27.09c.29-.28.59-.12.88,0A20.66,20.66,0,0,0,8.38,30a1.2,1.2,0,0,1,.24.15,14.36,14.36,0,0,0,6.77,2A16,16,0,0,0,20,31.85a2.29,2.29,0,0,1,.9-.09A.59.59,0,0,1,21.24,32Z"/><path class="cls-17" d="M23.91,30l1.47-1c-1.14-.08-2.12-.22-3.11-.22a17.5,17.5,0,0,1-5.72-1.15c-.39-.14-.22-.54-.48-.69a2.27,2.27,0,0,1,.95-.35.16.16,0,0,1,.25,0,2.73,2.73,0,0,0,1.74,1,14.15,14.15,0,0,0,7.28.12.65.65,0,0,1,.74.16.57.57,0,0,1-.23.71,7.5,7.5,0,0,1-2.36,1.57A.52.52,0,0,1,23.91,30Z"/><path class="cls-18" d="M12,14.57a3,3,0,0,1-1.26.75c-.21,0-.5,0-.55-.24-.39-1.61-1.35-3.2-.16-4.87a1.16,1.16,0,0,0,0-1.36,1,1,0,0,1-.21-.28,1.05,1.05,0,0,1,.73-.17c.52-.22.73,0,.78.51a3,3,0,0,1-.18,1.23A2.72,2.72,0,0,0,11.33,13C11.7,13.44,11.49,14.15,12,14.57Z"/><path class="cls-19" d="M8.68,9.13V9l.53-.28a1.29,1.29,0,0,1,0,1.74,7.8,7.8,0,0,0-1.19,3.38c-.26.41-.41.81.13,1.12a.41.41,0,0,1,0,.36.83.83,0,0,0-.28.72c.14.51-.18.7-.57.85A1.23,1.23,0,0,1,6.26,15C6.81,13.55,7.4,12.08,8,10.62,8.7,10.35,8.29,9.55,8.68,9.13Z"/><path class="cls-20" d="M32.44,19.11a1.1,1.1,0,0,0-1.76-.38,3.68,3.68,0,0,1-3.5.23,5.69,5.69,0,0,0-1.09-.22c-.09-.45,0-.79.51-.91a3.88,3.88,0,0,1,1.51.23A3.52,3.52,0,0,0,30.4,18a4.94,4.94,0,0,1,2.21-.34A2.8,2.8,0,0,1,32.44,19.11Z"/><path class="cls-21" d="M25.33,20a6.9,6.9,0,0,0,2,.19,2.39,2.39,0,0,0,1.45,0,2.81,2.81,0,0,0,1.54-.32c.85-.52,1.26-.27,1.75.87a.57.57,0,0,1,0,.18c-.15.11,0,.54-.44.33-.23-.36-.45-.78-1-.5-1.93,1-3.95.79-6,.39C24.4,20.48,24.83,20.22,25.33,20Z"/><path class="cls-22" d="M14.3,15.69c-1.12.12-1.75,1-2.54,1.64-1.08.84-2.07,1.79-3.15,2.63a.9.9,0,0,0-.35.81,1.17,1.17,0,0,1-.7-.2l.24-.09c-.77-.49,0-.81.2-1,1.51-1.31,3.06-2.57,4.61-3.84.25-.2.53-.36.8-.54A.74.74,0,0,1,14.3,15.69Z"/><path class="cls-23" d="M22.27,6.25a3.05,3.05,0,0,1,.91.73c0,.19-.09.28-.23.32a22.43,22.43,0,0,0-3.41,1.76c-.6.31-1.26.59-1.37,1.4A1.36,1.36,0,0,1,17,9.31a2.35,2.35,0,0,1,1.08-1c1-.6,2.08-1.18,3.11-1.79A1.59,1.59,0,0,1,22.27,6.25Z"/><path class="cls-13" d="M23.55,7.32a5.09,5.09,0,0,1,1.16,1.06c-1.92.15-3.25,1.56-4.89,2.32-.4.18-.38.68-.76.84a1.11,1.11,0,0,1-.83-1,2.5,2.5,0,0,1,1.29-1.33c.82-.44,1.63-.92,2.43-1.4A2.43,2.43,0,0,1,23.55,7.32Z"/><path class="cls-24" d="M11,21.82l-1.28-.54a16,16,0,0,1,3.09-2.84,14.48,14.48,0,0,1,1.89-1.5,2.33,2.33,0,0,1,1-.28.67.67,0,0,1,.62.61c-.64.57-1.38,1-2.05,1.56s-1.6,1.28-2.35,2c-.26.24-.57.42-.57.86C11.43,21.93,11.24,22,11,21.82Z"/><path class="cls-25" d="M12.24,22.4a1.91,1.91,0,0,1-.82-.4c.15-.8.83-1.15,1.38-1.58,1-.76,1.82-1.64,2.8-2.38a1.93,1.93,0,0,1,1.13-.47.93.93,0,0,1,.77,1C15.48,19.46,14.15,21.32,12.24,22.4Z"/><path class="cls-26" d="M17.19,26.55l-.17,0,.21-.18.69-.18c.51-.2.94.11,1.37.27a9.2,9.2,0,0,0,8.24-.39c.4-.22.81-.56,1.34-.36.38.33,0,.6-.07.9-.26.38-.41.89-1,.91-.2-.09-.19-.51-.61-.26-1.65,1-3.49.81-5.28.78a9.73,9.73,0,0,1-4.41-1.16A.69.69,0,0,1,17.19,26.55Z"/><path class="cls-27" d="M25.94,9.61l.52.59c0,.09,0,.2,0,.24-2.05.86-3.85,2.19-5.85,3.14-.1.05,0,0-.09,0a.83.83,0,0,1-.62-.83,1,1,0,0,1,.55-.57c1.49-.79,2.93-1.67,4.4-2.47A1.71,1.71,0,0,1,25.94,9.61Z"/><path class="cls-28" d="M12.47,7.84A1.32,1.32,0,0,1,13,9.76a1.35,1.35,0,0,0,.32,1.64,2.33,2.33,0,0,1,.63,1.72c0,.47-.36.56-.72.62a4.22,4.22,0,0,1-1.36-3.13A7.71,7.71,0,0,0,11.91,8,.73.73,0,0,1,12.47,7.84Z"/><path class="cls-29" d="M20.44,13.49a50.21,50.21,0,0,1,6-3.29,1.41,1.41,0,0,1,.56.69.17.17,0,0,1-.12.27c-2,.47-3.48,1.85-5.24,2.73-.34.17-.24.71-.69.76A.9.9,0,0,1,20.44,13.49Z"/><path class="cls-30" d="M22.27,6.25A31.59,31.59,0,0,0,17,9.31q-.15.15-.18-.06c.33-.49.26-1.1.51-1.61.07,0,.11.16.21,0l3.8-2.12Z"/><path class="cls-31" d="M15.75,16.8c-1.65.46-2.65,1.85-4,2.79a25.25,25.25,0,0,1-2,1.69l-.41-.15c.22-.86,1-1.21,1.6-1.71A30.65,30.65,0,0,1,15,16.22C15.5,16.12,15.66,16.41,15.75,16.8Z"/><path class="cls-24" d="M25.08,8.75l.71.72a4.64,4.64,0,0,0-2.85,1.06c-.61.37-1.23.75-1.88,1.07a2.36,2.36,0,0,0-1.12,1c-.6,0-.75-.45-.8-.95a2.28,2.28,0,0,1,.49-.63c1.34-.85,2.74-1.61,4.14-2.35A1.63,1.63,0,0,1,25.08,8.75Z"/><path class="cls-32" d="M21,14.57c0-.61.45-.87.86-1.11,1.34-.8,2.71-1.55,4.05-2.36.36-.22.76,0,1.09-.21.12.15.24.29.35.44a.76.76,0,0,0,0,.15c-.26.51-.85.32-1.26.59-1.59,1.07-3.36,1.86-5,2.93C20.94,14.91,20.86,14.77,21,14.57Z"/><path class="cls-33" d="M14,23.45l-.56-.36c.18-.77.86-1.09,1.4-1.53a7.76,7.76,0,0,0,1.36-1.14,2.65,2.65,0,0,1,2-1,.76.76,0,0,1,.58.95,5.61,5.61,0,0,0-2.7,2A3.89,3.89,0,0,1,14,23.45Z"/><path class="cls-34" d="M12.24,22.4c.28-.6.89-.85,1.35-1.23.85-.74,1.71-1.46,2.57-2.2a3.8,3.8,0,0,1,1.26-.48.42.42,0,0,1,.41.45c-1.14.73-2.1,1.7-3.19,2.51a9.93,9.93,0,0,0-1.48,1.49A2.51,2.51,0,0,1,12.24,22.4Z"/><path class="cls-35" d="M16.66,17.65a8.14,8.14,0,0,0-2.26,1.67c-.61.63-1.33,1.1-2,1.67-.36.32-.65.7-1,1L11,21.82c.11-.87.86-1.21,1.41-1.69,1-.86,2-1.64,3-2.49.28-.25.67,0,.89-.33C16.6,17.23,16.7,17.37,16.66,17.65Z"/><path class="cls-36" d="M14,23.45a6.49,6.49,0,0,1,1.81-1.15c.28-.11.59-.76.94-1.12a2.15,2.15,0,0,1,2-.82c.24,0,.26.18.26.37a.51.51,0,0,1-.26.34,34.43,34.43,0,0,0-3.61,2.87c-.09.07-.16.16-.29.09Z"/><path class="cls-37" d="M14.79,24c.92-.82,1.83-1.65,2.77-2.45.41-.34.87-.61,1.31-.91a.5.5,0,0,1,.36.73c-1.2.67-2.11,1.73-3.25,2.45-.68.43.2.75-.09,1.07Z"/><path class="cls-38" d="M.48,19.67a15.36,15.36,0,0,1,.45-8.34,1.43,1.43,0,0,1,1.23-.93c.25.38-.08.59-.24.86A14.34,14.34,0,0,0,.84,15.59a7.88,7.88,0,0,0,.1,3.86A.58.58,0,0,1,.48,19.67Z"/><path class="cls-39" d="M19.9,12.63c-.15-.78.55-1,1-1.19A34.06,34.06,0,0,0,24,9.64a1.93,1.93,0,0,1,1.83-.17l.15.14c-1.61.37-2.87,1.41-4.28,2.17a5.84,5.84,0,0,0-1.69,1C19.89,12.74,19.87,12.7,19.9,12.63Z"/><path class="cls-31" d="M25.08,8.75a3.85,3.85,0,0,0-2.62.91,17.18,17.18,0,0,0-3.24,2c-.18,0-.26,0-.15-.18,0-.56.3-.81.75-1.05.9-.49,1.76-1,2.63-1.55a2.42,2.42,0,0,1,2.26-.51C24.84,8.5,25,8.62,25.08,8.75Z"/><path class="cls-32" d="M13.16,22.94c0-.91.79-1.19,1.37-1.63,1.06-.81,1.89-1.94,3.22-2.4.38,0,.41.24.37.53-1.86.85-3.16,2.42-4.72,3.65Z"/><path class="cls-40" d="M23.55,7.32a50.27,50.27,0,0,0-4.44,2.43,3.73,3.73,0,0,0-.8.83c-.17.05-.25,0-.15-.18-.18-.7.16-.94.78-1.25A27.76,27.76,0,0,1,23.18,7Z"/><path class="cls-41" d="M12,14.57c-.37-.13-.72-.23-.58-.78a.81.81,0,0,0-.2-.66c-1-1-.61-2-.29-3.09A4,4,0,0,0,11,8.9c0-.42-.23-.5-.57-.5a1.08,1.08,0,0,1,.74-.18.18.18,0,0,1,.24,0,2.67,2.67,0,0,1,.07,2.18c-.2.8-.41,1.51.3,2.25.37.38.35,1.11.75,1.57a.21.21,0,0,1-.15.19Z"/><path class="cls-42" d="M4.88,27.28c-.31,0-.57-.32-.91-.19-.64-.79-.63-.81.37-1.08.12,0,0,0,.07,0s.28,0,.41.05c-.1-.06-.25,0-.33-.12a1.6,1.6,0,0,1,.91-.2l.13,0c.42,0,.76.11.82.59a1.12,1.12,0,0,0,.39.66.43.43,0,0,1,0,.4.61.61,0,0,1-.24.15,1.7,1.7,0,0,1-.71,0A3.89,3.89,0,0,1,4.88,27.28Z"/><path class="cls-43" d="M.48,19.67l.39-.24a.71.71,0,0,1,.34-.3c.15-.06.29-.11.43-.18a2.12,2.12,0,0,1,.66-.21,1.59,1.59,0,0,0,.77-.18l1.45-.36c.27.65-.41.72-.68,1s-.51.48.11.63H.54A.25.25,0,0,1,.48,19.67Z"/><path class="cls-44" d="M11.4,8.24l-.19,0c.19-.21.46-.17.7-.19.59.17.31.71.35,1A5.62,5.62,0,0,1,12,10.72a1,1,0,0,0,0,.69l1.14,2.27c0,.3-.13.41-.4.41a1,1,0,0,1-.68-.78c0-.11,0,0,0-.08a4.14,4.14,0,0,1-.44-3.9A1.23,1.23,0,0,0,11.4,8.24Z"/><path class="cls-45" d="M12.31,27.62l-.38.15a.87.87,0,0,1-1,.18.67.67,0,0,1-.32-.3,3.68,3.68,0,0,1,.11-1.4A.68.68,0,0,1,11,26a7.09,7.09,0,0,1,2.17.56A1.46,1.46,0,0,1,12.31,27.62Z"/><path class="cls-46" d="M8,13.85a4.61,4.61,0,0,1,.81-3,2.23,2.23,0,0,0,.44-2.15c.15-.16.35-.1.53-.12l.38,0a10.17,10.17,0,0,1-.93,3.05c-.23.51-.79.91-.37,1.62.19.32,0,.7-.52.74A.5.5,0,0,1,8,13.85Z"/><path class="cls-47" d="M24.45,30A10,10,0,0,0,27,28a.26.26,0,0,1,.35-.06.32.32,0,0,1,.09.23c-.18.61-.82.78-1.18,1.23l-.84.61a1.23,1.23,0,0,0-.78.52h0a14.38,14.38,0,0,1-3.75,1.35.37.37,0,0,1-.27-.07c0-.32.18-.42.42-.49C22.21,31,23.29,30.36,24.45,30Z"/><path class="cls-48" d="M8.32,2.75C7.4,4.23,7.71,4.78,9.65,5l-.42.31a4.91,4.91,0,0,1-2-.14A.41.41,0,0,1,7.54,5c.18,0,.34.09.47.07-.06,0,.12,0,.07,0C7.11,4.83,6.7,4.29,7,3.29A2.35,2.35,0,0,1,8.32,2.75Z"/><path class="cls-22" d="M6.69,27.44v-.36c-.36-.9-.29-1,.62-1.35a15.25,15.25,0,0,1,2.34.06.09.09,0,0,1,.13,0c.05.38-.27.35-.49.42a3.37,3.37,0,0,1-.55,0c-1.07-.09-.58.83-.82,1.28a.42.42,0,0,1-.29.23,1.14,1.14,0,0,1-.26,0C7.14,27.65,6.87,27.65,6.69,27.44Z"/><path class="cls-49" d="M27.36,28.17V28c-.05-.41.32-.41.54-.54l.74-.9a1.31,1.31,0,0,0,.45-.7.93.93,0,0,1,.3-.5,1.84,1.84,0,0,0,.53-.58,2,2,0,0,1,.11-.2,1.1,1.1,0,0,1,.6-.56h.17a11.55,11.55,0,0,1-3.05,4.17A.27.27,0,0,1,27.36,28.17Z"/><path class="cls-50" d="M15.92.61A1.07,1.07,0,0,0,17,1a10.45,10.45,0,0,1,4.32,1c.16.06.48.1.24.42a13.32,13.32,0,0,0-5.18-1.29C16.06,1.15,15.62,1.14,15.92.61Z"/><path class="cls-51" d="M12.31,27.62c.39-.29.37-.92.9-1.08a6,6,0,0,1,1.8.57A6.75,6.75,0,0,1,12.31,27.62Z"/><path class="cls-52" d="M1.8,11.12c.1-.25.39-.4.36-.72A2.33,2.33,0,0,1,3.25,10c.06.53-.49.69-.66,1.08a6.55,6.55,0,0,0-.94,2.56c-.12.33,0,.88-.63.83A9.42,9.42,0,0,1,1.8,11.12Z"/><path class="cls-53" d="M5.42,9.49c-.35.8-1.19,1-1.81,1.46-.14.19-.14.59-.56.4A.53.53,0,0,1,2.92,11a1,1,0,0,1,.78-.79c.27,0,.17-.24.26-.35A3.9,3.9,0,0,1,5.42,9.49Z"/><path class="cls-54" d="M7,3.29A1.62,1.62,0,0,0,8.36,5.05c-.28.17-.54.06-.79.08-.32-.14-.69-.09-1-.26s-.26-.65-.26-1A1.36,1.36,0,0,1,7,3.29Z"/><path class="cls-55" d="M11,26l-.18.19c-.27.19-.27.5-.32.78s-.21.67-.67.64c-.73-.56-.71-1,.09-1.8A2.12,2.12,0,0,1,11,26Z"/><path class="cls-35" d="M10,25.79c-.12.55-.9,1.1,0,1.65.21.22.54-.09.73.18l.19.15c-.51.46-1.1.26-1.67.24a.81.81,0,0,1-.29-.12.33.33,0,0,1-.11-.26c.31-.5,0-1.16.43-1.64.2,0,.43,0,.55-.2Z"/><path class="cls-56" d="M31.7,21.28l.36-.36A6.43,6.43,0,0,1,31,23.62c-.06-.64.41-1.16.36-1.8C31.56,21.7,31.24,21.23,31.7,21.28Z"/><path class="cls-57" d="M4,9.83c.13.22.09.38-.17.48a1.29,1.29,0,0,0-.73.63c-.1.14-.18.29-.39.27s-.22-.1-.15-.27c.09-.42.55-.55.73-.91A1,1,0,0,1,4,9.83Z"/><path class="cls-58" d="M9.65,25.79l-2.43,0a3.23,3.23,0,0,1-1.77,0l0-.06A12.38,12.38,0,0,1,9.65,25.79Z"/><path class="cls-59" d="M6.3,3.85c.38.21,0,.71.39.93a.22.22,0,0,1,0,.34C5.78,4.81,5.71,4.57,6.3,3.85Z"/><path class="cls-60" d="M28.82,6A2.91,2.91,0,0,1,27.2,4.4,9.26,9.26,0,0,1,28.82,6Z"/><path class="cls-61" d="M27.36,28.17h.38a3.35,3.35,0,0,1-1.49,1.22C26.36,28.75,27.12,28.69,27.36,28.17Z"/><path class="cls-1" d="M24.63,30.52c0-.5.37-.57.78-.52A1.55,1.55,0,0,1,24.63,30.52Z"/><path class="cls-62" d="M6.69,5.12V4.78a2,2,0,0,1,.89.35l-.37,0Z"/><path class="cls-63" d="M4.49,26,5.2,26c-.39.17-.64.19-.86,0A.14.14,0,0,1,4.49,26Z"/><path class="cls-6" d="M25.33,20c-.22.38-.64.62-.73,1.09a.94.94,0,0,1-.69.73l-.73.59a.61.61,0,0,1-.36-.48c-.15-1.33-.58-2.61-.71-3.94-.09-1,.48-1.44,1.26-1.83,1-.5,1.93-1.12,2.89-1.68a1.42,1.42,0,0,1,1.27-.27l-.18,1.61-.75,2-.51.91Z"/><path class="cls-64" d="M27.53,14.21c-1.79.59-3.22,1.84-4.9,2.63-.49.23.09.78-.35,1a1.72,1.72,0,0,1-.64-1.59A17.83,17.83,0,0,1,24,14.77a24.5,24.5,0,0,1,2.68-1.42,1,1,0,0,0,.61-1.18.68.68,0,0,1,.21-.48A3.89,3.89,0,0,1,27.53,14.21Z"/><path class="cls-65" d="M27.53,11.69v.52c-1.83.9-3.44,2.22-5.33,3-.35.14-.23.65-.65.65-.35-.23-.58-.5-.37-.94a4.72,4.72,0,0,1,2.19-1.57,23.42,23.42,0,0,0,2.82-1.66c.39-.25.79-.1,1.17-.23Z"/><path class="cls-66" d="M17.57,7.68l-.08.21-.13-.25c0-.39,0-.78,0-1.18C17.83,6.8,17.44,7.29,17.57,7.68Z"/><path class="cls-63" d="M15.75,4.22H15c0-.14-.12-.31.12-.33S15.71,3.81,15.75,4.22Z"/><path class="cls-63" d="M10.13,3.51c.27-.31.59-.13.9,0Z"/><path class="cls-67" d="M8.68,9.13c-.17.49.39,1.25-.54,1.45a17.8,17.8,0,0,0-2.37,5.21c-.16.58-.08.85.54.92.29,0,.68-.05.75.41-.46.43-1.11.43-1.64.7-.13-.17-.32-.14-.49-.17-.78-.16-1.07-.64-.76-1.38.61-1.45,1.11-2.94,1.67-4.41.2-.53.83-.9,1.06-1.43A1.81,1.81,0,0,1,8.68,9.13Z"/><path class="cls-67" d="M3.07,11.31c.28,0,.35-.25.54-.36a11.24,11.24,0,0,1-.7,2.49,15.38,15.38,0,0,0-.58,4.42c0,.57.22.76.74.7a1,1,0,0,1-.74.35.75.75,0,0,1-.76-.78A12.35,12.35,0,0,1,3.07,11.31Z"/><path class="cls-68" d="M30.44,23.63v.18c-.1.31-.23.61-.36.91h0a1.56,1.56,0,0,1-.25.17,3.16,3.16,0,0,0-1.57.78A6.91,6.91,0,0,1,25,26.89a10.24,10.24,0,0,1-5.08-.48c-.41-.16-.8-.3-.91-.78a1.09,1.09,0,0,1,.7-.38,1.59,1.59,0,0,1,1.38,0,8.16,8.16,0,0,0,7.68-1.09C29.24,23.72,29.66,23.14,30.44,23.63Z"/><path class="cls-69" d="M19,25.63a5.49,5.49,0,0,0,3.34,1c1.35.09,2.77.33,4-.49a2.18,2.18,0,0,1,.87-.19c.34,0,.73-.09.86-.39a1.54,1.54,0,0,1,1.76-.88c.1.35-.27.47-.37.72l-.34.37c-.07.09-.13.08-.19,0a1.89,1.89,0,0,0-1.41.47c-2.44,1.5-5,1.41-7.64.72a7,7,0,0,1-2-.83A2.29,2.29,0,0,1,19,25.63Z"/><path class="cls-70" d="M30.44,23.63a1.29,1.29,0,0,0-1.45.73,15.12,15.12,0,0,0-2,.82c-2.15,1.05-4.21.52-6.28-.21a.47.47,0,0,1-.25-.25.49.49,0,0,1,0-.12l1.26-.78q1.07.16,2.1.42c2.06.49,3.82-.26,5.55-1.19.45-.24.9-.55,1.41-.14C30.82,23.22,30.77,23.5,30.44,23.63Z"/><path class="cls-71" d="M20.47,24.72a16.81,16.81,0,0,0,4.09.84,6.92,6.92,0,0,0,3.39-1,2,2,0,0,1,1-.23,8.48,8.48,0,0,1-8.22,1.05,3.49,3.49,0,0,0-1.06-.16A1.78,1.78,0,0,1,20.47,24.72Z"/><path class="cls-72" d="M9.05,11.67a2.25,2.25,0,0,1,.4-1.23,1.07,1.07,0,0,0,.22-1.15c-.25-.5.3-.46.45-.69a1.58,1.58,0,0,1,0,1.85A3.45,3.45,0,0,0,9.66,13c0,.11,0,.26.09.33A1.67,1.67,0,0,1,10.31,15c0,.06.24.2.38.3L9.76,16l-.71.21c-.28-.46.09-.72.3-1s.42-.44.09-.6c-1-.53-.53-1.38-.49-2.12A7,7,0,0,0,9.05,11.67Z"/><path class="cls-73" d="M24.45,30A7.77,7.77,0,0,1,22,31.15c-.46.14-1,.13-1.33.64A17.42,17.42,0,0,1,8.32,30.16h0a23.28,23.28,0,0,1-2.23-2.1c-.13-.19-.39-.31-.31-.61h.71c.29.19.64,0,.93.16v0a.46.46,0,0,1,.11.22,5.59,5.59,0,0,0,2.59,2.28,12.44,12.44,0,0,0,5.76,1.56c.15,0,.31,0,.43-.09a18.55,18.55,0,0,0,4.81-.49,2.13,2.13,0,0,0,1.17-.6,4.62,4.62,0,0,0,1.27-.36l.36-.18Z"/><path class="cls-74" d="M12.85,27.8c1.18-.1,2.17.51,3.24.82a9.53,9.53,0,0,0,3.45.82,5.77,5.77,0,0,1,.72,0c.4,0,.36.33.42.58s-.19.27-.37.33a11.17,11.17,0,0,0-2.56.71h-.54a11.78,11.78,0,0,1-3.45-.26.73.73,0,0,1-.58-.37c.2-.42.57-.3.86-.22a8.17,8.17,0,0,0,4.22-.1c-1.52-.39-3-1.05-4.47-1.43a3.1,3.1,0,0,1-1.11-.37C12.23,28,12.66,27.93,12.85,27.8Z"/><path class="cls-75" d="M13.22,30.34a3.51,3.51,0,0,0,1.85.53,11,11,0,0,1,2.14.2,7.06,7.06,0,0,1-3.76-.15,3.44,3.44,0,0,0-1.14-.22l-.13,0a8.69,8.69,0,0,1-3.32-2.21c-.28-.29-.32-.58.19-.7l1.82,0h1.06l0,0c0,.31-.21.3-.4.36s-.54,0-.59.28.22.49.45.62c.49.3,1,.57,1.47.87A.71.71,0,0,1,13.22,30.34Z"/><path class="cls-76" d="M16.3,31.61A3.29,3.29,0,0,1,14,31.7a20,20,0,0,1-3.75-1.2,9.46,9.46,0,0,1-3-2.45c-.17-.19,0-.23.19-.25.52,0,.77.4,1.07.7a9.41,9.41,0,0,0,3.82,2.2h0a.75.75,0,0,0,.73.44A20,20,0,0,0,16.3,31.61Z"/><path class="cls-17" d="M23.55,30.16c-.34.41-.81.36-1.27.36A2.7,2.7,0,0,1,23.55,30.16Z"/><path class="cls-77" d="M23.91,21.82a2,2,0,0,1,.69-.73c.56-.38,1.13-.06,1.65.06a6.16,6.16,0,0,0,4-.51l.16-.08c.94-.42,1.13-.31,1.28.72l-.36.54c-.22-.6-.66-.42-1-.23a7.81,7.81,0,0,1-4.54.95A3.41,3.41,0,0,1,23.91,21.82Z"/><path class="cls-78" d="M30.8,22.91A4.44,4.44,0,0,0,28,24a5.84,5.84,0,0,1-4.2.5c-.7-.11-1.54.07-2.07-.63l.87-.75a7.43,7.43,0,0,0,4.17.74,7.59,7.59,0,0,0,2.51-1c.32-.16.64-.33,1-.48.18-.09.38-.27.58-.11S30.87,22.69,30.8,22.91Z"/><path class="cls-70" d="M30.07,24.72a1.09,1.09,0,0,1,.36-.91l.19.19Z"/><path class="cls-17" d="M7.06,17.12c-.29-.33-.68-.15-1-.19-.52-.06-.81-.33-.63-.85a29.84,29.84,0,0,1,1.29-3.5,4.54,4.54,0,0,1,1.44-2A40.14,40.14,0,0,1,6.51,15c-.35,1-.12,1.52.91,1.76.1.06.1.13,0,.2A.4.4,0,0,1,7.06,17.12Z"/><path class="cls-79" d="M9.05,11.67c.55.55,0,1.11,0,1.64s0,.89.59,1.07.52.41.06.75a1.64,1.64,0,0,0-.61,1.09.36.36,0,0,1-.37.15c-.11-.37-.22-.74-.3-1.12a.67.67,0,0,1,.52-.61c-.24-.05-.5-.05-.66-.29a.43.43,0,0,1,.08-.5c.46-.06.45-.44.33-.68A1.15,1.15,0,0,1,9.05,11.67Z"/><path class="cls-80" d="M8.5,15.3a1.09,1.09,0,0,1,.18,1.07A3,3,0,0,1,7.42,17v-.2c.42-.21.4-.6.3-.95s0-.53.42-.5A.23.23,0,0,1,8.5,15.3Z"/><path class="cls-81" d="M13.22,30.34c-.66-.36-1.33-.71-2-1.09-.37-.21-.73-.58-.64-1s.61-.22,1-.28a2,2,0,0,0,.4-.17h.9c-.18.2-.32.35.11.42,1.83.33,3.5,1.24,5.33,1.57a.91.91,0,0,1,.65.45,9.46,9.46,0,0,1-4.31.36A4.88,4.88,0,0,0,13.22,30.34Z"/><path class="cls-82" d="M28.8,20.19a1.36,1.36,0,0,1-1.45,0Z"/><path class="cls-83" d="M8.32,30.16a4.42,4.42,0,0,1,1.54.5c1.15.39,2.29.83,3.44,1.23a3.5,3.5,0,0,0,.8.08,38.62,38.62,0,0,0,6.54-.18h.19a1.09,1.09,0,0,1,0,.18,21.18,21.18,0,0,1-5.08.46A12.24,12.24,0,0,1,9.86,31C9.34,30.76,8.65,30.77,8.32,30.16Z"/><path class="cls-84" d="M5.78,27.45a14.13,14.13,0,0,0,2.27,2.17c.18.12.48.21.27.54a10.86,10.86,0,0,1-3.44-2.88A1.35,1.35,0,0,1,5.78,27.45Z"/><path class="cls-85" d="M27.89,27.44c-.07.29-.4.31-.54.54H27a.4.4,0,0,0-.48-.17,14.15,14.15,0,0,1-7.53,0c-.63-.15-1.12-.57-1.73-.74-.31-.09-.12-.34-.06-.53a23.27,23.27,0,0,0,3.51,1.16,18.1,18.1,0,0,0,3.68,0,6.32,6.32,0,0,0,3.54-1.17C28.15,27,27.49,27.13,27.89,27.44Z"/><path class="cls-86" d="M8.32,13.85v.54c.12.24,0,.4-.18.54-.75-.23-.78-.4-.18-1.08Z"/><path class="cls-46" d="M8.14,14.93l.18-.54c1.28.06.1.61.18.91H8.14Z"/><path class="cls-87" d="M29,25.81h.19c0,.39-.1.69-.55.73C28.59,26.22,28.88,26.06,29,25.81Z"/><path class="cls-88" d="M1.25,19.28l-.38.15a4.67,4.67,0,0,1-.16-3.77l.1.09c.25,1,.11,2.12.4,3.15A.4.4,0,0,1,1.25,19.28Z"/><path class="cls-88" d="M1.8,11.12c-.16,1.17-.76,2.25-.73,3.45a.59.59,0,0,1,0,.13c0,.35.2.82-.38,1h0A9.23,9.23,0,0,1,1.8,11.12Z"/><path class="cls-89" d="M12.84,14l-.35.21c-.37-.24-.8-.42-.65-1a.64.64,0,0,0-.23-.55c-.83-.47-.64-1.22-.44-1.84a5.67,5.67,0,0,0,.23-2.55A1.38,1.38,0,0,1,11.78,10,2.23,2.23,0,0,0,12,12.44C12.44,12.86,12.23,13.64,12.84,14Z"/><path class="cls-90" d="M5.45,25.84l1.77,0c-.66.21-.52.76-.53,1.26-.24,0-.56,0-.52-.33C6.25,26.16,5.88,26,5.45,25.84Z"/><path class="cls-91" d="M7.42,27.61c-.31,0-.66.12-.93-.16h.2C6.94,27.46,7.22,27.36,7.42,27.61Z"/><path class="cls-92" d="M3.07,11.31c.25.45-.2.71-.34,1a17.65,17.65,0,0,0-1,3.93c-.13.83-.42,1.95.57,2.64l-.71.2a5.08,5.08,0,0,1-.51-2.73,13.76,13.76,0,0,1,.62-2.9,3.17,3.17,0,0,0,.41-1.2,1.72,1.72,0,0,1,.07-.21,2.67,2.67,0,0,0,.24-.74c0-.11.17-.14.25-.2l.36-.19Z"/><path class="cls-93" d="M2.34,12v.18c-.35.35-.26.89-.54,1.27a1.35,1.35,0,0,1-.13,1.2A5.16,5.16,0,0,0,1.48,18c.1.38-.15.78.14,1.12a.41.41,0,0,1-.37.17l-.17-.18a11.7,11.7,0,0,1,0-4.53h0a11.73,11.73,0,0,0,.74-2.45c.16-.44.2-.95.71-1.18l.18.19-.18.18C2.39,11.53,2.45,11.8,2.34,12Z"/><path class="cls-34" d="M10.68,27.62c-.25,0-.53.09-.73-.18.45-.06.37-.4.36-.68s.12-.63.55-.59A2.86,2.86,0,0,1,10.68,27.62Z"/><path class="cls-94" d="M12.31,30.7a6.45,6.45,0,0,1-3.77-1.86c-.39-.33-.75-.69-1.12-1,0-.05,0-.11,0-.16l.37,0c.41-.25.75-.06,1.09.16l.18,0c-.39.27-.18.46,0,.69A18.44,18.44,0,0,0,12.31,30.7Z"/><path class="cls-58" d="M8.87,27.78a2.68,2.68,0,0,1-1.09-.16,4.09,4.09,0,0,0,0-.7c-.1-.72.17-1.05.91-.93a2,2,0,0,1,.19,1.63A.86.86,0,0,0,8.87,27.78Z"/><path class="cls-95" d="M8.87,27.62c-.37-.51-.1-1.09-.19-1.63h.55C9.07,26.52,9.59,27.21,8.87,27.62Z"/><path class="cls-70" d="M29.52,25.44c0-.31.27-.47.37-.72h.18A.81.81,0,0,1,29.52,25.44Z"/><path class="cls-36" d="M21.72,16.21a.4.4,0,0,1-.15-.38,1.34,1.34,0,0,1,.79-.92c1.42-.76,2.81-1.58,4.17-2.44a1.85,1.85,0,0,1,1-.26c.25.88-.4,1.27-1,1.55a14.15,14.15,0,0,0-3.39,1.91C22.74,16,22.18,16,21.72,16.21Z"/><path class="cls-52" d="M1.07,14.57a40.27,40.27,0,0,0,0,4.53,9.3,9.3,0,0,1-.37-3.44C1.09,15.38.69,14.85,1.07,14.57Z"/><path class="cls-57" d="M1.8,13.48c0-.48-.07-1,.54-1.27C2.2,12.66,2.37,13.23,1.8,13.48Z"/><path class="cls-57" d="M2.34,12a.51.51,0,0,1,.18-.72A.51.51,0,0,1,2.34,12Z"/><path class="cls-96" d="M39.32,22.15q0-6.6,0-13.2c0-.49-.18-1,.65-1.1s1.67.22,1.79,1a12.11,12.11,0,0,1,.07,1.71c0,.83,0,1.66,0,2.61a6.87,6.87,0,0,1,4.11-.79,4.76,4.76,0,0,1,4.43,3.54,8.4,8.4,0,0,1,.21,4.28c-.31-.65-.85-.66-1.41-.46s-.78,0-.79-.62a3.52,3.52,0,0,0-.15-1.82c-.07-.23-.13-.47-.21-.7a2.71,2.71,0,0,0-2.67-2.14c-1.8-.11-2.91.44-3.51,1.76a25.28,25.28,0,0,0,0,6l.12.34c-.39,0-.46-.22-.42-.51.11-1-.39-.93-1.14-.83S39.53,21.68,39.32,22.15Z"/><path class="cls-96" d="M62.86,17.62V18c-1-.81-1.73-.76-2.35.18,0-.36,0-.71,0-1.07,0-2-.39-2.42-2.43-2.57a8.18,8.18,0,0,0-1,0,2.33,2.33,0,0,0-2.33,1.88c-.09.34-.15.7-.23,1.05-.35.63,0,1.33-.27,2,0-.57-.33-.6-.73-.6A1.31,1.31,0,0,0,52,20.16a7.64,7.64,0,0,1,.46-4.95,4.68,4.68,0,0,1,4.23-2.8,10.52,10.52,0,0,1,5.55,1,1,1,0,0,1,.68,1.12c-.06,1,0,1.93-.06,2.9l-.06,0A.52.52,0,0,0,62.86,17.62Z"/><path class="cls-97" d="M148.57,12.53q0,5.53,0,11a.58.58,0,0,1-.56.67,16.48,16.48,0,0,1-7.26.17,4.12,4.12,0,0,1-3.21-3c-.06-1.1.63-1.3,1.52-1.26.42,0,.45-.29.48-.6.34,1.53,1.07,2.73,2.76,2.92a22,22,0,0,0,2.81,0c.58,0,.81-.27.8-.9,0-1.87,0-3.74,0-5.61.3.52.07,1.08.16,1.62v4.51h.16V18.71c2.19,0,2.19,0,2.17-1.64s0-3,0-4.53Z"/><path class="cls-98" d="M148.44,12.54c0,1.51,0,3,0,4.53l-2.33.53c-.09-.54.14-1.1-.16-1.62a2.18,2.18,0,0,0-.93-1.06,3.39,3.39,0,0,0-5.34,2.44c0,.21-.08.42-.12.62s-.12.13,0,.19l0,.74c-.47,0-.95,0-1.43,0s-.85.17-.91.72a6.84,6.84,0,0,1,1.2-5.43c1.06-.17,2.12-.36,3.18-.5a31.17,31.17,0,0,1,4.18-.6c.14,0,.28,0,.34-.16a12.39,12.39,0,0,1,2.35-.38Z"/><path class="cls-99" d="M91.52,12.36a7.48,7.48,0,0,1,4.35,1.46c0,.36,0,.72,0,1.08-2,0-2,0-2,2v.18c-.09.71.18,1.46-.17,2.15,0-.51,0-1,0-1.52a6.35,6.35,0,0,0-.18-2.45,6.11,6.11,0,0,0-1.76-.65c-2.16-.33-3.33-.06-4,1.93a1.43,1.43,0,0,0-1-.09c-.5.09-1,.32-1.53-.08a4.54,4.54,0,0,1,3.48-3.81A5.78,5.78,0,0,0,91.52,12.36Z"/><path class="cls-100" d="M62.87,20.7c0,1,0,2.05,0,3.08,0,.5-.19.64-.64.6a5.77,5.77,0,0,0-.72,0c-.95,0-.95,0-1.22-1a4.44,4.44,0,0,1-4.66,1.17A3.49,3.49,0,0,1,53.22,23a.85.85,0,0,1,.8-.88A7,7,0,0,1,55.6,22l0,0c0,.07-.07.34.18.14a3.9,3.9,0,0,0,4.68-1.09C61.3,21,62,20.58,62.87,20.7Z"/><path class="cls-101" d="M109.28,16.34a4.77,4.77,0,0,1,4.12-4,6.92,6.92,0,0,1,3.82.4,2.85,2.85,0,0,1,1,.7,1.11,1.11,0,0,1,0,1.62c-.43.52-.77.4-1.28,0a4,4,0,0,0-3.55-.44c-.94.26-1.25,1.06-1.57,1.85l-.34.62c0-.51-.23-.67-.63-.61s-.7.1-1,.18S109.23,16.78,109.28,16.34Z"/><path class="cls-96" d="M70.14,16.2a5,5,0,0,1,5.51-3.94,5.39,5.39,0,0,1,3.23,1,1.15,1.15,0,0,1,.06,1.93.64.64,0,0,1-1,.05,4.08,4.08,0,0,0-3.45-.65A2.38,2.38,0,0,0,72.83,16a1.68,1.68,0,0,0-2.69,1.16Z"/><path class="cls-98" d="M105.1,24.68c0-.36.05-.73.07-1.09.22-.65.19-.73-.24-.74-1.09,1.19-2.53.93-3.89.86a3.41,3.41,0,0,1-2.1-.73c0-.49,0-.86.68-.87.37,0,.75-.14,1.14-.14s.79,0,.91-.52a5,5,0,0,0,2.71-.38c1.1.11,2.18-.25,3.28-.19,0,1.15,0,2.3,0,3.44Zm-2-3a1.24,1.24,0,0,0-.91,0A1.24,1.24,0,0,0,103.09,21.71Z"/><path class="cls-98" d="M95.86,14.9V13.82c.19.14.16.49.16.75,0,3,0,6,0,9,0,.68-.19.95-.87.85a2.89,2.89,0,0,0-.72,0c-.69.1-1-.15-.92-1a5,5,0,0,1-6.38.49.64.64,0,0,1,.62-.74,7.71,7.71,0,0,1,1.59-.22c.28,0,.64.11.71-.34a5,5,0,0,0,2.51-.6c.49.55,1,0,1.5,0,1.82-.06,1.82-.09,1.77-1.82v-1.8a.49.49,0,0,0,0-.17V15.8a.86.86,0,0,0,0-.16Z"/><path class="cls-96" d="M64.34,22c0-1.78,0-3.55,0-5.33,0-2.66,1.39-4.13,4-4.33a3,3,0,0,1,.9,0c.48.11,1.2-.21,1.39.44s-1,1.55-1.61,1.59c-1.23.07-1.57.33-2,1.47-.36.63-.08,1.32-.18,2-.4-1.24-.39-1.17-1.51-1-.78.14-.86.56-.83,1.2s0,1.44,0,2.16S64.7,21.4,64.34,22Z"/><path class="cls-98" d="M111.63,19.07c.24.6.09,1.3.42,1.88A3.12,3.12,0,0,0,116.57,22c1-.7,1.43-.27,1.92.49a13.82,13.82,0,0,0-2.31.24c-1.19.17-2.33.55-3.52.65a1.14,1.14,0,0,0-1.07.59,4.79,4.79,0,0,1-2.5-4.37A4.6,4.6,0,0,1,111.63,19.07Z"/><path class="cls-97" d="M130.14,22c0,.36,0,.72,0,1.08,0,1.51.2,1.28-1.36,1.33-.66,0-1.23,0-1.06-1.27a4.22,4.22,0,0,1-4.36,1.54,3.89,3.89,0,0,1-2.55-1.21,10.55,10.55,0,0,1,3.06-.57,4.72,4.72,0,0,0,1.86-.18A9.92,9.92,0,0,1,130.14,22Z"/><path class="cls-100" d="M49.67,22.57a4.07,4.07,0,0,1-2.93,1.91,15.6,15.6,0,0,1-7.06-.33,3,3,0,0,1,1.67-.75c.45-.11,1.07-.06,1.24-.71h.35a3.7,3.7,0,0,0,2.54,0h.17c.17,0,.32,0,.36-.24l.36-.17c.91.27,1.76-.19,2.66-.22C49.5,22.05,49.61,22.2,49.67,22.57Z"/><path class="cls-96" d="M81,16.54l0-7.4A1.08,1.08,0,0,1,81.64,8,2.33,2.33,0,0,1,83.4,8c.25.1.19.35.19.55,0,1.75,0,3.49,0,5.23H82.38c-1.1,0-1.16.09-1.2,1.16C81.16,15.5,81.39,16.06,81,16.54Z"/><path class="cls-102" d="M131.59,17.25c-.44-4.14,2.7-5.42,5.84-4.86.41.07.6.19.34.65-.42.74-.76,1.44-1.85,1.36s-1.48.66-1.65,1.59l-.16.18C133.18,16.31,132,16,131.59,17.25Z"/><path class="cls-97" d="M107.28,26a3.85,3.85,0,0,1-3.5,2.66,11.28,11.28,0,0,1-5.74-.7c0-.48.29-.61.67-.68a16.47,16.47,0,0,1,3.57-.38,5.69,5.69,0,0,0,2.24-.52A4.57,4.57,0,0,1,107.28,26Z"/><path class="cls-101" d="M119.81,15.1a4.46,4.46,0,0,1,3.82-2.74,9,9,0,0,1,5.57,1,28.44,28.44,0,0,1-2.89.45c-.78.06-.58.38-.36.8l-.36-.06a2,2,0,0,0-1.62,0l-.34.06a4.5,4.5,0,0,0-1.11-.09A10.38,10.38,0,0,0,119.81,15.1Z"/><path class="cls-101" d="M97.51,20.33a36.15,36.15,0,0,1,0-6.9V15c.52-.36,1.06-.12,1.52-.29s.67.07.67.55c0,.85,0,1.71,0,2.57h.18v-5a22.24,22.24,0,0,1,.1,3.74c0,.93,0,1.85,0,2.78-.23.18-.46,0-.69,0C98.46,19.24,97.69,19.3,97.51,20.33Zm2.3-1.8,0-.07,0,.06s0,.05,0,.08Z"/><path class="cls-98" d="M120,22.34a7.4,7.4,0,0,1-.78-5.05c.87.44,1.73-.09,2.6,0a7.57,7.57,0,0,0,.72,4.36c-.15.19-.38.11-.56.18C121.3,22.05,120.51,21.73,120,22.34Z"/><path class="cls-101" d="M64.34,22c.36-.57.09-1.21.18-1.8h.54c1.85,0,1.85,0,1.78-1.83a.76.76,0,0,0,0-.15v-.4c.1-.65-.18-1.34.18-2,0,2.6,0,5.19,0,7.78,0,.63-.16.83-.8.83-2,0-2,0-1.92-1.91A4.9,4.9,0,0,1,64.34,22Z"/><path class="cls-102" d="M79.65,22.87c.24.51-.26.61-.5.79a6.71,6.71,0,0,1-7.21,0c0-.51.37-.39.69-.47,1.27-.33,2.61-.23,3.88-.53a8,8,0,0,1,2.65-.36l0,0C79.17,22.69,79.27,22.91,79.65,22.87Z"/><path class="cls-103" d="M120,22.34c.54-.61,1.33-.29,2-.54.18-.07.41,0,.56-.18a3.24,3.24,0,0,0,3.68.57,2.22,2.22,0,0,0,1.59-2.58l2.36-.18V22a9.92,9.92,0,0,0-4.38.72,4.72,4.72,0,0,1-1.86.18,10.55,10.55,0,0,0-3.06.57A2.15,2.15,0,0,1,120,22.34Z"/><path class="cls-103" d="M111.59,24a1.14,1.14,0,0,1,1.07-.59c1.19-.1,2.33-.48,3.52-.65a13.82,13.82,0,0,1,2.31-.24l0,0,.13.13,0,.06.12.12c.19.57-.33.72-.62.89A6.63,6.63,0,0,1,111.59,24Z"/><path class="cls-102" d="M126,14.56c-.22-.42-.42-.74.36-.8a28.44,28.44,0,0,0,2.89-.45,1.17,1.17,0,0,1,1,1.44c-.07.71,0,1.43-.05,2.14a23,23,0,0,0-2.35-.18c-.09-1.56-.09-1.56-1.59-2A1.79,1.79,0,0,1,126,14.56Z"/><path class="cls-102" d="M107.66,20.88c-1.1-.06-2.18.3-3.28.19a3.13,3.13,0,0,0,.76-2.25c0-1.51,0-3,0-4.52a1.9,1.9,0,0,1,.15-1.05l0,3.27v2.33c.28-1.71.54-1.88,2.26-1.42h.09Z"/><path class="cls-99" d="M70.14,16.2v.94A1.68,1.68,0,0,1,72.83,16a11.93,11.93,0,0,0-.36,3.09c-.9.07-1.87-.15-2.53.73A7,7,0,0,1,70.14,16.2Z"/><path class="cls-99" d="M81,16.54c.4-.48.17-1,.19-1.56,0-1.07.1-1.15,1.2-1.16h1.17v3.27h-.18c-2,0-2.19.21-2.18,2.18V22.7H81Z"/><path class="cls-99" d="M55.6,22a7,7,0,0,0-1.58.16.85.85,0,0,0-.8.88.09.09,0,0,1-.12-.09l-.17-.23A4.25,4.25,0,0,1,52,20.16a1.31,1.31,0,0,1,1.51-1.27c.4,0,.74,0,.73.6.26-.72-.08-1.42.27-2,0,.32,0,.65,0,1A4.73,4.73,0,0,0,55.6,22Z"/><path class="cls-98" d="M131.59,17.25c.44-1.3,1.59-.94,2.52-1.08,0,1,0,2.11,0,3.16,0,.19.15.58-.28.49-.76-.15-1.48.21-2.23.15Z"/><path class="cls-102" d="M97.51,20.33c.18-1,.95-1.09,1.77-1.08.23,0,.46.19.69,0,.25,1,.52,1.93,1.7,2.19-.12.5-.52.51-.91.52s-.77.13-1.14.14c-.66,0-.71.38-.68.87A3.24,3.24,0,0,1,97.51,20.33Z"/><path class="cls-103" d="M107.28,26a4.57,4.57,0,0,0-2.76.38,5.69,5.69,0,0,1-2.24.52,16.47,16.47,0,0,0-3.57.38c-.38.07-.7.2-.67.68-.63-.13-.21-.51-.14-.74.38-1.29.39-1.29,1.67-1a13.28,13.28,0,0,0,2.66.35c1.72,0,2.24-.3,2.87-1.85l2.55-.36A2.62,2.62,0,0,1,107.28,26Z"/><path class="cls-100" d="M85.18,16.37c.48.4,1,.17,1.53.08a1.43,1.43,0,0,1,1,.09l-.18,2.68,0,.18c-.89-.29-1.65.26-2.48.39A7,7,0,0,1,85.18,16.37Z"/><path class="cls-100" d="M105.31,16.52l0-3.27a1.86,1.86,0,0,1,2.18-.68c.24.12.24.32.24.53,0,.9,0,1.81,0,2.71C106.86,16,105.89,15.63,105.31,16.52Z"/><path class="cls-102" d="M121.79,17.26c-.87-.06-1.73.47-2.6,0a4.34,4.34,0,0,1,.62-2.19,10.38,10.38,0,0,1,2.71-.63,4.5,4.5,0,0,1,1.11.09A3.13,3.13,0,0,0,121.79,17.26Z"/><path class="cls-100" d="M69.94,19.8c.66-.88,1.63-.66,2.53-.73l.59,2.48a1,1,0,0,1-1,.42,2.19,2.19,0,0,0-1.35.35A4.78,4.78,0,0,1,69.94,19.8Z"/><path class="cls-99" d="M62.87,20.7c-.83-.12-1.57.33-2.38.35l0-2.16.06-.05a.33.33,0,0,0-.07-.13v-.55c.62-.94,1.33-1,2.35-.18Z"/><path class="cls-102" d="M90.07,22.53c-.07.45-.43.37-.71.34a7.71,7.71,0,0,0-1.59.22.64.64,0,0,0-.62.74,3.78,3.78,0,0,1-1.77-2.41A2,2,0,0,1,88,21.06,2.8,2.8,0,0,0,90.07,22.53Z"/><path class="cls-99" d="M49.67,22.57c-.06-.37-.17-.52-.64-.51-.9,0-1.75.49-2.66.22A3.45,3.45,0,0,0,48.24,19c0-.57,0-1.14,0-1.71a3.52,3.52,0,0,1,.15,1.82c0,.59.16.84.79.62s1.1-.19,1.41.46A4.22,4.22,0,0,1,49.67,22.57Z"/><path class="cls-102" d="M111.63,19.07a4.6,4.6,0,0,0-2.54.55,6.4,6.4,0,0,1,.19-3.28c0,.44.17.47.53.38s.69-.13,1-.18.63.1.63.61l.34-.62Z"/><path class="cls-102" d="M145.75,13.07a31.17,31.17,0,0,0-4.18.6c-1.06.14-2.12.33-3.18.5A5.85,5.85,0,0,1,145.75,13.07Z"/><path class="cls-101" d="M70.71,22.32A2.19,2.19,0,0,1,72.06,22a1,1,0,0,0,1-.42,3.89,3.89,0,0,0,5,.1c.6-.41.74.41,1.08.69a8,8,0,0,0-2.65.36c-1.27.3-2.61.2-3.88.53-.32.08-.7,0-.69.47A3.05,3.05,0,0,1,70.71,22.32Z"/><path class="cls-102" d="M81.19,22.7V21.61c.8.08,1.57-.29,2.37-.18,0,.68,0,1.37,0,2.05s-.24,1-1,.85c-.12-.19-.24-.19-.35,0H81.19Z"/><path class="cls-98" d="M127.78,16.71a23,23,0,0,1,2.35.18c0,.85,0,1.7,0,2.54l-2.36.18Z"/><path class="cls-103" d="M131.59,20c.75.06,1.47-.3,2.23-.15.43.09.28-.3.28-.49,0-1,0-2.11,0-3.16l.16-.18c0,2.56,0,5.12,0,7.69,0,.47-.1.68-.64.71-2.09.08-2.09.1-2.08-2C131.56,21.6,131.58,20.79,131.59,20Zm2.34,2.65c0-1.72-.21-1.87-1.72-1.24l-.08,0c-.42.08-.4.41-.36.7.08.66-.23,1.37.21,2,0,0,.11,0,.17.05,1.33.33,1.78,0,1.78-1.35Z"/><path class="cls-101" d="M148.57,12.53h-.13V10.64c0-.26,0-.53-.35-.62a1.29,1.29,0,0,0-1.65,1.09c0,.25,0,.49-.34.53,0-.87,0-1.74,0-2.61a1,1,0,0,1,.7-1,2,2,0,0,1,1.66,0c.24.11.18.36.17.56C148.59,9.89,148.58,11.21,148.57,12.53Z"/><path class="cls-99" d="M42.59,22.69c-.17.65-.79.6-1.24.71a3,3,0,0,0-1.67.75c-.82-.31-.24-1-.36-1.46l.07,0s0-.09-.07-.13v-.37c.21-.47.35-.91,1-1S41.61,21,41.5,22c0,.29,0,.54.42.51l.65.05S42.58,22.63,42.59,22.69Z"/><path class="cls-101" d="M83.56,21.43c-.8-.11-1.57.26-2.37.18V19.26a10.55,10.55,0,0,1,2.36-.37Z"/><path class="cls-99" d="M99.85,12.74v5h-.18c0-.86,0-1.72,0-2.57,0-.48-.07-.78-.67-.55s-1-.07-1.52.29V13.43C97.81,12.46,98.64,12.22,99.85,12.74Z"/><path class="cls-102" d="M146.1,11.64c.32,0,.32-.28.34-.53A1.29,1.29,0,0,1,148.09,10c.37.09.34.36.35.62v1.89a12.39,12.39,0,0,0-2.35.38Z"/><path class="cls-100" d="M83.55,18.89a10.55,10.55,0,0,0-2.36.37c0-2,.17-2.15,2.18-2.18h.18Z"/><path class="cls-101" d="M88,21.06a2,2,0,0,0-2.62.36A3.17,3.17,0,0,1,85,19.79c.83-.13,1.59-.68,2.48-.39l0-.18Z"/><path class="cls-101" d="M105.31,16.52c.58-.89,1.55-.51,2.34-.71v1.63h-.09c-1.72-.46-2-.29-2.26,1.42Z"/><path class="cls-103" d="M137.19,19.6c.06-.55.37-.76.91-.72s1,0,1.43,0c0,.22,0,.44.05.65s-.06.61-.48.6c-.89,0-1.58.16-1.52,1.26A3.81,3.81,0,0,1,137.19,19.6Z"/><path class="cls-96" d="M91.52,12.36a5.78,5.78,0,0,1-2.86.2A5.67,5.67,0,0,1,91.52,12.36Z"/><path class="cls-101" d="M81.19,22.7v1.64c-.47-.5-.16-1.09-.19-1.65Z"/><path class="cls-103" d="M104.93,22.85c.43,0,.46.09.24.74C105.06,23.35,105.27,23,104.93,22.85Z"/><path class="cls-101" d="M79.65,22.87c-.38,0-.48-.18-.46-.5A1.12,1.12,0,0,1,79.65,22.87Z"/><path class="cls-101" d="M82.28,24.33c.11-.19.23-.19.35,0Z"/><path class="cls-99" d="M62.86,17.62a.52.52,0,0,1-.06-.13l.06,0Z"/><path class="cls-98" d="M118.83,22.87l-.12-.12Z"/><path class="cls-100" d="M52.93,22.69l.17.23Z"/><path class="cls-98" d="M118.66,22.69l-.13-.13Z"/><path class="cls-96" d="M39.32,22.52s0,.08.07.13l-.07,0Z"/><path class="cls-99" d="M41.83,16.18l0,6A25.28,25.28,0,0,1,41.83,16.18Z"/><path class="cls-103" d="M146.1,17.6l2.33-.53c0,1.64,0,1.64-2.17,1.64l-.16,0Z"/><path class="cls-98" d="M146.1,18.73l.16,0V22.1h-.16Z"/><path class="cls-103" d="M139.55,18v.19C139.43,18.11,139.43,18,139.55,18Z"/><path class="cls-102" d="M92.58,21.93a2,2,0,0,0,1-2.05c-.08-1.53,0-3.08,0-4.62a6.35,6.35,0,0,1,.18,2.45c0,.5,0,1,0,1.52v1.71c.42-.5-.22-1.2.52-1.5,1-.39,1.28-.25,1.62.7.05,1.73.05,1.76-1.77,1.82C93.59,22,93.07,22.48,92.58,21.93Z"/><path class="cls-101" d="M95.85,20.14c-.34-.95-.67-1.09-1.62-.7-.74.3-.1,1-.52,1.5V19.23c.35-.69.08-1.44.17-2.15a7.37,7.37,0,0,1,2-.37v1.46l-.06,0,.06.12Z"/><path class="cls-100" d="M95.85,16.71a7.37,7.37,0,0,0-2,.37V16.9c0-1.95,0-1.95,2-2v.74l-.07,0,.06.12Z"/><path class="cls-99" d="M55.63,22l.18.14C55.56,22.34,55.67,22.07,55.63,22Z"/><path class="cls-102" d="M103.09,21.71a1.24,1.24,0,0,1-.91,0A1.24,1.24,0,0,1,103.09,21.71Z"/><path class="cls-99" d="M95.85,15.8l-.06-.12.07,0A.86.86,0,0,1,95.85,15.8Z"/><path class="cls-100" d="M95.85,18.34l-.06-.12.06,0A.49.49,0,0,1,95.85,18.34Z"/><path class="cls-99" d="M66.85,17.78v.4l-.06,0a.54.54,0,0,0,0,.11c.07,1.83.07,1.83-1.78,1.83h-.54c0-.72,0-1.44,0-2.16s0-1.06.83-1.2C66.46,16.61,66.45,16.54,66.85,17.78Z"/><path class="cls-102" d="M42.57,22.53h3.09c0,.06,0,.11,0,.17H42.59C42.58,22.63,42.58,22.58,42.57,22.53Z"/><path class="cls-99" d="M42.94,22.69h2.54A3.7,3.7,0,0,1,42.94,22.69Z"/><path class="cls-99" d="M45.65,22.69c0-.06,0-.11,0-.17l.35-.07C46,22.65,45.82,22.69,45.65,22.69Z"/><path class="cls-102" d="M125.59,14.5H124A2,2,0,0,1,125.59,14.5Z"/><path class="cls-99" d="M99.81,18.53l0,.07s0-.05,0-.08l0-.06Z"/><path class="cls-96" d="M66.84,18.33a.54.54,0,0,1,0-.11l.06,0A.76.76,0,0,1,66.84,18.33Z"/><path class="cls-96" d="M60.53,18.89v-.18a.33.33,0,0,1,.07.13Z"/><path class="cls-97" d="M133.93,22.62v.17c0,1.34-.45,1.68-1.78,1.35-.06,0-.15,0-.17-.05-.44-.61-.13-1.32-.21-2,0-.29-.06-.62.36-.7l.08,0C133.72,20.75,133.93,20.9,133.93,22.62Z"/></svg>