<?xml version="1.0" encoding="utf-8"?>
<svg version="1.1" id="Layer_1" xmlns="http://www.w3.org/2000/svg" xmlns:xlink="http://www.w3.org/1999/xlink" x="0px" y="0px"
	width="100px" height="100px" viewBox="0 0 1284.7 1278.3" style="enable-background:new 0 0 1284.7 1278.3;" xml:space="preserve">
<g>
	
		<radialGradient id="SVGID_1_" cx="-305.5293" cy="202.4407" r="6.1742" fx="-305.8401" fy="202.3467" gradientTransform="matrix(47.4074 0 0 -47.4074 15011.5898 10105.5596)" gradientUnits="userSpaceOnUse">
		<stop  offset="0.1474" style="stop-color:#FFFDFB"/>
		<stop  offset="0.2567" style="stop-color:#FEF5F0"/>
		<stop  offset="0.3572" style="stop-color:#FDEAE1"/>
		<stop  offset="0.3918" style="stop-color:#FDE5D0"/>
		<stop  offset="0.4643" style="stop-color:#FDD59F"/>
		<stop  offset="0.5679" style="stop-color:#FBBC44"/>
		<stop  offset="0.6069" style="stop-color:#FAB30C"/>
		<stop  offset="0.6531" style="stop-color:#F8AA08"/>
		<stop  offset="0.8272" style="stop-color:#F28C00"/>
		<stop  offset="0.9196" style="stop-color:#F08100"/>
	</radialGradient>
	<path style="fill:url(#SVGID_1_);" d="M744.3,346.1c-47.4-56.9-128-99.6-208.6-99.6c-147,0-265.5,118.5-265.5,265.5
		c0,75.9,33.2,142.2,80.6,189.6c-4.7,9.5-9.5,23.7-14.2,37.9c4.7-14.2,14.2-28.4,19-37.9c0,0,0-4.7,4.7-4.7c4.7,0,0-4.7,4.7-4.7
		c0,0,0-4.7,4.7-4.7c0,0,0-4.7,4.7-4.7c0,0,0-4.7,4.7-4.7c4.7,0,0-4.7,4.7-4.7c9.5-14.2,19-33.2,33.2-47.4l0,0
		c4.7-9.5,9.5-14.2,19-23.7l0,0c4.7-9.5,9.5-14.2,19-23.7l0,0l0,0c9.5-14.2,23.7-28.4,33.2-37.9c4.7-4.7,9.5-9.5,14.2-14.2l4.7-4.7
		c14.2-14.2,28.4-28.4,47.4-42.7l4.7-4.7c4.7-4.7,14.2-9.5,19-14.2s14.2-9.5,19-14.2l0,0l0,0c9.5-4.7,14.2-9.5,23.7-14.2l0,0l0,0
		c9.5-4.7,14.2-9.5,23.7-14.2l0,0l0,0c9.5-4.7,14.2-9.5,23.7-14.2l0,0l0,0c14.2-9.5,33.2-19,52.1-28.4h4.7h4.7h4.7h4.7
		c23.7-9.5,47.4-19,71.1-28.4c19-4.7,37.9-14.2,56.9-19c14.2-4.7,33.2-9.5,52.1-9.5C848.6,303.4,796.4,322.4,744.3,346.1z"/>
	
		<radialGradient id="SVGID_2_" cx="-305.6851" cy="1916.6681" r="16.8392" gradientTransform="matrix(47.4074 0 0 47.4074 15011.5898 -90321.3438)" gradientUnits="userSpaceOnUse">
		<stop  offset="0" style="stop-color:#EC822A"/>
		<stop  offset="4.840000e-002" style="stop-color:#E76C38"/>
		<stop  offset="0.1484" style="stop-color:#DB345C"/>
		<stop  offset="0.2336" style="stop-color:#D0007E"/>
		<stop  offset="0.5745" style="stop-color:#761E7D"/>
		<stop  offset="0.6015" style="stop-color:#701E7B"/>
		<stop  offset="0.8705" style="stop-color:#371F66"/>
		<stop  offset="1" style="stop-color:#211F5E"/>
	</radialGradient>
	<path style="fill:url(#SVGID_2_);" d="M1199.4,317.6c0-4.7-4.7-9.5-9.5-14.2c0,0-4.7-4.7-9.5-4.7h4.7l0,0c-19,0-37.9,0-56.9,0
		c-118.5,0-232.3,23.7-336.6,66.4s-194.4,104.3-275,180.1S374.5,711.1,327.1,810.7S256,1024,251.3,1137.8l0,0v-4.7
		c0,4.7,0,4.7,4.7,9.5c33.2,28.4,71.1,52.1,113.8,71.1c180.1,90.1,403,85.3,583.1-9.5c180.1-99.6,303.4-284.4,327.1-488.3
		c4.7-28.4,4.7-52.1,4.7-80.6c0-94.8-23.7-189.6-66.4-275C1213.6,346.1,1204.1,331.9,1199.4,317.6z"/>
	
		<radialGradient id="SVGID_3_" cx="-301.509" cy="198.1622" r="13.7541" fx="-306.9609" fy="192.481" gradientTransform="matrix(47.4074 0 0 -47.4074 15011.5898 10105.5596)" gradientUnits="userSpaceOnUse">
		<stop  offset="0.189" style="stop-color:#FFFFFF"/>
		<stop  offset="0.5328" style="stop-color:#FFE500"/>
		<stop  offset="1" style="stop-color:#ED6B06"/>
	</radialGradient>
	<path style="fill:url(#SVGID_3_);" d="M393.5,635.3c52.1-75.9,113.8-137.5,184.9-194.4C749,312.9,967.1,256,1180.4,289.2
		c0,4.7,4.7,4.7,4.7,9.5l0,0c0,0,0,0,0,4.7c-66.4-4.7-132.7,0-199.1,9.5c-227.6,37.9-436.1,165.9-568.9,350.8
		c-19,28.4-37.9,61.6-56.9,90.1c-61.6,118.5-104.3,256-104.3,388.7c-4.7-4.7-4.7-4.7-9.5-9.5c0-42.7,0-85.3,4.7-128
		C270.2,872.3,317.6,749,393.5,635.3C388.7,640,388.7,640,393.5,635.3L393.5,635.3z"/>
	<g style="opacity:0.3;">
		<g>
			<path style="fill:#FFFFFF;" d="M739.6,355.6C696.9,289.2,616.3,241.8,531,241.8c-137.5,0-251.3,113.8-251.3,251.3
				c0,80.6,37.9,156.4,99.6,199.1l-4.7,14.2c-66.4-47.4-109-123.3-109-213.3c0-147,118.5-260.7,260.7-260.7
				C616.3,232.3,696.9,279.7,739.6,355.6L739.6,355.6z"/>
		</g>
	</g>
	<circle style="opacity:0.15;fill:#FFFFFF;enable-background:new    ;" cx="531" cy="493" r="194.4"/>
	
		<radialGradient id="SVGID_4_" cx="-304.2007" cy="1281.3741" r="12.1781" gradientTransform="matrix(47.4074 0 0 -47.4074 15011.5898 61310.7734)" gradientUnits="userSpaceOnUse">
		<stop  offset="0" style="stop-color:#FBD1BF"/>
		<stop  offset="0.5595" style="stop-color:#EF7D00"/>
		<stop  offset="0.6965" style="stop-color:#EA560D"/>
		<stop  offset="0.8228" style="stop-color:#E63412"/>
		<stop  offset="0.9282" style="stop-color:#E41A13"/>
		<stop  offset="1" style="stop-color:#E30613"/>
	</radialGradient>
	<path style="fill:url(#SVGID_4_);" d="M1175.7,284.4L1175.7,284.4c-4.7-4.7-4.7-4.7-9.5-9.5c-4.7-4.7,0,0-4.7-4.7c0,0,0,0-4.7-4.7
		c-4.7-4.7,0,0-4.7-4.7c-4.7-4.7,0,0-4.7-4.7c0,0,0,0-4.7-4.7c0,0,0,0-4.7-4.7c0,0,0,0-4.7-4.7c0,0,0,0-4.7-4.7s0,0-4.7-4.7
		c0,0,0,0-4.7-4.7c0,0,0,0-4.7-4.7c0,0,0,0-4.7-4.7c0,0,0,0-4.7-4.7c0,0,0,0-4.7-4.7C986.1,80.6,815.4,0,630.5,0
		C279.7,0,0,284.4,0,630.5c0,175.4,71.1,331.9,184.9,445.6c0,0,0,0,4.7,4.7c4.7,4.7,0,0,4.7,4.7c0,0,0,0,4.7,4.7c0,0,0,0,4.7,4.7
		c0,0,0,0,4.7,4.7c4.7,4.7,0,0,4.7,4.7c4.7,4.7,0,0,4.7,4.7c0,0,0,0,4.7,4.7c0,0,0,0,4.7,4.7c0,0,0,0,4.7,4.7c0,0,0,0,4.7,4.7
		c0-90.1,9.5-165.9,23.7-227.6c4.7-9.5,4.7-23.7,9.5-33.2c9.5-28.4,14.2-52.1,23.7-80.6c9.5-23.7,23.7-42.7,28.4-66.4
		c4.7-14.2,9.5-19,14.2-33.2C284.4,640,256,568.9,256,493c0-147,118.5-265.5,265.5-265.5c80.6,0,156.4,37.9,203.9,94.8
		c0,0,90.1-23.7,99.6-28.4c52.1-14.2,104.3-23.7,161.2-28.4c47.4-4.7,99.6-4.7,151.7,4.7c14.2,4.7,28.4,14.2,42.7,14.2
		C1175.7,284.4,1175.7,284.4,1175.7,284.4z"/>
	<polygon style="fill:#FFFFFF;" points="559.4,507.3 706.4,497.8 554.7,488.3 791.7,232.3 535.7,469.3 531,260.7 521.5,474.1 
		270.2,237 502.5,483.6 165.9,497.8 497.8,507.3 275,758.5 521.5,516.7 531,649.5 535.7,521.5 791.7,753.8 	"/>
</g>
</svg>
