<?xml version="1.0"?>
<svg xmlns="http://www.w3.org/2000/svg" xmlns:xlink="http://www.w3.org/1999/xlink" xmlns:svgjs="http://svgjs.com/svgjs" version="1.1" width="512" height="512" x="0" y="0" viewBox="0 0 512 512" style="enable-background:new 0 0 512 512" xml:space="preserve" class=""><g><g xmlns="http://www.w3.org/2000/svg"><g><g><g><g><g><g><g id="XMLID_520_"><g id="XMLID_521_"><g id="XMLID_522_"><g id="XMLID_1335_"><g id="XMLID_1380_"><g id="XMLID_1381_"><g id="XMLID_1382_"><g id="XMLID_1383_"><g id="XMLID_1384_"><g id="XMLID_1385_"><g id="XMLID_1386_"><g id="XMLID_1481_"><g id="XMLID_1482_"><g id="XMLID_1483_"><g><path d="m512 256c0 57.48-18.95 110.54-50.94 153.27-9.428 12.597-29.066 18.16-40.615 28.812-13.525 12.474-19.328 29.646-35.305 38.988-37.91 22.21-82.04 34.93-129.14 34.93-141.38 0-256-114.62-256-256 0-57.42 18.91-110.42 50.83-153.13 11.852-15.855 31.378-19.104 46.519-31.817 13.603-11.422 22.534-32.639 38.331-41.063 35.87-19.14 76.83-29.99 120.32-29.99 141.38 0 256 114.62 256 256z" fill="#f1f1f1" data-original="#5b5555" style="" class=""/></g></g></g></g></g></g></g></g></g></g></g></g></g></g></g></g></g></g></g></g></g><path d="m130.438 282.221 83.671 81.47-81.453 15.87 132.556 132.275c43.64-1.544 84.5-14.011 119.928-34.767 15.977-9.342 21.779-26.515 35.305-38.988 11.549-10.651 31.187-16.214 40.615-28.812 31.99-42.729 50.94-95.789 50.94-153.269 0-3.583-.074-7.149-.22-10.696l-97.982-98.056-362.968-44.378 89.597 87.815z" fill="#f1f1f1" data-original="#3f3a3a" style="" class=""/><g><path d="m130.438 141.483h261.261v140.738h-261.261z" fill="#8ee26b" data-original="#8ee26b" style="" class=""/><path d="m261.07 141.48h130.63v140.74h-130.63z" fill="#00cb75" data-original="#00cb75" style="" class=""/><ellipse cx="261.068" cy="211.852" fill="#a3c675" rx="34.802" ry="34.802" transform="matrix(.233 -.972 .972 .233 -5.828 416.312)" data-original="#a3c675" style=""/><g><ellipse cx="178.61" cy="211.852" fill="#a3c675" rx="16.419" ry="16.419" transform="matrix(.736 -.677 .677 .736 -96.282 176.965)" data-original="#a3c675" style=""/><ellipse cx="343.526" cy="211.852" fill="#8ee26b" rx="16.419" ry="16.419" transform="matrix(.925 -.379 .379 .925 -54.673 146.059)" data-original="#8ee26b" style="" class=""/></g><g><g><path d="m361.655 386.732-4.608-40.925c-5.518-2.73-11.596-4.139-17.753-4.114l-89.812.358c-12.462.05-22.524 10.192-22.474 22.654.05 12.462 10.192 22.524 22.654 22.474z" fill="#f4af71" data-original="#f4af71" style="" class=""/><path d="m461.06 409.27c-20.47 27.35-46.3 50.48-75.92 67.8l-38.84-32.86-92.55.37c-22.69.09-44.79-7.19-62.97-20.76l-53.13-39.6c-6.85-5.11-10.99-12.49-12.16-20.32-1.19-7.91.66-16.27 5.82-23.19 10.27-13.75 29.73-16.59 43.48-6.33l62.35 46.48 80.29.33c2.06.01 4.08-.14 6.07-.44 17.56-2.63 31.56-16.8 33.55-34.94z" fill="#fcc78d" data-original="#fcc78d" style="" class=""/></g><g><path d="m176.205 138.477 4.759 42.263c5.699 2.819 11.975 4.274 18.334 4.249l92.747-.37c12.869-.051 23.26-10.525 23.208-23.394-.051-12.869-10.525-23.26-23.394-23.208z" fill="#f4af71" data-original="#f4af71" style="" class=""/><path d="m414.08 186c-10.6 14.2-30.71 17.13-44.91 6.54l-64.38-48-82.91-.34c-2.13-.01-4.22.14-6.27.45-18.14 2.72-32.6 17.35-34.65 36.09l-130.13-77.87c22.5-30.1 51.47-55.08 84.85-72.88l56.38 49.13 95.58-.38c23.42-.1 46.25 7.42 65.02 21.44l54.87 40.9c7.07 5.27 11.34 12.89 12.56 20.97 1.22 8.17-.69 16.81-6.01 23.95z" fill="#fcc78d" data-original="#fcc78d" style="" class=""/></g></g></g><path d="m295.87 211.85c0 19.22-15.58 34.8-34.8 34.8v-69.6c8.21 0 15.76 2.84 21.72 7.61 7.97 6.37 13.08 16.18 13.08 27.19z" fill="#8ee26b" data-original="#8ee26b" style="" class=""/><g><g><path d="m361.65 386.73-100.58.4v-45.13l78.22-.31h.13c6.12 0 12.15 1.41 17.63 4.12z" fill="#e59757" data-original="#e59757" style="" class=""/><path d="m461.06 409.27c-20.47 27.35-46.3 50.48-75.92 67.8l-38.84-32.86-85.23.34v-63.59l56.36.23c2.06.01 4.08-.14 6.07-.44 17.56-2.63 31.56-16.8 33.55-34.94z" fill="#f4af71" data-original="#f4af71" style="" class=""/></g><g><path d="m315.25 161.22c.05 12.87-10.34 23.35-23.21 23.4l-9.25.04-21.72.08v-46.6l30.79-.12h.11c4.48 0 8.66 1.27 12.21 3.46 3.48 2.15 6.35 5.18 8.29 8.79 1.76 3.26 2.76 6.99 2.78 10.95z" fill="#e59757" data-original="#e59757" style="" class=""/><path d="m414.08 186c-5.57 7.47-13.78 11.82-22.38 12.72-7.74.82-15.8-1.16-22.53-6.18l-56.7-42.27-7.68-5.73-43.72-.18v-65.51l26.57-.11c23.42-.1 46.25 7.42 65.02 21.44l54.87 40.9c7.07 5.27 11.34 12.89 12.56 20.97 1.22 8.17-.69 16.81-6.01 23.95z" fill="#f4af71" data-original="#f4af71" style="" class=""/></g></g></g></g></svg>
