<?xml version="1.0" encoding="utf-8"?>
<svg version="1.1" id="Layer_1" xmlns="http://www.w3.org/2000/svg" xmlns:xlink="http://www.w3.org/1999/xlink" x="0px" y="0px"
	width="100px" height="100px" viewBox="0 0 66.7 66.7" style="enable-background:new 0 0 66.7 66.7;" xml:space="preserve">
<g>
	<circle style="fill:#E8E8E8;" cx="33.3" cy="33.3" r="33.3"/>
	<circle style="fill:#FFFFFF;" cx="33.3" cy="33.3" r="32.7"/>
	<path d="M50.3,31.4c-0.6,0-0.9,0.3-1.1,0.6v-2.5h-0.7v5.9h0.7v-2.8c0-0.5,0.4-1,0.9-1c0.5,0,0.8,0.4,0.8,1.1v2.7h0.7v-2.7
		C51.7,31.9,51.1,31.4,50.3,31.4L50.3,31.4z M34.9,29.5h0.7v5.9h-0.7V29.5z M28.5,31.4c-0.6,0-1,0.3-1.1,0.6v-0.5h-0.7v3.9h0.7v-2.8
		c0-0.5,0.4-1,0.9-1c0.5,0,0.8,0.4,0.8,1.1v2.7h0.7v-2.6C29.9,31.9,29.3,31.4,28.5,31.4L28.5,31.4C28.5,31.4,28.5,31.4,28.5,31.4z
		 M55.1,34.2c0,0.7-0.3,1.1-0.9,1.1c-0.6,0-0.9-0.4-0.9-1.1v-2.7h-0.7v2.4c0,0.9,0.5,1.6,1.5,1.6s1.6-0.7,1.6-1.6v-2.4h-0.7
		L55.1,34.2z M24.9,34.2c0,0.7-0.3,1.1-0.9,1.1s-0.9-0.4-0.9-1.1v-2.7h-0.7v2.4c0,0.9,0.6,1.6,1.6,1.6s1.6-0.7,1.6-1.6v-2.4h-0.7
		L24.9,34.2C24.9,34.2,24.9,34.2,24.9,34.2z M38.6,34.4c0,0.4-0.4,0.9-0.9,0.9c-0.5,0-0.6-0.4-0.6-0.9c0-0.6,0.1-0.8,0.7-0.9
		c0.4-0.1,0.7-0.2,0.8-0.3L38.6,34.4C38.6,34.4,38.6,34.4,38.6,34.4z M37.8,31.4c-0.6,0-1,0.3-1.3,0.9l0.2,0.1
		c0.1-0.4,0.5-0.7,1-0.7c0.5,0,0.9,0.3,0.9,0.8c0,0.5-0.3,0.6-0.9,0.8c-0.7,0.2-1.3,0.3-1.3,1.2c0,0.5,0.4,1,1.2,1
		c0.4,0,0.7-0.3,0.9-0.5v0.4h0.7v-2.4C39.3,32,38.6,31.4,37.8,31.4C37.8,31.4,37.8,31.4,37.8,31.4z M33.1,33.1
		c0,0.9-0.3,1.1-0.8,1.1c-0.5,0-0.8-0.3-0.8-1.1v-0.4c0-0.9,0.3-1.1,0.8-1.1c0.5,0,0.8,0.3,0.8,1.1V33.1z M32.3,31.3
		c-1,0-1.5,0.6-1.5,1.5c0,0.6,0.3,1.1,0.8,1.3c-0.3,0.1-0.5,0.3-0.5,0.7c0,0.6,0.7,0.7,1.3,0.8c0.7,0.1,1.1,0.1,1.1,0.6
		c0,0.5-0.5,0.7-1.1,0.7c-0.5,0-0.8-0.1-1.1-0.3l-0.1,0.1c0.3,0.3,0.7,0.4,1.2,0.4c0.9,0,1.7-0.5,1.7-1.3c0-0.9-0.8-1-1.6-1.1
		c-0.5,0-1,0-1-0.3c0-0.4,0.5-0.3,1-0.3c1,0,1.5-0.6,1.5-1.5c0-0.5-0.1-0.9-0.5-1.2h0.8v-0.2h-1.1C32.8,31.4,32.6,31.3,32.3,31.3
		L32.3,31.3L32.3,31.3L32.3,31.3L32.3,31.3z M20.1,33c-0.5-0.1-1-0.2-1-0.6c0-0.4,0.5-0.7,1-0.7c0.3,0,0.7,0.1,0.8,0.3
		c-0.1,0.1-0.3,0.2-0.3,0.4c0,0.2,0.2,0.4,0.4,0.4c0.2,0,0.4-0.2,0.4-0.4c0-0.3-0.5-0.9-1.3-0.9c-0.8,0-1.3,0.5-1.3,1.2
		c0,0.8,0.7,1,1.3,1.1c0.5,0.1,1.1,0.3,1.1,0.8c0,0.5-0.5,0.7-1,0.7c-0.4,0-0.7-0.1-0.9-0.4l-0.1,0.1c0.3,0.3,0.7,0.5,1.1,0.5
		c0.8,0,1.5-0.5,1.5-1.3C21.7,33.7,21.5,33.1,20.1,33L20.1,33L20.1,33z M41.4,33c-0.5-0.1-1-0.2-1-0.6c0-0.4,0.5-0.7,1-0.7
		c0.3,0,0.7,0.1,0.8,0.3c-0.1,0.1-0.3,0.2-0.3,0.4c0,0.2,0.2,0.4,0.4,0.4c0.2,0,0.4-0.2,0.4-0.4c0-0.3-0.5-0.9-1.3-0.9
		c-0.8,0-1.3,0.5-1.3,1.2c0,0.8,0.7,1,1.3,1.1c0.5,0.1,1.1,0.3,1.1,0.8c0,0.5-0.5,0.8-1,0.8c-0.4,0-0.7-0.1-0.9-0.4l-0.1,0.1
		c0.3,0.3,0.7,0.5,1.1,0.5c0.8,0,1.5-0.5,1.5-1.3C42.9,33.7,42.7,33.1,41.4,33L41.4,33L41.4,33z M44.8,33c-0.5-0.1-1-0.2-1-0.6
		c0-0.4,0.5-0.7,1-0.7c0.3,0,0.7,0.1,0.8,0.3c-0.1,0.1-0.3,0.2-0.3,0.3c0,0.2,0.2,0.4,0.4,0.4c0.2,0,0.4-0.2,0.4-0.4
		c0-0.3-0.5-0.9-1.3-0.9c-0.8,0-1.3,0.5-1.3,1.2c0,0.8,0.7,1,1.3,1.1c0.5,0.1,1.1,0.3,1.1,0.8c0,0.5-0.5,0.7-1,0.7
		c-0.4,0-0.7-0.1-0.9-0.4L43.9,35c0.3,0.3,0.7,0.5,1.1,0.5c0.8,0,1.5-0.5,1.5-1.3C46.3,33.7,46.1,33.1,44.8,33L44.8,33L44.8,33z
		 M58.7,35.2c-0.1,0-0.2,0.1-0.3,0.1c-0.5,0-0.7-0.4-0.7-1.1v-2.5h1v-0.2h-1V30H57v1.5h-0.3v0.2h0.4v2.2c0,1,0.5,1.5,1.2,1.5
		c0.2,0,0.3-0.1,0.5-0.1C58.7,35.3,58.7,35.2,58.7,35.2z M12.2,29c-2.4,0-4.3,1.9-4.3,4.3s1.9,4.3,4.3,4.3c2.4,0,4.3-1.9,4.3-4.3
		c0,0,0,0,0,0C16.6,30.9,14.6,29,12.2,29z"/>
</g>
</svg>
