<?xml version="1.0"?>
<svg xmlns="http://www.w3.org/2000/svg" xmlns:xlink="http://www.w3.org/1999/xlink" xmlns:svgjs="http://svgjs.com/svgjs" version="1.1" width="512" height="512" x="0" y="0" viewBox="0 0 512 512" style="enable-background:new 0 0 512 512" xml:space="preserve" class=""><g><path xmlns="http://www.w3.org/2000/svg" d="m512 256c0 141.386719-114.613281 256-256 256s-256-114.613281-256-256 114.613281-256 256-256 256 114.613281 256 256zm0 0" fill="#f1f1f1" data-original="#00ec88" style="" class=""/><path xmlns="http://www.w3.org/2000/svg" d="m499.554688 335.007812-270.023438-270.027343c-9.730469-12.117188-130.871094 76.875-73.15625 180.652343l11.769531 10.445313s-21.164062 49.820313.90625 71.386719l170.871094 170.445312c75.5-26.1875 134.9375-86.71875 159.632813-162.902344zm0 0" fill="#f1f1f1" data-original="#00ca76" style="" class=""/><path xmlns="http://www.w3.org/2000/svg" d="m185.230469 52.210938c-36.726563 9.238281-86.570313 89.648437-28.855469 193.425781h70.335938s9.4375-35.332031 17.132812-91.152344c7.699219-55.824219-6.3125-115.425781-58.613281-102.273437zm0 0" fill="#57545c" data-original="#57545c" style="" class=""/><path xmlns="http://www.w3.org/2000/svg" d="m158.78125 256.078125s-19.238281 81.160156 37.273438 81.160156c46.890624 0 30.058593-81.160156 30.058593-81.160156zm0 0" fill="#57545c" data-original="#57545c" style="" class=""/><path xmlns="http://www.w3.org/2000/svg" d="m243.84375 154.484375c-7.699219 55.820313-17.132812 91.152344-17.132812 91.152344h-34.375v-194.800781c46.460937-6.195313 58.851562 50.4375 51.507812 103.648437zm0 0" fill="#3a383f" data-original="#3a383f" style="" class=""/><path xmlns="http://www.w3.org/2000/svg" d="m196.050781 337.234375c-1.277343 0-2.515625-.042969-3.714843-.125v-81.03125h33.773437s16.835937 81.15625-30.058594 81.15625zm0 0" fill="#3a383f" data-original="#3a383f" style="" class=""/><path xmlns="http://www.w3.org/2000/svg" d="m326.769531 176.605469c36.726563 9.238281 86.570313 89.648437 28.855469 193.425781h-70.335938s-9.4375-35.332031-17.132812-91.152344c-7.699219-55.824218 6.3125-115.425781 58.613281-102.273437zm0 0" fill="#57545c" data-original="#57545c" style="" class=""/><path xmlns="http://www.w3.org/2000/svg" d="m353.21875 380.476562s19.238281 81.15625-37.269531 81.15625c-46.890625 0-30.058594-81.15625-30.058594-81.15625zm0 0" fill="#57545c" data-original="#57545c" style="" class=""/><g xmlns="http://www.w3.org/2000/svg" fill="#3a383f"><path d="m355.625 370.03125h-35.964844v-194.808594c2.285156.3125 4.660156.769532 7.109375 1.386719 36.726563 9.234375 86.566407 89.648437 28.855469 193.421875zm0 0" fill="#3a383f" data-original="#3a383f" style="" class=""/><path d="m319.660156 461.503906v-81.027344h33.558594s18.386719 77.527344-33.558594 81.027344zm0 0" fill="#3a383f" data-original="#3a383f" style="" class=""/></g></g></svg>
