<?xml version="1.0" encoding="utf-8"?>
<svg version="1.1" id="Layer_1" xmlns="http://www.w3.org/2000/svg" xmlns:xlink="http://www.w3.org/1999/xlink" x="0px" y="0px"
	width="100px" height="100px" viewBox="0 0 520.04 520.04" style="enable-background:new 0 0 520.04 520.04;" xml:space="preserve">
<g>
	<g>
		<path style="fill:#E8E8E8;" d="M260.02,0C403.6,0,520.04,116.44,520.04,260.02c0,143.58-116.44,260.02-260.02,260.02
			S0,403.6,0,260.02C0,116.44,116.44,0,260.02,0"/>
		<path style="fill:#FFFFFF;" d="M260.02,5.2c140.72,0,254.82,114.1,254.82,254.82s-114.1,254.82-254.82,254.82
			S5.2,400.74,5.2,260.02S119.3,5.2,260.02,5.2"/>
	</g>
	<g>
		<path style="fill:#E64B5F;" d="M421.97,326.58c0,3.95-1.58,7.7-4.35,10.67l-67.15,67.15c-3.75,3.75-10.27,1.19-10.27-4.15v-150.7
			l80.78-80.38h0.99V326.58z"/>
		<path style="fill:#EAD19F;" d="M368.45,115.64c-2.37-2.37-6.12-2.37-8.49,0l-99.94,99.74h-1.38v112.78l1.38,2.96l161.95-161.95
			L368.45,115.64L368.45,115.64z"/>
		<path style="fill:#1E788C;" d="M98.07,326.58c0,3.95,1.58,7.7,4.35,10.67l67.15,67.15c3.75,3.75,10.27,1.19,10.27-4.15v-150.7
			l-80.78-80.38h-0.99V326.58z"/>
		<path style="fill:#9ABDA9;" d="M160.08,115.64c-2.37-2.37-6.12-2.37-8.49,0l-53.52,53.52l161.95,161.95V215.38L160.08,115.64z"/>
	</g>
</g>
</svg>
