<?xml version="1.0" encoding="utf-8"?>
<svg version="1.1" id="Layer_1" xmlns="http://www.w3.org/2000/svg" xmlns:xlink="http://www.w3.org/1999/xlink" x="0px" y="0px"
	width="100px" height="100px" viewBox="0 0 379.46 57.48" style="enable-background:new 0 0 379.46 57.48;" xml:space="preserve">
<g>
	<path style="fill:#226BA6;" d="M0,42.76v-1.59c1.66-0.17,3.03-0.81,4.12-1.93c1.09-1.12,2.14-3.05,3.17-5.79l8.3-21.97
		c0.28-0.75,0.5-1.45,0.67-2.12c0.17-0.66,0.29-1.33,0.37-1.99l3.65-5.6l1.16,0.44l12.15,32.96c0.77,2.09,1.63,3.59,2.58,4.48
		c0.95,0.89,2.16,1.4,3.65,1.52v1.59H24.73v-1.59c1.44-0.21,2.47-0.53,3.08-0.98c0.61-0.45,0.92-1.09,0.92-1.94
		c0-0.46-0.04-0.9-0.13-1.34c-0.09-0.44-0.21-0.86-0.37-1.27l-3.2-8.68H11.65l-2.61,7.28c-0.3,0.81-0.52,1.53-0.68,2.16
		c-0.16,0.63-0.24,1.12-0.24,1.45c0,0.83,0.33,1.52,0.99,2.07c0.66,0.55,1.65,0.97,2.98,1.26v1.59H0z M12.33,25.05h12.13L18.47,8.59
		L12.33,25.05z"/>
	<path style="fill:#226BA6;" d="M42.04,19.89h-2.49V18.8l6.08-6.63h0.92v5.66h7.59v2.05h-7.59v14.28c0,2.66,0.33,4.42,0.99,5.31
		c0.66,0.88,1.87,1.32,3.63,1.32c0.47,0,0.98-0.06,1.53-0.19c0.54-0.13,1.1-0.3,1.68-0.53l0.42,1.15c-0.65,0.58-1.52,1.03-2.6,1.35
		s-2.3,0.48-3.66,0.48c-2.41,0-4.1-0.66-5.06-1.99c-0.96-1.33-1.44-3.87-1.44-7.63V19.89z"/>
	<path style="fill:#226BA6;" d="M64.81,22.38c1.26-1.62,2.52-2.84,3.78-3.67c1.25-0.83,2.49-1.24,3.69-1.24
		c0.83,0,1.49,0.21,1.99,0.64c0.49,0.42,0.74,1,0.74,1.73c0,0.77-0.25,1.37-0.74,1.79c-0.5,0.43-1.2,0.64-2.11,0.64
		c-0.32,0-0.83-0.04-1.53-0.11c-0.7-0.07-1.27-0.11-1.7-0.11c-1.5,0-2.55,0.34-3.13,1.03c-0.58,0.68-0.87,1.96-0.87,3.83v9.8
		c0,2.01,0.24,3.29,0.73,3.83c0.48,0.54,1.45,0.84,2.89,0.9l0.03,1.34H56.92v-1.34c1.46-0.06,2.45-0.37,2.95-0.93
		c0.5-0.56,0.76-1.82,0.76-3.8V22.56l-2.13-1.65v-0.84l5.28-2.99l1.04,0.56V22.38z"/>
	<path style="fill:#226BA6;" d="M85.2,36.69c0,2.01,0.25,3.29,0.74,3.83c0.49,0.54,1.46,0.84,2.9,0.9v1.34H77.02v-1.34
		c1.46-0.06,2.45-0.37,2.95-0.93c0.5-0.56,0.76-1.83,0.76-3.8V22.56l-3.05-1.81v-1l6.49-2.68l1.04,0.56V36.69z M80.22,4.51
		c0-0.73,0.28-1.37,0.85-1.94c0.56-0.57,1.19-0.86,1.88-0.86c0.73,0,1.36,0.28,1.88,0.82c0.52,0.55,0.79,1.21,0.79,1.98
		c0,0.81-0.26,1.49-0.77,2.04c-0.51,0.55-1.15,0.82-1.9,0.82c-0.71,0-1.34-0.29-1.9-0.87C80.5,5.92,80.22,5.26,80.22,4.51"/>
	<path style="fill:#226BA6;" d="M112.59,23.9c0-1.97-0.25-3.24-0.76-3.8c-0.5-0.56-1.49-0.87-2.95-0.93v-1.34l8.21-0.44v17.77
		c0,1.97,0.12,3.24,0.37,3.81c0.25,0.57,0.73,0.86,1.44,0.86c0.18,0,0.38-0.03,0.59-0.08c0.22-0.05,0.61-0.18,1.19-0.39v1.68
		l-7.8,1.71v-2.49c-1.52,0.97-2.94,1.69-4.27,2.13c-1.32,0.45-2.61,0.67-3.85,0.67c-2.89,0-5.01-0.75-6.36-2.26
		c-1.35-1.5-2.03-3.88-2.03-7.11v-9.8c0-1.97-0.25-3.24-0.76-3.8c-0.5-0.56-1.48-0.87-2.92-0.93l-0.03-1.34l8.21-0.44v14.41
		c0,3.28,0.43,5.58,1.31,6.91c0.87,1.33,2.31,1.99,4.33,1.99c1.19,0,2.29-0.23,3.31-0.68c1.02-0.46,1.94-1.14,2.77-2.05V23.9z"/>
	<path style="fill:#226BA6;" d="M133.29,36.69c0,2.01,0.25,3.29,0.74,3.83c0.49,0.54,1.46,0.84,2.9,0.9v1.34H125.1v-1.34
		c1.46-0.06,2.45-0.37,2.95-0.93c0.5-0.56,0.75-1.82,0.75-3.8V22.56l-2.13-1.65v-0.84l5.28-2.99l1.04,0.56v2.49
		c1.42-0.93,2.81-1.62,4.17-2.07c1.35-0.45,2.69-0.67,4.02-0.67c1.6,0,2.97,0.3,4.12,0.89c1.15,0.59,2.05,1.47,2.7,2.63
		c1.6-1.2,3.14-2.09,4.63-2.66c1.48-0.57,2.97-0.85,4.48-0.85c2.73,0,4.75,0.77,6.08,2.32c1.32,1.55,1.99,3.9,1.99,7.05v9.93
		c0,2.01,0.25,3.29,0.74,3.83c0.49,0.54,1.46,0.84,2.9,0.9v1.34h-11.77v-1.34c1.44-0.06,2.41-0.36,2.9-0.9
		c0.49-0.54,0.74-1.81,0.74-3.83V28.6c0-3.2-0.44-5.47-1.31-6.82c-0.87-1.35-2.3-2.02-4.3-2.02c-1.05,0-2.07,0.23-3.05,0.68
		c-0.99,0.46-1.91,1.14-2.76,2.05v14.19c0,2.01,0.24,3.29,0.73,3.83c0.48,0.54,1.45,0.84,2.89,0.9l0.03,1.34h-11.86l0.03-1.34
		c1.46-0.06,2.44-0.37,2.93-0.93c0.49-0.56,0.74-1.82,0.74-3.8V28.6c0-3.2-0.43-5.47-1.29-6.82c-0.86-1.35-2.29-2.02-4.28-2.02
		c-1.07,0-2.1,0.23-3.11,0.7c-1.01,0.47-1.94,1.15-2.79,2.04V36.69z"/>
	<path style="fill:#226BA6;" d="M222.13,38.03c-2,1.64-4.22,2.89-6.67,3.75c-2.45,0.86-5.01,1.29-7.68,1.29
		c-6.15,0-11.09-1.86-14.84-5.57c-3.74-3.71-5.62-8.63-5.62-14.75c0-3.63,0.68-6.86,2.05-9.68c1.36-2.82,3.46-5.33,6.28-7.53
		c1.58-1.22,3.43-2.17,5.54-2.83c2.12-0.66,4.37-1,6.76-1c2.79,0,5.37,0.41,7.74,1.23c2.37,0.82,4.54,2.05,6.49,3.69l-0.8,8.09
		l-0.92-0.31c-0.87-3.53-2.44-6.25-4.7-8.17c-2.26-1.92-5.05-2.88-8.35-2.88c-4.45,0-7.88,1.65-10.29,4.96
		c-2.41,3.31-3.62,8.01-3.62,14.12c0,5.83,1.34,10.46,4.03,13.9c2.69,3.43,6.31,5.15,10.85,5.15c3,0,5.61-0.86,7.81-2.58
		c2.2-1.72,3.99-4.31,5.35-7.75h1.39L222.13,38.03z"/>
	<path style="fill:#226BA6;" d="M242.65,39.59c-1.54,1.16-2.95,2.01-4.21,2.55c-1.26,0.54-2.49,0.81-3.68,0.81
		c-1.92,0-3.41-0.44-4.48-1.32c-1.07-0.88-1.6-2.12-1.6-3.72c0-1.97,0.96-3.57,2.89-4.81c1.93-1.24,5.58-2.48,10.95-3.72v-4.33
		c0-2.47-0.27-4.09-0.8-4.85c-0.53-0.77-1.52-1.15-2.96-1.15c-0.97,0-1.81,0.19-2.54,0.58c-0.72,0.38-1.27,0.93-1.64,1.63
		c-0.18,0.33-0.39,0.87-0.62,1.62c-0.51,1.7-1.34,2.55-2.49,2.55c-0.49,0-0.89-0.16-1.18-0.47c-0.3-0.31-0.45-0.73-0.45-1.25
		c0-1.35,1.1-2.74,3.31-4.17c2.2-1.43,4.58-2.15,7.13-2.15c1.34,0,2.5,0.22,3.47,0.67c0.97,0.45,1.73,1.1,2.28,1.98
		c0.32,0.46,0.54,1.01,0.67,1.65c0.13,0.64,0.19,1.63,0.19,2.96v2.24v10.77c0,1.14,0.11,1.9,0.33,2.29
		c0.22,0.38,0.62,0.57,1.21,0.57c0.32,0,0.64-0.06,0.96-0.17c0.33-0.12,0.65-0.29,0.96-0.51l0.53,0.81
		c-0.75,0.81-1.55,1.43-2.39,1.85c-0.84,0.42-1.66,0.64-2.45,0.64c-0.87,0-1.57-0.28-2.1-0.82
		C243.42,41.76,242.98,40.85,242.65,39.59 M242.53,38.37v-7.66c-4.01,1-6.54,1.89-7.59,2.69c-1.05,0.8-1.57,1.94-1.57,3.44
		c0,1.12,0.32,2.02,0.95,2.71c0.63,0.68,1.48,1.03,2.55,1.03c0.71,0,1.52-0.18,2.43-0.53C240.21,39.7,241.28,39.14,242.53,38.37"/>
	<path style="fill:#226BA6;" d="M262.51,22.38c1.27-1.62,2.52-2.84,3.78-3.67c1.26-0.83,2.49-1.24,3.69-1.24
		c0.83,0,1.49,0.21,1.99,0.64c0.49,0.42,0.74,1,0.74,1.73c0,0.77-0.25,1.37-0.74,1.79c-0.49,0.43-1.2,0.64-2.11,0.64
		c-0.32,0-0.83-0.04-1.53-0.11c-0.7-0.07-1.27-0.11-1.71-0.11c-1.5,0-2.54,0.34-3.13,1.03c-0.58,0.68-0.88,1.96-0.88,3.83v9.8
		c0,2.01,0.24,3.29,0.73,3.83c0.48,0.54,1.45,0.84,2.89,0.9l0.03,1.34h-11.65v-1.34c1.46-0.06,2.45-0.37,2.95-0.93
		c0.5-0.56,0.76-1.82,0.76-3.8V22.56l-2.13-1.65v-0.84l5.28-2.99l1.04,0.56V22.38z"/>
	<path style="fill:#226BA6;" d="M282.2,51.44c0,2.03,0.28,3.33,0.83,3.91c0.55,0.57,1.63,0.86,3.23,0.86h0.29v1.28h-12.51l0.03-1.28
		c1.42-0.06,2.38-0.37,2.88-0.92c0.49-0.55,0.74-1.83,0.74-3.84V22.56l-2.08-1.65v-0.84l5.48-2.99l1.1,0.56v2.86
		c1.28-1.08,2.57-1.88,3.87-2.4c1.29-0.52,2.63-0.78,4.02-0.78c3.16,0,5.73,1.13,7.71,3.39c1.98,2.26,2.96,5.23,2.96,8.9
		c0,3.8-1.19,7.01-3.56,9.63c-2.37,2.62-5.27,3.94-8.69,3.94c-0.97,0-1.97-0.13-3.01-0.37c-1.04-0.25-2.14-0.63-3.3-1.15V51.44z
		 M282.2,22.5v15.22c0.71,1.29,1.66,2.28,2.86,2.97c1.2,0.7,2.51,1.04,3.93,1.04c2.29,0,4.1-0.95,5.43-2.85
		c1.32-1.9,1.99-4.52,1.99-7.86c0-3.57-0.73-6.4-2.19-8.51c-1.46-2.11-3.41-3.16-5.84-3.16c-1.07,0-2.09,0.25-3.08,0.75
		S283.26,21.4,282.2,22.5"/>
	<path style="fill:#226BA6;" d="M319.4,39.59c-1.54,1.16-2.94,2.01-4.21,2.55c-1.26,0.54-2.49,0.81-3.68,0.81
		c-1.92,0-3.41-0.44-4.48-1.32c-1.07-0.88-1.6-2.12-1.6-3.72c0-1.97,0.96-3.57,2.89-4.81c1.93-1.24,5.58-2.48,10.95-3.72v-4.33
		c0-2.47-0.27-4.09-0.8-4.85c-0.53-0.77-1.52-1.15-2.96-1.15c-0.97,0-1.81,0.19-2.53,0.58c-0.72,0.38-1.27,0.93-1.65,1.63
		c-0.18,0.33-0.38,0.87-0.62,1.62c-0.52,1.7-1.35,2.55-2.49,2.55c-0.49,0-0.89-0.16-1.18-0.47c-0.3-0.31-0.44-0.73-0.44-1.25
		c0-1.35,1.1-2.74,3.3-4.17c2.2-1.43,4.58-2.15,7.13-2.15c1.34,0,2.5,0.22,3.47,0.67c0.97,0.45,1.73,1.1,2.28,1.98
		c0.32,0.46,0.54,1.01,0.67,1.65c0.13,0.64,0.19,1.63,0.19,2.96v2.24v10.77c0,1.14,0.11,1.9,0.33,2.29
		c0.22,0.38,0.62,0.57,1.21,0.57c0.32,0,0.64-0.06,0.96-0.17c0.32-0.12,0.65-0.29,0.96-0.51l0.53,0.81
		c-0.75,0.81-1.55,1.43-2.39,1.85c-0.84,0.42-1.66,0.64-2.45,0.64c-0.87,0-1.57-0.28-2.1-0.82
		C320.17,41.76,319.74,40.85,319.4,39.59 M319.28,38.37v-7.66c-4.01,1-6.54,1.89-7.59,2.69c-1.05,0.8-1.57,1.94-1.57,3.44
		c0,1.12,0.32,2.02,0.95,2.71c0.63,0.68,1.48,1.03,2.55,1.03c0.71,0,1.52-0.18,2.43-0.53C316.96,39.7,318.04,39.14,319.28,38.37"/>
	<path style="fill:#226BA6;" d="M339.26,22.38c1.27-1.62,2.52-2.84,3.78-3.67c1.26-0.83,2.49-1.24,3.69-1.24
		c0.83,0,1.49,0.21,1.99,0.64c0.49,0.42,0.74,1,0.74,1.73c0,0.77-0.25,1.37-0.74,1.79c-0.49,0.43-1.2,0.64-2.11,0.64
		c-0.32,0-0.83-0.04-1.53-0.11c-0.7-0.07-1.27-0.11-1.7-0.11c-1.5,0-2.55,0.34-3.13,1.03c-0.58,0.68-0.88,1.96-0.88,3.83v9.8
		c0,2.01,0.24,3.29,0.73,3.83c0.48,0.54,1.45,0.84,2.89,0.9l0.03,1.34h-11.65v-1.34c1.46-0.06,2.45-0.37,2.95-0.93
		c0.51-0.56,0.76-1.82,0.76-3.8V22.56l-2.13-1.65v-0.84l5.28-2.99l1.04,0.56V22.38z"/>
	<path style="fill:#226BA6;" d="M359.54,36.69c0,2.01,0.25,3.29,0.74,3.83c0.49,0.54,1.45,0.84,2.88,0.9l0.03,1.34h-11.83v-1.34
		c1.46-0.06,2.44-0.37,2.93-0.93c0.49-0.56,0.74-1.82,0.74-3.8V4.82l-2.34-1.46V2.15L359.54,0v29.38c2.77-1.66,5.04-3.31,6.82-4.96
		c1.78-1.65,2.67-2.87,2.67-3.66c0-0.5-0.22-0.88-0.65-1.14c-0.43-0.26-1.09-0.41-1.96-0.45l-0.03-1.34h10.29v1.34
		c-1.19,0.29-2.3,0.73-3.35,1.31c-1.05,0.58-2.16,1.4-3.35,2.46l-5.22,4.73l8.8,9.62c1.17,1.26,2.19,2.2,3.07,2.8
		c0.88,0.6,1.82,1.05,2.83,1.34v1.34h-12.63v-1.34c1.03,0,1.76-0.08,2.19-0.25c0.43-0.17,0.65-0.45,0.65-0.84
		c0-0.48-0.24-1.09-0.73-1.85c-0.48-0.76-1.19-1.62-2.12-2.6l-5.34-5.66c-0.1,0.04-0.22,0.1-0.36,0.19
		c-0.71,0.41-1.25,0.69-1.6,0.84V36.69z"/>
</g>
</svg>
