<?xml version="1.0"?>
<svg xmlns="http://www.w3.org/2000/svg" xmlns:xlink="http://www.w3.org/1999/xlink" xmlns:svgjs="http://svgjs.com/svgjs" version="1.1" width="512" height="512" x="0" y="0" viewBox="0 0 512 512" style="enable-background:new 0 0 512 512" xml:space="preserve" class=""><g><path xmlns="http://www.w3.org/2000/svg" d="m512 256.27c0 1.63-.02 3.26-.06 4.88-.03 1.41-.07 2.81-.12 4.21-.02.66-.05 1.32-.08 1.98 0 .08-.01.16-.01.24-.05 1.33-.12 2.65-.2 3.97-.01.15-.02.3-.03.45-.22 3.49-.5 6.97-.86 10.42-.21 2.16-.46 4.32-.74 6.46-13.07 101.93-86.07 185.08-182.5 213.03-8.85 2.56-17.9 4.66-27.11 6.27-5.88 1.02-11.83 1.85-17.84 2.47-3.46.35-6.94.63-10.45.84-.17.01-.34.02-.51.03-.74.05-1.49.09-2.24.13-.26.02-.51.03-.77.04-.36.02-.73.04-1.09.06-.33.01-.67.03-1 .04-2.33.1-4.67.16-7.01.19h-.27c-.71.01-1.41.01-2.11.01-.42.01-.85.01-1.27.01-4.85-.01-9.68-.15-14.46-.42-3.97-.22-7.92-.54-11.84-.95-3.58-.37-7.13-.82-10.66-1.33-4.31-.62-8.58-1.35-12.81-2.19-.23-.05-.47-.09-.7-.14-12.93-2.6-25.49-6.17-37.62-10.63-3.52-1.3-7-2.67-10.45-4.12-39.64-16.59-157.33-99.39-157.19-236.49.15-141.38 114.89-255.88 256.27-255.73 119.06.13 219.06 81.51 247.56 191.64.34 1.33.68 2.66 1 4 .7 2.89 1.35 5.79 1.95 8.72.39 1.93.77 3.87 1.11 5.82.12.58.22 1.16.32 1.74 1.14 6.52 2.02 13.12 2.65 19.8.19 1.99.36 3.98.49 5.97.06.84.11 1.68.16 2.52.11 1.62.19 3.25.26 4.89.04.92.07 1.85.1 2.77v.01c.04 1.36.08 2.72.1 4.09.02 1.43.03 2.86.03 4.3z" fill="#f1f1f1" data-original="#f1444f" style="" class=""/><path xmlns="http://www.w3.org/2000/svg" d="m511.73 267.58c-.05 1.33-.12 2.65-.2 3.97-.01.15-.02.3-.03.45-.22 3.49-.5 6.97-.86 10.42-.21 2.16-.46 4.32-.74 6.46-13.07 101.93-86.07 185.08-182.5 213.03-8.85 2.56-17.9 4.66-27.11 6.27-5.88 1.02-11.83 1.85-17.84 2.47-3.46.35-6.94.63-10.45.84-.17.01-.34.02-.51.03-.74.05-1.49.09-2.24.13-.26.02-.51.03-.77.04-30.44-30.44-93.88-93.87-93.88-93.87l163.66-323.72s127.45 127.45 173.47 173.48z" fill="#f1f1f1" data-original="#db2835" style="" class=""/><path xmlns="http://www.w3.org/2000/svg" d="m168.07 114.272h176.188v251.687h-176.188z" fill="#c4e9fd" data-original="#c4e9fd" style="" class=""/><path xmlns="http://www.w3.org/2000/svg" d="m256.164 152.348v213.611h88.094v-251.687h-88.094z" fill="#80d7fc" data-original="#80d7fc" style=""/><path xmlns="http://www.w3.org/2000/svg" d="m168.07 108.923v10.678h176.188v-10.678c0-11.795-9.561-21.356-21.356-21.356h-133.476c-11.795-.001-21.356 9.561-21.356 21.356z" fill="#225779" data-original="#225779" style="" class=""/><path xmlns="http://www.w3.org/2000/svg" d="m322.902 87.566h-66.738v32.034h88.094v-10.678c0-11.794-9.561-21.356-21.356-21.356z" fill="#063051" data-original="#063051" style="" class=""/><path xmlns="http://www.w3.org/2000/svg" d="m324.258 423.823h-136.188c-11.046 0-20-8.954-20-20v-44.068h176.188v44.068c0 11.045-8.954 20-20 20z" fill="#225779" data-original="#225779" style="" class=""/><path xmlns="http://www.w3.org/2000/svg" d="m256.164 359.754v64.068h66.738c11.795 0 21.356-9.561 21.356-21.356v-42.712z" fill="#063051" data-original="#063051" style="" class=""/><circle xmlns="http://www.w3.org/2000/svg" cx="256.164" cy="391.789" fill="#fff3dc" r="16.017" data-original="#fff3dc" style=""/><path xmlns="http://www.w3.org/2000/svg" d="m256.164 375.772v32.034c8.846 0 16.017-7.171 16.017-16.017s-7.171-16.017-16.017-16.017z" fill="#ffe7bb" data-original="#ffe7bb" style=""/><path xmlns="http://www.w3.org/2000/svg" d="m432.783 195.854h-192.206v117.751h75.324v.297l4.495 11.102h32.568l4.495-11.102v-.297h75.324z" fill="#3477a6" data-original="#3477a6" style=""/><path xmlns="http://www.w3.org/2000/svg" d="m336.68 195.854v129.15h16.284l4.495-11.102v-.297h75.324v-117.751z" fill="#185f8d" data-original="#185f8d" style=""/><path xmlns="http://www.w3.org/2000/svg" d="m336.68 195.854c-1.727-9.997-10.695-17.324-21.203-17.324h-59.315v119.479h161.037v-119.479h-59.315c-10.509 0-19.476 7.327-21.204 17.324z" fill="#fff3dc" data-original="#fff3dc" style=""/><path xmlns="http://www.w3.org/2000/svg" d="m357.883 178.53c-10.508 0-19.476 7.327-21.203 17.324v102.154h80.518v-119.478z" fill="#ffe7bb" data-original="#ffe7bb" style=""/><path xmlns="http://www.w3.org/2000/svg" d="m352.264 266.84c-8.607 0-15.584 6.977-15.584 15.584 0-8.607-6.977-15.584-15.584-15.584h-64.934v15.584 15.584h161.037v-15.584-15.584z" fill="#ffd27d" data-original="#ffd27d" style=""/><path xmlns="http://www.w3.org/2000/svg" d="m352.264 266.84c-8.607 0-15.584 6.977-15.584 15.584v15.584h80.518v-15.584-15.584z" fill="#ffc466" data-original="#ffc466" style=""/><path xmlns="http://www.w3.org/2000/svg" d="m352.264 282.425c-8.607 0-15.584 6.977-15.584 15.584 0-8.607-6.977-15.584-15.584-15.584h-64.934v15.584h80.518 80.518v-15.584z" fill="#ffe7bb" data-original="#ffe7bb" style=""/><path xmlns="http://www.w3.org/2000/svg" d="m352.264 282.425c-8.607 0-15.584 6.977-15.584 15.584h80.518v-15.584z" fill="#ffd27d" data-original="#ffd27d" style=""/><path xmlns="http://www.w3.org/2000/svg" d="m417.198 214.893h-36.363v-36.363z" fill="#ffffff" data-original="#ffffff" style="" class=""/><path xmlns="http://www.w3.org/2000/svg" d="m380.835 178.53h36.363v36.363z" fill="#ffd27d" data-original="#ffd27d" style=""/></g></svg>
