<svg xmlns="http://www.w3.org/2000/svg" viewBox="0 0 125.4 67"><path d="M106.4 53.9h-10 0l1.3 1.1c.1.1.2.2.2.4V65c0 .2 0 .3-.2.4l-1.3 1.1h0 10.2V62h0l-2.3 3.4c-.1.2-.3.3-.6.3h-2.2c-.3 0-.3 0-.3-.4v-4.9h1.3c.2 0 .3 0 .5.2l1.7 1.7h0v-4.7h0l-1.7 1.7c-.2.2-.3.2-.5.3h-1.3v-4.9c0-.3 0-.4.3-.4h1.9c.3 0 .4.1.5.3l2.4 3.3h0v-4h.1zm-15.7 0h-10 0L82 55c.1.1.2.2.2.4V65c0 .2 0 .3-.2.4l-1.3 1.1h0 10.2V62h0l-2.3 3.4c-.1.2-.3.3-.6.3h-2.2c-.3 0-.3 0-.3-.4v-4.9h1.3c.2 0 .3 0 .5.2l1.7 1.7h0v-4.7h0l-1.7 1.7c-.2.2-.3.2-.5.3h-1.3v-4.9c0-.3 0-.4.3-.4h1.9c.3 0 .4.1.5.3l2.4 3.3h0l.1-4h0zm-15 0h-10 0L67 55c.1.1.2.2.2.4V65c0 .2 0 .3-.2.4l-1.3 1.1h0 6.7 0l-1.7-1.3c-.2-.1-.2-.2-.2-.4v-4.3h1.3c.2 0 .3 0 .5.2l1.7 1.7h0v-4.7h0l-1.7 1.7c-.2.2-.3.2-.5.3h-1.3v-4.9c0-.3 0-.4.3-.4h1.9c.3 0 .4.1.5.3l2.4 3.3h0l.1-4.1h0zm-15.2 0h-10 0l1.3 1.1c.1.1.2.2.2.4V65c0 .2 0 .3-.2.4l-1.3 1.1h0 6.7 0l-1.7-1.3c-.2-.1-.2-.2-.2-.4v-4.3h1.3c.2 0 .3 0 .5.2l1.7 1.7h0v-4.7h0l-1.7 1.7c-.2.2-.3.2-.5.3h-1.3v-4.9c0-.3 0-.4.3-.4h1.9c.3 0 .4.1.5.3l2.4 3.3h0l.1-4.1h0zm-43.7 6.5c0 4 2 6.6 6.5 6.6a26.93 26.93 0 0 0 4-.3v-4.6h0L24.4 66c-.2.2-.3.3-.6.3h-.2c-2.1 0-2.9-2-2.9-5.8s.7-5.9 2.8-5.9h.3c.4 0 .5.1.6.3l2.8 3.8h0v-4.5c-1.3-.3-2.7-.4-4.1-.4-4 0-6.3 2.6-6.3 6.6M26 12.7c0 6.4-1.7 11.2-6.7 11.2h-2V3.1h0c0-1 .1-1 1-1h1.9c4-.1 5.8 4.5 5.8 10.6m13.3-.4C39.3 2.6 30.8 0 22.4 0H.5v.1l3.3 4.2c.4.5.5.7.5 1.5v28.8c0 .7-.1.8-.6 1.4L0 40.6v.1h22.6v-.1L17.9 36c-.5-.6-.6-.7-.6-1.4v-8.7h3.2c11.8 0 18.8-3.9 18.8-13.6m2.6 48.1c0 4.5-.9 5.8-2.5 5.9-1.6 0-2.5-1.3-2.5-5.9 0-4.5.9-5.8 2.5-5.8 1.6-.1 2.5 1.2 2.5 5.8m-2.5-6.6c-4 0-6.4 2.2-6.4 6.6 0 4.3 2.4 6.6 6.4 6.6s6.4-2.2 6.4-6.6c-.1-4.4-2.5-6.6-6.4-6.6M57 33.9c-.7 1.1-1.9 1.6-2.8 1.6-1.7 0-3-.8-3-4.1 0-3.4 1.7-5.2 4.1-5.2.5 0 1.1.1 1.7.2v7.5m15.1 1.7h0c-.1 0-.5.8-1.5.8-.9 0-1.5-.7-1.5-2.1V22.7c0-3.3-.5-11.4-12.9-11.4-5.4 0-10.2 1.1-13.9 2.4l4.3 8.7h.1l5.4-8.4c.2-.3.4-.8.9-.9 1.2-.1 3.9-.1 3.9 4.9v7.2c-1.5-1-4-1.5-6.8-1.5-5 0-10.2 3.1-10.2 8.9 0 5.6 3.8 8.5 8.3 8.5 4 0 7.2-2.2 8.7-5.7h0c0 4 3.5 5.7 7.7 5.7 3.9 0 7.5-1.8 7.5-5.5m24.2-11.7l4.4-10.9c-4-1.2-7.3-1.7-11-1.7-8.2 0-16.6 3.8-16.6 15.3 0 9.7 6.8 14.5 14.5 14.5 7.1 0 11.7-3.8 12.8-10.3h-.1c-1.4 2.1-3.7 3.7-6.8 3.7-3.7 0-7.8-2.6-7.8-11.3 0-7.3 1.5-10.1 4.2-10.1.6 0 .6.1 1 .6l5.2 10.2c0 0 .2 0 .2 0zm29.1-13.6h-7.1V.7h-.1l-10.3 9c-.6.6-1.1.6-2 .6h-1.6l-1.1 2.5h3v19.6c0 5.7 2.8 8.7 8.6 8.7 6.3 0 8.9-3.5 9.5-6.7l-.1-.1c-.6.8-1.6 1.4-2.9 1.4-1.8 0-3-1.4-3-4.1V12.8h6.1l1-2.5z" fill="#1c4045"/></svg>