<?xml version="1.0" encoding="utf-8"?>
<svg version="1.1" id="Layer_1" xmlns="http://www.w3.org/2000/svg" xmlns:xlink="http://www.w3.org/1999/xlink" x="0px" y="0px"
	width="100px" height="100px" viewBox="0 0 66.7 66.7" style="enable-background:new 0 0 66.7 66.7;" xml:space="preserve">
<g>
	<circle style="fill:#E8E8E8;" cx="33.3" cy="33.3" r="33.3"/>
	<circle style="fill:#FFFFFF;" cx="33.3" cy="33.3" r="32.7"/>
	<path style="fill:#F9C050;" d="M34.8,42.3c-4.2,0.8-7.3-0.4-8.9-3.5c-2.3-4.2,0-9.2,4.6-10.3c2.7-0.8,5.3-0.8,8.1,0.8
		c2.3,1.9,3.1,4.2,2.7,7.3c-0.4,2.7-2.7,4.6-5.3,5.3L34.8,42.3L34.8,42.3z M31.7,25.5c0,0,1.9-8.1-2.3-8.5
		C25.5,16.7,27.5,24.7,31.7,25.5z M23.3,29.7c0,0-3.9-6.5-6.1-5.7c-2.3,0.8-3.1,2.7-2.3,3.5C15.6,28.2,19.8,30.9,23.3,29.7
		L23.3,29.7z M39,27.8c0,0,1.9-8.9,5.7-6.9c3.5,1.9,0.4,2.7,0.4,3.5C45.1,25.5,39,27.8,39,27.8L39,27.8z M45.1,33.5
		c0,0,3.5-4.2,6.5-1.5S48.6,36.6,45.1,33.5L45.1,33.5z M20.9,37.4c0,0-5.7-3.1-6.1,0c-0.8,3.5,1.1,0.8,1.1,2.3
		C15.6,41.2,18.7,39.3,20.9,37.4z"/>
	<path style="fill:#FFFFFF;" d="M32.9,33.9l1.9-1.9l1.5-0.4c0.8,0,1.5,0.8,1.9,1.9c0,1.1,0,2.3-0.8,3.5l-2.7,4.3H34
		c-1.9-0.8-3.5-1.9-5-3.9c-0.4-0.4-1.1-1.5-0.8-2.3c0-1.5,0.8-2.3,1.9-2.3C31.3,32.8,31.7,33.2,32.9,33.9z"/>
	<path style="fill:#11AAF6;" d="M57,45.5l-2.3-0.8l-1.9-0.4l-1.9-0.4l-0.4-0.4l-3.1-0.4h-1.5l-2.7-0.3h-2.3h-0.4H40l-1.1-0.4h-4.6
		H34l-0.4-0.4l-5,0.4l-2.3,0.4h-1.1l-0.4,0.4h-1.1l-0.8,0.4l-2.7,0.8l-2.7,1.1l-0.4,0.4h-2.3v-0.7l2.3-1.9l1.1-0.4l3.9-1.5l2.3-0.4
		l2.7-0.8h2.3l0.4,0.4l0.8-0.4l2.7-0.4h8.1l0.4,0.3H46v0.4l0.3,0.4v-0.4c0-0.4,0.4-0.8,0.8-0.4l2.3,0.4h1.9l4.2,0.8l1.5,1.1l0.4,1.1
		l0.4,0.4V45C57.8,45.8,57.4,45.8,57,45.5L57,45.5L57,45.5z M29.8,40.5L29.8,40.5z M32.9,40.5h-0.4l0.3,0.4L32.9,40.5z M40.5,40.5
		h-6.1h-0.7v0.4h7.3v-0.4C40.9,40.5,40.5,40.5,40.5,40.5z M41.7,40.9v-0.4h-0.3v0.4C41.3,40.9,41.7,40.9,41.7,40.9z M43.2,40.9v-0.4
		l-0.4,0.4H43.2z M45.5,40.5h-0.4v0.4h0.4V40.5z M48.2,41.6V42l0.4-0.4H48.2z M48.6,40.9h-0.4l0.4,0.4V40.9z"/>
</g>
</svg>
