<?xml version="1.0" encoding="utf-8"?>
<svg version="1.1" id="Layer_1" xmlns="http://www.w3.org/2000/svg" xmlns:xlink="http://www.w3.org/1999/xlink" x="0px" y="0px"
	width="100px" height="100px" viewBox="0 0 100 100" style="enable-background:new 0 0 100 100;" xml:space="preserve">
<g>
	<path style="fill:#E8E8E8;" d="M50,0c27.6,0,50,22.4,50,50s-22.4,50-50,50S0,77.6,0,50S22.4,0,50,0"/>
	<path style="fill:#FFFFFF;" d="M50,1c27.1,0,49,21.9,49,49S77.1,99,50,99S1,77.1,1,50S22.9,1,50,1"/>
	<g id="layer1" transform="translate(-452.68196,-519.46191)">
		<path id="path3020" style="fill-rule:evenodd;clip-rule:evenodd;fill:#DA1F3D;" d="M471.7,567.3c-0.4,0.6-0.6,1.4-0.6,2.1
			c0,2,1.4,3.7,3.3,4.1l-1.9-1.9l0.4-0.8c-0.3-0.2-0.5-0.6-0.5-1c0-0.3,0.1-0.5,0.2-0.8h-0.4v2c-0.3,0-0.5-0.2-0.5-0.5v-1.5
			c0-0.3,0.2-0.5,0.5-0.5h4.1l-0.6-1.3L471.7,567.3z M477.7,569.6h0.7c0.4,0.1,0.5,0.2,0.4,0.6l-0.5,1l-0.5-0.2l0.3-0.7l-0.4,0
			l-0.4,1L477,571l0.3-0.7l-1.7,0l-0.7,1.5l1.7,1.7c1.7-0.5,2.9-2.1,2.9-4c0-0.7-0.2-1.4-0.5-1.9c-0.2-0.3-1.2-0.2-1.2-0.2V569.6z
			 M475.4,573.6l-1.9-1.9l0.7-1.5h0.3l-0.6,1.3l2,2C475.7,573.6,475.5,573.6,475.4,573.6L475.4,573.6z M477.1,566.7h1.3
			c-0.8-0.9-1.9-1.4-3.1-1.4c-1.2,0-2.3,0.5-3.1,1.4h4.2l0.3-0.5c0.1-0.1,0.2-0.2,0.4-0.1c0.1,0.1,0.2,0.2,0.1,0.4L477.1,566.7
			L477.1,566.7z M470.3,569.5c0-2.7,2.2-5,5-5c2.7,0,5,2.2,5,5c0,2.7-2.2,5-5,5C472.5,574.4,470.3,572.2,470.3,569.5z"/>
		<path id="path3022" style="fill:#DA1F3D;" d="M482.6,572.5c-0.1,0.6,0,0.9,0,1.5c0.7,0.3,1,0.4,2.4,0.5c0.3,0,1.2,0,2-0.5
			c0.4-0.3,1.4-1,1.5-2.5c0-0.7-0.2-1.4-0.7-1.8c-0.6-0.6-1.8-0.8-2.5-1.2c-0.7-0.3-1-0.5-1.2-0.8c-0.1-0.1-0.3-0.4-0.3-0.9
			c0-0.5,0.4-1.5,1.7-1.5c0.9,0,1.2,0.3,1.5,0.4c0.3,0.2,0.6,0.7,0.6,0.7h0.3c0-0.5-0.1-0.8-0.1-1.3c-0.5-0.2-0.7-0.3-1.2-0.4
			c-0.3-0.1-0.7-0.1-0.8-0.1c-1.3,0-1.9,0.4-2.4,0.8c-0.7,0.7-0.8,1.5-0.8,1.9c0,0.8,0.4,1.5,1.1,2c0.3,0.2,0.8,0.4,1.6,0.7
			c0.5,0.2,1,0.3,1.4,0.7c0.5,0.4,0.6,1,0.6,1.2c0,0.7-0.3,1.8-2,1.9c-0.4,0-0.8-0.1-0.9-0.1c-0.7-0.2-1.2-0.6-1.3-0.8
			c-0.1-0.1-0.1-0.3-0.3-0.5L482.6,572.5z"/>
		<path id="path3024" style="fill:#DA1F3D;" d="M508.6,564.8c-0.4,0.8-0.7,1.4-1.1,2.2c-0.4,0.8-0.8,1.5-1.2,2.3
			c-0.3,0.6-0.6,1.2-1,1.8c-0.2,0.3-0.4,0.6-0.5,0.9c-0.4-0.7-0.8-1.4-1.2-2.2c-0.5-0.8-0.9-1.6-1.3-2.5c-0.3-0.5-0.6-1.1-0.9-1.7
			c-0.2-0.4-0.4-0.6-0.6-1c-0.2,0-0.3,0-0.5,0c-0.3,2.6-1.1,8.8-1.3,9.4c0.4,0,0.9,0,1,0c0-0.7,0.1-1.4,0.1-2.1
			c0.1-0.8,0.1-1.5,0.2-2.3c0.1-0.9,0.2-1.7,0.3-2.6c0.5,0.9,1,1.8,1.5,2.7c0.4,0.7,0.9,1.5,1.2,2.3c0.4,0.7,0.7,1.3,1,2h0.4
			c0.1-0.3,0.2-0.5,0.3-0.8c0.1-0.3,0.3-0.6,0.4-0.9c0.9-1.8,1.8-3.6,2.7-5.4c0.2,1.4,0.4,2.8,0.5,4.2c0.1,1,0.2,1.9,0.3,2.9
			c0.4,0,1,0,1.5,0c-0.1-0.3-0.1-0.7-0.2-1c-0.1-0.5-0.1-0.9-0.2-1.3c-0.1-0.5-0.2-1.1-0.2-1.6c-0.1-0.9-0.2-1.8-0.3-2.7
			c-0.1-0.6-0.2-1.2-0.2-1.7c0-0.4-0.1-0.7-0.1-1H508.6z"/>
		<path id="path3026" style="fill:#DA1F3D;" d="M523.6,564.8c0,0.5,0,1,0.1,1.4c0,0.8,0,1.5,0,2.3c0,0.5,0,0.9,0,1.4
			c0,0.8,0,1.6,0,2.3c0,0.7-0.1,1.3-0.1,2c0.3,0,1,0,1,0c-0.1-0.6,0-1.2-0.1-1.8c0-0.7-0.1-1.4-0.1-2c0-1.1,0-2.1-0.1-3.2
			c0.5,0.5,1.1,1.1,1.6,1.6c1,1,1.9,1.9,2.9,2.9c0.8,0.8,1.6,1.7,2.4,2.5h0.4c0-0.6,0-1.2,0-1.9c0-0.6,0-1.4,0-2c0-1.1,0-1.9,0-3
			c0-0.8,0-1.7,0.1-2.6c-0.3,0-0.9,0-1,0c0,0.4,0,0.9,0,1.3c0,0.5,0.1,1,0.1,1.5c0,1.4,0.1,2.8,0.1,4.2c-0.9-0.9-1.7-1.8-2.6-2.6
			c-0.7-0.7-1.3-1.3-2-2c-0.5-0.5-1-1-1.5-1.6c-0.3-0.3-0.5-0.6-0.8-0.9H523.6z"/>
		<path id="path3028" style="fill:#DA1F3D;" d="M491,572.5c-0.1,0.6,0,0.9,0,1.5c0.7,0.3,1,0.4,2.4,0.5c0.3,0,1.2,0,2-0.5
			c0.4-0.3,1.4-1,1.5-2.5c0-0.7-0.2-1.4-0.7-1.8c-0.6-0.6-1.8-0.8-2.5-1.2c-0.7-0.3-1-0.5-1.2-0.8c-0.1-0.1-0.3-0.4-0.3-0.9
			c0-0.5,0.4-1.5,1.7-1.5c0.9,0,1.2,0.3,1.5,0.4c0.3,0.2,0.6,0.7,0.6,0.7h0.3c0-0.5-0.1-0.8-0.1-1.3c-0.5-0.2-0.7-0.3-1.2-0.4
			c-0.3-0.1-0.7-0.1-0.8-0.1c-1.3,0-1.9,0.4-2.4,0.8c-0.7,0.7-0.8,1.5-0.8,1.9c0,0.8,0.4,1.5,1.1,2c0.3,0.2,0.8,0.4,1.6,0.7
			c0.5,0.2,1,0.3,1.4,0.7c0.5,0.4,0.6,1,0.6,1.2c0,0.7-0.3,1.8-2,1.9c-0.4,0-0.8-0.1-0.9-0.1c-0.7-0.2-1.2-0.6-1.3-0.8
			c-0.1-0.1-0.1-0.3-0.3-0.5L491,572.5z"/>
		<path id="path3030" style="fill:#DA1F3D;" d="M535.1,564.8c0,0.5,0,1,0.1,1.4c0,0.8,0,1.5,0,2.3c0,0.5,0,0.9,0,1.4
			c0,0.8,0,1.6,0,2.3c0,0.7-0.1,1.3-0.1,2c0.3,0,1,0,1,0c-0.1-0.6,0-1.2-0.1-1.8c0-0.7-0.1-1.4-0.1-2c0-1.1,0-2.1-0.1-3.2
			c0.5,0.5,1.1,1.1,1.6,1.6c1,1,1.9,1.9,2.9,2.9c0.8,0.8,1.6,1.7,2.4,2.5h0.4c0-0.6,0-1.2,0-1.9c0-0.6,0-1.4,0-2c0-1.1,0-1.9,0-3
			c0-0.8,0-1.7,0.1-2.6c-0.3,0-0.9,0-1,0c0,0.4,0,0.9,0,1.3c0,0.5,0.1,1,0.1,1.5c0,1.4,0.1,2.8,0.1,4.2c-0.9-0.9-1.7-1.8-2.6-2.6
			c-0.7-0.7-1.3-1.3-2-2c-0.5-0.5-1-1-1.5-1.6c-0.3-0.3-0.5-0.6-0.8-0.9H535.1z"/>
		<path id="path3032" style="fill-rule:evenodd;clip-rule:evenodd;fill:#DA1F3D;" d="M469.2,574.2c-0.6-0.7-1.3-1.5-1.9-2.3
			c-0.6-0.8-1.2-1.6-1.9-2.4c0.8-0.2,1.5-0.3,2-0.8c0.6-0.6,0.7-1.4,0.7-1.7c0-0.4-0.2-0.9-0.4-1.3c-0.6-0.8-1.5-0.9-1.8-0.9
			c-0.2,0-0.3,0-0.5,0h-2.6l-0.8-0.1v9.4h1.5c0-0.3-0.1-0.6-0.1-1c0-0.4,0-0.8,0-1.2c0-0.8,0-1.6,0-2.4l0.3-0.1
			c0.7,0.8,1.3,1.7,2,2.5c0.5,0.7,1.1,1.4,1.6,2.1H469.2z M463.5,565.4c0.3,0,0.7-0.1,1-0.1c0.3,0,0.7,0,1,0.1
			c0.4,0.1,1.3,0.5,1.3,1.7c0,1.2-0.9,1.7-1.3,1.8c-0.7,0.3-1.8,0.2-2,0.2c0-0.6,0-1.2,0-1.7C463.4,566.8,463.5,566.1,463.5,565.4z"
			/>
		<path id="path3034" style="fill-rule:evenodd;clip-rule:evenodd;fill:#DA1F3D;" d="M516.4,564.8c-0.2,0.5-0.4,1-0.7,1.6
			c-0.3,0.7-0.6,1.5-1,2.2c-0.4,1-0.8,1.8-1.3,2.9c-0.4,0.9-0.8,1.9-1.2,2.8c0.3,0,0.7,0,1.1,0c0.4-1.3,0.6-1.6,1.3-3.6
			c0.7,0,1.3,0,1.9,0c0.5,0,1,0,1.6,0c0.9,2,1.1,2.4,1.5,3.6c0.5,0,1.2,0,1.6,0c-0.2-0.4-0.4-0.8-0.6-1.3c-0.3-0.5-0.5-1.2-0.8-1.7
			c-0.3-0.7-0.6-1.4-0.9-2.1c-0.3-0.6-0.6-1.2-0.8-1.8c-0.2-0.5-0.4-0.9-0.6-1.4c-0.2-0.4-0.4-0.8-0.5-1.1H516.4z M515,569.9
			c0.3-0.6,0.5-1.2,0.7-1.8c0.2-0.5,0.4-0.9,0.6-1.4l1.5,3.2H515z"/>
	</g>
</g>
</svg>
