<?xml version="1.0" encoding="utf-8"?>
<svg version="1.1" id="Layer_1" xmlns="http://www.w3.org/2000/svg" xmlns:xlink="http://www.w3.org/1999/xlink" x="0px" y="0px"
	 viewBox="0 0 1280 1280" style="enable-background:new 0 0 1280 1280;" xml:space="preserve">
<g>
	<path style="fill:#00C4CC;" d="M640,0C286.1,0,0,286.1,0,640s286.1,640,640,640s640-286.1,640-640S993.9,0,640,0z"/>
	<path style="fill:#FFFFFF;" d="M1067.3,658.8c-7.5,0-20.7-1.9-20.7-9.4c0-7.5,16.9-3.8,15.1-20.7c-1.9-11.3-13.2-15.1-24.5-15.1
		c-35.8,0-60.2,47.1-54.6,86.6c1.9,15.1,9.4,32,24.5,32c11.3,0,28.2-16.9,33.9-39.5c3.8-15.1,18.8-28.2,32-28.2
		c5.6,0,9.4,1.9,11.3,9.4c0,3.8,0,11.3-7.5,33.9c-9.4,16.9-9.4,26.4-7.5,32c1.9,15.1,9.4,26.4,16.9,32c1.5,1.7,2.8,3.6,3.8,5.6
		c0,3.8-1.9,7.5-7.5,7.5c-1.9,0-3.8,0-5.6-1.9c-28.2-11.3-37.6-30.1-41.4-47.1c-11.3,13.2-24.5,20.7-37.6,20.7
		c-24.5,0-47.1-22.6-50.8-48.9c-1.9-11.3,0-22.6,3.8-33.9c-11.3,7.5-22.6,11.3-33.9,11.3h-9.4c-24.5,33.9-48.9,58.4-67.8,69.6
		c-7.5,3.8-15.1,5.6-20.7,5.6c-3.8,0-9.4-1.9-11.3-5.6c-5.6-7.5-7.5-20.7-9.4-35.8c-26.4,28.2-60.2,43.3-77.2,43.3
		c-18.8,0-30.1-11.3-32-30.1v-20.7c5.6-39.5,20.7-64,20.7-71.5c0-1.9-1.9-3.8-3.8-3.8c-13.2,0-54.6,43.3-62.1,73.4l-5.6,24.5
		c-3.8,16.9-20.7,28.2-32,28.2c-5.6,0-9.4-1.9-11.3-9.4v-7.5l1.9-13.2c-22.6,16.9-47.1,26.4-56.5,26.4c-16.9,0-26.4-9.4-28.2-22.6
		c-11.3,15.1-24.5,22.6-39.5,22.6c-18.8,0-37.6-13.2-45.2-32c-13.2,15.1-28.2,30.1-45.2,41.4c-26.4,16.9-54.6,30.1-90.4,30.1
		c-32,0-58.4-16.9-73.4-32c-22.6-20.7-33.9-50.8-35.8-80.9c-11.3-90.4,43.3-205.2,128-256c20.7-11.3,39.5-18.8,60.2-18.8
		c39.5,0,71.5,30.1,75.3,64c3.8,32-9.4,58.4-43.3,75.3c-18.8,9.4-26.4,9.4-30.1,3.8c-1.9-3.8,0-7.5,3.8-11.3
		c32-28.2,32-48.9,30.1-80.9c-1.9-20.7-16.9-32-32-32c-64,0-156.2,143.1-143.1,246.6c5.6,39.5,30.1,88.5,80.9,88.5
		c16.9,0,33.9-5.6,50.8-13.2c26.4-13.2,43.3-24.5,58.4-43.3c-3.8-47.1,37.6-109.2,97.9-109.2c28.2,0,48.9,11.3,50.8,32
		c3.8,28.2-20.7,32-28.2,32s-20.7-1.9-20.7-9.4c-1.9-7.5,16.9-3.8,15.1-20.7c-1.9-11.3-13.2-15.1-24.5-15.1
		c-37.6,0-60.2,52.7-54.6,86.6c1.9,15.1,9.4,30.1,24.5,30.1c11.3,0,28.2-16.9,32-39.5c3.8-16.9,18.8-28.2,32-28.2
		c5.6,0,9.4,1.9,11.3,9.4v7.5c-1.9,7.5-7.5,30.1-5.6,33.9c0,3.8,1.9,9.4,9.4,9.4c5.6,0,22.6-9.4,41.4-24.5l13.2-71.5
		c1.9-13.2,7.5-26.4,32-26.4c5.6,0,9.4,1.9,11.3,9.4v7.5l-7.5,32c24.5-32,58.4-52.7,80.9-52.7c9.4,0,16.9,5.6,16.9,15.1
		c0,5.6,0,15.1-3.8,24.5c-7.5,20.7-16.9,50.8-22.6,79.1c0,7.5,1.9,15.1,11.3,15.1s35.8-11.3,58.4-39.5v-11.3
		c0-22.6,1.9-39.5,5.6-52.7c3.8-15.1,22.6-28.2,32-28.2c5.6,0,11.3,3.8,11.3,9.4c0,1.9,0,5.6-1.9,7.5c-7.5,24.5-13.2,45.2-13.2,67.8
		c0,13.2,1.9,32,5.6,41.4c0,1.9,1.9,3.8,3.8,3.8c3.8,0,30.1-24.5,47.1-54.6c-16.9-11.3-26.4-30.1-26.4-50.8
		c0-37.6,24.5-58.4,45.2-58.4c18.8,0,32,13.2,32,37.6c0,16.9-5.6,33.9-15.1,50.8h5.6c15.1,0,24.5-5.6,32-13.2
		c1.9-1.9,3.8-5.6,7.5-5.6c16.9-22.6,45.2-39.5,75.3-39.5c26.4,0,48.9,11.3,50.8,32C1099.3,653.2,1074.8,658.8,1067.3,658.8
		L1067.3,658.8L1067.3,658.8z"/>
	<path style="fill:#00C4CC;" d="M892.2,585.4c-5.6,0-9.4,9.4-9.4,18.8c0,15.1,7.5,32,16.9,39.5c3.8-11.3,5.6-20.7,5.6-32
		C905.4,594.8,897.9,585.4,892.2,585.4"/>
</g>
</svg>
