<?xml version="1.0" encoding="utf-8"?>
<svg version="1.1" id="Layer_1" xmlns="http://www.w3.org/2000/svg" xmlns:xlink="http://www.w3.org/1999/xlink" x="0px" y="0px"
	width="100px" height="100px" viewBox="0 0 100 100" style="enable-background:new 0 0 100 100;" xml:space="preserve">
<g>
	<g>
		<path style="fill:#E8E8E8;" d="M50,0c27.61,0,50,22.39,50,50s-22.39,50-50,50S0,77.61,0,50S22.39,0,50,0"/>
		<path style="fill:#FFFFFF;" d="M50,1c27.06,0,49,21.94,49,49S77.06,99,50,99S1,77.06,1,50S22.94,1,50,1"/>
	</g>
	<g id="Layer_3">
		<g>
			<polyline style="fill:#F78E1E;" points="12.97,44.1 9.31,44.1 13.51,49.99 9.31,55.9 12.97,55.9 17.16,49.99 12.97,44.1 			"/>
			<polyline style="fill:#231F20;" points="17.61,46.74 19.36,46.74 20.71,48.94 22.1,46.74 23.76,46.74 21.55,50.02 23.95,53.62 
				22.16,53.62 20.65,51.24 19.12,53.62 17.43,53.62 19.83,50.01 17.61,46.74 			"/>
			<path style="fill:#231F20;" d="M25.91,47.88l-0.27,1.53l0.02,0.02c0.19-0.19,0.39-0.32,0.6-0.4s0.46-0.12,0.72-0.12
				c0.33,0,0.64,0.06,0.89,0.18c0.26,0.12,0.48,0.29,0.65,0.49c0.18,0.2,0.31,0.45,0.4,0.72s0.14,0.57,0.14,0.89
				c0,0.35-0.07,0.67-0.2,0.97c-0.13,0.3-0.31,0.56-0.55,0.78c-0.23,0.22-0.49,0.39-0.79,0.5c-0.3,0.12-0.62,0.18-0.96,0.17
				c-0.32,0-0.65-0.04-0.94-0.13c-0.3-0.09-0.56-0.22-0.79-0.4c-0.23-0.18-0.41-0.4-0.56-0.67c-0.13-0.27-0.21-0.58-0.21-0.93h1.35
				c0.03,0.31,0.14,0.56,0.35,0.74c0.2,0.18,0.45,0.28,0.76,0.28c0.18,0,0.35-0.03,0.48-0.11c0.14-0.08,0.27-0.17,0.37-0.29
				c0.1-0.12,0.18-0.26,0.23-0.41c0.06-0.16,0.08-0.32,0.08-0.48c0-0.17-0.02-0.33-0.08-0.49c-0.04-0.16-0.12-0.29-0.23-0.4
				c-0.1-0.11-0.22-0.21-0.37-0.27c-0.14-0.07-0.3-0.09-0.49-0.09c-0.25,0-0.45,0.04-0.59,0.12c-0.16,0.09-0.3,0.22-0.43,0.41h-1.23
				l0.67-3.73h3.77v1.13h-2.8"/>
			<path style="fill:#231F20;" d="M33.48,46.74c0.28,0,0.55,0.03,0.8,0.1c0.26,0.07,0.47,0.18,0.66,0.32
				c0.19,0.14,0.33,0.33,0.46,0.56c0.11,0.22,0.17,0.5,0.17,0.8c0,0.43-0.11,0.81-0.33,1.14s-0.56,0.52-1,0.61v0.02
				c0.22,0.03,0.41,0.09,0.56,0.18s0.27,0.2,0.37,0.33c0.09,0.13,0.16,0.29,0.2,0.47s0.07,0.37,0.08,0.57
				c0.01,0.11,0.01,0.26,0.02,0.42c0.01,0.17,0.02,0.33,0.04,0.5c0.02,0.17,0.04,0.33,0.09,0.48c0.04,0.16,0.1,0.27,0.17,0.36h-0.72
				c-0.04-0.07-0.07-0.14-0.09-0.23s-0.03-0.19-0.04-0.29c-0.01-0.1-0.02-0.2-0.02-0.29c-0.01-0.1-0.01-0.18-0.02-0.25
				c-0.01-0.25-0.03-0.48-0.06-0.72c-0.03-0.23-0.09-0.46-0.19-0.65c-0.09-0.19-0.22-0.35-0.4-0.46c-0.18-0.12-0.41-0.17-0.72-0.16
				H31v3.06h-0.66v-6.88H33.48 M33.42,50c0.2,0,0.39-0.03,0.57-0.09s0.33-0.14,0.47-0.27c0.13-0.11,0.25-0.26,0.32-0.41
				c0.08-0.17,0.12-0.35,0.12-0.56c0-0.42-0.12-0.76-0.37-1s-0.61-0.37-1.12-0.37h-2.44V50H33.42z"/>
			<polyline style="fill:#231F20;" points="41.31,46.74 41.31,47.3 37.21,47.3 37.21,49.78 41.04,49.78 41.04,50.35 37.21,50.35 
				37.21,53.06 41.35,53.06 41.35,53.62 36.55,53.62 36.55,46.74 41.31,46.74 			"/>
			<polyline style="fill:#231F20;" points="47.16,46.74 47.16,47.3 44.76,47.3 44.76,53.62 44.11,53.62 44.11,47.3 41.72,47.3 
				41.72,46.74 47.16,46.74 			"/>
			<path style="fill:#231F20;" d="M49.58,46.74l2.7,6.88h-0.7l-0.84-2.14h-3.13l-0.83,2.14h-0.69l2.77-6.88H49.58 M50.52,50.91
				l-1.33-3.52l-1.37,3.52H50.52z"/>
			<rect x="52.95" y="46.74" style="fill:#231F20;" width="0.66" height="6.88"/>
			<polyline style="fill:#231F20;" points="55.7,46.74 55.7,53.06 59.55,53.06 59.55,53.62 55.05,53.62 55.05,46.74 55.7,46.74 			
				"/>
			<g>
				<path style="fill:#231F20;" d="M63.43,53.88c-0.54,0-1.03-0.1-1.44-0.29l0,0c-0.41-0.2-0.77-0.46-1.05-0.8l0,0
					c-0.28-0.33-0.49-0.72-0.64-1.17l0,0c-0.14-0.45-0.21-0.93-0.21-1.43l0,0c0-0.51,0.08-0.99,0.22-1.44l0,0
					c0.16-0.45,0.38-0.85,0.66-1.18l0,0c0.29-0.33,0.64-0.6,1.05-0.79l0,0c0.41-0.19,0.88-0.29,1.41-0.29l0,0
					c0.39,0,0.76,0.06,1.1,0.17l0,0c0.33,0.11,0.64,0.28,0.89,0.49l0,0c0.26,0.21,0.47,0.47,0.64,0.76l0,0
					c0.17,0.29,0.28,0.62,0.33,0.99l0,0l0.02,0.13h-0.13H66l-0.01-0.09c-0.06-0.31-0.16-0.58-0.3-0.84l0,0
					c-0.14-0.25-0.32-0.46-0.55-0.64l0,0c-0.22-0.18-0.47-0.31-0.76-0.41l0,0c-0.29-0.1-0.6-0.14-0.95-0.14l0,0
					c-0.47,0-0.88,0.09-1.24,0.26l0,0c-0.37,0.18-0.67,0.41-0.91,0.7l0,0c-0.25,0.3-0.45,0.65-0.57,1.05l0,0
					c-0.13,0.4-0.2,0.84-0.2,1.28l0,0c0,0.46,0.07,0.89,0.19,1.29l0,0c0.12,0.4,0.31,0.75,0.56,1.05l0,0
					c0.25,0.29,0.56,0.52,0.91,0.7l0,0c0.37,0.17,0.79,0.26,1.28,0.26l0,0c0.37,0,0.71-0.07,1.03-0.19l0,0
					c0.32-0.12,0.6-0.3,0.84-0.52l0,0c0.23-0.22,0.42-0.49,0.56-0.8l0,0c0.13-0.31,0.2-0.65,0.2-1.01l0,0V50.7h-2.67v-0.11V50.4
					v-0.11h3.08v3.44h-0.11h-0.31v-1.32c-0.2,0.39-0.49,0.7-0.85,0.96l0,0C64.74,53.71,64.14,53.88,63.43,53.88L63.43,53.88
					C63.45,53.88,63.43,53.88,63.43,53.88L63.43,53.88z"/>
			</g>
			<g>
				<path style="fill:#231F20;" d="M67.18,53.73h-0.11v-7.09H70c0.74,0,1.29,0.14,1.66,0.46l0,0c0.37,0.31,0.55,0.79,0.56,1.42l0,0
					c0,0.02,0,0.04,0,0.07l0,0c0,0.46-0.13,0.85-0.4,1.16l0,0c-0.2,0.23-0.47,0.41-0.78,0.55l0,0c0.12,0.03,0.25,0.08,0.35,0.13l0,0
					c0.19,0.11,0.35,0.25,0.46,0.43l0,0c0.1,0.18,0.18,0.38,0.21,0.61l0,0c0.03,0.22,0.04,0.47,0.04,0.76l0,0
					c0,0.09,0.01,0.21,0.01,0.36l0,0c0.01,0.14,0.01,0.28,0.03,0.42l0,0c0.01,0.13,0.03,0.27,0.04,0.38l0,0
					c0.01,0.11,0.04,0.18,0.06,0.19l0,0l0.12,0.18h-0.22l0,0h-0.28l-0.03-0.07c-0.04-0.09-0.07-0.19-0.09-0.31l0,0
					c-0.02-0.12-0.03-0.26-0.04-0.39l0,0c-0.01-0.13-0.02-0.27-0.02-0.41l0,0c0-0.14-0.01-0.27-0.01-0.38l0,0
					c0-0.28-0.02-0.52-0.06-0.74l0,0c-0.03-0.2-0.11-0.37-0.22-0.5l0,0c-0.11-0.13-0.28-0.23-0.5-0.31l0,0
					c-0.22-0.08-0.52-0.11-0.91-0.11l0,0h-2.49v3.23h-0.11h-0.19V53.73z M69.95,50.09c0.25,0,0.48-0.03,0.71-0.1l0,0
					c0.22-0.06,0.41-0.16,0.58-0.29l0,0c0.17-0.13,0.3-0.29,0.4-0.5l0,0c0.1-0.2,0.16-0.43,0.16-0.72l0,0
					c-0.01-0.47-0.14-0.81-0.41-1.06l0,0c-0.26-0.25-0.7-0.38-1.34-0.38l0,0h-2.57v3.04h2.46V50.09z"/>
			</g>
			<g>
				<path style="fill:#231F20;" d="M74.42,53.58c-0.41-0.2-0.76-0.47-1.03-0.8l0,0c-0.28-0.33-0.48-0.74-0.62-1.18l0,0
					c-0.14-0.45-0.21-0.91-0.21-1.42l0,0c0-0.5,0.08-0.97,0.21-1.42l0,0c0.14-0.45,0.36-0.85,0.62-1.18l0,0
					c0.28-0.35,0.62-0.61,1.03-0.8l0,0c0.41-0.2,0.88-0.3,1.41-0.3l0,0c0.52,0,1,0.1,1.41,0.3l0,0c0.41,0.2,0.76,0.47,1.03,0.8l0,0
					c0.28,0.33,0.48,0.74,0.62,1.18l0,0c0.14,0.45,0.21,0.93,0.21,1.42l0,0c0,0.5-0.07,0.97-0.21,1.42l0,0
					c-0.14,0.45-0.36,0.85-0.62,1.18l0,0c-0.28,0.33-0.62,0.6-1.03,0.8l0,0c-0.41,0.2-0.88,0.3-1.41,0.3l0,0
					C75.3,53.88,74.83,53.78,74.42,53.58L74.42,53.58z M73.74,52.55c0.25,0.29,0.54,0.51,0.89,0.68l0,0
					c0.35,0.17,0.75,0.25,1.19,0.25l0,0c0.45,0,0.85-0.08,1.19-0.25l0,0c0.35-0.17,0.65-0.39,0.89-0.68l0,0
					c0.25-0.29,0.43-0.64,0.57-1.04l0,0c0.13-0.41,0.2-0.85,0.21-1.34l0,0c-0.01-0.48-0.08-0.93-0.21-1.34l0,0
					c-0.13-0.4-0.32-0.76-0.57-1.05l0,0c-0.25-0.29-0.54-0.51-0.89-0.68l0,0c-0.35-0.17-0.75-0.25-1.19-0.25l0,0
					c-0.45,0-0.85,0.08-1.19,0.25l0,0c-0.36,0.17-0.65,0.39-0.89,0.68l0,0c-0.25,0.29-0.43,0.64-0.57,1.05l0,0
					c-0.13,0.4-0.2,0.85-0.21,1.33l0,0c0.01,0.49,0.08,0.93,0.21,1.34l0,0l0,0C73.32,51.92,73.51,52.28,73.74,52.55L73.74,52.55z"/>
			</g>
			<g>
				<path style="fill:#231F20;" d="M84.86,46.63h0.11v4.43c0,0.94-0.22,1.65-0.68,2.13l0,0c-0.46,0.47-1.12,0.7-1.95,0.7l0,0l0,0
					l0,0c-0.85,0-1.51-0.23-1.96-0.7l0,0c-0.46-0.47-0.68-1.18-0.68-2.13l0,0v-4.43h0.11h0.3v4.43c0,0.81,0.19,1.42,0.54,1.82l0,0
					c0.36,0.4,0.9,0.6,1.67,0.6l0,0c0.78,0,1.33-0.21,1.67-0.6l0,0c0.36-0.4,0.54-1,0.54-1.82l0,0v-4.43h0.11H84.86z"/>
			</g>
			<g>
				<path style="fill:#231F20;" d="M85.7,53.73h-0.11v-7.09h2.9c0.68,0,1.22,0.17,1.62,0.5l0,0c0.39,0.33,0.59,0.85,0.59,1.48l0,0
					c0,0.31-0.06,0.6-0.18,0.85l0,0c-0.11,0.25-0.28,0.46-0.48,0.62l0,0c-0.2,0.17-0.45,0.29-0.72,0.38l0,0
					c-0.28,0.09-0.58,0.12-0.91,0.12l0,0h-2.39v3.12H85.9l0,0h-0.2V53.73z M88.48,50.19c0.26,0,0.5-0.03,0.71-0.1l0,0
					c0.22-0.07,0.4-0.17,0.57-0.3l0,0c0.16-0.13,0.28-0.3,0.37-0.49l0,0c0.09-0.19,0.13-0.41,0.13-0.67l0,0
					c0-0.52-0.14-0.9-0.43-1.17l0,0c-0.28-0.26-0.72-0.4-1.35-0.4l0,0h-2.48v3.13l0,0H88.48z"/>
			</g>
		</g>
	</g>
</g>
</svg>
