<?xml version="1.0"?>
<svg xmlns="http://www.w3.org/2000/svg" xmlns:xlink="http://www.w3.org/1999/xlink" xmlns:svgjs="http://svgjs.com/svgjs" version="1.1" width="512" height="512" x="0" y="0" viewBox="0 0 512 512" style="enable-background:new 0 0 512 512" xml:space="preserve" class=""><g><g xmlns="http://www.w3.org/2000/svg"><g><g><g><g><g><g><g><g><g><g><circle cx="256" cy="256" fill="#f1f1f1" r="256" data-original="#7c83e7" style="" class=""/></g></g></g></g></g></g></g></g></g></g><path d="m368.841 212.159-134.223-134.223-135.333 312.904 118.289 118.289c12.534 1.887 25.365 2.871 38.426 2.871 141.385 0 256-114.615 256-256 0-.609-.019-1.213-.023-1.821l-72.057-72.057z" fill="#f1f1f1" data-original="#5f69e2" style="" class=""/><g><path d="m89.037 77.936h72.791l8.028 17.32-8.028 31.567-72.791-14.247z" fill="#525264" data-original="#525264" style="" class=""/><path d="m161.828 77.936h72.79v34.64l-72.79 14.247z" fill="#454553" data-original="#454553" style="" class=""/><path d="m89.039 112.576-41.039 115.864s42.737 70.278 51.284 162.4h62.543l23.015-148.62-23.015-129.644z" fill="#606074" data-original="#606074" style="" class=""/><path d="m161.828 112.576h72.79v278.264h-72.79z" fill="#525264" data-original="#525264" style="" class=""/><path d="m182.009 196.376-20.181 48.543-40.363-27.316v-68.938h40.363z" fill="#525264" data-original="#525264" style="" class=""/><path d="m202.19 217.603-40.362 27.316v-96.254h40.362z" fill="#454553" data-original="#454553" style="" class=""/></g><g><g><path d="m314.356 417.125h-125.565v-235.003l45.943-12.284 18.487-5.937 11.368-10.046h49.767l30.874 146.858z" fill="#d7e8ff" data-original="#d7e8ff" style="" class=""/><path d="m439.92 417.125h-125.564v-263.27h49.767l7.901 14.58 21.954 1.403 45.942 12.284z" fill="#adcfff" data-original="#adcfff" style="" class=""/></g><path d="m314.356 203.622-22.919 22.919-56.703-56.703 29.855-15.983z" fill="#adcfff" data-original="#adcfff" style="" class=""/><path d="m314.356 203.622 22.919 22.919 56.703-56.703-29.855-15.983z" fill="#8bbbff" data-original="#8bbbff" style=""/><path d="m341.115 263.734h72.047v77.29h-72.047z" fill="#d7e8ff" data-original="#d7e8ff" style="" class=""/><g fill="#8bbbff"><path d="m336.844 263.734h80.589v25.463h-80.589z" fill="#8bbbff" data-original="#8bbbff" style=""/><circle cx="304.856" cy="239.231" r="4.843" fill="#8bbbff" data-original="#8bbbff" style=""/><circle cx="304.856" cy="285.969" r="4.843" fill="#8bbbff" data-original="#8bbbff" style=""/><circle cx="304.856" cy="332.707" r="4.843" fill="#8bbbff" data-original="#8bbbff" style=""/><circle cx="304.856" cy="379.445" r="4.843" fill="#8bbbff" data-original="#8bbbff" style=""/></g></g><g><g><path d="m241.916 370.265-7.298 95.505-27.341-17.186 15.625-166.905 11.716-7.812z" fill="#ff5f96" data-original="#ff5f96" style=""/></g><g><path d="m261.959 448.584-27.341 17.186v-191.903l11.716 7.812z" fill="#d72878" data-original="#d72878" style="" class=""/></g><path d="m234.618 281.679h-11.716l-7.813-29.351h19.529l6.418 16.077z" fill="#ff5f96" data-original="#ff5f96" style=""/><path d="m246.334 281.679h-11.716v-29.351h19.529z" fill="#d72878" data-original="#d72878" style="" class=""/></g></g></g></svg>
