<svg xmlns="http://www.w3.org/2000/svg" width="400" height="120.91"><defs><clipPath id="A"><path d="M408.33 913.31h173.48v-15.675H408.33z"/></clipPath></defs><g transform="matrix(4.478688 0 0 -4.478688 -1828.74123 4089.95116)"><g clip-path="url(#A)" transform="translate(0 -.111)"><path d="M420.14 906.14c-.025.565-.183 1.125-.475 1.632l-2.58 4.468c-.196.34-.332.706-.408 1.08l-.107-.187c-.639-1.106-.639-2.468-.001-3.574l2.064-3.574c.639-1.106.639-2.469 0-3.575l-.108-.186c-.075.374-.211.739-.408 1.08l-3.095 5.361a3.55 3.55 0 0 0-.408 1.081l-.108-.187c-.636-1.102-.638-2.459-.006-3.563h-.001l2.071-3.586c.638-1.106.638-2.468 0-3.574l-.108-.187c-.076.375-.212.74-.408 1.081l-2.58 4.467c-.346.6-.504 1.274-.475 1.943-2.761-.722-4.668-2.254-4.668-4.028 0-2.467 3.689-4.467 8.239-4.467s8.238 2 8.238 4.467c0 1.774-1.906 3.307-4.668 4.028z" fill="#0e2e5a"/></g><path d="M478.96 898.05h1.702v10.832c-.526 0-1.269-.124-1.702-.248zm-3.559 0h1.702v10.832c-.526 0-1.268-.124-1.702-.248zm8.356 4.735c.139 1.315.773 2.012 1.98 2.012 1.176 0 1.857-.743 1.857-2.012zm2.073 3.435c-2.708 0-3.775-1.826-3.775-4.131 0-2.646 1.377-4.225 4.224-4.225.913 0 1.733.14 2.507.496l.263 1.547a6.63 6.63 0 0 0-2.724-.588c-1.516 0-2.321.665-2.537 2.042h5.431a9.07 9.07 0 0 1 .093 1.316c0 1.95-1.052 3.543-3.482 3.543zm-27.001-.433v-7.737h1.703v6.623a8.51 8.51 0 0 0 1.253.093l1.284-.062c.093.325.155.944.155 1.454-.371.047-.959.062-1.485.062-.96 0-2.182-.185-2.91-.433zm35.047.433c-.82 0-2.011-.17-3.095-.433v-7.737h1.703v6.592a8.58 8.58 0 0 0 1.346.124c1.702 0 2.104-.588 2.104-1.811v-4.905h1.703v5.199c0 1.873-.913 2.971-3.761 2.971zm-25.917-4.41l1.764 5.277 1.748-5.277zm.603 6.793l-3.682-10.553h1.825l.743 2.213h4.534l.743-2.213h1.826l-3.745 10.786c-.758 0-1.609-.078-2.244-.233zm-26.799-8.789a2.67 2.67 0 0 0-1.656-.557c-1.516 0-2.151 1.114-2.151 2.692 0 1.734.82 2.817 2.584 2.817.48 0 .867-.031 1.223-.093v-4.859zm-5.54 2.135c0-2.599 1.362-4.085 3.404-4.085 1.084 0 1.749.434 2.182 1.114l.093-.928h1.563v7.737c-.897.31-1.811.433-2.925.433-2.862 0-4.317-1.547-4.317-4.271zm-2.955 5.509c.774 0 1.439-.124 2.074-.34.154.433.263.944.294 1.532-.728.263-1.532.356-2.368.356-3.482 0-5.431-2.089-5.431-5.602 0-3.327 1.841-5.602 5.168-5.602.928 0 1.563.124 2.197.341.14.588.232 1.099.263 1.687-.619-.31-1.485-.48-2.228-.48-2.058 0-3.605 1.439-3.605 4.131 0 2.662 1.516 3.977 3.636 3.977zm16.216-2.955c.077.448.124.928.155 1.454h-2.693v2.925a5.86 5.86 0 0 1-1.702-.248v-8.124c0-1.887 1.052-2.646 2.708-2.646.48 0 .975.062 1.439.248a14.49 14.49 0 0 1 .201 1.439 3.86 3.86 0 0 0-1.331-.232c-.82 0-1.315.387-1.315 1.393v3.791zm2.321-1.718c.139 1.315.773 2.012 1.98 2.012 1.177 0 1.857-.743 1.857-2.012zm2.073 3.435c-2.708 0-3.775-1.826-3.775-4.131 0-2.646 1.377-4.225 4.224-4.225.913 0 1.733.14 2.507.496l.263 1.547a6.63 6.63 0 0 0-2.724-.588c-1.516 0-2.321.665-2.537 2.042h5.431a9.07 9.07 0 0 1 .093 1.316c0 1.95-1.052 3.543-3.482 3.543zm3.342-16.77h-3.189c.083 1.092.597 1.784 1.647 1.784 1.038 0 1.542-.703 1.542-1.742v-.042zm-1.511 2.424c-1.72 0-2.423-1.238-2.423-2.802 0-1.804.923-2.863 2.675-2.863.597 0 1.143.094 1.668.398a7.14 7.14 0 0 1 .115.703c-.566-.325-1.196-.451-1.762-.451-1.196 0-1.858.671-1.951 1.93h3.882a4.45 4.45 0 0 1 .041.65c0 1.353-.671 2.434-2.245 2.434zm-7.584-4.522a1.85 1.85 0 0 0-1.332-.535c-1.144 0-1.732.829-1.732 2.182 0 1.405.64 2.224 2.046 2.224a3.89 3.89 0 0 0 1.018-.125zm-3.808 1.647c0-1.794.923-2.79 2.412-2.79a2.12 2.12 0 0 1 1.427.535l.02-.41h.682v5.245c-.556.21-1.101.294-1.751.294-1.878 0-2.791-1.029-2.791-2.875zm18.882-1.982h-1.3v2.728h1.364c1.321 0 1.972-.525 1.972-1.374 0-.913-.64-1.353-2.035-1.353zm-1.3 5.948c.367.042.702.063 1.039.063 1.553 0 1.972-.556 1.972-1.311s-.566-1.291-1.699-1.291H461.9v2.539zm2.528-2.843c.787.262 1.228.944 1.228 1.678 0 1.175-.776 1.909-2.728 1.909-.587 0-1.206-.052-1.762-.146v-7.228h2.109c1.899 0 2.717.755 2.717 2.067 0 .881-.598 1.543-1.563 1.721zm6.2-2.77a1.85 1.85 0 0 0-1.332-.535c-1.144 0-1.731.829-1.731 2.182 0 1.405.639 2.224 2.046 2.224a3.88 3.88 0 0 0 1.017-.125zm-3.808 1.647c0-1.794.923-2.79 2.412-2.79a2.12 2.12 0 0 1 1.427.535l.02-.41h.682v5.245c-.555.21-1.101.294-1.751.294-1.878 0-2.791-1.029-2.791-2.875zm13.543.273l2.287 2.476h-.892l-2.256-2.444v-.073l2.403-2.896h.913zm-5.602 2.602c-.588 0-1.27-.105-1.973-.294v-5.245h.735v4.742a5.52 5.52 0 0 0 1.217.146c1.289 0 1.657-.503 1.657-1.479v-3.41h.734v3.546c0 1.269-.598 1.993-2.37 1.993zm-33.203-4.826l-1.7 4.7h-.797l2.024-5.413h.913l2.004 5.413h-.787zm36.937-.713h.734v7.365a2.55 2.55 0 0 1-.734-.105zm-27.538 1.637v3.084h1.825c.042.199.063.409.074.661h-1.899v1.94a2.56 2.56 0 0 1-.734-.115v-5.655c0-1.175.619-1.678 1.626-1.678a2.68 2.68 0 0 1 .945.167 6.82 6.82 0 0 1 .094.629c-.283-.104-.619-.167-.913-.167-.65 0-1.018.336-1.018 1.133zm-13.05 5.602a.48.48 0 0 1-.493-.493.47.47 0 0 1 .493-.483.46.46 0 0 1 .483.483.47.47 0 0 1-.483.493zm-3.987-1.993v-5.245h.734v4.773c.346.073.724.115 1.029.115a6.29 6.29 0 0 0 .808-.042c.042.137.073.41.073.63-.231.031-.556.042-.902.042a6.04 6.04 0 0 1-1.742-.273zm-3.713-1.793h-1.039v3.158c.346.063.692.084 1.039.084 1.342 0 2.056-.567 2.056-1.616 0-1.008-.609-1.626-2.056-1.626zm-.021 3.923c-.619 0-1.238-.063-1.752-.167v-7.196h.734v2.759h1.049c1.867 0 2.791.902 2.791 2.371 0 1.279-.807 2.234-2.822 2.234zm7.354-7.375h.734v5.413h-.734z" fill="#0e2e5a"/></g></svg>