<?xml version="1.0" encoding="utf-8"?>
<svg version="1.1" id="Layer_1" xmlns="http://www.w3.org/2000/svg" xmlns:xlink="http://www.w3.org/1999/xlink" x="0px" y="0px"
	 viewBox="0 0 1920 569.5" style="enable-background:new 0 0 1920 569.5;" xml:space="preserve">
<g>
	<path style="fill:#010101;" d="M1876.6,563.7h43.4V276.9h-110.6v60.7h40.7v125.2c0,28-11.1,42.2-34.6,42.2
		c-23,0-34.6-14.2-34.6-42.2v-356c0-28,11.1-42.2,33.4-42.2c22.3,0,33.8,14.2,33.8,42.2V192h69.5v-82.9
		C1918.5,42.2,1881.6,0,1815.2,0c-68,0-109.1,42.2-109.1,109.1v354c0,66.8,36.9,106,93.7,106c28.8,0,49.5-10.4,62.6-30.3
		L1876.6,563.7L1876.6,563.7z M1511,106.8c0-28,11.1-42.2,33.8-42.2s33.4,14.2,33.4,42.2v355.6c0,28-11.1,42.2-33.4,42.2
		s-33.8-14.2-33.8-42.2V106.8L1511,106.8z M1624.7,539.9c19.2-20,28.8-46.1,28.8-79.9V109.4C1653.1,42.2,1612.4,0,1544.4,0
		s-108.7,42.2-108.7,109.1v351c0,33.4,9.6,59.9,28.8,79.9c19.2,20,45.7,29.6,79.9,29.6C1579,569.5,1605.5,559.9,1624.7,539.9
		L1624.7,539.9L1624.7,539.9z M1246.8,70.3h16.9c31.1,0,47.2,20.7,47.2,63v303c0,42.2-16.1,63-47.2,63h-16.9V70.3z M1274.1,563.7
		c66.4,0,111.4-41.5,111.4-125.2v-308c0-83.7-44.9-125.2-111.4-125.2h-101.8v558.3L1274.1,563.7L1274.1,563.7z M1068.3,563.7
		l58.4-558h-71l-30.3,352.1L987.6,5.4h-73l-37.6,352.5L849.8,5.4H773l59.1,558.3h81.8L950,224.6l33.8,339.1L1068.3,563.7
		L1068.3,563.7L1068.3,563.7z M736.9,563.7v-64.5H614.4V293.4h79.1v-63.7h-79.1V70.3h119V5.8H539.9v558.3h197V563.7L736.9,563.7z
		 M487.3,563.7c-3.5-24.2-5.8-48.4-6.5-72.6l-3.1-116.4c-2.3-48-19.2-77.2-50.3-87.6c36.9-15,55.3-49.5,55.3-102.9v-66.4
		c0-79.1-44.9-112.5-112.1-112.5H268.8v558.3h74.5V315.6h11.9c31.1,0,46.5,18.4,47.2,54.9l2.3,111c0,36.9,2.7,63.7,8.1,82.2H487.3
		L487.3,563.7L487.3,563.7z M343.3,68.7h23c28,0,42.2,17.7,42.2,51.8v80.6c0,34.2-16.9,53.4-43,53.4h-22.3V68.7z M74.5,303h23
		c28,0,44.9,18.4,44.9,51.1v91c0,37.6-13.4,55.7-41.5,55.7H74.5L74.5,303L74.5,303z M74.5,68.7H96c28.8,0,43.4,17.7,43.4,53.4v71.8
		c0,31.1-16.1,49.5-44.2,49.5H74.5C74.5,243.5,74.5,68.7,74.5,68.7z M105.6,563.7c67.2,0,111.4-39.9,111.4-118.7v-82.9
		c0-47.2-16.9-78.3-49.5-93.3c30.3-14.2,45.7-45.3,45.7-92.5v-59.9C212.7,37.6,169,5.8,104.8,5.8H0v558.3h105.6L105.6,563.7z"/>
</g>
</svg>
