<?xml version="1.0"?>
<svg xmlns="http://www.w3.org/2000/svg" xmlns:xlink="http://www.w3.org/1999/xlink" xmlns:svgjs="http://svgjs.com/svgjs" version="1.1" width="512" height="512" x="0" y="0" viewBox="0 0 512 512" style="enable-background:new 0 0 512 512" xml:space="preserve" class=""><g><g xmlns="http://www.w3.org/2000/svg"><circle cx="256" cy="256" fill="#f1f1f1" r="256" data-original="#7a83ea" style="" class=""/><path d="m510.974 278.846-135.568-135.568-222.779 237.926-.003.003 129.478 129.478c121.624-12.318 218.074-109.774 228.872-231.839z" fill="#f1f1f1" data-original="#4b5be3" style="" class=""/><g><g><path d="m257.348 92.769c-3.766 0-13.277 12.088-13.277 12.088s-11.684-10.324-18.358-9.013c-28.919 5.679-55.098 18.995-76.353 37.763l-3.08 30.513-32.208 13.62c-12.719 23.236-19.955 49.902-19.955 78.26 0 1.768.038 3.528.094 5.283l42.804 41.302-17.241 41.302c25.007 39.064 66.198 66.764 114.114 73.659 6.845.985 13.558-9.26 13.558-9.26l9.902 10.945 67.972-157.959z" fill="#9dcfff" data-original="#9dcfff" style="" class=""/><path d="m257.151 341.604v55.178 22.446c.066 0 .131.003.197.003-.197 0 35.812-22.449 35.812-22.449l51.091-2.595c23.688-14.928 43.274-35.771 56.671-60.465l-36.242-77.722 36.242-77.723c-6.941-12.795-14.45-25.723-25.515-34.999l-67.31-16.598s-50.945-33.908-50.749-33.911c-.066 0-.131.004-.197.004v26.42 100.671z" fill="#72bbff" data-original="#72bbff" style="" class=""/><path d="m213.142 319.74c0-13.336-10.811-24.147-24.147-24.147h-28.621c1.439-3.093 2.266-6.528 2.266-10.164 0-13.336-10.811-24.147-24.147-24.147h-44.282c.966 30.355 10.21 58.62 25.563 82.604h69.221c13.336 0 24.147-10.81 24.147-24.146z" fill="#ffd300" data-original="#ffd300" style="" class=""/><path d="m159.958 153.594c0-8.313-4.203-15.643-10.598-19.987-14.165 12.508-26.146 27.431-35.288 44.133h21.739c13.336 0 24.147-10.811 24.147-24.146z" fill="#ffd300" data-original="#ffd300" style="" class=""/><g fill="#72bbff"><path d="m257.348 419.231h-.002z" fill="#72bbff" data-original="#72bbff" style="" class=""/><path d="m257.348 92.769c-.005 0-.01 0-.015 0z" fill="#72bbff" data-original="#72bbff" style="" class=""/></g></g><g><path d="m345.72 289.4c-2.829 0-5.802 1.587-8.336 3.472-5.913 4.398-9.465 11.44-8.832 18.782.037.435.087.872.148 1.311 1.685 12.013 12.308 20.758 24.439 20.758h47.783c12.536-23.109 19.657-49.584 19.657-77.723s-7.121-54.613-19.657-77.723h-97.336c-13.049 0-24.136 10.138-24.649 23.178-.201 5.117 1.2 9.888 3.733 13.871z" fill="#ffb600" data-original="#ffb600" style="" class=""/></g><path d="m359.042 302.638-31.368-113.842-101.724 59.967 41.666 16.866c-13.921 37.875-58.183 58.102-96.641 47.578-11.09-2.834-21.846-7.969-31.382-15.139-9.54-7.159-17.851-16.345-24.161-26.993-6.323-10.639-10.616-22.741-12.437-35.464-1.851-12.713-1.071-25.986 2.219-38.882-5.531 12.087-8.87 25.468-9.351 39.232-.514 13.746 1.682 27.846 6.645 41.184 4.944 13.341 12.622 25.902 22.583 36.682 9.949 10.786 22.192 19.79 35.957 26.154 57.331 27.042 127.868 1.474 158.113-53.488z" fill="#ff641a" data-original="#ff641a" style="" class=""/><g><path d="m327.673 188.796-70.522 41.573v31.025l10.463 4.235c-2.545 6.923-6.112 13.249-10.463 18.913v56.83c25.713-10.592 48.113-29.63 62.007-54.879l39.884 16.145z" fill="#ef3800" data-original="#ef3800" style="" class=""/></g><g><g><path d="m257.212 386.077c-8.36 0-15.727 4.25-20.061 10.706-2.579 3.842-4.086 8.465-4.086 13.441 0 2.622.435 5.138 1.211 7.5 7.476 1.058 15.111 1.62 22.876 1.629l13.095-16.637z" fill="#ffd300" data-original="#ffd300" style="" class=""/></g><g fill="#ffb600"><path d="m257.348 419.355c.051 0 .102-.002.153-.002-.085 0-.172.001-.257.001.035 0 .069.001.104.001z" fill="#ffb600" data-original="#ffb600" style="" class=""/><path d="m257.151 419.354h.092c-.031 0-.062-.001-.092-.001z" fill="#ffb600" data-original="#ffb600" style="" class=""/><path d="m326.233 386.077h-69.021c-.021 0-.041.002-.061.002v33.274c.031 0 .062.001.092.001.085 0 .172 0 .257-.001 31.757-.029 61.384-9.138 86.445-24.86.1-.104.205-.201.305-.305-4.422-4.966-10.844-8.111-18.017-8.111z" fill="#ffb600" data-original="#ffb600" style="" class=""/></g></g><g><g><path d="m225.522 98.54c0 8.753 4.657 16.418 11.629 20.652 3.65 2.217 7.935 3.494 12.518 3.494h7.679l10.612-13.286-10.636-16.627c-10.827.002-21.405 1.068-31.643 3.082-.102.88-.159 1.775-.159 2.685z" fill="#ffd300" data-original="#ffd300" style="" class=""/></g><g><path d="m283.441 122.686c-.626 2.147-.978 4.412-.978 6.761 0 13.336 10.811 24.146 24.147 24.146h49.021c8.181 0 15.398-4.079 19.766-10.303-29.722-31.127-71.621-50.518-118.049-50.518-.066 0-.131.002-.197.002v29.911h26.29z" fill="#ffb600" data-original="#ffb600" style="" class=""/></g></g></g></g></g></svg>
