<?xml version="1.0"?>
<svg xmlns="http://www.w3.org/2000/svg" xmlns:xlink="http://www.w3.org/1999/xlink" xmlns:svgjs="http://svgjs.com/svgjs" version="1.1" width="512" height="512" x="0" y="0" viewBox="0 0 512 512" style="enable-background:new 0 0 512 512" xml:space="preserve" class=""><g><g xmlns="http://www.w3.org/2000/svg"><circle cx="256" cy="256" fill="#f1f1f1" r="256" data-original="#7584f2" style="" class=""/><path d="m301.294 508.005c88.712-15.838 161.585-77.378 193.426-159.392l-162.066-162.066-20.63 5.783-84.912-17.197-22.854-22.855-24.607 24.607-47.548-47.548-48.679 53.657 16.041 16.041-24.018 24.018 143.338 143.338-3.892 6.419 23.089 23.089-33.546 15.247z" fill="#f1f1f1" data-original="#4253ce" style="" class=""/><g><path d="m320.495 248.734h-21.609v10.456h12.895v19.517c-52.918-1.516-96.981 41.102-96.89 94.102h20.911l42.346 5.228 42.346-5.228 15.95-52.559z" fill="#f8e884" data-original="#f8e884" style="" class=""/><path d="m320.495 248.734h21.609v10.456h-12.895v19.517h2.788c51.971 0 94.102 42.131 94.102 94.102h-20.912l-42.346 5.228-42.346-5.228z" fill="#f5db48" data-original="#f5db48" style="" class=""/><path d="m320.495 392.434-40.214-4.963-44.478 4.963h-31.367v20h116.059l4.264-10z" fill="#f8e884" data-original="#f8e884" style="" class=""/><path d="m320.495 392.434 42.345-4.963 42.346 4.963h31.367v20h-116.058z" fill="#f5db48" data-original="#f5db48" style="" class=""/><path d="m320.495 372.809h-84.692v19.625h84.692l4.264-9.813z" fill="#20254d" data-original="#20254d" style=""/><path d="m320.495 372.809h84.692v19.625h-84.692z" fill="#141835" data-original="#141835" style=""/></g><g><path d="m101.895 161.953 26.448 40.622h12.259c7.53 23.018 23.152 38.844 41.215 38.844 1.147-.157 2.383-.244 3.677-.288l18.861-71.431-18.861-48.4c-18.809 0-38.388 0-57.151 0z" fill="#f4d7b2" data-original="#f4d7b2" style=""/><path d="m246.486 206.461c0-3.526-.351-6.925-.99-10.134l65.05 48.89c11.031 8.291 24.397 1.422 29.853-15.342 5.456-16.765.936-37.076-10.096-45.367l-83.817-62.995v-.211c-17.484 0-38.7 0-60.993 0v119.83c21.281-.728 60.69 11.64 60.993-34.671z" fill="#edb998" data-original="#edb998" style=""/><path d="m75.447 100.853h52.896v122.2h-52.896z" fill="#1dd882" data-original="#1dd882" style=""/></g></g></g></svg>
