<?xml version="1.0" encoding="utf-8"?>
<svg version="1.1" id="Layer_1" xmlns="http://www.w3.org/2000/svg" xmlns:xlink="http://www.w3.org/1999/xlink" x="0px" y="0px"
	width="100px" height="100px" viewBox="0 0 1118.8 1118.8" style="enable-background:new 0 0 1118.8 1118.8;" xml:space="preserve">
<g>
	<path style="fill:#006BB6;" d="M559.3,0L559.3,0c309,0,559.5,250.5,559.5,559.4l0,0c0,309-250.5,559.4-559.4,559.4l0,0
		C250.4,1118.8,0,868.3,0,559.4l0,0C-0.1,250.5,250.4,0,559.3,0z"/>
	<path style="fill:#FEFEEF;" d="M221,464.8v27.7h0.7c9.3-21.3,26.6-31.3,49.9-31.3c23.7,0,38.7,9.9,49.2,31.3
		c9.3-21.3,30.2-31.3,52.3-31.3c15.8,0,33.2,5.8,44,18.5c12.1,14.3,9.4,34.7,9.4,52.7v112.2h-52.1v-95.2c0-7,0.7-24.8-1.1-31.4
		c-2.8-11.4-11.4-14.5-22.2-14.5c-9.3,0-18.9,5.2-22.7,13.8c-4,8.6-3.5,22.7-3.5,32.1v95.2h-52.1v-95.2c0-18.7,3.5-46.4-23.3-46.4
		c-27.2,0-26.2,26.8-26.2,46.4v95.2h-51.9V464.8H221z M503.8,569.1c0,9.9,0.3,21.1,5.9,30.2c5.1,7.7,12.3,12.3,22,12.3
		c29.5,0,29.5-37.6,29.5-57c0-20.3,0-57.8-28.6-57.8c-25.1,0-28.6,27.2-28.6,46.4v25.9L503.8,569.1L503.8,569.1z M451.1,401.5h52.1
		v85.7h1.3c8.8-17.8,23.7-26.2,44-26.2c51.5,0,66.8,51,66.8,93.5c0,47.1-18.7,93.5-73,93.5c-25.8,0-38.2-9.7-51.2-31.3
		c-6.4,7.7-8.6,18-11.7,27.7h-28.3L451.1,401.5L451.1,401.5L451.1,401.5z M632.2,464.8h49.2v30.6h0.7c10.7-23.1,25.5-34.1,51.7-34.1
		c16.9,0,33.7,5.2,44.2,19.8c9.9,13.4,9.9,36.1,9.9,52.3v111.2h-52.1v-96.5c0-18.5,2.7-45.3-23.7-45.3c-9.3,0-17.6,5.2-22,13.4
		c-5.2,10.3-5.9,20.7-5.9,31.9v96.6h-51.9L632.2,464.8L632.2,464.8z M917.5,558.6c-19.8,2.2-56.3,6.6-56.3,33
		c0,14.1,8.6,23.7,23.1,23.7c10.6,0,20.3-5.8,26.2-14.9c7.5-11.4,7-22,7-34.7L917.5,558.6L917.5,558.6z M922.5,644.5
		c-2.2-9.3-2.8-18.7-2.4-27.9c-14.9,21.3-30.6,31.4-57.4,31.4c-31.9,0-56.7-16.9-56.7-51c0-26.6,16.8-44.7,40.5-53.4
		c20.4-7.7,49.2-9.3,71.2-11.3v-4.4c0-7.7,0.7-16.9-4.6-23.7c-4.6-6.2-13.4-8.6-21.3-8.6c-16.8,0-31.3,8.6-31.3,26.2l-49.2-4.6
		c5.2-43.6,47.8-56.3,85.7-56.3c18.5,0,42.4,4.2,57,16.2c18.5,14.9,16.8,34.7,16.8,56.3v84c0,9.3,0.7,18,3.5,26.8h-51.7v0.3H922.5z"
		/>
</g>
</svg>
