<?xml version="1.0" encoding="utf-8"?>
<svg version="1.1" id="Layer_1" xmlns="http://www.w3.org/2000/svg" xmlns:xlink="http://www.w3.org/1999/xlink" x="0px" y="0px"
	 viewBox="0 0 1205 1279.9" style="enable-background:new 0 0 1205 1279.9;" xml:space="preserve">
<g>
	<g>
		<path style="fill:#9D8649;" d="M133.5,1142.2v50.4h71.9v-50.4h26.8v133.5h-26.8v-55.6h-71.9v55.6h-26.8v-132.7h26.8V1142.2z"/>
		<path style="fill:#9D8649;" d="M279.4,1209.2c0-37.1,29.3-70.8,82.1-70.8s82.1,33.1,82.1,70.8s-29.8,70.7-82.1,70.7
			S279.4,1246.4,279.4,1209.2z M416.7,1209.2c0-23.4-22.1-44.1-55.6-44.1s-55.6,21.2-55.6,44.1s22.1,44,55.6,44s55.9-21.1,55.9-44
			H416.7z"/>
		<path style="fill:#9D8649;" d="M596.1,1142.2v26.7h-49.3v106.8H520v-106.4h-49.3v-26.2h125.5V1142.2z"/>
		<path style="fill:#9D8649;" d="M765.3,1142.2v26.7h-91.8v24.1h48.4v26.7h-48.4v28.8h94.8v26.7H646.7v-133.1H765.3z"/>
		<path style="fill:#9D8649;" d="M854.2,1142.2v106.3h76.9v26.7H827.4v-133.1H854.2z"/>
		<path style="fill:#9D8649;" d="M975.8,1232.4c20.4,13.5,44.4,20.6,68.9,20.4c13.6,0,36.2-3.4,36.2-18.5c0-10.6-12-13.5-20-14
			l-40-1.2c-32.7-0.9-48.9-19.9-48.9-40.3c0-20.4,14.8-40.7,62.5-40.7c22.8,0.1,45.1,6.1,64.9,17.4l-12.3,23.7
			c-17.4-9.4-36.8-14.4-56.6-14.5c-14,0-31.9,3-31.9,14.8c0,10.2,14.8,12.8,23.8,12.8l34.9,1.2c30.6,0.8,50.2,14,50.2,42
			c0,23.7-18.5,43.7-63,43.7c-36.2,0-62.5-9.3-81.2-23.4L975.8,1232.4z"/>
		<path style="fill:#9D8649;" d="M160.7,762.9c-13.8-1.6-27.7-2.5-41.6-2.5c-38.3,0-71.4,11.8-92.7,33.5c-17,16.9-26.5,40-26.3,64
			c-0.2,24.3,9.5,47.7,26.7,64.9c25,23,58,35.2,91.9,33.9c24.7-0.3,49.2-4.1,72.7-11.5c0.7,0,1.3-0.6,1.3-1.3l3.8-41.5
			c0,0,0-1.2-0.8-1.2c-0.3-0.4-0.8-0.4-1.2-0.1c0,0-0.1,0.1-0.1,0.1C177,918.8,153,928.3,128.3,927c-21.6,1.2-42.8-6.4-58.6-21.1
			c-13.1-13.4-20.2-31.5-19.6-50.3c-0.8-19.6,7.1-38.6,21.7-51.7c15.9-13.5,36.2-20.6,57-19.9c26.3,0,45.4,7.6,58.2,22.9
			c0,0,0.8,0.8,1.3,0c0.5-0.8,0.8-0.8,0.8-1.2v-47.5c0,0,0-0.8-0.8-1.3c-0.4-0.2-0.9-0.2-1.3,0c-2.1,4.1-6.6,6.5-11.2,6
			c-2.3,0.2-4.6,0.2-6.9,0H160.7z"/>
		<path style="fill:#9D8649;" d="M373.3,920.5c8,11.7,17.3,22.4,27.8,31.8c0,0,0,0,0.8,0h60c0.8,0,1.2,0,1.2-0.8s0-1.2-0.8-1.2
			c-14.9-4.6-27.8-14.2-36.5-27.2l-21.7-26.7c-1.6-2.1-3.3-4.1-5.1-5.9c-6-7.6-12.7-14.5-20-20.8c43.4-9.3,48.5-36.1,48.5-56.4
			c0.4-11.8-4.2-23.2-12.7-31.3c-12.3-12.3-32.7-18.5-59.5-18.5h-98c0,0-1.2,0-1.2,0.8c0,0.8,0,1.3,0.8,1.3
			c17.8,5.5,19.9,8.4,19.9,25.8v133.1c0,17-2.1,19.9-19.6,25.9c0,0-0.8,0.8-0.8,1.2c0,0.7,0.6,1.3,1.3,1.3h78.3
			c0.8,0,0.8-0.5,1.2-1.3c0.4-0.8,0-1.2-0.8-1.2c-17.4-5.6-19.6-8.1-19.6-25.9v-51.7h11.5c12,8,22.7,17.8,31.5,29.2L373.3,920.5z
			 M315.9,790.7h28.9c13.4-0.9,26.7,3.3,37.1,11.9c4.4,4.2,6.8,10.1,6.8,16.1c0.3,5.6-1.6,11.1-5.5,15.2
			c-6.9,6.9-19.2,10.2-38.3,10.2h-29V790.7z"/>
		<path style="fill:#9D8649;" d="M593.6,758.2c-28.1-1-55.4,8.7-76.6,27.2c-19.7,18.2-30.5,44-29.8,70.7c0,26.5,10.4,51.8,28.9,70.7
			c43.5,40.8,111.2,40.8,154.7,0c18.8-18.7,29.2-44.2,28.9-70.7c0.7-25.5-9.2-50.2-27.3-68.2C651.3,767.8,622.8,757.1,593.6,758.2z
			 M656.5,857.8c0.4,18.6-5.9,36.6-17.8,50.9c-11.6,12.8-28.2,20.1-45.5,19.9c-15.3,0.1-30.1-6-40.8-17
			c-14-14.5-21.6-34.1-20.9-54.2c-0.6-19.1,6.6-37.6,20-51.3c11.6-11.5,27.4-17.9,43.8-17.8c15.7-0.5,31,5.3,42.5,16
			C650.5,819.2,657.2,838.2,656.5,857.8L656.5,857.8z"/>
		<path style="fill:#9D8649;" d="M1143.7,762.9c-0.8,0-1.3,0-1.3,0.8c0.1,0.6,0.4,1.2,0.9,1.7c12.7,4.3,14.5,7.2,14.5,26.7v66.2
			l-83.4-95.4h-56.6c0,0-1.2,0.5-1.2,0.8c0,0.4,0,1.3,0.8,1.3c15.7,6.8,19.9,13.5,19.9,34.3V924c0,17.4-1.7,20.4-15.7,25.9
			c-0.9,0-0.9,0.8-0.9,1.3s0.9,0.8,1.3,0.8h63.3c0.7,0,1.3-0.6,1.3-1.3c0,0,0-1.3-0.8-1.3c-14-5.5-15.8-8.4-15.8-25.9V818
			l117.8,138.6c0.4,0.2,0.8,0.2,1.2,0c0.5-0.3,0.8-0.8,0.8-1.3V792.1c0-19.8,1.3-22.4,14.1-27.1c0,0,1.3-0.5,0.8-1.3
			c-0.5-0.8-0.8-0.8-1.3-0.8H1143.7z"/>
		<path style="fill:#9D8649;" d="M928.6,774.7c0.5-0.8,0.8-1.6,0.8-2.5c0-2.1-0.8-3.8-5.1-6.4c0,0,0,0,0-1.2c0-1.2,0-0.8,1.2-0.8
			h50.2c0.5,0,1.3,0,1.3,0.8c0,0.7-0.3,1.3-0.8,1.7c-6.7,1.6-12.3,6.3-14.9,12.7l-67.6,177.7c0,0,0,0.8-1.2,0.8s-0.9,0-1.3,0
			l-40.8-94.1c-4.7,11.9-38.3,94.1-38.3,94.1s0,0.8-1.3,0.8c-0.6-0.1-1.2-0.4-1.7-0.8L734.3,779c-3-7.2-5.6-9.3-14.5-12.8
			c-0.4-0.1-0.7-0.4-0.6-0.8c0-0.1,0.1-0.3,0.2-0.4c0-0.4,0.4-0.8,0.8-0.8H781c0.5,0,0.8,0,0.8,0.8c0.2,0.5,0.2,1.1,0,1.7
			c-4.3,2.1-5.6,3.8-5.1,5.9c0.5,2.1,37.8,94.9,37.8,94.9l18.5-46.4L815.2,778c-3.6-5.3-8.8-9.4-14.8-11.5c-0.6-0.3-0.8-1.1-0.5-1.6
			c0,0,0,0,0,0c0-0.8,0.5-0.8,1.3-0.8H845c0,0,0.9,0.5,1.3,0.8l8.1,20.8l8.5-20.8c0.5,0,0.8-0.8,1.3-0.8h37.1c0,0,1.2,0.5,1.2,0.8
			c0,0.7-0.3,1.3-0.8,1.7c-7.3,1.8-13.5,6.4-17.4,12.8l-12.3,32.2l23,57.7L928.6,774.7z"/>
		<path style="fill:#9D8649;" d="M476.2,470.8c12.8,0,23.2-10.4,23.2-23.2c0-12.8-10.4-23.2-23.2-23.2
			c-12.6-0.1-22.9,10.1-22.9,22.7c0,0.2,0,0.4,0,0.6C453.4,460.4,463.6,470.7,476.2,470.8z"/>
		<path style="fill:#9D8649;" d="M483,389.9c-0.3-13.4-11.3-24.1-24.7-24.2c-13.4,0-24.3,11-24.2,24.4c0,0.1,0,0.2,0,0.3
			c0.5,13.5,11.6,24.2,25.1,24.1c13.3-0.2,23.9-11.2,23.7-24.5C483,390,483,389.9,483,389.9z"/>
		<path style="fill:#9D8649;" d="M425.6,496.7c12.2-0.1,22.1-9.9,22.2-22.1c0.1-12.2-9.8-22.2-22.1-22.3
			c-12.2-0.1-22.2,9.8-22.3,22.1C403.4,486.7,413.3,496.6,425.6,496.7C425.5,496.7,425.6,496.7,425.6,496.7z"/>
		<path style="fill:#9D8649;" d="M403.1,446.7c12.9,0.1,23.4-10.3,23.6-23.2c0.1-12.9-10.3-23.4-23.2-23.6
			c-12.9-0.1-23.4,10.3-23.6,23.2c0,0.1,0,0.1,0,0.2C379.8,436.2,390.2,446.7,403.1,446.7C403.1,446.7,403.1,446.7,403.1,446.7z"/>
		<path style="fill:#9D8649;" d="M400.6,362.3c-0.1-13.6-11.1-24.6-24.7-24.6c-13.4,0.8-23.7,12.4-22.8,25.8
			c0.8,12.3,10.6,22.1,22.8,22.8C389.3,386.4,400.2,375.7,400.6,362.3z"/>
		<path style="fill:#9D8649;" d="M353.7,409.4c0.1-13.6-10.9-24.7-24.6-24.8c-13.6-0.1-24.7,10.9-24.8,24.6
			c-0.1,13.6,10.9,24.7,24.6,24.8c0,0,0.1,0,0.1,0C342.7,433.9,353.7,422.9,353.7,409.4z"/>
		<path style="fill:#9D8649;" d="M334.6,314c14.7-0.1,26.7-12,26.6-26.8c-0.1-14.7-12-26.7-26.8-26.6c-14.7,0.1-26.6,12-26.6,26.7
			C307.8,302.1,319.8,314,334.6,314C334.6,314,334.6,314,334.6,314z"/>
		<path style="fill:#9D8649;" d="M282.3,320.8c-14.7,0.1-26.7,12-26.6,26.8c0.1,14.7,12,26.7,26.8,26.6c14.7-0.1,26.6-12,26.6-26.7
			c0.1-14.7-11.8-26.7-26.5-26.7C282.5,320.8,282.4,320.8,282.3,320.8z"/>
		<path style="fill:#9D8649;" d="M374.6,235.6c0,15.6,12.7,28.3,28.3,28.3c15.6,0,28.2-12.7,28.3-28.3c0-15.4-12.4-27.8-27.8-27.8
			c-0.2,0-0.4,0-0.7,0c-15.4-0.2-27.9,12.2-28.1,27.5C374.6,235.4,374.6,235.5,374.6,235.6z"/>
		<path style="fill:#9D8649;" d="M215.6,262.8c-15.7-0.1-28.4,12.6-28.5,28.3c0,0,0,0.1,0,0.1c0,15.7,12.8,28.5,28.5,28.5
			c15.7,0,28.4-12.7,28.5-28.5C243.9,275.5,231.2,262.9,215.6,262.8z"/>
		<path style="fill:#9D8649;" d="M487.2,219.1c16.4-0.4,29.4-13.9,29-30.3c-0.4-16.4-13.9-29.4-30.3-29l0,0
			c-16.4,0.4-29.4,13.9-29,30.3C457.3,206.5,470.9,219.5,487.2,219.1z"/>
		<path style="fill:#9D8649;" d="M594,129.3c-17.9-1.9-34,11.1-35.9,29c-1.9,17.9,11.1,34,29,35.9c2.3,0.2,4.6,0.2,6.9,0
			c17.9,1.9,34-11.1,35.9-29c1.9-17.9-11.1-34-29-35.9C598.6,129,596.3,129,594,129.3z"/>
		<path style="fill:#9D8649;" d="M593.6,234.4c-16.4,0.1-29.6,13.4-29.6,29.8c0.1,16.4,13.4,29.6,29.8,29.6
			c16.4-0.1,29.6-13.3,29.6-29.7C623.3,247.7,610,234.4,593.6,234.4z"/>
		<path style="fill:#9D8649;" d="M593.6,316.5c-15.6,0-28.2,12.6-28.2,28.2c0,15.6,12.6,28.2,28.2,28.2c15.4,0,27.8-12.4,27.8-27.8
			c0-0.2,0-0.4,0-0.6c0.1-15.4-12.3-27.9-27.6-28C593.7,316.5,593.7,316.5,593.6,316.5z"/>
		<path style="fill:#9D8649;" d="M494.9,363.2c0.2,14,11.7,25.2,25.8,25c0.2,0,0.4,0,0.6,0c14.3-0.3,25.7-12,25.5-26.3
			c-0.1-13.9-11.6-25.1-25.5-25c-0.2,0-0.3,0-0.5,0c-14.3,0.1-25.9,11.7-25.9,26.1C494.9,363.1,494.9,363.1,494.9,363.2z"/>
		<path style="fill:#9D8649;" d="M411.1,320.8c0.3,14.1,11.8,25.4,26,25.4c13.8,0.3,25.2-10.7,25.5-24.6c0-0.4,0-0.9,0-1.3
			c-0.9-14.2-13.1-25-27.3-24.2c-13,0.8-23.4,11.2-24.2,24.2V320.8z"/>
		<path style="fill:#9D8649;" d="M480,287.3c0.4,14.9,12.9,26.7,27.8,26.3c14.9-0.4,26.7-12.9,26.3-27.8
			c-0.4-14.9-12.9-26.7-27.8-26.3c-14.9,0.4-26.7,12.7-26.3,27.6C480,287.2,480,287.3,480,287.3z"/>
		<path style="fill:#9D8649;" d="M506.3,426.8c0.5,13.5,11.6,24.2,25.1,24.1c13.4-1,23.5-12.7,22.5-26.2
			c-0.9-12.3-10.9-22-23.3-22.5C517.2,402.4,506.3,413.3,506.3,426.8z"/>
		<path style="fill:#9D8649;" d="M514.9,484c0.1,13.5,11.1,24.4,24.6,24.4c13.5-0.1,24.4-11.1,24.4-24.6
			c-0.1-13.5-11.1-24.4-24.6-24.4c-0.2,0-0.4,0-0.5,0c-13.3,0.2-24,11.1-23.8,24.4C514.9,483.9,514.9,483.9,514.9,484z"/>
		<path style="fill:#9D8649;" d="M593.6,386.5c-14.7,0-26.7,12-26.7,26.7c0,14.7,12,26.7,26.7,26.7s26.7-12,26.7-26.7
			C620.3,398.4,608.3,386.5,593.6,386.5z"/>
		<path style="fill:#9D8649;" d="M593.6,450.9c-14.1,0-25.5,11.4-25.5,25.5c0,14.1,11.4,25.5,25.5,25.5c14.1,0,25.5-11.4,25.5-25.5
			c0,0,0-0.1,0-0.1c0.3-13.7-10.6-25.1-24.3-25.4C594.4,450.9,594,450.9,593.6,450.9z"/>
		<path style="fill:#9D8649;" d="M352.5,178.8c17-0.5,30.6-14.4,30.6-31.4c-0.1-16.9-13.9-30.6-30.9-30.5c-0.2,0-0.4,0-0.7,0
			c-17.1,0.3-30.8,14.3-30.5,31.4S335.4,179,352.5,178.8z"/>
		<path style="fill:#9D8649;" d="M711.7,424.7c-12.8-0.2-23.4,10.1-23.7,22.9c-0.1,12.7,10.2,23.1,22.9,23.3
			c12.8,0,23.3-10.1,23.8-22.9c0.2-12.6-9.9-23.1-22.5-23.3C712,424.7,711.9,424.7,711.7,424.7z"/>
		<path style="fill:#9D8649;" d="M753.4,390.7c0.2-13.4-10.6-24.4-24-24.6c-0.1,0-0.2,0-0.3,0c-13.5-0.1-24.7,10.7-25,24.2
			c-0.2,13.4,10.5,24.4,23.8,24.6c0.1,0,0.2,0,0.4,0C741.9,415.1,753.1,404.3,753.4,390.7z"/>
		<path style="fill:#9D8649;" d="M761.5,496.7c12.2-0.1,22-9.9,22.1-22.1c0.1-12.2-9.8-22.2-22.1-22.3c-12.2-0.1-22.2,9.8-22.3,22.1
			c-0.1,12.2,9.8,22.2,22.1,22.3C761.4,496.7,761.4,496.7,761.5,496.7z"/>
		<path style="fill:#9D8649;" d="M807.4,423.4c-1.6-12.8-13.3-21.9-26.1-20.2c-10.6,1.3-18.9,9.7-20.2,20.2
			c0.1,12.9,10.5,23.3,23.4,23.4c12.7,0,23-10.3,23-23C807.4,423.6,807.4,423.5,807.4,423.4z"/>
		<path style="fill:#9D8649;" d="M827,438.4c-13.2-0.4-24.2,10-24.6,23.2c-0.2,7.6,3.2,14.9,9.3,19.6c-2.3-0.9-4.8-1.3-7.2-1.3
			c-12.8-0.1-23.2,10.1-23.4,22.9c0,6,2.3,11.8,6.4,16.1c-0.9,0-1.8,0-2.6,0c-11.9,0-21.7,9.5-22.1,21.4c0.1,3.2,0.9,6.4,2.5,9.3
			c-5.8,2.3-10.4,6.9-12.7,12.7c0.7-2.1,1-4.2,0.8-6.4c0-6.1-2.5-11.9-6.9-16c9.9-1.9,17.1-10.6,17.1-20.8
			c0.2-12.2-9.6-22.3-21.8-22.5c-12.2-0.2-22.3,9.6-22.5,21.8c-0.1,5.5,1.9,10.9,5.6,15c-8.1,1.7-14.7,7.5-17.4,15.3
			c0.2-1.8,0.2-3.7,0-5.6c-0.1-7.9-4.3-15.3-11-19.5c12.7-0.7,22.5-11.5,21.8-24.3S706.7,477,694,477.7c-12.3,0.6-22,10.9-21.9,23.2
			c0.2,7.8,4.1,15.1,10.7,19.5c-9.3,0.4-17.5,6.2-20.9,14.8v-1.7c0.1-13-10.4-23.6-23.4-23.7c0,0,0,0,0,0
			c-11-0.1-20.5,7.7-22.5,18.5l0,0c-1.6-12.8-13.3-21.9-26.1-20.2c-10.6,1.3-18.9,9.7-20.2,20.2c0,0,0,1.3,0,1.7
			c-3.2-12.6-16-20.2-28.6-17.1c-10.1,2.5-17.3,11.4-17.8,21.8c0,0,0,1.2,0,1.7c-3.3-8.9-11.8-14.9-21.3-14.8
			c6.7-4.2,10.9-11.5,11-19.5c-0.4-12.9-10.9-23.1-23.7-23.4c-12.8-0.3-23.4,9.9-23.6,22.7c-0.3,12.8,9.9,23.4,22.7,23.6
			c-6.8,4.2-10.9,11.5-11,19.5c0.1,2.1,0.3,4.2,0.8,6.3c-2.5-8.5-9.8-14.8-18.5-16c3.6-4,5.7-9.1,5.9-14.5
			c-0.1-12.1-9.9-21.9-22.1-22c-12.1-0.1-22,9.6-22.1,21.7c0,0.1,0,0.2,0,0.3c0.4,10.2,7.5,18.9,17.4,21.2
			c-4.1,4.4-6.4,10.1-6.4,16.1c-0.1,2.1,0.2,4.3,0.8,6.3c-2.2-5.9-6.9-10.5-12.8-12.7c1.6-2.9,2.5-6,2.6-9.3
			c-0.1-12.2-10-22-22.2-22c-0.8,0-1.2,0-2,0c4-4.4,6.3-10.1,6.3-16c0-12.6-10.2-22.9-22.9-22.9c-0.2,0-0.3,0-0.5,0
			c-2.5,0-4.9,0.4-7.2,1.2c5.8-4.4,9.3-11.2,9.3-18.5c0.1-13.4-10.7-24.4-24.1-24.5c-13.4-0.1-24.4,10.7-24.5,24.1
			c-0.1,13.4,10.7,24.4,24.1,24.5c0.1,0,0.2,0,0.3,0c2.8-0.1,5.5-0.7,8.1-1.7c-5.7,4.1-9.2,10.7-9.3,17.8
			c0.2,12.9,10.6,23.3,23.5,23.4c1.2,0,2.1,0,3.3,0c-3.6,4.1-5.7,9.3-5.9,14.8c0.1,8.7,5.2,16.4,13.2,19.9c-1.9,3.4-2.9,7.2-3,11
			c0,7.4,3.6,14.4,9.8,18.5c-3,8.8-0.7,18.5,5.9,24.9c-1.5,2.9-2.4,6-2.6,9.3c-0.4,1.4-0.4,2.9,0,4.3v0.8
			c2.1,11.7,12.8,20,24.7,19.1c12.3-0.8,21.9-11,22.1-23.4c8.2,10.2,23,11.9,33.2,3.7c5.4-4.3,8.6-10.8,8.9-17.7
			c4.2,7.3,12,11.8,20.4,11.9c9.5,0.1,18.1-5.6,21.7-14.4c6.8,10.7,21.1,13.8,31.8,7c3.5-2.2,6.3-5.4,8.2-9.1
			c4.2,7.1,11.8,11.4,20,11.4c8.2,0,15.8-4.3,19.9-11.4c3.8,8,12,13,20.9,12.7c7.8,0.2,15.1-3.9,19.1-10.6
			c3.6,8.6,12,14.3,21.3,14.4c8.2,0.1,15.9-4.2,19.9-11.4c0.7,13,11.8,23.1,24.8,22.4c6.8-0.3,13.1-3.6,17.3-8.9
			c0.2,12.4,9.8,22.5,22.2,23.4c8,0.5,15.8-3.2,20.4-9.8c3-4.2,4.6-9.2,4.6-14.4c-0.2-3.2-1-6.4-2.5-9.3c4.7-4.5,7.4-10.8,7.2-17.3
			c0-2.6-0.5-5.2-1.3-7.6c9.6-6.6,12.6-19.5,6.8-29.7c7.7-3.7,12.7-11.4,12.8-19.9c-0.3-5.5-2.4-10.7-5.9-14.8c0.8,0,2.1,0,3,0
			c12.6,0,22.9-10.2,22.9-22.9c0-0.2,0-0.3,0-0.5c-0.1-7.1-3.5-13.7-9.3-17.8c2.6,1,5.3,1.6,8.1,1.7c13.3-0.1,24.1-10.8,24.3-24.1
			C850,450.6,840,439.7,827,438.4z"/>
		<path style="fill:#9D8649;" d="M835.9,362.3c0-13.4-10.8-24.4-24.2-24.6c-13.5-0.1-24.5,10.7-24.6,24.2
			c-0.1,13.5,10.7,24.5,24.2,24.6C824.8,386.7,835.8,375.8,835.9,362.3z"/>
		<path style="fill:#9D8649;" d="M858.4,384.8c-13.6,0-24.6,11-24.6,24.6s11,24.6,24.6,24.6c13.6,0,24.6-11,24.6-24.6
			S872,384.8,858.4,384.8z"/>
		<path style="fill:#9D8649;" d="M825.7,286.9c-0.2,15,11.7,27.2,26.7,27.4c15,0.2,27.2-11.7,27.4-26.7c0.2-15-11.7-27.2-26.7-27.4
			c-0.1,0-0.2,0-0.4,0C837.9,260.1,825.8,272,825.7,286.9C825.7,286.9,825.7,286.9,825.7,286.9z"/>
		<path style="fill:#9D8649;" d="M905.2,320.8c-14.7,0.1-26.7,12-26.6,26.8c0.1,14.7,12,26.7,26.8,26.6c14.7-0.1,26.6-12,26.6-26.7
			c0.1-14.7-11.8-26.7-26.5-26.7C905.4,320.8,905.3,320.8,905.2,320.8z"/>
		<path style="fill:#9D8649;" d="M784.4,263.6c15.4-0.4,27.5-13.1,27.2-28.5s-13.1-27.5-28.5-27.2c-14.9,0.4-26.9,12.4-27.2,27.2
			C756.1,250.9,768.8,263.5,784.4,263.6z"/>
		<path style="fill:#9D8649;" d="M972,262.8c-15.7-0.1-28.5,12.7-28.6,28.4c0,0,0,0,0,0c0.9,15.7,14.4,27.8,30.1,26.9
			c14.5-0.8,26.1-12.4,26.9-26.9C1000.3,275.5,987.6,262.9,972,262.8z"/>
		<path style="fill:#9D8649;" d="M700.3,219.1c16.4,0.4,30-12.5,30.4-28.9c0.4-16.4-12.5-30-28.9-30.4c-16.4-0.4-30,12.5-30.4,28.9
			c0,0.1,0,0.2,0,0.3c-0.4,16.3,12.5,29.8,28.8,30.1C700.2,219.1,700.3,219.1,700.3,219.1z"/>
		<path style="fill:#9D8649;" d="M666.3,388.2c14.2,0.3,25.9-10.9,26.2-25.1s-10.9-25.9-25.1-26.2c-14.1-0.3-25.9,10.9-26.2,25
			c-0.4,14.2,10.8,26,25,26.3C666.2,388.2,666.3,388.2,666.3,388.2z"/>
		<path style="fill:#9D8649;" d="M750.8,346.2c14.2,0,25.8-11.2,26.3-25.4c0-14.3-11.6-26-26-26s-26,11.6-26,26
			c-0.1,13.9,11.1,25.3,25,25.4C750.4,346.2,750.6,346.2,750.8,346.2z"/>
		<path style="fill:#9D8649;" d="M679.8,313.6c14.8,0.3,27.1-11.5,27.4-26.3c0.3-14.8-11.5-27.1-26.3-27.4
			c-14.7-0.3-26.9,11.3-27.4,26c-0.9,14.5,10.2,26.9,24.6,27.8C678.7,313.6,679.3,313.6,679.8,313.6z"/>
		<path style="fill:#9D8649;" d="M656.1,450.9c13.5,0.2,24.7-10.6,25-24.1c0.4-13.2-9.9-24.1-23.1-24.6c-0.3,0-0.5,0-0.8,0
			c-13.4-0.3-24.6,10.3-25,23.7c-0.4,13.4,10.1,24.5,23.4,24.9C655.8,450.9,656,450.9,656.1,450.9z"/>
		<path style="fill:#9D8649;" d="M647.6,508.1c13.3,0.5,24.5-9.9,25-23.2c0-0.2,0-0.4,0-0.6c0.4-13.2-9.9-24.1-23.1-24.6
			c-0.2,0-0.4,0-0.7,0c-13.3-0.6-24.5,9.8-25.1,23.1c0,0.2,0,0.4,0,0.7C623.7,496.8,634.3,507.8,647.6,508.1z"/>
		<path style="fill:#9D8649;" d="M835,178.8c17.2,0.2,31.3-13.5,31.6-30.7s-13.5-31.3-30.7-31.6l0,0c-17-0.3-31.1,13.3-31.4,30.3
			c0,0.1,0,0.1,0,0.2C804.2,164.2,817.8,178.4,835,178.8z"/>
		<path style="fill:#9D8649;" d="M593.6,71.6c19.8,0,35.8-16,35.8-35.8c0-19.8-16-35.8-35.8-35.8c-19.8,0-35.8,16-35.8,35.8
			c0,0.1,0,0.1,0,0.2C558,55.6,573.9,71.5,593.6,71.6z"/>
	</g>
</g>
</svg>
