<svg xmlns="http://www.w3.org/2000/svg" width="380.3" height="66.7"><g fill="#58595b"><path d="M60.8 48h-.1v-.1c-.1-.1-.6-.2-.8-.3-.1-.2-.1-.1-.2-.2-.2-.1-.2-.2-.4-.4s-.7-.2-1-.2h-.4c-.3-.1-.6 0-.9 0s-.6-.1-.8-.1c-.4 0-.7.4-.7.8 0 .3.1.6.1 1v.5c0 .2.1.4.1.7v.7c0 .3.1.5.1.7.1.8 0 1.6.1 2.3 0 .4.1.7.1 1.1s0 .8.1 1.2c0 .3.2.6.2 1 0 .5 0 1 .1 1.5v.8.3c0 .1.1.3.3.3.1 0 .2-.1.3-.1.5-.1 1 0 1.4-.2.4-.1.9-.5 1.3-.7.6-.4 1.2-.8 1.7-1.4.2-.2.4-.4.5-.6s.2-.5.4-.7c.1-.2.3-.4.4-.6.2-.3.1-.8.2-1.1 0-.1.1-.3.1-.4s-.1-.2-.1-.3 0-.1.1-.2c.1-.3.1-.6.1-.9 0-.4-.2-.5-.3-.9-.1-.1-.1-.3-.1-.5l-.3-.8c0-.2 0-.3-.1-.5s-.3-.4-.5-.6c-.4-.5-.3-.5-.9-.8l-.1-.3zm3.7 7.1c-.1.3-.4.6-.6.8 0 .1-.1.1-.2.2v.2l-.1.1v.1h0-.1v.1c0 .1-.4.3-.5.4-.2.3-.3.7-.6.9a2.73 2.73 0 0 0-1.2.9c-.3 0-.6.3-.8.4-.3.2-.7.4-1.1.5l-.6.3c-.2.1-.4.1-.5.1-.2.1-.3.2-.5.2s-.4-.1-.6-.1-.5.1-.7.2h-.6c-.3 0-1-.1-1-.5 0-.2.1-.3.1-.5 0-.3-.5-.6-.5-1 0-.1.1-.3.1-.4 0-.6-.3-1.3-.3-1.9 0-.2.1-.3.1-.5 0-.4 0-.7-.1-1 0-.4-.1-.7-.1-1.1v-.9c0-.4-.1-.8-.1-1.2v-.7c0-.3-.1-.6-.1-.9V49c0-.4-.2-.7-.3-1.1v-.8c0-.2-.1-.5-.1-.7s.1-.8.4-.8c.1-.1.2-.1.3-.1.3 0 .6.1.8.1h.7H57c.3 0 .6 0 .9.1.2 0 .4.1.6.1h.3c.2 0 .2.1.4.1.4.1.8.2 1.2.4s.9.4 1.3.7c0 0 .1 0 .2.1v.1c.2.1.4.1.6.2s.3.3.4.4h.2c.2.1.6.7.7.9.1.1.2.2.2.4.3.4.5 1 .7 1.5.2.6.3.8.3 1.5v.4c0 .4-.2.8-.3 1.1 0 .2 0 .7-.1.9l-.1.1c.1 0 .1.3 0 .5m7.4-1.5l-.2-.2c-.2-.2-.3-.6-.6-.7-.1-.1-1.3-.3-1.4-.3s-.5.2-.6.3-.2.1-.3.1c-.6.3-.7.6-.7 1.3 0 .5.2.8.5 1.2.2.2.7.7.9.8.4.1.9.1 1.3.1.3-.2.7-.5.8-.8l.1-.1c.1-.1.1-.2.1-.3.1-.3.2-.3.2-.8.1-.1 0-.3-.1-.6m.5 3.1c-.1.1-.2.3-.4.4l-.6.3-.6.3h-.5-.6c-.2 0-.4-.1-.6-.2-.6 0-1.1-.2-1.5-.6l-.2-.2c-.1 0-.1-.1-.2-.1-.6-.5-.8-1-.8-1.7s.4-1.3.7-1.9c0-.1 0-.1.1-.2s.2-.1.3-.2c.1-.2.2-.4.4-.5.1-.1.1-.1.2-.1.1-.1.2-.3.3-.3.4-.2 1.1-.2 1.5-.2.9 0 2.1.3 2.5 1.1.1.1.1.3.3.4s.4.2.5.4v.1c.2.4.2.8.2 1.2.1.8-.3 1.4-1 2m7.5-2.6c0-.2.1-.3.1-.5 0-.4-.5-.7-.8-1-.1-.1 0-.1-.1-.1 0 0 0-.1-.1-.1l-.5-.1c-.1 0-.4-.2-.4-.2v.1c-.2 0-.3 0-.5.1-.1 0-.1.1-.2.1-.1.1-.2.1-.3.1-.5.3-.9.8-.9 1.4 0 .3.1.7.2 1v.3c0 .4.8 1.9 1.3 1.9.2 0 .4-.1.6-.1.1 0 .3.1.4.1.2 0 .4-.2.6-.3.1-.1.5-.2.6-.3.1-.2.2-1 .2-1.2 0-.4-.2-.8-.2-1.2m2.2 7.3c0 .4 0 .8-.1 1.2-.1.3-.3.4-.5.7-.1.2-.1.3-.2.5-.1.3-.3.5-.4.8-.2.3-.3.7-.6.8-.1.2-.2.3-.3.5l-.6.3c-.2.1-.3.3-.5.4s-.5 0-.6.1c-.2 0-.4.1-.5.1-.2 0-.6-.2-.8-.3-.3-.1-.6 0-.8-.1s-.4-.3-.5-.4c-.5-.3-1.2-.7-1.2-1.4 0-.2.1-.3.2-.4.1 0 .2-.1.3-.1.4 0 .6.3.6.7.3.2.6.5.9.7.2.1.4.1.5.2.1 0 .4.2.5.2.2 0 .3 0 .5-.1.7-.2 1.4-1.1 1.6-1.7 0-.1.1-.2.1-.4.1-.2.3-.5.3-.7v-.3c0-.3.2-.6.2-1v-.5-.3-.2c0-.1.1-.3.1-.4v-.5c0-.3.1-.6.1-.9 0-.2 0-.4-.1-.5v-.1c0-.2 0-.3-.2-.4H80c-.4 0-.6.4-1 .5h-.5-.6c-.2 0-.4 0-.6-.1-.1 0-.1-.1-.2-.2-.2-.1-.8-.2-1.1-.3-.4-.2-.9-.8-1-1.1-.2-.5-.4-1.4-.4-1.9v-.4c0-.2.7-1.5.8-1.7s.4-.3.5-.4v-.1c.2-.1.3-.2.5-.3.5-.3 1.1-.4 1.7-.4.2 0 .3-.1.5-.1.4 0 .7.3 1.1.4.1 0 .2-.1.2-.3V51c0-.5 0-1.5.7-1.5h.4c.6.2.5 1.2.7 1.7 0 .3-.1.5-.1.8 0 .4.1.5.2.9v.5c0 .4.2.8.2 1.2 0 .2-.1.3-.1.5 0 .1.1.2.1.4.1.4 0 .8 0 1.2 0 .1 0 .3.1.4 0 .2-.1.4-.1.6s.1.4.1.7c0 .2-.1.4-.1.6 0 .3.1.6.1.8.3.6.1 1.1 0 1.6m20.1-9.3c-.1.1-.2.1-.2.1l-.3.3c-.2.1-.4.2-.5.3s-.3.1-.4.2c-.2.1-.3.3-.5.4-.3.2-.9.3-.9.7 0 .1.1.2.1.4 0 .1 0 .3.1.4.1.3.2.5.2.8 0 .6-.4.9-.7 1.3-.1.1-.1.2-.2.3-.2.3-.4.5-.6.8-.4.1-.7.4-1.1.6-.1 0-.2.1-.3.1s-.2.1-.2.2c-.1 0-.3 0-.4.1-.3-.1-.3-.1-.5-.1s-1.1-.1-1.3-.1l-.6-.3c-.3-.1-.5 0-.7-.2-.7-.5-.5-.5-1-1l-.1-.1c-.2-.3-.5-.4-.7-.6-.1-.1-.1-.3-.2-.5-.1-.1-.2-.2-.3-.4s-.1-.4-.1-.5a.76.76 0 0 0-.2-.4h0c0-.1.1-.3.1-.4s-.1-.3-.1-.4c0-.3.1-.6.2-.9 0-.3 0-.6.1-.8 0-.1.2-.2.2-.3.1-.1.1-.2.2-.4.3-.6 1.2-1.6 1.8-2 .3-.1.5-.3.8-.5.1-.1.3-.1.4-.3-.2-.5-.5-.8-.5-1.4v-.3c.1-.2.7-.8.8-1 .2-.3.9-.7 1.3-.7.2 0 .9.2 1 .3l.1.1h.1c.1 0 .1.1.1.2 0 0 .1 0 .2.1.1 0 .6.3.6.4.1.1.1.2.1.3.1.2.2.4.2.6 0 .4-.2.5-.6.5-.2 0-.3 0-.5-.1-.1-.2 0-.5-.1-.7-.1-.3-.7-.4-.9-.4-.4 0-1.1.2-1.2.6.1.6.2.8.6 1.2.2.2.6.5.9.6.1 0 .3 0 .4.1s.2.3.2.5c0 .3-.3.4-.6.4-.5 0-.6-.4-1.2-.4-.4 0-.7.2-1 .4-.2.1-.5.2-.7.3s-.4.4-.5.6c-.4.6-.7 1.1-.7 1.9 0 .4.1.7.1 1 0 .2-.1.4-.1.5s.1.2.1.3v.2c0 .3.2.7.4.9.2.3.9 1.1 1.3 1.4.2.2.4.5.7.6.1 0 .3.1.4.1.6 0 1.3-.2 1.8-.5.3-.2.6-.6.8-.9.1-.2.3-.3.5-.5.1-.1.1-.2.1-.3.1-.2.2-.1.2-.4s-.1-.6-.3-.8c-.4-.5-.5-.6-.9-.6h-.2c-.8 0-1.5.4-2.3.5-.1.1-.2.2-.4.2-.3 0-.5-.3-.5-.6 0-.1.2-.5.2-.6.1-.2.6-.4.8-.5.1-.1.2-.1.3-.2.2-.1.4 0 .5-.1.5-.1.5-.3 1.2-.3.8 0 .8.4 1.3.4.2 0 1.6-.5 1.8-.6 0 0 0-.1.1-.1h.1c.1 0 .1-.1.2-.2.2-.1.4-.1.6-.3.2-.1.8-.8.8-1s-.2-.2-.2-.4h-.1c-.1 0-.1-.1-.1-.1-.1-.1-.6 0-.8-.4v-.1l-.1-.1v-.3-.4c.1-.1.3-.2.5-.2s.3.1.5.1c.1.1 1 1 1 1.2.1.1 0 .3.1.5 0 .1.1.3.1.4-.1.6-.5 1.2-.7 1.3m45.4-5.7c-.6 0-.6-.4-.7-.8-.1-.3-.6-.6-.8-.8l-.1-.1h-.1 0l-.1-.1c-.2-.1-.5-.2-.7-.2-.6 0-.4.4-.7.5-.7.3-.7.8-.8 1.5-.1.3 0 .7-.1 1 0 .4-.2.5-.2 1a4.53 4.53 0 0 0 .3 1.6c.1.1.3.1.4.1h.7.3c.3 0 .5-.2.8-.2s.9.4.9.6c0 .1-.1.2-.1.3-.3.3-.8.3-1.2.3-.1 0-.2-.1-.3-.1-.3 0-.5.1-.8.1h-.5c-.4 0-.4.5-.4.8 0 .5.1.8.1 1.2v.7c0 .7.1 1.4.2 2.1 0 .4.1.8.1 1.2 0 .2.1.4.1.6s-.1.7-.3.9c-.2.1-.4.1-.5.1s-.3.1-.5.1c-.3 0-.6-.6-.6-.9 0-.2.1-.4.1-.6 0-.5-.2-1.1-.2-1.7v-.5c0-.3-.1-.6-.1-1v-.8c0-.4-.2-.7-.2-1v-.4c0-.2-.1-.4-.1-.6-.1-.2 0-.4-.2-.5-.1 0-.1-.1-.2-.1-.2 0-.4.1-.7.2h-.4-.5c-.3 0-.6-.1-.6-.4 0-.4.4-.5.7-.5.4 0 .8.1 1.2.1.2 0 .4 0 .6-.2.1-.2.1-.5.1-.7v-.8c0-.4.6-2.8.8-3.2.1-.2.3-.3.5-.5 0-.1 0-.1.1-.2 0-.1.2-.2.3-.3.5-.5.5-.7 1.2-.9.2 0 .4-.1.6-.1.3 0 .3.1.5.2s.3.1.5.2c.1 0 .1.1.2.2.1 0 .2.1.3.1l.1.1c.1.1.2.1.3.2s.2.3.3.5c.2.3.5.6.5 1 .1.4 0 .6-.1.7m12.9 7.4c-.3-.6-1.3-.8-1.9-.8h-.5c-.3.1-.6.4-.6.7-.2.1-.3.3-.3.6 0 .5.4 1.6 1 1.8.2.1.4.1.6.1h.8c.5-.3.7-.8 1-1.3v-.2c-.1-.3-.1-.6-.1-.9h0zm1 1.6c-.1.3-.6.6-.8.9 0 .1 0 .2-.1.3-.1.2-.6.6-.8.6h-.2c-.2 0-.4.2-.6.2s-.3-.1-.5-.1c-.3 0-.5.2-.8.2-.4 0-.7-.3-.9-.6-.3-.1-.6-.3-.7-.5-.1-.1-.1-.3-.2-.4s-.2-.2-.2-.3v-.4c0-.1-.1-.2-.1-.4s.1-1.2.2-1.4l.3-.3c.1-.1.1-.2.2-.4s.3-.3.5-.4c.1-.1.3-.4.5-.4.2-.1.6-.1.8-.2.3-.1.6-.2.9-.2.2 0 .4 0 .6.1.2-.1.3-.1.5-.1s.3.1.5.1c.7.4.5.6.8.8v.1c0 .5.3.9.3 1.4l-.2 1.4m-8.4-1.9c-.2-.1-.2-.5-.4-.6-.3-.3-.9-.3-1.2-.7-.2-.2-.1-.6-.4-.8-.2 0-.4-.1-.5-.1-.8 0-1.6.8-1.8 1.4v.1c0 .4-.2.8-.2 1.2 0 .8.1 1.4.5 2.1a.76.76 0 0 1 .2.4c.1.1.5.2.6.3.2.1.5.3.8.3h.6c.1 0 .7-.4.7-.5s0-.1.1-.2c.2-.3.6-.4.7-.8.1-.3.2-.6.2-1 .1-.2.2-.4.2-.6.1-.1 0-.2-.1-.5m1.1 1.3c0 .2.1.4 0 .5v.1c-.1.2-.2.4-.3.5-.1.2-.3.2-.4.4s-.1.5-.2.8c-.2.4-1 .8-1.4 1.1h-.2c-.4 0-.7.2-1.1.2-.1 0-1.7-.2-1.7-.2a.78.78 0 0 1-.4-.4c-.1-.1-.3-.2-.5-.3-.9-.6-1.3-1.4-1.5-2.4 0-.2-.1-.3-.1-.5 0-.1.1-.2.1-.3.1-.3.1-.7.3-1 .1-.2.2-.3.3-.5s.3-.5.4-.7.6-.5.8-.6c.3-.3 1-.8 1.4-.9h.3.5c.7 0 1.5.3 2 .8l.2.2c.2.2.5.3.6.5.1.1.8 1.1.8 1.3v.5c0 .1.1.3.1.4.2.1 0 .3 0 .5m13.4-1.8c-.1-.3-.3-.4-.5-.6-.1-.1-.1-.2-.1-.2-.1-.1-.7-.3-.8-.3h-.1c-.4.1-1.1.2-1.3.5-.1.1-.1.2-.1.3-.1.3-.2.7-.2 1 0 .5.2.6.4 1 0 .1.1.2.1.3.1.2.5.7.8.8.2.1.4.1.6.1.8 0 1.2-.2 1.5-.9.1-.2.2-.4.2-.6-.2-.3-.3-1.1-.5-1.4m3-7.2c-.1.6 0 1.2-.1 1.8 0 .1-.1.2-.1.4v.3c0 .3-.1.6-.1.9 0 .7-.1 1.4-.2 2.1 0 .2-.1.4-.1.6v.3c0 .1-.1.2-.1.3-.1.3 0 .7-.1 1.1 0 .3-.2.7-.2 1s0 .6-.2.8c0 .4 0 .8-.1 1.2 0 .2-.1.3-.2.5-.1.5-.1 1.3-.3 1.7-.3.1-.6.2-.9.2-.2-.2-.5-.4-.5-.8 0-.3.2-.7.2-1 0-.1 0-.2-.1-.3h-.2c-.2 0-.4.1-.6.1h-1-.8a.76.76 0 0 1-.4-.2c-.1-.1-.3 0-.4-.1l-.3-.3c-.3-.2-.7-.4-.9-.7-.3-.4-.5-1.1-.5-1.6 0-.6.3-1 .6-1.5.1-.1.1-.3.2-.4.2-.3.8-.7 1.1-.9.1-.1.3-.1.4-.1s.2-.1.3-.2c.2 0 .9-.1 1.1-.1.3 0 .6.3.9.3h.3c.4.1.5.6.9.7.3-.3.3-.9.4-1.3l.3-3.1c.1-.4.3-.7.3-1.1 0-.1-.1-.2-.1-.3 0-.2.1-.4.2-.6.1-.5 0-1.8.7-1.8.4 0 .7.7.7 1 .1.4 0 .8-.1 1.1m11.3 9c-.3-.3-1.4-.5-1.8-.5s-.9.1-.9.6c0 .3.2.8.5 1s.7.2 1 .2c.2 0 .4.1.6.1.3 0 .7-.1.9-.3v-.1c0-.4-.1-.8-.3-1m2.6-2.1c0 .4-.2.7-.2 1.1v.6c0 .3-.1.5-.1.8-.1.1-.1.3-.2.4 0 .2 0 .4-.1.5 0 .1-.1.3-.1.4v.6c0 .3-.1.5-.2.7 0 .2 0 .9-.1 1.1-.1.3-.5.9-.9.9s-.9-.4-.9-.8c0-.3.1-.5.1-.7v-.2c.1-.3.2-.3.2-.7 0-.1 0-.2-.1-.3-.1 0-.2-.1-.3-.1-.3 0-.7.2-1 .2h-.8-.5-.2c-.3-.1-1.4-1-1.4-1.3v-.3c0-.3.2-.6.4-.9l.3-.6c.1-.1.2-.1.3-.2s.1-.2.2-.2c.4-.3 1-.4 1.5-.4h.5c.3.1.5.2.8.4.1 0 .4.1.5.1l.1.1c.1 0 .2 0 .3.1.2-.2.1-.5.1-.8 0-.4.1-.8.1-1.2 0-.5-.4-1.7-1-1.8h-.1c-.5 0-.8.5-1.4.5-.4.4-.7.7-1.2.9-.1 0-.2.2-.4.2 0 0-.1 0-.1-.1-.1-.1-.1-.2-.1-.3 0-.6.6-.8.8-1.2.1 0 .2-.1.3-.2l.1-.1c.2-.1.4-.1.5-.2.1 0 .1-.1.2-.2.3-.2.9-.3 1.3-.3.2 0 .8 0 1 .1.1 0 .1.1.2.1.4.2.6.3.9.6.5.6.7 1.6.7 2.4v.3"/><path d="M190.7 51.4c-.5 0-.2-.9-1.4-.9-.8 0-.9.3-.9 1 0 .6.2.9.4 1.4.1.2.1.4.2.6.1.3.3.5.4.8.1.2.1.5.2.7.1.3.3.6.4.9 0 .1 0 .2.1.4 0 .1.1.2.2.3v.6c0 .6-.1 1.1-.4 1.6-.1.1-.2.3-.3.4s-.3.2-.4.3c-.2.1-.4.3-.6.5h-.2c-.2 0-.4.1-.6.2h-.9a1.08 1.08 0 0 1-.7-.3l-.1-.1h-.1c-.1-.1-.2-.4-.3-.5l-.4-.4v-.3c0-.2.1-.5.4-.5.2 0 .3.1.4.2s.1.2.1.3c.2.3.7.9 1.1.9.2 0 .5-.2.7-.3.5-.3.4-1 .5-1.5 0-.1.1-.3.1-.4h0c0-.1-.4-1.2-.5-1.2 0 0-.1 0-.1-.1-.2-.4-.1-1-.3-1.3s-.3-.6-.5-.9c-.3-.5-.6-.9-.6-1.5 0-.7.5-1.5 1-1.9l.1-.1.9-.5c.2 0 .4-.1.6-.1.7 0 1.6.7 1.6 1.4.2 0 .1.3-.1.3m17.3 6.7c-.2.3-.3.6-.8.6-.4 0-1-.2-1.2-.5-.1-.2-.1-.3-.1-.5 0-.5.1-1 .1-1.4 0-.3-.1-.7-.1-.9V55v-.9c-.1-.4-.4-.7-.4-1.1v-.4c0-.3-.1-.1-.1-.5 0-.2-.2-.6-.3-.8s-.1-.5-.4-.6h-.1c-.9 0-1.3.6-1.9 1.2-.2.2-.3.4-.5.7s-.3.2-.5.7c-.1.2-.1.5-.2.7-.1.1-.2.2-.2.4-.1.1-.1.3-.1.4-.1.4-.1.8-.1 1.3 0 .2-.1.5-.1.7 0 .4.2.8.2 1.3s-.4 1.1-1 1.1c-.3 0-.6-.2-.7-.5-.1-.2 0-.4 0-.6 0-.3-.2-.6-.2-.7s.1-.3.1-.4c0-.2-.2-.4-.2-.6v-.5c0-.2-.1-.5-.2-.7-.2-.9-.3-2.3-.3-3.2 0-.4 0-1.2.6-1.2.4 0 .6.3.8.5.1.5.1 1.2.4 1.7.7 0 .8-.7 1-1.1.1-.2.3-.3.4-.5s.2-.4.3-.5l.9-.8c.2-.1.4-.1.5-.2.2-.1.4-.4.6-.4.1 0 .1.1.2.1.2 0 .4-.1.6-.1.4 0 .7.4 1.1.6 0 0 .1 0 .1.1 0 0 .1.2.1.3.1.2.3.4.4.6s.1.5.2.8c.4 1.1.7 2.1.7 3.3 0 .2-.1.5-.1.7 0 .6.2 1.2.2 1.8.3.2.3.3.3.4m5-3.3c-.3-.3-1.4-.5-1.8-.5s-.9.1-.9.6c0 .3.2.8.5 1s.7.2 1 .2c.2 0 .4.1.6.1.3 0 .7-.1.9-.3v-.1c.1-.4 0-.8-.3-1m2.7-2.1c0 .4-.2.7-.2 1.1v.6c0 .3-.1.5-.1.8-.1.1-.1.3-.2.4 0 .2 0 .4-.1.5 0 .1-.1.3-.1.4v.6c0 .3-.1.5-.2.7 0 .2 0 .9-.1 1.1-.1.3-.5.9-.9.9s-.9-.4-.9-.8c0-.3.1-.5.1-.7v-.2c.1-.3.2-.3.2-.7 0-.1 0-.2-.1-.3-.1 0-.2-.1-.3-.1-.3 0-.7.2-1 .2h-.8-.5-.2c-.3-.1-1.4-1-1.4-1.3v-.3c0-.3.2-.6.3-.9.1-.2.2-.4.4-.6.1-.1.2-.1.3-.2s.1-.2.2-.2c.4-.3 1-.4 1.5-.4h.5c.3.1.5.2.8.4.1 0 .4.1.5.1l.1.1c.1 0 .2 0 .3.1.2-.2.1-.5.1-.8 0-.4.1-.8.1-1.2 0-.5-.4-1.7-1-1.8h-.1c-.5 0-.8.5-1.4.5-.4.4-.7.7-1.2.9-.1 0-.2.2-.3.2 0 0-.1 0-.1-.1-.1-.1-.1-.2-.1-.3 0-.6.6-.8.8-1.2.1 0 .2-.1.3-.2l.1-.1c.2-.1.4-.1.5-.2.1 0 .1-.1.2-.2.3-.2.9-.3 1.3-.3.2 0 .8 0 1 .1.1 0 .1.1.2.1.4.2.6.3.9.6.5.6.7 1.6.7 2.4-.1 0-.1.1-.1.3m6.8-1.8c-.2 0-.4-.1-.6-.1-.7 0-.8.1-1.2.6 0 .4.1.7.1 1.1 0 .3.1.6.2 1v1.7c0 .2.1.3.1.5v.5c0 .2 0 .3.1.5-.1.1-.1.3-.1.4 0 .3.1.5.1.7s.1 1 .1 1.2c0 .4-.6 1.1-1 1.1-.3 0-.6-.3-.8-.5a.76.76 0 0 1-.2-.4c-.1-.2-.1-1.8-.1-2.2 0-.3 0-.7-.1-1 0-.3-.1-.5-.1-.8v-.8c0-.6-.2-1.2-.2-1.7v-.4c0-.2-.1-.4-.1-.6s0-.4-.1-.6c-.1-.4-.3-.5-.7-.5-.1 0-.2-.1-.4-.1s-.4.1-.6.1-.5-.1-.7-.1-.3 0-.4-.2c.1-.9 2.2-.1 2.7-.7v-.2c0-.3-.1-.6-.1-1 0-.2.1-.3.1-.5s-.1-.3-.1-.4c-.1-.3 0-.7-.1-1.1 0-.3-.2-.6-.2-.9 0-.4.2-.8.6-.8.1 0 .3 0 .4.2h.1 0c.1.1.4.7.4.8.2.7.3 1.4.4 2.1 0 .2.1.3.1.5v.5c0 .3.4.8.7.8.2 0 .4-.1.6-.2h.4c.2 0 .3-.1.5-.1.3 0 .7.4.7.7.4.7-.2.9-.5.9m9.4 7.6h-.4c-.6 0-.9-.2-1-.8v-.4c0-.1-.1-.2-.1-.3v-.7c0-.3 0-.9-.2-1.1-.6.1-.5.7-.8 1-.2.2-.5.2-.7.4s-.2.4-.3.6c-.2.3-.6.6-.9.9l-.3.3c-.1.1-.3.1-.4.1-.1.1-.2.2-.4.2s-.3-.1-.5-.1h-.6c-.2 0-.5-.1-.6-.2 0 0 0-.1-.1-.2s-.2-.1-.2-.2c-.1-.1 0-.4-.1-.6 0-.1-.2-.3-.2-.4 0-.2-.1-.5-.1-.7 0-.6.2-1 .2-1.5v-.7c0-.2.1-.4.1-.6v-.4c.1-.4.1-.9.2-1.3 0-.4.2-1.3.8-1.3.8 0 .8.7.8 1.2 0 .4-.1.6-.1.9 0 .2.1.4.1.5 0 .2-.1.3-.1.5 0 .4 0 .9-.1 1.3v.2.6.8c0 .3.2.8.6.8.3 0 .7-.4.9-.6.3-.2.6-.4.8-.7.1-.1.2-.4.3-.5 0 0 .1 0 .2-.1a7.1 7.1 0 0 0 1-1.4c.1-.2.3-.4.5-.6v-.3c.1-.3.3-.6.3-.9v-.5c0-.3.4-.5.7-.5.8 0 1.2 1.3 1.2 1.9 0 .3-.1.6-.1 1 0 .7.2 1.4.2 2v.4c0 .3.2.6.2.9-.3.4-.5.9-.8 1.1m6.9-7c-.2 0-.4-.1-.6-.1-.5 0-1.1.8-1.3 1.3-.2.3-.5.7-.5 1.1 0 .2.1.3.1.5 0 .3-.2.5-.2.9s.2.8.2 1.2c0 .3 0 .6.1 1s.1.8.2 1.1c-.1.2-.7.6-.9.6s-.5-.2-.6-.2c-.3-.7-.3-1.5-.5-2.2 0-.1-.1-.2-.1-.3v-.2c0-.2-.1-.2-.1-.3v-.2c0-.2-.1-.4-.2-.6v-.6c0-.2-.2-.4-.2-.6-.1-.3 0-.6-.1-.9 0-.1-.1-.3-.1-.4s-.1-.2-.2-.3c0-.2-.1-1.1-.1-1.3v-.4c.2-.1.4-.2.6-.2s.5.2.6.3c.5.5.4 1.4.8 1.6.4 0 .6-.5.8-.7a1.38 1.38 0 0 1 .4-.3c.6-.5.9-1 1.8-1 .4 0 .9.4.9.8 0 .1-.4.4-.8.4m5.2.4h-.4c-.1 0-.3-.1-.5-.1-.3 0-.8.4-1 .6-.1.1-.1.2-.1.3s-.1.2-.1.3c0 .3.4.4.6.4.3 0 .6-.1.9-.1h.6c.2 0 .5 0 .6-.2 0-.4-.2-1-.6-1.2m1.3 5.9l-.3.3a6.11 6.11 0 0 1-1.3.3c-.2 0-.5-.1-.7-.2h-.3c-.3 0-.6-.1-.9-.1-.2 0-.6-.4-.7-.5s-.2-.1-.3-.2c-.2-.1-.4-.4-.6-.6-.5-.6-.6-1-.6-1.9 0-.3 0-.7.1-1l.7-1.4.1-.1v-.1c.1-.2 1-.8 1.2-1 .3-.3.7-.5 1.2-.5.1 0 1 .2 1.1.2.2.1 1.1 1 1.2 1.1s0 .3.1.4c.1.3.4.6.4.9 0 .2-.1.4-.1.6 0 .1-.4.3-.5.3s-.3-.1-.4-.1h-.4c-.6 0-1.1-.1-1.7-.1-.8 0-1.1 0-1.1.8 0 .3 0 .8.1 1.1s.5 1.1.8 1.2c.1.1.2 0 .3.1.1 0 .1.1.2.1h.4c.5 0 1.4-.3 1.7-.7l.1-.1v-.1c0-.2.7-.7.9-.7.3 0 .4.5.4.7.1.8-.7.9-1.1 1.3m10.3 1.1c-.3 0-.5-.2-.7-.3-.2-.3-.2-.8-.2-1.3 0-.1-.1-.2-.1-.4v-.4c0-.5-.1-1.1-.1-1.6v-.6c0-.3-.1-.5-.1-.8-.1-.6 0-1.2 0-1.8 0-.4 0-1.1.6-1.1a1.08 1.08 0 0 1 .7.3c.1.1.1.4.1.6s.1.3.1.5c.1.4.1.8.1 1.2 0 .2.1.4.1.6.1.3 0 .6.1.9.1.6.1 1.3.2 1.9v.2.1c0 .3.1.6.1 1s-.5 1-.9 1m-.7-10.9c-.1 0-.3.1-.4.1s-.6-.1-.6-.1 0-.1-.1-.1c-.2-.1-.4-.5-.4-.7 0-.4.5-.6.9-.6s.9.2 1.1.5c.1.1.2.2.2.4.2.3-.4.4-.7.5"/><path d="M267.4 58.1c-.2.3-.3.6-.8.6-.4 0-1-.2-1.2-.5-.1-.2-.1-.3-.1-.5 0-.5.1-1 .1-1.4 0-.3-.1-.7-.1-.9V55v-.9c-.1-.4-.4-.7-.4-1.1v-.4c0-.3-.1-.1-.1-.5 0-.2-.2-.6-.3-.8s-.1-.5-.4-.6h-.1c-.9 0-1.3.6-1.9 1.2-.2.2-.3.4-.5.7s-.3.2-.5.7c-.1.2-.1.5-.2.7-.1.1-.2.2-.2.4-.1.1-.1.3-.1.4-.1.4-.1.8-.1 1.3 0 .2-.1.5-.1.7 0 .4.2.8.2 1.3s-.4 1.1-1 1.1c-.3 0-.6-.2-.7-.5-.1-.2 0-.4 0-.6 0-.3-.2-.6-.2-.7s.1-.3.1-.4c0-.2-.2-.4-.2-.6v-.5c0-.2-.1-.5-.2-.7-.2-.9-.3-2.3-.3-3.2 0-.4 0-1.2.6-1.2.3 0 .6.3.8.5.1.5.1 1.2.4 1.7.7 0 .8-.7 1-1.1.1-.2.3-.3.4-.5s.2-.4.3-.5l.9-.8c.2-.1.4-.1.5-.2.2-.1.4-.4.6-.4.1 0 .1.1.2.1.2 0 .4-.1.6-.1.5 0 .7.4 1.1.6 0 0 .1 0 .1.1 0 0 .1.2.1.3.1.2.3.4.4.6s.1.5.2.8c.4 1.1.7 2.1.7 3.3 0 .2-.1.5-.1.7 0 .6.2 1.2.2 1.8.3.2.3.3.3.4m6.4-7.2c-.2 0-.4-.1-.6-.1-.7 0-.8.1-1.2.6 0 .4.1.7.1 1.1 0 .3.1.6.2 1v1.7c0 .2.1.3.1.5v.5c0 .2 0 .3.1.5-.1.1-.1.3-.1.4 0 .3.1.5.1.7s.1 1 .1 1.2c0 .4-.6 1.1-1 1.1-.3 0-.6-.3-.8-.5a.76.76 0 0 1-.2-.4c-.1-.2-.1-1.8-.1-2.2 0-.3 0-.7-.1-1 0-.3-.1-.5-.1-.8v-.8c0-.6-.2-1.2-.2-1.7v-.4c0-.2-.1-.4-.1-.6s0-.4-.1-.6c-.1-.4-.3-.5-.7-.5-.1 0-.2-.1-.4-.1s-.4.1-.6.1-.5-.1-.7-.1-.3 0-.4-.2c.1-.9 2.2-.1 2.7-.7v-.2c0-.3-.1-.6-.1-1 0-.2.1-.3.1-.5s-.1-.3-.1-.4c-.1-.3 0-.7-.1-1.1 0-.3-.2-.6-.2-.9 0-.4.2-.8.6-.8.1 0 .3 0 .4.2h.1 0c.1.1.4.7.4.8.2.7.3 1.4.4 2.1 0 .2.1.3.1.5v.5c0 .3.3.8.7.8.2 0 .4-.1.6-.2h.4c.2 0 .3-.1.5-.1.3 0 .7.4.7.7.4.7-.2.9-.5.9m5.3 1h-.4c-.1 0-.3-.1-.5-.1-.3 0-.8.4-1 .6-.1.1-.1.2-.1.3s-.1.2-.1.3c0 .3.4.4.6.4.3 0 .6-.1.9-.1h.6c.2 0 .5 0 .6-.2 0-.4-.1-1-.6-1.2m1.4 5.9l-.3.3a6.11 6.11 0 0 1-1.3.3c-.2 0-.5-.1-.7-.2h-.3c-.3 0-.6-.1-.9-.1-.2 0-.6-.4-.7-.5s-.2-.1-.3-.2c-.2-.1-.4-.4-.6-.6-.5-.6-.6-1-.6-1.9 0-.3 0-.7.1-1l.7-1.4.1-.1v-.1c.1-.2 1-.8 1.2-1 .4-.3.7-.5 1.2-.5.1 0 1 .2 1.1.2.2.1 1.2 1 1.2 1.1.1.1 0 .3.1.4.1.3.4.6.4.9 0 .2-.1.4-.1.6 0 .1-.3.3-.5.3-.1 0-.3-.1-.4-.1h-.4c-.6 0-1.1-.1-1.7-.1-.8 0-1.1 0-1.1.8 0 .3 0 .8.1 1.1s.5 1.1.8 1.2c.1.1.2 0 .3.1.1 0 .1.1.2.1h.4c.5 0 1.4-.3 1.7-.7l.1-.1v-.1c0-.2.7-.7.9-.7.3 0 .4.5.4.7 0 .8-.7.9-1.1 1.3m11.5.3c-.2.3-.3.6-.8.6-.4 0-1-.2-1.2-.5-.1-.2-.1-.3-.1-.5 0-.5.1-1 .1-1.4 0-.3-.1-.7-.1-.9V55v-.9c-.1-.4-.4-.7-.4-1.1v-.4c0-.3-.1-.1-.1-.5 0-.2-.2-.6-.3-.8s-.1-.5-.4-.6h-.1c-.9 0-1.3.6-1.8 1.2-.2.2-.4.4-.5.7-.2.3-.3.2-.5.7-.1.2-.1.5-.2.7-.1.1-.2.2-.2.4-.1.1-.1.3-.1.4-.1.4-.1.8-.1 1.3 0 .2-.1.5-.1.7 0 .4.2.8.2 1.3s-.4 1.1-1 1.1c-.3 0-.6-.2-.7-.5-.1-.2 0-.4 0-.6 0-.3-.2-.6-.2-.7s.1-.3.1-.4c0-.2-.2-.4-.2-.6v-.5c0-.2-.1-.5-.2-.7-.2-.9-.3-2.3-.3-3.2 0-.4 0-1.2.6-1.2.4 0 .6.3.8.5.1.5.1 1.2.4 1.7.7 0 .8-.7 1-1.1.1-.2.3-.3.4-.5s.2-.4.3-.5l.9-.8c.2-.1.4-.1.5-.2.2-.1.4-.4.6-.4.1 0 .1.1.2.1.2 0 .4-.1.6-.1.5 0 .7.4 1.1.6 0 0 .1 0 .1.1 0 0 .1.2.1.3.1.2.3.4.4.6s.1.5.2.8c.4 1.1.7 2.1.7 3.3 0 .2-.1.5-.1.7 0 .6.2 1.2.2 1.8.3.2.3.3.2.4m6.2-5.1c-.1-.3-.3-.4-.5-.6-.1-.1-.1-.2-.1-.2-.1-.1-.7-.3-.8-.3h-.1c-.4.1-1.1.2-1.3.5-.1.1-.1.2-.1.3-.1.3-.2.7-.2 1 0 .5.2.6.4 1 0 .1.1.2.1.3.1.2.5.7.8.8.2.1.4.1.6.1.8 0 1.2-.2 1.5-.9.1-.2.2-.4.2-.6-.2-.3-.4-1.1-.5-1.4m3-7.2c-.1.6 0 1.2-.1 1.8 0 .1-.1.2-.1.4v.3c0 .3-.1.6-.1.9 0 .7-.1 1.4-.2 2.1 0 .2-.1.4-.1.6v.3c0 .1-.1.2-.1.3-.1.3 0 .7-.1 1.1 0 .3-.2.7-.2 1s0 .6-.2.8c0 .4 0 .8-.1 1.2 0 .2-.1.3-.2.5-.1.5-.1 1.3-.3 1.7-.3.1-.6.2-.9.2-.2-.2-.5-.4-.5-.8 0-.3.2-.7.2-1 0-.1 0-.2-.1-.3h-.2c-.2 0-.4.1-.6.1h-1-.8a.76.76 0 0 1-.4-.2c-.1-.1-.3 0-.4-.1l-.3-.3c-.3-.2-.7-.4-.9-.7-.3-.4-.5-1.1-.5-1.6 0-.6.3-1 .6-1.5.1-.1.1-.3.2-.4.2-.3.8-.7 1.2-.9.1-.1.3-.1.4-.1s.2-.1.3-.2c.2 0 .9-.1 1.1-.1.3 0 .6.3.9.3h.3c.4.1.5.6.9.7.3-.3.3-.9.4-1.3l.3-3.1c.1-.4.3-.7.3-1.1 0-.1-.1-.2-.1-.3 0-.2.1-.4.2-.6.1-.5 0-1.8.7-1.8.4 0 .7.7.7 1-.1.4-.2.8-.2 1.1m5.2 6.1h-.4c-.1 0-.3-.1-.5-.1-.3 0-.8.4-1 .6-.1.1-.1.2-.1.3s-.1.2-.1.3c0 .3.4.4.6.4.3 0 .6-.1.9-.1h.6c.2 0 .5 0 .6-.2 0-.4-.2-1-.6-1.2m1.4 5.9l-.3.3a6.11 6.11 0 0 1-1.3.3c-.2 0-.5-.1-.7-.2h-.3c-.3 0-.6-.1-.9-.1-.2 0-.6-.4-.7-.5s-.2-.1-.3-.2c-.2-.1-.4-.4-.6-.6-.5-.6-.6-1-.6-1.9 0-.3 0-.7.1-1l.7-1.4.1-.1v-.1c.1-.2 1-.8 1.2-1 .4-.3.7-.5 1.2-.5.1 0 1 .2 1.1.2.2.1 1.1 1 1.2 1.1s0 .3.1.4c.1.3.4.6.4.9 0 .2-.1.4-.1.6 0 .1-.4.3-.5.3s-.3-.1-.4-.1h-.4c-.6 0-1.1-.1-1.7-.1-.8 0-1.1 0-1.1.8 0 .3 0 .8.1 1.1s.5 1.1.8 1.2c.1.1.2 0 .3.1.1 0 .1.1.2.1h.4c.5 0 1.4-.3 1.7-.7l.1-.1v-.1c0-.2.7-.7.9-.7.3 0 .4.5.4.7 0 .8-.7.9-1.1 1.3m6.9-4.8c-.1-.3-.3-.4-.5-.6-.1-.1-.1-.2-.1-.2-.1-.1-.7-.3-.8-.3h-.1c-.4.1-1.1.2-1.3.5-.1.1-.1.2-.1.3-.1.3-.2.7-.2 1 0 .5.2.6.4 1 0 .1.1.2.1.3.1.2.5.7.8.8.2.1.4.1.6.1.8 0 1.2-.2 1.5-.9.1-.2.2-.4.2-.6-.1-.3-.3-1.1-.5-1.4m3-7.2c-.1.6 0 1.2-.1 1.8 0 .1-.1.2-.1.4v.3c0 .3-.1.6-.1.9 0 .7-.1 1.4-.2 2.1 0 .2-.1.4-.1.6v.3c0 .1-.1.2-.1.3-.1.3 0 .7-.1 1.1 0 .3-.2.7-.2 1s0 .6-.2.8c0 .4 0 .8-.1 1.2 0 .2-.1.3-.2.5-.1.5-.1 1.3-.3 1.7-.3.1-.6.2-.9.2-.2-.2-.5-.4-.5-.8 0-.3.2-.7.2-1 0-.1 0-.2-.1-.3h-.2c-.2 0-.4.1-.6.1h-1-.8a.76.76 0 0 1-.4-.2c-.1-.1-.3 0-.4-.1l-.3-.3c-.3-.2-.7-.4-.9-.7-.3-.4-.5-1.1-.5-1.6 0-.6.3-1 .6-1.5.1-.1.1-.3.2-.4.2-.3.8-.7 1.2-.9.1-.1.3-.1.4-.1s.2-.1.3-.2c.2 0 .9-.1 1.1-.1.3 0 .6.3.9.3h.3c.4.1.5.6.9.7.3-.3.3-.9.4-1.3l.3-3.1c.1-.4.3-.7.3-1.1 0-.1-.1-.2-.1-.3 0-.2.1-.4.2-.6.1-.5 0-1.8.7-1.8.4 0 .7.7.7 1 0 .4-.1.8-.2 1.1M125.2 53c0 .4-.2.7-.2 1v.6c0 .3-.1.5-.1.8-.1.1-.1.2-.2.4 0 .2 0 .3-.1.5 0 .1-.1.3-.1.4v.6c0 .3-.1.5-.2.7 0 .2 0 .8-.1 1-.1.3-.5.9-.9.9s-.9-.4-.9-.8c0-.3.1-.5.1-.7v-.2c.1-.3.2-.3.2-.6 0-.1 0-.2-.1-.3-.1 0-.2-.1-.3-.1-.3 0-.6.2-1 .2h-.7-.5-.2c-.3-.1-1.3-1-1.4-1.2v-.3c0-.3.2-.6.3-.9l.3-.6c.1-.1.2-.1.3-.2s.1-.2.2-.2c.4-.3.9-.4 1.4-.4h.4l.8.3a2.27 2.27 0 0 1 .4.1l.1.1c.1 0 .2 0 .3.1.2-.2.1-.5.1-.8 0-.4.1-.8.1-1.2 0-.5-.4-1.7-.9-1.8h-.1c-.5 0-.7.4-1.3.4-.4.3-.6.7-1.1.9-.1 0-.2.2-.3.2 0 0-.1 0-.1-.1-.1-.1-.1-.2-.1-.3 0-.5.6-.8.8-1.1.1 0 .2-.1.3-.2l.1-.1c.2-.1.3-.1.5-.2.1 0 .1-.1.2-.2.3-.2.9-.3 1.2-.3.2 0 .7 0 1 .1.1 0 .1.1.2.1.4.2.6.3.8.6.5.6.7 1.5.7 2.3.1.2.1.4.1.5m-2.5 2.1c-.3-.3-1.3-.5-1.7-.5s-.9.1-.9.6c0 .3.2.7.5.9s.6.2 1 .2c.2 0 .3.1.5.1.3 0 .7-.1.9-.3V56c0-.4-.1-.7-.3-.9"/><path d="M131.6 51.3c-.2 0-.4-.1-.5-.1-.6 0-.8.1-1.1.6 0 .3.1.7.1 1s.1.6.2.9v1.6c0 .2.1.3.1.5v.5c0 .2 0 .3.1.4-.1.1-.1.3-.1.4 0 .3.1.5.1.7s.1 1 .1 1.2c0 .4-.5 1-.9 1-.3 0-.5-.3-.7-.5-.1-.1-.2-.3-.2-.3-.1-.2-.1-1.7-.1-2.1 0-.3 0-.6-.1-1 0-.3-.1-.4-.1-.8v-.8c0-.6-.2-1.1-.2-1.6v-.3c0-.2-.1-.4-.1-.6s0-.4-.1-.6c-.1-.4-.3-.4-.7-.5-.1 0-.2-.1-.3-.1-.2 0-.4.1-.6.1s-.4-.1-.7-.1c-.2 0-.3 0-.3-.2.1-.9 2.1-.1 2.5-.6v-.2c0-.3-.1-.6-.1-.9 0-.2.1-.3.1-.5s-.1-.3-.1-.4c-.1-.3 0-.7-.1-1 0-.3-.2-.6-.2-.8 0-.4.2-.8.6-.8.1 0 .3 0 .3.2h.1 0c.1.1.4.7.4.8.2.7.3 1.3.4 2 0 .2.1.3.1.5v.5c0 .3.3.8.6.8.2 0 .3-.1.5-.2h.4c.2 0 .3-.1.5-.1.3 0 .7.4.7.7.2.5-.3.7-.6.7m-20.8.9c0-.6.1-.8.3-1.4.2-.5.4-1 .7-1.4.1-.1.2-.2.2-.3.1-.2.5-.7.7-.9h.2c.1-.1.2-.3.4-.4s.4-.1.6-.2v-.1s.1 0 .2-.1c.4-.2.8-.5 1.2-.6.4-.2.8-.2 1.1-.3.1 0 .2-.1.3-.1h.3c.2 0 .4-.1.6-.1.3 0 .6-.1.9-.1h1.2.6c.3 0 .5-.1.8-.1.1 0 .2 0 .3.1.2.1.3.6.3.8s-.6.5-.6.7h-.9l-.6-.1h0a.55.55 0 0 0-.5-.3c-.3 0-.5.1-.8.1h-.8-.3c-.3 0-.7 0-.9.2-.1.1-.2.3-.4.3-.1.1-.1 0-.2.2-.2.1-.7.2-.8.3v.1h0-.1l-.1.1c-.6.3-.5.3-.9.8-.1.2-.4.4-.4.6-.1.1-.1.3-.1.4l-.3.8c-.1.2-.1.3-.1.4-.1.3-.3.4-.3.8 0 .3 0 .6.1.9 0 .1.1.1.1.2s-.1.2-.1.3.1.3.1.4c.1.3.1.8.2 1.1l.3.6c.2.2.2.5.4.7.1.2.3.4.5.6.5.6 1.1.9 1.6 1.4.3.2.8.6 1.2.7s.9 0 1.4.2c.1 0 .2.1.3.1.2 0 .3-.2.3-.3h.6l.8.3c0 .2.1.3.1.5 0 .3-.7.4-.9.4h-.6c-.2 0-.4-.2-.7-.2-.2 0-.4.1-.6.1s-.3-.1-.5-.2c-.2 0-.3 0-.5-.1l-.6-.3c-.3-.1-.7-.3-1-.4-.2-.1-.5-.4-.8-.4-.3-.4-.7-.6-1.1-.8-.2-.3-.3-.6-.5-.9-.1-.1-.5-.3-.5-.4v-.1h-.1 0v-.1l-.1-.1v-.2c0-.1-.1-.1-.2-.2-.2-.3-.5-.5-.6-.8-.1-.2-.1-.5-.2-.7l-.1-.1c-.1-.2-.1-.6-.1-.9-.1-.3-.3-.7-.3-1.1.2-.1.3-.2.3-.4z"/></g><g fill="#94a545"><path d="M11.8 7.5h-.1v23c0 1.3.8 2.2 2.2 2.2H18v4H0v-4h3.8c1.7 0 2.2-.9 2.2-2.2V6.7c0-1.4-.5-2-2.2-2H0v-4h16l15.8 25.9h.2V7.3c0-1.6-.9-2.6-2.8-2.6h-3.3v-4h17.7v4h-3.2c-2 0-2.7.8-2.7 1.9v30.1h-8L11.8 7.5zm57 19.8v1.6c0 6.1-2.4 8.6-7 8.6-2.7 0-5.1-1.1-5.5-4-2 3-5.5 4-8.9 4-4.2 0-7.6-2-7.6-6.9 0-10.6 16.3-5.4 16.3-13.1 0-3.5-2.9-4.1-5.8-4.1-1.5 0-4.1.5-5.1 1.8 2-.3 3.6.6 3.6 2.8 0 2.4-1.7 3.2-3.8 3.2-2.3 0-3.9-1.8-3.9-4 0-5.5 6.6-6.7 10.9-6.7 7.3 0 10.5 3.3 10.5 7.9v13.3c0 1.2.5 1.8 1.3 1.8s1.5-.8 1.5-4.1v-2.1h3.5zm-12.7-4l-5.8 2.6c-1.6.7-3.3 1.6-3.3 4.1 0 2.3 1 3.4 3.3 3.4 3.7 0 5.8-3.2 5.8-6.6v-3.5zm124.8 9.8h-2.6c-1.5 0-2.2-.6-2.2-2.2V.7h-11.3v3.6h2.7c1.5 0 2.2.6 2.2 2.2V31c0 1.6-1.7 2.2-3.2 2.2h-.5c.4-1.2.6-2.6.6-4.2v-1.6h-3.5v2.1c0 3.4-.7 4.1-1.5 4.1s-1.3-.6-1.3-1.8V18.3c0-4.6-3.2-7.9-10.5-7.9-4.3 0-10.9 1.2-10.9 6.7 0 2.2 1.6 4 3.9 4 2.1 0 3.8-.8 3.8-3.2 0-2.2-1.6-3.1-3.6-2.8 1-1.3 3.5-1.8 5.1-1.8 2.9 0 5.8.6 5.8 4.1 0 7.7-16.3 2.6-16.3 13.1 0 4.9 3.3 6.9 7.6 6.9 3.4 0 6.9-1 8.9-4 .4 2.9 2.8 4 5.5 4 1.5 0 2.7-.3 3.7-.8h17.6v-3.5zm-27-6.3c0 3.5-2.1 6.6-5.8 6.6-2.2 0-3.3-1.1-3.3-3.4 0-2.6 1.7-3.4 3.3-4.1l5.8-2.6v3.5zm87 6.2c-2.6 0-3.3-.6-3.3-2.2V19.2c0-5.9-2.9-8.8-7.7-8.8-4.2 0-7.2 2.2-9.5 5.5h-.1v-4.7h-11.7v3.6h1.8c2.8 0 3.5.6 3.5 2.9v13c0 1.6-.6 2.2-2.2 2.2h-5.1c-1.9 0-2.7-1.2-2.7-3V7.3c0-2.1 1.7-2.9 3.4-2.9h2.4V.7h-19.2v3.7h3c2.1 0 2.8 1.4 2.8 2.7v23.6c0 1.4-.9 2.2-3.1 2.2h-2.7v3.7h34.1V33h-2.1c-1.5 0-2.2-.6-2.2-2.2V21c0-3.5 3.5-6.2 6.1-6.2s4.8.9 4.8 4.9v11.2c0 1.6-.6 2.2-2.9 2.2H227v3.7h15.9V33h-2z"/><path d="M245.8 26.8c1.1 4.8 4.4 7.1 9.2 7.1 1.9 0 4.2-1 4.2-3.3 0-5.3-17.1-2.3-17.1-12 0-5.4 5.2-8.2 9.9-8.2 2.9 0 5.7 1.1 8 2.7l1.1-1.8h3v9.1h-3.5c-1.3-4-3.9-6-8-6-1.8 0-4.1.8-4.1 2.9 0 4.2 17.1 2.2 17.1 12.2 0 5.7-4.8 8-9.9 8-3.3 0-6.5-.5-9.1-2.8l-1.1 2h-3.6v-10h3.9zm45.1-17.9c2.1 0 3.9-1.7 3.9-3.9s-1.8-3.9-3.9-3.9S287 2.8 287 5c0 2.1 1.8 3.9 3.9 3.9"/><path d="M331.1 33.1c-2.6 0-3.3-.6-3.3-2.2V19.2c0-5.9-2.9-8.8-7.7-8.8-4.2 0-7.2 2.2-9.5 5.5h-.1v-4.7h-11.7v3.6h1.8c2.8 0 3.5.6 3.5 2.9V31c0 1.6-.6 2.2-2.2 2.2h-3-.1-1.8c-1.5 0-2.2-.6-2.2-2.2V11.3H282h-1.5-5.7V1.2h-3.4c-.5 5-1.9 10-7.5 10.1v3.6h4.6v16.6c0 4.4 2.9 6 7 6 4.3 0 7.4-2.5 7.4-8.2v-4.6h-3.6v4.8c0 2.2-.6 3.1-2.3 3.1-1.5 0-2.1-.7-2.1-1.8v-16h5.5 1.5 4.2c1.5 0 2.2.6 2.2 2.2v14c0 1.6-.7 2.2-2.2 2.2h-2.5v3.6h15.1.1 15.9v-3.6h-2.1c-1.5 0-2.2-.6-2.2-2.2V21c0-3.5 3.5-6.3 6.1-6.3s4.8.9 4.8 4.9V31c0 1.6-.7 2.2-2.9 2.2h-1.3v3.6H333v-3.6h-1.9z"/><path d="M354.6 26.3c-.5 7.3-4.3 11.3-11.7 11.3-8.4 0-12.8-4.8-12.8-13.6 0-8 6.4-13.5 13.4-13.5 6.3 0 11.2 3.4 11.2 8 0 2.4-1.6 4.5-3.9 4.5-1.9 0-4.2-1-4.2-3.3 0-2.2 1-3.4 3.2-3.5-1.2-1.6-3-2.1-5.2-2.1-5.7 0-7.2 5.3-7.2 9.5 0 4.1 1.4 9.5 7 9.5 3.3 0 5.6-2.8 5.9-6.7h4.3z"/><path d="M352.9 14.9v-3.4c5.5-.4 7-5.3 7.5-10.3h3.4v10.1h7.2v3.6h-7v16c0 1.1.6 1.8 2.1 1.8 1.7 0 2.3-.9 2.3-3.1v-4.8h3.6v4.6c0 5.7-3.2 8.2-7.4 8.2-4.1 0-7-1.7-7-6V14.9h-4.7zM141.2 4.7c-2.3-.6-10.1-1.6-13.4 4.7-.6 1.1-1.1 1.9-2.7 1.9h-9.4v3.6h3c1.5 0 2.2.6 2.2 2.2V31c0 1.6-.7 2.2-2.2 2.2h-4.1c-2.4 0-2.8-.6-2.8-2.2V11.3h-12v3.6h2.9c1.7 0 2.7.7 2.7 2.2v9.2c0 2.6-2.1 7-6.7 7-2.7 0-4.2-1.7-4.2-4v-18h-18V1.2h-3.4c-.5 5-1.9 9.9-7.5 10.3v3.4h4.6v16.6c0 4.4 2.9 6 7 6 4.3 0 7.5-2.5 7.5-8.2v-4.6h-3.6v4.8c0 2.2-.6 3.1-2.3 3.1-1.5 0-2.1-.7-2.1-1.8v-16h9.2c1.5 0 2.2.6 2.2 2.2v12.9c0 5.1 2.9 7.6 8 7.6 3.6 0 7-1.1 9.2-5.1h.1v4.3H133v-3.6h-3.4c-1.5 0-2.2-.6-2.2-2.2v-9.1-.8l.2-6s.1-3.4 3.6-5.7c2.2-1.5 5.2-1.7 7-1.6h0c-1.5.1-4.4 1.4-5.8 2.5-2 1.6-2.7 4-2.8 5.3 1.1.4 5.1 2.2 9.5-3.3 2.6-3.2 6-5.5 7.5-4.9-1.1-.6-2.3-1.8-5.4-2.6M375.9 0a4.56 4.56 0 0 1 2.2.6c.7.4 1.3.9 1.7 1.6s.6 1.4.6 2.2-.2 1.5-.6 2.2a4.1 4.1 0 0 1-1.6 1.6c-.7.4-1.4.6-2.2.6s-1.5-.2-2.2-.6a4.1 4.1 0 0 1-1.6-1.6c-.4-.7-.6-1.4-.6-2.2s.2-1.5.6-2.2.9-1.3 1.7-1.6c.5-.4 1.3-.6 2-.6zm0 .7c-.6 0-1.2.2-1.8.5s-1 .8-1.4 1.4-.5 1.2-.5 1.8.2 1.2.5 1.8.8 1 1.4 1.4c.6.3 1.2.5 1.8.5s1.2-.2 1.8-.5 1-.8 1.4-1.4c.3-.6.5-1.2.5-1.8s-.2-1.3-.5-1.8-.8-1-1.4-1.4c-.6-.3-1.2-.5-1.8-.5zM374 6.9V2.1h1.6c.6 0 1 0 1.2.1s.4.2.6.5c.1.2.2.5.2.7 0 .3-.1.7-.4.9-.2.3-.6.4-1 .4a1.38 1.38 0 0 1 .4.3c.2.2.4.5.7.9l.6.9h-.9l-.4-.8c-.3-.6-.6-1-.8-1.1-.1-.1-.3-.2-.6-.2h-.5v2h-.7zm.7-2.7h.9c.4 0 .7-.1.9-.2s.2-.3.2-.5c0-.1 0-.3-.1-.4s-.2-.2-.3-.2c-.1-.1-.4-.1-.8-.1h-.9v1.4z"/></g></svg>