<?xml version="1.0" encoding="utf-8"?>
<svg version="1.1" id="Layer_1" xmlns="http://www.w3.org/2000/svg" xmlns:xlink="http://www.w3.org/1999/xlink" x="0px" y="0px"
	 viewBox="0 0 934.68 158.21" style="enable-background:new 0 0 934.68 158.21;" xml:space="preserve">
<g id="XMLID_1_">
	<path id="XMLID_2_" style="fill:#373536;" d="M2.32,30.21C6.42,12.8,24.34,1.28,41.49,1.79C52.76,1.28,63,6.91,74.26,4.61
		c8.45,3.84,13.57,14.08,14.08,22.78c1.02,6.14-5.12,12.03-11.26,9.73c-7.42-4.1-12.54-11.78-20.22-15.87
		c-4.1-1.28-8.96-0.51-13.57-0.51c-1.02,3.33-3.33,6.66-2.3,9.73c4.61,6.14,12.54,6.91,19.2,8.96c10.75,3.33,22.02,8.96,27.65,19.2
		c6.91,14.85,0.51,34.05-13.57,42.5c-14.08,9.47-32.26,8.96-48.13,6.14c-6.14-1.28-12.54-2.82-17.66-6.66
		C0.53,91.65-1,79.62,0.53,68.35c1.79-0.51,5.12-1.79,6.66-2.82c6.14,5.12,9.47,13.06,14.85,18.69c6.91,5.12,16.9,7.42,25.34,4.1
		c4.61-1.28,5.12-8.96,1.02-10.75C38.93,71.94,27.41,70.66,18.45,64C6.93,57.34-0.49,43.78,2.32,30.21z"/>
	<path id="XMLID_3_" style="fill:#373536;" d="M87.32,17.66C85.52,5.89,99.09,3.58,107.54,2.82C118.8,2.3,133.14,0,141.08,9.47
		c2.3,6.91-4.61,10.24-8.96,14.08c-1.02,6.66-1.02,13.06-0.51,20.22c8.96,2.3,17.66,2.3,26.62,0c0-9.47,1.79-21.5-8.96-25.6
		c-0.51-3.33-1.79-8.45,1.79-10.24c10.75-6.66,24.83-5.12,36.86-4.1c6.91,0.51,12.54,4.1,15.36,10.75
		c-2.82,3.84-6.66,6.91-10.24,9.47c-3.33,20.48-1.28,41.22-1.79,61.7c-1.02,6.14,6.14,8.45,9.73,11.78
		c1.02,10.24-10.24,13.06-18.18,13.06c-11.78,0.51-25.34,1.79-35.07-5.63c0-2.82,0-5.63,0-8.45c11.26-6.66,9.73-20.22,9.73-31.23
		c-8.45-2.3-17.41-1.79-26.11,0.51c-0.51,6.14-1.02,11.78-0.51,17.66c-0.51,8.45,10.24,11.78,8.45,20.48
		c-11.78,8.96-27.65,7.42-41.22,6.14c-6.66-0.51-11.78-4.1-14.59-10.24c4.61-5.12,13.06-9.47,12.54-17.66
		c0.51-17.66,1.02-36.1-0.51-54.27C97.3,21.76,90.64,20.48,87.32,17.66z"/>
	<path id="XMLID_4_" style="fill:#373536;" d="M758.29,60.67c0.51-20.22-1.02-40.19,1.02-60.42c58.37,0.51,116.74,0,175.36,0
		c0,52.74,0,105.22,0,157.95c-58.37,0-116.74,0-175.36,0C757.27,125.7,758.55,93.44,758.29,60.67z"/>
	<path id="XMLID_5_" style="fill:#FFFFFF;" d="M762.9,4.61c55.55-0.51,111.36,0,166.91,0c0,49.92,0,99.58,0,149.5
		c-55.55-0.51-111.36,0.51-167.42-0.51C762.9,104.19,762.9,54.53,762.9,4.61z"/>
	<path id="XMLID_6_" style="fill:#ED3338;" d="M774.93,25.09c14.59-13.57,36.1-12.03,54.27-14.59c3.84,0,11.78-2.3,10.24,4.1
		c-1.02,4.1,2.3,12.03-3.33,13.06c-13.57,1.79-27.14,9.73-33.28,22.53c-6.14,11.26-1.28,25.6,7.94,33.28
		c11.26,9.47,26.11,11.78,38.4,19.2c4.61,1.79,2.3,6.66,2.82,10.24c-10.24,3.33-22.53,3.84-30.46-4.1
		c-7.42-5.63-10.24-18.18-21.5-17.41c-4.61,10.75-3.33,24.83,5.63,33.28c8.96,7.42,21.5,8.96,32.77,8.96
		c0.51,4.61,1.02,9.47,1.28,14.08c-24.83,1.79-54.78,0.51-70.66-21.5c-3.84-22.53-1.02-45.31-1.79-67.84
		C767.51,47.1,765.72,33.02,774.93,25.09z"/>
	<path id="XMLID_7_" style="fill:#ED3338;" d="M852.5,10.24c19.2,2.82,39.17,0.51,57.09,7.94c9.47,3.84,16.38,13.06,15.87,23.3
		c0,25.34,0,50.43,0,75.78c1.02,12.03-9.73,21.5-20.22,25.6c-16.9,6.66-35.07,4.1-52.74,4.1c0-4.61,0.51-9.47,0.51-14.08
		c13.06-1.02,27.14-6.14,35.58-16.9c8.45-9.73,9.73-25.6,1.79-36.35c-10.24-12.03-26.62-14.08-40.19-19.71
		c-4.1-2.3-9.73-6.66-6.66-12.03c4.61-3.33,11.26-4.61,16.38-1.28c8.96,4.61,14.85,13.06,24.32,17.41c2.82-2.3,6.14-5.12,8.96-7.42
		c1.28-11.78-5.12-21.5-13.06-28.93c-3.33,1.02-6.14,1.28-9.47,2.3c-5.63-1.02-11.78-1.79-17.41-2.3
		C852.5,21.76,852.5,15.87,852.5,10.24z"/>
	<path id="XMLID_8_" style="fill:#373536;" d="M390.42,12.03c-10.75-9.47-25.6-10.75-39.17-8.96c-15.36,2.3-31.23,0.51-47.1,1.79
		c-1.02,1.28-2.3,4.1-2.82,5.12c0.51,1.28,1.28,4.1,1.28,5.63c3.33,1.02,6.14,2.3,9.47,3.33c2.3,3.84,2.82,7.94,2.82,12.03
		c-0.51,18.18,0.51,36.35-0.51,54.78c0,5.12-6.14,6.91-9.73,9.73c0,2.82,0,5.12,0,7.94c11.26,6.66,24.32,5.63,36.86,5.12
		c5.63,0,11.26-2.82,16.38-5.12c0-2.82,0-5.12,0.51-7.94c-3.33-2.3-6.91-4.1-9.47-7.42c-1.28-6.66-1.02-13.06-1.02-19.71
		c12.54,0.51,26.62,1.79,37.38-5.63C402.96,53.76,405.78,25.6,390.42,12.03z M363.8,48.38c-3.84,5.12-10.24,4.1-15.36,3.84
		c-0.51-11.26-0.51-22.53,0-33.28c3.84,0.51,8.45-0.51,11.78,2.3C368.92,26.88,369.17,40.45,363.8,48.38z"/>
	<path id="XMLID_11_" style="fill:#373536;" d="M742.68,70.91c-11.26,0-11.26,14.08-19.71,18.18c-8.96,5.12-19.71,3.33-29.44,2.82
		c-3.84-9.73-4.1-20.48-1.02-30.46c2.3,0,6.91,0.51,9.47,0.51c2.3,5.63,4.61,11.26,7.42,16.9c1.28-1.02,4.61-2.82,6.14-3.84
		c5.63-14.08,5.63-29.95,0-44.03c-2.82,0-5.63-0.51-8.45-0.51c-1.79,5.63-3.33,11.78-5.63,16.9c-3.84-1.02-8.45,1.02-11.26-1.79
		c-2.3-7.94-2.3-17.66,1.02-25.34c7.42-3.33,16.38-2.3,24.32-0.51c7.94,1.28,9.47,14.08,18.18,13.06c1.79-1.28,3.84-2.82,5.12-4.61
		c2.3-9.73-0.51-22.02-9.47-28.16c-27.14,7.94-56.06-1.02-83.71,5.63c-2.3-1.28-5.12-2.82-7.42-3.84c-24.32,1.79-48.64,1.79-72.96,0
		c-4.61,0.51-7.42,5.63-10.24,8.96c-2.82-4.1-6.91-7.42-12.03-7.94c-14.85-1.79-30.98-1.79-44.8,4.1c-1.02,1.28-2.3,4.61-3.33,6.66
		c3.84,4.1,7.94,7.42,11.26,12.03c2.3,9.73,1.28,20.22,1.28,29.95c0,12.54,1.28,25.6-3.84,37.38c-1.28-0.51-4.1-1.02-5.63-1.02
		c-1.79-7.94-2.82-15.87-6.14-23.3c-2.82-7.42-10.75-10.24-16.9-14.08c6.14-6.14,14.08-11.26,14.85-20.48
		c1.79-9.73-1.79-20.48-10.75-25.6c-14.08-9.73-31.23-5.63-47.1-5.63c-13.06,1.02-27.65-3.84-38.91,4.1
		c0.51,1.79,1.02,5.63,1.02,7.42c4.61,2.82,9.47,6.14,9.47,12.03c1.28,17.41,0.51,35.07,0.51,52.74
		c0.51,7.42-5.12,12.54-10.75,16.38c1.02,2.82,0.51,6.91,3.84,8.45c8.45,5.63,18.69,4.1,28.42,4.1c7.42-0.51,16.9,0.51,22.02-6.14
		c2.82-6.66-5.12-9.47-7.94-14.59c-1.28-8.45-1.02-16.9-0.51-24.83c4.61,0,10.24,1.02,12.54,5.63c5.12,11.26,4.1,25.34,13.06,34.56
		c10.24,9.47,26.62,7.42,38.91,2.82c11.26,3.33,22.53,2.3,33.54,1.28c7.94-0.51,18.18-3.33,17.66-13.57
		c-3.33-2.3-6.66-4.1-9.73-6.66c-3.33-12.54-1.79-25.6-1.79-38.4c0-8.96-0.51-17.66,1.28-26.11c0.51-4.1,5.12-5.63,7.94-8.45
		c-2.3,6.66-4.1,13.57-1.79,20.22c3.84,6.91,14.85,5.12,18.18-1.28c4.1-4.1,6.66-13.57,14.08-10.75c2.3,11.26,0.51,22.53,0.51,33.54
		c0,10.24-1.02,20.48-2.3,30.46c-5.12,2.82-14.85,5.12-11.26,13.06c6.91,7.94,19.71,6.91,29.44,7.42
		c12.03-0.51,28.42,1.79,35.07-11.26c-2.82-4.61-7.42-7.42-12.54-9.47c-3.84-9.73-1.79-20.48-2.3-30.98
		c0.51-10.24-1.02-20.99,1.02-30.98c1.02-5.12,7.94-3.33,9.47,1.02c3.84,6.66,7.94,15.87,17.41,13.06
		c7.42-0.51,7.42-9.47,9.73-14.85c2.3,18.69,1.79,37.38,0.51,55.55c0,3.84-1.28,7.42-2.3,11.26c-3.33,2.3-10.24,4.1-8.96,10.24
		c1.79,3.84,6.66,4.1,10.24,4.61c22.53,0.51,44.8-0.51,67.33,0.51c5.12,0,12.03,2.3,15.36-3.33
		C745.24,95.23,750.36,81.66,742.68,70.91z M453.4,43.78c-2.82,4.61-8.96,3.33-13.57,4.1c0-9.73,0.51-19.2,1.28-28.93
		c4.61,0,8.96,1.02,13.06,2.82C454.93,29.44,457.24,37.38,453.4,43.78z"/>
	<path id="XMLID_14_" style="fill:#373536;" d="M280.6,9.73c-12.54-8.45-28.93-8.96-43.52-6.14c-16.9,3.84-31.23,16.38-37.38,32.77
		c-5.12,15.36-4.1,33.28,3.84,47.62c9.47,16.38,27.65,27.14,46.34,26.11c22.78,1.02,45.82-13.57,53.25-35.58
		C311.32,50.94,301.08,23.3,280.6,9.73z M264.98,85.5c-4.61,1.28-10.24,3.84-14.59,0c-10.75-9.47-14.59-24.32-16.9-37.89
		c-1.28-7.94-1.02-18.18,6.91-22.53c6.91-3.84,14.59,2.82,17.66,8.45c6.91,11.26,9.73,24.32,10.75,36.86
		C270.1,75.52,267.28,80.64,264.98,85.5z"/>
	<path id="XMLID_17_" style="fill:#373536;" d="M497.43,130.82c1.28,0,3.84,0,5.12-0.51c0,3.33,0,6.66,0,9.73c2.3,0,6.91,0,9.47,0
		c0-2.82,0-7.94,0-10.24c2.3,1.02,6.91,1.79,5.63,6.14c0.51,6.91,0,14.59-1.28,21.5c-1.02-0.51-3.33-1.28-4.1-1.28
		c0-3.84,0-6.91,0-10.75c-2.3,0-6.91,0-8.96,0c-1.02,4.1,2.3,12.54-5.12,11.78C497.43,147.97,497.43,139.26,497.43,130.82z"/>
	<path id="XMLID_18_" style="fill:#373536;" d="M548.88,130.82c1.28,0,3.84,0,5.12,0c0,6.91,0,13.57,0,20.48c3.84,0,7.94,0,11.78,0
		v4.61c-5.63,0-11.26,0-16.9,0C548.88,147.71,548.88,139.26,548.88,130.82z"/>
	<path id="XMLID_19_" style="fill:#373536;" d="M594.2,130.82c1.28,0,3.84,0,4.61,0c0,8.45,0,16.9,0,25.34c-1.28,0-3.84,0-4.61,0
		C593.68,147.71,594.2,139.26,594.2,130.82z"/>
	<path id="XMLID_20_" style="fill:#373536;" d="M603.41,130.82c1.79,0,3.84,0.51,5.63,0.51c2.82,5.63,6.14,11.26,9.47,16.9
		c0-5.63,0-11.26,0-16.9c1.28,0,3.84,0,5.12,0c0,8.45,0,16.9,0,25.34c-1.28,0-3.84,0-4.61,0c-3.33-5.63-6.66-11.26-9.73-16.9
		c-1.28,6.14,3.84,16.38-4.61,18.18C603.41,147.97,603.41,139.78,603.41,130.82z"/>
	<path id="XMLID_21_" style="fill:#373536;" d="M659.99,130.3c4.61-1.28,8.45,1.02,12.54,2.82c0,1.28,0.51,4.1,0.51,5.63
		c-5.12-1.28-12.54-8.45-14.59,0c4.1,1.28,8.96,2.82,13.06,4.1c1.02,1.02,2.82,3.33,3.33,4.61c-1.79,2.82-2.3,6.91-6.14,7.94
		c-4.61,2.3-9.47,0-13.57-1.28c-0.51-1.79-1.02-5.63-1.28-7.42c2.82,1.79,5.63,4.1,8.96,6.14c2.82-1.02,5.63-2.3,7.42-4.61
		c-6.14-2.3-13.06-2.82-17.41-8.45C654.87,136.45,655.38,130.82,659.99,130.3z"/>
	<path id="XMLID_22_" style="fill:#373536;" d="M687.12,130.82c1.79,0,3.84,0.51,5.63,0.51c0,6.66,0,13.57,0,20.22
		c4.1,0,7.94,0,12.03,0v4.61c-6.14,0-11.78,0-17.66,0C687.12,147.71,687.12,139.26,687.12,130.82z"/>
	<path id="XMLID_23_" style="fill:#373536;" d="M632.08,154.62c-8.45-6.66-5.63-23.3,6.14-24.32c6.14-1.02,11.26,3.33,12.03,9.47
		c-5.12-1.79-9.73-4.61-15.36-4.61c-1.02,4.61-4.61,10.75,0,14.85c3.33,4.61,9.47,1.02,11.78-2.3c-1.79,0-5.12-0.51-6.91-1.02
		l0.51-4.1c3.33,0,6.91,0,10.24,0c0,4.61,0,9.47,0,14.59c-1.02-0.51-3.33-1.79-4.1-2.3C641.3,155.65,636.18,158.46,632.08,154.62z"
		/>
	<path id="XMLID_24_" style="fill:#373536;" d="M703.51,130.82c6.91,0,14.59,0,21.5,0.51c-1.02,4.61-5.12,4.1-8.96,4.61
		c-1.28,6.66,4.61,19.71-5.63,20.99c0-6.91,0-14.59,0-21.5c-1.79,0-5.63,0-6.91,0L703.51,130.82L703.51,130.82z"/>
	<path id="XMLID_25_" style="fill:#373536;" d="M542.23,132.61c-6.14-3.33-13.06-3.33-19.2,0.51c-2.3,6.66-4.1,15.36,2.3,20.48
		c4.61,4.61,11.78,1.79,16.9,0C545.56,147.2,545.56,139.78,542.23,132.61z M531.48,151.81c-6.66-2.3-6.91-13.57-1.02-16.9
		C542.23,131.33,542.74,153.6,531.48,151.81z"/>
	<path id="XMLID_28_" style="fill:#373536;" d="M587.03,133.12c-5.12-3.33-11.78-1.79-17.41-2.3c0,8.45-0.51,17.41,0.51,25.6
		c5.63-0.51,11.26-1.02,16.9-1.79C590.36,147.97,592.66,138.75,587.03,133.12z M583.96,148.48c-2.3,2.82-6.14,2.82-9.47,3.84
		c0-5.63,0-11.78,0-17.41c3.33,1.02,7.42,0,9.73,3.33C585.24,141.57,585.24,145.15,583.96,148.48z"/>
	<path id="XMLID_31_" style="fill:#373536;" d="M745.49,134.91c-3.84-6.66-12.54-3.84-18.69-4.61c0,8.45,0,17.41,0,25.6
		c6.14-0.51,11.78-1.02,17.66-2.3C746.52,147.97,749.33,141.06,745.49,134.91z M740.88,148.99c-2.82,1.79-6.14,2.3-9.47,2.82
		c0-5.63,0-11.26,0-16.9c3.33,0.51,6.66,0,9.47,1.79C741.91,141.06,742.42,145.15,740.88,148.99z"/>
</g>
</svg>
