<?xml version="1.0" encoding="utf-8"?>
<svg version="1.1" id="Layer_1" xmlns="http://www.w3.org/2000/svg" xmlns:xlink="http://www.w3.org/1999/xlink" x="0px" y="0px"
	 viewBox="0 0 115.82 40.1" style="enable-background:new 0 0 115.82 40.1;" xml:space="preserve">
<g>
	<g>
		<path style="fill:#A23795;" d="M36.13,34.1h2.69c0.75,0,1.32,0.2,1.72,0.6c0.34,0.34,0.51,0.79,0.51,1.35v0.02
			c0,0.48-0.12,0.87-0.35,1.17s-0.54,0.52-0.91,0.66L41.23,40h-1.52l-1.26-1.89h-0.02h-1V40h-1.3V34.1z M38.75,36.97
			c0.32,0,0.57-0.08,0.74-0.23c0.17-0.15,0.26-0.35,0.26-0.61v-0.02c0-0.28-0.09-0.49-0.27-0.63c-0.18-0.14-0.43-0.21-0.75-0.21
			h-1.29v1.69H38.75z"/>
		<path style="fill:#A23795;" d="M43.07,34.1h4.44v1.15h-3.16v1.2h2.78v1.15h-2.78v1.24h3.2V40h-4.48V34.1z"/>
		<path style="fill:#A23795;" d="M50.98,35.3h-1.79v-1.2h4.88v1.2h-1.79V40h-1.3V35.3z"/>
		<path style="fill:#A23795;" d="M57.04,34.06h1.2L60.76,40H59.4l-0.54-1.32h-2.49L55.83,40h-1.32L57.04,34.06z M58.4,37.53
			l-0.78-1.91l-0.78,1.91H58.4z"/>
		<path style="fill:#A23795;" d="M62.25,34.1h1.3V40h-1.3V34.1z"/>
		<path style="fill:#A23795;" d="M65.86,34.1h1.3v4.72h2.94V40h-4.24V34.1z"/>
		<path style="fill:#A23795;" d="M78.12,40.1c-0.46,0-0.88-0.08-1.26-0.23c-0.38-0.15-0.7-0.36-0.98-0.63
			c-0.27-0.27-0.48-0.59-0.64-0.96c-0.15-0.37-0.23-0.78-0.23-1.21v-0.02c0-0.42,0.08-0.82,0.23-1.18c0.15-0.37,0.37-0.69,0.64-0.97
			c0.28-0.28,0.6-0.5,0.98-0.66c0.38-0.16,0.79-0.24,1.24-0.24c0.26,0,0.5,0.02,0.72,0.05c0.22,0.04,0.42,0.09,0.6,0.16
			c0.19,0.07,0.36,0.15,0.52,0.25c0.16,0.1,0.32,0.22,0.47,0.34l-0.82,0.99c-0.11-0.1-0.22-0.18-0.34-0.25
			c-0.11-0.07-0.23-0.13-0.35-0.19c-0.12-0.05-0.25-0.09-0.39-0.12c-0.14-0.03-0.3-0.04-0.46-0.04c-0.24,0-0.46,0.05-0.66,0.15
			s-0.38,0.23-0.54,0.4s-0.28,0.36-0.36,0.58c-0.09,0.22-0.13,0.46-0.13,0.71v0.02c0,0.27,0.04,0.52,0.13,0.75
			c0.09,0.23,0.21,0.43,0.37,0.6c0.16,0.17,0.35,0.3,0.56,0.39s0.46,0.14,0.72,0.14c0.48,0,0.89-0.12,1.22-0.36v-0.85h-1.3V36.6
			h2.56v2.56c-0.3,0.26-0.66,0.48-1.08,0.66C79.14,40.01,78.66,40.1,78.12,40.1z"/>
		<path style="fill:#A23795;" d="M82.73,34.1h2.69c0.75,0,1.32,0.2,1.72,0.6c0.34,0.34,0.51,0.79,0.51,1.35v0.02
			c0,0.48-0.12,0.87-0.35,1.17s-0.54,0.52-0.91,0.66L87.82,40h-1.52l-1.26-1.89h-0.02h-1V40h-1.3V34.1z M85.34,36.97
			c0.32,0,0.57-0.08,0.74-0.23c0.17-0.15,0.26-0.35,0.26-0.61v-0.02c0-0.28-0.09-0.49-0.27-0.63c-0.18-0.14-0.43-0.21-0.75-0.21
			h-1.29v1.69H85.34z"/>
		<path style="fill:#A23795;" d="M92.33,40.1c-0.45,0-0.87-0.08-1.25-0.24c-0.38-0.16-0.71-0.38-0.99-0.65
			c-0.28-0.27-0.49-0.59-0.65-0.96c-0.15-0.37-0.23-0.76-0.23-1.18v-0.02c0-0.42,0.08-0.82,0.24-1.18c0.16-0.37,0.37-0.69,0.65-0.97
			c0.28-0.28,0.61-0.5,0.99-0.66c0.38-0.16,0.8-0.24,1.26-0.24c0.45,0,0.87,0.08,1.25,0.24s0.71,0.38,0.99,0.65
			c0.28,0.27,0.49,0.59,0.65,0.96c0.15,0.37,0.23,0.76,0.23,1.18v0.02c0,0.42-0.08,0.82-0.24,1.18c-0.16,0.37-0.37,0.69-0.65,0.97
			c-0.28,0.28-0.61,0.5-0.99,0.66S92.78,40.1,92.33,40.1z M92.34,38.9c0.26,0,0.5-0.05,0.72-0.14s0.41-0.23,0.56-0.4
			c0.15-0.17,0.28-0.36,0.36-0.59c0.09-0.22,0.13-0.46,0.13-0.71v-0.02c0-0.25-0.04-0.49-0.13-0.72c-0.09-0.22-0.21-0.42-0.37-0.59
			s-0.35-0.3-0.57-0.4c-0.22-0.1-0.46-0.15-0.72-0.15c-0.26,0-0.5,0.05-0.72,0.14c-0.22,0.1-0.4,0.23-0.56,0.4
			c-0.15,0.17-0.28,0.36-0.36,0.59c-0.09,0.22-0.13,0.46-0.13,0.71v0.02c0,0.25,0.04,0.49,0.13,0.72c0.09,0.22,0.21,0.42,0.37,0.59
			c0.16,0.17,0.35,0.3,0.56,0.4S92.08,38.9,92.34,38.9z"/>
		<path style="fill:#A23795;" d="M99.7,40.09c-0.79,0-1.41-0.22-1.87-0.66c-0.45-0.44-0.68-1.09-0.68-1.96V34.1h1.3v3.33
			c0,0.48,0.11,0.85,0.34,1.09c0.22,0.24,0.54,0.37,0.93,0.37c0.4,0,0.71-0.12,0.93-0.35c0.22-0.24,0.34-0.59,0.34-1.06V34.1h1.3
			v3.33c0,0.45-0.06,0.84-0.18,1.17c-0.12,0.33-0.29,0.61-0.52,0.83c-0.22,0.22-0.5,0.39-0.82,0.5
			C100.45,40.04,100.09,40.09,99.7,40.09z"/>
		<path style="fill:#A23795;" d="M104.45,34.1h2.41c0.35,0,0.67,0.05,0.95,0.15c0.28,0.1,0.51,0.24,0.71,0.42s0.34,0.39,0.45,0.64
			c0.1,0.25,0.16,0.53,0.16,0.83v0.02c0,0.34-0.06,0.64-0.19,0.9c-0.12,0.26-0.29,0.47-0.51,0.65c-0.22,0.17-0.47,0.3-0.76,0.39
			s-0.6,0.13-0.93,0.13h-0.99V40h-1.3V34.1z M106.77,37.08c0.33,0,0.58-0.09,0.76-0.26c0.18-0.17,0.27-0.38,0.27-0.64v-0.02
			c0-0.29-0.09-0.51-0.28-0.67c-0.19-0.15-0.45-0.23-0.77-0.23h-1v1.8H106.77z"/>
		<path style="fill:#A23795;" d="M39.99,25.92c0,0.1,0.08,0.19,0.19,0.19h3.02c0.11,0,0.19-0.09,0.19-0.19V6.12
			c0-0.1-0.08-0.19-0.19-0.19h-3.02c-0.1,0-0.19,0.08-0.19,0.19v11.3c0,0.87-0.15,1.69-0.44,2.41c-0.29,0.73-0.69,1.36-1.19,1.88
			c-0.49,0.52-1.09,0.92-1.78,1.2c-0.69,0.28-1.45,0.42-2.25,0.42c-1.67,0-2.96-0.51-3.85-1.51c-0.89-1.01-1.35-2.41-1.35-4.16V6.12
			c0-0.1-0.09-0.19-0.19-0.19h-3.05c-0.1,0-0.19,0.08-0.19,0.19V18.4c0,1.19,0.18,2.29,0.53,3.28c0.35,0.99,0.87,1.86,1.54,2.58
			c0.67,0.72,1.49,1.29,2.45,1.68c0.95,0.39,2.05,0.59,3.27,0.59c1.74,0,3.19-0.39,4.29-1.17c0.86-0.6,1.59-1.31,2.2-2.12V25.92z"/>
		<path style="fill:#A23795;" d="M115.11,22.74c0.07-0.08,0.05-0.21-0.04-0.28l0,0l-1.86-1.67l-0.01-0.01
			c-0.08-0.08-0.19-0.1-0.27-0.03l-0.06,0.06c-0.79,0.81-1.67,1.48-2.62,1.97c-0.94,0.49-2.08,0.73-3.41,0.73
			c-0.83,0-1.63-0.14-2.39-0.42c-0.75-0.28-1.44-0.69-2.05-1.23c-0.61-0.53-1.11-1.2-1.5-1.98c-0.33-0.66-0.55-1.41-0.68-2.24
			c-0.01-0.09,0.09-0.18,0.2-0.18h15.19c0.08,0,0.14-0.08,0.15-0.16l0.01-0.06c0.03-0.24,0.04-0.44,0.04-0.62v-0.44
			c0-1.46-0.21-2.86-0.62-4.15c-0.41-1.29-1.03-2.44-1.84-3.39c-0.81-0.96-1.81-1.73-2.98-2.29c-1.17-0.56-2.51-0.84-3.99-0.84
			c-1.4,0-2.71,0.28-3.89,0.82c-1.18,0.54-2.21,1.3-3.07,2.25c-0.85,0.95-1.53,2.07-2.01,3.35c-0.48,1.28-0.72,2.66-0.72,4.1
			c0,1.55,0.27,2.99,0.8,4.28c0.53,1.29,1.26,2.41,2.16,3.33c0.91,0.92,1.98,1.64,3.2,2.15c1.22,0.5,2.53,0.76,3.9,0.76
			c1.91,0,3.54-0.35,4.83-1.04c1.29-0.68,2.45-1.6,3.46-2.74L115.11,22.74L115.11,22.74z M100.86,12.32
			c0.35-0.78,0.81-1.46,1.34-2.03c0.53-0.57,1.16-1.01,1.86-1.33c0.7-0.31,1.46-0.47,2.26-0.47c0.92,0,1.75,0.17,2.46,0.51
			c0.71,0.34,1.33,0.8,1.82,1.37c0.5,0.58,0.9,1.26,1.19,2.03c0.24,0.63,0.41,1.29,0.5,1.98l0,0c0.01,0.1-0.08,0.19-0.2,0.2h-11.68
			c-0.1-0.01-0.19-0.09-0.18-0.18C100.36,13.66,100.56,12.96,100.86,12.32z"/>
		<path style="fill:#A23795;" d="M60.21,9.06V5.78c-0.01-0.1-0.09-0.18-0.19-0.19l-0.05,0c-0.96-0.02-1.87,0.09-2.71,0.35
			c-0.83,0.26-1.61,0.65-2.32,1.16c-0.7,0.51-1.33,1.12-1.88,1.82c-0.33,0.42-0.62,0.87-0.89,1.34V6.12c0-0.12-0.1-0.19-0.19-0.19
			h-3.06c-0.1,0-0.19,0.09-0.19,0.19v19.8c0,0.11,0.09,0.19,0.19,0.19l3.06,0c0.1,0,0.19-0.08,0.19-0.19v-7.9
			c0-1.44,0.2-2.72,0.59-3.82c0.39-1.09,0.94-2.02,1.62-2.75c0.68-0.73,1.49-1.29,2.4-1.65c0.92-0.37,1.9-0.55,2.93-0.55h0.29
			C60.13,9.25,60.21,9.16,60.21,9.06z"/>
		<path style="fill:#A23795;" d="M76.69,25.92c0,0.1,0.08,0.19,0.19,0.19l3.02,0c0.1,0,0.19-0.08,0.19-0.19V13.83
			c0-2.54-0.72-4.55-2.13-5.96c-1.49-1.49-3.68-2.24-6.53-2.24c-1.46,0-2.78,0.16-3.91,0.47c-1.1,0.3-2.21,0.72-3.29,1.22L64.1,7.38
			c-0.08,0.04-0.09,0.17-0.04,0.24l1.73,2.2c0.05,0.06,0.12,0.08,0.19,0.06l0.06-0.03C66.7,9.59,67.36,9.37,68,9.2
			c0.93-0.25,1.98-0.37,3.11-0.37c1.78,0,3.17,0.43,4.14,1.28c0.95,0.84,1.44,2.11,1.44,3.77v0.28c-0.79-0.21-1.61-0.39-2.43-0.53
			c-0.93-0.15-2.06-0.23-3.33-0.23c-1.26,0-2.43,0.14-3.47,0.43c-1.05,0.29-1.97,0.71-2.74,1.26c-0.78,0.55-1.39,1.26-1.81,2.09
			c-0.42,0.83-0.64,1.81-0.64,2.91v0.08c0,1.05,0.22,1.99,0.66,2.78c0.43,0.79,1.01,1.46,1.72,2c0.71,0.54,1.53,0.94,2.44,1.2
			c0.91,0.26,1.84,0.39,2.77,0.39c1.76,0,3.26-0.35,4.44-1.04c0.95-0.55,1.74-1.18,2.39-1.88V25.92z M76.24,20.64
			c-0.32,0.61-0.77,1.14-1.34,1.59c-0.57,0.45-1.24,0.8-1.99,1.04c-0.75,0.24-1.58,0.37-2.47,0.37c-0.63,0-1.24-0.09-1.81-0.25
			c-0.56-0.17-1.07-0.41-1.5-0.72c-0.42-0.3-0.76-0.69-1.01-1.15c-0.25-0.45-0.37-0.97-0.37-1.53V19.9c0-1.11,0.46-1.98,1.4-2.66
			c0.95-0.69,2.33-1.03,4.08-1.03c1.19,0,2.26,0.09,3.18,0.26c0.85,0.16,1.62,0.33,2.3,0.51v1.63
			C76.72,19.36,76.56,20.04,76.24,20.64z"/>
		<path style="fill:#A23795;" d="M95.4,25.26L95.4,25.26l-1.55-1.97c-0.09-0.1-0.21-0.16-0.35-0.14l0,0
			c-0.39,0.07-0.77,0.11-1.17,0.11c-0.93,0-1.68-0.22-2.24-0.67c-0.54-0.43-0.82-1.22-0.82-2.35V9.02l5.21,0
			c0.1,0,0.18-0.08,0.18-0.19V6.11c-0.01-0.09-0.07-0.16-0.16-0.18h-5.24V0.19c0-0.1-0.08-0.19-0.19-0.19h-3.06
			c-0.1,0-0.18,0.08-0.18,0.19v5.75h-3.1c-0.11,0-0.19,0.09-0.19,0.19v2.71c0,0.1,0.08,0.19,0.19,0.19l3.1,0v11.63
			c0,1.02,0.15,1.9,0.44,2.64c0.29,0.74,0.7,1.36,1.23,1.83c0.52,0.47,1.15,0.81,1.86,1.02c0.7,0.21,1.47,0.31,2.28,0.31
			c0.73,0,1.39-0.07,1.98-0.22c0.58-0.14,1.15-0.36,1.67-0.65l0.1-0.06C95.47,25.49,95.48,25.35,95.4,25.26z"/>
		<path style="fill:#A23795;" d="M29.5,39.81v-3.04c0-0.11-0.09-0.2-0.2-0.2v0c-5.93-0.09-8.94-4.21-8.94-12.26v-1.82h0.01V6.12
			c0-0.1-0.08-0.19-0.19-0.19h-3.06c-0.1,0-0.18,0.08-0.18,0.19v3.07c-0.27-0.35-0.57-0.69-0.89-1.01c-0.51-0.52-1.08-0.98-1.7-1.37
			c-0.62-0.39-1.34-0.71-2.12-0.94c-0.78-0.23-1.65-0.35-2.58-0.35c-1.22,0-2.42,0.24-3.56,0.72C4.95,6.72,3.91,7.42,3,8.31
			c-0.91,0.89-1.64,2-2.19,3.3C0.28,12.9,0,14.38,0,16v0.08c0,1.65,0.28,3.14,0.82,4.42C1.36,21.78,2.1,22.88,3,23.77
			c0.91,0.89,1.95,1.58,3.09,2.05c1.14,0.47,2.34,0.7,3.56,0.7c0.93,0,1.8-0.12,2.56-0.35c0.77-0.23,1.47-0.56,2.1-0.98
			c0.62-0.42,1.2-0.9,1.7-1.45c0.32-0.35,0.63-0.71,0.92-1.09v1.65c0,5.93,1.52,10.28,4.52,12.91c2.03,1.78,4.75,2.74,7.87,2.77
			C29.42,40,29.5,39.91,29.5,39.81z M17.05,16.04c0,1.1-0.19,2.11-0.57,3.01c-0.38,0.89-0.9,1.67-1.55,2.32
			c-0.65,0.65-1.39,1.15-2.21,1.51c-1.65,0.72-3.53,0.69-5.11,0.02c-0.8-0.34-1.52-0.83-2.13-1.47c-0.61-0.63-1.1-1.41-1.45-2.32
			C3.68,18.2,3.5,17.17,3.5,16.04v-0.08c0-1.16,0.18-2.2,0.53-3.11c0.35-0.9,0.84-1.68,1.43-2.3c0.59-0.62,1.3-1.1,2.1-1.43
			c0.8-0.33,1.68-0.5,2.61-0.5c0.87,0,1.73,0.18,2.55,0.53c0.82,0.35,1.56,0.86,2.21,1.49c0.65,0.63,1.17,1.41,1.54,2.3
			c0.38,0.89,0.57,1.9,0.57,3V16.04z"/>
	</g>
	<g>
		<path style="fill:#A23795;" d="M112.03,36.14c-0.16,0-0.3-0.03-0.45-0.08c-0.14-0.05-0.27-0.13-0.39-0.24l0.21-0.25
			c0.1,0.08,0.2,0.15,0.3,0.19c0.1,0.05,0.21,0.07,0.34,0.07c0.11,0,0.2-0.02,0.26-0.07c0.06-0.05,0.1-0.11,0.1-0.18v-0.01
			c0-0.04-0.01-0.07-0.02-0.1c-0.01-0.03-0.04-0.05-0.07-0.08c-0.03-0.02-0.08-0.05-0.14-0.07c-0.06-0.02-0.14-0.04-0.23-0.06
			c-0.11-0.02-0.2-0.05-0.29-0.09c-0.08-0.03-0.15-0.07-0.21-0.12c-0.06-0.05-0.1-0.1-0.13-0.17c-0.03-0.07-0.04-0.14-0.04-0.24
			v-0.01c0-0.09,0.02-0.17,0.05-0.24c0.03-0.07,0.08-0.13,0.14-0.18c0.06-0.05,0.13-0.09,0.22-0.12c0.08-0.03,0.18-0.04,0.28-0.04
			c0.15,0,0.28,0.02,0.4,0.06c0.12,0.04,0.23,0.11,0.33,0.19l-0.19,0.27c-0.09-0.07-0.18-0.12-0.27-0.15
			c-0.09-0.04-0.18-0.05-0.27-0.05c-0.1,0-0.18,0.02-0.24,0.07c-0.06,0.05-0.09,0.1-0.09,0.17v0.01c0,0.04,0.01,0.07,0.02,0.1
			c0.01,0.03,0.04,0.06,0.07,0.08c0.04,0.02,0.08,0.05,0.15,0.07c0.06,0.02,0.14,0.04,0.24,0.07c0.11,0.03,0.2,0.06,0.28,0.09
			c0.08,0.03,0.15,0.07,0.2,0.12c0.05,0.05,0.09,0.1,0.12,0.16c0.03,0.06,0.04,0.14,0.04,0.22v0.01c0,0.09-0.02,0.18-0.05,0.25
			c-0.04,0.07-0.08,0.14-0.15,0.19c-0.06,0.05-0.14,0.09-0.23,0.12C112.23,36.13,112.13,36.14,112.03,36.14z"/>
		<path style="fill:#A23795;" d="M113.16,34.09h0.38l0.61,0.95l0.61-0.95h0.38v2.02h-0.35v-1.45l-0.64,0.95h-0.01l-0.63-0.95v1.44
			h-0.35V34.09z"/>
	</g>
</g>
</svg>
