<?xml version="1.0" encoding="utf-8"?>
<svg version="1.1" id="Layer_1" xmlns="http://www.w3.org/2000/svg" xmlns:xlink="http://www.w3.org/1999/xlink" x="0px" y="0px"
	 viewBox="0 0 1119.57 139.95" style="enable-background:new 0 0 1119.57 139.95;" xml:space="preserve">
<g>
	<g id="Layer_2_1_">
		<g id="Layer_1-2">
			<g id="Layer_2-2">
				<g id="Layer_1-2-2">
					<path style="fill:#141332;" d="M21.33,132.27V71.68h17.92c24.75,0,35.84,11.09,35.84,30.72c0,21.33-11.95,29.87-39.25,29.87
						H21.33 M21.33,64.85V7.68h11.09c23.04,0,35.84,8.53,35.84,28.16c0,21.33-13.65,29.01-32.43,29.01L21.33,64.85 M34.99,0.85H0
						v139.09h34.13c43.52,0,64.85-11.95,64.85-39.25c0-17.92-13.65-29.01-35.84-33.28c17.07-5.12,29.01-17.07,29.01-32.43
						C91.31,11.95,77.65,0.85,34.99,0.85"/>
					<polyline style="fill:#141332;" points="508.59,0 428.37,0 428.37,139.09 508.59,139.09 508.59,131.41 450.56,131.41 
						450.56,72.53 491.52,72.53 491.52,64.85 450.56,64.85 450.56,8.53 508.59,8.53 508.59,0 					"/>
					<polyline style="fill:#141332;" points="175.79,0.85 153.6,0.85 153.6,139.09 233.81,139.09 233.81,132.27 175.79,132.27 
						175.79,0.85 					"/>
					<path style="fill:#141332;" d="M375.47,0.85h-8.53v90.45c0,35.84-23.89,40.11-38.4,40.11c-19.63,0-38.4-6.83-38.4-40.96V0.85
						h-22.19V89.6c0,40.11,28.16,50.35,54.61,50.35c34.99,0,52.05-16.21,52.05-50.35L375.47,0.85"/>
					<polyline style="fill:#141332;" points="822.61,0.85 800.43,0.85 800.43,139.09 822.61,139.09 822.61,0.85 					"/>
					<polyline style="fill:#141332;" points="1097.39,0 1017.17,0 1017.17,139.09 1097.39,139.09 1097.39,131.41 1039.36,131.41 
						1039.36,72.53 1079.47,72.53 1079.47,64.85 1039.36,64.85 1039.36,8.53 1097.39,8.53 1097.39,0 					"/>
					<polyline style="fill:#141332;" points="912.21,0.85 890.03,0.85 890.03,139.09 970.24,139.09 970.24,132.27 912.21,132.27 
						912.21,0.85 					"/>
					<polyline style="fill:#141332;" points="735.57,0.85 727.04,0.85 727.04,104.11 643.41,0.85 629.76,0.85 629.76,139.09 
						638.29,139.09 638.29,26.45 729.6,139.09 735.57,139.09 735.57,0.85 					"/>
				</g>
			</g>
		</g>
	</g>
	<g>
		<path style="fill:#141332;" d="M1109.33,133.97c0-3.41,2.56-5.12,5.12-5.12s5.12,2.56,5.12,5.12c0,2.56-2.56,5.12-5.12,5.12
			C1111.04,139.09,1109.33,137.39,1109.33,133.97z M1118.72,133.97c0-2.56-1.71-4.27-4.27-4.27s-4.27,1.71-4.27,4.27
			s1.71,4.27,4.27,4.27S1118.72,136.53,1118.72,133.97z M1112.75,131.41c0.85,0,0.85,0,1.71,0c1.71,0,2.56,0.85,2.56,1.71
			c0,0.85-0.85,1.71-0.85,1.71l1.71,2.56h-0.85l-0.85-1.71c0,0,0,0-0.85,0c0,0,0,0-0.85,0v1.71h-0.85L1112.75,131.41L1112.75,131.41
			z M1113.6,133.97C1113.6,133.97,1114.45,133.97,1113.6,133.97c0.85,0,1.71-0.85,1.71-0.85l-0.85-0.85h-0.85L1113.6,133.97
			L1113.6,133.97z"/>
	</g>
</g>
</svg>
