<?xml version="1.0" encoding="utf-8"?>
<svg version="1.1" id="Layer_1" xmlns="http://www.w3.org/2000/svg" xmlns:xlink="http://www.w3.org/1999/xlink" x="0px" y="0px"
	width="100px" height="100px" viewBox="0 0 100 100" style="enable-background:new 0 0 100 100;" xml:space="preserve">
<g>
	<g>
		<path style="fill:#E8E8E8;" d="M50,0c27.61,0,50,22.39,50,50s-22.39,50-50,50S0,77.61,0,50S22.39,0,50,0"/>
		<path style="fill:#FFFFFF;" d="M50,1c27.06,0,49,21.94,49,49S77.06,99,50,99S1,77.06,1,50S22.94,1,50,1"/>
	</g>
	<g>
		<path d="M77.14,41.62L77.14,41.62c0.04,0.04,0.09,0.09,0.13,0.13c2.92,2.7,5.83,5.4,8.75,8.1c0-2.57,0-5.18,0-7.75
			c1.13,0,2.26,0,3.4,0c0,5.44,0,10.84,0,16.28c-2.96-2.74-5.92-5.53-8.92-8.27c0,2.57,0,5.14,0,7.71c-1.13,0-2.22,0-3.35,0
			C77.14,52.46,77.14,47.02,77.14,41.62L77.14,41.62z"/>
		<path d="M11.75,44.14c0.91-1.35,2.53-2.09,4.09-2.26c2.39-0.22,5.01,0.17,6.88,1.83c-0.78,0.74-1.61,1.44-2.39,2.18
			c-0.87-0.78-2.05-1.18-3.22-1.18c-0.87-0.04-1.78,0.26-2.26,1c-0.35,0.52-0.22,1.31,0.26,1.7c0.78,0.65,1.78,0.96,2.74,1.31
			c1.39,0.44,2.79,0.91,3.92,1.87c1.57,1.26,1.92,3.83,0.7,5.44c-1.04,1.39-2.74,2.13-4.44,2.26c-1.52,0.04-3.05,0-4.48-0.52
			c-1.09-0.35-2.05-0.96-2.96-1.61c0.78-0.74,1.61-1.48,2.39-2.22c1.35,1.04,3.09,1.61,4.79,1.39c0.74-0.13,1.52-0.52,1.78-1.26
			c0.17-0.65-0.22-1.31-0.78-1.61c-1.74-1-3.79-1.22-5.49-2.31c-0.91-0.57-1.7-1.44-2-2.48C10.93,46.45,11.06,45.15,11.75,44.14
			L11.75,44.14z"/>
		<path d="M28.99,42.14c1.13,0,2.26,0,3.4,0c0,2.09,0,4.14,0,6.23c2.31,0,4.57,0,6.88,0c0-2.09,0-4.14,0-6.23c1.13,0,2.31,0,3.44,0
			c0,5.27,0,10.49,0,15.76c-1.13,0-2.31,0-3.44,0c0-2.31,0-4.66,0-6.97c-2.31,0-4.57,0-6.88,0c0,2.31,0,4.66,0,6.97
			c-1.13,0-2.26,0-3.4,0C28.99,52.68,28.99,47.41,28.99,42.14L28.99,42.14z"/>
		<path d="M49.37,42.14c3.87,0,7.71,0,11.58,0c0,0.83,0,1.7,0,2.53c-2.74,0-5.49,0-8.23,0c0,1.26,0,2.48,0,3.74c2.7,0,5.4,0,8.1,0
			c0,0.83,0,1.65,0,2.48c-2.7,0-5.4,0-8.1,0c0,1.44,0,2.87,0,4.31c2.74,0,5.49,0,8.23,0c0,0.91,0,1.78,0,2.7c-3.87,0-7.71,0-11.58,0
			C49.37,52.68,49.37,47.41,49.37,42.14L49.37,42.14z"/>
		<path d="M67,42.14c1.13,0,2.26,0,3.4,0c0,5.27,0,10.49,0,15.76c-1.13,0-2.26,0-3.4,0C67,52.68,67,47.41,67,42.14L67,42.14z"/>
	</g>
</g>
</svg>
