<?xml version="1.0" encoding="utf-8"?>
<svg version="1.1" id="Layer_1" xmlns="http://www.w3.org/2000/svg" xmlns:xlink="http://www.w3.org/1999/xlink" x="0px" y="0px"
	width="100px" height="100px" viewBox="0 0 256.5 256.5" style="enable-background:new 0 0 256.5 256.5;" xml:space="preserve">
<g>
	<defs>
		<filter id="Adobe_OpacityMaskFilter" filterUnits="userSpaceOnUse" x="0" y="135" width="54" height="54">
			<feColorMatrix  type="matrix" values="1 0 0 0 0  0 1 0 0 0  0 0 1 0 0  0 0 0 1 0"/>
		</filter>
	</defs>
	<mask maskUnits="userSpaceOnUse" x="0" y="135" width="54" height="54" id="mask-2_8_">
		<g style="filter:url(#Adobe_OpacityMaskFilter);">
			<polygon id="path-1_8_" style="fill-rule:evenodd;clip-rule:evenodd;fill:#FFFFFF;" points="0,256.5 1012.98,256.5 1012.98,0 
				0,0 			"/>
		</g>
	</mask>
	<path id="Fill-9" style="mask:url(#mask-2_8_);fill-rule:evenodd;clip-rule:evenodd;fill:#E01E5A;" d="M54,162
		c0,14.91-12.09,27-27,27S0,176.91,0,162s12.09-27,27-27h27V162z"/>
	<defs>
		<filter id="Adobe_OpacityMaskFilter_1_" filterUnits="userSpaceOnUse" x="67.5" y="135" width="54" height="121.5">
			<feColorMatrix  type="matrix" values="1 0 0 0 0  0 1 0 0 0  0 0 1 0 0  0 0 0 1 0"/>
		</filter>
	</defs>
	<mask maskUnits="userSpaceOnUse" x="67.5" y="135" width="54" height="121.5" id="mask-2_7_">
		<g style="filter:url(#Adobe_OpacityMaskFilter_1_);">
			<polygon id="path-1_7_" style="fill-rule:evenodd;clip-rule:evenodd;fill:#FFFFFF;" points="0,256.5 1012.98,256.5 1012.98,0 
				0,0 			"/>
		</g>
	</mask>
	<path id="Fill-10" style="mask:url(#mask-2_7_);fill-rule:evenodd;clip-rule:evenodd;fill:#E01E5A;" d="M67.5,162
		c0-14.91,12.09-27,27-27s27,12.09,27,27v67.5c0,14.91-12.09,27-27,27s-27-12.09-27-27V162z"/>
	<defs>
		<filter id="Adobe_OpacityMaskFilter_2_" filterUnits="userSpaceOnUse" x="67.5" y="0" width="54" height="54">
			<feColorMatrix  type="matrix" values="1 0 0 0 0  0 1 0 0 0  0 0 1 0 0  0 0 0 1 0"/>
		</filter>
	</defs>
	<mask maskUnits="userSpaceOnUse" x="67.5" y="0" width="54" height="54" id="mask-2_6_">
		<g style="filter:url(#Adobe_OpacityMaskFilter_2_);">
			<polygon id="path-1_6_" style="fill-rule:evenodd;clip-rule:evenodd;fill:#FFFFFF;" points="0,256.5 1012.98,256.5 1012.98,0 
				0,0 			"/>
		</g>
	</mask>
	<path id="Fill-11" style="mask:url(#mask-2_6_);fill-rule:evenodd;clip-rule:evenodd;fill:#36C5F0;" d="M94.5,54
		c-14.91,0-27-12.09-27-27s12.09-27,27-27s27,12.09,27,27v27H94.5z"/>
	<defs>
		<filter id="Adobe_OpacityMaskFilter_3_" filterUnits="userSpaceOnUse" x="0" y="67.5" width="121.5" height="54">
			<feColorMatrix  type="matrix" values="1 0 0 0 0  0 1 0 0 0  0 0 1 0 0  0 0 0 1 0"/>
		</filter>
	</defs>
	<mask maskUnits="userSpaceOnUse" x="0" y="67.5" width="121.5" height="54" id="mask-2_5_">
		<g style="filter:url(#Adobe_OpacityMaskFilter_3_);">
			<polygon id="path-1_5_" style="fill-rule:evenodd;clip-rule:evenodd;fill:#FFFFFF;" points="0,256.5 1012.98,256.5 1012.98,0 
				0,0 			"/>
		</g>
	</mask>
	<path id="Fill-12" style="mask:url(#mask-2_5_);fill-rule:evenodd;clip-rule:evenodd;fill:#36C5F0;" d="M94.5,67.5
		c14.91,0,27,12.09,27,27s-12.09,27-27,27H27c-14.91,0-27-12.09-27-27s12.09-27,27-27H94.5z"/>
	<defs>
		<filter id="Adobe_OpacityMaskFilter_4_" filterUnits="userSpaceOnUse" x="202.5" y="67.5" width="54" height="54">
			<feColorMatrix  type="matrix" values="1 0 0 0 0  0 1 0 0 0  0 0 1 0 0  0 0 0 1 0"/>
		</filter>
	</defs>
	<mask maskUnits="userSpaceOnUse" x="202.5" y="67.5" width="54" height="54" id="mask-2_4_">
		<g style="filter:url(#Adobe_OpacityMaskFilter_4_);">
			<polygon id="path-1_4_" style="fill-rule:evenodd;clip-rule:evenodd;fill:#FFFFFF;" points="0,256.5 1012.98,256.5 1012.98,0 
				0,0 			"/>
		</g>
	</mask>
	<path id="Fill-13" style="mask:url(#mask-2_4_);fill-rule:evenodd;clip-rule:evenodd;fill:#2EB67D;" d="M202.5,94.5
		c0-14.91,12.09-27,27-27c14.91,0,27,12.09,27,27s-12.09,27-27,27h-27V94.5z"/>
	<defs>
		<filter id="Adobe_OpacityMaskFilter_5_" filterUnits="userSpaceOnUse" x="135" y="0" width="54" height="121.5">
			<feColorMatrix  type="matrix" values="1 0 0 0 0  0 1 0 0 0  0 0 1 0 0  0 0 0 1 0"/>
		</filter>
	</defs>
	<mask maskUnits="userSpaceOnUse" x="135" y="0" width="54" height="121.5" id="mask-2_3_">
		<g style="filter:url(#Adobe_OpacityMaskFilter_5_);">
			<polygon id="path-1_3_" style="fill-rule:evenodd;clip-rule:evenodd;fill:#FFFFFF;" points="0,256.5 1012.98,256.5 1012.98,0 
				0,0 			"/>
		</g>
	</mask>
	<path id="Fill-14" style="mask:url(#mask-2_3_);fill-rule:evenodd;clip-rule:evenodd;fill:#2EB67D;" d="M189,94.5
		c0,14.91-12.09,27-27,27c-14.91,0-27-12.09-27-27V27c0-14.91,12.09-27,27-27c14.91,0,27,12.09,27,27V94.5z"/>
	<defs>
		<filter id="Adobe_OpacityMaskFilter_6_" filterUnits="userSpaceOnUse" x="135" y="202.5" width="54" height="54">
			<feColorMatrix  type="matrix" values="1 0 0 0 0  0 1 0 0 0  0 0 1 0 0  0 0 0 1 0"/>
		</filter>
	</defs>
	<mask maskUnits="userSpaceOnUse" x="135" y="202.5" width="54" height="54" id="mask-2_2_">
		<g style="filter:url(#Adobe_OpacityMaskFilter_6_);">
			<polygon id="path-1_2_" style="fill-rule:evenodd;clip-rule:evenodd;fill:#FFFFFF;" points="0,256.5 1012.98,256.5 1012.98,0 
				0,0 			"/>
		</g>
	</mask>
	<path id="Fill-15" style="mask:url(#mask-2_2_);fill-rule:evenodd;clip-rule:evenodd;fill:#ECB22E;" d="M162,202.5
		c14.91,0,27,12.09,27,27s-12.09,27-27,27c-14.91,0-27-12.09-27-27v-27H162z"/>
	<defs>
		<filter id="Adobe_OpacityMaskFilter_7_" filterUnits="userSpaceOnUse" x="135" y="135" width="121.5" height="54">
			<feColorMatrix  type="matrix" values="1 0 0 0 0  0 1 0 0 0  0 0 1 0 0  0 0 0 1 0"/>
		</filter>
	</defs>
	<mask maskUnits="userSpaceOnUse" x="135" y="135" width="121.5" height="54" id="mask-2_1_">
		<g style="filter:url(#Adobe_OpacityMaskFilter_7_);">
			<polygon id="path-1_1_" style="fill-rule:evenodd;clip-rule:evenodd;fill:#FFFFFF;" points="0,256.5 1012.98,256.5 1012.98,0 
				0,0 			"/>
		</g>
	</mask>
	<path id="Fill-16" style="mask:url(#mask-2_1_);fill-rule:evenodd;clip-rule:evenodd;fill:#ECB22E;" d="M162,189
		c-14.91,0-27-12.09-27-27s12.09-27,27-27h67.5c14.91,0,27,12.09,27,27s-12.09,27-27,27H162z"/>
</g>
</svg>
