<?xml version="1.0"?>
<svg xmlns="http://www.w3.org/2000/svg" xmlns:xlink="http://www.w3.org/1999/xlink" xmlns:svgjs="http://svgjs.com/svgjs" version="1.1" width="512" height="512" x="0" y="0" viewBox="0 0 512 512" style="enable-background:new 0 0 512 512" xml:space="preserve" class=""><g><path xmlns="http://www.w3.org/2000/svg" d="m512 256c0 141.386719-114.613281 256-256 256s-256-114.613281-256-256 114.613281-256 256-256 256 114.613281 256 256zm0 0" fill="#f1f1f1" data-original="#d2e3f1" style="" class=""/><path xmlns="http://www.w3.org/2000/svg" d="m512 256c0-8.046875-.390625-16.003906-1.117188-23.863281l-128.125-128.125-54.007812 54.003906-34.132812-34.128906-165.371094 165.371093 34.582031 34.582032-1.042969 1.042968 24.773438 24.769532-58.332032 58.332031 102.894532 102.898437c7.863281.726563 15.824218 1.117188 23.878906 1.117188 141.386719 0 256-114.613281 256-256zm0 0" fill="#f1f1f1" data-original="#a5c6e3" style="" class=""/><path xmlns="http://www.w3.org/2000/svg" d="m243.15625 318.9375v-38.59375h47.5v8.90625c0 9.820312 7.988281 17.8125 17.8125 17.8125zm0 0" fill="#134a79" data-original="#134a79" style=""/><path xmlns="http://www.w3.org/2000/svg" d="m221.34375 280.34375v8.90625c0 9.820312-7.988281 17.8125-17.8125 17.8125l52.46875 11.875v-38.59375zm0 0" fill="#185e98" data-original="#185e98" style=""/><path xmlns="http://www.w3.org/2000/svg" d="m382.765625 244.71875v-140.71875h-126.765625l-41.5625 169.21875zm0 0" fill="#092339" data-original="#092339" style="" class=""/><path xmlns="http://www.w3.org/2000/svg" d="m256 104h-126.765625v140.71875l126.765625 28.5zm0 0" fill="#0e3759" data-original="#0e3759" style="" class=""/><path xmlns="http://www.w3.org/2000/svg" d="m382.765625 244.71875h-126.765625l-23.75 22.265625 23.75 22.265625h126.765625zm0 0" fill="#4a8dc6" data-original="#4a8dc6" style="" class=""/><path xmlns="http://www.w3.org/2000/svg" d="m129.234375 244.71875h126.765625v44.53125h-126.765625zm0 0" fill="#77aad4" data-original="#77aad4" style=""/><path xmlns="http://www.w3.org/2000/svg" d="m256 307.0625-17.8125 8.90625 17.8125 8.90625h93.21875v-17.8125zm0 0" fill="#092339" data-original="#092339" style="" class=""/><path xmlns="http://www.w3.org/2000/svg" d="m162.78125 307.0625h93.21875v17.8125h-93.21875zm0 0" fill="#0e3759" data-original="#0e3759" style="" class=""/><path xmlns="http://www.w3.org/2000/svg" d="m256 342.6875-17.8125 32.65625 17.8125 32.65625h126.765625v-65.3125zm0 0" fill="#4a8dc6" data-original="#4a8dc6" style="" class=""/><path xmlns="http://www.w3.org/2000/svg" d="m129.234375 342.6875h126.765625v65.3125h-126.765625zm0 0" fill="#77aad4" data-original="#77aad4" style=""/><path xmlns="http://www.w3.org/2000/svg" d="m256 360.5-17.8125 14.84375 17.8125 14.84375h55.515625v-29.6875zm0 0" fill="#185e98" data-original="#185e98" style=""/><path xmlns="http://www.w3.org/2000/svg" d="m147.046875 360.5h108.953125v29.6875h-108.953125zm0 0" fill="#4a8dc6" data-original="#4a8dc6" style="" class=""/><path xmlns="http://www.w3.org/2000/svg" d="m329.328125 360.5h35.625v29.6875h-35.625zm0 0" fill="#77aad4" data-original="#77aad4" style=""/></g></svg>
