<?xml version="1.0" encoding="utf-8"?>
<svg version="1.1" id="Layer_1" xmlns="http://www.w3.org/2000/svg" xmlns:xlink="http://www.w3.org/1999/xlink" x="0px" y="0px"
	width="100px" height="100px" viewBox="0 0 66.7 66.7" style="enable-background:new 0 0 66.7 66.7;" xml:space="preserve">
<g>
	<path style="fill:#E8E8E8;" d="M33.3,0c18.4,0,33.3,14.9,33.3,33.3c0,18.4-14.9,33.3-33.3,33.3C14.9,66.7,0,51.7,0,33.3
		C0,14.9,14.9,0,33.3,0"/>
	<path style="fill:#FFFFFF;" d="M33.3,0.7c18,0,32.7,14.6,32.7,32.7C66,51.4,51.4,66,33.3,66c-18,0-32.7-14.6-32.7-32.7
		C0.7,15.3,15.3,0.7,33.3,0.7"/>
	<path style="fill:#1A5DAD;" d="M57.3,35.5c-0.3,0-0.5-0.1-0.8-0.2C56,35.1,55.6,35,55,35c-0.5,0-0.9,0.2-1.2,0.2
		c-0.3,0.2-0.5,0.2-0.9,0.2c-0.5,0-0.8-0.1-1.1-0.2C51.5,35,51.2,35,50.7,35c-0.5,0-0.8,0.2-1.1,0.2c-0.3,0.2-0.6,0.2-1.2,0.2
		c-0.5,0-0.8-0.2-1.1-0.2C47.1,35,46.8,35,46.4,35c-0.5,0-0.8,0.2-1.2,0.2c-0.3,0.2-0.6,0.2-1.1,0.2c-0.5,0-0.8-0.1-1.1-0.2
		C42.7,35,42.4,35,41.9,35c-0.5,0-0.8,0.2-1.2,0.2c-0.3,0.2-0.6,0.2-1.1,0.2c-0.5,0-0.8-0.1-1.1-0.2C38.3,35,38,35,37.5,35
		s-0.9,0.2-1.2,0.3c-0.3,0.1-0.6,0.2-0.9,0.2c-0.3,0-0.6-0.1-0.9-0.2c-0.4-0.2-0.8-0.2-1.2-0.2c-0.5,0-0.8,0.2-1.2,0.2
		c-0.3,0.2-0.6,0.2-1,0.2c-0.4,0-0.7-0.1-1.1-0.2c-0.3-0.2-0.7-0.2-1.2-0.2c-0.5,0-0.8,0.2-1.2,0.2c-0.3,0.2-0.6,0.2-1,0.2
		s-0.7-0.1-1.1-0.2c-0.4-0.2-0.8-0.2-1.2-0.2s-0.8,0.2-1.1,0.2c-0.4,0.2-0.7,0.2-1.1,0.2s-0.7-0.1-1.1-0.2c-0.4-0.2-0.7-0.2-1.2-0.2
		c-0.4,0-0.8,0.2-1.1,0.2c-0.4,0.2-0.7,0.2-1.1,0.2c-0.4,0-0.7-0.1-1.1-0.2c-0.3-0.2-0.7-0.2-1.2-0.2s-0.8,0.2-1.2,0.2
		c-0.3,0.1-0.6,0.2-0.9,0.2c-0.3,0-0.6-0.1-0.9-0.2c-0.4-0.2-0.8-0.2-1.2-0.2c-0.7,0-1.6,0.3-2.1,0.5v0.6c0.2-0.1,1.4-0.5,2.1-0.5
		c0.4,0,0.7,0.2,1.1,0.2c0.4,0.2,0.7,0.2,1.1,0.2c0.4,0,0.8-0.2,1.1-0.2c0.4-0.2,0.7-0.2,1.1-0.2c0.4,0,0.6,0.1,0.9,0.2
		c0.4,0.2,0.8,0.2,1.2,0.2c0.5,0,0.9-0.2,1.2-0.2c0.3-0.1,0.6-0.2,0.9-0.2c0.3,0,0.6,0.1,1,0.2c0.4,0.2,0.8,0.2,1.2,0.2
		c0.5,0,0.8-0.2,1.2-0.2c0.3-0.1,0.6-0.2,0.9-0.2s0.6,0.1,1,0.2c0.4,0.2,0.8,0.2,1.2,0.2s0.8-0.2,1.2-0.2c0.3-0.1,0.7-0.2,1-0.2
		c0.4,0,0.7,0.1,1,0.2c0.4,0.2,0.7,0.2,1.2,0.2c0.5,0,0.8-0.2,1.2-0.2c0.3-0.1,0.6-0.2,1-0.2c0.4,0,0.8,0.2,1.1,0.2
		c0.4,0.2,0.7,0.2,1.1,0.2c0.4,0,0.8-0.2,1.1-0.2c0.3-0.2,0.7-0.2,1.1-0.2c0.4,0,0.6,0.1,0.9,0.2c0.3,0.2,0.7,0.2,1.2,0.2
		c0.5,0,0.9-0.2,1.2-0.2c0.3-0.1,0.5-0.2,1-0.2c0.4,0,0.7,0.1,0.9,0.2c0.3,0.2,0.7,0.2,1.2,0.2c0.5,0,0.9-0.2,1.2-0.2
		c0.3-0.2,0.5-0.2,0.9-0.2c0.4,0,0.6,0.1,0.9,0.2c0.4,0.2,0.9,0.3,1.3,0.3c0.5,0,0.9-0.1,1.3-0.3c0.3-0.1,0.5-0.2,0.9-0.2
		c0.4,0,0.6,0.1,0.9,0.2c0.3,0.2,0.7,0.2,1.2,0.2c0.5,0,0.8-0.2,1.2-0.2c0.3-0.2,0.5-0.2,1.1-0.2c0.5,0,0.9,0.2,1.2,0.2
		c0.3,0.1,0.6,0.2,1,0.2V35.5z"/>
	<path style="fill:#547CC2;" d="M57.3,36.9c-0.3,0-0.5-0.1-0.8-0.2c-0.4-0.2-0.8-0.3-1.4-0.3c-0.5,0-0.9,0.2-1.2,0.2
		c-0.3,0.2-0.5,0.2-0.9,0.2c-0.5,0-0.8-0.1-1.1-0.2c-0.3-0.2-0.6-0.2-1.1-0.2c-0.5,0-0.8,0.2-1.1,0.2c-0.3,0.2-0.6,0.2-1.2,0.2
		c-0.5,0-0.8-0.2-1.1-0.2c-0.3-0.2-0.6-0.2-1.1-0.2c-0.5,0-0.8,0.2-1.2,0.2c-0.3,0.2-0.6,0.2-1.1,0.2c-0.5,0-0.8-0.1-1.1-0.2
		c-0.3-0.2-0.6-0.2-1.2-0.2c-0.5,0-0.8,0.2-1.2,0.2c-0.3,0.2-0.6,0.2-1.1,0.2c-0.5,0-0.8-0.1-1.1-0.2c-0.3-0.2-0.6-0.2-1.1-0.2
		s-0.9,0.2-1.2,0.3c-0.3,0.1-0.6,0.2-0.9,0.2c-0.3,0-0.6-0.1-0.9-0.2c-0.4-0.2-0.8-0.2-1.2-0.2c-0.5,0-0.8,0.2-1.2,0.2
		c-0.3,0.2-0.6,0.2-1,0.2c-0.4,0-0.7-0.1-1.1-0.2c-0.3-0.2-0.7-0.2-1.2-0.2c-0.5,0-0.8,0.2-1.2,0.2c-0.3,0.2-0.6,0.2-1,0.2
		s-0.7-0.1-1.1-0.2s-0.8-0.2-1.2-0.2s-0.8,0.2-1.1,0.2c-0.4,0.2-0.7,0.2-1.1,0.2s-0.7-0.1-1.1-0.2c-0.4-0.2-0.7-0.2-1.2-0.2
		c-0.4,0-0.8,0.2-1.1,0.2c-0.4,0.2-0.7,0.2-1.1,0.2c-0.4,0-0.7-0.1-1.1-0.2c-0.3-0.2-0.7-0.2-1.2-0.2s-0.8,0.2-1.2,0.2
		c-0.3,0.1-0.6,0.2-0.9,0.2c-0.3,0-0.6-0.1-0.9-0.2c-0.4-0.2-0.8-0.2-1.2-0.2c-0.7,0-1.6,0.3-2.1,0.5v0.6c0.2-0.1,1.4-0.5,2.1-0.5
		c0.4,0,0.7,0.2,1.1,0.2c0.4,0.2,0.7,0.2,1.1,0.2c0.4,0,0.8-0.2,1.1-0.2c0.4-0.2,0.7-0.2,1.1-0.2c0.4,0,0.6,0.1,0.9,0.2
		c0.4,0.2,0.8,0.2,1.2,0.2c0.5,0,0.9-0.2,1.2-0.2c0.3-0.1,0.6-0.2,0.9-0.2c0.3,0,0.6,0.1,1,0.2s0.8,0.2,1.2,0.2
		c0.5,0,0.8-0.2,1.2-0.2c0.3-0.1,0.6-0.2,0.9-0.2s0.6,0.1,1,0.2c0.4,0.2,0.8,0.2,1.2,0.2s0.8-0.2,1.2-0.2c0.3-0.1,0.7-0.2,1-0.2
		c0.4,0,0.7,0.1,1,0.2c0.4,0.2,0.7,0.2,1.2,0.2c0.5,0,0.8-0.2,1.2-0.2c0.3-0.1,0.6-0.2,1-0.2c0.4,0,0.8,0.2,1.1,0.2
		c0.4,0.2,0.7,0.2,1.1,0.2c0.4,0,0.8-0.2,1.1-0.2c0.3-0.2,0.7-0.2,1.1-0.2c0.4,0,0.6,0.1,0.9,0.2c0.3,0.2,0.7,0.2,1.2,0.2
		c0.5,0,0.9-0.2,1.2-0.2c0.3-0.1,0.5-0.2,1-0.2c0.4,0,0.7,0.1,0.9,0.2c0.3,0.2,0.7,0.2,1.2,0.2c0.5,0,0.9-0.2,1.2-0.2
		c0.3-0.2,0.5-0.2,0.9-0.2c0.4,0,0.6,0.1,0.9,0.2c0.4,0.2,0.9,0.3,1.3,0.3c0.5,0,0.9-0.1,1.3-0.3c0.3-0.1,0.5-0.2,0.9-0.2
		c0.4,0,0.6,0.1,0.9,0.2c0.3,0.2,0.7,0.2,1.2,0.2c0.5,0,0.8-0.2,1.2-0.2c0.3-0.2,0.5-0.2,1.1-0.2c0.5,0,0.9,0.2,1.2,0.2
		c0.3,0.1,0.6,0.2,1,0.2V36.9z"/>
	<path style="fill:#97AADA;" d="M57.3,38.3c-0.3,0-0.5-0.1-0.8-0.2c-0.4-0.2-0.8-0.3-1.4-0.3c-0.5,0-0.9,0.2-1.2,0.2
		c-0.3,0.2-0.5,0.2-0.9,0.2c-0.5,0-0.8-0.1-1.1-0.2c-0.3-0.2-0.6-0.2-1.1-0.2c-0.5,0-0.8,0.2-1.1,0.2c-0.3,0.2-0.6,0.2-1.2,0.2
		c-0.5,0-0.8-0.2-1.1-0.2c-0.3-0.2-0.6-0.2-1.1-0.2c-0.5,0-0.8,0.2-1.2,0.2c-0.3,0.2-0.6,0.2-1.1,0.2c-0.5,0-0.8-0.1-1.1-0.2
		c-0.3-0.2-0.6-0.2-1.2-0.2c-0.5,0-0.8,0.2-1.2,0.2c-0.3,0.2-0.6,0.2-1.1,0.2c-0.5,0-0.8-0.1-1.1-0.2c-0.3-0.2-0.6-0.2-1.1-0.2
		s-0.9,0.2-1.2,0.3c-0.3,0.1-0.6,0.2-0.9,0.2c-0.3,0-0.6-0.1-0.9-0.2c-0.4-0.2-0.8-0.2-1.2-0.2c-0.5,0-0.8,0.2-1.2,0.2
		c-0.3,0.2-0.6,0.2-1,0.2c-0.4,0-0.7-0.1-1.1-0.2c-0.3-0.2-0.7-0.2-1.2-0.2c-0.5,0-0.8,0.2-1.2,0.2c-0.3,0.2-0.6,0.2-1,0.2
		S26,38.2,25.6,38c-0.4-0.2-0.8-0.2-1.2-0.2S23.7,38,23.4,38c-0.4,0.2-0.7,0.2-1.1,0.2s-0.7-0.1-1.1-0.2c-0.4-0.2-0.7-0.2-1.2-0.2
		c-0.4,0-0.8,0.2-1.1,0.2c-0.4,0.2-0.7,0.2-1.1,0.2c-0.4,0-0.7-0.1-1.1-0.2c-0.3-0.2-0.7-0.2-1.2-0.2S14.9,38,14.5,38
		c-0.3,0.1-0.6,0.2-0.9,0.2c-0.3,0-0.6-0.1-0.9-0.2c-0.4-0.2-0.8-0.2-1.2-0.2c-0.7,0-1.6,0.3-2.1,0.5v0.6c0.2-0.1,1.4-0.5,2.1-0.5
		c0.4,0,0.7,0.2,1.1,0.2c0.4,0.2,0.7,0.2,1.1,0.2c0.4,0,0.8-0.2,1.1-0.2c0.4-0.2,0.7-0.2,1.1-0.2c0.4,0,0.6,0.1,0.9,0.2
		c0.4,0.2,0.8,0.2,1.2,0.2c0.5,0,0.9-0.2,1.2-0.2c0.3-0.1,0.6-0.2,0.9-0.2c0.3,0,0.6,0.1,1,0.2c0.4,0.2,0.8,0.2,1.2,0.2
		c0.5,0,0.8-0.2,1.2-0.2c0.3-0.1,0.6-0.2,0.9-0.2s0.6,0.1,1,0.2c0.4,0.2,0.8,0.2,1.2,0.2s0.8-0.2,1.2-0.2c0.3-0.1,0.7-0.2,1-0.2
		c0.4,0,0.7,0.1,1,0.2c0.4,0.2,0.7,0.2,1.2,0.2c0.5,0,0.8-0.2,1.2-0.2c0.3-0.1,0.6-0.2,1-0.2c0.4,0,0.8,0.2,1.1,0.2
		c0.4,0.2,0.7,0.2,1.1,0.2c0.4,0,0.8-0.2,1.1-0.2c0.3-0.2,0.7-0.2,1.1-0.2c0.4,0,0.6,0.1,0.9,0.2c0.3,0.2,0.7,0.2,1.2,0.2
		c0.5,0,0.9-0.2,1.2-0.2c0.3-0.1,0.5-0.2,1-0.2c0.4,0,0.7,0.1,0.9,0.2c0.3,0.2,0.7,0.2,1.2,0.2c0.5,0,0.9-0.2,1.2-0.2
		c0.3-0.2,0.5-0.2,0.9-0.2c0.4,0,0.6,0.1,0.9,0.2c0.4,0.2,0.9,0.3,1.3,0.3c0.5,0,0.9-0.1,1.3-0.3c0.3-0.1,0.5-0.2,0.9-0.2
		c0.4,0,0.6,0.1,0.9,0.2c0.3,0.2,0.7,0.2,1.2,0.2c0.5,0,0.8-0.2,1.2-0.2c0.3-0.2,0.5-0.2,1.1-0.2c0.5,0,0.9,0.2,1.2,0.2
		c0.3,0.1,0.6,0.2,1,0.2V38.3z"/>
	<path style="fill:#009B68;" d="M33.6,22.8C33.6,22.8,33.5,22.8,33.6,22.8c-0.1-0.1-0.2-0.1-0.2,0c0,0.2-0.1,0.4,0.1,0.5
		c0.2,0.1,0.3-0.2,0.4-0.3C33.9,22.9,33.7,22.9,33.6,22.8 M33.6,21.1c-0.1,0.1-0.1,0.1-0.1,0.2s-0.2,0.2-0.1,0.3
		c0.1,0.1,0.2,0.2,0.3,0.2c0.2-0.2,0.3-0.3,0.5-0.5v-0.1C34,21.1,33.8,20.9,33.6,21.1 M32.5,21.3L32.5,21.3c-0.2,0.4,0,0.5,0.2,0.5
		c0.2,0,0.2-0.3,0.2-0.4C32.8,21.2,32.6,21.2,32.5,21.3 M46.4,28.9c0.1,0,0.2,0.1,0.3,0l0.1-0.1c-0.2-0.2-0.2-0.4-0.1-0.6
		c0.2-0.2,0.4-0.2,0.6-0.2l0.1-0.1l-0.1-0.1c-0.3-0.1-0.7-0.2-0.9-0.2c-0.1,0-0.2,0-0.3,0.1c-0.2,0-0.5-0.1-0.6-0.2
		c-0.2-0.2-0.4-0.2-0.8-0.1c-0.1,0.1-0.2,0.1-0.3,0.2c-0.1,0.1-0.1,0.1-0.2,0.1c-0.1,0-0.3,0.1-0.2,0.2c0.2,0.3,0.5,0.2,0.8,0.4
		L46.4,28.9z M39.2,26.5L41,27l1.8,0.5c0.3,0.1,0.7,0.1,0.8-0.2c0.1-0.1-0.2-0.3-0.1-0.5c0.1-0.1,0.2-0.2,0.1-0.2
		c-0.1-0.2-0.5,0-0.7-0.2c-0.1-0.1-0.2-0.2-0.2-0.2c-0.2,0-0.2,0.1-0.4,0.1c-0.2,0-0.5,0.1-0.6,0c-0.2-0.1-0.1-0.2-0.4-0.2
		c-0.2,0-0.4,0.2-0.5,0.2c-0.2-0.1-0.3-0.2-0.5-0.2c-0.3-0.1-0.5-0.2-0.8-0.2c-0.2,0-0.3,0.2-0.5,0.4C39,26.5,39.1,26.5,39.2,26.5
		 M38.3,26.4c0.2-0.1,0.3-0.2,0.4-0.2c0.2-0.1,0.4-0.2,0.4-0.4c0-0.1-0.1-0.1-0.2-0.1c-0.2-0.1-0.2-0.3-0.3-0.4
		c-0.2-0.1-0.6,0.2-0.7-0.1c0-0.1-0.1-0.2-0.2-0.2c-0.2-0.1-0.2,0-0.2,0c-0.2,0-0.4-0.4-0.6-0.2c0,0-0.1,0.1-0.2,0.1
		c-0.2,0.1-0.2,0.2-0.8,0c-0.2,0-0.2,0.2-0.3,0.2h-0.5c-0.1,0-0.2-0.1-0.3-0.1c-0.2,0-0.6,0.6-0.5,1.1L38.3,26.4
		C38.2,26.4,38.2,26.4,38.3,26.4 M33.8,25.4c0.1-0.1,0.2-0.2,0.2-0.3c0-0.2-0.3-0.2-0.4-0.1S33.7,25.4,33.8,25.4
		C33.8,25.6,33.8,25.4,33.8,25.4 M32.1,25.4v-0.2L32,25.1C31.8,25.1,31.8,25.3,32.1,25.4C32,25.4,32.1,25.5,32.1,25.4 M28.1,25.5
		c-0.2-0.1-0.2-0.3-0.4-0.3c-0.2-0.1-0.4,0.1-0.5,0.1c-0.1,0-0.1,0.2-0.2,0.3c-0.1,0.2-0.5,0.3-0.5,0.5c0.1,0.5,0.8,0.5,1.3,0.7
		c0.5,0.1,1,0,1.5-0.2c-0.1-0.4-0.5-0.5-0.7-0.8C28.7,25.4,28.4,25.7,28.1,25.5 M30.1,25.6c-0.2,0-0.4-0.3-0.5-0.2
		c0,0-0.1,0.1,0,0.2c0.3,0.2,0.5,0.6,0.8,0.7c0.4,0.1,0.9,0.1,1.3-0.1c-0.2-0.3-0.4-0.6-0.8-0.8c-0.1-0.1-0.2,0.1-0.2,0.1
		C30.6,25.6,30.4,25.7,30.1,25.6 M21.9,27.7l1.2,0.5c0.2,0.1,0.4,0,0.5-0.1c1-0.5,2.1-0.5,3.1-1.1c-0.2-0.2-0.5-0.4-0.8-0.6
		c-0.2-0.1-0.2-0.1-0.4-0.1c-0.2,0.1-0.4,0-0.6,0c-0.2-0.1-0.4,0.2-0.5,0.2h-0.2c-0.2,0.2-0.3,0.5-0.6,0.5c-0.2,0-0.3-0.2-0.5-0.2
		c-0.2,0.1-0.2,0.3-0.5,0.4c-0.2,0.1-0.4-0.2-0.5-0.1c-0.2,0.2-0.3,0.3-0.5,0.4c-0.1,0-0.1,0.1,0,0.2C21.8,27.6,21.9,27.6,21.9,27.7
		 M17.9,30.1c1.6-0.3,2.9-0.9,4.4-1.5c-0.4-0.4-1-0.5-1.5-0.7c-0.2-0.1-0.4-0.1-0.5,0c-0.2,0.1-0.2,0.2-0.3,0.3
		c-0.2,0.2-0.5,0.1-0.6,0.2c-0.4,0.2-0.8,0.4-1.3,0.2c0,0-0.2,0.1-0.1,0.2c0.2,0.1,0.2,0.2,0.1,0.4c-0.1,0.1-0.2,0.2-0.2,0.2
		c-0.3,0.2-0.6,0-0.9,0.2l-0.5,0.2c-0.1,0.1-0.2,0.2,0,0.3C16.9,30.1,17.4,30.2,17.9,30.1 M16.4,30.6c-0.2-0.2-0.5-0.4-0.8-0.3
		c-0.2,0.1-0.5,0.1-0.8,0.2c-0.1,0-0.1,0.1-0.1,0.2C15.3,30.8,15.9,30.8,16.4,30.6 M41,22.8c-0.2,0.4-1,0.4-1.3,0.1
		c-0.1,0.2-0.3,0.2-0.3,0.3c0.1,0.3,0.4,0.5,0.6,0.6c0.3,0.2,0.7,0.2,1,0.4c0.3-0.2,0.7-0.2,1-0.1c0.1,0,0.4,0,0.4-0.2
		c0.1-0.2,0.2-0.3,0.3-0.3c0.5-0.2,1-0.2,1.4,0.2c0.2,0,0.4,0,0.5,0c0.3,0.2,0.2,0.3,0.4,0.3l0.5-0.1c0.2,0.1,0.2,0.1,0.3,0.2
		c0.2,0.1,0.2,0.3,0.2,0.5c0,0.2-0.2,0.2-0.2,0.4c0.1,0.2,0.2-0.1,0.4-0.1h0.3c0.3,0.1,0.5,0.2,0.7,0.5c0.1,0.1,0.4,0,0.5,0.1
		c0.2,0.1,0.4,0.2,0.5,0.5c0.3-0.2,0.8-0.3,1.1,0c0.1,0.1,0.1,0.4,0.4,0.5c0.2,0.1,0.5-0.1,0.7,0c0.2,0,0.3,0.3,0.4,0.3
		c0.4,0.2,0.8-0.1,1.2,0.2c0.2,0.1,0.4,0.3,0.4,0.5c0,0.3-0.2,0.5-0.4,0.6v0.1c0.2,0,0.4,0,0.5,0.2c0.1,0.1,0.2,0.2,0.2,0.2
		c0.4,0,0.9-0.1,1.2,0.2c0.1,0,0.1,0.1,0.2,0c0.2-0.1,0.4-0.2,0.7-0.1c0.2,0.1,0.3,0.3,0.2,0.5L55,29.3c0,0.1-0.1,0.2,0,0.2
		c0.3,0,0.6,0,0.7,0.3c0.1,0.3,0,0.6-0.3,0.8c-0.3,0.2-0.7,0.1-1.1-0.1c-0.1,0-0.3,0.1-0.4,0.2c-0.2,0.1-0.2,0-0.4-0.1
		c-0.1,0-0.2,0-0.3,0.1c-0.1,0.1-0.1,0.1-0.2,0.1c-0.2,0-0.4-0.2-0.5-0.4h-0.2c-0.5,0.3-1.2,0.2-1.7-0.2c-0.5,0.3-1.2,0.2-1.6-0.2
		c-0.2,0.2-0.3,0.3-0.7,0.3c-0.5-0.1-0.6-0.5-0.6-0.5c-1,0.2-1.9-0.2-2.8-0.4c-0.8-0.2-1.5-0.4-2.2-0.7c-1-0.4-2-0.6-3.1-0.8
		c-0.8-0.2-1.7-0.3-2.5-0.3c-0.8,0-1.5-0.2-2.3,0.1c-0.2,0-0.2,0.2-0.3,0.2c-0.2,0.2-0.4,0.5-0.4,0.8c-0.1,0.5-0.2,0.8-0.2,1.3v0.2
		c-0.1,0.8-0.2,1.8,0.2,2.6l0.2,0.5c0.2,0.2,0.2,0.4,0.5,0.5c0.5,0.2,0.9,0.2,1.5,0.3c0.1,0,0.2,0,0.2,0.1L36.4,34
		c-0.5,0-1,0-1.5-0.1c-0.2,0-0.5,0.1-0.7,0c-0.1,0-0.2-0.1-0.2-0.1c-0.2,0-0.2,0.1-0.4,0.1l-0.1-0.1h-0.5c-0.2,0-0.5,0.1-0.7,0
		c0-0.1,0-0.1-0.1-0.1s-0.2,0-0.2,0.1c-0.2,0.1-0.3-0.1-0.4-0.1c-0.8,0.4-1.5,0.2-2.3,0.1c-0.3,0-0.6,0.1-1,0.1
		c-0.1,0-0.1-0.1,0-0.1c0.1-0.1,0.2,0,0.3-0.1c0.2-0.1,0.2-0.4,0.4-0.4c0,0.2,0.1,0.2,0.2,0.2c0.2-0.1,0.2-0.4,0.2-0.5
		c0-0.1,0.1-0.2,0.2-0.1c0.1,0.2-0.1,0.4,0,0.6l0.1,0.1c0.2-0.1,0.1-0.3,0.1-0.5h0.1c0.1,0.2,0,0.5,0.2,0.5c0.2,0.1,0.2,0.1,0.4,0.1
		c0.2,0.1,0.5,0,0.6-0.1c0.2-0.2,0.5-0.3,0.6-0.6c0.2-0.4,0.3-0.8,0.4-1.2c0.2-0.9,0.1-1.8,0-2.8c-0.1-0.5-0.1-0.9-0.4-1.2
		c-0.2-0.1-0.2-0.2-0.4-0.2c-1-0.2-2,0.1-3,0.2c-1,0.2-1.8,0.4-2.8,0.6c-0.6,0.2-1.2,0.3-1.8,0.6l-4.5,1.7c-0.8,0.3-1.8,0.5-2.7,0.5
		c-0.7,0.1-1.5,0.1-2.2,0c-0.2,0-0.4-0.1-0.5,0c-0.3,0.3-0.8,0.2-1.2,0.2c-0.2,0.1-0.2,0.5-0.6,0.5c-0.1,0-0.1,0-0.3,0.1
		c-0.2,0-0.8,0.1-0.9-0.5c-0.1-0.2,0-0.4,0-0.5c0.2-0.8,0.7-0.4,0.8-0.7c0-0.1,0-0.2,0.1-0.3l0.2-0.2c0.2-0.2,0.1-0.6-0.2-0.9
		c-0.1-0.2,0-0.5,0.2-0.5c0.2-0.1,0.4-0.2,0.5-0.3c0.1-0.2,0.2-0.4,0.3-0.5c0.3-0.2,0.6-0.2,0.9-0.2c0.2,0,0.2,0.2,0.4,0.2
		c0.1,0,0.2-0.1,0.3-0.2c0.1-0.2,0-0.4,0.1-0.6c0.1-0.2,0.2-0.2,0.5-0.3c0.2,0,0.3,0.2,0.4,0c0.1-0.5,0.4-0.7,0.8-0.9
		c0.2-0.1-0.1-0.4,0-0.5c0.1-0.2,0.2-0.4,0.4-0.4c0.2-0.1,0.3-0.1,0.5-0.1c0.4,0,0.4,0.2,0.5,0.2c0.2-0.4,0.5-0.5,0.8-0.4
		c0.3,0.1,0.3,0.4,0.5,0.5c0.2,0.1,0.5,0,0.5-0.2c0-0.2-0.2-0.2-0.2-0.6c0.1-0.2,0.2-0.2,0.3-0.3c0.3-0.2,0.6,0,0.9,0.1
		c0.4,0.2,0.8-0.3,1.2-0.2c0.2-0.2,0.3-0.5,0.6-0.5c0.3-0.1,0.7-0.2,1,0.2c0,0.1,0.2-0.2,0.3,0c0.2,0,0.3,0.2,0.5,0.2
		c0.1,0,0.1-0.1,0.2-0.2c-0.4-0.2-0.3-0.8-0.2-1.2c0.1-0.3,0.5-0.5,0.6-0.4c0.1,0,0.3,0,0.4,0.1c0.1-0.2,0.3-0.2,0.4-0.2
		c0.1-0.2,0-0.5,0.2-0.7c0.2-0.2,0.5-0.2,0.8-0.2c0.2,0,0.5,0.1,0.5-0.2c0.1-0.2,0.3-0.2,0.4-0.4c0.1-0.4,0.6-0.4,0.7-0.7
		c0-0.1,0-0.2,0.2-0.3c0.1-0.2,0.4-0.1,0.4-0.2c0-0.2,0.2-0.3,0.3-0.4c0.1-0.1,0.2,0,0.3,0.1c0.2,0.1,0.4-0.1,0.4-0.1h0.2l0.2,0.1
		c0.2,0.2,0.4-0.2,0.5-0.3c0.2-0.2,0.5-0.5,0.8-0.4c0.2-0.5,0.6-0.5,1-0.3c0.4-0.3,0.9-0.3,1.4-0.2c0.2,0.1,0.5,0.2,0.5,0.5
		c0.5-0.2,1-0.2,1.5-0.1c0.3,0.1,0.7,0.5,0.5,0.8c0.3,0.2,1.1,0.2,0.6,0.8c-0.1,0.2,0.2,0.1,0.4,0.1c0.1,0,0.2,0.2,0.2,0.2
		c0,0.2,0,0.3,0.1,0.3c0.2,0.1,0.4,0,0.6,0.2c0.2,0.1,0.2,0.2,0.2,0.5c0,0.1,0.1,0.1,0.2,0.1c0.1,0,0.1-0.1,0.2-0.2
		c0.2-0.2,0.5-0.1,0.5,0.1c0,0.2,0.2,0.3,0.2,0.3c0.3,0,0.6-0.1,0.9,0.1c0.2,0.1,0.2,0.3,0.2,0.4c0.2,0.2,0.7,0.2,0.7,0.2
		c0.2,0,0.2,0.2,0.4,0.5C41.4,22.3,41,22.8,41,22.8"/>
	<path style="fill:#1A5DAD;" d="M12.3,41.6c0-0.2-0.1-0.3-0.2-0.5c-0.2-0.1-0.3-0.2-0.5-0.2c-0.3,0-0.6,0.2-0.6,0.5
		c0,0.4,0.5,0.5,0.8,0.5c0.8,0.2,2,0.3,2,1.6c0,1-1,1.5-2.2,1.5c-1.2,0-2.1-0.3-2.1-1.7h1.4c0,0.5,0.3,0.7,0.8,0.7
		c0.3,0,0.7-0.2,0.7-0.5c0-0.7-1-0.5-2.1-1c-0.5-0.2-0.8-0.7-0.8-1.2c0.1-1.2,1.1-1.5,2.1-1.5c1,0,2.1,0.4,2,1.5L12.3,41.6
		L12.3,41.6z M16.6,42.4c0.5,0,0.8-0.2,0.8-0.6c0-0.4-0.2-0.6-0.8-0.6h-0.7v1.2H16.6z M14.6,45.2v-4.9h2.2c1.2,0,2,0.4,2,1.6
		c0,1.2-0.8,1.6-2,1.6h-0.9v1.8L14.6,45.2L14.6,45.2z M19.5,45.2v-4.9h3.8v0.9h-2.4v1h2.2v0.9h-2.2v1.1h2.4v0.9L19.5,45.2L19.5,45.2
		z M24,45.2v-4.9h1.4v4h2.2v0.9H24z M28.6,41.2h-1.5v-0.9h4.4v0.9h-1.5v4h-1.4L28.6,41.2L28.6,41.2z M32,45.2v-4.9h1.4v1.9h1.7v-1.9
		h1.4v4.9h-1.4v-2h-1.7v2H32z M39.7,41.1c-0.9,0-1.2,0.8-1.2,1.6c0,0.7,0.2,1.6,1.2,1.6c0.9,0,1.2-0.8,1.2-1.6
		C40.8,42,40.6,41.1,39.7,41.1 M37.1,42.7c0-1.6,0.9-2.5,2.5-2.5c1.6,0,2.5,0.9,2.5,2.5c0,1.6-0.9,2.5-2.5,2.5
		C38.1,45.3,37.1,44.3,37.1,42.7 M44.9,42.3c0.5,0,0.8-0.1,0.8-0.5c0-0.5-0.4-0.5-0.8-0.5h-0.5v1.2L44.9,42.3L44.9,42.3z M44.4,45.2
		H43v-4.9h2.3c0.8,0,1.9,0.2,1.9,1.2c0,0.8-0.5,1.2-1.2,1.2c0.8,0,1,0.5,1.2,1.2c0,0.4,0.1,0.8,0.2,1.2h-1.6
		c-0.1-0.3-0.2-0.7-0.2-1.1c-0.1-0.6-0.1-0.8-0.8-0.8h-0.5L44.4,45.2L44.4,45.2z M47.9,40.3h1.9l1.6,3.7v-3.6h1.2v4.9h-1.9L49,41.5
		v3.8h-1.2L47.9,40.3L47.9,40.3z M53.6,45.2v-4.9h3.8v0.9H55v1h2.2v0.9H55v1.1h2.4v0.9L53.6,45.2L53.6,45.2z M9.8,46.8L9.8,46.8v2.3
		H9.4v-2.5H10l1.2,2.2l1.2-2.2h0.6v2.5h-0.4v-2.3l-1.2,2.3H11L9.8,46.8z M14.4,46.5h1.9v0.3h-1.5v0.8h1.5v0.3h-1.5v0.8h1.6V49h-1.9
		L14.4,46.5L14.4,46.5z M19.5,48.1l-0.6-1.3l-0.6,1.3H19.5z M19.7,48.4h-1.5l-0.3,0.7h-0.4l1.3-2.5h0.5l1.3,2.5h-0.4L19.7,48.4z
		 M23.7,46.5h0.4V49h-0.5L22,46.9V49h-0.4v-2.5h0.5l1.5,2.2V46.5z"/>
	<path style="fill:#1A5DAD;" d="M27.3,47.2c0-0.4-0.4-0.5-0.8-0.5c-0.4,0-0.7,0.2-0.7,0.5c0,0.2,0.1,0.3,0.4,0.3l0.9,0.2
		c0.4,0.1,0.6,0.3,0.6,0.6c0,0.5-0.5,0.8-1.2,0.8c-0.7,0-1.2-0.2-1.2-0.8h0.4c0,0.3,0.3,0.5,0.8,0.5c0.5,0,0.8-0.2,0.8-0.5
		c0-0.7-1.9-0.1-1.9-1.2c0-0.5,0.4-0.8,1.1-0.8c0.5,0,1.1,0.2,1.2,0.8H27.3z"/>
	<path style="fill:#1A5DAD;" d="M31.5,48.8h0.8c0.5,0,0.6-0.2,0.6-0.5c0-0.3-0.2-0.5-0.6-0.5h-0.8V48.8z M31.5,47.6h0.9
		c0.3,0,0.5-0.2,0.5-0.4c0-0.2-0.2-0.4-0.6-0.4h-0.8L31.5,47.6L31.5,47.6z M31.1,46.5h1.2c0.7,0,1,0.2,1,0.6c0,0.3-0.2,0.5-0.5,0.5
		c0.4,0.1,0.6,0.3,0.6,0.6c0,0.4-0.3,0.7-1,0.7h-1.3V46.5z M36.8,46.5h0.4V48c0,0.7-0.5,1.1-1.2,1.1c-0.7,0-1.2-0.4-1.2-1.1v-1.5
		h0.4V48c0,0.5,0.3,0.8,0.8,0.8c0.5,0,0.8-0.3,0.8-0.8v-1.5H36.8z"/>
	<path style="fill:#1A5DAD;" d="M40.5,47.2c0-0.4-0.4-0.5-0.8-0.5c-0.4,0-0.7,0.2-0.7,0.5c0,0.2,0.1,0.3,0.4,0.3l0.9,0.2
		c0.4,0.1,0.6,0.3,0.6,0.6c0,0.5-0.5,0.8-1.2,0.8c-0.7,0-1.2-0.2-1.2-0.8h0.4c0,0.3,0.3,0.5,0.8,0.5c0.5,0,0.8-0.2,0.8-0.5
		c0-0.7-1.9-0.1-1.9-1.2c0-0.5,0.4-0.8,1.1-0.8c0.5,0,1.1,0.2,1.2,0.8H40.5z"/>
	<path style="fill:#1A5DAD;" d="M42.3,46.5h0.4V49h-0.4V46.5z M46.2,46.5h0.4V49H46l-1.5-2.2V49h-0.4v-2.5h0.5l1.5,2.2V46.5z
		 M48,46.5H50v0.3h-1.5v0.8h1.5v0.3h-1.5v0.8H50V49h-2V46.5z"/>
	<path style="fill:#1A5DAD;" d="M53.2,47.2c0-0.4-0.4-0.5-0.8-0.5c-0.4,0-0.7,0.2-0.7,0.5c0,0.2,0.1,0.3,0.4,0.3l0.9,0.2
		c0.4,0.1,0.6,0.3,0.6,0.6c0,0.5-0.5,0.8-1.2,0.8c-0.7,0-1.2-0.2-1.2-0.8h0.4c0,0.3,0.3,0.5,0.8,0.5c0.5,0,0.8-0.2,0.8-0.5
		c0-0.7-1.9-0.1-1.9-1.2c0-0.5,0.4-0.8,1.1-0.8c0.5,0,1.1,0.2,1.2,0.8H53.2z"/>
	<path style="fill:#1A5DAD;" d="M56.8,47.2c0-0.4-0.4-0.5-0.8-0.5c-0.4,0-0.7,0.2-0.7,0.5c0,0.2,0.1,0.3,0.4,0.3l0.9,0.2
		c0.4,0.1,0.6,0.3,0.6,0.6c0,0.5-0.5,0.8-1.2,0.8c-0.7,0-1.2-0.2-1.2-0.8h0.4c0,0.3,0.3,0.5,0.8,0.5c0.5,0,0.8-0.2,0.8-0.5
		c0-0.7-1.9-0.1-1.9-1.2c0-0.5,0.4-0.8,1.1-0.8c0.5,0,1.1,0.2,1.2,0.8H56.8z"/>
</g>
</svg>
