<?xml version="1.0" encoding="utf-8"?>
<svg version="1.1" id="Layer_1" xmlns="http://www.w3.org/2000/svg" xmlns:xlink="http://www.w3.org/1999/xlink" x="0px" y="0px"
	width="100px" height="100px" viewBox="0 0 66.7 66.7" style="enable-background:new 0 0 66.7 66.7;" xml:space="preserve">
<g>
	<path d="M33.3,66.7c18.4,0,33.3-14.9,33.3-33.3S51.8,0,33.3,0C14.9,0,0,14.9,0,33.3S14.9,66.7,33.3,66.7L33.3,66.7z"/>
	<g>
		<path style="fill:#FFFFFF;" d="M51.2,50.4L50.3,52c-0.5,0.7-1.3,1.2-2.1,1.4l1.1-3.3c0.3-0.9,0.6-1.5,1.1-1.9h-0.8
			c-0.3,0-0.5,0.1-0.5,0.3c-0.6,1.3-1.4,2.5-2.3,3.7c-0.9,1.1-1.5,0.5-0.9-1l1.3-2.5c0.1-0.2,0.3-0.3,0.5-0.5H47
			c-0.3,0-0.5,0.1-0.5,0.3l-0.8,1.6l-0.1,0.1c-0.1,0-0.1,0.1-0.1,0.1c-0.3,0.6-1.3,2.4-1.9,2.3c-0.2,0-0.3-0.3-0.1-0.9
			c0.3-0.9,0.7-1.9,1.3-2.7c-0.2,0-0.4,0-0.6-0.1c-0.5-0.1-0.7,0.3-1,0.9c-0.3,0.7-0.8,1.4-1.3,2c-0.7,0.8-1.5,0.9-1.3-0.1
			c0.1-0.5,0.3-1,0.6-1.5c0.5-0.9,1.1-1.5,1.9-2c0.5-0.3,1.1-0.1,1.3,0.3c0.3,0.1,0.3-0.2,0.1-0.4c-0.9-0.9-2.5-0.3-3.3,0.7
			c-0.6,0.7-1,1.5-1.1,2.1c-0.4,0.8-0.9,1.5-1.5,1.5c-0.2,0-0.4-0.3-0.3-0.9c0.3-0.8,0.5-1.5,0.9-2.2c0.5-0.9,0.6-1.1,1-1.3h-0.8
			c-0.3-0.1-0.5,0.1-0.5,0.3c-0.5,1.1-1.3,2.7-2.1,3.7c-0.9,1.1-1.5,0.5-0.9-1l0.9-1.8c0.2-0.5,0.5-0.9,0.9-1.1h-0.9
			c-0.3-0.1-0.5,0.1-0.5,0.3l-0.8,1.5l-0.3,0.5c-0.1,0.2,0.1,0.3,0.1,0.3c-0.3,0.5-0.7,1-0.5,1.6c0.1,0.4,0.5,0.7,0.9,0.7
			c0.7,0,1.5-1,1.9-1.8c-0.4,1.1,0,1.8,0.7,1.8c0.7,0,1.2-0.6,1.6-1.3c0,1.2,0.8,1.7,1.8,0.7c0.4-0.4,0.7-0.9,1.1-1.3
			c-0.5,1.5,0.3,1.9,0.7,1.8c0.8-0.1,1.5-1.4,2.1-2.3h0.1c-0.3,0.5-0.7,1.1-0.5,1.6c0.1,0.4,0.5,0.7,0.9,0.7c1.1,0,2-1.8,2.5-2.6
			c-0.3,1.1-0.7,2.1-1.3,3.2c-1.2,0.3-2.3,0.6-3.5,1c-0.5,0.3-1.1,0.7-1.3,1.2c-0.5,0.8-0.3,1.7,1.1,1.7c2.1,0,3.5-2.1,4.4-3.8
			c2-0.7,2.3-1.3,3.3-3.3l0,0C51.5,50.3,51.3,50.1,51.2,50.4L51.2,50.4z M46.7,54.7c-0.7,0.9-2.1,2.7-3.5,2.7
			c-1.3,0-0.7-1.7,0.8-2.3c0.9-0.4,1.9-0.7,2.9-0.9C47,54.1,46.7,54.7,46.7,54.7z M31.1,56.7c0.1,0.1,0.3,0.3,0.4,0.5
			c0.2-0.9,2.3-5.9,3.5-7.7c-0.2,0-0.4,0-0.6-0.1c-0.4-0.1-0.5,0.1-0.9,0.7c-0.4,0.6-1.6,2.8-2.4,2.5c-1.4-0.6,2.6-5.9,3.4-3.7
			c0.1,0.5,0.7,0,0.1-0.4c-1.1-0.9-2.5-0.3-3.3,0.7c-1.1,1.3-1.9,3.3-0.5,3.9c0.7,0.2,1.2-0.3,1.6-0.7c0.1-0.1,0.9-1.3,1-1.5
			c-0.6,1.3-1,1.9-2.1,4.5C30.9,56,30.8,56.4,31.1,56.7z M60.1,37.7c-0.3,0.6-1.3,2.5-2,2.5c-0.2,0-0.3-0.1-0.3-0.7
			c0.2-1,1.7-3.7,1.7-3.7c-0.5-0.1-2,0.7-2.7,1.3c-0.5,0.4-0.9,0.9-1.2,1.3c0.5-1.1,1.3-2.5,1.7-2.7c-0.2,0-0.4,0-0.6-0.1
			c-0.5-0.1-0.7,0.2-1.1,0.9l-0.5,1v0.1c-0.3,0.7-1.1,2.5-2,2.5c-0.3,0-0.5-0.1-0.7-0.3c0.5-0.5,0.9-1.1,1.2-1.7
			c0.5-1.3,0.4-2.5-0.7-2.5c-1-0.1-2.1,1.1-2.7,2.3c-0.5,1.3-0.4,2.5,0.7,2.5c0.5,0,0.9-0.2,1.3-0.5c0.3,0.3,0.6,0.4,0.9,0.4
			c0.4,0,0.7-0.2,1-0.5l-0.3,0.7c0.1-0.1,0.3-0.1,0.5-0.1c0.3,0,0.5,0,0.5-0.2c0.5-1.1,1.1-2,2-2.8c1.1-1.1,1.4-0.7,1.1-0.1
			c-0.3,0.5-0.6,0.9-0.8,1.5c-0.5,1.3,0.3,1.7,0.7,1.7c1.1-0.1,2-1.9,2.4-2.7C60.4,37.6,60.1,37.5,60.1,37.7z M51.9,39.1
			c0,0.2,0.1,0.5,0.2,0.7c-0.3,0.3-0.7,0.4-1,0.3c-0.5-0.1-0.4-1.1,0.1-2.3c0.5-1.2,1.5-2,2.1-1.8l0,0c0.5,0.1,0.5,1.2-0.1,2.3
			c-0.1,0.3-0.3,0.5-0.5,0.8c0-0.1,0.1-0.1,0.1-0.1c0-0.3-0.2-0.5-0.4-0.5c0,0,0,0,0,0C52.1,38.5,51.9,38.8,51.9,39.1z M14.2,35.1
			L14.2,35.1c0.4,0,0.7-0.2,0.7-0.5c0-0.3-0.1-0.5-0.4-0.5h-0.1c-0.3,0-0.7,0.2-0.7,0.5C13.8,34.8,13.9,35.1,14.2,35.1z M34.4,29.9
			c0.7,0.3,1.3,0.3,2,0.1c0.1-0.1,0.2-0.1,0.1-0.2c-0.1-0.5,0.1-1.1,0.5-1.3c0.5-0.3,0.9-0.6,1.5-0.8c2.1-0.9,4.3-1.8,6.2-3
			c1.4-0.8,2.7-1.8,3.7-3c1.9-2.3,2.9-5.1,2.8-8c0-1.1,0.1-2.1,0.3-3.1c0.2-0.8,0.2-1.7-0.1-2.5c-0.1-0.1-0.1-0.3-0.2-0.2
			c-0.1,0.1-0.1,0.1-0.1,0.3C51.1,8.4,51,8.7,50.9,9l-0.3,1c-0.6-1.8-1.2-3.5-2.9-4.6c0.1,0.2,0.1,0.3,0.1,0.5
			c0.1,0.3,0.2,0.5,0.3,0.7c1.4,2.5,1.9,5.5,1.6,8.4c-0.2,1.8-0.9,3.5-2,4.9L46.7,21l-0.3-2.9c-0.1-0.7,0-1.3,0.3-1.9
			c0.3-0.9,0.7-1.6,1.2-2.4c0.1-0.1,0.1-0.1,0.1-0.3c-1.4,0.5-2.1,1.6-2.7,2.9c-0.1-0.1-0.1-0.1-0.1-0.2c-0.3-0.4-0.6-0.9-0.9-1.3
			c-0.1-0.3-0.3-0.5-0.6-0.7c-0.1-0.1-0.2-0.1-0.2,0.1c0,0.2,0.1,0.4,0.1,0.5c0.3,1.1,0.7,2,1.1,2.9c0.5,1,0.6,2.2,0.4,3.3
			c-0.2,1.3-1.1,2.3-2.4,2.6c-0.3,0.1-0.3,0.1-0.3-0.2c0.1-0.4,0.1-0.9,0.1-1.3c0-0.3-0.1-0.6-0.3-0.8c-0.1,0.3-0.3,0.7-0.4,0.9
			c-0.5,1.6-1.8,2.7-3.3,3.3c-1,0.3-1.9,0.7-2.7,1.3c-0.9,0.5-1.5,1.3-1.8,2.3C34,29.7,34,29.7,34.4,29.9L34.4,29.9L34.4,29.9z
			 M30.3,34c-0.3,0-0.7,0.2-0.7,0.5c0,0.3,0.1,0.5,0.4,0.5h0.1c0.3,0,0.7-0.2,0.7-0.5C30.7,34.3,30.6,34,30.3,34L30.3,34z"/>
		<path style="fill:#FFFFFF;" d="M47.9,5.4L47.9,5.4L47.9,5.4z M31.3,40.5c0.2,0,0.4-0.1,0.6-0.1c0.7,0.2,1.3,0,1.7-0.5l-0.3,0.7
			c0.1-0.1,0.3-0.1,0.5-0.1c0.3,0,0.5,0,0.5-0.2c0.5-1.1,1.2-2,2-2.8c1.1-1.1,1.4-0.7,1.1-0.1c-0.3,0.5-0.6,0.9-0.8,1.5
			c-0.5,1.3,0.3,1.7,0.7,1.7c0.7,0,1.3-0.8,1.8-1.7v0.3c-0.1,0.7,0.5,1.3,1.3,1.3h0.1c1.3,0,1.9-1.1,2.4-2.2l0.2-0.5v-0.1l0,0
			c0.1-0.1,0.1-0.1,0.1-0.2c0.1-0.3,0.3-0.6,0.3-0.9l0.1-0.5c0.8,0,1.3,0.2,1.1,0.7c-0.1,0.3-0.7,1.1-0.9,1.7
			c-0.6,1.5,0.3,1.9,0.8,1.8c1-0.2,1.7-1.7,2.1-2.5l0,0c0.1-0.3-0.1-0.4-0.1-0.1c-0.3,0.6-1.2,2.3-1.8,2.3c-0.9-0.1,0.6-2.7,0.9-3.1
			c0.1-0.3,0.4-0.9,0.3-1.1c-0.7,0.1-1.3,0.1-2,0.1c0.3-0.3,0.7-0.5,0.8-0.9c0.2-0.9-0.7-1.3-0.9-0.5c-0.3,1.8-1.1,3.5-2.1,5.1
			c-0.3,0.4-0.8,0.7-1.3,0.7c-0.9,0-0.7-1.5-0.5-1.9c0.7-0.1,1.3-0.3,1.8-0.7c0.9-0.7,1.3-1.7,0.8-2.1c-0.7-0.5-1.7,0.1-2.5,0.9
			c-0.3,0.4-0.6,0.8-0.7,1.3c-0.3,0.7-1.3,2.5-1.9,2.5c-0.2,0-0.3-0.1-0.2-0.7c0.2-1,1.7-3.7,1.7-3.7c-0.5-0.1-2,0.7-2.7,1.3
			c-0.5,0.4-0.9,0.8-1.2,1.3c1.2-2.3,3.1-5.9,3.7-6.5c-0.2,0-0.4,0-0.6-0.1c-0.5-0.1-0.7,0.3-1.1,0.9c-1,1.9-2,3.9-2.9,5.8
			c-0.2,0.3-0.4,0.7-0.7,1c-0.3,0.4-0.8,0.6-1.3,0.6h-0.1c0.5-0.3,0.9-0.9,1.1-1.5c-0.1-0.6-0.2-1.2-0.5-1.7
			c-0.1-0.6-0.3-1.6,0.4-1.9c0.1-0.1,0.3-0.1,0.5,0c0.3,0.1,0.3-0.1,0.1-0.3c-0.1-0.1-0.3-0.1-0.5-0.1c-0.5,0.1-0.9,0.7-1.2,1.3
			l-0.8,1.6v0.1l0,0l-0.4,0.7v0.1c-0.3,0-0.5,0.4-0.5,0.9c-0.1,0.1-0.3,0.3-0.4,0.5c-0.2,0.2-0.4,0.3-0.7,0.3
			c-0.4,0-0.4-0.4-0.3-0.9l0,0c0-0.1,0.1-0.4,0.1-0.4l1.1-2.7c0.1-0.3,0.1-0.5-0.3-0.5h-0.8c0.1,0.2,0.2,0.4,0.1,0.6l-0.5,1.3
			l-0.1,0.1c-0.5,1-1.3,2.5-2.1,2.5L26.4,40c-0.1-0.4-0.2-0.7-0.5-1.1c1.5-3.2,3.3-6.5,4.3-7.3l0,0c-0.2,0-0.5-0.1-0.7-0.1
			c-0.6,0-0.9,0.4-1.3,1c-0.8,1.5-1.9,3.7-2.9,6.1c-0.2,0-0.3,0.1-0.5,0.1c-0.3,0.3-0.3,0.7-0.3,1c-0.2,0.2-0.4,0.3-0.6,0.5
			c0.3-1.1,0.3-2.3,0.2-3.5c-0.3,0.1-0.7-0.1-0.9,0.6c-0.3,0.9-1.7,3.1-2.5,2.7c-0.7-0.3,0.1-2.1,1.1-3.2c0.9-1,1.9-1.5,2.3-0.5
			c0.1,0.5,0.7,0,0.1-0.4c-1.1-0.9-2.5-0.3-3.3,0.7c-0.3,0.3-0.5,0.7-0.7,1.1c0,0,0,0.1-0.1,0.1c-0.3,0.6-1.3,2.5-2,2.5
			c-0.2,0-0.3-0.1-0.3-0.7c0.2-1.1,1.7-3.7,1.7-3.7c-0.5-0.1-2,0.7-2.7,1.3c-0.5,0.4-0.9,0.9-1.2,1.3c0.5-1.1,1.3-2.5,1.7-2.7
			c-0.2,0-0.4,0-0.6-0.1c-0.5-0.1-0.7,0.2-1.1,0.9c-0.2,0.3-0.3,0.7-0.5,0.9c0,0-0.1,0.1-0.1,0.1c-0.3,0.8-0.8,1.5-1.3,2.1
			c-0.1,0.1-0.4,0.3-0.6,0.3c-0.5,0-0.5-0.4-0.3-0.9l0,0l0.2-0.4l1.1-2.7c0.1-0.3,0.1-0.5-0.3-0.5h-0.8c0.1,0.2,0.2,0.4,0.1,0.6
			l-0.5,1.3l-0.1,0.1c-0.3,0.7-0.7,1.3-1.2,1.9c-1.3,1.4-2.2-0.4-1.7-1.7c0.5-0.1,1.1-0.3,1.5-0.5c1.1-0.8,1.3-2.3-0.6-1.7
			c-0.9,0.3-1.7,1.3-2.3,2c0.1-0.4,0.3-0.9,0.5-1.2c1-1.9,2.4-4.2,3.1-4.7c-0.2,0-0.4,0.1-0.6-0.1h-0.1c-0.3,0-0.7,0.1-0.9,0.7l0,0
			c-1.3,1.8-3.1,6.1-4.1,7.3c-0.1,0.1,0,0.3,0.1,0.2c0.6-0.8,1.1-1.6,1.5-2.5c-0.5,0.9-0.9,1.9-1.2,2.8c-0.1,0.2-0.1,0.3,0.1,0.3
			h0.9c-0.3-0.2,0.1-1.7,0.4-2.3c0.3-0.5,0.7-0.9,1.2-1.3c1.6-1.4,2.3-0.4,1.4,0.3c-0.3,0.3-0.7,0.4-1.1,0.5
			c-0.3,0.1-0.9,0.7-0.7,1.6C9,40,9.4,40.5,10,40.6c0.7,0.1,1.3-0.1,2.1-1.4c-0.1,0.7,0.1,1.3,0.9,1.3c0.4,0,0.7-0.2,1.1-0.6
			l-0.3,0.7c0.1-0.1,0.3-0.1,0.5-0.1c0.3,0,0.5,0,0.5-0.2c0.5-1.1,1.1-2,2-2.8c1.1-1.1,1.4-0.7,1.1-0.1c-0.3,0.5-0.6,0.9-0.8,1.5
			c-0.5,1.3,0.3,1.7,0.7,1.7c0.7,0,1.3-0.8,1.8-1.5c-0.1,0.7,0.1,1.2,0.7,1.5c1.1,0.3,2.3-1.6,2.7-2.5c0.1,0.4,0.1,0.8,0,1.2
			c-0.1,0.5-0.1,1.1-0.3,1.6c-1.1,0.5-2.4,0.7-3.8,1.5c-0.7,0.4-1.3,0.9-1.3,1.6c0,0.4,0.1,0.7,0.5,0.9c-0.2,0.2-0.5,0.5-0.7,0.8
			c-0.3,0.6-0.7,1.3-1.1,2h-0.6c-0.1,0-0.2,0.3-0.1,0.3h0.7c-0.5,1.1-0.9,2.3-1.1,3.6c-0.2,1.6,1.2,1.8,2,1.1l0.3-0.3l-0.4,0.8
			c0.1-0.1,0.3-0.1,0.5-0.1c0.3,0,0.5,0,0.5-0.2c0.5-1.1,1.2-2,2-2.8c1.1-1.1,1.4-0.7,1.1-0.1c-0.3,0.5-0.6,0.9-0.8,1.5
			c-0.5,1.3,0.3,1.7,0.7,1.7c0.7,0,1.3-0.9,1.7-1.7c0,0.1,0,0.3-0.1,0.4c-0.1,0.7,0.5,1.3,1.3,1.4h0.1c1.5-0.1,2.2-1.7,2.7-2.8l0,0
			c0.1-0.3-0.1-0.3-0.3,0c-0.3,0.7-1.1,2.4-2.4,2.4c-0.9,0-0.7-1.5-0.5-1.9c0.7-0.1,1.2-0.3,1.8-0.7c0.9-0.7,1.3-1.7,0.8-2.1
			c-0.7-0.5-1.7,0.1-2.5,0.9c-0.3,0.3-0.5,0.7-0.7,1.1v0.1c-0.3,0.6-1.3,2.5-1.9,2.5c-0.2,0-0.3-0.1-0.2-0.7c0.2-1,1.7-3.7,1.7-3.7
			c-0.5-0.1-2,0.7-2.7,1.3c-0.5,0.4-0.8,0.8-1.1,1.3c1.2-2.3,3.1-5.9,3.7-6.5c-0.2,0-0.4,0-0.6-0.1c-0.5-0.1-0.7,0.3-1.1,0.9
			l-2.5,4.8c-0.1,0-0.1,0.1-0.1,0.1c-0.3,0.9-0.9,1.5-1.5,2.1c-0.5,0.3-1.1,0.2-0.9-0.7c0,0,0.2-1.1,0.3-1.4
			c0.7-0.7,1.4-1.5,1.9-2.3H19c0.1,0,0.2-0.3,0.1-0.3h-0.7l0.7-1.2c0.3-0.7,0.4-1.1,0.3-1.5c1.9-0.2,3.7-2.6,4.3-4.3
			c0.3-0.2,0.7-0.4,0.9-0.7c-0.9,2-1.5,3.7-1.5,4.7c-0.1,0.4,0.3,0.7,0.6,0.7h0.1c1.5,0,2.6-3,2.5-4.9c0.7,0,1.2-0.6,1.6-1.3
			c-0.1,0.6,0.1,1.3,0.9,1.3c0.5,0,0.8-0.3,1.1-0.7C30.3,40.2,30.6,40.5,31.3,40.5C31.3,40.5,31.3,40.5,31.3,40.5z M41.1,36.7
			c1.8-2.1,1.8-0.3,0.7,0.7c-0.5,0.3-1,0.5-1.5,0.7C40.5,37.6,40.8,37.1,41.1,36.7z M32.3,35.9c-0.1,0.7,0.3,1.8,0.2,2.7
			c0,0.5-0.2,1.1-0.7,1.5c-0.4-0.2-0.7-0.7-0.6-1.1c0-0.5-0.3-0.5-0.3-0.5C31.3,37.9,31.9,36.7,32.3,35.9z M31,39.2
			c0,0.5,0.3,0.9,0.6,1.1l0,0c-0.1,0.1-0.2,0.1-0.3,0.1C30.7,40.3,30.5,39.7,31,39.2z M24.9,49.3c1.7-2.1,1.8-0.3,0.7,0.7l0,0
			c-0.5,0.3-1,0.5-1.5,0.7C24.2,50.1,24.5,49.7,24.9,49.3z M17.9,48c-0.3,0.7-0.9,1.3-1.4,1.9l0.8-1.9H17.9L17.9,48
			C17.9,48,17.9,48,17.9,48z M18.9,46.3L18.9,46.3c-0.2,0.5-0.5,1-0.7,1.4h-0.7c0.3-0.7,0.7-1.4,1.1-2.1
			C19.3,44.4,19.1,45.7,18.9,46.3z M21.9,42.6c-0.4,0.5-0.8,1-1.3,1.4c-0.4,0.3-0.9,0.5-1.3,0.7c-0.2-0.1-0.4-0.1-0.7,0.1
			c-0.9-0.2-0.4-1.5,0.5-2c1-0.6,2-1.1,3.1-1.4l0.5-0.1C22.5,41.6,22.2,42.1,21.9,42.6z M24.9,44.5c-0.5,0.7-1.3,1-0.9-0.7
			c0.3-1.2,0.7-2.3,1.2-3.5c0.3,0.2,0.5,0.3,0.9,0.3C26.1,41.9,25.7,43.3,24.9,44.5z M26.1,40.3H26c-0.3,0-0.5-0.1-0.6-0.3l0.3-0.7
			c0.1,0.1,0.2,0.2,0.2,0.3C26.1,39.9,26.1,40.1,26.1,40.3L26.1,40.3L26.1,40.3z M20.6,59.9c0.1-0.1,0.3-0.1,0.5-0.1
			c0.2,0,0.4,0.1,0.6,0.2l0.4-0.5c-0.3-0.3-0.6-0.3-1-0.3l0,0c-0.4,0-0.8,0.1-1.1,0.4c-0.5,0.4-0.6,1.1-0.2,1.6
			c0.1,0.1,0.1,0.1,0.2,0.2c0.3,0.3,0.7,0.4,1.1,0.4c0.3,0,0.5-0.1,0.7-0.1c0.1-0.1,0.1-0.1,0.3-0.1l-0.4-0.5
			c-0.2,0.1-0.4,0.2-0.6,0.2c-0.3,0-0.5-0.1-0.7-0.3c-0.1-0.1-0.3-0.3-0.3-0.5c0-0.1,0.1-0.3,0.1-0.3C20.4,60.1,20.5,60,20.6,59.9
			L20.6,59.9z M24.1,59.4l-1.2,2.5h0.7l0.3-0.5h1.1l0.3,0.5h0.7l-1.3-2.5C24.6,59.4,24.1,59.4,24.1,59.4z M24.1,60.9l0.3-0.6
			l0.3,0.6C24.6,60.9,24.1,60.9,24.1,60.9z"/>
		<path style="fill:#FFFFFF;" d="M15.5,14.5c0.1,2.2,0.7,4.4,2,6.2c1.1,1.5,2.5,2.8,4.3,3.7c2,1.2,4,2.1,6.1,3
			c0.6,0.3,1.1,0.5,1.7,0.9c0.5,0.3,0.7,0.8,0.6,1.3c-0.1,0.3,0.1,0.3,0.3,0.4c0.7,0.1,1.3,0,2-0.2c0.2-0.1,0.3-0.1,0.2-0.3
			c-0.2-0.9-0.7-1.8-1.5-2.3c-0.8-0.5-1.7-1-2.7-1.3c-1.8-0.7-3.2-1.8-3.8-3.7c-0.1-0.2-0.2-0.5-0.3-0.7c-0.2,0.3-0.3,0.8-0.2,1.2
			c0,0.4,0.1,0.8,0.1,1.3c-1.3-0.2-2.5-1.3-2.7-2.7c-0.1-1.1-0.1-2.1,0.3-3.1l1.3-3.3c0.1-0.3,0.1-0.5,0.1-0.7
			c-0.9,0.7-1.1,1.7-1.7,2.5l-0.6-1c-0.3-0.5-0.7-1.1-1.3-1.5c-0.3-0.3-0.6-0.5-1-0.5c0,0.1,0.1,0.1,0.1,0.3l0.9,1.6
			c0.5,0.7,0.6,1.6,0.5,2.5c0,0.4-0.1,0.7-0.1,1.1l-0.2,1.9c-0.6-0.5-1.1-1.1-1.5-1.6c-1.5-2.4-1.9-5-1.6-7.9c0.3-1.7,0.8-3.4,1.6-5
			c0.1-0.3,0.3-0.5,0.3-0.8c0-0.1,0.1-0.2,0-0.3c-0.1-0.1-0.2,0.1-0.3,0.1c-0.5,0.4-0.9,0.9-1.3,1.5c-0.5,0.9-0.9,1.9-1.3,2.9
			c-0.1,0-0.1-0.1-0.1-0.3L15.3,8c0-0.1-0.1-0.1-0.1-0.1c-0.1-0.1-0.1,0-0.1,0.1c-0.1,0.1-0.1,0.3-0.2,0.5c-0.1,0.8,0,1.5,0.1,2.3
			C15.3,12,15.5,13.3,15.5,14.5C15.5,14.5,15.5,14.5,15.5,14.5z M33.8,61.9h1.7v-0.5h-1.1v-0.5h1.1v-0.5h-1.1v-0.5h1.1v-0.5h-1.7
			V61.9z M38.5,59.9c-0.1-0.1-0.1-0.2-0.2-0.3c-0.2-0.1-0.4-0.2-0.7-0.2h-1v2.5h0.7v-1h0.1l0.7,1l0.7-0.1l-0.7-1.1
			C38.5,60.7,38.7,60.2,38.5,59.9z M37.9,60.3c-0.1,0.1-0.1,0.1-0.2,0.1h-0.3l-0.1-0.5h0.3h0.2c0.1,0.1,0.1,0.1,0.1,0.2
			C37.9,60.2,37.9,60.2,37.9,60.3z M32.5,60.4c0.1-0.1,0.1-0.3,0.1-0.4c0-0.3-0.1-0.5-0.3-0.6c-0.1-0.1-0.3-0.1-0.5-0.1h-0.9v2.5
			h0.9c0.3,0,0.5-0.1,0.7-0.3c0.1-0.1,0.3-0.3,0.3-0.5C32.8,60.7,32.7,60.5,32.5,60.4z M31.5,59.9h0.2h0.1c0.1,0.1,0.1,0.1,0.1,0.1
			s0,0.1-0.1,0.1s-0.1,0.1-0.1,0.1h-0.2C31.5,60.3,31.5,59.9,31.5,59.9z M32,61.3c-0.1,0.1-0.1,0.1-0.2,0.1h-0.3v-0.5h0.3
			c0.1,0,0.1,0,0.2,0.1c0.1,0.1,0.1,0.1,0.1,0.2C32.1,61.1,32.1,61.2,32,61.3z"/>
		<path style="fill:#FFFFFF;" d="M32.6,60L32.6,60L32.6,60z M28.3,61l-0.7-1.6h-0.8v2.5h0.7v-1.5l0.7,1.5h0.5l0.6-1.7v1.7h0.7v-2.5
			H29C29,59.4,28.3,61,28.3,61z M46.1,60.3l-0.5-0.9h-0.7l0.7,1.6v0.9h0.7V61l0.9-1.5h-0.7C46.5,59.5,46.1,60.3,46.1,60.3z
			 M42.3,61.9H44v-0.5h-1v-0.5h1v-0.5h-1v-0.5h1v-0.5h-1.7V61.9z M40.3,59.4h-0.7v2.5h1.7v-0.5h-1V59.4z"/>
	</g>
</g>
</svg>
