<?xml version="1.0"?>
<svg xmlns="http://www.w3.org/2000/svg" xmlns:xlink="http://www.w3.org/1999/xlink" xmlns:svgjs="http://svgjs.com/svgjs" version="1.1" width="512" height="512" x="0" y="0" viewBox="0 0 512 512" style="enable-background:new 0 0 512 512" xml:space="preserve" class=""><g>
<circle xmlns="http://www.w3.org/2000/svg" style="" cx="256" cy="256" r="256" fill="#f1f1f1" data-original="#00efd1" class=""/>
<path xmlns="http://www.w3.org/2000/svg" style="" d="M512,256c0-16.106-1.503-31.859-4.348-47.141L395.213,96.541  c-11.115-13.316-27.831-21.79-46.533-21.79c-19.718,0-37.229,9.42-48.299,24c-18.053-6.376-37.459-9.858-57.667-9.858  c-95.731,0-173.615,77.884-173.615,173.615c0,47.175,18.916,90.01,49.56,121.329l128.124,127.98c3.061,0.108,6.13,0.183,9.218,0.183  C397.385,512,512,397.385,512,256z" fill="#f1f1f1" data-original="#00ad95" class=""/>
<circle xmlns="http://www.w3.org/2000/svg" style="" cx="242.71" cy="262.51" r="157.76" fill="#00a6ff" data-original="#00a6ff" class=""/>
<path xmlns="http://www.w3.org/2000/svg" style="" d="M400.474,262.508c0,87.127-70.633,157.76-157.76,157.76v-315.52  C329.841,104.748,400.474,175.381,400.474,262.508z" fill="#006ef5" data-original="#006ef5" class=""/>
<path xmlns="http://www.w3.org/2000/svg" style="" d="M242.714,88.893c-95.731,0-173.615,77.884-173.615,173.615s77.884,173.615,173.615,173.615  s173.615-77.884,173.615-173.615S338.445,88.893,242.714,88.893z M304.188,355.922c-2.131,4.795-4.427,9.369-6.848,13.642  c-12.235,21.583-27.156,35.241-43.288,39.675v-46.814C271.341,361.76,288.176,359.576,304.188,355.922z M254.051,341.874v-68.029  h68.029c-0.851,20.764-3.994,40.489-9.349,58.68C294.54,337.88,274.815,341.023,254.051,341.874z M298.742,403.039  c5.954-6.725,11.47-14.548,16.46-23.351c5.295-9.34,9.947-19.717,13.836-30.858c11.141-3.889,21.518-8.54,30.857-13.835  c8.804-4.99,16.627-10.506,23.352-16.46C367.908,356.929,337.135,387.701,298.742,403.039z M359.895,190.02  c-9.34-5.295-19.717-9.947-30.858-13.835c-3.889-11.141-8.541-21.518-13.836-30.857c-4.99-8.804-10.506-16.627-16.46-23.352  c38.393,15.338,69.166,46.11,84.504,84.504C376.52,200.526,368.697,195.01,359.895,190.02z M254.051,251.171v-68.029  c20.764,0.852,40.489,3.994,58.68,9.349c5.355,18.191,8.498,37.916,9.349,58.68L254.051,251.171L254.051,251.171z M349.769,317.133  c-4.271,2.421-8.845,4.717-13.64,6.848c3.653-16.012,5.838-32.847,6.503-50.137h46.813  C385.011,289.977,371.354,304.898,349.769,317.133z M349.77,207.882c21.584,12.235,35.241,27.156,39.675,43.288h-46.813  c-0.666-17.29-2.85-34.125-6.503-50.137C340.923,203.165,345.498,205.461,349.77,207.882z M254.051,162.59v-46.814  c16.132,4.434,31.053,18.092,43.288,39.677c2.421,4.271,4.717,8.845,6.848,13.64C288.176,165.44,271.341,163.256,254.051,162.59z   M181.24,169.093c2.131-4.795,4.427-9.369,6.848-13.642c12.235-21.583,27.156-35.241,43.289-39.675v46.814  C214.087,163.256,197.252,165.44,181.24,169.093z M135.658,317.133c-21.583-12.235-35.241-27.156-39.675-43.288h46.813  c0.666,17.29,2.85,34.125,6.503,50.137C144.505,321.851,139.93,319.554,135.658,317.133z M135.659,207.882  c4.271-2.421,8.845-4.717,13.64-6.848c-3.653,16.012-5.838,32.847-6.503,50.137H95.983  C100.417,235.039,114.074,220.118,135.659,207.882z M125.533,334.995c9.34,5.295,19.717,9.947,30.858,13.835  c3.889,11.141,8.541,21.518,13.836,30.857c4.99,8.804,10.506,16.627,16.46,23.352c-38.393-15.338-69.165-46.11-84.504-84.504  C108.908,324.49,116.731,330.005,125.533,334.995z M231.377,273.845v68.029c-20.764-0.852-40.489-3.994-58.68-9.349  c-5.355-18.191-8.498-37.916-9.349-58.68H231.377z M102.183,206.48c15.338-38.393,46.11-69.166,84.504-84.504  c-5.954,6.725-11.469,14.548-16.46,23.351c-5.295,9.34-9.947,19.717-13.836,30.858c-11.141,3.889-21.518,8.541-30.857,13.835  C116.731,195.01,108.908,200.526,102.183,206.48z M231.377,183.141v68.029h-68.029c0.852-20.764,3.994-40.489,9.349-58.68  C190.888,187.136,210.613,183.993,231.377,183.141z M231.377,362.426v46.814c-16.132-4.434-31.053-18.092-43.289-39.677  c-2.421-4.271-4.717-8.845-6.848-13.64C197.252,359.576,214.087,361.76,231.377,362.426z" fill="#005fd2" data-original="#005fd2" class=""/>
<path xmlns="http://www.w3.org/2000/svg" style="" d="M242.714,88.897v347.222c95.737,0,173.611-77.874,173.611-173.611S338.451,88.897,242.714,88.897z   M342.626,251.174c-0.657-17.289-2.847-34.125-6.502-50.141c4.805,2.135,9.377,4.435,13.647,6.844  c21.587,12.237,35.234,27.158,39.669,43.297L342.626,251.174L342.626,251.174z M389.441,273.842  c-4.435,16.139-18.083,31.059-39.669,43.297c-4.271,2.409-8.843,4.709-13.647,6.844c3.655-16.016,5.845-32.852,6.502-50.141H389.441  z M359.901,190.014c-9.349-5.284-19.725-9.938-30.867-13.825c-3.888-11.142-8.542-21.518-13.826-30.854  c-4.996-8.815-10.513-16.631-16.467-23.352c38.396,15.331,69.168,46.103,84.499,84.499  C376.519,200.526,368.703,195.01,359.901,190.014z M304.189,169.098c-16.015-3.655-32.852-5.845-50.141-6.502v-46.815  c16.139,4.435,31.059,18.082,43.297,39.669C299.754,159.721,302.054,164.293,304.189,169.098z M312.73,192.491  c5.352,18.192,8.5,37.917,9.349,58.683h-68.032v-68.032C274.813,183.991,294.538,187.139,312.73,192.491z M322.08,273.842  c-0.849,20.766-3.997,40.491-9.349,58.682c-18.192,5.352-37.917,8.501-58.682,9.349v-68.032h68.031V273.842z M304.189,355.918  c-2.135,4.805-4.435,9.377-6.844,13.647c-12.238,21.587-27.158,35.234-43.297,39.669V362.42  C271.337,361.763,288.173,359.573,304.189,355.918z M315.208,379.695c5.284-9.349,9.938-19.725,13.826-30.867  c11.142-3.888,21.518-8.542,30.854-13.825c8.815-4.996,16.631-10.513,23.352-16.467c-15.331,38.396-46.103,69.168-84.499,84.499  C304.695,396.313,310.212,388.496,315.208,379.695z" fill="#003d8d" data-original="#003d8d" class=""/>
<polygon xmlns="http://www.w3.org/2000/svg" style="" points="127.136,319.483 149.297,365.37 171.458,319.483 " fill="#ffc473" data-original="#ffc473"/>
<polygon xmlns="http://www.w3.org/2000/svg" style="" points="171.458,319.483 166.941,328.838 155.782,351.941 149.297,365.369 149.297,319.483 " fill="#ff9a00" data-original="#ff9a00"/>
<circle xmlns="http://www.w3.org/2000/svg" style="" cx="149.3" cy="281.9" r="49.45" fill="#ff633e" data-original="#ff633e"/>
<path xmlns="http://www.w3.org/2000/svg" style="" d="M198.747,281.902c0,21.855-14.181,40.403-33.845,46.935c-4.903,1.629-10.15,2.513-15.603,2.513  v-98.896C176.608,232.455,198.747,254.594,198.747,281.902z" fill="#ca1e00" data-original="#ca1e00"/>
<circle xmlns="http://www.w3.org/2000/svg" style="" cx="149.3" cy="281.9" r="34.904" fill="#ffffff" data-original="#ffffff"/>
<path xmlns="http://www.w3.org/2000/svg" style="" d="M184.204,281.902c0,19.276-15.629,34.905-34.905,34.905v-69.81  C168.575,246.997,184.204,262.627,184.204,281.902z" fill="#ffed97" data-original="#ffed97"/>
<polygon xmlns="http://www.w3.org/2000/svg" style="" points="321.512,181.433 348.678,237.683 375.843,181.433 " fill="#ffc473" data-original="#ffc473"/>
<polygon xmlns="http://www.w3.org/2000/svg" style="" points="375.843,181.432 370.306,192.9 356.626,221.222 348.678,237.681 348.678,181.432 " fill="#ff9a00" data-original="#ff9a00"/>
<circle xmlns="http://www.w3.org/2000/svg" style="" cx="348.68" cy="135.37" r="60.61" fill="#ff633e" data-original="#ff633e"/>
<path xmlns="http://www.w3.org/2000/svg" style="" d="M409.295,135.365c0,26.791-17.383,49.527-41.488,57.535c-6.01,1.997-12.442,3.08-19.127,3.08V74.75  C382.156,74.75,409.295,101.889,409.295,135.365z" fill="#ca1e00" data-original="#ca1e00"/>
<circle xmlns="http://www.w3.org/2000/svg" style="" cx="348.68" cy="135.37" r="42.787" fill="#ffffff" data-original="#ffffff"/>
<path xmlns="http://www.w3.org/2000/svg" style="" d="M391.468,135.365c0,23.629-19.159,42.788-42.788,42.788V92.577  C372.309,92.577,391.468,111.736,391.468,135.365z" fill="#ffed97" data-original="#ffed97"/>
<g xmlns="http://www.w3.org/2000/svg">
</g>
<g xmlns="http://www.w3.org/2000/svg">
</g>
<g xmlns="http://www.w3.org/2000/svg">
</g>
<g xmlns="http://www.w3.org/2000/svg">
</g>
<g xmlns="http://www.w3.org/2000/svg">
</g>
<g xmlns="http://www.w3.org/2000/svg">
</g>
<g xmlns="http://www.w3.org/2000/svg">
</g>
<g xmlns="http://www.w3.org/2000/svg">
</g>
<g xmlns="http://www.w3.org/2000/svg">
</g>
<g xmlns="http://www.w3.org/2000/svg">
</g>
<g xmlns="http://www.w3.org/2000/svg">
</g>
<g xmlns="http://www.w3.org/2000/svg">
</g>
<g xmlns="http://www.w3.org/2000/svg">
</g>
<g xmlns="http://www.w3.org/2000/svg">
</g>
<g xmlns="http://www.w3.org/2000/svg">
</g>
</g></svg>
