<?xml version="1.0" encoding="utf-8"?>
<svg version="1.1" id="Layer_1" xmlns="http://www.w3.org/2000/svg" xmlns:xlink="http://www.w3.org/1999/xlink" x="0px" y="0px"
	 viewBox="0 0 1008.38 248.11" style="enable-background:new 0 0 1008.38 248.11;" xml:space="preserve">
<g>
	<path id="path7696" style="fill:#9F043E;" d="M248.11,124.05C248.11,55.54,192.57,0,124.06,0C55.54,0,0,55.54,0,124.05
		s55.54,124.06,124.06,124.06C192.57,248.11,248.11,192.57,248.11,124.05 M61.93,144.85h75.37c14.03,0,25.41-9.21,25.41-20.59
		c0-1.74-0.26-3.42-0.77-5.04c4.05,4.74,6.42,10.66,6.42,16.97c0,14.98-13.39,27.78-30.76,27.78H61.93
		C61.93,163.97,61.93,144.85,61.93,144.85z M177.08,67.72h-67.49c-20.77,0-37.6,16.61-37.6,37.1v3.24c0,12.6,6.36,23.73,16.08,30.43
		c-15.06-6.34-25.62-21.09-25.62-38.27v-0.68c0-22.97,18.87-41.59,42.15-41.59h72.48C177.08,57.96,177.08,67.72,177.08,67.72z
		 M177.08,82.13h-64.16c-16.45,0-30.64,10.44-34.06,24.8v-2.1c0-16.75,13.76-30.33,30.74-30.33h67.49V82.13z M177.08,98.81h-59.45
		c-16.7,0-30.98,9.87-30.98,22.8l0.02,0.6c-1.13-2.68-1.73-5.57-1.73-8.57c0-13.36,12.21-24.74,27.98-24.74h64.16L177.08,98.81
		L177.08,98.81z M186.18,147.26c0,23.69-19.47,42.89-43.47,42.89H61.93v-15.78h75.66c22.43,0,41.3-16.73,41.3-38.18
		c0-8.09-2.68-15.51-7.23-21.61c8.91,7.86,14.52,19.28,14.52,32C186.18,146.58,186.18,147.26,186.18,147.26z"/>
	<path id="path7700" d="M1008.38,66.74V54.81h-55.32v74.53h13.06V99h37.48V87.07h-37.48V66.74
		C966.12,66.74,1008.38,66.74,1008.38,66.74z M955.5,171.99h-4.14l-6.53,16.74l-6.57-16.74h-4.23l9.05,21.94h3.36L955.5,171.99
		L955.5,171.99z M924.66,193.77h4.14v-4.26h-4.14V193.77z M884.79,66.74h42.26V54.81h-55.32v74.53h13.06V99h37.48V87.07h-37.48
		V66.74z M869.16,187.58v-0.06c0-3.61-2.39-5.26-7-6.38c-4.18-0.99-5.17-1.74-5.17-3.42v-0.06c0-1.43,1.31-2.58,3.55-2.58
		c1.99,0,3.95,0.78,5.92,2.24l2.05-2.89c-2.2-1.77-4.73-2.73-7.9-2.73c-4.33,0-7.44,2.58-7.44,6.31v0.06c0,4.02,2.61,5.39,7.25,6.51
		c4.05,0.93,4.92,1.77,4.92,3.33v0.06c0,1.65-1.49,2.74-3.86,2.74c-2.71,0-4.79-1.02-6.88-2.83l-2.3,2.74
		c2.61,2.33,5.76,3.48,9.09,3.48C865.96,194.08,869.16,191.66,869.16,187.58 M844.24,92.08v-0.21c0-20.97-15.93-38.33-38.75-38.33
		c-22.83,0-38.97,17.57-38.97,38.54v0.21c0,20.97,15.93,38.33,38.75,38.33C828.1,130.62,844.24,113.05,844.24,92.08 M830.54,92.29
		c0,14.48-10.3,26.3-25.05,26.3c-14.76,0-25.27-12.03-25.27-26.51v-0.21c0-14.48,10.3-26.29,25.06-26.29s25.27,12.03,25.27,26.51
		V92.29L830.54,92.29z M766.6,182.82c0-6.14-4.73-10.83-11.58-10.83h-8.12v21.79h8.12c6.86,0,11.58-4.76,11.58-10.89V182.82
		L766.6,182.82z M762.59,182.94c0,4.26-2.99,7.35-7.57,7.35h-4.29v-14.82h4.29c4.58,0,7.57,3.14,7.57,7.41V182.94L762.59,182.94z
		 M725.96,129.34h13.06V54.81h-13.06v30.98H690.5V54.81h-13.06v74.53h13.06V97.93h35.46V129.34z M674,171.98v9.06h-10.4v-9.06h-3.82
		v21.79h3.82v-9.18H674v9.18h3.83v-21.79H674z M635.71,129.34h10.94V54.81H633.8v51.53l-39.81-51.53h-12.1v74.53h12.85V76.32
		L635.71,129.34L635.71,129.34z M574.12,193.77h3.21v-21.79h-3.76v15.06l-11.68-15.06h-3.55v21.79h3.76v-15.5L574.12,193.77
		L574.12,193.77z M537.28,129.34h13.06V54.82h-13.06V129.34z M536.42,171.61c-6.69,0-11.43,5.13-11.43,11.27v0.06
		c0,6.14,4.67,11.21,11.36,11.21s11.42-5.13,11.42-11.26v-0.06C547.78,176.68,543.11,171.61,536.42,171.61 M543.77,182.94
		c0,4.24-3.02,7.69-7.35,7.69c-4.33,0-7.41-3.52-7.41-7.75v-0.06c0-4.24,3.02-7.69,7.34-7.69c4.33,0,7.41,3.52,7.41,7.75V182.94
		L543.77,182.94z M510.4,193.77h3.83v-21.79h-3.83V193.77z M453.73,129.34h55.64v-11.71h-42.58V97.61h37.27V85.9h-37.27V66.52h42.05
		V54.81h-55.11L453.73,129.34L453.73,129.34z M441.67,193.77h3.21v-21.79h-3.76v15.06l-11.67-15.06h-3.55v21.79h3.76v-15.5
		L441.67,193.77z M404.68,66.95h23.57V54.81h-60.31v12.14h23.57v62.39h13.17C404.68,129.34,404.68,66.95,404.68,66.95z
		 M353.83,175.53h6.91v-3.55h-17.68v3.55h6.91v18.24h3.86V175.53z M347.76,108.15v-0.21c0-12.35-8.17-18-23.89-21.83
		c-14.23-3.41-17.63-5.96-17.63-11.71v-0.21c0-4.9,4.46-8.84,12.1-8.84c6.8,0,13.49,2.66,20.17,7.66l7.01-9.9
		c-7.54-6.07-16.14-9.37-26.97-9.37c-14.76,0-25.38,8.84-25.38,21.61v0.21c0,13.74,8.92,18.42,24.74,22.25
		c13.8,3.19,16.77,6.07,16.77,11.4v0.21c0,5.64-5.09,9.36-13.16,9.36c-9.24,0-16.35-3.51-23.47-9.69l-7.86,9.37
		c8.92,7.98,19.64,11.93,31,11.93C336.83,130.41,347.76,122.1,347.76,108.15 M302.38,171.99h-3.82v21.79h3.82V171.99z
		 M317.66,171.99h-3.55v21.79h3.76v-15.5l12.02,15.5h3.2v-21.79h-3.76v15.06L317.66,171.99z M386.86,171.99h-16.15v21.79h16.31
		v-3.42h-12.48v-5.86h10.92v-3.42h-10.92v-5.67h12.33V171.99z M407.18,171.99h-9.71v21.79h3.83v-7.6h4.79l5.36,7.6h4.51l-5.88-8.25
		c3.04-0.87,5.19-3.02,5.19-6.6v-0.06c0-1.9-0.65-3.52-1.8-4.7C412.07,172.79,409.93,171.98,407.18,171.99 M406.87,175.47
		c2.84,0,4.52,1.28,4.52,3.61v0.06c0,2.22-1.74,3.65-4.48,3.65h-5.61v-7.32L406.87,175.47L406.87,175.47z M464.11,171.83
		l-9.58,21.94h3.92l2.24-5.26h10.3l2.21,5.26h4.05l-9.58-21.94H464.11L464.11,171.83z M462.09,185.12l3.74-8.71l3.76,8.71H462.09
		L462.09,185.12z M500.22,171.98h-17.68v3.55h6.91v18.24h3.86v-18.24h6.91V171.98z M596.56,171.83l-9.58,21.94h3.92l2.24-5.26h10.3
		l2.21,5.26h4.05l-9.59-21.94H596.56z M594.54,185.12l3.73-8.71l3.77,8.71H594.54z M623.17,171.98h-3.82v21.79h15.28v-3.48h-11.45
		V171.98L623.17,171.98z M688.38,182.88v0.06c0,6.14,4.66,11.21,11.36,11.21s11.42-5.13,11.42-11.26v-0.06
		c0-6.14-4.66-11.21-11.36-11.21C693.11,171.61,688.38,176.74,688.38,182.88 M692.39,182.82c0-4.24,3.02-7.69,7.35-7.69
		c4.33,0,7.41,3.52,7.41,7.75v0.06c0,4.24-3.02,7.69-7.34,7.69c-4.33,0-7.41-3.52-7.41-7.75V182.82L692.39,182.82z M725.54,171.98
		h-3.83v21.79H737v-3.48h-11.45V171.98z M781.2,171.98h-3.83v21.79h3.83V171.98z M796.48,171.98h-3.54v21.79h3.76v-15.5l12.02,15.5
		h3.21v-21.79h-3.76v15.06L796.48,171.98L796.48,171.98z M822.48,182.88v0.06c0,6.35,4.48,11.21,11.29,11.21
		c3.86,0,6.94-1.55,9.09-3.39v-9.15h-9.27v3.33h5.57v4.08c-1.34,1-3.21,1.65-5.26,1.65c-4.45,0-7.41-3.3-7.41-7.78v-0.06
		c0-4.17,3.05-7.69,7.07-7.69c2.77,0,4.42,0.9,6.1,2.33l2.42-2.9c-2.24-1.89-4.57-2.95-8.37-2.95
		C827.14,171.61,822.48,176.77,822.48,182.88 M898.39,171.98h-3.55v21.79h3.76v-15.5l12.02,15.5h3.2v-21.79h-3.76v15.06
		L898.39,171.98z M964.87,189.51h-4.14v4.26h4.14V189.51z"/>
</g>
</svg>
