<?xml version="1.0" encoding="utf-8"?>
<svg version="1.1" id="Layer_1" xmlns="http://www.w3.org/2000/svg" xmlns:xlink="http://www.w3.org/1999/xlink" x="0px" y="0px"
	width="100px" height="100px" viewBox="0 0 100 100" style="enable-background:new 0 0 100 100;" xml:space="preserve">
<g>
	<path style="fill:#E8E8E8;" d="M50,0c27.6,0,50,22.4,50,50s-22.4,50-50,50S0,77.6,0,50S22.4,0,50,0"/>
	<path style="fill:#FFFFFF;" d="M50,1c27.1,0,49,21.9,49,49S77.1,99,50,99S1,77.1,1,50S22.9,1,50,1"/>
	<g>
		<g id="g4156">
			<path id="path5" d="M33.4,75.6l-0.5-3.2c-0.2-0.9-0.3-2.3-0.5-3.3h-0.1c-0.2,1-0.4,2.5-0.5,3.3l-0.6,3.1H33.4z M30.9,77.7
				l-0.7,3.5h-2.6l3.2-14.6H34l2.9,14.6h-2.6l-0.7-3.5H30.9z"/>
			<path id="path7" d="M42.7,74.7c0-0.2,0-0.4,0-0.6c-0.1-0.7-0.5-1.4-1.1-1.4c-1.1,0-1.4,1.5-1.4,3.3c0,2,0.6,3.2,1.4,3.2
				c0.4,0,0.8-0.2,1.1-1.1c0.1-0.2,0.1-0.4,0.1-0.7V74.7z M45.3,66.2v11.9c0,0.9,0,2.1,0.1,3h-2.3L43,79.9H43
				c-0.4,0.7-1.2,1.4-2.2,1.4c-2.2,0-3.2-2.4-3.2-5.4c0-3.7,1.6-5.5,3.4-5.5c0.9,0,1.5,0.4,1.8,1.1h0v-5.3H45.3L45.3,66.2z"/>
			<path id="path9" d="M50.8,79.3c1,0,1.2-1.9,1.2-3.4c0-1.5-0.2-3.4-1.3-3.4c-1.1,0-1.3,1.9-1.3,3.4C49.4,77.7,49.7,79.3,50.8,79.3
				L50.8,79.3z M50.7,81.3c-2.4,0-3.9-1.9-3.9-5.4c0-3.8,1.9-5.5,4-5.5c2.4,0,3.9,2,3.9,5.4C54.7,80.2,52.3,81.3,50.7,81.3
				L50.7,81.3z"/>
			<path id="path11" d="M58.8,77.4c0,0.3,0,0.5,0.1,0.7c0.3,0.9,0.7,1.1,1.1,1.1c1,0,1.4-1.3,1.4-3.3c0-1.9-0.4-3.2-1.4-3.2
				c-0.5,0-0.9,0.5-1.1,1.1c-0.1,0.2-0.1,0.5-0.1,0.7V77.4z M56.2,66.2h2.6v5.5h0c0.5-0.8,1.2-1.3,2.2-1.3c2,0,3,2.2,3,5.2
				c0,3.7-1.5,5.7-3.4,5.7c-0.9,0-1.5-0.4-2.1-1.4h-0.1l-0.1,1.3h-2.3c0-0.9,0.1-2.1,0.1-3V66.2L56.2,66.2z"/>
			<path id="path13" d="M70.3,74.9c0-1.5-0.4-2.5-1.3-2.5c-0.9,0-1.4,1.4-1.4,2.5H70.3z M67.6,76.7c0,1.9,1,2.5,2.3,2.5
				c0.8,0,1.5-0.2,2-0.4l0.4,1.9c-0.7,0.3-1.8,0.5-2.8,0.5c-2.8,0-4.4-1.9-4.4-5.2c0-3.5,1.8-5.6,4.1-5.6c2.2,0,3.5,1.9,3.5,4.9
				c0,0.7,0,1.1-0.1,1.4L67.6,76.7L67.6,76.7z"/>
		</g>
		<g id="g4151">
			<polygon id="polygon15" style="fill:#ED1C24;" points="55.9,18.7 72.7,18.7 72.7,58.8 			"/>
			<polygon id="polygon17" style="fill:#ED1C24;" points="44.1,18.7 27.3,18.7 27.3,58.8 			"/>
			<polygon id="polygon19" style="fill:#ED1C24;" points="42.7,50.7 50,33.5 60.7,58.8 53.7,58.8 50.5,50.7 			"/>
		</g>
	</g>
</g>
</svg>
