<svg xmlns="http://www.w3.org/2000/svg" viewBox="0 0 2493.8 494.4"><path d="M113.986 491.16c-1.441-1.776-3.234-3.335-3.905-3.335s-4.341-2.782-8.028-6.234c-3.67-3.452-8.581-7.458-11.027-9.033-2.346-1.559-6.016-4.575-8.128-6.687s-6.016-5.463-8.581-7.458l-11.916-9.469-9.352-7.793-8.363-6.804c-3.335-2.782-6.804-5.899-7.575-6.905-.788-1.106-2.011-2.011-2.782-2.011s-5.229-3.452-10.022-7.793-9.033-7.793-9.469-7.793-4.005-3.017-7.793-6.57l-7.039-6.603 6.234-6.016c3.452-3.234 8.128-7.24 10.357-8.798s5.128-3.788 6.352-5.011 7.458-6.469 13.927-11.58 13.256-11.027 15.15-13.039 3.905-3.67 4.341-3.67c1.006 0 12.033-9.033 12.586-10.257.218-.452 2.681-2.447 5.564-4.458 2.899-2.011 8.028-6.134 11.48-9.352 3.452-3.234 7.793-6.57 9.687-7.575s3.788-2.346 4.24-3.117c1.441-2.346 13.256-11.916 14.714-11.916.67 0 1.223-.452 1.223-1.106 0-.67.788-1.106 1.676-1.106 1.441 0 1.676 3.452 1.676 24.284v24.284l20.831.788c46.908 1.676 141.396 2.229 142.183.888.452-.67 1.676-1.341 2.681-1.341s3.117-1.894 4.676-4.123c3.788-5.564 3.67-12.703-.335-19.608-3.905-6.687-7.793-8.916-53.713-30.87l-20.614-9.586c-2.782-1.106-9.469-4.575-15.05-7.575-5.463-3.017-11.145-5.899-12.586-6.469-3.335-1.341-16.608-9.352-27.418-16.709-7.793-5.229-26.295-22.289-28.976-26.747-.553-1.006-2.447-3.788-4.123-6.352-5.229-7.793-9.687-17.279-10.81-22.507l-2.782-13.927c-2.899-14.48-1.776-48.467 1.676-52.255.553-.553 1.006-2.564 1.006-4.458 0-5.011 11.916-27.3 14.597-27.3.553 0 1.006-.888 1.006-2.112 0-2.229 15.15-17.161 23.396-22.96 2.782-2.011 10.257-6.134 16.709-9.134 28.524-13.709 33.535-14.262 119.777-13.809l81.114 1.106 13.156.788.218 46.691.218 46.691-73.538-.553c-40.456-.335-75.097-.335-77.108 0-1.894.335-5.128 1.894-7.24 3.57-3.57 2.899-3.67 3.335-3.67 11.027 0 7.24.218 8.245 3.335 11.363 1.776 1.894 5.463 4.575 8.028 5.899s9.921 5.229 16.156 8.698 12.921 6.57 14.714 7.022c1.776.452 4.676 1.776 6.352 2.899 1.676 1.223 3.452 2.112 4.005 2.112.888 0 10.139 4.458 28.407 13.592 3.452 1.776 7.139 3.117 8.028 3.117 1.006 0 1.776.452 1.776 1.106 0 .553.67 1.106 1.559 1.106s1.776.335 1.894.888c.553 1.223 9.352 5.799 11.145 5.799.888 0 4.123 1.776 7.357 3.905 3.234 2.112 6.234 3.905 6.687 3.905s2.681 1.441 4.793 3.117c2.112 1.776 5.681 4.005 7.91 5.128 2.229 1.006 5.564 3.234 7.458 4.91 7.139 6.352 9.033 7.91 11.262 9.033 1.223.67 4.676 4.341 7.575 8.128s5.899 7.458 6.57 8.028c1.676 1.559 7.24 10.357 7.24 11.48 0 .553 1.341 4.123 2.899 8.128 6.804 16.608 9.134 43.674 5.463 64.288-1.776 10.257-7.24 27.518-10.927 34.322-3.57 6.687-15.703 21.837-20.496 25.625-2.346 1.776-6.016 5.011-8.128 6.905-2.112 2.011-4.458 3.57-5.229 3.57-1.341 0-9.352 4.24-10.357 5.564-.335.335-3.57 1.894-7.24 3.335s-7.139 3.017-7.793 3.335c-2.681 1.776-20.061 5.229-33.987 6.687-17.714 1.776-52.372 2.782-52.372 1.441 0-.788-18.049-1.223-59.277-1.441l-64.288-.335-5.011-.117-.335 25.289c-.335 27.166-.553 28.289-5.681 21.938h0zm441.147-37.339c-13.491-1.894-27.183-5.229-42.115-10.139-13.592-4.575-18.502-6.905-30.971-15.15-2.564-1.676-5.011-3.017-5.463-3.017-3.67 0-32.864-30.535-32.864-34.423 0-.553-1.441-3.57-3.117-6.469-3.234-5.346-6.687-13.809-9.921-24.284-1.559-4.91-1.776-22.289-2.112-156.78l-.335-151.2h115.888v279.238l2.447 4.91c4.123 8.128 6.687 10.592 15.938 15.05l8.798 4.341h15.603c15.938 0 25.407-1.894 29.311-5.799.788-.788 2.112-1.441 3.017-1.441 1.894 0 9.368-8.245 10.692-11.815.67-1.676 1.106-56.83 1.106-143.625V52.242h116.894v294.606l-2.782 10.022-4.123 14.597c-1.676 5.799-9.368 19.826-12.485 23.06-1.341 1.341-3.234 3.905-4.123 5.799-2.229 4.24-20.949 21.619-26.295 24.401-2.229 1.106-5.128 3.017-6.352 4.005-3.234 2.782-21.167 12.251-23.396 12.251-1.006 0-3.452.67-5.346 1.559-10.357 4.676-24.619 8.245-44.244 11.262-13.508 2.145-49.171 2.028-63.651.017h0zm703.107-.553c-13.809-1.441-25.625-4.005-41.227-9.134-20.614-6.687-33.652-14.262-47.461-27.636-4.575-4.458-8.245-8.245-8.245-8.463s-2.229-3.335-4.91-6.905c-5.681-7.458-10.692-16.374-10.692-19.055 0-1.006-.452-2.346-1.006-2.899-1.341-1.441-5.346-14.145-7.575-23.949-1.676-7.458-1.894-22.625-2.229-155.658l-.335-147.312h116.995v139.619l1.776 145.083c2.681 8.128 5.899 10.927 15.703 13.809 16.608 4.91 36.334.888 43.238-8.798l3.335-4.793.335-142.519.335-142.519h115.888V191.76c0 154.216-.335 146.088 7.022 153.093 5.681 5.346 13.039 7.575 25.289 7.575 7.458 0 12.485-.67 17.279-2.229 7.24-2.346 9.586-4.341 12.821-11.145 2.112-4.341 2.112-8.698 2.112-145.636V52.242h116.995v145.301l-1.676 154.334c-2.112 11.363-6.234 23.731-10.592 31.758-1.776 3.452-3.335 6.905-3.335 7.793s-.67 2.229-1.341 3.117-2.899 3.452-4.676 5.899c-6.352 8.581-15.267 18.267-21.066 22.625-10.357 7.91-24.954 16.709-30.3 18.167-1.894.452-7.139 2.229-11.698 3.788-21.837 7.575-52.489 11.027-76.22 8.363-12.586-1.341-34.54-6.469-41.009-9.352-2.011-1.006-6.016-2.564-8.916-3.452-5.346-1.776-18.72-9.352-22.625-12.821-3.905-3.452-6.905-3.67-11.698-1.006-2.447 1.341-4.458 2.899-4.458 3.335 0 1.006-17.714 11.027-19.507 11.027-1.341 0-7.139 2.112-12.251 4.458-14.463 6.586-49.908 10.257-74.075 7.692h0zm390.434-6.905c-.335-.788-.335-68.075-.218-149.641l2.346-155.892c1.776-7.357 6.234-20.496 8.363-24.736l3.67-7.575c1.441-3.017 3.452-6.352 4.341-7.357 3.452-3.57 8.916-11.027 8.916-12.033 0-.553 2.112-2.782 4.676-4.91 2.564-2.112 7.24-6.234 10.257-9.033 3.017-2.782 6.016-5.128 6.687-5.128s4.123-2.011 7.692-4.458c13.809-9.352 38.328-18.167 63.617-22.843 13.709-2.447 49.137-3.452 64.07-1.676 19.507 2.229 38.663 6.687 48.702 11.262 2.564 1.223 5.564 2.112 6.57 2.112 2.229 0 16.273 7.022 20.949 10.592 1.894 1.341 5.229 3.452 7.458 4.575 5.011 2.564 22.843 18.938 24.854 22.725.788 1.559 3.117 4.676 5.229 7.022 6.687 7.458 14.262 24.954 18.267 42.568 2.011 8.463 2.112 16.709 2.112 157.116v148.2h-115.888l-.335-57.048-.335-57.048H1765.2l-.335 57.048-.335 57.048-57.718.335c-46.439.117-57.684-.117-58.137-1.223h0zm202.348-242.804c0-35.881-.117-38.445-2.346-44.462-2.782-7.692-6.016-10.81-15.05-14.815-15.15-6.57-37.322-6.469-51.702.335-8.798 4.123-10.474 5.799-13.927 13.156l-2.782 6.134v77.779h85.806v-38.127zm246.139 186.98v-57.048l-10.022-3.234c-5.463-1.776-14.379-5.346-19.608-8.028-5.346-2.681-10.139-4.91-10.81-4.91-1.559 0-12.821-7.91-22.625-15.82-7.793-6.352-15.82-15.485-22.172-25.407-1.776-2.782-3.788-5.564-4.458-6.352-1.441-1.559-7.575-19.826-9.921-29.529-1.441-6.016-1.676-21.066-1.676-97.604V52.141h114.766v78.214c0 80.225.452 89.141 4.458 93.934s15.485 11.58 22.289 13.256c8.128 1.894 25.96 2.229 33.317.553 11.815-2.681 21.619-10.022 25.859-19.39 1.894-4.005 2.011-8.028 2.112-40.674 0-19.943.553-41.009 1.106-46.791 1.223-12.033 5.564-29.077 9.352-37.322 2.564-5.564 16.709-23.949 18.267-23.949.452 0 3.57-2.112 6.905-4.575 7.24-5.463 16.491-9.921 23.295-11.145 2.782-.452 8.581-1.676 12.821-2.564 6.352-1.341 16.943-1.676 55.942-1.776h48.132V24.941c0-24.284.553-28.071 3.335-22.96.67 1.223 3.017 3.335 5.346 4.676 2.346 1.341 7.24 5.463 11.027 8.916s8.363 7.139 10.257 8.128 3.788 2.447 4.341 3.234c1.559 2.447 13.039 11.916 14.48 11.916.788 0 1.441.452 1.441 1.006s6.687 6.352 14.714 12.921c8.128 6.57 15.703 13.156 16.826 14.597 1.106 1.441 2.681 2.681 3.452 2.681s4.575 2.899 8.581 6.469 8.363 7.24 9.921 8.245c5.128 3.234 14.48 12.368 14.48 14.145 0 2.011-9.469 11.145-16.156 15.603-2.447 1.676-5.463 4.005-6.687 5.346s-8.245 7.24-15.603 13.374l-14.48 12.15c-.67.67-2.447 2.112-4.005 3.017-1.676 1.006-5.899 4.575-9.586 8.028s-7.139 6.134-7.692 6.134-4.005 2.782-7.692 6.234c-3.67 3.452-8.245 7.357-10.139 8.581s-7.24 5.564-11.698 9.352l-11.027 9.251-2.782 2.346-.335-25.189-.335-25.189-28.306.335c-21.401.218-28.742.67-29.747 1.776-1.106 1.106-1.559 11.363-2.112 44.009-.788 50.914-.888 51.249-13.374 77.108-2.346 4.91-5.681 10.474-7.458 12.368l-9.586 10.81c-3.57 4.123-7.139 7.458-7.793 7.458-.788 0-3.117 1.676-5.229 3.67-4.793 4.575-12.703 10.022-17.832 12.251-2.112.888-8.128 3.67-13.374 6.134s-13.039 5.681-17.496 7.139l-8.028 2.681-.335 56.83-.335 56.83-58.17.218h-58.053l-.084-57.031zM784.564 249.478V52.242h99.062c108.313 0 120.346.553 138.279 6.234 11.58 3.67 27.083 11.262 35.881 17.496 6.352 4.575 14.815 12.821 21.954 21.502 4.123 4.91 11.916 21.167 15.267 31.876 2.782 8.698 3.017 10.692 3.017 30.535 0 14.145-.335 21.837-1.106 22.843-.67.888-1.894 3.57-2.681 5.899-1.559 4.793-8.028 17.379-11.262 21.954-1.106 1.676-2.112 3.335-2.112 3.788 0 .788-17.714 18.385-18.602 18.385s-7.022 4.91-7.022 5.564c0 .335 2.011 1.559 4.575 2.681 2.447 1.106 5.681 3.117 7.139 4.341s4.575 3.905 6.905 5.681c9.469 7.357 22.843 23.396 24.954 30.082.788 2.447 1.776 4.91 2.229 5.564 1.894 2.447 6.687 20.614 7.458 28.407 1.006 10.257 0 31.876-1.894 40.121-2.229 9.804-9.033 29.077-11.916 34.322-3.452 6.016-10.257 15.485-13.256 18.502-10.022 10.022-16.491 15.385-21.619 18.167l-10.592 5.681c-9.134 4.91-19.608 9.134-22.625 9.134-1.676 0-4.793.553-6.905 1.223-13.156 4.005-23.295 4.341-130.033 4.341H784.698l-.134-197.086zm182.506 108.967c5.681-1.441 13.039-5.799 14.044-8.245.335-.888 1.341-1.559 2.112-1.559s2.681-2.564 4.24-5.799c2.447-5.229 2.681-7.139 2.681-21.954v-16.273l-4.123-6.352c-2.229-3.452-6.234-7.793-8.798-9.469l-4.676-3.117-35.764-.553-36.551-.218c-.452.218-.888 17.161-.888 37.557v37.222h31.306c20.161.101 33.082-.352 36.417-1.24h0zm0-152.205c5.346-2.899 12.921-13.039 14.145-19.172 3.67-17.614.335-34.423-8.363-41.68-8.028-6.804-7.793-6.804-42.015-7.139l-31.423-.335v71.561l31.423-.335c30.216-.335 31.675-.452 36.233-2.899h0z" fill="#ffcb08"/><path d="M1250.431 451.709c-12.921-1.894-22.39-4.24-36.434-9.033-13.927-4.676-15.938-5.681-25.524-12.251-3.905-2.681-7.575-4.91-7.91-4.91-.452 0-4.676-3.788-9.586-8.463-14.379-13.927-22.289-26.412-28.407-45.015-7.139-21.619-6.905-15.938-6.905-175.048V52.242h57.383c45.132 0 57.383.335 57.383 1.341l.218 140.625 2.447 144.295c2.346 5.463 5.899 10.022 7.91 10.022.67 0 2.899.788 4.793 1.776 5.128 2.564 16.273 3.788 24.619 2.782 13.809-1.776 22.843-8.028 25.742-18.049.67-2.346 1.106-56.277 1.106-143.289V52.242h56.712c50.696 0 56.83.218 57.383 1.776.335 1.006.67 64.522.67 141.178l2.112 143.96c1.106 2.447 3.335 5.564 4.793 7.022 7.91 7.24 29.529 9.586 42.668 4.676 8.245-3.117 8.916-3.57 12.586-9.921l3.017-5.128.553-141.513.553-141.513 57.718-.335 57.718-.335-.452 147.412-2.346 155.222c-2.681 11.027-6.905 22.843-10.139 28.524-1.559 2.681-2.782 5.681-2.782 6.687 0 2.681-11.58 17.379-20.496 26.077-4.458 4.24-11.48 10.022-15.703 12.703l-11.698 7.357c-2.112 1.341-5.899 3.117-8.363 3.905-2.447.788-5.899 2.011-7.793 2.782-5.564 2.346-18.385 5.799-28.976 7.91-14.48 2.899-53.93 2.899-67.421 0-9.033-1.894-21.837-5.799-27.853-8.363a35.67 35.67 0 0 0-5.564-1.776c-2.447-.553-23.178-12.251-24.518-13.927-.335-.335-1.676-1.341-3.117-2.112-2.782-1.559-5.799-.335-16.038 6.804-2.782 2.011-6.804 4.575-8.916 5.681-7.793 4.458-31.54 12.15-45.467 14.48-11.547 2.246-42.082 2.246-55.673.235h0zm398.914-151.434c0-163.467-.452-154.334 7.91-177.277 4.676-12.821 7.357-17.714 14.48-26.295 2.346-2.899 4.24-5.681 4.24-6.234s3.117-3.788 6.905-7.139l10.81-9.586c2.112-2.011 4.341-3.67 5.128-3.67s3.335-1.441 5.799-3.234c5.799-4.24 21.736-12.368 24.183-12.368 1.006 0 3.788-.788 6.016-1.776 12.586-5.463 34.322-9.921 56.159-11.58 26.747-2.112 56.277 1.006 80.007 8.363l14.597 4.458c6.57 1.894 17.932 7.692 24.518 12.251 2.782 2.011 6.134 3.905 7.357 4.341 1.223.335 4.91 3.234 8.245 6.352s7.139 6.469 8.581 7.357c1.441 1.006 4.676 4.676 7.139 8.363s5.463 7.575 6.57 8.698c5.346 5.346 14.48 28.859 17.161 44.126 1.441 8.581 1.676 29.077 1.676 155.557v145.636h-114.665v-113.66h-88.035v113.66h-114.766v-146.34h-.017zm202.801-95.929v-37.222l-2.899-7.793c-3.452-9.251-5.128-10.81-16.038-15.82-7.458-3.335-9.586-3.788-20.614-4.24-14.262-.553-22.507.788-31.423 4.91-8.463 3.905-9.921 5.346-13.491 12.703l-3.017 6.134-.335 39.216-.335 39.216h88.035l.117-37.104h0zm245.134 185.522v-56.83l-5.346-1.559c-7.793-2.346-22.289-8.245-27.518-11.262-2.447-1.441-5.799-2.899-7.357-3.234s-3.788-1.559-5.011-2.681-5.128-4.005-8.798-6.469c-14.48-9.804-30.2-27.853-36.987-42.35-3.57-7.692-8.245-23.513-9.469-31.976-.553-3.905-1.006-46.238-1.006-94.269V52.024l57.048.335 57.048.335.553 81.901 1.894 85.471c1.341 3.67 8.128 10.474 14.145 14.262 4.793 3.017 18.837 6.234 26.848 6.234 16.491 0 31.876-5.346 38.227-13.156 7.793-9.687 7.458-7.24 8.245-57.601l1.441-49.02c4.24-18.267 9.469-30.2 17.932-40.775 10.474-12.921 27.853-23.396 43.573-26.178 19.055-3.452 24.854-3.67 67.975-3.788h44.797v-24.77c0-23.63.117-24.736 2.011-22.39 1.106 1.341 3.905 3.67 6.352 5.229s7.458 5.681 11.027 9.033c3.57 3.335 7.022 6.234 7.575 6.234s4.793 3.452 9.469 7.793 8.916 7.793 9.469 7.793 2.447 1.441 4.24 3.335c1.776 1.776 8.698 7.692 15.267 12.921l14.145 11.698c1.223 1.106 5.229 4.458 8.916 7.357s7.575 6.352 8.698 7.793c1.106 1.341 2.681 2.564 3.452 2.564.788 0 4.91 3.234 9.134 7.24l7.692 7.24-6.134 5.799c-3.335 3.234-8.128 7.357-10.692 9.251-6.234 4.676-27.418 22.289-34.658 28.742-3.234 2.899-6.352 5.346-6.804 5.346s-3.788 2.782-7.458 6.234-8.463 7.357-10.592 8.698c-2.112 1.441-6.905 5.346-10.592 8.798-3.67 3.452-7.022 6.234-7.575 6.234s-4.793 3.452-9.469 7.793c-4.676 4.24-9.134 7.793-9.921 7.793s-1.341.553-1.341 1.106c0 .67-.452 1.106-1.106 1.106-.67 0-1.223-9.352-1.341-24.183l-.335-24.183-25.407-.335c-27.753-.335-33.535.452-34.54 4.458-.335 1.341-.67 16.826-.67 34.205 0 33.2-1.006 48.031-4.123 60.165-2.112 8.463-9.352 24.954-14.379 32.864-4.123 6.352-18.385 21.167-27.3 28.189-7.022 5.564-33.099 18.502-46.473 23.178l-9.134 3.234v113.207h-115.888l.251-56.947h0z" fill="#009743" stroke="#009743" stroke-miterlimit="4.4571" stroke-width=".187"/></svg>