<?xml version="1.0"?>
<svg xmlns="http://www.w3.org/2000/svg" xmlns:xlink="http://www.w3.org/1999/xlink" xmlns:svgjs="http://svgjs.com/svgjs" version="1.1" width="512" height="512" x="0" y="0" viewBox="0 0 512 512" style="enable-background:new 0 0 512 512" xml:space="preserve" class=""><g><g xmlns="http://www.w3.org/2000/svg" id="XMLID_103_"><g id="XMLID_1332_"><g id="XMLID_1334_"><g id="XMLID_1343_"><g id="XMLID_1344_"><g id="XMLID_1345_"><g id="XMLID_1346_"><g id="XMLID_1347_"><g id="XMLID_1348_"><g id="XMLID_1349_"><g id="XMLID_1350_"><g id="XMLID_1351_"><g id="XMLID_1352_"><g id="XMLID_1353_"><g id="XMLID_1354_"><path id="XMLID_2779_" d="m512 256c0 56.38-18.23 108.5-49.1 150.79-46.56 63.78-121.9 66.67-206.9 66.67s-160.34-2.89-206.9-66.67c-30.87-42.29-49.1-94.41-49.1-150.79 0-141.38 114.62-256 256-256s256 114.62 256 256z" fill="#f1f1f1" data-original="#404a4a" style="" class=""/></g></g></g></g></g></g></g></g></g></g></g></g></g></g><path id="XMLID_113_" d="m462.9 406.79c30.87-42.29 49.1-94.41 49.1-150.79 0-23.024-3.058-45.331-8.758-66.556l-129.919-129.646-256.26 75.202 26.041 24.862-8.195 247.305 65.179 65.179c17.998.964 36.707 1.115 55.912 1.115 85-.001 160.34-2.891 206.9-66.671z" fill="#f1f1f1" data-original="#333d3d" style="" class=""/><g id="XMLID_2934_"><g id="XMLID_2309_"><path id="XMLID_2583_" d="m128.094 133.222h255.812v278.195h-255.812z" fill="#ffe767" data-original="#ffe767" style="" class=""/><path id="XMLID_2958_" d="m256 133.223h127.905v278.197h-127.905z" fill="#f4ce2f" data-original="#f4ce2f" style="" class=""/><g id="XMLID_55_"><path id="XMLID_651_" d="m161.025 338.814h30v31.104h-30z" fill="#ff6326" data-original="#ff6326" style="" class=""/></g><g id="XMLID_3470_"><g><path id="XMLID_451_" d="m320.975 338.814h30v31.104h-30z" fill="#ff1f3d" data-original="#ff1f3d" style="" class=""/></g></g></g><path id="XMLID_904_" d="m223.496 338.811h65.001v68.356h-65.001z" fill="#f1f1f1" data-original="#404a4a" style="" class=""/><path id="XMLID_2951_" d="m255.997 338.814h32.503v68.356h-32.503z" fill="#f1f1f1" data-original="#333d3d" style="" class=""/><path id="XMLID_703_" d="m370.863 59.5h-229.727l-24.073 75.5h277.874z" fill="#ff6326" data-original="#ff6326" style="" class=""/><path id="XMLID_2952_" d="m394.94 135h-138.94v-75.5h114.86z" fill="#ff1f3d" data-original="#ff1f3d" style="" class=""/><g id="XMLID_2787_"><g id="XMLID_2784_"><path id="XMLID_819_" d="m161.025 160.132h43.317v44.342h-43.317z" fill="#e7f9fb" data-original="#e7f9fb" style=""/><path id="XMLID_2785_" d="m234.342 160.132h43.317v44.342h-43.317z" fill="#e7f9fb" data-original="#e7f9fb" style=""/><g fill="#d5e7f6"><path id="XMLID_2950_" d="m255.998 160.13h21.66v44.34h-21.66z" fill="#d5e7f6" data-original="#d5e7f6" style=""/><path id="XMLID_2786_" d="m307.658 160.132h43.317v44.342h-43.317z" fill="#d5e7f6" data-original="#d5e7f6" style=""/></g></g></g><g id="XMLID_3405_"><g id="XMLID_3406_"><path id="XMLID_3410_" d="m161.025 264.476h43.317v44.342h-43.317z" fill="#e7f9fb" data-original="#e7f9fb" style=""/><path id="XMLID_3409_" d="m234.342 264.476h43.317v44.342h-43.317z" fill="#e7f9fb" data-original="#e7f9fb" style=""/><g fill="#d5e7f6"><path id="XMLID_3408_" d="m255.998 264.474h21.66v44.34h-21.66z" fill="#d5e7f6" data-original="#d5e7f6" style=""/><path id="XMLID_3407_" d="m307.658 264.476h43.317v44.342h-43.317z" fill="#d5e7f6" data-original="#d5e7f6" style=""/></g></g></g><g id="XMLID_2791_"><path id="XMLID_2949_" d="m147.95 204.474h216.096v30h-216.096z" fill="#ff4d05" data-original="#ff4d05" style="" class=""/></g><g id="XMLID_2789_"><path id="XMLID_2790_" d="m255.998 204.477h108.052v30h-108.052z" fill="#ce3b00" data-original="#ce3b00" style=""/></g><g id="XMLID_2902_"><path id="XMLID_2904_" d="m366.547 55.668h-221.094c-4.208 0-7.62 3.411-7.62 7.62v3.832c0 8.541 6.8 15.716 15.341 15.754 2.989.013 5.78-.825 8.147-2.285 4.117-2.54 9.278-2.324 13.44.143 2.297 1.361 4.978 2.142 7.842 2.142s5.545-.781 7.842-2.143c4.247-2.517 9.428-2.517 13.675 0 2.297 1.361 4.978 2.143 7.842 2.143s5.545-.781 7.842-2.143c4.247-2.517 9.428-2.517 13.675 0 2.297 1.361 4.978 2.143 7.842 2.143s5.545-.781 7.842-2.143c4.247-2.517 9.428-2.517 13.675 0 2.297 1.361 4.978 2.143 7.842 2.143s5.545-.781 7.842-2.143c4.247-2.517 9.428-2.517 13.675 0 2.297 1.361 4.978 2.143 7.842 2.143s5.545-.781 7.842-2.143c4.247-2.517 9.428-2.517 13.675 0 2.297 1.361 4.978 2.143 7.842 2.143s5.545-.781 7.842-2.142c4.162-2.466 9.323-2.683 13.44-.143 2.367 1.46 5.158 2.298 8.147 2.285 8.541-.038 15.341-7.213 15.341-15.754v-3.832c-.001-4.209-3.412-7.62-7.621-7.62z" fill="#f9f9f9" data-original="#f9f9f9" style="" class=""/><path id="XMLID_2903_" d="m374.167 63.289v3.831c0 3.791-1.34 7.319-3.589 10.066-2.794 3.441-7.002 5.669-11.749 5.69-2.989.014-5.784-.828-8.147-2.289-4.121-2.538-9.278-2.323-13.439.148-2.303 1.36-4.983 2.141-7.844 2.141-2.862 0-5.548-.781-7.844-2.141-4.249-2.518-9.426-2.518-13.675 0-2.296 1.36-4.976 2.141-7.837 2.141-2.868 0-5.548-.781-7.844-2.141-4.249-2.518-9.427-2.518-13.675 0-2.296 1.36-4.976 2.141-7.844 2.141-2.862 0-5.541-.781-7.844-2.141-2.121-1.259-4.477-1.885-6.834-1.885v-23.183h110.545c4.206 0 7.62 3.414 7.62 7.622z" fill="#e7f9fb" data-original="#e7f9fb" style=""/></g></g><path id="XMLID_2777_" d="m462.9 406.79c-46.56 63.78-121.9 105.21-206.9 105.21s-160.34-41.43-206.9-105.21z" fill="#f9f9f9" data-original="#f9f9f9" style="" class=""/><path id="XMLID_2775_" d="m462.9 406.79c-46.56 63.78-121.9 105.21-206.9 105.21v-105.21z" fill="#e7f9fb" data-original="#e7f9fb" style=""/><g id="XMLID_3055_"><path id="XMLID_3056_" d="m121.279 429.395h60.721v30h-60.721z" fill="#e7f9fb" data-original="#e7f9fb" style=""/></g><g id="XMLID_1233_"><path id="XMLID_1234_" d="m209.707 463.875h83.29v30h-83.29z" fill="#e7f9fb" data-original="#e7f9fb" style=""/></g><g id="XMLID_1271_"><path id="XMLID_1272_" d="m256 463.875h36.997v30h-36.997z" fill="#d5e7f6" data-original="#d5e7f6" style=""/></g><g id="XMLID_3051_"><path id="XMLID_3052_" d="m280.623 420.292h100.363v30h-100.363z" fill="#d5e7f6" data-original="#d5e7f6" style=""/></g></g></g></svg>
