<svg xmlns="http://www.w3.org/2000/svg" viewBox="0 0 376.7 375.9" xmlns:v="https://vecta.io/nano"><defs><filter id="A" filterUnits="userSpaceOnUse" x="0" y="0" width="376.7" height="375.9"><feColorMatrix values="1 0 0 0 0  0 1 0 0 0  0 0 1 0 0  0 0 0 1 0"/></filter></defs><mask maskUnits="userSpaceOnUse" x="0" y="0" width="376.7" height="375.9" id="B"><g filter="url(#A)"><path d="M0 0h376.7v375.9H0z" fill-rule="evenodd" fill="#fff"/></g></mask><path d="M106.5 18.5c50-24.4 110.6-24.6 161-1.4-39-3.2-78 9.7-110.4 30.8-33.7 21.7-58.6 56.6-68.7 95.3-7.1 27.6-5.9 57.7 5.5 84 15.7 37.5 54 65.5 95.2 65.6 23.5.2 47.2-7.5 65.3-22.7 21.6-17.8 35.4-44.9 36.8-72.9 1-22.7-4.6-46.5-19.2-64.4-15.9-19.8-40-30.8-64.2-36.7-2.4-36.4 25.9-71 61.2-78.1 40.5 19.1 73.7 53.2 91.6 94.2 17.5 39.4 20.7 84.9 9 126.4-10.5 37.8-33.3 72.1-64.1 96.4-32.7 26.2-74.4 40.9-116.4 40.8-36.9.4-73.7-10.6-104.5-30.9C47 320.3 18.7 281.8 6.8 238.5-4.3 199.2-2 156.2 13.2 118.3 30.5 75 64.5 38.7 106.5 18.5" mask="url(#B)" fill-rule="evenodd" fill="#e60000"/></svg>