<?xml version="1.0" encoding="utf-8"?>
<svg version="1.1" id="Layer_1" xmlns="http://www.w3.org/2000/svg" xmlns:xlink="http://www.w3.org/1999/xlink" x="0px" y="0px"
	 viewBox="0 0 449.47 222.49" style="enable-background:new 0 0 449.47 222.49;" xml:space="preserve">
<g>
	<g transform="matrix(1.24588816121 0 0 1.24865052514 -201.90484950168 -7.74163313387)">
		<path style="fill:#00514B;" d="M316.78,6.29h3.87c3.24,1.08,4.9,3.28,4.81,6.74c-0.04,3.55-2.34,5.21-5.35,6.38
			c-13.39,5.3-23.91,14.07-30.2,27.1c-9.12,19.01-5.35,36.68,7.69,52.27c15.06,18.02,34.83,25.04,57.71,19.73
			c22.79-5.26,37.89-19.87,43.42-42.79c4.22-17.48-2.52-32.09-14.88-44.36c-5.48-5.44-12-9.3-19.19-12.09
			c-2.88-1.12-5.08-2.65-5.17-6.11c-0.13-3.42,1.39-5.71,4.58-6.92c1.3,0,2.56,0,3.87-0.04c7.33,1.75,13.12,6.2,18.11,11.46
			c17.62,18.65,22.83,40.63,14.43,64.72c-8.36,23.91-26.25,37.53-51.37,40.68c-36.9,4.63-69.8-26.11-68.32-63.28
			c0.81-19.69,9.03-35.51,24.45-47.64C308.69,9.53,312.47,7.32,316.78,6.29L316.78,6.29z"/>
		<path style="fill:#00514B;" d="M288.6,69.66c-1.53-13.21,3.24-24.27,11.91-33.89c3.19-3.55,6.7-6.74,11.15-8.67
			c4-1.8,7.33-0.85,8.94,2.43c1.66,3.42,0.45,6.52-3.6,8.45c-13.3,6.29-22.25,16.54-27.69,30.07
			C289.1,68.54,288.87,69.13,288.6,69.66L288.6,69.66z"/>
		<path style="fill:#00514B;" d="M396.7,70.16c-1.26-2.7-2.29-5.03-3.42-7.33c-5.62-11.24-13.98-19.64-25.39-24.86
			c-2.97-1.35-4.54-3.42-4.05-6.74c0.4-2.79,2.11-4.4,4.81-5.03c1.8-0.4,3.46,0.31,5.03,1.03C387.66,33.66,398.9,54.29,396.7,70.16
			L396.7,70.16z"/>
		<path style="fill:#00514B;" d="M290.53,74.79c-0.85-0.81-0.63-1.44-0.4-1.98c3.01-8.45,7.46-16.05,13.84-22.43
			c1.21-1.21,2.65-2.29,4.14-3.19c3.01-1.75,6.29-0.99,7.87,1.62c1.71,2.92,0.76,6.11-2.61,7.78c-7.28,3.51-13.75,8.14-19.19,14.11
			C292.87,72.05,291.7,73.44,290.53,74.79z"/>
		<path style="fill:#00514B;" d="M394.9,75.24c-3.91-4.4-7.19-8.23-11.28-11.33c-3.6-2.74-7.37-5.03-11.42-7.06
			c-3.73-1.84-4.94-5.12-3.1-8.14c1.75-2.92,5.03-3.46,8.45-1.12c6.43,4.45,10.56,10.83,14.07,17.62
			C393.1,68.09,394.77,71.01,394.9,75.24L394.9,75.24z"/>
	</g>
	<g transform="matrix(.71390707034 0 0 .71548993403 565.47692405573 156.69802008614)">
		<path style="fill:#00514B;" d="M-642.91,90.46h-39.46V31.99h38.24v9.9h-28.1v12.43h16.32v9.89h-16.32v16.33h29.32V90.46z"/>
		<path style="fill:#00514B;" d="M-729.97,90.46h-10.14V31.99h10.14v22.99h24.53V31.99h10.14v58.47h-10.14V65.12h-24.53V90.46z"/>
		<path style="fill:#00514B;" d="M-775.52,41.98h-16.57v-9.98h43.27v9.98h-16.56v48.48h-10.14V41.98z"/>
	</g>
	<g transform="matrix(.58432360843 0 0 .58561916168 823.05133990124 106.39583613038)">
		<path style="fill:#00514B;" d="M-963.11,168.26l-25.6-43.14h14.13l11.08,19.62c2.06,3.69,4.9,9.18,6.46,12.36
			c1.55-3.13,4.35-8.46,6.46-12.26l11.18-19.73h13.93l-25.59,43.14v28.16h-12.07V168.26z"/>
		<path style="fill:#00514B;" d="M-1025.12,125.12h-19.82v71.3h19.82c21.76,0,34.75-13.33,34.75-35.65
			C-990.37,138.44-1003.36,125.12-1025.12,125.12 M-1032.87,136.89h7.75c18.58,0,22.49,12.99,22.49,23.88
			c0,10.89-3.9,23.88-22.49,23.88h-7.75V136.89z"/>
		<path style="fill:#00514B;" d="M-1088.62,124.03c-18.29,0-30.57,14.8-30.57,36.84c0,21.92,12.21,36.64,30.37,36.64
			c18.35,0,30.67-14.81,30.67-36.84C-1058.15,138.75-1070.4,124.03-1088.62,124.03 M-1088.52,185.54
			c-11.01,0-18.41-9.99-18.41-24.87c0-14.99,7.07-24.68,18.01-24.68c11.07,0,18.5,10,18.5,24.88
			C-1070.42,175.86-1077.52,185.54-1088.52,185.54"/>
		<path style="fill:#00514B;" d="M-1139.38,157.81c5.02-3.06,7.67-7.78,7.67-13.76c0-11.85-7.78-18.93-20.82-18.93H-1182v71.3h28.48
			c15.93,0,24.7-7.89,24.7-22.21C-1128.82,165.18-1134.17,159.92-1139.38,157.81 M-1152.73,185.24h-17.8v-21.48h18.11
			c7.33,0,11.53,3.92,11.53,10.74C-1140.89,181.73-1144.76,185.24-1152.73,185.24 M-1152.63,152.69h-17.9v-16.4h17.9
			c7.31,0,8.85,4.54,8.85,8.35C-1143.78,146.53-1144.42,152.69-1152.63,152.69"/>
	</g>
	<g transform="matrix(.61786718286 0 0 .61923710841 1216.68854505371 -29.01135116726)">
		<path style="fill:#00514B;" d="M-1263.66,337.76h-28.32v67.35h11.29V380.6h16.38c13.94,0,22.59-8.23,22.59-21.47
			C-1241.73,345.95-1250.13,337.76-1263.66,337.76 M-1263.85,369.69h-16.85v-21.01h16.85c6.55,0,10.46,3.91,10.46,10.46
			C-1253.39,366.04-1257,369.69-1263.85,369.69"/>
		<path style="fill:#00514B;" d="M-1333.9,336.73c-17.28,0-28.88,13.98-28.88,34.8c0,20.7,11.53,34.61,28.69,34.61
			c17.33,0,28.98-13.98,28.98-34.8C-1305.11,350.64-1316.68,336.73-1333.9,336.73 M-1333.81,394.76c-10.36,0-17.32-9.41-17.32-23.42
			c0-14.11,6.65-23.23,16.94-23.23c10.41,0,17.41,9.41,17.41,23.42C-1316.78,385.64-1323.46,394.76-1333.81,394.76"/>
		<path style="fill:#00514B;" d="M-1386.27,337.76h11.48v67.35h-11.48v-29.3h-28.62v29.3h-11.47v-67.35h11.47v26.57h28.62V337.76z"
			/>
		<path style="fill:#00514B;" d="M-1438.37,385.42c0,13.36-8.92,20.72-25.12,20.72c-9.47,0-17.99-3.87-24-10.89l-0.49-0.58
			l8.18-7.96l0.56,0.61c4.28,4.65,10.61,7.53,16.5,7.53c8.74,0,12.81-2.79,12.81-8.77c0-4.48-3.33-6.85-14.26-10.12
			c-14.62-4.35-21.14-8.28-21.14-20.12c0-11.26,9.25-19.12,22.5-19.12c8.61,0,15.62,2.9,22.07,9.14l0.58,0.57l-8.1,8.21l-0.58-0.59
			c-4.09-4.18-8.63-6.05-14.73-6.05c-6.38,0-10.18,2.75-10.18,7.36c0,3.78,1.92,5.93,13.79,9.47
			C-1448.16,368.44-1438.37,372.47-1438.37,385.42"/>
	</g>
</g>
</svg>
