<?xml version="1.0"?>
<svg xmlns="http://www.w3.org/2000/svg" xmlns:xlink="http://www.w3.org/1999/xlink" xmlns:svgjs="http://svgjs.com/svgjs" version="1.1" width="512" height="512" x="0" y="0" viewBox="0 0 512 512" style="enable-background:new 0 0 512 512" xml:space="preserve" class=""><g><g xmlns="http://www.w3.org/2000/svg"><g><circle cx="256" cy="256" fill="#f1f1f1" r="256" data-original="#7584f2" style="" class=""/></g><path d="m148.705 372.833-17.353 82.094 44.142 44.142c25.317 8.381 52.378 12.931 80.506 12.931 141.385 0 256-114.615 256-256 0-18.63-2.008-36.787-5.787-54.286l-93.194-93.194z" fill="#f1f1f1" data-original="#4253ce" style="" class=""/><g><path d="m187.75 332.899-24.315-24.316 58.356-58.387 24.299 24.3-9.239 47.951z" fill="#86a1b5" data-original="#b2d7f3" style="" class=""/><path d="m211.995 357.159-24.276-24.292 58.371-58.371 24.285 24.284z" fill="#95c7ee" data-original="#95c7ee" style="" class=""/></g><g><path d="m99.103 422.652-32.346-32.346 99.441-99.483 32.325 32.325-22.977 74.473z" fill="#2dba7a" data-original="#2dba7a" style=""/><path d="m131.352 454.927-32.291-32.317 99.462-99.462 32.304 32.305z" fill="#0c8e69" data-original="#0c8e69" style=""/></g><g><g><g><path d="m368.312 259.455-150.935 44.707c-54.025-54.025-54.025-141.617 0-195.642s141.617-54.025 195.642 0z" fill="#b9c3cb" data-original="#d6e9f8" style="" class=""/></g></g><g><path d="m413.019 304.161c-54.025 54.025-141.617 54.025-195.642 0l195.642-195.642c54.025 54.025 54.025 141.617 0 195.642z" fill="#86a1b5" data-original="#b2d7f3" style="" class=""/></g></g><g><g><g><path d="m356.535 247.678-117.47 34.794c-42.046-42.046-42.046-110.217 0-152.264s110.217-42.046 152.264 0z" fill="#f8f7f7" data-original="#f8f7f7" style="" class=""/></g></g><g><path d="m391.33 282.472c-42.046 42.046-110.217 42.046-152.264 0l152.264-152.263c42.046 42.046 42.046 110.217 0 152.263z" fill="#efefef" data-original="#efefef" style="" class=""/></g></g><path d="m280.03 241.508 46.401-24.074 43.193-65.52c-5.421-2.769-11.555-4.341-18.059-4.341-14.14 0-26.554 7.381-33.604 18.499-7.051-11.118-19.465-18.499-33.604-18.499-21.961 0-39.765 17.803-39.765 39.765 0 10.253 3.881 19.599 10.254 26.651z" fill="#ff8fb8" data-original="#ff8fb8" style="" class=""/><path d="m369.624 151.914-89.594 89.594 37.93 41.446 63.116-68.966h-.001c6.372-7.052 10.254-16.398 10.254-26.651.001-15.456-8.824-28.843-21.705-35.423z" fill="#ff5f96" data-original="#ff5f96" style=""/></g></g></svg>
