<svg xmlns="http://www.w3.org/2000/svg" viewBox="0 0 923.09 175.39"><path d="M259.344 136.964l-17.56-71.891-20.038 71.891h-20.038l-25.616-78.501c-.826-2.272-1.652-2.48-3.718-3.098l-7.644-1.652 2.272-9.916h36.565v9.916L192 55.159l20.246 65.073 20.86-73.957h19.006l17.56 73.751 20.246-64.867-11.776-1.446 2.066-9.916h34.293v9.916l-6.61 1.032c-3.098.62-3.718 1.24-4.544 3.718l-24.584 78.501h-19.42zm127.048-46.893c0-23.758-8.676-34.293-26.236-34.293-17.766 0-28.096 10.536-28.096 34.499 0 24.17 9.296 35.739 27.27 35.739 17.558 0 27.062-11.156 27.062-35.945m-71.479 0c0-28.508 14.462-48.133 45.447-48.133s42.969 19.832 42.969 46.895c0 30.574-13.842 50.199-44.829 50.199-31.398.206-43.588-20.246-43.588-48.961m97.095 46.893v-9.916l9.09-1.032c2.48-.414 2.892-.826 2.892-3.718V60.529c0-2.066-.62-3.306-2.272-3.718l-10.33-3.512 1.652-9.71h23.758l1.86 12.602.62.206c5.992-6.818 14.874-14.462 27.27-14.462 4.132 0 9.71.826 13.014 1.652v27.476l-12.808-.62-2.272-12.602c-.206-1.446-.62-1.86-2.272-1.86-8.264 0-17.354 7.438-21.692 11.362v54.537c0 2.892.206 3.512 2.892 3.718l16.734 1.446v9.71h-48.135v.21zm72.719 0v-9.916l11.156-1.032c2.48-.206 2.892-.826 2.892-3.718V16.94c0-2.066-.62-3.306-2.272-3.718l-10.95-3.512L487.204 0H515.3v122.298c0 2.892.206 3.306 2.892 3.718l10.95 1.24v9.71l-44.415-.002zm114.859-71.683c-5.372-4.544-15.288-9.71-24.79-9.71-17.146 0-23.758 14.874-23.758 36.565 0 25.204 8.47 33.466 21.278 33.466 10.742 0 19.42-7.024 27.476-15.08V65.281h-.206zm3.1 71.683l-1.446-11.982-.826-.206c-8.264 8.056-17.766 14.254-32.02 14.254-20.658 0-34.293-13.428-34.293-46.895 0-35.739 16.114-50.407 38.011-50.407 10.95 0 20.658 3.718 27.682 8.676v-33.67c0-1.86-.826-3.098-2.272-3.718L586.778 9.71 588.431 0h27.682v122.298c0 2.892.206 3.306 2.892 3.718l9.296 1.24v9.71l-25.616-.002z" fill="#9d9d9c"/><path d="M666.105 113.828c6.198 5.992 15.288 11.776 24.79 11.776 17.354 0 23.758-14.254 23.758-37.185 0-24.584-9.71-32.434-20.866-32.434-11.568 0-22.518 7.024-27.682 11.156v46.687zm-26.856 61.561v-9.916l7.438-1.032c2.48-.414 3.098-.826 3.098-3.718V60.529c0-2.066-.62-3.306-2.272-3.718l-10.33-3.512 1.652-9.71H662.8l1.652 10.536.62.206c9.916-7.438 20.038-12.602 32.434-12.602 20.246 0 34.086 13.014 34.086 45.035 0 27.27-9.296 52.265-37.805 52.265-10.33 0-19.006-2.48-27.682-9.916v31.401c0 2.892.206 3.512 2.892 3.718l17.146 1.446v9.71H639.25zm158.656-80.154l-20.452 1.86c-15.7 1.446-20.038 5.992-20.038 15.494 0 9.71 4.132 13.842 12.602 13.842 10.742 0 22.104-8.676 27.682-14.048V95.236l.206-.002zm3.098 41.729l-1.652-11.776-.62-.206c-8.676 8.056-18.8 14.048-32.847 14.048-22.724 0-25.616-15.7-25.616-24.79 0-18.18 11.156-26.65 33.053-28.508l24.584-2.066v-9.71c0-13.222-2.48-19.832-18.386-19.832-11.156 0-19.006.414-19.212 14.048l-15.7-1.652c0-22.312 20.658-24.79 35.119-24.79 25.824 0 34.499 7.23 34.499 32.227v48.133c0 2.892.206 3.306 2.892 3.718l9.296 1.24v9.71h-25.411v.204zm35.74 38.425v-9.916l13.014-1.652c2.272-.206 2.892-1.24 3.926-3.718l10.536-24.17-32.64-77.263c-.826-2.272-1.652-2.48-3.718-3.098l-7.438-1.86 2.066-9.916h37.598v9.916l-11.982 1.446 24.17 60.941 25.204-60.941-12.396-1.446 2.066-9.916h35.945v9.916l-6.198.826c-2.272.414-3.718 1.032-4.544 3.098L868.35 163.821l-3.098 7.024c-1.032 2.48-3.718 4.544-7.23 4.544h-21.279zm-711.679-45.035c-1.24 1.86-2.686 3.718-4.338 5.578-3.512 3.926-7.644 7.644-12.188 10.742-5.784 3.926-11.776 7.024-17.974 9.296-5.372 1.86-10.122 2.892-14.254 3.098h-1.446c-2.066 0-3.512-.206-4.338-.826l-.414-.206-.414-.414v-.206c0-.206 0-.62.206-1.032.414-1.032 1.032-1.86 1.86-2.892.206-.206.62-.62.826-1.032 3.098-.826 6.198-1.86 9.71-2.892 3.098.62 6.404.826 9.296.62 3.718-.414 7.23-1.446 10.33-3.098 3.718-2.066 7.024-4.752 9.71-8.056 1.652-2.272 3.098-4.544 4.132-7.23 5.578-4.338 10.33-8.884 14.048-13.428l1.86-2.48c-1.448 4.954-3.514 9.914-6.612 14.458m-21.278 9.296c1.24-.62 2.272-1.446 3.512-2.066-1.652 2.066-3.718 3.926-5.784 5.372-2.892 1.86-5.992 3.306-9.09 3.926l-4.132.62c5.164-2.274 10.536-4.96 15.494-7.852m37.805-51.851c0-5.992-1.446-11.776-4.338-17.146-2.48-4.752-6.198-9.296-10.742-13.428-1.032-5.578-3.926-10.742-8.264-15.494-3.512-3.718-7.85-7.024-13.222-9.916-4.132-2.272-8.676-4.132-13.428-5.578-3.926-1.24-7.85-1.86-11.568-2.272-3.512-.414-6.404-.206-9.09.206-2.686.62-5.164 1.446-7.438 2.686l-.414.206c-3.098-.414-6.198-.414-9.09-.206h-.826c-2.892.206-8.884 1.032-8.47 3.926 0 0 0 1.652 3.718 2.892l5.164-3.098c-.414 0-.826-.206-1.24-.206 1.652-.206 3.306-.414 4.544-.414h1.032c-.414.206-.62.414-1.032.62l-1.652 1.032c-3.098 1.86-4.132 2.686-7.438 4.544-2.066 1.24-3.926 2.48-5.992 3.512l-11.982 6.198-10.95 4.958-.414.206c-1.032.414-2.066.826-2.892 1.24h-.206c-1.032.414-2.272 1.032-2.892 2.272l-.206.826v.826c0 .206.206.414.206.414l.62.62.62.414h.206c.62.206 1.446.206 2.272.206h3.718c1.446 0 2.892-.206 4.132-.206 6.818-.206 13.014-.206 19.006 0 5.784.206 11.568.826 17.354 1.446l8.676 1.24c1.86-1.652 3.306-2.892 4.338-4.132-5.992-1.24-11.982-2.066-17.766-2.686-5.992-.62-12.396-1.032-18.8-1.032h-2.272c-3.098 0-6.404 0-9.502.206 3.098-1.446 5.784-2.892 8.47-4.132a172.31 172.31 0 0 0 11.776-6.818c2.892-1.86 5.992-3.926 9.502-6.404l.62-.414 14.048 2.686 10.536 2.48c-1.446-3.512-5.784-5.578-8.264-6.61-3.512-.62-7.23-1.446-11.568-2.066 1.032-.826 2.066-1.446 3.098-1.86 3.512.414 6.404 1.032 9.09 2.066 2.066.826 3.718 1.652 5.164 2.686.206.206.62.414.826.62 2.48 2.066 3.926 4.752 3.926 7.438.206 2.272-.414 4.752-1.652 7.23-.62 1.446-1.652 2.892-2.686 4.338-.206.414-2.066 3.098-6.198 6.61-3.926 3.718-8.676 7.024-14.462 10.536-2.066 1.24-3.926 2.272-5.992 3.306-2.48 1.24-4.958 2.48-7.024 3.306-3.306 1.446-8.884 3.926-15.908 5.992-3.718 1.032-7.23 2.066-10.742 2.686-2.686.62-5.992 1.032-9.296 1.24 3.718-1.652 7.85-2.686 12.188-3.306 8.264-1.86 15.288-4.544 19.832-6.61-4.338 0-8.676.206-13.222.62-7.438.826-13.428 1.86-18.8 3.718-3.098 1.032-7.23 2.686-8.264 5.372-.206 1.446 0 2.48.414 3.512.826 1.652 2.48 2.48 5.164 2.892 2.066.206 4.338.206 7.438-.206 5.578-.62 11.568-1.86 18.386-4.132 5.992-1.86 11.362-4.132 16.526-6.404 5.784.206 11.568.826 17.146 1.86 5.992 1.032 11.156 2.48 16.114 4.338 5.578 2.066 10.33 4.338 14.254 7.024 1.446-1.032 2.686-2.066 3.718-2.892-.206 0-.206-.206-.414-.206-4.958-3.306-10.742-6.198-16.94-8.47-5.164-1.86-10.742-3.306-16.94-4.544a61.46 61.46 0 0 0-8.884-1.24c4.969-2.693 9.307-5.379 13.232-8.477 3.512-2.686 6.404-5.372 9.09-8.056 7.024 1.86 13.014 3.718 18.386 5.992 6.404 2.686 11.982 5.784 16.734 9.296l.414.206c1.032-1.446 1.86-3.098 2.48-4.338-4.338-3.098-9.09-5.784-14.254-8.264-5.784-2.686-12.188-4.958-19.212-6.818-.206 0-.414-.206-.826-.206 3.098-4.338 4.958-8.47 5.372-12.396a10.05 10.05 0 0 0 0-3.512c5.992 1.86 11.776 4.132 17.146 6.61s9.916 5.164 13.842 8.264l.206.206c-1.032-4.338-3.306-7.644-4.544-9.09-2.48-1.446-5.164-2.686-8.056-4.132-4.958-2.272-10.536-4.338-16.526-6.198-1.24-.414-2.686-.826-3.926-1.032h-.206c-1.86-3.306-4.752-5.164-7.024-6.404-2.48-1.24-5.372-2.272-8.676-2.892 1.446-.206 2.686-.414 4.132-.414h.414c1.24 0 2.686 0 4.132.206.414 0 .62 0 1.032.206 3.512.414 7.024 1.24 10.95 2.48 4.544 1.446 8.884 3.306 12.602 5.578 4.752 2.686 8.676 5.784 11.776 9.296 1.032 1.24 2.066 2.48 2.892 3.718.206.206.414.414.414.826 0 0 0 .206.206.206 1.446 2.48 2.892 5.784 3.098 9.71.414 4.132-.414 8.264-1.652 11.568 0 .206-1.652 4.752-4.544 8.884-2.892 4.338-6.818 8.676-11.568 12.808-1.032 1.032-4.132 3.718-8.47 6.61a137.37 137.37 0 0 1-13.014 8.056c-3.512 2.066-7.23 3.718-11.776 5.784-1.86.826-4.544 1.86-7.644 2.892-4.958 1.86-9.916 3.306-14.874 4.544-7.23 1.652-13.634 2.686-19.832 3.098-2.48.206-4.752.206-7.024 0-3.306-.206-6.818-.62-8.884-2.48l-.414-.414v-.414c.414-1.24 1.446-2.066 2.48-2.892 1.446-1.032 3.098-1.86 5.164-2.686 4.752-1.86 10.122-3.098 16.32-3.718 5.784-.414 11.776-.206 17.354.62 2.892.414 5.784 1.24 8.676 2.066 2.066-.62 4.132-1.446 5.578-2.066-3.512-1.446-7.438-2.686-11.568-3.718-5.784-1.24-11.982-1.652-18.18-1.446-6.404.206-12.396 1.24-17.766 2.892-4.338 1.446-9.09 3.306-11.982 7.024-1.24 1.652-1.86 3.512-1.446 5.578.414 2.48 2.48 4.132 3.512 4.752 2.686 1.652 5.992 2.48 8.264 2.686 2.48.414 5.164.62 8.056.62h1.446c5.992-.206 12.396-1.032 20.038-2.686 6.404-1.446 13.014-3.306 19.832-5.99 1.86-.826 3.926-1.446 5.784-2.272 3.098 2.066 5.372 4.338 6.818 6.818s2.066 4.752 2.066 7.23c0 2.272-.62 4.544-1.86 6.61-.206.62-.62 1.032-1.032 1.652 1.446-.414 2.892-1.032 4.338-1.652l.62-1.24c1.032-2.686 1.446-5.578 1.032-8.264-.414-3.098-1.86-6.198-4.132-8.884-1.032-1.446-2.48-2.686-3.926-3.926 6.61-3.098 12.602-6.404 17.974-9.916l7.85-5.578c4.132 3.926 7.23 8.264 8.676 13.014a23.72 23.72 0 0 1 1.24 7.644c1.652-1.446 3.098-2.686 4.132-3.718-.414-3.718-1.652-7.23-3.718-10.742-1.652-3.098-4.132-5.992-7.024-8.884 5.578-4.752 10.122-9.71 13.428-14.874.206-.206.414-.62.62-.826 4.132 4.132 7.23 8.676 9.296 13.222v.206c.414.826.62 1.86 1.032 2.686 1.446-3.306 2.066-6.198 2.272-8.056-1.652-3.306-3.926-6.404-6.404-9.09-1.032-1.24-2.272-2.272-3.512-3.512 2.272-4.752 3.718-9.296 4.132-13.634 1.032 1.24 2.066 2.48 2.892 3.718 3.098 4.752 5.164 9.71 5.578 14.462.206 1.86.206 3.512.206 5.372 0 .206 0 2.066-.62 4.958 0 .414-.206 1.032-.414 1.446-.62 2.272-1.652 5.164-3.098 8.264-.206.206-.206.62-.414.826s-.206.62-.414.826c-2.686 4.958-6.404 9.916-11.156 14.462-.62.62-1.24 1.24-2.066 1.86-1.652 1.652-4.132 3.718-6.404 5.372-4.544 3.512-9.502 6.61-14.668 9.296-3.926 2.066-8.056 4.132-12.396 5.784-4.544 1.86-8.884 3.306-12.188 4.132-6.198 1.652-12.188 2.892-17.974 3.512-5.372.414-9.502.414-13.428-.206-2.48-.414-4.338-1.032-5.992-1.86-.414-.206-.826-.62-1.032-.826 0-.206-.206-.206-.206-.414v-.414c.826-2.066 3.512-3.098 6.198-3.926 2.48-.826 5.578-1.24 8.884-1.24h.414c3.098 0 6.198.414 9.502 1.24 3.098.62 6.198 1.652 8.884 2.686.206 0 .206.206.414.206 1.24-.206 2.686-.62 4.544-1.24-.206 0-.414-.206-.826-.206-1.24-.414-2.48-1.032-3.718-1.446-3.512-1.446-6.404-2.272-9.296-3.098-3.512-.826-7.024-1.446-10.33-1.446-3.512-.206-7.024.206-10.33 1.032-3.512.826-5.992 2.272-7.85 3.926-1.24 1.24-1.86 2.892-1.86 4.544s.826 3.306 2.272 4.544c3.718 3.306 9.71 4.132 14.462 4.338 5.992.414 12.396-.206 19.42-1.446.826-.206 1.86-.414 2.686-.62-.62 1.032-1.24 2.066-1.446 3.306-.206 1.86.826 3.718 2.892 4.752 1.86 1.032 4.338 1.652 7.644 1.652h1.86c5.164-.206 10.536-1.446 16.526-3.718 5.992-2.066 11.568-5.164 16.94-8.676 4.752-3.306 9.296-7.23 13.014-11.568 3.926-4.544 7.23-9.502 9.296-14.668 2.272-5.164 3.306-10.95 3.098-16.526 0-.826 0-1.652-.206-2.48 3.713-5.985 5.16-12.183 5.16-18.173" fill="#e30613"/></svg>