<?xml version="1.0" encoding="utf-8"?>
<svg version="1.1" id="Layer_1" xmlns="http://www.w3.org/2000/svg" xmlns:xlink="http://www.w3.org/1999/xlink" x="0px" y="0px"
	width="100px" height="100px" viewBox="0 0 100 100" style="enable-background:new 0 0 100 100;" xml:space="preserve">
<g>
	<path style="fill:#E8E8E8;" d="M50,0c27.61,0,50,22.39,50,50s-22.39,50-50,50S0,77.61,0,50S22.39,0,50,0"/>
	<path style="fill:#FFFFFF;" d="M50,1c27.06,0,49,21.94,49,49S77.06,99,50,99S1,77.06,1,50S22.94,1,50,1"/>
	<g id="Page-1">
		<g id="logo-black">
			<g id="_x31_61130_x5F_CECOLogo_x5F_black">
				<path id="Fill-1" style="fill-rule:evenodd;clip-rule:evenodd;fill:#1A1918;" d="M33.05,53.5c-1.85,0-3.27-1.42-3.27-3.29
					c0-1.82,1.37-3.29,3.19-3.29c0.94,0,1.75,0.41,2.33,0.99l1.19-1.26c-0.86-0.84-2.08-1.37-3.5-1.37c-2.98,0-5.05,2.18-5.05,4.93
					s2.09,4.93,5.08,4.93c1.75,0,3.18-0.75,4.02-1.83l-1.27-1.14C35.2,52.9,34.3,53.5,33.05,53.5"/>
				<path id="Fill-2" style="fill-rule:evenodd;clip-rule:evenodd;fill:#1A1918;" d="M47.31,50.22c0-2.41-1.59-4.4-4-4.84v1.71
					c1.28,0.43,2.15,1.67,2.15,3.12c0,1.81-1.34,3.29-3.15,3.29c-1.81,0-3.15-1.48-3.15-3.29c0-1.45,0.87-2.69,2.15-3.12v-1.72
					c-2.41,0.44-4,2.43-4,4.84c0,2.72,2.04,4.93,5,4.93C45.27,55.14,47.31,52.94,47.31,50.22"/>
				<polyline id="Fill-3" style="fill-rule:evenodd;clip-rule:evenodd;fill:#1A1918;" points="55.37,51.67 50.03,45.42 48.73,45.42 
					48.73,55.01 50.57,55.01 50.57,48.76 55.91,55.01 57.21,55.01 57.21,45.42 55.37,45.42 55.37,51.67 				"/>
				<path id="Fill-4" style="fill-rule:evenodd;clip-rule:evenodd;fill:#1A1918;" d="M63.85,45.29c-2.96,0-5,2.2-5,4.93
					s2.04,4.93,5,4.93c2.96,0,5-2.2,5-4.93S66.81,45.29,63.85,45.29 M63.85,53.5c-1.81,0-3.15-1.48-3.15-3.29
					c0-1.81,1.34-3.29,3.15-3.29c1.81,0,3.15,1.48,3.15,3.29C67,52.02,65.66,53.5,63.85,53.5"/>
				<polyline id="Fill-5" style="fill-rule:evenodd;clip-rule:evenodd;fill:#1A1918;" points="84.68,54.99 84.68,51.29 81.27,45.43 
					83.16,45.43 85.53,49.45 87.91,45.43 89.8,45.43 86.39,51.29 86.39,54.99 84.68,54.99 				"/>
				<g id="Group-9">
					<g id="Clip-7">
					</g>
					<defs>
						<filter id="Adobe_OpacityMaskFilter" filterUnits="userSpaceOnUse" x="20.87" y="45.43" width="6.5" height="9.57">
							<feColorMatrix  type="matrix" values="1 0 0 0 0  0 1 0 0 0  0 0 1 0 0  0 0 0 1 0"/>
						</filter>
					</defs>
					<mask maskUnits="userSpaceOnUse" x="20.87" y="45.43" width="6.5" height="9.57" id="mask-2_2_">
						<g style="filter:url(#Adobe_OpacityMaskFilter);">
							<polygon id="path-1_2_" style="fill-rule:evenodd;clip-rule:evenodd;fill:#FFFFFF;" points="10.8,55.14 10.8,45.29 
								19.09,45.29 27.37,45.29 27.37,55.14 							"/>
						</g>
					</mask>
					<polyline id="Fill-6" style="mask:url(#mask-2_2_);fill-rule:evenodd;clip-rule:evenodd;fill:#1A1918;" points="20.91,45.43 
						20.91,55 27.37,55 27.37,53.49 22.68,53.49 22.68,50.84 25.86,50.84 25.86,49.26 22.68,49.26 22.68,46.97 27.09,46.97 
						27.09,45.43 20.87,45.43 					"/>
					<defs>
						<filter id="Adobe_OpacityMaskFilter_1_" filterUnits="userSpaceOnUse" x="10.8" y="45.29" width="9.1" height="9.86">
							<feColorMatrix  type="matrix" values="1 0 0 0 0  0 1 0 0 0  0 0 1 0 0  0 0 0 1 0"/>
						</filter>
					</defs>
					<mask maskUnits="userSpaceOnUse" x="10.8" y="45.29" width="9.1" height="9.86" id="mask-2_1_">
						<g style="filter:url(#Adobe_OpacityMaskFilter_1_);">
							<polygon id="path-1_1_" style="fill-rule:evenodd;clip-rule:evenodd;fill:#FFFFFF;" points="10.8,55.14 10.8,45.29 
								19.09,45.29 27.37,45.29 27.37,55.14 							"/>
						</g>
					</mask>
					<path id="Fill-8" style="mask:url(#mask-2_1_);fill-rule:evenodd;clip-rule:evenodd;fill:#1A1918;" d="M12.65,50.22
						c0,1.86,1.42,3.29,3.27,3.29c1.25,0,2.15-0.6,2.71-1.33l1.27,1.14c-0.85,1.08-2.27,1.83-4.02,1.83c-2.98,0-5.08-2.18-5.08-4.93
						s2.07-4.93,5.05-4.93c1.42,0,2.64,0.53,3.5,1.37l-1.19,1.26c-0.57-0.57-1.38-0.99-2.33-0.99
						C14.02,46.93,12.65,48.39,12.65,50.22"/>
				</g>
				<polyline id="Fill-10" style="fill-rule:evenodd;clip-rule:evenodd;fill:#1A1918;" points="75.82,52.39 78.24,49.01 78.24,55 
					80.03,55 80.03,45.42 78.65,45.42 75.23,50.24 71.82,45.42 70.44,45.42 70.44,55 72.25,55 72.25,49.01 74.65,52.39 75.82,52.39 
									"/>
			</g>
		</g>
	</g>
</g>
</svg>
