<?xml version="1.0" encoding="utf-8"?>
<svg version="1.1" id="Layer_1" xmlns="http://www.w3.org/2000/svg" xmlns:xlink="http://www.w3.org/1999/xlink" x="0px" y="0px"
	width="100px" height="100px" viewBox="0 0 315 315" style="enable-background:new 0 0 315 315;" xml:space="preserve">
<g>
	<g>
		<path style="fill:#E8E8E8;" d="M157.5,0C244.5,0,315,70.5,315,157.5S244.5,315,157.5,315S0,244.5,0,157.5S70.5,0,157.5,0"/>
		<path style="fill:#FFFFFF;" d="M157.5,3.2c85.2,0,154.4,69.1,154.4,154.4s-69.1,154.4-154.4,154.4S3.2,242.7,3.2,157.5
			S72.3,3.2,157.5,3.2"/>
	</g>
	<path d="M141.6,138.1c-1.2-3.1-2.9-3.1-6.8-3.1c1.2-3.7,0.1-7.9-2.9-10.4c-3,2.6-4.2,6.7-3.1,10.4c-3.8,0-5.7,0-6.8,3.2
		c2.1,0.9,4.2,1.7,6.1,2.7c2,1,1.5,2,0,3.5c-1.6,3.2-4.7,5.4-8.3,5.8c0-0.6,0-1.2,0-1.8l-7.7-26.2c-1.5-5.6-0.9-11.6,1.7-16.9
		c3-6.5,9.6-10.7,16.7-10.7c5.3-0.1,10.5,0.9,15.3,2.9l4.7,1.5c-1.6-3.5-0.2-7.5,3.1-9.4c2.4-1.4,5.4-1.1,7.5,0.8
		c2.6,2,3.5,5.6,2,8.6c1.6-0.3,3.1-0.8,4.6-1.4c4.9-1.9,10.1-3,15.3-3.1c10.6-0.5,19.6,7.6,20.1,18.2c0,0.6,0,1.3,0,1.9
		c0,4.2-0.6,8.3-1.7,12.3c-2.1,7.8-4.6,15.3-7,23c-4.1-0.1-7.6-2.9-8.8-6.8c0-0.9,0.4-1.8,1.1-2.3c0.8-0.8,1.8-1.4,2.9-1.7h3.4
		c-0.9-2.7-2.7-3.7-6.8-3.5c1.1-3.7-0.1-7.8-3.1-10.3c-3,2.5-4.2,6.5-3.1,10.3c-4,0-5.7,0-6.6,3.2c1.8,0.6,3.6,1.4,5.3,2.3
		c2.9,1.8,2.6,2.1,0,4.4c-4,4.2-10.4,5-15.3,2c-1.4-0.8-2.6-1.7-3.7-2.7l-2.7-3.1c-2.7,2.3-5.5,4.4-8.4,6.4c-5,2.5-11,1-14.4-3.4
		c-0.9-1.2-0.9-2.3,0-2.9C136.8,140.6,139.2,139.3,141.6,138.1L141.6,138.1z M195.1,122.8c0.5-2.8,0.8-5.6,0.9-8.4
		c0.8-6.7-4.1-12.8-10.9-13.5c-1.5-0.1-3,0-4.4,0.3c-3.8,0.6-7.5,1.5-11.2,2.6c-8.2,2.6-17.1,2.6-25.3,0c-3.7-0.9-7.5-1.7-11.4-2.1
		c-4.9-1-10,1.2-12.6,5.5c-2.1,4.9-2.1,10.4,0,15.3c23-13.8,51.8-13.8,74.8,0L195.1,122.8L195.1,122.8z M168.9,145.3V130l-7.7,7.8
		L168.9,145.3z M153.6,137.5l-7.7-7.5v15.3L153.6,137.5z M149.6,125.8l7.7,7.7l7.8-7.7H149.6z M108.4,181c1.8,0,3.4-0.9,4.7-1.5
		c5.3-2.2,10.9-3.2,16.6-2.9c9.8,0.3,17.8,7.9,18.5,17.6c0.6,4.8,0.1,9.7-1.4,14.2c-2.1,7.7-4.6,15.3-6.9,22.7v1.2
		c-3.9-0.4-7.1-3.1-8.4-6.8c-0.2-0.7-0.2-1.5,0-2.1c1.8-1.7,4.3-2.7,6.8-2.7c0-2.6-2.7-3.8-6.6-3.7c0.2-1.9,0.2-3.8,0-5.7
		c-0.6-1.8-1.4-3.4-2.5-4.9c-3.2,2.3-3.8,4.2-3.7,10.1c-1.6,0.3-3.2,0.8-4.7,1.4c-0.9,0-1.4,1.5-2,2.1l6.4,3.1c1.7,0.8,1.4,2,0,3.4
		c-3.7,4.5-10.2,5.7-15.3,2.9c-2.8-1.8-5.4-3.9-7.8-6.1c-2.1,2.1-4.3,4-6.8,5.7c-4.4,2.8-10,2.4-14-0.9c-3.2-2.9-3.4-4,0-6.1
		l4.4-1.5c-1.1-2.7-2.9-3.7-6.8-3.4c1.2-3.7,0-7.8-3.1-10.3c-3,2.5-4.2,6.5-3.1,10.3c-2.7-0.8-5.6,0.6-6.8,3.2
		c2.1,0.9,4.2,1.7,6.1,2.7c1.1,0.4,1.7,1.6,1.3,2.7c0,0,0,0.1,0,0.2l0,0c-1.7,3.3-4.8,5.5-8.4,6l-3.5-11.6
		c-1.8-6.3-3.8-12.4-5.1-18.7c-1.6-7.6,0.9-15.4,6.8-20.5c4.3-3.6,9.8-5.3,15.3-4.6c4.6,0.2,9.1,1.2,13.3,3.1l4.3,1.2
		c-1.6-3.2-0.4-7.1,2.6-9c2.2-1.6,5.3-1.6,7.5,0C109.2,173.9,110.1,177.9,108.4,181L108.4,181z M65.1,204.8
		c10.9-7.3,24-10.8,37.1-10c13.2-0.6,26.3,3,37.3,10.4c0-1.8,0-3.5,1.1-5.1c2-7-2.1-14.3-9.1-16.3c-2.3-0.7-4.8-0.7-7.1,0
		c-3.2,0.6-6.3,1.4-9.4,2.5c-6,1.9-12.3,2.4-18.4,1.4c-4.6,0-8.9-2.1-13.3-3.2c-3.6-0.9-7.3-0.9-10.9,0c-9.7,2.6-10.3,15.3-7.2,21
		L65.1,204.8L65.1,204.8z M113.6,211.5l-7.5,7.5l7.5,7.7V211.5L113.6,211.5z M94.7,207.7l7.5,7.5l7.5-7.5H94.7z M98.5,219.4
		l-7.7-7.8v15.3L98.5,219.4z M250.2,232.5c-3.8-0.5-7-2.9-8.6-6.4v-2.7l6.4-3.1c0-2.1-2.7-3.4-6.6-3.2c1.1-3.7-0.1-7.8-3.1-10.3
		c-3,2.5-4.2,6.7-2.9,10.4c-2.7-0.9-5.7,0.4-6.9,3.1c2.1,0.8,4.1,1.7,6,2.7c2,1.2,2,2,0,3.8c-3.3,3.6-8.5,5-13.2,3.4
		c-3.3-1-6.2-3.2-8.1-6.1l-0.8-0.9c-2.6,2.3-5.4,4.4-8.3,6.4c-4.7,2.4-10.4,1.4-14-2.5c-1.7-2-1.7-3.1,0-4.4
		c1.8-0.9,3.7-1.7,5.7-2.3c-0.8-2.6-2.7-3.7-6.8-3.2c1.2-3.7,0-7.8-2.9-10.4c-3,2.6-4.2,6.7-3.1,10.4c-2.7-0.8-5.6,0.5-6.8,3.1
		c2.2,0.9,4.4,2,6.4,3.2c1.1,0,1.2,1.5,0,2.7c-1.7,3.4-4.9,5.7-8.6,6.3l-5.1-16.7c-1.5-5.5-2.7-9.8-3.7-15.3c-0.9-5,0-10.1,2.6-14.4
		c3.7-6.8,11.2-10.6,18.9-9.8c4.5,0.3,9,1.3,13.2,3.1l4.3,1.4c-0.8-3.8,1.4-7.6,5.1-8.8c2.2-1.6,5.2-1.6,7.4,0
		c2.7,2,3.6,5.7,2.1,8.8l5.8-0.8c4.9-2,10.1-3,15.3-2.9c10.5,0.2,18.9,8.8,18.9,19.3c0.1,5.2-0.7,10.4-2.5,15.3L250.2,232.5
		L250.2,232.5z M250.2,205.3c0.6-2.5,0.9-5,1.1-7.5c0.9-6.9-3.9-13.2-10.7-14.2c-1.5-0.2-3.1-0.1-4.6,0.2c-2.8,0.4-5.6,1.1-8.3,2
		c-8.1,2.7-16.8,3.2-25.2,1.2c-4.3-1.3-8.7-2.4-13.1-3.2c-4.9-1.2-10.1,0.8-12.9,5.1c-2.6,5.1-2.6,11.1,0,16.1
		c22.9-13.7,51.5-13.7,74.4,0L250.2,205.3L250.2,205.3z M220.6,208h-15.3l7.7,7.8L220.6,208L220.6,208z M208.8,219.7l-6.8-8V227
		L208.8,219.7z M224.9,211.7l-7.5,7.5l7.5,7.8V211.7z M121.7,167.1v-5.2h71.5v5.2H121.7z M66.5,249.1v-5.2h71.1v5.2H66.5z
		 M177.7,249.3v-5.2H249v5.2H177.7z M110,237l-7.5,3.1h-0.3l-7.5-3.2l7.2-3.5h1.7L110,237L110,237z M165.6,154.8l-7.7,3.1
		c-0.4,0.2-0.9,0.2-1.2,0c-2.3-0.8-4.4-1.8-7-2.9l7.5-4.6h0.9L165.6,154.8L165.6,154.8z M221.4,236.9l-7.5,3.1H213l-7.7-3.1l7.2-3.7
		h1.5L221.4,236.9L221.4,236.9z M174.1,152.2h10.4v4.9h-10.4V152.2z M118.8,239.2v-4.7H129v4.7H118.8z M229.9,234.4h10.3v4.7h-10.4
		L229.9,234.4z M129.5,152.5h10.4v4.7h-10.4V152.5z M74.3,234.7h10.1v4.7H74.3V234.7z M185.3,239.5v-4.7h10.3v4.7H185.3z
		 M92.6,163.6v-12l6,6.1L92.6,163.6z M112,163.6l-5.8-6l5.8-6V163.6L112,163.6z M203.9,151.5l6.3,6.1l-6.3,6V151.5z M102.2,161.1
		l6.3,6.1H96.4L102.2,161.1L102.2,161.1z M167.5,81.5l-6.1-6l6-6.1L167.5,81.5z M213.9,161.5l5.7,5.8H208L213.9,161.5z M157.4,71.4
		l-5.8-5.7h12L157.4,71.4z M220,147.9l-6.4,6.1l-6.3-6.1H220z M223.4,151.5v12.1l-6-6.1L223.4,151.5z M102.2,153.7l-5.8-5.8H108
		L102.2,153.7L102.2,153.7z M163.5,85.1h-12.4l6.4-6L163.5,85.1L163.5,85.1z M148.2,81.5V69.3l6,6.3L148.2,81.5z"/>
</g>
</svg>
