<?xml version="1.0" encoding="utf-8"?>
<svg version="1.1" id="Layer_1" xmlns="http://www.w3.org/2000/svg" xmlns:xlink="http://www.w3.org/1999/xlink" x="0px" y="0px"
	 viewBox="0 0 129.3 25.3" style="enable-background:new 0 0 129.3 25.3;" xml:space="preserve">
<g>
	<rect style="fill:#00788A;" width="129.3" height="25.3"/>
	<path style="fill:#FFFFFF;" d="M6.4,7.4c0-0.8-0.1-1.6-0.1-2.5c0.2,0,0.5,0,0.8,0.1S7.6,5,8,5c0.5,0,1,0,1.5-0.1s1,0,1.5,0
		c0.8,0,1.5,0,2.3,0.2c0.5,0.1,0.9,0.3,1.3,0.6c0.4,0.3,0.7,0.7,1,1.1c0.2,0.5,0.3,1,0.3,1.5c0,0.6-0.1,1.3-0.4,1.9
		c-0.2,0.5-0.6,0.9-1.1,1.3c-0.5,0.3-1.1,0.6-1.7,0.7c-0.7,0.2-1.4,0.2-2.1,0.2H9.5c0,1,0,1.9,0,2.8c0,0.9,0.1,1.9,0.1,2.8
		c-0.3,0-0.5,0-0.8,0H7.1c-0.3,0-0.5,0-0.8,0c0.1-0.8,0.1-1.6,0.1-2.4c0-0.8,0-1.8,0-2.8v-2.6C6.5,9.1,6.4,8.2,6.4,7.4z M12.4,7.3
		c-0.1-0.3-0.3-0.6-0.5-0.8c-0.2-0.2-0.4-0.3-0.7-0.4C11,6,10.7,6,10.4,6H9.7C9.7,6,9.6,6,9.5,6c0,0.9,0,1.8,0,2.7
		c0,0.9,0,1.8,0,2.7c0.4,0,0.7,0,1.1-0.1c0.4-0.1,0.7-0.2,1-0.4c0.3-0.2,0.6-0.5,0.7-0.8c0.2-0.5,0.3-1,0.3-1.5
		C12.6,8.1,12.5,7.7,12.4,7.3L12.4,7.3z"/>
	<path style="fill:#FFFFFF;" d="M16.4,11.4c0.3-0.6,0.6-1.1,1.1-1.6c0.5-0.4,1-0.7,1.6-1c0.6-0.2,1.2-0.3,1.9-0.3
		c1.4-0.1,2.7,0.4,3.7,1.3c0.9,0.9,1.4,2.1,1.3,3.4c0,0.7-0.1,1.4-0.4,2.1c-0.2,0.6-0.6,1.1-1,1.6c-0.5,0.4-1,0.8-1.6,1
		c-0.7,0.2-1.3,0.3-2,0.3c-0.6,0-1.2-0.1-1.8-0.2c-0.6-0.1-1.1-0.4-1.6-0.8c-0.5-0.4-0.9-0.9-1.2-1.4c-0.3-0.7-0.5-1.4-0.4-2.2
		C16,12.9,16.1,12.1,16.4,11.4z M22.6,10.4c-0.3-0.6-0.9-1-1.5-0.9c-0.7,0-1.2,0.4-1.5,1c-0.4,1-0.6,2.1-0.5,3.2c0,0.5,0,1,0.1,1.5
		c0.1,0.4,0.2,0.8,0.3,1.2c0.1,0.3,0.4,0.6,0.6,0.8c0.3,0.2,0.6,0.3,1,0.3c1.3,0,2-1.5,2-4.5C23.1,12.1,22.9,11.2,22.6,10.4z"/>
	<path style="fill:#FFFFFF;" d="M34.2,16.6c-0.4,0.5-0.8,0.9-1.4,1.2c-0.5,0.3-1.1,0.4-1.8,0.4c-0.9,0.1-1.7-0.2-2.4-0.8
		c-0.6-0.7-0.9-1.7-0.8-2.6c0-0.6,0-1.2,0-1.7c0-0.5,0-1,0-1.5c0-0.4,0-0.8,0-1.3s0-1-0.1-1.4c0.2,0,0.4,0,0.7,0.1s0.6,0,0.9,0
		s0.6,0,0.9,0s0.5,0,0.7-0.1c-0.1,0.8-0.2,1.6-0.2,2.4c0,0.9,0,1.9,0,3.1c-0.1,0.6,0.1,1.2,0.4,1.8c0.3,0.4,0.8,0.6,1.2,0.6
		c0.6,0,1.1-0.3,1.4-0.7c0.3-0.6,0.5-1.3,0.4-2.1V13c0-0.8,0-1.5,0-2.2s-0.1-1.4-0.1-2c0.5,0.1,1,0.1,1.5,0.1c0.3,0,0.6,0,0.9,0
		s0.5,0,0.7-0.1c-0.1,0.7-0.1,1.4-0.1,2s0,1.4,0,2.2v0.8c0,0.8,0,1.5,0,2.2c0,0.7,0.1,1.3,0.1,2c-0.2,0-0.5,0-0.7,0h-1.5
		c-0.2,0-0.5,0-0.8,0L34.2,16.6L34.2,16.6L34.2,16.6z"/>
	<path style="fill:#FFFFFF;" d="M42.2,10.2c0.4-0.5,0.8-0.9,1.3-1.2c0.5-0.3,1.1-0.5,1.8-0.4c0.9-0.1,1.7,0.2,2.4,0.8
		c0.6,0.7,0.9,1.7,0.8,2.7c0,0.6,0,1.2,0,1.7c0,0.5,0,1,0,1.5c0,0.4,0,0.8,0,1.3s0,0.9,0.1,1.4c-0.2,0-0.5,0-0.7,0h-1.7
		c-0.2,0-0.5,0-0.7,0c0.1-0.8,0.2-1.6,0.2-2.3c0-0.9,0-1.9,0-3.1c0-0.6-0.1-1.2-0.4-1.8c-0.3-0.4-0.8-0.6-1.2-0.6
		c-0.6,0-1.1,0.3-1.4,0.7c-0.3,0.6-0.5,1.3-0.4,2.1v0.8c0,0.8,0,1.5,0,2.2c0,0.7,0.1,1.3,0.1,2c-0.2,0-0.4,0-0.7,0H40
		c-0.2,0-0.5,0-0.7,0c0.1-0.6,0.1-1.3,0.1-2s0-1.4,0-2.2V13c0-0.8,0-1.5,0-2.2s-0.1-1.4-0.1-2c0.2,0,0.5,0,0.7,0.1s0.5,0,0.7,0
		s0.5,0,0.7,0s0.5,0,0.8-0.1L42.2,10.2L42.2,10.2L42.2,10.2z"/>
	<path style="fill:#FFFFFF;" d="M59.9,14.9c0,1,0.1,2.1,0.1,3.1c-0.2,0-0.5,0-0.7,0h-1.7c-0.2,0-0.4,0-0.6,0c0-0.1,0-0.2,0-0.2
		c0-0.1,0-0.3,0.1-0.5s0-0.3,0.1-0.5s0-0.2,0-0.3l0,0c-0.2,0.5-0.6,1-1.1,1.3c-0.6,0.3-1.2,0.5-1.9,0.5c-0.6,0-1.2-0.1-1.8-0.4
		c-0.5-0.2-0.9-0.6-1.2-1c-0.3-0.5-0.6-1-0.7-1.6c-0.2-0.6-0.2-1.3-0.2-1.9c0-0.6,0.1-1.3,0.3-1.9c0.2-0.5,0.5-1.1,0.8-1.5
		c0.3-0.4,0.8-0.8,1.3-1c0.5-0.2,1-0.4,1.6-0.4c0.6,0,1.1,0.1,1.7,0.4c0.4,0.2,0.8,0.6,1.1,1h0c0-1.1,0-2.2,0-3.2S57,4.7,56.9,3.6
		c0.2,0,0.4,0,0.7,0.1s0.6,0,0.9,0s0.6,0,0.9,0s0.5,0,0.7-0.1c-0.1,1.1-0.1,2.1-0.1,3.2s0,2.2,0,3.4v1.2
		C59.9,12.7,59.9,13.8,59.9,14.9z M53.5,15.3c0.1,0.4,0.2,0.7,0.4,1.1c0.1,0.2,0.3,0.4,0.6,0.6c0.2,0.1,0.4,0.2,0.7,0.2
		c0.6,0,1.1-0.4,1.4-0.9c0.4-0.9,0.6-1.9,0.5-2.9c0.1-0.9-0.1-1.8-0.5-2.6c-0.3-0.5-0.8-0.8-1.3-0.8c-0.2,0-0.5,0.1-0.7,0.2
		c-0.3,0.1-0.5,0.3-0.6,0.6c-0.2,0.4-0.4,0.7-0.4,1.2c-0.1,0.6-0.2,1.2-0.2,1.8C53.4,14.2,53.4,14.7,53.5,15.3z"/>
	<path style="fill:#FFFFFF;" d="M62.6,6.8c0-1-0.1-2.1-0.1-3.2c0.2,0,0.4,0,0.7,0.1s0.6,0,0.9,0c0.3,0,0.6,0,0.9,0s0.5,0,0.7-0.1
		c-0.1,1.1-0.1,2.1-0.1,3.2s0,2.2,0,3.4v1.2c0,1.2,0,2.4,0,3.4s0.1,2.1,0.1,3.1c-0.2,0-0.5,0-0.7,0h-1.7c-0.2,0-0.5,0-0.7,0
		c0.1-1,0.1-2.1,0.1-3.1c0-1,0-2.2,0-3.4v-1.2C62.6,9,62.6,7.8,62.6,6.8z"/>
	<path style="fill:#FFFFFF;" d="M69.9,8.9c0.6-0.2,1.3-0.3,2-0.3c0.5,0,1,0.1,1.5,0.2c0.4,0.1,0.8,0.3,1.2,0.5
		c0.3,0.2,0.6,0.6,0.8,1c0.2,0.5,0.3,0.9,0.3,1.4c0,0.8,0,1.6,0,2.3s0,1.4,0,2.1c0,0.2,0,0.5,0.1,0.7c0,0.1,0.1,0.3,0.2,0.4
		c0.1,0.1,0.2,0.2,0.4,0.2c0.2,0,0.4,0,0.5,0v0.5c-0.4,0.2-0.7,0.3-1,0.3c-0.3,0.1-0.6,0.1-0.9,0.1c-0.4,0-0.9-0.1-1.2-0.3
		c-0.3-0.2-0.6-0.6-0.7-1c-0.3,0.4-0.7,0.7-1.1,1c-0.5,0.3-1,0.4-1.6,0.4c-0.5,0-0.9-0.1-1.3-0.2c-0.3-0.1-0.7-0.3-0.9-0.5
		c-0.2-0.2-0.4-0.5-0.5-0.8c-0.1-0.3-0.2-0.6-0.2-0.9c0-0.4,0.1-0.7,0.2-1.1c0.1-0.3,0.4-0.6,0.6-0.8c0.3-0.2,0.6-0.4,1-0.5
		c0.4-0.2,0.8-0.3,1.3-0.4c0.6-0.1,1-0.2,1.4-0.3c0.3-0.1,0.5-0.2,0.8-0.3c0.1-0.1,0.2-0.2,0.3-0.3c0-0.1,0.1-0.3,0.1-0.4
		c0-0.4-0.2-0.9-0.5-1.2C72,10.1,71.5,10,70.9,10c-0.2,0-0.5,0-0.7,0.1c-0.2,0.1-0.5,0.1-0.7,0.2c-0.2,0.1-0.4,0.2-0.6,0.3
		c-0.2,0.1-0.3,0.2-0.4,0.4h-0.1L68,9.9C68.6,9.5,69.2,9.1,69.9,8.9z M72.9,13.8c0-0.3,0-0.5,0-0.8c-0.3,0.2-0.6,0.3-0.9,0.4
		c-0.3,0.1-0.6,0.2-0.9,0.4c-0.3,0.1-0.5,0.3-0.7,0.6c-0.2,0.3-0.3,0.7-0.3,1.1c0,0.4,0.1,0.8,0.3,1.1c0.2,0.2,0.5,0.4,0.9,0.4
		c0.4,0,0.8-0.2,1.1-0.5c0.3-0.4,0.5-0.9,0.4-1.4C72.9,14.5,72.9,14.1,72.9,13.8z"/>
	<path style="fill:#FFFFFF;" d="M81.2,10.2C81.5,9.7,82,9.3,82.5,9c0.5-0.3,1.1-0.5,1.8-0.4c0.9-0.1,1.7,0.2,2.4,0.8
		c0.6,0.7,0.9,1.7,0.8,2.7c0,0.6,0,1.2,0,1.7s0,1,0,1.5c0,0.4,0,0.8,0,1.3s0,0.9,0.1,1.4c-0.2,0-0.5,0-0.7,0h-1.7
		c-0.2,0-0.5,0-0.7,0c0.1-0.8,0.2-1.6,0.2-2.3c0-0.9,0-1.9,0-3.1c0-0.6-0.1-1.2-0.4-1.8c-0.3-0.4-0.8-0.6-1.2-0.6
		c-0.6,0-1.1,0.3-1.4,0.7c-0.3,0.6-0.5,1.3-0.4,2.1v0.8c0,0.8,0,1.5,0,2.2c0,0.7,0.1,1.3,0.1,2c-0.2,0-0.4,0-0.7,0h-1.7
		c-0.2,0-0.5,0-0.7,0c0.1-0.6,0.1-1.3,0.1-2c0-0.7,0-1.4,0-2.2V13c0-0.8,0-1.5,0-2.2s-0.1-1.4-0.1-2c0.2,0,0.5,0,0.7,0.1
		s0.5,0,0.7,0s0.5,0,0.7,0s0.5,0,0.8-0.1L81.2,10.2L81.2,10.2L81.2,10.2z"/>
	<path style="fill:#FFFFFF;" d="M98.8,14.9c0,1,0.1,2.1,0.1,3.1c-0.2,0-0.5,0-0.7,0h-1.7c-0.2,0-0.4,0-0.6,0c0-0.1,0-0.2,0-0.2
		c0-0.1,0-0.3,0.1-0.5s0-0.3,0.1-0.5s0-0.2,0-0.3l0,0c-0.2,0.5-0.6,1-1.1,1.3c-0.6,0.3-1.2,0.5-1.9,0.5c-0.6,0-1.2-0.1-1.8-0.4
		c-0.5-0.2-0.9-0.6-1.2-1c-0.3-0.5-0.6-1-0.7-1.6c-0.2-0.6-0.2-1.3-0.2-1.9c0-0.6,0.1-1.3,0.3-1.9c0.2-0.5,0.5-1.1,0.8-1.5
		c0.3-0.4,0.8-0.8,1.3-1c0.5-0.2,1-0.4,1.6-0.4c0.6,0,1.1,0.1,1.7,0.4c0.4,0.2,0.8,0.6,1.1,1h0c0-1.1,0-2.2,0-3.2s-0.1-2.1-0.1-3.1
		c0.2,0,0.4,0,0.7,0.1s0.6,0,0.9,0s0.6,0,0.9,0s0.5,0,0.7-0.1c-0.1,1.1-0.1,2.1-0.1,3.2s0,2.2,0,3.4v1.2
		C98.8,12.7,98.8,13.8,98.8,14.9z M92.5,15.3c0.1,0.4,0.2,0.7,0.4,1.1c0.1,0.2,0.3,0.4,0.6,0.6c0.2,0.1,0.4,0.2,0.7,0.2
		c0.6,0,1.1-0.4,1.4-0.9c0.4-0.9,0.6-1.9,0.5-2.9c0.1-0.9-0.1-1.8-0.5-2.6c-0.3-0.5-0.8-0.8-1.3-0.8c-0.2,0-0.5,0.1-0.7,0.2
		c-0.3,0.1-0.5,0.3-0.6,0.6c-0.2,0.4-0.4,0.7-0.4,1.2c-0.1,0.6-0.2,1.2-0.2,1.8C92.3,14.2,92.4,14.7,92.5,15.3z"/>
	<path style="fill:#FFFFFF;" d="M103.6,8.4c-1.1,0-2-0.9-2-2s0.9-2,2-2c1.1,0,2,0.9,2,2c0,0,0,0,0,0C105.6,7.5,104.7,8.4,103.6,8.4
		L103.6,8.4z M103.6,4.7c-0.9,0-1.7,0.7-1.7,1.7c0,0.9,0.7,1.7,1.7,1.7c0.9,0,1.7-0.7,1.7-1.7c0,0,0,0,0,0
		C105.2,5.5,104.5,4.7,103.6,4.7L103.6,4.7z"/>
	<path style="fill:#FFFFFF;" d="M102.6,5.3h1c0.1,0,0.3,0,0.4,0.1c0.2,0.1,0.3,0.3,0.3,0.5c0,0.1,0,0.2-0.1,0.3
		c-0.1,0.1-0.1,0.2-0.2,0.2c0.1,0,0.1,0.1,0.2,0.1c0.1,0.1,0.1,0.2,0.1,0.3l0,0.3c0,0.1,0,0.1,0,0.2c0,0.1,0,0.1,0.1,0.1v0.1h-0.4
		c0,0,0,0,0-0.1c0-0.1,0-0.1,0-0.2l0-0.4c0-0.1-0.1-0.2-0.2-0.3c-0.1,0-0.2,0-0.3,0H103v0.9h-0.3C102.6,7.5,102.6,5.3,102.6,5.3z
		 M103.7,6.3c0.1,0,0.2,0,0.3-0.1c0.1-0.1,0.1-0.2,0.1-0.3c0-0.1-0.1-0.3-0.2-0.3c-0.1,0-0.2,0-0.2,0H103v0.7H103.7L103.7,6.3z"/>
	<path style="fill:#F7B800;" d="M114.7,3.2c-1.2,0.2-2,1.2-2,2.4C113.9,5.4,114.8,4.4,114.7,3.2z"/>
	<path style="fill:#F7B800;" d="M115.1,5.3c1.2,0.2,2.3-0.6,2.5-1.8C116.4,3.3,115.3,4.1,115.1,5.3"/>
	<path style="fill:#F7B800;" d="M121.3,6.7c0.7,1,2,1.3,3.1,0.6C123.6,6.4,122.3,6.1,121.3,6.7"/>
	<path style="fill:#F7B800;" d="M122.5,8.6c0.1,1.2,1,2.2,2.3,2.1C124.6,9.6,123.7,8.6,122.5,8.6"/>
	<path style="fill:#F7B800;" d="M122.9,11.2c-0.9,0.9-0.9,2.2,0,3.1C123.7,13.4,123.7,12.1,122.9,11.2"/>
	<path style="fill:#F7B800;" d="M121.2,13.9c-1.2,0.3-1.9,1.5-1.6,2.7C120.7,16.3,121.4,15.1,121.2,13.9"/>
	<path style="fill:#F7B800;" d="M118.1,16.1c-1.2,0-2.2,0.9-2.3,2.1C117,18.2,118,17.3,118.1,16.1"/>
	<path style="fill:#F7B800;" d="M121,3.4c0.2,1.2,1.2,2.1,2.4,1.9C123.2,4.2,122.1,3.3,121,3.4"/>
	<path style="fill:#F7B800;" d="M124.5,3.2c-0.7,1-0.5,2.3,0.4,3.1C125.5,5.3,125.4,4,124.5,3.2"/>
	<path style="fill:#F7B800;" d="M126.7,5.4c-1.1,0.5-1.6,1.8-1.2,2.9C126.6,7.8,127.1,6.6,126.7,5.4"/>
	<path style="fill:#F7B800;" d="M126.7,8.4c-1.2,0.3-1.9,1.5-1.6,2.7C126.2,10.7,126.9,9.6,126.7,8.4"/>
	<path style="fill:#F7B800;" d="M126.4,11.5c-1.2,0-2.2,1-2.2,2.2C125.3,13.6,126.3,12.7,126.4,11.5"/>
	<path style="fill:#F7B800;" d="M124.8,14.4c-1.2-0.2-2.3,0.5-2.6,1.7C123.4,16.3,124.5,15.5,124.8,14.4"/>
	<path style="fill:#F7B800;" d="M122.6,17.2c-1.1-0.6-2.4-0.2-3,0.8C120.7,18.5,122,18.1,122.6,17.2"/>
	<path style="fill:#F7B800;" d="M119.6,19c-0.9-0.8-2.3-0.8-3.1,0.1C117.4,19.8,118.7,19.8,119.6,19"/>
	<path style="fill:#F7B800;" d="M112,5.6c-1.2,0.3-1.9,1.4-1.8,2.6C111.5,7.9,112.2,6.8,112,5.6z"/>
	<path style="fill:#F7B800;" d="M112.3,7.6c1.1,0.4,2.4-0.2,2.8-1.3C114,6,112.8,6.6,112.3,7.6"/>
	<path style="fill:#F7B800;" d="M109.2,8c-0.9,0.7-1.2,2.1-0.5,3.1C109.6,10.3,109.8,9,109.2,8z"/>
	<path style="fill:#F7B800;" d="M110,10.7c1.2,0.1,2.3-0.7,2.4-1.9C111.2,8.7,110.2,9.6,110,10.7"/>
	<path style="fill:#F7B800;" d="M107.4,11.1c-0.4,1.1,0.1,2.4,1.1,2.9C109,12.9,108.5,11.6,107.4,11.1z"/>
	<path style="fill:#F7B800;" d="M109.6,14c1.2-0.3,1.9-1.5,1.6-2.7C110,11.7,109.4,12.9,109.6,14"/>
	<path style="fill:#F7B800;" d="M106.9,14.2c0.1,1.2,1,2.1,2.2,2.2C109,15.1,108.1,14.2,106.9,14.2z"/>
	<path style="fill:#F7B800;" d="M110.4,16.8c1.1-0.5,1.5-1.8,1-2.9C110.4,14.5,109.9,15.7,110.4,16.8"/>
	<path style="fill:#F7B800;" d="M107.5,17.2c0.6,1,1.9,1.4,3,0.9C109.9,17,108.5,16.6,107.5,17.2z"/>
	<path style="fill:#F7B800;" d="M109.5,19.3c1,0.7,2.3,0.5,3.1-0.4C111.6,18.2,110.2,18.4,109.5,19.3z"/>
	<path style="fill:#F7B800;" d="M113.6,18.5c0.5-1.1,0.1-2.4-1-3C112.1,16.6,112.5,17.9,113.6,18.5"/>
</g>
</svg>
