<?xml version="1.0" encoding="utf-8"?>
<svg version="1.1" id="Layer_1" xmlns="http://www.w3.org/2000/svg" xmlns:xlink="http://www.w3.org/1999/xlink" x="0px" y="0px"
	width="100px" height="100px" viewBox="0 0 66.7 66.7" style="enable-background:new 0 0 66.7 66.7;" xml:space="preserve">
<g>
	<path style="fill:#1F1A18;" d="M66.7,33.3c0,18.4-14.9,33.3-33.3,33.3l0,0C14.9,66.7,0,51.7,0,33.3l0,0C0,14.9,14.9,0,33.3,0l0,0
		C51.7,0,66.7,14.9,66.7,33.3L66.7,33.3z"/>
	<path style="fill:#F5F5F5;" d="M49.9,35.3v-9.5h1.5V27H59v1.4h-7.6v7.1c0,1,0.1,2,0.7,2.8c0.5,0.7,1.5,1.1,2.4,1.2
		c1.3,0.1,2.8-0.1,3.9-0.9c0.3,0.3,0.5,0.7,0.9,1.1c-1.5,1.1-3.3,1.4-5,1.2c-1.1-0.1-2.2-0.5-3.1-1.3c-0.5-0.5-1-1.2-1.1-2
		C50,36.8,49.9,36,49.9,35.3L49.9,35.3C49.9,35.3,49.9,35.3,49.9,35.3z M12.1,26.9c0.9-0.2,1.7-0.2,2.5-0.1c1.1,0.1,2.4,0.5,3.3,1.3
		c0.7,0.6,1.1,1.5,1.2,2.3c0.1,0.6,0.2,1.3,0.2,1.9v8.1h-1.5V33c0-1,0-2.1-0.4-3s-1.3-1.5-2.2-1.7c-1.3-0.3-2.7-0.2-3.9,0.3
		c-1,0.5-1.9,1.2-2.3,2.2c-0.3,0.9-0.3,1.8-0.3,2.7v6.9H7.2v-13h1.4V29C9.5,27.9,10.7,27.2,12.1,26.9L12.1,26.9z M26.7,26.9
		c1.2-0.2,2.5-0.1,3.6,0.3c0.9,0.3,1.7,0.8,2.5,1.5c0.8,0.7,1.3,1.7,1.7,2.8c0.3,1,0.4,2,0.3,2.9H22.8c0.1,1.2,0.5,2.3,1.1,3.2
		c0.5,0.7,1.3,1.3,2.3,1.6c1,0.3,2.1,0.3,3.2,0.1c1.1-0.2,2-0.7,2.7-1.5c0.4-0.4,0.6-0.8,0.9-1.4h1.5c-0.4,1-0.9,1.9-1.7,2.7
		c-0.9,0.8-2,1.3-3.2,1.6c-1.1,0.2-2.2,0.2-3.3-0.1c-1.1-0.3-2.1-0.8-2.9-1.7c-0.8-0.7-1.3-1.7-1.7-2.8c-0.3-1.1-0.4-2.2-0.3-3.3
		c0.1-1.5,0.7-2.9,1.7-4C23.9,27.8,25.3,27.1,26.7,26.9C26.7,26.9,26.7,26.9,26.7,26.9z M35.3,27h1.9l4.5,5.5c0,0,0.1,0.1,0.1,0
		l4.5-5.5h1.8l-5.4,6.5c0,0.1-0.1,0.1-0.1,0.2l5.7,6.8h-1.9l-4.9-5.7l-4.9,5.7h-1.8l5.8-6.8L35.3,27L35.3,27L35.3,27
		C35.3,27,35.3,27,35.3,27z"/>
	<path style="fill:#1F1A18;" d="M26.8,28.3c1.2-0.2,2.5-0.1,3.7,0.5c0.9,0.5,1.7,1.2,2.1,2.1c0.4,0.7,0.5,1.5,0.6,2.3H22.8
		c0.1-1.3,0.5-2.5,1.4-3.4C24.9,28.9,25.8,28.4,26.8,28.3L26.8,28.3z"/>
</g>
</svg>
