<svg xmlns="http://www.w3.org/2000/svg" viewBox="0 0 289.6 74.4"><path d="M17.9 15.5c-.6-.8-1-1.6-1.7-3.2-.9-1.9-1.3-1.3-1 1.6.6 6.9-.2 10.4-4.4 13.1 2.1-4.8.8-10.7 1.3-17.7.2-2.7 1.1-5 2.7-6.2l10.6 12.8c-2.1-1.3-5.9-1.1-7.5-.4zm21.7.4L50.2 3.1c1.5 1.2 2.6 3.6 2.7 6.2.4 6.9-.8 12.9 1.3 17.7-4.2-2.7-5-6.1-4.4-13.1.2-3-.1-3.6-1-1.6-.7 1.5-1.1 2.2-1.7 3.2-1.7-.7-5.5-.9-7.5.4zm16-6.2c.1 2.2.1 4.4 0 6.4-.2 8.1 1.7 14.5 3.4 15-1 .3-1.9.3-2.7.2 1.1.6 2.4.7 4 .7 0 2.2-.8 4.5-1.6 5.7.4 0 1.4-.4 1.8-.7-1.2 5.9-4 8-11.3 9.1-1.5.2-2.8.8-3.8 1.8-1.1 1.1-1.9 2.8-2.5 5-.9 3.8-1.5 6.1-2.8 7.9-1.6 2.4-5.3 3.8-7.8 3.8-2.3 0-6-1.3-7.8-3.8-1.2-1.7-1.8-4.2-2.8-7.9-.5-2.1-1.3-3.9-2.5-5-1-1-2.2-1.5-3.8-1.8-7.2-1-9.9-3.1-11.1-9 .4.3 1.3.7 1.8.7-.8-1.2-1.6-3.5-1.6-5.7 1.7 0 2.9-.1 4-.7-.8.1-1.6.1-2.7-.2 1.7-.5 3.6-6.9 3.5-15 0-2-.1-4.2 0-6.4C3.6 15.5 0 23.5 0 32.4c0 13.5 13.3 31.8 20 33.1-2.1-2.6-1.5-3.7 1.8-1.8 5 3 8.5 8.3 7.9 10.6 1.3.5 4.8-.1 8.7-5.7 3.5-5 4.4-2.1 3.2.3 2.6-1.2 5.4-3.6 7.2-6 1-1.5 1.8-1.6 1.2.4 7.1-5 14.9-19.3 14.9-31 0-8.8-3.6-16.8-9.3-22.6zm1.7 24.8c-3.2-.3-5.8-3.6-9-7.1-4.2-4.7-9-10.1-15.9-10.1s-11.7 5.4-15.9 10.1c-3.1 3.5-5.8 6.7-9 7.1.6 2.5 2.8 5 6.6 6.5-1.5.5-2.9.7-4.8.3.9 1 3.1 1.7 6.7 2.2 4.3.6 7.2 3.6 8.4 8.8 1.6 6.6 2 7.8 5.4 9.4-1.5-1.4-2.1-2.9-2.1-4.5 0-.8.9-1.3 4.7-1.3s4.7.5 4.7 1.3c0 1.6-.7 3.1-2.1 4.5 3.4-1.6 3.9-2.8 5.4-9.4 1.2-5.2 4.1-8.2 8.4-8.8 3.7-.5 5.8-1.2 6.7-2.2-1.9.3-3.3.2-4.8-.3 4-1.5 6.1-4 6.6-6.5zM24 34.4c-1.9-.3-3.1-2.2-2.5-4.6l-3.2-2.1c.7-.3 6.2 1.9 7.3 3.1 1 1.1 1.4 2.5 3 4.8-.7-.4-2.2-.8-4.6-1.2zm19.2-4.7c.6 2.5-.5 4.3-2.4 4.6-2.2.4-3.9.8-4.6 1 1.5-2.3 1.9-3.7 3-4.8 1-1.1 6.5-3.4 7.3-3.1l-3.3 2.3zm-15-14.3c1.3-.4 2.8-.6 4.3-.6s3 .2 4.3.6l10-12.1A32.66 32.66 0 0 0 32.5 0c-5.1 0-10 1.2-14.3 3.4l10 12zm189.1-5.9v35.9c0 7.5 4.1 11.7 11.3 11.7s11.3-4.3 11.3-11.7V9.5h-7v36.4c0 3.2-1.4 4.8-4.2 4.8s-4.2-1.6-4.2-4.8V9.5h-7.2zm50.5 47.1h7V30.2h8.9v-6.5h-8.9V16h12.4l2.5-6.5h-19c-1.5 0-2.9 1.3-2.9 2.9v44.2zM245.7 9.5v44.1c0 1.5 1.3 2.9 2.9 2.9h15.5V50h-11.3V9.5h-7.1zm-48.1 21.8l.2 1.4c.7 6.4 1.9 11.8 5.3 22.9.2.6.7 1 1.3 1h2.7c1.5 0 2.8-1.2 2.9-2.8l2.1-44.3h-6.9c0 3.9-.1 7.6-.2 11.1l-.2 13.5c0 1.2 0 2.6.1 3.9.1 1.8.1 3.8.1 5.6h-.3a99.57 99.57 0 0 0-2.5-11.5c-.6-2.7-1.3-5.3-1.9-8.4h-4.9c-.6 3.1-1.3 5.8-1.9 8.4-.9 3.7-1.8 7.2-2.5 11.5h-.3c0-1.8 0-3.8.1-5.6 0-1.4.1-2.7.1-3.9 0-4.7-.1-9-.2-13.5l-.2-11h-6.9l2.1 44.3c.1 1.5 1.3 2.8 2.9 2.8h2.7c.6 0 1.1-.4 1.3-1 3.4-11.1 4.6-16.4 5.3-22.9l-.3-1.5zm-34.4-1.1h3.5c3.7 0 5 1.6 5 5.9v17.6c0 1.5 1.3 2.9 2.9 2.9h4.3V35.9c0-4.6-2-8.1-5.4-9.3l-.4-.1.4-.2c3.4-1.4 4.6-3.5 4.6-7.7 0-6.5-3.1-9.1-10.8-9.1h-11v47h7.1V30.2h-.2zM130.8 9.5v44.1c0 1.5 1.3 2.9 2.9 2.9h17.2V50H138V30.3h8.9v-6.5H138v-7.7h12.9V9.6h-20.1zm-25 0v44.1c0 1.5 1.3 2.9 2.9 2.9h17.2V50H113V30.3h8.9v-6.5H113v-7.7h12.9V9.6h-20.1zm-28 47.1h11.4c7.5 0 11.1-3.8 11.1-11.5V36c0-4.6-2-8.1-5.4-9.3l-.4-.1.4-.2c3.4-1.4 4.6-3.5 4.6-7.7 0-6.5-3.1-9.1-10.8-9.1H71.9l2.4 6.5h3.5v40.5zm11.5-6.5h-4.4V30.3h3.5c3.7 0 5 1.6 5 5.9v9.1c-.1 3.2-1.4 4.8-4.1 4.8zm77-26.4h-3.1V16h3.7c2.7 0 3.9.5 3.9 3.9.1 2.5-1.5 3.8-4.5 3.8zm-78.3 0h-3.1V16h3.7c2.7 0 3.9.5 3.9 3.9 0 2.5-1.6 3.8-4.5 3.8z"/></svg>