<?xml version="1.0" encoding="utf-8"?>
<svg version="1.1" id="Layer_1" xmlns="http://www.w3.org/2000/svg" xmlns:xlink="http://www.w3.org/1999/xlink" x="0px" y="0px"
	 viewBox="0 0 1920.1 478.3" style="enable-background:new 0 0 1920.1 478.3;" xml:space="preserve">
<g>
	<g>
		<path style="fill:#EA5B0C;" d="M658.9,251.1l-21,65.9h-72.2L667.3,23.2h75.5L844.4,317h-72.2l-21-65.9H658.9z M705.1,99.3
			l-27.7,93.2h55.4L705.1,99.3z"/>
		<path style="fill:#EA5B0C;" d="M969.7,185.6c0-20.6-12.1-31.5-29-31.5c-19.3,0-30.2,13.8-30.2,31.5V317h-70.1V96.7h68.4v22.7
			c12.6-18.1,33.4-28.7,55.4-28.2c68.8,0,75.5,58.8,75.5,103.7v122.1h-70.1V185.6z M1127.9,317h-70.1V96.7h70.1L1127.9,317z"/>
	</g>
	<g>
		<path style="fill:#57B031;" d="M1341.1,317H1271V185.6c0-19.7-9.7-31.5-26.4-31.5s-26.9,11.3-26.9,31.5V317h-70.1V96.7h68.4v22.7
			c7.5-13.5,25.2-28.1,54.7-28.1c26.1,0,45.3,10.9,57.1,29c13.5-17.2,34-29,62.6-29c50.8,0,74.7,32.7,74.7,79.3V317h-70.1V185.6
			c0-19.7-10.1-31.5-26.9-31.5c-16.8,0-26.8,12.6-26.8,31.5L1341.1,317z M1544.5,225.1c1.7,19.7,20.6,36.4,46.6,36.4
			c18.3,0.1,35.5-8.7,46.2-23.5l46.2,35.7c-6.3,13-36.4,48.6-93.6,48.6c-72.6,0.2-117.2-49.8-117.2-114.8s43.7-116.4,108.4-116.4
			c70.1,0,108.3,44.9,108.3,120c0,4.2,0,8.8-0.4,13.9L1544.5,225.1z M1546.6,180.6h71.4c-0.8-17.6-13.8-32.7-35.7-32.7
			C1559.2,147.9,1548.3,165.1,1546.6,180.6L1546.6,180.6z"/>
		<path style="fill:#57B031;" d="M1853.8,299.8c-6.3,7.1-27.3,22.7-59.6,22.7c-63.4,0-107.9-47.9-107.9-115.4
			c0-68.4,40.3-115.8,104.1-115.8c33.6,0,54.2,16.8,58.8,22.2V13.6h70.1V317h-65.5V299.8z M1803.9,152.9
			c-28.6,0-47.5,22.3-47.5,54.7s19.3,53.6,47.5,53.6c30.2,0,47.4-24.3,47.4-53.7C1851.3,172.6,1831.5,152.9,1803.9,152.9z"/>
	</g>
	<path style="fill:#888887;" d="M557.6,414.5c-0.5-23,17.7-42.2,40.7-42.7c0.7,0,1.5,0,2.2,0c8.8-0.2,17.3,2.5,24.5,7.5l-4.7,14.6
		c-5.8-4.1-12.7-6.4-19.8-6.6c-14.9,0-25.7,11.7-25.7,27.1s10.7,27.3,25.7,27.3c7.3-0.2,14.5-2.5,20.5-6.7l4.7,14.5
		c-7.3,5.2-16.2,8-25.2,7.7C574.8,457.2,557.6,438.8,557.6,414.5L557.6,414.5z M632.4,429.7v-35.5h16.2v37.4
		c-0.4,5.7,3.9,10.6,9.6,11c0.2,0,0.4,0,0.7,0c5.9,0.1,10.8-4.6,11-10.5c0-0.3,0-0.7,0-1v-37H686v61.5h-15.9v-7.2
		c-3.6,5.5-9.8,8.8-16.5,8.7C636.2,457.2,632.4,442.7,632.4,429.7L632.4,429.7z M697.2,381.2h16v12.9h11.5v13.2h-11.5v23.8
		c0,9.1,2.8,11,9.1,11h3v13.9c-2.3,0.4-4.6,0.6-7,0.6c-14.7,0-21.3-8.2-21.3-24.9v-24.3h-6.5v-13.2h6.6L697.2,381.2z M733.7,381.2
		h16v12.9h11.5v13.2h-11.5v23.8c0,9.1,2.8,11,9.1,11h3v13.9c-2.3,0.4-4.6,0.6-7,0.6c-14.7,0-21.3-8.2-21.3-24.9v-24.3h-6.5v-13.2
		h6.6L733.7,381.2z M776.8,370.1c5.1,0.1,9.2,4.3,9.2,9.4c-0.1,5.1-4.3,9.2-9.4,9.2c-5.1-0.1-9.2-4.2-9.2-9.3
		c-0.1-5,3.9-9.2,8.9-9.3C776.4,370,776.6,370,776.8,370.1z M768.8,394.2H785v61.5h-16.2L768.8,394.2z M848.9,420.1v35.6h-16.2
		v-37.4c0.4-5.7-3.8-10.6-9.5-11c-0.2,0-0.5,0-0.7,0c-5.9-0.1-10.9,4.6-11,10.5c0,0.3,0,0.7,0,1v36.9h-16.2v-61.5h15.9v7.2
		c3.6-5.5,9.8-8.8,16.5-8.7C845.1,392.6,848.9,407.1,848.9,420.1L848.9,420.1z M867.9,460.2c5.4,2.7,11.4,4.1,17.5,4.2
		c8.8,0,16.9-2.7,16.9-12.1v-2.9c-4.5,5.2-11.1,8.1-18,7.9c-17.8,0-29.4-13.3-29.4-32.2s12.4-32.3,30-32.3c7-0.2,13.6,2.8,18.2,8
		v-6.5h15.2V448c0,23-14.9,30.4-33,30.4c-7.9-0.1-15.6-2-22.6-5.6L867.9,460.2z M887,406.9c-9.1,0-15.6,7-15.6,17.9
		c0,10.8,6.6,18,15.8,18c9.2,0,15.8-7,15.8-18C902.8,414.4,896.5,406.9,887,406.9z M956.3,381.2h16v12.9h11.5v13.2h-11.5v23.8
		c0,9.1,2.8,11,9.1,11h3v13.9c-2.3,0.4-4.6,0.6-6.9,0.6c-14.7,0-21.3-8.2-21.3-24.9v-24.3h-6.5v-13.2h6.6L956.3,381.2z
		 M1045.1,420.1v35.6H1029v-37.4c0.4-5.7-3.8-10.6-9.5-11c-0.2,0-0.5,0-0.7,0c-6-0.2-11,4.5-11.2,10.5c0,0.4,0,0.7,0,1.1v36.9h-16.2
		v-85h16.2v30.7c3.5-5.5,9.7-8.8,16.2-8.7C1041.5,392.6,1045.1,407.1,1045.1,420.1L1045.1,420.1z M1081.7,392.6
		c19.1,0,29.9,12.7,29.9,32.8v3.5h-43.4c0.3,8.2,6.9,14.1,16,14.1c5.9,0.1,11.5-2.7,14.9-7.5l10.7,8.1c-5.6,8.8-15.5,14-25.9,13.5
		c-19.7,0-32.3-13.7-32.3-32.1S1064.1,392.6,1081.7,392.6L1081.7,392.6z M1095.1,418.4c0-6.9-5.7-12.5-12.6-12.5c-0.2,0-0.4,0-0.6,0
		c-7.1-0.2-13,5.4-13.3,12.5H1095.1z M1188.8,437.2l4.3,13.3c-5.5,4.3-12.2,6.6-19.2,6.6c-19.2,0-32.8-13.4-32.8-32.1
		c-0.4-17.5,13.5-32.1,31-32.5c0.6,0,1.1,0,1.7,0c7,0,13.8,2.3,19.4,6.6l-4.6,13.8c-3.9-3.7-9-5.8-14.3-5.9
		c-10.5,0-16.9,8.1-16.9,18c-0.5,9.4,6.7,17.4,16.1,17.8c0.5,0,0.9,0,1.4,0C1180.1,442.7,1185,440.7,1188.8,437.2L1188.8,437.2z
		 M1229.2,392.6c17.7-0.6,32.6,13.3,33.2,31c0,0.5,0,1,0,1.4c0,18.6-13.9,32.1-33.2,32.1c-19.3,0-33-13.5-33-32.1
		c-0.3-17.7,13.9-32.2,31.5-32.5C1228.2,392.6,1228.7,392.6,1229.2,392.6z M1229.2,442.8c9.2,0.2,16.9-7.2,17-16.5
		c0-0.4,0-0.9,0-1.3c0-10.5-7.2-18.2-17-18.2s-16.8,7.5-16.8,18.2c-0.6,9.2,6.4,17.1,15.6,17.7
		C1228.4,442.9,1228.8,442.9,1229.2,442.8L1229.2,442.8z M1265,445.8l9.5-8.5c3.4,4.3,8.6,6.8,14.1,6.7c4.6,0,7.5-2,7.5-5.5
		c0-9.4-29.1-5.8-29.1-27.7c0-11.4,9.7-18.2,22.3-18.2c8.5-0.4,16.5,3.8,21,10.9l-10.7,8c-2.6-3.6-6.7-5.8-11.1-5.9
		c-3.8,0-6.4,1.9-6.4,4.9c0,9.8,29.2,5.1,29.2,27.1c0,12.1-10.4,19.5-23.7,19.5C1278.8,457.6,1270.1,453.3,1265,445.8L1265,445.8z
		 M1319.2,381.2h16v12.9h11.5v13.2h-11.5v23.8c0,9.1,2.9,11,9.1,11h3v13.9c-2.3,0.4-4.6,0.6-7,0.6c-14.7,0-21.3-8.2-21.3-24.9v-24.3
		h-6.4v-13.2h6.6L1319.2,381.2z M1410.4,392.6c17.7-0.6,32.6,13.3,33.2,31c0,0.5,0,0.9,0,1.4c0,18.6-13.9,32.1-33.2,32.1
		c-19.3,0-33.1-13.5-33.1-32.1c-0.2-17.7,13.9-32.2,31.6-32.5C1409.4,392.6,1409.9,392.6,1410.4,392.6L1410.4,392.6z M1410.4,442.8
		c9.2,0.2,16.8-7.2,17-16.4c0-0.4,0-0.9,0-1.3c0-10.5-7.2-18.2-16.9-18.2s-16.8,7.5-16.8,18.2c-0.6,9.2,6.4,17.1,15.6,17.7
		C1409.6,442.9,1410,442.9,1410.4,442.8L1410.4,442.8z M1453.1,407.4h-6.6v-13.2h6.6v-2.2c0-16,10.7-21.3,22.7-21.3
		c2.3,0,4.1,0,5.3,0.2v13.6c-0.3,0-1.8-0.2-3-0.2c-5.6,0-8.6,2.6-8.6,8v1.9h10.7v13.2h-10.7v48.3h-16.2L1453.1,407.4z M1512.6,394.2
		h15.2v6.5c4.6-5.2,11.3-8.1,18.2-8c17.6,0,30.1,13.4,30.1,32.2s-11.5,32.3-29.1,32.3c-6.9,0.2-13.6-2.7-18.2-7.9v28.4h-16.2
		L1512.6,394.2z M1544.1,442.7c9.4,0,15.8-7.4,15.8-18.2c0-10.8-6.6-17.8-15.8-17.8c-9.8,0-15.8,8-15.8,17.8
		c0,11.8,6.8,18.3,15.8,18.3V442.7z M1609.8,392.6c19,0,29.8,12.7,29.8,32.8v3.5h-43.4c0.3,8.2,7,14.1,16,14.1
		c5.9,0.1,11.5-2.7,14.9-7.5l10.7,8.1c-5.6,8.8-15.4,14-25.9,13.5c-19.8,0-32.3-13.7-32.3-32.1S1592.3,392.6,1609.8,392.6
		L1609.8,392.6z M1623.2,418.4c0-6.9-5.7-12.5-12.6-12.5c-0.2,0-0.4,0-0.6,0c-7.1-0.1-13,5.4-13.3,12.5H1623.2z M1647.7,381.2h16
		v12.9h11.5v13.2h-11.5v23.8c0,9.1,2.8,11,9.1,11h3v13.9c-2.3,0.4-4.6,0.6-6.9,0.6c-14.7,0-21.3-8.2-21.3-24.9v-24.3h-6.5v-13.2h6.6
		L1647.7,381.2z M1753.5,437.2l4.3,13.3c-5.5,4.3-12.2,6.6-19.2,6.6c-19.2,0-32.8-13.4-32.8-32.1c0-17.9,14.5-32.5,32.5-32.5
		c7.1,0,14.1,2.3,19.7,6.7l-4.7,13.7c-3.9-3.7-9-5.8-14.4-5.9c-10.5,0-16.9,8.1-16.9,18c-0.5,9.4,6.7,17.4,16.1,17.8
		c0.5,0,0.9,0,1.4,0C1744.8,442.7,1749.7,440.7,1753.5,437.2L1753.5,437.2z M1784.7,416.3c4.7-0.1,9.3,1,13.3,3.4v-4
		c0-5.4-4-9.1-11.2-9.1c-5.7,0.1-11.3,1.6-16.3,4.3l-6.1-11.1c7.3-4.7,15.7-7.2,24.3-7.3c19.8,0,25.7,10.4,25.7,24.1v38.9h-14.4
		l-1.1-4c-3.9,3.9-9.4,5.9-14.9,5.5c-12.5,0-23-7.7-23-20.6C1760.8,424.5,1770.3,416.3,1784.7,416.3L1784.7,416.3z M1787.7,444.7
		c6.1,0,10.6-3.3,10.6-8.5c0-5.1-4.5-8.6-10.7-8.6s-10.6,3.5-10.6,8.6C1777,441.3,1781.6,444.6,1787.7,444.7L1787.7,444.7z
		 M1856.4,409.1c-12.1,0-16.6,7.5-16.6,19.8v26.8h-16.2v-61.5h15.9v9c3-6.6,9.7-10.7,16.9-10.5L1856.4,409.1z M1890.1,392.6
		c19.1,0,29.9,12.7,29.9,32.8c0.1,1.2,0.1,2.3,0,3.5h-43.5c0.4,8.2,7,14.1,16,14.1c5.9,0.1,11.5-2.7,14.9-7.5l10.7,8.1
		c-5.6,8.8-15.4,14-25.9,13.5c-19.8,0-32.4-13.7-32.4-32.1S1872.6,392.6,1890.1,392.6L1890.1,392.6z M1903.6,418.4
		c0-6.9-5.7-12.5-12.6-12.5c-0.2,0-0.4,0-0.5,0c-7.1-0.1-13,5.4-13.3,12.5H1903.6z"/>
	<path style="fill:#56AF31;" d="M332.2,95.1C261.4,95.1,258.9,0,204.1,0v218.9c29.3,22.8,52,64.6,69.6,91.1
		c13.3-6,27.6-9.5,42.1-10.4c4.8-0.4,10-28,15.4-28h1.9c8.1,0,15.5,27.9,22.2,28.8c67,8.4,69.4,51.4,69.4,51.4v69.8v0.8
		c0.4,9.8,8.7,17.4,18.5,17c9.2-0.4,16.6-7.8,17-17V0C411.3,0,402.9,95.1,332.2,95.1z"/>
	<path style="fill:#7DBC51;" d="M334,95.4L334,95.4c0,0-22.5,82.2,13.1,117.8c29.3,29.3,82.2,27.5,113.2,19.3V0
		C411.7,0,402.8,93.3,334,95.4L334,95.4z"/>
	<path style="fill:#56AF31;" d="M365.3,168.3c0-24,19.5-43.5,43.5-43.5c24,0,43.5,19.5,43.5,43.5c0,24-19.5,43.5-43.5,43.5
		C384.8,211.8,365.3,192.4,365.3,168.3C365.3,168.4,365.3,168.3,365.3,168.3z"/>
	<g>
		<path style="fill:#1D1D1B;" d="M383.3,162.8c0-5.5,4.5-10,10-10c5.5,0,10,4.5,10,10c0,5.5-4.5,10-10,10c0,0,0,0,0,0
			C387.8,172.8,383.3,168.3,383.3,162.8C383.3,162.8,383.3,162.8,383.3,162.8z"/>
		<circle style="fill:#1D1D1B;" cx="274.5" cy="162.8" r="10"/>
	</g>
	<path style="fill:#6FB744;" d="M349.7,211c81.1,11.3,77.2,78.1,77.2,78.1c1.9,46.7-27.7,37.4-27.7,37.4c-16.1-3.9-32-8.6-47.6-14.3
		c-21.9-8.2-23.8-19.7-23.8-19.7v-13.4v13.4c0,0-1.9,11.5-23.8,19.7c-15.6,5.6-31.5,10.4-47.6,14.3c0,0-29.6,9.3-27.7-37.4
		c0,0-3.8-65.6,74.5-77.6L349.7,211z"/>
	<path style="fill:#1D1D1B;" d="M327,235c0,0-7.2,9.1-17.1,9.1c-9.9,0-14.3-22.1-14-28.6s31.4-6.5,31.4-6.5h0.8c0,0,31,0,31.4,6.5
		s-4.1,28.6-14,28.6c-9.9,0-17.1-9.1-17.1-9.1H327z"/>
	<path style="fill:#EA5B0C;" d="M349.2,413.7C288.5,217.4,164.6,113.1,140.6,94.9c-3.8-2.7-7.8-5-12.1-6.8c0.4,2.2,0.6,4.5,0.6,6.8
		c0.6,23.2-17.7,42.6-40.9,43.2c-23.2,0.6-42.6-17.7-43.2-40.9c0-0.8,0-1.5,0-2.3c0-1.2,0-2.5,0.2-3.8
		c-11.2,13.8-10.9,48.1-10.9,48.1v294.3v0.2c0,3.6,2.9,6.5,6.5,6.5c3.6,0,6.5-2.9,6.5-6.5c0,0,0,0,0,0
		C50.6,355.3,102.3,293,165.7,293c58.5,0,107.1,53.4,116.7,123.5c2.4,22.9,15.7,23.7,19.5,23.7h37.6
		C347.6,440.3,354.8,430.1,349.2,413.7L349.2,413.7z"/>
	<path style="fill:#F3923E;" d="M87.1,136.9c-23.2,0-42.1-18.9-42.1-42.1l0.2-3.8c-11.2,13.8-10.9,48.1-10.9,48.1v56.7
		C121.5,226,87.1,136.9,87.1,136.9z"/>
	<g>
		<ellipse style="fill:#FFFFFF;" cx="66" cy="180.6" rx="11.3" ry="9.3"/>
		<path style="fill:#FFFFFF;" d="M95.9,180.6c0-5.1,5.1-9.3,11.3-9.3s11.2,4.2,11.2,9.3c0,5.1-5.1,9.3-11.3,9.3
			S95.9,185.8,95.9,180.6z"/>
	</g>
	<path style="fill:#1D1D1B;" d="M66,187.4c-3.7-0.8-6.1-4.4-5.4-8.1c0.5-2.7,2.7-4.8,5.4-5.4c3.7,0.8,6.1,4.4,5.4,8.1
		C70.8,184.7,68.7,186.8,66,187.4z M107.3,187.4c-3.7-0.8-6.1-4.4-5.4-8.1c0.5-2.7,2.7-4.8,5.4-5.4c3.7,0.8,6.1,4.4,5.4,8.1
		C112.1,184.7,110,186.8,107.3,187.4z"/>
	<path style="fill:#EE7402;" d="M63.8,206.1c-1.6,0-40.6-0.2-61.7,13.8c-1.3,0.8-1.6,2.5-0.8,3.8c0.6,0.8,1.5,1.3,2.6,1.2
		c0.5,0,0.9-0.2,1.3-0.5c19.7-13.1,58.2-12.9,58.6-12.9c1.5,0,2.8-1.2,2.8-2.8C66.5,207.3,65.3,206,63.8,206.1
		C63.8,206,63.8,206,63.8,206.1L63.8,206.1z M63,218.8c-1.3,0-31.4,1.2-53.1,19.9c-1.2,1-1.3,2.7-0.3,3.9c0,0,0,0,0,0
		c1,1.2,2.7,1.3,3.9,0.3c0,0,0,0,0.1,0c20.2-17.4,49.4-18.6,49.7-18.6c1.5-0.1,2.7-1.3,2.7-2.9C65.8,220,64.6,218.8,63,218.8
		L63,218.8z M122.7,218.1h-0.4c-1.5-0.1-2.9,1-3,2.5s1,2.9,2.5,3h0.5c8.6,0.5,30,3.3,43.8,20c0.5,0.6,1.2,0.9,1.9,1
		c0.7,0.1,1.4-0.2,2-0.6c1.3-0.9,1.5-2.7,0.6-3.9c0,0-0.1-0.1-0.1-0.1C155.3,221.7,132.1,218.6,122.7,218.1L122.7,218.1z
		 M180.2,222.8c-19.7-18.7-60.7-15.9-62.4-15.7c-1.5,0-2.8,1.2-2.8,2.7c0,1.5,1.2,2.8,2.7,2.8c0.2,0,0.4,0,0.7-0.1
		c0.4,0,40.3-2.9,58.1,14.2c0.4,0.4,1,0.7,1.7,0.8c1.5,0.2,2.9-0.9,3-2.4C181.2,224.2,180.9,223.4,180.2,222.8L180.2,222.8z"/>
	<path style="fill:#FFFFFF;" d="M181.1,217.7c-21.3-17.1-61.7-10.8-63.5-10.6c-1.5,0.2-2.6,1.5-2.5,3c0.2,1.5,1.5,2.6,3,2.5
		c0.1,0,0.1,0,0.2,0c0.4,0,39.9-6.1,59.1,9.4c0.5,0.4,1.1,0.6,1.7,0.6c1.5,0,2.8-1.2,2.8-2.8C182.1,219,181.7,218.2,181.1,217.7
		L181.1,217.7z M122.6,218h-0.4c-1.5,0-2.7,1.2-2.8,2.7c0,1.5,1.2,2.7,2.7,2.8c0,0,0,0,0,0h0.5c8.6-0.2,30.2,0.9,45.3,16.3
		c1.1,1.1,2.8,1.1,3.9,0c0,0,0,0,0,0c1.1-1.1,1.1-2.8,0-3.9C155.3,218.9,131.8,217.7,122.6,218z M97.2,216.4c-5.2,0-6.6-5.7-6.9-7
		v-7.1c0-0.2,0-0.4,0-0.5c1.6-0.4,2.7-1.7,2.9-3.3c0-2.1-2.5-3.9-5.5-3.9s-5.5,1.7-5.5,3.9c0.2,1.6,1.3,2.9,2.8,3.3
		c0,0.2,0,0.4,0,0.5v6.8c0,0.3-1.1,7.3-6.9,7.3c-1.5,0-2.7,1.2-2.7,2.7c0,0,0,0,0,0.1c0,1.5,1.2,2.7,2.7,2.8c0,0,0,0,0,0
		c3.9,0,7.6-2,9.6-5.3c2.1,3.3,5.6,5.3,9.5,5.3c1.5,0,2.8-1.2,2.8-2.8l0,0C99.9,217.6,98.7,216.4,97.2,216.4
		C97.2,216.4,97.2,216.4,97.2,216.4L97.2,216.4z M64.1,206.1c-1.6,0-40.4-3.6-62.6,8.6c-1.3,0.7-1.8,2.4-1.1,3.7
		c0.5,0.9,1.4,1.5,2.4,1.4c0.5,0,0.9-0.1,1.3-0.3c20.7-11.4,59.1-8,59.5-7.9c1.5,0.1,2.9-1,3-2.5C66.7,207.6,65.6,206.2,64.1,206.1
		L64.1,206.1z M63.3,218.9c-1.3,0-31.4-1.5-54.7,15.4c-1.2,0.9-1.5,2.6-0.6,3.9c0.5,0.7,1.4,1.2,2.3,1.2c0.6,0,1.1-0.2,1.6-0.5
		c21.6-15.7,50.7-14.4,51-14.4c1.5,0.1,2.8-1.1,2.9-2.6C65.9,220.3,64.7,219,63.3,218.9L63.3,218.9z"/>
	<path style="fill:#EA5B0C;" d="M1128.4,44.3c-0.1-1.8-0.3-3.5-0.6-5.2c-1.8-0.3-3.8-0.5-5.9-0.7c-2.1,0-4.1-0.2-5.9-0.2l-5.6,0.2
		l-4.9,0.6l0.2-6.6v-5.1V22c0-1.7-0.3-3.4-0.6-5.2c-1.9-0.3-3.8-0.6-5.8-0.7l-5.9-0.2l-5.6,0.2c-1.9,0.1-3.9,0.4-5.8,0.7
		c-0.7,3.5-1,7-1.1,10.5L1081,39l-4.7-0.6c-1.6-0.2-4.1-0.2-5.9-0.2l-5.7,0.2l-5.8,0.7c-0.6,3.4-0.9,6.9-0.9,10.4
		c0,3.5,0.3,7,0.9,10.4c2,0.3,3.9,0.5,5.9,0.6l5.7,0.2l5.8-0.2l5-0.5c-0.4,2.4-0.6,4.8-0.7,7.3c0,3.5,0.3,7,1,10.4
		c1.9,0.3,3.9,0.5,5.9,0.6l5.7,0.2l5.8-0.2c1.9-0.1,3.9-0.3,5.8-0.6c0.3-1.7,0.5-3.5,0.6-5.3c0.1-1.7,0-3.5,0-5.1v-5.3
		c0-0.6-0.2-1.4-0.3-2c1.7,0.3,3.4,0.4,5,0.5l5.7,0.2l5.8-0.2c1.9-0.1,3.9-0.3,5.8-0.6c0.3-1.8,0.5-3.5,0.6-5.3l0.2-5.1L1128.4,44.3
		L1128.4,44.3z"/>
</g>
</svg>
