<svg xmlns="http://www.w3.org/2000/svg" height="465.68" width="2263.773" fill="#1d1b19" xmlns:v="https://vecta.io/nano"><path d="M1000.475 234.805c33.039-6.087 64.553-20.372 84.378-43.685 10.691-12.571 17.983-27.767 20.283-45.713l.397-3.307-.004.001v-.001l-.577.048-13.361 1.109-.212 1.861-.04.349c-5.113 45.015-60.301 78.946-128.425 78.946-8.841 0-17.775-.633-26.607-1.912l-.431-.06-1.345-.209-1.644-.256-.077-.013c-53.647-8.839-102.568-41.824-102.569-102.83 0-22.839 6.857-41.747 18.243-56.936 18.759-25.023 49.819-39.944 82.834-45.672l4.559-.739.423-.057a186.04 186.04 0 0 1 26.615-1.915l1.856.019a283.3 283.3 0 0 1 10.1.229.27.27 0 0 1 .04.003c58.463 2.487 97.421 23.452 110.256 59.659l.344.992.341.992.004-.001v.001l13.849-1.141-.583-1.924-.385-1.283a84.61 84.61 0 0 0-8.144-18.504c-20.25-34.239-64.65-52.85-127.678-52.85-86.256 0-146.5 48.98-146.5 119.13 0 64.212 50.535 110.697 125.297 118.068l1.479.149.905.075c3.551.308 7.152.535 10.808.667l.457.012c2.495.084 5.009.131 7.551.131h.001.001a208.38 208.38 0 0 0 37.56-3.433m-.658 136.025h161.816v-12.324H999.816V287.96h169.24v-12.34H987.463h-.004v186.095h.004 183.246V449.36H999.816v-78.53m214.63-6.078V287.96h110.802c3.625 0 7.049.089 10.295.267l.333.015c10.773.611 19.413 2.233 26.187 4.985 13.507 5.497 19.467 15.525 19.467 31.16 0 22.364-13.227 35.033-41.267 38.998a126.43 126.43 0 0 1-5.227.611c-5.092.5-10.608.756-16.584.756zm175.47 43.644c0-7.46-1.333-13.961-4-19.494-1.413-2.944-3.187-5.625-5.36-8.001-2.787-2.807-6.147-5.091-10.133-6.94-3.333-1.541-7.093-2.784-11.413-3.731 8.947-2.8 16.44-6.872 22.08-12.046 7.32-6.864 11.413-15.883 12.493-27.415l.093-1.061c.013-.089.013-.184.013-.275a68.81 68.81 0 0 0 .187-5.047c0-31.891-19.533-47.417-61.305-48.673l-5.639-.093H1202.13h-.008v186.095h.008 12.316v-84.61h101.166c55.864 0 61.917 11.665 61.917 36.404 0 10.728.787 26.667 2.747 37.39.747 4.048 1.653 7.358 2.747 9.362l.787 1.455h13.627.013l-2.88-4.303c-3.213-4.821-4.653-31.566-4.653-49.017M958.95 286.398V275.62H581.483v12.34h.004 93.708v173.755h.004 12.335V287.96h251.351l-87.833 81.467-87.837 81.466v10.822h.004 199.13V449.36H783.247L958.95 286.398"/><path d="M181.006 381.594c-8.755-6.927-21.581-11.746-38.607-14.531l-73.074-12.542-3.006-.516c-40.739-6.901-45.975-21.299-45.975-33.056 0-14.195 7.598-24.121 23.425-30.089 12.311-4.641 29.599-6.888 52.16-6.888l6.204.067c62.409 1.379 73.057 23.772 75.1 45.691l.237 2.724h.003v.008l11.741-1.008.483-.04-.081-1.34-.079-1.34c-2.361-38.968-32.661-57.1-95.31-57.1h-.002c-28.602 0-50.157 4.096-64.561 12.241S8.003 304.21 8.003 320.399c0 11.281 3.557 20.377 11.028 27.6 6.683 6.46 16.498 11.424 29.742 15.096 5.192 1.439 10.91 2.681 17.169 3.739l71.013 11.955c32.183 5.268 45.921 15.295 45.921 33.589 0 7.653-2.545 17.895-13.62 26.222s-30.683 14.742-64.799 14.742c-31.598 0-54.499-4.214-69.559-13.148s-22.278-22.59-22.518-41.472l-.015-1.492-.011-1.494h-.004 0l-6.173.514-6.177.512.037 2.619c.159 6.969 1.113 13.38 2.87 19.237 4.479 14.932 14.199 26.244 29.242 34.038 16.812 8.71 40.276 13.024 70.598 13.024 76.431 0 92.487-29.3 92.487-53.871 0-12.656-4.705-22.686-14.228-30.216m1482.403-148.254v-13.832h-211.093v-98.396h199.893v-13.785h-199.893V18.76h208.999V4.936H1438.49v228.403h224.919"/><path d="M528.221 275.62h-13.376l-35.177 85.019-35.179 85.014-74.765-170.033h-.004-12.672-.004l-74.772 170.033-70.345-170.033h-.004-13.384-.004l76.54 184.382.364.856.36.857h.004 12.717.004l74.869-169.669 35.068 79.514 39.756 90.155h.004 12.725.004l77.27-186.095m1222.096 115.232H1634.37l57.747-101.217 50.613 88.029zm-52.093-115.232h-12.293l-99.4 173.741h-144.386V275.62h0-12.32-.013v186.095h.013 163.893 0l33.507-58.509h130.226l33.52 58.509h14.307.013L1698.222 275.62m223.987-103.194c0-3.667-.333-7.152-.987-10.46 0-.028 0-.057-.013-.085a32.87 32.87 0 0 0-.52-2.289l-.04-.176a33.67 33.67 0 0 0-.573-2c-.04-.131-.067-.267-.107-.399-.133-.412-.28-.815-.427-1.221l-.387-1.109c-.067-.184-.147-.363-.227-.545-.227-.577-.453-1.153-.707-1.717 0-.009-.013-.019-.013-.027-8-17.815-28.053-29.177-60.693-34.531l-93.973-16.143c-50.533-8.549-57.32-25.764-57.32-41.516 0-14.853 5.427-33.399 43.32-41.835l.467-.107c.227-.051.467-.097.707-.147 12.667-2.705 28.867-4.305 49.573-4.305 84.413 0 98.453 28.904 101.08 57.185l.133 1.391.12 1.273v-.001.001l6.867-.587 6.853-.585-.187-2.632c-.093-1.489-.213-2.953-.373-4.392-4.853-44.616-42.08-65.461-116.64-65.461-70.186 0-105.786 20.032-105.786 59.527 0 23.719 13.627 37.343 31.667 45.66 12.053 5.561 26.067 8.755 39.307 10.991l87.693 14.727c50.533 8.289 57.333 26.016 57.333 42.236 0 1.033-.04 2.052-.107 3.056-2.093 31.131-36.52 48.212-97.44 48.212-9.827 0-18.96-.328-27.453-.995-59.387-4.665-86.48-25.908-86.973-67.15l-.067-2.917v.001-.001l-4.333.367-9.52.805.067 2.525c.267 11.489 2.333 21.72 6.147 30.739 14.373 33.883 53.96 50.451 120.013 50.451l8.573-.104c86.44-2.127 104.946-36.619 104.946-65.708M511.935 16.78l72.068 125.273 3.937 6.844H436.619zM371.159 234.993h18.911l41.391-72.218h162.381l41.36 72.218h.004 18.212.004l-42.324-73.538L520.061 3.266h-16.28L371.159 234.993M2144.021 65.114c0 17.765-8.187 30.664-20.467 39.176-12.587 8.712-29.467 12.827-46.28 12.827-32.88 0-66-16.044-66-52.003 0-35.921 33.12-51.988 66-51.989 33.227.001 66.746 16.068 66.746 51.989zm-66.746 65.137h0c16.373 0 31.387-3.307 43.893-9.468 6.053-2.977 11.52-6.615 16.267-10.884l2.613-2.404 2.28-2.572c2.787-3.145 5.173-6.529 7.187-10.103 5.013-8.871 7.627-18.952 7.627-29.707 0-15.572-5.427-29.232-15-39.967-14.013-15.7-36.933-25.141-64.867-25.141-47.36 0-79.133 26.155-79.133 65.108 0 1.216.027 2.421.093 3.613 1.413 27.415 18.987 48.016 46.693 56.824 9.64 3.063 20.507 4.7 32.347 4.7h0m-10.537 319.111V287.96h99.424c10.652 0 19.985 1.083 28.165 3.008.139.033.278.06.417.092.042.011.083.025.125.036 50.455 12.18 56.593 56.704 56.593 77.56l-.028 2.365c-.444 19.642-6.597 55.826-43.969 71.166-10.916 4.475-24.457 7.175-41.303 7.175zm197.042-80.705c0-50.697-27.443-83.574-74.578-91.279l-.819-.15c-.986-.151-1.986-.269-2.972-.4l-2.222-.3c-.694-.078-1.403-.131-2.097-.199l-3.236-.304c-.611-.044-1.236-.065-1.847-.103-3.014-.186-6.097-.303-9.263-.303H2054.42v186.097h112.326c26.915 0 48.997-6.829 65.273-19.484 20.485-15.93 31.762-41.099 31.762-73.576"/><path d="M2251.111 121.111v-13.105H2140.53h-.014v125.333h.014 13.12v-58.887h91.854v-13.135h-.014-91.84V121.11h97.461M703.485 18.76v214.579h13.823V18.76h116.418.004V4.936h-.004-245.951-.004V18.76h115.714m1297.523 256.86h-.013v168.82l-173.813-168.82h-12.387 0v186.095h0 12.32.013V292.867l173.866 168.849h.013 12.347 0V275.62h0-12.347m-843.21-155.196h216.146V233.34h13.853V4.936h-13.853v101.686h-216.146V4.936h-13.847v228.403h13.847V120.424M109.728 233.339h.004l92.909-210.595 92.909 210.595h.004 14.792.004l47.407-114.202 47.41-114.201h-.004-14.949-.003l-34.945 84.448-52.42 126.668-30.819-70.081-61.63-140.17-.253-.577-.121-.288h-.004-14.739-.004l-46.425 105.56-46.427 105.556L15.09 4.936h-.008H.122.118l94.825 228.403h14.784m442.781 42.281h-.004v186.095h12.357V275.62h-12.353"/></svg>