<?xml version="1.0" encoding="utf-8"?>
<svg version="1.1" id="Layer_1" xmlns="http://www.w3.org/2000/svg" xmlns:xlink="http://www.w3.org/1999/xlink" x="0px" y="0px"
	 viewBox="0 0 250 80.44" style="enable-background:new 0 0 250 80.44;" xml:space="preserve">
<g>
	<path id="path867" style="fill:#00C81E;" d="M231.83,66.25l0.13-0.53c0.88-3.11,3.55-5.17,6.66-5.17c3.46,0,5.78,1.88,6.39,5.21
		l0.09,0.48H231.83z M239.01,56.58c-6.74,0-11.78,5.12-11.78,11.91s5.12,11.91,11.91,11.91c3.59,0,7.01-1.4,9.15-3.72l-2.98-3.15
		c-1.05,1.05-3.11,2.54-6.22,2.54c-3.81,0-6.7-2.41-7.27-6.04l-0.09-0.48H250v-1.01C249.65,61.13,245.45,56.58,239.01,56.58"/>
	<path id="path869" style="fill:#00C81E;" d="M113.73,66.25l0.13-0.53c0.88-3.11,3.55-5.17,6.66-5.17c3.46,0,5.78,1.88,6.39,5.21
		l0.09,0.48H113.73z M120.91,56.58c-6.74,0-11.78,5.12-11.78,11.91s5.12,11.91,11.91,11.91c3.59,0,7.01-1.4,9.15-3.72l-2.98-3.15
		c-1.05,1.05-3.11,2.54-6.22,2.54c-3.81,0-6.7-2.41-7.27-6.04l-0.09-0.48h18.26v-1.01C131.55,61.13,127.35,56.58,120.91,56.58"/>
	<path id="path871" style="fill:#00C81E;" d="M199.6,46.46c-1.8,0-3.2,1.45-3.2,3.2c0,1.8,1.45,3.24,3.2,3.24
		c1.8,0,3.24-1.45,3.24-3.24C202.84,47.91,201.39,46.46,199.6,46.46"/>
	<rect id="rect873" x="135.93" y="46.94" style="fill:#00C81E;" width="4.42" height="33.02"/>
	<rect id="rect875" x="197.41" y="56.93" style="fill:#00C81E;" width="4.42" height="23.03"/>
	<polygon id="polygon877" style="fill:#00C81E;" points="225.39,76.11 212.69,76.11 225.39,58.46 225.39,56.93 206.39,56.93 
		206.39,60.78 219.04,60.78 206.39,78.38 206.39,79.96 225.39,79.96 	"/>
	<path id="path879" style="fill:#00C81E;" d="M188.26,64.15l0.09,0.09v8.36l-0.09,0.09c-1.4,2.1-3.94,3.42-6.7,3.42
		c-4.25,0-7.31-3.24-7.31-7.71s3.07-7.71,7.31-7.71C184.32,60.74,186.9,62.05,188.26,64.15 M169.69,68.44
		c0,6.79,5.08,11.91,11.82,11.91c2.36,0,4.51-0.7,6.13-2.01l0.66-0.53v2.15h4.42V56.93h-4.42v2.23l-0.66-0.53
		c-1.66-1.36-3.81-2.06-6.13-2.06C174.77,56.58,169.69,61.66,169.69,68.44"/>
	<path id="path881" style="fill:#00C81E;" d="M156.64,56.58c-2.58,0-4.9,0.92-6.39,2.5l-0.7,0.79V46.94h-4.42v33.02h4.42V65.29
		v-0.04c0.96-2.89,3.15-4.47,6.09-4.47c3.81,0,5.87,2.98,5.87,5.74v13.44h4.42V66.38C165.92,60.43,162.29,56.58,156.64,56.58"/>
	<path id="path883" style="fill:#00C81E;" d="M89.12,75.62h-5.61V51.23h5.61c7.27,0,12.52,5.12,12.52,12.17
		C101.64,70.5,96.39,75.62,89.12,75.62 M89.12,46.94H78.78v33.02h10.33c9.9,0,17.34-7.09,17.34-16.51S99.01,46.94,89.12,46.94"/>
	<rect id="rect885" x="164.7" y="6.26" style="fill:#00C81E;" width="4.42" height="33.02"/>
	<path id="path887" style="fill:#00C81E;" d="M87.19,27.5l5.82-14.54L98.8,27.5H87.19z M91.18,6.26L77.6,39.28h5.04l3.02-7.53h14.71
		l3.02,7.53h5.08L94.9,6.26L91.18,6.26z"/>
	<path id="path889" style="fill:#00C81E;" d="M124.02,15.9c-2.58,0-4.9,0.92-6.39,2.5l-0.7,0.79V6.26h-4.42v33.02h4.42V24.61
		l0.04-0.04c0.96-2.89,3.15-4.47,6.09-4.47c3.81,0,5.87,2.98,5.87,5.74v13.44h4.42V25.7C133.26,19.75,129.62,15.9,124.02,15.9"/>
	<path id="path891" style="fill:#00C81E;" d="M148.98,35.47c-4.29,0-7.36-3.24-7.36-7.71s3.11-7.71,7.36-7.71
		c4.2,0,7.36,3.33,7.36,7.71C156.38,32.19,153.18,35.47,148.98,35.47 M148.98,15.9c-6.79,0-11.95,5.12-11.95,11.91
		s5.12,11.91,11.95,11.91c6.79,0,11.95-5.12,11.95-11.91C160.93,20.98,155.81,15.9,148.98,15.9"/>
	<path id="path893" style="fill:#00C81E;" d="M191.45,23.6v8.36l-0.09,0.09c-1.4,2.1-3.94,3.42-6.7,3.42
		c-4.25,0-7.31-3.24-7.31-7.71s3.07-7.71,7.31-7.71c2.71,0,5.3,1.31,6.7,3.42L191.45,23.6z M184.67,15.9
		c-6.74,0-11.82,5.12-11.82,11.91s5.08,11.91,11.82,11.91c2.36,0,4.51-0.7,6.13-2.01l0.66-0.53v2.15h4.42V6.26h-4.42v12.22
		l-0.66-0.53C189.09,16.6,186.99,15.9,184.67,15.9"/>
	<path id="path895" style="fill:#00C81E;" d="M30.88,4.29c1.18,0,2.15-0.96,2.15-2.15S32.06,0,30.83,0c-1.18,0-2.15,0.96-2.15,2.15
		C28.73,3.33,29.7,4.29,30.88,4.29"/>
	<path id="path897" style="fill:#00C81E;" d="M30.88,4.29c1.18,0,2.15-0.96,2.15-2.15S32.06,0,30.83,0c-1.18,0-2.15,0.96-2.15,2.15
		C28.73,3.33,29.7,4.29,30.88,4.29"/>
	<path id="path899" style="fill:#00C81E;" d="M15.33,15.5h4.34c0,0-0.7-0.7-3.37-3.55c-1.53-1.62-1.66-2.89,0.26-2.89H17l2.19-3.28
		c0,0-1.88-0.04-2.67-0.04c-5.17,0-6.09,5.08-3.5,7.53C14.98,15.06,15.33,15.5,15.33,15.5"/>
	<path id="path901" style="fill:#00C81E;" d="M15.33,15.5h4.34c0,0-0.7-0.7-3.37-3.55c-1.53-1.62-1.66-2.89,0.26-2.89H17l2.19-3.28
		c0,0-1.88-0.04-2.67-0.04c-5.17,0-6.09,5.08-3.5,7.53C14.98,15.06,15.33,15.5,15.33,15.5"/>
	<path id="path903" style="fill:#00C81E;" d="M45.24,8.93c1.93,0,1.8,1.27,0.26,2.89c-2.67,2.85-3.33,3.55-3.33,3.55h4.34
		c0,0,0.39-0.39,2.32-2.28c2.58-2.45,1.62-7.53-3.5-7.53c-0.83,0-2.67,0.09-2.67,0.09l2.19,3.28L45.24,8.93z"/>
	<path id="path905" style="fill:#00C81E;" d="M45.24,8.93c1.93,0,1.8,1.27,0.26,2.89c-2.67,2.85-3.33,3.55-3.33,3.55h4.34
		c0,0,0.39-0.39,2.32-2.28c2.58-2.45,1.62-7.53-3.5-7.53c-0.83,0-2.67,0.09-2.67,0.09l2.19,3.28L45.24,8.93z"/>
	<polygon id="polygon907" style="fill:#00C81E;" points="30.92,15.28 32.59,13.84 32.54,5.65 29.21,5.65 29.26,13.88 	"/>
	<polygon id="polygon909" style="fill:#00C81E;" points="30.92,15.28 32.59,13.84 32.54,5.65 29.21,5.65 29.26,13.88 	"/>
	<path id="path911" style="fill:#00C81E;" d="M57.06,49.31c0.83,3.94,0.57,7.88-0.79,11.74c-1.71,4.73-4.34,7.93-7.62,9.15
		c-0.74,0.26-2.1,0.7-3.81,0.74c-1.09,0-2.54-0.39-3.46-0.83c-0.53-0.22-1.62-0.74-1.62-0.74c-2.93-1.62-7.09-4.9-7.05-7.09
		c0-0.74,1.71-1.97,3.15-2.01c2.01,0,3.63-1.66,3.63-3.68V56.4l-0.74-3.2l-0.04-0.09c-0.53-1.75-1.88-7.71,2.76-10.38l4.03-1.93
		l-1.45-3.02l-4.12,1.97l-0.13,0.04c-4.6,2.63-6.22,7.93-4.38,14.23l0.61,2.71c-0.04,0.09-0.13,0.18-0.26,0.18
		c-1.36,0-2.89,0.53-4.12,1.4c-0.26,0.18-0.48,0.35-0.7,0.57c-1.36-1.23-3.33-1.93-4.86-1.88c-0.13,0-0.22-0.09-0.26-0.18l0.61-2.71
		c1.8-6.31,0.13-11.6-4.51-14.19l-4.2-1.97l-1.4,3.02l4.03,1.88c4.64,2.63,3.37,8.58,2.85,10.38l-0.74,3.28v0.18
		c0,2.01,1.66,3.63,3.68,3.63c1.4,0,3.15,1.18,3.15,1.97c0.04,2.19-4.07,5.47-7.01,7.14c-0.26,0.13-0.57,0.31-0.83,0.44
		c-0.96,0.57-2.41,1.18-4.12,1.18c-0.44,0-2.01,0.04-3.98-0.7c-3.28-1.27-6-4.38-7.71-9.11c-1.66-4.51-1.8-9.11-0.39-13.71
		c0.39-1.4,1.36-3.46,1.31-3.5c2.15-4.6,5.69-8.89,10.25-12.52c0.09-0.04,6.83-5.3,12.44-9.02l-7.62-5.17H17c0,0-0.39,0-0.61,0l0,0
		l0,0c-4.51,0.44-8.45,2.15-11.6,5.17c-3.2,2.93-5.12,8.41-4.73,13.66c0.18,2.23,0.7,4.29,1.58,6.22c0.53-1.05,1.23-2.41,2.15-3.98
		c-0.22-0.88-0.35-1.71-0.39-2.5c-0.31-4.2,1.18-8.71,3.63-10.95c2.63-2.5,5.87-3.9,9.59-4.29l9.41-0.04
		c-5.39,3.68-11.17,8.19-11.25,8.23C11,31.88,7.89,35.25,5.61,38.93c-1.45,2.41-2.85,5.52-2.8,5.56C0.53,50.45,0.44,56.62,2.55,62.4
		c2.63,7.18,6.7,9.98,9.68,11.08c1.45,0.53,3.02,0.79,4.6,0.79c2.41,0,4.51-0.79,4.47-0.79c0.7-0.26,2.01-0.74,2.67-1.14l0,0
		c0.61-0.35,4.73-2.71,7.05-5.82c2.32,3.02,6.31,5.3,7.05,5.74c0,0,1.8,1.05,3.24,1.49c1.62,0.44,3.37,0.44,3.94,0.44
		c1.58,0,3.11-0.31,4.6-0.83c2.98-1.14,7.05-3.98,9.59-11.17c1.84-5.12,1.93-10.51,0.35-15.81C59.08,47.29,58.2,48.3,57.06,49.31"/>
	<path id="path913" style="fill:#00C81E;" d="M57.06,49.31c0.83,3.94,0.57,7.88-0.79,11.74c-1.71,4.73-4.34,7.93-7.62,9.15
		c-0.74,0.26-2.1,0.7-3.81,0.74c-1.09,0-2.54-0.39-3.46-0.83c-0.53-0.22-1.62-0.74-1.62-0.74c-2.93-1.62-7.09-4.9-7.05-7.09
		c0-0.74,1.71-1.97,3.15-2.01c2.01,0,3.63-1.66,3.63-3.68V56.4l-0.74-3.2l-0.04-0.09c-0.53-1.75-1.88-7.71,2.76-10.38l4.03-1.93
		l-1.45-3.02l-4.12,1.97l-0.13,0.04c-4.6,2.63-6.22,7.93-4.38,14.23l0.61,2.71c-0.04,0.09-0.13,0.18-0.26,0.18
		c-1.36,0-2.89,0.53-4.12,1.4c-0.26,0.18-0.48,0.35-0.7,0.57c-1.36-1.23-3.33-1.93-4.86-1.88c-0.13,0-0.22-0.09-0.26-0.18l0.61-2.71
		c1.8-6.31,0.13-11.6-4.51-14.19l-4.2-1.97l-1.4,3.02l4.03,1.88c4.64,2.63,3.37,8.58,2.85,10.38l-0.74,3.28v0.18
		c0,2.01,1.66,3.63,3.68,3.63c1.4,0,3.15,1.18,3.15,1.97c0.04,2.19-4.07,5.47-7.01,7.14c-0.26,0.13-0.57,0.31-0.83,0.44
		c-0.96,0.57-2.41,1.18-4.12,1.18c-0.44,0-2.01,0.04-3.98-0.7c-3.28-1.27-6-4.38-7.71-9.11c-1.66-4.51-1.8-9.11-0.39-13.71
		c0.39-1.4,1.36-3.46,1.31-3.5c2.15-4.6,5.69-8.89,10.25-12.52c0.09-0.04,6.83-5.3,12.44-9.02l-7.62-5.17H17c0,0-0.39,0-0.61,0l0,0
		l0,0c-4.51,0.44-8.45,2.15-11.6,5.17c-3.2,2.93-5.12,8.41-4.73,13.66c0.18,2.23,0.7,4.29,1.58,6.22c0.53-1.05,1.23-2.41,2.15-3.98
		c-0.22-0.88-0.35-1.71-0.39-2.5c-0.31-4.2,1.18-8.71,3.63-10.95c2.63-2.5,5.87-3.9,9.59-4.29l9.41-0.04
		c-5.39,3.68-11.17,8.19-11.25,8.23C11,31.88,7.89,35.25,5.61,38.93c-1.45,2.41-2.85,5.52-2.8,5.56C0.53,50.45,0.44,56.62,2.55,62.4
		c2.63,7.18,6.7,9.98,9.68,11.08c1.45,0.53,3.02,0.79,4.6,0.79c2.41,0,4.51-0.79,4.47-0.79c0.7-0.26,2.01-0.74,2.67-1.14l0,0
		c0.61-0.35,4.73-2.71,7.05-5.82c2.32,3.02,6.31,5.3,7.05,5.74c0,0,1.8,1.05,3.24,1.49c1.62,0.44,3.37,0.44,3.94,0.44
		c1.58,0,3.11-0.31,4.6-0.83c2.98-1.14,7.05-3.98,9.59-11.17c1.84-5.12,1.93-10.51,0.35-15.81C59.08,47.29,58.2,48.3,57.06,49.31"/>
	<path id="path915" style="fill:#00C81E;" d="M23.74,16.33l10.64,7.62c0.13,0.09,0.83,0.53,0.83,0.53c4.86,3.33,9.59,6.92,9.63,6.96
		c4.03,3.11,7.23,6.79,9.46,10.73c0.92-1.31,1.45-2.76,1.71-3.68c-2.32-3.55-5.39-6.83-9.11-9.72c-0.04-0.04-4.25-3.24-8.85-6.44
		c-1.93-1.18-7.62-5.04-7.62-5.04c-2.71-1.75-6.61-5.34-6.61-5.34c-1.45-1.4-1.62-2.93,0.13-2.93h3.42V5.69H24
		c-5.47,0.04-6.31,4.55-3.33,7.75C21.81,14.71,23.74,16.33,23.74,16.33"/>
	<path id="path917" style="fill:#00C81E;" d="M23.74,16.33l10.64,7.62c0.13,0.09,0.83,0.53,0.83,0.53c4.86,3.33,9.59,6.92,9.63,6.96
		c4.03,3.11,7.23,6.79,9.46,10.73c0.92-1.31,1.45-2.76,1.71-3.68c-2.32-3.55-5.39-6.83-9.11-9.72c-0.04-0.04-4.25-3.24-8.85-6.44
		c-1.93-1.18-7.62-5.04-7.62-5.04c-2.71-1.75-6.61-5.34-6.61-5.34c-1.45-1.4-1.62-2.93,0.13-2.93h3.42V5.69H24
		c-5.47,0.04-6.31,4.55-3.33,7.75C21.81,14.71,23.74,16.33,23.74,16.33"/>
	<path id="path919" style="fill:#00C81E;" d="M38.89,74.66c-2.01,1.66-5.12,2.36-7.84,2.41c-2.67-0.04-5.69-0.7-7.71-2.23
		c-0.92,0.35-2.28,0.83-3.63,1.14c1.23,1.49,2.93,2.63,5.12,3.42c2.23,0.79,4.47,1.01,5.91,1.05l0,0c0.13,0,0.22,0,0.35,0
		s0.26,0,0.39,0l0,0c1.45-0.04,3.68-0.31,5.91-1.09c2.19-0.79,3.9-1.97,5.12-3.5C41.04,75.49,39.72,75.01,38.89,74.66"/>
	<path id="path921" style="fill:#00C81E;" d="M38.89,74.66c-2.01,1.66-5.12,2.36-7.84,2.41c-2.67-0.04-5.69-0.7-7.71-2.23
		c-0.92,0.35-2.28,0.83-3.63,1.14c1.23,1.49,2.93,2.63,5.12,3.42c2.23,0.79,4.47,1.01,5.91,1.05l0,0c0.13,0,0.22,0,0.35,0
		s0.26,0,0.39,0l0,0c1.45-0.04,3.68-0.31,5.91-1.09c2.19-0.79,3.9-1.97,5.12-3.5C41.04,75.49,39.72,75.01,38.89,74.66"/>
	<path id="path923" style="fill:#00C81E;" d="M56.85,22.29c-3.15-2.89-6.96-4.6-11.34-5.04l-0.39-0.04c-0.22,0-0.61,0-0.61,0
		l-7.71,0.04c0.79-0.61,1.58-1.23,2.36-1.88c0,0,0.13-0.04,0.48-0.39c0.35-0.31,0.96-1.05,0.96-1.05c0.18-0.18,0.35-0.39,0.57-0.61
		c3.02-3.2,2.15-7.71-3.33-7.71h-3.37v3.33h3.42c1.84,0,1.27,1.58,0,3.2c-1.71,1.49-3.55,2.89-5.52,4.25
		c2.32,1.66,4.69,3.15,6.39,4.2l6.22-0.04c3.72,0.35,6.96,1.75,9.63,4.2c2.45,2.23,3.98,6.7,3.72,10.9
		c-0.09,1.27-0.35,2.8-0.92,4.34c-0.61,1.62-1.71,3.81-3.63,5.34l-0.04,0.04c-0.48,0.44-0.96,0.83-1.53,1.23
		c-8.8,6.17-9.46,14.06-9.81,18.26c-0.04,0.35-0.04,0.7-0.09,1.01c0,0.18-0.04,0.39-0.04,0.57c-0.04,0.53-0.09,1.18-0.22,1.84
		c0.83,0.44,2.01,0.83,3.28,0.7c0.13-0.88,0.22-1.62,0.26-2.28c0-0.18,0.04-0.39,0.04-0.53c0.04-0.35,0.04-0.7,0.09-1.09
		c0.35-4.16,0.92-10.51,8.32-15.76c0.04-0.04,0.13-0.13,0.18-0.18c4.07-2.93,5.65-6.48,5.65-6.52c0.04-0.09,0.09-0.13,0.13-0.18
		c1.01-2.06,1.58-4.34,1.75-6.7C62.01,30.65,60.04,25.18,56.85,22.29"/>
	<path id="path925" style="fill:#00C81E;" d="M56.85,22.29c-3.15-2.89-6.96-4.6-11.34-5.04l-0.39-0.04c-0.22,0-0.61,0-0.61,0
		l-7.71,0.04c0.79-0.61,1.58-1.23,2.36-1.88c0,0,0.13-0.04,0.48-0.39c0.35-0.31,0.96-1.05,0.96-1.05c0.18-0.18,0.35-0.39,0.57-0.61
		c3.02-3.2,2.15-7.71-3.33-7.71h-3.37v3.33h3.42c1.84,0,1.27,1.58,0,3.2c-1.71,1.49-3.55,2.89-5.52,4.25
		c2.32,1.66,4.69,3.15,6.39,4.2l6.22-0.04c3.72,0.35,6.96,1.75,9.63,4.2c2.45,2.23,3.98,6.7,3.72,10.9
		c-0.09,1.27-0.35,2.8-0.92,4.34c-0.61,1.62-1.71,3.81-3.63,5.34l-0.04,0.04c-0.48,0.44-0.96,0.83-1.53,1.23
		c-8.8,6.17-9.46,14.06-9.81,18.26c-0.04,0.35-0.04,0.7-0.09,1.01c0,0.18-0.04,0.39-0.04,0.57c-0.04,0.53-0.09,1.18-0.22,1.84
		c0.83,0.44,2.01,0.83,3.28,0.7c0.13-0.88,0.22-1.62,0.26-2.28c0-0.18,0.04-0.39,0.04-0.53c0.04-0.35,0.04-0.7,0.09-1.09
		c0.35-4.16,0.92-10.51,8.32-15.76c0.04-0.04,0.13-0.13,0.18-0.18c4.07-2.93,5.65-6.48,5.65-6.52c0.04-0.09,0.09-0.13,0.13-0.18
		c1.01-2.06,1.58-4.34,1.75-6.7C62.01,30.65,60.04,25.18,56.85,22.29"/>
	<path id="path927" style="fill:#00C81E;" d="M20.06,68.57c-0.13-0.7-0.18-1.4-0.26-1.93c0-0.22-0.04-0.39-0.04-0.57
		c-0.04-0.31-0.09-0.66-0.09-1.01c-0.39-4.2-1.14-12.09-9.98-18.17c-0.61-0.39-1.14-0.83-1.62-1.27c-0.53,1.31-0.88,2.54-1.05,3.46
		c0.26,0.18,0.48,0.39,0.74,0.57c7.58,5.21,8.14,11.56,8.54,15.72c0.04,0.39,0.09,0.74,0.09,1.09c0,0.18,0.04,0.35,0.04,0.53
		c0.04,0.61,0.13,1.4,0.31,2.23C18.05,69.36,19.19,69.01,20.06,68.57"/>
	<path id="path929" style="fill:#00C81E;" d="M20.06,68.57c-0.13-0.7-0.18-1.4-0.26-1.93c0-0.22-0.04-0.39-0.04-0.57
		c-0.04-0.31-0.09-0.66-0.09-1.01c-0.39-4.2-1.14-12.09-9.98-18.17c-0.61-0.39-1.14-0.83-1.62-1.27c-0.53,1.31-0.88,2.54-1.05,3.46
		c0.26,0.18,0.48,0.39,0.74,0.57c7.58,5.21,8.14,11.56,8.54,15.72c0.04,0.39,0.09,0.74,0.09,1.09c0,0.18,0.04,0.35,0.04,0.53
		c0.04,0.61,0.13,1.4,0.31,2.23C18.05,69.36,19.19,69.01,20.06,68.57"/>
</g>
</svg>
