<?xml version="1.0" encoding="utf-8"?>
<svg version="1.1" id="Layer_1" xmlns="http://www.w3.org/2000/svg" xmlns:xlink="http://www.w3.org/1999/xlink" x="0px" y="0px"
	width="100" height="100" viewBox="0 0 102.7 102.7" style="enable-background:new 0 0 102.7 102.7;" xml:space="preserve">
<g>
	<defs>
		<rect id="SVGID_1_" x="0" y="0" width="102.7" height="102.7"/>
	</defs>
	<clipPath id="SVGID_2_">
		<use xlink:href="#SVGID_1_"  style="overflow:visible;"/>
	</clipPath>
	<path style="clip-path:url(#SVGID_2_);fill:#E8E8E8;" d="M51.3,0c28.4,0,51.3,23,51.3,51.3s-23,51.3-51.3,51.3S0,79.7,0,51.3
		S23,0,51.3,0"/>
	<path style="clip-path:url(#SVGID_2_);fill:#FFFFFF;" d="M51.3,1c27.8,0,50.3,22.5,50.3,50.3c0,27.8-22.5,50.3-50.3,50.3
		C23.6,101.6,1,79.1,1,51.3C1,23.5,23.6,1,51.3,1"/>
	<path style="clip-path:url(#SVGID_2_);fill:#253B80;" d="M39.9,80.6l1.1-6.9h-2.5H27l8-50.9c0-0.2,0.1-0.3,0.2-0.4
		c0.1-0.1,0.2-0.2,0.4-0.2h19.5c6.5,0,11,1.4,13.2,4c1.1,1.2,1.8,2.6,2.2,4c0.3,1.5,0.3,3.3,0,5.4v0.2v1.4l1.1,0.6
		c0.9,0.5,1.6,1,2.2,1.7c0.9,1,1.5,2.5,1.7,4c0.3,1.6,0.2,3.6-0.2,5.9c-0.5,2.6-1.3,4.8-2.4,6.7c-1,1.7-2.3,3.1-3.8,4.1
		c-1.4,1-3.2,1.7-5.1,2.3c-1.8,0.5-4,0.7-6.4,0.7h-1.5c-1.1,0-2.2,0.4-3,1.1c-0.8,0.7-1.4,1.7-1.5,2.8l-0.1,0.6l-2,12.2l-0.1,0.5
		c0,0.1-0.1,0.2-0.1,0.2c-0.1,0.1-0.1,0-0.2,0L39.9,80.6z"/>
	<path style="clip-path:url(#SVGID_2_);fill:#179BD7;" d="M77.5,49.8c-2.3,11.5-10,15.5-19.8,15.5h-1.5c-1.1,0-2.3,0.9-2.4,2.1
		L53.7,68l-2,12.1l-0.1,0.5c-0.2,1.1-1.1,2.1-2.4,2.1H39.2c-0.9,0-1.5-0.8-1.4-1.7l0.8-5.2l2.9-18.6c0-0.1,0-0.2,0.1-0.3
		c0.3-1.1,1.3-2,2.7-2H50c11.2,0,20-4.5,22.6-17.8l0.2-1.2c1.1,0.7,2.1,1.3,2.7,2.2C77.9,40.9,78.4,44.9,77.5,49.8"/>
	<path style="clip-path:url(#SVGID_2_);fill:#222D65;" d="M72.7,36l-0.2,1c-2.6,13.2-11.3,17.8-22.6,17.8h-5.8
		c-1.3,0-2.5,0.9-2.7,2.3v-0.2v-0.2l3.3-20.7c0.1-0.5,0.3-0.9,0.6-1.3c0.2-0.2,0.4-0.4,0.7-0.5c0.3-0.2,0.7-0.2,1-0.2h15.3
		c1.8,0,3.6,0.1,5.1,0.4c0.4,0.1,0.8,0.1,1.2,0.2l1.2,0.3c0.2,0.1,0.3,0.1,0.5,0.2c0.7,0.2,1.4,0.5,2.1,0.8L72.7,36z"/>
	<path style="clip-path:url(#SVGID_2_);fill:#253B80;" d="M72.7,35.8L72.7,35.8c-0.6-0.3-1.3-0.6-2.2-0.8c-0.2,0-0.4-0.1-0.6-0.2
		l-1.2-0.3c-0.4-0.1-0.8-0.1-1.2-0.2c-1.5-0.2-3.3-0.3-5-0.3H47.1c-0.3,0-0.7,0-1,0.2c-0.2,0.1-0.4,0.2-0.6,0.4
		c-0.4,0.3-0.6,0.8-0.7,1.3l-3.3,20.6l-3,19.2H26.4c-1,0-1.8-0.9-1.6-2l8.1-51.5c0.2-1.3,1.3-2.4,2.8-2.4h19.5
		c6.7,0,11.9,1.4,14.8,4.7C72.6,27.7,73.3,31,72.7,35.8"/>
</g>
</svg>
