<?xml version="1.0" encoding="utf-8"?>
<svg version="1.1" id="Layer_1" xmlns="http://www.w3.org/2000/svg" xmlns:xlink="http://www.w3.org/1999/xlink" x="0px" y="0px"
	width="100px" height="100px" viewBox="0 0 66.7 66.7" style="enable-background:new 0 0 66.7 66.7;" xml:space="preserve">
<g>
	<circle style="fill:#E8E8E8;" cx="33.3" cy="33.3" r="33.3"/>
	<circle style="fill:#FFFFFF;" cx="33.3" cy="33.3" r="32.7"/>
	<path style="fill:#FCC200;" d="M15.7,33.3V13.6c0-0.9,0.5-1.5,1.5-1.5h32.4c0.9,0,1.5,0.6,1.5,1.5v39.5c0,0.9-0.7,1.5-1.5,1.5H17.1
		c-0.7,0-1.3-0.5-1.5-1.2c0-0.1,0-0.2,0-0.3L15.7,33.3L15.7,33.3z"/>
	<path style="fill:#14215A;" d="M47.1,33.3V50v0.2c0,0.3-0.2,0.5-0.5,0.5h-0.1H20.2c-0.1,0-0.2,0-0.3-0.1c-0.2-0.1-0.4-0.3-0.4-0.5
		V50V16.6v-0.1c0-0.3,0.2-0.5,0.5-0.5h0.1h26.2c0.1,0,0.2,0,0.3,0c0.2,0.1,0.4,0.3,0.4,0.5v0.3V33.3z"/>
	<path style="fill:#FCC200;" d="M15.7,33.3V13.6c0-0.9,0.5-1.5,1.5-1.5h32.4c0.9,0,1.5,0.6,1.5,1.5v39.5c0,0.9-0.5,1.5-1.5,1.5H17.1
		c-0.7,0-1.3-0.5-1.5-1.2c0-0.1,0-0.2,0-0.3L15.7,33.3L15.7,33.3z M49.3,33.3V14.7c0-0.6-0.4-1-1-1h-30c-0.1,0-0.1,0-0.2,0
		c-0.5,0.1-0.8,0.5-0.8,1.1v37v0.1c0,0.5,0.5,1,1,1h30.1c0.1,0,0.1,0,0.1,0c0.5-0.1,0.8-0.5,0.8-1L49.3,33.3L49.3,33.3z"/>
	<path style="fill:#EE7601;" d="M49.3,33.3v18.5c0,0.5-0.3,0.9-0.8,1c-0.1,0-0.1,0-0.1,0H18.3c-0.5,0-1-0.5-1-1v-0.1V14.8
		c0-0.5,0.3-0.9,0.8-1.1c0.1,0,0.1,0,0.2,0h30.1c0.5,0,1,0.5,1,1L49.3,33.3L49.3,33.3z M48.1,33.3v-5.1V15.8c0-0.1,0-0.2,0-0.3
		c-0.1-0.3-0.3-0.5-0.7-0.5H19.4h-0.1c-0.3,0-0.6,0.3-0.7,0.5c0,0.1,0,0.2,0,0.3v35V51c0,0.1,0,0.1,0,0.1c0.1,0.3,0.3,0.5,0.7,0.5
		h27.9h0.1c0.1-0.1,0.3-0.1,0.4-0.1c0.3-0.1,0.3-0.4,0.3-0.7L48.1,33.3L48.1,33.3z"/>
	<path style="fill:#D80912;" d="M48.1,33.3v17.6c0,0.3-0.1,0.5-0.3,0.7c-0.1,0.1-0.3,0.1-0.4,0.1h-0.1H19.4c-0.4,0-0.7-0.2-0.7-0.5
		c0-0.1,0-0.1,0-0.1c0-0.1,0-0.1,0-0.2V15.8c0-0.1,0-0.3,0-0.3c0.1-0.3,0.3-0.5,0.7-0.5h0.1h27.9c0.4,0,0.7,0.2,0.7,0.5
		c0,0.1,0,0.2,0,0.3v12.5V33.3L48.1,33.3z M47.1,33.3V16.7v-0.2c0-0.2-0.1-0.4-0.4-0.5c-0.1,0-0.1-0.1-0.3-0.1H20.3h-0.1
		c-0.3,0-0.5,0.3-0.5,0.5v0.1V50v0.2c0,0.2,0.1,0.4,0.4,0.5c0.1,0,0.1,0.1,0.3,0.1h26.2h0.1c0.3-0.1,0.5-0.3,0.5-0.5V50
		C47.1,50,47.1,33.3,47.1,33.3z"/>
	<path style="fill:#FDFDFD;" d="M35.5,45.1v-6.5h0.1h2.8c0.5,0,0.9,0.1,1.4,0.2c0.9,0.3,1.5,0.9,1.7,1.9c0.2,0.9,0.2,1.7-0.1,2.5
		c-0.3,1-0.9,1.5-1.9,1.8c-0.4,0.1-0.8,0.1-1.2,0.1H35.5C35.6,45.1,35.5,45.1,35.5,45.1L35.5,45.1z M37.5,43.7c0.3,0,0.7,0,1.1-0.1
		c0.5-0.1,0.9-0.4,1.1-0.9s0.1-1,0.1-1.5c-0.1-0.5-0.5-0.9-1-1.1c-0.4-0.1-0.7-0.1-1.2-0.1C37.5,39.9,37.5,43.7,37.5,43.7z
		 M24.4,43.9l-0.3,1.2H22c0.7-2.2,1.4-4.3,2.3-6.5h2.6c0.9,2.2,1.6,4.3,2.3,6.5H27l-0.3-1.2H24.4L24.4,43.9z M25.6,39.7L25.6,39.7
		l-0.9,2.7h1.7C26.2,41.5,25.9,40.7,25.6,39.7C25.6,39.8,25.6,39.7,25.6,39.7z M29.8,38.5h2v0.1v4.1c0,0.1,0,0.3,0,0.4
		c0,0.2,0.1,0.3,0.3,0.3c0.1,0,0.2,0,0.3,0h1.7h0.1l0.3,1.5c-0.1,0-0.1,0.1-0.1,0.1h-3.1c-0.2,0-0.4-0.1-0.6-0.1
		c-0.6-0.2-0.9-0.6-1-1.2c0-0.1,0-0.3,0-0.5v-4.7C29.8,38.6,29.8,38.6,29.8,38.5L29.8,38.5z M42.7,38.5h1.9v6.5h-1.9V38.5L42.7,38.5
		z"/>
	
		<linearGradient id="SVGID_1_" gradientUnits="userSpaceOnUse" x1="7892.0957" y1="6024.3442" x2="7981.916" y2="5777.561" gradientTransform="matrix(0.1089 0 0 0.1089 -824.2729 -611.5155)">
		<stop  offset="0" style="stop-color:#97D2F0"/>
		<stop  offset="4.400000e-002" style="stop-color:#8ACFF0"/>
		<stop  offset="0.145" style="stop-color:#72C9F0"/>
		<stop  offset="0.251" style="stop-color:#60C5F0"/>
		<stop  offset="0.366" style="stop-color:#56C3F0"/>
		<stop  offset="0.505" style="stop-color:#53C2F0"/>
		<stop  offset="0.569" style="stop-color:#57C3F0"/>
		<stop  offset="0.634" style="stop-color:#63C7F1"/>
		<stop  offset="0.699" style="stop-color:#77CDF2"/>
		<stop  offset="0.764" style="stop-color:#94D6F3"/>
		<stop  offset="0.829" style="stop-color:#B8E1F5"/>
		<stop  offset="0.837" style="stop-color:#BDE3F5"/>
		<stop  offset="0.86" style="stop-color:#B1DDF1"/>
		<stop  offset="0.9" style="stop-color:#92CCE5"/>
		<stop  offset="0.954" style="stop-color:#60B2D3"/>
		<stop  offset="1" style="stop-color:#2F98C1"/>
	</linearGradient>
	<path style="fill:url(#SVGID_1_);" d="M41,27.8c0.7,0,1.2,0.3,1.5,0.9l1,2l0.1,0.1c-0.1-0.1-0.3-0.3-0.4-0.3
		c-0.3-0.2-0.6-0.2-0.9-0.2H35l0.9-2.5L41,27.8L41,27.8z M45,34.4l-1-2c-0.3-0.6-0.8-0.9-1.5-0.9h-7.9L33.7,34h9.9
		c0.3,0,0.7,0,0.9,0.2c0.1,0.1,0.3,0.2,0.4,0.3C45,34.5,45,34.5,45,34.4L45,34.4z M36.3,26.7h4.4c0.3,0,0.7,0,0.9,0.2
		c0.1,0.1,0.3,0.2,0.4,0.3c0-0.1,0-0.1-0.1-0.1l-1-2c-0.3-0.6-0.8-0.9-1.5-0.9h-2.4L36.3,26.7L36.3,26.7z"/>
	
		<linearGradient id="SVGID_2_" gradientUnits="userSpaceOnUse" x1="7843.3872" y1="5941.7637" x2="7843.3872" y2="5792.3633" gradientTransform="matrix(0.1089 0 0 0.1089 -824.2729 -611.5155)">
		<stop  offset="0" style="stop-color:#2F98C1"/>
		<stop  offset="7.000001e-003" style="stop-color:#389DC4"/>
		<stop  offset="6.500000e-002" style="stop-color:#7FC2DE"/>
		<stop  offset="0.106" style="stop-color:#ACDAEF"/>
		<stop  offset="0.127" style="stop-color:#BDE3F5"/>
		<stop  offset="0.137" style="stop-color:#B3E0F5"/>
		<stop  offset="0.178" style="stop-color:#94D7F3"/>
		<stop  offset="0.222" style="stop-color:#7ACFF2"/>
		<stop  offset="0.27" style="stop-color:#66C9F1"/>
		<stop  offset="0.325" style="stop-color:#58C4F0"/>
		<stop  offset="0.391" style="stop-color:#4FC2F0"/>
		<stop  offset="0.505" style="stop-color:#4DC1F0"/>
		<stop  offset="0.596" style="stop-color:#50C2F0"/>
		<stop  offset="0.667" style="stop-color:#5AC5F1"/>
		<stop  offset="0.732" style="stop-color:#6BCAF1"/>
		<stop  offset="0.792" style="stop-color:#82D1F2"/>
		<stop  offset="0.849" style="stop-color:#A0DAF4"/>
		<stop  offset="0.894" style="stop-color:#BDE3F5"/>
		<stop  offset="0.909" style="stop-color:#B1DDF1"/>
		<stop  offset="0.935" style="stop-color:#92CCE5"/>
		<stop  offset="0.97" style="stop-color:#60B2D3"/>
		<stop  offset="1" style="stop-color:#2F98C1"/>
	</linearGradient>
	<path style="fill:url(#SVGID_2_);" d="M34.7,19.5c-0.4,0.1-0.7,0.3-1,0.7c-0.2,0.3-0.4,0.7-0.5,1l-1.1,3L30,30.7l-0.7,1.9L28.7,34
		l0,0l-0.1,0.3c0,0,0,0.1,0,0.1c-0.1,0.4-0.4,0.7-0.7,1l-0.1,0.1c-0.3,0.2-0.5,0.3-0.9,0.3h-1.1l0,0h-1.1h-0.1
		c0.4-0.1,0.7-0.3,1-0.7c0.2-0.3,0.4-0.7,0.5-1l1.1-3l2.2-6.5l0.5-1.9l0.5-1.4l0,0l0.1-0.3c0,0,0-0.1,0.1-0.1c0.1-0.4,0.4-0.7,0.7-1
		l0.1-0.1c0.3-0.2,0.5-0.3,0.9-0.3h1.1l0,0H34.7L34.7,19.5L34.7,19.5L34.7,19.5z M30.7,19.5h-1.1l0,0h-1.1c-0.3,0-0.6,0.1-0.9,0.3
		c0,0-0.1,0-0.1,0.1c-0.3,0.3-0.5,0.6-0.7,1c0,0,0,0.1-0.1,0.1l-0.1,0.3l-5,14.5h0.3l0,0h1.1c0.3,0,0.6-0.1,0.9-0.3l0.1-0.1
		c0.3-0.3,0.5-0.6,0.7-1c0,0,0-0.1,0-0.1l0.1-0.3l0,0c0.2-0.5,0.4-0.9,0.5-1.4l0.7-1.9l2.2-6.5l1.1-3c0.1-0.3,0.3-0.7,0.5-1
		C29.9,19.8,30.3,19.6,30.7,19.5C30.8,19.5,30.7,19.5,30.7,19.5L30.7,19.5z M38.5,19.5h-1.1l0,0h-1.1c-0.3,0-0.6,0.1-0.9,0.3
		c0,0-0.1,0-0.1,0.1c-0.3,0.3-0.5,0.6-0.7,1c0,0,0,0.1-0.1,0.1l-0.1,0.3l0,0c-0.1,0.5-0.3,0.9-0.5,1.4l-0.7,1.9L31,31.1l-1,2.9
		c-0.1,0.3-0.3,0.7-0.5,1c-0.2,0.3-0.5,0.5-1,0.7h0.1h1.1l0,0h1.1c0.3,0,0.6-0.1,0.9-0.3l0.1-0.1c0.3-0.3,0.5-0.6,0.7-1
		c0,0,0-0.1,0-0.1l0.2-0.3l0,0c0.2-0.5,0.3-0.9,0.5-1.4l0.7-1.9l2.2-6.5l1.1-3c0.1-0.3,0.3-0.7,0.5-1c0.2-0.3,0.5-0.5,1-0.7H38.5
		L38.5,19.5z"/>
</g>
</svg>
