<?xml version="1.0" encoding="utf-8"?>
<svg version="1.1" id="Layer_1" xmlns="http://www.w3.org/2000/svg" xmlns:xlink="http://www.w3.org/1999/xlink" x="0px" y="0px"
	 viewBox="0 0 292.6 28.7" style="enable-background:new 0 0 292.6 28.7;" xml:space="preserve">
<g>
	<path style="fill-rule:evenodd;clip-rule:evenodd;" d="M191.6,17.9c2.2,3.2,4.4,6.4,6.8,10c-2.5,0-4.8,0-7,0
		c-0.7,0-0.9-0.6-1.2-1.1c-1.7-2.5-3.5-5-5.2-7.5c-0.5-0.8-1.1-1.1-2.1-1.1c-2.1,0.1-4.3,0-6.4,0c-0.9,0-1.1-0.2-1.1-1.1
		c-0.1-4.1-0.1-4.1,3.9-4.1c2.6,0,5.2,0,7.8,0c1.5,0,2.8-0.4,3.6-1.8c1.1-1.8,0.2-4.1-1.8-4.9c-0.7-0.3-1.5-0.4-2.3-0.4
		c-4.4,0-8.7,0.1-13.1,0c-1.2,0-1.5,0.3-1.5,1.5c0.1,6.3,0,12.6,0.1,18.8c0,1.2-0.2,1.7-1.6,1.6c-1.3-0.1-2.6-0.1-3.9,0
		c-1.1,0.1-1.3-0.4-1.3-1.4c0-8.1,0-16.3,0-24.4c0-1,0.2-1.4,1.3-1.4c7.2,0.1,14.5,0,21.7,0.1c3.6,0.1,6.7,1.4,8.4,4.7
		c2,3.7,1.3,10.2-4.4,12C192.1,17.7,191.9,17.8,191.6,17.9z"/>
	<path style="fill-rule:evenodd;clip-rule:evenodd;" d="M136.3,27.9c-4.6,0-9.3,0-13.9,0c-1,0-1.3-0.3-1.3-1.3c0-8.2,0-16.4,0-24.6
		c0-0.9,0.2-1.2,1.2-1.2c9,0,18,0,27,0c1,0,1.3,0.3,1.3,1.3c0,3.9,0.1,3.9-3.9,3.9c-5.8,0-11.5,0-17.3,0c-1.1,0-1.6,0.2-1.6,1.5
		c0,4.1,0,4.1,4.1,4.1c3.4,0,6.9,0,10.3,0c1.1,0,1.3,0.3,1.3,1.3c0,3.9,0.1,3.9-3.9,3.9c-3.4,0-6.9,0-10.3,0c-1.1,0-1.7,0.2-1.5,1.4
		c0.2,1.4-0.6,3.4,0.3,4.2c0.8,0.7,2.7,0.2,4.1,0.2c5.9,0,11.8,0.1,17.6,0c1.5,0,1.8,0.4,1.7,1.8c-0.1,3.5,0,3.5-3.6,3.5
		C144.1,27.9,140.2,27.9,136.3,27.9z"/>
	<path style="fill-rule:evenodd;clip-rule:evenodd;" d="M229,0c5,0,9.6,1.2,13.6,4.3c6.2,4.9,6.6,13.9,0.8,19.3
		c-7.2,6.9-22.2,6.6-29.2-0.5c-5-5.1-4.7-13.5,0.6-18.2C218.9,1.4,223.7,0.1,229,0z M229,23.3c2.2,0.1,4.3-0.2,6.3-1.1
		c3.2-1.5,5.2-3.9,5.3-7.6c0.1-3.7-1.6-6.4-4.9-7.9c-4.4-2-8.9-2-13.3,0c-3.3,1.6-5.1,4.3-4.9,8c0.2,3.6,2.1,6.1,5.4,7.5
		C224.9,23.1,226.9,23.4,229,23.3z"/>
	<path style="fill-rule:evenodd;clip-rule:evenodd;" d="M106.6,21.3c-3.1,3.6-6.7,5.9-11.3,6.8c-6.2,1.2-12.1,0.5-17.7-2.7
		c-7.9-4.6-8.5-15.5-1.4-21.2c6.8-5.5,21.9-6.6,29.8,2.8c0.7,0.8,0.8,1-0.4,1.5c-2.9,1.3-5.1,1.5-8-0.6c-4.3-3.3-9.6-3.5-14.6-1.3
		C80,8,78.1,10.5,78,14.1c-0.1,3.7,1.8,6.2,5,7.8c5.4,2.7,12.6,1.7,17-2.5c0.8-0.8,1.4-1,2.4-0.4C103.7,19.8,105.1,20.5,106.6,21.3z
		"/>
	<path style="fill-rule:evenodd;clip-rule:evenodd;" d="M273.3,11.2c3-2.9,6.5-6,9.8-9.3c0.8-0.8,1.6-1.2,2.8-1.1
		c2.1,0.1,4.3,0,6.7,0c-3.4,3.5-6.6,6.8-9.8,10.1c-1.8,1.9-3.6,3.8-5.5,5.6c-0.6,0.6-0.8,1.2-0.8,2.1c0,2.7,0,5.3,0,8
		c0,1-0.2,1.4-1.3,1.4c-1.4-0.1-2.8-0.1-4.2,0c-0.9,0-1.1-0.3-1.1-1.2c0-2.6,0-5.2,0-7.8c0-1.1-0.3-1.9-1.1-2.7
		c-5-5-9.8-10.1-15-15.5c2.9,0,5.5,0,8.1,0c0.6,0,0.8,0.6,1.2,0.9C266.7,5,270.2,8.3,273.3,11.2z"/>
	<path style="fill-rule:evenodd;clip-rule:evenodd;" d="M16,27.9c1.4-2.5,2.7-4.9,4-7.1C23.7,14.5,27.4,8.3,31.1,2
		c0.5-0.9,1.1-1.2,2.1-1.2c1.9,0.1,3.8,0,6,0c-1.7,2.8-3.1,5.3-4.6,7.8c-3.6,6-7.1,12-10.6,18.1c-0.5,0.9-1.1,1.3-2.1,1.2
		C20,27.8,18.1,27.9,16,27.9z"/>
	<path style="fill-rule:evenodd;clip-rule:evenodd;" d="M50.1,14.2c0-4,0-8,0-12c0-1,0.2-1.5,1.4-1.4c1.3,0.1,2.7,0.1,4.1,0
		c0.9,0,1.2,0.2,1.2,1.1c0,8.3,0,16.6,0,24.9c0,0.9-0.3,1.2-1.2,1.1c-1.4-0.1-2.7-0.1-4.1,0c-1,0.1-1.3-0.3-1.3-1.3
		C50.1,22.5,50.1,18.4,50.1,14.2z"/>
	<path style="fill-rule:evenodd;clip-rule:evenodd;" d="M0,0.8c2.4,0,4.6,0,6.7,0c0.7,0,1,0.4,1.3,0.9c3.4,5.7,6.8,11.5,10.2,17.2
		c0.3,0.5,0.4,0.9,0,1.5c-1.1,1.8-2.1,3.6-3.3,5.6C9.9,17.5,5,9.3,0,0.8z"/>
</g>
</svg>
