<svg xmlns="http://www.w3.org/2000/svg" xmlns:xlink="http://www.w3.org/1999/xlink" viewBox="0 0 170 130"><path d="M85.1 88.7h0c-28.8.6-38.7 3.7-40.7 3.8-1.1 1.6.4 3 .4 3s17.5-3.7 40.3-3.6H85c22.8-.1 40.3 3.6 40.3 3.6s1.5-1.2.4-3c-1.9 0-11.9-3.1-40.6-3.8z" fill="#637c8c"/><path d="M88.3 18.2l6.9 1.5v-7.2l-7.1 1.7c.4.6.6 1.2.6 2.1.1.8 0 1.2-.4 1.9zm-3.3.3a2.22 2.22 0 0 0 2.2-2.2 2.22 2.22 0 0 0-2.2-2.2 2.22 2.22 0 0 0-2.2 2.2c0 1.2.9 2.2 2.2 2.2zm1.1-5.8L88 2.9h-7l2.6 9.8c.4-.1.9-.2 1.2-.2.6 0 .9 0 1.3.2z" fill="#fff"/><g fill="#637c8c"><path d="M81.5 40.1v27.8l3.6-.1H85l3.3.1V40.1c-.6-.2-2.4-.6-3.5-.6-.9 0-2.7.5-3.3.6zm3.4 26.2c-1.1 0-2-.9-2-2s.9-2 2-2 2 .9 2 2c-.2 1.1-1 2-2 2zm0-5.3c-1.1 0-2-.9-2-2s.9-2 2-2 2 .9 2 2-.9 2-2 2zm.1-5.4c-1.1 0-2-.9-2-2s.9-2 2-2 2 .9 2 2c-.2 1.2-1 2-2 2zm-2-7.2c0-1.1.9-2 2-2s2 .9 2 2-.9 2-2 2-2-1-2-2zm3.8-5.3c0 1.1-.9 2-2 2s-2-.9-2-2 1-2 2-2c1.1 0 2 .9 2 2zm-3.3 0c0 .7.6 1.4 1.4 1.4s1.4-.6 1.4-1.4-.6-1.4-1.4-1.4-1.4.7-1.4 1.4z"/><use xlink:href="#B"/><path d="M85.1 28.2h-.2c-.6-.2-1.4-.5-2-.5-.5 0-.9.1-1.1.4-.6.7-.4 2.6.5 4.6 1 2.1 2.2 3.3 2.9 3.2.9 0 2.4-1.9 3.1-4 .7-1.9.7-3.5.1-4.1-.6-.3-1.7-.3-3.3.4zm-.2 21.6c.7 0 1.4-.6 1.4-1.4s-.6-1.4-1.4-1.4-1.4.6-1.4 1.4.6 1.4 1.4 1.4z"/><use xlink:href="#B" x="-0.1" y="5.3"/><use xlink:href="#B" x="-0.1" y="10.7"/></g><path d="M85 19.7c1.9 0 3.3-1.5 3.3-3.3S86.8 13 85 13c-1.9 0-3.3 1.5-3.3 3.3s1.4 3.4 3.3 3.4zm0-6.1a2.69 2.69 0 0 1 2.7 2.7 2.7 2.7 0 1 1-5.4 0c0-1.5 1.1-2.7 2.7-2.7zm-4 2.7c0-.7.2-1.5.6-2.1l-6.8-1.9v7.1l6.6-1.4c-.1-.5-.4-.9-.4-1.7z" fill="#fff"/><g fill="#637c8c"><path d="M59.3 58.7h0s-2.4-3.3-4.3-3.2l-.9 1.7c1.1 1.6 5.2 1.5 5.2 1.5zm8.9-6.8l-1.9-.7c-1.5 1.2-.9 5.3-.9 5.3h0c.1 0 3.2-2.7 2.8-4.6zm-8.1 12.8h0c-2.6 3.7 4.8 6.3 5.1 1.7v-.1c2.9 3.5 7.4-2.9 3.2-4.5v-.1c4.2-1.5-.2-7.9-3.2-4.5H65c-.4-4.5-7.7-1.9-5.2 1.7-4.1-.8-4.1 7 .3 5.8zm2.6-6.5c2-.6 4.1.5 4.7 2.4.6 2-.5 4.1-2.4 4.7-2 .6-4.1-.5-4.7-2.4s.4-4.1 2.4-4.7zm6.7 3.7s3.6 2.1 5.3 1.2l.1-2c-1.7-1-5.4.8-5.4.8h0z"/><path d="M64.5 64.1c1.2-.4 2-1.7 1.6-3-.4-1.2-1.7-2-3-1.6-1.2.4-2 1.7-1.6 3s1.8 2.1 3 1.6zm-1.2-3.8c.9-.2 1.7.2 2 1 .2.9-.2 1.7-1 2-.9.2-1.7-.2-2-1s.2-1.7 1-2zm-1.8 8.6c-.1.2-.2.6-.5.9h.2l.3-.9zm-7.3-1.2l1.2 1.6c1.9-.2 3.7-4 3.7-4h0c.1 0-4.1.6-4.9 2.4zm11.4-.3s-1 4 .4 5.5l2-.5c.4-1.9-2.4-5-2.4-5h0zm41.6 0c-.5-.1-.9-.5-1.2-.9.1.7.2 1.9 0 2.9l3.6.4a6.43 6.43 0 0 0-.4-2.2c0-.1 0-.1-.1-.2-.4.1-.7.1-1 .1s-.5-.1-.9-.1zm2.7-18.6c.4.7.4 1.6.4 2.5.6-1 1.2-1.6 2-2-.2-.6-.1-1.7 0-3.1v-.4h-.1c-.1.2-.4.5-.5.7-.9 1.3-1.4 2.1-1.8 2.3z"/><path d="M103.3 55.7c-1 .4-1.9 1.5-2 2.6 0 .6.2 1.4 1.4 1.9.1.1.2.2.2.5 0 .1-.2.2-.4.2-1.1.4-1.4 1.2-1.4 1.7 0 1.1.9 2.4 1.9 2.7.5.2 1.4.2 2.2-.7l.1-.1h.1.1.2c.1.1.1.1.1.2.1 1.2.7 1.7 1.4 1.9 1.1.4 2.5-.1 3.1-1 .4-.5.6-1.2-.1-2.2-.1-.1-.1-.4.1-.5h.1c.1-.1.2-.1.4-.1 1.2.4 1.9-.1 2.2-.6.6-.9.6-2.4 0-3.2-.4-.5-1-1-2.2-.7-.1 0-.2 0-.4-.1h0c-.1-.1-.1-.4-.1-.5.6-1.1.4-1.9 0-2.4-.7-.9-2.1-1.2-3.1-.9-.5.1-1.1.6-1.2 1.7.1.1.1.4 0 .5s-.4.1-.5 0l-.1-.1c-.7-1-1.6-1-2.1-.8zm2.3 4.1c.2-.9 1.2-1.4 2.1-1.1.9.2 1.4 1.2 1.1 2.1-.2.7-.9 1.1-1.6 1.1-.1 0-.4 0-.5-.1-.9-.1-1.4-1.1-1.1-2zm5.6-5c.4.5.6 1 .5 1.6.6-1.1 2.1-3.1 3.6-3.2.2 0 .4.1.4.4 0 .2-.1.4-.4.4-1.1.1-2.4 1.7-3.1 2.9 1.2-.2 3.3-.7 3.8-1.7.1-.1.4-.2.5-.1s.2.4.1.5c-.6 1.4-2.9 1.9-4.1 2.1.5.1.9.5 1.2 1 .4.5.5 1.1.5 1.7.6 0 3.7-.2 4.7-2.1.6-1 .5-2.4-.4-4.1v-.1c0-.4.1-.7.2-1.2.2-.5.4-.9.2-1.1-.1-.1-.5 0-.9 0-.5.1-1 .1-1.4-.1-1.6-1.4-2.9-2-3.8-1.7-1.2.2-2.2 1.6-3.2 4 .7 0 1.2.4 1.6.8z"/><path d="M119.1 59.2c-.7.6-1.6 1-2.5 1.2 1 .2 2 .5 2.7 1.1.5-.5 1.6-.6 2.9-.9 0-.1.1-.2.1-.4-.1 0-.4-.1-.5-.1-1.6-.1-2.5-.5-2.7-.9zm-19.6-4.3c-.6-.7-1.1-1.6-1.4-2.6-.7.1-1.9-.2-3.1-.9-.2-.1-.5-.2-.6-.2.2.2.5.6.7.9 1 1.1 1.5 1.9 1.7 2.4.8-.2 1.8 0 2.7.4zm20 8.2c-.7-1.5-3.1-1.9-4.7-2.1h-.4c-.1.6-.2 1.2-.6 1.6-.4.5-.7.7-1.2.9 1.2.4 3.5 1.1 4 2.5.1.2 0 .4-.2.5s-.4 0-.5-.2c-.4-1-2.4-1.7-3.7-2 .6 1.1 1.7 2.9 2.9 3.1.2 0 .4.2.2.4 0 .1-.1.4-.4.4h0c-1.4-.2-2.6-2-3.2-3.2 0 .5-.1.9-.5 1.4-.4.4-.7.7-1.2 1 0 .1 0 .1.1.2.2.6.6 1.7 1.4 2.7l4.2.6c.4-.2.9-.6 1.2-1 .4-.5 1.1-.5 1.6-.4.4 0 .6 0 .7-.1s0-.5-.1-.9c-.1-.5-.4-1-.1-1.5.7-1.8 1-3.1.5-3.9zm2.3-1.5c-.7.1-1.6.4-2.1.6.1.1.2.4.4.5.2.5.4 1.2.2 2 .5-.9 1-1.9 1.5-3.1zm-27.9-2.5h0l-.1.2c-.4.4-.7.5-1 .6-.4.1-.5.1-.5.5 0 .2.2.4.6.6s.7.5 1 .9v.1c.5 2 1.1 3.1 2 3.6 1 .5 2.6.1 5-1.2-.2-.5-.5-1.1-.5-1.7s.2-1 .5-1.5c-.9.4-2.2 1-3.5 1a3.73 3.73 0 0 1-1.2-.2c-.1-.1-.2-.4-.1-.5s.4-.2.5-.1c1 .5 3-.1 4.1-.7-1.2-.5-3.2-1.1-4.1-.6-.1.1-.4 0-.5-.1s0-.4.1-.5c1.4-.9 3.8.1 5 .6-.4-.5-.5-1-.5-1.6s.2-1.1.5-1.6c-.2-.1-.4-.2-.6-.4-1.4-.7-3-1.6-4.3-1.1-1 .3-1.9 1.6-2.4 3.7zm7.7-10.7c-1.7.7-2.6 1.7-2.7 2.9-.2 2.1 2.2 4.2 2.9 4.7.4-.5.9-.9 1.5-1 .4-.1.7-.1 1.1-.1-1-.9-2.4-2.2-2.4-3.6 0-.2.1-.4.4-.4h0c.2 0 .4.1.4.4 0 1.1 1.5 2.6 2.5 3.3-.1-1.4-.4-3.3-1.4-4-.1-.1-.2-.4-.1-.5s.4-.2.5-.1c1.2.9 1.6 3.2 1.7 4.5.2-.5.7-.9 1.2-1 .6-.2 1.2-.2 1.9 0 .2-.6 1.1-3.6-.2-5.2-.7-.9-2.2-1.2-4.2-.9h0 0c-.4 0-.6-.2-1-.5-.2-.2-.6-.5-.9-.5-.2.1-.2.4-.4.7-.3.5-.4 1-.8 1.3h0z"/><path d="M105.3 69.3c.1-.9 0-2.1-.1-2.9-.6.7-1.2 1.7-1.6 2.7.6 0 1.1.2 1.7.2zM94.8 39c-4 1.1-5.6-1.1-5.7-1.6 0-.6 7.1-8.3.5-12.3-.4-.9-.1-4.2-.1-4.2l8.1 1.5V9.7l-8.2 1.6 2-10.9h-6.2 0H78l3 10.9-8.2-1.6v12.5l8.1-1.5s.1 3.2-.1 4.2c-6.4 4 .5 11.8.5 12.3 0 .6-1.6 2.7-5.7 1.6C72.5 38 19.5 7.1 41.2 73l10-2s-.1 0-.1-.1c-.6-.7.2-1 .5-2.1-2.9-6.8 2.5-6.6 5.1-7.1 0 0-9.1-.1-5.2-6.8.1-.9-.9-1.7-.4-2.4.4-.6 1.9-.1 2.4-.4 5.6-5.8 8.1 2.6 8.1 2.6-1.4-5.7.5-7.3 5-6.9.7 0 1.4-1.4 2-1.2.9.2.6 1.9 1.1 2.4 6.8 3.3.1 8.4.1 8.4 1.2-.6 3.5-2 5.2-1.7h0 0c1.4.2 2.4 1.2 2.7 4.1.1.9 1.7 1.1 1.7 1.9 0 .9-1.6.9-1.6 1.9-1.1 6.9-6.6 3.3-7.9 2.5 1.1.9 1.9 1.6 2.2 2.4h.5l-.4-.6c.5.2 1 .5 1.4.6l6.9-.5V39.5l.2-.1c.1 0 2.4-.7 4-.7s4 .7 4 .7l.2.1v28.4c1.5.1 3.2.1 5.2.4.6-.6 1.4-1.5 1.6-2-.1 0-.2 0-.2-.1-1.1-.5-2-1.9-2.5-4-.1-.2-.4-.4-.7-.5-.5-.2-1-.6-1-1.2 0-.9.5-1.1.9-1.2.2-.1.5-.1.6-.4.6-2.4 1.5-3.7 2.7-4.2h.1c-.1-.4-1-1.4-1.5-2-1.1-1.4-1.5-1.7-1.2-2.1.2-.4.9-.1 2 .4.9.4 2.4 1.1 2.7.9h0v-.4c.1-1.4 1.2-2.6 3.1-3.5.1-.2.2-.5.4-.9.1-.4.2-.7.5-1-5.1.6-7.8 2.1-11.3 2.9-.1-1-.2-1.7 0-2.2 4.2-.6 10.2-3.7 15.1-5.8 35.6-15 17.8 24.7 17.8 24.7s-1.2-.2-3.2-.6c-.1.6-.4 1.4-.9 2.2-.1.1 0 .5.1.9.2.5.4 1.1.1 1.6-.4.5-.9.5-1.4.4-.5 0-.7 0-1 .1l-.7.7c4 .6 8.2 1.4 12.4 2.4 22.1-66.1-31-35.1-33.8-34.4zM75.1 54.8L72 55.9c2.1-2.6 1.4-3 1.7-3 1.6-.4 4-2 4.1-1.7.4.1-2.1 2.8-2.7 3.6zm4.6-6c-5.2-1.1-8.7-3.6-20.7-3.1.6 1 1.5 2.9 1.7 3.3l-.1 3.2c-1.6-3-2.2-2.4-2.1-2.7.1-1.1-.1-2.9-.1-3.8h-.9c-13 .7-11.5 9.7-9.1 15.5 1-.1 2-.4 2.4-.4l3 1.1c-3.3.6-2.9 1.4-3.3 1.2s-1-.4-1.5-.5c.4.9.9 1.6 1.1 2.2l-3.3.6s-18-39.7 17.7-24.8c5 2.1 11 5.2 15.1 5.8.3.7.2 1.4.1 2.4zm-5.1-28.4h0c-.1 0-.2 0-.4-.1-.1-.1-.1-.2-.1-.4v-8.2c0-.1 0-.2.1-.4.1-.1.2-.1.4-.1l7.3 2.1c.1 0 .1.1.2.1.2-.2.5-.4.7-.6h0L80.1 2.3c0-.1 0-.2.1-.4.1-.1.2-.1.4-.1h0 8.1c.1 0 .2 0 .4.1s.1.2.1.4l-2 10.4s0 .1-.1.1c.2.1.5.4.7.6 0 0 .1 0 .1-.1l7.8-2c.1 0 .2 0 .4.1.1.1.1.2.1.4V20c0 .1 0 .2-.1.4-.1 0-.1.1-.2.1h-.1l-7.6-1.6s-.1 0-.1-.1c-.7.9-1.7 1.4-3 1.4s-2.2-.5-3-1.4H82l-7.4 1.6zm10.6 16.4s-.1 0 0 0c-1.2 0-2.6-1.9-3.6-3.7-.5-.9-1.7-4-.4-5.5.7-.7 2-.9 3.7-.2 1.9-.7 3.2-.7 4 0 1.2 1.2.5 3.8.1 4.8-.8 2.2-2.4 4.4-3.8 4.6zM97 68.5c.6-.2 1-.2 1.4-.2.2-.9.7-1.7 1.2-2.4-1 .4-2 .6-2.9.6-.1.5-.6 1.2-1.4 1.9.6 0 1.2 0 1.7.1zm2 .1l3.8.4c.2-1.1 1.1-2.2 1.7-3-.5.1-1.1.1-1.7 0-.5-.2-1-.6-1.4-1-.4.4-2.2 1.9-2.4 3.6zm14-22.9v.5c-.1.9-.2 2.4 0 2.7 1.2-.2 2.7.2 4.5 1.9.1.1.5 0 .9 0 .5-.1 1.1-.1 1.5.2.5.6.1 1.4-.1 1.9-.1.2-.2.6-.2.7 1 1.9 1.1 3.5.4 4.7 0 .1-.1.1-.1.2v.1c.2.2 1.6.6 2.5.9.2 0 .4.1.5.1 1.6-5.6 2-13.2-9.9-13.9zm-9.8.1c.2.1.5.4.7.5.1.1.4.4.5.4 2.2-.4 3.8 0 4.8 1.1.1.1.1.2.2.2h0c.2-.1 1.1-1.4 1.5-2.1.1-.1.1-.2.2-.4l-7.9.3zm-.6 28.7c.2.1.5-.1.9-.4a2.27 2.27 0 0 1 1.1-.6h.1.1c.6 0 1.6 0 2.5-.2l-5.5-.6c.1.2.1.5.1.7.2.6.2.9.7 1.1zm9.2.5c.1.2.2.4.4.6v-1.2-.6c-.4 0-.6-.1-1-.1a3.79 3.79 0 0 0 .6 1.3zm16.6 1.8c-.2-.5-7.2-1.6-15.6-2.9v.5c0 1.7 0 2.4-.4 2.5h-.1c-.4 0-.6-.5-1.1-1.6-.2-.5-.6-1.2-.9-1.7-.5-.1-1-.1-1.5-.2-1.2.9-3 .9-3.8.9h-.1c-.2.1-.5.2-.7.5-.4.2-.7.5-1.2.5-.1 0-.2 0-.4-.1-.9-.4-1-1.1-1.1-1.7 0-.1 0-.4-.1-.5-.2-.1-.5-.2-.7-.5-6.1-.6-11.9-1-15.6-1-2.1 0-4.5 0-6.8.2.4.4.5.7.5.7-.1.1-1-.2-2-.7-1.4.1-2.6.1-4 .2-.6 1.2-2 2.1-2.6 2.6-.6.7-.5 1.9-1.2 2.1-1 .2-1.5-.7-2.1-1.2-3.3.5-4.7-.9-5.1-2.5h-.5c.2 1.5.7 1.4.5 1.6-.7 1.4-1.2 3-1.6 3.8l3.3 1.6-4 3.3-4.8-2.2 4-3.3.6.4c-.1-1.1-.1-3.1-.1-3.7l.5-.9c-9.3 1.2-17 2.6-17.9 3.3-2.2 4.8 2.6 12.6 2.6 12.6s26-3.8 41.5-3.8 39.9 3.8 39.9 3.8 4.9-9.7 2.6-12.6zm-80.7 8.3c-1 .2-2.1-.7-2.5-2.4-.4-1.6 0-3 1-3.2s2.1.7 2.5 2.4c.3 1.5-.1 3-1 3.2zm24.9-3.9c-2.2.2-4.1-.5-4.2-1.6s1.5-2.4 3.7-2.6 4.1.5 4.2 1.6c.1 1.2-1.5 2.3-3.7 2.6zm12.3.2l-4.3-2.9 4.3-2.9 4.2 2.9-4.2 2.9zm12.7-.1c-2.1-.4-3.7-1.5-3.6-2.7.1-1.1 2.1-1.7 4.2-1.5 2.2.4 3.7 1.6 3.6 2.7s-1.9 1.9-4.2 1.5zm12.4 2.2l-3.6-3.7 4.8-1.9 3.6 3.7-4.8 1.9zm13.6-.3c-.5 1.5-1.7 2.5-2.7 2.1-.9-.4-1.2-1.9-.6-3.3s1.7-2.5 2.7-2.1c.8.2 1.2 1.6.6 3.3zM71.4 129c-3.4 0-6-2.3-6-5.3 0-3.4 2.6-4.2 4-4.5-.8-.5-1.3-1.2-1.3-2.3 0-1.4 1.2-2.8 3.3-2.8s3.1 1.7 3.1 2.1c0 .1-.1.2-.2.2-.3 0-.9-1-2.3-1s-2.5.9-2.5 2.1c0 .7.2 1.2.5 1.7.7.1 2.6.9 2.6 1.6 0 .1-.1.2-.2.2-.2 0-.7-.3-1.4-.3-2.1 0-3.3 1.4-3.3 3.5 0 2.5 1.9 4.2 4.3 4.2 2.8 0 4.3-1.9 4.3-3.5 0-1.2-.6-1.9-.9-2.3-.3.2-1.1.7-1.8 1.3-1 .7-1.2 1.4-1.3 1.9-.1.6-.1.8-.2.8-.3 0-.4-.8-.4-1.2 0-2.6 1.5-3.1 3.5-4.4 2.4-1.5 3.1-1.7 3.1-2.4-.1.1-.4.2-.8.2-.7 0-1-.4-1-.9 0-.6.6-1 1.1-1 .8 0 1.3.7 1.3 1.5 0 1.9-1.7 3.1-2.8 3.8.3.5.9 1.2.9 2.4 0 2.8-2.6 4.4-5.6 4.4m-66.1-6.6c-.2-.3-.3-.4-.3-.7 0-.1.1-.2.3-.2s.8.1 1.3.1c2.1 0 3.9-.6 3.9-2.7 0-2.5-2.2-3.9-4.3-3.9-.8 0-1.3.2-1.7.2l-.1 6.4.1 6.4c.3 0 1.5.1 2 .2.1 0 .1.1.1.2s-.1.2-.2.2c-.2 0-1.5-.1-3.1-.1l-3.1.1c-.1 0-.2-.1-.2-.2s.1-.1.1-.2c.4-.2 1.7-.2 2-.2.1-1.5.1-4.4.1-6.4l-.1-6.4c-.3 0-1.6-.1-2-.2-.1 0-.1-.1-.1-.2s.1-.2.2-.2l3.2.1 3.9-.1c2.6 0 5.5.7 5.5 3.4 0 2.9-3 3.8-4.9 4l3.1 4.3c.7.9 1.2 1.7 2 1.7.6 0 .7-.2.9-.2.1 0 .2.1.2.2 0 .3-1.2 1.1-2.5 1.1s-1.9-.9-2.7-1.9l-3.6-4.8zm25.5-.8c0 3.8-3.1 7.3-7.6 7.3-5.3 0-8.1-3-8.1-7.3 0-4.5 3.8-7.3 8.1-7.3 4.8 0 7.6 3.1 7.6 7.3m-2.8 0c0-2.6-1-6.8-4.9-6.8-3.7 0-5.3 3-5.3 6.8 0 2.7 1.1 6.8 5.3 6.8 3.6 0 4.9-3.7 4.9-6.8"/><path d="M42.7 118.5c0 .3 0 .4-.2.4-.3 0-.3-1.3-.3-1.6-1.1-.9-2.5-1.7-4.6-1.7-1.3 0-3.7.3-3.7 2.4 0 2.8 4.5 2 6.9 2.8 1.7.6 2.6 1.8 2.6 3.7 0 2.9-2.2 4.5-5.4 4.5-1.7 0-2.5-.2-4.1-.8-.1.4-.1 1.8-.4 1.8-.1 0-.2-.1-.2-.2l.1-2.8-.1-3c0-.1 0-.2.1-.2.3 0 .4 1.1.4 1.8 1.5 1.2 2.9 2.1 5.3 2.1 1.9 0 3.5-.6 3.5-2.1 0-3.2-5.6-2.1-7.6-3.4-1.1-.7-1.8-2.1-1.8-3.5 0-2.8 2.5-4.3 5.2-4.3 1.7 0 2.5.2 3.9.7.1-1 .2-1.7.4-1.7.1 0 .2.1.2.2s-.2 1.9-.2 2.8v2.1h0 0zm6.8 3.2l.1 6.2c.3 0 .7.1 1 0 2-.1 4.8-.3 6.3-1 .1-.4.1-1.2.2-1.5 0-.1.1-.2.2-.2.2 0 .2.1.2.3s-.1 1-.1 1.7.1 1.6.1 1.9c0 .1-.1.3-.2.3s-.2-.1-.2-.2c-.1-.2-.1-.4-.1-.7-1.5-.2-2.9-.3-6.3-.3l-3.7.1c-.9 0-1.6.1-1.7.1s-.2-.1-.2-.2.1-.1.1-.2c.4-.1 1.7-.2 2-.2.1-1.5.1-4.4.1-6.4l-.1-6.4c-.3 0-1.6-.1-2-.2-.1 0-.1-.1-.1-.2s.1-.2.2-.2.8 0 1.7.1l3.7.1 6.2-.2c0-.3.1-.7.2-.8 0-.1.1-.1.2-.1s.2.1.2.3c0 .3-.1 1.2-.1 1.8 0 .7.1 1.5.1 1.9 0 .2-.1.3-.2.3s-.2-.1-.2-.2a7.72 7.72 0 0 1-.2-1.5c-1.2-.7-4-.9-6.1-1h-1c-.3 1.5-.3 4.3-.3 6.3h1.1c1.3 0 4.4-.3 5.5-.8 0-.3.1-.8.2-1.2 0-.1.1-.1.2-.1s.2.1.2.2c0 .2-.1.9-.1 2l.1 2.2c0 .1 0 .2-.2.2-.1 0-.1 0-.2-.1-.2-.3-.2-1.2-.3-1.6-1.1-.3-4-.6-5.5-.6 0 .1-1 .1-1 .1zm49-1.9c0 .2 0 .3-.2.3-.3 0-.3-1.6-.3-2-.6-.9-1.8-3.2-4.6-3.2-3.8 0-5 3.6-5 6.8 0 3.4 1.7 6.4 5.3 6.4 3.5 0 4.7-2.4 5.2-2.4.1 0 .1 0 .1.1 0 .4-2.1 3.1-5.9 3.1-5.3 0-7.2-3.7-7.2-6.8 0-4.8 3.8-7.6 7.6-7.6 2.6 0 3.7.7 4.7 1.1.2-1.2.2-1.9.6-1.9.1 0 .2.1.2.2s-.3 2.9-.3 3.8l-.2 2.1h0zm7.5 2.7c-.2-.3-.3-.4-.3-.7 0-.1.1-.2.3-.2s.8.1 1.3.1c2.1 0 3.9-.6 3.9-2.7 0-2.5-2.2-3.9-4.3-3.9-.8 0-1.3.2-1.7.2l-.1 6.4.1 6.4c.3 0 1.5.1 2 .2.1 0 .1.1.1.2s-.1.2-.2.2c-.2 0-1.5-.1-3.1-.1l-3.1.1c-.1 0-.2-.1-.2-.2s.1-.1.1-.2c.4-.2 1.7-.2 2-.2.1-1.5.1-4.4.1-6.4l-.1-6.4c-.3 0-1.6-.1-2-.2-.1 0-.1-.1-.1-.2s.1-.2.2-.2l3.2.1 3.9-.1c2.6 0 5.5.7 5.5 3.4 0 2.9-3 3.8-4.9 4l3.1 4.3c.7.9 1.2 1.7 2 1.7.6 0 .8-.2.9-.2s.2.1.2.2c0 .3-1.2 1.1-2.5 1.1-1.2 0-1.9-.9-2.7-1.9l-3.6-4.8zm25.7-.8c0 3.8-3.1 7.3-7.6 7.3-5.3 0-8.1-3-8.1-7.3 0-4.5 3.8-7.3 8.1-7.3 4.8 0 7.6 3.2 7.6 7.3m-2.8 0c0-2.6-1-6.8-4.9-6.8-3.7 0-5.3 3-5.3 6.8 0 2.7 1.1 6.8 5.3 6.8 3.5 0 4.9-3.7 4.9-6.8m14.3-2h0l1-4.3c-.1 0-.8-.1-1-.2-.1 0-.1-.1-.1-.2s.1-.2.2-.2l4.3.1 5.3-.1c.1 0 .2.1.2.2s-.1.1-.1.2c-.3.1-1.3.2-1.6.2-1.6 2.8-4.8 10.2-5.9 12.9-.1.4-.2.8-.6.8-.2 0-.3-.4-.7-1l-2-4.9-2.2 5.5c-.1.3-.1.6-.4.6-.2 0-.2-.2-.4-.4l-5.5-13.1c-.2 0-1.3-.1-1.7-.2-.1 0-.1-.1-.1-.2s.1-.2.2-.2c.3 0 2.2.1 5.3.1 2.9 0 4.8-.1 5-.1.1 0 .2.1.2.2s-.1.1-.1.2c-.2.1-.7.1-.9.1l1.6 4zm-1.2 2.6l-2.8-6.9h-2.8l4.1 10.6 1.5-3.7zm3.8 3.8c.8-1.7 1.6-4 2.5-6.3.8-2.1 1.2-3.7 1.3-4.4h-3.7c-.6 1-1.8 3.8-2.4 5l2.3 5.7zm21-4.2c0-2.6-.2-5.3-.4-6.6-.3 0-1.7-.1-2.2-.2-.1 0-.1-.1-.1-.2s.1-.2.2-.2l3 .1 2.6-.1c.1 0 .2.1.2.2s-.1.1-.1.2c-.4.1-1.5.2-1.8.2-.3 1.3-.6 4-.6 6.6l.1 6.8c0 .1 0 .2-.1.2-.2 0-.2-.1-3.6-3.9l-6.6-7.5c0 5.8.2 8.2.6 10.5.3 0 1.7.1 2.2.2.1 0 .1.1.1.2s-.1.2-.2.2-1.3-.1-3-.1c-1.3 0-2.5.1-2.6.1s-.2-.1-.2-.2.1-.1.1-.2c.4-.1 1.5-.2 1.8-.2.3-2.4.6-4.6.6-11.1-.8-.8-1.5-1.5-2.2-1.7-.3-.1-.6-.1-.6-.3 0-.1.1-.2.3-.2.3 0 1 .1 1.8.1.4 0 1.2-.1 1.7-.1L167 125v-3.1h-.2z"/></g><defs ><path id="B" d="M85 52.4c-.7 0-1.4.6-1.4 1.4s.6 1.4 1.4 1.4 1.4-.6 1.4-1.4-.7-1.4-1.4-1.4z"/></defs></svg>