<?xml version="1.0"?>
<svg xmlns="http://www.w3.org/2000/svg" xmlns:xlink="http://www.w3.org/1999/xlink" xmlns:svgjs="http://svgjs.com/svgjs" version="1.1" width="512" height="512" x="0" y="0" viewBox="0 0 512 512" style="enable-background:new 0 0 512 512" xml:space="preserve" class=""><g><path xmlns="http://www.w3.org/2000/svg" d="m512 256c0 141.386719-114.613281 256-256 256s-256-114.613281-256-256 114.613281-256 256-256 256 114.613281 256 256zm0 0" fill="#f1f1f1" data-original="#ffdb47" style="" class=""/><path xmlns="http://www.w3.org/2000/svg" d="m314.480469 113.417969v65.453125l-16.707031-17h-150.9375v78.875c-.136719-.136719-4.078126-4.066406-4.425782-4.386719-3.054687-3.324219-7.425781-5.421875-12.285156-5.421875-9.214844 0-16.710938 7.496094-16.710938 16.707031v150.941407l111.539063 111.535156c10.179687 1.230468 20.535156 1.878906 31.046875 1.878906 141.386719 0 256-114.613281 256-256 0-10.511719-.648438-20.867188-1.878906-31.046875l-111.539063-111.535156zm0 0" fill="#f1f1f1" data-original="#ffbe4e" style="" class=""/><path xmlns="http://www.w3.org/2000/svg" d="m281.0625 348.457031v50.125h50.128906v-33.417969zm0 0" fill="#ff6358" data-original="#ff6358" style=""/><path xmlns="http://www.w3.org/2000/svg" d="m314.480469 230.9375c-9.210938 0-16.707031 7.496094-16.707031 16.707031v50.683594h-131.167969l55.699219 66.835937h108.886718v-117.519531c0-9.210937-7.496094-16.707031-16.710937-16.707031zm0 0" fill="#84354e" data-original="#84354e" style=""/><path xmlns="http://www.w3.org/2000/svg" d="m163.542969 348.457031v50.125h-50.125v-33.417969zm0 0" fill="#ff855c" data-original="#ff855c" style=""/><path xmlns="http://www.w3.org/2000/svg" d="m130.125 230.9375c9.214844 0 16.710938 7.496094 16.710938 16.707031v50.683594h75.46875v66.835937h-108.886719v-117.519531c0-9.210937 7.492187-16.707031 16.707031-16.707031zm0 0" fill="#ad3950" data-original="#ad3950" style=""/><path xmlns="http://www.w3.org/2000/svg" d="m348.175781 205.871094h16.710938v192.710937h-16.710938zm0 0" fill="#ff6358" data-original="#ff6358" style=""/><path xmlns="http://www.w3.org/2000/svg" d="m314.480469 113.417969h84.101562v100.808593h-84.101562zm0 0" fill="#ffea90" data-original="#ffea90" style=""/><path xmlns="http://www.w3.org/2000/svg" d="m222.304688 161.871094-54.484376 136.457031h129.953126v-136.457031zm0 0" fill="#ad3950" data-original="#ad3950" style=""/><path xmlns="http://www.w3.org/2000/svg" d="m146.835938 161.871094h75.46875v136.457031h-75.46875zm0 0" fill="#d63d52" data-original="#d63d52" style=""/><path xmlns="http://www.w3.org/2000/svg" d="m264.355469 264.910156h-42.050781l-33.417969 33.417969 33.417969 33.417969h75.46875v-33.417969c0-18.425781-14.992188-33.417969-33.417969-33.417969zm0 0" fill="#d63d52" data-original="#d63d52" style=""/><path xmlns="http://www.w3.org/2000/svg" d="m180.253906 264.910156c-18.429687 0-33.417968 14.992188-33.417968 33.417969v33.417969h75.46875v-66.835938zm0 0" fill="#ff4154" data-original="#ff4154" style=""/></g></svg>
