<?xml version="1.0"?>
<svg xmlns="http://www.w3.org/2000/svg" xmlns:xlink="http://www.w3.org/1999/xlink" xmlns:svgjs="http://svgjs.com/svgjs" version="1.1" width="512" height="512" x="0" y="0" viewBox="0 0 512 512" style="enable-background:new 0 0 512 512" xml:space="preserve" class=""><g><g xmlns="http://www.w3.org/2000/svg"><g><g><g><g><g><g><circle cx="256" cy="256" fill="#f1f1f1" r="256" data-original="#ffce00" style="" class=""/></g></g></g></g></g></g><path d="m512 256c0-14.153-1.149-28.039-3.358-41.567l-100.247-100.248s-279.608 258.066-274.789 254.395l142.632 142.632c131.924-10.317 235.762-120.638 235.762-255.212z" fill="#f1f1f1" data-original="#ffa300" style="" class=""/><g><path d="m362.639 362.807-106.639 76.769-106.639-76.77c-19.665-17.127-30.756-40.629-30.756-65.172v-173.849l137.395-63.361 137.395 63.362v173.849c0 24.543-11.091 48.045-30.756 65.172z" fill="#7584f2" data-original="#7584f2" style="" class=""/><path d="m256 60.424v.007 379.136.01l106.639-76.77c19.665-17.127 30.756-40.629 30.756-65.173v-173.849z" fill="#606aea" data-original="#606aea" style=""/><path d="m256 458.059-115.968-83.484-.523-.457c-22.817-19.873-35.903-47.75-35.903-76.484v-183.449l152.394-70.28 152.395 70.28v183.449c0 28.733-13.086 56.611-35.903 76.484l-.523.457zm-97.288-107.002 97.288 70.037 97.288-70.038c15.964-14.139 25.106-33.573 25.106-53.422v-164.248l-122.394-56.445-122.395 56.445v164.248c0 19.849 9.143 39.284 25.107 53.423z" fill="#ffffff" data-original="#ffffff" style=""/><path d="m256 458.059 115.968-83.484.523-.457c22.817-19.873 35.903-47.75 35.903-76.484v-183.449l-152.394-70.28v33.036l122.395 56.445v164.248c0 19.849-9.143 39.284-25.106 53.422l-97.289 70.038z" fill="#e9edf5" data-original="#e9edf5" style=""/></g><g><path d="m317.574 316.987h-123.148v-20.668c0-34.007 27.568-61.574 61.574-61.574 34.007 0 61.574 27.568 61.574 61.574z" fill="#a3d4ff" data-original="#a3d4ff" style="" class=""/></g><g><path d="m256 316.987h61.574v-20.668c0-34.006-27.568-61.574-61.574-61.574z" fill="#87c7ff" data-original="#87c7ff" style=""/></g><g><circle cx="256" cy="184.247" fill="#ffbeaa" r="40.326" data-original="#ffbeaa" style=""/></g><g><path d="m256 224.574c22.272 0 40.326-18.055 40.326-40.327s-18.054-40.326-40.326-40.326z" fill="#faa68e" data-original="#faa68e" style=""/></g></g></g></svg>
