<?xml version="1.0" encoding="utf-8"?>
<svg version="1.1" id="Layer_1" xmlns="http://www.w3.org/2000/svg" xmlns:xlink="http://www.w3.org/1999/xlink" x="0px" y="0px"
	width="100px" height="100px" viewBox="0 0 131.66 131.66" style="enable-background:new 0 0 131.66 131.66;" xml:space="preserve">
<g>
	<path style="fill:#439539;" d="M119.01,118.87c0.63-0.04,1.11-0.59,1.08-1.22c0-0.77-0.38-1.2-1.35-1.2h-1.66v4.3h0.54v-1.88h0.78
		l1.28,1.88h0.61L119.01,118.87z M118.32,118.39h-0.7v-1.45h1c0.46,0,1,0.16,1,0.71S118.91,118.39,118.32,118.39z M119.01,118.87
		c0.63-0.04,1.11-0.59,1.08-1.22c0-0.77-0.38-1.2-1.35-1.2h-1.66v4.3h0.54v-1.88h0.78l1.28,1.88h0.61L119.01,118.87z M118.32,118.39
		h-0.7v-1.45h1c0.46,0,1,0.16,1,0.71S118.91,118.39,118.32,118.39z M118.44,114.89c-2.06,0-3.73,1.67-3.73,3.73
		c0,2.06,1.67,3.73,3.73,3.73c2.06,0,3.73-1.67,3.73-3.73c0,0,0,0,0,0C122.16,116.56,120.5,114.9,118.44,114.89z M118.44,121.81
		c-1.76,0.01-3.19-1.42-3.2-3.18c-0.01-1.76,1.42-3.19,3.18-3.2c1.76-0.01,3.19,1.42,3.2,3.18c0,0,0,0.01,0,0.01
		C121.62,120.38,120.2,121.8,118.44,121.81z M120.09,117.65c0-0.77-0.38-1.2-1.35-1.2h-1.66v4.3h0.54v-1.88h0.78l1.28,1.88h0.61
		l-1.28-1.88C119.64,118.83,120.12,118.28,120.09,117.65L120.09,117.65z M118.32,118.39h-0.7v-1.45h1c0.46,0,1,0.16,1,0.71
		S118.91,118.39,118.32,118.39L118.32,118.39z"/>
	<path style="fill:#439539;" d="M82.64,62.84c0,8.25-6.69,14.94-14.94,14.94c-8.25,0-14.94-6.69-14.94-14.94
		c0-8.23,6.65-14.91,14.88-14.94c8.25-0.03,14.97,6.63,15,14.88C82.64,62.8,82.64,62.82,82.64,62.84z"/>
	<path style="fill:#439539;" d="M65.83,0C29.47,0,0,29.47,0,65.83s29.47,65.83,65.83,65.83s65.83-29.47,65.83-65.83l0,0
		C131.66,29.47,102.19,0,65.83,0z M67.77,91.2c-5.41,0.07-10.72-1.4-15.31-4.26v21.77h-13V62.27c0-15.66,12.69-27.85,28.37-27.85
		c15.68,0,28.39,12.71,28.39,28.39c0,15.68-12.71,28.39-28.39,28.39H67.77z"/>
</g>
</svg>
