<?xml version="1.0"?>
<svg xmlns="http://www.w3.org/2000/svg" xmlns:xlink="http://www.w3.org/1999/xlink" xmlns:svgjs="http://svgjs.com/svgjs" version="1.1" width="512" height="512" x="0" y="0" viewBox="0 0 512 512" style="enable-background:new 0 0 512 512" xml:space="preserve" class=""><g><g xmlns="http://www.w3.org/2000/svg"><g><g><g><g><g><circle cx="256" cy="256" fill="#f1f1f1" r="256" data-original="#ffdc4a" style="" class=""/></g></g></g></g></g><path d="m302.008 507.877c119.428-21.673 209.992-126.198 209.992-251.877 0-9.901-.562-19.67-1.656-29.278l-68.198-68.198-372.292 54.081 98.466 98.466-38.303 24.814z" fill="#f1f1f1" data-original="#ffb600" style="" class=""/><g><path d="m130.017 191.65h251.967v144.236h-251.967z" fill="#414952" data-original="#414952" style=""/></g><g><path d="m256 191.65h125.983v144.236h-125.983z" fill="#23272b" data-original="#23272b" style="" class=""/></g><g><path d="m399.523 190.94h30v164.362h-30z" fill="#333940" data-original="#333940" style="" class=""/></g><g><path d="m69.854 158.524h372.292v54.081h-372.292z" fill="#555a66" data-original="#555a66" style="" class=""/></g><g><path d="m256 158.524h186.146v54.082h-186.146z" fill="#333940" data-original="#333940" style="" class=""/></g><g><path d="m446.531 373.546h-64.016l17.008-75.32h30z" fill="#ffffff" data-original="#ffffff" style=""/></g></g></g></svg>
