<?xml version="1.0"?>
<svg xmlns="http://www.w3.org/2000/svg" xmlns:xlink="http://www.w3.org/1999/xlink" xmlns:svgjs="http://svgjs.com/svgjs" version="1.1" width="512" height="512" x="0" y="0" viewBox="0 0 512 512" style="enable-background:new 0 0 512 512" xml:space="preserve" class=""><g><g xmlns="http://www.w3.org/2000/svg"><g><g><g><g><g><g><g><g><circle cx="256" cy="256" fill="#f1f1f1" r="256" data-original="#7584f2" style="" class=""/></g></g></g></g></g></g></g></g><path d="m172.422 498.046c26.193 9.043 54.312 13.954 83.578 13.954 141.385 0 256-114.615 256-256 0-12.976-.966-25.727-2.829-38.184l-147.213-147.214-197.173 174.351-55.886-55.886-33.48 29.552 24.236 24.236-26.756 155.668z" fill="#f1f1f1" data-original="#4855b7" style="" class=""/><g><path d="m150.042 70.603h211.916v197.277h-211.916z" fill="#b5c4e3" data-original="#ffffff" style="" class=""/></g><g><path d="m256.121 70.602h105.837v197.277h-105.837z" fill="#9eacc9" data-original="#e9edf5" style="" class=""/></g><g><g><path d="m182.832 160.82 34.04 40.773 112.296-15.722v-80.427h-146.336z" fill="#f1f1f1" data-original="#7584f2" style="" class=""/></g><g><path d="m329.168 105.444h-73.047v96.149l73.047-15.722z" fill="#606aea" data-original="#606aea" style="" class=""/></g><g><path d="m182.832 160.82v72.218h146.336v-47.167l-50.772-46.964-57.886 55.502z" fill="#00d65b" data-original="#00d65b" style="" class=""/></g><g><path d="m329.168 185.871-50.773-46.964-22.274 21.358v72.774h73.047z" fill="#06bf51" data-original="#06bf51" style="" class=""/></g><g><circle cx="219.664" cy="142.029" fill="#ffce00" r="20.258" data-original="#ffce00" style=""/></g></g><g><path d="m255.75 345.137c-45.649 0-88.779-6.186-121.444-17.418-48.273-16.6-58.406-38.674-58.406-54.269h30c0 4.419 7.976 15.52 38.161 25.899 29.607 10.181 69.273 15.788 111.689 15.788 42.417 0 82.082-5.607 111.689-15.788 30.186-10.38 38.161-21.48 38.161-25.899h30c0 15.595-10.133 37.669-58.405 54.269-32.665 11.232-75.795 17.418-121.445 17.418z" fill="#9eacc9" data-original="#f2f6fc" style="" class=""/></g><g><path d="m405.601 273.449c0 4.419-7.976 15.52-38.161 25.899-29.521 10.151-69.042 15.754-111.319 15.787v30c45.513-.034 88.498-6.215 121.075-17.417 48.272-16.6 58.405-38.674 58.405-54.269z" fill="#5e6c87" data-original="#dce1eb" style="" class=""/></g><g><path d="m72.899 223.899h36v174.624h-36z" fill="#ffce07" data-original="#ffce07" style="" class=""/></g><g><path d="m402.601 223.899h36v174.624h-36z" fill="#e2b807" data-original="#e2b807" style=""/></g><g><circle cx="90.899" cy="202.419" fill="#ffe108" r="22.411" data-original="#ffe108" style=""/></g><g><circle cx="420.6" cy="202.419" fill="#ffce07" r="22.411" data-original="#ffce07" style="" class=""/></g></g></g></svg>
