<?xml version="1.0" encoding="utf-8"?>
<svg version="1.1" id="Layer_1" xmlns="http://www.w3.org/2000/svg" xmlns:xlink="http://www.w3.org/1999/xlink" x="0px" y="0px"
	 viewBox="0 0 400 80.23" style="enable-background:new 0 0 400 80.23;" xml:space="preserve">
<g id="layer1" transform="translate(-85.586508,-132.78224)">
	<path id="path297" style="fill:#B0B0B3;" d="M214.21,167.9h16.16v22.17h17.23v-55.96h-17.23v19.44h-16.16v-19.44h-17.23v55.96
		h17.23V167.9z M167.02,191.41c16.38,0,25.55-11.99,25.55-23.28h-16.93c-1.02,5.25-3.28,9.32-9.09,9.32
		c-8.07,0-10.66-7.84-10.66-15.35c0-7.53,2.59-15.37,10.66-15.37c7.13,0,8.71,6.19,9.01,8.22h16.77
		c-1.48-14.02-9.94-22.09-25.31-22.17c-17.25,0-28.37,11.68-28.37,29.32C138.65,178.63,148.91,191.41,167.02,191.41 M88.8,213.01
		h396.79v-10.13H88.8L88.8,213.01z M458.08,175.73l26.26-29.08v-12.54h-47.26v14.35h24.53l-26.01,28.14v13.48h50v-14.35H458.08z
		 M111.68,179.02c-3.21,0-6.97-0.71-8.24-4.07c-0.38-1.02-0.61-2.27-0.61-3.69H85.59c0.15,17.87,18.25,20.15,24.61,20.15
		c12.46,0,25.86-4.7,25.86-19.29c0-10.26-7.84-13.95-15.76-16.14c-7.91-2.19-15.9-3.05-16.21-7.05c0-3.13,3.84-3.76,6.18-3.76
		c1.73,0,3.69,0.38,5.09,1.42c1.42,0.94,2.37,2.34,2.04,4.46h16.31c-0.48-13.64-11.2-18.27-23.36-18.27
		c-11.52,0-22.57,5.57-22.57,18.5c0,11.28,10.11,13.71,18.98,16.23c9.62,2.74,12.06,3.53,12.06,6.43
		C118.81,178.08,114.5,179.02,111.68,179.02 M395.94,147.44h8.07c6.59,0,8.54,2.03,8.54,5.57c0,5.01-4.38,5.55-7.6,5.55h-9.01
		V147.44z M395.94,170.56h9.16c6.83,0,7.3,5.57,7.76,10.89c0.24,2.91,0.56,5.81,1.42,8.63h17.25c-1.57-2.59-1.65-9.24-1.88-11.99
		c-0.63-6.97-3.53-12.16-8.24-13.95c5.73-2.11,8.39-8.24,8.39-14.03c0-10.58-8.47-15.98-18.25-15.98h-32.85v55.96h17.25V170.56z
		 M282.57,190.08l5.88-34.1h0.16l6.03,34.1h16.77l15.68-55.96h-17.02l-6.98,35.04h-0.15l-6.59-35.04h-15.21l-6.74,34.56h-0.15
		l-6.82-34.56h-16.93l15.21,55.96H282.57z M347.88,152.85h0.15l5.01,17.25h-10.58L347.88,152.85z M336.19,190.08l2.52-7.99h17.79
		l2.35,7.99h17.86l-20.38-55.96h-16.85l-20.61,55.96H336.19z"/>
</g>
</svg>
