<?xml version="1.0" encoding="utf-8"?>
<svg version="1.1" id="Layer_1" xmlns="http://www.w3.org/2000/svg" xmlns:xlink="http://www.w3.org/1999/xlink" x="0px" y="0px"
	width="100px" height="100px" viewBox="0 0 66.7 66.7" style="enable-background:new 0 0 66.7 66.7;" xml:space="preserve">
<g>
	<circle style="fill:#E8E8E8;" cx="33.3" cy="33.3" r="33.3"/>
	<circle style="fill:#FFFFFF;" cx="33.3" cy="33.3" r="32.7"/>
	<g>
		<path style="fill:#314B54;" d="M9.5,33.6c0,0,0,0.1,0,0.1v0.1c0,0,0,0.1,0,0.1v0.1c0,0.3-0.1,0.5-0.1,0.7c0,0.1-0.1,0.1-0.1,0.2
			l-0.1,0.1c-0.1,0.1-0.2,0.3-0.3,0.4c-0.1,0.1-0.2,0.1-0.4,0.2c-0.1,0-0.1,0.1-0.2,0.1c-0.3,0.1-0.5,0.1-0.8,0
			c-0.1,0-0.4-0.1-0.7-0.2c-0.1,0-0.2-0.1-0.3-0.1l-0.1-0.2c-0.1,0-0.2-0.1-0.2-0.1s-0.1-0.1-0.1-0.2V35c0-0.7,0.1-1.1,0.1-1.1
			l0.1-0.3c0-0.2,0.1-0.3,0.1-0.3c0-0.1,0-0.4,0-0.6c0-0.1,0-0.5,0-1.1c0-0.1,0-0.1,0-0.3c0-0.1,0-0.1,0-0.1s0-0.1,0-0.1
			c0-0.1-0.1-0.1-0.1-0.2c-0.1,0-0.1-0.1-0.2-0.1c0,0-0.1,0-0.1-0.1v-0.1c0,0,0,0,0.1,0s0.1,0,0.1-0.1c0.1,0,0.2-0.1,0.3-0.1
			c0.1,0,0.1-0.1,0.3-0.1c0.1-0.1,0.1-0.1,0.2-0.1L7,30.1c0.1-0.1,0.3-0.1,0.3,0c0,0,0.1,0.1,0.1,0.2v0.2v0.2c0,0.1-0.1,0.3-0.1,0.3
			c0,0.1-0.1,0.1-0.1,0.3c0,0.1,0,0.2,0,0.3s0,0.3,0,0.3v0.1c0,0.1,0,0.1,0,0.1c0,0,0,0.1,0,0.1v0.1c0,0.1,0,0.1,0,0.1v-0.1
			c0.1-0.1,0.3-0.3,0.7-0.3l0,0l0,0C7.9,31.9,7.9,32,8,32s0.1,0.1,0.2,0.1l0.2,0.1l0.1,0.1c0,0,0,0,0.1,0c0,0,0.1,0,0.1,0.1
			c0,0,0,0,0.1,0.1c0.2,0.1,0.3,0.2,0.4,0.4c0.1,0.2,0.2,0.4,0.3,0.7C9.5,33.5,9.5,33.6,9.5,33.6z M8.4,35.2
			c0.1-0.3,0.3-0.6,0.3-0.9v-0.2c0-0.1-0.1-0.2-0.1-0.3s-0.1-0.1-0.1-0.2c0-0.1,0-0.1-0.1-0.1c0,0,0-0.1,0-0.1c0,0,0-0.1-0.1-0.1
			s-0.1-0.1-0.1-0.1c-0.1-0.2-0.1-0.3-0.2-0.3S8,32.7,7.9,32.7c0,0-0.1,0-0.1,0c-0.1,0-0.1,0-0.1,0c-0.1,0-0.2,0.1-0.3,0.2
			c-0.1,0,0,0.1,0,0.1v0.1v0.5V34c0,0.1-0.1,0.1-0.1,0.1c0,0.1,0,0.1,0,0.3c0,0.1,0,0.3,0,0.3c0,0.2,0,0.3,0,0.4v0.1
			c0,0-0.1,0,0,0.1s0,0,0,0v0.1h0.1c0.1,0.1,0.2,0.1,0.3,0.1c0.3,0.1,0.5,0,0.6-0.2C8.3,35.3,8.4,35.2,8.4,35.2z M12,35.8
			c-0.1,0-0.1,0-0.2,0l-0.2-0.1c-0.1,0-0.2-0.1-0.2-0.1c-0.2-0.1-0.4-0.2-0.5-0.3c-0.1-0.1-0.1-0.2-0.3-0.3c0-0.1-0.1-0.1-0.1-0.2
			l-0.1-0.2c0-0.1,0-0.1,0-0.1s0-0.1,0-0.1v-0.1c0-0.1,0-0.3,0.1-0.5l0,0l0,0l0,0l0.1-0.2l0.1-0.2c0-0.1,0.1-0.1,0.1-0.1
			c0.1-0.1,0.1-0.1,0.1-0.2l0.2-0.2c0.2-0.1,0.4-0.4,0.7-0.5c0,0,0-0.1,0.1-0.1h0.1l0.2,0.1c0,0,0.1,0.1,0.2,0.1
			c0.1,0,0.1,0,0.2,0.1c0.2,0,0.3,0.1,0.4,0.1c0,0,0.1,0,0.1,0.1l0.1,0.1l0.1,0.1c0,0,0,0,0,0.1v0.1c0.1,0.1,0.1,0.2,0.3,0.4
			c0,0.1,0.1,0.2,0.1,0.4c0,0,0,0,0,0.1c0,0,0-0.1-0.1-0.1h-0.1h-0.1c-0.1,0-0.1,0-0.3,0h-0.3h-0.1l0,0c-0.1,0-0.3,0-0.5,0
			c-0.1,0-0.1,0-0.1,0h-0.2c0,0-0.1,0.1-0.1,0.1l0,0c0-0.1,0-0.1,0.1-0.1h0.1H12c0.1,0,0.1,0,0.2,0h0.1h0.1h0.1c0.1,0,0.1,0,0.1-0.1
			c0,0,0-0.1,0-0.2c0-0.1-0.1-0.3-0.1-0.4c-0.1-0.1-0.2-0.2-0.3-0.2c-0.1,0-0.1,0-0.1,0c-0.1,0-0.1,0.1-0.1,0.1
			c-0.1,0.1-0.3,0.3-0.3,0.5c0,0.1-0.1,0.1-0.1,0.3c0,0.1,0,0.1,0,0.2c0,0.1,0,0.1,0,0.2c0,0.1,0,0.3,0,0.4c0.1,0.2,0.1,0.3,0.1,0.5
			c0.1,0.2,0.2,0.3,0.4,0.4c0,0,0.1,0,0.1,0.1c0.1,0.1,0.2,0.1,0.4,0.1c0.2,0,0.4,0,0.6-0.2c0.1-0.1,0.3-0.2,0.3-0.3
			c0.1-0.1,0.1-0.1,0.1-0.1c0,0,0.1,0,0.1,0c0.1,0,0.1,0.1,0.1,0.1s-0.1,0.2-0.1,0.3c-0.1,0.1-0.1,0.3-0.2,0.3
			c-0.1,0.1-0.3,0.3-0.5,0.4C12.5,35.8,12.2,35.8,12,35.8L12,35.8z M15.3,35.8c-0.2,0-0.4,0-0.6-0.1c-0.2-0.1-0.3-0.2-0.3-0.4V35
			c0-0.1,0-0.2,0.1-0.3c0.1-0.1,0.3-0.3,0.5-0.4l0.7-0.3h0.1H16c0.1,0,0,0,0.1,0s0,0,0-0.1v-0.1v-0.1v-0.2v-0.1v-0.1
			c0-0.1,0.1-0.1,0.1-0.2c0-0.1,0-0.1,0-0.1c0-0.1,0-0.2,0-0.3c0-0.1-0.1-0.2-0.1-0.2c-0.1-0.1-0.1-0.1-0.2-0.1s-0.1,0-0.2,0.1
			c-0.1,0-0.1,0.1-0.1,0.1s-0.1,0.2-0.1,0.3s0,0.2-0.1,0.3c0,0.1-0.1,0.1-0.1,0.1c-0.1,0.1-0.2,0.1-0.3,0c-0.1,0-0.1-0.1-0.2-0.1
			s-0.1-0.1,0-0.3v-0.1V33v-0.1c0,0,0.1-0.1,0.1-0.2c0.1-0.1,0.2-0.1,0.3-0.2h0.1h0.1c0,0,0.1,0,0.1-0.1c0,0,0,0,0.1,0h0.1
			c0,0,0.1,0,0.3,0l0.4,0.1c0.2,0.1,0.4,0.1,0.5,0.3c0.1,0.1,0.3,0.3,0.3,0.5c0,0.1,0.2,0.2,0.2,0.3V34v0.3v0.1v0.1c0,0,0,0,0,0.1
			v0.2c0,0-0.1,0.1-0.1,0.1S17.1,35,17.1,35c0,0.1-0.1,0.3,0,0.5c0,0.1,0,0.1,0.1,0.2c0.1,0.1,0.1,0.1,0.2,0c0,0,0,0,0.1,0l0,0h0.1
			c0,0,0.1,0.1,0,0.1c-0.1,0.1-0.2,0.2-0.3,0.3c-0.2,0.1-0.4,0.1-0.7-0.1c-0.1-0.1-0.2-0.1-0.3-0.3c-0.1-0.1-0.1-0.3-0.1-0.5v-0.5
			c0,0,0-0.1,0-0.1l0,0l0,0l0,0c-0.1,0-0.1,0-0.1,0c0,0-0.1,0-0.1,0.1l-0.1,0.1c-0.1,0-0.1,0.1-0.2,0.1c-0.1-0.4-0.2-0.3-0.2-0.3
			c-0.1,0.1-0.1,0.3,0,0.5c0,0.1,0.1,0.1,0.1,0.2c0.1,0.1,0.1,0.1,0.3,0.1c0.1,0,0.1,0,0.3-0.1c0,0,0,0,0.1,0c0,0,0,0,0,0.1
			s0,0.1-0.1,0.2C15.8,35.7,15.6,35.8,15.3,35.8L15.3,35.8z"/>
		<path style="fill:#314B54;" d="M20.9,32.7c0,0.1,0,0.2,0,0.3s-0.1,0.1-0.1,0.2c-0.1,0.1-0.2,0.1-0.3,0.1c-0.1,0-0.1,0-0.3-0.1
			L20.1,33c-0.1-0.1-0.1-0.1-0.1-0.1c-0.1,0-0.1,0-0.1,0c0,0-0.1,0.1-0.1,0.1c-0.1,0.1-0.1,0.1-0.1,0.2c0,0.1-0.1,0.2-0.1,0.3
			s-0.1,0.1-0.1,0.1v0.1v0.1c0,0.1,0.1,0.3,0.1,0.4s0.1,0.2,0,0.3c0,0,0,0.1,0,0.1s-0.1,0.1-0.1,0.1c0,0.1-0.1,0.3-0.1,0.5l0,0l0,0
			c0,0.1,0.1,0.2,0.1,0.2c0.1,0.1,0.2,0.1,0.3,0.1h0.1h0.1c0,0,0,0.1,0,0.2c0,0.1,0,0.3-0.1,0.3l0,0l0,0h-0.2h-0.1h-0.1h-0.1h-0.1
			H19h-0.3c0,0-0.1,0-0.1,0h-0.2h-0.1h-0.1h-0.1l0,0l0,0c0,0-0.1-0.2-0.1-0.3v-0.1c0,0,0-0.1,0.1-0.1l0.1-0.1c0.1,0,0.1-0.1,0.2-0.1
			s0.1-0.1,0.2-0.2l0.1-0.3l0,0c0-0.1-0.1-0.1-0.1-0.1s0-0.2-0.1-0.3c0-0.1,0-0.1,0-0.1c0-0.1,0-0.2,0-0.3v0.1c0-0.1,0-0.2,0-0.2
			h0.1v-0.6c0-0.1-0.1-0.1-0.1-0.2L18.5,33c0-0.1-0.1-0.1-0.1-0.2c-0.1,0-0.1-0.1-0.2-0.1c0,0-0.1,0-0.1-0.1v-0.1c0,0,0,0,0.1,0
			s0.1,0,0.1-0.1l0.3-0.1l0.3-0.1l0.2-0.1l0.1-0.1c0.1-0.1,0.1-0.1,0.1,0c0,0-0.1,0.1-0.1,0.2v0.2v0.2l0.1,0.1h0.1
			c0.1-0.2,0.2-0.4,0.3-0.5c0,0,0.1,0,0.1-0.1c0,0,0.1-0.1,0.1-0.1l0.2-0.1c0.1-0.1,0.3-0.1,0.4,0c0.1,0.1,0.2,0.1,0.3,0.2
			c0,0.1,0.1,0.1,0.1,0.1v0.1C20.9,32.6,20.9,32.7,20.9,32.7L20.9,32.7z M22.7,35.8c0,0-0.3,0-0.3-0.1l0,0c-0.4-0.2-0.7-0.5-0.8-0.9
			c-0.1-0.2-0.1-0.5-0.1-0.9c0-0.1,0.1-0.3,0.1-0.5c0.1-0.1,0.1-0.2,0.1-0.3c0.1-0.1,0.1-0.2,0.1-0.2c0.1-0.1,0.3-0.3,0.3-0.3
			s0.1-0.1,0.3-0.1c0,0,0.1,0,0.1-0.1l0.1-0.1c0.1,0,0.1,0,0.2,0s0.1,0,0.2,0c0,0,0,0,0.1,0s0.1,0.1,0.2,0.1c0.1,0,0.3,0.1,0.4,0.1
			c0,0,0,0,0.1,0s0,0,0-0.1s0-0.1,0-0.1v-0.9c0-0.1,0-0.1,0-0.1c0-0.2-0.1-0.3-0.2-0.3c-0.1,0-0.1-0.1-0.2-0.1s-0.1,0-0.1,0
			s-0.1,0-0.1-0.1l0,0l0,0c0-0.1,0.1-0.1,0.1-0.1c0.1,0,0.2-0.1,0.3-0.1c0.1,0,0.2-0.1,0.3-0.1c0.1-0.1,0.2-0.1,0.3-0.1l0.3-0.1
			c0.1,0,0.1-0.1,0.2-0.1c0,0,0.1,0,0.1,0.1s0.1,0.1,0.1,0.2c0,0.1,0,0.2,0,0.3s0,0.3,0,0.4s0,0.3,0,0.4c0,0.1,0,0.1,0,0.1
			s0,0.1,0,0.1c0,0.1,0,0.4,0,1.1c0,0,0,0.1,0,0.1s0,0.1,0,0.1c0,0.1,0,0.1,0,0.3c0,0.1-0.1,0.1-0.1,0.3l0,0.1v0.5
			c0,0.1,0.1,0.1,0.1,0.2c0,0.1,0.1,0.3,0.2,0.3c0.1,0,0.1,0.1,0.2,0.1s0.1,0.1,0.1,0.1s0,0.1-0.1,0.1s-0.1,0.1-0.2,0.1
			s-0.1,0.1-0.3,0.1c-0.1,0.1-0.3,0.1-0.4,0.1h-0.1c-0.1,0-0.1,0-0.1,0c-0.1,0-0.1-0.1-0.1-0.1c0,0,0-0.1-0.1-0.1
			c0-0.1-0.1-0.1-0.1-0.2l0,0l0,0l0,0c-0.1,0.1-0.2,0.3-0.4,0.5c-0.1,0.1-0.2,0.2-0.3,0.2H22.7L22.7,35.8z M23.3,35.3
			c0.1,0.1,0.3,0,0.4-0.1c0.1-0.1,0.3-0.3,0.3-0.5c0-0.1,0-0.3,0-0.6v-0.1V34c0-0.1,0.1-0.2,0.1-0.4s0-0.3,0-0.3v-0.1v-0.1v-0.1
			c0-0.1-0.1-0.2-0.1-0.2c-0.1-0.1-0.2-0.2-0.3-0.2c-0.1,0-0.1-0.1-0.2-0.1h-0.2l0,0c-0.2,0.1-0.3,0.1-0.4,0.2
			c-0.1,0.1-0.2,0.2-0.3,0.3v0.1c0,0.1-0.1,0.2-0.1,0.5c0,0,0,0.1,0,0.2c0,0.1,0,0.1,0,0.2l0.1,0.3c0,0.1,0.1,0.1,0.1,0.2
			c0.1,0.3,0.3,0.5,0.4,0.5C22.9,35.2,23.1,35.3,23.3,35.3L23.3,35.3z M26.8,35.8c-0.3-0.1-0.6-0.1-0.7-0.2c0,0,0,0-0.1,0v-0.1
			c0-0.1,0-0.1,0-0.1c0-0.1,0-0.1,0-0.3V35v-0.3c0,0,0-0.1,0.1-0.1h0.1c0.1,0,0.1,0.1,0.1,0.1c0,0.1,0,0.1,0,0.1
			c0,0.1,0.1,0.3,0.3,0.5c0.1,0.1,0.3,0.3,0.5,0.3c0,0,0,0,0.1,0s0.2,0,0.3,0s0.1,0,0.2-0.1c0.1-0.1,0.1-0.1,0.1-0.1s0-0.1,0-0.2
			c0-0.1-0.1-0.2-0.1-0.3c-0.1-0.1-0.2-0.1-0.3-0.3l-0.3-0.3l-0.3-0.1c-0.3-0.1-0.4-0.3-0.5-0.6c0-0.1-0.1-0.2-0.1-0.3
			s0-0.3,0.1-0.4c0-0.1,0.1-0.1,0.1-0.2c0.1-0.1,0.1-0.1,0.1-0.1c0.3-0.2,0.5-0.3,0.9-0.3c0.2,0,0.5,0,0.8,0.1
			c0.1,0,0.1,0.1,0.1,0.1s0,0.1,0.1,0.1c0,0.1,0,0.1,0,0.2c0,0,0,0.1,0,0.1v0.1c0,0,0,0.1,0,0.1v0.1c0,0,0,0-0.1,0s-0.1,0-0.1-0.1
			l-0.1-0.1c0-0.1,0-0.1-0.1-0.1c0-0.1-0.1-0.1-0.1-0.1l-0.1,0c-0.1-0.1-0.1-0.1-0.3-0.2c-0.1-0.1-0.3-0.1-0.3,0
			c-0.1,0-0.1,0-0.1,0.1s-0.1,0.1-0.2,0.3c0,0.1,0,0.1,0.1,0.3c0.1,0.1,0.2,0.2,0.3,0.2c0,0,0.1,0,0.1,0.1l0.3,0.2h0.1
			c0,0,0.2,0.1,0.5,0.4c0.2,0.1,0.3,0.4,0.4,0.7c0,0.2,0,0.4-0.1,0.7l-0.1,0.1L28,35.6l-0.1,0.1c0,0-0.1,0.1-0.1,0.1
			C27.5,35.8,27.1,35.9,26.8,35.8L26.8,35.8z M39.3,35.8c0,0-0.3,0-0.4-0.1l0,0c-0.4-0.2-0.7-0.5-0.8-0.9c-0.1-0.2-0.1-0.5-0.1-0.9
			c0-0.1,0.1-0.3,0.1-0.5c0.1-0.1,0.1-0.2,0.1-0.3c0.1-0.1,0.1-0.2,0.1-0.2c0.1-0.1,0.3-0.3,0.3-0.3s0.1-0.1,0.3-0.1
			c0,0,0.1,0,0.1-0.1l0.1-0.1c0.1,0,0.1,0,0.2,0c0.1,0,0.1,0,0.2,0c0,0,0,0,0.1,0s0.1,0.1,0.2,0.1c0.1,0,0.3,0.1,0.4,0.1
			c0,0,0,0,0.1,0s0,0,0-0.1s0-0.1,0-0.1v-0.9c0-0.1,0-0.1,0-0.1c0-0.2-0.1-0.3-0.2-0.3c-0.1,0-0.1-0.1-0.2-0.1c-0.1,0-0.1,0-0.1,0
			s-0.1,0-0.1-0.1l0,0l0,0c0-0.1,0.1-0.1,0.1-0.1c0.1,0,0.2-0.1,0.3-0.1s0.2-0.1,0.3-0.1c0.1-0.1,0.2-0.1,0.3-0.1l0.3-0.1
			c0.1,0,0.1-0.1,0.2-0.1c0,0,0.1,0,0.1,0.1s0.1,0.1,0.1,0.2c0,0.1,0,0.2,0,0.3s0,0.3,0,0.4s0,0.3,0,0.4c0,0.1,0,0.1,0,0.1
			s0,0.1,0,0.1c0,0.1,0,0.4,0,1.1c0,0,0,0.1,0,0.1s0,0.1,0,0.1c0,0.1,0,0.1,0,0.3c0,0.1-0.1,0.1-0.1,0.3l0.1,0.1v0.5
			c0,0.1,0.1,0.1,0.1,0.2c0,0.1,0.1,0.3,0.1,0.3s0.1,0.1,0.2,0.1c0.1,0,0.1,0.1,0.1,0.1s0,0.1-0.1,0.1s-0.1,0.1-0.2,0.1
			c-0.1,0-0.1,0.1-0.3,0.1c-0.1,0.1-0.3,0.1-0.4,0.1h-0.1c-0.1,0-0.1,0-0.1,0c-0.1,0-0.1-0.1-0.1-0.1c0,0,0-0.1-0.1-0.1
			c0-0.1-0.1-0.1-0.1-0.2l0,0l0,0l0,0c-0.1,0.1-0.2,0.3-0.4,0.5c-0.1,0.1-0.2,0.2-0.3,0.2H39.3L39.3,35.8z M39.9,35.3
			c0.1,0.1,0.3,0,0.4-0.1c0.1-0.1,0.3-0.3,0.3-0.5c0-0.1,0-0.3,0-0.6v-0.1V34c0-0.1,0.1-0.2,0.1-0.4s0-0.3,0-0.3v-0.1v-0.1v-0.1
			c0-0.1-0.1-0.2-0.1-0.2c-0.1-0.1-0.2-0.2-0.3-0.2s-0.1-0.1-0.2-0.1h-0.2l0,0c-0.2,0.1-0.3,0.1-0.4,0.2c-0.1,0.1-0.2,0.2-0.3,0.3
			v0.1c0,0.1-0.1,0.2-0.1,0.5c0,0,0,0.1,0,0.2c0,0.1,0,0.1,0,0.2l0.1,0.3c0,0.1,0.1,0.1,0.1,0.2c0.1,0.3,0.3,0.5,0.4,0.5
			C39.6,35.2,39.8,35.3,39.9,35.3L39.9,35.3z M43.7,35.8c-0.2,0-0.4,0-0.6-0.1c-0.2-0.1-0.3-0.2-0.3-0.4V35c0-0.1,0-0.2,0.1-0.3
			c0.1-0.1,0.3-0.3,0.5-0.4l0.7-0.3h0.1h0.1c0.1,0,0.2,0,0.3,0s0.2,0,0.2-0.1v-0.1v-0.1v-0.2v-0.1v-0.1c0-0.1-0.1-0.1-0.1-0.2
			c0-0.1-0.1-0.1-0.1-0.1c0-0.1,0-0.2-0.1-0.3c0-0.1-0.1-0.2-0.1-0.2c-0.1-0.1-0.1-0.1-0.2-0.1c-0.1,0-0.1,0-0.2,0.1
			c-0.1,0-0.1,0.1-0.1,0.1s-0.1,0.2-0.1,0.3s0,0.2-0.1,0.3c0,0.1-0.1,0.1-0.1,0.1c-0.1,0.1-0.2,0.1-0.3,0c-0.1,0-0.1-0.1-0.2-0.1
			c-0.1-0.1-0.1-0.1,0-0.3v-0.1V33v-0.1c0,0,0.1-0.1,0.1-0.2c0.1-0.1,0.2-0.1,0.3-0.2h0.1h0.1c0,0,0.1,0,0.1-0.1c0,0,0,0,0.1,0H44
			c0,0,0.1,0,0.3,0l0.4,0.1c0.2,0.1,0.4,0.1,0.5,0.3c0.1,0.1,0.1,0.3,0.2,0.5c0,0.1,0,0.2,0,0.3V34v0.3v0.1v0.1v0.1v0.2
			c0,0,0,0.1,0,0.1s0,0.1,0,0.1c0,0.1,0,0.3,0,0.5c0,0.1,0.1,0.1,0.1,0.2c0.1,0.1,0.1,0.1,0.2,0l0,0l0,0h0.1c0,0,0.1,0.1,0,0.1
			c-0.1,0.1-0.2,0.2-0.3,0.3c-0.2,0.1-0.4,0.1-0.7-0.1c-0.1-0.1-0.2-0.1-0.3-0.3c-0.1-0.1-0.1-0.3-0.1-0.5v-0.5c0,0,0-0.1,0-0.1l0,0
			l0,0l0,0c-0.1,0-0.1,0-0.1,0c0,0-0.1,0-0.1,0.1l-0.1,0.1c-0.1,0-0.1,0.1-0.2,0.1c-0.1,0.1-0.1,0.1-0.1,0.2c-0.1,0.1-0.1,0.3,0,0.5
			C43.6,35.7,43.7,35.7,43.7,35.8c0.1,0.1,0.2,0.1,0.3,0.1c0.1,0,0.1,0,0.3-0.1c0,0,0,0,0.1,0c0,0,0,0,0,0.1s0,0.1-0.1,0.2
			C44.1,35.7,43.9,35.8,43.7,35.8L43.7,35.8z"/>
		<path style="fill:#314B54;" d="M48.1,35.5L48.1,35.5L48.1,35.5c0.1,0.1,0.1,0.2,0.1,0.3c0,0.1,0,0.3-0.1,0.3l0,0l0,0h-0.1h-0.1
			h-0.1h-0.2c-0.1,0-0.1-0.1-0.1-0.1V36c-0.1-0.1-0.1,0-0.1,0h-0.1h-0.1H47h-0.1h-0.2h-0.1h-0.1h-0.1l0,0l0,0c0,0-0.1-0.2-0.1-0.3
			v-0.1c0,0,0-0.1,0.1-0.1l0.1-0.1c0.1,0,0.1-0.1,0.2-0.1c0.1-0.1,0.1-0.1,0.1-0.2l-0.1-0.1L46.7,35v-0.5v-0.6v-0.5l0,0
			c0,0,0.1-0.1,0.1-0.1v-0.1c0-0.1-0.1-0.1-0.1-0.2c-0.1,0-0.1-0.1-0.2-0.1c0,0-0.1,0-0.1-0.1c0,0,0-0.1,0.1-0.1h0.1
			c0.1,0,0.1,0,0.1-0.1l0.3-0.1l0.3-0.1l0.2-0.1l0.1-0.1c0.1-0.1,0.3-0.1,0.3,0c0,0,0.1,0.1,0.1,0.2v0.2v0.2c0,0.1-0.1,0.3-0.1,0.3
			l-0.1,0.3l-0.1,0.3c0,0.1,0,0.1-0.1,0.3c0,0,0,0.1,0,0.1s0,0.1,0,0.1s0.1,0.1,0.1,0.1s0.1,0.1,0.1,0.1v0.3V35h-0.1
			c0,0-0.1,0-0.1,0.1s0,0.1,0.1,0.2C47.9,35.5,47.9,35.5,48.1,35.5L48.1,35.5z M46.9,31.6C46.9,31.6,46.9,31.5,46.9,31.6
			c-0.2-0.3-0.3-0.4-0.2-0.5v-0.1c0-0.1,0-0.3,0.1-0.3s0.1-0.1,0.3-0.1l0.1-0.1c0.1,0,0.3,0.1,0.4,0.2c0.1,0.2,0.1,0.4,0,0.7
			c-0.1,0.1-0.3,0.3-0.5,0.3C47.1,31.7,47.1,31.6,46.9,31.6L46.9,31.6z M49.7,35.8c-0.3-0.1-0.6-0.1-0.7-0.2h-0.2l-0.1-0.1v-0.1
			c0-0.1,0-0.1,0-0.3V35v-0.3c0,0,0.1-0.1,0.2-0.1H49c0.1,0,0.1,0.1,0.1,0.1s0.1,0.1,0.1,0.1c0,0.1,0.1,0.3,0.3,0.5
			c0.1,0.1,0.3,0.3,0.5,0.3c0,0,0,0,0.1,0s0.2,0,0.3,0s0.1,0,0.2-0.1c0.1-0.1,0.1-0.1,0.1-0.1s0-0.1,0-0.2c0-0.1-0.1-0.2-0.1-0.3
			c-0.1-0.1-0.2-0.1-0.3-0.3l-0.3-0.3l-0.3-0.1c-0.3-0.1-0.4-0.3-0.5-0.6c0-0.1-0.1-0.2-0.1-0.3s0-0.3,0.1-0.4
			c0-0.1,0.1-0.1,0.1-0.2c0.1-0.1,0.1-0.1,0.1-0.1c0.3-0.2,0.5-0.3,0.9-0.3c0.2,0,0.5,0,0.8,0.1c0.1,0,0.1,0.1,0.1,0.1
			s0,0.1,0.1,0.1c0,0.1,0,0.1,0,0.2c0,0,0,0.1,0,0.1v0.1c0,0,0,0.1,0,0.1v0.1c0,0,0,0-0.1,0s-0.1,0-0.1-0.1l-0.1-0.1
			c0-0.1,0-0.1-0.1-0.1s-0.1-0.1-0.1-0.1l-0.1-0.1c-0.1-0.1-0.1-0.1-0.3-0.2c-0.1-0.1-0.3-0.1-0.3,0c-0.1,0-0.1,0-0.1,0.1
			s-0.1,0.1-0.2,0.3c0,0.1,0,0.1,0.1,0.3c0.1,0.1,0.2,0.2,0.3,0.2c0,0,0.1,0,0.1,0.1l0.3,0.2h0.1c0,0,0.2,0.1,0.5,0.4
			c0.2,0.1,0.3,0.4,0.4,0.7c0,0.2,0,0.4-0.1,0.7l-0.1,0.1l-0.1,0.1l-0.1,0.1c0,0-0.1,0.1-0.1,0.1C50.4,35.8,50.1,35.9,49.7,35.8
			L49.7,35.8z M53.7,35.5L53.7,35.5L53.7,35.5c0.1,0.1,0.1,0.2,0.1,0.3c0,0.1,0,0.3-0.1,0.3l0,0l0,0h-0.1h-0.1h-0.1h-0.2
			c-0.1,0-0.1-0.1-0.1-0.1V36c-0.1,0-0.1,0.1-0.1,0.1h-0.1h-0.1h-0.1h-0.1h-0.2h-0.1h-0.1h-0.1l0,0l0,0c0,0-0.1-0.2-0.1-0.3v-0.1
			c0,0,0-0.1,0.1-0.1l0.1-0.1c0.1,0,0.3-0.1,0.3-0.1c0.1-0.1,0.3-0.1,0.3-0.3v-0.1V35v-0.5v-0.6v-0.5v0c0,0-0.1-0.1-0.1-0.1
			l-0.1-0.1c0-0.1-0.1-0.1-0.2-0.2c-0.1,0-0.1-0.1-0.2-0.1c0,0-0.1,0-0.1-0.1v-0.1c0,0,0,0,0.1,0s0.1,0,0.1-0.1l0.3-0.1l0.3-0.1
			l0.2-0.1l0.1-0.1c0.1-0.1,0.2-0.1,0.2,0c0,0,0,0.1,0,0.2v0.2v0.2c0,0.1,0,0.3,0,0.3v0.3v0.3c0,0.1,0,0.1,0,0.3c0,0,0,0.1,0,0.1
			s0,0.1,0,0.1s0,0.1,0,0.1s0,0.1,0,0.1s0,0.1,0,0.3V35l0,0c0,0,0,0,0,0.1s0.1,0.1,0.1,0.2C53.5,35.5,53.5,35.5,53.7,35.5L53.7,35.5
			z M52.5,31.5C52.5,31.5,52.5,31.5,52.5,31.5c-0.2-0.3-0.2-0.4-0.2-0.5V31c0-0.1,0.1-0.3,0.1-0.3s0.1-0.1,0.3-0.1l0.1-0.1
			c0.1,0,0.3,0.1,0.4,0.2c0.1,0.2,0.1,0.4,0,0.7c-0.1,0.1-0.3,0.3-0.5,0.3C52.7,31.6,52.7,31.6,52.5,31.5L52.5,31.5z M56,35.8h-0.2
			l-0.2-0.1c-0.1,0-0.2-0.1-0.2-0.1c-0.2-0.1-0.4-0.2-0.5-0.3c-0.1-0.1-0.1-0.2-0.3-0.3c0-0.1-0.1-0.1-0.1-0.2l-0.1-0.2
			c0-0.1,0-0.1,0-0.1s0-0.1,0-0.1v-0.1c0-0.1,0-0.3,0.1-0.5l0,0l0,0l0,0l0.1-0.2l0.1-0.2c0-0.1,0.1-0.1,0.1-0.1
			c0.1-0.1,0.1-0.1,0.1-0.2l0.2-0.2c0.2-0.1,0.4-0.4,0.7-0.5c0,0,0-0.1,0.1-0.1h0.1l0.2,0.1c0,0,0.1,0.1,0.2,0.1
			c0.1,0,0.1,0,0.2,0.1c0.2,0,0.3,0.1,0.4,0.1c0,0,0.1,0,0.1,0.1l0.1,0.1l0.1,0.1c0,0,0,0,0,0.1v0.1c0.1,0.1,0.1,0.2,0.3,0.4
			c0,0.1,0.1,0.2,0.1,0.4c0,0,0,0,0,0.1c0,0,0-0.1-0.1-0.1h-0.1h0c-0.1,0-0.1,0-0.3,0h-0.3h-0.1h-0.1c-0.1,0-0.3,0-0.5,0
			c-0.1,0-0.1,0-0.1,0h-0.2c0,0-0.1,0.1-0.1,0.1l0,0c0-0.1,0-0.1,0.1-0.1h0.1H56c0.1,0,0.1,0,0.2,0h0.1h0.1h0.1c0.1,0,0.1,0,0.1-0.1
			s0-0.1,0-0.2c0-0.1-0.1-0.3-0.1-0.4s-0.2-0.2-0.3-0.2s-0.1,0-0.1,0s-0.1,0.1-0.1,0.1c-0.1,0.1-0.3,0.3-0.3,0.5
			c0,0.1-0.1,0.1-0.1,0.3c0,0.1,0,0.1,0,0.2c0,0.1,0,0.1,0,0.2c0,0.1,0,0.3,0,0.4c0.1,0.2,0.1,0.3,0.1,0.5c0.1,0.2,0.2,0.3,0.4,0.4
			c0,0,0.1,0,0.1,0.1s0.2,0.1,0.4,0.1c0.2,0,0.4,0,0.6-0.2c0.1-0.1,0.3-0.2,0.3-0.3l0.1-0.1c0,0,0.1,0,0.1,0s0.1,0.1,0.1,0.1
			s-0.1,0.2-0.1,0.3s-0.1,0.3-0.2,0.3c-0.1,0.1-0.3,0.3-0.5,0.4C56.5,35.8,56.3,35.8,56,35.8L56,35.8z M59.3,35.8
			c-0.3-0.1-0.6-0.1-0.7-0.2c0,0,0,0-0.1,0v-0.1c0-0.1,0.1-0.1,0.1-0.1c0-0.1,0.1-0.1,0.1-0.3V35v-0.3l-0.1-0.1c0,0,0,0,0.1,0
			s0.1,0.1,0.1,0.1s0,0.1,0,0.1c0,0.1,0.1,0.3,0.3,0.5c0.1,0.1,0.3,0.3,0.5,0.3c0,0,0,0,0.1,0s0.2,0,0.3,0s0.1,0,0.2-0.1
			c0.1-0.1,0.1-0.1,0.1-0.1s0-0.1,0-0.2c0-0.1-0.1-0.2-0.1-0.3c-0.1-0.1-0.2-0.1-0.3-0.3l-0.3-0.3l-0.3-0.1
			c-0.3-0.1-0.4-0.3-0.5-0.6c0-0.1-0.1-0.2-0.1-0.3s0-0.3,0.1-0.4c0-0.1,0.1-0.1,0.1-0.2c0.1-0.1,0.1-0.1,0.1-0.1
			c0.3-0.2,0.5-0.3,0.9-0.3c0.2,0,0.5,0,0.8,0.1c0.1,0,0.1,0.1,0.1,0.1s0,0.1,0.1,0.1c0,0.1,0,0.1,0,0.2c0,0,0,0.1,0,0.1v0.1
			c0,0,0,0.1,0,0.1v0.1c0,0,0,0-0.1,0s-0.1,0-0.1-0.1l-0.1-0.1c0-0.1,0-0.1-0.1-0.1s-0.1-0.1-0.1-0.1l-0.1-0.1
			c-0.1-0.1-0.1-0.1-0.3-0.2c-0.1-0.1-0.3-0.1-0.3,0c-0.1,0-0.1,0-0.1,0.1s-0.1,0.1-0.2,0.3c0,0.1,0,0.1,0.1,0.3
			c0.1,0.1,0.2,0.2,0.3,0.2c0,0,0.1,0,0.1,0.1l0.3,0.2H60c0,0,0.2,0.1,0.5,0.4c0.2,0.1,0.3,0.4,0.4,0.7c0,0.2,0,0.4-0.1,0.7
			l-0.1,0.1l-0.1,0.1l-0.1,0.1c0,0-0.1,0.1-0.1,0.1C59.9,35.8,59.7,35.9,59.3,35.8L59.3,35.8z M30.4,35.3L30.4,35.3
			c-0.1,0-0.1-0.2-0.1-0.3c0.1-1,0.5-1.6,1-1.9c0.3-0.2,0.5-0.3,0.7-0.4c-0.6-0.5-0.9-1.1-0.6-1.7c0.2-0.6,0.9-1,1.5-0.9
			c0.4,0.1,0.7,0.2,0.9,0.5c0.3,0.4,0.3,0.9,0.3,0.9s-0.1,0.1-0.1,0.1s-0.1-0.1-0.1-0.1c0,0,0.1-0.4-0.2-0.7
			c-0.1-0.2-0.4-0.3-0.7-0.3c-0.5-0.1-1.1,0.3-1.2,0.7c-0.2,0.5,0.1,1.1,0.7,1.6c0.1,0,0.1,0.1,0.1,0.1s-0.1,0.1-0.1,0.1
			c0,0-0.4,0.1-0.8,0.4c-0.5,0.4-0.7,1-0.7,1.7c0,0.1,0,0.1,0,0.1v0.1H30.4z M33,36.6c-0.3,0-0.7-0.1-1-0.5
			c-0.5-0.5-0.5-1.1-0.4-1.3c0.3-0.8,1.3-1.5,2.7-1.7c0.2,0,0.4-0.1,0.4-0.1l0,0c0-0.1,0-1.6,0.8-1.7c0.3,0,0.6,0.2,0.6,0.5
			c0.1,0.3-0.1,0.7-0.3,0.9c-0.2,0.3-0.6,0.5-1.4,0.7c-1.3,0.3-2.3,0.9-2.5,1.5c-0.1,0.3,0,0.7,0.3,1.1c0.5,0.5,1.1,0.4,1.6,0.1
			c0.5-0.3,0.9-0.9,0.6-1.7c0-0.1,0-0.1,0.1-0.2c0.1,0,0.1,0,0.2,0.1c0.3,0.9-0.1,1.7-0.7,2C33.7,36.5,33.3,36.6,33,36.6L33,36.6z
			 M35.7,31.3L35.7,31.3c-0.5,0-0.5,1.1-0.5,1.4c0.6-0.3,0.8-0.8,0.7-1.1C35.9,31.6,35.9,31.3,35.7,31.3z"/>
	</g>
</g>
</svg>
