<?xml version="1.0" encoding="utf-8"?>
<svg version="1.1" id="Layer_1" xmlns="http://www.w3.org/2000/svg" xmlns:xlink="http://www.w3.org/1999/xlink" x="0px" y="0px"
	 viewBox="0 0 962.5 259.2" style="enable-background:new 0 0 962.5 259.2;" xml:space="preserve">
<g>
	<path style="fill:#14A800;" d="M256.2,53.4c-42.5,0-66.3,27.7-73.2,56.4c-7.9-14.8-13.8-33.6-17.8-52.4h-58.4v73.2
		c0,26.7-11.9,46.5-35.6,46.5s-37.6-19.8-37.6-46.5V57.4H0v73.2c0,21.8,6.9,40.6,19.8,54.4s30.7,21.8,51.4,21.8
		c40.6,0,69.2-31.7,69.2-76.2V81.1c4,15.8,14.8,47.5,33.6,74.2l-17.8,103.9h34.6l11.9-73.2c4.1,3.2,8.4,6.2,12.8,8.9
		c11.8,6.9,25,11,38.6,11.9h3c42.5,0,76.2-32.6,76.2-77.2S298.8,53.5,256.2,53.4 M256.2,176.1c-25.7,0-43.5-19.8-48.5-27.7
		c5.9-49.5,24.7-65.3,48.5-65.3s41.5,18.8,41.5,46.5C298.8,157.3,280,176.1,256.2,176.1 M743.9,73.2V57.4h-33.7v144.4h33.7v-56.4
		c0-34.6,3-60.3,50.4-56.4V55.4C772.6,53.4,755.8,58.4,743.9,73.2"/>
	<path style="fill:#14A800;" d="M509.4,57.4l-23.7,100.9L459,57.4h-42.5l-26.7,100.9L366,57.4h-34.6L369,201.8h40.6l27.7-102.9
		l28.7,102.9h40.6L546,57.4H509.4z M620.2,53.4c-42.5,0-76.2,32.6-76.2,77.1s33.6,77.2,76.2,77.2c42.6,0,76.2-32.6,76.2-77.2
		S662.8,53.4,620.2,53.4 M620.2,177.1c-23.8,0-41.5-18.8-41.5-46.5s17.8-46.5,41.5-46.5c23.7,0,41.5,18.8,41.5,46.5
		S644,177.1,620.2,177.1 M842.8,130.6h7.9l47.5,71.3h38.6l-54.4-79.2c26.7-9.9,43.5-37.6,43.5-66.3h-33.7
		c0,31.7-24.7,43.5-49.5,43.5V0h-33.6v201.8h33.6V130.6z M934.8,0v3h3.9v9.9h3V3h4V0H934.8z M958.5,0l-3,9l0,0l-3-8.9h-4.9v12.9h3
		V3.1l0,0l3,9.9h3l3-9.9l0,0v9.9h3V0.1L958.5,0z"/>
</g>
</svg>
