<?xml version="1.0" encoding="utf-8"?>
<svg version="1.1" id="Layer_1" xmlns="http://www.w3.org/2000/svg" xmlns:xlink="http://www.w3.org/1999/xlink" x="0px" y="0px"
	 viewBox="0 0 44.39 34.82" style="enable-background:new 0 0 44.39 34.82;" xml:space="preserve">
<g>
	<path style="fill:#C23054;" d="M37.44,4.02l2.07,0C41.79,1.71,43.64,0,43.64,0S40.43,1.81,37.44,4.02L37.44,4.02z"/>
	<path style="fill:#C23054;" d="M23.19,34.81c1.99-1.93,3.56-5.16,3.56-8.55L26.74,6.99h-5.47l0.07,18.07c0,2.97-1.07,5.32-3.18,6.6
		l2.44,3.16H0.01L0,4.03l37.45-0.02h6.93l0.01,30.8H23.19z"/>
	<path style="fill:#FFFFFF;" d="M14.67,18.35c2.34-0.88,3.32-3.19,3.32-5.39c0-4.47-2.94-5.98-6.33-5.98L2.94,6.99l0.01,24.37
		l8.43-0.01c4.87,0,7.35-3.08,7.35-7.52C18.73,20.9,16.74,18.97,14.67,18.35z M8.4,11.77l1.89,0.01c1.43-0.01,2.1,1.04,2.1,2.3
		s-0.56,2.31-2.03,2.31H8.4V11.77z M10.29,26.46H8.41L8.4,21.04h1.82c1.85,0,2.28,1.5,2.28,2.72C12.5,25.27,11.83,26.46,10.29,26.46
		z"/>
	<path style="fill:#FFFFFF;" d="M35.57,31.77c-2.04,0-4.13-0.63-6.2-1.86l1.73-3.97c1.17,0.77,3.11,1.84,4.55,1.84
		c0.87,0,1.47-0.45,1.47-1.01c0-2.64-6.99-0.75-6.99-5.97c0-3.18,2.3-5.48,5.9-5.49c2.5,0,3.97,0.69,5.6,1.56l-1.58,3.75
		c-1.17-0.6-2.14-1.24-3.3-1.29c-0.88-0.04-1.66,0.26-1.66,0.98c0.02,2.44,7.15,0.45,7.14,5.94C42.24,29.61,39.54,31.77,35.57,31.77
		L35.57,31.77z"/>
	<path style="fill:#FFFFFF;" d="M37.09,4.27c-3.44,2.59-5.74,4.87-5.74,4.87l-2.62-2.68l1.62,8.53l0.01,0.09
		c0,0,2.48-3.84,6.22-7.98c0.98-1.09,1.99-2.14,2.93-3.09l-2.07,0L37.09,4.27z"/>
	<path style="fill:#FFFFFF;" d="M40.39,13.22c-0.03-0.21-0.12-0.32-0.24-0.34v-0.01c0.15-0.05,0.28-0.17,0.27-0.35
		c0.01-0.14-0.04-0.24-0.13-0.29c-0.08-0.07-0.23-0.11-0.44-0.11c-0.17,0-0.28,0.01-0.4,0.03v1.42h0.22l0.01-0.61h0.15
		c0.19,0,0.28,0.07,0.31,0.25c0.03,0.19,0.06,0.31,0.1,0.36h0.24C40.45,13.52,40.42,13.44,40.39,13.22z M39.84,12.79l-0.16-0.01
		V12.3l0.16-0.01c0.25,0,0.35,0.12,0.35,0.25C40.19,12.72,40.03,12.78,39.84,12.79z M40.39,13.22c-0.03-0.21-0.12-0.32-0.24-0.34
		v-0.01c0.15-0.05,0.28-0.17,0.27-0.35c0.01-0.14-0.04-0.24-0.13-0.29c-0.08-0.07-0.23-0.11-0.44-0.11c-0.17,0-0.28,0.01-0.4,0.03
		v1.42h0.22l0.01-0.61h0.15c0.19,0,0.28,0.07,0.31,0.25c0.03,0.19,0.06,0.31,0.1,0.36h0.24C40.45,13.52,40.42,13.44,40.39,13.22z
		 M39.84,12.79l-0.16-0.01V12.3l0.16-0.01c0.25,0,0.35,0.12,0.35,0.25C40.19,12.72,40.03,12.78,39.84,12.79z M40.15,12.88v-0.01
		c0.15-0.05,0.28-0.17,0.27-0.35c0.01-0.14-0.04-0.24-0.13-0.29c-0.08-0.07-0.23-0.11-0.44-0.11c-0.17,0-0.28,0.01-0.4,0.03v1.42
		h0.22l0.01-0.61h0.15c0.19,0,0.28,0.07,0.31,0.25c0.03,0.19,0.06,0.31,0.1,0.36h0.24c-0.03-0.05-0.06-0.13-0.09-0.35
		C40.36,13.01,40.27,12.9,40.15,12.88z M39.84,12.79l-0.16-0.01V12.3l0.16-0.01c0.25,0,0.35,0.12,0.35,0.25
		C40.19,12.72,40.03,12.78,39.84,12.79z M39.92,11.55h-0.01c-0.69,0.01-1.25,0.57-1.26,1.28c0,0.72,0.57,1.28,1.26,1.28
		c0.71-0.01,1.26-0.56,1.26-1.28C41.17,12.12,40.62,11.56,39.92,11.55z M39.92,13.91c-0.57,0-1.03-0.47-1.02-1.08
		c-0.01-0.59,0.46-1.07,1.02-1.07c0.57,0,1.02,0.47,1.02,1.08C40.94,13.44,40.49,13.92,39.92,13.91z"/>
</g>
</svg>
