<?xml version="1.0"?>
<svg xmlns="http://www.w3.org/2000/svg" xmlns:xlink="http://www.w3.org/1999/xlink" xmlns:svgjs="http://svgjs.com/svgjs" version="1.1" width="512" height="512" x="0" y="0" viewBox="0 0 512 512" style="enable-background:new 0 0 512 512" xml:space="preserve" class=""><g><g xmlns="http://www.w3.org/2000/svg"><g><g><g><g><g><g><g><g><g><g><g><g><g><g><g><g><g><g><g><circle cx="256" cy="256" fill="#f1f1f1" r="256" data-original="#adcfff" style="" class=""/></g></g></g></g></g></g></g></g></g></g></g></g></g></g></g></g></g></g></g><path d="m199.176 285.751-57.333-57.333-35.449 18.79 66.548 66.548-70.913 75.698 30.369 30.369-2.042 2.042 87.271 87.271c12.517 1.882 25.33 2.864 38.373 2.864 141.385 0 256-114.615 256-256 0-16.921-1.659-33.452-4.791-49.455l-120.732-120.732z" fill="#f1f1f1" data-original="#8bbbff" style="" class=""/><g><g><g><g><g><g><g><g><path d="m256 317.675h-130.477v-231.862h130.477l14.068 115.931z" fill="#f3f1f4" data-original="#f3f1f4" style="" class=""/></g></g></g></g></g></g><g><g><g><g><g><g><g><path d="m256 85.813h130.477v231.862h-130.477z" fill="#dfdce0" data-original="#dfdce0" style="" class=""/></g></g></g></g></g></g></g></g><g><g><g><g><g><g><g><g><path d="m256 306.86h-100.962v-156.714h100.962l10.886 78.357z" fill="#ff6426" data-original="#ff6426" style="" class=""/></g></g></g></g></g></g></g><g><g><g><g><g><g><path d="m256 150.146h100.962v156.714h-100.962z" fill="#cf3b00" data-original="#cf3b00" style="" class=""/></g></g></g></g></g></g></g><g><g><g><g><g><g><g><path d="m256 360.112h-140.301v-63.768c0-13.264 10.753-24.017 24.017-24.017h116.284l15.127 41.59z" fill="#ff6426" data-original="#ff6426" style="" class=""/></g></g></g></g></g></g><g><g><g><g><g><g><path d="m256 360.112h140.301v-63.768c0-13.264-10.753-24.017-24.017-24.017h-116.284z" fill="#cf3b00" data-original="#cf3b00" style="" class=""/></g></g></g></g></g></g></g><g><path d="m158.034 426.187h-16.905c-8.619 0-15.605-6.987-15.605-15.605v-38.383h48.116v38.383c-.001 8.618-6.988 15.605-15.606 15.605z" fill="#655e67" data-original="#655e67" style="" class=""/><path d="m370.871 426.187h-16.905c-8.619 0-15.605-6.987-15.605-15.605v-38.383h48.116v38.383c0 8.618-6.987 15.605-15.606 15.605z" fill="#403b41" data-original="#403b41" style=""/></g><g><g><g><g><g><g><g><path d="m256 389.454h-153.972v-45.622h153.972l16.602 29.241z" fill="#8c818f" data-original="#8c818f" style="" class=""/></g></g></g></g></g></g><g><g><g><g><g><g><path d="m256 343.832h153.972v45.621h-153.972z" fill="#655e67" data-original="#655e67" style="" class=""/></g></g></g></g></g></g></g><g><g><g><g><g><g><g><path d="m256 376.735h-46.264v-19.689h46.264l4.988 9.845z" fill="#ffffff" data-original="#ffffff" style=""/></g></g></g></g></g></g><g><g><g><g><g><g><path d="m256 357.046h46.264v19.688h-46.264z" fill="#f3f1f4" data-original="#f3f1f4" style="" class=""/></g></g></g></g></g></g></g><g><g><g><g><g><g><g><g><path d="m256 234.593h-92.035v-64.689h92.035l9.923 32.345z" fill="#f1f1f1" data-original="#8bbbff" style="" class=""/></g></g></g></g></g></g></g><g><g><g><g><g><g><g><path d="m256 169.904h92.035v64.689h-92.035z" fill="#4894ff" data-original="#4894ff" style=""/></g></g></g></g></g></g></g></g><g><g><g><g><g><g><g><g><path d="m256 266.422h-61.399v-11.937h61.399l6.62 5.968z" fill="#655e67" data-original="#655e67" style="" class=""/></g></g></g></g></g></g><g><g><g><g><g><g><path d="m256 254.485h61.399v11.938h-61.399z" fill="#403b41" data-original="#403b41" style=""/></g></g></g></g></g></g></g><g><g><g><g><g><g><g><path d="m256 290.675h-61.399v-11.938h61.399l6.62 5.969z" fill="#655e67" data-original="#655e67" style="" class=""/></g></g></g></g></g></g><g><g><g><g><g><g><path d="m256 278.737h61.399v11.938h-61.399z" fill="#403b41" data-original="#403b41" style=""/></g></g></g></g></g></g></g><g><g><g><g><g><g><g><path d="m256 314.928h-61.399v-11.938h61.399l6.62 5.969z" fill="#655e67" data-original="#655e67" style="" class=""/></g></g></g></g></g></g><g><g><g><g><g><g><path d="m256 302.99h61.399v11.938h-61.399z" fill="#403b41" data-original="#403b41" style=""/></g></g></g></g></g></g></g></g><g><path d="m139.307 314.928h34.534c3.839 0 6.951-3.112 6.951-6.951v-12.439c0-3.839-3.112-6.951-6.951-6.951h-34.534c-3.839 0-6.951 3.112-6.951 6.951v12.439c0 3.839 3.112 6.951 6.951 6.951z" fill="#ffd944" data-original="#ffd944" style="" class=""/><path d="m338.159 314.928h34.534c3.839 0 6.951-3.112 6.951-6.951v-12.439c0-3.839-3.112-6.951-6.951-6.951h-34.534c-3.839 0-6.951 3.112-6.951 6.951v12.439c0 3.839 3.112 6.951 6.951 6.951z" fill="#edbe00" data-original="#edbe00" style=""/></g><g><g fill="#cf3b00"><path d="m374.907 172.281h30.7v74.927h-30.7z" transform="matrix(-1 0 0 -1 780.514 419.489)" fill="#cf3b00" data-original="#cf3b00" style="" class=""/><g><path d="m355.07 184.947h39.674v11.41h-39.674z" fill="#000000" data-original="#000000" style=""/><path d="m355.07 223.132h39.674v11.41h-39.674z" fill="#000000" data-original="#000000" style=""/></g></g><g fill="#ff6426"><path d="m106.393 172.281h30.7v74.927h-30.7z" fill="#ff6426" data-original="#ff6426" style="" class=""/><g><path d="m117.256 184.947h39.674v11.41h-39.674z" transform="matrix(-1 0 0 -1 274.186 381.304)" fill="#000000" data-original="#000000" style=""/><path d="m117.256 223.132h39.674v11.41h-39.674z" transform="matrix(-1 0 0 -1 274.186 457.674)" fill="#000000" data-original="#000000" style=""/></g></g></g></g></g></g></svg>
