<?xml version="1.0" encoding="utf-8"?>
<svg version="1.1" id="Layer_1" xmlns="http://www.w3.org/2000/svg" xmlns:xlink="http://www.w3.org/1999/xlink" x="0px" y="0px"
	 viewBox="0 0 283.5 376.7" style="enable-background:new 0 0 283.5 376.7;" xml:space="preserve">
<g>
	<path style="fill:#009900;" d="M218.6,43.9c0,8.2-2.9,19.6-14.5,19.6c-14,0-14-15.7-14-19s0-20.1,14.4-20.1
		C217.6,24.4,218.6,38.9,218.6,43.9z M190.2,0h-9.4v60.5l-0.2,9h9.1l0.2-7.6c1.2,2,2.9,3.8,4.9,5.1c3.3,2.2,7.2,3.3,11.2,3.2
		c6.9,0.2,13.5-3,17.7-8.6c2.5-3.3,4.8-8.6,4.8-18.4c0-11-3.4-16-5.9-18.9c-4.6-5.2-10.9-6.4-16-6.4c-11.4,0-15.1,6.3-16.4,8.6
		L190.2,0L190.2,0z"/>
	<path style="fill:#009900;" d="M244.8,45.9c0-4.5,0-20.5,15-20.5c11.1,0,13.8,9.4,13.8,18.5c0,3.6-0.5,10.8-4.1,15.7
		c-3.2,4.4-8.2,4.9-10.6,4.9C245.7,64.6,244.8,52.1,244.8,45.9z M235.7,89h9.3V64c2.7,4.4,8.1,7.5,15.4,7.5c12,0,22.9-8.2,22.9-27
		S273,18.4,262.2,18.4c-4.1,0-12.4,1.2-17.2,9.1l-0.2-8.3h-9.5c0.2,4.8,0.3,6,0.3,8.2L235.7,89L235.7,89z"/>
	<path style="fill-rule:evenodd;clip-rule:evenodd;fill:#009900;" d="M161,123.7c-5.2-12.2-11.7-23.8-19.3-34.7
		c-7.5,10.9-14,22.5-19.3,34.7c7.5,7.9,14,16.8,19.3,26.3C147,140.4,153.5,131.6,161,123.7z"/>
	<path style="fill-rule:evenodd;clip-rule:evenodd;fill:#009900;" d="M122.5,342c5.2,12.2,11.7,23.8,19.3,34.7
		c3.4-5.2,12.2-18,19.3-34.7c-7.5-8-13.9-16.8-19.3-26.3C136.4,325.2,130,334,122.5,342z"/>
	<path style="fill-rule:evenodd;clip-rule:evenodd;fill:#009900;" d="M122.5,123.7c-9.2-9.6-19.2-18.4-30-26.1
		c-3.4,12.8-5.4,26-6.2,39.2c9.7,4.9,18.8,11,27.1,18.1C115.1,144.2,118.2,133.7,122.5,123.7z"/>
	<path style="fill-rule:evenodd;clip-rule:evenodd;fill:#009900;" d="M161,342c9.1,9.7,19.2,18.4,30,26.1c3.4-12.8,5.4-26,6.2-39.2
		c-9.7-4.9-18.8-11-27.1-18.1C168.3,321.5,165.3,332,161,342z"/>
	<path style="fill-rule:evenodd;clip-rule:evenodd;fill:#009900;" d="M86.3,136.8c-11.9-6-24.3-10.7-37.1-14.2
		c1.3,13.2,3.8,26.3,7.6,39c10.8,1.2,21.4,3.8,31.6,7.7C86.4,158.6,85.7,147.7,86.3,136.8z"/>
	<path style="fill-rule:evenodd;clip-rule:evenodd;fill:#009900;" d="M197.1,328.9c11.9,6,24.3,10.7,37.1,14.2
		c-1.3-13.2-3.8-26.3-7.6-39c-10.8-1.3-21.4-3.9-31.6-7.8C197.1,307,197.8,318,197.1,328.9z"/>
	<path style="fill-rule:evenodd;clip-rule:evenodd;fill:#009900;" d="M69.9,191.4c-5.6-9.4-10-19.4-13.1-29.8
		c-13.2-1.5-26.5-1.8-39.7-0.7c5.7,11.9,12.5,23.3,20.4,34C48.1,192.4,59,191.2,69.9,191.4z"/>
	<path style="fill-rule:evenodd;clip-rule:evenodd;fill:#009900;" d="M213.5,274.3c5.6,9.3,10,19.4,13.1,29.8
		c13.2,1.5,26.5,1.8,39.7,0.7c-5.7-12-12.6-23.4-20.5-34.1C235.2,273.3,224.4,274.5,213.5,274.3z"/>
	<path style="fill-rule:evenodd;clip-rule:evenodd;fill:#009900;" d="M37.5,194.9C24.6,198,12.1,202.3,0,207.8
		c9.5,9.3,19.8,17.7,30.9,25c9.1-6,18.9-10.8,29.2-14.4C51.6,211.5,44.1,203.6,37.5,194.9z"/>
	<path style="fill-rule:evenodd;clip-rule:evenodd;fill:#009900;" d="M252.6,232.8c-9.1,6-18.9,10.8-29.2,14.4
		c8.5,6.9,16,14.8,22.5,23.5c12.9-3.1,25.5-7.4,37.5-12.9C274,248.5,263.7,240.1,252.6,232.8z"/>
	<path style="fill-rule:evenodd;clip-rule:evenodd;fill:#009900;" d="M60.1,247.2c-10.3-3.6-20.1-8.4-29.2-14.4
		c-11.1,7.3-21.4,15.7-30.9,25c12,5.5,24.6,9.8,37.5,12.9C44.1,262,51.7,254.1,60.1,247.2z"/>
	<path style="fill-rule:evenodd;clip-rule:evenodd;fill:#009900;" d="M223.4,218.4c10.3,3.6,20.1,8.4,29.2,14.4
		c11.1-7.3,21.4-15.7,30.9-25c-12-5.5-24.6-9.8-37.5-12.9C239.4,203.6,231.9,211.5,223.4,218.4z"/>
	<path style="fill-rule:evenodd;clip-rule:evenodd;fill:#009900;" d="M37.5,270.8c-7.9,10.6-14.8,22.1-20.4,34.1
		c13.2,1,26.5,0.8,39.7-0.7c3.1-10.4,7.5-20.4,13.1-29.8C59,274.5,48.1,273.3,37.5,270.8z"/>
	<path style="fill-rule:evenodd;clip-rule:evenodd;fill:#009900;" d="M245.9,194.9c7.9-10.7,14.8-22.1,20.5-34.1
		c-13.2-1-26.5-0.8-39.7,0.7c-3.1,10.4-7.5,20.4-13.1,29.8C224.5,191.2,235.3,192.4,245.9,194.9z"/>
	<path style="fill-rule:evenodd;clip-rule:evenodd;fill:#009900;" d="M88.4,296.3c-10.2,3.9-20.8,6.5-31.6,7.8
		c-3.8,12.7-6.3,25.8-7.6,39c12.8-3.5,25.2-8.2,37.1-14.2C85.7,318,86.4,307,88.4,296.3z"/>
	<path style="fill-rule:evenodd;clip-rule:evenodd;fill:#009900;" d="M195,169.3c10.2-3.9,20.8-6.5,31.6-7.7
		c3.8-12.7,6.3-25.8,7.6-39c-12.8,3.5-25.2,8.2-37.1,14.2C197.8,147.7,197.1,158.6,195,169.3z"/>
	<path style="fill-rule:evenodd;clip-rule:evenodd;fill:#009900;" d="M86.3,328.9c0.8,13.2,2.8,26.4,6.2,39.2
		c10.8-7.7,20.9-16.4,30-26.1c-4.3-10-7.4-20.5-9.1-31.3C105.2,317.9,96,324,86.3,328.9z"/>
	<path style="fill-rule:evenodd;clip-rule:evenodd;fill:#009900;" d="M197.1,136.8c-0.8-13.2-2.8-26.4-6.2-39.2
		c-10.8,7.7-20.9,16.4-30,26.1c4.3,10,7.3,20.5,9.1,31.2C178.3,147.8,187.4,141.8,197.1,136.8z"/>
	<path style="fill-rule:evenodd;clip-rule:evenodd;fill:#99CC00;" d="M131.8,176.9c1.8-9.5,5.2-18.6,9.9-27
		c-5.3-9.5-11.8-18.4-19.3-26.3c-4.3,10-7.4,20.5-9.1,31.2C120.6,161.2,126.8,168.6,131.8,176.9z"/>
	<path style="fill-rule:evenodd;clip-rule:evenodd;fill:#99CC00;" d="M151.6,288.8c-1.9,9.5-5.2,18.6-9.9,27
		c5.3,9.6,11.8,18.4,19.3,26.3c4.3-10,7.3-20.5,9.1-31.3C162.8,304.5,156.5,297.1,151.6,288.8z"/>
	<path style="fill-rule:evenodd;clip-rule:evenodd;fill:#99CC00;" d="M88.4,169.3c9,3.4,17.4,8.3,24.9,14.3
		c-1.5-9.5-1.5-19.2,0-28.7c-8.3-7.1-17.4-13.2-27.1-18.1C85.7,147.7,86.4,158.6,88.4,169.3z"/>
	<path style="fill-rule:evenodd;clip-rule:evenodd;fill:#99CC00;" d="M195,296.3c-9-3.4-17.4-8.3-24.9-14.3
		c1.5,9.5,1.5,19.2-0.1,28.7c8.3,7.1,17.4,13.2,27.1,18.1C197.8,317.9,197.1,307,195,296.3z"/>
	<path style="fill-rule:evenodd;clip-rule:evenodd;fill:#99CC00;" d="M98.2,196.3c-4.7-8.4-8-17.5-9.8-27
		c-10.2-3.9-20.8-6.5-31.6-7.7c3.1,10.4,7.5,20.4,13.1,29.8C79.5,191.5,89.1,193.2,98.2,196.3z"/>
	<path style="fill-rule:evenodd;clip-rule:evenodd;fill:#99CC00;" d="M185.2,269.4c4.7,8.4,8,17.5,9.8,27
		c10.2,3.9,20.8,6.5,31.6,7.8c-3.1-10.4-7.5-20.4-13.1-29.8C203.9,274.1,194.3,272.5,185.2,269.4z"/>
	<path style="fill-rule:evenodd;clip-rule:evenodd;fill:#99CC00;" d="M60.1,218.4c9.1-3.1,18.7-4.8,28.3-5
		c-7.3-6.3-13.5-13.7-18.4-22c-10.9-0.1-21.8,1-32.4,3.5C44.1,203.6,51.6,211.5,60.1,218.4z"/>
	<path style="fill-rule:evenodd;clip-rule:evenodd;fill:#99CC00;" d="M223.4,247.2c-9.1,3.1-18.7,4.8-28.3,5
		c7.3,6.3,13.5,13.7,18.4,22c10.9,0.2,21.8-1,32.4-3.6C239.4,261.9,231.8,254.1,223.4,247.2z"/>
	<path style="fill-rule:evenodd;clip-rule:evenodd;fill:#99CC00;" d="M84.9,232.8c-9-3.4-17.4-8.3-24.8-14.4
		c-10.3,3.6-20.1,8.4-29.2,14.4c9.1,6,18.9,10.8,29.2,14.4C67.6,241.1,75.9,236.3,84.9,232.8z"/>
	<path style="fill-rule:evenodd;clip-rule:evenodd;fill:#99CC00;" d="M198.5,232.8c9,3.5,17.4,8.3,24.9,14.4
		c10.3-3.6,20.1-8.4,29.2-14.4c-9.1-6-18.9-10.8-29.2-14.4C215.9,224.5,207.5,229.4,198.5,232.8z"/>
	<path style="fill-rule:evenodd;clip-rule:evenodd;fill:#99CC00;" d="M69.9,274.3c4.9-8.3,11.1-15.7,18.4-22
		c-9.6-0.2-19.2-1.9-28.3-5c-8.5,6.9-16,14.8-22.5,23.5C48.1,273.3,59,274.4,69.9,274.3z"/>
	<path style="fill-rule:evenodd;clip-rule:evenodd;fill:#99CC00;" d="M213.5,191.4c-4.9,8.3-11.1,15.7-18.4,22
		c9.6,0.2,19.2,1.9,28.3,5c8.5-6.9,16-14.8,22.5-23.5C235.3,192.4,224.4,191.2,213.5,191.4z"/>
	<path style="fill-rule:evenodd;clip-rule:evenodd;fill:#99CC00;" d="M98.2,269.4c-9.1,3.1-18.7,4.8-28.3,4.9
		c-5.6,9.4-10,19.4-13.1,29.8c10.8-1.3,21.4-3.9,31.6-7.8C90.2,286.9,93.5,277.8,98.2,269.4z"/>
	<path style="fill-rule:evenodd;clip-rule:evenodd;fill:#99CC00;" d="M185.2,196.3c9.1-3.1,18.7-4.8,28.3-4.9
		c5.6-9.3,10-19.4,13.1-29.8c-10.8,1.2-21.4,3.8-31.6,7.7C193.2,178.8,189.9,187.9,185.2,196.3z"/>
	<path style="fill-rule:evenodd;clip-rule:evenodd;fill:#99CC00;" d="M131.8,288.8c-4.9,8.3-11.2,15.7-18.5,22
		c1.7,10.8,4.8,21.3,9.1,31.3c7.5-7.9,14-16.8,19.3-26.3C137,307.4,133.7,298.3,131.8,288.8z"/>
	<path style="fill-rule:evenodd;clip-rule:evenodd;fill:#99CC00;" d="M113.3,282.1c-7.5,6.1-15.9,10.9-24.9,14.3
		c-2.1,10.7-2.8,21.6-2.1,32.5c9.7-4.9,18.8-11,27.1-18.1C111.8,301.3,111.8,291.6,113.3,282.1z"/>
	<path style="fill-rule:evenodd;clip-rule:evenodd;fill:#99CC00;" d="M151.6,176.9c5-8.3,11.2-15.7,18.5-22
		c-1.7-10.7-4.8-21.2-9.1-31.2c-7.5,8-13.9,16.8-19.3,26.3C146.4,158.4,149.8,167.5,151.6,176.9z"/>
	<path style="fill-rule:evenodd;clip-rule:evenodd;fill:#99CC00;" d="M170.1,183.6c7.5-6.1,15.9-10.9,24.9-14.3
		c2.1-10.7,2.8-21.6,2.1-32.5c-9.7,4.9-18.8,11-27.1,18.1C171.6,164.4,171.6,174.1,170.1,183.6z"/>
	<path style="fill-rule:evenodd;clip-rule:evenodd;fill:#FFFFFF;" d="M131.9,205.9c-4.7-8.5-11-16.1-18.6-22.2
		c1.6,9.6,5,18.8,9.9,27.2c-7.4-6.4-15.8-11.3-25-14.5c4.8,8.5,11.1,16,18.6,22.2c-9.1-3.5-18.8-5.2-28.5-5.1
		c7.4,6.3,15.9,11.2,25.1,14.4c-9.7-0.2-19.4,1.5-28.5,5c9.1,3.4,18.8,5.1,28.5,5c-9.2,3.2-17.7,8.1-25.1,14.4
		c9.7,0.1,19.4-1.6,28.5-5.1c-7.5,6.2-13.9,13.7-18.6,22.2c9.2-3.2,17.6-8.2,25-14.5c-5,8.4-8.3,17.6-9.9,27.2
		c7.5-6.2,13.8-13.7,18.6-22.2c-1.8,9.6-1.8,19.4,0,29c5-8.4,8.3-17.6,9.9-27.2c1.6,9.6,4.9,18.8,9.9,27.2c1.8-9.6,1.8-19.4,0-29
		c4.8,8.5,11.1,16,18.6,22.2c-1.6-9.6-5-18.8-10-27.2c7.4,6.4,15.9,11.3,25.1,14.5c-4.7-8.5-11.1-16-18.6-22.2
		c9.1,3.5,18.8,5.2,28.5,5.1c-7.4-6.3-15.9-11.3-25.1-14.5c9.7,0.2,19.4-1.5,28.5-5c-9.1-3.4-18.8-5.1-28.5-5
		c9.2-3.2,17.7-8.1,25.1-14.4c-9.7-0.1-19.4,1.6-28.5,5.1c7.6-6.2,13.9-13.7,18.7-22.2c-9.2,3.2-17.7,8.1-25.1,14.5
		c5-8.4,8.4-17.6,10-27.2c-7.5,6.2-13.8,13.7-18.6,22.2c1.8-9.6,1.8-19.4,0-29c-5,8.4-8.3,17.6-9.9,27.2c-1.6-9.6-4.9-18.8-9.9-27.2
		C130.1,186.4,130.1,196.3,131.9,205.9z"/>
	<path style="fill-rule:evenodd;clip-rule:evenodd;fill:#FFE600;" d="M131.9,205.9c-1.8-9.6-1.8-19.4,0-29
		c-4.9-8.3-11.2-15.7-18.5-22c-1.6,9.5-1.6,19.2,0,28.7C120.9,189.9,127.1,197.4,131.9,205.9z"/>
	<path style="fill-rule:evenodd;clip-rule:evenodd;fill:#FFE600;" d="M151.5,259.8c1.8,9.6,1.8,19.4,0,29c5,8.3,11.2,15.7,18.5,22
		c1.5-9.5,1.6-19.2,0.1-28.7C162.6,275.9,156.3,268.3,151.5,259.8z"/>
	<path style="fill-rule:evenodd;clip-rule:evenodd;fill:#FFE600;" d="M113.3,183.6c-7.5-6.1-15.9-10.9-24.9-14.3
		c1.8,9.5,5.1,18.6,9.8,27c9.2,3.2,17.7,8.1,25,14.5C118.2,202.4,114.9,193.2,113.3,183.6z"/>
	<path style="fill-rule:evenodd;clip-rule:evenodd;fill:#FFE600;" d="M170.1,282.1c7.5,6.1,15.9,10.9,24.9,14.3
		c-1.8-9.5-5.1-18.6-9.8-27c-9.2-3.3-17.7-8.2-25.1-14.5C165.2,263.2,168.6,272.5,170.1,282.1z"/>
	<path style="fill-rule:evenodd;clip-rule:evenodd;fill:#FFE600;" d="M116.9,218.5c-7.5-6.2-13.9-13.7-18.6-22.2
		c-9.1-3.1-18.7-4.8-28.3-4.9c4.9,8.3,11.1,15.7,18.4,22C98.1,213.3,107.8,215,116.9,218.5z"/>
	<path style="fill-rule:evenodd;clip-rule:evenodd;fill:#FFE600;" d="M166.6,247.2c7.5,6.2,13.9,13.7,18.6,22.2
		c9.1,3.1,18.7,4.8,28.3,4.9c-4.9-8.3-11.1-15.7-18.4-22C185.4,252.4,175.7,250.7,166.6,247.2z"/>
	<path style="fill-rule:evenodd;clip-rule:evenodd;fill:#FFE600;" d="M113.4,227.9c-9.2-3.2-17.7-8.1-25.1-14.4
		c-9.6,0.2-19.2,1.9-28.3,5c7.5,6.1,15.8,10.9,24.8,14.4C93.9,229.4,103.6,227.7,113.4,227.9z"/>
	<path style="fill-rule:evenodd;clip-rule:evenodd;fill:#FFE600;" d="M170,237.8c9.2,3.2,17.7,8.2,25.1,14.5
		c9.6-0.2,19.2-1.9,28.3-5c-7.5-6.1-15.9-11-24.9-14.4C189.4,236.3,179.7,238,170,237.8z"/>
	<path style="fill-rule:evenodd;clip-rule:evenodd;fill:#FFE600;" d="M84.9,232.8c-9,3.4-17.4,8.3-24.8,14.4
		c9.1,3.1,18.7,4.8,28.3,5c7.4-6.3,15.9-11.2,25.1-14.4C103.7,238,94,236.3,84.9,232.8z"/>
	<path style="fill-rule:evenodd;clip-rule:evenodd;fill:#FFE600;" d="M198.5,232.8c9-3.5,17.4-8.3,24.9-14.4
		c-9.1-3.1-18.7-4.8-28.3-5c-7.4,6.3-15.9,11.2-25.1,14.4C179.7,227.7,189.4,229.4,198.5,232.8z"/>
	<path style="fill-rule:evenodd;clip-rule:evenodd;fill:#FFE600;" d="M116.9,247.2c-9.1,3.5-18.8,5.2-28.5,5.1
		c-7.3,6.3-13.5,13.7-18.4,22c9.6-0.2,19.2-1.8,28.3-4.9C103,260.9,109.3,253.3,116.9,247.2z"/>
	<path style="fill-rule:evenodd;clip-rule:evenodd;fill:#FFE600;" d="M166.6,218.5c9.1-3.5,18.8-5.2,28.5-5.1
		c7.3-6.3,13.5-13.7,18.4-22c-9.6,0.2-19.2,1.8-28.3,4.9C180.5,204.8,174.1,212.3,166.6,218.5z"/>
	<path style="fill-rule:evenodd;clip-rule:evenodd;fill:#FFE600;" d="M131.8,288.8c1.9,9.5,5.2,18.6,9.9,27c4.7-8.4,8-17.5,9.9-27
		c-5-8.4-8.3-17.6-9.9-27.2C140.2,271.2,136.8,280.4,131.8,288.8z"/>
	<path style="fill-rule:evenodd;clip-rule:evenodd;fill:#FFE600;" d="M131.9,259.8c-4.7,8.5-11.1,16-18.6,22.2
		c-1.5,9.5-1.5,19.2,0,28.7c7.3-6.3,13.5-13.7,18.5-22C130.1,279.1,130.1,269.3,131.9,259.8z"/>
	<path style="fill-rule:evenodd;clip-rule:evenodd;fill:#FFE600;" d="M98.2,269.4c-4.7,8.4-8,17.5-9.8,27c9-3.4,17.4-8.3,24.9-14.3
		c1.6-9.6,5-18.8,9.9-27.2C115.8,261.2,107.4,266.2,98.2,269.4z"/>
	<path style="fill-rule:evenodd;clip-rule:evenodd;fill:#FFE600;" d="M151.6,176.9c-1.8-9.5-5.2-18.6-9.9-27c-4.7,8.4-8,17.5-9.9,27
		c5,8.4,8.3,17.6,9.9,27.2C143.3,194.5,146.6,185.3,151.6,176.9z"/>
	<path style="fill-rule:evenodd;clip-rule:evenodd;fill:#FFE600;" d="M151.5,205.9c4.7-8.5,11.1-16,18.6-22.2
		c1.5-9.5,1.5-19.2-0.1-28.7c-7.3,6.3-13.5,13.7-18.5,22C153.4,186.5,153.4,196.4,151.5,205.9z"/>
	<path style="fill-rule:evenodd;clip-rule:evenodd;fill:#FFE600;" d="M185.2,196.3c4.7-8.4,8-17.5,9.8-27c-9,3.4-17.4,8.3-24.9,14.3
		c-1.6,9.6-5,18.8-10,27.2C167.5,204.5,176,199.6,185.2,196.3z"/>
</g>
</svg>
