<?xml version="1.0" encoding="utf-8"?>
<svg version="1.1" id="Layer_1" xmlns="http://www.w3.org/2000/svg" xmlns:xlink="http://www.w3.org/1999/xlink" x="0px" y="0px"
	width="100px" height="100px" viewBox="0 0 72.2 72.2" style="enable-background:new 0 0 72.2 72.2;" xml:space="preserve">
<g>
	<circle style="fill:#E8E8E8;" cx="36.1" cy="36.1" r="36.1"/>
	<circle style="fill:#FFFFFF;" cx="36.1" cy="36.1" r="35.4"/>
	<path style="fill:#020202;" d="M61.4,43.7h1.2v-7.9h-3v1.7h1.1v3.5c0,0.8-0.3,1.2-0.9,1.2c-0.6,0-0.9-0.4-0.9-1.2v-9.9
		c0-0.8,0.3-1.2,0.9-1.2c0.6,0,0.9,0.4,0.9,1.2v2.3h1.9v-2.2c0-1.9-1-3-2.8-3c-1.9,0-3,1.2-3,3V41c0,1.9,1,3,2.5,3
		c0.8,0,1.4-0.3,1.7-0.9L61.4,43.7C61.4,43.7,61.4,43.7,61.4,43.7z M51.3,31.2c0-0.8,0.3-1.2,0.9-1.2c0.6,0,0.9,0.4,0.9,1.2V41
		c0,0.8-0.3,1.2-0.9,1.2c-0.6,0-0.9-0.4-0.9-1.2C51.3,41,51.3,31.2,51.3,31.2z M54.4,43.1c0.5-0.6,0.8-1.3,0.8-2.2v-9.7
		c0-1.9-1.2-3-3-3s-3,1.2-3,3v9.7c0,0.9,0.3,1.7,0.8,2.2c0.5,0.6,1.3,0.8,2.2,0.8C53.2,43.9,53.9,43.7,54.4,43.1L54.4,43.1
		C54.4,43.1,54.4,43.1,54.4,43.1z M44,30.2h0.4c0.9,0,1.3,0.6,1.3,1.7v8.4c0,1.2-0.4,1.7-1.3,1.7h-0.5L44,30.2
		C43.9,30.2,44,30.2,44,30.2z M44.7,43.8c1.9,0,3-1.2,3-3.5v-8.5c0-2.3-1.2-3.4-3-3.4h-2.7v15.3L44.7,43.8L44.7,43.8z M39,43.8
		l1.7-15.4h-1.9l-0.9,9.7l-1-9.7h-2l-1.1,9.7L33,28.4H31l1.7,15.3h2.2l1-9.4l0.9,9.4L39,43.8L39,43.8C39,43.7,39,43.8,39,43.8z
		 M29.9,43.7v-1.8h-3.4v-5.6h2.2v-1.7h-2.2v-4.3h3.3v-1.8h-5.3v15.3H29.9z M23,43.7c-0.1-0.6-0.1-1.3-0.1-2l-0.1-3.2
		c-0.1-1.3-0.5-2.2-1.4-2.5c1-0.4,1.5-1.4,1.5-2.8v-1.8c0-2.2-1.2-3-3.1-3H17v15.3h2.1v-6.9h0.3c0.9,0,1.3,0.5,1.3,1.5l0.1,3
		c0,1,0.1,1.8,0.2,2.2L23,43.7L23,43.7L23,43.7z M19.1,30.1h0.6c0.8,0,1.2,0.5,1.2,1.4v2.2c0,0.9-0.5,1.5-1.2,1.5h-0.6
		C19,35.2,19.1,30.1,19.1,30.1z M11.7,36.5h0.6c0.8,0,1.3,0.6,1.3,1.4v2.5c0,1-0.4,1.6-1.2,1.6h-0.7C11.6,42.1,11.7,36.6,11.7,36.5
		C11.7,36.6,11.7,36.5,11.7,36.5z M11.6,30.1h0.6c0.8,0,1.2,0.5,1.2,1.5v1.9c0,0.9-0.4,1.3-1.2,1.3h-0.5L11.6,30.1L11.6,30.1z
		 M12.5,43.8c1.9,0,3-1.1,3-3.2v-2.4c0-1.3-0.5-2.2-1.4-2.6c0.9-0.4,1.2-1.2,1.2-2.5v-1.7c0-2.2-1.2-3-3-3h-3v15.3L12.5,43.8
		C12.5,43.7,12.5,43.8,12.5,43.8z"/>
</g>
</svg>
