<?xml version="1.0"?>
<svg xmlns="http://www.w3.org/2000/svg" xmlns:xlink="http://www.w3.org/1999/xlink" xmlns:svgjs="http://svgjs.com/svgjs" version="1.1" width="512" height="512" x="0" y="0" viewBox="0 0 512 512.00015" style="enable-background:new 0 0 512 512" xml:space="preserve" class=""><g><path xmlns="http://www.w3.org/2000/svg" d="m512 256.269531c0 .320313 0 .640625-.011719.960938 0 1.308593-.019531 2.621093-.046875 3.917969-.011718.480468-.019531.960937-.03125 1.441406-.078125 3-.199218 5.992187-.378906 8.960937-.011719.089844-.011719.167969-.019531.257813-.589844 9.792968-1.730469 19.421875-3.402344 28.882812-1.871094 10.609375-4.390625 20.988282-7.527344 31.097656-22.910156 74.0625-78.542969 133.730469-149.972656 162.160157-11.5 4.570312-23.398437 8.339843-35.640625 11.222656-4.839844 1.136719-9.738281 2.148437-14.679688 3.007813-1.757812.308593-3.527343.601562-5.308593.871093-8.441407 1.289063-17.03125 2.167969-25.730469 2.597657-.621094.042968-1.238281.070312-1.859375.101562-.332031.011719-.671875.03125-1 .039062-3.53125.152344-7.089844.210938-10.660156.210938-1.371094 0-2.742188-.011719-4.109375-.03125-4.972656-.078125-9.902344-.308594-14.789063-.679688-6.082031-.449218-12.113281-1.109374-18.0625-1.988281-2.050781-.289062-4.089843-.609375-6.109375-.960937-2.25-.378906-4.480468-.789063-6.699218-1.230469-.230469-.050781-.472657-.089844-.699219-.140625-12.929688-2.597656-25.492188-6.167969-37.621094-10.628906-3.519531-1.300782-7-2.667969-10.449219-4.121094-92.421875-38.6875-157.300781-130.039062-157.191406-236.488281.148438-141.378907 114.890625-255.878907 256.269531-255.730469 119.0625.128906 219.0625 81.511719 247.5625 191.640625.339844 1.328125.679688 2.660156 1 4 .699219 2.890625 1.347657 5.789063 1.949219 8.71875.390625 1.929687.769531 3.871094 1.109375 5.820313.121094.582031.21875 1.160156.320313 1.742187 1.140624 6.519531 2.019531 13.117187 2.648437 19.796875.3125 3.25.550781 6.519531.742187 9.8125.058594 1.1875.117188 2.378906.167969 3.570312.160157 3.699219.230469 7.429688.230469 11.167969zm0 0" fill="#f1f1f1" data-original="#aef224" style="" class=""/><path xmlns="http://www.w3.org/2000/svg" d="m500.582031 331.789062c-22.910156 74.0625-78.542969 133.730469-149.972656 162.160157-11.5 4.570312-23.398437 8.339843-35.640625 11.222656-4.839844 1.136719-9.738281 2.148437-14.679688 3.007813-1.757812.308593-3.527343.601562-5.308593.871093-.082031-.070312-164.898438-164.890625-165.230469-165.230469-4.550781-4.371093-7.917969-9.949218-9.578125-16.230468l-14.183594-14 190-163.199219 15 15.109375s71.5 48.5 72.03125 48.960938c.179688.148437 117.339844 117.097656 117.5625 117.328124zm0 0" fill="#f1f1f1" data-original="#89bf1d" style="" class=""/><path xmlns="http://www.w3.org/2000/svg" d="m391.328125 280.296875v-30h13.074219c-2.214844-9.976563-6.707032-19.292969-13.089844-27.234375h-76.300781v-57.5625h-24.71875v148.089844h115.699219v-33.292969zm0 0" fill="#ff2c49" data-original="#ff2c49" style="" class=""/><path xmlns="http://www.w3.org/2000/svg" d="m391.328125 280.296875v-30h13.082031c-2.21875-9.976563-6.710937-19.292969-13.097656-27.234375h-40.429688v90.527344h55.109376v-33.292969zm0 0" fill="#bf0032" data-original="#bf0032" style="" class=""/><path xmlns="http://www.w3.org/2000/svg" d="m375.855469 265.296875c0 8.28125 6.714843 15 15 15h15.136719v-15.605469c0-4.894531-.542969-9.714844-1.582032-14.394531h-13.554687c-8.285157 0-15 6.714844-15 15zm0 0" fill="#d9bf00" data-original="#d9bf00" style=""/><path xmlns="http://www.w3.org/2000/svg" d="m378.605469 210.957031-63.609375-45.457031v57.5625h76.316406c-3.640625-4.53125-7.898438-8.609375-12.707031-12.105469zm0 0" fill="#8cdefb" data-original="#8cdefb" style=""/><path xmlns="http://www.w3.org/2000/svg" d="m350.917969 223.066406 40.394531-.003906c-3.640625-4.53125-7.847656-8.601562-12.65625-12.097656l-27.738281-20.15625zm0 0" fill="#57bce3" data-original="#57bce3" style=""/><path xmlns="http://www.w3.org/2000/svg" d="m105.992188 150.394531h190v163.195313h-190zm0 0" fill="#ffffff" data-original="#ffffff" style=""/><path xmlns="http://www.w3.org/2000/svg" d="m200.992188 150.394531h95v163.195313h-95zm0 0" fill="#ebebeb" data-original="#ebebeb" style="" class=""/><path xmlns="http://www.w3.org/2000/svg" d="m105.992188 268.589844h190v45h-190zm0 0" fill="#ebebeb" data-original="#ebebeb" style="" class=""/><path xmlns="http://www.w3.org/2000/svg" d="m200.992188 268.589844h95v45h-95zm0 0" fill="#c9c9c9" data-original="#c9c9c9" style=""/><path xmlns="http://www.w3.org/2000/svg" d="m235.992188 194.492188h-20v-20h-30v20h-20v30h20v20h30v-20h20zm0 0" fill="#ff2c49" data-original="#ff2c49" style="" class=""/><path xmlns="http://www.w3.org/2000/svg" d="m215.992188 194.492188v-20h-15v70h15v-20h20v-30zm0 0" fill="#bf0032" data-original="#bf0032" style="" class=""/><path xmlns="http://www.w3.org/2000/svg" d="m385.992188 318.589844c0 19.332031-15.667969 35-35 35-19.328126 0-35-15.667969-35-35 0-19.328125 15.671874-35 35-35 19.332031 0 35 15.671875 35 35zm0 0" fill="#1b3b6b" data-original="#1b3b6b" style=""/><path xmlns="http://www.w3.org/2000/svg" d="m385.992188 318.589844c0 19.332031-15.667969 35-35 35h-.109376v-70h.109376c19.332031 0 35 15.671875 35 35zm0 0" fill="#12254c" data-original="#12254c" style=""/><path xmlns="http://www.w3.org/2000/svg" d="m365.992188 318.589844c0 8.285156-6.714844 15-15 15-8.285157 0-15-6.714844-15-15 0-8.28125 6.714843-15 15-15 8.285156 0 15 6.71875 15 15zm0 0" fill="#ffffff" data-original="#ffffff" style=""/><path xmlns="http://www.w3.org/2000/svg" d="m365.992188 318.589844c0 8.28125-6.71875 15-15 15h-.109376v-30h.109376c8.28125 0 15 6.722656 15 15zm0 0" fill="#ebebeb" data-original="#ebebeb" style="" class=""/><path xmlns="http://www.w3.org/2000/svg" d="m188.992188 318.589844c0 19.332031-15.667969 35-35 35-19.328126 0-35-15.667969-35-35 0-19.328125 15.671874-35 35-35 19.332031 0 35 15.671875 35 35zm0 0" fill="#1b3b6b" data-original="#1b3b6b" style=""/><path xmlns="http://www.w3.org/2000/svg" d="m188.992188 318.589844c0 19.332031-15.667969 35-35 35h-.109376v-70h.109376c19.332031 0 35 15.671875 35 35zm0 0" fill="#12254c" data-original="#12254c" style=""/><path xmlns="http://www.w3.org/2000/svg" d="m168.992188 318.589844c0 8.285156-6.714844 15-15 15-8.285157 0-15-6.714844-15-15 0-8.28125 6.714843-15 15-15 8.285156 0 15 6.71875 15 15zm0 0" fill="#ffffff" data-original="#ffffff" style=""/><path xmlns="http://www.w3.org/2000/svg" d="m168.992188 318.589844c0 8.28125-6.71875 15-15 15h-.109376v-30h.109376c8.28125 0 15 6.722656 15 15zm0 0" fill="#ebebeb" data-original="#ebebeb" style="" class=""/></g></svg>
