<?xml version="1.0" encoding="utf-8"?>
<svg version="1.1" id="Layer_1" xmlns="http://www.w3.org/2000/svg" xmlns:xlink="http://www.w3.org/1999/xlink" x="0px" y="0px"
	width="100px" height="100px" viewBox="0 0 66.7 66.7" style="enable-background:new 0 0 66.7 66.7;" xml:space="preserve">
<g>
	<circle style="fill:#E8E8E8;" cx="33.3" cy="33.3" r="33.3"/>
	<circle style="fill:#FFFFFF;" cx="33.3" cy="33.3" r="32.7"/>
	<path d="M14.4,33.4c0,2.2-1.8,4.1-4,4.1c0,0,0,0-0.1,0c-2.2,0-4.1-1.8-4.1-4c0,0,0,0,0-0.1c0-2.2,1.8-4.1,4-4.1c0,0,0,0,0.1,0
		C12.6,29.3,14.4,31.1,14.4,33.4C14.4,33.4,14.4,33.4,14.4,33.4 M18.8,33.4c0,2.1-0.9,3.9-2,3.9s-2.1-1.7-2.1-3.9
		c0-2.1,0.9-3.9,2-3.9C17.9,29.5,18.8,31.3,18.8,33.4 M20.7,33.4c0,1.9-0.3,3.5-0.7,3.5s-0.7-1.5-0.7-3.5c0-1.9,0.3-3.5,0.7-3.5
		S20.7,31.5,20.7,33.4 M31.8,29.7L31.8,29.7v-0.1h-2.3l-2.1,5.1l-2.1-5.1h-2.5v0.1l0,0c0.4,0.1,0.7,0.3,0.7,0.7v6
		c0,0.5-0.2,0.7-0.7,0.7l0,0v0.1h1.7v-0.1h-0.1c-0.4-0.1-0.6-0.3-0.6-0.7v-5.7l2.7,6.5h0.1l2.8-6.7v6c0,0.4-0.2,0.5-0.6,0.6H29v0.1
		h2.9v-0.1h-0.1c-0.4-0.1-0.6-0.2-0.6-0.6v-6.1l0,0C31.3,29.9,31.4,29.7,31.8,29.7 M33.2,33.6c0-1.1,0.4-1.9,1.1-1.9
		c0.2,0,0.3,0.1,0.5,0.2c0.3,0.3,0.4,0.8,0.4,1.7H33.2C33.2,33.7,33.2,33.6,33.2,33.6z M33.1,33.9h3.5l0,0c0-0.8-0.3-1.5-0.7-1.9
		c-0.4-0.4-1-0.6-1.6-0.6l0,0c-0.3,0-0.7,0.1-1,0.3c-0.3,0.1-0.6,0.4-0.8,0.7c-0.4,0.5-0.6,1.1-0.7,1.8v0.1v0.1v0.3
		c0.1,1.6,0.9,2.9,2.5,2.9c1.3,0,2.1-1,2.3-2.3h-0.1c-0.3,0.7-1,1.1-1.7,1.1C33.9,36.1,33.1,35.1,33.1,33.9 M40.5,36.1
		c-0.1,0.3-0.4,0.4-0.7,0.4c-0.3,0-0.6-0.2-0.8-0.6c-0.2-0.4-0.3-1-0.3-1.7c0-1.5,0.5-2.4,1.2-2.4c0.3,0,0.5,0.2,0.7,0.4
		C40.5,32.1,40.5,36.1,40.5,36.1z M42.8,37.1c-0.4-0.1-0.6-0.3-0.6-0.8v-7.1l-2.5,0.7v0.1l0,0c0.3,0,0.6,0,0.7,0.1
		c0.1,0.1,0.1,0.3,0.1,0.5v1c-0.2-0.1-0.5-0.3-0.9-0.3c-0.7,0-1.4,0.3-1.9,0.9c-0.5,0.6-0.8,1.4-0.8,2.3c0,1.7,0.8,2.8,2.1,2.8
		c0.7,0,1.3-0.4,1.5-1.1v0.9h2.3L42.8,37.1C42.8,37.1,42.8,37.1,42.8,37.1z M45,30.2c0-0.5-0.4-0.9-0.9-0.9c-0.5,0-0.9,0.4-0.9,0.9
		s0.4,0.9,0.9,0.9C44.6,31.1,45,30.7,45,30.2 M45.6,37.1c-0.4-0.1-0.6-0.3-0.6-0.8l0,0v-4.9l-2.3,0.7v0.1l0,0
		c0.5,0.1,0.7,0.3,0.7,0.9v4.3h2.3L45.6,37.1C45.6,37.1,45.6,37.1,45.6,37.1z M51.5,37.1c-0.4-0.1-0.6-0.3-0.6-0.8v-4.9L48.7,32v0.1
		l0,0c0.4,0.1,0.5,0.3,0.5,0.8V36c-0.1,0.3-0.4,0.4-0.7,0.5c-0.5,0-0.8-0.3-0.8-0.9v-4.1l-2.3,0.7v0.1l0,0c0.5,0.1,0.6,0.3,0.6,0.9
		v2.7c0,0.2,0,0.4,0.1,0.5l0.1,0.2c0.2,0.7,0.7,1.1,1.5,1.1c0.7,0,1.2-0.4,1.5-1.1v0.9h2.3L51.5,37.1C51.5,37.1,51.5,37.1,51.5,37.1
		z M60.5,37.3L60.5,37.3L60.5,37.3c-0.5-0.2-0.7-0.4-0.7-0.8v-3.3c0-1.1-0.6-1.7-1.6-1.7c-0.7,0-1.3,0.4-1.5,1.1
		c-0.2-0.7-0.7-1.1-1.5-1.1c-0.7,0-1.3,0.3-1.5,1v-1l-2.3,0.6v0.1l0,0c0.5,0.1,0.7,0.3,0.7,0.8v4.3h2.1v-0.1l0,0
		c-0.3-0.1-0.5-0.3-0.5-0.7v-3.8c0.1-0.2,0.3-0.5,0.7-0.5c0.5,0,0.7,0.3,0.7,1v4.1h2.1v-0.1l0,0c-0.3-0.1-0.5-0.3-0.5-0.7v-3.4
		c0-0.1,0-0.3-0.1-0.4c0.1-0.3,0.3-0.5,0.7-0.5c0.5,0,0.7,0.3,0.7,1v4.1L60.5,37.3L60.5,37.3L60.5,37.3z"/>
</g>
</svg>
