<svg xmlns="http://www.w3.org/2000/svg" viewBox="0 0 652.4 64.7"><path d="M0 2.3h17.9c9.2 0 19.3 3.3 19.3 15.3 0 6.3-4.2 11.4-10.6 12.9v.2c7.8.8 13.6 6.3 13.6 15 0 10-8.6 16.6-22.4 16.6H0v-60zm6.1 26.3h12.3c5.9 0 12.7-2.5 12.7-10.5 0-7.6-6.5-10.5-14.4-10.5H6.1v21zm0 28.5h11.4c8.8 0 16.5-3.3 16.5-11.7 0-7.9-5.7-11.8-15.4-11.8H6.1v23.5zm57-.2h32.1v5.4H57v-60h37.2v5.4H63.1v20.7h29.1v5.3H63.1v23.2zm46.7 5.5h-6.7l26-60h5.9l25.8 60H154l-6.6-15.8h-31l-6.6 15.8zm8.8-21.4h26.5L131.9 9.1 118.6 41zm52.7-1V2.3h6.1v37c0 9.7 4.2 19.2 16.4 19.2s16.4-9.5 16.4-19.2v-37h6.1V40c0 10-4.5 23.9-22.5 23.9S171.3 50 171.3 40zm82.9 22.4h-6.1V7.8H228V2.3h46.3v5.4h-20.1v54.7zm51.7 0h-6.1V36.5L277.3 2.3h7.6L303 31.4l18.2-29.1h7.1l-22.5 34.2v25.9z" fill="#7f2c53"/><path d="M331.6 8.6h20.1v54.6h7.7V8.6h20.1V1.5h-47.9zm97.2 19h-31.1V1.5H390v61.7h7.7V34.8h31.1v28.4h7.7V1.5h-7.7zm25.1-26.1h7.7v61.6h-7.7zm67.9 49.6L487.9 1.5H479v61.7h7.7V13.1l33.9 50.1h8.9V1.5h-7.7zm55.4-14h14v17c-3.6 2.2-9.3 3.5-15.4 3.5-15.8 0-24.1-12.7-24.1-25.3S560 6.9 575.8 6.9c7 0 12.6 2.3 16.8 6.7l.6.6 5.4-5.4-.6-.5C592.4 2.8 584.9 0 575.7 0c-18.3 0-32.1 13.9-32.1 32.3 0 18.7 13.5 32.3 32.1 32.3 8.4 0 16.3-2.1 22.8-6l.4-.2V30.2h-21.7v6.9zm57.5-8.6l-1.1-.4c-6.5-2.1-12.1-4-12.1-10.9 0-7.7 7.2-10.5 12-10.5 5.1 0 9.1 2 11.7 5.7l.5.7 6.1-4.9-.5-.6c-2.7-3.7-8.8-7.6-17.6-7.6-9.6 0-20 5.4-20 17.3 0 11.5 8.6 15.1 16.7 17.6l.2.1c7.5 2.3 13.9 4.3 13.9 12.1 0 7-6.4 10.8-12.5 10.8-5.4 0-10.3-2.7-13.1-7.2l-.5-.7-6.6 4.9.5.6c4.2 5.8 11.5 9.2 19.6 9.2 10.1 0 20.4-5.6 20.4-18.1.1-12.3-9.3-15.4-17.6-18.1z" fill="#474747"/></svg>