<?xml version="1.0" encoding="utf-8"?>
<svg version="1.1" id="Layer_1" xmlns="http://www.w3.org/2000/svg" xmlns:xlink="http://www.w3.org/1999/xlink" x="0px" y="0px"
	width="100px" height="100px" viewBox="0 0 66.7 66.7" style="enable-background:new 0 0 66.7 66.7;" xml:space="preserve">
<g>
	<path d="M33.3,66.7L33.3,66.7C14.9,66.7,0,51.7,0,33.3l0,0C0,14.9,14.9,0,33.3,0l0,0c18.4,0,33.3,14.9,33.3,33.3l0,0
		C66.7,51.7,51.7,66.7,33.3,66.7L33.3,66.7z"/>
	<path style="fill:#373737;" d="M31,36.4h-1.9v-7.7h-1.5v9.1h3.5L31,36.4C31,36.4,31,36.4,31,36.4z M16.8,44.7
		c0.3-0.3,0.7-0.9,0.7-1.8c0.1-0.7-0.1-1.5-0.6-2.1c-0.5-0.4-1.1-0.7-1.7-0.6h-1.7v9.1h1.8h0.1c0.6,0,1.1-0.2,1.5-0.7
		c0.5-0.6,0.7-1.3,0.5-2.1C17.7,45.6,17.3,45,16.8,44.7C16.8,44.7,16.8,44.7,16.8,44.7z M15.3,44.1L15.3,44.1l-0.1-2.4h0.1
		c0.1,0,0.3,0,0.4,0.1c0.1,0.3,0.3,0.5,0.2,0.9V43C15.9,44.1,15.5,44.1,15.3,44.1L15.3,44.1L15.3,44.1z M16.1,46.7V47
		c0.1,0.3-0.1,0.7-0.2,0.9c-0.1,0.1-0.3,0.2-0.5,0.2h-0.3v-2.7h0.3C15.6,45.4,16.1,45.5,16.1,46.7z M16.4,35.6v-6.9h-1.7v7.1
		c0,0.7-0.1,0.8-0.1,0.8h-0.1c-0.1-0.2-0.2-0.4-0.2-0.6v-0.3l-1.4,0.2v0.3c0,0.5,0.2,1.1,0.5,1.5c0.3,0.3,0.7,0.5,1.1,0.5
		C15.4,38,16.4,37.6,16.4,35.6z M32.3,37.9h1.6v-3.2l1.7-6.1H34l-0.9,3.5l-0.9-3.5h-1.6l1.7,6.1L32.3,37.9
		C32.3,37.9,32.3,37.9,32.3,37.9z M27.3,24.9h-2.2v-2.5H27v-1.4h-1.9v-2.5h2.2V17h-3.7v9.3h3.7C27.3,26.3,27.3,24.9,27.3,24.9z
		 M14.1,26.1h1.7v-7.7h1.1V17h-3.9v1.4h1.2C14.1,18.4,14.1,26.1,14.1,26.1z M19.3,22.2h1.2v3.9h1.7V17h-1.7v3.9h-1.2V17h-1.7v9.1
		h1.7C19.3,26.1,19.3,22.2,19.3,22.2z M41.1,45.7h1.9v-1.4h-1.9v-2.5h2.1v-1.4h-3.7v9.1h3.7v-1.3h-2.2v-2.5L41.1,45.7L41.1,45.7z
		 M36.5,44.2h-1.3v-3.9h-1.7v9.1h1.7v-3.9h1.2v3.9h1.7v-9.1h-1.7L36.5,44.2C36.4,44.2,36.5,44.2,36.5,44.2z M48.4,43.3L48.4,43.3
		c0.1-0.9-0.1-1.7-0.6-2.3c-0.4-0.5-1.1-0.7-1.7-0.7h-1.8v9.1H46v-3.3h0.1l0.9,3.3h1.7l-1.1-3.7C48.1,45.4,48.4,44.5,48.4,43.3
		L48.4,43.3z M46.9,43.1v0.3c0,1.4-0.5,1.3-0.7,1.3H46v-3.1h0.2c0.1,0,0.3,0,0.4,0.2C46.8,42.3,46.9,42.7,46.9,43.1z M19.7,38
		c0.7,0.1,1.3-0.3,1.7-0.7c0.5-0.7,0.5-1.5,0.5-2.3v-3.5c0.1-0.9-0.1-1.7-0.6-2.4c-0.4-0.5-1-0.7-1.7-0.7c-0.7-0.1-1.3,0.3-1.7,0.7
		c-0.5,0.7-0.7,1.5-0.5,2.3v3.4c-0.1,0.9,0.1,1.7,0.6,2.4c0.4,0.5,0.9,0.7,1.5,0.7C19.6,38,19.6,38,19.7,38z M19.1,31.3
		c-0.1-0.4,0.1-0.9,0.2-1.2c0.1-0.1,0.2-0.3,0.4-0.3c0.4,0,0.6,0.5,0.6,1.5v3.8c0,1-0.2,1.5-0.6,1.5c-0.1,0-0.3-0.1-0.4-0.2
		c-0.2-0.4-0.3-0.9-0.2-1.3V31.3L19.1,31.3z M53.8,47.3c0-0.5-0.1-0.9-0.2-1.3c-0.1-0.3-0.3-0.6-0.5-0.9c-0.2-0.2-0.4-0.3-0.6-0.5
		l-1-0.7c-0.2-0.1-0.3-0.3-0.4-0.5c-0.1-0.3-0.1-0.6-0.1-0.9c0-1.1,0.4-1.1,0.5-1.1c0.4,0,0.6,0.5,0.6,1.3v0.3l1.5-0.3v-0.3
		c0-0.7-0.2-1.3-0.6-1.9v-0.1c-0.9-0.7-2.2-0.7-3,0.1L50,40.7c-0.4,0.5-0.6,1.3-0.5,1.9c-0.1,1.1,0.4,2,1.3,2.6l1,0.7
		c0.4,0.3,0.6,0.7,0.5,1.3l0,0c0,1-0.5,1-0.7,1l0,0c-0.2,0-0.3-0.1-0.4-0.3c-0.2-0.5-0.3-0.9-0.3-1.3v-0.3l-1.5,0.3v0.3
		c0,0.8,0.3,1.6,0.7,2.3c0.4,0.5,1,0.7,1.6,0.7h0.1c0.5,0,1.1-0.2,1.5-0.6C53.7,48.6,53.9,47.9,53.8,47.3L53.8,47.3z M31.1,47
		c0,0.3-0.1,0.7-0.3,1.1c-0.1,0.1-0.3,0.2-0.4,0.2s-0.3-0.1-0.4-0.2c-0.1-0.4-0.2-0.8-0.2-1.3l0,0v-3.9c0-0.5,0.1-0.9,0.2-1.3
		c0.1-0.1,0.2-0.3,0.4-0.2c0.1,0,0.3,0.1,0.3,0.1c0.1,0.3,0.3,0.7,0.3,0.9v0.4l1.5-0.3v-0.3c0-0.7-0.3-1.3-0.7-1.8
		c-0.4-0.3-0.9-0.5-1.5-0.5c-0.7,0-1.3,0.3-1.6,0.7c-0.5,0.7-0.7,1.5-0.5,2.4v3.3c-0.1,0.8,0.1,1.7,0.5,2.4l0.1,0.1
		c0.4,0.5,1,0.7,1.5,0.7c0.5,0,1.1-0.2,1.5-0.6L32,49c0.4-0.5,0.6-1.3,0.6-1.9v-0.3l-1.5-0.2L31.1,47L31.1,47L31.1,47z M23.1,40.3
		h-1.5v6.5c0,0.4-0.1,0.9-0.2,1.2c-0.1,0.1-0.3,0.3-0.4,0.3l0,0c-0.1,0-0.3-0.1-0.4-0.2c-0.2-0.4-0.3-0.9-0.2-1.3v-6.5h-1.7v6.3
		c-0.1,0.9,0.1,1.7,0.6,2.4c0.4,0.5,0.9,0.7,1.5,0.7h0.1c0.7,0,1.3-0.3,1.7-0.7c0.5-0.7,0.6-1.5,0.5-2.3V40.3z M26.7,36.4h-1.9v-7.7
		h-1.5v9.1h3.5V36.4L26.7,36.4z M23.8,41.7H25v7.7h1.7v-7.7h1.1v-1.4h-3.9V41.7z"/>
	<path style="fill:#DDCAAD;" d="M31.7,35.9h-1.8v-7.7h-1.5v9.1h3.4L31.7,35.9L31.7,35.9z M17.9,43.9c0.3-0.3,0.7-0.9,0.7-1.7
		c0.1-0.7-0.1-1.5-0.6-2c-0.5-0.4-1-0.6-1.6-0.6h-1.6v9.1h1.8h0.1c0.6,0,1.1-0.3,1.5-0.7c0.4-0.6,0.6-1.3,0.5-2.1
		C18.7,44.8,18.3,44.2,17.9,43.9z M16.4,43.3h-0.2v-2.4h0.2c0.1,0,0.3,0.1,0.4,0.1c0.1,0.3,0.2,0.6,0.2,0.9v0.3
		C17.1,43.3,16.7,43.3,16.4,43.3L16.4,43.3C16.4,43.3,16.4,43.3,16.4,43.3z M17.1,45.8v0.3c0.1,0.3,0,0.5-0.2,0.9
		c-0.1,0.1-0.3,0.2-0.4,0.2h-0.3v-2.6h0.3C16.7,44.5,17.1,44.6,17.1,45.8L17.1,45.8C17.1,45.8,17.1,45.8,17.1,45.8z M17.5,35.1v-6.9
		h-1.5v7c0,0.7-0.2,0.8-0.2,0.8h-0.1c-0.1-0.2-0.2-0.4-0.2-0.7V35l-1.4,0.2v0.3c0,0.5,0.2,1.1,0.5,1.5c0.3,0.3,0.7,0.5,1.1,0.5
		C16.5,37.4,17.5,37,17.5,35.1z M32.9,37.3h1.5v-3.1l1.7-5.9h-1.5l-0.9,3.4l-0.9-3.4h-1.5l1.7,5.9L32.9,37.3
		C32.9,37.2,32.9,37.3,32.9,37.3z M28.1,24.5h-2.1v-2.4h1.9v-1.3h-1.9v-2.5H28v-1.3h-3.6v8.9H28L28.1,24.5
		C28.1,24.5,28.1,24.5,28.1,24.5z M15.3,25.9h1.5v-7.6H18V17h-3.9v1.3h1.1L15.3,25.9C15.3,25.9,15.3,25.9,15.3,25.9z M20.3,22.1h1.2
		v3.8h1.7V17h-1.7v3.8h-1.1V17h-1.7v8.9h1.6L20.3,22.1C20.3,22.1,20.3,22.1,20.3,22.1z M41.5,44.8h1.9v-1.3h-1.9v-2.4h1.9v-1.5h-3.6
		v9.1h3.6v-1.4h-2.1L41.5,44.8L41.5,44.8L41.5,44.8z M36.9,43.3h-1.2v-3.8h-1.5v9.1h1.5v-3.8h1.2v3.8h1.5v-9.1h-1.5V43.3z
		 M48.6,42.5L48.6,42.5c0.1-0.9-0.1-1.7-0.5-2.3c-0.4-0.5-1-0.7-1.6-0.7h-1.8v8.9h1.5v-3.1h0.1l0.9,3.1h1.6L47.7,45
		C48.3,44.5,48.6,43.7,48.6,42.5z M47.1,42.3v0.3c0,1.3-0.5,1.3-0.7,1.3h-0.2v-3.1h0.2c0.1,0,0.3,0.1,0.4,0.2
		C47,41.5,47.1,41.9,47.1,42.3C47.1,42.3,47.1,42.3,47.1,42.3z M20.7,37.4c0.7,0.1,1.3-0.3,1.7-0.7c0.4-0.7,0.5-1.5,0.5-2.2v-3.3
		c0-0.8-0.1-1.7-0.5-2.3c-0.4-0.5-1-0.7-1.6-0.7c-0.7-0.1-1.3,0.3-1.7,0.7c-0.4,0.7-0.5,1.5-0.5,2.2v3.3c-0.1,0.8,0.1,1.6,0.6,2.3
		C19.5,37.1,20,37.3,20.7,37.4L20.7,37.4z M20.1,30.9c-0.1-0.4,0.1-0.8,0.2-1.2c0.1-0.1,0.3-0.3,0.4-0.3c0.4,0,0.7,0.5,0.7,1.5v3.7
		c0,0.9-0.2,1.5-0.7,1.5c-0.1,0-0.3-0.1-0.4-0.2c-0.2-0.4-0.2-0.8-0.2-1.3V30.9L20.1,30.9z M53.9,46.4c0-0.4-0.1-0.9-0.2-1.3
		c-0.1-0.3-0.3-0.5-0.5-0.8c-0.2-0.2-0.3-0.3-0.6-0.5l-0.9-0.7c-0.1-0.1-0.3-0.3-0.4-0.5c-0.1-0.3-0.1-0.5-0.1-0.9c0-1,0.4-1,0.5-1
		c0.3,0,0.6,0.4,0.6,1.3v0.3l1.5-0.3v-0.3c0-0.7-0.2-1.3-0.6-1.8L53.2,40c-0.9-0.7-2.1-0.7-3,0.1l-0.1,0.1c-0.4,0.5-0.6,1.3-0.5,1.9
		c-0.1,1,0.4,1.9,1.2,2.5l0.9,0.7c0.3,0.3,0.5,0.7,0.5,1.3l0,0c0,1-0.5,1-0.7,1l0,0c-0.1,0-0.3-0.1-0.4-0.3
		c-0.2-0.4-0.3-0.9-0.2-1.3v-0.3l-1.5,0.3v0.3c0,0.8,0.3,1.5,0.7,2.2c0.4,0.5,0.9,0.7,1.5,0.7h0.1c0.5,0,1.1-0.2,1.5-0.6
		C53.7,47.7,53.9,47.1,53.9,46.4L53.9,46.4z M31.8,46.1c0,0.3-0.1,0.7-0.3,1.1c-0.1,0.1-0.2,0.1-0.3,0.1c-0.1,0-0.3-0.1-0.3-0.2
		c-0.2-0.4-0.2-0.8-0.2-1.1l0,0v-3.7c0-0.4,0.1-0.9,0.2-1.3c0.1-0.1,0.2-0.2,0.3-0.2c0.1,0,0.3,0.1,0.3,0.1c0.1,0.3,0.3,0.6,0.3,0.9
		v0.4l1.4-0.3v-0.3c0-0.7-0.2-1.3-0.6-1.7c-0.4-0.3-0.9-0.5-1.4-0.5c-0.6,0-1.2,0.3-1.5,0.7c-0.4,0.7-0.5,1.5-0.5,2.3v3.2
		c0,0.8,0.1,1.7,0.5,2.3l0.1,0.1c0.4,0.4,0.9,0.7,1.5,0.7c0.5,0,1.1-0.2,1.5-0.5l0.1-0.1c0.4-0.5,0.6-1.2,0.6-1.9V46l-1.4-0.2
		C31.9,45.8,31.8,46.1,31.8,46.1z M23.9,39.5h-1.5v6.4c0,0.4-0.1,0.8-0.2,1.2c-0.1,0.1-0.3,0.2-0.4,0.2l0,0c-0.1,0-0.3-0.1-0.4-0.2
		c-0.2-0.4-0.3-0.8-0.2-1.3v-6.4h-1.5v6.2c-0.1,0.8,0.1,1.7,0.5,2.3c0.3,0.5,0.9,0.7,1.5,0.7h0.1c0.7,0,1.3-0.3,1.7-0.8
		c0.4-0.7,0.6-1.5,0.5-2.3C24,45.7,23.9,39.5,23.9,39.5z M27.5,35.9h-1.9v-7.7h-1.5v9.1h3.4V35.9L27.5,35.9L27.5,35.9z M24.7,40.9
		h1.1v7.6h1.7v-7.6h1.1v-1.4h-3.8V40.9z"/>
</g>
</svg>
