<?xml version="1.0" encoding="utf-8"?>
<svg version="1.1" id="Layer_1" xmlns="http://www.w3.org/2000/svg" xmlns:xlink="http://www.w3.org/1999/xlink" x="0px" y="0px"
	 viewBox="0 0 1430.9 128.4" style="enable-background:new 0 0 1430.9 128.4;" xml:space="preserve">
<g>
	<path style="fill:#E30613;" d="M201.5,14.6c0-8.1,6.4-14.1,16.3-14.1S234,6,234,14.6v98.9c0,8.1-6.4,14.1-16.3,14.1
		s-16.3-5.6-16.3-14.1V14.6z"/>
	<path style="fill:#E30613;" d="M260.7,17.1c0-11.6,6.4-16.3,20.2-16.3c6.9,0,12.3,2.1,16.3,7.3l56.3,78.8h0.5V14.1
		c0-9,5.9-13.3,15.3-13.3s15.3,4.3,15.3,13.3v96.3c0,11.1-5.4,17.6-19.3,17.6c-10.4,0-13.3-1.7-17.8-7.3l-55.3-77.1h-0.5v70.6
		c0,9-5.9,13.3-15.3,13.3c-9.4,0-15.3-4.3-15.3-13.3V17.1H260.7z"/>
	<path style="fill:#E30613;" d="M436,26.5h-22.7c-9.4,0-16.8-4.3-16.8-11.6c0-7.7,7.4-11.6,16.8-11.6h78c9.4,0,16.8,4.3,16.8,11.6
		c0,7.7-7.4,11.6-16.8,11.6h-22.7v87.3c0,8.1-6.4,14.1-16.3,14.1c-9.9,0-16.3-5.6-16.3-14.1V26.5z"/>
	<path style="fill:#E30613;" d="M519.4,19.3c0-12.4,7.4-16.3,18.8-16.3h70.6c9.4,0,16.3,2.6,16.3,11.1c0,8.6-6.9,11.1-16.3,11.1
		h-57.3v26.5h49.4c8.4,0,15.3,2.1,15.3,10.7c0,8.6-6.9,10.7-15.3,10.7h-49.4v29.5h58.8c9.4,0,16.3,2.6,16.3,11.1
		c0,8.6-6.9,11.1-16.3,11.1h-72.1c-11.4,0-18.8-3.9-18.8-16.3V19.3L519.4,19.3z"/>
	<path style="fill:#E30613;" d="M673,57.4h27.2c12.3,0,24.2-2.6,24.2-16.7c0-13.3-9.4-16.7-23.2-16.7H673L673,57.4L673,57.4z
		 M640.9,19.3c0-12.4,7.4-16.3,18.8-16.3H708c38.5,0,48.4,18.4,48.4,34.3c0,13.3-8.9,26.5-24.2,29.5v0.4
		c16.3,2.1,19.3,12.4,19.3,24.8c0,14.1,4.4,19.3,4.4,25.3c0,6.4-7.9,10.7-15.3,10.7c-17.8,0-19.3-15-19.3-19.7
		c0-21.4-4.4-30-22.2-30h-26.7v36c0,8.1-6.4,14.1-16.3,14.1c-9.9,0-16.3-5.6-16.3-14.1v-95H640.9z"/>
	<path style="fill:#164194;" d="M1197.4,57.4h27.2c12.3,0,24.2-2.6,24.2-16.7c0-13.3-9.4-16.7-23.2-16.7h-28.1L1197.4,57.4
		L1197.4,57.4z M1165.3,19.3c0-12.4,7.4-16.3,18.8-16.3h48.4c38.5,0,48.4,18.4,48.4,34.3c0,13.3-8.9,26.5-24.2,29.5v0.4
		c16.3,2.1,19.3,12.4,19.3,24.8c0,14.1,4.4,19.3,4.4,25.3c0,6.4-7.9,10.7-15.3,10.7c-17.8,0-19.3-15-19.3-19.7
		c0-21.4-4.4-30-22.2-30h-26.7v36c0,8.1-6.4,14.1-16.3,14.1c-9.9,0-16.3-5.6-16.3-14.1v-95H1165.3z"/>
	<path style="fill:#164194;" d="M852.2,54.4c29.6,6,37,21,37,35.1c0,22.3-19.3,38.5-58.3,38.5c-41,0-59.2-17.6-59.2-30.8
		c0-6.8,5.9-11.6,13.3-11.6c17.3,0,12.8,22.3,45.4,22.3c16.8,0,25.7-8.1,25.7-16.3c0-5.1-3-10.3-13.8-12.8l-36.5-8.1
		c-29.1-6.4-34.6-20.5-34.6-33.4C771.2,9.8,800.4,0,827.5,0c25.2,0,54.8,12.4,54.8,28.7c0,6.9-6.9,11.1-14.8,11.1
		c-14.8,0-12.3-18.4-42.5-18.4c-14.8,0-23.2,6-23.2,14.6s11.8,11.1,22.2,13.3L852.2,54.4z"/>
	<path style="fill:#164194;" d="M935.7,59.1h25.2c12.8,0,22.7-6.9,22.7-17.6c0-12.4-9.9-17.6-25.7-17.6h-21.7v35.1L935.7,59.1
		L935.7,59.1z M903.6,19.3C903.6,6.9,911,3,922.3,3h44.4c27.2,0,48.9,11.6,48.9,39c0,22.3-17.8,39-48.9,39h-30.6v33.4
		c0,8.1-6.4,14.1-16.3,14.1c-9.9,0-16.3-5.6-16.3-14.1V19.3z"/>
	<path style="fill:#164194;" d="M1086.3,105.7c29.1,0,29.1-19.7,29.1-43.2c0-23.5-3-40.2-29.1-40.2c-26.2,0-29.1,16.7-29.1,40.2
		C1057.1,86.1,1056.1,105.7,1086.3,105.7 M1086.3,0c46.4,0,61.7,26.5,61.7,62.5c0,34.7-13.3,65.9-61.7,65.9
		c-50.9,0-61.7-28.7-61.7-65.9C1024.5,26.5,1039.9,0,1086.3,0"/>
	<path style="fill:#164194;" d="M1324.3,26.5h-22.7c-9.4,0-16.8-4.3-16.8-11.6c0-7.7,7.4-11.6,16.8-11.6h78
		c9.4,0,16.8,4.3,16.8,11.6c0,7.7-7.4,11.6-16.8,11.6h-22.7v87.3c0,8.1-6.4,14.1-16.3,14.1c-9.9,0-16.3-5.6-16.3-14.1V26.5z"/>
	<path style="fill:#164194;" d="M1415.1,13.7V9.4h3.9c1,0,1.5,0,2.5,0.4c1,0.4,1,0.9,1,1.7c0,0.4-0.5,1.3-1,1.7c-1,0.4-2,0.9-3,0.9
		h-3.5V13.7z M1425,20.6l-3.5-5.6c2-0.4,3-1.7,3-3c0-0.9-0.5-2.1-2-2.6c-1-0.4-2.5-0.9-3.9-0.9h-6.4V21h2v-6h4.4l3,5.1h3.5
		L1425,20.6L1425,20.6z"/>
	<path style="fill:#164194;" d="M1418.6,5.6c-5.9,0-10.4,3.8-10.4,9c0,5.1,4.4,9,10.4,9c5.9,0,10.4-3.9,10.4-9
		C1428.9,9.4,1424,5.6,1418.6,5.6 M1418.6,25.3c-6.9,0-12.3-4.7-12.3-10.7c0-6,5.4-10.7,12.3-10.7c6.9,0,12.3,4.7,12.3,10.7
		C1430.9,20.6,1425.5,25.3,1418.6,25.3"/>
	<path style="fill:#E30613;" d="M0,29.1c0-15,14.3-27.4,31.6-27.4c17.3,0,31.6,12.4,31.6,27.4c0,15-14.3,27.4-31.6,27.4
		C14.3,56.5,0,44.1,0,29.1"/>
	<path style="fill:#164194;" d="M31.6,126.3c-4.4,0-7.9-3.4-7.9-7.3v-45c0-4.3,3.5-7.3,7.9-7.3C81.5,66.8,85.4,8.1,157,8.1
		c4,0,7.9,3.4,7.9,7.3v44.5c0,4.3-3.5,7.3-7.9,7.3C108.1,67.6,105.2,126.3,31.6,126.3"/>
</g>
</svg>
