<?xml version="1.0" encoding="utf-8"?>
<svg version="1.1" id="Layer_1" xmlns="http://www.w3.org/2000/svg" xmlns:xlink="http://www.w3.org/1999/xlink" x="0px" y="0px"
	 viewBox="0 0 1152 114.6" style="enable-background:new 0 0 1152 114.6;" xml:space="preserve">
<g>
	<path style="fill:#1D1D1B;" d="M0,112.6v-3.2c4.5-0.6,7.7-1.9,9.6-5.1c1.9-2.6,5.8-10.2,10.9-22.4L55,0.6h3.2l41,94.1
		c2.6,6.4,5.1,10.2,6.4,11.5c2.5,1.7,5.3,2.8,8.3,3.2v3.2H71.7v-3.2c5.1-0.6,7.7-0.6,9.6-1.3c1.3-0.6,1.9-1.9,1.9-4.5
		c0-0.6,0-1.9-0.6-4.5c-0.6-1.9-1.3-4.5-2.6-6.4l-6.4-16H30.1l-7.7,19.8c-0.6,2.6-1.3,4.5-1.3,5.8c0,2.6,1.3,4.5,3.2,5.8
		c1.3,0.6,3.8,1.3,7.7,1.3v3.2L0,112.6L0,112.6z M71,69.8L51.8,24.3L32.6,69.8H71z M151.7,109.4c6.4-0.6,10.2-1.9,11.5-3.2
		c1.9-1.3,2.6-5.1,2.6-11.5V21.1c0-5.8-0.6-9.6-2.6-11.5c-1.9-1.9-5.8-3.2-12.2-3.2V3.2h47.4v3.2C192,7,188.2,7.7,186.2,9.6
		s-3.2,5.1-3.2,10.9v79.4c0,1.9,0,3.2,0.6,4.5c0.6,1.3,1.9,1.9,3.8,1.9c1.3,0,2.6,0,3.8,0.6h7.7c14.7,0,25-1.3,30.1-3.8
		c5.1-2.6,10.2-8.3,15.4-18.6h4.5l-8.3,28.8h-89V109.4z M286.1,109.4c6.4-0.6,10.2-1.9,11.5-3.2c1.9-1.3,2.6-5.1,2.6-11.5V21.1
		c0-5.8-0.6-9.6-2.6-11.5c-1.9-1.9-5.8-3.2-12.2-3.2V3.2h47.4v3.2c-6.4,0.6-10.2,1.3-12.2,3.2s-3.2,5.1-3.2,10.9v79.4
		c0,1.9,0,3.2,0.6,4.5c0.6,1.3,1.9,1.9,3.8,1.9c1.3,0,2.6,0,3.8,0.6h7.7c14.7,0,25-1.3,30.1-3.8c5.1-2.6,10.2-8.3,15.4-18.6h4.5
		l-8.3,28.8h-89V109.4z"/>
	<g>
		<path id="B" style="fill:#1D1D1B;" d="M428.8,79.4c2.6,7.7,5.8,13.4,9.6,17.9c6.4,7.7,14.7,11.5,24.3,11.5c5.1,0,9.6-1.9,13.4-5.1
			s5.8-7.7,5.8-14.1c0-5.1-1.9-10.2-5.8-14.1c-2.6-2.6-7.7-6.4-16-11.5l-14.1-9c-4.5-2.6-7.7-5.1-10.2-8.3c-4.5-5.1-7-10.9-7-17.3
			c0-8.3,2.6-15.4,8.3-21.1S449.9,0,458.9,0c3.8,0,8.3,0.6,13.4,2.6c5.1,1.9,8.3,2.6,9,2.6c1.9,0,3.2-0.6,4.5-1.3l1.9-3.8h3.2
			l3.8,35.2h-3.8c-2.6-10.9-7-17.9-12.8-22.4s-11.5-6.4-17.9-6.4c-4.5,0-8.3,1.3-11.5,3.8c-3.2,2.6-5.1,6.4-5.1,10.9
			c-0.1,4,1.3,7.9,3.8,10.9c2.6,3.2,6.4,6.4,12.2,9.6l14.7,9c9,5.8,15.4,10.9,19.2,15.4s5.8,10.2,5.8,16.6c0,9-3.2,16-9.6,21.8
			s-14.7,9-25,9c-5.1,0-10.2-1.3-16-3.2l-9.6-3.2c-1.9,0-3.2,0.6-3.8,1.9s-1.3,2.6-1.3,3.8h-3.8L425,77.4h3.8L428.8,79.4z"/>
	</g>
	<path style="fill:#1D1D1B;" d="M545.9,112.6v-3.2c4.5-0.6,7.7-1.9,9.6-5.1c1.9-2.6,5.8-10.2,10.9-22.4L601,0.6h3.2l41,94.1
		c2.6,6.4,5.1,10.2,6.4,11.5c2.5,1.7,5.3,2.8,8.3,3.2v3.2h-42.2v-3.2c5.1-0.6,7.7-0.6,9.6-1.3c1.3-0.6,1.9-1.9,1.9-4.5
		c0-0.6,0-1.9-0.6-4.5c-0.6-1.9-1.3-4.5-2.6-6.4l-6.4-16H576l-7.7,19.8c-0.6,2.6-1.3,4.5-1.3,5.8c0,2.6,1.3,4.5,3.2,5.8
		c1.3,0.6,3.8,1.3,7.7,1.3v3.2L545.9,112.6L545.9,112.6z M617,69.8l-19.2-45.4l-19.2,45.4H617z M698.9,109.4
		c7-0.6,10.9-1.3,12.8-3.2c1.9-1.3,3.2-5.8,3.2-12.2v-73c0-6.4-1.3-10.2-3.2-11.5c-1.9-1.9-6.4-2.6-12.8-3.2V3.2h48.6v3.2
		c-7,0.6-10.9,1.3-12.8,3.2c-1.9,1.9-3.2,5.8-3.2,11.5v73.6c0,6.4,1.3,10.2,3.2,12.2c1.9,1.3,6.4,2.6,12.8,3.2v3.2h-48.6V109.4
		L698.9,109.4z M785.9,109.4c7-0.6,11.5-2.6,13.4-4.5c1.9-2.6,3.2-7.7,3.2-16.6v-73l-2.6-2.6c-2.6-2.6-4.5-4.5-6.4-5.1
		c-2.5-0.8-5.1-1.3-7.7-1.3V3.2h28.2l64,79.4v-55c0-9-1.3-14.7-3.8-17.9c-1.9-1.9-5.8-3.2-11.5-3.2V3.2h39v3.2
		c-6.4,0.6-10.2,1.9-12.8,4.5c-1.9,2.6-3.2,7.7-3.2,16.6v87h-2.6l-73-90.9v64.6c0,9,1.3,14.7,3.8,17.9c1.9,1.9,5.8,3.2,11.5,3.8v3.2
		h-39v-3.8H785.9z M940.2,3.2h93.4l0.6,28.2h-3.8c-1.9-9-4.5-14.7-7.7-17.3s-9-3.8-18.6-3.8h-9v84.5c0,6.4,1.3,10.2,3.2,12.2
		c1.9,1.3,6.4,2.6,12.8,3.2v3.2h-48v-3.2c7-0.6,11.5-1.9,12.8-3.2c1.9-1.9,2.6-6.4,2.6-13.4V9.6H969c-9,0-15.4,1.3-18.6,3.8
		s-5.8,8.3-7.7,17.3h-3.8L940.2,3.2L940.2,3.2z"/>
	<g>
		<path id="B_1_" style="fill:#1D1D1B;" d="M1081.6,79.4c2.6,7.7,5.8,13.4,9.6,17.9c6.4,7.7,14.7,11.5,24.3,11.5
			c5.1,0,9.6-1.9,13.4-5.1c3.8-3.2,5.8-7.7,5.8-14.1c0-5.1-1.9-10.2-5.8-14.1c-2.6-2.6-7.7-6.4-16-11.5l-14.1-9
			c-4.5-2.6-7.7-5.1-10.2-8.3c-4.5-5.1-7-10.9-7-17.3c0-8.3,2.6-15.4,8.3-21.1s12.8-8.3,21.8-8.3c3.8,0,8.3,0.6,13.4,2.6
			s8.3,2.6,9,2.6c1.9,0,3.2-0.6,4.5-1.3l1.9-3.8h3.2l3.8,35.2h-3.8c-2.6-10.9-7-17.9-12.8-22.4s-11.5-6.4-17.9-6.4
			c-4.5,0-8.3,1.3-11.5,3.8s-5.1,6.4-5.1,10.9c-0.1,4,1.3,7.9,3.8,10.9c2.6,3.2,6.4,6.4,12.2,9.6l14.7,9c9,5.8,15.4,10.9,19.2,15.4
			c3.8,4.5,5.8,10.2,5.8,16.6c0,9-3.2,16-9.6,21.8c-6.4,5.8-14.7,9-25,9c-5.1,0-10.2-1.3-16-3.2l-9.6-3.2c-1.9,0-3.2,0.6-3.8,1.9
			c-0.6,1.3-1.3,2.6-1.3,3.8h-3.8l-5.1-35.2h3.8L1081.6,79.4z"/>
	</g>
</g>
</svg>
