<?xml version="1.0" encoding="utf-8"?>
<svg version="1.1" id="Layer_1" xmlns="http://www.w3.org/2000/svg" xmlns:xlink="http://www.w3.org/1999/xlink" x="0px" y="0px"
	width="100px" height="100px" viewBox="0 0 100 100" style="enable-background:new 0 0 100 100;" xml:space="preserve">
<g>
	<path style="fill:#E8E8E8;" d="M50,0c27.61,0,50,22.39,50,50s-22.39,50-50,50S0,77.61,0,50S22.39,0,50,0"/>
	<path style="fill:#FFFFFF;" d="M50,1c27.06,0,49,21.94,49,49S77.06,99,50,99S1,77.06,1,50S22.94,1,50,1"/>
	<g>
		<path style="fill-rule:evenodd;clip-rule:evenodd;fill:#151616;" d="M79.33,48.98v-5.34c0-0.12-0.1-0.21-0.21-0.21h-0.86
			c-0.12,0-0.21,0.1-0.21,0.21v5.34l-2.01,3.67c-0.04,0.07-0.03,0.15,0,0.21c0.04,0.06,0.11,0.1,0.18,0.1h0.94
			c0.08,0,0.15-0.04,0.19-0.11l1.35-2.47l1.42,2.47c0.04,0.07,0.11,0.11,0.19,0.11h0.89c0.08,0,0.15-0.04,0.18-0.11
			c0.04-0.07,0.04-0.15,0-0.21L79.33,48.98z M51.73,44.62h-0.96c-0.12,0-0.21-0.1-0.21-0.21v-0.78c0-1.09,0.85-1.98,1.94-2.03h2.74
			l0.57-0.61c0.25-0.27,0.67-0.25,0.9,0.03l0.53,0.58h2.76c1.08,0,1.96,0.88,1.96,1.96v0.87c0,0.12-0.1,0.21-0.21,0.21h-1.01
			c-0.12,0-0.21-0.1-0.21-0.21v-0.67c0-0.54-0.44-0.98-0.98-0.98h-6.61c-0.54,0-0.98,0.44-0.98,0.98v0.66
			C51.94,44.52,51.85,44.62,51.73,44.62z M48.76,42.69h-10.9c-0.12,0-0.21-0.1-0.21-0.21v-0.69c0-0.12,0.1-0.21,0.21-0.21h1.67
			l0.59-0.62c0.21-0.23,0.57-0.23,0.79-0.01l0.58,0.59h3.51l0.66-0.63c0.2-0.19,0.51-0.19,0.71,0.01l0.61,0.62h1.78
			c0.12,0,0.21,0.1,0.21,0.21v0.72C48.97,42.6,48.88,42.69,48.76,42.69z M38.46,51.38l1.14-4.68c0.02-0.06,0-0.13-0.04-0.18
			c-0.04-0.05-0.1-0.08-0.17-0.08h-0.85c-0.1,0-0.18,0.07-0.21,0.16l-1.14,4.68c-0.02,0.06,0,0.13,0.04,0.18
			c0.04,0.05,0.1,0.08,0.17,0.08h0.85C38.35,51.55,38.44,51.48,38.46,51.38z M43.8,44.37H42.9c-0.07,0-0.13-0.03-0.17-0.08
			c-0.04-0.05-0.06-0.12-0.04-0.18l0.08-0.31c0.02-0.06,0-0.13-0.04-0.18c-0.04-0.05-0.1-0.08-0.17-0.08h-0.93
			c-0.1,0-0.18,0.07-0.21,0.16l-0.12,0.51c-0.02,0.1-0.11,0.16-0.21,0.16h-3.03c-0.12,0-0.21,0.1-0.21,0.21v0.82
			c0,0.12,0.1,0.21,0.21,0.21h2.63c0.07,0,0.13,0.03,0.17,0.08c0.04,0.05,0.06,0.12,0.04,0.18l-1.6,6.73
			c-0.02,0.06,0,0.13,0.04,0.18c0.04,0.05,0.1,0.08,0.17,0.08h0.93c0.1,0,0.18-0.07,0.21-0.16l1.65-6.93
			c0.02-0.1,0.11-0.16,0.21-0.16h1.38c0.95,0,1.73,0.77,1.73,1.73v2.14c0,1.25-1,2.25-2.25,2.25H42.3c-0.1,0-0.19,0.07-0.21,0.17
			l-0.16,0.72c-0.01,0.06,0,0.13,0.04,0.18c0.04,0.05,0.1,0.08,0.17,0.08h1.66c1.73,0,3.14-1.41,3.14-3.14v-2.24
			C46.93,45.77,45.53,44.37,43.8,44.37z M48.62,45.67h-0.8c-0.12,0-0.22,0.11-0.21,0.23l0.42,5.63c0.01,0.11,0.1,0.2,0.21,0.2h0.8
			c0.12,0,0.22-0.11,0.21-0.23l-0.42-5.63C48.82,45.76,48.73,45.67,48.62,45.67z M50.75,46.66h6.41c0.12,0,0.21,0.1,0.21,0.21
			l-0.01,2.81c0,1.11-0.91,2.01-2.02,2.01h-2.44c-0.1,0-0.18,0.07-0.21,0.16l-0.22,0.86c-0.02,0.06,0,0.13,0.04,0.18
			c0.04,0.05,0.1,0.08,0.17,0.08h2.8c1.78,0,3.22-1.44,3.22-3.22v-2.88c0-0.12,0.1-0.21,0.21-0.21h2.84c0.12,0,0.21-0.1,0.21-0.21
			V45.7c0-0.12-0.1-0.21-0.21-0.21H50.75c-0.12,0-0.21,0.1-0.21,0.21v0.74C50.54,46.56,50.63,46.66,50.75,46.66z M65.96,46.46
			c0.03,0,0.05,0,0.08,0h5.79c1.46,0,2.63-1.18,2.63-2.63v-0.23c0-1.46-1.18-2.63-2.63-2.63h-5.79c-1.46,0-2.63,1.18-2.63,2.63v0.23
			c0,0.97,0.52,1.81,1.3,2.27l-1.64,4.2c-0.03,0.07-0.02,0.14,0.02,0.2s0.11,0.09,0.18,0.09h0.93c0.09,0,0.17-0.05,0.2-0.14
			l0.72-1.83c0.03-0.08,0.11-0.14,0.2-0.14h1.01c0.07,0,0.14,0.04,0.18,0.09c0.04,0.06,0.05,0.13,0.02,0.2l-1.53,3.91
			c-0.03,0.07-0.02,0.14,0.02,0.2c0.04,0.06,0.11,0.09,0.18,0.09h0.93c0.09,0,0.17-0.05,0.2-0.14l1.65-4.22
			c0.03-0.08,0.11-0.14,0.2-0.14h1.22c0.07,0,0.14,0.04,0.18,0.09c0.04,0.06,0.05,0.13,0.02,0.2l-1.53,3.91
			c-0.03,0.07-0.02,0.14,0.02,0.2c0.04,0.06,0.11,0.09,0.18,0.09h0.93c0.09,0,0.17-0.05,0.2-0.14l1.65-4.22
			c0.03-0.08,0.11-0.14,0.2-0.14h0.65c0.38,0,0.71,0.15,0.99,0.45c0.27,0.3,0.41,0.66,0.41,1.08v0.26c0,0.42-0.14,0.78-0.41,1.08
			c-0.27,0.3-0.6,0.45-0.99,0.45h-0.45c-0.09,0-0.17,0.05-0.2,0.13l-0.3,0.74c-0.03,0.07-0.02,0.14,0.02,0.2
			c0.04,0.06,0.11,0.09,0.18,0.09h0.74c1.48,0,2.68-1.21,2.68-2.71v-0.23c0-1.5-1.2-2.71-2.68-2.71h-6.25L65.96,46.46z M64.75,43.16
			h7.3c0.12,0,0.21,0.1,0.21,0.21v0.68c0,0.12-0.1,0.21-0.21,0.21h-7.3c0.07,0.19,0.18,0.37,0.33,0.52c0.27,0.26,0.59,0.4,0.97,0.4
			h5.78c0.38,0,0.7-0.13,0.96-0.4c0.27-0.27,0.4-0.59,0.4-0.97v-0.23c0-0.38-0.13-0.7-0.4-0.96c-0.26-0.27-0.58-0.4-0.96-0.4h-5.78
			c-0.38,0-0.7,0.13-0.97,0.4C64.92,42.78,64.81,42.96,64.75,43.16z M81.29,43.61v5.47c0,0.12-0.1,0.21-0.21,0.21h-0.84
			c-0.12,0-0.21-0.1-0.21-0.21v-5.47c0-0.38-0.13-0.7-0.4-0.97c-0.27-0.27-0.59-0.4-0.97-0.4c-0.38,0-0.7,0.13-0.97,0.4
			c-0.27,0.27-0.4,0.59-0.4,0.97v5.47c0,0.12-0.1,0.21-0.21,0.21l-0.84,0c-0.12,0-0.21-0.1-0.21-0.21v-5.47
			c0-1.46,1.18-2.64,2.64-2.64S81.29,42.15,81.29,43.61z M85.53,49.86v-6.21c0-0.12-0.1-0.21-0.21-0.21h-0.85
			c-0.12,0-0.21,0.1-0.21,0.21v6.25c0,0.26-0.21,0.47-0.47,0.47c-0.26,0-0.47-0.21-0.47-0.47v-6.25c0-0.12-0.1-0.21-0.21-0.21h-0.84
			c-0.12,0-0.21,0.1-0.21,0.21v6.21c0,0.96,0.78,1.74,1.74,1.74C84.75,51.59,85.53,50.81,85.53,49.86z M83.37,41.36v-0.24
			c0-0.17-0.14-0.31-0.32-0.31h-0.64c-0.17,0-0.31,0.14-0.31,0.31v1.51h2.55c0.93,0,1.69,0.76,1.69,1.69v6.71
			c0,0.37-0.3,0.67-0.67,0.67h-0.4c-0.1,0-0.18,0.06-0.21,0.15l-0.24,0.85c-0.02,0.06-0.01,0.13,0.03,0.19
			c0.04,0.05,0.1,0.08,0.17,0.08h0.44c1.18,0,2.14-0.96,2.14-2.14v-6.66c0-1.55-1.26-2.81-2.81-2.81H83.37z M63.53,61.84
			c-0.46-0.06-0.89-0.17-0.98-0.24c-0.04-0.04-0.06-0.16-0.06-0.43c0-0.49,0.03-0.52,0.4-0.42c0.62,0.16,0.81,0.2,1.21,0.2
			c0.6,0,0.93-0.1,1.21-0.36c0.2-0.19,0.27-0.38,0.29-0.78c0.02-0.38,0.05-0.36-0.32-0.22c-0.1,0.04-0.34,0.09-0.52,0.12
			c-0.62,0.09-1.22-0.04-1.69-0.33c-0.92-0.57-1.19-1.78-0.93-2.78c0.27-1.02,1.14-1.59,2.17-1.6c0.16,0,0.32,0,0.47,0.01
			c0.19,0.01,0.3,0.04,0.48,0.1c0.31,0.11,0.32,0.11,0.4,0.03c0.07-0.07,0.15-0.08,0.53-0.08c0.38,0,0.46,0.01,0.52,0.08
			c0.07,0.07,0.07,0.31,0.07,2.49c0,1.54,0,2.23-0.06,2.63c-0.09,0.61-0.53,1.09-1.07,1.36c-0.11,0.06-0.23,0.1-0.35,0.14
			C64.81,61.91,64.24,61.94,63.53,61.84z M87.64,58.67v-1.52c0-1-0.02-1.03-0.1-1.22c-0.14-0.3-0.38-0.54-0.73-0.72
			c-0.61-0.32-1.45-0.34-2.06,0c-0.1,0.06-0.2,0.12-0.31,0.21c-0.07,0.06-0.15,0.1-0.17,0.1c-0.02,0-0.11-0.06-0.2-0.13
			c-0.54-0.43-1.42-0.53-2.07-0.24l-0.25,0.11l-0.08-0.11c-0.08-0.1-0.11-0.11-0.49-0.11c-0.13,0-0.23,0-0.31,0.01
			c-0.13,0.02-0.29,0.06-0.29,0.21l0,2.09c0,1.2,0.02,2.2,0.03,2.23c0.02,0.03,0.06,0.06,0.1,0.07c0.04,0.01,0.24,0.03,0.46,0.03
			c0.29,0,0.42-0.01,0.49-0.06l0.1-0.07l0-0.9c0-0.27,0-0.53,0-0.79c0-0.61-0.16-1.6,0.54-1.88c0.62-0.24,1.18,0.15,1.23,0.8
			c0.05,0.61,0.02,1.25,0.03,1.87c0.01,0.39,0.02,0.7,0.03,0.86c0,0.02,0,0.04,0,0.07c0.01,0.16,1.13,0.17,1.13-0.07l0-1.48
			c0-0.5,0-0.83,0-1.06c0-0.22,0-0.43,0.1-0.63c0.15-0.29,0.45-0.43,0.85-0.4c0.35,0.02,0.57,0.16,0.69,0.4
			c0.09,0.2,0.09,0.42,0.1,0.63c0,0.23,0,0.57,0,1.05v1.53l0.1,0.07c0.11,0.08,0.86,0.1,0.99,0.02
			C87.62,59.61,87.63,59.56,87.64,58.67z M64.11,55.9c-0.88,0.2-1.09,1.3-0.82,2.1c0.13,0.41,0.43,0.69,0.82,0.78
			c0.85,0.18,1.39-0.35,1.47-1.16c0.09-0.96-0.31-1.95-1.45-1.72C64.12,55.9,64.11,55.9,64.11,55.9z M38.77,59.7
			c-0.33-0.03-1.01-0.15-1.25-0.22c-0.13-0.04-0.26-0.11-0.29-0.16c-0.1-0.14-0.09-0.6,0.02-0.73c0.08-0.1,0.08-0.1,0.34-0.03
			c0.32,0.09,0.65,0.15,0.96,0.18c0.37,0.04,1.92,0.12,1.81-0.54c-0.05-0.32-0.67-0.45-1.15-0.53c-0.59-0.09-1.33-0.14-1.74-0.62
			c-0.23-0.26-0.31-0.61-0.23-0.98c0.32-1.35,2.54-1.18,3.58-1.03c0.27,0.04,0.43,0.09,0.47,0.14c0.06,0.08,0.07,0.6,0.02,0.7
			c-0.04,0.06-0.11,0.07-0.49,0.02c-0.33-0.04-0.99-0.14-1.52-0.1c-0.13,0.01-0.35,0.04-0.52,0.12c-0.34,0.16-0.33,0.49,0,0.65
			c0.32,0.15,0.85,0.17,1.07,0.21c0.52,0.09,1.07,0.2,1.45,0.59c0.33,0.34,0.47,0.82,0.29,1.32c-0.14,0.37-0.46,0.61-0.81,0.75
			c-0.33,0.13-0.76,0.21-1.27,0.23C39.2,59.71,38.88,59.71,38.77,59.7z M42.55,58.11c-0.07-0.79-0.05-2.85,0.03-2.98
			c0.06-0.09,0.1-0.1,0.54-0.1c0.34,0,0.48,0.02,0.52,0.06c0.03,0.04,0.05,0.55,0.06,1.58c0.01,0.88,0.01,1.25,0.03,1.44
			c0.11,0.94,2.21,0.96,2.31,0c0.02-0.21,0.04-0.76,0.04-1.51c0-1.32,0.01-1.42,0.08-1.49c0.1-0.09,0.9-0.11,1.02-0.02
			c0.07,0.05,0.08,0.17,0.06,1.71l-0.01,1.08c0,0.08,0,0.16,0,0.23c-0.02,0.7-0.41,1.12-1.03,1.39c-0.7,0.3-1.89,0.29-2.59,0
			C42.99,59.25,42.6,58.78,42.55,58.11z M73.57,54.99c0.23,0.02,0.41,0.05,0.47,0.1c0.09,0.07,0.14,0.54,0.07,0.72l-0.04,0.11
			l-0.5,0c-0.37,0-0.79-0.02-1.18,0.04c-0.85,0.12-1.43,0.78-1.24,1.67c0.19,0.86,1.13,1.13,1.9,1.14c0.18,0,0.35-0.01,0.52-0.03
			c0.04,0,0.07-0.01,0.11-0.02c0.41-0.06,0.45-0.03,0.45,0.44c0,0.19-0.01,0.36-0.03,0.37c-0.04,0.04-0.25,0.08-0.52,0.11
			c-1.47,0.18-3.12-0.05-3.56-1.72c-0.41-1.55,0.74-2.72,2.21-2.91C72.67,54.96,73.13,54.96,73.57,54.99z M79.59,58.39
			c-0.31,0.79-1.07,1.21-1.94,1.3c-1.11,0.11-2.34-0.2-2.77-1.3c-0.26-0.67-0.21-1.86,0.19-2.46c0.63-0.94,1.95-1.11,2.98-0.89
			c1.46,0.32,1.89,1.66,1.64,2.99C79.67,58.16,79.63,58.28,79.59,58.39z M78.53,57.05c-0.19-1.68-2.38-1.6-2.58,0
			C75.67,59.39,78.8,59.51,78.53,57.05z M48.34,59.56c-0.08-0.08-0.09-0.14-0.09-2.22c0-2.54-0.06-2.31,0.62-2.31
			c0.46,0,0.55,0.03,0.55,0.18c0,0.1,0.03,0.1,0.22,0c0.21-0.11,0.44-0.18,0.69-0.22c0.73-0.11,1.63,0.04,2.19,0.55
			c0.29,0.27,0.43,0.61,0.45,1.06c0,0.05,0,0.1,0.01,0.15c0.01,0.26,0.01,0.62,0.01,1.13c0.01,1.45,0.01,1.62-0.06,1.69
			c-0.1,0.1-0.94,0.1-1.04,0c-0.06-0.06-0.07-0.26-0.07-1.49c0-0.57-0.01-1.07-0.02-1.35c-0.01-0.25-0.09-0.44-0.26-0.58
			c-0.26-0.22-0.81-0.29-1.26-0.22c-0.31,0.05-0.58,0.18-0.73,0.47c-0.06,0.12-0.1,0.26-0.1,0.42c0,0.06,0,0.13,0,0.19l-0.01,1.04
			c-0.01,1.33-0.02,1.49-0.09,1.53c-0.05,0.03-0.23,0.05-0.5,0.05C48.49,59.64,48.42,59.63,48.34,59.56z M54.16,59.6
			c-0.06-0.03-0.07-0.15-0.08-1.44c0-0.77,0-1.54,0-2.31c0.01-0.7,0.02-0.74,0.08-0.77c0.12-0.06,0.93-0.06,1,0.01
			c0.02,0.02,0.04,0.24,0.05,0.77c0.01,0.77,0.01,1.54,0.01,2.31c0,1.35-0.02,1.4-0.09,1.44C55.03,59.66,54.26,59.66,54.16,59.6z
			 M56.48,59.56c-0.08-0.08-0.09-0.14-0.09-2.22c0-2.54-0.06-2.31,0.62-2.31c0.46,0,0.55,0.03,0.55,0.18c0,0.1,0.03,0.1,0.22,0
			c0.21-0.11,0.44-0.18,0.69-0.22c0.73-0.11,1.63,0.04,2.19,0.55c0.29,0.27,0.43,0.61,0.45,1.06c0,0.05,0,0.1,0.01,0.15
			c0.01,0.26,0.01,0.62,0.01,1.13c0.01,1.45,0.01,1.62-0.06,1.69c-0.1,0.1-0.94,0.1-1.04,0c-0.06-0.06-0.07-0.26-0.07-1.49
			c0-0.57-0.01-1.07-0.02-1.35c-0.01-0.25-0.09-0.44-0.26-0.58c-0.26-0.22-0.81-0.29-1.26-0.22c-0.31,0.05-0.58,0.18-0.73,0.47
			c-0.06,0.12-0.1,0.26-0.1,0.42c0,0.06,0,0.13,0,0.19l-0.01,1.04c-0.01,1.33-0.02,1.49-0.09,1.53c-0.05,0.03-0.23,0.05-0.5,0.05
			C56.62,59.64,56.55,59.63,56.48,59.56z M68.55,58.36c0.37,0,0.66,0.3,0.66,0.66c0,0.37-0.3,0.66-0.66,0.66
			c-0.37,0-0.66-0.3-0.66-0.66C67.89,58.66,68.18,58.36,68.55,58.36z"/>
		<path style="fill-rule:evenodd;clip-rule:evenodd;fill:#FEA600;" d="M26.57,57.1h3.01c0.97,0,1.76-0.79,1.76-1.76v-3.01l2.14-2.14
			c0.69-0.69,0.69-1.8,0-2.49l-2.14-2.14v-3.03c0-0.97-0.79-1.77-1.76-1.77h-3.04l-2.13-2.13c-0.69-0.69-1.8-0.69-2.49,0l-2.13,2.13
			h-3.01c-0.97,0-1.77,0.79-1.77,1.77v3.01l-2.14,2.14c-0.69,0.69-0.69,1.81,0,2.5l2.14,2.14v3.03c0,0.97,0.79,1.76,1.77,1.76h3.03
			l2.13,2.13c0.69,0.69,1.81,0.69,2.5,0L26.57,57.1z"/>
		<path style="fill-rule:evenodd;clip-rule:evenodd;fill:#FFFFFF;" d="M26.38,50.31c-0.21-1.55-1.54-2.73-3.15-2.73
			c-1.61,0-2.94,1.19-3.15,2.73h-0.02c-1.37,0-2.48,1.11-2.48,2.48c0,1.37,1.11,2.49,2.48,2.49h6.24c1.37,0,2.49-1.11,2.49-2.49
			C28.79,51.45,27.72,50.35,26.38,50.31z"/>
		<path style="fill-rule:evenodd;clip-rule:evenodd;fill:#151616;" d="M20.97,51.02l1.1,0.97c0.64,0.56,1.59,0.56,2.23,0l1.1-0.97
			c0.1-0.09,0.13-0.22,0.07-0.33c-0.06-0.11-0.18-0.19-0.33-0.19h-3.92c-0.14,0-0.27,0.07-0.33,0.19
			C20.84,50.8,20.87,50.93,20.97,51.02z"/>
		<path style="fill-rule:evenodd;clip-rule:evenodd;fill:#151616;" d="M19.84,46.69c0.44,0,0.8,0.36,0.8,0.8
			c0,0.44-0.36,0.8-0.8,0.8c-0.44,0-0.8-0.36-0.8-0.8C19.04,47.04,19.4,46.69,19.84,46.69z"/>
		<path style="fill-rule:evenodd;clip-rule:evenodd;fill:#151616;" d="M26.52,46.69c0.44,0,0.8,0.36,0.8,0.8
			c0,0.44-0.36,0.8-0.8,0.8s-0.8-0.36-0.8-0.8C25.72,47.04,26.08,46.69,26.52,46.69z"/>
	</g>
</g>
</svg>
