<?xml version="1.0"?>
<svg xmlns="http://www.w3.org/2000/svg" xmlns:xlink="http://www.w3.org/1999/xlink" xmlns:svgjs="http://svgjs.com/svgjs" version="1.1" width="512" height="512" x="0" y="0" viewBox="0 0 512 512" style="enable-background:new 0 0 512 512" xml:space="preserve" class=""><g><path xmlns="http://www.w3.org/2000/svg" d="m512 256c0 141.386719-114.613281 256-256 256s-256-114.613281-256-256 114.613281-256 256-256 256 114.613281 256 256zm0 0" fill="#f1f1f1" data-original="#4a7aff" style="" class=""/><path xmlns="http://www.w3.org/2000/svg" d="m278.125 511.039062c131.023438-11.21875 233.875-121.109374 233.875-255.039062 0-1.65625-.03125-3.308594-.0625-4.960938l-120.898438-120.894531-29.796874 123.042969-156.371094-156.375-38.777344 20.273438-20.425781 65.160156 21.28125 21.285156-14.160157 2.738281 20.121094 20.121094-10.625 1.949219-12.785156-12.785156-4.734375 16 61.019531 61.015624-128.96875 17.160157zm0 0" fill="#f1f1f1" data-original="#0053bf" style="" class=""/><path xmlns="http://www.w3.org/2000/svg" d="m145.667969 96.8125h26.238281v75.1875h-26.238281zm0 0" fill="#ffce00" data-original="#ffce00" style=""/><path xmlns="http://www.w3.org/2000/svg" d="m369.535156 267.679688h-117.070312l-98-170.867188h50.40625zm0 0" fill="#ff9500" data-original="#ff9500" style=""/><path xmlns="http://www.w3.org/2000/svg" d="m255.59375 149.449219v118.230469h113.941406zm0 0" fill="#fe8205" data-original="#fe8205" style=""/><path xmlns="http://www.w3.org/2000/svg" d="m76.816406 244.300781h253.441406v65.429688h-253.441406zm0 0" fill="#fe6a16" data-original="#fe6a16" style="" class=""/><path xmlns="http://www.w3.org/2000/svg" d="m255.59375 244.300781h74.664062v65.429688h-74.664062zm0 0" fill="#f24500" data-original="#f24500" style=""/><path xmlns="http://www.w3.org/2000/svg" d="m391.039062 130.144531h-60.78125v179.585938h116.925782v-98.847657zm0 0" fill="#ffa300" data-original="#ffa300" style=""/><path xmlns="http://www.w3.org/2000/svg" d="m418.792969 206.246094h-76.792969v-55.988282h39.476562zm0 0" fill="#e9edf5" data-original="#e9edf5" style=""/><path xmlns="http://www.w3.org/2000/svg" d="m418.792969 309.730469c0 17.503906-14.1875 31.695312-31.691407 31.695312-17.503906 0-31.695312-14.191406-31.695312-31.695312 0-17.503907 14.191406-31.695313 31.695312-31.695313 17.503907 0 31.691407 14.191406 31.691407 31.695313zm0 0" fill="#333940" data-original="#333940" style=""/><path xmlns="http://www.w3.org/2000/svg" d="m171.90625 309.730469c0 17.503906-14.1875 31.695312-31.691406 31.695312-17.507813 0-31.695313-14.191406-31.695313-31.695312 0-17.503907 14.1875-31.695313 31.695313-31.695313 17.503906 0 31.691406 14.191406 31.691406 31.695313zm0 0" fill="#414952" data-original="#414952" style=""/><g xmlns="http://www.w3.org/2000/svg" fill="#fff"><path d="m179.574219 166.027344c0 11.480468-9.308594 20.785156-20.789063 20.785156-11.476562 0-20.785156-9.304688-20.785156-20.785156 0-11.480469 9.308594-20.789063 20.785156-20.789063 11.480469 0 20.789063 9.308594 20.789063 20.789063zm0 0" fill="#ffffff" data-original="#ffffff" style=""/><path d="m158.785156 236.84375c-11.734375 0-21.285156-9.550781-21.285156-21.289062h12c0 5.121093 4.164062 9.289062 9.285156 9.289062s9.289063-4.167969 9.289063-9.289062c0-5.121094-4.167969-9.285157-9.289063-9.285157h-6v-37.269531h12v26.128906c8.828125 2.597656 15.289063 10.773438 15.289063 20.425782 0 11.738281-9.550781 21.289062-21.289063 21.289062zm0 0" fill="#ffffff" data-original="#ffffff" style=""/></g></g></svg>
