<?xml version="1.0" encoding="utf-8"?>
<svg version="1.1" id="Layer_1" xmlns="http://www.w3.org/2000/svg" xmlns:xlink="http://www.w3.org/1999/xlink" x="0px" y="0px"
	width="100px" height="100px" viewBox="0 0 100 100" style="enable-background:new 0 0 100 100;" xml:space="preserve">
<g>
	<g>
		<path style="fill:#E8E8E8;" d="M50,0c27.61,0,50,22.39,50,50s-22.39,50-50,50S0,77.61,0,50S22.39,0,50,0"/>
		<path style="fill:#FFFFFF;" d="M50,1c27.06,0,49,21.94,49,49S77.06,99,50,99S1,77.06,1,50S22.94,1,50,1"/>
	</g>
	<g>
		<path style="fill:#CC0000;" d="M44.31,31.34h0.71c1.56,0.05,3.18,0.38,4.55,1.23c1.14,0.71,1.99,1.75,2.47,2.99
			c0.33,0.81,0.52,1.71,0.57,2.56h-5.12c-0.05-0.71-0.28-1.47-0.85-1.94c-0.57-0.52-1.38-0.66-2.13-0.62c-0.66,0-1.33,0.24-1.8,0.71
			c-0.57,0.57-0.85,1.33-1,2.09c-0.19,0.9-0.19,1.85-0.09,2.75c0.09,0.9,0.28,1.85,0.85,2.56c0.43,0.57,1.04,0.9,1.75,1
			c0.71,0.09,1.47,0.05,2.13-0.28c0.52-0.28,0.9-0.76,1.09-1.28c0.14-0.33,0.19-0.71,0.24-1.09h5.07c-0.09,1.47-0.52,2.94-1.38,4.13
			c-0.81,1.09-1.94,1.85-3.22,2.32c-0.95,0.33-1.99,0.47-2.99,0.52h-0.81c-1.38-0.05-2.75-0.33-3.98-0.95
			c-1.23-0.62-2.23-1.56-2.94-2.75c-0.85-1.42-1.23-3.13-1.28-4.74c-0.09-1.8,0.19-3.56,1-5.07c0.62-1.23,1.56-2.28,2.75-2.94
			C41.23,31.72,42.75,31.34,44.31,31.34L44.31,31.34z M74.14,31.34h0.76c1.52,0.05,3.08,0.33,4.36,1.19c0.66,0.43,1.23,1,1.61,1.66
			c0.43,0.76,0.66,1.56,0.76,2.42h-5.07c-0.05-0.38-0.24-0.71-0.47-0.95c-0.33-0.33-0.85-0.43-1.33-0.47c-0.43-0.05-0.9,0-1.33,0.09
			c-0.28,0.09-0.57,0.28-0.66,0.62c-0.09,0.28-0.09,0.66,0.09,0.9c0.14,0.24,0.43,0.38,0.71,0.47c0.47,0.19,0.95,0.28,1.42,0.43
			c1,0.28,1.99,0.47,2.99,0.76c0.66,0.19,1.28,0.43,1.85,0.76c0.62,0.38,1.19,0.9,1.61,1.52c0.43,0.62,0.62,1.38,0.66,2.13
			c0.05,0.9-0.09,1.85-0.47,2.7c-0.28,0.66-0.76,1.28-1.33,1.75c-1.09,0.85-2.42,1.28-3.79,1.47c-0.52,0.05-1,0.09-1.52,0.09h-0.76
			c-1.23-0.05-2.47-0.24-3.6-0.76c-1.09-0.47-2.09-1.33-2.66-2.37c-0.43-0.76-0.66-1.66-0.76-2.51h5.22
			c0.09,0.38,0.24,0.81,0.52,1.09c0.24,0.24,0.52,0.43,0.85,0.47c0.43,0.09,0.9,0.14,1.33,0.09c0.43-0.05,0.9-0.09,1.28-0.33
			c0.24-0.14,0.43-0.43,0.47-0.71c0.05-0.28,0-0.62-0.24-0.85c-0.19-0.24-0.52-0.33-0.81-0.43c-0.52-0.14-1-0.28-1.52-0.43
			c-0.95-0.24-1.85-0.47-2.8-0.81c-0.66-0.24-1.33-0.43-1.94-0.81c-0.66-0.43-1.23-1-1.61-1.71c-0.38-0.76-0.52-1.66-0.52-2.51
			c0.05-0.81,0.24-1.56,0.62-2.28c0.38-0.66,0.95-1.23,1.61-1.66C71.01,31.63,72.58,31.39,74.14,31.34L74.14,31.34z M17.19,32.06
			c0.43-0.43,1.04-0.71,1.71-0.71c0.66,0,1.33,0.24,1.8,0.71l2.89,2.89l2.89-2.89c0.43-0.43,1.09-0.71,1.71-0.71
			c0.66,0,1.28,0.24,1.75,0.71l3.56,3.56c0.47,0.47,0.76,1.19,0.71,1.85c-0.05,0.62-0.28,1.19-0.71,1.61
			c-3.32,3.27-6.59,6.59-9.91,9.86c-3.32-3.27-6.59-6.59-9.91-9.86c-0.43-0.43-0.66-1-0.71-1.56v-0.38
			c0.05-0.57,0.28-1.14,0.71-1.56C14.87,34.43,16,33.24,17.19,32.06z M51.52,31.77h5.45c0.95,3.6,1.85,7.16,2.8,10.76
			c1-3.6,1.99-7.16,2.99-10.76h5.26c-1.85,5.55-3.75,11.1-5.64,16.65h-5.36C55.27,42.92,53.42,37.37,51.52,31.77L51.52,31.77z"/>
		<g>
			<path d="M15.71,53.75v-1.51h5.12v1.51h-1.6v5.2h8.09v-5.2h-1.6v-1.51h5.12v1.51h-1.6v13.05h1.6v1.51h-5.12v-1.51h1.6v-6.39h-8.09
				v6.39h1.6v1.51h-5.12v-1.51h1.6V53.75H15.71z M57.74,52.25h3.34v13.38c0.05,0.32,0.09,0.73,0.27,1c0.18,0.23,0.46,0.32,0.73,0.32
				c0.32,0,0.59,0,0.91-0.09v1.46c-0.55,0.18-1.14,0.18-1.69,0.09c-0.46-0.09-0.96-0.27-1.28-0.59c-0.37-0.32-0.55-0.82-0.64-1.28
				c-0.14-0.59-0.09-1.23-0.09-1.83v-11h-1.51C57.74,53.25,57.74,52.75,57.74,52.25L57.74,52.25z M69.69,52.25h3.29v6.21
				c0.5-0.68,1.28-1.14,2.1-1.37c0.82-0.23,1.69-0.23,2.56-0.05c0.87,0.18,1.65,0.64,2.24,1.28c0.73,0.78,1.1,1.78,1.23,2.83
				c0.05,0.5,0.05,1,0.05,1.46v4.24h1.51v1.46h-4.85v-1.46h1.51v-5.11c0-0.87-0.23-1.73-0.78-2.42c-0.5-0.55-1.23-0.87-1.97-0.91
				c-0.78-0.05-1.6,0.05-2.29,0.46c-0.5,0.32-0.87,0.82-1.1,1.37c-0.18,0.5-0.23,1-0.23,1.55v5.02h1.51v1.46h-4.8v-1.46h1.51V53.66
				h-1.51V52.25L69.69,52.25z M64.61,54.4h1.83v2.83h2.25v1.46h-2.25v6.8c0,0.37,0.05,0.73,0.23,1.05c0.18,0.23,0.46,0.37,0.73,0.37
				c0.41,0.05,0.87,0,1.28-0.05v1.46c-0.6,0.18-1.19,0.18-1.79,0.09c-0.6-0.09-1.19-0.27-1.6-0.73c-0.6-0.59-0.69-1.51-0.69-2.33
				v-6.71h-1.74v-1.46h1.74V54.4L64.61,54.4z M35.63,57.14c1.01-0.27,2.1-0.27,3.11-0.09c1.19,0.23,2.28,0.87,3.02,1.78
				c0.55,0.68,0.87,1.46,1.05,2.28c0.18,0.73,0.14,1.51,0.14,2.24h-9.55c0.05,0.91,0.37,1.83,0.96,2.51c0.5,0.59,1.23,1,2.01,1.14
				c0.82,0.18,1.69,0.14,2.47-0.09c0.87-0.23,1.65-0.82,2.06-1.6h1.83c-0.5,1.14-1.37,2.1-2.51,2.65c-0.82,0.41-1.74,0.59-2.65,0.64
				c-1.42,0.05-2.83-0.37-3.93-1.23c-1.05-0.82-1.74-2.1-1.97-3.42c-0.27-1.6,0-3.33,0.91-4.65C33.21,58.23,34.35,57.46,35.63,57.14
				L35.63,57.14z M36.41,58.51c-0.78,0.14-1.55,0.5-2.1,1.1c-0.59,0.64-0.91,1.51-1.01,2.33h7.77c-0.09-0.82-0.37-1.64-0.91-2.28
				c-0.37-0.46-0.91-0.82-1.46-1.05C38.01,58.37,37.19,58.37,36.41,58.51L36.41,58.51z M47.21,57.54c1.19-0.64,2.61-0.78,3.94-0.46
				c1.05,0.27,2.01,0.91,2.7,1.78v-1.64h3.29v1.46h-1.51v8.18h1.51v1.46h-3.29v-1.64c-0.69,0.91-1.69,1.55-2.84,1.83
				c-1.51,0.37-3.2,0.05-4.44-0.87c-1.1-0.82-1.88-2.06-2.15-3.38c-0.32-1.42-0.18-2.92,0.46-4.2
				C45.34,58.96,46.16,58.09,47.21,57.54L47.21,57.54z M49.55,58.46c-1.05,0.09-2.06,0.69-2.65,1.6c-0.78,1.14-0.96,2.6-0.69,3.93
				c0.23,1.1,0.92,2.15,1.97,2.7c1.24,0.64,2.84,0.59,3.94-0.23c0.59-0.41,1.01-0.96,1.33-1.64c0.46-1.1,0.55-2.38,0.23-3.52
				c-0.27-1.05-1.01-2.06-2.01-2.56C51.01,58.5,50.28,58.36,49.55,58.46L49.55,58.46z M84.33,65.49c0.59-0.55,1.65-0.5,2.19,0.09
				c0.27,0.27,0.41,0.64,0.5,1v0.36c-0.05,0.36-0.18,0.73-0.46,1c-0.46,0.5-1.19,0.64-1.83,0.41c-0.46-0.18-0.82-0.55-0.91-1
				C83.65,66.63,83.83,65.9,84.33,65.49z M85.16,65.4c-0.23,0.05-0.41,0.14-0.59,0.32c-0.55,0.5-0.55,1.46-0.05,2.01
				c0.41,0.46,1.23,0.5,1.69,0.09c0.64-0.55,0.64-1.64,0-2.14C85.89,65.44,85.48,65.35,85.16,65.4z"/>
			<path d="M84.79,65.85h0.88c0.18,0,0.42,0.09,0.46,0.32c0.05,0.18,0.05,0.37-0.05,0.55c-0.09,0.14-0.23,0.18-0.37,0.18
				c0.18,0.28,0.37,0.55,0.51,0.78H85.9c-0.18-0.28-0.32-0.51-0.46-0.78h-0.28v0.78h-0.32C84.79,67.09,84.79,66.5,84.79,65.85
				L84.79,65.85z M85.07,66.13v0.55c0.18,0,0.42,0,0.6-0.05c0.23-0.05,0.23-0.41,0-0.46C85.48,66.08,85.3,66.13,85.07,66.13z"/>
		</g>
	</g>
</g>
</svg>
