<?xml version="1.0" encoding="utf-8"?>
<svg version="1.1" id="Layer_1" xmlns="http://www.w3.org/2000/svg" xmlns:xlink="http://www.w3.org/1999/xlink" x="0px" y="0px"
	 viewBox="0 0 979.3 275.3" style="enable-background:new 0 0 979.3 275.3;" xml:space="preserve">
<g>
	<path vector-effect="non-scaling-stroke" style="fill:#FF5100;" d="M894.3,275.3H85c-47,0-85-37.6-85-84.2l0,0
		c0-42.2,31.4-77.9,73.8-83.5L883.1,0.8C934-6,979.3,33.3,979.3,84.2v107C979.3,237.7,941.1,275.3,894.3,275.3z"/>
	<path vector-effect="non-scaling-stroke" style="fill:#FFFFFF;" d="M591.4,219.7c-15.4,0-28.1-12.3-28.1-27.8s12.5-27.8,28.1-27.8
		c8.3,0,15.8,3.7,21,9.4l21.4-1.3c-7.3-15.8-23.5-26.6-42.2-26.6c-25.8,0-46.7,20.8-46.7,46.3s21,46.3,46.7,46.3
		c18.7,0,34.9-11,42.2-26.6l-21.4-1.3C607.2,216.1,599.7,219.7,591.4,219.7z"/>
	<path vector-effect="non-scaling-stroke" style="fill:#FFFFFF;" d="M105.6,210.3c-5,5.8-12.5,9.4-21,9.4
		c-15.4,0-28.1-12.3-28.1-27.8s12.5-27.8,28.1-27.8c8.3,0,15.8,3.7,21,9.4l21.4-1.3c-7.3-15.8-23.5-26.6-42.2-26.6
		c-25.8,0-46.7,20.8-46.7,46.3s21,46.3,46.7,46.3c18.7,0,34.9-11,42.2-26.6L105.6,210.3z"/>
	<path vector-effect="non-scaling-stroke" style="fill:#FFFFFF;" d="M790,146.3c-10.6,0-20.2,3.5-28.1,9.3V78.8l-18.5,2.1v108.7
		c0,1-0.2,1.7-0.2,2.9c0,1,0,1.7,0.2,2.9v42.6h18.5v-8.3c7.7,5.8,17.5,9.3,28.1,9.3c25.8,0,46.7-20.8,46.7-46.3
		C836.6,167.1,815.8,146.3,790,146.3z M790,220.3c-15.4,0-28.5-13.1-28.5-28.3c0-15.4,13.1-27.2,28.5-27.2s28.1,12.5,28.1,27.8
		C818.1,207.8,805.4,220.3,790,220.3z"/>
	<path vector-effect="non-scaling-stroke" style="fill:#FFFFFF;" d="M289.5,192c0,25.4-21,46.3-46.7,46.3s-46.7-20.8-46.7-46.3
		s21-46.3,46.7-46.3S289.5,166.3,289.5,192z M242.9,164.2c-15.4,0-28.1,12.3-28.1,27.8s12.5,27.8,28.1,27.8
		c15.4,0,28.1-12.3,28.1-27.8C270.8,176.8,258.3,164.2,242.9,164.2z"/>
	<path vector-effect="non-scaling-stroke" style="fill:#FFFFFF;" d="M513,115.3V155c-7.7-5.8-17.5-9.3-28.1-9.3
		c-25.8,0-46.7,20.8-46.7,46.3s21,46.3,46.7,46.3c10.6,0,20.2-3.5,28.1-9.3v9.3h18.7V113.1L513,115.3z M484.8,219.7
		c-15.4,0-28.1-12.3-28.1-27.8s12.5-27.8,28.1-27.8c15.4,0,28.5,12.3,28.5,27.8S500.2,219.7,484.8,219.7z"/>
	<path vector-effect="non-scaling-stroke" style="fill:#FFFFFF;" d="M194.5,145.1c-2.1-0.2-4.2-0.6-6.6-0.6
		c-10.2,0-19.9,3.3-25.8,9.1c-0.6,0.6-1.3,1.3-2.1,2.1v-10.2h-18.7v92.5H160v-45.9c0-1.3,0.2-4,0.2-5.2
		c1.7-15.4,13.5-24.1,27.8-24.1c1.5,0,3.1,0.2,4.6,0.4L194.5,145.1z"/>
	<path vector-effect="non-scaling-stroke" style="fill:#FFFFFF;" d="M709.2,145.7v51.7l0,0c-0.2,2.1-0.4,4.4-0.8,6
		c-2.9,9.8-11.8,17-22.6,17c-11.4,0-21-8.3-22.9-18.9c-0.2-1.3-0.2-2.5-0.4-4v-51.7h-18.7v51.7c0,22.9,18.7,41.4,41.8,41.4
		c8.7,0,17.3-2.9,23.3-9.1v8.1h18.7v-92.1C727.9,145.7,709.2,145.7,709.2,145.7z"/>
	<polygon vector-effect="non-scaling-stroke" style="fill:#FFFFFF;" points="347,237.9 364.7,172.9 382.7,237.9 409.3,237.9 
		434.5,145.9 414.3,145.9 395.8,215.7 376.7,145.9 353.2,145.9 333.9,215.7 315.6,145.9 295.1,145.9 320.4,237.9 	"/>
	<path vector-effect="non-scaling-stroke" style="fill:#FFFFFF;" d="M935.9,197.2h5.8c0.2-1.7,0.2-3.5,0.2-5.2
		c0-25.4-21-46.3-46.7-46.3c-25.6,0-46.7,20.8-46.7,46.3s21,46.3,46.7,46.3c17.9,0,33.5-10,41.4-24.7l-19.9-3.7
		c-5.2,6-12.9,10-21.4,10c-13.7,0-25.1-9.6-27.6-22.6h54.9L935.9,197.2L935.9,197.2z M895.2,164.2c11,0,20.6,6.4,25.3,15.6H870
		C874.6,170.6,884,164.2,895.2,164.2z"/>
</g>
</svg>
