<?xml version="1.0"?>
<svg xmlns="http://www.w3.org/2000/svg" xmlns:xlink="http://www.w3.org/1999/xlink" xmlns:svgjs="http://svgjs.com/svgjs" version="1.1" width="512" height="512" x="0" y="0" viewBox="0 0 512 512" style="enable-background:new 0 0 512 512" xml:space="preserve" class=""><g><g xmlns="http://www.w3.org/2000/svg"><circle cx="256" cy="256" fill="#f1f1f1" r="256" data-original="#ff6426" style="" class=""/><path d="m423.163 114.886-40.978-40.978-2.581 1.844-248.481 28.223s-45.78-.412-56.206 38.713c-10.427 39.124 8.356 56.958 8.356 56.958l51.207 51.207-8.638 6.17 108.629 108.629-94.501 92.442 43.453 43.453c23.011 6.791 47.365 10.453 72.577 10.453 141.385 0 256-114.615 256-256 0-25.723-3.81-50.552-10.869-73.973l-68.896-68.896z" fill="#f1f1f1" data-original="#ff4c04" style="" class=""/><g><g><g><path d="m151.655 267.883c-19.939 0-36.159-16.221-36.159-36.16h20.352c0 8.716 7.091 15.807 15.807 15.807s15.807-7.091 15.807-15.807-7.091-15.807-15.807-15.807h-26.843c-33.792 0-61.283-27.491-61.283-61.283s27.491-61.283 61.283-61.283 61.283 27.491 61.283 61.283h-20.352c0-22.569-18.361-40.93-40.93-40.93s-40.93 18.361-40.93 40.93 18.361 40.93 40.93 40.93h26.843c19.939 0 36.159 16.221 36.159 36.159s-16.221 36.161-36.16 36.161z" fill="#ffd944" data-original="#ffd944" style="" class=""/></g><g><path d="m360.345 267.883c-19.939 0-36.16-16.221-36.16-36.16s16.221-36.159 36.16-36.159h26.843c22.569 0 40.93-18.361 40.93-40.93s-18.361-40.93-40.93-40.93-40.93 18.361-40.93 40.93h-20.352c0-33.792 27.491-61.283 61.283-61.283 33.791 0 61.282 27.491 61.282 61.283s-27.491 61.283-61.282 61.283h-26.843c-8.716 0-15.807 7.091-15.807 15.807s7.091 15.807 15.807 15.807 15.807-7.091 15.807-15.807h20.352c-.001 19.937-16.221 36.159-36.16 36.159z" fill="#ffcc00" data-original="#ffcc00" style=""/></g></g><g><path d="m256 458.094h-116.03v-78.72h116.03l34.877 39.36z" fill="#8e562f" data-original="#8e562f" style=""/><path d="m256 379.374h116.03v78.72h-116.03z" fill="#754727" data-original="#754727" style="" class=""/></g><path d="m256 226.446h-27.09v118.44l-55.337 34.488h82.427l5.851-7.015 2.292-81.367z" fill="#ffcc00" data-original="#ffcc00" style=""/><path d="m283.09 344.886v-118.44h-27.09v152.928h82.427z" fill="#edbe00" data-original="#edbe00" style=""/><g><path d="m256 322.053h-41.723v-38.286h41.723l12.541 19.143z" fill="#ffd944" data-original="#ffd944" style="" class=""/><path d="m256 283.767h41.723v38.285h-41.723z" fill="#ffcc00" data-original="#ffcc00" style=""/></g><g><path d="m256 437.877h-82.427v-38.286h82.427l24.776 19.143z" fill="#ffd944" data-original="#ffd944" style="" class=""/><path d="m256 399.591h82.427v38.285h-82.427z" fill="#ffcc00" data-original="#ffcc00" style=""/></g><g><path d="m230.578 258.942s-100.763-27.527-100.763-185.034h126.185l13.204 88.124-13.204 96.91z" fill="#ffd944" data-original="#ffd944" style="" class=""/><path d="m281.422 258.942s100.763-27.527 100.763-185.034h-126.185v185.034z" fill="#ffcc00" data-original="#ffcc00" style=""/></g></g></g></g></svg>
