<?xml version="1.0" encoding="utf-8"?>
<svg version="1.1" id="Layer_1" xmlns="http://www.w3.org/2000/svg" xmlns:xlink="http://www.w3.org/1999/xlink" x="0px" y="0px"
	 viewBox="0 0 1267 1280" style="enable-background:new 0 0 1267 1280;" xml:space="preserve">
<g>
	<path style="fill:#FAAF18;" d="M953.7,180.1c3-7.4-3-14.3-3-14.3S902.9,85,735,66.8c-90.3-9.5-212.6,8.7-298.5,55.1
		c-156.2,83.7-179.6,222.2-179.6,222.2c-0.9,3.5-2.2,13.9,1.3,18.2c3.5,4.3,8.7,4.3,15.2,2.2c55.1-18.7,218.7-72.9,322-100.2
		c147.1-39.1,268.1-62.9,345.4-75.9C946.8,187,951.5,185.3,953.7,180.1"/>
	<path style="fill:#185494;" d="M1121.6,831.8c-88.1,197.9-256.9,335.4-478.6,338.4c-161,2.2-303.3-52.9-406.1-149.3l-62,26.5v-96.3
		c-67.7-91.1-107.2-207-107.2-338C67.7,276.8,325,12.1,684.3,12.1c58.6,0,111.5,9.1,151.4,18.2C774.1,10.8,712.9,0,644.8,0
		C259.5,0,0,312.4,0,634.8c0,351,275.5,645.2,637,645.2c345.4,0,531.5-243.4,591.4-390.1L1121.6,831.8"/>
	<path style="fill:#ED1D21;" d="M1032.2,762.4c50.8-5.6,85.9-26,105-45.1c17.4-17.4,21.7-40.8,21.7-58.6c0.9-26,0-107.6,0-107.6
		l-134.1,29.1v31.2c0.4,20.8,10.4,32.1,32.1,28.2c6.9-1.3,17.4-4.3,17.4-4.3v25.6c0-0.9,2.2,14.3-31.7,20.8
		c-44.3,6.9-64.2-20.4-64.7-68.6c0.9-51.6,29.9-81.1,65.5-89.4c39.9-9.1,62.5,0.4,75.5,2.2c44.3,6.5,56.8-59.9,16.5-75.5
		c-29.9-12.1-68.6-14.3-105.4-6.9c-49.5,10-146.2,51.2-146.7,185.3C883,735.5,961.5,770.2,1032.2,762.4"/>
	<path style="fill:#EE1C23;" d="M596.2,876.5l44.7-15.2c33-11.3,45.1-31.2,45.1-65.1l-0.4-108.9l95.9,110.2
		c15.6,16.1,35.1,17.4,52.9,12.1c18.2-5.2,33.8-22.1,34.3-46V489.9c0,0-24.7,5.2-45.1,10.8c-23.4,6.5-41.7,21.7-41.7,61.6v95
		c0,0-54.7-68.1-89.8-103.3c-18.7-18.7-49.9-7.4-49.9-7.4l-46,13.9V876.5"/>
	<path style="fill:#ED1C23;" d="M567.1,567.5c0,0-28.6,8.2-52.1,16.9c-30.4,10.8-48.2,28.6-48.2,74.6v262.5l51.6-18.7
		c35.1-13.5,48.6-31.7,48.6-68.6V567.5"/>
	<path style="fill:#EE1D23;" d="M424.4,630c-26.5-12.1-49,1.3-58.6,16.1l-81.1,138.4V673l-96.3,39.5l-0.4,315l67.7-28.2
		c0,0,13.5-3.9,21.3-16.5c7.4-11.7,6.9-30.8,6.9-30.8v-99.8l75.5,80.3c16.5,17.4,46.9,26,73.8,4.3c24.3-19.5,20.4-52.9,6.9-68.1
		l-68.6-69l70.3-111.1C454.7,666.9,448.2,640.9,424.4,630"/>
	<path style="fill:#FAAF18;" d="M386.6,1000.6c-3.5,8.2,4.8,16.5,4.8,16.5c34.7,43.8,189.6,99.4,358,58.6
		c256.9-62,311.1-243.9,317.2-269.5c1.3-5.2,2.2-13.5-2.6-18.7c-3.9-4.3-10-4.3-17.8-2.6C867.4,827,571,917.7,399.6,991
		C392.2,994.1,389.2,995.4,386.6,1000.6"/>
	<path style="fill:#EE1C23;" d="M234.3,587.5c-0.4-17.4-13.9-26.9-36.9-15.2v56l13-6.1C224.3,615.7,234.7,604.4,234.3,587.5
		 M197,536.7l10.8-4.8c12.6-6.1,21.7-17.8,21.7-32.5c0-16.9-13.9-21.3-32.5-11.7V536.7z M295.9,579.3c0.9,44.3-30.8,67.7-72.5,84.6
		l-84.6,36V470.3l70.7-28.2c49.5-18.2,78.5,3.9,78.5,36.9c0,22.1-9.5,40.8-29.9,57.3C278.1,539.8,295.5,556.3,295.9,579.3
		L295.9,579.3z"/>
	<path style="fill:#ED1D1F;" d="M456.5,385.7c0-19.5-13.5-24.3-29.5-20l-28.2,9.5v142.8c0,14.3-2.2,32.1-20,36.4
		c-13.5,3.5-20-5.6-20-20V417.8c0-19.5-13.5-25.2-29.5-20l-28.6,10.4v141.5c-0.4,47.3,32.5,71.2,82,56.4
		c43.8-13,73.3-37.7,73.8-100.7V385.7"/>
	<path style="fill:#EE1C23;" d="M927.7,444.7c12.6-2.6,20.4-11.7,20.4-27.3v-24.7l-68.6,15.2v-40.4l43-9.1
		c11.7-2.6,17.8-9.1,17.8-22.6v-23.4l-60.7,13v-32.1l48.6-10c13.5-2.6,17.8-11.7,17.8-24.3v-24.3c-30.4,5.2-88.1,16.9-124.1,25.2
		L821.4,469L927.7,444.7"/>
	<path style="fill:#EE1D23;" d="M530.2,436.1c0,0,33.8-17.8,33.8-45.6c-0.4-23.9-22.1-18.7-33.4-14.3L530.2,436.1 M530.7,468.6V525
		c0,15.2-10.4,26-23.4,31.2c0,0.4,0-0.4,0,0L472.9,568V352.3c0,0,48.2-16.9,76.4-23.4c43.4-10.4,74.6,9.5,74.2,45.1
		c-0.4,33.8-19.1,54.2-36,68.6l37.3,35.6c11.3,11.3,12.1,31.2-0.4,43.4c-7.8,7.4-28.2,14.8-43.8-1.7
		C580.1,519.8,530.7,468.6,530.7,468.6L530.7,468.6z M1017.1,320.2c0,0,33.4-12.6,33-39.5c-0.4-22.6-22.6-18.7-33.4-16.1
		L1017.1,320.2 M960.7,438.2V231.7l75.9-12.6c43.4-5.6,72.5,18.7,71.6,52.5c-0.4,29.9-19.1,48.2-35.1,59l37.3,42.1
		c10.4,11.7,10,32.1-5.6,42.1c-15.2,9.5-30.8,4.8-39.5-5.2l-48.2-57.3v50.3c0,15.2-9.1,26.5-24.7,29.5L960.7,438.2L960.7,438.2
		L960.7,438.2z M807.9,351.5L722.4,371v23.9c0,11.3,7.8,18.2,19.1,16.1l12.6-2.6v23.9c0,9.5-13.9,15.6-28.6,15.2
		c-20.8-0.9-32.1-16.9-32.5-47.3c0.4-39.9,19.5-63.3,45.1-69.9c12.6-3.5,24.3-1.7,33.4-0.4c22.1,3.5,34.7-6.9,35.1-25.2
		c0.4-19.5-16.9-31.7-53.8-30.4C672.1,276.8,630.9,335,630.9,404c0,70.7,46.4,102,102.8,92c31.7-6.5,47.7-16.9,58.6-26.5
		c10.8-9.5,15.6-23.9,15.6-36.4L807.9,351.5"/>
	<path style="fill:#FFFFFF;" d="M470.8,120.2c-94.6,41.7-158.4,141-161.8,182.7c-1.3,16.5,20.8,19.1,23,1.3
		C351.9,227.8,412.6,155.8,470.8,120.2 M783.6,191.3c50.8-12.6,79-14.3,79.4-37.3c0.9-38.2-107.6-82.4-207.4-74.2
		c101.5,6.9,162.3,46,162.3,72.9C818.3,170.1,803.1,185.3,783.6,191.3 M814.9,1033.1c76.4-29.9,149.7-87.6,190.5-173.6
		c11.7-24.7-22.1-37.7-31.7-8.2C949.8,912.5,901.2,984.1,814.9,1033.1"/>
	<path style="fill:#EE1D23;" d="M1199.7,774.9h10.4c5.6,0,13,0.9,13,7.8c0,7.8-5.2,8.7-12.1,8.7h-10.8L1199.7,774.9 M1187.1,827.4
		h12.1V801h7.8l15.2,26.5h13l-16.5-27.3c9.1-0.9,16.5-5.2,16.5-16.5c0-13.5-8.7-18.7-24.3-18.7h-23.9V827.4L1187.1,827.4
		L1187.1,827.4z M1152.4,796.2c0,33.8,26.9,56,57.3,56s57.3-21.7,57.3-56c0-33.8-26.9-55.5-57.3-55.5S1152.4,762.4,1152.4,796.2z
		 M1167.6,796.2c0-25.2,18.7-43.8,42.1-43.8c23,0,42.1,18.2,42.1,43.8c0,25.6-19.1,43.8-42.1,43.8
		C1186.3,840.5,1167.6,821.8,1167.6,796.2z"/>
</g>
</svg>
