<?xml version="1.0"?>
<svg xmlns="http://www.w3.org/2000/svg" xmlns:xlink="http://www.w3.org/1999/xlink" xmlns:svgjs="http://svgjs.com/svgjs" version="1.1" width="512" height="512" x="0" y="0" viewBox="0 0 512 512" style="enable-background:new 0 0 512 512" xml:space="preserve" class=""><g><g xmlns="http://www.w3.org/2000/svg"><g><g><g><g><g><g><g><g><g><g><g><g><g><g><g><g><circle cx="256" cy="256" fill="#f1f1f1" r="256" data-original="#613393" style="" class=""/></g></g></g></g></g></g></g></g></g></g></g></g></g></g></g></g><path d="m220.222 486.351 25.423 25.423c3.436.137 6.885.226 10.355.226 141.385 0 256-114.615 256-256 0-3.224-.08-6.43-.198-9.625l-220.024-220.024z" fill="#f1f1f1" data-original="#4b1b7a" style="" class=""/><g><path d="m304.19 467.156-83.968 19.195-96.38-421.61 85.043-19.441 91.325 211.193z" fill="#ffffff" data-original="#ffffff" style="" class=""/><path d="m254.917 30.511h86.134v432.486h-86.134z" fill="#d6e9f8" transform="matrix(.975 -.223 .223 .975 -47.496 72.611)" data-original="#d6e9f8" style="" class=""/><g><path d="m269.75 316.502-66.652 15.236-26.888-117.621 67.225-15.368 40.13 52.711z" fill="#b2d7f3" data-original="#b2d7f3" style="" class=""/><path d="m255.447 189.745h68.371v120.656h-68.371z" fill="#86bfec" transform="matrix(.975 -.223 .223 .975 -48.445 70.833)" data-original="#86bfec" style="" class=""/></g><g><path d="m300.89 452.721-66.652 15.237-26.888-117.622 67.225-15.367 40.13 52.71z" fill="#b2d7f3" data-original="#b2d7f3" style="" class=""/><path d="m286.586 325.965h68.371v120.656h-68.371z" fill="#86bfec" transform="matrix(.975 -.223 .223 .975 -78.019 81.199)" data-original="#86bfec" style="" class=""/></g><g><path d="m238.611 180.282-66.652 15.237-26.888-117.622 67.224-15.367 40.131 52.71z" fill="#b2d7f3" data-original="#b2d7f3" style="" class=""/><path d="m224.307 53.525h68.371v120.656h-68.371z" fill="#86bfec" transform="matrix(.975 -.223 .223 .975 -18.872 60.468)" data-original="#86bfec" style="" class=""/></g><g><path d="m251.97 239.011c-3.829-16.861 6.736-33.633 23.596-37.462s33.633 6.736 37.462 23.596l3.459 15.232-60.787 13.804z" fill="#f1f1f1" data-original="#4b1b7a" style="" class=""/><circle cx="282.725" cy="233.074" fill="#ffbda9" r="27.152" data-original="#ffbda9" style="" class=""/><path d="m298.659 231.42c1.945 8.566-3.422 17.087-11.988 19.032s-17.087-3.422-19.032-11.988z" fill="#ff3c7d" data-original="#ff3c7d" style=""/><path d="m275.567 201.55c-12.496 2.838-21.527 12.787-23.81 24.611 3.741 1.129 7.814 1.339 11.896.412 6.617-1.503 11.93-5.679 15.068-11.13 5.184 3.561 11.781 5.033 18.397 3.53 4.082-.927 7.665-2.876 10.552-5.509-7.165-9.679-19.607-14.752-32.103-11.914z" fill="#f1f1f1" data-original="#4b1b7a" style="" class=""/></g><g><path d="m277.796 351.698c-3.66.825-7.274 2.134-10.75 3.973-21.138 11.184-29.207 37.387-18.022 58.525 9.395 17.756 29.387 26.285 48.073 21.932l-.717-44.257z" fill="#ffccbd" data-original="#ffccbd" style="" class=""/><path d="m277.796 351.698 19.3 84.429c3.559-.829 7.071-2.12 10.452-3.909 21.138-11.184 29.207-37.387 18.022-58.525-9.344-17.662-29.174-26.189-47.774-21.995z" fill="#ffbda9" data-original="#ffbda9" style="" class=""/><path d="m288.142 396.953-21.835 11.553c5.384 10.176 16.709 15.174 27.447 12.998l-.759-12.744z" fill="#ff5e92" data-original="#ff5e92" style=""/><path d="m311.145 384.781-23.003 12.172 5.612 24.551c2.328-.472 4.628-1.274 6.834-2.442 12.382-6.551 17.108-21.899 10.557-34.281z" fill="#ff3c7d" data-original="#ff3c7d" style=""/></g><g><path d="m254.189 248.429c-9.443-7.08-22.493-8.534-33.617-2.649-15.363 8.129-21.228 27.173-13.099 42.537 8.129 15.363 27.174 21.228 42.537 13.099 5.899-3.122 10.392-7.856 13.235-13.37l-.954-20.62z" fill="#ffccbd" data-original="#ffccbd" style="" class=""/><path d="m263.246 288.046c4.562-8.846 4.871-19.703-.136-29.167-2.243-4.24-5.321-7.752-8.92-10.45z" fill="#ffbda9" data-original="#ffbda9" style="" class=""/><g><path d="m252.624 266.938c4.762 8.999 1.326 20.155-7.673 24.916-8.999 4.762-20.155 1.326-24.916-7.673z" fill="#ff5e92" data-original="#ff5e92" style=""/></g></g><g><path d="m224.449 76.713c-3.134.409-6.153 1.124-9.032 2.107l15.338 67.096 48.605-6.336-2.988-22.919c-3.307-25.37-26.554-43.255-51.923-39.948z" fill="#f1f1f1" data-original="#4b1b7a" style="" class=""/><path d="m215.417 78.82c-20.432 6.978-33.814 27.581-30.916 49.816l3.396 22.866 42.859-5.587z" fill="#f1f1f1" data-original="#613393" style="" class=""/><path d="m217.128 86.306c-17.45 6.209-28.828 23.923-26.337 43.033 2.828 21.697 22.473 37.069 44.116 34.743l-1.402-47.253z" fill="#ffccbd" data-original="#ffccbd" style="" class=""/><path d="m226.553 127.536-18.892 2.463c1.582 12.136 12.147 20.898 24.136 20.477l6.359-13.302z" fill="#ff5e92" data-original="#ff5e92" style=""/><path d="m225.439 84.306c-2.893.377-5.669 1.06-8.311 2l17.78 77.777c.306-.033.611-.056.917-.096 22.003-2.868 37.515-23.03 34.647-45.034-2.868-22.003-23.03-37.515-45.033-34.647z" fill="#ffbda9" data-original="#ffbda9" style="" class=""/><g><path d="m215.418 78.825c-14.394 4.918-25.286 16.598-29.452 30.85 5.355 2.18 11.326 3.054 17.469 2.253 6.803-.887 12.881-3.699 17.765-7.814l5.448-17.289z" fill="#f1f1f1" data-original="#613393" style="" class=""/><path d="m224.449 76.713c-3.135.409-6.151 1.128-9.031 2.112l5.781 25.29c2.263-1.907 4.272-4.092 5.975-6.497 7.145 5.963 16.659 9.045 26.615 7.747 6.143-.801 11.691-3.176 16.308-6.656-9.218-15.251-26.846-24.447-45.648-21.996z" fill="#f1f1f1" data-original="#4b1b7a" style="" class=""/></g><path d="m254.335 123.914-27.782 3.621 5.244 22.939c.743-.026 1.491-.084 2.243-.182 12.888-1.679 21.975-13.489 20.295-26.378z" fill="#ff3c7d" data-original="#ff3c7d" style=""/></g><circle cx="233.532" cy="231.079" fill="#8e4dd5" r="4.622" data-original="#8e4dd5" style=""/><circle cx="213.579" cy="218.937" fill="#ff3c7d" r="4.622" data-original="#ff3c7d" style=""/><path d="m300.253 279.862-6.296 4.405-1.232 7.585-4.405-6.296-7.585-1.232 6.296-4.405 1.232-7.585 4.406 6.296z" fill="#ffcc00" data-original="#ffcc00" style=""/><path d="m272.299 63.425-6.296 4.405-1.232 7.585-4.405-6.296-7.585-1.232 6.296-4.406 1.232-7.585 4.406 6.297z" fill="#00a98f" data-original="#00a98f" style=""/><path d="m194.469 167.393-6.296 4.405-1.232 7.585-4.406-6.296-7.585-1.232 6.297-4.405 1.232-7.585 4.405 6.296z" fill="#00ccb2" data-original="#00ccb2" style=""/><path d="m210.259 236.399-6.306 4.412-1.234 7.596-4.411-6.305-7.596-1.234 6.305-4.412 1.234-7.596 4.412 6.306z" fill="#8e4dd5" data-original="#8e4dd5" style=""/><circle cx="333.945" cy="353.782" fill="#f1f1f1" r="4.622" data-original="#4b1b7a" style="" class=""/><circle cx="319.988" cy="342.592" fill="#ffcc00" r="4.622" data-original="#ffcc00" style=""/><path d="m256.079 453.492-7.398-2.119-6.677 3.825 2.119-7.397-3.825-6.678 7.397 2.12 6.678-3.826-2.12 7.398z" fill="#ff5e92" data-original="#ff5e92" style=""/></g></g></g></svg>
