<?xml version="1.0" encoding="utf-8"?>
<svg version="1.1" id="Layer_1" xmlns="http://www.w3.org/2000/svg" xmlns:xlink="http://www.w3.org/1999/xlink" x="0px" y="0px"
	width="100px" height="100px" viewBox="0 0 66.7 66.7" style="enable-background:new 0 0 66.7 66.7;" xml:space="preserve">
<g>
	<path style="fill:#C32436;" d="M66.7,33.3c0,18.4-14.9,33.3-33.3,33.3l0,0C14.9,66.7,0,51.7,0,33.3l0,0C0,14.9,14.9,0,33.3,0l0,0
		C51.7,0,66.7,14.9,66.7,33.3L66.7,33.3z"/>
	<path style="fill:#FFFFFF;" d="M44.1,35c0.1,0,0.1-0.1,0.1-0.1l2.3-3.3c0.1-0.1,0.1-0.1,0-0.3L44.3,28l-0.1-0.1
		c0,0.1-0.1,0.1-0.1,0.3L44.1,35L44.1,35L44.1,35C44.1,35,44.1,35,44.1,35z M39.9,33.9c1.1,0,1.9-0.9,1.9-2s-0.9-2-1.9-2
		s-1.9,0.9-1.9,2S38.9,33.9,39.9,33.9 M40,27.3c0.2,0,0.3,0.1,0.5,0.1c0.4,0.1,0.7,0.3,1.1,0.5c0,0,0.1,0,0.1,0.1
		c0-0.1,0-0.1,0.1-0.1v-0.2h0.1h5c0.1,0,0.1,0,0.2,0.1l0.7,0.9l-0.1,0.1c-0.1,0.1-0.1,0.1-0.1,0.2l2.6,3.8c0.1,0.1,0.1,0.1,0,0.3
		l-1.1,1.6c0,0.1-0.1,0.1-0.1,0.1c-0.1-0.1-0.1-0.1-0.1-0.1l-0.6-0.8c-0.1-0.1-0.1-0.1-0.2,0L46.6,36c-0.1,0.1-0.1,0.1-0.2,0.1h-4.5
		h-0.1v-0.3c0-0.1,0-0.1-0.1-0.1h-0.1c-0.5,0.5-1.2,0.6-1.9,0.5c-2,0-3.3-1.5-3.8-3.1c-0.8-2.9,1.1-5.3,3.1-5.7
		c0.2,0,0.4-0.1,0.6-0.1L40,27.3C40,27.3,40,27.3,40,27.3z M8.5,27.5h2.7h3.9h0.1v2.4h-2.2v6h-2.4V30H8.5V27.5
		C8.5,27.4,8.5,27.5,8.5,27.5z M24.2,36.1v-1.4v-3.6c0-1.8,1.3-3.4,2.9-3.6c0.9-0.1,1.9,0.1,2.6,0.7c0.1,0.1,0.2,0.1,0.3,0
		c0.6-0.5,1.3-0.8,2.1-0.8c1.7,0,3.1,1.3,3.3,3c0.1,0.4,0.1,0.8,0.1,1.2v4.3V36h-2.3v-0.2V31c0-0.1,0-0.3-0.1-0.5
		c-0.1-0.6-0.6-0.9-1.1-0.9c-0.5,0.1-0.9,0.5-1,1v0.5v4.6v0.1h-0.2h-2c-0.1,0-0.1,0.1-0.1-0.1v-4.9c0-0.7-0.5-1.1-1-1.2
		c-0.6-0.1-1.1,0.4-1.3,1.1V31v4.8c0,0.1,0.1,0.1-0.1,0.1h-2h-0.1C24.2,35.9,24.2,36.1,24.2,36.1z M18.5,31.4
		c0.1-0.1,0.1-0.1,0.1-0.1l1.6-2.3c0.1-0.1,0.1-0.1,0.1-0.1h2.7h0.1l-0.1,0.1l-2.2,3.4c-0.1,0.1-0.1,0.2,0,0.4l1.5,2.2l2.8,4.1
		c0,0.1,0.1,0.1,0.1,0.1h-0.1h-2.7c-0.1,0-0.1-0.1-0.2-0.1L18.7,34c0-0.1-0.1-0.1-0.1-0.1v1.9h-2.4v-8.3h2.3L18.5,31.4
		C18.5,31.4,18.5,31.4,18.5,31.4 M47.7,36.9c0.1-0.1,0.1-0.1,0.1-0.2l2.6-3.8c0.1-0.1,0.1-0.2,0-0.4L48,29v-0.2
		c0.1,0,0.1-0.1,0.1-0.1h2.7c0.1,0,0.1,0.1,0.1,0.1l0.9,1.3c0.1,0.1,0.1,0.1,0.3,0l0.9-1.3c0-0.1,0.1-0.1,0.1-0.1h2.7H56l-0.1,0.1
		l-2.2,3.4c-0.1,0.2-0.1,0.2,0,0.4l2,3L58,39c0,0.1,0.1,0.1,0.1,0.1H58h-2.7c-0.1,0-0.1,0-0.2-0.1l-2.8-4c0,0,0-0.1-0.1-0.1
		c-0.1-0.1-0.1-0.1-0.2,0l-1.1,1.7c-0.1,0.1-0.1,0.1-0.2,0.1h-2.7C47.9,36.8,47.7,36.9,47.7,36.9z M22.6,31.2c0.7,0,1.3,0.5,1.3,1.4
		c0,0.7-0.6,1.3-1.3,1.3s-1.3-0.6-1.3-1.3C21.4,31.9,21.9,31.2,22.6,31.2 M13.3,32.6c0-0.7,0.6-1.3,1.3-1.3s1.3,0.6,1.3,1.3
		s-0.6,1.3-1.3,1.3S13.3,33.3,13.3,32.6 M52.3,27.5l-0.9,1.4l-0.2-0.2c-0.1-0.1-0.1-0.1-0.3-0.1h-2.2l0,0v-0.1l0.7-0.9
		c0.1-0.1,0.1-0.2,0.3-0.2h2.6C52.3,27.3,52.3,27.4,52.3,27.5L52.3,27.5 M56.9,30.9c0.5,0,0.9-0.5,0.9-0.9c0-0.5-0.4-0.9-0.9-0.9
		c-0.5,0-0.9,0.4-0.9,0.9C56.1,30.5,56.5,30.9,56.9,30.9 M56.9,30.9c-0.5,0-0.9-0.5-0.9-1.1c0-0.6,0.5-1,0.9-1.1
		c0.5,0,0.9,0.5,0.9,1.1C57.9,30.5,57.5,30.9,56.9,30.9 M56.7,29.4c-0.1,0.3-0.1,0.4,0.3,0.4h0.1c0.1,0,0.1-0.1,0.1-0.2
		c0-0.1-0.1-0.1-0.1-0.2L56.7,29.4 M56.7,29.3h0.5c0.1,0,0.2,0.1,0.3,0.2c0,0.1,0,0.3-0.1,0.3c0,0.1,0.1,0.2,0.1,0.3v0.3
		c-0.1,0-0.1,0-0.1-0.1v-0.3c0-0.1-0.1-0.1-0.1-0.1h-0.3L56.8,30v0.3l-0.1,0.1l-0.1-0.1C56.6,30.1,56.6,29.7,56.7,29.3"/>
</g>
</svg>
