<?xml version="1.0" encoding="utf-8"?>
<svg version="1.1" id="Layer_1" xmlns="http://www.w3.org/2000/svg" xmlns:xlink="http://www.w3.org/1999/xlink" x="0px" y="0px"
	 viewBox="0 0 154 62.4" style="enable-background:new 0 0 154 62.4;" xml:space="preserve">
<g>
	<g>
		<path style="fill:#0A9928;" d="M9.9,18.2c3.3,0,6.4,1,8.8,2.7l-0.9-2.3h9.5L30.5,30l0.7,2.6c0,0,0.4-1.3,0.7-2.6l3.3-11.4h9.5
			L43.9,21c2.4-1.8,5.5-2.7,8.8-2.7c0.5,0,0.9,0,1.4,0.1L49.2,0L0,13.2l1.9,7.2C4.2,19,6.9,18.2,9.9,18.2z"/>
		<path style="fill:#0A9928;" d="M52.7,26.5c-2.9,0-4.7,2.2-4.7,4.9c0,2.9,1.9,4.8,4.7,4.8s4.7-2,4.7-4.8c0-0.4,0-0.8-0.1-1.1
			l-0.2-0.6C56.5,27.8,54.9,26.5,52.7,26.5z"/>
		<path style="fill:#0A9928;" d="M14.5,31.3c0-2.7-1.8-4.9-4.7-4.9s-4.7,2.2-4.7,4.9c0,2.9,1.9,4.8,4.7,4.8
			C12.6,36.2,14.5,34.2,14.5,31.3z"/>
		<path style="fill:#0A9928;" d="M52.7,44.1c-6.9,0-12.6-3.9-13.7-10.5l-3.9,10.1h-7.7l-3.9-10.1c-1.1,6.6-6.8,10.5-13.7,10.5
			c-0.5,0-1.1,0-1.6-0.1l4.9,18.4l49.2-13.2l-1.9-7.1C58.3,43.4,55.6,44.1,52.7,44.1z"/>
	</g>
	<g>
		<path style="fill:#0A9928;" d="M70.1,32.7c0,2.8,1.8,5,4.9,5c3.6,0,4.6-2.2,5.6-2.2c0.5,0,1,0.4,1,1.2c0,1.3-3.4,3.4-6.6,3.4
			c-5.3,0-7.6-4.1-7.6-8.5c0-4.5,2.8-8.5,7.4-8.5c4.5,0,7.1,4.1,7.1,8.1c0,1-0.3,1.5-1.5,1.5H70.1L70.1,32.7z M79.2,30.6
			c0-2.4-1.4-5.1-4.4-5.1c-3.4-0.1-4.6,2.6-4.7,5.1H79.2z"/>
		<path style="fill:#0A9928;" d="M84.1,24.6c0-0.9,0.5-1.5,1.4-1.5c0.8,0,1.4,0.6,1.4,1.5v0.7l0.1,0.1c1.2-1.6,2.9-2.2,4.6-2.2
			c2.6,0,5.8,1.6,5.8,6.3v9.2c0,0.9-0.5,1.5-1.4,1.5c-0.8,0-1.4-0.6-1.4-1.5v-9c0-2.9-2-4.1-3.8-4.1S87,26.8,87,29.7v9
			c0,0.9-0.5,1.5-1.4,1.5c-0.8,0-1.4-0.6-1.4-1.5V24.6H84.1z"/>
		<path style="fill:#0A9928;" d="M102.3,32.7c0,2.8,1.8,5,4.9,5c3.6,0,4.6-2.2,5.6-2.2c0.5,0,1,0.4,1,1.2c0,1.3-3.4,3.4-6.6,3.4
			c-5.3,0-7.6-4.1-7.6-8.5c0-4.5,2.8-8.5,7.4-8.5c4.5,0,7.1,4.1,7.1,8.1c0,1-0.3,1.5-1.5,1.5H102.3L102.3,32.7z M111.4,30.6
			c0-2.4-1.4-5.1-4.4-5.1c-3.4-0.1-4.6,2.6-4.7,5.1H111.4z"/>
		<path style="fill:#0A9928;" d="M116.3,24.6c0-0.9,0.5-1.5,1.4-1.5c0.8,0,1.4,0.6,1.4,1.5V26h0.1c0.6-1.3,2.1-2.9,3.7-2.9
			c1,0,1.5,0.6,1.5,1.4s-0.6,1.3-1.7,1.5c-1.6,0.3-3.6,1.5-3.6,4.7v7.9c0,0.9-0.5,1.5-1.4,1.5c-0.8,0-1.4-0.6-1.4-1.5V24.6z"/>
		<path style="fill:#0A9928;" d="M139.3,38.7c0,4.9-3,7.9-7.5,7.9c-2.8,0-6.3-1.6-6.3-3c0-0.6,0.3-1.3,1.2-1.3
			c1.2,0,2.5,1.9,5.4,1.9c3.5,0,4.5-2.7,4.5-5.1v-1.4h-0.1c-0.8,1.4-2.3,2.4-4.2,2.4c-4.7,0-7.3-4.1-7.3-8.5s2.6-8.5,7.3-8.5
			c1.8,0,3.5,1.1,4.2,2.1h0.1v-0.7c0-1,0.7-1.3,1.5-1.3c0.5,0,1.3,0.4,1.3,1.3v14.2H139.3z M132.3,37.7c3.4,0,4.5-3.3,4.5-6.1
			s-1.2-6.1-4.5-6.1c-3.4,0-4.5,3.3-4.5,6.1S128.9,37.7,132.3,37.7z"/>
		<path style="fill:#0A9928;" d="M141.7,25.8c-0.3-0.9-0.4-1.2-0.4-1.5c0-0.7,0.6-1.2,1.2-1.2c0.7,0,1.2,0.4,1.4,1l3.8,11.4h0.1
			l3.7-11.4c0.2-0.6,0.6-1,1.3-1c0.6,0,1.2,0.5,1.2,1.2c0,0.3-0.1,0.6-0.4,1.5l-6.9,19.7c-0.2,0.6-0.7,1-1.3,1s-1.2-0.5-1.2-1.2
			c0-0.3,0.1-0.6,0.4-1.5l1.7-4.6L141.7,25.8z"/>
	</g>
</g>
</svg>
