<?xml version="1.0" encoding="utf-8"?>
<svg version="1.1" id="Layer_1" xmlns="http://www.w3.org/2000/svg" xmlns:xlink="http://www.w3.org/1999/xlink" x="0px" y="0px"
	 viewBox="0 0 68.1 40.7" style="enable-background:new 0 0 68.1 40.7;" xml:space="preserve">
<g>
	<path style="fill:#1D1D1B;" d="M22.6,0.3v24.9h-2.3V4.9l-8.2,15.9h-1.6L2.3,4.9v20.3H0V0.3h2.4l8.9,17.2l8.9-17.2L22.6,0.3
		L22.6,0.3z M46.9,25.6l-4.2-4.4c-1.5,2.4-3.5,4.1-6.9,4.1c-4.3,0-7.5-3-7.5-6.7c0-3.1,1.9-5,5.5-7c-2.1-2.1-3.2-3.8-3.2-5.8
		c0-3,2.5-5.3,5.5-5.3c3.2,0,5.6,2.4,5.6,5.3c0,2.9-2.3,4.8-4.5,6.3l5.1,5.6l3-4.9l1.8,1.1l-3.4,5.5l4.6,4.9L46.9,25.6z M35.3,13.1
		c-3.2,1.8-4.7,3.2-4.7,5.4c0,2.5,2.3,4.6,5.2,4.6c2.6,0,4-1.2,5.5-3.6L35.3,13.1z M32.9,5.7c0,1.4,0.9,2.6,3,4.8
		c2.4-1.4,3.7-2.9,3.7-4.8c0-1.9-1.3-3.3-3.4-3.3C34.2,2.4,32.9,4,32.9,5.7 M67.9,5.6l-2.1,0.8c-0.8-2.6-3.1-4.3-6.3-4.3
		c-3.4,0-5.7,1.7-5.7,4.6c0,6.2,14.2,2.9,14.2,11.7c0,4.2-3.4,7.1-8.4,7.1c-4.6,0-7.4-2.2-9.4-5.7l1.9-1.2c1.3,2.7,3.6,4.8,7.2,4.8
		c4.1,0,6.3-1.9,6.3-5c0-6.3-14.2-3.2-14.2-11.7c0-5,4.5-6.7,7.9-6.7C63.2,0,66.7,1.7,67.9,5.6"/>
	<polygon style="fill:#1D1D1B;" points="16.4,38.3 18.8,38.3 18.8,37.6 16.4,37.6 16.4,36 19,36 19,35.3 15.7,35.3 15.7,40.6 
		19.1,40.6 19.1,39.9 16.4,39.9 	"/>
	<path style="fill:#1D1D1B;" d="M22.6,37.6L22.6,37.6c-0.8-0.2-1.2-0.4-1.2-0.9c0-0.5,0.4-0.8,1-0.8c0.5,0,0.9,0.2,1.1,0.6l0.1,0.2
		l0.6-0.3l0-0.1c-0.4-0.9-1.4-1-1.6-1c-0.6,0-1.7,0.3-1.7,1.4c0,1,0.9,1.3,1.7,1.5c0.8,0.2,1.2,0.4,1.2,0.9c0,0.5-0.5,0.9-1.2,0.9
		c-0.7,0-1.1-0.3-1.4-0.8L21,39l-0.6,0.3l0.1,0.1c0.4,0.7,1.1,1.2,2,1.2c1.1,0,1.9-0.6,1.9-1.6C24.3,38.1,23.4,37.8,22.6,37.6"/>
	<polygon style="fill:#1D1D1B;" points="25.5,36 27.1,36 27.1,40.6 27.8,40.6 27.8,36 29.4,36 29.4,35.3 25.5,35.3 	"/>
	<polygon style="fill:#1D1D1B;" points="35,36.2 35.8,36.2 35.8,40.6 36.5,40.6 36.5,35.6 35.1,35.6 	"/>
	<path style="fill:#1D1D1B;" d="M51.5,35.6h-0.4l-2.4,3.4v0.5h2.5v1.2h0.7v-1.2h0.6v-0.6l-0.6-0.1v-3.2H51.5 M49.6,38.7l1.6-2.3v2.3
		H49.6z"/>
	<path style="fill:#1D1D1B;" d="M41.2,37.9c0.4-0.2,0.7-0.6,0.7-1.1c0-0.9-0.7-1.4-1.6-1.4c-0.9,0-1.6,0.5-1.6,1.4
		c0,0.5,0.2,0.9,0.7,1.1c-0.5,0.2-0.8,0.6-0.8,1.2c0,0.9,0.6,1.5,1.8,1.5c1.1,0,1.8-0.6,1.8-1.5C42.1,38.5,41.7,38.1,41.2,37.9
		 M39.3,36.9c0-0.5,0.3-0.8,1-0.8c0.6,0,1,0.3,1,0.8c0,0.5-0.5,0.8-1,0.8C39.8,37.7,39.3,37.4,39.3,36.9 M40.3,40.1
		c-0.6,0-1.1-0.3-1.1-1c0-0.6,0.5-0.9,1.1-0.9s1.1,0.3,1.1,0.9C41.4,39.8,40.9,40.1,40.3,40.1"/>
	<path style="fill:#1D1D1B;" d="M46.2,37.9c0.4-0.2,0.7-0.6,0.7-1.1c0-0.9-0.7-1.4-1.6-1.4c-0.9,0-1.6,0.5-1.6,1.4
		c0,0.5,0.2,0.9,0.7,1.1c-0.5,0.2-0.8,0.6-0.8,1.2c0,0.9,0.6,1.5,1.8,1.5c1.1,0,1.8-0.6,1.8-1.5C47,38.5,46.7,38.1,46.2,37.9
		 M44.3,36.9c0-0.5,0.4-0.8,1-0.8s1,0.3,1,0.8c0,0.5-0.5,0.8-1,0.8C44.7,37.7,44.3,37.4,44.3,36.9 M45.3,40.1c-0.6,0-1.1-0.3-1.1-1
		c0-0.6,0.5-0.9,1.1-0.9s1.1,0.3,1.1,0.9C46.4,39.8,45.9,40.1,45.3,40.1"/>
</g>
</svg>
