<?xml version="1.0" encoding="utf-8"?>
<!-- Generator: Adobe Illustrator 24.2.1, SVG Export Plug-In . SVG Version: 6.00 Build 0)  -->
<svg version="1.1" id="Layer_1" xmlns="http://www.w3.org/2000/svg" xmlns:xlink="http://www.w3.org/1999/xlink" x="0px" y="0px"
	 viewBox="0 0 179.7 18.5" style="enable-background:new 0 0 179.7 18.5;" xml:space="preserve">
<path d="M6.4,0.3C2.6,1.4,0.3,4.4,0,8.5c-0.3,4.6,2.2,8.3,6.5,9.6c1.5,0.4,4.4,0.4,6.3,0c1.4-0.3,2.1-0.5,3.3-1.1l0.6-0.3v-4.3V8.1
	h-2.9h-2.9L9.5,9.6l-1.4,1.5h2.6h2.6v1.7v1.7l-0.8,0.3c-0.5,0.2-1.4,0.3-2.5,0.4c-2.4,0.1-3.3-0.2-4.7-1.6c-0.9-0.9-1.1-1.2-1.4-2.3
	c-1.3-4.2,1-8,5-8.3c1.5-0.1,3,0.3,4.3,1.1l0.9,0.6l1.1-1.2c1-1.2,1.1-1.3,0.8-1.6c-0.4-0.5-2.3-1.3-3.6-1.7C11-0.1,7.8-0.1,6.4,0.3
	L6.4,0.3z M83.1,0.2c-3.1,0.3-5.3,2-5.8,4.2c-0.4,2.1,0.6,3.9,2.6,4.9c0.5,0.3,2,0.8,3.3,1.1c2.6,0.8,3.5,1.1,4,1.8
	c0.5,0.6,0.5,1,0.1,1.7c-0.5,0.9-1.6,1.3-3.4,1.3c-1.8,0-3.1-0.4-4.5-1.3l-0.7-0.5l-1,1.2l-1,1.2l0.5,0.4c2.5,2.1,7.6,2.8,10.8,1.3
	c1.5-0.7,2.2-1.4,2.7-2.5c0.8-1.7,0.5-3.8-0.7-5.1c-1-1-2.2-1.6-5-2.3c-3.3-0.9-4.1-1.4-4.1-2.6c0-0.7,1-1.6,2-1.9
	c1.2-0.3,3-0.1,4.3,0.5l1.1,0.5l1.1-1.1c0.6-0.6,1.1-1.1,1.1-1.2c0-0.2-2.2-1.2-3.4-1.5C85.5,0.1,84.5,0,83.1,0.2L83.1,0.2z
	 M172.4,0.1c-2.2,0.2-4.1,1-5.3,2.2c-0.9,0.9-1.2,1.8-1.2,3.2c0,2.4,1.5,3.6,5.9,4.9c2.5,0.7,3.9,1.3,4.2,1.9
	c0.6,1.2-0.3,2.5-1.9,2.9c-1.9,0.4-3.7,0.1-5.8-1.1c-0.5-0.3-1-0.5-1-0.5l-1,1.1c-1,1-1,1-0.6,1.4c0.9,1,3.6,2,6,2.3
	c2.3,0.2,5-0.5,6.4-1.8c1.2-1,1.6-1.9,1.6-3.5c0-1.5-0.4-2.4-1.4-3.3c-1-0.9-1.8-1.2-4.8-2.1c-1.5-0.4-2.9-0.9-3.2-1.1
	c-1.3-0.8-1.3-2,0-2.9c1.3-0.9,4.2-0.8,5.9,0.3l0.5,0.3l1.1-1.1l1.1-1.2l-0.4-0.3C177.1,0.7,174.3,0,172.4,0.1L172.4,0.1z M26.8,0.4
	c-2.5,0.7-4.4,2.3-5.4,4.4c-2,4.2-0.8,9.5,2.7,11.8c1.6,1.1,3.1,1.5,5.4,1.5c5.4,0,8.9-3.3,9.2-8.5c0.3-4.6-2.1-8-6.2-9.3
	C31.2,0.1,28,0.1,26.8,0.4z M32.2,3.7c3.4,1.8,4.1,7,1.4,9.9c-2.1,2.1-5.7,2.2-7.9,0.1c-1.8-1.7-2.3-4.8-1.3-7.3
	c0.3-0.8,1.6-2.2,2.3-2.6c1-0.5,1.4-0.6,3.1-0.5C31,3.3,31.6,3.4,32.2,3.7z M42.5,9.2v8.7H48h5.4l1.5-1.5l1.5-1.5h-5.3H46V7.7V0.5
	h-1.7h-1.7C42.5,0.5,42.5,9.2,42.5,9.2z M58.2,6.8v6.3l1.6-1.6l1.6-1.6V6.7V3.6L64,3.6c2.1,0.1,2.6,0.1,3.4,0.5
	c1.9,0.9,2.9,2.6,2.9,5.1c0,2.2-0.7,3.7-2.3,4.6c-1.3,0.8-2.6,1-6.5,1h-3.4l1.5,1.5l1.5,1.5h2.3c3.8,0,5.9-0.7,7.9-2.7
	c3.9-3.9,2.9-10.9-1.8-13.5c-1.7-0.9-2.9-1.1-7.4-1.1h-4L58.2,6.8L58.2,6.8z M96.4,0.8c-0.1,0.3-1.7,16.2-1.7,16.7
	c0,0.4,0.1,0.4,1.6,0.4c1.4,0,1.6-0.1,1.7-0.3c0-0.2,0.3-3,0.7-6.2c0.3-3.2,0.6-5.9,0.7-5.9s1.4,2.8,3,6.3l3,6.4
	c0.1,0,1.4-2.8,3.1-6.4c2.9-6.3,3-6.4,3.1-5.7c0.1,0.4,0.3,2.8,0.6,5.3l0.6,5.5l0.1,1h1.6h1.7l-0.6-5.4l-0.9-8.7l-0.3-3.3l-2.1,0.1
	l-2.1,0.1l-2.4,5.2l-2.5,5.2c-0.1,0-1.2-2.3-2.5-5.2l-2.3-5.2l-2-0.1C96.9,0.5,96.4,0.6,96.4,0.8L96.4,0.8z M120.8,9.2v8.7h1.7h1.7
	V9.2V0.5h-1.7h-1.7V9.2z M127.5,2.1v1.5h3.1h3.1v7.1v7.1h1.7h1.7v-7.1V3.6h2.2h2.2l1.5-1.5l1.5-1.5H136h-8.5L127.5,2.1L127.5,2.1z
	 M146.4,9.2v8.7h1.8h1.8v-3.5v-3.5h2.5h2.6l1.6-1.5l1.6-1.5h-4.1H150V4.1V0.5h-1.8h-1.8V9.2z M158.5,9.2v8.7h1.7h1.7V9.2V0.5h-1.7
	h-1.7V9.2z"/>
</svg>
