<?xml version="1.0"?>
<svg xmlns="http://www.w3.org/2000/svg" xmlns:xlink="http://www.w3.org/1999/xlink" xmlns:svgjs="http://svgjs.com/svgjs" version="1.1" width="512" height="512" x="0" y="0" viewBox="0 0 512 512" style="enable-background:new 0 0 512 512" xml:space="preserve" class=""><g>
<circle xmlns="http://www.w3.org/2000/svg" style="" cx="256" cy="256" r="256" fill="#f1f1f1" data-original="#ffad9e" class=""/>
<path xmlns="http://www.w3.org/2000/svg" style="" d="M269.846,511.624c130.77-6.971,235.487-112.075,241.842-243.007L410.003,166.933l-12.659,11.907  l-41.789-36.618l-153.14,171.672l-3.448,15.157l-42.524,69.172L269.846,511.624z" fill="#f1f1f1" data-original="#ff6262" class=""/>
<g xmlns="http://www.w3.org/2000/svg">
	<path style="" d="M174.976,413.306L174.976,413.306c-4.284,0-7.758-3.474-7.758-7.758V392.62   c0-4.284,3.474-7.758,7.758-7.758l0,0c4.284,0,7.758,3.474,7.758,7.758v12.929C182.734,409.833,179.26,413.306,174.976,413.306z" fill="#121149" data-original="#121149" class=""/>
	<path style="" d="M337.024,413.306L337.024,413.306c-4.284,0-7.758-3.474-7.758-7.758V392.62   c0-4.284,3.474-7.758,7.758-7.758l0,0c4.284,0,7.758,3.474,7.758,7.758v12.929C344.781,409.833,341.307,413.306,337.024,413.306z" fill="#121149" data-original="#121149" class=""/>
	<polygon style="" points="170.667,284.444 113.778,200.835 113.778,157.737 170.667,199.111  " fill="#121149" data-original="#121149" class=""/>
</g>
<g xmlns="http://www.w3.org/2000/svg">
	<path style="" d="M349.953,232.727c-1.324,0-2.646-0.505-3.656-1.515c-2.02-2.019-2.02-5.294,0-7.313l56.889-56.889   c2.02-2.02,5.292-2.02,7.313,0c2.02,2.019,2.02,5.294,0,7.313l-56.889,56.889C352.599,232.222,351.277,232.727,349.953,232.727z" fill="#386895" data-original="#386895"/>
	<path style="" d="M349.953,289.616c-1.324,0-2.646-0.505-3.656-1.515c-2.02-2.019-2.02-5.294,0-7.313l56.889-56.889   c2.02-2.02,5.292-2.02,7.313,0c2.02,2.019,2.02,5.294,0,7.313l-56.889,56.889C352.599,289.111,351.277,289.616,349.953,289.616z" fill="#386895" data-original="#386895"/>
</g>
<rect xmlns="http://www.w3.org/2000/svg" x="156.444" y="142.222" style="" width="199.111" height="256" fill="#273b7a" data-original="#273b7a"/>
<rect xmlns="http://www.w3.org/2000/svg" x="255.431" y="142.222" style="" width="100.124" height="256" fill="#121149" data-original="#121149" class=""/>
<rect xmlns="http://www.w3.org/2000/svg" x="227.556" y="227.556" style="" width="113.778" height="170.667" fill="#386895" data-original="#386895"/>
<rect xmlns="http://www.w3.org/2000/svg" x="280.704" y="227.556" style="" width="60.63" height="170.667" fill="#273b7a" data-original="#273b7a"/>
<rect xmlns="http://www.w3.org/2000/svg" x="156.444" y="142.222" style="" width="199.111" height="28.444" fill="#121149" data-original="#121149" class=""/>
<rect xmlns="http://www.w3.org/2000/svg" x="255.431" y="142.222" style="" width="100.124" height="28.444" fill="#0a0a35" data-original="#0a0a35"/>
<g xmlns="http://www.w3.org/2000/svg">
	<rect x="227.556" y="246.656" style="" width="113.778" height="28.444" fill="#38c6d9" data-original="#38c6d9"/>
	<rect x="227.556" y="298.667" style="" width="113.778" height="28.444" fill="#38c6d9" data-original="#38c6d9"/>
	<rect x="227.556" y="350.677" style="" width="113.778" height="28.444" fill="#38c6d9" data-original="#38c6d9"/>
</g>
<g xmlns="http://www.w3.org/2000/svg">
	<rect x="280.704" y="246.656" style="" width="60.63" height="28.444" fill="#02b2b2" data-original="#02b2b2"/>
	<rect x="280.704" y="298.667" style="" width="60.63" height="28.444" fill="#02b2b2" data-original="#02b2b2"/>
	<rect x="280.704" y="350.677" style="" width="60.63" height="28.444" fill="#02b2b2" data-original="#02b2b2"/>
</g>
<g xmlns="http://www.w3.org/2000/svg">
</g>
<g xmlns="http://www.w3.org/2000/svg">
</g>
<g xmlns="http://www.w3.org/2000/svg">
</g>
<g xmlns="http://www.w3.org/2000/svg">
</g>
<g xmlns="http://www.w3.org/2000/svg">
</g>
<g xmlns="http://www.w3.org/2000/svg">
</g>
<g xmlns="http://www.w3.org/2000/svg">
</g>
<g xmlns="http://www.w3.org/2000/svg">
</g>
<g xmlns="http://www.w3.org/2000/svg">
</g>
<g xmlns="http://www.w3.org/2000/svg">
</g>
<g xmlns="http://www.w3.org/2000/svg">
</g>
<g xmlns="http://www.w3.org/2000/svg">
</g>
<g xmlns="http://www.w3.org/2000/svg">
</g>
<g xmlns="http://www.w3.org/2000/svg">
</g>
<g xmlns="http://www.w3.org/2000/svg">
</g>
</g></svg>
