<?xml version="1.0" encoding="utf-8"?>
<svg version="1.1" id="Layer_1" xmlns="http://www.w3.org/2000/svg" xmlns:xlink="http://www.w3.org/1999/xlink" x="0px" y="0px"
	 viewBox="0 0 2130.3 613.6" style="enable-background:new 0 0 2130.3 613.6;" xml:space="preserve">
<g>
	<path style="fill-rule:evenodd;clip-rule:evenodd;" d="M368.2,436c-23.8,7.3-98.9,11-119.1,11C62.3,447,0,333.4,0,236.3
		C0,84.3,113.6,0,218,0c60.5,0,84.3,20.2,117.2,20.2c12.8,0,18.3-3.7,23.8-14.7h12.8v126.4h-11C349.9,51.3,276.6,16.5,218,16.5
		c-86.1,0-153.9,76.9-153.9,194.2c0,124.6,75.1,216.1,175.8,216.1c31.1,0,71.4-7.3,71.4-45.8v-45.8c0-51.3-11-69.6-45.8-69.6h-16.5
		v-12.8h172.2v12.8c-42.1,0-53.1,20.1-53.1,56.8L368.2,436L368.2,436L368.2,436z"/>
	<path style="fill-rule:evenodd;clip-rule:evenodd;" d="M701.6,392c-7.3,18.3-11,25.6-18.3,25.6c-12.8,0-14.7-11-14.7-42.1h0V262
		c0-71.4-51.3-95.2-95.2-95.2c-47.6,0-86.1,31.1-97.1,80.6l12.8,3.7c11-38.5,40.3-56.8,69.6-56.8c36.6,0,58.6,27.5,58.6,64.1v20.1
		c-42.1,23.8-144.7,22-144.7,97.1c0,38.4,33,69.6,75.1,69.6c27.5,0,44-9.2,69.6-36.7c9.2,25.7,22,36.7,45.8,36.7
		c29.3,0,47.6-20.2,51.3-53.1H701.6z M617.3,382.8c-11,22-38.5,34.8-55,34.8c-20.2,0-38.5-22-38.5-49.5c0-53.1,44-53.1,93.4-75.1
		V382.8z"/>
	<path style="fill-rule:evenodd;clip-rule:evenodd;" d="M926.9,166.7c-33,0-56.8,11-91.6,44v-44h-11L740,174v12.8
		c38.5,0,45.8,5.5,45.8,40.3v337c0,29.3-11,36.6-45.8,36.6v12.8h139.2v-12.8c-36.6,0-44-12.8-44-43.9V413.9
		c31.1,22,51.3,31.2,80.6,31.2c75.1,0,130.1-60.5,130.1-141C1045.9,225.3,996.5,166.7,926.9,166.7z M908.5,428.6
		c-25.6,0-53.1-12.8-73.3-33h0V230.8c25.7-29.3,45.8-40.3,71.4-40.3c49.5,0,84.3,51.3,84.3,122.7C991,377.3,956.2,428.6,908.5,428.6
		z"/>
	<path style="fill-rule:evenodd;clip-rule:evenodd;" d="M1298.7,357.2c0,51.3,12.8,67.8,49.4,67.8v11h-153.9v-11
		c34.8,0,47.6-14.6,47.6-67.8V91.6c0-55-11-67.8-47.6-67.8V11h153.9v12.8c-36.6,0-49.4,16.5-49.4,67.8V357.2L1298.7,357.2z"/>
	<path style="fill-rule:evenodd;clip-rule:evenodd;" d="M1683.4,379.2c0,34.8,7.3,45.8,44,45.8v11h-141v-11c36.7,0,45.8-9.1,45.8-33
		V254.6c0-44-29.3-60.4-58.6-60.4c-25.6,0-49.4,16.5-75.1,51.3v128.2c0,40.3,5.5,51.3,45.8,51.3v11h-139.2v-11
		c34.8,0,42.1-3.7,42.1-51.3V225.3c0-31.1-7.3-38.5-42.1-38.5V174l80.6-7.3h12.8V218c31.1-34.8,62.3-51.3,95.2-51.3
		c44,0,89.8,31.1,89.8,93.4V379.2L1683.4,379.2z"/>
	<path style="fill-rule:evenodd;clip-rule:evenodd;" d="M2000.2,258.3h-12.8c-11-47.6-44-76.9-87.9-76.9c-51.3,0-87.9,44-87.9,108.1
		c0,73.3,45.8,133.7,98.9,133.7c31.1,0,69.6-18.3,97.1-55v18.3c-27.5,38.5-67.8,58.6-115.4,58.6c-78.8,0-131.9-55-131.9-133.7
		c0-80.6,60.4-144.7,135.5-144.7c40.3,0,60.4,14.7,75.1,14.7c5.5,0,12.8-5.5,16.5-14.7h12.8L2000.2,258.3L2000.2,258.3L2000.2,258.3
		z"/>
	<path style="fill-rule:evenodd;clip-rule:evenodd;" d="M2130.3,408.5c0,20.2-16.5,36.7-34.8,36.7c-20.2,0-36.6-16.4-36.7-36.7
		c0-18.3,16.5-34.8,36.7-34.8C2113.8,373.7,2130.3,390.1,2130.3,408.5z"/>
</g>
</svg>
