<?xml version="1.0" encoding="utf-8"?>
<svg version="1.1" id="Layer_1" xmlns="http://www.w3.org/2000/svg" xmlns:xlink="http://www.w3.org/1999/xlink" x="0px" y="0px"
	width="100px" height="100px" viewBox="0 0 66.7 66.7" style="enable-background:new 0 0 66.7 66.7;" xml:space="preserve">
<g>
	<circle style="fill:#E8E8E8;" cx="33.3" cy="33.3" r="33.3"/>
	<circle style="fill:#FFFFFF;" cx="33.3" cy="33.3" r="32.7"/>
	<path style="fill:#1C4045;" d="M50.4,41.3h-3.9l0,0l0.5,0.5c0.1,0.1,0.1,0.1,0.1,0.1v3.7c0,0.1,0,0.1-0.1,0.1l-0.5,0.4l0,0h3.9
		v-1.7l0,0l-0.9,1.3c-0.1,0.1-0.1,0.1-0.2,0.1h-0.9c-0.1,0-0.1,0.1-0.1-0.1v-1.9h0.5c0.1,0,0.1,0,0.2,0.1l0.7,0.7l0,0v-1.9l0,0
		l-0.7,0.7c-0.1,0.1-0.1,0-0.2,0.1h-0.5v-1.9c0-0.1,0-0.1,0.1-0.1h0.7c0.1,0,0.1,0,0.2,0.1l0.9,1.3l0,0v-1.6h0.1L50.4,41.3
		L50.4,41.3z M44.3,41.3h-3.9l0,0l0.5,0.5c0.1,0.1,0.1,0.1,0.1,0.1v3.7c0,0.1,0,0.1-0.1,0.1l-0.5,0.4l0,0h4v-1.7l0,0l-0.9,1.3
		c-0.1,0.1-0.1,0.1-0.2,0.1h-0.9c-0.1,0-0.1,0.1-0.1-0.1v-1.9h0.5c0.1,0,0.1,0,0.2,0.1l0.7,0.7l0,0v-1.9l0,0L43,43.3
		c-0.1,0.1-0.1,0-0.2,0.1h-0.5v-1.9c0-0.1,0-0.1,0.1-0.1h0.7c0.1,0,0.1,0,0.2,0.1l0.9,1.3l0,0L44.3,41.3L44.3,41.3L44.3,41.3z
		 M38.5,41.3h-3.9l0,0l0.5,0.5c0.1,0.1,0.1,0.1,0.1,0.1v3.7c0,0.1,0,0.1-0.1,0.1l-0.5,0.4l0,0h2.6l0,0l-0.7-0.5
		c-0.1-0.1-0.1-0.1-0.1-0.1v-1.7h0.5c0.1,0,0.1,0,0.2,0.1l0.7,0.7l0,0v-1.9l0,0l-0.7,0.7c-0.1,0.1-0.1,0.1-0.2,0.1h-0.5v-1.9
		c0-0.1,0-0.1,0.1-0.1h0.7c0.1,0,0.1,0,0.2,0.1l0.9,1.3l0,0v-1.6L38.5,41.3L38.5,41.3z M32.5,41.3h-3.9l0,0l0.5,0.5
		c0.1,0.1,0.1,0.1,0.1,0.1v3.7c0,0.1,0,0.1-0.1,0.1l-0.5,0.4l0,0h2.6l0,0l-0.7-0.5c-0.1-0.1-0.1-0.1-0.1-0.1v-1.7h0.5
		c0.1,0,0.1,0,0.2,0.1l0.7,0.7l0,0v-1.9l0,0l-0.7,0.7c-0.1,0.1-0.1,0.1-0.2,0.1h-0.5v-1.9c0-0.1,0-0.1,0.1-0.1h0.7
		c0.1,0,0.2,0,0.2,0.1l0.9,1.3l0,0L32.5,41.3L32.5,41.3L32.5,41.3L32.5,41.3z M15.4,43.9c0,1.5,0.8,2.6,2.5,2.6c0.5,0,1-0.1,1.5-0.1
		v-1.8l0,0l-1.1,1.5c-0.1,0.1-0.1,0.1-0.2,0.1h-0.1c-0.8,0-1.1-0.8-1.1-2.3c0-1.5,0.3-2.3,1.1-2.3h0.1c0.1,0,0.2,0,0.3,0.1l1.1,1.5
		l0,0v-1.7c-0.5-0.1-1.1-0.1-1.6-0.1C16.3,41.3,15.4,42.3,15.4,43.9 M19,25.1c0,2.5-0.7,4.4-2.6,4.4h-0.8v-8.1l0,0
		c0-0.4,0.1-0.4,0.4-0.4h0.7C18.3,21,19,22.8,19,25.1 M24.2,25.1c0-3.8-3.3-4.8-6.6-4.8H9.1l0,0l1.3,1.7c0.1,0.2,0.2,0.3,0.2,0.6
		v11.3c0,0.3-0.1,0.3-0.3,0.5l-1.5,1.8v0.1h8.8v-0.1l-1.9-1.8c-0.2-0.2-0.2-0.3-0.2-0.5v-3.3h1.3C21.5,30.4,24.2,28.9,24.2,25.1
		 M25.2,43.9c0,1.7-0.3,2.3-1,2.3c-0.6,0-1-0.5-1-2.3c0-1.7,0.3-2.3,1-2.3C24.9,41.5,25.2,42.1,25.2,43.9 M24.2,41.3
		c-1.5,0-2.5,0.9-2.5,2.6c0,1.7,0.9,2.6,2.5,2.6s2.5-0.9,2.5-2.6C26.7,42.1,25.7,41.3,24.2,41.3 M31.1,33.5c0,0.4-0.7,0.6-1.1,0.6
		c-0.7,0-1.2-0.3-1.2-1.6c0-1.3,0.7-2,1.6-2c0.2,0,0.3,0.1,0.7,0.1L31.1,33.5 M37.1,34.1L37.1,34.1c-0.1,0-0.2,0.3-0.6,0.3
		c-0.3,0-0.6-0.3-0.6-0.8v-4.5c0-1.3-0.2-4.5-5.1-4.5c-2.1,0-4,0.4-5.4,0.9l1.7,3.4h0.1l2.1-3.3c0.1-0.1,0.1-0.3,0.3-0.3
		c0.5-0.1,1.5,0,1.5,1.9v2.8c-0.5-0.4-1.5-0.6-2.7-0.6c-1.9,0-4,1.2-4,3.5c0,2.2,1.5,3.3,3.3,3.3c1.5,0,2.8-0.9,3.4-2.2l0,0
		c0,1.5,1.4,2.2,3,2.2C35.6,36.3,37,35.6,37.1,34.1 M46.5,29.6l1.7-4.3c-1.5-0.5-2.9-0.7-4.3-0.7c-3.2,0-6.5,1.5-6.5,6
		c0,3.8,2.7,5.7,5.7,5.7c2.8,0,4.5-1.4,5-4.1H48c-0.5,0.9-1.5,1.5-2.7,1.5c-1.5,0-3.1-1-3.1-4.4c0-2.9,0.6-3.9,1.7-3.9
		c0.2,0,0.2,0.1,0.4,0.3l2,4L46.5,29.6L46.5,29.6L46.5,29.6z M57.8,24.3H55v-3.8l0,0L51,24c-0.2,0.2-0.4,0.3-0.8,0.3h-0.6l-0.4,1
		h1.2v7.6c0,2.2,1.1,3.4,3.3,3.4c2.5,0,3.5-1.4,3.7-2.6l-0.1-0.1c-0.2,0.3-0.7,0.5-1.1,0.5c-0.7,0-1.2-0.5-1.2-1.6v-7.3h2.4
		C57.5,25.3,57.8,24.3,57.8,24.3z"/>
</g>
</svg>
