<svg xmlns="http://www.w3.org/2000/svg" viewBox="0 0 400 300"><path d="M206.6 121h14.2v36.4c0 14.2-8.7 22.7-21.7 22.7-13.2 0-21.1-8.1-21.1-22.7V121h14.3v35.8c0 6.5 2.1 9.9 6.9 9.9 5 0 7.4-3.3 7.4-9.9V121zm60.3 19.6c0 7.5-3.4 13.7-9.2 17.3-3.7 2.2-8.3 2.6-14.3 2.6h-4.1v18.7H225V121h19.3c6.1 0 10.8.4 14.7 3.2 5.2 3.6 7.9 9.1 7.9 16.4zm-14.4.2c0-4.8-3-6.8-9.3-6.8h-3.8v13.8h2.6c7 .1 10.5-1.7 10.5-7zm113.1 12.6L344.2 121h-12.8v58.2h14.2v-32.4l21.7 32.4h12.5V121h-14.2v32.4zm-200.2-24.8c5.9 5.8 9 13.2 9 21.2 0 8.3-2.9 15.8-8.4 21.4-5.6 5.9-13.3 9.1-21.4 9.1-8.6 0-16-3.1-21.7-9.2-5.5-5.8-8.3-13-8.3-21.6 0-8 3.1-15.4 8.8-21s12.9-8.5 21.2-8.5c7.8 0 15.2 3 20.8 8.6zm-5.7 21.1c0-8.5-6.8-15.3-15-15.3-8.7 0-15.5 6.8-15.5 15.3 0 9.2 7.3 16.2 15.3 16.2 8.4 0 15.2-6.7 15.2-16.2zm159.9-21.1c5.9 5.8 9 13.2 9 21.2 0 8.3-2.9 15.8-8.4 21.4-5.6 5.9-13.3 9.1-21.4 9.1-8.6 0-15.9-3.1-21.7-9.2-5.5-5.8-8.3-13-8.3-21.6 0-8 3.1-15.4 8.8-21s12.9-8.5 21.2-8.5c7.7 0 15.1 3 20.8 8.6zm-5.7 21.1c0-8.5-6.8-15.3-15-15.3-8.7 0-15.5 6.8-15.5 15.3 0 9.2 7.3 16.2 15.3 16.2 8.3 0 15.1-6.7 15.2-16.2zm-280.3-3.2v11.6h16.6c-2.9 5.1-7.7 7.9-13.1 7.9-8 0-15.2-7.1-15.2-16.4 0-8.4 6.7-15.3 15.2-15.3 4.6 0 8.3 1.9 12 5.6h16.2c-4.7-12.4-15.5-20.1-28-20.1-8.3 0-15.5 2.9-21.2 8.6-5.7 5.6-8.8 13-8.8 21 0 8.6 2.8 15.8 8.2 21.6 5.7 6.1 13 9.2 21.6 9.2a30.22 30.22 0 0 0 24.8-13c3.4-4.9 5-10.5 5-17 0-1.2-.1-2.5-.2-3.9H33.6zm65.6 12.7l14.2 20H95.9l-11.1-18.7v18.7H70.5V121h19.3c6.1 0 10.8.4 14.7 3.2 5.2 3.6 7.9 9.1 7.9 16.3 0 9.4-4.9 16.4-13.2 18.7zM98 140.8c0-4.8-3-6.8-9.3-6.8h-3.9v13.8h2.8c7 .1 10.4-1.7 10.4-7zM392.7 124c0 1.2-.4 2.2-1.3 3.1-.8.9-1.9 1.3-3.1 1.3s-2.2-.4-3.1-1.3c-.8-.8-1.3-1.9-1.3-3.1s.4-2.2 1.3-3.1c.8-.8 1.9-1.3 3.1-1.3s2.3.4 3.1 1.3 1.3 1.9 1.3 3.1zm-.6 0c0-1-.4-1.9-1.1-2.7a3.69 3.69 0 0 0-2.7-1.1c-1 0-1.9.4-2.7 1.1a3.69 3.69 0 0 0-1.1 2.7c0 1.1.4 1.9 1.1 2.7a3.69 3.69 0 0 0 2.7 1.1c1.1 0 1.9-.4 2.7-1.1a3.69 3.69 0 0 0 1.1-2.7zm-2.3-.1c-.2.1-.4.2-.7.2.4.1.6.2.8.5s.3.5.3.7v.4.4.3.1h-.8v-.1-.2-.4c0-.6-.1-.9-.5-1.1-.2-.1-.5-.2-.9-.2h-.7v1.9h-.8v-4.8h1.7c.6 0 1 .1 1.3.2.5.2.7.6.7 1.2.1.4-.1.7-.4.9zm-.3-.9c0-.4-.1-.6-.3-.7s-.6-.2-1-.2h-.7v1.7h.8c.4 0 .6 0 .8-.1.2 0 .4-.3.4-.7z" fill="#53a318"/></svg>