<?xml version="1.0" encoding="utf-8"?>
<svg version="1.1" id="Layer_1" xmlns="http://www.w3.org/2000/svg" xmlns:xlink="http://www.w3.org/1999/xlink" x="0px" y="0px"
	width="100px" height="100px" viewBox="0 0 315 315" style="enable-background:new 0 0 315 315;" xml:space="preserve">
<g>
	<g>
		<path style="fill:#E8E8E8;" d="M157.5,0C244.5,0,315,70.5,315,157.5S244.5,315,157.5,315S0,244.5,0,157.5S70.5,0,157.5,0"/>
		<path style="fill:#FFFFFF;" d="M157.5,3.2c85.2,0,154.4,69.1,154.4,154.4s-69.1,154.4-154.4,154.4S3.2,242.7,3.2,157.5
			S72.3,3.2,157.5,3.2"/>
	</g>
	<path style="fill:#0E2E5A;" d="M202.3,149.1c-0.3-7-2.2-14-5.9-20.5l-32.5-56c-2.5-4.2-4.2-9-5-13.4l-1.4,2.2
		c-8.1,14-8.1,31.1,0,44.8l25.8,44.8c8.1,14,8.1,31.1,0,44.8l-1.4,2.2c-0.8-4.8-2.5-9.3-5-13.4l-38.7-67.2c-2.5-4.2-4.2-9-5-13.4
		l-1.4,2.2c-7.8,13.7-8.1,30.8,0,44.8l0,0l26.1,45.1c8.1,14,8.1,31.1,0,44.8l-1.4,2.2c-0.8-4.8-2.5-9.3-5-13.4l-32.5-56
		c-4.2-7.6-6.4-16-5.9-24.4c-34.7,9-58.8,28-58.8,50.4c0,30.8,46.2,56,103.4,56s103.4-25.2,103.4-56
		C260.9,177.4,237.1,158.3,202.3,149.1C202.3,149.1,202.3,149.1,202.3,149.1z"/>
</g>
</svg>
