<?xml version="1.0" encoding="utf-8"?>
<svg version="1.1" id="Layer_1" xmlns="http://www.w3.org/2000/svg" xmlns:xlink="http://www.w3.org/1999/xlink" x="0px" y="0px"
	 viewBox="0 0 156.5 38.92" style="enable-background:new 0 0 156.5 38.92;" xml:space="preserve">
<g>
	<path style="fill:#333373;" d="M53.63,0.08c-0.06,0.06-0.08,0.42-0.08,1.19s0.02,1.13,0.08,1.19c0.17,0.17,2.23,0.11,2.35-0.07
		C56.11,2.2,56.13,0.44,56,0.17L55.93,0h-1.11C54.04,0,53.68,0.02,53.63,0.08L53.63,0.08z M0.13,0.21
		c-0.15,0.09-0.18,15.1-0.04,15.25c0.12,0.12,11.12,0.12,11.24,0c0.15-0.14,0.11-2.01-0.04-2.14c-0.11-0.1-0.5-0.11-4.25-0.11
		c-3.12,0-4.15-0.02-4.21-0.08c-0.1-0.1-0.11-4.02-0.01-4.28l0.07-0.17l3.8,0c2.09,0,3.83-0.01,3.87-0.04
		c0.1-0.06,0.08-1.99-0.02-2.08c-0.06-0.06-1.02-0.08-3.89-0.08H2.83L2.79,6.32c-0.08-0.3-0.05-3.68,0.04-3.77
		C2.89,2.49,3.9,2.47,6.98,2.47s4.09-0.02,4.15-0.08c0.15-0.15,0.11-2.1-0.05-2.18C10.91,0.11,0.3,0.11,0.13,0.21L0.13,0.21z
		 M12.67,0.21c-0.17,0.1-0.18,15.22-0.01,15.29c0.21,0.08,2.26,0.04,2.35-0.04c0.12-0.12,0.12-15.12,0-15.24
		C14.9,0.11,12.84,0.11,12.67,0.21L12.67,0.21z M79.76,0.21c-0.09,0.09-0.12,15.09-0.02,15.24c0.04,0.07,0.33,0.08,1.22,0.07
		l1.16-0.02l0.02-7.59c0.01-5.56,0-7.62-0.06-7.68C81.97,0.1,79.88,0.09,79.76,0.21L79.76,0.21z M40.17,1.12
		c-0.02,0.06-0.04,0.8-0.04,1.64C40.11,4.55,40.2,4.4,39.15,4.4c-0.96,0-0.93-0.03-0.93,0.87c0,0.97-0.01,0.96,0.9,0.94
		c0.56-0.01,0.75,0,0.87,0.09l0.16,0.11l0.02,3.85c0.02,3.81,0.02,3.85,0.17,4.15c0.45,0.93,1.25,1.26,3.06,1.26
		c1.51,0,1.49,0.01,1.5-1.08c0-1,0.02-0.99-0.91-0.99c-0.78,0-1.04-0.1-1.22-0.45c-0.11-0.21-0.21-6.68-0.11-6.86
		c0.04-0.08,0.26-0.1,1.04-0.1c1.25,0,1.2,0.04,1.2-0.93c0-0.92,0.05-0.88-1.08-0.88c-1.29,0-1.18,0.15-1.18-1.64
		c0-0.91-0.03-1.55-0.07-1.63C42.44,0.94,40.22,0.93,40.17,1.12L40.17,1.12z M20.48,4.11c-3.63,0.65-5.56,4.68-4.11,8.6
		c0.77,2.1,3.54,3.6,5.82,3.17c0.18-0.03,0.51-0.1,0.75-0.14c1.5-0.28,2.79-1.42,3.45-3.07c0.25-0.63,0.2-0.66-1.16-0.66
		c-1.08,0-1.05-0.01-1.4,0.68c-1.06,2.15-4.39,1.76-5.15-0.6c-0.2-0.64-0.31-1.35-0.22-1.44c0.05-0.05,1.25-0.08,4.03-0.08
		c4.56-0.01,4.24,0.03,4.24-0.48C26.74,6.17,23.93,3.49,20.48,4.11z M31.92,4.13c-1.78,0.38-2.97,1.29-3.71,2.85
		c-0.14,0.31-0.26,0.6-0.26,0.66s-0.03,0.17-0.08,0.25c-0.04,0.08-0.13,0.52-0.2,0.98c-0.6,4.11,1.64,6.94,5.49,6.93
		c0.91,0,2.23-0.26,2.36-0.47c0.02-0.03,0.08-0.06,0.14-0.06c0.29,0,1.31-0.86,1.71-1.44c0.66-0.95,1.1-2.49,0.73-2.5
		c-0.8-0.03-2.17,0.01-2.25,0.07c-0.05,0.04-0.11,0.2-0.14,0.35c-0.29,1.69-2.23,2.58-3.87,1.77c-2.29-1.13-2.24-6.23,0.07-7.25
		C33.58,5.54,35,6.12,35.63,7.8c0.14,0.38,0.09,0.37,1.19,0.39c1.45,0.03,1.42,0.04,1.29-0.69C37.63,4.99,34.89,3.5,31.92,4.13z
		 M60.87,4.14c-1.61,0.34-3.04,1.43-3.63,2.78l-0.23,0.52c-0.55,1.25-0.52,3.91,0.04,5.23c0.99,2.31,3.4,3.51,6.16,3.06
		c1.87-0.3,3.47-1.68,3.84-3.3c0.02-0.11,0.09-0.32,0.14-0.48c0.11-0.33,0.06-0.61-0.1-0.61c-0.71,0-1.42,0-2.12,0
		c-0.1,0-0.29,0.35-0.29,0.53c0,0.54-0.66,1.36-1.38,1.71c-1.49,0.73-3.16,0.02-3.82-1.64l-0.22-0.56l0-1.37
		c-0.01-2.79,1.3-4.35,3.36-4c1.05,0.18,2.06,1.15,2.07,1.98c0,0.22,2.15,0.33,2.43,0.12c0.33-0.24-0.37-1.96-1.1-2.71
		C64.87,4.22,62.84,3.72,60.87,4.14L60.87,4.14z M71.51,4.13c-1.91,0.33-2.92,1.16-3.42,2.8C67.83,7.8,67.83,7.8,69.19,7.8h1.09
		l0.14-0.37c0.08-0.2,0.14-0.4,0.14-0.43c0-0.58,1.06-1.13,2.19-1.13c1.57,0,2.27,0.46,2.33,1.54c0.06,1.07-0.28,1.28-2.45,1.53
		c-3.21,0.36-4.21,0.8-4.85,2.13l-0.25,0.51v0.9c0,0.91,0.1,1.38,0.34,1.67c0.05,0.06,0.09,0.14,0.09,0.18c0,0.18,0.8,0.86,1.27,1.1
		c1.51,0.74,4.25,0.45,5.63-0.59c0.28-0.21,0.32-0.2,0.45,0.11c0.29,0.67,0.85,0.91,1.94,0.85c1.44-0.08,1.44-0.09,1.44-1.04
		c0-0.78-0.04-0.84-0.55-0.88c-0.66-0.05-0.64,0.08-0.6-3.84c0.04-3.64,0.02-3.78-0.43-4.45C76.31,4.37,73.81,3.73,71.51,4.13
		L71.51,4.13z M51.12,4.21c-0.85,0.16-1.76,0.81-2.3,1.65c-0.32,0.49-0.36,0.42-0.4-0.6l-0.03-0.89h-2.27V15.5l1.12,0.02
		c0.77,0.01,1.15-0.01,1.22-0.06c0.07-0.06,0.09-0.49,0.09-2.32c0-2.75,0.08-4,0.28-4.6c0.45-1.36,1.78-2.19,3.24-2.04
		c0.29,0.03,0.46,0.02,0.52-0.03c0.12-0.1,0.14-2.13,0.01-2.25C52.51,4.12,51.61,4.12,51.12,4.21L51.12,4.21z M53.62,4.42
		c-0.06,0.07-0.07,1.58-0.06,5.58l0.02,5.49l1.16,0.02c0.8,0.01,1.19-0.01,1.25-0.06c0.12-0.1,0.14-10.78,0.02-11
		C55.92,4.29,53.76,4.26,53.62,4.42z M22.16,6.06c0.97,0.3,1.51,0.88,1.86,1.97C24.2,8.59,24.19,8.84,24,8.89
		c-0.31,0.08-5.37,0.05-5.43-0.04c-0.08-0.13-0.02-0.6,0.12-0.91c0.07-0.16,0.13-0.32,0.13-0.35c0-0.11,0.51-0.81,0.74-1.03
		C20.19,5.97,21.22,5.77,22.16,6.06L22.16,6.06z M75.02,10.17c0.12,0.15,0.05,1.82-0.1,2.26c-0.37,1.1-1.27,1.63-2.78,1.63
		c-1.36,0-2.1-0.64-2.04-1.76c0.06-1.12,0.67-1.52,2.69-1.77c1.03-0.13,1.7-0.26,1.89-0.36C74.9,10.05,74.92,10.05,75.02,10.17z
		 M87.09,19.99c-0.14,0.09-0.07,5.02,0.08,6.07c0.24,1.67,0.77,3.82,1.15,4.73c0.56,1.33,1.66,3.05,2.02,3.17
		c0.07,0.02,0.56-0.22,1.24-0.62c0.62-0.36,1.17-0.68,1.23-0.7s0.22-0.12,0.37-0.21c0.15-0.09,0.31-0.19,0.37-0.21
		s0.75-0.42,1.53-0.88s1.57-0.9,1.73-0.99c0.17-0.09,0.4-0.22,0.53-0.3s0.37-0.21,0.53-0.31c1.73-0.96,1.7-0.94,1.29-1.37
		c-0.33-0.35-0.62-0.73-0.62-0.82c0-0.03-0.04-0.1-0.09-0.15c-0.1-0.11-0.31-0.75-0.44-1.31c-0.15-0.68-0.2-1.59-0.2-3.78
		c0-1.24-0.02-2.28-0.04-2.32C97.73,19.92,87.22,19.91,87.09,19.99L87.09,19.99z M107.79,20.24c-0.02,0.06-0.04,0.9-0.04,1.87
		c0,2.04-0.02,1.98,0.59,1.64c0.21-0.11,0.71-0.38,1.11-0.59l2.9-1.52l1.68-0.87c0.7-0.36,0.9-0.49,0.84-0.56
		C114.75,20.08,107.84,20.1,107.79,20.24L107.79,20.24z M15.2,22.34c-0.15,0.08-0.18,2.17-0.04,2.32c0.13,0.13,2.36,0.11,2.41-0.03
		c0.08-0.21,0.04-2.2-0.04-2.28C17.43,22.25,15.37,22.24,15.2,22.34L15.2,22.34z M0.5,22.48c-0.14,0.14-0.11,15.23,0.02,15.28
		c0.62,0.24,8.59-0.03,8.86-0.29c0.05-0.04,0.1-0.06,0.16-0.06c0.26,0,1.12-0.53,1.79-1.1c0.98-0.84,1.81-2.32,2.09-3.7l0.13-0.66
		c0.67-3.3-0.51-7.08-2.64-8.42c-1.1-0.69-1.84-0.95-3-1.05C6.73,22.37,0.6,22.38,0.5,22.48z M141.38,22.86
		c-0.04,0.04-0.4,0.24-0.8,0.44s-0.82,0.43-0.93,0.49c-0.11,0.07-0.54,0.3-0.97,0.52s-1.1,0.57-1.5,0.79
		c-0.4,0.21-0.82,0.43-0.92,0.48c-0.23,0.11-0.23,0.29-0.03,0.61c0.08,0.13,0.18,0.29,0.22,0.36l2.1,3.59l2.16,3.68
		c0.07,0.12,0.21,0.38,0.32,0.57c0.17,0.32,0.35,0.53,0.47,0.54c0.02,0,0.06-1.34,0.09-2.98s0.06-3.45,0.07-4.02
		c0.08-4.42,0.07-5.1-0.07-5.12C141.51,22.8,141.42,22.83,141.38,22.86L141.38,22.86z M77.46,23.31c-0.02,0.02-0.04,0.73-0.04,1.56
		c0,1.91,0.09,1.73-0.85,1.73c-1.06,0-1.02-0.03-1.02,0.93c0,0.97-0.04,0.93,1,0.95l0.83,0.02l0.04,3.57
		c0.05,4.42,0.08,4.65,0.75,5.23c0.57,0.5,1.51,0.68,3.08,0.59c1.02-0.06,0.97,0,0.97-1.03c0-1,0.06-0.93-0.82-0.96
		c-1.47-0.04-1.41,0.12-1.44-3.84c-0.01-1.74,0-3.26,0.02-3.38l0.04-0.22h0.97c1.29,0,1.23,0.05,1.23-0.92c0-1,0.07-0.94-1.13-0.94
		c-1.24,0-1.13,0.17-1.13-1.75v-1.59h-1.22C78.06,23.27,77.49,23.29,77.46,23.31L77.46,23.31z M7.45,24.83
		c1.61,0.34,2.57,1.18,3.19,2.8c0.28,0.71,0.4,2.58,0.24,3.66c-0.32,2.15-1.19,3.43-2.73,3.99c-0.38,0.14-4.4,0.27-4.84,0.15
		L3.15,35.4v-5.2c0-3.46,0.02-5.25,0.07-5.33C3.31,24.69,6.66,24.67,7.45,24.83L7.45,24.83z M22.72,26.34
		c-2.47,0.23-3.97,1.81-3.64,3.82c0.26,1.54,1.23,2.19,4.3,2.85c2.59,0.56,3.37,1.21,2.75,2.31c-0.29,0.51-0.77,0.79-1.56,0.92
		c-1.66,0.27-2.95-0.32-3.22-1.46c-0.13-0.59,0-0.56-2.42-0.51c-0.29,0.01,0.01,1.34,0.47,2.04c0.89,1.38,2.86,2.02,5.4,1.77
		c2.65-0.27,4.23-1.89,3.94-4.04c-0.24-1.75-1.06-2.27-4.92-3.17c-1.94-0.45-2.37-0.76-2.24-1.63c0.11-0.71,0.77-1.06,2.01-1.06
		c1.35-0.01,1.97,0.35,2.29,1.3c0.13,0.4,0.17,0.41,1.31,0.41c1.29,0,1.27,0.01,1.09-0.71C27.72,27.01,25.84,26.05,22.72,26.34
		L22.72,26.34z M34.42,26.31c-1.4,0.14-2.88,1.04-3.67,2.2c-0.22,0.33-0.67,1.25-0.67,1.38c0,0.05-0.04,0.22-0.1,0.37
		c-0.14,0.41-0.32,1.97-0.27,2.37c0.02,0.18,0.07,0.57,0.1,0.85c0.18,1.57,1.23,3.2,2.49,3.87c2.37,1.25,5.6,0.8,6.98-0.98l0.31-0.4
		c0.28-0.35,0.82-1.78,0.82-2.16c0-0.23-0.21-0.27-1.25-0.27c-1.15,0-1.25,0.04-1.32,0.48c-0.03,0.16-0.07,0.31-0.1,0.35
		s-0.09,0.17-0.14,0.3c-0.05,0.13-0.12,0.27-0.16,0.32c-1.62,2.08-4.61,1.15-5.04-1.58c-0.36-2.26,0.29-4.24,1.58-4.85
		c1.6-0.76,3.11-0.24,3.69,1.27c0.23,0.6,0.15,0.57,1.4,0.57c1.34,0,1.32,0.01,1.17-0.64c-0.22-0.98-0.53-1.52-1.24-2.22
		c-0.4-0.4-0.56-0.5-1.26-0.83C37.03,26.36,35.57,26.19,34.42,26.31L34.42,26.31z M45.95,26.31c-3.1,0.21-5.04,2.51-5.03,5.96
		c0.01,3.7,2.11,5.86,5.66,5.86c3.78,0,5.87-2.44,5.63-6.57c-0.11-1.82-1.14-3.81-2.24-4.31c-0.09-0.04-0.16-0.09-0.16-0.11
		c0-0.04-0.32-0.2-1.01-0.5c-0.13-0.06-0.29-0.11-0.34-0.11s-0.26-0.04-0.46-0.09C47.62,26.34,46.53,26.27,45.95,26.31L45.95,26.31z
		 M70.35,26.31c-1.08,0.12-1.9,0.49-2.64,1.21c-0.63,0.61-0.62,0.61-0.62-0.14c0-0.39-0.03-0.65-0.08-0.7
		c-0.12-0.12-2.08-0.11-2.18,0.01c-0.08,0.1-0.12,10.92-0.04,11.04c0.06,0.1,2.32,0.08,2.42-0.02c0.06-0.06,0.08-0.92,0.08-3.45
		c0-3.96,0.04-4.24,0.72-5.01c0.81-0.92,2.86-1.09,3.53-0.3c0.53,0.63,0.57,0.95,0.6,5.14c0.01,1.94,0.04,3.57,0.05,3.62
		c0.02,0.07,0.3,0.08,1.22,0.07l1.18-0.02v-8.73l-0.16-0.43C73.85,27.04,72.18,26.11,70.35,26.31L70.35,26.31z M15.19,26.7
		c-0.09,0.09-0.1,0.69-0.1,5.57v5.46l0.15,0.04c0.08,0.02,0.65,0.03,1.25,0.02l1.1-0.02l0.02-5.49c0.01-4,0-5.52-0.06-5.58
		C17.42,26.55,15.33,26.56,15.19,26.7z M53.35,26.69c-0.11,0.13-0.1,7.92,0,8.6c0.44,2.85,4.58,3.84,6.81,1.62
		c0.55-0.54,0.58-0.53,0.58,0.21c0,0.47,0.02,0.6,0.11,0.63c0.17,0.07,2.22,0.05,2.26-0.02c0.08-0.13,0.04-10.95-0.04-11.04
		c-0.06-0.07-0.33-0.09-1.2-0.09h-1.13l-0.07,0.18c-0.04,0.11-0.07,1.39-0.06,3.45c0,3.7-0.01,3.87-0.5,4.6
		c-0.92,1.38-3.28,1.62-3.95,0.4c-0.31-0.56-0.35-1.11-0.35-4.93c0-2.66-0.02-3.56-0.08-3.62C55.61,26.56,53.46,26.57,53.35,26.69z
		 M131.62,27.87L121,33.79c-0.11,0.1-0.12,0.26-0.1,2.14l0.02,2.04L132.15,38l0.04-0.15c0.02-0.08,0.03-2.4,0.02-5.15
		C132.18,27.06,132.24,27.53,131.62,27.87L131.62,27.87z M47.28,28.37c2.15,0.49,3.14,3.68,1.92,6.23
		c-0.97,2.02-4.01,2.15-5.14,0.21c-0.33-0.57-0.5-1.12-0.58-1.87C43.16,29.84,44.84,27.82,47.28,28.37z"/>
	<path style="fill:#EC1B31;" d="M87.15,15.45c-0.05-0.12-0.08-3.57-0.08-7.67V0.34h10.55l0.09,1.49c0.05,0.82,0.09,4.22,0.09,7.57
		v6.09l-3.37,0.09C88.76,15.73,87.25,15.7,87.15,15.45L87.15,15.45z M110.03,15.56l-2.2-0.04V0.37l1.26-0.1
		c0.69-0.05,3.07-0.05,5.27,0l4.02,0.1l0.09,7.12c0.05,3.92,0.05,7.36,0,7.65l-0.09,0.52l-3.08-0.03
		C113.61,15.62,111.24,15.59,110.03,15.56L110.03,15.56z M123.41,15.56l-2.2-0.04V0.34h10.59v2.68c0,3.87,0.17,9.58,0.28,9.58
		c0.05,0,2.18-2.72,4.72-6.06s4.67-6.09,4.73-6.12c0.2-0.12,12.22-0.25,12.6-0.13l0.38,0.11l-1.23,1.46
		c-0.67,0.81-2.82,3.41-4.77,5.78s-4.24,5.15-5.07,6.17l-1.52,1.85l-8.16-0.03C129.28,15.62,124.62,15.59,123.41,15.56L123.41,15.56
		z M146,31.38c-0.03-3.85-0.02-7.44,0.02-7.98l0.07-0.98l0.78,1.18c0.43,0.65,2.77,4.19,5.2,7.88l4.42,6.69l-0.4,0.09
		c-0.22,0.05-2.57,0.1-5.22,0.1l-4.83,0.02L146,31.38z M120.91,30.14c-0.02-0.79-0.02-2.2,0-3.14l0.04-1.7l1.77-1
		c0.97-0.55,2.08-1.17,2.47-1.38s1.67-0.92,2.87-1.58l2.17-1.21H135c4.75,0,5.31,0.05,5.31,0.48c0,0.26-0.69,0.82-1.71,1.38
		c-4.86,2.66-15.41,8.47-16.13,8.88C120.89,31.78,120.95,31.81,120.91,30.14L120.91,30.14z M101.84,38.85
		c-1.73-0.26-3.9-0.83-3.9-1.02c0-0.15,20.35-10.91,20.45-10.82c0.05,0.05-0.09,0.64-0.3,1.31c-1.81,5.59-6.68,9.66-12.54,10.47
		C104.53,38.94,102.6,38.97,101.84,38.85L101.84,38.85z"/>
</g>
</svg>
