<?xml version="1.0" encoding="utf-8"?>
<svg version="1.1" id="Layer_1" xmlns="http://www.w3.org/2000/svg" xmlns:xlink="http://www.w3.org/1999/xlink" x="0px" y="0px"
	width="100px" height="100px" viewBox="0 0 66.7 66.7" style="enable-background:new 0 0 66.7 66.7;" xml:space="preserve">
<g>
	<circle style="fill:#E8E8E8;" cx="33.3" cy="33.3" r="33.3"/>
	<circle style="fill:#FFFFFF;" cx="33.3" cy="33.3" r="32.7"/>
	<path style="fill:#231F20;" d="M12.6,35.7c0.1,0.4,0.1,0.9,0.2,1.3h0.1c0-0.2,0.1-1.2,0.1-1.4l0.5-3.8h1.5l-1.3,6.3h-1.5l-0.5-2.6
		c-0.1-0.5-0.1-1.1-0.2-1.6h-0.1l-0.1,1.5l-0.4,2.7H9.2l-1.3-6.3h1.4l0.5,3.8c0.1,0.2,0.1,1.1,0.1,1.3l0,0c0.1-0.4,0.1-0.9,0.1-1.3
		l0.6-3.9h1.2L12.6,35.7L12.6,35.7z M18.5,38.1c-0.1-0.2-0.1-0.4-0.1-0.7h-0.1c-0.3,0.5-0.8,0.9-1.3,0.9c-1.2,0-1.7-0.6-1.7-1.9
		c0-1.5,1-1.7,2.1-2.2c0.6-0.3,0.8-0.5,0.7-1.1c-0.1-0.3-0.3-0.3-0.7-0.3c-0.7,0-0.8,0.3-0.7,0.9h-1.3c0-1.2,0.4-2,2.2-2
		c1.9,0,2.1,1.1,2.1,1.9v3.7c0,0.3,0,0.5,0.1,0.9L18.5,38.1L18.5,38.1L18.5,38.1C18.5,38.1,18.5,38.1,18.5,38.1z M18.3,34.9
		l-1.2,0.7c-0.2,0.2-0.3,0.5-0.3,0.7c0,0.5,0.1,0.8,0.7,0.8c0.9,0,0.7-1.1,0.7-1.7L18.3,34.9C18.3,34.9,18.3,34.9,18.3,34.9z
		 M22.5,38.9c0,0.1,0.1,0.2,0.1,0.3c0.1,0.1,0.3,0.1,0.4,0.1c0.6,0,0.7-0.5,0.7-1v-0.7v-0.1c-0.3,0.6-0.7,0.8-1.3,0.8
		c-1.2,0-1.5-1.1-1.5-2.1v-2.2c0-1.7,0.5-2.2,1.5-2.3c0.7,0,1.1,0.3,1.3,0.8h0.1v-0.7h1.4V38c0,1.3-0.3,2.3-2.3,2.3
		c-0.9,0-1.8-0.3-1.9-1.4L22.5,38.9L22.5,38.9L22.5,38.9C22.5,38.9,22.5,38.9,22.5,38.9z M23.1,32.8c-0.7,0-0.6,0.6-0.7,1.2v2.1
		c0.1,0.6,0.2,1.1,0.7,1.1s0.7-0.4,0.7-1.1v-1.9C23.9,33.7,23.8,32.8,23.1,32.8z M29.5,38.1c-0.1-0.2-0.1-0.4-0.1-0.7h-0.1
		c-0.3,0.5-0.8,0.9-1.3,0.9c-1.2,0-1.7-0.6-1.7-1.9c0-1.5,1-1.7,2.1-2.2c0.6-0.3,0.8-0.5,0.7-1.1c-0.1-0.3-0.3-0.3-0.7-0.3
		c-0.7,0-0.8,0.3-0.7,0.9h-1.4c0-1.2,0.4-2,2.2-2c1.9,0,2.1,1.1,2.1,1.9v3.7c0,0.3,0,0.5,0.1,0.9L29.5,38.1L29.5,38.1
		C29.5,38.1,29.5,38.1,29.5,38.1z M29.3,34.9l-1.2,0.7c-0.2,0.2-0.3,0.5-0.3,0.7c0,0.5,0.1,0.8,0.7,0.8c0.9,0,0.7-1.1,0.7-1.7
		L29.3,34.9C29.3,34.9,29.3,34.9,29.3,34.9z M33.5,32.5L33.5,32.5c0-0.7,0.9-0.8,1.4-0.8c0.5,0,1.3,0.3,1.3,0.8
		c0.3-0.5,0.7-0.8,1.5-0.8c1.1,0,1.5,0.7,1.5,1.3v5.1h-1.4v-4.2c0-0.5-0.1-1.1-0.7-1.1c-0.6,0.1-0.8,0.5-0.8,1.2v4.1h-1.4v-4.3
		c0-0.5-0.1-1-0.7-1s-0.7,0.5-0.7,1.2v4.1h-1.5v-6.3h1.5L33.5,32.5C33.5,32.5,33.5,32.5,33.5,32.5z M43.5,38.1
		c-0.1-0.2-0.1-0.4-0.1-0.7h-0.1c-0.3,0.5-0.8,0.9-1.3,0.9c-1.2,0-1.7-0.6-1.7-1.9c0-1.5,1-1.7,2.1-2.2c0.6-0.3,0.8-0.5,0.7-1.1
		c-0.1-0.3-0.3-0.3-0.7-0.3c-0.7,0-0.8,0.3-0.7,0.9h-1.4c0-1.2,0.4-2,2.2-2c1.9,0,2.1,1.1,2.1,1.9v3.7c0,0.3,0,0.5,0.1,0.9
		L43.5,38.1L43.5,38.1L43.5,38.1C43.5,38.1,43.5,38.1,43.5,38.1z M43.3,34.9l-1.2,0.7c-0.2,0.2-0.3,0.5-0.3,0.7
		c0,0.5,0.1,0.8,0.7,0.8c0.9,0,0.7-1.1,0.7-1.7C43.2,35.5,43.3,34.9,43.3,34.9z M47.5,32.5L47.5,32.5c0.3,0,0.9-0.8,1.4-0.8
		c0.5,0,1.3,0.3,1.3,0.8c0.3-0.5,0.7-0.8,1.5-0.8c1.1,0,1.5,0.7,1.5,1.3v5.1h-1.4v-4.2c0-0.5-0.1-1.1-0.7-1.1
		c-0.6,0.1-0.8,0.5-0.8,1.2v4.1h-1.4v-4.3c0-0.5-0.1-1-0.7-1s-0.7,0.5-0.7,1.2v4.1h-1.5v-6.3h1.5C47.5,31.8,47.5,32.5,47.5,32.5z
		 M57.5,38.1c-0.1-0.2-0.1-0.4-0.1-0.7h-0.1c-0.3,0.5-0.8,0.9-1.3,0.9c-1.2,0-1.7-0.6-1.7-1.9c0-1.5,1-1.7,2.1-2.2
		c0.6-0.3,0.8-0.5,0.7-1.1c-0.1-0.3-0.3-0.3-0.7-0.3c-0.7,0-0.8,0.3-0.7,0.9h-1.4c0-1.2,0.4-2,2.2-2c1.9,0,2.1,1.1,2.1,1.9v3.7
		c0,0.3,0.1,0.5,0.1,0.9L57.5,38.1L57.5,38.1L57.5,38.1C57.5,38.1,57.5,38.1,57.5,38.1z M57.3,34.9l-1.2,0.7
		c-0.2,0.2-0.3,0.5-0.3,0.7c0,0.5,0.2,0.8,0.7,0.8c0.9,0,0.7-1.1,0.7-1.7L57.3,34.9C57.3,34.9,57.3,34.9,57.3,34.9z"/>
	<path style="fill:#EE4034;" d="M33.3,27.3l1.3-0.9l-0.5,1.5l1.3,1h-1.6l-0.5,1.5l-0.5-1.5h-1.6l1.3-1L32,26.4L33.3,27.3z"/>
</g>
</svg>
