<?xml version="1.0" encoding="utf-8"?>
<svg version="1.1" id="Layer_1" xmlns="http://www.w3.org/2000/svg" xmlns:xlink="http://www.w3.org/1999/xlink" x="0px" y="0px"
	width="100px" height="100px" viewBox="0 0 100 100" style="enable-background:new 0 0 100 100;" xml:space="preserve">
<g>
	<path style="fill:#E8E8E8;" d="M50,0c27.6,0,50,22.4,50,50s-22.4,50-50,50S0,77.6,0,50S22.4,0,50,0"/>
	<path style="fill:#FFFFFF;" d="M50,1c27.1,0,49,21.9,49,49S77.1,99,50,99S1,77.1,1,50S22.9,1,50,1"/>
	<g>
		<path d="M86.5,57.5v-15h-73v15L86.5,57.5L86.5,57.5z"/>
		<path style="fill:#FFFFFF;" d="M17.6,45.4h4.5v3.1h0l3.5-3.1h5.1l-4.2,3.7l4.8,5.1h-5.8l-3.5-3.6h0v3.6h-4.5V45.4z M38,45.2
			c5.2,0,6.6,1.1,6.6,4.7c0,3.6-1.4,4.7-6.6,4.7c-5.1,0-6.5-1.1-6.5-4.7C31.4,46.3,32.8,45.2,38,45.2z M38,52.8c2,0,1.9-2.2,1.9-3
			c0-0.7,0-2.8-1.9-2.8s-1.9,2-1.9,2.8C36.1,50.5,36,52.8,38,52.8z M54.4,51v3.4H59v-8.9h-4.7v3.1H51v-3.1h-4.7v8.9H51V51L54.4,51
			L54.4,51z M61.2,45.5H66v6.7c0,0,3.8,0,4.3,0c0.5,0,0.8-0.4,0.8-0.4v2.5h-9.9L61.2,45.5L61.2,45.5z M82.3,48.4c-1-0.8-1.8-1-2.7-1
			c-0.9,0-1.7,0.3-1.7,0.8c0,0.4,0.6,0.6,2.7,1c1.8,0.4,2.9,1.2,2.9,2.9c0,1.8-3.1,2.9-5.9,2.9c-2,0-3.5-0.3-4.8-0.9v-2.5
			c0.8,0.9,2.7,1.3,4.1,1.3c0.8,0,1.2-0.1,1.2-0.7c0-0.4-0.5-0.7-2-1c-2.8-0.5-3.8-1.3-3.8-2.7c0-2,2.5-3.1,5.5-3.1
			c1.6,0,3.1,0,4.5,0.6V48.4L82.3,48.4z"/>
		<path style="fill:#FFFFFF;" d="M68.5,49.1l0.3-0.6c-1-0.5-1.3-1.7-0.8-2.4c0.5-0.7,2-1.1,2.8,0.1c0.7,1,0,1.8-0.3,2.1
			C70.3,48.5,68.5,49.1,68.5,49.1L68.5,49.1z"/>
	</g>
</g>
</svg>
