<?xml version="1.0" encoding="utf-8"?>
<svg version="1.1" id="Layer_1" xmlns="http://www.w3.org/2000/svg" xmlns:xlink="http://www.w3.org/1999/xlink" x="0px" y="0px"
	 viewBox="0 0 279.5 279.48" style="enable-background:new 0 0 279.5 279.48;" xml:space="preserve">
<g>
	<path style="fill:#FF6600;" d="M0,0h279.5v279.48H0V0z"/>
	<path style="fill:#FFFFFF;" d="M251.67,181.73c1.02-27.78-13.41-43.24-39.53-43.24c-24.21,0-38.27,17.58-38.27,43.78
		c0,27.63,14.07,43.97,38.27,43.97h40.92v-15.96h-12.04C246.97,204.42,251.2,194.27,251.67,181.73L251.67,181.73L251.67,181.73z
		 M202.34,182.27c0-14.65,3.11-21.69,9.81-21.69c6.7,0,9.81,7.04,9.81,21.69s-3.12,21.68-9.81,21.68
		C205.45,203.95,202.34,196.92,202.34,182.27L202.34,182.27z M83.45,181.54c9.66-5.06,12.38-11.14,12.26-20.68
		c-0.15-12.27-8.91-21.11-26.77-21.11H28.43v86.58h41.24c15.01,0,28.13-8.23,28.13-24.27C97.8,191.41,92.64,184.44,83.45,181.54
		L83.45,181.54z M56.27,159.36h3.58c4.97,0,7.63,2.23,7.63,6.73c0,4.49-2.66,7.08-7.63,7.08h-3.58L56.27,159.36L56.27,159.36z
		 M61.02,206.69h-4.75v-15.43h4.75c5.03,0,8.06,2.5,8.06,7.53C69.08,203.83,66.05,206.69,61.02,206.69L61.02,206.69z M171.64,226.4
		c-0.76-5.16-3.39-11.13-7.52-17.63c1.73-1.75,3.42-3.54,5.06-5.37l-10.57-12.25c-1.54,1.36-3.06,2.77-4.57,4.16
		c-2.17-2.58-4.52-5.2-7.03-7.86c7.33-4.96,12.28-11.34,12.28-19.47c0-9-7.97-18.09-22.56-18.09c-15.27,0-23.99,8.81-23.99,18.99
		c0,5.77,3.51,11.43,7.18,15.9c-7.19,4.95-13.43,11.75-13.95,20.18c-0.94,14.98,10.58,23,24.68,22.39
		c5.63-0.23,11.79-1.99,18.87-6.49c1.14,2.09,1.92,3.99,2.21,5.53L171.64,226.4L171.64,226.4L171.64,226.4z M136.55,163.7
		c2.69,0,4.52,2.61,4.52,5.2c0,1.79-1.12,4.35-5.24,7.13c-2.5-2.77-3.99-5.04-3.99-7.3C131.84,166.32,133.73,163.7,136.55,163.7
		L136.55,163.7z M128.55,208.72c-2.31-1.9-4.02-7.72,2.48-12.03c3.09,3.43,6.09,6.94,8.99,10.53
		C135.54,210.17,131.62,211.27,128.55,208.72L128.55,208.72z"/>
</g>
</svg>
