<?xml version="1.0"?>
<svg xmlns="http://www.w3.org/2000/svg" xmlns:xlink="http://www.w3.org/1999/xlink" xmlns:svgjs="http://svgjs.com/svgjs" version="1.1" width="512" height="512" x="0" y="0" viewBox="0 0 512 512.001" style="enable-background:new 0 0 512 512" xml:space="preserve" class=""><g><path xmlns="http://www.w3.org/2000/svg" d="m512 256c0 141.386719-114.613281 256-256 256-141.382812 0-256-114.613281-256-256s114.617188-256 256-256c141.386719 0 256 114.613281 256 256zm0 0" fill="#f1f1f1" data-original="#fbf24a" style="" class=""/><path xmlns="http://www.w3.org/2000/svg" d="m512 256c0-7.019531-.292969-13.972656-.847656-20.847656l-117.152344-117.152344-276 178.96875 49 48.515625-41.375 41.890625 124.550781 124.550781c1.9375.042969 3.878907.074219 5.824219.074219 141.386719 0 256-114.613281 256-256zm0 0" fill="#f1f1f1" data-original="#fbd141" style="" class=""/><path xmlns="http://www.w3.org/2000/svg" d="m245.21875 280.796875h57.140625v40.429687h-57.140625zm0 0" fill="#434343" data-original="#434343" style=""/><path xmlns="http://www.w3.org/2000/svg" d="m209.640625 280.796875h46.359375v40.429687h-46.359375zm0 0" fill="#636363" data-original="#636363" style="" class=""/><path xmlns="http://www.w3.org/2000/svg" d="m394 256.539062-159.5625-32.34375 21.5625 72.773438h138zm0 0" fill="#636363" data-original="#636363" style="" class=""/><path xmlns="http://www.w3.org/2000/svg" d="m118 256.539062v40.429688h138v-72.773438zm0 0" fill="#a1a1a1" data-original="#a1a1a1" style="" class=""/><path xmlns="http://www.w3.org/2000/svg" d="m394 118h-138l-26.953125 69.269531 26.953125 69.269531h138zm0 0" fill="#242424" data-original="#242424" style=""/><path xmlns="http://www.w3.org/2000/svg" d="m118 118h138v138.539062h-138zm0 0" fill="#163f69" data-original="#163f69" style="" class=""/><path xmlns="http://www.w3.org/2000/svg" d="m342.789062 313.140625h-86.789062l-10.78125 8.085937 10.78125 8.085938h86.789062zm0 0" fill="#636363" data-original="#636363" style="" class=""/><path xmlns="http://www.w3.org/2000/svg" d="m169.210938 313.140625h86.789062v16.171875h-86.789062zm0 0" fill="#a1a1a1" data-original="#a1a1a1" style="" class=""/><path xmlns="http://www.w3.org/2000/svg" d="m239.828125 361.375v16.171875h99.570313l.082031-16.171875zm0 0" fill="#a1a1a1" data-original="#a1a1a1" style="" class=""/><path xmlns="http://www.w3.org/2000/svg" d="m142.257812 345.484375c-13.375 0-24.257812 10.882813-24.257812 24.257813s10.882812 24.257812 24.257812 24.257812h113.742188v-48.515625zm0 0" fill="#fe6192" data-original="#fe6192" style="" class=""/><path xmlns="http://www.w3.org/2000/svg" d="m339.480469 345.484375-16.171875 15.890625-.082032 16.171875 16.171876 16.453125h54.601562v-48.515625zm0 0" fill="#828282" data-original="#828282" style="" class=""/></g></svg>
