<?xml version="1.0" encoding="utf-8"?>
<svg version="1.1" id="Layer_1" xmlns="http://www.w3.org/2000/svg" xmlns:xlink="http://www.w3.org/1999/xlink" x="0px" y="0px"
	 viewBox="0 0 566.93 171.79" style="enable-background:new 0 0 566.93 171.79;" xml:space="preserve">
<g id="layer1">
	<g id="g4031" transform="translate(-48.81891,-428.7559)">
		<path id="_46875728" style="fill-rule:evenodd;clip-rule:evenodd;fill:#707073;" d="M106.72,549.59l-12.65-33.8
			c-4.68-12.49-7.45-14.04-14.22-14.04l0,47.84H48.82V428.76h41.61c35.54,0,46.98,14.39,46.98,34.51c0,20.8-10.92,31.37-25.13,33.8
			c4.16,1.21,9.19,6.76,12.13,13.01c3.99,8.15,14.22,30.51,18.21,39.52H106.72z M79.85,454.25v24.61h8.84
			c10.58,0,14.22-5.03,14.22-13.17c0-8.68-4.68-11.44-14.39-11.44H79.85z M155.41,549.59V428.76h67.96v25.5h-36.93v20.28h30.16
			v24.61h-30.16v24.62h41.43v25.83H155.41z M353.05,549.59h-33.11l-6.24-35.02c-2.61-14.55-5.38-30.33-5.9-37.96h-0.18
			c-0.35,6.06-2.95,22.19-5.89,37.96l-6.42,35.02h-33.81l-29.3-120.84h32.76l6.76,32.6c5.72,27.21,6.76,39,6.94,43.51h0.17
			c0.7-9.71,2.77-24.79,6.07-42.65l6.24-33.46h34.5l7.8,40.4c1.74,9.19,4.16,20.8,4.85,35.54h0.18c0.69-10.74,4.34-34.15,6.76-45.94
			l6.07-30h33.11L353.05,549.59L353.05,549.59z M393.1,549.59V428.76h67.96v25.5h-36.92v20.28h30.17v24.61h-30.17v24.62h41.44v25.83
			H393.1z M456.95,577.45c-1.58-1.54-3.45-2.17-5.66-2.17c-1.72,0-3.38,0.58-4.56,1.55c-3.33,2.62-4.95,10.25-4.95,13.75
			c0,3.79,1.87,5.38,5.21,5.38c1.3,0,2.37-0.21,3.41-0.71l1.42-6.58h-4.3v-4.76h11.35l-3,14.01c-3.3,1.75-6.71,2.42-10.13,2.42
			c-6.76,0-10.34-4-10.34-10.01c0-6.62,3-12.92,6.75-16.05c3.42-2.84,6.25-3.71,10.05-3.71c3.51,0,6.41,1.13,8.5,3.33L456.95,577.45
			z M491.53,571.04c4.38,0,6.93,2.46,6.93,6.33c0,5.72-3.93,9.38-8.35,10.13c0.5,0.33,0.97,1,1.25,1.46
			c1.38,2.42,4.34,11.04,4.34,11.04h-6.88l-1.51-4.71c-1.79-5.29-2.62-6.75-3.58-7.21c-0.26-0.13-0.5-0.17-0.71-0.17L480.44,600
			h-5.88l6.18-28.97H491.53z M483.94,583.54h1.8c2.5,0,3.62-0.29,4.58-1c1.12-0.92,1.87-2.71,1.87-4c0-2.01-1.3-2.84-3.71-2.84
			h-2.88L483.94,583.54z M538.89,581.08c0,7.3-3.71,15.22-9.59,18.02c-1.91,0.9-4.12,1.37-6.55,1.37c-7.16,0-9.92-4.33-9.92-10.37
			c0-8.22,3.97-14.11,7.72-16.82c1.71-1.25,4.08-2.62,8.5-2.62C535.44,570.66,538.89,574.62,538.89,581.08 M522.96,577.71
			c-2.29,3-3.83,9.37-3.83,13.26c0,3.7,1.58,5.04,4.5,5.04c1.67,0,3.37-0.53,4.71-2.16c2.51-3.09,4.01-9.97,4.01-13.97
			c0-2.84-1.17-4.72-4.34-4.72C526.05,575.16,524.13,576.17,522.96,577.71z M564.21,571.04l-4.05,19.06
			c-0.37,1.66-0.41,2.87-0.25,3.45c0.38,1.3,1.62,2.01,3.55,2.01c2.66,0,4.46-1.46,5.12-3.51c0.22-0.59,0.3-0.92,0.64-2.46
			l3.96-18.55h5.92l-4.17,19.51c-0.79,3.71-1.46,5.67-3.71,7.38c-1.12,0.83-3.29,2.62-8.72,2.62c-5.62,0-8.87-2.5-8.87-6.25
			c0-0.96,0.12-2.09,0.33-3.08l4.3-20.18H564.21z M605.32,571.04c3.92,0,6.09,0.41,7.51,1.32c1.84,1.13,2.92,3.06,2.92,5.29
			c0,5.01-2.37,8.69-6.71,10.68c-1.46,0.67-3.92,1-6.21,1h-3.08L597.49,600h-5.96l6.17-28.97H605.32z M600.78,584.58h2.92
			c2.25,0,3.51-0.5,4.26-1.42c0.87-1.04,1.5-2.71,1.5-4.38c0-1.92-1.04-3.04-3.22-3.04h-3.58L600.78,584.58z"/>
		<polygon id="_46959624" style="fill-rule:evenodd;clip-rule:evenodd;fill:#CC081F;" points="539.75,549.56 489.4,549.56 
			489.4,499.21 539.75,499.21 		"/>
		<polygon id="_92033232" style="fill-rule:evenodd;clip-rule:evenodd;fill:#FCC200;" points="615.24,549.56 564.89,549.56 
			564.89,499.21 615.24,499.21 		"/>
	</g>
</g>
</svg>
