<?xml version="1.0"?>
<svg xmlns="http://www.w3.org/2000/svg" xmlns:xlink="http://www.w3.org/1999/xlink" xmlns:svgjs="http://svgjs.com/svgjs" version="1.1" width="512" height="512" x="0" y="0" viewBox="0 0 512 512" style="enable-background:new 0 0 512 512" xml:space="preserve" class=""><g><path xmlns="http://www.w3.org/2000/svg" d="m512 256c0 141.386719-114.613281 256-256 256s-256-114.613281-256-256 114.613281-256 256-256 256 114.613281 256 256zm0 0" fill="#f1f1f1" data-original="#ffd400" style="" class=""/><path xmlns="http://www.w3.org/2000/svg" d="m512 256c0-4.320312-.109375-8.613281-.320312-12.878906l-118.140626-118.660156-269.339843 268.816406 118.371093 118.375c4.449219.230468 8.925782.347656 13.429688.347656 141.386719 0 256-114.613281 256-256zm0 0" fill="#f1f1f1" data-original="#fdba12" style="" class=""/><path xmlns="http://www.w3.org/2000/svg" d="m446.3125 256c0 105.109375-85.203125 190.3125-190.3125 190.3125s-190.3125-85.203125-190.3125-190.3125 85.203125-190.3125 190.3125-190.3125 190.3125 85.203125 190.3125 190.3125zm0 0" fill="#414952" data-original="#414952" style="" class=""/><path xmlns="http://www.w3.org/2000/svg" d="m256 65.6875c-.117188 0-.238281.003906-.355469.003906v380.621094c.117188 0 .234375.003906.355469.003906 105.109375 0 190.3125-85.207031 190.3125-190.3125 0-105.113281-85.203125-190.316406-190.3125-190.316406zm0 0" fill="#333940" data-original="#333940" style="" class=""/><path xmlns="http://www.w3.org/2000/svg" d="m378.855469 256c0 67.851562-55.003907 122.855469-122.855469 122.855469s-122.855469-55.003907-122.855469-122.855469 55.003907-122.855469 122.855469-122.855469 122.855469 55.003907 122.855469 122.855469zm0 0" fill="#dce1eb" data-original="#dce1eb" style="" class=""/><path xmlns="http://www.w3.org/2000/svg" d="m256 133.144531c-.117188 0-.238281.003907-.355469.003907v245.703124c.117188 0 .234375.003907.355469.003907 67.851562 0 122.855469-55.003907 122.855469-122.855469s-55.003907-122.855469-122.855469-122.855469zm0 0" fill="#cdd2e1" data-original="#cdd2e1" style="" class=""/><path xmlns="http://www.w3.org/2000/svg" d="m141.039062 212.59375c46.707032 10.414062 80.835938 26.910156 114.960938 43.40625-12.464844-35.796875-24.933594-71.59375-50.597656-111.984375-29.539063 13.367187-52.839844 38.082031-64.363282 68.578125zm0 0" fill="#7e8596" data-original="#7e8596" style=""/><path xmlns="http://www.w3.org/2000/svg" d="m256 256c12.464844 35.796875 24.933594 71.59375 50.597656 111.984375 29.539063-13.367187 52.839844-38.082031 64.363282-68.578125-46.707032-10.414062-80.835938-26.910156-114.960938-43.40625zm0 0" fill="#707789" data-original="#707789" style="" class=""/><path xmlns="http://www.w3.org/2000/svg" d="m212.59375 370.960938c10.414062-46.707032 26.910156-80.835938 43.40625-114.960938-35.796875 12.464844-71.59375 24.933594-111.984375 50.597656 13.367187 29.539063 38.082031 52.839844 68.578125 64.363282zm0 0" fill="#7e8596" data-original="#7e8596" style=""/><path xmlns="http://www.w3.org/2000/svg" d="m256 256c35.796875-12.464844 71.59375-24.933594 111.984375-50.597656-13.367187-29.539063-38.082031-52.839844-68.578125-64.363282-10.414062 46.707032-26.910156 80.835938-43.40625 114.960938zm0 0" fill="#707789" data-original="#707789" style="" class=""/><path xmlns="http://www.w3.org/2000/svg" d="m301.480469 256c0 25.117188-20.363281 45.480469-45.480469 45.480469s-45.480469-20.363281-45.480469-45.480469 20.363281-45.480469 45.480469-45.480469 45.480469 20.363281 45.480469 45.480469zm0 0" fill="#414952" data-original="#414952" style="" class=""/><path xmlns="http://www.w3.org/2000/svg" d="m256 210.519531c-.121094 0-.238281.007813-.355469.007813v90.945312c.117188 0 .234375.007813.355469.007813 25.117188 0 45.480469-20.363281 45.480469-45.480469s-20.363281-45.480469-45.480469-45.480469zm0 0" fill="#333940" data-original="#333940" style="" class=""/></g></svg>
