<?xml version="1.0" encoding="utf-8"?>
<svg version="1.1" id="Layer_1" xmlns="http://www.w3.org/2000/svg" xmlns:xlink="http://www.w3.org/1999/xlink" x="0px" y="0px"
	width="100px" height="100px" viewBox="0 0 100 100" style="enable-background:new 0 0 100 100;" xml:space="preserve">
<g>
	<path style="fill:#E8E8E8;" d="M50,0c27.61,0,50,22.39,50,50s-22.39,50-50,50S0,77.61,0,50S22.39,0,50,0"/>
	<path style="fill:#FFFFFF;" d="M50,1c27.06,0,49,21.94,49,49S77.06,99,50,99S1,77.06,1,50S22.94,1,50,1"/>
	<g transform="translate(-279.02135,-648.85214)">
		<path style="fill:#686366;" d="M294.46,709.51l-0.09,0.22c-0.09-0.06-0.22-0.09-0.41-0.09c-0.18,0-0.32,0.07-0.42,0.21
			c-0.11,0.14-0.16,0.33-0.16,0.55c0,0.21,0.05,0.38,0.16,0.52c0.11,0.13,0.25,0.2,0.42,0.2c0.19,0,0.33-0.06,0.43-0.19l0.15,0.2
			c-0.16,0.15-0.36,0.22-0.61,0.22c-0.26,0-0.47-0.09-0.61-0.27c-0.15-0.18-0.22-0.41-0.22-0.7c0-0.28,0.08-0.51,0.24-0.7
			c0.16-0.19,0.37-0.28,0.62-0.28C294.17,709.41,294.33,709.44,294.46,709.51"/>
		<path style="fill:#686366;" d="M298,710.37c0,0.22,0.05,0.39,0.13,0.54c0.09,0.15,0.22,0.22,0.38,0.22c0.19,0,0.33-0.07,0.43-0.2
			c0.1-0.13,0.15-0.32,0.15-0.56c0-0.48-0.19-0.73-0.57-0.73c-0.17,0-0.3,0.07-0.38,0.2C298.04,709.97,298,710.14,298,710.37
			 M297.71,710.37c0-0.27,0.07-0.5,0.22-0.68c0.14-0.18,0.34-0.27,0.58-0.27c0.28,0,0.49,0.09,0.64,0.25
			c0.15,0.17,0.22,0.4,0.22,0.7c0,0.31-0.07,0.55-0.22,0.73c-0.15,0.17-0.36,0.26-0.64,0.26c-0.25,0-0.45-0.09-0.59-0.28
			C297.78,710.89,297.71,710.66,297.71,710.37"/>
		<path style="fill:#686366;" d="M304.14,711.32l-0.24-1.21l-0.43,1.23h-0.07l-0.45-1.23l-0.23,1.21h-0.26l0.37-1.88h0.12l0.48,1.37
			l0.44-1.37H304l0.41,1.88"/>
		<path style="fill:#686366;" d="M307.85,709.68v0.69c0.12,0.01,0.18,0.01,0.18,0.01c0.34,0,0.51-0.12,0.51-0.37
			c0-0.23-0.18-0.34-0.54-0.34L307.85,709.68 M307.85,710.6v0.72h-0.27v-1.88c0.21-0.01,0.33-0.01,0.37-0.01
			c0.58,0,0.87,0.18,0.87,0.55c0,0.42-0.26,0.63-0.77,0.63C308.02,710.61,307.95,710.61,307.85,710.6"/>
		<path style="fill:#686366;" d="M312.72,709.91l-0.31,0.83H313L312.72,709.91z M313.22,711.32l-0.14-0.4h-0.74l-0.15,0.4h-0.3
			l0.81-1.91h0.07l0.75,1.91"/>
		<path style="fill:#686366;" d="M317.97,711.35l-1.03-1.37v1.35h-0.26v-1.88h0.11l1,1.3v-1.3h0.26v1.91"/>
		<path style="fill:#686366;" d="M321.46,711.32h0.27v-1.88h-0.27V711.32z"/>
		<path style="fill:#686366;" d="M325.42,709.68v0.52h0.65v0.22h-0.65v0.68h0.9v0.23h-1.17v-1.88h1.17v0.23"/>
		<path style="fill:#686366;" d="M329.51,711.24l0.1-0.23c0.05,0.03,0.11,0.06,0.19,0.09c0.08,0.02,0.14,0.03,0.2,0.03
			c0.11,0,0.19-0.03,0.26-0.08c0.06-0.05,0.1-0.12,0.1-0.21l-0.06-0.17c-0.03-0.06-0.13-0.11-0.27-0.18l-0.16-0.07
			c-0.14-0.06-0.23-0.13-0.29-0.21c-0.05-0.08-0.08-0.18-0.08-0.29c0-0.14,0.05-0.26,0.16-0.35c0.11-0.09,0.24-0.14,0.41-0.14
			c0.22,0,0.37,0.03,0.46,0.1l-0.08,0.22c-0.04-0.02-0.09-0.05-0.17-0.07c-0.07-0.02-0.14-0.03-0.21-0.03
			c-0.09,0-0.16,0.03-0.22,0.07c-0.05,0.05-0.08,0.11-0.08,0.19l0.03,0.13l0.08,0.1c0.03,0.03,0.1,0.06,0.21,0.11l0.16,0.07
			c0.13,0.06,0.23,0.13,0.29,0.22c0.06,0.09,0.08,0.19,0.08,0.32c0,0.14-0.06,0.26-0.18,0.36c-0.12,0.1-0.28,0.15-0.48,0.15
			C329.78,711.36,329.64,711.32,329.51,711.24"/>
		<path style="fill:#686366;" d="M337.69,711.32v-1.88h0.27v1.65h0.91v0.23"/>
		<path style="fill:#686366;" d="M342.1,711.32h0.27v-1.88h-0.27V711.32z"/>
		<path style="fill:#686366;" d="M347.29,711.32l-0.24-1.21l-0.43,1.23h-0.07l-0.45-1.23l-0.23,1.21h-0.26l0.37-1.88h0.12l0.47,1.37
			l0.44-1.37h0.13l0.4,1.88"/>
		<path style="fill:#686366;" d="M350.76,711.32h0.27v-1.88h-0.27V711.32z"/>
		<path style="fill:#686366;" d="M355.18,709.68v1.65h-0.27v-1.65h-0.64v-0.23h1.57v0.23"/>
		<path style="fill:#686366;" d="M359.3,709.68v0.52h0.65v0.22h-0.65v0.68h0.91v0.23h-1.18v-1.88h1.18v0.23"/>
		<path style="fill:#686366;" d="M363.74,709.68v1.4c0.06,0.01,0.14,0.01,0.23,0.01c0.19,0,0.34-0.07,0.45-0.2
			c0.11-0.13,0.17-0.32,0.17-0.56c0-0.45-0.21-0.67-0.64-0.67C363.92,709.67,363.85,709.67,363.74,709.68 M363.87,711.33h-0.4v-1.88
			c0.25-0.01,0.42-0.01,0.49-0.01c0.28,0,0.5,0.08,0.66,0.24c0.16,0.16,0.25,0.37,0.25,0.64
			C364.87,710.99,364.54,711.33,363.87,711.33"/>
		<path style="fill:none;stroke:#686366;stroke-width:0.7315;stroke-linecap:round;stroke-linejoin:round;" d="M289.89,706.6h78.27"
			/>
		<path style="fill:#686366;" d="M337.15,696.12c-1.61,0.22-3.21,0.65-4.02,1.96v-3.51h3.55c0.13-1.44,1.03-2.01,2.43-2.01
			c1.29,0,2.37,0.23,2.37,1.81C341.49,695.87,339.4,695.79,337.15,696.12 M341.49,698.66c0,0.8-0.1,3.07-2.97,3.07
			c-1.19,0-2.25-0.33-2.25-1.7c0-1.34,1.04-1.73,2.17-1.96c1.13-0.21,2.42-0.23,3.05-0.77V698.66z M323.36,701.42
			c-2.17,0-3.12-2.04-3.12-4.26c0-2.24,0.95-4.28,3.12-4.28c2.17,0,3.12,2.04,3.12,4.28C326.49,699.38,325.53,701.42,323.36,701.42
			 M310.78,701.42c-2.48,0-3.23-2.15-3.23-4.26c0-2.14,0.75-4.28,3.23-4.28c2.5,0,3.25,2.14,3.25,4.28
			C314.03,699.27,313.28,701.42,310.78,701.42 M363.83,690.47h-3.77l-2.45,9.04h-0.06l-2.27-9.04h-3.56l-2.22,9.06h-0.05l-2.45-9.06
			h-3.87l0.11,0.35c-1.14-0.56-2.61-0.71-3.96-0.71c-2.74,0-5.55,0.87-6.16,3.66v-7.42h-3.66v7.15c-1.01-2.33-2.98-3.39-4.85-3.39
			c-1.65,0-3.31,0.62-4.21,1.99h-0.05v-5.75h-3.66v6.86c-1.15-1.95-3.23-3.1-5.93-3.1c-4.18,0-6.89,2.79-6.89,7.05
			c0,1.04,0.16,1.99,0.47,2.83h-3.72c-3.01,0-2.96-1.46-2.96-2.62v-11.01h-3.69c0,0,0.04,10.88,0,13.01c0,4.23,3.21,4.36,6.03,4.36
			h6.28v-0.99c1.15,0.93,2.68,1.45,4.48,1.45c2.7,0,4.78-1.15,5.93-3.09v2.73h3.48v-1.7h0.06c0.8,1.47,2.42,2.07,4.38,2.07
			c1.87,0,3.84-1.06,4.85-3.4v3.03h3.66v-1.54c0.76,1.29,2.27,1.9,4.02,1.9c1.63,0,3.33-0.44,4.49-1.65
			c0.03,0.44,0.13,0.88,0.26,1.29h3.71c-0.33-0.54-0.46-1.75-0.46-2.97v-4.01l2.21,6.99h3.79l2.27-8.96h0.05l2.38,8.96h3.77"/>
	</g>
</g>
</svg>
