<?xml version="1.0"?>
<svg xmlns="http://www.w3.org/2000/svg" xmlns:xlink="http://www.w3.org/1999/xlink" xmlns:svgjs="http://svgjs.com/svgjs" version="1.1" width="512" height="512" x="0" y="0" viewBox="0 0 512 512" style="enable-background:new 0 0 512 512" xml:space="preserve" class=""><g><g xmlns="http://www.w3.org/2000/svg"><g><g><g><g><g><g><g><g><g><g><g><circle cx="256" cy="256" fill="#f1f1f1" r="256" data-original="#6dd7a7" style="" class=""/></g></g></g></g></g></g></g></g></g></g></g><path d="m124.282 415 94.265 94.265c12.226 1.792 24.729 2.735 37.453 2.735 141.385 0 256-114.615 256-256 0-4.037-.105-8.049-.29-12.041l-131.112-131.112z" fill="#f1f1f1" data-original="#00c379" style="" class=""/><g><path d="m252.44 415h-128.158v-302.153h128.158l80.334 152.285z" fill="#994aff" data-original="#994aff" style="" class=""/><path d="m252.44 112.847h128.158v302.153h-128.158z" fill="#812af2" data-original="#812af2" style=""/><circle cx="252.441" cy="201.146" fill="#f49c0f" r="21.529" data-original="#f49c0f" style="" class=""/><g><path d="m252.441 342.429v-16c56.276 0 106.446-33.639 127.813-85.698l14.802 6.075c-11.469 27.942-30.758 51.749-55.783 68.847-25.639 17.517-55.665 26.776-86.832 26.776z" fill="#333940" data-original="#333940" style=""/></g><g><circle cx="387.647" cy="245.038" fill="#f49c0f" r="25.353" data-original="#f49c0f" style="" class=""/></g><path d="m309.075 365.642h-56.634l-21.529-43.095 21.529-43.095h56.634z" fill="#1b2ddd" data-original="#1b2ddd" style=""/><path d="m195.806 279.452h56.634v86.19h-56.634z" fill="#3340dc" data-original="#3340dc" style=""/><g><path d="m305.304 188.33-52.863 113.269c-62.557 0-113.269-50.712-113.269-113.269s50.712-113.269 113.269-113.269z" fill="#ffd357" data-original="#ffd357" style="" class=""/><path d="m365.709 188.33c0 62.557-50.712 113.269-113.269 113.269v-226.538c62.557 0 113.269 50.712 113.269 113.269z" fill="#ffb806" data-original="#ffb806" style="" class=""/><path d="m263.205 188.33-10.765 21.529c-11.89 0-21.529-9.639-21.529-21.529s9.639-21.529 21.529-21.529z" fill="#ffb806" data-original="#ffb806" style="" class=""/><path d="m273.97 188.33c0 11.89-9.639 21.529-21.529 21.529v-43.058c11.89 0 21.529 9.638 21.529 21.529z" fill="#f49c0f" data-original="#f49c0f" style="" class=""/></g></g></g></g></svg>
