<?xml version="1.0" encoding="utf-8"?>
<svg version="1.1" id="Layer_1" xmlns="http://www.w3.org/2000/svg" xmlns:xlink="http://www.w3.org/1999/xlink" x="0px" y="0px"
	 viewBox="0 0 678.77 112.83" style="enable-background:new 0 0 678.77 112.83;" xml:space="preserve">
<g>
	<path style="fill-rule:evenodd;clip-rule:evenodd;fill:#FBBB17;" d="M83.75,54.19h-25V22.81c0.1-1.7-1.2-3.15-2.9-3.25
		s-3.15,1.2-3.25,2.9c-0.01,0.12-0.01,0.23,0,0.35v31.38H27.69c-2.18,0.04-3.92,1.82-3.92,4v28.46c0,2.18,1.74,3.96,3.92,4h56.06
		c2.18-0.04,3.92-1.82,3.92-4V58.19C87.67,56.01,85.92,54.23,83.75,54.19"/>
	<path style="fill-rule:evenodd;clip-rule:evenodd;fill:#A71E59;" d="M94.14,29.08c1,0.83,0.68,1.22,0,2.12
		c-2.08,2.95-5.71,7.28-6,9.84c-0.3,2.9,0.6,7.16-2.62,10.12c-1.34-0.08-17.12,0-17.12,0c3.14-4.08,7-11.38,13-13
		c3.74-1,6.36-5.43,8.76-9c1.24-1.84,2.18-1.49,3.89-0.08"/>
	<path style="fill-rule:evenodd;clip-rule:evenodd;fill:#BBD43A;" d="M76.3,36.55c-2.14,1.39-4.02,3.14-5.54,5.19
		C67.5,45.85,64,51.16,64,51.16h-1.66c2.21-8-1.38-13.5,2.1-15.66c2.33-1.45,3.42,0.82,6.72-0.87C75.31,32.51,76.3,36.55,76.3,36.55
		 M97.43,43.78c0.56,0.34,0.83,0.99,0.69,1.63c-0.47,2.42,3,4.39,0.47,6.23s-1.86,3-3.34,3c-1.84,0-0.91-2.27-5-3.49
		c0.89-1.61,1.38-2.26,1.56-7c1.73-1,3.83-1.12,5.67-0.33 M30.32,29.12c4.06-2.59,3.36,3.39,5.28,2.22c1-0.63,2-0.12,2.13,0.67
		c0.3,1.94-2.14,5.38-2,7.52c0,0.1-0.08,0.19-0.19,0.19c0,0-0.01,0-0.01,0c-0.75-0.04-1.5,0.07-2.2,0.33
		c-1.03,0.34-2.01,0.82-2.91,1.43c-2.01-0.81-3.95-1.79-5.8-2.92c-1.48-0.82-1.84-1.46-1.86-2.69c0-1.49,1.14-1.79,0.69-2.77
		c-0.62-1.35-1.25-2.94-0.53-4.24c0.41-0.75,1.15-1.24,2-1.33c2.76-0.06,3.16,3.05,5.44,1.59 M19.65,34.63
		c0.22,0.29,0.24,0.69,0.05,1c-0.74,1.37-0.14,2.85,0.84,4.21c1.61,2.26,6.27,3.57,8.39,4.26l-0.58,1.86
		c-3.73-1.07-7.69-1.06-11.41,0.05c0,0-2,0.89-3.27-0.27c-0.89-0.76-0.99-2.09-0.24-2.97c0.07-0.08,0.15-0.16,0.24-0.24
		c0,0-2.84-1.8-1.57-4.44c0.47-1.17,1.65-1.89,2.9-1.78c-0.23-1.33,0.42-2.66,1.6-3.3c0.74-0.37,1.62-0.31,2.3,0.15
		c0.33,0.73,0.56,1.11,0.75,1.5 M27.65,49.12v2.07c-4.51-0.15-6.54,1.46-7.69,5c-1.26,4.75-8.86,2.75-6.3-3.65
		c2-4.52,9.06-5,14-3.45"/>
	<path style="fill-rule:evenodd;clip-rule:evenodd;fill:#F05C2C;" d="M49.37,41.42c-1.67-0.13-3.34,0.32-4.72,1.27
		c-3.65-2.34-6.36-1.69-6.08-2.18c1.55-2.35,6.42-4.35,10.82-2.26c0,0,0.06,2.44,0,3.17 M42.23,44.35l-0.66,0.7
		c-1.37,1.67-2.21,3.72-2.39,5.87h-8.5c-0.21-1.14-0.21-2.32,0-3.46c0.71-3.2,2.8-4.78,6.22-4.77c1.86-0.01,3.69,0.47,5.3,1.39
		c0.07,0.06,0.09,0.16,0.03,0.24c-0.01,0.01-0.02,0.02-0.03,0.03 M49.4,51.15h-7.13c0.2-3.89,2.58-6.18,4.4-6.75
		c0.89-0.26,1.81-0.39,2.74-0.4L49.4,51.15z"/>
	<ellipse style="fill:none;stroke:#229E6B;stroke-width:1.47;" cx="56.82" cy="56.42" rx="56.08" ry="55.68"/>
	<path style="fill-rule:evenodd;clip-rule:evenodd;fill:#229E6B;" d="M171.9,52.15l-8.8-20c-1.61-4-5.47-6.64-9.78-6.71
		c-5.07,0-8.63,3.53-9.61,9.33l-6.72,38.68c-0.1,0.81-0.16,1.63-0.17,2.45c0,6.34,4.09,10.87,9.87,10.87c5.07,0,8.8-3.53,9.78-9.33
		l1.6-9.61l3.92,10.79c2.05,5.61,5.16,8.16,10,8.16c4.63,0,8.1-2.81,10.06-8.25l3.82-10.7l2.12,11.33c0.8,4.53,4.72,7.62,9.7,7.62
		c5.3,0.01,9.59-4.28,9.6-9.58c0-0.04,0-0.08,0-0.12c0-1.13-0.12-2.26-0.35-3.36l-6.76-39c-0.53-3.26-1.34-5-3-6.61
		c-1.84-1.71-4.25-2.67-6.76-2.72c-3.65,0.02-6.98,2.08-8.62,5.34l-9.87,21.4L171.9,52.15z M230.74,67.64V63.1h7
		c3.11,0,4.53-0.36,6-1.53c1.66-1.43,2.6-3.52,2.58-5.71c0-4.27-3.11-7.17-7.91-7.17h-7.74v-4.16h9.78c3.65,0,5.7-0.64,7.48-2.18
		c2.12-1.85,3.31-4.54,3.27-7.35c0.04-4.12-2.76-7.72-6.76-8.7c-1.34-0.36-1.87-0.45-7.47-0.45h-11.74c-5.79,0-6.23,0.09-8.45,1
		c-2.18,0.97-3.88,2.77-4.72,5c-0.8,1.91-0.89,2.54-0.89,7.62v32.79c0,4.17,0.09,4.72,0.36,6c0.43,3.25,2.57,6.02,5.6,7.26
		c1.69,0.63,2.94,0.81,7.47,0.81h15.21c4.45,0,6.14-0.45,8.09-2.08c2.04-1.86,3.21-4.49,3.21-7.25c0-2.71-1.17-5.29-3.21-7.07
		c-2-1.73-3.91-2.27-8.17-2.27L230.74,67.64z M277.05,44.35c0.68,0.07,1.37,0.1,2.05,0.09c2.94-0.09,4.54,1.09,4.54,3.27
		s-1.52,3.26-4.45,3.17h-2.14L277.05,44.35L277.05,44.35z M296.54,63.01c4.54-5.17,6.32-9.61,6.32-15.41
		c0.05-9.65-6.31-18.16-15.57-20.85c-3.11-0.74-6.31-1.04-9.51-0.91h-8.18c-4.72,0-6.68,0.63-8.9,2.63s-3.2,4.53-3.2,8.88v37.28
		c0,3.8,0.71,6.43,2.31,8.52c1.88,2.3,4.68,3.63,7.65,3.63c5.42,0,9.6-4.36,9.6-10.07v-8.25l8.1,13.69
		c1.64,2.92,4.75,4.69,8.09,4.63c5.33,0.06,9.69-4.22,9.75-9.55c0-0.07,0-0.15,0-0.22c-0.03-2.28-0.67-4.5-1.87-6.44L296.54,63.01z
		 M366.54,68.71c-0.17-5.33-4.45-9.61-9.78-9.79c-2.55,0.04-4.98,1.08-6.76,2.9L347.93,64c-2.22,2.5-5.38,3.95-8.72,4
		c-6.51-0.21-11.61-5.66-11.4-12.17c0.2-6.24,5.24-11.24,11.49-11.4c3.2-0.03,6.27,1.28,8.45,3.63l2.85,3.17
		c1.65,1.58,3.85,2.46,6.14,2.45c5.46-0.07,9.83-4.54,9.78-10c0-4-2.4-8.07-7.2-12c-5.53-4.73-12.56-7.33-19.84-7.34
		c-17.52-0.23-31.91,13.8-32.14,31.32c-0.23,17.52,13.8,31.91,31.32,32.14c7.9,0.1,15.55-2.75,21.46-7.98
		c4.18-3.71,6.4-7.52,6.4-11.14 M397.9,64l3-7.25l3.09,7.25H397.9z M391.9,78.42h18.19c2.76,6.17,5.42,8.35,10,8.35
		c5.45-0.02,9.86-4.44,9.87-9.89c0-1.67-0.4-3.32-1.16-4.8l-18.71-40.6c-1.57-3.67-5.17-6.06-9.16-6.07c-3.93,0.02-7.47,2.38-9,6
		l-18.57,40.14c-0.8,1.64-1.22,3.43-1.25,5.25c-0.15,5.37,4.08,9.85,9.46,10c0.08,0,0.16,0,0.23,0c4.72,0,7.65-2.45,10.14-8.35
		L391.9,78.42z M454.14,44.42h1.6c3.65,0,5.69,0.37,7.56,1.27c3.9,2.01,6.33,6.04,6.31,10.43c-0.03,3.77-1.8,7.31-4.8,9.6
		c-2.31,1.64-3.91,1.91-10.67,2V44.44V44.42z M445.79,25.84c-5.69,0-9.34,2.27-10.76,6.62c-0.45,1.36-0.45,1.9-0.45,7v33.26
		c0,4.17,0,5.17,0.36,6.53c0.58,2.29,2.05,4.25,4.09,5.44c1.78,1.27,3.65,1.63,8.27,1.63h8.27c3.36,0.05,6.73-0.19,10.05-0.72
		c5.25-1.13,10.09-3.67,14-7.35c6.08-5.8,9.52-13.84,9.52-22.24c0.05-8.54-3.5-16.7-9.78-22.48c-5.78-5.26-12.63-7.71-21.52-7.71
		L445.79,25.84z M514.2,56.01c0.03-6.43,5.27-11.63,11.7-11.6c6.43,0.03,11.63,5.27,11.6,11.7c0.24,6.44-4.79,11.84-11.22,12.08
		c-6.44,0.24-11.84-4.79-12.08-11.22C514.18,56.65,514.18,56.33,514.2,56.01 M494.54,55.73c0,17.86,13.87,32.09,31.31,32.09
		c17.16,0,31.21-14.32,31.21-31.81c0.08-17.26-13.86-31.32-31.12-31.4C508.67,24.53,494.61,38.46,494.54,55.73L494.54,55.73
		 M595.69,48.85L580.11,29.4c-2.22-2.82-4.44-4-7.29-4c-6.14,0-10.23,4.26-10.23,10.69v38.27c0,4.44,0.45,6.25,2,8.52
		c3.23,4.31,9.33,5.18,13.64,1.95c0.65-0.49,1.24-1.05,1.74-1.68c1.69-2.18,2.23-4,2.23-8V62.48l15.47,20.22
		c1.75,2.56,4.64,4.08,7.74,4.08c2.99,0.02,5.82-1.35,7.65-3.72c1.69-2.27,2.13-4.26,2.13-9.07V37.01c0-3.72-0.62-5.8-2.31-8
		c-3.26-4.13-9.24-4.83-13.37-1.58c-0.82,0.65-1.53,1.43-2.1,2.31c-1.43,2.08-1.78,3.89-1.78,7.88v11.27L595.69,48.85z
		 M646.69,63.98l3-7.25l3,7.25H646.69z M640.69,78.39h18.21c2.76,6.17,5.42,8.35,10,8.35c5.45-0.02,9.86-4.44,9.87-9.89
		c0-1.67-0.39-3.31-1.15-4.8L658.9,31.48c-1.57-3.67-5.17-6.06-9.16-6.07c-3.93,0.01-7.48,2.37-9,6l-18.57,40.14
		c-0.79,1.64-1.22,3.43-1.25,5.25c-0.15,5.37,4.08,9.85,9.46,10c0.08,0,0.16,0,0.24,0c4.71,0,7.64-2.45,10.14-8.35L640.69,78.39z"/>
</g>
</svg>
