<?xml version="1.0"?>
<svg xmlns="http://www.w3.org/2000/svg" xmlns:xlink="http://www.w3.org/1999/xlink" xmlns:svgjs="http://svgjs.com/svgjs" version="1.1" width="512" height="512" x="0" y="0" viewBox="0 0 512 512" style="enable-background:new 0 0 512 512" xml:space="preserve" class=""><g><g xmlns="http://www.w3.org/2000/svg"><circle cx="256" cy="256" fill="#f1f1f1" r="256" data-original="#7883ee" style="" class=""/><path d="m398.486 101.486-2.501-2.501h-247.706l-13.647 13.647-13.647-13.647-14.985 14.985 44.883 44.882-19.883 19.883 83.645 83.645-51.66 51.66-82-82-14.985 14.986 82 82-67 67 106.762 106.762c21.727 5.994 44.605 9.212 68.238 9.212 141.385 0 256-114.615 256-256 0-22.146-2.814-43.635-8.101-64.13l-97.899-97.899z" fill="#f1f1f1" data-original="#4652ca" style="" class=""/><path d="m256 392.675-20 3.352h-70l-20-3.117-20 3.117h-45v-150h175z" fill="#c48174" data-original="#c48174" style="" class=""/><path d="m431 396.027h-45l-20-4.764-20 4.764h-70l-20-3.352v-146.648h175z" fill="#ad6d68" data-original="#ad6d68" style="" class=""/><path d="m256 247.028h-190v-30h190l10 15z" fill="#fcc515" data-original="#fcc515" style="" class=""/><path d="m256 217.028h190v30h-190z" fill="#ffaa00" data-original="#ffaa00" style=""/><path d="m256 384.527h-10v-90h10l5 45z" fill="#5c77c7" data-original="#ffffff" style="" class=""/><path d="m256 294.527h10v90h-10z" fill="#224b9d" data-original="#e9edf5" style="" class=""/><path d="m256 298.527h-45v-30h45l10 15z" fill="#8cc7fc" data-original="#8cc7fc" style=""/><path d="m256 268.527h45v30h-45z" fill="#6cb1f8" data-original="#6cb1f8" style=""/><path d="m256 396.027h-20v-15h20l5 7.5z" fill="#224b9d" data-original="#e9edf5" style="" class=""/><path d="m256 381.027h20v15h-20z" fill="#365dcf" data-original="#cdd2e1" style="" class=""/><path d="m356 294.527h20v90h-20z" fill="#224b9d" data-original="#e9edf5" style="" class=""/><path d="m321 268.527h90v30h-90z" fill="#6cb1f8" data-original="#6cb1f8" style=""/><path d="m346 381.027h40v15h-40z" fill="#365dcf" data-original="#cdd2e1" style="" class=""/><path d="m136 294.527h20v90h-20z" fill="#5c77c7" data-original="#ffffff" style="" class=""/><path d="m101 268.527h90v30h-90z" fill="#8cc7fc" data-original="#8cc7fc" style=""/><path d="m126 381.027h40v15h-40z" fill="#224b9d" data-original="#e9edf5" style="" class=""/><path d="m156 107.03h20v40h-20z" fill="#5c77c7" data-original="#ffffff" style="" class=""/><path d="m201 178.736h-70c0-19.33 15.67-35 35-35 19.33 0 35 15.67 35 35z" fill="#224b9d" data-original="#e9edf5" style="" class=""/><path d="m336 107.03h20v40h-20z" fill="#224b9d" data-original="#e9edf5" style="" class=""/><path d="m381 178.736h-70c0-19.33 15.67-35 35-35 19.33 0 35 15.67 35 35z" fill="#365dcf" data-original="#cdd2e1" style="" class=""/><path d="m256 113.971h-150v-20h150l7.176 10z" fill="#224b9d" data-original="#e9edf5" style="" class=""/><path d="m256 93.971h150v20h-150z" fill="#365dcf" data-original="#cdd2e1" style="" class=""/></g></g></svg>
