<?xml version="1.0" encoding="utf-8"?>
<svg version="1.1" id="Layer_1" xmlns="http://www.w3.org/2000/svg" xmlns:xlink="http://www.w3.org/1999/xlink" x="0px" y="0px"
	 viewBox="0 0 441.84 226.38" style="enable-background:new 0 0 441.84 226.38;" xml:space="preserve">
<g>
	<path style="fill:#00563F;" d="M168.07,226.05c3.39,0,6.12-1.86,6.12-4.91l0,0c0-2.62-1.86-4.15-5.35-4.91
		c-2.62-0.76-3.39-1.09-3.39-2.29l0,0c0-0.76,0.76-1.53,1.86-1.53c1.53,0,2.62,0.76,4.15,1.53l1.86-2.62
		c-1.53-1.09-3.82-1.86-6.12-1.86c-3.39,0-5.68,1.86-5.68,4.91l0,0c0,3.06,2.29,4.15,5.35,4.91c2.62,0.76,3.39,1.09,3.39,1.86l0,0
		c0,1.09-0.76,1.53-2.29,1.53c-1.86,0-3.39-0.76-4.91-1.86l-2.29,2.62C163.15,225.29,165.45,226.05,168.07,226.05 M176.47,211.97
		h3.82v-3.06h-3.82V211.97z M176.47,226.05h3.39V213.5h-3.39V226.05z M183.35,226.05h3.39v-6.88c0-1.53,0.76-2.62,2.29-2.62
		c1.53,0,2.29,0.76,2.29,2.62v6.88h3.39v-7.97c0-3.06-1.53-4.59-4.15-4.59c-1.86,0-2.62,1.09-3.82,1.86v-1.86h-3.39L183.35,226.05
		L183.35,226.05z M203.56,226.38c2.62,0,3.82-1.09,4.91-2.29l-1.86-2.29c-0.76,0.76-1.53,1.09-3.06,1.09
		c-1.86,0-3.06-1.53-3.06-3.39l0,0c0-1.86,1.09-3.39,3.06-3.39c1.09,0,1.86,0.33,2.62,1.53l2.29-2.29
		c-1.09-1.09-2.62-2.29-4.91-2.29c-3.82,0-6.44,3.06-6.44,6.44l0,0C197.11,223.32,199.74,226.38,203.56,226.38 M216.12,226.38
		c2.29,0,3.82-0.76,4.91-2.29l-1.86-1.86c-1.09,0.76-1.86,1.09-3.06,1.09c-1.53,0-2.62-0.76-3.06-2.29h8.74c0-0.33,0-0.76,0-0.76
		c0-3.39-1.86-6.88-6.12-6.88c-3.82,0-6.12,3.06-6.12,6.44l0,0C209.67,223.76,212.29,226.38,216.12,226.38 M213.06,218.74
		c0.33-1.53,1.09-2.62,2.62-2.62c1.53,0,2.29,1.09,2.62,2.62H213.06z M231.4,226.05h3.39v-16.38h-2.29l-4.59,1.53l0.76,3.06
		l2.62-0.76C231.4,213.5,231.4,226.05,231.4,226.05z M243.96,226.05c3.39,0,6.44-1.86,6.44-4.91l0,0c0-1.86-1.09-3.06-2.62-3.82
		c1.09-0.76,1.86-1.86,1.86-3.39l0,0c0-2.62-2.29-4.59-5.68-4.59c-3.39,0-5.68,1.86-5.68,4.59l0,0c0,1.86,0.76,2.62,1.86,3.39
		c-1.86,0.76-2.62,1.86-2.62,3.82l0,0C237.85,224.52,240.47,226.05,243.96,226.05 M243.96,216.12c-1.53,0-2.29-0.76-2.29-1.86l0,0
		c0-1.09,0.76-1.86,2.29-1.86s2.29,0.76,2.29,1.86l0,0C246.26,215.35,245.49,216.12,243.96,216.12 M243.96,223.32
		c-1.86,0-2.62-0.76-2.62-1.86l0,0c0-1.09,1.09-1.86,2.62-1.86c1.53,0,2.62,0.76,2.62,1.86l0,0
		C247.02,222.23,245.82,223.32,243.96,223.32 M258.05,226.38c4.59,0,7.21-3.39,7.21-8.74l0,0c0-3.06-0.76-4.91-1.86-6.12
		c-1.09-1.09-2.62-1.86-4.59-1.86c-3.82,0-6.12,2.29-6.12,5.68l0,0c0,3.39,2.29,5.35,5.68,5.35c1.53,0,2.62-0.33,3.39-1.09
		c-0.33,2.29-1.09,3.82-3.39,3.82c-1.53,0-2.29-0.33-3.39-1.53l-1.86,2.62C254.23,225.29,255.76,226.38,258.05,226.38
		 M258.82,217.32c-1.86,0-2.62-1.09-2.62-2.29l0,0c0-1.53,1.09-2.29,2.62-2.29c1.86,0,3.06,1.09,3.06,2.62l0,0
		C261.44,216.55,260.67,217.32,258.82,217.32 M273.34,226.38c4.59,0,7.21-3.39,7.21-8.74l0,0c0-3.06-0.76-4.91-1.86-6.12
		c-1.09-1.09-2.62-1.86-4.59-1.86c-3.82,0-6.12,2.29-6.12,5.68l0,0c0,3.39,2.29,5.35,5.68,5.35c1.53,0,2.62-0.33,3.39-1.09
		c-0.33,2.29-1.09,3.82-3.39,3.82c-1.53,0-2.29-0.33-3.39-1.53l-1.86,2.62C269.52,225.29,271.05,226.38,273.34,226.38 M274.1,217.32
		c-1.86,0-2.62-1.09-2.62-2.29l0,0c0-1.53,1.09-2.29,2.62-2.29c1.86,0,3.06,1.09,3.06,2.62l0,0
		C276.72,216.55,275.63,217.32,274.1,217.32"/>
	<path style="fill:#00563F;" d="M229.88,126.13c0,4.91-4.15,9.17-9.17,9.17c-4.91,0-9.17-4.15-9.17-9.17c0-4.91,4.15-9.17,9.17-9.17
		C225.62,117.07,229.88,121.22,229.88,126.13 M425.02,163.48c-0.76,0-1.09-0.33-1.86-0.33c-4.91-1.53-7.97-2.62-7.97-4.91l0,0
		c0-1.86,2.29-3.39,5.35-3.06c3.39,0,6.88,1.09,11.79,3.82l0,0h0.33c0.33,0,0.33,0,0.76-0.33l5.35-9.5v-0.33
		c0-0.33,0-0.33-0.33-0.76c-5.68-3.06-11.47-4.91-17.58-4.91c-12.23,0-20.2,6.12-20.2,16.05l0,0c0,9.5,7.64,13.76,16.38,16.05
		c0.76,0.33,1.53,0.33,2.29,0.76c5.35,1.53,7.64,2.62,7.64,5.35v0.33c-0.33,1.86-1.86,3.06-5.68,3.06c-5.35,0-9.5-1.86-15.29-5.35
		l0,0h-0.33c-0.33,0-0.33,0-0.33,0.33l-6.12,9.17v0.33c0,0.33,0,0.33,0.33,0.33c6.88,4.91,13,7.64,20.97,7.64
		c13.32,0,21.29-6.12,21.29-16.38l0,0C441.41,170.03,433.43,165.77,425.02,163.48 M277.16,179.1L277.16,179.1
		c0,10.7-7.97,16.82-21.29,16.82c-7.64,0-14.09-2.62-20.97-7.64l-0.33-0.33v-0.33l6.12-9.17l0.33-0.33h0.33l0,0
		c5.68,3.82,9.94,5.35,15.29,5.35c3.39,0,5.35-1.09,5.68-3.06v-0.33c0-2.62-2.29-3.82-7.64-5.35c-0.76,0-1.53-0.33-2.29-0.76
		c-8.74-2.29-16.38-6.12-16.38-16.05l0,0c0-9.94,7.97-16.05,20.2-16.05c6.12,0,11.79,1.86,17.58,4.91c0.33,0,0.33,0.33,0.33,0.76
		v0.33l-5.35,9.5c0,0.33-0.33,0.33-0.76,0.33h-0.44l0,0c-4.91-2.62-8.41-3.39-11.79-3.82c-3.06,0-5.35,1.09-5.35,3.06l0,0
		c0,2.29,3.06,3.39,7.97,4.91c0.76,0,1.09,0.33,1.86,0.33C269.08,165.77,277.16,169.59,277.16,179.1 M189.8,195.15h-13.32
		c-0.33,0-0.76-0.33-0.76-0.76v-49.58c0-0.33,0.33-0.76,0.76-0.76h13c0.33,0,0.76,0.33,0.76,0.76v6.12
		c3.39-4.59,8.41-7.64,13.76-7.64c0.76,0,1.53,0,1.86,0c0.33,0,0.76,0.33,0.76,0.76v13.32c0,0.33,0,0.33-0.33,0.33
		c0,0-0.33,0.33-0.33,0c-0.33,0-1.09,0-2.29,0c-4.15,0-9.5,2.29-11.79,9.17c-0.76,1.86-1.09,4.59-1.09,7.21v19.88
		C190.56,194.82,190.23,195.15,189.8,195.15 M152.89,194.38v-19.88c0-3.06,0.33-5.35,1.09-7.21c2.29-6.44,7.21-9.17,11.79-9.17
		c1.09,0,1.86,0,2.29,0c0.33,0,0.33,0,0.33,0l0.33-0.33v-13.32c0-0.33-0.33-0.76-0.76-0.76c-0.33,0-1.09,0-1.86,0
		c-5.35,0-10.27,2.62-13.76,7.64v-6.12c0-0.33-0.33-0.76-0.76-0.76h-13c-0.33,0-0.76,0.33-0.76,0.76v49.58
		c0,0.33,0.33,0.76,0.76,0.76h13.32C152.45,195.15,152.89,194.82,152.89,194.38 M67.82,195.15H54.17c-0.33,0-0.76-0.33-0.76-0.76
		c0-15.62-1.09-33.2-1.53-38.88c-4.91,6.44-9.5,15.29-13.32,23.59c0,0.33-0.33,0.33-0.76,0.33h-7.64c-0.33,0-0.33,0-0.76-0.33
		c-3.82-8.41-8.41-17.15-13.32-23.59c0,5.68-1.09,23.26-1.09,38.88c0,0.33-0.33,0.76-0.76,0.76H0.76c-0.33,0-0.76-0.33-0.76-0.76
		c0-20.97,1.53-48.81,4.91-63.23c0-0.33,0.33-0.33,0.76-0.33h10.7c0.33,0,0.33,0,0.33,0.33c6.88,7.97,13,16.82,17.15,25.12
		c4.59-8.74,10.27-17.58,17.15-25.12l0.33-0.33h10.7c0.33,0,0.76,0.33,0.76,0.33c3.39,14.09,4.91,41.93,4.91,63.23
		C68.25,194.82,68.25,195.15,67.82,195.15 M392.59,194.38v-31.67c0-13-6.12-19.88-17.91-19.88c-7.97,0-13,3.82-15.62,6.88v-4.91
		c0-0.33-0.33-0.76-0.76-0.76h-13c-0.33,0-0.76,0.33-0.76,0.76v49.58c0,0.33,0.33,0.76,0.76,0.76h13.32c0.33,0,0.76-0.33,0.76-0.76
		v-22.82c0-2.29,0.33-4.15,0.76-6.12c1.53-5.35,6.12-8.74,11.47-8.74c4.59,0,6.12,2.29,6.12,8.41v28.94c0,0.33,0.33,0.76,0.76,0.76
		h13.32C392.26,195.15,392.59,194.82,392.59,194.38 M310.25,156.27c-7.21,0-13,5.68-13,13.32c0,7.64,5.35,13.32,13,13.32
		c7.21,0,12.56-5.68,12.56-13.32C323.25,161.95,317.46,156.27,310.25,156.27 M310.25,196.35c-16.05,0-27.85-11.47-27.85-26.65
		c0-15.29,11.79-26.65,27.85-26.65c16.05,0,27.85,11.47,27.85,26.65C338.1,184.88,326.3,196.35,310.25,196.35 M228.35,194.38v-49.58
		c0-0.33-0.33-0.76-0.76-0.76h-13.32c-0.33,0-0.76,0.33-0.76,0.76v49.58c0,0.33,0.33,0.76,0.76,0.76h13.32
		C227.91,195.15,228.35,194.82,228.35,194.38 M102.87,156.27c-7.21,0-13,5.68-13,13.32c0,7.64,5.35,13.32,13,13.32
		c7.21,0,12.56-5.68,12.56-13.32C115.87,161.95,110.19,156.27,102.87,156.27 M102.87,196.35c-16.05,0-27.85-11.47-27.85-26.65
		c0-15.29,11.79-26.65,27.85-26.65s27.85,11.47,27.85,26.65C130.72,184.88,118.92,196.35,102.87,196.35"/>
	<path style="fill:#FFC20E;" d="M263.73,123.07c-12.23,4.59-22.82-3.82-22.82-3.82s3.06-13,15.29-17.58s22.82,3.82,22.82,3.82
		S275.96,118.6,263.73,123.07 M296.16,61.37c0,0-11.79-6.12-23.26,0.33s-11.79,19.88-11.79,19.88s11.79,6.12,23.26-0.33
		C295.4,74.7,296.16,61.37,296.16,61.37 M244.73,91.51c-5.79,11.79-18.67,13.65-18.67,13.65s-7.21-11.47-1.53-23.26
		c5.68-11.79,18.67-13.76,18.67-13.76S250.08,79.28,244.73,91.51 M162.71,105.6c0,0,3.06,13,15.29,17.58
		c12.23,4.59,22.82-3.82,22.82-3.82s-3.06-13-15.29-17.58C173.42,97.19,162.71,105.6,162.71,105.6 M168.5,61.7
		c11.47,6.44,11.79,19.88,11.79,19.88s-11.79,6.12-23.26-0.33c-11.47-6.55-11.79-19.88-11.79-19.88S157.47,55.26,168.5,61.7
		 M183.68,39.97c0,0-3.06,13,6.44,22.5c9.17,9.17,22.5,6.44,22.5,6.44s3.06-13-6.44-22.5C197.11,37.35,183.68,39.97,183.68,39.97
		 M231.73,20.2c0,13-11.47,20.2-11.47,20.2S208.8,33.2,208.8,20.2S220.27,0,220.27,0S231.73,7.21,231.73,20.2 M254.23,49.58
		c0,5.35-4.15,9.5-9.5,9.5c-5.35,0-9.5-4.15-9.5-9.5s4.15-9.5,9.5-9.5C250.08,39.97,254.23,44.23,254.23,49.58 M211.53,88.46
		c0,5.35-4.15,9.5-9.5,9.5c-5.35,0-9.5-4.15-9.5-9.5c0-5.35,4.15-9.5,9.5-9.5C207.38,78.95,211.53,83.43,211.53,88.46"/>
</g>
</svg>
