<?xml version="1.0" encoding="utf-8"?>
<svg version="1.1" id="Layer_1" xmlns="http://www.w3.org/2000/svg" xmlns:xlink="http://www.w3.org/1999/xlink" x="0px" y="0px"
	width="100px" height="100px" viewBox="0 0 66.7 66.7" style="enable-background:new 0 0 66.7 66.7;" xml:space="preserve">
<g>
	<circle style="fill:#E8E8E8;" cx="33.3" cy="33.3" r="33.3"/>
	<circle style="fill:#FFFFFF;" cx="33.3" cy="33.3" r="32.7"/>
	<path style="fill:#A9A9AB;" d="M49.3,32.5c-0.8-1-1.9-1.5-3.1-1.8c-1.3-0.3-2.5-0.4-3.9-0.4c-1.7,0-3.3,0.2-4.9,0.5
		c-0.2,0-0.3,0-0.5-0.1c-1.8-1.2-3.7-1.9-5.9-2.2c-1.5-0.2-2.9-0.1-4.4,0.1c-2.2,0.3-4.3,0.9-6.5,1.4c-0.8,0.1-1.6,0.3-2.4,0.5h-0.3
		c0.7-0.2,1.4-0.4,2.1-0.7c1.4-0.5,2.7-1.1,4.1-1.6c1.5-0.6,2.9-1.1,4.5-1.4c2.1-0.4,4.2-0.1,6.2,0.6c1.4,0.5,2.7,1.3,4.1,2
		c0.3,0.1,0.5,0.1,0.8,0.1c1.3-0.1,2.7-0.2,4.1-0.1c1.1,0.1,2.3,0.2,3.3,0.7c1,0.4,1.9,0.9,2.3,1.9C49.2,31.9,49.3,32.1,49.3,32.5z"
		/>
	<path style="fill:#033879;" d="M46.9,37.1l2.1,2.9h-1.5c-0.1,0-0.1-0.1-0.2-0.1l-1.7-2.4c-0.1-0.1-0.2-0.2-0.3-0.2h-1.3
		c-0.2,0-0.2,0.1-0.2,0.3v2.2c0,0.2,0,0.3-0.3,0.3h-0.9c-0.2,0-0.3-0.1-0.3-0.3v-5.2v-2.1c0-0.2,0-0.3,0.3-0.3h3.4
		c0.8,0,1.6,0.2,2.2,0.9c0.9,1,0.8,2.5-0.2,3.4c-0.2,0.2-0.5,0.4-0.8,0.5C47.1,37.1,47.1,37.1,46.9,37.1L46.9,37.1z M43.8,34.9V36
		c0,0.1,0,0.2,0.1,0.2h1.9c0.5,0,1.1-0.2,1.3-0.7c0.5-0.9-0.1-1.8-1.1-1.9h-2.1c-0.1,0-0.1,0.1-0.1,0.2
		C43.8,33.8,43.8,34.9,43.8,34.9z M35,36.2v-3.6c0-0.2,0.1-0.3,0.3-0.3h5.2c0.3,0,0.3,0.1,0.3,0.3c0,0.3,0.1,0.7-0.1,0.9
		c-0.2,0.2-0.6,0.1-0.9,0.1h-3.2c-0.2,0-0.3,0.1-0.3,0.3v1.5c0,0.3,0.1,0.3,0.3,0.3H40c0.2,0,0.3,0.1,0.3,0.3v0.7
		c0,0.2-0.1,0.3-0.3,0.2h-3.4c-0.3,0-0.3,0.1-0.3,0.3v1.5c0,0.3,0.1,0.3,0.3,0.3h3.9c0.3,0,0.3,0.1,0.3,0.3c0,0.3,0.1,0.7-0.1,0.9
		c-0.1,0.1-0.6,0.1-0.9,0.1h-4.6c-0.3,0-0.3-0.1-0.3-0.4C35,38.6,35,37.4,35,36.2z M23.4,32.1c1.1,0,1.9,0.3,2.7,0.9
		c0.1,0.1,0.2,0.2,0.1,0.3c-0.2,0.2-0.3,0.5-0.5,0.7c-0.1,0.1-0.2,0.1-0.3,0.1c-0.5-0.3-1.1-0.6-1.7-0.7c-0.3,0-0.7,0-1,0.1
		c-0.3,0.1-0.5,0.4-0.5,0.8c0,0.3,0.2,0.6,0.5,0.7c0.5,0.2,0.9,0.3,1.4,0.5c0.5,0.1,0.9,0.2,1.3,0.5c0.8,0.4,1.3,1,1.2,2
		c0,0.9-0.5,1.6-1.3,2c-1.5,0.7-3,0.3-4.3-0.6c-0.5-0.3-0.5-0.3-0.1-0.7c0.1-0.2,0.3-0.5,0.5-0.5c0.2-0.1,0.4,0.2,0.6,0.4
		c0.8,0.5,1.7,0.7,2.6,0.5c0.5-0.1,0.8-0.6,0.7-1.1c0,0,0,0,0,0c-0.1-0.3-0.3-0.4-0.5-0.5c-0.5-0.3-1-0.3-1.5-0.5
		c-0.3-0.1-0.7-0.2-1-0.3c-0.7-0.3-1.1-0.8-1.2-1.6c-0.1-0.9,0.2-1.7,0.9-2.1C22.3,32.3,22.9,32.1,23.4,32.1L23.4,32.1z M52.7,32.1
		c1.1,0,1.9,0.3,2.7,0.8c0.1,0.1,0.2,0.2,0.1,0.4c-0.2,0.2-0.3,0.5-0.5,0.7c-0.1,0.1-0.2,0.1-0.3,0.1c-0.5-0.3-1.1-0.6-1.7-0.7
		c-0.3,0-0.7,0-1,0.1c-0.3,0.1-0.5,0.4-0.5,0.7s0.1,0.6,0.5,0.8c0.5,0.2,0.9,0.3,1.4,0.5c0.5,0.1,0.9,0.3,1.3,0.5
		c1.6,0.7,1.4,2.9,0.3,3.7c-0.7,0.5-1.4,0.5-2.1,0.5c-1.1-0.1-2-0.4-2.9-1.1c-0.1-0.1-0.2-0.2,0-0.4c0.2-0.2,0.3-0.4,0.5-0.7
		c0.1-0.1,0.2-0.1,0.3,0c0.6,0.5,1.3,0.8,2.1,0.9c0.4,0,0.8,0,1.1-0.2c0.3-0.1,0.5-0.5,0.5-0.8c0-0.4-0.2-0.7-0.5-0.8
		c-0.5-0.2-0.9-0.3-1.3-0.5c-0.4-0.1-0.8-0.2-1.3-0.4c-0.8-0.3-1.3-1-1.3-1.9c0-0.9,0.4-1.6,1.2-2C51.8,32.3,52.3,32.1,52.7,32.1z
		 M31.2,36.9v3c0,0.2-0.1,0.3-0.3,0.3h-0.9c-0.2,0-0.3-0.1-0.3-0.3v-6c0-0.3-0.1-0.3-0.3-0.3h-1.9c-0.2,0-0.3,0-0.2-0.2v-0.9
		c0-0.1,0-0.2,0.2-0.2h6c0.1,0,0.2,0.1,0.2,0.2v0.9c0,0.2-0.1,0.2-0.2,0.2h-2.1c-0.2,0-0.3,0.1-0.3,0.3L31.2,36.9L31.2,36.9
		C31.2,36.9,31.2,36.9,31.2,36.9z M10.7,36.2v-3.7c0-0.2,0.1-0.3,0.3-0.3h0.9c0.2,0,0.3,0.1,0.3,0.3v5.9c0,0.3,0.1,0.4,0.4,0.4H16
		c0.2,0,0.3,0,0.3,0.3v0.7c0,0.2-0.1,0.3-0.3,0.3h-4.1H11c-0.2,0-0.3-0.1-0.3-0.3C10.7,39.9,10.7,36.2,10.7,36.2z M19,36.2v3.7
		c0,0.2,0,0.3-0.3,0.3h-0.9c-0.1,0-0.2,0-0.2-0.2v-7.4c0-0.2,0.1-0.3,0.3-0.3h0.9c0.2,0,0.3,0.1,0.3,0.3V36.2
		C18.9,36.2,19,36.2,19,36.2z"/>
</g>
</svg>
