<?xml version="1.0"?>
<svg xmlns="http://www.w3.org/2000/svg" xmlns:xlink="http://www.w3.org/1999/xlink" xmlns:svgjs="http://svgjs.com/svgjs" version="1.1" width="512" height="512" x="0" y="0" viewBox="0 0 512 512" style="enable-background:new 0 0 512 512" xml:space="preserve" class=""><g>
<circle xmlns="http://www.w3.org/2000/svg" style="" cx="256" cy="256" r="256" fill="#f1f1f1" data-original="#00ffea" class=""/>
<path xmlns="http://www.w3.org/2000/svg" style="" d="M512,256c0-22.747-2.982-44.794-8.55-65.79L396.098,82.551  c-13.134-14.045-31.826-22.826-52.573-22.826c-35.801,0-65.484,26.143-71.027,60.379L249.59,98.48H54.194  c-0.988,1.264-1.964,2.537-2.929,3.82c-0.448,0.596-0.888,1.198-1.331,1.797c-0.634,0.859-1.264,1.721-1.888,2.588  c-0.47,0.654-0.939,1.308-1.403,1.966c-0.669,0.949-1.328,1.904-1.984,2.862c-0.621,0.907-1.237,1.819-1.847,2.735  c-0.64,0.961-1.277,1.924-1.905,2.894c-0.484,0.748-0.961,1.501-1.437,2.255c-0.475,0.751-0.945,1.506-1.413,2.263  c-0.496,0.804-0.994,1.606-1.481,2.416c-0.397,0.659-0.784,1.325-1.175,1.988c-0.404,0.685-0.813,1.367-1.211,2.056  c-0.436,0.754-0.862,1.514-1.29,2.273c-0.399,0.707-0.796,1.415-1.188,2.126c-0.445,0.806-0.888,1.612-1.324,2.423  c-0.648,1.206-1.288,2.417-1.918,3.634c-0.419,0.81-0.829,1.626-1.24,2.441c-0.442,0.877-0.88,1.756-1.312,2.639  c-0.354,0.724-0.709,1.448-1.056,2.176c-0.669,1.4-1.327,2.807-1.971,4.221c-0.294,0.645-0.578,1.294-0.867,1.941  c-0.461,1.035-0.915,2.073-1.363,3.115c-0.275,0.641-0.552,1.281-0.822,1.925c-0.63,1.502-1.247,3.01-1.85,4.527  c-0.229,0.578-0.452,1.159-0.677,1.739c-0.46,1.183-0.911,2.37-1.354,3.561c-0.207,0.556-0.416,1.111-0.619,1.67  c-0.58,1.594-1.144,3.196-1.692,4.804c-0.181,0.529-0.355,1.061-0.532,1.591c-0.439,1.315-0.867,2.634-1.285,3.958  c-0.15,0.477-0.304,0.952-0.452,1.43c-0.518,1.676-1.018,3.359-1.502,5.05c-0.141,0.493-0.278,0.988-0.416,1.483  c-0.401,1.433-0.791,2.872-1.168,4.315c-0.105,0.401-0.214,0.801-0.317,1.203c-0.446,1.745-0.872,3.498-1.283,5.257  c-0.11,0.474-0.217,0.949-0.325,1.424c-0.349,1.538-0.686,3.08-1.007,4.628c-0.069,0.332-0.142,0.662-0.21,0.994  c-0.367,1.804-0.712,3.616-1.041,5.433c-0.084,0.462-0.164,0.926-0.245,1.389c-0.287,1.639-0.561,3.283-0.817,4.932  c-0.04,0.26-0.085,0.518-0.124,0.777c-0.282,1.854-0.539,3.715-0.781,5.581c-0.06,0.462-0.117,0.926-0.175,1.389  c-0.215,1.736-0.417,3.477-0.597,5.224c-0.019,0.184-0.041,0.367-0.06,0.551c-0.191,1.895-0.357,3.798-0.507,5.705  c-0.037,0.468-0.071,0.937-0.106,1.406c-0.134,1.836-0.255,3.676-0.35,5.523c-0.005,0.103-0.013,0.205-0.018,0.307  c-0.097,1.93-0.166,3.868-0.221,5.809c-0.013,0.476-0.025,0.953-0.036,1.43C0.03,252.078,0,254.036,0,256  c0,1.971,0.03,3.934,0.075,5.894c0.01,0.43,0.019,0.86,0.031,1.289c0.053,1.913,0.123,3.821,0.217,5.723  c0.015,0.307,0.035,0.612,0.051,0.919c0.091,1.717,0.201,3.429,0.326,5.136c0.027,0.37,0.051,0.741,0.08,1.111  c0.145,1.867,0.311,3.729,0.496,5.585c0.043,0.431,0.089,0.861,0.134,1.291c0.181,1.728,0.376,3.453,0.591,5.171  c0.026,0.21,0.049,0.421,0.076,0.632c0.235,1.843,0.496,3.677,0.771,5.508c0.071,0.477,0.144,0.953,0.218,1.429  c0.281,1.806,0.576,3.608,0.895,5.402c0.055,0.307,0.115,0.613,0.17,0.92c0.286,1.573,0.587,3.141,0.901,4.704  c0.096,0.475,0.189,0.951,0.287,1.426c0.357,1.726,0.731,3.445,1.123,5.158c0.111,0.485,0.227,0.969,0.341,1.453  c0.339,1.445,0.691,2.887,1.055,4.322c0.105,0.416,0.206,0.834,0.314,1.249c0.431,1.666,0.883,3.324,1.347,4.978  c0.158,0.563,0.319,1.125,0.481,1.687c0.439,1.526,0.89,3.047,1.356,4.56c0.152,0.492,0.308,0.982,0.462,1.473  c0.428,1.357,0.867,2.708,1.317,4.056c0.2,0.6,0.401,1.201,0.605,1.8c0.526,1.539,1.064,3.072,1.619,4.597  c0.214,0.59,0.436,1.176,0.655,1.764c0.42,1.131,0.849,2.257,1.285,3.38c0.238,0.613,0.473,1.227,0.715,1.838  c0.575,1.448,1.165,2.887,1.766,4.322c0.29,0.693,0.585,1.383,0.881,2.072c0.442,1.03,0.892,2.056,1.347,3.079  c0.424,0.954,0.854,1.905,1.29,2.853c0.461,1.003,0.927,2.003,1.4,2.999c0.363,0.764,0.729,1.526,1.099,2.285  c0.487,0.999,0.983,1.992,1.483,2.984c0.544,1.079,1.096,2.153,1.655,3.223c0.377,0.723,0.757,1.444,1.141,2.163  c0.446,0.835,0.893,1.671,1.348,2.501c0.005,0.01,0.011,0.02,0.016,0.029c0.05,0.05,49.535,49.213,102.776,102.258  C170.418,500.85,211.907,512,256,512C397.385,512,512,397.385,512,256z" fill="#f1f1f1" data-original="#00ceb4" class=""/>
<path xmlns="http://www.w3.org/2000/svg" style="" d="M249.59,98.48l-12.46,29.64l-29.48,70.17l-52.56,35.18l6,56.08l-28.08,89.41H31.42  C11.39,342.47,0,300.56,0,256c0-46.58,12.44-90.25,34.19-127.88c5.98-10.36,12.67-20.26,20-29.64  C54.19,98.48,249.59,98.48,249.59,98.48z" fill="#ff9a00" data-original="#ff9a00" class=""/>
<polygon xmlns="http://www.w3.org/2000/svg" style="" points="249.59,98.48 237.13,128.12 207.65,198.29 155.09,233.47 161.09,289.55 133.01,378.96   64.91,378.96 92.99,289.55 86.99,233.47 139.55,198.29 169.03,128.12 181.49,98.48 " fill="#e67500" data-original="#e67500"/>
<path xmlns="http://www.w3.org/2000/svg" style="" d="M249.59,98.48l-12.46,29.64H34.19c5.98-10.36,12.67-20.26,20-29.64  C54.19,98.48,249.59,98.48,249.59,98.48z" fill="#c06100" data-original="#c06100" class=""/>
<polygon xmlns="http://www.w3.org/2000/svg" style="" points="249.59,98.48 237.13,128.12 169.03,128.12 181.49,98.48 " fill="#9a4c00" data-original="#9a4c00"/>
<path xmlns="http://www.w3.org/2000/svg" style="" d="M256,512c100.82,0,188.013-58.29,229.755-143H26.245C67.987,453.71,155.18,512,256,512z" fill="#ffc473" data-original="#ffc473" class=""/>
<g xmlns="http://www.w3.org/2000/svg">
	<path style="" d="M485.76,369C444.01,453.71,356.82,512,256,512V369H485.76z" fill="#ffaa20" data-original="#ffaa20" class=""/>
	<rect x="156" y="444.83" style="" width="74.64" height="18.667" fill="#ffaa20" data-original="#ffaa20" class=""/>
	<rect x="95.06" y="401.45" style="" width="74.64" height="18.667" fill="#ffaa20" data-original="#ffaa20" class=""/>
</g>
<g xmlns="http://www.w3.org/2000/svg">
	<rect x="280.65" y="454.17" style="" width="18.501" height="18.667" fill="#ff8900" data-original="#ff8900" class=""/>
	<rect x="309.98" y="454.17" style="" width="47.25" height="18.667" fill="#ff8900" data-original="#ff8900" class=""/>
	<rect x="368.15" y="397" style="" width="56.856" height="18.667" fill="#ff8900" data-original="#ff8900" class=""/>
</g>
<rect xmlns="http://www.w3.org/2000/svg" x="237.81" y="400" style="" width="67.49" height="18.667" fill="#ffaa20" data-original="#ffaa20" class=""/>
<rect xmlns="http://www.w3.org/2000/svg" x="256" y="400" style="" width="49.3" height="18.667" fill="#ff8900" data-original="#ff8900" class=""/>
<circle xmlns="http://www.w3.org/2000/svg" style="" cx="343.52" cy="131.7" r="71.971" fill="#ffdf47" data-original="#ffdf47"/>
<path xmlns="http://www.w3.org/2000/svg" style="" d="M415.501,131.696c0,39.748-32.222,71.971-71.971,71.971V59.725  C383.278,59.725,415.501,91.948,415.501,131.696z" fill="#fdc000" data-original="#fdc000"/>
<path xmlns="http://www.w3.org/2000/svg" style="" d="M444.843,285.529c-3.104,0-5.621,2.516-5.621,5.621v16.863h-6.462v-23.609  c0-9.251-7.569-16.819-16.819-16.819l0,0c-9.251,0-16.819,7.569-16.819,16.819v44.383h-7.342v-16.863  c0-3.104-2.516-5.621-5.621-5.621c-3.104,0-5.621,2.517-5.621,5.621v22.483c0,3.104,2.516,5.621,5.621,5.621h12.963v23.493h33.639  v-44.267h12.083c3.104,0,5.621-2.516,5.621-5.621V291.15C450.464,288.045,447.947,285.529,444.843,285.529z" fill="#00a753" data-original="#00a753"/>
<path xmlns="http://www.w3.org/2000/svg" style="" d="M450.464,291.148v22.487c0,3.101-2.518,5.62-5.62,5.62h-12.085v44.266h-17.257V267.59  c0.146-0.004,0.291-0.007,0.437-0.007c9.253,0,16.819,7.57,16.819,16.819v23.609h6.465v-16.863c0-3.102,2.515-5.62,5.62-5.62  C447.945,285.528,450.464,288.046,450.464,291.148z" fill="#007539" data-original="#007539" class=""/>
<path xmlns="http://www.w3.org/2000/svg" style="" d="M439.901,375.11h-47.92c0-4.28,1.73-8.15,4.54-10.95c2.8-2.81,6.67-4.54,10.95-4.54h16.94  C432.971,359.62,439.901,366.55,439.901,375.11z" fill="#be6200" data-original="#be6200"/>
<path xmlns="http://www.w3.org/2000/svg" style="" d="M439.901,375.11h-24.4v-15.49h8.91C432.971,359.62,439.901,366.55,439.901,375.11z" fill="#703700" data-original="#703700" class=""/>
<path xmlns="http://www.w3.org/2000/svg" style="" d="M344.956,285.529c-3.104,0-5.621,2.516-5.621,5.621v16.863h-6.462v-23.609  c0-9.251-7.569-16.819-16.819-16.819l0,0c-9.251,0-16.819,7.569-16.819,16.819v44.383h-7.342v-16.863  c0-3.104-2.516-5.621-5.62-5.621s-5.621,2.517-5.621,5.621v22.483c0,3.104,2.517,5.621,5.621,5.621h12.963v23.493h33.639v-44.267  h12.083c3.104,0,5.621-2.516,5.621-5.621V291.15C350.576,288.045,348.06,285.529,344.956,285.529z" fill="#00a753" data-original="#00a753"/>
<path xmlns="http://www.w3.org/2000/svg" style="" d="M350.577,291.148v22.487c0,3.101-2.518,5.62-5.62,5.62h-12.085v44.266h-17.257V267.59  c0.146-0.004,0.292-0.007,0.437-0.007c9.253,0,16.819,7.57,16.819,16.819v23.609h6.465v-16.863c0-3.102,2.515-5.62,5.62-5.62  C348.058,285.528,350.577,288.046,350.577,291.148z" fill="#007539" data-original="#007539" class=""/>
<path xmlns="http://www.w3.org/2000/svg" style="" d="M340.014,375.11h-47.92c0-4.28,1.73-8.15,4.54-10.95c2.8-2.81,6.67-4.54,10.95-4.54h16.94  C333.084,359.62,340.014,366.55,340.014,375.11z" fill="#be6200" data-original="#be6200"/>
<path xmlns="http://www.w3.org/2000/svg" style="" d="M340.014,375.11h-24.4v-15.49h8.91C333.084,359.62,340.014,366.55,340.014,375.11z" fill="#703700" data-original="#703700" class=""/>
<g xmlns="http://www.w3.org/2000/svg">
</g>
<g xmlns="http://www.w3.org/2000/svg">
</g>
<g xmlns="http://www.w3.org/2000/svg">
</g>
<g xmlns="http://www.w3.org/2000/svg">
</g>
<g xmlns="http://www.w3.org/2000/svg">
</g>
<g xmlns="http://www.w3.org/2000/svg">
</g>
<g xmlns="http://www.w3.org/2000/svg">
</g>
<g xmlns="http://www.w3.org/2000/svg">
</g>
<g xmlns="http://www.w3.org/2000/svg">
</g>
<g xmlns="http://www.w3.org/2000/svg">
</g>
<g xmlns="http://www.w3.org/2000/svg">
</g>
<g xmlns="http://www.w3.org/2000/svg">
</g>
<g xmlns="http://www.w3.org/2000/svg">
</g>
<g xmlns="http://www.w3.org/2000/svg">
</g>
<g xmlns="http://www.w3.org/2000/svg">
</g>
</g></svg>
