<?xml version="1.0"?>
<svg xmlns="http://www.w3.org/2000/svg" xmlns:xlink="http://www.w3.org/1999/xlink" xmlns:svgjs="http://svgjs.com/svgjs" version="1.1" width="512" height="512" x="0" y="0" viewBox="0 0 512 512" style="enable-background:new 0 0 512 512" xml:space="preserve" class=""><g><path xmlns="http://www.w3.org/2000/svg" d="m512 256c0 141.386719-114.613281 256-256 256s-256-114.613281-256-256 114.613281-256 256-256 256 114.613281 256 256zm0 0" fill="#f1f1f1" data-original="#fe6a16" style="" class=""/><path xmlns="http://www.w3.org/2000/svg" d="m512 256c0-17.261719-1.71875-34.117188-4.976562-50.421875l-114.023438-114.023437-274 295.128906 125.027344 125.03125c3.96875.179687 7.957031.285156 11.972656.285156 141.386719 0 256-114.613281 256-256zm0 0" fill="#f1f1f1" data-original="#f24500" style="" class=""/><path xmlns="http://www.w3.org/2000/svg" d="m393 91.554688h-274v295.128906h103.105469l33.894531 63.226562 43.894531-63.226562h93.105469zm0 0" fill="#ffffff" data-original="#ffffff" style="" class=""/><path xmlns="http://www.w3.org/2000/svg" d="m256 91.554688v358.355468l43.894531-63.226562h93.105469v-295.128906zm0 0" fill="#e9edf5" data-original="#e9edf5" style=""/><path xmlns="http://www.w3.org/2000/svg" d="m325.667969 146.667969v14c4.933593 0 9.648437.929687 14 2.609375v33.421875c0 11.746093 9.554687 21.300781 21.300781 21.300781h3.699219v79.335938c0 6.246093-5.082031 11.328124-11.332031 11.328124h-27.667969v14h27.667969c13.96875 0 25.332031-11.363281 25.332031-25.328124v-97.671876c0-29.222656-23.777344-52.996093-53-52.996093zm35.296875 57.332031c-4.023438 0-7.300782-3.273438-7.300782-7.300781v-24.140625c6.804688 7.023437 11 16.582031 11 27.105468v4.335938zm0 0" fill="#27488f" data-original="#27488f" style=""/><path xmlns="http://www.w3.org/2000/svg" d="m177.441406 127h157.113282v226h-157.113282zm0 0" fill="#2864f0" data-original="#2864f0" style="" class=""/><path xmlns="http://www.w3.org/2000/svg" d="m256 127h78.558594v226h-78.558594zm0 0" fill="#0053bf" data-original="#0053bf" style="" class=""/><path xmlns="http://www.w3.org/2000/svg" d="m165.332031 324.332031h181.332031v34.667969h-181.332031zm0 0" fill="#0053bf" data-original="#0053bf" style="" class=""/><path xmlns="http://www.w3.org/2000/svg" d="m256 324.332031h90.667969v34.667969h-90.667969zm0 0" fill="#27488f" data-original="#27488f" style=""/><path xmlns="http://www.w3.org/2000/svg" d="m194 145.667969h124v74h-124zm0 0" fill="#87c7ff" data-original="#87c7ff" style=""/><path xmlns="http://www.w3.org/2000/svg" d="m256 145.667969h62v74h-62zm0 0" fill="#65b1fc" data-original="#65b1fc" style="" class=""/></g></svg>
