<?xml version="1.0" encoding="utf-8"?>

<svg version="1.1" id="Layer_1" xmlns="http://www.w3.org/2000/svg" xmlns:xlink="http://www.w3.org/1999/xlink" x="0px" y="0px"
	width="100px" height="100px" viewBox="0 0 100 100" style="enable-background:new 0 0 100 100;" xml:space="preserve">
<g>
	<g>
		<path style="fill:#E8E8E8;" d="M50,0c27.61,0,50,22.39,50,50s-22.39,50-50,50S0,77.61,0,50S22.39,0,50,0"/>
		<path style="fill:#FFFFFF;" d="M50,1c27.06,0,49,21.94,49,49S77.06,99,50,99S1,77.06,1,50S22.94,1,50,1"/>
	</g>
	<g>
		<path style="fill:#00563F;" d="M41.19,68.8c0.56,0,1.02-0.31,1.02-0.82l0,0c0-0.44-0.31-0.69-0.89-0.82
			c-0.44-0.13-0.56-0.18-0.56-0.38l0,0c0-0.13,0.13-0.25,0.31-0.25c0.25,0,0.44,0.13,0.69,0.25l0.31-0.44
			c-0.25-0.18-0.64-0.31-1.02-0.31c-0.56,0-0.95,0.31-0.95,0.82l0,0c0,0.51,0.38,0.69,0.89,0.82c0.44,0.13,0.56,0.18,0.56,0.31l0,0
			c0,0.18-0.13,0.25-0.38,0.25c-0.31,0-0.56-0.13-0.82-0.31l-0.38,0.44C40.38,68.68,40.76,68.8,41.19,68.8 M42.6,66.46h0.64v-0.51
			H42.6V66.46z M42.6,68.8h0.56v-2.09H42.6V68.8z M43.74,68.8h0.56v-1.15c0-0.25,0.13-0.44,0.38-0.44c0.25,0,0.38,0.13,0.38,0.44
			v1.15h0.56v-1.33c0-0.51-0.25-0.76-0.69-0.76c-0.31,0-0.44,0.18-0.64,0.31v-0.31h-0.56V68.8L43.74,68.8z M47.11,68.86
			c0.44,0,0.64-0.18,0.82-0.38l-0.31-0.38c-0.13,0.13-0.25,0.18-0.51,0.18c-0.31,0-0.51-0.25-0.51-0.56l0,0
			c0-0.31,0.18-0.56,0.51-0.56c0.18,0,0.31,0.05,0.44,0.25l0.38-0.38c-0.18-0.18-0.44-0.38-0.82-0.38c-0.64,0-1.07,0.51-1.07,1.07
			l0,0C46.03,68.35,46.47,68.86,47.11,68.86 M49.2,68.86c0.38,0,0.64-0.13,0.82-0.38l-0.31-0.31c-0.18,0.13-0.31,0.18-0.51,0.18
			c-0.25,0-0.44-0.13-0.51-0.38h1.46c0-0.05,0-0.13,0-0.13c0-0.56-0.31-1.15-1.02-1.15c-0.64,0-1.02,0.51-1.02,1.07l0,0
			C48.13,68.42,48.56,68.86,49.2,68.86 M48.69,67.58c0.05-0.25,0.18-0.44,0.44-0.44s0.38,0.18,0.44,0.44H48.69z M51.75,68.8h0.56
			v-2.73h-0.38l-0.76,0.25l0.13,0.51l0.44-0.13C51.75,66.71,51.75,68.8,51.75,68.8z M53.84,68.8c0.56,0,1.07-0.31,1.07-0.82l0,0
			c0-0.31-0.18-0.51-0.44-0.64c0.18-0.13,0.31-0.31,0.31-0.56l0,0c0-0.44-0.38-0.76-0.95-0.76s-0.95,0.31-0.95,0.76l0,0
			c0,0.31,0.13,0.44,0.31,0.56c-0.31,0.13-0.44,0.31-0.44,0.64l0,0C52.82,68.55,53.26,68.8,53.84,68.8 M53.84,67.15
			c-0.25,0-0.38-0.13-0.38-0.31l0,0c0-0.18,0.13-0.31,0.38-0.31c0.25,0,0.38,0.13,0.38,0.31l0,0
			C54.22,67.02,54.09,67.15,53.84,67.15 M53.84,68.35c-0.31,0-0.44-0.13-0.44-0.31l0,0c0-0.18,0.18-0.31,0.44-0.31
			s0.44,0.13,0.44,0.31l0,0C54.35,68.17,54.15,68.35,53.84,68.35 M56.19,68.86c0.76,0,1.2-0.56,1.2-1.46l0,0
			c0-0.51-0.13-0.82-0.31-1.02c-0.18-0.18-0.44-0.31-0.76-0.31c-0.64,0-1.02,0.38-1.02,0.95l0,0c0,0.56,0.38,0.89,0.95,0.89
			c0.25,0,0.44-0.05,0.56-0.18c-0.05,0.38-0.18,0.64-0.56,0.64c-0.25,0-0.38-0.05-0.56-0.25l-0.31,0.44
			C55.55,68.68,55.8,68.86,56.19,68.86 M56.31,67.35c-0.31,0-0.44-0.18-0.44-0.38l0,0c0-0.25,0.18-0.38,0.44-0.38
			c0.31,0,0.51,0.18,0.51,0.44l0,0C56.75,67.22,56.62,67.35,56.31,67.35 M58.73,68.86c0.76,0,1.2-0.56,1.2-1.46l0,0
			c0-0.51-0.13-0.82-0.31-1.02c-0.18-0.18-0.44-0.31-0.76-0.31c-0.64,0-1.02,0.38-1.02,0.95l0,0c0,0.56,0.38,0.89,0.95,0.89
			c0.25,0,0.44-0.05,0.56-0.18c-0.05,0.38-0.18,0.64-0.56,0.64c-0.25,0-0.38-0.05-0.56-0.25l-0.31,0.44
			C58.1,68.68,58.35,68.86,58.73,68.86 M58.86,67.35c-0.31,0-0.44-0.18-0.44-0.38l0,0c0-0.25,0.18-0.38,0.44-0.38
			c0.31,0,0.51,0.18,0.51,0.44l0,0C59.3,67.22,59.11,67.35,58.86,67.35"/>
		<path style="fill:#00563F;" d="M51.49,52.16c0,0.82-0.69,1.53-1.53,1.53c-0.82,0-1.53-0.69-1.53-1.53c0-0.82,0.69-1.53,1.53-1.53
			C50.78,50.65,51.49,51.34,51.49,52.16 M84,58.38c-0.13,0-0.18-0.05-0.31-0.05c-0.82-0.25-1.33-0.44-1.33-0.82l0,0
			c0-0.31,0.38-0.56,0.89-0.51c0.56,0,1.15,0.18,1.96,0.64l0,0h0.05c0.05,0,0.05,0,0.13-0.05l0.89-1.58v-0.05
			c0-0.05,0-0.05-0.05-0.13c-0.95-0.51-1.91-0.82-2.93-0.82c-2.04,0-3.37,1.02-3.37,2.67l0,0c0,1.58,1.27,2.29,2.73,2.67
			c0.13,0.05,0.25,0.05,0.38,0.13c0.89,0.25,1.27,0.44,1.27,0.89v0.05c-0.05,0.31-0.31,0.51-0.95,0.51c-0.89,0-1.58-0.31-2.55-0.89
			l0,0h-0.05c-0.05,0-0.05,0-0.05,0.05l-1.02,1.53v0.05c0,0.05,0,0.05,0.05,0.05c1.15,0.82,2.16,1.27,3.49,1.27
			c2.22,0,3.55-1.02,3.55-2.73l0,0C86.73,59.47,85.4,58.76,84,58.38 M59.37,60.98L59.37,60.98c0,1.78-1.33,2.8-3.55,2.8
			c-1.27,0-2.35-0.44-3.49-1.27l-0.05-0.05V62.4l1.02-1.53l0.05-0.05h0.05l0,0c0.95,0.64,1.66,0.89,2.55,0.89
			c0.56,0,0.89-0.18,0.95-0.51v-0.05c0-0.44-0.38-0.64-1.27-0.89c-0.13,0-0.25-0.05-0.38-0.13c-1.46-0.38-2.73-1.02-2.73-2.67l0,0
			c0-1.66,1.33-2.67,3.37-2.67c1.02,0,1.96,0.31,2.93,0.82c0.05,0,0.05,0.05,0.05,0.13v0.05l-0.89,1.58c0,0.05-0.05,0.05-0.13,0.05
			h-0.07l0,0c-0.82-0.44-1.4-0.56-1.96-0.64c-0.51,0-0.89,0.18-0.89,0.51l0,0c0,0.38,0.51,0.56,1.33,0.82
			c0.13,0,0.18,0.05,0.31,0.05C58.02,58.76,59.37,59.4,59.37,60.98 M44.81,63.65H42.6c-0.05,0-0.13-0.05-0.13-0.13v-8.26
			c0-0.05,0.05-0.13,0.13-0.13h2.16c0.05,0,0.13,0.05,0.13,0.13v1.02c0.56-0.76,1.4-1.27,2.29-1.27c0.13,0,0.25,0,0.31,0
			s0.13,0.05,0.13,0.13v2.22c0,0.05,0,0.05-0.05,0.05c0,0-0.05,0.05-0.05,0c-0.05,0-0.18,0-0.38,0c-0.69,0-1.58,0.38-1.96,1.53
			c-0.13,0.31-0.18,0.76-0.18,1.2v3.31C44.94,63.6,44.89,63.65,44.81,63.65 M38.67,63.53v-3.31c0-0.51,0.05-0.89,0.18-1.2
			c0.38-1.07,1.2-1.53,1.96-1.53c0.18,0,0.31,0,0.38,0c0.05,0,0.05,0,0.05,0l0.05-0.05v-2.22c0-0.05-0.05-0.13-0.13-0.13
			c-0.05,0-0.18,0-0.31,0c-0.89,0-1.71,0.44-2.29,1.27v-1.02c0-0.05-0.05-0.13-0.13-0.13h-2.16c-0.05,0-0.13,0.05-0.13,0.13v8.26
			c0,0.05,0.05,0.13,0.13,0.13h2.22C38.59,63.65,38.67,63.6,38.67,63.53 M24.49,63.65h-2.27c-0.05,0-0.13-0.05-0.13-0.13
			c0-2.6-0.18-5.53-0.25-6.48c-0.82,1.07-1.58,2.55-2.22,3.93c0,0.05-0.05,0.05-0.13,0.05h-1.27c-0.05,0-0.05,0-0.13-0.05
			c-0.64-1.4-1.4-2.86-2.22-3.93c0,0.95-0.18,3.88-0.18,6.48c0,0.05-0.05,0.13-0.13,0.13h-2.24c-0.05,0-0.13-0.05-0.13-0.13
			c0-3.49,0.25-8.13,0.82-10.53c0-0.05,0.05-0.05,0.13-0.05h1.78c0.05,0,0.05,0,0.05,0.05c1.15,1.33,2.16,2.8,2.86,4.18
			c0.76-1.46,1.71-2.93,2.86-4.18l0.05-0.05h1.78c0.05,0,0.13,0.05,0.13,0.05c0.56,2.35,0.82,6.99,0.82,10.53
			C24.57,63.6,24.57,63.65,24.49,63.65 M78.6,63.53v-5.28c0-2.16-1.02-3.31-2.98-3.31c-1.33,0-2.16,0.64-2.6,1.15v-0.82
			c0-0.05-0.05-0.13-0.13-0.13h-2.16c-0.05,0-0.13,0.05-0.13,0.13v8.26c0,0.05,0.05,0.13,0.13,0.13h2.22c0.05,0,0.13-0.05,0.13-0.13
			v-3.8c0-0.38,0.05-0.69,0.13-1.02c0.25-0.89,1.02-1.46,1.91-1.46c0.76,0,1.02,0.38,1.02,1.4v4.82c0,0.05,0.05,0.13,0.13,0.13h2.22
			C78.55,63.65,78.6,63.6,78.6,63.53 M64.88,57.18c-1.2,0-2.16,0.95-2.16,2.22s0.89,2.22,2.16,2.22c1.2,0,2.09-0.95,2.09-2.22
			C67.05,58.12,66.08,57.18,64.88,57.18 M64.88,63.85c-2.67,0-4.64-1.91-4.64-4.44c0-2.55,1.96-4.44,4.64-4.44s4.64,1.91,4.64,4.44
			C69.52,61.94,67.56,63.85,64.88,63.85 M51.24,63.53v-8.26c0-0.05-0.05-0.13-0.13-0.13h-2.22c-0.05,0-0.13,0.05-0.13,0.13v8.26
			c0,0.05,0.05,0.13,0.13,0.13h2.22C51.16,63.65,51.24,63.6,51.24,63.53 M30.33,57.18c-1.2,0-2.16,0.95-2.16,2.22
			s0.89,2.22,2.16,2.22c1.2,0,2.09-0.95,2.09-2.22C32.5,58.12,31.55,57.18,30.33,57.18 M30.33,63.85c-2.67,0-4.64-1.91-4.64-4.44
			c0-2.55,1.96-4.44,4.64-4.44s4.64,1.91,4.64,4.44C34.97,61.94,33.01,63.85,30.33,63.85"/>
		<path style="fill:#FFC20E;" d="M57.13,51.65c-2.04,0.76-3.8-0.64-3.8-0.64s0.51-2.16,2.55-2.93c2.04-0.76,3.8,0.64,3.8,0.64
			S59.17,50.9,57.13,51.65 M62.54,41.37c0,0-1.96-1.02-3.88,0.05c-1.91,1.07-1.96,3.31-1.96,3.31s1.96,1.02,3.88-0.05
			C62.41,43.59,62.54,41.37,62.54,41.37 M53.97,46.39c-0.96,1.96-3.11,2.27-3.11,2.27s-1.2-1.91-0.25-3.88
			c0.95-1.96,3.11-2.29,3.11-2.29S54.86,44.35,53.97,46.39 M40.3,48.74c0,0,0.51,2.16,2.55,2.93c2.04,0.76,3.8-0.64,3.8-0.64
			s-0.51-2.16-2.55-2.93C42.09,47.33,40.3,48.74,40.3,48.74 M41.27,41.42c1.91,1.07,1.96,3.31,1.96,3.31s-1.96,1.02-3.88-0.05
			c-1.91-1.09-1.96-3.31-1.96-3.31S39.43,40.35,41.27,41.42 M43.8,37.8c0,0-0.51,2.16,1.07,3.75c1.53,1.53,3.75,1.07,3.75,1.07
			s0.51-2.16-1.07-3.75C46.03,37.36,43.8,37.8,43.8,37.8 M51.8,34.51c0,2.16-1.91,3.37-1.91,3.37s-1.91-1.2-1.91-3.37
			c0-2.16,1.91-3.37,1.91-3.37S51.8,32.34,51.8,34.51 M55.55,39.4c0,0.89-0.69,1.58-1.58,1.58c-0.89,0-1.58-0.69-1.58-1.58
			s0.69-1.58,1.58-1.58C54.86,37.8,55.55,38.51,55.55,39.4 M48.44,45.88c0,0.89-0.69,1.58-1.58,1.58c-0.89,0-1.58-0.69-1.58-1.58
			s0.69-1.58,1.58-1.58C47.74,44.3,48.44,45.04,48.44,45.88"/>
	</g>
</g>
</svg>
