<?xml version="1.0" encoding="utf-8"?>
<svg version="1.1" id="Layer_1" xmlns="http://www.w3.org/2000/svg" xmlns:xlink="http://www.w3.org/1999/xlink" x="0px" y="0px"
	width="100px" height="100px" viewBox="0 0 100 100" style="enable-background:new 0 0 100 100;" xml:space="preserve">
<g>
	<circle style="fill:#E8E8E8;" cx="50" cy="50" r="50"/>
	<circle style="fill:#FFFFFF;" cx="50" cy="50" r="49.1"/>
	<g>
		<g>
			<path style="fill:#9D8649;" d="M25.5,76.2v2.6h3.8v-2.6h1.4v7h-1.4v-2.9h-3.8v2.9h-1.4v-6.9L25.5,76.2L25.5,76.2z"/>
			<path style="fill:#9D8649;" d="M33.1,79.7c0-1.9,1.5-3.7,4.3-3.7c2.8,0,4.3,1.7,4.3,3.7s-1.6,3.7-4.3,3.7
				C34.7,83.4,33.1,81.7,33.1,79.7z M40.3,79.7c0-1.2-1.2-2.3-2.9-2.3c-1.7,0-2.9,1.1-2.9,2.3c0,1.2,1.2,2.3,2.9,2.3
				C39.1,82,40.3,80.9,40.3,79.7L40.3,79.7z"/>
			<path style="fill:#9D8649;" d="M49.7,76.2v1.4h-2.6v5.6h-1.4v-5.6h-2.6v-1.4L49.7,76.2L49.7,76.2L49.7,76.2z"/>
			<path style="fill:#9D8649;" d="M58.5,76.2v1.4h-4.8v1.3h2.5v1.4h-2.5v1.5h4.9v1.4h-6.3v-7L58.5,76.2L58.5,76.2z"/>
			<path style="fill:#9D8649;" d="M63.1,76.2v5.5h4v1.4h-5.4v-7L63.1,76.2L63.1,76.2z"/>
			<path style="fill:#9D8649;" d="M69.5,80.9c1.1,0.7,2.3,1.1,3.6,1.1c0.7,0,1.9-0.2,1.9-1c0-0.5-0.6-0.7-1-0.7l-2.1-0.1
				c-1.7,0-2.6-1-2.6-2.1c0-1.1,0.8-2.1,3.3-2.1c1.2,0,2.4,0.3,3.4,0.9l-0.6,1.2c-0.9-0.5-1.9-0.8-2.9-0.8c-0.7,0-1.7,0.2-1.7,0.8
				c0,0.5,0.8,0.7,1.2,0.7l1.8,0.1c1.6,0,2.6,0.7,2.6,2.2c0,1.2-1,2.3-3.3,2.3c-1.9,0-3.3-0.5-4.2-1.2L69.5,80.9z"/>
			<path style="fill:#9D8649;" d="M26.9,56.4c-0.7-0.1-1.4-0.1-2.2-0.1c-2,0-3.7,0.6-4.8,1.7c-0.9,0.9-1.4,2.1-1.4,3.3
				c0,1.3,0.5,2.5,1.4,3.4c1.3,1.2,3,1.8,4.8,1.8c1.3,0,2.6-0.2,3.8-0.6c0,0,0.1,0,0.1-0.1l0.2-2.2c0,0,0-0.1,0-0.1c0,0,0,0-0.1,0
				c0,0,0,0,0,0c-0.9,0.9-2.2,1.4-3.4,1.3c-1.1,0.1-2.2-0.3-3.1-1.1c-0.7-0.7-1.1-1.6-1-2.6c0-1,0.4-2,1.1-2.7c0.8-0.7,1.9-1.1,3-1
				c1.4,0,2.4,0.4,3,1.2c0,0,0,0,0.1,0s0,0,0-0.1v-2.5c0,0,0,0,0-0.1c0,0,0,0-0.1,0c-0.1,0.2-0.3,0.3-0.6,0.3c-0.1,0-0.2,0-0.4,0
				C27.4,56.4,26.9,56.4,26.9,56.4z"/>
			<path style="fill:#9D8649;" d="M38,64.6c0.4,0.6,0.9,1.2,1.5,1.7c0,0,0,0,0,0h3.1c0,0,0.1,0,0.1,0s0-0.1,0-0.1
				c-0.8-0.2-1.5-0.7-1.9-1.4l-1.1-1.4c-0.1-0.1-0.2-0.2-0.3-0.3c-0.3-0.4-0.7-0.8-1-1.1c2.3-0.5,2.5-1.9,2.5-2.9
				c0-0.6-0.2-1.2-0.7-1.6c-0.6-0.6-1.7-1-3.1-1H32c0,0-0.1,0-0.1,0c0,0,0,0.1,0,0.1c0.9,0.3,1,0.4,1,1.3v7c0,0.9-0.1,1-1,1.3
				c0,0,0,0,0,0.1c0,0,0,0.1,0.1,0.1h4.1c0,0,0,0,0.1-0.1c0,0,0-0.1,0-0.1c-0.9-0.3-1-0.4-1-1.3v-2.7h0.6c0.6,0.4,1.2,0.9,1.6,1.5
				L38,64.6z M35,57.9h1.5c0.7,0,1.4,0.2,1.9,0.6c0.2,0.2,0.4,0.5,0.4,0.8c0,0.3-0.1,0.6-0.3,0.8c-0.4,0.4-1,0.5-2,0.5H35L35,57.9
				L35,57.9z"/>
			<path style="fill:#9D8649;" d="M49.5,56.2c-1.5-0.1-2.9,0.4-4,1.4c-1,1-1.6,2.3-1.6,3.7c0,1.4,0.5,2.7,1.5,3.7
				c2.3,2.1,5.8,2.1,8.1,0c1-1,1.5-2.3,1.5-3.7c0-1.3-0.5-2.6-1.4-3.6C52.5,56.7,51.1,56.1,49.5,56.2z M52.8,61.4
				c0,1-0.3,1.9-0.9,2.7c-0.6,0.7-1.5,1.1-2.4,1c-0.8,0-1.6-0.3-2.1-0.9c-0.7-0.8-1.1-1.8-1.1-2.8c0-1,0.3-2,1-2.7
				c0.6-0.6,1.4-0.9,2.3-0.9c0.8,0,1.6,0.3,2.2,0.8C52.5,59.4,52.9,60.4,52.8,61.4L52.8,61.4z"/>
			<path style="fill:#9D8649;" d="M78.3,56.4C78.2,56.4,78.2,56.4,78.3,56.4c-0.1,0.1,0,0.1,0,0.1c0.7,0.2,0.8,0.4,0.8,1.4v3.5
				l-4.4-5h-2.9c0,0-0.1,0-0.1,0s0,0.1,0,0.1c0.8,0.4,1,0.7,1,1.8v6.5c0,0.9-0.1,1.1-0.8,1.3c0,0,0,0,0,0.1c0,0,0,0,0.1,0h3.3
				c0,0,0.1,0,0.1-0.1c0,0,0-0.1,0-0.1c-0.7-0.3-0.8-0.4-0.8-1.3v-5.5l6.2,7.2c0,0,0,0,0.1,0c0,0,0,0,0-0.1V58c0-1,0.1-1.2,0.7-1.4
				c0,0,0.1,0,0-0.1c0,0,0,0-0.1,0L78.3,56.4L78.3,56.4z"/>
			<path style="fill:#9D8649;" d="M67,57c0,0,0-0.1,0-0.1c0-0.1,0-0.2-0.3-0.3c0,0,0,0,0-0.1c0-0.1,0,0,0.1,0h2.6c0,0,0.1,0,0.1,0
				c0,0,0,0.1,0,0.1c-0.3,0.1-0.6,0.3-0.8,0.7l-3.5,9.3c0,0,0,0-0.1,0s0,0-0.1,0l-2.1-4.9c-0.2,0.6-2,4.9-2,4.9s0,0-0.1,0
				c0,0-0.1,0-0.1,0l-3.9-9.3c-0.2-0.4-0.3-0.5-0.8-0.7c0,0,0,0,0,0c0,0,0,0,0,0c0,0,0,0,0,0h3.2c0,0,0,0,0,0c0,0,0,0.1,0,0.1
				c-0.2,0.1-0.3,0.2-0.3,0.3s2,5,2,5l1-2.4l-0.9-2.3c-0.2-0.3-0.5-0.5-0.8-0.6c0,0,0-0.1,0-0.1l0,0c0,0,0,0,0.1,0h2.3
				c0,0,0,0,0.1,0l0.4,1.1l0.4-1.1c0,0,0,0,0.1,0h1.9c0,0,0.1,0,0.1,0c0,0,0,0.1,0,0.1c-0.4,0.1-0.7,0.3-0.9,0.7l-0.6,1.7l1.2,3
				L67,57z"/>
			<path style="fill:#9D8649;" d="M43.4,41.2c0.7,0,1.2-0.5,1.2-1.2c0-0.7-0.5-1.2-1.2-1.2c-0.7,0-1.2,0.5-1.2,1.2c0,0,0,0,0,0
				C42.2,40.6,42.7,41.2,43.4,41.2z"/>
			<path style="fill:#9D8649;" d="M43.8,36.9c0-0.7-0.6-1.3-1.3-1.3c-0.7,0-1.3,0.6-1.3,1.3v0c0,0.7,0.6,1.3,1.3,1.3
				C43.2,38.2,43.8,37.6,43.8,36.9L43.8,36.9z"/>
			<path style="fill:#9D8649;" d="M40.8,42.5c0.6,0,1.2-0.5,1.2-1.2c0-0.6-0.5-1.2-1.2-1.2c-0.6,0-1.2,0.5-1.2,1.2
				C39.6,42,40.1,42.5,40.8,42.5L40.8,42.5z"/>
			<path style="fill:#9D8649;" d="M39.6,39.9c0.7,0,1.2-0.5,1.2-1.2c0-0.7-0.5-1.2-1.2-1.2c-0.7,0-1.2,0.5-1.2,1.2v0
				C38.4,39.4,38.9,39.9,39.6,39.9L39.6,39.9z"/>
			<path style="fill:#9D8649;" d="M39.5,35.5c0-0.7-0.6-1.3-1.3-1.3c-0.7,0-1.2,0.7-1.2,1.3c0,0.6,0.5,1.2,1.2,1.2
				C38.9,36.8,39.4,36.2,39.5,35.5z"/>
			<path style="fill:#9D8649;" d="M37,38c0-0.7-0.6-1.3-1.3-1.3s-1.3,0.6-1.3,1.3s0.6,1.3,1.3,1.3l0,0C36.4,39.2,37,38.7,37,38z"/>
			<path style="fill:#9D8649;" d="M36,33c0.8,0,1.4-0.6,1.4-1.4c0-0.8-0.6-1.4-1.4-1.4s-1.4,0.6-1.4,1.4C34.6,32.4,35.2,33,36,33
				C36,33,36,33,36,33z"/>
			<path style="fill:#9D8649;" d="M33.3,33.3c-0.8,0-1.4,0.6-1.4,1.4s0.6,1.4,1.4,1.4s1.4-0.6,1.4-1.4S34.1,33.3,33.3,33.3
				C33.3,33.3,33.3,33.3,33.3,33.3z"/>
			<path style="fill:#9D8649;" d="M38.1,28.9c0,0.8,0.7,1.5,1.5,1.5s1.5-0.7,1.5-1.5c0-0.8-0.7-1.5-1.5-1.5c0,0,0,0,0,0
				C38.8,27.4,38.1,28.1,38.1,28.9C38.1,28.9,38.1,28.9,38.1,28.9z"/>
			<path style="fill:#9D8649;" d="M29.8,30.3c-0.8,0-1.5,0.7-1.5,1.5l0,0c0,0.8,0.7,1.5,1.5,1.5c0.8,0,1.5-0.7,1.5-1.5
				C31.3,31,30.6,30.3,29.8,30.3z"/>
			<path style="fill:#9D8649;" d="M44,28c0.9,0,1.5-0.7,1.5-1.6c0-0.9-0.7-1.5-1.6-1.5l0,0c-0.9,0-1.5,0.7-1.5,1.6
				C42.4,27.4,43.1,28,44,28z"/>
			<path style="fill:#9D8649;" d="M49.6,23.3c-0.9-0.1-1.8,0.6-1.9,1.5c-0.1,0.9,0.6,1.8,1.5,1.9c0.1,0,0.2,0,0.4,0
				c0.9,0.1,1.8-0.6,1.9-1.5c0.1-0.9-0.6-1.8-1.5-1.9C49.8,23.3,49.7,23.3,49.6,23.3z"/>
			<path style="fill:#9D8649;" d="M49.5,28.8c-0.9,0-1.5,0.7-1.5,1.6c0,0.9,0.7,1.5,1.6,1.5c0.9,0,1.5-0.7,1.5-1.5
				C51.1,29.5,50.4,28.8,49.5,28.8z"/>
			<path style="fill:#9D8649;" d="M49.5,33.1c-0.8,0-1.5,0.7-1.5,1.5c0,0.8,0.7,1.5,1.5,1.5s1.5-0.7,1.5-1.5c0,0,0,0,0,0
				C51,33.8,50.3,33.1,49.5,33.1L49.5,33.1z"/>
			<path style="fill:#9D8649;" d="M44.4,35.5c0,0.7,0.6,1.3,1.3,1.3c0,0,0,0,0,0c0.8,0,1.3-0.6,1.3-1.4c0-0.7-0.6-1.3-1.3-1.3
				c0,0,0,0,0,0C45,34.2,44.4,34.8,44.4,35.5L44.4,35.5z"/>
			<path style="fill:#9D8649;" d="M40,33.3c0,0.7,0.6,1.3,1.4,1.3c0.7,0,1.3-0.6,1.3-1.3c0,0,0,0,0-0.1c0-0.7-0.7-1.3-1.4-1.3
				C40.6,32.1,40,32.6,40,33.3L40,33.3z"/>
			<path style="fill:#9D8649;" d="M43.6,31.6c0,0.8,0.7,1.4,1.5,1.4c0.8,0,1.4-0.7,1.4-1.5c0-0.8-0.7-1.4-1.4-1.4
				C44.2,30.1,43.6,30.8,43.6,31.6C43.6,31.6,43.6,31.6,43.6,31.6z"/>
			<path style="fill:#9D8649;" d="M45,38.9c0,0.7,0.6,1.3,1.3,1.3c0.7-0.1,1.2-0.7,1.2-1.4c0-0.6-0.6-1.1-1.2-1.2
				C45.5,37.6,45,38.2,45,38.9z"/>
			<path style="fill:#9D8649;" d="M45.4,41.9c0,0.7,0.6,1.3,1.3,1.3c0.7,0,1.3-0.6,1.3-1.3c0-0.7-0.6-1.3-1.3-1.3c0,0,0,0,0,0
				C46,40.6,45.4,41.1,45.4,41.9C45.4,41.8,45.4,41.9,45.4,41.9z"/>
			<path style="fill:#9D8649;" d="M49.5,36.8c-0.8,0-1.4,0.6-1.4,1.4c0,0.8,0.6,1.4,1.4,1.4c0.8,0,1.4-0.6,1.4-1.4
				C50.9,37.4,50.3,36.8,49.5,36.8z"/>
			<path style="fill:#9D8649;" d="M49.5,40.1c-0.7,0-1.3,0.6-1.3,1.3s0.6,1.3,1.3,1.3s1.3-0.6,1.3-1.3l0,0
				C50.9,40.7,50.3,40.2,49.5,40.1C49.6,40.1,49.6,40.1,49.5,40.1z"/>
			<path style="fill:#9D8649;" d="M36.9,25.9c0.9,0,1.6-0.8,1.6-1.6c0-0.9-0.7-1.6-1.6-1.6c0,0,0,0,0,0c-0.9,0-1.6,0.8-1.6,1.6
				C35.3,25.2,36,25.9,36.9,25.9z"/>
			<path style="fill:#9D8649;" d="M55.7,38.7c-0.7,0-1.2,0.5-1.2,1.2c0,0.7,0.5,1.2,1.2,1.2c0.7,0,1.2-0.5,1.2-1.2
				C56.9,39.3,56.4,38.8,55.7,38.7C55.7,38.7,55.7,38.7,55.7,38.7z"/>
			<path style="fill:#9D8649;" d="M57.9,37c0-0.7-0.5-1.3-1.3-1.3h0c-0.7,0-1.3,0.6-1.3,1.3c0,0.7,0.5,1.3,1.2,1.3c0,0,0,0,0,0
				C57.3,38.3,57.9,37.7,57.9,37z"/>
			<path style="fill:#9D8649;" d="M58.3,42.5c0.6,0,1.2-0.5,1.2-1.2c0-0.6-0.5-1.2-1.2-1.2c-0.6,0-1.2,0.5-1.2,1.2
				C57.1,42,57.7,42.5,58.3,42.5C58.3,42.5,58.3,42.5,58.3,42.5z"/>
			<path style="fill:#9D8649;" d="M60.7,38.7c-0.1-0.7-0.7-1.1-1.4-1.1c-0.5,0.1-1,0.5-1.1,1.1c0,0.7,0.5,1.2,1.2,1.2
				C60.2,39.9,60.7,39.4,60.7,38.7C60.7,38.7,60.7,38.7,60.7,38.7z"/>
			<path style="fill:#9D8649;" d="M61.7,39.5c-0.7,0-1.3,0.5-1.3,1.2c0,0.4,0.2,0.8,0.5,1c-0.1,0-0.2-0.1-0.4-0.1
				c-0.7,0-1.2,0.5-1.2,1.2c0,0.3,0.1,0.6,0.3,0.8c0,0-0.1,0-0.1,0c-0.6,0-1.1,0.5-1.2,1.1c0,0.2,0,0.3,0.1,0.5
				c-0.3,0.1-0.5,0.4-0.7,0.7c0-0.1,0.1-0.2,0-0.3c0-0.3-0.1-0.6-0.4-0.8c0.5-0.1,0.9-0.6,0.9-1.1c0-0.6-0.5-1.2-1.1-1.2
				c-0.6,0-1.2,0.5-1.2,1.1c0,0.3,0.1,0.6,0.3,0.8c-0.4,0.1-0.8,0.4-0.9,0.8c0-0.1,0-0.2,0-0.3c0-0.4-0.2-0.8-0.6-1
				c0.7,0,1.2-0.6,1.1-1.3c0-0.7-0.6-1.2-1.3-1.1c-0.6,0-1.1,0.6-1.1,1.2c0,0.4,0.2,0.8,0.6,1c-0.5,0-0.9,0.3-1.1,0.8v-0.1
				c0-0.7-0.5-1.2-1.2-1.2l0,0c-0.6,0-1.1,0.4-1.2,1l0,0c-0.1-0.7-0.7-1.1-1.4-1.1c-0.5,0.1-1,0.5-1.1,1.1c0,0,0,0.1,0,0.1
				c-0.2-0.7-0.8-1.1-1.5-0.9c-0.5,0.1-0.9,0.6-0.9,1.1c0,0,0,0.1,0,0.1c-0.2-0.5-0.6-0.8-1.1-0.8c0.3-0.2,0.6-0.6,0.6-1
				c0-0.7-0.6-1.2-1.2-1.2c-0.7,0-1.2,0.5-1.2,1.2c0,0.7,0.5,1.2,1.2,1.2c-0.3,0.2-0.6,0.6-0.6,1c0,0.1,0,0.2,0,0.3
				c-0.1-0.4-0.5-0.8-1-0.8c0.2-0.2,0.3-0.5,0.3-0.8c0-0.6-0.5-1.1-1.2-1.1c-0.6,0-1.1,0.5-1.2,1.1v0c0,0.5,0.4,1,0.9,1.1
				c-0.2,0.2-0.3,0.5-0.3,0.8c0,0.1,0,0.2,0,0.3c-0.1-0.3-0.4-0.5-0.7-0.7c0.1-0.1,0.1-0.3,0.1-0.5c0-0.6-0.5-1.1-1.2-1.1
				c0,0-0.1,0-0.1,0c0.2-0.2,0.3-0.5,0.3-0.8c0-0.7-0.5-1.2-1.2-1.2c0,0,0,0,0,0c-0.1,0-0.3,0-0.4,0.1c0.3-0.2,0.5-0.6,0.5-1
				c0-0.7-0.6-1.3-1.3-1.3c-0.7,0-1.3,0.6-1.3,1.3s0.6,1.3,1.3,1.3h0c0.1,0,0.3,0,0.4-0.1c-0.3,0.2-0.5,0.6-0.5,0.9
				c0,0.7,0.5,1.2,1.2,1.2c0.1,0,0.1,0,0.2,0c-0.2,0.2-0.3,0.5-0.3,0.8c0,0.4,0.3,0.9,0.7,1c-0.1,0.2-0.2,0.4-0.2,0.6
				c0,0.4,0.2,0.8,0.5,1c-0.2,0.5,0,1,0.3,1.3c-0.1,0.1-0.1,0.3-0.1,0.5c0,0.1,0,0.1,0,0.2v0c0.1,0.6,0.7,1,1.3,1
				c0.6,0,1.1-0.6,1.2-1.2c0.4,0.5,1.2,0.6,1.7,0.2c0.3-0.2,0.4-0.6,0.5-0.9c0.2,0.4,0.6,0.6,1.1,0.6c0.5,0,0.9-0.3,1.1-0.8
				c0.4,0.6,1.1,0.7,1.7,0.4c0.2-0.1,0.3-0.3,0.4-0.5c0.2,0.4,0.6,0.6,1,0.6s0.8-0.2,1-0.6c0.2,0.4,0.6,0.7,1.1,0.7
				c0.4,0,0.8-0.2,1-0.5c0.2,0.4,0.6,0.8,1.1,0.8c0.4,0,0.8-0.2,1-0.6c0,0.7,0.6,1.2,1.3,1.2c0.3,0,0.7-0.2,0.9-0.5
				c0,0.7,0.5,1.2,1.2,1.2c0.4,0,0.8-0.2,1.1-0.5c0.2-0.2,0.2-0.5,0.2-0.8c0-0.2-0.1-0.3-0.1-0.5c0.2-0.2,0.4-0.6,0.4-0.9
				c0-0.1,0-0.3-0.1-0.4c0.5-0.3,0.7-1,0.4-1.5c0.4-0.2,0.7-0.6,0.7-1c0-0.3-0.1-0.6-0.3-0.8c0,0,0.1,0,0.2,0c0.7,0,1.2-0.5,1.2-1.2
				c0,0,0,0,0,0c0-0.4-0.2-0.7-0.5-0.9c0.1,0.1,0.3,0.1,0.4,0.1c0.7,0,1.3-0.6,1.3-1.3C62.9,40.1,62.4,39.5,61.7,39.5z"/>
			<path style="fill:#9D8649;" d="M62.2,35.5c0-0.7-0.6-1.3-1.3-1.3c-0.7,0-1.3,0.6-1.3,1.3s0.6,1.3,1.3,1.3
				C61.6,36.8,62.2,36.2,62.2,35.5z"/>
			<path style="fill:#9D8649;" d="M63.4,36.7c-0.7,0-1.3,0.6-1.3,1.3s0.6,1.3,1.3,1.3c0.7,0,1.3-0.6,1.3-1.3S64.1,36.7,63.4,36.7z"
				/>
			<path style="fill:#9D8649;" d="M61.7,31.6c0,0.8,0.6,1.4,1.4,1.4c0.8,0,1.4-0.6,1.4-1.4c0-0.8-0.6-1.4-1.4-1.4c0,0,0,0,0,0
				C62.3,30.2,61.7,30.8,61.7,31.6L61.7,31.6z"/>
			<path style="fill:#9D8649;" d="M65.8,33.3c-0.8,0-1.4,0.6-1.4,1.4s0.6,1.4,1.4,1.4c0.8,0,1.4-0.6,1.4-1.4S66.6,33.3,65.8,33.3
				C65.8,33.3,65.8,33.3,65.8,33.3z"/>
			<path style="fill:#9D8649;" d="M59.5,30.3c0.8,0,1.4-0.7,1.4-1.5c0-0.8-0.7-1.4-1.5-1.4c-0.8,0-1.4,0.7-1.4,1.4
				C58,29.7,58.7,30.3,59.5,30.3z"/>
			<path style="fill:#9D8649;" d="M69.3,30.3c-0.8,0-1.5,0.7-1.5,1.5l0,0c0,0.8,0.8,1.4,1.6,1.4c0.8,0,1.4-0.7,1.4-1.4
				C70.8,31,70.1,30.3,69.3,30.3z"/>
			<path style="fill:#9D8649;" d="M55.1,28c0.9,0,1.6-0.7,1.6-1.5c0-0.9-0.7-1.6-1.5-1.6c-0.9,0-1.6,0.7-1.6,1.5v0
				C53.6,27.3,54.3,28,55.1,28L55.1,28z"/>
			<path style="fill:#9D8649;" d="M53.3,36.9c0.7,0,1.4-0.6,1.4-1.3s-0.6-1.4-1.3-1.4c-0.7,0-1.3,0.6-1.4,1.3
				C52,36.2,52.6,36.8,53.3,36.9L53.3,36.9z"/>
			<path style="fill:#9D8649;" d="M57.7,34.7c0.7,0,1.3-0.6,1.4-1.3c0-0.8-0.6-1.4-1.4-1.4c-0.8,0-1.4,0.6-1.4,1.4
				C56.4,34.1,57,34.7,57.7,34.7C57.7,34.7,57.7,34.7,57.7,34.7z"/>
			<path style="fill:#9D8649;" d="M54,33c0.8,0,1.4-0.6,1.4-1.4c0-0.8-0.6-1.4-1.4-1.4c-0.8,0-1.4,0.6-1.4,1.4
				C52.6,32.2,53.2,32.9,54,33C54,33,54,33,54,33z"/>
			<path style="fill:#9D8649;" d="M52.8,40.1c0.7,0,1.3-0.5,1.3-1.3c0-0.7-0.5-1.3-1.2-1.3c0,0,0,0,0,0c-0.7,0-1.3,0.5-1.3,1.2
				C51.5,39.5,52.1,40.1,52.8,40.1C52.8,40.1,52.8,40.1,52.8,40.1z"/>
			<path style="fill:#9D8649;" d="M52.3,43.1c0.7,0,1.3-0.5,1.3-1.2c0,0,0,0,0,0c0-0.7-0.5-1.3-1.2-1.3c0,0,0,0,0,0
				c-0.7,0-1.3,0.5-1.3,1.2c0,0,0,0,0,0C51.1,42.5,51.7,43.1,52.3,43.1z"/>
			<path style="fill:#9D8649;" d="M62.1,25.9c0.9,0,1.6-0.7,1.6-1.6c0-0.9-0.7-1.6-1.6-1.6l0,0c-0.9,0-1.6,0.7-1.6,1.6v0
				C60.5,25.1,61.2,25.9,62.1,25.9z"/>
			<path style="fill:#9D8649;" d="M49.5,20.3c1,0,1.9-0.8,1.9-1.9s-0.8-1.9-1.9-1.9c-1,0-1.9,0.8-1.9,1.9v0
				C47.7,19.5,48.5,20.3,49.5,20.3z"/>
		</g>
	</g>
</g>
</svg>
