<?xml version="1.0"?>
<svg xmlns="http://www.w3.org/2000/svg" xmlns:xlink="http://www.w3.org/1999/xlink" xmlns:svgjs="http://svgjs.com/svgjs" version="1.1" width="512" height="512" x="0" y="0" viewBox="0 0 512 512" style="enable-background:new 0 0 512 512" xml:space="preserve" class=""><g><path xmlns="http://www.w3.org/2000/svg" d="m512 256c0 141.386719-114.613281 256-256 256s-256-114.613281-256-256 114.613281-256 256-256 256 114.613281 256 256zm0 0" fill="#f1f1f1" data-original="#a8d32a" style="" class=""/><path xmlns="http://www.w3.org/2000/svg" d="m396.1875 153.660156-37.660156-37.660156-41.527344 125-169.371094-6.0625-84.515625 84.515625 192.542969 192.542969c.117188 0 .230469.003906.34375.003906 141.386719 0 256-114.613281 256-256 0-23.847656-3.273438-46.929688-9.371094-68.835938l-69.976562-69.972656zm0 0" fill="#f1f1f1" data-original="#93bf00" style="" class=""/><path xmlns="http://www.w3.org/2000/svg" d="m198.722656 387.304688h-22.609375c-37.398437 0-67.824219-30.421876-67.824219-67.824219 0-13.378907 3.898438-26.328125 11.269532-37.445313l18.835937 12.496094c-4.902343 7.394531-7.496093 16.027344-7.496093 24.949219 0 24.9375 20.277343 45.21875 45.214843 45.21875h22.609375c24.9375 0 45.21875-20.28125 45.21875-45.21875l-.078125-2.738281 22.566407-1.324219c.078124 1.347656.121093 2.703125.121093 4.0625 0 37.402343-30.425781 67.824219-67.828125 67.824219zm0 0" fill="#384949" data-original="#384949" style="" class=""/><path xmlns="http://www.w3.org/2000/svg" d="m342.667969 139.511719v224.28125c-42.730469-17.636719-70.011719-31.878907-121.335938-46.347657l-22.609375-65.792968 22.609375-65.792969c51.550781-14.46875 78.828125-28.9375 121.335938-46.347656zm0 0" fill="#ede9e8" data-original="#ede9e8" style="" class=""/><path xmlns="http://www.w3.org/2000/svg" d="m198.722656 251.652344h143.945313v112.140625c-42.730469-17.636719-70.011719-31.878907-121.335938-46.347657zm0 0" fill="#d2c5c2" data-original="#d2c5c2" style=""/><path xmlns="http://www.w3.org/2000/svg" d="m221.332031 185.859375v131.582031c-47.929687-13.5625-97.441406-20.570312-146.957031-20.570312v-90.4375c49.515625 0 99.027344-7.007813 146.957031-20.574219zm0 0" fill="#ff7816" data-original="#ff7816" style="" class=""/><path xmlns="http://www.w3.org/2000/svg" d="m74.375 251.652344h146.957031v65.792968c-47.929687-13.566406-97.441406-20.574218-146.957031-20.574218zm0 0" fill="#dd3400" data-original="#dd3400" style=""/><path xmlns="http://www.w3.org/2000/svg" d="m440.109375 251.652344c5.425781 5.878906 8.820313 13.792968 8.820313 22.609375 0 14.695312-9.496094 27.132812-22.609376 31.878906v24.644531h-22.609374v-24.644531c-13.113282-4.746094-22.609376-17.183594-22.609376-31.878906h22.609376c0 6.332031 4.972656 11.304687 11.304687 11.304687s11.304687-4.976562 11.304687-11.304687c0-6.332031-4.972656-11.304688-11.304687-11.304688-9.949219 0-18.992187-4.296875-25.09375-11.304687-5.429687-5.878906-8.820313-13.789063-8.820313-22.605469 0-14.699219 9.496094-27.132813 22.609376-31.882813v-24.640624h22.609374v24.640624c13.113282 4.75 22.609376 17.183594 22.609376 31.882813h-22.609376c0-6.332031-4.972656-11.304687-11.304687-11.304687s-11.304687 4.972656-11.304687 11.304687c0 6.328125 4.972656 11.300781 11.304687 11.300781 9.949219 0 18.992187 4.296875 25.09375 11.304688zm0 0" fill="#ff9f00" data-original="#ff9f00" style=""/><path xmlns="http://www.w3.org/2000/svg" d="m335.882812 116h22.609376v271.304688h-22.609376zm0 0" fill="#ff7816" data-original="#ff7816" style="" class=""/><path xmlns="http://www.w3.org/2000/svg" d="m432.566406 117.179688 10.113282 20.222656-45.21875 22.609375-10.109376-20.222657zm0 0" fill="#ffd400" data-original="#ffd400" style=""/><path xmlns="http://www.w3.org/2000/svg" d="m397.457031 354.570312 45.214844 22.609376-10.109375 20.222656-45.21875-22.609375zm0 0" fill="#fdbf00" data-original="#fdbf00" style=""/><path xmlns="http://www.w3.org/2000/svg" d="m63.070312 183.824219h22.609376v135.65625h-22.609376zm0 0" fill="#4a696f" data-original="#4a696f" style=""/><path xmlns="http://www.w3.org/2000/svg" d="m63.070312 251.652344h22.609376v67.828125h-22.609376zm0 0" fill="#384949" data-original="#384949" style="" class=""/><path xmlns="http://www.w3.org/2000/svg" d="m448.929688 274.261719c0 14.695312-9.496094 27.132812-22.609376 31.878906v24.644531h-22.609374v-24.644531c-13.113282-4.746094-22.609376-17.183594-22.609376-31.878906h22.609376c0 6.332031 4.972656 11.304687 11.304687 11.304687s11.304687-4.976562 11.304687-11.304687c0-6.332031-4.972656-11.304688-11.304687-11.304688-9.949219 0-18.992187-4.296875-25.09375-11.304687h50.1875c5.425781 5.878906 8.820313 13.792968 8.820313 22.609375zm0 0" fill="#ff7816" data-original="#ff7816" style="" class=""/><path xmlns="http://www.w3.org/2000/svg" d="m335.882812 251.652344h22.609376v135.652344h-22.609376zm0 0" fill="#dd3400" data-original="#dd3400" style=""/></g></svg>
