<?xml version="1.0" encoding="utf-8"?>
<svg version="1.1" id="Layer_1" xmlns="http://www.w3.org/2000/svg" xmlns:xlink="http://www.w3.org/1999/xlink" x="0px" y="0px"
	width="100px" height="100px" viewBox="0 0 100 100" style="enable-background:new 0 0 100 100;" xml:space="preserve">
<g>
	<path style="fill:#E8E8E8;" d="M50,0c27.61,0,50,22.39,50,50s-22.39,50-50,50S0,77.61,0,50S22.39,0,50,0"/>
	<path style="fill:#FFFFFF;" d="M50,1c27.06,0,49,21.94,49,49S77.06,99,50,99S1,77.06,1,50S22.94,1,50,1"/>
	<g>
		<path style="fill:#134B97;" d="M32.35,46.46v-2.01h-3.66v12.34h3.75v-6.84c0.64-1.43,1.72-2.14,3.25-2.14
			c0.44,0,0.89,0.04,1.32,0.13v-3.54c-0.32-0.12-0.71-0.17-1.17-0.17C34.57,44.22,33.41,44.96,32.35,46.46z"/>
		<path style="fill:#134B97;" d="M48.99,55.16c1.21-1.23,1.81-2.75,1.81-4.56c0-1.79-0.6-3.31-1.81-4.54
			c-1.21-1.23-2.71-1.85-4.5-1.85c-1.79,0-3.29,0.62-4.49,1.86c-1.2,1.24-1.8,2.75-1.81,4.53c0,1.78,0.6,3.29,1.81,4.54
			c1.2,1.24,2.7,1.86,4.49,1.86C46.28,57,47.78,56.39,48.99,55.16z M42.51,52.73c-0.51-0.58-0.77-1.29-0.77-2.13
			c0-0.83,0.26-1.53,0.77-2.11c0.51-0.58,1.17-0.87,1.98-0.87c0.81,0,1.47,0.29,1.99,0.87c0.52,0.58,0.78,1.29,0.78,2.11
			c0,0.83-0.26,1.54-0.78,2.12c-0.52,0.58-1.18,0.87-1.99,0.87C43.69,53.6,43.03,53.31,42.51,52.73z"/>
		<path style="fill:#134B97;" d="M72.63,44.22c-1.74,0-3.21,0.61-4.41,1.82c-1.2,1.21-1.81,2.73-1.81,4.57
			c0,1.88,0.58,3.42,1.73,4.61C69.3,56.41,70.81,57,72.68,57c1.25,0,2.33-0.23,3.22-0.7c0.93-0.5,1.76-1.15,2.45-1.94l-2.71-1.52
			c-0.7,0.64-1.61,0.96-2.73,0.96c-1.61,0-2.56-0.71-2.84-2.14h8.49c0-0.1,0.01-0.2,0.02-0.3c0.01-0.13,0.03-0.24,0.03-0.35
			c0.01-0.11,0.01-0.19,0.01-0.27c0-1.81-0.56-3.35-1.67-4.62C75.82,44.85,74.38,44.22,72.63,44.22z M70.1,49.44
			c0.18-0.68,0.49-1.21,0.93-1.59c0.42-0.37,0.97-0.57,1.53-0.56c0.55,0,1.06,0.22,1.5,0.65c0.45,0.43,0.72,0.93,0.8,1.5L70.1,49.44
			z"/>
		<path style="fill:#134B97;" d="M87.33,44.22c-1.27,0-2.43,0.75-3.49,2.24v-2.01h-3.65v12.34h3.74v-6.84
			c0.64-1.43,1.72-2.14,3.25-2.14c0.44,0,0.89,0.04,1.32,0.13v-3.54C88.18,44.27,87.79,44.22,87.33,44.22z"/>
		<path style="fill:#134B97;" d="M25.09,42.12c0.06-0.42,0.09-0.85,0.1-1.28h0c0-4.83,3.93-8.76,8.76-8.76s8.76,3.93,8.76,8.76h3.53
			c0-6.77-5.51-12.28-12.28-12.28c-6.7,0-12.17,5.4-12.28,12.07h-0.01c0,0.35-0.03,0.69-0.07,1.04c-0.16,1.25-0.63,3.06-1.94,4.55
			c-1.03,1.17-2.43,1.96-4.19,2.37v-8.2H11.5v16.4h3.96v-4.59c1.16-0.2,2.29-0.55,3.36-1.04l3.57,5.64h4.74l-5.23-7.82
			c0.13-0.14,0.26-0.27,0.39-0.42C24.2,46.39,24.86,43.86,25.09,42.12z"/>
		<path style="fill:#134B97;" d="M64.84,60.39V44.45h-3.57v1.05c-0.84-0.85-1.9-1.28-3.18-1.28c-1.58,0-2.95,0.6-4.11,1.79
			s-1.74,2.67-1.74,4.43c0,1.75,0.59,3.21,1.78,4.38c1.19,1.17,2.54,1.75,4.07,1.75c1.24-0.01,2.32-0.35,3.23-1.02
			c0,0.02,0,3.72,0,4.85l0,0c-0.04,4.16-3.44,7.5-7.59,7.46c-4.1-0.04-7.42-3.35-7.46-7.46h-3.53c0,6.1,4.96,11.05,11.05,11.05
			c5.99,0,10.87-4.78,11.05-10.73h0v-0.17C64.84,60.5,64.84,60.45,64.84,60.39L64.84,60.39z M60.54,52.52
			c-0.51,0.56-1.17,0.84-2,0.84c-0.81,0-1.47-0.28-1.99-0.84c-0.51-0.56-0.77-1.26-0.77-2.09c0-0.83,0.26-1.53,0.77-2.09
			c0.51-0.56,1.18-0.84,1.99-0.84c0.82,0,1.48,0.28,1.99,0.84c0.51,0.56,0.77,1.26,0.77,2.09C61.3,51.27,61.04,51.96,60.54,52.52
			L60.54,52.52z"/>
		<path style="fill:#134B97;" d="M67.59,66.14c-0.02,0.75-0.64,1.34-1.38,1.33c-0.73-0.02-1.31-0.6-1.33-1.33
			c0-0.73,0.6-1.32,1.36-1.32S67.59,65.41,67.59,66.14z M65.22,66.14c0,0.59,0.43,1.05,1.03,1.05c0.58,0,1.01-0.47,1.01-1.04
			s-0.43-1.06-1.01-1.06C65.66,65.09,65.22,65.56,65.22,66.14L65.22,66.14z M66.03,66.83h-0.31v-1.32c0.17-0.03,0.34-0.04,0.51-0.04
			c0.25,0,0.36,0.04,0.46,0.1c0.08,0.07,0.13,0.18,0.13,0.29c0,0.14-0.11,0.26-0.27,0.31v0.02c0.13,0.05,0.2,0.14,0.24,0.32
			c0.04,0.2,0.06,0.28,0.1,0.33h-0.33c-0.04-0.05-0.06-0.17-0.1-0.32c-0.02-0.14-0.1-0.21-0.27-0.21h-0.14L66.03,66.83z
			 M66.04,66.09h0.14c0.17,0,0.31-0.06,0.31-0.19c0-0.12-0.09-0.2-0.28-0.2c-0.06,0-0.11,0-0.17,0.02L66.04,66.09z"/>
	</g>
</g>
</svg>
