<?xml version="1.0" encoding="utf-8"?>
<svg version="1.1" id="Layer_1" xmlns="http://www.w3.org/2000/svg" xmlns:xlink="http://www.w3.org/1999/xlink" x="0px" y="0px"
	width="100px" height="100px" viewBox="0 0 100 100" style="enable-background:new 0 0 100 100;" xml:space="preserve">
<g>
	<path style="fill:#E8E8E8;" d="M50,0c27.61,0,50,22.39,50,50s-22.39,50-50,50S0,77.61,0,50S22.39,0,50,0"/>
	<path style="fill:#FFFFFF;" d="M50,1c27.06,0,49,21.94,49,49S77.06,99,50,99S1,77.06,1,50S22.94,1,50,1"/>
	<g>
		<path style="fill:#4A835B;" d="M30.09,45.34h-1.62l-0.39,0.49c-0.07,0.07-0.05,0.14,0.02,0.17l0.53,0.23l1.5-0.7
			c0.05-0.02,0.07-0.06,0.05-0.11C30.18,45.37,30.15,45.34,30.09,45.34L30.09,45.34z"/>
		<path style="fill:#FFFFFF;" d="M26.89,45.59c0.04,0.04,0.07,0.09,0.1,0.15c0.02,0.05,0.03,0.11,0.03,0.17
			c0,0.06-0.01,0.12-0.03,0.17s-0.05,0.1-0.1,0.15c-0.04,0.04-0.09,0.07-0.15,0.1c-0.05,0.02-0.11,0.03-0.17,0.03
			c-0.06,0-0.12-0.01-0.17-0.03c-0.05-0.02-0.1-0.06-0.15-0.1c-0.04-0.04-0.07-0.09-0.1-0.15c-0.02-0.05-0.03-0.11-0.03-0.17
			c0-0.06,0.01-0.12,0.03-0.17c0.02-0.06,0.05-0.1,0.1-0.15c0.04-0.04,0.09-0.07,0.15-0.1c0.06-0.02,0.11-0.03,0.17-0.03
			c0.06,0,0.12,0.01,0.17,0.03C26.8,45.51,26.85,45.55,26.89,45.59z"/>
		<path style="fill:#00985F;" d="M26.89,46.22c-0.04,0.04-0.09,0.07-0.15,0.1c-0.06,0.02-0.11,0.03-0.17,0.03
			c-0.06,0-0.12-0.01-0.17-0.03c-0.05-0.02-0.1-0.06-0.15-0.1c-0.04-0.04-0.07-0.09-0.1-0.15c-0.02-0.05-0.03-0.11-0.03-0.17
			c0-0.06,0.01-0.12,0.03-0.17c0.02-0.05,0.05-0.1,0.1-0.15c0.04-0.04,0.09-0.07,0.15-0.1c0.05-0.02,0.11-0.03,0.17-0.03
			c0.06,0,0.12,0.01,0.17,0.03c0.05,0.02,0.1,0.05,0.15,0.1c-0.05-0.05-0.11-0.09-0.17-0.13c-0.06-0.04-0.13-0.06-0.19-0.08
			c-0.07-0.02-0.14-0.03-0.21-0.03c-0.07,0-0.14,0.01-0.21,0.03c-0.07,0.02-0.13,0.05-0.19,0.08c-0.06,0.04-0.12,0.08-0.17,0.13
			c-0.05,0.05-0.09,0.11-0.13,0.17c-0.04,0.06-0.06,0.13-0.08,0.19c-0.02,0.07-0.03,0.14-0.03,0.21c0,0.07,0.01,0.14,0.03,0.21
			c0.02,0.07,0.05,0.13,0.08,0.19c0.04,0.06,0.08,0.12,0.13,0.17c0.05,0.05,0.11,0.09,0.17,0.13c0.06,0.04,0.13,0.06,0.19,0.08
			c0.07,0.02,0.14,0.03,0.21,0.03c0.07,0,0.14-0.01,0.21-0.03c0.07-0.02,0.13-0.05,0.19-0.08c0.06-0.04,0.12-0.08,0.17-0.13
			c0.05-0.05,0.09-0.11,0.13-0.17c0.04-0.06,0.06-0.13,0.08-0.19c0.02-0.07,0.03-0.14,0.03-0.21c0-0.07-0.01-0.14-0.03-0.21
			c-0.02-0.07-0.04-0.13-0.08-0.19c-0.03-0.06-0.08-0.12-0.13-0.17c0.04,0.04,0.07,0.09,0.1,0.15c0.02,0.05,0.03,0.11,0.03,0.17
			c0,0.06-0.01,0.12-0.04,0.17C26.97,46.13,26.94,46.18,26.89,46.22L26.89,46.22z M30.11,45.34h-1.62l-0.39,0.49
			c-0.07,0.07-0.05,0.14,0.02,0.16l0.53,0.23l1.51-0.7c0.05-0.02,0.07-0.06,0.06-0.11C30.19,45.37,30.16,45.34,30.11,45.34z
			 M23.07,55.31l1.32,3.67h0.97l-1.39-3.87C23.67,55.19,23.37,55.26,23.07,55.31L23.07,55.31z M24.37,50.33
			c0.11-0.17,0.21-0.35,0.31-0.52c-0.05-0.02-0.09-0.05-0.13-0.01c-0.35,0.4-0.73,0.75-1.16,1.06c-0.42,0.31-0.88,0.57-1.36,0.78
			c-0.48,0.21-0.98,0.36-1.5,0.46c-0.52,0.1-1.04,0.14-1.56,0.12h-2.34c-0.07,0-0.13-0.06-0.08-0.13c1.55-2.11,3.31-4.02,5.3-5.72
			l-3.92,3.3c-0.16,0.14-0.35,0.25-0.55,0.33c-0.2,0.08-0.41,0.11-0.63,0.11h-4.94c-0.14,0-0.09,0.1-0.07,0.17
			c0.05,0.15,0.11,0.3,0.18,0.44c0.07,0.14,0.15,0.28,0.25,0.4c0.09,0.13,0.2,0.25,0.31,0.36c0.11,0.11,0.24,0.21,0.37,0.3
			c0.13,0.09,0.27,0.17,0.41,0.24c0.14,0.07,0.29,0.12,0.44,0.17c0.15,0.04,0.31,0.07,0.47,0.09c0.16,0.02,0.32,0.02,0.47,0.01
			l-1.15,1.21c-0.05,0.05-0.05,0.19,0.07,0.19h4.4c0.32,0.01,0.63,0.01,0.95-0.02c0.32-0.03,0.63-0.07,0.94-0.14
			c0.31-0.07,0.61-0.16,0.91-0.27c0.3-0.11,0.59-0.24,0.87-0.38c0.28-0.15,0.55-0.31,0.81-0.49c0.26-0.18,0.5-0.38,0.74-0.6
			c0.23-0.21,0.45-0.44,0.65-0.69C24.01,50.85,24.2,50.6,24.37,50.33L24.37,50.33z M24.09,53.29h-1.99
			c-0.45,0.25-0.91,0.47-1.39,0.65c-0.05,0.02-0.07,0.03-0.05,0.1l1.78,4.94h0.97l-1.63-4.5h0.04c1.06,0,3.6-0.27,4.97-2.48
			c-0.16,0.21-0.34,0.4-0.54,0.56c-0.2,0.17-0.42,0.3-0.66,0.42c-0.24,0.11-0.48,0.19-0.74,0.25C24.6,53.27,24.35,53.29,24.09,53.29
			z"/>
		<path style="fill:#FFFFFF;" d="M26.87,45.62c0.04,0.04,0.06,0.08,0.08,0.12c0.02,0.05,0.03,0.09,0.03,0.14
			c0,0.05-0.01,0.1-0.03,0.15c-0.02,0.05-0.05,0.09-0.08,0.12c-0.04,0.04-0.08,0.06-0.12,0.08c-0.05,0.02-0.09,0.03-0.15,0.03
			c-0.05,0-0.1-0.01-0.14-0.03c-0.05-0.02-0.09-0.05-0.12-0.08c-0.04-0.04-0.06-0.08-0.08-0.12c-0.02-0.05-0.03-0.09-0.03-0.15
			c0-0.05,0.01-0.1,0.03-0.14c0.02-0.05,0.05-0.09,0.08-0.12c0.04-0.04,0.08-0.06,0.12-0.08c0.05-0.02,0.09-0.03,0.14-0.03
			c0.05,0,0.1,0.01,0.15,0.03C26.8,45.55,26.84,45.58,26.87,45.62z"/>
		<path style="fill:#E0001A;" d="M17.3,48.89l2.54-2.11c0.42-1.13,0.85-2.25,1.3-3.22c0.23,0.52,0.44,1.04,0.66,1.59
			c0.98-0.81,1.63-1.25,1.66-1.27l0.01-0.01c0.4-0.27,0.84-0.47,1.3-0.61C24.2,42,23.8,41.1,23.6,40.71h-4.93
			c-0.41,0.93-1.94,4.11-3.74,8.34h1.81C16.95,49.07,17.13,49.02,17.3,48.89z M11.5,58.98h4.4l1.42-4.37h-4.3
			C12.54,55.93,12.03,57.39,11.5,58.98z M27.62,52.48c-0.33,0.52-0.73,0.99-1.2,1.38c-0.47,0.4-1,0.71-1.57,0.94l1.5,4.17h4.35
			c-0.87-2.52-1.8-4.99-2.68-7.23C27.89,51.99,27.76,52.26,27.62,52.48L27.62,52.48z M25.75,46.73c-0.08-0.08-0.13-0.16-0.18-0.26
			c-0.04-0.1-0.06-0.2-0.06-0.31c0-0.11,0.02-0.21,0.06-0.31c0.04-0.1,0.1-0.19,0.17-0.26c0.08-0.08,0.16-0.13,0.26-0.18
			c0.1-0.04,0.2-0.06,0.31-0.06c0.11,0,0.21,0.02,0.31,0.06c0.1,0.04,0.19,0.1,0.26,0.18c0.08,0.08,0.13,0.16,0.18,0.26
			c0.04,0.1,0.06,0.2,0.06,0.31c0,0.11-0.02,0.21-0.06,0.31c-0.04,0.1-0.1,0.19-0.18,0.26c-0.08,0.07-0.16,0.13-0.26,0.17
			c-0.1,0.04-0.2,0.06-0.31,0.06c-0.11,0-0.21-0.02-0.31-0.06C25.91,46.86,25.83,46.81,25.75,46.73L25.75,46.73z M26.79,51.99
			c0.95-1.81,1.57-3.73,1.85-5.75l-0.53-0.24c-0.07-0.02-0.09-0.09-0.02-0.16l0.39-0.49c-0.13-0.2-0.29-0.38-0.46-0.54
			c-0.18-0.16-0.37-0.3-0.59-0.41c-0.21-0.11-0.44-0.19-0.67-0.25c-0.23-0.05-0.47-0.08-0.71-0.07c-0.74-0.01-1.43,0.19-2.05,0.6
			c-0.75,0.53-1.47,1.1-2.16,1.7c-1.98,1.7-3.75,3.6-5.3,5.71c-0.05,0.07,0.01,0.13,0.08,0.13h2.35c0.53,0.02,1.05-0.02,1.57-0.12
			c0.52-0.1,1.02-0.25,1.5-0.46c0.48-0.21,0.94-0.47,1.36-0.78c0.42-0.31,0.81-0.67,1.16-1.06c0.02-0.02,0.04-0.03,0.06-0.03
			c0.03,0,0.05,0,0.07,0.02c0.02,0.02,0.04,0.04,0.04,0.07c0.01,0.03,0,0.05-0.01,0.08c-0.26,0.68-0.61,1.3-1.06,1.87
			c-0.45,0.57-0.97,1.07-1.56,1.48h1.99c0.26,0.01,0.52-0.01,0.77-0.07c0.26-0.05,0.5-0.14,0.74-0.25c0.24-0.11,0.45-0.25,0.66-0.42
			C26.46,52.39,26.64,52.2,26.79,51.99z"/>
		<path style="fill:#E0001A;" d="M36.17,56.41c-0.11,0.01-0.22,0.02-0.33,0c-0.11-0.01-0.22-0.03-0.33-0.07
			c-0.11-0.04-0.21-0.08-0.3-0.14c-0.1-0.06-0.18-0.13-0.27-0.2c-0.08-0.08-0.15-0.16-0.21-0.26c-0.06-0.09-0.11-0.19-0.15-0.3
			c-0.04-0.1-0.07-0.21-0.08-0.32c-0.02-0.11-0.02-0.22-0.01-0.33v-6.81H30.9v7.29c0,2.68,1.2,4,3.72,4"/>
		<path style="fill:#E0001A;" d="M72.35,55.63c-0.22,0.25-0.49,0.44-0.8,0.57c-0.3,0.13-0.62,0.2-0.96,0.2
			c-0.97,0-1.51-0.91-1.51-2.65c0-2.14,0.59-3.21,1.75-3.21c0.51-0.01,1.02,0.04,1.52,0.16L72.35,55.63z M65.39,53.89
			c0,3.76,1.39,5.39,4.09,5.39c0.32,0.03,0.65,0.01,0.97-0.04c0.32-0.05,0.63-0.15,0.93-0.28c0.3-0.13,0.58-0.3,0.83-0.5
			c0.26-0.2,0.49-0.43,0.69-0.68l0.19,1.2h2.97V48.36c-1.65-0.52-3.34-0.75-5.07-0.7C67.38,47.66,65.39,49.87,65.39,53.89
			L65.39,53.89z M84.75,47.66c-0.35-0.03-0.7-0.02-1.04,0.03c-0.35,0.05-0.68,0.14-1.01,0.26c-0.33,0.13-0.64,0.28-0.93,0.48
			c-0.29,0.19-0.56,0.42-0.8,0.67l-0.25-1.25h-2.95v11.12h3.71v-7.67c0.22-0.24,0.47-0.42,0.77-0.55c0.29-0.13,0.6-0.2,0.92-0.21
			c0.11-0.01,0.22-0.01,0.33,0c0.11,0.01,0.22,0.04,0.32,0.07c0.1,0.04,0.2,0.08,0.3,0.14c0.09,0.06,0.18,0.13,0.26,0.21
			c0.08,0.08,0.15,0.16,0.2,0.26c0.06,0.09,0.11,0.19,0.14,0.3c0.04,0.1,0.06,0.21,0.07,0.32c0.01,0.11,0.01,0.22,0,0.33v6.81h3.71
			v-7.3C88.5,48.99,87.26,47.66,84.75,47.66L84.75,47.66z M60.36,47.66c-0.58-0.03-1.15,0.03-1.7,0.19
			c-0.56,0.16-1.07,0.42-1.54,0.76v-4.86h-3.71v15.22h3.71v-7.67c0.22-0.24,0.47-0.42,0.77-0.55c0.29-0.13,0.6-0.2,0.92-0.21
			c0.11-0.01,0.22-0.01,0.33,0c0.11,0.01,0.22,0.04,0.32,0.07c0.1,0.04,0.2,0.08,0.3,0.14c0.09,0.06,0.18,0.13,0.26,0.21
			c0.08,0.08,0.15,0.16,0.21,0.26c0.06,0.09,0.11,0.19,0.14,0.3c0.04,0.1,0.06,0.21,0.07,0.32c0.01,0.11,0.01,0.22,0,0.33v6.81h3.71
			v-7.3C64.14,48.99,62.89,47.66,60.36,47.66z M49.28,56.19c-1.79,0-2.72-1.11-2.72-2.81c0-1.62,0.93-2.62,2.69-2.62
			c0.42-0.01,0.84,0.05,1.25,0.17c0.41,0.12,0.79,0.3,1.14,0.53l0.51-3.04c-1.21-0.53-2.47-0.78-3.79-0.74
			c-3.6,0-5.58,2.07-5.58,5.85c0,3.81,1.86,5.76,5.48,5.76c0.72,0.01,1.42-0.07,2.12-0.24c0.7-0.17,1.36-0.42,1.99-0.76l-0.51-2.83
			C51.08,55.91,50.21,56.16,49.28,56.19L49.28,56.19z M37.92,55.63c-0.23,0.24-0.5,0.42-0.8,0.55c-0.3,0.13-0.62,0.2-0.95,0.21
			c-0.11,0.01-0.22,0.02-0.33,0c-0.11-0.01-0.22-0.03-0.33-0.07c-0.11-0.04-0.21-0.08-0.3-0.14c-0.1-0.06-0.18-0.13-0.27-0.2
			c-0.08-0.08-0.15-0.16-0.21-0.26c-0.06-0.09-0.11-0.19-0.15-0.3c-0.04-0.11-0.07-0.21-0.08-0.32c-0.01-0.11-0.02-0.22-0.01-0.33
			v-6.91H30.9v7.4c0,2.69,1.19,4.02,3.72,4.02c0.35,0.03,0.7,0.01,1.04-0.04c0.35-0.05,0.68-0.14,1.01-0.27
			c0.33-0.13,0.63-0.29,0.92-0.49c0.29-0.2,0.55-0.43,0.78-0.69l0.22,1.2h2.9V47.86h-3.58V55.63z"/>
	</g>
</g>
</svg>
