<?xml version="1.0" encoding="utf-8"?>
<svg version="1.1" id="Layer_1" xmlns="http://www.w3.org/2000/svg" xmlns:xlink="http://www.w3.org/1999/xlink" x="0px" y="0px"
	 viewBox="0 0 2500 1691" style="enable-background:new 0 0 2500 1691;" xml:space="preserve">
<g>
	<g>
		<path d="M2309.4,1690.5c-116.9,0-186.3-59.8-191.6-146h111.8c0,28.7,15.9,67,85.1,69.3c47.9,0,74.5-28.7,74.5-50.3
			c-5.3-33.5-47.9-35.9-90.4-43.2c-47.9-7-85.1-16.7-111.8-28.5c-37.1-19.2-58.6-60-58.6-103c0-76.7,64-136.5,175.6-136.5
			c106.5,0,175.6,55.1,180.8,138.9h-106.3c0-21.4-5.3-57.5-69.2-57.5c-42.6,0-69.2,7.1-74.5,38.2c0,43.2,90.4,40.8,159.5,57.5
			c63.9,16.8,106.5,57.5,106.5,115.1C2501,1649.9,2415.9,1690.5,2309.4,1690.5 M272.3,983.4l367-213.2l196.9,337.8H341.5"/>
	</g>
	<g>
		<path d="M1044.1,1677.8v-426.3"/>
		<rect x="993.1" y="1251.5" width="102" height="426.3"/>
	</g>
	<g>
		<path d="M102,1471c0,67,58.5,122,122.2,122c69.3,0,122.4-55.1,122.4-122c0-64.6-53.1-122-122.4-122
			C160.5,1348.9,102,1406.4,102,1471 M218.9,1691.2C102,1691.2,1,1593,1,1471S102,1253,218.9,1253c47.9,0,90.6,12.1,127.7,38.2
			v-33.5h106.5v423.7H346.6v-26.3C314.8,1679.2,266.8,1691.2,218.9,1691.2 M1639.5,1108l-510.6-890.7l367-215.5L2134.2,1108
			 M591.4,1471c-0.3,67.1,53.9,121.7,121,122c0.5,0,1,0,1.4,0c63.7,0,122.4-55.1,122.4-122c0-64.6-58.7-122-122.4-122
			C644.6,1348.9,591.4,1406.4,591.4,1471 M708.5,1691.2c-122.4,0-218.1-98.3-218.1-220.3S586.1,1253,708.5,1253
			c47.8,0,90.4,12.1,127.7,38.2v-179.5h106.3v569.7H836.2v-26.3C798.9,1679.2,756.2,1691.2,708.5,1691.2 M703.3,602.8l372.3-210.6
			l409.7,715.8h-388.4v105.4H990.5v-105.4 M2432,1216.6c-26.7,0-53.2-24-53.2-52.7s26.5-52.7,53.2-52.7c31.8,0,53.3,24,53.3,52.7
			C2485.3,1192.7,2463.8,1216.6,2432,1216.6 M2432,1118.6c-26.7,0-42.6,21.4-42.6,45.4s15.9,45.6,42.6,45.6
			c26.5,0,42.5-21.6,42.5-45.6C2474.5,1140,2458.5,1118.6,2432,1118.6"/>
	</g>
	<g>
		<path d="M2443,1192.8l-10.6-24h-10.6v24h-8.1v-57.5h24c5.3,0,15.9,7.3,15.9,16.8c0,9.5-5.3,14.3-10.6,16.7l10.6,24 M2432.4,1142.7
			h-10.6v19h10.6c10.6,0,10.6-2.4,10.6-9.5C2443,1147.3,2443,1142.7,2432.4,1142.7 M1729.4,1471c-0.3,67.1,53.9,121.7,121,122
			c0.5,0,1,0,1.4,0c63.9,0,122.2-55.1,122.2-122c0-64.6-58.4-122-122.2-122C1782.7,1348.9,1729.4,1406.4,1729.4,1471 M1846.3,1691.2
			c-122.2,0-217.9-98.3-217.9-220.3s95.7-217.9,217.9-217.9c47.9,0,90.6,12.1,127.7,38.2v-33.5h101.2v423.7h-101.2v-26.3
			C1936.9,1679.2,1894.3,1691.2,1846.3,1691.2 M1240.4,1471c0,67,58.5,122,122.4,122c69.2,0,122.4-55.1,122.4-122
			c0-64.6-53.2-122-122.4-122C1298.9,1348.9,1240.4,1406.4,1240.4,1471 M1485.2,1111.8h106.3v569.7h-106.3v-26.3
			c-32,24-74.6,36-122.4,36c-122.4,0-223.4-98.3-223.4-220.3s101-217.9,223.4-217.9c47.8,0,90.4,12.1,122.4,38.2V1111.8z"/>
	</g>
</g>
</svg>
