<?xml version="1.0" encoding="utf-8"?>
<svg version="1.1" id="Layer_1" xmlns="http://www.w3.org/2000/svg" xmlns:xlink="http://www.w3.org/1999/xlink" x="0px" y="0px"
	 viewBox="0 0 651.18 219.74" style="enable-background:new 0 0 651.18 219.74;" xml:space="preserve">
<g id="g3348">
	<path id="path3354" style="fill:#DB1F26;" d="M589.64,95.69l-0.59,7.09c-4.14,50.8-20.67,66.45-41.05,66.45
		c-18.32,0-31.31-12.4-28.65-45.48l0.59-7.39c4.14-50.5,20.67-66.45,41.05-66.45C579,49.91,592.3,62.62,589.64,95.69 M131.84,95.69
		l-0.59,7.09c-4.13,50.8-20.67,66.45-41.05,66.45c-18.31,0-31.31-12.4-28.65-45.48l0.59-7.39c4.14-50.5,20.68-66.45,41.06-66.45
		C121.21,49.91,134.5,62.62,131.84,95.69 M566.89,0c-32.45,0-58.84,10-77.49,30.71c2.66-7.19,4.06-15.95,4.24-26.28H379.94
		c-24.81,0-38.99,10.93-48.73,38.99l5.02-38.99H221.33c-21.03,0-35.48,10.06-40.69,29.75C166.4,11.37,141.1,0,109.1,0
		C48.26,0,8.68,35.15,1.59,110.16l-0.89,9.45c-6.2,67.05,28.95,100.12,83.58,100.12c60.84,0,100.42-35.44,107.51-110.46l0.89-9.45
		c1.6-17.2,0.43-32.15-3.09-44.89h51.52l-14.76,126.41c-2.96,25.1,10.63,36.62,33.37,36.62c13.88,0,18.61-0.89,23.92-1.77
		l18.31-161.26h59.96l-14.77,126.41c-2.95,25.1,10.63,36.62,33.38,36.62c13.88,0,18.61-0.89,23.92-1.77l18.31-161.26h29.54
		c10.22,0,18.47-2.37,24.84-7.07c-9.3,16.39-15.37,37.08-17.75,62.3l-0.89,9.45c-6.2,67.05,28.94,100.12,83.58,100.12
		c60.85,0,100.42-35.44,107.51-110.46l0.89-9.45C656.68,33.08,621.54,0,566.89,0"/>
</g>
</svg>
