<?xml version="1.0" encoding="utf-8"?>
<svg version="1.1" id="Layer_1" xmlns="http://www.w3.org/2000/svg" xmlns:xlink="http://www.w3.org/1999/xlink" x="0px" y="0px"
	width="100px" height="100px" viewBox="0 0 99.9 99.9" style="enable-background:new 0 0 99.9 99.9;" xml:space="preserve">
<g>
	<circle style="fill:#14A800;" cx="49.9" cy="49.9" r="49.9"/>
	<g>
		<path style="fill:#FFFFFF;" d="M67.1,30.3L67.1,30.3c-8.1,0-12.7,5.2-13.9,10.6c-1.5-2.8-2.5-6.4-3.4-10H38.6v14.2
			c0,5.1-2.5,8.8-7,8.8s-7.3-3.7-7.3-8.8V30.9h-6.3v14.2c0,4.2,1.3,7.8,3.9,10.3c2.5,2.7,5.8,4.2,9.9,4.2c7.8,0,13.3-6.1,13.3-14.5
			v-9.4c0.7,3,2.8,9,6.4,14.1l-3.4,19.8h6.6l2.2-13.9c0.7,0.6,1.5,1.2,2.5,1.6c2.2,1.3,4.6,1.9,7.3,2.2h0.6
			c8.1,0,14.5-6.1,14.5-14.8C81.9,36.3,75,30.3,67.1,30.3z M67.1,53.7c-4.9,0-8.2-3.7-9.3-5.2c1-9.4,4.6-12.4,9.3-12.4
			s7.9,3.6,7.9,8.8C75.3,50.1,71.7,53.7,67.1,53.7z"/>
	</g>
</g>
</svg>
