<?xml version="1.0" encoding="utf-8"?>
<svg version="1.1" id="Layer_1" xmlns="http://www.w3.org/2000/svg" xmlns:xlink="http://www.w3.org/1999/xlink" x="0px" y="0px"
	 viewBox="0 0 286.4 52" style="enable-background:new 0 0 286.4 52;" xml:space="preserve">
<g>
	<rect x="0.1" y="43.6" style="fill:#A1C253;" width="57.3" height="8.4"/>
	<rect x="57.4" y="43.6" style="fill:#636938;" width="57.3" height="8.4"/>
	<rect x="114.7" y="43.6" style="fill:#5481B9;" width="57.3" height="8.4"/>
	<rect x="172" y="43.6" style="fill:#DE953F;" width="57.3" height="8.4"/>
	<rect x="229.1" y="43.6" style="fill:#C02531;" width="57.3" height="8.4"/>
	<path style="fill:#595A5C;" d="M7.6,24.5l-1.5-7L2.8,3.9c-0.2-1-0.5-1.5-0.7-1.7C1.9,1.9,1.2,1.9,0,1.6v-1c1.9,0.1,3.3,0.1,4.3,0.1
		c0.9,0,2.3,0,4.4-0.1v1C7.2,1.8,6.4,1.8,6.2,1.9S6,2.2,6,2.4c0,0.5,0.1,1,0.2,1.5c0.4,2,0.6,3.3,0.7,3.8l2.6,11.5L13.7,9
		c1.1-2.7,2.2-5.6,3.2-8.6H18c1,3.2,2,5.9,2.8,8.2l4,10.9l2.9-10c0.5-1.8,1-3.6,1.4-5.6c0.1-0.5,0.2-1,0.3-1.5
		c0-0.2-0.1-0.4-0.3-0.5c-0.2-0.1-1.1-0.2-2.7-0.2v-1c1.7,0.1,2.9,0.1,3.6,0.1s1.9,0,3.6-0.1v1c-0.8,0-1.3,0.1-1.5,0.2
		c-0.3,0.2-0.5,0.5-0.6,0.8C31.3,3,30.9,4.5,30.1,7l-1.7,5.6c-0.2,0.6-0.5,1.8-1.1,3.8l-2.2,8.1h-1.8c-1.2-3.7-2.2-6.5-2.9-8.3
		L16.6,5.9l-3.4,8.3l-2.1,5.5c-0.3,0.7-0.5,1.4-0.7,2s-0.5,1.6-1,2.9L7.6,24.5z"/>
	<path style="fill:#595A5C;" d="M30.6,15.8c0-1.2,0.2-2.4,0.6-3.5c0.4-1.1,1.1-2.1,1.9-2.9c0.9-0.9,1.9-1.5,3-2
		c1.2-0.5,2.6-0.7,3.9-0.7c1.3,0,2.5,0.2,3.7,0.6c1,0.3,1.9,0.8,2.7,1.5c0.7,0.6,1.2,1.3,1.7,2c0.3,0.6,0.6,1.3,0.7,1.9
		c0.2,0.8,0.3,1.6,0.3,2.4c0,2.7-0.9,5-2.8,6.8c-1.9,1.8-4.2,2.7-7,2.7c-1.2,0-2.4-0.2-3.6-0.6c-1.1-0.4-2-1-2.8-1.8
		c-0.8-0.9-1.4-1.9-1.8-3C30.8,18.2,30.6,17,30.6,15.8z M33.2,14.8c0,0.8,0.1,1.6,0.2,2.3c0.1,0.7,0.3,1.4,0.6,2.1
		c0.4,0.9,0.9,1.7,1.5,2.4c0.6,0.6,1.3,1.1,2.1,1.5c0.8,0.3,1.7,0.5,2.6,0.5c1.2,0,2.4-0.3,3.4-1c1-0.6,1.7-1.6,2.2-2.7
		c0.5-1.3,0.7-2.6,0.7-4c0-1.2-0.2-2.4-0.5-3.6c-0.2-0.6-0.5-1.2-0.8-1.8c-0.3-0.5-0.8-1-1.3-1.4c-0.6-0.4-1.2-0.8-1.9-1
		c-0.8-0.3-1.7-0.4-2.5-0.4c-1.2,0-2.4,0.3-3.4,0.9c-1,0.6-1.8,1.4-2.2,2.5C33.4,12.3,33.1,13.7,33.2,14.8L33.2,14.8z"/>
	<path style="fill:#595A5C;" d="M50.3,15.8c0-1.2,0.2-2.4,0.6-3.5c0.4-1.1,1.1-2.1,1.9-2.9c0.9-0.9,1.9-1.5,3.1-2
		c1.2-0.5,2.6-0.7,3.9-0.7c1.3,0,2.5,0.2,3.7,0.6c1,0.3,1.9,0.8,2.7,1.5c0.7,0.6,1.2,1.3,1.7,2c0.3,0.6,0.6,1.3,0.7,1.9
		c0.2,0.8,0.3,1.6,0.3,2.4c0,2.7-0.9,5-2.8,6.8s-4.2,2.7-7,2.7c-1.2,0-2.4-0.2-3.6-0.6c-1.1-0.4-2-1-2.8-1.8s-1.4-1.9-1.8-3
		C50.6,18.2,50.4,17,50.3,15.8z M52.9,14.8c0,0.8,0.1,1.6,0.2,2.3c0.1,0.7,0.3,1.4,0.6,2.1c0.4,0.9,0.9,1.7,1.5,2.4
		c0.6,0.6,1.3,1.1,2.1,1.5c0.8,0.3,1.7,0.5,2.6,0.5c1.2,0,2.4-0.3,3.4-1c1-0.6,1.7-1.6,2.2-2.7c0.5-1.3,0.8-2.6,0.7-4
		c0-1.2-0.2-2.4-0.5-3.6c-0.2-0.6-0.5-1.2-0.8-1.8c-0.3-0.5-0.8-1-1.3-1.4c-0.6-0.4-1.2-0.8-1.9-1c-0.8-0.3-1.7-0.4-2.5-0.4
		c-1.2,0-2.4,0.3-3.4,0.9c-1,0.6-1.8,1.4-2.2,2.5C53.1,12.3,52.9,13.7,52.9,14.8z"/>
	<path style="fill:#595A5C;" d="M70.1,24.5v-0.6c0.3-0.1,0.7-0.3,1-0.6c0.1-0.1,0.1-0.2,0.2-0.3c0.1-0.5,0.2-1,0.1-1.5
		c0-1.1,0.1-1.8,0.1-2V13c0-1.1,0-2.2,0-3.2c0-0.8-0.1-1.2-0.2-1.4c-0.1-0.2-0.3-0.3-0.5-0.3C70.2,8,69.6,8,69,8V7.2
		c2,0.1,3.2,0.1,3.7,0.1s1.7,0,3.5-0.1V8c-0.6,0-1.2,0-1.8,0.1c-0.2,0-0.3,0.1-0.4,0.3c-0.1,0.2-0.2,0.6-0.2,1.2
		c0,0.2,0,1.3-0.1,3.4v8.2c0,0.8,0,1.5,0.1,2.1c0.9,0.1,1.9,0.1,2.8,0.1c2.3,0,3.9-0.1,4.8-0.4c0.1-0.3,0.2-0.5,0.3-0.8l0.5-2H83
		c-0.2,1.2-0.4,2.6-0.5,4.3c-0.3,0.1-0.6,0.1-0.8,0.1c-0.4,0-1.1,0-2,0l-7.3-0.1C71.7,24.3,70.9,24.3,70.1,24.5z"/>
	<path style="fill:#595A5C;" d="M87.1,24.5L86,19.4l-2.4-10c-0.2-0.7-0.3-1.1-0.5-1.3c-0.2-0.1-0.7-0.2-1.5-0.3V7.1
		C83,7.2,84,7.2,84.7,7.2c0.6,0,1.7,0,3.2-0.1v0.7c-1.1,0-1.7,0.1-1.8,0.2c-0.1,0.1-0.2,0.2-0.2,0.3C85.9,8.7,86,9,86,9.4
		c0.3,1.5,0.4,2.4,0.5,2.8l1.9,8.4l3-7.5c0.8-2,1.6-4,2.3-6.2h0.8c0.8,2.3,1.4,4.3,2,5.9l2.9,7.9l2.1-7.2c0.4-1.3,0.7-2.6,1-4
		c0.1-0.4,0.2-0.7,0.2-1.1c0-0.2-0.1-0.3-0.2-0.4c-0.1-0.1-0.8-0.1-2-0.2V7.1c1.3,0.1,2.1,0.1,2.6,0.1s1.4,0,2.6-0.1v0.7
		c-0.4,0-0.8,0-1.1,0.2c-0.2,0.1-0.4,0.3-0.5,0.6c-0.1,0.3-0.5,1.3-1,3.2l-1.3,4.1c-0.1,0.4-0.4,1.3-0.8,2.8l-1.6,5.9h-1.3
		c-0.9-2.7-1.6-4.7-2.1-6l-2.8-7.4l-2.4,6l-1.5,4c-0.2,0.5-0.4,1-0.5,1.5c-0.2,0.4-0.4,1.1-0.8,2.1h-0.9
		C87.1,24.8,87.1,24.5,87.1,24.5z"/>
	<path style="fill:#595A5C;" d="M105.6,15.8c0-1.2,0.2-2.4,0.6-3.5s1.1-2.1,1.9-2.9c0.9-0.9,1.9-1.5,3.1-2s2.6-0.7,3.9-0.7
		s2.5,0.2,3.7,0.6c1,0.3,1.9,0.8,2.7,1.5c0.7,0.6,1.2,1.3,1.7,2c0.3,0.6,0.6,1.3,0.7,1.9c0.2,0.8,0.3,1.6,0.3,2.4
		c0,2.7-0.9,5-2.8,6.8s-4.2,2.7-7,2.7c-1.2,0-2.4-0.2-3.6-0.6c-1.1-0.4-2-1-2.8-1.8c-0.8-0.9-1.4-1.9-1.8-3
		C105.8,18.2,105.6,17,105.6,15.8z M108.1,14.8c0,0.8,0.1,1.6,0.2,2.3s0.3,1.4,0.6,2.1c0.4,0.9,0.9,1.7,1.5,2.4
		c0.6,0.6,1.3,1.1,2.1,1.5c0.8,0.3,1.7,0.5,2.6,0.5c1.2,0,2.4-0.3,3.4-1c1-0.6,1.7-1.6,2.2-2.7c0.5-1.3,0.7-2.6,0.7-4
		c0-1.2-0.2-2.4-0.5-3.6c-0.2-0.6-0.5-1.2-0.8-1.8c-0.3-0.5-0.8-1-1.3-1.4c-0.6-0.4-1.2-0.8-1.9-1c-0.8-0.3-1.7-0.4-2.5-0.4
		c-1.2,0-2.4,0.3-3.4,0.9c-1,0.6-1.8,1.4-2.2,2.5C108.3,12.3,108.1,13.7,108.1,14.8L108.1,14.8z"/>
	<path style="fill:#595A5C;" d="M234.6,15.8c0-1.2,0.2-2.4,0.6-3.5c0.4-1.1,1.1-2.1,1.9-2.9c0.9-0.9,1.9-1.5,3.1-2
		c1.2-0.5,2.6-0.7,3.9-0.7c1.3,0,2.5,0.2,3.7,0.6c1,0.3,1.9,0.8,2.7,1.5c0.7,0.6,1.2,1.3,1.7,2c0.3,0.6,0.6,1.3,0.7,1.9
		c0.2,0.8,0.3,1.6,0.3,2.4c0,2.7-0.9,5-2.8,6.8c-1.9,1.8-4.2,2.7-7,2.7c-1.2,0-2.4-0.2-3.6-0.6c-1.1-0.4-2-1-2.8-1.8
		c-0.8-0.9-1.4-1.9-1.8-3C234.8,18.2,234.6,17,234.6,15.8z M237.1,14.8c0,0.8,0.1,1.6,0.2,2.3c0.1,0.7,0.3,1.4,0.6,2.1
		c0.4,0.9,0.9,1.7,1.5,2.4c0.6,0.6,1.3,1.1,2.1,1.5c0.8,0.3,1.7,0.5,2.6,0.5c1.2,0,2.4-0.3,3.4-1c1-0.6,1.7-1.6,2.2-2.7
		c0.5-1.3,0.7-2.6,0.7-4c0-1.2-0.2-2.4-0.5-3.6c-0.2-0.6-0.5-1.2-0.8-1.8c-0.3-0.5-0.8-1-1.3-1.4c-0.6-0.4-1.2-0.8-1.9-1
		c-0.8-0.3-1.7-0.4-2.5-0.4c-1.2,0-2.4,0.3-3.4,0.9c-1,0.6-1.8,1.4-2.2,2.5C237.4,12.3,237.1,13.7,237.1,14.8L237.1,14.8z"/>
	<path style="fill:#595A5C;" d="M124.3,8V7.2h1.4l2.3,0.1c0.5,0,1.2,0,2.1-0.1c1.3,0,2-0.1,2.2-0.1c1.5,0,2.7,0.1,3.4,0.4
		s1.3,0.7,1.6,1.3c0.4,0.6,0.6,1.3,0.6,2c0,0.7-0.2,1.4-0.5,2c-0.4,0.7-0.9,1.3-1.6,1.7c-0.8,0.5-1.7,0.9-2.7,1
		c0.2,0.3,0.7,0.9,1.4,1.9l3.1,4.1c0.9,1.1,1.4,1.8,1.5,1.9s0.1,0.1,0.2,0.1c0.3,0.1,0.5,0.1,0.8,0.1v0.8c-0.6,0-1.2-0.1-1.6-0.1
		s-1,0-1.8,0.1c-0.5-0.6-1.4-1.8-2.6-3.6c-0.7-1-1.3-1.8-1.8-2.5c-0.8-1.1-1.7-2.1-2.4-3l0.1-0.4c0.4,0,0.7,0,1,0
		c1.5,0,2.6-0.4,3.3-1.1c0.8-0.7,1.2-1.7,1.1-2.8c0-0.9-0.3-1.8-1-2.4s-1.6-0.9-3-0.9c-0.8,0-1.7,0.1-2.5,0.4c0,0.4-0.1,0.8-0.1,1.2
		c0,0.1,0,1.3-0.1,3.5v5.4c0,1.1,0,2.2,0.1,3.2c0,0.8,0.1,1.2,0.2,1.4c0.1,0.2,0.3,0.3,0.5,0.3c0.6,0.1,1.2,0.1,1.7,0.1V24
		c-1.2-0.1-2.2-0.1-3.2-0.1c-0.8,0-2.1,0-3.9,0.1v-0.8c0.6,0,1.2,0,1.7-0.1c0.2,0,0.3-0.1,0.4-0.3c0.1-0.4,0.2-0.8,0.2-1.2
		c0-0.2,0-1.3,0.1-3.4v-5.6c0-1.1,0-2.2,0-3.2c0-0.8-0.1-1.2-0.2-1.4c-0.1-0.2-0.3-0.3-0.4-0.3C125.5,8,124.9,8,124.3,8z"/>
	<path style="fill:#595A5C;" d="M140.4,11.2h-0.8c0-1.9-0.1-3.3-0.1-4c0.9,0,2.3,0.1,4.2,0.1c1.5,0,2.6,0,3.1,0c0.6,0,1.8,0,3.9-0.1
		c1.5,0,2.5-0.1,3.2-0.1c-0.1,0.9-0.2,2.2-0.2,4h-0.8l-0.1-1.2c-0.1-0.7-0.1-1.1-0.1-1.2s-0.1-0.1-0.1-0.2c-0.1,0-0.1-0.1-0.2-0.1
		c-0.1,0-0.5-0.1-1.2-0.1s-1.3-0.1-1.7-0.1H148c-0.1,0.8-0.1,1.8-0.1,3.1v7.1c0,1.1,0,2.2,0,3.2c0,0.8,0.1,1.2,0.2,1.4
		c0.1,0.2,0.3,0.3,0.5,0.3c0.6,0.1,1.2,0.1,1.8,0.1v0.8c-1.5-0.1-2.6-0.1-3.3-0.1c-0.3,0-1.6,0-3.8,0.1v-0.8c0.6,0,1.2,0,1.8-0.1
		c0.2,0,0.3-0.1,0.4-0.3c0.1-0.2,0.2-0.6,0.2-1.2c0-0.2,0-1.3,0.1-3.4v-7.1c0-0.3,0-0.7,0-1.1l-0.1-2.1h-1.8c-0.8,0-1.7,0-2.5,0.1
		c-0.1,0-0.3,0.1-0.4,0.2c-0.1,0.1-0.2,0.6-0.2,1.3L140.4,11.2z"/>
	<path style="fill:#595A5C;" d="M155,8V7.2l3.8,0.1l3.5-0.1V8c-0.6,0-1.2,0-1.8,0.1c-0.2,0-0.3,0.1-0.4,0.3
		c-0.1,0.2-0.2,0.6-0.2,1.2c0,0.2,0,1.3-0.1,3.4v1.7c1.6,0.1,3.6,0.1,5.9,0.1c1.8,0,3.2,0,4.3-0.1V13c0-1.1,0-2.2-0.1-3.2
		c0-0.8-0.1-1.2-0.2-1.4c-0.1-0.2-0.3-0.3-0.5-0.3C168.6,8,168,8,167.4,8V7.2c1.8,0,3,0.1,3.6,0.1c0.2,0,1.4,0,3.6-0.1V8
		c-0.6,0-1.2,0-1.8,0.1c-0.2,0-0.3,0.1-0.4,0.3c-0.1,0.2-0.2,0.6-0.2,1.2c0,0.2,0,1.3-0.1,3.4v5.6c0,1.1,0,2.2,0.1,3.2
		c0,0.8,0.1,1.2,0.2,1.4c0.1,0.2,0.3,0.3,0.5,0.3c0.6,0.1,1.2,0.1,1.8,0.1v0.8c-1.6-0.1-2.9-0.1-3.9-0.1c-1.1,0-2.2,0-3.3,0.1v-0.8
		c0.6,0,1.2,0,1.8-0.1c0.2,0,0.3-0.1,0.4-0.3c0.1-0.2,0.2-0.6,0.2-1.2c0-0.2,0-1.3,0.1-3.4v-2.8c-2.3,0-4-0.1-5.2-0.1
		c-1.3,0-2.9,0-4.9,0.1v2.8c0,1.1,0,2.2,0,3.2c0,0.8,0.1,1.2,0.2,1.4c0.1,0.2,0.3,0.3,0.5,0.3c0.6,0.1,1.2,0.1,1.8,0.1v0.8
		c-1.1-0.1-2.2-0.1-3.4-0.1c-1.3,0-2.5,0-3.8,0.1v-0.8c0.6,0,1.2,0,1.8-0.1c0.2,0,0.3-0.1,0.4-0.3c0.1-0.2,0.2-0.6,0.2-1.2
		c0-0.2,0-1.3,0.1-3.4V13c0-1.1,0-2.2,0-3.2c0-0.8-0.1-1.2-0.2-1.4c-0.1-0.2-0.3-0.3-0.5-0.3C156.1,8,155.6,8,155,8z"/>
	<path style="fill:#595A5C;" d="M175.6,23.8c0.2-1.3,0.2-2.5,0.2-3.8h0.8c0,1.2,0.1,1.9,0.2,2.1c0.2,0.3,0.4,0.5,0.7,0.7
		c0.5,0.3,0.9,0.5,1.5,0.6c0.6,0.2,1.2,0.3,1.8,0.3c0.8,0,1.6-0.2,2.3-0.6c0.6-0.3,1.2-0.8,1.5-1.5c0.3-0.6,0.5-1.3,0.5-2
		c0-0.5-0.1-0.9-0.2-1.4c-0.2-0.4-0.4-0.7-0.7-0.9c-0.4-0.3-0.8-0.4-1.2-0.5c-0.3,0-0.9-0.1-1.8-0.2c-0.9-0.1-1.7-0.2-2.3-0.4
		c-0.7-0.2-1.3-0.5-1.9-0.9c-0.4-0.4-0.8-0.8-1-1.4c-0.3-0.6-0.4-1.2-0.4-1.8c0-1,0.3-1.9,0.8-2.7c0.5-0.9,1.3-1.6,2.2-2
		c1-0.5,2.1-0.7,3.2-0.7c0.8,0,1.5,0.1,2.3,0.3s1.6,0.4,2.3,0.8c-0.1,0.5-0.2,0.9-0.2,1.4c-0.1,0.4-0.1,1.1-0.1,1.9h-0.8
		c0-1.2-0.1-1.9-0.1-2c-0.2-0.3-0.5-0.6-0.8-0.8c-0.8-0.5-1.7-0.7-2.7-0.7c-1.2,0-2.1,0.4-2.9,1.1c-0.7,0.7-1.1,1.8-1.1,2.8
		c0,0.6,0.1,1.1,0.4,1.6c0.3,0.4,0.8,0.8,1.4,0.9c0.7,0.2,1.5,0.4,2.2,0.4c1,0.1,1.9,0.3,2.8,0.4c0.6,0.2,1.2,0.4,1.7,0.8
		c0.4,0.3,0.7,0.8,0.9,1.2c0.2,0.6,0.4,1.2,0.4,1.8c0,1.6-0.7,3-2,4.2c-1.4,1.2-3.1,1.8-5.3,1.8C178.4,24.8,176.9,24.5,175.6,23.8z"
		/>
	<path style="fill:#595A5C;" d="M216.8,23c-1.4,0.5-2.8,0.9-4.2,1.2c-1.8,0.4-3.6,0.5-5.5,0.6c-2.4,0-4.8-0.5-6.9-1.5
		c-1.9-0.9-3.6-2.4-4.7-4.2c-1.1-1.8-1.6-4-1.6-6.4c0-2.2,0.4-4,1.2-5.6c0.7-1.4,1.7-2.7,3-3.8c1.1-0.9,2.3-1.6,3.5-2.2
		c1.8-0.7,4-1.1,6.7-1.1c1.3,0,2.6,0.2,3.9,0.4c1.4,0.3,2.9,0.7,4.7,1.1c-0.2,0.6-0.3,1.1-0.4,1.7c-0.1,0.5-0.2,1.7-0.4,3.4h-1
		L215,4.7c0-0.3,0-0.5,0-0.7s-0.1-0.5-0.2-0.7c-0.4-0.5-0.9-0.8-1.4-1.1c-0.9-0.4-1.9-0.7-2.8-0.9c-0.9-0.2-1.8-0.2-2.7-0.2
		c-2.1,0-4,0.5-5.5,1.4c-1.6,0.9-2.8,2.3-3.5,3.9c-0.8,1.7-1.2,3.6-1.2,5.5c0,2.1,0.5,4.1,1.4,5.9c0.9,1.7,2.2,3.1,3.8,4
		c1.7,1,3.6,1.4,5.5,1.4c1,0,1.9-0.1,2.9-0.3c0.8-0.2,1.6-0.4,2.4-0.8c0.1-0.7,0.2-1.4,0.2-2.1v-1.9c0-1-0.1-1.6-0.2-1.7
		c-0.1-0.2-0.4-0.3-0.8-0.4c-1-0.1-2-0.2-3.1-0.2v-1l5.3,0.1c1,0,2.1,0,3.1-0.1l0.1,0.8l-1.3,0.7c-0.1,1.1-0.2,2.2-0.2,3.3
		C216.6,21,216.6,22,216.8,23z"/>
	<path style="fill:#595A5C;" d="M253,8V7.2c1.3,0.1,2.6,0.1,3.7,0.1c1.1,0,2.3,0,3.4-0.1V8c-0.6,0-1.2,0-1.8,0.1
		c-0.2,0-0.3,0.1-0.4,0.3c-0.1,0.2-0.2,0.6-0.2,1.2c0,0.2,0,1.3,0,3.4v4.5c0,1.7,0.1,2.9,0.3,3.4c0.2,0.5,0.6,1,1.1,1.4
		c0.5,0.3,1,0.5,1.5,0.7c0.7,0.2,1.4,0.3,2.1,0.2c0.8,0,1.6-0.1,2.4-0.3c0.6-0.2,1.1-0.4,1.6-0.8c0.3-0.3,0.6-0.7,0.8-1.1
		c0.2-0.5,0.3-1.1,0.4-1.6c0.1-0.9,0.1-1.8,0.1-2.6v-3.7c0-1.1,0-2.2-0.1-3.2c0-0.8-0.1-1.2-0.2-1.4c-0.1-0.2-0.3-0.3-0.5-0.3
		c-0.6-0.1-1.2-0.1-1.8-0.1V7.3c1.3,0.1,2.3,0.1,2.9,0.1s1.6,0,3-0.1v0.8c-0.6,0-1.2,0-1.8,0.1c-0.2,0-0.3,0.1-0.4,0.3
		c-0.1,0.2-0.2,0.6-0.2,1.2c0,0.2,0,1.3,0,3.4v4.1c0,2-0.1,3.4-0.4,4.2s-0.8,1.6-1.5,2.1c-0.6,0.5-1.4,0.9-2.2,1.1
		c-2,0.5-4.2,0.5-6.2-0.1c-0.8-0.2-1.5-0.6-2.1-1.2c-0.4-0.4-0.8-0.9-1-1.5c-0.2-0.7-0.3-1.8-0.3-3.3v-5.4c0-1.1,0-2.2,0-3.2
		c0-0.8-0.1-1.2-0.2-1.4c-0.1-0.2-0.3-0.3-0.5-0.3C254.1,8,253.5,8,253,8z"/>
	<path style="fill:#595A5C;" d="M272.6,8V7.2c1.6,0,2.9,0.1,3.9,0.1c0.6,0,1.3,0,2,0l1.9-0.1h0.6c1.3,0,2.3,0.1,3.1,0.4
		c0.7,0.3,1.3,0.7,1.7,1.4c0.4,0.6,0.6,1.4,0.6,2.1c0,0.7-0.2,1.5-0.5,2.1c-0.4,0.7-0.9,1.3-1.5,1.8s-1.3,0.8-2.1,1.1
		c-0.5,0.2-1.1,0.2-1.7,0.2s-1.1-0.1-1.7-0.2l-0.3-0.9c0.6,0.1,1.1,0.2,1.7,0.2s1.2-0.2,1.7-0.4c0.6-0.3,1-0.8,1.3-1.3
		c0.3-0.6,0.5-1.3,0.5-2s-0.1-1.3-0.4-1.9c-0.3-0.6-0.8-1-1.4-1.3c-0.7-0.3-1.4-0.5-2.2-0.4c-0.8,0-1.7,0.2-2.5,0.4
		c-0.1,0.9-0.1,2.2-0.1,4v6.1c0,1.1,0,2.2,0,3.2c0,0.8,0.1,1.2,0.2,1.4s0.3,0.3,0.5,0.3c0.6,0.1,1.2,0.1,1.8,0.1v0.8
		c-1.5-0.1-2.6-0.1-3.3-0.1c-0.3,0-1.6,0-3.8,0.1v-0.8c0.6,0,1.2,0,1.8-0.1c0.2,0,0.3-0.1,0.4-0.3s0.2-0.6,0.2-1.2
		c0-0.2,0-1.3,0.1-3.4V13c0-1.1,0-2.2,0-3.2c0-0.8-0.1-1.2-0.2-1.4c-0.1-0.2-0.3-0.3-0.5-0.3C273.8,8,273.2,8,272.6,8z"/>
	<path style="fill:#595A5C;" d="M219.1,8V7.2h1.4l2.3,0.1c0.5,0,1.2,0,2.1-0.1c1.3,0,2-0.1,2.2-0.1c1.5,0,2.7,0.1,3.4,0.4
		s1.3,0.7,1.6,1.3c0.4,0.6,0.6,1.3,0.6,2c0,0.7-0.2,1.4-0.5,2c-0.4,0.7-0.9,1.3-1.6,1.7c-0.8,0.5-1.7,0.9-2.7,1.1
		c0.2,0.3,0.7,0.9,1.4,1.9l3,4c0.9,1.1,1.4,1.8,1.5,1.9s0.1,0.1,0.2,0.1c0.3,0.1,0.5,0.1,0.8,0.1v0.8c-0.6,0-1.2-0.1-1.6-0.1
		c-0.5,0-1,0-1.8,0.1c-0.5-0.6-1.4-1.8-2.6-3.6c-0.7-1-1.3-1.8-1.8-2.5c-0.8-1.1-1.7-2.1-2.4-3l0.1-0.4c0.4,0,0.7,0,1,0
		c1.5,0,2.6-0.4,3.3-1.1c0.8-0.7,1.2-1.7,1.2-2.8c0-0.9-0.3-1.8-1-2.4s-1.6-0.9-3-0.9c-0.8,0-1.7,0.1-2.5,0.4c0,0.4-0.1,0.8-0.1,1.2
		c0,0.1,0,1.3-0.1,3.5v5.4c0,1.1,0,2.2,0.1,3.2c0,0.8,0.1,1.2,0.2,1.4c0.1,0.2,0.3,0.3,0.5,0.3c0.6,0.1,1.2,0.1,1.7,0.1V24
		c-1.2-0.1-2.2-0.1-3.2-0.1c-0.8,0-2.1,0-3.9,0.1v-0.8c0.6,0,1.2,0,1.7-0.1c0.2,0,0.3-0.1,0.4-0.3c0.1-0.4,0.2-0.8,0.2-1.2
		c0-0.2,0-1.3,0.1-3.4v-5.6c0-1.1,0-2.2,0-3.2c0-0.8-0.1-1.2-0.2-1.4c-0.1-0.2-0.3-0.3-0.4-0.3C220.3,8,219.6,8,219.1,8z"/>
</g>
</svg>
