<?xml version="1.0"?>
<svg xmlns="http://www.w3.org/2000/svg" xmlns:xlink="http://www.w3.org/1999/xlink" xmlns:svgjs="http://svgjs.com/svgjs" version="1.1" width="512" height="512" x="0" y="0" viewBox="0 0 512 512" style="enable-background:new 0 0 512 512" xml:space="preserve" class=""><g>
<circle xmlns="http://www.w3.org/2000/svg" style="" cx="256" cy="256" r="256" fill="#f1f1f1" data-original="#005c83" class=""/>
<path xmlns="http://www.w3.org/2000/svg" style="" d="M512,256c0-14.916-1.29-29.529-3.738-43.746l-66.242-66.242l-5.513,12.744L316.25,38.5  l-11.427,33.167h-55.908L215.748,38.5l-19.831,52.833L77,363.729l146.184,146.184C233.929,511.289,244.881,512,256,512  C397.385,512,512,397.385,512,256z" fill="#f1f1f1" data-original="#00263f" class=""/>
<path xmlns="http://www.w3.org/2000/svg" style="" d="M323.425,397.731h-134.85C107.624,397.731,42,332.107,42,251.156l0,0  c0-80.951,65.624-146.575,146.575-146.575h134.85C404.376,104.58,470,170.204,470,251.155l0,0  C470,332.107,404.376,397.731,323.425,397.731z" fill="#35ccff" data-original="#35ccff" class=""/>
<path xmlns="http://www.w3.org/2000/svg" style="" d="M323.425,104.58H256v293.151h67.425c80.951,0,146.575-65.624,146.575-146.575l0,0  C470,170.204,404.376,104.58,323.425,104.58z" fill="#00baff" data-original="#00baff" class=""/>
<path xmlns="http://www.w3.org/2000/svg" style="" d="M323.425,409.731h-134.85C101.137,409.731,30,338.594,30,251.156  C30,163.717,101.137,92.58,188.575,92.58h134.85C410.863,92.58,482,163.717,482,251.155  C482,338.594,410.863,409.731,323.425,409.731z M188.575,116.58C114.37,116.58,54,176.95,54,251.155s60.37,134.576,134.575,134.576  h134.85c74.205,0,134.575-60.37,134.575-134.575S397.63,116.58,323.425,116.58H188.575z" fill="#ffdc00" data-original="#ffdc00" class=""/>
<path xmlns="http://www.w3.org/2000/svg" style="" d="M323.425,92.58H256v24h67.425C397.63,116.58,458,176.951,458,251.156s-60.37,134.575-134.575,134.575  H256v24h67.425c87.438,0,158.575-71.137,158.575-158.576C482,163.717,410.863,92.58,323.425,92.58z" fill="#ffc000" data-original="#ffc000"/>
<path xmlns="http://www.w3.org/2000/svg" style="" d="M306.251,33.134c-6.627,0-12,5.373-12,12v13.565h-76.502V45.134c0-6.627-5.373-12-12-12  s-12,5.373-12,12v126c0,6.627,5.373,12,12,12s12-5.373,12-12v-23.609h76.502v23.609c0,6.627,5.373,12,12,12s12-5.373,12-12v-126  C318.251,38.506,312.878,33.134,306.251,33.134z M217.749,123.525V82.699h76.502v40.826  C294.251,123.525,217.749,123.525,217.749,123.525z" fill="#ffffff" data-original="#ffffff"/>
<path xmlns="http://www.w3.org/2000/svg" style="" d="M306.251,33.134c-6.627,0-12,5.373-12,12v13.565H256v24h38.251v40.826H256v24h38.251v23.609  c0,6.627,5.373,12,12,12s12-5.373,12-12v-126C318.251,38.506,312.878,33.134,306.251,33.134z" fill="#e0e0e0" data-original="#e0e0e0"/>
<g xmlns="http://www.w3.org/2000/svg">
</g>
<g xmlns="http://www.w3.org/2000/svg">
</g>
<g xmlns="http://www.w3.org/2000/svg">
</g>
<g xmlns="http://www.w3.org/2000/svg">
</g>
<g xmlns="http://www.w3.org/2000/svg">
</g>
<g xmlns="http://www.w3.org/2000/svg">
</g>
<g xmlns="http://www.w3.org/2000/svg">
</g>
<g xmlns="http://www.w3.org/2000/svg">
</g>
<g xmlns="http://www.w3.org/2000/svg">
</g>
<g xmlns="http://www.w3.org/2000/svg">
</g>
<g xmlns="http://www.w3.org/2000/svg">
</g>
<g xmlns="http://www.w3.org/2000/svg">
</g>
<g xmlns="http://www.w3.org/2000/svg">
</g>
<g xmlns="http://www.w3.org/2000/svg">
</g>
<g xmlns="http://www.w3.org/2000/svg">
</g>
</g></svg>
