<?xml version="1.0"?>
<svg xmlns="http://www.w3.org/2000/svg" xmlns:xlink="http://www.w3.org/1999/xlink" xmlns:svgjs="http://svgjs.com/svgjs" version="1.1" width="512" height="512" x="0" y="0" viewBox="0 0 512 512" style="enable-background:new 0 0 512 512" xml:space="preserve" class=""><g><circle xmlns="http://www.w3.org/2000/svg" cx="256" cy="256" fill="#f1f1f1" r="256" data-original="#ffde91" style="" class=""/><path xmlns="http://www.w3.org/2000/svg" d="m266.189 511.78c133.151-5.214 240.169-112.111 245.577-245.212l-105.095-105.095-157.235 7.962-84.436-84.435 6.971 74.347 153.813 153.813-259.773-1.558z" fill="#f1f1f1" data-original="#edc472" style="" class=""/><path xmlns="http://www.w3.org/2000/svg" d="m276.498 237.946c-119.569 0-216.498 26.703-216.498 59.644s96.929 59.644 216.498 59.644c64.668 0 122.703-7.814 162.373-20.198v-78.892c-39.671-12.384-97.706-20.198-162.373-20.198z" fill="#fa5d0f" data-original="#fa5d0f" style=""/><path xmlns="http://www.w3.org/2000/svg" d="m60.028 296.976c-.007.205-.028.409-.028.614 0 32.941 96.929 59.644 216.498 59.644 64.668 0 122.703-7.814 162.373-20.198v-40.06z" fill="#d13400" data-original="#d13400" style=""/><path xmlns="http://www.w3.org/2000/svg" d="m276.498 237.946c-119.569 0-216.498 26.703-216.498 59.644s96.929 59.644 216.498 59.644c24.758 0 48.538-1.149 70.693-3.258v-112.773c-22.156-2.108-45.935-3.257-70.693-3.257z" fill="#8d5c4d" data-original="#8d5c4d" style="" class=""/><path xmlns="http://www.w3.org/2000/svg" d="m60.028 296.976c-.007.205-.028.409-.028.614 0 32.941 96.929 59.644 216.498 59.644 24.758 0 48.538-1.149 70.693-3.258v-57.001h-287.163z" fill="#704639" data-original="#704639" style=""/><path xmlns="http://www.w3.org/2000/svg" d="m436 237.946h-34v-10.946c0-29.776-24.225-54-54-54h-129c-48.523 0-88-39.477-88-88h34c0 29.776 24.224 54 54 54h129c48.523 0 88 39.477 88 88z" fill="#bcbfc5" data-original="#ffffff" style="" class=""/><path xmlns="http://www.w3.org/2000/svg" d="m348 139h-93v34h93c29.775 0 54 24.224 54 54v10.946h34v-10.946c0-48.523-39.477-88-88-88z" fill="#a3aab9" data-original="#e9edf5" style="" class=""/></g></svg>
