<?xml version="1.0"?>
<svg xmlns="http://www.w3.org/2000/svg" xmlns:xlink="http://www.w3.org/1999/xlink" xmlns:svgjs="http://svgjs.com/svgjs" version="1.1" width="512" height="512" x="0" y="0" viewBox="0 0 512 512" style="enable-background:new 0 0 512 512" xml:space="preserve" class=""><g><g xmlns="http://www.w3.org/2000/svg"><g><g><g><g><g id="XMLID_2233_"><g id="XMLID_2234_"><g id="XMLID_2235_"><g id="XMLID_2236_"><g id="XMLID_2237_"><g id="XMLID_2238_"><g id="XMLID_2239_"><g id="XMLID_2240_"><g id="XMLID_2287_"><g id="XMLID_2288_"><g id="XMLID_2289_"><g id="XMLID_2290_"><g id="XMLID_2308_"><g id="XMLID_2309_"><g id="XMLID_2310_"><circle cx="256" cy="256" fill="#f1f1f1" r="256" data-original="#ff5c5c" style="" class=""/></g></g></g></g></g></g></g></g></g></g></g></g></g></g></g></g></g></g></g><path d="m512 256c0-20.546-2.421-40.527-6.992-59.673l-60.709-59.943-366.587 249.243 118.51 119.356c19.178 4.587 39.194 7.017 59.778 7.017 141.385 0 256-114.615 256-256z" fill="#f1f1f1" data-original="#d01273" style="" class=""/><path d="m415.25 391.342h-318.5c-19.12 0-34.764-15.644-34.764-34.764v-201.156c0-19.12 15.644-34.764 34.764-34.764h318.5c19.12 0 34.764 15.644 34.764 34.764v201.155c0 19.121-15.644 34.765-34.764 34.765z" fill="#ffe05c" data-original="#ffe05c" style="" class=""/><path d="m450.01 155.42v201.16c0 19.12-15.64 34.76-34.76 34.76h-159.25v-270.68h159.25c19.12 0 34.76 15.64 34.76 34.76z" fill="#ffbc00" data-original="#ffbc00" style="" class=""/><path d="m61.986 176.15h388.028v54.696h-388.028z" fill="#4f4f4f" data-original="#4f4f4f" style=""/><path d="m256 176.15h194.01v54.7h-194.01z" fill="#3a3a3a" data-original="#3a3a3a" style=""/><g><circle cx="383.331" cy="333.669" fill="#00cb75" r="28.779" data-original="#00cb75" style=""/><path d="m99.889 315.684h130.694v35.97h-130.694z" fill="#ffffff" data-original="#ffffff" style=""/></g></g></g></svg>
