<?xml version="1.0" encoding="utf-8"?>
<svg version="1.1" id="Layer_1" xmlns="http://www.w3.org/2000/svg" xmlns:xlink="http://www.w3.org/1999/xlink" x="0px" y="0px"
	width="100px" height="100px" viewBox="0 0 122.5 122.5" style="enable-background:new 0 0 122.5 122.5;" xml:space="preserve">
<g id="logo" transform="scale(.1)" style="opacity:0.999;">
	<path id="path2" style="fill:#43BEAC;" d="M1005,699c1.5-28.75,2.25-58,2.25-86.5s-0.75-57.75-2.25-86.5
		c29.5,1.5,58.5,3.25,86.75,5c1.75,27.25,2.75,54.5,2.75,81.5s-1,54.25-2.75,81.5C1063.75,695.75,1034.5,697.5,1005,699z
		 M927,1053.25c9-26.75,17.5-55,24.75-83.75c-43,10.25-87.75,18.25-133.5,24.5c-3,29-6.25,57.5-10,85
		C849,1072.25,888.75,1063.75,927,1053.25z M774.5,1209.25c7-36.25,13.25-74.75,18.75-115c-28.5,4.25-57.75,7.25-87,9.5
		c-2.75,42.5-6,83.25-9.5,121.25C722.75,1221.5,749,1216.25,774.5,1209.25z M217.75,612.5c0-28.5,0.75-57.75,2.25-86.5
		c-29.5,1.5-58.5,3.25-86.75,5c-1.75,27.25-2.75,54.5-2.75,81.5s1,54.25,2.75,81.5c28,1.75,57.25,3.5,86.75,5
		C218.5,670.25,217.75,641,217.75,612.5z M705.75,823c0.75-33.5,1.5-67.75,2-102.25c-31.75,0.25-63.75,0.5-95.25,0.5
		c-31.25,0-63.25-0.25-95.25-0.5c0.5,34.5,1,68.75,2,102.25c31,0.75,62.25,1,93.25,1S674.75,823.75,705.75,823z M806.5,242.5
		c-30.75-4-62.25-6.75-94-8.75c2.5,50.25,4.25,102.5,5.75,155.5c33.5,0.75,67,2.25,99.75,3.75C815.25,342,811.5,291.25,806.5,242.5z
		 M406.5,231c3-29,6.25-57.5,10-85C376,152.5,336,161.25,298,171.5c-9,26.75-17.5,55-24.75,83.75C316,245.5,360.75,237.25,406.5,231
		z M705.75,402c-31-0.75-62.25-1-93.25-1s-62.25,0.25-93.25,1c-0.75,33.5-1.5,67.75-2,102.25c31.5-0.25,63.5-0.5,95.25-0.5
		s63.75,0.25,95.25,0.5C707.25,469.75,706.5,435.5,705.75,402z M161,937c-34.5-12-67.25-25.25-97.5-39.75
		c16,30.5,34.5,60,55.5,87.75c21.5,11,44,21.25,67.5,30.75C177.25,990.25,168.5,963.75,161,937z M1106,240
		c-21.5-11-44-21.25-67.5-30.75c9.5,25.5,18,51.75,25.5,78.75c34.5,12,67.25,25.25,97.5,39.75
		C1145.5,297.25,1126.75,267.75,1106,240z"/>
	<path id="path4" style="fill:#56AEE1;" d="M1094.25,793.25c4.25-28.75,7.25-57.75,9.5-87c42.5-2.75,83-6,121.25-9.5
		c-3.5,26.25-8.75,52.25-15.75,77.75C1173.25,781.25,1134.5,787.75,1094.25,793.25z M1053.25,927c10.5-38.25,19-78,25.5-118.5
		c-27.5,3.5-56,7-85,10c-6,45.75-14.25,90.5-24.5,133.5C998.25,944.5,1026.5,936,1053.25,927z M806.5,982.5
		c4.75-48.75,8.75-99.25,11.5-150.5c-32.75,1.75-66.25,3-99.75,3.75c-1.5,53.25-3.25,105.5-5.75,155.5
		C744.25,989.25,775.75,986.25,806.5,982.5z M389.25,718.25c-53.5-1.5-105.75-3.25-155.5-5.75c2,31.75,5,63.25,8.75,94
		c48.75,4.75,99.25,8.75,150.5,11.5C391.5,785.5,390.25,752,389.25,718.25z M518.75,1103.75c-29.25-2.25-58.5-5.25-87-9.5
		c5.5,40.25,12,78.75,18.75,115c25.5,7,51.75,12.25,77.75,15.75C524.75,1187,521.75,1146.25,518.75,1103.75z M1053.25,298
		c-26.75-9-55-17.5-83.75-24.75c10.25,43,18.25,87.75,24.5,133.5c29,3,57.5,6.25,85,10C1072.25,376,1063.75,336.25,1053.25,298z
		 M774.5,15.75C749,8.75,722.75,3.5,696.75,0c3.5,38,6.75,78.75,9.5,121.25c29.25,2.25,58.5,5.25,87,9.5
		C787.75,90.5,781.25,52,774.5,15.75z M121.25,518.75c2.25-29.25,5.25-58.5,9.5-87c-40.25,5.5-78.75,12-115,18.75
		C8.75,476,3.5,502,0,528.25C38,524.75,78.75,521.75,121.25,518.75z M389.25,506.75c0.75-33.5,2.25-67,3.75-99.75
		c-51.25,2.75-101.75,6.75-150.5,11.5c-4,30.75-6.75,62.25-8.75,94C284,510,336.25,508,389.25,506.75z M694,133.25
		c-27.25-1.75-54.5-2.75-81.5-2.75s-54.25,1-81.5,2.75c-1.75,28-3.5,57.25-5,86.75c28.75-1.5,57.75-2.25,86.5-2.25
		s57.75,0.75,86.5,2.25C697.5,190.5,695.75,161.25,694,133.25z M288,1064c-26.75-7.5-53.25-16-78.75-25.5
		c9.5,23.5,19.75,46,30.75,67.5c27.75,21,57.25,39.5,87.75,55.5C313.25,1131,300,1098.5,288,1064z M985,119
		c-27.75-21-57.25-39.5-87.75-55.5c14.5,30.25,28,63,39.75,97.5c26.75,7.5,53.25,16,78.75,25.5C1006.25,163.25,995.75,140.5,985,119
		z"/>
	<path id="path6" style="fill:#91AEDB;" d="M255.5,951.75c-29-7.5-57-15.75-83.75-24.75c-10.5-38.25-19-78-25.5-118.5
		c27.5,3.5,56,7,85,10C237.25,864,245.5,909,255.5,951.75z M503.75,612.5c0-31.5,0.25-63.5,0.5-95.25c-34.25,0.5-68.5,1-102.25,2
		c-0.75,31-1,62.25-1,93.25s0.25,62.25,1,93.25c33.75,0.75,68,1.5,102.25,2C504,676,503.75,644,503.75,612.5z M694,1091.75
		c1.75-28,3.5-57.25,5-86.75c-28.75,1.5-58,2.25-86.5,2.25S555,1006.5,526,1005c1.5,29.5,3.25,58.5,5,86.75
		c27.25,1.75,54.5,2.75,81.5,2.75S666.75,1093.5,694,1091.75z M982.5,418.5c-48.75-4.75-99.25-8.75-150.5-11.5
		c1.75,32.75,3,66.25,3.75,99.75c53.25,1.5,105.5,3.25,155.5,5.75C989.25,480.75,986.25,449.25,982.5,418.5z M518.75,121.25
		c2.75-42.5,6-83.25,9.5-121.25C502,3.5,476,8.75,450.5,15.75c-7,36-13.25,74.75-18.75,115C460.25,126.5,489.5,123.25,518.75,121.25
		z M1106,985c21-27.75,39.5-57,55.5-87.75c-30.25,14.5-63,28-97.5,39.75c-7.5,26.75-16,53.25-25.5,78.75
		C1061.75,1006.25,1084.5,996,1106,985z M161,288c7.5-26.75,16-53.25,25.5-78.75C163,218.75,140.5,229,119,240
		c-21,27.75-39.5,57-55.5,87.75C94,313.25,126.5,300,161,288z"/>
	<path id="path8" style="fill:#8FC73E;" d="M831.75,818.25c1.75-32.75,3-66.25,3.75-99.75c53.5-1.5,105.75-3.25,155.5-5.75
		c-2,31.75-5,63.25-8.75,94C933.75,811.5,883,815.25,831.75,818.25z M823,705.75c0.75-31,1-62.25,1-93.25s-0.25-62.25-1-93.25
		c-33.75-0.75-68-1.5-102.25-2c0.25,31.75,0.5,63.5,0.5,95.25c0,31.5-0.25,63.5-0.5,95.25C755,707.25,789.5,706.5,823,705.75z
		 M121.25,706.25c-42.5-2.75-83-6-121.25-9.5C3.5,723,8.75,749,15.75,774.5c36,7,74.75,13.25,115,18.75
		C126.5,764.75,123.25,735.5,121.25,706.25z M406.5,994c-45.75-6-90.5-14.25-133.5-24.5c7.25,29,15.75,57,24.75,83.75
		c38.25,10.5,78,19,118.5,25.5C413,1051.5,409.5,1022.75,406.5,994z M506.75,835.75c-33.5-0.75-67-2.25-99.75-3.75
		c2.75,51.25,6.75,101.75,11.5,150.5c30.75,4,62.25,7,94,8.75C510,941,508,888.75,506.75,835.75z M1209.25,450.5
		c-36.25-7-74.75-13.25-115-18.75c4.25,28.5,7.25,57.75,9.5,87c42.5,2.75,83,6,121.25,9.5C1221.5,502.25,1216.25,476,1209.25,450.5z
		 M927,171.75c-38.25-10.5-78-19-118.5-25.5c3.75,27.5,7,56,10,85c45.75,6,90.5,14.25,133.5,24.5C944.5,226.75,936,198.5,927,171.75
		z M231,406.5c6-45.75,14.25-90.5,24.5-133.5c-28.75,7.25-57,15.75-83.75,24.75c-10.5,38.25-19,78-25.5,118.5
		C173.75,413,202.25,409.5,231,406.5z M506.75,389.25c1.5-53.25,3.25-105.5,5.75-155.5c-31.75,2-63.25,5-94,8.75
		c-4.75,48.75-8.75,99.25-11.5,150.5C439.5,391.5,473,390.25,506.75,389.25z M985,1106c11-21.5,21.25-44,30.75-67.5
		c-25.5,9.5-51.75,18-78.75,25.5c-12,34.5-25.25,67.25-39.75,97.5C927.75,1145.5,957.25,1126.75,985,1106z M288,161
		c12-34.5,25.25-67.25,39.75-97.5c-30.5,16-60,34.5-87.75,55.5c-11,21.5-21.25,44-30.75,67.5C234.75,177.25,261.25,168.5,288,161z"
		/>
</g>
</svg>
