<?xml version="1.0"?>
<svg xmlns="http://www.w3.org/2000/svg" xmlns:xlink="http://www.w3.org/1999/xlink" xmlns:svgjs="http://svgjs.com/svgjs" version="1.1" width="512" height="512" x="0" y="0" viewBox="0 0 512 512" style="enable-background:new 0 0 512 512" xml:space="preserve" class=""><g><g xmlns="http://www.w3.org/2000/svg"><circle cx="256" cy="256" fill="#f1f1f1" r="256" data-original="#f3df00" style="" class=""/><g><g><path d="m512 256c0-29.067-4.854-56.998-13.779-83.039l-120.241-120.241-121.98 54.886v252.454l-121.98 99.22 38.941 38.941c26.041 8.925 53.972 13.779 83.039 13.779 141.385 0 256-114.615 256-256z" fill="#f1f1f1" data-original="#edbe00" style="" class=""/></g></g><g><g><path d="m151 67.72v376.56h105l20-184.541-20-192.019z" fill="#ffffff" data-original="#ffffff" style="" class=""/><path d="m256 67.72h105v376.56h-105z" fill="#e3eaee" data-original="#e3eaee" style="" class=""/></g><g><path d="m181 97.72h30v30h-30z" fill="#9de1f7" data-original="#9de1f7" style="" class=""/><g><path d="m134.02 429.28v30h46.98l75-10v-20z" fill="#09607d" data-original="#09607d" style="" class=""/><path d="m256 429.28v20l75 10h46.98v-30z" fill="#07485e" data-original="#07485e" style=""/></g><path d="m301 97.72h30v30h-30z" fill="#5ecdf3" data-original="#5ecdf3" style="" class=""/><path d="m181 157.72h30v30h-30z" fill="#9de1f7" data-original="#9de1f7" style="" class=""/><path d="m301 157.72h30v30h-30z" fill="#5ecdf3" data-original="#5ecdf3" style="" class=""/><path d="m181 217.72h30v30h-30z" fill="#9de1f7" data-original="#9de1f7" style="" class=""/><path d="m301 217.72h30v30h-30z" fill="#5ecdf3" data-original="#5ecdf3" style="" class=""/><path d="m181 277.72h30v30h-30z" fill="#9de1f7" data-original="#9de1f7" style="" class=""/><path d="m301 277.72h30v30h-30z" fill="#5ecdf3" data-original="#5ecdf3" style="" class=""/></g><g><path d="m181 337.72v121.56h75l20-60.78-20-60.78z" fill="#9de1f7" data-original="#9de1f7" style="" class=""/><path d="m256 337.72h75v121.56h-75z" fill="#5ecdf3" data-original="#5ecdf3" style="" class=""/></g><g><path d="m134.02 52.72v30h121.98l10-15-10-15z" fill="#09607d" data-original="#09607d" style="" class=""/><path d="m256 52.72h121.98v30h-121.98z" fill="#07485e" data-original="#07485e" style=""/><path d="m241 127.72h15l10-15-10-15h-15z" fill="#9de1f7" data-original="#9de1f7" style="" class=""/><path d="m241 187.72h15l10-15-10-15h-15z" fill="#9de1f7" data-original="#9de1f7" style="" class=""/><path d="m256 157.72h15v30h-15z" fill="#5ecdf3" data-original="#5ecdf3" style="" class=""/><path d="m241 247.72h15l10-15-10-15h-15z" fill="#9de1f7" data-original="#9de1f7" style="" class=""/><path d="m241 307.72h15l10-15-10-15h-15z" fill="#9de1f7" data-original="#9de1f7" style="" class=""/><path d="m246.319 360.06h-20v27.464 20 29.416h20v-29.416h9.681l8-9.024-8-10.976h-9.681z" fill="#2681ff" data-original="#2681ff" style=""/><path d="m265.681 407.524v29.416h20v-29.416-20-27.464h-20v27.464h-9.681v20z" fill="#005fe0" data-original="#005fe0" style="" class=""/><g fill="#5ecdf3"><path d="m256 97.72h15v30h-15z" fill="#5ecdf3" data-original="#5ecdf3" style="" class=""/><path d="m256 217.72h15v30h-15z" fill="#5ecdf3" data-original="#5ecdf3" style="" class=""/><path d="m256 277.72h15v30h-15z" fill="#5ecdf3" data-original="#5ecdf3" style="" class=""/></g></g></g></g></g></svg>
