<?xml version="1.0" encoding="utf-8"?>
<svg version="1.1" id="Layer_1" xmlns="http://www.w3.org/2000/svg" xmlns:xlink="http://www.w3.org/1999/xlink" x="0px" y="0px"
	 viewBox="0 0 1186.6 359.3" style="enable-background:new 0 0 1186.6 359.3;" xml:space="preserve">
<g>
	<path style="fill:#FCBA30;" d="M1033.24,94.13c6.55,0,11.94-3.41,12.67-7.81l6.48-73.15c0-7.23-8.47-13.17-19.13-13.17
		s-19.09,5.94-19.09,13.17l6.46,73.15c0.71,4.4,6.11,7.81,12.63,7.81H1033.24z"/>
	<path style="fill:#FCBA30;" d="M993.7,117c3.29-5.67,3-12-0.42-14.87l-60.13-42.19c-6.24-3.62-15.62,0.74-20.95,10
		s-4.38,19.47,1.86,23.06l66.57,31c4.16,1.55,9.83-1.42,13.1-7.08L993.7,117z"/>
	<path style="fill:#FCBA30;" d="M1072.81,116.94c3.28,5.66,8.92,8.63,13.09,7.08l66.58-31c6.27-3.61,7.17-13.9,1.87-23.12
		s-14.74-13.58-21-10l-60.13,42.17c-3.44,2.83-3.69,9.2-0.42,14.87H1072.81z"/>
	<path style="fill:#FCBA30;" d="M1033.24,185.49c6.55,0,11.94,3.39,12.67,7.79l6.48,73.14c0,7.25-8.47,13.17-19.13,13.17
		s-19.09-5.92-19.09-13.17l6.46-73.14c0.71-4.4,6.11-7.79,12.63-7.79L1033.24,185.49z"/>
	<path style="fill:#FCBA30;" d="M1072.81,162.65c3.28-5.68,8.92-8.62,13.09-7.05l66.58,31c6.27,3.62,7.17,13.93,1.87,23.15
		s-14.74,13.56-21,9.95l-60.13-42.13c-3.44-2.86-3.69-9.23-0.42-14.89L1072.81,162.65z"/>
	<path style="fill:#FCBA30;" d="M993.7,162.64c3.29,5.66,3,12-0.42,14.89l-60.13,42.13c-6.24,3.61-15.62-0.76-20.95-9.95
		s-4.38-19.53,1.86-23.15l66.57-31c4.16-1.57,9.83,1.37,13.1,7.05L993.7,162.64z"/>
	<path style="fill:#FCBA30;" d="M1175.92,204.74c5.91,0.02,10.7,4.83,10.68,10.74s-4.83,10.7-10.74,10.68s-10.7-4.83-10.68-10.74
		c0.02-5.89,4.79-10.66,10.68-10.68H1175.92z M1175.79,206.57c-4.76,0.19-8.46,4.21-8.26,8.96c0.18,4.53,3.85,8.15,8.39,8.27
		c4.72,0.07,8.19-3.79,8.19-8.58c0.19-4.59-3.38-8.46-7.96-8.64c-0.1,0-0.19-0.01-0.29-0.01H1175.79z M1174,220.92h-2V210
		c1.25-0.22,2.52-0.33,3.79-0.32c1.22-0.12,2.44,0.18,3.47,0.84c1.23,0.91,1.49,2.64,0.58,3.87c-0.39,0.52-0.95,0.89-1.58,1.05v0.13
		c1.03,0.49,1.72,1.49,1.84,2.62c0.1,0.96,0.36,1.89,0.79,2.75h-2.1c-0.48-0.89-0.77-1.87-0.85-2.88c-0.26-1.18-1-1.7-2.56-1.7H1174
		V220.92z M1174,214.77h1.38c1.5,0,2.81-0.47,2.81-1.77c0-1.05-0.65-1.78-2.61-1.78c-0.53-0.01-1.06,0.04-1.58,0.14L1174,214.77z"/>
	<path style="fill:#006697;" d="M686.91,148.21c0-27.62-11.8-51.92-51.67-51.92c-20.47,0-36.72,5.75-45.59,10.87l6.5,22.2
		c8.1-5.11,21-9.35,33.24-9.35c20.22-0.05,23.54,11.45,23.54,18.82v1.75c-44.1-0.07-72,15.19-72,46.3c0,19,14.19,36.79,38.86,36.79
		c15.17,0,27.87-6,35.46-15.75H656c0,0,5,21.06,32.8,13c-1.46-8.77-1.93-18.12-1.93-29.37L686.91,148.21z M654,177.38
		c0.05,2.23-0.23,4.45-0.82,6.6c-2.55,8.45-11.29,15.59-22.23,15.59c-9.12,0-16.36-5.18-16.36-16.13
		c0-16.74,18.43-21.37,39.41-21.26V177.38z"/>
	<path style="fill:#006697;" d="M0,58.67c0,0,28.81,118.05,33.4,137.21c5.37,22.37,15,30.6,42.92,25.05l18-73.2
		c4.56-18.18,7.61-31.14,10.55-49.63h0.51c2.06,18.68,5,31.51,8.75,49.7c0,0,7.32,33.22,11.07,50.67
		c3.75,17.45,14.22,28.44,41.53,22.46l42.85-162.26H175l-14.63,70.15c-3.94,20.42-7.5,36.38-10.26,55.06h-0.49
		c-2.5-18.5-5.68-33.82-9.68-53.71l-15.24-71.5h-36l-16.3,69.7c-4.62,21.17-8.94,38.27-11.69,56.32h-0.49
		c-2.81-17-6.56-38.49-10.62-59c0,0-9.68-49.84-13.08-67L0,58.67z"/>
	<path style="fill:#006697;" d="M307.92,148.21c0-27.62-11.79-51.92-51.66-51.92c-20.47,0-36.73,5.75-45.59,10.87l6.49,22.2
		c8.11-5.11,21-9.35,33.24-9.35c20.24-0.01,23.6,11.45,23.6,18.82v1.75c-44.1-0.07-72,15.19-72,46.3c0,19,14.18,36.79,38.84,36.79
		c15.18,0,27.87-6,35.48-15.75h0.75c0,0,5,21.06,32.79,13c-1.45-8.77-1.93-18.12-1.93-29.37L307.92,148.21z M275,177.38
		c0.05,2.23-0.22,4.45-0.82,6.6c-2.55,8.45-11.29,15.59-22.23,15.59c-9.12,0-16.36-5.18-16.36-16.13
		c0-16.74,18.43-21.37,39.41-21.26V177.38z"/>
	<polygon style="fill:#006697;" points="362.85,186.48 362.85,58.67 329.9,58.67 329.9,220.93 362.85,220.93 	"/>
	<path style="fill:#006697;" d="M793.93,58.67v119.7c0,16.5,3.11,28.06,9.76,35.13c5.8,6.17,15.36,10.17,26.82,10.17
		c9.74,0,19.33-1.84,23.84-3.53l-0.42-25.74c-4.1,1.01-8.3,1.51-12.52,1.48c-11.22,0-15-7.18-15-22v-45.79h28.69V97h-28.67V58.67
		H793.93z"/>
	<path style="fill:#006697;" d="M708.88,99v121.93h34v-62.41c-0.05-3.02,0.2-6.03,0.74-9c2.51-13.08,12.51-21.43,26.86-21.43
		c3.29,0.03,6.57,0.32,9.81,0.87V97c-2.46-0.53-4.97-0.79-7.49-0.75c-12.68,0-27.11,8.19-33.17,25.74h-0.92V99H708.88z"/>
	<path style="fill:#006697;" d="M385.92,99v121.93h33.13v-71.49c-0.08-3.4,0.44-6.79,1.55-10c2.75-7.2,9.44-15.62,20.13-15.62
		c13.37,0,19.62,11.3,19.62,27.61v69.47h33.09v-72.32c-0.03-3.34,0.44-6.67,1.38-9.88c2.72-8.18,9.94-14.85,19.87-14.85
		c13.55,0,20,11.1,20,30.29v66.79h33.12v-71.79c0-37.86-19.23-52.85-40.93-52.85c-8.47-0.14-16.8,2.16-24,6.62
		c-6.17,3.9-11.43,9.08-15.44,15.18H487c-5.24-13.14-17.55-21.8-33.59-21.8c-20.62,0-29.88,10.45-35.5,19.31h-0.49V99H385.92z"/>
	<path style="fill:#006697;" d="M273.92,254.64c0.12-1,0.99-1.74,2-1.68h1.8c0.8-0.04,1.55,0.4,1.9,1.12l24.7,52.92h0.34
		l24.68-52.95c0.34-0.73,1.1-1.18,1.9-1.12H333c1.01-0.06,1.89,0.68,2,1.68L348.3,330c0.32,1.06-0.27,2.17-1.33,2.5
		c-0.22,0.07-0.44,0.09-0.67,0.08h-10.23c-0.99-0.07-1.83-0.74-2.13-1.68l-6.62-42.51H327l-19.63,44.08
		c-0.3,0.79-1.07,1.28-1.91,1.23h-2c-0.83,0.03-1.59-0.46-1.91-1.23l-19.86-44.08h-0.33l-6.51,42.51c-0.21,0.95-1.03,1.63-2,1.68
		h-10.14c-1.13,0.08-2.11-0.76-2.2-1.89c-0.02-0.23,0.01-0.46,0.07-0.69L273.92,254.64z"/>
	<path style="fill:#006697;" d="M376.9,299.85c3.38,0.04,6.75,0.53,10,1.46c0.23-6.62-4.26-9.76-9.76-9.76
		c-4.07,0.07-8.11,0.71-12,1.9c-1.68,0.57-2.69-0.67-2.91-2.24l-1.13-5.83c-0.46-1.22,0.15-2.58,1.37-3.04
		c0.1-0.04,0.21-0.07,0.32-0.1c4.89-1.63,9.99-2.5,15.14-2.58c15,0,22.1,8.41,22.1,22.54v28.5c-0.02,1.33-1.11,2.39-2.43,2.37
		c-0.09,0-0.17-0.01-0.26-0.02c-4.15,0-6.73-2.24-7.74-5.27c-4.31,3.96-9.97,6.13-15.82,6.06c-10.32,0-17.5-6.62-17.5-17.73
		C356.26,306.91,363.78,299.85,376.9,299.85z M377.24,323.41c4.6,0,8.63-3.59,9.31-5.5v-7.63c-2.42-1-5.01-1.53-7.63-1.57
		c-5.95,0-9.2,2.8-9.2,7.4C369.72,320.49,372.41,323.41,377.24,323.41z"/>
	<path style="fill:#006697;" d="M413.92,282.69c0.01-1.32,1.08-2.39,2.4-2.38c0.1,0,0.19,0.01,0.29,0.02c4.82,0,7.52,3.14,8.19,7.07
		c1.91-2.58,6.62-7.74,14.47-7.74c6.17,0,11.22,1.68,9.76,5l-3.37,7.63c-0.44,1.11-1.7,1.65-2.81,1.21
		c-0.07-0.03-0.13-0.06-0.19-0.09c-1.5-0.72-3.16-1.06-4.82-1c-4.01-0.1-7.78,1.95-9.87,5.38v32.3c0,1.91-1.23,2.47-2.92,2.47h-8.63
		c-1.34-0.05-2.42-1.13-2.47-2.47L413.92,282.69z"/>
	<path style="fill:#006697;" d="M457.33,256.55c0.09-1.33,1.14-2.38,2.47-2.47h9.08c1.34,0.05,2.42,1.13,2.47,2.47v43.86
		l17.84-18.06c0.83-0.94,2-1.5,3.25-1.57H503c1.25-0.01,2.28,0.99,2.29,2.25c0.01,0.58-0.21,1.14-0.6,1.56l-20.53,20.19l21.53,24.12
		c0.87,0.79,0.93,2.14,0.14,3.01c-0.44,0.48-1.06,0.73-1.71,0.69h-11c-0.86,0.03-1.69-0.34-2.24-1l-19.52-23.33v21.87
		c-0.01,1.36-1.11,2.46-2.47,2.47h-9.09c-1.34-0.05-2.42-1.13-2.47-2.47V256.55z"/>
	<path style="fill:#006697;" d="M535.74,279.66c13.46,0,23.78,10,23.78,24c0,0.79-0.11,2.58-0.22,3.37
		c-0.14,1.28-1.18,2.27-2.47,2.35h-33.21c0.12,6.4,5.39,12,12.9,12c4.04,0.07,7.97-1.28,11.11-3.82c1.23-1,2.58-1.12,3.36,0
		l4.38,5.84c0.88,0.82,0.92,2.19,0.11,3.07c-0.1,0.11-0.21,0.21-0.34,0.29c-5.36,4.61-12.22,7.12-19.29,7.07
		c-15.48,0-26.25-12.34-26.25-27.15C509.6,292.11,520.37,279.66,535.74,279.66z M545.39,300.19c-0.23-5.05-4.27-9-10-9
		c-6.28,0-10.32,3.82-11,9H545.39z"/>
	<path style="fill:#006697;" d="M568.49,293.34c-1.32-0.06-2.36-1.15-2.35-2.47v-7.62c-0.08-1.28,0.9-2.39,2.19-2.47
		c0.05,0,0.11,0,0.16,0h5v-14.36c0.07-1.34,1.17-2.4,2.51-2.42h9.2c1.32,0.02,2.37,1.11,2.35,2.43c0,0.01,0,0.03,0,0.04v14.36h12.12
		c1.34-0.02,2.44,1.04,2.46,2.38c0,0.03,0,0.06,0,0.09v7.62c-0.05,1.34-1.12,2.42-2.46,2.47h-12.11v20.87c0,5,2.25,7.06,5.5,7.06
		c2.26-0.05,4.49-0.47,6.62-1.23c0.97-0.53,2.19-0.16,2.71,0.81c0.09,0.17,0.16,0.35,0.2,0.54l1.46,6.73c0.34,1.22-0.29,2.51-1.46,3
		c-3.71,1.79-7.77,2.71-11.89,2.69c-10.54,0-17.16-6.84-17.16-18.62v-21.9H568.49z"/>
	<path style="fill:#006697;" d="M640.28,333.84c-4.24-0.02-8.44-0.74-12.45-2.13v25.12c-0.09,1.33-1.14,2.38-2.47,2.47h-9.08
		c-1.34-0.05-2.42-1.13-2.47-2.47v-74.14c0.01-1.33,1.1-2.39,2.42-2.38c0.09,0,0.18,0.01,0.27,0.02c4.71,0,7.29,2.8,8.08,6.62
		c4.26-4.66,10.29-7.3,16.6-7.29c14.13,0,24.79,11.44,24.79,27.14C666,322,655.76,333.84,640.28,333.84z M627.83,318.13
		c3.25,1.95,6.98,2.96,10.77,2.92c8.53,0,12.9-7,12.9-14.25s-4.15-14.35-12.23-14.35c-6.73,0-10.32,4.26-11.44,7.17L627.83,318.13z"
		/>
	<path style="fill:#006697;" d="M677.41,256.55c0.09-1.32,1.15-2.38,2.47-2.47H689c1.32,0.09,2.38,1.15,2.47,2.47v73.58
		c-0.05,1.34-1.13,2.42-2.47,2.47h-9.09c-1.34-0.05-2.42-1.13-2.47-2.47L677.41,256.55z"/>
	<path style="fill:#006697;" d="M723,299.85c3.38,0.04,6.75,0.53,10,1.46c0.22-6.62-4.26-9.76-9.76-9.76
		c-4.07,0.07-8.11,0.71-12,1.9c-1.69,0.57-2.69-0.67-2.92-2.24l-1.12-5.83c-0.46-1.22,0.15-2.58,1.37-3.05
		c0.1-0.04,0.21-0.07,0.31-0.1c4.88-1.62,9.98-2.49,15.12-2.58c15,0,22.1,8.41,22.1,22.54v28.5c-0.01,1.32-1.09,2.38-2.41,2.37
		c-0.09,0-0.19-0.01-0.28-0.02c-4.15,0-6.73-2.24-7.74-5.27c-4.31,3.96-9.96,6.12-15.81,6.06c-10.33,0-17.5-6.62-17.5-17.73
		C702.32,306.91,709.83,299.85,723,299.85z M723.34,323.41c4.6,0,8.64-3.59,9.31-5.5v-7.63c-2.42-1-5.01-1.53-7.63-1.57
		c-5.94,0-9.19,2.8-9.19,7.4c-0.05,4.38,2.64,7.3,7.46,7.3H723.34z"/>
	<path style="fill:#006697;" d="M784.31,279.66c8.08,0,14.36,3.47,19.3,8.75c1.12,1.12,0.56,2.58-0.56,3.7l-4.71,5.16
		c-1.13,1.23-2.36,0.67-3.37-0.34c-2.47-2.35-5.5-4.48-10.32-4.48c-8.08,0-13.68,6.28-13.68,14.24s5.49,14.36,13.57,14.36
		c5.72,0,8.75-3.14,11-5.72c0.83-0.93,2.24-1.08,3.25-0.34l5.05,4.26c1.24,1.13,1.8,2.36,0.9,3.71
		c-4.38,6.84-11.33,10.88-20.53,10.88c-15.14,0-27.37-11.56-27.37-27.15C756.83,291.44,768.94,279.66,784.31,279.66z"/>
	<path style="fill:#006697;" d="M837.37,279.66c13.46,0,23.78,10,23.78,24c0,0.79-0.11,2.58-0.22,3.37
		c-0.14,1.28-1.18,2.28-2.47,2.35h-33.2c0.11,6.4,5.38,12,12.9,12c4.03,0.07,7.97-1.28,11.1-3.82c1.24-1,2.58-1.12,3.37,0l4.37,5.84
		c0.88,0.82,0.92,2.2,0.1,3.08c-0.1,0.1-0.2,0.2-0.32,0.28c-5.36,4.61-12.22,7.12-19.29,7.07c-15.49,0-26.25-12.34-26.25-27.15
		C811.24,292.11,822,279.66,837.37,279.66z M847,300.19c-0.23-5.05-4.26-9-10-9c-6.29,0-10.32,3.82-11,9H847z"/>
</g>
</svg>
