<?xml version="1.0" encoding="utf-8"?>
<svg version="1.1" id="Layer_1" xmlns="http://www.w3.org/2000/svg" xmlns:xlink="http://www.w3.org/1999/xlink" x="0px" y="0px"
	 viewBox="0 0 923.08 223.11" style="enable-background:new 0 0 923.08 223.11;" xml:space="preserve">
<g>
	<g>
		<defs>
			<rect id="SVGID_3_" width="923.08" height="223.11"/>
		</defs>
		<clipPath id="SVGID_1_">
			<use xlink:href="#SVGID_3_"  style="overflow:visible;"/>
		</clipPath>
		<g style="clip-path:url(#SVGID_1_);">
			<path style="fill:#272A2B;" d="M923.08,223.11H0V0h923.08V223.11z"/>
		</g>
	</g>
	<g>
		<g>
			<path style="fill:#8DBC3B;" d="M69.52,65.16h21.59l7.43,64.9h0.23l6.74-64.9h20.45l6.4,64.9h0.23l7.54-64.9h21.14l-16,91.3
				h-23.42l-6.17-56.22h-0.23l-6.97,56.22H85.06L69.52,65.16z"/>
		</g>
		<g>
			<path style="fill:#8DBC3B;" d="M167.68,65.16h46.73v17.6H188.7v18.17h22.51v17.6H188.7v20.34h26.74v17.6h-47.76V65.16z"/>
		</g>
		<g>
			<path style="fill:#8DBC3B;" d="M224.82,65.16h21.02v73.7h22.85v17.6h-43.88L224.82,65.16z"/>
		</g>
		<g>
			<path style="fill:#8DBC3B;" d="M275.55,90.06c0-17.82,11.42-26.39,27.08-26.39c15.65,0,27.08,8.57,27.08,26.39v8.46h-21.03V88.24
				c0-3.09,0-8.34-6.06-8.34s-6.06,5.26-6.06,8.34v45.13c0,2.4,0,8.34,6.06,8.34s6.06-5.94,6.06-8.34V120h21.03v11.54
				c0,16.23-10.4,26.39-27.08,26.39c-16.68,0-27.08-10.17-27.08-26.39V90.06z"/>
		</g>
		<g>
			<path style="fill:#8DBC3B;" d="M360.11,133.37c0,2.4,0,8.34,6.06,8.34s6.06-5.94,6.06-8.34V88.24c0-3.09,0-8.34-6.06-8.34
				s-6.06,5.26-6.06,8.34V133.37z M339.09,90.06c0-17.82,11.43-26.39,27.08-26.39c15.65,0,27.08,8.57,27.08,26.39v41.48
				c0,16.23-10.4,26.39-27.08,26.39s-27.08-10.17-27.08-26.39V90.06z"/>
		</g>
		<g>
			<path style="fill:#8DBC3B;" d="M403.2,65.16h33.14l5.94,45.25h0.23l5.94-45.25h33.14v91.3h-20.34V85.49h-0.23l-11.77,70.96
				h-13.71l-11.77-70.96h-0.23v70.96H403.2V65.16z"/>
		</g>
		<g>
			<path style="fill:#8DBC3B;" d="M491.53,65.16h46.73v17.6h-25.71v18.17h22.51v17.6h-22.51v20.34h26.74v17.6h-47.76L491.53,65.16z"
				/>
		</g>
		<g>
			<path style="fill:#FFFFFF;" d="M569.69,140.91h4.34c6.97,0,7.77-3.43,7.77-12.45c0-6.28-0.8-12.34-7.31-12.34h-4.8L569.69,140.91
				z M569.69,101.26h3.88c6.63,0,7.31-4.91,7.31-10.63c0-6.4-1.37-9.94-6.51-9.94h-4.69L569.69,101.26z M548.67,65.16h29.14
				c15.31,0,22.74,5.83,22.74,21.48c0,9.6-1.37,18.05-11.54,21.48v0.23c10.28,1.83,13.82,9.48,13.82,21.02
				c0,15.31-5.6,27.08-24.34,27.08h-29.82V65.16z"/>
		</g>
		<g>
			<path style="fill:#FFFFFF;" d="M633.23,101.49h5.14c7.2,0,7.2-4.8,7.2-10.74c0-6.4,0-10.06-8.23-10.06h-4.11V101.49z
				 M612.21,65.16h27.76c18.74,0,26.62,5.6,26.62,22.05c0,10.74-1.49,17.71-12.68,21.14v0.23c7.43,1.49,12.23,6.86,12.23,14.51
				v16.11c0,6.06-0.23,14.28,2.17,17.25h-20.8c-2.4-2.97-2.4-11.2-2.4-17.25v-14.63c0-5.26-2.06-7.54-8-7.54h-3.88v39.42h-21.02
				V65.16z"/>
		</g>
		<g>
			<path style="fill:#FFFFFF;" d="M675.75,65.16h46.73v17.6h-25.71v18.17h22.51v17.6h-22.51v20.34h26.74v17.6h-47.76V65.16z"/>
		</g>
		<g>
			<path style="fill:#FFFFFF;" d="M754.36,124h10.51l-4.91-44.68h-0.23L754.36,124z M745.9,65.16h27.88l17.14,91.3h-22.05
				l-1.94-16.23h-14.74l-2.17,16.23h-21.03L745.9,65.16z"/>
		</g>
		<g>
			<path style="fill:#FFFFFF;" d="M796.42,65.16h20.34v37.36h0.34l13.94-37.36h22.28l-17.48,37.82l17.6,53.48h-22.4l-9.37-32.68
				l-4.91,7.54v25.14h-20.34L796.42,65.16z"/>
		</g>
	</g>
</g>
</svg>
