<?xml version="1.0" encoding="utf-8"?>
<svg version="1.1" id="Layer_1" xmlns="http://www.w3.org/2000/svg" xmlns:xlink="http://www.w3.org/1999/xlink" x="0px" y="0px"
	 viewBox="0 0 961.92 224" style="enable-background:new 0 0 961.92 224;" xml:space="preserve">
<g>
	<path style="fill:#1E1F1D;" d="M192.64,67.2L192.64,67.2L192.64,67.2c-24.32,0-43.52,19.84-43.52,43.52
		c0,24.32,19.84,43.52,43.52,43.52c24.32,0,43.52-19.84,43.52-43.52C236.16,86.4,216.96,67.2,192.64,67.2z M192.64,142.08
		L192.64,142.08c-17.28,0-31.36-14.08-31.36-31.36c0-17.28,14.08-31.36,31.36-31.36S224,94.08,224,110.72
		C224,128,209.92,142.08,192.64,142.08z"/>
	<path style="fill:#1E1F1D;" d="M41.6,110.08c5.76-3.2,12.8-10.24,12.8-19.2c0-12.8-10.24-22.4-24.96-22.4H2.56
		C1.28,68.48,0,69.76,0,71.04v80c0,1.28,1.28,2.56,2.56,2.56h28.8c15.36,0,26.24-9.6,26.24-23.68C56.32,118.4,48,112.64,41.6,110.08
		z M11.52,80h16.64c7.68,0,12.8,5.12,12.8,12.8c0,7.04-4.48,12.8-12.8,12.8H11.52V80z M30.08,142.08H11.52v-26.24h16.64
		c7.68,0,14.72,5.12,14.72,12.8c0,0,0,0,0,0.64C42.88,136.32,37.12,142.08,30.08,142.08z"/>
	<path style="fill:#1E1F1D;" d="M136.32,94.08c0-14.72-12.16-26.24-26.24-26.24H76.8c-1.28,0-2.56,1.28-2.56,2.56v80
		c0,1.28,1.28,2.56,2.56,2.56h7.68c1.28,0,2.56-1.28,2.56-2.56v-30.72h18.56l16,32c0.64,0.64,1.28,1.28,1.92,1.28h9.6
		c0.64,0,0.64,0,1.28-0.64c1.28-0.64,1.28-1.92,0.64-3.2L118.4,118.4C129.28,114.56,136.32,105.6,136.32,94.08z M108.8,109.44H87.04
		V80h21.76c7.68,0,14.72,6.4,14.72,14.72C123.52,103.04,117.12,109.44,108.8,109.44z"/>
	<path style="fill:#1E1F1D;" d="M430.08,68.48h-7.68c-1.28,0-2.56,1.28-2.56,2.56v57.6l0,0L367.36,67.2h-3.2
		c-1.28,0-2.56,0.64-2.56,1.92v81.28c0,1.28,1.28,2.56,2.56,2.56h7.68c1.28,0,2.56-1.28,2.56-2.56V91.52l0,0l52.48,62.72h3.2
		c1.28,0,2.56-0.64,2.56-1.92V70.4C432,69.12,431.36,68.48,430.08,68.48z"/>
	<path style="fill:#1E1F1D;" d="M344.32,68.48H336c-1.28,0-1.92,0.64-1.92,1.92l-14.72,55.68h-0.64l-19.84-56.96
		c-0.64-0.64-1.28-1.28-1.92-1.28h-1.92c-0.64,0-1.92,0.64-1.92,1.28l-19.84,56.96h-0.64L257.92,70.4
		c-0.64-0.64-1.28-1.92-1.92-1.92h-8.32c-1.92,0-2.56,1.28-1.92,3.2l23.04,81.28c0,1.28,1.28,1.92,1.92,1.92h1.92
		c0.64,0,1.92-0.64,1.92-1.28l21.12-60.16h0.64l21.12,60.16c0.64,0.64,1.28,1.28,1.92,1.28h1.92c1.28,0,1.92-0.64,1.92-1.92
		l23.04-81.28C346.88,69.76,346.24,68.48,344.32,68.48z"/>
	<path style="fill:#1E1F1D;" d="M777.6,110.08c5.76-3.2,12.8-10.24,12.8-19.2c0-12.8-10.24-22.4-24.96-22.4h-26.88
		c-1.28,0-2.56,1.28-2.56,2.56v80c0,1.28,1.28,2.56,2.56,2.56h28.8c15.36,0,26.24-9.6,26.24-23.68
		C792.96,118.4,784,112.64,777.6,110.08z M748.16,80h16.64c7.68,0,12.8,5.12,12.8,12.8c0,7.04-4.48,12.8-12.8,12.8h-16.64V80z
		 M766.72,142.08h-18.56v-26.24h16.64c7.68,0,14.72,5.12,14.72,12.8c0,0,0,0,0,0.64C779.52,136.32,773.76,142.08,766.72,142.08z"/>
	<path style="fill:#1E1F1D;" d="M842.24,68.48c-0.64-0.64-1.28-1.28-1.92-1.28h-1.28c-0.64,0-1.92,0.64-1.92,1.28L800,149.76
		c0,0.64,0,0.64,0,1.28c0,1.28,1.28,1.92,2.56,1.92h7.68c1.28,0,2.56-0.64,2.56-1.92c2.56-5.76,5.12-10.88,7.68-16.64h39.68
		l7.68,16.64c0.64,1.28,1.28,1.92,2.56,1.92h7.68c0.64,0,0.64,0,1.28,0c1.28-0.64,1.28-1.92,0.64-3.2L842.24,68.48z M824.32,124.16
		l14.72-33.28h0.64l14.72,33.28H824.32z"/>
	<path style="fill:#1E1F1D;" d="M959.36,115.2c0-1.28-0.64-2.56-1.92-2.56h-21.76l0,0c-1.28,0-1.92,1.28-1.92,2.56v7.04l0,0
		c0,1.28,1.28,1.92,2.56,1.92h12.16v13.44c-5.76,2.56-12.16,3.84-17.92,3.84c-17.28,0-30.72-14.72-30.72-31.36
		c0-17.28,13.44-31.36,30.72-31.36c7.68,0,14.72,3.2,20.48,8.32c1.28,1.28,1.92,1.28,3.2,0c1.92-1.92,3.84-3.84,5.76-5.76l0,0
		c0.64-1.28,0.64-2.56,0-3.2c-8.32-7.04-17.92-11.52-29.44-11.52l0,0c-0.64,0-0.64,0-1.28,0c-24.32,0-43.52,19.84-42.88,44.16
		c0,24.32,19.84,43.52,44.16,42.88c17.28,0,30.08-8.32,30.08-8.32c0.64-0.64,0.64-1.28,1.28-1.92
		C959.36,135.04,959.36,124.8,959.36,115.2z"/>
	<path style="fill:#1E1F1D;" d="M602.24,74.24c-7.04,3.2-12.8,11.52-12.8,19.2v0.64l25.6-12.16v-0.64
		C615.04,74.24,609.28,71.04,602.24,74.24z"/>
	<path style="fill:#1E1F1D;" d="M586.24,0c-62.08,0-112,49.92-112,112s49.92,112,112,112s112-49.92,112-112S647.68,0,586.24,0z
		 M570.24,57.6c8.96-3.84,16,0,16,8.32l-3.2,1.28c0-7.04-5.76-10.24-12.8-7.04s-12.8,11.52-12.8,19.2l-3.2,1.28
		C554.24,72.32,561.28,61.44,570.24,57.6z M633.6,136.32l-32,16l-32,16l-32-16V88.96l16,5.12l16,8.96l16-7.68v-0.64
		c0-8.96,7.04-19.2,16-23.04c8.96-3.84,16,0,16,8.32v0.64l16-7.68V136.32z"/>
</g>
</svg>
