<?xml version="1.0" encoding="utf-8"?>
<svg version="1.1" id="Layer_1" xmlns="http://www.w3.org/2000/svg" xmlns:xlink="http://www.w3.org/1999/xlink" x="0px" y="0px"
	width="100px" height="100px" viewBox="0 0 72.2 72.2" style="enable-background:new 0 0 72.2 72.2;" xml:space="preserve">
<g>
	<circle style="fill:#E8E8E8;" cx="36.1" cy="36.1" r="36.1"/>
	<circle style="fill:#FFFFFF;" cx="36.1" cy="36.1" r="35.4"/>
	<g>
		<path style="fill:#1F2044;" d="M31.4,33v5.6h-1.7v-2.2h-1.7v2.2h-1.7V33h1.7v1.9h1.7V33H31.4L31.4,33z"/>
		<path style="fill:#1F2044;" d="M31.4,33.1h-1.5V35h-1.8v-1.9h-1.5v5.4h1.5v-2.2h1.8v2.2h1.5V33.1 M31.4,38.7h-1.7v-2.2h-1.7v2.2
			h-1.7V33h1.7v1.9h1.7V33h1.7V38.7L31.4,38.7z M34.1,34.5c0.6,0,1.2,0.2,1.7,0.6c0.4,0.4,0.6,0.9,0.6,1.5c0,0.6-0.2,1.1-0.6,1.5
			c-0.4,0.4-1,0.6-1.7,0.6c-0.6,0-1.2-0.2-1.7-0.6c-0.4-0.4-0.6-0.9-0.6-1.5c0-0.4,0.1-0.7,0.3-1.1c0.2-0.4,0.5-0.6,0.9-0.8
			C33.3,34.6,33.7,34.5,34.1,34.5C34.1,34.5,34.1,34.5,34.1,34.5z M34.8,36.7c0-0.6-0.2-1-0.7-1c-0.2,0-0.4,0.1-0.5,0.3
			c-0.1,0.1-0.2,0.4-0.2,0.8c0,0.4,0.1,0.6,0.2,0.8c0.1,0.1,0.3,0.3,0.5,0.3c0.2,0,0.4-0.1,0.5-0.3C34.7,37.2,34.8,36.9,34.8,36.7z"
			/>
		<path style="fill:#1F2044;" d="M34.1,34.6c-0.4,0-0.8,0.1-1.1,0.2c-0.4,0.2-0.6,0.4-0.9,0.8c-0.1,0.3-0.3,0.6-0.3,1.1
			c0,0.6,0.2,1.1,0.6,1.4c0.4,0.4,0.9,0.6,1.7,0.6c0.6,0,1.2-0.2,1.6-0.6c0.4-0.4,0.6-0.9,0.6-1.4s-0.2-1.1-0.6-1.4
			C35.3,34.8,34.7,34.6,34.1,34.6 M34.1,37.7c-0.2,0-0.4-0.1-0.6-0.3c-0.1-0.1-0.2-0.4-0.2-0.8c0-0.4,0.1-0.6,0.2-0.8
			c0.1-0.2,0.3-0.3,0.6-0.3c0.5,0,0.8,0.4,0.8,1.1c0,0.4-0.1,0.6-0.2,0.8C34.5,37.6,34.3,37.7,34.1,37.7 M34.1,34.5
			c0.6,0,1.2,0.2,1.7,0.6c0.4,0.4,0.6,0.9,0.6,1.5c0,0.6-0.2,1.1-0.6,1.5c-0.4,0.4-1,0.6-1.7,0.6c-0.6,0-1.2-0.2-1.7-0.6
			c-0.4-0.4-0.6-0.9-0.6-1.5c0-0.4,0.1-0.7,0.3-1.1c0.2-0.4,0.5-0.6,0.9-0.8C33.3,34.6,33.7,34.5,34.1,34.5
			C34.1,34.5,34.1,34.5,34.1,34.5z M34.6,37.4c0.1-0.1,0.2-0.4,0.2-0.8c0-0.6-0.2-1-0.7-1c-0.2,0-0.4,0.1-0.5,0.3
			c-0.1,0.1-0.2,0.4-0.2,0.8c0,0.4,0.1,0.6,0.2,0.8c0.1,0.1,0.3,0.3,0.5,0.3C34.3,37.7,34.5,37.6,34.6,37.4z M40.1,36.4
			c0.3,0.2,0.4,0.5,0.4,0.9c0,0.4-0.2,0.8-0.6,1.1c-0.4,0.3-0.9,0.4-1.5,0.4c-0.7,0-1.3-0.2-1.7-0.6c-0.2-0.2-0.4-0.6-0.4-0.9h1.5
			c0.1,0.4,0.2,0.5,0.6,0.5c0.1,0,0.2,0,0.4-0.1c0.1-0.1,0.1-0.1,0.1-0.2c0-0.1-0.1-0.2-0.4-0.3l-0.9-0.2c-0.8-0.2-1.2-0.6-1.2-1.2
			c0-0.4,0.2-0.7,0.5-0.9c0.4-0.2,0.9-0.4,1.4-0.4c0.7,0,1.3,0.2,1.6,0.6c0.2,0.2,0.3,0.5,0.3,0.8h-1.4c0-0.1,0-0.2-0.1-0.3
			c-0.1-0.1-0.2-0.1-0.4-0.1H38c-0.1,0-0.1,0.1-0.1,0.2c0,0.1,0.1,0.2,0.4,0.3l0.7,0.1C39.5,36.1,39.9,36.3,40.1,36.4L40.1,36.4
			L40.1,36.4z"/>
		<path style="fill:#1F2044;" d="M38.5,34.6c-0.6,0-1.1,0.1-1.4,0.4c-0.4,0.2-0.5,0.5-0.5,0.9c0,0.6,0.4,0.9,1.2,1.2l0.9,0.2
			c0.3,0.1,0.4,0.2,0.4,0.4c0,0.1-0.1,0.2-0.1,0.3c-0.1,0.1-0.2,0.1-0.4,0.1c-0.4,0-0.6-0.1-0.6-0.5h-1.4c0,0.4,0.1,0.6,0.4,0.9
			c0.4,0.4,0.9,0.6,1.7,0.6c0.6,0,1.1-0.1,1.4-0.4c0.4-0.2,0.6-0.6,0.6-1c0-0.4-0.1-0.6-0.4-0.9c-0.2-0.1-0.5-0.3-1-0.4l-0.7-0.1
			C38.2,36,38,35.9,38,35.8c0-0.1,0-0.1,0.1-0.2c0.1-0.2,0.1-0.2,0.2-0.2c0.2,0,0.4,0,0.5,0.1c0,0.1,0.1,0.1,0.1,0.2h1.4
			c0-0.2-0.1-0.5-0.3-0.7C39.7,34.7,39.2,34.6,38.5,34.6 M38.5,34.5c0.7,0,1.3,0.1,1.6,0.5c0.2,0.2,0.3,0.5,0.3,0.8h-1.4
			c0-0.1,0-0.1-0.1-0.2c-0.1-0.1-0.2-0.1-0.4-0.1c-0.1,0-0.2,0-0.3,0.1c-0.1,0-0.1,0.1-0.1,0.2c0,0.1,0.1,0.2,0.4,0.3l0.7,0.1
			c0.4,0.1,0.8,0.2,1,0.4c0.3,0.2,0.4,0.5,0.4,0.9c0,0.4-0.2,0.8-0.6,1.1c-0.4,0.3-0.9,0.4-1.5,0.4c-0.7,0-1.3-0.2-1.7-0.6
			c-0.2-0.2-0.4-0.6-0.4-0.9h1.5c0.1,0.4,0.2,0.5,0.6,0.5c0.1,0,0.2,0,0.4-0.1c0.1-0.1,0.1-0.1,0.1-0.2c0-0.1-0.1-0.2-0.4-0.3
			L37.6,37c-0.8-0.2-1.2-0.6-1.2-1.2c0-0.4,0.2-0.7,0.5-0.9C37.4,34.6,37.9,34.5,38.5,34.5L38.5,34.5z"/>
		<path style="fill:#1F2044;" d="M42.6,34.6h0.7v1.1h-0.7v1.4c0,0.1,0,0.3,0.1,0.4c0.1,0.1,0.1,0.1,0.3,0.1h0.3v1.1
			c-0.4,0.1-0.6,0.1-0.9,0.1c-0.4,0-0.8-0.1-1.1-0.4c-0.2-0.2-0.3-0.6-0.3-1.2v-1.5h-0.7v-1.1H41v-1.2h1.6V34.6z"/>
		<path style="fill:#1F2044;" d="M42.4,33.5H41v1.2h-0.6v0.8H41v1.7c0,0.5,0.1,0.9,0.4,1.2s0.6,0.4,1.1,0.4c0.2,0,0.5,0,0.9-0.1
			v-0.9H43c-0.1,0-0.3-0.1-0.4-0.1c-0.1-0.1-0.1-0.2-0.1-0.4v-1.6h0.7v-0.9h-0.7V33.5 M42.6,34.6h0.7v1.1h-0.7v1.4
			c0,0.1,0,0.3,0.1,0.4c0.1,0.1,0.1,0.1,0.3,0.1h0.3v1.1c-0.4,0.1-0.6,0.1-0.9,0.1c-0.4,0-0.8-0.1-1.1-0.4c-0.2-0.2-0.3-0.6-0.3-1.2
			v-1.5h-0.7v-1.1H41v-1.2h1.6V34.6z"/>
		<path style="fill:#1F2044;" d="M46.5,35.6h2.3v3h-1.1l-0.1-0.5c-0.4,0.4-1.1,0.6-1.7,0.6c-0.7,0-1.4-0.3-1.9-0.8
			c-0.5-0.6-0.8-1.3-0.8-2.2s0.3-1.6,0.8-2.1c0.5-0.5,1.2-0.8,2-0.8c0.9,0,1.6,0.3,2.1,0.9c0.3,0.3,0.4,0.6,0.5,1.2H47
			c0-0.1-0.1-0.3-0.2-0.4c-0.1-0.2-0.4-0.3-0.7-0.3c-0.4,0-0.6,0.1-0.9,0.5c-0.1,0.3-0.2,0.6-0.2,1c0,0.5,0.1,0.9,0.3,1.2
			c0.2,0.3,0.5,0.5,0.9,0.5c0.3,0,0.6-0.1,0.7-0.3c0.1-0.1,0.2-0.2,0.2-0.4h-0.7L46.5,35.6L46.5,35.6z"/>
		<path style="fill:#1F2044;" d="M46.1,33c-0.8,0-1.5,0.3-2,0.8c-0.5,0.5-0.8,1.2-0.8,2.1s0.3,1.6,0.8,2.1c0.5,0.5,1.1,0.8,1.8,0.8
			c0.6,0,1.2-0.2,1.6-0.6l0.1-0.1v0.1l0.1,0.4h1v-3h-2.2v1.2h0.7v0.1C47,37,47,37.2,46.9,37.2c-0.2,0.2-0.5,0.3-0.8,0.3
			c-0.4,0-0.8-0.1-1-0.5c-0.1-0.3-0.3-0.7-0.3-1.2s0.1-0.7,0.2-1c0.2-0.4,0.5-0.5,0.9-0.5c0.3,0,0.6,0.1,0.7,0.3
			c0.1,0.1,0.1,0.2,0.2,0.4h1.6c-0.1-0.4-0.2-0.7-0.5-1C47.7,33.3,47,33,46.1,33 M46.1,32.9c0.9,0,1.6,0.3,2.1,0.9
			c0.3,0.3,0.4,0.6,0.5,1.2H47c0-0.1-0.1-0.3-0.2-0.4c-0.1-0.2-0.4-0.3-0.7-0.3c-0.4,0-0.6,0.1-0.9,0.5c-0.1,0.3-0.2,0.6-0.2,1
			c0,0.5,0.1,0.9,0.3,1.2c0.2,0.3,0.5,0.5,0.9,0.5c0.3,0,0.6-0.1,0.7-0.3c0.1-0.1,0.2-0.2,0.2-0.4h-0.8v-1.2h2.4v3h-1.1l-0.1-0.5
			c-0.4,0.4-1.1,0.6-1.7,0.6c-0.7,0-1.4-0.3-1.9-0.8c-0.5-0.6-0.8-1.3-0.8-2.2s0.3-1.6,0.8-2.1C44.7,33.2,45.3,32.9,46.1,32.9
			C46.1,32.9,46.1,32.9,46.1,32.9z M53.5,38v0.4c0,0.1,0,0.1,0.1,0.3h-1.5c-0.1-0.1-0.1-0.3-0.1-0.4l-0.4,0.3
			c-0.3,0.1-0.6,0.2-0.9,0.2c-0.4,0-0.7-0.1-1-0.3c-0.3-0.2-0.4-0.5-0.4-0.9c0-0.3,0.1-0.6,0.3-0.8c0.1-0.2,0.4-0.3,0.9-0.4l1.2-0.2
			c0.3-0.1,0.4-0.1,0.4-0.3c0-0.1-0.1-0.2-0.1-0.3c-0.1-0.1-0.2-0.1-0.4-0.1c-0.3,0-0.4,0.1-0.5,0.2c-0.1,0.1-0.1,0.1-0.1,0.3v0.1
			h-1.4c0-0.5,0.1-0.8,0.4-1c0.4-0.4,0.9-0.6,1.7-0.6c0.6,0,1.2,0.1,1.5,0.4c0.4,0.3,0.6,0.6,0.6,1.2L53.5,38L53.5,38L53.5,38z
			 M51.9,36.8L51.3,37c-0.2,0.1-0.4,0.1-0.4,0.1c-0.1,0.1-0.1,0.1-0.1,0.3c0,0.1,0.1,0.2,0.1,0.3c0.1,0.1,0.1,0.1,0.3,0.1
			c0.3,0,0.5-0.1,0.6-0.3c0.1-0.1,0.2-0.3,0.2-0.5L51.9,36.8z"/>
		<path style="fill:#1F2044;" d="M51.4,34.6c-0.7,0-1.3,0.1-1.6,0.5c-0.2,0.2-0.4,0.6-0.4,0.9h1.2l0,0c0-0.1,0.1-0.2,0.1-0.3
			c0.1-0.1,0.3-0.3,0.6-0.3c0.1,0,0.3,0,0.4,0.1c0.1,0.1,0.2,0.1,0.2,0.3s-0.1,0.3-0.5,0.4l-1.2,0.2c-0.4,0.1-0.6,0.2-0.8,0.4
			c-0.1,0.2-0.3,0.4-0.3,0.8c0,0.4,0.1,0.6,0.4,0.8c0.3,0.2,0.6,0.3,1,0.3c0.3,0,0.6-0.1,0.9-0.2c0.1-0.1,0.3-0.2,0.4-0.3L52,38v0.1
			c0,0.1,0.1,0.2,0.1,0.4h1.4c0,0-0.1-0.1-0.1-0.2v-0.4V36c0-0.6-0.1-0.9-0.5-1.2C52.5,34.7,52.1,34.6,51.4,34.6 M51.2,37.9
			c-0.1,0-0.3,0-0.4-0.1c-0.1-0.1-0.1-0.1-0.1-0.3c0-0.1,0.1-0.2,0.2-0.3c0.1,0,0.2-0.1,0.4-0.1l0.6-0.3H52v0.3
			c0,0.2-0.1,0.4-0.2,0.6C51.6,37.8,51.4,37.9,51.2,37.9 M51.4,34.5c0.6,0,1.2,0.1,1.5,0.4c0.4,0.3,0.5,0.6,0.5,1.2V38v0.4
			c0,0.1,0,0.1,0.1,0.3H52c0-0.1-0.1-0.3-0.1-0.4l-0.4,0.3c-0.3,0.1-0.6,0.2-0.9,0.2c-0.4,0-0.7-0.1-1-0.3s-0.4-0.5-0.4-0.9
			c0-0.3,0.1-0.6,0.3-0.8c0.1-0.2,0.4-0.3,0.9-0.4l1.2-0.2c0.3-0.1,0.4-0.1,0.4-0.3c0-0.1-0.1-0.2-0.1-0.3c-0.1-0.1-0.2-0.1-0.4-0.1
			c-0.3,0-0.4,0.1-0.5,0.2c-0.1,0.1-0.1,0.1-0.1,0.3v0.1h-1.4c0-0.5,0.1-0.8,0.4-1C50.1,34.7,50.7,34.5,51.4,34.5L51.4,34.5
			L51.4,34.5z M51.2,37.8c0.3,0,0.5-0.1,0.6-0.3c0.1-0.1,0.2-0.3,0.2-0.5v-0.2L51.4,37l-0.4,0.1c-0.1,0.1-0.1,0.1-0.1,0.3
			c0,0.1,0.1,0.2,0.1,0.3C50.9,37.8,51,37.8,51.2,37.8z M55.6,34.6h0.8v1.1h-0.8v1.4c0,0.1,0.1,0.3,0.1,0.4c0.1,0.1,0.2,0.1,0.4,0.1
			h0.4v1.1c-0.4,0.1-0.6,0.1-0.9,0.1c-0.4,0-0.9-0.1-1.1-0.4c-0.2-0.2-0.4-0.6-0.4-1.2v-1.5h-0.6v-1.1h0.5v-1.2h1.5L55.6,34.6
			C55.6,34.6,55.6,34.6,55.6,34.6z"/>
		<path style="fill:#1F2044;" d="M55.6,33.5h-1.4v1.2h-0.6v0.8h0.6v1.7c0,0.5,0.1,0.9,0.3,1.2c0.2,0.3,0.6,0.4,1,0.4
			c0.2,0,0.6,0,0.8-0.1v-0.9h-0.2c-0.1,0-0.3-0.1-0.4-0.1c-0.1-0.1-0.1-0.2-0.1-0.4v-1.6h0.7v-0.9h-0.7V33.5 M55.7,34.6h0.8v1.1
			h-0.8v1.4c0,0.1,0.1,0.3,0.1,0.4c0.1,0.1,0.2,0.1,0.4,0.1h0.4v1.1c-0.4,0.1-0.6,0.1-0.9,0.1c-0.4,0-0.9-0.1-1.1-0.4
			c-0.2-0.2-0.4-0.6-0.4-1.2v-1.5h-0.6v-1.1h0.4v-1.2h1.5L55.7,34.6C55.7,34.6,55.7,34.6,55.7,34.6z M58.8,34.5
			c0.6,0,1.2,0.2,1.7,0.6c0.4,0.4,0.6,0.9,0.6,1.5c0,0.6-0.2,1.1-0.6,1.5c-0.4,0.4-1,0.6-1.7,0.6s-1.2-0.2-1.7-0.6s-0.6-0.9-0.6-1.5
			c0-0.4,0.1-0.7,0.3-1.1c0.2-0.4,0.5-0.6,0.9-0.8C58,34.6,58.4,34.5,58.8,34.5z M59.5,36.7c0-0.6-0.2-1-0.7-1
			c-0.2,0-0.4,0.1-0.5,0.3c-0.1,0.1-0.2,0.4-0.2,0.8c0,0.4,0.1,0.6,0.2,0.8c0.1,0.1,0.3,0.3,0.5,0.3c0.2,0,0.4-0.1,0.5-0.3
			C59.4,37.2,59.5,36.9,59.5,36.7z"/>
		<path style="fill:#1F2044;" d="M58.8,34.6c-0.4,0-0.8,0.1-1.1,0.2c-0.4,0.2-0.6,0.4-0.9,0.8c-0.2,0.3-0.3,0.6-0.3,1.1
			c0,0.6,0.2,1.1,0.6,1.4c0.4,0.4,0.9,0.6,1.7,0.6c0.6,0,1.2-0.2,1.6-0.6c0.4-0.4,0.6-0.9,0.6-1.4s-0.2-1.1-0.6-1.4
			C60,34.8,59.5,34.6,58.8,34.6 M58.7,37.7c-0.2,0-0.4-0.1-0.6-0.3c-0.1-0.1-0.2-0.4-0.2-0.8c0-0.4,0.1-0.6,0.2-0.8
			c0.1-0.2,0.3-0.3,0.6-0.3c0.5,0,0.8,0.4,0.8,1.1c0,0.4-0.1,0.6-0.2,0.8C59.2,37.6,58.9,37.7,58.7,37.7 M58.8,34.5
			c0.6,0,1.2,0.2,1.7,0.6c0.4,0.4,0.6,0.9,0.6,1.5c0,0.6-0.2,1.1-0.6,1.5c-0.4,0.4-1,0.6-1.7,0.6s-1.2-0.2-1.7-0.6s-0.6-0.9-0.6-1.5
			c0-0.4,0.1-0.7,0.3-1.1c0.2-0.4,0.5-0.6,0.9-0.8C58,34.6,58.4,34.5,58.8,34.5C58.8,34.5,58.8,34.5,58.8,34.5z M59.2,37.4
			c0.1-0.1,0.2-0.4,0.2-0.8c0-0.6-0.2-1-0.7-1c-0.2,0-0.4,0.1-0.5,0.3C58.1,36,58,36.3,58,36.7c0,0.4,0.1,0.6,0.2,0.8
			c0.1,0.1,0.3,0.3,0.5,0.3C58.9,37.7,59.2,37.6,59.2,37.4z M64.5,36c-0.3-0.1-0.5-0.1-0.6-0.1c-0.3,0-0.6,0.1-0.7,0.3
			c-0.1,0.1-0.3,0.4-0.3,0.6v1.9h-1.5v-4.1h1.5v0.6c0.4-0.4,0.7-0.6,1.2-0.6c0.1,0,0.4,0,0.5,0.1C64.5,34.6,64.5,36,64.5,36z"/>
		<path style="fill:#1F2044;" d="M64,34.6c-0.4,0-0.9,0.2-1.2,0.6l-0.1,0.1v-0.7h-1.4v3.9h1.5v-1.7c0-0.3,0.1-0.6,0.3-0.7
			c0.2-0.2,0.5-0.3,0.8-0.3c0.1,0,0.4,0,0.6,0.1v-1.3C64.3,34.6,64.1,34.6,64,34.6 M64,34.5c0.1,0,0.2,0,0.5,0.1V36
			c-0.2-0.1-0.5-0.1-0.6-0.1c-0.3,0-0.6,0.1-0.7,0.3c-0.1,0.1-0.3,0.4-0.3,0.6v1.9h-1.5v-4.1h1.5v0.6C63.2,34.7,63.6,34.5,64,34.5z"
			/>
	</g>
	<g>
		<path d="M21.3,36L21.3,36l-1,1.4l-0.6,0.9c-0.6,0.8-0.2,1.4,0.4,2.1l0.1,0.1h0.1c0.4,0.1,0.7,0.1,1.1,0h0.1l0.1-0.1
			c0.5-0.5,0.6-1.1,0.4-1.7v-0.1c0.7-0.6,1.4-1.4,1.8-2.3c0.1-0.2,0.2-0.4,0.1-0.6c0-0.2-0.2-0.4-0.4-0.5c-0.6-0.6-1.2-1.4-1.9-1.9
			c-0.5-0.4-1.2-0.6-1.7-0.5c-0.1,0-0.3,0.1-0.4,0.2l0,0l0,0c-0.1,0.1-0.1,0.4-0.1,0.6C19,34.7,20.6,35.6,21.3,36"/>
		<path d="M21.5,35.8c0.2-0.2,0.5-0.4,0.8-0.2c-0.7,0.1-1.5,1.7-2.3,3c-0.4,0.6-0.1,1.2,0.4,1.7c0.2,0,0.6,0.1,0.9,0
			c0.4-0.4,0.4-0.9,0.3-1.5l-0.4,0.4c0.2,0.4,0.1,0.7-0.1,0.9c0.1-0.2,0.1-0.6-0.1-0.9l-0.5,0.2c1.2-0.9,2.3-2,2.9-3.2
			c0.2-0.5,0.2-0.4-0.1-0.8c-1.6-1.8-3-2.8-3.8-2.1C19,34.1,19.9,34.9,21.5,35.8"/>
		<path d="M21.4,38.7c0.2-0.9,0.4-1.8,0.4-2.7c-0.6,0.6-1.2,1.7-1.7,2.6c-0.4,0.6-0.1,1.2,0.4,1.7c0.2,0,0.6,0.1,0.9,0l0.1-0.2
			c0-0.4,0-0.7-0.1-1.1l-0.1,0.1c0.2,0.4,0.1,0.7-0.1,0.9c0.1-0.2,0.1-0.6-0.1-0.9l-0.5,0.2L21.4,38.7 M21.6,35.7
			c0-0.6-0.1-1.6-0.4-2.2c-0.7-0.4-1.3-0.6-1.8-0.2v0.9C19.8,34.7,20.5,35.2,21.6,35.7C21.5,35.7,21.5,35.7,21.6,35.7z M20.4,44.5
			c-0.4-0.9-0.2-1.9-0.2-2.9v-0.6l-0.4,0.4L18,43.1L18,43.1v0.1c0.1,0.4,0.1,0.8,0.1,1.2c0,0.3-0.1,0.6,0.1,0.9
			c0.1,0.2,0.2,0.4,0.4,0.5c0.1,0.1,0.4,0.2,0.6,0.2c0.3,0.1,0.6,0.1,0.9,0.1c0.4,0,0.7-0.1,1.1-0.2l0.1-0.1v-0.1
			c0.1-0.4-0.1-0.7-0.4-1L20.4,44.5"/>
		<path d="M19.9,41.6c0,0.9-0.1,2.1,0.3,3c0.4,0.3,0.8,0.5,0.8,1.2c-0.8,0.4-2.2,0.1-2.4-0.1c-0.6-0.5-0.1-1.2-0.4-2.5L19.9,41.6"/>
		<path d="M19.9,41.6v1.6c-0.5,0.4-1,0.6-1.6,0.8c0-0.2,0-0.5-0.1-0.8L19.9,41.6"/>
		<path d="M18.7,43.1v2.1c0,0.7,1.6,0.8,2.3,0.6l0,0c-0.8,0.4-2.2,0.1-2.4-0.1c-0.6-0.5-0.1-1.2-0.4-2.5l0.1-0.1L18.7,43.1
			C18.7,43.1,18.7,43.1,18.7,43.1z"/>
		<path d="M20.3,46.2c-0.1-0.4-0.3-0.8-0.8-1c0.4,0.3,0.5,0.6,0.4,1H20.3 M20.9,46.2c-0.1-0.4-0.3-0.8-0.8-1.1
			c0.4,0.3,0.5,0.6,0.4,1L20.9,46.2 M18.3,44L18.3,44 M18.7,43.1v0.7L18.3,44v-0.4v-0.1v-0.1v-0.1v-0.1l0.1-0.1
			C18.4,43.1,18.7,43.1,18.7,43.1L18.7,43.1z M12.7,38.2c0,0.1,0,0.1-0.1,0.3c-0.1,0.1-0.1,0.1-0.1,0.4s0.2,0.3,0.4,0.4
			c0.2,0.1,0.5,0.2,0.8,0.2c0.2,0,0.4,0.1,0.6-0.1c0.1-0.2,0-0.4-0.1-0.6c-0.1-0.2-0.2-0.4-0.3-0.6c-0.1-0.2-0.4-0.6-0.7-0.5
			C12.7,37.7,12.7,38,12.7,38.2"/>
		<path d="M12.9,38.2c0-0.4,0.1-0.5,0.6,0.1c0.1,0.1,0.2,0.3,0.3,0.5c0.2,0.4,0.3,0.4-0.1,0.4L12.9,39c-0.3-0.1-0.2-0.1-0.1-0.4
			C12.9,38.5,12.9,38.4,12.9,38.2"/>
		<path d="M12.9,38.2c0-0.1,0-0.3,0.1-0.4c0.1,0.4,0.1,0.7,0.1,1.2C13.1,39,13,39,12.9,39c-0.3-0.1-0.2-0.1-0.1-0.4
			C12.9,38.5,12.9,38.4,12.9,38.2 M10.9,38c-0.1,0.1-0.1,0.3,0,0.4c0.1,0.2,0.4,0.3,0.6,0.4c0.1,0.1,0.3,0.1,0.4,0.1
			c0.1,0,0.4,0,0.5-0.1c0.1-0.2-0.1-0.4-0.1-0.5C12.2,38,12,37.8,12,37.7l-0.3-0.4c-0.1-0.1-0.2-0.2-0.4-0.1
			C10.9,37.3,11,37.7,10.9,38C10.9,37.9,10.9,38,10.9,38"/>
		<path d="M11.1,38.1c0.2-0.4-0.1-1.1,0.6-0.3l0.3,0.5c0.1,0.3,0.2,0.4-0.1,0.3c-0.1,0-0.2,0-0.4-0.1C11.2,38.4,11,38.3,11.1,38.1"
			/>
		<path d="M11.1,38.1c0.1-0.3,0.1-0.6,0.1-0.6c0.1,0.4,0.1,0.7,0.1,1.1C11.1,38.4,11,38.3,11.1,38.1 M9.2,37.7V38
			c0,0.1,0,0.3,0.1,0.4c0.1,0.1,0.3,0.1,0.4,0.1h0.5c0.2,0,0.4-0.1,0.5-0.3c0.1-0.2-0.1-0.4-0.3-0.6c-0.1-0.1-0.1-0.1-0.3-0.2
			c-0.1-0.1-0.3-0.2-0.4-0.3c-0.1-0.1-0.4-0.1-0.4,0C9,37.2,9.2,37.5,9.2,37.7L9.2,37.7 M9.5,37.7c0-0.4-0.4-0.8,0.5-0.2l0.2,0.2
			c0.2,0.2,0.4,0.4,0,0.4H9.8c-0.4,0-0.4,0-0.2-0.2L9.5,37.7"/>
		<path d="M9.5,37.7c0-0.2-0.1-0.4-0.1-0.5c0.2,0.3,0.3,0.5,0.4,1H9.7c-0.4,0-0.4,0-0.2-0.2L9.5,37.7 M13.8,30.4l-1.1,0.9
			c-0.2,0.2-0.4,0.6-0.3,0.8c0.1,0.3,0.6,0.3,0.8,0.4c0.1,0,0.1,0.1,0.2,0.1c-0.2,0.1-0.4,0.3-0.6,0.4c-0.1,0.1-0.3,0.4-0.4,0.5
			c-0.1,0.1-0.1,0.4-0.1,0.5c0.1,0.1,0.2,0.2,0.4,0.2l0.4,0.1c0.4,0.1,0.6,0.2,0.8,0.4l0.6,0.8l-0.2-1L14,32.5v-0.1l0.1-1.4l0.1-0.4
			l0.7-2.3l0.2-0.6l-0.6,0.3c-0.4,0.2-0.9,0.5-1.4,0.8c-0.1,0.1-0.4,0.2-0.4,0.4c-0.1,0.1-0.2,0.3-0.1,0.4c0.1,0.2,0.2,0.3,0.4,0.4
			s0.2,0.1,0.4,0.2C13.6,30.2,13.7,30.2,13.8,30.4"/>
	</g>
	<path style="fill:#1A2E4E;" d="M10,38c-0.6,0.1-1.6,0.5-1.6,1.2c0,0.1,0.1,0.2,0.4,0.1c1.2-0.1,1.9,0.4,2.7,1.2
		c0.9,0.9,1.7,2.2,2.7,2.9c1.7,1.2,3.8,0.6,5.1-0.8c2.2-2.4,1.8-6.7,1.7-7.3c-0.4-4.5-4.2-4.5-6.3-6.8c-1.6,2-1.1,4.5-0.4,6.3
		c0.4,1.1,1.1,1.8,0.9,3s-1.3,1.4-3,0.6C11.3,38,10.6,37.9,10,38"/>
	<g>
		<path d="M14.7,28.6l-0.1,0.2c-1.2,1.8-1,4-0.2,6.1c0.2,0.6,0.6,1.1,0.8,1.7c0.1,0.4,0.1,0.8,0.1,1.2c-0.1,0.3-0.2,0.6-0.4,0.8
			c-0.3,0.2-0.6,0.3-1,0.3c-0.5,0-1-0.3-1.4-0.6c-1.2-0.6-3.2-0.9-4.2,0.2c-0.2,0.2-0.4,0.5-0.4,0.7v0.2c0.2,0.1,0.4,0,0.6-0.1
			C8.9,39,9.2,39,9.9,39.2c0.6,0.2,1.1,0.7,1.5,1.2l1.1,1.2c0.5,0.6,1.1,1.2,1.7,1.7c1.7,1.2,3.8,0.6,5.1-0.8
			c1.1-1.2,1.5-2.7,1.7-4.3c0.1-0.6,0.1-1.3,0.1-1.9c0-0.4,0-0.7-0.1-1.1c-0.1-1-0.4-2-1.1-2.8c-0.5-0.6-1.2-1.2-1.9-1.7
			c-1.1-0.6-2.2-1.2-3.1-2.1C15,28.6,14.7,28.6,14.7,28.6z"/>
		<path d="M14.8,29.1c0.9,0.9,2,1.4,3.1,2.1c0.6,0.4,1.3,0.9,1.8,1.6c0.6,0.8,0.9,1.7,1.1,2.7c0,0.4,0.1,0.6,0.1,1l-0.1,1.9
			c-0.1,1.4-0.6,3-1.7,4.2c-1.2,1.4-3.2,1.9-4.8,0.7c-0.6-0.4-1.2-1.1-1.7-1.7l-1.1-1.2c-0.5-0.5-1-0.9-1.6-1.2
			c-0.7-0.3-1.2-0.2-1.8,0.2c-0.1,0.1-0.3,0.1-0.2,0.1C8,39.2,8.2,39,8.3,38.9c0.9-1.1,2.7-0.8,3.8-0.2c0.5,0.3,1,0.6,1.6,0.6
			c0.4,0,0.9-0.1,1.2-0.4c0.3-0.2,0.4-0.6,0.5-0.9c0.1-0.5,0.1-0.9-0.1-1.4c-0.2-0.6-0.6-1.2-0.8-1.7C13.9,33,13.6,30.8,14.8,29.1"
			/>
		<path d="M14.8,29.1l0.1,0.1l0,0l0.1,0.1h0.1l0.1,0.1v0.1l0,0l0,0c-0.6,0.9-0.7,1.8-0.7,2.6c0.1,0.9,0.9,3.1,1.3,5.1
			c0.2,1.3,0.4,3.5-1.5,3c-2.4-1.4-5-2.5-6.3-0.5c0.1-0.3,0.2-0.5,0.4-0.6c0.9-1.1,2.7-0.8,3.8-0.2c0.5,0.3,1,0.6,1.6,0.6
			c0.4,0,0.9-0.1,1.2-0.4c0.3-0.2,0.4-0.6,0.5-0.9c0.1-0.5,0.1-0.9-0.1-1.4c-0.2-0.6-0.6-1.2-0.8-1.7C13.9,33,13.6,30.8,14.8,29.1
			C14.8,29.1,14.8,29.1,14.8,29.1z"/>
		<path d="M15.9,33.8c-0.1,0.9-0.2,1.8-0.6,2.7l0,0c-0.1-0.4-0.4-0.9-0.6-1.3L15.9,33.8z"/>
		<path d="M14.9,34.7l0.3,1.2l-0.2,0.7v-0.4l0,0V36l0,0v-0.1l0,0v-0.1l0,0v-0.1l0,0v-0.1h-0.1v-0.1l0,0v-0.1l0,0l0,0l0,0l0,0
			l-0.1-0.1l0,0C14.7,35.5,14.9,34.7,14.9,34.7z M9,39c1.4-0.4,2.7,0.1,3.8,1.2c0.8,0.8,1.5,1.5,2.7,1.2c0.4-0.1,0.6-0.4,0.9-0.6
			c0.4-0.4,0.7-0.9,0.9-1.4c0.4-1,0.2-2.2-0.1-3.2c-0.2-0.8-0.5-1.5-0.9-2.3c-0.4-0.7-0.8-1.8-0.1-2.6c0.2-0.3,0.5-0.4,0.9-0.6
			l0.8,0.5c0.6,0.4,1.3,0.9,1.8,1.6c0.6,0.8,0.9,1.7,1.1,2.7l0.1,1l-0.1,1.9c-0.1,1.4-0.6,3-1.7,4.2c-1.2,1.4-3.2,1.9-4.8,0.7
			c-0.6-0.4-1.2-1.1-1.7-1.7l-1-1.2C10.8,39.6,10.1,39,9,39"/>
	</g>
	<path style="fill:#FFCD05;" d="M10,39.2c0.9,0,1.8,0.5,2.7,1.2c0.9,0.8,1.6,1.7,3,1.2c0.4-0.1,0.7-0.4,1.1-0.6
		c1.9-1.9,1.1-5.1-0.1-7.3c-0.9-1.9-0.4-2.6,0.8-2.9l0.5,0.3c0.6,0.4,1.3,0.9,1.8,1.6c0.6,0.8,0.9,1.7,1.1,2.7l0.1,1
		c0,0.6,0,1.3-0.1,1.9c-0.1,1.4-0.6,3-1.7,4.2c-1.2,1.4-3.2,1.9-4.8,0.7c-0.6-0.4-1.2-1.1-1.7-1.7l-1.1-1.2
		C11.1,39.9,10.6,39.4,10,39.2"/>
	<path style="fill:#FEEA00;" d="M17,31c-0.9,0.6-0.6,1.5-0.2,2.5c1,2.2,2.5,5.8-0.1,7.9c-0.4,0.4-0.9,0.4-1.4,0.5
		c-1.4,0.1-2.5-0.9-3-1.7l0.4,0.4c0.9,0.8,1.6,1.7,3,1.2c0.4-0.1,0.7-0.4,1.1-0.6c1.9-1.9,1.1-5.1,0-7.3C15.8,32.1,16.2,31.3,17,31"
		/>
	<g>
		<path d="M14.4,43.3v-1.2v-0.4c0.4,0.1,0.7,0.1,1.2-0.1c0.2-0.1,0.4-0.1,0.6-0.3c0.1,0.9,0.5,1.8,1.6,1.4c0,0.2-1.3,0.8-1.4,1
			C15.7,43.9,15,43.7,14.4,43.3"/>
		<path d="M11.6,40.4l0.5,0.4l0.9,0.7c0.6,0.9,2.5,2.3,4.2,1.7c0.7-0.2,1.5-0.9,1.9-1.7c0.4-0.8,0.9-1.7,0.9-2.7
			c0.2-0.8,0.1-1.8,0-2.7c0.1-0.7-0.1-1.4-0.4-2.1c-0.2-0.7-0.4-1.6-0.9-2.3c0.4,0.3,0.7,0.6,1,1c0.6,0.8,0.9,1.7,1.1,2.7l0.1,1
			l-0.1,1.9c-0.1,1.4-0.6,3-1.7,4.2c-1.2,1.4-3.2,1.9-4.8,0.7c-0.6-0.4-1.2-1.1-1.7-1.7L11.6,40.4 M14.7,28.6
			c-0.4,0.4-0.6,0.9-0.8,1.5l-0.2-0.2c-0.5-0.4-1.1-0.3-0.1-1l1.3-0.8L14.7,28.6 M14.1,34.4c-0.2-0.1-0.4-0.3-0.8-0.4
			c-0.6-0.1-1,0.1-0.2-0.9c0.1-0.2,0.4-0.4,0.6-0.5C13.9,33.3,13.9,33.9,14.1,34.4z M13.7,32.5c-0.4-0.5-1.6-0.1-0.8-1
			c0.2-0.3,0.6-0.6,0.9-0.8C13.7,31.2,13.7,31.9,13.7,32.5z"/>
		<path d="M13.8,32.8v-0.1c-0.2,0.1-0.4,0.3-0.6,0.5c-0.7,0.9-0.4,0.7,0.1,0.8C12.8,33.5,13.3,33.2,13.8,32.8 M13.6,28.9
			c-1,0.7-0.4,0.6,0.1,1l0.2,0.2l0,0c-0.1-0.1-0.1-0.3-0.3-0.4c-0.4-0.4,0.1-0.9,0.8-1.4C14.5,28.4,13.6,28.9,13.6,28.9z M13.9,30.6
			c-0.3,0.3-0.6,0.6-0.7,0.9c-0.1,0.2,0,0.2,0.3,0.6l0.1,0.1c-0.4-0.3-1.4-0.1-0.6-0.9C13.1,31.1,13.5,30.9,13.9,30.6L13.9,30.6z
			 M16.7,34.3l0.1,0.3l0.1-0.1c0.6-0.4,1.4-0.4,2.1-0.4c0.4,0,0.9,0.1,1.4,0.4l0.1,0.1l0.1-0.3l-0.1-0.1c-0.4-0.2-0.9-0.4-1.5-0.4
			C18.4,33.8,17.5,33.9,16.7,34.3C16.9,34.2,16.7,34.3,16.7,34.3z M17.5,36.5l0.1,0.3l0.1-0.1c0.6-0.4,1.4-0.4,2.1-0.4
			c0.4,0,0.8,0.1,1.2,0.3v-0.4c-0.4-0.1-0.8-0.2-1.2-0.2C19.1,36,18.2,36.1,17.5,36.5C17.5,36.4,17.5,36.5,17.5,36.5z M17.5,38.9
			v0.2l0.1-0.1c0.9-0.4,2.3-0.3,3.1,0.2h0.1l0.1-0.1v-0.1c-0.1,0,0-0.1-0.1-0.1c-0.9-0.6-2.4-0.6-3.2-0.2
			C17.6,38.8,17.5,38.9,17.5,38.9z M16.9,40.4l-0.2,0.2l0.1,0.1c0.7,0.7,2.2,1.2,3.2,0.9c0.1,0,0-0.1,0.1-0.1l0.1-0.1v-0.2l-0.1,0.1
			c-0.9,0.3-2.4-0.1-3-0.8C17,40.4,16.9,40.4,16.9,40.4z M15.6,41.5l-0.3,0.1l0.1,0.1c0.2,0.5,0.6,0.9,1.1,1.2
			c0.6,0.4,1.4,0.6,2,0.4l0.1-0.1v-0.2c-0.1,0.1-0.3,0.1-0.5,0.1c-0.5,0-1.1-0.1-1.5-0.4c-0.4-0.2-0.8-0.6-0.9-1.1L15.6,41.5
			L15.6,41.5z M13.4,41l-0.2-0.2l-0.1,0.1c-0.3,0.4-0.4,0.9-0.1,1.4l0.1,0.1l0.3-0.1c-0.1-0.2-0.2-0.4-0.1-0.8
			C13.2,41.3,13.3,41.2,13.4,41L13.4,41z"/>
		<path d="M12.6,40l-0.2-0.1L12.3,40c-0.3,0.4-0.4,0.9-0.1,1.4l0.1,0.1h0.2c-0.1-0.1-0.1-0.4-0.1-0.5c0-0.2,0-0.4,0.2-0.6
			C12.5,40.2,12.6,40,12.6,40z M13.9,44.7c-0.4,0.2-0.7,0.6-0.8,1.1c-0.1,0.4,0,0.9,0.4,1.2c0.1,0.1,0.1,0.1,0.2,0.1
			c0.3,0.1,0.5,0,0.8,0c0.4-0.1,1.1-0.4,1.4-0.6c0.1-0.1,0.2-0.2,0.2-0.4v-0.6c-0.1-0.2-0.1-0.4-0.1-0.7v-0.6
			c0.1-0.3,0.1-0.5,0.1-0.8c0-0.1,0.1-0.4,0.1-0.5c0.3-0.9,0.4-1.7-0.1-2.2c-0.4-0.6-1.9-0.2-2,1.2v0.9v0.9C14,44,14,44.4,13.9,44.7
			"/>
		<path d="M14.6,40.8c-0.3,0.5-0.2,1.4-0.2,1.9c0,0.7,0,1.5-0.2,2.2c-1,0.4-0.9,1.7-0.4,1.8c0.7,0.1,1.7-0.3,1.9-0.6
			c0.4-0.4,0.1-0.6,0.1-1.4c0-0.6,0.1-1.3,0.3-1.9c0.3-0.9,0.6-2.3-0.5-2.5C15.2,40.2,14.8,40.4,14.6,40.8"/>
		<path d="M14.6,40.8c-0.3,0.5-0.2,1.4-0.2,1.9c0,0.7,0,1.5-0.2,2.2c-0.9,0.4-0.9,1.7-0.4,1.8c0.1-1.2,0.5-1.9,1.4-1.8
			c-0.2-0.1-0.4-0.1-0.6-0.1c0.3-1.5-0.3-3.9,0.9-4.5C15,40.4,14.8,40.4,14.6,40.8"/>
		<path d="M14.2,46.8c0-0.6,0.1-1.1,0.6-1.4c-0.4,0.4-0.4,0.8-0.4,1.2C14.4,46.8,14.4,46.8,14.2,46.8 M13.2,46.8
			c0-0.6,0.1-1.1,0.6-1.4c-0.4,0.4-0.4,0.8-0.4,1.2C13.4,46.7,13.3,46.7,13.2,46.8 M13.9,38.6c-0.1,0.6,0.1,1.2,0.6,1.7h0.1h0.1
			c0.4,0,0.7-0.1,1.1-0.2h0.1l0.1-0.1c0.5-0.7,0.7-1.4,0-2.1l-0.7-0.8c-0.4-0.4-0.5-0.9-0.9-1.3c0.2-0.2,1.9-0.7,1.7-2.4
			c0-0.2-0.2-0.6-0.4-0.7l0,0l0,0c-0.1-0.1-0.3-0.1-0.5-0.1c-0.6-0.1-1.2,0.4-1.7,0.7c-0.6,0.6-1.2,1.4-1.7,2.2
			c-0.1,0.1-0.3,0.4-0.3,0.6c0,0.2,0.1,0.4,0.3,0.6C12.3,37.4,13.1,38,13.9,38.6C13.9,38.6,13.9,38.6,13.9,38.6z"/>
		<path d="M14,35.6c-0.3-0.1-0.8-0.2-1.1,0c1.5,0,1.6,1.4,2.8,2.5c0.6,0.6,0.4,1.2-0.1,1.7c-0.2,0.1-0.6,0.2-0.9,0.2
			c-0.5-0.4-0.6-0.9-0.5-1.4l0.4,0.3c-0.1,0.5,0,0.7,0.3,0.9c-0.2-0.2-0.2-0.4,0-0.8c0.1,0.1,0.4,0.1,0.5,0.1
			c-1.4-0.6-2.7-1.7-3.4-2.7c-0.4-0.4-0.3-0.4,0-0.9c0.7-1.1,1.4-1.9,1.9-2.5c0.3-0.2,1.2-1,1.7-0.6C17,33.6,15.1,35.2,14,35.6"/>
		<path d="M14.5,38.8c-0.1,0.4,0,0.8,0.2,1.2c-0.4-0.4-0.6-0.9-0.5-1.4L14.5,38.8 M15.2,39c-0.2,0.1-0.3,0.3-0.4,0.5
			c0-0.1,0-0.4,0.1-0.6C15,39,15.2,39,15.2,39z M12.8,34.9c-0.5,0.8-0.7,0.8-0.1,1.6c0.6,0.8,1.5,1.6,2.5,2.5
			c-1.3-0.6-2.5-1.6-3.2-2.6c-0.4-0.4-0.3-0.4,0-0.9c0.7-1.1,1.4-1.9,1.9-2.5c0.1-0.1,0.4-0.3,0.6-0.4
			C13.9,33.3,13.3,34.1,12.8,34.9z M20.3,31.8h-0.1c-0.6,0.1-1.2-0.3-1.7-0.6c-0.9-0.4-1.7-1.2-2.3-2l-0.7-1.2l0.1,1.4
			c0,0.2,0.2,0.6,0.3,0.8c0.4,0.8,1,1.5,1.7,2.1l0,0l1.9,0.6l1.6-0.3l-0.6-1.1L20.3,31.8C20.3,31.8,20.3,31.8,20.3,31.8z M23,31
			l-0.9,0.5l-0.2,0.1l0.1,0.2c0.1,0.1,0.1,0.2,0.1,0.4c0,0.2,0.1,0.4,0.3,0.5c0.1,0,0.2,0,0.3-0.1c0.1-0.1,0.1-0.1,0.1-0.2
			c0.1-0.4,0.2-0.6,0.1-1.1C23.1,31.3,23,31,23,31z"/>
		<path d="M22,29.7c-0.1-0.2-0.4-0.4-0.7-0.4l0,0c0.1-0.6,0-2.7-0.9-2.9c-0.2-0.1-0.5,0.1-0.6,0.2l0,0c-0.6-0.3-0.9-0.4-1.4-0.5
			c-0.6-1.2-1.8-1.4-2.6,0.1c-0.3,0.6-0.5,1.4-0.7,2l-0.1,0.1c-0.1,0.1-0.2,0.1-0.3,0.2c-0.4,0.4-0.4,0.8-0.4,1.2
			c0.1,1,1.2,2,1.9,2.7c0.4,0.4,0.9,0.8,1.4,1.2c0.7,0.5,1.7,1.1,2.5,1.4c0.9,0.4,0.9,0,1.7-0.1c0.9-0.1,1.2-0.8,0.9-1.4
			c-0.2-0.5-0.6-0.7-1-1c-0.1-0.1-0.4-0.1-0.5-0.4c0.5-0.1,1.2-0.1,1.7-0.2c0.7-0.2,0.9-1.5,0.4-2C23,29.4,22.5,29.4,22,29.7
			C22,29.7,22,29.7,22,29.7z"/>
		<path d="M20.1,31.2c-0.9,0.1-1.3-1.2-0.5-1.7c0.7-0.4,1.8,0.4,2.2,0.1c-0.1-0.1-0.4-0.3-0.6-0.4c-0.4-0.1-0.6-0.2-1.2-0.3
			c0.2,0,0.5,0,0.7,0.1c-0.9-0.5-1.9-0.6-3-0.1c0.6-0.6,1.7-0.7,3.3-0.2c0.1-1.3-0.4-2.7-1.1-2V27c-0.5-0.4-0.8-0.5-1.5-0.6
			c0.2,0.3,0.2,0.7,0.3,1c-0.5-1.2-1.4-2.4-2.2-1.9c-0.6,0.4-0.9,1.9-1.2,2.7c1.2-0.3,1.7,0.4,2.1,1.5C17,29,16.5,28.5,16,28.4
			c-0.9-0.2-1.7,0.4-1.5,1.2c0.1,1,1.4,2.1,1.9,2.5c1.2,1,2.7,2,3.9,2.5c0.8,0.3,0.6,0,1.5-0.1c1.2-0.2,0.9-1.2,0.2-1.7
			c0.3,0.4,0.6,0.9,0,1.1c-0.1,0-0.3,0.1-0.4,0.1c-1.1,0.1-1.3-0.1-2.2-0.6c-1.4-0.7-2.7-1.7-3.5-3.5c-0.2,0-0.2,0.2-0.3,0.4
			c-0.5-0.9,0.9-1.7,1.2-0.9c-0.1-0.1-0.4,0-0.4,0c0.6,0.8,1.4,1.5,2.4,2c1.7,0.9,1.8,0.6,3.3,0c0.3-0.1,0.6-0.1,0.9,0
			c-0.4,0-0.9,0.2-1.2,0.4c0.4,0,0.9,0,1.2-0.1c0.6-0.2,0.7-1.2,0.4-1.6c-0.3-0.4-0.9-0.2-1.4,0.1l0.6,0.1c-0.7,0.2-1.4-0.4-2-0.4
			C19.3,29.8,19.3,31.1,20.1,31.2"/>
		<path d="M16.8,25.4c-0.1,0-0.3,0.1-0.4,0.1c-0.6,0.4-0.9,1.9-1.2,2.7c0.2-0.1,0.5-0.1,0.7-0.1C16,27.2,16.4,26,16.8,25.4z
			 M20.4,29.1c0.4,0.1,0.6,0.4,0.6,0.5c0.4,0.1,0.6,0.2,0.8,0.1c-0.1-0.1-0.4-0.3-0.6-0.4C20.9,29.2,20.6,29.2,20.4,29.1 M21.9,30
			c0.1,0,0.3,0,0.4-0.1c0,0,0-0.1-0.1-0.1L21.9,30C21.9,30,21.9,30,21.9,30z M20.2,28.9c0.1,0.1,0.1,0.1,0.1,0.2h0.3
			C20.6,29,20.4,28.9,20.2,28.9"/>
	</g>
	<path style="fill:#1A2E4E;" d="M19.6,31c0,0.1,0,0.1-0.1,0.3l-0.9-0.4l-0.8-0.6c0.6,0.2,1.1,0.5,1.7,0.4
		C19.5,30.7,19.5,30.9,19.6,31"/>
	<path style="fill:#FFCD05;" d="M20.1,31.2c-0.4,0-0.6-0.1-0.7-0.3c-0.8-0.1-1.5-0.6-2.1-1.3v0.1c-0.3-0.6-0.8-1.2-1.3-1.3
		c-0.9-0.2-1.7,0.4-1.5,1.2c0.1,1,1.4,2.1,1.9,2.5c1.2,1,2.7,2,3.9,2.5c0.8,0.3,0.6,0,1.5-0.1c1.2-0.2,0.9-1.2,0.2-1.7
		c0.3,0.4,0.6,0.9,0,1.1c-0.1,0-0.3,0.1-0.4,0.1c-1.1,0.1-1.3-0.1-2.2-0.6c-1.4-0.7-2.7-1.7-3.5-3.5c-0.2,0-0.2,0.2-0.3,0.4
		c-0.5-0.9,0.9-1.7,1.2-0.9c-0.1-0.1-0.4,0-0.4,0c0.6,0.8,1.4,1.5,2.4,2c1.7,0.9,1.8,0.6,3.3,0c0.1-0.1,0.4-0.1,0.6-0.1
		c-0.2,0.1-0.4,0.1-0.7,0.4c0.4,0,0.9,0,1.2-0.1c0.6-0.2,0.7-1.2,0.4-1.6c-0.3-0.4-0.9-0.2-1.4,0.1h0.2h-0.6
		c-0.4-0.1-0.7-0.3-1.1-0.3C19.3,29.8,19.3,31.1,20.1,31.2"/>
	<path d="M22.4,33.4c0,0.3-0.1,0.6-0.3,0.7c-0.4,0.2-1.4,0.1-1.4,0.7c0.3,0,0.4-0.1,0.9-0.2C22.5,34.4,22.7,33.9,22.4,33.4
		 M22.7,29.8c0.4,0.4,0.5,1.3,0,1.8c0.6-0.2,0.7-1.2,0.4-1.6C23,29.9,22.9,29.8,22.7,29.8"/>
	<path style="fill:#FEEA00;" d="M21.3,31.6c-1.4,0.4-2.8-0.1-4.5-1.4c0.5,0.4,1.1,0.9,1.7,1.2C20,32.2,20.3,32,21.3,31.6 M19.8,31.2
		c-0.1-0.7,0.1-1.2,0.6-1.4h-0.2C19.4,29.8,19.3,30.8,19.8,31.2 M20.1,34.6c-1.8-0.9-5.3-3.4-5.2-5.2c0-0.4,0.3-0.9,0.9-1
		c-0.8-0.1-1.5,0.4-1.4,1.3c0.1,1,1.4,2.1,1.9,2.5C17.5,33.2,18.9,34.2,20.1,34.6"/>
	<path style="fill:#FFFFFF;" d="M22.4,32l0.4-0.1c0,0,0.1,0,0.1-0.1c0,0.1-0.1,0.3-0.1,0.5c-0.1,0.3-0.3,0.4-0.3,0
		C22.4,32.1,22.4,32,22.4,32"/>
	<path d="M22.6,32.5c0.1-0.2,0.2-0.4,0.2-0.6c0.1,0,0.1,0,0.1-0.1c0,0.1-0.1,0.3-0.1,0.5C22.7,32.4,22.7,32.5,22.6,32.5 M20.3,30.4
		c-0.3,0.1-0.2,0.7,0.3,0.6c-0.2,0-0.2-0.1-0.2-0.3C20.7,30.6,20.6,30.3,20.3,30.4 M22.9,30.3c0.2,0.1,0.2,0.6-0.2,0.6
		c0.1,0,0.2-0.1,0.1-0.2C22.6,30.5,22.7,30.2,22.9,30.3"/>
	<path style="fill:#E75224;" d="M16.8,31.2c0.6,0.8,1.5,1.4,2.6,2l0.6,0.4l0.4,0.2c0.4,0.1,0.6,0.1,1,0c0.1,0,0.3-0.1,0.4-0.1
		c0.4-0.1-0.2-0.7-0.5-0.9c-0.4-0.4-0.6-0.6-1.1-0.5h-0.6c0.1,0.1,0.3,0.4,0.4,0.6c-0.4-0.3-0.8-0.6-1.2-0.8l-0.4-0.2
		C18,31.5,17.4,31.2,16.8,31.2"/>
	<path d="M17.8,31.6c0.6,0.2,1.2,0.6,1.7,1.1c0.2,0.2,0.3,0,0.1-0.1C19.1,32.1,18.5,31.7,17.8,31.6 M20.1,32l0.1,0.2v0.3
		c0,0.1,0,0.4,0.1,0.5c0.2,0.1,0.5-0.3,0.6-0.4s0.1-0.3,0.1-0.4V32h-0.2h-0.4C20.3,32,20.2,32,20.1,32L20.1,32
		C20.1,32,20.1,32,20.1,32z"/>
	<path style="fill:#FFFFFF;" d="M20.3,32.3C20.3,32.3,20.3,32.2,20.3,32.3l0.3-0.1h0.3c0,0.4-0.6,1.2-0.6,0.5
		C20.3,32.5,20.3,32.4,20.3,32.3"/>
	<path d="M20.5,32.8c0.1-0.2,0.1-0.4,0.1-0.6h0.2C20.8,32.4,20.7,32.6,20.5,32.8 M16.1,28.5h1.4c0.6,0.1,0.7,0.1,0.6-0.1
		c-0.2-0.6-0.5-1.2-0.9-1.7c-0.2-0.2-0.4-0.4-0.8-0.4c-0.1,0.1,0.1,0.1,0.2,0.2C16.6,27.3,16.5,28,16.1,28.5"/>
	<path style="fill:#FFFFFF;" d="M16.5,28.3c0.2-0.5,0.4-1.1,0.4-1.6l0.2,0.2c0.4,0.4,0.6,1,0.8,1.5l-0.4-0.1
		C17.2,28.3,16.8,28.3,16.5,28.3"/>
	<path d="M17.1,27.3c-0.2,0-0.4,0.2-0.4,0.5s0.1,0.5,0.4,0.5s0.4-0.2,0.4-0.5S17.3,27.3,17.1,27.3 M20.4,27.2c0.2-0.2,0.4,0,0.3,0.1
		c0,0.4,0.1,0.8,0.1,1.2c0,0.1-0.1,0.2-0.4,0.2s-0.4-0.1-0.5-0.1c-0.2,0.1-0.4,0-0.4-0.2C19.8,27.9,20,27.6,20.4,27.2"/>
	<path style="fill:#FFFFFF;" d="M20.6,28.6c0,0-0.1,0-0.1,0.1c-0.1,0-0.3-0.1-0.4-0.1H20h-0.1h-0.1l0,0c0.1-0.4,0.4-0.8,0.6-1.1
		C20.4,27.8,20.6,28.2,20.6,28.6"/>
	<path d="M20.8,28.9l-1.3-0.3l-0.4-0.1c0.6,0,1.2,0.1,1.8,0.4L20.8,28.9 M20.1,27.7c-0.1,0-0.3,0.1-0.3,0.4s0.1,0.4,0.3,0.4
		s0.3-0.1,0.3-0.4C20.4,27.9,20.3,27.7,20.1,27.7"/>
</g>
</svg>
