<?xml version="1.0"?>
<svg xmlns="http://www.w3.org/2000/svg" xmlns:xlink="http://www.w3.org/1999/xlink" xmlns:svgjs="http://svgjs.com/svgjs" version="1.1" width="512" height="512" x="0" y="0" viewBox="0 0 512 512" style="enable-background:new 0 0 512 512" xml:space="preserve" class=""><g>
<circle xmlns="http://www.w3.org/2000/svg" style="" cx="256" cy="256" r="256" fill="#f1f1f1" data-original="#1976d1" class=""/>
<path xmlns="http://www.w3.org/2000/svg" style="" d="M512,256c0-18.706-2.025-36.936-5.834-54.501L427.667,123L84.333,389l117.166,117.166  C219.064,509.975,237.294,512,256,512C397.385,512,512,397.385,512,256z" fill="#f1f1f1" data-original="#1565bf" class=""/>
<rect xmlns="http://www.w3.org/2000/svg" x="84.33" y="123" style="" width="343.33" height="266" fill="#ffffff" data-original="#ffffff" class=""/>
<rect xmlns="http://www.w3.org/2000/svg" x="255.57" y="123" style="" width="172.09" height="266" fill="#e6e6e6" data-original="#e6e6e6"/>
<rect xmlns="http://www.w3.org/2000/svg" x="84.33" y="123" style="" width="343.33" height="38" fill="#ced7db" data-original="#ced7db" class=""/>
<rect xmlns="http://www.w3.org/2000/svg" x="255.57" y="123" style="" width="172.09" height="38" fill="#afbdc4" data-original="#afbdc4" class=""/>
<rect xmlns="http://www.w3.org/2000/svg" x="109.52" y="187" style="" width="136.82" height="43.33" fill="#ffde1f" data-original="#ffde1f"/>
<rect xmlns="http://www.w3.org/2000/svg" x="177.59" y="187" style="" width="68.74" height="43.33" fill="#f9c41e" data-original="#f9c41e" class=""/>
<rect xmlns="http://www.w3.org/2000/svg" x="109.52" y="240.33" style="" width="136.82" height="102.67" fill="#ced7db" data-original="#ced7db" class=""/>
<rect xmlns="http://www.w3.org/2000/svg" x="177.59" y="240.33" style="" width="68.74" height="102.67" fill="#afbdc4" data-original="#afbdc4" class=""/>
<polygon xmlns="http://www.w3.org/2000/svg" style="" points="289.092,232.667 278.4,317.667 393.451,317.667 382.759,232.667 404.333,232.667   404.333,195 267.517,195 267.517,232.667 " fill="#ff1b1b" data-original="#ff1b1b"/>
<polygon xmlns="http://www.w3.org/2000/svg" style="" points="404.333,195 334.738,195 334.738,317.667 393.451,317.667 382.759,232.667 404.333,232.667   " fill="#d60000" data-original="#d60000"/>
<path xmlns="http://www.w3.org/2000/svg" style="" d="M356.452,195c0,11.336-9.19,20.526-20.526,20.526S315.4,206.336,315.4,195H356.452z" fill="#fe9d80" data-original="#fe9d80"/>
<path xmlns="http://www.w3.org/2000/svg" style="" d="M334.738,195v20.467c0.395,0.023,0.786,0.06,1.187,0.06c11.336,0,20.526-9.19,20.526-20.526  L334.738,195L334.738,195z" fill="#fe8965" data-original="#fe8965"/>
<g xmlns="http://www.w3.org/2000/svg">
	<circle style="" cx="108" cy="142" r="9.5" fill="#788f9b" data-original="#788f9b" class=""/>
	<circle style="" cx="137.5" cy="142" r="9.5" fill="#788f9b" data-original="#788f9b" class=""/>
	<circle style="" cx="167" cy="142" r="9.5" fill="#788f9b" data-original="#788f9b" class=""/>
</g>
<g xmlns="http://www.w3.org/2000/svg">
</g>
<g xmlns="http://www.w3.org/2000/svg">
</g>
<g xmlns="http://www.w3.org/2000/svg">
</g>
<g xmlns="http://www.w3.org/2000/svg">
</g>
<g xmlns="http://www.w3.org/2000/svg">
</g>
<g xmlns="http://www.w3.org/2000/svg">
</g>
<g xmlns="http://www.w3.org/2000/svg">
</g>
<g xmlns="http://www.w3.org/2000/svg">
</g>
<g xmlns="http://www.w3.org/2000/svg">
</g>
<g xmlns="http://www.w3.org/2000/svg">
</g>
<g xmlns="http://www.w3.org/2000/svg">
</g>
<g xmlns="http://www.w3.org/2000/svg">
</g>
<g xmlns="http://www.w3.org/2000/svg">
</g>
<g xmlns="http://www.w3.org/2000/svg">
</g>
<g xmlns="http://www.w3.org/2000/svg">
</g>
</g></svg>
