<?xml version="1.0"?>
<svg xmlns="http://www.w3.org/2000/svg" xmlns:xlink="http://www.w3.org/1999/xlink" xmlns:svgjs="http://svgjs.com/svgjs" version="1.1" width="512" height="512" x="0" y="0" viewBox="0 0 512 512" style="enable-background:new 0 0 512 512" xml:space="preserve" class=""><g><g xmlns="http://www.w3.org/2000/svg"><g><g><g><g><g><g><g><g><g><g><g><g><g><g><g><g><g><g><g><g><circle cx="256" cy="256" fill="#f1f1f1" r="256" data-original="#ffe377" style="" class=""/></g></g></g></g></g></g></g></g></g></g></g></g></g></g></g></g></g></g></g></g><path d="m389.072 155.598-44.048-44.048-281.377 68.861 49.217 49.217-29.215 186.952 77.097 77.097c29.445 11.812 61.587 18.323 95.254 18.323 141.385 0 256-114.615 256-256 0-20.386-2.396-40.21-6.898-59.219l-76.751-76.751z" fill="#f1f1f1" data-original="#ffd944" style="" class=""/><g><g><g><g><g><g><path d="m256 406.579-32.952 10.001h-139.399v-260.982h172.351l86.175 149.29z" fill="#8078be" data-original="#8078be" style="" class=""/></g></g></g></g><g><g><path d="m428.351 416.58h-139.399l-32.952-10.001v-250.981h172.351z" fill="#514899" data-original="#514899" style=""/></g></g></g><g><g><g><g><g><path d="m256 416.58h-32.952v-86.075h32.952l16.476 49.238z" fill="#adcfff" data-original="#adcfff" style="" class=""/></g></g></g></g><g><g><path d="m256 330.505h32.952v86.075h-32.952z" fill="#8bbbff" data-original="#8bbbff" style=""/></g></g></g><g><g><g><g><g><path d="m256 180.411h-192.353l20.002-60.381h172.351l86.175 34.54z" fill="#f3f1f4" data-original="#f3f1f4" style=""/></g></g></g></g><g><g><path d="m448.353 180.411h-192.353v-60.381h172.351z" fill="#dfdce0" data-original="#dfdce0" style=""/></g></g></g><path d="m301.167 426.082h11.575v-107.051l-5.788-10.001-5.787 10.001z" fill="#403b41" data-original="#403b41" style=""/><path d="m199.258 426.082h11.575v-107.051l-5.787-10.001-5.788 10.001z" fill="#655e67" data-original="#655e67" style=""/><g><path d="m272.476 292.232-16.476 26.799h-56.742c0-31.338 25.404-56.742 56.742-56.742z" fill="#dfdce0" data-original="#dfdce0" style=""/><path d="m312.742 319.031h-56.742v-56.742c31.338 0 56.742 25.404 56.742 56.742z" fill="#c8c3ca" data-original="#c8c3ca" style=""/></g><g><path d="m262.229 376.694-6.229 11.092c-6.126 0-11.092-4.966-11.092-11.092s4.966-11.092 11.092-11.092z" fill="#8e562f" data-original="#8e562f" style=""/><path d="m256 365.602c6.126 0 11.092 4.966 11.092 11.092s-4.966 11.092-11.092 11.092" fill="#754727" data-original="#754727" style=""/></g><path d="m100.003 330.505h82.901v50.177h-82.901z" fill="#adcfff" data-original="#adcfff" style="" class=""/><g fill="#8bbbff"><path d="m329.096 330.505h82.901v50.177h-82.901z" fill="#8bbbff" data-original="#8bbbff" style=""/><path d="m329.096 262.289h34.131v38.303h-34.131z" fill="#8bbbff" data-original="#8bbbff" style=""/><path d="m377.866 262.289h34.131v38.303h-34.131z" fill="#8bbbff" data-original="#8bbbff" style=""/><path d="m329.096 209.346h34.131v38.303h-34.131z" fill="#8bbbff" data-original="#8bbbff" style=""/><path d="m377.866 209.346h34.131v38.303h-34.131z" fill="#8bbbff" data-original="#8bbbff" style=""/><path d="m280.385 209.346h34.131v38.303h-34.131z" fill="#8bbbff" data-original="#8bbbff" style=""/></g><path d="m148.773 262.289h34.131v38.303h-34.131z" fill="#adcfff" transform="matrix(-1 0 0 -1 331.678 562.882)" data-original="#adcfff" style="" class=""/><path d="m100.003 262.289h34.131v38.303h-34.131z" fill="#adcfff" transform="matrix(-1 0 0 -1 234.137 562.882)" data-original="#adcfff" style="" class=""/><path d="m148.773 209.346h34.131v38.303h-34.131z" fill="#adcfff" transform="matrix(-1 0 0 -1 331.678 456.996)" data-original="#adcfff" style="" class=""/><path d="m100.003 209.346h34.131v38.303h-34.131z" fill="#adcfff" transform="matrix(-1 0 0 -1 234.137 456.996)" data-original="#adcfff" style="" class=""/><path d="m197.484 209.346h34.131v38.303h-34.131z" fill="#adcfff" transform="matrix(-1 0 0 -1 429.099 456.996)" data-original="#adcfff" style="" class=""/><g><g><g><g><g><path d="m256 168.33h-96.176v-40.146c0-12.642 10.249-22.891 22.891-22.891h73.285l48.088 36.059z" fill="#c2db4b" data-original="#c2db4b" style=""/></g></g></g></g><g><g><path d="m352.176 168.33h-96.176v-63.037h73.286c12.642 0 22.891 10.249 22.891 22.891v40.146z" fill="#9fbd28" data-original="#9fbd28" style=""/></g></g></g><g><path d="m270.778 112.775-14.778 24.037h-50.894c0-28.108 22.786-50.894 50.894-50.894z" fill="#c2db4b" data-original="#c2db4b" style=""/><path d="m306.894 136.812h-50.894v-50.894c28.108 0 50.894 22.786 50.894 50.894z" fill="#9fbd28" data-original="#9fbd28" style=""/></g><g><g><g><path d="m342.675 160.098h-20.482v-41.761h9v32.761h11.482z" fill="#514899" data-original="#514899" style=""/></g></g><g><g><path d="m173.395 118.309h9v41.79h-9z" fill="#8078be" data-original="#8078be" style="" class=""/></g><g><path d="m196.085 118.309h9v41.79h-9z" fill="#8078be" data-original="#8078be" style="" class=""/></g><g><path d="m173.395 134.141h31.69v9h-31.69z" fill="#8078be" data-original="#8078be" style="" class=""/></g></g><g><g><path d="m313.732 160.098h-22.691v-41.49h22.691v9h-13.691v23.49h13.691z" fill="#514899" data-original="#514899" style=""/></g><g><path d="m291.041 134.853h21.681v9h-21.681z" fill="#514899" data-original="#514899" style=""/></g></g><g><g><path d="m256 118.309h27.108v9h-27.108z" fill="#514899" data-original="#514899" style=""/></g><g><path d="m265.018 119.356h9v40.742h-9z" fill="#514899" data-original="#514899" style=""/></g></g><g><path d="m232.289 160.098c-11.521 0-20.895-9.373-20.895-20.895s9.373-20.895 20.895-20.895 20.895 9.374 20.895 20.895-9.373 20.895-20.895 20.895zm0-32.789c-6.559 0-11.895 5.336-11.895 11.895s5.336 11.895 11.895 11.895 11.895-5.336 11.895-11.895-5.336-11.895-11.895-11.895z" fill="#8078be" data-original="#8078be" style="" class=""/></g></g></g></g></g></svg>
