<?xml version="1.0" encoding="utf-8"?>
<svg version="1.1" id="Layer_1" xmlns="http://www.w3.org/2000/svg" xmlns:xlink="http://www.w3.org/1999/xlink" x="0px" y="0px"
	 viewBox="0 0 994.3 506.6" style="enable-background:new 0 0 994.3 506.6;" xml:space="preserve">
<g>
	<path style="fill:#FBB900;" d="M291,359c-40.7,0-73.8,33-73.8,73.8s33,73.8,73.8,73.8s73.8-33,73.8-73.8
		C364.8,392.1,331.8,359.1,291,359"/>
	<path style="fill:#E62933;" d="M85.1,359c-40.7,0-73.8,33-73.8,73.8s33,73.8,73.8,73.8s73.8-33,73.8-73.8l0,0
		C158.8,392.1,125.8,359.1,85.1,359"/>
	<path style="fill:#09A548;" d="M497.2,359c-40.7,0-73.8,33-73.8,73.8s33,73.8,73.8,73.8s73.8-33,73.8-73.8l0,0
		C570.9,392.1,537.9,359.1,497.2,359"/>
	<path style="fill:#1FA8E0;" d="M909.4,359c-40.7,0-73.8,33-73.8,73.8s33,73.8,73.8,73.8c40.7,0,73.8-33,73.8-73.8
		C983.2,392.1,950.2,359.1,909.4,359"/>
	<path style="fill:#A83E8F;" d="M703.3,359c-40.7,0-73.8,33-73.8,73.7s33,73.8,73.7,73.8c40.7,0,73.8-33,73.8-73.7c0,0,0,0,0,0
		C777,392.1,744,359.1,703.3,359"/>
	<path style="fill:#605D5C;" d="M146.6,150c0.7-32.7-25.2-59.8-57.8-60.5c-0.9,0-1.8,0-2.7,0c-32.7-0.8-59.8,24.9-60.7,57.6
		c0,1,0,1.9,0,2.9c-0.7,32.7,25.1,59.7,57.8,60.5c0.9,0,1.8,0,2.7,0c32.7,0.9,59.8-24.9,60.7-57.6C146.6,152,146.6,151,146.6,150
		 M0,150c0-47.9,38.4-83.8,85.9-83.8s85.9,35.8,85.9,83.6v73.4c0.3,6.7-5,12.4-11.7,12.7c-0.4,0-0.9,0-1.3,0
		c-6.6,0.6-12.5-4.4-13-11c0-0.6-0.1-1.1,0-1.7v-21.5h-1.3C134.4,219,114.2,234,84.3,234C38.3,234.6,0.6,197.8,0,151.9
		C0,151.3,0,150.7,0,150 M352,150c0-33.4-27.1-60.5-60.5-60.5c-33.4,0-60.5,27.1-60.5,60.5c0,33.4,27.1,60.5,60.5,60.5
		C325,210.5,352,183.4,352,150 M238.8,288.5c-6.4-2.1-9.8-9-7.7-15.4c0.1-0.2,0.1-0.4,0.2-0.6c1.6-5.9,7.6-9.4,13.5-7.8
		c0.9,0.2,1.7,0.6,2.5,1c13.1,6.2,27.5,9.4,42,9.5c38.7,0,62.1-23.1,62.1-62.5v-10.9h-1.5C339.8,219,319.7,234,289.7,234
		c-45.9,0.5-83.6-36.3-84.1-82.2c0-0.6,0-1.1,0-1.7c0-47.9,38.4-83.8,85.9-83.8s85.9,35.8,85.9,83.6v61c0,52.7-33.8,88.2-89.1,88.2
		C271.2,299.3,254.3,295.7,238.8,288.5 M557.6,150c0.9-33.4-25.4-61.3-58.8-62.2s-61.3,25.4-62.2,58.8c0,1.1,0,2.3,0,3.4
		c0.9,33.4,28.8,59.7,62.2,58.8C530.9,207.9,556.7,182.1,557.6,150 M411.1,150c0.3-47.9,38.2-83.8,86.1-83.8S583,102.2,583,150
		S545.2,234,497.1,234s-85.7-36.1-85.7-83.9 M763.3,150c0-33.4-27.1-60.5-60.5-60.5s-60.5,27.1-60.5,60.5s27.1,60.5,60.5,60.5
		S763.3,183.5,763.3,150 M616.7,150c-0.3-45.9,36.6-83.5,82.5-83.8c0.6,0,1.2,0,1.9,0c29.9,0,50.1,14.9,60.2,32.2h1.3V12.7
		c-0.3-6.7,5-12.4,11.7-12.7c0.4,0,0.8,0,1.2,0c6.6-0.6,12.4,4.3,13,11c0,0.6,0.1,1.1,0,1.7v137.6c0,47.8-38.1,83.6-85.9,83.6
		S616.7,197.8,616.7,150 M968.9,150c0.9-33.4-25.4-61.3-58.8-62.2s-61.3,25.4-62.2,58.8c0,1.1,0,2.3,0,3.4
		c0.9,33.4,28.8,59.7,62.2,58.8C942.2,207.9,968,182.1,968.9,150 M822.3,150c0.2-47.9,38.6-83.8,86.1-83.8
		c47.5,0,85.9,35.8,85.9,83.6v73.4c0.3,6.7-5,12.4-11.7,12.7c-0.5,0-0.9,0-1.4,0c-6.6,0.6-12.4-4.3-13-11c0-0.6-0.1-1.1,0-1.7v-21.5
		h-1.3C956.8,219,936.7,234,906.8,234c-45.9,0.6-83.7-36.1-84.3-82.1c0-0.6,0-1.2,0-1.9"/>
</g>
</svg>
