<?xml version="1.0"?>
<svg xmlns="http://www.w3.org/2000/svg" xmlns:xlink="http://www.w3.org/1999/xlink" xmlns:svgjs="http://svgjs.com/svgjs" version="1.1" width="512" height="512" x="0" y="0" viewBox="0 0 512 512" style="enable-background:new 0 0 512 512" xml:space="preserve" class=""><g><path xmlns="http://www.w3.org/2000/svg" d="m512 256c0 141.386719-114.613281 256-256 256s-256-114.613281-256-256 114.613281-256 256-256 256 114.613281 256 256zm0 0" fill="#f1f1f1" data-original="#ab9c97" style="" class=""/><path xmlns="http://www.w3.org/2000/svg" d="m511.316406 237.324219-173.300781-173.300781-74.246094 74.246093-41.019531-41.019531-48.792969 48.792969 87.484375 87.484375-180.453125 180.453125 79.660157 79.65625c29.46875 11.835937 61.648437 18.363281 95.351562 18.363281 141.386719 0 256-114.613281 256-256 0-6.28125-.238281-12.507812-.683594-18.675781zm0 0" fill="#f1f1f1" data-original="#988680" style="" class=""/><path xmlns="http://www.w3.org/2000/svg" d="m184.222656 135.777344h20.507813v52.636718h-20.507813zm0 0" fill="#cde2ff" data-original="#cde2ff" style=""/><path xmlns="http://www.w3.org/2000/svg" d="m307.269531 135.777344h20.507813v52.636718h-20.507813zm0 0" fill="#9bc5ff" data-original="#9bc5ff" style=""/><path xmlns="http://www.w3.org/2000/svg" d="m235.492188 290.953125 20.507812 123.046875h41.699219l20.507812-123.046875zm0 0" fill="#9e5544" data-original="#9e5544" style=""/><path xmlns="http://www.w3.org/2000/svg" d="m193.792969 290.953125 20.507812 123.046875h41.699219v-123.046875zm0 0" fill="#c84f36" data-original="#c84f36" style="" class=""/><path xmlns="http://www.w3.org/2000/svg" d="m338.03125 414h92.96875v-102.539062l-113.476562-20.507813zm0 0" fill="#f34a28" data-original="#f34a28" style=""/><path xmlns="http://www.w3.org/2000/svg" d="m317.523438 311.460938h113.476562v-41.015626l-113.476562-20.507812zm0 0" fill="#9bc5ff" data-original="#9bc5ff" style=""/><path xmlns="http://www.w3.org/2000/svg" d="m317.523438 270.445312h113.476562v-41.015624l-113.476562-20.507813zm0 0" fill="#69a8ff" data-original="#69a8ff" style=""/><path xmlns="http://www.w3.org/2000/svg" d="m317.523438 188.414062h113.476562v41.015626h-113.476562zm0 0" fill="#9bc5ff" data-original="#9bc5ff" style=""/><path xmlns="http://www.w3.org/2000/svg" d="m173.96875 414h-92.96875v-102.539062l113.476562-20.507813zm0 0" fill="#f67547" data-original="#f67547" style="" class=""/><path xmlns="http://www.w3.org/2000/svg" d="m194.476562 311.460938h-113.476562v-41.015626l113.476562-20.507812zm0 0" fill="#cde2ff" data-original="#cde2ff" style=""/><path xmlns="http://www.w3.org/2000/svg" d="m194.476562 270.445312h-113.476562v-41.015624l113.476562-20.507813zm0 0" fill="#9bc5ff" data-original="#9bc5ff" style=""/><path xmlns="http://www.w3.org/2000/svg" d="m81 188.414062h113.476562v41.015626h-113.476562zm0 0" fill="#cde2ff" data-original="#cde2ff" style=""/><path xmlns="http://www.w3.org/2000/svg" d="m338.03125 64h-82.03125l-41.015625 41.015625 41.015625 41.015625h82.03125zm0 0" fill="#9e5544" data-original="#9e5544" style=""/><path xmlns="http://www.w3.org/2000/svg" d="m173.96875 64h82.03125v82.03125h-82.03125zm0 0" fill="#c84f36" data-original="#c84f36" style="" class=""/><path xmlns="http://www.w3.org/2000/svg" d="m204.730469 94.761719h20.507812v20.507812h-20.507812zm0 0" fill="#fff7a5" data-original="#fff7a5" style=""/><g xmlns="http://www.w3.org/2000/svg" fill="#ffef4a"><path d="m245.746094 94.761719h20.507812v20.507812h-20.507812zm0 0" fill="#ffef4a" data-original="#ffef4a" style=""/><path d="m286.761719 94.761719h20.507812v20.507812h-20.507812zm0 0" fill="#ffef4a" data-original="#ffef4a" style=""/><path d="m297.699219 167.90625h-41.699219l-30.761719 71.777344 30.761719 71.777344h62.207031zm0 0" fill="#ffef4a" data-original="#ffef4a" style=""/></g><path xmlns="http://www.w3.org/2000/svg" d="m214.300781 167.90625-20.507812 143.554688h62.207031v-143.554688zm0 0" fill="#fff7a5" data-original="#fff7a5" style=""/><path xmlns="http://www.w3.org/2000/svg" d="m173.96875 167.90625h40.332031v246.09375h-40.332031zm0 0" fill="#f9a167" data-original="#f9a167" style="" class=""/><path xmlns="http://www.w3.org/2000/svg" d="m297.699219 167.90625h40.332031v246.09375h-40.332031zm0 0" fill="#f67547" data-original="#f67547" style="" class=""/></g></svg>
