<?xml version="1.0" encoding="utf-8"?>
<svg version="1.1" id="Layer_1" xmlns="http://www.w3.org/2000/svg" xmlns:xlink="http://www.w3.org/1999/xlink" x="0px" y="0px"
	width="100px" height="100px" viewBox="0 0 72.2 72.2" style="enable-background:new 0 0 72.2 72.2;" xml:space="preserve">
<g>
	<circle style="fill:#E8E8E8;" cx="36.1" cy="36.1" r="36.1"/>
	<circle style="fill:#FFFFFF;" cx="36.1" cy="36.1" r="35.4"/>
	<path style="fill:#54A446;" d="M36.9,32.5h1.9V37c0,1.8-1.2,2.9-2.7,2.9c-1.7,0-2.7-1-2.7-2.9v-4.5h1.9v4.5c0,0.8,0.2,1.2,0.9,1.2
		s0.9-0.4,0.9-1.2v-4.5H36.9z M44.5,34.9c0,0.9-0.4,1.7-1.2,2.2c-0.5,0.3-1.1,0.3-1.8,0.3h-0.5v2.4h-1.9v-7.4h2.5
		c0.8,0,1.4,0.1,1.9,0.4C44.2,33.3,44.5,34,44.5,34.9C44.5,34.9,44.5,34.9,44.5,34.9z M42.7,34.9c0-0.6-0.4-0.9-1.2-0.9h-0.4v1.7
		h0.3C42.3,35.8,42.7,35.6,42.7,34.9z M57,36.5l-2.7-4h-1.6v7.3h1.7v-4.1l2.7,4.1h1.6v-7.3H57V36.5L57,36.5z M31.7,33.4
		c0.7,0.7,1.2,1.7,1.2,2.7c0,1.1-0.4,2-1.1,2.7c-0.7,0.7-1.7,1.2-2.7,1.2c-1.1,0-2-0.4-2.7-1.2c-0.7-0.7-1.1-1.7-1.1-2.7
		c0-1,0.4-1.9,1.2-2.7c0.7-0.7,1.7-1.1,2.7-1.1C30.1,32.3,31,32.7,31.7,33.4z M31,36.1c0-1.1-0.9-1.9-1.9-1.9
		c-1.1,0-1.9,0.9-1.9,1.9c0,0,0,0,0,0c0,1.2,0.9,2,1.9,2C30.1,38.1,31,37.2,31,36.1z M51.2,33.4c0.7,0.7,1.2,1.7,1.2,2.7
		c0,1.1-0.4,2-1.1,2.7c-0.7,0.7-1.7,1.2-2.7,1.2c-1.1,0-2-0.4-2.7-1.2c-0.7-0.7-1.1-1.7-1.1-2.7c0-1,0.4-1.9,1.2-2.7
		c0.7-0.7,1.7-1.1,2.7-1.1C49.6,32.3,50.5,32.7,51.2,33.4z M50.5,36.1c0-1.1-0.9-1.9-1.9-1.9c-1.1,0-1.9,0.9-1.9,1.9c0,0,0,0,0,0
		c0,1.2,0.9,2,1.9,2C49.6,38.1,50.4,37.2,50.5,36.1z M15.1,35.6v1.5h2.1c-0.4,0.6-0.9,1-1.7,1c-1,0-1.9-0.9-1.9-2.1
		c0-1.1,0.9-1.9,1.9-1.9c0,0,0,0,0,0c0.6,0,1.1,0.2,1.5,0.7h2c-0.6-1.6-1.9-2.5-3.5-2.5c-1.1,0-1.9,0.4-2.7,1.1
		c-0.7,0.7-1.2,1.7-1.2,2.7c0,1.1,0.4,2,1,2.7c0.7,0.8,1.7,1.2,2.7,1.2c1.2,0,2.5-0.6,3.1-1.7c0.4-0.6,0.6-1.3,0.6-2.2v-0.5H15.1
		L15.1,35.6L15.1,35.6z M23.3,37.2l1.8,2.5h-2.2l-1.4-2.4v2.4h-1.9v-7.4h2.5c0.8,0,1.4,0.1,1.9,0.4c0.6,0.4,1,1.2,1,2.1
		C25,36.1,24.4,36.9,23.3,37.2C23.3,37.2,23.3,37.2,23.3,37.2z M23.2,34.9c0-0.6-0.4-0.9-1.2-0.9h-0.4v1.7h0.3
		C22.7,35.8,23.2,35.6,23.2,34.9C23.2,34.9,23.2,34.9,23.2,34.9z M60.5,32.8c0,0.1-0.1,0.3-0.1,0.4c-0.1,0.1-0.2,0.1-0.4,0.1
		c-0.1,0-0.3-0.1-0.4-0.1c-0.1-0.1-0.1-0.2-0.1-0.4s0.1-0.3,0.1-0.4c0.1-0.1,0.2-0.1,0.4-0.1c0.1,0,0.3,0.1,0.4,0.1
		C60.4,32.5,60.5,32.7,60.5,32.8z M60.4,32.8c0-0.1-0.1-0.2-0.1-0.4c-0.1-0.1-0.2-0.1-0.4-0.1s-0.2,0.1-0.4,0.1
		c-0.1,0.1-0.1,0.2-0.1,0.4s0.1,0.2,0.1,0.4c0.1,0.1,0.2,0.1,0.4,0.1s0.2-0.1,0.4-0.1C60.3,33,60.4,33,60.4,32.8z M60.1,32.8
		L60.1,32.8C60.1,32.8,60.1,32.8,60.1,32.8c0,0.1,0.1,0.1,0.1,0.1V33V33v0.1l0,0h-0.1l0,0l0,0l0,0V33c0-0.1,0-0.1-0.1-0.1h-0.1h-0.1
		v0.3h-0.1v-0.7h0.1c0.1,0,0.1,0,0.1,0.1C60.1,32.5,60.1,32.6,60.1,32.8C60.1,32.7,60.1,32.8,60.1,32.8z M60,32.7
		C60,32.6,60,32.6,60,32.7l-0.2-0.1h-0.1v0.2h0.2L60,32.7C60,32.8,60,32.7,60,32.7z"/>
</g>
</svg>
