<?xml version="1.0"?>
<svg xmlns="http://www.w3.org/2000/svg" xmlns:xlink="http://www.w3.org/1999/xlink" xmlns:svgjs="http://svgjs.com/svgjs" version="1.1" width="512" height="512" x="0" y="0" viewBox="0 0 512 512" style="enable-background:new 0 0 512 512" xml:space="preserve" class=""><g><g xmlns="http://www.w3.org/2000/svg"><g><g><g><g><g><g><path d="m256 0c141.385 0 256 114.615 256 256 0 7.732-.343 15.384-1.014 22.941-11.602 130.637-465.378 158.701-498.619 55.889-8.029-24.832-12.367-51.324-12.367-78.83 0-141.385 114.615-256 256-256z" fill="#f1f1f1" data-original="#a3d4ff" style="" class=""/></g></g></g></g></g></g><path d="m166.114 495.775c27.967 10.489 58.256 16.225 89.886 16.225 135.957 0 247.16-105.984 255.498-239.839l-110.267-110.267-84.983 29.243-131.137-131.137z" fill="#f1f1f1" data-original="#65b1fc" style="" class=""/><g><path d="m317.797 295.076c-120.372 42.486-230.653 66.792-305.43 39.754 33.241 102.812 129.753 177.17 243.633 177.17 133.65 0 243.38-102.418 254.985-233.051-41.18-9.312-107.919-13.97-193.188 16.127z" fill="#c3e535" data-original="#c3e535" style="" class=""/></g><g><path d="m510.985 278.949c-41.181-9.312-107.919-13.97-193.189 16.127-20.908 7.38-41.51 14.209-61.676 20.318v196.605c133.596-.062 243.263-102.456 254.865-233.05z" fill="#a1d316" data-original="#a1d316" style="" class=""/></g><g><ellipse cx="219.44" cy="386.297" fill="#707789" rx="108.488" ry="31.276" data-original="#707789" style="" class=""/></g><g><path d="m327.928 386.297c0-13.562-29.943-25.106-71.808-29.441v58.882c41.865-4.335 71.808-15.879 71.808-29.441z" fill="#555a66" data-original="#555a66" style="" class=""/></g><g><path d="m170.113 244.718-.002-165.647 231.121 82.823z" fill="#ff6c52" data-original="#ff6c52" style=""/></g><g><path d="m259.154 110.98v101.829l142.077-50.915z" fill="#ff432e" data-original="#ff432e" style=""/></g><g><path d="m155.111 60h30v325.831h-30z" fill="#555a66" data-original="#555a66" style="" class=""/></g></g></g></svg>
