<?xml version="1.0" encoding="utf-8"?>
<svg version="1.1" id="Layer_1" xmlns="http://www.w3.org/2000/svg" xmlns:xlink="http://www.w3.org/1999/xlink" x="0px" y="0px"
	width="100px" height="100px" viewBox="0 0 66.7 66.7" style="enable-background:new 0 0 66.7 66.7;" xml:space="preserve">
<g>
	<circle style="fill:#E8E8E8;" cx="33.3" cy="33.3" r="33.3"/>
	<circle style="fill:#FFFFFF;" cx="33.3" cy="33.3" r="32.7"/>
	<path style="fill:#E50695;" d="M57,37.1c-0.2,0.1-0.5,0.2-0.9,0.1c-0.2-0.1-0.3-0.2-0.3-0.4s0.1-0.3,0.3-0.4
		c0.2-0.1,0.9-0.2,1.5-0.3C57.6,36.3,57.5,36.9,57,37.1 M50.1,36.5L50.1,36.5c-0.3-0.7,0-1.6,0.3-2.3c0.4-0.8,1-1.6,1.5-1.5
		c0.4,0.1,0.7,0.5,0.5,1.1C52.1,35,51.1,35.9,50.1,36.5 M42.3,31.4c-0.1-5.1,1.5-8.7,1.9-8.7c0.3,0.1,0.1,3.1-0.2,5
		c-0.4,2.3-1.1,4.1-1.6,5.3C42.4,32.5,42.4,32,42.3,31.4 M37.5,31.9c-0.1-4.6,1-7.9,1.6-8.5c0.1-0.1,0.1-0.1,0.1-0.1
		c0.3,0.1,0.2,3.1-0.1,5c-0.4,2.2-1,3.9-1.5,5.1C37.5,32.9,37.5,32.5,37.5,31.9 M59.1,35.7c-0.1-0.9-1.1-1.9-1.7-2.3
		c-0.5-0.5-0.3-0.7-0.2-0.9c0.3-0.5-0.1-0.9-0.1-0.9s-0.3-0.3-0.8-0.3c0,0-0.5,0.1-0.7,0.3c-0.3,0.3-1.2,3.1-2.5,4.5
		C51.3,38,50.4,37,50.4,37c0-0.1,1.5-0.7,2.3-2.1c0.5-0.7,0.5-1.5,0.3-2.1c-0.3-0.6-0.8-0.7-1.1-0.8c-0.9-0.1-2,0.5-2.7,1.7
		c-0.6,1-0.8,2.3-0.3,3.4l0.1,0.3c-0.4,0.2-0.9,0.5-1.4,0.3c-0.3-0.1-0.5-0.3-0.7-0.7c-0.1-0.1-0.1-0.3-0.1-0.5l0,0l0,0
		c-0.1-0.5-0.1-1.2,0.3-1.7s0.3-1.1-0.1-1.5c-0.3-0.3-0.7-0.5-1.1-0.3c-0.5,0.2-0.9,1.7-0.9,3c0,0.8,0.1,1.5,0.4,1.9
		c-0.3,0.3-0.7,0.5-1.2,0.5c-0.9-0.1-1.4-1.5-1.7-4.3c1.5-2.5,2.3-5.4,2.5-8.1c0.1-2.3-0.1-3.6-0.5-3.9c-0.2-0.1-0.5-0.1-0.6-0.1
		c-0.5,0.1-1.7,0.5-3,5.9c-0.9,3.8-0.6,7.5,0.2,9.7l0,0c-0.3,0.6-0.7,1.4-1.7,1.3c-0.9-0.1-1.3-1.3-1.6-4.4c1.4-2.5,2.3-5.3,2.4-7.9
		c0.1-2.3-0.1-3.6-0.5-3.9c-0.2-0.2-0.5-0.1-0.6-0.1c-0.5,0.1-1.7,0.5-2.9,5.9c-0.9,4.1-0.6,7.9,0.4,10c0,0,0,0.1-0.1,0.1
		c-0.1,0.3-0.7,0.9-1.5,0.7c-0.4-0.1-0.6-0.4-0.7-0.9c-0.2-0.6-0.3-1.5,0.2-2.1c0.4-0.5,0.5-1.1,0.1-1.5c-0.3-0.4-0.9-0.5-1.3-0.4
		c-0.5,0.3-0.9,1.7-0.9,3c0,0.5,0.1,1,0.2,1.4c-0.1,0.3-0.9,1.1-1.6,0.9c-0.2,0-0.4-0.1-0.5-0.2c-0.3-0.4-1.1-1.7-0.5-6.5
		c0.4-3.5,0.8-5.3,1-6.2c0.1-0.4,0.1-0.6,0.1-0.7c0-0.2-0.1-0.3-0.5-0.5c-0.4-0.1-1-0.1-1.2,0.2c-0.1,0.1-0.1,0.3-0.3,0.9
		c-1.6,4.8-3.1,7.8-4.9,9.5c-0.2,0.2-0.3,0.1-0.4,0.1c-1.1-0.5-1.5-7.9-1.3-10.1l0.1-1.6c0.1-0.6,0.1-1-0.3-1.1
		c-0.6-0.1-1.1-0.2-1.3,0.7l-0.3,1.5c-0.7,3.4-2.7,7.7-5.3,12c-2.3,3.8-3.8,4.5-4.6,4.4c-0.5-0.1-0.7-0.3-0.9-0.5
		c0,0-0.3-0.4-0.7-0.3c-0.9,0.3-1.3,1.1-1.3,2.2c0,0.1,0.1,1.4,1.7,1.6c1.9,0.3,3.1-0.7,5.5-4.3c1.7-2.7,4.3-8.1,5.1-10.1
		c0.1,1.9,0.7,6.1,1.3,7.2c0.3,0.5,0.7,0.7,1.1,0.7c0.8,0.1,1.6-0.9,2.4-1.8c1.2-1.4,2.7-4.1,3.4-5.3c-0.4,3.7-0.5,8.2,0.7,9.3
		c0.4,0.4,1.1,0.7,2.3,0.1c0.9-0.5,1.4-1.5,1.5-1.5l0,0c0.1,0.1,0.6,1,1.5,1c0,0,1.1,0.1,2.3-1.2c0.1-0.1,0.2-0.2,0.3-0.3
		c0.3,0.5,0.7,0.8,1,1c1.1,0.5,2.3-0.2,3.2-1.1c0.2-0.3,0.4-0.5,0.6-0.7c0,0,0.4,1.3,1.5,1.5c0,0,1.3,0.3,2.7-1.1l0,0l0.1-0.1
		c0.3,0.3,0.7,0.6,1.3,0.7c0.8,0.1,1.6-0.4,2.5-1.1c0.4,0.4,0.8,0.5,0.9,0.6c2.9,0.8,4.3-3.3,5.3-5.1c0,0.3,0.1,0.6,0.7,1.1
		c0.1,0.1,0.9,0.9,1.1,1.2c-0.7,0.1-1.3,0.1-1.5,0.2c-0.5,0.1-1.1,0.1-1.4,0.7c-0.1,0.1-0.2,0.4-0.1,0.7c0.3,0.9,1.6,0.9,2.3,0.8
		c1.7-0.3,2.2-1,2.3-1.7C59.1,36,59.1,35.9,59.1,35.7 M32.9,32.5c0.3,0.2,0.6,0.3,0.9,0.2c0.3-0.1,0.5-0.3,0.6-0.7
		c0.2-0.5-0.1-0.9-0.4-1.1c-0.4-0.2-0.8-0.2-1.1,0.1c-0.3,0.3-0.4,0.6-0.4,0.9C32.5,32.1,32.7,32.3,32.9,32.5 M46.7,31.2
		c0.3,0,0.6-0.2,0.8-0.5c0.3-0.5,0.2-0.9-0.1-1.1c-0.3-0.3-0.7-0.4-1.1-0.3c-0.3,0.2-0.6,0.5-0.7,0.7c-0.1,0.3,0,0.5,0.2,0.7
		C46.2,31.1,46.5,31.3,46.7,31.2 M54.7,31c0.1,0.4-0.1,0.5,0,0.6c0.1,0.2,0.5-0.6,0.6-1.5c0.1-1.5-0.8-1.1-0.9-1.1
		c-0.3,0.1-0.5,0.3-0.5,0.9C54.1,30.5,54.5,30.6,54.7,31"/>
</g>
</svg>
