<?xml version="1.0" encoding="utf-8"?>
<svg version="1.1" id="Layer_1" xmlns="http://www.w3.org/2000/svg" xmlns:xlink="http://www.w3.org/1999/xlink" x="0px" y="0px"
	width="100px" height="100px" viewBox="0 0 100 100" style="enable-background:new 0 0 100 100;" xml:space="preserve">
<g>
	<path style="fill:#E8E8E8;" d="M50,0c27.61,0,50,22.39,50,50s-22.39,50-50,50S0,77.61,0,50S22.39,0,50,0"/>
	<path style="fill:#FFFFFF;" d="M50,1c27.06,0,49,21.94,49,49S77.06,99,50,99S1,77.06,1,50S22.94,1,50,1"/>
	<g>
		<path d="M16.61,59.42h2.96c1.55,0,3.04,0.64,3.04,2.18c0,0.95-0.59,1.45-0.78,1.64c-0.48,0.5-1.57,0.51-2.14,0.48
			c-0.27-0.01-0.72-0.08-0.99-0.11v2.51c0,0.89,0.19,1.07,1.05,1.09v0.23h-3.14v-0.23c0.94-0.07,0.94-0.35,0.94-1.22v-5.26
			c0-0.86-0.12-1.01-0.94-1.09V59.42L16.61,59.42z M18.7,63.34c0.21,0.03,0.43,0.04,0.67,0.04c0.41,0,2.23,0,2.23-1.85
			c0-1.74-1.95-1.87-2.45-1.87c-0.33,0-0.46,0.01-0.46,0.42L18.7,63.34L18.7,63.34L18.7,63.34z M41.16,59.42h2.96
			c1.54,0,3.04,0.64,3.04,2.18c0,0.95-0.59,1.45-0.79,1.64c-0.48,0.5-1.57,0.51-2.13,0.48c-0.27-0.01-0.72-0.08-0.99-0.11v2.51
			c0,0.89,0.19,1.07,1.05,1.09v0.23h-3.14v-0.23c0.94-0.07,0.94-0.35,0.94-1.22v-5.26c0-0.86-0.12-1.01-0.94-1.09V59.42L41.16,59.42
			z M43.24,63.34c0.21,0.03,0.44,0.04,0.67,0.04c0.42,0,2.23,0,2.23-1.85c0-1.74-1.95-1.87-2.45-1.87c-0.33,0-0.46,0.01-0.46,0.42
			L43.24,63.34L43.24,63.34L43.24,63.34z M25,64.86l-0.6,1.66c-0.04,0.11-0.07,0.24-0.07,0.36c0,0.4,0.41,0.4,0.6,0.4v0.18h-1.75
			v-0.18c0.14-0.01,0.29-0.03,0.45-0.21c0.2-0.24,0.48-0.94,0.64-1.36l1.83-4.69h0.18l2.19,5.42c0.28,0.7,0.4,0.8,0.79,0.83v0.18
			h-2.24v-0.18c0.32,0,0.61-0.01,0.61-0.36c0-0.15-0.11-0.47-0.17-0.6l-0.59-1.46L25,64.86L25,64.86z M26.75,64.47l-0.79-2.08
			l-0.81,2.08H26.75L26.75,64.47z M49.59,64.86l-0.6,1.66c-0.04,0.12-0.07,0.24-0.07,0.36c0,0.4,0.41,0.4,0.6,0.4v0.18h-1.75v-0.18
			c0.14-0.01,0.29-0.03,0.45-0.21c0.2-0.24,0.48-0.94,0.64-1.36l1.83-4.69h0.18l2.19,5.42c0.28,0.7,0.4,0.8,0.79,0.83v0.18h-2.24
			v-0.18c0.32,0,0.61-0.01,0.61-0.36c0-0.15-0.11-0.47-0.17-0.6l-0.59-1.46L49.59,64.86L49.59,64.86L49.59,64.86z M51.34,64.47
			l-0.79-2.08l-0.81,2.08H51.34z M37.43,61.33c-0.55,0.07-0.83,0.11-0.83,1.22v5.02h-0.15l-4.46-5.43h-0.02v3.92
			c0,0.98,0.19,1.19,0.83,1.22v0.18h-2.07v-0.18c0.67-0.05,0.86-0.19,0.86-1.22v-4.21c-0.36-0.48-0.5-0.52-0.86-0.52v-0.18h1.51
			l3.96,4.79h0.01v-3.39c0-1.1-0.25-1.17-0.84-1.22v-0.18h2.07L37.43,61.33L37.43,61.33L37.43,61.33z M60.61,63.16
			c-0.22-1-0.79-1.86-2.14-1.86c-0.44,0-1.05,0.19-1.42,0.58c-0.55,0.58-0.73,1.17-0.73,2.55c0,1.8,1.15,2.75,2.25,2.75
			c1.08,0,1.92-0.67,2.19-0.96l0.16,0.17c-0.01,0.02-0.96,1.21-2.59,1.21c-1.42,0-3.04-0.91-3.04-3.29c0-2.14,1.58-3.29,3.1-3.29
			c0.78,0,1.55,0.32,1.75,0.32c0.04,0,0.34,0,0.4-0.32h0.19l0.08,2.15H60.61z M83.07,63.16c-0.22-1-0.79-1.86-2.14-1.86
			c-0.44,0-1.05,0.19-1.42,0.58c-0.55,0.58-0.73,1.17-0.73,2.55c0,1.8,1.15,2.75,2.25,2.75c1.08,0,1.92-0.67,2.19-0.96l0.16,0.17
			c-0.01,0.02-0.97,1.21-2.59,1.21c-1.41,0-3.04-0.91-3.04-3.29c0-2.14,1.58-3.29,3.09-3.29c0.78,0,1.56,0.32,1.75,0.32
			c0.04,0,0.34,0,0.41-0.32h0.18l0.08,2.15H83.07z M63.26,67.28c0.75-0.02,0.86-0.18,0.86-0.86v-4.24c0-0.71-0.13-0.82-0.86-0.86
			v-0.18h2.61v0.18c-0.64,0.03-0.86,0.09-0.86,0.86v4.24c0,0.74,0.21,0.84,0.86,0.86v0.18h-2.61V67.28z M71.55,65.06
			c-0.1-0.8-0.31-0.7-0.97-0.7l-1.48-0.02v2.09c0,0.71,0.17,0.83,0.8,0.86v0.18h-2.46v-0.18c0.66-0.04,0.76-0.18,0.76-0.96v-4.13
			c0-0.75-0.21-0.81-0.76-0.86v-0.18h4.48v1.36h-0.2c-0.13-0.85-0.36-1-1.34-1h-0.99c-0.22,0-0.28,0.04-0.28,0.33v2.11h1.48
			c0.72,0,0.88,0.01,0.97-0.7h0.21v1.81L71.55,65.06L71.55,65.06L71.55,65.06z M73.82,67.28c0.74-0.02,0.85-0.18,0.85-0.86v-4.24
			c0-0.71-0.13-0.82-0.85-0.86v-0.18h2.61v0.18c-0.64,0.03-0.86,0.09-0.86,0.86v4.24c0,0.74,0.21,0.84,0.86,0.86v0.18h-2.61V67.28z"
			/>
		<path style="fill:none;stroke:#000000;stroke-width:0.938;stroke-miterlimit:2.613;" d="M26.6,70.7h47.16"/>
		<path d="M28.23,73.71c-0.35,0.08-0.48,0.09-0.57,0.61l-0.72,3.93c-0.08,0.47,0.19,0.5,0.59,0.54l0.01,0.13h-1.92l-0.01-0.13
			c0.34-0.05,0.61-0.08,0.71-0.61l0.35-1.93h-2.7l-0.36,2c-0.06,0.46,0.15,0.48,0.54,0.54l0.01,0.13h-1.72l-0.01-0.13
			c0.35-0.07,0.46-0.1,0.56-0.61l0.67-3.62c0.03-0.16,0.05-0.36,0.05-0.5c-0.02-0.28-0.22-0.32-0.59-0.35l-0.01-0.13h1.92l0.01,0.13
			c-0.26,0.02-0.61,0.07-0.71,0.61l-0.3,1.59h2.71l0.25-1.34c0.04-0.16,0.05-0.33,0.05-0.5c-0.02-0.29-0.22-0.31-0.54-0.35
			l-0.01-0.13h1.73L28.23,73.71L28.23,73.71z M31.35,76.75c0,0.9-0.92,2.21-1.94,2.17c-0.71-0.03-1.01-0.49-1-1.09
			c0-1.08,0.99-2.23,1.96-2.2C31.15,75.65,31.35,76.26,31.35,76.75L31.35,76.75z M28.96,78.06c0,0.42,0.2,0.69,0.53,0.7
			c0.76,0.03,1.29-1.48,1.3-2.27c0-0.38-0.15-0.71-0.47-0.72C29.57,75.75,28.97,77.19,28.96,78.06L28.96,78.06z M33.81,75.78h-0.6
			l0.18-0.84c0.01-0.06,0-0.14-0.06-0.12c-0.07-0.01-0.1,0.06-0.12,0.1c-0.2,0.29-0.54,0.65-0.78,0.8c-0.12,0.07-0.33,0.13-0.37,0.2
			c-0.02,0.04-0.02,0.09-0.01,0.13h0.55l-0.46,2.25c-0.03,0.13-0.06,0.27-0.06,0.39c0.01,0.25,0.2,0.31,0.37,0.33
			c0.45,0.05,0.84-0.22,1.39-0.7l-0.11-0.06c-0.26,0.2-0.62,0.48-0.8,0.47c-0.23-0.01-0.26-0.17-0.26-0.25c0-0.02,0-0.04,0.01-0.07
			l0.48-2.37h0.62L33.81,75.78L33.81,75.78z M35.14,77.3c1.38-0.26,1.41-1.14,1.41-1.2c0-0.15-0.06-0.29-0.23-0.3
			c-0.36-0.01-0.82,0.54-1.07,1.19L35.14,77.3L35.14,77.3z M36.71,78.17c-0.08,0.12-0.69,0.77-1.35,0.75
			c-0.7-0.02-0.91-0.61-0.91-1.07c0-1.05,1.06-2.25,2-2.22c0.34,0.01,0.55,0.2,0.54,0.52c0,0.58-0.63,1.15-1.71,1.29l-0.18,0.02
			c-0.04,0.15-0.07,0.3-0.07,0.44c0,0.5,0.34,0.68,0.63,0.7c0.36,0.01,0.64-0.23,0.97-0.52L36.71,78.17L36.71,78.17z M39.9,77.91
			c0.07,0.32,0.22,1,0.76,0.98c0.38-0.01,0.46-0.37,0.44-0.62c-0.03-0.49-0.87-1.16-0.91-1.73c-0.01-0.23,0.04-0.82,0.75-0.85
			c0.3-0.01,0.44,0.11,0.65,0.1c0.11-0.01,0.15-0.08,0.18-0.14l0.09,0l-0.07,1.03l-0.1,0c-0.06-0.42-0.25-0.84-0.68-0.82
			c-0.15,0.01-0.36,0.08-0.34,0.44c0.03,0.46,0.89,1.09,0.94,1.71c0.05,0.81-0.56,1.01-0.93,1.02c-0.2,0.01-0.48-0.12-0.67-0.12
			c-0.09,0-0.11,0.08-0.15,0.16l-0.11,0l0.06-1.18L39.9,77.91L39.9,77.91z M69.98,76.75c0,0.9-0.92,2.21-1.94,2.17
			c-0.71-0.03-1-0.49-1-1.09c0-1.08,0.99-2.23,1.97-2.2C69.78,75.65,69.98,76.26,69.98,76.75L69.98,76.75z M67.59,78.06
			c0,0.42,0.2,0.69,0.53,0.7c0.76,0.03,1.29-1.48,1.29-2.27c0-0.38-0.15-0.71-0.46-0.72C68.21,75.75,67.6,77.19,67.59,78.06
			L67.59,78.06z M75.57,75.78h-0.59l0.18-0.84c0.01-0.06-0.01-0.14-0.06-0.12c-0.07-0.01-0.1,0.06-0.12,0.1
			c-0.2,0.29-0.54,0.65-0.79,0.8c-0.12,0.07-0.33,0.13-0.37,0.2c-0.02,0.04-0.02,0.09-0.01,0.13h0.55L73.9,78.3
			c-0.02,0.13-0.06,0.27-0.05,0.39c0.01,0.25,0.19,0.31,0.36,0.33c0.45,0.05,0.85-0.22,1.39-0.7l-0.1-0.06
			c-0.26,0.2-0.63,0.48-0.8,0.47c-0.23-0.01-0.26-0.17-0.26-0.25c0-0.02,0-0.04,0-0.07l0.48-2.37h0.62L75.57,75.78L75.57,75.78z
			 M62.3,77.3c1.38-0.26,1.41-1.14,1.41-1.2c0-0.15-0.07-0.29-0.24-0.3c-0.36-0.01-0.81,0.54-1.06,1.19L62.3,77.3L62.3,77.3z
			 M63.87,78.17c-0.07,0.12-0.68,0.77-1.35,0.75c-0.7-0.02-0.91-0.61-0.91-1.07c0.01-1.05,1.06-2.25,2-2.22
			c0.34,0.01,0.55,0.2,0.54,0.52c0,0.58-0.63,1.15-1.71,1.29l-0.19,0.02c-0.04,0.15-0.07,0.3-0.07,0.44c0,0.5,0.35,0.68,0.63,0.7
			c0.36,0.01,0.64-0.23,0.98-0.52L63.87,78.17L63.87,78.17z M64.59,77.91c0.07,0.32,0.22,1,0.76,0.98c0.37-0.01,0.46-0.37,0.44-0.62
			c-0.03-0.49-0.87-1.16-0.91-1.73c-0.02-0.23,0.04-0.82,0.75-0.85c0.3-0.01,0.44,0.11,0.64,0.1c0.11-0.01,0.15-0.08,0.18-0.14
			l0.09,0l-0.07,1.03l-0.1,0c-0.06-0.42-0.25-0.84-0.69-0.82c-0.15,0.01-0.35,0.08-0.33,0.44c0.03,0.46,0.89,1.09,0.93,1.71
			c0.05,0.81-0.56,1.01-0.93,1.02c-0.2,0.01-0.48-0.12-0.67-0.12c-0.09,0-0.12,0.08-0.15,0.16l-0.1,0l0.06-1.18L64.59,77.91
			L64.59,77.91z M76.22,77.91c0.07,0.32,0.22,1,0.77,0.98c0.37-0.01,0.46-0.37,0.44-0.62c-0.04-0.49-0.88-1.16-0.92-1.73
			c-0.01-0.23,0.04-0.82,0.75-0.85c0.3-0.01,0.44,0.11,0.64,0.1c0.12-0.01,0.15-0.08,0.18-0.14l0.09,0l-0.06,1.03l-0.11,0
			c-0.06-0.42-0.25-0.84-0.69-0.82c-0.15,0.01-0.36,0.08-0.33,0.44c0.03,0.46,0.89,1.09,0.93,1.71c0.05,0.81-0.56,1.01-0.93,1.02
			c-0.2,0.01-0.48-0.12-0.67-0.12c-0.1,0-0.12,0.08-0.15,0.16l-0.11,0l0.06-1.18L76.22,77.91L76.22,77.91z M58.75,76.18l-0.48-0.04
			l-0.37,1.8c-0.07,0.37-0.07,0.4-0.06,0.47c0.02,0.31,0.12,0.33,0.52,0.39l0.01,0.13h-1.71l-0.01-0.13
			c0.38-0.08,0.47-0.09,0.57-0.61l0.72-3.62c0.02-0.09,0.11-0.38,0.11-0.48c0.01-0.09,0.06-0.17-0.12-0.17
			c-0.08,0-0.47,0.1-0.63,0.41l-0.2-0.01l-0.08-0.06c0.19-0.2,1.03-0.96,2.16-0.8c0.35,0.11,1.18,0.22,1.22,1.3
			c0.03,0.65-0.3,1.13-0.99,1.38c0.56,0.41,0.86,1.27,0.94,1.5c0.06,0.19,0.38,1.17,0.74,1.18v0.1h-1.4v-0.09
			c0.15-0.01,0.47-0.09,0.39-0.38C59.96,78.01,59.27,76.23,58.75,76.18L58.75,76.18z M58.3,75.93c0.18,0.04,0.24,0.04,0.44,0.04
			c0.78,0.01,1.07-0.52,1.03-1.26c-0.03-0.57-0.25-0.92-0.67-0.92c-0.34,0-0.36,0.08-0.4,0.23L58.3,75.93L58.3,75.93z M37.3,78.93
			l0.02-0.1c0.21-0.02,0.35-0.06,0.44-0.12c0.09-0.06,0.15-0.18,0.19-0.37l0.91-4.39c0.03-0.14,0.04-0.24,0.03-0.29
			c-0.02-0.1-0.1-0.14-0.23-0.14c-0.03,0-0.07,0-0.1,0.01c-0.05,0.01-0.1,0.01-0.14,0.03l0.02-0.11c0.38-0.1,0.76-0.2,1.13-0.32
			c0.02,0,0.03,0.01,0.03,0.02c0,0.01-0.01,0.04-0.01,0.09l-1.06,5.12c-0.04,0.19-0.03,0.32,0.02,0.37c0.05,0.06,0.18,0.09,0.38,0.1
			l-0.02,0.1L37.3,78.93L37.3,78.93L37.3,78.93z M46.24,78.68c-0.01-0.24,0.56-2.89,0.58-2.98l-0.48,0.03
			c-1.6-0.2-2.73,1.29-2.7,2.54c0.01,0.23,0.15,0.82,0.86,0.82c0.42,0,0.86-0.11,1.34-1.08l0.02,0.02c-0.1,0.48-0.13,0.65-0.12,0.82
			c0,0.13,0.01,0.36,0.31,0.34c0.06,0,0.58-0.39,0.58-0.39l-0.27-0.01C46.29,78.78,46.25,78.74,46.24,78.68L46.24,78.68z
			 M45.78,77.93c-0.17,0.43-1.28,1.28-1.62,0.4C43.74,77.26,45,75.6,46.25,76L45.78,77.93L45.78,77.93z M48.78,78.92l0.02-0.1
			c-0.16-0.01-0.35-0.03-0.41-0.1c-0.07-0.06-0.08-0.17-0.04-0.34l0.38-1.79c0.19-0.25,0.27-0.37,0.55-0.46
			c0.09-0.03,0.28-0.03,0.42-0.03c0.2,0,0.32,0.07,0.42,0.16c0.11,0.09,0.09,0.34,0.04,0.55l-0.29,1.39
			c-0.05,0.24-0.12,0.4-0.2,0.47c-0.08,0.07-0.21,0.12-0.39,0.14l-0.02,0.1h1.43l0.02-0.1c-0.16,0-0.27-0.04-0.32-0.12
			c-0.05-0.08-0.06-0.2-0.02-0.37l0.32-1.53c0.06-0.39,0.06-0.65-0.13-0.86c-0.18-0.19-0.52-0.22-0.68-0.22
			c-0.2,0-0.48,0.05-0.59,0.12c-0.15,0.09-0.31,0.18-0.45,0.43l0.05-0.39c0-0.02,0-0.04,0-0.05c0-0.01-0.07-0.02-0.09-0.02
			l-0.32,0.02c-0.21,0.06-0.65,0.11-0.76,0.14l-0.03,0.12c0.04-0.01,0.06-0.01,0.08-0.01c0.02,0,0.05,0,0.07,0
			c0.14,0,0.35-0.01,0.38,0.09c0.01,0.06,0,0.17-0.03,0.32l-0.38,1.8c-0.05,0.22-0.11,0.36-0.19,0.42
			c-0.08,0.06-0.21,0.11-0.38,0.13l-0.02,0.1L48.78,78.92L48.78,78.92L48.78,78.92z M54.07,78.68c-0.02-0.21,0.35-2.32,0.45-2.86
			c0.06-0.29,0.28-1.4,0.47-2.61l-0.04-0.04c-0.37,0.09-0.75,0.15-1.12,0.19l0.01,0.14c0.41,0.01,0.53,0.05,0.54,0.24
			c0.01,0.11-0.03,0.32-0.07,0.55l-0.27,1.45c-1.6-0.19-2.67,1.3-2.59,2.54c0.01,0.23,0.18,0.82,0.88,0.82
			c0.42,0,0.86-0.11,1.31-1.08l0.02,0.02c-0.08,0.48-0.11,0.65-0.1,0.82c0.01,0.13,0.02,0.36,0.32,0.34c0.06,0,0.57-0.39,0.57-0.39
			l-0.28-0.01C54.12,78.78,54.07,78.74,54.07,78.68L54.07,78.68z M53.58,77.93c-0.15,0.43-1.24,1.28-1.61,0.4
			c-0.45-1.07,0.75-2.73,2.01-2.33L53.58,77.93L53.58,77.93z M70.26,78.93l0.02-0.12c0.22-0.02,0.37-0.06,0.45-0.11
			c0.08-0.06,0.13-0.18,0.17-0.36l0.28-1.57c0.04-0.23,0.04-0.39,0.02-0.49c-0.03-0.1-0.1-0.15-0.21-0.15c-0.02,0-0.05,0-0.09,0.01
			c-0.04,0.01-0.08,0.02-0.12,0.02l0.02-0.12c0.14-0.04,0.29-0.09,0.43-0.14c0.15-0.04,0.25-0.08,0.31-0.1
			c0.12-0.05,0.25-0.09,0.39-0.15c0.01,0,0.02,0,0.02,0.02c0,0.01,0,0.03-0.01,0.07l-0.16,0.79c0.18-0.21,0.35-0.47,0.5-0.59
			c0.16-0.12,0.31-0.18,0.46-0.18c0.12,0,0.21,0.04,0.27,0.11c0.06,0.07,0.08,0.16,0.06,0.27c-0.02,0.09-0.06,0.17-0.13,0.24
			c-0.06,0.06-0.14,0.1-0.23,0.1c-0.09,0-0.17-0.04-0.24-0.12c-0.08-0.08-0.17,0.06-0.22,0.06c-0.08,0-0.18,0.11-0.32,0.24
			c-0.14,0.13-0.26,0.49-0.28,0.62l-0.16,1.01c-0.03,0.2-0.01,0.34,0.07,0.42c0.08,0.08,0.22,0.11,0.44,0.11l-0.02,0.12L70.26,78.93
			L70.26,78.93L70.26,78.93z"/>
		<path style="fill:#B08F25;" d="M55.15,37.76c1.62-0.7,5.67-0.57,6.8-0.45v-8.13c0-4.43-5.31-8.36-11.81-8.36
			c-6.49,0-11.8,3.93-11.8,8.36v8.15c0.89-0.12,5.25-0.3,6.94,0.43c3.22,1.39,4.38,4.59,4.24,5.54c-0.03,0.21-0.08,0.42-0.15,0.12
			c-0.21-0.86-1.99-2.72-4.15-3.11c-0.77-0.14-2.92-0.06-3.03-1.73c-1.92,0.28-3.3-0.41-3.85-0.94v3.33
			c0.89-0.12,5.25-0.3,6.94,0.43c3.22,1.4,4.38,4.6,4.24,5.55c-0.03,0.21-0.08,0.42-0.15,0.12c-0.21-0.86-1.99-2.73-4.15-3.11
			c-0.77-0.14-2.92-0.06-3.03-1.73c-1.92,0.29-3.3-0.41-3.85-0.93v3.35c0.89-0.12,5.25-0.3,6.94,0.43c3.22,1.39,4.38,4.59,4.24,5.54
			c-0.03,0.21-0.08,0.42-0.15,0.12c-0.21-0.86-1.99-2.73-4.15-3.11c-0.77-0.14-2.92-0.06-3.03-1.73c-1.92,0.29-3.3-0.41-3.85-0.93
			v6.26c0,1.53,1.25,2.77,2.77,2.77h18.06c1.52,0,2.77-1.25,2.77-2.77v-6.14c-0.62,0.51-1.94,1.08-3.71,0.81
			c-0.11,1.67-2.26,1.59-3.03,1.73c-2.17,0.39-3.95,2.25-4.15,3.11c-0.07,0.3-0.12,0.09-0.15-0.12c-0.14-0.95,1.02-4.15,4.24-5.54
			c1.62-0.7,5.67-0.57,6.8-0.45v-3.21c-0.62,0.5-1.94,1.08-3.71,0.81c-0.11,1.67-2.26,1.59-3.03,1.73
			c-2.17,0.39-3.95,2.25-4.15,3.11c-0.07,0.3-0.12,0.09-0.15-0.12c-0.14-0.95,1.02-4.15,4.24-5.55c1.62-0.7,5.67-0.57,6.8-0.45
			v-3.19c-0.62,0.5-1.94,1.08-3.71,0.82c-0.11,1.67-2.26,1.59-3.03,1.73c-2.17,0.39-3.95,2.25-4.15,3.11
			c-0.07,0.3-0.12,0.09-0.15-0.12C50.78,42.36,51.94,39.16,55.15,37.76L55.15,37.76z M48.47,38.1l-0.45-0.36
			c-0.29-1.84-2.95-3.27-5.44-3.43c-0.41-0.32-0.67-1-0.56-1.66c1.45,0.1,2.32,0.57,2.76,0.86c-0.13-0.42-1.82-1.31-2.45-1.53
			c0.13-0.49,0.59-0.75,1.27-0.96C46.89,32.96,48.54,36.52,48.47,38.1z M49.31,39.7l-0.29-0.27c0.29-2.4-0.62-4.43-1.89-6.14
			c-0.86-1.15-2.81-3.12-3.14-3.45v0c-0.06-0.06-0.06-0.06,0,0c-0.15-0.91,0.01-1.55,0.2-1.97c0.6,0,2.51,2,2.84,2.56
			c0.02-0.49-1.83-3.09-2.18-3.25c0.49-0.22,1.21-0.28,2.03-0.16C48.69,30.42,49.83,34.4,49.31,39.7L49.31,39.7z M50.59,40.81
			c0.02,0.22-0.3,0.84-0.45,0.84c-0.15,0-0.47-0.62-0.45-0.84c0.02-0.22,0.15-1.73,0.15-2.4c0-0.67-0.13-3.67-0.21-4.58
			c-0.21-2.2-1.47-6.48-2.12-7.37c0.07-0.87,0.76-1.66,0.89-1.77c0.54-0.47,1.18-1.1,1.34,0.18c0.08,0.74,0.15,1.47,0.15,1.47v1.47
			c0,0.2,0.2,0.42,0.26,0.47c0.06-0.04,0.26-0.27,0.26-0.47v-1.47c0,0,0.07-0.73,0.15-1.47c0.15-1.28,0.8-0.64,1.34-0.18
			c0.13,0.11,0.81,0.9,0.88,1.77c-0.64,0.89-1.9,5.17-2.11,7.37c-0.09,0.91-0.22,3.92-0.22,4.58
			C50.44,39.08,50.57,40.59,50.59,40.81L50.59,40.81z M51,39.7c-0.51-5.29,0.62-9.28,2.42-12.68c0.82-0.12,1.54-0.06,2.02,0.16
			c-0.35,0.16-2.2,2.76-2.18,3.25c0.33-0.56,2.25-2.56,2.84-2.56c0.19,0.43,0.36,1.07,0.21,1.97c0.06-0.06,0.06-0.06,0,0v0
			c-0.33,0.33-2.29,2.3-3.14,3.45C51.91,35,51,37.03,51.29,39.43L51,39.7z M51.85,38.1c-0.07-1.58,1.58-5.14,4.87-7.08
			c0.68,0.21,1.14,0.47,1.27,0.96c-0.63,0.22-2.32,1.11-2.45,1.53c0.45-0.29,1.32-0.76,2.77-0.86c0.11,0.66-0.16,1.34-0.56,1.66
			c-2.49,0.16-5.16,1.58-5.45,3.43L51.85,38.1z"/>
	</g>
</g>
</svg>
