<?xml version="1.0"?>
<svg xmlns="http://www.w3.org/2000/svg" xmlns:xlink="http://www.w3.org/1999/xlink" xmlns:svgjs="http://svgjs.com/svgjs" version="1.1" width="512" height="512" x="0" y="0" viewBox="0 0 512 512" style="enable-background:new 0 0 512 512" xml:space="preserve" class=""><g><g xmlns="http://www.w3.org/2000/svg"><g><g><g><g><g><g><g><g><g><g><circle cx="256" cy="256" fill="#f1f1f1" r="256" data-original="#fdba12" style="" class=""/></g></g></g></g></g></g></g></g></g></g><path d="m512 256c0-9.888-.561-19.645-1.652-29.241l-155.255-155.255-32.782 171.198-124.553-124.554-102.758 310.348 64.824 64.824c29.693 12.045 62.16 18.68 96.176 18.68 141.385 0 256-114.615 256-256z" fill="#f1f1f1" data-original="#ff9700" style="" class=""/><g><path d="m430.758 428.496h-112v-330.496l112 55z" fill="#ffffff" data-original="#ffffff" style=""/></g><g><path d="m430.758 153-55.52-27.264v302.76h55.52z" fill="#e9edf5" data-original="#e9edf5" style="" class=""/></g><g><path d="m333 167h85v36.436h-85z" fill="#dce1eb" data-original="#dce1eb" style="" class=""/></g><g><path d="m333 222.687h85v36.436h-85z" fill="#dce1eb" data-original="#dce1eb" style="" class=""/></g><g><path d="m333 278.374h85v36.436h-85z" fill="#dce1eb" data-original="#dce1eb" style="" class=""/></g><g><path d="m333 334.061h85v36.436h-85z" fill="#dce1eb" data-original="#dce1eb" style="" class=""/></g><g><path d="m375.238 167h42.762v36.437h-42.762z" fill="#bec3d2" data-original="#bec3d2" style="" class=""/></g><g><path d="m375.238 222.687h42.762v36.436h-42.762z" fill="#bec3d2" data-original="#bec3d2" style="" class=""/></g><g><path d="m375.238 278.374h42.762v36.436h-42.762z" fill="#bec3d2" data-original="#bec3d2" style="" class=""/></g><g><path d="m375.238 334.061h42.762v36.436h-42.762z" fill="#bec3d2" data-original="#bec3d2" style="" class=""/></g><g><path d="m216.422 71.504h138.671v356.992h-138.671z" fill="#555a66" data-original="#555a66" style="" class=""/></g><g><path d="m285.357 71.504h69.736v356.992h-69.736z" fill="#333940" data-original="#333940" style="" class=""/></g><g><path d="m95 118.148h102.757v310.348h-102.757z" fill="#555a66" data-original="#555a66" style="" class=""/></g><g><path d="m144.286 118.148h53.472v310.348h-53.472z" fill="#333940" data-original="#333940" style="" class=""/></g><g><path d="m259.728 428.496h-103.97v-220.267l103.97-41.229z" fill="#707789" data-original="#707789" style=""/></g><g><path d="m259.728 167-50.561 20.05v241.446h50.561z" fill="#636978" data-original="#636978" style="" class=""/></g><g><g><path d="m311.787 98h27.941v53.533h-27.941z" fill="#65b1fc" data-original="#65b1fc" style=""/></g><g><path d="m231.787 98h27.941v53.533h-27.941z" fill="#a3d4ff" data-original="#a3d4ff" style="" class=""/></g></g><g><path d="m271.787 98h27.941v53.533h-27.941z" fill="#a3d4ff" data-original="#a3d4ff" style="" class=""/></g><g><g><path d="m311.787 167h27.941v53.533h-27.941z" fill="#65b1fc" data-original="#65b1fc" style=""/></g></g><g><path d="m271.787 167h27.941v53.533h-27.941z" fill="#a3d4ff" data-original="#a3d4ff" style="" class=""/></g><g><g><path d="m311.787 236.482h27.941v53.533h-27.941z" fill="#65b1fc" data-original="#65b1fc" style=""/></g></g><g><path d="m271.787 236.482h27.941v53.533h-27.941z" fill="#a3d4ff" data-original="#a3d4ff" style="" class=""/></g><g><g><path d="m311.787 305.964h27.941v53.533h-27.941z" fill="#65b1fc" data-original="#65b1fc" style=""/></g></g><g><path d="m271.787 305.964h27.941v53.533h-27.941z" fill="#a3d4ff" data-original="#a3d4ff" style="" class=""/></g><g><path d="m285.357 98h14.371v53.532h-14.371z" fill="#65b1fc" data-original="#65b1fc" style=""/></g><g><path d="m285.357 167h14.371v53.532h-14.371z" fill="#65b1fc" data-original="#65b1fc" style=""/></g><g><path d="m285.357 236.482h14.371v53.532h-14.371z" fill="#65b1fc" data-original="#65b1fc" style=""/></g><g><path d="m285.357 305.964h14.371v53.532h-14.371z" fill="#65b1fc" data-original="#65b1fc" style=""/></g><g><path d="m171 226.333h74.757v29.667h-74.757z" fill="#bec3d2" data-original="#bec3d2" style="" class=""/></g><g><path d="m171 275.181h74.757v29.667h-74.757z" fill="#bec3d2" data-original="#bec3d2" style="" class=""/></g><g><path d="m171 324.029h74.757v29.667h-74.757z" fill="#bec3d2" data-original="#bec3d2" style="" class=""/></g><g><path d="m171 372.876h74.757v29.667h-74.757z" fill="#bec3d2" data-original="#bec3d2" style="" class=""/></g><g><path d="m209.167 226.333h36.591v29.667h-36.591z" fill="#9196aa" data-original="#9196aa" style=""/></g><g><path d="m209.167 275.181h36.591v29.667h-36.591z" fill="#9196aa" data-original="#9196aa" style=""/></g><g><path d="m209.167 324.029h36.591v29.667h-36.591z" fill="#9196aa" data-original="#9196aa" style=""/></g><g><path d="m209.167 372.876h36.591v29.667h-36.591z" fill="#9196aa" data-original="#9196aa" style=""/></g><g><path d="m109.667 136.366h30.333v30.333h-30.333z" fill="#e9edf5" data-original="#e9edf5" style="" class=""/></g><g><path d="m109.667 231.667h30.333v30.333h-30.333z" fill="#e9edf5" data-original="#e9edf5" style="" class=""/></g><g><path d="m109.667 289.681h30.333v30.333h-30.333z" fill="#e9edf5" data-original="#e9edf5" style="" class=""/></g><g><path d="m152.167 157.936h30.333v30.333h-30.333z" fill="#cdd2e1" data-original="#cdd2e1" style=""/></g></g></g></svg>
