<?xml version="1.0" encoding="utf-8"?>
<svg version="1.1" id="Layer_1" xmlns="http://www.w3.org/2000/svg" xmlns:xlink="http://www.w3.org/1999/xlink" x="0px" y="0px"
	width="100px" height="100px" viewBox="0 0 100 100" style="enable-background:new 0 0 100 100;" xml:space="preserve">
<g>
	<path style="fill:#E8E8E8;" d="M50,0c27.6,0,50,22.4,50,50s-22.4,50-50,50S0,77.6,0,50S22.4,0,50,0"/>
	<path style="fill:#FFFFFF;" d="M50,1c27.1,0,49,21.9,49,49S77.1,99,50,99S1,77.1,1,50S22.9,1,50,1"/>
	<g id="g3577" transform="matrix(1.25,0,0,-1.25,160.35739,776.505)">
		<g id="g3605" transform="matrix(5.2535789,0,0,5.2535789,-87.350026,584.77043)">
			<path id="path3607" style="fill:#004165;" d="M-6.2-0.7L-6.2-0.7c0.3,0,0.4,0,0.4,0.2c0,0.1-0.1,0.2-0.3,0.2c-0.1,0-0.1,0-0.1,0
				V-0.7z M-6.4-0.4c0,0.1-0.1,0.1-0.1,0.1h0v0c0.1,0,0.2,0,0.3,0c0.1,0,0.2,0,0.3,0c0.2,0,0.4,0,0.4-0.2c0-0.1-0.1-0.2-0.3-0.2
				L-5.5-1C-5.4-1-5.4-1-5.3-1v0c-0.1,0-0.1,0-0.2,0c-0.1,0-0.1,0-0.2,0C-5.8-0.9-5.9-0.8-6-0.7h-0.1v-0.2C-6.2-1-6.1-1-6-1h0v0
				c-0.1,0-0.2,0-0.3,0c-0.1,0-0.2,0-0.3,0v0h0C-6.5-1-6.4-1-6.4-1V-0.4"/>
		</g>
		<g id="g3609" transform="matrix(5.2535789,0,0,5.2535789,39.518651,548.38414)">
			<path id="path3611" style="fill:#004165;" d="M-29,5.9L-29,5.9c0.1,0,0.1,0,0.1,0v0.4c0,0-0.1,0-0.1,0h0v0c0.1,0,0.1,0,0.2,0
				c0.1,0,0.2,0,0.2,0v0h0c-0.1,0-0.1,0-0.1,0V5.9c0,0,0.1,0,0.1,0h0l0,0c-0.1,0-0.2,0-0.2,0C-28.9,5.9-29,5.9-29,5.9L-29,5.9"/>
		</g>
		<g id="g3613" transform="matrix(5.2535789,0,0,5.2535789,225.44281,585.74235)">
			<path id="path3615" style="fill:#004165;" d="M-62.6-0.8c0,0.1-0.1,0.1-0.3,0.1c-0.2,0-0.4-0.1-0.4-0.2c0-0.1,0.1-0.3,0.4-0.3
				c0.2,0,0.3,0.1,0.3,0.1l0,0c0,0,0-0.1,0-0.1c-0.1,0-0.2,0-0.3,0c-0.3,0-0.6,0.1-0.6,0.3c0,0.2,0.3,0.3,0.5,0.3c0.2,0,0.2,0,0.4,0
				C-62.5-0.7-62.5-0.8-62.6-0.8L-62.6-0.8"/>
		</g>
		<g id="g3617" transform="matrix(5.2535789,0,0,5.2535789,310.61383,552.99153)">
			<path id="path3619" style="fill:#004165;" d="M-77.9,5.1c0,0,0.1,0,0.1,0h0v0C-77.8,5-77.9,5-77.9,5.1C-78.1,5-78.2,5-78.2,5v0h0
				c0.1,0,0.1,0,0.1,0v0.4c0,0-0.1,0-0.1,0h0v0c0.1,0,0.1,0,0.2,0c0.1,0,0.2,0,0.2,0v0h0c-0.1,0-0.1,0-0.1,0V5.3h0.5v0.2
				c0,0-0.1,0-0.1,0h0v0c0.1,0,0.2,0,0.2,0c0.1,0,0.2,0,0.2,0v0h0c-0.1,0-0.1,0-0.1,0V5.1c0,0,0.1,0,0.1,0h0v0c-0.1,0-0.1,0-0.2,0
				c-0.1,0-0.2,0-0.2,0v0h0c0.1,0,0.1,0,0.1,0v0.2h-0.5V5.1"/>
		</g>
		<g id="g3621" transform="matrix(5.2535789,0,0,5.2535789,443.19314,548.38414)">
			<path id="path3623" style="fill:#004165;" d="M-101.8,5.9L-101.8,5.9c0.1,0,0.1,0,0.1,0v0.4c0,0-0.1,0-0.1,0h0v0
				c0.1,0,0.2,0,0.4,0s0.3,0,0.4,0c0,0,0-0.1,0-0.1l0,0c0,0.1,0,0.1-0.2,0.1h-0.2V6.2h0.2c0.1,0,0.1,0,0.1,0.1h0c0,0,0-0.1,0-0.1
				c0,0,0-0.1,0-0.1l0,0c0,0,0,0.1-0.1,0.1h-0.2V6c0-0.1,0.1-0.1,0.2-0.1c0.2,0,0.2,0,0.3,0.1l0,0c0,0,0-0.1,0-0.1
				c-0.1,0-0.3,0-0.4,0C-101.6,5.9-101.7,5.9-101.8,5.9L-101.8,5.9"/>
		</g>
		<g id="g3625" transform="matrix(5.2535789,0,0,5.2535789,638.5895,560.11013)">
			<path id="path3627" style="fill:#004165;" d="M-137.1,3.8l0.3,0.4c0,0,0.1,0,0.1,0c0,0,0.1,0,0.2,0v0h0c0,0-0.1,0-0.1,0
				c0,0,0,0,0-0.1l0.1-0.4c0,0,0,0,0.1,0v0c-0.1,0-0.1,0-0.2,0c-0.1,0-0.2,0-0.2,0v0c0.1,0,0.1,0,0.1,0c0,0,0,0,0,0l0,0.3h0
				l-0.4-0.5h0l-0.3,0.4h0l0-0.4c0,0,0,0,0,0c0,0,0.1,0,0.1,0h0v0c-0.1,0-0.1,0-0.2,0c-0.1,0-0.1,0-0.2,0v0h0c0.1,0,0.1,0,0.1,0.1
				l0,0.2c0,0.1,0,0.1,0,0.1c0,0-0.1,0.1-0.1,0.1h0v0c0.1,0,0.1,0,0.2,0c0,0,0.1,0,0.1,0L-137.1,3.8"/>
		</g>
		<g id="g3629" transform="matrix(5.2535789,0,0,5.2535789,802.15443,548.30534)">
			<path id="path3631" style="fill:#004165;" d="M-166.6,5.9c0.3,0,0.3,0.1,0.3,0.3c0,0.1-0.1,0.3-0.3,0.3c-0.2,0-0.3-0.1-0.3-0.2
				C-166.9,6.1-166.8,5.9-166.6,5.9z M-166.6,6.5c0.3,0,0.5-0.1,0.5-0.3c0-0.2-0.2-0.3-0.5-0.3c-0.3,0-0.5,0.1-0.5,0.3
				C-167.1,6.3-166.9,6.5-166.6,6.5"/>
		</g>
		<g id="g3633" transform="matrix(5.2535789,0,0,5.2535789,987.79489,561.8911)">
			<path id="path3635" style="fill:#004165;" d="M-200,3.5L-200,3.5l0,0.3c0,0.1-0.1,0.1-0.1,0.1h0v0c0.1,0,0.1,0,0.2,0
				c0.1,0,0.1,0,0.2,0v0h0c-0.1,0-0.1,0-0.1-0.1L-200,3.5c0.1-0.1,0.1-0.1,0.1-0.2h-0.1l-0.7,0.5V3.4c0-0.1,0-0.1,0.1-0.1h0v0
				c-0.1,0-0.1,0-0.2,0c-0.1,0-0.1,0-0.2,0v0h0c0.1,0,0.1,0,0.1,0.1v0.3c0,0-0.1,0.1-0.1,0.1h0v0c0.1,0,0.1,0,0.2,0c0,0,0.1,0,0.1,0
				L-200,3.5"/>
		</g>
		<g id="g3637" transform="matrix(5.2535789,0,0,5.2535789,1065.0487,598.35094)">
			<path id="path3639" style="fill:#004165;" d="M-214-3.1c-0.1,0-0.1,0-0.1-0.1h0c0,0,0,0,0,0.1c0,0,0,0,0,0.1h0
				C-214.1-3.1-214-3.1-214-3.1l0.7,0c0,0,0.1,0,0.1,0l0,0c0,0,0,0,0-0.1c0,0,0,0,0-0.1l0,0c0,0,0,0.1-0.1,0.1h-0.2v-0.4
				c0-0.1,0-0.1,0.1-0.1h0v0c-0.1,0-0.2,0-0.2,0c-0.1,0-0.2,0-0.2,0v0h0c0.1,0,0.1,0,0.1,0.1v0.4H-214"/>
		</g>
	</g>
</g>
</svg>
