<?xml version="1.0" encoding="utf-8"?>
<svg version="1.1" id="Layer_1" xmlns="http://www.w3.org/2000/svg" xmlns:xlink="http://www.w3.org/1999/xlink" x="0px" y="0px"
	width="100px" height="100px" viewBox="0 0 100 100" style="enable-background:new 0 0 100 100;" xml:space="preserve">
<g>
	<path style="fill:#E8E8E8;" d="M50,0c27.6,0,50,22.4,50,50s-22.4,50-50,50S0,77.6,0,50S22.4,0,50,0"/>
	<path style="fill:#FFFFFF;" d="M50,1c27.1,0,49,21.9,49,49S77.1,99,50,99S1,77.1,1,50S22.9,1,50,1"/>
	<g>
		<path style="fill:#EE3424;" d="M35.9,58.1h53.6V41.9H35.9V58.1z"/>
		<path style="fill:#9FDDF9;" d="M40.6,50c0-2.6-2.1-4.7-4.6-4.8v-3.4H10.5v16.3H36v-3.4C38.5,54.7,40.6,52.6,40.6,50"/>
		<path style="fill:#FFFFFF;" d="M46.3,48.4c-1,0-1.4,0.9-1.4,1.9c0,1,0.4,1.9,1.4,1.9c1,0,1.4-0.9,1.4-1.9
			C47.7,49.3,47.3,48.4,46.3,48.4z M43.4,45.1H45v3h0c0.4-0.6,1.1-0.9,1.9-0.9c1.2,0,2.4,0.9,2.4,3.1c0,2.2-1.3,3.1-2.4,3.1
			c-0.9,0-1.6-0.3-1.9-0.9h0v0.8h-1.5L43.4,45.1z M53.6,50.4c-0.3,0.2-0.8,0.3-1.3,0.3c-0.5,0.1-1,0.3-1,0.9c0,0.6,0.5,0.8,1,0.8
			c1.3,0,1.3-1,1.3-1.4V50.4z M49.9,49.2c0.1-1.5,1.4-2,2.8-2c1.2,0,2.6,0.3,2.6,1.7v3.1c0,0.5,0.1,1.1,0.2,1.3h-1.6
			c-0.1-0.2-0.1-0.4-0.1-0.6c-0.5,0.5-1.3,0.7-2,0.7c-1.1,0-2-0.6-2-1.8c0-1.3,1-1.7,2-1.8c1-0.1,1.9-0.1,1.9-0.8
			c0-0.7-0.5-0.8-1-0.8c-0.6,0-1,0.3-1.1,0.9L49.9,49.2z M56,47.4h1.5v1.1h0c0.3-0.7,1.1-1.3,1.9-1.3c0.1,0,0.3,0,0.4,0.1v1.5
			c-0.1,0-0.4-0.1-0.6-0.1c-1.2,0-1.6,0.9-1.6,1.9v2.7H56L56,47.4z M64.1,50.2c0-1-0.3-1.8-1.4-1.8c-0.9,0-1.3,0.8-1.3,1.7
			c0,0.8,0.3,1.8,1.3,1.8C63.7,51.9,64.1,51.1,64.1,50.2L64.1,50.2z M65.7,52.9c0,1-0.3,2.6-3.1,2.6c-1.2,0-2.5-0.5-2.6-1.9h1.6
			c0.1,0.6,0.6,0.8,1.2,0.8c0.9,0,1.3-0.6,1.3-1.5v-0.8h0c-0.4,0.6-1.1,0.9-1.8,0.9c-1.8,0-2.5-1.3-2.5-3c0-1.5,0.9-2.9,2.5-2.9
			c0.8,0,1.4,0.3,1.8,0.9h0v-0.8h1.5V52.9z M70.2,50.4c-0.3,0.2-0.8,0.3-1.3,0.3c-0.5,0.1-1,0.3-1,0.9c0,0.6,0.5,0.8,1,0.8
			c1.3,0,1.3-1,1.3-1.4V50.4z M66.5,49.2c0.1-1.5,1.4-2,2.8-2c1.2,0,2.6,0.3,2.6,1.7v3.1c0,0.5,0.1,1.1,0.2,1.3h-1.6
			c-0.1-0.2-0.1-0.4-0.1-0.6c-0.5,0.5-1.3,0.7-2,0.7c-1.1,0-2-0.6-2-1.8c0-1.3,1-1.7,2-1.8c1-0.1,1.9-0.1,1.9-0.8
			c0-0.7-0.5-0.8-1-0.8c-0.6,0-1,0.3-1.1,0.9H66.5z M74.3,46.4h-1.6v-1.3h1.6V46.4z M72.7,47.4h1.6v5.9h-1.6V47.4z M75.1,47.4h1.5
			v0.8h0c0.4-0.7,1.1-1,1.8-1c1.7,0,2.2,1,2.2,2.4v3.6H79v-3.3c0-1-0.3-1.4-1-1.4c-0.9,0-1.3,0.5-1.3,1.7v3.1h-1.6L75.1,47.4z
			 M82.7,51.3c0,0.7,0.6,1,1.2,1c0.5,0,1.1-0.2,1.1-0.8c0-0.5-0.7-0.7-1.8-0.9c-0.9-0.2-1.9-0.5-1.9-1.6c0-1.5,1.3-1.9,2.6-1.9
			c1.3,0,2.5,0.4,2.6,1.9h-1.5c0-0.6-0.5-0.8-1.1-0.8c-0.4,0-0.9,0.1-0.9,0.5c0,0.6,0.9,0.7,1.8,0.9c0.9,0.2,1.9,0.6,1.9,1.7
			c0,1.6-1.3,2.1-2.7,2.1c-1.4,0-2.7-0.5-2.8-2.1L82.7,51.3z"/>
		<path style="fill:#EE3424;" d="M17.8,53h-0.9l0.8-3.6c0.2-0.7,0.1-1.2-0.8-1.2c-0.8,0-1.6,0.4-1.9,1.8l-0.6,3h-0.9l1.6-7.5h0.9
			l-0.6,2.8h0c0.3-0.3,0.9-0.9,1.8-0.9c0.9,0,1.8,0.3,1.5,1.9L17.8,53z M21.1,52.4c1.3,0,1.9-1.4,2-2.1c0.2-0.7,0.2-2.1-1.1-2.1
			c-1.3,0-1.9,1.4-2,2.1C19.8,51,19.8,52.4,21.1,52.4L21.1,52.4z M22.2,47.4c1.8,0,2.2,1.5,1.9,2.9c-0.3,1.4-1.4,2.9-3.2,2.9
			c-1.8,0-2.2-1.5-1.9-2.9C19.3,48.8,20.5,47.4,22.2,47.4 M25.4,47.5h0.9l-0.2,0.8h0c0.3-0.3,0.9-0.9,1.9-0.9c1,0,1.2,0.6,1.3,0.9
			c0.6-0.5,1-0.9,1.9-0.9c0.6,0,1.6,0.3,1.3,1.8L31.6,53h-0.9l0.8-3.5c0.2-0.8,0-1.3-0.7-1.3c-0.8,0-1.4,0.7-1.6,1.5L28.4,53h-0.9
			l0.8-3.8c0.1-0.5,0-1-0.6-1c-0.5,0-1.5,0.3-1.8,1.8l-0.6,3h-0.9L25.4,47.5z M37,49.8c0.1-0.8-0.1-1.6-1.2-1.6
			c-0.8,0-1.7,0.8-1.9,1.6H37z M37.6,51.3c-0.1,0.3-0.5,1-1.3,1.5c-0.3,0.2-0.7,0.4-1.6,0.4c-1.5,0-2.2-1.2-1.9-2.7
			c0.4-1.7,1.5-3.1,3.3-3.1c1.6,0,2.1,1.3,1.7,3.2h-4c-0.2,1.1,0.2,1.8,1.2,1.8c0.9,0,1.5-0.7,1.6-1.1H37.6z"/>
	</g>
</g>
</svg>
