<?xml version="1.0" encoding="utf-8"?>
<svg version="1.1" id="Layer_1" xmlns="http://www.w3.org/2000/svg" xmlns:xlink="http://www.w3.org/1999/xlink" x="0px" y="0px"
	width="100px" height="100px" viewBox="0 0 66.7 66.6" style="enable-background:new 0 0 66.7 66.6;" xml:space="preserve">
<g>
	<path style="fill:#2167AE;" d="M33.3,0C14.9,0,0,14.9,0,33.3c0,7.6,2.6,14.5,6.9,20.1l27.7-36.5h-3h-3.1c-3.2,0-6.1,0.2-8.2,0.7
		c-1.3,0.3-2.5,0.8-3.4,1.3c-1.1,0.8-2.5,2.5-3.4,4.1c-0.1,0.1-0.3,0.5-0.5,0.9l-1.7-0.4L14.1,13h34.8L21.3,50.1
		c1.8-0.1,2.6-0.1,3.9-0.1c1.1,0,2.9,0,5.1,0.1l4.9,0.3c1.8,0.1,3.2,0.1,4.5,0.1c2.6,0,4.3-0.1,5.8-0.8c1.2-0.5,2.5-0.9,3.5-1.7
		c2-1.3,3.8-3.5,5-5.7c0.1-0.1,0.3-0.6,0.5-0.9l1.5,0.5c-0.5,1.8-0.8,2.6-1.5,4.1c-1.5,3.4-3.2,5.5-5.5,7.3c-2.5,1.8-5,2.5-8.1,2.5
		h-0.5c-2.3,0-4.1-0.1-9.5-1c-5.7-0.9-8.3-1.2-11.3-1.2c-1.8,0-3.7,0.1-5.5,0.5c-2.5,0.5-3.4,0.6-5.5,1.7
		c6.1,6.7,14.9,10.7,24.6,10.7c18.4,0,33.3-14.9,33.3-33.4C66.5,14.9,51.7,0,33.3,0L33.3,0C33.3,0,33.3,0,33.3,0z"/>
</g>
</svg>
