<?xml version="1.0"?>
<svg xmlns="http://www.w3.org/2000/svg" xmlns:xlink="http://www.w3.org/1999/xlink" xmlns:svgjs="http://svgjs.com/svgjs" version="1.1" width="512" height="512" x="0" y="0" viewBox="0 0 512 512" style="enable-background:new 0 0 512 512" xml:space="preserve" class=""><g><g xmlns="http://www.w3.org/2000/svg"><g><g><g><circle cx="256" cy="256" fill="#f1f1f1" r="256" data-original="#e890f4" style="" class=""/></g></g></g><path d="m280.477 284.915-106.66-106.66-2.362-68.59 49.987 49.987 96.522-46.529c-.127-11.437 4.164-22.914 12.891-31.641 16.136-16.136 41.674-17.136 58.977-3.003l23.877-11.51 67.827 67.827c19.43 36.079 30.464 77.352 30.464 121.204 0 141.385-114.615 256-256 256-36.919 0-72.005-7.829-103.709-21.895l-55.074-55.074 8.157-18.97c-16.381-17.259-16.121-44.525.805-61.451 8.606-8.606 19.887-12.906 31.167-12.902l14.661-34.094-52.071-52.071 50.307-28.222-51.883-51.884 67.696 10.914 109.733 109.733z" fill="#f1f1f1" data-original="#dd78ef" style="" class=""/><g><g><path d="m274.241 206.434c-25.517-25.517-25.517-67.036 0-92.554l46.913-46.913c25.517-25.517 67.036-25.517 92.554 0 25.517 25.517 25.517 67.036 0 92.554l-46.913 46.913c-25.518 25.517-67.037 25.517-92.554 0zm118.253-118.253c-13.82-13.82-36.307-13.82-50.127 0l-46.913 46.913c-13.82 13.82-13.82 36.307 0 50.127s36.307 13.82 50.127 0l46.913-46.913c13.821-13.82 13.821-36.307 0-50.127z" fill="#6c67d2" data-original="#6c67d2" style="" class=""/></g><g><path d="m97.217 435.031c-25.517-25.517-25.517-67.036 0-92.554l46.913-46.913c25.517-25.517 67.036-25.517 92.554 0s25.517 67.036 0 92.554l-46.913 46.913c-25.517 25.518-67.036 25.518-92.554 0zm118.254-118.253c-13.82-13.82-36.307-13.82-50.127 0l-46.913 46.913c-13.82 13.82-13.82 36.307 0 50.127s36.307 13.82 50.127 0l46.913-46.913c13.82-13.82 13.82-36.306 0-50.127z" fill="#6c67d2" data-original="#6c67d2" style="" class=""/></g><path d="m205.995 326.254c-10.802-9.347-15.318-24.747-10.149-38.948l14.766-40.57-10.675-14.528-17.516 4.268-14.766 40.57c-9.278 25.492-1.663 53.082 17.094 70.455l17.354-3.744z" fill="#918edd" data-original="#918edd" style="" class=""/><path d="m118.431 413.818c-13.82-13.82-13.82-36.307 0-50.127l46.913-46.913c13.82-13.82 36.307-13.82 50.127 0l18.512-4.368 2.701-16.845c-25.517-25.517-67.036-25.517-92.554 0l-46.913 46.913c-25.517 25.517-25.517 67.036 0 92.554l17.608-3.465z" fill="#6c67d2" data-original="#6c67d2" style="" class=""/><path d="m215.471 366.905-46.913 46.913c-13.82 13.82-36.307 13.82-50.127 0l-21.213 21.213c25.517 25.517 67.036 25.517 92.554 0l46.913-46.913c25.517-25.517 25.517-67.036 0-92.554l-21.213 21.213c13.819 13.822 13.819 36.308-.001 50.128z" fill="#534dca" data-original="#534dca" style="" class=""/><path d="m305.418 281.242-17.516 4.268-10.675-14.528-14.766 40.57c-6.685 18.366-27.065 27.869-45.431 21.185-4.165-1.516-7.868-3.741-11.035-6.482l-21.246 21.245c6.195 5.737 13.602 10.363 22.021 13.427 33.911 12.343 71.54-5.204 83.882-39.115z" fill="#6c67d2" data-original="#6c67d2" style="" class=""/><path d="m295.454 185.221c-13.82-13.82-13.82-36.307 0-50.127l46.913-46.913c13.82-13.82 36.307-13.82 50.127 0l18.163-4.019 3.05-17.194c-25.517-25.517-67.036-25.517-92.554 0l-46.913 46.913c-25.517 25.517-25.517 67.036 0 92.554l18.719-4.575z" fill="#6c67d2" data-original="#6c67d2" style="" class=""/><path d="m338.351 142.324c-1.169-1.381-2.388-2.735-3.69-4.037-25.517-25.517-67.036-25.517-92.554 0l-30.529 30.529 17.678 3.535 3.535 17.678 30.529-30.529c13.82-13.82 36.307-13.82 50.127 0 1.314 1.314 2.501 2.707 3.565 4.162l18.259-4.116z" fill="#918edd" data-original="#918edd" style="" class=""/><path d="m338.351 142.324-21.338 21.338c10.129 13.856 8.941 33.458-3.565 45.965l-30.529 30.529 3.535 17.678 17.678 3.535 30.529-30.529c24.215-24.215 25.433-62.83 3.69-88.516z" fill="#6c67d2" data-original="#6c67d2" style="" class=""/><path d="m392.494 138.308-46.913 46.913c-13.82 13.82-36.307 13.82-50.127 0l-21.213 21.213c25.517 25.517 67.036 25.517 92.554 0l46.913-46.913c25.517-25.517 25.517-67.036 0-92.554l-21.213 21.213c13.82 13.821 13.82 36.308-.001 50.128z" fill="#534dca" data-original="#534dca" style="" class=""/></g><g><g><path d="m122.208 148.1h20.001v65.588h-20.001z" fill="#ffdd55" transform="matrix(.44 -.898 .898 .44 -88.415 219.973)" data-original="#ffdd55" style="" class=""/></g><g><path d="m162.607 111.136h20v65.588h-20z" fill="#ffdd55" transform="matrix(.946 -.324 .324 .946 -37.292 63.608)" data-original="#ffdd55" style="" class=""/></g><g><path d="m94.935 225.468h65.588v20h-65.588z" fill="#ffdd55" transform="matrix(.946 -.324 .324 .946 -69.332 54.01)" data-original="#ffdd55" style="" class=""/></g></g><g><g><g><path d="m371.511 270.324h20.001v65.588h-20.001z" fill="#ffd322" transform="matrix(.44 -.898 .898 .44 -58.602 512.242)" data-original="#ffd322" style=""/></g></g><g><g><path d="m331.113 307.288h20v65.589h-20z" fill="#ffd322" transform="matrix(.946 -.324 .324 .946 -91.705 128.699)" data-original="#ffd322" style=""/></g></g><g><g><path d="m353.197 238.545h65.589v20h-65.589z" fill="#ffd322" transform="matrix(.946 -.324 .324 .946 -59.665 138.297)" data-original="#ffd322" style=""/></g></g></g></g></g></svg>
