<?xml version="1.0" encoding="utf-8"?>
<svg version="1.1" id="Layer_1" xmlns="http://www.w3.org/2000/svg" xmlns:xlink="http://www.w3.org/1999/xlink" x="0px" y="0px"
	 viewBox="0 0 1152 1152" style="enable-background:new 0 0 1152 1152;" xml:space="preserve">
<g>
	<rect x="0" y="0" style="fill:#E40521;" width="1152" height="1152"/>
	<g>
		<path style="fill:#FFFFFF;" d="M1022.08,537.6c-2.56-1.28-5.12-2.56-7.68-3.84c-3.2-1.28-5.12,0.64-6.4,3.84
			c-1.92,5.76-4.48,12.16-7.68,17.28c-7.68,11.52-16.64,22.4-24.96,33.92c-2.56,3.2-4.48,6.4-7.04,9.6c-0.64-4.48-1.28-8.32,0-12.16
			c3.2-12.16,7.68-24.96,10.88-37.12c0.64-2.56,0.64-7.68-1.28-8.96c-4.48-3.2-10.24-4.48-15.36-5.76c-0.64,0-3.2,1.92-3.84,3.2
			c-2.56,9.6-4.48,19.2-5.76,28.8c-2.56,12.8-12.16,20.48-20.48,29.44c-1.28,1.28-2.56,1.28-3.84,1.92
			c-5.12,1.92-8.96-0.64-7.68-6.4c0.64-3.2,1.92-7.04,3.2-9.6c4.48-8.32,8.96-17.28,12.8-25.6c2.56-5.12,0-10.24-5.12-13.44
			c-4.48-3.2-7.68,0-10.24,3.2c-0.64,0.64-1.28,1.28-1.92,1.92c-6.4-9.6-9.6-12.8-16.64-12.16c-5.76,0-11.52,1.92-16,4.48
			c-14.72,7.68-23.68,20.48-31.36,34.56c-3.84,7.04-8.96,12.8-13.44,19.2c-1.92,1.92-4.48,3.84-7.04,4.48
			c-4.48,1.92-7.68-1.28-7.04-5.76c0.64-3.2,1.92-7.04,3.2-9.6c8.96-16,18.56-32,27.52-48c4.48-7.68,8.96-14.72,12.8-22.4
			c1.28-3.2,1.28-8.32,0.64-12.16c-1.92-5.76-10.24-10.24-16.64-9.6c-6.4,1.28-4.48,7.04-5.12,10.88
			c-3.84,17.28-13.44,31.36-22.4,46.72c-5.12-10.88-11.52-14.08-22.4-12.16c-3.2,0.64-7.04,1.92-9.6,3.2
			c-21.76,12.8-35.84,31.36-39.68,56.96c-2.56,17.92,10.88,28.16,27.52,21.12c5.76-2.56,10.88-7.04,16-10.24
			c2.56-1.92,4.48-4.48,7.68-7.04c0,2.56,0,4.48,0,6.4c0,10.88,5.76,15.36,16.64,13.44c8.32-1.92,14.72-6.4,20.48-12.16
			c1.28-1.28,2.56-3.84,3.2-5.12c4.48,13.44,11.52,19.2,23.04,16.64c5.76-1.28,11.52-3.84,16.64-7.04c5.12-3.2,9.6-8.32,14.08-12.16
			c0,1.92-0.64,3.2-0.64,4.48c-1.28,12.16,5.76,18.56,17.28,14.72c5.76-1.92,11.52-5.12,16-8.96c4.48-3.2,8.32-8.32,12.16-12.8
			c0.64,8.32-0.64,17.28,10.88,19.2c-1.92,3.84-3.84,6.4-5.76,9.6c-3.84,7.04-7.68,14.08-10.88,21.76
			c-1.92,3.84-0.64,7.68,3.2,10.24c4.48,3.2,8.96,5.12,14.72,3.2c1.28-0.64,1.92-1.92,1.92-3.2c5.76-19.84,16-37.76,27.52-55.04
			c11.52-17.28,23.68-33.28,35.84-49.92C1030.4,545.92,1029.76,542.08,1022.08,537.6z M819.2,558.72c0,0.64,0,1.92-0.64,2.56
			c-4.48,14.08-12.16,26.88-24.32,36.48c-3.84,3.2-8.96,7.04-14.08,2.56c-5.12-3.84-3.2-8.96-1.28-13.44
			c5.12-12.8,13.44-23.68,24.32-32c1.92-1.28,4.48-2.56,7.04-3.2C816.64,549.76,819.2,552.32,819.2,558.72z M911.36,565.12
			c-4.48,12.16-11.52,22.4-21.12,31.36c-1.92,1.92-4.48,3.2-7.04,4.48c-7.04,3.2-12.16,0-11.52-8.96c0-0.64,0.64-3.2,1.28-5.12
			c5.12-12.8,13.44-23.68,24.32-32c3.84-3.2,8.32-6.4,12.8-2.56C914.56,555.52,912.64,560.64,911.36,565.12z"/>
		<path style="fill:#FFFFFF;" d="M668.8,585.6c21.12-1.92,29.44-19.84,17.28-37.12c-1.92-2.56-3.84-4.48-5.76-6.4
			c-24.32-19.2-60.16-6.4-65.28,23.68c-1.28,7.68,0,15.36,0,23.04c0,1.28,0,3.84-0.64,4.48c-4.48,5.12-10.24,6.4-16.64,5.76
			c-5.76-1.28-9.6-5.12-10.24-10.24c-0.64-11.52,0-22.4,0-34.56c6.4,0,13.44,0,20.48,0c0-5.12,0-10.24,0-14.72
			c0-3.2-1.28-4.48-4.48-4.48c-5.12,0-10.88,0-16.64,0c0-8.96,0-16.64,0-24.96c-8.32,0-15.36,0-23.68,0c0,8.32,0,16.64,0,24.96
			c-2.56,0-5.12-0.64-6.4,0c-1.28,0-3.2,1.92-3.2,2.56c0,5.12,0,10.24,0,16c1.92,0,2.56,0.64,3.84,0c5.12-0.64,6.4,1.92,6.4,6.4
			c0,7.68,0,15.36,0,22.4c0,7.68-8.32,15.36-17.28,16c-8.96,0.64-14.72-3.84-15.36-12.8c-0.64-9.6-0.64-19.84-0.64-29.44
			c0-1.28,2.56-3.2,3.84-3.2c4.48-0.64,9.6,0,14.08,0c0-6.4,0-12.8,0-19.2c-6.4,0-12.16,0-18.56,0c0-8.96,0-16.64,0-25.6
			c-6.4,0-12.16,0-18.56,0c-3.84,0-5.12,1.28-5.12,5.12c0,6.4,0,13.44,0,19.84c-2.56,0-4.48,0-6.4,0.64
			c-1.28,0.64-3.2,1.92-3.2,2.56c0,5.12,0,10.24,0,16c3.84,0,6.4,0.64,10.24,0.64c0,2.56,0,5.12,0,7.68c0,9.6,0,18.56,0.64,28.16
			c1.92,21.12,19.84,33.92,40.32,29.44c8.96-1.92,15.36-6.4,21.12-14.08c12.8,19.2,40.96,19.84,55.68,1.92
			c23.04,17.92,55.04,17.28,67.2-1.92c-3.84-4.48-8.32-9.6-12.16-14.72c-8.96,8.32-18.56,11.52-30.08,7.04
			c-6.4-2.56-9.6-8.32-10.88-15.36c5.12,1.28,10.24,2.56,15.36,3.2C657.92,586.24,663.68,586.24,668.8,585.6z M652.16,553.6
			c9.6-0.64,15.36,5.12,16,16.64c-10.24,0-19.84,0-30.08,0C638.08,560.64,643.84,553.6,652.16,553.6z"/>
		<path style="fill:#FFFFFF;" d="M131.84,575.36c16-10.24,21.76-26.24,17.28-45.44c-3.84-16-16.64-25.6-35.2-26.88
			c-14.72-0.64-30.08-0.64-44.8-0.64c-1.92,0-3.84,0-5.12,0c0,39.04,0,77.44,0,115.2c7.68,0,15.36,0,23.04,0
			c0-12.16,0-24.32,0-37.12c4.48,0,8.96,0,12.8,0s5.76,1.28,7.68,4.48c5.76,10.24,12.16,19.84,17.92,30.08
			c0.64,1.28,2.56,3.2,3.84,3.2c8.32,0,16.64,0,26.24,0c-9.6-14.72-17.92-28.16-26.88-42.24C130.56,576,131.2,576,131.84,575.36z
			 M126.08,542.72c0,8.96-5.12,16-12.8,17.28c-8.32,0.64-16.64,0-25.6,0c0-12.16,0-23.68,0-36.48c9.6,0.64,18.56,0.64,27.52,1.92
			C122.24,526.72,126.08,533.76,126.08,542.72z"/>
		<path style="fill:#FFFFFF;" d="M298.88,542.08c-19.84-15.36-43.52-8.96-55.04,3.2c-14.08,15.36-14.72,42.88-1.92,59.52
			c5.76,7.68,13.44,12.16,22.4,14.08c13.44,3.2,24.96,0.64,35.84-10.24c0,3.2-0.64,5.12,0,7.04c0.64,1.28,1.92,3.2,2.56,3.2
			c6.4,0,12.16,0,19.2,0c0-39.04,0-76.8,0-115.2c-7.68,0-15.36,0-23.04,0C298.88,516.48,298.88,528.64,298.88,542.08z
			 M277.76,599.04c-12.8,0-21.12-8.96-21.12-22.4s8.96-23.04,21.76-23.04c12.16,0,21.76,10.24,21.76,23.04
			C300.16,590.08,291.2,599.04,277.76,599.04z"/>
		<path style="fill:#FFFFFF;" d="M175.36,581.76c12.8,5.12,24.96,5.12,37.76,2.56c11.52-2.56,17.28-10.24,16-21.12
			c-0.64-8.96-5.12-16.64-12.16-21.76c-14.08-10.24-29.44-11.52-44.16-3.84c-16,7.68-22.4,22.4-22.4,39.68
			c0,16.64,7.04,30.72,23.04,38.4c16.64,7.68,32.64,6.4,48-3.2c2.56-1.92,5.12-4.48,7.68-6.4c-4.48-5.76-8.96-10.24-12.8-14.72
			C195.84,604.8,179.2,601.6,175.36,581.76z M192.64,553.6c8.32,0.64,13.44,7.04,12.8,16.64c-10.24,0-19.84,0-30.08,0
			C176,558.08,182.4,552.32,192.64,553.6z"/>
		<path style="fill:#FFFFFF;" d="M442.88,582.4c11.52,3.84,19.84,5.12,31.36,3.84c16.64-1.92,24.96-10.88,21.12-26.24
			c-1.28-5.76-5.12-12.16-9.6-16.64c-19.2-17.92-51.84-12.16-62.72,11.52c-7.68,16-7.68,32,1.92,46.72
			c9.6,14.72,24.32,19.2,40.96,17.92c11.52-0.64,22.4-4.48,30.72-14.08c-4.48-5.12-8.32-10.24-12.8-15.36
			C465.92,605.44,446.72,601.6,442.88,582.4z M456.96,553.6c9.6-0.64,15.36,5.12,16,16.64c-10.24,0-20.48,0-30.08,0
			C442.88,560.64,448.64,553.6,456.96,553.6z"/>
		<path style="fill:#FFFFFF;" d="M376.32,503.04c-8.32,0-15.36,0-23.04,0c0,38.4,0,76.8,0,115.2c21.76,0,43.52,0,64.64,0
			c0-7.04,0-13.44,0-21.12c-14.08,0-27.52,0-41.6,0C376.32,565.76,376.32,534.4,376.32,503.04z"/>
		<path style="fill:#FFFFFF;" d="M1071.36,535.68c-14.72-1.92-28.16,2.56-38.4,13.44c-8.96,9.6-7.68,22.4,2.56,30.72
			c3.2,2.56,7.04,5.12,10.88,7.68c3.84,2.56,5.76,6.4,4.48,10.88c-1.28,4.48-5.76,6.4-10.24,6.4c-6.4,0.64-11.52-1.92-15.36-7.04
			c-3.2-3.84-7.04-5.12-11.52-1.92c-3.84,2.56-5.12,7.04-2.56,11.52c1.92,3.2,4.48,6.4,7.68,7.68c5.76,2.56,12.16,3.84,15.36,5.12
			c13.44-0.64,23.04-3.2,31.36-9.6c8.32-7.04,8.96-16,1.28-23.04c-3.2-3.2-7.04-6.4-10.88-9.6c-10.88-9.6-9.6-22.4,4.48-27.52
			c2.56-1.28,6.4,0,9.6,0c0,3.2,0.64,6.4-0.64,8.96c-1.92,5.12,0.64,7.04,3.84,9.6c3.2,1.92,7.04,2.56,9.6-1.28
			C1093.12,555.52,1087.36,538.24,1071.36,535.68z"/>
		<path style="fill:#FFFFFF;" d="M719.36,547.2c0-5.12,0-8.32,0-11.52c-7.68,0-15.36,0-23.04,0c0,28.16,0,55.68,0,83.2
			c8.32,0,15.36,0,23.04,0c0-1.92,0-3.84,0-5.12c0-10.88,0-22.4,0-33.28c0-14.08,8.32-22.4,22.4-22.4c1.28,0,2.56,0,4.48,0
			c0-8.32,0-16,0-24.32C735.36,532.48,727.68,538.88,719.36,547.2z"/>
	</g>
</g>
</svg>
