<svg xmlns="http://www.w3.org/2000/svg" xmlns:xlink="http://www.w3.org/1999/xlink" viewBox="0 0 787.7 309.6"><path d="M0 0h787.7v309.6H0z" fill="#ce242b"/><g fill="#fff"><path d="M264.8 201.8l-15.4 28.6h4.7l4.8-8.8h15.5l4.8 8.8h4.7l-15.4-28.6h-3.7zm7.6 16.3h-11.6l5.8-10.9 5.8 10.9zm23-16.3h-4v28.6h22v-3.5h-18zm50.6 0h-4v28.6h22v-3.5h-18zm26.7 0h4v28.5h-4zm-152.2 28.6h23.4v-3.5h-19.4v-9.1h17.2v-3.5h-17.2v-9h19.4v-3.5h-23.4zm168.9 0h4v-12h17.5v-3.5h-17.5v-9.6h19.3v-3.5h-23.3zm208-28.6h-12.9v28.6h12.9c9.3 0 16.1-6.1 16.1-14.5-.1-8.2-6.8-14.1-16.1-14.1m11.9 14c0 6.5-5 10.9-12.3 10.9h-8.5v-21.3h8.5c7.4 0 12.3 4.2 12.3 10.4"/><use xlink:href="#B"/><path d="M558.1 201.8l-15.4 28.6h4.7l4.8-8.8h15.5l4.8 8.8h4.7l-15.4-28.6h-3.7zm7.3 16.3h-11.6l5.8-10.9 5.8 10.9zm-51.6 12.3h23.4v-3.5h-19.4v-9.1H535v-3.5h-17.2v-9h19.4v-3.5h-23.4z"/><use xlink:href="#B" x="293"/><path d="M420.9 230.4h23.3v-3.5h-19.3v-9.1H442v-3.5h-17.1v-9h19.3v-3.5h-23.3zm223.3-28.6l-11.7 15-11.7-15h-4.6l14.3 18.5v10.1h4v-10.2l14.2-18.4zM278.4 80l-.4-.8h-8.5L227 158.1h10l13.7-25.1h46.1l13.7 25.1h10.1L278.4 80zm14.5 45.8h-38.3l19.1-35.7 19.2 35.7zm-87-46.6h-10.5l-32.5 67-32.6-67h-10.4l-11.3 78.9h8.9L127 92l31.9 66.1h4 4L198.8 92l9.5 66.1h8.9zm204 .4l-.2-.4h-8.5L358.7 158h10l13.7-25.1h46.1l13.7 25.1h10l-42.3-78.4zm14.7 46.2h-38.3l19.1-35.7 19.2 35.7zM305.5 79.2v7.2h29.7v71.7h8.5V86.4h29.6v-7.2zm164.6 71.7V79.2h-8.4v78.9h60v-7.2zm235.3-71.7v67.3l-63.9-67.3h-9.7v78.9h8.5V90.7l63.6 67.1.3.2 9.7.1V79.2zm-125.1.4l-.2-.4h-8.5L529.1 158h10l13.7-25.1h46.1l13.7 25.1h10l-42.3-78.4zm14.7 46.2h-38.3l19.1-35.7 19.2 35.7z"/><use xlink:href="#C"/><use xlink:href="#D"/><use xlink:href="#C" y="-78.1"/><use xlink:href="#D" y="-78.1"/><use xlink:href="#C" y="-156.2"/><path d="M34 83.1v26.3c0 .9-.8 1.6-1.7 1.6s-1.7-.7-1.7-1.6V83.1c0-.9.8-1.6 1.7-1.6s1.7.7 1.7 1.6M34 44v26.3c0 .9-.8 1.6-1.7 1.6s-1.7-.7-1.7-1.6V44c0-.9.8-1.6 1.7-1.6s1.7.7 1.7 1.6m0-39v26.3c0 .9-.8 1.6-1.7 1.6s-1.7-.7-1.7-1.6V5c0-.9.8-1.6 1.7-1.6S34 4.1 34 5"/></g><defs ><path id="B" d="M209.7 211.1c0-5.6-4.6-9.3-11.7-9.3h-13.5v28.6h4v-10h9.1l9.5 10h5.3l-10-10.5c4.6-1.3 7.3-4.6 7.3-8.8m-4.1 0c0 3.4-3.1 5.6-7.7 5.6h-9.4v-11.3h9.4c4.6 0 7.7 2.3 7.7 5.7"/><path id="C" d="M34 278.3v26.3c0 .9-.8 1.6-1.7 1.6s-1.7-.7-1.7-1.6v-26.3c0-.9.8-1.6 1.7-1.6s1.7.7 1.7 1.6"/><path id="D" d="M34 239.3v26.3c0 .9-.8 1.6-1.7 1.6s-1.7-.7-1.7-1.6v-26.3c0-.9.8-1.6 1.7-1.6.9-.1 1.7.7 1.7 1.6"/></defs></svg>