<?xml version="1.0" encoding="utf-8"?>
<svg version="1.1" id="Layer_1" xmlns="http://www.w3.org/2000/svg" xmlns:xlink="http://www.w3.org/1999/xlink" x="0px" y="0px"
	 viewBox="0 0 290.5 290.5" style="enable-background:new 0 0 290.5 290.5;" xml:space="preserve">
<g>
	<circle style="fill:#E8E8E8;" cx="145.3" cy="145.3" r="145.3"/>
	<circle style="fill:#FFFFFF;" cx="145.3" cy="145.3" r="142.4"/>
	<path style="opacity:0.3;fill:#B8BABD;enable-background:new    ;" d="M241.4,187.7L74.4,216.2L61,117.1l172.6-14.8L241.4,187.7z"
		/>
	<path style="fill:#E52E80;" d="M47.6,74.4l11,127l184.2-14.5l-8.7-109C234.2,77.9,47.6,74.4,47.6,74.4z"/>
	<g transform="matrix(.99863 .052336 -.052336 .99863 23.294446 10.108416)">
		<path style="fill:#FEFEFE;" d="M74,102.5c0,0.6,0.3,0.9,0.6,1.2c0.3,0,0.6,0.3,1.2,0.3c0.6,0,1.5,0,1.7-0.3
			c0.6-0.3,0.9-0.9,0.9-1.5c0-1.2-0.9-1.7-2.6-1.7c-0.6,0-1.2,0-1.5,0.6C74,101.3,74,101.9,74,102.5 M68.5,88.2
			c1.5-1.5,3.8-2.6,7.3-2.9c1.5,0,2.9,0,4.4,0.3s2.9,1.2,4.1,2.3c0.9,1.5,1.5,3.2,1.7,4.6c0.3,2,0.6,4.1,0.9,6.4
			c0.3,3.8,0.3,6.4-0.3,7.8c0,1.2-0.9,1.7-2.6,2c-1.2,0-2-0.3-2.3-0.9c-1.2,0.6-2.3,0.9-3.8,1.2c-2.9,0.3-5.5-0.3-7.3-1.7
			c-1.5-1.5-2-3.2-2.3-5.5c0-1.7,0.3-3.2,1.2-4.4c1.2-1.5,2.9-2.3,4.6-2.3c1.2,0,2.6,0,4.9,0.9c0.9,0,1.5-0.6,1.2-1.7
			c-0.3-2.6-2.9-3.5-4.9-3.2c-0.9,0-1.7,0.3-2.6,0.9c-0.9,0.6-2,1.2-2.9,0.9c-1.2-0.3-1.7-1.7-1.7-2.6
			C67.9,89.7,67.9,89.1,68.5,88.2 M97.6,106.8c0,0.9-0.9,1.5-3.2,1.7c-2.3,0.3-3.5-0.3-3.5-1.2c-0.9-3.2-1.5-7-1.7-11.3
			c-0.3-4.6-0.3-7.6,0.3-8.7c0.3-1.2,1.2-1.7,2.3-1.7c0.9,0,2.3,0,2.6,1.2c0,0.3,0,0.9,0.3,1.2c0.6,0.6,1.5,0,1.7-0.3
			c0.3-0.6,0.9-0.9,1.5-1.2c0.9-0.6,1.7-0.9,2.6-0.9c1.7,0,3.2,0.3,4.6,1.5s2,2.6,2.3,4.4c0.3,1.7,0.6,3.8,0.9,5.8
			c0.3,4.4,0.3,7.6,0,9.6c-0.3,0.6-1.5,1.2-3.2,1.2s-2.6-0.3-2.9-0.9c-0.3-0.3-0.3-0.9-0.6-2.3c0-1.7,0-3.5-0.3-4.9
			c0-1.5-0.3-3.2-0.9-4.6c-0.6-1.2-2.9-0.6-3.5,0c-0.3-0.3-0.3,0.3-0.3,0.9c0,0.3,0,0.9,0,2C96.7,97.5,97,100.4,97.6,106.8
			 M111.8,91.4c0.3-0.9,1.5-1.5,3.2-1.5s2.9,0.3,3.5,1.2c0.3,0.6,0.9,3.2,1.2,7.3c0.3,3.8,0.3,6.1,0,7.3c-0.3,0.9-1.5,1.5-3.5,1.5
			c-1.7,0-2.9,0-3.2-0.9c-0.6-1.2-1.2-3.8-1.5-7.8C111.2,94.3,111.2,92.3,111.8,91.4 M110.3,84.2c0-1.2,0.3-2.3,1.2-3.2
			c1.2-1.2,4.4-1.7,5.8-0.6c1.7,1.5,2.3,4.9,0.6,6.7c-0.9,0.9-1.7,1.2-3.2,1.5c-1.2,0-2-0.3-2.9-1.2
			C110.9,86.5,110.3,85.3,110.3,84.2 M149,103c-0.3,0.9-1.7,1.2-2.6,1.2c-0.9,0-2,0-2.6-0.9c-0.9-1.5-0.9-3.5-0.9-5.2v-3.5
			c0-2.3-1.7-2.3-2-2.3c-0.6,0-0.9,1.2-0.6,3.2c0,0.9,0.3,4.4,0.3,5.2c0,0.6,0.3,1.5,0,2.3c-0.3,0.9-1.2,1.2-2,1.5
			c-0.6,0.6-1.5,0.6-2,0.6c-0.9,0-1.7,0-2.6-0.3c-1.5-0.6-1.2-2.9-1.2-4.1l-0.3-4.6c0-2-0.6-2.9-1.2-2.9c-0.6,0-1.5,0.3-1.5,0.9
			c-0.3,1.5,0,6.1,0.3,7.6c0,0.9,0.3,1.7,0,2.6c-0.3,1.2-1.2,1.5-2.3,1.5c-1.2,0-2.3,0-3.2-0.9c-0.9-0.6-0.9-1.7-1.2-2.9
			c-0.6-3.2-0.9-6.4-1.2-9.3c-0.3-4.4-0.3-7.3,0.3-8.1c0.3-1.2,1.7-1.7,4.1-1.7c2-0.3,3.2,0,3.5,0.9l0.3,1.7c-0.6-2,3.5-3.2,4.9-3.2
			c2.3-0.3,4.1,0.6,4.9,2.3c0.3-1.7,1.5-2.6,3.5-2.9c1.7,0,3.5,0.6,4.1,2.3c0.6,2.6,1.2,5.2,1.2,7.8c0.3,2.3,0.3,4.9,0.3,7.3
			C149.3,100.4,149.3,101.9,149,103 M157.4,95.8c0,0.6,0.3,0.9,0.6,1.2c0.3,0,0.6,0.3,1.2,0.3c0.6,0,1.5,0,1.7-0.3
			c0.6-0.3,0.9-0.9,0.9-1.5c0-1.2-0.9-1.7-2.6-1.7c-0.6,0-1.2,0-1.5,0.6C157.4,94.6,157.1,95.2,157.4,95.8 M151.9,81.8
			c0.6-0.6,1.2-1.2,1.7-1.5c1.7-0.9,3.5-1.2,5.2-1.5c3.2-0.3,7,0.3,8.7,3.5c0.6,1.2,0.9,2.6,1.2,4.1c0.3,2,0.6,4.1,0.9,6.4
			c0,1.5,0.3,2.9,0,4.4c0,1.5,0,2.9-0.6,4.4c-0.3,0.9-1.5,1.2-2.3,1.5c-1.2,0-2-0.3-2.3-0.9c-1.2,0.6-2.3,0.9-3.8,1.2
			c-2.3,0.3-4.6,0-6.7-1.2c-1.5-0.9-2.3-2.3-2.6-4.1c-0.6-2-0.6-4.4,0.9-6.1c1.2-1.5,2.9-2.3,4.6-2.3c1.2,0,2.6,0,4.9,0.9
			c0.9,0,1.5-0.6,1.2-1.7c0-0.6-0.3-1.5-0.9-1.7c-0.9-1.2-2.6-1.5-4.1-1.5c-0.9,0-1.7,0.3-2.6,0.9c-0.9,0.6-1.7,1.2-2.9,0.9
			c-1.2-0.3-1.7-1.7-1.7-2.6C151,83,151.3,82.4,151.9,81.8 M172.5,77.5c0.6-1.7,2.3-2,3.8-2.3c1.7,0,3.5,0.3,3.8,2.3
			c0,0.6,0.3,1.2,0.3,1.7c0,1.2,0,2.9-0.3,5.5c-0.3,2.3-0.3,4.1-0.3,5.2c0,1.2,0,2.9,0.9,3.8c0.9,0.9,1.7,0.6,2.6,0.6
			c1.5,0,2.3,0.9,2.3,2.6c0,1.5-0.3,2.6-1.2,3.2c-1.5,0.9-2.9,1.5-4.4,1.5c-2.3,0.3-4.1-0.6-5.5-2.3c-1.2-1.5-2-4.6-2.3-9.6
			c0-2-0.3-3.8-0.3-5.8v-3.2C172.2,79.8,172.2,78.6,172.5,77.5 M60.7,117.9c1.2-2,3.8-3.5,8.1-3.8c2-0.3,4.4-0.3,6.1,0.3
			c1.7,0.6,2.6,1.7,2.9,3.8c0,0.9-0.3,1.7-0.6,2c0,0-0.3,0.3-0.6,0.3c-0.3,0-1.2,0-2,0c-0.9,0-1.5,0-2,0c-0.9,0-1.7,0.3-2.3,0.9
			c-0.9,0.6-1.2,1.2-1.2,2.3c0.3,2,2.6,2,4.4,2c2,0,3.2,0,3.5,0c0.6,0.3,0.6,0.9,0.9,1.7c0,0.9,0,1.7-0.9,2.3
			c-0.3,0.3-0.9,0.3-1.5,0.3c-1.2,0-2.3,0-3.5,0.3c-0.3,0-1.7,0.6-2,1.2c0,1.2,0.3,2.6,0.9,3.8c0.3,1.2,0.6,2.3,0.9,2.9
			c0,0.3,0,0.9,0,1.2c-0.3,1.2-1.5,1.7-3.5,2c-2,0-3.5-0.6-4.4-2c-0.3-0.6-0.9-2.3-1.7-4.9c-0.9-3.2-1.5-6.1-1.7-8.7
			C59.5,122.2,59.8,119.6,60.7,117.9 M82.4,117c0.6-0.3,1.5-0.3,2-0.3c1.5,0,3.5,0.3,3.2,2.3c0,0.3-0.3,0.9,0,1.2
			c0,0.3,0.6,0.3,0.9,0.3c2.3-1.5,4.6-2.3,7-2.6c1.2,0,2.6-0.3,3.5,0.9c0.3,0.6,0.6,1.2,0.6,2c0,0.9,0,2.6-1.2,2.9l-5.2,1.5
			c-2.3,0.6-3.5,1.5-4.1,2.3c-0.3,0.3-0.3,0.9-0.3,1.7c0,0.9,0.3,2,0.9,3.5c0.3,1.5,0.6,2.6,0.9,3.5c0.3,2-1.7,3.2-3.5,3.5
			c-1.5,0-3.2-0.3-3.8-1.7c-0.9-1.5-1.2-3.5-1.5-5.2c-0.3-2.6-0.6-4.6-0.9-6.7c-0.3-4.1,0-6.4,0.6-7.6C81,117.6,81.6,117.3,82.4,117
			 M101.3,122.5c0.3-0.9,1.5-1.5,3.2-1.5s2.9,0.3,3.5,1.2c0.3,0.6,0.9,3.2,1.2,7.3c0.3,3.8,0.3,6.1,0,7.3c-0.3,0.9-1.5,1.5-3.5,1.5
			c-1.7,0-2.9,0-3.2-0.9c-0.6-1.2-1.2-3.8-1.5-7.8C101,125.4,101,123.4,101.3,122.5 M100.2,115.2c0-2.6,1.5-4.4,4.4-4.6
			c3.5-0.3,5.8,4.9,3.2,7.3c-0.9,0.9-1.7,1.2-3.2,1.5c-1.2,0-2-0.3-2.9-1.2C100.8,117.6,100.2,116.7,100.2,115.2 M120.5,120.5
			c0.3,0.3,0.9,0.3,1.2,0.3c0.3,0,0.9-0.3,1.2-0.6c0.3-0.3,0.6-0.6,0.6-1.2c0-0.3-0.3-0.9-0.6-0.9c-0.3-0.3-0.9-0.3-1.2-0.3
			c-0.6,0-0.9,0.3-1.2,0.6c-0.3,0.3-0.6,0.6-0.6,1.2C119.9,119.9,120.2,120.2,120.5,120.5 M122.8,113.5c1.2,0,2,0,2.9,0.3
			c4.4,1.5,5.2,9.3,0.9,11.3c-0.6,0.3-1.2,0.3-2,0.6c-0.6,0-1.2,0-2.3,0c-0.9,0-3.2-0.6-3.2,1.2c0,0.9,0.9,1.5,1.7,1.7
			c0.6,0.3,1.2,0.3,2,0.3c1.2,0.3,2.6,0,3.8-0.6c1.2-0.6,2.6-1.5,3.8-0.3c0.6,0.6,0.6,1.2,0.6,1.7c0,1.2-0.3,2.3-0.9,3.2
			c-1.5,2-4.4,3.2-6.7,3.2c-2.6,0-5.8-0.6-8.1-2c-0.6-0.3-0.9-0.6-1.5-1.2c-1.7-1.7-2.6-4.1-2.6-7c0-0.6,0-1.7,0-2.6
			c0.3-2.3,0.9-4.9,2.6-7c1.2-1.5,2.9-2,4.6-2.3C120.5,113.5,121.7,113.5,122.8,113.5 M141.7,133.5c0,0.9-0.9,1.5-3.2,1.7
			c-1.5,0-3.2,0.3-3.8-1.5c-0.6-2-0.9-4.4-1.2-6.7c-0.3-1.5-0.3-2.9-0.3-4.4c-0.3-4.6-0.3-7.6,0.3-8.7c0.3-0.9,0.6-1.5,1.5-1.7
			c1.2-0.3,3.5-0.3,3.8,1.2c0.3,1.2,1.5,0.9,2,0.3c0.3-0.6,0.9-0.9,1.5-1.2c0.9-0.6,1.7-0.9,2.6-0.9c1.7,0,3.2,0.3,4.6,1.5
			c1.5,1.2,2,2.6,2.3,4.4c0.3,2,0.6,3.8,0.6,5.8c0,1.7,0.3,3.2,0.3,4.9c0,1.5,0.3,3.2-0.3,4.6c-0.6,1.2-2,1.5-3.2,1.5
			c-0.9,0-1.7,0-2.3-0.3c-0.3-0.3-0.6-0.6-0.6-0.9c-0.3-0.6-0.3-1.5-0.3-2c0-1.7-0.3-3.5-0.3-5.2c0-2,0-6.4-3.2-5.2
			c-0.9,0.3-1.7,1.2-1.7,2c0,1.7,0.3,3.5,0.6,5.5C141.1,130.1,141.4,131.8,141.7,133.5 M167,125.1c0-1.2-0.6-2-1.7-2h-1.5
			c-0.9,0-1.7,0.6-1.7,1.7c0,0.3,0,0.6,0,0.9c0,0.9,0.9,1.5,2.6,1.7c0.6,0,1.2,0,1.5-0.6C167,126.3,167.3,125.7,167,125.1
			 M171.9,107.1c0.3,0.6,0.6,2,1.2,4.4c0.3,2.3,0.6,5.2,0.9,8.1c0.3,4.9,0.3,8.4-0.3,10.2c-0.3,0.9-1.5,1.7-3.2,2.3
			c-1.2,0.3-2.6,0.6-4.1,0.9c-1.5,0-2.9,0-4.4-0.3c-1.2-0.3-2.6-0.6-3.5-1.5c-1.7-1.7-2.6-3.8-2.9-6.1c0-1.7,0.3-3.5,1.2-4.9
			c1.2-1.5,2.9-2.3,4.6-2.3c0.9,0,1.7,0,2.6,0.3c0.6,0,1.7,0.9,2.3,0.3c0.3-0.6,0.6-1.7,0.3-2.9c0-0.9-0.3-2-0.9-3.8
			c-0.3-1.2-1.2-3.2-0.6-4.4c0.3-1.2,2-1.2,3.2-1.5C170.2,105.9,171.4,106.2,171.9,107.1"/>
		<path style="fill:#FEFEFE;" d="M194.6,112.3c0,0.3,0,0.3,0,0.6c-0.3,1.5-2,2.9-3.5,2.3c-1.2-0.3-2.3-0.9-3.5-0.6
			c-0.9,0-1.7,0.3-2,1.2c-0.6,2,3.8,2.6,4.9,2.9c1.7,0.3,2.9,0.9,3.8,1.5c0.9,0.9,1.5,2,1.7,3.8c0.3,2.9-1.2,4.9-3.8,6.1
			c-1.5,0.6-3.2,1.2-5.5,1.2c-1.7,0-3.5,0-5.2-0.3c-1.2-0.3-2.3-0.6-3.5-1.5c-1.2-0.9-1.5-2.3-1.2-3.8c0.3-1.5,1.2-2,2.3-2.3
			c0.6,0,1.5,0.3,2.6,0.6c1.2,0.6,2.3,0.9,2.6,0.6c1.2,0,2.3-1.2,0.9-2c-0.9-0.3-2-0.3-2.9-0.6c-2.6-0.6-5.2-2-5.8-5.2
			c-0.3-2.3,0.9-4.6,2.9-6.4s4.6-2.6,7.3-2.9c1.7,0,3.2,0.3,4.9,0.9C193.1,109.7,194.6,110.9,194.6,112.3 M64.4,155.3
			c0.9,0,1.5-0.3,1.7-0.3c0.3-0.3,0.6-0.3,0.9-0.9c0.3-0.3,0.3-0.9,0.3-1.5s-0.3-1.2-0.9-1.5c-0.3-0.3-1.2-0.3-2-0.3h-1.2l0.3,4.1
			L64.4,155.3L64.4,155.3z M62.1,150.4c0.9-0.3,1.7-0.3,2.3-0.3c1.5,0,2.3,0,2.9,0.6c0.6,0.3,1.2,1.2,1.2,2c0,1.2-0.3,2-0.9,2.6
			c-0.6,0.6-1.7,0.9-2.9,1.2h-1.2l0.3,4.1h-1.5L62.1,150.4L62.1,150.4z"/>
		<path style="fill:#FEFEFE;" d="M75.2,155.3c0-1.2-0.6-2-1.7-1.7c-0.6,0-0.9,0.3-1.2,0.6c-0.3,0.3-0.6,0.9-0.3,1.5
			C71.4,155.6,75.2,155.3,75.2,155.3z M71.7,156.5c0,0.9,0.3,1.5,0.9,1.7c0.3,0.3,0.9,0.6,1.7,0.6c0.9,0,1.5-0.3,2-1.2l0.3,0.3v0.3
			c0,0.3,0,0.3-0.3,0.6c-0.6,0.6-1.2,0.6-2,0.9c-1.2,0-2-0.3-2.6-0.9c-0.6-0.6-0.9-1.5-1.2-2.9c0-0.9,0-1.5,0.3-2s0.6-1.2,1.2-1.5
			c0.6-0.3,0.9-0.6,1.7-0.6c0.6,0,1.2,0,1.7,0.3s0.9,0.6,1.2,1.2c0.3,0.6,0.3,0.9,0.6,1.7v0.9L71.7,156.5L71.7,156.5z M77.8,150.1
			C77.8,150.1,77.8,149.8,77.8,150.1c0.9,0,1.5,0.3,1.5,0.9v1.2l2.3-0.3v1.2l-2.3,0l0.3,4.1c0,0.9,0.3,1.2,1.2,1.2
			c0.3,0,0.3,0,0.6,0l0.3-0.3l0.3-0.3c0.3,0.3,0.6,0.6,0.6,0.9c0,0,0,0.3-0.3,0.6c0,0.3-0.3,0.3-0.6,0.3s-0.6,0.3-0.9,0.3
			c-0.9,0-1.7-0.3-2-0.9c0-0.3-0.3-0.6-0.3-1.2L77.8,150.1L77.8,150.1z M86.2,148.4h0.3c0.3,0,0.6,0,0.6,0.3c0.3,0,0.3,0.3,0.3,0.6
			l0.6,9.3h-1.5L86.2,148.4L86.2,148.4z"/>
		<g>
			<path id="A" style="fill:#FEFEFE;" d="M90,151.3C90,151.3,90.3,151,90,151.3c0.6,0,0.6,0,0.9,0s0.3,0.3,0.3,0.6
				c0.3-0.3,0.6-0.6,0.9-0.9c0.3-0.3,0.9-0.3,1.2-0.3c0.6,0,1.2,0,1.5,0.3s0.6,0.6,0.9,1.2c0,0.3,0.3,0.6,0.3,1.5l0.3,4.4h-1.2
				l-0.3-4.4c0-0.6,0-0.9-0.3-1.2c0-0.3-0.3-0.6-0.6-0.6c-0.3,0-0.6,0-0.9,0s-0.6,0-0.9,0.3c-0.3,0-0.6,0.3-0.6,0.6
				s-0.3,0.3-0.3,0.6l0.3,4.9h-1.2L90,151.3L90,151.3z"/>
		</g>
		<path style="fill:#FEFEFE;" d="M102.2,151.9c-0.3-0.3-0.6-0.3-0.9-0.6c-0.3,0-0.6-0.3-1.2,0c-0.3,0-0.6,0-0.9,0.3
			s-0.3,0.3-0.3,0.6s0,0.3,0.3,0.3c0,0,0.3,0.3,0.6,0.3c0.3,0,0.6,0,0.9,0.3c0.6,0,1.2,0.3,1.5,0.3c0.3,0.3,0.6,0.3,0.9,0.6
			s0.3,0.6,0.3,0.9c0,0.6,0,1.2-0.6,1.7c-0.6,0.6-1.2,0.6-2,0.9c-0.6,0-1.2,0-1.7,0s-0.6-0.3-0.6-0.6v-0.3c0,0,0-0.3,0.3-0.6
			c0.3,0.3,0.6,0.3,0.9,0.6c0.3,0,0.6,0,1.2,0c0.6,0,0.9,0,1.2-0.3c0.3-0.3,0.3-0.6,0.3-0.9c0-0.3,0-0.6-0.3-0.6
			c-0.3-0.3-0.6-0.3-1.2-0.3c-0.9,0-1.5-0.3-1.7-0.6s-0.6-0.9-0.6-1.2c0-0.6,0-1.2,0.6-1.5c0.6-0.3,1.2-0.6,1.7-0.6
			c0.3,0,0.6,0,1.2,0c0.3,0,0.6,0,0.9,0.3s0.6,0.3,0.6,0.6s0,0.6-0.3,0.9L102.2,151.9L102.2,151.9L102.2,151.9z M104.5,150.1
			C104.5,150.1,104.5,149.8,104.5,150.1c0.9,0,1.5,0.3,1.5,0.9l0.3,3.5c0,0.3,0,0.9,0.3,0.9c0,0.3,0.3,0.3,0.3,0.6
			c0,0,0.3,0,0.6,0.3c0.3,0,0.3,0,0.6,0c0.3,0,0.6,0,0.9-0.3c0.3-0.3,0.6-0.3,0.6-0.6s0.3-0.3,0.3-0.6l-0.3-5.2h0.3
			c0.6,0,1.2,0.3,1.2,0.9l0.6,6.1h-1.2v-0.6c-0.9,0.6-1.2,0.9-2.3,1.2c-0.3,0-0.9,0-1.2,0c-0.3,0-0.6-0.3-0.9-0.3
			c-0.3-0.3-0.3-0.6-0.6-0.9c0-0.3-0.3-0.9-0.3-1.5C105.1,154.5,104.5,150.1,104.5,150.1z M112.7,149.5
			C112.7,149.2,113,149.2,112.7,149.5c0.6,0,0.9,0,0.9,0c0.3,0,0.3,0.3,0.3,0.6c0-0.3,0.3-0.6,0.6-0.6c0.3-0.3,0.6-0.3,0.9-0.3
			s0.6,0,0.9,0s0.3,0.3,0.3,0.3s0,0.3,0,0.6l-0.3,0.6c0,0-0.3-0.3-0.6-0.3c-0.3,0-0.3,0-0.6,0c-0.3,0-0.6,0-0.9,0.3
			c0,0.3,0,0.6,0,0.9l0.3,4.9h-1.2L112.7,149.5L112.7,149.5z M122.3,152.1H122c-0.9,0-1.7,0.3-2,0.6c-0.6,0.3-0.6,0.6-0.6,1.2
			c0,0.3,0,0.6,0.3,0.9c0.3,0.3,0.6,0.3,0.9,0.3s0.6,0,0.9-0.3c0.3,0,0.6-0.3,0.6-0.6c0.3-0.3,0.3-0.3,0.3-0.6
			C122.3,153.9,122.3,152.1,122.3,152.1z M118.2,150.7l-0.3-0.3v-0.3c0-0.3,0-0.3,0.3-0.6c0.3-0.3,0.6-0.3,0.9-0.3s0.9-0.3,1.2-0.3
			c0.9,0,1.7,0,2,0.3c0.6,0.3,0.6,1.2,0.9,2l0.3,2.9v0.6c0,0,0,0.3,0.3,0.3c0,0,0.3,0,0.6,0v0.6c-0.3,0-0.6,0-0.6,0.3
			c-0.9,0-1.2-0.3-1.2-0.9c-0.3,0.3-0.6,0.6-0.9,0.9c-0.3,0.3-0.9,0.3-1.2,0.3c-0.6,0-1.2,0-1.7-0.3c-0.3-0.3-0.6-0.9-0.6-1.5
			c0-0.9,0.3-1.5,0.9-2c0.6-0.6,1.5-0.9,2.9-0.9c0.3,0,0.6,0,0.6,0v-0.3c0-0.6-0.3-0.9-0.6-1.2c-0.3-0.3-0.6-0.3-1.2-0.3
			c-0.3,0-0.9,0-1.2,0.3C119.1,150.1,118.8,150.4,118.2,150.7L118.2,150.7L118.2,150.7L118.2,150.7z"/>
		<g>
			<path id="A_1_" style="fill:#FEFEFE;" d="M125.4,148.4C125.4,148.4,125.7,148.4,125.4,148.4c0.6,0,0.6,0,0.9,0s0.3,0.3,0.3,0.6
				c0.3-0.3,0.6-0.6,0.9-0.9c0.3-0.3,0.9-0.3,1.2-0.3c0.6,0,1.2,0,1.5,0.3s0.6,0.6,0.9,1.2c0,0.3,0.3,0.6,0.3,1.5l0.3,4.4h-1.2
				l-0.3-4.4c0-0.6,0-0.9-0.3-1.2c0-0.3-0.3-0.6-0.6-0.6c-0.3,0-0.6,0-0.9,0s-0.6,0-0.9,0.3c-0.3,0-0.6,0.3-0.6,0.6
				s-0.3,0.3-0.3,0.6l0.3,4.9h-1.2L125.4,148.4L125.4,148.4z"/>
		</g>
		<path style="fill:#FEFEFE;" d="M138.5,149.2c-0.3-0.3-0.6-0.6-0.9-0.6s-0.6,0-0.9,0c-0.6,0-1.2,0.3-1.5,0.9
			c-0.3,0.6-0.6,1.2-0.3,2c0.3,0.9,0.3,1.5,0.6,2c0.3,0.3,0.9,0.6,1.7,0.6c0.6,0,0.9-0.3,1.2-0.6c0.3,0,0.3-0.3,0.6-0.6
			c0.3,0.3,0.6,0.6,0.6,0.9c0,0,0,0.3-0.3,0.6s-0.6,0.3-0.9,0.6c-0.3,0-0.9,0.3-1.2,0.3c-0.6,0-1.2,0-1.7-0.3
			c-0.6-0.3-0.9-0.6-1.2-1.2c-0.3-0.6-0.6-1.2-0.6-2c0-0.6,0-1.5,0.3-2c0.3-0.6,0.6-1.2,1.2-1.5c0.6-0.3,1.2-0.6,1.7-0.6
			c0.3,0,0.9,0,1.2,0c0.3,0,0.6,0.3,0.9,0.3c0.3,0.3,0.3,0.3,0.3,0.6s0,0.6-0.3,0.9L138.5,149.2L138.5,149.2L138.5,149.2z
			 M145.2,149.8c0-1.2-0.6-2-1.7-1.7c-0.6,0-0.9,0.3-1.2,0.6s-0.6,0.9-0.3,1.5L145.2,149.8z M141.7,151c0,0.9,0.3,1.5,0.9,1.7
			c0.3,0.3,0.9,0.6,1.7,0.6s1.5-0.3,2-1.2l0.3,0.3v0.3c0,0.3,0,0.3-0.3,0.6c-0.6,0.6-1.2,0.6-2,0.9c-1.2,0-2-0.3-2.6-0.9
			c-0.6-0.6-0.9-1.5-1.2-2.9c0-0.9,0-1.5,0.3-2s0.6-1.2,1.2-1.5s0.9-0.6,1.7-0.6c0.6,0,1.2,0,1.7,0.3c0.6,0.3,0.9,0.6,1.2,1.2
			c0.3,0.6,0.3,0.9,0.6,1.7v0.9L141.7,151L141.7,151z M150.7,143.1l5.8-0.6v0.3c0,0.6-0.3,0.9-0.9,0.9l-3.5,0.3l0.3,3.2l3.5-0.3v1.2
			l-3.2,0.6l0.3,3.5l3.8-0.3c0.3,0,0.6,0,0.6,0c0.3,0,0.3,0.3,0.3,0.6v0.3l-6.1,0.6L150.7,143.1L150.7,143.1z M160.9,149.2l-2.6-3.5
			c0.3,0,0.6-0.3,0.6-0.3c0.3,0,0.3,0,0.6,0c0,0,0.3,0.3,0.6,0.3l1.5,2l1.2-2c0-0.3,0.3-0.6,0.3-0.6s0.3-0.3,0.6-0.3s0.6,0,0.6,0
			l-2,3.8l2.6,3.2c-0.3,0-0.3,0-0.6,0.3c-0.3,0-0.9,0-1.2-0.3l-1.7-2l-1.2,2.3c0,0.3-0.3,0.3-0.3,0.6s-0.3,0-0.6,0.3
			c-0.3,0-0.6,0-0.6,0L160.9,149.2L160.9,149.2z M167.6,150.4c0.3,0.3,0.6,0.3,0.9,0.6c0.3,0,0.6,0.3,0.9,0c0.6,0,1.2-0.3,1.5-0.9
			c0.3-0.6,0.3-1.2,0.3-2c0-1.7-0.9-2.6-2-2.3c-0.3,0-0.9,0.3-1.2,0.3c-0.3,0.3-0.3,0.6-0.3,0.9
			C167.3,146.9,167.6,150.4,167.6,150.4z M165.8,145.2C166.1,145.2,166.1,145.2,165.8,145.2c0.9,0,1.2,0,1.5,0.6
			c0.3-0.3,0.6-0.6,0.9-0.6c0.3-0.3,0.9-0.3,1.2-0.3c0.9,0,1.7,0.3,2.3,0.9c0.6,0.6,0.9,1.5,0.9,2.6c0,0.9,0,1.5-0.3,2
			s-0.6,1.2-0.9,1.5c-0.3,0.3-0.9,0.6-1.5,0.6c-0.3,0-0.9,0-1.2,0s-0.6-0.3-0.9-0.6l0.3,3.8H167L165.8,145.2L165.8,145.2z
			 M178.6,146.9c0-1.2-0.6-2-1.7-1.7c-0.6,0-0.9,0.3-1.2,0.6c-0.6,0.6-0.6,0.9-0.6,1.5L178.6,146.9z M175.1,148.1
			c0,0.9,0.3,1.5,0.9,1.7c0.3,0.3,0.9,0.6,1.7,0.6c0.9,0,1.5-0.3,2-1.2l0.3,0.3v0.3c0,0.3,0,0.3-0.3,0.6c-0.6,0.6-1.2,0.6-2,0.9
			c-1.2,0-2-0.3-2.6-0.9c-0.6-0.6-0.9-1.5-1.2-2.9c0-0.9,0-1.5,0.3-2c0.3-0.6,0.6-1.2,1.2-1.5c0.6-0.3,0.9-0.6,1.7-0.6
			c0.6,0,1.2,0,1.7,0.3s0.9,0.6,1.2,1.2c0.3,0.6,0.3,0.9,0.6,1.7v0.9L175.1,148.1L175.1,148.1z M181.5,143.7
			C181.8,143.7,181.8,143.7,181.5,143.7c0.6,0,0.9,0,0.9,0c0.3,0,0.3,0.3,0.3,0.6c0-0.3,0.3-0.6,0.6-0.6s0.6-0.3,0.9-0.3
			c0.3,0,0.6,0,0.9,0c0.3,0,0.3,0.3,0.3,0.3s0,0.3,0,0.6l-0.3,0.6c0,0-0.3-0.3-0.6-0.3s-0.3,0-0.6,0s-0.6,0-0.9,0.3
			c-0.3,0.3-0.3,0.6-0.3,0.9l0.3,4.9h-1.2L181.5,143.7L181.5,143.7z M186.8,141.1L186.8,141.1c0.9,0,1.5,0.3,1.5,0.9v1.2l2.3-0.3
			v1.2l-2.3,0.3l0.3,4.1c0,0.9,0.3,1.2,1.2,1.2c0.3,0,0.3,0,0.6,0l0.3-0.3l0.3-0.3c0.3,0.3,0.6,0.6,0.6,0.9c0,0,0,0.3-0.3,0.6
			s-0.3,0.3-0.6,0.3s-0.6,0.3-0.9,0.3c-0.9,0-1.7-0.3-2-0.9c0-0.3-0.3-0.6-0.3-1.2L186.8,141.1L186.8,141.1z M196.6,144.3
			c-0.3-0.3-0.6-0.3-0.9-0.6c-0.3,0-0.6-0.3-1.2,0c-0.3,0-0.6,0-0.9,0.3c-0.3,0.3-0.3,0.3-0.3,0.6s0,0.3,0.3,0.3
			c0,0,0.3,0.3,0.6,0.3s0.6,0,0.9,0.3c0.6,0,1.2,0.3,1.5,0.3c0.3,0.3,0.6,0.3,0.9,0.6c0.3,0.3,0.3,0.6,0.3,0.9c0,0.6,0,1.2-0.6,1.7
			s-1.2,0.6-2,0.9c-0.6,0-1.2,0-1.7,0s-0.9,0-0.9-0.3v-0.3c0,0,0-0.3,0.3-0.6c0.3,0.3,0.6,0.3,0.9,0.6c0.3,0,0.6,0,1.2,0
			c0.6,0,0.9,0,1.2-0.3s0.3-0.6,0.3-0.9c0-0.3,0-0.6-0.3-0.6c-0.3-0.3-0.6-0.3-1.2-0.3c-0.9,0-1.5-0.3-1.7-0.6s-0.6-0.9-0.6-1.2
			c0-0.6,0-1.2,0.6-1.5s1.2-0.6,1.7-0.6c0.3,0,0.6,0,1.2,0c0.3,0,0.6,0,0.9,0.3c0.3,0.3,0.6,0.3,0.6,0.6s0,0.6-0.3,0.9L196.6,144.3
			L196.6,144.3L196.6,144.3z"/>
	</g>
</g>
</svg>
