<?xml version="1.0" encoding="utf-8"?>
<svg version="1.1" id="Layer_1" xmlns="http://www.w3.org/2000/svg" xmlns:xlink="http://www.w3.org/1999/xlink" x="0px" y="0px"
	width="100px" height="100px" viewBox="0 0 100 100" style="enable-background:new 0 0 100 100;" xml:space="preserve">
<g>
	<path style="fill:#E8E8E8;" d="M50,0c27.61,0,50,22.39,50,50s-22.39,50-50,50S0,77.61,0,50S22.39,0,50,0"/>
	<path style="fill:#FFFFFF;" d="M50,1c27.06,0,49,21.94,49,49S77.06,99,50,99S1,77.06,1,50S22.94,1,50,1"/>
	<g>
		<g>
			<path style="fill:#006B37;" d="M16.67,61.62v-3.5h0.99l0.93,2.42h0.01v-2.42h0.68v3.5h-0.97l-0.96-2.56h-0.01v2.56H16.67z"/>
			<path style="fill:#006B37;" d="M20.25,59.87c0-0.92,0-1.81,1.21-1.81c1.2,0,1.2,0.88,1.2,1.81c0,0.91,0,1.81-1.2,1.81
				C20.25,61.68,20.25,60.79,20.25,59.87z M21.93,59.87c0-0.9-0.05-1.29-0.46-1.29c-0.41,0-0.46,0.39-0.46,1.29
				c0,0.9,0.05,1.28,0.46,1.28C21.87,61.16,21.93,60.77,21.93,59.87z"/>
			<path style="fill:#006B37;" d="M26,58.12v2.48c0,0.52-0.3,1.08-1.19,1.08c-0.8,0-1.19-0.42-1.19-1.08v-2.48h0.73v2.43
				c0,0.43,0.19,0.6,0.45,0.6c0.32,0,0.46-0.21,0.46-0.6v-2.43C25.26,58.12,26,58.12,26,58.12z"/>
			<path style="fill:#006B37;" d="M27.7,61.62h-0.73v-3.5h1.35c0.5,0,0.81,0.32,0.81,0.91c0,0.45-0.17,0.78-0.65,0.86v0.01
				c0.16,0.02,0.63,0.06,0.63,0.69c0,0.22,0.01,0.88,0.08,1.03h-0.72c-0.1-0.21-0.08-0.45-0.08-0.68c0-0.41,0.04-0.77-0.52-0.77
				H27.7L27.7,61.62L27.7,61.62z M27.7,59.64h0.33c0.29,0,0.37-0.29,0.37-0.52c0-0.33-0.14-0.46-0.37-0.46H27.7V59.64z"/>
			<path style="fill:#006B37;" d="M30.78,61.62h-0.73v-3.5h1.35c0.5,0,0.82,0.32,0.82,0.91c0,0.45-0.18,0.78-0.65,0.86v0.01
				c0.16,0.02,0.63,0.06,0.63,0.69c0,0.22,0.02,0.88,0.08,1.03h-0.72c-0.1-0.21-0.08-0.45-0.08-0.68c0-0.41,0.04-0.77-0.52-0.77
				h-0.19V61.62z M30.78,59.64h0.32c0.29,0,0.37-0.29,0.37-0.52c0-0.33-0.14-0.46-0.37-0.46h-0.32V59.64z"/>
			<path style="fill:#006B37;" d="M33.14,61.62v-3.5h0.73v3.5H33.14z"/>
			<path style="fill:#006B37;" d="M35.59,61.62h-0.73v-3.5h1.35c0.5,0,0.82,0.32,0.82,0.91c0,0.45-0.18,0.78-0.65,0.86v0.01
				c0.16,0.02,0.63,0.06,0.63,0.69c0,0.22,0.02,0.88,0.09,1.03h-0.72c-0.09-0.21-0.07-0.45-0.07-0.68c0-0.41,0.04-0.77-0.52-0.77
				h-0.19L35.59,61.62L35.59,61.62z M35.59,59.64h0.33c0.29,0,0.37-0.29,0.37-0.52c0-0.33-0.14-0.46-0.37-0.46h-0.33V59.64z"/>
			<path style="fill:#006B37;" d="M41.78,58.12v2.48c0,0.52-0.3,1.08-1.19,1.08c-0.8,0-1.19-0.42-1.19-1.08v-2.48h0.73v2.43
				c0,0.43,0.18,0.6,0.45,0.6c0.32,0,0.46-0.21,0.46-0.6v-2.43C41.04,58.12,41.78,58.12,41.78,58.12z"/>
			<path style="fill:#006B37;" d="M42.77,61.62v-3.5h0.99l0.93,2.42h0.01v-2.42h0.68v3.5h-0.96l-0.95-2.56h-0.01v2.56H42.77z"/>
			<path style="fill:#E40521;" d="M47.92,61.62v-4.71h1.59l0.74,3.2h0.01l0.78-3.2h1.53v4.71h-0.96v-3.64h-0.01l-0.91,3.64h-0.94
				l-0.86-3.64h-0.02v3.64H47.92z"/>
			<path style="fill:#E40521;" d="M53.86,59.27c0-1.25,0-2.43,1.63-2.43c1.63,0,1.63,1.18,1.63,2.43c0,1.23,0,2.43-1.63,2.43
				C53.86,61.7,53.86,60.5,53.86,59.27z M56.11,59.27c0-1.21-0.07-1.73-0.63-1.73c-0.55,0-0.62,0.52-0.62,1.73
				c0,1.21,0.07,1.73,0.62,1.73C56.04,61,56.11,60.47,56.11,59.27z"/>
			<path style="fill:#E40521;" d="M58.42,61.62v-4.71h1.33l1.25,3.26h0.01v-3.26h0.92v4.71h-1.3l-1.29-3.45h-0.01v3.45H58.42z"/>
			<path style="fill:#E40521;" d="M63.31,56.91h1.64c1.29,0,1.53,0.86,1.53,2.33c0,0.72,0.11,2.38-1.57,2.38h-1.6V56.91z M64.3,60.9
				h0.48c0.6,0,0.71-0.45,0.71-1.63c0-0.87,0-1.63-0.68-1.63H64.3L64.3,60.9L64.3,60.9z"/>
			<path style="fill:#E40521;" d="M67.8,61.62v-4.71h2.57v0.72h-1.59v1.16h1.46v0.72h-1.46v1.38h1.64v0.72L67.8,61.62L67.8,61.62z"
				/>
			<path style="fill:#006B37;" d="M44.47,64.97h1.22c0.96,0,1.14,0.64,1.14,1.73c0,0.54,0.08,1.77-1.17,1.77h-1.19L44.47,64.97
				L44.47,64.97z M45.2,67.92h0.35c0.45,0,0.53-0.33,0.53-1.21c0-0.65,0-1.21-0.51-1.21H45.2L45.2,67.92L45.2,67.92z"/>
			<path style="fill:#006B37;" d="M47.8,68.46v-3.49h1.91v0.53h-1.18v0.86h1.09v0.54h-1.09v1.02h1.22v0.54H47.8z"/>
			<path style="fill:#C7D530;" d="M52.18,63.9h1.59c1.25,0,1.49,0.84,1.49,2.26c0,0.7,0.11,2.31-1.53,2.31h-1.55V63.9z M53.13,67.76
				h0.46c0.58,0,0.69-0.44,0.69-1.58c0-0.84,0-1.58-0.66-1.58h-0.49V67.76z"/>
			<path style="fill:#C7D530;" d="M56.53,68.46V63.9h0.95v4.57H56.53z"/>
			<path style="fill:#C7D530;" d="M58.42,63.9h0.99l0.71,3.32h0.01l0.79-3.32h0.94l-1.21,4.57h-1.12L58.42,63.9z"/>
			<path style="fill:#C7D530;" d="M62.81,68.46V63.9h2.49v0.7h-1.54v1.13h1.42v0.7h-1.42v1.33h1.59v0.7L62.81,68.46L62.81,68.46z"/>
			<path style="fill:#C7D530;" d="M67.42,68.46h-0.95V63.9h1.76c0.65,0,1.07,0.42,1.07,1.19c0,0.59-0.23,1.02-0.85,1.12v0.01
				c0.21,0.02,0.83,0.07,0.83,0.9c0,0.29,0.02,1.15,0.11,1.34h-0.94c-0.12-0.28-0.1-0.59-0.1-0.88c0-0.55,0.05-1.01-0.68-1.01h-0.25
				L67.42,68.46L67.42,68.46z M67.42,65.87h0.42c0.38,0,0.49-0.38,0.49-0.67c0-0.44-0.19-0.6-0.49-0.6h-0.42V65.87z"/>
			<path style="fill:#C7D530;" d="M71.74,68.54c-1.19,0-1.4-0.7-1.36-1.49h0.95c0,0.44,0.02,0.8,0.55,0.8
				c0.32,0,0.48-0.21,0.48-0.52c0-0.82-1.92-0.87-1.92-2.23c0-0.71,0.34-1.28,1.5-1.28c0.93,0,1.39,0.42,1.33,1.37h-0.93
				c0-0.34-0.06-0.69-0.44-0.69c-0.31,0-0.5,0.17-0.5,0.49c0,0.87,1.92,0.79,1.92,2.23C73.33,68.4,72.47,68.54,71.74,68.54z"/>
			<path style="fill:#C7D530;" d="M74.52,68.46V63.9h0.95v4.57H74.52z"/>
			<path style="fill:#C7D530;" d="M79.5,63.9v0.76h-1.06v3.81h-0.95v-3.81h-1.06V63.9H79.5z"/>
			<path style="fill:#C7D530;" d="M80.45,68.46V63.9h2.49v0.7h-1.54v1.13h1.42v0.7h-1.42v1.33h1.59v0.7L80.45,68.46L80.45,68.46z
				 M82.51,62.53l-1.01,0.9h-0.41l0.57-0.9H82.51z"/>
		</g>
		<g>
			<g>
				<path style="fill:#006B37;" d="M37.1,32.2c-0.26-0.09-0.57-0.21-0.9-0.21c-0.8,0-1.33,0.57-1.33,1.33c0,0.72,0.5,1.26,1.27,1.26
					c0.16,0,0.31-0.06,0.46-0.1v-0.89h-0.65v-0.5h1.3v1.81c-0.33,0.11-0.72,0.23-1.13,0.23c-1.25,0-1.97-0.72-1.97-1.82
					c0-1.11,0.73-1.84,2.02-1.84c0.32,0,0.66,0.11,1,0.19L37.1,32.2z"/>
				<path style="fill:#006B37;" d="M39.29,31.54c0.86,0,1.28,0.3,1.28,0.91c0,0.45-0.26,0.75-0.73,0.86
					c0.26,0.08,0.34,0.26,0.45,0.53l0.49,1.22h-0.73l-0.39-1.06c-0.12-0.32-0.28-0.41-0.61-0.41h-0.22v1.47h-0.68v-3.51H39.29z
					 M38.83,33.08h0.36c0.46,0,0.7-0.19,0.7-0.53c0-0.37-0.24-0.53-0.75-0.53h-0.31L38.83,33.08L38.83,33.08z"/>
				<path style="fill:#006B37;" d="M44.51,33.29c0,1.15-0.64,1.83-1.67,1.83c-1.03,0-1.66-0.68-1.66-1.83
					c0-1.15,0.63-1.83,1.66-1.83C43.87,31.46,44.51,32.15,44.51,33.29z M41.89,33.28c0,0.81,0.4,1.3,0.96,1.3
					c0.56,0,0.96-0.5,0.96-1.3c0-0.81-0.4-1.3-0.96-1.3C42.28,31.98,41.89,32.48,41.89,33.28z"/>
				<path style="fill:#006B37;" d="M45.91,31.54v2.06c0,0.67,0.21,0.99,0.71,0.99c0.49,0,0.75-0.34,0.75-1.01v-2.03h0.65v2.04
					c0,1.02-0.47,1.54-1.41,1.54c-0.92,0-1.39-0.51-1.39-1.51v-2.07C45.22,31.54,45.91,31.54,45.91,31.54z"/>
				<path style="fill:#006B37;" d="M49.96,31.54c0.9,0,1.34,0.34,1.34,1.1c0,0.67-0.47,1.08-1.32,1.08h-0.37v1.33h-0.69v-3.51H49.96
					z M49.61,33.22h0.28c0.46,0,0.7-0.21,0.7-0.58c0-0.39-0.23-0.6-0.65-0.6h-0.32V33.22z"/>
				<path style="fill:#006B37;" d="M54.05,31.54v0.51H52.6v0.93h1.38v0.52H52.6v1.03h1.5v0.53h-2.2v-3.51H54.05z"/>
			</g>
			<path style="fill:#006B37;" d="M12.55,56.67c-0.43-0.05-0.74-0.31-0.06-0.66c0,0,26.5-4.52,40.99-5.34
				c14.49-0.82,25.34-1.26,34.43,0.11l-3.41,2.59c0,0-7.39-0.65-13.22-0.88c-2.81-0.11-12.95-0.44-24.79,0.44
				c-10.24,0.76-26.25,2.32-33.11,3.64C13.38,56.55,12.92,56.7,12.55,56.67z"/>
			<g>
				<g>
					<path style="fill:#006B37;" d="M29.83,36.5l0.05,0.17c0.04,0.12,0.07,0.16,0.24,0.15c1.69-0.06,2.94-1.29,2.94-1.97
						c0-0.8-0.8-1.81-4.13-1.81c-9.78,0-16.07,4.77-16.52,9.94c-0.58,6.83,8.87,10.26,16.89,8.01c1.83-0.52,2.86-1.2,2.89-1.51
						c0.03-0.29,0.02-0.5-0.03-0.71c-0.55,0.27-1.11,0.5-1.68,0.69c-6.52,2.22-14.32-0.51-13.79-6.8c0.39-4.53,5.86-8.36,11.67-8.31
						c0.35,0,0.67,0.02,0.95,0.07c0.83,0.14,1.15,0.52,1.14,0.95C30.46,35.74,30.2,36.16,29.83,36.5z"/>
					<path style="fill:#006B37;" d="M41.36,38.73c0.19-0.4,0.13-0.71-0.25-0.8c-0.56-0.14-1.41-0.26-2.12-0.29
						c-7.55-0.34-12.82,4.43-12.96,7.99c-0.06,1.5,0.74,2.47,2.65,2.47c2.1,0,4.64-1.24,6.33-2.62c0.42-0.34,0.48-0.2,0.41,0.07
						c-0.32,1.27-0.21,2.36,0.92,2.42c1.27,0.06,2.87-0.65,3.4-0.93c0.05-0.03,0.11-0.19,0.07-0.52c-0.7-0.04-0.95-0.72-0.78-1.5
						C39.4,43.35,40.72,40.11,41.36,38.73z M30.83,46.07c-0.65-0.03-1.02-0.49-1-1.13c0.12-2.79,3.98-6.35,7.92-5.75
						C35.91,43.86,32.78,46.16,30.83,46.07z"/>
					<path style="fill:#006B37;" d="M50.92,39.69c0.06,0.1,0.09,0.11,0.22,0.05c0.59-0.25,1.25-0.8,1.27-1.27
						c0.02-0.59-0.72-1.01-2.84-1.1c-3.38-0.15-6.19,1.05-6.19,3.08c0,2.46,4.57,2.76,4.57,4.78c0,0.98-0.94,1.82-2.92,1.82
						c-1.34,0.01-2.52-0.48-2.52-1.56c0-0.69,0.55-1.5,2.59-2.04c-0.29-0.38-0.43-0.42-0.82-0.36c-2.35,0.39-3.7,1.41-3.75,2.63
						c-0.05,1.35,1,2.45,4.81,2.45c4.3,0,6.18-2.07,6.18-3.9c0-2.04-2.83-3.1-4.09-4.03c-0.39-0.3-0.56-0.61-0.56-0.88
						c0-0.55,0.57-1.08,2.12-1.1c0.75-0.01,1.46,0.17,1.78,0.48c0.26,0.24,0.28,0.58,0.12,0.89L50.92,39.69z"/>
					<path style="fill:#006B37;" d="M82.29,37.09c-3.75-0.17-6.67,2.85-7.15,5.92c-2.68,3.13-3.88,2.74-3.64,1.61
						c0.3-1.36,1.99-4.83,2.05-6.15c0.03-0.73-0.4-1.26-1.32-1.3c-1.53-0.07-4.04,1.63-6.34,3.73c-0.4,0.37-0.7,0.19-0.55-0.2
						c0.36-1,0.54-1.52,0.89-2.49c0.06-0.22,0.05-0.33-0.08-0.44c-0.5-0.44-0.94-0.66-1.35-0.67c-0.44-0.01-0.78,0.2-1.08,0.58
						c-1.99,1.95-5.98,7.88-7.34,7.82c-0.24-0.01-0.46-0.1-0.45-0.47c0.03-0.82,2.47-6.6,2.49-7.27c0.02-0.36-0.26-0.45-0.43-0.46
						c-0.61-0.02-3.38,1.02-3.7,1.34c-0.1,0.1-0.14,0.3-0.19,0.54c0.29-0.01,0.6,0.17,0.44,0.75c-0.36,1.34-2.18,5.6-2.21,6.53
						c-0.03,0.82,0.42,1.28,1.27,1.32c2.38,0.1,4.79-1.81,7.89-5.72c-0.8,1.78-1.34,3.27-1.39,4.38c-0.04,1.07,1.38,1.23,2.23,1.11
						c0.3-0.04,0.32-0.04,0.42-0.38c0.29-0.99,1.34-2.96,3.55-5.15c1.06-1.05,2.35-2.09,2.96-2.06c0.45,0.02,0.52,0.45,0.46,0.72
						c-0.22,1.05-0.99,2.84-1.5,4.4c-0.48,1.48,0.17,2.39,1.31,2.45c1.55,0.07,3.52-0.9,5.55-3c0.22,1.68,1.38,3.08,3.47,3.17
						c3.8,0.17,7.3-2.8,7.46-6.8C86.12,38.67,84.45,37.18,82.29,37.09z M82.92,41.33c-0.51,2.67-2.42,4.7-4.18,4.61
						c-1.11-0.05-1.45-1.29-1.2-2.64c0.42-2.2,2.22-4.57,4.08-4.48C82.63,38.86,83.21,39.84,82.92,41.33z"/>
					<path style="fill:#006B37;" d="M55.58,36.86c-0.28-0.07-0.37-0.13-0.28-0.58c0.12-0.61,0.28-1.31,0.44-1.89
						c0.24-0.88,0.72-1.37,2.07-1.51c1.1-0.13,2.47-0.22,3.34-0.6c-0.94,3.2-4.03,2.34-5.41,4.63L55.58,36.86z"/>
				</g>
			</g>
		</g>
	</g>
</g>
</svg>
