<?xml version="1.0"?>
<svg xmlns="http://www.w3.org/2000/svg" xmlns:xlink="http://www.w3.org/1999/xlink" xmlns:svgjs="http://svgjs.com/svgjs" version="1.1" width="512" height="512" x="0" y="0" viewBox="0 0 512 512" style="enable-background:new 0 0 512 512" xml:space="preserve" class=""><g><g xmlns="http://www.w3.org/2000/svg"><g><g><g><g><g><g><g><circle cx="256" cy="256" fill="#f1f1f1" r="256" data-original="#00c8c8" style="" class=""/></g></g></g></g></g></g></g><path d="m512 256c0-16.466-1.555-32.568-4.525-48.169l-148.123-148.123-46.763 139.084-133.725-133.725-36.489 391.123 47.074 47.074c21.221 5.697 43.531 8.736 66.551 8.736 141.385 0 256-114.615 256-256z" fill="#f1f1f1" data-original="#13aaaa" style="" class=""/><g><path d="m359.352 452.292h-89.919v-27.844l3.258-15-3.258-15v-21.15l4.127-13.064-4.127-16.936v-21.149l3.041-15-3.041-15v-21.149l4.344-15-4.344-15v-21.149l5.865-17.083-5.865-12.917v-21.149l5.865-12.413-5.865-17.587v-21.15l3.91-15-3.91-15v-27.844h89.919z" fill="#ffce00" data-original="#ffce00" style="" class=""/></g><g><path d="m316.718 59.708h42.634v392.583h-42.634z" fill="#fdba12" data-original="#fdba12" style="" class=""/></g><g><path d="m216.655 129.119v327.071h-74.28v-327.071l37.14-5.929z" fill="#fe6a16" data-original="#fe6a16" style="" class=""/></g><g><path d="m216.655 129.119-37.14-5.929-.712.114v332.886h37.852z" fill="#f24500" data-original="#f24500" style="" class=""/></g><g><path d="m162.172 94.367-19.797 34.752h74.28l-20.504-34.752-16.99-4.105z" fill="#ffffff" data-original="#ffffff" style=""/></g><g><path d="m196.151 94.367-17.348-3.019v37.771h37.852z" fill="#e9edf5" data-original="#e9edf5" style=""/></g><g><path d="m178.864 65.067-16.692 29.3h33.979z" fill="#707789" data-original="#707789" style=""/></g><path d="m178.864 65.067-.061 29.3h17.348z" fill="#555a66" data-original="#555a66" style=""/><g><g><g><path d="m269.433 87.552h36.271v30h-36.271z" fill="#ffaa00" data-original="#ffaa00" style="" class=""/></g></g><g><g><path d="m269.433 394.448h36.271v30h-36.271z" fill="#ffaa00" data-original="#ffaa00" style="" class=""/></g></g><g><g><path d="m269.433 138.702h72.543v30h-72.543z" fill="#ffaa00" data-original="#ffaa00" style="" class=""/></g></g><g><g><path d="m316.718 138.702h25.258v30h-25.258z" fill="#ff9500" data-original="#ff9500" style=""/></g></g><g><g><path d="m269.433 189.851h36.271v30h-36.271z" fill="#ffaa00" data-original="#ffaa00" style="" class=""/></g></g><g><g><path d="m269.433 241h72.543v30h-72.543z" fill="#ffaa00" data-original="#ffaa00" style="" class=""/></g></g><g><g><path d="m316.718 241h25.258v30h-25.258z" fill="#ff9500" data-original="#ff9500" style=""/></g></g><g><g><path d="m269.433 292.149h36.271v30h-36.271z" fill="#ffaa00" data-original="#ffaa00" style="" class=""/></g></g><g><g><path d="m269.433 343.298h72.543v30h-72.543z" fill="#ffaa00" data-original="#ffaa00" style="" class=""/></g></g><g><g><path d="m316.718 343.298h25.258v30h-25.258z" fill="#ff9500" data-original="#ff9500" style=""/></g></g></g></g></g></svg>
