<?xml version="1.0"?>
<svg xmlns="http://www.w3.org/2000/svg" xmlns:xlink="http://www.w3.org/1999/xlink" xmlns:svgjs="http://svgjs.com/svgjs" version="1.1" width="512" height="512" x="0" y="0" viewBox="0 0 512 512" style="enable-background:new 0 0 512 512" xml:space="preserve" class=""><g><g xmlns="http://www.w3.org/2000/svg"><g><g><g><g><g><g><path d="m201.919 506.277c-115.412-24.821-201.919-127.446-201.919-250.277 0-141.385 114.615-256 256-256s256 114.615 256 256c0 122.831-86.507 225.456-201.919 250.277z" fill="#f1f1f1" data-original="#ff475a" style="" class=""/></g></g></g></g></g></g><path d="m310.081 506.276c115.412-24.82 201.919-127.445 201.919-250.276 0-11.818-.801-23.45-2.352-34.843l-105.983-105.984-12.314 21.328-38.841-38.841-80.289 145.4-127.886-127.887-36 56.133 45.943 45.943-45.943 36.222 59.9 59.9-59.9 22.265 166.819 166.819z" fill="#f1f1f1" data-original="#d1093a" style="" class=""/><g><g><path d="m201.919 506.276c17.433 3.75 35.527 5.724 54.081 5.724s36.648-1.974 54.081-5.724v-202.151h-108.162z" fill="#ffce00" data-original="#ffce00" style="" class=""/></g><g><path d="m310.081 304.125h-53.961v207.874c18.512-.009 36.565-1.981 53.961-5.722z" fill="#fdba12" data-original="#fdba12" style="" class=""/></g><g><g><path d="m126.335 125.24h259.33v36h-259.33z" fill="#555a66" data-original="#555a66" style="" class=""/></g><g><path d="m256.12 125.24h129.545v36h-129.545z" fill="#333940" data-original="#333940" style=""/></g><g><path d="m108.335 115.173h36v56.133h-36z" fill="#555a66" data-original="#555a66" style="" class=""/></g><g><path d="m367.665 115.173h36v56.133h-36z" fill="#333940" data-original="#333940" style=""/></g></g><g><g><path d="m126.335 207.405h259.33v36h-259.33z" fill="#555a66" data-original="#555a66" style="" class=""/></g><g><path d="m256.12 207.405h129.545v36h-129.545z" fill="#333940" data-original="#333940" style=""/></g><g><path d="m108.335 197.339h36v56.133h-36z" fill="#555a66" data-original="#555a66" style="" class=""/></g><g><path d="m367.665 197.339h36v56.133h-36z" fill="#333940" data-original="#333940" style=""/></g></g><g><g><path d="m126.335 289.571h259.33v36h-259.33z" fill="#555a66" data-original="#555a66" style="" class=""/></g><g><path d="m256.12 289.571h129.545v36h-129.545z" fill="#333940" data-original="#333940" style=""/></g><g><path d="m108.335 279.504h36v56.133h-36z" fill="#555a66" data-original="#555a66" style="" class=""/></g><g><path d="m367.665 279.504h36v56.133h-36z" fill="#333940" data-original="#333940" style=""/></g></g><g><path d="m352.51 97.66-14.206 236.418c-.895 14.891-13.232 26.509-28.149 26.509h-108.31c-14.918 0-27.255-11.618-28.149-26.509l-14.206-236.418s89.822-46.485 193.02 0z" fill="#ffffff" data-original="#ffffff" style="" class=""/></g><g><path d="m256.12 77.009v283.578h54.034c14.918 0 27.255-11.618 28.149-26.508l14.207-236.419c-34.595-15.583-67.681-20.71-96.39-20.651z" fill="#e9edf5" data-original="#e9edf5" style="" class=""/></g></g></g></g></svg>
