<?xml version="1.0" encoding="utf-8"?>
<svg version="1.1" id="Layer_1" xmlns="http://www.w3.org/2000/svg" xmlns:xlink="http://www.w3.org/1999/xlink" x="0px" y="0px"
	width="100px" height="100px" viewBox="0 0 99.9 99.9" style="enable-background:new 0 0 99.9 99.9;" xml:space="preserve">
<g>
	<circle style="fill:#E8E8E8;" cx="49.9" cy="49.9" r="49.9"/>
	<circle style="fill:#FFFFFF;" cx="49.9" cy="49.9" r="49"/>
	<path d="M67.5,22.6c-3.4-3.4-8.1-5.2-13.8-5.2h-7.3c-5.5,0-10.8,1.9-14.2,5.5c-3.3,3.4-4.9,8.2-4.9,13.9v28.3
		c0,5.2,0.1,17.7,10.6,17.7c7,0,9.3-6.7,10.3-9.9l0.1-0.1c2.5-7.6,6.4-11.7,14.2-14.2c7-2.4,9.7-7.3,10-17.5v-4.2
		C72.6,31,70.9,26.1,67.5,22.6z M69.1,40.8c-0.4,9.7-2.8,12.4-7.6,14.2C52.6,57.9,47.8,63,45,71.7l-0.1,0.1c-1.2,3.9-2.8,7.3-7,7.3
		c-3.7,0-7.2-1.6-7.2-13.9V36.7c0-4.8,1.3-8.5,4-11.4s7-4.5,11.7-4.5h7.3c4.6,0,8.5,1.5,11.2,4.3c2.7,2.8,4,6.7,4,11.4L69.1,40.8
		L69.1,40.8z"/>
	<path style="fill:#00999D;" d="M61.9,81c4.3,0,7.9-3.4,7.9-7.9s-3.7-7.9-7.9-7.9c-4.3,0-7.9,3.4-7.9,7.9l0,0
		C53.8,77.4,57.7,81,61.9,81z"/>
</g>
</svg>
