<?xml version="1.0"?>
<svg xmlns="http://www.w3.org/2000/svg" xmlns:xlink="http://www.w3.org/1999/xlink" xmlns:svgjs="http://svgjs.com/svgjs" version="1.1" width="512" height="512" x="0" y="0" viewBox="0 0 512 512" style="enable-background:new 0 0 512 512" xml:space="preserve" class=""><g><path xmlns="http://www.w3.org/2000/svg" d="m512 256c0 141.386719-114.613281 256-256 256s-256-114.613281-256-256 114.613281-256 256-256 256 114.613281 256 256zm0 0" fill="#f1f1f1" data-original="#ff9ec2" style="" class=""/><path xmlns="http://www.w3.org/2000/svg" d="m274.789062 511.3125c132.609376-9.621094 237.210938-120.246094 237.210938-255.3125 0-7.867188-.375-15.644531-1.070312-23.328125l-94.929688-94.933594s-136.988281 20.871094-160 20.871094c-.242188 0-41.738281-41.40625-41.738281-41.742187l-118.261719 97.394531 91.167969 90.558593-28.558594 90.3125zm0 0" fill="#f1f1f1" data-original="#fe4e8e" style="" class=""/><path xmlns="http://www.w3.org/2000/svg" d="m158.609375 116.871094 34.78125 97.390625h-97.390625v-76.523438zm0 0" fill="#629c3d" data-original="#629c3d" style="" class=""/><path xmlns="http://www.w3.org/2000/svg" d="m416 137.738281v76.523438h-97.390625l34.78125-97.390625zm0 0" fill="#528730" data-original="#528730" style=""/><path xmlns="http://www.w3.org/2000/svg" d="m297.738281 116.871094c0 23.011718-18.726562 41.738281-41.738281 41.738281l-41.738281 118.261719 41.738281 118.257812h97.390625v-278.257812zm0 0" fill="#94d869" data-original="#94d869" style=""/><path xmlns="http://www.w3.org/2000/svg" d="m214.261719 116.871094h-55.652344v278.257812h97.390625v-236.519531c-23.011719 0-41.738281-18.726563-41.738281-41.738281zm0 0" fill="#c9e086" data-original="#c9e086" style=""/><path xmlns="http://www.w3.org/2000/svg" d="m256.007812 342.957031-20.234374 10.433594 20.234374 10.433594h55.625v-20.867188zm0 0" fill="#528730" data-original="#528730" style=""/><path xmlns="http://www.w3.org/2000/svg" d="m200.328125 342.957031h55.679687v20.871094h-55.679687zm0 0" fill="#629c3d" data-original="#629c3d" style="" class=""/><path xmlns="http://www.w3.org/2000/svg" d="m256.027344 200.347656-20.234375 55.652344 20.234375 55.652344h55.625v-111.304688zm0 0" fill="#f2e8e7" data-original="#f2e8e7" style=""/><path xmlns="http://www.w3.org/2000/svg" d="m200.347656 200.347656h55.679688v111.304688h-55.679688zm0 0" fill="#ffffff" data-original="#ffffff" style=""/></g></svg>
