<svg xmlns="http://www.w3.org/2000/svg" xmlns:xlink="http://www.w3.org/1999/xlink" viewBox="0 0 250 37.1"><g transform="matrix(1.25 0 0 -1.25 -1137.6896 166.19643)"><defs><path id="A" d="M-151.7-105.2h1516.5V947.2H-151.7z"/><path id="B" d="M915.689 122.283c1.625 0 3.25.203 4.672.508.305 1.422.508 2.945.508 4.672s-.203 3.149-.508 4.571c-1.422.305-3.047.508-4.672.508s-3.25-.203-4.672-.508c-.305-1.422-.508-2.945-.508-4.672s.203-3.25.508-4.672c1.422-.203 3.047-.406 4.672-.406"/><path id="C" d="M973.046 116.077c.406.102 1.016.102 1.524.102s1.117 0 1.524-.102v-11.782c-.406-.102-1.016-.102-1.524-.102s-1.117 0-1.524.102v11.782"/></defs><clipPath ><use xlink:href="#A"/></clipPath><g fill="#d20827"><use xlink:href="#B"/><use xlink:href="#B" x="18.623"/></g><use xlink:href="#B" y="-18.62" fill="#969696"/><use xlink:href="#B" x="9.312" y="-9.312" fill="#830a3a"/><g transform="matrix(1.015668 0 0 1.015668 867.94444 -679.46973)"><linearGradient id="E" gradientUnits="userSpaceOnUse" x1="-119.788" y1="464.478" x2="-118.788" y2="464.478" gradientTransform="matrix(0 12.2411 12.2411 0 -5629.3066 2246.5535)"><stop offset="0" stop-color="#231f20" stop-opacity=".5"/><stop offset="1" stop-color="#231f20" stop-opacity="0"/></linearGradient><path d="M60.8 789.9c.3-1.4.5-2.9.5-4.6s-.2-3.2-.5-4.6c-1.4-.3-2.9-.5-4.6-.5-1.6 0-3.2.2-4.6.5l9.2 9.2" fill="url(#E)"/><linearGradient id="F" gradientUnits="userSpaceOnUse" x1="-119.788" y1="464.478" x2="-118.788" y2="464.478" gradientTransform="matrix(0 12.2413 12.2413 0 -5638.5898 2237.4133)"><stop offset="0" stop-color="#4d4d4e"/><stop offset="1" stop-color="#969696"/></linearGradient><path d="M51.6 780.7c.3-1.4.5-2.9.5-4.6 0-1.6-.2-3.2-.5-4.6-1.4-.3-2.9-.5-4.6-.5s-3.2.2-4.6.5c1.1 1 8.3 8.3 9.2 9.2" fill="url(#F)"/><linearGradient id="G" gradientUnits="userSpaceOnUse" x1="46.779" y1="789.386" x2="46.779" y2="801.628"><stop offset="0" stop-color="#231f20" stop-opacity=".5"/><stop offset="1" stop-color="#231f20" stop-opacity="0"/></linearGradient><path d="M42.4 799c-.3-1.4-.5-2.9-.5-4.6s.2-3.2.5-4.6c1.4-.3 2.9-.5 4.6-.5s3.2.2 4.6.5c-1 1.1-8.3 8.3-9.2 9.2" fill="url(#G)"/><linearGradient id="H" gradientUnits="userSpaceOnUse" x1="-119.788" y1="464.478" x2="-118.788" y2="464.478" gradientTransform="matrix(0 12.2412 12.2412 0 -5620.1963 2255.7334)"><stop offset="0" stop-color="#231f20" stop-opacity=".5"/><stop offset="1" stop-color="#231f20" stop-opacity="0"/></linearGradient><path d="M69.9 799c.3-1.4.5-2.9.5-4.6s-.2-3.2-.5-4.6c-1.4-.3-2.9-.5-4.6-.5s-3.2.2-4.6.5l9.2 9.2" fill="url(#H)"/></g><g fill="#d20626"><path d="M993.92 125.006c-.914.305-1.524.609-2.031 1.219-.508.508-.711 1.219-.711 2.031 0 .609.102 1.117.305 1.524.203.508.508.813 1.016 1.219.508.305 1.016.508 1.524.711.609.203 1.219.203 2.031.203h.914c.305 0 .609-.102 1.016-.102.305 0 .609-.102.914-.203.203-.102.406-.102.609-.203 0-.406-.102-.914-.203-1.32l-.406-1.117c-.508.102-1.016.305-1.524.406-.609.102-1.016.203-1.422.203-.508 0-.914-.102-1.219-.305s-.508-.406-.508-.813c0-.305.102-.508.406-.711.203-.203.508-.305.914-.406l1.524-.406c.914-.305 1.625-.711 2.133-1.219s.711-1.219.711-2.133c0-1.219-.508-2.234-1.422-2.844-.914-.711-2.234-1.016-3.86-1.016-.711 0-1.32.102-2.031.203-.609 0-1.219.102-1.625.305l.305 1.422c.102.508.305.813.406 1.117.203-.102.406-.102.609-.203s.508-.102.711-.203c.305-.102.508-.102.813-.102s.508-.102.813-.102c.609 0 1.117.102 1.524.305s.609.508.609.914c0 .305-.102.609-.406.813s-.711.406-1.117.508l-1.32.305m-27.582 6.671c.406.102 1.016.102 1.524.102.609 0 1.117 0 1.524-.102v-11.782c-.406-.102-1.016-.102-1.524-.102-.609 0-1.117 0-1.524.102v4.672c-.609-.102-1.32-.203-2.133-.203s-1.524.102-2.133.203v-4.571c-.406-.102-1.016-.102-1.524-.102-.609 0-1.117 0-1.524.102v11.68c.406.102 1.016.102 1.524.102.609 0 1.117 0 1.524-.102v-4.571c.203-.102.508-.102.914-.203s.813-.102 1.219-.102.711 0 1.117.102.711.102 1.016.203v4.571"/><path d="M973.802 124.711c0-.914.203-1.625.609-1.93.406-.406 1.117-.508 2.133-.508.406 0 .914 0 1.422.102.508 0 1.016.102 1.422.203.102-.203.102-.406.102-.609s.102-.406.102-.609c0-.406 0-.813-.102-1.117-.914-.406-1.93-.609-3.047-.609-1.016 0-1.828.102-2.539.305s-1.32.508-1.727.914-.813 1.016-1.016 1.625c-.203.711-.305 1.524-.305 2.438v6.703h8.43c.102-.305.102-.813.102-1.32s0-.914-.102-1.32h-5.485v-1.93h4.571c0-.203.102-.406.102-.609v-.609-.609c0-.203-.102-.406-.102-.609h-4.571m30.776.098c0-.914.203-1.625.609-1.93.406-.406 1.117-.508 2.133-.508.406 0 .914 0 1.422.102.508 0 1.016.102 1.422.203.102-.203.102-.406.102-.609s.102-.406.102-.609c0-.406 0-.813-.102-1.117-.914-.203-1.93-.305-3.047-.305-1.016 0-1.828.102-2.539.305-.711-.102-1.32.203-1.727.609s-.813 1.016-1.016 1.625c-.203.711-.305 1.524-.305 2.438v6.703h8.43c.102-.305.102-.813.102-1.32s0-.914-.102-1.32h-5.485v-1.93h4.571c0-.203.102-.406.102-.609v-.609-.609c0-.203-.102-.406-.102-.609h-4.571"/></g><g fill="#7c002f"><path d="M951.219 106.32c.305 0 .508-.102.813-.102h.813c.914 0 1.524.102 1.93.406s.609.711.609 1.117c0 .508-.203.813-.508 1.117-.406.305-1.016.406-1.93.406h-1.727v-2.945zm1.422 5.078c.813 0 1.32.102 1.625.406.305.203.508.609.508 1.016 0 .508-.203.813-.508 1.016-.406.203-.914.406-1.625.406h-.711c-.203 0-.406-.102-.711-.102v-2.742h1.422zm-4.367 4.672c.305 0 .711.102 1.016.102.406 0 .711.102 1.117.102s.711 0 1.117.102h.914c1.727 0 3.047-.203 4.063-.711.914-.508 1.422-1.32 1.422-2.336 0-.305-.102-.609-.203-.914s-.203-.609-.406-.813-.305-.406-.508-.609c-.305-.102-.508-.305-.711-.406l.914-.305c.305-.102.508-.305.813-.508.102-.305.305-.508.508-.914a3.64 3.64 0 0 0 .203-1.117c0-.711-.102-1.219-.406-1.727-.406-.406-.711-.813-1.219-1.117s-1.117-.508-1.828-.609-1.422-.203-2.234-.203h-1.117c-.406 0-.813 0-1.219.102-.406 0-.813 0-1.219.102-.406 0-.711 0-1.016.102v11.68m19.122.004c.406.102 1.016.102 1.524.102s1.117 0 1.524-.102v-11.274c-.609-.203-1.219-.406-2.031-.508l-2.438-.203c-.813 0-1.625.102-2.234.305-.711.203-1.219.508-1.727.914s-.813.914-1.117 1.625c-.203.609-.406 1.422-.406 2.336v6.805c.406.102 1.016.102 1.524.102s1.117 0 1.524-.102v-6.602c0-1.016.203-1.828.609-2.234s.914-.609 1.727-.609c.305 0 .609 0 .813.102.305 0 .508.102.711.203v9.141"/><use xlink:href="#C"/><path d="M986.842 106.933c0-.203.102-.406.102-.609v-.609-.609c0-.305-.102-.508-.102-.711h-8.125v11.68c.406.102 1.016.102 1.524.102s1.117 0 1.524-.102v-9.141h5.078"/></g><path d="M989.584 122.371c0-.203.102-.406.102-.609v-.609-.609c0-.203-.102-.406-.102-.609h-8.125v11.782c.406.102 1.016.102 1.524.102s1.117 0 1.524-.102v-9.141h5.078" fill="#d20626"/><g fill="#7c002f"><path d="M991.856 106.706c.203 0 .508-.102.609-.102h.711c.914 0 1.727.305 2.234.813s.711 1.524.711 2.742-.305 2.133-.711 2.742c-.508.609-1.219.914-2.234.914h-.711c-.102 0-.406-.102-.609-.102v-7.008zm-3.047 9.344c.305 0 .609.102.914.102s.711.102 1.117.102.711 0 1.016.102h.914c1.117 0 2.133-.203 2.945-.508s1.524-.711 2.031-1.219.914-1.219 1.219-1.93c.203-.711.406-1.625.406-2.438 0-.914-.102-1.727-.406-2.438-.305-.813-.711-1.524-1.219-2.031a5.87 5.87 0 0 0-2.031-1.32c-.813-.203-1.828-.406-2.945-.406h-.914c-.305 0-.711 0-1.016.102-.406 0-.711 0-1.117.102-.305 0-.609.102-.914.102v11.68"/><use xlink:href="#C" x="28.34"/><path d="M1017.586 104.346c-.406-.102-.914-.102-1.422-.102s-1.016 0-1.422.102c-.305.711-.711 1.422-1.117 2.133l-1.117 2.133-1.32 1.828c-.406.609-.711 1.117-1.117 1.524v-7.618c-.406-.102-.914-.102-1.524-.102s-1.016 0-1.422.102v11.782c.203 0 .406.102.609.102h.813.813c.203 0 .406-.102.609-.102l1.32-1.625 1.219-1.727 1.219-1.828c.406-.609.711-1.117.914-1.625v6.703c.406.102.914.102 1.422.102.609 0 1.117 0 1.524-.102v-11.68m9.257 5.968c.203 0 .406.102.711.102h.711.711c.305 0 .609-.102.813-.102v-5.688c-.508-.102-1.016-.305-1.727-.406s-1.422-.203-2.336-.203c-1.016 0-1.93.102-2.742.406-.711.406-1.32.813-1.93 1.422-.508.508-.914 1.219-1.117 1.93s-.305 1.524-.305 2.438.102 1.727.406 2.438c.203.711.609 1.422 1.117 1.93s1.117 1.016 1.93 1.32c.711.305 1.625.406 2.641.406.609 0 1.219 0 1.828-.102s1.117-.203 1.625-.508l-.305-1.32c-.102-.508-.203-.813-.406-1.117-.305.102-.711.203-1.117.305s-.813.203-1.32.203-.914-.102-1.32-.203-.711-.305-1.016-.609-.508-.609-.711-1.117c-.203-.406-.203-1.016-.203-1.625a7.07 7.07 0 0 1 .203-1.625c.102-.406.406-.813.609-1.117s.609-.508 1.016-.609.813-.203 1.32-.203h.508c.203 0 .305 0 .406.102v3.555m12.139-.911c-.813.305-1.524.609-1.93 1.219-.508.508-.711 1.219-.711 2.031 0 .609.102 1.117.305 1.524.203.508.508.813 1.016 1.219.406.305.914.609 1.524.711.609.203 1.219.305 1.93.305h.914c.305 0 .609-.102 1.016-.102.305 0 .609-.102.914-.203s.508-.102.711-.203l-.305-1.422c-.102-.508-.305-.813-.406-1.117-.508.102-1.016.305-1.524.406-.609.102-1.016.102-1.422.102-.508 0-.914-.102-1.219-.305-.305-.102-.406-.305-.406-.711 0-.305.102-.508.406-.711.203-.203.508-.305.813-.406l1.524-.406c.914-.305 1.625-.711 2.133-1.219s.711-1.219.711-2.133c0-1.219-.508-2.234-1.422-2.844-.914-.711-2.234-1.016-3.86-1.016-.711 0-1.32.102-2.031.203a4.21 4.21 0 0 0-1.625.305l.305 1.422c.102.508.305.813.406 1.117.203-.203.406-.203.609-.305s.508-.102.711-.203c.305 0 .609-.102.914-.102s.508-.102.813-.102c.609 0 1.117.102 1.524.305s.609.508.609.914c0 .305-.102.609-.406.813a3.39 3.39 0 0 1-1.219.508l-1.32.406m10.844.817c0-1.219.203-2.133.609-2.742s1.117-1.016 1.93-1.016 1.524.305 1.93 1.016c.508.609.711 1.524.711 2.742s-.203 2.133-.609 2.742c-.508.609-1.117.914-2.031.914-.813 0-1.524-.305-1.93-.914s-.609-1.524-.609-2.742zm2.539-6.196c-.914 0-1.828.102-2.539.406s-1.32.711-1.828 1.32c-.508.508-.813 1.219-1.117 1.93l-.203 2.539c0 .914.102 1.727.406 2.438.203.711.609 1.422 1.117 1.93s1.117 1.016 1.828 1.32 1.422.406 2.336.406c1.016 0 1.828-.102 2.539-.406s1.32-.711 1.828-1.32c.508-.508.813-1.219 1.117-1.93.203-.711.305-1.524.305-2.438s-.102-1.727-.406-2.438c-.203-.813-.609-1.422-1.016-2.031-.508-.508-1.117-.914-1.828-1.219a6.27 6.27 0 0 0-2.539-.508m16.044 3.133c.102-.305.305-.609.406-1.117l.305-1.32c-.406-.203-.914-.305-1.422-.508-.508-.102-1.219-.102-1.93-.102-1.016 0-1.828.102-2.539.406-.813.305-1.422.711-1.93 1.32-.508.508-.914 1.219-1.117 1.93s-.406 1.524-.406 2.438.102 1.727.406 2.438c.203.813.609 1.422 1.117 2.031.508.508 1.117 1.016 1.828 1.32.711.203 1.625.305 2.641.305.711 0 1.422 0 1.93-.102s1.016-.305 1.422-.406l-.305-1.422c-.102-.508-.305-.813-.406-1.117-.305.102-.711.203-1.117.305s-.813.102-1.32.102c-.406 0-.813-.102-1.219-.203-.406 0-.711-.203-.914-.508-.305-.305-.508-.609-.711-1.117-.203-.406-.203-1.016-.203-1.625a7.07 7.07 0 0 1 .203-1.625c.102-.406.406-.813.609-1.117.305-.305.609-.406 1.016-.609s.813-.203 1.219-.203c.508 0 1.016 0 1.32.102.406.203.813.305 1.117.406"/></g><path d="M956.892 122.597c.102-.305.305-.609.406-1.117l.305-1.422c-.406-.203-.914-.305-1.422-.406s-1.219-.203-1.93-.203c-1.016 0-1.828.102-2.539.406s-1.32.711-1.828 1.32c-.508.508-.914 1.219-1.117 1.93s-.406 1.524-.406 2.438.102 1.727.406 2.438c.203.711.609 1.422 1.117 1.93s1.117 1.016 1.828 1.32 1.625.406 2.539.406c.813 0 1.422-.102 1.93-.203s1.016-.305 1.422-.406l-.305-1.422c-.102-.508-.305-.813-.406-1.117-.305.102-.711.203-1.117.305s-.813.102-1.32.102c-.406 0-.813-.102-1.219-.203s-.711-.305-.914-.609c-.305-.305-.508-.609-.609-1.117-.203-.406-.203-1.016-.203-1.625a7.07 7.07 0 0 1 .203-1.625l.609-1.117c.305-.305.609-.508.914-.609.406-.102.813-.203 1.219-.203.508 0 1.016 0 1.32.102.406.508.711.609 1.117.711" fill="#d20626"/><g fill="#7c002f"><use xlink:href="#C" x="98.292"/><path d="M1079.621 109.111c0-.914.203-1.625.609-1.93.406-.406 1.219-.609 2.234-.609.406 0 .914 0 1.422.102.508 0 1.016.102 1.422.203.102-.203.102-.406.102-.609s.102-.406.102-.609c0-.406 0-.813-.102-1.117-1.016-.305-2.031-.508-3.149-.508-1.016 0-1.828.102-2.539.305s-1.32.508-1.727.914-.813 1.016-1.016 1.625c-.203.711-.305 1.524-.305 2.438v6.703h8.43c.102-.305.102-.813.102-1.32s0-.914-.102-1.32h-5.485v-1.93h4.571c0-.203.102-.406.102-.609v-.609-.609c0-.203-.102-.406-.102-.609h-4.571m7.262 7.064h10.055c0-.203.102-.406.102-.609v-.609-.609c0-.203-.102-.406-.102-.609h-3.453V104.5c-.406-.102-1.016-.102-1.524-.102s-1.117 0-1.524.102v9.141h-3.555c0 .203-.102.406-.102.609v.609.609c0 .203.102.406.102.609m17.222-11.731c-.203 0-.508-.102-.813-.102h-.813-.813c-.305 0-.609.102-.813.102l1.93 3.758-4.367 7.922c.203 0 .508.102.813.102h.914.914c.305 0 .609-.102.813-.102l2.234-4.875 2.234 4.875c.203 0 .508.102.813.102h.813.813c.305 0 .609-.102.813-.102l-5.485-11.68"/></g><path d="M1021.6 129c-.2.7-.6 1.2-1.1 1.6s-1 .7-1.7.9-1.4.3-2.3.3-1.7-.1-2.5-.2l-2-.5v-11.2c.5-.1 1-.1 1.5-.1s1.1 0 1.5.1v2.7h3.8v-2.7c.5-.1 1-.1 1.5-.1s1.1 0 1.5.1v6.9c.2.7 0 1.5-.2 2.2zm-6.5-4.4v4.3c.2.1.4.1.6.2.2 0 .5.1.9.1.8 0 1.3-.2 1.7-.6s.6-1.2.6-2.2v-1.7h-3.8z" fill="#d20626"/></g></svg>