<svg xmlns="http://www.w3.org/2000/svg" viewBox="0 0 127.5 129.5" xmlns:v="https://vecta.io/nano"><g fill="#007654"><path d="M64 1.9C29.5 1.9 1.6 29.8 1.6 64.2c0 34.5 27.9 62.4 62.4 62.4s62.4-27.9 62.4-62.4c0-34.4-27.9-62.3-62.4-62.3zm0 122.9c-33.4 0-60.5-27.1-60.5-60.5C3.5 30.8 30.6 3.7 64 3.7s60.5 27.1 60.5 60.5c0 33.5-27.1 60.6-60.5 60.6zM64 5.7C31.7 5.7 5.4 31.9 5.4 64.2s26.2 58.6 58.6 58.6c32.3 0 58.6-26.2 58.6-58.6 0-32.3-26.3-58.5-58.6-58.5zm29.5 15.1c2.9-.1 5.5 1 7.1 3.1.9 1.1 1.4 2.4 1.8 3.7-1.1.6-1.9 1.2-2.9 1.7-.3-1.6-1.1-3.2-2.7-4-.7-.4-1.8-.5-2.7-.2a5.17 5.17 0 0 0-2.9 2.9c-.4 1.2 0 2.5.8 3.4 1 1.1 2.3 1.7 3.8 1.8-.7 1.1-1 1.8-1.7 2.7-2.5-.4-4.8-1.7-6.2-4-1.2-2-1.3-4.9-.2-7 1.2-2.3 3.4-3.8 5.8-4.1zm-17.6-9.6l4.7 1.5c-1 3-2.4 6-3.1 9.1a1.63 1.63 0 0 0 1.3 1.8c.6.3 1.5.4 2 0 2-2.8 3-6.3 4.2-9.5 1.6.6 2.8 1.4 4.4 1.9-1.7 3.5-2.7 7.6-4.9 10.5-1.6 1.4-4.3 1.1-6.2.6-2.3-.8-4.7-2.3-5.4-4.8-.7-1.6 1.7-7.5 3-11.1zm-6.3-.4c1 .9 1.3 2.1 1.2 3.3-.3.9-.8 1.8-1.6 2.4 1 .7 2 1.5 2.1 2.8.3 1.3-.1 2.5-.8 3.4-1.5 1.7-4 1.3-6.2 1.4l-5.9.2v-.5l-.6-13.4v-.3c3.8 0 8.3-1 11.8.7zm-16.8 2.9c.9 1 1 2.4 1.1 3.7-.2.8-.4 1.7-1 2.4 1.2 1.5 3.4 3.2 5 4.6l-.2.1-4.6 1c-1.6-1.3-2.5-2.2-4-3.2-.6.1-1 .4-1.6.7l1.6 3.6-4.3 2.3-5.5-13.3c4.1-1.7 9.9-5.6 13.5-1.9zm-21.5 7.1l.4.3c4.2 2.6 8.5 5.6 12.8 8l-.5.3-3.3 2.2c-1.2-.7-2-1.1-2.9-1.5l-3.7 3.1 1.3 3-3.4 3.7-.3-.6-5.9-13.9 5.5-4.6zm-9.8 9.4l3.1 1.8c-.7 1.4-1.6 2.3-2.2 3.7l8.7 5.7c-.5 1.3-1.4 2.6-2.3 3.8l-8.9-5.6c-.8 1.1-1.4 2.1-2.2 3.5-1.2-.8-2-1.3-2.9-2l6.7-10.9zm-1.2 46.6c.3 1.2.6 2.7 1.1 4.3l-3.5-2.4c-1.5.7-2.4 1.5-3.9 2.3l1.2-4.2c-1.2-.9-2.5-1.8-3.5-2.8h4.5c.7-1.3 1-2.9 1.7-4.2l1.4 4c1.5 0 3 .1 4.6 0l-3.6 3zm5-22.2c-.7 1.6-1.8 3.2-3.3 4.3l-2.7-1.7c1.5-1 3.1-2.7 3.3-4.6 0-.7-.2-1.6-1-1.7-1.7.5-1.9 2.6-3.1 3.8-.9.9-2.1 1.6-3.5 1.4-1.3-.1-2.5-.9-3.3-2-1.5-2.3-.8-5.6.2-7.4.6-1 1.2-2 2.1-2.7.8.4 1.6 1.1 2.4 1.7-1.6 1.2-2.7 3-2.4 5 .2.3.4.8.8.8 1.3 0 1.7-1.4 2.3-2.2.7-1.5 2-3.2 3.8-3.3 1.5-.1 2.9.3 3.9 1.5 1.5 2 1.2 5 .5 7.1zm38.6 45.5C44 100.1 27.8 84 27.8 64c0-19.9 16.1-36.1 36.1-36.1C83.8 27.9 100 44 100 64c-.1 19.9-16.2 36.1-36.1 36.1zM98.4 44c1-2 2.2-4 3.2-6-1.7 1-3.1 2.4-4.8 3.4l-2.6-3.5c3.5-3 7.4-5.8 11.1-8.5l.3-.1 2.7 3.6c-1.2 1.2-2.7 2.2-4 3.3 2 .4 4.2.4 6.2.7.9 1.3 1.4 2.6 2.3 4.2l-7.5-.5c-1.6 2.6-3.1 5.2-4.6 7.9-.8-1.4-1.4-3.1-2.3-4.5zm15.1 37.2l-3.5-2.4c-1.5.7-2.4 1.5-3.9 2.3l1.2-4.2c-1.2-.9-2.4-1.8-3.5-2.8h4.5c.6-1.4 1.1-2.7 1.7-4.2l1.4 4h4.6l-3.5 3c.3 1.2.6 2.6 1 4.3zm.6-26c.4-1.7.7-3.8-.5-5.2-.4-.4-1-.7-1.4-.5-1.5 1.7.1 4.2-.8 6.2-.5.9-1.1 2-2.1 2.4-1.6.6-3.6.3-4.8-.9-2.4-2.5-3.5-6.3-2-9.6h3c-.5 1.3-.9 3.1-.4 4.6.3.6.6 1.4 1.3 1.7 2.4.1.8-3.4 1.4-5 .2-1.2.9-2.5 2.1-3 2.3-1.1 4.9.2 6 2.1a9.72 9.72 0 0 1 1.1 7.5l-2.9-.3z"/><path d="M65.7 14.8c.2-.4.3-1.2-.1-1.6-.6-.7-2.1-.3-3-.4-.1.9.3 1.7.2 2.6 1 .1 2.2.1 2.9-.6zm-17.1 3.9c.5-.4.5-1.4.3-2-.9-2-2.9-.2-4.1.2l1.3 2.9 2.5-1.1zm14.4-.6c-.1.8 0 2 .1 2.9.9 0 1.5.1 2.3-.1.9-.2 1.3-1.1 1.1-2-.6-1.2-2.4-.6-3.5-.8zM34.8 28.2l-4.1-2.5 1.8 4.3c.9-.6 1.6-1.2 2.3-1.8z"/></g><path d="M81.7 35.6c-9-6.4-23.7-6.8-33.3-1.4-10.7 5.5-17.2 16.5-18 28l.3.6c4 2.2 6.6-2.6 10.6-2.1.9.4-.2 1.1-.2 1.7-.3.8-1.4.4-2.1.6-2.7 1.2-5.4 3.4-8.6 2.2v.6a71.44 71.44 0 0 1 .2 2.4c3.5 1.1 5.8-2.6 9.1-2.1-.1.7-.1 1.5-.5 2.1-3 .2-4.9 3-8.1 2.8l.6 2.4c2.8.3 4.5-2.6 7.3-2.3V73c-2.4.2-4 2.5-6.5 2.7.3 5.6 4.2-.9 6.7.2.1.6.5 1.2.2 1.8-2 0-3.2 1.7-4.9 2.3.3.7.5 1.7 1.3 2 1.5-.6 2.7-1.9 4.4-1.8-.2-.7-.4-1.5-.3-2.1 2.2.6 3.5-1.1 5-2.1.4-3.1 2.5-5.5 3.9-8.2.1-.6.2-1.2.2-1.8-.1-3.3-2.1-6.5-.5-9.9.5-1.3 1.3-3.1 2.7-3.5-2.6 3.1-2.1 7.9-.8 11.4.3.7.4 1.4.4 2-.1 2.8-2.7 4.9-3.7 7.4-1.2 2.5-.1 5.4 1.3 7.5-2 1.5-3.9 3.5-6.5 3.6-.7-.4-.8-1.4-1.1-2.1-1.5-.3-2.8.8-4 1.5l1.4 1.8c1.1-.5 2.3-1.6 3.5-.8 1.8 2.1-1.7 1.1-2.2 2.4.5.7 1.1 1.2 1.7 1.8.7-.2 1.3-.8 2.2-.7.4.4.8.9.9 1.4l-1.3.6c1 1 2.2 2 3.4 2.4.7-2.4 2.6-4.2 3.5-6.5.2-.9.2-2 .5-2.7 2.6 4-2.8 6.3-2.8 10.1.6.5 1.2.8 1.9 1.1-.1-3 2.4-4.9 3.4-7.4 1.9-4-2.5-6.5-3.9-9.7-1.3-2.9.5-5.6 2.4-7.8 1.3-1.4 1.6-2.7 1.5-4.1-.3-3.1-2.8-6.1-1.7-9.5.6-2.1 1.5-4.7 3.7-5.6-1.6 1.8-2.4 4-2.6 6.5-.4 3.3 2.2 5.7 2.4 8.6 0 .6 0 1.2-.3 1.9-1.2 2.7-4.1 4.7-4 7.9-.3 4.2 5.2 5.8 4.6 10.1-.1 3.8-4.4 5.8-3.4 9.9l2.4.8c-1.3-4.6 3.4-7.1 3.4-11.2.2-3.4-3.5-5.2-4.4-8.2-1-2.9 1.2-5.3 2.8-7.5.8-1.3 1-2.5.9-3.6-.3-2.9-2.7-5.6-2.5-8.7-.1-2.9 1.2-5.7 3.7-7.1-.8 1.1-1.6 2.1-2.1 3.3-1.6 4.3 1.1 7.9 2.4 11.6.1.3.2.6.2.9.5 3.4-3 5.5-3.6 8.6-.9 3.8 3.1 5.5 4 8.6 1.9 5.1-4.3 8.1-2.8 13.2 0 1.5 1.7.9 2.7 1.2-2.3-4.2 1.4-7.7 2.5-11.3 1.2-3.9-2.5-6.1-4-9.1-1.6-3.4 2.1-5.5 2.9-8.4.7-2 2.4-.2 3.6-.4 1.5.3 2.9-1.2 4.2-.2.6 2.6 3.6 4.2 3.6 7-.1 4.4-6.4 6.6-4.4 11.4 1.6 3.3 4.5 7.1 2.6 11l2.4-.5c1.6-3.9-1.3-6.9-2.7-10.1-1.3-3.6 1.9-6.3 3.8-9.1 1.8-3.4-1.1-6.1-2.7-8.7-.6-1.1-.7-2.1-.5-3.1.3-2.1 1.7-4 2.4-6 1.4-3.3.6-7.5-2-10l.1-.1c1.3.8 2.5 2.1 3 3.4 2.2 4.5-1 8.4-1.7 12.6l-.1.5c-.1 2.9 2.3 4.3 3.5 6.7 2 3.8-1.5 6.5-3.4 9.4-3.1 5.3 4.3 8.5 2.8 13.8l2.3-.8c.6-2.9-1.6-5.2-3-7.5-2.3-4 1.1-7 3.1-9.9 1.7-3.7-1.3-6.8-3-9.7-.6-.8-.7-1.7-.7-2.5.1-1.7 1-3.3 1.7-4.8 1.3-3.6.4-7.9-1.9-10.5 1.5.6 2.7 2.4 3.2 3.9 1.8 3.8-.4 7.6-1.1 11.1v.3c0 3.4 3.2 5.3 4.1 8.3.9 3.1-1.6 5.3-3.1 7.6-4.5 4.7 2.5 8.2 2.4 12.8.7-.3 1.5-.4 1.9-1.1-.3-2.6-2.5-4.4-3.4-6.7 0-1.1-.3-2.5.5-3.3l.2.2c-.3 3.7 3 6 4 9.2 1.1-.7 2.3-1.3 3.3-2.4-.4-.4-.9-.6-1.4-.8-.3-.6.5-1.1.8-1.6l2.1.8c.6-.6 1.3-1.1 1.7-1.8-.8-.5-1.6-.9-2.5-1.1 0-.6.3-1 .7-1.4 1.3 0 2.3.6 3.3 1.1.6-.5 1.2-1.2 1.4-1.9l-2.7-1.4c-1.9-1.2-1.4 1.4-2.3 2-2.6-.1-4.4-1.9-6.3-3.5.2-1.2 1.1-2.1 1.4-3.2 1.1-3.7-1.9-6.5-3.5-9.5-.4-.7-.6-1.4-.6-2.2 0-2 1.2-4 1.3-6.1.6-2.7-.6-5.3-1.7-7.5.7.4 1.5 1 1.9 1.7 1.4 2.8 1.8 6.7.5 9.7-.3.8-.4 1.5-.4 2.2.2 3.5 4.1 6 4.2 9.7 1.5 1.1 2.9 3 4.9 2.4.2.7-.3 1.5-.2 2.2 1.8-.1 3 1.3 4.6 1.7.4-.7 1-1.3 1-2.1-1.8-.5-3.1-2.3-5.1-2.4l.4-1.7c2.1-.1 3.7 1.7 5.6 2.2.7-.5.9-1.4 1.1-2.3-2.4-.4-4.2-2.4-6.6-2.8 0-.6-.1-1.3.2-1.8 2.3 0 3.8 1.9 5.9 2.4 2 1 1.4-1.4 1.8-2.4-3.2.1-5.2-2.9-8.3-3l-.3-1.9c3.4-.6 5.7 3.1 9.1 2.1.3-.9.3-1.6.2-2.5v-.6c-3.9 1.5-6.5-2.4-10.3-2.4-.5-.6-.6-1.2-.8-1.9 4.2-1.4 7 4.7 11.2 1.6-.3-5.1-1.4-10-3.8-14.3-2.5-4.8-7.1-9.6-11.9-12.6zm-34.6 18c-1.3 1.3-2.9 2.8-3.8 4.4-3.2-.6-5.7 1.2-8.4 2.3-1 .2-2.4.3-3.2-.4 2.5-4.1 6.1-7.9 5.2-13.4.3-.5.8-.1 1.1.1 2 1.5 2.9 3.6 3.1 5.9 2.5-.9 5.8-2.6 8.4-.8-.5.8-1.6 1.3-2.4 1.9zm11 .8c1.2-.3 2.5.1 3.1 1v.3c-.9-.1-2.3-.9-3 .2-.5.2-.6-.4-.5-.7-.2-.4.1-.7.4-.8zm12.2-1.2c-1.5-.5-3.2-.2-4.6.4-1.3 1-1.1 2.9-.8 4.3l.4.3c.6-.2.7-1 1.2-1.1.9.2 2.2.6 3.1 0 .8 0 .8 1.1.8 1.7-.5 2.7-1.6 5.6-4.1 7.1-.2.1-.5.3-.7.4-1.2.6-2.8.2-4-.2-.1-.1-.2-.1-.3-.2-2.8-1.8-4.3-5.1-4-8.2.2-.5.6-.9 1.1-.5 1.2.8 2.5-.6 3.6.4 1.3-.6.5-2.2.5-3.4-1.1-1.4-2.9-1.2-4.5-1.1-.7-.4.1-1.1.2-1.6 1.7-2.4 5-2.5 7.9-2.1 1.5.4 3.1 1 3.8 2.6.2.3.6.7.4 1.2zm0 1.8c0 .3.1.7-.3.8-1-.4-2.3-.9-3.3-.2-.6-1.2 1-.9 1.5-1.3.8.1 1.7.1 2.1.7zm6.3-4.3c-2.6-1-5.2-2.1-8.1-2.6-6.1-1-12 .3-17 2.7-.4-2.6-1.7-4.8-3.2-6.9.9-.3 2 .2 3 .5.8.2 1.4.8 2.3.9.2-1.5-.7-3-1.4-4.4.4-.3 1.1-.1 1.6.1 2 .8 3.8 2 5.6 3 .9-1.1 1.3-2.7 1.7-4.1L58 37.1v-.3l4.1-.2c.7-1.3 1.1-2.7 1.8-4 .8 1.1 1.1 2.6 1.8 3.9l4.1.2-.1.4-3 2.9c.5 1.3 1.1 2.6 1.6 3.9 2.3-1.3 4.5-3 7.3-3.2-.3 1.5-1.4 3-1.2 4.5 1.7-.5 3.3-1.5 5.2-1.4-1.2 2-2.9 4.2-3 6.9zm14.1-4.3c.3.1.6.4.5.8-1 5.2 2.6 8.8 4.9 12.8-2.7 1.8-5.3-1-7.9-1.7-1.1-.2-2.5-.3-3.6-.2-1.6-2.4-3.7-4.7-6.2-6.1.2-.8 1.3-.9 2.1-1 2.3-.2 4.2.7 6.1 1.7.4-.8.5-1.8.8-2.7.6-1.4 1.8-2.9 3.3-3.6z"/><path d="M60.8 44.4c-.4.3 0 .6.2.8 1.8 0 3.8-.3 5.7-.1l.4-.4c-1-.9-2.2-1.8-3.4-2.5l-2.9 2.2zm1.7 15.4c.1.2-.1.5.2.6.8-.2 2.3.4 2.7-.5-.6-.7-2.1-.6-2.9-.1zm-1.4 2.1l.1.5c1 .7 1.3 1.8 2.7 1.7 1.2.1 2.1-1.1 2.7-2-1.6-.3-3.6 0-5.5-.2z"/><path d="M105.2 116.7c2 0 3.7 1.5 3.7 3.6s-1.7 3.7-3.7 3.7-3.7-1.5-3.7-3.7c0-2.1 1.7-3.6 3.7-3.6zm0 .6c-1.7 0-3 1.3-3 3 0 1.8 1.3 3.1 3 3.1s3-1.3 3-3.1c-.1-1.7-1.4-3-3-3zm-.8 5.1h-.6v-4.2h1.6c1 0 1.5.4 1.5 1.2s-.5 1.1-1.1 1.2l1.2 1.8h-.7l-1.1-1.8h-.7v1.8zm0-2.4h.8c.8 0 1-.2 1-.7 0-.4-.2-.6-.9-.6h-.9v1.3z" fill="#606161"/><path d="M37.2 93.9c.3.7.7 1.3.9 2.4-.8.5-1.8.9-2.8 1.4-.2-1.7-1.7-3.3-3.3-3.7-1.4-.3-2.9.3-3.9 1.5-.8 1-1.1 2.4-.8 3.7.7 1.7 2.5 3 4.3 3h.5c-.5 1.2-.8 1.8-1.4 2.7-3.1-.1-6.2-1.9-7.3-4.9-1-2.4-.6-5.5 1-7.5 1.9-2.4 4.9-3 7.8-2.4 2.1.5 3.9 2 5 3.8m59.1-1.6l.2.2-4.5 4.2 1.5 1.8 4.1-3.4c.7.6 1.3 1.3 2 2.1l-4 3.4c.5.6.9 1.4 1.7 2.1l4.9-4.1 2.1 2.2c-2.8 2.6-5.8 5.4-8.7 7.5L87 97.2c2.7-2.3 5-4.4 7.5-6.8.6.6 1.1 1.2 1.8 1.9M48 101.6c1.5 2 1.6 5 .6 7.3-1.1 2.3-3.1 3.8-5.4 4.3-2.7.4-5.3-.5-7.3-2.4-1.7-1.9-2.7-4.7-1.8-7.4.8-2.9 3.6-5 6.5-5.4 3-.1 5.8 1.3 7.4 3.6" fill="#fff"/><path d="M44.8 103.5c.9 2-.1 4-1.5 5.4-.9.7-2 1.2-3.2.7-.7-.4-1.6-1-1.8-1.8-.6-2 .4-3.9 1.8-5.3.9-.7 2.1-1.1 3.2-.6.5.2 1.3.9 1.5 1.6" fill="#007654"/><path d="M75 106.7l-6.2.9c.2 1 .1 1.7.3 2.4 1.9 0 3.6-.4 5.3-.6l.5 3.3-5.5.8.2 4.9c-1.5.2-3.1.4-4.7.3l-.9-13.9v-.3c3.4-.3 6.9-.8 10.2-1.3.3 1 .6 2.2.8 3.5m11.7-6.3l.1.2-5.6 2.8.9 2.2c1.7-.6 3.2-1.3 4.9-2.1.5.8.9 1.6 1.3 2.5-1.5.8-3.1 1.4-4.8 2.2l1 2.5 5.9-2.5 1.4 2.7c-3.4 1.8-7.1 3.5-10.5 4.7l-5.1-13.1c3.3-1.4 6.1-2.8 9.1-4.4l1.4 2.3m-24.6 7.9l-6.2-1c-.1 1-.4 1.6-.5 2.4 1.8.5 3.5.7 5.3 1l-.5 3.3c-1.8-.2-3.6-.5-5.4-.9l-1.3 4.7c-1.5-.2-3.1-.6-4.5-1.1l3.3-13.5.1-.3c3.4.7 6.8 1.4 10.1 1.9-.2.9-.3 2.2-.4 3.5" fill="#fff"/></svg>