<svg xmlns="http://www.w3.org/2000/svg" viewBox="0 0 260 58.2"><path d="M14.3 20.9c1.2 0 2.4-.3 3.5-.8 1.1-.6 2.1-1.4 2.9-2.4l4.2 4.1c-1.3 1.6-2.9 2.8-4.8 3.7s-4 1.4-6.1 1.4c-1.9 0-3.8-.3-5.5-1S5.3 24.3 4 23c-5.2-5.2-5.4-13.6-.3-18.8.1-.1.2-.2.4-.3 1.3-1.2 2.8-2.2 4.5-2.8 1.8-.7 3.6-1 5.5-1 1.1 0 2.2.1 3.2.4 1 .2 2.1.6 3 1 1 .4 1.9 1 2.7 1.6s1.5 1.3 2.1 2l-4.3 4.2c-.8-1.1-1.9-2-3.1-2.6-1.1-.6-2.4-.9-3.7-.9-1 0-2 .2-2.9.6-1.8.8-3.2 2.2-3.9 4-.4 1-.6 2-.6 3s.2 2.1.6 3 .9 1.7 1.6 2.4 1.5 1.2 2.4 1.6c1 .3 2 .5 3.1.5zm10.9 5.5L35.9.4h7.3l10.5 26.1h-6.9l-2.4-6.3H34.3l-2.4 6.3h-6.7zm11-11.3h6.3l-3.1-8.3-3.2 8.3zm19.5 11.3V.4h13.7a10.3 10.3 0 0 1 3.5.6c2.1.8 3.8 2.4 4.7 4.4.5 1.1.7 2.2.7 3.4 0 1.1-.2 2.2-.7 3.3-.4 1-1.1 1.9-1.9 2.6-.8.8-1.8 1.3-2.8 1.7-1.1.4-2.3.7-3.5.6h-7.3v9.3l-6.4.1zm13-20.5h-6.6v5.9h6.6c.8 0 1.6-.3 2.3-.8.6-.5.9-1.3.9-2.1s-.3-1.6-.9-2.2c-.7-.6-1.5-.9-2.3-.8h0zm12.8 20.5V.4h13.7a10.3 10.3 0 0 1 3.5.6c2.1.8 3.8 2.4 4.7 4.4.5 1.1.7 2.2.7 3.4 0 1.1-.2 2.2-.7 3.3-.4 1-1.1 1.9-1.9 2.6-.8.8-1.8 1.3-2.8 1.7-1.1.4-2.3.7-3.5.6h-7.3v9.3l-6.4.1zm13-20.5h-6.6v5.9h6.6c.8 0 1.6-.3 2.3-.8.6-.5.9-1.3.9-2.1s-.3-1.6-.9-2.2-1.4-.9-2.3-.8h0zm6.4 20.5L111.6.3h7.3l10.5 26.1h-6.9l-2.4-6.3H110l-2.4 6.3h-6.7zm11-11.3h6.3l-3.1-8.3-3.2 8.3zm19.4 11.3V.4h10.6c1.8 0 3.7.3 5.4 1 1.6.6 3.1 1.6 4.4 2.8 1.2 1.2 2.2 2.6 2.9 4.1.7 1.6 1.1 3.4 1.1 5.2 0 1.7-.4 3.5-1.1 5.1s-1.7 3-2.9 4.1a14.36 14.36 0 0 1-4.4 2.8c-1.7.7-3.6 1-5.4 1l-10.6-.1zm10.5-20.3h-4v14.7h4c1 0 2-.2 2.9-.6a6.81 6.81 0 0 0 3.9-3.9c.4-.9.6-1.9.6-2.9s-.2-2-.6-2.9-.9-1.7-1.6-2.4-1.4-1.2-2.3-1.6c-1-.3-2-.5-2.9-.4zm44.2 7.3c0 1.8-.4 3.6-1.1 5.3-.7 1.6-1.7 3.1-2.9 4.3-1.3 1.2-2.8 2.2-4.4 2.8a14.67 14.67 0 0 1-10.9 0c-1.6-.7-3.1-1.6-4.4-2.8s-2.3-2.7-2.9-4.3c-1.4-3.4-1.4-7.2 0-10.5.7-1.6 1.7-3.1 2.9-4.3 1.3-1.2 2.8-2.2 4.4-2.8a14.67 14.67 0 0 1 10.9 0c1.6.6 3.2 1.6 4.4 2.8 1.3 1.2 2.3 2.7 2.9 4.3.7 1.6 1.1 3.4 1.1 5.2zm-6.6 0c0-1-.2-2-.6-3-.7-1.8-2.1-3.2-3.9-4-.9-.4-1.9-.6-2.9-.6-2 0-3.9.8-5.2 2.2a6.08 6.08 0 0 0-1.5 2.4c-.7 1.9-.7 4.1 0 6 1.1 2.8 3.8 4.5 6.8 4.5s5.7-1.8 6.8-4.6c.3-.8.5-1.9.5-2.9zm23.3 7.5c1.2 0 2.4-.3 3.5-.8 1.1-.6 2.1-1.4 2.9-2.4l4.2 4.1c-1.3 1.6-2.9 2.8-4.8 3.7s-4 1.4-6.1 1.4c-1.9 0-3.8-.3-5.5-1-1.7-.6-3.2-1.6-4.4-2.8-5.3-5.1-5.4-13.5-.3-18.8l.3-.3c1.3-1.2 2.8-2.2 4.5-2.8 1.8-.7 3.6-1 5.5-1 1.1 0 2.2.1 3.2.4 1 .2 2 .6 3 1s1.9 1 2.7 1.6 1.5 1.3 2.1 2.1l-4.3 4.2c-.8-1.1-1.9-2-3.1-2.6-1.1-.6-2.4-.9-3.7-.9-1 0-2 .2-2.9.6-1.8.8-3.2 2.2-3.9 4-.4 1-.6 2-.6 3s.2 2.1.6 3 .9 1.7 1.6 2.4 1.5 1.2 2.4 1.6c1 .2 2 .3 3.1.3zm13.4 5.5V.4h6.4v26.1h-6.4zm8.2 0L235 .3h7.3l10.5 26.1h-7l-2.4-6.3h-10.2l-2.4 6.3h-6.5zm11-11.3h6.3l-3.1-8.3-3.2 8.3z" fill="#b78b6a"/><path d="M147 43.3c0 1.3-.2 2.6-.7 3.8-.4 1.1-1.1 2.1-1.9 3s-1.8 1.5-2.9 2c-1.2.5-2.4.7-3.7.7s-2.6-.2-3.8-.7-2.2-1.1-3.1-2-1.6-1.9-2.1-3a9.5 9.5 0 0 1 0-7.4c.5-1.1 1.2-2.1 2.1-3 1.9-1.8 4.3-2.7 6.9-2.7 1.5 0 3 .3 4.4 1 1.3.6 2.5 1.5 3.4 2.6l-3.2 2.8c-.6-.7-1.3-1.3-2.1-1.7a5.42 5.42 0 0 0-2.5-.6c-.7 0-1.4.1-2 .4s-1.1.6-1.6 1.1-.8 1.1-1.1 1.7c-.3.7-.4 1.4-.4 2.1 0 1.4.5 2.8 1.5 3.9.5.5 1 .9 1.7 1.1.7.3 1.4.4 2.1.4 1 0 1.9-.3 2.8-.8.8-.5 1.3-1.2 1.6-2.1h-4.9V42h9.8l-.3 1.3zm1.5 2.3a6.71 6.71 0 0 1 .6-2.8c.4-.9.9-1.6 1.6-2.3 3-2.8 7.6-2.8 10.6 0 .7.6 1.2 1.4 1.6 2.3a6.83 6.83 0 0 1 0 5.6c-.4.9-.9 1.6-1.6 2.3a6.08 6.08 0 0 1-2.4 1.5 8.55 8.55 0 0 1-5.9 0c-.9-.3-1.7-.9-2.4-1.5s-1.2-1.4-1.6-2.3c-.3-.9-.5-1.8-.5-2.8zm7.5 3.5c.9 0 1.8-.3 2.4-1 .7-.7 1-1.5 1-2.5 0-.9-.3-1.8-1-2.5-1.3-1.3-3.3-1.4-4.7-.1l-.1.1c-.7.7-1 1.6-1 2.5s.3 1.8 1 2.5c.6.7 1.5 1 2.4 1zm8.6-10.9v-4h16.5v4h-6v14.3h-4.5V38.2h-6zm21.3.5v7.9c-.1 1.3.9 2.4 2.2 2.5h.3c.5 0 1-.1 1.4-.3s.7-.5 1-.8v-9.3h4.3v13.8h-4.2v-.9c-.5.4-1.1.7-1.7.9s-1.3.3-2 .3c-1.5.1-2.9-.5-4-1.6-1-1.1-1.6-2.5-1.5-4v-8.5h4.2zm-.6-1.9c-.6 0-1.2-.2-1.6-.6a2.18 2.18 0 0 1 0-3c.4-.4 1-.6 1.6-.6s1.2.2 1.6.6.6.9.6 1.5-.2 1.1-.6 1.5-1 .6-1.6.6zm6.2 0c-.6 0-1.2-.2-1.6-.6a2.18 2.18 0 0 1 0-3c.4-.4 1-.6 1.6-.6s1.2.2 1.6.6.6.9.6 1.5-.2 1.1-.6 1.5c-.5.4-1 .6-1.6.6h0zm6.2 15.7V38.7h4.2V40c.4-.5 1-.9 1.6-1.3.6-.3 1.3-.4 2-.4.3 0 .7 0 1 .1.2 0 .4.1.6.3v3.7l-.9-.3c-.4 0-.7-.1-1.1 0-.6 0-1.3.2-1.8.5-.6.3-1 .7-1.4 1.3v8.8l-4.2-.2zm11.2 0V34.3l4.2-.9v11l5.5-5.6h4.7l-6.1 6.2 6.5 7.6h-5.3l-5.3-6.2v6.2l-4.2-.1zm17.7-15.1c-1.3 0-2.3-1.1-2.3-2.4s1.1-2.3 2.4-2.3c.6 0 1.1.2 1.6.6.9.9 1 2.4.1 3.3-.5.6-1.2.9-1.8.8zm2.1 1.3v13.8h-4.2V38.7h4.2zm6.5 14h0l-5.3-14h4.7l3.1 8.7 3.5-8.7h4.6l-6.2 14.5c-.5 1.5-1.5 2.8-2.7 3.8-1.2.8-2.6 1.2-4 1.1h-1c-.3 0-.5-.1-.8-.1v-3.6c.2 0 .4.1.6.1h.7c.6 0 1.2-.1 1.7-.4.6-.3.9-.8 1.1-1.4zm23.9-2c-.8.7-1.7 1.2-2.7 1.6-1 .3-2 .5-3.1.5-1 0-2-.2-2.9-.6-.9-.3-1.7-.9-2.4-1.5s-1.2-1.4-1.6-2.3a6.71 6.71 0 0 1-.6-2.8 6.71 6.71 0 0 1 .6-2.8c.4-.9.9-1.6 1.5-2.3.7-.6 1.4-1.1 2.3-1.5s1.9-.6 2.8-.5c1.9 0 3.7.7 5 2.1.6.7 1.1 1.5 1.4 2.4.4 1 .5 2 .5 3v1h-9.8c.3.6.7 1.2 1.3 1.6s1.3.6 2.1.6a4.53 4.53 0 0 0 1.6-.3c.4-.2.9-.4 1.2-.8l2.8 2.6zm-6.1-8.8c-.6 0-1.3.2-1.8.6s-.9 1-1.1 1.6h5.8c-.2-.6-.6-1.2-1.1-1.6s-1.2-.6-1.8-.6z" fill="#3c867b"/></svg>