<svg xmlns="http://www.w3.org/2000/svg" viewBox="0 0 308 67"><defs><linearGradient x1="0%" y1="100%" x2="38.469%" y2="100%" id="A"><stop stop-color="#f06c00" stop-opacity="0" offset="0%"/><stop stop-color="#f06c00" offset="100%"/></linearGradient></defs><g fill-rule="evenodd"><path d="M160.035 55.973c26.18 0 44.267-17.311 47.628-20.782a.983.983 0 0 1 1.387-.021.97.97 0 0 1 .023 1.38c-.843.873-2.65 2.653-5.271 4.809a78.248 78.248 0 0 1-10.333 7.175c-4.781 2.781-9.755 4.979-14.79 6.536-6.128 1.898-12.4 2.858-18.644 2.858-.171 0-.344 0-.517-.002l.517-1.953z" fill="#f06c00"/><path d="M28.45 43.426c-4.954 1.14-9.37 2.593-13.131 4.315-3.9 1.784-7.184 3.9-9.767 6.293-2.71 2.507-4.516 5.375-5.228 8.29-.198.823-.324 1.63-.324 2.411 0 .533.024 1.47 1 1.47s.963-1.056.963-1.538c0-.607.111-1.237.267-1.88.62-2.544 2.229-5.075 4.655-7.321 4.832-4.476 12.236-7.884 22.007-10.134 9.375-2.16 20.936-3.256 34.362-3.256 25.51 0 45.084 5.119 62.351 9.633 12.762 3.338 23.783 6.219 34.43 6.219h.29v-1.956l-.29.001c-10.393 0-21.3-2.852-33.931-6.155-8.336-2.178-17.786-4.65-28.143-6.518-11.868-2.14-23.222-3.179-34.707-3.179-13.576 0-25.286 1.112-34.804 3.305" fill="url(#A)"/><path d="M185.209 1.855h-2.259c-.519 0-.618.382-.618.668 0 .58 1.44 2.008 1.44 3.971 0 2.004-.767 2.724-.767 3.344 0 .238.234.425.578.425h1c2.246 0 4.784-8.408.626-8.408zm4.35 12.495c0-3.09 5.953-2.8 9.373-.472.294.19.665.378.907.378.482 0 .771-.187.771-.86v-1.562c0-.524-.144-1.005-.724-1.23-6.183-2.567-14.464-1.187-14.464 5.503 0 7.548 11.99 5.983 11.99 10.072 0 3.263-5.67 3.608-9.75.477-.287-.24-.574-.388-.91-.388-.47 0-.75.192-.75.857v1.85c0 .524.134.95.706 1.23 5.277 2.376 14.992 2.428 14.992-6.307 0-7.503-12.142-5.797-12.142-9.548zm10.336-3.742l.082.03c-.025-.01-.05-.02-.082-.03zm.156.06a1.15 1.15 0 0 0 .085.032c-.015-.005-.038-.015-.085-.031zM70.813 9.226c-2.625 0-5.397 1.278-6.823 2.137l-.099-1.092a.554.554 0 0 0-.576-.576H58.87c-.24 0-.475.244-.475.576v20.204c0 .335.235.576.475.576h4.583c.341 0 .581-.241.581-.576V14.179c.909-.534 2.817-1.484 4.439-1.484 3.159 0 3.352 1.913 3.352 3.533v14.246c0 .335.237.576.467.576h4.591a.556.556 0 0 0 .576-.576V15.75c0-3.863-2.06-6.526-6.647-6.526zm87.61.35c-.907-.238-1.484-.238-2.106-.238-2.646 0-4.79 2.184-5.698 3.51l-.096-2.559a.55.55 0 0 0-.57-.57h-4.432c-.239 0-.474.235-.474.57v20.127c0 .332.235.571.474.571h4.576c.326 0 .57-.24.57-.57V17.602c0-4.085 3.885-4.231 6.471-3.712.607.144 1.097.344 1.608.344.34 0 .626-.344.626-.665V10.57c0-.465-.33-.852-.949-.996zm0 0l.225.052-.225-.052zm-18.044.144h-4.56c-.24 0-.48.234-.48.57v13.813c0 3.089-.946 4.75-3.908 4.75-2.423 0-3.856-1.373-3.856-3.608V10.288a.55.55 0 0 0-.57-.57h-4.57c-.24 0-.479.235-.479.57v13.86c0 5.314 4.758 7.314 9.475 7.314 4.763 0 9.517-2 9.517-7.883V10.29a.551.551 0 0 0-.57-.57zM50.805 1.652c-2.094 0-3.095 1.236-3.095 2.66 0 1.713 1.23 2.856 3.095 2.856 1.851 0 2.998-1.143 2.998-2.856 0-1.424-1.004-2.66-2.998-2.66zm2.331 8.125h-4.57c-.24 0-.476.238-.476.562v20.135c0 .335.237.571.477.571h4.57c.329 0 .567-.236.567-.571V10.339a.547.547 0 0 0-.568-.562zm54.97 19.248c-1.38 0-2.095-.243-2.567-.523-.578-.387-.669-.804-.669-1.23V14.445c.71-.52 1.952-1.467 3.67-1.467 4.324 0 4.766 5.604 4.766 7.59 0 5.327-2.155 8.458-5.2 8.458zm3.008-19.562c-3.244 0-5.342 1.661-6.244 2.418V2.433a.55.55 0 0 0-.574-.567h-4.564c-.236 0-.47.237-.47.567v24.503c0 .762.145 1.66.858 2.183 1.664 1.276 4.176 2.465 7.609 2.465 6.285 0 11.379-4.834 11.379-12.155 0-5.69-3.088-9.966-7.994-9.966zM8.108 8.33c0-2.192 2.098-3.661 4.756-3.661 2.381 0 4.197.807 6.096 2.184.517.378.86.616 1.29.616.515 0 .658-.331.658-.762V3.95c0-.42-.09-.661-.519-.856-1.625-.616-4.475-1.228-7.612-1.228-6.337 0-9.762 3.893-9.762 8.305 0 9.596 14.843 7.605 14.843 14.102 0 3.943-5.703 6.697-12.32 2.094-.622-.422-.905-.667-1.334-.667-.805 0-.95.424-.95.86v2.415c0 .425.091.66.567.95 7.997 3.755 19.376 1.564 19.376-7.972 0-8.78-15.089-8.214-15.089-13.623zm30.274 18.043c0 .618-1.62 2.27-3.816 2.27-2.517 0-3.471-1.794-3.471-3.6 0-2.567 1.998-4.948 7.287-4.948v6.278zM35.235 9.185c-2.568 0-5.514.524-7.42 1.469-.524.284-.715.708-.715 1.147v2.134c0 .66.524.95.806.95.57 0 .997-.523 1.281-.716 1.769-1.187 3.529-1.998 5.86-1.998 2.906 0 3.335 1.9 3.335 4.231 0 1.096-.385 1.374-4.521 1.9-2.53.336-8.288 1.465-8.288 6.646 0 4.275 3.424 6.55 7.426 6.55 2.19 0 3.996-.95 5.519-2.275l.107 1.234c0 .332.234.565.47.565h4.331a.55.55 0 0 0 .573-.565V15.69c0-3.846-2.047-6.505-8.764-6.505zm59.811 1.485zM84.55 14.35c0-3.09 5.947-2.8 9.378-.472.279.19.668.378.908.378.47 0 .753-.187.753-.86v-1.562c0-.524-.138-1.005-.712-1.23-6.19-2.567-14.465-1.187-14.465 5.503 0 7.548 11.988 5.983 11.988 10.072 0 3.263-5.66 3.608-9.757.477-.284-.24-.571-.388-.899-.388-.475 0-.77.192-.77.857v1.85c0 .524.142.95.725 1.23 5.268 2.376 14.985 2.428 14.985-6.307 0-7.503-12.134-5.797-12.134-9.548zm95.668-4.631h-2.182c-.337 0-.577.19-.673.524l-4.714 12.817-.282.9-.287-.9-4.85-12.817c-.143-.38-.333-.524-.754-.524h-5.203c-.284 0-.43.144-.43.427 0 .142.05.28.245.757l8.666 19.985c-.1 3.515-3.435 4.713-7.19 3.663-.574-.148-.952-.287-1.476-.287-.329 0-.62.332-.62.66v2.705c0 .483.333.851.944.994.822.246 1.38.246 2.004.246 3.67 0 7.093-2.573 8.284-5.647l8.753-22.461c.099-.29.198-.43.198-.615a.433.433 0 0 0-.433-.427zm55.753 13.022c0-.844-.106-1.6-.317-2.264a3.405 3.405 0 0 0-1.092-1.632c-.697-.604-1.528-.996-2.497-1.177s-2.165-.271-3.589-.271h-4.314v10.917h4.224c1.482 0 2.695-.105 3.632-.318s1.711-.543 2.318-.997a3.56 3.56 0 0 0 1.27-1.743c.244-.709.365-1.548.365-2.515m-1.363-13c0-.726-.143-1.443-.43-2.153a3.643 3.643 0 0 0-1.387-1.699 4.831 4.831 0 0 0-1.861-.725c-.697-.119-1.62-.18-2.771-.18h-3.997v9.965h4.042c1.271 0 2.3-.09 3.089-.271s1.437-.514 1.953-.997c.908-.845 1.362-2.159 1.362-3.94m5.315 13.046c0 1.51-.244 2.785-.727 3.829a6.29 6.29 0 0 1-2.113 2.536c-.924.65-2.066 1.117-3.43 1.405s-2.905.429-4.633.429h-8.628V4.983h-2.499V2.31h10.629c1.514 0 2.831.099 3.951.295s2.12.596 2.998 1.2a5.561 5.561 0 0 1 2.089 2.38c.455.98.682 2.044.682 3.192 0 1.603-.303 2.916-.907 3.943s-1.517 1.827-2.727 2.4c1.605.424 2.891 1.186 3.86 2.288s1.455 2.695 1.455 4.779m16.76-3.036c-.425-.12-1.045-.24-1.863-.362a16.87 16.87 0 0 0-2.452-.18c-2.089 0-3.551.452-4.384 1.358s-1.25 2.054-1.25 3.442c0 1.632.455 2.856 1.364 3.67s2.013 1.223 3.315 1.223c1.817 0 3.18-.543 4.089-1.63.786-.997 1.18-2.402 1.18-4.213v-3.308zm5.904 10.782a3.72 3.72 0 0 1-1.044.454 5 5 0 0 1-1.364.181c-1.938 0-3.013-.846-3.224-2.538-.576.907-1.418 1.593-2.521 2.062a8.84 8.84 0 0 1-3.475.702c-2.272 0-4.117-.618-5.541-1.857s-2.135-3.02-2.135-5.345c0-2.236.719-4.032 2.158-5.392s3.626-2.039 6.563-2.039a18.62 18.62 0 0 1 2.633.181c.848.123 1.528.258 2.046.409v-1.18c0-.843-.084-1.545-.25-2.105a3.962 3.962 0 0 0-.795-1.472c-.395-.452-.949-.816-1.657-1.087s-1.569-.409-2.568-.409c-1.15 0-2.249.138-3.293.409a15.83 15.83 0 0 0-2.884 1.042l-.045-2.583c.787-.362 1.755-.68 2.907-.951a15.988 15.988 0 0 1 3.68-.408c1.543 0 2.891.188 4.04.567s2.075.958 2.772 1.743c1.06 1.178 1.589 2.915 1.589 5.21v10.646c0 .665.076 1.149.228 1.45s.469.453.953.453a2.49 2.49 0 0 0 1.363-.407l-.136 2.264zm6.722-18.845a6.802 6.802 0 0 1 2.724-2.288c1.12-.528 2.499-.792 4.134-.792 1.3 0 2.482.204 3.542.611s1.923.973 2.59 1.698a5.795 5.795 0 0 1 1.362 2.652c.211.98.317 2.09.317 3.328v14.089h-3.496v-13.68c0-1.117-.06-2.023-.182-2.719s-.44-1.313-.954-1.857c-.817-.906-2.09-1.359-3.815-1.359-1.878 0-3.302.56-4.269 1.677a5.038 5.038 0 0 0-1.068 2.106c-.197.8-.294 1.85-.294 3.149v12.683h-3.498V11.598h-2.544V9.015h4.314c.364 0 .6.045.705.135s.188.334.25.726l.182 1.812zm23.526 8.154a51.685 51.685 0 0 0 2.883-2.628 66.905 66.905 0 0 0 2.726-2.83 41.019 41.019 0 0 0 2.337-2.81 25.464 25.464 0 0 0 1.728-2.56h3.225c-.697 1.361-1.681 2.855-2.953 4.485a55.923 55.923 0 0 1-4.225 4.804l5.497 8.877c.332.514.641.893.93 1.134s.66.362 1.113.362a2.47 2.47 0 0 0 1.319-.362l-.093 2.265c-.243.15-.567.288-.975.407a4.41 4.41 0 0 1-1.25.182c-.878 0-1.612-.189-2.203-.567s-1.19-1.049-1.794-2.015l-4.95-7.973a23.87 23.87 0 0 1-1.658 1.427l-1.657 1.291v7.655h-3.498V2.58h-2.545V0h5.089c.362 0 .613.06.749.18s.205.35.205.681v18.981z" fill="#f06c00"/></g></svg>