<?xml version="1.0" encoding="utf-8"?>
<svg version="1.1" id="Layer_1" xmlns="http://www.w3.org/2000/svg" xmlns:xlink="http://www.w3.org/1999/xlink" x="0px" y="0px"
	width="100px" height="100px" viewBox="0 0 520.04 520.04" style="enable-background:new 0 0 520.04 520.04;" xml:space="preserve">
<g>
	<g>
		<path style="fill:#E8E8E8;" d="M260.02,0C403.6,0,520.04,116.44,520.04,260.02c0,143.58-116.44,260.02-260.02,260.02
			S0,403.6,0,260.02C0,116.44,116.44,0,260.02,0"/>
		<path style="fill:#FFFFFF;" d="M260.02,5.2c140.72,0,254.82,114.1,254.82,254.82s-114.1,254.82-254.82,254.82
			S5.2,400.74,5.2,260.02S119.3,5.2,260.02,5.2"/>
	</g>
	<g>
		<path style="fill:#FF0033;" d="M420.52,387.19c0,18.38-14.82,33.2-33.2,33.33H132.72c-18.38-0.14-33.2-14.95-33.2-33.33v-32.92
			c0,0.27,321,0,321,0V387.19z"/>
		<path style="fill:#004890;" d="M387.32,99.52H132.72c-18.38,0-33.2,14.95-33.2,33.33v221.41h321V132.85
			C420.52,114.47,405.71,99.52,387.32,99.52"/>
		<path style="fill:#FFFFFF;" d="M327.79,210.91v-65.57h-75.72v28.4h-25.65v11.8l-6.04-0.27c-43.49,0.14-78.74,35.39-78.74,78.88
			c0,25.52,14.27,49.38,38.27,64.06l3.84,2.33v52.27h144.04v-28.53h44.03v-99.32C371.82,254.95,333.69,216.67,327.79,210.91"/>
		<path style="fill:#004890;" d="M304.33,319.15h11.8v-23.32h-11.8V319.15z M253.99,359.07h-46.5v-34.84h46.37L253.99,359.07
			L253.99,359.07z M315.99,215.71v-58.58h-52.13v28.4h-25.79v13.99c-35.67-9.74-72.57,11.25-82.31,46.92
			c-1.51,5.76-2.33,11.66-2.33,17.7c0,22.77,13.86,42.53,32.65,54.05l41.84-66.12h58.3c-3.84-20.85-17.28-38.55-36.22-48.01v-6.58
			h25.79v-28.4h28.26v95.07h44.03v66.4h-44.03v28.53h-38.14v-35.26l38.14-59.67h-69.41l-39.1,61.46V371h120.44v-28.53h44.03v-82.58
			L315.99,215.71L315.99,215.71z"/>
	</g>
</g>
</svg>
