<?xml version="1.0" encoding="utf-8"?>
<svg version="1.1" id="Layer_1" xmlns="http://www.w3.org/2000/svg" xmlns:xlink="http://www.w3.org/1999/xlink" x="0px" y="0px"
	width="100px" height="100px" viewBox="0 0 54.4 54.4" style="enable-background:new 0 0 54.4 54.4;" xml:space="preserve">
<g>
	<path style="fill:#077C5C;" d="M27.2,0L27.2,0c15,0,27.2,12.2,27.2,27.2l0,0c0,15-12.2,27.2-27.2,27.2l0,0C12.2,54.4,0,42.2,0,27.2
		l0,0C0,12.2,12.2,0,27.2,0z"/>
	<path style="fill:#FAFDFD;" d="M6.8,22.4h2.8v3.7c0.3-0.4,0.6-0.7,1.1-0.9c0.8-0.3,1.8-0.1,2.4,0.6c0.6,0.7,0.8,1.6,0.8,2.4
		c0,0.9-0.1,1.8-0.5,2.6c-0.3,0.5-0.8,1-1.4,1.1c-0.6,0.1-1.3,0.1-1.8-0.2c-0.4-0.2-0.6-0.6-0.8-1c0,0.4,0,0.7,0,1.3H6.7L6.8,22.4
		L6.8,22.4L6.8,22.4L6.8,22.4L6.8,22.4z M22.4,23.8l2.8-0.9v2.5h1.3v1.8c-0.4,0-0.9,0-1.3,0v1.9c0,0.3,0.1,0.6,0.4,0.7
		c0.3,0.1,0.6,0,0.8-0.1v1.9c-0.8,0.2-1.6,0.4-2.4,0.3c-0.5-0.1-0.9-0.3-1.2-0.8c-0.3-0.5-0.4-1-0.4-1.6v-2.4c-0.4,0-0.7,0-1,0.1
		l0-1.8h1C22.4,24.8,22.4,24.3,22.4,23.8L22.4,23.8L22.4,23.8L22.4,23.8L22.4,23.8L22.4,23.8z"/>
	<path style="fill:#F9DC18;" d="M27.2,23.2c0.9-0.2,1.9-0.3,2.9-0.3c0.9,0,1.8,0.3,2.5,0.9c0.9,0.8,0.9,2.4,0,3.1
		c-0.2,0.2-0.5,0.3-0.8,0.4c0.4,0.2,0.9,0.4,1.2,0.7c0.5,0.5,0.6,1.3,0.4,2c-0.2,0.6-0.6,1.1-1.2,1.4c-1,0.6-2.2,0.5-3.4,0.4
		c-0.5-0.1-1-0.2-1.6-0.3c0-0.7,0-1.4,0-2.1c0.9,0.3,1.8,0.5,2.8,0.3c0.6-0.2,0.6-1.1,0-1.4c-0.6-0.3-1.1-0.2-1.9-0.1v-1.9
		c0.6,0,1,0.1,1.5,0c0.3-0.1,0.6-0.2,0.7-0.5c0-0.2,0-0.5-0.1-0.7c-0.2-0.2-0.5-0.3-0.8-0.3c-0.7,0-1.4,0.1-2.1,0.3
		C27.2,24.5,27.2,24,27.2,23.2L27.2,23.2C27.2,23.2,27.2,23.2,27.2,23.2z M34.8,24.3c0.7-0.8,1.7-1.3,2.7-1.4c1,0,2,0,2.9,0.2v2
		c-0.8-0.2-1.6-0.4-2.4-0.3c-0.5,0.1-1,0.3-1.2,0.8c-0.2,0.3-0.2,0.6-0.2,1c0.6-0.5,1.3-0.6,2.1-0.5c0.9,0.1,1.8,0.6,2.2,1.4
		c0.3,0.6,0.4,1.3,0.3,2c-0.1,0.7-0.5,1.4-1,1.8c-0.8,0.7-2,0.8-3,0.7c-0.9-0.1-1.8-0.6-2.3-1.3c-0.7-0.8-1-1.8-1-2.9
		C33.7,26.6,33.9,25.3,34.8,24.3L34.8,24.3L34.8,24.3L34.8,24.3z M41.8,23h5.4v2.1c-0.8,0-1.9,0-2.9,0l0,1.4c0.6,0,1.2-0.1,1.7,0.1
		c0.8,0.3,1.4,1,1.6,1.8c0.2,0.8,0.1,1.6-0.3,2.3c-0.4,0.6-1.1,1-1.8,1.2c-1.3,0.3-2.6,0.2-3.9-0.2c0-0.7,0-1.4,0-2
		c0.8,0.2,1.7,0.4,2.5,0.1c0.7-0.2,0.8-1.2,0.2-1.6c-0.3-0.2-0.7-0.3-1.1-0.3c-0.4,0-0.9,0.1-1.3,0.2c-0.1,0-0.2,0.1-0.2,0.1
		c0-0.1,0.1-0.2,0.1-0.2L41.8,23L41.8,23L41.8,23L41.8,23z"/>
	<path style="fill:#FAFDFD;" d="M15.2,26.1c0.8-0.7,1.8-0.9,2.8-0.9c0.8,0,1.6,0.2,2.1,0.7c0.6,0.5,0.9,1.4,1,2.1
		c0.1,0.5,0.1,0.8,0.1,1.4h-4c0,0.2,0.1,0.4,0.2,0.6c0.3,0.3,0.8,0.3,1.2,0.3c0.7,0,1.5-0.1,2.1-0.4v1.7C19.9,31.9,19,32,18.2,32
		c-1,0-2-0.2-2.7-0.8c-0.7-0.6-1-1.5-1.1-2.4C14.3,27.8,14.6,26.8,15.2,26.1L15.2,26.1L15.2,26.1L15.2,26.1z"/>
	<path style="fill:#077C5C;" d="M17.4,26.9c0.2-0.3,0.8-0.3,1,0c0.2,0.3,0.2,0.7,0.2,1.1h-1.5C17.2,27.6,17.2,27.2,17.4,26.9
		L17.4,26.9L17.4,26.9L17.4,26.9z M10,27.1c0.3-0.1,0.6,0,0.7,0.3c0.2,0.3,0.2,0.7,0.2,1.1c0,0.4,0,0.8-0.2,1.1
		c-0.2,0.3-0.8,0.3-1,0s-0.2-0.7-0.2-1c0-0.3,0-0.7,0.1-1C9.7,27.4,9.8,27.2,10,27.1L10,27.1z M37.2,27.8c0.4-0.2,0.9,0,1.1,0.4
		c0.3,0.5,0.3,1.1,0,1.6c-0.3,0.5-1.1,0.5-1.4,0.1c-0.3-0.3-0.3-0.9-0.2-1.3C36.7,28.2,36.9,27.9,37.2,27.8L37.2,27.8z"/>
</g>
</svg>
