<?xml version="1.0"?>
<svg xmlns="http://www.w3.org/2000/svg" xmlns:xlink="http://www.w3.org/1999/xlink" xmlns:svgjs="http://svgjs.com/svgjs" version="1.1" width="512" height="512" x="0" y="0" viewBox="0 0 512 512" style="enable-background:new 0 0 512 512" xml:space="preserve" class=""><g><g xmlns="http://www.w3.org/2000/svg"><circle cx="256" cy="256" fill="#f1f1f1" r="256" data-original="#f2d283" style="" class=""/><path d="m371.956 141.192-124.268-19.38h-91.062l-17-17.812-35.626 106.875 35.625 35v18.438l17.812 17v91.062l-17.812 35.625 103.685 103.685c4.204.205 8.434.315 12.69.315 133.257 0 242.715-101.82 254.863-231.902-33.449-33.451-138.907-138.906-138.907-138.906z" fill="#f1f1f1" data-original="#ebb06a" style="" class=""/><g><path d="m318.938 246.5h71.25v143.688h-71.25z" fill="#e9f6ff" data-original="#e9f6ff" style="" class=""/><path d="m354.562 246.5h35.625v143.688h-35.625z" fill="#d2e4fd" data-original="#d2e4fd" style=""/><path d="m157.438 246.5h72.438v143.688h-72.438z" fill="#e9f6ff" data-original="#e9f6ff" style="" class=""/><g fill="#d2e4fd"><path d="m193.656 246.5h36.219v143.688h-36.219z" fill="#d2e4fd" data-original="#d2e4fd" style=""/><path d="m139.625 228.688h108.062v35.625h-108.062z" fill="#d2e4fd" data-original="#d2e4fd" style=""/><path d="m139.625 372.375h108.062v35.625h-108.062z" fill="#d2e4fd" data-original="#d2e4fd" style=""/></g><path d="m121.812 121.812h143.688v71.25h-143.688z" fill="#e9f6ff" data-original="#e9f6ff" style="" class=""/><path d="m193.656 228.688h54.031v35.625h-54.031z" fill="#b8cafc" data-original="#b8cafc" style=""/><path d="m193.656 372.375h54.031v35.625h-54.031z" fill="#b8cafc" data-original="#b8cafc" style=""/><path d="m354.562 126.508c-20.218-14.142-44.758-22.508-71.25-22.508h-35.625v106.875h35.625c9.819 0 17.812 7.993 17.812 17.812v35.625h53.438 53.438v-35.625c0-42.262-21.183-79.619-53.438-102.179z" fill="#6fa3fb" data-original="#6fa3fb" style=""/><path d="m408 228.688c0-42.262-21.183-79.619-53.438-102.179v137.804h53.438z" fill="#4f76fa" data-original="#4f76fa" style=""/><path d="m104 104h35.625v106.875h-35.625z" fill="#d2e4fd" data-original="#d2e4fd" style=""/><path d="m301.125 372.375h106.875v35.625h-106.875z" fill="#d2e4fd" data-original="#d2e4fd" style=""/><path d="m354.562 372.375h53.438v35.625h-53.438z" fill="#b8cafc" data-original="#b8cafc" style=""/></g></g></g></svg>
