<?xml version="1.0" encoding="utf-8"?>
<svg version="1.1" id="Layer_1" xmlns="http://www.w3.org/2000/svg" xmlns:xlink="http://www.w3.org/1999/xlink" x="0px" y="0px"
	 viewBox="0 0 2500 736" style="enable-background:new 0 0 2500 736;" xml:space="preserve">
<g>
	<path style="fill:#2350A0;" d="M976.4,574.3l-19.8-70.9H838.9l-19.8,70.9h-88.6l116.7-372h104.2l116.7,372H976.4L976.4,574.3z
		 M898.3,289.8l-40.6,143.8h81.3L898.3,289.8z M1328.7,161.7v412.7h-79.2l-1-36.5c-18.8,28.1-47.9,42.7-80.2,42.7
		c-25,0-46.9-9.4-62.5-26.1c-21.9-24-32.3-59.4-32.3-115.7c0-53.1,9.4-92.7,36.5-117.8c17.7-17.7,42.7-28.1,77.1-28.1
		c22.9,0,41.7,5.2,57.3,19.8V161.7H1328.7L1328.7,161.7z M1224.5,488.9c14.6-18.8,22.9-42.7,22.9-69.8c0-19.8-4.2-34.4-13.5-43.8
		c-7.3-7.3-18.8-11.5-32.3-11.5c-33.3,0-38.6,22.9-38.6,74c0,53.1,6.3,70.9,27.1,70.9C1203.6,508.7,1215.1,501.4,1224.5,488.9
		L1224.5,488.9z M1458.9,299.2v41.7c16.7-31.3,42.7-49,80.2-49c36.5,0,60.4,16.7,71.9,50c17.7-31.3,44.8-50,82.3-50
		c50,0,78.2,34.4,78.2,98v184.5h-84.4V404.5c0-22.9-4.2-34.4-19.8-34.4c-24,0-49,28.1-49,92.7v111.5H1534V403.4
		c0-20.8-3.1-33.3-19.8-33.3c-25,0-50,28.1-50,92.7v111.5h-84.4V299.2H1458.9L1458.9,299.2z M1864.3,157.5c28.1,0,50,21.9,50,51.1
		s-20.8,50-50,50c-28.1,0-50-21.9-50-50S1836.2,157.5,1864.3,157.5z M1906,299.2v275.1h-84.4V299.2H1906z M2036.3,299.2l-1,42.7
		c13.5-31.3,35.4-49,64.6-49c5.2,0,11.5,1,16.7,2.1l-6.3,82.3c-5.2-1-9.4-1-13.5-1c-44.8,0-55.2,53.1-55.2,106.3v92.7h-84.4V299.2
		H2036.3L2036.3,299.2z M2141.5,332.6c28.1-30.2,65.7-39.6,110.5-39.6c78.2,0,114.6,28.1,114.6,105.3v175.1h-71.9l-1-35.4
		c-19.8,29.2-49,41.7-80.2,41.7c-26.1,0-46.9-8.3-60.4-21.9c-16.7-14.6-24-35.4-24-63.6c0-33.3,11.5-56.3,34.4-70.9
		c24-16.7,59.4-21.9,95.9-21.9h29.2v-5.2c0-30.2-10.4-39.6-40.6-39.6c-26.1,0-46.9,7.3-64.6,24L2141.5,332.6L2141.5,332.6z
		 M2255.1,456.6c-29.2,0-46.9,4.2-46.9,35.4c0,17.7,5.2,27.1,19.8,27.1c22.9,0,58.4-25,62.5-63.6L2255.1,456.6z M2500,161.7v412.7
		h-84.4V161.7L2500,161.7L2500,161.7z"/>
	<path style="fill:#CC0033;" d="M504.4,561.8c-5.2,19.8-16.7,36.5-32.3,50c-18.8,15.2-40.9,25.5-64.6,30.2
		c-27.1,6.3-56.3,6.3-86.5,3.1c-30.2-4.2-61.5-12.5-90.7-25c-30.2-12.5-58.4-29.2-83.4-47.9s-46.9-41.7-63.6-65.7
		c-16.7-24-27.1-47.9-31.3-70.9c-4.2-21.9-2.1-43.8,5.2-61.5c7.3-18.8,19.8-34.4,37.5-46.9s39.6-20.8,65.7-26.1
		c13.5-2.1,28.1-3.1,42.7-3.1c-3.1-5.2-5.2-9.4-6.3-13.5c-18.8,0-37.5,1-55.2,4.2c-33.3,5.2-61.5,16.7-84.4,32.3
		c-22.9,15.6-38.6,36.5-47.9,59.4c-9.4,24-12.5,51.1-7.3,79.2c4.2,30.2,16.7,61.5,38.6,92.7c21.9,31.3,50,60.4,82.3,85.5
		s68.8,45.9,107.3,62.5c38.6,15.6,78.2,27.1,117.8,32.3c38.6,5.2,77.1,3.1,111.5-5.2s61.5-21.9,82.3-40.6
		c19.8-18.8,33.3-40.6,39.6-65.7c6.3-24,5.2-50-2.1-77.1h-70.9C507.5,549.3,506.5,555.6,504.4,561.8L504.4,561.8z"/>
	<g>
		<path style="fill:#2350A0;" d="M228.2,173.1c6.3-28.1,17.7-120.9,76.1-157.4c-93.8-50-157.4,20.8-130.3,175.1
			C177.2,211.7,220.9,203.3,228.2,173.1L228.2,173.1z M451.2,214.8c4.2,16.7,5.2,31.3,5.2,31.3l56.3,3.1c0-1,0-2.1,1-2.1
			c1-2.1,2.1-5.2,4.2-7.3c-3.1-3.1-6.3-8.3-8.3-11.5c-1-1,0-7.3,3.1-15.6C497.1,211.7,467.9,213.8,451.2,214.8L451.2,214.8z"/>
		<path style="fill:#2350A0;" d="M760.7,196.1l-131.3,8.3l-14.6,5.2l4.2-7.3c-5.2-3.1-15.6-7.3-29.2-10.4c-2.1,0-3.1,0-6.3,2.1
			c-4.2-2.1-10.4-3.1-13.5-3.1s-4.2,1-6.3,4.2c-3.1-1-7.3-2.1-10.4-2.1c-2.1,0-4.2,1-6.3,4.2c-3.1-1-6.3-2.1-9.4-2.1h-1
			c-4.2,2.1-9.4,7.3-13.5,16.7c-3.1,7.3-4.2,11.5-3.1,13.5c3.1,9.4,5.2,12.5,5.2,12.5l-3.1,3.1c-1,5.2-1,13.5,1,25
			c5.2,8.3,14.6,18.8,32.3,28.1h-14.6c0,0,9.4,79.2,3.1,118.8c-41.7,0-78.2-5.2-101.1-10.4l18.8-89.6l-35.4-4.2l3.1-17.7l3.1-14.6
			c2.1,0,17.7-5.2,17.7-7.3c0-5.2-4.2-28.1-9.4-53.1l6.3-6.3l1-18.8l7.3,2.1v-1c7.3-41.7,16.7-157.4,13.5-180.3
			c-1-10.4-54.2-10.4-55.2-10.4c-71.9,0-142.8,51.1-170.9,171.9c-4.2,14.6-13.5,32.3-45.9,32.3c-14.6,0-17.7-4.2-17.7-4.2
			s37.5,43.8,140.7-5.2c67.7-31.3,106.3-4.2,106.3-4.2s2.1,4.2,3.1,10.4l-10.4,9.4c0,0,11.5,18.8,17.7,53.1
			c-2.1,1-22.9,2.1-22.9,2.1s2.1,4.2,6.3,8.3c0,2.1-2.1,18.8-2.1,18.8l-4.2,13.5c0,0,8.3,7.3,7.3,15.6c-2.1,9.4-8.3,20.8-15.6,20.8
			c-25,0-65.7-13.5-83.4-20.8c-2.1-1-17.7,28.1-35.4,129.2C289.7,357.6,273,270,273,270s-27.1,2.1-32.3-39.6
			c-9.4,0-22.9-3.1-37.5-9.4c0,19.8,5.2,58.4,32.3,83.4l-55.2,11.5l8.3,79.2c0,0-43.8,13.5-120.9,27.1c0,1,0,2.1,1,4.2
			c3.1,19.8,12.5,39.6,27.1,60.4s33.3,39.6,55.2,56.3s45.9,30.2,71.9,41.7c26.1,10.4,52.1,17.7,78.2,21.9c26.1,3.1,51.1,3.1,75-2.1
			c22.9-5.2,41.7-14.6,56.3-26.1c13.5-11.5,22.9-26.1,27.1-41.7c1-6.3,2.1-11.5,3.1-12.5h146.9c49,0,50-229.3,50-229.3h-20.8
			l-4.2-34.4l104.2,6.3L760.7,196.1L760.7,196.1z M397,227.3c3.1-3.1,4.2-9.4,3.1-15.6l5.2-1l2.1-7.3c-25-16.7-42.7,12.5-42.7,12.5
			l16.7-3.1C378.3,225.2,390.8,234.6,397,227.3z"/>
		<path style="fill:#2350A0;" d="M420,285.7l-28.1,3.1c0,0,14.6,15.6,27.1,6.3c7.3-5.2,7.3-4.2,7.3-4.2L420,285.7z"/>
	</g>
</g>
</svg>
