<?xml version="1.0" encoding="utf-8"?>
<svg version="1.1" id="Layer_1" xmlns="http://www.w3.org/2000/svg" xmlns:xlink="http://www.w3.org/1999/xlink" x="0px" y="0px"
	width="100px" height="100px" viewBox="0 0 100 100" style="enable-background:new 0 0 100 100;" xml:space="preserve">
<g>
	<path style="fill:#E8E8E8;" d="M50,0c27.6,0,50,22.4,50,50s-22.4,50-50,50S0,77.6,0,50S22.4,0,50,0"/>
	<path style="fill:#FFFFFF;" d="M50,1c27.1,0,49,21.9,49,49S77.1,99,50,99S1,77.1,1,50S22.9,1,50,1"/>
	<g>
		<g>
			<path d="M31,67.5v-3.2h-0.9v1.1h-0.5v-1.6h3.5v1.6h-0.5v-1.1h-0.8v3.2h0.5V68h-1.7v-0.5H31z"/>
			<path d="M33.5,67.5v-3.2H33v-0.5h1.1v1.6c0.4-0.3,0.7-0.4,1-0.4c0.2,0,0.4,0,0.5,0.1c0.1,0.1,0.2,0.2,0.3,0.3
				c0.1,0.1,0.1,0.3,0.1,0.6v1.5h0.5V68h-1.1v-1.8c0-0.2,0-0.4,0-0.5c0-0.1-0.1-0.2-0.1-0.2c-0.1,0-0.2-0.1-0.2-0.1
				c-0.2,0-0.5,0.1-0.9,0.4v1.6h0.5v0.5H33v-0.5L33.5,67.5L33.5,67.5L33.5,67.5z"/>
			<path d="M39.5,66.7H37c0,0.3,0.2,0.5,0.3,0.7c0.2,0.2,0.4,0.2,0.7,0.2c0.4,0,0.7-0.2,1-0.5l0.5,0.2c-0.2,0.3-0.4,0.5-0.7,0.6
				c-0.3,0.1-0.5,0.2-0.8,0.2c-0.5,0-0.8-0.2-1.2-0.4s-0.5-0.7-0.5-1.1c0-0.5,0.2-0.8,0.5-1.1s0.7-0.5,1.1-0.5
				c0.4,0,0.8,0.2,1.1,0.4C39.3,65.7,39.5,66.1,39.5,66.7z M38.9,66.3c0-0.2-0.2-0.4-0.3-0.6c-0.2-0.2-0.4-0.2-0.7-0.2
				c-0.2,0-0.4,0.1-0.6,0.2S37,66,37,66.3L38.9,66.3L38.9,66.3z"/>
		</g>
		<g>
			<path d="M20.8,74.7v-6.1h-1v-1h2.7c0.8,0,1.3,0,1.7,0.1c0.4,0.1,0.7,0.3,1,0.7c0.3,0.4,0.4,0.8,0.4,1.3c0,0.4-0.1,0.7-0.2,1
				c-0.2,0.3-0.4,0.5-0.8,0.7c0.5,0.2,0.8,0.4,1.1,0.8c0.2,0.4,0.4,0.8,0.4,1.2c0,0.4-0.1,0.8-0.3,1.1c-0.2,0.3-0.4,0.6-0.7,0.8
				c-0.3,0.2-0.6,0.3-1,0.4c-0.4,0.1-0.8,0.1-1.5,0.1h-2.8v-1H20.8z M22.1,70.9h0.8c0.6,0,1-0.1,1.2-0.3c0.2-0.2,0.4-0.5,0.4-0.9
				c0-0.8-0.5-1.2-1.6-1.2h-0.8C22.1,68.5,22.1,70.9,22.1,70.9z M22.1,74.7h0.5c0.6,0,1.1,0,1.3-0.1c0.3-0.1,0.5-0.2,0.7-0.4
				c0.2-0.2,0.3-0.5,0.3-0.9c0-0.3-0.1-0.6-0.2-0.8c-0.2-0.2-0.4-0.4-0.7-0.4s-0.7-0.1-1.1-0.1h-0.7V74.7z"/>
			<path d="M27.3,74.7v-6.2h-1v-1h2.1v7.2h0.9v1h-3v-1H27.3L27.3,74.7z"/>
			<path d="M35.3,74.7v1h-2V75c-0.5,0.5-1.1,0.8-1.8,0.8c-0.5,0-1-0.2-1.4-0.5c-0.4-0.3-0.6-0.8-0.6-1.3c0-0.5,0.2-1,0.6-1.3
				s0.9-0.5,1.5-0.5c0.5,0,1.1,0.2,1.5,0.5v-0.6c0-0.3,0-0.5-0.1-0.7c-0.1-0.2-0.2-0.3-0.4-0.4c-0.2-0.1-0.5-0.2-0.8-0.2
				c-0.6,0-1,0.2-1.2,0.7l-1.1-0.3c0.5-0.9,1.3-1.3,2.5-1.3c0.4,0,0.8,0.1,1.1,0.2c0.3,0.1,0.5,0.3,0.7,0.5s0.2,0.4,0.3,0.6
				c0.1,0.2,0.1,0.5,0.1,1v2.6L35.3,74.7C35.3,74.8,35.3,74.7,35.3,74.7z M33.3,73.6c-0.5-0.4-1-0.6-1.5-0.6c-0.3,0-0.6,0.1-0.8,0.3
				c-0.2,0.2-0.3,0.4-0.3,0.7c0,0.3,0.1,0.5,0.3,0.7s0.4,0.3,0.8,0.3c0.5,0,1.1-0.2,1.5-0.7V73.6z"/>
			<path d="M40.8,70v2.1h-1c-0.1-0.4-0.2-0.7-0.5-0.9c-0.3-0.2-0.6-0.3-1-0.3c-0.5,0-0.9,0.2-1.2,0.5c-0.3,0.4-0.5,0.8-0.5,1.4
				c0,0.5,0.2,1,0.5,1.4c0.3,0.4,0.7,0.6,1.3,0.6c0.8,0,1.4-0.4,1.7-1.1l0.9,0.4c-0.5,1.1-1.4,1.7-2.7,1.7c-0.9,0-1.6-0.3-2.1-0.9
				c-0.5-0.6-0.8-1.3-0.8-2.1c0-0.9,0.3-1.6,0.8-2.1c0.6-0.6,1.2-0.8,2-0.8c0.6,0,1.2,0.2,1.6,0.6V70L40.8,70L40.8,70L40.8,70z"/>
			<path d="M42.1,74.7v-6.2h-1v-1h2.1v5.1l2.1-1.7h-0.9V70h3.1v0.9h-0.9l-2.1,1.8l2,2h1v1h-1.5l-2.9-2.9v1.9h1v1h-3.1v-1H42.1
				L42.1,74.7z"/>
			<path d="M50.9,74.7v-6.1H50v-1h3.1v1h-1v2.3h3.5v-2.3h-1v-1h3.1v1H57v6.1h0.9v1h-3.1v-1h1v-2.8h-3.5v2.8h1v1H50v-1H50.9z"/>
			<path d="M58.2,72.8c0-0.9,0.3-1.6,0.9-2.2c0.6-0.6,1.3-0.8,2.1-0.8c0.8,0,1.5,0.3,2.1,0.8c0.6,0.5,0.9,1.3,0.9,2.2
				s-0.3,1.6-0.9,2.2c-0.6,0.5-1.3,0.8-2.1,0.8c-0.8,0-1.6-0.3-2.1-0.8S58.2,73.7,58.2,72.8z M59.4,72.8c0,0.6,0.2,1,0.5,1.4
				c0.4,0.4,0.8,0.5,1.3,0.5s0.9-0.2,1.3-0.5s0.5-0.8,0.5-1.4c0-0.6-0.2-1-0.5-1.4c-0.4-0.4-0.8-0.5-1.3-0.5s-1,0.2-1.3,0.5
				S59.4,72.3,59.4,72.8z"/>
			<path d="M65.5,74.7V71h-1.1v-1h2v1.3c0.1-0.3,0.3-0.6,0.5-0.8c0.2-0.2,0.5-0.4,0.7-0.4c0.3-0.1,0.6-0.1,1-0.1H69v1.1h-0.2
				c-0.6,0-1,0.1-1.3,0.2c-0.3,0.1-0.5,0.3-0.6,0.6c-0.2,0.3-0.2,0.8-0.2,1.6v1.3h1.2v1h-3.5v-1L65.5,74.7L65.5,74.7L65.5,74.7z"/>
			<path d="M69.1,75.7v-2h1v0.2c0,0.3,0.2,0.5,0.4,0.7s0.5,0.3,0.9,0.3s0.7-0.1,0.9-0.2c0.2-0.1,0.3-0.3,0.3-0.5
				c0-0.2-0.1-0.4-0.3-0.5c-0.2-0.1-0.5-0.2-1.1-0.3c-0.8-0.1-1.4-0.4-1.7-0.6c-0.3-0.3-0.5-0.7-0.5-1.1c0-0.5,0.2-0.9,0.5-1.2
				s0.8-0.5,1.4-0.5c0.5,0,1,0.1,1.4,0.3V70h1v1.9h-1v-0.4c-0.3-0.5-0.8-0.7-1.3-0.7c-0.3,0-0.5,0.1-0.7,0.2s-0.3,0.3-0.3,0.5
				c0,0.2,0.1,0.4,0.3,0.5c0.2,0.1,0.5,0.2,1.1,0.2c0.5,0.1,1,0.2,1.3,0.3c0.3,0.1,0.5,0.3,0.7,0.6c0.2,0.3,0.3,0.6,0.3,0.9
				c0,0.5-0.2,1-0.6,1.3s-0.9,0.5-1.6,0.5c-0.6,0-1.1-0.2-1.5-0.4v0.3L69.1,75.7L69.1,75.7L69.1,75.7z"/>
			<path d="M80.1,73.1h-4.8c0.1,0.5,0.3,1,0.6,1.3c0.3,0.3,0.8,0.5,1.3,0.5c0.8,0,1.4-0.3,1.9-0.9l1,0.4c-0.3,0.5-0.8,0.9-1.3,1.1
				c-0.5,0.2-1.1,0.4-1.6,0.4c-0.9,0-1.6-0.3-2.2-0.8c-0.6-0.5-0.9-1.3-0.9-2.2c0-0.9,0.3-1.6,0.9-2.2c0.6-0.6,1.3-0.8,2.1-0.8
				c0.8,0,1.4,0.3,2.1,0.8C79.8,71.2,80.1,72,80.1,73.1z M79,72.3c-0.1-0.4-0.3-0.8-0.6-1.1s-0.8-0.5-1.2-0.5
				c-0.5,0-0.8,0.2-1.1,0.5c-0.3,0.3-0.5,0.7-0.6,1.1L79,72.3L79,72.3z"/>
		</g>
		<path d="M42.5,17.9c0,0.2,0.9,0,1.4,0.1c0.5,0.1,0.1,0.5,0.1,0.5s-0.9,1-1,1.4c-0.2,0.4-3.1,4.7-3.1,4.7s-0.7,1.4-0.8,2
			c0,0.7,1,2.3,1.5,2.4c0.5,0.1,1,0,1,0s0.3,0.3,0.5,0.4c0.2,0.1,0.9,0,1.3-0.4c0.2-0.2,0.5-0.6,0.5-0.6s0.1-0.8,0.3-1.2
			c0.2-0.4,0.4-0.5,1.2-0.6c1.5-0.2,1.5-0.8,1.6-0.7c0.1,0.1,0.5,0.4,0.5,0.4s-0.1,1.6,0,2.7c0.1,1.1,1,3.2,1,3.2s-1.7-1.4-5-1.4
			c-2.3,0-4.5,1.7-4.5,1.7s-0.5-0.2-0.5-0.4c-0.1-0.2-0.2-1.3-0.4-1.9c-0.2-0.6-0.7-1-0.8-1c-0.1,0,0.3,1.1,0,1.1
			c-0.5,0-1.1-1.6-2-1.7c-0.3-0.1-0.2,0.1-0.2,0.1l-1.2-0.3c0,0-0.2-0.8-0.4-1c-0.2-0.2,0.2-2,0.1-2s-0.4,0.5-0.5,0.5
			c-0.1,0,0.1-1.4,0.1-1.4s0.3-1.3,0.3-1.4s-0.4,0.2-0.6,0.3c-0.2,0,0-0.4-0.5-1c-1.4-1.7-2.5-1.1-2.5-1.1s0.9,0.3,1.1,1.2
			c0.3,0.9,0.3,1.7,0.2,1.7s-0.7-1-0.7-1s-0.5,0.5-0.2,1.1c0.2,0.6,0.6,1.1,0.6,1.2c0,0.1-0.3,0.1-0.5,0.1c-0.2-0.1-0.8-1-1-1
			c-0.2,0-0.2,0.8,0.2,1.4c0.4,0.6,1,1,1,1l0.5-0.2c0,0-0.1,0.5-0.2,1.3c-0.2,0.8-0.1,1.6-0.2,1.6c-0.6-0.1-1.1-1.7-1.1-1.7
			l-0.5-1.6c0,0-1,1.6,0.2,3.5c0.7,1.1,1.6,1.5,1.6,1.6c0,0.1-0.6,0-0.8-0.1s-0.7-0.5-0.8-0.3c-0.1,0.1,1.4,1.1,2.1,1.6
			c0.8,0.5,2.2,0.7,2.1,1c-0.1,0.2-0.6,0.2-0.9,0.2c-0.3-0.1-0.2-0.2-1.5-0.6c-1.3-0.4-1.9,0.1-1.9,0.2s0.4,0.2,0.8,0.2
			c0.8,0.2,1,0.5,0.9,0.7s-0.6,0.1-0.7,0.4c0,0.1,0.2,0.4,1.1,0.6c1.2,0.3,3.3-1.4,3.4-1c0.2,0.8-1.7,1-1.7,1.3s0.7,0.6,1.9-0.1
			c0.6-0.3,1.3-1.7,1.3-1.7s0,0.7,0.1,0.6s0.6-0.6,0.6-0.6l0.3,0.3c0,0-3.7,3.5-0.9,9.1c1.2,2.4,1.4,3.3,2.9,5.4
			c1.6,2.1,3.6,4,3.6,4s-0.1,1.1,0.3,1.9c0.5,0.8,3.4,3.4,3.4,3.4l1.7,2.2l0.8,1.2l-0.3,1c0,0,0.7,1.3,1.4,1.2
			c0.8,0,1.1-1.1,1.1-1.1L51.3,61l-0.6-1l-1.2-1.3c0,0-1.5-1.9-2.6-3.8c-0.9-1.5-1.4-2.7-1.6-3c-0.1-0.2-0.6-0.6-0.6-0.6
			s0.1-0.5,0-1.2c-0.1-0.7-1.1-3.7-1.1-3.7l0.2-0.7c0,0,0.6,0.5,1.5,0.8c0.9,0.3,1.6,0.4,1.6,0.4s-0.2,0.5-0.3,0.8
			c-0.2,0.4-0.8,0.6-1,1.8c0,0.7,1.1,1.5,1.1,1.5s1.4,2.8,2.1,4c0.7,1.2,0.8,2.7,0.8,2.7s0.4,0.3,0.3,0.7c-0.3,0.6-0.1,1.5,1.2,1.7
			c1.3,0.2,1.3-1.5,1-1.8c-0.3-0.4-0.6-0.8-0.6-0.8s0.1-0.6,0-0.9c-0.1-0.3-1-1.3-1.4-2.3c-0.5-1-1.1-3.1-1.1-3.1l1.1-2.7l0.5,0.8
			c0,0,0.6,1.5,1.7,3c1,1.5,2.4,3.3,2.4,3.3s-0.1,0.7,0,1.2s0.6,1,0.6,1s-0.3,0.3-0.5,0.7c-0.2,0.4-0.4,0.8-0.4,0.8
			s-1.2,0.5-1.3,0.8s0.1,0.6,0.1,0.6l-1,0.8c0,0-0.4,1.6,0.9,1.7c1.3,0.2,2.1-1.3,2.1-1.5c0.1-0.2,0-0.5,0.1-0.7
			c0.1-0.2,0.8-0.6,1-1.1c0.2-0.5,0.2-1.2,0.3-1.4c0.1-0.2,0.8-0.5,0.9-1.6c0.1-1.1-1.5-2.4-1.5-2.4s-0.3-2.1-0.5-3.1
			c-0.2-1.1-0.6-1.7-0.6-1.7s0.5-0.2,0.8-0.4c0.4-0.2,0.6-0.6,0.6-0.6s0.9-0.1,1.4-0.3s1.1-0.7,1.1-0.7S60,49,61,49.6
			c1,0.7,2.2,1.9,2.4,2.3c0.7,1.6,0.1,1.3,0.5,2.4c0.2,0.5,1.2,1.3,1.4,1.8c0.2,0.5,0.3,1.9,0.4,2.3c0.2,1,0.9,1,0.9,1l-0.3,1.2
			c0,0,0.6,1.6,1.9,1.8c1.1,0.2,1.2-0.4,1.2-0.4s-0.4-1.3-0.6-1.5c-0.2-0.2-0.6-0.4-0.6-0.5s0-0.4,0-0.6c0-0.3-1.4-4.8-1.4-4.8
			s0-1.5-0.5-2.5c-0.6-1-1.4-1.2-1.4-1.3c0-0.1-2.6-6.6-2.9-7.1c-0.3-0.5-0.5-2.4-0.8-4.5c-0.4-2-0.9-3.8-0.9-3.8l1,0l0.9-0.5
			L61,34.3l1.3-0.3l-2.3-1.1l-0.5-1.5c0,0,0.6,0.6,0.8,0.5c0.2-0.1-0.4-0.9-0.4-0.9l-0.6-0.7l1.2,0.2c0,0,0.9,0.7,1.1,0.7
			c0.2-0.1,0-0.7,0-0.9c-0.1-0.2-0.7-0.6-0.7-0.7c-0.1-0.2,0-0.2,0-0.6c0-0.4-0.5-0.9-0.4-1c0.2-0.2,0.7,0.1,0.7,0.1
			s0.6,0.4,0.8,0.3c0.2-0.1-0.3-1.1-0.6-1.3c-0.2-0.2-1.2-0.8-1.2-1c0-0.1,0.4-0.1,0.9,0.1c0.5,0.2,0.6,1.1,1,1c0.3-0.1,0-1.5,0-1.5
			s-0.6-0.8-0.6-1c0-0.2,0.8-0.8,1.2-1.4c0.4-0.6,0.5-1.1,0.2-1.3c-0.2-0.2-1.2,1.7-1.9,1.4c-0.6-0.3,0.8-1.3,0.6-1.4
			c-0.4-0.3-2.1,0.9-2.6,0.6c-0.1-0.1,1.2-1.3,1.3-1.7c0.1-0.4,0-1.1-0.2-1.1c-0.2-0.1,0,1-1.4,1.6c-0.5,0.2-1.7,0-1.7-0.2
			c0.1-0.7,2-1.7,2-1.8c0-0.1-0.4-0.2-1.1,0s-1.8,1.3-1.9,1.2c-0.1-0.1,2-2.3,1.5-2.6c-0.3-0.2-0.8,1.1-1.7,0.9
			c-0.4-0.1,1.5-2.1,1.4-2.3c-0.1-0.2-1.7,0.2-1.8,0.2c-0.2-0.1,0.9-1,0.2-1.8c-0.1-0.2-1.3,1.6-2.7,1.5c-0.4,0-0.6-0.8-0.6-1
			c0-0.1,1.9-1.3,1.5-1.3c-1.7-0.4-3.1,0.5-3.7,0.6c-0.3,0-1.2-0.9-2.9-0.7c-0.5,0.1,0.3,0.6,0.2,0.7c-0.1,0.1-1.9-0.6-3.5,0.7
			c-0.1,0.1,0.2,0.1,0.6,0.2c0.4,0.2,0.8,0.5,0.7,0.8c-0.1,0.1-0.8,0-0.9,0.1c-0.1,0.2,0.4,0.3,0.3,0.4C44.3,17,42.6,17.2,42.5,17.9
			z"/>
	</g>
</g>
</svg>
