<?xml version="1.0" encoding="utf-8"?>
<svg version="1.1" id="Layer_1" xmlns="http://www.w3.org/2000/svg" xmlns:xlink="http://www.w3.org/1999/xlink" x="0px" y="0px"
	width="100px" height="100px" viewBox="0 0 1280 1280" style="enable-background:new 0 0 1280 1280;" xml:space="preserve">
<g>
	<circle style="fill:#4050FB;" cx="640" cy="640" r="640"/>
	<g>
		<path style="fill:#FFFFFF;" d="M492.15,515.66c0,20.9-16.2,37.62-36.57,37.62c-20.38,0-36.57-16.72-36.57-37.62
			s16.2-37.62,36.57-37.62C475.43,477.52,492.15,494.76,492.15,515.66z"/>
		<path style="fill:#FFFFFF;" d="M493.19,515.66c0,20.9-16.2,37.62-36.57,37.62c-20.38,0-36.57-16.72-36.57-37.62
			s16.2-37.62,36.57-37.62C477,477.52,493.19,494.76,493.19,515.66z"/>
		<g>
			<path id="B" style="fill:#FFFFFF;" d="M392.88,569.99v55.9h-63.22v92.47c0,20.38,9.4,28.73,29.78,28.73h33.44v53.29h-37.62
				c-59.56,0-86.2-27.17-86.2-78.89v-95.61h-32.39v-55.9c17.76,0,32.39-14.63,32.39-33.44v-26.12h60.6v59.04h63.22V569.99z"/>
		</g>
		<path style="fill:#FFFFFF;" d="M486.92,569.99h-60.6v230.4h60.6V569.99z"/>
		<g>
			<path id="C" style="fill:#FFFFFF;" d="M693.81,783.67c-15.67,12.54-40.23,20.38-65.83,20.38c-61.13,0-113.37-50.68-113.37-117.03
				s52.24-118.6,113.37-118.6c25.6,0,50.16,7.84,65.83,20.38v-96.13h60.6v307.72h-60.6V783.67z M694.33,686.5
				c0-33.96-27.17-61.65-61.13-61.65c-33.44,0-59.04,27.69-59.04,61.65c0,34.48,25.6,61.65,59.04,61.65
				C668.21,748.15,694.33,720.98,694.33,686.5z"/>
		</g>
		<g>
			<path id="D" style="fill:#FFFFFF;" d="M893.39,805.62c-72.1,0-118.07-51.72-118.07-119.64c0-66.35,48.07-120.16,118.6-120.16
				c71.05,0,113.89,50.16,113.89,117.03c0,8.88-1.04,20.38-1.04,21.94H834.87c6.79,29.26,28.21,48.07,59.56,48.07
				c27.17,0,47.02-12.02,59.56-30.82l45.45,28.73C978.02,784.72,943.02,805.62,893.39,805.62L893.39,805.62z M836.96,658.81h109.19
				c-6.79-27.69-28.21-41.8-52.77-41.8C864.65,617.01,845.32,632.69,836.96,658.81L836.96,658.81z"/>
		</g>
		<g>
			<path id="E" style="fill:#FFFFFF;" d="M1044.38,798.3c-3.13,2.61-6.27,4.18-10.45,4.18c-4.18,0-7.84-1.57-10.45-4.18
				c-3.13-3.13-4.18-6.79-4.18-10.97c0-4.7,1.57-8.36,4.7-10.97s6.27-4.18,10.45-4.18c4.18,0,7.84,1.57,10.45,4.7
				c3.13,3.13,4.7,6.79,4.7,10.97C1049.08,791.51,1047.51,795.17,1044.38,798.3L1044.38,798.3z M1025.04,778.45
				c-2.09,2.61-3.66,5.22-3.66,8.88c0,3.66,1.04,6.79,3.66,8.88c2.09,2.61,5.22,3.66,8.88,3.66s6.27-1.57,8.88-3.66
				c2.09-2.61,3.66-5.22,3.66-8.88c0.14-3.35-1.19-6.6-3.66-8.88c-2.09-2.61-5.22-4.18-8.88-4.18S1027.66,775.84,1025.04,778.45z
				 M1027.66,795.69v-17.24h4.7h3.66c1.04,0,2.09,0.52,3.13,1.04c1.57,1.04,2.09,2.09,2.09,4.18c0,1.57-0.52,2.61-1.04,3.13
				c-1.04,0.52-1.57,1.04-2.61,1.04c1.04,0,2.09,0.52,2.09,1.04c1.04,1.04,1.57,2.09,1.57,3.66v1.57v0.52v0.52v0.52h-4.18v-2.61
				v-2.09c0-0.52-0.52-1.04-1.04-1.57h-1.57h-1.04h-1.04v6.27L1027.66,795.69L1027.66,795.69L1027.66,795.69z M1035.49,782.11
				c-0.52,0-1.57-0.52-2.61-0.52h-1.04v5.22h1.57c1.04,0,1.57,0,2.09-0.52c0.52-0.52,1.04-1.04,1.04-2.09
				S1036.02,782.63,1035.49,782.11z"/>
		</g>
		<path style="fill:#FFFFFF;" d="M493.19,515.66c0,20.9-16.2,37.62-36.57,37.62c-20.38,0-36.57-16.72-36.57-37.62
			s16.2-37.62,36.57-37.62C477,477.52,493.19,494.76,493.19,515.66z"/>
		<g>
			<path id="B_1_" style="fill:#FFFFFF;" d="M392.88,569.99v55.9h-63.22v92.47c0,20.38,9.4,28.73,29.78,28.73h33.44v53.29h-37.62
				c-59.56,0-86.2-27.17-86.2-78.89v-95.61h-32.39v-55.9c17.76,0,32.39-14.63,32.39-33.44v-26.12h60.6v59.04h63.22V569.99z"/>
		</g>
		<path style="fill:#FFFFFF;" d="M486.92,569.99h-60.6v230.4h60.6V569.99z"/>
		<g>
			<path id="C_1_" style="fill:#FFFFFF;" d="M693.81,783.67c-15.67,12.54-40.23,20.38-65.83,20.38
				c-61.13,0-113.37-50.68-113.37-117.03s52.24-118.6,113.37-118.6c25.6,0,50.16,7.84,65.83,20.38v-96.13h60.6v307.72h-60.6V783.67z
				 M694.33,686.5c0-33.96-27.17-61.65-61.13-61.65c-33.44,0-59.04,27.69-59.04,61.65c0,34.48,25.6,61.65,59.04,61.65
				C668.21,748.15,694.33,720.98,694.33,686.5z"/>
		</g>
		<g>
			<path id="D_1_" style="fill:#FFFFFF;" d="M893.39,805.62c-72.1,0-118.07-51.72-118.07-119.64c0-66.35,48.07-120.16,118.6-120.16
				c71.05,0,113.89,50.16,113.89,117.03c0,8.88-1.04,20.38-1.04,21.94H834.87c6.79,29.26,28.21,48.07,59.56,48.07
				c27.17,0,47.02-12.02,59.56-30.82l45.45,28.73C978.02,784.72,943.02,805.62,893.39,805.62L893.39,805.62z M836.96,658.81h109.19
				c-6.79-27.69-28.21-41.8-52.77-41.8C864.65,617.01,845.32,632.69,836.96,658.81L836.96,658.81z"/>
		</g>
		<g>
			<path id="E_1_" style="fill:#FFFFFF;" d="M1044.38,798.3c-3.13,2.61-6.27,4.18-10.45,4.18c-4.18,0-7.84-1.57-10.45-4.18
				c-3.13-3.13-4.18-6.79-4.18-10.97c0-4.7,1.57-8.36,4.7-10.97s6.27-4.18,10.45-4.18c4.18,0,7.84,1.57,10.45,4.7
				c3.13,3.13,4.7,6.79,4.7,10.97C1049.08,791.51,1047.51,795.17,1044.38,798.3L1044.38,798.3z M1025.04,778.45
				c-2.09,2.61-3.66,5.22-3.66,8.88c0,3.66,1.04,6.79,3.66,8.88c2.09,2.61,5.22,3.66,8.88,3.66s6.27-1.57,8.88-3.66
				c2.09-2.61,3.66-5.22,3.66-8.88c0.14-3.35-1.19-6.6-3.66-8.88c-2.09-2.61-5.22-4.18-8.88-4.18S1027.66,775.84,1025.04,778.45z
				 M1027.66,795.69v-17.24h4.7h3.66c1.04,0,2.09,0.52,3.13,1.04c1.57,1.04,2.09,2.09,2.09,4.18c0,1.57-0.52,2.61-1.04,3.13
				c-1.04,0.52-1.57,1.04-2.61,1.04c1.04,0,2.09,0.52,2.09,1.04c1.04,1.04,1.57,2.09,1.57,3.66v1.57v0.52v0.52v0.52h-4.18v-2.61
				v-2.09c0-0.52-0.52-1.04-1.04-1.57h-1.57h-1.04h-1.04v6.27L1027.66,795.69L1027.66,795.69L1027.66,795.69z M1035.49,782.11
				c-0.52,0-1.57-0.52-2.61-0.52h-1.04v5.22h1.57c1.04,0,1.57,0,2.09-0.52c0.52-0.52,1.04-1.04,1.04-2.09
				S1036.02,782.63,1035.49,782.11z"/>
		</g>
	</g>
</g>
</svg>
