<?xml version="1.0"?>
<svg xmlns="http://www.w3.org/2000/svg" xmlns:xlink="http://www.w3.org/1999/xlink" xmlns:svgjs="http://svgjs.com/svgjs" version="1.1" width="512" height="512" x="0" y="0" viewBox="0 0 512 512" style="enable-background:new 0 0 512 512" xml:space="preserve" class=""><g><g xmlns="http://www.w3.org/2000/svg"><g><g><g><g><g><g><circle cx="256" cy="256" fill="#f1f1f1" r="256" data-original="#b180ff" style="" class=""/></g></g></g></g></g></g><path d="m148.151 159.378 110.705 110.705-85.673 196.485 42.214 42.214c13.226 2.108 26.784 3.218 40.603 3.218 141.385 0 256-114.615 256-256 0-22.546-2.927-44.406-8.4-65.235l-139.751-139.752z" fill="#f1f1f1" data-original="#8d48f9" style="" class=""/><g><g><path d="m256 209.383-107.848-50.005v-108.365h53.924l112.444 79.185z" fill="#ff5f96" data-original="#ff5f96" style=""/><path d="m363.849 159.378-107.849 50.005 53.924-158.37h53.925z" fill="#ff468c" data-original="#ff468c" style=""/></g><g><path d="m256 209.383-53.924-25.002v-133.368h53.924l33.784 88.204z" fill="#ff468c" data-original="#ff468c" style=""/><path d="m309.924 184.381-53.924 25.002v-158.37h53.924z" fill="#d72878" data-original="#d72878" style=""/></g><g><path d="m256 211.685 27.754 136.823-27.754 74.521-82.817 43.539 15.817-92.217-67-65.309 92.592-13.455z" fill="#ffd400" data-original="#ffd400" style="" class=""/><g><path d="m262.067 207.322-6.067 21.166c-11.69 0-21.167-9.477-21.167-21.167s9.477-21.167 21.167-21.167z" fill="#ffd400" data-original="#ffd400" style="" class=""/><path d="m277.167 207.322c0 11.69-9.477 21.167-21.167 21.167v-42.334c11.69 0 21.167 9.476 21.167 21.167z" fill="#fdba12" data-original="#fdba12" style="" class=""/></g><path d="m256 211.685 41.408 83.902 92.592 13.455-67 65.309 15.817 92.217-82.817-43.539z" fill="#fdba12" data-original="#fdba12" style="" class=""/></g><path d="m256 256 18.757 92.467-18.757 50.363-55.969 29.424 10.689-62.322-45.279-44.137 62.575-9.092z" fill="#ffe473" data-original="#ffe473" style=""/><path d="m256 256 27.984 56.703 62.575 9.092-45.279 44.137 10.689 62.322-55.969-29.424z" fill="#ffd400" data-original="#ffd400" style="" class=""/></g></g></g></svg>
