<?xml version="1.0" encoding="utf-8"?>
<svg version="1.1" id="Layer_1" xmlns="http://www.w3.org/2000/svg" xmlns:xlink="http://www.w3.org/1999/xlink" x="0px" y="0px"
	 viewBox="0 0 999 267" style="enable-background:new 0 0 999 267;" xml:space="preserve">
<g>
	<path id="path5" style="fill:#72EF36;" d="M181.7,71.7c-2.1-1.6-3.2-3.7-3.7-6.4C174.8,28.7,144,0,106.3,0S37.7,28.7,34.5,65.9
		c0,2.7-1.6,4.8-3.7,6.4C12.2,85,0,106.8,0,131.3c0,33.5,22.8,61.6,53.7,69.6l0,0c5.3,1.6,10.6,2.1,12.8,1.1
		c3.7-2.1,8.5-20.2,6.4-23.9c-1.1-2.1-6.4-4.3-11.7-5.3l0,0c-18.1-4.8-31.4-21.3-31.4-40.9c0-11.2,4.3-20.7,11.2-28.7
		c3.2-3.2,6.9-6.4,10.6-8.5c8-4.3,12.2-12.8,12.2-21.8l0,0c0-4.8,0.5-9,2.1-13.3c5.3-17,21.8-29.2,40.4-29.2s35.1,12.2,40.4,29.2
		c1.6,4.3,2.1,8.5,2.1,13.3l0,0c0,9,4.8,17,12.2,21.8c4.3,2.1,7.4,5.3,10.6,8.5c6.9,7.4,11.2,17.5,11.2,28.7
		c0,23.4-19.1,42.5-42.5,42.5c-27.1,0-48.9,22.3-48.9,49.4v28.2c0,5.3,0.5,11.2,2.1,12.8c3.2,3.2,21.8,3.2,25,0
		c1.6-1.6,2.1-6.9,2.1-12.8l0,0v-28.7c0-10.6,8.5-19.1,19.1-19.1c39.9,0,72.3-32.4,72.3-72.3C212.6,106.8,200.3,85,181.7,71.7
		L181.7,71.7z"/>
	<g id="g7" transform="matrix(5.3138298,0,0,5.3138298,-370.25135,12.420838)">
		<g id="g9">
			<path id="path11" style="fill:#19383A;" d="M164,33.2h-4.1v-1.4c-1.3,1.3-2.9,1.9-4.9,1.9c-1.9,0-3.4-0.6-4.5-1.8
				s-1.7-2.8-1.7-4.7v-9.5h4.1v8.7c0,1.1,0.3,2,0.9,2.7c0.6,0.7,1.3,1,2.3,1c2.6,0,3.9-1.8,3.9-5.4v-6.9h4.1v15.4H164z"/>
			<path id="path13" style="fill:#19383A;" d="M191.1,18.9c1.2,1.2,1.8,2.7,1.8,4.6v9.8h-4.1v-8.9c0-1-0.3-1.8-0.9-2.5
				c-0.6-0.6-1.3-0.9-2.2-0.9c-1.1,0-2,0.4-2.7,1.2c-0.6,0.8-1,2-1,3.6v7.5h-4.1v-8.9c0-1-0.3-1.8-0.9-2.5c-0.6-0.6-1.3-0.9-2.2-0.9
				c-1.1,0-2,0.4-2.6,1.2c-0.6,0.8-0.9,2-0.9,3.6v7.5h-4.1V17.6h4.1v1.3c1.2-1.2,2.7-1.8,4.7-1.8c2.3,0,4,0.9,5.1,2.6
				c1.4-1.7,3.3-2.6,5.7-2.6C188.5,17.1,189.9,17.7,191.1,18.9L191.1,18.9z"/>
			<path id="path15" style="fill:#19383A;" d="M208.7,32.5c-1.4,0.8-2.8,1.2-4.1,1.2c-1.9,0-3.4-0.5-4.5-1.6c-1.1-1-1.6-2.6-1.6-4.7
				v-6.5h-3.4v-3.4h3.4v-4.7h4.1v4.7h5.1v3.4h-5.1v6.2c0,1.8,0.8,2.7,2.3,2.7c0.8,0,1.7-0.3,2.6-0.8L208.7,32.5L208.7,32.5z"/>
			<path id="path17" style="fill:#19383A;" d="M222.3,17.5l-0.2,4h-0.9c-3.7,0-5.6,2.2-5.6,6.7v5h-4.1V17.6h4.1v2.9
				c1.4-2,3.3-3.1,5.6-3.1C221.7,17.4,222.1,17.4,222.3,17.5L222.3,17.5z"/>
			<path id="path19" style="fill:#19383A;" d="M239.4,26.5h-11.9c0.2,1.1,0.7,2,1.4,2.6c0.7,0.7,1.6,1,2.5,1c1.8,0,3.1-0.7,3.9-2.1
				l3.7,0.8c-0.7,1.6-1.7,2.8-3,3.6s-2.9,1.2-4.6,1.2c-2.3,0-4.2-0.8-5.7-2.3s-2.3-3.5-2.3-6c0-2.4,0.8-4.4,2.3-6
				c1.6-1.6,3.5-2.3,5.8-2.3c2.1,0,4,0.7,5.5,2.2s2.3,3.4,2.4,5.8L239.4,26.5L239.4,26.5z M229.1,21.5c-0.7,0.5-1.2,1.2-1.5,2.1h7.6
				c-0.3-1-0.7-1.7-1.4-2.2s-1.4-0.7-2.3-0.7C230.6,20.7,229.8,21,229.1,21.5L229.1,21.5z"/>
			<path id="path21" style="fill:#19383A;" d="M257.7,26.5h-11.9c0.2,1.1,0.7,2,1.4,2.6c0.7,0.7,1.6,1,2.5,1c1.8,0,3.1-0.7,3.9-2.1
				l3.7,0.8c-0.7,1.6-1.7,2.8-3,3.6s-2.9,1.2-4.6,1.2c-2.3,0-4.2-0.8-5.7-2.3s-2.3-3.5-2.3-6c0-2.4,0.8-4.4,2.3-6
				c1.6-1.6,3.5-2.3,5.8-2.3c2.1,0,4,0.7,5.5,2.2s2.3,3.4,2.4,5.8L257.7,26.5L257.7,26.5z M247.4,21.5c-0.7,0.5-1.2,1.2-1.5,2.1h7.6
				c-0.3-1-0.7-1.7-1.4-2.2s-1.4-0.7-2.3-0.7C248.9,20.7,248.1,21,247.4,21.5L247.4,21.5z"/>
			<path id="path23" style="fill:#19383A;" d="M134.3,21v3.9h7c-0.4,1.5-1.1,2.7-2.2,3.6c-1.1,0.9-2.5,1.3-4.1,1.3c-2,0-3.6-0.7-5-2
				c-1.3-1.3-2-3-2-5s0.6-3.6,1.9-5c1.3-1.3,2.9-2,4.8-2c2.7,0,4.7,1,6,3.1l3.5-2.3c-0.8-1.3-1.8-2.4-3.2-3.2
				c-1.8-1.1-3.9-1.6-6.2-1.6c-3.1,0-5.7,1.1-7.8,3.2c-2.1,2.1-3.3,4.7-3.3,7.7c0,3.1,1.1,5.7,3.2,7.8c2.2,2.1,4.8,3.2,7.9,3.2
				c3.1,0,5.6-1,7.6-3.1s3-4.7,3-7.8c0-0.5,0-1.1-0.1-1.8L134.3,21L134.3,21z"/>
		</g>
	</g>
</g>
</svg>
