<svg xmlns="http://www.w3.org/2000/svg" viewBox="0 0 500 500" xmlns:v="https://vecta.io/nano"><path d="M217.4 161.2h.2c1.5 1.8 3.3 3.3 4.9 5l11.1 11.1v.2l-16.1 16.1-16.2-16.2c.3-.5.8-.9 1.2-1.3l14.9-14.9z"/><path d="M217.4 161.2h0 .2 0 0c1.5 1.8 3.3 3.3 4.9 5h0l11.1 11.1h0 0v.2h0 0l-16.1 16.1h0 0l-16.2-16.2h0 0c.3-.5.8-.9 1.2-1.3h0 0l14.9-14.9h0 0 0 0l-14.9 14.9h0c-.4.4-.9.8-1.2 1.3h0 0l16.2 16.2h0 0l16.1-16.1h0v-.2h0 0l-11.1-11.1h0 0l-4.9-5h0-.2 0 0 0zm32.4 0h.2c.2.2.3.4.5.6l15.6 15.5c-.1.3-.4.5-.6.7l-15.6 15.5-16.2-16.1 16.1-16.2z"/><path d="M249.8 161.2h0 .2 0 0c.2.2.3.4.5.6h0l15.6 15.5h0 0c-.1.3-.4.5-.6.7l-15.6 15.5h0 0l-16.2-16.1h0 0l16.1-16.2h0 0 0 0l-16.1 16.3h0 0c5.5 5.3 10.8 10.8 16.2 16.1h0 0l15.6-15.5c.2-.2.5-.4.6-.7h0 0l-15.6-15.5h0c-.2-.2-.3-.4-.5-.6h0l-.2-.1h0 0 0zm32.4 0h.2c1 1.2 2.2 2.2 3.3 3.4l12.2 12.2c.2.2.5.4.6.8-5.5 5.3-10.7 10.8-16.2 16.1l-15.4-15.4c-.3-.3-.6-.5-.7-.8l8.1-8.1c2.6-2.8 5.3-5.5 7.9-8.2z"/><path d="M282.2 161.2h0 .2 0 0c1 1.2 2.2 2.2 3.3 3.4h0l12.2 12.2h0 0c.2.2.5.4.6.7h0 0c-5.5 5.3-10.7 10.8-16.2 16.1h0 0l-15.4-15.4h0 0c-.3-.3-.6-.5-.7-.8h0 0l8.1-8.1h0 0l7.9-8.1h0 0 0 0c-2.6 2.7-5.3 5.3-8 8h0l-8.1 8.1h0 0c.1.4.5.6.7.8h0 0l15.4 15.4h0 0c5.5-5.3 10.8-10.8 16.2-16.1h0 0c-.1-.3-.4-.5-.6-.8h0 0l-12.2-12.2h0 0c-1.1-1.1-2.3-2.2-3.3-3.4h0l-.1.2h0 0 0zm-48.3 48.4l15.9-15.9.2.1 16 16c-.2.4-.6.6-.8 1l-11.6 11.6-3.7 3.7-5.3-5.2-10.9-10.8c.1-.3.2-.4.2-.5z"/><path d="M233.9 209.6h0l15.9-15.9h0 0l.2.1h0 0l16 16h0 0c-.2.4-.5.6-.8 1h0 0l-11.6 11.6-3.7 3.7h0 0l-5.3-5.2-10.9-10.8h0 0c.1-.3.2-.4.2-.5h0 0 0 0c-.1.1-.1.2-.2.3h0 0l10.9 10.8 5.3 5.2h0 0c1.3-1.1 2.5-2.5 3.7-3.7l11.6-11.6h0 0c.3-.3.7-.6.8-1h0 0l-16-16h0l-.2-.1h0 0l-15.9 16.1h0 0 0zM67.5 279.2h48.3v11.6H98.4v45.7c0 .8.1 1.5-.1 2.3H84.9v-48H67.5v-11.6z"/><path d="M67.5 279.2h0 48.3 0 0v5.8 5.8h0 0-17.4 0 0v45.7.4.6c0 .4 0 .8-.1 1.3h0 0-13.4 0 0v-24-24h0 0-17.4 0 0v-11.6h0 0 0 0v11.6h0 17.4 0 0v24 24h0 13.5 0c.1-.4.1-.8.1-1.3v-.6-.4-45.7h0 0 17.4 0 0V285v-5.8h0 0-48.4 0 0 0zm88.7 0h13.6l-.1 59.5h-13.5l-.1-15.8.1-43.7z"/><path d="M156.2 279.2h0 13.6 0 0v9.5 24.2l-.1 25.8h0 0-13.5 0 0v-7.9-4-4-21.9-21.7h0 0 0 0v21.9V323v4 4 7.9h0 13.5 0l.1-25.8v-24.2-9.5h0 0c-4.6-.2-9.1-.2-13.6-.2h0 0 0zm239.1 0h13.6v47.6h23.6v11.9h-37.2v-59.5z"/><path d="M395.3 279.2h0 13.6 0 0v47.6h0 0 11.9 11.7 0 0v11.9h-37.1 0 0v-21.1-29.2l-.1-9.2h0 0 0 0v9.2 29.2 21.1h0 37.2v-12h0-11.7-11.9 0 0v-47.6h0 0l-13.6.1h0 0 0zm-127.5 20c-1.4-4.7-4-8.9-7.7-12.1-4.8-4.3-11.2-6.6-17.5-7.5-3.6-.5-7.2-.4-10.9-.4h-16.1c-.3 0-.6 0-.9.1l.1 59c0 .1-.1.4-.1.5H238c2.1-.4 4.2-.4 6.3-.8 7-1.3 13.8-4.8 18.4-10.3 3.4-4 5.5-9.1 6.2-14.3.5-4.7.2-9.6-1.1-14.2zM252.5 319c-1.7 2.7-4.2 4.8-7.1 6.1-2.6 1.2-5.5 1.8-8.4 1.8h-9c-.2-3.3 0-6.7-.1-10v-26.1h9.3c4.7.1 9.4 1.7 12.8 5 3 2.9 4.7 7.1 5 11.3.4 4.1-.3 8.4-2.5 11.9z"/><path d="M267.8 299.2h0c-1.3-4.7-4-8.9-7.7-12.1-4.9-4.3-11.2-6.6-17.5-7.5-2.4-.4-4.9-.4-7.4-.4h-2.5-1-16.1c-.3 0-.6 0-.9.1h0 0v22.9 18.6 17.5h0 0c0 .1-.1.4-.1.5h0H238h0c2.1-.4 4.2-.4 6.3-.8 7-1.3 13.8-4.8 18.4-10.3 3.4-4 5.5-9.1 6.2-14.3.2-1.6.3-3.2.3-4.8-.1-3.2-.5-6.4-1.4-9.4h0 0c.9 3 1.3 6.2 1.3 9.4 0 1.6-.1 3.2-.3 4.8-.7 5.2-2.8 10.2-6.2 14.3-4.6 5.5-11.3 9-18.4 10.3-2.1.5-4.2.4-6.3.8h0 0-23.2 0 0c0-.1.1-.4.1-.5h0 0v-17.5-18.6-22.9h0 0c.3-.1.6-.1.9-.1h16.1 1 2.5c2.5 0 4.9 0 7.4.4 6.4.8 12.7 3.2 17.5 7.5 3.6 3.2 6.2 7.4 7.6 12.1h0zM252.5 319h0c-1.7 2.7-4.2 4.8-7.1 6.1-2.6 1.2-5.5 1.8-8.4 1.8h-4.5-4.5 0 0c-.1-1.4-.1-2.7-.1-4.1v-4-1.9-26.1h0 0 9.3c4.7.1 9.4 1.7 12.8 5 3 2.9 4.7 7.1 5 11.3 0 .5.1 1.1.1 1.6.1 3.6-.7 7.2-2.6 10.3h0 0c1.9-3.1 2.7-6.7 2.7-10.2 0-.5 0-1.1-.1-1.6-.3-4.2-2-8.3-5-11.3-3.4-3.3-8.1-4.9-12.8-5H228h0 0V317v1.9 4c0 1.4 0 2.7.1 4.1h0 0 4.5 4.5c2.9-.1 5.8-.6 8.4-1.8 2.8-1.4 5.3-3.5 7-6.2h0zm101 5.8l-17.1-41.4c-.5-1.4-1.1-2.8-1.7-4.1-4.7-.1-9.3-.1-14 0l-24 57.6c-.3.6-.6 1.2-.7 1.9h14.4c1.4-4 3-7.9 4.4-11.9l24.6-.1c.4-.1.6.3.7.6l4.1 11.3h14.9c-1.7-4.6-3.7-9.2-5.6-13.9zm-34.7-8.4c-.1-.5.3-1 .4-1.5l8.3-21.5c.1 0 .2-.1.2-.1l8.6 22.6v.4l-17.5.1z"/><path d="M353.5 324.8h0l-17-41.4c-.5-1.4-1.1-2.8-1.7-4.1h0 0c-2.3 0-4.7-.1-7-.1s-4.7 0-7 .1h0 0l-24 57.6c-.3.6-.6 1.2-.7 1.9h0 14.5 0c1.4-4 3-7.9 4.4-11.9h0 0c3.3-.1 6.7-.1 10-.1h11.7 3 0 0 .1c.3 0 .4.4.5.6l4.1 11.3h0 14.9 0l-5.8-13.9h0 0l5.7 14h0 0-14.9 0 0l-4.1-11.3c-.1-.3-.2-.7-.5-.7h-.1 0 0-3-11.7l-10 .1h0 0c-1.4 4-3 7.9-4.4 11.9h0 0-14.4 0 0c.1-.7.4-1.3.7-1.9l24-57.6h0 0l7-.1 7 .1h0 0c.6 1.3 1.2 2.7 1.7 4.1l17 41.4h0zm-34.7-8.4h0v-.2c0-.5.3-.9.4-1.3h0 0l8.3-21.5h0 0 .2 0 0l8.6 22.6h0 0v.4h0 0-8.7c-3-.1-5.9-.1-8.8 0h0 0 0 0 8.7 8.7 0 0v-.4h0 0l-8.6-22.6h0 0c-.1 0-.2 0-.2.1h0 0l-8.3 21.5h0 0c-.1.4-.4.8-.4 1.3l.1.1h0 0 0z"/></svg>