<?xml version="1.0" encoding="utf-8"?>
<svg version="1.1" id="Layer_1" xmlns="http://www.w3.org/2000/svg" xmlns:xlink="http://www.w3.org/1999/xlink" x="0px" y="0px"
	width="100px" height="100px" viewBox="0 0 72.2 72.2" style="enable-background:new 0 0 72.2 72.2;" xml:space="preserve">
<g>
	<circle style="fill:#E8E8E8;" cx="36.1" cy="36.1" r="36.1"/>
	<circle style="fill:#FFFFFF;" cx="36.1" cy="36.1" r="35.4"/>
	<path style="fill:#252158;" d="M59.9,33.9c0-1.3-0.6-2.5-1.8-3.1l1.2-1.9c0.4,0.9,1,1.7,1,3C60.4,32.5,60.2,33.3,59.9,33.9
		 M58.8,35.2c-0.5,0.4-1,0.6-1.7,0.6c-0.8,0-1.5-0.4-1.9-0.9c0.9-1,1.7-2.2,2.5-3.3c0.9,0.5,1.3,1.7,1.3,2.7L58.8,35.2 M54.8,34
		c-0.1-0.2-0.1-0.4-0.1-0.6c0-1.2,0.8-2,1.9-2h0.2L54.8,34 M42.4,39c-0.4,0-0.5-0.3-0.5-0.9c0-1.7,1.6-5.4,4-7.6
		c0.3,0.4,0.4,1,0.4,1.7C46.3,35.2,43.7,39,42.4,39 M32.4,41.2c-0.4,0-0.5-0.3-0.5-0.8c0-2.2,3.8-9.7,5.8-9.7c0.4,0,0.5,0.3,0.5,0.9
		C38.2,33.8,34.4,41.2,32.4,41.2 M26.8,33.5c-0.5-0.5-1-0.9-1.5-1.2c1.3-2.7,2.7-5.3,4.6-7.2c0.6,0.6,0.9,1.5,0.9,2.5
		C30.9,30.2,29.1,32.5,26.8,33.5 M19.6,46.1c-0.5,0-1-0.1-1.4-0.2c2.3-2.5,4-6.6,5.8-10.8c0.8,0,1.5-0.1,2.2-0.2
		c0.4,0.8,0.6,1.7,0.6,2.9C26.8,41.5,24,46.1,19.6,46.1 M16.5,44.9c-0.7-0.6-1.1-1.6-1.1-2.3c0-0.4,0.1-0.7,0.3-1
		c0.2,0.5,0.8,0.9,1.5,0.9c0.3,0,0.5-0.1,0.7-0.1C17.5,43.4,17,44.2,16.5,44.9 M21.4,32.7c0-0.5,0.6-0.6,1.2-0.5L22,33.5
		C21.6,33.3,21.4,33,21.4,32.7 M24.8,33.2c0.2,0.2,0.5,0.4,0.7,0.7c-0.4,0.1-0.7,0.1-1.1,0.1C24.6,33.8,24.7,33.5,24.8,33.2
		 M59.8,28.1c0.4-0.5,0.7-1.2,0.7-1.6c0-0.3-0.1-0.5-0.5-0.5c-0.5,0-1.1,0.6-1.1,1.5v0.4l-1.7,2.6c-0.2,0-0.4-0.1-0.6-0.1
		c-1.4,0-2.9,1.1-2.9,3c0,0.5,0.1,1,0.2,1.4c-1.2,1.4-2.2,2.2-3,2.2c-0.3,0-0.4-0.1-0.4-0.5c0-0.4,0.1-0.9,0.5-1.7l4.1-9.2l4.5-0.5
		l0.5-1.1l-4.3,0.1l0.7-1.7l-1.7,0.2l-0.7,1.5l-6.1,0.2L47,26.7l6.3-0.7l-1.3,2.5c-0.6-0.3-1.4-0.4-2.4-0.4c-1.4,0-2.7,0.4-3.8,0.9
		c-0.5-0.2-1.2-0.4-1.7-0.4c-1.4,0-3.1,0.7-4.5,1.9c-0.3-0.9-0.9-1.4-1.7-1.4c-1,0-2,0.5-3,1.4c-0.6-0.5-1.4-0.6-2.4-0.3
		c0.5-0.9,0.7-1.9,0.7-2.9c0-1.7-0.8-3-2.2-3.7c0.5-0.4,1-0.7,1.6-1.1c-0.2-0.1-0.4-0.3-0.5-0.4c-0.7,0.3-1.4,0.6-2,1
		c-0.9-0.3-2-0.4-3.2-0.4c-5.8,0-11.2,3.3-11.2,7.4c0,1.8,1,2.5,2,2.5c0.9,0,1.9-0.5,2.2-1.2c-0.8-0.1-1.3-0.9-1.3-1.8
		c0-3.2,3.9-6,7.9-6c0.9,0,1.7,0.1,2.3,0.5c-2.5,1.9-4.3,4.4-5.8,7.1c-0.2,0-0.4-0.1-0.6-0.1c-1.2,0-1.9,0.5-1.9,1.4
		c0,0.6,0.4,1.2,1.1,1.6c-0.9,1.9-1.8,4-2.6,5.8c-0.3-0.6-0.9-0.9-1.7-0.9c-1.7,0-3,1.5-3,3.5c0,1.2,0.5,2.5,1.4,3.4
		c-0.8,0.9-1.7,1.4-2.7,1.5c-0.4,0-0.6-0.1-1-0.2c0.8-0.1,1.5-0.7,1.5-1.5c0-0.8-0.6-1.4-1.6-1.4c-1.1,0-1.7,0.9-1.7,1.8
		c0.1,1.5,1.3,2.3,3,2.2c1.4,0,2.7-0.6,3.8-1.4c1.1,0.6,2.4,1.1,3.8,1.1c4.4,0,8.2-3.8,8.2-8.9c0-2-0.5-3.6-1.3-4.8
		c1.4-0.5,2.6-1.3,3.7-2.3c1.4-1.4,2.4-1.2,3-0.9c-2.3,2.4-4.1,6.2-4.1,8.8c0,1.6,0.6,2.6,1.9,2.6c3.7,0,8.1-7.1,8-11
		c1.2-1.3,2.7-2.1,4-2.1c0.2,0,0.4,0,0.6,0.1c-2.9,2-4.7,5.5-4.7,8.2c0,1.4,0.7,2.5,2,2.5c2.5,0,5.8-4,5.8-7.9
		c0-1.2-0.4-2.1-0.9-2.7c0.9-0.5,1.9-0.9,2.9-0.9c0.6,0,1.2,0.1,1.8,0.4l-2.5,5.1c-0.6,1.2-0.8,2.2-0.8,2.8c0,1,0.6,1.5,1.5,1.5
		c1.4,0,3-1.3,4.6-3.1c0.7,0.9,1.8,1.2,2.7,1.2c0.3,0,0.6,0,0.9-0.1c-0.6,0.9-1.8,1.5-3.5,1.9l-22,5.6c-3.3,0.8-5.4,2.5-4.4,5.6
		c0.7-0.6,2.2-1.2,5.7-2.3l20-6.1c3-0.9,4.8-3,5.6-5.1c1.4-0.6,2.6-1.9,2.6-3.7C62,30.7,60.4,29.6,59.8,28.1"/>
</g>
</svg>
