<?xml version="1.0"?>
<svg xmlns="http://www.w3.org/2000/svg" xmlns:xlink="http://www.w3.org/1999/xlink" xmlns:svgjs="http://svgjs.com/svgjs" version="1.1" width="512" height="512" x="0" y="0" viewBox="0 0 512 512" style="enable-background:new 0 0 512 512" xml:space="preserve" class=""><g><g xmlns="http://www.w3.org/2000/svg"><path d="m512 256c0 84.521-40.964 159.46-104.118 206.08 0 0-93.136-6.845-150-6.845-55.194 0-150 9.589-150 9.589-65.287-46.392-107.882-122.634-107.882-208.824 0-141.385 114.615-256 256-256s256 114.615 256 256z" fill="#f1f1f1" data-original="#1dd882" style="" class=""/><path d="m415.192 196.255-106.488-106.488-137.939 137.938-61.296-61.296-36.493 36.493 42.649 42.649-18.763 18.763 18.647 18.647-15.875 15.875 16.971 16.971-11.331 11.331 15.668 15.668-17.099 17.099 97.396 97.396c20.027-1.205 40.112-2.066 56.644-2.066 56.864 0 150 6.845 150 6.845 63.153-46.62 104.117-121.559 104.117-206.08 0-8.002-.386-15.914-1.104-23.729l-65.86-65.86z" fill="#f1f1f1" data-original="#2cc47f" style="" class=""/><path d="m107.882 454.885v9.938c14.019 9.962 29.085 18.547 45 25.56l55.588-8.5 49.412 30.094 23.588-56.741-23.588-50.29-18.765-9.24-20.546 9.24h-60.75c-27.58 0-49.939 22.358-49.939 49.939z" fill="#f4d7b2" data-original="#f4d7b2" style="" class=""/><path d="m357.943 404.946h-60.75l-19.655-9.24-19.655 9.24v107.03l50.471-26.741 54.53 3.437c15.951-7.339 31.019-16.271 44.999-26.592v-7.195c-.001-27.581-22.359-49.939-49.94-49.939z" fill="#edb998" data-original="#edb998" style="" class=""/><path d="m152.882 490.364c31.55 13.902 66.428 21.636 103.118 21.636.629 0 1.254-.019 1.882-.024l23.588-27.564-23.588-29.176h-105z" fill="#e6e4f0" data-original="#e6e4f0" style="" class=""/><path d="m257.882 511.976c37.462-.27 73.007-8.583 105-23.304v-33.437h-105z" fill="#cdcde3" data-original="#cdcde3" style="" class=""/><path d="m218.572 335.647v69.299h39.31l16.765-34.65-16.765-34.649z" fill="#edb998" data-original="#edb998" style="" class=""/><path d="m257.882 335.647h39.311v69.299h-39.311z" fill="#e69768" data-original="#e69768" style="" class=""/><path d="m150.002 231.833c-10.513 1.739-18.532 10.867-18.532 21.873 0 12.024 9.571 21.806 21.51 22.16 9.237 33.192 33.802 59.996 65.591 72.309 12.194 4.723 25.449 7.319 39.311 7.319l36.44-100.576-36.44-117.189c-55.12 0-100.667 40.961-107.88 94.104z" fill="#f4d7b2" data-original="#f4d7b2" style="" class=""/><path d="m365.762 231.833c10.513 1.739 18.532 10.867 18.532 21.873 0 12.024-9.571 21.806-21.51 22.16-9.237 33.192-33.802 59.996-65.591 72.309-12.194 4.723-25.449 7.319-39.311 7.319v-217.765c55.121 0 100.668 40.961 107.88 94.104z" fill="#edb998" data-original="#edb998" style="" class=""/><circle cx="218.919" cy="240.159" fill="#20254d" r="15" data-original="#20254d" style=""/><circle cx="296.846" cy="240.159" fill="#141835" r="15" data-original="#141835" style=""/><path d="m211.975 217.059h-42.269v-45.907h88.176c0 25.354-20.553 45.907-45.907 45.907z" fill="#20254d" data-original="#20254d" style=""/><path d="m303.789 217.059h42.269v-45.907h-88.176c0 25.354 20.554 45.907 45.907 45.907z" fill="#141835" data-original="#141835" style=""/><path d="m256 68.01c-45.662-.296-79.139 40.337-74.762 84.921h76.645l15.353-42.437-15.353-42.437c-.628-.015-1.252-.047-1.883-.047z" fill="#bab7d6" data-original="#bab7d6" style="" class=""/><path d="m330.762 142.772c0-40.659-32.463-73.713-72.88-74.715v84.873h72.88z" fill="#cdcde3" data-original="#cdcde3" style="" class=""/><path d="m257.882 110.471h-26.358c-45.024 0-81.523 49.981-81.523 95.005v26.358l107.88-65.245 19.655-27.089z" fill="#e6e4f0" data-original="#e6e4f0" style="" class=""/><path d="m257.656 110.471c-18.88 0-34.185 15.305-34.185 34.185 0 13.365 7.788 25.504 19.937 31.074l14.475 6.637 19.655-34.529z" fill="#cdcde3" data-original="#cdcde3" style="" class=""/><path d="m365.762 205.475c0-45.023-36.499-95.004-81.523-95.004h-26.357v71.896l107.88 49.466z" fill="#bab7d6" data-original="#bab7d6" style="" class=""/><path d="m129.794 341.403-23.303-47.119c1.529.463 3.15.717 4.83.717 23.416-.233 15.355-32.348 16.663-46.843 0-13.083-7.543-24.399-18.515-29.854v-51.894h-38.738v128.592h.1l30.026 60.712c3.952 7.991 13.633 11.265 21.624 7.313s11.265-13.633 7.313-21.624z" fill="#f4d7b2" data-original="#f4d7b2" style="" class=""/><path d="m406.295 166.41v51.896c-10.971 5.454-18.515 16.77-18.515 29.854 1.312 14.532-6.757 46.594 16.663 46.842 1.681 0 3.301-.254 4.83-.717l-23.303 47.119c-3.952 7.99-.678 17.672 7.313 21.624s17.672.678 21.624-7.313l30.026-60.712h.1c0-35.712 0-92.88 0-128.592h-38.738z" fill="#edb998" data-original="#edb998" style="" class=""/></g></g></svg>
