<?xml version="1.0"?>
<svg xmlns="http://www.w3.org/2000/svg" xmlns:xlink="http://www.w3.org/1999/xlink" xmlns:svgjs="http://svgjs.com/svgjs" version="1.1" width="512" height="512" x="0" y="0" viewBox="0 0 512 512" style="enable-background:new 0 0 512 512" xml:space="preserve" class=""><g><g xmlns="http://www.w3.org/2000/svg"><circle cx="256" cy="256" fill="#f1f1f1" r="256" data-original="#00d65b" style="" class=""/><path d="m512 256c0-6.284-.237-12.511-.682-18.681l-118.318-118.318-32.5 32.5-32.5-32.5-29.004 29.004-29.004-29.004-28.996 28.996-28.997-28.996-28.999 28.999-29-28.999-35 34.995 29.002 29.002-29.002 29.004 28.999 28.999-28.999 28.999 28.999 28.999-28.999 28.998 32.501 32.501-32.501 32.501 118.319 118.319c6.17.445 12.397.682 18.681.682 141.385 0 256-114.615 256-256z" fill="#f1f1f1" data-original="#06bf51" style="" class=""/><path d="m242 119c0 8.284-6.716 15-15 15s-15-6.716-15-15h-28c0 8.284-6.716 15-15 15s-15-6.716-15-15h-35v35c8.284 0 15 6.716 15 15s-6.716 15-15 15v28c8.284 0 15 6.716 15 15s-6.716 15-15 15v28c8.284 0 15 6.716 15 15s-6.716 15-15 15v28c8.284 0 15 6.716 15 15s-6.716 15-15 15v35h35c0-8.284 6.716-15 15-15s15 6.716 15 15h28c0-8.284 6.716-15 15-15s15 6.716 15 15h14l32.765-139.149-32.765-134.851z" fill="#5f97fb" data-original="#5f97fb" style="" class=""/><path d="m270 119c0 8.284 6.716 15 15 15s15-6.716 15-15h28c0 8.284 6.716 15 15 15s15-6.716 15-15h35v35c-8.284 0-15 6.716-15 15s6.716 15 15 15v28c-8.284 0-15 6.716-15 15s6.716 15 15 15v28c-8.284 0-15 6.716-15 15s6.716 15 15 15v28c-8.284 0-15 6.716-15 15s6.716 15 15 15v35h-35c0-8.284-6.716-15-15-15s-15 6.716-15 15h-28c0-8.284-6.716-15-15-15s-15 6.716-15 15h-14v-274z" fill="#5688e1" data-original="#5688e1" style="" class=""/><path d="m256 154h-102v204h102l20.059-102z" fill="#b3cfcf" data-original="#e8f1f1" style="" class=""/><path d="m256 154h102v204h-102z" fill="#9ab3b3" data-original="#d4e4e4" style="" class=""/><g fill="#ff633d"><path d="m247.695 287.908-54.53 4.875-54.529-4.875v-15l54.529 4.875 54.53-4.875z" fill="#ff633d" data-original="#ff633d" style="" class=""/><path d="m247.695 258.913-54.53 4.875-54.529-4.875v-15l54.529 4.875 54.53-4.875z" fill="#ff633d" data-original="#ff633d" style="" class=""/><path d="m247.695 317.904-54.53 4.875-54.529-4.875v-15l54.529 4.875 54.53-4.875z" fill="#ff633d" data-original="#ff633d" style="" class=""/></g><circle cx="307" cy="278.637" fill="#ee2600" r="40" data-original="#ee2600" style=""/></g></g></svg>
