<?xml version="1.0" encoding="utf-8"?>
<svg version="1.1" id="Layer_1" xmlns="http://www.w3.org/2000/svg" xmlns:xlink="http://www.w3.org/1999/xlink" x="0px" y="0px"
	 viewBox="0 0 934.4 286.98" style="enable-background:new 0 0 934.4 286.98;" xml:space="preserve">
<g>
	<path style="fill:#006BB6;" d="M57.6,73.73v32.26h0.77c10.75-24.83,30.98-36.35,58.11-36.35c27.65,0,45.06,11.52,57.34,36.35
		c10.75-24.83,35.07-36.35,60.93-36.35c18.43,0,38.66,6.66,51.2,21.5c14.08,16.64,11.01,40.45,11.01,61.44v130.56h-60.67V172.29
		c0-8.19,0.77-28.93-1.28-36.61c-3.33-13.31-13.31-16.9-25.86-16.9c-10.75,0-22.02,6.14-26.37,16.13c-4.61,9.98-4.1,26.37-4.1,37.38
		v110.85h-60.67V172.29c0-21.76,4.1-54.02-27.14-54.02c-31.74,0-30.46,31.23-30.46,54.02v110.85H0V73.73H57.6z M386.82,195.07
		c0,11.52,0.26,24.58,6.91,35.07c5.89,8.96,14.34,14.34,25.6,14.34c34.3,0,34.3-43.78,34.3-66.3c0-23.55,0-67.33-33.28-67.33
		c-29.18,0-33.28,31.74-33.28,54.02v30.21H386.82z M325.38,0h60.67v99.84h1.54c10.24-20.74,27.65-30.46,51.2-30.46
		c59.9,0,77.82,59.39,77.82,108.8c0,54.78-21.76,108.8-84.99,108.8c-29.95,0-44.54-11.26-59.65-36.35
		c-7.42,8.96-9.98,20.99-13.57,32.26h-33.02L325.38,0L325.38,0z M536.32,73.73h57.34v35.58h0.77c12.54-26.88,29.7-39.68,60.16-39.68
		c19.71,0,39.17,6.14,51.46,23.04c11.52,15.62,11.52,41.98,11.52,60.93v129.54H656.9V170.75c0-21.5,3.07-52.74-27.65-52.74
		c-10.75,0-20.48,6.14-25.6,15.62c-6.14,12.03-6.91,24.06-6.91,37.12v112.38h-60.42V73.73L536.32,73.73z M868.35,182.78
		c-23.04,2.56-65.54,7.68-65.54,38.4c0,16.38,9.98,27.65,26.88,27.65c12.29,0,23.55-6.66,30.46-17.41
		c8.7-13.31,8.19-25.6,8.19-40.45V182.78z M874.24,282.88c-2.56-10.75-3.33-21.76-2.82-32.51c-17.41,24.83-35.58,36.61-66.82,36.61
		c-37.12,0-66.05-19.71-66.05-59.39c0-30.98,19.46-51.97,47.1-62.21c23.81-8.96,57.34-10.75,82.94-13.06v-5.12
		c0-8.96,0.77-19.71-5.38-27.65c-5.38-7.17-15.62-9.98-24.83-9.98c-19.46,0-36.35,9.98-36.35,30.46l-57.34-5.38
		c6.14-50.69,55.55-65.54,99.84-65.54c21.5,0,49.41,4.86,66.3,18.94c21.5,17.41,19.46,40.45,19.46,65.54v97.79
		c0,10.75,0.77,20.99,4.1,31.23h-60.16V282.88z"/>
</g>
</svg>
