<?xml version="1.0" encoding="utf-8"?>
<svg version="1.1" id="Layer_1" xmlns="http://www.w3.org/2000/svg" xmlns:xlink="http://www.w3.org/1999/xlink" x="0px" y="0px"
	 viewBox="0 0 1280 1280" style="enable-background:new 0 0 1280 1280;" xml:space="preserve">
<g>
	<rect style="fill:#016FD0;" width="1280" height="1280"/>
	<g>
		<path style="fill:#FFFFFF;" d="M331.4,827.7V665.2h172.2l18.4,24.1l19-24.1h624.7v151.4c0,0-16.3,11.1-35.1,11.3H784.6l-20.8-25.6
			v25.4h-68.1V784c0,0-9.3,6-29.5,6h-23.3v37.7H539.6l-18.4-24.7l-18.6,24.7H331.4z M130.4,542.6l38.8-90.5h67.2l21.9,50.7v-50.7
			h83.5l13.2,36.7l12.6-36.7h374.4v18.4c0,0,19.6-18.4,52-18.4l121.5,0.4l21.5,50.1v-50.5h69.9l19.2,28.7v-28.7h70.5v162.5h-70.5
			l-18.4-28.7v28.7H905.4l-10.3-25.6h-27.6l-10.1,25.6h-69.5c-27.8,0-45.6-18.1-45.6-18.1v18.1H637.5l-21.2-25.4v25.6h-390
			l-10.3-25.6h-27.6l-10.3,25.6h-47.9v-72.2L130.4,542.6L130.4,542.6z"/>
		<line style="fill:none;" x1="99.2" y1="614.8" x2="169.3" y2="452.1"/>
		<polyline style="fill:#FFFFFF;" points="130.4,593.8 178.2,614.8 130.3,614.8 99.2,614.8 130.3,542.6 		"/>
		<polygon style="fill:#FFFFFF;" points="1130.5,827.9 1180.8,827.9 1180.8,665.2 1155.8,665.2 1133.8,690.1 1154,712.6 
			1081.6,726.6 1148.6,746.2 1159.1,746.6 1155.8,787.5 1137.3,809.9 		"/>
		<path style="fill:#016FD0;" d="M182.9,472.1l-52.4,121.7h34.2l9.7-24.5h56.1l9.5,24.5h34.7l-52.2-121.7H182.9z M202.3,500.4
			l17.1,42.5H185L202.3,500.4L202.3,500.4z M278.6,593.8V472.1l48.3,0.2l28.1,78.4l27.6-78.6h47.9v121.7h-30.5v-89.7l-32.2,89.7
			h-26.6l-32.4-89.7v89.7L278.6,593.8L278.6,593.8z M451.5,593.8V472.1h99.2v27.2h-68.5V520h67v25.6h-67v21.5h68.5v26.4L451.5,593.8
			L451.5,593.8z M568.4,472.1v121.7h30.5v-43.3h12.8l36.5,43.3h37.3l-40-44.8c16.5-1.4,33.4-15.5,33.4-37.5
			c0-25.6-20.2-39.4-42.5-39.4H568.4L568.4,472.1z M598.8,499.5h34.7c8.3,0,14.4,6.6,14.4,12.8c0,8.2-8,12.8-14,12.8h-35.1
			L598.8,499.5L598.8,499.5z M722.1,593.8h-31.1V472.1h31.1V593.8z M795.7,593.8h-6.6c-32.4,0-52.2-25.6-52.2-60.4
			c0-35.7,19.4-61.3,60.4-61.3h33.6v28.7h-34.9c-16.7,0-28.3,13-28.3,32.8c0,23.5,13.4,33.4,32.8,33.4h8L795.7,593.8L795.7,593.8z
			 M861.9,472.1l-52.4,121.7h34.2l9.7-24.5h56.1l9.5,24.5h34.7l-52-121.7H861.9z M881.3,500.4l17.1,42.5H864L881.3,500.4z
			 M957.6,593.8V472.1h38.6l49.3,76.5v-76.5h30.5v121.7h-37.5l-50.7-78.4v78.4L957.6,593.8L957.6,593.8z M352.1,806.9V685.2h99.2
			v27.2h-68.5v20.8h67v25.6h-67v21.5h68.5v26.4L352.1,806.9L352.1,806.9z M838.6,806.9V685.2h99.2v27.2h-68.5v20.8h66.6v25.6h-66.6
			v21.5h68.5v26.4L838.6,806.9L838.6,806.9z M455.4,806.9l48.3-60.2l-49.5-61.5h38.2l29.5,38l29.5-38h36.9L539.4,746l48.3,60.8
			h-38.2L521,769.3l-28,37.5h-37.7V806.9z M591.7,685.2v121.7h31.3v-38.4h32c27.2,0,47.6-14.4,47.6-42.3c0-23.1-16.1-41-43.7-41
			L591.7,685.2L591.7,685.2z M622.7,712.6h33.8c8.7,0,14.9,5.4,14.9,14c0,8.2-6.2,14-15.1,14h-33.6L622.7,712.6L622.7,712.6z
			 M715.7,685.2v121.7h30.5v-43.3H759l36.5,43.3h37.3l-40-44.8c16.5-1.4,33.4-15.5,33.4-37.5c0-25.6-20.2-39.4-42.5-39.4
			L715.7,685.2L715.7,685.2z M746.2,712.4h34.7c8.3,0,14.4,6.6,14.4,12.8c0,8.2-8,12.8-14,12.8h-35.1L746.2,712.4L746.2,712.4z
			 M952.1,806.9v-26.4h61c8.9,0,13-4.9,13-10.3c0-5-3.9-10.3-13-10.3h-27.6c-23.9,0-37.3-14.6-37.3-36.5c0-19.6,12.2-38.2,47.8-38.2
			h59.2l-12.8,27.4h-51.2c-9.7,0-12.8,5-12.8,10.1c0,5,3.7,10.7,11.3,10.7h28.7c26.6,0,38.2,15.1,38.2,34.9
			c0,21.4-12.8,38.8-39.6,38.8L952.1,806.9L952.1,806.9z M1063.8,806.9v-26.4h61c8.9,0,13-4.9,13-10.3c0-5-3.9-10.3-13-10.3h-27.6
			c-23.9,0-37.3-14.6-37.3-36.5c0-19.6,12.2-38.2,47.8-38.2h59.2l-12.8,27.4h-51.2c-9.7,0-12.8,5-12.8,10.1c0,5,3.7,10.7,11.3,10.7
			h28.7c26.6,0,38.2,15.1,38.2,34.9c0,21.4-12.8,38.8-39.6,38.8L1063.8,806.9L1063.8,806.9z"/>
	</g>
</g>
</svg>
