<?xml version="1.0" encoding="utf-8"?>
<svg version="1.1" id="Layer_1" xmlns="http://www.w3.org/2000/svg" xmlns:xlink="http://www.w3.org/1999/xlink" x="0px" y="0px"
	width="100px" height="100px" viewBox="0 0 1299.3 1299.3" style="enable-background:new 0 0 1299.3 1299.3;" xml:space="preserve">
<g>
	<circle style="fill:#E8E8E8;" cx="649.6" cy="649.6" r="649.6"/>
	<circle style="fill:#FFFFFF;" cx="649.6" cy="649.6" r="636.6"/>
</g>
<path style="fill:#34D186;" d="M905.5,404.6V773H818V423L905.5,404.6z M656.7,807.8c24.1,0,43.7,19.5,43.7,43.4
	s-19.6,43.4-43.7,43.4c-24.1,0-43.7-19.5-43.7-43.4C613,827.3,632.4,807.8,656.7,807.8z M656.7,509.2c74.4,0,134.9,59.9,134.9,133.7
	s-60.5,133.7-134.9,133.7c-74.6,0-134.9-59.9-134.9-133.7S582.2,509.2,656.7,509.2L656.7,509.2z M656.7,686.2
	c24.2,0,43.7-19.3,43.7-43.4c0-23.9-19.5-43.4-43.7-43.4c-24.2,0-43.7,19.3-43.7,43.4S632.4,686.2,656.7,686.2z M381.8,686.2
	c15,0,27.2-12.2,27.2-27.1S396.8,632,381.8,632h-65.6v54.2H381.8z M316.2,491.3v54.2h48.6c15,0,27.2-12.2,27.2-27.1
	c0-14.9-12.2-27.1-27.2-27.1H316.2z M462.2,578.2c21.1,20.7,34.2,49.4,34,81.1c0,62.9-51.3,113.7-114.7,113.7h-153V404.6h135.9
	c63.3,0,114.7,51,114.7,113.7C479.3,539.5,473.5,560.3,462.2,578.2z M1070.5,600.9h-43.5v67.9c0,20.6,6.7,35.8,24.2,35.8
	c11.2,0,19.5-2.5,19.5-2.5v63.8c0,0-18.1,10.8-42.6,10.8h-1.1c-1.1,0-2.1-0.2-3.2-0.2h-0.8c-0.5,0-1.1-0.2-1.6-0.2
	c-48.8-2.5-81.9-32.9-81.9-85.8V466.4l87.4-18.4v66.2h43.7v86.6H1070.5z"/>
</svg>
