<?xml version="1.0" encoding="utf-8"?>
<svg version="1.1" id="Layer_1" xmlns="http://www.w3.org/2000/svg" xmlns:xlink="http://www.w3.org/1999/xlink" x="0px" y="0px"
	width="100px" height="100px" viewBox="0 0 100 100" style="enable-background:new 0 0 100 100;" xml:space="preserve">
<g>
	<path style="fill:#E8E8E8;" d="M50,0c27.61,0,50,22.39,50,50s-22.39,50-50,50S0,77.61,0,50S22.39,0,50,0"/>
	<path style="fill:#FFFFFF;" d="M50,1c27.06,0,49,21.94,49,49S77.06,99,50,99S1,77.06,1,50S22.94,1,50,1"/>
	<g>
		<path style="fill:#E0341E;" d="M11.5,45.88h3.28v8.23H11.5V45.88z M19.33,54.3V45.7l5.55,3.29V45.7h3.13v8.59l-5.41-3.28v3.28
			H19.33z M36.02,51.73h0.81c0,0,1.42-0.04,1.42-1.75c0-1.71-1.37-1.76-1.37-1.76h-0.86V51.73z M32.66,54.3V45.7h4.89
			c0,0,4.03,0.27,4.03,4.27s-4.27,4.32-4.27,4.32H32.66z M45.71,45.88h3.28v8.23h-3.28V45.88z M53.35,45.7h8.54v2.56h-2.8v6.03H56
			v-6.03h-2.65V45.7z M66.35,45.7h7.54v2.11h-4.41v1.26h3.46v1.75h-3.46v1.26h4.51v2.21h-7.63V45.7z M78.06,45.7h3.75l1.43,2.16
			l1.52-2.16h3.75l-3.23,4.27l3.18,4.32H84.8l-1.61-2.16l-1.38,2.16h-3.75l3.28-4.32L78.06,45.7z"/>
	</g>
</g>
</svg>
