<?xml version="1.0" encoding="utf-8"?>
<svg version="1.1" id="Layer_1" xmlns="http://www.w3.org/2000/svg" xmlns:xlink="http://www.w3.org/1999/xlink" x="0px" y="0px"
	width="100px" height="100px" viewBox="0 0 100 100" style="enable-background:new 0 0 100 100;" xml:space="preserve">
<g>
	<path style="fill:#E8E8E8;" d="M50,0c27.61,0,50,22.39,50,50s-22.39,50-50,50S0,77.61,0,50S22.39,0,50,0"/>
	<path style="fill:#FFFFFF;" d="M50,1c27.06,0,49,21.94,49,49S77.06,99,50,99S1,77.06,1,50S22.94,1,50,1"/>
	<g>
		<path style="fill:#FFFFFF;" d="M24.58,24.58h50.84v50.84H24.58V24.58z"/>
		<path style="fill:#F96302;" d="M24.58,24.58h31.9c2.57,0,5.14-0.01,7.7,0.01c-0.71,0.72-1.44,1.44-2.15,2.16
			c0.28,0.3,0.58,0.58,0.86,0.87c0.65-0.45,1.39-0.81,2.19-0.86c0.72-0.07,1.45,0.11,2.11,0.4c0.25,0.11,0.49,0.28,0.77,0.3
			c0.28-0.02,0.49-0.26,0.58-0.51c0.08-0.17,0.01-0.37-0.13-0.5c-0.62-0.62-1.24-1.24-1.86-1.86c2.96-0.02,5.91,0,8.87-0.01
			c0,2.88,0.01,5.77,0,8.66c-0.61-0.6-1.2-1.21-1.8-1.8c-0.16-0.17-0.42-0.25-0.64-0.15c-0.14,0.07-0.28,0.18-0.35,0.34
			c-0.08,0.31,0.06,0.61,0.18,0.89c0.37,0.79,0.54,1.68,0.43,2.55c-0.07,0.59-0.29,1.17-0.61,1.68c-0.09,0.12-0.17,0.25-0.24,0.38
			c0.31,0.27,0.57,0.59,0.89,0.85c0.7-0.73,1.43-1.44,2.15-2.16c0,4.82,0.01,9.64,0,14.46c-0.14,0.05-0.29,0.14-0.44,0.07
			c-0.19-0.12-0.34-0.3-0.5-0.46c-1.73-1.72-3.44-3.45-5.18-5.17c-0.69,0.69-1.37,1.38-2.07,2.06c0.37,0.42,0.78,0.78,1.16,1.18
			c1.39,1.39,2.78,2.78,4.17,4.16c0.12,0.12,0.26,0.23,0.32,0.39c0.02,0.18-0.1,0.33-0.15,0.49c-0.07,0.19,0.08,0.41,0.28,0.42
			c0.18,0.03,0.33-0.09,0.44-0.2c0.65-0.66,1.31-1.31,1.96-1.96v24.16H51.26c0.62-0.62,1.24-1.23,1.86-1.85
			c-2.11-2.1-4.21-4.21-6.32-6.32c-0.69,0.66-1.35,1.35-2.03,2.02c-0.14,0.15-0.3,0.29-0.37,0.5c-0.03,0.2,0.15,0.38,0.34,0.4
			c0.17-0.02,0.31-0.13,0.49-0.17c0.15-0.01,0.27,0.11,0.37,0.2c1.25,1.26,2.5,2.51,3.76,3.76c0.31,0.33,0.66,0.63,0.95,0.97
			c0.13,0.15,0.04,0.34-0.03,0.49H35.82l3.41-3.41c0.21-0.2,0.43-0.44,0.46-0.75c0.05-0.36-0.31-0.72-0.67-0.64
			c-0.3,0.06-0.54,0.29-0.85,0.29c-0.2-0.02-0.35-0.16-0.48-0.29c-2.72-2.71-5.43-5.43-8.14-8.14c-0.18-0.18-0.4-0.36-0.46-0.62
			c-0.01-0.31,0.21-0.56,0.29-0.84c0.1-0.36-0.23-0.75-0.6-0.72c-0.25,0.02-0.47,0.16-0.65,0.34c-1.17,1.19-2.37,2.36-3.54,3.56
			C24.58,50.99,24.58,37.78,24.58,24.58"/>
		<path style="fill:#FFFFFF;" d="M61.25,27.51c0.05-0.05,0.13-0.1,0.18-0.02c3.72,3.72,7.44,7.44,11.16,11.16
			c-1.31,1.3-2.61,2.61-3.91,3.92c-0.17,0.16-0.38,0.29-0.61,0.31c-0.33,0.03-0.65-0.27-0.62-0.6c0.01-0.33,0.29-0.58,0.29-0.91
			c0.01-0.21-0.15-0.36-0.28-0.51c-2.76-2.75-5.51-5.51-8.27-8.27c-0.15-0.15-0.33-0.34-0.56-0.32c-0.35,0.01-0.61,0.33-0.96,0.29
			c-0.2,0.01-0.37-0.15-0.47-0.32c-0.14-0.29-0.01-0.64,0.2-0.85C58.67,30.09,59.96,28.8,61.25,27.51 M66.61,28.59
			c0.11-0.2,0.31-0.38,0.55-0.35c0.27,0.02,0.46,0.24,0.64,0.42c1.07,1.07,2.13,2.14,3.2,3.21c0.2,0.2,0.44,0.39,0.49,0.68
			c0.03,0.3-0.25,0.58-0.54,0.61c-0.25,0.01-0.47-0.13-0.68-0.25c-0.45-0.27-0.97-0.48-1.51-0.45c-0.28-0.01-0.54,0.11-0.8,0.22
			c-0.29-0.31-0.63-0.6-0.91-0.92c0.09-0.24,0.2-0.47,0.21-0.73c0.04-0.58-0.2-1.14-0.49-1.62C66.63,29.17,66.51,28.87,66.61,28.59
			 M43.08,31.42c0.58-0.61,1.19-1.18,1.76-1.78c0.55,0.53,1.08,1.07,1.62,1.61c0.18,0.17,0.02,0.46-0.18,0.53
			c-0.17,0.02-0.31-0.09-0.46-0.14c-0.58-0.28-1.29-0.31-1.87-0.01c-0.15,0.06-0.27,0.19-0.43,0.22
			C43.37,31.72,43.23,31.56,43.08,31.42 M42.72,31.77c0.78,0.76,1.54,1.54,2.32,2.31c1.21,1.21,2.42,2.42,3.64,3.63
			c-0.69,0.7-1.39,1.4-2.09,2.09c-0.14,0.16-0.43,0.23-0.57,0.03c-0.17-0.18,0.02-0.41,0.07-0.59c0.06-0.14-0.05-0.26-0.14-0.36
			c-1.4-1.39-2.79-2.79-4.19-4.19c-0.13-0.12-0.23-0.26-0.39-0.34c-0.21-0.05-0.38,0.14-0.59,0.15c-0.16-0.02-0.31-0.18-0.29-0.34
			c0.01-0.13,0.09-0.24,0.18-0.33C41.35,33.14,42.04,32.46,42.72,31.77 M45.51,32.62c-0.07-0.18,0.05-0.39,0.24-0.42
			c0.14-0.02,0.25,0.09,0.35,0.18c0.58,0.58,1.15,1.16,1.73,1.73c0.1,0.11,0.25,0.21,0.26,0.38c0.02,0.17-0.14,0.33-0.31,0.31
			c-0.22,0-0.4-0.18-0.6-0.25c-0.3-0.14-0.66-0.15-0.96,0.01c-0.15-0.15-0.31-0.31-0.47-0.46c0.07-0.23,0.13-0.49,0.07-0.73
			C45.79,33.09,45.59,32.88,45.51,32.62 M55.73,33.04c0.14-0.14,0.33-0.25,0.53-0.28c0.36-0.05,0.73,0.29,0.66,0.66
			c-0.05,0.32-0.31,0.58-0.29,0.91c0.05,0.23,0.25,0.39,0.4,0.56c2.73,2.72,5.46,5.44,8.17,8.17c0.15,0.13,0.3,0.31,0.51,0.31
			c0.32,0,0.57-0.24,0.87-0.29c0.35-0.06,0.7,0.29,0.66,0.64c-0.02,0.24-0.17,0.45-0.33,0.61c-1.37,1.37-2.74,2.74-4.11,4.11
			c-0.18,0.18-0.4,0.34-0.66,0.34c-0.29,0.02-0.57-0.23-0.6-0.51c-0.04-0.37,0.31-0.65,0.3-1.03c-0.02-0.18-0.14-0.32-0.26-0.45
			c-2.4-2.39-4.79-4.79-7.19-7.18c1.98,3.68,3.98,7.35,5.96,11.02c0.03,0.05,0.06,0.11,0.09,0.18c-0.14,0.13-0.28,0.28-0.42,0.42
			c-3.97-1.95-7.93-3.93-11.89-5.89c-0.62-0.31-1.24-0.67-1.95-0.76c-0.23-0.03-0.4,0.16-0.57,0.28c-0.18,0.14-0.41,0.22-0.63,0.15
			c-0.26-0.12-0.44-0.43-0.36-0.71c0.05-0.19,0.19-0.35,0.33-0.49c1.28-1.28,2.56-2.56,3.84-3.83c2,0.98,4,1.93,6,2.91
			c0.06,0.05,0.13,0.1,0.19,0.16c0.03-0.04,0.06-0.07,0.09-0.11l-0.07,0.01c-1.05-2-2.16-3.98-3.21-5.98
			C53.1,35.67,54.41,34.35,55.73,33.04 M48.72,33.94c0.1-0.18,0.37-0.2,0.5-0.05c0.54,0.54,1.09,1.09,1.63,1.63
			c-0.61,0.61-1.22,1.22-1.84,1.83c-0.14-0.16-0.33-0.29-0.43-0.48c0.18-0.3,0.36-0.6,0.41-0.96c0.09-0.49,0.01-1-0.2-1.45
			C48.74,34.31,48.61,34.11,48.72,33.94 M39.76,34.74c0.11-0.11,0.22-0.23,0.38-0.27c0.15-0.03,0.35,0.06,0.37,0.23
			c0.04,0.19-0.1,0.34-0.14,0.52c-0.02,0.14,0.1,0.25,0.18,0.34c1.43,1.43,2.85,2.85,4.27,4.27c0.1,0.09,0.2,0.2,0.34,0.23
			c0.17-0.02,0.31-0.13,0.48-0.17c0.2-0.02,0.39,0.2,0.33,0.39c-0.03,0.14-0.14,0.25-0.23,0.35c-0.69,0.69-1.39,1.39-2.08,2.08
			c-0.12,0.12-0.28,0.25-0.46,0.21c-0.1-0.04-0.19-0.12-0.22-0.22c-0.05-0.23,0.2-0.43,0.14-0.66c-0.05-0.09-0.13-0.16-0.2-0.23
			c-0.65-0.65-1.3-1.3-1.95-1.95c-0.23,0.23-0.46,0.47-0.69,0.69c-0.16-0.15-0.32-0.31-0.47-0.48c0.23-0.23,0.46-0.46,0.7-0.69
			c-0.58-0.57-1.15-1.14-1.72-1.71c-0.12-0.12-0.23-0.25-0.37-0.33c-0.26-0.09-0.51,0.28-0.76,0.08c-0.2-0.14-0.14-0.43,0.03-0.58
			C38.35,36.14,39.06,35.44,39.76,34.74"/>
		<path style="fill:#FFFFFF;" d="M37.03,37.51c0.16-0.1,0.4-0.04,0.48,0.14c0.07,0.22-0.12,0.41-0.13,0.62
			c-0.01,0.11,0.09,0.19,0.15,0.27c1.48,1.48,2.95,2.96,4.43,4.43c0.27,0.29,0.61-0.21,0.9,0.01c0.19,0.15,0.12,0.44-0.04,0.58
			c-0.69,0.7-1.39,1.39-2.08,2.09c-0.11,0.11-0.22,0.23-0.38,0.28c-0.17,0.05-0.38-0.06-0.4-0.24c-0.03-0.21,0.16-0.38,0.15-0.59
			c-0.03-0.09-0.09-0.17-0.15-0.23c-1.4-1.39-2.8-2.79-4.19-4.19c-0.13-0.12-0.25-0.28-0.42-0.34c-0.19-0.01-0.35,0.13-0.54,0.15
			c-0.16,0.01-0.3-0.14-0.3-0.29c-0.02-0.17,0.1-0.3,0.21-0.41c0.69-0.69,1.39-1.39,2.08-2.08C36.87,37.63,36.93,37.56,37.03,37.51
			 M33.17,41.33c0.32-0.31,0.63-0.63,0.95-0.94c0.56,0.54,1.11,1.11,1.67,1.66c0.1,0.11,0.21,0.2,0.27,0.34
			c0.06,0.26-0.23,0.55-0.5,0.43c-0.26-0.12-0.47-0.33-0.72-0.46c-0.42-0.26-0.91-0.43-1.41-0.37c-0.14-0.15-0.3-0.29-0.43-0.45
			C33.03,41.45,33.1,41.39,33.17,41.33 M30.84,43.65c0.6-0.59,1.19-1.18,1.78-1.77c1.12,1.13,2.25,2.25,3.37,3.37
			c0.62,0.61,1.22,1.24,1.85,1.84c0.18,0.2,0.41,0.03,0.6-0.04c0.19-0.09,0.42,0.09,0.41,0.29c0,0.14-0.08,0.26-0.17,0.35
			c-0.73,0.72-1.44,1.44-2.16,2.16c-0.1,0.1-0.23,0.2-0.38,0.19c-0.17,0.02-0.33-0.14-0.31-0.3c0.01-0.17,0.14-0.31,0.14-0.48
			c0.01-0.14-0.11-0.23-0.2-0.33c-1.7-1.69-3.39-3.4-5.1-5.09C30.73,43.78,30.78,43.72,30.84,43.65 M70.9,43.13
			c0.66,0.65,1.32,1.31,1.97,1.97c0.21,0.2,0.06,0.59-0.22,0.64c-0.26,0.04-0.45-0.17-0.65-0.3c-0.53-0.36-1.15-0.7-1.81-0.59
			c-0.18-0.16-0.35-0.33-0.49-0.51C70.11,43.94,70.5,43.53,70.9,43.13 M30.29,44.21c0.2,0.07,0.32,0.3,0.48,0.44
			c-0.09,0.62,0.21,1.2,0.56,1.69c0.1,0.15,0.22,0.3,0.29,0.48c0.07,0.23-0.16,0.48-0.39,0.45c-0.13,0-0.22-0.11-0.31-0.19
			c-0.58-0.59-1.17-1.16-1.75-1.75C29.55,44.96,29.9,44.57,30.29,44.21 M42.17,47.23c1.06-0.34,2.22-0.38,3.31-0.15
			c1.86,0.4,3.5,1.48,4.82,2.83c1.29,1.3,2.31,2.94,2.66,4.76c0.19,1,0.15,2.04-0.14,3.02c-0.28,0.97-0.8,1.86-1.44,2.63
			c-0.28-0.29-0.58-0.57-0.85-0.86c0-0.14,0.09-0.27,0.12-0.41c0.14-0.47,0-1-0.36-1.34c-2.64-2.64-5.28-5.28-7.92-7.93
			c-0.24-0.25-0.54-0.44-0.89-0.47c-0.28-0.04-0.56,0.06-0.83,0.16c-0.11,0.06-0.18-0.07-0.25-0.13c-0.21-0.23-0.45-0.44-0.66-0.67
			c0-0.02-0.01-0.05-0.01-0.06C40.44,47.99,41.27,47.51,42.17,47.23 M49.37,46.93c0.25,0.08,0.47,0.2,0.7,0.32
			c0.86,0.42,1.71,0.85,2.58,1.27c0.07,0.04,0.14,0.1,0.21,0.15c0.73,0.74,1.46,1.46,2.19,2.19c0.4,0.42,0.89,0.75,1.43,0.95
			c0.38,0.14,0.81,0.14,1.19,0.01c0.19-0.06,0.4-0.14,0.6-0.07c0.21,0.09,0.35,0.28,0.37,0.5c-0.02,0.29-0.2,0.54-0.4,0.74
			c-0.65,0.66-1.31,1.32-1.98,1.97c-0.18,0.16-0.38,0.33-0.62,0.35c-0.35,0.05-0.7-0.32-0.59-0.66c0.1-0.35,0.24-0.7,0.18-1.06
			c-0.09-0.61-0.43-1.15-0.82-1.61c-1.45-1.45-2.9-2.9-4.35-4.36C49.83,47.4,49.58,47.18,49.37,46.93 M65.65,48.38
			c0.4-0.4,0.81-0.8,1.21-1.21c0.18,0.14,0.33,0.31,0.5,0.48c-0.07,0.53,0.11,1.06,0.39,1.51c0.14,0.26,0.35,0.48,0.48,0.74
			c0.07,0.13,0.02,0.27-0.03,0.4c0.67,0.46,1.26,1.03,1.74,1.69c0.54,0.76,0.92,1.67,0.9,2.62c0.01,0.9-0.38,1.77-0.96,2.45
			c-0.15-0.16-0.34-0.3-0.47-0.49c0.03-0.2,0.12-0.39,0.07-0.59c-0.05-0.26-0.25-0.44-0.43-0.61c-1.41-1.4-2.81-2.81-4.22-4.21
			c-0.14-0.14-0.3-0.27-0.5-0.28c-0.19-0.02-0.37,0.03-0.54,0.09c-0.17-0.15-0.33-0.32-0.49-0.48c0.71-0.61,1.63-1,2.58-0.95
			c0.36-0.01,0.72,0.07,1.07,0.15C66.51,49.25,66.06,48.84,65.65,48.38 M37.71,51.52c0.29-0.82,0.76-1.56,1.31-2.23
			c0.27,0.28,0.56,0.54,0.83,0.83c0.05,0.17-0.09,0.33-0.11,0.5c-0.14,0.46,0.04,0.96,0.38,1.29c2.59,2.6,5.19,5.19,7.79,7.79
			c0.25,0.27,0.56,0.53,0.94,0.59c0.34,0.05,0.68-0.06,0.99-0.18c0.29,0.29,0.58,0.57,0.86,0.86c-0.63,0.55-1.36,0.98-2.14,1.29
			c-1.17,0.45-2.49,0.53-3.72,0.26c-1.87-0.41-3.52-1.54-4.84-2.91c-1.22-1.28-2.2-2.84-2.55-4.59
			C37.22,53.86,37.3,52.63,37.71,51.52 M61.98,53.06c0.06-0.81,0.42-1.59,0.96-2.19c0.15,0.16,0.32,0.32,0.48,0.48
			c-0.06,0.19-0.15,0.4-0.1,0.6c0.03,0.18,0.15,0.33,0.28,0.45c1.41,1.4,2.81,2.81,4.22,4.22c0.17,0.16,0.33,0.35,0.56,0.42
			c0.21,0.06,0.43-0.02,0.64-0.08c0.16,0.16,0.33,0.32,0.48,0.49c-0.67,0.56-1.51,0.94-2.4,0.94c-0.86,0.04-1.7-0.27-2.42-0.72
			c-0.52-0.33-0.99-0.73-1.39-1.2c0.19,0.62,0.14,1.32-0.15,1.91c-0.29,0.58-0.74,1.05-1.18,1.5c-0.16-0.16-0.33-0.33-0.49-0.49
			c0.14-0.22,0.23-0.49,0.14-0.75c-0.1-0.27-0.32-0.46-0.51-0.66c-0.4-0.4-0.8-0.8-1.2-1.2c-0.23-0.22-0.49-0.47-0.82-0.49
			c-0.2-0.02-0.37,0.08-0.54,0.18c-0.17-0.16-0.33-0.33-0.49-0.49c0.64-0.65,1.37-1.31,2.31-1.43c0.77-0.13,1.54,0.2,2.09,0.73
			C62.12,54.6,61.9,53.83,61.98,53.06 M33.84,54.92c0.16-0.15,0.37-0.27,0.59-0.29c0.37-0.02,0.7,0.36,0.6,0.72
			c-0.08,0.27-0.28,0.51-0.29,0.81c0.02,0.26,0.23,0.44,0.41,0.61l8.22,8.22c0.13,0.12,0.27,0.25,0.45,0.26
			c0.31,0,0.55-0.23,0.84-0.3c0.35-0.07,0.7,0.25,0.69,0.6c-0.01,0.24-0.14,0.46-0.31,0.63l-4.14,4.14
			c-0.18,0.18-0.41,0.33-0.67,0.33c-0.32,0.01-0.62-0.29-0.59-0.62c0.03-0.32,0.3-0.58,0.3-0.91c-0.01-0.2-0.17-0.35-0.29-0.49
			c-1.23-1.23-2.46-2.46-3.68-3.68c-0.05-0.04-0.11-0.14-0.18-0.07c-0.43,0.41-0.84,0.84-1.27,1.25c-0.29-0.29-0.58-0.58-0.86-0.87
			c0.41-0.43,0.84-0.86,1.27-1.27c0-0.02,0.01-0.07,0.01-0.09c-1.16-1.14-2.3-2.29-3.45-3.44c-0.18-0.17-0.34-0.37-0.59-0.43
			c-0.34-0.02-0.6,0.24-0.91,0.3c-0.41,0.07-0.77-0.39-0.64-0.77c0.07-0.27,0.28-0.46,0.47-0.64
			C31.17,57.59,32.51,56.26,33.84,54.92 M57.67,56.36c0.64,0.6,1.24,1.24,1.87,1.85c1.2,1.2,2.4,2.4,3.6,3.6
			c0.09,0.07,0.17,0.17,0.28,0.19c0.23,0.02,0.41-0.2,0.64-0.16c0.14,0.05,0.27,0.18,0.25,0.34c0,0.21-0.18,0.35-0.3,0.49
			c-0.75,0.74-1.49,1.49-2.25,2.24c-0.17,0.18-0.48,0.09-0.58-0.11c-0.15-0.25,0.26-0.52,0.04-0.75c-1.55-1.54-3.1-3.09-4.64-4.64
			c-0.11-0.1-0.21-0.23-0.34-0.3c-0.23-0.06-0.41,0.13-0.62,0.15c-0.17-0.02-0.33-0.16-0.32-0.33c-0.02-0.19,0.12-0.33,0.24-0.45
			C56.26,57.78,56.97,57.07,57.67,56.36 M52.91,61.12c0.64-0.62,1.25-1.27,1.9-1.88c0.57,0.58,1.15,1.15,1.72,1.72
			c0.19,0.19-0.01,0.47-0.21,0.56c-0.14,0.02-0.27-0.07-0.39-0.12c-0.49-0.24-1.06-0.36-1.6-0.22c-0.34,0.07-0.64,0.26-0.94,0.44
			C53.24,61.45,53.08,61.28,52.91,61.12 M50.32,63.72c0.74-0.75,1.48-1.48,2.22-2.22c1.2,1.18,2.38,2.38,3.58,3.56
			c0.92,0.91,1.83,1.84,2.75,2.74c-0.72,0.74-1.45,1.45-2.17,2.18c-0.1,0.11-0.25,0.18-0.38,0.23c-0.13-0.05-0.3-0.1-0.34-0.25
			c-0.08-0.25,0.18-0.45,0.15-0.69c-0.11-0.21-0.29-0.36-0.45-0.52l-3.89-3.89c-0.23-0.21-0.42-0.47-0.69-0.63
			c-0.27-0.05-0.52,0.29-0.78,0.11C50.08,64.2,50.15,63.88,50.32,63.72 M55.5,62.4c-0.09-0.22,0.12-0.48,0.35-0.44
			c0.11,0.03,0.19,0.1,0.26,0.17c0.56,0.57,1.13,1.12,1.68,1.69c0.18,0.19,0.42,0.35,0.49,0.61c-0.07,0.12-0.14,0.28-0.3,0.29
			c-0.26,0.03-0.45-0.18-0.69-0.27c-0.32-0.16-0.71-0.16-1.03,0.01c-0.17-0.17-0.34-0.34-0.51-0.51c0.12-0.25,0.17-0.54,0.09-0.81
			C55.77,62.88,55.59,62.65,55.5,62.4 M58.93,63.79c0.11-0.17,0.38-0.2,0.52-0.04c0.58,0.58,1.16,1.16,1.74,1.75
			c-0.66,0.64-1.29,1.31-1.96,1.94c-0.15-0.17-0.32-0.33-0.48-0.49c0.57-0.7,0.65-1.72,0.27-2.54
			C58.94,64.22,58.79,63.98,58.93,63.79"/>
		<path style="fill:#F96302;" d="M24.58,65.91c0.21-0.09,0.42-0.22,0.65-0.21c0.28,0.05,0.46,0.3,0.66,0.49
			c2.69,2.67,5.36,5.35,8.04,8.03c0.15,0.17,0.34,0.33,0.37,0.57c-0.01,0.23-0.13,0.43-0.23,0.64c-3.17-0.01-6.33-0.01-9.49-0.01
			C24.58,72.25,24.58,69.08,24.58,65.91"/>
		<path style="fill:#FFFFFF;" d="M49.43,65.77c0.95-0.08,1.9,0.26,2.68,0.78c0.61,0.41,1.19,0.89,1.62,1.48
			c0.52,0.7,0.84,1.55,0.85,2.43c0.02,1-0.38,2.02-1.09,2.73c-0.16-0.16-0.33-0.32-0.49-0.49c0.1-0.18,0.21-0.37,0.18-0.59
			c-0.05-0.32-0.27-0.58-0.49-0.8l-3.6-3.6c-0.25-0.24-0.52-0.5-0.89-0.53c-0.2-0.02-0.37,0.08-0.54,0.18
			c-0.15-0.17-0.37-0.3-0.46-0.51C47.78,66.25,48.58,65.82,49.43,65.77L49.43,65.77z"/>
	</g>
</g>
</svg>
