<?xml version="1.0"?>
<svg xmlns="http://www.w3.org/2000/svg" xmlns:xlink="http://www.w3.org/1999/xlink" xmlns:svgjs="http://svgjs.com/svgjs" version="1.1" width="512" height="512" x="0" y="0" viewBox="0 0 512 512" style="enable-background:new 0 0 512 512" xml:space="preserve" class=""><g><path xmlns="http://www.w3.org/2000/svg" d="m512 256c0 141.386719-114.613281 256-256 256s-256-114.613281-256-256 114.613281-256 256-256 256 114.613281 256 256zm0 0" fill="#f1f1f1" data-original="#76e2f8" style="" class=""/><path xmlns="http://www.w3.org/2000/svg" d="m511.789062 265.949219-178.632812-178.632813-79.15625 84.183594 1.5 82-74 85-2 65-39.28125 13.207031 94.398438 94.398438c7.050781.582031 14.179687.894531 21.382812.894531 138.050781 0 250.5625-109.28125 255.789062-246.050781zm0 0" fill="#f1f1f1" data-original="#2ac4f4" style="" class=""/><path xmlns="http://www.w3.org/2000/svg" d="m246.351562 175.457031h19.296876v77.1875h-19.296876zm0 0" fill="#f2f2fc" data-original="#f2f2fc" style=""/><path xmlns="http://www.w3.org/2000/svg" d="m256 175.457031h9.648438v77.1875h-9.648438zm0 0" fill="#e2d8fc" data-original="#e2d8fc" style="" class=""/><path xmlns="http://www.w3.org/2000/svg" d="m333.1875 126.570312-77.1875 77.832032-77.1875-77.832032 77.1875-19.941406zm0 0" fill="#ff5a99" data-original="#ff5a99" style="" class=""/><path xmlns="http://www.w3.org/2000/svg" d="m333.1875 126.570312-77.1875 77.832032v-97.773438zm0 0" fill="#e53c79" data-original="#e53c79" style=""/><path xmlns="http://www.w3.org/2000/svg" d="m178.8125 87.332031h154.375v39.238281h-154.375zm0 0" fill="#f2f2fc" data-original="#f2f2fc" style=""/><path xmlns="http://www.w3.org/2000/svg" d="m256 87.332031h77.1875v39.238281h-77.1875zm0 0" fill="#e2d8fc" data-original="#e2d8fc" style="" class=""/><path xmlns="http://www.w3.org/2000/svg" d="m323.539062 329.832031h19.296876v77.1875h-19.296876zm0 0" fill="#e2d8fc" data-original="#e2d8fc" style="" class=""/><path xmlns="http://www.w3.org/2000/svg" d="m333.1875 329.832031h9.648438v77.1875h-9.648438zm0 0" fill="#b3a2db" data-original="#b3a2db" style="" class=""/><path xmlns="http://www.w3.org/2000/svg" d="m410.375 281.589844-77.1875 77.1875-77.1875-77.1875 77.1875-19.296875zm0 0" fill="#ff5a99" data-original="#ff5a99" style="" class=""/><path xmlns="http://www.w3.org/2000/svg" d="m410.375 281.589844-77.1875 77.1875v-96.484375zm0 0" fill="#e53c79" data-original="#e53c79" style=""/><path xmlns="http://www.w3.org/2000/svg" d="m410.375 242.996094v38.59375h-154.375l-19.296875-19.296875 19.296875-19.296875zm0 0" fill="#f2f2fc" data-original="#f2f2fc" style=""/><path xmlns="http://www.w3.org/2000/svg" d="m333.1875 242.996094h77.1875v38.59375h-77.1875zm0 0" fill="#e2d8fc" data-original="#e2d8fc" style="" class=""/><path xmlns="http://www.w3.org/2000/svg" d="m294.59375 397.371094h77.1875v19.296875h-77.1875zm0 0" fill="#f2f2fc" data-original="#f2f2fc" style=""/><path xmlns="http://www.w3.org/2000/svg" d="m333.1875 397.371094h38.59375v19.296875h-38.59375zm0 0" fill="#e2d8fc" data-original="#e2d8fc" style="" class=""/><path xmlns="http://www.w3.org/2000/svg" d="m169.164062 329.832031h19.296876v77.1875h-19.296876zm0 0" fill="#e2d8fc" data-original="#e2d8fc" style="" class=""/><path xmlns="http://www.w3.org/2000/svg" d="m178.8125 329.832031h9.648438v77.1875h-9.648438zm0 0" fill="#b3a2db" data-original="#b3a2db" style="" class=""/><path xmlns="http://www.w3.org/2000/svg" d="m256 281.589844-77.1875 77.1875-77.1875-77.1875 77.1875-19.296875zm0 0" fill="#ff5a99" data-original="#ff5a99" style="" class=""/><path xmlns="http://www.w3.org/2000/svg" d="m256 281.589844-77.1875 77.1875v-96.484375zm0 0" fill="#e53c79" data-original="#e53c79" style=""/><path xmlns="http://www.w3.org/2000/svg" d="m101.625 242.996094h154.375v38.59375h-154.375zm0 0" fill="#f2f2fc" data-original="#f2f2fc" style=""/><path xmlns="http://www.w3.org/2000/svg" d="m178.8125 242.996094h77.1875v38.59375h-77.1875zm0 0" fill="#e2d8fc" data-original="#e2d8fc" style="" class=""/><path xmlns="http://www.w3.org/2000/svg" d="m140.21875 397.371094h77.1875v19.296875h-77.1875zm0 0" fill="#f2f2fc" data-original="#f2f2fc" style=""/><path xmlns="http://www.w3.org/2000/svg" d="m178.8125 397.371094h38.59375v19.296875h-38.59375zm0 0" fill="#e2d8fc" data-original="#e2d8fc" style="" class=""/></g></svg>
