<svg xmlns="http://www.w3.org/2000/svg" viewBox="0 0 126 22.24" fill="#141414"><path d="M14.9 12.37c1.3-.4 2.2-1.2 3-2.1.7-1 1.1-2.2 1.1-3.6 0-.9-.2-1.8-.5-2.5-.3-.8-.8-1.4-1.5-2-.6-.5-1.4-1-2.3-1.3s-1.8-.5-2.9-.5H.5c-.3.1-.5.3-.5.6v20.4a.47.47 0 0 0 .5.5H3a.47.47 0 0 0 .5-.5v-8.5H11l4.4 8.7c.1.2.3.4.5.4h2.8c.4 0 .6-.4.5-.8l-4.3-8.8zM12 9.67H3.6v-6H12c1 0 1.8.3 2.4.8.6.6.9 1.3.9 2.2s-.3 1.6-.9 2.2c-.6.5-1.4.8-2.4.8zm37.5 9.1H35.4v-6.6h10.2a.47.47 0 0 0 .5-.5v-2.1a.47.47 0 0 0-.5-.5H35.4v-5.5h13.7c.3 0 .6-.2.6-.5V.97c0-.3-.2-.6-.6-.6H32.3c-.3 0-.5.2-.5.6v20.4a.47.47 0 0 0 .5.5h17.2c.3 0 .6-.2.6-.5v-2.1c0-.3-.2-.5-.6-.5zM65.3.47h-2.5c-.3 0-.5.2-.5.6v20.4a.47.47 0 0 0 .5.5h2.5a.47.47 0 0 0 .5-.5V.97c0-.2-.2-.5-.5-.5zm26.8 9.8c-3.4-1.1-6.9-1.6-8.2-2.4-1-.6-1.3-1.1-1.3-2 0-1 1.1-1.7 2.3-2.2 1.7-.6 3.9-.5 5.1-.3s2.9.9 4 1.6c.7.4.9 0 1-.1s.9-1.4 1.1-1.8c.2-.3 0-.6-.4-.9-.5-.3-1.8-1.2-4.3-1.8-2.4-.5-4.7-.5-6.9 0-2.2.8-3.6 1.8-4.4 2.9-.8 1.2-1 2.1-.9 3.3.1 1.3.6 2.4 2.1 3.5 1.6 1.1 3.1 1.6 4.9 2.1l5.5 1.6c1 .4 1.9 1 1.9 2.3 0 1.2-1.6 3-5.9 3-4.4 0-7-2.6-7-2.6s-.3-.3-.8.1l-1.3 1.6c-.3.3-.1.6.1.8s1.6 1.9 5 2.7c3.4.9 7 .8 10-.8 2.5-1.3 3.3-3.2 3.3-5.1 0-2.7-1.6-4.4-4.9-5.5zm29 0c-3.4-1.1-6.9-1.6-8.2-2.4-1-.6-1.3-1.1-1.3-2 0-1 1.1-1.7 2.3-2.2 1.7-.6 3.9-.5 5.1-.3s2.9.9 4 1.6c.7.4.9 0 1-.1s.9-1.4 1.1-1.8c.2-.3 0-.6-.4-.9-.5-.3-1.8-1.2-4.3-1.8-2.4-.5-4.7-.5-6.9 0s-3.7 1.6-4.4 2.7c-.8 1.2-1 2.1-.9 3.3.1 1.3.6 2.4 2.1 3.5 1.6 1.1 3.1 1.6 4.9 2.1l5.5 1.6c1 .4 1.9 1 1.9 2.3 0 1.2-1.6 3-5.9 3-4.4 0-7-2.6-7-2.6s-.3-.3-.8.1l-1.3 1.6c-.3.3-.1.6.1.8s1.6 1.9 5 2.7 7 .8 10-.8c2.5-1.3 3.3-3.2 3.3-5.1 0-2.5-1.6-4.2-4.9-5.3z"/></svg>