<svg xmlns="http://www.w3.org/2000/svg" viewBox="0 0 509 209" xmlns:v="https://vecta.io/nano"><path d="M209.6 19c0 1.9.6 2.5 2.7 2.5h1.3v.7h-11v-.7h1.3c2.1 0 2.7-.7 2.7-2.5V1.8h-6.1c-1.4 0-2 .8-2.5 3.9h-.6L198 0h.7c0 .2.2.3.4.4s.5.1.7.1h16.7c.5 0 1-.1 1.1-.5h.7l.6 5.6h-.6c-.5-3.1-1.1-3.9-2.5-3.9h-6.1V19zm39.4-7.2v6.6c0 2.3.5 3.1 2.8 3.1h.1v.7h-8.7v-.7h.2c2.1 0 2.7-.6 2.7-2.5V3.7c0-1.8-.6-2.3-2.5-2.5V.5h8.3v.7c-2.5 0-2.9.7-2.9 3.3v6.1h13.6V3.7c0-1.8-.6-2.5-2.7-2.5h-.7V.5h8.9v.7c-2.1.1-2.6.7-2.6 2.9v14.4c0 2.5.7 3 2.8 3h.3v.7h-9.8v-.7h1.1c2.3 0 2.7-.8 2.7-2.6v-7.1H249zm59.1 2.5h-.7c-.3-2.5-.9-2.7-2.4-2.7h-5.9V19c0 1.6.6 1.9 1.9 1.9h5.4c2.4 0 3.2-.9 4-3.9h.6l-.6 5.2H292v-.7h1c2.8 0 3.3-.8 3.3-2.9V4c0-1.9-.5-2.8-2.8-2.8h-.8V.5h16.7l.3 4.8h-.6c-.5-3-1.3-3.6-2.6-3.6h-7.3v8.6h6.2c1.3 0 1.8-.6 2-2.6h.7v6.6zM1.8 116.4v-4.1h2.6c5.4 0 6.5-.9 6.5-5.5V54c0-3.7-1-4.9-4.2-4.9H0V45h1l5.9-.3 8.2-.4L29 44c26.8 0 29.7 14.5 29.7 20.8 0 13.6-11 22.3-28 22.3-3.2 0-5.7-.2-8.5-.7v18.3c0 6 1.7 7.6 7.9 7.6h4.7v4.1h-33zm20.3-34.2c1.4.3 3.3.7 5 .7 11.4 0 19-7.5 19-18.5s-5.7-16.3-17.3-16.3c-2.3 0-4.4 0-6.7.3v33.8z"/><path d="M21.1 104.7c0 6.3 1.9 8.6 8.9 8.6h3.7v2.1H2.8v-2.1h1.6c5.8 0 7.5-1.2 7.5-6.5V54c0-4.1-1.3-5.9-5.2-5.9H1V46c3.1-.1 8.6-.4 14.1-.7l13.8-.3c23.3 0 28.7 11.2 28.7 19.8 0 13.1-10.5 21.3-27 21.3-3.4 0-6.1-.2-9.5-.9v19.5zm0-21.7c1.5.3 3.9.9 6 .9 12.2 0 20-8.3 20-19.5 0-8.7-3.5-17.3-18.3-17.3-2.6 0-5 0-7.7.4V83zm141.7 34.7c-16 0-21.2-4.4-30.5-13.7l-7.4-7.4c-4.2-4.2-8.1-7.6-11.1-9.6l-1.3.1c-1.9.1-3.6.2-6 .2-2 0-3.3-.1-4.7-.2v17.8c0 5.7 1.8 7.4 7.9 7.4h3.6v4.1H79.8v-4.1h2.9c6 0 7.9-1.2 7.9-8.3V57c0-6.4-1.4-7.9-7.4-7.9h-3.5V45h1c1.8 0 5.6-.2 9.3-.4l4.8-.3h.1c4.5-.2 6.8-.3 14-.3 19.7 0 30.9 7.6 30.9 20.9 0 8.2-5.4 15.3-13.8 18.5 3.7 3 7 6.2 11.4 10.5l8.8 8.8c7.1 7.1 13.7 10.5 21.4 11l.9.1v3.9h-1-4.7zM101.9 83c1.1.1 2.1.1 3.2.1h1.3 1.5c13 0 19.5-5.9 19.5-17.6 0-7.5-2.2-17.4-20.9-17.4-1.8 0-3.1 0-4.6.1V83z"/><path d="M100.9 104.9c0 6.7 2.7 8.4 8.9 8.4h2.6v2.1H80.8v-2.1h1.9c6.6 0 8.9-1.8 8.9-9.3V57c0-6.9-1.9-8.9-8.4-8.9h-2.5V46c2.7 0 9.5-.4 14.1-.7 4.6-.2 6.8-.3 14.1-.3 20.7 0 29.9 8.5 29.9 19.9 0 8.4-5.7 15.4-14.9 18.1 4.1 3.2 7.5 6.4 12.7 11.6l8.8 8.8c6.6 6.6 13.4 10.7 22 11.3v2c-19.5.9-24.6-3.4-34.5-13.3l-7.4-7.4c-4.9-4.9-8.8-8.2-11.5-9.9-2.8.1-4.6.2-7.6.2-2.5 0-3.9-.1-5.7-.2v18.8zm0-21c2.7.3 4.4.2 6.9.2 12.4 0 20.5-5.2 20.5-18.6 0-10.4-4.7-18.4-21.9-18.4-2.1 0-3.6 0-5.6.2v36.6zm88.5 32.5v-4.1h1c6.3-.3 7.4-1.6 7.4-8.6V56.1c0-5.3-1.5-6.7-7.4-7l-.9-.1v-4.1h29.1V49h-1c-6.5 0-8.5 1.1-8.5 8v47.3c0 5.9 1.2 7.8 8.5 7.8h1v4.1h-29.2z"/><path d="M217.5 115.4h-27.1v-2.1c6.9-.3 8.4-2.1 8.4-9.6V56.1c0-6-2.1-7.7-8.4-8V46h27.1v2.1c-7 0-9.5 1.6-9.5 9v47.3c0 6.6 1.8 8.8 9.5 8.8v2.2zm97.5 1.8l-56.4-59v45.4c0 7.1.9 8.7 10.3 8.7h1v4.1H242v-4.1h1.4c6.9 0 8.2-2.3 8.2-6.5V51.4c-2.3-1.5-5-2.2-8.4-2.3h-1V45h19l51.2 53.3v-42c0-6-1.4-7-10-7.3h-1v-4.1h28.1V49h-1c-8.8 0-9.2 1.6-9.2 4.8v63.3H315z"/><path d="M315.5 116.2l-57.8-60.5v47.9c0 8 1.8 9.7 11.3 9.7v2.1h-26v-2.1h.4c6.9 0 9.2-2.3 9.2-7.5V50.9c-2.6-1.8-5.5-2.7-9.4-2.8V46h17.5l52.6 54.8V56.3c0-6.8-2-8-10.9-8.3v-2.1h26.1V48c-8.4 0-10.2 1.5-10.2 5.8v62.3h-2.8zm76.8 2c-23.2 0-40-15.4-40-36.6 0-22.2 17.3-38.3 41.1-38.3 9.6 0 15.5 2 19.4 3.4 1.8.6 3.2 1.1 4.2 1.1.9 0 1.2-.2 1.2-.2l.3-.4h.5 2.6l1.1 18.2h-3.9l-.2-.7c-3.6-10.2-13-16.5-24.5-16.5-17.5 0-29.3 12.6-29.3 31.3 0 19.1 13.4 34.1 30.5 34.1 11.5 0 20.4-5.4 26.4-16l.3-.5h4l-.4 1.3c-1.5 5.2-4.6 12.2-7.3 16.5l-.3.6-.6-.1c-.7-.1-1.4-.2-2.2-.2-2.4 0-4.7.5-7.4 1.2-3.8.7-8.6 1.8-15.5 1.8z"/><path d="M419.5 64.3c-3.7-10.4-13.3-17.2-25.5-17.2-18.6 0-30.3 13.5-30.3 32.3 0 20.2 14.5 35.1 31.5 35.1 8.8 0 19.7-3 27.2-16.5h2.1c-1.5 5-4.5 11.9-7.1 16.3-7.1-1-12.1 3-25.2 3-22.7 0-39-15-39-35.6 0-21.7 16.7-37.3 40.1-37.3 14.1 0 20.1 4.5 23.6 4.5 1.2 0 1.8-.3 2-.7h1.7l1 16.2h-2.1zm25.8 52.1v-4.1h4.1c8.7 0 9.5-2.2 9.5-8.2V57c0-5.9-1.2-7.9-7.9-7.9h-3.5V45H503l1 17.5h-3.9l-.1-.8c-1.5-9.8-4.4-10.7-7.3-10.7h-22.6v25.5h19c3.2 0 4.9-1.2 5.5-7.5l.1-.9h4v23.2h-4l-.1-.9c-.9-7.6-2.7-7.9-6.6-7.9h-17.9v22.8c0 4.4 1.3 5.1 5 5.1h17.2c6.9 0 9.2-2.2 12-11.9l.2-.7h3.9l-2 18.6h-61.1z"/><path d="M497.8 90.3h-2.1c-.9-7.9-3-8.8-7.6-8.8h-18.9v23.8c0 5.1 1.9 6.1 6 6.1h17.2c7.8 0 10.2-3 13-12.6h2l-1.8 16.6h-59.3v-2.1h3.1c8.9 0 10.5-2.5 10.5-9.2V57c0-6.3-1.5-8.9-8.9-8.9h-2.5V46h53.6l.9 15.5h-2c-1.5-9.5-4.2-11.5-8.3-11.5h-23.6v27.5h20c4 0 5.9-1.9 6.5-8.4h2.1v21.2zM42.5 207.7v-4h3.8c6.7 0 7.5-.9 7.5-2.7 0-1.3-.6-2.7-1-3.7l-.2-.4-7-19.1h-21l-6 16.3c-.2.4-.3.9-.5 1.4-.7 1.7-1.6 4.1-1.6 5.1 0 1.5.9 3 7.8 3H27v4H0v-4h1c6.5-.1 7.4-.9 10.8-10.1l19.5-53.4-1.4-3.4h11.5l22.8 60.6c2 5.3 3.9 6.2 8.9 6.2h1v4H42.5zm.5-36.5l-8.1-21.4-7.8 21.4H43z"/><path d="M23.9 176.9l-6.3 17c-.8 2.1-2.2 5.3-2.2 6.8 0 2.9 2.8 4 8.8 4h1.7v2.1H1v-2.1c7-.1 8.2-1.3 11.7-10.7l19.7-53.7-1-2.4h9.4l22.6 60c2.2 5.7 4.4 6.8 9.8 6.8v2.1H43.4v-2.1h2.8c6.2 0 8.4-.6 8.4-3.7 0-1.7-.8-3.4-1.2-4.4l-7.2-19.7H23.9zm11-30l-9.2 25.2h18.7l-9.5-25.2zm59.2 60.8v-4h4.5c4.6 0 5.8-1.3 5.8-6.2v-47.9c0-4.9-1.1-7.1-7.6-7.1h-2.5v-4h33.8v4h-5c-6.7 0-7.9.5-7.9 6.5v49.8c0 2.4.8 3 3.4 3h15.9c5.8 0 7.5-2 14.3-11.5l.3-.4h4l-9.3 17.7H94.1z"/><path d="M143.4 206.7H95.1v-2.1h3.6c5 0 6.8-1.6 6.8-7.1v-47.9c0-5.7-1.7-8.1-8.5-8.1h-1.5v-2.1h31.9v2.1h-4c-7 0-8.9.8-8.9 7.5v49.8c0 2.9 1.2 4 4.3 4h15.9c6.4 0 8.3-2.5 15.1-11.9h1.9l-8.3 15.8zm27.5 1v-4h3.5c8.4 0 9.6-1.7 9.6-7.9V151c0-6-.7-8.4-7.4-8.4h-4.8v-4h.9c1.5-.1 4-.2 6.6-.3l7.1-.3c5.9-.2 14.1-.3 16.2-.3 10.3 0 18.4 1.6 22.3 4.4 4.8 3.4 7 7.4 7 12.8 0 6-4.2 11.2-10.3 13.4 9 3.5 14.1 10 14.1 18.1 0 10.4-7.6 21.5-24.3 21.5h-40.5zm23.9-15c0 7.7 2.8 10.2 11.4 10.2 15.1 0 17.4-10.2 17.4-16.3 0-7.9-6.2-15.9-18.1-15.9h-10.7v22zm10.9-26.1c9.8 0 14.6-3.8 14.6-11.6 0-5-2.2-13.5-16.9-13.5-1.8 0-5 .1-7.5.2h-1v24.8h10.8z"/><path d="M184.9 150.9c0-6.2-.8-9.4-8.3-9.4h-3.8v-2.1l13.6-.6a662.65 662.65 0 0 1 16.2-.3c9.5 0 17.8 1.4 21.7 4.2 4.4 3.1 6.6 6.8 6.6 12 0 6.2-5.1 11.9-12.3 13.2v.2c10.2 3 16.1 9.6 16.1 18 0 8.5-5.9 20.5-23.3 20.5h-39.6v-2.1h2.5c8.9 0 10.6-2.1 10.6-8.9v-44.7zm9 16.7h11.8c10.4 0 15.6-4.1 15.6-12.5 0-7.6-4.5-14.5-17.8-14.5-2.4 0-6.8.2-9.5.3v26.7zm0 25.1c0 8.2 3.2 11.1 12.3 11.1 14.3 0 18.4-8.9 18.4-17.3 0-8.3-6.4-16.9-19-16.9h-11.7v23.1zm65.1 15v-4h4c8.4 0 9.2-2.2 9.2-7.9v-45.6c0-5.7-1.2-7.7-7.7-7.7h-3.3v-4H315l1 17h-3.8l-.1-.8c-1.5-9.5-4.3-10.3-7-10.3h-21.8V169h18.4c3.1 0 4.8-1.1 5.3-7.2l.1-.9h3.9v22.5h-3.9l-.1-.9c-.8-7.4-2.7-7.7-6.4-7.7h-17.3v22.1c0 4.3 1.2 5 4.9 5h16.6c6.7 0 8.9-2.2 11.6-11.5l.2-.7h3.8l-1.9 18H259z"/><path d="M309.8 182.4h-2.1c-.9-7.7-2.9-8.5-7.3-8.5h-18.3v23c0 5 1.8 5.9 5.8 5.9h16.6c7.6 0 9.8-2.9 12.5-12.2h1.9l-1.7 16.1H260v-2.1h3c8.6 0 10.2-2.4 10.2-8.9v-45.6c0-6.1-1.4-8.6-8.6-8.6h-2.4v-2.1H314l.9 15H313c-1.4-9.2-4.1-11.1-8-11.1h-22.8V170h19.3c3.9 0 5.7-1.8 6.3-8.1h2.1v20.5zM424.5 209c-15.5 0-20.5-4.3-29.5-13.3l-7.1-7.1c-4.1-4.1-7.9-7.4-10.7-9.3l-1.3.1c-1.9.1-3.5.2-5.8.2-1.9 0-3.2-.1-4.5-.2v17.2c0 5.5 1.7 7.1 7.7 7.1h3.5v4h-32.5v-4h2.8c5.8 0 7.7-1.2 7.7-8v-45.5c0-6.2-1.4-7.7-7.1-7.7h-3.3v-4h1c1.8 0 5.4-.2 9-.4 1.6-.1 3.2-.2 4.6-.2h.1c4.4-.2 6.6-.3 13.6-.3 19 0 29.9 7.4 29.9 20.2 0 8-5.2 14.8-13.3 17.9 3.6 3 6.8 6 11 10.2l8.5 8.5c6.9 6.9 13.2 10.2 20.7 10.6l.9.1v3.8h-.9c-2 0-3.5.1-5 .1zm-58.9-33.6c1.1.1 2 .1 3.1.1h1.2 1.5c12.6 0 18.9-5.7 18.9-17.1 0-7.2-2.1-16.9-20.2-16.9-1.7 0-3 0-4.4.1v33.8z"/><path d="M364.6 196.5c0 6.5 2.6 8.1 8.6 8.1h2.5v2.1h-30.6v-2.1h1.8c6.4 0 8.6-1.7 8.6-9v-45.5c0-6.7-1.8-8.6-8.1-8.6H345v-2.1c2.6 0 9.2-.4 13.6-.6s6.6-.3 13.6-.3c20 0 29 8.2 29 19.2 0 8.1-5.5 14.9-14.4 17.5 4 3.1 7.2 6.2 12.3 11.2l8.5 8.5c6.4 6.4 13 10.4 21.3 10.9v1.9c-18.9.9-23.8-3.2-33.4-12.9l-7.1-7.1c-4.8-4.8-8.5-7.9-11.1-9.6-2.7.1-4.4.2-7.3.2-2.4 0-3.8-.1-5.5-.2v18.4zm0-20.3c2.6.3 4.2.2 6.7.2 12 0 19.9-5.1 19.9-18 0-10.1-4.5-17.8-21.2-17.8-2.1 0-3.5 0-5.4.2v35.4zm92.2 31.5v-4h5c5.9 0 7.6-1.5 7.6-6.9v-52.4h-17.8c-3.5 0-5.3 1.6-6.9 11.2l-.1.8h-3.8l1.9-19.4h3.8l.1.8c0 .2.1.4.5.5.5.2 1.2.3 1.9.3h52c.5 0 2.3-.1 2.4-.8l.1-.8h3.7l1.9 19.4h-3.8l-.1-.8c-1.6-9.6-3.5-11.2-6.9-11.2h-17.8v52.4c0 5.4 1.6 6.9 7.6 6.9h5v4h-36.3z"/><path d="M479.3 196.8c0 5.8 1.9 7.9 8.5 7.9h4v2.1h-34v-2.1h4c6.6 0 8.5-2.1 8.5-7.9v-53.4h-18.8c-4.3 0-6.3 2.5-7.9 12h-1.9l1.7-17.5h2.1c.1.6.5 1.1 1.2 1.3.6.2 1.4.3 2.2.3h52c1.5 0 3.1-.3 3.4-1.6h2.1l1.7 17.5H506c-1.6-9.5-3.6-12-7.9-12h-18.8v53.4z"/></svg>