<?xml version="1.0"?>
<svg xmlns="http://www.w3.org/2000/svg" xmlns:xlink="http://www.w3.org/1999/xlink" xmlns:svgjs="http://svgjs.com/svgjs" version="1.1" width="512" height="512" x="0" y="0" viewBox="0 0 512 512" style="enable-background:new 0 0 512 512" xml:space="preserve" class=""><g><g xmlns="http://www.w3.org/2000/svg"><g><g><g><g><g><g><g><circle cx="256" cy="256" fill="#f1f1f1" r="256" data-original="#ffce00" style="" class=""/></g></g></g></g></g></g></g><path d="m512 256c0-3.688-.078-7.357-.233-11.007l-138.857-138.857-275.511 261.098 144.377 144.377c4.709.258 9.451.389 14.224.389 141.385 0 256-114.615 256-256z" fill="#f1f1f1" data-original="#fdba12" style="" class=""/><g><path d="m391.013 156.719c0-44.028-35.692-79.719-79.719-79.719-44.028 0-79.719 35.692-79.719 79.719v122.865h159.439v-122.865z" fill="#606aea" data-original="#606aea" style="" class=""/></g><g><path d="m391.013 156.719c0-43.945-35.558-79.578-79.471-79.713v202.578h79.471z" fill="#4855b7" data-original="#4855b7" style="" class=""/></g><g><path d="m231.574 254.824v100.457c0 44.028 35.692 79.719 79.719 79.719 44.028 0 79.719-35.692 79.719-79.719v-100.457z" fill="#2fddd0" data-original="#2fddd0" style="" class=""/></g><g><path d="m311.542 254.824v180.17c43.913-.135 79.471-35.769 79.471-79.713v-100.457z" fill="#11bfae" data-original="#11bfae" style="" class=""/></g><g><path d="m197.074 403.077c54.767-7.808 96.875-54.899 96.875-111.824 0-57.012-42.24-104.15-97.129-111.85h-31.663c-54.89 7.7-97.129 54.837-97.129 111.85 0 56.903 42.098 103.982 96.834 111.818z" fill="#ffffff" data-original="#ffffff" style="" class=""/></g><g><path d="m196.819 179.403h-16v223.939c.056 0 .112.002.169.002 5.486 0 10.849.483 16.127-.273 54.732-7.84 96.834-54.918 96.834-111.818 0-57.013-42.24-104.15-97.13-111.85z" fill="#e9edf5" data-original="#e9edf5" style="" class=""/></g><g><path d="m164.861 403.071c5.267.753 10.651 1.143 16.127 1.143s10.86-.39 16.127-1.143v-223.626c-5.267-.753-10.651-1.153-16.127-1.153s-10.859.4-16.127 1.153z" fill="#dce1eb" data-original="#dce1eb" style="" class=""/></g><g><path d="m180.988 178.292c-.056 0-.112.003-.169.003v225.916c.056 0 .112.003.169.003 5.475 0 10.86-.39 16.127-1.143v-223.626c-5.267-.753-10.652-1.153-16.127-1.153z" fill="#bec3d2" data-original="#bec3d2" style="" class=""/></g></g></g></svg>
