<?xml version="1.0"?>
<svg xmlns="http://www.w3.org/2000/svg" xmlns:xlink="http://www.w3.org/1999/xlink" xmlns:svgjs="http://svgjs.com/svgjs" version="1.1" width="512" height="512" x="0" y="0" viewBox="0 0 512 512" style="enable-background:new 0 0 512 512" xml:space="preserve" class=""><g><circle xmlns="http://www.w3.org/2000/svg" cx="256" cy="256" fill="#f1f1f1" r="256" data-original="#2fa69a" style="" class=""/><path xmlns="http://www.w3.org/2000/svg" d="m509.913 288.821-131.956-131.956-60.668 162.582-142.289-142.288-66 191.841 142.949 142.949c1.35.021 2.697.051 4.051.051 130.264 0 237.802-97.295 253.913-223.179z" fill="#f1f1f1" data-original="#12887a" style="" class=""/><path xmlns="http://www.w3.org/2000/svg" d="m85.67 177.16h89.33v81.17h-89.33z" fill="#fcd748" data-original="#fcd748" style="" class=""/><path xmlns="http://www.w3.org/2000/svg" d="m138.91 177.16h36.09v81.17h-36.09z" fill="#fabf40" data-original="#fabf40" style="" class=""/><path xmlns="http://www.w3.org/2000/svg" d="m77 216.33h125.99v84h-125.99z" fill="#595959" data-original="#595959" style=""/><path xmlns="http://www.w3.org/2000/svg" d="m138.91 216.33h64.08v84h-64.08z" fill="#303030" data-original="#303030" style=""/><circle xmlns="http://www.w3.org/2000/svg" cx="109.67" cy="241.67" fill="#bcdefa" r="16.667" data-original="#bcdefa" style=""/><circle xmlns="http://www.w3.org/2000/svg" cx="168.56" cy="241.67" fill="#b2d3ea" r="16.667" data-original="#b2d3ea" style=""/><path xmlns="http://www.w3.org/2000/svg" d="m240 218.96h91.97v62.09h-91.97z" fill="#ec5353" data-original="#ec5353" style="" class=""/><path xmlns="http://www.w3.org/2000/svg" d="m286.52 218.96h45.45v62.09h-45.45z" fill="#d13135" data-original="#d13135" style=""/><path xmlns="http://www.w3.org/2000/svg" d="m327.33 218.96h91.97v62.09h-91.97z" fill="#bcdefa" data-original="#bcdefa" style=""/><path xmlns="http://www.w3.org/2000/svg" d="m372.83 218.96h46.47v62.09h-46.47z" fill="#92cbf7" data-original="#92cbf7" style=""/><path xmlns="http://www.w3.org/2000/svg" d="m285.99 156.87h91.97v62.09h-91.97z" fill="#fcd748" data-original="#fcd748" style="" class=""/><path xmlns="http://www.w3.org/2000/svg" d="m329.98 156.87h47.981v62.09h-47.981z" fill="#fabf40" data-original="#fabf40" style="" class=""/><path xmlns="http://www.w3.org/2000/svg" d="m375.999 369h-266.999l-50-97.865h418.908z" fill="#ffffff" data-original="#ffffff" style="" class=""/><path xmlns="http://www.w3.org/2000/svg" d="m477.908 271.135h-222.337v97.865h120.428z" fill="#e0e0e0" data-original="#e0e0e0" style="" class=""/></g></svg>
