<?xml version="1.0"?>
<svg xmlns="http://www.w3.org/2000/svg" xmlns:xlink="http://www.w3.org/1999/xlink" xmlns:svgjs="http://svgjs.com/svgjs" version="1.1" width="512" height="512" x="0" y="0" viewBox="0 0 512 512" style="enable-background:new 0 0 512 512" xml:space="preserve" class=""><g><g xmlns="http://www.w3.org/2000/svg"><g><g><g id="XMLID_1770_"><g id="XMLID_1771_"><g id="XMLID_1772_"><g id="XMLID_1773_"><g id="XMLID_1774_"><g id="XMLID_1775_"><g id="XMLID_1776_"><g id="XMLID_1777_"><g id="XMLID_1778_"><g id="XMLID_1779_"><g id="XMLID_1780_"><g id="XMLID_1781_"><g id="XMLID_1782_"><g id="XMLID_1783_"><g id="XMLID_1784_"><circle cx="256" cy="256" fill="#f1f1f1" r="256" data-original="#46f7d5" style="" class=""/></g></g></g></g></g></g></g></g></g></g></g></g></g></g></g></g></g><path d="m256 512c141.385 0 256-114.615 256-256 0-12.704-.94-25.187-2.727-37.395l-161.367-161.367-224.531 166.525 21.305 21.812 10.546 33.536 39.174 39.416-145.083 88.529c46.575 63.618 121.797 104.944 206.683 104.944z" fill="#f1f1f1" data-original="#2ad1b5" style="" class=""/><g><path d="m199.97 260.488h112.06v118.84h-112.06z" fill="#f7a969" data-original="#f7a969" style=""/><path d="m256 260.491h56.03v118.84h-56.03z" fill="#ea8d4e" data-original="#ea8d4e" style="" class=""/><path d="m385.54 332.29h-73.51v.002l-56.03 28.041-56.03-28.041v-.002h-73.5c-41.82 0-75.88 33.26-77.16 74.77 46.57 63.62 121.81 104.94 206.69 104.94s160.12-41.32 206.69-104.94c-1.27-41.52-35.32-74.77-77.15-74.77z" fill="#ffc136" data-original="#ffc136" style="" class=""/><path d="m462.69 407.06c-46.57 63.62-121.81 104.94-206.69 104.94v-151.667l56.03-28.043h73.51c41.83 0 75.88 33.25 77.15 74.77z" fill="#f4a300" data-original="#f4a300" style="" class=""/><path d="m312.03 311.667 44.053 20.623-41.083 80.377-59-52.334z" fill="#474441" data-original="#474441" style="" class=""/><path d="m346.926 155.329c-3.841-58.315-51.012-79.867-90.926-79.867s-87.085 21.551-90.926 79.866c-10.322 1.996-17.654 15.534-16.499 26.48l1.769 24.91c1.211 11.495 11.315 19.886 22.45 18.637l1.92-.208c22.809 61.248 58.58 67.634 81.285 71.219 22.705-3.586 58.476-9.971 81.285-71.219l1.921.208c11.135 1.249 21.239-7.143 22.45-18.637l1.769-24.91c1.155-10.945-6.177-24.483-16.498-26.479z" fill="#ffbf85" data-original="#ffbf85" style="" class=""/><g><g><path d="m216.756 288.325h-35.09c-23.534 0-42.68-19.146-42.68-42.68v-35.837h30v35.837c0 6.991 5.688 12.68 12.68 12.68h35.09z" fill="#f4f2ef" data-original="#f4f2ef" style="" class=""/></g></g><path d="m363.425 181.809-1.769 24.91c-1.211 11.495-11.315 19.886-22.45 18.637l-1.921-.208c-7.796 20.908-17.095 35.43-26.868 45.619-18.846 19.659-39.46 23.235-54.417 25.6v-220.905c39.914 0 87.085 21.551 90.926 79.866 10.321 1.997 17.653 15.535 16.499 26.481z" fill="#f7a969" data-original="#f7a969" style=""/><path d="m199.97 311.667-44.053 20.623 41.083 80.377 59-52.334z" fill="#726e6b" data-original="#726e6b" style="" class=""/><path d="m359.166 121.063c0-32.317-23.725-59.733-55.706-64.375l-4.28-.621c-28.636-4.156-57.723-4.156-86.359 0l-4.28.621c-31.981 4.642-55.706 32.058-55.706 64.374 0 8.633 2.429 22.329 5.398 30.435l12.603 34.416h14.872l11.156-48.212c2.864-12.377 16.14-19.237 27.893-14.412 20.018 8.218 42.468 8.218 62.486 0 11.753-4.825 25.029 2.035 27.893 14.412l11.156 48.212h14.872l12.603-34.416c2.97-8.105 5.399-21.801 5.399-30.434z" fill="#726e6b" data-original="#726e6b" style="" class=""/><path d="m359.17 121.06c0 8.64-2.43 22.33-5.4 30.44l-2.04 5.56-10.57 28.85h-14.87l-11.15-48.21c-2.24-9.66-10.83-15.96-20.08-15.96-2.6 0-5.24.49-7.82 1.55-10 4.11-20.62 6.17-31.24 6.17v-76.51c14.43 0 28.86 1.04 43.18 3.12l4.28.62c31.98 4.64 55.71 32.06 55.71 64.37z" fill="#605e5c" data-original="#605e5c" style="" class=""/><g><path d="m373.168 157.062h-30v-34.288c0-37.397-30.426-67.823-67.824-67.823h-38.688c-37.398 0-67.824 30.426-67.824 67.823v34.288h-30v-34.288c0-53.939 43.883-97.823 97.824-97.823h38.688c53.941 0 97.824 43.884 97.824 97.823z" fill="#f4f2ef" data-original="#f4f2ef" style="" class=""/></g><g><path d="m373.17 122.77v34.29h-30v-34.29c0-37.39-30.43-67.82-67.83-67.82h-19.34v-30h19.34c53.94 0 97.83 43.88 97.83 97.82z" fill="#e5e1dc" data-original="#e5e1dc" style="" class=""/></g><g><path d="m138.238 228.332h25.758c7.752 0 14.036-6.284 14.036-14.036v-54.113c0-7.752-6.284-14.036-14.036-14.036h-25.758c-14.612 0-26.457 11.845-26.457 26.457v29.271c-.001 14.612 11.845 26.457 26.457 26.457z" fill="#f9710d" data-original="#f9710d" style=""/><path d="m373.762 228.332h-25.751c-7.752 0-14.036-6.284-14.036-14.036v-54.113c0-7.752 6.284-14.036 14.036-14.036h25.751c14.612 0 26.457 11.845 26.457 26.457v29.271c0 14.612-11.845 26.457-26.457 26.457z" fill="#e54c00" data-original="#e54c00" style=""/></g><path d="m242.921 295.387h-17.966c-7.223 0-13.079-5.856-13.079-13.079v-17.966c0-7.223 5.856-13.079 13.079-13.079h17.966c7.223 0 13.079 5.856 13.079 13.079v17.966c0 7.223-5.856 13.079-13.079 13.079z" fill="#726e6b" data-original="#726e6b" style="" class=""/></g></g></g></svg>
