<?xml version="1.0" encoding="utf-8"?>
<svg version="1.1" id="Layer_1" xmlns="http://www.w3.org/2000/svg" xmlns:xlink="http://www.w3.org/1999/xlink" x="0px" y="0px"
	width="100px" height="100px" viewBox="0 0 307.1 307.1" style="enable-background:new 0 0 307.1 307.1;" xml:space="preserve">
<g>
	<circle cx="153.5" cy="153.5" r="153.5"/>
	<g>
		<path id="Fill-4" style="fill:#FFFFFF;" d="M270.4,149c-3-0.1-6,0-8.9-0.2c-2.3-0.1-4.7-0.4-7-0.6c-1.5-0.2-2.9-0.3-4.4-0.6
			c-1.7-0.3-3.5-0.7-5.2-1.2c-1.9-0.6-3.9-1.2-5.7-2c-1.4-0.6-2.7-1.4-4-2.2c-1.4-0.9-2.6-2-3.6-3.3c-1.2-1.7-0.8-3.3,0.8-4.5
			c4-2.9,8-5.8,11.9-8.8c2.1-1.6,4.1-3.3,6.1-5.1c3-2.6,5.9-5.3,8.5-8.3c1.3-1.5,2.4-3.1,3.2-4.9c0.5-1.1,0.8-2.4,0.3-3.5
			c-1.2-2.4-3.4-3.4-5.8-3.7c-3.4-0.4-6.6,0.7-9.5,2.4c-2,1.1-3.8,2.6-5.7,4c-3.8,2.9-7.3,6.1-10.4,9.6c-2.5,2.8-4.8,5.7-6.6,8.9
			c-2,3.5-3.6,7.2-4.3,11.2c-0.1,0.4-0.2,0.8-0.4,1.2c-0.9,1.4-2.1,2.5-3.4,3.5c-1.7,1.2-3.5,2.1-5.4,2.9c-1.6,0.7-3.2,1-4.9,1.1
			c-0.5,0-1.1,0-1.6-0.2c-0.3,0-0.5-0.3-0.7-0.5c-0.1-0.1-0.2-0.4-0.1-0.6c0.1-0.1,0.3-0.2,0.5-0.2c0.2,0,0.4,0,0.6,0
			c2.2-0.3,4.3-0.9,6.2-2c3.2-1.8,5.9-4,7.6-7.3c0.9-1.8,1-3.6-0.1-5.3c-0.4-0.7-0.9-1.4-1.4-2c-1.9-2.1-4.1-3.1-7-2.9
			c-1.7,0.1-3.3,0.8-4.8,1.5c-3.1,1.5-5.9,3.4-8,6.2c-1.4,1.8-2.1,3.8-2.5,6c-0.1,0.8-0.5,1.1-1.2,0.8c-0.9-0.5-1.7-1.1-2.5-1.7
			c-0.2-0.2-0.3-0.6-0.3-0.9c-0.2-2.8-1.8-4.1-3.8-4.8c-1.7-0.6-3.5-0.6-5.2-0.5c-0.3,0-0.6-0.1-0.8-0.2c-1.5-1.1-3.1-2.1-4.9-2.6
			c-1.9-0.5-3.8-0.4-5.3,0.9c-3.1,2.7-6.2,5.4-9.2,8.2c-2.8,2.6-5.5,5.4-8.3,8.1c-0.6,0.6-1.4,1.2-2.1,1.7c-0.2,0.2-0.7,0.3-0.9,0.1
			c-0.2-0.2-0.4-0.6-0.3-0.9c0.2-1,0.5-2,0.9-3c0.5-1.5,1.2-3,1.7-4.5c0.6-2-0.6-3.9-2.5-4.6c-1.6-0.7-3.3-0.8-5-0.9
			c-3.2-0.1-6.3,0.5-9.2,1.7c-3.2,1.3-6,3.3-8.2,6c-1.8,2.2-3.5,4.5-4.6,7.1c-1.1,2.8-1.4,5.5,0.2,8.3c1.2,1.9,2.7,3.4,4.9,3.9
			c2,0.4,3.9,0,5.7-0.9c3-1.5,5.5-3.8,7.7-6.3c0.2-0.2,0.3-0.5,0.5-0.7c0.1,0,0.2,0.1,0.3,0.1c0.2,0.4,0.3,0.9,0.5,1.3
			c0.6,1.4,1.7,2.7,3.7,2.4c1-0.2,1.9-0.6,2.7-1.1c2.7-1.5,4.8-3.7,6.9-5.9c0.3-0.3,0.6-0.7,1-1.1c0.1,0.2,0.2,0.3,0.2,0.5
			c0.2,0.8,0.4,1.6,0.7,2.4c1.2,3.2,3.4,4.6,6.8,4c2.1-0.3,4-1.3,5.8-2.5c2.2-1.5,4.2-3.2,6.3-4.9c0.2-0.1,0.4-0.3,0.5-0.4
			c0,0,0.1,0.1,0.2,0.1c0,0.3,0,0.5-0.1,0.8c-1.2,3.2-2.3,6.5-3.5,9.7c-1,2.6-2.1,5.3-3.2,7.8c-1.4,3.2-2.8,6.3-4.4,9.4
			c-1.8,3.3-3.7,6.6-5.7,9.8c-2.4,3.9-5.2,7.4-8.5,10.6c-2.2,2.2-4.6,4-7.4,5.3c-2.7,1.3-5.4,2.3-8.3,2.8c-2.5,0.4-4.9,0.6-7.3,0
			c-2.5-0.6-4.4-2-5.8-4.1c-1.1-1.8-1.7-3.7-2.1-5.8c-0.3-1.5-0.3-1.5-1.9-1.3c-2.3,0.2-4.4,0.9-6.5,1.8c-1.4,0.6-1.4,0.7-0.7,2
			c2.2,3.8,5.4,6.5,9.2,8.5c1,0.5,2,1,3.1,1.3c1.3,0.4,2.7,0.8,4,1c1.7,0.3,3.3,0.5,5,0.6c1,0.1,2-0.1,3.1-0.2
			c1.1-0.1,2.2-0.1,3.3-0.2c2.4-0.1,4.7-0.6,6.9-1.3c1.9-0.6,3.7-1.4,5.5-2.3c3.2-1.5,6-3.6,8.6-5.9c3.8-3.4,7-7.4,9.6-11.8
			c1.8-3.2,3.5-6.6,5.1-9.9c1.3-2.6,2.5-5.3,3.7-8c1.3-2.9,2.6-5.8,3.9-8.7c1.2-2.7,2.4-5.4,3.5-8.1c1.1-2.6,2.2-5.3,3.3-8
			c0.2-0.4,0.4-0.5,0.8-0.3c0.5,0.3,0.9,0.6,1.4,0.8c0.8,0.4,1.7,0.8,2.6,1.1c0.5,0.1,0.9,0.3,1.1,0.8c0.3,0.6,0.5,1.2,0.8,1.7
			c2.7,4.8,7,6.5,12,5.5c2.3-0.5,4.3-1.6,6.1-3c2.8-2.1,5.2-4.6,7.4-7.4c0.3-0.4,0.5-0.4,0.9-0.1c2.9,2.9,6.3,4.8,10,6.3
			c1.9,0.8,3.8,1.3,5.7,2c0.8,0.3,1.5,0.4,2.3,0.6c1.2,0.2,2.3,0.4,3.5,0.6c2,0.3,3.9,0.6,5.9,0.7c2.6,0.1,5.2,0,7.8,0
			c1.3,0,2.5,0,3.8-0.2c2.2-0.2,4.5-0.5,6.7-0.8c0.8-0.1,1.5-0.5,2.2-0.8c0.3-0.1,0.3-0.6,0.5-0.8C271,149.2,270.7,149,270.4,149z
			 M233.3,125.8c0.5-0.9,1-1.9,1.7-2.7c1.4-1.7,2.9-3.4,4.5-5c2.8-2.9,5.9-5.6,9.2-8.1c1.3-1,2.7-1.9,4-2.8c0.3-0.2,0.7-0.4,1.1-0.5
			c0.4-0.1,0.7,0.1,0.6,0.7c-0.1,0.2-0.3,0.6-0.5,0.8c-1.4,1.5-2.7,3-4.1,4.4c-1.9,1.8-3.8,3.6-5.7,5.4c-1.2,1.1-2.4,2.2-3.7,3.3
			c-1.1,1-2.1,2-3.3,3c-1,0.8-2,1.5-3,2.2c-0.2,0.1-0.6,0.1-0.7,0C233.3,126.3,233.2,125.9,233.3,125.8z M143.8,138.7
			c-0.8,2.3-2.2,4.3-3.6,6.3c-1.7,2.5-3.7,4.6-6,6.5c-0.8,0.7-1.7,1.2-2.5,1.3c-1,0-1.4-0.4-1.1-1.2c0.5-1.4,0.9-2.8,1.6-4
			c1.3-2.3,2.6-4.6,4.1-6.8c1-1.5,2.6-2.6,4.4-3.2c0.7-0.2,1.4-0.3,2.1-0.4C143.7,137.2,144.1,137.8,143.8,138.7z M176.8,135.7
			c-0.6,1.4-1.3,2.8-2.2,4.1c-1.7,2.5-3.6,4.8-5.9,6.8c-0.7,0.6-1.5,1.1-2.4,1.5c-0.9,0.3-1.2-0.1-1.4-1c0.4-1,0.6-2.2,1.1-3.1
			c1.2-2,2.6-3.9,4-5.8c0.7-0.9,1.4-1.8,2.2-2.6c1-1,2.1-1.6,3.5-1.5C176.8,134.2,177.3,134.8,176.8,135.7z M203.3,136.1
			c1-1.1,1.9-2.3,2.9-3.3c1-1,2.2-1.7,3.5-2c0.2-0.1,0.5-0.1,0.7-0.2c0.9,0.2,1.8,0.5,2.5,1.2c0.3,0.3,0.3,0.7-0.1,1
			c-1.2,0.7-2.3,1.5-3.5,2.1c-1.1,0.6-2.3,1-3.5,1.5c-0.7,0.2-1.3,0.4-2,0.5c-0.2,0-0.5-0.1-0.6-0.2
			C203.1,136.6,203.2,136.3,203.3,136.1z"/>
		<path id="Fill-6" style="fill:#FFFFFF;" d="M117.6,133.5c2.6-1.4,4.6-3.5,5.9-6.2c1.6-3.3,1.1-6.3-2.1-8.5
			c-1.6-1.1-3.3-1.8-5.3-2.2c-1.8-0.4-3.5-0.9-5.3-1.1c-2.6-0.3-5.3-0.5-7.9-0.5c-2.6-0.1-5.2,0.1-7.8,0.1c-0.4,0-0.8,0-1.2,0
			c-1.8,0.2-3.7,0.4-5.5,0.6c-1.7,0.2-3.4,0.4-5,0.7c-1.8,0.3-3.6,0.7-5.4,1.1c-2.4,0.6-4.8,1.1-7.1,1.8c-2.5,0.7-4.9,1.6-7.4,2.4
			c-0.4,0.1-0.8,0.3-1.1,0.5c0,0.1,0,0.1,0.1,0.2c0.2,0,0.3,0.1,0.4,0.1c2.7,0.2,5.4,0.5,8.1,0.7c0.9,0.1,1.7,0.3,2.6,0.3
			c0.7,0.1,1.5,0.1,2.2,0c1.5-0.2,2.9-0.5,4.4-0.7c0.2,0,0.3,0.1,0.5,0.2c-0.1,0.2-0.1,0.3-0.2,0.5c-1.1,1.4-2.2,2.8-3.3,4.2
			c-3.3,4.1-6.6,8.3-9.9,12.4c-2.3,2.9-4.6,5.7-6.9,8.6c-2.3,2.8-4.5,5.7-6.8,8.5c-2.5,3.1-5,6.2-7.4,9.3c-1.7,2.1-3.4,4.3-5.2,6.5
			c-0.3,0.4-0.7,0.8-1.1,0.9c-1.1,0.3-2.2,0.4-3.3,0.6c-0.3,0.1-0.6,0.2-1,0.3c0.2,0.2,0.3,0.3,0.3,0.3c0.9,0.3,1.8,0.6,2.6,0.8
			c2.1,0.5,4.2,1.1,6.3,1.6c0.8,0.2,1.8,0.2,2.6,0.1c1.5-0.2,2.9-0.5,4.4-0.8c1.2-0.2,2.5-0.4,3.7-0.6c1-0.2,2-0.4,3-0.6
			c1.8-0.3,3.5-0.6,5.3-1c0.7-0.1,1.5-0.3,2.2-0.5c0.9-0.2,1.9-0.4,2.8-0.6c1.5-0.3,3-0.6,4.5-1c1.4-0.3,2.8-0.7,4.3-1.1
			c1.5-0.4,2.9-0.7,4.4-1.1c1.2-0.3,2.4-0.7,3.6-1c1.7-0.5,3.4-0.9,5-1.5c1.9-0.6,3.8-1.2,5.6-1.9c2.4-0.9,4.8-1.7,7.2-2.8
			c2.5-1.1,4.8-2.3,7.2-3.6c2.5-1.3,4.9-3,6.9-5.1c1.5-1.6,2.8-3.4,3.3-5.6c0.5-2.4,0-4.7-1.1-6.8c-1.4-2.7-3.4-4.8-5.7-6.6
			c-0.2-0.1-0.3-0.4-0.4-0.6c0.2-0.1,0.3-0.2,0.5-0.3C115.4,134.3,116.6,134,117.6,133.5z M111.2,145.9c-0.9,1.5-2.1,2.8-3.4,3.9
			c-2.2,1.8-4.6,3.3-7.2,4.5c-2.4,1.1-5,2.1-7.5,3.1c-2,0.8-4,1.5-5.9,2.2c-2.4,0.9-4.8,1.7-7.2,2.6c-1.8,0.6-3.6,1.3-5.4,1.9
			c-2.4,0.8-4.9,1.5-7.3,2.3c-2.1,0.7-4.1,1.4-6.2,2c-1.1,0.4-2.3,0.6-3.4,0.9c-0.3,0.1-0.6,0.3-1,0.4c-0.2,0-0.5,0-0.7,0
			c0-0.3,0-0.5,0.2-0.7c0.9-1.3,1.8-2.5,2.7-3.7c2.4-3.4,4.9-6.8,7.3-10.2c3-4.1,5.9-8.3,8.9-12.4c4-5.5,8-11.1,12-16.6
			c1-1.4,1.9-2.7,2.9-4.1c0.2-0.2,0.4-0.4,0.7-0.5c1.1-0.2,2.2-0.3,3.3-0.5c4.1-0.5,8.3-0.8,12.4-0.7c1.7,0,3.3,0.4,4.7,1.3
			c1.1,0.7,1.3,1.7,0.5,2.7c-1,1.3-2.5,2.1-4,2.8c-1.9,0.9-3.8,1.8-5.7,2.5c-1.7,0.7-3.4,1.2-5.2,1.8c-2.3,0.7-4.7,1.4-7.1,2
			c-1.3,0.3-2.6,0.5-4,0.7c-1.3,0.2-2.7,0.5-4.2,0.7c1,0.8,1.9,1.6,2.8,2.3c1.7,1.4,3.5,2.7,5.1,4.1c0.8,0.7,1.5,0.9,2.5,0.3
			c0.8-0.4,1.7-0.6,2.6-0.9c1.8-0.6,3.5-1.2,5.2-1.7c1.1-0.3,2.3-0.6,3.4-0.9c0.9-0.2,1.7-0.5,2.6-0.7c1.6-0.4,3.1-0.2,4.2,1.1
			c1,1,1.9,2.1,2.2,3.6C112.3,143.7,111.9,144.8,111.2,145.9z"/>
		<path id="Fill-8" style="fill:#FFFFFF;" d="M242.6,162.7c-1.4-0.5-2.8-0.6-4.2-0.4c-2.4,0.4-4,2-4,4.2c0,6.2,0,12.4,0,18.6
			c0,1.5,0.7,2.8,2.1,3.5c1.8,0.9,3.7,1,5.7,0.4c2.2-0.7,3-1.8,3-4.1v-9c0-3.2,0-6.4,0-9.6C245.1,164.6,244.2,163.3,242.6,162.7z
			 M241,185.1c0,1-0.8,1.6-1.7,1.2c-0.2-0.1-0.4-0.3-0.5-0.5c-0.1-0.4-0.2-0.9-0.2-1.3c0-5.7,0-11.4,0-17c0-0.4,0.1-0.8,0.2-1.2
			c0.2-0.6,0.7-0.9,1.3-0.8c0.7,0.1,1,0.5,1,1.2c0,3.1,0,6.2,0,9.4C241,178.9,241,182,241,185.1z"/>
		<path id="Fill-10" style="fill:#FFFFFF;" d="M258.3,185.5c-0.1-2.4-0.2-4.8-0.3-7.2c-0.1-1.6-0.8-2.5-2.4-3
			c-0.2-0.1-0.4-0.3-0.6-0.4c0.2-0.1,0.3-0.3,0.5-0.4c1.9-0.7,2.6-1.7,2.6-3.7c0-1.3,0.1-2.6,0-3.9c-0.1-0.7-0.3-1.4-0.6-2.1
			c-0.8-1.6-2.4-2-4-2.1c-1.9-0.1-3.8,0-5.6,0c-0.5,0-0.6,0.1-0.6,0.6c0,5.7,0,11.5,0,17.2c0,2.5,0,5.1,0,7.6c0,0.6,0.2,0.8,0.8,0.8
			c0.8,0,1.6-0.1,2.5,0c0.7,0,0.9-0.2,0.9-0.9c0-3.5,0-7,0-10.5c0-0.9,0.1-1,1-0.9c0.1,0,0.3,0.1,0.4,0.1c1,0.4,1.5,1.3,1.4,2.7
			c-0.3,3-0.1,5.9,0.3,8.8c0,0.2,0.2,0.5,0.4,0.5c1.2,0,2.4,0,3.7,0C258.5,187.7,258.3,186.6,258.3,185.5z M254.1,171.4
			c0,0.4-0.1,0.8-0.2,1.2c-0.2,0.7-1.4,1.2-2,0.9c-0.2-0.1-0.3-0.5-0.3-0.7c0-1,0-2.1,0-3.1c0-1,0-2,0-3c0-0.6,0.2-0.9,0.9-0.9
			c1.2,0.1,1.7,0.5,1.7,1.8C254.1,168.9,254.1,170.1,254.1,171.4z"/>
		<path id="Fill-12" style="fill:#FFFFFF;" d="M208.6,188.1c-0.1-0.4-0.2-0.8-0.2-1.2c-0.2-1.7-0.4-3.4-0.6-5.1
			c-0.4-3.4-0.9-6.8-1.3-10.2c-0.3-2.7-0.7-5.5-1-8.2c-0.1-0.5-0.3-0.7-0.8-0.7c-0.8,0-1.6,0-2.4,0c-0.8,0-1.7,0-2.5,0
			c-0.4,0-0.6,0.2-0.7,0.6c-0.2,1.5-0.3,3.1-0.5,4.6c-0.3,2.6-0.6,5.2-0.9,7.8c-0.3,2.3-0.6,4.7-0.9,7c-0.2,1.9-0.4,3.8-0.6,5.7
			c0,0.4,0.1,0.5,0.4,0.5c0.9,0,1.8,0,2.7,0c0.1,0,0.3-0.1,0.4-0.3c0.1-0.5,0.2-0.9,0.3-1.4c0.2-1.6,0.4-3.2,0.5-4.8
			c0.1-0.5,0.3-0.7,0.8-0.7c0.6,0,1.2,0,1.8,0c0.5,0,0.7,0.2,0.7,0.6c0.2,2,0.4,4,0.6,6c0,0.4,0.2,0.6,0.6,0.6c0.9,0,1.9,0,2.8,0
			C208.6,188.9,208.7,188.7,208.6,188.1z M202.2,178.4c-1,0-1,0-0.9-1.1c0.2-1.9,0.4-3.8,0.6-5.7c0.1-0.7,0.1-1.5,0.2-2.2
			c0-0.2,0.2-0.3,0.3-0.4c0.1,0.1,0.2,0.3,0.2,0.4c0.1,0.7,0.1,1.4,0.2,2.1c0.1,2,0.3,3.9,0.5,5.9
			C203.2,178.4,203.2,178.4,202.2,178.4z"/>
		<path id="Fill-14" style="fill:#FFFFFF;" d="M209.9,175.8c0-3.1,0-6.2,0-9.3c0-1.3,0.5-2.5,1.6-3.2c0.7-0.4,1.5-0.7,2.3-0.9
			c1.8-0.4,3.5-0.2,5,0.7c1,0.5,1.6,1.4,1.7,2.5c0.1,2,0.1,4,0.1,6c0,0.4-0.2,0.6-0.6,0.6c-1,0-1.9,0-2.9,0c-0.5,0-0.6-0.3-0.6-0.7
			c0-1.7,0-3.3,0-5c0-0.6-0.2-1-0.7-1.2c-0.5-0.3-1.1-0.3-1.5,0.2c-0.3,0.4-0.5,1-0.5,1.6c-0.1,1.7,0,3.5,0,5.2c0,4,0,8,0,12.1
			c0,0.4,0.1,0.7,0.1,1.1c0.1,0.7,0.7,1.1,1.5,1c0.7-0.1,1.1-0.6,1.2-1.3c0-1.6,0-3.2,0-4.8c0-1.5-0.1-1.3,1.3-1.3
			c0.7,0,1.5,0,2.2,0c0.2,0,0.6,0.3,0.6,0.4c0,2.1,0,4.2-0.1,6.3c-0.1,1.4-0.9,2.4-2.2,2.9c-2.1,0.9-4.2,0.9-6.2,0
			c-1.6-0.7-2.3-2-2.3-3.7C209.9,182,209.9,178.9,209.9,175.8L209.9,175.8z"/>
		<path id="Fill-16" style="fill:#FFFFFF;" d="M258.9,162.8c1.3,0,2.6,0,3.8,0c0.1,0,0.4,0.3,0.4,0.5c0.6,2.8,1.2,5.6,1.9,8.4
			c0,0.2,0.2,0.4,0.3,0.6c0.1-0.2,0.4-0.4,0.4-0.6c0.6-2.6,1.1-5.2,1.7-7.7c0.1-0.3,0.1-0.6,0.3-0.9c0.1-0.1,0.2-0.3,0.4-0.3
			c1.1,0,2.2,0,3.4,0c-0.2,0.9-0.5,1.7-0.7,2.6c-0.4,1.6-0.8,3.2-1.3,4.9c-0.4,1.5-0.8,2.9-1.2,4.4c-0.6,2.4-1.4,4.7-1.2,7.2
			c0.1,2.1,0,4.2,0,6.4c0,0.6-0.2,0.8-0.8,0.8c-0.8,0-1.6,0-2.4,0c-0.6,0-0.9-0.2-0.9-0.9c0-2.5,0-4.9,0-7.4c0-1.3-0.3-2.6-0.6-3.8
			c-0.6-2.6-1.3-5.2-2-7.7c-0.5-2-1.1-4.1-1.7-6.1C258.9,163,258.9,162.9,258.9,162.8L258.9,162.8z"/>
		<path id="Fill-18" style="fill:#FFFFFF;" d="M186.8,175.8c0-1.5,0-3,0-4.5c0-2.7,0-5.3,0-8c0-0.4,0.1-0.6,0.6-0.6
			c2.7,0,5.4,0,8.1,0c0.4,0,0.6,0.1,0.5,0.5c0,0.7,0,1.4,0,2.1c0,0.6-0.2,0.8-0.8,0.8c-1.2,0-2.4,0-3.6,0c-0.6,0-0.8,0.2-0.8,0.8
			c0,1.8,0,3.5,0,5.3c0,0.6,0.2,0.9,0.8,0.9c1.2,0,2.4,0,3.6,0c0.6,0,0.8,0.2,0.7,0.8c-0.1,0.5,0,1.1,0,1.7c0,0.5-0.2,0.7-0.7,0.7
			c-1.1,0-2.2,0-3.3,0c-1,0-1.1,0.1-1.1,1.1c0,3.6,0,7.2,0,10.8c0,0.6-0.2,0.9-0.8,0.8c-0.8,0-1.7,0-2.5,0c-0.5,0-0.7-0.2-0.7-0.7
			c0-3.1,0-6.1,0-9.2L186.8,175.8C186.8,175.8,186.8,175.8,186.8,175.8L186.8,175.8z"/>
		<path id="Fill-20" style="fill:#FFFFFF;" d="M225.5,177.5c0-3.5,0-7,0-10.5c0-0.8,0-0.9-0.9-0.9c-0.7,0-1.4,0-2.1,0
			c-0.5,0-0.7-0.2-0.7-0.7c0-0.7,0-1.5,0-2.2c0-0.4,0.1-0.5,0.5-0.5c3.4,0,6.8,0,10.3,0c0.4,0,0.5,0.1,0.5,0.5c0,0.8,0,1.5,0,2.3
			c0,0.4-0.2,0.6-0.6,0.6c-0.7,0-1.4,0-2.1,0c-0.9,0-0.9,0-0.9,0.9c0,6.9,0,13.7,0,20.6c0,0.2,0,0.3,0,0.5c0.1,0.6-0.2,0.9-0.8,0.9
			c-0.9,0-1.8,0-2.6,0c-0.5,0-0.7-0.2-0.7-0.7c0-2.1,0-4.3,0-6.4C225.5,180.4,225.5,178.9,225.5,177.5L225.5,177.5z"/>
	</g>
</g>
</svg>
