<?xml version="1.0"?>
<svg xmlns="http://www.w3.org/2000/svg" xmlns:xlink="http://www.w3.org/1999/xlink" xmlns:svgjs="http://svgjs.com/svgjs" version="1.1" width="512" height="512" x="0" y="0" viewBox="0 0 512 512" style="enable-background:new 0 0 512 512" xml:space="preserve" class=""><g><g xmlns="http://www.w3.org/2000/svg"><g><g><g><g><g><g><circle cx="256" cy="256" fill="#f1f1f1" r="256" data-original="#ffce00" style="" class=""/></g></g></g></g></g></g><path d="m512 256c0-27.734-4.411-54.438-12.568-79.45l-105.76-105.759-275.344 358.418 75.085 75.085c20.029 5.033 40.996 7.706 62.587 7.706 141.385 0 256-114.615 256-256z" fill="#f1f1f1" data-original="#ffa300" style="" class=""/><g><path d="m393.672 429.209h-275.344v-358.418l34.418 23.505 34.418-23.505 34.418 23.505 34.418-23.505 34.418 23.505 34.418-23.505 34.418 23.505 34.418-23.505z" fill="#ffffff" data-original="#ffffff" style="" class=""/></g><g><path d="m393.672 70.791-34.418 23.505-34.418-23.505-34.418 23.505-34.418-23.505v358.418h137.672z" fill="#e9edf5" data-original="#e9edf5" style="" class=""/></g><path d="m198.279 135.228h-51.722v151.488h30v-48.044h21.722c28.519 0 51.721-23.202 51.721-51.722s-23.202-51.722-51.721-51.722zm0 73.443h-21.722v-43.443h21.722c11.977 0 21.721 9.744 21.721 21.722s-9.744 21.721-21.721 21.721z" fill="#ff432e" data-original="#ff432e" style="" class=""/><g fill="#333940"><path d="m153.729 398.45v-65.503h48.023v14.73h-31.131v10.213h30.443v14.731h-30.443v25.828h-16.892z" fill="#333940" data-original="#333940" style="" class=""/><path d="m210.879 398.45v-65.503h16.892v65.503z" fill="#333940" data-original="#333940" style="" class=""/><path d="m284.138 398.45-27.694-37.907v37.907h-16.892v-65.503h17.383l26.516 36.041v-36.041h16.989v65.503z" fill="#333940" data-original="#333940" style="" class=""/><path d="m312.218 398.45v-65.503h48.022v14.73h-31.131v10.213h30.443v14.731h-30.443v11.097h31.131v14.731h-48.022z" fill="#333940" data-original="#333940" style="" class=""/></g><g><path d="m289.419 146.569h73.629v30h-73.629z" fill="#9196aa" data-original="#9196aa" style=""/></g><g><path d="m313.528 197.392h49.52v30h-49.52z" fill="#9196aa" data-original="#9196aa" style=""/></g></g></g></svg>
