<?xml version="1.0" encoding="utf-8"?>
<svg version="1.1" id="Layer_1" xmlns="http://www.w3.org/2000/svg" xmlns:xlink="http://www.w3.org/1999/xlink" x="0px" y="0px"
	width="100px" height="100px" viewBox="0 0 100 100" style="enable-background:new 0 0 100 100;" xml:space="preserve">
<g>
	<path style="fill:#E8E8E8;" d="M50,0c27.6,0,50,22.4,50,50s-22.4,50-50,50S0,77.6,0,50S22.4,0,50,0"/>
	<path style="fill:#FFFFFF;" d="M50,1c27.1,0,49,21.9,49,49S77.1,99,50,99S1,77.1,1,50S22.9,1,50,1"/>
	<g>
		<path id="path36" style="fill-rule:evenodd;clip-rule:evenodd;fill:#035FA0;" d="M54.4,38.5c0-0.7-0.2-1.3-0.7-1.8
			c-0.5-0.5-1.1-0.7-1.8-0.7c-0.7,0-1.3,0.2-1.8,0.7c-0.5,0.5-0.7,1.1-0.7,1.8c0,0.7,0.2,1.3,0.7,1.8c0.5,0.5,1.1,0.7,1.8,0.7
			c0.7,0,1.3-0.2,1.8-0.7C54.1,39.8,54.4,39.2,54.4,38.5"/>
		<path id="path38" style="fill-rule:evenodd;clip-rule:evenodd;fill:#035FA0;" d="M61.3,38.6c0-0.7-0.2-1.3-0.7-1.8
			c-0.5-0.5-1.1-0.7-1.8-0.7c-0.7,0-1.3,0.2-1.8,0.7c-0.5,0.5-0.7,1.1-0.7,1.8c0,0.7,0.2,1.3,0.7,1.8c0.5,0.5,1.1,0.7,1.8,0.7
			c0.7,0,1.3-0.2,1.8-0.7C61.1,39.9,61.3,39.3,61.3,38.6"/>
		<path id="path72" style="fill-rule:evenodd;clip-rule:evenodd;fill:#D23A43;" d="M31.3,42.6c-0.6-0.4-1.4-0.6-2.5-0.6
			c-1.9,0-3.1,0.8-3.9,2.5c-0.4-1.6-1.5-2.5-3.4-2.5c-1.8,0-3.1,0.8-3.8,2.5v-2.2h-4.2v15.8h4.4v-9.2c0-1.3,0.1-2.3,0.4-2.8
			c0.2-0.5,0.7-0.7,1.4-0.7c0.6,0,0.9,0.2,1.1,0.5c0.2,0.3,0.2,1.1,0.2,2.2v10h4.4v-9.2c0-1.4,0.1-2.3,0.3-2.8
			c0.2-0.5,0.7-0.7,1.4-0.7c0.6,0,0.9,0.2,1.1,0.5c0.2,0.4,0.2,1.1,0.2,2.3v9.9h4.4V47.8c0-1.8-0.1-3.1-0.4-3.7
			C32.3,43.5,31.9,43,31.3,42.6"/>
		<path id="path74" style="fill-rule:evenodd;clip-rule:evenodd;fill:#D23A43;" d="M39.3,51.8V51h8.3c0-3.4-0.6-5.8-1.8-7
			c-1.2-1.3-2.7-1.9-4.5-1.9c-2,0-3.6,0.7-4.8,2.2c-1.2,1.4-1.8,3.5-1.8,6.3c0,2.4,0.6,4.4,1.7,5.8c1.1,1.4,2.8,2.2,4.9,2.2
			c3.5,0,5.6-1.8,6.3-5.5h-4c-0.2,1.6-0.9,2.4-2.2,2.4c-0.6,0-1.1-0.2-1.5-0.7C39.5,54.2,39.3,53.2,39.3,51.8l0-3.4
			c0-2.3,0.7-3.4,2-3.4c1.4,0,2,1,2,3v0.4h-4.1"/>
		<path id="path76" style="fill-rule:evenodd;clip-rule:evenodd;fill:#D23A43;" d="M54.1,58.1V42.3h-4.4v15.8H54.1"/>
		<path id="path78" style="fill-rule:evenodd;clip-rule:evenodd;fill:#D23A43;" d="M61.3,42.3h-4.4v15.2c0,1.1-0.1,1.8-0.2,2.2
			c-0.2,0.3-0.6,0.5-1.2,0.5l-0.6,0v3.6l2.4,0.2c1,0,1.9-0.2,2.6-0.7c0.7-0.5,1.1-1.1,1.3-1.9c0.2-0.8,0.3-2,0.3-3.7L61.3,42.3"/>
		<path id="path80" style="fill-rule:evenodd;clip-rule:evenodd;fill:#D23A43;" d="M65.1,44.2c-1.2,1.4-1.8,3.5-1.8,6.3
			c0,2.4,0.6,4.4,1.7,5.8c1.1,1.4,2.7,2.2,4.9,2.2c3.5,0,5.6-1.8,6.3-5.5h-3.9c-0.2,1.6-0.9,2.4-2.2,2.4c-0.6,0-1.1-0.2-1.5-0.7
			c-0.4-0.5-0.6-1.4-0.6-2.8V51h8.3c0-3.4-0.6-5.8-1.8-7c-1.2-1.3-2.7-1.9-4.5-1.9C67.9,42,66.3,42.8,65.1,44.2L72,48l0,0.4h-4
			c0-2.3,0.7-3.4,2-3.4c1.4,0,2,1,2,3"/>
		<path id="path82" style="fill-rule:evenodd;clip-rule:evenodd;fill:#D23A43;" d="M82.1,42.3h-3.9v15.8h4.4v-6.8
			c0-3.2,1.1-4.9,3.2-4.9l0.7,0.1v-4.4l-0.7-0.1c-1.8,0-3,1.3-3.7,4V42.3"/>
	</g>
</g>
</svg>
