<svg xmlns="http://www.w3.org/2000/svg" width="134" height="46" fill-rule="evenodd"><path fill="#00a599" fill-rule="nonzero" d="M1.737 38.413c3.966 1.707 5.896 2.161 9.155 2.161 4.416 0 6.56-1.254 6.56-3.87 0-2.096-.772-2.68-6.496-4.452-5.51-1.643-6.24-1.967-7.847-3.61C1.672 27.258.9 25.183.9 22.762c0-5.685 4.674-9.36 12.007-9.36 3.902 0 6.303.714 10.184 2.94l-1.758 4.713-.772-.39a16.642 16.642 0 0 0-7.718-1.837c-3.902 0-6.11 1.319-6.11 3.675 0 2.161.964 3.134 4.159 3.999l1.372.389 2.272.648c6.883 2.032 8.834 4.13 8.834 9.296 0 5.75-4.353 9.165-11.685 9.165C6.947 46 4.224 45.352 0 43.125l1.737-4.712zm50.877 4.842C48.069 45.157 44.295 46 40.093 46c-7.526 0-12.07-3.675-12.07-9.75 0-5.49 3.43-9.23 10.312-11.391l7.525-2.356c-1.093-2.616-2.98-3.675-6.625-3.675-3.044 0-4.995.519-8.383 2.227l-1.822-4.713.579-.324c3.237-1.902 5.917-2.616 9.605-2.616 9.476 0 13.379 4.713 13.379 16.3v13.553h.02zm-6.025-13.532c0-.649 0-1.038-.064-1.967L39.9 29.788c-4.095 1.318-5.853 3.134-5.853 6.16 0 3.135 1.694 4.583 5.188 4.583a24.84 24.84 0 0 0 7.333-1.102v-9.706h.021zM59.432 1.837L65.478 0v14.656c2.659-.908 4.352-1.254 6.882-1.254 9.477 0 13.379 4.713 13.379 16.3C85.739 41.351 81.9 46 72.232 46c-4.353 0-7.912-.778-12.8-2.745V1.837zm6.025 37.57a21.429 21.429 0 0 0 6.946 1.189c5.532 0 7.268-2.616 7.268-10.873S77.913 18.85 72.339 18.85a16.319 16.319 0 0 0-6.882 1.513v19.044zm48.454 3.848c-4.545 1.902-8.319 2.745-12.52 2.745-7.526 0-12.072-3.675-12.072-9.75 0-5.49 3.452-9.23 10.313-11.391l7.525-2.356c-1.093-2.616-2.98-3.675-6.624-3.675-3.045 0-4.996.519-8.384 2.227l-1.822-4.713.579-.324c3.237-1.902 5.896-2.616 9.605-2.616 9.477 0 13.379 4.713 13.379 16.3v13.553h.021zm-6.025-13.532c0-.649 0-1.038-.064-1.967l-6.625 2.032c-4.095 1.318-5.853 3.134-5.853 6.16 0 3.135 1.694 4.583 5.189 4.583a24.84 24.84 0 0 0 7.332-1.102v-9.706h.021z"/><path fill="#ff5800" d="M133.16 15.174c1.938 2.643.41 7.143-3.443 10.048s-8.568 3.102-10.484.459-.366-7.143 3.466-10.048 8.524-3.102 10.462-.459zm-5.273 7.536c2.325-1.747 3.487-4.194 2.54-5.46s-3.574-.852-5.898.895-3.466 4.194-2.54 5.46 3.573.853 5.898-.895z"/></svg>