<?xml version="1.0" encoding="utf-8"?>
<svg version="1.1" id="Layer_1" xmlns="http://www.w3.org/2000/svg" xmlns:xlink="http://www.w3.org/1999/xlink" x="0px" y="0px"
	width="100px" height="100px" viewBox="0 0 100 100" style="enable-background:new 0 0 100 100;" xml:space="preserve">
<g>
	<path style="fill:#E8E8E8;" d="M50,0c27.6,0,50,22.4,50,50s-22.4,50-50,50S0,77.6,0,50S22.4,0,50,0"/>
	<path style="fill:#FFFFFF;" d="M50,1c27.1,0,49,21.9,49,49S77.1,99,50,99S1,77.1,1,50S22.9,1,50,1"/>
	<g>
		<linearGradient id="SVGID_1_" gradientUnits="userSpaceOnUse" x1="8.5" y1="50" x2="91.5" y2="50">
			<stop  offset="0" style="stop-color:#E03E3C"/>
			<stop  offset="0.3659" style="stop-color:#963E5F"/>
			<stop  offset="1" style="stop-color:#134B8D"/>
		</linearGradient>
		<rect x="8.5" y="41.2" style="fill:url(#SVGID_1_);" width="83" height="17.6"/>
		<g>
			<path style="fill:#FFFFFF;" d="M20.7,49.8c-0.1-0.1-0.2-0.1-0.4-0.2c1.2-0.5,1.9-1.4,2-2.7c0-0.2,0-0.4,0-0.6
				c-0.1-0.3-0.1-0.5-0.3-0.7c-0.2-0.4-0.6-0.7-1-0.9c-0.4-0.1-0.8-0.2-1.2-0.2h-1.6c-0.5,0-1.1,0-1.6,0c-0.2,0-0.4,0-0.6,0
				c-0.4,0-0.9,0-1.3,0c-0.3,0-0.6,0-0.9,0c-0.1,0-0.3,0-0.3,0.2c-0.1,0.6-0.2,1.1-0.3,1.7c-0.1,0.7-0.2,1.3-0.3,2
				c0,0.1,0,0.1,0,0.2c-0.1,0.9-0.3,1.7-0.4,2.6c-0.1,0.5-0.2,1-0.3,1.5c-0.1,0.5-0.2,1-0.2,1.4c-0.1,0.5-0.2,1-0.2,1.4
				c0.1,0,0.1,0,0.2,0h4.3c0.1,0,0.2,0,0.3,0c0.5,0,1.1,0,1.6-0.1c0,0,0.1,0,0.1,0c0.6-0.1,1.1-0.1,1.6-0.3c0.4-0.2,0.8-0.5,1.2-0.9
				c0.6-0.7,0.9-1.4,1-2.3C22.1,51,21.6,50.2,20.7,49.8z M18.8,52c-0.1,0.6-0.5,1-1.2,1.1c-0.3,0-0.7,0-1,0c0,0,0,0,0,0
				c-0.3,0-0.6,0-1,0c-0.1,0-0.1,0-0.1-0.1c0.1-0.7,0.2-1.3,0.3-2c0-0.1,0-0.1,0.1-0.1c0.2,0,0.4,0,0.6,0c0.5,0,1.1-0.1,1.6,0.1
				C18.6,51.1,18.8,51.5,18.8,52z M18.1,48.7c-0.2,0.1-0.3,0.1-0.5,0.1h-1.3c-0.1,0-0.2,0-0.1-0.1c0.1-0.6,0.2-1.2,0.3-1.8
				c0-0.1,0-0.1,0.1-0.1c0.5,0,1,0,1.4,0c0.2,0,0.4,0,0.6,0.1c0.2,0.1,0.2,0.2,0.3,0.3C19.3,47.8,18.8,48.7,18.1,48.7z"/>
			<path style="fill:#FFFFFF;" d="M25.2,44.5c0.2,0,0.5,0,0.7,0c0.6,0,1.2,0,1.8,0c0.3,0,0.7,0,1,0c0.3,0,0.7,0,1,0c0.5,0,1,0,1.4,0
				c0.4,0,0.7,0,1.1,0c0.3,0,0.7,0,1,0c0.2,0,0.3,0,0.5,0c0.1,0,0.1,0,0.1,0.1c-0.1,0.7-0.2,1.5-0.4,2.2c0,0.1,0,0.1-0.1,0.1
				c-0.4,0-0.7,0-1.1,0C32.3,47,32.2,47,32.1,47c-0.3,0-0.6,0-0.9,0c-0.5,0-1,0-1.5,0c-0.5,0-0.9,0-1.4,0c-0.2,0-0.2,0-0.3,0.2
				c-0.1,0.3-0.1,0.7-0.2,1.1c0,0.2,0,0.2,0.2,0.2c0.5,0,1.1,0,1.6,0c0.5,0,1,0,1.5,0c0.3,0,0.6,0,0.9,0c0.1,0,0.2,0,0.2,0.1
				c0.1,0,0.2,0,0.3,0c0.1,0,0.2,0,0.1,0.2c-0.1,0.4-0.1,0.9-0.2,1.3c0,0.2-0.1,0.5-0.1,0.7c0,0.1,0,0.1-0.1,0.1
				c-0.1,0.1-0.1,0.1-0.2,0.1c-0.3,0-0.6,0-0.9,0c-0.5,0-1,0-1.4,0c-0.3,0-0.7,0-1,0c-0.3,0-0.7,0-1,0c-0.3,0-0.3,0-0.3,0.3
				c-0.1,0.5-0.2,1-0.2,1.5c0,0.2,0,0.2,0.2,0.2c0.5,0,0.9,0,1.4,0c0.3,0,0.7,0,1,0c0.5,0,1,0,1.4,0c0.3,0,0.6,0,0.9,0
				c0.1,0,0.2,0,0.2,0.1c0.3,0,0.3,0,0.2,0.3c0,0.2-0.1,0.5-0.1,0.7c-0.1,0.5-0.2,0.9-0.2,1.4c0,0.1-0.1,0.2-0.2,0.2
				c-0.9,0-1.7,0-2.6,0c-2,0-4,0-6.1,0c-0.1-0.1,0-0.1,0-0.2c0.2-1.4,0.5-2.8,0.7-4.2c0.4-2.2,0.7-4.4,1.1-6.7
				C25.2,44.5,25.2,44.5,25.2,44.5z"/>
			<path style="fill:#FFFFFF;" d="M48.3,55.5c-1.1,0-2.2,0-3.3,0c0-0.2,0.1-0.5,0.1-0.7c0.2-1,0.3-2,0.5-3c0,0,0-0.1,0-0.1
				c0.1-0.4,0.2-0.8,0.2-1.3c0.1-0.6,0.2-1.1,0.3-1.7c0,0,0-0.1,0-0.1c0.1-0.5,0.2-1,0.3-1.5c0.1-0.8,0.3-1.7,0.4-2.5
				c0-0.1,0.1-0.2,0.2-0.1c0,0,0.1,0,0.1,0c0.4,0,0.9,0,1.3,0c0.4,0,0.9,0,1.3,0c0.6,0,1.1,0,1.7,0c0.5,0,1.1,0,1.6,0
				c0.5,0,0.9,0,1.4,0c0.1,0,0.2,0,0.4,0c0.1,0,0.1,0,0.1,0.1c-0.1,0.7-0.2,1.5-0.4,2.2c0,0,0,0.1-0.1,0.1c-0.3,0-0.6,0-0.9,0
				c-0.4,0-0.8,0-1.2,0C52.4,47,52.3,47,52.2,47c-0.3,0-0.5,0-0.8,0c-0.4,0-0.9,0-1.3,0c-0.2,0-0.2,0-0.3,0.2
				c-0.1,0.4-0.1,0.8-0.2,1.2c0,0.3,0,0.3,0.2,0.3c0.5,0,1,0,1.6,0c0.3,0,0.5,0,0.8,0c0.1,0,0.2,0,0.2,0.1c0.3,0,0.6,0,0.9,0
				c0.1,0,0.1,0,0.1,0.1c-0.1,0.7-0.2,1.4-0.4,2.1c0,0,0,0,0,0c-1.3,0-2.6,0-3.9,0c-0.1,0-0.2,0-0.2,0.2c-0.2,1.2-0.4,2.4-0.6,3.6
				C48.4,55,48.4,55.3,48.3,55.5z"/>
			<path style="fill:#FFFFFF;" d="M41.7,44.5c0.3,0,0.6,0,0.9,0c0.5,0,0.9,0,1.4,0c0.3,0,0.7,0,1.1,0c0.1,0,0.2,0,0.1,0.2
				c-0.1,0.8-0.3,1.7-0.4,2.5c0,0.1-0.1,0.1-0.1,0.1c-0.1,0-0.2,0-0.3,0c-0.2,0-0.4,0-0.7,0c-0.4,0-0.7,0-1.1,0c-0.3,0-0.6,0-0.8,0
				c-0.3,0-0.3,0-0.3,0.3c-0.2,1.4-0.5,2.8-0.7,4.2c-0.1,0.6-0.2,1.2-0.3,1.8c-0.1,0.6-0.2,1.2-0.3,1.8c0,0.2-0.1,0.2-0.2,0.2
				c-1,0-2,0-3,0c-0.1-0.2,0-0.3,0-0.5c0-0.1,0-0.1,0-0.2c0-0.3,0-0.6,0.1-0.9c0.3-1.8,0.6-3.7,0.9-5.5c0.1-0.3,0.1-0.6,0.2-0.9
				c0-0.2,0-0.2-0.2-0.2c-0.3,0-0.5,0-0.8,0c-0.1,0-0.2,0-0.2-0.1c-0.3,0-0.6,0-0.9,0c-0.3,0-0.6,0-0.8,0c-0.1,0-0.2,0-0.3,0
				c0-0.1,0-0.2,0.1-0.3c0.1-0.8,0.3-1.6,0.4-2.3c0-0.1,0.1-0.1,0.2-0.1c0.2,0,0.3,0,0.5,0c0.4,0,0.7,0,1.1,0c0.3,0,0.7,0,1,0
				c0.4,0,0.8,0,1.2,0c0.5,0,0.9,0,1.4,0C41,44.5,41.4,44.5,41.7,44.5z"/>
			<path style="fill:#FFFFFF;" d="M88.2,48c0-0.2,0-0.4-0.1-0.5c0-0.3-0.2-0.6-0.2-0.9c-0.1-0.2-0.2-0.3-0.2-0.5
				c-0.2-0.4-0.5-0.7-0.8-0.9c-0.3-0.2-0.7-0.4-1.1-0.5c-0.2,0-0.4-0.1-0.6-0.1c-0.2,0-0.5,0-0.8-0.1c-0.1,0-0.3,0-0.4,0
				c-0.2,0-0.5,0-0.8,0c-0.1,0-0.3,0-0.4,0c-0.2,0-0.4,0-0.6,0c-0.2,0-0.3,0-0.5,0c-0.3,0-0.5,0-0.8,0c-0.4,0-0.9,0-1.3,0
				c-0.1,0-0.1,0-0.1,0.1c-0.2,1.5-0.5,2.9-0.7,4.3c-0.4,2.2-0.7,4.3-1.1,6.5c0,0.2,0,0.2,0.2,0.2h5.1c0.1,0,0.3-0.1,0.4,0
				c0.3-0.1,0.5-0.1,0.8-0.2c0.1,0,0.3-0.1,0.4-0.1c0.2-0.1,0.4-0.2,0.6-0.2c0.2-0.1,0.4-0.3,0.7-0.4c0.1-0.1,0.2-0.2,0.3-0.3
				c0.3-0.3,0.6-0.6,0.9-0.9c0.3-0.5,0.6-1,0.8-1.5c0.3-0.9,0.5-1.9,0.6-2.9c0-0.1,0-0.1,0-0.2v-0.6C88.2,48.1,88.2,48.1,88.2,48z
				 M84.4,51.6c-0.1,0.2-0.2,0.4-0.3,0.5c0,0,0,0,0,0c-0.2,0.3-0.5,0.6-0.9,0.7c0,0,0,0,0,0v0c-0.1,0.1-0.3,0.1-0.4,0.1c0,0,0,0,0,0
				C82.6,53,82.4,53,82.1,53c0,0,0,0,0,0c-0.3,0-0.5,0-0.8,0c-0.1,0-0.1,0-0.1-0.1c0.2-1,0.3-2,0.5-2.9c0.1-0.6,0.2-1.2,0.3-1.7
				c0,0,0-0.1,0-0.1c0.1-0.3,0.1-0.7,0.2-1c0-0.1,0-0.1,0.1-0.1c0.1,0,0.3,0,0.5,0c0.2,0,0.3,0,0.4,0v0c0,0,0,0,0,0
				c0.3,0,0.6,0,0.8,0.2c0,0,0,0,0,0c0.6,0.2,0.8,0.8,0.8,1.4C84.9,49.6,84.7,50.7,84.4,51.6z"/>
			<path style="fill:#FFFFFF;" d="M72.9,44.5c0.3,0,0.6,0,0.8,0c0.4,0,0.8,0,1.2,0c0.4,0,0.8,0,1.2,0c0.3,0,0.6,0,0.9,0
				c0.1,0,0.2,0,0.1,0.2c-0.1,0.5-0.2,1.1-0.3,1.6c0,0.1,0,0.1,0,0.2c0,0.1-0.1,0.2-0.1,0.3c0,0.1,0,0.1-0.1,0.1c-0.2,0-0.3,0-0.5,0
				C76.1,47,76,47,76,47c-0.3,0-0.6,0-1,0c-0.4,0-0.8,0-1.2,0c-0.3,0-0.5,0-0.8,0c-0.4,0-0.8,0-1.3,0c-0.2,0-0.2,0-0.3,0.2
				c-0.1,0.4-0.1,0.7-0.2,1.1c0,0.2,0,0.2,0.2,0.2c0.5,0,1,0,1.5,0c0.3,0,0.5,0,0.8,0c0.4,0,0.8,0,1.2,0c0.3,0,0.6,0,0.9,0
				c0.1,0,0.2,0,0.2,0.2c-0.1,0.7-0.2,1.4-0.3,2.1c0,0.1-0.1,0.1-0.2,0.1c-0.2,0-0.4,0-0.5,0C75,51,74.9,51,74.9,51
				c-0.4,0-0.7,0-1.1,0c-0.3,0-0.6,0-0.8,0c-0.4,0-0.8,0-1.1,0c-0.3,0-0.5,0-0.8,0c-0.1,0-0.2,0.1-0.2,0.2c-0.1,0.5-0.2,1-0.3,1.6
				c0,0.2,0,0.2,0.2,0.2c0.4,0,0.7,0,1.1,0c0.4,0,0.8,0,1.1,0c0.3,0,0.6,0,0.8,0c0.4,0,0.7,0,1.1,0c0.1,0,0.2,0,0.2,0.1
				c0.2,0,0.5,0,0.7,0c0.1,0,0.2,0,0.2,0.2c-0.1,0.8-0.3,1.6-0.4,2.4c-0.1,0-0.1,0-0.2,0c-2.8,0-5.6,0-8.5,0c-0.2,0-0.2,0-0.2-0.2
				c0.2-1.3,0.4-2.5,0.6-3.8c0,0,0,0,0-0.1c0.2-1.5,0.5-3,0.7-4.4c0.1-0.4,0.1-0.7,0.2-1.1c0.1-0.4,0.2-0.9,0.2-1.3
				c0-0.1,0.1-0.1,0.2-0.1c0.2,0,0.4,0,0.6,0c0.3,0,0.6,0,1,0c0.4,0,0.7,0,1.1,0C71.8,44.5,72.4,44.5,72.9,44.5z"/>
			<path style="fill:#FFFFFF;" d="M65.7,45.7c-0.3-0.5-0.7-0.9-1.3-1.1c-0.3-0.1-0.6-0.1-0.9-0.2c-0.4,0-0.7,0-1.1-0.1
				c-0.2,0-0.5,0-0.7,0c-0.4,0-0.9,0-1.3,0c-0.5,0-0.9,0-1.4,0c-0.5,0-1,0-1.5,0c-0.1,0-0.3,0-0.4,0c-0.1,0-0.1,0-0.2,0.1
				c-0.1,0.5-0.2,0.9-0.2,1.4V46c-0.2,0.9-0.3,1.8-0.5,2.8c-0.3,1.5-0.5,3.1-0.8,4.6c-0.1,0.6-0.2,1.1-0.3,1.7
				c-0.1,0.4-0.1,0.4,0.3,0.4c0.7,0,1.4,0,2.1,0c0.3,0,0.6,0,0.8,0c0.1-0.9,0.3-1.7,0.4-2.6c0.1-0.5,0.2-1,0.3-1.5
				c0-0.1,0-0.2,0-0.3c0,0,0-0.1,0.1-0.1c0.4-0.1,1,0.2,1.1,0.5c0.1,0.1,0.2,0.3,0.2,0.5c0.4,1.1,0.8,2.2,1.1,3.3
				c0,0.1,0,0.2,0.2,0.2c1.2,0,2.4,0,3.6,0c0,0,0-0.1,0-0.1c-0.3-1.1-0.6-2.1-1-3.1c-0.2-0.7-0.6-1.3-1.4-1.6c0,0,0,0,0,0
				c0.1,0,0.1,0,0.2,0c0.6-0.2,1.1-0.4,1.6-0.9c0.4-0.4,0.8-0.9,1-1.4c0-0.1,0-0.1,0-0.2C66,47.3,66.1,46.5,65.7,45.7z M62.5,47.9
				c-0.1,0.5-0.4,0.8-0.9,0.9c-0.3,0.1-0.6,0.1-0.9,0.1v0c-0.4,0-0.7,0-1.1,0c-0.1,0-0.1,0-0.1-0.1c0.1-0.6,0.2-1.3,0.3-1.9
				c0-0.1,0-0.1,0.2-0.1h0.7c0.4,0,0.7,0,1.1,0C62.4,46.9,62.7,47.3,62.5,47.9z"/>
		</g>
	</g>
</g>
</svg>
