<?xml version="1.0" encoding="utf-8"?>
<svg version="1.1" id="Layer_1" xmlns="http://www.w3.org/2000/svg" xmlns:xlink="http://www.w3.org/1999/xlink" x="0px" y="0px"
	 viewBox="0 0 488.9 171.6" style="enable-background:new 0 0 488.9 171.6;" xml:space="preserve">
<g>
	<path style="fill:#578BC1;" d="M372.5,57.9c-3.3,0-6-0.7-8-2.7c-2-2-3.3-4-3.3-6.7s0.7-5.3,3.3-6.7c2-2,4.7-2.7,8-2.7s6,0.7,8,2.7
		c2,2,3.3,4,3.3,6.7s-0.7,5.3-3.3,7.3C378.5,57.2,375.8,57.9,372.5,57.9 M381.8,129.1h-19.3V67.2h19.3V129.1L381.8,129.1z"/>
	<path style="fill:#1D3042;" d="M49.9,127.1c-4.7,2-10.6,3.3-18.6,3.3c-9.3,0-17.3-3.3-22.6-8.6c-6-6-8.6-13.3-8.6-22
		c0-10.6,3.3-18.6,9.3-24.6c6-6,14.6-9.3,24.6-9.3c7.3,0,12,0.7,15.3,2.7v16c-3.8-3-8.5-4.6-13.3-4.7c-5.3,0-9.3,1.3-12.6,4.7
		c-3.3,3.3-4.7,7.3-4.7,13.3c0,5.3,1.3,10,4.7,12.6c3.3,3.3,7.3,4.7,12.6,4.7c4.7,0,9.3-1.3,14-4.7V127.1L49.9,127.1z M83.8,130.4
		c-10,0-18-2.7-23.9-8.6c-6-6-8.6-13.3-8.6-23.3s3.3-18,9.3-23.9s14-8.6,24.6-8.6c10,0,18,2.7,23.9,8.6s8.6,13.3,8.6,22.6
		c0,10-3.3,18-8.6,23.9C102.4,127.1,94.5,130.4,83.8,130.4 M84.5,80.5c-4.7,0-8,1.3-10.6,4.7c-2.7,3.3-4,7.3-4,13.3
		c0,12,4.7,18,14,18s13.3-6,13.3-18C98.5,85.8,93.8,80.5,84.5,80.5 M178.9,67.9l-22.6,61.9H135l-22-61.9h20l10.6,37.9
		c1.3,4.7,2,8,2,11.3l0,0c0-3.3,0.7-6.7,2-10.6l10.6-38.6L178.9,67.9C178.9,67.2,178.9,67.9,178.9,67.9z M232.2,103.1h-39.9
		c0.7,8.6,6.7,13.3,16.6,13.3c6.7,0,12.6-1.3,18-4.7v14c-6.7,3.3-13.3,4.7-22,4.7c-10,0-17.3-2.7-23.3-8c-6-5.3-8-13.3-8-22.6
		c0-10,2.7-18,8.6-23.9c6-6,13.3-8.6,22-8.6c8.6,0,16,2.7,21.3,8c4.7,5.3,7.3,12.6,7.3,22L232.2,103.1L232.2,103.1
		C232.2,103.1,232.2,103.1,232.2,103.1z M214.2,92.5c0-8.6-3.3-13.3-10.6-13.3c-3.3,0-5.3,1.3-8,4c-2,2.7-3.3,5.3-4,9.3H214.2
		L214.2,92.5z"/>
	<g>
		<path style="fill:#578BC1;" d="M384.5,127.1v-15.3c3.3,2,6,3.3,9.3,4c3.3,0.7,6,1.3,8.6,1.3c2.7,0,5.4-0.5,8-1.3
			c2-0.7,2.7-2,2.7-4c0-1.3-0.7-2-1.3-3.3c-0.7-0.7-2-1.3-3.3-2c-1.3-0.7-2.7-1.3-4.7-1.3c-1.3-0.7-3.3-0.7-4.7-1.3
			c-2.7-0.7-4.7-2-6.7-2.7c-2-0.7-3.3-2-4.7-4c-1.3-1.3-2-3.3-2.7-4.7c-0.7-1.3-0.7-4-0.7-6.7c0-3.3,0.7-6,2-8.6
			c1.3-2.6,3.4-4.7,6-6c2.7-1.3,5.3-2.7,8.6-3.3c3.3-0.7,6.7-1.3,10-1.3c2.7,0,5.3,0,8,0.7c2.7,0.7,6,0.7,8,2v14.6
			c-2-1.3-4.7-2.7-7.3-3.3c-2-1.3-4.7-1.3-7.3-1.3h-3.3c-0.7,0-2,0.7-2.7,0.7c-0.7,0.7-1.3,0.7-2,1.3s-0.7,1.3-0.7,2
			c0,1.3,0,2,1.3,2.7c0.8,0.8,1.7,1.5,2.7,2c1.3,0.7,2.7,1.3,4,1.3l4,1.3c2.7,0.7,4.7,2,6.7,2.7c2,0.7,4,2,5.3,3.3
			c1.3,1.4,2.4,3,3.3,4.7c0.7,1.3,1.3,4,1.3,6.7c0,3.3-0.7,6.7-2.7,9.3s-4,4.7-6,6c-2.7,1.3-5.3,2.7-9.3,3.3
			c-3.3,0.7-6.7,1.3-10.6,1.3C396.5,130.4,389.8,129.1,384.5,127.1"/>
		<path style="fill:#578BC1;" d="M488.3,103.1h-39.9c0.7,8.6,6.7,13.3,16.6,13.3c6.7,0,12.6-1.3,18-4.7v14c-6.7,3.3-13.3,4.7-22,4.7
			c-10,0-17.3-2.7-23.3-8c-6-5.3-8-13.3-8-22.6c0-10,2.7-18,8.6-23.9c6-6,13.3-8.6,22-8.6s16,2.7,20.6,8c4.7,5.3,7.3,12.6,7.3,22
			V103.1L488.3,103.1z M471,92.5c0-8.6-3.3-13.3-10.6-13.3c-3.3,0-5.3,1.3-8,4c-2,2.7-3.3,5.3-4,9.3H471C471,92.5,471,92.5,471,92.5
			z"/>
	</g>
	<path style="fill:#1D3042;" d="M274.1,84.5c-2-1.3-4.7-2-8-2c-4,0-7.3,1.3-9.3,4.7c-2,3.3-3.3,7.3-3.3,12v29.9h-19.3V67.2h19.3v12
		l0,0c2-6.7,5.3-10,10-12h4.7C266.8,67.2,272.1,83.8,274.1,84.5L274.1,84.5L274.1,84.5C274.1,84.5,274.1,84.5,274.1,84.5z
		 M262.8,67.2h4.7c0,0,5.3,16,6.7,16.6 M262.8,67.2h4.7c0,0,5.3,16,6.7,16.6"/>
	<path style="fill:#578BC1;" d="M362.5,67.2l-17.3,61.9h-20L316,92.5c-0.7-2.7-0.7-5.3-0.7-8l0,0c0,3.3-0.7,5.3-1.3,7.3l-10,36.6
		h-19.3l-17.3-61.2h19.3l8.6,39.9c0.7,2,0.7,4.7,0.7,6.7l0,0c0-2,0.7-5.3,1.3-6.7L308,67.2h18l9.3,39.9c0,0.7,0.7,3.3,0.7,6.7h0.7
		l0.7-6.7l8-39.9L362.5,67.2L362.5,67.2L362.5,67.2z"/>
	<circle style="fill:#1D3042;" cx="371.9" cy="30.6" r="30.6"/>
	<path style="fill:#FFFFFF;" d="M389.8,17.3c2-2.7,2-6,2-6s-4,0-6,2.7l-2,1.3l0,0l-9.3,9.3l-23.9-6l-4,4l20,10l-8,8l-6-0.7l-3.3,3.3
		l7.3,3.3l3.3,7.3l3.3-3.3l-0.7-6l8-8l10,20l4-4l-6-23.9l9.3-9.3l0,0l0.7-0.7C388.5,18.6,389.8,17.3,389.8,17.3z"/>
	<path style="fill:#578BC1;" d="M151,149h-8v22h-2v-22h-7.3v-2H151V149L151,149z M175,170.3h-3.3l-4-6.7l-1.3-1.3
		c0-0.7-0.7-0.7-1.3-1.3c0,0-0.7,0-1.3-0.7h-1.3h-2v10H157v-23.9h7.3h3.3c1,0.2,1.9,0.6,2.7,1.3c0.7,0.7,1.3,1.3,1.3,2
		c0.7,0.7,0.7,2,0.7,2.7c0,0.7,0,1.3-0.7,2.7c0,0.7-0.7,1.3-1.3,2c-0.7,0.7-0.7,1.3-1.3,1.3c-0.7,0.7-1.3,0.7-2,0.7l0,0l0.7,0.7
		l0.7,0.7l0.7,1.3l0.7,1.3L175,170.3C175,171,175,170.3,175,170.3z M160.3,149v8.6h4h2c0.7,0,1.3-0.7,1.3-0.7
		c0.7-0.7,0.7-0.7,0.7-1.3s0.7-1.3,0.7-2c0-1.3-0.7-2.7-1.3-3.3c-0.7-0.7-2-1.3-4-1.3C163.6,149,160.3,149,160.3,149z M200.2,170.3
		h-3.3l-2.7-6.7h-10.6l-2.7,6.7h-3.3l9.3-23.9h3.3L200.2,170.3C200.2,170.3,200.2,170.3,200.2,170.3z M193.6,161.6l-4-10.6
		c0,0,0-0.7-0.7-2l0,0l-0.7,2l-4,11.3L193.6,161.6C193.6,161.6,193.6,161.6,193.6,161.6z M223.5,145.7l-9.3,24.6h-3.3l-9.3-23.9h3.3
		l6.7,19.3c0,0.7,0.7,1.3,0.7,2l0,0c0-1.3,0-2,0.7-2.7l7.3-20L223.5,145.7L223.5,145.7C223.5,146.3,223.5,145.7,223.5,145.7z
		 M242.1,170.3h-13.3v-23.9h13.3v2h-10v8.6h8.6v2h-8.6v8.6h10V170.3L242.1,170.3z M262.8,170.3h-13.3v-23.9h3.3v22h10V170.3
		C262.8,170.3,262.8,170.3,262.8,170.3z M284,170.3h-3.3v-23.9h3.3V170.3z M314,170.3h-3.3L297.4,151c0-0.7-0.7-1.3-0.7-1.3l0,0v3.3
		v17.3h-2v-23.9h2.7l12.6,19.3l0.7,1.3l0,0c0-1.3-0.7-2-0.7-4v-16.6h3.3v23.9C313.3,170.3,314,170.3,314,170.3z M321.3,170.3V167
		c1.3,0,1.3,0.7,1.3,0.7c0.7,0,1.3,0.7,2,0.7s1.3,0,2,0.7h2c2,0,3.3,0,4-0.7c0.7-0.7,1.3-1.3,1.3-2.7c0-0.7,0-1.3-0.7-2
		c0-0.7-0.7-0.7-1.3-1.3c-0.7-0.7-1.3-0.7-2-1.3l-2-1.3c-0.7-0.7-2-0.7-2.7-1.3c-0.7-0.7-1.3-0.7-2-1.3s-0.7-1.3-1.3-2
		c0-0.7-0.7-1.3-0.7-2.7s0-2,0.7-2.7l2-2c0.7-0.7,2-0.7,2.7-1.3c0.7,0,2-0.7,3.3-0.7c2.7,0,4,0,5.3,0.7v3.3
		c-1.3-0.7-3.3-1.3-5.3-1.3h-2c-0.7,0-1.3,0-1.3,0.7c-0.7,0-0.7,0.7-1.3,1.3c0,0.7-0.7,0.7-0.7,2v1.3c0,0,0.7,0.7,0.7,1.3
		c0.7,0.7,0.7,0.7,2,1.3l2,1.3l2.7,1.3c0.7,0.7,1.3,0.7,2,1.3c0.7,0.7,1.3,1.3,1.3,2s0.7,1.3,0.7,2.7c0,1.3,0,2-0.7,3.3
		c-0.7,1.3-1.3,1.3-2,2c-0.7,0.7-2,0.7-2.7,1.3h-3.3H326h-2c-0.7,0-1.3,0-2-0.7C322.6,170.3,322,170.3,321.3,170.3z M362.5,161
		c0,7.3-3.3,10.6-9.3,10.6s-9.3-3.3-9.3-10V147h3.3v14.6c0,5.3,2,7.3,6,7.3s6-2.7,6-7.3V147h3.3V161L362.5,161z M389.1,170.3h-3.3
		l-4-6.7l-1.3-1.3c0-0.7-0.7-0.7-1.3-1.3c-0.7-0.7-0.7,0-1.3-0.7h-1.3h-2v10h-3.3v-23.9h7.3h3.3c1,0.2,1.9,0.6,2.7,1.3
		c0.7,0.7,1.3,1.3,1.3,2c0.7,0.7,0.7,2,0.7,2.7s0,1.3-0.7,2.7c0,0.7-0.7,1.3-1.3,2s-0.7,1.3-1.3,1.3c-0.7,0.7-1.3,0.7-2,0.7l0,0
		l0.7,0.7l0.7,0.7l0.7,1.3l0.7,1.3L389.1,170.3C389.2,171,389.2,170.3,389.1,170.3z M374.5,149v8.6h4h2c0.7,0,1.3-0.7,1.3-0.7
		c0.7-0.7,0.7-0.7,0.7-1.3c0-0.7,0.7-1.3,0.7-2c0-1.3-0.7-2.7-1.3-3.3c-0.7-0.7-2-1.3-4-1.3C377.8,149,374.5,149,374.5,149z
		 M414.4,170.3h-3.3l-2.7-6.7h-10.6l-2.7,6.7h-3.3l9.3-23.9h3.3L414.4,170.3z M407.1,161.6l-3.3-10.6v-2l0,0l-0.7,2l-4,11.3
		L407.1,161.6L407.1,161.6L407.1,161.6z M441,170.3h-4L424.4,151c0-0.7-0.7-1.3-0.7-1.3l0,0v3.3v17.3h-3.3v-23.9h4l12.6,19.3
		l0.7,1.3l0,0v-4v-16.6h3.3L441,170.3C441,170.3,441,170.3,441,170.3z M467,169.6c-2,0.7-4,1.3-6.7,1.3c-3.3,0-6-1.3-8.6-3.3
		c-2-2-3.3-5.3-3.3-8.6c0-4,1.3-7.3,3.3-10c2-2.7,5.3-4,9.3-4c2,0,4,0,6,0.7v3.3c-2-0.7-4-1.3-6-1.3c-2.7,0-5.3,0.7-6.7,2.7
		c-2,2-2.7,4.7-2.7,7.3c0,3.3,0.7,5.3,2.7,7.3c1.3,2,4,2.7,6.7,2.7s4.7-0.7,6.7-1.3L467,169.6L467,169.6L467,169.6z M487.6,170.3
		h-13.3v-23.9h13.3v2h-10v8.6h8.6v2h-8.6v8.6h10V170.3L487.6,170.3L487.6,170.3z M488.3,55.9c0-0.7-0.7-1.3-1.3-2
		c-0.7-0.7-1.3-1.3-2-1.3s-2-0.7-2.7-0.7c-0.7,0-2,0-2.7,0.7c-0.7,0-1.3,0.7-2,1.3s-1.3,1.3-1.3,2c0,0.7-0.7,2-0.7,2.7s0,2,0.7,2.7
		c0,0.7,0.7,1.3,1.3,2c0.7,0.7,1.3,1.3,2,1.3s2,0.7,2.7,0.7c0.7,0,2,0,2.7-0.7c0.7,0,1.3-0.7,2-1.3c0.7-0.7,1.3-1.3,1.3-2
		c0-0.7,0.7-2,0.7-2.7C488.3,57.9,488.3,57.2,488.3,55.9z M481.6,64.5c-3.3,0-5.3-2.7-5.3-5.3s2.7-5.3,5.3-5.3
		c3.3,0,5.3,2.7,5.3,5.3S484.3,64.5,481.6,64.5z M484.3,59.9c0-0.7-0.7-0.7-0.7-1.3c0.7-0.7,1.3-1.3,1.3-2c0-0.7,0-1.3-0.7-2
		c-0.7-0.7-1.3-0.7-2.7-0.7h-2l0,0v8.6h1.3v-3.3h1.3c0.7,0,0.7,0,1.3,0.7c0,0.7,0.7,1.3,0.7,2l0,0h1.3l0,0
		C484.3,61.2,484.3,60.5,484.3,59.9L484.3,59.9z M480.9,58.5h-1.3v-2.7h0.7c1.3,0,2,0.7,2,1.3C482.9,57.9,482.3,58.5,480.9,58.5z"/>
</g>
</svg>
