<svg xmlns="http://www.w3.org/2000/svg" viewBox="0 0 626 81.98" fill="#867d57"><path d="M11.05 14.28c0-2.07-.19-3.78-.58-5.12-.38-1.34-1.02-2.4-1.9-3.17s-2.03-1.3-3.45-1.61S2 3.91 0 3.91V1.84h33.62c3.68 0 7.16.5 10.42 1.5s6.1 2.44 8.52 4.32 4.32 4.22 5.7 7.02 2.07 5.97 2.07 9.5c0 3.61-.67 6.72-2.01 9.33s-3.11 4.8-5.3 6.56c-2.19 1.77-4.68 3.07-7.48 3.92-2.8.84-5.66 1.27-8.58 1.27a67.64 67.64 0 0 1-3.91-.12c-1.38-.08-2.71-.17-3.97-.29-1.27-.12-2.42-.27-3.45-.46-1.04-.19-1.9-.36-2.59-.52V67.7c0 2.07.19 3.78.58 5.12.38 1.34 1.02 2.4 1.9 3.17s2.03 1.31 3.45 1.61c1.42.31 3.13.46 5.12.46v2.07H0v-2.07c2 0 3.7-.15 5.12-.46s2.57-.84 3.45-1.61 1.52-1.82 1.9-3.17c.38-1.34.58-3.05.58-5.12V14.28zm11.98 25.21a92.31 92.31 0 0 0 4.32 1.15 20.3 20.3 0 0 0 4.78.58c2.53 0 4.76-.42 6.68-1.27 1.92-.84 3.51-2 4.78-3.45 1.27-1.46 2.23-3.18 2.88-5.18.65-1.99.98-4.11.98-6.33 0-2.61-.4-5.07-1.21-7.37s-1.94-4.3-3.4-5.99-3.15-3.01-5.07-3.97-3.99-1.44-6.22-1.44c-1.08 0-2.32.04-3.74.12s-3.01.42-4.78 1.04v32.11zm54.69-25.21c0-2.07-.19-3.78-.58-5.12-.38-1.34-1.02-2.4-1.9-3.17s-2.03-1.3-3.45-1.61-3.13-.46-5.12-.46V1.84h34.08v2.07c-2 0-3.7.16-5.12.46-1.42.31-2.57.84-3.45 1.61s-1.52 1.82-1.9 3.17c-.39 1.34-.58 3.05-.58 5.12V67.7c0 2.07.19 3.78.58 5.12.38 1.34 1.02 2.4 1.9 3.17s2.03 1.31 3.45 1.61c1.42.31 3.13.46 5.12.46v2.07H66.66v-2.07c1.99 0 3.7-.15 5.12-.46s2.57-.84 3.45-1.61 1.52-1.82 1.9-3.17c.38-1.34.58-3.05.58-5.12V14.28zM176.5 26.6h-2.76c-.39-3.15-1.29-6.1-2.71-8.87-1.42-2.76-3.21-5.16-5.35-7.2-2.15-2.03-4.57-3.65-7.25-4.84-2.69-1.19-5.45-1.78-8.29-1.78-4.07 0-7.94.94-11.63 2.82-3.68 1.88-6.87 4.59-9.56 8.12-2.61 3.45-4.57 7.58-5.87 12.38-1.31 4.8-1.96 9.84-1.96 15.14 0 5.53.81 10.46 2.42 14.8s3.8 8 6.56 11a28.46 28.46 0 0 0 9.73 6.91c3.72 1.61 7.73 2.42 12.03 2.42 2.53 0 4.95-.44 7.25-1.32s4.51-2.09 6.62-3.63a36.93 36.93 0 0 0 5.87-5.35 50.3 50.3 0 0 0 4.89-6.51l1.96 1.15c-1.46 2.61-3.24 5.12-5.35 7.54a42.87 42.87 0 0 1-7.02 6.45c-2.57 1.88-5.39 3.38-8.46 4.49s-6.33 1.67-9.79 1.67c-5.91 0-11.36-1.06-16.35-3.17s-9.29-4.97-12.9-8.58-6.43-7.85-8.46-12.72-3.05-10.07-3.05-15.6c0-5.76 1.11-11.19 3.34-16.29s5.2-9.56 8.92-13.36 8.08-6.79 13.07-8.98c5-2.2 10.25-3.29 15.78-3.29 3.45 0 6.29.27 8.52.81s4.05 1.15 5.47 1.84 2.59 1.31 3.51 1.84c.92.54 1.8.81 2.65.81.84 0 1.69-.52 2.53-1.55.84-1.04 1.42-2.28 1.73-3.74h1.96l1.95 26.59zm78.87 0h-2.76c-.39-3.15-1.29-6.1-2.71-8.87-1.42-2.76-3.21-5.16-5.35-7.2-2.15-2.03-4.57-3.65-7.25-4.84-2.69-1.19-5.45-1.78-8.29-1.78-4.07 0-7.94.94-11.63 2.82s-6.87 4.59-9.56 8.12c-2.61 3.45-4.57 7.58-5.87 12.38-1.31 4.8-1.96 9.84-1.96 15.14 0 5.53.81 10.46 2.42 14.8s3.8 8 6.56 11a28.46 28.46 0 0 0 9.73 6.91c3.72 1.61 7.73 2.42 12.03 2.42 2.53 0 4.95-.44 7.25-1.32s4.51-2.09 6.62-3.63a36.93 36.93 0 0 0 5.87-5.35 50.3 50.3 0 0 0 4.89-6.51l1.96 1.15c-1.46 2.61-3.24 5.12-5.35 7.54a42.87 42.87 0 0 1-7.02 6.45c-2.57 1.88-5.39 3.38-8.46 4.49s-6.33 1.67-9.79 1.67c-5.91 0-11.36-1.06-16.35-3.17s-9.29-4.97-12.9-8.58-6.43-7.85-8.46-12.72-3.05-10.07-3.05-15.6c0-5.76 1.11-11.19 3.34-16.29s5.2-9.56 8.92-13.36 8.08-6.79 13.07-8.98c5-2.2 10.25-3.29 15.78-3.29 3.45 0 6.29.27 8.52.81s4.05 1.15 5.47 1.84 2.59 1.31 3.51 1.84c.92.54 1.8.81 2.65.81.84 0 1.69-.52 2.53-1.55.84-1.04 1.42-2.28 1.73-3.74h1.96l1.95 26.59zm48.71 55.38c-5.53 0-10.69-1.09-15.49-3.28s-8.94-5.16-12.43-8.92-6.26-8.15-8.29-13.18-3.05-10.38-3.05-16.06c0-5.6 1.02-10.86 3.05-15.77s4.8-9.21 8.29-12.9c3.49-3.68 7.64-6.58 12.43-8.69 4.8-2.11 9.96-3.17 15.49-3.17s10.69 1.06 15.49 3.17 8.94 5.01 12.44 8.69c3.49 3.68 6.25 7.98 8.29 12.9 2.03 4.91 3.05 10.17 3.05 15.77 0 5.68-1.02 11.04-3.05 16.06-2.04 5.03-4.8 9.42-8.29 13.18s-7.64 6.74-12.44 8.92-9.97 3.28-15.49 3.28zm0-3.92c4.07 0 7.67-.94 10.82-2.82s5.77-4.49 7.89-7.83c2.11-3.34 3.72-7.29 4.84-11.86 1.11-4.57 1.67-9.57 1.67-15.03 0-5.37-.56-10.3-1.67-14.8-1.11-4.49-2.73-8.35-4.84-11.57s-4.74-5.74-7.89-7.54-6.75-2.71-10.82-2.71c-4.15 0-7.79.9-10.94 2.71-3.15 1.8-5.78 4.32-7.89 7.54s-3.7 7.08-4.78 11.57-1.61 9.42-1.61 14.8c0 5.45.54 10.46 1.61 15.03s2.67 8.52 4.78 11.86 4.74 5.95 7.89 7.83 6.79 2.82 10.94 2.82zm56.3-63.78c0-2.07-.19-3.78-.58-5.12-.38-1.34-1.02-2.4-1.9-3.17s-2.03-1.3-3.45-1.61-3.13-.46-5.12-.46V1.84h34.08v2.07c-2 0-3.7.16-5.12.46-1.42.31-2.57.84-3.45 1.61s-1.52 1.82-1.9 3.17c-.39 1.34-.58 3.05-.58 5.12v56.07c0 1.61.42 2.99 1.27 4.15.84 1.15 1.92 1.73 3.22 1.73h14.62c3.3 0 6.24-.46 8.81-1.38s4.8-2.19 6.68-3.8 3.47-3.51 4.78-5.7c1.3-2.19 2.38-4.55 3.22-7.08l2.3.58-6.79 21.3h-61.14v-2.07c1.99 0 3.7-.15 5.12-.46s2.57-.84 3.45-1.61 1.51-1.82 1.9-3.17c.38-1.34.58-3.05.58-5.12V14.28zm72.65 0c0-2.07-.19-3.78-.58-5.12s-1.02-2.4-1.9-3.17-2.03-1.3-3.45-1.61-3.13-.46-5.12-.46V1.84h34.08v2.07c-2 0-3.7.16-5.12.46-1.42.31-2.57.84-3.45 1.61s-1.52 1.82-1.9 3.17c-.38 1.34-.58 3.05-.58 5.12V67.7c0 2.07.19 3.78.58 5.12.38 1.34 1.02 2.4 1.9 3.17s2.03 1.31 3.45 1.61c1.42.31 3.13.46 5.12.46v2.07h-34.08v-2.07c1.99 0 3.7-.15 5.12-.46s2.57-.84 3.45-1.61 1.51-1.82 1.9-3.17c.38-1.34.58-3.05.58-5.12V14.28zm38.69.69c0-1.61-.35-3.11-1.04-4.49s-1.63-2.55-2.82-3.51-2.57-1.71-4.15-2.24c-1.57-.54-3.24-.81-5.01-.81V1.84h19.69l46.63 57.22h.46V14.28c0-2.07-.19-3.78-.58-5.12-.38-1.34-1.02-2.4-1.9-3.17s-2.03-1.3-3.45-1.61-3.13-.46-5.12-.46V1.84h27.4v2.07c-2 0-3.7.16-5.12.46-1.42.31-2.57.84-3.45 1.61s-1.52 1.82-1.9 3.17c-.39 1.34-.58 3.05-.58 5.12v67.7h-2.76L477.47 18.3h-.46v49.4c0 2.07.19 3.78.58 5.12.38 1.34 1.02 2.4 1.9 3.17s2.03 1.31 3.45 1.61c1.42.31 3.13.46 5.12.46v2.07h-27.4v-2.07c1.99 0 3.7-.15 5.12-.46s2.57-.84 3.45-1.61 1.51-1.82 1.9-3.17c.38-1.34.58-3.05.58-5.12V14.97zm115.02 67.01c-5.53 0-10.69-1.09-15.49-3.28s-8.94-5.16-12.44-8.92c-3.49-3.76-6.26-8.15-8.29-13.18s-3.05-10.38-3.05-16.06c0-5.6 1.02-10.86 3.05-15.77s4.8-9.21 8.29-12.9c3.49-3.68 7.64-6.58 12.44-8.69S581.21.01 586.74.01s10.69 1.06 15.49 3.17 8.94 5.01 12.44 8.69c3.49 3.68 6.26 7.98 8.29 12.9 2.03 4.91 3.05 10.17 3.05 15.77 0 5.68-1.02 11.04-3.05 16.06-2.03 5.03-4.8 9.42-8.29 13.18s-7.64 6.74-12.44 8.92-9.97 3.28-15.49 3.28zm0-3.92c4.07 0 7.67-.94 10.82-2.82s5.77-4.49 7.89-7.83c2.11-3.34 3.72-7.29 4.84-11.86 1.11-4.57 1.67-9.57 1.67-15.03 0-5.37-.56-10.3-1.67-14.8-1.11-4.49-2.73-8.35-4.84-11.57s-4.74-5.74-7.89-7.54-6.76-2.71-10.82-2.71c-4.15 0-7.79.9-10.94 2.71-3.15 1.8-5.78 4.32-7.89 7.54s-3.7 7.08-4.78 11.57-1.61 9.42-1.61 14.8c0 5.45.54 10.46 1.61 15.03 1.08 4.57 2.67 8.52 4.78 11.86s4.74 5.95 7.89 7.83 6.79 2.82 10.94 2.82z"/></svg>