<?xml version="1.0" encoding="utf-8"?>
<svg version="1.1" id="Layer_1" xmlns="http://www.w3.org/2000/svg" xmlns:xlink="http://www.w3.org/1999/xlink" x="0px" y="0px"
	width="100px" height="100px" viewBox="0 0 66.7 66.7" style="enable-background:new 0 0 66.7 66.7;" xml:space="preserve">
<g>
	<path d="M33.3,0L33.3,0c18.4,0,33.3,14.9,33.3,33.3l0,0c0,18.4-14.9,33.3-33.3,33.3l0,0C14.9,66.7,0,51.7,0,33.3l0,0
		C0,14.9,14.9,0,33.3,0z"/>
	<path style="fill:#FFFFFF;" d="M46.4,48c-2-0.7-4.9-2.9-6.7-5c-2.1-2.5-7.3-9.3-7.3-9.3L30,30.5c-2.3-3.1-4.9-6.6-7.5-8.7v22.7h3.1
		V32.8v0.1l2.6,3.4c1.5,1.9,2.9,3.8,4.2,5.3c0.9,1,3.1,3.3,3.7,3.9c2.9,2.7,7.5,4.5,12.1,4.5c2,0,3.9-0.3,5.7-0.9v-0.1
		c-0.7,0.1-1.5,0.2-2.3,0.2C50,49,48.1,48.7,46.4,48z M26.7,23.7c2.1,2.4,7.5,9.3,7.6,9.3l2.4,3.1c2.3,3.1,4.8,6.6,7.4,8.7V22H41
		v11.8l-0.1-0.1l-2.6-3.4c-1.5-1.9-2.9-3.8-4.2-5.3c-0.9-1-3.3-3.3-3.9-3.9c-2.9-2.7-7.5-4.4-12.1-4.4c-1.9,0-3.8,0.3-5.5,0.9v0.1
		c0.7-0.2,1.5-0.2,2.3-0.2c1.7,0,3.4,0.3,5.1,1C22.1,19.4,25.1,21.5,26.7,23.7z"/>
</g>
</svg>
