<?xml version="1.0" encoding="utf-8"?>
<svg version="1.1" id="Layer_1" xmlns="http://www.w3.org/2000/svg" xmlns:xlink="http://www.w3.org/1999/xlink" x="0px" y="0px"
	width="100px" height="100px" viewBox="0 0 72.2 72.2" style="enable-background:new 0 0 72.2 72.2;" xml:space="preserve">
<g>
	<circle style="fill:#E8E8E8;" cx="36.1" cy="36.1" r="36.1"/>
	<circle style="fill:#FFFFFF;" cx="36.1" cy="36.1" r="35.4"/>
	<path style="fill:#CB2032;" d="M38.7,32.7c-1.4,0-2.7,0.4-3.5,0.6c0.1,0.6,0.2,1.1,0.4,1.7c0.9-0.3,1.9-0.5,2.7-0.5
		c1.2,0,1.7,0.4,1.7,1.2V36c-3.7,0-5.3,1.4-5.3,3c0,1.9,1.8,3,4.3,3c1.7,0,3-0.3,3.6-0.4v-5.8C42.7,33.6,41.3,32.7,38.7,32.7
		C38.7,32.7,38.7,32.7,38.7,32.7z M40.1,40.2c-0.2,0.1-0.6,0.1-0.9,0.1c-0.9,0-1.8-0.4-1.8-1.4s0.9-1.4,2.7-1.4V40.2L40.1,40.2z
		 M18.9,40.2c-1.5,0-2.4-1.1-2.4-2.9s1-3,2.5-3c0.4,0,0.7,0.1,1.1,0.2l0.4-1.6c-0.5-0.2-1.2-0.4-1.9-0.4c-2.7,0-4.6,2-4.6,4.8
		c0,2.7,1.8,4.4,4.6,4.4c0.7,0,1.5-0.2,2.2-0.4l-0.4-1.5C19.8,40.1,19.3,40.2,18.9,40.2z M59.7,30.2v2.5c-0.4-0.1-0.7-0.1-1.3-0.1
		c-2.2,0-4.5,1.5-4.5,4.7c0,2.9,1.9,4.5,5,4.5c1.3,0,2.7-0.2,3.4-0.4V30.2L59.7,30.2C59.7,30.2,59.7,30.2,59.7,30.2z M59.7,40.2
		c-0.2,0-0.5,0.1-0.7,0.1c-1.6,0-2.5-1.1-2.5-3c0-1.4,0.6-2.9,2.4-2.9c0.2,0,0.6,0,0.9,0.1V40.2L59.7,40.2L59.7,40.2z M25.5,32.7
		c-2,0-4.2,1.4-4.2,4.7c0,2.9,1.9,4.5,5.1,4.5c0.9,0,2-0.2,2.5-0.4L28.5,40c-0.5,0.1-1.2,0.3-1.8,0.3c-2,0-2.7-0.9-2.8-1.7l5.5-1.2
		C29.4,33.4,27,32.7,25.5,32.7z M23.8,36.8c0-1.5,0.6-2.5,1.7-2.5c0.9,0,1.4,0.6,1.5,1.8L23.8,36.8z M30.7,30.2h2.6v11.5h-2.6
		C30.7,41.7,30.7,30.2,30.7,30.2z M9.9,30.2h2.6v11.5H9.9C9.9,41.7,9.9,30.2,9.9,30.2z M48.4,32.7c-1.6,0-3.4,0.3-4,0.4v8.7h2.5
		v-7.3l1.4-0.1c0.9,0,1.7,0.3,1.7,1.5v5.9h2.5v-6.1C52.5,33.6,51.2,32.7,48.4,32.7z"/>
</g>
</svg>
