<?xml version="1.0" encoding="utf-8"?>
<svg version="1.1" id="Layer_1" xmlns="http://www.w3.org/2000/svg" xmlns:xlink="http://www.w3.org/1999/xlink" x="0px" y="0px"
	width="100px" height="100px" viewBox="0 0 100 100" style="enable-background:new 0 0 100 100;" xml:space="preserve">
<g>
	<path style="fill:#E8E8E8;" d="M50,0c27.61,0,50,22.39,50,50s-22.39,50-50,50S0,77.61,0,50S22.39,0,50,0"/>
	<path style="fill:#FFFFFF;" d="M50,1c27.06,0,49,21.94,49,49S77.06,99,50,99S1,77.06,1,50S22.94,1,50,1"/>
	<g>
		<polygon points="10.39,60.28 10.39,45.16 25.35,45.16 25.35,49.02 14.8,49.02 14.8,51.3 25.35,51.3 25.35,54.84 14.8,54.84 
			14.8,60.28 		"/>
		<polygon points="26.06,45.16 30.24,45.16 30.24,56.34 38.11,56.34 46.69,39.72 55.04,56.34 59.21,56.34 59.21,45.16 74.25,45.16 
			74.25,49.02 63.07,49.02 63.07,60.28 52.76,60.28 46.77,47.68 40.39,60.28 26.06,60.28 		"/>
		<polygon points="75.04,45.16 89.61,45.16 89.61,48.86 78.98,48.86 78.98,50.67 89.61,50.67 89.61,54.61 78.98,54.61 78.98,56.89 
			89.61,56.89 89.61,60.28 75.04,60.28 		"/>
	</g>
</g>
</svg>
