<?xml version="1.0"?>
<svg xmlns="http://www.w3.org/2000/svg" xmlns:xlink="http://www.w3.org/1999/xlink" xmlns:svgjs="http://svgjs.com/svgjs" version="1.1" width="512" height="512" x="0" y="0" viewBox="0 0 512 512" style="enable-background:new 0 0 512 512" xml:space="preserve" class=""><g><path xmlns="http://www.w3.org/2000/svg" d="m512 256.27c0 .31 0 .62-.01.93 0 1.32-.02 2.64-.05 3.95-.07 3.48-.2 6.95-.41 10.4-1.07 17.84-3.97 35.18-8.51 51.84-23.74 87.26-92.47 155.96-179.7 179.66-10.52 2.87-21.31 5.07-32.32 6.57-3.74.51-7.51.94-11.3 1.29-7.89.73-15.89 1.1-23.97 1.09h-.01c-10.35-.01-20.55-.63-30.57-1.85-.91-.11-1.82-.23-2.73-.35-1.22-.16-2.44-.32-3.65-.5-4.31-.62-8.58-1.35-12.81-2.19-.23-.05-.47-.09-.7-.14-.87-.18-1.73-.36-2.6-.54-.53-.11-1.07-.23-1.6-.35-.28-.06-.57-.12-.85-.19-.97-.21-1.94-.43-2.9-.65-10.14-2.38-20.04-5.36-29.67-8.9-3.52-1.3-7-2.67-10.45-4.12-92.42-38.69-157.3-130.04-157.19-236.49.15-141.38 114.89-255.88 256.27-255.73 114.41.12 211.22 75.29 243.9 178.87.67 2.11 1.31 4.24 1.92 6.37.68 2.38 1.33 4.77 1.95 7.18 1 3.94 1.92 7.93 2.74 11.94.51 2.51.99 5.03 1.43 7.56.77 4.38 1.41 8.79 1.95 13.24.26 2.18.49 4.36.7 6.56.35 3.69.62 7.41.8 11.15.19 3.77.31 7.56.33 11.37 0 0 .01.01 0 .02.01.04.01.09 0 .14.01.62.01 1.24.01 1.87z" fill="#f1f1f1" data-original="#fc393e" style="" class=""/><path xmlns="http://www.w3.org/2000/svg" d="m512 256.27c0 .31 0 .62-.01.93 0 1.32-.02 2.64-.05 3.95-.07 3.48-.2 6.95-.41 10.4-1.07 17.84-3.97 35.18-8.51 51.84-23.74 87.26-92.47 155.96-179.7 179.66-10.52 2.87-21.31 5.07-32.32 6.57-3.74.51-7.51.94-11.3 1.29-7.89.73-15.89 1.1-23.97 1.09h-.01c-10.35-.01-20.55-.63-30.57-1.85-.91-.11-1.82-.23-2.73-.35-1.22-.16-2.44-.32-3.65-.5-4.31-.62-8.58-1.35-12.81-2.19-.23-.05-.47-.09-.7-.14-.87-.18-1.73-.36-2.6-.54-.53-.11-1.07-.23-1.6-.35-.28-.06-.57-.12-.85-.19-31.37-31.06-105.11-105.77-105.11-105.77l49.86-94.36 27.95-53.66c-.26-.26-61.78-61.78-61.78-61.78l77.51-77.95 13.86 13.87h101.76l121.25-12.34s78.35 78.34 78.53 78.52c1 3.94 1.92 7.93 2.74 11.94.51 2.51.99 5.03 1.43 7.56.77 4.38 1.41 8.79 1.95 13.24.26 2.18.49 4.36.7 6.56.35 3.69.62 7.41.8 11.15.19 3.77.31 7.56.33 11.37 0 0 .01.01 0 .02.01.04.01.09 0 .14.01.62.01 1.24.01 1.87z" fill="#f1f1f1" data-original="#c6001c" style="" class=""/><path xmlns="http://www.w3.org/2000/svg" d="m149.71 176.244h58.544 5.09 121.698v-50h-121.698-5.09-58.544z" fill="#ffffff" data-original="#ffffff" style="" class=""/><path xmlns="http://www.w3.org/2000/svg" d="m250.96 126.244h84.082v50h-84.082z" fill="#eaeaea" data-original="#eaeaea" style="" class=""/><path xmlns="http://www.w3.org/2000/svg" d="m272.612 264.968-41.397-41.397-3.6-3.599-86.053-86.054-35.355 35.356 86.053 86.053 3.599 3.6 41.397 41.396z" fill="#ffffff" data-original="#ffffff" style="" class=""/><path xmlns="http://www.w3.org/2000/svg" d="m356.96 323.316h-212v-37.743l35.289-42.257h141.377l35.334 42.257z" fill="#fd9e27" data-original="#fd9e27" style=""/><path xmlns="http://www.w3.org/2000/svg" d="m321.626 243.316h-70.666v80h106v-37.743z" fill="#da7d00" data-original="#da7d00" style=""/><path xmlns="http://www.w3.org/2000/svg" d="m368.46 403.257h-235c-23.472 0-42.5-19.028-42.5-42.5 0-23.472 19.028-42.5 42.5-42.5h235c23.472 0 42.5 19.028 42.5 42.5 0 23.472-19.028 42.5-42.5 42.5z" fill="#ffffff" data-original="#ffffff" style="" class=""/><path xmlns="http://www.w3.org/2000/svg" d="m368.46 318.257h-117.5v85h117.5c23.472 0 42.5-19.028 42.5-42.5 0-23.473-19.028-42.5-42.5-42.5z" fill="#eaeaea" data-original="#eaeaea" style="" class=""/><path xmlns="http://www.w3.org/2000/svg" d="m368.46 415.757h-235c-30.327 0-55-24.673-55-55s24.673-55 55-55h235c30.327 0 55 24.673 55 55s-24.673 55-55 55zm-235-85c-16.542 0-30 13.458-30 30s13.458 30 30 30h235c16.542 0 30-13.458 30-30s-13.458-30-30-30z" fill="#06465e" data-original="#06465e" style="" class=""/><path xmlns="http://www.w3.org/2000/svg" d="m368.46 305.757h-117.5v25h117.5c16.542 0 30 13.458 30 30s-13.458 30-30 30h-117.5v25h117.5c30.327 0 55-24.673 55-55s-24.673-55-55-55z" fill="#022b3a" data-original="#022b3a" style="" class=""/><circle xmlns="http://www.w3.org/2000/svg" cx="250.96" cy="360.757" fill="#27ade5" r="15" data-original="#27ade5" style=""/><path xmlns="http://www.w3.org/2000/svg" d="m250.96 345.757v30c8.284 0 15-6.716 15-15 0-8.285-6.716-15-15-15z" fill="#2284ec" data-original="#2284ec" style=""/><circle xmlns="http://www.w3.org/2000/svg" cx="149.71" cy="360.757" fill="#27ade5" r="15" data-original="#27ade5" style=""/><circle xmlns="http://www.w3.org/2000/svg" cx="352.46" cy="360.757" fill="#2284ec" r="15" data-original="#2284ec" style=""/><circle xmlns="http://www.w3.org/2000/svg" cx="149.766" cy="151.244" fill="#27ade5" r="40" data-original="#27ade5" style=""/><path xmlns="http://www.w3.org/2000/svg" d="m149.766 111.244v80c22.091 0 40-17.909 40-40s-17.909-40-40-40z" fill="#2284ec" data-original="#2284ec" style=""/><path xmlns="http://www.w3.org/2000/svg" d="m149.766 206.244c-30.327 0-55-24.673-55-55s24.673-55 55-55 55 24.673 55 55-24.673 55-55 55zm0-80c-13.785 0-25 11.215-25 25s11.215 25 25 25 25-11.215 25-25-11.215-25-25-25z" fill="#06465e" data-original="#06465e" style="" class=""/><path xmlns="http://www.w3.org/2000/svg" d="m149.766 96.244v30c13.785 0 25 11.215 25 25s-11.215 25-25 25v30c30.327 0 55-24.673 55-55s-24.673-55-55-55z" fill="#022b3a" data-original="#022b3a" style="" class=""/><path xmlns="http://www.w3.org/2000/svg" d="m362.525 183.744v-65h-37.5c-17.949 0-32.5 14.551-32.5 32.5 0 17.949 14.551 32.5 32.5 32.5z" fill="#06465e" data-original="#06465e" style="" class=""/><path xmlns="http://www.w3.org/2000/svg" d="m292.525 151.244h70v32.5h-37.5c-17.949 0-32.5-14.551-32.5-32.5z" fill="#022b3a" data-original="#022b3a" style="" class=""/><path xmlns="http://www.w3.org/2000/svg" d="m433.541 124.484-22.612 9.791-8.683 3.76c-3.687-4.212-9.086-6.889-15.11-6.889-11.082 0-20.098 9.015-20.098 20.098s9.016 20.098 20.098 20.098c6.024 0 11.424-2.677 15.11-6.889l8.683 3.76 22.612 9.791c-9.276 16.023-26.596 26.835-46.406 26.835-29.552 0-53.594-24.043-53.594-53.594s24.042-53.594 53.594-53.594c19.809-.002 37.13 10.809 46.406 26.833z" fill="#ffffff" data-original="#ffffff" style="" class=""/><path xmlns="http://www.w3.org/2000/svg" d="m333.541 151.244h33.497c0 11.082 9.016 20.097 20.098 20.097 6.024 0 11.424-2.677 15.11-6.889l8.683 3.76 22.612 9.791c-9.276 16.023-26.596 26.834-46.406 26.834-29.552.001-53.594-24.042-53.594-53.593z" fill="#eaeaea" data-original="#eaeaea" style="" class=""/></g></svg>
