<?xml version="1.0" encoding="utf-8"?>
<svg version="1.1" id="Layer_1" xmlns="http://www.w3.org/2000/svg" xmlns:xlink="http://www.w3.org/1999/xlink" x="0px" y="0px"
	width="100px" height="100px" viewBox="0 0 587.3 587.3" style="enable-background:new 0 0 587.3 587.3;" xml:space="preserve">
<g>
	<g>
		<circle style="fill:#E8E8E8;" cx="293.7" cy="293.7" r="293.7"/>
		<circle style="fill:#FFFFFF;" cx="293.7" cy="293.7" r="287.8"/>
	</g>
	<g>
		<g>
			<path style="fill:#E71E29;" d="M468.8,223.2L364.5,118.5c-4.6-4.6-12.2-4.6-16.8,0L237.1,228.7l121,121.5L468.8,240
				C473.4,235.4,473.4,227.8,468.8,223.2z M378,251.2c-11.6,11.6-30.4,11.5-41.9-0.1c-11.6-11.6-11.5-30.4,0.1-41.9
				c11.6-11.6,30.4-11.5,41.9,0.1C389.7,220.8,389.6,239.7,378,251.2z"/>
			<path style="fill:#0074AE;" d="M229.1,236.6L118.6,346.8c-4.6,4.6-4.6,12.2-0.1,16.9l104.3,104.7c4.6,4.6,12.2,4.6,16.8,0
				L350.2,358L229.1,236.6z M207.6,377.8c-11.6,11.6-30.4,11.5-41.9-0.1c-11.6-11.5-11.5-30.3,0.1-41.9
				c11.6-11.6,30.4-11.5,41.9,0.1C219.3,347.4,219.2,366.2,207.6,377.8z M252.5,377.4c-11.5-11.6-11.5-30.3,0.1-41.9
				c11.6-11.6,30.4-11.5,41.9,0.1c11.6,11.6,11.5,30.4-0.1,41.9C282.8,389.1,264,389,252.5,377.4z"/>
		</g>
		<path style="fill:#0074AE;" d="M278,472.3v-14.8h-5.7v-2.6h14.2v2.6h-5.7v14.8H278z M288.5,472.3v-17.4h4.3l4.4,13.9l4.2-13.9h4.2
			v17.4H303v-14.6l-4.5,14.6h-2.6l-4.7-14.8v14.8H288.5"/>
	</g>
</g>
</svg>
