<svg xmlns="http://www.w3.org/2000/svg" viewBox="0 0 98 61">
<g>
  <defs>
    <style>
      .a{fill:#231f20}.b{fill:#f90}
    </style>
  </defs>
  <path d="M28.84 24.53a4.09 4.09 0 0 0-3.91-2.87A3.94 3.94 0 0 0 21 24.53h-.07v-2a.53.53 0 0 0-.56-.53h-2.81c-.41 0-.61.19-.61.56V38c0 .32.19.46.58.49h3c.39 0 .56-.15.58-.53v-8.18A9.78 9.78 0 0 1 21.3 27a1.79 1.79 0 0 1 1.85-1.48A1.62 1.62 0 0 1 24.9 27a19.34 19.34 0 0 1 .1 2.78v8.14c0 .34.15.53.53.56h3c.41 0 .56-.15.56-.53v-8.17a7.69 7.69 0 0 1 .32-3 1.77 1.77 0 0 1 .73-.95 1.66 1.66 0 0 1 1.07-.34A1.52 1.52 0 0 1 33 26.86a16.24 16.24 0 0 1 .1 2.89v8.14a.52.52 0 0 0 .56.56h3c.41 0 .58-.15.58-.53V25.65a4.78 4.78 0 0 0-.73-2.28 4 4 0 0 0-3.5-1.7 4.34 4.34 0 0 0-4.13 2.87zM57.16 22c-.41 0-.56.15-.56.56v2.19a.52.52 0 0 0 .58.58h5.17l-6 8.48a3 3 0 0 0-.35 1.53v2.21a.44.44 0 0 0 .22.44.35.35 0 0 0 .46.07 10.85 10.85 0 0 1 5.34-1.26 11.42 11.42 0 0 1 5.13 1.26l.51-.07a.44.44 0 0 0 .22-.44v-2.4a1.19 1.19 0 0 0-.53-.87 10.92 10.92 0 0 0-5.66-1.17l5.13-7.31a3.28 3.28 0 0 0 .75-1.43v-1.83c0-.41-.19-.56-.56-.56zm39.65 1.49a4.35 4.35 0 0 0-6-1 5.68 5.68 0 0 0-1.58 2.33v-2.38a.6.6 0 0 0-.53-.44h-2.89c-.36 0-.56.15-.56.51v15.4c0 .34.17.53.53.56h3a.52.52 0 0 0 .61-.53v-8.31a6.86 6.86 0 0 1 .49-2.92 1.78 1.78 0 0 1 1.75-1.21c.9 0 1.41.46 1.68 1.41a16.28 16.28 0 0 1 .19 2.72V38c0 .32.19.44.51.46h3c.34 0 .53-.12.58-.44V28.3c0-2.36-.27-4-.78-4.81z" class="a"/>
  <path d="M14.19 40.35c-.15.22-.1.46.17.68a38.34 38.34 0 0 0 11.56 7.19 37.86 37.86 0 0 0 13.92 2.58 41.31 41.31 0 0 0 11-1.63 32 32 0 0 0 9.89-4.79c.44-.34.58-.66.32-1s-.63-.46-1.12-.24a49.23 49.23 0 0 1-19.44 4 51.88 51.88 0 0 1-13.53-1.8 49.88 49.88 0 0 1-12-4.93c-.34-.19-.58-.17-.75 0z" class="b"/>
  <path d="M65.47 39.91a2.36 2.36 0 0 0-1.24-.53l-2.31-.19a10 10 0 0 0-5.61 1.55c-.22.19-.36.41-.27.58s.15.22.44.17c4-.44 6.15-.36 6.61.24s0 2.79-1.51 6.44c-.15.24-.07.44.07.51a.63.63 0 0 0 .61-.17 9.88 9.88 0 0 0 3-5 13.78 13.78 0 0 0 .41-2.36 2.42 2.42 0 0 0-.19-1.29z" class="b"/>
  <path d="M7 28.35l-.61.07a11.72 11.72 0 0 0-2.79.68A5.47 5.47 0 0 0 1.31 31a5.25 5.25 0 0 0-.9 3 4.67 4.67 0 0 0 1.31 3.52A4.3 4.3 0 0 0 5 38.67a7.84 7.84 0 0 0 2.11-.27 3.14 3.14 0 0 0 .51-.17 8.21 8.21 0 0 0 2.31-1.72l.73 1 1 1a.62.62 0 0 0 .7-.07l2.31-2c.24-.17.24-.49 0-.78l-.75-1.17a3.61 3.61 0 0 1-.36-1.6V28.2a27.41 27.41 0 0 0-.12-2.82A4 4 0 0 0 12.19 23a6.32 6.32 0 0 0-4.54-1.48H7a7.78 7.78 0 0 0-3.57 1 5 5 0 0 0-2.48 3.64c-.1.34 0 .53.44.63l2.89.27c.32 0 .49-.17.53-.56a2.07 2.07 0 0 1 .92-1.31 2.22 2.22 0 0 1 1.34-.46.31.31 0 0 1 .15 0 2 2 0 0 1 1.72.8 1.91 1.91 0 0 1 .34 1.07v1.51L7 28.35zm0 7.29a2.22 2.22 0 0 1-.41 0 1.54 1.54 0 0 1-1.34-.61 2.24 2.24 0 0 1-.51-1.58A2.67 2.67 0 0 1 7 30.75a8.49 8.49 0 0 1 2.24-.24v2.29a4 4 0 0 1-.54 1.5A2.29 2.29 0 0 1 7 35.63zm39.5-7.29l-.61.07a11.72 11.72 0 0 0-2.79.68 5.47 5.47 0 0 0-2.34 1.9 5.09 5.09 0 0 0-.92 3 4.67 4.67 0 0 0 1.31 3.52 4.3 4.3 0 0 0 3.23 1.17 7.84 7.84 0 0 0 2.11-.27 3.14 3.14 0 0 0 .51-.17 8.21 8.21 0 0 0 2.31-1.72l.73 1 1 1a.62.62 0 0 0 .7-.07l2.31-2c.24-.17.24-.49 0-.78l-.75-1.17a3.61 3.61 0 0 1-.36-1.6V28.2a27.41 27.41 0 0 0-.12-2.82 4 4 0 0 0-1.2-2.38 6.26 6.26 0 0 0-4.52-1.48h-.6a7.78 7.78 0 0 0-3.57 1 5 5 0 0 0-2.53 3.62c-.1.34 0 .53.44.63l2.89.27c.32 0 .49-.17.53-.56a2.07 2.07 0 0 1 .92-1.31 2.22 2.22 0 0 1 1.34-.46.31.31 0 0 1 .15 0 2 2 0 0 1 1.72.8 1.91 1.91 0 0 1 .34 1.07v1.51l-2.26.27zm0 7.29a2.22 2.22 0 0 1-.41 0 1.54 1.54 0 0 1-1.34-.61 2.24 2.24 0 0 1-.51-1.58 2.67 2.67 0 0 1 2.26-2.72 8.49 8.49 0 0 1 2.24-.24v2.29a4 4 0 0 1-.53 1.51 2.38 2.38 0 0 1-1.65 1.34zm29.64-13.97a5.93 5.93 0 0 0-5 2.48 9.73 9.73 0 0 0-1.77 6 10 10 0 0 0 1.77 6.07 5.79 5.79 0 0 0 5 2.53 6.18 6.18 0 0 0 4.93-2.45 9.5 9.5 0 0 0 1.85-6 10.39 10.39 0 0 0-1.75-6.2 5.94 5.94 0 0 0-5.05-2.55zm0 13.92c-1 0-1.72-.7-2.09-2.19a21.52 21.52 0 0 1-.24-3.67 10.64 10.64 0 0 1 .34-3.13c.36-1.17 1-1.77 2-1.77a2 2 0 0 1 1.92 1.55 13.79 13.79 0 0 1 .44 4.06 11.81 11.81 0 0 1-.34 3.33c-.36 1.21-1 1.82-2 1.82z" class="a"/>
  </g>
</svg>
