<?xml version="1.0" encoding="utf-8"?>
<svg version="1.1" id="Layer_1" xmlns="http://www.w3.org/2000/svg" xmlns:xlink="http://www.w3.org/1999/xlink" x="0px" y="0px"
	width="100px" height="100px" viewBox="0 0 421 421" style="enable-background:new 0 0 421 421;" xml:space="preserve">
<g>
	<g>
		<path style="fill:#E8E8E8;" d="M210.5,0C326.7,0,421,94.3,421,210.5S326.7,421,210.5,421S0,326.7,0,210.5S94.3,0,210.5,0"/>
		<path style="fill:#FFFFFF;" d="M210.5,4.2c113.9,0,206.3,92.4,206.3,206.3s-92.4,206.3-206.3,206.3S4.2,324.4,4.2,210.5
			S96.6,4.2,210.5,4.2"/>
	</g>
	<g>
		<path style="fill:#E62632;" d="M37.3,181.3h43.2v9.4c-3.1-2.6-9.6-3.5-16.5-3.5v25.7c0,3.7,0.4,4.9,1.8,6.9H52
			c1.4-2,1.8-2.9,1.8-6.9V187c-6.9,0-13.3,1-16.5,3.5C37.3,190.5,37.3,181.3,37.3,181.3z"/>
		<path style="fill:#E62632;" d="M37.3,181.3h43.2v9.4c-3.1-2.6-9.6-3.5-16.5-3.5v25.7c0,3.7,0.4,4.9,1.8,6.9H52
			c1.4-2,1.8-2.9,1.8-6.9V187c-6.9,0-13.3,1-16.5,3.5C37.3,190.5,37.3,181.3,37.3,181.3z"/>
		<path style="fill:#E62632;" d="M37.3,181.3h43.2v9.4c-3.1-2.6-9.6-3.5-16.5-3.5v25.7c0,3.7,0.4,4.9,1.8,6.9H52
			c1.4-2,1.8-2.9,1.8-6.9V187c-6.9,0-13.3,1-16.5,3.5C37.3,190.5,37.3,181.3,37.3,181.3z"/>
		<path style="fill:#E62632;" d="M37.3,181.3h43.2v9.4c-3.1-2.6-9.6-3.5-16.5-3.5v25.7c0,3.7,0.4,4.9,1.8,6.9H52
			c1.4-2,1.8-2.9,1.8-6.9V187c-6.9,0-13.3,1-16.5,3.5C37.3,190.5,37.3,181.3,37.3,181.3z"/>
		<path style="fill:#E62632;" d="M101,213.6c4.5,0,11.8-1,14.7-3.5v9.4H84.3c1.6-1.8,1.8-2.9,1.8-6.7v-24.9c0-3.7-0.2-4.9-1.8-6.7
			h29.8v9.4c-2.9-2.6-10.2-3.5-14.7-3.5h-3.5v10.2h2.6c3,0.1,6.1-0.3,9-1v7.5c-2.6-1-6.5-1-9-1h-2.6v11h5.1L101,213.6z"/>
		<path style="fill:#E62632;" d="M142.2,196c7.4,1,13.7,3.7,13.7,11.8c0,9.6-9,12.6-18.8,12.6c-6.9,0-12.6-0.8-16.9-2.4v-8.6
			c5,3.3,10.9,5,16.9,5.1c4.7,0,9-1.2,9-4.7s-4.1-4.5-12.4-5.7c-7.1-1.2-13.7-4.1-13.7-11.2c0-9.4,9-12.4,17.6-12.4
			c5.4-0.1,10.8,0.7,15.9,2.4v9.2c-4.1-3.7-10.4-5.7-16.3-5.7c-4.1,0-8,1.4-8,4.3C129.3,194.4,135,195,142.2,196z"/>
		<path style="fill:#E62632;" d="M184.8,180.5c3.8,0,7.7,0.4,11.4,1.4v9.4c-3.1-3.1-6.7-5.1-11.4-5.1c-8.6,0-14.5,6.1-14.5,14.1
			c0,8.1,5.9,14.1,14.5,14.1c4.4,0,8.5-1.8,11.4-5.1v9.6c-3.7,0.9-7.5,1.4-11.4,1.4c-15.1,0-25.9-7.5-25.9-20
			C158.9,187.9,169.9,180.5,184.8,180.5z"/>
		<path style="fill:#E62632;" d="M223.5,180.5c-15.5,0-24.3,9-24.3,20c0,10.8,8.8,20,24.3,20s24.3-9,24.3-20S239,180.5,223.5,180.5z
			 M223.5,214.4c-7.9,0-12.9-6.5-12.9-14.1c0-7.7,5.1-14.1,12.9-14.1c7.8,0,13,6.5,13,14.1C236.2,208.2,231.1,214.4,223.5,214.4
			L223.5,214.4z"/>
		<path style="fill:#0354A0;" d="M221.3,229.9h26.1v0.2l0,0c-2.9,1.4-7.1,5.5-7.1,5.5c-3.1,2.9-5.5,4.9-10.4,4.9h-24.7
			c-0.1,0-0.2-0.1-0.2-0.2c0,0,0,0,0,0l0,0v-0.2l0,0c2.5-1.7,4.8-3.6,6.9-5.7C214.2,231.7,217.7,230.1,221.3,229.9"/>
		<path style="fill:#0354A0;" d="M178.9,229.9H205v0.2l0,0c-2.9,1.4-7.1,5.5-7.1,5.5c-3.1,2.9-5.4,4.9-10.4,4.9h-24.7
			c-0.1,0-0.2-0.1-0.2-0.2l0,0v-0.2l0,0c2.5-1.7,4.8-3.6,6.9-5.7C171.9,231.7,175.3,230,178.9,229.9"/>
		<path style="fill:#0354A0;" d="M136.5,229.9h26.1v0.2l0,0c-2.9,1.4-7.1,5.5-7.1,5.5c-3.1,2.9-5.5,4.9-10.4,4.9h-24.6
			c-0.1,0-0.2-0.1-0.2-0.2l0,0v-0.2l0,0c2.5-1.7,4.8-3.6,6.9-5.7C129.5,231.7,133,230.1,136.5,229.9"/>
		<path style="fill:#0354A0;" d="M94,229.9h26.1v0.2l0,0c-2.9,1.4-7.1,5.5-7.1,5.5c-3.1,2.9-5.3,4.9-10.2,4.9H78.1
			c-0.1,0-0.2-0.1-0.2-0.2c0,0,0,0,0,0l0,0v-0.2l0,0c2.5-1.7,4.8-3.6,6.9-5.7C86.5,232.4,89.8,229.9,94,229.9"/>
		<path style="fill:#0354A0;" d="M51.6,229.9h26.1v0.2l0,0c-2.9,1.4-7.1,5.5-7.1,5.5c-3.1,2.9-5.3,4.9-10.2,4.9H35.7
			c-0.1,0-0.2-0.1-0.2-0.2l0,0v-0.2l0,0c2.5-1.7,4.8-3.6,6.9-5.7C44.1,232.4,47.5,229.9,51.6,229.9"/>
		<g>
			<path style="fill:#0354A0;" d="M274.3,181.3h13.1c3.3,0,5.9,0.8,7.8,2.6s2.8,4.1,2.8,7.1c0.1,1.7-0.4,3.3-1.4,4.7
				c-0.7,1.3-1.8,2.3-3.1,2.9c1.9,0.7,3.5,1.9,4.7,3.5c1.2,1.8,1.8,3.9,1.8,6.1c0.1,3.1-1.1,6.1-3.3,8.2c-2.2,2-5.1,2.9-8.8,2.9
				h-13.7L274.3,181.3L274.3,181.3z M287.2,197c2,0,3.5-0.4,4.5-1.4c1.1-1.1,1.6-2.6,1.6-4.1c0.1-1.5-0.5-3-1.6-4.1
				c-1-1-2.5-1.4-4.5-1.4H279v11.2C279,197.2,287.2,197,287.2,197z M287.4,215c2,0.1,4.1-0.5,5.7-1.8c1.4-1.2,2-2.8,2-5.1
				c0-2.3-0.6-3.9-2-5.1c-1.4-1.2-3.3-1.6-5.9-1.6h-8.4V215H287.4z"/>
			<path style="fill:#0354A0;" d="M308.6,218.9c-1.4-0.6-2.6-1.6-3.3-2.9c-0.8-1.3-1.2-2.8-1.2-4.3c-0.1-2.7,1.2-5.3,3.3-6.9
				c2.7-1.7,5.8-2.5,9-2.4h6.1v-1.4c0.1-1.7-0.6-3.3-2-4.3c-1.4-1.1-3.1-1.6-4.9-1.6c-1.6,0-3.1,0.4-4.5,1.2c-1.2,0.9-2.2,2-2.9,3.3
				l-3.5-2.2c0.9-2,2.4-3.6,4.3-4.7c2-1.2,4.3-1.8,6.7-1.8c3-0.1,5.9,0.9,8.2,2.7c2.1,1.9,3.3,4.6,3.1,7.5v18.4h-3.7l-0.8-4.3
				c-0.9,1.4-2.2,2.6-3.7,3.3c-1.6,0.9-3.5,1.3-5.3,1.4C311.8,220,310.1,219.6,308.6,218.9z M318.2,214.8c1.3-0.6,2.5-1.6,3.1-2.9
				c0.8-1.4,1.2-2.9,1.2-4.5v-1.2h-5.9c-2.5,0-4.5,0.4-5.7,1.4c-1.3,0.8-2,2.2-2,3.7c-0.1,1.3,0.4,2.5,1.4,3.3
				c1.1,0.8,2.4,1.2,3.7,1.2C315.5,215.9,316.9,215.5,318.2,214.8z"/>
			<path style="fill:#0354A0;" d="M333.7,191.3h4.5v5.3c0.7-1.8,2.1-3.2,3.7-4.1c1.7-1,3.6-1.5,5.5-1.6c2.5-0.2,4.9,0.8,6.7,2.6
				c1.7,1.9,2.7,4.3,2.5,6.9v19.2h-4.5v-18.2c0.1-1.6-0.4-3.2-1.4-4.5c-1.1-1.1-2.6-1.6-4.1-1.6c-1.5-0.1-3,0.4-4.1,1.4
				c-1.3,1.1-2.3,2.5-2.9,4.1c-0.7,2-1,4.1-1,6.3v12.5h-4.5v-28.2H333.7z"/>
			<path style="fill:#0354A0;" d="M368,203.4l10.8-12h5.7l-11.6,13l12.6,15.3h-5.7L368,205.4v14.3h-4.5v-38.8h4.5L368,203.4z"/>
		</g>
	</g>
</g>
</svg>
