<?xml version="1.0"?>
<svg xmlns="http://www.w3.org/2000/svg" xmlns:xlink="http://www.w3.org/1999/xlink" xmlns:svgjs="http://svgjs.com/svgjs" version="1.1" width="512" height="512" x="0" y="0" viewBox="0 0 512 512" style="enable-background:new 0 0 512 512" xml:space="preserve" class=""><g>
<circle xmlns="http://www.w3.org/2000/svg" style="" cx="256" cy="256" r="256" fill="#f1f1f1" data-original="#47ab4b" class=""/>
<path xmlns="http://www.w3.org/2000/svg" style="" d="M511.87,263.826L452,203.956H308L82.644,341.872L252.73,511.959c1.09,0.014,2.177,0.041,3.27,0.041  C394.766,512,507.732,401.589,511.87,263.826z" fill="#f1f1f1" data-original="#2b9153" class=""/>
<polygon xmlns="http://www.w3.org/2000/svg" style="" points="430.5,341.872 82.644,341.872 82.644,203.956 295.5,203.956 362.905,136 430.5,203.956 " fill="#ffffff" data-original="#ffffff" class=""/>
<polygon xmlns="http://www.w3.org/2000/svg" style="" points="430.5,203.956 362.905,136 295.5,203.956 256,203.956 256,341.872 430.5,341.872 " fill="#e0e0e0" data-original="#e0e0e0" class=""/>
<polygon xmlns="http://www.w3.org/2000/svg" style="" points="362.905,114.86 316.839,160.926 90.735,160.926 77.5,203.956 305.451,203.956 362.905,146.5   420.362,203.956 452,203.956 " fill="#f1333f" data-original="#f1333f" class=""/>
<polygon xmlns="http://www.w3.org/2000/svg" style="" points="362.905,114.86 316.839,160.926 256,160.926 256,203.956 305.451,203.956 362.905,146.5   420.362,203.956 452,203.956 " fill="#ae283f" data-original="#ae283f"/>
<rect xmlns="http://www.w3.org/2000/svg" x="325.15" y="228" style="" width="75.5" height="113.87" fill="#ffb344" data-original="#ffb344" class=""/>
<rect xmlns="http://www.w3.org/2000/svg" x="102.5" y="229" style="" width="136.5" height="72" fill="#b9eaff" data-original="#b9eaff" class=""/>
<circle xmlns="http://www.w3.org/2000/svg" style="" cx="362.9" cy="192.5" r="19" fill="#35ccff" data-original="#35ccff"/>
<g xmlns="http://www.w3.org/2000/svg">
</g>
<g xmlns="http://www.w3.org/2000/svg">
</g>
<g xmlns="http://www.w3.org/2000/svg">
</g>
<g xmlns="http://www.w3.org/2000/svg">
</g>
<g xmlns="http://www.w3.org/2000/svg">
</g>
<g xmlns="http://www.w3.org/2000/svg">
</g>
<g xmlns="http://www.w3.org/2000/svg">
</g>
<g xmlns="http://www.w3.org/2000/svg">
</g>
<g xmlns="http://www.w3.org/2000/svg">
</g>
<g xmlns="http://www.w3.org/2000/svg">
</g>
<g xmlns="http://www.w3.org/2000/svg">
</g>
<g xmlns="http://www.w3.org/2000/svg">
</g>
<g xmlns="http://www.w3.org/2000/svg">
</g>
<g xmlns="http://www.w3.org/2000/svg">
</g>
<g xmlns="http://www.w3.org/2000/svg">
</g>
</g></svg>
