<?xml version="1.0"?>
<svg xmlns="http://www.w3.org/2000/svg" xmlns:xlink="http://www.w3.org/1999/xlink" xmlns:svgjs="http://svgjs.com/svgjs" version="1.1" width="512" height="512" x="0" y="0" viewBox="0 0 512 512" style="enable-background:new 0 0 512 512" xml:space="preserve" class=""><g><path xmlns="http://www.w3.org/2000/svg" d="m512 256c0 141.386719-114.613281 256-256 256s-256-114.613281-256-256 114.613281-256 256-256 256 114.613281 256 256zm0 0" fill="#f1f1f1" data-original="#ffdf5e" style="" class=""/><path xmlns="http://www.w3.org/2000/svg" d="m506.203125 201.667969-115.667969-115.667969-83.671875 83.671875-76.878906-76.875-108.515625 108.515625 91.625 91.625-121.0625 121.0625 85.839844 85.839844c24.632812 7.886718 50.878906 12.160156 78.128906 12.160156 141.386719 0 256-114.613281 256-256 0-18.644531-2.011719-36.820312-5.796875-54.332031zm0 0" fill="#f1f1f1" data-original="#ffcd00" style="" class=""/><path xmlns="http://www.w3.org/2000/svg" d="m323.265625 220.53125h19.21875v28.828125h-19.21875zm0 0" fill="#76c5e4" data-original="#76c5e4" style=""/><path xmlns="http://www.w3.org/2000/svg" d="m332.875 316.625-48.046875-28.828125c0-26.492187 21.554687-48.046875 48.046875-48.046875s48.046875 21.554688 48.046875 48.046875zm0 0" fill="#7de1fa" data-original="#7de1fa" style="" class=""/><path xmlns="http://www.w3.org/2000/svg" d="m256 86h134.53125v115.3125h-134.53125l-47.992188-57.3125zm0 0" fill="#80542f" data-original="#80542f" style=""/><path xmlns="http://www.w3.org/2000/svg" d="m121.46875 86h134.53125v115.3125h-134.53125zm0 0" fill="#906b4d" data-original="#906b4d" style="" class=""/><path xmlns="http://www.w3.org/2000/svg" d="m332.875 105.21875-19.21875 19.21875-19.21875-19.21875h-38.4375l-19.21875 38.4375 57.65625 38.4375h38.4375l38.4375-38.4375v-38.4375zm0 0" fill="#906b4d" data-original="#906b4d" style="" class=""/><path xmlns="http://www.w3.org/2000/svg" d="m256 287.796875h164v19.21875l-183.21875 10.25zm0 0" fill="#b89987" data-original="#b89987" style=""/><path xmlns="http://www.w3.org/2000/svg" d="m256 287.796875v29.46875l-164-10.25v-19.21875zm0 0" fill="#d0afa2" data-original="#d0afa2" style="" class=""/><path xmlns="http://www.w3.org/2000/svg" d="m256 307.015625h164v19.21875l-183.21875 10.25zm0 0" fill="#80542f" data-original="#80542f" style=""/><path xmlns="http://www.w3.org/2000/svg" d="m256 307.015625v29.46875l-164-10.25v-19.21875zm0 0" fill="#906b4d" data-original="#906b4d" style="" class=""/><path xmlns="http://www.w3.org/2000/svg" d="m256 326.234375h164v87.765625h-164l-58.507812-43.882812zm0 0" fill="#b89987" data-original="#b89987" style=""/><path xmlns="http://www.w3.org/2000/svg" d="m92 326.234375h164v87.765625h-164zm0 0" fill="#d0afa2" data-original="#d0afa2" style="" class=""/><g xmlns="http://www.w3.org/2000/svg" fill="#a0836b"><path d="m294.4375 143.65625v38.4375h-38.4375l-19.21875-38.4375zm0 0" fill="#a0836b" data-original="#a0836b" style=""/><path d="m332.875 143.65625h38.4375v38.4375h-38.4375zm0 0" fill="#a0836b" data-original="#a0836b" style=""/><path d="m294.4375 105.21875h38.4375v38.4375h-38.4375zm0 0" fill="#a0836b" data-original="#a0836b" style=""/><path d="m217.5625 105.21875-19.21875 19.21875-19.21875-19.21875h-38.4375v38.4375l38.4375 38.4375h38.4375l38.4375-38.4375v-38.4375zm0 0" fill="#a0836b" data-original="#a0836b" style=""/></g><path xmlns="http://www.w3.org/2000/svg" d="m217.5625 143.65625h38.4375v38.4375h-38.4375zm0 0" fill="#b89987" data-original="#b89987" style=""/><path xmlns="http://www.w3.org/2000/svg" d="m140.6875 143.65625h38.4375v38.4375h-38.4375zm0 0" fill="#b89987" data-original="#b89987" style=""/><path xmlns="http://www.w3.org/2000/svg" d="m179.125 105.21875h38.4375v38.4375h-38.4375zm0 0" fill="#b89987" data-original="#b89987" style=""/></g></svg>
