<?xml version="1.0" encoding="utf-8"?>
<svg version="1.1" id="Layer_1" xmlns="http://www.w3.org/2000/svg" xmlns:xlink="http://www.w3.org/1999/xlink" x="0px" y="0px"
	width="100px" height="100px" viewBox="0 0 100 100" style="enable-background:new 0 0 100 100;" xml:space="preserve">
<g>
	<path style="fill:#E8E8E8;" d="M50,0c27.61,0,50,22.39,50,50c0,27.61-22.39,50-50,50S0,77.61,0,50C0,22.39,22.39,0,50,0"/>
	<path style="fill:#FFFFFF;" d="M50,1c27.06,0,49,21.94,49,49S77.06,99,50,99S1,77.06,1,50S22.94,1,50,1"/>
	<path style="fill-rule:evenodd;clip-rule:evenodd;fill:#384A9C;" d="M79.34,45.08l-0.02,0.01l0.13-0.09l2.5,3.04
		c-0.7,0.7-1.54,1.49-2.58,1.49c-1.13-0.05-2.03-0.96-2.09-2.09C77.29,46.38,78.56,45.62,79.34,45.08 M79.94,40.17
		c0.71-0.03,1.31,0.52,1.34,1.23c0,0.82-0.77,1.28-1.33,1.72l-0.01,0.01l-0.18,0.12l-0.37-0.48c-0.38-0.38-0.62-0.87-0.67-1.4
		C78.76,40.71,79.29,40.19,79.94,40.17 M79.42,50.79c1.33-0.07,2.56-0.71,3.37-1.76l1.21,1.51h1.73l-2.01-2.5l1.37-1.61l-0.9-0.93
		l-1.32,1.53l-2.34-2.83c0.94-0.68,2.04-1.55,2.04-2.8c0-1.48-1.22-2.34-2.6-2.34c-1.48,0-2.59,0.91-2.59,2.46
		c0,0.96,0.61,1.79,1.25,2.46l-0.7,0.51c-1.08,0.78-1.97,1.55-1.97,2.98v0.08v0C76.04,49.41,77.58,50.85,79.42,50.79 M65.56,45.15
		h5.35v5.4h1.4V39.31h-1.4v4.53h-5.35v-4.53h-1.4v11.24h1.4V45.15z M59.33,50.55h1.4v-9.96h2.67v-1.28h-6.74v1.28h2.67V50.55z
		 M52.88,41.89l0,0.01l1.99,4.54h-4L52.88,41.89z M49.02,50.55l1.28-2.82h5.17l1.29,2.82h1.49l-5.37-11.72l-5.37,11.72H49.02z
		 M42.46,49.29v-3.89h0.85c1.25,0,2.88,0.31,2.88,1.91c0,1.59-1.36,1.98-2.65,1.98H42.46z M42.46,40.56h0.39
		c1.3,0,2.39,0.23,2.39,1.85c0,1.62-1.09,1.88-2.42,1.88h-0.36V40.56z M47.58,47.4c0.01-1.36-0.92-2.54-2.25-2.85v-0.03
		c0.76-0.44,1.22-1.25,1.21-2.13c0-2.54-2-3.09-4.12-3.09h-1.37v11.24h2.62C45.66,50.55,47.58,49.66,47.58,47.4 M29.87,49.26v-8.67
		h0.5c2.84,0,5.34,1.07,5.34,4.33c0,3.26-2.48,4.34-5.34,4.34H29.87z M37.1,44.87c0-3.74-2.86-5.56-6.31-5.56h-2.32v11.24h2.28
		C34.3,50.55,37.1,48.7,37.1,44.87 M27.16,49.27h-4.64v-4.25h4.51v-1.29h-4.51v-3.15h4.64v-1.28h-6.04v11.24h6.04V49.27z
		 M15.17,49.29V45.4h0.86c1.26,0,2.87,0.32,2.87,1.91c0,1.59-1.36,1.98-2.65,1.98H15.17z M15.17,40.56h0.39
		c1.32,0,2.39,0.23,2.39,1.85c0,1.62-1.09,1.88-2.42,1.88h-0.36V40.56z M20.3,47.4c0.01-1.36-0.93-2.55-2.25-2.85v-0.03
		c0.76-0.44,1.22-1.25,1.21-2.13c0-2.54-2-3.09-4.12-3.09h-1.35v11.24h2.61C18.38,50.55,20.3,49.66,20.3,47.4 M62.3,57.38l-4.03-4.4
		h-4.59v8.49h4.57v-4.32l4.05,4.32h4.57v-8.49H62.3V57.38z M85.62,52.93h-0.21v-0.32h0.33c0.13,0,0.3,0.02,0.3,0.15
		C86.04,52.96,85.77,52.93,85.62,52.93 M86.22,52.76c0-0.27-0.22-0.33-0.44-0.33h-0.54v1.25h0.17v-0.57h0.21l0.37,0.57h0.21v-0.01
		l-0.38-0.57C86.05,53.09,86.22,53.03,86.22,52.76 M85.65,54.02c-0.53-0.01-0.96-0.44-0.96-0.97c0-0.53,0.44-0.96,0.97-0.96
		c0.53,0.01,0.96,0.44,0.95,0.97C86.61,53.6,86.18,54.03,85.65,54.02 M85.66,51.92c-0.63,0.01-1.14,0.52-1.13,1.15
		c0,0.01,0.01,0.01,0.01,0.01c0,0.62,0.51,1.12,1.14,1.12c0.63,0,1.14-0.52,1.13-1.15C86.8,52.42,86.29,51.92,85.66,51.92 M75,58.92
		h-0.42v-3.29H75c2.53,0,4.08,0.51,4.08,1.7C79.08,58.45,77.31,58.92,75,58.92 M74.7,52.97h-7.06l-0.01,8.49h8.81
		c5.59,0,9.6-1.62,9.6-4.12C86.03,54.23,81.11,52.97,74.7,52.97 M46.3,58.92c-1.36,0-2.3-0.66-2.3-1.63c0-0.91,0.88-1.67,2.3-1.67
		c1.42,0,2.3,0.77,2.3,1.67C48.61,58.26,47.66,58.92,46.3,58.92 M46.3,52.84c-3.73,0-6.81,1.68-6.81,4.41
		c0,2.72,3.06,4.36,6.81,4.36c3.75,0,6.81-1.64,6.81-4.36h0C53.11,54.57,50.03,52.84,46.3,52.84 M36.64,52.97l-0.83,1.42
		c-0.14,0.26-0.26,0.53-0.36,0.8h-0.12l-1.28-2.22h-4.72l4,4.83v3.66h4.07v-3.66l3.92-4.83H36.64z M26.1,58.31h2.85V56.1H26.1v-0.81
		h3.12v-2.32h-6.85v8.49h6.96v-2.32H26.1V58.31z M17.32,59.44h-0.38v-1.42h0.33c0.55,0,1.41,0,1.41,0.71
		C18.68,59.44,17.88,59.44,17.32,59.44 M16.94,55.03h0.24c0.49,0,1.13,0,1.13,0.58s-0.56,0.63-1.06,0.63l-0.31,0V55.03z
		 M20.17,57.11v-0.07c0.75-0.22,1.25-0.93,1.23-1.71c0-1.96-1.85-2.35-3.65-2.35h-3.96v8.49h4.63c1.64,0,3.42-0.6,3.42-2.34
		C21.84,58.11,21.19,57.43,20.17,57.11"/>
</g>
</svg>
