<?xml version="1.0" encoding="utf-8"?>
<svg version="1.1" id="Layer_1" xmlns="http://www.w3.org/2000/svg" xmlns:xlink="http://www.w3.org/1999/xlink" x="0px" y="0px"
	width="100px" height="100px" viewBox="0 0 100 100" style="enable-background:new 0 0 100 100;" xml:space="preserve">
<g>
	<path style="fill:#E8E8E8;" d="M50,0c27.61,0,50,22.39,50,50s-22.39,50-50,50S0,77.61,0,50S22.39,0,50,0"/>
	<path style="fill:#FFFFFF;" d="M50,1c27.06,0,49,21.94,49,49S77.06,99,50,99S1,77.06,1,50S22.94,1,50,1"/>
	<g>
		<path style="fill:#00539F;" d="M42.31,30.22C34.16,39.42,26,49.37,18.1,58.78c-0.45,0.55-0.7,1.25-1.05,1.85
			c-1.25,3.15-0.3,6.9,2.15,9c4.55,0.1,8.95,0.2,13.71,0c-0.05-0.4-0.4-0.65-0.6-1c-1.65-2.45-1.65-6.05-0.1-8.5
			c8-9.9,16.26-19.56,24.66-29.46c0.1-0.1,0.25-0.35,0-0.45c-2.1,0.05-4.2,0-6.3-0.05c-1.6,0-3.15-0.05-4.65-0.05
			C44.71,30.12,43.51,30.12,42.31,30.22"/>
		<path style="fill:#00A0E0;" d="M51.17,38.97l-0.05,0.5l10.76,13.11c2.1,2.7,4.5,5.15,6.35,8c1.35,2.85,0.85,6.65-1.15,9.1
			l0.05,0.2h13.36c0.85-0.15,1.3-1.05,1.9-1.7c1.45-2.6,1.55-6.2-0.05-8.7c-7.8-9.6-15.76-19.36-23.66-28.86l-0.35-0.05L51.17,38.97
			"/>
		<path style="fill:#00539F;" d="M46.16,48.87c-2.05,4.8,2,8.35,3.85,12.26c1.15-2.5,3.55-4.65,4.25-7.45
			c1.45-4.25-2-7.65-4.1-10.96C48.76,44.72,47.16,46.72,46.16,48.87"/>
		<path style="fill:#00539F;" d="M37.86,56.13h-1.65l-0.15,0.1c-0.2,1.65-0.05,3.4,0.7,4.9c1.7,3.35,5.2,4.85,8.9,4.45
			c2,0.3,3.75,1.75,4.2,3.7c0.6-1.05,1.3-2.6,2.65-3.15c2.55-1.1,5.95-0.05,8.1-1.9c2.7-1.7,4.05-4.95,3.35-8
			c-0.7,0-1.45,0-2.15-0.05c-2.6-0.05-5.3-0.15-7.3,1.3c-2.25,1.3-3.7,3.5-4.5,5.85c-0.75-2.05-2-4.2-3.85-5.45
			c-1.9-1.5-4.35-1.7-6.85-1.7C38.86,56.13,38.36,56.13,37.86,56.13"/>
	</g>
</g>
</svg>
