<?xml version="1.0"?>
<svg xmlns="http://www.w3.org/2000/svg" xmlns:xlink="http://www.w3.org/1999/xlink" xmlns:svgjs="http://svgjs.com/svgjs" version="1.1" width="512" height="512" x="0" y="0" viewBox="0 0 512 512" style="enable-background:new 0 0 512 512" xml:space="preserve" class=""><g><path xmlns="http://www.w3.org/2000/svg" d="m512 256c0 141.386719-114.613281 256-256 256s-256-114.613281-256-256 114.613281-256 256-256 256 114.613281 256 256zm0 0" fill="#f1f1f1" data-original="#414952" style="" class=""/><path xmlns="http://www.w3.org/2000/svg" d="m512 256c0-8.722656-.441406-17.339844-1.292969-25.839844l-107.183593-107.179687 2.613281 33.59375-67.390625-67.390625-103.378906 136.222656-102.429688-102.429688-3.582031 26.453126-27.890625 5.023437 106.742187 106.746094-95.207031 125.457031 124.683594 124.683594c6.050781.429687 12.15625.660156 18.316406.660156 141.386719 0 256-114.613281 256-256zm0 0" fill="#f1f1f1" data-original="#333940" style="" class=""/><path xmlns="http://www.w3.org/2000/svg" d="m315.550781 415.101562c-4.128906 1.320313-8.535156 1.839844-12.992187 1.460938v.003906l-86.246094-7.3125c-13.472656-1.144531-24.84375-10.203125-28.960938-23.085937l-16.9375-52.976563 139.6875-44.65625 27.054688 84.625c3.402344 10.644532 1.277344 22.21875-5.691406 30.953125-4.175782 5.242188-9.734375 9.015625-15.914063 10.988281zm-115.125-66.441406 9.667969 30.238282c1.171875 3.664062 4.402344 6.242187 8.238281 6.566406l86.242188 7.3125c4.566406.386718 7.273437-2.347656 8.226562-3.542969.949219-1.195313 3.011719-4.441406 1.617188-8.804687l-19.785157-61.886719zm0 0" fill="#87c7ff" data-original="#87c7ff" style=""/><path xmlns="http://www.w3.org/2000/svg" d="m337.15625 373.160156-27.050781-84.625-54.460938 17.410156v25.0625l38.988281-12.464843 19.785157 61.886719c1.394531 4.363281-.667969 7.609374-1.617188 8.804687-.953125 1.195313-3.660156 3.925781-8.226562 3.542969l-48.929688-4.148438v23.957032l46.914063 3.976562c4.460937.378906 8.867187-.140625 12.992187-1.460938 6.183594-1.972656 11.742188-5.746093 15.917969-10.988281 6.964844-8.738281 9.089844-20.308593 5.6875-30.953125zm0 0" fill="#65b1fc" data-original="#65b1fc" style="" class=""/><path xmlns="http://www.w3.org/2000/svg" d="m125.75 147.265625 7.1875-24.285156 7.191406 24.285156 24.285156 7.1875-24.285156 7.191406-7.191406 24.285157-7.1875-24.285157-24.285156-7.191406zm0 0" fill="#ffffff" data-original="#ffffff" style=""/><path xmlns="http://www.w3.org/2000/svg" d="m396.335938 147.265625 7.1875-24.285156 7.191406 24.285156 24.285156 7.1875-24.285156 7.191406-7.191406 24.285157-7.1875-24.285157-24.285157-7.191406zm0 0" fill="#f2f6fc" data-original="#f2f6fc" style=""/><path xmlns="http://www.w3.org/2000/svg" d="m431.40625 268.144531 3.59375-12.144531 3.59375 12.144531 12.144531 3.59375-12.144531 3.59375-3.59375 12.144531-3.59375-12.144531-12.144531-3.59375zm0 0" fill="#f2f6fc" data-original="#f2f6fc" style=""/><path xmlns="http://www.w3.org/2000/svg" d="m381.105469 358.382812-223.300781-.222656-37.054688-115.902344 181.761719-129.71875zm0 0" fill="#fe6a16" data-original="#fe6a16" style="" class=""/><path xmlns="http://www.w3.org/2000/svg" d="m302.511719 112.539062-46.867188 33.449219v212.269531l125.460938.125zm0 0" fill="#f24500" data-original="#f24500" style=""/><path xmlns="http://www.w3.org/2000/svg" d="m407.289062 374.335938-1.746093.558593c-13.355469 4.269531-27.644531-3.09375-31.914063-16.449219l-77.242187-241.617187c-4.269531-13.355469 3.09375-27.644531 16.453125-31.914063l1.746094-.558593c13.355468-4.269531 27.644531 3.09375 31.914062 16.449219l77.242188 241.617187c4.269531 13.355469-3.09375 27.644531-16.453126 31.914063zm0 0" fill="#fdba12" data-original="#fdba12" style=""/><path xmlns="http://www.w3.org/2000/svg" d="m140.664062 393.5625c-14.257812 4.554688-29.511718-3.304688-34.070312-17.566406l-37.902344-118.5625c-4.558594-14.257813 3.304688-29.511719 17.5625-34.070313 14.257813-4.558593 29.511719 3.304688 34.070313 17.5625l37.902343 118.5625c4.558594 14.261719-3.300781 29.515625-17.5625 34.074219zm0 0" fill="#ffd400" data-original="#ffd400" style="" class=""/></g></svg>
