<?xml version="1.0"?>
<svg xmlns="http://www.w3.org/2000/svg" xmlns:xlink="http://www.w3.org/1999/xlink" xmlns:svgjs="http://svgjs.com/svgjs" version="1.1" width="512" height="512" x="0" y="0" viewBox="0 0 512 512" style="enable-background:new 0 0 512 512" xml:space="preserve" class=""><g><g xmlns="http://www.w3.org/2000/svg"><g><g><g><g><g><circle cx="256" cy="256" fill="#f1f1f1" r="256" data-original="#ffce00" style="" class=""/></g></g></g></g></g><path d="m511.214 276.206-60.029-60.03-382.917 99.732-12.048 52.007 3.405 3.637 132.697 132.465c20.359 5.212 41.695 7.983 63.678 7.983 134.584 0 244.912-103.855 255.214-235.794z" fill="#f1f1f1" data-original="#ffa300" style="" class=""/><g><path d="m344.374 133.045-42.361-31.276-31.489 124.454 73.85-56.689z" fill="#65b1fc" data-original="#65b1fc" style=""/></g><g><path d="m300.629 289.897h30v74.653h-30z" fill="#555a66" data-original="#555a66" style=""/></g><g><path d="m357.677 379.55h-93.584v-30h93.584c22.182 0 42.871-11.944 53.995-31.172l25.967 15.022c-16.468 28.466-47.108 46.15-79.962 46.15z" fill="#414952" data-original="#414952" style="" class=""/></g><g><path d="m60 226.223v83.874l199.008 3.965v-87.839z" fill="#4a7aff" data-original="#4a7aff" style=""/></g><g><path d="m344.374 133.045-73.85 93.178h-14.524v87.779l95.674 1.906 99.511-49.525v-25.175l-13.712-35.704z" fill="#0053bf" data-original="#0053bf" style=""/></g><g><path d="m303.366 184.785-243.366 7.915v33.523h210.524z" fill="#65b1fc" data-original="#65b1fc" style=""/></g><g><path d="m303.366 184.785-47.366 1.54v39.898h14.524z" fill="#4a7aff" data-original="#4a7aff" style=""/></g><g><path d="m197.017 384.787h-104.519c-26.205 0-47.524-21.32-47.524-47.525s21.319-47.524 47.524-47.524h104.519c26.205 0 47.525 21.319 47.525 47.524s-21.32 47.525-47.525 47.525zm-104.519-65.05c-9.663 0-17.524 7.861-17.524 17.524s7.861 17.525 17.524 17.525h104.519c9.663 0 17.525-7.862 17.525-17.525s-7.862-17.524-17.525-17.524z" fill="#707789" data-original="#707789" style="" class=""/></g><g><ellipse cx="95.251" cy="337.262" fill="#555a66" rx="22.595" ry="22.595" transform="matrix(.23 -.973 .973 .23 -254.873 352.478)" data-original="#555a66" style=""/></g><g><ellipse cx="194.943" cy="337.262" fill="#555a66" rx="22.595" ry="22.595" transform="matrix(.23 -.973 .973 .23 -178.086 449.503)" data-original="#555a66" style=""/></g><g><ellipse cx="145.097" cy="337.262" fill="#555a66" rx="22.595" ry="22.595" transform="matrix(.707 -.707 .707 .707 -195.982 201.381)" data-original="#555a66" style=""/></g><g><path d="m437.473 205.504h-72.881l9.802 29.217 76.791 6.487v-25.032z" fill="#e9edf5" data-original="#e9edf5" style=""/></g></g></g></svg>
