<svg xmlns="http://www.w3.org/2000/svg" width="265.6" height="75.631"><path d="M84.031 18.296h2.622v-.835h-2.622v-1.986h2.715v-.837h-3.633v6.513h3.717v-.828h-2.799v-2.027zm7.214-.636l-.7-.42a2.687 2.687 0 0 1-.683-.54.862.862 0 0 1-.22-.548.633.633 0 0 1 .3-.541 1.214 1.214 0 0 1 .736-.213 2.106 2.106 0 0 1 1.491.675v-1.057a2.546 2.546 0 0 0-1.474-.459 1.931 1.931 0 0 0-1.361.484 1.613 1.613 0 0 0-.531 1.247 1.513 1.513 0 0 0 .279.906 3.245 3.245 0 0 0 .93.8l.7.428q.847.541.847 1.133a.768.768 0 0 1-.3.61 1.071 1.071 0 0 1-.713.244 2.148 2.148 0 0 1-1.718-.957v1.185a2.758 2.758 0 0 0 1.73.593 1.863 1.863 0 0 0 1.337-.489 1.676 1.676 0 0 0 .518-1.276 2.085 2.085 0 0 0-1.17-1.81m2.951-2.193h2.195v5.698h.924v-5.698h2.233v-.831h-5.352v.831zm10.106-.435a3.046 3.046 0 0 0-1.413-.275h-1.565V19.3h1.471a5.91 5.91 0 0 0 .779-.032 2.07 2.07 0 0 0 .458-.133 2.211 2.211 0 0 0 1.259-1.232 2.259 2.259 0 0 0 .178-.875 2.344 2.344 0 0 0-.318-1.179 2.077 2.077 0 0 0-.85-.824m-2.056.6h.579a4.386 4.386 0 0 1 .59.03 1.538 1.538 0 0 1 .369.122 1.51 1.51 0 0 1 .34.237 1.288 1.288 0 0 1 .4.984 1.4 1.4 0 0 1-.4 1.024 1.02 1.02 0 0 1-.265.207 1.487 1.487 0 0 1-.372.144 2.865 2.865 0 0 1-.652.055h-.592zm-1.021 4.912h3.775v.623h-3.775zm62.049-5.8h.89v6.324h-.89zm6.184-.08a1.784 1.784 0 0 0-1.326.55 1.907 1.907 0 0 0-.035 2.633 1.649 1.649 0 0 0 1.222.536 1.868 1.868 0 0 0 1-.266 3.588 3.588 0 0 1-.691 1.3 5.238 5.238 0 0 1-1.206 1.073l.545.656a5.284 5.284 0 0 0 1.791-1.843 4.5 4.5 0 0 0 .705-2.32 2.448 2.448 0 0 0-.563-1.666 1.8 1.8 0 0 0-1.438-.649m1.024 2.553a1.684 1.684 0 0 1-.973.33 1.016 1.016 0 0 1-.731-.293.95.95 0 0 1-.312-.715 1.013 1.013 0 0 1 .287-.739.938.938 0 0 1 .712-.3.963.963 0 0 1 .77.349 1.3 1.3 0 0 1 .3.9 3.668 3.668 0 0 1-.054.471m5.108.195a2.085 2.085 0 0 0-.986.256 3.911 3.911 0 0 1 .731-1.3 5.313 5.313 0 0 1 1.173-1.018l-.534-.693-.1.064a6.924 6.924 0 0 0-1.31 1.222 5.133 5.133 0 0 0-.8 1.411 4.306 4.306 0 0 0-.277 1.512 2.4 2.4 0 0 0 .538 1.64 1.885 1.885 0 0 0 2.742.074 1.911 1.911 0 0 0 .048-2.639 1.639 1.639 0 0 0-1.234-.529m.582 2.6a.938.938 0 0 1-.711.292.993.993 0 0 1-.782-.346 1.285 1.285 0 0 1-.3-.876 2.96 2.96 0 0 1 .032-.471 2.543 2.543 0 0 1 .508-.285 1.174 1.174 0 0 1 .452-.077 1.117 1.117 0 0 1 .783.28 1 1 0 0 1 .29.741 1.046 1.046 0 0 1-.274.742m6.148-2.177a1.66 1.66 0 0 0 .773-1.4 1.715 1.715 0 0 0-.532-1.263 1.811 1.811 0 0 0-1.32-.518 1.9 1.9 0 0 0-1.339.518 1.676 1.676 0 0 0-.545 1.263 1.577 1.577 0 0 0 .175.747 2.2 2.2 0 0 0 .565.65 1.639 1.639 0 0 0-.885 1.483 1.689 1.689 0 0 0 .579 1.292 2.015 2.015 0 0 0 1.413.524 2.042 2.042 0 0 0 1.419-.51 1.676 1.676 0 0 0 .563-1.3 1.632 1.632 0 0 0-.865-1.489m-1.8-2.052a.968.968 0 0 1 .7-.263.957.957 0 0 1 .7.27.929.929 0 0 1 0 1.344.939.939 0 0 1-.691.279 1 1 0 0 1-.7-.279.915.915 0 0 1-.288-.675.881.881 0 0 1 .279-.675m1.764 3.584a.832.832 0 0 1-.3.657 1.179 1.179 0 0 1-.77.252 1.15 1.15 0 0 1-.8-.274.932.932 0 0 1-.308-.718.946.946 0 0 1 .3-.715 1.108 1.108 0 0 1 .779-.274 1.138 1.138 0 0 1 .789.273.917.917 0 0 1 .306.71z" fill="#4d3524"/><path d="M154.187 47.468c7.464 0 13.457 6.4 13.457 13.921 0 7.658-5.993 14.059-13.457 14.059s-13.449-6.4-13.449-14.059c0-7.523 5.993-13.921 13.449-13.921m0 22.249c4.2 0 7.53-3.728 7.53-8.328 0-4.457-3.327-8.128-7.53-8.128s-7.521 3.671-7.521 8.128c0 4.6 3.327 8.328 7.521 8.328m79.435-22.249c-7.99 0-13.324 6.46-13.324 13.982 0 7.667 5.335 14 13.395 14a15.252 15.252 0 0 0 9.853-3.337 1.029 1.029 0 0 0 .13-1.729l-1.855-2.528c-.537-.669-1.005-.4-1.8.064a11.342 11.342 0 0 1-5.929 1.937 7.714 7.714 0 0 1-7.661-7.13h18.119a1.224 1.224 0 0 0 1.2-1.137 16.879 16.879 0 0 0 .133-1.8 11.991 11.991 0 0 0-12.255-12.322m.072 5.132a6.293 6.293 0 0 1 6.091 5.645H226.95a6.732 6.732 0 0 1 6.75-5.645M76.959 70.892l-1.876-2.549c-.536-.669-1.005-.4-1.807.068a12.51 12.51 0 0 1-1.191.688 4.364 4.364 0 0 1-1.562.436c-.156.013-.308.037-.459.037-1.268 0-2.137-.41-2.137-2.684V53.634h6.824a1.271 1.271 0 0 0 1.27-1.267v-3.014a1.232 1.232 0 0 0-1.27-1.276h-6.824V38.1a1.238 1.238 0 0 0-1.273-1.244h-3.748a1.31 1.31 0 0 0-1.27 1.273v9.952h-2.672a1.232 1.232 0 0 0-1.272 1.276v3.015a1.272 1.272 0 0 0 1.272 1.267h2.673v13.916c0 4.247 1.238 7.251 5.262 7.849h0c.029 0 .064.014.1.014a10.912 10.912 0 0 0 1.462.1c.026 0 .058-.006.08-.006a10.145 10.145 0 0 0 2.586-.223 13.275 13.275 0 0 0 5.7-2.666 1.033 1.033 0 0 0 .133-1.733m-60.6-39.5H1.438A1.445 1.445 0 0 0 0 32.84v40.5a1.444 1.444 0 0 0 1.438 1.44h3.8a1.475 1.475 0 0 0 1.442-1.445V59.654h9.75a14.129 14.129 0 1 0-.067-28.259m7.817 13.924a8.06 8.06 0 0 1-7.884 8.2H6.675V37.653H16.3a7.79 7.79 0 0 1 7.884 7.666m19.446 2.087c-8.03 0-13.382 6.492-13.382 14.056 0 7.7 5.352 14.059 13.449 14.059a15.375 15.375 0 0 0 9.908-3.35 1.036 1.036 0 0 0 .133-1.738l-1.879-2.543c-.531-.67-1-.4-1.807.069a11.4 11.4 0 0 1-5.958 1.94 7.759 7.759 0 0 1-7.7-7.159h18.212a1.233 1.233 0 0 0 1.205-1.14c.058-.465.133-1.34.133-1.809a12.057 12.057 0 0 0-12.319-12.385m-.057 5.158a6.323 6.323 0 0 1 6.115 5.67h-12.9a6.777 6.777 0 0 1 6.789-5.67m47.416 5.886c-2.612-1.132-4.286-1.87-4.286-3.612 0-1 .736-2.007 3.009-2.007a12.141 12.141 0 0 1 3.555.654c.155.067.3.143.446.213a11.614 11.614 0 0 1 1.2.693c.8.465 1.275.734 1.81.061l1.876-2.538a1.082 1.082 0 0 0-.114-1.788 7.053 7.053 0 0 0-.8-.59.619.619 0 0 0-.068-.052 15.007 15.007 0 0 0-7.9-2.078c-6.426 0-9.165 4.02-9.165 7.365 0 4.417 3.476 6.964 7.626 8.766 3.685 1.68 5.156 2.544 5.156 4.353 0 1.47-1.275 2.277-3.275 2.277-.135 0-.265-.006-.4-.009a10.125 10.125 0 0 1-3.959-1.06 13.179 13.179 0 0 1-1.199-.688c-.8-.472-1.273-.736-1.807-.068l-1.878 2.549a1.034 1.034 0 0 0 .138 1.733 13.275 13.275 0 0 0 5.7 2.666 10.839 10.839 0 0 0 2.8.22c.175 0 .347.01.534.01 5.95 0 9.9-3.678 9.9-7.833 0-5.02-4.018-7.1-8.9-9.237m169.59-15.758h-.859v-.442h2.182v.442h-.85v2.24h-.473zm2.4-.442h.5l.815 1.268.814-1.268h.5v2.682h-.468v-1.924l-.847 1.265h-.016l-.836-1.262v1.921h-.465zm-57.518 5.217a13.871 13.871 0 0 0-8.065 2.655v-1.1a1 1 0 0 0-1.06-.933h-4.2a1.008 1.008 0 0 0-1.066.933v24.491a.241.241 0 0 0 .01.067.324.324 0 0 0-.01.077 1.127 1.127 0 0 0 1.127 1.123.311.311 0 0 0 .075-.007.235.235 0 0 0 .067.007h3.465c.09 0 .181-.007.268-.011.046 0 .095.011.143.011a1.081 1.081 0 0 0 .728-.273.835.835 0 0 0 .3-.4 1.144 1.144 0 0 0 .1-.454.461.461 0 0 0-.006-.093.254.254 0 0 0 0-.051V57.263c.332-.94 3.2-4 7.389-4 3.468 0 5.534 2.336 5.534 6.6v13.65a1.266 1.266 0 0 0 1.265 1.267h3.8a1.307 1.307 0 0 0 1.26-1.267V60.128c0-6.932-2.994-12.66-11.117-12.66m-19.582.1a.573.573 0 0 0-.077-.01c-.088-.01-.171-.024-.253-.027a14.45 14.45 0 0 0-1.337-.066 9.568 9.568 0 0 0-6.534 2.464v-.9a1 1 0 0 0-1.054-.933h-4.146a1.13 1.13 0 0 0-1.126 1.127v24.434a1.127 1.127 0 0 0 1.126 1.123h4.015a1.114 1.114 0 0 0 .8-.338.838.838 0 0 0 .21-.3 1.108 1.108 0 0 0 .112-.481.252.252 0 0 0-.006-.067.3.3 0 0 0 .006-.077V56.591a7.024 7.024 0 0 1 5.994-3.26 6.091 6.091 0 0 1 2.266.468 1.143 1.143 0 0 0 1.6-.6v-3.926a1.651 1.651 0 0 0-1.6-1.7m78.138 0a.567.567 0 0 0-.08-.01c-.088-.01-.168-.024-.248-.027a14.66 14.66 0 0 0-1.342-.066 9.567 9.567 0 0 0-6.532 2.464v-.9a1 1 0 0 0-1.055-.933h-4.143a1.123 1.123 0 0 0-1.123 1.127v24.429a1.121 1.121 0 0 0 1.123 1.123h4.015a1.107 1.107 0 0 0 .8-.338.821.821 0 0 0 .21-.3 1.107 1.107 0 0 0 .112-.481v-.067-.077-16.926a7.029 7.029 0 0 1 6-3.26A6.073 6.073 0 0 1 264 53.8a1.142 1.142 0 0 0 1.6-.6v-3.927a1.65 1.65 0 0 0-1.594-1.7M139.08 69.453l-2.271-3.465h0a1.055 1.055 0 0 0-.271-.3 1.138 1.138 0 0 0-.678-.226 1.164 1.164 0 0 0-.662.218h0a15.752 15.752 0 0 1-9.747 3.476 14.983 14.983 0 0 1-10.929-4.682 16.207 16.207 0 0 1-.026-22.18 14.846 14.846 0 0 1 10.894-4.714 16.489 16.489 0 0 1 9.64 3.365h0a1.135 1.135 0 0 0 .675.222 1.123 1.123 0 0 0 .932-.5l.01-.014h.006v-.006l2.2-3.367.01-.014a1.146 1.146 0 0 0 .2-.648 1.114 1.114 0 0 0-.444-.895 20.971 20.971 0 0 0-13.3-4.431 22.167 22.167 0 1 0 0 44.333 21.085 21.085 0 0 0 13.521-4.695 1.067 1.067 0 0 0 .213-.23 1.135 1.135 0 0 0 .2-.643 1.1 1.1 0 0 0-.178-.611" fill="#ff681e"/><path d="M161.328,25.767c-1.284-2.787-5.2-6.959-10.13-10.121-.434-.271-.9-.543-1.4-.822a4.308,4.308,0,0,1,2.889-.387,11.621,11.621,0,0,0,3.523.143c.553-.088,1.119-.4,1.206-.792.056-.252-.185-.4-.37-.43-1.239-.213-1.782-.614-1.953-1.284a4.93,4.93,0,0,0,3.5-.115,4.029,4.029,0,0,0,1.737-2.309c.474-1.881-.092-1.863-2.306-2.346-.762-.167-1.846-.342-2.437-.486-1.528-.375-1.742-2.434-5.065-3.207A5.226,5.226,0,0,0,148,3.576a12.728,12.728,0,0,0-1.839-1.286c-1.429-.874-2.574-1.48-3.515-2.073A1.23,1.23,0,0,0,140.9.548a5.962,5.962,0,0,0-.337.8c.906.324,2.285.837,3.369,1.323a3.466,3.466,0,0,1,.946.524c-.595-.159-1.254-.3-1.913-.423-1.613-.3-3.55-.773-4.6-.912a1.253,1.253,0,0,0-1.384.856,5.408,5.408,0,0,0,.043,1.627c.191,1.966.959,3.135,2.1,3.523a7.858,7.858,0,0,0,4.849-.524c-4.509,4.632-10.289,5.431-16.653,5.047-6.55-.4-11.068-3.651-14.381-8.283-.162-.231-.372-.071-.438.223-.659,2.873,0,6.76,2.8,8.734a9.786,9.786,0,0,0,5.806,1.852,44.515,44.515,0,0,0-5.857,3.436,18.367,18.367,0,0,0-5.549,5.538c-1.831,2.925.691,3.446,2.253,2.737A32.193,32.193,0,0,1,125.25,23.4a29.276,29.276,0,0,1,18.383,5.949c2.847,2.075,4.345,4.079,6.938,7.249a2.08,2.08,0,0,0,2.132.638c.734-.184,1.39-1.061,1.1-2.851a25.579,25.579,0,0,0-5.19-11.44,35.5,35.5,0,0,1,5.721,2.724,44.359,44.359,0,0,1,4.329,3.114,2.163,2.163,0,0,0,2.295.084c.63-.412,1.131-1.458.372-3.1" fill="#4d3524"/><path d="M152.924,6.763a.771.771,0,1,1-1.413.621.771.771,0,0,1,1.413-.621" fill="#fff"/><path d="M148.886 18.779a1.516 1.516 0 1 1-1.994-.779 1.521 1.521 0 0 1 1.995.779m-.03-3.194a4.822 4.822 0 0 1-4.158 1.322 6.308 6.308 0 0 1-5.588-6.162l2.4-1.32a5.583 5.583 0 0 0 4.541 6.265 8.13 8.13 0 0 0 2.8-.106" fill="#ea5d24"/></svg>