<?xml version="1.0" encoding="utf-8"?>
<svg version="1.1" id="Layer_1" xmlns="http://www.w3.org/2000/svg" xmlns:xlink="http://www.w3.org/1999/xlink" x="0px" y="0px"
	 viewBox="0 0 1919.9 691.9" style="enable-background:new 0 0 1919.9 691.9;" xml:space="preserve">
<g>
	
		<ellipse transform="matrix(-0.5327 -0.8463 0.8463 -0.5327 2063.8867 1831.5336)" style="fill:#61AE46;" cx="1537.6" cy="346" rx="319.9" ry="404.3"/>
	<path style="fill:#231F20;" d="M302.2,497.1H184.8l-45.9-119.5H138L94.7,497.1H0l112.9-311.6h141.4c71.6,0,115.8,29.4,91.8,95.5
		c-15.7,43.1-57,79.8-112.1,88.1L302.2,497.1L302.2,497.1z M156.2,325.2h9.1c31.4,0,67-4.6,80.1-38.8c12-33.9-20.2-38.5-51.3-38.5
		H185L156.2,325.2L156.2,325.2z M413.4,497.1h-88.1l77.3-211.3h88.1L413.4,497.1L413.4,497.1z M525.8,203.7
		c-8.3,23.1-37.6,42.2-64.4,42.2c-26.5,0-42.2-19.4-33.9-42.2c8.3-22.8,37.6-42.2,64.4-42.2C518.3,161.5,534,180.9,525.8,203.7z
		 M626.7,312.3h0.9c29.4-25.7,57-33.9,91.8-33.9c67,0,79.8,35.9,61.6,88.1L733,497.1h-88.1l37.6-102.9c7.4-20.2,24-56.2-19.4-56.2
		c-35.9,0-54.2,23.1-63.3,48.8l-39.6,109.5h-88.1L549.4,285h88.1L626.7,312.3L626.7,312.3z M1070.6,475.7
		c-33.1,90.1-98.4,126-189.3,126c-57,0-124-24.8-112.1-81h98.4c0,7.4,3.7,12.8,11.1,16.5c6.6,3.7,14.8,4.6,23.1,4.6
		c47.9,0,66.1-26.5,79-60.7l3.7-10c-29.4,19.4-56.2,28.5-89.2,28.5c-72.7,0-104.6-46.8-82.7-108.3c23.1-61.6,92.9-114.9,169.1-114.9
		c29.4,0,52.5,8.3,62.4,29.4h0.9l8.3-22h88.1L1070.6,475.7L1070.6,475.7z M904.1,389.3c-10,26.5,3.7,47.9,39.6,47.9
		s64.4-20.2,73.6-47.9c9.1-25.7-3.7-47.9-39.6-47.9S913.5,363.6,904.1,389.3z"/>
	<path style="fill:#FFFFFF;" d="M1568.6,317c-17.4,45-34.8,84.7-77.3,123.2c-45.9,42.2-99.2,60.4-151.4,60.4
		c-99.5,0-143.4-66.1-108.6-164.5c36.8-100.9,130.6-167.1,231.5-167.1c64.4,0,103.8,28.5,110.3,87.2l-89,32.2
		c0-29.4-17.4-49.6-49.6-49.6c-54.2,0-100.1,50.5-117.8,98.4c-17.4,48.5-6.6,97.2,47.9,97.2c35.9,0,69-18.2,85.5-54.2H1383
		l23.1-63.3L1568.6,317L1568.6,317z M1822.4,384.8c-25.9,71.9-101.2,113.2-170.2,113.2c-68.1,0-114-40.5-88.1-112.9
		c26.5-72.7,101.2-112.9,169.9-112.9S1848.1,312.1,1822.4,384.8L1822.4,384.8z M1643.9,384.8c-10,26.5,0.9,47.9,31.4,47.9
		c31.4,0,56.2-20.2,66.1-47.9c9.1-25.7-0.9-47.9-31.4-47.9S1654.2,358.3,1643.9,384.8z"/>
</g>
</svg>
