<?xml version="1.0"?>
<svg xmlns="http://www.w3.org/2000/svg" xmlns:xlink="http://www.w3.org/1999/xlink" xmlns:svgjs="http://svgjs.com/svgjs" version="1.1" width="512" height="512" x="0" y="0" viewBox="0 0 512 512" style="enable-background:new 0 0 512 512" xml:space="preserve" class=""><g><g xmlns="http://www.w3.org/2000/svg"><g><g><g><g><g><g><circle cx="256" cy="256" fill="#f1f1f1" r="256" data-original="#1dd882" style="" class=""/></g></g></g></g></g></g><path d="m512 256c0-8.625-.427-17.149-1.26-25.554l-105.868-105.869 5.155 51.908-95.109-95.109-213.068 67.439 50.989 50.989-27.181 16.45 73.576 73.577-77.06 61.301 40.402 40.402-32.756 27.036 91.038 91.038c11.489 1.577 23.22 2.392 35.142 2.392 141.385 0 256-114.615 256-256z" fill="#f1f1f1" data-original="#06b26b" style="" class=""/><g><g><path d="m314.917 148.815h-33.673l-24.526-5.195-24.526 5.195h-47.617l-24.526-4.977-24.526 4.977h-33.673v-67.439h33.882l24.317 7.077 24.526-7.077h47.617l24.526 7.294 24.526-7.294h33.673z" fill="#ffffff" data-original="#ffffff" style="" class=""/></g><g><path d="m281.244 81.376-24.526 7.294-24.526-7.294h-23.662v67.439h23.662l24.526-5.195 24.526 5.195h33.673v-67.439z" fill="#e9edf5" data-original="#e9edf5" style="" class=""/></g><g><g><path d="m232.192 81.376h49.052v67.439h-49.052z" fill="#ff432e" data-original="#ff432e" style=""/></g><g><path d="m135.523 81.376h49.052v67.439h-49.052z" fill="#ff6c52" data-original="#ff6c52" style=""/></g></g></g><g><g><path d="m335.242 351.131h-33.674l-24.525-5.194-24.527 5.194h-47.616l-24.526-4.977-24.526 4.977h-33.673v-67.439h33.882l24.317 7.077 24.526-7.077h47.616l24.527 7.295 24.526-7.295h33.673z" fill="#707789" data-original="#707789" style="" class=""/></g><g><path d="m301.083 283.692-24.879 7.295-24.879-7.295h-22.621v67.439h22.621l24.879-5.194 24.879 5.194h34.159v-67.439z" fill="#555a66" data-original="#555a66" style="" class=""/></g><g><g><path d="m252.516 283.692h49.052v67.439h-49.052z" fill="#333940" data-original="#333940" style=""/></g><g><path d="m155.848 283.692h49.052v67.439h-49.052z" fill="#555a66" data-original="#555a66" style="" class=""/></g></g></g><g><g><path d="m362.534 283.692h-33.674l-24.526-5.194-24.526 5.194h-47.616l-24.526-4.977-24.526 4.977h-33.674v-67.439h33.883l24.317 7.078 24.526-7.078h47.616l24.526 7.295 24.526-7.295h33.674z" fill="#ffffff" data-original="#ffffff" style="" class=""/></g><g><path d="m328.62 216.253-24.7 7.295-24.701-7.295h-23.249v67.439h23.249l24.701-5.194 24.7 5.194h33.914v-67.439z" fill="#e9edf5" data-original="#e9edf5" style="" class=""/></g><g><g><path d="m279.808 216.253h49.052v67.439h-49.052z" fill="#606aea" data-original="#606aea" style=""/></g><g><path d="m183.14 216.253h49.052v67.439h-49.052z" fill="#7584f2" data-original="#7584f2" style="" class=""/></g></g></g><g><g><path d="m338.725 216.253h-33.673l-24.526-5.194-24.526 5.194h-47.616l-24.526-4.977-24.526 4.977h-33.674v-67.438h33.882l24.318 7.077 24.526-7.077h47.616l24.526 7.294 24.526-7.294h33.673z" fill="#707789" data-original="#707789" style="" class=""/></g><g><path d="m305.105 148.815-24.486 7.294-24.487-7.294h-23.938v67.438h23.938l24.487-5.194 24.486 5.194h33.621v-67.438z" fill="#555a66" data-original="#555a66" style="" class=""/></g><g><g><path d="m256 148.815h49.052v67.439h-49.052z" fill="#333940" data-original="#333940" style=""/></g><g><path d="m159.332 148.815h49.052v67.439h-49.052z" fill="#555a66" data-original="#555a66" style="" class=""/></g></g></g><g><g><path d="m342.888 418.57h-33.674l-24.526-5.195-24.526 5.195h-47.616l-24.526-4.977-24.526 4.977h-33.674v-67.439h33.883l24.317 7.077 24.526-7.077h47.616l24.526 7.294 24.526-7.294h33.674z" fill="#ffffff" data-original="#ffffff" style="" class=""/></g><g><path d="m309.229 351.131-24.516 7.294-24.515-7.294h-23.911v67.439h23.911l24.515-5.195 24.516 5.195h33.659v-67.439z" fill="#e9edf5" data-original="#e9edf5" style="" class=""/></g><g><g><path d="m260.162 351.131h49.052v67.439h-49.052z" fill="#fdba12" data-original="#fdba12" style=""/></g><g><path d="m163.494 351.131h49.052v67.439h-49.052z" fill="#ffce00" data-original="#ffce00" style=""/></g></g></g><g><path d="m404.872 240.491c-18.979-51.241-6.716-38.978-57.957-57.957 51.241-18.98 38.978-6.717 57.957-57.957 18.98 51.24 6.716 38.978 57.957 57.957-51.241 18.98-38.978 6.717-57.957 57.957z" fill="#ffffff" data-original="#ffffff" style="" class=""/></g></g></g></svg>
