<?xml version="1.0" encoding="utf-8"?>
<svg version="1.1" id="Layer_1" xmlns="http://www.w3.org/2000/svg" xmlns:xlink="http://www.w3.org/1999/xlink" x="0px" y="0px"
	width="100px" height="100px" viewBox="0 0 520.04 520.04" style="enable-background:new 0 0 520.04 520.04;" xml:space="preserve">
<g>
	<g>
		<path style="fill:#E8E8E8;" d="M260.02,0C403.6,0,520.04,116.44,520.04,260.02c0,143.58-116.44,260.02-260.02,260.02
			S0,403.6,0,260.02C0,116.44,116.44,0,260.02,0"/>
		<path style="fill:#FFFFFF;" d="M260.02,5.2c140.72,0,254.82,114.1,254.82,254.82s-114.1,254.82-254.82,254.82
			S5.2,400.74,5.2,260.02S119.3,5.2,260.02,5.2"/>
	</g>
	<g>
		<path style="fill:#401663;" d="M233.96,367.98v8.44h-10.51v22.07c0,4,1.93,4.74,5.48,4.74c2.07,0,3.55-0.44,4.29-0.59l0.74-0.3
			v8.44l-0.44,0.15c-2.96,0.74-5.48,1.04-9.18,1.04c-2.52,0-10.81-0.74-10.81-11.4v-23.99h-6.22v-0.59v-6.07v-1.93h6.22v-10.81
			l9.77-3.26v14.22h10.66L233.96,367.98z M299.56,354.21l-11.7,56.72h-9.92l-10.37-39.54l-10.51,39.54h-9.77l-12.29-56.72h10.22
			l8,38.5l9.92-38.5h9.48l9.92,38.5c0-0.44,6.96-37.17,7.26-38.5H299.56L299.56,354.21z M309.63,385.01c0.3-4,3.26-9.33,9.48-9.33
			c6.81,0,8.74,5.78,9.03,9.33H309.63z M319.55,367.24c-7.4,0-19.99,4.74-19.99,22.51c0,21.18,17.33,22.21,20.73,22.21
			c7.26,0,10.66-1.48,13.77-2.96l0.3-0.15v-9.03l-0.89,0.59c-2.37,1.48-6.81,2.96-12,2.96c-10.22,0-11.7-7.11-11.85-10.22h28.14
			v-0.44c0.89-5.92,0-14.22-5.04-19.84C329.62,369.16,325.03,367.24,319.55,367.24 M374.05,399.08c0,6.37-5.78,12.88-16.73,12.88
			c-4.74,0-10.07-1.18-13.92-2.96l-0.3-0.15v-9.18l0.89,0.44c3.11,1.63,8.29,3.41,13.18,3.41c4.44,0,6.96-1.48,6.96-4.29
			c0-2.52-1.63-3.26-5.48-5.04l-1.48-0.59c-1.93-0.74-3.55-1.48-6.22-2.67c-2.52-1.18-8.59-3.7-8.59-11.55
			c0-4.15,3.26-12.14,15.85-12.14c5.18,0,10.22,1.33,12.29,2.37l0.3,0.15v9.03l-0.89-0.44c-4-1.93-7.55-2.81-11.4-2.81
			c-1.48,0-6.07,0.3-6.07,3.55c0,2.37,2.96,3.7,5.33,4.74l0.44,0.15l4.29,1.78l1.18,0.59C371.24,389.6,374.05,393.01,374.05,399.08
			 M153.4,354.21h9.48v56.72h-9.33l-25.47-39.54v39.54h-9.48v-56.72h9.48l25.18,39.84v-39.84H153.4z M390.93,376.42v22.07
			c0,4,1.93,4.74,5.48,4.74c2.07,0,3.55-0.44,4.29-0.59l0.74-0.3v8.44l-0.44,0.15c-2.96,0.74-5.33,1.04-9.03,1.04
			c-2.52,0-10.81-0.74-10.81-11.4v-23.99h-6.22v-0.59v-6.07v-1.93h6.22v-10.81l9.77-3.26v14.22h10.51v8.44h-10.51L390.93,376.42z
			 M194.86,398.49c-1.18,1.33-4.59,4.89-10.07,4.89c-4.15,0-6.81-2.37-6.81-5.92c0-3.7,3.11-5.92,8.44-5.92h8.59v6.96H194.86z
			 M187.31,367.09c-4.89,0-9.77,0.89-13.18,2.22l-0.44,0.15v8.74l0.89-0.44c2.22-1.04,7.85-2.07,11.25-2.07
			c8.59,0,8.89,3.11,9.03,7.26h-9.18c-12.14,0-17.62,7.4-17.62,14.22c0,9.63,7.85,14.51,15.55,14.51c5.33,0,8.59-1.93,11.25-4.29
			v3.41h9.63v-29.03C204.64,368.57,192.49,367.09,187.31,367.09"/>
		<path style="opacity:0.1;fill:#FFFFFF;enable-background:new    ;" d="M242.55,315.11l17.47-29.62l17.62,29.62h70.2l0,0
			l35.1-59.24l-35.1-59.09l0,0h-35.1l17.47-29.62l-35.1-59.09l0,0h-70.05l-35.1,59.09l17.62,29.62h-35.25l-35.1,59.09l0,0l0,0
			l35.1,59.24H242.55"/>
		
			<linearGradient id="SVGID_1_" gradientUnits="userSpaceOnUse" x1="268.5017" y1="311.0802" x2="321.8188" y2="280.2965" gradientTransform="matrix(1 0 0 -1 0 522)">
			<stop  offset="0" style="stop-color:#ED1B2F;stop-opacity:0.1"/>
			<stop  offset="1" style="stop-color:#ED1B2F;stop-opacity:0.6"/>
		</linearGradient>
		<path style="fill:url(#SVGID_1_);" d="M312.74,196.79l-17.62,29.47h-34.95l0,0l-17.62,29.62h70.2l35.1-59.09H312.74z"/>
		
			<linearGradient id="SVGID_2_" gradientUnits="userSpaceOnUse" x1="264.3751" y1="351.3027" x2="228.0697" y2="308.0352" gradientTransform="matrix(1 0 0 -1 0 522)">
			<stop  offset="0" style="stop-color:#ED1B2F;stop-opacity:0.1"/>
			<stop  offset="1" style="stop-color:#ED1B2F;stop-opacity:0.6"/>
		</linearGradient>
		<path style="fill:url(#SVGID_2_);" d="M207.6,196.79h34.95l17.62,29.47l0,0h34.95l-34.95-59.09h-70.2L207.6,196.79z"/>
		
			<linearGradient id="SVGID_3_" gradientUnits="userSpaceOnUse" x1="213.4143" y1="290.4972" x2="271.6783" y2="241.6058" gradientTransform="matrix(1 0 0 -1 0 522)">
			<stop  offset="0" style="stop-color:#ED1B2F;stop-opacity:0.1"/>
			<stop  offset="1" style="stop-color:#ED1B2F;stop-opacity:0.6"/>
		</linearGradient>
		<path style="fill:url(#SVGID_3_);" d="M260.02,285.49l-17.47-29.62l17.62-29.62l0,0l-17.62-29.47l-35.1,59.09l35.1,59.24
			L260.02,285.49z"/>
		<path style="fill:#ED1B2F;" d="M382.94,255.87l-35.1-59.09l-35.1,59.09h-70.2l35.1,59.24h70.2l0,0l0,0L382.94,255.87z
			 M207.45,255.87L207.45,255.87l35.1-59.09h-70.2l-35.1,59.09l0,0l0,0l35.1,59.24h70.2l0,0L207.45,255.87z M330.22,167.17
			l-35.1-59.09l0,0h-70.05l-35.1,59.09h70.2l0,0l35.1,59.09L330.22,167.17z"/>
		<path style="fill:#D71925;" d="M347.84,196.79l35.1,59.09l-35.1,59.24l-35.1-59.24L347.84,196.79z M242.55,315.11L242.55,315.11
			h-70.2l-35.1-59.24l0,0h70.2L242.55,315.11z M260.17,167.17l35.1,59.09l34.95-59.09l-35.1-59.09L260.17,167.17z"/>
	</g>
</g>
</svg>
