<?xml version="1.0" encoding="utf-8"?>
<svg version="1.1" id="Layer_1" xmlns="http://www.w3.org/2000/svg" xmlns:xlink="http://www.w3.org/1999/xlink" x="0px" y="0px"
	 viewBox="0 0 969.9 140.5" style="enable-background:new 0 0 969.9 140.5;" xml:space="preserve">
<g>
	<g>
		<path d="M154.2,93.3c7-20.2,13.7-39.5,20.4-58.8c2.7-7.7,5.3-15.4,8-23.1C185.4,3.6,188.4,1,194.7,1c6.3,0,9,2.5,11.9,10.6
			c8.8,25.3,17.5,50.6,26.3,75.9c0.6,1.7,1.3,3.4,2.3,5.8c1-2.7,1.8-4.6,2.5-6.5c8.7-25.1,17.4-50.3,26.1-75.4
			c0.3-0.8,0.6-1.6,0.9-2.3c2.6-7,8.6-10.2,14.9-8c5.8,2,8.8,8.5,6.5,15.3c-4.8,14.2-9.7,28.3-14.6,42.5
			c-8.2,23.7-16.5,47.4-24.7,71.1c-2.7,7.8-5.1,9.8-11.9,9.8c-5.8,0-9.2-2.8-11.7-9.7c-9.1-26.2-18.2-52.5-27.4-78.7
			c-0.4-1.1-0.8-2.2-1.5-4c-0.8,1.8-1.3,3-1.7,4.2c-9.2,26.4-18.4,52.8-27.6,79.1c-2.4,7-6.8,9.8-13.1,8.9c-5.3-0.8-7.7-4.3-9.4-9.1
			C130.7,96,118.7,61.6,106.7,27.3c-1.1-3.3-2.3-6.6-3.4-9.9c-2.5-7.4,0-14,6.2-16.3c6.5-2.4,12.7,1,15.4,8.6
			c9,25.7,17.9,51.5,26.9,77.3C152.4,88.8,153.2,90.6,154.2,93.3z"/>
		<path d="M584.3,70.4c0-38.8,31.2-70.4,69.5-70.1c38.3,0.2,69,31.4,69,70.1c0,39.1-30.8,70.2-69.5,70.1
			C614.9,140.4,584.3,109.2,584.3,70.4z M653.2,117.3c25.8,0,46.6-20.8,46.6-46.8c0.1-26.3-20.6-47.1-46.7-47.1
			c-25.3,0-46.1,21-46.2,46.7C606.8,96,627.7,117.3,653.2,117.3z"/>
		<path d="M504.9,70.5c0,39.1-30.8,70.1-69.5,70c-38.3-0.1-68.9-31.2-68.8-70.2c0-38.7,30.7-69.9,69.1-70
			C473.9,0.1,504.9,31.5,504.9,70.5z M482,71c0.4-26.2-20-47.3-46.2-47.6c-25.3-0.3-46.1,20.4-46.6,46.2
			c-0.4,26,20.1,47.3,45.7,47.6C460.7,117.6,481.6,97,482,71z"/>
		<path d="M864.8,23.5c0,2.7,0,4.7,0,6.6c0,32.6,0,65.3,0,97.9c0,7.3-4.9,12.5-11.5,12.4c-6.4-0.1-11.1-5-11.4-12.1
			c0-0.8,0-1.7,0-2.5c0-32-0.1-63.9-0.1-95.9c0-2,0-3.9,0-6.3c-2.3-0.1-4-0.2-5.8-0.2c-7.5,0-15,0.1-22.5-0.1
			c-7-0.2-11.8-5.2-11.7-11.7c0.1-6.3,4.9-10.9,11.6-11.2c0.8,0,1.7,0,2.5,0c24.8,0,49.6,0,74.4,0c2.6,0,5.4,0.2,7.8,1.2
			c4.7,1.8,7.3,7.1,6.4,12.3c-0.8,5.2-5,9.2-10.7,9.5c-7.1,0.3-14.3,0.1-21.5,0.2C870.2,23.5,867.8,23.5,864.8,23.5z"/>
		<path d="M22.9,69.8c0,19-0.1,38,0,56.9c0,5.3-1.8,9.5-6.7,11.8c-6.2,3-13.7-0.4-15.5-7.1c-0.6-2.4-0.7-4.9-0.7-7.4
			C0,87.9,0,51.8,0,15.7c0-1.3,0-2.7,0.1-4C0.6,5,5.4,0.2,11.6,0.3C18,0.3,22.8,5.4,22.8,12.4c0.1,16.1,0,32.3,0,48.4
			C22.9,63.8,22.9,66.8,22.9,69.8z"/>
		<path style="fill:#FFFFFF;" d="M653.2,117.3c-25.5,0-46.4-21.2-46.3-47.2c0.1-25.7,20.8-46.7,46.2-46.7
			c26.1,0,46.8,20.8,46.7,47.1C699.7,96.4,679,117.3,653.2,117.3z"/>
		<path style="fill:#FFFFFF;" d="M482,71c-0.4,26-21.3,46.6-47.1,46.3c-25.6-0.3-46.1-21.7-45.7-47.6c0.4-25.9,21.2-46.5,46.6-46.2
			C462,23.7,482.4,44.7,482,71z"/>
	</g>
	<g>
		<path d="M940.1,2.8v15.6H937V2.8h-5.6V0h14.3v2.8H940.1z"/>
		<path d="M952.2,18.4h-3.1V0h4.8l5.6,11.6L965.1,0h4.8v18.4h-3.1V4l-6.4,12.8h-1.7L952.2,4V18.4z"/>
	</g>
</g>
</svg>
