<?xml version="1.0" encoding="utf-8"?>
<svg version="1.1" id="Layer_1" xmlns="http://www.w3.org/2000/svg" xmlns:xlink="http://www.w3.org/1999/xlink" x="0px" y="0px"
	 viewBox="0 0 1920.03 574.31" style="enable-background:new 0 0 1920.03 574.31;" xml:space="preserve">
<g>
	<path d="M26.24,450.85V308.8L11,306.21c-2.96-0.46-5.72-1.79-7.93-3.81c-2.15-1.99-3.27-4.85-3.05-7.77v-18.75h26.22v-12.96
		c-0.23-9.23,1.21-18.42,4.27-27.13c2.84-7.67,7.32-14.64,13.11-20.42c5.85-5.78,12.94-10.16,20.73-12.8
		c8.71-3.08,17.9-4.58,27.13-4.42c7.69-0.02,15.35,1.11,22.71,3.35l-0.91,21.34c0.16,2.91-1.75,5.53-4.57,6.25
		c-3.29,0.84-6.67,1.25-10.06,1.22c-4.52-0.08-9.03,0.43-13.41,1.52c-3.75,1.07-7.19,3-10.06,5.64c-2.93,2.99-5.07,6.65-6.25,10.67
		c-1.52,5.3-2.24,10.8-2.13,16.31v11.58h45.73v30.48H68.77V451L26.24,450.85z"/>
	<path d="M177.9,274.35v112.18c-0.53,8.97,2.18,17.84,7.62,25c5.69,6.26,13.97,9.53,22.41,8.84c7.17,0.12,14.27-1.44,20.73-4.57
		c6.73-3.53,12.85-8.11,18.14-13.57V274.35h42.83v176.8h-25.91c-4.95,0.33-9.47-2.84-10.82-7.62l-3.05-13.87
		c-3.54,3.5-7.31,6.76-11.28,9.75c-7.88,6.04-16.98,10.31-26.67,12.5c-5.4,1.24-10.92,1.86-16.46,1.83
		c-8.73,0.15-17.4-1.51-25.45-4.88c-7.22-3.14-13.63-7.89-18.75-13.87c-5.18-6.23-9.07-13.43-11.43-21.19
		c-2.65-8.8-3.94-17.95-3.81-27.13V274.35H177.9z"/>
	<path d="M334.43,451.16v-176.8h24.84c3.22-0.34,6.46,0.47,9.15,2.29c1.97,2.33,3.19,5.2,3.51,8.23l2.59,21.49
		c5.4-9.96,12.82-18.68,21.8-25.61c8.17-6.27,18.21-9.6,28.5-9.45c7.75-0.34,15.38,1.97,21.64,6.55l-4.42,31.25
		c-0.12,1.73-0.95,3.33-2.29,4.42c-1.36,0.87-2.96,1.3-4.57,1.22c-2.38-0.06-4.75-0.47-7.01-1.22c-3.9-0.88-7.89-1.29-11.89-1.22
		c-8.21-0.22-16.24,2.42-22.71,7.47c-6.95,5.8-12.44,13.17-16,21.49v109.89H334.43z"/>
	<path d="M474.81,451.16v-176.8h25.91c5.02-0.38,9.58,2.9,10.82,7.77l2.9,14.02c3.5-3.63,7.27-6.99,11.28-10.06
		c7.96-5.76,17.05-9.76,26.67-11.74c5.41-1.13,10.93-1.69,16.46-1.68c8.78-0.17,17.5,1.5,25.61,4.88
		c7.18,3.14,13.58,7.82,18.75,13.72c5.17,6,9.15,12.94,11.74,20.42c2.65,8.8,3.94,17.95,3.81,27.13v112.33h-42.83V338.82
		c0.79-8.86-1.59-17.72-6.71-25c-5.87-6.48-14.46-9.82-23.17-8.99c-7.22-0.02-14.32,1.87-20.58,5.49
		c-6.9,4.04-13.08,9.19-18.29,15.24v125.59H474.81z"/>
	<path d="M721.57,223.14c0.02,3.58-0.76,7.12-2.29,10.36c-1.33,3.16-3.31,6.02-5.79,8.38c-2.54,2.42-5.48,4.38-8.69,5.79
		c-3.36,1.48-7,2.21-10.67,2.13c-3.57,0.08-7.11-0.65-10.36-2.13c-3.23-1.3-6.14-3.27-8.54-5.79c-2.49-2.37-4.46-5.22-5.79-8.38
		c-1.41-3.27-2.13-6.8-2.13-10.36c0.02-3.66,0.74-7.28,2.13-10.67c1.37-3.19,3.34-6.08,5.79-8.54c4.99-5.05,11.8-7.91,18.9-7.93
		c3.66,0,7.29,0.73,10.67,2.13c3.18,1.46,6.12,3.42,8.69,5.79c2.46,2.45,4.42,5.35,5.79,8.54
		C720.8,215.82,721.58,219.46,721.57,223.14z M715.17,274.35v176.8H672.8v-176.8H715.17z"/>
	<path d="M821.1,453.44c-13.07,0.77-25.88-3.92-35.36-12.96c-8.66-9.91-13.1-22.83-12.35-35.97v-98.46h-17.83
		c-2.2,0.03-4.33-0.79-5.94-2.29c-1.77-1.76-2.67-4.22-2.44-6.71v-16.92l28.35-4.57l8.84-48.16c0.35-2.08,1.5-3.94,3.2-5.18
		c1.79-1.37,4-2.07,6.25-1.98h22.1v55.33h45.73v30.48h-45.73v95.72c-0.25,4.68,1.21,9.28,4.12,12.96c2.8,3.08,6.82,4.75,10.97,4.57
		c2.22,0.06,4.44-0.25,6.55-0.91c1.63-0.51,3.21-1.18,4.72-1.98l3.51-1.98c0.91-0.58,1.97-0.89,3.05-0.91
		c1.09-0.04,2.16,0.28,3.05,0.91c1.05,0.78,1.93,1.77,2.59,2.9l12.8,20.73c-6.34,5.11-13.58,8.98-21.34,11.43
		C837.92,452.09,829.54,453.43,821.1,453.44z"/>
	<path d="M934.96,274.35v112.18c-0.57,8.96,2.08,17.82,7.47,25c5.69,6.26,13.97,9.53,22.41,8.84c7.15,0,14.19-1.67,20.58-4.88
		c6.75-3.56,12.92-8.14,18.29-13.57V274.35h42.37v176.8h-25.91c-4.95,0.33-9.47-2.84-10.82-7.62l-3.35-13.87
		c-3.59,3.5-7.41,6.76-11.43,9.75c-3.83,3.05-8.03,5.62-12.5,7.62c-4.51,2.19-9.27,3.83-14.17,4.88c-5.4,1.25-10.92,1.87-16.46,1.83
		c-8.73,0.15-17.4-1.51-25.45-4.88c-7.2-3.18-13.6-7.92-18.75-13.87c-5.2-6.19-9.04-13.41-11.28-21.19
		c-2.7-8.79-4.04-17.94-3.96-27.13V274.35H934.96z"/>
	<path d="M1091.34,451.16v-176.8h25c3.17-0.32,6.36,0.49,8.99,2.29c2.06,2.27,3.29,5.17,3.51,8.23l2.59,21.49
		c5.45-10.1,12.99-18.93,22.1-25.91c8.17-6.27,18.21-9.6,28.5-9.45c7.75-0.34,15.38,1.97,21.64,6.55l-5.49,31.25
		c-0.13,1.69-0.89,3.27-2.13,4.42c-1.43,0.85-3.07,1.27-4.72,1.22c-2.38-0.07-4.74-0.48-7.01-1.22c-3.9-0.88-7.89-1.29-11.89-1.22
		c-8.21-0.22-16.24,2.42-22.71,7.47c-6.72,5.84-11.95,13.21-15.24,21.49v110.2H1091.34z"/>
	<path d="M1304.57,271.91c10.4-0.07,20.73,1.73,30.48,5.33c9.04,3.27,17.26,8.47,24.08,15.24c6.82,7.2,12.01,15.77,15.24,25.15
		c3.96,10.89,5.87,22.41,5.64,33.99c0.18,2.69,0.18,5.39,0,8.08c-0.09,1.78-0.62,3.5-1.52,5.03c-0.69,1.13-1.7,2.03-2.9,2.59
		c-1.57,0.52-3.22,0.77-4.88,0.76h-108.67c0.13,14.66,5.54,28.78,15.24,39.78c9.03,8.64,21.2,13.21,33.68,12.65
		c6.04,0.14,12.06-0.68,17.83-2.44c4.45-1.38,8.78-3.11,12.96-5.18l9.91-5.33c2.41-1.56,5.21-2.4,8.08-2.44
		c1.59-0.05,3.17,0.32,4.57,1.07c1.27,0.71,2.37,1.7,3.2,2.9l12.35,15.24c-4.4,5.24-9.53,9.81-15.24,13.57
		c-5.75,3.62-11.88,6.58-18.29,8.84c-6.29,2.13-12.77,3.66-19.36,4.57c-6.36,0.9-12.78,1.36-19.2,1.37
		c-11.66,0.13-23.24-1.94-34.14-6.1c-10.33-3.96-19.68-10.1-27.44-17.99c-8.26-8.73-14.55-19.12-18.44-30.48
		c-5.04-12.42-7.88-25.62-8.38-39.02c-0.05-11.58,1.91-23.08,5.79-33.99c3.7-10.22,9.4-19.6,16.77-27.59
		c7.47-8.05,16.56-14.44,26.67-18.75C1279.97,273.98,1292.23,271.64,1304.57,271.91z M1304.57,302.4
		c-10.69-0.62-21.16,3.19-28.96,10.52c-7.69,8.41-12.41,19.13-13.41,30.48h79.71c-0.01-5.16-0.78-10.3-2.29-15.24
		c-1.35-4.7-3.69-9.07-6.86-12.8c-3.2-3.75-7.21-6.73-11.74-8.69c-4.87-2.52-10.22-3.97-15.7-4.27H1304.57z"/>
	<polygon style="fill:#4D9C97;" points="1463.39,491.85 1491.43,574.31 1734.08,491.85 	"/>
	<polygon style="fill:#4D9C97;" points="1439.15,241.28 1482.59,209.57 1482.59,147.84 1528.16,147.84 1528.16,176.19 1635.16,97.7 
		1826.6,241.28 1826.6,460.45 1920.03,428.75 1774.47,0 1345.72,145.71 1439.15,420.82 	"/>
	<path style="fill:#4D9C97;" d="M1656.5,179.55c-9.6,0-17.99,10.21-21.95,18.44c-4.12-8.23-12.35-18.44-21.95-18.44
		c-13.89,0.25-24.94,11.71-24.69,25.6c0,0,0,0.01,0,0.01c0,24.69,46.64,64.32,46.64,64.32s46.49-39.63,46.49-64.32
		c0.34-13.8-10.57-25.26-24.38-25.6C1656.61,179.55,1656.55,179.55,1656.5,179.55z"/>
	<path d="M1498.29,450.55v-96.18h-34.14v-23.32h3.05c9.87,0.7,19.74-1.52,28.35-6.4c6.5-4.81,10.43-12.34,10.67-20.42h29.11v146.32
		H1498.29z"/>
	<path d="M1559.71,450.55c0.63-10.64,3.49-21.02,8.38-30.48c5.75-9.81,13.36-18.41,22.41-25.3c3.2-2.59,8.08-5.94,15.24-10.36
		c7.16-4.42,11.13-7.62,14.02-9.91c4.36-3.49,8.07-7.72,10.97-12.5c2.35-3.86,3.61-8.28,3.66-12.8c0.39-5.49-1.29-10.93-4.72-15.24
		c-7.49-7.75-19.84-7.96-27.59-0.47c-0.6,0.58-1.16,1.19-1.68,1.84c-3.78,6.17-5.54,13.36-5.03,20.58h-34.29
		c-0.55-15.01,4.94-29.61,15.24-40.54c10.39-10.38,24.66-15.91,39.32-15.24c14.33-0.71,28.42,3.96,39.48,13.11
		c10.01,8.47,15.61,21.04,15.24,34.14c0.06,7.43-1.55,14.77-4.72,21.49c-3.85,7.6-9.01,14.46-15.24,20.27
		c-6.35,5.47-13.02,10.56-19.97,15.24c-7.39,4.66-14.15,10.24-20.12,16.61h59.44v29.57L1559.71,450.55z"/>
	<path d="M1684.54,404.52h35.21c-0.27,5.93,1.69,11.75,5.49,16.31c8.68,7.76,21.8,7.76,30.48,0c3.7-3.64,5.69-8.68,5.49-13.87
		c0.46-5.85-1.99-11.55-6.55-15.24c-5.95-3.77-12.94-5.53-19.97-5.03h-3.2v-24.23h2.59c6.38,0.41,12.72-1.19,18.14-4.57
		c4.23-3.31,6.52-8.52,6.1-13.87c0.24-4.57-1.41-9.04-4.57-12.35c-3.25-3.15-7.67-4.81-12.19-4.57c-5.23-0.33-10.39,1.42-14.33,4.88
		c-3.59,4.27-5.58,9.66-5.64,15.24h-33.99c-0.19-13.24,5.37-25.92,15.24-34.75c22.86-15.56,52.75-16.15,76.21-1.52
		c13.85,11.24,17.87,30.68,9.6,46.49c-3.46,5.6-8.09,10.38-13.57,14.02c6.89,2.7,12.76,7.5,16.77,13.72
		c3.84,6.61,5.79,14.15,5.64,21.8c0.61,13.41-5.02,26.35-15.24,35.06c-12.23,9.13-27.29,13.67-42.52,12.8
		c-14.5,0.89-28.79-3.8-39.93-13.11C1689.53,432.12,1683.96,418.54,1684.54,404.52z"/>
</g>
</svg>
