<?xml version="1.0" encoding="utf-8"?>
<svg version="1.1" id="Layer_1" xmlns="http://www.w3.org/2000/svg" xmlns:xlink="http://www.w3.org/1999/xlink" x="0px" y="0px"
	width="100px" height="100px" viewBox="0 0 100 100" style="enable-background:new 0 0 100 100;" xml:space="preserve">
<g>
	<path style="fill:#E8E8E8;" d="M50,0c27.61,0,50,22.39,50,50s-22.39,50-50,50S0,77.61,0,50S22.39,0,50,0"/>
	<path style="fill:#FFFFFF;" d="M50,1c27.06,0,49,21.94,49,49S77.06,99,50,99S1,77.06,1,50S22.94,1,50,1"/>
	<g>
		<path style="fill:#333373;" d="M38.59,41.02c-0.03,0.03-0.04,0.19-0.04,0.55s0.01,0.52,0.04,0.55c0.08,0.08,1.03,0.05,1.09-0.03
			c0.06-0.09,0.07-0.9,0.01-1.03l-0.04-0.08h-0.51C38.79,40.98,38.62,41,38.59,41.02L38.59,41.02z M13.81,41.08
			c-0.07,0.04-0.09,7-0.02,7.06c0.05,0.05,5.15,0.05,5.21,0c0.07-0.07,0.05-0.93-0.02-0.99c-0.05-0.05-0.23-0.05-1.97-0.05
			c-1.45,0-1.92-0.01-1.95-0.04c-0.05-0.05-0.05-1.86-0.01-1.98L15.08,45l1.76,0c0.97,0,1.78-0.01,1.79-0.02
			c0.04-0.03,0.04-0.92-0.01-0.97c-0.03-0.03-0.47-0.04-1.8-0.04h-1.77l-0.02-0.07c-0.04-0.14-0.02-1.71,0.02-1.75
			c0.03-0.03,0.5-0.04,1.92-0.04s1.9-0.01,1.92-0.04c0.07-0.07,0.05-0.97-0.02-1.01C18.8,41.03,13.89,41.04,13.81,41.08L13.81,41.08
			z M19.62,41.08c-0.08,0.05-0.08,7.05-0.01,7.08c0.1,0.04,1.05,0.02,1.09-0.02c0.05-0.05,0.05-7.01,0-7.06
			C20.65,41.04,19.7,41.03,19.62,41.08L19.62,41.08z M50.7,41.08c-0.04,0.04-0.05,6.99-0.01,7.06c0.02,0.03,0.15,0.04,0.56,0.03
			l0.54-0.01l0.01-3.52c0.01-2.57,0-3.53-0.03-3.56C51.72,41.03,50.76,41.03,50.7,41.08L50.7,41.08z M32.36,41.5
			c-0.01,0.03-0.02,0.37-0.02,0.76c-0.01,0.83,0.03,0.76-0.46,0.76c-0.44,0-0.43-0.01-0.43,0.4c0,0.45,0,0.45,0.41,0.44
			c0.26-0.01,0.35,0,0.4,0.04l0.07,0.05l0.01,1.78c0.01,1.77,0.01,1.78,0.08,1.92c0.21,0.43,0.58,0.59,1.42,0.59
			c0.7,0,0.69,0.01,0.69-0.5c0-0.47,0.01-0.46-0.42-0.46c-0.36,0-0.48-0.04-0.57-0.21c-0.05-0.1-0.1-3.09-0.05-3.18
			c0.02-0.04,0.12-0.04,0.48-0.04c0.58,0,0.56,0.02,0.56-0.43c0-0.42,0.02-0.41-0.5-0.41c-0.6,0-0.55,0.07-0.55-0.76
			c0-0.42-0.01-0.72-0.03-0.76C33.41,41.42,32.38,41.41,32.36,41.5L32.36,41.5z M23.24,42.89c-1.68,0.3-2.57,2.17-1.9,3.98
			c0.36,0.97,1.64,1.67,2.7,1.47c0.08-0.02,0.24-0.04,0.35-0.07c0.7-0.13,1.29-0.66,1.6-1.42c0.12-0.29,0.09-0.3-0.54-0.31
			c-0.5,0-0.49-0.01-0.65,0.32c-0.49,1-2.04,0.81-2.39-0.28c-0.09-0.29-0.14-0.62-0.1-0.67c0.02-0.02,0.58-0.04,1.87-0.04
			c2.11-0.01,1.96,0.01,1.96-0.22C26.14,43.84,24.84,42.6,23.24,42.89z M28.53,42.9c-0.82,0.17-1.38,0.6-1.72,1.32
			c-0.07,0.14-0.12,0.28-0.12,0.31c0,0.03-0.02,0.08-0.04,0.12c-0.02,0.04-0.06,0.24-0.09,0.45c-0.28,1.9,0.76,3.21,2.54,3.21
			c0.42,0,1.03-0.12,1.09-0.22c0.01-0.02,0.04-0.03,0.06-0.03c0.13,0,0.61-0.4,0.79-0.67c0.3-0.44,0.51-1.15,0.34-1.16
			c-0.37-0.01-1.01,0.01-1.04,0.03c-0.02,0.02-0.05,0.09-0.06,0.16c-0.13,0.78-1.03,1.2-1.79,0.82c-1.06-0.52-1.04-2.89,0.03-3.36
			c0.77-0.34,1.43-0.07,1.72,0.71c0.07,0.18,0.04,0.17,0.55,0.18c0.67,0.01,0.66,0.02,0.6-0.32C31.18,43.3,29.91,42.61,28.53,42.9z
			 M41.95,42.9c-0.75,0.16-1.41,0.66-1.68,1.29l-0.11,0.24c-0.25,0.58-0.24,1.81,0.02,2.42c0.46,1.07,1.57,1.63,2.85,1.42
			c0.86-0.14,1.61-0.78,1.78-1.53c0.01-0.05,0.04-0.15,0.06-0.22c0.05-0.15,0.03-0.28-0.05-0.28c-0.33,0-0.66,0-0.98,0
			c-0.05,0-0.13,0.16-0.13,0.24c0,0.25-0.31,0.63-0.64,0.79c-0.69,0.34-1.46,0.01-1.77-0.76l-0.1-0.26l0-0.63
			c0-1.29,0.6-2.02,1.56-1.85c0.49,0.08,0.96,0.53,0.96,0.92c0,0.1,1,0.15,1.13,0.06c0.15-0.11-0.17-0.91-0.51-1.25
			C43.8,42.94,42.86,42.71,41.95,42.9L41.95,42.9z M46.88,42.9c-0.88,0.15-1.35,0.54-1.58,1.3c-0.12,0.4-0.12,0.4,0.5,0.4h0.5
			l0.06-0.17c0.04-0.09,0.06-0.18,0.06-0.2c0-0.27,0.49-0.52,1.02-0.52c0.73,0,1.05,0.21,1.08,0.71c0.03,0.49-0.13,0.59-1.14,0.71
			c-1.48,0.17-1.95,0.37-2.25,0.99l-0.11,0.23v0.42c0,0.42,0.04,0.64,0.16,0.77c0.02,0.03,0.04,0.06,0.04,0.08
			c0,0.08,0.37,0.4,0.59,0.51c0.7,0.34,1.97,0.21,2.61-0.28c0.13-0.1,0.15-0.09,0.21,0.05c0.14,0.31,0.39,0.42,0.9,0.39
			c0.67-0.04,0.67-0.04,0.67-0.48c0-0.36-0.02-0.39-0.25-0.41c-0.3-0.02-0.3,0.04-0.28-1.78c0.02-1.69,0.01-1.75-0.2-2.06
			C49.1,43.01,47.95,42.71,46.88,42.9L46.88,42.9z M37.43,42.94c-0.4,0.08-0.82,0.38-1.07,0.76c-0.15,0.23-0.17,0.2-0.18-0.28
			l-0.02-0.41h-1.05v5.16l0.52,0.01c0.36,0.01,0.53,0,0.56-0.03c0.03-0.03,0.04-0.23,0.04-1.07c0-1.27,0.04-1.85,0.13-2.13
			c0.21-0.63,0.82-1.02,1.5-0.95c0.13,0.01,0.21,0.01,0.24-0.02c0.06-0.05,0.06-0.98,0.01-1.04C38.07,42.89,37.66,42.89,37.43,42.94
			L37.43,42.94z M38.59,43.03c-0.03,0.03-0.03,0.73-0.03,2.59l0.01,2.54l0.54,0.01c0.37,0.01,0.55,0,0.58-0.03
			c0.05-0.04,0.06-4.99,0.01-5.09C39.66,42.97,38.65,42.96,38.59,43.03z M24.01,43.79c0.45,0.14,0.7,0.41,0.86,0.91
			c0.08,0.26,0.08,0.37-0.01,0.4c-0.14,0.04-2.49,0.02-2.51-0.02c-0.04-0.06-0.01-0.28,0.05-0.42c0.03-0.07,0.06-0.15,0.06-0.16
			c0-0.05,0.24-0.38,0.34-0.48C23.1,43.75,23.58,43.66,24.01,43.79L24.01,43.79z M48.5,45.69c0.06,0.07,0.02,0.84-0.05,1.05
			c-0.17,0.51-0.59,0.76-1.29,0.76c-0.63,0-0.97-0.3-0.95-0.82c0.03-0.52,0.31-0.7,1.24-0.82c0.48-0.06,0.79-0.12,0.87-0.17
			C48.45,45.64,48.46,45.64,48.5,45.69z M54.1,50.25c-0.06,0.04-0.03,2.32,0.04,2.81c0.11,0.77,0.35,1.77,0.53,2.19
			c0.26,0.62,0.77,1.41,0.94,1.47c0.03,0.01,0.26-0.1,0.57-0.29c0.29-0.17,0.54-0.31,0.57-0.32c0.03-0.01,0.1-0.06,0.17-0.1
			c0.07-0.04,0.14-0.09,0.17-0.1s0.35-0.19,0.71-0.41c0.37-0.21,0.73-0.42,0.8-0.46c0.08-0.04,0.19-0.1,0.25-0.14
			c0.06-0.04,0.17-0.1,0.25-0.14c0.8-0.45,0.79-0.43,0.6-0.64c-0.15-0.16-0.29-0.34-0.29-0.38c0-0.01-0.02-0.04-0.04-0.07
			c-0.05-0.05-0.14-0.35-0.2-0.61c-0.07-0.32-0.09-0.73-0.09-1.75c0-0.57-0.01-1.06-0.02-1.07C59.02,50.21,54.16,50.21,54.1,50.25
			L54.1,50.25z M63.68,50.36c-0.01,0.03-0.02,0.42-0.02,0.87c0,0.94-0.01,0.92,0.27,0.76c0.1-0.05,0.33-0.17,0.51-0.27l1.34-0.7
			l0.78-0.4c0.32-0.17,0.41-0.23,0.39-0.26C66.91,50.28,63.71,50.29,63.68,50.36L63.68,50.36z M20.79,51.33
			c-0.07,0.04-0.08,1.01-0.02,1.07c0.06,0.06,1.09,0.05,1.12-0.01c0.04-0.1,0.02-1.02-0.02-1.06
			C21.83,51.29,20.87,51.29,20.79,51.33L20.79,51.33z M13.98,51.4c-0.06,0.06-0.05,7.05,0.01,7.08c0.29,0.11,3.98-0.01,4.1-0.14
			c0.02-0.02,0.05-0.03,0.08-0.03c0.12,0,0.52-0.25,0.83-0.51c0.45-0.39,0.84-1.07,0.97-1.71l0.06-0.31
			c0.31-1.53-0.24-3.28-1.22-3.9c-0.51-0.32-0.85-0.44-1.39-0.49C16.87,51.35,14.03,51.35,13.98,51.4z M79.24,51.58
			c-0.02,0.02-0.18,0.11-0.37,0.2c-0.19,0.09-0.38,0.2-0.43,0.23c-0.05,0.03-0.25,0.14-0.45,0.24s-0.51,0.26-0.69,0.36
			c-0.19,0.1-0.38,0.2-0.42,0.22c-0.1,0.05-0.11,0.13-0.02,0.28c0.04,0.06,0.08,0.14,0.1,0.16l0.97,1.66l1,1.71
			c0.03,0.05,0.1,0.17,0.15,0.27c0.08,0.15,0.16,0.25,0.22,0.25c0.01,0,0.03-0.62,0.04-1.38s0.03-1.6,0.03-1.86
			c0.04-2.05,0.03-2.36-0.03-2.37C79.3,51.55,79.26,51.56,79.24,51.58L79.24,51.58z M49.63,51.78c-0.01,0.01-0.02,0.34-0.02,0.72
			c0,0.88,0.04,0.8-0.39,0.8c-0.49,0-0.47-0.02-0.47,0.43c0,0.45-0.02,0.43,0.47,0.44l0.38,0.01l0.02,1.65
			c0.02,2.05,0.04,2.16,0.35,2.42c0.26,0.23,0.7,0.32,1.43,0.28c0.47-0.03,0.45,0,0.45-0.48c0-0.46,0.03-0.43-0.38-0.44
			c-0.68-0.02-0.65,0.06-0.67-1.78c-0.01-0.81,0-1.51,0.01-1.57l0.02-0.1h0.45c0.6,0,0.57,0.02,0.57-0.43
			c0-0.46,0.03-0.44-0.53-0.44c-0.58,0-0.52,0.08-0.52-0.81v-0.74h-0.57C49.91,51.76,49.65,51.77,49.63,51.78L49.63,51.78z
			 M17.2,52.49c0.74,0.16,1.19,0.55,1.48,1.3c0.13,0.33,0.18,1.19,0.11,1.7c-0.15,1-0.55,1.59-1.26,1.85
			c-0.17,0.06-2.04,0.12-2.24,0.07l-0.07-0.02v-2.41c0-1.6,0.01-2.43,0.03-2.47C15.28,52.42,16.84,52.41,17.2,52.49L17.2,52.49z
			 M24.27,53.18c-1.14,0.11-1.84,0.84-1.68,1.77c0.12,0.71,0.57,1.01,1.99,1.32c1.2,0.26,1.56,0.56,1.27,1.07
			c-0.13,0.23-0.36,0.37-0.72,0.43c-0.77,0.12-1.37-0.15-1.49-0.68c-0.06-0.27,0-0.26-1.12-0.24c-0.14,0,0.01,0.62,0.22,0.95
			c0.41,0.64,1.33,0.94,2.5,0.82c1.23-0.12,1.96-0.88,1.82-1.87c-0.11-0.81-0.49-1.05-2.28-1.47c-0.9-0.21-1.1-0.35-1.04-0.75
			c0.05-0.33,0.36-0.49,0.93-0.49c0.62,0,0.91,0.16,1.06,0.6c0.06,0.18,0.08,0.19,0.61,0.19c0.6,0,0.59,0.01,0.5-0.33
			C26.59,53.49,25.72,53.05,24.27,53.18L24.27,53.18z M29.69,53.17c-0.65,0.07-1.33,0.48-1.7,1.02c-0.1,0.15-0.31,0.58-0.31,0.64
			c0,0.02-0.02,0.1-0.05,0.17c-0.07,0.19-0.15,0.91-0.12,1.1c0.01,0.08,0.03,0.26,0.05,0.39c0.08,0.73,0.57,1.48,1.15,1.79
			c1.1,0.58,2.6,0.37,3.24-0.45l0.15-0.19c0.13-0.16,0.38-0.82,0.38-1c0-0.11-0.1-0.13-0.58-0.13c-0.53,0-0.58,0.02-0.61,0.22
			c-0.01,0.07-0.03,0.15-0.04,0.16s-0.04,0.08-0.06,0.14c-0.02,0.06-0.06,0.13-0.07,0.15c-0.75,0.96-2.14,0.53-2.34-0.73
			c-0.16-1.05,0.13-1.96,0.73-2.25c0.74-0.35,1.44-0.11,1.71,0.59c0.11,0.28,0.07,0.26,0.65,0.26c0.62,0,0.61,0.01,0.54-0.3
			c-0.1-0.45-0.24-0.7-0.57-1.03c-0.19-0.18-0.26-0.23-0.58-0.38C30.91,53.2,30.23,53.12,29.69,53.17L29.69,53.17z M35.04,53.17
			c-1.44,0.1-2.34,1.16-2.33,2.76c0.01,1.71,0.98,2.72,2.62,2.72c1.75,0,2.72-1.13,2.61-3.04c-0.05-0.84-0.53-1.77-1.04-2
			c-0.04-0.02-0.07-0.04-0.07-0.05c0-0.02-0.15-0.09-0.47-0.23c-0.06-0.03-0.13-0.05-0.16-0.05c-0.02,0-0.12-0.02-0.21-0.04
			C35.81,53.19,35.31,53.15,35.04,53.17L35.04,53.17z M46.34,53.17c-0.5,0.06-0.88,0.23-1.22,0.56c-0.29,0.28-0.29,0.28-0.29-0.06
			c0-0.18-0.01-0.3-0.04-0.32c-0.06-0.06-0.96-0.05-1.01,0.01c-0.04,0.04-0.05,5.06-0.02,5.12c0.03,0.04,1.07,0.04,1.12-0.01
			c0.03-0.03,0.04-0.43,0.04-1.6c0-1.83,0.02-1.97,0.33-2.32c0.37-0.42,1.32-0.51,1.63-0.14c0.25,0.29,0.26,0.44,0.28,2.38
			c0.01,0.9,0.02,1.65,0.03,1.68c0.01,0.03,0.14,0.04,0.56,0.03l0.55-0.01v-4.05l-0.07-0.2C47.96,53.51,47.19,53.08,46.34,53.17
			L46.34,53.17z M20.79,53.36c-0.04,0.04-0.05,0.32-0.05,2.58v2.53l0.07,0.02c0.04,0.01,0.3,0.01,0.58,0.01l0.51-0.01l0.01-2.54
			c0.01-1.85,0-2.56-0.03-2.59C21.82,53.28,20.85,53.29,20.79,53.36z M38.47,53.35c-0.05,0.06-0.05,3.67,0,3.99
			c0.2,1.32,2.12,1.78,3.16,0.75c0.25-0.25,0.27-0.25,0.27,0.1c0,0.22,0.01,0.28,0.05,0.29c0.08,0.03,1.03,0.02,1.05-0.01
			c0.04-0.06,0.02-5.07-0.02-5.12c-0.03-0.03-0.15-0.04-0.56-0.04h-0.52l-0.03,0.08c-0.02,0.05-0.03,0.64-0.03,1.6
			c0,1.71-0.01,1.79-0.23,2.13c-0.42,0.64-1.52,0.75-1.83,0.19c-0.14-0.26-0.16-0.52-0.16-2.28c0-1.23-0.01-1.65-0.04-1.68
			C39.51,53.29,38.51,53.29,38.47,53.35z M74.72,53.9l-4.92,2.74c-0.05,0.04-0.05,0.12-0.05,0.99l0.01,0.94l5.2,0.02l0.02-0.07
			c0.01-0.04,0.01-1.11,0.01-2.39C74.98,53.52,75.01,53.74,74.72,53.9L74.72,53.9z M35.65,54.13c1,0.23,1.45,1.71,0.89,2.88
			c-0.45,0.94-1.86,0.99-2.38,0.1c-0.15-0.27-0.23-0.52-0.27-0.87C33.74,54.81,34.52,53.87,35.65,54.13z"/>
		<path style="fill:#EC1B31;" d="M54.12,48.14c-0.02-0.06-0.04-1.65-0.04-3.55v-3.45h4.89l0.04,0.69c0.02,0.38,0.04,1.96,0.04,3.51
			v2.82L57.5,48.2C54.87,48.27,54.17,48.26,54.12,48.14L54.12,48.14z M64.72,48.19l-1.02-0.02v-7.02l0.58-0.05
			c0.32-0.03,1.42-0.02,2.44,0l1.86,0.05l0.04,3.3c0.02,1.82,0.02,3.41,0,3.54l-0.04,0.24l-1.43-0.01
			C66.38,48.22,65.28,48.21,64.72,48.19L64.72,48.19z M70.92,48.19l-1.02-0.02v-7.03h4.91v1.24c0,1.79,0.08,4.44,0.13,4.44
			c0.02,0,1.01-1.26,2.19-2.81c1.18-1.54,2.16-2.82,2.19-2.84c0.09-0.06,5.66-0.11,5.84-0.06l0.18,0.05l-0.57,0.68
			c-0.31,0.37-1.31,1.58-2.21,2.68c-0.9,1.1-1.96,2.39-2.35,2.86l-0.71,0.86l-3.78-0.01C73.64,48.22,71.48,48.21,70.92,48.19
			L70.92,48.19z M81.39,55.52c-0.01-1.78-0.01-3.45,0.01-3.7l0.03-0.45l0.36,0.55c0.2,0.3,1.28,1.94,2.41,3.65l2.05,3.1l-0.18,0.04
			c-0.1,0.02-1.19,0.04-2.42,0.05l-2.24,0.01L81.39,55.52z M69.76,54.94c-0.01-0.37-0.01-1.02,0-1.45l0.02-0.79l0.82-0.46
			c0.45-0.26,0.96-0.54,1.14-0.64c0.18-0.1,0.78-0.43,1.33-0.73l1.01-0.56h2.21c2.2,0,2.46,0.02,2.46,0.22
			c0,0.12-0.32,0.38-0.79,0.64c-2.25,1.23-7.14,3.92-7.47,4.11C69.75,55.71,69.78,55.72,69.76,54.94L69.76,54.94z M60.93,58.98
			c-0.8-0.12-1.81-0.38-1.81-0.47c0-0.07,9.43-5.05,9.47-5.01c0.02,0.02-0.04,0.3-0.14,0.61c-0.84,2.59-3.1,4.47-5.81,4.85
			C62.17,59.02,61.28,59.04,60.93,58.98L60.93,58.98z"/>
	</g>
</g>
</svg>
