<?xml version="1.0" encoding="utf-8"?>
<svg version="1.1" id="Layer_1" xmlns="http://www.w3.org/2000/svg" xmlns:xlink="http://www.w3.org/1999/xlink" x="0px" y="0px"
	 viewBox="0 0 1920 714.1" style="enable-background:new 0 0 1920 714.1;" xml:space="preserve">
<g>
	<path style="fill:#6C0734;" d="M1515.1,459.4c-300.8,1.6-657.6,76.3-828,127.2c6.9,33.5,65.8,14.9,96.1,8.5
		c611.6-137.7,973.3-76.7,1010.5-24.2c21.4-10.5,37.9-28.3,37.9-45.6C1830.8,476,1684.6,458.6,1515.1,459.4"/>
	<path style="fill:#F9B234;" d="M733.1,416.2L733.1,416.2L733.1,416.2 M734.7,420.3c13.3,34.7,42.4,41.2,61,41.2
		c46.8,0,80.3-34.7,99.7-67.4c-6.1,36.3,4.8,48.8,20.6,48.8c11.7,0,25.4-5.7,33.9-10.9c-2.8-10.9-4-22.6-4-34.7
		c0-50.9,19-102.5,50.5-102.5c6.5,0,14.1,2.4,22.2,8.1c14.1-40.8,4.4-60.6-16.6-60.6c-17.4,0-33.9,15.7-43.2,42
		c-1.6-19-16.1-53.3-64.6-17.8c7.7,8.5,10.9,19.8,11.3,39.6c0,46.4-49.7,119.9-97.3,119.9c-23,0-27-28.7-27-51.3
		c0-42.4,19-72.3,32.3-72.3c6.1,0,10.9,6.9,10.9,17.4c0,21-15.7,37.9-31.9,46.4c0,9.3,2,21,14.1,21c25.8,0,59.7-35.5,59.7-71.5
		c0-30.3-21.8-46-48-46c-50.1,0-91.2,52.1-91.2,110.2c-3.2,23-22.6,52.1-44,67c6.5-14.5,14.9-43.6,14.9-73.5
		c0-42-15.3-75.5-43.2-75.5c-21.8,0-38.4,10.9-52.1,30.3c-8.5-17-34.7-18.2-56.1-5.7c12.9,24.2,6.1,69,1.2,104.2
		c-3.2,23-23.4,45.6-45.2,60.6c6.5-14.5,14.9-43.6,14.9-73.5c0-42-15.3-75.5-43.2-75.5c-21.8,0-38.4,10.9-52.1,30.3
		c-8.5-17-34.7-18.2-56.1-5.7c14.9,27.9,3.6,82.4-0.8,118.7c-3.2,26.2-23.4,42-33.5,42.4c-14.1,0-17.8-21.8-15.3-48
		c4-67.8,21-189.7,21-226.1c0-34.7-9.7-53.3-30.7-59.7c-17.8-5.2-38.4,6.1-45.2,11.3c8.1,6.1,11.7,27,11.7,55.3
		c0,62.6-12.1,151-20.2,213.6c-4.4,35.9-32.7,77.1-58.9,77.1c-17,0-28.3-19.8-21-81.1c4-34.7,11.3-103.8,14.5-146.9
		c4-49.3-2-97.3-62.6-97.3C50.5,221.6,0,293.9,0,350.4c0,50.1,26.2,65.8,47.6,65.8c25.4,0,44.8-22.2,46-42
		c-29.1,11.7-43.6-10.5-43.6-37.9c0-40.4,27.5-74.3,56.5-74.3c11.7,0,25.4,9.3,22.6,37.5c-4.4,46.4-14.1,140.1-19.4,191.4
		c-5.7,54.9-8.5,120.7,56.1,120.7c51.7,0,85.6-52.9,96.1-75.1c6.1,17.8,17.4,32.3,36.3,33.5c14.5,0.8,40-4.4,61-28.7
		C353.6,588.6,348,637,346,658c-4.4,42.4,5.7,56.1,22.2,56.1c11.7,0,33.1-5.2,38.4-9.7c-17.4-10.9,4-185.3,14.5-262.8l0,0
		c3.6-32.3,14.5-52.5,26.2-52.5c13.3,0,18.2,18.6,18.2,41.6c0,38.8-16.6,64.2-41.2,73.5c0,13.3,7.7,27.5,30.3,27.5
		c33.9,0,68.6-25.4,88-49.7c-6.1,52.9-13.3,111.8-15.7,135.2c-4.4,42.4,5.7,56.1,22.2,56.1c11.7,0,33.1-5.2,38.4-9.7
		c-17-10.9,4-185.3,14.5-262.8l0,0c3.6-32.3,14.5-52.5,26.2-52.5c13.3,0,18.2,18.6,18.2,41.6c0,38.8-16.6,64.2-41.2,73.5
		c0,13.3,7.7,27.5,30.3,27.5C674.6,490.1,718.6,448.5,734.7,420.3"/>
	<path style="fill:#F9B234;" d="M1920,189.7c-27.5,3.6-57.3-5.2-88.4-17c4.8-32.7,9.7-67,22.6-91.2c-3.2-4.8-10.5-9.7-22.2-9.3
		c-37.9,1.6-44.8,38.4-49.3,80.7c-34.7-13.7-69.8-25.4-104.2-24.2c-51.3,2-71.1,34.7-57.7,54.5c12.1-10.5,33.5-15.7,52.1-16.1
		c33.5-1.2,70.6,10.1,105.4,22.2c-6.9,51.3-22.6,122.3-52.1,149.4c0.4-5.2,0.4-10.9,0-16.1c-4-38.8-40.4-55.7-50.5-71.1
		c-8.1-12.1-1.6-23.8,10.5-24.2c14.9-0.4,27.5,12.1,33.5,26.2c10.5-10.5,15.3-22.2,15.3-31.1c-0.4-22.6-30.7-33.5-56.9-32.3
		c-37.9,1.6-58.5,31.1-57.3,57.7c2,46.8,50.5,62.2,58.9,84c4.8,12.5-4.4,22.2-15.7,23.4c-15.3,2-31.1-8.1-44-24.6
		c-5.7-6.9-10.9-5.7-15.3-0.4c-10.1,12.1-17.8,16.6-23,16.6c-6.1,0-10.1-5.7-10.1-14.5c0-31.5,12.9-75.5,12.9-101.7
		c0-27-12.1-35.9-27-35.9c-9.7,0-23.4,5.2-30.3,10.9c2.4,8.5,2.8,19.8,2.8,31.5c0,61.8-18.6,104.2-38.4,101.7
		c-16.6-2-8.9-37.9-2-80.7c7.7-45.6-5.2-61.4-24.2-61.4c-10.1,0-21.8,4.4-33.5,11.3c5.7,6.5,8.1,19.4,7.3,32.3
		c-1.2,20.2-17.4,45.6-27.9,45.6c-10.9,0-4.8-27-4.8-42.8c0-27.9-8.1-42-25.8-42s-33.1,16.6-41.2,33.9c-1.2-14.9-7.3-27.5-20.6-27.9
		c-17.4,0-26.6,8.1-38.8,20.2c6.5,6.1,11.3,12.5,11.3,29.9c-3.2,73.1-73.5,108.2-105.8,108.2c-51.3,0-60.6-60.6-60.6-122.7
		c0-105,63.8-210.3,115.9-210.3c24.2,0,32.3,16.6,32.3,31.5c0,49.7-46.8,73.1-81.5,71.5c16.6,25,34.7,34.3,52.5,34.3
		c41.6,0,79.5-57.3,75.5-105.4C1316.5,29.5,1291,0,1247,0c-119.9,0-192.2,158.3-192.2,262.8c0,100.1,44.8,153.4,105.8,153.4
		c42,0,86.8-19,124.3-82c-12.5,45.6,1.6,63,20.6,63c9.7,0,21.4-4,33.5-10.1c-3.6-12.5-4.8-25.8-4.8-38.8
		c0-47.6,8.9-100.5,26.6-100.5c7.7,0,3.2,21.8,3.2,39.2c0,21.8,5.7,35.1,23,35.1c12.5,0,31.9-8.9,46.8-31.9
		c-6.5,47.2-10.1,94.5,27.9,98.1c17.8,1.6,40.8-8.9,62.2-42.4c1.6,23.4,13.7,40.4,33.9,40.4c12.1,0,33.5-7.7,48.8-25.8
		c9.7,14.1,27.9,29.9,54.9,29.9c45.6,0,84.8-29.5,106.2-72.7c2.4,44.4,18.6,78.7,65.4,76.7c54.9-2,67.4-49.3,66.6-70.2
		c-0.8-21.4-11.7-42.8-31.1-45.2c8.9,53.3-8.1,86.4-28.3,87.2c-17.8,0.8-21-26.2-21.8-48.4c-1.2-33.1,3.2-73.5,8.5-111.4
		C1869.1,219.2,1903.9,223.2,1920,189.7"/>
</g>
</svg>
