<svg xmlns="http://www.w3.org/2000/svg" width="301.55" height="200"><defs><linearGradient id="A" x2="227.95" gradientUnits="userSpaceOnUse" x1="227.95" y1="200" y2="0"><stop stop-color="#2b56a8" offset="0"/><stop stop-color="#2b56a8" offset=".1"/><stop stop-color="#0db1e7" offset=".6"/></linearGradient><linearGradient id="B" x2="73.594" gradientUnits="userSpaceOnUse" x1="73.594" y1="184.22" y2="0"><stop stop-color="#2b56a8" offset="0"/><stop stop-color="#0db1e7" offset=".45"/></linearGradient></defs><path d="M0 0v172.49c0 6.48 5.25 11.727 11.727 11.727h123.73c6.477 0 11.725-5.248 11.725-11.727V0z" fill="url(#B)"/><path d="M154.36 0v174.22c0 6.475 4.589 11.725 17.564 11.725l2.035-.002c7.073.013 15.565-.753 23.286-1.36 0 0 30.085-3.44 30.085 15.421h1.243c0-18.861 30.085-15.421 30.085-15.421 7.723.607 16.215 1.374 23.288 1.36l2.033.002c12.978 0 17.566-5.25 17.566-11.725V0z" fill="url(#A)"/><g fill="#fff"><path d="M237.94 134.99h8.96c-.065-1.054-.528-1.949-1.371-2.68-.845-.771-1.88-1.158-3.071-1.158a4.35 4.35 0 0 0-2.95 1.12c-.798.706-1.322 1.612-1.567 2.718m5.182 11.338c-2.687 0-4.958-.908-6.747-2.7-1.738-1.772-2.624-4.052-2.624-6.786 0-2.581.87-4.791 2.579-6.581 1.592-1.639 3.678-2.471 6.203-2.471 2.406 0 4.452.87 6.089 2.583 1.693 1.774 2.478 4.018 2.345 6.675l-.043.854c0 .355-.202.562-.564.562h-12.438c.182 1.133.699 2.098 1.545 2.878 1.023.868 2.329 1.313 3.887 1.313a6.41 6.41 0 0 0 3.75-1.176c.317-.214.6-.191.825.023l1.819 1.864c.148.148.218.299.207.45-.007.144-.088.265-.227.371-1.891 1.417-4.112 2.14-6.606 2.14m-35.667-11.338h8.966c-.07-1.066-.522-1.945-1.369-2.68-.85-.771-1.884-1.158-3.078-1.158-1.113 0-2.1.378-2.952 1.12-.789.706-1.315 1.617-1.567 2.718m5.187 11.338c-2.687 0-4.955-.908-6.745-2.7-1.74-1.772-2.619-4.052-2.619-6.786 0-2.581.866-4.791 2.577-6.581 1.59-1.639 3.676-2.471 6.201-2.471 2.404 0 4.452.87 6.089 2.583 1.691 1.772 2.475 4.018 2.345 6.675l-.036.854c0 .355-.214.562-.576.562h-12.433a4.87 4.87 0 0 0 1.542 2.878c1.023.868 2.325 1.313 3.89 1.313 1.381 0 2.644-.398 3.744-1.176.315-.209.607-.196.823.023l1.823 1.864c.157.148.223.299.209.45-.002.144-.083.265-.225.371-1.886 1.417-4.114 2.14-6.608 2.14m-11.833-.349h-2.687c-.357 0-.576-.216-.576-.576v-9.065c0-1.689-.22-2.826-.661-3.386-.744-.947-1.747-1.414-3.042-1.414-.888 0-1.657.277-2.3.816-.27.22-.495.452-.668.69a2.96 2.96 0 0 0-.418.825c-.117.317-.193.71-.25 1.165-.047.454-.076 1.01-.076 1.655v8.715c0 .364-.207.576-.567.576h-2.689c-.364 0-.569-.211-.569-.576v-23.509c0-.364.205-.573.569-.573h2.689c.353 0 .567.216.567.573v7.206c1.108-.868 2.536-1.308 4.254-1.308 2.019 0 3.768.845 5.198 2.511 1.196 1.405 1.794 3.289 1.794 5.605v9.495c0 .36-.211.576-.569.576m66.599-30.024c-3.865 0-5.825-2.039-5.825-6.057v-8.652h-3.579c-.36 0-.569-.214-.569-.573v-2.329c0-.364.205-.573.569-.573h3.579v-5.855c0-.357.209-.569.571-.569h2.687a.52.52 0 0 1 .571.569v5.855h5.149a.52.52 0 0 1 .569.573v2.329a.52.52 0 0 1-.569.573h-5.149v8.416c0 1.974.681 2.927 2.075 2.927.857 0 1.724-.427 2.595-1.268.218-.214.504-.227.787-.016l1.688 1.65c.259.259.241.564-.043.845-1.56 1.43-3.278 2.154-5.106 2.154m-19.106 0c-3.037 0-5.182-.958-6.381-2.849-.791-1.216-1.198-2.833-1.198-4.807v-9.956c0-.364.209-.573.573-.573h2.687c.357 0 .569.209.569.573v9.142c0 1.45.099 2.464.299 3.013.472 1.25 1.587 1.862 3.404 1.862 1.803 0 2.925-.612 3.417-1.871.225-.544.335-1.554.335-3.004v-9.142a.52.52 0 0 1 .573-.573h2.689c.362 0 .567.209.567.573v9.956c0 1.972-.398 3.591-1.192 4.809-1.198 1.889-3.332 2.846-6.343 2.846m-19.082-14.941c-1.524 0-2.84.569-3.914 1.695-1.079 1.077-1.621 2.424-1.621 3.998s.542 2.918 1.621 3.991c1.097 1.102 2.408 1.664 3.914 1.664 1.5 0 2.819-.562 3.914-1.664 1.079-1.073 1.619-2.415 1.619-3.991s-.54-2.921-1.619-3.995c-1.095-1.126-2.415-1.698-3.914-1.698m0 14.94c-2.525 0-4.755-.904-6.624-2.698-1.821-1.819-2.745-4.022-2.745-6.549 0-2.559.924-4.76 2.741-6.549 1.846-1.814 4.07-2.736 6.628-2.736s4.773.922 6.59 2.736c1.844 1.763 2.781 3.964 2.781 6.549 0 2.527-.938 4.731-2.781 6.549-1.846 1.794-4.06 2.698-6.59 2.698m-23.003-3.926l1.156.117 1.306.056c1.581 0 2.932-.443 4.004-1.313 1.174-1.028 1.772-2.428 1.772-4.182 0-1.958-.56-3.445-1.648-4.418-.78-.692-1.661-1.041-2.649-1.041-1.407 0-2.73.564-3.941 1.689zm2.071 3.928c-.906 0-1.819-.043-2.718-.121l-2.64-.31c-.342-.034-.544-.238-.544-.564V91.964c0-.362.211-.571.571-.571h2.687c.357 0 .573.211.573.571V98.5c1.09-.722 2.412-1.079 3.941-1.079 1.794 0 3.48.614 5.021 1.828 2.134 1.716 3.215 4.225 3.215 7.458 0 2.95-.974 5.261-2.907 6.876-1.81 1.569-4.234 2.374-7.199 2.374m-12.764-8.462c-2.399.25-4.067.578-4.955.976-1.201.51-1.722 1.214-1.605 2.14.076.522.328.935.785 1.257.459.331 1.005.522 1.619.573 1.715.13 3.121-.331 4.157-1.335zm-4.213 8.461c-1.675 0-3.137-.526-4.362-1.563-1.201-1.07-1.812-2.451-1.812-4.108 0-2.617 1.639-4.418 4.883-5.351 1.216-.355 3.08-.668 5.513-.922.041-.848-.196-1.56-.719-2.167-.551-.639-1.347-.944-2.408-.944-1.412 0-2.869.508-4.337 1.52-.357.207-.616.128-.762-.135l-1.401-1.972c-.097-.119-.236-.405.139-.776 2.05-1.41 4.177-2.118 6.361-2.118 1.682 0 3.143.405 4.342 1.198 1.754 1.171 2.649 3.069 2.649 5.639v10.774a.52.52 0 0 1-.576.573h-2.682c-.391 0-.614-.209-.614-.573v-.191c-1.126.742-2.541 1.115-4.213 1.115m42.854-41.536h8.962c-.072-1.048-.524-1.949-1.365-2.671-.854-.773-1.886-1.165-3.073-1.165a4.37 4.37 0 0 0-2.952 1.12c-.796.706-1.324 1.617-1.572 2.716m5.185 11.341c-2.684 0-4.955-.911-6.743-2.7-1.743-1.765-2.619-4.045-2.619-6.779 0-2.579.861-4.798 2.577-6.585 1.585-1.641 3.669-2.475 6.206-2.475 2.399 0 4.443.877 6.086 2.588 1.689 1.774 2.473 4.018 2.347 6.673l-.038.854c0 .351-.216.564-.578.564h-12.438c.184 1.129.706 2.1 1.549 2.876 1.018.868 2.334 1.311 3.887 1.311 1.383 0 2.644-.393 3.746-1.171.313-.218.605-.196.821.02l1.826 1.868c.148.146.216.297.207.45-.009.139-.085.261-.227.369-1.886 1.412-4.112 2.138-6.608 2.138m-27.219-8.463c-2.401.25-4.072.58-4.955.974-1.198.517-1.725 1.221-1.61 2.145.074.526.331.94.782 1.257.461.331 1.014.524 1.628.569 1.691.128 3.107-.324 4.155-1.335zm-4.216 8.463c-1.673 0-3.136-.524-4.36-1.56-1.203-1.07-1.817-2.451-1.817-4.11 0-2.622 1.644-4.418 4.883-5.347 1.223-.357 3.078-.67 5.52-.929.031-.848-.2-1.556-.728-2.163-.546-.63-1.353-.951-2.406-.951-1.414 0-2.871.515-4.333 1.527-.366.205-.621.128-.764-.142l-1.394-1.967c-.108-.121-.241-.407.133-.778 2.048-1.412 4.177-2.118 6.358-2.118 1.691 0 3.154.405 4.339 1.203 1.761 1.167 2.655 3.067 2.655 5.634v10.779c0 .36-.214.573-.576.573h-2.68c-.398 0-.616-.209-.616-.573v-.193c-1.122.74-2.538 1.115-4.216 1.115m-13.724-.001c-2.653 0-4.913-.895-6.705-2.658-1.817-1.765-2.736-3.998-2.736-6.626 0-2.505.947-4.697 2.817-6.516 1.839-1.819 4.07-2.739 6.624-2.739 1.812 0 3.683.596 5.547 1.781.205.173.295.328.297.49.005.083-.02.211-.148.34l-1.493 2.156c-.232.268-.486.317-.751.171-1.167-.787-2.311-1.185-3.413-1.185-1.52 0-2.858.558-3.953 1.659-1.054 1.097-1.587 2.39-1.587 3.842 0 1.524.526 2.858 1.556 3.962.992 1.066 2.334 1.61 3.984 1.61 1.309 0 2.455-.306 3.406-.906a.66.66 0 0 1 .369-.126c.121 0 .295.043.432.265l1.437 2.093c.11.166.142.324.11.468-.036.135-.133.252-.295.337-1.349 1.043-3.206 1.581-5.497 1.581M222.28 48.07h8.964c-.07-1.05-.531-1.949-1.369-2.671-.85-.778-1.877-1.167-3.069-1.167-1.117 0-2.109.375-2.954 1.122-.796.704-1.317 1.617-1.572 2.716m5.185 11.336c-2.685 0-4.953-.908-6.745-2.698-1.738-1.767-2.617-4.049-2.617-6.781 0-2.583.866-4.796 2.577-6.588 1.585-1.637 3.672-2.469 6.203-2.469 2.399 0 4.45.875 6.091 2.586 1.686 1.772 2.473 4.016 2.34 6.671l-.038.857c0 .351-.211.564-.571.564h-12.44a4.86 4.86 0 0 0 1.551 2.876c1.018.863 2.325 1.306 3.885 1.306 1.381 0 2.644-.389 3.748-1.169.313-.211.605-.193.821.02l1.828 1.871c.151.148.216.301.207.445s-.09.268-.229.373c-1.889 1.416-4.114 2.136-6.61 2.136m-15.955-.233h-2.608c-.317 0-.56-.223-.71-.666l-6.217-18.362-6.169 18.362c-.16.443-.396.666-.713.666h-2.61c-.238 0-.562-.117-.764-.666l-8.51-25.373c-.072-.241-.034-.463.097-.652a.7.7 0 0 1 .573-.29h2.806c.319 0 .56.227.719.666l6.356 19.664 6.37-19.657c.191-.447.445-.672.762-.672h2.217c.308 0 .562.225.751.659l6.367 19.671 6.367-19.657c.196-.558.497-.672.722-.672h2.795c.245 0 .438.103.576.29s.178.411.106.648l-8.526 25.377c-.193.549-.519.666-.755.666m14.208 86.806h-2.685a.52.52 0 0 1-.573-.576v-16.69c0-.36.22-.569.573-.569h2.685c.357 0 .571.207.571.569v.893c1.113-1.207 2.415-1.814 3.869-1.814 1.722 0 2.469.236 3.982 1.27.11.074.254.193.279.378.031.238-.135.447-.423.787-.654.794-1.142 1.99-1.147 2.001-.135.337-.326.411-.472.411-.108 0-.214-.043-.313-.128l-.461-.382c-.097-.074-.171-.119-.214-.139-.425-.247-.83-.398-1.219-.452-.041 0-.097-.004-.155-.004-.935 0-1.729.402-2.406 1.223-.879 1.084-1.322 2.68-1.322 4.749v7.899c0 .364-.214.576-.571.576m-3.599-60.393h-2.684c-.364 0-.569-.209-.569-.573V68.319a.51.51 0 0 1 .569-.567h2.685c.364 0 .571.205.571.567v.89c1.12-1.201 2.412-1.81 3.86-1.81 1.725 0 2.473.238 3.993 1.27.108.079.256.198.277.38.036.236-.139.443-.416.787-.657.791-1.151 1.99-1.156 2.001-.13.34-.326.411-.461.411-.115 0-.227-.043-.328-.133l-.459-.38a1.1 1.1 0 0 0-.2-.139c-.429-.247-.836-.398-1.23-.452h-.146c-.942 0-1.733.398-2.41 1.225-.877 1.075-1.324 2.671-1.324 4.742v7.901c0 .364-.207.573-.571.573"/><path d="M74.061 137.68l7.118-6.201h-3.885l-4.731 4.135v-8.708h-2.613v17.499h2.613v-4.656l5.203 4.656h3.759zm-8.548-5.738c-.764-.508-1.664-.767-2.655-.767a5.38 5.38 0 0 0-2.66.684c-.438.229-.852.526-1.243.881v-1.261h-2.597v12.926h2.597v-4.883c0-1.506.076-2.543.198-3.091.216-.789.634-1.434 1.264-1.981.648-.531 1.345-.796 2.143-.796.688 0 1.221.157 1.632.486.396.315.67.789.836 1.477.067.288.148.962.148 2.599v6.19h2.592v-6.628c0-1.709-.171-2.934-.531-3.777-.373-.854-.944-1.549-1.725-2.057m-15.194 3.008c.816.823 1.205 1.819 1.205 3.055 0 .803-.18 1.529-.546 2.176-.348.632-.836 1.124-1.515 1.495a4.2 4.2 0 0 1-2.098.567c-.744 0-1.419-.184-2.062-.56-.636-.378-1.149-.913-1.527-1.583-.384-.684-.573-1.401-.573-2.136 0-.742.189-1.459.555-2.127.387-.666.899-1.194 1.533-1.558.641-.373 1.32-.551 2.08-.551 1.178 0 2.147.389 2.948 1.221m1.111-2.172a5.93 5.93 0 0 0-1.288-.92c-.863-.45-1.835-.683-2.891-.683-1.819 0-3.402.666-4.701 1.988-1.3 1.295-1.952 2.905-1.952 4.744 0 1.886.643 3.496 1.925 4.823a6.36 6.36 0 0 0 4.692 1.985c1.021 0 1.972-.227 2.831-.65.477-.238.944-.54 1.385-.906v1.246h2.579V131.48H51.43zm-16.548.185a2.21 2.21 0 0 1-.992.782c-.456.173-1.214.263-2.248.263h-.387v-4.054h1.313c.987 0 1.688.171 2.098.515.391.31.573.737.573 1.291 0 .45-.117.839-.357 1.203m-3.627 3.744h.364c1.308 0 2.219.049 2.716.171.715.169 1.248.477 1.639.92a2.22 2.22 0 0 1 .571 1.518c0 .452-.142.875-.411 1.266-.263.405-.621.69-1.068.89-.477.189-1.266.292-2.363.292h-1.448zm6.412-.976c-.304-.265-.686-.506-1.144-.715.351-.297.641-.652.868-1.016.396-.675.591-1.419.591-2.239 0-.854-.223-1.65-.677-2.358-.445-.708-1.072-1.248-1.85-1.585-.758-.335-1.792-.504-3.141-.504h-3.698v17.09h4.94c1.709 0 3.105-.488 4.142-1.47a4.87 4.87 0 0 0 1.585-3.658 4.63 4.63 0 0 0-.427-1.972c-.281-.621-.688-1.151-1.187-1.572m5.653-22.984c1.14 0 2.109.409 2.925 1.27.839.852 1.25 1.864 1.25 3.087a4.43 4.43 0 0 1-.569 2.185c-.364.666-.877 1.18-1.497 1.549-.636.36-1.342.54-2.109.54s-1.473-.18-2.098-.54c-.625-.369-1.14-.884-1.511-1.549-.382-.675-.571-1.405-.571-2.185 0-1.223.411-2.235 1.239-3.091s1.794-1.266 2.941-1.266m4.863 9.072c1.25-1.353 1.88-2.943 1.88-4.744 0-1.792-.6-3.359-1.778-4.677-1.311-1.443-2.979-2.181-4.964-2.181-1.999 0-3.667.737-4.985 2.188-1.171 1.315-1.776 2.889-1.776 4.67 0 1.799.639 3.391 1.882 4.744 1.259 1.351 2.905 2.037 4.879 2.037s3.606-.686 4.863-2.037m-14.798-6.401l5.535-9.106h-3.049l-3.809 6.223-3.867-6.223h-3.06l5.639 9.119v8.114h2.61zm78.191-.104c.274-.681.618-1.219 1.046-1.592.753-.679 1.639-1.01 2.694-1.01a4.23 4.23 0 0 1 1.828.4c.571.268 1.037.621 1.38 1.052.241.301.454.692.625 1.149zm10.45 1.839c-.016-1.745-.495-3.231-1.441-4.404-1.313-1.677-3.091-2.532-5.29-2.532-2.14 0-3.874.832-5.158 2.466-.996 1.273-1.506 2.754-1.506 4.391 0 1.731.605 3.31 1.778 4.686 1.203 1.389 2.869 2.096 4.98 2.096.935 0 1.787-.146 2.552-.432a6.52 6.52 0 0 0 2.048-1.275c.596-.555 1.138-1.288 1.581-2.17l.225-.45-2.161-1.135-.254.411c-.443.731-.845 1.264-1.203 1.578s-.803.562-1.32.762c-.526.187-1.052.292-1.608.292a3.75 3.75 0 0 1-2.824-1.183c-.672-.701-1.05-1.547-1.165-2.59h10.772zm-13.433-6.456c-.564-.322-1.106-.481-1.617-.481-.666 0-1.304.211-1.907.616-.241.144-.468.333-.715.567v-.868h-2.579v13.016h2.579v-4.569c0-2.021.088-3.37.277-4.007.22-.794.535-1.374.938-1.725.384-.348.762-.513 1.156-.513.099 0 .292.031.614.164l.405.178 1.313-2.12zm-12.066 12.85h2.563v-13.016h-2.563zm1.28-17.959a1.73 1.73 0 0 0-1.261.517c-.342.351-.522.773-.522 1.261a1.71 1.71 0 0 0 .522 1.25c.346.349.771.522 1.261.522s.913-.173 1.25-.522c.349-.342.519-.76.519-1.25s-.171-.911-.519-1.261a1.69 1.69 0 0 0-1.25-.517m-6.081 5.402c-.764-.513-1.666-.773-2.66-.773-.944 0-1.853.234-2.671.683-.468.247-.899.576-1.322.967v-5.972h-2.556v17.652h2.556v-4.91c0-1.538.065-2.599.205-3.143a3.91 3.91 0 0 1 1.291-2.032c.657-.537 1.378-.807 2.197-.807.704 0 1.248.155 1.655.501.425.324.71.832.879 1.506.067.288.148.989.148 2.653v6.232h2.552v-6.689c0-1.727-.173-2.975-.533-3.802a4.55 4.55 0 0 0-1.74-2.066m-15.297 1.681c.643 0 1.338.364 2.06 1.061l.369.349 1.695-1.745-.371-.349c-1.214-1.171-2.439-1.769-3.683-1.769-1.068 0-1.979.353-2.705 1.055-.717.697-1.075 1.576-1.075 2.631 0 .809.216 1.533.675 2.161.436.607 1.221 1.216 2.379 1.805 1.178.607 1.63.971 1.787 1.158.209.263.31.535.31.852 0 .393-.153.74-.49 1.037-.331.306-.737.463-1.225.463-.733 0-1.434-.38-2.131-1.169l-.378-.425-1.628 1.846.259.335c.456.587 1.043 1.052 1.736 1.387a5.07 5.07 0 0 0 2.203.504c1.165 0 2.165-.396 2.952-1.171a3.92 3.92 0 0 0 1.18-2.867c0-.796-.229-1.533-.701-2.181-.465-.634-1.284-1.237-2.511-1.873-1.099-.569-1.527-.931-1.695-1.147-.227-.259-.331-.515-.331-.794 0-.297.112-.551.369-.782.268-.247.573-.371.951-.371m-4.646-2.14h-3.804l-4.856 4.234v-8.87h-2.57v17.652h2.57v-4.773l5.329 4.773h3.687l-7.523-6.783zm-12.852.166c-.564-.322-1.106-.481-1.614-.481-.661 0-1.313.211-1.904.6-.25.16-.486.349-.719.582v-.868h-2.586v13.016h2.586v-4.569c0-2.023.088-3.37.265-4.007.236-.794.542-1.374.956-1.725.375-.348.751-.513 1.138-.513.11 0 .308.031.623.164l.4.178 1.318-2.12zM79.939 56.32c-.776 1.416-2.385 3.067-3.276 3.067-.079 0-.153-.009-.169-.022-.317-.187-.474-.474-.789-1.021-.283-.519-.695-1.228-1.407-2.057-.904-1.358-1.835-2.066-2.514-2.568l-.463-.357.112-.373c.594-.794.947-1.803.947-2.907v-.047l.124-.375c1.563-.128 3.208-.486 4.441-.98.672-.27.825-.387 1.07-.578.155-.153.42-.369 1.502-.931.252-.117.474-.171.641-.171.573 0 .76.922.92 2.023l.112.616c-.009 1.176-.241 4.521-1.25 6.682m-8.899 6.75l-1.167.342-2.388.157c-1.068 0-2.136-.133-4.036-.506-.985-.191-2.57-.803-2.383-1.85.094-.654.728-1.268 1.394-1.893.391-.364.805-.744 1.108-1.153.785-.938 1.522-1.907 2.012-3.409h.508c.436.144.904.238 1.378.238a4.88 4.88 0 0 0 1.493-.238h.313c.277 1.153 1.126 2.716 1.947 3.899.342.492.701.895 1.025 1.255.648.746.969 1.115.888 1.657-.182.969-.816 1.174-2.093 1.502m-11.671-5.677c-.675.895-1.05 1.367-1.466 1.374-1.122-.162-2.287-1.09-3.015-2.408-1.028-2.233-1.255-5.646-1.264-6.745.119-1.761.436-2.397 1.183-2.397h.056c.8.106 1.268.369 1.803.684.411.234.866.506 1.522.706l.106.034c1.255.402 2.918.908 4.402 1.072l-.034.369c0 1.131.364 2.14.953 2.948l.079.299c-.18.133-.396.268-.636.407-.71.436-1.691 1.043-2.595 2.239l-1.095 1.419m-2.224-16.341l.304-.407c1.608-1.859 2.608-2.462 5.589-3.337.447-.115.951-.184 1.389-.184.616 0 1.086.13 1.291.36.04.047.182.198.139.589l-.151 1.632c-.061.465-.11.857-.11 1.608-.083 1.275.175 2.399.479 3.703l.07.306-.317.241c-.953.342-1.778.942-2.343 1.776l-.036.031c-.218-.115-.438-.29-.688-.504-.598-.472-1.36-1.084-2.646-1.473a17.02 17.02 0 0 0-2.093-.663c-.78-.207-1.3-.337-1.688-.731-.726-.632-.288-1.419.812-2.948m13.286 9.113a3.06 3.06 0 0 1-3.055 3.042c-1.63 0-2.963-1.369-2.963-3.042 0-1.661 1.306-2.968 2.963-2.968 1.718 0 3.055 1.306 3.055 2.968m-1.3-8.652c0-.778-.038-1.171-.106-1.635l-.16-1.655c-.034-.317.065-.463.144-.551.205-.238.717-.375 1.385-.375a6.37 6.37 0 0 1 1.455.187c3.013.872 3.995 1.473 5.585 3.292l.596.791c1.147 1.459 1.331 1.943.564 2.59-.279.225-.564.274-1.106.353a8.41 8.41 0 0 0-2.716.803c-1.311.544-2.109 1.273-2.734 1.857l-.396.349c-.677-1.07-1.769-1.821-3.037-2.12l.052-.225c.304-1.295.549-2.415.474-3.66m12.55 4.083l.951-1.488-1.725-.313c.146-1.122-.236-2.343-1.14-3.593-2.08-2.9-6.502-5.335-9.654-5.335-.713 0-1.351.128-1.889.364l-.663-1.421-1.158 1.513c-.677-.238-1.412-.387-2.179-.387-3.642 0-7.714 2.912-9.549 5.722-.816 1.259-1.12 2.395-.886 3.296-.207.079-.513.157-.627.178H52.13l1.034 1.484c-1.531 1.115-1.819 4.299-1.383 7.233.609 3.962 2.588 7.946 5.668 7.862v1.754l1.5-.407a2.17 2.17 0 0 0 .452 1.12c1.333 1.812 5.178 2.471 8.06 2.471 3.204 0 5.736-.728 6.788-1.931a2.34 2.34 0 0 0 .546-1.052l2.037.643-.187-1.931c3.123-.085 5.205-3.505 6.102-6.714.911-3.249.924-7.341-1.066-9.068M61.148 88.919c10.871.349 23.39-3.064 32.495-8.494 11.395-6.927 16.208-17.971 16.208-30.328V34.858H86.902v14.808c0 5.96-2.538 10.772-8.944 14.628-3.238 1.846-7.087 3.332-11.026 3.332-4.472 0-8.514-1.223-11.831-3.681-4.733-3.323-7.456-9.371-7.456-14.628V34.858H25.135v14.808c0 12.881 8.636 18.9 30.665 21.382 6.858.767 13.944.719 21.018-1.623 4.204-1.398 4.679-2.217 5.972-2.846 0 0 .522.353.522.531l-.346.947c-2.545 6.767-8.159 11.925-14.203 14.99-7.791 3.959-17.164 3.595-25.757 2.37h-.171c3.442 2.325 14.727 3.422 18.313 3.505"/></g></svg>