<?xml version="1.0" encoding="utf-8"?>
<svg version="1.1" id="Layer_1" xmlns="http://www.w3.org/2000/svg" xmlns:xlink="http://www.w3.org/1999/xlink" x="0px" y="0px"
	 viewBox="0 0 1245.03 156.13" style="enable-background:new 0 0 1245.03 156.13;" xml:space="preserve">
<g id="g10" transform="matrix(1.3333333,0,0,-1.3333333,0,156.12)">
	<g id="g12" transform="scale(0.1)">
		<path id="path14" style="fill:#231F20;" d="M2821.92,589.57h-202.63v387h202.63c98,0,176.06-86.37,176.06-192.67
			C2997.98,675.95,2919.92,589.57,2821.92,589.57z M2968.08,448.39l3.32,1.66c18.28,8.32,36.55,19.94,51.5,31.56
			c91.35,68.11,146.15,179.38,146.15,300.63c0,199.31-147.81,362.08-328.85,362.08h-391.99V31.5h169.42v390.31h3.32
			c0,0,91.35,0,159.45,0h1.66l1.66-1.66L3041.16,31.5h202.63L2968.08,448.39z M3727.13,189.3h-102.98v792.26h102.98
			c182.7,0,320.56-177.72,320.56-396.97C4047.69,367.01,3909.83,189.3,3727.13,189.3L3727.13,189.3z M3732.11,1142.67H3456.4V29.84
			h275.71c269.07,0,481.67,249.14,481.67,556.41C4213.78,891.87,3999.52,1142.67,3732.11,1142.67z M6419.49,589.57h-202.62v387
			h202.62c98,0,176.07-86.37,176.07-192.67C6595.56,675.95,6517.49,589.57,6419.49,589.57z M6565.66,448.39l3.32,1.66
			c18.27,8.32,36.54,19.94,51.49,31.56c91.35,68.11,146.16,179.38,146.16,300.63c0,199.31-147.82,362.08-328.87,362.08h-391.97V31.5
			h169.42v390.31h3.32c0,0,91.34,0,159.44,0h1.67l1.66-1.66L6638.75,31.5h204.29L6565.66,448.39z M5823.22,1142.67h-710.88V986.54
			h267.42V29.84h176.05v956.7h267.41L5823.22,1142.67z M835.45-0.04v1142.71H666.04V433.45L0,1165.92V29.84h169.41v697.59l6.65-6.64
			L835.45-0.04z M7537.3,169.37c-229.21,0-415.23,186.02-415.23,415.22c0,229.21,186.02,415.23,415.23,415.23
			s415.24-186.02,415.24-415.23C7952.54,357.05,7766.51,169.37,7537.3,169.37z M7537.3,1170.9
			c-322.22,0-584.64-262.43-584.64-584.65c0-322.21,262.42-584.63,584.64-584.63c322.23,0,584.65,262.42,584.65,584.63
			C8121.95,908.47,7859.53,1170.9,7537.3,1170.9z M1642.66,169.37c-229.21,0-415.23,186.02-415.23,415.22
			c0,229.21,186.02,415.23,415.23,415.23S2057.9,813.8,2057.9,584.59C2059.56,357.05,1871.87,169.37,1642.66,169.37L1642.66,169.37z
			 M1642.66,1170.9c-322.22,0-584.65-262.43-584.65-584.65c0-322.21,262.43-584.63,584.65-584.63s584.65,262.42,584.65,584.63
			C2228.97,908.47,1966.54,1170.9,1642.66,1170.9z M4967.85,323.82c-3.33,58.14-29.9,174.4-181.04,295.65l-132.88,116.27
			c-56.48,44.84-83.05,93.01-84.71,149.48c0,64.78,43.18,109.62,107.97,112.94c1.66,0,83.03,9.97,132.86-59.8l1.66-3.32
			l134.54,91.35l-1.66,3.32c-23.25,36.55-127.89,136.2-269.07,129.56c-79.73-3.32-151.14-34.88-200.97-84.71
			c-51.49-53.15-76.41-122.91-71.42-204.29c4.99-94.68,59.79-182.71,174.4-275.72l124.56-109.63
			c69.77-56.46,99.67-104.63,102.99-161.11c3.32-41.52-11.63-81.39-38.21-111.27c-23.25-26.58-49.83-38.2-86.36-41.52h-8.31
			c-104.64,0-147.82,74.75-172.74,119.59l-6.65,11.62l-144.49-69.77c13.28-36.54,91.35-220.89,320.56-220.89h3.32
			c83.04,4.98,159.45,38.2,214.26,94.67C4942.93,162.71,4972.83,240.78,4967.85,323.82L4967.85,323.82z M8839.47,488.26l498.28,676
			V28.18h-169.41v611.23l-330.53-440.16l-327.19,440.16V28.18h-169.43v1137.74L8839.47,488.26"/>
	</g>
</g>
</svg>
