<?xml version="1.0"?>
<svg xmlns="http://www.w3.org/2000/svg" xmlns:xlink="http://www.w3.org/1999/xlink" xmlns:svgjs="http://svgjs.com/svgjs" version="1.1" width="512" height="512" x="0" y="0" viewBox="0 0 512 512" style="enable-background:new 0 0 512 512" xml:space="preserve" class=""><g><g xmlns="http://www.w3.org/2000/svg"><g><g><g><g><g><g><g><g><circle cx="256" cy="256" fill="#f1f1f1" r="256" data-original="#a3d4ff" style="" class=""/></g></g></g></g></g></g></g></g><path d="m510.291 285.741-67.125-67.125-1.567.549-185.599-185.599-46.137 158.335 80.298 80.298-83.459 29.228-82.812-82.812-69.229 148.562 136.555 136.555c20.691 5.396 42.402 8.268 64.784 8.268 131.325 0 239.554-98.886 254.291-226.259z" fill="#f1f1f1" data-original="#65b1fc" style="" class=""/><g><path d="m101.631 266.519h308.738v100.658h-308.738z" fill="#d79b8c" data-original="#d79b8c" style="" class=""/></g><g><path d="m256.028 266.519h154.341v100.658h-154.341z" fill="#b46e5a" data-original="#b46e5a" style=""/></g><g><path d="m214.299 123.485h83.403v243.692h-83.403z" fill="#c38778" data-original="#c38778" style="" class=""/></g><g><path d="m256.028 123.485h41.673v243.692h-41.673z" fill="#a65d4e" data-original="#a65d4e" style="" class=""/></g><g><path d="m297.701 137.332h-83.402v-46.101l41.701-57.665 41.701 57.665z" fill="#b46e5a" data-original="#b46e5a" style=""/></g><g><path d="m297.701 91.231-41.701-57.665.028 103.766h41.673z" fill="#915041" data-original="#915041" style="" class=""/></g><g><g><path d="m54.661 246.478h83.403v120.699h-83.403z" fill="#c38778" data-original="#c38778" style="" class=""/></g><g><path d="m373.936 246.478h83.403v120.699h-83.403z" fill="#a65d4e" data-original="#a65d4e" style="" class=""/></g></g><g><g><path d="m138.064 246.478h-83.403l14.173-27.862h55.056z" fill="#b46e5a" data-original="#b46e5a" style=""/></g><g><path d="m457.339 246.478h-83.403l14.174-27.862h55.056z" fill="#915041" data-original="#915041" style="" class=""/></g></g><g><path d="m209.863 107.847h92.274v84.054h-92.274z" fill="#a65d4e" data-original="#a65d4e" style="" class=""/></g><g><path d="m256.028 107.847h46.109v84.054h-46.109z" fill="#784132" data-original="#784132" style="" class=""/></g><g><circle cx="256" cy="149.874" fill="#ffffff" r="30.299" data-original="#ffffff" style="" class=""/></g><g><path d="m286.299 149.874c0-16.724-13.55-30.283-30.27-30.298v60.596c16.72-.016 30.27-13.574 30.27-30.298z" fill="#e9edf5" data-original="#e9edf5" style="" class=""/></g><g><g><path d="m160.366 299.412h30v37.14h-30z" fill="#ffffff" data-original="#ffffff" style="" class=""/></g><g><path d="m321.634 299.412h30v37.14h-30z" fill="#e9edf5" data-original="#e9edf5" style="" class=""/></g></g><g><g><path d="m81.362 264.421h30v32.253h-30z" fill="#ffffff" data-original="#ffffff" style="" class=""/></g><g><path d="m81.362 311.335h30v32.253h-30z" fill="#ffffff" data-original="#ffffff" style="" class=""/></g></g><g><g><g><path d="m241 211.643h30v50.491h-30z" fill="#a65d4e" data-original="#a65d4e" style="" class=""/></g></g><g><g><path d="m256.028 211.643h14.972v50.491h-14.972z" fill="#784132" data-original="#784132" style="" class=""/></g></g><g><g><path d="m241 285.084h30v50.491h-30z" fill="#a65d4e" data-original="#a65d4e" style="" class=""/></g></g><g><g><path d="m256.028 285.084h14.972v50.491h-14.972z" fill="#784132" data-original="#784132" style="" class=""/></g></g></g><g><path d="m401.94 264.421h30v32.253h-30z" fill="#e9edf5" data-original="#e9edf5" style="" class=""/></g><g><path d="m401.94 311.335h30v32.253h-30z" fill="#e9edf5" data-original="#e9edf5" style="" class=""/></g></g></g></svg>
