<?xml version="1.0" encoding="utf-8"?>
<svg version="1.1" id="Layer_1" xmlns="http://www.w3.org/2000/svg" xmlns:xlink="http://www.w3.org/1999/xlink" x="0px" y="0px"
	width="100px" height="100px" viewBox="0 0 100 100" style="enable-background:new 0 0 100 100;" xml:space="preserve">
<g>
	<path style="fill:#E8E8E8;" d="M50,0c27.6,0,50,22.4,50,50s-22.4,50-50,50S0,77.6,0,50S22.4,0,50,0"/>
	<path style="fill:#FFFFFF;" d="M50,1c27.1,0,49,21.9,49,49S77.1,99,50,99S1,77.1,1,50S22.9,1,50,1"/>
	<g>
		<path style="fill:#0F386C;" d="M41.7,40.4L41.7,40.4c0.2,0,0.4,0.1,0.6,0.2c0.6,0.4,1,1.3,1,4.1c0,2.5-0.3,3.7-0.6,4.2
			c-0.2,0.3-0.5,0.5-0.8,0.5v0.1c2.6-0.3,4.7-2,4.7-4.7c0-2.6-2.1-4.4-4.9-4.6V40.4z"/>
		<path style="fill:#0F386C;" d="M47.4,43L47.4,43v4.8c0,1.1-0.3,1.4-1,1.5v0.1h5v-0.1c-0.7-0.1-0.9-0.4-0.9-1.3v-7.6l0,0l-4,1.1
			v0.1c0.1,0,0.3,0.2,0.4,0.2C47.2,42,47.4,42.3,47.4,43"/>
		<path style="fill:#0F386C;" d="M37.3,57.9L37.3,57.9c0.4,0.6,1.1,0.7,1.6,0.3c0.6-0.4,0.8-1,0.4-1.6c-0.4-0.6-1.1-0.7-1.7-0.3
			C37.1,56.7,36.9,57.3,37.3,57.9"/>
		<path style="fill:#0F386C;" d="M25.1,43.1L25.1,43.1l-1.8,0.3v0.1h4.5c0-1.6-1.1-3.1-3.5-3.2v0.2C24.8,40.7,25,41.8,25.1,43.1"/>
		<path style="fill:#0F386C;" d="M24,49.6L24,49.6c2.7,0,3.9-2.1,4.1-3.2L28,46.3c-0.4,0.6-1.2,1.1-2.4,1.1c-1.7,0-2.8-1.1-2.8-3.5
			c0-2.2,0.4-3.1,1.1-3.4v-0.2c-2.4,0.4-4.2,2.2-4.2,4.8C19.6,47.4,21.1,49.6,24,49.6"/>
		<path style="fill:#0F386C;" d="M33.5,41.4L33.5,41.4c0.1,0,0.1,0,0.2,0c-0.1,0.2-0.3,0.5-0.3,0.9c0,0.8,0.6,1.4,1.4,1.4
			c0.9,0,1.6-0.7,1.6-1.7c0-1-0.6-1.7-1.7-1.7c-0.9,0-1.8,0.8-2,1.6V42C33,41.5,33.3,41.4,33.5,41.4"/>
		<path style="fill:#0F386C;" d="M33.5,49.3L33.5,49.3c-0.7-0.1-1.2-0.5-1.2-1.4v-7.5l0,0l-4,1.1v0.1c0.1,0,0.3,0.2,0.4,0.3
			c0.3,0.2,0.5,0.5,0.5,1.2v4.8c0,1.1-0.3,1.4-1,1.5v0.1h5.3V49.3z"/>
		<path style="fill:#0F386C;" d="M81.8,54.6L81.8,54.6v0.1c1,0.2,2,1.6,2.4,2.8h0.1L84.3,55C84,54.9,82.8,54.6,81.8,54.6"/>
		<path style="fill:#0F386C;" d="M75.1,43.4L75.1,43.4V48c0,0.9-0.3,1.2-0.9,1.3v0.1h5v-0.1c-0.7-0.1-1-0.4-1-1.5V43
			c0-1.5-0.4-2.6-2.2-2.6c-1.3,0-2.5,0.9-3.1,1.8v0.1c0.3-0.1,0.6-0.2,0.9-0.2C74.8,41.9,75.1,42.4,75.1,43.4"/>
		<path style="fill:#0F386C;" d="M69.5,43.4L69.5,43.4V48c0,0.9-0.3,1.2-0.9,1.3v0.1h4.9v-0.1c-0.7-0.1-0.9-0.4-0.9-1.3v-5
			c0-1.5-0.4-2.6-2.2-2.6c-1.3,0-2.5,0.9-3,1.8v0.1c0.3-0.1,0.5-0.2,0.9-0.2C69.2,41.9,69.5,42.4,69.5,43.4"/>
		<path style="fill:#0F386C;" d="M62.6,49.3L62.6,49.3c-0.7-0.1-1.1-0.4-1.1-1.5v-4.7c0-0.8,0-1.9,0.1-2.7l0,0l-4,1.1v0.1
			c0.1,0,0.3,0.2,0.4,0.3c0.3,0.3,0.5,0.5,0.5,1.2v4.8c0,1.1-0.3,1.4-1,1.5v0.1h5.2V49.3z"/>
		<path style="fill:#0F386C;" d="M84.3,49.6L84.3,49.6v-0.1c-0.2,0-0.4-0.1-0.6-0.2c-0.6-0.4-1.1-1.3-1.1-4.1c0-2.5,0.3-3.7,0.7-4.2
			c0.2-0.3,0.5-0.5,0.8-0.5v-0.2c-2.6,0.3-4.7,2-4.7,4.7C79.4,47.6,81.5,49.5,84.3,49.6"/>
		<path style="fill:#0F386C;" d="M67.9,49.3L67.9,49.3c-0.7-0.1-0.9-0.4-0.9-1.3v-7.6l0,0L63,41.4v0.1c0.1,0,0.3,0.2,0.4,0.3
			c0.3,0.2,0.5,0.5,0.5,1.2v4.8c0,1.1-0.3,1.4-1,1.5v0.1h5V49.3z"/>
		<path style="fill:#0F386C;" d="M60,39.8L60,39.8c0.9,0,1.7-0.6,1.7-1.6c0-0.9-0.8-1.6-1.7-1.6c-0.9,0-1.7,0.6-1.7,1.6
			C58.3,39.2,59,39.8,60,39.8"/>
		<path style="fill:#0F386C;" d="M63.9,54.2L63.9,54.2c0.9,0,1.7-0.6,1.7-1.6c0-0.9-0.8-1.6-1.7-1.6c-0.9,0-1.7,0.6-1.7,1.6
			C62.2,53.5,63,54.2,63.9,54.2"/>
		<path style="fill:#0F386C;" d="M53.1,43.4L53.1,43.4V48c0,0.9-0.3,1.2-0.9,1.3v0.1h5v-0.1c-0.7-0.1-1-0.4-1-1.5V43
			c0-1.5-0.6-2.6-2.3-2.6c-1.3,0-2.5,0.9-3.1,1.8v0.1c0.3-0.1,0.6-0.2,0.9-0.2C52.7,41.9,53.1,42.4,53.1,43.4"/>
		<path style="fill:#0F386C;" d="M76.6,62.1L76.6,62.1v-4.8c0-1.5-0.6-2.6-2.3-2.6c-1.3,0-2.5,0.9-3,1.7v0.1
			c0.3-0.1,0.6-0.2,0.9-0.2c0.9,0,1.3,0.4,1.3,1.5v4.5c0,1-0.3,1.2-0.9,1.4v0.1h5v-0.1C76.9,63.5,76.6,63.3,76.6,62.1"/>
		<path style="fill:#0F386C;" d="M70.9,62.3L70.9,62.3v-7.6l0-0.1l-4,1.2v0.1c0.1,0,0.3,0.1,0.4,0.2c0.3,0.3,0.5,0.5,0.5,1.2v4.8
			c0,1.1-0.3,1.4-1,1.5v0.1h5v-0.1C71.1,63.5,70.9,63.2,70.9,62.3"/>
		<path style="fill:#0F386C;" d="M52.1,54.6L52.1,54.6c-0.9,0-1.8,0.8-2,1.6v0.1c0.2-0.4,0.6-0.6,0.8-0.6c0.1,0,0.1,0,0.2,0
			c-0.1,0.2-0.3,0.5-0.3,0.9c0,0.8,0.6,1.4,1.4,1.4c1,0,1.7-0.7,1.7-1.7C53.8,55.3,53.2,54.6,52.1,54.6"/>
		<path style="fill:#0F386C;" d="M61.5,62L61.5,62c-0.3,0.1-0.8,0.2-1.3,0.2c-1,0-1.6-0.5-1.6-1.6V56h2.6l0.2-1.1h-2.8v-2.3
			l-0.3-0.1l-3.9,3.2V56h1v5.3c0,2,1.3,2.6,2.7,2.6c1.6,0,2.9-1.1,3.3-1.9V62z"/>
		<path style="fill:#0F386C;" d="M65.5,62.2L65.5,62.2v-4.7c0-0.8,0-1.9,0.1-2.7l0-0.1l-4,1.2v0.1c0.1,0,0.3,0.2,0.4,0.3
			c0.3,0.3,0.5,0.5,0.5,1.2v4.8c0,1.1-0.3,1.4-1,1.5v0.1h5.2v-0.1C65.8,63.5,65.5,63.3,65.5,62.2"/>
		<path style="fill:#0F386C;" d="M84.6,40.3L84.6,40.3v0.1c0.2,0,0.4,0.1,0.5,0.2c0.6,0.4,1.1,1.3,1.1,4.1c0,2.5-0.3,3.7-0.7,4.2
			c-0.2,0.3-0.5,0.5-0.8,0.5v0.1c2.6-0.3,4.7-2,4.7-4.7C89.5,42.2,87.4,40.4,84.6,40.3"/>
		<path style="fill:#0F386C;" d="M78.1,60.6L78.1,60.6H78l0.1,2.8c0.5,0.3,1.8,0.5,2.7,0.5v-0.1C79.9,63.5,78.5,61.9,78.1,60.6"/>
		<path style="fill:#0F386C;" d="M82.4,57.9L82.4,57.9c-0.9-0.6-1.9-1.1-1.9-2c0-0.7,0.4-1,0.8-1.1v-0.1c-1.9,0.2-3.2,1.3-3.2,2.9
			c0,1.7,1.2,2.4,2.3,3.1c1,0.6,1.9,1.1,1.9,1.9c0,0.8-0.4,1.1-1,1.2v0.1c2.1-0.1,3.5-1.2,3.5-3.1C84.8,59.5,83.7,58.7,82.4,57.9"/>
		<path style="fill:#0F386C;" d="M13.6,48L13.6,48c-0.5-0.8-1.5-0.9-2.3-0.5c-0.8,0.5-1.1,1.5-0.6,2.2c0.5,0.8,1.5,0.9,2.3,0.4
			C13.8,49.7,14.1,48.8,13.6,48"/>
		<path style="fill:#0F386C;" d="M19.8,37.2L19.8,37.2V37h-6.7v0.1c1.1,0.2,1.6,0.6,1.6,2.3V48c0,0.3,0,0.5,0,0.7h0
			c0,0,0,1.5-1.7,2.3c0,0,1.6,0.3,3.2-0.6c0.5-0.2,0.9-0.5,1.1-0.8c0,0,0,0,0,0c0.8-0.9,0.9-2,1-2.3v-7.8
			C18.3,37.7,18.8,37.3,19.8,37.2"/>
		<polygon style="fill:#0F386C;" points="26.9,63.9 26.9,63.9 26.9,63.9 26.9,63.9 		"/>
		<path style="fill:#0F386C;" d="M35,61.2L35,61.2l-0.3-7.4c-0.1-1.7,0.5-2.1,1.6-2.3v-0.2h-5.2h0l-2.6,6.5l0.4,0.8l2.3-5.9l0.3,8.7
			c0.1,1.6-0.6,2-1.6,2.1v0.1h6.7v-0.1C35.6,63.4,35.1,63,35,61.2"/>
		<path style="fill:#0F386C;" d="M28.3,58.5L28.3,58.5l-3.2-7.2h-5.6v0.2c0.6,0.1,1.3,0.4,1.7,0.8c0.5,0.5,0.9,1.1,1.3,2l4.3,9.6
			l0,0l0.1,0l1.8-4.6L28.3,58.5L28.3,58.5z"/>
		<path style="fill:#0F386C;" d="M22.5,62.8L22.5,62.8c-0.4-0.4-0.5-1.2-0.5-2l0.3-5.7l-0.5-1l-0.4,6.4c-0.1,0.6-0.2,1.1-0.3,1.4
			c-0.1,0.3-0.3,0.5-0.5,0.8c0,0,0,0,0,0h0c-0.1,0.1-0.1,0.1-0.2,0.2c-0.5,0.5-1,0.7-1.7,0.9v0.1h5.6v-0.1
			C23.5,63.6,23,63.3,22.5,62.8"/>
		<path style="fill:#0F386C;" d="M45.6,62.5L45.6,62.5c-0.1,0.1-0.3,0.1-0.5,0.1c-0.5,0-0.7-0.3-0.7-0.8v-4.4c0-1.7-0.9-2.8-3-2.8
			c-1,0-2.2,0.5-3,1v0.1c1.8,0,2.9,0.4,2.9,1.9v4.1c0,1.5,0.7,2.3,2,2.3C44.6,63.9,45.3,63.2,45.6,62.5L45.6,62.5z"/>
		<path style="fill:#0F386C;" d="M39.5,60.9L39.5,60.9c0-0.5,0.1-0.9,0.3-1.2c0.2-0.3,0.6-0.4,1-0.6V59c-0.9,0.2-3,0.7-3.4,0.9
			c-0.4,0.1-0.9,0.8-0.9,1.9c0,1.2,0.8,2.2,2.3,2.2c1.3,0,2.1-1,2.3-1.5v-0.1c-0.1,0.1-0.4,0.2-0.6,0.2
			C39.8,62.6,39.5,62.2,39.5,60.9"/>
		<path style="fill:#0F386C;" d="M49.6,62.2L49.6,62.2v-7.5l0-0.1l-3.9,1.2v0.1c0.1,0,0.3,0.1,0.4,0.2c0.3,0.3,0.5,0.5,0.5,1.2v4.8
			c0,1.1-0.3,1.4-1,1.5v0.1h5.3v-0.1C50.1,63.5,49.6,63.2,49.6,62.2"/>
		<path style="fill:#0F386C;" d="M39.3,40.8L39.3,40.8c-1.7,0.7-2.8,2.2-2.8,4.3c0,2.6,2.1,4.4,4.9,4.5v-0.1c-0.2,0-0.4-0.1-0.5-0.2
			c-0.6-0.4-1.1-1.3-1.1-4.1c0-2.5,0.3-3.7,0.7-4.2c0.2-0.3,0.5-0.5,0.8-0.5v-0.2c-0.5,0.1-0.9,0.1-1.3,0.3c0.5-0.9,0.7-0.8,0.7-0.8
			c0.7,0,1.3-0.2,1.3-0.2c2.3-0.8,2.4-3.4,2.4-3.4l-0.1,0c0,0-0.1,0.1-0.1,0.1c-0.4,0.4-1,0.7-1.6,0.8c-2.1,0.5-2.3,1.4-2.3,2.2
			l0,0.2c0.9-0.9,1.9-1.5,2.3-1.6l0,0.1C40.8,38.8,39.5,40.6,39.3,40.8"/>
	</g>
</g>
</svg>
