<?xml version="1.0" encoding="utf-8"?>
<svg version="1.1" id="Layer_1" xmlns="http://www.w3.org/2000/svg" xmlns:xlink="http://www.w3.org/1999/xlink" x="0px" y="0px"
	width="100px" height="100px" viewBox="0 0 66.7 66.7" style="enable-background:new 0 0 66.7 66.7;" xml:space="preserve">
<g>
	<circle style="fill:#E8E8E8;" cx="33.3" cy="33.3" r="33.3"/>
	<circle style="fill:#FFFFFF;" cx="33.3" cy="33.3" r="32.7"/>
	<path style="fill:#000929;" d="M32.6,34.1c0,1,0.6,1.8,1.6,1.8c0.8,0,1.6-0.6,1.6-1.8c0-1.3-0.7-1.8-1.6-1.8
		C33.3,32.3,32.6,33.1,32.6,34.1z M36.3,31.2c0.4,0,0.7,0.3,0.7,0.7v7.4c0,0.3-0.3,0.7-0.7,0.7c-0.3,0-0.7-0.3-0.7-0.7v-3.1
		C35.1,36.9,34.4,37,34,37c-1.7,0-2.7-1.5-2.7-3c0-1.9,1.3-3,2.7-3c0.5,0,1.2,0.2,1.7,0.7C35.7,31.5,36,31.2,36.3,31.2z M41.6,32.4
		v3.8c0,0.3-0.3,0.7-0.7,0.7c-0.3,0-0.6-0.2-0.7-0.6c0,0,0-0.1,0-0.1v-3.8c-0.2,0-0.5-0.3-0.5-0.5v-0.1c0-0.3,0.3-0.5,0.5-0.5v-1.4
		c0-0.3,0.3-0.7,0.7-0.7c0.3,0,0.6,0.2,0.7,0.6c0,0,0,0.1,0,0.1v1.4h0.5c0.3,0,0.6,0.3,0.6,0.6c0,0.3-0.3,0.6-0.6,0.6H41.6z
		 M46.2,34.1c0,1,0.6,1.8,1.6,1.8c0.8,0,1.6-0.6,1.6-1.8c0-1.3-0.7-1.8-1.6-1.8C46.9,32.3,46.2,33.1,46.2,34.1z M50,31.2
		c0.3,0,0.7,0.3,0.7,0.7v4.4c0,0.3-0.3,0.5-0.6,0.5h-0.1c-0.3,0-0.6-0.3-0.6-0.5c-0.6,0.7-1.3,0.7-1.7,0.7c-1.7,0-2.7-1.5-2.7-3
		c0-1.9,1.3-2.9,2.7-2.9c0.4,0,1.1,0.1,1.7,0.8C49.3,31.5,49.6,31.2,50,31.2C49.9,31.2,50,31.2,50,31.2z M55.1,34.1
		c0,1.2,0.7,1.8,1.6,1.8c0.9,0,1.6-0.8,1.6-1.8s-0.6-1.8-1.6-1.8C55.9,32.3,55.1,32.8,55.1,34.1z M54.6,39.9c-0.3,0-0.7-0.3-0.7-0.7
		v-7.5c0-0.3,0.3-0.7,0.6-0.7h0.1c0.3,0,0.6,0.3,0.6,0.6c0.5-0.6,1.1-0.7,1.7-0.7c1.5,0,2.7,1.1,2.7,2.9c0,1.9-1.4,3.1-2.7,3.1
		c-0.3,0-1.1-0.1-1.7-0.8v3.1C55.3,39.7,54.9,39.9,54.6,39.9z"/>
	<path style="fill:#68DD4A;" d="M16.1,26c-4.1,0-7.3,3.3-7.3,7.4s3.3,7.4,7.3,7.4h7.2l0.1-7.5C23.4,29.3,20.1,26,16.1,26
		C16.1,26,16.1,26,16.1,26z M24.9,42.4h-8.8c-5,0-9-4.1-9-9s4.1-9,9-9s9,4,9,9l0,0C25.1,33.3,24.9,42.4,24.9,42.4z M16.1,29.7
		c-2,0-3.6,1.6-3.6,3.6s1.6,3.6,3.6,3.6h3.5l0.1-3.6C19.7,31.3,18,29.7,16.1,29.7z M21.2,38.6h-5.1c-2.9,0-5.2-2.3-5.3-5.2
		c0,0,0,0,0-0.1c0-2.9,2.4-5.3,5.3-5.3c2.9,0,5.3,2.4,5.3,5.3l0,0L21.2,38.6z"/>
</g>
</svg>
