<?xml version="1.0"?>
<svg xmlns="http://www.w3.org/2000/svg" xmlns:xlink="http://www.w3.org/1999/xlink" xmlns:svgjs="http://svgjs.com/svgjs" version="1.1" width="512" height="512" x="0" y="0" viewBox="0 0 512 512" style="enable-background:new 0 0 512 512" xml:space="preserve" class=""><g><g xmlns="http://www.w3.org/2000/svg"><g><g><g><g><g><g><g><g><circle cx="256" cy="256" fill="#f1f1f1" r="256" data-original="#ffce00" style="" class=""/></g></g></g></g></g></g></g></g><path d="m512 256c0-9.044-.469-17.979-1.384-26.782l-134.073-134.072-311.707 117.285 144.699 144.699-74.078 68.127 84.181 84.181c11.878 1.688 24.018 2.562 36.362 2.562 141.385 0 256-114.615 256-256z" fill="#f1f1f1" data-original="#ffa300" style="" class=""/><g><path d="m135.457 95.145-70.62 117.285 83.402 38.77z" fill="#e9edf5" data-original="#e9edf5" style="" class=""/></g><g><path d="m363.761 251.2 12.782-156.055 70.62 117.285z" fill="#cdd2e1" data-original="#cdd2e1" style=""/></g><g><path d="m302.262 95.145v-31.275h-92.524v31.275h-74.281v330.111h241.086v-330.111z" fill="#ffffff" data-original="#ffffff" style=""/></g><g><path d="m376.543 95.146h-74.281v-31.276h-46.262v361.386h120.543z" fill="#e9edf5" data-original="#e9edf5" style="" class=""/></g><g><path d="m276.487 168.123h-40.974l-11.153-44.308h63.28z" fill="#7584f2" data-original="#7584f2" style=""/></g><g><path d="m287.64 123.815h-31.64v44.308h20.487z" fill="#606aea" data-original="#606aea" style="" class=""/></g><g><path d="m302.262 63.87-46.262 59.945 40.733 35.642 39.162-64.311z" fill="#cdd2e1" data-original="#cdd2e1" style=""/></g><g><path d="m209.738 63.87 46.262 59.945-40.733 35.642-39.162-64.311z" fill="#e9edf5" data-original="#e9edf5" style="" class=""/></g><g><path d="m235.513 168.123h40.974v149.864l-20.487 16.289-20.487-16.289z" fill="#606aea" data-original="#606aea" style="" class=""/></g><g><path d="m276.487 168.123h-20.487v166.12l20.487-16.256z" fill="#4855b7" data-original="#4855b7" style="" class=""/></g><g><path d="m352.497 231.014-20.03 13.67-20.029-13.67v-40.06h40.059z" fill="#fe6a16" data-original="#fe6a16" style="" class=""/></g></g></g></svg>
