<?xml version="1.0" encoding="utf-8"?>
<svg version="1.1" id="Layer_1" xmlns="http://www.w3.org/2000/svg" xmlns:xlink="http://www.w3.org/1999/xlink" x="0px" y="0px"
	width="100px" height="100px" viewBox="0 0 100 100" style="enable-background:new 0 0 100 100;" xml:space="preserve">
<g>
	<path style="fill:#E8E8E8;" d="M50,0c27.6,0,50,22.4,50,50s-22.4,50-50,50S0,77.6,0,50S22.4,0,50,0"/>
	<path style="fill:#FFFFFF;" d="M50,1c27.1,0,49,21.9,49,49S77.1,99,50,99S1,77.1,1,50S22.9,1,50,1"/>
	<g>
		<g>
			<g>
				<path style="fill:#010066;" d="M42.8,20c4.1-0.1,8.3,0.6,12,2.5c3.1,1.5,5.8,3.8,7.9,6.6c2.3,3.1,3.8,6.8,4.4,10.5
					c0.7,4.1,0.6,8.4-0.6,12.4c-0.9,3.3-2.5,6.4-4.7,9.1c-1.8,2.2-4.1,4-6.6,5.4c-3.5,2-7.6,2.9-11.6,2.9c-4,0-8-0.9-11.6-2.8
					c-3.3-1.8-6.1-4.3-8.2-7.3c-2.2-3.3-3.6-7-4.2-11c-0.6-4.3-0.2-8.8,1.3-12.9c0.9-2.5,2.1-4.8,3.8-6.9c1.7-2.1,3.8-3.9,6.2-5.3
					C34.5,21.1,38.6,20.1,42.8,20 M42.5,27.1c-2.8,0.2-5.5,1.3-7.7,3.2c-2.8,2.4-4.6,5.8-5.4,9.4c-0.9,4.1-0.7,8.3,0.6,12.3
					c1.1,3.2,3,6.1,5.8,8c3.2,2.2,7.2,2.7,11,2c2.9-0.6,5.5-2.3,7.4-4.5c2.4-3,3.7-6.7,4-10.5c0.4-4.3-0.4-8.7-2.5-12.5
					c-1.5-2.6-3.7-4.9-6.5-6.2C47.1,27.3,44.7,26.9,42.5,27.1z"/>
				<path style="fill:#010066;" d="M67.1,60.2c1.9-0.9,4-1.5,6.1-1.5c1.7,0,3.5,0.3,4.8,1.4c1.2,1,1.8,2.5,1.9,4
					c0.1,1.5-0.2,3-0.9,4.3c-0.9,1.9-2.3,3.6-3.8,5.1c-1,1.1-2.1,2.1-3.2,3.2c2.8,0,5.7,0,8.5,0c0,1.1,0,2.2,0,3.3
					c-4.6,0-9.3,0-13.9,0v-3.5c2.5-2.3,5-4.6,7.1-7.3c0.8-1,1.5-2.2,1.8-3.4c0.2-0.8,0.2-1.7-0.3-2.4c-0.6-0.9-1.7-1.3-2.7-1.3
					c-1.9-0.1-3.6,0.7-5.1,1.7C67.3,62.6,67.2,61.4,67.1,60.2L67.1,60.2z"/>
			</g>
		</g>
	</g>
</g>
</svg>
