<?xml version="1.0"?>
<svg xmlns="http://www.w3.org/2000/svg" xmlns:xlink="http://www.w3.org/1999/xlink" xmlns:svgjs="http://svgjs.com/svgjs" version="1.1" width="512" height="512" x="0" y="0" viewBox="0 0 512 512" style="enable-background:new 0 0 512 512" xml:space="preserve" class=""><g><g xmlns="http://www.w3.org/2000/svg"><g><g><g><g><g><g><g id="XMLID_2905_"><g id="XMLID_2906_"><g id="XMLID_2907_"><g id="XMLID_2908_"><g id="XMLID_2909_"><g id="XMLID_2910_"><g id="XMLID_2911_"><g id="XMLID_2912_"><g id="XMLID_2913_"><g id="XMLID_2914_"><g id="XMLID_2915_"><g id="XMLID_2916_"><g id="XMLID_2917_"><g id="XMLID_2918_"><g><path d="m512 256c0 141.38-114.62 256-256 256-93.13 0-174.65-49.74-219.45-124.11-4.425-7.35 3.236-15.586-.447-23.39-3.684-7.804-18.713-15.175-21.603-23.39-3.79-10.74-6.88-21.82-9.22-33.16-3.46-16.77 57.852-59.77 57.852-77.57 0-47.61-50.132-66.56-27.492-104.74 44.58-75.21 126.59-125.64 220.36-125.64 141.38 0 256 114.62 256 256z" fill="#f1f1f1" data-original="#ff5757" style="" class=""/></g></g></g></g></g></g></g></g></g></g></g></g></g></g></g></g></g></g></g></g></g><path d="m511.3 275.079-98.609-98.609s-218.908 43.656-359.729 71.944c-17.273 20.303-50.245 47.115-47.682 59.536 2.34 11.34 5.43 22.42 9.22 33.16 2.89 8.215 17.919 15.586 21.603 23.39s-3.978 16.04.447 23.39c44.8 74.37 126.32 124.11 219.45 124.11 134.962 0 245.539-104.451 255.3-236.921z" fill="#f1f1f1" data-original="#f40f50" style="" class=""/><g><path d="m452.875 341.11v46.78h-416.325c-4.425-7.35-8.492-14.938-12.176-22.741-3.684-7.804-6.984-15.824-9.874-24.039z" fill="#4f4f4f" data-original="#4f4f4f" style="" class=""/><path d="m220.81 341.11h232.07v46.78h-232.07z" fill="#333333" data-original="#333333" style="" class=""/><path d="m452.875 280.57c0 7.56-3.07 14.4-8.02 19.36s-11.8 8.02-19.36 8.02h-420.215c-3.46-16.77-5.28-34.15-5.28-51.95 0-9.7.54-19.27 1.6-28.69 1.95-17.55 5.68-34.55 11.01-50.84 5.83-17.89 13.59-34.92 23.03-50.83h251.765c66.86 0 156.07 101.67 156.07 101.67 6.08 16.61 9.4 34.55 9.4 53.26z" fill="#ffffff" data-original="#ffffff" style=""/><path d="m452.88 280.57c0 7.56-3.08 14.4-8.03 19.36-4.94 4.96-11.8 8.02-19.36 8.02h-204.68v-182.31h66.6c66.86 0 156.06 101.67 156.06 101.67 6.08 16.61 9.41 34.55 9.41 53.26z" fill="#dbdbdb" data-original="#dbdbdb" style=""/><path d="m443.475 227.306h-156.07v-101.67h10.54c66.86 0 123.82 42.34 145.53 101.67z" fill="#0070f7" data-original="#0070f7" style=""/></g><path d="m220.806 176.47v50.84h-219.206c1.95-17.55 5.68-34.55 11.01-50.84z" fill="#4f4f4f" data-original="#4f4f4f" style="" class=""/></g></g></svg>
