<?xml version="1.0"?>
<svg xmlns="http://www.w3.org/2000/svg" xmlns:xlink="http://www.w3.org/1999/xlink" xmlns:svgjs="http://svgjs.com/svgjs" version="1.1" width="512" height="512" x="0" y="0" viewBox="0 0 512 512" style="enable-background:new 0 0 512 512" xml:space="preserve" class=""><g><g xmlns="http://www.w3.org/2000/svg"><g><g><g><g><g><g><g id="XMLID_2130_"><g id="XMLID_2131_"><g id="XMLID_2132_"><g id="XMLID_2133_"><g id="XMLID_2134_"><g id="XMLID_2135_"><g id="XMLID_2136_"><g id="XMLID_2137_"><g id="XMLID_2138_"><g id="XMLID_2521_"><g id="XMLID_2595_"><g id="XMLID_2596_"><g id="XMLID_2744_"><g id="XMLID_2745_"><g id="XMLID_2746_"><circle cx="256" cy="256" fill="#f1f1f1" r="256" data-original="#b1b5e4" style="" class=""/></g></g></g></g></g></g></g></g></g></g></g></g></g></g></g></g></g></g></g></g></g><path d="m435.415 181.814-127.984 44.817-95.807-95.807-45.079 16.649-51.592-51.592-41.967 306.489 93.571 93.571c27.843 10.383 57.98 16.059 89.443 16.059 140.588 0 254.707-113.327 255.989-253.612z" fill="#f1f1f1" data-original="#7b83c9" style="" class=""/><g><path d="m186.979 234.408h-75.196v-57.378h44.595c16.9 0 30.6 13.7 30.6 30.6v26.778z" fill="#d8d8d8" data-original="#d8d8d8" style="" class=""/><path d="m184.914 231.03h87.283l-21.774-63.633h-65.509z" fill="#ff76a4" data-original="#ff76a4" style="" class=""/><g><path d="m72.986 95.881h41.967v140.733h-41.967z" fill="#494949" data-original="#494949" style="" class=""/><path d="m114.953 402.37h-41.967v-68.055l41.967-27.874z" fill="#282828" data-original="#282828" style=""/><path d="m447.046 402.37h-41.967v-95.929l41.967 27.874z" fill="#282828" data-original="#282828" style=""/><path d="m250.423 334.315h-177.437v-109.808h177.437l25.904 12.107z" fill="#ffffff" data-original="#ffffff" style="" class=""/><path d="m264.98 279.41-14.56 54.91h-177.43v-54.91z" fill="#d8d8d8" data-original="#d8d8d8" style="" class=""/></g><circle cx="179.055" cy="157.261" fill="#ffd3ab" r="41.952" data-original="#ffd3ab" style="" class=""/><path d="m447.046 334.315h-196.623v-166.918h152.27c24.495 0 44.352 19.857 44.352 44.352v122.566z" fill="#651e5a" data-original="#651e5a" style=""/><path d="m250.42 279.41h196.63v54.91h-196.63z" fill="#350a35" data-original="#350a35" style="" class=""/></g></g></g></svg>
