<?xml version="1.0"?>
<svg xmlns="http://www.w3.org/2000/svg" xmlns:xlink="http://www.w3.org/1999/xlink" xmlns:svgjs="http://svgjs.com/svgjs" version="1.1" width="512" height="512" x="0" y="0" viewBox="0 0 512 512" style="enable-background:new 0 0 512 512" xml:space="preserve" class=""><g><g xmlns="http://www.w3.org/2000/svg"><circle cx="256" cy="256" fill="#f1f1f1" r="256" data-original="#df6426" style="" class=""/><path d="m509.53 291.555c-41.986-41.988-125.275-125.272-125.275-125.272l-168.979 12.058s31.318 31.342 31.483 31.507l-17.836 36.922-130.457 129.227 135.005 135.005c7.425.648 14.936.998 22.529.998 129.318 0 236.221-95.892 253.53-220.445z" fill="#f1f1f1" data-original="#ce3b0e" style="" class=""/><g><path d="m413.534 310.171v65.826h-315.068l15.402-46.196 62.134-18.418 89.844-.461z" fill="#eef4ff" data-original="#eef4ff" style="" class=""/><path d="m413.534 310.171v65.826h-147.688v-65.075z" fill="#d9e6fc" data-original="#d9e6fc" style="" class=""/><path d="m413.534 237.539v9.23l-55.383 18.461v-27.691c0-25.446-20.701-46.153-46.153-46.153h-64.614c-25.451 0-46.153-20.707-46.153-46.153v-9.23h110.766c55.988 0 101.537 45.55 101.537 101.536z" fill="#d9e6fc" data-original="#d9e6fc" style="" class=""/><path d="m413.534 237.539v9.23l-55.383 18.461v-27.691c0-25.446-20.701-46.153-46.153-46.153h-46.153v-55.383h46.153c55.987 0 101.536 45.55 101.536 101.536z" fill="#bed9fd" data-original="#bed9fd" style=""/><path d="m228.924 209.847h73.844v46.153h-73.844z" fill="#d9e6fc" data-original="#d9e6fc" style="" class=""/><path d="m265.846 209.847h36.922v46.153h-36.922z" fill="#bed9fd" data-original="#bed9fd" style=""/><path d="m413.534 246.77v63.401l-9.231 1.212s-59.137 7.76-138.458 13.212c-46.356 3.194-99.61 5.594-151.977 5.206l4.535-13.606c13.624-40.879 54.165-69.426 98.588-69.426h196.543z" fill="#9cd6f4" data-original="#9cd6f4" style="" class=""/><path d="m413.534 246.77v63.401l-9.231 1.212s-59.137 7.76-138.458 13.212v-77.825z" fill="#7fa6fb" data-original="#7fa6fb" style=""/></g></g></g></svg>
