<svg xmlns="http://www.w3.org/2000/svg" viewBox="0 0 1228.4 308.45"><path d="M154.22 19.44c74.49 0 134.79 60.3 134.79 134.79s-60.3 134.79-134.79 134.79-134.78-60.31-134.78-134.8S79.74 19.44 154.22 19.44m0-19.44c-41.14 0-79.87 16.03-109.1 45.12C16.03 74.35 0 113.08 0 154.22s16.03 79.88 45.12 109.11c29.09 29.09 67.82 45.12 109.11 45.12 41.15 0 79.88-16.03 109.11-45.12 29.09-29.09 45.12-67.82 45.12-109.11 0-41.15-16.03-79.88-45.12-109.11C234.1 16.03 195.37 0 154.22 0z" fill="#323232"/><path d="M239.49 179.2c0-21.14-42.71-56.61-42.71-56.61-4.4-3.41-8.09-6.67-11.07-9.79-5.53-5.68-5.53-12.91-3.41-24.26 2.84-18.73 18.3-23.84 18.3-23.84l2.13.28c1.28-13.05-13.34-9.36-13.34-9.36l-4.26 6.24-11.21.43 3.55-5.39 5.96 1.99 3.26-4.82s-3.41-2.7-5.82-2.13L157.6 56.2c-12.2 3.41-16.17 11.35-21.99 27.67l8.09-5.11-9.22 17.45 7.8-4.26s-8.8 16.88-29.65 32.35c0 0-42.71 33.63-42.71 54.77 0 0 5.96 70.94 31.5 89.67-5.96-12.06-13.19-25.82-11.78-64.7.14 13.9 2.13 31.64 21 68.53 3.12 1.14 6.38 2.27 9.65 3.12-5.68-18.3-12.06-35.47-11.07-78.6 0 11.63 1.14 37.17 18.73 80.45 3.55.71 4.4.99 8.09 1.42-2.55-8.51-4.26-18.02-5.82-29.09 1.7 9.51 5.68 19.44 10.07 29.65 4.54.57 9.22.71 14.05.71 4.97 0 9.93-.28 14.76-.85 4.26-10.36 7.66-20.43 9.36-30.08-1.56 11.21-2.41 21-5.25 29.65 3.55-.43 4.68-.85 8.23-1.7 17.17-42.14 18.44-67.25 18.44-79.74v-.57.57c.99 42.42-5.25 59.59-10.78 77.75 3.26-.99 6.67-1.99 9.79-3.26 18.87-36.89 20.86-54.77 20.86-68.1 1.42 38.45-5.68 52.07-11.63 64.13 29.53-25.13 31.37-88.83 31.37-88.83zm30.79-50.51c-11.63-53.35-59.31-93.36-116.2-93.36S49.66 75.34 37.88 128.69h.43c.43-2.13 11.07-13.76 11.07-13.76-10.92 23.55-11.78 64.98-7.09 80.02v-.14c-1.42-7.66 9.22-34.62 9.22-34.62-4.97 24.4 4.97 69.24 24.55 84.84-13.62-34.48-12.63-64.56-12.49-66.12v.28c0-23.41 40.44-55.9 44.98-59.59l.14-.14c4.54-3.41 8.37-6.81 11.78-10.07l7.09-13.48c-1.42.99-3.83 2.41-3.83 2.41l5.96-16.6c5.82-16.17 10.78-27.1 26.11-31.36h.28l23.55-4.4c4.68-.85 9.22 2.13 10.64 3.26 3.41-.43 9.51-.57 14.05 3.26 2.41 2.13 5.11 5.96 4.4 12.91l-.57 6.24-6.67-.85c-3.12 1.42-11.35 6.53-13.19 18.59v.14c-.85 4.4-1.28 7.66-1.28 10.36 0 3.97.99 6.53 2.98 8.65 2.84 2.98 6.24 5.96 10.5 9.22l.14.14c4.54 3.69 43.27 36.61 44.83 59.87.14.71.14 1.84.14 3.41 0 1.42 0 3.12-.14 5.53-.14 4.4-.71 11.35-2.13 19.86-1.56 9.65-4.54 23.41-9.93 37.31 20.15-19.3 28.23-59.73 23.41-83.85 0 0 10.5 26.96 9.22 34.62v.14c6.38-15.61.85-63.99-6.67-80.02 0 .17 10.35 11.67 10.92 13.94z" fill="#c8102e"/><path d="M386.62 199.06v-72.22H358.1v-15.32h74.77v15.32H404.5v72.22h-17.88zm115.78 0v-36.61h-40.58v36.61h-17.88v-87.54h17.88v35.75h40.44v-35.75h18.02v87.54H502.4zm76.19 0c-7.24 0-13.62-.85-19.01-2.7-5.39-1.84-9.79-4.4-13.34-8.09-3.55-3.55-6.1-8.09-7.8-13.62s-2.55-11.92-2.55-19.44.85-13.9 2.55-19.44 4.4-10.07 7.8-13.62c3.55-3.55 7.95-6.24 13.34-8.09 5.39-1.7 11.63-2.7 19.01-2.7h25.4v15.32h-21.85c-4.4 0-8.23.43-11.35 1.14s-5.82 1.84-7.95 3.55c-2.13 1.56-3.83 3.69-4.97 6.38-1.14 2.55-1.99 5.82-2.55 9.51h47.53v15.32h-47.53c.43 3.69 1.14 6.95 2.41 9.65 1.14 2.7 2.84 4.82 4.97 6.53 2.13 1.7 4.82 2.98 8.09 3.69 3.26.85 7.09 1.14 11.49 1.14h23.13v15.32h-26.82v.15zm73.07.14v-87.68h43.27c9.36 0 16.6 2.41 21.57 7.24 4.97 4.82 7.52 11.92 7.52 21.28 0 9.51-2.41 16.6-7.38 21.42s-12.2 7.24-21.71 7.24h-25.25v30.5h-18.02zm53.49-59.16c0-8.8-4.4-13.19-13.34-13.19h-22.13v26.53h22.13c4.4 0 7.8-1.14 9.93-3.26 2.13-2.14 3.41-5.54 3.41-10.08zm92.93 59.02v-36.61H757.5v36.61h-17.88v-87.54h17.88v35.75h40.44v-35.75h18.02v87.54h-17.88zm77.46 1.56c-14.33 0-25.25-3.83-32.77-11.49s-11.21-18.87-11.21-33.77 3.69-26.11 11.21-33.77 18.44-11.49 32.77-11.49 25.25 3.83 32.77 11.49 11.21 18.87 11.21 33.77-3.69 26.11-11.21 33.77c-7.37 7.66-18.29 11.49-32.77 11.49zm0-15.47c3.97 0 7.66-.57 10.78-1.7 3.12-1.14 5.82-2.84 7.95-5.25s3.83-5.53 4.82-9.22c1.14-3.83 1.7-8.23 1.7-13.48s-.57-9.79-1.7-13.48c-1.14-3.69-2.7-6.81-4.82-9.22-2.13-2.41-4.82-4.26-7.95-5.39s-6.81-1.7-10.78-1.7c-4.11 0-7.66.57-10.78 1.7s-5.68 2.98-7.95 5.39c-2.13 2.41-3.83 5.53-4.82 9.22-1.14 3.83-1.7 8.23-1.7 13.48s.57 9.79 1.7 13.48c1.14 3.83 2.7 6.81 4.82 9.22 2.13 2.41 4.82 4.11 7.95 5.25 3.12 1.14 6.81 1.7 10.78 1.7zm97.9 13.91c-7.24 0-13.62-.85-19.01-2.7-5.39-1.7-9.79-4.4-13.34-8.09-3.55-3.55-6.1-8.09-7.8-13.62s-2.55-11.92-2.55-19.44.85-13.9 2.55-19.44 4.4-10.07 7.8-13.62c3.55-3.55 7.95-6.24 13.34-8.09 5.39-1.7 11.63-2.7 19.01-2.7h25.4v15.32h-21.85c-4.4 0-8.23.43-11.35 1.14s-5.82 1.84-7.95 3.55c-2.13 1.56-3.83 3.69-4.97 6.38-1.14 2.55-1.99 5.82-2.55 9.51h47.53v15.32h-47.53c.43 3.69 1.14 6.95 2.41 9.65 1.14 2.7 2.84 4.82 4.97 6.53 2.13 1.7 4.82 2.98 8.09 3.69 3.26.85 7.09 1.14 11.49 1.14h23.13v15.32h-26.82v.15zm98.33 0l-37.03-65.12v65.12h-17.17v-87.54h22.98l36.32 63.85v-63.85h17.17v87.54h-22.27zm42.42-87.54h17.88v87.54h-17.88zm92.65 87.54l-22.28-31.07-22.28 31.07h-20.57l33.06-44.98-31.07-42.56h21.57l20.29 28.8 20.43-28.8h20.57l-31.21 42.56 33.06 44.98h-21.57z" fill="#323232"/></svg>