<?xml version="1.0"?>
<svg xmlns="http://www.w3.org/2000/svg" xmlns:xlink="http://www.w3.org/1999/xlink" xmlns:svgjs="http://svgjs.com/svgjs" version="1.1" width="512" height="512" x="0" y="0" viewBox="0 0 512 512" style="enable-background:new 0 0 512 512" xml:space="preserve" class=""><g>
<circle xmlns="http://www.w3.org/2000/svg" style="" cx="256" cy="256" r="256" fill="#f1f1f1" data-original="#ff6473" class=""/>
<path xmlns="http://www.w3.org/2000/svg" style="" d="M511.959,252.718l-149.99-149.99H255.526H149.952v37.874l-18.937,268.669l101.66,101.66  C240.359,511.626,248.135,512,256,512c141.385,0,256-114.615,256-256C512,254.902,511.972,253.812,511.959,252.718z" fill="#f1f1f1" data-original="#c23442" class=""/>
<polygon xmlns="http://www.w3.org/2000/svg" style="" points="380.984,409.272 131.016,409.272 149.953,140.602 362.047,140.602 " fill="#ffa50a" data-original="#ffa50a" class=""/>
<rect xmlns="http://www.w3.org/2000/svg" x="149.957" y="102.725" style="" width="212.017" height="37.874" fill="#ffd23c" data-original="#ffd23c"/>
<rect xmlns="http://www.w3.org/2000/svg" x="255.527" y="102.725" style="" width="106.447" height="37.874" fill="#ffa50a" data-original="#ffa50a" class=""/>
<polygon xmlns="http://www.w3.org/2000/svg" style="" points="255.526,409.272 380.984,409.272 362.047,140.602 255.526,140.602 " fill="#fa870a" data-original="#fa870a" class=""/>
<path xmlns="http://www.w3.org/2000/svg" style="" d="M265.661,344.597c-24.171,24.171-27.146-9.107-49.506-31.466s-55.638-25.334-31.466-49.506  c24.171-24.172,61.893-25.639,84.253-3.28S289.832,320.425,265.661,344.597z" fill="#ffa50a" data-original="#ffa50a" class=""/>
<g xmlns="http://www.w3.org/2000/svg">
	
		<ellipse transform="matrix(0.7982 -0.6024 0.6024 0.7982 -90.3069 233.5239)" style="" cx="303.389" cy="251.548" rx="22.686" ry="15.654" fill="#fa870a" data-original="#fa870a" class=""/>
	
		<ellipse transform="matrix(0.8976 -0.4408 0.4408 0.8976 -100.119 169.2494)" style="" cx="314.24" cy="300.125" rx="22.685" ry="15.654" fill="#fa870a" data-original="#fa870a" class=""/>
</g>
<g xmlns="http://www.w3.org/2000/svg">
	
		<ellipse transform="matrix(-0.5829 0.8126 -0.8126 -0.5829 606.2427 126.4373)" style="" cx="270.668" cy="218.825" rx="22.687" ry="15.655" fill="#ffa50a" data-original="#ffa50a" class=""/>
	
		<ellipse transform="matrix(-0.4408 0.8976 -0.8976 -0.4408 517.4467 106.5602)" style="" cx="225.53" cy="214.462" rx="18.576" ry="12.82" fill="#ffa50a" data-original="#ffa50a" class=""/>
</g>
<path xmlns="http://www.w3.org/2000/svg" style="" d="M268.942,260.344l-52.786,52.786c22.36,22.36,25.334,55.638,49.506,31.466  C289.832,320.425,291.301,282.705,268.942,260.344z" fill="#fa870a" data-original="#fa870a" class=""/>
<path xmlns="http://www.w3.org/2000/svg" style="" d="M265.661,344.597c-24.171,24.171-27.146-9.107-49.506-31.466s-55.638-25.334-31.466-49.506  c24.171-24.172,61.893-25.639,84.253-3.28S289.832,320.425,265.661,344.597z" fill="#faf58c" data-original="#faf58c"/>
<g xmlns="http://www.w3.org/2000/svg">
	
		<ellipse transform="matrix(0.7982 -0.6024 0.6024 0.7982 -90.3069 233.5239)" style="" cx="303.389" cy="251.548" rx="22.686" ry="15.654" fill="#ffdc64" data-original="#ffdc64"/>
	
		<ellipse transform="matrix(0.8976 -0.4408 0.4408 0.8976 -100.119 169.2494)" style="" cx="314.24" cy="300.125" rx="22.685" ry="15.654" fill="#ffdc64" data-original="#ffdc64"/>
</g>
<g xmlns="http://www.w3.org/2000/svg">
	
		<ellipse transform="matrix(-0.5829 0.8126 -0.8126 -0.5829 606.2427 126.4373)" style="" cx="270.668" cy="218.825" rx="22.687" ry="15.655" fill="#faf58c" data-original="#faf58c"/>
	
		<ellipse transform="matrix(-0.4408 0.8976 -0.8976 -0.4408 517.4467 106.5602)" style="" cx="225.53" cy="214.462" rx="18.576" ry="12.82" fill="#faf58c" data-original="#faf58c"/>
</g>
<path xmlns="http://www.w3.org/2000/svg" style="" d="M268.942,260.344l-52.786,52.786c22.36,22.36,25.334,55.638,49.506,31.466  C289.832,320.425,291.301,282.705,268.942,260.344z" fill="#ffdc64" data-original="#ffdc64"/>
<g xmlns="http://www.w3.org/2000/svg">
</g>
<g xmlns="http://www.w3.org/2000/svg">
</g>
<g xmlns="http://www.w3.org/2000/svg">
</g>
<g xmlns="http://www.w3.org/2000/svg">
</g>
<g xmlns="http://www.w3.org/2000/svg">
</g>
<g xmlns="http://www.w3.org/2000/svg">
</g>
<g xmlns="http://www.w3.org/2000/svg">
</g>
<g xmlns="http://www.w3.org/2000/svg">
</g>
<g xmlns="http://www.w3.org/2000/svg">
</g>
<g xmlns="http://www.w3.org/2000/svg">
</g>
<g xmlns="http://www.w3.org/2000/svg">
</g>
<g xmlns="http://www.w3.org/2000/svg">
</g>
<g xmlns="http://www.w3.org/2000/svg">
</g>
<g xmlns="http://www.w3.org/2000/svg">
</g>
<g xmlns="http://www.w3.org/2000/svg">
</g>
</g></svg>
