<?xml version="1.0"?>
<svg xmlns="http://www.w3.org/2000/svg" xmlns:xlink="http://www.w3.org/1999/xlink" xmlns:svgjs="http://svgjs.com/svgjs" version="1.1" width="512" height="512" x="0" y="0" viewBox="0 0 512 512" style="enable-background:new 0 0 512 512" xml:space="preserve" class=""><g><path xmlns="http://www.w3.org/2000/svg" d="m512 256c0 141.386719-114.613281 256-256 256s-256-114.613281-256-256 114.613281-256 256-256 256 114.613281 256 256zm0 0" fill="#f1f1f1" data-original="#4e8dff" style="" class=""/><path xmlns="http://www.w3.org/2000/svg" d="m264.015625 511.863281c1.394531-.042969 2.785156-.09375 4.175781-.160156.734375-.03125 1.464844-.074219 2.195313-.113281 1.328125-.074219 2.648437-.15625 3.96875-.25.714843-.050782 1.425781-.101563 2.136719-.15625 1.472656-.117188 2.941406-.25 4.40625-.390625.527343-.050781 1.054687-.09375 1.582031-.148438 1.972656-.203125 3.941406-.425781 5.898437-.675781.460938-.058594.914063-.125 1.375-.183594 1.507813-.199218 3.011719-.40625 4.515625-.632812.699219-.105469 1.394531-.21875 2.089844-.328125 1.273437-.203125 2.542969-.410157 3.804687-.628907.738282-.128906 1.472657-.257812 2.203126-.394531 1.269531-.230469 2.535156-.476562 3.796874-.726562.679688-.132813 1.359376-.265625 2.039063-.40625 1.570313-.324219 3.136719-.667969 4.695313-1.023438.347656-.078125.695312-.148437 1.039062-.230469 1.871094-.429687 3.726562-.886718 5.582031-1.359374.644531-.164063 1.289063-.339844 1.929688-.511719 1.238281-.324219 2.472656-.65625 3.699219-1 .75-.210938 1.496093-.425781 2.238281-.640625 1.136719-.332032 2.265625-.667969 3.394531-1.011719.753906-.230469 1.503906-.457031 2.253906-.695313 1.175782-.371093 2.34375-.753906 3.511719-1.140624.671875-.222657 1.34375-.4375 2.011719-.664063 1.757812-.601563 3.503906-1.210937 5.242187-1.847656.558594-.203125 1.109375-.417969 1.664063-.625 1.234375-.460938 2.464844-.925781 3.6875-1.402344.765625-.300781 1.527344-.609375 2.292968-.917969 1.007813-.402344 2.015626-.8125 3.015626-1.230468.804687-.335938 1.609374-.675782 2.410156-1.019532.964844-.414062 1.921875-.835937 2.878906-1.261718.796875-.351563 1.597656-.707032 2.390625-1.066407 1.011719-.460937 2.015625-.9375 3.019531-1.410156.71875-.339844 1.4375-.671875 2.152344-1.015625 1.585938-.769531 3.164062-1.554688 4.730469-2.351562.808593-.414063 1.609375-.835938 2.414062-1.257813.863281-.453125 1.722657-.902344 2.582031-1.363281.855469-.460938 1.703126-.925782 2.550782-1.394532.792968-.4375 1.582031-.878906 2.367187-1.324218.867188-.492188 1.734375-.984375 2.59375-1.488282.753907-.433593 1.5-.878906 2.246094-1.324218.875-.519532 1.75-1.039063 2.617187-1.570313.679688-.414062 1.351563-.84375 2.023438-1.265625 1.726562-1.078125 3.441406-2.175781 5.140625-3.296875.59375-.386719 1.1875-.773437 1.773437-1.167969.929688-.617187 1.84375-1.253906 2.761719-1.886718.605469-.414063 1.210938-.832032 1.8125-1.253906.921875-.644532 1.835938-1.300782 2.75-1.957032.566407-.414062 1.136719-.828125 1.703125-1.242187.933594-.6875 1.867188-1.378907 2.792969-2.078125.46875-.351563.929687-.710938 1.394531-1.066406 3.371094-2.585938 6.675782-5.25 9.914063-7.996094.335937-.285156.675781-.570313 1.011719-.855469.976562-.839844 1.941406-1.6875 2.90625-2.539063.398437-.347656.792968-.699218 1.1875-1.050781.964843-.863281 1.921874-1.730469 2.871093-2.605469.335938-.3125.671875-.625 1.003907-.9375 4.5625-4.25 8.96875-8.664062 13.210937-13.234374.1875-.203126.375-.402344.5625-.605469.980469-1.058594 1.945313-2.128907 2.90625-3.207031.214844-.242188.429687-.484376.644531-.726563.980469-1.109375 1.953125-2.226563 2.914063-3.351563.082031-.09375.164062-.191406.246093-.285156 4.238282-4.980468 8.292969-10.125 12.148438-15.421875.09375-.125.183594-.25.273438-.375.925781-1.277343 1.84375-2.5625 2.746093-3.859375.066407-.097656.132813-.191406.203125-.289062 4.753906-6.84375 9.1875-13.925782 13.269532-21.230469.023437-.042969.050781-.085937.074218-.132813 9.066406-16.242187 16.414063-33.574218 21.804688-51.75 1.933594-6.523437 3.617187-13.152343 5.03125-19.882812l-205.738282-205.742188h-89.515624v17.902344l17 17h.902343v3.589844c-25.6875 5.210938-49.351562 17.871094-68.40625 36.925781-25.542969 25.542969-39.609375 59.375-39.609375 95.257813v8.953125h1l16 17h.902344v1.5h-17.902344v37.34375c-10.417968 3.695312-17.902344 13.644531-17.902344 25.316406v44.757813l97.148438 97.148437c2.1875.484375 4.386719.9375 6.597656 1.367187.117188.023438.238282.046876.355469.070313 2.070313.398437 4.152344.769531 6.242187 1.121094.246094.039062.488282.082031.734376.121093 1.953124.320313 3.910156.617188 5.878906.890626.363281.050781.730468.105468 1.097656.15625 1.835938.25 3.683594.472656 5.535156.6875.476563.050781.953125.109374 1.433594.160156 1.738281.191406 3.480469.355468 5.230469.507812.578125.050782 1.152343.105469 1.730469.152344 1.664062.132812 3.339843.242188 5.015624.347656.644532.035156 1.285157.085938 1.929688.121094 1.683594.089844 3.375.152344 5.066406.210938.621094.019531 1.242188.050781 1.863282.070312 2.296874.058594 4.601562.09375 6.914062.09375 2.035156 0 4.066406-.03125 6.089844-.078125.644531-.015625 1.285156-.039063 1.925781-.058594zm0 0" fill="#f1f1f1" data-original="#457be0" style="" class=""/><path xmlns="http://www.w3.org/2000/svg" d="m220.195312 265.546875h152.773438v53.710937h-152.773438zm0 0" fill="#234581" data-original="#234581" style="" class=""/><path xmlns="http://www.w3.org/2000/svg" d="m139.03125 265.546875h116.96875v53.710937h-116.96875zm0 0" fill="#4a5a79" data-original="#4a5a79" style=""/><path xmlns="http://www.w3.org/2000/svg" d="m390.871094 301.355469h-134.871094l-89.515625 53.707031h224.386719zm0 0" fill="#899bbc" data-original="#899bbc" style=""/><path xmlns="http://www.w3.org/2000/svg" d="m121.128906 301.355469h134.871094v53.707031h-134.871094zm0 0" fill="#a8bbde" data-original="#a8bbde" style="" class=""/><path xmlns="http://www.w3.org/2000/svg" d="m408.773438 364.015625c0-14.808594-12.046876-26.855469-26.855469-26.855469h-125.917969l-35.804688 35.804688 35.804688 35.808594h152.773438zm0 0" fill="#091c40" data-original="#091c40" style=""/><path xmlns="http://www.w3.org/2000/svg" d="m130.082031 337.160156c-14.808593 0-26.855469 12.046875-26.855469 26.855469v44.757813h152.773438v-71.613282zm0 0" fill="#3e2f4d" data-original="#3e2f4d" style=""/><path xmlns="http://www.w3.org/2000/svg" d="m238.097656 112.179688h44.757813v45.875h-44.757813zm0 0" fill="#899bbc" data-original="#899bbc" style=""/><path xmlns="http://www.w3.org/2000/svg" d="m229.144531 112.179688h26.855469v45.875h-26.855469zm0 0" fill="#a8bbde" data-original="#a8bbde" style="" class=""/><path xmlns="http://www.w3.org/2000/svg" d="m390.871094 273.902344c0-35.886719-14.066406-69.714844-39.609375-95.257813s-59.375-39.613281-95.261719-39.613281l-35.804688 71.914062 35.804688 71.910157h134.871094zm0 0" fill="#a8bbde" data-original="#a8bbde" style="" class=""/><path xmlns="http://www.w3.org/2000/svg" d="m160.738281 178.644531c-25.542969 25.542969-39.609375 59.371094-39.609375 95.257813v8.953125h134.871094v-143.824219c-35.886719 0-69.714844 14.070312-95.261719 39.613281zm0 0" fill="#c7dbff" data-original="#c7dbff" style="" class=""/><path xmlns="http://www.w3.org/2000/svg" d="m300.757812 103.226562h-44.757812l-17.902344 8.953126 17.902344 8.949218h44.757812zm0 0" fill="#a8bbde" data-original="#a8bbde" style="" class=""/><path xmlns="http://www.w3.org/2000/svg" d="m211.242188 103.226562h44.757812v17.902344h-44.757812zm0 0" fill="#c7dbff" data-original="#c7dbff" style="" class=""/></g></svg>
