<?xml version="1.0"?>
<svg xmlns="http://www.w3.org/2000/svg" xmlns:xlink="http://www.w3.org/1999/xlink" xmlns:svgjs="http://svgjs.com/svgjs" version="1.1" width="512" height="512" x="0" y="0" viewBox="0 0 460 460" style="enable-background:new 0 0 512 512" xml:space="preserve" class=""><g>
<g xmlns="http://www.w3.org/2000/svg">
	<path style="" d="M230,0C102.975,0,0,102.975,0,230c0,121.984,94.968,221.771,215,229.5L459.5,245   c0.319-4.96,0.5-9.959,0.5-15C460,102.975,357.026,0,230,0z" fill="#f1f1f1" data-original="#096c80" class=""/>
	<path style="" d="M459.5,245L240.37,25.5l-0.363,217.304l-183.04,2.729l144.814,144.814L190,434.5l25,25   c4.961,0.32,9.959,0.5,15,0.5C351.984,460,451.771,365.032,459.5,245z" fill="#f1f1f1" data-original="#064855" class=""/>
	<polygon style="" points="240.37,25.5 190.37,25.5 197.556,55.501 218.774,102.337 230.37,192.5 280.37,202.5    330.37,192.5  " fill="#2db8d4" data-original="#2db8d4"/>
	<polygon style="" points="218.121,55.5 250.936,192.5 240.653,202.5 230.37,192.5 197.556,55.5  " fill="#0c8faa" data-original="#0c8faa"/>
	<path style="" d="M200.37,192.5H105L85.868,157H35v35.5c0,41.421,33.579,75,75,75h90.37l10-37.5L200.37,192.5z" fill="#89ebff" data-original="#89ebff" class=""/>
	<path style="" d="M416.346,232.494l-15.368-20.005C387.598,200.083,369.685,192.5,350,192.5H200.37v75h30   l-10.754,86.647l-22.06,50.353l-7.186,30h50l90-167H425C425,254.856,421.871,242.944,416.346,232.494z" fill="#4de1ff" data-original="#4de1ff" class=""/>
	<rect x="330.37" y="212.5" style="" width="20" height="20" fill="#c4f5ff" data-original="#c4f5ff"/>
	<rect x="290.37" y="212.5" style="" width="20" height="20" fill="#c4f5ff" data-original="#c4f5ff"/>
	<rect x="250.37" y="212.5" style="" width="20" height="20" fill="#c4f5ff" data-original="#c4f5ff"/>
	<path style="" d="M400.97,212.5h-30.6v20h45.962C412.358,224.985,407.15,218.229,400.97,212.5z" fill="#c4f5ff" data-original="#c4f5ff"/>
	<rect x="210.37" y="212.5" style="" width="20" height="20" fill="#c4f5ff" data-original="#c4f5ff"/>
	<rect x="170.37" y="212.5" style="" width="20" height="20" fill="#ffffff" data-original="#ffffff"/>
	<rect x="130.37" y="212.5" style="" width="20" height="20" fill="#ffffff" data-original="#ffffff"/>
	<polygon style="" points="218.121,404.5 250.936,267.5 230.37,267.5 197.556,404.5  " fill="#2db8d4" data-original="#2db8d4"/>
</g>
<g xmlns="http://www.w3.org/2000/svg">
</g>
<g xmlns="http://www.w3.org/2000/svg">
</g>
<g xmlns="http://www.w3.org/2000/svg">
</g>
<g xmlns="http://www.w3.org/2000/svg">
</g>
<g xmlns="http://www.w3.org/2000/svg">
</g>
<g xmlns="http://www.w3.org/2000/svg">
</g>
<g xmlns="http://www.w3.org/2000/svg">
</g>
<g xmlns="http://www.w3.org/2000/svg">
</g>
<g xmlns="http://www.w3.org/2000/svg">
</g>
<g xmlns="http://www.w3.org/2000/svg">
</g>
<g xmlns="http://www.w3.org/2000/svg">
</g>
<g xmlns="http://www.w3.org/2000/svg">
</g>
<g xmlns="http://www.w3.org/2000/svg">
</g>
<g xmlns="http://www.w3.org/2000/svg">
</g>
<g xmlns="http://www.w3.org/2000/svg">
</g>
</g></svg>
