<?xml version="1.0" encoding="utf-8"?>
<svg version="1.1" id="Layer_1" xmlns="http://www.w3.org/2000/svg" xmlns:xlink="http://www.w3.org/1999/xlink" x="0px" y="0px"
	width="100px" height="100px" viewBox="0 0 66.7 66.7" style="enable-background:new 0 0 66.7 66.7;" xml:space="preserve">
<g>
	<circle style="fill:#E8E8E8;" cx="33.3" cy="33.3" r="33.3"/>
	<circle style="fill:#FFFFFF;" cx="33.3" cy="33.3" r="32.7"/>
	<path style="fill:#920737;" d="M51.4,28v-0.1c-2,0.6-3.4,2.3-3.7,4.4l0.3,0.1C48.1,30.3,49.5,28.6,51.4,28 M54.7,27.9V28
		c2.5,0.9,3.9,3.7,3,6.3c-0.7,2-2.6,3.3-4.7,3.3c-2.3,0-4.7-1.8-4.9-4.6c-0.1,0-0.3-0.1-0.4-0.1v0.1c0,2.9,2.4,5.3,5.3,5.3
		s5.3-2.4,5.3-5.3C58.3,30.6,56.8,28.6,54.7,27.9 M52.9,27.7h-0.2v0.1h0.2c0.5,0,1,0.1,1.5,0.2v-0.1C53.9,27.7,53.4,27.7,52.9,27.7"
		/>
	<path style="fill:#DF6608;" d="M54.5,26.7h-0.1c0.1,0.3,0.1,0.5,0.1,0.7c0,2.8-2.3,5.1-5.1,5.1h-0.1c-2.4,0-5.1-1.9-5.1-5.1
		s2.7-5.1,5.1-5.1c1.4,0,2.8,0.6,3.8,1.7l0.1-0.1c-1.1-1.2-2.5-1.9-4.1-1.9c-3.1,0-5.5,2.5-5.5,5.5c0,3.1,2.5,5.5,5.5,5.5l0,0
		c3.4,0,5.5-2.8,5.5-5.5C54.6,27.3,54.6,27,54.5,26.7"/>
	<g>
		<path style="fill:#A9A9A9;" d="M22.5,41.2c-0.2,0.1-0.3,0.4-0.4,0.6c-0.1,0.5-0.3,1-0.7,1.5c0.3,0.5,0.8,0.9,1.3,1
			c-0.3,0.2-0.5,0.3-0.9,0.3c-0.5,0-0.9-0.2-1.3-0.5c-0.5,0.4-1.2,0.6-1.9,0.5c-1.1,0-1.9-0.5-1.9-1.3c0-0.6,0.2-1.1,1-1.5l0.5-0.3
			c-0.5-0.4-0.7-0.7-0.7-1.2c0-0.5,0.5-1.1,1.7-1.1c0.9,0,1.6,0.4,1.6,1.1c0,0.6-0.5,0.9-1.1,1.1c0.5,0.4,0.9,0.9,1.3,1.4
			c0.2-0.3,0.3-0.7,0.4-1.1c0-0.2-0.1-0.4-0.2-0.5L22.5,41.2C22.5,41.2,22.5,41.2,22.5,41.2z M18.1,43.1c0,0.6,0.5,0.9,1.2,0.9
			c0.4,0,0.7-0.1,1.1-0.4c-0.4-0.6-0.9-1.1-1.5-1.7C18.2,42.4,18.1,42.7,18.1,43.1 M19.4,41.1c0.6-0.3,0.7-0.6,0.6-0.8
			c0-0.3-0.3-0.5-0.6-0.5s-0.7,0.1-0.7,0.5c0,0.1,0.1,0.3,0.3,0.5C19.1,40.9,19.4,41.1,19.4,41.1z M8.6,32.6c0-0.2-0.1-0.5-0.3-0.5
			h1.6l1.9,3.8l1.9-3.8h1.5c-0.2,0.1-0.3,0.3-0.3,0.5v4.2c0,0.2,0.1,0.4,0.3,0.5h-1.7c0.2-0.1,0.3-0.3,0.3-0.5v-3.5l0,0l-2.1,3.9
			h-0.5l-2.1-3.9l0,0v3.4c0,0.2,0.1,0.4,0.3,0.5H8.3c0.1-0.1,0.3-0.3,0.3-0.5C8.6,36.7,8.6,32.6,8.6,32.6z M16.3,34.2
			c0-0.2-0.1-0.5-0.3-0.5h1.3v3.1c0,0.2,0.1,0.4,0.3,0.5h-1.7c0.2-0.1,0.3-0.3,0.3-0.5V34.2C16.3,34.2,16.3,34.2,16.3,34.2z
			 M16.1,32.6c0-0.3,0.3-0.6,0.7-0.6s0.6,0.3,0.7,0.6c0,0.3-0.3,0.7-0.7,0.7C16.5,33.3,16.2,33,16.1,32.6
			C16.1,32.7,16.1,32.6,16.1,32.6L16.1,32.6 M25.2,37c-0.4,0.2-0.9,0.3-1.4,0.4c-1.4,0-2.1-0.9-2.1-1.9s0.9-1.9,2.1-1.9
			c0.5,0,0.7,0.2,0.9,0.2c0.1,0,0.2-0.1,0.2-0.1v1c-0.2-0.3-0.6-0.5-1-0.5c-0.8,0-1.1,0.7-1.1,1.3c0,0.7,0.5,1.3,1.2,1.3
			c0.5,0,0.8-0.3,1.2-0.5C25.2,36.3,25.2,37,25.2,37z M26.1,32.2c0-0.2-0.1-0.4-0.3-0.5h1.3v2.5h0.1c0.3-0.5,0.8-0.7,1.3-0.7
			c1.1,0,1.1,1,1.1,1.4v1.9c0,0.2,0.1,0.3,0.3,0.5h-1.6c0.1-0.1,0.2-0.3,0.2-0.5v-1.9c0-0.3-0.1-0.6-0.5-0.6c-0.4,0-0.7,0.4-0.9,0.7
			v1.9c0,0.2,0.1,0.4,0.3,0.5h-1.7c0.2-0.1,0.3-0.3,0.3-0.5C26,36.9,26.1,32.2,26.1,32.2z M38,32.3c0-0.2-0.1-0.5-0.3-0.5h1.4v5.1
			c0,0.2,0.1,0.4,0.3,0.5h-1.7c0.2-0.1,0.3-0.3,0.3-0.5C38.1,36.8,38,32.3,38,32.3z M30.7,41.4c0-0.2-0.1-0.4-0.2-0.5h1.4v2.4
			c0,0.4,0.1,0.7,0.5,0.7c0.7,0,0.9-0.9,0.9-1.5v-1c0-0.2-0.1-0.4-0.2-0.5h1.4v2.5c0,0.6,0,0.9,0.1,1.1h-1c-0.1-0.1-0.1-0.3-0.1-0.5
			l0,0c-0.3,0.5-0.7,0.7-1.5,0.7c-0.9,0-1.2-0.7-1.2-1.4L30.7,41.4L30.7,41.4z M39.4,39.5c0-0.2-0.1-0.5-0.3-0.5h1.4V44
			c0,0.2,0.1,0.3,0.3,0.5h-1.7c0.2-0.1,0.2-0.3,0.2-0.5L39.4,39.5C39.3,39.5,39.4,39.5,39.4,39.5z"/>
		<path style="fill:#A9A9A9;" d="M46.3,41.4c0-0.2-0.1-0.4-0.3-0.5h1.3v0.9h0.1c0.2-0.5,0.6-0.9,1.3-0.9c0.2,0,0.4,0,0.6,0.1v0.8
			c-0.2-0.1-0.5-0.3-0.7-0.3c-0.6,0-1.3,1-1.3,1V44c0,0.2,0.1,0.4,0.3,0.5H46c0.2-0.1,0.3-0.3,0.3-0.5L46.3,41.4L46.3,41.4z
			 M40.2,36.1c0.4,0.4,0.9,0.6,1.4,0.6c0.5,0,0.9-0.1,0.9-0.5c0-0.7-2.4-0.3-2.4-1.7c0-0.7,0.8-1.1,1.6-1.1c0.7,0,1,0.1,1.3,0.1
			c0.1,0,0.2-0.1,0.3-0.1v1.1c-0.3-0.3-0.8-0.5-1.3-0.5c-0.5,0-0.8,0.1-0.8,0.4c0,0.7,2.4,0.2,2.4,1.7c0,0.7-0.7,1.1-1.7,1.1
			c-0.5,0-0.9-0.1-1.4-0.2c-0.1,0-0.1,0.1-0.2,0.1L40.2,36.1C40.2,36.1,40.2,36.1,40.2,36.1z M49.9,43.3c0.4,0.5,0.9,0.6,1.4,0.6
			c0.5,0,0.9-0.1,0.9-0.5c0-0.7-2.4-0.3-2.4-1.7c0-0.7,0.8-1.1,1.6-1.1c0.7,0,1,0.1,1.3,0.1c0.1,0,0.1-0.1,0.3-0.1v1
			c-0.3-0.3-0.8-0.5-1.3-0.5c-0.5,0-0.8,0.1-0.8,0.4c0,0.7,2.4,0.2,2.4,1.7c0,0.7-0.7,1.1-1.7,1.1c-0.5,0-1-0.1-1.4-0.2
			c-0.1,0-0.1,0.1-0.2,0.1L49.9,43.3C49.9,43.3,49.9,43.3,49.9,43.3z M25.2,39.8c0-0.2-0.1-0.5-0.3-0.5h2.2c0.8,0,2.3,0,2.3,1.3
			c0,0.7-0.5,1.2-1.1,1.2l0,0c0.7,0,1.6,0.3,1.6,1.3c0,1.3-1.7,1.4-2.7,1.4h-2.2c0.2-0.1,0.3-0.3,0.3-0.5
			C25.2,44,25.2,39.8,25.2,39.8z M27.3,41.5c0.7,0,1.2-0.3,1.2-0.9c0-0.6-0.5-0.9-1.3-0.9h-0.9v1.7L27.3,41.5
			C27.3,41.4,27.3,41.5,27.3,41.5z M27.1,43.9c0.7,0,1.5-0.1,1.5-0.9s-0.8-0.8-1.5-0.8h-0.7v1.7H27.1z M45.2,44.1
			c-0.5,0.3-1.1,0.5-1.7,0.5c-1.4,0-2.3-0.7-2.3-1.9c0-1.1,0.9-1.9,2.1-1.9c1.6,0,1.9,1.1,1.9,2.1h-2.9c0,0.3,0.3,1.1,1.3,1.1
			c0.6,0,1.1-0.2,1.5-0.7L45.2,44.1L45.2,44.1L45.2,44.1z M44.3,42.3c0-0.3-0.1-0.9-0.9-0.9c-0.5,0-0.9,0.3-1,0.9v0.1H44.3z
			 M35.7,41.4h-0.5v-0.5h0.5v-0.7l1.2-0.3v1h1.3v0.5h-1.3v1.9c0,0.3,0,0.7,0.5,0.7c0.3,0,0.6-0.1,0.8-0.3v0.7
			c-0.3,0.1-0.7,0.3-1.1,0.3c-1.1,0-1.5-0.3-1.5-1.4C35.7,43.2,35.7,41.4,35.7,41.4z M34.7,36.9c-0.5,0.3-1.1,0.5-1.7,0.5
			c-1.4,0-2.3-0.7-2.3-1.9c0-1.1,0.9-1.9,2.1-1.9c1.6,0,1.9,1.1,1.9,2.1h-2.9c0,0.3,0.3,1.1,1.3,1.1c0.6,0,1.1-0.3,1.5-0.7
			L34.7,36.9L34.7,36.9L34.7,36.9L34.7,36.9z M33.6,35.1c0-0.3-0.1-0.9-0.9-0.9c-0.5-0.1-0.9,0.3-1,0.9v0.1L33.6,35.1L33.6,35.1z
			 M18.5,34.2h-0.3v-0.5h0.2v-0.8l1.2-0.3v1.1H21v0.5h-1.3v1.9c0,0.3,0,0.7,0.5,0.7c0.3,0,0.6-0.1,0.8-0.3v0.7
			c-0.3,0.1-0.7,0.3-1.1,0.3c-1.1,0-1.5-0.3-1.5-1.4C18.5,36,18.5,34.2,18.5,34.2z M35.8,32.3c0-0.2-0.1-0.5-0.3-0.5H37v5.1
			c-0.1,0.2,0.1,0.4,0.2,0.5h-1.7c0.2-0.1,0.3-0.3,0.3-0.5V32.3C35.7,32.3,35.8,32.3,35.8,32.3z"/>
	</g>
</g>
</svg>
