<?xml version="1.0"?>
<svg xmlns="http://www.w3.org/2000/svg" xmlns:xlink="http://www.w3.org/1999/xlink" xmlns:svgjs="http://svgjs.com/svgjs" version="1.1" width="512" height="512" x="0" y="0" viewBox="0 0 512 512" style="enable-background:new 0 0 512 512" xml:space="preserve" class=""><g><g xmlns="http://www.w3.org/2000/svg"><g><g><g id="XMLID_1700_"><g id="XMLID_1701_"><g id="XMLID_1702_"><g id="XMLID_1703_"><g id="XMLID_1704_"><g id="XMLID_1705_"><g id="XMLID_1706_"><g id="XMLID_1707_"><g id="XMLID_1708_"><g id="XMLID_1709_"><g id="XMLID_1710_"><g id="XMLID_1741_"><g id="XMLID_1742_"><g id="XMLID_1743_"><g id="XMLID_1744_"><circle cx="256" cy="256" fill="#f1f1f1" r="256" data-original="#ffe164" style="" class=""/></g></g></g></g></g></g></g></g></g></g></g></g></g></g></g></g></g><path d="m78.22 439.013c46.042 38.486 108.718 39.064 177.78 39.064 77.74 0 147.39-.727 194.33-55.437 38.44-44.78 61.67-103 61.67-166.64 0-4.753-.14-9.473-.396-14.163l-156.571-156.571z" fill="#f1f1f1" data-original="#ffbf3e" style="" class=""/><path d="m457.33 414.14c-46.88 59.59-119.64 97.86-201.33 97.86s-154.45-38.27-201.33-97.86l64.94-106.9 136.39-10.77 136.39 10.77z" fill="#ededed" data-original="#ededed" style="" class=""/><path d="m457.33 414.14c-22.07 28.06-49.87 51.38-81.64 68.21-1.4.74-2.8 1.47-4.22 2.19-.98.5-1.97.99-2.96 1.47 0 0 0 .01-.01 0-.98.49-1.98.97-2.97 1.44-.46.22-.91.43-1.37.64-.81.38-1.61.76-2.42 1.12-.28.13-.56.25-.83.37-.82.37-1.63.74-2.45 1.09-3.89 1.71-7.84 3.31-11.83 4.82-.13.05-.27.11-.41.15-28.06 10.58-58.47 16.36-90.22 16.36v-215.53l67.44 5.33 68.95 5.44z" fill="#cccbca" data-original="#cccbca" style="" class=""/><g><path d="m182.533 350.379h146.934v30h-146.934z" fill="#ff831d" data-original="#ff831d" style=""/></g><g><g><path d="m256 350.38h73.47v30h-73.47z" fill="#e05f07" data-original="#e05f07" style=""/></g></g><g><g><path d="m153.39 423.521h205.221v30h-205.221z" fill="#ff831d" data-original="#ff831d" style=""/></g></g><g><path d="m256 423.52h102.61v30h-102.61z" fill="#e05f07" data-original="#e05f07" style=""/></g><g><path d="m375.69 482.35c-9.48 5.03-19.32 9.48-29.47 13.3l-5.7-19.7-48.75-168.48h-71.54l-48.75 168.48-5.7 19.7c-10.15-3.82-19.99-8.27-29.47-13.3l1.86-6.4 53.73-185.71h128.2l53.73 185.71z" fill="#515151" data-original="#515151" style="" class=""/></g><g><path d="m375.69 482.35c-1.4.74-2.8 1.47-4.22 2.19-.98.5-1.97.99-2.96 1.47 0 0 0 .01-.01 0-.98.49-1.98.97-2.97 1.44-.46.22-.91.43-1.37.64-.81.38-1.61.76-2.42 1.12-.28.13-.56.25-.83.37-.82.37-1.63.74-2.45 1.09-3.89 1.71-7.84 3.31-11.83 4.82-.14.06-.27.11-.41.16v-.01l-5.7-19.69-6.49-22.43-8.68-30-12.48-43.14-8.68-30-12.42-42.91h-35.77v-17.23h64.1l3.34 11.56 1.58 5.44 48.81 168.71z" fill="#353a3a" data-original="#353a3a" style="" class=""/></g><path d="m392.395 307.237h-272.79v-128.19c0-75.329 61.066-136.395 136.395-136.395 75.329 0 136.395 61.066 136.395 136.395z" fill="#686868" data-original="#686868" style="" class=""/><path d="m392.39 179.05v128.19h-136.39v-264.59c37.66 0 71.76 15.27 96.44 39.95s39.95 58.78 39.95 96.45z" fill="#515151" data-original="#515151" style="" class=""/><g><g><path d="m311.616 307.234h-111.232c-18.13 0-32.963-14.834-32.963-32.963v-67.27l9.164-27.593-9.164-31.758v-2.54c0-18.13 14.833-32.964 32.964-32.964h111.231c18.13 0 32.963 14.834 32.963 32.963v2.54l-9.757 30.914 9.757 28.438v67.27c0 18.13-14.833 32.963-32.963 32.963z" fill="#f41c45" data-original="#f41c45" style="" class=""/><path d="m344.576 141.71v5.94l-7.22 26.972 7.22 32.379v70.662c0 16.262-13.302 29.573-29.564 29.573h-59.012v-195.09h59.012c16.262 0 29.564 13.301 29.564 29.564z" fill="#c60026" data-original="#c60026" style="" class=""/><g><path d="m167.421 147.65h177.158v59.351h-177.158z" fill="#5af9f1" data-original="#5af9f1" style="" class=""/><path d="m256 147.648h88.576v59.35h-88.576z" fill="#47cad1" data-original="#47cad1" style="" class=""/><g><g><g><ellipse cx="294.855" cy="256.519" fill="#f1f1f1" rx="15.784" ry="15.784" transform="matrix(.707 -.707 .707 .707 -95.026 283.627)" data-original="#ffbf3e" style="" class=""/></g><g><ellipse cx="217.145" cy="256.519" fill="#f1f1f1" rx="15.784" ry="15.784" transform="matrix(.23 -.973 .973 .23 -82.402 408.92)" data-original="#ffe164" style="" class=""/></g></g></g></g></g></g></g></g></svg>
