<?xml version="1.0" encoding="utf-8"?>
<svg version="1.1" id="Layer_1" xmlns="http://www.w3.org/2000/svg" xmlns:xlink="http://www.w3.org/1999/xlink" x="0px" y="0px"
	 viewBox="0 0 2279.48 451.8" style="enable-background:new 0 0 2279.48 451.8;" xml:space="preserve">
<g>
	<path style="fill-rule:evenodd;clip-rule:evenodd;fill:#CE3729;" d="M1866.87,71.83v62.99h-26.47l84.46,204.03h25.78v65.86h-135.33
		v-65.86h22.72l-7.37-13.61h-134.43l-7.37,13.61h26.47v65.86h-135.3v-65.86h25.76l84.49-204.03h-26.47V71.83H1866.87z
		 M1768.43,165.61l37.24,94.5h-79.47L1768.43,165.61z M1192.71,71.83h115.99l148.19,176.83V134.83h-26.5V71.84h137.45v62.99h-26.47
		v203.33h26.47v67.29h-90.18l-168.96-204.01v136.74h25.76v67.29h-141.76v-67.29h30.8V134.83h-30.8L1192.71,71.83L1192.71,71.83z
		 M1961.6,71.83h147.48c21.48-5.72,170.38,31.5,170.38,161.07c0,0,5.72,147.48-164.65,172.54h-153.2v-65.85h20.78V134.83h-20.78
		V71.83L1961.6,71.83L1961.6,71.83z M2072.58,134.83c58.69,0,105.94,20.76,111.68,88.05c5.69,78.75-27.21,120.27-111.68,120.27
		V134.83L2072.58,134.83z M847.66,71.83v104.52h-69.45c0,0-15.76-47.25-69.44-41.53c0,0-73.73-10.74-73.73,104.52
		c0,0-5.72,98.8,79.47,98.8c0,0,42.23,10.73,90.91-46.54l58,30.78c0,0-27.2,88.78-148.91,88.78c0,0-158.93,5.72-170.38-166.8
		c0,0-4.29-163.22,148.89-182.56c0,0,58.71,0,73.75,19.32v-9.3H847.66L847.66,71.83z"/>
	<path style="fill-rule:evenodd;clip-rule:evenodd;fill:#CE3729;" d="M847.66,233.64c0-98.08,78.03-177.56,174.68-177.56
		c96.64,0,174.68,79.47,174.68,177.56c0,98.08-78.04,177.53-174.68,177.53C925.69,411.17,847.66,331.7,847.66,233.64z
		 M942.49,233.33c0-57.79,35.63-104.63,79.54-104.63c43.94,0,79.56,46.83,79.56,104.63c0,57.78-35.61,104.61-79.56,104.61
		C978.11,337.95,942.49,291.11,942.49,233.33z M120.23,377.43c-93.16,35.3-164.66-88.6-87.47-151.59
		c-77.17-63.05-5.47-186.97,87.65-151.47c7.9-48.32,53.48-81.09,101.81-73.19c37.59,6.15,67.05,35.61,73.2,73.21
		c93.15-35.28,164.63,88.65,87.43,151.59c77.13,63.02,5.53,186.89-87.6,151.51c-7.02,42.87-44.07,74.33-87.51,74.32
		C164.28,451.82,127.22,420.32,120.23,377.43z"/>
	<path style="fill-rule:evenodd;clip-rule:evenodd;fill:#F7E946;" d="M123.59,354.57c-33.17,19.17-75.59,7.81-94.76-25.35
		c-0.01-0.01-0.02-0.03-0.02-0.04c-19.18-33.16-7.84-75.59,25.32-94.77c7.51-4.34,15.76-7.24,24.34-8.54
		c-37.88-5.77-63.91-41.15-58.14-79.03c1.3-8.55,4.19-16.79,8.52-24.28c19.15-33.19,61.59-44.58,94.78-25.42
		c7.52,4.34,14.15,10.04,19.56,16.83c-3.08-8.07-4.66-16.63-4.66-25.27c0.02-38.32,31.1-69.37,69.42-69.36
		c38.32,0.02,69.37,31.1,69.36,69.42c0,8.6-1.6,17.12-4.72,25.13c24-29.87,67.68-34.63,97.55-10.62
		c29.87,24,34.63,67.68,10.62,97.55c-10.86,13.52-26.39,22.48-43.54,25.12c8.49,1.34,16.66,4.23,24.1,8.53
		c33.18,19.14,44.56,61.56,25.42,94.74c-0.01,0.01-0.02,0.03-0.02,0.04c-19.14,33.19-61.56,44.58-94.75,25.45
		c-7.5-4.33-14.13-10.02-19.54-16.78c3.01,7.83,4.68,16.34,4.68,25.24c-0.03,38.32-31.12,69.37-69.44,69.34
		c-38.32-0.03-69.37-31.12-69.34-69.44c0.01-8.66,1.63-17.24,4.8-25.3C137.74,344.53,131.1,350.24,123.59,354.57L123.59,354.57z"/>
	<path style="fill-rule:evenodd;clip-rule:evenodd;fill:#CE3729;" d="M207.8,156.54c38.32-0.03,69.41,31.01,69.44,69.34
		c0.03,38.32-31.01,69.41-69.34,69.44c-0.03,0-0.07,0-0.1,0c-38.32-0.03-69.37-31.12-69.34-69.44
		C138.49,187.6,169.52,156.57,207.8,156.54z"/>
</g>
</svg>
