<?xml version="1.0" encoding="utf-8"?>
<svg version="1.1" id="Layer_1" xmlns="http://www.w3.org/2000/svg" xmlns:xlink="http://www.w3.org/1999/xlink" x="0px" y="0px"
	width="100px" height="100px" viewBox="0 0 100 100" style="enable-background:new 0 0 100 100;" xml:space="preserve">
<g>
	<path style="fill:#E8E8E8;" d="M50,0c27.61,0,50,22.39,50,50s-22.39,50-50,50S0,77.61,0,50S22.39,0,50,0"/>
	<path style="fill:#FFFFFF;" d="M50,1c27.06,0,49,21.94,49,49S77.06,99,50,99S1,77.06,1,50S22.94,1,50,1"/>
	<g>
		<path style="fill:#FF6600;" d="M22.67,22.67h54.67v54.66H22.67V22.67z"/>
		<path style="fill:#FFFFFF;" d="M71.89,58.21c0.2-5.43-2.62-8.46-7.73-8.46c-4.73,0-7.49,3.44-7.49,8.56c0,5.4,2.75,8.6,7.49,8.6h8
			V63.8h-2.36C70.97,62.65,71.8,60.66,71.89,58.21L71.89,58.21L71.89,58.21z M62.24,58.32c0-2.87,0.61-4.24,1.92-4.24
			c1.31,0,1.92,1.38,1.92,4.24c0,2.87-0.61,4.24-1.92,4.24C62.85,62.56,62.24,61.18,62.24,58.32L62.24,58.32z M38.99,58.17
			c1.89-0.99,2.42-2.18,2.4-4.04c-0.03-2.4-1.74-4.13-5.24-4.13h-7.92v16.93h8.07c2.94,0,5.5-1.61,5.5-4.75
			C41.79,60.11,40.79,58.74,38.99,58.17L38.99,58.17z M33.67,53.84h0.7c0.97,0,1.49,0.44,1.49,1.32c0,0.88-0.52,1.38-1.49,1.38h-0.7
			L33.67,53.84L33.67,53.84z M34.6,63.09h-0.93v-3.02h0.93c0.98,0,1.58,0.49,1.58,1.47C36.18,62.54,35.59,63.09,34.6,63.09
			L34.6,63.09z M56.24,66.95c-0.15-1.01-0.66-2.18-1.47-3.45c0.34-0.34,0.67-0.69,0.99-1.05l-2.07-2.4c-0.3,0.27-0.6,0.54-0.89,0.81
			c-0.42-0.5-0.88-1.02-1.37-1.54c1.43-0.97,2.4-2.22,2.4-3.81c0-1.76-1.56-3.54-4.41-3.54c-2.99,0-4.69,1.72-4.69,3.71
			c0,1.13,0.69,2.24,1.4,3.11c-1.41,0.97-2.63,2.3-2.73,3.95c-0.18,2.93,2.07,4.5,4.83,4.38c1.1-0.04,2.31-0.39,3.69-1.27
			c0.22,0.41,0.38,0.78,0.43,1.08L56.24,66.95L56.24,66.95L56.24,66.95z M49.37,54.69c0.53,0,0.88,0.51,0.88,1.02
			c0,0.35-0.22,0.85-1.02,1.39c-0.49-0.54-0.78-0.99-0.78-1.43C48.45,55.2,48.82,54.69,49.37,54.69L49.37,54.69z M47.81,63.49
			c-0.45-0.37-0.79-1.51,0.49-2.35c0.6,0.67,1.19,1.36,1.76,2.06C49.18,63.77,48.41,63.99,47.81,63.49L47.81,63.49z"/>
	</g>
</g>
</svg>
