<?xml version="1.0"?>
<svg xmlns="http://www.w3.org/2000/svg" xmlns:xlink="http://www.w3.org/1999/xlink" xmlns:svgjs="http://svgjs.com/svgjs" version="1.1" width="512" height="512" x="0" y="0" viewBox="0 0 512 512" style="enable-background:new 0 0 512 512" xml:space="preserve" class=""><g><path xmlns="http://www.w3.org/2000/svg" d="m512 256c0 141.386719-114.613281 256-256 256s-256-114.613281-256-256 114.613281-256 256-256 256 114.613281 256 256zm0 0" fill="#f1f1f1" data-original="#4a7aff" style="" class=""/><path xmlns="http://www.w3.org/2000/svg" d="m509.488281 291.867188-226.507812-226.507813-60.683594 56.050781 37.578125 37.578125-75.3125 40.632813 66.792969 66.796875-41.804688 22.058593-56.300781-56.300781-51.257812 65.296875 31.257812 31.257813-74.75 40.515625 132.339844 134.375c20.804687 5.460937 42.640625 8.378906 65.160156 8.378906 129.210938 0 236.042969-95.730469 253.488281-220.132812zm0 0" fill="#f1f1f1" data-original="#0053bf" style="" class=""/><path xmlns="http://www.w3.org/2000/svg" d="m244.5 169.125h23v100.800781h-23zm0 0" fill="#ffffff" data-original="#ffffff" style=""/><path xmlns="http://www.w3.org/2000/svg" d="m157.382812 346.386719-12.980468-18.988281 115.316406-78.839844 105.921875 69.230468-12.582031 19.253907-93.054688-60.816407zm0 0" fill="#ffffff" data-original="#ffffff" style=""/><path xmlns="http://www.w3.org/2000/svg" d="m267.5 253.648438v-84.523438h-11.5v109.839844l97.058594 58.078125 12.582031-19.253907zm0 0" fill="#dce1eb" data-original="#dce1eb" style=""/><path xmlns="http://www.w3.org/2000/svg" d="m297.609375 97.019531c0 22.980469-18.628906 41.609375-41.609375 41.609375s-41.609375-18.628906-41.609375-41.609375c0-22.976562 18.628906-41.605469 41.609375-41.605469s41.609375 18.628907 41.609375 41.605469zm0 0" fill="#ffd400" data-original="#ffd400" style="" class=""/><path xmlns="http://www.w3.org/2000/svg" d="m256 55.414062v83.214844c22.980469 0 41.609375-18.628906 41.609375-41.609375s-18.628906-41.605469-41.609375-41.605469zm0 0" fill="#fdba12" data-original="#fdba12" style="" class=""/><path xmlns="http://www.w3.org/2000/svg" d="m184.5625 199.621094h142.875c-5.441406-34.558594-35.347656-60.992188-71.4375-60.992188-36.085938 0-65.996094 26.433594-71.4375 60.992188zm0 0" fill="#ffd400" data-original="#ffd400" style="" class=""/><g xmlns="http://www.w3.org/2000/svg" fill="#fdba12"><path d="m256 138.628906v60.992188h71.4375c-5.441406-34.558594-35.347656-60.992188-71.4375-60.992188zm0 0" fill="#fdba12" data-original="#fdba12" style="" class=""/><path d="m423.671875 266.644531c0 22.976563-18.628906 41.605469-41.609375 41.605469s-41.609375-18.628906-41.609375-41.605469c0-22.980469 18.628906-41.609375 41.609375-41.609375s41.609375 18.628906 41.609375 41.609375zm0 0" fill="#fdba12" data-original="#fdba12" style="" class=""/><path d="m310.625 369.246094h142.875c-5.441406-34.5625-35.347656-60.992188-71.4375-60.992188-36.085938 0-65.996094 26.429688-71.4375 60.992188zm0 0" fill="#fdba12" data-original="#fdba12" style="" class=""/></g><path xmlns="http://www.w3.org/2000/svg" d="m171.546875 266.644531c0 22.976563-18.628906 41.605469-41.609375 41.605469s-41.609375-18.628906-41.609375-41.605469c0-22.980469 18.628906-41.609375 41.609375-41.609375s41.609375 18.628906 41.609375 41.609375zm0 0" fill="#ffd400" data-original="#ffd400" style="" class=""/><path xmlns="http://www.w3.org/2000/svg" d="m58.5 369.246094h142.875c-5.441406-34.5625-35.347656-60.992188-71.4375-60.992188-36.085938 0-65.996094 26.429688-71.4375 60.992188zm0 0" fill="#ffd400" data-original="#ffd400" style="" class=""/></g></svg>
