<?xml version="1.0" encoding="utf-8"?>
<svg version="1.1" id="Layer_1" xmlns="http://www.w3.org/2000/svg" xmlns:xlink="http://www.w3.org/1999/xlink" x="0px" y="0px"
	width="100px" height="100px" viewBox="0 0 66.7 66.7" style="enable-background:new 0 0 66.7 66.7;" xml:space="preserve">
<g>
	<path style="fill:#D6BD85;" d="M36.4,25.3h9.8l-0.9-3.6h-9.8C35.5,21.7,36.4,25.3,36.4,25.3z M53.9,28.9c0.3-1,0.4-2.1,0.3-3.1
		c0-7.1-5.8-12.9-12.9-12.9H18.4c-1.1,0.1-2.2-0.3-3-1c-0.5-0.7-0.7-1.5-0.7-2.3C20,5.3,26.6,3.1,33.4,3.1
		c16.7,0,30.2,13.5,30.2,30.3c0,2.1-0.2,4.2-0.7,6.2C62.3,34.5,58.7,30.4,53.9,28.9 M45,61.2l-2.8-2.4c-3.7-3.1-5.3-8-4.6-12.8v-0.2
		c2.2,3.3,6.5,4.2,9.7,2.1c3.1-1.9,4.1-5.9,2.5-9.1c7.6,0.8,10.5,3.5,10.5,3.6l1.4,1.4C58.8,51.7,52.7,58,45,61.2 M33.3,63.6
		c-8,0-15.6-3.2-21.3-8.8v-9.5c0-7.7,6.2-13.9,13.9-13.9h0.1h0.7h22.5c-1.2,1.7-3,3.1-5,3.7l-4.3,1.4l4.3,1.5l0.1,0.1
		c0.5,0.2,1.1,0.5,1.5,0.9c0.9,0.7,1.5,1.9,1.5,3.1c-0.1,2.2-1.9,3.9-4.1,3.8c-2.1-0.1-3.6-1.7-3.9-3.7v-0.4c0-0.7,0.1-1.5,0.3-2.3
		l-2.4-0.9l-0.1,0.1c-1.4,2-2.3,4.3-2.7,6.7c-1,5.8,1.1,11.7,5.6,15.6l1.5,1.3C38.9,63.2,36.1,63.6,33.3,63.6 M8.9,45.3v5.9
		C5.1,46,3,39.7,3.1,33.3c0-6.9,2.4-13.7,6.7-19.1v0.1c0.1,6.5,3.7,12.3,9.5,15.3C13,32.3,8.9,38.5,8.9,45.3 M52.8,31.8
		c3.1,0.9,5.6,3.3,6.6,6.3c-3.1-1.4-6.3-2.2-9.7-2.5C51,34.6,52,33.3,52.8,31.8 M13.1,13.9c1.4,1.4,3.3,2.1,5.3,2.1h22.9
		c5.5,0,9.9,4.4,9.9,9.8c0,0.9-0.1,1.7-0.3,2.5h-0.7H26.9c-7.7,0-13.9-6.1-13.9-13.8C13,14.3,13,14.1,13.1,13.9 M33.3,0
		C14.9,0,0,14.9,0,33.3s14.9,33.3,33.3,33.3s33.3-14.9,33.3-33.3S51.7,0,33.3,0"/>
</g>
</svg>
