<svg xmlns="http://www.w3.org/2000/svg" width="284.847" height="38.806" fill="#98002e" fill-rule="evenodd" xmlns:v="https://vecta.io/nano"><path d="M41.328 16.829c0 3.687-1.268 6.782-4.136 10.251V6.675c2.482 2.254 4.136 6.233 4.136 10.154m3.586-.173c0-5.13-2.815-10.812-7.063-14.061-1.267-.998-1.982-1.438-4.243-2.594v38.503h3.583v-6.616c5.794-5.904 7.722-9.658 7.722-15.231m13.422.172c0 3.687-1.273 6.782-4.143 10.251V6.675c2.488 2.254 4.143 6.233 4.143 10.154m4.411 21.79V35.03c-3.034-.666-5.133-2.315-6.62-5.239 4.579-5.08 5.798-7.892 5.798-13.074 0-5.191-2.818-10.814-7.066-14.122-1.27-.998-1.986-1.438-4.249-2.594v38.503h3.583v-5.626c1.934 3.53 4.746 5.405 8.554 5.741m14.197-.117v-3.591h-5.955v-4.243h5.955v-3.589h-5.955V5.291h5.955V1.708h-9.544v36.793h9.544zM93.929 5.291V1.708H81.738v3.583h4.306v33.21h3.583V5.291h4.302zm22.392 22.561h-3.854l1.929-10.24 1.925 10.24zm5.228 10.569L114.396.054l-7.159 38.367h3.302l1.267-6.991h5.177l1.263 6.991h3.304zm31.916-.001V.603l-7.32 10.294L138.766.603V38.42h3.58V13.098l3.8 5.119 3.743-5.119V38.42h3.577zm16.051-10.568h-3.854l1.929-10.24 1.925 10.24zm5.231 10.569L167.592.054l-7.156 38.367h3.302l1.267-6.991h5.174l1.267 6.991h3.304zm19.102-.001V1.704h-3.577v11.669L181.739.988V38.42h3.58V12.932l4.954 7.211V38.42h3.577zm20.478-6.218v-5.344h-6.824v3.58h3.244v1.597c0 2.092-.877 3.193-2.583 3.193s-2.589-1.101-2.589-3.193V8.142c0-2.092.88-3.193 2.589-3.193s2.583 1.101 2.583 3.193v2.039h3.58V7.979c0-3.853-2.586-6.606-6.163-6.606s-6.169 2.753-6.169 6.606v24.223c0 3.8 2.589 6.604 6.169 6.604s6.163-2.804 6.163-6.604m17.282 6.218v-3.577h-5.947v-4.241h5.947v-3.578h-5.947V5.282h5.947V1.704h-9.522V38.42h9.522zm16.188-21.605c0 3.645-1.252 6.693-4.079 10.123V6.798c2.449 2.234 4.079 6.152 4.079 10.017m4.356 21.5v-3.539c-2.992-.654-5.063-2.287-6.532-5.171 4.519-5.008 5.717-7.782 5.717-12.899s-2.776-10.667-6.967-13.935c-1.252-.978-1.959-1.412-4.193-2.558v37.993h3.541v-5.553c1.903 3.484 4.679 5.336 8.435 5.662m21.537-29.842l2.992 8.772h8.164l-6.534 4.597 2.544 7.983-7.166-4.656-7.111 4.595 2.541-7.922-6.652-4.597h8.228l2.995-8.772zM11.22 8.715l2.992 8.769h8.161l-6.528 4.6 2.538 7.981-7.162-4.656-7.111 4.595 2.541-7.92L0 17.484h8.221l2.998-8.769z"/></svg>