<?xml version="1.0" encoding="utf-8"?>
<svg version="1.1" id="Layer_1" xmlns="http://www.w3.org/2000/svg" xmlns:xlink="http://www.w3.org/1999/xlink" x="0px" y="0px"
	 viewBox="0 0 737 259.9" style="enable-background:new 0 0 737 259.9;" xml:space="preserve">
<g>
	<path style="fill:#0F386C;" d="M290.7,40.8L290.7,40.8c1.7,0.2,3.3,0.6,5.3,1.8c5.9,3.3,9.8,12.4,9.8,37.9
		c0,23.5-2.5,34.4-6.1,39.1c-1.9,2.7-5.1,4.7-7.2,5.1v1.3c24.6-2.7,43.9-18.3,43.9-43.9c0-24.5-19.3-41.4-45.6-42.6V40.8z"/>
	<path style="fill:#0F386C;" d="M343.9,64.2L343.9,64.2v45.1c0,10.5-2.5,12.7-9.6,14v1.4h47v-1.4c-6.2-1.2-8.6-3.7-8.6-12.4V39.7
		l-0.4-0.4L335.5,50v1c1,0.4,2.7,1.6,3.3,2.2C342,55.4,343.9,57.8,343.9,64.2"/>
	<path style="fill:#0F386C;" d="M250.1,203.6L250.1,203.6c3.3,5.3,9.9,6.4,15.2,3.1c5.2-3.3,7.2-9.7,3.9-15.2
		c-3.5-5.3-10.1-6.4-15.4-2.9C248.6,192,246.6,198.4,250.1,203.6"/>
	<path style="fill:#0F386C;" d="M136.1,65.5L136.1,65.5l-16.6,2.3v1.4h41.7c0-15.4-10-28.8-32.8-29.8V41
		C133.7,42.8,135.7,53.9,136.1,65.5"/>
	<path style="fill:#0F386C;" d="M125.7,126L125.7,126c25.5,0,36.1-19.8,38.4-30.1l-1.2-0.8c-4.1,6-10.7,10.1-22.2,10.1
		c-16,0-26.5-10.5-26.5-32.3c0-20.2,4.1-29.2,9.9-31.7v-1.6c-22.6,3.3-39,20.2-39,44.9C85.2,106,98.6,126,125.7,126"/>
	<path style="fill:#0F386C;" d="M214.9,49.8L214.9,49.8c0.6,0,1.4,0.2,1.6,0.2c-1.4,1.7-2.5,5.1-2.5,8.3c0,7.4,5.7,12.7,13.5,12.7
		c8.8,0,15.2-6.2,15.2-15.6c0-9.7-6.1-15.9-16.2-15.9c-8.6,0-16.6,7.4-18.7,14.6v0.8C209.8,50.9,212.7,49.8,214.9,49.8"/>
	<path style="fill:#0F386C;" d="M214.5,123.3L214.5,123.3c-6.8-1-10.9-4.3-10.9-13.4V39.7l-0.4-0.4L166.3,50v1
		c1,0.4,2.7,1.6,3.5,2.3c3.1,2.2,4.9,4.5,4.9,10.9v45.1c0,10.5-2.5,12.7-9.5,14v1.4h49.3V123.3z"/>
	<path style="fill:#0F386C;" d="M665.6,173.3L665.6,173.3v1.4c9,1.6,18.9,14.8,22.2,26.5h1.4l-1-24.7
		C685.3,175.4,674.4,173.3,665.6,173.3"/>
	<path style="fill:#0F386C;" d="M603,68.3L603,68.3v42.6c0,8.8-2.5,11.3-8.8,12.4v1.4h47v-1.4c-6.8-1.3-9.6-3.5-9.6-14V64.2
		c0-14.4-3.9-24.7-20.1-24.7c-11.9,0-23.2,8-28.5,16.3v0.6c2.5-1,5.3-1.7,8.2-1.7C599.9,54.7,603,58.7,603,68.3"/>
	<path style="fill:#0F386C;" d="M550.4,68.3L550.4,68.3v42.6c0,8.8-2.3,11.3-8.8,12.4v1.4h45.8v-1.4c-6.4-1.2-8.2-3.5-8.2-12.4V64.2
		c0-14.4-3.9-24.7-20.3-24.7c-11.9,0-23.2,8-28.3,16.3v0.6c2.3-1,5.1-1.7,8-1.7C547.5,54.7,550.4,58.7,550.4,68.3"/>
	<path style="fill:#0F386C;" d="M486.2,123.3L486.2,123.3c-6.8-1.3-10.1-3.7-10.1-14V65.2c0-7.4,0.4-17.9,0.6-25.5l-0.4-0.4
		L438.7,50v1c1,0.4,2.9,1.8,3.7,2.3c3.1,2.3,5.1,4.9,5.1,11.3v44.7c0,10.5-2.5,12.7-9.6,14v1.4h48.3V123.3z"/>
	<path style="fill:#0F386C;" d="M688.7,126L688.7,126v-1.2c-1.8-0.4-3.5-1-5.3-2.1c-5.8-3.3-10-12.3-10-37.9
		c0-23.3,2.7-34.6,6.3-39.1c1.9-2.7,4.5-4.3,7-4.7v-1.6C662.5,42,643,57.9,643,83.6C643,108,662.1,125.1,688.7,126"/>
	<path style="fill:#0F386C;" d="M535.2,123.3L535.2,123.3c-6.2-1.2-8.6-3.7-8.6-12.4V39.7l-0.4-0.4L489.6,50v1
		c0.8,0.4,2.5,1.6,3.3,2.3c3.1,2.2,4.9,4.5,4.9,10.9v45.1c0,10.5-2.5,12.7-9.5,14v1.4h47V123.3z"/>
	<path style="fill:#0F386C;" d="M461.7,34.8L461.7,34.8c8.6,0,15.6-6,15.6-14.8c0-8.6-7-14.6-15.6-14.6c-8.8,0-15.8,6-15.8,14.6
		C445.9,28.8,452.9,34.8,461.7,34.8"/>
	<path style="fill:#0F386C;" d="M498.4,168.8L498.4,168.8c8.8,0,15.8-6,15.8-14.8c0-8.6-7-14.6-15.8-14.6c-8.6,0-15.6,6-15.6,14.6
		C482.7,162.8,489.8,168.8,498.4,168.8"/>
	<path style="fill:#0F386C;" d="M397.7,68.3L397.7,68.3v42.6c0,8.8-2.3,11.3-8.4,12.4v1.4h46.8v-1.4c-6.8-1.3-9.4-3.5-9.4-14V64.2
		c0-14.4-5.5-24.7-21.6-24.7c-11.9,0-23.2,8-28.5,16.3v0.6c2.5-1,5.8-1.7,8.8-1.7C393.8,54.7,397.7,58.7,397.7,68.3"/>
	<path style="fill:#0F386C;" d="M617.1,243.1L617.1,243.1V198c0-14.4-5.2-24.7-21.6-24.7c-11.9,0-23.2,8-28.3,16.1v0.6
		c2.3-0.8,5.6-1.6,8.6-1.6c8.6,0,12.3,4.1,12.3,13.6v42.4c0,8.9-2.3,11.5-8.4,12.6v1.2h46.8v-1.2
		C619.6,255.8,617.1,253.6,617.1,243.1"/>
	<path style="fill:#0F386C;" d="M563.1,244.5L563.1,244.5v-71l-0.4-0.6l-36.9,10.9v1c1,0.4,2.7,1.4,3.5,2.1
		c3.1,2.3,4.9,4.7,4.9,11.1v45.1c0,10.5-2.5,12.6-9.6,14v1.2h47v-1.2C565.4,256,563.1,253.4,563.1,244.5"/>
	<path style="fill:#0F386C;" d="M388,173.3L388,173.3c-8.8,0-16.8,7.4-18.9,14.6v0.8c2.1-3.9,5.3-5.3,7.4-5.3c0.6,0,1.4,0.2,1.6,0.4
		c-1.4,1.8-2.7,5.1-2.7,8.4c0,7.4,5.8,12.6,13.4,12.6c9,0,15.4-6.2,15.4-15.6C404.2,179.3,398.1,173.3,388,173.3"/>
	<path style="fill:#0F386C;" d="M475.3,241.6L475.3,241.6c-2.3,0.8-7.8,1.9-12.3,1.9c-9.7,0-15.2-4.7-15.2-15v-42.4h24.4l1.8-10.5
		h-26.1V154l-2.3-1.2L409.4,183v3.1h9.5v49.8c0,18.7,11.7,23.9,25.2,23.9c14.8,0,26.9-9.9,31.2-17.3V241.6z"/>
	<path style="fill:#0F386C;" d="M513,243.3L513,243.3v-44.2c0-7.4,0.4-17.9,0.6-25.3l-0.4-0.6l-37.6,10.9v0.8c1,0.4,2.9,1.7,3.7,2.3
		c3.1,2.3,4.9,4.9,4.9,11.3v44.7c0,10.5-2.5,12.8-9.6,14v1.4h48.4v-1.4C516.3,256.2,513,253.6,513,243.3"/>
	<path style="fill:#0F386C;" d="M691.4,39.5L691.4,39.5v1.3c1.6,0.2,3.3,0.6,5.1,1.8c6,3.3,9.9,12.4,9.9,37.9
		c0,23.5-2.7,34.4-6.2,39.1c-1.7,2.7-4.9,4.7-7.2,5.1v1.3c24.6-2.7,44.1-18.3,44.1-43.9C737,57.6,717.5,40.7,691.4,39.5"/>
	<path style="fill:#0F386C;" d="M630.9,228.5L630.9,228.5h-1.4l1,26.3c5.1,2.3,16.8,5.1,25.2,5.1v-1.2
		C647.5,256.2,634.3,240.6,630.9,228.5"/>
	<path style="fill:#0F386C;" d="M670.5,203.5L670.5,203.5c-8.6-5.3-17.9-9.9-17.9-18.3c0-6.2,4.1-9.3,7.8-10.3v-1.4
		c-17.5,1.8-29.8,12.3-29.8,26.6c0,15.6,11.1,22.8,21.8,29c9.7,5.4,18.1,10.3,18.1,18.1c0,7-3.7,10.5-9.4,11.5v1.2
		c19.9-1.4,32.4-11.3,32.4-29.2C693.5,218.6,682.8,210.8,670.5,203.5"/>
	<path style="fill:#0F386C;" d="M28.8,111.5L28.8,111.5c-4.7-7.4-13.8-8.8-21.1-4.3c-7.4,4.7-10.1,13.6-5.5,20.8
		c4.5,7.4,13.6,8.8,21.1,4.1C30.8,127.6,33.5,118.6,28.8,111.5"/>
	<path style="fill:#0F386C;" d="M86.9,10.1L86.9,10.1V8.7H24.5v1.4c10.5,1.7,14.6,6,14.6,21.4v79.7c0,2.3-0.2,4.7-0.2,6.8h-0.2
		c0,0-0.4,13.6-16,21c0,0,15,2.3,29.6-5.3c4.5-2.1,8-4.9,10.7-7.8c0-0.2,0.2-0.2,0.2-0.4c7.8-8.6,8.8-18.7,9-21.2v-73
		C72.3,15.3,77.2,11.8,86.9,10.1"/>
	<polygon style="fill:#0F386C;" points="153,259.5 153,259.5 153.2,259.3 152.8,259.5 	"/>
	<path style="fill:#0F386C;" d="M228.9,234.4L228.9,234.4l-2.7-69.1c-0.8-16.1,4.3-20,14.6-21.4v-1.6h-48.6h-0.4l-24,61.1l3.3,7.4
		l21.4-55.2l3.1,81.5c0.6,14.8-5.6,18.3-14.6,19.8v1.4h62.8v-1.4C233.7,255.2,229.5,250.9,228.9,234.4"/>
	<path style="fill:#0F386C;" d="M165.7,209.1L165.7,209.1l-29.6-66.7H83.4v1.6c5.8,0.8,11.7,3.5,16.2,7.6
		c4.9,4.3,8.6,10.5,12.3,18.5l40,89.3l0.2-0.4l0.6,0.2l16.4-42.6l-3.3-7.6V209.1z"/>
	<path style="fill:#0F386C;" d="M111.7,249.2L111.7,249.2c-3.7-4.1-4.9-11.3-4.9-18.9l2.9-53.5l-4.5-9.5l-4.1,59.3
		c-0.8,6-1.8,10.3-2.9,13.4c-1.4,2.5-2.9,4.9-4.5,7c-0.2,0-0.4,0.2-0.4,0.2h0.2c-0.6,0.8-1,1.4-1.6,1.9c-4.3,4.9-9,6.8-16,8v1.2
		h52.3v-1.2C120.9,256.4,116.2,254.2,111.7,249.2"/>
	<path style="fill:#0F386C;" d="M327.2,246.2L327.2,246.2c-0.8,0.6-2.7,1.4-4.5,1.4c-4.5,0-6.6-2.3-6.6-7.8V199
		c0-15.9-8-25.7-28.3-25.7c-9.7,0-20.8,4.5-28.1,9.3v0.6c16.6,0,27.5,4.1,27.5,17.3v37.9c0,14,6.4,21.4,18.9,21.4
		c11.7,0,18.7-6.6,21.1-12.8V246.2z"/>
	<path style="fill:#0F386C;" d="M271,231.9L271,231.9c0-4.3,1-8.4,2.9-11.3c1.7-2.5,5.8-4.1,9-5.4v-1.4c-8,2.1-28.1,6.8-31.8,8.2
		c-3.5,1.4-8.6,7.6-8.6,17.3c0,11.5,7.2,20.6,21.1,20.6c11.7,0,19.5-9.1,21.1-13.6v-0.8c-1,0.8-3.5,1.6-5.6,1.6
		C273.5,247,271,243.3,271,231.9"/>
	<path style="fill:#0F386C;" d="M365,243.7L365,243.7v-70.2l-0.4-0.6l-36.6,10.9v1c1,0.4,2.5,1.4,3.3,2.1c3.1,2.3,5.1,4.7,5.1,11.1
		v45.1c0,10.5-2.7,12.6-9.7,14v1.2h49.5v-1.2C369.1,256.2,365,252.9,365,243.7"/>
	<path style="fill:#0F386C;" d="M268.9,43.9L268.9,43.9c-15.6,6.8-26.5,20.6-26.5,39.7c0,24.3,19.3,41.4,45.6,42.4v-1.2
		c-1.6-0.4-3.5-1-5.1-2.1c-6.1-3.3-10-12.3-10-37.9c0-23.3,2.7-34.6,6.2-39.1c1.8-2.7,4.3-4.3,7-4.7v-1.6c-4.3,0.6-8.2,1.3-12.1,2.5
		c5.1-8.2,6.6-7.6,6.6-7.6c6.6,0.2,12.1-2.2,12.1-2.2c21.5-7,22-32.1,22-32.1L314.1,0c-0.2,0.4-0.6,0.8-0.8,1.2
		c-3.9,4.1-9.1,6.2-14.6,7.4C279,12.8,277,21.4,277.2,29.4l0.2,1.6c8.2-8.8,18.1-13.8,21.8-15.4l0.2,0.8
		C282.5,25.7,270.4,41.8,268.9,43.9"/>
</g>
</svg>
