<?xml version="1.0"?>
<svg xmlns="http://www.w3.org/2000/svg" xmlns:xlink="http://www.w3.org/1999/xlink" xmlns:svgjs="http://svgjs.com/svgjs" version="1.1" width="512" height="512" x="0" y="0" viewBox="0 0 512 512" style="enable-background:new 0 0 512 512" xml:space="preserve" class=""><g><path xmlns="http://www.w3.org/2000/svg" d="m512 256c0 141.386719-114.613281 256-256 256s-256-114.613281-256-256 114.613281-256 256-256 256 114.613281 256 256zm0 0" fill="#f1f1f1" data-original="#61729b" style="" class=""/><path xmlns="http://www.w3.org/2000/svg" d="m348.203125 164.617188-1.457031 1.457031-67.28125-67.277344-39 15-20.464844 32.535156-57.078125-57.765625-14.84375 14.84375 9.636719 51.882813 68.285156 68.039062-24.609375 24.609375-78.394531-78.148437-15.601563 25.601562-10.164062-.496093-14.835938 14.835937 67.9375 68.265625 7.339844 36.980469 94.660156 94.6875.488281 19.628906 73.050782 73.050781c87.070312-24.648437 155.269531-94.210937 177.988281-182.070312zm0 0" fill="#f1f1f1" data-original="#47568c" style="" class=""/><path xmlns="http://www.w3.org/2000/svg" d="m235.84375 309.597656c1.195312 6.789063 2.394531 13.582032 3.59375 19.972656h-46.535156c-27.5625 0-49.933594-22.367187-49.933594-49.929687 0-27.566406 22.371094-49.933594 49.933594-49.933594h33.152344c.601562 6.789063 1 13.582031 1.796874 19.972657h-34.949218c-16.578125 0-29.960938 13.382812-29.960938 29.960937 0 16.574219 13.382813 29.957031 29.960938 29.957031zm0 0" fill="#61d7a8" data-original="#61d7a8" style="" class=""/><path xmlns="http://www.w3.org/2000/svg" d="m362.671875 199.746094c0 27.5625-22.371094 49.933594-49.933594 49.933594h-34.953125c.800782-6.390626 1.398438-12.984376 1.800782-19.972657h33.152343c16.578125 0 29.957031-13.382812 29.957031-29.960937s-13.378906-29.957032-29.957031-29.957032h-30.160156v-19.972656h30.160156c27.5625 0 49.933594 22.367188 49.933594 49.929688zm0 0" fill="#00ab94" data-original="#00ab94" style="" class=""/><path xmlns="http://www.w3.org/2000/svg" d="m362.671875 309.597656v19.972656h-96.472656c1.199219-6.390624 2.398437-12.980468 3.597656-19.972656zm0 0" fill="#00ab94" data-original="#00ab94" style="" class=""/><path xmlns="http://www.w3.org/2000/svg" d="m252.820312 88.566406c-24.96875 0-39.949218 18.574219-39.949218 49.929688 0 119.839844 14.980468 191.074218 30.359375 252.191406l9.589843 38.746094 9.585938-38.746094c15.378906-61.117188 30.359375-132.351562 30.359375-252.191406 0-31.355469-14.980469-49.929688-39.945313-49.929688zm9.984376 101.195313h-19.972657v-61.25h19.972657zm0 0" fill="#b1c3cd" data-original="#bbdcff" style="" class=""/><path xmlns="http://www.w3.org/2000/svg" d="m292.765625 138.496094c0 119.839844-14.980469 191.074218-30.359375 252.191406l-9.585938 38.746094v-239.671875h9.984376v-61.25h-9.984376v-39.945313c24.964844 0 39.945313 18.574219 39.945313 49.929688zm0 0" fill="#9abadb" data-original="#9abadb" style=""/><path xmlns="http://www.w3.org/2000/svg" d="m262.804688 149.816406v19.972656h-69.902344c-27.5625 0-49.933594-22.371093-49.933594-49.933593v-31.289063h19.972656v31.289063c0 16.578125 13.382813 29.960937 29.960938 29.960937zm0 0" fill="#61d7a8" data-original="#61d7a8" style="" class=""/><path xmlns="http://www.w3.org/2000/svg" d="m142.96875 189.761719h-19.972656v-19.972657h-19.972656v19.972657h-20.640626v19.972656h20.640626v19.972656h19.972656v-19.972656h19.972656zm0 0" fill="#b1c3cd" data-original="#e0f4ff" style="" class=""/><path xmlns="http://www.w3.org/2000/svg" d="m402.617188 369.515625h-19.972657v-19.972656h-19.972656v19.972656h-19.976563v19.972656h19.976563v19.972657h19.972656v-19.972657h19.972657zm0 0" fill="#b1c3cd" data-original="#bbdcff" style="" class=""/><path xmlns="http://www.w3.org/2000/svg" d="m252.820312 149.816406h9.984376v19.972656h-9.984376zm0 0" fill="#00ab94" data-original="#00ab94" style="" class=""/></g></svg>
