<?xml version="1.0"?>
<svg xmlns="http://www.w3.org/2000/svg" xmlns:xlink="http://www.w3.org/1999/xlink" xmlns:svgjs="http://svgjs.com/svgjs" version="1.1" width="512" height="512" x="0" y="0" viewBox="0 0 512 512" style="enable-background:new 0 0 512 512" xml:space="preserve" class=""><g><g xmlns="http://www.w3.org/2000/svg"><g><g><g><g><g><g><circle cx="256" cy="256" fill="#f1f1f1" r="256" data-original="#6aa8ff" style="" class=""/></g></g></g></g></g></g><path d="m342.883 169.312h-164.762s-48.297 3.246-48.297 55.72l-46.421-.911v136.258l-9.891 1.003 148.348 148.347c11.17 1.488 22.563 2.271 34.14 2.271 141.385 0 256-114.615 256-256 0-28.876-4.785-56.633-13.599-82.527l-103.103-103.103z" fill="#f1f1f1" data-original="#4894ff" style="" class=""/><g><g><path d="m124.07 361.38h-50.558v-147.26h53.547v20h-33.547v107.26h30.558z" fill="#ffcc00" data-original="#ffcc00" style=""/></g><g><path d="m181.867 288.928c-35.735 0-64.809-29.073-64.809-64.809s29.073-64.808 64.809-64.808v20c-24.708 0-44.809 20.101-44.809 44.808 0 24.708 20.101 44.809 44.809 44.809z" fill="#ffdd55" data-original="#ffdd55" style=""/></g><path d="m219.543 291.91-41.422 21.441v-62.863h41.422z" fill="#9330a0" data-original="#9330a0" style=""/><g><path d="m257.699 353.67h-108.125v-40.319h108.125l34.433 20.159z" fill="#7f6d67" data-original="#7f6d67" style=""/><path d="m257.699 313.351h108.125v40.32h-108.125z" fill="#635550" data-original="#635550" style=""/></g><path d="m178.121 140.37h41.422v57.884h-41.422z" fill="#ffdd55" data-original="#ffdd55" style=""/><path d="m257.699 136.333c-12.538 2.541-25.346 4.037-38.156 4.037v57.884c12.81 0 25.618 1.496 38.156 4.037l35.888-32.979z" fill="#ffcc00" data-original="#ffcc00" style=""/><path d="m257.699 202.29c73.472 14.892 137.598 65.963 137.598 65.963v-197.883s-64.126 51.071-137.598 65.963z" fill="#edbe00" data-original="#edbe00" style=""/><g><path d="m257.699 410.75h-134.598v-80.639h134.598l43.819 40.32z" fill="#635550" data-original="#635550" style=""/><path d="m257.699 330.111h134.598v80.639h-134.598z" fill="#504541" data-original="#504541" style=""/></g></g><g><path d="m424.829 380.431h-59.005v-20h39.005v-40.32h54.475v20h-34.475z" fill="#9330a0" data-original="#9330a0" style=""/></g></g></g></svg>
