<?xml version="1.0" encoding="utf-8"?>
<svg version="1.1" id="Layer_1" xmlns="http://www.w3.org/2000/svg" xmlns:xlink="http://www.w3.org/1999/xlink" x="0px" y="0px"
	 viewBox="0 0 1886.7 726.6" style="enable-background:new 0 0 1886.7 726.6;" xml:space="preserve">
<g>
	<g>
		<polygon points="731.3,324.3 678.7,324.3 678.7,261.5 677,261.5 622.6,261.5 620.9,261.5 620.9,446.7 622.6,446.7 622.6,446.7 
			622.6,448.4 678.7,448.4 678.7,375.3 731.3,375.3 731.3,446.7 731.3,448.4 787.4,448.4 787.4,446.7 787.4,261.5 731.3,261.5 		"/>
		<path d="M950.2,371.8c-0.1-1.1-0.2-2.3-0.4-3.4c-2.1-14.6-8.6-27.9-19.7-39c-13.6-13.6-32.3-20.4-54.4-20.4
			c-9.3,0-17.9,1.6-26.7,3.7c-0.8,0.2-1.6,0.4-2.4,0.6c-3.2,0.8-6.5,1.6-9.9,2.5c-11.9,6.8-22.1,15.3-28.9,27.2
			c-4.2,6.4-7.2,14.1-8.8,21.9c-0.5,2.3-0.8,4.7-1.1,7c-0.2,1.5-0.3,3.1-0.3,4.6c0,0.8,0,1.5,0,2.2c0,2.3,0.1,4.6,0.3,6.9
			c0.1,1.1,0.2,2.3,0.4,3.4c2.1,14.6,8.6,27.9,19.7,39c4.8,4.8,9.9,8.7,15.3,11.9c2.2,1.3,4.4,2.4,6.7,3.4c10.3,4.6,21.6,6.8,34,6.8
			c0.3,0,0.5,0,0.8,0c0,0,0,0,0,0c0.8,0,1.7,0,2.5-0.1c-0.8,0-1.6,0.1-2.5,0.1c0.3,0,0.6,0,0.9,0c22.1,0,39.1-6.8,54.4-20.4
			c13.6-13.6,20.4-28.9,20.4-47.6c0-0.6,0-1.1,0-1.7c0-0.6,0-1.1,0-1.7C950.5,376.4,950.4,374.1,950.2,371.8z M892.7,405.9
			C892.7,405.9,892.7,405.9,892.7,405.9c-5.1,5.1-10.1,8.4-16.9,8.5c0,0-0.1,0-0.1,0c-6.8,0-13.6-3.4-17-8.5
			c-5.1-5.1-6.8-13.6-6.8-25.5c0-11.9,1.7-20.4,6.8-25.5s10.2-8.5,17-8.5c15.3,0,23.8,11.9,23.8,34
			C899.5,392.3,896.1,400.8,892.7,405.9z M930.1,428c-1.7,1.7-3.5,3.3-5.3,4.9C926.6,431.3,928.4,429.7,930.1,428
			c2.6-2.6,4.9-5.3,7-8.1C935.1,422.7,932.7,425.4,930.1,428z"/>
		<path d="M1157.8,273.4h-52.7v39.1h-20.4v23.3c-1.7-3.6-3.9-6.8-6.8-9.7c-10.2-11.9-27.2-17-52.7-17c-0.6,0-1.2,0-1.9,0
			c-0.5,0-1,0-1.5,0v0c-20.4,0-35.7,3.4-47.6,11.9c-11.9,6.8-18.7,17-18.7,30.6c0,20.4,13.6,32.3,40.8,39.1l30.6,6.8
			c6.8,3.4,11.9,5.1,11.9,10.2c0,3.4-1.7,5.1-5.1,6.8c-3,3-6.1,3.4-10.3,3.4c-11.8-0.1-18.6-6.8-20.3-17h-49.3v0h-1.7
			c0,11.9,5.1,22.1,11.9,30.6c11.9,11.9,30.6,18.7,56.1,18.7c0.4,0,0.7,0,1,0c0.2,0,0.4,0,0.7,0c20.4,0,37.4-3.4,49.3-11.9
			c11.9-8.5,18.7-20.4,18.7-35.7c0-11.9-5.1-22.1-13.6-28.9l0,0c-6.8-5.1-18.7-8.5-32.3-11.9l-22.1-5.1c-8.5-1.7-13.6-3.4-13.6-8.5
			c0-3.4,1.7-5.1,5.1-6.8c1.3-1.3,3.7-1.6,6.3-1.7c6,0.2,9.2,1.9,12.4,5.1c1.7,1.7,3.4,5.1,3.4,8.5h3.4h45.9h3.4
			c0-3-0.2-5.9-0.7-8.5h17.7v51c0,18.7,5.1,30.6,11.9,39.1c8.5,8.5,20.4,13.6,35.7,13.6c8.5,0,17,0,28.9-3.4v-35.7
			c-3.4,1.7-6.8,1.7-10.2,1.7c-5.1,0-8.5,0-10.2-3.4c-1.7-1.7-3.4-6.8-3.4-11.9v-51h22.1h1.7v-32.3v0h-23.8V273.4z M957.3,351.5
			c0-0.8,0-1.6,0.1-2.4C957.3,349.9,957.3,350.7,957.3,351.5c0,14.6,7,24.9,21,32C963.9,377.1,957.3,366.7,957.3,351.5z
			 M1040.6,407.6C1040.6,407.6,1040.6,407.6,1040.6,407.6C1040.6,407.6,1040.6,407.6,1040.6,407.6c0-1.2-0.3-2.4-0.9-3.6
			C1040.3,405,1040.6,406.2,1040.6,407.6z"/>
		<path d="M1288.6,346.4L1288.6,346.4L1288.6,346.4l0,37.4h1.6l0.1,3.4v0h23.8v0h0c0,0,0,0,0,0c0,0,0,0,0,0
			c-1.7,5.1-5.1,8.5-8.5,11.9c0,0,0,0,0,0c0,0,0,0,0,0c0,0,0,0,0,0c0,0,0,0,0,0c-2.1,1.6-4.4,3-6.9,4.2c-1.6,0.8-3.4,1.5-5.2,2.1
			c-0.7,0.2-1.3,0.4-2,0.6c-3.6,1-7.4,1.5-11.5,1.5c-13.6,0-23.8-5.1-30.6-15.3c-5.1-8.5-8.5-22.1-8.5-37.4c0-13.6,1.7-25.5,6.8-34
			c6.8-11.9,15.3-17,28.9-17c10.2,0,18.7,3.4,23.8,10.2c3.4,3.4,5.1,8.5,6.8,13.6h56.1c-0.1-0.6-0.3-1.1-0.4-1.7l0.4,0
			c-3.4-15.3-8.5-27.2-17-37.4c-17-20.4-39.1-30.6-69.7-30.6l0,0c-27.2,0-51,8.5-68,28.9c0,0,0,0,0,0c-17,17-25.5,40.8-25.5,69.7v0
			c0,17.2,3.6,32.5,10.1,46.1c0.3,0.7,0.7,1.4,1,2.1c1.4,2.8,3,5.5,4.7,8.2c3.3,5.3,7.2,10.3,11.4,15c5.3,5.3,11,9.8,16.9,13.4
			c3.6,2.2,7.3,4.1,11.1,5.7c2.5,1.1,5.2,2,7.8,2.8c8,2.4,16.4,3.6,25.3,3.6c12.8,0,26.5-3.2,38.7-9.6c5.6-2.9,10.8-6.5,15.6-10.8
			l3.4,15.3h37.4v0V346.4v0h-3.4H1288.6z M1276.7,259.8L1276.7,259.8L1276.7,259.8C1276.7,259.8,1276.7,259.8,1276.7,259.8
			C1276.7,259.8,1276.7,259.8,1276.7,259.8z"/>
		<path d="M1521.4,428L1521.4,428l1.7-64.6c0-18.7-5.1-32.3-17-40.8c-13.6-8.5-30.6-13.6-51-13.6c-0.3,0-0.5,0-0.8,0
			c-0.3,0-0.6,0-0.9,0h0c-25.5,0-42.5,6.8-54.4,18.7c-6.8,5.4-10.3,14.1-12.3,25.1c1.8-7.5,4.7-13.8,8.3-18.8
			c-4.3,6.6-6.4,15.4-7.7,25.9h-1.7c-0.1,0.6-0.1,1.1-0.2,1.7h1.7h45.9h1.7V360c0-3.4,0-6.8,1.7-8.5c3.4-5.1,8.5-8.5,17-8.5
			c5.1,0,8.5,1.7,11.9,3.4c0.5,0.3,1,0.6,1.5,1c1.3,1.6,2,3.7,1.9,5.8c0,5.1-5.1,8.5-15.3,10.2l-39.1,6.8
			c-13.6,3.4-23.8,6.8-28.9,13.6c-5.1,6.8-8.5,17-8.5,27.2c0,10.9,4.3,20.3,11.4,27c1.2,1.3,2.5,2.5,3.8,3.6
			c10.2,6.8,20.4,10.2,34,10.2c10.2,0,20.4-1.7,28.9-6.8c3.3-1.6,8.1-4.8,14.5-9.6l4.2,11.3h1.1l0.6,1.7h51
			c-1.7-3.4-3.4-5.1-3.4-8.5C1521.4,436.5,1521.4,431.4,1521.4,428z M1400.8,327.7c-0.2,0.1-0.4,0.3-0.5,0.5
			c3.5-3.8,7.6-6.8,12.3-9.3C1408.1,321.4,1404.1,324.4,1400.8,327.7z M1470.4,394c0,6.8-1.7,11.9-6.8,17
			c-5.1,5.1-11.9,8.5-20.4,8.5c-5.1,0-6.8-1.7-10.2-3.4c-2.9-1.5-4.8-4.4-5.1-7.6c0.2-3.2,2.1-6.2,5.1-7.6c1.7,0,6.8-1.7,15.3-5.1
			l22.1-6.8V394z M1448.3,394L1448.3,394C1448.3,394,1448.3,394,1448.3,394l22.1-6.8L1448.3,394z"/>
		<path d="M1385.5,360h0.2c0.3-2.5,0.7-4.9,1.1-7.2C1386.2,355.1,1385.8,357.5,1385.5,360z"/>
		<path d="M1608.1,411c-5.1,0-8.5,0-10.2-3.4c-1.7-1.7-3.4-6.8-3.4-11.9v-51h22.1h1.7v-32.3v0h-23.8v-39.1h-52.7v39.1h-20.4h0v32.3
			h0h20.4v51c0,18.7,5.1,30.6,11.9,39.1c8.5,8.5,20.4,13.6,35.7,13.6c8.5,0,17,0,28.9-3.4v-35.7h0C1614.9,411,1611.5,411,1608.1,411
			z"/>
		<path d="M1770.9,371.8c-0.1-1.1-0.2-2.3-0.4-3.4c-2.1-14.6-8.6-27.9-19.7-39c-15.3-13.6-32.3-20.4-54.4-20.4h0
			c-9.3,0-17.9,1.6-26.7,3.7c-0.8,0.2-1.6,0.4-2.4,0.6c-3.2,0.8-6.5,1.6-9.9,2.5c-11.9,6.8-22.1,15.3-28.9,27.2
			c-4.2,6.4-7.2,14.1-8.8,21.9c-0.5,2.3-0.8,4.7-1.1,7c-0.2,1.5-0.3,3.1-0.3,4.6c0,0.8,0,1.5,0,2.2c0,2.3,0.1,4.6,0.3,6.9
			c0.1,1.1,0.2,2.3,0.4,3.4c2.1,14.6,8.6,27.9,19.7,39c4.8,4.8,9.9,8.7,15.3,11.9c2.2,1.3,4.4,2.4,6.7,3.4c10.3,4.6,21.6,6.8,34,6.8
			c0.3,0,0.5,0,0.8,0c0,0,0,0,0,0c0.8,0,1.5,0,2.3-0.1c-0.8,0-1.5,0.1-2.3,0.1c0.3,0,0.6,0,0.9,0c22.1,0,39.1-6.8,54.4-20.4
			c13.6-13.6,20.4-28.9,20.4-47.6c0-0.6,0-1.1,0-1.7c0-0.6,0-1.1,0-1.7C1771.2,376.4,1771.1,374.1,1770.9,371.8z M1711.7,405.9
			c-3.4,5.1-10.2,8.5-17,8.5c-6.8,0-13.6-3.4-17-8.5c-5.1-5.1-6.8-13.6-6.8-25.5c0-11.9,1.7-20.4,6.8-25.5s10.2-8.5,17-8.5
			c15.3,0,23.8,11.9,23.8,34C1718.5,392.3,1716.8,400.8,1711.7,405.9z M1750.8,428c-1.7,1.7-3.5,3.3-5.3,4.9
			C1747.3,431.3,1749.1,429.7,1750.8,428c2.6-2.6,4.9-5.3,7-8.1C1755.7,422.7,1753.4,425.4,1750.8,428z"/>
		<path d="M1869.7,309.1L1869.7,309.1C1869.7,309.1,1869.7,309.1,1869.7,309.1L1869.7,309.1c-15.3,0-27.2,6.8-39.1,22.1v-17h0v-1.7
			h-49.3v134.2h0v1.7h52.7v-61.2c0-8.5,3.4-17,8.5-22.1c5.1-6.8,13.6-10.2,23.8-10.2c5.1,0,11.9,1.7,20.4,5.1v-1.7v-45.9v0
			C1879.9,310.8,1874.8,309.1,1869.7,309.1z M1865.2,353.3c0.4,0,0.7,0,1.1,0c3.4,0,7.6,0.8,12.5,2.3
			C1873.9,354.3,1869.1,353.3,1865.2,353.3z"/>
		<path d="M524,334.5c-8-9.4-16.9-19.2-26.4-28.6c5.1-8.6,5.9-19.1,2.6-29.2c-6.8-17-18.7-25.5-34-32.3c-5.1-3.4-10.2-5.1-17-13.6
			c9.3-1.9,20.6-2.7,31.5-3.9c0.8,2.7,0.8,5.9,0.8,9c0,6.8,1.7,15.3,8.5,15.3c3.4,0,6.8-1.7,10.2-5.1c1.7-1.7,3.4-5.1,5.1-8.5
			c2.8-6.4,4.5-11.9,5.3-17.7c21.1-12,25.6-48.3,8.3-65.6c-11.9-13.6-27.2-11.9-42.5-5.1l0,0c-5.1-6.8-13.6-10.2-23.8-13.6
			c3.4-18.7,0-90.1-28.9-96.8c-8.5-3.4-15.3,3.4-22.1,8.5c-18.7-8.5-30.6-11.9-47.6-15.3C333.7-7,293-15.5,267.5,35.5
			c-6.9,13.8-12.3,31.6-17.1,46.9l-16.9,9.2l-44.2,27.2c-5.1,3.4-10.2,8.5-15.3,13.6c-3.4,3.4-6.8,8.5-5.1,15.3s6.8,8.5,11.9,11.9
			c5.1,3.4,8.5,5.1,11.9,8.5c3.4-1.7,5.1,1.7,8.5,5.1c-11.9,8.5-23.8,18.7-35.7,28.9c-6.8,6.8-13.6,18.7-8.5,27.2
			c5.1,8.5,18.7,10.2,27.2,11.9c3.4,0,5.1,1.7,8.5,3.4c-6.8,5.1-13.6,8.5-18.7,15.3c-5.1,5.1-10.2,11.9-13.6,17
			c-3.4,5.1-5.1,10.2-1.7,17c1.5,2.3,3.4,3.9,5.5,5c-10.1,13.5-19.1,27.7-27.6,40.9c-5.1,5.1-10.2,11.9-10.2,18.7
			c0,6.8,5.1,13.6,10.2,18.7c10.3,14.1,22.2,27.1,35.6,39.1c-6.7,1.7-8.4,11.9-8.4,18.7c0,3.4-1.7,5.1-3.4,10.2
			c-0.2,0.4-0.5,0.8-0.7,1.2c-2.5-1.1-5-2.3-7.5-3.6c-0.7-4.1-3-7.7-5.4-11.2l-10.2-17c-3.4-3.4-5.1-8.5-8.5-11.9
			c-3.4-3.4-8.5-6.8-13.6-5.1c-8.5,3.4-6.8,15.3-8.5,23.8c-1.7,1.7-1.7,3.4-1.7,3.4v0c-0.2,0.2-0.3,0.5-0.5,0.7
			c-2.9-0.4-5.7-0.7-8.5-0.8c-1.9-3.1-4.6-5.8-6.4-8.4l-8.5-8.5c-5.1-6.8-8.5-8.5-13.6-11.9c-5.1-3.4-10.2-3.4-15.3,0
			c-6.8,5.1-1.7,15.3-1.7,23.8v0v6.8c0,1.3-0.1,2.5-0.2,3.6c-13.7,3.9-26,10.9-35.5,21.9c-6.8,6.8-10.2,15.3-13.6,25.5
			c-1.7,3.4,0,6.8,1.7,8.5c6.8,5.1,13.6,0,18.7-3.4c18.7-11.9,30.6-13.6,52.7-5.1c7.5,1.4,14.4,4.6,20.8,9c2.8,2,5.5,4,8.2,6.3
			c6.6,5.6,12.7,12.2,18.5,18.7c13.6,11.9,23.8,25.5,35.7,39.1c13.9,16.7,29,33.4,46.2,48.3c3.8,3.3,7.6,6.5,11.6,9.5c0,0,0,0,0,0
			c0.7,0.5,1.4,1,2.1,1.5c-0.1,1.2-0.2,2.4-0.4,3.6c-6.8,11.9-8.5,25.5-11.9,35.7v0c-13.6,6.8-23.8,18.7-27.2,35.7
			c-2.5,10.1-1.3,22.1,5.1,30.4c0,0.6,0,1.3,0,1.9c0.4-0.1,0.9-0.3,1.3-0.4c2,2.2,4.4,4.1,7.2,5.5c1.7,1.7,5.1,3.4,8.5,3.4
			c8.5,1.7,17,1.7,27.2,0c15.3-3.4,34-11.9,45.9-22.1c3.4-3.4,6.8-8.5,8.5-13.6c1.7-6.8,0-11.9,0-18.7c-1.7-8.5-3.4-15.3-3.4-23.8
			l1.5-16.7c21.7,0.6,43.3-4.8,63.3-15.1c1.3,10.1,1,20.5-0.3,31.8c0,10.2-1.7,22.1,1.7,32.3c1.7,6.8,6.8,11.9,11.9,15.3
			s15.3,6.8,20.4,8.5c10.4,3.3,21.3,5.1,32.3,5.1c11.9,0,25.5-1.7,35.7-8.5l5.1-3.4v-5.1c0-13.6-3.4-23.8-11.9-34l-15.3-13.6h0
			c-11.9-28.9-8.5-66.3-8.5-95.2v-3.7c0.5-1,1.1-2,1.6-3l0.1-0.1v-0.1c4.8-9.3,9-19,12.5-28.8c8.4,1.3,17.1,1.9,26.6-1.7h3.4
			l1.7-1.7c15.3-17,18.7-37.4,11.9-57.8v-3.4c23.8-22.1,44.2-47.6,59.5-76.5c3.4-6.8,6.8-13.6,5.1-20.4
			C534.2,344.7,527.4,339.6,524,334.5z M206.3,446.7L206.3,446.7c-0.1,0.5-0.2,1.1-0.2,1.6l-5.4-9.9c2.4,1.7,4.8,3.3,7.3,4.9
			L206.3,446.7z M248.8,397.4c-11.9-13.6-17-30.6-30.6-42.5c1.6-2,6.1-4.4,11.9-7.5c3.5,7.3,7.1,14.7,10.2,22v9.3
			c0.7-1.7,1.3-3.3,1.8-4.9c1.1,2.8,2.2,5.6,3.3,8.3c2,5.2,3.2,10.4,3.8,15.8L248.8,397.4z M452.7,358.3l-3.4,3.4l-4,6
			c-0.3-5.1-0.7-9.7-1.1-13.7C447.2,355.6,450.1,357,452.7,358.3L452.7,358.3z"/>
	</g>
	<path style="fill:#FFCC00;" d="M75.5,467.1c32.3,0,61.2,15.3,88.4,40.8c28.9,27.2,52.7,56.1,98.5,39.1c13.6-5.1,25.5-11.9,34-22.1
		c64.6-64.6,35.7-169.9-1.7-241.3c-30.6-62.9-10.2-86.7,27.2-95.2l15.3,10.2c22.1,15.3,44.2,30.6,59.5,52.7
		c20.4,27.2,30.6,57.8,34,90.1l3.4,34c0,20.4,0,42.5-1.7,62.9c-5.1,49.3-18.7,101.9-54.4,137.6c-42.5,44.2-107,62.9-159.7,23.8
		c-20.4-15.3-39.1-37.4-56.1-56.1l-35.7-39.1C111.1,489.2,95.9,473.9,75.5,467.1"/>
	<path style="fill:#FFEB00;" d="M309.9,193.5c-28.9,18.7-22.1,51-8.5,79.9c34,73.1,81.6,193.7-5.1,263.4
		c-13.6,10.2-28.9,15.3-44.2,17c-47.6,3.4-79.9-28.9-100.2-57.8c3.4,3.4,8.5,8.5,13.6,11.9c28.9,27.2,52.7,56.1,98.5,39.1
		c13.6-5.1,25.5-11.9,34-22.1c64.6-64.6,35.7-169.9-1.7-241.3C269.2,229.2,281.1,203.7,309.9,193.5"/>
	<path style="fill:#FFCC00;" d="M411.9,202c-10.2,0-18.7-3.4-23.8-10.2c-27.2-5.1-51-18.7-69.7-42.5c0,1.7,0,1.7,1.7,3.4
		c-10.2-20.4-25.5-37.4-44.2-42.5c-28.9-8.5-56.1,11.9-51,42.5c5.1,32.3,45.9,69.7,61.2,83.3c37.4,34,90.1,66.3,129.1,81.6
		c25.5,10.2,22.1,0,49.3-5.1c37.4-6.8,32.3-42.5,6.8-57.8c10.2,13.6,20.4,28.9,1.7,35.7c-3.4,1.7-8.5,3.4-15.3,3.4
		c-35.7,5.1-42.5-3.4-74.8-20.4c-45.9-23.8-91.8-57.8-118.9-117.2c-8.5,0-8.5,8.5-8.5,13.6c-17-32.3,28.9-54.4,37.4-30.6
		c-5.1-5.1-10.2-1.7-13.6,1.7c18.7,27.2,47.6,51,78.2,66.3c56.1,28.9,61.2,20.4,108.7,0c5.1-3.4,11.9-3.4,18.7-3.4
		c-6.8,3.4-13.6,5.1-23.8,15.3c11.9,0,28.9-1.7,40.8-5.1c18.7-6.8,23.8-39.1,10.2-52.7c-10.2-11.9-28.9-8.5-45.9,3.4
		c1.7,0,5.1,0,6.8,1.7c-3.4,1.7-10.2,1.7-18.7-1.7c-13.6-3.4-25.5-10.2-35.7-10.2C384.7,152.7,384.7,196.9,411.9,202"/>
	<path style="fill:#FFEB00;" d="M451,212.2c-44.2,13.6-93.5-1.7-147.8-45.9c15.3,15.3,35.7,28.9,54.4,39.1
		C406.8,232.6,417,227.5,451,212.2 M403.4,198.6c-5.1-23.8,1.7-39.1,20.4-44.2H417C389.8,152.7,386.4,186.7,403.4,198.6
		 M410.2,315.8c-61.2-30.6-175-112.1-171.6-171.6c0-15.3,10.2-28.9,32.3-34c-25.5-5.1-49.3,13.6-45.9,42.5
		c5.1,32.3,45.9,68,61.2,83.3C321.8,268.3,372.8,298.9,410.2,315.8"/>
	<path style="fill:#FFFFFF;" d="M486.7,225.8c5.1-1.7,8.5-1.7,11.9-3.4c1.7,0,3.4-1.7,5.1-1.7c0,5.1-1.7,10.2-5.1,15.3
		c-3.4,8.5-10.2,13.6-10.2,0C490,232.6,488.3,227.5,486.7,225.8"/>
	<path style="fill:#E95014;" d="M303.1,198.6c22.1,27.2,51,49.3,85,66.3l20.4,10.2c5.1,3.4,10.2,5.1,15.3,6.8
		c10.2,3.4,22.1,3.4,32.3,1.7c5.1,0,8.5-1.7,13.6-3.4c13.6-5.1-6.8-23.8-15.3-32.3c-11.9-15.3-20.4-18.7-37.4-15.3
		c-6.8,0-13.6,0-20.4-1.7c5.5,5.5,10,11.8,13.6,18.7c-11.9-10.2-25.5-18.7-40.8-27.2l-13.6-6.8C338.8,207.1,321.8,202,303.1,198.6"
		/>
	<path style="fill:#FFFFFF;" d="M417,234.3h1.7c2.6-0.4,4.9-1.6,6.8-3.4c3.4-1.7,6.8,0,10.2,0c-1.7,13.6-20.4,39.1-18.7,15.3
		C418.7,242.8,418.7,239.4,417,234.3"/>
	<path style="fill:#FFFFFF;" d="M289.6,103.5c8.5-15.3,11.9-34,15.3-52.7c3.4,1.7,5.1,5.1,8.5,8.5c10.2,11.9,20.4,34,27.2,49.3
		l-13.6-1.7C315,103.5,303.1,103.5,289.6,103.5"/>
	<path style="fill:#FFFFFF;" d="M428.9,113.7l-3.4,1.7c-5.1,0-10.2-3.4-15.3-3.4h-1.7h-1.7h-3.4l0,0c3.4-15.3,10.2-25.5,20.4-37.4
		C423.8,88.2,427.2,101.8,428.9,113.7"/>
</g>
</svg>
