<?xml version="1.0"?>
<svg xmlns="http://www.w3.org/2000/svg" xmlns:xlink="http://www.w3.org/1999/xlink" xmlns:svgjs="http://svgjs.com/svgjs" version="1.1" width="512" height="512" x="0" y="0" viewBox="0 0 512.008 512.008" style="enable-background:new 0 0 512 512" xml:space="preserve" class=""><g>
<circle xmlns="http://www.w3.org/2000/svg" style="" cx="256.004" cy="256.004" r="256.004" fill="#f3f3f3" data-original="#3a99d7" class=""/>
<path xmlns="http://www.w3.org/2000/svg" style="" d="M509.986,288.217L400.751,178.982l-0.999,0.999l-44.844-44.848L246.203,197.27L121.87,181.579  l-8.221,193.494l136.853,136.853c1.827,0.04,3.657,0.068,5.495,0.068c130.473,0,238.14-97.608,253.986-223.779L509.986,288.217z" fill="#f3f3f3" data-original="#2682bf" class=""/>
<path xmlns="http://www.w3.org/2000/svg" style="" d="M253.788,133.109h96.676c3.726,0,5.88,3.165,6.772,6.772l9.308,37.561  c0.892,3.596-3.064,6.772-6.772,6.772H244.477c-3.707,0-7.668-3.154-6.772-6.772l9.308-37.561c0-3.726,3.046-6.772,6.772-6.772  H253.788z" fill="#f2b527" data-original="#f2b527" class=""/>
<path xmlns="http://www.w3.org/2000/svg" style="" d="M124.675,172.907h262.647c9.91,0,17.942,8.033,17.942,17.942v170.091  c0,9.909-8.033,17.942-17.942,17.942H124.675c-9.909,0-17.942-8.033-17.942-17.942v-170.09  C106.732,180.941,114.766,172.907,124.675,172.907z" fill="#ffd630" data-original="#ffd630"/>
<path xmlns="http://www.w3.org/2000/svg" style="" d="M405.265,236.888v87.383H106.732v-87.383L405.265,236.888L405.265,236.888z" fill="#c94545" data-original="#c94545"/>
<circle xmlns="http://www.w3.org/2000/svg" style="" cx="302.123" cy="280.574" r="79.232" fill="#ffffcf" data-original="#ffffcf"/>
<circle xmlns="http://www.w3.org/2000/svg" style="" cx="302.123" cy="280.574" r="59.424" fill="#d3c298" data-original="#d3c298" class=""/>
<circle xmlns="http://www.w3.org/2000/svg" style="" cx="302.123" cy="280.574" r="53.112" fill="#3184e7" data-original="#3184e7"/>
<path xmlns="http://www.w3.org/2000/svg" style="" d="M134.925,160.661h23.665c3.208,0,5.833,2.625,5.833,5.833v6.413h-35.335v-6.413  c0-3.208,2.625-5.833,5.833-5.833H134.925z" fill="#c94545" data-original="#c94545"/>
<path xmlns="http://www.w3.org/2000/svg" style="" d="M126.124,191.602h41.263c1.863,0,3.384,1.522,3.384,3.384v19.403c0,1.863-1.522,3.384-3.384,3.384  h-41.263c-1.863,0-3.384-1.522-3.384-3.384v-19.403C122.74,193.123,124.261,191.602,126.124,191.602z" fill="#e6e6e6" data-original="#e6e6e6"/>
<path xmlns="http://www.w3.org/2000/svg" style="" d="M128.645,194.285h36.22c1.633,0,2.97,1.208,2.97,2.69v15.421c0,1.482-1.335,2.69-2.97,2.69h-36.22  c-1.633,0-2.97-1.208-2.97-2.69v-15.421C125.675,195.493,127.01,194.285,128.645,194.285z" fill="#ffffff" data-original="#ffffff"/>
<path xmlns="http://www.w3.org/2000/svg" style="" d="M284.182,145.585h29.2c5.647,0,10.225,4.578,10.225,10.225v0.004c0,5.647-4.578,10.225-10.225,10.225  h-29.2c-5.647,0-10.225-4.578-10.225-10.225v-0.004C273.957,150.163,278.535,145.585,284.182,145.585z" fill="#ffd630" data-original="#ffd630"/>
<path xmlns="http://www.w3.org/2000/svg" style="" d="M285.653,146.614h26.251c5.079,0,9.196,4.117,9.196,9.195l0,0c0,5.078-4.118,9.195-9.196,9.195  h-26.251c-5.079,0-9.196-4.117-9.196-9.195l0,0C276.457,150.73,280.574,146.614,285.653,146.614z" fill="#ffffff" data-original="#ffffff"/>
<circle xmlns="http://www.w3.org/2000/svg" style="" cx="302.123" cy="280.574" r="33.223" fill="#0062ff" data-original="#0062ff"/>
<circle xmlns="http://www.w3.org/2000/svg" style="" cx="302.123" cy="280.574" r="12.472" fill="#022d91" data-original="#022d91"/>
<g xmlns="http://www.w3.org/2000/svg">
	<circle style="" cx="291.608" cy="263.877" r="6.388" fill="#ffffff" data-original="#ffffff"/>
	<circle style="" cx="312.777" cy="295.36" r="4.262" fill="#ffffff" data-original="#ffffff"/>
</g>
<g xmlns="http://www.w3.org/2000/svg">
</g>
<g xmlns="http://www.w3.org/2000/svg">
</g>
<g xmlns="http://www.w3.org/2000/svg">
</g>
<g xmlns="http://www.w3.org/2000/svg">
</g>
<g xmlns="http://www.w3.org/2000/svg">
</g>
<g xmlns="http://www.w3.org/2000/svg">
</g>
<g xmlns="http://www.w3.org/2000/svg">
</g>
<g xmlns="http://www.w3.org/2000/svg">
</g>
<g xmlns="http://www.w3.org/2000/svg">
</g>
<g xmlns="http://www.w3.org/2000/svg">
</g>
<g xmlns="http://www.w3.org/2000/svg">
</g>
<g xmlns="http://www.w3.org/2000/svg">
</g>
<g xmlns="http://www.w3.org/2000/svg">
</g>
<g xmlns="http://www.w3.org/2000/svg">
</g>
<g xmlns="http://www.w3.org/2000/svg">
</g>
</g></svg>
