<?xml version="1.0" encoding="utf-8"?>
<svg version="1.1" id="Layer_1" xmlns="http://www.w3.org/2000/svg" xmlns:xlink="http://www.w3.org/1999/xlink" x="0px" y="0px"
	 viewBox="0 0 545.9 124.9" style="enable-background:new 0 0 545.9 124.9;" xml:space="preserve">
<g>
	<path style="fill:#F08E00;" d="M62.4,80.5c4.6,0.1,8.4,4.2,8.2,8.9c-0.2,4.5-4,8.2-8.5,8.1c-4.6-0.1-8.5-4.3-8.3-8.9
		C54.1,84.2,58.1,80.4,62.4,80.5z"/>
	<path style="fill:#015ABA;" d="M483.1,0c-34.8,0-62.5,27.7-62.5,62.5c0,34.5,28.1,62.4,62.8,62.4c34.7-0.1,62.5-27.9,62.5-62.6
		C545.7,27.6,517.9,0,483.1,0z M482.7,112c-27-0.2-49.1-22.4-49.1-49.5c0-27.6,22.4-50,49.9-49.8c27.4,0.2,49.5,22.5,49.5,49.8
		C532.9,89.9,510.3,112.2,482.7,112z"/>
	<path style="fill:#F08E00;" d="M471.4,29.7c10.1-7.5,20.9-8.4,31.9-3.3c12.8,5.8,19.7,16.1,20.4,30.1c0.6,12.1-4.4,21.3-15.2,29
		c0.1-2.8,0-3.9,0-5.6c-0.2-7.8,0.9-6.7-7.1-6.8c-4.2,0-8.4-1-10.7,4.5c-1.3,3.3-5.3,2.9-8.5,2.6c-1.9-0.2-1.7-1.8-1.7-3
		c0-8.2,0-16.3,0-24.5c0-1.7,0.6-3.2,1.8-4.5c1.1-1.1,3.4-1,3.4-3.2c0-4.7,0.1-9.3-0.1-14c-0.1-1.8-2-1.3-3.2-1.4
		C478.7,29.7,475,29.7,471.4,29.7z"/>
	<path style="fill:#015ABA;" d="M41.7,83.7c-2.8,0.1-5.6,0.1-8.5,0.1h-0.7c-2.8,0-5.6,0-8.4-0.1c-3.8-0.1-5.9,0.2-7-0.1h-2.4V71.3h3
		h24v-7.6c0-0.4,0-0.8,0-1.1v-3h-3.2h-1.8H17.9h-3.2V47.8H45v-5.4c0-0.8,0-1.8,0.1-2.9c0-0.6,0-1.1-0.1-1.5v-3H0v7.4v5.5v35.9v3.7
		v9.2h45V83.8h-2.3C42.6,83.7,42.3,83.7,41.7,83.7z"/>
	<path style="fill:#015ABA;" d="M117,83.7c-0.5,0-1-0.1-1.6,0c-0.4,0-0.7,0-1.1,0h-6.4c-1.6,0-3.2,0-4.8,0H98
		c-0.1,0-0.2-0.1-0.3-0.1h-2.3v-3c-0.1-0.5-0.1-1.1-0.1-1.7c0-1.5,0.1-2.9,0.1-4.4v-1.4l0,0c0.1-8.9,0-17.8,0-26.7
		c0-2.7,0-4.8-0.1-6.4v-5.1h-6.5c-1,0-2.2,0-3.5,0h-5.7v61.8h3.6c0.4,0,0.9,0,1.5,0c0.2,0,0.5,0,0.7,0h8.1h1.8h24.5v-13H117z"/>
	<path style="fill:#015ABA;" d="M173,81.7h-13c-0.1,0.4-0.2,0.6-0.2,0.8c-2.9,6.4-8.5,4.9-13.5,4.6c-4.2-0.2-6.5-1.9-7.7-5.1
		c0-0.1-0.1-0.3-0.1-0.4c-0.3-0.9-0.5-2-0.6-3.1c0-0.2,0-0.3,0-0.4c-0.2-1.8-0.3-3.4-0.3-3.4h2.4c0.4-0.1,0.8-0.1,1.4-0.1
		c4.8,0.2,9.7,0,14.5,0c3.2,0,6.3,0,9.5,0c9.1,0,9.1,0,8-9.1c-1.4-11.8-5.4-16.3-16.5-17.8c-6.1-0.8-12.3-0.8-18.4,0.5
		c-7.9,1.6-12.2,6.5-13.5,14.2c-1.2,6.8-1.1,13.6,0.1,20.4c1.1,6.1,4.1,11,10.5,12.8c9.5,2.6,19.1,2.6,28.6,0
		c5.3-1.5,8.4-5.1,9.2-10.7c0.1-0.9,0.3-2.1-0.2-2.9C173.1,81.9,173.1,81.8,173,81.7z M141.4,58.7c5.1-2.1,10.4-2,15.5,0
		c2.3,0.9,3,5.2,2.9,8H138C138.1,63.8,139.1,59.6,141.4,58.7z"/>
	<path style="fill:#015ABA;" d="M314.8,81.7h-13c-0.1,0.4-0.2,0.6-0.2,0.8c-2.9,6.4-8.5,4.9-13.5,4.6c-4.2-0.2-6.5-1.9-7.7-5.1
		c0-0.1-0.1-0.3-0.1-0.4c-0.3-0.9-0.5-2-0.6-3.1c0-0.2,0-0.3,0-0.4c-0.2-1.8-0.3-3.4-0.3-3.4h2.4c0.4-0.1,0.8-0.1,1.4-0.1
		c4.8,0.2,9.7,0,14.5,0c3.2,0,6.3,0,9.5,0c9.1,0,9.1,0,8-9.1c-1.4-11.8-5.4-16.3-16.5-17.8c-6.1-0.8-12.3-0.8-18.4,0.5
		c-7.9,1.6-12.2,6.5-13.5,14.2c-1.2,6.8-1.1,13.6,0.1,20.4c1.1,6.1,4.1,11,10.5,12.8c9.5,2.6,19.1,2.6,28.6,0
		c5.3-1.5,8.4-5.1,9.2-10.7c0.1-0.9,0.3-2.1-0.2-2.9C314.8,81.9,314.8,81.8,314.8,81.7z M283.1,58.7c5.1-2.1,10.4-2,15.5,0
		c2.3,0.9,3,5.2,2.9,8h-21.8C279.8,63.8,280.8,59.6,283.1,58.7z"/>
	<rect x="241.9" y="34.9" style="fill:#015ABA;" width="13.8" height="62.4"/>
	<path style="fill:#015ABA;" d="M218,79.3c-0.1,0.8-0.3,1.6-0.5,2.1l0,0c-0.1,0.2-0.1,0.4-0.2,0.6c-0.1,0.1-0.1,0.3-0.1,0.4
		c-1.6,3.8-5.1,4.7-12.2,4.1c-4.3-0.4-6.7-2.5-7.4-6.7c-0.8-5-0.8-9.9,0-14.9c0.7-4.2,3-6.3,7.3-6.7c7.9-0.7,11,0.3,12.6,4.9
		c0,0.1,0.1,0.3,0.1,0.4c0.2,0.7,0.3,1.4,0.5,2.3h13.3c0.1-1.8,0.1-4.1-0.4-5.8l0,0c-1.1-6.1-4.7-9.8-11.2-11.4
		c-3.9-1-7.9-1.3-11.9-0.9c-2.7,0-5.4-0.3-8,0c-10.4,1.3-14.9,5.7-16.6,16.1c-1.1,6.6-0.9,13.3,0.5,19.8c1.5,7.1,5.8,11.4,13,12.8
		c7.6,1.5,15.2,1.3,22.8-0.3c4.6-1,8.3-3.3,10.3-7.8c0.7-1.6,1.2-2.9,1.5-4l0,0c0.6-1.8,0.7-3.6,0.6-5L218,79.3L218,79.3z"/>
	<path style="fill:#015ABA;" d="M353.9,47.6c-0.7-0.4-1.8-0.4-3-0.2c-4.5,0.6-8.7,3.3-12.4,7.4v-7.5h-13.8v49.4h13.8v-2.4
		c0-0.6,0-1.2,0-2v-0.1V74.9c0-1.4,0.1-2.8,0.2-4.1c0.3-6.5,4.8-10.6,10.2-10.5c2.4,0.1,4-0.4,4.9-1.2V47.6H353.9z"/>
	<path style="fill:#015ABA;" d="M393.3,79.3c-0.1,0.8-0.3,1.6-0.5,2.1l0,0c-0.1,0.2-0.1,0.4-0.2,0.6c-0.1,0.1-0.1,0.3-0.1,0.4
		c-1.6,3.8-5.1,4.7-12.2,4.1c-4.3-0.4-6.7-2.5-7.4-6.7c-0.8-5-0.8-9.9,0-14.9c0.7-4.2,3-6.3,7.3-6.7c7.9-0.7,11,0.3,12.6,4.9
		c0,0.1,0.1,0.3,0.1,0.4c0.2,0.7,0.3,1.4,0.5,2.3h13.3c0.1-1.8,0.1-4.1-0.4-5.8l0,0c-1.1-6.1-4.7-9.8-11.2-11.4
		c-3.9-1-7.9-1.3-11.9-0.9c-2.7,0-5.4-0.3-8,0c-10.4,1.3-14.9,5.7-16.6,16.1c-1.1,6.6-0.9,13.3,0.5,19.8c1.5,7.1,5.8,11.4,13,12.8
		c7.6,1.5,15.2,1.3,22.8-0.3c4.6-1,8.3-3.3,10.3-7.8c0.7-1.6,1.2-2.9,1.5-4l0,0c0.6-1.8,0.7-3.6,0.6-5L393.3,79.3L393.3,79.3z"/>
	<path style="fill:#015ABA;" d="M503,86.7c0-1.6,0-3.3,0-4.9c0-1.2,0.6-3-1.1-3.4c-1.9-0.4-4.4-1.2-5.6,0.8
		c-4.1,6.7-10.6,6.5-17.2,6.5c-3.2,0-3.9-1.2-3.9-4.1c0.1-9.6,0.1-19.3,0-29c0-3.5,0.5-6.5,3.8-8.6c0.7-0.4,1.1-0.9,1.4-1.5v-7.6
		h-26.1v1.5v5.8c0.3,0.9,0.8,1.7,1.9,2.4c2.7,1.6,3.3,4.4,3.2,7.4c-0.1,7.8-0.1,15.6,0,23.5c0.1,4-0.5,7.3-4.1,10
		c-0.5,0.4-0.8,0.8-1.1,1.2v8.5v1.7h48.7V86.7H503z"/>
</g>
</svg>
