<?xml version="1.0" encoding="utf-8"?>
<svg version="1.1" id="Layer_1" xmlns="http://www.w3.org/2000/svg" xmlns:xlink="http://www.w3.org/1999/xlink" x="0px" y="0px"
	 viewBox="0 0 1571.3 511.8" style="enable-background:new 0 0 1571.3 511.8;" xml:space="preserve">
<g>
	<path style="fill:#FF594B;" d="M26.6,128.2c14.9,0,26.6-11.7,26.6-26.6C52.8,86.7,41.6,75,26.6,75C12.4,75,0,86.6,0,101.6
		C0.1,116.5,12.4,128.2,26.6,128.2z"/>
	<path style="fill:#FF594B;" d="M58.7,309.2c-7.6,0-13.5-4.7-13.5-13.1V174.5c0-4.7-3.6-8.4-8.4-8.4H14.2c-4.7,0-8.4,3.7-8.4,8.4
		c0,0,0,126.7,0,126.4c0,32.4,16.4,47,40.8,47c5.8,0,10.2-0.4,14.2-1.5c2.5-0.7,4.4-3.3,4.4-5.8v-25.5
		C65.3,311.4,62,309.2,58.7,309.2z"/>
	<path style="fill:#FF594B;" d="M342.1,166.5h-24.4c-3.6,0-6.9,2.2-8,5.8l-37.5,118l-38.2-118c-1.1-3.3-4.4-5.8-8-5.8h-17.9
		c-3.6,0-6.6,2.2-8,5.8l-39.3,118l-36.8-118c-1.1-3.6-4.4-5.8-8-5.8H91.6c-5.8,0-9.8,5.8-7.7,11.3l54.7,162.8
		c1.1,3.3,4.4,5.8,7.6,5.8H171c3.6,0,6.6-2.2,7.6-5.8l37.5-110.7l37.1,110.7c1.1,3.3,4.4,5.8,8,5.8h25.5c3.7,0,6.6-2.2,7.7-5.8
		L349,177.8C351.9,172.3,347.5,166.5,342.1,166.5z"/>
	<path style="fill:#FF594B;" d="M463.7,162.4c-53.2,0-94.3,41.2-94.3,93.6s41.2,93.6,94.3,93.6c53.2,0,94.3-41.2,94.3-93.6
		S517.2,162.4,463.7,162.4z M463.7,312.9c-32.1,0-54.3-24.8-54.3-56.8c0-32.1,21.8-56.8,54.3-56.8c32.1,0,54.3,24.8,54.3,56.8
		S495,312.9,463.7,312.9z"/>
	<path style="fill:#FF594B;" d="M679.3,198.9c19.3,0,35.3,9.5,45.2,23.7c2.2,3.3,6.5,4.4,10.2,2.9l21.5-9.1c2.9-1.5,4.7-4.4,4.7-7.6
		c0-1.5-0.4-2.9-1.1-4c0-0.3-22.6-41.9-79.8-41.9c-54.6,0-96.5,40.8-96.5,94.7c0,53.5,41.9,94.7,96.5,92.5
		c55.4,0,79.4-41.5,79.4-41.5c0.7-1.4,1.5-2.9,1.5-4.7c0-3.3-1.8-6.2-5.1-7.6l-21.5-9.1c-3.6-1.4-8-0.7-10.2,2.9
		c-9.8,14.2-25.5,24-44.8,24c-31.3,0-55.7-26.6-55.7-57.9C624,223.6,647.3,198.9,679.3,198.9z"/>
	<path style="fill:#FF594B;" d="M1542.5,0H1088c-16,0-28.8,12.8-28.8,28.8V483c0,16,12.7,28.8,28.8,28.8h456
		c16,0,27.7-12.8,27.3-28.8V28.8C1571.3,12.8,1558.6,0,1542.5,0z M1511.2,452.4h-391.5V59.7l391.5,0.7V452.4z"/>
	<path style="fill:#FF594B;" d="M1363.7,328.5l48.8,20c3.6,1.5,7.6-0.7,7.6-5.1V168.3c0-4-4-6.5-7.6-5.1l-48.8,20.4
		c-1.8,0.7-3.3,2.9-3.3,5.5v134.4C1360.4,325.6,1361.5,327.4,1363.7,328.5z"/>
	<path style="fill:#FF594B;" d="M1217.7,348.6l48.8-20c2.2-0.7,3.3-2.9,3.3-5.1V189c0-2.5-1.4-4.7-3.3-5.5l-48.8-20.4
		c-3.6-1.4-7.7,1.1-7.7,5.1v175.2C1210,347.5,1214,350,1217.7,348.6z"/>
	<path style="fill:#FF594B;" d="M982.7,308.9c-7.6,0-12.4-4.7-13.5-13.1v-121c0-4.8-3.7-8.4-8.4-8.4h-22.6c-4.7,0-8.4,3.6-8.4,8.4
		v7.6c-11.6-13.1-30.2-20-52.1-20c-53.2,0-90,43-90,93.6s36.8,93.6,90,93.6c20,0,39-3.6,60.5-28c4.7,15.7,17.1,26.6,32.4,26.6
		c5.8,0,10.2-0.4,14.2-1.5c2.6-0.7,4.4-3.3,4.4-5.8v-25.5C988.9,311.4,986,308.9,982.7,308.9z M882.9,314.3c-32.4,0-55-28-53.2-61.9
		c1.8-32.4,30.6-57.5,62.6-52.8c17.5,2.5,29.5,12.4,37.9,24l0.4,65.2C920.5,302.7,905.2,313.6,882.9,314.3z"/>
</g>
</svg>
