<?xml version="1.0" encoding="utf-8"?>
<svg version="1.1" id="Layer_1" xmlns="http://www.w3.org/2000/svg" xmlns:xlink="http://www.w3.org/1999/xlink" x="0px" y="0px"
	width="100px" height="100px" viewBox="0 0 100 100" style="enable-background:new 0 0 100 100;" xml:space="preserve">
<g>
	<g>
		<path style="fill:#E8E8E8;" d="M50,0c27.61,0,50,22.39,50,50s-22.39,50-50,50S0,77.61,0,50S22.39,0,50,0"/>
		<path style="fill:#FFFFFF;" d="M50,1c27.06,0,49,21.94,49,49S77.06,99,50,99S1,77.06,1,50S22.94,1,50,1"/>
	</g>
	<g>
		<path style="fill:none;" d="M76.76,58.67c0.02,0.12,0.03,0.23,0.05,0.35C76.79,58.9,76.78,58.79,76.76,58.67z"/>
		<path style="fill:none;" d="M76.72,58.41c0.01,0.06,0.02,0.11,0.03,0.17C76.74,58.52,76.73,58.47,76.72,58.41z"/>
		<path style="fill:none;" d="M76.67,58.15c0.01,0.05,0.02,0.11,0.03,0.17C76.69,58.26,76.68,58.2,76.67,58.15z"/>
		<path style="fill:none;" d="M76.45,57.11c0.02,0.06,0.03,0.13,0.05,0.19C76.48,57.23,76.46,57.17,76.45,57.11z"/>
		<path style="fill:none;" d="M76.38,56.85c0.02,0.08,0.04,0.17,0.07,0.25C76.43,57.02,76.4,56.94,76.38,56.85z"/>
		<path style="fill:none;" d="M76.57,57.62c0.01,0.06,0.02,0.11,0.04,0.17C76.59,57.74,76.58,57.68,76.57,57.62z"/>
		<path style="fill:none;" d="M76.62,57.88c0.01,0.06,0.02,0.11,0.03,0.17C76.64,58,76.63,57.94,76.62,57.88z"/>
		<path style="fill:none;" d="M76.51,57.36c0.01,0.06,0.03,0.12,0.04,0.18C76.54,57.48,76.52,57.42,76.51,57.36z"/>
		<path style="fill:#ED4118;" d="M67.8,51.45c-0.09,0.02-0.18,0.05-0.26,0.07c0.27,0.01,0.54,0.03,0.81,0.04
			c1.99,0.11,4,0.32,5.99,0.65c-0.18-0.27-0.36-0.54-0.55-0.81c-0.54-0.09-1.1-0.15-1.65-0.19C71.04,51.13,69.55,51.03,67.8,51.45z"
			/>
		<path style="fill:#A7EC15;" d="M31.34,63.05v2.33l4.19-1.02C34.12,63.99,32.71,63.56,31.34,63.05z"/>
		<path style="fill:#F6BF1D;" d="M61.13,51.77c0.05,0.01,0.11,0.03,0.16,0.04c0.82,0.21,1.35,0.36,1.7,0.46
			c0.63,0.17,0.74,0.21,1.06,0.21c0.01,0,0.02,0,0.02,0c0.8,0,1.21-0.19,1.77-0.46c0.25-0.12,0.54-0.26,0.91-0.39
			C65.03,51.55,63.21,51.54,61.13,51.77z"/>
		<path style="fill:#0F96F6;" d="M39.09,58.87c-0.2-0.24-0.4-0.48-0.59-0.72l0.11-0.08c0.21,0.27,0.43,0.54,0.65,0.79
			c0.04,0,0.09-0.01,0.13-0.01c3.37-0.29,6.1-0.92,7.9-1.33c3.38-0.78,6.32-1.73,8.47-2.42c1.59-0.52,2.65-0.89,3.42-1.16
			c1.33-0.47,1.93-0.68,3.23-0.92c2.91-0.52,5.24-0.4,6.94-0.32c1.89,0.1,3.79,0.34,5.67,0.73c-0.19-0.36-0.39-0.71-0.6-1.05
			c-2.03-0.33-4.07-0.56-6.1-0.66c-0.4-0.02-0.8-0.04-1.2-0.06c-0.52,0.17-0.89,0.34-1.23,0.5c-0.56,0.26-1,0.47-1.83,0.47
			c-0.01,0-0.02,0-0.02,0c-0.33,0-0.45-0.03-1.09-0.21c-0.35-0.1-0.88-0.25-1.7-0.46c-0.18-0.05-0.35-0.09-0.51-0.13
			c-0.37,0.05-0.76,0.1-1.15,0.17c-0.64,0.1-2.42,0.54-5.66,1.34c-2.54,0.62-4.05,1-4.94,1.23c-1.33,0.33-1.5,0.38-2.02,0.46
			c-1.8,0.3-3.37,0.4-4.94,0.4c-1.34,0-2.69-0.07-4.18-0.15c-2.17-0.11-4.35-0.35-6.51-0.69v4.24
			C33.94,59.04,36.54,59.07,39.09,58.87z"/>
		<path style="fill:#6FC9EF;" d="M33.91,46.43c0.66,0.24,2,0.72,3.73,0.64c-1.25-0.3-2.73-0.61-4.42-0.92
			C33.44,46.26,33.67,46.35,33.91,46.43z"/>
		<path style="fill:#021A96;" d="M65.79,73.34c-0.49,0.4-1.13,0.81-1.92,1.11c-0.33,0.12-1.07,0.4-2.04,0.4c-0.1,0-0.21,0-0.31-0.01
			c-0.93-0.06-1.62-0.39-2.87-0.99c-0.87-0.42-1.3-0.69-1.62-0.89c-0.35-0.22-0.59-0.37-1.15-0.55c-0.72-0.24-1.92-0.63-3.15-0.18
			c-0.31,0.11-0.46,0.22-0.66,0.37c-0.14,0.1-0.32,0.23-0.59,0.39c-1.2,0.71-2.5,1.03-3.2,1.03c0,0,0,0,0,0
			c-2.13,0-3.63-1.28-4.4-2.14c-0.23,0-0.46,0-0.7-0.01l-0.04,0c-1.71-0.05-5.28-0.14-8.61-2.44c-1.21-0.83-2.28-1.86-3.17-3.05
			v11.41h27.7h1.25c3.78,0,7.28-1.27,10.08-3.4c-0.76-0.06-1.51-0.18-2.24-0.34C67.47,73.92,67.11,73.8,65.79,73.34z"/>
		<path style="fill:#F13134;" d="M36.39,24.84c0.86,0.09,1.57,0.2,4.89,0.84c2.87,0.55,4.17,0.82,4.87,0.96
			c0.67,0.14,0.82,0.17,1.28,0.23c1.38,0.19,4.23,0.47,7.79,0.21c1.34-0.1,3.21-0.44,6.96-1.12c2.61-0.48,4.24-0.84,6.07-1.53
			c-0.92-0.84-1.95-1.56-3.06-2.15c-3.34,0.98-6.74,1.69-10.13,2.12c-0.24,0.03-3.45,0.43-7.23,0.43c-3.11,0-6.61-0.27-9.16-1.24
			l-0.06-0.02c-0.19-0.07-0.54-0.21-1.03-0.36c-1.99-0.63-4.09-0.92-6.25-0.86v2.4C33.02,24.64,34.71,24.67,36.39,24.84z"/>
		<path style="fill:#57449E;" d="M60.95,31.17c3.44-0.47,6.57-1.2,9.3-2.18c0.4-0.14,0.8-0.29,1.19-0.45c-0.8-1.5-1.84-2.86-3.08-4
			c-1.87,0.71-3.51,1.08-6.16,1.56c-3.75,0.68-5.63,1.03-6.97,1.13c-1.04,0.08-2.01,0.11-2.91,0.11c-2.2,0-3.93-0.18-4.91-0.32
			c-0.47-0.06-0.61-0.09-1.29-0.23c-0.7-0.14-2-0.41-4.87-0.96c-3.32-0.64-4.02-0.75-4.88-0.84c-1.67-0.17-3.36-0.2-5.03-0.08v3.99
			c5.53,1.42,11.17,2.3,16.75,2.63C52.77,31.8,57.22,31.67,60.95,31.17z"/>
		<path style="fill:#E74F52;" d="M37.63,23.08c0.49,0.16,0.84,0.29,1.03,0.36l0.06,0.02c5.61,2.14,15.88,0.86,16.32,0.8
			c3.34-0.43,6.69-1.13,9.97-2.08c-0.41-0.21-0.82-0.4-1.25-0.57c-2.68,0.68-5.31,0.96-7.8,0.96c-4.69,0-8.9-0.98-12.05-2.02H31.34
			v1.65C33.51,22.16,35.63,22.44,37.63,23.08z"/>
		<path style="fill:#EDDA1C;" d="M63.57,45.62c-0.67,0.12-0.99,0.19-1.96,0.39c-0.57,0.12-1.34,0.28-2.54,0.53
			c-3.03,0.62-3.54,0.71-3.95,0.71c-0.05,0-0.1,0-0.15,0c-0.85-0.03-1.25-0.17-1.98-0.42c-0.54-0.18-1.27-0.44-2.5-0.75
			c-2.22-0.56-3.34-0.84-4.76-0.77c-1.07,0.05-2.16,0.35-4.31,0.95c-0.91,0.25-1.49,0.44-1.92,0.58c-0.45,0.15-0.75,0.24-1.08,0.3
			c0.42,0.11,0.81,0.22,1.17,0.32l0.09,0.03c0.39,0.12,1.44,0.43,2.86,0.82c0.28,0.08,1.75,0.47,3.27,0.84
			c3.81,0.93,5.73,1.39,7.44,1.51c2.28,0.16,4.01-0.11,6.63-0.53c1.62-0.25,3.21-0.64,6.11-1.34c1.39-0.33,2.79-0.68,4.17-1.03
			c-0.58-0.43-1.19-0.82-1.83-1.18c-0.02-0.01-0.03-0.02-0.05-0.03c0.01-0.01,0.03-0.02,0.04-0.04c0.47-0.43,0.91-0.89,1.32-1.38
			c-0.47-0.05-0.95-0.07-1.42-0.08C66.85,45.04,65.76,45.24,63.57,45.62z"/>
		<path style="fill:#ADEE3B;" d="M63.55,21.54c-1.5-0.57-3.11-0.91-4.79-0.97h-1.08h-0.77H44.37
			C49.13,22.09,56.12,23.39,63.55,21.54z"/>
		<path style="fill:#ED4118;" d="M46.95,54.87c0.52-0.09,0.69-0.13,2.01-0.46c0.9-0.23,2.4-0.6,4.95-1.23
			c3.24-0.79,5.03-1.23,5.67-1.34c0.27-0.05,0.54-0.09,0.81-0.12c-2.01-0.5-2.58-0.55-2.94-0.55c-0.84-0.01-1.37,0.14-2.1,0.33
			c-0.21,0.06-0.46,0.12-0.73,0.19c-1.07,0.27-4.34,1.08-7.45,0.63c-1.28-0.18-1.81-0.47-2.32-0.75c-0.52-0.28-1.01-0.55-2.28-0.69
			c-2.72-0.29-5.49,0.41-6.27,0.63c-0.35,0.1-0.61,0.19-0.85,0.26c-0.44,0.14-0.78,0.26-1.41,0.37c-0.88,0.16-1.78,0.22-2.7,0.18
			v2.08c2.17,0.35,4.35,0.58,6.52,0.7C41.09,55.29,43.64,55.42,46.95,54.87z"/>
		<path style="fill:#EE383C;" d="M38.63,31.49c0.4,0.08,0.82,0.16,1.56,0.28c1.5,0.24,3.79,0.58,6.22,0.77
			c2.14,0.17,5.36,0.43,9.41,0.04c2.77-0.27,5.1-0.76,7.8-1.33c0.35-0.07,0.68-0.15,0.99-0.21c1.55-0.34,2.78-0.61,4.54-0.74
			c1.02-0.08,2.04-0.09,3.06-0.05c-0.2-0.54-0.44-1.06-0.7-1.57c-0.4,0.16-0.8,0.31-1.21,0.45c-2.74,0.98-5.88,1.72-9.33,2.18
			c-2.44,0.33-5.18,0.5-8.08,0.5c-1.56,0-3.16-0.05-4.8-0.14c-5.58-0.33-11.21-1.21-16.75-2.63v1.64c2.08,0.09,4.12,0.29,6.07,0.61
			C37.93,31.36,38.27,31.42,38.63,31.49z"/>
		<path style="fill:#DF1A24;" d="M39.42,35.39c1.37-0.34,2.1-0.59,2.69-0.79c0.65-0.22,1.11-0.38,2.03-0.51
			c1.69-0.25,2.97-0.13,4.73,0.03c0.45,0.04,1.8,0.17,5.71,1.02c1.88,0.41,2.92,0.68,3.67,0.87c0.87,0.22,1.4,0.36,2.48,0.54
			c2.35,0.39,4.1,0.44,5.79,0.49c2.18,0.07,4.39,0.01,6.6-0.18c0.04-0.44,0.06-0.89,0.06-1.34c0-1.81-0.32-3.54-0.91-5.14
			c-1.04-0.04-2.07-0.03-3.1,0.05c-1.75,0.13-2.97,0.4-4.52,0.73c-0.31,0.07-0.64,0.14-0.99,0.21c-2.7,0.57-5.03,1.07-7.81,1.34
			c-1.57,0.15-3.02,0.21-4.33,0.21c-2.07,0-3.8-0.14-5.11-0.24c-2.44-0.2-4.73-0.53-6.23-0.77c-0.74-0.12-1.16-0.2-1.56-0.28
			c-0.36-0.07-0.69-0.13-1.21-0.22c-1.95-0.32-3.98-0.52-6.05-0.6v5.9c1.27-0.12,2.54-0.28,3.8-0.48
			C36.11,36.08,37.58,35.85,39.42,35.39z"/>
		<path style="fill:#EEDA17;" d="M31.34,45.26v0.42c0.32,0.05,0.64,0.11,0.95,0.16C31.96,45.67,31.65,45.48,31.34,45.26z"/>
		<path style="fill:#6CCDF3;" d="M38.08,47.04c0.49-0.05,0.8-0.15,1.39-0.34c0.43-0.14,1.01-0.33,1.92-0.58
			c2.16-0.6,3.25-0.9,4.34-0.95c1.44-0.07,2.57,0.21,4.8,0.78c1.24,0.31,1.98,0.57,2.51,0.75c0.71,0.25,1.11,0.38,1.94,0.41
			c0.45,0.01,0.69-0.01,4.06-0.7c1.19-0.24,1.97-0.41,2.54-0.53c0.97-0.2,1.3-0.27,1.97-0.39c2.19-0.38,3.29-0.58,4.69-0.56
			c0.51,0,1.02,0.03,1.53,0.09c0.06-0.07,0.12-0.15,0.18-0.22c-0.56-0.07-1.13-0.16-1.69-0.26c-1.53-0.27-3.05-0.64-4.51-1.09
			c-0.89-0.28-1.27-0.43-1.96-0.72c-0.54-0.22-1.28-0.53-2.62-1.04c-3.99-1.52-4.57-1.51-5.04-1.51c-1.56,0.02-2.87,0.55-4.02,1.01
			c-0.85,0.34-1.28,0.6-1.73,0.87c-0.4,0.24-0.81,0.49-1.54,0.81c-0.68,0.3-2.49,1.11-4.7,1.31c-2.29,0.2-4.03-0.34-5.86-0.92
			c-1.72-0.54-3.38-1.29-4.95-2.23v4.07c0.44,0.31,0.91,0.59,1.39,0.83C34.83,46.3,36.62,46.68,38.08,47.04z"/>
		<path style="fill:#1597F5;" d="M42.14,44.04c2.19-0.19,3.98-0.99,4.65-1.3c0.72-0.32,1.13-0.57,1.52-0.81
			c0.46-0.28,0.89-0.54,1.75-0.88c1.16-0.47,2.48-1.01,4.07-1.02c0.48-0.01,1.07-0.01,5.09,1.52c1.34,0.51,2.08,0.82,2.62,1.04
			c0.68,0.28,1.06,0.44,1.94,0.72c1.45,0.45,2.96,0.82,4.49,1.09c0.58,0.1,1.17,0.19,1.76,0.27c1.42-1.83,2.42-4,2.87-6.36
			c-1.96-0.13-3.95-0.16-5.9-0.1c-2.29,0.07-4.15,0.25-5.3,0.39c-1.13,0.14-1.73,0.24-3.04,0.47c-0.68,0.12-1.52,0.27-2.72,0.47
			c-3.17,0.54-4.76,0.81-5.91,0.95c-1.95,0.23-3.7,0.44-5.69,0.44c-0.58,0-1.18-0.02-1.81-0.06c-2.24-0.14-3.86-0.49-6.3-1.02
			c-1.64-0.36-3.28-0.77-4.89-1.25v2.27c1.58,0.96,3.26,1.72,4.99,2.26C38.15,43.7,39.88,44.24,42.14,44.04z"/>
		<path style="fill:#3162EB;" d="M42.54,40.73c2.79,0.18,4.96-0.08,7.48-0.39c1.15-0.14,2.74-0.41,5.9-0.95
			c1.2-0.2,2.04-0.35,2.72-0.47c1.32-0.23,1.92-0.34,3.05-0.48c1.16-0.14,3.03-0.32,5.32-0.39c1.97-0.06,3.96-0.02,5.93,0.1
			c0.07-0.38,0.12-0.77,0.16-1.17c-1.62,0.14-3.25,0.21-4.87,0.21c-0.57,0-1.15-0.01-1.72-0.03c-1.7-0.05-3.45-0.11-5.81-0.49
			c-1.09-0.18-1.65-0.32-2.49-0.54c-0.75-0.19-1.78-0.46-3.67-0.87c-3.9-0.85-5.25-0.98-5.69-1.02c-1.75-0.16-3.02-0.28-4.7-0.04
			c-0.9,0.13-1.36,0.29-2,0.51c-0.59,0.2-1.33,0.45-2.7,0.79c-1.85,0.46-3.32,0.69-4.3,0.85c-1.26,0.2-2.54,0.36-3.82,0.48v1.61
			c1.61,0.48,3.26,0.9,4.91,1.26C38.69,40.24,40.31,40.59,42.54,40.73z"/>
		<path style="fill:#F7C21F;" d="M34.01,52.02c0.62-0.11,0.96-0.22,1.39-0.37c0.24-0.08,0.5-0.17,0.85-0.27
			c0.79-0.22,3.57-0.93,6.32-0.64c1.29,0.14,1.8,0.41,2.33,0.71c0.5,0.27,1.02,0.56,2.28,0.74c3.08,0.44,6.33-0.37,7.39-0.63
			c0.27-0.07,0.51-0.13,0.73-0.19c0.75-0.2,1.29-0.35,2.14-0.34c0.31,0,0.81,0.01,3.31,0.64c2.39-0.3,4.42-0.26,6.36-0.17
			c0.19-0.06,0.41-0.12,0.65-0.18c1.77-0.43,3.28-0.33,4.38-0.25c0.51,0.04,1.02,0.09,1.53,0.17c-0.95-1.28-2.08-2.42-3.35-3.38
			c-1.42,0.36-2.85,0.72-4.28,1.06c-2.9,0.7-4.5,1.08-6.12,1.34c-2.11,0.33-3.65,0.57-5.36,0.57c-0.42,0-0.85-0.01-1.3-0.05
			c-1.73-0.12-3.65-0.59-7.47-1.51c-1.52-0.37-2.99-0.77-3.27-0.84c-1.42-0.39-2.47-0.7-2.86-0.82l-0.09-0.03
			c-0.45-0.13-0.95-0.27-1.49-0.4c-0.08,0.01-0.16,0.01-0.24,0.02c-1.84,0.13-3.28-0.39-3.97-0.64c-0.4-0.14-0.79-0.31-1.17-0.5
			c-0.44-0.08-0.89-0.16-1.35-0.23v6.37C32.24,52.24,33.14,52.18,34.01,52.02z"/>
		<path d="M63.77,21.63c-0.07-0.03-0.15-0.06-0.22-0.09c-7.43,1.84-14.42,0.55-19.18-0.97h-0.45c3.15,1.04,7.35,2.02,12.05,2.02
			C58.46,22.59,61.09,22.31,63.77,21.63z"/>
		<path d="M37.59,23.22c0.49,0.16,0.84,0.29,1.03,0.36l0.06,0.02c2.55,0.97,6.05,1.24,9.16,1.24c3.78,0,6.99-0.4,7.23-0.43
			c3.39-0.43,6.8-1.15,10.13-2.12c-0.06-0.03-0.12-0.06-0.17-0.09c-3.28,0.95-6.63,1.65-9.97,2.08c-0.43,0.06-10.71,1.34-16.32-0.8
			l-0.06-0.02c-0.19-0.07-0.54-0.21-1.03-0.36c-2.01-0.64-4.12-0.93-6.29-0.86v0.14C33.5,22.29,35.6,22.58,37.59,23.22z"/>
		<path d="M36.37,24.98c0.86,0.09,1.56,0.2,4.88,0.84c2.87,0.55,4.17,0.82,4.87,0.96c0.68,0.14,0.82,0.17,1.29,0.23
			c0.99,0.14,2.71,0.32,4.91,0.32c0.9,0,1.87-0.03,2.91-0.11c1.34-0.1,3.22-0.44,6.97-1.13c2.65-0.48,4.29-0.85,6.16-1.56
			c-0.04-0.03-0.08-0.07-0.11-0.1c-1.84,0.69-3.46,1.05-6.07,1.53c-3.74,0.68-5.62,1.03-6.96,1.12c-3.56,0.26-6.41-0.02-7.79-0.21
			c-0.46-0.06-0.6-0.09-1.28-0.23c-0.7-0.14-2-0.41-4.87-0.96c-3.32-0.64-4.03-0.76-4.89-0.84c-1.68-0.17-3.37-0.2-5.05-0.08v0.14
			C33.01,24.78,34.7,24.8,36.37,24.98z"/>
		<path d="M52.88,31.8c2.91,0,5.65-0.17,8.08-0.5c3.45-0.47,6.59-1.2,9.33-2.18c0.4-0.14,0.81-0.3,1.21-0.45
			c-0.02-0.04-0.04-0.08-0.06-0.12c-0.4,0.16-0.79,0.3-1.19,0.45c-2.73,0.98-5.87,1.71-9.3,2.18c-3.73,0.5-8.18,0.63-12.86,0.35
			c-5.59-0.33-11.22-1.21-16.75-2.63v0.14c5.53,1.41,11.16,2.3,16.75,2.63C49.72,31.75,51.33,31.8,52.88,31.8z"/>
		<path d="M38.6,31.63c0.4,0.08,0.82,0.16,1.56,0.28c1.5,0.25,3.79,0.58,6.23,0.77c1.31,0.11,3.03,0.24,5.11,0.24
			c1.31,0,2.76-0.06,4.33-0.21c2.78-0.27,5.11-0.77,7.81-1.34c0.35-0.07,0.68-0.15,0.99-0.21c1.55-0.34,2.77-0.6,4.52-0.73
			c1.03-0.08,2.07-0.09,3.1-0.05c-0.02-0.05-0.03-0.09-0.05-0.14c-1.02-0.04-2.05-0.02-3.06,0.05c-1.76,0.13-2.99,0.4-4.54,0.74
			c-0.31,0.07-0.64,0.14-0.99,0.21c-2.7,0.57-5.02,1.06-7.8,1.33c-4.05,0.4-7.28,0.14-9.41-0.04c-2.43-0.2-4.72-0.53-6.22-0.77
			c-0.74-0.12-1.16-0.2-1.56-0.28c-0.36-0.07-0.69-0.13-1.22-0.22c-1.95-0.32-3.99-0.52-6.07-0.61v0.14c2.07,0.09,4.1,0.29,6.05,0.6
			C37.91,31.5,38.25,31.56,38.6,31.63z"/>
		<path d="M39.46,35.52c1.37-0.34,2.11-0.59,2.7-0.79c0.64-0.22,1.1-0.37,2-0.51c1.67-0.25,2.94-0.13,4.7,0.04
			c0.44,0.04,1.79,0.17,5.69,1.02c1.88,0.41,2.91,0.68,3.67,0.87c0.85,0.22,1.4,0.36,2.49,0.54c2.36,0.39,4.12,0.44,5.81,0.49
			c0.57,0.02,1.14,0.03,1.72,0.03c1.62,0,3.24-0.07,4.87-0.21c0-0.05,0.01-0.09,0.01-0.14c-2.21,0.19-4.42,0.25-6.6,0.18
			c-1.69-0.05-3.44-0.11-5.79-0.49c-1.08-0.18-1.61-0.31-2.48-0.54c-0.75-0.19-1.79-0.46-3.67-0.87c-3.9-0.85-5.26-0.98-5.71-1.02
			c-1.76-0.16-3.04-0.28-4.73-0.03c-0.92,0.13-1.38,0.29-2.03,0.51c-0.59,0.2-1.32,0.45-2.69,0.79c-1.84,0.45-3.31,0.69-4.28,0.84
			c-1.26,0.2-2.53,0.36-3.8,0.48v0.14c1.28-0.12,2.56-0.28,3.82-0.48C36.13,36.21,37.61,35.98,39.46,35.52z"/>
		<path d="M42.53,40.87c0.63,0.04,1.23,0.06,1.81,0.06c1.99,0,3.74-0.21,5.69-0.44c1.15-0.14,2.74-0.41,5.91-0.95
			c1.2-0.2,2.04-0.35,2.72-0.47c1.31-0.23,1.91-0.34,3.04-0.47c1.16-0.14,3.02-0.32,5.3-0.39c1.96-0.06,3.94-0.02,5.9,0.1
			c0.01-0.05,0.02-0.09,0.02-0.14c-1.97-0.13-3.97-0.16-5.93-0.1c-2.29,0.07-4.16,0.25-5.32,0.39c-1.13,0.14-1.74,0.24-3.05,0.48
			c-0.68,0.12-1.52,0.27-2.72,0.47c-3.17,0.54-4.76,0.81-5.9,0.95c-2.52,0.3-4.69,0.56-7.48,0.39c-2.23-0.14-3.84-0.49-6.28-1.02
			c-1.65-0.36-3.3-0.78-4.91-1.26v0.14c1.61,0.47,3.24,0.89,4.89,1.25C38.67,40.38,40.29,40.73,42.53,40.87z"/>
		<path d="M42.15,44.18c2.21-0.2,4.02-1,4.7-1.31c0.73-0.32,1.14-0.57,1.54-0.81c0.45-0.27,0.88-0.53,1.73-0.87
			c1.15-0.47,2.46-1,4.02-1.01c0.47-0.01,1.04-0.01,5.04,1.51c1.34,0.51,2.08,0.82,2.62,1.04c0.69,0.29,1.07,0.44,1.96,0.72
			c1.46,0.45,2.98,0.82,4.51,1.09c0.56,0.1,1.12,0.18,1.69,0.26c0.03-0.04,0.07-0.08,0.1-0.13c-0.59-0.07-1.18-0.16-1.76-0.27
			c-1.53-0.27-3.04-0.64-4.49-1.09c-0.88-0.28-1.26-0.43-1.94-0.72c-0.54-0.22-1.28-0.53-2.62-1.04c-4.02-1.53-4.61-1.52-5.09-1.52
			c-1.59,0.02-2.91,0.55-4.07,1.02c-0.86,0.35-1.29,0.61-1.75,0.88c-0.4,0.24-0.8,0.48-1.52,0.81c-0.67,0.3-2.47,1.1-4.65,1.3
			c-2.26,0.2-3.99-0.34-5.81-0.91c-1.73-0.54-3.41-1.3-4.99-2.26v0.16c1.57,0.94,3.23,1.69,4.95,2.23
			C38.13,43.84,39.86,44.38,42.15,44.18z"/>
		<path d="M32.73,45.93c-0.48-0.24-0.95-0.52-1.39-0.83v0.17c0.31,0.21,0.62,0.41,0.95,0.59C32.44,45.88,32.58,45.9,32.73,45.93z"/>
		<path d="M63.55,45.48c-0.67,0.12-1,0.19-1.97,0.39c-0.57,0.12-1.34,0.28-2.54,0.53c-3.38,0.69-3.61,0.72-4.06,0.7
			c-0.83-0.03-1.22-0.16-1.94-0.41c-0.54-0.18-1.27-0.44-2.51-0.75c-2.24-0.56-3.36-0.84-4.8-0.78c-1.09,0.05-2.18,0.35-4.34,0.95
			c-0.91,0.25-1.49,0.44-1.92,0.58c-0.59,0.19-0.9,0.29-1.39,0.34c0.12,0.03,0.24,0.06,0.35,0.09c0.34-0.06,0.63-0.16,1.08-0.3
			c0.43-0.14,1.01-0.33,1.92-0.58c2.15-0.6,3.24-0.9,4.31-0.95c1.42-0.07,2.54,0.21,4.76,0.77c1.24,0.31,1.97,0.56,2.5,0.75
			c0.73,0.25,1.13,0.39,1.98,0.42c0.05,0,0.1,0,0.15,0c0.41,0,0.91-0.08,3.95-0.71c1.19-0.24,1.97-0.41,2.54-0.53
			c0.97-0.2,1.3-0.27,1.96-0.39c2.18-0.38,3.28-0.57,4.66-0.56c0.47,0,0.95,0.03,1.42,0.08c0.04-0.04,0.07-0.08,0.11-0.13
			c-0.51-0.05-1.02-0.08-1.53-0.09C66.84,44.91,65.74,45.1,63.55,45.48z"/>
		<path d="M33.91,46.43c-0.23-0.08-0.46-0.18-0.69-0.28c-0.17-0.03-0.35-0.06-0.53-0.1c0.38,0.19,0.77,0.36,1.17,0.5
			c0.69,0.25,2.12,0.77,3.97,0.64c0.09-0.01,0.17-0.01,0.24-0.02c-0.14-0.04-0.29-0.07-0.43-0.11
			C35.91,47.16,34.56,46.67,33.91,46.43z"/>
		<path style="fill:#6FC9EF;" d="M37.63,47.07c0.06,0,0.12-0.01,0.18-0.01c0.09-0.01,0.18-0.01,0.26-0.02
			c-1.46-0.36-3.25-0.74-5.34-1.11c0.16,0.08,0.32,0.16,0.48,0.23C34.9,46.47,36.38,46.77,37.63,47.07z"/>
		<path d="M59.89,50.12c-2.62,0.41-4.35,0.68-6.63,0.53c-1.72-0.12-3.63-0.58-7.44-1.51c-1.52-0.37-2.99-0.77-3.27-0.84
			c-1.42-0.39-2.46-0.7-2.86-0.82l-0.09-0.03c-0.36-0.11-0.75-0.22-1.17-0.32c-0.11,0.02-0.23,0.04-0.36,0.05
			c0.54,0.14,1.04,0.27,1.49,0.4l0.09,0.03c0.4,0.12,1.45,0.43,2.86,0.82c0.28,0.08,1.75,0.47,3.27,0.84
			c3.82,0.93,5.74,1.39,7.47,1.51c0.45,0.03,0.88,0.05,1.3,0.05c1.71,0,3.25-0.24,5.36-0.57c1.62-0.26,3.22-0.64,6.12-1.34
			c1.43-0.34,2.86-0.7,4.28-1.06c-0.05-0.04-0.09-0.07-0.14-0.11c-1.38,0.35-2.78,0.7-4.17,1.03
			C63.11,49.49,61.51,49.87,59.89,50.12z"/>
		<path d="M32.29,45.85c-0.31-0.05-0.63-0.11-0.95-0.16v0.14c0.46,0.08,0.91,0.16,1.35,0.23C32.55,46,32.42,45.92,32.29,45.85z"/>
		<path d="M38.08,47.04c-0.08,0.01-0.17,0.02-0.26,0.02c-0.06,0-0.12,0.01-0.18,0.01c0.15,0.04,0.29,0.07,0.43,0.11
			c0.13-0.01,0.25-0.03,0.36-0.05C38.31,47.1,38.19,47.07,38.08,47.04z"/>
		<path d="M32.73,45.93c-0.15-0.03-0.29-0.05-0.44-0.08c0.13,0.07,0.27,0.14,0.4,0.21c0.18,0.03,0.35,0.06,0.53,0.1
			C33.05,46.09,32.89,46.01,32.73,45.93z"/>
		<path d="M67.77,51.32c-0.24,0.06-0.45,0.12-0.65,0.18c0.14,0.01,0.28,0.01,0.42,0.02c0.08-0.02,0.17-0.05,0.26-0.07
			c1.75-0.43,3.25-0.32,4.34-0.24c0.56,0.04,1.11,0.1,1.65,0.19c-0.04-0.05-0.08-0.1-0.12-0.16c-0.5-0.08-1.01-0.14-1.53-0.17
			C71.05,50.99,69.54,50.89,67.77,51.32z"/>
		<path d="M65.85,52.02c-0.56,0.27-0.97,0.46-1.77,0.46c-0.01,0-0.02,0-0.02,0c-0.32,0-0.43-0.03-1.06-0.21
			c-0.35-0.1-0.88-0.25-1.7-0.46c-0.06-0.01-0.11-0.03-0.16-0.04c-0.13,0.01-0.25,0.03-0.38,0.05c0.16,0.04,0.33,0.08,0.51,0.13
			c0.82,0.21,1.35,0.36,1.7,0.46c0.64,0.18,0.76,0.21,1.09,0.21c0.01,0,0.02,0,0.02,0c0.83,0,1.27-0.21,1.83-0.47
			c0.34-0.16,0.71-0.33,1.23-0.5c-0.12-0.01-0.25-0.01-0.37-0.02C66.39,51.76,66.1,51.9,65.85,52.02z"/>
		<path d="M34.04,52.16c0.63-0.11,0.97-0.23,1.41-0.37c0.23-0.08,0.5-0.16,0.85-0.26c0.78-0.22,3.54-0.92,6.27-0.63
			c1.27,0.14,1.76,0.41,2.28,0.69c0.51,0.28,1.04,0.57,2.32,0.75c3.11,0.44,6.37-0.37,7.45-0.63c0.27-0.07,0.51-0.13,0.73-0.19
			c0.74-0.2,1.27-0.34,2.1-0.33c0.37,0,0.94,0.05,2.94,0.55c0.12-0.02,0.25-0.03,0.37-0.05c-2.5-0.63-3.01-0.64-3.31-0.64
			c-0.85-0.01-1.39,0.14-2.14,0.34c-0.21,0.06-0.46,0.12-0.73,0.19c-1.07,0.26-4.31,1.07-7.39,0.63c-1.26-0.18-1.77-0.46-2.28-0.74
			c-0.53-0.29-1.04-0.57-2.33-0.71c-2.75-0.3-5.53,0.41-6.32,0.64c-0.35,0.1-0.62,0.19-0.85,0.27c-0.43,0.14-0.77,0.25-1.39,0.37
			c-0.87,0.16-1.77,0.22-2.67,0.17v0.14C32.25,52.38,33.15,52.32,34.04,52.16z"/>
		<path style="fill:#F6BF1D;" d="M66.76,51.62c0.11-0.04,0.23-0.08,0.35-0.12c-1.94-0.09-3.97-0.12-6.36,0.17
			c0.12,0.03,0.24,0.06,0.37,0.09C63.21,51.54,65.03,51.55,66.76,51.62z"/>
		<path d="M42.03,55.4c1.58,0,3.15-0.1,4.94-0.4c0.52-0.09,0.69-0.13,2.02-0.46c0.9-0.23,2.4-0.6,4.94-1.23
			c3.24-0.79,5.02-1.23,5.66-1.34c0.39-0.06,0.78-0.12,1.15-0.17c-0.13-0.03-0.25-0.06-0.36-0.09c-0.27,0.04-0.53,0.08-0.81,0.12
			c-0.64,0.11-2.43,0.54-5.67,1.34c-2.54,0.62-4.05,1-4.95,1.23c-1.32,0.33-1.5,0.37-2.01,0.46c-3.31,0.55-5.86,0.42-9.09,0.25
			c-2.17-0.11-4.35-0.35-6.52-0.7v0.14c2.17,0.35,4.35,0.58,6.51,0.69C39.34,55.33,40.69,55.4,42.03,55.4z"/>
		<path d="M67.54,51.52c-0.14,0.04-0.28,0.08-0.4,0.12c0.41,0.02,0.81,0.04,1.2,0.06c2.03,0.11,4.07,0.33,6.1,0.66
			c-0.03-0.05-0.07-0.1-0.1-0.16c-1.99-0.32-4-0.54-5.99-0.65C68.08,51.55,67.81,51.54,67.54,51.52z"/>
		<path d="M60.76,51.68c-0.12,0.02-0.25,0.03-0.37,0.05c0.12,0.03,0.24,0.06,0.36,0.09c0.13-0.02,0.25-0.03,0.38-0.05
			C61,51.74,60.88,51.71,60.76,51.68z"/>
		<path d="M67.12,51.5c-0.13,0.04-0.24,0.08-0.35,0.12c0.12,0.01,0.25,0.01,0.37,0.02c0.12-0.04,0.26-0.08,0.4-0.12
			C67.4,51.52,67.26,51.51,67.12,51.5z"/>
		<path d="M39.21,59c-0.04-0.04-0.08-0.09-0.11-0.13c-2.55,0.2-5.15,0.18-7.75-0.07v0.14c1.45,0.14,2.89,0.21,4.32,0.21
			C36.85,59.14,38.03,59.09,39.21,59z"/>
		<path d="M62.42,53.01c-1.3,0.23-1.91,0.45-3.23,0.92c-0.77,0.27-1.83,0.65-3.42,1.16c-2.15,0.69-5.09,1.65-8.47,2.42
			c-1.81,0.42-4.54,1.05-7.9,1.33c-0.04,0-0.09,0.01-0.13,0.01c0.04,0.04,0.07,0.09,0.11,0.13c0.01,0,0.02,0,0.03,0
			c3.37-0.29,6.11-0.92,7.92-1.34c3.39-0.78,6.33-1.73,8.48-2.43c1.6-0.52,2.65-0.89,3.43-1.16c1.32-0.47,1.92-0.68,3.21-0.91
			c2.9-0.52,5.22-0.4,6.91-0.32c1.92,0.1,3.85,0.35,5.76,0.75c-0.03-0.05-0.05-0.11-0.08-0.16c-1.88-0.39-3.78-0.63-5.67-0.73
			C67.67,52.6,65.34,52.48,62.42,53.01z"/>
		<path style="fill:#0F96F6;" d="M38.61,58.06l-0.11,0.08c0.19,0.25,0.39,0.49,0.59,0.72c0.06,0,0.11-0.01,0.17-0.01
			C39.04,58.6,38.82,58.33,38.61,58.06z"/>
		<path d="M39.26,58.85c-0.06,0-0.11,0.01-0.17,0.01c0.04,0.04,0.07,0.09,0.11,0.13c0.06,0,0.11-0.01,0.17-0.01
			C39.34,58.94,39.3,58.9,39.26,58.85z"/>
		<path d="M35.82,64.29c-1.51-0.39-3.01-0.85-4.48-1.39v0.15c1.38,0.5,2.78,0.94,4.19,1.31L35.82,64.29z"/>
		<path d="M35.53,64.36l-4.19,1.02v0.14l4.48-1.09C35.72,64.41,35.63,64.39,35.53,64.36z"/>
		<path style="fill:#D6ED91;" d="M38.15,63.87l-0.03-0.13l-2.3,0.56c0.1,0.02,0.19,0.05,0.29,0.07L38.15,63.87z"/>
		<path d="M35.82,64.29l-0.28,0.07c0.09,0.02,0.19,0.05,0.28,0.07l0.29-0.07C36.01,64.34,35.91,64.32,35.82,64.29z"/>
		<path d="M65.92,73.24c-0.04,0.03-0.08,0.07-0.12,0.1c1.32,0.46,1.68,0.58,2.33,0.72c0.74,0.16,1.49,0.28,2.24,0.34
			c0.05-0.04,0.11-0.08,0.16-0.13c-0.8-0.06-1.6-0.18-2.38-0.35C67.52,73.79,67.16,73.67,65.92,73.24z"/>
		<path d="M34.51,69.45c3.33,2.29,6.9,2.39,8.61,2.44l0.04,0c0.24,0.01,0.47,0.01,0.7,0.01c-0.04-0.05-0.08-0.09-0.12-0.14
			c-0.19,0-0.38,0-0.57-0.01l-0.04,0c-1.7-0.05-5.24-0.14-8.54-2.41c-1.25-0.86-2.34-1.93-3.25-3.17v0.23
			C32.24,67.59,33.3,68.61,34.51,69.45z"/>
		<path style="fill:#32E901;" d="M43.4,71.08l-0.12,0.07c0.05,0.08,0.2,0.31,0.46,0.6c0.06,0,0.12,0,0.18,0
			C43.63,71.42,43.45,71.16,43.4,71.08z"/>
		<path d="M63.82,74.32c-0.36,0.13-1.2,0.45-2.29,0.38c-0.86-0.05-1.49-0.34-2.82-0.98c-0.86-0.41-1.28-0.67-1.61-0.88
			c-0.36-0.23-0.6-0.38-1.18-0.57c-0.69-0.23-1.97-0.65-3.25-0.17c-0.33,0.12-0.49,0.24-0.7,0.39c-0.15,0.11-0.31,0.23-0.58,0.39
			c-1.18,0.69-2.45,1.01-3.13,1.01c0,0,0,0,0,0c-2,0-3.44-1.16-4.22-2c-0.06,0-0.12,0-0.18,0c0.77,0.86,2.27,2.14,4.4,2.14
			c0,0,0,0,0,0c0.7,0,2-0.32,3.2-1.03c0.27-0.16,0.45-0.29,0.59-0.39c0.21-0.15,0.35-0.26,0.66-0.37c1.23-0.46,2.44-0.06,3.15,0.18
			c0.56,0.18,0.79,0.33,1.15,0.55c0.32,0.2,0.76,0.47,1.62,0.89c1.26,0.6,1.95,0.93,2.87,0.99c0.11,0.01,0.21,0.01,0.31,0.01
			c0.97,0,1.7-0.28,2.04-0.4c0.79-0.3,1.43-0.71,1.92-1.11c-0.05-0.02-0.1-0.04-0.15-0.05C65.16,73.67,64.56,74.04,63.82,74.32z"/>
		<path style="fill:#32E901;" d="M66.57,72.6l-0.1-0.09c-0.18,0.21-0.42,0.44-0.7,0.67c0.05,0.02,0.1,0.04,0.15,0.05
			C66.18,73.01,66.39,72.8,66.57,72.6z"/>
		<path d="M44.05,71.89c-0.04-0.05-0.08-0.09-0.12-0.14c-0.06,0-0.12,0-0.18,0c0.04,0.04,0.08,0.09,0.12,0.14
			C43.92,71.89,43.99,71.89,44.05,71.89z"/>
		<path d="M65.79,73.34c0.04-0.03,0.08-0.07,0.12-0.1c-0.05-0.02-0.1-0.03-0.15-0.05c-0.04,0.03-0.08,0.07-0.13,0.1
			C65.69,73.31,65.74,73.32,65.79,73.34z"/>
		<path style="fill:#D5EB8E;" d="M76.81,59.02c0,0.02,0.01,0.05,0.01,0.07C76.82,59.07,76.81,59.05,76.81,59.02z"/>
		<path style="fill:#D5EB8E;" d="M76.75,58.58c0,0.03,0.01,0.06,0.01,0.09C76.76,58.64,76.75,58.61,76.75,58.58z"/>
		<path style="fill:#D5EB8E;" d="M76.66,58.05c0.01,0.03,0.01,0.06,0.02,0.1C76.67,58.12,76.66,58.08,76.66,58.05z"/>
		<path style="fill:#D5EB8E;" d="M76.49,57.3c0.01,0.02,0.01,0.04,0.02,0.07C76.51,57.34,76.5,57.32,76.49,57.3z"/>
		<path style="fill:#D5EB8E;" d="M76.55,57.54c0.01,0.03,0.01,0.06,0.02,0.08C76.56,57.6,76.56,57.57,76.55,57.54z"/>
		<path style="fill:#D5EB8E;" d="M76.7,58.31c0.01,0.03,0.01,0.07,0.02,0.1C76.71,58.38,76.71,58.35,76.7,58.31z"/>
		<path style="fill:#D5EB8E;" d="M76.6,57.79c0.01,0.03,0.01,0.06,0.02,0.09C76.62,57.85,76.61,57.82,76.6,57.79z"/>
		<polygon style="fill:#D5EB8E;" points="76.45,57.11 76.45,57.11 76.45,57.11 		"/>
		<path style="opacity:0.81;fill:#9DAC6E;" d="M76.31,56.6c0.02,0.08,0.05,0.17,0.07,0.25C76.36,56.77,76.34,56.68,76.31,56.6z"/>
		<polygon style="opacity:0.81;fill:#9DAC6E;" points="76.45,57.11 76.45,57.1 76.45,57.11 		"/>
		<path style="opacity:0.81;fill:#9DAC6E;" d="M76.31,56.6c-0.53,0.04-1.07,0.11-1.59,0.2C75.25,56.7,75.78,56.64,76.31,56.6z"/>
		<path style="fill:none;" d="M76.31,56.6c-0.53,0.04-1.07,0.11-1.59,0.2C75.25,56.7,75.78,56.64,76.31,56.6z"/>
		<path style="fill:none;" d="M61.85,63.65C61.85,63.65,61.85,63.65,61.85,63.65c0.09-0.01,0.19-0.02,0.28-0.03
			C62.04,63.63,61.95,63.64,61.85,63.65z"/>
		<path style="fill:#0FC8D0;" d="M53.57,65.38c1.28-0.05,2.46-0.25,3.55-0.55c-0.11-0.04-0.22-0.09-0.32-0.13
			c-0.04-0.02-0.07-0.03-0.11-0.05c-0.38,0.07-0.8,0.15-1.32,0.23l-0.18,0.03c-0.95,0.16-1.94,0.32-2.98,0.46
			C52.67,65.4,53.12,65.4,53.57,65.38z"/>
		<path style="fill:#CEE68B;" d="M49.55,65.17c0.27,0.1,0.54,0.2,0.83,0.29c0.18-0.02,0.36-0.04,0.53-0.06
			C50.46,65.34,50,65.26,49.55,65.17z"/>
		<path style="fill:#D6ED91;" d="M43.91,65.6c2.39,0.15,4.52,0.06,6.47-0.14c-0.29-0.09-0.57-0.19-0.83-0.29
			c-0.72-0.15-1.44-0.36-2.15-0.61c-1.72-0.61-2.97-1.34-3.5-1.65c-1.77-1.04-3.35-2.36-4.7-3.91c-1.17,0.09-2.36,0.14-3.54,0.14
			c-1.43,0-2.88-0.07-4.32-0.21v3.97c1.47,0.54,2.97,1,4.48,1.39l2.3-0.56l0.03,0.13l-2.05,0.5c0.3,0.07,0.59,0.14,0.89,0.21
			C39.92,65.24,42.37,65.5,43.91,65.6z"/>
		<path style="fill:#0FC8D0;" d="M59.01,64.21c-0.43,0.08-0.81,0.15-1.21,0.23c-0.27,0.05-0.55,0.11-0.86,0.17
			c0.13,0.05,0.26,0.11,0.4,0.16C57.92,64.61,58.47,64.42,59.01,64.21z"/>
		<path style="fill:#0FC8D0;" d="M43.98,62.79c1.57,0.92,3.16,1.6,4.77,2.04c-0.94-0.43-1.68-0.89-2.2-1.24
			c0.51,0.35,1.26,0.81,2.2,1.24c0.92,0.25,1.85,0.42,2.78,0.5c1.29-0.16,2.5-0.36,3.66-0.55l0.18-0.03
			c0.43-0.07,0.8-0.13,1.12-0.19c-1.14-0.53-1.09-0.73-1.07-0.81c0.03-0.12,0.17-0.24,1.02-0.23l0,0.14
			c-0.83-0.01-0.88,0.11-0.88,0.12c0,0.01-0.03,0.2,1.18,0.73c0.39-0.07,0.73-0.14,1.06-0.21c0.56-0.11,1.09-0.22,1.83-0.34
			c1.15-0.49,2.23-1.05,3.29-1.6c0.81-0.42,1.45-0.8,2.18-1.23c1.02-0.6,2.28-1.35,4.54-2.53c1.75-0.91,3.13-1.58,5.08-1.94
			c0.52-0.1,1.05-0.16,1.58-0.2c-0.3-1.01-0.68-1.97-1.15-2.89c-1.91-0.4-3.84-0.65-5.76-0.75c-1.69-0.09-4.02-0.2-6.91,0.32
			c-1.29,0.23-1.89,0.44-3.21,0.91c-0.77,0.27-1.83,0.65-3.43,1.16c-2.15,0.7-5.09,1.65-8.48,2.43c-1.81,0.42-4.55,1.05-7.92,1.34
			c-0.01,0-0.02,0-0.03,0C40.71,60.5,42.25,61.77,43.98,62.79z"/>
		<path style="fill:#01434E;" d="M64.84,73.01c-3.59-1.25-5.56-1.94-6.67-2.18c-1.57-0.34-3.05-0.66-5.01-0.49
			c-1.03,0.09-1.64,0.26-2.4,0.48c-0.56,0.16-1.19,0.34-2.13,0.54c-0.64,0.13-2.44,0.5-4.58,0.53c0.78,0.84,2.21,2,4.22,2
			c0,0,0,0,0,0c0.68,0,1.95-0.32,3.13-1.01c0.27-0.16,0.43-0.28,0.58-0.39c0.21-0.15,0.37-0.27,0.7-0.39
			c1.28-0.47,2.56-0.05,3.25,0.17c0.57,0.19,0.81,0.34,1.18,0.57c0.33,0.21,0.75,0.47,1.61,0.88c1.33,0.64,1.96,0.92,2.82,0.98
			c1.09,0.07,1.93-0.25,2.29-0.38c0.74-0.28,1.34-0.66,1.82-1.03c-0.03-0.01-0.06-0.02-0.09-0.03C65.34,73.18,65.1,73.1,64.84,73.01
			z"/>
		<path style="fill:#23AF00;" d="M53.58,65.52c-0.2,0.01-0.4,0.01-0.61,0.01c-0.48,0-0.97-0.02-1.45-0.07
			c-0.26,0.03-0.53,0.06-0.8,0.09c1.02,0.29,2.16,0.49,3.42,0.5c1.63,0.02,3.11-0.28,4.38-0.7c-0.41-0.14-0.82-0.29-1.19-0.44
			C56.18,65.25,54.94,65.47,53.58,65.52z"/>
		<path style="fill:#32E901;" d="M69.41,66.9c-0.28,0-0.57,0-0.85-0.01c-2.57-0.05-5.48-0.11-9.02-1.2
			c-0.33-0.1-0.67-0.21-1.01-0.33c-1.28,0.42-2.75,0.72-4.38,0.7c-1.26-0.01-2.4-0.21-3.42-0.5c-1.37,0.15-2.84,0.25-4.42,0.25
			c-0.77,0-1.57-0.02-2.4-0.08c-1.54-0.1-4-0.36-6.94-1.02c-0.38-0.09-0.76-0.18-1.15-0.28l-4.48,1.09v0.64
			c0.91,1.24,2,2.31,3.25,3.17c3.29,2.27,6.83,2.37,8.54,2.41l0.04,0c0.19,0.01,0.39,0.01,0.57,0.01c-0.25-0.3-0.41-0.53-0.46-0.6
			l0.12-0.07c0.05,0.08,0.23,0.34,0.52,0.68c2.19-0.03,4.03-0.4,4.68-0.53c0.93-0.19,1.56-0.37,2.12-0.53
			c0.77-0.22,1.38-0.4,2.43-0.49c1.98-0.17,3.47,0.15,5.05,0.49c1.12,0.24,3.1,0.93,6.69,2.18c0.26,0.09,0.5,0.17,0.71,0.25
			c0.06,0.02,0.11,0.04,0.17,0.06c0.28-0.24,0.52-0.47,0.7-0.67l0.1,0.09c-0.17,0.19-0.39,0.41-0.65,0.64
			c1.25,0.44,1.61,0.55,2.23,0.69c0.78,0.17,1.57,0.29,2.38,0.35c2.64-2.07,4.65-4.91,5.67-8.19c-0.51,0.15-1.03,0.27-1.54,0.38
			C73.3,66.75,71.46,66.9,69.41,66.9z"/>
		<path style="fill:#A9EC10;" d="M67.78,63.31c-0.87,0.03-3.05,0.13-5.85,0.47c-0.82,0.49-1.9,1.06-3.19,1.51
			c0.28,0.1,0.56,0.19,0.84,0.27c3.52,1.09,6.42,1.14,8.98,1.19c2.39,0.05,4.54-0.1,6.07-0.42c0.54-0.11,1.08-0.25,1.62-0.4
			c0.22-0.73,0.39-1.47,0.5-2.23C73.75,63.34,70.74,63.21,67.78,63.31z"/>
		<path style="fill:#74A608;" d="M59.64,64.1c-0.67,0.28-1.36,0.54-2.09,0.76c0.37,0.15,0.78,0.29,1.19,0.43
			c1.29-0.45,2.37-1.02,3.19-1.51c-0.31,0.04-0.63,0.08-0.96,0.12C60.45,63.97,60.02,64.04,59.64,64.1z"/>
		<path d="M53.57,65.38c-0.45,0.02-0.91,0.01-1.36-0.01c-0.23,0.03-0.46,0.06-0.69,0.09c0.48,0.04,0.97,0.07,1.45,0.07
			c0.2,0,0.4,0,0.61-0.01c1.37-0.05,2.6-0.27,3.76-0.6c-0.07-0.03-0.14-0.06-0.21-0.08C56.03,65.14,54.86,65.34,53.57,65.38z"/>
		<path d="M69.61,58.61c-2.26,1.17-3.52,1.92-4.54,2.53c-0.73,0.44-1.37,0.81-2.18,1.23c-1.07,0.55-2.15,1.11-3.29,1.6
			c0.17-0.03,0.35-0.06,0.54-0.08c0.97-0.44,1.9-0.92,2.82-1.39c0.82-0.42,1.45-0.8,2.19-1.24c1.01-0.6,2.28-1.35,4.53-2.52
			c1.73-0.9,3.11-1.57,5.04-1.93c0.52-0.1,1.06-0.16,1.59-0.2c-0.01-0.05-0.03-0.09-0.04-0.14c-0.53,0.04-1.06,0.11-1.58,0.2
			C72.75,57.03,71.36,57.7,69.61,58.61z"/>
		<path d="M43.91,62.91c0.53,0.31,1.77,1.04,3.5,1.65c0.71,0.25,1.43,0.45,2.15,0.61c-0.28-0.11-0.55-0.22-0.8-0.34
			c-1.61-0.43-3.2-1.11-4.77-2.04c-1.73-1.02-3.27-2.3-4.6-3.81c-0.06,0-0.11,0.01-0.17,0.01C40.56,60.55,42.14,61.87,43.91,62.91z"
			/>
		<path d="M51.52,65.33c-0.93-0.09-1.86-0.25-2.78-0.5c0.25,0.12,0.52,0.23,0.8,0.34c0.45,0.1,0.91,0.18,1.37,0.23
			C51.12,65.38,51.32,65.35,51.52,65.33z"/>
		<path d="M57.34,64.78c0.07,0.03,0.14,0.06,0.21,0.08c0.73-0.22,1.42-0.47,2.09-0.76c-0.23,0.04-0.44,0.07-0.63,0.11
			C58.47,64.42,57.92,64.61,57.34,64.78z"/>
		<path d="M75.08,63.39c-1.32-0.12-2.63-0.2-3.94-0.23c-0.37-0.01-0.75-0.02-1.12-0.02s-0.75,0-1.12,0c-0.37,0-0.74,0.01-1.11,0.03
			c-0.03,0-0.06,0-0.09,0c-0.01,0-0.02,0-0.03,0c-0.02,0-0.04,0-0.07,0c-0.01,0-0.03,0-0.04,0c-0.02,0-0.04,0-0.07,0
			c-0.02,0-0.03,0-0.05,0c-0.02,0-0.05,0-0.07,0c-0.02,0-0.03,0-0.05,0c-0.02,0-0.05,0-0.07,0c-0.02,0-0.04,0-0.06,0
			c-0.03,0-0.05,0-0.08,0c-0.02,0-0.04,0-0.06,0c-0.03,0-0.06,0-0.09,0c-0.02,0-0.04,0-0.06,0c-0.03,0-0.06,0-0.09,0
			c-0.02,0-0.04,0-0.06,0c-0.04,0-0.07,0-0.11,0.01c-0.02,0-0.03,0-0.05,0c-0.05,0-0.11,0.01-0.17,0.01c-0.01,0-0.02,0-0.02,0
			c-0.05,0-0.1,0.01-0.15,0.01c-0.02,0-0.04,0-0.06,0c-0.04,0-0.08,0-0.12,0.01c-0.02,0-0.05,0-0.07,0c-0.04,0-0.08,0-0.12,0.01
			c-0.03,0-0.05,0-0.08,0.01c-0.04,0-0.08,0.01-0.12,0.01c-0.03,0-0.06,0-0.08,0.01c-0.04,0-0.08,0.01-0.12,0.01
			c-0.03,0-0.06,0-0.09,0.01c-0.04,0-0.08,0.01-0.12,0.01c-0.03,0-0.06,0-0.09,0.01c-0.04,0-0.09,0.01-0.13,0.01
			c-0.03,0-0.06,0-0.09,0.01c-0.05,0-0.1,0.01-0.14,0.01c-0.03,0-0.05,0-0.08,0.01c-0.06,0.01-0.13,0.01-0.19,0.02
			c-0.01,0-0.02,0-0.03,0c-0.08,0.01-0.15,0.01-0.23,0.02c-0.02,0-0.04,0-0.07,0.01c-0.06,0.01-0.12,0.01-0.17,0.02
			c-0.03,0-0.06,0.01-0.09,0.01c-0.05,0-0.1,0.01-0.16,0.01c-0.03,0-0.07,0.01-0.1,0.01c-0.05,0-0.1,0.01-0.15,0.01
			c-0.04,0-0.07,0.01-0.11,0.01c-0.05,0-0.1,0.01-0.15,0.02c-0.04,0-0.07,0.01-0.11,0.01c-0.05,0.01-0.1,0.01-0.15,0.02
			c-0.04,0-0.07,0.01-0.11,0.01c-0.05,0.01-0.1,0.01-0.16,0.02c-0.04,0-0.07,0.01-0.11,0.01c-0.05,0.01-0.11,0.01-0.16,0.02
			c-0.04,0-0.07,0.01-0.11,0.01c-0.06,0.01-0.12,0.01-0.18,0.02c0,0,0,0-0.01,0c-0.09,0.06-0.19,0.11-0.29,0.17
			c2.8-0.34,4.99-0.44,5.85-0.47c2.95-0.1,5.96,0.04,8.97,0.39c0.01-0.05,0.01-0.09,0.02-0.14c-0.19-0.02-0.38-0.04-0.56-0.06
			C75.83,63.46,75.45,63.42,75.08,63.39z"/>
		<path d="M61.85,63.65c-0.13,0.02-0.26,0.03-0.39,0.05c-0.03,0-0.07,0.01-0.1,0.01c-0.13,0.02-0.27,0.04-0.41,0.05
			c-0.07,0.01-0.15,0.02-0.22,0.03c-0.21,0.03-0.41,0.06-0.59,0.09c-0.16,0.07-0.33,0.15-0.5,0.22c0.38-0.06,0.81-0.13,1.33-0.2
			c0.33-0.04,0.65-0.09,0.96-0.12c0.1-0.06,0.19-0.12,0.29-0.17c-0.03,0-0.06,0.01-0.09,0.01C62.04,63.63,61.95,63.64,61.85,63.65z"
			/>
		<path style="fill:#0FC8D0;" d="M56.94,64.61c0.31-0.06,0.59-0.11,0.86-0.17c0.4-0.08,0.78-0.16,1.21-0.23
			c0.2-0.08,0.4-0.16,0.59-0.24c-0.74,0.12-1.27,0.23-1.83,0.34c-0.33,0.07-0.67,0.13-1.06,0.21c0.05,0.02,0.09,0.04,0.14,0.06
			C56.89,64.59,56.92,64.6,56.94,64.61z"/>
		<path d="M50.91,65.4c-0.18,0.02-0.35,0.04-0.53,0.06c0.11,0.04,0.23,0.07,0.34,0.1c0.27-0.03,0.54-0.06,0.8-0.09
			C51.32,65.45,51.12,65.43,50.91,65.4z"/>
		<path d="M43.9,65.73c0.83,0.05,1.63,0.08,2.4,0.08c1.58,0,3.05-0.1,4.42-0.25c-0.12-0.03-0.23-0.07-0.34-0.1
			c-1.95,0.2-4.08,0.29-6.47,0.14c-1.54-0.1-3.99-0.35-6.92-1.02c-0.3-0.07-0.59-0.14-0.89-0.21l-0.29,0.07
			c0.38,0.1,0.76,0.19,1.15,0.28C39.9,65.38,42.36,65.63,43.9,65.73z"/>
		<path style="fill:#0FC8D0;" d="M55.2,64.92l0.18-0.03c0.52-0.08,0.95-0.16,1.32-0.23c-0.08-0.03-0.15-0.07-0.22-0.1
			c-0.33,0.06-0.69,0.12-1.12,0.19l-0.18,0.03c-1.15,0.19-2.36,0.39-3.66,0.55c0.23,0.02,0.46,0.04,0.69,0.05
			C53.26,65.23,54.25,65.07,55.2,64.92z"/>
		<path d="M59.64,64.1c0.17-0.07,0.33-0.14,0.5-0.22c-0.19,0.03-0.37,0.06-0.54,0.08c-0.19,0.08-0.39,0.16-0.59,0.24
			C59.21,64.17,59.42,64.14,59.64,64.1z"/>
		<path d="M51.52,65.47c0.23-0.03,0.46-0.06,0.69-0.09c-0.23-0.01-0.46-0.03-0.69-0.05c-0.2,0.02-0.4,0.05-0.61,0.07
			C51.12,65.43,51.32,65.45,51.52,65.47z"/>
		<path style="fill:#0FC8D0;" d="M55.54,63.78c0-0.01,0.06-0.14,0.88-0.12l0-0.14c-0.84-0.01-0.99,0.11-1.02,0.23
			c-0.02,0.08-0.07,0.28,1.07,0.81c0.08-0.01,0.16-0.03,0.24-0.04C55.51,63.98,55.54,63.79,55.54,63.78z"/>
		<path d="M57.33,64.92c0.37,0.15,0.78,0.3,1.19,0.44c0.07-0.02,0.14-0.05,0.21-0.07c-0.41-0.14-0.81-0.29-1.19-0.43
			C57.48,64.88,57.41,64.9,57.33,64.92z"/>
		<path d="M68.56,66.76c-2.56-0.05-5.46-0.11-8.98-1.19c-0.28-0.08-0.56-0.18-0.84-0.27c-0.07,0.02-0.14,0.05-0.21,0.07
			c0.34,0.12,0.68,0.23,1.01,0.33c3.54,1.09,6.45,1.15,9.02,1.2c0.29,0.01,0.57,0.01,0.85,0.01c2.05,0,3.89-0.15,5.24-0.43
			c0.52-0.11,1.03-0.24,1.54-0.38c0.02-0.05,0.03-0.1,0.05-0.16c-0.54,0.15-1.08,0.29-1.62,0.4C73.1,66.65,70.94,66.8,68.56,66.76z"
			/>
		<path style="fill:#0FC8D0;" d="M57.12,64.84c0.07-0.02,0.14-0.04,0.22-0.06c-0.14-0.06-0.27-0.11-0.4-0.16
			c-0.08,0.01-0.16,0.03-0.24,0.05c0.03,0.02,0.07,0.03,0.11,0.05C56.91,64.75,57.02,64.79,57.12,64.84z"/>
		<path d="M57.12,64.84c0.07,0.03,0.14,0.06,0.21,0.08c0.07-0.02,0.14-0.04,0.22-0.06c-0.07-0.03-0.14-0.06-0.21-0.08
			C57.27,64.8,57.2,64.82,57.12,64.84z"/>
		<path style="fill:#0FC8D0;" d="M56.94,64.61c-0.03-0.01-0.05-0.02-0.08-0.03c-0.05-0.02-0.1-0.04-0.14-0.06
			c-0.08,0.01-0.16,0.03-0.24,0.04c0.07,0.03,0.14,0.06,0.22,0.1C56.79,64.64,56.87,64.63,56.94,64.61z"/>
		<path d="M64.89,72.88c-3.59-1.25-5.57-1.94-6.69-2.18c-1.58-0.34-3.07-0.66-5.05-0.49c-1.05,0.09-1.65,0.27-2.43,0.49
			c-0.56,0.16-1.18,0.34-2.12,0.53c-0.65,0.13-2.49,0.51-4.68,0.53c0.04,0.04,0.08,0.09,0.12,0.14c2.15-0.04,3.94-0.4,4.58-0.53
			c0.94-0.19,1.57-0.37,2.13-0.54c0.76-0.22,1.37-0.4,2.4-0.48c1.96-0.17,3.44,0.15,5.01,0.49c1.11,0.24,3.09,0.93,6.67,2.18
			c0.26,0.09,0.5,0.17,0.71,0.25c0.03,0.01,0.06,0.02,0.09,0.03c0.04-0.03,0.08-0.07,0.13-0.1c-0.06-0.02-0.11-0.04-0.17-0.06
			C65.38,73.05,65.15,72.97,64.89,72.88z"/>
		<path style="fill:#D5EB8E;" d="M76.94,60.87c0-0.03,0-0.06,0-0.09c0-0.06,0-0.12,0-0.18c0-0.04,0-0.07,0-0.11
			c0-0.05,0-0.11-0.01-0.16c0-0.04,0-0.08-0.01-0.12c0-0.05-0.01-0.1-0.01-0.15c0-0.04-0.01-0.08-0.01-0.13
			c0-0.05-0.01-0.1-0.01-0.15c0-0.04-0.01-0.09-0.01-0.13c0-0.05-0.01-0.09-0.01-0.14c0-0.04-0.01-0.09-0.01-0.13
			c0-0.04-0.01-0.09-0.02-0.13c-0.01-0.05-0.01-0.09-0.02-0.14c0-0.02-0.01-0.05-0.01-0.07c-0.02-0.12-0.03-0.24-0.05-0.35
			c0-0.03-0.01-0.06-0.01-0.09c-0.01-0.06-0.02-0.11-0.03-0.17c-0.01-0.03-0.01-0.07-0.02-0.1c-0.01-0.06-0.02-0.11-0.03-0.17
			c-0.01-0.03-0.01-0.06-0.02-0.1c-0.01-0.06-0.02-0.11-0.03-0.17c-0.01-0.03-0.01-0.06-0.02-0.09c-0.01-0.06-0.02-0.11-0.04-0.17
			c-0.01-0.03-0.01-0.06-0.02-0.08c-0.01-0.06-0.03-0.12-0.04-0.18c-0.01-0.02-0.01-0.04-0.02-0.07c-0.02-0.06-0.03-0.13-0.05-0.19
			c0,0,0,0,0,0c-0.81,0.05-1.89,0.2-3.12,0.51c-1.29,0.32-2.37,0.92-4.48,2.11c-2.74,1.54-3.27,2.1-5.38,3.16
			c-0.18,0.09-0.36,0.18-0.53,0.26c-0.2,0.13-0.44,0.29-0.72,0.46c0,0,0,0,0.01,0c0.06-0.01,0.12-0.01,0.18-0.02
			c0.04,0,0.07-0.01,0.11-0.01c0.06-0.01,0.11-0.01,0.16-0.02c0.04,0,0.07-0.01,0.11-0.01c0.05-0.01,0.1-0.01,0.16-0.02
			c0.04,0,0.07-0.01,0.11-0.01c0.05-0.01,0.1-0.01,0.15-0.02c0.04,0,0.07-0.01,0.11-0.01c0.05-0.01,0.1-0.01,0.15-0.02
			c0.04,0,0.07-0.01,0.11-0.01c0.05,0,0.1-0.01,0.15-0.01c0.03,0,0.07-0.01,0.1-0.01c0.05-0.01,0.1-0.01,0.16-0.01
			c0.03,0,0.06-0.01,0.09-0.01c0.06-0.01,0.12-0.01,0.17-0.02c0.02,0,0.04,0,0.07-0.01c0.08-0.01,0.16-0.01,0.23-0.02
			c0.01,0,0.02,0,0.03,0c0.07-0.01,0.13-0.01,0.19-0.02c0.03,0,0.05,0,0.08-0.01c0.05,0,0.1-0.01,0.14-0.01c0.03,0,0.06,0,0.09-0.01
			c0.04,0,0.09-0.01,0.13-0.01c0.03,0,0.06,0,0.09-0.01c0.04,0,0.08-0.01,0.12-0.01c0.03,0,0.06,0,0.09-0.01
			c0.04,0,0.08-0.01,0.12-0.01c0.03,0,0.06,0,0.08-0.01c0.04,0,0.08-0.01,0.12-0.01c0.03,0,0.05,0,0.08-0.01
			c0.04,0,0.08-0.01,0.12-0.01c0.02,0,0.05,0,0.07,0c0.04,0,0.08-0.01,0.12-0.01c0.02,0,0.04,0,0.06,0c0.05,0,0.1-0.01,0.15-0.01
			c0.01,0,0.02,0,0.02,0c0.06,0,0.11-0.01,0.17-0.01c0.02,0,0.03,0,0.05,0c0.04,0,0.08,0,0.11-0.01c0.02,0,0.04,0,0.06,0
			c0.03,0,0.06,0,0.09,0c0.02,0,0.04,0,0.06,0c0.03,0,0.06,0,0.09,0c0.02,0,0.04,0,0.06,0c0.03,0,0.05,0,0.08,0
			c0.02,0,0.04,0,0.06,0c0.02,0,0.05,0,0.07,0c0.02,0,0.03,0,0.05,0c0.02,0,0.05,0,0.07,0c0.02,0,0.03,0,0.05,0
			c0.02,0,0.05,0,0.07,0c0.01,0,0.03,0,0.04,0c0.02,0,0.05,0,0.07,0c0.01,0,0.02,0,0.03,0c0.03,0,0.06,0,0.09,0
			c0.37-0.01,0.74-0.02,1.11-0.03c0.37,0,0.74-0.01,1.12,0s0.75,0.01,1.12,0.02c1.31,0.03,2.63,0.11,3.94,0.23
			c0.38,0.03,0.75,0.07,1.13,0.11c0.19,0.02,0.38,0.04,0.56,0.06c0.11-0.79,0.17-1.59,0.17-2.41
			C76.94,61.06,76.94,60.96,76.94,60.87z"/>
		<path style="fill:#D5EB8E;" d="M62.13,63.62c0.03,0,0.06-0.01,0.09-0.01c0.27-0.17,0.52-0.32,0.72-0.46
			c-0.38,0.18-0.74,0.35-1.08,0.5C61.95,63.64,62.04,63.63,62.13,63.62z"/>
		<path style="opacity:0.81;fill:#9DAC6E;" d="M69.68,58.73c-2.25,1.17-3.52,1.92-4.53,2.52c-0.74,0.44-1.37,0.81-2.19,1.24
			c-0.92,0.48-1.85,0.96-2.82,1.39c0.18-0.03,0.38-0.06,0.59-0.09c0.07-0.01,0.14-0.02,0.22-0.03c0.14-0.02,0.27-0.04,0.41-0.05
			c0.03,0,0.07-0.01,0.1-0.01c0.13-0.02,0.26-0.03,0.39-0.05c0,0,0,0,0,0c0.34-0.15,0.7-0.32,1.08-0.5c0,0,0,0,0,0
			c0.7-0.45,1.26-0.88,1.65-1.2c-0.39,0.32-0.95,0.75-1.65,1.2c0,0,0,0,0,0c0.17-0.08,0.35-0.17,0.53-0.26
			c2.11-1.07,2.64-1.62,5.38-3.16c2.11-1.19,3.19-1.79,4.48-2.11c1.23-0.31,2.3-0.46,3.12-0.51c0,0,0,0,0,0
			c-0.02-0.08-0.04-0.17-0.07-0.25c-0.02-0.09-0.05-0.17-0.07-0.25c-0.53,0.04-1.07,0.11-1.59,0.2
			C72.79,57.16,71.41,57.83,69.68,58.73z"/>
		<path style="opacity:0.81;fill:#9DAC6E;" d="M60.14,63.88c0.97-0.44,1.9-0.92,2.82-1.39C62.04,62.97,61.11,63.45,60.14,63.88z"/>
		<path style="opacity:0.81;fill:#9DAC6E;" d="M61.46,63.7c0.13-0.02,0.26-0.03,0.39-0.05C61.72,63.67,61.59,63.68,61.46,63.7z"/>
	</g>
</g>
</svg>
