<?xml version="1.0" encoding="utf-8"?>
<svg version="1.1" id="Layer_1" xmlns="http://www.w3.org/2000/svg" xmlns:xlink="http://www.w3.org/1999/xlink" x="0px" y="0px"
	 viewBox="0 0 923.1 273.2" style="enable-background:new 0 0 923.1 273.2;" xml:space="preserve">
<g>
	<path style="fill:#211E1E;" d="M27.7,240.8c-1.7-1.2-2.5-1.6-3.9-2.1c-2-0.8-4.2-1.2-6.4-1.2c-9.9,0-17.4,7.6-17.4,17.7
		c0,10.6,7.4,18.1,17.8,18.1c1.6,0,3.1-0.2,4.8-0.6c1.7-0.4,2.6-0.7,4.6-1.7l-1.2-3.4c-2.8,1.2-5,1.7-7.9,1.7
		c-8.1,0-13.4-5.7-13.4-14.3c0-7.9,5.2-13.5,12.5-13.5c3.3,0,5.8,0.8,8.5,2.6L27.7,240.8L27.7,240.8z M97.2,255.4
		c0-10.4-7.2-17.9-17.2-17.9c-10.1,0-17.4,7.5-17.4,17.9c0,10.4,7.3,17.9,17.4,17.9C90,273.2,97.2,265.7,97.2,255.4z M92.6,255.4
		c0,7.7-5.7,14.1-12.5,14.1c-7,0-12.6-6.4-12.6-14.1c0-7.7,5.6-14.1,12.6-14.1C86.8,241.3,92.6,247.7,92.6,255.4z M172.3,272.5
		v-34.3h-5.9l-10.8,27.4c-0.4,1-0.5,1.3-0.7,2.7c-0.1-1-0.2-1.2-0.7-2.7l-10.5-27.4H138v34.3h3.9v-29.8c0.4,2.2,0.6,2.7,1.4,4.5
		l9.5,25.3h3.9l10.2-25.9c0.7-1.9,0.9-2.5,1.3-4.2v30.1L172.3,272.5z M237.3,248.3c0-3.2-0.9-5.6-2.7-7.4c-2-2-4.2-2.7-8.4-2.7
		h-10.8v34.3h4.2v-13c2.9,0.3,3.9,0.4,5.3,0.4C232.6,259.9,237.3,255.5,237.3,248.3z M232.9,248.6c0,3.2-1.6,5.9-4.1,7
		c-1.2,0.5-2.6,0.7-4.5,0.7c-1.2,0-2.2-0.1-4.5-0.3v-14.2h5.9c2.7,0,4.2,0.4,5.2,1.5C232.2,244.4,232.9,246.3,232.9,248.6z
		 M300.4,272.5l-12.7-35.4H283l-12.8,35.4h4.6l3.6-10.2h13.9l3.5,10.2H300.4z M290.9,258.4h-11.3l5.6-15.7L290.9,258.4z
		 M367.1,272.8v-34.6h-4.2v29.1c-0.1-0.2-0.2-0.5-0.2-0.6c-0.4-1-0.4-1-0.7-1.5c-0.1-0.4-0.3-0.7-0.4-0.9l-17.1-26.2H339v34.3h4.2
		v-29.8c0.2,0.7,0.3,0.9,0.5,1.3l0.4,0.8c0.3,0.5,0.6,1,0.7,1.2l17.4,26.9L367.1,272.8L367.1,272.8z M433.5,238.2H429l-9.5,14.7
		l-9.2-14.7h-4.6l11.4,18.6v15.7h4.4v-16.1L433.5,238.2z M536.5,272.5V269h-15.4v-30.8h-4.2v34.3L536.5,272.5z M579.3,272.5v-34.3
		h-4.2v34.3H579.3z M656.7,272.5v-34.3h-5.9l-10.8,27.4c-0.4,1-0.5,1.3-0.7,2.7c-0.1-1-0.2-1.2-0.7-2.7l-10.5-27.4h-5.8v34.3h3.9
		v-29.8c0.4,2.2,0.6,2.7,1.4,4.5l9.5,25.3h4l10.2-25.9c0.7-1.9,0.9-2.5,1.3-4.2v30.1L656.7,272.5z M704.2,272.5v-34.3H700v34.3
		H704.2z M769.9,241.7v-3.5h-27.3v3.5h11.5v30.8h4.4v-30.8H769.9z M828.2,272.5V269h-15.5v-12.1h12.4v-3.6h-12.4v-11.5h15v-3.5
		h-19.2v34.3L828.2,272.5z M896.7,255.2c0-9.9-7.2-17-17.3-17H868v34.3h11.4c6,0,9.6-1.4,12.7-5
		C895.1,264.1,896.7,259.7,896.7,255.2L896.7,255.2z M892.3,255.2c0,3.8-1.8,8-4.2,10.6c-2.2,2.3-4.7,3.2-9.3,3.2h-6.5v-27.2h6.5
		C886.6,241.7,892.3,247.5,892.3,255.2L892.3,255.2z M57,55.2h-0.8L46.3,4.8h-19v73.6h11.7L46.8,47h0.5v74.2h-0.5l-7.7-37.9H27.4
		v89.9h19l11.5-59.2h0.5v64H3.6l8.8-5.9V6.1L3.6,0H57L57,55.2z M245.4,6.1v165.9l8.8,5.9h-32.6l8.8-5.9V52L213.9,178h-4L192.8,52
		v120.1l8,5.9h-22.9l9.1-5.9V6.1L177.9,0h22.9l15.5,120.1L232,0h22.2L245.4,6.1z M370.2,0l8.8,6.1v165.9l-8.8,5.9h34.4l-10.7-5.9
		V83.5c18.9-0.3,31.2-16.5,31.2-41.4c0-14.7-5.1-28.3-13.3-35.5C406.3,1.9,401.2,0,392.4,0L370.2,0z M394,4.8
		c12.8,0.2,16.3,8,16.3,35.7c0,30.4-2.9,37.1-16.3,37.4V4.8z M563.1,5.9v166.2l9.1,5.9h-32.8l8.8-5.9V5.9L539.4,0h32.8L563.1,5.9z
		 M688,0l8.8,6.1v165.9L688,178h32.8l-9.1-5.9V83.8c10.1,0.3,11.2,2.1,13.1,18.9l8,75.2H756l-8.5-5.9l-8.3-66.7
		c-1.9-15.2-7.2-21.9-18.4-24c13.9-3.7,23-18.7,23-38.4c0-16.6-6.1-31.2-15.7-37.9C723,1.3,718.2,0,709.6,0H688z M711.8,4.8
		c13.9,0.8,17.1,8,17.1,36.6c0,30.4-2.9,37.3-17.1,37.6V4.8z M921.7,55.2h-0.8l-9.9-50.4h-18.9v73.6h11.7l7.7-31.5h0.5v74.2h-0.5
		l-7.7-37.9h-11.7v89.9h18.9l11.5-59.2h0.5v64h-54.7l8.8-5.9V6.1L868.4,0h53.4L921.7,55.2z"/>
	<path style="fill:none;stroke:#211E1E;stroke-width:1.5793;stroke-miterlimit:19.2307;" d="M1.4,205.3H897"/>
</g>
</svg>
