<?xml version="1.0" encoding="utf-8"?>
<svg version="1.1" id="Layer_1" xmlns="http://www.w3.org/2000/svg" xmlns:xlink="http://www.w3.org/1999/xlink" x="0px" y="0px"
	 viewBox="0 0 226.34 226.35" style="enable-background:new 0 0 226.34 226.35;" xml:space="preserve">
<g>
	<path style="fill:#FFFFFF;" d="M0.01,0.01h226.32v226.32H0.01V0.01z"/>
	<path style="fill:#F96302;" d="M0.01,0.01h142c11.43,0,22.86-0.02,34.27,0.02c-3.16,3.21-6.39,6.39-9.58,9.6
		c1.26,1.33,2.59,2.57,3.85,3.87c2.9-2,6.18-3.59,9.74-3.85c3.21-0.33,6.44,0.5,9.39,1.78c1.12,0.48,2.16,1.23,3.42,1.35
		c1.24-0.07,2.16-1.16,2.59-2.26c0.36-0.76,0.02-1.66-0.57-2.21c-2.76-2.78-5.54-5.51-8.27-8.29c13.17-0.07,26.33,0,39.48-0.02
		c0,12.83,0.02,25.69,0,38.55c-2.71-2.66-5.35-5.37-8.03-8.03c-0.71-0.74-1.88-1.12-2.85-0.67c-0.64,0.31-1.26,0.81-1.54,1.5
		c-0.36,1.38,0.26,2.73,0.81,3.97c1.66,3.52,2.4,7.49,1.9,11.36c-0.33,2.64-1.28,5.23-2.71,7.49c-0.38,0.55-0.74,1.12-1.07,1.69
		c1.38,1.19,2.54,2.61,3.95,3.78c3.14-3.23,6.37-6.39,9.55-9.6c0,21.46,0.02,42.92,0,64.38c-0.62,0.21-1.31,0.64-1.95,0.33
		c-0.85-0.55-1.5-1.35-2.21-2.04c-7.7-7.65-15.33-15.38-23.05-23c-3.07,3.07-6.08,6.15-9.2,9.15c1.64,1.85,3.47,3.49,5.18,5.28
		c6.18,6.18,12.36,12.36,18.56,18.54c0.52,0.55,1.14,1.02,1.43,1.74c0.1,0.78-0.45,1.45-0.66,2.16c-0.31,0.83,0.36,1.83,1.24,1.85
		c0.78,0.14,1.45-0.38,1.95-0.9c2.9-2.92,5.82-5.82,8.72-8.72v107.54H118.77c2.76-2.76,5.51-5.49,8.27-8.25
		c-9.38-9.36-18.76-18.73-28.11-28.11c-3.07,2.95-6.01,6.01-9.05,8.98c-0.64,0.67-1.36,1.31-1.66,2.21
		c-0.14,0.88,0.67,1.71,1.52,1.76c0.76-0.1,1.4-0.6,2.16-0.76c0.67-0.05,1.19,0.48,1.66,0.9c5.56,5.61,11.15,11.17,16.73,16.76
		c1.4,1.47,2.92,2.8,4.23,4.32c0.6,0.66,0.19,1.52-0.14,2.19H50.04l15.18-15.19c0.95-0.9,1.93-1.95,2.07-3.33
		c0.21-1.59-1.4-3.18-2.99-2.85c-1.33,0.26-2.42,1.31-3.8,1.31c-0.88-0.07-1.54-0.71-2.14-1.28c-12.1-12.07-24.17-24.17-36.24-36.24
		c-0.81-0.81-1.78-1.59-2.07-2.76c-0.05-1.38,0.93-2.49,1.28-3.75c0.45-1.59-1.05-3.33-2.66-3.21c-1.12,0.07-2.11,0.71-2.87,1.5
		c-5.23,5.3-10.55,10.53-15.78,15.83C-0.01,117.58,0.01,58.78,0.01,0.01"/>
	<path style="fill:#FFFFFF;" d="M163.25,13.06c0.21-0.24,0.59-0.45,0.81-0.1c16.57,16.54,33.13,33.1,49.67,49.67
		c-5.81,5.81-11.62,11.62-17.42,17.44c-0.76,0.71-1.69,1.31-2.73,1.38c-1.45,0.12-2.9-1.19-2.78-2.66c0.05-1.45,1.28-2.57,1.31-4.04
		c0.05-0.93-0.66-1.61-1.26-2.26c-12.29-12.26-24.55-24.55-36.84-36.84c-0.69-0.67-1.45-1.5-2.49-1.42
		c-1.54,0.02-2.71,1.45-4.28,1.28c-0.9,0.02-1.64-0.69-2.09-1.43c-0.62-1.28-0.05-2.83,0.88-3.78
		C151.78,24.56,157.53,18.81,163.25,13.06 M187.12,17.88c0.48-0.88,1.38-1.69,2.45-1.55c1.19,0.1,2.04,1.07,2.83,1.85
		c4.75,4.77,9.5,9.53,14.26,14.28c0.9,0.88,1.97,1.74,2.19,3.04c0.12,1.35-1.12,2.57-2.42,2.71c-1.09,0.02-2.09-0.57-3.04-1.09
		c-2.02-1.19-4.3-2.14-6.7-2.02c-1.24-0.02-2.42,0.47-3.54,0.97c-1.31-1.4-2.8-2.66-4.04-4.11c0.38-1.07,0.88-2.09,0.95-3.23
		c0.17-2.59-0.88-5.06-2.19-7.22C187.19,20.45,186.66,19.12,187.12,17.88 M82.38,30.48c2.57-2.71,5.28-5.25,7.84-7.94
		c2.45,2.38,4.82,4.78,7.22,7.18c0.78,0.76,0.07,2.04-0.81,2.35c-0.74,0.1-1.38-0.4-2.04-0.64c-2.57-1.26-5.75-1.4-8.32-0.02
		c-0.67,0.28-1.21,0.86-1.93,0.97C83.64,31.81,83.05,31.09,82.38,30.48 M80.77,32c3.49,3.38,6.87,6.87,10.31,10.27
		c5.39,5.37,10.76,10.79,16.18,16.16c-3.09,3.12-6.19,6.23-9.32,9.32c-0.64,0.71-1.93,1.02-2.54,0.14
		c-0.76-0.81,0.07-1.81,0.31-2.64c0.29-0.62-0.21-1.16-0.62-1.59c-6.22-6.2-12.43-12.41-18.63-18.63c-0.57-0.52-1.05-1.16-1.74-1.52
		c-0.95-0.21-1.69,0.64-2.61,0.69c-0.71-0.07-1.38-0.78-1.28-1.52c0.05-0.57,0.38-1.07,0.78-1.47C74.66,38.13,77.75,35.11,80.77,32
		 M93.17,35.8c-0.31-0.78,0.24-1.73,1.07-1.85c0.62-0.1,1.12,0.38,1.54,0.78c2.57,2.57,5.13,5.16,7.72,7.7
		c0.45,0.5,1.09,0.95,1.14,1.69c0.1,0.74-0.62,1.45-1.38,1.38c-1,0-1.76-0.78-2.66-1.12c-1.33-0.62-2.95-0.67-4.25,0.05
		c-0.69-0.69-1.38-1.4-2.09-2.04c0.31-1.05,0.6-2.16,0.33-3.26C94.41,37.89,93.55,36.94,93.17,35.8 M138.68,37.65
		c0.64-0.64,1.45-1.12,2.35-1.24c1.59-0.24,3.26,1.31,2.95,2.92c-0.21,1.43-1.4,2.57-1.31,4.06c0.24,1.04,1.09,1.76,1.78,2.49
		c12.15,12.12,24.29,24.22,36.38,36.36c0.67,0.6,1.33,1.38,2.28,1.38c1.43,0,2.52-1.07,3.87-1.31c1.57-0.26,3.11,1.28,2.92,2.85
		c-0.09,1.07-0.74,2-1.47,2.73c-6.11,6.08-12.19,12.22-18.3,18.3c-0.78,0.78-1.78,1.5-2.95,1.5c-1.29,0.07-2.52-1.02-2.69-2.28
		c-0.17-1.66,1.38-2.9,1.33-4.56c-0.07-0.78-0.62-1.43-1.14-2c-10.67-10.65-21.32-21.32-31.99-31.96
		c8.82,16.37,17.71,32.7,26.52,49.08c0.14,0.24,0.26,0.5,0.38,0.78c-0.64,0.59-1.26,1.24-1.88,1.88
		c-17.66-8.7-35.29-17.49-52.93-26.21c-2.78-1.38-5.54-2.99-8.67-3.37c-1.05-0.14-1.76,0.71-2.52,1.26c-0.79,0.62-1.83,1-2.8,0.69
		c-1.17-0.52-1.97-1.9-1.62-3.16c0.24-0.86,0.83-1.57,1.45-2.19c5.7-5.68,11.38-11.38,17.09-17.04c8.89,4.35,17.8,8.6,26.71,12.95
		c0.29,0.21,0.59,0.43,0.85,0.71c0.14-0.17,0.26-0.33,0.4-0.5l-0.33,0.05c-4.68-8.91-9.6-17.71-14.28-26.62
		C126.99,49.37,132.81,43.5,138.68,37.65 M107.48,41.67c0.43-0.78,1.64-0.88,2.21-0.21c2.4,2.42,4.85,4.85,7.27,7.27
		c-2.71,2.73-5.43,5.45-8.17,8.15c-0.62-0.71-1.45-1.28-1.93-2.12c0.78-1.33,1.62-2.69,1.83-4.25c0.4-2.16,0.05-4.44-0.88-6.44
		C107.55,43.31,106.98,42.43,107.48,41.67 M67.58,45.23c0.47-0.5,1-1.02,1.69-1.19c0.69-0.14,1.54,0.28,1.64,1.04
		c0.17,0.83-0.45,1.52-0.62,2.33c-0.1,0.64,0.43,1.09,0.81,1.52c6.35,6.34,12.67,12.69,19.01,19.01c0.43,0.4,0.88,0.9,1.5,1.05
		c0.76-0.07,1.4-0.57,2.14-0.74c0.9-0.1,1.73,0.88,1.45,1.73c-0.12,0.64-0.62,1.12-1.04,1.57c-3.09,3.09-6.18,6.18-9.27,9.25
		c-0.55,0.55-1.26,1.12-2.07,0.93c-0.45-0.19-0.83-0.55-1-1c-0.24-1.05,0.88-1.9,0.62-2.95c-0.24-0.4-0.57-0.71-0.88-1.04
		c-2.9-2.88-5.78-5.8-8.7-8.67c-1.02,1.04-2.05,2.07-3.09,3.09c-0.71-0.69-1.43-1.38-2.09-2.11c1.04-1.02,2.07-2.07,3.11-3.09
		c-2.57-2.52-5.11-5.09-7.65-7.63c-0.55-0.52-1.02-1.09-1.66-1.47c-1.16-0.38-2.28,1.26-3.4,0.36c-0.9-0.64-0.62-1.93,0.12-2.59
		C61.3,51.46,64.46,48.37,67.58,45.23"/>
	<path style="fill:#FFFFFF;" d="M55.41,57.57c0.71-0.45,1.78-0.17,2.12,0.64c0.33,0.97-0.55,1.81-0.57,2.76
		c-0.02,0.5,0.38,0.85,0.69,1.19c6.58,6.58,13.14,13.17,19.73,19.72c1.19,1.28,2.71-0.93,3.99,0.02c0.83,0.67,0.55,1.97-0.17,2.59
		c-3.09,3.11-6.2,6.18-9.27,9.29c-0.5,0.48-1,1.05-1.69,1.26c-0.76,0.21-1.69-0.26-1.78-1.07c-0.14-0.95,0.71-1.69,0.67-2.61
		c-0.12-0.4-0.38-0.74-0.67-1.04c-6.23-6.21-12.45-12.43-18.66-18.66c-0.59-0.55-1.09-1.24-1.88-1.52c-0.85-0.05-1.57,0.6-2.4,0.69
		c-0.71,0.02-1.33-0.62-1.35-1.31c-0.07-0.74,0.45-1.33,0.95-1.83c3.09-3.09,6.18-6.18,9.24-9.27C54.69,58.12,55,57.81,55.41,57.57
		 M38.23,74.56c1.43-1.38,2.8-2.81,4.23-4.21c2.5,2.43,4.94,4.94,7.44,7.39c0.43,0.47,0.95,0.9,1.19,1.52
		c0.29,1.17-1.04,2.45-2.21,1.93c-1.17-0.52-2.09-1.45-3.21-2.07c-1.88-1.16-4.06-1.9-6.3-1.64c-0.64-0.67-1.35-1.28-1.92-2
		C37.63,75.11,37.94,74.85,38.23,74.56 M27.86,84.92c2.66-2.61,5.28-5.25,7.91-7.89c4.99,5.02,10,10.03,15.02,15.02
		c2.76,2.73,5.44,5.51,8.22,8.2c0.78,0.88,1.83,0.14,2.69-0.17c0.85-0.38,1.85,0.38,1.83,1.28c0,0.62-0.36,1.14-0.76,1.57
		c-3.23,3.21-6.42,6.42-9.63,9.63c-0.45,0.45-1.02,0.9-1.69,0.86c-0.74,0.07-1.45-0.64-1.38-1.36c0.05-0.76,0.64-1.38,0.64-2.14
		c0.05-0.64-0.5-1.05-0.88-1.47c-7.58-7.53-15.09-15.14-22.7-22.65C27.39,85.49,27.6,85.21,27.86,84.92 M206.22,82.59
		c2.95,2.9,5.87,5.82,8.77,8.77c0.93,0.88,0.26,2.64-0.98,2.83c-1.14,0.17-2.02-0.74-2.9-1.33c-2.35-1.62-5.13-3.14-8.08-2.64
		c-0.79-0.71-1.54-1.45-2.19-2.28C202.68,86.18,204.44,84.38,206.22,82.59 M25.44,87.42c0.88,0.33,1.43,1.33,2.14,1.95
		c-0.38,2.76,0.93,5.35,2.47,7.51c0.45,0.69,1,1.33,1.28,2.11c0.31,1.05-0.71,2.14-1.76,2.02c-0.59,0-1-0.5-1.38-0.86
		c-2.59-2.61-5.2-5.18-7.8-7.79C22.11,90.74,23.71,89.01,25.44,87.42 M78.32,100.82c4.73-1.52,9.86-1.69,14.73-0.69
		c8.27,1.76,15.59,6.61,21.44,12.62c5.73,5.8,10.29,13.07,11.83,21.18c0.86,4.44,0.67,9.1-0.62,13.45
		c-1.26,4.3-3.54,8.27-6.42,11.69c-1.24-1.31-2.59-2.52-3.78-3.85c0-0.64,0.4-1.19,0.52-1.81c0.64-2.09,0-4.44-1.59-5.97
		c-11.74-11.76-23.53-23.53-35.27-35.29c-1.07-1.09-2.42-1.97-3.97-2.09c-1.26-0.17-2.5,0.29-3.68,0.71
		c-0.48,0.26-0.78-0.33-1.09-0.57c-0.95-1.02-2-1.95-2.95-2.99c0-0.07-0.02-0.21-0.02-0.29C70.62,104.22,74.33,102.11,78.32,100.82
		 M110.35,99.51c1.09,0.36,2.09,0.9,3.11,1.43c3.83,1.85,7.63,3.78,11.48,5.66c0.33,0.17,0.64,0.43,0.93,0.69
		c3.23,3.28,6.49,6.51,9.74,9.77c1.77,1.88,3.95,3.32,6.37,4.23c1.69,0.64,3.59,0.64,5.28,0.05c0.86-0.29,1.78-0.62,2.69-0.33
		c0.92,0.38,1.55,1.24,1.64,2.23c-0.07,1.31-0.9,2.4-1.78,3.3c-2.91,2.95-5.84,5.87-8.79,8.77c-0.78,0.71-1.69,1.45-2.78,1.57
		c-1.57,0.24-3.11-1.43-2.64-2.95c0.45-1.54,1.07-3.11,0.81-4.73c-0.38-2.71-1.93-5.11-3.64-7.18c-6.44-6.46-12.9-12.9-19.37-19.39
		C112.4,101.58,111.3,100.63,110.35,99.51 M182.84,105.98c1.78-1.78,3.59-3.57,5.37-5.37c0.78,0.64,1.47,1.4,2.21,2.11
		c-0.31,2.38,0.5,4.73,1.74,6.72c0.64,1.14,1.57,2.11,2.14,3.3c0.31,0.57,0.1,1.21-0.12,1.78c3,2.03,5.61,4.57,7.72,7.51
		c2.4,3.4,4.09,7.44,3.99,11.67c0.02,4.02-1.71,7.87-4.25,10.91c-0.69-0.71-1.5-1.35-2.09-2.16c0.12-0.88,0.55-1.74,0.33-2.61
		c-0.24-1.14-1.12-1.95-1.9-2.73c-6.27-6.25-12.52-12.5-18.77-18.75c-0.62-0.62-1.35-1.19-2.24-1.26c-0.83-0.1-1.66,0.14-2.42,0.4
		c-0.74-0.69-1.47-1.43-2.19-2.14c3.16-2.71,7.27-4.44,11.48-4.23c1.62-0.05,3.18,0.33,4.75,0.69
		C186.69,109.85,184.67,108,182.84,105.98 M58.47,119.93c1.31-3.64,3.37-6.96,5.82-9.93c1.21,1.24,2.5,2.42,3.68,3.68
		c0.24,0.76-0.38,1.47-0.5,2.23c-0.62,2.04,0.19,4.28,1.69,5.75c11.55,11.57,23.12,23.12,34.7,34.7c1.12,1.21,2.47,2.35,4.18,2.62
		c1.52,0.24,3.02-0.29,4.42-0.81c1.28,1.28,2.57,2.54,3.85,3.83c-2.81,2.45-6.06,4.37-9.53,5.73c-5.23,2.02-11.07,2.35-16.57,1.14
		c-8.34-1.83-15.68-6.85-21.56-12.95c-5.42-5.68-9.79-12.64-11.34-20.42C56.29,130.34,56.62,124.87,58.47,119.93 M166.49,126.8
		c0.29-3.61,1.88-7.06,4.26-9.77c0.69,0.71,1.43,1.43,2.14,2.14c-0.26,0.86-0.67,1.76-0.43,2.66c0.14,0.81,0.69,1.45,1.26,2.02
		c6.27,6.25,12.5,12.52,18.77,18.77c0.74,0.71,1.45,1.57,2.49,1.85c0.95,0.26,1.93-0.07,2.85-0.36c0.71,0.71,1.45,1.43,2.14,2.19
		c-2.99,2.47-6.73,4.21-10.67,4.21c-3.83,0.17-7.58-1.19-10.76-3.18c-2.31-1.47-4.42-3.26-6.18-5.32c0.83,2.78,0.64,5.9-0.67,8.51
		c-1.28,2.57-3.28,4.66-5.25,6.68c-0.71-0.71-1.45-1.45-2.19-2.16c0.62-1,1.02-2.19,0.64-3.35c-0.45-1.19-1.43-2.04-2.28-2.95
		c-1.77-1.79-3.54-3.57-5.32-5.35c-1.04-0.98-2.16-2.09-3.66-2.19c-0.88-0.09-1.66,0.36-2.4,0.79c-0.74-0.71-1.45-1.45-2.19-2.16
		c2.85-2.88,6.11-5.85,10.29-6.37c3.42-0.57,6.87,0.9,9.29,3.26C167.1,133.67,166.15,130.24,166.49,126.8 M41.22,135.09
		c0.71-0.69,1.64-1.21,2.64-1.28c1.64-0.1,3.14,1.62,2.69,3.21c-0.36,1.21-1.24,2.28-1.28,3.59c0.1,1.14,1.05,1.95,1.81,2.71
		l36.6,36.6c0.57,0.55,1.21,1.09,2.02,1.16c1.38,0,2.45-1.02,3.75-1.33c1.57-0.31,3.14,1.12,3.07,2.68
		c-0.05,1.07-0.64,2.04-1.38,2.8l-18.42,18.42c-0.81,0.78-1.81,1.47-2.97,1.47c-1.43,0.05-2.76-1.31-2.64-2.76
		c0.14-1.43,1.33-2.57,1.36-4.04c-0.05-0.88-0.74-1.54-1.28-2.16c-5.47-5.49-10.96-10.93-16.4-16.4c-0.21-0.17-0.5-0.64-0.81-0.31
		c-1.9,1.83-3.73,3.76-5.63,5.59c-1.28-1.28-2.57-2.57-3.85-3.87c1.84-1.93,3.73-3.81,5.66-5.66c0-0.1,0.03-0.31,0.03-0.4
		c-5.16-5.06-10.22-10.19-15.35-15.3c-0.78-0.74-1.52-1.66-2.61-1.93c-1.5-0.1-2.66,1.07-4.06,1.33c-1.81,0.31-3.45-1.74-2.83-3.42
		c0.31-1.19,1.26-2.04,2.09-2.85C29.34,146.97,35.3,141.06,41.22,135.09 M147.33,141.51c2.85,2.66,5.54,5.51,8.34,8.25
		c5.32,5.35,10.67,10.69,16.02,16.04c0.38,0.31,0.74,0.74,1.24,0.83c1.02,0.1,1.83-0.9,2.85-0.71c0.62,0.21,1.19,0.81,1.12,1.5
		c0,0.93-0.79,1.57-1.36,2.19c-3.35,3.3-6.65,6.65-10,9.96c-0.74,0.81-2.12,0.4-2.57-0.5c-0.66-1.12,1.14-2.31,0.19-3.33
		c-6.9-6.87-13.78-13.76-20.65-20.65c-0.5-0.45-0.93-1.02-1.52-1.33c-1.02-0.29-1.83,0.57-2.78,0.69c-0.74-0.07-1.45-0.71-1.4-1.47
		c-0.07-0.83,0.55-1.47,1.07-2.02C141.03,147.81,144.2,144.65,147.33,141.51 M126.13,162.68c2.83-2.78,5.58-5.66,8.46-8.39
		c2.54,2.57,5.11,5.11,7.65,7.68c0.85,0.83-0.05,2.09-0.93,2.47c-0.62,0.07-1.19-0.31-1.74-0.55c-2.18-1.07-4.71-1.59-7.1-0.98
		c-1.52,0.31-2.85,1.16-4.18,1.95C127.58,164.13,126.87,163.4,126.13,162.68 M114.58,174.26c3.28-3.33,6.61-6.58,9.89-9.89
		c5.32,5.25,10.57,10.6,15.92,15.85c4.09,4.06,8.13,8.18,12.24,12.22c-3.18,3.28-6.46,6.46-9.65,9.72c-0.45,0.5-1.09,0.79-1.69,1.05
		c-0.59-0.21-1.33-0.43-1.52-1.09c-0.36-1.12,0.81-2,0.67-3.09c-0.48-0.93-1.31-1.59-2.02-2.33l-17.32-17.33
		c-1.02-0.95-1.88-2.09-3.09-2.8c-1.21-0.24-2.31,1.31-3.47,0.47C113.54,176.4,113.82,174.97,114.58,174.26 M137.64,168.36
		c-0.38-0.98,0.52-2.12,1.54-1.95c0.48,0.12,0.83,0.43,1.16,0.76c2.49,2.52,5.01,4.99,7.49,7.51c0.81,0.83,1.85,1.54,2.19,2.73
		c-0.31,0.52-0.64,1.24-1.35,1.31c-1.17,0.12-2.02-0.81-3.07-1.19c-1.45-0.72-3.15-0.71-4.59,0.02c-0.76-0.76-1.5-1.52-2.26-2.26
		c0.52-1.12,0.76-2.4,0.38-3.59C138.85,170.5,138.04,169.5,137.64,168.36 M152.92,174.57c0.5-0.76,1.71-0.88,2.3-0.17
		c2.57,2.59,5.18,5.16,7.72,7.77c-2.92,2.85-5.73,5.85-8.72,8.63c-0.69-0.74-1.43-1.45-2.14-2.19c2.54-3.14,2.9-7.68,1.19-11.29
		C152.96,176.47,152.3,175.42,152.92,174.57"/>
	<path style="fill:#F96302;" d="M0.01,184.02c0.95-0.38,1.85-0.98,2.9-0.95c1.26,0.24,2.04,1.35,2.92,2.19
		C17.79,197.17,29.69,209.1,41.62,221c0.67,0.74,1.52,1.47,1.64,2.52c-0.05,1.02-0.6,1.93-1.02,2.83
		c-14.09-0.02-28.16-0.02-42.23-0.02C0.01,212.23-0.01,198.12,0.01,184.02"/>
	<path style="fill:#FFFFFF;" d="M110.64,183.38c4.23-0.36,8.44,1.16,11.93,3.47c2.73,1.83,5.28,3.95,7.22,6.58
		c2.33,3.11,3.76,6.92,3.78,10.84c0.07,4.47-1.69,8.98-4.87,12.14c-0.73-0.71-1.45-1.43-2.16-2.16c0.43-0.81,0.93-1.66,0.78-2.61
		c-0.24-1.43-1.21-2.59-2.19-3.57l-16.04-16.04c-1.09-1.07-2.33-2.23-3.94-2.35c-0.88-0.1-1.66,0.36-2.4,0.78
		c-0.69-0.76-1.64-1.33-2.07-2.28C103.29,185.5,106.86,183.62,110.64,183.38L110.64,183.38z"/>
</g>
</svg>
