<?xml version="1.0"?>
<svg xmlns="http://www.w3.org/2000/svg" xmlns:xlink="http://www.w3.org/1999/xlink" xmlns:svgjs="http://svgjs.com/svgjs" version="1.1" width="512" height="512" x="0" y="0" viewBox="0 0 512 512" style="enable-background:new 0 0 512 512" xml:space="preserve" class=""><g>
<g xmlns="http://www.w3.org/2000/svg" id="surface1">
<path d="M 512 256 C 512 397.386719 397.386719 512 256 512 C 114.613281 512 0 397.386719 0 256 C 0 114.613281 114.613281 0 256 0 C 397.386719 0 512 114.613281 512 256 Z M 512 256 " style="" fill="#f1f1f1" data-original="#ff633e" class=""/>
<path d="M 256 512 C 397.386719 512 512 397.386719 512 256 C 512 245.40625 511.34375 234.964844 510.09375 224.707031 L 400.417969 115.03125 C 377.773438 90.609375 345.414062 75.316406 309.480469 75.316406 C 241 75.316406 185.484375 130.832031 185.484375 199.3125 C 185.484375 235.246094 200.773438 267.605469 225.199219 290.25 L 290.996094 356.101562 L 259.90625 355.980469 L 231.140625 327.074219 C 230.886719 326.792969 230.621094 326.523438 230.347656 326.261719 C 230.347656 326.261719 184.117188 282.0625 180.808594 278.882812 C 175.609375 273.921875 169.789062 266.960938 160.570312 266.929688 C 160.132812 266.929688 144.398438 266.9375 114.75 266.953125 L 97.078125 249.71875 L 0.078125 249.746094 C 0.0273438 251.824219 0 253.910156 0 256 C 0 397.386719 114.613281 512 256 512 Z M 256 512 " style="" fill="#f1f1f1" data-original="#ee2600" class=""/>
<path d="M 360.019531 382.050781 C 359.949219 396.230469 346.988281 407.648438 331.058594 407.601562 L 223.949219 407.160156 C 204.230469 407.078125 181.640625 406.390625 166.519531 392.539062 C 147.558594 375.148438 144.691406 375.300781 129.898438 375.25 L 97.210938 375.261719 L 29.441406 375.289062 C 17.871094 353.359375 9.378906 329.539062 4.570312 304.421875 C 3.519531 298.921875 2.640625 293.351562 1.949219 287.730469 L 97.128906 287.671875 L 153.550781 287.628906 C 155.46875 287.640625 157.28125 288.351562 158.589844 289.609375 L 226.308594 353.890625 C 227.460938 354.988281 229.019531 355.671875 230.671875 355.828125 C 230.890625 355.851562 231.128906 355.851562 231.339844 355.871094 L 331.269531 356.261719 C 346.140625 356.328125 358.320312 366.378906 359.851562 379.210938 C 359.96875 380.140625 360.011719 381.101562 360.019531 382.050781 Z M 360.019531 382.050781 " style="" fill="#ffdba9" data-original="#ffdba9" class=""/>
<path d="M 231.851562 354.820312 C 231.46875 355.191406 231.078125 355.519531 230.671875 355.828125 C 222.628906 362.078125 209.238281 360.289062 201.828125 353.191406 C 201.828125 353.191406 185.328125 337.371094 185.28125 337.308594 L 150.949219 304.328125 L 97.148438 304.351562 L 4.570312 304.398438 C 3.519531 298.910156 2.640625 293.339844 1.949219 287.730469 C 1.101562 280.898438 0.53125 274 0.238281 267.019531 C 34.21875 267 68.800781 266.96875 97.101562 266.960938 C 133.890625 266.941406 160.070312 266.929688 160.570312 266.929688 C 169.789062 266.960938 175.609375 273.921875 180.808594 278.878906 C 184.121094 282.058594 230.351562 326.261719 230.351562 326.261719 C 233.988281 329.738281 236.28125 334.601562 236.859375 339.539062 C 237.53125 345.179688 236.03125 350.929688 231.851562 354.820312 Z M 231.851562 354.820312 " style="" fill="#ffc473" data-original="#ffc473" class=""/>
<path d="M 97.21875 387.269531 L 36.191406 387.28125 C 33.828125 383.351562 31.578125 379.351562 29.441406 375.289062 C 17.871094 353.359375 9.378906 329.539062 4.570312 304.421875 C 3.519531 298.921875 2.640625 293.351562 1.949219 287.730469 C 0.660156 277.328125 0 266.738281 0 256 C 0 253.910156 0.0195312 251.839844 0.0703125 249.761719 L 97.078125 249.71875 L 97.101562 266.960938 L 97.128906 287.671875 L 97.148438 304.351562 L 97.148438 304.390625 L 97.210938 375.261719 Z M 97.21875 387.269531 " style="" fill="#fff5cb" data-original="#fff5cb"/>
<path d="M 97.148438 304.351562 L 97.148438 304.390625 L 4.570312 304.421875 C 3.519531 298.921875 2.640625 293.351562 1.949219 287.730469 C 0.660156 277.328125 0 266.738281 0 256 C 0 253.910156 0.0195312 251.839844 0.0703125 249.761719 L 97.078125 249.71875 L 97.101562 266.960938 L 97.128906 287.671875 Z M 97.148438 304.351562 " style="" fill="#ffffff" data-original="#ffffff" class=""/>
<path d="M 433.476562 199.3125 C 433.476562 267.792969 377.960938 323.308594 309.480469 323.308594 C 241 323.308594 185.484375 267.792969 185.484375 199.3125 C 185.484375 130.832031 241 75.316406 309.480469 75.316406 C 377.960938 75.316406 433.476562 130.832031 433.476562 199.3125 Z M 433.476562 199.3125 " style="" fill="#ffe670" data-original="#ffe670" class=""/>
<path d="M 433.480469 199.3125 C 433.480469 267.800781 377.957031 323.3125 309.480469 323.3125 L 309.480469 75.3125 C 377.957031 75.3125 433.480469 130.835938 433.480469 199.3125 Z M 433.480469 199.3125 " style="" fill="#ffd400" data-original="#ffd400" class=""/>
<path d="M 364.632812 215.328125 C 362.300781 210.59375 359.011719 206.597656 354.769531 203.34375 C 350.527344 200.089844 345.328125 197.335938 339.179688 195.070312 C 334.1875 193.234375 328.699219 191.539062 322.730469 189.984375 L 322.730469 145.195312 C 323.121094 145.277344 323.515625 145.34375 323.902344 145.429688 C 328.21875 146.421875 332.175781 147.695312 335.785156 149.25 C 339.390625 150.808594 342.535156 152.46875 345.222656 154.234375 C 347.90625 156.003906 349.960938 157.664062 351.375 159.21875 L 362.191406 139.703125 C 355.6875 134.898438 348.121094 130.867188 339.496094 127.613281 C 334.199219 125.617188 328.609375 124.238281 322.726562 123.46875 L 322.726562 106.855469 L 296.230469 106.855469 L 296.230469 124.113281 C 293.980469 124.546875 291.777344 125.066406 289.644531 125.703125 C 282.996094 127.6875 277.234375 130.617188 272.355469 134.507812 C 267.476562 138.398438 263.621094 143.203125 260.796875 148.929688 C 257.964844 154.660156 256.550781 161.203125 256.550781 168.554688 C 256.550781 174.492188 257.507812 179.550781 259.414062 183.722656 C 261.324219 187.894531 264.117188 191.535156 267.796875 194.644531 C 271.46875 197.757812 276.101562 200.410156 281.691406 202.601562 C 285.972656 204.28125 290.824219 205.902344 296.230469 207.457031 L 296.230469 252.339844 C 291.015625 251.019531 286.164062 249.433594 281.691406 247.570312 C 277.09375 245.660156 273.0625 243.578125 269.597656 241.3125 C 266.132812 239.050781 263.480469 237 261.644531 235.160156 L 250.824219 255.527344 C 259.449219 262.175781 269.101562 267.230469 279.78125 270.691406 C 285.164062 272.441406 290.648438 273.746094 296.230469 274.609375 L 296.230469 291.769531 L 322.726562 291.769531 L 322.726562 275.410156 C 326.773438 275.011719 330.667969 274.363281 334.402344 273.449219 C 341.050781 271.828125 346.882812 269.28125 351.90625 265.816406 C 356.925781 262.351562 360.882812 257.859375 363.785156 252.34375 C 366.683594 246.828125 368.132812 240.253906 368.132812 232.613281 C 368.136719 225.828125 366.96875 220.070312 364.632812 215.328125 Z M 290.492188 179.902344 C 287.382812 178.136719 285.085938 176.085938 283.601562 173.753906 C 282.113281 171.417969 281.371094 168.414062 281.371094 164.738281 C 281.371094 158.234375 283.738281 153.144531 288.476562 149.464844 C 290.546875 147.859375 293.152344 146.625 296.230469 145.71875 L 296.230469 182.585938 C 294.09375 181.753906 292.175781 180.859375 290.492188 179.902344 Z M 335.042969 249.589844 C 331.800781 251.660156 327.691406 253.066406 322.730469 253.816406 L 322.730469 215.066406 C 326.109375 216.265625 329.085938 217.550781 331.648438 218.9375 C 335.179688 220.84375 337.90625 223.074219 339.8125 225.617188 C 341.722656 228.164062 342.679688 231.347656 342.679688 235.164062 C 342.679688 241.527344 340.132812 246.335938 335.042969 249.589844 Z M 335.042969 249.589844 " style="" fill="#ffaa20" data-original="#ffaa20" class=""/>
<path d="M 364.632812 215.324219 C 362.308594 210.589844 359.015625 206.597656 354.769531 203.347656 C 350.53125 200.089844 345.328125 197.339844 339.179688 195.078125 C 334.191406 193.238281 328.699219 191.539062 322.734375 189.992188 L 322.734375 145.203125 C 323.113281 145.277344 323.519531 145.34375 323.902344 145.4375 C 328.210938 146.425781 332.183594 147.699219 335.78125 149.25 C 339.394531 150.8125 342.535156 152.46875 345.222656 154.242188 C 347.90625 156.003906 349.957031 157.671875 351.382812 159.222656 L 362.191406 139.703125 C 355.691406 134.90625 348.121094 130.871094 339.5 127.609375 C 334.199219 125.625 328.613281 124.246094 322.734375 123.46875 L 322.734375 106.859375 L 309.480469 106.859375 L 309.480469 291.773438 L 322.734375 291.773438 L 322.734375 275.410156 C 326.777344 275.007812 330.675781 274.359375 334.402344 273.449219 C 341.050781 271.835938 346.890625 269.285156 351.910156 265.8125 C 356.921875 262.351562 360.882812 257.859375 363.78125 252.351562 C 366.679688 246.828125 368.136719 240.257812 368.136719 232.621094 C 368.136719 225.824219 366.96875 220.070312 364.632812 215.324219 Z M 335.039062 249.589844 C 331.800781 251.660156 327.691406 253.0625 322.730469 253.816406 L 322.730469 215.070312 C 326.109375 216.257812 329.082031 217.554688 331.652344 218.933594 C 335.175781 220.847656 337.90625 223.074219 339.816406 225.613281 C 341.726562 228.160156 342.671875 231.347656 342.671875 235.160156 C 342.675781 241.53125 340.136719 246.339844 335.039062 249.589844 Z M 335.039062 249.589844 " style="" fill="#e67500" data-original="#e67500"/>
</g>
</g></svg>
