<?xml version="1.0" encoding="utf-8"?>
<svg version="1.1" id="Layer_1" xmlns="http://www.w3.org/2000/svg" xmlns:xlink="http://www.w3.org/1999/xlink" x="0px" y="0px"
	width="100px" height="100px" viewBox="0 0 66.7 66.7" style="enable-background:new 0 0 66.7 66.7;" xml:space="preserve">
<g>
	<circle style="fill:#E8E8E8;" cx="33.3" cy="33.3" r="33.3"/>
	<circle style="fill:#FFFFFF;" cx="33.3" cy="33.3" r="32.7"/>
	<path d="M8.8,29.2c0-0.3,0-0.5,0.1-0.8c0.5-1.1,1.4-1.5,2.5-1.5c0.1,0,0.1,0.1,0.1,0.1v0.7c1.5-0.9,3.1-1.2,4.7-0.7
		c1.7,0.4,2.9,1.4,3.8,2.9c1.3,2.2,1,4.9-0.6,6.9c-1,1.1-2.2,1.9-3.7,2.1c-1.5,0.2-2.9-0.1-4.2-0.9v5.8H8.8V29.2L8.8,29.2z
		 M14.9,36.2c1.8,0,3.3-1.5,3.3-3.3c0-1.8-1.5-3.3-3.3-3.3c-1.8,0-3.3,1.5-3.3,3.3C11.6,34.7,13.1,36.2,14.9,36.2z M33.8,22.8V39
		v0.1h-2.7c-0.1-0.3,0-0.6-0.1-0.9c-1.9,1.1-3.7,1.3-5.7,0.4c-1.2-0.5-2.1-1.3-2.8-2.5c-1.3-2.2-1.1-5.1,0.6-7
		c1-1.1,2.2-1.9,3.7-2.1c1.5-0.2,2.9,0.1,4.1,0.9c0.1-0.1,0.1-0.2,0.1-0.3v-2.5c0-1,0.5-1.8,1.5-2.1c0.1,0,0.1,0,0.1-0.1
		C32.7,22.8,33.8,22.8,33.8,22.8z M24.5,33c0,1.8,1.5,3.3,3.3,3.3c1.8,0,3.3-1.5,3.3-3.3c0-1.8-1.5-3.3-3.3-3.3
		C25.9,29.7,24.5,31.2,24.5,33z M57.9,39.1h-2.5h-0.3v-0.9c-1.5,0.9-3.1,1.2-4.8,0.7c-1.7-0.5-3-1.5-3.8-3c-1.2-2.3-0.8-5.2,0.9-7
		c1.8-1.9,4.9-2.6,7.7-0.9c0.1-0.3,0-0.5,0-0.8c1-0.3,2.3,0.3,2.7,1.3 M51.8,36.3c1.8,0,3.3-1.5,3.3-3.3c0-1.8-1.5-3.3-3.3-3.3
		c-1.8,0-3.3,1.5-3.3,3.3C48.5,34.8,50,36.3,51.8,36.3z M45,28.3l-1.5,2.3c-0.6-0.3-1.1-0.5-1.8-0.7c-0.7-0.2-1.4-0.4-2.1-0.3
		c-0.3,0-0.5,0.1-0.8,0.2c-0.5,0.3-0.5,0.8-0.1,1.1c0.3,0.2,0.7,0.3,1,0.5c0.9,0.3,1.8,0.5,2.7,0.9c0.6,0.2,1.2,0.5,1.7,0.9
		c1.7,1.3,1.2,3.7,0.3,4.6c-0.7,0.7-1.6,1.1-2.6,1.3c-2.7,0.5-5.1-0.1-7.4-1.5c0,0-0.1-0.1-0.1-0.1l1.7-2.2c0.5,0.3,1.1,0.6,1.7,0.9
		c0.9,0.4,1.9,0.6,2.9,0.5c0.3,0,0.6-0.1,0.9-0.2c0.5-0.3,0.5-0.9,0.1-1.3c-0.3-0.2-0.7-0.3-1.1-0.5c-0.9-0.3-1.7-0.4-2.6-0.7
		c-0.5-0.2-1.1-0.5-1.6-0.8c-1.6-1.2-1.5-3.7-0.1-4.9c0.8-0.7,1.7-1.1,2.7-1.1C41,26.9,43,27.3,45,28.3C44.9,28.3,44.9,28.3,45,28.3
		L45,28.3z M45.9,42.7v-0.7c0-0.1-0.1-0.3,0.2-0.3c0.3,0,0.4,0.1,0.5,0.3v0.7v1.1v0.1c-0.4,0.1-0.5,0.1-0.7-0.3L45.4,43l-0.1-0.1
		v0.9h-0.7v-0.8V42c0-0.1-0.1-0.3,0.1-0.3c0.2,0,0.4-0.1,0.5,0.1c0.1,0.1,0.2,0.3,0.3,0.5L45.9,42.7L45.9,42.7L45.9,42.7
		C45.9,42.7,45.9,42.7,45.9,42.7z M20.6,42.9v0.9c-0.2,0.1-0.4,0-0.7,0v-0.9V42c0-0.1-0.1-0.3,0.1-0.3c0.2-0.1,0.4-0.1,0.5,0.1
		c0.1,0.1,0.2,0.3,0.3,0.5l0.3,0.4c0.1-0.3,0-0.5,0-0.8c0-0.1-0.1-0.3,0.2-0.3s0.5,0.1,0.5,0.3v0.7v1.1c-0.5,0.1-0.5,0.1-0.7-0.3
		L20.6,42.9C20.6,42.9,20.6,42.9,20.6,42.9z M40,43.8h-0.7c-0.1-0.2,0-0.4,0-0.6V42c0-0.1-0.1-0.3,0.1-0.3c0.2,0,0.4-0.1,0.5,0.1
		l0.3,0.7l0.1,0.2h0.1v-0.7c0-0.1-0.1-0.3,0.2-0.3s0.5,0.1,0.5,0.3v1.8c-0.4,0.1-0.5,0.1-0.7-0.3c-0.1-0.2-0.3-0.5-0.5-0.7V43.8z
		 M35,41.7c0.5-0.1,0.7,0,0.7,0.5v0.3c0.2,0.1,0.3,0,0.5,0v-0.5c0-0.1-0.1-0.3,0.1-0.3s0.4,0,0.5,0.2v0.1v1.9h-0.7V43
		c-0.2-0.1-0.3,0-0.5,0v0.8H35V41.7z M42.8,43.1L42.5,43c-0.1-0.3,0-0.5,0.3-0.5h0.5v1.1c0,0.1-0.1,0.1-0.1,0.1
		c-0.3,0.1-0.7,0.1-1,0.1c-0.5-0.1-0.9-0.7-0.7-1.4c0.1-0.7,1.1-1.1,1.7-0.7c0.2,0.1,0.2,0.3-0.1,0.5c-0.3-0.2-0.6-0.2-0.8-0.1
		c-0.2,0.2-0.2,0.7-0.1,0.9l0.1,0.1c0.1,0.1,0.3,0.2,0.4,0.1C42.9,43.3,42.7,43.2,42.8,43.1z M48.7,42.5v1c0,0.1-0.1,0.2-0.2,0.2
		c-0.3,0.1-0.7,0.1-1.1,0c-0.5-0.1-0.7-0.7-0.6-1.3c0.1-0.8,1-1.2,1.7-0.7c0.2,0.1,0.2,0.3,0,0.5c-0.1,0-0.1,0-0.1-0.1
		c-0.3-0.2-0.6-0.2-0.8,0.1c-0.2,0.3-0.1,0.9,0.1,1h0.1c0.1,0.1,0.3,0.1,0.3,0.1c0.1-0.1,0.1-0.2,0.1-0.3c-0.1-0.1-0.1,0-0.2-0.1
		s-0.1-0.2,0-0.3c0-0.1,0.1-0.1,0.2-0.1C48.3,42.5,48.5,42.5,48.7,42.5C48.7,42.5,48.7,42.5,48.7,42.5z M23.4,43.1
		c-0.1,0-0.3-0.1-0.3-0.3s0.1-0.3,0.3-0.3H24v1.1c0,0.1-0.1,0.1-0.2,0.2c-0.3,0.1-0.7,0.1-1,0.1c-0.5-0.1-0.9-0.8-0.7-1.5
		c0.2-0.7,1.1-1,1.7-0.6c0.2,0.1,0.2,0.3-0.1,0.5h-0.1c-0.3-0.2-0.6-0.2-0.8,0c-0.2,0.3-0.1,0.8,0.1,1l0.1,0.1
		c0.1,0.1,0.3,0.1,0.4,0.1C23.5,43.3,23.4,43.2,23.4,43.1z M37,43.8l0.5-1.4c0.1-0.1,0.1-0.3,0.1-0.5c0.1-0.3,0.2-0.3,0.4-0.3
		s0.4,0,0.5,0.3l0.7,1.9h-0.7c0-0.1-0.1-0.1-0.1-0.2c-0.1-0.3-0.2-0.3-0.5-0.3c-0.1,0-0.2,0.1-0.3,0.2c0,0.3-0.2,0.4-0.5,0.3
		C37.1,43.8,37.1,43.8,37,43.8C37,43.8,37,43.8,37,43.8z M38.2,42.9l-0.1-0.6c-0.1,0.2-0.1,0.4-0.1,0.6
		C37.9,42.9,38.2,42.9,38.2,42.9z M14.7,43.8l0.7-2c0.1-0.2,0.3-0.1,0.4-0.1c0.2,0,0.4,0,0.5,0.2l0.7,1.9c-0.2,0.1-0.4,0-0.5,0
		s-0.1-0.1-0.2-0.2c-0.1-0.3-0.3-0.3-0.6-0.3c-0.1,0-0.1,0.1-0.1,0.1c0,0.3-0.3,0.4-0.5,0.3H14.7z M15.8,42.3
		c-0.1,0.2-0.2,0.3-0.1,0.5c0.1,0,0.2,0,0.3-0.1C15.9,42.8,15.8,42.3,15.8,42.3z M52.3,41.7c0.5-0.2,0.7-0.1,0.8,0.4l0.3,1l0.3-0.9
		c0.1-0.5,0.3-0.6,0.8-0.5v0.1l-0.6,1.9c-0.1,0.1-0.1,0.2-0.3,0.2c-0.5,0-0.5,0-0.7-0.5C52.8,43.4,52.3,41.7,52.3,41.7z M26.9,41.7
		h1.5c0.1,0.3,0,0.5-0.4,0.5h-0.4c-0.1,0.3-0.1,0.3,0.2,0.3h0.3v0.5c-0.2,0.1-0.4,0-0.6,0.1c-0.1,0.1,0,0.2,0,0.3
		c0.1,0.1,0.3,0,0.5,0c0.3,0,0.4,0.1,0.3,0.5h-1.5C26.8,43.7,26.9,41.7,26.9,41.7z M18.7,41.7l-0.7,2.1c0,0.1-0.1,0.1-0.1,0.1
		c-0.5,0.1-0.6,0.1-0.8-0.5l-0.5-1.7c0.5-0.2,0.7-0.1,0.8,0.4l0.2,0.9l0.1,0.1c0.1-0.1,0.1-0.2,0.1-0.3l0.2-0.7
		C18.1,41.6,18.3,41.5,18.7,41.7z M31.9,42.3c-0.1-0.1-0.3-0.1-0.5-0.1c-0.1,0-0.2,0-0.2,0.1c0,0.1,0.1,0.1,0.1,0.1l0.3,0.1
		c0.3,0.1,0.5,0.3,0.5,0.7c0,0.3-0.2,0.6-0.5,0.7c-0.3,0.1-0.5,0.1-0.8,0c-0.4-0.1-0.5-0.3-0.1-0.6c0.1,0.1,0.3,0.2,0.5,0.2
		s0.2,0,0.3-0.1c0-0.1-0.1-0.2-0.1-0.3l-0.4-0.1c-0.3-0.1-0.4-0.3-0.3-0.6c0-0.3,0.1-0.5,0.4-0.6c0.3-0.1,0.6-0.1,0.9,0
		C32.1,41.8,32.2,41.9,31.9,42.3z M57.7,42.3c-0.1-0.1-0.3-0.1-0.5-0.1c-0.1,0-0.2,0-0.2,0.1c0,0.1,0.1,0.1,0.1,0.1l0.3,0.1
		c0.3,0.1,0.5,0.3,0.5,0.7c0,0.3-0.2,0.6-0.5,0.7c-0.3,0.1-0.5,0.1-0.8,0c-0.4-0.1-0.5-0.3-0.1-0.6c0.1,0.1,0.3,0.2,0.5,0.2
		s0.2,0,0.3-0.1c0-0.1-0.1-0.2-0.1-0.3l-0.4-0.1c-0.3-0.1-0.4-0.3-0.3-0.6c0-0.3,0.1-0.5,0.4-0.6s0.6-0.1,0.9,0
		C57.9,41.8,57.9,41.9,57.7,42.3z M14.4,42.3c-0.2-0.1-0.3-0.1-0.5-0.1c-0.1,0-0.2,0-0.2,0.1s0.1,0.1,0.1,0.2l0.3,0.1
		c0.3,0.1,0.5,0.3,0.5,0.7c0,0.3-0.2,0.5-0.5,0.7c-0.3,0.1-0.5,0.1-0.7,0c-0.4-0.1-0.5-0.3-0.2-0.6c0.1,0.1,0.3,0.2,0.5,0.2
		c0.1,0,0.2,0,0.3-0.1c0-0.1-0.1-0.2-0.1-0.2c-0.1-0.1-0.3-0.1-0.3-0.1c-0.3-0.1-0.4-0.4-0.4-0.7c0-0.3,0.2-0.5,0.5-0.6
		c0.3-0.1,0.5-0.1,0.9,0C14.6,41.8,14.7,41.9,14.4,42.3z M56.1,43.8h-1.5v-2.1H56c0.1,0.3,0,0.5-0.3,0.5h-0.4
		c-0.1,0.1,0,0.2-0.1,0.3c0.2,0.1,0.4,0,0.6,0.1V43h-0.6c-0.1,0.1,0,0.2,0,0.3c0.1,0.1,0.3,0,0.5,0C56.1,43.3,56.1,43.4,56.1,43.8
		C56.1,43.8,56.1,43.8,56.1,43.8z M25,41.7c0.3-0.1,0.7-0.1,1,0c0.4,0.1,0.6,0.3,0.6,0.6c0,0.4-0.2,0.7-0.6,0.8s-0.4,0.1-0.4,0.5
		v0.2c-0.2,0.1-0.4,0-0.6,0V41.7C25,41.7,25,41.7,25,41.7z M25.6,42.1c0,0.2-0.1,0.4,0,0.6c0.2,0,0.3-0.2,0.3-0.3
		C25.9,42.2,25.9,42.1,25.6,42.1L25.6,42.1z M34.5,42.3c-0.3-0.2-0.6-0.3-0.7-0.1c-0.2,0.2-0.2,0.7,0,1c0.1,0.2,0.4,0.2,0.7,0
		c0.3,0.3,0.3,0.5-0.1,0.6c-0.7,0.1-1.3-0.1-1.4-0.9c0-0.2,0-0.4,0.1-0.5c0.2-0.7,1-1,1.6-0.6C34.8,41.9,34.8,42.1,34.5,42.3
		C34.5,42.3,34.5,42.3,34.5,42.3z M29.8,42.2v1.6c-0.2,0.1-0.4,0-0.7,0v-1c0-0.2,0.1-0.4,0-0.5c-0.1-0.1-0.3,0-0.5-0.1h-0.1
		c-0.1-0.3,0-0.5,0.4-0.5h1.5C30.5,42.1,30.5,42.1,29.8,42.2z M49.7,43.8v-1.2v-0.7c0-0.1-0.1-0.3,0.2-0.3c0.3,0,0.5,0.1,0.5,0.3V43
		v0.3c0.3,0.1,0.9-0.2,0.8,0.5H49.7L49.7,43.8z M19.6,43.8H19c-0.1-0.2,0-0.4,0-0.6v-1.3c0-0.1-0.1-0.3,0.2-0.3
		c0.3,0,0.5,0.1,0.5,0.3v0.3L19.6,43.8L19.6,43.8z M43.7,41.7c0.5-0.1,0.7,0,0.7,0.5v1.7c-0.2,0.1-0.4,0-0.7,0V41.7L43.7,41.7z
		 M51.5,41.7c0.5-0.1,0.7,0,0.7,0.5v1.7h-0.7V41.7z"/>
</g>
</svg>
