<?xml version="1.0" encoding="utf-8"?>
<svg version="1.1" id="Layer_1" xmlns="http://www.w3.org/2000/svg" xmlns:xlink="http://www.w3.org/1999/xlink" x="0px" y="0px"
	width="100px" height="100px" viewBox="0 0 66.7 66.7" style="enable-background:new 0 0 66.7 66.7;" xml:space="preserve">
<g>
	<path style="fill:#0050AA;" d="M33.3,0L33.3,0c18.4,0,33.3,14.9,33.3,33.3l0,0c0,18.4-14.9,33.3-33.3,33.3l0,0
		C14.9,66.7,0,51.7,0,33.3l0,0C0,14.9,14.9,0,33.3,0z"/>
	<path style="fill:#FFF000;" d="M33.3,3.8C17,3.8,3.8,17,3.8,33.3S17,62.9,33.3,62.9s29.5-13.2,29.5-29.5S49.7,3.8,33.3,3.8z"/>
	<path style="fill:#E60A14;" d="M31.5,34.1l-5.2-5.3l-6.1,6.1v2l1.5-1.5l4.2,4.2l-1.5,1.5l1,1l8.4-8.4v-2L31.5,34.1L31.5,34.1z"/>
	<path style="fill:#0050AA;" d="M7.1,27.9h9.3v2h-1.5v6.5l5.4-3v5.5H7.1v-2h1.5v-6.9H7.1V27.9L7.1,27.9z M46.3,27.9v2h1.5v7h-1.5v2
		h13.1v-5.5l-5.4,3v-6.5h1.5v-2H46.3z"/>
	<path style="fill:#E60A14;" d="M25.5,21.6c1.8,0,3.3,1.5,3.3,3.3c0,1.8-1.4,3.3-3.3,3.3c0,0,0,0-0.1,0c-1.8,0-3.3-1.5-3.3-3.3
		C22.1,23.1,23.7,21.6,25.5,21.6z M33.3,1.7C15.9,1.7,1.7,15.9,1.7,33.3s14.1,31.6,31.6,31.6c17.4,0,31.6-14.1,31.6-31.6
		C64.9,15.9,50.7,1.7,33.3,1.7z M33.3,62.9C17,62.9,3.8,49.7,3.8,33.3S17,3.8,33.3,3.8S62.9,17,62.9,33.3S49.7,62.9,33.3,62.9
		C33.3,62.9,33.3,62.9,33.3,62.9z"/>
	<path style="fill:#0050AA;" d="M41.2,27.9h-8.9v2h1.5v7h-1.6v2h8.9C47.7,38.8,47.8,27.9,41.2,27.9z"/>
	<path style="fill:#FFF000;" d="M39.9,35.4h-0.5v-4.1h0.3C41.7,31.3,41.7,35.4,39.9,35.4z"/>
</g>
</svg>
