<?xml version="1.0"?>
<svg xmlns="http://www.w3.org/2000/svg" xmlns:xlink="http://www.w3.org/1999/xlink" xmlns:svgjs="http://svgjs.com/svgjs" version="1.1" width="512" height="512" x="0" y="0" viewBox="0 0 512 512" style="enable-background:new 0 0 512 512" xml:space="preserve" class=""><g>
<circle xmlns="http://www.w3.org/2000/svg" style="" cx="256" cy="256" r="256" fill="#f1f1f1" data-original="#00b9ed" class=""/>
<path xmlns="http://www.w3.org/2000/svg" style="" d="M512,256c0-5.743-0.209-11.436-0.581-17.084L370.795,98.286l-242.188,75.37l31,30.225l-5.881,37.07  l-37.048,43.98l100.943,100.947l-61.798,43.099l82.397,82.397C244.096,511.778,250.022,512,256,512C397.385,512,512,397.385,512,256  z" fill="#f1f1f1" data-original="#0082ae" class=""/>
<polygon xmlns="http://www.w3.org/2000/svg" style="" points="242.475,399.403 277.55,385.878 277.55,173.656 242.475,160.132 " fill="#bdc4cb" data-original="#bdc4cb" class=""/>
<g xmlns="http://www.w3.org/2000/svg">
	<polygon style="" points="234.45,173.656 234.45,385.878 256,399.403 256,160.132  " fill="#dce4ec" data-original="#dce4ec"/>
	
		<rect x="159.725" y="136.153" transform="matrix(-0.866 -0.5 0.5 -0.866 213.7687 470.0436)" style="" width="20.271" height="140.457" fill="#dce4ec" data-original="#dce4ec"/>
</g>
<rect xmlns="http://www.w3.org/2000/svg" x="269.653" y="196.256" transform="matrix(-0.5 -0.866 0.866 -0.5 334.4775 605.8898)" style="" width="144.977" height="20.271" fill="#bdc4cb" data-original="#bdc4cb" class=""/>
<circle xmlns="http://www.w3.org/2000/svg" style="" cx="136.56" cy="264.08" r="28.809" fill="#ffb242" data-original="#ffb242" class=""/>
<g xmlns="http://www.w3.org/2000/svg">
	<circle style="" cx="375.44" cy="264.08" r="28.809" fill="#f75933" data-original="#f75933" class=""/>
	<polygon style="" points="383.392,130.557 242.475,117.033 256,173.656 383.392,173.656  " fill="#f75933" data-original="#f75933" class=""/>
</g>
<polygon xmlns="http://www.w3.org/2000/svg" style="" points="128.608,130.557 128.608,173.656 256,173.656 256,117.033 " fill="#ffb242" data-original="#ffb242" class=""/>
<path xmlns="http://www.w3.org/2000/svg" style="" d="M335.858,83.022H256l-13.525,23.767L256,130.557h127.392  C383.392,104.304,362.11,83.022,335.858,83.022z" fill="#9e0d34" data-original="#9e0d34" class=""/>
<path xmlns="http://www.w3.org/2000/svg" style="" d="M176.142,83.022c-26.253,0-47.535,21.282-47.535,47.535H256V83.022H176.142z" fill="#c11846" data-original="#c11846" class=""/>
<polygon xmlns="http://www.w3.org/2000/svg" style="" points="356.177,428.978 356.177,385.878 256,385.878 242.475,407.428 256,428.978 " fill="#9e0d34" data-original="#9e0d34" class=""/>
<rect xmlns="http://www.w3.org/2000/svg" x="155.82" y="385.88" style="" width="100.18" height="43.1" fill="#c11846" data-original="#c11846" class=""/>
<g xmlns="http://www.w3.org/2000/svg">
</g>
<g xmlns="http://www.w3.org/2000/svg">
</g>
<g xmlns="http://www.w3.org/2000/svg">
</g>
<g xmlns="http://www.w3.org/2000/svg">
</g>
<g xmlns="http://www.w3.org/2000/svg">
</g>
<g xmlns="http://www.w3.org/2000/svg">
</g>
<g xmlns="http://www.w3.org/2000/svg">
</g>
<g xmlns="http://www.w3.org/2000/svg">
</g>
<g xmlns="http://www.w3.org/2000/svg">
</g>
<g xmlns="http://www.w3.org/2000/svg">
</g>
<g xmlns="http://www.w3.org/2000/svg">
</g>
<g xmlns="http://www.w3.org/2000/svg">
</g>
<g xmlns="http://www.w3.org/2000/svg">
</g>
<g xmlns="http://www.w3.org/2000/svg">
</g>
<g xmlns="http://www.w3.org/2000/svg">
</g>
</g></svg>
