<svg xmlns="http://www.w3.org/2000/svg" xmlns:xlink="http://www.w3.org/1999/xlink" viewBox="0 0 488 158"><g fill="#00665e"><path d="M35.3 110.2l-1.8-3-1.5-2.6a32.7 32.7 0 0 1-1.5-2.7l-1.8-3.2-4.4-7.9-3.1-5.1c-.9-1.3-1.6-2.3-2.3-2.9-.6-.6-1.3-1.1-1.9-1.4-.7-.3-1.5-.5-2.2-.6v29.4H.8V39.6h26.3c3.1 0 5.9.5 8.5 1.5 2.5 1 4.7 2.4 6.5 4.2s3.2 4 4.2 6.5 1.5 5.4 1.5 8.5a23.56 23.56 0 0 1-1.2 7.5c-.8 2.3-1.9 4.4-3.3 6.1-1.4 1.8-3.1 3.2-5 4.2-1.9 1.1-4 1.6-6.1 1.7.7.5 1.3 1 1.7 1.4s.8.9 1.3 1.5 1.1 1.5 1.9 2.6l2.5 3.8 2.7 4.5 2.8 4.7 7 11.8H35.3zm-2.4-49.6c0-4.5-1.7-7.4-5.1-8.6-.8-.3-1.9-.6-3.3-.8s-3-.3-4.7-.3h-5.1V70h4.8c3 0 5.3-.2 6.9-.5s2.8-.9 3.8-1.8c1.8-1.7 2.7-4 2.7-7.1m40.9 27.8v.4c0 4.1.9 7.2 2.8 9.3 1.9 2.2 4.6 3.2 8.1 3.2 4.6 0 9-1.7 13.2-5.2l5.3 8.1c-5.9 4.8-12.4 7.2-19.6 7.2-3.7 0-7.1-.6-10.2-1.9-3-1.3-5.6-3.1-7.8-5.4-2.1-2.3-3.8-5.2-4.9-8.5-1.2-3.3-1.7-7-1.7-11.1 0-4.7.5-8.6 1.5-11.9 1-3.2 2.7-6.2 5-8.7 2.2-2.4 4.6-4.1 7.2-5.3 2.6-1.1 5.7-1.7 9.1-1.7 3 0 5.9.5 8.5 1.4s4.8 2.3 6.5 4.1c2.4 2.4 4.1 5.5 5.2 9.1s1.7 8.2 1.7 13.7v3.1H73.8zm16-10.5c0-2-.1-3.5-.4-4.7-.2-1.1-.7-2.2-1.3-3.1-1.4-2-3.4-3-6-3s-4.6 1-6 2.9-2.1 4.7-2.1 8.4v.2h15.7v-.7zm64.4 15.8c0 2.7-.5 5.2-1.6 7.4s-2.6 4.1-4.5 5.7-4.3 2.8-7 3.7-5.8 1.3-9.1 1.3c-6.4 0-13.4-2-21-5.9l4.9-9.9c1 .6 2.2 1.3 3.6 2s2.8 1.4 4.4 1.9c1.5.6 3.1 1 4.7 1.4s3.1.6 4.6.6c2 0 3.6-.6 4.9-1.7s2-2.5 2-4.2c0-1.8-.6-3.1-1.9-4.1s-3.3-1.7-6.1-2.3l-6.1-1.1c-1.8-.3-3.6-1-5.4-2s-3.2-2.1-4.2-3.3c-.9-1.1-1.7-2.6-2.2-4.3s-.8-3.4-.8-5.1c0-2.5.5-4.8 1.4-6.9s2.3-3.9 4.1-5.4 3.9-2.6 6.3-3.5c2.5-.8 5.2-1.2 8.3-1.2 4.2 0 7.7.5 10.7 1.6 2.9 1.1 5.5 2.1 7.9 3.3l-4.5 9.1c-2.6-1.4-4.9-2.3-6.9-2.9s-4-.9-5.9-.9c-2 0-3.6.5-4.8 1.4s-1.8 2.1-1.8 3.7c0 1.4.5 2.4 1.5 3.2s2.7 1.5 5 2.1L141 79c1.6.4 3 .8 4.1 1.3 1.1.4 2 .9 2.8 1.4s1.4 1 2 1.5c.5.5 1 1.1 1.5 1.7 1.9 2.4 2.8 5.3 2.8 8.8m38.2 15.4c-3.8 1.6-7.5 2.3-11.1 2.3-3.5 0-6.4-.7-9-2.1-2.5-1.4-4.2-3.2-5-5.5-.2-.5-.4-1-.5-1.5l-.3-1.5c0-.5-.1-1.2-.1-2s-.1-1.8-.1-3V67.5h-5.2v-9.3h5.2l.1-6.6c0-1.8.2-3.7.5-5.7l13.8-3.4c-.3 2.4-.5 4.9-.6 7.7l-.2 8.1h12.2l-3.5 9.3h-8.7v26.1c0 3.3.4 5.5 1.2 6.6s2.4 1.7 4.7 1.7a7.47 7.47 0 0 0 2-.3c.7-.2 1.7-.4 2.9-.8l1.7 8.2z"/><use xlink:href="#B"/><path d="M290.8 111.6c-1.8-1.3-3.2-3-4.1-5.1-1.7 1.6-3.7 2.9-6 3.7s-4.9 1.3-7.7 1.3c-3.7 0-6.9-.8-9.7-2.3-2.8-1.6-4.7-3.6-5.6-6.1-.4-1.1-.7-2.5-.9-4.1s-.3-3.7-.3-6.3V59.4l13.5-2.5v33.4c0 2.4.1 4.2.3 5.5s.5 2.3.8 3 1 1.3 1.9 1.8c.9.4 1.9.7 2.9.7 1.7 0 3.4-.5 5-1.5 1.7-1 2.8-2.2 3.3-3.5V59.7l13-2.7v39.7c0 1.8.3 3.5.8 5.1a11.83 11.83 0 0 0 2.3 4.3l-9.5 5.5zm48.5-41.5c-1.3-.7-2.6-1-4-1-3 0-5.8 1.5-8.3 4.4v36.7h-13.5V75.5c0-3.5-.2-6.6-.6-9.1-.4-2.6-.8-4.6-1.4-6.1l12.1-3.2c1.2 2.2 1.9 4.6 2.1 7.4a23.79 23.79 0 0 1 5.3-5.2c2-1.5 4.3-2.2 6.9-2.2 1 0 1.8.1 2.5.2.6.1 1.5.4 2.6.9l-3.7 11.9z"/><use xlink:href="#B" x="147.7"/><path d="M432.3 110.2V76.4c0-3-.3-5-1-6-.6-1-1.8-1.6-3.6-1.6-1.4 0-2.9.4-4.6 1.3-1.7.8-3.3 2-4.9 3.4v36.7h-13.5V72.5c0-2.2-.2-4.4-.5-6.4-.3-2.1-.8-4-1.4-5.7l12-3.5c1.3 2.3 1.9 4.4 1.9 6.6l2.9-2a28.38 28.38 0 0 1 3.1-1.8c1.4-.8 2.9-1.3 4.5-1.7 1.7-.4 3.3-.6 4.8-.6 2.9 0 5.6.7 7.9 2.1s3.9 3.2 4.7 5.4c.7 1.8 1 4.3 1 7.4v38h-13.3zm55.7-1.1c-3.8 1.6-7.5 2.3-11.1 2.3-3.5 0-6.4-.7-9-2.1-2.5-1.4-4.2-3.2-5-5.5-.2-.5-.4-1-.5-1.5l-.3-1.5c0-.5-.1-1.2-.1-2s-.1-1.8-.1-3V67.5h-5.2v-9.3h5.2l.1-6.6c0-1.8.2-3.7.5-5.7l13.8-3.4c-.3 2.4-.5 4.9-.6 7.7l-.2 8.1h12.2l-3.5 9.3h-8.7v26.1c0 3.3.4 5.5 1.2 6.6s2.3 1.7 4.7 1.7a7.47 7.47 0 0 0 2-.3c.7-.2 1.7-.4 2.9-.8l1.7 8.2zM17.1 4.3H10v23.5H7V4.3H0V1.7h17.2zm15.8 23.5V14.7a7.18 7.18 0 0 0-.2-1.7c-.1-.4-.3-.8-.6-1.1-.2-.2-.5-.4-.9-.6-.4-.1-.8-.2-1.3-.2-.9 0-1.8.3-2.8.8-1 .6-1.9 1.3-2.7 2.4v13.5h-3V4.5c0-.6 0-1.2-.1-1.6-.1-.5-.1-.9-.2-1.2-.1-.4-.2-.7-.2-1l3-.6a3.73 3.73 0 0 1 .2 1.2c.1.4.1.8.2 1.4.1.5.1 1.2.1 1.9V9v.9c0 .3 0 .6-.1.8v.8c.9-.8 1.8-1.5 2.9-2.1s2.2-.9 3.4-.9c1.1 0 2.2.3 3.1.8.9.6 1.5 1.3 1.8 2.2l.3 1.1c0 .4.1.9.1 1.6v13.6h-3zm10.5-9v.5c0 .9.1 1.7.2 2.4s.4 1.3.7 1.8c.5.8 1.2 1.4 2 1.8s1.7.6 2.7.6c1.8 0 3.3-.6 4.6-1.8l1.1 1.9c-.8.8-1.8 1.3-2.9 1.7a10.3 10.3 0 0 1-3.5.6c-2.6 0-4.7-.9-6.2-2.7s-2.2-4.3-2.2-7.4c0-1.6.2-3 .5-4.1.4-1.1.9-2.1 1.8-3.1 1.5-1.8 3.4-2.6 5.7-2.6 2.1 0 3.8.7 5.1 2.1.4.4.8.9 1 1.3.3.5.5 1 .7 1.6s.3 1.3.4 2.1.1 1.8.1 2.9v.4H43.4zm8.7-2.2c0-1-.1-1.9-.2-2.6s-.4-1.2-.6-1.7c-.3-.5-.8-.9-1.4-1.2s-1.3-.5-2-.5c-2.8 0-4.2 2-4.4 5.9h8.6zm295.1 131.9c-.9.6-2.1 1.1-3.4 1.4-1.3.4-2.6.5-4 .5-3.3 0-6-1.1-8-3.3-1.1-1.2-1.9-2.6-2.5-4.3-.5-1.6-.8-3.6-.8-5.8 0-2.5.3-4.7 1-6.5s1.7-3.3 3-4.5c1.8-1.6 4.1-2.5 6.8-2.5 2.8 0 5.1.9 7.2 2.6l-1.4 1.9c-1.1-.7-2-1.3-2.9-1.6s-1.8-.5-2.8-.5c-1.5 0-2.9.4-4 1.1s-2 1.8-2.5 3.3c-.7 2-1 4.2-1 6.6 0 1.7.2 3.3.5 4.6s.8 2.4 1.3 3.3c.3.4.7.8 1.1 1.2l1.5.9 1.8.6c.6.1 1.3.2 1.9.2 1.6 0 3-.3 4.1-1v-8h-5.3l-.6-2.6h8.8v12.4zm15.3-14.5c-.3-.1-.5-.2-.8-.2-1.2 0-2.2.5-3.2 1.4-.4.4-.7.8-.9 1.2s-.2 1-.2 1.8v11.9h-3v-14.6c0-.7 0-1.3-.1-1.8s-.2-.9-.2-1.3l-.3-1 3-.8.3 1c.1.3.1.6.2 1s.1.8.1 1.2c.7-1 1.5-1.7 2.5-2.3s1.9-.9 2.9-.9h.4c.1 0 .2.1.3.1s.2.1.3.1l-1.3 3.2zm19.6 6.9c0 1.6-.2 3-.6 4.2a8.72 8.72 0 0 1-1.7 3c-.7.8-1.6 1.4-2.6 1.8s-2.1.6-3.3.6c-2.6 0-4.6-.9-6.1-2.7-1.4-1.8-2.1-4.3-2.1-7.4s.7-5.5 2.1-7.3 3.4-2.6 5.9-2.6c1.6 0 2.9.3 4 1 1 .6 1.9 1.4 2.5 2.4.6.9 1 1.9 1.3 3 .5 1.1.6 2.5.6 4m-3.4.2c0-2.6-.3-4.5-.9-5.7-.4-.8-1-1.4-1.7-1.8-.8-.4-1.5-.6-2.3-.6s-1.6.2-2.3.6a4.63 4.63 0 0 0-1.6 1.5c-.3.6-.5 1.3-.7 2.1s-.2 1.8-.2 2.9c0 1.3.1 2.6.3 3.7s.5 1.9.9 2.5.9 1 1.6 1.4c.7.3 1.5.5 2.3.5 1 0 1.8-.3 2.5-.7.7-.5 1.2-1.2 1.6-2.1.2-.6.3-1.2.4-1.8.1-.8.1-1.5.1-2.5m23 9.8c-.6-.5-1.1-1-1.4-1.4s-.5-1-.7-1.6c-1.4 1.9-3.4 2.9-6 2.9-1.2 0-2.2-.2-3.1-.7-.8-.5-1.5-1.1-1.9-2-.2-.4-.3-.8-.4-1.3s-.1-1-.1-1.6v-13.9l3-.6v13.6c0 .9.1 1.6.2 2a2.73 2.73 0 0 0 .9 1.2c.3.2.7.4 1.1.5s.8.2 1.2.2c.9 0 1.8-.3 2.7-.9s1.6-1.5 2.1-2.5v-13.4l3-.5v13.8c0 1.2.1 2.1.3 2.7s.5 1.1 1 1.5l-1.9 2zm23.8-10.3c0 1.5-.1 2.8-.4 3.8-.2 1-.6 1.9-1.2 2.8-.7 1.1-1.5 2-2.5 2.6s-2.1.9-3.3.9a6.71 6.71 0 0 1-2.8-.6c-.9-.4-1.7-.9-2.4-1.6v9.1l-3 .6v-22.8c0-.7 0-1.4-.1-1.9l-.2-1.3c-.1-.4-.1-.7-.2-1l3-.5c0 .2 0 .4.1.6 0 .2.1.5.1.9v1.3c1.6-1.9 3.4-2.8 5.6-2.8a6.71 6.71 0 0 1 2.8.6c.9.4 1.7 1 2.3 1.8.7.9 1.2 1.9 1.6 3.1.5 1.2.6 2.7.6 4.4m-3.1.3c0-1.1-.1-2.2-.2-3.1-.2-1-.4-1.7-.6-2.3a2.94 2.94 0 0 0-1.4-1.5c-.6-.4-1.3-.6-2.1-.6-1.9 0-3.6.9-5.1 2.7v9.6c1.4 1.6 3 2.5 4.6 2.5.9 0 1.7-.2 2.4-.6s1.2-1 1.6-1.7c.3-.6.5-1.3.6-2.1l.2-2.9m34.7-.3c0 1.5-.1 2.8-.4 3.8-.2 1-.6 1.9-1.2 2.8-.7 1.1-1.5 2-2.5 2.6s-2.1.9-3.3.9a6.71 6.71 0 0 1-2.8-.6c-.9-.4-1.7-.9-2.4-1.6v9.1l-3 .6v-22.8c0-.7 0-1.4-.1-1.9l-.2-1.3c-.1-.4-.1-.7-.2-1l3-.5c0 .2 0 .4.1.6 0 .2.1.5.1.9v1.3c1.6-1.9 3.4-2.8 5.6-2.8a6.71 6.71 0 0 1 2.8.6c.9.4 1.7 1 2.3 1.8.7.9 1.2 1.9 1.6 3.1s.6 2.7.6 4.4m-3.2.3c0-1.1-.1-2.2-.2-3.1-.2-1-.4-1.7-.6-2.3a2.94 2.94 0 0 0-1.4-1.5c-.6-.4-1.3-.6-2.1-.6-1.9 0-3.6.9-5.1 2.7v9.6c1.4 1.6 3 2.5 4.6 2.5.9 0 1.7-.2 2.4-.6s1.2-1 1.6-1.7c.3-.6.5-1.3.6-2.1.2-.9.2-1.8.2-2.9m14.7 9.1c-.4.2-.7.3-.9.3s-.6.1-1 .1c-.9 0-1.7-.3-2.2-.8-.3-.3-.5-.6-.7-1s-.2-1-.2-1.7v-20.1c0-.6 0-1.2-.1-1.6a3.73 3.73 0 0 0-.2-1.2c-.1-.4-.1-.7-.2-1l2.9-.6a3.73 3.73 0 0 1 .2 1.2c0 .4.1.8.2 1.4.1.5.1 1.2.1 1.9v19.4c0 .7.1 1.2.2 1.5s.4.4.9.4h.2.2l.6 1.8zm18.1-2c-.9.9-1.8 1.5-2.7 1.9s-1.9.6-3.1.6c-2.7 0-4.7-1-6.1-2.9-.6-.9-1.1-1.9-1.4-3s-.4-2.3-.4-3.8c0-2.1.3-3.7.8-5 .5-1.2 1.2-2.3 2-3.1 1.5-1.5 3.2-2.2 5.1-2.2 1.2 0 2.2.2 3 .6s1.5.9 2.2 1.4l-1.6 2c-.7-.6-1.2-1-1.8-1.2-.5-.2-1.1-.3-1.9-.3-.7 0-1.4.2-2.1.6a4.63 4.63 0 0 0-1.5 1.6c-.7 1.3-1.1 3.4-1.1 6.2 0 2.2.4 3.8 1.2 4.9s2 1.7 3.5 1.7c1.6 0 2.9-.7 4.1-2.1l1.8 2.1z"/></g><defs ><path id="B" d="M238.3 112.8c-1.6-.7-3-1.6-4.3-2.6-1.3-1.1-2.3-2.3-3-3.7l-1.6 1.5c-.5.5-1 .9-1.6 1.2-2.6 1.9-6.1 2.8-10.5 2.8-5.8 0-10.3-1.4-13.3-4.2s-4.6-6.8-4.6-12c0-6.2 2.1-10.7 6.2-13.6 4.2-2.9 10.4-4.3 18.7-4.3h1.5c.5 0 1 0 1.5.1v-2c0-2.9-.4-4.9-1.2-6s-2.4-1.7-4.9-1.7c-2.2 0-4.5.5-7 1.5s-5.2 2.5-8 4.4l-5.8-9.7c1.4-.9 2.6-1.6 3.9-2.2 1.2-.6 2.7-1.3 4.6-2 2.6-1.1 5-1.9 7.3-2.3 2.3-.5 4.6-.7 7-.7 4.4 0 8 .8 10.9 2.3 2.9 1.6 4.8 3.8 5.8 6.7a9.83 9.83 0 0 1 .5 1.6c.1.5.2 1.1.3 1.8s.2 1.5.2 2.4v3.6l-.3 17.5c0 1.4 0 2.7.1 3.7.1 1.1.3 2 .6 2.9s.8 1.7 1.5 2.5c.6.8 1.5 1.6 2.7 2.5l-7.2 8zm-11.6-25.4c-4.7 0-8 .5-9.9 1.6s-2.8 3.2-2.8 6.3c0 2 .6 3.7 1.7 4.9 1.1 1.3 2.6 1.9 4.3 1.9 1.3 0 2.5-.3 3.8-.9 1.2-.6 2.3-1.5 3.3-2.6l.2-11.2h-.6z"/></defs></svg>