<?xml version="1.0"?>
<svg xmlns="http://www.w3.org/2000/svg" xmlns:xlink="http://www.w3.org/1999/xlink" xmlns:svgjs="http://svgjs.com/svgjs" version="1.1" width="512" height="512" x="0" y="0" viewBox="0 0 512 512" style="enable-background:new 0 0 512 512" xml:space="preserve" class=""><g><path xmlns="http://www.w3.org/2000/svg" d="m512 256c0 141.386719-114.613281 256-256 256s-256-114.613281-256-256 114.613281-256 256-256 256 114.613281 256 256zm0 0" fill="#f1f1f1" data-original="#0065a3" style="" class=""/><path xmlns="http://www.w3.org/2000/svg" d="m511.683594 268.773438-134.054688-134.054688-44.3125 44.3125-65.398437-65.398438-213.269531 213.265626 184.535156 184.539062c5.558594.359375 11.164062.5625 16.816406.5625 137.101562 0 249.027344-107.777344 255.683594-243.226562zm0 0" fill="#f1f1f1" data-original="#005285" style="" class=""/><path xmlns="http://www.w3.org/2000/svg" d="m419.820312 198.464844-153.082031 1.640625-11.738281-3.757813-127.488281-39.675781c28.171875-37.804687 71.136719-61.984375 118.097656-66.679687 3.050781-.234376 6.105469-.472657 9.390625-.707032 72.550781-3.050781 139.464844 40.617188 164.820312 109.179688zm0 0" fill="#f40000" data-original="#f40000" style="" class=""/><path xmlns="http://www.w3.org/2000/svg" d="m266.738281 200.105469-11.738281-3.757813v-107.0625c72.550781-3.050781 139.464844 40.617188 164.820312 109.179688zm0 0" fill="#b20000" data-original="#b20000" style="" class=""/><path xmlns="http://www.w3.org/2000/svg" d="m428.976562 192.359375h-25.589843c-49.777344 0-99.550781-3.992187-148.386719-12.210937-46.488281-7.746094-92.269531-19.015626-137.117188-34.042969l-11.738281-3.992188-51.496093 184.542969 43.4375 27.472656c48.128906 29.816406 101.972656 44.84375 156.914062 44.84375s109.257812-15.027344 157.386719-44.84375l42.96875-27.003906zm0 0" fill="#ff3636" data-original="#ff3636" style="" class=""/><path xmlns="http://www.w3.org/2000/svg" d="m455.351562 327.125-42.964843 27.003906c-48.132813 29.816406-102.445313 44.84375-157.386719 44.84375v-218.824218c48.835938 8.21875 98.609375 12.210937 148.386719 12.210937h25.589843zm0 0" fill="#f40000" data-original="#f40000" style="" class=""/><path xmlns="http://www.w3.org/2000/svg" d="m329.191406 285.566406-62.453125 20.898438v15.027344h-23.476562v-15.027344l-62.453125-20.898438 7.511718-22.070312 54.941407 18.316406v-30.757812h23.476562v30.757812l54.941407-18.316406zm0 0" fill="#deecf1" data-original="#deecf1" style=""/><path xmlns="http://www.w3.org/2000/svg" d="m321.679688 263.496094 7.511718 22.070312-62.453125 20.898438v15.027344h-11.738281v-70.4375h11.738281v30.757812zm0 0" fill="#c6e2e7" data-original="#c6e2e7" style=""/></g></svg>
