<svg xmlns="http://www.w3.org/2000/svg" viewBox="0 0 1303 346.69" fill="#10363d"><path d="M388.64 241.05c9.03 0 16.73-2.02 23.09-6.06 6.23-3.88 11.19-9.48 14.27-16.14 6.29-13.82 6.29-29.7 0-43.52-3.09-6.64-8.05-12.24-14.27-16.12-6.36-4-14.06-6-23.09-6H373a2.22 2.22 0 0 0-2.2 2.2v83.44c0 1.22.98 2.2 2.2 2.2h0 15.64zm-51.12-113.58c0-1.22.98-2.2 2.2-2.2h52.01c14.91 0 27.91 3.25 39 9.75a66.47 66.47 0 0 1 25.46 26.07 78.15 78.15 0 0 1 0 72.16 65.71 65.71 0 0 1-25.46 26.08c-11.08 6.43-24.08 9.64-39 9.64h-52c-1.22.01-2.2-.97-2.21-2.19V127.47zm268.36 132.16c-9.51-8.53-14.51-20.32-15-35.38a2.22 2.22 0 0 1 2.13-2.29h.08H622c1.17 0 2.14.91 2.2 2.08.34 6.81 2.41 12.2 6.21 16.19 4.17 4.38 9.89 6.57 17.14 6.57 6.15 0 10.91-1.37 14.27-4.11s5.03-6.64 5-11.7c0-4.38-1.26-7.9-3.79-10.57s-7.08-5.3-13.65-7.9l-25.87-10.06c-9.58-3.56-16.83-8.66-21.76-15.29s-7.39-14.61-7.39-23.92a39.21 39.21 0 0 1 6.26-22.07c4.4-6.55 10.6-11.68 17.86-14.78 7.73-3.49 16.73-5.24 27-5.24 10.41 0 19.59 1.88 27.52 5.65a43.59 43.59 0 0 1 18.47 15.91 42.89 42.89 0 0 1 6.52 21.7c.06 1.22-.88 2.26-2.1 2.32h-.1-28.85c-1.17 0-2.13-.91-2.2-2.08-.32-5.7-2.01-10.14-5.07-13.32-3.42-3.56-8.35-5.34-14.78-5.33-5.34 0-9.54 1.26-12.63 3.79a12.7 12.7 0 0 0-4.61 10.37c-.04 3.88 1.6 7.59 4.51 10.16 3.01 2.81 8.07 5.65 15.19 8.52l23.82 9.44c9.85 3.84 17.13 9.11 21.86 15.81s7.09 14.91 7.08 24.64c.17 8.28-2.11 16.42-6.57 23.4-4.54 6.84-10.95 12.22-18.47 15.5-7.94 3.62-17.18 5.43-27.72 5.44-17.65 0-31.48-4.49-41.47-13.45m242.29-136.56H877a2.19 2.19 0 0 1 2.2 2.18v111.96a2.21 2.21 0 0 0 2.21 2.2h49a2.21 2.21 0 0 1 2.21 2.2v25.16c0 1.22-.98 2.2-2.2 2.2h-82.25a2.19 2.19 0 0 1-2.2-2.18V125.27a2.19 2.19 0 0 1 2.18-2.2m238.98 2.2h30.56a2.22 2.22 0 0 1 1.94 1.16l45.11 84.11a2.21 2.21 0 0 0 3 .88c.71-.39 1.15-1.13 1.15-1.93v-82a2.22 2.22 0 0 1 2.2-2.2h27.41c1.21-.01 2.2.98 2.21 2.19v139.31c0 1.22-.98 2.2-2.2 2.2H1168c-.83.02-1.6-.42-2-1.14l-45.12-84.11c-.57-1.07-1.91-1.48-2.98-.9-.7.38-1.15 1.1-1.16 1.9v82a2.21 2.21 0 0 1-2.21 2.2h-27.41a2.2 2.2 0 0 1-2.2-2.2V127.47c0-1.22.98-2.2 2.2-2.2m130.22 0h83.45a2.21 2.21 0 0 1 2.21 2.2v22.28a2.21 2.21 0 0 1-2.21 2.21h-50.19a2.21 2.21 0 0 0-2.21 2.2v28.23a2.21 2.21 0 0 0 2.21 2.21h50.19a2.2 2.2 0 0 1 2.21 2.19v.06 21.67c0 1.22-.98 2.2-2.2 2.2h-50.2a2.21 2.21 0 0 0-2.21 2.2v27.21c0 1.22.98 2.2 2.2 2.2h50.2a2.21 2.21 0 0 1 2.21 2.21v22.28a2.21 2.21 0 0 1-2.21 2.2h-83.45a2.2 2.2 0 0 1-2.2-2.2V127.47a2.2 2.2 0 0 1 2.2-2.2M508.42 217.3l14.2-50.18c.24-.86 1.14-1.36 2-1.12a1.62 1.62 0 0 1 1.12 1.12l14.2 50.18c.33 1.12-.32 2.3-1.45 2.63-.2.06-.4.09-.6.08h-27.42c-1.18 0-2.13-.95-2.13-2.13 0-.2.03-.4.08-.58m80.52 49.55l-47.76-140.48c-.22-.66-.84-1.1-1.53-1.1h-31.14c-.69 0-1.31.44-1.53 1.1l-47.56 140.48c-.29.85.17 1.77 1.01 2.05.17.06.34.09.52.09h31.18c.99 0 1.85-.65 2.12-1.6l6-21.28h47.82l6 21.28c.27.95 1.14 1.6 2.12 1.6h31.18c.89 0 1.62-.73 1.62-1.62 0-.18-.03-.35-.09-.52m402.7-49.55l14.2-50.18c.24-.86 1.14-1.36 2-1.12a1.62 1.62 0 0 1 1.12 1.12l14.21 50.18c.31 1.14-.35 2.32-1.49 2.63a2.18 2.18 0 0 1-.57.08h-27.42c-1.18-.03-2.11-1-2.08-2.18a1.89 1.89 0 0 1 .08-.53m80.47 49.55l-47.76-140.46c-.22-.66-.84-1.1-1.53-1.1h-31.14c-.69 0-1.31.44-1.53 1.1L942.6 266.85c-.29.85.17 1.77 1.01 2.05.17.06.35.09.53.09h31.17c.99 0 1.86-.65 2.13-1.6l6-21.28h47.81l6 21.28c.27.95 1.14 1.6 2.12 1.6h31.18c.89 0 1.62-.73 1.62-1.62 0-.18-.03-.35-.09-.52M828.6 125.27h-28.85c-1.22 0-2.2.98-2.2 2.2v53.69a2.21 2.21 0 0 1-2.21 2.21h0-45.27c-1.22 0-2.2-.98-2.2-2.2v-54.8a2.21 2.21 0 0 0-2.21-2.2h-28.85a2.22 2.22 0 0 0-2.2 2.2v140.4a2.22 2.22 0 0 0 2.2 2.2h28.85a2.21 2.21 0 0 0 2.21-2.2V214.1c0-1.22.98-2.2 2.2-2.2h0 45.27a2.21 2.21 0 0 1 2.21 2.2v52.67c0 1.22.98 2.2 2.2 2.2h0 28.85c1.22 0 2.2-.98 2.2-2.2h0v-139.3c0-1.22-.98-2.2-2.2-2.2h0m-688.97 16.89l36.45 13.38c5.89 2.08 13.06-.7 13.06-5.06V58.14c0-2.11-1.77-4-4.62-5l-36.45-13.38c-5.89-2.08-13.06.69-13.06 5v92.34c0 2.11 1.78 4.05 4.62 5.06m0 165.76l36.45 13.38c5.89 2.08 13.06-.69 13.06-5.05v-92.34c0-2.11-1.77-4.05-4.62-5.06l-36.45-13.38c-5.89-2.08-13.06.7-13.06 5.06v92.32c0 2.11 1.78 4.05 4.62 5.05m-67.5-196.62l36.45 13.38c5.89 2.08 13-.7 13-5.06V19.14c0-2.11-1.77-4.05-4.62-5.06L80.57.71c-5.9-2.08-13.06.69-13.06 5v100.51c0 2.11 1.77 4.06 4.62 5.06m0 221.33l36.45 13.38c5.89 2.08 13-.69 13-5.06v-100.2c0-2.11-1.77-4.05-4.62-5.06L80.57 222.3c-5.9-2.08-13.06.69-13.06 5.05v100.2c0 2.11 1.77 4.05 4.62 5.06m-18-309.7c0-2.11-1.78-4-4.63-5.06L13.06 4.47C7.17 2.39 0 5.17 0 9.53v314.26c0 2.11 1.77 4.06 4.62 5.06l36.45 13.39c5.89 2.07 13.06-.7 13.06-5.06V22.91zM252 106.34l-36.45-13.38c-5.89-2.08-13 .7-13 5.06v151.66c0 2.11 1.77 4.05 4.62 5.05l36.45 13.38c5.89 2.08 13.06-.69 13.06-5.05V111.4c0-2.11-1.78-4.05-4.63-5.06"/></svg>