<?xml version="1.0"?>
<svg xmlns="http://www.w3.org/2000/svg" xmlns:xlink="http://www.w3.org/1999/xlink" xmlns:svgjs="http://svgjs.com/svgjs" version="1.1" width="512" height="512" x="0" y="0" viewBox="0 0 512 512" style="enable-background:new 0 0 512 512" xml:space="preserve" class=""><g><g xmlns="http://www.w3.org/2000/svg"><g><g><g><g><g><circle cx="256" cy="256" fill="#f1f1f1" r="256" data-original="#ffce00" style="" class=""/></g></g></g></g></g><path d="m379.158 157.698-96.863-96.863s-217.345 220.467-221.46 221.461c-.106.026.038.168.42.42l93.211 93.211-17.876 36.668 98.567 98.567c6.875.555 13.826.838 20.843.838 141.385 0 256-114.615 256-256 0-7.017-.283-13.968-.836-20.842l-98.568-98.568z" fill="#f1f1f1" data-original="#ffa300" style="" class=""/><g><path d="m451.165 282.295v-52.589l-42.521-8.814c-3.953-17.258-10.758-33.429-19.892-47.99l23.843-36.311-37.186-37.187-36.312 23.843c-14.561-9.134-30.731-15.938-47.99-19.891l-8.813-42.521h-52.59l-8.813 42.521c-17.258 3.953-33.429 10.758-47.991 19.892l-36.31-23.843-37.187 37.187 23.843 36.311c-9.134 14.561-15.938 30.732-19.891 47.99l-42.52 8.813v52.589l42.521 8.814c3.953 17.258 10.758 33.428 19.892 47.989l-23.843 36.311 37.187 37.187 36.311-23.843c14.561 9.134 30.732 15.938 47.99 19.892l8.814 42.52h52.59l8.814-42.52c17.258-3.953 33.429-10.758 47.99-19.892l36.311 23.843 37.186-37.186-23.843-36.311c9.134-14.561 15.939-30.732 19.892-47.99zm-195.165 57.562c-46.313 0-83.856-37.544-83.856-83.857s37.544-83.856 83.856-83.856 83.856 37.544 83.856 83.856-37.544 83.857-83.856 83.857z" fill="#555a66" data-original="#555a66" style="" class=""/></g><g><path d="m451.165 282.294v-52.589l-42.521-8.813c-3.953-17.258-10.758-33.429-19.892-47.99l23.843-36.312-37.187-37.187-36.312 23.843c-14.561-9.134-30.731-15.938-47.99-19.892l-8.813-42.521h-26.477v111.313c.061 0 .121-.005.182-.005 46.313 0 83.856 37.544 83.856 83.856s-37.542 83.859-83.854 83.859c-.061 0-.121-.004-.182-.004v111.313h26.477l8.813-42.521c17.258-3.953 33.429-10.758 47.99-19.892l36.311 23.843 37.187-37.187-23.843-36.311c9.134-14.561 15.939-30.732 19.892-47.99z" fill="#333940" data-original="#333940" style="" class=""/></g><g><g><g><g><g><ellipse cx="256" cy="256.001" fill="#ffffff" rx="114.17" ry="114.17" transform="matrix(.991 -.131 .131 .991 -31.255 35.645)" data-original="#ffffff" style=""/></g></g></g></g></g><g><g><g><g><g><path d="m256 141.831c-.061 0-.121.002-.182.002v228.335c.061 0 .121.002.182.002 63.054 0 114.17-51.115 114.17-114.169.001-63.054-51.115-114.17-114.17-114.17z" fill="#e9edf5" data-original="#e9edf5" style=""/></g></g></g></g></g><g><path d="m239.648 290.276-19.773-22.561 21.125-18.514v-57.083h30v70.681z" fill="#555a66" data-original="#555a66" style="" class=""/></g><g><path d="m271 192.118h-15.182v83.987l15.182-13.306z" fill="#333940" data-original="#333940" style="" class=""/></g><g><g><circle cx="256" cy="162.824" fill="#dce1eb" r="15.378" data-original="#dce1eb" style=""/></g><g><path d="m256 147.445c-.061 0-.121.008-.182.009v30.738c.061 0 .12.009.182.009 8.493 0 15.378-6.885 15.378-15.378s-6.885-15.378-15.378-15.378z" fill="#bec3d2" data-original="#bec3d2" style=""/></g><g><circle cx="256" cy="349.176" fill="#dce1eb" r="15.378" data-original="#dce1eb" style=""/></g><g><path d="m256 333.798c-.061 0-.121.009-.182.009v30.738c.061 0 .12.009.182.009 8.493 0 15.378-6.885 15.378-15.378s-6.885-15.378-15.378-15.378z" fill="#bec3d2" data-original="#bec3d2" style=""/></g></g><g><g><ellipse cx="349.176" cy="256" fill="#bec3d2" rx="15.378" ry="15.378" transform="matrix(.982 -.189 .189 .982 -42.111 70.65)" data-original="#bec3d2" style=""/></g><g><ellipse cx="162.824" cy="256" fill="#dce1eb" rx="15.378" ry="15.378" transform="matrix(.997 -.083 .083 .997 -20.56 14.302)" data-original="#dce1eb" style=""/></g></g><g><g><ellipse cx="321.886" cy="190.115" fill="#bec3d2" rx="15.378" ry="15.378" transform="matrix(.851 -.526 .526 .851 -51.876 197.619)" data-original="#bec3d2" style=""/></g><g><circle cx="190.115" cy="321.886" fill="#dce1eb" r="15.378" data-original="#dce1eb" style=""/></g></g><g><g><ellipse cx="321.886" cy="321.886" fill="#bec3d2" rx="15.378" ry="15.378" transform="matrix(.646 -.763 .763 .646 -131.779 359.432)" data-original="#bec3d2" style=""/></g><g><ellipse cx="190.115" cy="190.114" fill="#dce1eb" rx="15.378" ry="15.378" transform="matrix(.646 -.763 .763 .646 -77.832 212.29)" data-original="#dce1eb" style=""/></g></g></g></g></svg>
