<svg xmlns="http://www.w3.org/2000/svg" viewBox="0 0 94 64.2" fill="#1d1d1b"><path d="M23.7 14v24.7h0l.2 4.8h-.1c-.5-1.5-1.2-2.7-2.1-4.4L7 14H.3v36.1h5.2V25.5h0l-.2-4.8h.1c.5 1.5 1.2 2.7 2.1 4.4l14.6 25.1h6.6V14h-5zm59.4 12.1c-4.3 0-7.4 2-8.9 4.9 0-7 2.4-13 8.2-13 3.7 0 5.1 2.1 5.9 5.6l5.3-1.1c-1.3-6-5.1-8.9-11.2-8.9-7.7 0-13.5 5.9-13.5 19.2 0 11.8 4.8 17.7 13.1 17.7 6.9 0 12-4.7 12-12.4 0-6-3.2-12-10.9-12zM82 46.2c-4.3 0-7.2-3.9-7.7-9.1 1.3-4.4 4.2-6.6 7.6-6.6 4.4 0 6.8 3.2 6.8 7.8 0 4.9-2.8 7.9-6.7 7.9zm-36.8-.7c2.7-1.9 6.6-5 8.4-6.7 2-2 7.6-7 7.6-14.2 0-7.5-4.9-10.9-11.4-10.9-8 0-11.9 4.9-11.9 10.5 0 .9.1 1.8.4 2.9l5.5.5c-.3-1.2-.4-2.2-.4-3.1 0-4.2 2.8-6.2 6.3-6.2 3.4 0 5.9 1.9 5.9 6.5s-2.3 7.8-5.7 11.3c-3.6 3.6-9.4 7.9-12.2 9.9v4.3h24v-4.7H45.2zM29.1 59.6v4.7H0v-4.7h29.1zm0-59.6v4.7H0V0h29.1z"/></svg>