<?xml version="1.0" encoding="utf-8"?>
<svg version="1.1" id="Layer_1" xmlns="http://www.w3.org/2000/svg" xmlns:xlink="http://www.w3.org/1999/xlink" x="0px" y="0px"
	width="100px" height="100px" viewBox="0 0 70.6 72.2" style="enable-background:new 0 0 70.6 72.2;" xml:space="preserve">
<g>
	<path style="fill:#EA4535;" d="M3.8,20.1C9.6,8.2,21.9,0,36.1,0c9.2,0,17.4,3.5,23.7,9.1L49.4,19.6c-3.8-3.1-8.4-4.8-13.3-4.8
		c-9.5,0-17.4,6.1-20.2,14.6"/>
	<path style="fill:#F9BC15;" d="M3.8,20.1C1.3,25.1,0,30.5,0,36.1C0,41.8,1.4,47.3,3.7,52l12.1-9.3c-0.7-2.2-1-4.4-1-6.6
		c0-2.3,0.3-4.6,1-6.6 M15.9,29.4l-12-9.3C3.8,20.1,15.9,29.4,15.9,29.4z"/>
	<path style="fill:#557EBF;" d="M59.7,63.2l-11.5-8.9c3.8-2.4,6.3-5.6,7.4-10.8H36.4V29.8h33.3c0.5,2.1,0.9,4.3,0.9,6.3
		C70.6,48,66.3,57.1,59.7,63.2C59.7,63.3,59.7,63.2,59.7,63.2z"/>
	<path style="fill:#36A852;" d="M59.7,63.2c-6.3,5.8-14.7,8.9-23.6,8.9C21.8,72.2,9.6,64,3.7,52l12.1-9.3
		c2.8,8.6,10.7,14.7,20.2,14.7c4.6,0,8.7-1.2,12-3.1C48.2,54.2,59.7,63.2,59.7,63.2L59.7,63.2z"/>
</g>
</svg>
