<?xml version="1.0" encoding="utf-8"?>
<svg version="1.1" id="Layer_1" xmlns="http://www.w3.org/2000/svg" xmlns:xlink="http://www.w3.org/1999/xlink" x="0px" y="0px"
	width="100px" height="100px" viewBox="0 0 66.7 66.7" style="enable-background:new 0 0 66.7 66.7;" xml:space="preserve">
<g>
	<circle style="fill:#E8E8E8;" cx="33.3" cy="33.3" r="33.3"/>
	<circle style="fill:#FFFFFF;" cx="33.3" cy="33.3" r="32.7"/>
	<g>
		<path style="fill:#58595B;" d="M15.1,35.4L15.1,35.4L15.1,35.4c0-0.1-0.1-0.1-0.1-0.1c0,0,0-0.1-0.1-0.1c0,0-0.1-0.1-0.1-0.1h-0.1
			h-0.1h-0.1c-0.1,0-0.1,0.1-0.1,0.1v0.1v0.1v0.1v0.1v0.1v0.3v0.1v0.2v0.1v0.2v0.1v0.1V37h0.2c0.1,0,0.1-0.1,0.2-0.1
			c0.1-0.1,0.2-0.1,0.3-0.2l0.1-0.1c0,0,0-0.1,0.1-0.1l0.1-0.1v-0.1v-0.1v-0.1c0-0.1,0,0,0,0v-0.1c0-0.1,0-0.1-0.1-0.1v-0.1l0.2-0.2
			v-0.1l-0.1-0.1L15.1,35.4L15.1,35.4L15.1,35.4L15.1,35.4z M15.6,36.4c0,0.1-0.1,0.1-0.1,0.1l0,0l0,0l0,0l0,0l0,0l0,0l-0.1,0.1
			c0,0.1-0.1,0.1-0.1,0.1c-0.1,0-0.1,0.1-0.2,0.1c-0.1,0-0.1,0.1-0.1,0.1L14.9,37c0,0-0.1,0-0.1,0.1h-0.1h-0.1h-0.1h-0.1h-0.1
			c-0.1,0-0.1,0-0.1-0.1v-0.1c0-0.1-0.1-0.1-0.1-0.1v-0.1c0-0.1-0.1-0.2-0.1-0.3v-0.1v-0.1v-0.1V36c0-0.1-0.1-0.1-0.1-0.2v-0.1v-0.1
			v-0.1v-0.1v-0.1v-0.1c0,0,0-0.1,0.1-0.1c0,0,0-0.1,0.1-0.1h0.1h0.1h0.2c0.1,0,0.1,0,0.1,0.1l0.1,0.1h0.1H15c0.1,0,0.1,0,0.2,0.1
			c0.1,0,0.1,0.1,0.2,0.1h0.1l0,0h0.1l0,0c0,0.1,0.1,0.1,0.1,0.1v0.1c0.1,0.1,0.1,0.1,0.1,0.2c0,0.1,0.1,0.1,0.1,0.2V36
			c0,0.1-0.1,0.1-0.1,0.1v0.1l0,0C15.6,36.3,15.6,36.3,15.6,36.4 M16.7,36.2L16.7,36.2c-0.1-0.1-0.1-0.1-0.1-0.1L16.3,36
			c0,0-0.1,0-0.1,0.1h-0.1c-0.1,0.1-0.1,0.1-0.1,0.2c0,0.1,0,0.1,0.1,0.2l0.1,0.1h0.2c0.1,0,0.1-0.1,0.1-0.1l0,0v-0.1L16.7,36.2
			L16.7,36.2 M16.7,36.6C16.7,36.7,16.7,36.7,16.7,36.6c-0.1,0.1-0.1,0.1-0.1,0.1h-0.1h-0.1h-0.1h-0.1c-0.1,0-0.1,0-0.2-0.1l0,0
			c-0.1-0.1-0.1-0.1-0.1-0.3c0-0.1,0.1-0.2,0.1-0.3h0.1c0,0,0-0.1,0.1-0.1l0,0c0,0,0-0.1,0.1-0.1h0.2c0.1,0,0.3,0.1,0.3,0.1l0.1,0.1
			l0.1,0.1l0,0v0.2C16.9,36.4,16.8,36.5,16.7,36.6 M17.8,36.3L17.8,36.3c0-0.1-0.1-0.1-0.1-0.2h-0.1h-0.1l0,0h-0.1h-0.1
			c-0.1,0.1-0.1,0.1-0.1,0.2v0.1v0.1c0,0.1,0.1,0.3,0.2,0.3h0.1h0.1c0,0,0.1,0,0.1-0.1c0,0,0.1,0,0.1-0.1v-0.2
			C17.8,36.3,17.8,36.3,17.8,36.3 M18.1,37.3v0.2c0,0.1-0.1,0.1-0.1,0.1v0.1c0,0.1-0.1,0.1-0.1,0.1s-0.1,0.1-0.1,0.1
			c0,0,0,0.1-0.1,0.1c0,0-0.1,0-0.1,0.1l-0.1,0.1h-0.1h-0.1c0,0-0.1,0-0.1-0.1h-0.1l-0.1-0.1c-0.1-0.1-0.2-0.1-0.2-0.2v-0.1h0.1
			c0.1,0,0.1,0.1,0.1,0.1c0.1,0,0.1,0.1,0.1,0.1h0.1h0.1h0.1c0.1,0,0.2-0.1,0.2-0.3v-0.1v-0.1v-0.1l0,0v-0.1v-0.1l0,0v-0.1v-0.1
			v-0.1c0,0,0.1-0.1,0-0.1l0,0l0,0l0,0h-0.1h-0.1h-0.1h-0.1h-0.1c-0.1,0-0.1-0.1-0.1-0.1c0-0.1-0.1-0.2-0.1-0.3v-0.1
			c0,0,0.1-0.2,0.1-0.3l0.1-0.1l0,0l0.1-0.1c0.1-0.1,0.1-0.1,0.3-0.1h0.1c0.1,0,0.1,0.1,0.1,0.1v-0.1v-0.1c0-0.1,0-0.2,0.1-0.2h0.1
			c0.1,0,0.1,0.1,0.1,0.2V36c0,0.1-0.1,0.1,0.1,0.1v0.1v0.2v0.1v0.1v0.2v0.1v0.1v0.1V37v0.1C18.1,37.1,18.1,37.2,18.1,37.3
			 M20.9,35.9L20.9,35.9L20.9,35.9c-0.1,0.1-0.1,0.1-0.1,0.1s-0.1,0-0.1,0l-0.1,0.1c-0.1,0-0.1,0.1-0.1,0.1v0.1v0.1v0.1
			c0,0.1-0.1,0.1-0.1,0.2v0.1c0,0.1-0.1,0.1-0.1,0.1c-0.1,0-0.1,0.1-0.1,0.1h-0.1c-0.1,0,0,0,0,0h-0.1h-0.1h-0.2c0,0-0.1,0-0.1-0.1
			h-0.1l-0.1-0.1l0,0c0-0.1-0.1-0.1-0.1-0.1v-0.1l-0.1-0.1c-0.1-0.1,0-0.1,0-0.1v-0.1l0,0v-0.1v-0.1v-0.1V36v-0.1v-0.1l0.3-0.3
			c0.1,0,0.1-0.1,0.1-0.1l0.1-0.1c0-0.1-0.1-0.1-0.1-0.2v-0.1l0.1-0.1c0-0.1,0.1-0.1,0.2-0.1c0,0,0.1,0,0.1,0.1l0,0l0,0l0.1,0.1v0.1
			v0.1c0,0.1,0,0.1-0.1,0.1h-0.1v-0.1c0-0.1-0.1-0.1-0.1-0.1c-0.1,0-0.1,0-0.2,0.1c0,0.1,0,0.1,0.1,0.2c0,0,0.1,0.1,0.1,0.1h0.1v0.1
			c0,0.1-0.1,0.1-0.1,0.1c-0.1,0-0.1-0.1-0.2-0.1c-0.1,0-0.1,0-0.1,0.1c0,0-0.1,0-0.1,0.1s-0.1,0.1-0.1,0.1
			c-0.1,0.1-0.1,0.1-0.1,0.3v0.1v0.1v0.1l0,0c0,0.1,0.1,0.1,0.1,0.1s0.1,0.1,0.2,0.2c0,0,0.1,0.1,0.1,0.1h0.1c0.1,0,0.2,0,0.3-0.1
			c0.1,0,0.1-0.1,0.1-0.1l0.1-0.1v-0.1v-0.1c0,0,0-0.1-0.1-0.1c-0.1-0.1-0.1-0.1-0.1-0.1l0,0c-0.1,0-0.2,0.1-0.3,0.1h-0.1
			c-0.1,0-0.1,0-0.1-0.1V36c0,0,0.1-0.1,0.1-0.1h0.1h0.1c0.1,0,0.1-0.1,0.2-0.1c0.1,0,0.1,0.1,0.2,0.1c0,0,0.2-0.1,0.3-0.1l0,0
			c0,0,0.1,0,0.1-0.1c0,0,0.1-0.1,0.1-0.1l0,0v-0.1l-0.1-0.1l0,0l0,0v-0.1v-0.1h0.1H21c0,0,0.1,0.1,0.1,0.2v0.1v0.1L20.9,35.9
			 M27.3,35.1c-0.1,0-0.1-0.1-0.1-0.1s-0.1-0.1-0.1-0.1v-0.1l0,0l0,0l0,0h-0.1c-0.1,0-0.1,0.1-0.1,0.1c-0.1,0.1-0.1,0.1-0.1,0.2v0.1
			v0.1c0,0.1,0,0.2,0.1,0.3l0.1,0.1h0.1h0.1c0.1,0,0.1-0.1,0.1-0.1s0.1,0.1,0.1,0.1c-0.1,0.1-0.1,0-0.2,0h-0.1H27h-0.1
			c-0.1,0-0.1,0.1-0.1,0.1v0.1V36c0,0.1,0,0.2,0.1,0.3v0.2v0.1c0,0,0,0.1-0.1,0.1h-0.1h-0.1c-0.1,0-0.1-0.1-0.1-0.1v0.1
			c0-0.1-0.1-0.1-0.1-0.3v-0.1v-0.1v-0.1V36v-0.1v-0.1v-0.1c0,0-0.1-0.1-0.1,0.1h-0.1h-0.1c-0.1,0-0.1-0.1-0.1-0.1
			c0-0.1,0.1-0.1,0.1-0.1h0.2h0.1v-0.1v-0.1c0-0.1,0.1-0.4,0.1-0.5c0,0,0-0.1,0.1-0.1l0.1-0.1c0.1-0.1,0.1-0.1,0.2-0.1h0.1h0.1h0.1
			h0.1l0,0h0.1c0,0,0,0.1,0.1,0.1c0,0.1,0.1,0.1,0.1,0.1L27.3,35.1 M29.1,36.2c-0.1-0.1-0.2-0.1-0.3-0.1h-0.1
			c-0.1,0-0.1,0.1-0.1,0.1l-0.1,0.1c0,0.1,0.1,0.2,0.1,0.3h0.1H29c0.1,0,0.1-0.1,0.2-0.1l0,0C29.1,36.3,29.1,36.3,29.1,36.2
			L29.1,36.2z M29.3,36.4c0,0.1-0.1,0.1-0.1,0.1v0.1c0,0-0.1,0.1-0.1,0.1l0,0h-0.1h-0.1h-0.1c-0.1,0-0.1-0.1-0.1-0.1
			s-0.1-0.1-0.1-0.1s0-0.1-0.1-0.1c0,0-0.1,0-0.1-0.1v-0.1v-0.1v-0.2l0.1-0.1v-0.1l0.1-0.1l0.1-0.1h0.1h0.1h0.1H29h0.1
			c0.1,0.1,0,0.1,0.1,0.1l0,0v0.2L29.3,36.4 M28.1,36.1C28.1,36.1,28.1,36.1,28.1,36.1C28,36,27.9,36,27.9,36c0,0,0-0.1-0.1-0.1
			h-0.1c-0.1,0-0.1,0.1-0.3,0.2l0,0v0.2c0,0.1,0,0.2,0.1,0.3v0.1l0.1,0.1c0,0,0.1,0.1,0.1,0.1h0.1l0.1-0.1c0-0.1,0.1-0.1,0.1-0.1
			v-0.1C28.1,36.3,28.1,36.3,28.1,36.1C28.1,36.2,28.1,36.2,28.1,36.1 M28.3,36.3C28.3,36.3,28.3,36.4,28.3,36.3L28.3,36.3v0.1
			l-0.1,0.1v0.1c0,0.1-0.1,0.1-0.2,0.1l0,0h-0.1h-0.3c0,0-0.1,0-0.1-0.1c0,0-0.1,0-0.1-0.1c-0.1-0.1-0.2-0.2-0.2-0.3v-0.1v-0.1
			c0-0.1,0-0.1,0.1-0.1c0,0,0-0.1,0.1-0.1c0,0,0-0.1,0.1-0.1c0,0,0.1-0.1,0.1-0.1c0.1-0.1,0.1-0.1,0.2-0.1h0.1h0.1
			c0.1,0,0.2,0.1,0.3,0.1l0,0l0.1,0.1c0,0,0.1,0.1,0.1,0.2v0.1C28.2,36.3,28.3,36.3,28.3,36.3C28.3,36.3,28.3,36.3,28.3,36.3
			 M30.1,36.1C30.1,36,30.1,36,30.1,36.1L30.1,36.1L29.9,36l0,0c-0.1,0-0.1,0-0.2,0.1v0.1v0.1c0,0.1,0,0.1,0.1,0.1v0.1l0.1,0.1H30
			c0.1,0,0.2,0,0.2-0.1v-0.1C30.2,36.3,30.2,36.1,30.1,36.1 M30.6,35.1v0.3v0.1v0.1v0.1v0.3v0.1V36v0.1v0.1v0.1v0.1v0.2v0.1
			c0,0.1,0,0.2-0.1,0.3h-0.1c0,0-0.1-0.1-0.1-0.1v-0.1c0,0,0,0.1,0-0.1l0,0l-0.1,0.1h-0.1H30l-0.1-0.1h-0.1l-0.1-0.1
			c-0.1,0-0.1-0.1-0.1-0.1c-0.1-0.1-0.1-0.1-0.1-0.2c0-0.1,0.1-0.1,0.1-0.2v-0.1c0-0.1,0.1-0.1,0.1-0.1h0.1h0.1h0.1
			c0.1,0,0.1,0.1,0.1,0.1h0.1c0.1,0,0.1,0.1,0.1,0.1c0.1-0.1,0.1-0.1,0.1-0.2l0.1-0.5c0-0.1,0.1-0.1,0.1-0.1v-0.1v-0.1
			c0-0.1,0-0.3,0.1-0.3s0.1,0.1,0.1,0.1C30.6,35,30.6,35.1,30.6,35.1 M32.2,36.3c-0.1-0.1-0.2-0.1-0.3-0.1s-0.1,0-0.1,0.1
			s0,0.1,0.1,0.1H32h0.1C32.2,36.5,32.1,36.5,32.2,36.3L32.2,36.3C32.3,36.4,32.2,36.4,32.2,36.3 M32.5,36.1c0,0.1-0.1,0.1-0.1,0.1
			v0.1v0.1v0.1v0.1v0.1v0.1c0,0.1,0,0.1-0.1,0.1v0.1c0,0.1-0.1,0.1-0.1,0.1s-0.1-0.1-0.1-0.1v-0.1l0,0v-0.1v-0.1h-0.1
			c-0.1,0-0.1,0.1-0.1,0.1h-0.1h-0.1l0,0c-0.1,0-0.2-0.1-0.2-0.2v-0.1c0-0.1,0-0.1,0.1-0.1v-0.1h0.1c0.1-0.1,0.1-0.1,0.2-0.1H32
			c0.1,0,0.1,0,0.1,0.1h0.1l0,0h0.1v-0.1V36c0-0.1-0.1-0.3-0.1-0.3l0,0c-0.1,0-0.1,0.1-0.2,0.1c-0.1,0.1-0.1,0.1-0.2,0.1h-0.1v-0.1
			c0-0.1,0.1-0.1,0.1-0.2h0.1l0,0h0.1c0.1,0,0.1-0.1,0.2-0.1h0.1c0.1,0,0.1,0.1,0.1,0.1C32.5,35.8,32.5,35.9,32.5,36.1
			C32.5,36,32.5,36.1,32.5,36.1"/>
		<path style="fill:#58595B;" d="M33.4,35.9c-0.1,0,0-0.1-0.2-0.1c-0.1,0-0.1,0.1-0.1,0.1s0,0.1,0.1,0.2v0.1c0,0.1,0.1,0.1,0.1,0.1
			v0.1l0.1,0.1v0.1v0.1v0.1c0,0.1,0,0.1-0.1,0.2c0,0,0,0.1-0.1,0.1h-0.1L33,37l0,0c0,0-0.1,0-0.1,0.1h-0.1l-0.1-0.1V37l0,0v-0.1
			h-0.1v-0.1c0,0,0-0.1,0.1-0.1h0.1v0.1c0,0.1,0.1,0.1,0.1,0.1s0.1,0,0.1-0.1c0.1-0.1,0.1-0.1,0.1-0.2v-0.1l0,0L33,36.5
			c0-0.1,0-0.1-0.1-0.2c0-0.1-0.1-0.1-0.1-0.1c-0.1-0.1-0.1-0.1-0.1-0.2c0-0.1,0.1-0.2,0.1-0.3l0,0l0.1-0.1h0.1
			C33.2,35.6,33.3,35.7,33.4,35.9C33.5,35.8,33.5,35.9,33.4,35.9 M35.9,36.8c0,0.1-0.1,0.1-0.1,0.1s-0.1,0-0.2-0.1v-0.1v-0.2v-0.1
			v-0.1v-0.1v-0.1V36v-0.1c0,0,0-0.1-0.1-0.1c0-0.1,0-0.1-0.1-0.1l0,0c-0.1,0-0.2,0.1-0.3,0.2c0,0-0.1,0.1-0.1,0.1s-0.1,0-0.1,0.1
			v0.1v0.1v0.1v0.2v0.1v0.2c0,0.1-0.1,0.1-0.1,0.1s-0.1,0-0.1-0.1v-0.1v-0.1v-0.1l-0.1-0.1v-0.1v-0.1V36c0-0.1,0-0.2,0.1-0.2
			s0.1,0.1,0.1,0.1c0,0.1,0,0.2,0.1,0.3c0.1,0,0.1-0.1,0.1-0.1l0.1-0.1c0,0,0-0.1,0.1-0.1l0.1-0.1h0.1l0.1-0.1h0.1
			c0.1,0,0.1,0.1,0.1,0.1v0.1l0.1,0.1V36c0.1,0.1,0.1,0.3,0.1,0.5v0.1L35.9,36.8 M36.5,36.3c-0.1-0.1-0.2-0.1-0.3-0.1
			s-0.1,0-0.1,0.1s0,0.1,0.1,0.1h0.1h0.1C36.5,36.5,36.5,36.5,36.5,36.3L36.5,36.3C36.6,36.4,36.6,36.4,36.5,36.3 M36.9,36.1v0.1
			v0.1v0.1v0.1v0.1v0.1v0.1v0.1v0.1c0,0.1-0.1,0.1-0.1,0.1s-0.1-0.1-0.1-0.1v-0.1l0,0v-0.1v-0.1h-0.1c-0.1,0-0.1,0.1-0.1,0.1h-0.1
			h-0.1l0,0c-0.1,0-0.2-0.1-0.2-0.2v-0.1c0-0.1,0.1-0.1,0.1-0.1c0,0,0-0.1,0.1-0.1h0.1c0.1-0.1,0.1-0.1,0.2-0.1h0.1
			c0.1,0,0.1,0,0.1,0.1h0.1l0,0h0.1L36.9,36.1L36.9,36.1c-0.1-0.1-0.1-0.3-0.2-0.3l0,0c-0.1,0-0.1,0.1-0.2,0.1
			c-0.1,0.1-0.1,0.1-0.2,0.1h-0.1v-0.1c0-0.1,0.1-0.1,0.1-0.2h0.1l0,0h0.1c0.1,0,0.1-0.1,0.2-0.1h0.1c0.1,0,0.1,0.1,0.1,0.1
			C36.9,35.8,36.9,35.9,36.9,36.1C36.9,36,36.9,36.1,36.9,36.1 M37.9,35.8L37.9,35.8c-0.1,0-0.2,0-0.3,0.1V36v0.1v0.3v0.1v0.1v0.1
			v0.1v0.1v0.2c0,0.1-0.1,0.1-0.1,0.1S37.4,37,37.3,37v-0.1v-0.3v-0.1v-0.1v-0.1v-0.3V36v-0.1v-0.1c0-0.1-0.1-0.1-0.1-0.1h-0.1h-0.1
			h-0.1c0-0.1,0.3,0,0.4-0.1l0,0v-0.1v-0.1v-0.1v-0.1v-0.1c0-0.1,0-0.1,0.1-0.1h0.1l0,0l0,0l0.1,0.1l0.1,0.3v0.1v0.1
			C37.7,35.7,37.8,35.7,37.9,35.8L37.9,35.8L37.9,35.8l0.1-0.1c0.1,0,0.1,0.1,0.1,0.1L37.9,35.8 M39.2,36.8L39.2,36.8
			c-0.1,0-0.2,0-0.2-0.1v-0.1l0,0v-0.1v-0.1c-0.1,0-0.1,0.1-0.1,0.1c0,0-0.1,0-0.1,0.1c0,0,0,0.1-0.1,0.1c0,0.1-0.1,0.1-0.1,0.1
			l-0.1,0.1h-0.1h-0.1l-0.1-0.1h-0.1h-0.1v-0.1v-0.1v-0.1v-0.2v-0.1v-0.1v-0.1v-0.2c0-0.1,0-0.2,0.1-0.2s0.1,0.1,0.1,0.2v0.1v0.1
			v0.1v0.2l0,0v0.1v0.1c0,0.1,0,0.1,0.1,0.1s0.1-0.1,0.1-0.1c0.1,0,0.1-0.1,0.1-0.1c0,0,0-0.1,0.1-0.1c0.1-0.1,0.1-0.1,0.1-0.2
			c0,0,0-0.1,0.1-0.1v-0.1V36v-0.1c0-0.1,0.1-0.1,0.1-0.1c0.1,0,0.2,0.2,0.2,0.3v0.1c0,0.1,0.1,0.2,0.1,0.3v0.1v0.1
			C39.3,36.7,39.3,36.8,39.2,36.8 M40.2,35.9L40.2,35.9c-0.1,0-0.2,0.1-0.3,0.2c0,0.1-0.1,0.1-0.1,0.1v0.1v0.1v0.2v0.1v0.1
			c0,0-0.1,0.1-0.1,0.1h-0.1c-0.1-0.1,0-0.2-0.1-0.3v-0.1l0,0v-0.1l0,0l-0.1-0.1v-0.1v-0.1v-0.1v-0.1L39.4,36v-0.2v-0.1h0.1
			c0,0,0.1,0,0.1,0.1c0.1,0.1,0.1,0.2,0.1,0.2s0.1-0.1,0.1-0.1l0.1-0.1c0.1-0.1,0.1-0.1,0.3-0.1C40.2,35.7,40.3,35.8,40.2,35.9
			C40.3,35.9,40.3,35.9,40.2,35.9 M40.9,35.9L40.9,35.9h-0.1c-0.1,0-0.1,0.1-0.1,0.1v0.1v0.1c0,0.1,0.1,0.1,0.1,0.1h0.1h0.1
			c0,0,0.1,0,0.1-0.1S41,36,40.9,35.9 M41.1,36.8L41.1,36.8c-0.1,0.1-0.2,0.1-0.2,0.1h-0.1h-0.1h-0.1l-0.1-0.1h-0.1l-0.1-0.1
			c-0.1-0.1-0.1-0.1-0.1-0.3v-0.1l0.1-0.2l0,0l0,0c0,0,0.1-0.1,0.2-0.1c0.1-0.1,0.1-0.1,0.2-0.1h0.1c0,0,0.1,0.1,0.2,0.1v0.1
			c0,0.1,0.1,0.1,0.1,0.1v0.1l-0.1,0.1h-0.1H41h-0.3c-0.1,0-0.1,0-0.1,0.1v0.1c0,0.1,0.1,0.1,0.1,0.2h0.1h0.1c0.1,0,0.2-0.1,0.2-0.1
			l0,0l0,0l0.1-0.1c0.1,0,0.1,0.1,0.1,0.1S41.1,36.7,41.1,36.8 M42.6,36.9C42.5,36.9,42.5,36.9,42.6,36.9c-0.1-0.1-0.1-0.2-0.1-0.3
			c0,0-0.1,0-0.1-0.1v-0.1v-0.2v-0.1v-0.1v-0.3c0-0.1,0-0.1,0.1-0.1c0,0,0.1,0,0.1,0.1v0.1v0.1v0.2v0.1v0.1c0,0.1,0.1,0.2,0.1,0.3
			l0,0l0,0v0.1C42.7,36.9,42.6,36.9,42.6,36.9 M42.5,35.4C42.5,35.4,42.4,35.4,42.5,35.4h-0.1l-0.1-0.1c0-0.1,0.1-0.1,0.1-0.1
			S42.5,35.3,42.5,35.4L42.5,35.4C42.6,35.3,42.5,35.4,42.5,35.4"/>
		<path style="fill:#58595B;" d="M44.3,36.8c0,0.1-0.1,0.1-0.1,0.1s-0.1,0-0.2-0.1v-0.1v-0.2v-0.1v-0.1v-0.1v-0.1V36v-0.1
			c0,0,0-0.1-0.1-0.1c0,0,0-0.1-0.1-0.1l0,0c-0.1,0-0.2,0.1-0.3,0.2c0,0-0.1,0.1-0.1,0.1s-0.1,0-0.1,0.1v0.1v0.1v0.1v0.2v0.1v0.2
			c0,0.1-0.1,0.1-0.1,0.1s-0.1,0-0.1-0.1v-0.1v-0.1v-0.1l-0.1-0.1v-0.1v-0.1V36c0-0.1,0-0.2,0.1-0.2s0.1,0.1,0.1,0.1
			c0,0.1,0,0.2,0.1,0.3c0.1,0,0.1-0.1,0.1-0.1l0.1-0.1c0,0,0-0.1,0.1-0.1l0.1-0.1h0.1l0.1-0.1H44c0.1,0,0.1,0.1,0.1,0.1v0.1l0.1,0.1
			V36c0.1,0.1,0.1,0.3,0.1,0.5v0.1L44.3,36.8 M45.1,35.8L45.1,35.8c-0.1,0-0.2,0-0.3,0.1V36v0.1v0.3v0.1v0.1c0,0,0,0.1,0.1,0.1v0.1
			v0.1v0.2c0,0.1-0.1,0.1-0.1,0.1S44.7,37,44.7,37v-0.1v-0.3v-0.1v-0.1v-0.1v-0.3V36l-0.1-0.1v-0.1c0-0.1-0.1-0.1-0.1-0.1h-0.1h-0.1
			h-0.1h-0.1c0-0.1,0.3,0,0.4-0.1l0,0v-0.1v-0.1v-0.1v-0.1v-0.1c0-0.1,0-0.1,0.1-0.1h0.1l0,0l0,0l0.1,0.1c0,0.1,0,0.2,0.1,0.3v0.1
			v0.1c0,0.1,0.1,0.1,0.1,0.1L45.1,35.8L45.1,35.8L45.1,35.8c0.1-0.1,0.1,0,0.1,0S45.2,35.8,45.1,35.8 M45.9,35.9L45.9,35.9h-0.1
			c-0.1,0-0.1,0.1-0.1,0.1v0.1v0.1c0,0.1,0.1,0.1,0.1,0.1h0.1h0.1c0,0,0.1,0,0.1-0.1C46,36.1,45.9,36,45.9,35.9 M46.1,36.8
			L46.1,36.8c-0.1,0.1-0.2,0.1-0.2,0.1h-0.1h-0.1h-0.1l-0.1-0.1h-0.1l-0.1-0.1c-0.1-0.1-0.1-0.1-0.1-0.3v-0.1c0,0,0.1-0.2,0.1-0.2
			l0,0l0,0l0.1-0.1c0.1-0.1,0.1-0.1,0.2-0.1h0.1l0.2,0.1v0.1c0,0.1,0.1,0.1,0.1,0.1v0.1l-0.1,0.1H46h-0.1h-0.3c-0.1,0-0.1,0-0.1,0.1
			v0.1c0,0.1,0.1,0.1,0.1,0.2h0.1h0.1c0.1,0,0.2-0.1,0.3-0.1l0,0l0,0c0,0,0.1-0.1,0.1-0.1s0.1,0.1,0.1,0.1S46.1,36.7,46.1,36.8
			 M47.7,36.8c0,0.1-0.1,0.1-0.1,0.1s-0.1,0-0.2-0.1v-0.1v-0.2v-0.1v-0.1v-0.1v-0.1V36c0-0.1-0.1,0-0.1-0.1c0,0,0-0.1-0.1-0.1
			c0,0,0-0.1-0.1-0.1l0,0c-0.1,0-0.2,0.1-0.3,0.2c0,0-0.1,0.1-0.1,0.1s-0.1,0-0.1,0.1v0.1v0.1v0.1v0.2v0.1v0.2
			c0,0.1-0.1,0.1-0.1,0.1s-0.1,0-0.1-0.1v-0.1v-0.1v-0.1l-0.1-0.1v-0.1v-0.1V36c0-0.1,0-0.2,0.1-0.2s0.1,0.1,0.1,0.1
			c0,0.1,0,0.2,0.1,0.3c0.1,0,0.1-0.1,0.1-0.1l0.1-0.1c0,0,0-0.1,0.1-0.1l0.1-0.1h0.1l0.1-0.1h0.1c0.1,0,0.1,0.1,0.1,0.1v0.1
			l0.1,0.1V36c0.1,0.1,0.1,0.3,0.1,0.5v0.1L47.7,36.8L47.7,36.8 M48.6,36.1C48.6,36,48.5,36,48.6,36.1L48.6,36.1L48.4,36l0,0
			c-0.1,0-0.1,0-0.2,0.1v0.1v0.1c0,0.1,0,0.1,0.1,0.1v0.1l0.1,0.1h0.1c0.1,0,0.2,0,0.2-0.1v-0.1C48.6,36.3,48.6,36.1,48.6,36.1
			 M49,35.1v0.3v0.1v0.1c0,0.1-0.1,0.1-0.1,0.1v0.3v0.1V36v0.1v0.1v0.1v0.1v0.2v0.1c0,0.1,0,0.2-0.1,0.3h-0.1c0,0-0.1-0.1-0.1-0.1
			v-0.1c0,0,0,0.1,0-0.1l0,0l-0.1,0.1h-0.1h-0.1l-0.1-0.1h-0.1L48,36.6c-0.1,0-0.1-0.1-0.1-0.1c-0.1-0.1-0.1-0.1-0.1-0.2
			c0-0.1,0.1-0.1,0.1-0.2v-0.1c0-0.1,0.1-0.1,0.2-0.1h0.1h0.1h0.1c0.1,0,0.1,0.1,0.1,0.1h0.1c0.1,0,0.1,0.1,0.1,0.1
			c0.1-0.1,0.1-0.1,0.1-0.2l0.1-0.5c0-0.1,0.1-0.1,0.1-0.1v-0.1v-0.1c0-0.1,0-0.3,0.1-0.3S49,34.9,49,35.1L49,35.1 M49.8,35.9h-0.1
			h-0.1c-0.1,0-0.1,0.1-0.1,0.1v0.1v0.1c0,0.1,0.1,0.1,0.1,0.1h0.1h0.1c0,0,0.1,0,0.1-0.1V35.9 M49.9,36.8L49.9,36.8
			c-0.1,0.1-0.2,0.1-0.2,0.1h-0.1h-0.1h-0.1l-0.1-0.1h-0.1l-0.1-0.1c-0.1-0.1-0.1-0.1-0.1-0.3v-0.1l0.1-0.2l0,0l0,0
			c0,0,0.1-0.1,0.2-0.1c0.1-0.1,0.1-0.1,0.2-0.1h0.1c0,0,0.1,0.1,0.2,0.1v0.1c0,0.1,0.1,0.1,0.1,0.1v0.1l-0.1,0.1h-0.1h-0.1h-0.3
			c-0.1,0-0.1,0-0.1,0.1v0.1c0,0.1,0.1,0.1,0.1,0.2h0.1h0.1c0.1,0,0.2-0.1,0.2-0.1l0,0l0,0l0.1-0.1c0.1,0,0.1,0.1,0.1,0.1
			S50,36.7,49.9,36.8 M50.9,36.1C50.9,36,50.9,36,50.9,36.1L50.9,36.1L50.7,36l0,0c-0.1,0-0.1,0-0.2,0.1v0.1v0.1
			c0,0.1,0,0.1,0.1,0.1v0.1l0.1,0.1h0.1c0.1,0,0.2,0,0.2-0.1v-0.1C51,36.3,50.9,36.1,50.9,36.1 M51.3,35.1v0.3v0.1v0.1v0.1
			c0,0.1-0.1,0.2-0.1,0.3l-0.1,0.1V36l0,0v0.1v0.1v0.1v0.2v0.1c0,0.1,0,0.2-0.1,0.3H51c0,0-0.1-0.1-0.1-0.1v-0.1c0,0,0,0.1,0-0.1
			l0,0l-0.1,0.1h-0.1h-0.1l-0.1-0.1h-0.1l-0.1-0.1c-0.1,0-0.1-0.1-0.1-0.1c-0.1-0.1-0.1-0.1-0.1-0.2c0-0.1,0.1-0.1,0.1-0.2v-0.1
			c0-0.1,0.1-0.1,0.2-0.1h0.1h0.1h0.1c0.1,0,0.1,0.1,0.1,0.1h0.1c0.1,0,0.1,0.1,0.1,0.1c0.1-0.1,0.1-0.1,0.1-0.2l0.1-0.5
			c0-0.1,0.1-0.1,0.1-0.1v-0.1L51.3,35.1c-0.1,0-0.1-0.2,0-0.2S51.4,34.9,51.3,35.1C51.3,35,51.3,35.1,51.3,35.1 M24.2,36.1v0.1v0.1
			c0,0.1-0.1,0.1-0.1,0.1v0.1v0.1v0.1v0.1v0.1v0.1c0,0.1-0.1,0.1-0.1,0.1c-0.1,0-0.1-0.1-0.1-0.1v-0.1l0,0c0.1-0.1,0.1-0.1,0.1-0.1
			v-0.1h-0.1h-0.1h-0.1l0,0c-0.1,0-0.2-0.1-0.2-0.2l0,0c0-0.1,0-0.1,0.1-0.1c0,0,0-0.1,0.1-0.1h0.1c0.1-0.1,0.1-0.1,0.2-0.1h0.1
			l0.1,0.1h0.1l0,0h0.1L24.2,36.1l0-0.1c0-0.1-0.1-0.3-0.1-0.3l0,0c-0.1,0-0.1,0.1-0.2,0.1l-0.1,0.1h-0.1v-0.1
			c0-0.1,0.1-0.1,0.1-0.1h0.1l0,0h0.1c0.1,0,0.1-0.1,0.2-0.1h0.1c0.1,0,0.1,0.1,0.1,0.1C24.1,35.8,24.2,35.9,24.2,36.1L24.2,36.1
			 M23.8,36.4c-0.1-0.1-0.2-0.1-0.3-0.1s-0.1,0-0.1,0.1s0,0.1,0.1,0.1h0.1h0.1C23.7,36.5,23.8,36.5,23.8,36.4L23.8,36.4
			C23.9,36.5,23.9,36.4,23.8,36.4"/>
		<path style="fill:#58595B;" d="M25.1,35.9L25.1,35.9c-0.1,0-0.2,0-0.2,0.1v0.1v0.1v0.2l0.1,0.1v0.1v0.1v0.1v0.1v0.2
			c0,0.1-0.1,0.1-0.1,0.1S24.8,37,24.8,37v-0.1v-0.3v-0.1v-0.1v-0.1v-0.2V36v-0.1v-0.1c0-0.1-0.1-0.1-0.1-0.1h-0.1h-0.1h-0.1h-0.1
			c0-0.1,0.3,0,0.3-0.1l0,0v-0.1v-0.1v-0.1v-0.1v-0.1c0-0.1,0-0.1,0.1-0.1c0,0,0.1-0.1,0.1,0.1l0,0l0,0l0.1,0.1v0.3v0.1v0.1
			C25,35.7,25.1,35.8,25.1,35.9l0.1-0.1h0.1l0.1-0.1c0.1,0,0.1,0.1,0.1,0.1C25.2,35.9,25.1,35.9,25.1,35.9 M22.1,36
			c0-0.1,0-0.1,0.1-0.2c0.1-0.1,0.1-0.1,0.1-0.2v-0.1c0-0.1,0.1-0.1,0.1-0.1l0,0l0.1-0.1h0.1l0,0c0.1,0,0.1-0.1,0.2-0.1h0.1h0.1h0.1
			l0.1-0.1c0.1,0,0.1-0.1,0.1-0.1h0.2h0.1h0.1h0.1l0.1,0.1l-0.1,0.1h-0.1h-0.1l0,0h-0.1h-0.1h-0.1H23h-0.1c0,0,0,0.1-0.1,0.1h-0.1
			l-0.1,0.1l0,0l0,0l0,0l0,0l-0.1,0.1l-0.1,0.1v0.1l-0.1,0.1v0.1c0,0.1-0.1,0.1-0.1,0.1v0.1v0.1v0.1v0.1c0,0,0,0.1,0.1,0.1
			c0,0,0,0.1,0.1,0.1l0.1,0.1l0.2,0.2c0.1,0,0.1,0.1,0.2,0.1h0.2h0.1c0,0,0.1,0.1,0.1-0.1h0.1l0.1,0.1v0.1c0,0.1-0.1,0.1-0.1,0.1
			h-0.1h-0.1h-0.1h-0.1H23c0,0-0.1,0-0.1-0.1l-0.1-0.1c0,0-0.1-0.1-0.1-0.1l-0.1-0.1c0-0.1,0-0.1-0.1-0.1l-0.1-0.1v-0.1l0,0l0,0l0,0
			l0,0l0,0h-0.1c0-0.1-0.1-0.1-0.1-0.1v-0.1l0,0v-0.1C22.3,36,22.2,36,22.1,36L22.1,36L22.1,36C22.1,36,22.1,36,22.1,36z"/>
	</g>
	<g>
		<path style="fill:#94A545;" d="M8.1,29.7L8.1,29.7v3.3c0,0.2,0.1,0.3,0.3,0.3H9v0.5H6.5v-0.5h0.5c0.3,0,0.3-0.1,0.3-0.3v-3.3
			c0-0.2,0-0.3-0.3-0.3H6.5v-0.5h2.2l2.2,3.6l0,0v-2.7c0-0.2-0.1-0.3-0.4-0.3H10v-0.5h2.7v0.5h-0.5c-0.3,0-0.4,0.1-0.4,0.3v4.2h-1.1
			C10.7,33.8,8.1,29.7,8.1,29.7z M16.3,32.5v0.2c0,0.9-0.3,1.2-1,1.2c-0.4,0-0.7-0.1-0.8-0.5c-0.3,0.4-0.8,0.5-1.3,0.5
			c-0.6,0-1.1-0.3-1.1-1c0-1.5,2.3-0.7,2.3-1.9c0-0.5-0.4-0.6-0.8-0.6c-0.2,0-0.6,0.1-0.7,0.3c0.3-0.1,0.5,0.1,0.5,0.4
			c0,0.3-0.3,0.5-0.5,0.5c-0.3,0-0.5-0.3-0.5-0.5c0-0.8,0.9-0.9,1.5-0.9c1.1,0,1.5,0.5,1.5,1.1v1.9c0,0.2,0.1,0.3,0.1,0.3
			c0.1,0,0.2-0.1,0.2-0.6v-0.3L16.3,32.5C16.3,32.5,16.3,32.5,16.3,32.5z M14.4,31.9l-0.8,0.3c-0.2,0.1-0.5,0.2-0.5,0.6
			c0,0.3,0.1,0.5,0.5,0.5c0.5,0,0.8-0.5,0.8-0.9V31.9L14.4,31.9z M32,33.2h-0.3c-0.2,0-0.3,0-0.3-0.3v-4.3h-1.7v0.5h0.4
			c0.2,0,0.3,0.1,0.3,0.3V33c0,0.2-0.2,0.3-0.4,0.3h-0.1c0.1-0.2,0.1-0.4,0.1-0.6v-0.3h-0.5v0.3c0,0.5-0.1,0.6-0.3,0.6
			s-0.2-0.1-0.2-0.3v-1.9c0-0.7-0.5-1.1-1.5-1.1c-0.6,0-1.5,0.2-1.5,0.9c0,0.3,0.2,0.5,0.5,0.5c0.3,0,0.5-0.1,0.5-0.5
			s-0.2-0.5-0.5-0.4c0.1-0.2,0.5-0.3,0.7-0.3c0.4,0,0.8,0.1,0.8,0.6c0,1.1-2.3,0.3-2.3,1.9c0,0.7,0.5,1,1.1,1c0.5,0,1-0.1,1.3-0.5
			c0.1,0.4,0.4,0.5,0.8,0.5c0.2,0,0.4,0,0.5-0.1H32V33.2L32,33.2L32,33.2C32,33.2,32,33.2,32,33.2z M28.2,32.4
			c0,0.5-0.3,0.9-0.8,0.9c-0.3,0-0.5-0.1-0.5-0.5c0-0.3,0.3-0.5,0.5-0.6l0.8-0.3V32.4z M40.5,33.3c-0.3,0-0.5-0.1-0.5-0.3v-1.7
			c0-0.8-0.4-1.3-1.1-1.3c-0.6,0-1,0.3-1.3,0.7l0,0v-0.7h-1.7v0.5h0.3c0.4,0,0.5,0.1,0.5,0.4v1.8c0,0.2-0.1,0.3-0.3,0.3h-0.7
			c-0.3,0-0.3-0.1-0.3-0.4v-3.2c0-0.3,0.2-0.5,0.4-0.5c0,0,0,0,0,0h0.3v-0.5h-2.8v0.5h0.5c0.3,0,0.4,0.3,0.4,0.4v3.3
			c0,0.2-0.1,0.3-0.5,0.3h-0.4v0.5h4.9v-0.5h-0.3c-0.2,0-0.3-0.1-0.3-0.3v-1.4c0-0.5,0.5-0.9,0.9-0.9c0.3,0,0.7,0.1,0.7,0.7v1.6
			c0,0.2-0.1,0.3-0.4,0.3h-0.1v0.5h2.2v-0.5L40.5,33.3L40.5,33.3z"/>
		<path style="fill:#94A545;" d="M41.2,32.3c0.1,0.7,0.6,1,1.3,1c0.3,0,0.6-0.1,0.6-0.5c0-0.7-2.4-0.3-2.4-1.7
			c0-0.7,0.7-1.1,1.4-1.1c0.4,0,0.8,0.1,1.1,0.3l0.1-0.3h0.5v1.3h-0.5c-0.2-0.5-0.5-0.9-1.1-0.9c-0.3,0-0.6,0.1-0.6,0.4
			c0,0.6,2.4,0.3,2.4,1.7c0,0.8-0.7,1.1-1.4,1.1c-0.5,0-0.9-0.1-1.3-0.4l-0.1,0.3h-0.5v-1.4H41.2L41.2,32.3z M47.5,29.9
			c0.3,0,0.5-0.3,0.5-0.5c0-0.3-0.3-0.5-0.5-0.5c-0.3,0-0.5,0.3-0.5,0.5S47.3,29.9,47.5,29.9"/>
		<path style="fill:#94A545;" d="M53.2,33.2c-0.3,0-0.5,0-0.5-0.3v-1.6c0-0.8-0.4-1.3-1.1-1.3c-0.6,0-1,0.3-1.3,0.8l0,0v-0.7h-1.7
			v0.5h0.2c0.4,0,0.5,0.1,0.5,0.4V33c0,0.2-0.1,0.3-0.3,0.3c0,0,0,0,0,0h-0.4l0,0h-0.3c-0.2,0-0.4-0.1-0.4-0.3v-2.8h-1.7h-0.2h-0.7
			v-1.4h-0.5c-0.1,0.7-0.2,1.4-1.1,1.5v0.5h0.7v2.3c0,0.6,0.4,0.9,1,0.9c0.6,0,1.1-0.3,1.1-1.1v-0.6h-0.5v0.7c0,0.3-0.1,0.5-0.3,0.5
			c-0.2,0-0.3-0.1-0.3-0.3v-2.3h0.7h0.2h0.6c0.2,0,0.3,0.1,0.3,0.3v2c0,0.2-0.1,0.3-0.3,0.3h-0.4v0.5h2.2l0,0h2.2v-0.6h-0.3
			c-0.2,0-0.3-0.1-0.3-0.3v-1.4c0-0.5,0.5-0.9,0.9-0.9c0.4,0,0.7,0.1,0.7,0.7V33c0,0.2-0.1,0.3-0.5,0.3h-0.2v0.5h2.3v-0.5h-0.3
			L53.2,33.2L53.2,33.2L53.2,33.2z"/>
		<path style="fill:#94A545;" d="M56.5,32.3c-0.1,1-0.6,1.6-1.7,1.6c-1.2,0-1.8-0.7-1.8-1.9c0-1.1,0.9-1.9,1.9-1.9
			c0.9,0,1.6,0.5,1.6,1.1c0,0.3-0.2,0.6-0.5,0.6c-0.3,0-0.6-0.1-0.6-0.5s0.1-0.5,0.5-0.5c-0.2-0.2-0.4-0.3-0.7-0.3
			c-0.8,0-1,0.7-1,1.3c0,0.6,0.2,1.3,1,1.3c0.5,0,0.8-0.4,0.8-0.9H56.5L56.5,32.3L56.5,32.3L56.5,32.3z"/>
		<path style="fill:#94A545;" d="M56.3,30.7v-0.5c0.7-0.1,0.9-0.7,1-1.5h0.5v1.4h1v0.5h-1V33c0,0.1,0.1,0.3,0.3,0.3
			c0.3,0,0.3-0.1,0.3-0.5v-0.7H59v0.7c0,0.8-0.4,1.1-1,1.1c-0.6,0-0.9-0.3-0.9-0.9v-2.3L56.3,30.7C56.3,30.7,56.3,30.7,56.3,30.7z
			 M26.4,29.3c-0.3-0.1-1.4-0.3-1.9,0.7c-0.1,0.1-0.1,0.3-0.4,0.3h-1.3v0.5h0.4c0.2,0,0.3,0.1,0.3,0.3V33c0,0.2-0.1,0.3-0.3,0.3
			h-0.6c-0.3,0-0.5-0.1-0.5-0.3v-2.8h-1.7v0.5h0.4c0.3,0,0.3,0.1,0.3,0.3v1.3c0,0.3-0.3,1-0.9,1c-0.4,0-0.6-0.3-0.6-0.5v-2.6h-2.4
			v-1.4h-0.5c-0.1,0.7-0.3,1.4-1,1.5v0.5h0.7v2.3c0,0.6,0.4,0.9,0.9,0.9c0.6,0,1-0.3,1-1.1v-0.6H18v0.7c0,0.3-0.1,0.5-0.3,0.5
			c-0.2,0-0.3-0.1-0.3-0.3v-2.3h1.3c0.2,0,0.3,0.1,0.3,0.3v1.8c0,0.7,0.4,1.1,1.1,1.1c0.5,0,1-0.1,1.3-0.7l0,0v0.5h3.9v-0.5h-0.5
			c-0.2,0-0.3-0.1-0.3-0.3v-1.3v-0.1v-0.9c0,0,0-0.5,0.5-0.8c0.3-0.2,0.7-0.3,1-0.2l0,0c-0.2,0-0.6,0.2-0.8,0.3
			c-0.3,0.2-0.4,0.5-0.4,0.7c0.1,0.1,0.7,0.3,1.3-0.5c0.3-0.5,0.9-0.8,1.1-0.7l0,0C27,29.5,26.9,29.4,26.4,29.3 M59.5,28.6
			c0.1,0,0.2,0,0.3,0.1c0.1,0.1,0.2,0.1,0.3,0.2c0.1,0.1,0.1,0.2,0.1,0.3s0,0.2-0.1,0.3c-0.1,0.1-0.1,0.2-0.2,0.2
			c-0.1,0.1-0.2,0.1-0.3,0.1s-0.2,0-0.3-0.1c-0.1-0.1-0.2-0.1-0.2-0.2C59,29.5,59,29.3,59,29.2s0-0.2,0.1-0.3
			c0.1-0.1,0.1-0.2,0.3-0.2C59.3,28.6,59.5,28.6,59.5,28.6L59.5,28.6z M59.5,28.7c-0.1,0-0.2,0-0.3,0.1L59.1,29
			C59,29.1,59,29.2,59,29.3s0,0.2,0.1,0.3l0.2,0.2c0.1,0.1,0.2,0.1,0.3,0.1s0.2,0,0.3-0.1l0.2-0.2c0.1-0.1,0.1-0.2,0.1-0.3
			s0-0.2-0.1-0.3l-0.2-0.2C59.7,28.7,59.6,28.7,59.5,28.7z M59.3,29.7v-0.7h0.2h0.2c0,0,0.1,0,0.1,0.1v0.1c0,0.1,0,0.1-0.1,0.1
			c0,0.1-0.1,0.1-0.1,0.1c0,0,0.1,0,0.1,0.1l0.1,0.1l0.1,0.1h-0.1l-0.1-0.1c-0.1-0.1-0.1-0.1-0.1-0.1h-0.1h-0.1v0.2h-0.1L59.3,29.7
			L59.3,29.7z M59.4,29.2h0.1h0.1v-0.1v-0.1h-0.1h-0.1h-0.1V29.2L59.4,29.2z"/>
	</g>
</g>
</svg>
