<svg xmlns="http://www.w3.org/2000/svg" xmlns:xlink="http://www.w3.org/1999/xlink" viewBox="0 0 400 400"><g fill="#4050fb"><path d="M152.2 155c0 7.4-6 13.4-13.4 13.4s-13.4-6-13.4-13.4 6-13.4 13.4-13.4c7.4-.1 13.4 5.9 13.4 13.4z"/><use xlink:href="#B"/><use xlink:href="#C"/><path d="M150.4 174.4H128v82h22.3v-82z"/><use xlink:href="#D"/><use xlink:href="#E"/><use xlink:href="#F"/><use xlink:href="#B"/><use xlink:href="#C"/><path d="M150.4 174.4H128v82h22.3v-82z"/><use xlink:href="#D"/><use xlink:href="#E"/><use xlink:href="#F"/></g><defs ><path id="B" d="M152.7 155c0 7.4-6 13.4-13.5 13.4-7.4 0-13.5-6-13.5-13.4s6-13.4 13.5-13.4c7.5-.1 13.5 5.9 13.5 13.4z"/><path id="C" d="M115.8 174.4v19.9H92.6v33c0 7.3 3.4 10.2 11 10.2h12.3v19H102c-21.9 0-31.8-9.7-31.8-28.1v-34h-12v-19.9c6.6 0 11.9-5.3 11.9-11.8v-9.3h22.3v21.1h23.4z"/><path id="D" d="M226.4 250.5c-5.8 4.5-14.8 7.2-24.2 7.2-22.5 0-41.7-18.1-41.7-41.8s19.1-42.2 41.7-42.2c9.3 0 18.3 2.9 24.2 7.3v-34h22.3v109.6h-22.3v-6.1zm.3-34.6c0-12.2-10-22-22.5-22-12.2 0-21.7 9.9-21.7 22 0 12.3 9.5 22 21.7 22 12.8 0 22.5-9.7 22.5-22z"/><path id="E" d="M299.7 258.4c-26.4 0-43.4-18.4-43.4-42.7 0-23.7 17.7-42.9 43.6-42.9 26.1 0 41.9 17.9 41.9 41.8 0 3.2-.3 7.3-.3 7.9h-63.1c2.4 10.4 10.3 17.1 21.9 17.1 10 0 17.3-4.3 21.9-10.9l16.8 10.2c-8.2 12-21 19.5-39.3 19.5zM279.1 206h40.1c-2.4-9.9-10.4-14.9-19.4-14.9-10.5 0-17.8 5.6-20.7 14.9z"/><path id="F" d="M355.3 255.7c-1.1 1-2.4 1.6-3.8 1.6-1.6 0-2.8-.5-3.9-1.6s-1.6-2.3-1.6-3.9.5-3 1.7-4c1.1-1 2.4-1.5 3.8-1.5a5.28 5.28 0 0 1 3.9 1.6c1.1 1.1 1.6 2.3 1.6 3.9-.1 1.5-.6 2.9-1.7 3.9zm-7.1-7.1c-.9.9-1.3 1.9-1.3 3.2 0 1.2.5 2.3 1.3 3.2.9.9 2 1.3 3.2 1.3s2.4-.5 3.2-1.3 1.3-1.9 1.3-3.2c0-1.2-.5-2.3-1.3-3.2-.9-.9-2-1.4-3.2-1.4-1.3.1-2.4.5-3.2 1.4zm.8 6.2v-6.1h1.7 1.3c.5 0 .9.2 1.2.3.5.3.8.8.8 1.5 0 .5-.2.9-.4 1.1-.3.2-.6.4-1 .4.4.1.7.2.9.4.4.3.5.8.5 1.3v.5.2c0 .1 0 .2.1.2l.1.2h-1.5c-.1-.2-.1-.5-.1-.9s-.1-.6-.1-.8c-.1-.2-.2-.4-.5-.5-.2-.1-.3-.1-.5-.1h-.3-.3v2.2l-1.9.1h0zm2.9-4.8c-.2-.1-.5-.2-.9-.2h-.4v1.8h.6c.4 0 .6-.1.9-.2.2-.2.3-.4.3-.7 0-.4-.2-.6-.5-.7z"/></defs></svg>