<?xml version="1.0" encoding="utf-8"?>
<svg version="1.1" id="Layer_1" xmlns="http://www.w3.org/2000/svg" xmlns:xlink="http://www.w3.org/1999/xlink" x="0px" y="0px"
	width="100px" height="100px" viewBox="0 0 72.2 72.2" style="enable-background:new 0 0 72.2 72.2;" xml:space="preserve">
<g>
	<circle style="fill:#E8E8E8;" cx="36.1" cy="36.1" r="36.1"/>
	<circle style="fill:#FFFFFF;" cx="36.1" cy="36.1" r="35.4"/>
	<path style="fill:#231F20;" d="M25.5,28.5l-5.8,15.1h0.9l5.8-15.1H25.5z M41.8,28.6L36,43.7h0.9l5.8-15.1H41.8
		C41.8,28.5,41.8,28.6,41.8,28.6z M60.5,28.5l-5.8,15.1h0.9l5.8-15.1H60.5z M31.2,29.9c-2.3,0-3.9,1.4-3.9,3.5
		c0,0.7,0.3,1.4,0.8,1.9c0.5,0.5,1.1,0.7,2.2,1.1l1.2,0.4c1.4,0.4,2.1,1.2,2.1,2.1c0,0.6-0.3,1.2-0.8,1.7c-0.6,0.4-1.2,0.6-2,0.6
		c-1.2,0-2.2-0.4-3.2-1.1l-0.7,1.2c1.2,0.8,2.5,1.2,3.9,1.2c1.1,0,1.9-0.2,2.7-0.7c1.1-0.6,1.7-1.8,1.7-2.9c0-0.7-0.3-1.6-0.8-2.2
		c-0.5-0.6-1.1-0.9-2.1-1.2L31,34.9C29.6,34.5,29,34,29,33c0-1.2,0.9-1.9,2.3-1.9c1.2,0,1.9,0.4,2.9,1l0.7-1.2
		C33.8,30.3,32.6,29.9,31.2,29.9L31.2,29.9L31.2,29.9z M44.8,30.2v12h1.5v-5.6h5.1v5.6H53v-12h-1.7V35h-5.1v-4.8L44.8,30.2
		C44.8,30.2,44.8,30.2,44.8,30.2z M10.6,30.2v11.9h3.3c1.8,0,2.3-0.1,3-0.4c1.2-0.5,1.9-1.7,1.9-3c0-0.9-0.3-1.9-1.2-2.5
		c-0.4-0.3-0.8-0.4-1.4-0.6c1.2-0.5,1.9-1.3,1.9-2.5c0-1.3-0.9-2.3-2.1-2.7c-0.6-0.2-1.2-0.3-3.7-0.3L10.6,30.2
		C10.6,30.2,10.6,30.2,10.6,30.2z M12.2,31.5h1.7c0.6,0,1,0,1.3,0.1c0.8,0.2,1.3,0.9,1.3,1.8c0,0.4-0.1,0.6-0.2,0.8
		c-0.4,0.8-1.1,1-2.1,1H12L12.2,31.5C12.1,31.5,12.2,31.5,12.2,31.5z M12.2,36.5h2.2c0.6,0,1.1,0.1,1.4,0.1c0.8,0.1,1.4,1,1.4,2
		c0,1.4-0.6,2.1-2.4,2.1h-2.5L12.2,36.5L12.2,36.5z"/>
</g>
</svg>
