<?xml version="1.0" encoding="utf-8"?>
<svg version="1.1" id="Layer_1" xmlns="http://www.w3.org/2000/svg" xmlns:xlink="http://www.w3.org/1999/xlink" x="0px" y="0px"
	 viewBox="0 0 923.08 457.31" style="enable-background:new 0 0 923.08 457.31;" xml:space="preserve">
<g>
	<path style="fill:#E41D25;" d="M8.38,3.75L0,56.06c0,0,109.06,1.23,132.66,1.23c23.6,0,34.82,32.92,31.1,56.52
		c-3.75,23.61-19.48,54.68-43.09,55.43H69.4L85.85,67.02h-50.5l-27.76,155h110.85c17.22,0,89.12-29.21,97.35-99.58
		c8.21-70.41-37.47-118.72-70.44-118.72C112.4,3.71,8.38,3.75,8.38,3.75 M309.38,64.78c45.32,0,78.24,33.31,76,71.88
		c-1.52,26.16-13.48,85.37-13.48,85.37h-49.04c0,0,6.54-46.19,11.21-72.65c5.25-29.57-29.94-34.82-46.04-25.46
		c-12.39,7.23-20.09,29.78-13.46,41.19c8.23,14.23,34.08,2.24,35.56,0.75c1.5-1.5,5.23,45.3,5.23,45.3s-14.22,17.6-49.77,13.11
		c-26.88-3.4-54.61-44.15-45.32-84.63C231.51,90.61,276.44,64.78,309.38,64.78 M412.69,67.02h50.57l-25.09,154.25h-52.04
		L412.69,67.02z M411.23,30.15C411.23,13.51,424.72,0,441.36,0c16.62,0,30.13,13.51,30.13,30.15c0,16.64-13.51,30.15-30.13,30.15
		C424.72,60.3,411.23,46.79,411.23,30.15 M451.28,222.03h49.8c0,0,8.98-60.67,11.24-77.13c2.26-16.47,17.2-20.97,25.83-22.46
		l-4.9-56.92c0,0-52.02,0.75-64.01,55.05C460.32,160.99,451.28,222.03,451.28,222.03 M544.88,67.02h49.03l14.99,80.11l-37.07,74.9
		L544.88,67.02z"/>
	<path style="fill:#E41D25;" d="M654.94,67.02h55.03c0,0-65.11,158.01-72.23,173.73c-7.15,15.72-24.74,43.8-56.18,43.8h-84.26
		l10.5-51.27h51.29c19.09,0,28.83-3.01,37.08-25.88C602.91,188.7,654.94,67.02,654.94,67.02"/>
	<path style="fill:#234379;" d="M337.07,456.39l-52.62-0.72c0,0,21.32-158.03,28.47-173.73c7.1-15.73,24.32-47.93,55.75-47.93
		h121.72l-9.37,49.78h-88c-19.1,0-32.23,9.5-36.84,33.32C351.68,340.33,337.07,456.39,337.07,456.39"/>
	<path style="fill:#234379;" d="M371.18,317.87l-8.24,46.8h64.76l5.96-46.8L371.18,317.87z M524.65,297.06
		c45.32,0,78.25,33.31,76.02,71.88c-1.52,26.18-13.48,85.38-13.48,85.38h-49.04c0,0,6.59-46.22,11.25-72.64
		c5.23-29.58-29.98-34.83-46.08-25.47c-12.43,7.23-20.1,29.76-13.46,41.19c8.23,14.21,34.06,2.24,35.59,0.75
		c1.49-1.52,5.23,45.3,5.23,45.3s-14.23,17.6-49.83,13.13c-26.86-3.41-54.56-44.19-45.3-84.64
		C446.78,322.91,491.74,297.06,524.65,297.06 M599.91,455.64h49.8c0,0,8.98-60.67,11.22-77.13c2.26-16.47,17.22-20.95,25.85-22.43
		l-4.9-56.95c0,0-52.04,0.74-64.01,55.03C608.95,394.59,599.91,455.64,599.91,455.64 M682.3,455.64c0,0,12.74-81.62,15.72-98.08
		c2.98-16.47,24.65-61.79,63.28-61.79c37.8,0,44.53,21.32,52.77,29.6c8.98-6.77,24.34-29.6,58.02-29.6
		c29.61,0,52.07,38.94,50.95,61.04c-1.14,22.07-11.64,98.84-11.64,98.84h-52.78c0,0,9.42-54.72,11.99-79.01
		c2.27-21.34-8.98-27.3-15.72-27.3c-6.02,0-18.71,6.75-20.97,25.1c-3.24,26.49-10.87,81.22-10.87,81.22h-52.77
		c0,0,10.11-60.65,13.09-80.48c3.01-19.87-10.1-22.21-18.36-22.84c-9.71-0.74-17.2,7.12-19.44,19.84
		c-2.26,12.71-11.98,83.47-11.98,83.47H682.3z"/>
</g>
</svg>
