<?xml version="1.0" encoding="utf-8"?>
<svg version="1.1" id="Layer_1" xmlns="http://www.w3.org/2000/svg" xmlns:xlink="http://www.w3.org/1999/xlink" x="0px" y="0px"
	 viewBox="0 0 626.3 615.9" style="enable-background:new 0 0 626.3 615.9;" xml:space="preserve">
<g>
	<g>
		<g>
			<path style="fill:#010066;" d="M238.7,0.1C281-1.1,324,6.6,362.1,25.3c32.1,15.7,60,38.8,81.4,67.4
				c23.7,31.7,38.8,69.3,45.5,108.2c7.2,42.3,6,86.4-5.8,127.8c-9.5,34.1-26.1,65.8-48.7,93c-18.8,22.6-41.6,41.5-67.4,55.6
				c-36.4,20.1-78,30-119.5,29.9c-41.1,0.2-82.4-9.2-118.6-28.7c-33.6-18-62.3-43.8-83.8-75.3C22.2,369.9,7.8,330.9,2.5,290.8
				c-5.7-44.5-1.5-90.5,13.1-132.9c8.8-25.5,21.9-49.4,38.6-70.6c17.5-22,39-40.5,63.3-54.5C154.2,11.6,196.5,1.2,238.7,0.1
				 M235.7,73c-29.2,2.2-56.9,13.7-79,33c-28.7,24.8-46.9,60-55.5,96.7c-9.6,41.9-7.4,85.6,6.3,126.2c11.1,32.5,30.8,63.1,59.5,82.5
				c32.4,22.3,74.4,28,112.5,20.1c29.7-6.1,56.8-23.1,75.8-46.7c24.8-30.5,37.7-69.3,41.5-108c4.3-44-3.9-89.8-25.8-128.4
				c-15.3-27.1-38.2-50.4-66.7-63.5C283.1,74.9,259.1,71.2,235.7,73z"/>
			<path style="fill:#010066;" d="M488.2,412.8c19.4-9.7,40.6-15,62.3-15.4c17.4-0.1,35.9,3.2,49.6,14.7c12,9.9,18,25.4,19.1,40.6
				c1.5,15.1-2.2,30.4-8.8,44c-9.6,19.6-23.9,36.5-38.7,52.4c-10.7,11.2-21.6,22-32.8,32.6c29.1,0,58.3,0,87.4,0
				c0,11.4,0,22.8,0,34.2c-47.7,0-95.3,0-143,0v-36.2c25.3-23.7,51.6-46.8,72.6-74.6c7.9-10.7,15.4-22.1,18.9-35.1
				c2.2-8.1,1.9-17.4-3-24.6c-6-9-17-13.1-27.4-13.8c-19-1-37.1,7.1-52.8,17.2C490.4,436.9,489.3,424.8,488.2,412.8L488.2,412.8z"/>
		</g>
	</g>
</g>
</svg>
