<?xml version="1.0" encoding="utf-8"?>
<svg version="1.1" id="Layer_1" xmlns="http://www.w3.org/2000/svg" xmlns:xlink="http://www.w3.org/1999/xlink" x="0px" y="0px"
	width="100px" height="100px" viewBox="0 0 100 100" style="enable-background:new 0 0 100 100;" xml:space="preserve">
<g>
	<path style="fill:#E8E8E8;" d="M50,0c27.6,0,50,22.4,50,50s-22.4,50-50,50S0,77.6,0,50S22.4,0,50,0"/>
	<path style="fill:#FFFFFF;" d="M50,1c27.1,0,49,21.9,49,49S77.1,99,50,99S1,77.1,1,50S22.9,1,50,1"/>
	<g>
		<path style="fill:#1D7BCE;" d="M41.2,57.6c-0.1,0.1-0.2,0.2-0.4,0.2H38c-0.1,0-0.2-0.1-0.4-0.2c-0.1-0.1-0.2-0.2-0.2-0.4v-0.6
			c-0.7,0.5-1.4,0.9-2,1S34.1,58,33.2,58c-0.9,0-1.7-0.1-2.3-0.4c-0.6-0.3-1-0.7-1.4-1.3c-0.3-0.5-0.5-1.2-0.7-1.9
			c-0.1-0.7-0.2-1.5-0.2-2.3v-8.6c0-0.1,0.1-0.2,0.2-0.4c0.1-0.1,0.2-0.2,0.4-0.2h3.1c0.1,0,0.2,0.1,0.4,0.2s0.2,0.2,0.2,0.4V52
			c0,0.4,0,0.9,0.1,1.2c0.1,0.3,0.1,0.5,0.3,0.7c0.1,0.2,0.3,0.3,0.6,0.4c0.2,0.1,0.5,0.1,1,0.1c0.4,0,0.8-0.1,1.2-0.2
			c0.4-0.2,0.8-0.4,1.3-0.6V43.4c0-0.1,0.1-0.2,0.2-0.4c0.1-0.1,0.2-0.2,0.4-0.2H41c0.1,0,0.2,0.1,0.4,0.2c0.1,0.1,0.2,0.2,0.2,0.4
			v13.8C41.3,57.4,41.3,57.5,41.2,57.6 M48,57.2c0,0.1-0.1,0.2-0.2,0.4c-0.1,0.1-0.2,0.2-0.4,0.2h-3.2c-0.1,0-0.2-0.1-0.4-0.2
			c-0.1-0.1-0.2-0.2-0.2-0.4V43.4c0-0.1,0.1-0.2,0.2-0.4c0.1-0.1,0.2-0.2,0.4-0.2h3.2c0.1,0,0.2,0.1,0.4,0.2
			c0.1,0.1,0.2,0.2,0.2,0.4V57.2z M62.9,56.6c0,0.2-0.1,0.4-0.1,0.5c-0.1,0.1-0.3,0.2-0.7,0.3c-0.7,0.2-1.6,0.4-2.6,0.5
			c-1,0.1-2,0.2-2.9,0.2c-2.1,0-3.7-0.6-4.8-1.7c-1.1-1.2-1.6-2.8-1.6-4.9v-2.1c0-2,0.5-3.7,1.6-4.8c1-1.2,2.7-1.8,4.9-1.8
			c0.2,0,0.5,0,1,0.1c0.4,0.1,0.8,0.1,1.2,0.1v-4.5c0-0.1,0.1-0.2,0.2-0.4c0.1-0.1,0.2-0.2,0.4-0.2h3.1c0.1,0,0.2,0.1,0.4,0.2
			c0.1,0.1,0.2,0.2,0.2,0.4L62.9,56.6L62.9,56.6z M58.7,46.3c-0.3-0.1-0.7-0.1-1-0.1s-0.7-0.1-1-0.1c-0.5,0-0.9,0.1-1.2,0.2
			c-0.3,0.2-0.5,0.4-0.7,0.7c-0.2,0.3-0.3,0.6-0.4,1c-0.1,0.4-0.1,0.8-0.1,1.3v2c0,0.5,0.1,0.9,0.1,1.3c0.1,0.4,0.2,0.7,0.4,1
			c0.2,0.3,0.4,0.5,0.7,0.7c0.3,0.2,0.7,0.2,1.2,0.2c0.4,0,0.9,0,1.2-0.1c0.4-0.1,0.7-0.1,0.9-0.1L58.7,46.3L58.7,46.3z M74.6,57.4
			c-0.1,0.1-0.2,0.1-0.4,0.2c-0.4,0.1-0.9,0.2-1.4,0.2s-1.2,0.1-2,0.1c-1.8,0-3.3-0.5-4.4-1.7c-1.1-1.1-1.6-2.7-1.6-4.9v-2.2
			c0-2.1,0.5-3.7,1.6-4.9c1.1-1.1,2.6-1.7,4.4-1.7c0.8,0,1.5,0.1,2,0.1s1,0.2,1.4,0.2c0.2,0.1,0.3,0.1,0.4,0.2
			c0.1,0.1,0.1,0.2,0.1,0.4v2.3c0,0.1-0.1,0.2-0.1,0.3c-0.1,0.1-0.2,0.1-0.4,0.1h-0.1c-0.5-0.1-0.9-0.1-1.4-0.1
			c-0.4-0.1-1-0.1-1.8-0.1c-0.3,0-0.5,0.1-0.9,0.1c-0.2,0.1-0.5,0.2-0.7,0.5c-0.2,0.2-0.4,0.5-0.4,0.9c-0.1,0.4-0.2,0.9-0.2,1.5v2.2
			c0,0.5,0.1,1,0.2,1.5c0.1,0.4,0.2,0.7,0.4,0.9s0.4,0.4,0.7,0.5c0.2,0.1,0.5,0.1,0.9,0.1c0.7,0,1.3,0,1.8-0.1
			c0.4-0.1,0.9-0.1,1.4-0.1h0.1c0.1,0,0.2,0.1,0.4,0.1c0.1,0.1,0.1,0.2,0.1,0.3v2.3C74.8,57.2,74.7,57.3,74.6,57.4 M88.6,51.3
			c0,1-0.1,2-0.4,2.8s-0.7,1.5-1.2,2.1s-1.2,1-2,1.3c-0.8,0.3-1.7,0.5-2.8,0.5c-1,0-2-0.2-2.8-0.5c-0.8-0.3-1.5-0.8-2-1.3
			c-0.5-0.5-1-1.3-1.3-2.1c-0.3-0.9-0.4-1.8-0.4-2.8v-1.8c0-1,0.1-2,0.4-2.8c0.3-0.9,0.7-1.5,1.3-2.1c0.5-0.6,1.2-1,2-1.3
			c0.8-0.3,1.7-0.5,2.8-0.5c1,0,2,0.2,2.8,0.5c0.8,0.3,1.5,0.8,2,1.3c0.5,0.6,1,1.3,1.2,2.1c0.3,0.9,0.4,1.8,0.4,2.8
			C88.6,49.4,88.6,51.3,88.6,51.3z M84.5,49.4c0-2.1-0.7-3.2-2.3-3.2c-0.7,0-1.3,0.2-1.7,0.8c-0.4,0.5-0.6,1.3-0.6,2.4v1.8
			c0,1,0.2,1.8,0.6,2.4c0.4,0.5,1,0.8,1.7,0.8c1.5,0,2.3-1,2.3-3.2C84.5,51.3,84.5,49.4,84.5,49.4z M48.2,40.7
			c0,0.1-0.1,0.2-0.2,0.4c-0.1,0.1-0.2,0.2-0.4,0.2h-3.3c-0.1,0-0.2-0.1-0.4-0.2c-0.1-0.1-0.2-0.2-0.2-0.4v-2.4
			c0-0.1,0.1-0.2,0.2-0.4c0.1-0.1,0.2-0.2,0.4-0.2h3.4c0.1,0,0.2,0.1,0.4,0.2c0.1,0.1,0.2,0.2,0.2,0.4L48.2,40.7L48.2,40.7z
			 M26.1,42.7c-0.4-1-0.9-1.9-1.6-2.6c-0.7-0.7-1.5-1.2-2.4-1.5c-0.9-0.3-2-0.4-3-0.4s-2.1,0.2-3,0.4c-0.9,0.3-1.7,0.8-2.4,1.5
			c-0.7,0.7-1.2,1.5-1.6,2.6c-0.4,1-0.6,2.3-0.6,3.8v3.1c0,1.5,0.2,2.8,0.6,3.8c0.4,1,0.9,1.9,1.6,2.6c0.7,0.7,1.5,1.2,2.4,1.5
			c0.5,0.2,1,0.3,1.6,0.4c0.1,0.1,0.2,0.2,0.3,0.4c0.5,0.6,1.2,1.3,2,2c0.2,0.2,0.5,0.4,0.8,0.5c0.3,0.2,0.6,0.4,0.9,0.5
			c0.3,0.2,0.6,0.3,0.9,0.5c0.3,0.1,0.5,0.2,0.7,0.3c0.2,0.1,0.3,0.1,0.5,0.1c0.1,0,0.2-0.1,0.4-0.2l1.5-2c0.1-0.1,0.1-0.2,0.1-0.4
			s-0.1-0.3-0.2-0.4l-0.1-0.1c-0.2-0.1-0.4-0.3-0.7-0.5s-0.5-0.4-0.9-0.5s-0.6-0.4-0.9-0.5c-0.1-0.1-0.2-0.2-0.3-0.2
			c0.7-0.3,1.4-0.7,2-1.3c0.7-0.7,1.2-1.5,1.6-2.6c0.4-1,0.6-2.3,0.6-3.8v-3.1C26.8,45.1,26.6,43.8,26.1,42.7z M16.8,53.1
			c-0.5-0.7-0.8-1.8-0.8-3.4v-3.1c0-1.6,0.2-2.7,0.8-3.4c0.5-0.7,1.3-1,2.4-1c1.1,0,1.9,0.4,2.4,1c0.5,0.7,0.8,1.8,0.8,3.4v3.1
			c0,1.6-0.2,2.7-0.8,3.4c-0.5,0.7-1.3,1-2.4,1C18.1,54.1,17.3,53.8,16.8,53.1z"/>
	</g>
</g>
</svg>
