<?xml version="1.0" encoding="utf-8"?>
<!-- Generator: Adobe Illustrator 24.2.1, SVG Export Plug-In . SVG Version: 6.00 Build 0)  -->
<svg version="1.1" id="Layer_1" xmlns="http://www.w3.org/2000/svg" xmlns:xlink="http://www.w3.org/1999/xlink" x="0px" y="0px"
	 viewBox="0 0 177.8 54.2" style="enable-background:new 0 0 177.8 54.2;" xml:space="preserve">
<g>
	<g transform="translate(.939 .176)">
		<defs>
			<filter id="Adobe_OpacityMaskFilter" filterUnits="userSpaceOnUse" x="0.3" y="-0.2" width="15.6" height="22.3">
				<feColorMatrix  type="matrix" values="1 0 0 0 0  0 1 0 0 0  0 0 1 0 0  0 0 0 1 0"/>
			</filter>
		</defs>
		<mask maskUnits="userSpaceOnUse" x="0.3" y="-0.2" width="15.6" height="22.3" id="B_2_">
			<g style="filter:url(#Adobe_OpacityMaskFilter);">
				<path id="A_2_" style="fill-rule:evenodd;clip-rule:evenodd;fill:#FFFFFF;" d="M0.3-0.2h15.6v22.3H0.3V-0.2z"/>
			</g>
		</mask>
		<path style="mask:url(#B_2_);fill-rule:evenodd;clip-rule:evenodd;" d="M12.2,5.7c-0.2-1.5-1-2.9-3.9-2.9c-2.4,0-4.1,0.6-4.1,2.9
			c0,5.2,11.7,1.9,11.7,10.3c0,4.6-3.9,6.2-7.7,6.2c-5.8,0-8-3.9-8-6.7c0-0.4,0.3-0.7,0.7-0.7c0,0,0,0,0,0h1.9
			c0.4,0,0.7,0.3,0.7,0.7c0.1,1,0.7,3.8,4.7,3.8c2.7,0,4.3-0.9,4.3-3.3c0-5.1-11.7-1.9-11.7-10.3c0-3.8,2.7-5.9,7.5-5.9
			c5.2,0,7.2,3.2,7.2,5.8c0,0.4-0.3,0.7-0.7,0.7h-1.9C12.5,6.3,12.2,6.1,12.2,5.7"/>
	</g>
	<g>
		<path style="fill-rule:evenodd;clip-rule:evenodd;" d="M24.6,19.5c1.9,0,3.3-1.3,3.3-3.8v-2.8c0-2.5-1.4-3.8-3.3-3.8
			s-3.3,1.3-3.3,3.8v2.8C21.2,18.1,22.6,19.5,24.6,19.5 M24.6,6.2c3.7,0,6.7,2.7,6.7,7.1v2c0,4.3-2.9,7-6.7,7c-3.8,0-6.7-2.7-6.7-7
			v-2C17.9,8.9,20.8,6.2,24.6,6.2 M45.6,7.3v14.1c0,0.4-0.3,0.7-0.7,0.7c0,0,0,0,0,0H43c-0.4,0-0.7-0.3-0.7-0.7c0,0,0,0,0,0v-1
			c-0.8,1.1-1.9,2-4.2,2c-3.6,0-5.4-2.7-5.4-7v-8c0-0.4,0.3-0.7,0.7-0.7h1.9c0.4,0,0.7,0.3,0.7,0.7v8.4c0,2.5,1.2,3.8,3.1,3.8
			s3.2-1.3,3.2-3.8V7.3c0-0.4,0.3-0.7,0.7-0.7h1.9C45.3,6.5,45.6,6.8,45.6,7.3 M50,17.1V9.5h-2.1c-0.4,0-0.7-0.3-0.7-0.7
			c0,0,0,0,0,0V7.3c0-0.4,0.3-0.7,0.7-0.7c1.5,0,2.2-0.3,2.2-2V3.2c0-0.4,0.3-0.7,0.7-0.7h1.8c0.4,0,0.7,0.3,0.7,0.7v3.3h3.1
			c0.4,0,0.7,0.3,0.7,0.7v1.5c0,0.4-0.3,0.7-0.7,0.7c0,0,0,0,0,0h-3.1v7.1c0,1.8,0.2,2.4,2,2.4h1.1c0.4,0,0.7,0.3,0.7,0.7v1.6
			c0,0.4-0.3,0.7-0.7,0.7c0,0,0,0,0,0h-1.6C51,22,50,20.3,50,17.1 M58.6,21.3V1.1c0-0.4,0.3-0.7,0.7-0.7h1.9c0.4,0,0.7,0.3,0.7,0.7
			v7.2c0.8-1.2,2.1-2.1,4.3-2.1c3.8,0,5.6,2.9,5.6,7.1v8c0,0.4-0.3,0.7-0.7,0.7c0,0,0,0,0,0h-1.9c-0.4,0-0.7-0.3-0.7-0.7
			c0,0,0,0,0,0v-8.4c0-2.5-1.4-3.8-3.3-3.8c-1.9,0-3.3,1.3-3.3,3.8v8.4c0,0.4-0.3,0.7-0.7,0.7c0,0,0,0,0,0h-1.9
			C58.9,22,58.6,21.7,58.6,21.3C58.6,21.3,58.6,21.3,58.6,21.3 M103.9,0.8c0,0.1,0,0.3-0.1,0.5l-5.5,20.1C98.2,21.7,98,22,97.6,22
			h-2.4c-0.4,0-0.6-0.3-0.7-0.6L90.3,5.3l-4.1,16.2c-0.1,0.3-0.4,0.6-0.7,0.6h-2.4c-0.3,0-0.6-0.2-0.7-0.6L76.9,1.5l-0.2-0.7
			c0-0.3,0.2-0.5,0.5-0.5h2.3c0.3,0,0.7,0.1,0.8,0.7l4,16l4.2-16c0.1-0.5,0.4-0.7,0.7-0.7h2.2c0.3,0,0.6,0.2,0.8,0.7l4.2,16l4-16
			c0.1-0.3,0.3-0.7,0.8-0.7h2.2C103.7,0.3,103.9,0.5,103.9,0.8 M112.5,12.7c0-2.3-1.4-3.6-3.3-3.6s-3.3,1.3-3.3,3.6V13h6.7
			L112.5,12.7L112.5,12.7z M109.1,19.5c1.1,0,2.2-0.2,3-1.9c0.1-0.2,0.3-0.4,0.7-0.4h2c0.3,0,0.5,0.2,0.5,0.4c0,0,0,0,0,0.1
			c0,0.2-0.1,0.4-0.1,0.5c-1.1,3-3.8,4.1-6.1,4.1c-3.7,0-6.7-2.7-6.7-7v-2c0-4.3,2.9-7.1,6.7-7.1c3.7,0,6.6,2.8,6.6,7v1.5
			c0,0.4-0.3,0.7-0.7,0.7h-9.2v0.4C105.8,18,107.2,19.5,109.1,19.5L109.1,19.5L109.1,19.5z M116.6,18c0-0.1-0.1-0.3,0-0.4
			c0-0.3,0.2-0.5,0.5-0.5h1.9c0.3,0,0.5,0.2,0.6,0.5c0.2,0.8,0.9,2.1,3.1,2.1c1.8,0,2.9-0.6,2.9-2c0-3.2-8.8-0.6-8.8-6.9
			c0-3.2,2.8-4.5,5.9-4.5c3.8,0,5.3,2.3,5.8,4.1c0,0.1,0.1,0.3,0.1,0.4c0,0.3-0.2,0.5-0.6,0.5H126c-0.4,0-0.5-0.2-0.6-0.5
			c-0.3-0.9-0.8-1.9-2.9-1.9c-1.3,0-2.5,0.4-2.5,1.7c0,3.4,8.8,0.8,8.8,7c0,3.5-2.9,4.7-6.1,4.7C118.9,22.3,116.9,20.1,116.6,18
			 M131.7,17.1V9.5h-2.1c-0.4,0-0.7-0.3-0.7-0.7c0,0,0,0,0,0V7.3c0-0.4,0.3-0.7,0.7-0.7c1.5,0,2.2-0.3,2.2-2V3.2
			c0-0.4,0.3-0.7,0.7-0.7h1.8c0.4,0,0.7,0.3,0.7,0.7v3.3h3.1c0.4,0,0.7,0.3,0.7,0.7v1.5c0,0.4-0.3,0.7-0.7,0.7c0,0,0,0,0,0H135v7.1
			c0,1.8,0.2,2.4,2,2.4h1.1c0.4,0,0.7,0.3,0.7,0.7v1.6c0,0.4-0.3,0.7-0.7,0.7c0,0,0,0,0,0h-1.6C132.8,22,131.7,20.3,131.7,17.1
			 M149.8,12.7c0-2.3-1.4-3.6-3.3-3.6s-3.3,1.3-3.3,3.6V13h6.7L149.8,12.7L149.8,12.7z M146.5,19.5c1.1,0,2.2-0.2,3-1.9
			c0.1-0.2,0.3-0.4,0.7-0.4h2c0.3,0,0.5,0.2,0.5,0.4c0,0,0,0,0,0.1c0,0.2-0.1,0.4-0.1,0.5c-1.1,3-3.8,4.1-6.1,4.1
			c-3.7,0-6.7-2.7-6.7-7v-2c0-4.3,2.9-7.1,6.7-7.1c3.7,0,6.6,2.8,6.6,7v1.5c0,0.4-0.3,0.7-0.7,0.7h-9.2v0.4
			C143.1,18,144.6,19.5,146.5,19.5L146.5,19.5L146.5,19.5z M154.7,21.3V7.3c0-0.4,0.3-0.7,0.7-0.7h1.7c0.4,0,0.7,0.3,0.7,0.7v1.6
			c0.7-1.3,2.1-2.3,4.1-2.3h0.4c0.4,0,0.7,0.3,0.7,0.7v1.9c0,0.4-0.3,0.7-0.7,0.7c0,0,0,0,0,0h-0.5c-2.6,0-3.9,1.6-3.9,4.5v7
			c0,0.4-0.3,0.7-0.7,0.7h-1.8C155.1,22,154.7,21.7,154.7,21.3C154.7,21.3,154.7,21.3,154.7,21.3"/>
		<path style="fill-rule:evenodd;clip-rule:evenodd;" d="M164.5,21.3V7.3c0-0.4,0.3-0.7,0.7-0.7h1.9c0.4,0,0.7,0.3,0.7,0.7v1
			c0.8-1.2,2.1-2.1,4.3-2.1c3.8,0,5.6,2.9,5.6,7.1v8c0,0.4-0.3,0.7-0.7,0.7c0,0,0,0,0,0h-1.9c-0.4,0-0.7-0.3-0.7-0.7c0,0,0,0,0,0
			v-8.4c0-2.5-1.4-3.8-3.3-3.8s-3.3,1.3-3.3,3.8v8.4c0,0.4-0.3,0.7-0.7,0.7c0,0,0,0,0,0h-1.9C164.9,22,164.6,21.7,164.5,21.3
			C164.5,21.3,164.5,21.3,164.5,21.3 M35.3,36.7c1.9,0,3.6-1,3.6-3.3v-0.5c0-2.5-1.7-3.4-3.6-3.4h-5v7.2H35.3z M29.6,48h-1.9
			c-0.4,0-0.7-0.3-0.7-0.7c0,0,0,0,0,0V27.1c0-0.4,0.3-0.7,0.7-0.7h7.8c3.9,0,6.7,2.1,6.7,6.4v0.7c0,2.8-1.3,5-4.3,5.9l4,7.6
			c0.2,0.2,0.2,0.4,0.2,0.7c0,0.3-0.2,0.5-0.5,0.5c0,0,0,0,0,0h-2.4c-0.4,0-0.6-0.3-0.8-0.6l-3.9-7.6h-4.3v7.5
			C30.3,47.7,30,48,29.6,48C29.6,48,29.6,48,29.6,48L29.6,48L29.6,48z"/>
		<path style="fill-rule:evenodd;clip-rule:evenodd;" d="M46.2,43.7c0,1.6,1.3,2,2.5,2h0.5c2.9,0,3.3-1.9,3.3-3.5v-0.8h-3.1
			C47.4,41.4,46.2,41.9,46.2,43.7 M54.9,48h-1.7c-0.4,0-0.7-0.3-0.7-0.7c0,0,0,0,0,0v-1c-0.7,1.3-2.3,2-3.9,2h-0.5
			c-2.6,0-5-1.2-5-4.7c0-4.4,4.1-4.7,6.2-4.7h3.2v-0.8c0-1.9-0.7-3.1-3-3.1c-2,0-2.4,0.8-2.6,1.7c-0.1,0.3-0.2,0.5-0.6,0.5h-2
			c-0.3,0-0.6-0.2-0.6-0.6c0-0.1,0-0.2,0.1-0.4c0.3-1.6,1.3-4.2,5.7-4.2c5.2,0,6.1,3.1,6.1,6v9.1C55.6,47.7,55.3,48,54.9,48
			C54.9,48,54.9,48,54.9,48 M58.6,47.3V33.3c0-0.4,0.3-0.7,0.7-0.7h1.9c0.4,0,0.7,0.3,0.7,0.7v14c0,0.4-0.3,0.7-0.7,0.7c0,0,0,0,0,0
			h-1.9C58.9,48,58.6,47.7,58.6,47.3C58.6,47.3,58.6,47.3,58.6,47.3 M62.3,28.2c0,1.2-0.8,2-2,2c-1.2,0-2-0.8-2-2s0.8-2,2-2
			C61.4,26.1,62.3,27,62.3,28.2 M65.1,47.3V27.1c0-0.4,0.3-0.7,0.7-0.7h1.9c0.4,0,0.7,0.3,0.7,0.7v20.3c0,0.4-0.3,0.7-0.7,0.7
			c0,0,0,0,0,0h-1.9C65.4,48,65.1,47.7,65.1,47.3C65.1,47.3,65.1,47.3,65.1,47.3 M91.8,33.1c0,0.2-0.1,0.5-0.2,0.8l-4.4,13.7
			c-0.1,0.3-0.4,0.5-0.7,0.5h-1.7c-0.4,0-0.7-0.3-0.7-0.6l-3.2-10.8l-3.2,10.8C77.7,47.8,77.4,48,77,48h-1.8c-0.4,0-0.6-0.2-0.7-0.5
			L70,33.8c-0.1-0.4-0.2-0.6-0.2-0.7c0-0.3,0.2-0.5,0.5-0.5c0,0,0,0,0.1,0h2.1c0.4,0,0.7,0.2,0.8,0.7l2.9,10.3l3-10.3
			c0.1-0.4,0.3-0.7,0.8-0.7h1.9c0.4,0,0.6,0.2,0.8,0.7l3.1,10.1l2.7-10.1c0.1-0.5,0.4-0.7,0.8-0.7h2.1
			C91.6,32.5,91.8,32.7,91.8,33.1 M94.9,43.7c0,1.6,1.3,2,2.5,2h0.5c2.9,0,3.3-1.9,3.3-3.5v-0.8h-3.1C96.1,41.4,94.9,41.9,94.9,43.7
			 M103.6,48h-1.7c-0.4,0-0.7-0.3-0.7-0.7c0,0,0,0,0,0v-1c-0.7,1.3-2.3,2-3.9,2h-0.5c-2.6,0-5-1.2-5-4.7c0-4.4,4.1-4.7,6.2-4.7h3.2
			v-0.8c0-1.9-0.7-3.1-3-3.1c-2,0-2.4,0.8-2.6,1.7c-0.1,0.3-0.2,0.5-0.6,0.5h-2c-0.3,0-0.6-0.2-0.6-0.6c0-0.1,0-0.2,0.1-0.4
			c0.3-1.6,1.3-4.2,5.7-4.2c5.2,0,6.1,3.1,6.1,6v9.1C104.3,47.7,104,48,103.6,48C103.6,48,103.6,48,103.6,48 M119.5,33.1
			c0,0.1-0.1,0.4-0.2,0.7l-5.9,15.4c-1.3,3.4-2.1,5.1-5.7,5.1h-1.4c-0.4,0-0.7-0.3-0.7-0.7c0,0,0,0,0,0v-1.6c0-0.4,0.3-0.7,0.7-0.7
			c0,0,0,0,0,0h1.1c1.8,0,2.4-0.9,2.8-2l0.5-1.3l-5.4-14c-0.1-0.4-0.3-0.7-0.3-0.9c0-0.3,0.2-0.5,0.5-0.5c0,0,0,0,0.1,0h2.2
			c0.2,0,0.6,0.1,0.7,0.7l4,10.7l3.8-10.7c0.1-0.4,0.4-0.6,0.7-0.6h2.2C119.3,32.5,119.4,32.7,119.5,33.1"/>
	</g>
	<path style="fill-rule:evenodd;clip-rule:evenodd;fill:#0092CB;" d="M18,29.5H0.7c-0.3,0-0.7,0.3-0.7,0.7l0,0.6l0,1.3
		c0,0.4,0.3,0.7,0.7,0.7l12.1,0l-3.3,3.3H0.8c-0.4,0-0.7,0.3-0.7,0.7c0,0,0,0,0,0v2c0,0.4,0.3,0.7,0.7,0.7l5.4,0l-5.8,5.8
		C0.1,45.5,0,45.7,0,46v1.4c0,0.4,0.3,0.7,0.7,0.7h1.4c0.3,0,0.5-0.1,0.7-0.2l12.4-12.4l0,4.4l-7.6,7.6c-0.2,0.2-0.2,0.7,0.4,0.7
		h3.2c0.3,0,0.6-0.1,0.8-0.3l3.2-3.2v2.9c0,0.3,0.3,0.6,0.7,0.6h2c0.3,0,0.6-0.3,0.6-0.6V30.1C18.6,29.8,18.3,29.5,18,29.5"/>
</g>
</svg>
