<?xml version="1.0" encoding="utf-8"?>
<svg version="1.1" id="Layer_1" xmlns="http://www.w3.org/2000/svg" xmlns:xlink="http://www.w3.org/1999/xlink" x="0px" y="0px"
	width="100px" height="100px" viewBox="0 0 100 100" style="enable-background:new 0 0 100 100;" xml:space="preserve">
<g>
	<path style="fill:#E8E8E8;" d="M50,0c27.61,0,50,22.39,50,50s-22.39,50-50,50S0,77.61,0,50S22.39,0,50,0"/>
	<path style="fill:#FFFFFF;" d="M50,1c27.06,0,49,21.94,49,49S77.06,99,50,99S1,77.06,1,50S22.94,1,50,1"/>
	<g>
		<polygon style="fill:#9C1C26;" points="42.97,38.41 33.64,38.41 33.58,69.84 25.49,69.84 25.49,38.48 16.21,38.41 16.21,30.28 
			42.97,30.28 		"/>
		<polygon style="fill:#9C1C26;" points="66.22,37.11 70.96,30.34 79.65,30.34 70.96,44.52 79.97,58.61 71.12,58.61 66.19,51.48 
			53.92,69.77 45.15,69.77 61.59,44.55 52.53,30.34 61.51,30.34 		"/>
		<path style="fill:#9C1C26;" d="M51.74,54.59c-0.63,5.66-4.37,10.85-9.46,13.35c-2.33,1.11-4.9,1.84-7.74,1.8v-7.87
			c4.27-0.13,7.72-2.88,9.01-6.58c0.22-0.35,0.25-0.91,0.35-1.32l0.07-23.8h7.81L51.74,54.59z"/>
		<path style="fill:#9C1C26;" d="M83.79,32.76c0-1.21-0.99-2.2-2.2-2.2c-1.22,0-2.22,0.99-2.2,2.2c0,1.22,0.99,2.2,2.2,2.2
			C82.8,34.96,83.79,33.98,83.79,32.76 M83.54,32.76c0,1.08-0.88,1.95-1.95,1.95s-1.95-0.88-1.95-1.95c0-1.08,0.88-1.95,1.94-1.95
			C82.66,30.81,83.54,31.68,83.54,32.76 M80.76,33.92h0.31v-1.04h0.79c0.51,0,0.36,0.45,0.41,0.73l0.05,0.31h0.36
			c-0.13-0.22-0.08-0.26-0.12-0.58c-0.03-0.41-0.05-0.46-0.3-0.61c0.23-0.18,0.33-0.3,0.31-0.61c-0.03-0.55-0.4-0.63-0.78-0.63
			h-1.06V33.92L80.76,33.92z M81.85,31.77c0.2,0,0.5,0.05,0.45,0.46c-0.03,0.31-0.23,0.36-0.45,0.36h-0.78v-0.84L81.85,31.77
			L81.85,31.77z"/>
	</g>
</g>
</svg>
