<?xml version="1.0" encoding="utf-8"?>
<svg version="1.1" id="Layer_1" xmlns="http://www.w3.org/2000/svg" xmlns:xlink="http://www.w3.org/1999/xlink" x="0px" y="0px"
	 viewBox="0 0 960 400" style="enable-background:new 0 0 960 400;" xml:space="preserve">
<g>
	<path style="fill:#00443D;" d="M0,200v200h480h480V200V0H480H0V200z M737,140c0,4.4,0.3,8,0.6,8c0.3,0,6.6-3.6,13.9-8l13.4-8
		l34.8,20.6c19.1,11.3,34.9,20.7,35.1,20.9c0.5,0.5-3.7,8.3-4.8,9c-0.6,0.4-15.2-7.7-32.5-17.9S765.6,146,765,146
		c-0.6,0-15.2,8.4-32.5,18.6s-31.9,18.3-32.5,17.9c-0.6-0.3-2-2.5-3.1-4.7c-1.7-3.3-1.8-4.3-0.7-4.9c0.7-0.4,7.6-4.5,15.3-9.1
		l14-8.3l0.3-11.8l0.3-11.7h5.4h5.5V140z M170,207.6c0,13.7,0.1,14.4,1.7,12.8c2.8-2.8,7.9-4.4,14-4.4c7.7,0.1,13.3,2.7,16.4,7.6
		c2.3,3.7,2.4,4.8,2.7,24.1l0.3,20.3h-5H195v-15.8c0-17.6-0.9-22.2-4.8-25.3c-2.2-1.7-3.7-2-8.1-1.7c-9.9,0.9-12.1,5.9-12.1,28V268
		h-5h-5v-37.5V193h5h5V207.6z M339.9,194c2.9,0.5,6.8,1.7,8.7,2.6c3.3,1.6,3.4,1.9,3.4,7c0,3-0.2,5.4-0.5,5.4
		c-0.3,0-1.6-0.7-2.8-1.4c-2.8-1.9-13.1-4.6-17.2-4.6c-5.5,0-13.5,3-17.4,6.6c-11.2,10.1-11.4,32.8-0.4,42.4
		c5.4,4.8,9.9,6.3,18.8,6.4c6.4,0,9.3-0.5,14.3-2.6l6.3-2.6l-0.3,5.6l-0.3,5.6l-5,2c-7,2.7-22.9,2.8-30.3,0.3
		c-15.9-5.6-25.3-23.2-22.4-42C298.4,202,316.6,189.6,339.9,194z M521,208v15l2.6-2.3c3.6-3.2,8-4.5,14.9-4.6
		c11.4-0.1,20.8,6.7,23.6,17.3c1.5,5.5,0.6,17.3-1.6,21.6c-4.6,9.2-11.7,13.4-22.5,13.4c-8,0-11.9-1.4-15.5-5.4l-2-2.2l-0.5,3.3
		c-0.5,3.3-0.7,3.4-5.2,3.7l-4.8,0.3v-37.5V193h5.5h5.5V208z M676,224.9c0,34.7,0.1,35.1,5.6,35.1c2.1,0,2.4,0.4,2.4,4v4h-5.9
		c-4.9,0-6.5-0.4-8.8-2.4l-2.8-2.4l-0.3-35.1l-0.3-35.1h5.1h5V224.9z M864,230.6v37.5l-4.7-0.3c-4.6-0.3-4.8-0.4-5.3-3.8
		c-0.4-2.5-0.7-3-1.2-1.8c-0.4,0.9-2.6,2.7-4.8,3.8c-12.3,6.3-28,1.5-34.3-10.4c-1.8-3.3-2.2-5.8-2.2-13.1c0-8.2,0.3-9.5,3.1-14.5
		c4.3-7.7,10.3-11.3,19.4-11.8c7.7-0.5,12.7,0.9,17,4.5l3,2.5v-15.1V193h5h5V230.6z M149,199v5h-10.5H128v32v32h-5.5H117v-32v-32
		h-10.5H96v-5v-5h26.5H149V199z M250.5,217.9c8,3.6,14.1,14.5,13.3,23.8l-0.3,3.8l-18.9,0.3l-18.8,0.2l0.6,3.3
		c1.1,6,8.8,10.7,17.6,10.7c3.1,0,8.1-1.1,15.8-3.5c2-0.7,2.2-0.4,2.2,3.4c0,3.5-0.4,4.3-2.9,5.6c-5.3,2.7-16.2,4-23.1,2.7
		c-13.2-2.4-19.9-9.6-20.8-22.2c-1.3-18.5,8.2-30,24.8-30C244.1,216,248,216.7,250.5,217.9z M454.4,217.4c1.8,0.7,4.2,2.5,5.3,3.9
		l2,2.6l2.3-2.4c5.5-5.9,17.1-7.4,24.4-3.2c7.1,4,8.1,7.3,8.4,29.9l0.3,19.8h-5H487v-15.8c-0.1-23.2-1.6-27.2-10.4-27.2
		c-9.6,0-11.8,4.8-12.4,26.7l-0.4,16.3h-4.9H454v-17c0-18.2-0.9-22.8-4.8-24.9c-2.9-1.5-7.8-1.4-11.1,0.4c-4.9,2.5-6.1,7.4-6.1,25.6
		v16l-5.2-0.3l-5.3-0.3l-0.3-25.3L421,217h5c4.7,0,5,0.1,5,2.7c0,2.4,0.1,2.5,1.8,1.1C438.1,216.1,447.6,214.6,454.4,217.4z
		 M604.1,217.1c9.1,3.1,13.9,10.1,14.7,21.6l0.5,7.3H600h-19.2l0.7,2.7c1.6,6.9,6.1,10,15.2,10.9c5.3,0.5,8.1,0,18.1-3.1
		c2.1-0.7,2.2-0.4,2.2,3.8c0,4.5,0,4.5-4.6,6.1c-11.8,4-25.2,2.9-32.7-2.7c-6.2-4.7-9.1-11.3-9.2-20.7c0-4.1,0.6-9.2,1.4-11.4
		c1.8-5.1,7.6-11.5,12.6-13.7C589.1,215.8,598.9,215.4,604.1,217.1z M658,220.5v4.5h-4.2c-5.6,0-8.7,1.7-11.2,6
		c-1.8,3.1-2.1,5.5-2.5,20.2l-0.3,16.8h-4.9H630v-25.5V217h4.5c4.4,0,4.5,0.1,4.5,3.2v3.2l2.8-2.7c3.5-3.3,6.6-4.6,12-4.6l4.2-0.1
		V220.5z M722.1,217.1c1.9,0.7,4.9,2.3,6.7,3.6l3.2,2.4v-3c0-3,0.1-3.1,5-3.1h5v25.5V268h-5h-5v-3.7v-3.6l-2.2,2
		c-4.6,4.2-9,5.7-16.3,5.8c-15.1,0-24.5-9.9-24.5-26c0-11.5,4.4-19.5,13.2-23.9C708,215.7,716.1,215.1,722.1,217.1z M792,218.2
		c3.1,1.6,5.1,3.6,6.7,6.7c2.2,4.2,2.3,5.5,2.3,23.8V268h-5h-5v-16.5c0-17.8-0.8-21.9-5.1-24.9c-2.8-1.9-9.4-2.1-12.8-0.3
		c-1.4,0.6-3.4,2.8-4.5,4.7c-1.8,3.1-2.1,5.5-2.5,20.2l-0.3,16.8h-4.9H756v-25.5V217h4.5c4.1,0,4.5,0.2,4.5,2.5
		c0,2.9,1.2,3.2,3.1,0.8C772.1,215.6,784.6,214.5,792,218.2z M375,232.7c0,18.6,0.9,22.6,5.3,25.3c6.1,3.7,12.9,2,15.9-4
		c1.5-2.9,1.8-6.3,1.8-20.3V217h5h5v17.2c0,9.5-0.5,19-1.1,21.1c-2.5,9.1-12.3,14.6-23.6,13.3c-6.6-0.8-10.2-2.5-13.6-6.6
		c-4-4.7-4.7-9-4.7-27.8V217h5h5V232.7z"/>
	<path style="fill:#00443D;" d="M528.1,227.2c-5.3,3.5-7.6,8.2-7.6,15.3c0,10.7,5.9,16.9,16.2,16.9c9.3,0,15.3-6.6,15.3-16.8
		c0-11-4.8-16.7-14.7-17.4C532.5,224.9,530.9,225.2,528.1,227.2z"/>
	<path style="fill:#00443D;" d="M830,226.9c-10.1,5.4-10.8,23.4-1.1,29.8c7.3,4.9,16.6,3.5,21.8-3.4c5.9-7.8,3.4-22.3-4.7-26.5
		C841.5,224.5,834.4,224.5,830,226.9z"/>
	<path style="fill:#00443D;" d="M233.1,226.3c-3,1.5-5.8,5.3-6.7,8.9l-0.6,2.8h13.6c13,0,13.6-0.1,13.6-2c0-3.4-2.8-7.9-6-9.5
		C243.5,224.7,236.4,224.6,233.1,226.3z"/>
	<path style="fill:#00443D;" d="M588.2,226.3c-2.8,1.6-5.1,4.8-6.2,8.7l-0.9,3h14h14l-0.6-2.3c-0.4-1.2-0.9-3-1.1-3.9
		c-0.3-0.9-1.9-2.9-3.5-4.3c-2.4-2-4.1-2.5-8.2-2.5C592.8,225.1,589.5,225.6,588.2,226.3z"/>
	<path style="fill:#00443D;" d="M708.1,226.8c-5.6,2.8-7.5,6.3-7.9,14.5c-0.2,5.7,0.1,8,1.6,10.7c2.6,4.8,7.5,7.4,13.7,7.4
		c9.8,0,15.5-6.2,15.5-17.1c0-7-2.2-11.9-6.9-15C719.9,224.5,713,224.3,708.1,226.8z"/>
</g>
</svg>
