<?xml version="1.0" encoding="utf-8"?>
<svg version="1.1" id="Layer_1" xmlns="http://www.w3.org/2000/svg" xmlns:xlink="http://www.w3.org/1999/xlink" x="0px" y="0px"
	width="100px" height="100px" viewBox="0 0 100 100" style="enable-background:new 0 0 100 100;" xml:space="preserve">
<g>
	<path style="fill:#E8E8E8;" d="M50,0c27.61,0,50,22.39,50,50s-22.39,50-50,50S0,77.61,0,50S22.39,0,50,0"/>
	<path style="fill:#FFFFFF;" d="M50,1c27.06,0,49,21.94,49,49S77.06,99,50,99S1,77.06,1,50S22.94,1,50,1"/>
	<g id="layer1" transform="translate(-249.85629,-460.69366)">
		<g id="g3130" transform="translate(20,10.000498)">
			<path id="path2489" style="fill-rule:evenodd;clip-rule:evenodd;fill:#E72024;" d="M260.67,505.27
				c-0.95,3.82-4.42,6.63-8.54,6.63c-4.85,0-8.78-3.94-8.77-8.79c-0.01-4.85,3.92-8.78,8.77-8.78c4.1,0,7.56,2.85,8.54,6.64h-3.57
				c-0.81-1.89-2.7-3.21-4.89-3.2c-2.96-0.01-5.35,2.38-5.35,5.34c0,2.96,2.4,5.36,5.35,5.36c2.19,0,4.08-1.31,4.89-3.19"/>
			<path id="path2491" style="fill-rule:evenodd;clip-rule:evenodd;fill:#E72024;" d="M270.07,494.33
				c-4.85-0.01-8.78,3.93-8.79,8.78c0.01,4.86,3.95,8.79,8.79,8.79c4.86,0,8.79-3.93,8.8-8.79
				C278.86,498.26,274.93,494.32,270.07,494.33 M270.07,508.41c-2.92,0.01-5.3-2.37-5.3-5.3c0-2.92,2.38-5.3,5.3-5.3
				c2.93,0.01,5.31,2.38,5.31,5.3C275.38,506.04,273,508.41,270.07,508.41"/>
			<path id="path2493" style="fill:#E72024;" d="M279.98,489.48v22.41h3.86v-22.41H279.98z"/>
			<path id="path2495" style="fill-rule:evenodd;clip-rule:evenodd;fill:#E72024;" d="M293.97,508.52c-2.7-0.01-4.95-1.99-4.95-4.38
				c0-0.09,0.01-0.17,0.02-0.25h12.64c0.01-6.97-3.6-9.59-8.02-9.59c-3.42,0-8.35,2.2-8.35,8.72c-0.01,5.4,3.91,8.89,8.35,8.88
				c3.82,0,7.06-2.3,7.85-6.11h-3.55C297.42,507.52,295.87,508.51,293.97,508.52 M293.6,497.4c2.23,0,4.07,1.55,4.34,3.51l-8.6-0.02
				l-0.09,0.04C289.5,498.94,291.35,497.4,293.6,497.4"/>
			<path id="path2497" style="fill-rule:evenodd;clip-rule:evenodd;fill:#E72024;" d="M312.51,499.85h3.34c0,0,0.15-2.99-2.34-4.49
				c0,0-1.18-1.07-4.47-1.07c0,0-3.32-0.04-4.82,1.46c0,0-1.56,1.18-1.57,3.49c0,0-0.27,2.23,1.91,3.62c0,0,1.78,0.85,3.49,1.35
				c0,0,2.78,0.76,3.25,1.04c0,0,2.39,1.1,0.96,2.5c0,0-0.64,0.9-2.81,0.9c0,0-3.79,0.13-3.79-2.75h-3.4c0,0-0.32,3.07,2.29,4.78
				c0,0,1.67,1.14,4.91,1.11c0,0,3.11-0.04,4.77-1.22c0,0,2.13-1.53,2.12-4.14c0,0,0.26-2.68-3.1-4.17c0,0-3.39-1.15-4.26-1.37
				c0,0-3.35-0.74-2.68-2.42c0,0,0.15-1.14,2.83-1.14c0,0,1.9-0.03,2.72,1.03C311.86,498.36,312.43,499.01,312.51,499.85"/>
		</g>
	</g>
</g>
</svg>
