<?xml version="1.0" encoding="utf-8"?>
<svg version="1.1" id="Layer_1" xmlns="http://www.w3.org/2000/svg" xmlns:xlink="http://www.w3.org/1999/xlink" x="0px" y="0px"
	width="100px" height="100px" viewBox="0 0 66.7 66.7" style="enable-background:new 0 0 66.7 66.7;" xml:space="preserve">
<g>
	<path style="fill:#01478D;" d="M66.7,33.3c0,18.4-14.9,33.3-33.3,33.3l0,0C14.9,66.7,0,51.7,0,33.3l0,0C0,14.9,14.9,0,33.3,0l0,0
		C51.7,0,66.7,14.9,66.7,33.3L66.7,33.3z"/>
	<path style="fill:#FFFFFF;" d="M27.6,29.8c0.1-0.2,0.3-0.3,0.9-0.3h0.1v-0.3h-3.7v0.3h0.3c0.7,0,0.8,0,0.9,0.3
		c0.1,0.2,0.1,0.4,0.1,1.5v1.7H22v-1.7c0-1.1,0-1.3,0.1-1.5c0.1-0.2,0.3-0.3,0.9-0.3h0.3v-0.3h-3.4h-0.3h-1.9v0.3
		c0.7,0,0.9,0.3,0.9,0.8c0,0.2,0,0.4-0.1,0.6l-0.1,0.5l-1.2,4.3l0,0l-2.5-6.5h-0.3l-2.1,6.5l0,0L10.7,31l-0.1-0.5
		c-0.1-0.2-0.1-0.5-0.1-0.5c0-0.3,0.1-0.4,0.8-0.5h0.1v-0.1H8.3v0.2h0.1c0.5,0,0.8,0.3,1.1,1.1l0.2,0.6l2,6.3h0.3l2.1-6.7l0,0
		l2.5,6.7h0.3l1.8-6.1c0.3-0.9,0.4-1.2,0.5-1.5c0.2-0.3,0.4-0.4,0.7-0.5c0.5,0,0.7,0.1,0.8,0.3c0.1,0.2,0.1,0.4,0.1,1.5v4
		c0,1.7-0.1,1.9-1.1,1.9h-0.2v0.2h3.9v-0.2h-0.2c-1,0-1-0.1-1-1.9v-2h4.1v2c0,1.7,0,1.9-1,1.9h-0.3v0.1h3.7v-0.2h-0.1
		c-1,0-1.1-0.1-1.1-1.9v-4C27.5,30.1,27.5,30,27.6,29.8L27.6,29.8z M30,34.7h0.3c0.1,1,0.5,1.5,0.8,1.9c0.5,0.5,1,0.7,1.6,0.7
		c1.1,0,1.8-0.7,1.8-1.6c0-0.7-0.5-1.3-1.7-1.8l-0.5-0.2c-1.1-0.5-1.5-0.8-1.9-1.2c-0.2-0.4-0.4-0.8-0.4-1.3c0-1.1,0.9-2.1,2.1-2.1
		c0.8,0,1.3,0.3,1.9,0.9c0.2-0.2,0.3-0.5,0.3-0.7h0.3v2.1h-0.3c-0.3-1.2-1.1-2-2.2-2c-0.9,0-1.4,0.5-1.4,1.3c0,0.5,0.3,0.9,0.7,1.1
		c0.3,0.2,0.5,0.3,1.2,0.6l1.5,0.7c0.3,0.1,0.5,0.4,0.6,0.5c0.3,0.4,0.5,0.9,0.5,1.5c0,1.3-1.1,2.3-2.6,2.3c-0.9,0-1.7-0.3-2.2-1.1
		c-0.1,0.2-0.2,0.5-0.3,0.8h-0.3L30,34.7L30,34.7C29.9,34.7,30,34.7,30,34.7z M37.5,32.3c0.1,0.3,0.2,0.6,0.2,0.9v0.1l0,0
		c0.5-0.7,1.1-1.1,1.8-1.1c0.8,0,1.3,0.3,1.6,1.1c0.7-0.8,1.2-1.1,2-1.1c0.5,0,1,0.2,1.3,0.5c0.2,0.3,0.3,0.5,0.3,1.4v1.5
		c0,1,0,1.1,0.1,1.2c0.1,0.2,0.3,0.3,0.7,0.3h-0.1v0.2h-2.4v-0.2l0,0c0.6,0,0.7-0.2,0.7-0.8v-0.7v-1.7c0-1.1-0.3-1.3-1-1.3
		c-0.5,0-1.1,0.3-1.6,1.1v1.9c0,1,0,1,0.1,1.1c0.1,0.1,0.3,0.2,0.6,0.2l0,0v0.3h-2.4v-0.3h0.1c0.6,0,0.8-0.1,0.8-0.7v-0.6v-1.3
		c0-1.3-0.3-1.7-1.1-1.7c-0.5,0-0.9,0.2-1.5,0.9l-0.1,0.1v2.1c0,1,0,1,0.1,1.1c0.1,0.1,0.3,0.2,0.7,0.2l0,0v0.3h-2.4V37h0.1
		c0.6,0,0.7-0.1,0.7-0.7v-0.6v-1.5c0-1,0-1.1-0.1-1.2c-0.1-0.1-0.3-0.3-0.7-0.3H36v-0.3C36.6,32.5,37.1,32.4,37.5,32.3L37.5,32.3
		L37.5,32.3z M47.6,35.7c0,1,0,1.1,0.1,1.2c0.1,0.2,0.3,0.3,0.6,0.3h0.2v0.2h-2.7v-0.2h0.2c0.6,0,0.7-0.2,0.7-0.8v-0.7v-1.5
		c0-1.3-0.1-1.4-0.8-1.4h-0.2v-0.3c0.5,0,1.3-0.2,1.7-0.3h0.2L47.6,35.7C47.6,35.7,47.6,35.7,47.6,35.7z M47.1,29.1
		c0.3,0,0.6,0.3,0.6,0.6c0,0.3-0.3,0.6-0.6,0.6c-0.3,0-0.6-0.3-0.6-0.6C46.4,29.4,46.7,29.1,47.1,29.1L47.1,29.1z M50.3,32.7v3
		c0,1.1,0.1,1.5,0.7,1.5c0.3,0,0.5-0.1,0.7-0.5l0.2,0.1c-0.2,0.5-0.7,0.8-1.3,0.8c-0.5,0-0.9-0.2-1.1-0.6c-0.1-0.3-0.2-0.5-0.2-1.5
		v-2.7h-0.7v-0.2c0.7,0,1.2-0.5,1.3-1.5h0.2v1.5h1.5v0.2H50.3L50.3,32.7z M54,33.3L54,33.3c0.5-0.7,1.1-1,1.8-1
		c0.5,0,0.9,0.1,1.3,0.4c0.4,0.3,0.5,0.6,0.5,1.7v1.3c0,1,0,1.1,0.1,1.2c0.1,0.2,0.3,0.3,0.7,0.3h0.1v0.2h-2.6v-0.2h0.1
		c0.6,0,0.7-0.2,0.7-0.8v-0.7v-1.5c0-1.2-0.3-1.6-1.1-1.6c-0.5,0-1.1,0.4-1.5,1.1v2c0,1,0,1,0.1,1.1c0.1,0.2,0.3,0.2,0.7,0.2h0.1
		v0.3h-2.6V37h0.1c0.6,0,0.7-0.1,0.7-0.7v-0.6v-4.9c0-1-0.1-1.1-0.7-1.1h-0.1v-0.3h0.1c0.2,0,0.7,0,1.1-0.1c0.2,0,0.2-0.1,0.4-0.1
		h0.1L54,33.3L54,33.3L54,33.3z"/>
</g>
</svg>
