<?xml version="1.0" encoding="utf-8"?>
<svg version="1.1" id="Layer_1" xmlns="http://www.w3.org/2000/svg" xmlns:xlink="http://www.w3.org/1999/xlink" x="0px" y="0px"
	width="100px" height="100px" viewBox="0 0 100 100" style="enable-background:new 0 0 100 100;" xml:space="preserve">
<g>
	<path style="fill:#E8E8E8;" d="M50,0c27.61,0,50,22.39,50,50s-22.39,50-50,50S0,77.61,0,50S22.39,0,50,0"/>
	<path style="fill:#FFFFFF;" d="M50,1c27.06,0,49,21.94,49,49S77.06,99,50,99S1,77.06,1,50S22.94,1,50,1"/>
	<g transform="matrix(1.25,0,0,-1.25,-32.478687,771.24195)">
		<g transform="matrix(2.0497332,0,0,2.0497332,-32.700912,-639.82126)">
			<path style="fill:#007CC1;" d="M48.17,602.06c-3.57,0-6.63-2.28-7.83-5.43l-0.05-0.12h0.13h0.9h0.05l0.03,0.05
				c1.12,2.63,3.73,4.48,6.78,4.48c1.6,0,3.07-0.51,4.27-1.37c-0.04-0.13-0.07-0.26-0.07-0.41c0-0.75,0.61-1.37,1.36-1.37
				c0.14,0,0.28,0.04,0.41,0.08c0.31-0.43,0.58-0.9,0.8-1.4l0.03-0.05h0.06h0.91h0.13l-0.05,0.12c-0.27,0.71-0.63,1.39-1.08,1.99
				c0.1,0.19,0.19,0.41,0.19,0.64c0,0.76-0.62,1.37-1.37,1.37c-0.24,0-0.46-0.08-0.66-0.19C51.71,601.45,50.01,602.06,48.17,602.06z
				 M63.26,597.09v-0.08v-1.4h-1.03c-0.26,0-0.51-0.06-0.74-0.16c0,0-0.01,0-0.02,0v-0.01c-0.23-0.1-0.43-0.24-0.6-0.41h-0.02
				c-0.17-0.17-0.32-0.37-0.42-0.61c-0.1-0.23-0.15-0.49-0.15-0.76c0-0.26,0.05-0.51,0.15-0.74c0.1-0.23,0.24-0.45,0.42-0.63
				c0.18-0.18,0.38-0.31,0.62-0.41l0.02-0.01c0.24-0.1,0.48-0.15,0.74-0.15s0.51,0.05,0.75,0.15h0.01v0.01
				c0.24,0.1,0.43,0.23,0.61,0.41c0.18,0.18,0.31,0.4,0.41,0.63c0.1,0.24,0.17,0.48,0.17,0.74v3.34v0.08h-0.09h-0.73H63.26
				L63.26,597.09z M34.05,595.62c-0.25,0-0.49-0.06-0.73-0.16c-0.24-0.09-0.45-0.23-0.64-0.42c-0.19-0.19-0.33-0.39-0.42-0.63
				c-0.09-0.23-0.14-0.48-0.14-0.73c0-0.25,0.05-0.5,0.14-0.73c0.09-0.24,0.23-0.45,0.42-0.64c0.19-0.19,0.41-0.32,0.64-0.42
				c0.24-0.09,0.48-0.15,0.73-0.15c0.25,0,0.49,0.05,0.72,0.15c0.24,0.1,0.46,0.23,0.65,0.42l0.25,0.26l0.07,0.07l-0.05,0.07
				l-0.52,0.51l-0.07,0.07l-0.06-0.07l-0.26-0.26c-0.1-0.1-0.2-0.18-0.33-0.23c-0.13-0.05-0.26-0.08-0.4-0.08
				c-0.29,0-0.53,0.1-0.73,0.31c-0.1,0.1-0.18,0.22-0.23,0.35c-0.05,0.13-0.08,0.25-0.08,0.39s0.02,0.27,0.08,0.4
				c0.05,0.13,0.13,0.23,0.23,0.33c0.1,0.1,0.21,0.17,0.34,0.22c0.13,0.05,0.26,0.08,0.4,0.08s0.26-0.02,0.39-0.08
				c0.13-0.05,0.24-0.12,0.35-0.22l0.26-0.26l0.06-0.07l0.07,0.07l0.52,0.51l0.05,0.07l-0.07,0.05l-0.25,0.26
				c-0.19,0.19-0.41,0.33-0.65,0.42C34.54,595.56,34.3,595.62,34.05,595.62z M37.92,595.62c-0.25,0-0.5-0.06-0.74-0.16
				c-0.24-0.09-0.44-0.23-0.63-0.42c-0.19-0.19-0.33-0.39-0.42-0.63c-0.09-0.23-0.14-0.48-0.14-0.73c0-0.25,0.05-0.49,0.14-0.73
				c0.09-0.24,0.23-0.45,0.42-0.64c0.18-0.18,0.4-0.32,0.63-0.42c0.24-0.1,0.48-0.15,0.74-0.15s0.5,0.05,0.73,0.15
				c0.24,0.1,0.45,0.24,0.63,0.42l0.26,0.26l0.07,0.07l-0.07,0.07l-0.51,0.51l-0.07,0.07l-0.05-0.07l-0.26-0.26
				c-0.17-0.16-0.36-0.26-0.58-0.3c-0.17-0.02-0.32,0.03-0.48,0.08l1.94,1.93l0.07,0.07l-0.07,0.05l-0.26,0.26
				c-0.19,0.19-0.4,0.33-0.64,0.42C38.4,595.56,38.16,595.62,37.92,595.62z M41.77,595.62c-0.26,0-0.51-0.05-0.75-0.16
				c-0.24-0.1-0.45-0.24-0.63-0.42c-0.17-0.17-0.31-0.37-0.41-0.61c-0.1-0.23-0.14-0.49-0.14-0.76v-1.85v-0.09h0.08h0.74h0.08v0.09
				v1.85c0,0.14,0.02,0.28,0.08,0.4c0.06,0.13,0.13,0.24,0.22,0.33c0.1,0.1,0.21,0.17,0.33,0.22c0.13,0.06,0.26,0.08,0.4,0.08
				c0.14,0,0.28-0.02,0.41-0.08c0.13-0.05,0.23-0.12,0.32-0.22l0.01-0.01c0.1-0.09,0.17-0.19,0.22-0.32
				c0.06-0.12,0.08-0.26,0.08-0.4v-1.85v-0.09h0.09h0.73h0.09v0.09v1.85c0,0.27-0.06,0.53-0.17,0.76c-0.1,0.24-0.23,0.43-0.41,0.61
				c-0.18,0.18-0.38,0.32-0.62,0.42C42.29,595.57,42.04,595.62,41.77,595.62z M45.93,595.62c-0.25,0-0.49-0.06-0.73-0.16
				c-0.24-0.09-0.45-0.23-0.64-0.42c-0.19-0.19-0.33-0.39-0.43-0.63c-0.09-0.23-0.14-0.48-0.14-0.73c0-0.25,0.05-0.5,0.14-0.73
				c0.09-0.24,0.24-0.45,0.43-0.64c0.19-0.19,0.4-0.32,0.64-0.42c0.24-0.09,0.48-0.15,0.73-0.15c0.25,0,0.48,0.05,0.72,0.15
				c0.24,0.1,0.45,0.23,0.64,0.42h0.02l0.24,0.26l0.07,0.07l-0.07,0.07l-0.5,0.51l-0.06,0.07l-0.07-0.07l-0.26-0.26
				c-0.1-0.1-0.21-0.18-0.34-0.23c-0.13-0.05-0.26-0.08-0.4-0.08c-0.29,0-0.53,0.1-0.73,0.31c-0.1,0.1-0.18,0.22-0.23,0.35
				c-0.05,0.13-0.08,0.25-0.08,0.39s0.03,0.27,0.08,0.4c0.05,0.13,0.11,0.23,0.22,0.33h0.02c0.1,0.1,0.2,0.17,0.33,0.22
				c0.13,0.05,0.27,0.08,0.4,0.08s0.25-0.02,0.38-0.08c0.13-0.05,0.25-0.12,0.35-0.22l0.26-0.26l0.07-0.07l0.06,0.07l0.5,0.51
				l0.07,0.07l-0.07,0.05l-0.24,0.26c-0.19,0.19-0.41,0.33-0.66,0.42C46.41,595.56,46.17,595.62,45.93,595.62z M49.77,595.62
				c-0.26,0-0.51-0.05-0.75-0.16c-0.24-0.1-0.43-0.24-0.61-0.42c-0.17-0.17-0.32-0.37-0.43-0.61c-0.1-0.23-0.14-0.49-0.14-0.76
				c0-0.26,0.04-0.51,0.14-0.74c0.1-0.23,0.25-0.45,0.43-0.63c0.18-0.18,0.38-0.31,0.61-0.41v-0.01c0.24-0.1,0.48-0.15,0.75-0.15
				c0.27,0,0.53,0.05,0.76,0.15v0.01c0.24,0.1,0.44,0.23,0.62,0.41c0.18,0.18,0.33,0.4,0.43,0.63c0.1,0.24,0.15,0.48,0.15,0.74
				c0,0.27-0.05,0.53-0.15,0.76c-0.1,0.24-0.25,0.43-0.43,0.61c-0.18,0.18-0.38,0.32-0.62,0.42
				C50.3,595.57,50.04,595.62,49.77,595.62z M53.18,595.62c-0.17,0-0.32-0.04-0.47-0.11c-0.14-0.06-0.27-0.13-0.38-0.24
				s-0.19-0.24-0.26-0.39c-0.06-0.14-0.09-0.3-0.09-0.46c0-0.16,0.03-0.32,0.09-0.47v-0.01c0.06-0.14,0.15-0.26,0.26-0.37
				c0.11-0.11,0.23-0.2,0.38-0.26c0.15-0.06,0.31-0.09,0.47-0.09h1.49c0.09,0,0.15-0.03,0.21-0.09c0.06-0.06,0.09-0.12,0.09-0.21
				c0-0.09-0.03-0.15-0.09-0.21c-0.06-0.06-0.11-0.09-0.21-0.09h-2.23h-0.09v-0.08v-0.73v-0.09h0.09h2.23
				c0.16,0,0.32,0.03,0.47,0.09c0.15,0.06,0.26,0.15,0.37,0.26c0.11,0.11,0.2,0.24,0.26,0.39c0.06,0.15,0.11,0.3,0.11,0.47
				s-0.04,0.32-0.11,0.46c-0.06,0.15-0.14,0.28-0.26,0.39c-0.1,0.1-0.23,0.18-0.37,0.24c-0.01,0-0.01,0.01-0.02,0.02v-0.02
				c-0.14,0.06-0.29,0.11-0.45,0.11h-1.49c-0.09,0-0.15,0.02-0.21,0.08c-0.06,0.06-0.08,0.14-0.08,0.22s0.02,0.15,0.08,0.21
				c0.06,0.06,0.12,0.08,0.21,0.08h2.23h0.09v0.09v0.73v0.09h-0.09H53.18L53.18,595.62z M56.15,595.62v-0.09v-1.85
				c0-0.26,0.04-0.51,0.14-0.74c0.1-0.23,0.24-0.45,0.41-0.63c0.18-0.18,0.4-0.31,0.63-0.41v-0.01c0.24-0.1,0.48-0.15,0.74-0.15
				c0.27,0,0.53,0.05,0.76,0.15v0.01c0.23,0.1,0.44,0.23,0.62,0.41c0.18,0.18,0.31,0.4,0.41,0.63c0.1,0.24,0.16,0.48,0.16,0.74v1.85
				v0.09h-0.08h-0.75h-0.08v-0.09v-1.85c0-0.14-0.03-0.27-0.09-0.4c-0.05-0.13-0.12-0.24-0.22-0.34c-0.09-0.09-0.19-0.17-0.32-0.23
				c-0.13-0.05-0.27-0.08-0.41-0.08c-0.14,0-0.27,0.03-0.4,0.08c0,0-0.01,0-0.02,0c-0.12,0.06-0.23,0.14-0.32,0.23
				c-0.09,0.1-0.16,0.21-0.22,0.34c-0.05,0.13-0.08,0.25-0.08,0.4v1.85v0.09h-0.09h-0.73H56.15z M37.87,594.72
				c0.13-0.01,0.25-0.04,0.36-0.08c-0.06-0.06-0.13-0.12-0.22-0.21c-0.14-0.14-0.28-0.28-0.44-0.44l-0.42-0.44
				c-0.08-0.08-0.14-0.13-0.2-0.19c-0.04,0.1-0.08,0.21-0.08,0.32c0,0.29,0.09,0.53,0.3,0.73c0.16,0.16,0.35,0.26,0.56,0.3
				C37.78,594.72,37.82,594.72,37.87,594.72z M49.77,594.71c0.14,0,0.28-0.02,0.41-0.08c0.13-0.05,0.23-0.12,0.32-0.22h0.02
				c0.1-0.09,0.16-0.2,0.22-0.33c0.05-0.12,0.08-0.26,0.08-0.4s-0.02-0.27-0.08-0.4c-0.05-0.13-0.12-0.25-0.22-0.35
				c-0.09-0.09-0.21-0.16-0.34-0.22c-0.13-0.05-0.27-0.08-0.41-0.08c-0.14,0-0.27,0.02-0.4,0.08c-0.13,0.06-0.24,0.14-0.34,0.23
				c-0.09,0.1-0.17,0.21-0.23,0.34h0.01c-0.05,0.13-0.08,0.25-0.08,0.4s0.02,0.28,0.08,0.4h-0.01c0.06,0.13,0.14,0.24,0.23,0.33
				c0.1,0.1,0.21,0.17,0.34,0.22C49.5,594.69,49.63,594.71,49.77,594.71L49.77,594.71z M62.23,594.71h1.03v-1.03
				c0-0.14-0.02-0.27-0.08-0.4c-0.05-0.13-0.13-0.24-0.23-0.34c-0.09-0.09-0.19-0.17-0.32-0.23c-0.12-0.05-0.26-0.08-0.4-0.08
				c-0.14,0-0.27,0.03-0.4,0.08c0,0-0.01,0-0.02,0c-0.13,0.06-0.24,0.14-0.33,0.23c-0.09,0.09-0.16,0.21-0.22,0.34
				c-0.05,0.13-0.08,0.25-0.08,0.4c0,0.14,0.02,0.28,0.08,0.4c0.06,0.13,0.13,0.24,0.22,0.33c0.1,0.1,0.2,0.17,0.33,0.22h0.02
				C61.96,594.69,62.09,594.71,62.23,594.71z M40.23,590.75l0.06-0.11c1.2-3.16,4.24-5.42,7.82-5.42c3.58,0,6.65,2.26,7.85,5.42
				l0.04,0.11h-0.12h-0.92h-0.07l-0.02-0.06c-1.13-2.62-3.74-4.46-6.77-4.46c-3.04,0-5.65,1.84-6.77,4.46l-0.02,0.06h-0.07h-0.9
				H40.23z"/>
			<path style="fill:#F9A41E;" d="M53.75,599.99c-0.4,0-0.73-0.32-0.73-0.72c0-0.4,0.33-0.72,0.73-0.72c0.4,0,0.72,0.32,0.72,0.72
				C54.47,599.68,54.15,599.99,53.75,599.99z"/>
		</g>
	</g>
	<g transform="matrix(1.25,0,0,-1.25,-32.478687,771.24195)">
		<g transform="matrix(2.0497332,0,0,2.0497332,-32.700912,-639.82126)">
			<path style="fill:#007CC1;" d="M48.17,602.06c-3.57,0-6.63-2.28-7.83-5.43l-0.05-0.12h0.13h0.9h0.05l0.03,0.05
				c1.12,2.63,3.73,4.48,6.78,4.48c1.6,0,3.07-0.51,4.27-1.37c-0.04-0.13-0.07-0.26-0.07-0.41c0-0.75,0.61-1.37,1.36-1.37
				c0.14,0,0.28,0.04,0.41,0.08c0.31-0.43,0.58-0.9,0.8-1.4l0.03-0.05h0.06h0.91h0.13l-0.05,0.12c-0.27,0.71-0.63,1.39-1.08,1.99
				c0.1,0.19,0.19,0.41,0.19,0.64c0,0.76-0.62,1.37-1.37,1.37c-0.24,0-0.46-0.08-0.66-0.19C51.71,601.45,50.01,602.06,48.17,602.06z
				 M63.26,597.09v-0.08v-1.4h-1.03c-0.26,0-0.51-0.06-0.74-0.16c0,0-0.01,0-0.02,0v-0.01c-0.23-0.1-0.43-0.24-0.6-0.41h-0.02
				c-0.17-0.17-0.32-0.37-0.42-0.61c-0.1-0.23-0.15-0.49-0.15-0.76c0-0.26,0.05-0.51,0.15-0.74c0.1-0.23,0.24-0.45,0.42-0.63
				c0.18-0.18,0.38-0.31,0.62-0.41l0.02-0.01c0.24-0.1,0.48-0.15,0.74-0.15s0.51,0.05,0.75,0.15h0.01v0.01
				c0.24,0.1,0.43,0.23,0.61,0.41c0.18,0.18,0.31,0.4,0.41,0.63c0.1,0.24,0.17,0.48,0.17,0.74v3.34v0.08h-0.09h-0.73H63.26
				L63.26,597.09z M34.05,595.62c-0.25,0-0.49-0.06-0.73-0.16c-0.24-0.09-0.45-0.23-0.64-0.42c-0.19-0.19-0.33-0.39-0.42-0.63
				c-0.09-0.23-0.14-0.48-0.14-0.73c0-0.25,0.05-0.5,0.14-0.73c0.09-0.24,0.23-0.45,0.42-0.64c0.19-0.19,0.41-0.32,0.64-0.42
				c0.24-0.09,0.48-0.15,0.73-0.15c0.25,0,0.49,0.05,0.72,0.15c0.24,0.1,0.46,0.23,0.65,0.42l0.25,0.26l0.07,0.07l-0.05,0.07
				l-0.52,0.51l-0.07,0.07l-0.06-0.07l-0.26-0.26c-0.1-0.1-0.2-0.18-0.33-0.23c-0.13-0.05-0.26-0.08-0.4-0.08
				c-0.29,0-0.53,0.1-0.73,0.31c-0.1,0.1-0.18,0.22-0.23,0.35c-0.05,0.13-0.08,0.25-0.08,0.39s0.02,0.27,0.08,0.4
				c0.05,0.13,0.13,0.23,0.23,0.33c0.1,0.1,0.21,0.17,0.34,0.22c0.13,0.05,0.26,0.08,0.4,0.08s0.26-0.02,0.39-0.08
				c0.13-0.05,0.24-0.12,0.35-0.22l0.26-0.26l0.06-0.07l0.07,0.07l0.52,0.51l0.05,0.07l-0.07,0.05l-0.25,0.26
				c-0.19,0.19-0.41,0.33-0.65,0.42C34.54,595.56,34.3,595.62,34.05,595.62z M37.92,595.62c-0.25,0-0.5-0.06-0.74-0.16
				c-0.24-0.09-0.44-0.23-0.63-0.42c-0.19-0.19-0.33-0.39-0.42-0.63c-0.09-0.23-0.14-0.48-0.14-0.73c0-0.25,0.05-0.49,0.14-0.73
				c0.09-0.24,0.23-0.45,0.42-0.64c0.18-0.18,0.4-0.32,0.63-0.42c0.24-0.1,0.48-0.15,0.74-0.15s0.5,0.05,0.73,0.15
				c0.24,0.1,0.45,0.24,0.63,0.42l0.26,0.26l0.07,0.07l-0.07,0.07l-0.51,0.51l-0.07,0.07l-0.05-0.07l-0.26-0.26
				c-0.17-0.16-0.36-0.26-0.58-0.3c-0.17-0.02-0.32,0.03-0.48,0.08l1.94,1.93l0.07,0.07l-0.07,0.05l-0.26,0.26
				c-0.19,0.19-0.4,0.33-0.64,0.42C38.4,595.56,38.16,595.62,37.92,595.62z M41.77,595.62c-0.26,0-0.51-0.05-0.75-0.16
				c-0.24-0.1-0.45-0.24-0.63-0.42c-0.17-0.17-0.31-0.37-0.41-0.61c-0.1-0.23-0.14-0.49-0.14-0.76v-1.85v-0.09h0.08h0.74h0.08v0.09
				v1.85c0,0.14,0.02,0.28,0.08,0.4c0.06,0.13,0.13,0.24,0.22,0.33c0.1,0.1,0.21,0.17,0.33,0.22c0.13,0.06,0.26,0.08,0.4,0.08
				c0.14,0,0.28-0.02,0.41-0.08c0.13-0.05,0.23-0.12,0.32-0.22l0.01-0.01c0.1-0.09,0.17-0.19,0.22-0.32
				c0.06-0.12,0.08-0.26,0.08-0.4v-1.85v-0.09h0.09h0.73h0.09v0.09v1.85c0,0.27-0.06,0.53-0.17,0.76c-0.1,0.24-0.23,0.43-0.41,0.61
				c-0.18,0.18-0.38,0.32-0.62,0.42C42.29,595.57,42.04,595.62,41.77,595.62z M45.93,595.62c-0.25,0-0.49-0.06-0.73-0.16
				c-0.24-0.09-0.45-0.23-0.64-0.42c-0.19-0.19-0.33-0.39-0.43-0.63c-0.09-0.23-0.14-0.48-0.14-0.73c0-0.25,0.05-0.5,0.14-0.73
				c0.09-0.24,0.24-0.45,0.43-0.64c0.19-0.19,0.4-0.32,0.64-0.42c0.24-0.09,0.48-0.15,0.73-0.15c0.25,0,0.48,0.05,0.72,0.15
				c0.24,0.1,0.45,0.23,0.64,0.42h0.02l0.24,0.26l0.07,0.07l-0.07,0.07l-0.5,0.51l-0.06,0.07l-0.07-0.07l-0.26-0.26
				c-0.1-0.1-0.21-0.18-0.34-0.23c-0.13-0.05-0.26-0.08-0.4-0.08c-0.29,0-0.53,0.1-0.73,0.31c-0.1,0.1-0.18,0.22-0.23,0.35
				c-0.05,0.13-0.08,0.25-0.08,0.39s0.03,0.27,0.08,0.4c0.05,0.13,0.11,0.23,0.22,0.33h0.02c0.1,0.1,0.2,0.17,0.33,0.22
				c0.13,0.05,0.27,0.08,0.4,0.08s0.25-0.02,0.38-0.08c0.13-0.05,0.25-0.12,0.35-0.22l0.26-0.26l0.07-0.07l0.06,0.07l0.5,0.51
				l0.07,0.07l-0.07,0.05l-0.24,0.26c-0.19,0.19-0.41,0.33-0.66,0.42C46.41,595.56,46.17,595.62,45.93,595.62z M49.77,595.62
				c-0.26,0-0.51-0.05-0.75-0.16c-0.24-0.1-0.43-0.24-0.61-0.42c-0.17-0.17-0.32-0.37-0.43-0.61c-0.1-0.23-0.14-0.49-0.14-0.76
				c0-0.26,0.04-0.51,0.14-0.74c0.1-0.23,0.25-0.45,0.43-0.63c0.18-0.18,0.38-0.31,0.61-0.41v-0.01c0.24-0.1,0.48-0.15,0.75-0.15
				c0.27,0,0.53,0.05,0.76,0.15v0.01c0.24,0.1,0.44,0.23,0.62,0.41c0.18,0.18,0.33,0.4,0.43,0.63c0.1,0.24,0.15,0.48,0.15,0.74
				c0,0.27-0.05,0.53-0.15,0.76c-0.1,0.24-0.25,0.43-0.43,0.61c-0.18,0.18-0.38,0.32-0.62,0.42
				C50.3,595.57,50.04,595.62,49.77,595.62z M53.18,595.62c-0.17,0-0.32-0.04-0.47-0.11c-0.14-0.06-0.27-0.13-0.38-0.24
				s-0.19-0.24-0.26-0.39c-0.06-0.14-0.09-0.3-0.09-0.46c0-0.16,0.03-0.32,0.09-0.47v-0.01c0.06-0.14,0.15-0.26,0.26-0.37
				c0.11-0.11,0.23-0.2,0.38-0.26c0.15-0.06,0.31-0.09,0.47-0.09h1.49c0.09,0,0.15-0.03,0.21-0.09c0.06-0.06,0.09-0.12,0.09-0.21
				c0-0.09-0.03-0.15-0.09-0.21c-0.06-0.06-0.11-0.09-0.21-0.09h-2.23h-0.09v-0.08v-0.73v-0.09h0.09h2.23
				c0.16,0,0.32,0.03,0.47,0.09c0.15,0.06,0.26,0.15,0.37,0.26c0.11,0.11,0.2,0.24,0.26,0.39c0.06,0.15,0.11,0.3,0.11,0.47
				s-0.04,0.32-0.11,0.46c-0.06,0.15-0.14,0.28-0.26,0.39c-0.1,0.1-0.23,0.18-0.37,0.24c-0.01,0-0.01,0.01-0.02,0.02v-0.02
				c-0.14,0.06-0.29,0.11-0.45,0.11h-1.49c-0.09,0-0.15,0.02-0.21,0.08c-0.06,0.06-0.08,0.14-0.08,0.22s0.02,0.15,0.08,0.21
				c0.06,0.06,0.12,0.08,0.21,0.08h2.23h0.09v0.09v0.73v0.09h-0.09H53.18L53.18,595.62z M56.15,595.62v-0.09v-1.85
				c0-0.26,0.04-0.51,0.14-0.74c0.1-0.23,0.24-0.45,0.41-0.63c0.18-0.18,0.4-0.31,0.63-0.41v-0.01c0.24-0.1,0.48-0.15,0.74-0.15
				c0.27,0,0.53,0.05,0.76,0.15v0.01c0.23,0.1,0.44,0.23,0.62,0.41c0.18,0.18,0.31,0.4,0.41,0.63c0.1,0.24,0.16,0.48,0.16,0.74v1.85
				v0.09h-0.08h-0.75h-0.08v-0.09v-1.85c0-0.14-0.03-0.27-0.09-0.4c-0.05-0.13-0.12-0.24-0.22-0.34c-0.09-0.09-0.19-0.17-0.32-0.23
				c-0.13-0.05-0.27-0.08-0.41-0.08c-0.14,0-0.27,0.03-0.4,0.08c0,0-0.01,0-0.02,0c-0.12,0.06-0.23,0.14-0.32,0.23
				c-0.09,0.1-0.16,0.21-0.22,0.34c-0.05,0.13-0.08,0.25-0.08,0.4v1.85v0.09h-0.09h-0.73H56.15z M37.87,594.72
				c0.13-0.01,0.25-0.04,0.36-0.08c-0.06-0.06-0.13-0.12-0.22-0.21c-0.14-0.14-0.28-0.28-0.44-0.44l-0.42-0.44
				c-0.08-0.08-0.14-0.13-0.2-0.19c-0.04,0.1-0.08,0.21-0.08,0.32c0,0.29,0.09,0.53,0.3,0.73c0.16,0.16,0.35,0.26,0.56,0.3
				C37.78,594.72,37.82,594.72,37.87,594.72z M49.77,594.71c0.14,0,0.28-0.02,0.41-0.08c0.13-0.05,0.23-0.12,0.32-0.22h0.02
				c0.1-0.09,0.16-0.2,0.22-0.33c0.05-0.12,0.08-0.26,0.08-0.4s-0.02-0.27-0.08-0.4c-0.05-0.13-0.12-0.25-0.22-0.35
				c-0.09-0.09-0.21-0.16-0.34-0.22c-0.13-0.05-0.27-0.08-0.41-0.08c-0.14,0-0.27,0.02-0.4,0.08c-0.13,0.06-0.24,0.14-0.34,0.23
				c-0.09,0.1-0.17,0.21-0.23,0.34h0.01c-0.05,0.13-0.08,0.25-0.08,0.4s0.02,0.28,0.08,0.4h-0.01c0.06,0.13,0.14,0.24,0.23,0.33
				c0.1,0.1,0.21,0.17,0.34,0.22C49.5,594.69,49.63,594.71,49.77,594.71L49.77,594.71z M62.23,594.71h1.03v-1.03
				c0-0.14-0.02-0.27-0.08-0.4c-0.05-0.13-0.13-0.24-0.23-0.34c-0.09-0.09-0.19-0.17-0.32-0.23c-0.12-0.05-0.26-0.08-0.4-0.08
				c-0.14,0-0.27,0.03-0.4,0.08c0,0-0.01,0-0.02,0c-0.13,0.06-0.24,0.14-0.33,0.23c-0.09,0.09-0.16,0.21-0.22,0.34
				c-0.05,0.13-0.08,0.25-0.08,0.4c0,0.14,0.02,0.28,0.08,0.4c0.06,0.13,0.13,0.24,0.22,0.33c0.1,0.1,0.2,0.17,0.33,0.22h0.02
				C61.96,594.69,62.09,594.71,62.23,594.71z M40.23,590.75l0.06-0.11c1.2-3.16,4.24-5.42,7.82-5.42c3.58,0,6.65,2.26,7.85,5.42
				l0.04,0.11h-0.12h-0.92h-0.07l-0.02-0.06c-1.13-2.62-3.74-4.46-6.77-4.46c-3.04,0-5.65,1.84-6.77,4.46l-0.02,0.06h-0.07h-0.9
				H40.23z"/>
			<path style="fill:#F9A41E;" d="M53.75,599.99c-0.4,0-0.73-0.32-0.73-0.72c0-0.4,0.33-0.72,0.73-0.72c0.4,0,0.72,0.32,0.72,0.72
				C54.47,599.68,54.15,599.99,53.75,599.99z"/>
		</g>
	</g>
</g>
</svg>
