<?xml version="1.0" encoding="utf-8"?>
<svg version="1.1" id="Layer_1" xmlns="http://www.w3.org/2000/svg" xmlns:xlink="http://www.w3.org/1999/xlink" x="0px" y="0px"
	width="100px" height="100px" viewBox="0 0 66.7 66.7" style="enable-background:new 0 0 66.7 66.7;" xml:space="preserve">
<g>
	<circle style="fill:#E8E8E8;" cx="33.3" cy="33.3" r="33.3"/>
	<circle style="fill:#FFFFFF;" cx="33.3" cy="33.3" r="32.7"/>
	<g>
		<path style="fill:#1D1B19;" d="M30.4,33.4c0.7-0.1,1.5-0.5,1.9-1c0.3-0.3,0.4-0.7,0.5-1v-0.1l0,0l0,0l0,0h-0.3l0,0l0,0
			c-0.1,1-1.3,1.8-2.9,1.8c-0.2,0-0.4,0-0.6-0.1l0,0l0,0c-1.2-0.2-2.3-0.9-2.3-2.3c0-0.5,0.1-0.9,0.4-1.3c0.4-0.5,1.1-0.9,1.9-1H29
			l0,0h0.6h0.1h0.2c1.3,0.1,2.2,0.5,2.5,1.3l0,0l0,0l0,0l0,0h0.3v-0.1l0,0l-0.2-0.4c-0.5-0.7-1.5-1.2-2.9-1.2
			c-1.9,0-3.3,1.1-3.3,2.7c0,1.5,1.1,2.5,2.8,2.7l0,0l0,0h0.3l0,0h0.2l0,0l0,0C29.9,33.5,30.1,33.4,30.4,33.4 M30.4,36.5H34v-0.3
			h-3.5v-1.6h3.8v-0.2h-4.1l0,0v4.1l0,0h4.1v-0.2h-3.8L30.4,36.5 M35.2,36.3v-1.7h2.5h0.2l0,0c0.3,0.1,0.4,0.1,0.6,0.1
			c0.3,0.1,0.4,0.3,0.4,0.7c0,0.5-0.3,0.8-0.9,0.9h-0.1h-0.4H35.2z M39.1,37.3c0-0.1,0-0.3-0.1-0.4c0-0.1-0.1-0.1-0.1-0.2
			c-0.1-0.1-0.1-0.1-0.2-0.1s-0.1-0.1-0.3-0.1c0.2-0.1,0.4-0.1,0.5-0.3c0.1-0.1,0.3-0.3,0.3-0.6l0,0v-0.1c0-0.7-0.4-1.1-1.3-1.1
			h-0.1H35l0,0v4.1l0,0h0.2v-1.9h2.3c1.3,0,1.4,0.3,1.4,0.8c0,0.3,0,0.6,0.1,0.8c0,0.1,0,0.1,0.1,0.2l0,0h0.3l0,0l-0.1-0.1
			C39.1,38.2,39.1,37.7,39.1,37.3 M29.5,34.5v-0.2h-8.4v0.2l0,0h2.1v3.9l0,0h0.3v-3.9h5.6l-1.9,1.9l-1.9,1.9v0.2l0,0h4.4v-0.2h-4
			L29.5,34.5"/>
		<path style="fill:#1D1B19;" d="M12.1,36.7c-0.3-0.2-0.6-0.3-0.9-0.3l-1.7-0.3H9.5c-0.9-0.1-1-0.5-1-0.7c0-0.3,0.2-0.5,0.5-0.7
			c0.3-0.1,0.7-0.1,1.1-0.1h0.1c1.4,0,1.7,0.5,1.7,1v0.1l0,0l0,0h0.3l0,0l0,0l0,0c-0.1-0.9-0.7-1.3-2.1-1.3l0,0
			c-0.7,0-1.1,0.1-1.5,0.3s-0.5,0.5-0.5,0.8c0,0.3,0.1,0.5,0.3,0.6c0.1,0.1,0.4,0.3,0.7,0.3c0.1,0,0.3,0.1,0.4,0.1l1.6,0.3
			c0.7,0.1,1,0.3,1,0.7c0,0.2-0.1,0.4-0.3,0.6c-0.3,0.2-0.7,0.3-1.5,0.3c-0.7,0-1.2-0.1-1.5-0.3c-0.3-0.2-0.5-0.5-0.5-0.9l0,0l0,0
			l0,0l0,0H8.1H8v0.1c0,0.1,0,0.3,0.1,0.4c0.1,0.3,0.3,0.6,0.7,0.7c0.4,0.2,0.9,0.3,1.6,0.3c1.7,0,2.1-0.7,2.1-1.2
			C12.4,37.1,12.3,36.8,12.1,36.7 M45.2,33.3V33h-4.7v-2.1H45v-0.3h-4.5v-1.9h4.7v-0.3h-4.9v5.1L45.2,33.3"/>
		<path style="fill:#1D1B19;" d="M19.9,34.3h-0.3l-0.8,1.9l-0.8,1.9l-1.7-3.8l0,0H16l0,0l-1.7,3.8l-1.6-3.8l0,0h-0.3l0,0l1.7,4.1
			v0.1v0.1l0,0h0.3l0,0l1.7-3.8l0.8,1.8l0.9,2l0,0H18l0,0L19.9,34.3 M47.2,36.9h-2.6l1.3-2.3l1.1,1.9L47.2,36.9L47.2,36.9z
			 M45.9,34.3h-0.2l-2.2,3.9h-3.3v-3.9l0,0H40l0,0v4.1l0,0h3.7l0,0l0.7-1.3h2.9l0.7,1.3h0.3l0,0L45.9,34.3 M51.1,32v-0.3l0,0v-0.1
			l0,0v-0.1l0,0l0,0l0,0v-0.1c-0.2-0.4-0.6-0.7-1.3-0.8l-2.1-0.4c-1.1-0.2-1.3-0.6-1.3-0.9c0-0.3,0.1-0.7,1-0.9l0,0l0,0
			c0.3-0.1,0.7-0.1,1.1-0.1c1.9,0,2.2,0.7,2.3,1.3l0,0l0,0l0,0l0,0h0.1H51v-0.1v-0.1c-0.1-1-0.9-1.5-2.6-1.5c-1.6,0-2.3,0.5-2.3,1.3
			c0,0.5,0.3,0.8,0.7,1c0.3,0.1,0.6,0.2,0.9,0.3l1.9,0.3c1.1,0.2,1.3,0.6,1.3,0.9V32c-0.1,0.7-0.8,1.1-2.2,1.1h-0.6
			c-1.3-0.1-1.9-0.6-1.9-1.5v-0.1l0,0l0,0h-0.1h-0.2v0.1c0,0.3,0.1,0.5,0.1,0.7c0.3,0.7,1.2,1.1,2.7,1.1l0,0
			C50.6,33.4,51,32.6,51.1,32 M19.5,28.5l1.6,2.8l0.1,0.1h-3.4C17.8,31.5,19.5,28.5,19.5,28.5z M16.3,33.3h0.5l0.9-1.6h3.7l0.9,1.6
			l0,0h0.4l0,0l-0.9-1.7l-2.1-3.5h-0.4L16.3,33.3 M56,29.6c0,0.4-0.2,0.7-0.5,0.9c-0.3,0.2-0.7,0.3-1.1,0.3c-0.7,0-1.5-0.3-1.5-1.1
			c0-0.8,0.7-1.1,1.5-1.1S56,28.8,56,29.6z M54.5,31.1L54.5,31.1c0.4,0,0.7-0.1,1-0.2c0.1-0.1,0.3-0.1,0.4-0.3l0.1-0.1l0.1-0.1
			c0.1-0.1,0.1-0.1,0.1-0.2c0.1-0.2,0.2-0.4,0.2-0.7c0-0.3-0.1-0.7-0.3-0.9c-0.3-0.3-0.8-0.5-1.5-0.5c-1.1,0-1.8,0.6-1.8,1.5v0.1
			c0,0.6,0.4,1.1,1.1,1.3C54,31,54.2,31.1,54.5,31.1L54.5,31.1 M54.3,38.2v-3.7h2.2c0.3,0,0.5,0.1,0.6,0.1l0,0l0,0
			c1.1,0.3,1.3,1.3,1.3,1.7v0.1c0,0.5-0.1,1.3-1,1.6c-0.3,0.1-0.5,0.1-0.9,0.1C56.4,38.1,54.3,38.2,54.3,38.2z M58.7,36.4
			c0-1.1-0.6-1.9-1.7-2.1l0,0h-0.1h-0.1h-0.1h-0.1h-0.1h-0.2h-2.5v4.1h2.5c0.6,0,1.1-0.1,1.5-0.4C58.4,37.7,58.7,37.1,58.7,36.4"/>
		<path style="fill:#1D1B19;" d="M58.3,30.9v-0.3h-2.5l0,0v2.8l0,0h0.3v-1.3h2.1v-0.3l0,0h-2.1v-0.9L58.3,30.9 M23.7,28.6v4.7h0.3
			v-4.7h2.6l0,0v-0.3l0,0h-5.5l0,0v0.3L23.7,28.6 M52.7,34.3L52.7,34.3v3.8l-3.9-3.7h-0.2l0,0v4.1l0,0h0.2l0,0v-3.7l3.9,3.7l0,0h0.3
			l0,0v-4.1l0,0L52.7,34.3 M33.9,30.9h4.9v2.5h0.3v-5.1h-0.3v2.3h-4.9v-2.3h-0.2v5.1h0.2V30.9 M10.5,33.3L10.5,33.3l2.1-4.7l2.1,4.7
			l0,0h0.3l0,0l1.1-2.5l1.1-2.5l0,0h-0.3l0,0l-0.8,1.9l-1.2,2.8l-0.7-1.6l-1.4-3.1l0,0l0,0l0,0h-0.3l0,0l-1,2.4L10.3,33l-1.9-4.7
			l0,0H8l0,0l2.1,5.1H10.5 M20.4,34.3L20.4,34.3v4.1h0.2v-4.1l0,0H20.4"/>
	</g>
</g>
</svg>
