<?xml version="1.0" encoding="utf-8"?>
<svg version="1.1" id="Layer_1" xmlns="http://www.w3.org/2000/svg" xmlns:xlink="http://www.w3.org/1999/xlink" x="0px" y="0px"
	width="100px" height="100px" viewBox="0 0 315 315" style="enable-background:new 0 0 315 315;" xml:space="preserve">
<g>
	<g>
		<path style="fill:#E8E8E8;" d="M157.5,0C244.5,0,315,70.5,315,157.5S244.5,315,157.5,315S0,244.5,0,157.5S70.5,0,157.5,0"/>
		<path style="fill:#FFFFFF;" d="M157.5,3.2c85.2,0,154.4,69.1,154.4,154.4s-69.1,154.4-154.4,154.4S3.2,242.7,3.2,157.5
			S72.3,3.2,157.5,3.2"/>
	</g>
	<g id="Layer_2_1_">
		<g id="Layer_1-2">
			<path style="fill:#FF6200;" d="M211.6,247.7H103.4c-19.9,0-36.1-16.2-36.1-36.1l0,0V103.4c0-19.9,16.2-36.1,36.1-36.1h108.2
				c19.9,0,36.1,16.2,36.1,36.1l0,0v108.2C247.7,231.6,231.6,247.7,211.6,247.7L211.6,247.7z"/>
			<path style="fill:#FFFFFF;" d="M134.7,246.1c-0.6,0.6-1.3,1.2-2,1.6h-2.9c-1.2-3.6-2.8-7.1-4.7-10.4c0,0,11-4.4,13.9-4.4
				c0.7,1.5,1.5,3.7,3,5.1C140.6,239.5,136.2,243.9,134.7,246.1L134.7,246.1z M140.6,152.7c0-4.4,1.5-4.4,0.7-5.9
				c-0.7-1.4-6.6,0-8.1,0c-3.7,0.7-10.3,2.9-10.3,4.4c-0.7,2.2-0.7,7.3-0.7,8.1c0.7,2.2,0.7,4.4,1.5,6.6c2.2-2.2,2.9-3,4.4-3.7
				c0.7-0.7,8.8-6.6,9.5-7.3C139.1,153.4,139.9,154.2,140.6,152.7L140.6,152.7z M119.3,193.2v3.7c0,1.5,0.7,9.5,0.7,11.8
				c0.8,2.2,0.8,4.4,1.5,6.6c0.7,1.5,1.5,2.9,1.5,4.4c0.9-0.5,1.7-1.3,2.2-2.2c2.2-2.2,2.9-4.4,4.4-7.4c-0.8-5.1-2.2-9.5-2.2-11
				c0-5.9,0.7-7.4,1.5-11C125.9,189.5,122.2,191.6,119.3,193.2L119.3,193.2z M161.2,90.9c0.7,1.5,9.5,6.6,13.2,8.8
				c2.9,2.2,5.9,2.9,8.8,4.4c2-2.9,3.5-6.1,4.4-9.5c2.2,1.5,5.2,1.5,7.4,2.2c0,2.9,0,5.9,0.7,8.8c0,1.5,1.5,0.7,4.4-0.7
				c4.4-1.5,8.8-2.2,11-2.9c5.2-2.9,8.1-8.8,12.5-8.8c3.7,0,10.3,2.2,11.8,3.7c2.2,0.7,3.7,1.5,5.9,1.5s3.9-1.5,5.5-2.9
				c-0.3-1.1-0.6-2.2-0.9-3.3c-5.9-3.7-12.2-7.4-18.5-9.9c-4.4,3.7-7.4,6.6-9.6,6.6c-2.2,0-0.7-4.4-0.7-7.3c-2.2,0-3.7,0-5.9-0.7
				c-1.5,5.1-2.2,11.8-5.9,13.3c-0.9,0.5-1.9,0.8-2.9,0.7v-5.9c0-0.7,2.9-5.9,2.2-6.6c0,0-6.6,1.5-8.1,2.2c-0.7,0.7-5.1,2.9-5.9,2.9
				c-1-0.3-1.9-0.6-2.9-0.7c-2.2-1.5-3.7-1.5-5.9-2.9c-2.9,8.8-3.7,11-3.7,9.5c0,0-10.3-6.6-14-11c-9.5,1.5-9.5,2.9-17.6,5.9
				c-3,2.9-7.4,6.6-10.3,11c-1.5,2.9-2.9,4.4-4.4,7.3l7.3,2.9c1.9-2.3,3.6-4.8,5.2-7.3C149.4,99,158.2,93.9,161.2,90.9L161.2,90.9z
				 M153.8,218.1c-0.8-1.5-3-2.2-4.4-2.9c-1.5,0-3,2.9-3,5.9c0.2,3,0.7,5.9,1.5,8.8c0,0.7,1.5,1.5,2.9,2.2c2.2,1.5,4.4,2.2,6.6,3.7
				c0,0-2.2-6.6-2.9-10.3C153.8,223.3,155.3,220.3,153.8,218.1L153.8,218.1z M125.9,233.6c0,0,2.2-1.5,2.2-3
				c3.7-4.4,8.1-8.1,8.8-8.8c-1.5-3.7-2.2-4.4-4.4-6.6c-0.7,0.7-4.4,2.9-5.1,4.4c-1.5,0.7-2.9,1.5-3.7,2.2c0,1.5,0.7,2.2,1.5,3.7
				C125.2,227,125.9,230.6,125.9,233.6L125.9,233.6z M139.9,163.7c-7.4,2.2-12.5,3.7-14,5.1c-3.7,2.2-5.1,3.7-8.8,5.9
				c0,4.4,0,4.4,0.7,6.6l0.8,8.8c1.4-2.2,5.9-6.6,8.1-9.5c3.3-3.7,7.3-6.7,11.8-8.8C139.1,168.8,139.9,166.7,139.9,163.7
				L139.9,163.7z M129.6,113.7c-1.5,2.2-1.5,4.4-1.5,6.6c0,3.7,0.7,6.6,1.5,11c-3,2.2-4.4,3.7-7.4,5.1c0.7,4.4,1.5,12.5,1.5,12.5
				c0.8-1.4,1.8-2.6,2.9-3.7c3-2.2,4.4-3.7,8.1-6.6c0.8-1.5,1.5-0.7,3.7-2.2c0.7-0.7,1.5-1.4,1.5-2.2c0-1.5-0.7-3-1.5-4.4
				s-2.2-5.2-2.2-5.9c0-5.9,0.7-7.3,1.4-12.5C134.7,110.8,131,110.8,129.6,113.7z M203.8,232.8c-2.9,0.7-8.8,1.5-8.8,3.7
				c-0.7,2.2,0,4.4,0,5.9c0.7,1.5,0.7,3,0.7,5.2v0.2h5.6c1.3-1.9,2.6-3.3,3.3-5.3C205.3,240.2,204.6,236.6,203.8,232.8L203.8,232.8z
				 M175.9,204.9c0.7,2.8,1.7,5.5,2.9,8.1c0.7,0,1.5,1.5,2.2,1.5c1.5-1.5,3-3.7,5.2-4.4v2.9c0,2.2,0,3.7,0.7,5.9
				c0,2.2,2.2,2.2,5.1,2.2c2.9,0,3.7-5.2,3.7-5.9c0,0,0.7,2.9,5.2,5.1c0,0,5.1,0,5.1-0.7c0.8-3.7,1.5-4.4,0.8-7.4c0,0,4.4,3,6.6,5.9
				c1.4-1.5,2.9-4.4,2.9-5.2c1.4-2.9,1.4-6.6,1.4-9.5c-5.9-3.7-13.2-4.4-20.6-4.4C190.6,199,183.2,199.7,175.9,204.9L175.9,204.9z
				 M188.4,238c-0.7-1.4-2.2-2.2-3.7-2.2c-1.5,0-5.1-2.2-5.1-0.7c-3.7,0-0.7,3.7-0.7,5.9c0,1.6,2.1,4.4,4.1,6.7h6.8
				c-0.3-1-0.5-2-0.6-3.1C188.4,242.4,189.1,240.2,188.4,238L188.4,238z M227.3,181.4c5.7,0,12.2,1.3,20.3,4.6v4.9
				c-8.1-3.3-15.5-4-19.6-5.1v5.9c2.9,0.7,4.4,2.2,7.3,2.9c1.1,0.5,7.5,4,12.2,6.6v5.1c-8.9-5.5-15.1-7.6-22.6-11
				c-1.5,1.5-2.2,3.7-4.4,5.1c-0.7,0.7-5.9-3.7-8.8-5.1c-2.2-1.5-6.6-2.2-9.5-2.9c-0.7,0-0.7-1.5-0.7-2.2c-0.7-2.2-1.5-4.4-0.7-5.2
				c3.7-1.5,5.1-4.4,5.1-6.6c0-2.2,2.2,0.7,4.4,0c1.5-1.5,2.2-2.9,1.5-4.4c0-1.5-0.7-2.9-2.2-2.9c-7.3-3-15.5-3-22.8,0
				c-2.2,0.7-2.2,3.7-1.5,5.9c0.8,2.9,3.7,1.5,5.9,0c0.7,0-0.7,2.2,0.7,4.4c1.5,2.9,4.4,3.7,4.4,4.4c0,2.2,0,2.2-0.7,3.7
				c0,1.5,0,2.9-1.5,3.7c-4.4,0.7-8.1,2.2-12.5,3.7c-2.2,0.7-4.4,2.9-6.6,2.9c-1.5,0-2.9-2.9-3.7-3.7c-1.5,0-1.5-0.7-4.4,0
				c-8.6,3.6-16.9,7.8-25,12.5c-1.5-1.5-0.7-3.7-1.5-5.2c8.2-5.1,16.8-9.6,25.7-13.2c0.7-0.8,0-2.9-0.7-4.4c0,0-5.1-0.7-14.7,2.2
				c-5.8,1.4-12.5,5.1-13.2,5.1c-0.5-1.7-0.7-3.4-0.7-5.1c4.5-2.3,9.2-4.3,14-5.9c5.2-1.5,10.3-1.5,15.5-2.2c-0.8,0-0.8-1.5-0.8-2.2
				c-2.2-4.4-5.9-8.1-9.5-11.8c-1.5-3-3-6.6-3-8.1c1.5-1.5,3,0.7,5.1,0.7c-0.9-2.6-1.4-5.3-1.5-8.1c-0.7-2.9-0.7-2.9-0.7-6.6
				c0-4.4,1.5-6.6,0.7-7.4c-0.7-0.8-3.7-2.2-4.4-2.2c-1.5-0.8-2.2-0.8-2.9-2.2c-2.2-3.7-4.4-6.6-4.4-10.3s1.4-6.6,2.9-10.3
				c0.7-2.9,4.4-4.4,6.6-5.9c2.2-1.5,4.4-0.7,6.6-0.7c5.2,0,9.5,2.9,13.2,5.1c2.6,2,4.4,4.9,5.1,8.1h6.6c3.7,0.7,7.3,1.5,11.8,3.7
				c5.1-4.4,14-5.1,18.4-5.1c0-8.1,5.9-12.5,10.3-12.5c3.7-0.7,5.9-1.5,11,0.7c3.7,2.2,8.8,9.5,8.8,10.3c1.5,3,0.7,6.6,0.7,11
				c-0.5,1.9-0.7,3.9-0.7,5.9c-0.7,2.9-4.4,5.1-6.6,5.9c0,5.1-1.5,8.1-2.2,12.5c0,2.2-0.7,4.4-1.5,6.6c2.2-0.7,3-2.2,5.1-2.2
				c-1.5,9.5-3.7,8.1-5.9,12.5c-0.9,3.2-2.4,6.2-4.4,8.8c-1.1,1.1-2.4,2.1-3.7,2.9C225.8,179.9,227.3,180.6,227.3,181.4L227.3,181.4
				z M166.4,125.5c1.5-1.5,5.9-4.4,5.9-4.4c0.7,0,0.7-0.7,0.7-1.5c-1.4-5.2-2.9-5.2-5.9-6.6c-1.5-1.1-3.3-1.6-5.1-1.5
				c-3,0.7-8.1,2.2-9.5,6.6c0,0.7-0.7,3.7,1.5,6.6c1.4,2.9,4.4,5.2,5.9,6.6C161.9,131.4,162.6,127.7,166.4,125.5L166.4,125.5z
				 M181.8,185c-1.5-0.7-2.9-0.7-4.4-0.7c-1.7,0.1-3.5,0.3-5.2,0.7c0.4,1.5,0.9,3,1.5,4.4c2.2-0.7,2.9-1.5,4.4-2.2
				C178.1,187.3,181,185.8,181.8,185L181.8,185z M187.7,145.4c0-1.5-1.5-3-3.7-3.7h-9.5c-3.7,0-6.6,0-10.3,0.7
				c1.5,3,5.2,5.9,6.6,7.4c1.5,1.5,3,2.9,5.9,2.9c2.9-0.7,2.9,0,4.4-0.7c0,1.5,0.7,3.7,0,5.1c0,0.8,0.7,6.6-2.2,7.4
				c-2.2,0.7-5.1,2.2-6.6,4.4c-1.5,2.2-2.2,5.9,0,7.4c1.5,0.7,2.9-1.5,5.2-2.2c2.2-0.7,2.2-2.2,2.9-4.4c1.5-1.5,4.4-2.2,5.1-3.7
				v-2.2c0.7-6.6,0.7-8.1,1.5-12.5C186.9,150.5,187.6,146.1,187.7,145.4L187.7,145.4z M192.1,127.7c0-1.5-2.9-0.7-4.4,0
				c-1.5,0-3.7,1.5-5.9,2.9c-2.2,2.2-3.7,2.9-3.7,5.1h3.7c3.7,0,4.4,1.5,5.9-0.7C189.9,132.1,192,130.6,192.1,127.7L192.1,127.7z
				 M223,121.1c5.2,1.5,8.8,4.4,12.5,8.8c2.3,0,4.4-1.5,5.1-3.7c0.7-3.7,1.5-9.5-0.7-12.5c-1.5-1.5-2.2-2.2-5.9-2.9
				c-2.9-0.8-6,0.1-8.1,2.2C224.4,115.2,222.2,118.2,223,121.1L223,121.1z M207.5,130.6c1.5,0,1.5,2.9,1.5,4.4
				c3.7,0,7.4,0.7,8.8-0.7c8.1-3.7-4.4-6.6-5.9-6.6c-3.7-0.7-11-2.9-8.1,0C203.8,129.2,206,129.2,207.5,130.6L207.5,130.6z
				 M223,185.1c-2.2-0.7-4.4-2.2-8.8-1.5c-0.7,0.7-0.7,0.7-0.7,2.9c3.7,0,5.9,2.2,8.8,2.9C222.2,189.5,222.9,185.8,223,185.1
				L223,185.1z M227.4,171.8c2.9,0-3.7-2.9-6.6-5.1c-0.6-0.1-1.1-0.3-1.5-0.7c-1.5-1.5-2.2-4.4-5.2-5.1c-0.4,0-0.7-0.3-0.7-0.7
				c0,0,0,0,0,0v0c0-2.2-0.7-11-0.7-11c1.5,2.9,4.4,2.9,5.9,2.9c3,0,5.1-0.8,6.6-2.9c0-0.7,0.8-2.2,1.5-2.2c1.5-0.7,2.9-1.5,3.7-3
				c0.7,0,1.5-1.5,1.5-1.5c-6.6-0.7-20.6-0.7-20.6-0.7c-2.2,0.7-4.4,2.9-4.4,3.7c0,0,1.4,8.1,1.4,8.8c0,5.2,0.7,5.2,0.7,10.3
				c2.2,1.5,2.9,1.5,4.4,2.9c0.7,1.5,1.4,2.9,2.2,4.4c2.9,1.5,6.6,2.9,8.8,5.2C225.1,177,227.4,173.3,227.4,171.8L227.4,171.8z
				 M232.5,235.8c-1.5-1.5,1.5-6.6-2.2-6.6c-1.5-0.7-5.9-2.2-5.9-2.2c-0.8,2.2-0.8,6.6,0,8.8c0,1.6,2,5.6,3.6,8c2-1,3.8-2.2,5.5-3.5
				C233,238.8,232.7,237.4,232.5,235.8L232.5,235.8z M172.2,231.4c0,0-0.7-3.7-1.5-5.2c-0.8-1.8-2-3.3-3.7-4.4
				c-0.7,0-2.2-1.5-2.9-0.7c0,0-0.7,5.9-1.5,6.6c1.5,2.2,2.9,3.7,3.7,5.9c0.8,2.2,1.5,5.1,2.9,7.4C170,238,172.2,236.6,172.2,231.4
				L172.2,231.4z M219,247c-0.4-1.9-0.9-3.9-1.3-5.3v-11.8c-2.9,0.7-3.7,1.5-4.4,1.5c-2.2,1.5-3.7,2.2-3.7,3.7
				c0,2.9,0.7,5.9,0.7,7.3c0,2.2,0,3.7,0.7,4.4c1.1,0.3,1.8,0.5,2.6,0.8C215.5,247.5,217.3,247.3,219,247L219,247z M242.8,224.1
				c-1.5-0.7-1.5-0.7-3.7-0.7c-0.8-0.7-2.2-0.7-3-0.7c0.5,2.5,1.3,5,2.2,7.3c0.6,1.1,1.4,2.1,2.5,2.8c1.2-1.7,2.3-3.5,3.2-5.4
				C243.3,225.9,242.8,224.7,242.8,224.1L242.8,224.1z"/>
		</g>
	</g>
</g>
</svg>
