<?xml version="1.0" encoding="utf-8"?>
<svg version="1.1" id="Layer_1" xmlns="http://www.w3.org/2000/svg" xmlns:xlink="http://www.w3.org/1999/xlink" x="0px" y="0px"
	width="100px" height="100px" viewBox="0 0 100 100" style="enable-background:new 0 0 100 100;" xml:space="preserve">
<g>
	<path style="fill:#E8E8E8;" d="M50,0c27.61,0,50,22.39,50,50s-22.39,50-50,50S0,77.61,0,50S22.39,0,50,0"/>
	<path style="fill:#FFFFFF;" d="M50,1c27.06,0,49,21.94,49,49S77.06,99,50,99S1,77.06,1,50S22.94,1,50,1"/>
	<g>
		<g id="Layer_2_1_">
			<g id="Layer_1-2">
				<g id="Layer_2-2">
					<g id="Layer_1-2-2">
						<path style="fill:#141332;" d="M13.35,54.24v-4.12h1.22c1.68,0,2.44,0.75,2.44,2.09c0,1.45-0.81,2.03-2.67,2.03H13.35
							 M13.35,49.65v-3.89h0.75c1.57,0,2.44,0.58,2.44,1.92c0,1.45-0.93,1.97-2.21,1.97L13.35,49.65 M14.28,45.3H11.9v9.47h2.32
							c2.96,0,4.41-0.81,4.41-2.67c0-1.22-0.93-1.97-2.44-2.26c1.16-0.35,1.97-1.16,1.97-2.21C18.12,46.05,17.19,45.3,14.28,45.3"/>
						<polyline style="fill:#141332;" points="46.52,45.24 41.06,45.24 41.06,54.7 46.52,54.7 46.52,54.18 42.57,54.18 42.57,50.17 
							45.35,50.17 45.35,49.65 42.57,49.65 42.57,45.82 46.52,45.82 46.52,45.24 						"/>
						<polyline style="fill:#141332;" points="23.87,45.3 22.36,45.3 22.36,54.7 27.81,54.7 27.81,54.24 23.87,54.24 23.87,45.3 
													"/>
						<path style="fill:#141332;" d="M37.46,45.3h-0.58v6.16c0,2.44-1.63,2.73-2.61,2.73c-1.34,0-2.61-0.46-2.61-2.79v-6.1h-1.51
							v6.04c0,2.73,1.92,3.43,3.72,3.43c2.38,0,3.54-1.1,3.54-3.43L37.46,45.3"/>
						<polyline style="fill:#141332;" points="67.89,45.3 66.38,45.3 66.38,54.7 67.89,54.7 67.89,45.3 						"/>
						<polyline style="fill:#141332;" points="86.59,45.24 81.13,45.24 81.13,54.7 86.59,54.7 86.59,54.18 82.64,54.18 82.64,50.17 
							85.37,50.17 85.37,49.65 82.64,49.65 82.64,45.82 86.59,45.82 86.59,45.24 						"/>
						<polyline style="fill:#141332;" points="73.99,45.3 72.48,45.3 72.48,54.7 77.93,54.7 77.93,54.24 73.99,54.24 73.99,45.3 
													"/>
						<polyline style="fill:#141332;" points="61.96,45.3 61.38,45.3 61.38,52.32 55.69,45.3 54.76,45.3 54.76,54.7 55.34,54.7 
							55.34,47.04 61.56,54.7 61.96,54.7 61.96,45.3 						"/>
					</g>
				</g>
			</g>
		</g>
		<g>
			<path style="fill:#141332;" d="M87.4,54.36c0-0.23,0.17-0.35,0.35-0.35c0.17,0,0.35,0.17,0.35,0.35c0,0.17-0.17,0.35-0.35,0.35
				C87.52,54.7,87.4,54.59,87.4,54.36z M88.04,54.36c0-0.17-0.12-0.29-0.29-0.29c-0.17,0-0.29,0.12-0.29,0.29
				c0,0.17,0.12,0.29,0.29,0.29C87.92,54.65,88.04,54.53,88.04,54.36z M87.63,54.18c0.06,0,0.06,0,0.12,0
				c0.12,0,0.17,0.06,0.17,0.12s-0.06,0.12-0.06,0.12l0.12,0.17h-0.06l-0.06-0.12c0,0,0,0-0.06,0c0,0,0,0-0.06,0v0.12h-0.06
				L87.63,54.18L87.63,54.18z M87.69,54.36C87.69,54.36,87.75,54.36,87.69,54.36c0.06,0,0.12-0.06,0.12-0.06l-0.06-0.06h-0.06
				L87.69,54.36L87.69,54.36z"/>
		</g>
	</g>
</g>
</svg>
