<?xml version="1.0" encoding="utf-8"?>
<!-- Generator: Adobe Illustrator 24.2.1, SVG Export Plug-In . SVG Version: 6.00 Build 0)  -->
<svg version="1.1" id="Layer_1" xmlns="http://www.w3.org/2000/svg" xmlns:xlink="http://www.w3.org/1999/xlink" x="0px" y="0px"
	 viewBox="0 0 1000 584.48" style="enable-background:new 0 0 1000 584.48;" xml:space="preserve">
<g transform="translate(-137.5,-22.390163)">
	<path id="path2998" style="fill:#1C252C;" d="M137.5,29.63v252.32h132.11c52,0,100.05-18.25,100.05-71.86
		c0-36.24-26.11-52.78-54.82-61.44c17.5-7.02,37.34-21.76,37.34-52.67c0-39.56-39.25-66.35-92.09-66.35L137.5,29.63L137.5,29.63z
		 M218.43,88.4h29.75c12.11,0,21.35,9.49,21.35,19.12c0,8.95-9.6,18.52-21.35,18.52h-29.75L218.43,88.4L218.43,88.4z M218.43,178.41
		h39.28c13.71,0,25.22,10.41,25.22,22.32c0,12.64-10.76,23.13-27.6,23.13h-36.9L218.43,178.41L218.43,178.41z"/>
	<path id="path3005" style="fill:#1C252C;" d="M202.96,309.47V561.8h132.11c52,0,100.05-18.25,100.05-71.86
		c0-36.24-26.11-52.78-54.82-61.44c17.5-7.02,37.34-21.76,37.34-52.67c0-39.56-39.25-66.35-92.09-66.35H202.96L202.96,309.47z
		 M283.89,368.24h29.75c12.11,0,21.35,9.49,21.35,19.12c0,8.95-9.6,18.52-21.35,18.52h-29.75V368.24L283.89,368.24z M283.89,458.25
		h39.28c13.71,0,25.22,10.41,25.22,22.32c0,12.64-10.76,23.13-27.6,23.13h-36.9L283.89,458.25L283.89,458.25z"/>
	<path id="path3007" style="fill:#1C252C;" d="M376.01,281.92V29.6h203.52v60.94H456.71v33.09h99.74v57.13h-99.74v40.47h122.83v60.7
		H376.01z"/>
	<path id="path3009" style="fill:#1C252C;" d="M689.79,289.14c57.29,0,103.11-32.68,103.11-85.63c0-85.46-111.18-72.31-111.18-98.92
		c0-10.28,10.81-15.73,21.89-15.73c19.1,0,32.91,12.59,32.91,12.59l47.83-45.54c-19.13-18.21-49.35-33.51-90.05-33.51
		c-61.13,0-101.12,36.28-101.12,80.04c0,86.55,109.57,73.99,109.57,101.14c0,9.52-9.16,19.1-25.77,19.1
		c-18.86,0-33.8-11.38-45.43-21.04l-48.11,45.87C602.83,266.37,633.93,289.14,689.79,289.14z"/>
	<path id="path3011" style="fill:#1C252C;" d="M855.19,281.92V90.3h-66.65V29.6h214.23v60.7h-66.65v191.62H855.19z"/>
	<path id="path3013" style="fill:#1C252C;" d="M437.9,309.3h80.7v151.15c0,15.35,15.28,29.49,31.2,29.49
		c15.02,0,30.21-12.77,30.21-30.3V309.3h80.46v149.32c0,59.25-49.19,106.51-112.8,106.51c-63.97,0-109.77-51.44-109.77-109.74
		L437.9,309.3z"/>
	<path id="path3015" style="fill:#1C252C;" d="M759.97,561.62v-90.16L665.13,309.3h81.64l53.67,86.88l53.85-86.88h81.83
		L840.9,472.38v89.23H759.97z"/>
	<path id="path3017" style="fill:#FFED31;" d="M936.12,447.39L888.51,495v64.27l47.61,47.61h201.38V447.39H936.12z"/>
	<path id="path3024" style="fill:#1C252C;" d="M928.3,527.1c0,5.92-4.8,10.71-10.71,10.71c-5.92,0-10.71-4.8-10.71-10.71
		s4.8-10.71,10.71-10.71C923.5,516.39,928.3,521.19,928.3,527.1z"/>
</g>
</svg>
