<?xml version="1.0" encoding="utf-8"?>
<svg version="1.1" id="Layer_1" xmlns="http://www.w3.org/2000/svg" xmlns:xlink="http://www.w3.org/1999/xlink" x="0px" y="0px"
	width="100px" height="100px" viewBox="0 0 66.7 66.7" style="enable-background:new 0 0 66.7 66.7;" xml:space="preserve">
<path style="fill:#ED1C24;" d="M66.7,33.3c0,18.4-14.9,33.3-33.3,33.3l0,0C14.9,66.7,0,51.7,0,33.3l0,0C0,14.9,14.9,0,33.3,0l0,0
	C51.7,0,66.7,14.9,66.7,33.3L66.7,33.3z"/>
<path style="fill:#FFFFFF;" d="M50.2,28.3c0,1.7,1.9,2.1,2.9,2.3c0.5,0.1,1.5,0.4,1.5,1c0.1,0.7-0.7,1.1-1.5,1.1
	c-0.9,0-1.3-0.3-1.9-0.9c-0.2-0.3-0.5-0.3-0.8-0.3s-0.7,0.3-1.1,0.6c-0.3,0.1-0.3,0.4-0.2,0.7c0.7,1.5,2.3,2.1,3.9,2.1
	c2.3,0,4.4-1,4.9-3.1c0.5-2.1-1.1-2.7-2.7-3.2c-1-0.3-1.7-0.5-1.7-1.2c0.1-0.7,1.6-1.1,2.7,0.1c0.3,0.3,0.5,0.3,0.9,0.2
	c0.3-0.1,0.9-0.3,1.1-0.5c0.3-0.3,0.4-0.5,0.2-0.9c-0.5-1-1.9-1.7-3.5-1.7C52.1,24.7,50.2,26.3,50.2,28.3 M32.9,45.9
	c12.2,0,20.7-4.8,24.4-7.2c0.7-0.4,0.3-1.1-0.4-0.7c-9.3,3.9-15.4,5.3-24,5.3c-8.5,0-14.6-1.4-24-5.3c-0.7-0.3-1.1,0.3-0.4,0.7
	C12.3,41.1,20.8,45.9,32.9,45.9 M17.9,20.9c-0.6,0.1-1.1,0.1-1.7,0.7c-1.5,1.9-5.1,7.4-7.9,12.5c-0.2,0.3-0.1,0.7,0.3,0.7
	c0.5-0.1,1.9,0,2.1,0c0.3,0,0.5-0.1,0.8-0.5s0.9-1.5,1.3-2.4h5l0.1,2.3c0,0.3,0.2,0.6,0.7,0.6h1.9c0.3,0,0.5-0.1,0.5-0.6
	c-0.1-1.7-0.5-10.5-0.7-12.5c-0.1-0.5-0.3-0.7-0.9-0.7L17.9,20.9 M17.7,24l0.2,5.4h-3.8C15,27.9,16.5,25.5,17.7,24
	C17.7,23.9,17.7,24,17.7,24L17.7,24z M43.1,34.9c-3.1,0-4.6-2.1-3.9-5.1c0.7-3,2.9-5.1,6.1-5.1s4.6,2.1,3.9,5.1
	C48.6,32.8,46.3,34.9,43.1,34.9 M43.3,32.8c1.7,0,2.5-1.5,2.9-2.9c0.5-1.5,0.6-2.9-1.1-2.9c-1.7,0-2.5,1.4-2.9,2.9
	C41.7,31.3,41.6,32.8,43.3,32.8L43.3,32.8z M31.5,29.9c0.6-1.9,1.5-2.9,2.8-2.9c1.7,0.1,1.3,1.7,0.9,2.9c-0.5,1.9-1.4,2.9-2.7,2.7
	C31.1,32.5,31.3,30.9,31.5,29.9 M37.4,33.6l1.9-7.8c0.1-0.5-0.1-0.8-0.5-0.8h-1.3c-0.5,0-0.7,0.2-0.8,0.6c0,0.1-0.1,0.3-0.1,0.4
	s-0.1,0.1-0.1,0c-0.2-0.3-1-1.1-2.4-1.1c-2.5,0-4.3,2.5-5,4.7c-0.5,1.5-0.5,3.1,0.1,4c0.5,0.8,1.4,1.3,2.7,1.3
	c1.1,0,2.1-0.3,2.5-0.9c0.1-0.1,0.1-0.1,0.1,0c-0.6,2.3-2,2.9-3.1,2.9c-0.7,0-1.2-0.3-1.5-0.5c-0.4-0.3-0.5-0.3-0.9-0.1
	c-0.4,0.1-0.9,0.3-1.3,0.5c-0.5,0.3-0.3,0.6-0.2,0.9c0.9,1.3,2.8,1.7,3.9,1.7C34.5,39.3,36.4,37.3,37.4,33.6L37.4,33.6L37.4,33.6z
	 M30.5,25.4c0.2-0.2,0.1-0.5-0.2-0.5c-1.6,0-3.2,0-4.3,1.1c0,0.1-0.1,0-0.1-0.1c0.1-0.1,0.1-0.3,0.1-0.5c0.1-0.3-0.1-0.5-0.4-0.5
	h-1.6c-0.3,0-0.5,0.1-0.6,0.5c-0.2,0.8-1.5,6.9-1.8,8.7c-0.1,0.3,0.1,0.5,0.4,0.5H24c0.3,0,0.5-0.2,0.5-0.5l0.9-4.1
	c0.2-1,0.6-1.7,0.9-2.1c0.4-0.3,0.9-0.5,1.9-0.5c0.5-0.1,0.7-0.1,0.9-0.5C29.7,26.5,30,25.9,30.5,25.4"/>
</svg>
