<?xml version="1.0"?>
<svg xmlns="http://www.w3.org/2000/svg" xmlns:xlink="http://www.w3.org/1999/xlink" xmlns:svgjs="http://svgjs.com/svgjs" version="1.1" width="512" height="512" x="0" y="0" viewBox="0 0 512 512" style="enable-background:new 0 0 512 512" xml:space="preserve" class=""><g><path xmlns="http://www.w3.org/2000/svg" d="m512 256c0 141.386719-114.613281 256-256 256s-256-114.613281-256-256 114.613281-256 256-256 256 114.613281 256 256zm0 0" fill="#f1f1f1" data-original="#41378c" style="" class=""/><path xmlns="http://www.w3.org/2000/svg" d="m507.851562 302.105469-79.398437-79.398438-193.714844-63.253906-151.625 83.753906 44.878907 44.878907-5.105469 6.3125 29.277343 29.277343-31.085937 22.367188 28.597656 28.597656-28.597656 24.738281 14.875 14.875-5.15625 2.40625 93.371094 93.371094c10.429687 1.292969 21.050781 1.96875 31.832031 1.96875 125.644531 0 230.136719-90.515625 251.851562-209.894531zm0 0" fill="#f1f1f1" data-original="#292356" style="" class=""/><path xmlns="http://www.w3.org/2000/svg" d="m381.203125 416.660156h-250.402344v-201.320312l125.199219-120 125.203125 120zm0 0" fill="#ff8945" data-original="#ff8945" style="" class=""/><path xmlns="http://www.w3.org/2000/svg" d="m381.203125 215.339844-125.203125-120v.386718l-.40625 320.933594h125.609375zm0 0" fill="#ff6633" data-original="#ff6633" style=""/><path xmlns="http://www.w3.org/2000/svg" d="m374.667969 405h-240.667969c-9.757812 0-17.667969-7.910156-17.667969-17.667969 0-9.757812 7.910157-17.667969 17.667969-17.667969h240.667969c9.757812 0 17.667969 7.910157 17.667969 17.667969-.003907 9.757813-7.910157 17.667969-17.667969 17.667969zm0 0" fill="#ffcc91" data-original="#ffcc91" style="" class=""/><path xmlns="http://www.w3.org/2000/svg" d="m374.667969 369.667969h-119.074219v35.332031h119.074219c9.757812 0 17.667969-7.910156 17.667969-17.667969-.003907-9.757812-7.910157-17.664062-17.667969-17.664062zm0 0" fill="#ffb978" data-original="#ffb978" style="" class=""/><path xmlns="http://www.w3.org/2000/svg" d="m374.667969 351.667969h-240.667969c-9.757812 0-17.667969-7.910157-17.667969-17.667969s7.910157-17.667969 17.667969-17.667969h240.667969c9.757812 0 17.667969 7.910157 17.667969 17.667969-.003907 9.757812-7.910157 17.667969-17.667969 17.667969zm0 0" fill="#ffcc91" data-original="#ffcc91" style="" class=""/><path xmlns="http://www.w3.org/2000/svg" d="m374.667969 316.332031h-119.074219v35.332031h119.074219c9.757812 0 17.667969-7.90625 17.667969-17.664062-.003907-9.757812-7.910157-17.667969-17.667969-17.667969zm0 0" fill="#ffb978" data-original="#ffb978" style="" class=""/><path xmlns="http://www.w3.org/2000/svg" d="m374.667969 298.332031h-240.667969c-9.757812 0-17.667969-7.910156-17.667969-17.667969 0-9.753906 7.910157-17.664062 17.667969-17.664062h240.667969c9.757812 0 17.667969 7.910156 17.667969 17.664062-.003907 9.761719-7.910157 17.667969-17.667969 17.667969zm0 0" fill="#ffcc91" data-original="#ffcc91" style="" class=""/><path xmlns="http://www.w3.org/2000/svg" d="m374.667969 263h-118.882813v35.332031h118.878906c9.757813 0 17.667969-7.910156 17.667969-17.667969 0-9.753906-7.90625-17.664062-17.664062-17.664062zm0 0" fill="#ffb978" data-original="#ffb978" style="" class=""/><path xmlns="http://www.w3.org/2000/svg" d="m374.667969 245h-240.667969c-9.757812 0-17.667969-7.910156-17.667969-17.667969 0-9.757812 7.910157-17.667969 17.667969-17.667969h240.667969c9.757812 0 17.667969 7.910157 17.667969 17.667969-.003907 9.757813-7.910157 17.667969-17.667969 17.667969zm0 0" fill="#ffcc91" data-original="#ffcc91" style="" class=""/><path xmlns="http://www.w3.org/2000/svg" d="m374.667969 209.667969h-118.882813v35.332031h118.878906c9.757813 0 17.667969-7.910156 17.667969-17.667969 0-9.757812-7.90625-17.664062-17.664062-17.664062zm0 0" fill="#ffb978" data-original="#ffb978" style="" class=""/><path xmlns="http://www.w3.org/2000/svg" d="m152.714844 194.332031h206.570312l-36.863281-35.332031h-132.84375zm0 0" fill="#ffcc91" data-original="#ffcc91" style="" class=""/><path xmlns="http://www.w3.org/2000/svg" d="m322.421875 159h-66.421875v35.332031h103.285156zm0 0" fill="#ffb978" data-original="#ffb978" style="" class=""/><path xmlns="http://www.w3.org/2000/svg" d="m205.578125 143.667969h100.84375l-36.863281-35.335938h-27.117188zm0 0" fill="#ffcc91" data-original="#ffcc91" style="" class=""/><path xmlns="http://www.w3.org/2000/svg" d="m269.558594 108.332031h-13.558594v35.335938h50.421875zm0 0" fill="#ffb978" data-original="#ffb978" style="" class=""/><path xmlns="http://www.w3.org/2000/svg" d="m93.585938 247.675781c-3.816407 0-7.625-1.496093-10.472657-4.46875-5.539062-5.78125-5.34375-14.960937.4375-20.5l172.449219-165.289062 172.453125 165.289062c5.78125 5.539063 5.976563 14.71875.433594 20.5-5.539063 5.78125-14.722657 5.976563-20.5.433594l-152.386719-146.050781-152.386719 146.054687c-2.808593 2.691407-6.421875 4.03125-10.027343 4.03125zm0 0" fill="#ff7d0a" data-original="#ff7d0a" style="" class=""/><path xmlns="http://www.w3.org/2000/svg" d="m256 97.589844 152.386719 146.050781c5.777343 5.542969 14.960937 5.347656 20.5-.433594 5.542969-5.78125 5.347656-14.960937-.433594-20.5l-172.453125-165.289062zm0 0" fill="#ff640a" data-original="#ff640a" style=""/><path xmlns="http://www.w3.org/2000/svg" d="m225.667969 137.667969h60.667969v84h-60.667969zm0 0" fill="#2864f0" data-original="#2864f0" style=""/><path xmlns="http://www.w3.org/2000/svg" d="m286.332031 137.667969h-30.332031l-.214844 84h30.546875zm0 0" fill="#27488f" data-original="#27488f" style="" class=""/><path xmlns="http://www.w3.org/2000/svg" d="m155.667969 263h94.332031v153.660156h-94.332031zm0 0" fill="#c8461e" data-original="#c8461e" style="" class=""/><path xmlns="http://www.w3.org/2000/svg" d="m202.023438 263h47.976562v153.660156h-47.976562zm0 0" fill="#a03c19" data-original="#a03c19" style="" class=""/><path xmlns="http://www.w3.org/2000/svg" d="m277.667969 263h78.667969v88.667969h-78.667969zm0 0" fill="#27488f" data-original="#27488f" style="" class=""/></g></svg>
