<svg xmlns="http://www.w3.org/2000/svg" xmlns:xlink="http://www.w3.org/1999/xlink" viewBox="0 0 308.4 145.3"><path d="M277.8 80.2c-1 .5-2.9.9-5 .3-1-.3-1.6-1-1.7-1.9s.5-1.7 1.4-2.2c1.1-.6 4.7-1.2 8.1-1.8.1 1.9-.5 4.6-2.8 5.6m-36.4-2.7h0c-1.5-3.5-.1-8.4 1.6-11.8 2.1-4.3 5.3-8.2 7.6-8.1 1.9.2 3.5 2.3 2.7 5.5-1.4 6.2-6.5 10.7-11.9 14.4m-40.2-27c-.8-26.9 7.6-45.1 9.7-45.2 1.8.7.8 16.5-.9 26.2-2.1 12-5.5 21.6-8.4 27.8-.2-2.8-.3-5.5-.4-8.8M176 53.4c-.7-24.1 5.3-41.3 8.5-44.7.3-.4.6-.5.7-.5 1.8.7.9 16.5-.8 26.2-2 11.4-5.3 20.5-8.1 26.7-.2-2.5-.2-4.9-.3-7.7m112.6 19.9c-.4-4.4-5.9-9.8-8.6-12.2-2.9-2.6-1.7-3.7-1.1-4.9 1.4-2.8-.6-4.4-.6-4.4s-1.4-1.7-4.1-1.6c0 0-2.3.2-3.4 1.7-1.5 1.8-6.3 15.9-13.4 23.6-9.1 9.7-14 4.5-13.9 4.4.1-.2 7.5-3.9 12-11.2 2.5-3.6 2.9-8 1.5-11.2-1.5-3.1-4.3-3.9-5.9-4.1-4.8-.4-10.4 2.5-14 8.6-3 5.2-4.2 12.3-1.8 17.6 0 .1.4.8.7 1.3-1.9 1-4.9 2.3-7.4 1.6-1.3-.4-2.8-1.6-3.7-3.8-.3-.8-.6-1.7-.7-2.7h0 0c-.5-2.9-.2-6.4 1.7-8.9 2-2.7 1.3-5.9-.3-7.8s-3.9-2.6-5.8-1.6c-2.5 1.2-4.9 8.7-5 15.7-.1 4.2.7 7.7 2.1 10.1-1.6 1.6-3.6 2.8-6.2 2.5-4.6-.5-7.4-7.6-8.7-22.6 7.6-13.4 12.2-28.3 12.9-42.2.6-11.9-.2-18.8-2.7-20.6-.9-.7-2.3-.6-3-.5-2.7.6-9.1 2.8-15.7 31.1-4.7 20-3.3 39.3 1.1 50.4v.1c-2 3-4.7 7.2-9.5 6.6-4.6-.5-7.1-7.1-8.3-22.9 7.4-13.2 11.8-27.8 12.5-41.5.6-11.9-.3-18.7-2.7-20.6-1.2-.9-2.6-.6-3.2-.5-2.3.7-8.9 2.9-15.5 31.1-4.9 21.2-3.1 41.6 1.9 52.3 0 0-.1.5-.3.7-.5 1.3-3.8 4.9-8.1 3.6-2-.5-3-2-3.9-4.5-1.2-3.3-1.3-8 1.2-11 2.2-2.6 2.4-5.4.7-7.7-1.6-2.1-4.7-2.9-6.7-1.9-2.8 1.3-4.8 8.7-5 15.8 0 2.8.3 5.3.9 7.3-.7 1.6-4.8 5.4-8.5 5-1-.1-1.9-.4-2.7-1.2-1.7-1.9-5.5-9-2.3-34.2 2.2-18.1 4.2-27.8 5.1-32.5.4-2.2.6-3.3.6-3.9 0-1-.8-1.8-2.3-2.3-2.1-.7-5.3-.7-6.4 1.2-.2.4-.7 1.7-1.8 5-8.3 25.2-16.2 40.6-25.8 49.3-1.1 1-1.7.8-2.1.6-6-2.9-7.7-41.6-6.9-52.8l.6-8.3c.3-3.2.8-5.2-1.7-6-3.3-.8-5.8-1.1-6.9 3.6l-1.8 7.6c-4 17.9-13.9 40.2-27.5 62.6-12.2 19.7-19.7 23.3-23.9 23-2.8-.2-3.6-1.4-4.5-2.7-.1-.1-1.3-1.9-3.5-1.3-4.4 1.6-6.8 5.8-6.7 11.4 0 .7.6 7.4 8.6 8.5 9.8 1.4 16.3-3.7 28.7-22.7C66 84.5 79.5 55.8 83.8 46c.6 9.9 3.6 32.2 7.1 37.7 1.3 2.7 3.4 3.9 5.5 4 4.2.3 8.4-4.6 12.4-9.3 6.2-7.2 14.2-21.2 17.7-27.5-1.9 19.6-2.8 43 3.4 48.9 2.1 2 5.9 3.6 12 .2 4.7-2.6 7.2-7.6 7.6-8.1h0c.4.8 3.2 5.1 8.1 5.3 0 0 6 .8 11.8-6.4.5-.6.9-1.2 1.4-1.8 1.7 2.7 3.5 4.2 5.1 5.1 5.8 2.9 12.3-.9 16.7-5.5 1.2-1.3 2.2-2.6 3-3.9 0 0 2.2 6.6 8.1 7.7 0 0 7 1.7 14-5.7h0c.2-.2.4-.5.6-.7 1.3 1.5 3.5 3.3 6.6 3.4 4.2.3 8.4-2.2 12.9-5.6 2.1 2.1 4.1 2.9 4.5 3 15.1 4.1 22.7-17 27.9-26.5 0 1.5.7 3 3.5 5.4.3.3 4.8 4.4 6 6.4l-8.1.9c-2.9.4-6 .8-7.3 3.5-.3.7-.9 2.2-.3 3.7 1.8 4.5 8.4 4.8 12.1 4.2 8.6-1.4 11.5-5.1 12.2-8.8.4-1 .4-1.5.3-2.3M151.7 56.4c1.5 1.2 3.1 1.6 4.5 1.1 1.5-.4 2.6-1.8 3.3-3.9.9-2.7-.4-4.7-1.9-5.6-1.9-1.2-4.3-1-5.7.4-1.5 1.5-2.2 3.1-2.1 4.7.1 1.3.7 2.4 1.9 3.3m72.3-6.8c1.5 0 3-1 4.3-2.8 1.7-2.3 1-4.6-.2-5.9-1.5-1.7-3.8-2.2-5.6-1.3-1.8 1-3 2.4-3.4 3.9-.3 1.3 0 2.6.9 3.7 1.2 1.6 2.6 2.5 4 2.4m41.5-1.1c.6 2-.6 2.6 0 3.3.7.9 2.9-3.1 3.1-7.7.3-7.5-4.2-6.1-4.5-6-1.5.5-2.9 1.7-2.3 4.4.6 3.4 3 4 3.7 6" fill="#e50695"/><g fill="#19d3c5"><path d="M6.2 133.8c.6 0 1.3.1 1.9.2s1.3.4 2 .7v2c-.7-.4-1.3-.7-1.9-.9s-1.2-.3-1.8-.3c-.8 0-1.5.2-2.2.5-.6.3-1.1.8-1.5 1.4s-.5 1.3-.5 2 .2 1.4.5 2c.4.6.9 1.1 1.5 1.4s1.4.5 2.2.5c.6 0 1.2-.1 1.8-.3s1.3-.5 2.1-1v2c-.7.4-1.4.6-2 .8s-1.3.2-2.1.2c-1.2 0-2.2-.2-3.2-.7-.9-.5-1.7-1.1-2.2-2s-.8-1.9-.8-2.9c0-1.1.3-2.1.8-3s1.3-1.6 2.3-2.1c.8-.3 1.8-.5 3.1-.5zm13.9 0c1.2 0 2.2.2 3.1.7s1.7 1.2 2.2 2.1c.6.9.8 1.9.8 3 0 1-.3 2-.8 2.9s-1.3 1.6-2.2 2.1-2 .7-3.2.7-2.2-.3-3.2-.8c-.9-.5-1.7-1.2-2.2-2.1s-.8-1.9-.8-2.9.3-2 .8-2.9 1.3-1.6 2.2-2.1 2.1-.7 3.3-.7zm-4 5.7c0 .7.2 1.4.5 2a3.16 3.16 0 0 0 1.4 1.4c.6.3 1.3.5 2 .5 1.2 0 2.1-.4 2.8-1.1s1.1-1.7 1.1-2.8c0-.7-.2-1.4-.5-2a3.16 3.16 0 0 0-1.4-1.4c-.6-.3-1.3-.5-2-.5s-1.4.2-2 .5a3.16 3.16 0 0 0-1.4 1.4c-.3.6-.5 1.3-.5 2zm20.2-5.7c1.2 0 2.2.2 3.1.7s1.7 1.2 2.2 2.1c.6.9.8 1.9.8 3 0 1-.3 2-.8 2.9s-1.3 1.6-2.2 2.1-2 .7-3.2.7-2.2-.3-3.2-.8-1.7-1.2-2.2-2.1-.8-1.9-.8-2.9.3-2 .8-2.9 1.3-1.6 2.2-2.1 2.1-.7 3.3-.7zm-4 5.7c0 .7.2 1.4.5 2a3.16 3.16 0 0 0 1.4 1.4c.6.3 1.3.5 2 .5 1.2 0 2.1-.4 2.8-1.1s1.1-1.7 1.1-2.8c0-.7-.2-1.4-.5-2a3.16 3.16 0 0 0-1.4-1.4c-.6-.3-1.3-.5-2-.5-.8 0-1.4.2-2 .5a3.16 3.16 0 0 0-1.4 1.4c-.3.6-.5 1.3-.5 2zm16.6-5.6v5.2h0l4.1-5.2h2.5l-4.2 5.3 5.4 5.9h-2.8l-5.1-5.5v5.5h-2.2v-11.2h2.3zm13.6 0v11.2h-2.2v-11.2h2.2zm12 0v1.7h-5.1v2.9h4.9v1.7h-4.9v3.2h5.2v1.7h-7.3v-11.2h7.2 0z"/><use xlink:href="#B"/><use xlink:href="#C"/><path d="M130.4 133.8c1.2 0 2.2.2 3.1.7s1.7 1.2 2.2 2.1c.6.9.8 1.9.8 3 0 1-.3 2-.8 2.9s-1.3 1.6-2.2 2.1-2 .7-3.2.7-2.2-.3-3.2-.8-1.7-1.2-2.2-2.1-.8-1.9-.8-2.9.3-2 .8-2.9 1.3-1.6 2.2-2.1c1-.5 2.1-.7 3.3-.7zm-4 5.7c0 .7.2 1.4.5 2a3.16 3.16 0 0 0 1.4 1.4c.6.3 1.3.5 2 .5 1.2 0 2.1-.4 2.8-1.1s1.1-1.7 1.1-2.8c0-.7-.2-1.4-.5-2a3.16 3.16 0 0 0-1.4-1.4c-.6-.3-1.3-.5-2-.5-.8 0-1.4.2-2 .5a3.16 3.16 0 0 0-1.4 1.4c-.3.6-.5 1.3-.5 2zm21.3-5.6v1.7H143v2.9h4.7v1.7H143v4.9h-2.2v-11.2h6.9 0zm11.1 0v1.7h-4.7v2.9h4.7v1.7h-4.7v4.9h-2.2v-11.2h6.9 0zm11.5 0v1.7h-5.1v2.9h4.9v1.7h-4.9v3.2h5.2v1.7H163v-11.2h7.3 0zm11.7 0v1.7h-5.1v2.9h4.9v1.7h-4.9v3.2h5.2v1.7h-7.4v-11.2h7.3 0z"/><use xlink:href="#C" x="96.4"/><path d="M223.3 133.9v6.5c0 .7.1 1.2.3 1.6s.5.7 1 1 1 .4 1.6.4c.7 0 1.2-.1 1.7-.4.5-.2.8-.6 1-1s.3-1 .3-1.7v-6.4h2.2v6.7c0 1.5-.5 2.7-1.4 3.5s-2.2 1.2-3.8 1.2c-1 0-1.9-.2-2.7-.6s-1.3-.9-1.7-1.6-.6-1.5-.6-2.5v-6.7h2.1zm17 0c1 0 1.9.3 2.6.9s1 1.4 1 2.3c0 1-.3 1.8-1 2.4s-1.5.9-2.6.9h-2.1v4.7H236v-11.2h4.3 0zm-.5 4.8c.6 0 1-.1 1.4-.4.3-.3.5-.7.5-1.2 0-1-.7-1.5-2-1.5h-1.5v3.1h1.6 0z"/><use xlink:href="#C" x="137.3"/><path d="M267.8 133.9l4.9 11.2h-2.3l-1.2-2.7h-5l-1.1 2.7h-2.3l4.6-11.2h2.4zm-2.9 6.8h3.6l-1.9-4.4-1.7 4.4zm13.6-6.8v5.2h0l4.1-5.2h2.5l-4.2 5.3 5.4 5.9h-2.8l-5.1-5.5v5.5h-2.1v-11.2h2.2zm18.5 0v1.7h-5.1v2.9h4.9v1.7h-4.9v3.2h5.2v1.7h-7.4v-11.2h7.3 0z"/><use xlink:href="#B" x="222.5"/></g><path d="M97.8 133.7h1.6v11.6h-1.6zm97.7 0h1.6v11.6h-1.6z" fill="#e50695"/><defs ><path id="B" d="M82.2 133.8c1.1 0 2.1.3 3.2.8v1.9c-1.2-.7-2.2-1.1-3.1-1.1-.5 0-1 .1-1.3.3s-.5.5-.5.8c0 .4.3.8.9 1.2l1.9.9c.9.4 1.6.9 2 1.4s.6 1.2.6 1.9c0 1-.3 1.7-1 2.3s-1.6.9-2.7.9c-.7 0-1.3-.1-1.8-.2-.5-.2-1.1-.4-1.7-.8V142c1.2 1 2.3 1.5 3.4 1.5.5 0 1-.1 1.3-.3s.5-.5.5-.9c0-.5-.3-.9-.8-1.3-.5-.3-1.1-.6-1.8-.9-.9-.4-1.5-.9-2-1.4-.4-.5-.7-1.2-.7-1.9 0-.9.4-1.7 1.1-2.2.4-.6 1.3-.8 2.5-.8z"/><path id="C" d="M116.5 133.8c.6 0 1.3.1 1.9.2s1.3.4 2 .7v2c-.7-.4-1.3-.7-1.9-.9s-1.2-.3-1.8-.3c-.8 0-1.5.2-2.2.5-.6.3-1.1.8-1.5 1.4s-.5 1.3-.5 2 .2 1.4.5 2c.4.6.9 1.1 1.5 1.4s1.4.5 2.2.5c.6 0 1.2-.1 1.8-.3s1.3-.5 2.1-1v2c-.7.4-1.4.6-2 .8s-1.3.2-2.1.2c-1.2 0-2.2-.2-3.2-.7-.9-.5-1.7-1.1-2.2-2s-.8-1.9-.8-2.9c0-1.1.3-2.1.8-3s1.3-1.6 2.3-2.1c.8-.3 1.9-.5 3.1-.5z"/></defs></svg>