<?xml version="1.0"?>
<svg xmlns="http://www.w3.org/2000/svg" xmlns:xlink="http://www.w3.org/1999/xlink" xmlns:svgjs="http://svgjs.com/svgjs" version="1.1" width="512" height="512" x="0" y="0" viewBox="0 0 512 512" style="enable-background:new 0 0 512 512" xml:space="preserve" class=""><g>
<circle xmlns="http://www.w3.org/2000/svg" style="" cx="256" cy="256" r="256" fill="#f1f1f1" data-original="#005c83" class=""/>
<path xmlns="http://www.w3.org/2000/svg" style="" d="M512,256c0-1.831-0.031-3.655-0.069-5.477l-98.843-98.843l-78.871,90.582l-90.582-90.582  L98.913,260.236l64.192,64.192l-76.772,34.849L238.446,511.39c5.802,0.392,11.652,0.61,17.554,0.61C397.385,512,512,397.385,512,256  z" fill="#f1f1f1" data-original="#00263f" class=""/>
<rect xmlns="http://www.w3.org/2000/svg" x="86.33" y="330.28" style="" width="339.33" height="29" fill="#ff6838" data-original="#ff6838" class=""/>
<rect xmlns="http://www.w3.org/2000/svg" x="256.33" y="330.28" style="" width="169.33" height="29" fill="#ae4e32" data-original="#ae4e32"/>
<rect xmlns="http://www.w3.org/2000/svg" x="156.77" y="237.13" style="" width="29" height="107.65" fill="#ff6838" data-original="#ff6838" class=""/>
<rect xmlns="http://www.w3.org/2000/svg" x="170" y="237.13" style="" width="15.773" height="107.65" fill="#ae4e32" data-original="#ae4e32"/>
<polygon xmlns="http://www.w3.org/2000/svg" style="" points="200.882,324.59 200.882,294.07 141.665,294.07 141.665,324.59 124.355,324.59   124.355,364.675 218.192,364.675 218.192,324.59 " fill="#ffdc00" data-original="#ffdc00"/>
<polygon xmlns="http://www.w3.org/2000/svg" style="" points="218.192,324.59 200.882,324.59 200.882,294.07 170,294.07 170,364.675 218.192,364.675 " fill="#ffc000" data-original="#ffc000" class=""/>
<rect xmlns="http://www.w3.org/2000/svg" x="326.23" y="237.13" style="" width="29" height="107.65" fill="#ff6838" data-original="#ff6838" class=""/>
<rect xmlns="http://www.w3.org/2000/svg" x="341" y="237.13" style="" width="14.227" height="107.65" fill="#ae4e32" data-original="#ae4e32"/>
<polygon xmlns="http://www.w3.org/2000/svg" style="" points="370.335,324.59 370.335,294.07 311.118,294.07 311.118,324.59 293.808,324.59   293.808,364.675 387.645,364.675 387.645,324.59 " fill="#ffdc00" data-original="#ffdc00"/>
<polygon xmlns="http://www.w3.org/2000/svg" style="" points="387.645,324.59 370.335,324.59 370.335,294.07 341,294.07 341,364.675 387.645,364.675 " fill="#ffc000" data-original="#ffc000" class=""/>
<rect xmlns="http://www.w3.org/2000/svg" x="98.91" y="151.68" style="" width="144.72" height="108.56" fill="#ffffff" data-original="#ffffff" class=""/>
<rect xmlns="http://www.w3.org/2000/svg" x="170" y="151.68" style="" width="73.64" height="108.56" fill="#e0e0e0" data-original="#e0e0e0" class=""/>
<rect xmlns="http://www.w3.org/2000/svg" x="115.4" y="167.48" style="" width="111.74" height="76.36" fill="#35ccff" data-original="#35ccff" class=""/>
<rect xmlns="http://www.w3.org/2000/svg" x="170" y="167.48" style="" width="57.14" height="76.36" fill="#00baff" data-original="#00baff"/>
<rect xmlns="http://www.w3.org/2000/svg" x="268.37" y="151.68" style="" width="144.72" height="108.56" fill="#ffffff" data-original="#ffffff" class=""/>
<rect xmlns="http://www.w3.org/2000/svg" x="341" y="151.68" style="" width="72.09" height="108.56" fill="#e0e0e0" data-original="#e0e0e0" class=""/>
<rect xmlns="http://www.w3.org/2000/svg" x="284.86" y="167.48" style="" width="111.74" height="76.36" fill="#35ccff" data-original="#35ccff" class=""/>
<rect xmlns="http://www.w3.org/2000/svg" x="341" y="167.48" style="" width="55.6" height="76.36" fill="#00baff" data-original="#00baff"/>
<g xmlns="http://www.w3.org/2000/svg">
</g>
<g xmlns="http://www.w3.org/2000/svg">
</g>
<g xmlns="http://www.w3.org/2000/svg">
</g>
<g xmlns="http://www.w3.org/2000/svg">
</g>
<g xmlns="http://www.w3.org/2000/svg">
</g>
<g xmlns="http://www.w3.org/2000/svg">
</g>
<g xmlns="http://www.w3.org/2000/svg">
</g>
<g xmlns="http://www.w3.org/2000/svg">
</g>
<g xmlns="http://www.w3.org/2000/svg">
</g>
<g xmlns="http://www.w3.org/2000/svg">
</g>
<g xmlns="http://www.w3.org/2000/svg">
</g>
<g xmlns="http://www.w3.org/2000/svg">
</g>
<g xmlns="http://www.w3.org/2000/svg">
</g>
<g xmlns="http://www.w3.org/2000/svg">
</g>
<g xmlns="http://www.w3.org/2000/svg">
</g>
</g></svg>
