<svg xmlns="http://www.w3.org/2000/svg" width="395" height="156" fill="none"><g fill="#900"><path d="M386.152 144.937c-2.08 0-3.732 1.684-3.732 3.704v.031c0 2.02 1.621 3.703 3.701 3.703s3.733-1.683 3.733-3.703v-.031c0-2.02-1.622-3.704-3.702-3.704zm3.273 3.704a3.27 3.27 0 0 1-3.304 3.306c-1.866 0-3.273-1.469-3.273-3.275v-.031a3.27 3.27 0 0 1 3.304-3.306c1.866.031 3.273 1.469 3.273 3.306zm-11.503-16.957v-.092c0-2.296-.826-4.377-2.263-5.785-1.836-1.837-4.742-2.939-8.352-2.939h-12.635v29.385h3.273v-11.325h8.444l8.535 11.325h4.069l-9.025-11.999c4.589-.857 7.954-3.703 7.954-8.57zm-19.977 6.183v-11.938h9.117c4.742 0 7.526 2.174 7.526 5.785v.092c0 3.765-3.151 6.061-7.557 6.061h-9.086zm-68.987-14.999h3.488l-10.494 29.385h-2.814l-8.046-23.661-8.107 23.63h-2.784l-10.494-29.384h3.61l8.383 24.456 8.046-24.456h2.723l8.107 24.487 8.382-24.457zm30.563 0h3.854l-12.206 17.692v11.662h-3.366v-11.631l-12.206-17.753h4.038l9.912 14.692 9.974-14.662zm10.86 26.355h18.08v3.03h-21.384v-29.385h21.109v3.337h-17.805v10.162h15.939v3.03h-15.939v9.826zm-94.104-26.661l-13.4 29.691h3.396l3.488-7.652h16l3.457 7.652h3.579l-13.399-29.691h-3.121zm-5.048 18.978l6.578-15.029 6.577 15.029h-13.155zm-28.696 7.376h16.184v3.337h-19.824v-29.385h3.64v26.048zm185.393-.887c0-.367-.122-.674-.336-.888-.276-.275-.673-.428-1.224-.428h-1.744v3.979h.857v-1.286h.673.03l.827 1.286h1.009l-.948-1.439c.489-.183.856-.581.856-1.224zm-.887.061c0 .337-.245.551-.673.551h-.857v-1.163h.857c.398.03.673.214.673.612zM4.322 122.868h20.742c4.528 0 7.618 1.347 9.576 3.398 1.713 1.714 2.631 3.949 2.631 6.826v.061c0 4.53-2.356 7.499-6.027 9.06l7.557 9.979h-9.453l-6.669-8.816h-3.396v8.816h-8.199v-22.069l-6.761-7.255zm20.497 14.387c2.753 0 4.283-1.47 4.283-3.582v-.061c0-2.296-1.744-3.704-4.436-3.704h-5.384v7.347h5.537zm15.358.551v-.062c0-8.478 6.822-15.304 15.878-15.304s15.817 6.764 15.817 15.243v.061c0 8.479-6.822 15.305-15.878 15.305-9.147 0-15.816-6.765-15.816-15.243zm23.342 0v-.062c0-4.254-3.09-7.958-7.556-7.958s-7.404 3.612-7.404 7.866v.092c0 4.255 3.09 7.959 7.557 7.959s7.404-3.643 7.404-7.897zm11.442 0v-.062c0-8.601 6.639-15.304 15.48-15.304 6.027 0 9.912 2.51 12.482 6.122l-6.119 4.713c-1.713-2.112-3.61-3.489-6.425-3.489-4.13 0-7.036 3.489-7.036 7.744v.061c0 4.408 2.876 7.867 7.036 7.867 3.09 0 4.864-1.439 6.639-3.551l6.119 4.408c-2.754 3.795-6.486 6.642-13.063 6.642-8.382.092-15.113-6.367-15.113-15.151zm32.153-14.938h8.26v11.938l10.034-11.938h9.637l-11.166 12.856 11.564 16.529h-9.851l-7.342-10.713-2.876 3.673v7.04h-8.26v-29.385zm32.122 0h23.863v7.04h-15.908v4.286h14.378v6.734h-14.378v4.622h16.214v6.703h-24.169v-29.385zm37.018 7.04h-8.872v-7.04h25.698v7.04h-8.872v22.345h-7.954v-22.345z"/><circle cx="197.017" cy="49" r="49"/></g><path d="M218.012 58.732c7.963-3.403 13.067-9.8 13.067-19.6v-.136c0-6.261-1.974-11.093-5.717-14.768-4.219-4.424-11.025-6.874-20.825-6.874h-44.916l14.428 15.721v47.571h17.694V60.91h8.72l14.079 19.736h19.872l-16.402-21.914zm-4.627-18.443c0 4.56-3.335 7.758-9.256 7.758h-12.386V31.578h12.114c5.853 0 9.596 3.539 9.596 8.507v.204h-.068z" fill="#fff"/></svg>