<svg xmlns="http://www.w3.org/2000/svg" viewBox="0 0 597.6 55.8" xmlns:v="https://vecta.io/nano"><path d="M11 8.4H0V.7h31.2v7.6h-11v32.6H11V8.4zM49.2.7h9.1v15.5h13.9V.7h9.1v40.2h-9.1V24.2H58.3V41h-9.1V.7zm53.3 0h25.2v7.6h-16.1v8.1h13.7V24h-13.7v9.2h16.7v7.6h-25.8V.7zm69.5 0h14.5c8.5 0 15.5 3 15.5 12.5 0 5.9-2.8 9.7-7.2 11.6l9.1 16.1h-10.2L186 26.4h-5v14.5h-9V.7zm13.8 18.5c4.7 0 7.3-2 7.3-6S190.5 8 185.8 8h-4.7v11.3h4.7zm33.8 1.5C219.6 7.5 227 0 237.9 0s18.3 7.6 18.3 20.7-7.4 21-18.3 21-18.3-7.9-18.3-21zm27.2 0c0-8-3.5-12.8-8.9-12.8s-8.9 4.8-8.9 12.8c0 8.1 3.5 13.2 8.9 13.2s8.9-5.2 8.9-13.2zm34.3 5.9L268.9.7h9.7l3.6 9.2 3.3 8.9h.2l3.4-8.9 3.6-9.2h9.5l-12.1 25.9v14.3H281V26.6zM324.6.7h10.9l12.6 40.2h-9.6l-2.5-9.6h-12.3l-2.5 9.6H312L324.6.7zm1 23.6h8.6l-.9-3.7c-1.1-4-2.2-8.8-3.3-12.9h-.2l-3.1 12.9-1.1 3.7zM364.2.7h9.1v32.6h15.9v7.6h-25V.7zm65.1 35.2l5.2-6.2c2.9 2.5 6.6 4.2 9.9 4.2 3.8 0 5.6-1.5 5.6-3.9 0-2.5-2.3-3.3-5.8-4.8L439 23c-4.1-1.7-8.1-5.1-8.1-11 0-6.7 5.9-12 14.3-12 4.6 0 9.5 1.8 12.9 5.3l-4.6 5.7c-2.7-2-5.1-3.2-8.3-3.2-3.1 0-5.1 1.4-5.1 3.6 0 2.5 2.7 3.3 6.1 4.7l5.2 2.1c4.9 2 8 5.2 8 10.9 0 6.7-5.5 12.5-15.2 12.5a21.6 21.6 0 0 1-14.9-5.7zm55.2-27.5h-11V.7h31.2v7.6h-11v32.6h-9.1V8.4zM527.7.7h10.9l12.6 40.2h-9.6l-2.5-9.6h-12.3l-2.5 9.6h-9.2L527.7.7zm1 23.6h8.6l-.9-3.7c-1.1-4-2.2-8.8-3.3-12.9h-.2l-3.1 12.9-1.1 3.7zm36-3.2c0-13.3 8.9-21.1 19.6-21.1 5.8 0 10 2.5 12.6 5.2l-4.7 5.8c-2-1.8-4.1-3.2-7.6-3.2-6.2 0-10.6 4.9-10.6 12.9 0 8.3 3.8 13.1 11.3 13.1 1.7 0 3.3-.4 4.3-1.2v-6.9H583v-7.4h14.7v18.5c-2.8 2.7-7.6 4.9-13.3 4.9-11 0-19.7-7.1-19.7-20.6zM0 53.6h597.6v2.2H0z"/></svg>