<?xml version="1.0" encoding="utf-8"?>
<svg version="1.1" id="Layer_1" xmlns="http://www.w3.org/2000/svg" xmlns:xlink="http://www.w3.org/1999/xlink" x="0px" y="0px"
	width="100px" height="100px" viewBox="0 0 100 100" style="enable-background:new 0 0 100 100;" xml:space="preserve">
<g>
	<g>
		<path style="fill:#E8E8E8;" d="M50,0c27.6,0,50,22.4,50,50s-22.4,50-50,50S0,77.6,0,50S22.4,0,50,0"/>
		<path style="fill:#FFFFFF;" d="M50,1c27.1,0,49,21.9,49,49S77.1,99,50,99S1,77.1,1,50S22.9,1,50,1"/>
	</g>
	<g>
		<path d="M45.47,40H43.1c-0.48,0-0.48,0.05-0.48,0.53v11.4c0,3.05-1.17,4.88-3.8,4.88c-2.62,0-3.79-1.85-3.79-4.88v-11.4
			c0-0.48,0-0.53-0.5-0.53h-2.26c-0.5,0-0.56,0.05-0.56,0.53V52.1c0,5.4,2.85,7.9,7.13,7.9s7.13-2.51,7.13-7.9V40.53
			C45.95,40.07,45.95,40,45.47,40L45.47,40z M18.24,40h-5.59c-0.48,0-0.48,0.05-0.48,0.53v18.47c0,0.48,0,0.53,0.48,0.53h2.26
			c0.45,0,0.49-0.05,0.49-0.53v-7.1h2.82c4.19,0,7.05-1.65,7.05-5.97C25.29,41.6,22.43,40,18.24,40L18.24,40z M18.47,48.83h-3.05
			v-5.76h3.05c2.05,0,3.58,0.81,3.58,2.85S20.51,48.83,18.47,48.83L18.47,48.83z M87.25,56.47h-7.38v-5.31h6.73
			c0.41,0,0.48-0.05,0.48-0.53v-2.01c0-0.48-0.05-0.53-0.48-0.53h-6.73v-5h7.29c0.48,0,0.53-0.05,0.53-0.53v-2.01
			c0-0.48-0.05-0.53-0.53-0.53H77.2c-0.5,0-0.56,0.05-0.56,0.53v18.47c0,0.48,0.05,0.53,0.56,0.53h10.07c0.49,0,0.56-0.05,0.56-0.53
			v-2.1C87.81,56.52,87.75,56.47,87.25,56.47L87.25,56.47z M68.44,45.79c0-4.19-2.86-5.78-7.05-5.78h-5.64
			c-0.41,0-0.41,0.05-0.41,0.53v18.47c0,0.48,0,0.53,0.41,0.53h2.33c0.49,0,0.49-0.05,0.49-0.53v-7.34h2.18l3.86,7.58
			c0.13,0.25,0.31,0.31,0.53,0.31h2.71c0.33,0,0.41-0.25,0.28-0.48l-3.99-7.79C66.58,50.74,68.44,48.98,68.44,45.79 M61.63,48.83
			h-3.05v-5.76h3.05c2.05,0,3.58,0.81,3.58,2.85S63.65,48.83,61.63,48.83L61.63,48.83z"/>
	</g>
</g>
</svg>
