<?xml version="1.0" encoding="utf-8"?>
<svg version="1.1" id="Layer_1" xmlns="http://www.w3.org/2000/svg" xmlns:xlink="http://www.w3.org/1999/xlink" x="0px" y="0px"
	 viewBox="0 0 235.8 106.8" style="enable-background:new 0 0 235.8 106.8;" xml:space="preserve">
<g>
	<path id="Fill-4" d="M234.8,48.9c-3-0.1-6,0-8.9-0.2c-2.3-0.1-4.7-0.4-7-0.6c-1.5-0.2-2.9-0.3-4.4-0.6c-1.7-0.3-3.5-0.7-5.2-1.2
		c-1.9-0.6-3.9-1.2-5.7-2c-1.4-0.6-2.7-1.4-4-2.2c-1.4-0.9-2.6-2-3.6-3.3c-1.2-1.7-0.8-3.3,0.8-4.5c4-2.9,8-5.8,11.9-8.8
		c2.1-1.6,4.1-3.3,6.1-5.1c3-2.6,5.9-5.3,8.5-8.3c1.3-1.5,2.4-3.1,3.2-4.9c0.5-1.1,0.8-2.4,0.3-3.5c-1.2-2.4-3.4-3.4-5.8-3.7
		c-3.4-0.4-6.6,0.7-9.5,2.4c-2,1.1-3.8,2.6-5.7,4c-3.8,2.9-7.3,6.1-10.4,9.6c-2.5,2.8-4.8,5.7-6.6,8.9c-2,3.5-3.6,7.2-4.3,11.2
		c-0.1,0.4-0.2,0.8-0.4,1.2c-0.9,1.4-2.1,2.5-3.4,3.5c-1.7,1.2-3.5,2.1-5.4,2.9c-1.6,0.7-3.2,1-4.9,1.1c-0.5,0-1.1,0-1.6-0.2
		c-0.3,0-0.5-0.3-0.7-0.5c-0.1-0.1-0.2-0.4-0.1-0.6c0.1-0.1,0.3-0.2,0.5-0.2c0.2,0,0.4,0,0.6,0c2.2-0.3,4.3-0.9,6.2-2
		c3.2-1.8,5.9-4,7.6-7.3c0.9-1.8,1-3.6-0.1-5.3c-0.4-0.7-0.9-1.4-1.4-2c-1.9-2.1-4.1-3.1-7-2.9c-1.7,0.1-3.3,0.8-4.8,1.5
		c-3.1,1.5-5.9,3.4-8,6.2c-1.4,1.8-2.1,3.8-2.5,6c-0.1,0.8-0.5,1.1-1.2,0.8c-0.9-0.5-1.7-1.1-2.5-1.7c-0.2-0.2-0.3-0.6-0.3-0.9
		c-0.2-2.8-1.8-4.1-3.8-4.8c-1.7-0.6-3.5-0.6-5.2-0.5c-0.3,0-0.6-0.1-0.8-0.2c-1.5-1.1-3.1-2.1-4.9-2.6c-1.9-0.5-3.8-0.4-5.3,0.9
		c-3.1,2.7-6.2,5.4-9.2,8.2c-2.8,2.6-5.5,5.4-8.3,8.1c-0.6,0.6-1.4,1.2-2.1,1.7c-0.2,0.2-0.7,0.3-0.9,0.1c-0.2-0.2-0.4-0.6-0.3-0.9
		c0.2-1,0.5-2,0.9-3c0.5-1.5,1.2-3,1.7-4.5c0.6-2-0.6-3.9-2.5-4.6c-1.6-0.7-3.3-0.8-5-0.9c-3.2-0.1-6.3,0.5-9.2,1.7
		c-3.2,1.3-6,3.3-8.2,6c-1.8,2.2-3.5,4.5-4.6,7.1c-1.1,2.8-1.4,5.5,0.2,8.3c1.2,1.9,2.7,3.4,4.9,3.9c2,0.4,3.9,0,5.7-0.9
		c3-1.5,5.5-3.8,7.7-6.3c0.2-0.2,0.3-0.5,0.5-0.7c0.1,0,0.2,0.1,0.3,0.1c0.2,0.4,0.3,0.9,0.5,1.3c0.6,1.4,1.7,2.7,3.7,2.4
		c1-0.2,1.9-0.6,2.7-1.1c2.7-1.5,4.8-3.7,6.9-5.9c0.3-0.3,0.6-0.7,1-1.1c0.1,0.2,0.2,0.3,0.2,0.5c0.2,0.8,0.4,1.6,0.7,2.4
		c1.2,3.2,3.4,4.6,6.8,4c2.1-0.3,4-1.3,5.8-2.5c2.2-1.5,4.2-3.2,6.3-4.9c0.2-0.1,0.4-0.3,0.5-0.4c0,0,0.1,0.1,0.2,0.1
		c0,0.3,0,0.5-0.1,0.8c-1.2,3.2-2.3,6.5-3.5,9.7c-1,2.6-2.1,5.3-3.2,7.8c-1.4,3.2-2.8,6.3-4.4,9.4c-1.8,3.3-3.7,6.6-5.7,9.8
		c-2.4,3.9-5.2,7.4-8.5,10.6c-2.2,2.2-4.6,4-7.4,5.3c-2.7,1.3-5.4,2.3-8.3,2.8c-2.5,0.4-4.9,0.6-7.3,0c-2.5-0.6-4.4-2-5.8-4.1
		c-1.1-1.8-1.7-3.7-2.1-5.8c-0.3-1.5-0.3-1.5-1.9-1.3c-2.3,0.2-4.4,0.9-6.5,1.8c-1.4,0.6-1.4,0.7-0.7,2c2.2,3.8,5.4,6.5,9.2,8.5
		c1,0.5,2,1,3.1,1.3c1.3,0.4,2.7,0.8,4,1c1.7,0.3,3.3,0.5,5,0.6c1,0.1,2-0.1,3.1-0.2c1.1-0.1,2.2-0.1,3.3-0.2
		c2.4-0.1,4.7-0.6,6.9-1.3c1.9-0.6,3.7-1.4,5.5-2.3c3.2-1.5,6-3.6,8.6-5.9c3.8-3.4,7-7.4,9.6-11.8c1.8-3.2,3.5-6.6,5.1-9.9
		c1.3-2.6,2.5-5.3,3.7-8c1.3-2.9,2.6-5.8,3.9-8.7c1.2-2.7,2.4-5.4,3.5-8.1c1.1-2.6,2.2-5.3,3.3-8c0.2-0.4,0.4-0.5,0.8-0.3
		c0.5,0.3,0.9,0.6,1.4,0.8c0.8,0.4,1.7,0.8,2.6,1.1c0.5,0.1,0.9,0.3,1.1,0.8c0.3,0.6,0.5,1.2,0.8,1.7c2.7,4.8,7,6.5,12,5.5
		c2.3-0.5,4.3-1.6,6.1-3c2.8-2.1,5.2-4.6,7.4-7.4c0.3-0.4,0.5-0.4,0.9-0.1c2.9,2.9,6.3,4.8,10,6.3c1.9,0.8,3.8,1.3,5.7,2
		c0.8,0.3,1.5,0.4,2.3,0.6c1.2,0.2,2.3,0.4,3.5,0.6c2,0.3,3.9,0.6,5.9,0.7c2.6,0.1,5.2,0,7.8,0c1.3,0,2.5,0,3.8-0.2
		c2.2-0.2,4.5-0.5,6.7-0.8c0.8-0.1,1.5-0.5,2.2-0.8c0.3-0.1,0.3-0.6,0.5-0.8C235.3,49.1,235.1,48.9,234.8,48.9z M197.6,25.7
		c0.5-0.9,1-1.9,1.7-2.7c1.4-1.7,2.9-3.4,4.5-5c2.8-2.9,5.9-5.6,9.2-8.1c1.3-1,2.7-1.9,4-2.8c0.3-0.2,0.7-0.4,1.1-0.5
		c0.4-0.1,0.7,0.1,0.6,0.7c-0.1,0.2-0.3,0.6-0.5,0.8c-1.4,1.5-2.7,3-4.1,4.4c-1.9,1.8-3.8,3.6-5.7,5.4c-1.2,1.1-2.4,2.2-3.7,3.3
		c-1.1,1-2.1,2-3.3,3c-1,0.8-2,1.5-3,2.2c-0.2,0.1-0.6,0.1-0.7,0C197.6,26.2,197.5,25.8,197.6,25.7z M108.2,38.5
		c-0.8,2.3-2.2,4.3-3.6,6.3c-1.7,2.5-3.7,4.6-6,6.5c-0.8,0.7-1.7,1.2-2.5,1.3c-1,0-1.4-0.4-1.1-1.2c0.5-1.4,0.9-2.8,1.6-4
		c1.3-2.3,2.6-4.6,4.1-6.8c1-1.5,2.6-2.6,4.4-3.2c0.7-0.2,1.4-0.3,2.1-0.4C108,37,108.4,37.7,108.2,38.5z M141.2,35.6
		c-0.6,1.4-1.3,2.8-2.2,4.1c-1.7,2.5-3.6,4.8-5.9,6.8c-0.7,0.6-1.5,1.1-2.4,1.5c-0.9,0.3-1.2-0.1-1.4-1c0.4-1,0.6-2.2,1.1-3.1
		c1.2-2,2.6-3.9,4-5.8c0.7-0.9,1.4-1.8,2.2-2.6c1-1,2.1-1.6,3.5-1.5C141.1,34,141.6,34.7,141.2,35.6z M167.6,36
		c1-1.1,1.9-2.3,2.9-3.3c1-1,2.2-1.7,3.5-2c0.2-0.1,0.5-0.1,0.7-0.2c0.9,0.2,1.8,0.5,2.5,1.2c0.3,0.3,0.3,0.7-0.1,1
		c-1.2,0.7-2.3,1.5-3.5,2.1c-1.1,0.6-2.3,1-3.5,1.5c-0.7,0.2-1.3,0.4-2,0.5c-0.2,0-0.5-0.1-0.6-0.2C167.5,36.5,167.5,36.1,167.6,36z
		"/>
	<path id="Fill-6" d="M81.9,33.4c2.6-1.4,4.6-3.5,5.9-6.2c1.6-3.3,1.1-6.3-2.1-8.5c-1.6-1.1-3.3-1.8-5.3-2.2
		c-1.8-0.4-3.5-0.9-5.3-1.1c-2.6-0.3-5.3-0.5-7.9-0.5c-2.6-0.1-5.2,0.1-7.8,0.1c-0.4,0-0.8,0-1.2,0c-1.8,0.2-3.7,0.4-5.5,0.6
		c-1.7,0.2-3.4,0.4-5,0.7c-1.8,0.3-3.6,0.7-5.4,1.1c-2.4,0.6-4.8,1.1-7.1,1.8c-2.5,0.7-4.9,1.6-7.4,2.4c-0.4,0.1-0.8,0.3-1.1,0.5
		c0,0.1,0,0.1,0.1,0.2c0.2,0,0.3,0.1,0.4,0.1c2.7,0.2,5.4,0.5,8.1,0.7c0.9,0.1,1.7,0.3,2.6,0.3c0.7,0.1,1.5,0.1,2.2,0
		c1.5-0.2,2.9-0.5,4.4-0.7c0.2,0,0.3,0.1,0.5,0.2c-0.1,0.2-0.1,0.3-0.2,0.5c-1.1,1.4-2.2,2.8-3.3,4.2c-3.3,4.1-6.6,8.3-9.9,12.4
		c-2.3,2.9-4.6,5.7-6.9,8.6c-2.3,2.8-4.5,5.7-6.8,8.5c-2.5,3.1-5,6.2-7.4,9.3c-1.7,2.1-3.4,4.3-5.2,6.5c-0.3,0.4-0.7,0.8-1.1,0.9
		c-1.1,0.3-2.2,0.4-3.3,0.6c-0.3,0.1-0.6,0.2-1,0.3c0.2,0.2,0.3,0.3,0.3,0.3c0.9,0.3,1.8,0.6,2.6,0.8C5,76.5,7.1,77,9.2,77.5
		c0.8,0.2,1.8,0.2,2.6,0.1c1.5-0.2,2.9-0.5,4.4-0.8c1.2-0.2,2.5-0.4,3.7-0.6c1-0.2,2-0.4,3-0.6c1.8-0.3,3.5-0.6,5.3-1
		c0.8-0.1,1.5-0.3,2.3-0.5c0.9-0.2,1.9-0.4,2.8-0.6c1.5-0.3,3-0.6,4.5-1c1.4-0.3,2.8-0.7,4.3-1.1c1.5-0.4,2.9-0.7,4.4-1.1
		c1.2-0.3,2.4-0.7,3.6-1c1.7-0.5,3.4-0.9,5-1.5c1.9-0.6,3.8-1.2,5.6-1.9c2.4-0.9,4.8-1.7,7.2-2.8c2.5-1.1,4.8-2.3,7.2-3.6
		c2.5-1.3,4.9-3,6.9-5.1c1.5-1.6,2.8-3.4,3.3-5.6c0.5-2.4,0-4.7-1.1-6.8c-1.4-2.7-3.4-4.8-5.7-6.6c-0.2-0.1-0.3-0.4-0.4-0.6
		c0.2-0.1,0.3-0.2,0.5-0.3C79.8,34.2,81,33.9,81.9,33.4z M75.6,45.8c-0.9,1.5-2.1,2.8-3.4,3.9c-2.2,1.8-4.6,3.3-7.2,4.5
		c-2.4,1.1-5,2.1-7.5,3.1c-2,0.8-4,1.5-5.9,2.2c-2.4,0.9-4.8,1.7-7.2,2.6c-1.8,0.6-3.6,1.3-5.4,1.9c-2.4,0.8-4.9,1.5-7.3,2.3
		c-2.1,0.7-4.1,1.4-6.2,2c-1.1,0.4-2.3,0.6-3.4,0.9c-0.3,0.1-0.6,0.3-1,0.4c-0.2,0-0.5,0-0.7,0c0-0.3,0-0.5,0.2-0.7
		c0.9-1.3,1.8-2.5,2.7-3.7c2.4-3.4,4.9-6.8,7.3-10.2c3-4.1,5.9-8.3,8.9-12.4c4-5.5,8-11.1,12-16.6c1-1.4,1.9-2.7,2.9-4.1
		c0.2-0.2,0.4-0.4,0.7-0.5c1.1-0.2,2.2-0.3,3.3-0.5c4.1-0.5,8.3-0.8,12.4-0.7c1.7,0,3.3,0.4,4.7,1.3c1.1,0.7,1.3,1.7,0.5,2.7
		c-1,1.3-2.5,2.1-4,2.8c-1.9,0.9-3.8,1.8-5.7,2.5c-1.7,0.7-3.4,1.2-5.2,1.8c-2.3,0.7-4.7,1.4-7.1,2c-1.3,0.3-2.6,0.5-4,0.7
		c-1.3,0.2-2.7,0.5-4.2,0.7c1,0.8,1.9,1.6,2.8,2.3c1.7,1.4,3.5,2.7,5.1,4.1c0.8,0.7,1.5,0.9,2.5,0.3c0.8-0.4,1.7-0.6,2.6-0.9
		c1.8-0.6,3.5-1.2,5.2-1.7c1.1-0.3,2.3-0.6,3.4-0.9c0.9-0.2,1.7-0.5,2.6-0.7c1.6-0.4,3.1-0.2,4.2,1.1c1,1,1.9,2.1,2.2,3.6
		C76.6,43.5,76.2,44.7,75.6,45.8z"/>
	<path id="Fill-8" d="M206.9,62.6c-1.4-0.5-2.8-0.6-4.2-0.4c-2.4,0.4-4,2-4,4.2c0,6.2,0,12.4,0,18.6c0,1.5,0.7,2.8,2.1,3.5
		c1.8,0.9,3.7,1,5.7,0.4c2.2-0.7,3-1.8,3-4.1v-9c0-3.2,0-6.4,0-9.6C209.5,64.5,208.5,63.2,206.9,62.6z M205.3,84.9
		c0,1-0.8,1.6-1.7,1.2c-0.2-0.1-0.4-0.3-0.5-0.5c-0.1-0.4-0.2-0.9-0.2-1.3c0-5.7,0-11.4,0-17c0-0.4,0.1-0.8,0.2-1.2
		c0.2-0.6,0.7-0.9,1.3-0.8c0.7,0.1,1,0.5,1,1.2c0,3.1,0,6.2,0,9.4C205.3,78.8,205.3,81.9,205.3,84.9z"/>
	<path id="Fill-10" d="M222.6,85.4c-0.1-2.4-0.2-4.8-0.3-7.2c-0.1-1.6-0.8-2.5-2.4-3c-0.2-0.1-0.4-0.3-0.6-0.4
		c0.2-0.1,0.3-0.3,0.5-0.4c1.9-0.7,2.6-1.7,2.6-3.7c0-1.3,0.1-2.6,0-3.9c-0.1-0.7-0.3-1.4-0.6-2.1c-0.8-1.6-2.4-2-4-2.1
		c-1.9-0.1-3.8,0-5.6,0c-0.5,0-0.6,0.1-0.6,0.6c0,5.7,0,11.5,0,17.2c0,2.5,0,5.1,0,7.6c0,0.6,0.2,0.8,0.8,0.8c0.8,0,1.6-0.1,2.5,0
		c0.7,0,0.9-0.2,0.9-0.9c0-3.5,0-7,0-10.5c0-0.9,0.1-1,1-0.9c0.1,0,0.3,0.1,0.4,0.1c1,0.4,1.5,1.3,1.4,2.7c-0.3,3-0.1,5.9,0.3,8.8
		c0,0.2,0.2,0.5,0.4,0.5c1.2,0,2.4,0,3.7,0C222.9,87.6,222.7,86.5,222.6,85.4z M218.5,71.3c0,0.4-0.1,0.8-0.2,1.2
		c-0.2,0.7-1.4,1.2-2,0.9c-0.2-0.1-0.3-0.5-0.3-0.7c0-1,0-2.1,0-3.1c0-1,0-2,0-3c0-0.6,0.2-0.9,0.9-0.9c1.2,0.1,1.7,0.5,1.7,1.8
		C218.5,68.7,218.5,70,218.5,71.3z"/>
	<path id="Fill-12" d="M173,87.9c-0.1-0.4-0.2-0.8-0.2-1.2c-0.2-1.7-0.4-3.4-0.6-5.1c-0.4-3.4-0.9-6.8-1.3-10.2
		c-0.3-2.7-0.7-5.5-1-8.2c-0.1-0.5-0.3-0.7-0.8-0.7c-0.8,0-1.6,0-2.4,0c-0.8,0-1.7,0-2.5,0c-0.4,0-0.6,0.2-0.7,0.6
		c-0.2,1.5-0.3,3.1-0.5,4.6c-0.3,2.6-0.6,5.2-0.9,7.8c-0.3,2.3-0.6,4.7-0.9,7c-0.2,1.9-0.4,3.8-0.6,5.7c0,0.4,0.1,0.5,0.4,0.5
		c0.9,0,1.8,0,2.7,0c0.1,0,0.3-0.1,0.4-0.3c0.1-0.5,0.2-0.9,0.3-1.4c0.2-1.6,0.4-3.2,0.5-4.8c0.1-0.5,0.3-0.7,0.8-0.7
		c0.6,0,1.2,0,1.8,0c0.5,0,0.7,0.2,0.7,0.6c0.2,2,0.4,4,0.6,6c0,0.4,0.2,0.6,0.6,0.6c0.9,0,1.9,0,2.8,0
		C172.9,88.8,173.1,88.6,173,87.9z M166.5,78.3c-1,0-1,0-0.9-1.1c0.2-1.9,0.4-3.8,0.6-5.7c0.1-0.7,0.1-1.5,0.2-2.2
		c0-0.2,0.2-0.3,0.3-0.4c0.1,0.1,0.2,0.3,0.2,0.4c0.1,0.7,0.1,1.4,0.2,2.1c0.1,2,0.3,3.9,0.5,5.9C167.6,78.3,167.6,78.3,166.5,78.3z
		"/>
	<path id="Fill-14" d="M174.3,75.7c0-3.1,0-6.2,0-9.3c0-1.3,0.5-2.5,1.6-3.2c0.7-0.4,1.5-0.7,2.3-0.9c1.8-0.4,3.5-0.2,5,0.7
		c1,0.5,1.6,1.4,1.7,2.5c0.1,2,0.1,4,0.1,6c0,0.4-0.2,0.6-0.6,0.6c-1,0-1.9,0-2.9,0c-0.5,0-0.6-0.3-0.6-0.7c0-1.7,0-3.3,0-5
		c0-0.6-0.2-1-0.7-1.2c-0.5-0.3-1.1-0.3-1.5,0.2c-0.3,0.4-0.5,1-0.5,1.6c-0.1,1.7,0,3.5,0,5.2c0,4,0,8,0,12.1c0,0.4,0.1,0.7,0.1,1.1
		c0.1,0.7,0.7,1.1,1.5,1c0.7-0.1,1.1-0.6,1.2-1.3c0-1.6,0-3.2,0-4.8c0-1.5-0.1-1.3,1.3-1.3c0.7,0,1.5,0,2.2,0c0.2,0,0.6,0.3,0.6,0.4
		c0,2.1,0,4.2-0.1,6.3c-0.1,1.4-0.9,2.4-2.2,2.9c-2.1,0.9-4.2,0.9-6.2,0c-1.6-0.7-2.3-2-2.3-3.7C174.3,81.9,174.3,78.8,174.3,75.7
		L174.3,75.7z"/>
	<path id="Fill-16" d="M223.2,62.7c1.3,0,2.6,0,3.8,0c0.1,0,0.4,0.3,0.4,0.5c0.6,2.8,1.2,5.6,1.9,8.4c0,0.2,0.2,0.4,0.3,0.6
		c0.1-0.2,0.4-0.4,0.4-0.6c0.6-2.6,1.1-5.2,1.7-7.7c0.1-0.3,0.1-0.6,0.3-0.9c0.1-0.1,0.2-0.3,0.4-0.3c1.1,0,2.2,0,3.4,0
		c-0.2,0.9-0.5,1.7-0.7,2.6c-0.4,1.6-0.8,3.2-1.3,4.9c-0.4,1.5-0.8,2.9-1.2,4.4c-0.6,2.4-1.4,4.7-1.2,7.2c0.1,2.1,0,4.2,0,6.4
		c0,0.6-0.2,0.8-0.8,0.8c-0.8,0-1.6,0-2.4,0c-0.6,0-0.9-0.2-0.9-0.9c0-2.5,0-4.9,0-7.4c0-1.3-0.3-2.6-0.6-3.8
		c-0.6-2.6-1.3-5.2-2-7.7c-0.5-2-1.1-4.1-1.7-6.1C223.2,62.9,223.2,62.8,223.2,62.7L223.2,62.7z"/>
	<path id="Fill-18" d="M151.2,75.7c0-1.5,0-3,0-4.5c0-2.7,0-5.3,0-8c0-0.4,0.1-0.6,0.6-0.6c2.7,0,5.4,0,8.1,0c0.4,0,0.6,0.1,0.5,0.5
		c0,0.7,0,1.4,0,2.1c0,0.6-0.2,0.8-0.8,0.8c-1.2,0-2.4,0-3.6,0c-0.6,0-0.8,0.2-0.8,0.8c0,1.8,0,3.5,0,5.3c0,0.6,0.2,0.9,0.8,0.9
		c1.2,0,2.4,0,3.6,0c0.6,0,0.8,0.2,0.7,0.8c-0.1,0.5,0,1.1,0,1.7c0,0.5-0.2,0.7-0.7,0.7c-1.1,0-2.2,0-3.3,0c-1,0-1.1,0.1-1.1,1.1
		c0,3.6,0,7.2,0,10.8c0,0.6-0.2,0.9-0.8,0.8c-0.8,0-1.7,0-2.5,0c-0.5,0-0.7-0.2-0.7-0.7c0-3.1,0-6.1,0-9.2L151.2,75.7
		C151.2,75.7,151.2,75.7,151.2,75.7L151.2,75.7z"/>
	<path id="Fill-20" d="M189.8,77.4c0-3.5,0-7,0-10.5c0-0.8,0-0.9-0.9-0.9c-0.7,0-1.4,0-2.1,0c-0.5,0-0.7-0.2-0.7-0.7
		c0-0.7,0-1.5,0-2.2c0-0.4,0.1-0.5,0.5-0.5c3.4,0,6.8,0,10.3,0c0.4,0,0.5,0.1,0.5,0.5c0,0.8,0,1.5,0,2.3c0,0.4-0.2,0.6-0.6,0.6
		c-0.7,0-1.4,0-2.1,0c-0.9,0-0.9,0-0.9,0.9c0,6.9,0,13.7,0,20.6c0,0.2,0,0.3,0,0.5c0.1,0.6-0.2,0.9-0.8,0.9c-0.9,0-1.8,0-2.6,0
		c-0.5,0-0.7-0.2-0.7-0.7c0-2.1,0-4.3,0-6.4C189.8,80.3,189.8,78.8,189.8,77.4L189.8,77.4z"/>
</g>
</svg>
