<?xml version="1.0"?>
<svg xmlns="http://www.w3.org/2000/svg" xmlns:xlink="http://www.w3.org/1999/xlink" xmlns:svgjs="http://svgjs.com/svgjs" version="1.1" width="512" height="512" x="0" y="0" viewBox="0 0 512 512" style="enable-background:new 0 0 512 512" xml:space="preserve" class=""><g>
<circle xmlns="http://www.w3.org/2000/svg" style="" cx="256" cy="256" r="256" fill="#f1f1f1" data-original="#ec5353" class=""/>
<path xmlns="http://www.w3.org/2000/svg" style="" d="M511.911,262.753L404.445,155.288l-63.062,57.743L83,221l78.246,78.247L83,350.659l161.054,161.054  c3.96,0.182,7.941,0.287,11.946,0.287C395.127,512,508.33,401.017,511.911,262.753z" fill="#f1f1f1" data-original="#d13135" class=""/>
<circle xmlns="http://www.w3.org/2000/svg" style="" cx="127.88" cy="311" r="61" fill="#595959" data-original="#595959"/>
<circle xmlns="http://www.w3.org/2000/svg" style="" cx="127.88" cy="311" r="31" fill="#969696" data-original="#969696"/>
<circle xmlns="http://www.w3.org/2000/svg" style="" cx="386.88" cy="311" r="61" fill="#303030" data-original="#303030"/>
<path xmlns="http://www.w3.org/2000/svg" style="" d="M364,171c0,0-105-39.46-108,36.77S364,171,364,171z" fill="#e0e0e0" data-original="#e0e0e0"/>
<circle xmlns="http://www.w3.org/2000/svg" style="" cx="386.88" cy="311" r="31" fill="#848484" data-original="#848484"/>
<path xmlns="http://www.w3.org/2000/svg" style="" d="M256,207.77L256,207.77c0.288-9.158-6.099-17.177-15.09-18.943l-78.948-15.512  c-12.71-2.497-25.383,4.471-30.083,16.541l-4.003,10.281L256,207.77z" fill="#595959" data-original="#595959"/>
<rect xmlns="http://www.w3.org/2000/svg" x="320.722" y="258.583" transform="matrix(-0.496 -0.8683 0.8683 -0.496 309.2825 724.6779)" style="" width="88.458" height="27.998" fill="#e2e2e0" data-original="#e2e2e0" class=""/>
<path xmlns="http://www.w3.org/2000/svg" style="" d="M386.876,239.676c10.933,0,21.287,2.468,30.547,6.864L430,220c0-82-79-89-79-89l13,40  c-22,30-108,36.77-108,36.77L92,198l-9,23l67,18.645L127.876,311l52.542-31L205,311h110.552  C315.552,271.609,347.485,239.676,386.876,239.676z" fill="#fcd748" data-original="#fcd748" class=""/>
<path xmlns="http://www.w3.org/2000/svg" style="" d="M351,131l13,40c-22,30-108,36.77-108,36.77l-0.5-0.03V311h60.052  c0-39.391,31.933-71.324,71.324-71.324c10.933,0,21.287,2.468,30.547,6.864L430,220C430,138,351,131,351,131z" fill="#fabf40" data-original="#fabf40"/>
<path xmlns="http://www.w3.org/2000/svg" style="" d="M332.133,191.728C299.145,204.37,256,207.77,256,207.77l-73.159-4.358l28.122,99.542  c1.141,4.037-1.893,8.047-6.088,8.047l0,0v31h110.677v-31c0-25.384,13.272-47.655,33.243-60.295L332.133,191.728z" fill="#feec65" data-original="#feec65"/>
<path xmlns="http://www.w3.org/2000/svg" style="" d="M332.133,191.728C299.145,204.37,256,207.77,256,207.77l-0.429-0.025V342h59.981v-31  c0-25.384,13.272-47.655,33.243-60.295L332.133,191.728z" fill="#fcd748" data-original="#fcd748" class=""/>
<g xmlns="http://www.w3.org/2000/svg">
</g>
<g xmlns="http://www.w3.org/2000/svg">
</g>
<g xmlns="http://www.w3.org/2000/svg">
</g>
<g xmlns="http://www.w3.org/2000/svg">
</g>
<g xmlns="http://www.w3.org/2000/svg">
</g>
<g xmlns="http://www.w3.org/2000/svg">
</g>
<g xmlns="http://www.w3.org/2000/svg">
</g>
<g xmlns="http://www.w3.org/2000/svg">
</g>
<g xmlns="http://www.w3.org/2000/svg">
</g>
<g xmlns="http://www.w3.org/2000/svg">
</g>
<g xmlns="http://www.w3.org/2000/svg">
</g>
<g xmlns="http://www.w3.org/2000/svg">
</g>
<g xmlns="http://www.w3.org/2000/svg">
</g>
<g xmlns="http://www.w3.org/2000/svg">
</g>
<g xmlns="http://www.w3.org/2000/svg">
</g>
</g></svg>
