<?xml version="1.0" encoding="utf-8"?>
<svg version="1.1" id="Layer_1" xmlns="http://www.w3.org/2000/svg" xmlns:xlink="http://www.w3.org/1999/xlink" x="0px" y="0px"
	 viewBox="0 0 1916.1 325.9" style="enable-background:new 0 0 1916.1 325.9;" xml:space="preserve">
<g>
	<path style="fill:#012B7F;" d="M577.4,156.2L515.7,49.8h-44l84.4,153.9v72.4h43.3v-74l82.4-152.3h-43.6L577.4,156.2z M835,49.8
		L735.8,276h44.9l20-47.8h110.5l20,47.8h46.5L879.8,49.8H835z M816.2,191.1l40.1-95l39.4,95H816.2z M1230.7,70.2
		c-15.6-13.6-37.7-20.4-66.1-20.4h-92.7V276h43.3v-66.6h49.4c28.5,0,50.5-7.1,66.1-21.5c15.6-14.3,23.4-34.4,23.4-60.3
		C1254.1,103,1246.3,83.8,1230.7,70.2 M1200,160.7c-8.7,7.1-21.3,10.7-37.7,10.7h-47.2V87.7h47.2c16.4,0,28.9,3.4,37.7,10.3
		c8.7,6.9,13.1,17.2,13.1,31C1213.1,143,1208.7,153.6,1200,160.7 M1349.2,49.8h43.3V276h-43.3V49.8z M1557.3,49.8H1514v226.3h140.9
		V237h-97.6V49.8z M1872.5,49.8l-60.8,106.4L1750,49.8h-43.9l84.3,153.9v72.4h43.3v-74l82.4-152.3L1872.5,49.8z M275.5,0
		c-29.7,0.4-53.4,24.8-53,54.5l0.5,35.9c0.1,6.4-2.4,12.5-6.8,17l-1.8,1.8c-4.4,4.6-10.5,7.2-16.9,7.3l-5.1,0.1
		c-8.4-5.4-18.4-8.5-29.2-8.4c-8.9,0.1-17.6,2.5-25.3,6.9c-1.7-0.1-3.3-0.2-5-0.2h-0.6c-6.3,0.1-12.5-2.3-17-6.8
		c-4.6-4.4-7.2-10.5-7.3-16.9L107.5,53C107.1,23.3,82.7-0.4,53,0S-0.4,24.8,0,54.5s24.8,53.4,54.5,53l35.9-0.5
		c6.4-0.1,12.5,2.4,17,6.8l1.8,1.8c4.6,4.5,7.2,10.6,7.3,16.9l0.1,5.1h0.1c-3.6,7.3-5.7,15.5-5.5,24.2c0.1,10.4,3.3,20.1,8.6,28.2
		c0,1-0.1,2-0.1,3v0.6c0.1,6.4-2.4,12.5-6.8,17c-4.4,4.6-10.5,7.2-16.9,7.3l-38.2,0.5c-29.7,0.4-53.4,24.8-53,54.5
		s24.8,53.4,54.5,53s53.4-24.8,53-54.5l-0.5-35.9c-0.1-6.3,2.4-12.5,6.8-17l1.8-1.8c4.5-4.6,10.5-7.2,16.9-7.3l5-0.1
		c0,0,0-0.1-0.1-0.1c6.8,3.1,14.4,4.8,22.3,4.7c29.2-0.4,52.5-24.3,52.1-53.5c-0.1-5.3-0.9-10.4-2.4-15.1c0.5-4,0.8-8.1,0.8-12.3
		v-0.6c-0.1-6.3,2.4-12.5,6.8-17c4.4-4.6,10.5-7.2,16.9-7.3l38.2-0.5c29.7-0.4,53.4-24.8,53-54.5C329.6,23.4,305.2-0.4,275.5,0"/>
</g>
</svg>
