<?xml version="1.0" encoding="utf-8"?>
<svg version="1.1" id="Layer_1" xmlns="http://www.w3.org/2000/svg" xmlns:xlink="http://www.w3.org/1999/xlink" x="0px" y="0px"
	width="100px" height="100px" viewBox="0 0 100 100" style="enable-background:new 0 0 100 100;" xml:space="preserve">
<g>
	<path style="fill:#E8E8E8;" d="M50,0c27.61,0,50,22.39,50,50s-22.39,50-50,50S0,77.61,0,50S22.39,0,50,0"/>
	<path style="fill:#FFFFFF;" d="M50,1c27.06,0,49,21.94,49,49S77.06,99,50,99S1,77.06,1,50S22.94,1,50,1"/>
	<g>
		<path id="XMLID_9_" style="fill:#ED1C24;" d="M75.96,35.08c-3.38,0-6.44,1.52-8.55,3.9c-0.62-0.7-1.31-1.31-2.09-1.85
			c-0.9-0.62-1.93-1.09-2.99-1.44c-1.09-0.35-2.24-0.49-3.4-0.49l0,0c-1.58,0-3.1,0.29-4.47,0.88c-1.78,0.76-3.3,1.95-4.49,3.44
			c-0.72-0.92-1.58-1.74-2.54-2.4c-0.9-0.62-1.93-1.09-2.99-1.44c-1.09-0.35-2.24-0.49-3.4-0.49l0,0c-1.58,0-3.1,0.29-4.47,0.88
			c-2.05,0.88-3.79,2.34-5.02,4.18c-0.62,0.92-1.11,1.93-1.44,3.01c-0.31,1-0.47,2.05-0.51,3.14l0,0c0,0.04-0.04,0.08-0.02,0.14
			c0,0.04-0.04,0.08-0.04,0.14l0,0l0,0l0,0l0,0h0.04c0,0.06,0.02,0.1,0.02,0.16c-0.08,3.06-2.48,5.43-5.52,5.43
			c-3.1,0-5.54-2.48-5.54-5.62c0-3.14,2.44-5.6,5.54-5.6c2.44,0,4.47,1.56,5.21,3.75l-0.49-8.73c-1.44-0.68-3.03-1.05-4.72-1.05
			c-6.29,0-11.48,5.23-11.48,11.63s5.17,11.65,11.48,11.65c3.36,0,6.4-1.5,8.49-3.85c0.62,0.68,1.29,1.27,2.05,1.78
			c0.9,0.62,1.93,1.13,2.99,1.46c1.09,0.35,2.24,0.47,3.4,0.47v-0.04l0,0l0,0c1.58,0,3.1-0.27,4.47-0.86
			c1.78-0.76,3.3-1.93,4.49-3.42c0.72,0.92,1.58,1.74,2.54,2.4c0.9,0.62,1.93,1.13,2.99,1.48c1.09,0.35,2.24,0.47,3.4,0.47v-0.04
			l0,0l0,0c1.58,0,3.1-0.27,4.47-0.86c0.45-0.21,0.9-0.37,1.33-0.62l-0.04,8.24h6.05V45.87c0.41-2.73,2.48-4.76,5.27-4.76
			c3.1,0,5.52,2.48,5.52,5.6c0,3.14-2.44,5.62-5.54,5.62c-2.32,0-4.29-1.39-5.11-3.42c0.35,2.87,0.68,5.78,1,8.65
			c1.27,0.49,2.67,0.78,4.1,0.78c6.29,0,11.46-5.25,11.46-11.65C87.42,40.31,82.25,35.08,75.96,35.08z M46.51,46.71
			c0,0.8-0.12,1.54-0.41,2.24c-0.43,1.03-1.13,1.91-2.01,2.5c-0.45,0.31-0.92,0.55-1.44,0.72c-0.51,0.16-1.07,0.27-1.64,0.27l0,0
			c-0.78,0-1.5-0.16-2.15-0.45c-0.98-0.43-1.85-1.15-2.46-2.05c-0.31-0.45-0.53-0.96-0.7-1.5c-0.16-0.53-0.25-1.11-0.25-1.7l0,0l0,0
			l0,0l0,0c0-0.8,0.14-1.54,0.43-2.24c0.43-1.03,1.15-1.91,2.03-2.5c0.45-0.31,0.92-0.57,1.46-0.74c0.51-0.16,1.07-0.29,1.64-0.29
			l0,0l0,0c0.78,0,1.5,0.18,2.15,0.47c0.98,0.43,1.85,1.17,2.46,2.07c0.31,0.45,0.51,0.96,0.68,1.5
			C46.45,45.52,46.51,46.09,46.51,46.71L46.51,46.71L46.51,46.71z M64.09,48.94c-0.43,1.03-1.17,1.91-2.05,2.5
			c-0.45,0.31-0.94,0.55-1.46,0.72c-0.51,0.16-1.07,0.27-1.66,0.27l0,0c-0.78,0-1.5-0.16-2.15-0.45c-0.98-0.43-1.85-1.15-2.46-2.05
			c-0.31-0.45-0.57-0.96-0.74-1.5c-0.16-0.53-0.29-1.11-0.29-1.7l0,0l0,0l0,0c0-0.8,0.18-1.54,0.47-2.24
			c0.43-1.03,1.15-1.91,2.05-2.5c0.45-0.31,0.94-0.57,1.46-0.74c0.51-0.16,1.07-0.29,1.66-0.29l0,0l0,0c0.78,0,1.5,0.18,2.15,0.47
			c0.98,0.43,1.85,1.17,2.46,2.07c0.31,0.45,0.57,0.96,0.74,1.5c0.16,0.53,0.29,1.11,0.29,1.72l0,0l0,0
			C64.56,47.51,64.37,48.27,64.09,48.94z"/>
	</g>
</g>
</svg>
