<?xml version="1.0" encoding="utf-8"?>
<svg version="1.1" id="Layer_1" xmlns="http://www.w3.org/2000/svg" xmlns:xlink="http://www.w3.org/1999/xlink" x="0px" y="0px"
	width="100px" height="100px" viewBox="0 0 72.2 72.2" style="enable-background:new 0 0 72.2 72.2;" xml:space="preserve">
<g>
	<circle style="fill:#E8E8E8;" cx="36.1" cy="36.1" r="36.1"/>
	<circle style="fill:#FFFFFF;" cx="36.1" cy="36.1" r="35.4"/>
	<defs>
		<filter id="Adobe_OpacityMaskFilter" filterUnits="userSpaceOnUse" x="52" y="27.1" width="5.1" height="7.4">
			<feColorMatrix  type="matrix" values="1 0 0 0 0  0 1 0 0 0  0 0 1 0 0  0 0 0 1 0"/>
		</filter>
	</defs>
	<mask maskUnits="userSpaceOnUse" x="52" y="27.1" width="5.1" height="7.4" id="B_1_">
		<g style="filter:url(#Adobe_OpacityMaskFilter);">
			<path style="fill:#FFFFFF;" d="M51.9,27.1h5.2v7.4h-5.2V27.1z"/>
		</g>
	</mask>
	<g style="mask:url(#B_1_);">
		<path style="fill:#25A64A;" d="M56.7,27.3v1.5c-0.5-0.2-1.2-0.3-1.7-0.3s-1.2,0.1-1.2,0.6c0,1.2,3.3,0.4,3.3,2.9
			c0,1.8-1.5,2.3-3,2.3c-0.7,0-1.4-0.1-2.1-0.4v-1.5c0.5,0.2,1.2,0.4,2,0.4c0.6,0,1.2-0.1,1.2-0.6c0-1.3-3.2-0.5-3.2-3
			c0-1.6,1.4-2.2,3-2.2C55.6,27.1,56.3,27.2,56.7,27.3"/>
	</g>
	<path style="fill:#25A64A;" d="M49,27.2l2.7,7.1h-2l-0.5-1.5h-2.7L46,34.3h-1.9l2.3-6.3c0.2-0.6,0.6-0.7,0.9-0.7
		C47.4,27.2,49,27.2,49,27.2z M48.8,31.5l-0.9-2.8l0,0L47,31.5H48.8z M37.7,27.3v1.3h-3.3v1.5h3v1.3h-3V33h3.3v1.3h-5.2v-6.2
		c0-0.1,0-0.1,0.1-0.2c0.1-0.3,0.3-0.5,0.6-0.6h0.3L37.7,27.3L37.7,27.3z M63,27.3v1.3h-3.3v1.5h3v1.3h-3V33H63v1.3h-5.2v-6.2v-0.2
		c0.1-0.3,0.3-0.5,0.6-0.6h0.2L63,27.3L63,27.3z M42.8,30.6c0.6-0.1,1.3-0.6,1.3-1.6c0-1.2-1.1-1.8-2.5-1.8h-2.2h-0.2
		c-0.3,0.1-0.6,0.3-0.6,0.6c0,0.1-0.1,0.1-0.1,0.2v6.3h3.2c1.4,0,2.6-0.7,2.6-1.9C44.2,31.2,43.4,30.7,42.8,30.6z M40.3,28.5h0.9
		c0.6,0,0.9,0.3,0.9,0.8s-0.4,0.8-0.9,0.8h-0.9C40.3,30.1,40.3,28.5,40.3,28.5z M41.3,33h-1v-1.7h0.9c0.6,0,1,0.4,1,0.8
		C42.4,32.7,42,33,41.3,33z M28.7,28c0.1-0.5,0.4-0.8,0.9-0.8h1.8v7.1h-1.7v-4.8l-1.4,4.8h-1.7l-1.4-4.8v4.8h-1.5v-6.2v-0.2
		c0.1-0.3,0.3-0.5,0.6-0.6h0.2h1.7l1.4,4.5C27.6,31.7,28.7,28,28.7,28z M9.2,34.3v-6.2c0-0.1,0-0.1,0.1-0.2c0.1-0.3,0.3-0.5,0.6-0.6
		h0.3H11v2.8h2.2v-2c0-0.1,0-0.1,0.1-0.2c0.1-0.3,0.3-0.5,0.6-0.6h0.3h1.1v7.1h-2v-3H11v3L9.2,34.3L9.2,34.3z"/>
	<path style="fill:#ED702B;" d="M23.1,30.7c0,1.9-1.6,3.5-3.6,3.5s-3.5-1.6-3.5-3.5c0-2,1.6-3.5,3.5-3.5
		C21.5,27.2,23.1,28.8,23.1,30.7L23.1,30.7"/>
	<path style="fill:#4A4A49;" d="M9.2,37.7v4.5h0.6v-1.9H11v-0.5H9.9v-1.5H11v-0.6H9.2z M11.6,37.7h1.9v0.6h-1.3v1.3h1.2v0.6h-1.2
		v1.4h1.3v0.6h-2L11.6,37.7L11.6,37.7L11.6,37.7z M14.1,37.7h1.9v0.6h-1.3v1.3h1.2v0.6h-1.2v1.4h1.3v0.6h-1.9L14.1,37.7L14.1,37.7z
		 M16.7,37.7h0.6v3.9h1.2v0.6h-1.9L16.7,37.7C16.7,37.7,16.7,37.7,16.7,37.7z M19,42c-0.2-0.3-0.3-0.6-0.3-1.1h0.6
		c0,0.4,0,0.5,0.1,0.6c0.1,0.1,0.2,0.1,0.4,0.1c0.3,0,0.5-0.1,0.5-0.6v-0.1c0-0.4-0.1-0.5-0.6-0.8l-0.3-0.1
		c-0.5-0.3-0.8-0.6-0.8-1.2v-0.1c0-0.6,0.4-1.2,1.2-1.2c0.4,0,0.6,0.1,0.9,0.4c0.2,0.2,0.2,0.6,0.2,1h-0.6c0-0.4,0-0.5-0.1-0.6
		c-0.1-0.1-0.2-0.1-0.4-0.1c-0.3,0-0.4,0.2-0.4,0.6v0.1c0,0.4,0.1,0.5,0.5,0.7l0.3,0.1c0.6,0.4,0.8,0.6,0.8,1.2v0.1
		c0,0.7-0.4,1.2-1.1,1.2C19.4,42.3,19.1,42.2,19,42 M38.3,38.3h-0.8v-0.6h2.2v0.6H39v3.9h-0.7L38.3,38.3
		C38.3,38.3,38.3,38.3,38.3,38.3z M40.3,41.9C40,41.7,40,41.3,40,40.8v-1.5c0-0.6,0.1-0.9,0.3-1.2c0.2-0.2,0.5-0.4,0.9-0.4
		c0.4,0,0.7,0.1,0.9,0.4c0.2,0.2,0.3,0.6,0.3,1.2v1.5c0,0.6-0.1,0.9-0.3,1.2c-0.2,0.2-0.5,0.4-0.9,0.4
		C40.8,42.3,40.5,42.1,40.3,41.9 M41.6,41.5c0.1-0.1,0.1-0.3,0.1-0.7v-1.7c0-0.4,0-0.6-0.1-0.7c-0.2-0.2-0.6-0.2-0.7,0l0,0
		c-0.1,0.1-0.1,0.3-0.1,0.7v1.7c0,0.4,0,0.6,0.1,0.7C41.1,41.7,41.3,41.8,41.6,41.5C41.6,41.6,41.6,41.5,41.6,41.5 M46.5,40.8V41
		c0,0.9-0.5,1.2-1.2,1.2h-1.2v-4.5h1c0.9,0,1.2,0.4,1.2,1.1v0.1c0,0.4-0.1,0.7-0.4,0.9C46.3,40.1,46.5,40.4,46.5,40.8L46.5,40.8z
		 M44.8,39.6h0.4c0.4,0,0.5-0.2,0.5-0.6v-0.1c0-0.4-0.1-0.6-0.5-0.6h-0.4V39.6z M45.7,40.9c0-0.5-0.1-0.6-0.6-0.6h-0.4v1.4h0.4
		c0.4,0,0.6-0.1,0.6-0.6V40.9z M47,37.7h2v0.6h-1.3v1.3h1.2v0.6h-1.2v1.4h1.3v0.6h-2L47,37.7L47,37.7L47,37.7z M53,37.7v4.5h-0.7v-2
		h-0.9v2h-0.6v-4.5h0.6v1.9h0.9v-1.9H53L53,37.7z M54,41.9c-0.2-0.2-0.3-0.6-0.3-1.2v-1.5c0-0.6,0.1-0.9,0.3-1.2
		c0.2-0.3,0.5-0.4,0.9-0.4c0.4,0,0.7,0.1,0.9,0.4c0.2,0.2,0.3,0.6,0.3,1.2v1.5c0,0.6-0.1,0.9-0.3,1.2c-0.2,0.2-0.5,0.4-0.9,0.4
		C54.5,42.3,54.2,42.1,54,41.9 M55.3,41.5c0.1-0.1,0.1-0.3,0.1-0.7v-1.7c0-0.4,0-0.6-0.1-0.7c-0.1-0.1-0.2-0.2-0.4-0.1
		c-0.1,0-0.3,0.1-0.4,0.1c-0.1,0.1-0.1,0.3-0.1,0.7v1.7c0,0.4,0,0.6,0.1,0.7c0.1,0.1,0.2,0.2,0.4,0.1C55.1,41.7,55.2,41.6,55.3,41.5
		 M56.9,37.7h0.8l0.5,1.9c0.1,0.5,0.3,1.1,0.4,1.6l0,0c0.1-0.5,0.2-1,0.4-1.6l0.5-1.9h0.8v4.5h-0.6v-1.5v-1.8l0,0l-0.3,1.2l-0.5,2
		h-0.6l-0.5-2l-0.3-1.2l0,0v1.8v1.5h-0.6L56.9,37.7L56.9,37.7z M61,37.7v4.5h2v-0.6h-1.3v-1.4h1.2v-0.6h-1.2v-1.3H63v-0.6L61,37.7
		L61,37.7L61,37.7z"/>
	<path style="fill:#25A64A;" d="M26.5,38.2c0.1-0.1,0-0.3,0-0.3c-0.1-0.1-0.1-0.1-0.2-0.1c-0.2,0-0.3,0.1-0.4,0.2
		c-0.1-0.2-0.5-0.4-0.7-0.4c-0.8,0-1.3,0.8-1.5,1.3l-0.9,1.8c-0.1,0.2-0.1,0.4-0.1,0.6c0,0.6,0.4,0.9,1,0.9c0.1,0,0.2-0.1,0.4-0.1
		L24,42.2c-0.5,1.2-1.4,2.2-2.2,2.2s-0.9-0.4-0.9-0.6c0-0.4,0.3-0.6,0.6-0.6l0,0c0.1,0,0.3-0.1,0.4-0.3l0,0c0-0.1,0-0.1-0.1-0.2
		c-0.1-0.1-0.1-0.1-0.2-0.1c-0.4,0-0.7,0.1-0.9,0.4c-0.2,0.2-0.3,0.5-0.4,0.9c0,0.6,0.4,1.3,1.5,1.3c1.1,0,2-0.8,2.8-2.5l1.5-3.3
		C26,39.2,26.5,38.2,26.5,38.2z M25.5,38.6c0,0.1,0,0.1-0.1,0.3l-0.9,1.8c-0.1,0.4-0.5,0.9-0.9,0.9c-0.2,0-0.4-0.1-0.4-0.3
		c0-0.1,0.1-0.3,0.1-0.4l0.9-1.8c0.1-0.2,0.4-0.9,0.9-0.9C25.4,38.3,25.5,38.4,25.5,38.6z M29.4,38.5c0-0.6-0.4-0.9-1-0.9
		c-0.9,0-1.4,0.9-1.5,1.3L26,40.8c-0.1,0.2-0.1,0.4-0.1,0.6c0,0.6,0.4,0.9,1,0.9c0.9,0,1.4-0.9,1.5-1.3l0.9-1.8
		C29.3,39,29.4,38.7,29.4,38.5 M28.6,38.9l-0.9,1.8l0,0c-0.1,0.3-0.4,0.9-0.9,0.9c-0.2,0-0.4-0.1-0.4-0.3c0-0.1,0.1-0.3,0.1-0.4
		l0.9-1.8v-0.1c0.1-0.3,0.4-0.9,0.9-0.9c0.1,0,0.3,0.1,0.3,0.1C28.7,38.5,28.6,38.8,28.6,38.9 M32.5,38.5c0-0.6-0.4-0.9-1-0.9
		c-0.9,0-1.4,0.9-1.5,1.3l-0.9,1.8c-0.1,0.2-0.1,0.4-0.1,0.6c0,0.6,0.4,0.9,1,0.9c0.9,0,1.4-0.9,1.5-1.3l0.9-1.8
		C32.4,39,32.5,38.7,32.5,38.5 M29.9,41.7c-0.2,0-0.4-0.1-0.4-0.3c0-0.1,0.1-0.3,0.1-0.4l0.9-1.8v-0.1c0.1-0.3,0.4-0.9,0.9-0.9
		c0.1,0,0.3,0.1,0.3,0.1c0.1,0.1,0,0.4-0.1,0.5l-0.9,1.8l0,0C30.7,41.1,30.4,41.7,29.9,41.7 M36.9,35.8c0.1-0.1,0.1-0.3,0-0.4
		c-0.1-0.1-0.1-0.1-0.3-0.1c-0.2,0-0.3,0.1-0.4,0.2l-1.1,2.4c-0.1-0.2-0.5-0.3-0.7-0.3c-0.9,0-1.4,0.9-1.5,1.3l-0.9,1.8
		C32,40.9,32,41.1,32,41.3c0,0.6,0.4,0.9,1,0.9c0.4,0,0.6-0.1,0.9-0.4c0,0.1,0.1,0.1,0.1,0.1c0.1,0.1,0.1,0.1,0.2,0.1h0.1l0,0
		c0.1,0.1,0.3,0.1,0.5,0.1c0.4,0,0.6-0.1,0.9-0.5c0.2-0.2,0.4-0.5,0.6-0.8c0.1-0.1,0-0.2,0-0.3c-0.1-0.1-0.1-0.1-0.3-0.1
		s-0.2,0.1-0.3,0.2l0,0c-0.1,0.3-0.4,0.9-0.9,0.9c-0.1,0-0.2,0-0.3-0.1c-0.1-0.1,0-0.4,0.1-0.6C34.6,41,36.9,35.8,36.9,35.8z
		 M34.6,38.2c0.1,0,0.2,0,0.3,0.1c0.1,0.1,0.1,0.2,0,0.4l-0.1,0.3l-0.8,1.7c-0.1,0.2-0.4,0.9-0.9,0.9c-0.1,0-0.2,0-0.3-0.1
		s-0.1-0.3,0-0.5l0.9-1.8v-0.1C33.8,38.9,34.1,38.3,34.6,38.2z"/>
</g>
</svg>
