<?xml version="1.0"?>
<svg xmlns="http://www.w3.org/2000/svg" xmlns:xlink="http://www.w3.org/1999/xlink" xmlns:svgjs="http://svgjs.com/svgjs" version="1.1" width="512" height="512" x="0" y="0" viewBox="0 0 512 512" style="enable-background:new 0 0 512 512" xml:space="preserve" class=""><g><path xmlns="http://www.w3.org/2000/svg" d="m512 256c0 141.386719-114.613281 256-256 256s-256-114.613281-256-256 114.613281-256 256-256 256 114.613281 256 256zm0 0" fill="#f1f1f1" data-original="#76e2f8" style="" class=""/><path xmlns="http://www.w3.org/2000/svg" d="m505.800781 199.8125-97.8125-97.808594-148.75 4.734375-13.1875 13.1875 45.332031 45.332031-25.828124 25.832032-45.535157-45.535156-38.003906 38.007812 81.183594 81.179688-67.015625 67.015624-80.980469-80.976562-13.1875 13.1875 80.976563 80.976562-63.050782 63.054688 101.699219 101.699219c11.242187 1.507812 22.707031 2.300781 34.359375 2.300781 141.386719 0 256-114.613281 256-256 0-19.304688-2.152344-38.105469-6.199219-56.1875zm0 0" fill="#f1f1f1" data-original="#2ac4f4" style="" class=""/><path xmlns="http://www.w3.org/2000/svg" d="m389.472656 255v153h-71.71875l-8.964844-8.964844-8.964843 8.964844h-89.648438l-8.964843-8.964844-8.964844 8.964844h-72.316406v-153zm0 0" fill="#8c4a37" data-original="#8c4a37" style="" class=""/><path xmlns="http://www.w3.org/2000/svg" d="m389.472656 255v153h-71.71875l-8.964844-8.964844-8.964843 8.964844h-44.824219v-153zm0 0" fill="#663325" data-original="#663325" style="" class=""/><path xmlns="http://www.w3.org/2000/svg" d="m219.140625 191.648438h-35.859375c-14.832031 0-26.894531 12.0625-26.894531 26.894531v36.457031h89.648437v-36.457031c0-14.832031-12.0625-26.894531-26.894531-26.894531zm0 0" fill="#663325" data-original="#663325" style="" class=""/><path xmlns="http://www.w3.org/2000/svg" d="m201.210938 191.648438c-14.832032 0-26.894532-12.0625-26.894532-26.894532 0-14.832031 12.0625-26.894531 26.894532-26.894531 14.832031 0 26.894531 12.0625 26.894531 26.894531 0 14.832032-12.066407 26.894532-26.894531 26.894532zm0 0" fill="#ffbd86" data-original="#ffbd86" style=""/><path xmlns="http://www.w3.org/2000/svg" d="m281.894531 110.964844h17.929688v35.859375h-17.929688zm0 0" fill="#b3a2db" data-original="#b3a2db" style=""/><path xmlns="http://www.w3.org/2000/svg" d="m353.613281 110.964844h17.929688v35.859375h-17.929688zm0 0" fill="#b3a2db" data-original="#b3a2db" style=""/><g xmlns="http://www.w3.org/2000/svg" fill="#e2d8fc"><path d="m201.210938 353.613281h26.894531v17.929688h-26.894531zm0 0" fill="#e2d8fc" data-original="#e2d8fc" style=""/><path d="m317.753906 191.648438h-53.789062v-26.894532c0-14.832031 12.0625-26.894531 26.894531-26.894531s26.894531 12.0625 26.894531 26.894531zm0 0" fill="#e2d8fc" data-original="#e2d8fc" style=""/><path d="m389.472656 191.648438h-53.789062v-26.894532c0-14.832031 12.0625-26.894531 26.894531-26.894531s26.894531 12.0625 26.894531 26.894531zm0 0" fill="#e2d8fc" data-original="#e2d8fc" style=""/><path d="m192.246094 299.824219h17.929687v108.175781h-17.929687zm0 0" fill="#e2d8fc" data-original="#e2d8fc" style=""/><path d="m308.789062 353.613281h26.894532v17.929688h-26.894532zm0 0" fill="#e2d8fc" data-original="#e2d8fc" style=""/><path d="m299.824219 299.824219h17.929687v108.175781h-17.929687zm0 0" fill="#e2d8fc" data-original="#e2d8fc" style=""/></g><path xmlns="http://www.w3.org/2000/svg" d="m246.035156 102h161.964844v17.929688h-161.964844zm0 0" fill="#663325" data-original="#663325" style="" class=""/><path xmlns="http://www.w3.org/2000/svg" d="m102 246.035156h306v17.929688h-306zm0 0" fill="#c6715a" data-original="#c6715a" style="" class=""/><path xmlns="http://www.w3.org/2000/svg" d="m255 246.035156h153v17.929688h-153zm0 0" fill="#b35f49" data-original="#b35f49" style="" class=""/><path xmlns="http://www.w3.org/2000/svg" d="m246.035156 317.753906h-89.648437v-5.859375c0-16.570312 13.429687-30 30-30h29.648437c16.570313 0 30 13.429688 30 30zm0 0" fill="#ff5a99" data-original="#ff5a99" style="" class=""/><path xmlns="http://www.w3.org/2000/svg" d="m353.613281 317.753906h-89.648437v-5.859375c0-16.570312 13.429687-30 30-30h29.648437c16.570313 0 30 13.429688 30 30zm0 0" fill="#e53c79" data-original="#e53c79" style=""/></g></svg>
