<?xml version="1.0"?>
<svg xmlns="http://www.w3.org/2000/svg" xmlns:xlink="http://www.w3.org/1999/xlink" xmlns:svgjs="http://svgjs.com/svgjs" version="1.1" width="512" height="512" x="0" y="0" viewBox="0 0 512 512" style="enable-background:new 0 0 512 512" xml:space="preserve" class=""><g>
<g xmlns="http://www.w3.org/2000/svg">
	<g>
		<g>
			<g>
				<g>
					<g>
						<g>
							<g>
								<g>
									<g>
										<circle style="" cx="256" cy="256" r="256" fill="#f1f1f1" data-original="#ff583e" class=""/>
									</g>
								</g>
							</g>
						</g>
					</g>
				</g>
			</g>
		</g>
	</g>
	<path style="" d="M512,256c0-15.72-1.425-31.107-4.138-46.044l-75.674-75.673l-73.588,37.64l-70.842-70.842   L92.81,162.896L79.812,377.718l130.144,130.145C224.893,510.575,240.28,512,256,512C397.385,512,512,397.385,512,256z" fill="#f1f1f1" data-original="#e82e21" class=""/>
	<g>
		<path style="" d="M79.812,134.282v243.436h352.377V134.282H79.812z M129.333,347.333H99.65V317.65h29.684V347.333z     M129.333,295.749H99.65v-29.684h29.684V295.749z M129.333,244.164H99.65v-29.684h29.684V244.164z M129.333,192.58H99.65v-29.684    h29.684V192.58z M412.35,347.333h-29.684V317.65h29.684V347.333z M412.35,295.749h-29.684v-29.684h29.684V295.749z     M412.35,244.164h-29.684v-29.684h29.684V244.164z M412.35,192.58h-29.684v-29.684h29.684V192.58z" fill="#2b4160" data-original="#2b4160" class=""/>
	</g>
	<g>
		<path style="" d="M432.188,134.282H255.905v243.436h176.284V134.282z M412.35,347.333h-29.684v-29.684h29.684    V347.333z M412.35,295.749h-29.684v-29.684h29.684V295.749z M412.35,244.165h-29.684v-29.684h29.684V244.165z M412.35,192.58    h-29.684v-29.684h29.684V192.58z" fill="#1e3249" data-original="#1e3249" class=""/>
	</g>
	<g>
		<rect x="148.823" y="163.782" style="" width="214.354" height="184.437" fill="#3f6199" data-original="#3f6199" class=""/>
	</g>
	<g>
		<rect x="255.905" y="163.782" style="" width="107.272" height="184.437" fill="#2b4160" data-original="#2b4160" class=""/>
	</g>
	<g>
		<circle style="" cx="228.243" cy="143.557" r="73.115" fill="#ffc200" data-original="#ffc200" class=""/>
	</g>
	<g>
		<path style="" d="M228.243,70.441c-0.105,0-0.209,0.008-0.314,0.008v146.215c0.105,0,0.209,0.008,0.314,0.008    c40.38,0,73.115-32.735,73.115-73.115C301.358,103.176,268.623,70.441,228.243,70.441z" fill="#ff8b00" data-original="#ff8b00"/>
	</g>
	<g>
		<circle style="" cx="282" cy="366" r="53.003" fill="#ffc200" data-original="#ffc200" class=""/>
	</g>
	<g>
		<path style="" d="M335.003,366c0-29.241-23.679-52.949-52.908-53V419C311.324,418.949,335.003,395.241,335.003,366z" fill="#ff8b00" data-original="#ff8b00"/>
	</g>
	<g>
		<circle style="" cx="330.626" cy="232.874" r="35.876" fill="#ffb13b" data-original="#ffb13b" class=""/>
	</g>
	<g>
		<circle style="" cx="165.624" cy="319" r="35.876" fill="#ffc200" data-original="#ffc200" class=""/>
	</g>
	<g>
		<path style="" d="M260.431,147.055c-2.07-3.431-5.378-6.306-9.924-8.624c-4.547-2.318-12.074-4.608-22.583-6.873    c-4.246-0.884-6.935-1.839-8.067-2.866c-1.168-0.991-1.751-2.105-1.751-3.343c0-1.698,0.707-3.139,2.123-4.325    c1.415-1.185,3.52-1.778,6.315-1.778c3.397,0,6.059,0.797,7.987,2.389c1.928,1.592,3.193,4.14,3.795,7.642l22.662-1.327    c-0.99-8.067-4.096-13.949-9.313-17.647c-2.734-1.936-6.123-3.36-10.153-4.283V94.665h-26.559v11.479    c-1.901,0.449-3.634,0.996-5.163,1.664c-4.653,2.034-8.138,4.829-10.455,8.385c-2.318,3.555-3.477,7.333-3.477,11.33    c0,6.086,2.264,11.092,6.793,15.019c4.492,3.927,12.011,7.077,22.555,9.447c6.439,1.416,10.542,2.92,12.313,4.512    c1.768,1.591,2.654,3.395,2.654,5.412c0,2.123-0.929,3.99-2.787,5.599c-1.857,1.611-4.503,2.415-7.934,2.415    c-4.6,0-8.138-1.574-10.615-4.724c-1.522-1.945-2.53-4.776-3.026-8.491l-22.874,1.432c0.672,7.855,3.556,14.33,8.651,19.425    c3.02,3.02,7.482,5.138,13.362,6.367v8.51h26.559v-8.473c2.291-0.515,4.396-1.188,6.304-2.026c4.954-2.177,8.81-5.369,11.57-9.579    c2.76-4.211,4.14-8.81,4.14-13.799C263.536,154.326,262.501,150.487,260.431,147.055z" fill="#ffffff" data-original="#ffffff" class=""/>
	</g>
	<g>
		<path style="" d="M234.532,121.634c1.928,1.592,3.193,4.14,3.795,7.643l22.662-1.328    c-0.99-8.067-4.096-13.949-9.313-17.646c-2.734-1.936-6.123-3.36-10.153-4.283V94.665h-13.594v24.631    C230.671,119.489,232.874,120.266,234.532,121.634z" fill="#e9edf5" data-original="#e9edf5" class=""/>
		<path style="" d="M260.431,147.055c-2.07-3.431-5.378-6.306-9.924-8.624c-4.546-2.318-12.072-4.607-22.579-6.873    v21.072c4.885,1.227,8.096,2.517,9.603,3.872c1.768,1.591,2.654,3.395,2.654,5.412c0,2.123-0.929,3.99-2.787,5.6    c-1.857,1.611-4.503,2.415-7.934,2.415c-0.527,0-1.036-0.026-1.536-0.067v22.588h13.594v-8.474    c2.291-0.515,4.396-1.188,6.304-2.026c4.954-2.177,8.81-5.369,11.57-9.58c2.76-4.21,4.14-8.81,4.14-13.799    C263.536,154.326,262.501,150.487,260.431,147.055z" fill="#e9edf5" data-original="#e9edf5" class=""/>
	</g>
	<g>
		<path style="" d="M308.529,368.88c-1.706-2.828-4.433-5.197-8.179-7.107c-3.747-1.91-9.952-3.797-18.613-5.664    c-3.499-0.729-5.715-1.516-6.649-2.362c-0.962-0.816-1.443-1.734-1.443-2.755c0-1.4,0.583-2.587,1.75-3.565    c1.166-0.977,2.901-1.466,5.205-1.466c2.8,0,4.994,0.656,6.583,1.969c1.589,1.312,2.632,3.412,3.128,6.299l18.678-1.095    c-0.816-6.649-3.376-11.496-7.676-14.544c-2.254-1.596-5.046-2.77-8.368-3.53l0-9.358l-21.89,0.001l0,9.461    c-1.567,0.37-2.995,0.821-4.255,1.372c-3.835,1.677-6.707,3.98-8.617,6.912c-1.91,2.93-2.865,6.044-2.865,9.338    c0,5.016,1.866,9.142,5.599,12.378c3.702,3.237,9.899,5.832,18.59,7.785c5.307,1.167,8.689,2.406,10.148,3.718    c1.457,1.311,2.187,2.798,2.187,4.461c0,1.75-0.766,3.288-2.297,4.615c-1.531,1.328-3.711,1.991-6.539,1.991    c-3.792,0-6.707-1.297-8.748-3.893c-1.255-1.603-2.085-3.937-2.494-6.998l-18.853,1.181c0.554,6.474,2.931,11.81,7.13,16.009    c2.489,2.489,6.167,4.234,11.013,5.247l0,7.014l21.89-0.001l0-6.984c1.889-0.425,3.623-0.979,5.196-1.67    c4.083-1.794,7.261-4.425,9.536-7.896c2.275-3.47,3.412-7.261,3.412-11.373C311.088,374.873,310.235,371.709,308.529,368.88z" fill="#ffffff" data-original="#ffffff" class=""/>
	</g>
	<g>
		<path style="" d="M308.529,368.88c-1.706-2.828-4.433-5.197-8.179-7.107c-3.695-1.883-9.783-3.745-18.255-5.585    v17.382c3.822,0.983,6.356,2.016,7.56,3.098c1.457,1.311,2.187,2.798,2.187,4.46c0,1.75-0.766,3.289-2.297,4.615    c-1.531,1.328-3.711,1.99-6.539,1.991c-0.313,0-0.61-0.022-0.911-0.041v18.602l10.849,0v-6.984    c1.889-0.425,3.623-0.979,5.196-1.67c4.083-1.794,7.261-4.425,9.536-7.896s3.412-7.262,3.412-11.373    C311.088,374.873,310.235,371.709,308.529,368.88z" fill="#e9edf5" data-original="#e9edf5" class=""/>
		<path style="" d="M287.183,347.929c1.589,1.312,2.632,3.412,3.128,6.299l18.678-1.095    c-0.816-6.649-3.376-11.497-7.676-14.544c-2.254-1.596-5.046-2.77-8.368-3.53v-9.358l-10.849,0v20.335    C284.189,346.236,285.89,346.862,287.183,347.929z" fill="#e9edf5" data-original="#e9edf5" class=""/>
	</g>
</g>















</g></svg>
