<?xml version="1.0"?>
<svg xmlns="http://www.w3.org/2000/svg" xmlns:xlink="http://www.w3.org/1999/xlink" xmlns:svgjs="http://svgjs.com/svgjs" version="1.1" width="512" height="512" x="0" y="0" viewBox="0 0 512 512" style="enable-background:new 0 0 512 512" xml:space="preserve" class=""><g><path xmlns="http://www.w3.org/2000/svg" d="m512 256c0 141.386719-114.613281 256-256 256s-256-114.613281-256-256 114.613281-256 256-256 256 114.613281 256 256zm0 0" fill="#f1f1f1" data-original="#ff0037" style="" class=""/><path xmlns="http://www.w3.org/2000/svg" d="m504.332031 318.371094-92.398437-92.394532-56.011719-24.03125-47.699219-47.671874-190.113281 26.6875-20.132813-21-20.976562 136.34375 213.386719 213.386718c104.371093-14.011718 188.804687-90.90625 213.945312-191.320312zm0 0" fill="#f1f1f1" data-original="#aa0128" style="" class=""/><path xmlns="http://www.w3.org/2000/svg" d="m201.027344 142.476562 27.96875 80.410157-140.808594-20.976563 61.957031-43.386718c12.601563-8.824219 35.5-16.046876 50.882813-16.046876zm0 0" fill="#aaeffd" data-original="#aaeffd" style=""/><path xmlns="http://www.w3.org/2000/svg" d="m313.230469 161.230469c-5.167969-10.3125-18.835938-18.753907-30.375-18.753907h-81.828125v80.410157l132.585937-20.976563zm0 0" fill="#5ce3ff" data-original="#5ce3ff" style="" class=""/><path xmlns="http://www.w3.org/2000/svg" d="m354.589844 201.910156h-98.765625l-27.96875 47.199219 27.96875 47.195313h179.175781v-13.984376c0-44.40625-36.003906-80.410156-80.410156-80.410156zm0 0" fill="#ffab37" data-original="#ffab37" style=""/><path xmlns="http://www.w3.org/2000/svg" d="m88.1875 201.910156v54.191406l78.664062 40.203126h88.972657v-94.394532zm0 0" fill="#ffcd37" data-original="#ffcd37" style="" class=""/><path xmlns="http://www.w3.org/2000/svg" d="m77 256.101562h89.851562v40.203126h-89.851562zm0 0" fill="#838e92" data-original="#838e92" style=""/><path xmlns="http://www.w3.org/2000/svg" d="m354.589844 235.125c26.023437 0 47.195312 21.171875 47.195312 47.195312 0 26.027344-21.171875 47.199219-47.195312 47.199219l-27.695313-47.199219zm0 0" fill="#010409" data-original="#010409" style="" class=""/><path xmlns="http://www.w3.org/2000/svg" d="m354.589844 235.125v94.394531c-26.023438 0-47.195313-21.171875-47.195313-47.195312 0-26.027344 21.171875-47.199219 47.195313-47.199219zm0 0" fill="#014859" data-original="#014859" style="" class=""/><path xmlns="http://www.w3.org/2000/svg" d="m354.589844 256.101562c14.457031 0 26.222656 11.761719 26.222656 26.21875 0 14.460938-11.761719 26.222657-26.222656 26.222657l-15.386719-26.222657zm0 0" fill="#5ce3ff" data-original="#5ce3ff" style="" class=""/><path xmlns="http://www.w3.org/2000/svg" d="m354.589844 256.101562v52.441407c-14.457032 0-26.222656-11.761719-26.222656-26.222657 0-14.457031 11.765624-26.21875 26.222656-26.21875zm0 0" fill="#e0ecef" data-original="#e0ecef" style="" class=""/><path xmlns="http://www.w3.org/2000/svg" d="m77 159.960938h20.976562v96.140624h-20.976562zm0 0" fill="#ffcd37" data-original="#ffcd37" style="" class=""/><path xmlns="http://www.w3.org/2000/svg" d="m166.851562 235.125c26.023438 0 47.195313 21.171875 47.195313 47.195312 0 26.027344-21.171875 47.199219-47.195313 47.199219l-27.695312-47.199219zm0 0" fill="#010409" data-original="#010409" style="" class=""/><path xmlns="http://www.w3.org/2000/svg" d="m166.851562 235.125v94.394531c-26.027343 0-47.199218-21.171875-47.199218-47.195312 0-26.027344 21.171875-47.199219 47.199218-47.199219zm0 0" fill="#014859" data-original="#014859" style="" class=""/><path xmlns="http://www.w3.org/2000/svg" d="m166.851562 256.101562c14.457032 0 26.21875 11.761719 26.21875 26.21875 0 14.460938-11.761718 26.222657-26.21875 26.222657l-15.386718-26.222657zm0 0" fill="#5ce3ff" data-original="#5ce3ff" style="" class=""/><path xmlns="http://www.w3.org/2000/svg" d="m166.851562 256.101562v52.441407c-14.460937 0-26.222656-11.761719-26.222656-26.222657 0-14.457031 11.761719-26.21875 26.222656-26.21875zm0 0" fill="#e0ecef" data-original="#e0ecef" style="" class=""/></g></svg>
