<?xml version="1.0"?>
<svg xmlns="http://www.w3.org/2000/svg" xmlns:xlink="http://www.w3.org/1999/xlink" xmlns:svgjs="http://svgjs.com/svgjs" version="1.1" width="512" height="512" x="0" y="0" viewBox="0 0 512 512" style="enable-background:new 0 0 512 512" xml:space="preserve" class=""><g><path xmlns="http://www.w3.org/2000/svg" d="m512 256c0 5.11-.15 10.18-.45 15.22-.08 1.38-.17 2.75-.27 4.12-.39 5.2-.93 10.35-1.63 15.46-.04.31-.09.63-.13.94-.08.58-.16 1.16-.25 1.74-15.94 108.66-100.14 195.13-207.66 214.46-1.11.2-2.23.39-3.35.58-13.12 2.18-26.57 3.37-40.27 3.47-.45.01-.91.01-1.37.01h-.62c-2.38 0-4.74-.03-7.1-.1-3.66-.1-7.3-.27-10.91-.52-6.42-.45-12.77-1.14-19.05-2.05-1.85-.27-3.69-.56-5.52-.87-1.12-.19-2.24-.38-3.35-.59-1.73-.31-3.45-.64-5.17-.99-116.9-23.67-204.9-127-204.9-250.88 0-141.38 114.62-256 256-256 116.92 0 215.53 78.38 246.16 185.47 2.48 8.66 4.51 17.5 6.07 26.51 1.01 5.86 1.83 11.79 2.44 17.78.03.34.07.67.1 1.01.81 8.29 1.23 16.72 1.23 25.23z" fill="#f1f1f1" data-original="#f9da55" style="" class=""/><path xmlns="http://www.w3.org/2000/svg" d="m511.28 275.34c-.39 5.2-.93 10.35-1.63 15.46-.04.31-.09.63-.13.94-.08.58-.16 1.16-.25 1.74-15.94 108.66-100.14 195.13-207.66 214.46-1.11.2-2.23.39-3.35.58-13.12 2.18-26.57 3.37-40.27 3.47-.45.01-95.09-93.71-95.09-93.71l22.1-113.34 30-245.29 14 14.14 142 60.86z" fill="#f1f1f1" data-original="#f4c042" style="" class=""/><ellipse xmlns="http://www.w3.org/2000/svg" cx="256" cy="369.848" fill="#a4efd1" rx="115" ry="82.5" data-original="#a4efd1" style="" class=""/><path xmlns="http://www.w3.org/2000/svg" d="m256 287.348v165c63.513 0 115-36.937 115-82.5s-51.487-82.5-115-82.5z" fill="#97dbbe" data-original="#97dbbe" style="" class=""/><path xmlns="http://www.w3.org/2000/svg" d="m371 134.652-87.5 37.5-87.5 37.5v-75-75l87.5 37.5z" fill="#eb4755" data-original="#eb4755" style="" class=""/><path xmlns="http://www.w3.org/2000/svg" d="m283.5 97.152-27.5-11.786v98.571l27.5-11.785 87.5-37.5z" fill="#bc3142" data-original="#bc3142" style="" class=""/><path xmlns="http://www.w3.org/2000/svg" d="m200 333.395c-21.225 0-38.432 11.977-38.432 26.751 0 11.07 9.66 20.568 23.432 24.636v-4c4.609 1.361 9.678 2.115 15 2.115s10.391-.754 15-2.115v4c13.772-4.068 23.432-13.566 23.432-24.636 0-14.775-17.207-26.751-38.432-26.751z" fill="#8d5c4d" data-original="#8d5c4d" style=""/><path xmlns="http://www.w3.org/2000/svg" d="m200 333.395v49.502c5.322 0 10.391-.754 15-2.115v4c13.772-4.068 23.432-13.566 23.432-24.636 0-14.775-17.207-26.751-38.432-26.751z" fill="#805142" data-original="#805142" style="" class=""/><path xmlns="http://www.w3.org/2000/svg" d="m185 59.652v248.522 27.336 6.997 21.783 3.02 17.472c4.609 1.361 9.678 2.115 15 2.115s10.391-.754 15-2.115v-17.472-3.02-21.783-6.997-27.336-248.522z" fill="#f2f2f2" data-original="#f2f2f2" style="" class=""/><path xmlns="http://www.w3.org/2000/svg" d="m200 59.652v327.245c5.322 0 10.391-.754 15-2.115v-17.472-3.02-21.783-6.997-27.336-248.522z" fill="#dcdcef" data-original="#dcdcef" style="" class=""/><circle xmlns="http://www.w3.org/2000/svg" cx="316" cy="389.848" fill="#ffffff" r="21.163" data-original="#ffffff" style="" class=""/><path xmlns="http://www.w3.org/2000/svg" d="m316 368.686v42.325c11.688 0 21.163-9.475 21.163-21.163s-9.475-21.162-21.163-21.162z" fill="#e0e0e0" data-original="#e0e0e0" style="" class=""/></g></svg>
