<?xml version="1.0" encoding="utf-8"?>
<svg version="1.1" id="Layer_1" xmlns="http://www.w3.org/2000/svg" xmlns:xlink="http://www.w3.org/1999/xlink" x="0px" y="0px"
	width="100px" height="100px" viewBox="0 0 299.94 299.94" style="enable-background:new 0 0 299.94 299.94;" xml:space="preserve">
<g>
	<path style="fill:#CC0000;" d="M0,149.98C0,67.14,67.13,0,149.96,0c82.83,0,149.98,67.13,149.98,149.98
		c0,82.79-67.15,149.96-149.98,149.96C67.13,299.94,0,232.77,0,149.98z M149.93,249.93c55.21,0,99.96-44.76,99.96-99.96
		c0-55.22-44.75-99.98-99.96-99.98c-55.2,0-99.96,44.76-99.96,99.98C49.97,205.17,94.73,249.93,149.93,249.93z M199.91,149.97
		c0,27.6-22.37,49.98-49.98,49.98s-49.97-22.38-49.97-49.98s22.37-49.98,49.98-49.98S199.91,122.37,199.91,149.97L199.91,149.97z"/>
</g>
</svg>
