<?xml version="1.0" encoding="utf-8"?>
<svg version="1.1" id="Layer_1" xmlns="http://www.w3.org/2000/svg" xmlns:xlink="http://www.w3.org/1999/xlink" x="0px" y="0px"
	 viewBox="0 0 1274.89 226.78" style="enable-background:new 0 0 1274.89 226.78;" xml:space="preserve">
<g>
	<path d="M30.69,127.21c5.38,0,10.04,0.74,13.98,2.23c3.94,1.49,7.18,3.51,9.73,6.05c2.54,2.55,4.44,5.54,5.69,9.01
		c1.25,3.46,1.87,7.11,1.87,10.95s-0.65,7.45-1.95,10.81s-3.31,6.27-6.05,8.72c-2.74,2.45-6.2,4.39-10.37,5.83
		c-4.18,1.44-9.1,2.16-14.77,2.16h-14.7v42.51H0v-98.27C0,127.21,30.69,127.21,30.69,127.21z M14.12,170.29h15.99
		c5.28,0,9.48-1.34,12.61-4.03c3.12-2.69,4.68-6.48,4.68-11.38c0-1.82-0.27-3.63-0.79-5.4c-0.53-1.78-1.44-3.39-2.74-4.83
		c-1.3-1.44-3.03-2.59-5.19-3.46c-2.16-0.87-4.83-1.3-8-1.3H14.11L14.12,170.29L14.12,170.29L14.12,170.29z M191.84,225.48h-14.41
		l-13.11-28.96h-41.79l-12.39,28.96H95.73l42.22-98.84h9.94L191.84,225.48L191.84,225.48z M128.01,183.84h30.55l-15.85-35.59
		L128.01,183.84z M265.57,127.21c9.99,0,17.87,2.45,23.63,7.35s8.65,11.62,8.65,20.17c0,5.76-1.42,10.69-4.25,14.77
		c-2.84,4.08-6.89,7.18-12.18,9.29c4.42,2.98,8.24,6.73,11.45,11.24c3.22,4.52,6.7,9.85,10.45,15.99c1.06,1.73,2.02,3.27,2.88,4.61
		c0.87,1.35,1.8,2.74,2.81,4.18c1.01,1.44,2.11,3,3.31,4.68s2.67,3.67,4.39,5.98h-16.86l-12.97-20.17c-3.27-5-6.12-8.98-8.57-11.96
		c-2.45-2.98-4.66-5.26-6.63-6.84s-3.82-2.59-5.55-3.02c-1.73-0.43-3.51-0.65-5.33-0.65h-5.91v42.65h-14.12v-98.27H265.57
		L265.57,127.21z M254.9,170.15h9.08c3.75,0,6.87-0.45,9.37-1.37c2.5-0.91,4.49-2.12,5.98-3.6c1.49-1.49,2.52-3.19,3.1-5.11
		c0.58-1.92,0.87-3.89,0.87-5.91c-0.1-4.61-1.61-8.24-4.54-10.88c-2.93-2.64-7.85-3.96-14.77-3.96h-9.08v30.83L254.9,170.15
		L254.9,170.15z"/>
	<path style="fill-rule:evenodd;clip-rule:evenodd;" d="M432.28,139.89h-34v85.59h-14.12v-85.59h-34v-12.68h82.13v12.68H432.28z
		 M577.2,225.48h-12.1l-65.7-75.64v75.64h-13.26v-98.27h11.24l66.57,76.08v-76.08h13.26v98.27H577.2z M698.24,139.89H656.6v29.68
		h40.2v12.68h-40.2v30.55h42.94v12.68h-57.06v-98.27h55.76V139.89z"/>
	<path d="M786.67,127.21c9.99,0,17.87,2.45,23.63,7.35s8.65,11.62,8.65,20.17c0,5.76-1.42,10.69-4.25,14.77
		c-2.84,4.08-6.89,7.18-12.17,9.29c4.42,2.98,8.23,6.73,11.45,11.24c3.22,4.52,6.7,9.85,10.45,15.99c1.06,1.73,2.02,3.27,2.88,4.61
		c0.86,1.35,1.8,2.74,2.81,4.18c1.01,1.44,2.11,3,3.31,4.68s2.67,3.67,4.39,5.98h-16.86l-12.97-20.17c-3.27-5-6.12-8.98-8.58-11.96
		c-2.45-2.98-4.66-5.26-6.63-6.84c-1.97-1.58-3.82-2.59-5.54-3.02c-1.73-0.43-3.51-0.65-5.33-0.65H776v42.65h-14.12v-98.27H786.67
		L786.67,127.21z M776.01,170.15h9.08c3.75,0,6.87-0.45,9.37-1.37c2.5-0.91,4.49-2.12,5.98-3.6c1.49-1.49,2.52-3.19,3.1-5.11
		c0.58-1.92,0.86-3.89,0.86-5.91c-0.09-4.61-1.61-8.24-4.54-10.88s-7.85-3.96-14.77-3.96h-9.08L776.01,170.15L776.01,170.15z"/>
	<path style="fill-rule:evenodd;clip-rule:evenodd;" d="M934.54,148.82c-4.23-4.03-8.29-6.75-12.18-8.14s-7.52-2.09-10.88-2.09
		c-4.61,0-8.36,1.08-11.24,3.24s-4.32,4.97-4.32,8.43c0,3.17,1.06,5.86,3.17,8.07s4.73,4.3,7.85,6.27s6.53,3.94,10.23,5.91
		c3.7,1.97,7.11,4.28,10.23,6.91c3.12,2.65,5.74,5.79,7.85,9.44c2.11,3.65,3.17,8.07,3.17,13.26c0,3.84-0.7,7.4-2.09,10.66
		c-1.39,3.27-3.31,6.08-5.76,8.43c-2.45,2.36-5.36,4.2-8.72,5.55c-3.36,1.34-7.01,2.02-10.95,2.02c-5.38,0-10.28-0.74-14.7-2.23
		s-8.69-3.77-12.82-6.84v-17.88c3.65,4.61,7.66,8.14,12.03,10.59c4.37,2.45,9.01,3.67,13.9,3.67c2.69,0,5.04-0.38,7.06-1.15
		c2.02-0.77,3.7-1.75,5.04-2.95c1.34-1.2,2.32-2.54,2.95-4.03s0.94-2.91,0.94-4.25c0-3.36-1.06-6.31-3.17-8.86
		c-2.11-2.54-4.73-4.9-7.86-7.06s-6.53-4.3-10.23-6.41c-3.7-2.11-7.11-4.44-10.23-6.99c-3.13-2.54-5.74-5.43-7.86-8.65
		c-2.11-3.22-3.17-7.08-3.17-11.6c0-4.03,0.72-7.66,2.16-10.88s3.46-5.95,6.05-8.21c2.59-2.25,5.71-4.01,9.37-5.26
		c3.65-1.25,7.73-1.87,12.25-1.87c7.68,0,14.99,2.3,21.9,6.91v15.99H934.54z M1076.33,225.48h-14.11v-42.79h-55.04v42.79h-14.12
		v-98.27h14.12V170h55.04v-42.79h14.12v98.27H1076.33z M1151.9,225.48h-14.12v-98.27h14.12V225.48z"/>
	<path d="M1243.62,127.21c5.38,0,10.04,0.74,13.98,2.23c3.94,1.49,7.18,3.51,9.73,6.05c2.55,2.55,4.44,5.54,5.69,9.01
		c1.25,3.46,1.87,7.11,1.87,10.95s-0.65,7.45-1.94,10.81c-1.3,3.36-3.31,6.27-6.05,8.72s-6.2,4.39-10.38,5.83s-9.1,2.16-14.77,2.16
		h-14.7v42.51h-14.12v-98.27H1243.62L1243.62,127.21z M1227.05,170.29h15.99c5.28,0,9.48-1.34,12.61-4.03
		c3.12-2.69,4.68-6.48,4.68-11.38c0-1.82-0.27-3.63-0.79-5.4c-0.53-1.78-1.44-3.39-2.74-4.83s-3.02-2.59-5.18-3.46
		c-2.16-0.87-4.83-1.3-8-1.3h-16.57V170.29L1227.05,170.29z"/>
	<g>
		<path style="fill-rule:evenodd;clip-rule:evenodd;" d="M299.1,0.79h7.97v47.64c0,5.35-0.3,11.33-4.14,15.48
			c-1.89,1.98-4.19,3.25-6.92,3.79c-0.14-0.11-7.39-7.4-7.39-7.4c2.15-0.02,4.41,0.14,6.45-0.7c1.43-0.55,2.44-1.53,3.03-2.92
			c0.74-1.39,1.01-4.6,1.01-9.17L299.1,0.79L299.1,0.79L299.1,0.79z"/>
		<path d="M372.28,0c8.6,0,15.77,2.72,21.49,8.17s8.58,12.28,8.58,20.49s-2.89,15.01-8.66,20.39c-5.78,5.38-13.06,8.07-21.85,8.07
			c-8.39,0-15.38-2.69-20.97-8.07s-8.38-12.12-8.38-20.23c0-8.32,2.81-15.2,8.44-20.65C356.56,2.73,363.67,0,372.28,0z M372.59,7.58
			c-6.37,0-11.61,1.99-15.71,5.98s-6.15,9.08-6.15,15.27c0,6,2.06,11,6.17,14.99c4.11,3.99,9.27,5.98,15.45,5.98
			c6.21,0,11.4-2.03,15.55-6.1c4.16-4.07,6.23-9.13,6.23-15.19c0-5.9-2.08-10.86-6.23-14.89C383.75,9.59,378.65,7.58,372.59,7.58
			L372.59,7.58z"/>
		<path style="fill-rule:evenodd;clip-rule:evenodd;" d="M478.22,0.79h7.97v55.68h-7.97V32.24h-32.57v24.23h-7.97V0.79h7.97v24.25
			h32.57V0.79z M572.21,0.79h7.57v55.68h-6.86l-38.91-42.88v42.88h-7.49V0.79h6.46l39.23,43.25L572.21,0.79z"/>
		<g>
			<path style="fill-rule:evenodd;clip-rule:evenodd;" d="M649.15,0.79v55.69h34.13v-7.19h-26.13V0.79H649.15z M720.89,0.79v55.69
				h35.93v-7.19h-27.93V31.98h26.38V24.8h-26.38V7.97h27.2V0.79H720.89z M867.43,0.79l-15.2,38.38L836.72,0.79h-7.59l-15.42,38.38
				L798.35,0.79h-8l22.53,56.18h1.55l18.46-45.57l18.29,45.57h1.55l22.61-56.18L867.43,0.79z M909.68,0.79h8v55.69h-8V0.79z
				 M971.44,33.17l-6.06-3.68c-3.8-2.32-6.2-4.64-7.93-6.79c-1.79-2.23-2.69-4.97-2.69-7.9c0-4.38,1.52-7.94,4.56-10.68
				s7.1-4.06,11.96-4.06c5.13,0,8.91,1.31,12.79,3.92v9.05c-4.01-3.86-8.33-5.79-12.95-5.79c-2.61,0-4.74,0.6-6.42,1.81
				c-1.67,1.2-2.51,2.78-2.51,4.66c0,1.67,0.41,3.05,1.64,4.51s3.43,3.16,6.16,4.76l6.32,3.6c6.79,4.06,9.95,9.22,9.95,15.49
				c0,4.46-1.54,8.14-4.53,10.93c-2.99,2.79-6.83,4.28-11.61,4.19c-5.49-0.1-10.4-1.63-15.03-5.13V41.94
				c4.3,5.45,9.29,8.06,14.95,8.06c2.5,0,4.58-0.58,6.24-1.97s2.56-3.13,2.56-5.22C978.85,39.43,976.33,36.21,971.44,33.17
				L971.44,33.17z"/>
		</g>
	</g>
</g>
</svg>
