<?xml version="1.0" encoding="utf-8"?>
<svg version="1.1" id="Layer_1" xmlns="http://www.w3.org/2000/svg" xmlns:xlink="http://www.w3.org/1999/xlink" x="0px" y="0px"
	width="100px" height="100px" viewBox="0 0 66.8 65.6" style="enable-background:new 0 0 66.8 65.6;" xml:space="preserve">
<g>
	<path style="fill:#E30613;" d="M59,50.1c-0.6,0.9-1.3,1.7-2.1,2.6c-1.7,1.9-3.6,3.6-5.7,5.1c-2.7,1.9-5.5,3.3-8.5,4.4
		C40.2,63,38,63.6,36,63.6h-0.7c-1,0-1.7-0.1-2.1-0.4l-0.2-0.1l-0.2-0.2v-0.1c0-0.1,0-0.3,0.1-0.5c0.2-0.5,0.5-0.9,0.9-1.3
		c0.1-0.1,0.3-0.3,0.4-0.5c1.5-0.4,2.9-0.9,4.6-1.3c1.5,0.3,3,0.4,4.4,0.3c1.7-0.2,3.4-0.7,4.9-1.5c1.7-1,3.3-2.3,4.6-3.8
		c0.8-1.1,1.5-2.1,1.9-3.4c2.6-2.1,4.9-4.2,6.6-6.3l0.9-1.1C61.5,45.6,60.5,48,59,50.1 M49,54.5c0.6-0.3,1.1-0.7,1.7-1
		c-0.8,1-1.7,1.9-2.7,2.5c-1.3,0.9-2.8,1.5-4.3,1.9l-1.9,0.3C44.2,57.1,46.7,55.8,49,54.5 M66.8,30.1c0-2.8-0.7-5.5-2.1-8.1
		c-1.1-2.3-2.9-4.4-5.1-6.3c-0.5-2.6-1.9-5.1-3.9-7.3C54,6.6,51.9,5,49.6,3.8c-1.9-1.1-4.1-1.9-6.3-2.6c-1.9-0.6-3.7-0.9-5.5-1.1
		c-1.7-0.2-3-0.1-4.3,0.1c-1.3,0.3-2.4,0.7-3.5,1.3l-0.2,0.1c-1.5-0.2-2.9-0.2-4.3-0.1h-0.4c-1.3,0.1-4.2,0.5-4,1.9
		c0,0,0,0.8,1.7,1.3l2.4-1.5c-0.2,0-0.4-0.1-0.6-0.1c0.8-0.1,1.5-0.2,2.1-0.2h0.6C27.2,3,27.2,3,27,3.1l-0.8,0.5
		c-1.5,0.9-1.9,1.3-3.5,2.1l-2.8,1.7l-5.7,2.9L9,12.6l-0.2,0.1c-0.5,0.2-1,0.3-1.3,0.6H7.4c-0.5,0.2-1.1,0.5-1.3,1.1L6,14.8v0.4
		c0,0.1,0.1,0.2,0.1,0.2l0.3,0.3l0.3,0.2h0.1C7,16,7.4,16,7.8,16h1.7c0.7,0,1.3-0.1,1.9-0.1c3.2-0.1,6.1-0.1,8.9,0
		c2.7,0.1,5.5,0.4,8.2,0.7l4.1,0.6c0.9-0.8,1.5-1.3,2.1-1.9c-2.8-0.6-5.7-1-8.4-1.3c-2.8-0.3-5.9-0.5-8.9-0.5h-1.1
		c-1.5,0-3,0-4.5,0.1c1.5-0.7,2.7-1.3,4-1.9c1.9-1,3.7-2.1,5.5-3.2c1.3-0.9,2.8-1.9,4.5-3l0.3-0.2l6.6,1.3l5,1.1
		C37.1,6,35,5,33.9,4.5c-1.7-0.3-3.4-0.7-5.5-1c0.5-0.4,1-0.7,1.5-0.9c1.7,0.2,3,0.5,4.3,1c1,0.4,1.7,0.8,2.4,1.3
		C36.6,5,36.8,5.1,37,5.2c1.1,1,1.9,2.3,1.9,3.5c0.1,1.1-0.2,2.3-0.8,3.4c-0.3,0.7-0.8,1.3-1.3,2.1c-0.1,0.2-1,1.5-2.9,3.1
		c-1.9,1.7-4.1,3.3-6.8,5c-0.9,0.5-1.9,1.1-2.8,1.5c-1.1,0.6-2.3,1.1-3.3,1.5c-1.5,0.7-4.2,1.9-7.5,2.8c-1.7,0.5-3.4,1-5.1,1.3
		C7.1,29.7,5.6,29.9,4,30c1.7-0.8,3.7-1.3,5.7-1.5c3.9-0.9,7.2-2.1,9.3-3.1c-2.1,0-4.1,0.1-6.2,0.3C9.3,26,6.5,26.5,4,27.4
		c-1.5,0.5-3.4,1.3-3.9,2.5C0,30.6,0,31,0.2,31.6c0.4,0.8,1.1,1.1,2.4,1.3c1,0.1,2.1,0.1,3.5-0.1c2.6-0.3,5.5-0.9,8.7-1.9
		c2.8-0.9,5.3-1.9,7.8-3c2.7,0.1,5.5,0.4,8.1,0.9c2.8,0.5,5.3,1.1,7.6,2.1c2.6,1,4.9,2.1,6.7,3.3c0.7-0.5,1.3-1,1.7-1.3
		c-0.1,0-0.1-0.1-0.2-0.1c-2.3-1.5-5.1-2.9-8-4c-2.4-0.9-5.1-1.5-8-2.1c-1.4-0.3-2.8-0.5-4.2-0.6c2.3-1.3,4.4-2.5,6.2-4
		c1.7-1.3,3-2.5,4.3-3.8c3.3,0.9,6.1,1.7,8.7,2.8c3,1.3,5.7,2.7,7.9,4.4l0.2,0.1c0.5-0.7,0.9-1.5,1.1-2.1c-2.1-1.5-4.3-2.7-6.7-3.9
		c-2.7-1.3-5.7-2.3-9.1-3.2c-0.1,0-0.2-0.1-0.4-0.1c1.5-2.1,2.3-4,2.5-5.9c0.1-0.6,0.1-1.1,0-1.7c2.8,0.9,5.5,1.9,8.1,3.1
		c2.5,1.1,4.7,2.4,6.5,3.9l0.1,0.1c-0.5-2.1-1.5-3.6-2.1-4.3c-1.1-0.7-2.4-1.3-3.8-1.9c-2.3-1.1-5-2.1-7.8-2.9
		c-0.6-0.2-1.3-0.4-1.9-0.5H40c-0.9-1.5-2.3-2.4-3.3-3c-1.1-0.6-2.5-1.1-4.1-1.4c0.7-0.1,1.3-0.2,1.9-0.2h0.2c0.6,0,1.3,0,1.9,0.1
		c0.2,0,0.3,0,0.5,0.1c1.7,0.2,3.3,0.6,5.1,1.1c2.1,0.7,4.2,1.5,5.9,2.6c2.3,1.3,4.1,2.7,5.5,4.4c0.5,0.6,1,1.1,1.3,1.7
		c0.1,0.1,0.2,0.2,0.2,0.4c0,0,0,0.1,0.1,0.1c0.7,1.1,1.3,2.7,1.5,4.6c0.2,1.9-0.2,3.9-0.8,5.5c0,0.1-0.8,2.3-2.1,4.2
		c-1.3,2.1-3.2,4.1-5.5,6.1c-0.5,0.5-1.9,1.7-4,3.1c-1.9,1.3-4,2.6-6.1,3.8c-1.7,1-3.4,1.7-5.5,2.7c-0.9,0.4-2.1,0.9-3.6,1.3
		c-2.3,0.9-4.7,1.5-7,2.1c-3.4,0.8-6.4,1.3-9.3,1.5c-1.1,0.1-2.3,0.1-3.3,0c-1.5-0.1-3.3-0.3-4.2-1.1L5,45.7v-0.2
		c0.2-0.6,0.7-1,1.2-1.3c0.7-0.5,1.5-0.9,2.5-1.3c2.3-0.9,4.8-1.5,7.7-1.7c2.7-0.2,5.5-0.1,8.2,0.3c1.3,0.2,2.7,0.6,4.1,1
		c1-0.3,1.9-0.7,2.6-1c-1.7-0.7-3.5-1.3-5.5-1.7c-2.7-0.6-5.7-0.8-8.5-0.7c-3,0.1-5.9,0.6-8.4,1.3c-2.1,0.7-4.3,1.5-5.7,3.3
		c-0.6,0.8-0.9,1.7-0.7,2.6c0.2,1.1,1.1,1.9,1.7,2.3c1.2,0.7,2.5,1.2,3.9,1.3c1.3,0.2,2.5,0.3,3.8,0.3h0.7c2.8-0.1,5.9-0.5,9.5-1.3
		c3-0.7,6.1-1.6,9.3-2.8c0.9-0.4,1.9-0.7,2.7-1.1c1.5,1,2.5,2.1,3.2,3.2c0.7,1.1,1,2.3,1,3.4c0,1.1-0.3,2.2-0.9,3.1
		c-0.1,0.3-0.3,0.5-0.5,0.8c0.7-0.2,1.3-0.5,2.1-0.8l0.3-0.6c0.5-1.3,0.7-2.6,0.5-3.9c-0.2-1.5-0.9-2.9-1.9-4.2
		c-0.5-0.7-1.1-1.3-1.9-1.9c3.1-1.5,5.9-3,8.5-4.7L48,37c1.9,1.9,3.4,3.9,4.1,6.1c0.4,1.1,0.6,2.3,0.6,3.6c0.8-0.7,1.5-1.3,1.9-1.7
		c-0.2-1.7-0.8-3.4-1.7-5.1c-0.8-1.5-1.9-2.8-3.3-4.2c2.6-2.3,4.7-4.6,6.3-7c0.1-0.1,0.2-0.3,0.3-0.4c1.9,1.9,3.4,4.1,4.3,6.2v-0.1
		c0.2,0.4,0.3,0.9,0.5,1.3c0.7-1.5,1-2.9,1.1-3.8c-0.8-1.5-1.9-3-3-4.3c-0.5-0.6-1.1-1.1-1.7-1.7c1.1-2.3,1.7-4.4,1.9-6.4
		c0.5,0.6,1,1.1,1.3,1.7c1.5,2.3,2.4,4.6,2.6,6.8c0.1,0.9,0.1,1.7,0.1,2.5c0,0.1,0,1-0.3,2.3c0,0.2-0.1,0.5-0.2,0.7
		c-0.3,1.1-0.8,2.4-1.5,3.9c-0.1,0.1-0.1,0.3-0.2,0.4c-0.1,0.1-0.1,0.3-0.2,0.4c-1.3,2.3-3,4.7-5.3,6.8c-0.3,0.3-0.6,0.6-1,0.9
		c-0.8,0.8-1.9,1.7-3,2.5c-2.1,1.7-4.5,3.1-6.9,4.4c-1.9,1-3.8,1.9-5.9,2.7c-2.1,0.9-4.2,1.5-5.7,1.9c-2.9,0.8-5.7,1.3-8.5,1.7
		c-2.5,0.2-4.5,0.2-6.3-0.1c-1.1-0.2-2.1-0.5-2.8-0.9c-0.2-0.1-0.4-0.3-0.5-0.4c0-0.1-0.1-0.1-0.1-0.2v-0.2c0.5-1,1.7-1.5,2.9-1.9
		c1.1-0.4,2.7-0.6,4.2-0.6h0.2c1.5,0,2.9,0.2,4.5,0.6c1.5,0.3,2.9,0.8,4.2,1.3c0.1,0,0.1,0.1,0.2,0.1c0.6-0.1,1.3-0.3,2.1-0.6
		c-0.1,0-0.2-0.1-0.4-0.1c-0.6-0.2-1.1-0.5-1.7-0.7c-1.7-0.7-3-1.1-4.4-1.5c-1.7-0.4-3.3-0.7-4.9-0.7c-1.7-0.1-3.3,0.1-4.9,0.5
		c-1.7,0.4-2.8,1.1-3.7,1.9c-0.6,0.6-0.9,1.3-0.9,2.1c0,0.8,0.4,1.5,1.1,2.1c1.7,1.5,4.6,1.9,6.8,2.1c2.8,0.2,5.9-0.1,9.1-0.7
		c0.4-0.1,0.9-0.2,1.3-0.3c-0.3,0.5-0.6,1-0.7,1.5c-0.1,0.9,0.4,1.7,1.3,2.2c0.9,0.5,2.1,0.7,3.6,0.7h1.7c2.4-0.1,5-0.7,7.8-1.7
		c2.8-1,5.5-2.4,8-4.1c2.3-1.5,4.4-3.4,6.1-5.5c1.9-2.1,3.4-4.5,4.4-6.9c1.1-2.4,1.5-5.1,1.5-7.8c0-0.4,0-0.8-0.1-1.1
		C66.2,35.8,66.8,32.9,66.8,30.1"/>
</g>
</svg>
