<svg xmlns="http://www.w3.org/2000/svg" viewBox="0 0 191.6 37.7" fill="#134294"><path d="M15.3 12.4c-.6-.5-1.9-.8-3.1-.8-1.1 0-2 .2-2.7.5s-1 .9-1 1.7c0 .5.2.9.6 1.2s1.1.7 2.1 1l3 1 2.3.9c.7.3 1.3.8 1.8 1.3s.9 1.1 1.2 1.8.4 1.5.4 2.4c0 1.4-.3 2.5-.9 3.5s-1.4 1.7-2.4 2.3-2.1 1-3.4 1.3c-1.2.3-2.5.4-3.8.4-1.1 0-2.2-.1-3.3-.3s-2.1-.6-3-1.1-1.6-1.2-2.2-2.1-.9-1.9-.9-3.3v-.2l5.2-.7.2.8c.1.5.3.9.6 1.3s.6.7 1 .9.9.4 1.4.6c.5.1 1 .2 1.6.2.5 0 .9 0 1.4-.1s.9-.2 1.2-.4a2.36 2.36 0 0 0 .9-.8c.2-.3.3-.7.3-1.3 0-.8-.2-1.3-.6-1.6a4.77 4.77 0 0 0-1.6-.8L7 20.5l-2-.8c-.6-.3-1.1-.6-1.5-1.1-.4-.4-.7-.9-.9-1.5s-.3-1.3-.3-2.2c0-1.3.3-2.4.9-3.3a6.11 6.11 0 0 1 2.4-2.1c1-.6 2-.9 3.2-1.2 1.1-.2 2.2-.4 3.3-.4a18.7 18.7 0 0 1 3.4.3c1.1.2 2.1.6 2.9 1.1s1.6 1.2 2.1 2.1c.4.7.5.9.9 2.2l-4.9.9c-.3-1.4-.5-1.6-1.2-2.1zm20 17.8l.7-3.1h-.1c-2 2.4-4.5 3.6-7.7 3.6-4.3 0-6.4-2-6.4-5.9 0-.2 0-.5.1-.9 0-.4.1-.7.2-1.1s.1-.7.2-1 .1-.6.2-.8l2.7-12.9h6L28.5 21c-.1.2-.1.4-.1.6s-.1.5-.1.7c0 .3-.1.5-.1.7v.6c0 .7.3 1.2.9 1.6s1.3.6 2 .6c.9 0 1.7-.2 2.4-.5.7-.4 1.3-.8 1.8-1.4s.9-1.2 1.2-2c.3-.7.6-1.5.7-2.3l2.5-11.7h6l-4.6 22h-5.8v.3zm19.2-22l-.6 2.7.1.1c.7-1.2 1.6-2.1 2.8-2.6s2.4-.8 3.8-.8c2.7 0 4.7.8 6.2 2.3 1.4 1.6 2.2 3.7 2.2 6.3 0 1.8-.2 3.6-.7 5.3s-1.2 3.3-2.2 4.6c-1 1.4-2.2 2.5-3.7 3.3s-3.3 1.2-5.3 1.2c-.6 0-1.3-.1-1.9-.2s-1.2-.4-1.8-.6c-.6-.3-1-.6-1.5-1.1-.4-.4-.8-1-1-1.6h-.1l-2.3 10.6h-6L48.8 8h5.7v.2zm1.1 4.8c-.8.6-1.5 1.4-2.1 2.3s-1 2-1.2 3a11.28 11.28 0 0 0-.4 3c0 1.4.4 2.6 1.1 3.5s1.8 1.3 3.3 1.3c1.2 0 2.2-.3 3-.9s1.5-1.3 2-2.3c.5-.9.9-1.9 1.2-3s.4-2.1.4-3.1c0-.7-.1-1.3-.3-1.9s-.5-1.1-.8-1.6c-.4-.4-.8-.8-1.3-1.1s-1.2-.4-1.9-.4c-1.2.3-2.2.6-3 1.2zm20.8 8.1v.3.6c0 1.3.4 2.3 1.2 3.1s2 1.2 3.7 1.2c.6 0 1.1-.1 1.6-.3s.9-.4 1.2-.7c.4-.3.7-.6.9-1 .3-.4.4-.6.7-.9l5.5 1c-.4.9-.6 1.3-1.1 2.1-.6 1-1.4 1.7-2.3 2.4-.9.6-2 1.1-3.2 1.4a17.27 17.27 0 0 1-4.2.5c-1.5 0-2.8-.2-4-.6s-2.2-1-3.1-1.8-1.5-1.8-2-3-.7-2.6-.7-4.2c0-1.8.3-3.5.9-5.1s1.4-3.1 2.4-4.3c1-1.3 2.3-2.3 3.8-3 1.5-.8 3.2-1.1 5.1-1.1 1.5 0 2.9.2 4.2.6a8.34 8.34 0 0 1 3.2 1.8c.9.8 1.6 1.8 2.1 3s.7 2.6.7 4.2c0 1.1-.1 2.2-.3 3.4H76.4v.4zM87 15.2c-.1-.6-.3-1.1-.6-1.5-.3-.5-.7-.8-1.2-1.1s-1.2-.4-2.1-.4-1.6.1-2.3.4-1.2.6-1.7 1-.9.9-1.2 1.5l-.8 1.8h10.1l-.2-1.7zm16-7l-.9 4 .1.1c.7-1.5 1.7-2.7 3.1-3.5s2.9-1.2 4.5-1.2c.6 0 1.2 0 1.9.1l-2.2 5.7c-.4-.1.1 0-.3-.1s-.9-.1-1.3-.1c-1.2 0-2.1.2-3 .6-.8.4-1.5.9-2 1.6-.6.7-1 1.5-1.3 2.3l-.8 2.7-2 9.7h-6l4.6-22h5.6v.1h0zm41.9 22l.7-3.3h-.1c-.9 1.3-2.1 2.2-3.4 2.9-1.4.6-2.9.9-4.4.9-2.1 0-3.6-.4-4.6-1.3s-1.5-2.3-1.5-4.3c0-.5.1-1.1.2-1.9s.3-1.6.5-2.4L135 8.2h3.6l-2.8 12.9c-.1.2-.1.5-.2.8s-.1.6-.2 1c-.1.3-.1.6-.1.9v.7c0 1 .4 1.8 1.1 2.3s1.6.7 2.7.7c1 0 2-.2 2.8-.6.9-.4 1.6-.9 2.3-1.6s1.3-1.4 1.7-2.3c.5-.9.8-1.8 1-2.7l2.6-12.2h3.6l-4.6 22-3.6.1h0zm21.9-22l-.7 3.2h-4.4L159 24.3c0 .3-.1.5-.1.7v.7c0 .6.2 1 .7 1.2.4.2.9.3 1.5.3.4 0 .7 0 1.1-.1l1-.3-.6 3.3c-.4.1-.9.1-1.3.1s-.9.1-1.3.1c-.7 0-1.3 0-1.9-.1s-1.1-.3-1.6-.6c-.4-.3-.8-.6-1.1-1.1s-.4-1-.4-1.7c0-.3 0-.6.1-.9 0-.3.1-.6.1-.9l2.9-13.7h-3.7l.7-3.2h3.7l1.4-5.7 3.9-2.4-1.6 8h4.3v.2h0zM181.3 20c-.5-.5-1.2-.9-1.9-1.3s-1.4-.7-2.1-1l-2.1-.8-1.9-.9c-.6-.3-1-.7-1.3-1-.3-.4-.5-.8-.5-1.3 0-.6.1-1 .4-1.4s.6-.6 1.1-.9c.4-.2.9-.4 1.5-.4.6-.1 1.1-.1 1.7-.1 1.3 0 2.4.3 3.3 1 .9.6 1.3 1.5 1.3 2.8l3.6-.6c-.1-1-.3-1.8-.7-2.5-.5-.9-1.1-1.6-1.9-2.2s-1.7-1-2.7-1.2-2-.4-3-.4-2 .1-3 .4-1.9.7-2.6 1.2c-.8.5-1.4 1.2-1.9 2s-.7 1.7-.7 2.7c0 .8.2 1.5.5 2.2a5.09 5.09 0 0 0 1.3 1.6c.6.5 1.2.9 1.9 1.2s1.4.7 2.2.9l2.1.9 1.9.9c.5.3 1 .7 1.3 1 .3.4.5.8.5 1.4s-.2 1.1-.4 1.6c-.3.4-.7.8-1.2 1-.5.3-1 .5-1.6.6s-1.2.2-1.8.2c-.8 0-1.5-.1-2.2-.2s-1.3-.4-1.8-.7-.9-.8-1.2-1.3-.4-1.2-.4-2l-3.5.6c.1 1.1.3 2.1.7 2.9.5 1 1.1 1.7 1.9 2.3s1.7 1 2.8 1.2 2.3.4 3.5.4c1.1 0 2.2-.1 3.2-.4 1.1-.2 2-.6 2.9-1.2.9-.5 1.5-1.2 2.1-2.1.5-.9.8-1.9.8-3.1 0-.9-.2-1.6-.5-2.2-.6-.7-1-1.3-1.6-1.8zm-55.6 2.4c-.4 1.6-1.4 3.1-2.5 3.9s-2.4 1.2-4 1.2c-1 0-1.9-.2-2.6-.5s-1.3-.8-1.7-1.4-.7-1.2-.9-2-.3-1.6-.3-2.4c0-1.2.2-2.4.6-3.6s.9-2.3 1.6-3.3 1.6-1.8 2.7-2.4 2.3-.9 3.7-.9 2.6.4 3.4 1.1 1.2 1.8 1.2 3.1l3.6-.6c-.1-2.5-.9-3.8-2.3-5-1.5-1.2-3.4-1.8-5.9-1.8-2 0-3.7.4-5.2 1.1-1.5.8-2.8 1.8-3.8 3-1 1.3-1.8 2.7-2.3 4.3s-.8 3.3-.8 5.1c0 3 .8 5.3 2.3 7 1.5 1.6 3.8 2.5 6.8 2.5 2.6 0 4.7-.7 6.5-2 1.7-1.3 2.9-3.2 3.6-5.6l-3.7-.8zm64.4 7c-.6.6-1.3.9-2.2.9s-1.6-.3-2.2-.9-.9-1.3-.9-2.2.3-1.6.9-2.2 1.3-.9 2.2-.9 1.6.3 2.2.9.9 1.3.9 2.2c0 .8-.3 1.6-.9 2.2m.4-4.7c-.7-.7-1.5-1-2.5-1s-1.8.3-2.5 1-1 1.5-1 2.5.3 1.8 1 2.5 1.5 1.1 2.5 1.1 1.8-.4 2.5-1.1 1.1-1.6 1.1-2.5c-.1-1-.4-1.8-1.1-2.5m-2 2.3c-.1.1-.4.1-.7.1h-.6v-1.4h.6c.4 0 .7 0 .8.1.2.1.3.3.3.6s-.2.5-.4.6m1-.7a1 1 0 0 0-.6-1c-.2-.1-.6-.1-1.1-.1h-1.4v3.9h.7v-1.5h.6c.4 0 .6 0 .8.1s.4.4.4.9v.3.1h0 0 .6 0v-.2-.3-.3c0-.2-.1-.4-.2-.6s-.4-.3-.7-.4c.2 0 .4-.1.6-.2.2 0 .3-.3.3-.7"/></svg>