<?xml version="1.0" encoding="utf-8"?>
<svg version="1.1" id="Layer_1" xmlns="http://www.w3.org/2000/svg" xmlns:xlink="http://www.w3.org/1999/xlink" x="0px" y="0px"
	width="100px" height="100px" viewBox="0 0 100 100" style="enable-background:new 0 0 100 100;" xml:space="preserve">
<g>
	<path style="fill:#E8E8E8;" d="M50,0c27.61,0,50,22.39,50,50s-22.39,50-50,50S0,77.61,0,50S22.39,0,50,0"/>
	<path style="fill:#FFFFFF;" d="M50,1c27.06,0,49,21.94,49,49S77.06,99,50,99S1,77.06,1,50S22.94,1,50,1"/>
	<g>
		<path style="fill:#1A0832;" d="M30.03,52.77h5.96c0,0-1.29,4.43-6.82,4.48c-4.05,0-6.96-3.77-6.96-7.29s3.48-7.06,7.1-7.06
			s5.39,2.24,5.39,2.24l0.67-0.57c0,0-2.19-2.53-6.1-2.48c-3.81,0-7.96,3.34-7.96,7.96s4.15,8.06,7.82,8.06
			c3.77,0,7.58-2.72,7.72-6.15h-6.82V52.77L30.03,52.77z"/>
		<rect x="18.44" y="42.04" style="fill:#1A0832;" width="0.86" height="16.02"/>
		<polygon style="fill:#1A0832;" points="39.38,42.04 38.52,42.04 38.52,57.25 38.52,58.06 38.52,58.06 42.9,58.06 42.9,57.25 
			39.38,57.25 		"/>
		<polygon style="fill:#1A0832;" points="45.43,42.04 44.57,42.04 44.57,42.9 44.57,51.96 44.57,52.77 44.57,57.25 44.57,58.06 
			44.57,58.06 48.96,58.06 48.96,57.25 45.43,57.25 45.43,52.77 48.96,52.77 48.96,51.96 45.43,51.96 45.43,42.9 48.96,42.9 
			48.96,42.04 		"/>
		<path style="fill:#1A0832;" d="M88.3,54.01c-0.19-2.15-0.95-3.1-1.62-4.1c-0.67-1.05-2.1-3-2.29-4.2
			c-0.52-4.1,3.15-2.81,3.19-2.81l0.19-0.76c-1.86-0.62-4.96-0.33-4.2,4.01c0.24,1.43,1.76,3.29,2.34,4.15
			c0.38,0.57,1.29,1.76,1.53,3.81c0.38,3.91-3.67,3.05-3.72,3.05l-0.19,0.86C83.53,57.97,88.77,59.02,88.3,54.01z"/>
		<polygon style="fill:#1A0832;" points="68.89,56.87 62.12,42.04 61.21,42.04 68.51,58.11 69.27,58.11 76.61,42.04 75.66,42.04 		
			"/>
		<polygon style="fill:#1A0832;" points="78.52,42.04 77.66,42.04 77.66,42.04 77.66,42.9 77.66,51.96 77.66,52.77 77.66,57.25 
			77.66,58.06 78.52,58.06 82.05,58.06 82.05,57.25 78.52,57.25 78.52,52.77 82.05,52.77 82.05,51.96 78.52,51.96 78.52,42.9 
			82.05,42.9 82.05,42.04 		"/>
		<polygon style="fill:#1A0832;" points="11.67,42.04 11.67,42.09 11.67,42.9 11.67,51.96 11.67,52.77 11.67,58.11 12.53,58.11 
			12.53,52.77 16.01,52.77 16.01,51.96 12.53,51.96 12.53,42.9 16.06,42.9 16.06,42.04 		"/>
		<path style="fill:#1A0832;" d="M57.83,42.04l-7.29,16.07h0.95l2.43-5.29h8.68l2.43,5.29h0.95l-7.34-16.07L57.83,42.04L57.83,42.04
			z M54.25,51.96l3.96-8.68l3.96,8.68H54.25z"/>
	</g>
</g>
</svg>
