<?xml version="1.0" encoding="utf-8"?>
<svg version="1.1" id="Layer_1" xmlns="http://www.w3.org/2000/svg" xmlns:xlink="http://www.w3.org/1999/xlink" x="0px" y="0px"
	width="100px" height="100px" viewBox="0 0 72.2 72.2" style="enable-background:new 0 0 72.2 72.2;" xml:space="preserve">
<g>
	<circle style="fill:#E8E8E8;" cx="36.1" cy="36.1" r="36.1"/>
	<circle style="fill:#FFFFFF;" cx="36.1" cy="36.1" r="35.4"/>
	<path style="fill:#010101;" d="M39,30.4c0.6-0.8,1-1.1,1-1.1c-0.2,0-0.6,0-1.3,0.1c0-0.6-0.1-1.2-0.1-1.2c-0.3,0.4-0.5,0.9-0.8,1.3
		l0,0c-1.2,0.4-1.8,0.9-1.8,0.9c0.4,0,0.9,0.1,1.3,0.2l-0.8,2l1.7-1.7c0.6,0.3,1.1,0.6,1.1,0.6S39,30.4,39,30.4z M34.1,30.8
		c0.4-0.6,0.6-0.7,0.6-0.7c-0.1,0-0.4,0-0.9,0.1l-0.1-0.8c-0.1,0.2-0.3,0.6-0.4,0.9l0,0c-0.7,0.2-1.2,0.6-1.2,0.6
		c0.3,0,0.6,0,0.9,0.1l-0.4,1.4l1-1.2l0.7,0.4C34.3,31.7,34.1,30.8,34.1,30.8z M27.9,32.3c0.2-0.4,0.4-0.5,0.4-0.5
		c-0.1,0-0.3,0-0.6,0.1l-0.1-0.5c-0.1,0.1-0.2,0.4-0.3,0.6c-0.5,0.1-0.7,0.4-0.7,0.4c0.2,0,0.4,0,0.6,0.1l-0.3,0.9l0.6-0.8
		c0.3,0.1,0.5,0.3,0.5,0.3L27.9,32.3C27.9,32.3,27.9,32.3,27.9,32.3z M31,32.3c0.3-0.4,0.5-0.6,0.5-0.6c-0.1,0-0.4,0-0.7,0.1
		L30.7,31c-0.1,0.2-0.3,0.5-0.4,0.8c-0.6,0.2-1,0.6-1,0.6c0.2,0,0.5,0,0.7,0.1l-0.4,1.2c0.3-0.3,0.7-0.8,0.9-1
		c0.4,0.1,0.6,0.4,0.6,0.4S31,32.3,31,32.3z M36,28.1c0.3-0.4,0.5-0.6,0.5-0.6c-0.1,0-0.4,0-0.7,0.1l-0.1-0.6
		c-0.1,0.2-0.3,0.5-0.4,0.8c-0.6,0.2-1,0.6-1,0.6c0.2,0,0.5,0,0.7,0.1l-0.4,1.2c0.3-0.3,0.7-0.8,0.9-1c0.4,0.1,0.6,0.4,0.6,0.4
		L36,28.1C36,28.1,36,28.1,36,28.1z"/>
	<g>
		<path id="B" style="fill:#E03535;" d="M33.2,37.6c0,0-0.4,0.1-0.6,0.1c-0.2,0-0.5-0.1-0.6-0.6c-0.1-0.4,0.1-0.4,0.4-0.4
			c0.4,0,0.9-0.3,1.2-0.4c0.4-0.1,0.7-0.1,0.9,0.2c0.2,0.4-0.1,0.7-0.3,1c-0.1,0.1-0.1,0.2,0.1,0.1s0.7-0.6,1.4-0.8
			c0.6-0.2,0.9,0,1,0.5c0.1,0.4-0.2,1.2-0.4,1.5c0,0.1-0.1,0.1,0,0.1c0,0,0.1,0,0.1-0.1l0.8-0.7c0.1-0.1,0.9-0.7,1.2,0.1l0.9,2.5
			c0.3,0.6,0.6,0.9,0.6,1c0.1,0.1,0.4,0.6,0.1,0.8c-0.3,0.2-1.4-0.1-1.8-1.5l-0.5-1.4c-0.1-0.1-0.1-0.4-0.8,0.2
			c-0.4,0.4-0.8,0.8-1.2,1.3l-0.6,0.9c-0.1,0.1-0.4,0.6-0.8-0.1c-0.4-0.7-0.1-1.2,0.1-1.7s0.4-1,0.5-1.2c0.1-0.2,0.1-0.6-0.5-0.2
			c-0.7,0.5-1.5,1.2-2.1,1.9c-0.4,0.5-0.6,0.7-0.8,0.9c-0.1,0.1-0.6,0.4-0.6-0.4c-0.1-0.9,0.1-0.9,0.4-1.3
			C32,39.3,33.3,37.7,33.2,37.6"/>
	</g>
	<g>
		<g>
			<path id="B_1_" style="fill:#E21D38;" d="M33.2,37.6c0,0-0.4,0.1-0.6,0.1c-0.2,0-0.5-0.1-0.6-0.6c-0.1-0.4,0.1-0.4,0.4-0.4
				c0.4,0,0.9-0.3,1.2-0.4c0.4-0.1,0.7-0.1,0.9,0.2c0.2,0.4-0.1,0.7-0.3,1c-0.1,0.1-0.1,0.2,0.1,0.1s0.7-0.6,1.4-0.8
				c0.6-0.2,0.9,0,1,0.5c0.1,0.4-0.2,1.2-0.4,1.5c0,0.1-0.1,0.1,0,0.1c0,0,0.1,0,0.1-0.1l0.8-0.7c0.1-0.1,0.9-0.7,1.2,0.1l0.9,2.5
				c0.3,0.6,0.6,0.9,0.6,1c0.1,0.1,0.4,0.6,0.1,0.8c-0.3,0.2-1.4-0.1-1.8-1.5l-0.5-1.4c-0.1-0.1-0.1-0.4-0.8,0.2
				c-0.4,0.4-0.8,0.8-1.2,1.3l-0.6,0.9c-0.1,0.1-0.4,0.6-0.8-0.1c-0.4-0.7-0.1-1.2,0.1-1.7s0.4-1,0.5-1.2c0.1-0.2,0.1-0.6-0.5-0.2
				c-0.7,0.5-1.5,1.2-2.1,1.9c-0.4,0.5-0.6,0.7-0.8,0.9c-0.1,0.1-0.6,0.4-0.6-0.4c-0.1-0.9,0.1-0.9,0.4-1.3
				C32,39.3,33.3,37.7,33.2,37.6"/>
		</g>
		<path style="fill:#E21D38;" d="M57.6,33.3c0,0,1-1.4,2.8-1.4c0.9,0,1.2,0.7,1.1,1.2c-0.1,0.3-0.2,0.5-0.4,0.6
			c-0.4,0.4-1.5,0.4-1.5-0.5c0,0-0.2-0.1-0.9,0.4c-0.7,0.5-0.9,1-0.6,1.1c0.2,0.1,0.5,0.1,1.5-0.1c1-0.1,1.6,0.2,1.7,0.6
			c0.1,0.3,0.4,1.2-0.8,2.3c-0.9,0.8-1.2,1-2,1.4c-0.7,0.4-1.3,0.5-1.6,0.6c-0.3,0-0.7-0.1-0.7-0.5s0.2-0.5,0.6-0.6
			c0.4-0.1,1.4-0.5,2.4-1.3c0.9-0.8,1.2-1.4,0.3-1.3c-0.9,0.1-1.5,0.4-2.2-0.1C56.6,35.1,57.2,33.8,57.6,33.3 M28.8,30.2
			c-1.8-0.4-3.7,0.1-5.4,0.8c0.4-1.8,1.7-4.5,2.2-5.6c0.6-1,0.7-1.3,0.8-1.6c0.1-0.4,0.3-0.8,0.4-1.2c0.1-0.2,0-0.6-0.5,0
			c-0.6,0.6-0.9,0.8-2.1,2.7c-1.1,1.7-1.9,4.1-2.4,6.3c-1.7,1-3.4,2.2-4.9,3.5l0.6-4c0.4-2.3,0.2-2.2-0.4-3c-0.5-0.6-0.8,0-0.9,0.6
			s-0.8,4.9-0.9,6l-0.1,1.9c-2.5,1.9-3.1,2-3.6,2.2c-0.4,0.1-0.6,0.1-0.8,0.1c-0.1,0-0.1,0.1-0.1,0.2c0.6,0.9,1.7,0.7,2.3,0.6
			c0.6-0.1,0.6-0.1,1.8-0.9c0.1-0.1,0.2-0.1,0.3-0.2c-0.1,0.9-0.1,1.9-0.1,3c0,3,1.6,4.8,1.9,4.8s-0.1-0.6-0.3-1.3
			c-0.4-1.2-0.3-3.5-0.1-5.5l0.2-2.3l4.7-4l0.2-0.2c-0.1,0.4-0.1,0.7-0.1,1.1c-0.3,2.3-0.4,6.2-0.3,7.9c0.1,1.7,0.4,2.6,1.2,2.6
			c0.9-0.1,0.6-1.7,0.6-2.7c-0.3-3.4,0.1-7.8,0.4-10.1c2.2-1.4,3.8-1.4,4.3-1.5c0.6-0.1,1.6,0.1,1.7-0.1
			C29.3,30.3,28.8,30.2,28.8,30.2 M44.3,39.8c0.2,0.1,0.4,0.1,0.4,0.1s0-1.2,0.6-2.4c0.6-1.2,1.7-1.4,2.4-1.1c0.7,0.3,1,1.4,0.8,2.3
			c-0.2,1.1-0.7,2.2-2.4,2c0,0,0,1.1,0.9,1c0.8-0.1,1.4-0.8,1.8-1.4c0.3-0.4,0.4-0.7,0.6-0.6c0.1,0.1,0.2,0.7-0.1,1.5
			c-0.3,0.6-1.2,1.4-2.5,1.5c-1.3,0.1-1.9-0.9-2-2.2c0,0-1.3-0.4-1-0.9C43.9,39.5,44.2,39.8,44.3,39.8 M47.1,37.5
			c-0.4-0.1-0.6,0.5-0.8,1.1c-0.1,0.6-0.2,1.4,0.1,1.4c0.2,0.1,0.6-0.6,0.9-1.3C47.3,38.3,47.5,37.6,47.1,37.5 M50.4,35.8
			c0-0.2,0-1.1,0.9-0.7c0.8,0.3,0.6,1.6,0.6,1.9l-0.1,1c0,0.1-0.1,0.9,0.6,0.1c0.6-0.8,1.3-1.8,1.5-2.6c0.2-0.9,0.3-1.1,0.9-1.2
			c0.6-0.1,0.7,0.1,0.6,0.9l-0.9,4.3l-1,4.9c-0.2,0.9-0.5,2-0.8,2.9c-0.3,0.7-1.1,2.5-1.6,2.5c-0.5,0,0.3-0.9,0.6-2.5
			c0.4-1.7,0.6-2.6,0.7-3.5c0.1-0.9,0.2-1.3,0.4-2l0.5-3.4c0,0-0.9,1.2-1.6,1.7c-0.6,0.4-1.1,0.3-1.2-0.5
			C50.5,38.7,50.4,37,50.4,35.8 M42.4,28.4c0.1-0.6,0.1-1.4,0.4-1.7c0.2-0.3,1.2-0.1,1.3,1c0.1,1.2-0.2,2.6-0.4,3.3L43,34.8
			c-0.2,1.4-0.4,2.8-0.6,4.3c-0.1,1.1-0.1,2.2,0.4,3.5c0.3,0.6,0.2,0.9,0,0.9c-0.4,0.1-0.9-1-1.1-1.7c-0.4-1.3-0.4-2.1-0.5-3
			c-0.1-1.4,0.1-2.3,0.2-3.5C41.6,34,42.1,30.9,42.4,28.4 M24.6,37.2c0.4-0.8,1.1-1.6,2.5-2.2c1.3-0.6,1.9-0.6,2.2-0.3
			c0.3,0.5,0,0.9-1.2,1.3c-1.4,0.5-2.7,1.7-2.4,2.5C26,39,27.2,38,28,37.2c0.7-0.9,1.4-1.2,1.9-0.8c0.4,0.3,0.1,0.8-0.1,1.8
			c-0.3,0.8,0.1,1,0.3,0.9c0.2-0.1,0.4-0.1,0.3,0.3c0,0.4-0.6,1.1-1.3,0.7c-0.7-0.4-0.3-1.7-0.3-1.9c0-0.1,0.1-0.6-0.4,0
			c-0.4,0.6-1.5,1.8-2.7,1.7C24.7,39.9,23.7,38.9,24.6,37.2"/>
	</g>
</g>
</svg>
