<?xml version="1.0" encoding="utf-8"?>
<svg version="1.1" id="Layer_1" xmlns="http://www.w3.org/2000/svg" xmlns:xlink="http://www.w3.org/1999/xlink" x="0px" y="0px"
	width="100px" height="100px" viewBox="0 0 100 100" style="enable-background:new 0 0 100 100;" xml:space="preserve">
<g>
	<path style="fill:#E8E8E8;" d="M50,0c27.6,0,50,22.4,50,50s-22.4,50-50,50S0,77.6,0,50S22.4,0,50,0"/>
	<path style="fill:#FFFFFF;" d="M50,1c27.1,0,49,21.9,49,49S77.1,99,50,99S1,77.1,1,50S22.9,1,50,1"/>
	<g>
		<path style="fill:#FF594B;" d="M12.9,43.8c0.7,0,1.3-0.6,1.3-1.3c0-0.7-0.6-1.3-1.3-1.3c-0.7,0-1.3,0.6-1.3,1.3
			C11.6,43.2,12.2,43.8,12.9,43.8z"/>
		<path style="fill:#FF594B;" d="M14.4,52.6c-0.4,0-0.7-0.2-0.7-0.6V46c0-0.2-0.2-0.4-0.4-0.4h-1.1c-0.2,0-0.4,0.2-0.4,0.4
			c0,0,0,6.2,0,6.2c0,1.6,0.8,2.3,2,2.3c0.3,0,0.5,0,0.7-0.1c0.1,0,0.2-0.2,0.2-0.3v-1.2C14.8,52.7,14.6,52.6,14.4,52.6z"/>
		<path style="fill:#FF594B;" d="M28.3,45.6h-1.2c-0.2,0-0.3,0.1-0.4,0.3l-1.8,5.8L23,45.9c-0.1-0.2-0.2-0.3-0.4-0.3h-0.9
			c-0.2,0-0.3,0.1-0.4,0.3l-1.9,5.8l-1.8-5.8c-0.1-0.2-0.2-0.3-0.4-0.3h-1.2c-0.3,0-0.5,0.3-0.4,0.6l2.7,8c0.1,0.2,0.2,0.3,0.4,0.3
			h1.2c0.2,0,0.3-0.1,0.4-0.3l1.8-5.4l1.8,5.4c0.1,0.2,0.2,0.3,0.4,0.3h1.2c0.2,0,0.3-0.1,0.4-0.3l2.7-8
			C28.8,45.9,28.6,45.6,28.3,45.6z"/>
		<path style="fill:#FF594B;" d="M34.3,45.4c-2.6,0-4.6,2-4.6,4.6c0,2.6,2,4.6,4.6,4.6c2.6,0,4.6-2,4.6-4.6
			C38.9,47.4,36.9,45.4,34.3,45.4z M34.3,52.8c-1.6,0-2.7-1.2-2.7-2.8c0-1.6,1.1-2.8,2.7-2.8c1.6,0,2.7,1.2,2.7,2.8
			C36.9,51.6,35.8,52.8,34.3,52.8z"/>
		<path style="fill:#FF594B;" d="M44.8,47.2c0.9,0,1.7,0.5,2.2,1.2c0.1,0.2,0.3,0.2,0.5,0.1l1.1-0.4c0.1-0.1,0.2-0.2,0.2-0.4
			c0-0.1,0-0.1-0.1-0.2c0,0-1.1-2-3.9-2c-2.7,0-4.7,2-4.7,4.6c0,2.6,2,4.6,4.7,4.5c2.7,0,3.9-2,3.9-2c0-0.1,0.1-0.1,0.1-0.2
			c0-0.2-0.1-0.3-0.2-0.4l-1.1-0.4c-0.2-0.1-0.4,0-0.5,0.1c-0.5,0.7-1.2,1.2-2.2,1.2c-1.5,0-2.7-1.3-2.7-2.8
			C42.1,48.4,43.2,47.2,44.8,47.2z"/>
		<path style="fill:#FF594B;" d="M87,37.5H64.8c-0.8,0-1.4,0.6-1.4,1.4v22.2c0,0.8,0.6,1.4,1.4,1.4h22.3c0.8,0,1.4-0.6,1.3-1.4V38.9
			C88.4,38.1,87.8,37.5,87,37.5z M85.5,59.6H66.3V40.4l19.1,0V59.6z"/>
		<path style="fill:#FF594B;" d="M78.3,53.6l2.4,1c0.2,0.1,0.4,0,0.4-0.2v-8.6c0-0.2-0.2-0.3-0.4-0.2l-2.4,1c-0.1,0-0.2,0.1-0.2,0.3
			v6.6C78.1,53.4,78.2,53.5,78.3,53.6z"/>
		<path style="fill:#FF594B;" d="M71.1,54.5l2.4-1c0.1,0,0.2-0.1,0.2-0.2v-6.6c0-0.1-0.1-0.2-0.2-0.3l-2.4-1
			c-0.2-0.1-0.4,0.1-0.4,0.2v8.6C70.8,54.5,70.9,54.6,71.1,54.5z"/>
		<path style="fill:#FF594B;" d="M59.6,52.6c-0.4,0-0.6-0.2-0.7-0.6V46c0-0.2-0.2-0.4-0.4-0.4h-1.1c-0.2,0-0.4,0.2-0.4,0.4v0.4
			c-0.6-0.6-1.5-1-2.5-1c-2.6,0-4.4,2.1-4.4,4.6c0,2.5,1.8,4.6,4.4,4.6c1,0,1.9-0.2,3-1.4c0.2,0.8,0.8,1.3,1.6,1.3
			c0.3,0,0.5,0,0.7-0.1c0.1,0,0.2-0.2,0.2-0.3v-1.2C59.9,52.7,59.8,52.6,59.6,52.6z M54.8,52.9c-1.6,0-2.7-1.4-2.6-3
			c0.1-1.6,1.5-2.8,3.1-2.6c0.9,0.1,1.4,0.6,1.9,1.2l0,3.2C56.6,52.3,55.8,52.8,54.8,52.9z"/>
	</g>
</g>
</svg>
