<?xml version="1.0" encoding="utf-8"?>
<svg version="1.1" id="Layer_1" xmlns="http://www.w3.org/2000/svg" xmlns:xlink="http://www.w3.org/1999/xlink" x="0px" y="0px"
	width="100px" height="100px" viewBox="0 0 100 100" style="enable-background:new 0 0 100 100;" xml:space="preserve">
<g>
	<path style="fill:#E8E8E8;" d="M50,0c27.61,0,50,22.39,50,50s-22.39,50-50,50S0,77.61,0,50S22.39,0,50,0"/>
	<path style="fill:#FFFFFF;" d="M50,1c27.06,0,49,21.94,49,49S77.06,99,50,99S1,77.06,1,50S22.94,1,50,1"/>
	<path d="M27.11,45.77l-0.39-0.8h-7.89v6.26h4.63l0.59,1.08l0.12,0.19l-0.16-0.19l-0.65-0.8h-4.53v6.49l-1.22,0.49l-0.58,0.23
		l-1.54,0.64h6.75c0,0-1.57-0.15-1.93-1.75v-4.68l-0.14-0.12l-0.78-0.81l0.92,0.69l0.16,0.12h2.58c1.73,0,1.96,1,1.96,1v-4.9
		c0,0-0.23,1.01-1.96,1.01h-2.57l-0.16,0.12l-0.92,0.69l0.78-0.81l0.14-0.15v-3.42l-0.92-0.95l1.11,0.84h6.03
		c0.39,0.07,0.77,0.22,1.11,0.43l-0.23-0.43L27.11,45.77z"/>
	<path d="M17.03,45.14v4.79c-0.08,0.72-0.61,1.31-1.31,1.45c0.53,0.11,0.97,0.47,1.2,0.96l0.12-1.18v6.45
		c-0.07,0.38-0.24,0.72-0.5,1l0.5-0.2l0.58-0.23l0.89-0.35V44.69h8.43l0.55,1.08l0.26,0.51l0.72,1.37V43.4H15.09
		C15.09,43.4,16.66,43.53,17.03,45.14"/>
	<path d="M32.6,45.14v4.79c-0.08,0.72-0.61,1.31-1.31,1.45c0.53,0.12,0.96,0.47,1.19,0.96l0.12-1.18v6.45
		c-0.07,0.38-0.24,0.72-0.5,1l0.5-0.2l0.58-0.23l0.89-0.35v-13h0.32v13.19l-1.22,0.49l-0.58,0.23l-1.54,0.64h6.74
		c0,0-1.57-0.14-1.93-1.75v-4.76c0.08-0.73,0.62-1.33,1.34-1.46c0,0-0.85-0.14-1.2-0.95l-0.13,1.18v-6.48
		c0.36-1.61,1.93-1.73,1.93-1.73h-7.14C30.67,43.4,32.24,43.53,32.6,45.14"/>
	<path d="M57.31,50.57c-0.42-4.03-4.07-7.17-8.48-7.17c-4.36,0-7.92,3.03-8.46,6.97c0,0.07-0.03,0.11-0.03,0.16
		c-0.01,0.35,0.01,0.7,0.07,1.06c-0.04-0.12-0.08-0.26-0.12-0.39c-0.04-0.16-0.07-0.31-0.09-0.43c-0.23,0.31-0.56,0.51-0.92,0.6
		c0.46,0.11,0.84,0.42,1.05,0.84c0.45,3.99,4.07,7.12,8.47,7.12s8.01-3.11,8.48-7.12v-0.01c0.03-0.38,0-0.76-0.07-1.12
		c0.04,0.12,0.07,0.24,0.12,0.36c0.04,0.19,0.07,0.37,0.12,0.51c0.23-0.28,0.54-0.49,0.89-0.57C57.91,51.26,57.54,50.98,57.31,50.57
		 M48.82,58.02c-3.9,0-7.08-2.98-7.08-6.67c0-3.67,3.18-6.67,7.06-6.67s7.05,2.99,7.05,6.67C55.87,55.04,52.72,58.02,48.82,58.02"/>
	<path d="M48.82,44.97c-3.71,0-6.75,2.88-6.75,6.38c0,3.53,3.03,6.39,6.75,6.39s6.72-2.87,6.72-6.39
		C55.56,47.84,52.53,44.97,48.82,44.97 M53.99,50.33c0.1,0.41,0.13,0.81,0.13,1.22c-0.01-0.05-0.03-0.11-0.03-0.16
		c-0.05-0.26-0.12-0.5-0.2-0.76c-0.19,0.36-0.53,0.64-0.92,0.73c0.51,0.1,0.92,0.5,1.01,1.01c-0.5,2.3-2.63,4.06-5.15,4.06
		c-2.46,0-4.56-1.65-5.11-3.87c-0.03-0.05-0.04-0.12-0.04-0.19c-0.09-0.4-0.14-0.83-0.14-1.24c0,0.07,0.01,0.12,0.03,0.19
		c0.04,0.26,0.11,0.5,0.2,0.73c0.18-0.37,0.51-0.62,0.89-0.69c-0.07-0.01-0.85-0.23-0.99-1.04c0.49-2.3,2.6-4.06,5.15-4.06
		c2.41,0,4.47,1.6,5.09,3.77C53.92,50.05,53.95,50.16,53.99,50.33"/>
	<path d="M74.53,48.42c0-2.77-2.53-5.02-5.67-5.02h-9.15c0,0,1.57,0.12,1.93,1.73v4.79c-0.07,0.72-0.59,1.31-1.3,1.45
		c0.53,0.11,0.96,0.47,1.18,0.96l0.14-1.18v6.46c-0.07,0.42-0.27,0.8-0.58,1.1l0.58-0.23l0.58-0.2l0.89-0.33V44.68h5.74
		c2.33,0,4.19,1.68,4.19,3.73c0,1.53-1.04,2.85-2.53,3.42c-0.5,0.18-1.03,0.27-1.57,0.28l0.96,1.2l3.91,4.95l-1.35,0.47l-0.36,0.12
		l-1.44,0.49h1.8v-0.04l0.03,0.04h3.99l-5.13-6.45C73.23,52.09,74.53,50.37,74.53,48.42"/>
	<path d="M68.89,51.85c0.49,0,0.97-0.08,1.43-0.24c1.43-0.51,2.42-1.76,2.42-3.18c0-1.89-1.73-3.45-3.87-3.45h-5.41v6.87h5.41H68.89
		z M63.93,51.37l0.99-1.01v-3.88l-0.99-1.01l1.08,0.84h3.84c1.34,0,2.42,0.96,2.42,2.14c0,1.18-1.08,2.14-2.42,2.14h-3.84
		L63.93,51.37z"/>
	<path d="M67.8,53.43l3.65,4.61c0.19,0.31,0.2,0.53,0.12,0.69l0.35-0.11l0.56-0.2l0.85-0.28l-3.77-4.75l-0.99-1.26h-5.11v6.03
		l-1.22,0.43l-0.58,0.23l-1.49,0.56h6.7c0,0-1.57-0.13-1.93-1.74v-4.05l-0.99-1.01l1.12,0.88h2.73V53.43z"/>
	<path d="M82.96,57.61v-4.76c0.08-0.73,0.62-1.33,1.34-1.46c-0.53-0.09-0.97-0.45-1.19-0.95l-0.13,1.18v-6.48
		c0.36-1.61,1.93-1.73,1.93-1.73h-7.14c0,0,1.57,0.12,1.93,1.73v4.79c-0.08,0.72-0.61,1.31-1.31,1.45c0.53,0.12,0.96,0.47,1.2,0.96
		l0.12-1.18v6.45c-0.07,0.38-0.24,0.72-0.5,1l0.5-0.2l0.58-0.23l0.89-0.35v-13h0.33v13.19l-1.22,0.49l-0.58,0.23l-1.54,0.64h6.74
		C84.89,59.37,83.34,59.23,82.96,57.61"/>
	<path style="fill:#B79888;" d="M66.78,36.14c0,0.38-0.31,0.7-0.69,0.7h-0.01c-0.31,0-0.58-0.2-0.68-0.5H34.87
		c-0.09,0.3-0.38,0.5-0.69,0.5c-0.38,0-0.69-0.31-0.69-0.69s0.31-0.69,0.69-0.69c0.31-0.01,0.6,0.19,0.69,0.49h3.44l3.14-2.94
		l1.46,1.38l2.79-2.58l1.6,1.49l2.84-2.81l2.84,2.8l1.6-1.49l2.77,2.63l1.53-1.41l3.11,2.92h3.42c0.12-0.36,0.53-0.57,0.89-0.45
		C66.57,35.6,66.76,35.86,66.78,36.14 M34.47,36.14c0-0.15-0.12-0.28-0.27-0.28h-0.01c-0.16,0-0.28,0.12-0.28,0.28
		c0,0.16,0.12,0.28,0.28,0.28c0.15,0,0.28-0.11,0.28-0.27V36.14z M38.89,35.95h2.35l1.38-1.27l-1.18-1.1L38.89,35.95z M42.91,34.95
		l-1.07,1h2.12L42.91,34.95z M43.22,34.68l1.35,1.27h2.08v-2.02l0.35-0.35l-1.31-1.22L43.22,34.68z M47.05,35.54l3.08-3.03
		l3.06,3.04V34.1l-3.06-3.02l-3.08,3.02V35.54z M51.46,35.94h1.56l-2.88-2.83l-2.88,2.84h1.56l1.33-1.31L51.46,35.94z M50.14,35.21
		l-0.73,0.75h1.46L50.14,35.21z M53.26,33.57l0.35,0.37v2.02h2.08l1.35-1.25l-2.49-2.34L53.26,33.57z M57.33,34.99l-1.04,0.96h2.06
		L57.33,34.99z M57.64,34.71l1.31,1.25h2.41l-2.5-2.35L57.64,34.71z M66.36,36.14c0-0.16-0.12-0.28-0.28-0.3
		c-0.16,0-0.28,0.12-0.3,0.28c0,0.16,0.12,0.28,0.28,0.3h0.01C66.22,36.42,66.36,36.3,66.36,36.14"/>
	<path d="M31.9,67.09c0-0.26-0.09-0.51-0.28-0.7c-0.23-0.23-0.58-0.35-1-0.35H29.1v3.41h0.51v-1.27h0.85l0.97,1.27h0.64l-1.06-1.37
		C31.59,67.96,31.9,67.59,31.9,67.09 M29.61,67.72v-1.19h0.97c0.5,0,0.78,0.22,0.78,0.58c0,0.38-0.31,0.62-0.8,0.62h-0.96V67.72z"/>
	<polygon points="34.06,67.97 35.9,67.97 35.9,67.51 34.06,67.51 34.06,66.51 36.12,66.51 36.12,66.05 33.55,66.05 33.55,69.46 
		36.15,69.46 36.15,69 34.06,69 	"/>
	<path d="M39.03,67.51c-0.73-0.15-0.85-0.31-0.85-0.57c0-0.29,0.27-0.47,0.65-0.47c0.34,0,0.68,0.12,0.93,0.34l0.06,0.04l0.3-0.39
		l-0.06-0.04c-0.34-0.28-0.78-0.43-1.23-0.42c-0.68,0-1.18,0.41-1.18,0.96c0,0.64,0.47,0.87,1.19,1.01c0.72,0.15,0.83,0.3,0.83,0.56
		c0,0.3-0.27,0.5-0.69,0.5c-0.43,0-0.74-0.14-1.11-0.45l-0.05-0.04l-0.32,0.38l0.05,0.04c0.38,0.35,0.89,0.56,1.42,0.54
		c0.72,0,1.22-0.41,1.22-1C40.18,67.99,39.84,67.69,39.03,67.51"/>
	<polygon points="41.48,66.53 42.6,66.53 42.6,69.46 43.13,69.46 43.13,66.53 44.26,66.53 44.26,66.05 41.48,66.05 	"/>
	<path d="M46.64,66.03l-1.6,3.44h0.54L46,68.6h1.74l0.39,0.87h0.56l-1.6-3.44H46.64z M46.18,68.14l0.66-1.45l0.66,1.45H46.18z"/>
	<path d="M52.39,68.03c0,0.66-0.34,1.01-0.95,1.01c-0.61,0-0.96-0.38-0.96-1.04v-1.95h-0.51v1.98c0,0.92,0.57,1.49,1.47,1.49
		c0.91,0,1.47-0.57,1.47-1.51v-1.95h-0.51v1.98H52.39z"/>
	<path d="M57.44,67.09c0-0.26-0.09-0.51-0.28-0.7c-0.23-0.23-0.58-0.35-1-0.35h-1.51v3.41h0.51v-1.27h0.87l0.97,1.27h0.64
		l-1.06-1.37C57.12,67.96,57.44,67.59,57.44,67.09 M55.15,67.73v-1.2h0.97c0.5,0,0.8,0.22,0.8,0.58c0,0.37-0.31,0.62-0.8,0.62H55.15
		z"/>
	<path d="M60.36,66.03l-1.6,3.44h0.54l0.41-0.87h1.74l0.39,0.87h0.55l-1.6-3.44H60.36z M59.9,68.14l0.66-1.45l0.66,1.45H59.9z"/>
	<polygon points="66.34,68.55 64.31,66.05 63.85,66.05 63.85,69.46 64.37,69.46 64.37,66.89 66.44,69.46 66.84,69.46 66.84,66.05 
		66.34,66.05 	"/>
	<polygon points="68.39,66.05 68.39,66.53 69.52,66.53 69.52,69.46 70.04,69.46 70.04,66.53 71.17,66.53 71.17,66.05 	"/>
</g>
</svg>
