<?xml version="1.0" encoding="utf-8"?>
<svg version="1.1" id="Layer_1" xmlns="http://www.w3.org/2000/svg" xmlns:xlink="http://www.w3.org/1999/xlink" x="0px" y="0px"
	width="100px" height="100px" viewBox="0 0 100 100" style="enable-background:new 0 0 100 100;" xml:space="preserve">
<g>
	<g>
		<path style="fill:#E8E8E8;" d="M50,0c27.61,0,50,22.39,50,50s-22.39,50-50,50S0,77.61,0,50S22.39,0,50,0"/>
		<path style="fill:#FFFFFF;" d="M50,1c27.06,0,49,21.94,49,49S77.06,99,50,99S1,77.06,1,50S22.94,1,50,1"/>
	</g>
	<g>
		<g>
			<path style="fill:#273B7D;" d="M43.26,66.7H34.8V56.58c0-2.16,0.83-3.32,2.69-3.55h5.81c3.47-0.29,6.52,2.3,6.8,5.77
				c0.03,0.35,0.03,0.7,0,1.05c0,4.31-2.61,6.89-6.8,6.89L43.26,66.7z M34.79,39.34v-2.65c0-2.32,1-3.45,3.15-3.58h4.35
				c3.72,0,5.97,2.22,5.97,5.97c0,2.82-1.53,6.14-5.81,6.14h-7.63L34.79,39.34z M54.1,49.46l-1.53-0.86l1.33-1.16
				c1.56-1.33,4.15-4.35,4.15-9.54c0-7.96-6.17-13.11-15.71-13.11H30.22c-2.84,0.1-5.1,2.42-5.13,5.26v45.13h17.45
				C53.17,75.18,60,69.4,60,60.44c0-4.81-2.21-8.96-5.94-11.03"/>
			<path style="fill:#499FDD;" d="M62.76,69.12c0-3.37,2.7-6.09,6.06-6.09c3.36,0,6.09,2.73,6.09,6.09c0,3.37-2.72,6.09-6.09,6.09
				S62.76,72.49,62.76,69.12"/>
		</g>
	</g>
</g>
</svg>
