<svg xmlns="http://www.w3.org/2000/svg" viewBox="0 0 389.1 181"><path d="M57.9.3C30.4 4.1 5.2 33.9.7 68.3c-3.3 25.3 5.1 42 21.4 42.4 4.2.1 6.8 0 6.8-.3 0-.5-5.4-3.3-7.5-3.9-13.5-4-18-24.9-11.1-52.2C18.2 23 42.9.5 64.9 4.4c16.8 3 22.8 19.5 17.2 47.6-1.6 7.8-3.6 15-10.8 37.6-8.5 26.7-8.8 36.2-1.9 55.5 2.1 5.8 2.5 6 4.9 1.5 17.8-34 36.3-64.6 48.6-80.3C137.4 47.8 164.4 23 170.2 23c.6 0 5.7-4.2 6-4.9.5-1.3-7.2.6-12.1 3.1C134.9 36 95.4 87.3 74.7 137.1c-2.8 6.7-3.3 6.5-2.9-1 .4-6.8 1.8-12.3 8.2-32.9l3.2-10.4c.3-1.1 2.1-6.7 3.9-12.4 5.3-16.7 7.1-25.6 7.1-37C94.5 15 79.6-2.6 57.9.3m283.8 23c-11.6 3.2-24.8 20.9-47.3 63.4-5.7 10.7-9.7 17.9-12 21.6-.8 1.2-1.9 3.1-2.6 4.2-5 8.3-18.8 21.8-27.4 26.8-7.6 4.5-15.4 4.6-16.8.3-3.6-11 17.6-43 32.1-48.4 2.6-1 8-1.8 9.3-1.5.9.2 7-2.4 7-3 0-2.9-18.4-1.6-26.6 1.9-13.5 5.8-29.3 22-29.4 30.2 0 3.9-23.3 23.9-27.7 23.9-4.1 0-2.9-3.3 7.8-21.1 9.6-15.9 11-20.7 8.3-27.8-4.5-11.7-14.3-9.4-31.5 7.5l-6.5 6.4 3.6-7.4 4.6-9.4c1.2-2.4 1.2-2.5-1.9-1.9-7.8 1.5-11.2 4.6-19.2 17.4-10.6 16.8-28.7 32.1-41.3 34.9-10.9 2.4-14.4-1.2-10.4-10.7 3.4-8.1 4.3-9.6 6.5-10.2 5-1.3 16.9-6.9 22.3-10.4 17.7-11.4 16.7-26.6-1.4-22.7-26.6 5.7-47.6 37.3-35.2 53 7.9 10 24.7 6.8 42.7-8.1 2-1.7 3.7-3 3.7-2.8 0 .1-1.6 3.3-3.6 7.1s-3.6 7-3.6 7.2c0 .1 3.3.3 7.4.3h7.4l4.6-9c8.5-16.4 10.7-19.4 24.2-32.4 11.6-11.2 16.4-14.1 19.5-12 1.9 1.3 2 1.2-7.5 17l-8.1 13.6c-8.5 14.9-.3 30 12.7 23.5 3.7-1.9 7.5-4.9 14.6-11.8l5.8-5.7.2 3.5c.8 11 6.4 16.5 16.2 16 7.2-.3 14.1-4.2 26-14.6l2.2-1.9-3.7 7.1-3.7 7.3c0 .1 3.3.2 7.4.2h7.4l2.5-4.7c4.8-9 8.7-15 16-23.9 16.8-20.9 26.9-29 29.2-23.4.7 1.7-.5 4-8.8 17.5-11.5 18.5-13.2 26.7-6.8 33.3 6.2 6.4 13.5 3.6 28.5-10.8l3.7-3.5-.1 3.2c-.4 8.4 4.8 15.8 10.4 14.9 5.7-.8 17.4-10.4 24.3-19.8 3.1-4.2 3-3.9 1.3-4.6-2-.8-1.7-1-4.8 2.9-7.9 10-17.9 17.8-20.9 16.1-2.2-1.2-1.1-3.6 17.4-39.9 6.9-13.5 6.8-12.9 2.2-12.2-8.1 1.3-11.3 4.7-22.5 23.5l-4.5 7.6-8 8.1c-10.1 10.1-16.5 14.6-20.1 14-3-.6-2.1-2.8 8.3-20 3.6-5.9 6.9-11.7 7.4-12.9 4.1-9.2 2.3-18.3-4.4-22.2-6.6-3.8-12.9.5-32.4 22.3-2.4 2.7-4.4 4.9-4.5 4.9s1.5-3.1 3.4-6.9l9.8-19.3c20.6-40.5 28.2-52.6 38.2-60.8l4.4-3.7 1.8-1.6H346c-1.2-.2-3.3.1-4.3.4M382.3 65c-3 .8-5.1 3-8.8 9.5-3.4 5.9-3.4 5.8 1.3 5.8 3.3 0 5.5-.9 7.2-3.1 2.3-2.9 7.4-11.4 7-11.8-.5-.5-5.2-.7-6.7-.4M150.4 90.1c1.2 1.2 1.2 2.1-.1 4.7-4.4 8.7-11.7 14.6-25.8 20.7L121 117l.4-1.1c5.4-12.7 24.8-30 29-25.8m182.8 66.4c-4.8 1.7-6.5 9-2.6 11.1.7.4.7.5-.5 1.7-3.8 3.8-2 10.1 3.3 11.5 7.2 1.9 12.9-5.9 8.1-11.2l-1.4-1.5 1-.9c5.1-4.8-1.2-13.2-7.9-10.7m36.4 0c-4.4 1.6-6.1 6.8-3.4 10.3l1 1.3-1.2 1.5c-3.3 4.1-.6 10.5 4.8 11.3 6.9 1 11.6-6.5 7.1-11.4l-1.3-1.5 1.1-1.2c4.5-5-1.5-12.7-8.1-10.3m-55 1.9c-2.4 2-2.4 2.1-2.4 4 0 2.4 0 2.4 2.5.1l2.1-1.9.1 10.1.1 10.1h1.8 1.8v-12.2-12.2h-1.8c-1.6-.1-2.1.1-4.2 2m32.3 1.5v3.6l1.7-.1 1.7-.1.1-1.9.1-1.9h3.4c1.9 0 3.4.1 3.4.3s-1.8 4.9-3.9 10.5l-3.9 10.2 1.8.1c1 .1 1.9 0 2.1-.2.9-1 7.7-19.7 7.9-21.8l.2-2.3h-7.2-7.2v3.6m-9.1.6c1.8 1.8 1.2 5-1 5.7-3.1 1.1-5.5-1.4-4.4-4.5.7-2.3 3.6-2.9 5.4-1.2m36.4 0c1.1 1.1 1.3 3.5.4 4.7-1.3 1.7-4.1 1.7-5.5 0-2.6-3.4 2-7.7 5.1-4.7m-36.9 9.9c2.1 1.1 2.6 4.4.9 6.2-1.4 1.4-3.9 1.4-5.2 0-3.2-3.2.3-8.3 4.3-6.2m37 .5c2.6 2.2 1 6.6-2.4 6.6-2.4 0-3.8-1.4-3.8-3.8 0-3.5 3.5-5 6.2-2.8" fill-rule="evenodd"/></svg>