<?xml version="1.0"?>
<svg xmlns="http://www.w3.org/2000/svg" xmlns:xlink="http://www.w3.org/1999/xlink" xmlns:svgjs="http://svgjs.com/svgjs" version="1.1" width="512" height="512" x="0" y="0" viewBox="0 0 512 512" style="enable-background:new 0 0 512 512" xml:space="preserve" class=""><g><g xmlns="http://www.w3.org/2000/svg"><g><g><g><g><g><g><g><g><circle cx="256" cy="256" fill="#f1f1f1" r="256" data-original="#ff6c52" style="" class=""/></g></g></g></g></g></g></g></g><path d="m91.478 258.67 177.962 177.963-11.96 14.367 54.795 54.795c114.313-25.642 199.725-127.744 199.725-249.795 0-.001 0-.003 0-.004l-174.395-174.395z" fill="#f1f1f1" data-original="#f92814" style="" class=""/><g><path d="m111.628 265.816c-17.673 0-32-14.327-32-32v-48.257c0-79.874 68.178-144.855 151.981-144.855 17.673 0 32 14.327 32 32s-14.327 32-32 32c-48.513 0-87.981 36.271-87.981 80.855v48.257c0 17.674-14.327 32-32 32z" fill="#ffffff" data-original="#ffffff" style="" class=""/></g><g><path d="m356.396 207.465c.012-.71.019-1.421.019-2.134 0-66.836-54.647-120.909-121.697-119.976-65.348.91-118.369 54.791-118.278 120.145.039 28.189 9.799 54.1 26.108 74.561l77.824 103.191c10.204 13.53 18.38 28.56 23.413 44.742 7.294 23.451 29.169 40.479 55.021 40.479 31.817 0 57.611-25.793 57.611-57.611 0-.419-.005-.836-.014-1.253h.014z" fill="#ffbeaa" data-original="#ffbeaa" style="" class=""/></g><g><path d="m356.396 207.465c.012-.71.019-1.421.019-2.134 0-59.56-43.396-108.983-100.294-118.378v362.6c10.54 11.621 25.759 18.921 42.684 18.921 31.818 0 57.611-25.793 57.611-57.611 0-.419-.005-.836-.013-1.253h.013z" fill="#faa68e" data-original="#faa68e" style="" class=""/></g><g><path d="m324.082 339.615c-.001-6.814-3.221-13.145-8.512-17.439-7.994-6.488-13.435-19.302-13.435-34.05 0-14.745 5.439-27.556 13.43-34.046 5.29-4.295 8.508-10.626 8.508-17.44l-.002-22.089c.008-.451.012-.903.012-1.356 0-42.718-35.137-77.23-78.086-76.21-40.342.958-73.274 33.788-74.35 74.126-.5 18.757 5.777 36.034 16.559 49.562l50.73 67.265c6.145 8.147 10.572 17.392 13.71 27.102 4.751 14.702 18.551 25.336 34.835 25.336 20.215 0 36.602-16.387 36.602-36.602 0-.266-.003-.531-.009-.796h.009z" fill="#faa68e" data-original="#faa68e" style="" class=""/></g><g><path d="m324.082 339.615c-.001-6.814-3.221-13.145-8.512-17.439-7.995-6.488-13.435-19.302-13.435-34.05 0-14.744 5.439-27.556 13.43-34.045 5.29-4.295 8.508-10.626 8.508-17.44l-.002-22.089c.008-.451.012-.903.012-1.356 0-39.305-29.754-71.638-67.962-75.764v225.222c6.407 10.62 18.053 17.724 31.36 17.724 20.215 0 36.602-16.387 36.602-36.602 0-.266-.003-.531-.009-.796h.009z" fill="#e09380" data-original="#e09380" style="" class=""/></g><g><path d="m247.85 274.972c0 43.192 15.436 79.762 48.568 79.762 9.951 0 19.336-3.159 27.598-8.749.043-.731.066-1.468.066-2.21 0-.266-.003-.531-.009-.796h.009v-3.365c-.001-6.814-3.221-13.145-8.512-17.439-7.995-6.488-13.435-19.302-13.435-34.05 0-14.745 5.438-27.556 13.43-34.046 5.29-4.295 8.508-10.626 8.508-17.44l-.002-22.089c.008-.451.012-.903.012-1.356 0-2.104-.086-4.189-.253-6.25-8.216-5.512-17.535-8.623-27.411-8.623-33.133.001-48.569 33.459-48.569 76.651z" fill="#e09380" data-original="#e09380" style="" class=""/></g><g><path d="m324.082 339.615c-.001-6.814-3.221-13.145-8.512-17.439-7.995-6.488-13.435-19.302-13.435-34.05 0-14.744 5.438-27.556 13.43-34.046 5.29-4.295 8.508-10.626 8.508-17.44l-.002-22.089c.008-.451.012-.903.012-1.356 0-2.104-.086-4.189-.253-6.25-8.216-5.511-17.535-8.623-27.411-8.623-19.281 0-32.557 11.344-40.298 29.33v95.818c7.741 18.867 21.017 31.264 40.298 31.264 9.951 0 19.336-3.159 27.598-8.749.044-.731.066-1.468.066-2.21 0-.266-.003-.531-.009-.796h.009z" fill="#d47f6c" data-original="#d47f6c" style="" class=""/></g><g><path d="m302.129 311.131c-9.757 0-18.811-6.257-21.918-16.053-3.84-12.108 2.862-25.037 14.97-28.877l17.804-5.647c12.021-3.813 20.417-15.917 20.417-29.436v-50.098c0-52.3-43.505-94.849-96.981-94.849v-46c78.84 0 142.981 63.185 142.981 140.849v50.098c0 33.872-21.102 63.322-52.509 73.284l-17.804 5.647c-2.313.733-4.657 1.082-6.96 1.082z" fill="#fff4c5" data-original="#fff4c5" style=""/></g><g><path d="m256.12 41.514v46.626c44.062 8.927 77.281 47.18 77.281 92.88v50.098c0 13.519-8.396 25.624-20.417 29.436l-17.804 5.647c-12.108 3.84-18.811 16.769-14.97 28.877 3.107 9.796 12.161 16.053 21.918 16.053 2.303 0 4.647-.349 6.959-1.083l17.804-5.647c31.408-9.962 52.509-39.412 52.509-73.284v-50.097c.002-71.081-53.729-130.022-123.28-139.506z" fill="#ffe89c" data-original="#ffe89c" style="" class=""/></g><g><circle cx="302.745" cy="287.726" fill="#e9edf5" r="41.322" data-original="#e9edf5" style="" class=""/></g></g></g></svg>
