<?xml version="1.0"?>
<svg xmlns="http://www.w3.org/2000/svg" xmlns:xlink="http://www.w3.org/1999/xlink" xmlns:svgjs="http://svgjs.com/svgjs" version="1.1" width="512" height="512" x="0" y="0" viewBox="0 0 512 512" style="enable-background:new 0 0 512 512" xml:space="preserve" class=""><g>
<circle xmlns="http://www.w3.org/2000/svg" style="" cx="256" cy="256" r="256" fill="#f1f1f1" data-original="#ff68a5" class=""/>
<path xmlns="http://www.w3.org/2000/svg" style="" d="M110,345.879l165.394,165.394C407.719,501.361,512,390.86,512,256c0-8.023-0.388-15.955-1.11-23.79  L402,123.32L110,345.879z" fill="#f1f1f1" data-original="#ff0099" class=""/>
<polygon xmlns="http://www.w3.org/2000/svg" style="" points="299.722,380.125 299.722,345.879 244.585,334.464 256,380.125 " fill="#9abadb" data-original="#9abadb"/>
<g xmlns="http://www.w3.org/2000/svg">
	<polygon style="" points="212.278,380.125 256,380.125 256,334.464 212.278,345.879  " fill="#d1e8ff" data-original="#d1e8ff" class=""/>
	<polygon style="" points="402,294.51 244.585,283.094 256,345.879 402,345.879  " fill="#d1e8ff" data-original="#d1e8ff" class=""/>
</g>
<polygon xmlns="http://www.w3.org/2000/svg" style="" points="110,294.51 110,345.879 256,345.879 256,283.094 " fill="#f5f5ff" data-original="#f5f5ff" class=""/>
<polygon xmlns="http://www.w3.org/2000/svg" style="" points="325.406,371.57 256,371.57 250.292,380.125 256,388.68 325.406,388.68 " fill="#d1e8ff" data-original="#d1e8ff" class=""/>
<rect xmlns="http://www.w3.org/2000/svg" x="186.59" y="371.57" style="" width="69.41" height="17.11" fill="#f5f5ff" data-original="#f5f5ff" class=""/>
<polygon xmlns="http://www.w3.org/2000/svg" style="" points="402,123.32 256,123.32 244.585,208.915 256,294.51 402,294.51 " fill="#294b6e" data-original="#294b6e" class=""/>
<rect xmlns="http://www.w3.org/2000/svg" x="110" y="123.32" style="" width="146" height="171.19" fill="#6283a3" data-original="#6283a3" class=""/>
<polygon xmlns="http://www.w3.org/2000/svg" style="" points="211.988,254.24 166.663,208.915 211.988,163.59 224.086,175.688 190.859,208.915   224.086,242.142 " fill="#f5f5ff" data-original="#f5f5ff" class=""/>
<g xmlns="http://www.w3.org/2000/svg">
	<polygon style="" points="300.012,254.24 287.914,242.142 321.141,208.915 287.914,175.688 300.012,163.59    345.337,208.915  " fill="#d1e8ff" data-original="#d1e8ff" class=""/>
	
		<rect x="247.44" y="154.846" transform="matrix(-0.9808 -0.1951 0.1951 -0.9808 466.3129 463.7625)" style="" width="17.11" height="108.142" fill="#d1e8ff" data-original="#d1e8ff" class=""/>
</g>
<g xmlns="http://www.w3.org/2000/svg">
</g>
<g xmlns="http://www.w3.org/2000/svg">
</g>
<g xmlns="http://www.w3.org/2000/svg">
</g>
<g xmlns="http://www.w3.org/2000/svg">
</g>
<g xmlns="http://www.w3.org/2000/svg">
</g>
<g xmlns="http://www.w3.org/2000/svg">
</g>
<g xmlns="http://www.w3.org/2000/svg">
</g>
<g xmlns="http://www.w3.org/2000/svg">
</g>
<g xmlns="http://www.w3.org/2000/svg">
</g>
<g xmlns="http://www.w3.org/2000/svg">
</g>
<g xmlns="http://www.w3.org/2000/svg">
</g>
<g xmlns="http://www.w3.org/2000/svg">
</g>
<g xmlns="http://www.w3.org/2000/svg">
</g>
<g xmlns="http://www.w3.org/2000/svg">
</g>
<g xmlns="http://www.w3.org/2000/svg">
</g>
</g></svg>
