<?xml version="1.0" encoding="utf-8"?>
<svg version="1.1" id="Layer_1" xmlns="http://www.w3.org/2000/svg" xmlns:xlink="http://www.w3.org/1999/xlink" x="0px" y="0px"
	width="100px" height="100px" viewBox="0 0 100 100" style="enable-background:new 0 0 100 100;" xml:space="preserve">
<g>
	<g>
		<path style="fill:#E8E8E8;" d="M50,0c27.61,0,50,22.39,50,50s-22.39,50-50,50S0,77.61,0,50S22.39,0,50,0"/>
		<path style="fill:#FFFFFF;" d="M50,1c27.06,0,49,21.94,49,49S77.06,99,50,99S1,77.06,1,50S22.94,1,50,1"/>
	</g>
	<g>
		<path style="fill:#053876;" d="M28.46,38.57H10.79c0,0,0,10.13,0,10.94c-0.01,7.06,7.72,11.7,8.83,11.92
			c1.11-0.24,8.83-4.87,8.83-11.88V38.57z M19.61,59.82c-0.89-0.18-7.55-4.2-7.55-10.25c0,0,0-7.24,0-9.8h15.13
			c0,2.52,0,9.84,0,9.84C27.19,55.64,20.53,59.64,19.61,59.82"/>
		<path style="fill:#053876;" d="M22.28,46.79c0.73,0.88,1.01,1.52,1.03,2.67c0.04,1.28-1.01,3.45-3.69,3.45
			c-2.67,0-3.67-2.2-3.67-3.45c0-1.15,0.34-1.84,1.03-2.69c-1.15,0.69-2.76,2.08-2.77,4.85c-0.01,2.74,2.73,5.01,5.41,5.01
			c2.69,0,5.4-2.29,5.4-5.02C25.03,48.9,23.4,47.5,22.28,46.79"/>
		<path style="fill:#053876;" d="M16.4,44.45c0.21,0.22,0.37,0.34,0.69,0.14c0.51-0.3,0.77-0.1,1.31-0.03
			c-0.33,0.25-0.68,0.37-0.73,0.68c-0.07,0.41-0.3,0.59-0.6,0.76c-0.3,0.16-0.41,0.47-0.37,0.63c0.2-0.42,0.58-0.47,0.86-0.46
			c0.31,0.01,0.55-0.34,0.76-0.59c0.31-0.37,0.76-0.34,0.76-0.34c-0.13,0.59,0.1,0.6,0.33,1.05c0.21,0.41-0.01,0.72-0.03,0.86
			c-0.03,0.27,0.09,0.46,0.39,0.65c-0.1-0.25-0.14-0.5,0.17-0.81c0.24-0.24,0.25-0.43,0.17-0.65c-0.18-0.51-0.03-0.59,0.07-1.12
			c0.31,0.26,0.39,0.35,0.78,0.48c0.33,0.12,0.54,0.51,0.67,0.63c0.29,0.24,0.51,0.26,0.78,0.17c-0.3-0.13-0.41-0.27-0.5-0.51
			c-0.12-0.3-0.04-0.58-0.37-0.78c-0.43-0.27-0.68-0.54-0.76-0.67c0,0,0.84,0.13,1.31-0.1c0.5-0.25,0.84-0.04,0.99-0.01
			c0.24,0.03,0.42-0.13,0.59-0.46c-0.13,0.08-0.46,0.1-0.77-0.17c-0.25-0.22-0.48-0.21-0.69-0.13c-0.52,0.21-0.97,0.18-1.46-0.04
			c0.55-0.3,0.84-0.35,0.9-0.68c0.08-0.41,0.29-0.58,0.59-0.74c0.3-0.16,0.33-0.37,0.29-0.52c-0.21,0.33-0.63,0.43-0.91,0.42
			c-0.31,0-0.46,0.25-0.64,0.52c-0.26,0.39-0.58,0.3-0.78,0.43c0,0-0.05-0.74-0.29-1.07c-0.27-0.37,0.04-0.76,0.05-0.89
			c0.03-0.27-0.12-0.42-0.37-0.59c0.1,0.25,0.07,0.42-0.25,0.73c-0.24,0.24-0.21,0.5-0.14,0.72c0.14,0.44-0.01,0.48-0.12,1.02
			c-0.31-0.27-0.39-0.31-0.77-0.46c-0.33-0.12-0.48-0.47-0.63-0.59c-0.29-0.24-0.58-0.3-0.85-0.22c0.37,0.16,0.47,0.34,0.55,0.58
			c0.1,0.3,0.01,0.52,0.35,0.77c0.39,0.29,0.56,0.52,0.64,0.65c0,0-0.78-0.09-1.29,0.24c-0.3,0.2-0.82-0.09-0.86-0.09
			c-0.27,0.01-0.47,0.18-0.63,0.46C15.85,44.16,16.18,44.23,16.4,44.45"/>
		<path style="fill:#053876;" d="M33.38,42.61c0-0.89,0.01-0.97-1.08-1.02v-0.34c0.67,0.04,1.32,0.05,2,0.05
			c0.67,0,1.33-0.03,2-0.05c1.11,0,2.37,0.48,2.37,1.76c0,1.42-1.23,2.37-2.65,2.42c-0.31,0.01-0.58-0.03-0.74-0.07l-0.13-0.42
			c0.17,0.05,0.44,0.09,0.73,0.1c0.93,0.04,1.65-0.67,1.65-1.65c0-1.19-0.72-1.74-1.86-1.74c-0.39,0-0.76,0.09-1.12,0.16
			c-0.07,0.2-0.07,0.43-0.07,0.78v5.23c0,0.89-0.01,0.97,1.08,1.03v0.34c-0.55-0.04-1.08-0.05-1.65-0.05c-0.56,0-1.1,0.03-1.61,0.05
			v-0.34c1.1-0.05,1.08-0.13,1.08-1.03L33.38,42.61L33.38,42.61z"/>
		<path style="fill:#053876;" d="M38.45,46.71c0-1.71,1.07-2.9,2.9-2.9c1.46,0,2.59,1.14,2.59,2.6c0,1.74-1.24,2.98-2.99,2.98
			C39.52,49.42,38.45,48.28,38.45,46.71 M39.51,46.22c0,1.2,0.43,2.77,1.89,2.77c1.03,0,1.46-1.02,1.46-2.09
			c0-1.46-0.67-2.81-1.76-2.72C39.88,44.18,39.51,45.16,39.51,46.22"/>
		<path style="fill:#053876;" d="M45.16,45.13c0-0.47-0.52-0.6-0.94-0.6v-0.34c0.54-0.09,1.15-0.2,1.8-0.39
			c0.04,0.04,0.05,0.13,0.05,0.22v0.8l0.64-0.56c0.24-0.22,0.64-0.47,0.98-0.47c0.18,0,0.39,0.03,0.55,0.1
			c0.05,0.03,0.04,0.1,0.03,0.14l-0.08,1.22h-0.25c-0.13-0.29-0.41-0.51-0.74-0.51c-0.8,0-1.07,0.76-1.07,1.56v1.11
			c0,1.14,0.04,1.42,0.94,1.42v0.34c-0.47-0.04-0.94-0.05-1.42-0.05s-0.95,0.03-1.42,0.05v-0.34c0.94-0.05,0.94-0.29,0.94-1.42
			V45.13z"/>
		<path style="fill:#053876;" d="M48.97,44.83v-0.22l0.81-0.41l0.01-0.8c-0.03-0.3-0.04-0.59-0.08-0.9
			c0.41-0.13,0.77-0.31,0.99-0.43l0.14,0.12c-0.04,0.13-0.08,0.27-0.09,0.41l-0.07,1.61h1.58l-0.08,0.56h-1.5v2.56
			c0,0.6-0.07,1.23,0.74,1.23c0.22,0,0.41-0.12,0.56-0.21l0.2,0.2c-0.1,0.1-0.21,0.22-0.31,0.33l-0.25,0.27
			c-0.03,0.04-0.09,0.05-0.13,0.05c-0.17,0.04-0.35,0.08-0.52,0.08c-0.85,0-1.23-0.46-1.23-1.2v-3.32L48.97,44.83z"/>
		<path style="fill:#053876;" d="M56.08,45.37c-0.01-0.37-0.04-0.67-0.35-0.9c-0.25-0.18-0.67-0.3-0.97-0.3
			c-1.03,0-1.31,0.89-0.99,1.31c0.69,0.89,3.1,0.21,3.1,1.97c0,1.25-1.24,1.92-2.51,1.92c-0.5,0-1.02-0.09-1.57-0.33
			c0.05-0.41,0.1-0.99,0.1-1.53h0.34v0.3c0.04,0.56-0.05,0.59,0.44,0.88c0.25,0.14,0.6,0.26,1.02,0.26c0.72,0,1.33-0.42,1.33-1.03
			c0-0.37-0.21-0.63-0.55-0.76c-0.94-0.35-2.64-0.3-2.64-1.7c0-1.23,1.07-1.66,2.14-1.66c0.43,0,1.01,0.1,1.48,0.3
			c-0.05,0.25-0.07,0.74-0.07,1.27H56.08L56.08,45.37z"/>
		<path style="fill:#053876;" d="M58.22,45.13c0-0.47-0.52-0.6-0.94-0.6v-0.34c0.54-0.09,1.15-0.2,1.8-0.39
			c0.05,0.04,0.05,0.13,0.05,0.22v0.8l0.77-0.72c0.26-0.24,0.56-0.31,0.94-0.31c0.78,0,1.37,0.31,1.69,1.06l0.8-0.71
			c0.31-0.29,0.54-0.35,1.07-0.35c0.9,0,1.65,0.65,1.65,1.87v1.76c0,1.14,0,1.37,0.85,1.42v0.34c-0.31-0.04-0.6-0.05-0.91-0.05
			s-0.61,0.03-0.9,0.05v-3.07c0-1.03-0.44-1.61-1.07-1.61c-1.4,0-1.4,1.03-1.4,1.56v1.36c0,1.14,0.04,1.42,0.94,1.42v0.34
			c-0.47-0.04-0.94-0.05-1.42-0.05s-0.95,0.03-1.42,0.05v-0.34c0.94-0.05,0.94-0.29,0.94-1.42v-0.77c0-0.39-0.01-0.8-0.07-1.18
			c-0.08-0.58-0.5-0.95-1.08-0.95c-1.32,0-1.32,1.03-1.32,1.56v1.36c0,1.14,0.04,1.42,0.94,1.42v0.34
			c-0.47-0.04-0.94-0.05-1.42-0.05c-0.48,0-0.95,0.03-1.42,0.05v-0.34c0.94-0.05,0.94-0.29,0.94-1.42L58.22,45.13L58.22,45.13z"/>
		<path style="fill:#053876;" d="M66.92,46.71c0-1.71,1.07-2.9,2.9-2.9c1.46,0,2.59,1.14,2.59,2.6c0,1.74-1.24,2.98-2.99,2.98
			C68,49.42,66.92,48.28,66.92,46.71 M67.98,46.22c0,1.2,0.43,2.77,1.89,2.77c1.03,0,1.46-1.02,1.46-2.09
			c0-1.46-0.67-2.81-1.76-2.72C68.36,44.18,67.98,45.16,67.98,46.22"/>
		<path style="fill:#053876;" d="M73.48,45.13c0-0.47-0.52-0.6-0.93-0.6v-0.34c0.63-0.09,1.24-0.2,1.88-0.39
			c0.04,0.04,0.05,0.13,0.05,0.22l-0.05,1.74v1.44c0,0.9,0.2,1.42,1.2,1.42c0.51,0,1.32-0.51,1.44-1.03
			c0.03-0.14,0.04-0.26,0.04-0.41v-2.08c0-0.47-0.52-0.6-0.93-0.6v-0.34c0.63-0.09,1.24-0.2,1.88-0.39
			c0.04,0.04,0.05,0.13,0.05,0.22l-0.05,1.74v2.37c0,0.22-0.05,0.5,0.18,0.63c0.17,0.05,0.35,0.07,0.54,0.08L79,48.82v0.34
			c-0.31-0.04-0.65-0.05-0.97-0.05c-0.33,0-0.67,0.03-0.95,0.05c0.04-0.21,0.05-0.41,0.04-0.56v-0.43
			c-0.24,0.18-0.48,0.41-0.71,0.61c-0.21,0.2-0.3,0.31-0.59,0.38c-0.24,0.05-0.5,0.08-0.74,0.08c-1.61,0-1.61-1.03-1.61-1.95v-2.16
			H73.48z"/>
		<path style="fill:#053876;" d="M79.08,44.83v-0.22l0.81-0.41l0.01-0.8c-0.03-0.3-0.04-0.59-0.08-0.9
			c0.41-0.13,0.77-0.31,0.99-0.43l0.14,0.12c-0.04,0.13-0.08,0.27-0.09,0.41L80.8,44.2h1.58l-0.08,0.56h-1.5v2.56
			c0,0.6-0.07,1.23,0.74,1.23c0.22,0,0.41-0.12,0.56-0.21l0.2,0.2c-0.1,0.1-0.21,0.22-0.31,0.33l-0.25,0.27
			c-0.03,0.04-0.09,0.05-0.13,0.05c-0.17,0.04-0.35,0.08-0.52,0.08c-0.85,0-1.23-0.46-1.23-1.2v-3.32L79.08,44.83z"/>
		<path style="fill:#053876;" d="M83.73,42.24c0-0.47-0.52-0.6-0.93-0.6V41.3c0.63-0.09,1.24-0.2,1.88-0.39
			c0.04,0.04,0.05,0.13,0.05,0.22l-0.05,1.74v2l0.86-0.76c0.27-0.24,0.56-0.31,0.93-0.31c0.9,0,1.65,0.65,1.65,1.87v1.76
			c0,1.14,0,1.37,0.85,1.42v0.34c-0.31-0.04-0.6-0.05-0.91-0.05c-0.31,0-0.61,0.03-0.9,0.05v-3.07c0-1.03-0.44-1.61-1.07-1.61
			c-1.4,0-1.4,1.03-1.4,1.56v1.36c0,1.14,0.04,1.42,0.94,1.42v0.34c-0.47-0.04-0.94-0.05-1.42-0.05s-0.95,0.03-1.42,0.05v-0.34
			c0.94-0.05,0.94-0.29,0.94-1.42v-5.19H83.73z"/>
		<path style="fill:#053876;" d="M35.79,55.46l-0.12,0.26c-0.37,0.2-0.77,0.3-1.23,0.3c-0.9,0-1.52-0.33-1.86-0.98
			c-0.16-0.3-0.24-0.63-0.24-0.98c0-0.56,0.18-1.02,0.56-1.36c0.38-0.35,0.91-0.52,1.58-0.52c0.42,0,0.84,0.08,1.24,0.24l0.04,0.04
			c-0.05,0.24-0.09,0.52-0.1,0.84l-0.03,0.03h-0.16l-0.03-0.03c0-0.21-0.01-0.35-0.03-0.43c-0.22-0.25-0.52-0.37-0.94-0.37
			c-0.42,0-0.74,0.13-0.99,0.41c-0.24,0.26-0.35,0.63-0.35,1.08c0,0.61,0.21,1.1,0.64,1.42c0.22,0.17,0.54,0.26,0.91,0.26
			c0.34,0,0.68-0.09,1.02-0.26L35.79,55.46z"/>
		<path style="fill:#053876;" d="M39.4,55.9l-0.03,0.03c-0.17-0.01-0.44-0.01-0.8-0.01c-0.37,0-0.63,0-0.8,0.01l-0.03-0.03v-0.17
			l0.03-0.03c0.18-0.01,0.27-0.01,0.3-0.03c0.05-0.01,0.08-0.05,0.09-0.09c0.03-0.13,0.04-0.39,0.04-0.81V53.4
			c0-0.42-0.01-0.68-0.04-0.81c-0.01-0.05-0.04-0.08-0.09-0.09c-0.03-0.01-0.13-0.01-0.3-0.03l-0.03-0.03v-0.18l0.03-0.03
			c0.17,0.01,0.43,0.01,0.8,0.01s0.63,0,0.8-0.01l0.03,0.03v0.18l-0.03,0.03c-0.18,0.01-0.27,0.01-0.3,0.03
			c-0.05,0.01-0.08,0.05-0.09,0.09c-0.03,0.12-0.04,0.39-0.04,0.81v1.37c0,0.42,0.01,0.68,0.04,0.81c0.01,0.05,0.04,0.08,0.09,0.09
			c0.03,0.01,0.13,0.01,0.3,0.03l0.03,0.03V55.9z"/>
		<path style="fill:#053876;" d="M44.55,52.25c-0.03,0.13-0.03,0.26-0.04,0.39v0.43l-0.03,0.03h-0.17l-0.03-0.03
			c-0.01-0.22-0.01-0.35-0.03-0.39c-0.03-0.07-0.08-0.1-0.17-0.12c-0.04,0-0.2-0.01-0.48-0.01h-0.35c0,0.07,0,0.3,0,0.72v1.48
			c0,0.42,0.01,0.68,0.04,0.81c0.01,0.05,0.04,0.08,0.09,0.09c0.03,0.01,0.13,0.01,0.3,0.03l0.03,0.03v0.17l-0.03,0.03
			c-0.17-0.01-0.43-0.01-0.8-0.01s-0.64,0-0.8,0.01l-0.03-0.03V55.7l0.03-0.03c0.18-0.01,0.27-0.01,0.3-0.03
			c0.05-0.01,0.08-0.05,0.09-0.09c0.03-0.13,0.04-0.39,0.04-0.81v-1.48c0-0.43,0-0.67-0.01-0.72h-0.37c-0.31,0-0.5,0.01-0.54,0.03
			c-0.03,0.01-0.05,0.03-0.05,0.04c-0.01,0.03-0.03,0.08-0.04,0.17c-0.01,0.09-0.03,0.18-0.03,0.29l-0.05,0.04h-0.17l-0.03-0.03
			v-0.44c0-0.12-0.01-0.25-0.03-0.39l0.03-0.03c0.1,0.01,0.47,0.03,1.11,0.03h1.05c0.59,0,0.97-0.01,1.11-0.03L44.55,52.25z"/>
		<path style="fill:#053876;" d="M49.75,52.37c-0.27,0.37-0.58,0.82-0.9,1.37c-0.18,0.3-0.29,0.5-0.3,0.59
			c-0.01,0.04-0.01,0.1-0.01,0.2v0.26c0,0.51,0.01,0.78,0.05,0.85c0.01,0.03,0.04,0.04,0.07,0.05c0.04,0.01,0.14,0.03,0.31,0.04
			l0.03,0.03v0.17l-0.03,0.03c-0.17-0.01-0.43-0.01-0.8-0.01s-0.64,0-0.8,0.01l-0.03-0.03v-0.18l0.03-0.03
			c0.17-0.01,0.27-0.03,0.31-0.04c0.03-0.01,0.04-0.03,0.07-0.05c0.03-0.05,0.05-0.34,0.05-0.85v-0.3c0-0.07-0.13-0.33-0.41-0.78
			c-0.27-0.47-0.5-0.78-0.67-0.95c-0.08-0.08-0.13-0.13-0.16-0.14s-0.09-0.01-0.2-0.01l-0.03-0.03v-0.14l0.03-0.03
			c0.42-0.08,0.69-0.14,0.81-0.17c0.09,0.04,0.17,0.1,0.24,0.17c0.14,0.14,0.34,0.46,0.59,0.95l0.34,0.68
			c0.1-0.17,0.3-0.5,0.59-0.99l0.29-0.52c0.03-0.05,0.08-0.13,0.13-0.24h0.38l0.03,0.03L49.75,52.37L49.75,52.37z"/>
		<path style="fill:#053876;" d="M57.87,55.46l-0.12,0.26c-0.37,0.2-0.77,0.3-1.23,0.3c-0.9,0-1.52-0.33-1.86-0.98
			c-0.16-0.3-0.24-0.63-0.24-0.98c0-0.56,0.18-1.02,0.56-1.36c0.39-0.35,0.91-0.52,1.58-0.52c0.42,0,0.84,0.08,1.24,0.24l0.04,0.04
			c-0.05,0.24-0.09,0.52-0.1,0.84l-0.03,0.03h-0.16l-0.03-0.03c0-0.21-0.01-0.35-0.03-0.43c-0.22-0.25-0.52-0.37-0.94-0.37
			s-0.74,0.13-0.99,0.41c-0.24,0.26-0.35,0.63-0.35,1.08c0,0.61,0.21,1.1,0.64,1.42c0.22,0.17,0.54,0.26,0.91,0.26
			c0.34,0,0.68-0.09,1.02-0.26L57.87,55.46z"/>
		<path style="fill:#053876;" d="M63.71,53.99c0,0.64-0.18,1.14-0.56,1.5c-0.37,0.35-0.85,0.52-1.48,0.52c-0.59,0-1.06-0.17-1.4-0.5
			s-0.51-0.8-0.51-1.39c0-0.84,0.31-1.41,0.95-1.73c0.29-0.14,0.64-0.22,1.07-0.22c0.6,0,1.07,0.16,1.41,0.47
			C63.54,52.99,63.71,53.43,63.71,53.99 M62.91,54.12c0-0.5-0.1-0.9-0.3-1.19c-0.2-0.3-0.5-0.44-0.89-0.44
			c-0.51,0-0.85,0.24-1.02,0.69c-0.09,0.24-0.13,0.5-0.13,0.8c0,0.54,0.1,0.95,0.3,1.27c0.21,0.31,0.51,0.48,0.91,0.48
			c0.5,0,0.82-0.25,0.99-0.73C62.87,54.74,62.91,54.45,62.91,54.12"/>
		<path style="fill:#053876;" d="M69.55,52.44l-0.03,0.03c-0.21,0-0.31,0.05-0.34,0.17c-0.01,0.07-0.03,0.2-0.03,0.39
			c0,0.16-0.01,0.37-0.01,0.65v0.8c0,0.51-0.1,0.88-0.3,1.1c-0.27,0.29-0.65,0.43-1.15,0.43c-0.46,0-0.81-0.08-1.06-0.22
			c-0.21-0.13-0.35-0.31-0.42-0.55c-0.04-0.16-0.07-0.55-0.07-1.18v-0.67c0-0.42-0.01-0.68-0.04-0.81
			c-0.01-0.05-0.04-0.08-0.09-0.09c-0.03-0.01-0.13-0.01-0.3-0.03l-0.03-0.03v-0.17l0.03-0.03c0.17,0.01,0.43,0.01,0.8,0.01
			c0.38,0,0.64,0,0.8-0.01l0.03,0.03v0.17l-0.03,0.03c-0.18,0.01-0.27,0.01-0.3,0.03c-0.05,0.01-0.08,0.05-0.09,0.09
			c-0.03,0.12-0.04,0.39-0.04,0.81v0.54c0,0.65,0.03,1.06,0.09,1.2c0.12,0.29,0.41,0.43,0.88,0.43c0.3,0,0.54-0.08,0.71-0.22
			c0.08-0.07,0.13-0.14,0.17-0.21c0.03-0.08,0.05-0.18,0.08-0.34c0.01-0.14,0.03-0.29,0.03-0.43v-0.54c0-0.46,0-0.76,0-0.93
			c0-0.16-0.01-0.26-0.03-0.3s-0.04-0.07-0.09-0.08c-0.04-0.01-0.14-0.03-0.31-0.04l-0.03-0.03v-0.17l0.03-0.03
			c0.16,0.01,0.3,0.01,0.47,0.01c0.12,0,0.35,0,0.69-0.01l0.03,0.03v0.16H69.55z"/>
		<path style="fill:#053876;" d="M75.54,52.44l-0.03,0.03c-0.18,0.01-0.27,0.01-0.3,0.03c-0.05,0.01-0.08,0.05-0.09,0.09
			c-0.03,0.12-0.04,0.39-0.04,0.81v1.06c0,0.77,0.01,1.28,0.04,1.52l-0.04,0.03c-0.2-0.04-0.34-0.05-0.44-0.07
			c-0.46-0.52-1.25-1.48-2.38-2.85v1.7c0,0.42,0.01,0.68,0.04,0.81c0.01,0.05,0.04,0.08,0.09,0.09c0.03,0.01,0.13,0.01,0.3,0.03
			l0.03,0.03v0.18l-0.03,0.03c-0.2-0.01-0.38-0.01-0.56-0.01c-0.2,0-0.39,0-0.6,0.01l-0.03-0.03v-0.18l0.03-0.03
			c0.17-0.01,0.27-0.01,0.3-0.03c0.05-0.01,0.08-0.05,0.09-0.09c0.03-0.12,0.04-0.39,0.04-0.81V53.4c0-0.42-0.01-0.68-0.04-0.81
			c-0.01-0.05-0.04-0.08-0.09-0.09c-0.03-0.01-0.13-0.01-0.3-0.03l-0.03-0.03v-0.18l0.03-0.03c0.17,0.01,0.33,0.01,0.47,0.01
			c0.24,0,0.43,0,0.58-0.01c0.63,0.84,1.36,1.73,2.2,2.67v-1.52c0-0.42-0.01-0.68-0.04-0.81c-0.01-0.05-0.04-0.08-0.09-0.09
			c-0.03-0.01-0.13-0.01-0.3-0.03l-0.03-0.03v-0.18l0.03-0.03c0.2,0.01,0.38,0.01,0.55,0.01c0.22,0,0.42,0,0.6-0.01l0.03,0.03v0.18
			L75.54,52.44L75.54,52.44z"/>
		<path style="fill:#053876;" d="M80.87,55.46l-0.12,0.26c-0.37,0.2-0.77,0.3-1.23,0.3c-0.9,0-1.52-0.33-1.86-0.98
			c-0.16-0.3-0.24-0.63-0.24-0.98c0-0.56,0.18-1.02,0.56-1.36c0.39-0.35,0.91-0.52,1.58-0.52c0.42,0,0.84,0.08,1.24,0.24l0.04,0.04
			c-0.05,0.24-0.09,0.52-0.1,0.84l-0.03,0.03h-0.16l-0.03-0.03c0-0.21-0.01-0.35-0.03-0.43c-0.22-0.25-0.52-0.37-0.94-0.37
			s-0.74,0.13-0.99,0.41c-0.24,0.26-0.35,0.63-0.35,1.08c0,0.61,0.21,1.1,0.64,1.42c0.22,0.17,0.54,0.26,0.91,0.26
			c0.34,0,0.68-0.09,1.02-0.26L80.87,55.46z"/>
		<path style="fill:#053876;" d="M84.49,55.9l-0.03,0.03c-0.17-0.01-0.44-0.01-0.8-0.01c-0.37,0-0.63,0-0.8,0.01l-0.03-0.03v-0.17
			l0.03-0.03c0.18-0.01,0.27-0.01,0.3-0.03c0.05-0.01,0.08-0.05,0.09-0.09c0.03-0.13,0.04-0.39,0.04-0.81V53.4
			c0-0.42-0.01-0.68-0.04-0.81c-0.01-0.05-0.04-0.08-0.09-0.09c-0.03-0.01-0.13-0.01-0.3-0.03l-0.03-0.03v-0.18l0.03-0.03
			c0.17,0.01,0.43,0.01,0.8,0.01c0.37,0,0.63,0,0.8-0.01l0.03,0.03v0.18l-0.03,0.03c-0.17,0.01-0.27,0.01-0.3,0.03
			c-0.05,0.01-0.08,0.05-0.09,0.09c-0.03,0.12-0.04,0.39-0.04,0.81v1.37c0,0.42,0.01,0.68,0.04,0.81c0.01,0.05,0.04,0.08,0.09,0.09
			c0.03,0.01,0.13,0.01,0.3,0.03l0.03,0.03V55.9z"/>
		<path style="fill:#053876;" d="M89.21,55.04c-0.04,0.25-0.05,0.54-0.05,0.86l-0.03,0.03l-1.88-0.01c-0.31,0-0.54,0-0.67,0.01
			l-0.03-0.03v-0.08l0.01-0.03c0.13-0.08,0.2-0.13,0.21-0.16c0.01-0.03,0.03-0.14,0.03-0.34l0.01-0.58V53.4
			c0-0.41-0.01-0.68-0.04-0.81c-0.01-0.05-0.04-0.08-0.09-0.09c-0.03-0.01-0.13-0.01-0.3-0.03l-0.03-0.03v-0.18l0.03-0.03
			c0.18,0.01,0.44,0.01,0.78,0.01c0.35,0,0.63,0,0.81-0.01L88,52.27v0.18l-0.03,0.03c-0.17,0.01-0.27,0.01-0.3,0.03
			c-0.05,0.01-0.08,0.05-0.09,0.09c-0.03,0.13-0.04,0.39-0.04,0.81v1.54c0,0.22,0,0.44,0.01,0.65h0.35c0.51,0,0.81-0.03,0.93-0.07
			c0.01-0.01,0.04-0.01,0.04-0.03c0.01-0.03,0.04-0.08,0.05-0.16L89,55.02L89.02,55h0.16L89.21,55.04z"/>
	</g>
</g>
</svg>
