<?xml version="1.0"?>
<svg xmlns="http://www.w3.org/2000/svg" xmlns:xlink="http://www.w3.org/1999/xlink" xmlns:svgjs="http://svgjs.com/svgjs" version="1.1" width="512" height="512" x="0" y="0" viewBox="0 0 512 512" style="enable-background:new 0 0 512 512" xml:space="preserve" class=""><g><g xmlns="http://www.w3.org/2000/svg"><g><g><g><g><g><g><g><g><g><g><g><g><g><g><g><g><circle cx="256" cy="256" fill="#f1f1f1" r="256" data-original="#00ed89" style="" class=""/></g></g></g></g></g></g></g></g></g></g></g></g></g></g></g></g><path d="m404.303 172.03-40.231 4.789-69.627-69.627-156.323 139.253-15.956 87.776-39.063 51.477 121.044 121.044c16.746 3.445 34.087 5.258 51.853 5.258 133.729 0 243.489-102.544 254.986-233.287z" fill="#f1f1f1" data-original="#00dc80" style="" class=""/><g><g><g><path d="m83.103 385.699c.001-.924.033-1.854.114-2.792l16.774-192.637c1.147-13.166 10.225-24.293 22.892-28.058l94.672-28.146v-26.874h38.431.014l65.57 139.254-65.572 167.064h-87.752l-11.137-137.136-9.519 109.325z" fill="#ffccbd" data-original="#ffccbd" style="" class=""/></g><g><path d="m428.897 385.699c-.001-.924-.033-1.854-.114-2.792l-16.774-192.637c-1.147-13.166-10.225-24.293-22.892-28.058l-94.672-28.146v-26.874h-38.431-.014l.002 306.318h87.752l11.137-137.136 9.519 109.325z" fill="#ffbda9" data-original="#ffbda9" style="" class=""/></g></g><g><path d="m285.79 337.101-29.79 65.025c-35.912 0-65.025-29.113-65.025-65.025s29.113-65.025 65.025-65.025z" fill="#ff8495" data-original="#ff8495" style=""/><path d="m321.025 337.101c0 35.912-29.113 65.025-65.025 65.025v-130.049c35.912 0 65.025 29.112 65.025 65.024z" fill="#ff6379" data-original="#ff6379" style=""/></g><g><g><path d="m256 181.876h-20.619v-19.692h20.619l6.952 9.846z" fill="#f9f9f9" data-original="#f9f9f9" style=""/><path d="m256 162.184h20.619v19.691h-20.619z" fill="#eeeae7" data-original="#eeeae7" style=""/></g><g><path d="m256 214.305h-20.619v-19.691h20.619l6.952 9.846z" fill="#f9f9f9" data-original="#f9f9f9" style=""/><path d="m256 194.614h20.619v19.691h-20.619z" fill="#eeeae7" data-original="#eeeae7" style=""/></g><g><path d="m256 246.735h-20.619v-19.691h20.619l6.952 9.846z" fill="#f9f9f9" data-original="#f9f9f9" style=""/><path d="m256 227.044h20.619v19.691h-20.619z" fill="#eeeae7" data-original="#eeeae7" style=""/></g><g><path d="m256 279.165h-20.619v-19.691h20.619l6.952 9.846z" fill="#f9f9f9" data-original="#f9f9f9" style=""/><path d="m256 259.474h20.619v19.691h-20.619z" fill="#eeeae7" data-original="#eeeae7" style=""/></g><g><path d="m256 311.595h-20.619v-19.691h20.619l5.926 9.846z" fill="#f9f9f9" data-original="#f9f9f9" style=""/><path d="m256 291.904h20.619v19.691h-20.619z" fill="#eeeae7" data-original="#eeeae7" style=""/></g><g><path d="m256 344.025h-20.619v-19.691h20.619l6.952 9.846z" fill="#f9f9f9" data-original="#f9f9f9" style=""/><path d="m256 324.334h20.619v19.691h-20.619z" fill="#eeeae7" data-original="#eeeae7" style=""/></g><g><path d="m256 376.455h-20.619v-19.691h20.619l5.926 9.846z" fill="#f9f9f9" data-original="#f9f9f9" style=""/><path d="m256 356.764h20.619v19.691h-20.619z" fill="#eeeae7" data-original="#eeeae7" style=""/></g></g><g fill="#ff415b"><g><path d="m301.403 338.907v-9.455l36.42-2.037v13.529z" fill="#000000" data-original="#000000" style=""/><path d="m294.63 318.228-3.227-8.887 33.538-14.345 4.617 12.716z" fill="#000000" data-original="#000000" style=""/><path d="m294.63 350.132-3.227 8.887 33.538 14.345 4.617-12.717z" fill="#000000" data-original="#000000" style=""/></g><g><path d="m210.597 329.452v9.455l-36.42 2.037v-13.529z" fill="#000000" data-original="#000000" style=""/><path d="m217.37 350.132 3.227 8.887-33.538 14.345-4.617-12.717z" fill="#000000" data-original="#000000" style=""/><path d="m217.37 318.228 3.227-8.887-33.538-14.345-4.617 12.716z" fill="#000000" data-original="#000000" style=""/></g></g></g></g></g></svg>
