<svg xmlns="http://www.w3.org/2000/svg" viewBox="0 0 250 76.9"><path d="M213.7 33.5c-4.4-5.4-10.4-8.2-16.9-9.9-6.9-1.8-14-2.2-21.2-2.1-9.1.1-18.2 1.1-27.2 2.4-1.1.2-2 0-3-.7-9.8-6.6-20.6-10.8-32.4-12.3-8.1-1-16.2-.7-24.3.4C76.5 13 64.6 16.4 52.5 19c-4.4.9-8.9 1.7-13.3 2.5-.5.1-1 0-1.5-.1 4-1.1 7.9-2.3 11.8-3.7 7.7-2.6 15.2-5.8 22.7-8.9C80.4 5.6 88.6 2.5 97.3 1c11.7-2.1 23.1-.7 34.2 3.4 7.9 2.9 15.1 7.2 22.4 11.1 1.5.8 3 .4 4.4.3 7.5-.7 15.1-1.2 22.6-.7 6.3.4 12.6 1.2 18.6 3.5 5.5 2.1 10.3 5.1 12.9 10.6.6 1.3 1.2 2.7 1.3 4.3z" fill="#a9a9ab"/><path d="M200.4 59.7l11.7 16.4h-8.6c-.7 0-.9-.6-1.2-1L193 61.9c-.5-.7-1-1-1.9-1h-6.9c-1.1 0-1.3.3-1.3 1.3.1 4.1 0 8.2.1 12.3 0 1.2-.2 1.7-1.5 1.6-1.6-.1-3.1-.1-4.7 0-1.3.1-1.6-.3-1.6-1.6V45.6 34c0-1 .2-1.5 1.3-1.4l19 .1c4.6.1 9 1.2 12.1 4.9 6.1 7.2 3.3 18.1-5.4 21.5-.7.2-1.2.4-1.8.6zm-17.6-12.9V53c0 .7.1 1.1 1 1.1 3.6 0 7.2.1 10.8-.1 3-.1 5.8-1 7.4-3.9 2.7-4.8-.5-10.1-6.4-10.4-3.9-.2-7.8 0-11.8-.1-.9 0-1 .3-1 1.1v6.1zm-48.6 7.6v-20c0-1.3.2-1.8 1.7-1.8h28.9c1.4 0 1.7.4 1.6 1.7-.1 1.7.5 3.9-.3 4.9-1 1.1-3.3.3-5 .3h-17.8c-1.2 0-1.5.3-1.5 1.5v8.2c-.1 1.4.5 1.5 1.6 1.5l18.7-.1c1.3 0 1.7.3 1.6 1.6s-.1 2.7 0 4c.1 1.2-.4 1.4-1.4 1.3-6.2 0-12.5 0-18.7-.1-1.6 0-1.9.4-1.8 1.9.1 2.7.1 5.4 0 8.1-.1 1.5.5 1.7 1.8 1.7l21.5-.1c1.4 0 1.8.4 1.6 1.7-.2 1.7.7 4-.4 5-.9.8-3.2.3-4.9.3-8.5 0-16.9-.1-25.4.1-1.7 0-2-.5-2-2.1.3-6.5.2-13 .2-19.6zM70.1 32c5.9 0 10.8 1.5 15.1 4.7.8.6 1 1 .3 1.8-1 1.2-1.9 2.5-2.7 3.8-.6.9-1 .9-1.8.3-2.8-2-5.9-3.4-9.4-3.7-2-.2-3.9 0-5.7.9-1.7.9-2.7 2.3-2.7 4.3 0 1.9 1 3.3 2.7 4.2 2.4 1.3 5.1 1.9 7.8 2.6 2.4.6 4.7 1.3 7 2.4 4.6 2.2 7.1 5.7 6.8 10.9-.2 5.2-2.6 9-7.3 10.9-8.6 3.5-16.6 1.7-24-3.4-2.6-1.8-2.6-1.9-.5-4.2.9-1 1.6-2.6 2.7-2.9s2.1 1.3 3.2 2.1c4.5 2.8 9.2 4.1 14.4 2.6 3.1-.9 4.4-3.6 3.7-6.4-.4-1.5-1.5-2.3-2.8-2.9-2.7-1.4-5.7-1.9-8.6-2.7-1.9-.5-3.9-1.1-5.7-2-3.8-1.7-6.4-4.4-6.8-8.8-.5-5 1-9.1 5.3-11.9 2.7-2 6-2.7 9-2.6zm162.3 0c6 0 10.8 1.5 15.2 4.6.9.6 1.2 1.1.4 2.1-1 1.1-1.8 2.4-2.6 3.7-.6.9-1 .9-1.8.3-2.8-2-5.9-3.4-9.4-3.7-1.9-.2-3.8 0-5.6.9-1.7.9-2.8 2.3-2.8 4.2 0 2 .9 3.4 2.7 4.3 2.5 1.3 5.1 1.9 7.8 2.6 2.6.6 5 1.5 7.4 2.6 8.9 4 7.7 16.2 1.4 20.3-3.6 2.4-7.6 3.1-11.8 2.9-6-.3-11.2-2.3-15.9-6-.9-.7-1.1-1.2-.2-2.1 1.1-1.1 2-2.3 2.9-3.5.6-.8 1-.9 1.8-.2 3.3 2.7 7 4.6 11.4 4.9 2.1.1 4.3 0 6.2-1 1.8-.9 2.8-2.4 2.8-4.4 0-2.1-1.1-3.5-2.8-4.4-2.4-1.2-4.9-1.8-7.5-2.4-2.3-.6-4.6-1.3-6.9-2.2-4.6-2-7.1-5.4-7.1-10.4s2.1-8.7 6.5-11.1c2.7-1.5 5.5-2.1 7.9-2zM113.2 58.1v16.7c0 1.1-.3 1.4-1.4 1.4-1.7-.1-3.4-.1-5 0-1.3.1-1.4-.4-1.4-1.5l.1-33.1c0-1.4-.3-1.8-1.7-1.8-3.6.1-7.2 0-10.8.1-1 0-1.4-.2-1.3-1.3.1-1.6.1-3.1 0-4.7 0-.8.1-1.2 1.1-1.2h33.3c.8 0 1.1.3 1 1.1 0 1.7-.1 3.4 0 5 0 1-.4 1.1-1.2 1.1h-11.3c-1.1 0-1.4.3-1.4 1.4v16.8zM0 54.3V34.1c0-1.2.3-1.6 1.5-1.5 1.6.1 3.1.1 4.7 0 1.3-.1 1.6.3 1.6 1.6L7.7 67c0 1.8.5 2.2 2.2 2.2l19.2-.1c1.2 0 1.7.2 1.6 1.6-.1 1.3-.1 2.7 0 4 .1 1.2-.3 1.5-1.5 1.5-7.5-.1-14.9 0-22.4 0-1.7 0-3.5-.1-5.2 0-1.2 0-1.6-.3-1.6-1.6V54.3zm45.8.1v20.3c0 1.1-.3 1.5-1.4 1.4-1.7-.1-3.5-.1-5.2 0-.9 0-1.2-.2-1.2-1.1V34c0-1 .3-1.4 1.4-1.4 1.6.1 3.3.1 4.9 0 1.2-.1 1.5.3 1.5 1.5v20.3z" fill="#033879"/></svg>