<?xml version="1.0" encoding="utf-8"?>
<svg version="1.1" id="Layer_1" xmlns="http://www.w3.org/2000/svg" xmlns:xlink="http://www.w3.org/1999/xlink" x="0px" y="0px"
	 viewBox="0 0 299 125" style="enable-background:new 0 0 299 125;" xml:space="preserve">
<g id="Layer_x0020_1">
	<path style="fill:#267E44;" d="M150.1,61.8h27.1c0,0,5.2,0.8,8.6-4.4c4.3-6.7,17.8-26.2,17.8-26.2s4.2-4.4,0.1-10.9
		c-3.5-5.5-13.4-19.6-13.4-19.6s2.4,4.5-1.1,9.5c-4.8,7.1-32.2,48.3-32.2,48.3s-2.1,3.1-4.8,1.4c-1.4-0.9-1.2-2.1,0-4.3
		c1.2-2.1,13.7-19.9,13.7-19.9s2.2-2.7,2.2-5.8c0-2.5,0.2-2.7-1.6-5.6c-2-3.3-17.1-24.2-17.1-24.2s-15.1,20.9-17.1,24.2
		c-1.8,2.9-1.6,3.1-1.6,5.6c0,3.1,2.2,5.8,2.2,5.8s12.5,17.8,13.6,19.9c1.2,2.1,1.4,3.3,0,4.3c-2.7,1.8-4.8-1.4-4.8-1.4
		s-27.3-41.2-32.2-48.3c-3.4-5-1.1-9.5-1.1-9.5s-9.9,14.1-13.4,19.6c-4.1,6.5,0.1,10.9,0.1,10.9s13.5,19.6,17.8,26.2
		c3.3,5.2,8.6,4.4,8.6,4.4L150.1,61.8L150.1,61.8z"/>
	<path style="fill:#267E44;" d="M150.1,61.8h27.1c0,0,5.2,0.8,8.6-4.4c4.3-6.7,17.8-26.2,17.8-26.2s4.2-4.4,0.1-10.9
		c-3.5-5.5-13.4-19.6-13.4-19.6s2.4,4.5-1.1,9.5c-4.8,7.1-32.2,48.3-32.2,48.3s-2.1,3.1-4.8,1.4c-1.4-0.9-1.2-2.1,0-4.3
		c1.2-2.1,13.7-19.9,13.7-19.9s2.2-2.7,2.2-5.8c0-2.5,0.2-2.7-1.6-5.6c-2-3.3-17.1-24.2-17.1-24.2s-15.1,20.9-17.1,24.2
		c-1.8,2.9-1.6,3.1-1.6,5.6c0,3.1,2.2,5.8,2.2,5.8s12.5,17.8,13.6,19.9c1.2,2.1,1.4,3.3,0,4.3c-2.7,1.8-4.8-1.4-4.8-1.4
		s-27.3-41.2-32.2-48.3c-3.4-5-1.1-9.5-1.1-9.5s-9.9,14.1-13.4,19.6c-4.1,6.5,0.1,10.9,0.1,10.9s13.5,19.6,17.8,26.2
		c3.3,5.2,8.6,4.4,8.6,4.4L150.1,61.8L150.1,61.8z"/>
	<path style="fill:#267E44;" d="M79.6,115.7c-2.9,1.5-6.6,3-9.9,3c-5.2,0-8.6-3.6-8.6-8.7h18.2c-0.2-9-4.6-14.4-13.9-14.4
		c-8.2,0-14.4,5.9-14.4,14.2c0,4.4,1.6,8.8,5.3,11.5c3.3,2.4,7.8,2.9,11.7,2.9c3.1,0,6.4-0.6,9.2-1.8L79.6,115.7L79.6,115.7z
		 M61.1,105c0.3-2.4,1.7-4.3,4.3-4.3c2.8,0,3.9,2,3.9,4.3H61.1z"/>
	<path style="fill:#267E44;" d="M79.6,115.7c-2.9,1.5-6.6,3-9.9,3c-5.2,0-8.6-3.6-8.6-8.7h18.2c-0.2-9-4.6-14.4-13.9-14.4
		c-8.2,0-14.4,5.9-14.4,14.2c0,4.4,1.6,8.8,5.3,11.5c3.3,2.4,7.8,2.9,11.7,2.9c3.1,0,6.4-0.6,9.2-1.8L79.6,115.7L79.6,115.7z
		 M61.1,105c0.3-2.4,1.7-4.3,4.3-4.3c2.8,0,3.9,2,3.9,4.3H61.1z"/>
	<path style="fill:#267E44;" d="M81.8,122.8c3.2,0.7,6.6,1.3,9.9,1.3c6.2,0,15-1.8,15-9.6c0-3-2-5.3-4.5-6.9
		c-1.9-1.2-4.3-1.9-6.4-2.5c-1.4-0.4-3.3-0.9-3.3-2.7c0-1.6,2.3-1.9,3.5-1.9c2.6,0,5.3,0.8,7.5,2.3v-6.1c-3-0.7-6-1.1-9.1-1.1
		c-3.1,0-6.2,0.3-8.9,1.9c-2.7,1.5-4.3,3.9-4.3,7.1c0,7.9,14,8.2,14,12.1c0,2.2-2.5,2.6-4.2,2.6c-3.7,0-7.3-1.4-10.4-3.2L81.8,122.8
		L81.8,122.8z"/>
	<path style="fill:#267E44;" d="M81.8,122.8c3.2,0.7,6.6,1.3,9.9,1.3c6.2,0,15-1.8,15-9.6c0-3-2-5.3-4.5-6.9
		c-1.9-1.2-4.3-1.9-6.4-2.5c-1.4-0.4-3.3-0.9-3.3-2.7c0-1.6,2.3-1.9,3.5-1.9c2.6,0,5.3,0.8,7.5,2.3v-6.1c-3-0.7-6-1.1-9.1-1.1
		c-3.1,0-6.2,0.3-8.9,1.9c-2.7,1.5-4.3,3.9-4.3,7.1c0,7.9,14,8.2,14,12.1c0,2.2-2.5,2.6-4.2,2.6c-3.7,0-7.3-1.4-10.4-3.2L81.8,122.8
		L81.8,122.8z"/>
	<path style="fill:#267E44;" d="M118.6,101.8h1.6c2.2,0,3.4-0.2,4.8,1.2h0.2v-6.8h-6.6V95c0-2.5-0.3-5.3,3.1-5.3c1,0,1.6,0.4,2.4,1
		l3.9-6c-2.1-0.7-4.3-0.8-7.1-0.8c-3.3,0-6.4,0.5-9.2,2.8c-2.9,2.4-3.3,5.2-3.3,8.9v0.8l-3.9,5.6h3.9v15c-0.1,2.8,0.2,4.5-2,6.3v0.2
		h14.2v-0.2c-2.1-1.8-2-3.5-2.1-6.3L118.6,101.8L118.6,101.8z"/>
	<path style="fill:#267E44;" d="M118.6,101.8h1.6c2.2,0,3.4-0.2,4.8,1.2h0.2v-6.8h-6.6V95c0-2.5-0.3-5.3,3.1-5.3c1,0,1.6,0.4,2.4,1
		l3.9-6c-2.1-0.7-4.3-0.8-7.1-0.8c-3.3,0-6.4,0.5-9.2,2.8c-2.9,2.4-3.3,5.2-3.3,8.9v0.8l-3.9,5.6h3.9v15c-0.1,2.8,0.2,4.5-2,6.3v0.2
		h14.2v-0.2c-2.1-1.8-2-3.5-2.1-6.3L118.6,101.8L118.6,101.8z"/>
	<path style="fill:#267E44;" d="M165.8,95.5h-0.2c-1.1,0.6-2.4,0.9-3.8,0.9h-8.2v0.2c2.2,1.8,2,3.6,2,6.3v14.1c0,2.8,0.2,4.5-2,6.3
		v0.2h14.2v-0.2c-2.2-1.8-2-3.6-2-6.3v-8.9c0-1.5-0.2-2.5,0.8-3.6c1.2-1.4,2.9-2,4.6-2c1,0,2.1,0.2,3.1,0.5v-7.2l-2.2-0.2
		c-3,0-5.5,1.5-6.3,4.2L165.8,95.5L165.8,95.5z"/>
	<path style="fill:#267E44;" d="M165.8,95.5h-0.2c-1.1,0.6-2.4,0.9-3.8,0.9h-8.2v0.2c2.2,1.8,2,3.6,2,6.3v14.1c0,2.8,0.2,4.5-2,6.3
		v0.2h14.2v-0.2c-2.2-1.8-2-3.6-2-6.3v-8.9c0-1.5-0.2-2.5,0.8-3.6c1.2-1.4,2.9-2,4.6-2c1,0,2.1,0.2,3.1,0.5v-7.2l-2.2-0.2
		c-3,0-5.5,1.5-6.3,4.2L165.8,95.5L165.8,95.5z"/>
	<path style="fill:#267E44;" d="M188,95.5h-0.2c-1.2,0.6-2.5,0.9-3.8,0.9h-8.2v0.2c2.2,1.8,2,3.5,2,6.3v14.1c0,2.8,0.2,4.4-2,6.3
		v0.2h14.2v-0.2c-2.2-1.9-2.1-3.6-2.1-6.3v-8.8c0-2.4-0.5-6.4,3.1-6.4c3.6,0,3.2,3.9,3.2,6.4v8.8c0,2.8,0.2,4.4-2,6.3v0.2h14.2v-0.2
		c-2.2-1.9-2.1-3.6-2.1-6.3v-9.7c0-2.2-0.2-5.5,3.2-5.5c3.3,0,3.1,3.2,3.1,5.5v9.7c0,2.8,0.2,4.4-2,6.3v0.2h14.2v-0.2
		c-2.2-1.9-2.1-3.6-2.1-6.3v-11.8c0-3.1-0.5-5.3-3-7.3c-2-1.6-4.6-2.2-7.2-2.2c-3.3,0-6.3,0.9-8.6,3.4c-1.8-2.2-4.2-3.4-7-3.4
		c-3,0-5.4,1.1-7.1,3.4L188,95.5L188,95.5z"/>
	<path style="fill:#267E44;" d="M188,95.5h-0.2c-1.2,0.6-2.5,0.9-3.8,0.9h-8.2v0.2c2.2,1.8,2,3.5,2,6.3v14.1c0,2.8,0.2,4.4-2,6.3
		v0.2h14.2v-0.2c-2.2-1.9-2.1-3.6-2.1-6.3v-8.8c0-2.4-0.5-6.4,3.1-6.4c3.6,0,3.2,3.9,3.2,6.4v8.8c0,2.8,0.2,4.4-2,6.3v0.2h14.2v-0.2
		c-2.2-1.9-2.1-3.6-2.1-6.3v-9.7c0-2.2-0.2-5.5,3.2-5.5c3.3,0,3.1,3.2,3.1,5.5v9.7c0,2.8,0.2,4.4-2,6.3v0.2h14.2v-0.2
		c-2.2-1.9-2.1-3.6-2.1-6.3v-11.8c0-3.1-0.5-5.3-3-7.3c-2-1.6-4.6-2.2-7.2-2.2c-3.3,0-6.3,0.9-8.6,3.4c-1.8-2.2-4.2-3.4-7-3.4
		c-3,0-5.4,1.1-7.1,3.4L188,95.5L188,95.5z"/>
	<path style="fill:#267E44;" d="M251.7,115.7c-2.9,1.5-6.6,3-9.9,3c-5.2,0-8.6-3.6-8.6-8.7h18.2c-0.2-9-4.6-14.4-13.9-14.4
		c-8.2,0-14.4,5.9-14.4,14.2c0,4.4,1.6,8.8,5.3,11.5c3.3,2.4,7.8,2.9,11.7,2.9c3.1,0,6.4-0.6,9.2-1.8L251.7,115.7L251.7,115.7z
		 M233.2,105c0.3-2.4,1.7-4.3,4.3-4.3c2.8,0,3.9,2,3.9,4.3H233.2z"/>
	<path style="fill:#267E44;" d="M251.7,115.7c-2.9,1.5-6.6,3-9.9,3c-5.2,0-8.6-3.6-8.6-8.7h18.2c-0.2-9-4.6-14.4-13.9-14.4
		c-8.2,0-14.4,5.9-14.4,14.2c0,4.4,1.6,8.8,5.3,11.5c3.3,2.4,7.8,2.9,11.7,2.9c3.1,0,6.4-0.6,9.2-1.8L251.7,115.7L251.7,115.7z
		 M233.2,105c0.3-2.4,1.7-4.3,4.3-4.3c2.8,0,3.9,2,3.9,4.3H233.2z"/>
	<path style="fill:#267E44;" d="M263.7,95.5h-0.2c-1.1,0.6-2.4,0.9-3.8,0.9h-8.2v0.2c2.2,1.8,2,3.6,2,6.3v14.1c0,2.8,0.2,4.5-2,6.3
		v0.2h14.2v-0.2c-2.2-1.8-2-3.6-2-6.3v-8.9c0-1.5-0.2-2.5,0.8-3.6c1.2-1.4,2.9-2,4.6-2c1,0,2.1,0.2,3.1,0.5v-7.2l-2.2-0.2
		c-3,0-5.5,1.5-6.3,4.2L263.7,95.5L263.7,95.5z"/>
	<path style="fill:#267E44;" d="M263.7,95.5h-0.2c-1.1,0.6-2.4,0.9-3.8,0.9h-8.2v0.2c2.2,1.8,2,3.6,2,6.3v14.1c0,2.8,0.2,4.5-2,6.3
		v0.2h14.2v-0.2c-2.2-1.8-2-3.6-2-6.3v-8.9c0-1.5-0.2-2.5,0.8-3.6c1.2-1.4,2.9-2,4.6-2c1,0,2.1,0.2,3.1,0.5v-7.2l-2.2-0.2
		c-3,0-5.5,1.5-6.3,4.2L263.7,95.5L263.7,95.5z"/>
	<path style="fill:#267E44;" d="M274.2,122.8c3.2,0.7,6.6,1.3,9.9,1.3c6.2,0,15-1.8,15-9.6c0-3-2-5.3-4.5-6.9
		c-1.9-1.2-4.3-1.9-6.4-2.5c-1.4-0.4-3.3-0.9-3.3-2.7c0-1.6,2.3-1.9,3.5-1.9c2.6,0,5.3,0.8,7.5,2.3v-6.1c-3-0.7-6-1.1-9.1-1.1
		c-3.1,0-6.2,0.3-8.9,1.9c-2.7,1.5-4.3,3.9-4.3,7.1c0,7.9,14,8.2,14,12.1c0,2.2-2.5,2.6-4.2,2.6c-3.7,0-7.3-1.4-10.4-3.2
		L274.2,122.8L274.2,122.8z"/>
	<path style="fill:#267E44;" d="M274.2,122.8c3.2,0.7,6.6,1.3,9.9,1.3c6.2,0,15-1.8,15-9.6c0-3-2-5.3-4.5-6.9
		c-1.9-1.2-4.3-1.9-6.4-2.5c-1.4-0.4-3.3-0.9-3.3-2.7c0-1.6,2.3-1.9,3.5-1.9c2.6,0,5.3,0.8,7.5,2.3v-6.1c-3-0.7-6-1.1-9.1-1.1
		c-3.1,0-6.2,0.3-8.9,1.9c-2.7,1.5-4.3,3.9-4.3,7.1c0,7.9,14,8.2,14,12.1c0,2.2-2.5,2.6-4.2,2.6c-3.7,0-7.3-1.4-10.4-3.2
		L274.2,122.8L274.2,122.8z"/>
	<path style="fill:#267E44;" d="M28.2,100.7c0,0,8.3,24.2,8.5,24.3c0,0,6.4,0,6.5,0l12.4-40.1v-0.2h-9.9v0.2c1.1,1.2,2,2.6,2,4.4
		c0,1.5-0.6,3.3-1,4.7l-4.9,17.5h-0.2l-5.6-19.3c-0.6-2.1-1.4-4.1-1.4-6.3c0-0.4,0.1-0.8,0.2-1v-0.2H22.4v0.2c1.4,1.1,2.6,4.3,2.6,6
		c0,1.2-0.6,3.3-0.9,4.5l-4.1,16.1h-0.2l-7.2-26.7v-0.1H0v0.2c2.1,1.7,3.1,3.8,3.8,6.4l6.4,22c1.2,4,3.8,11.4,3.9,11.6
		c0.1,0.1,5.9-0.2,8,0L28.2,100.7L28.2,100.7z"/>
	<path style="fill:#267E44;" d="M28.2,100.7c0,0,8.3,24.2,8.5,24.3c0,0,6.4,0,6.5,0l12.4-40.1v-0.2h-9.9v0.2c1.1,1.2,2,2.6,2,4.4
		c0,1.5-0.6,3.3-1,4.7l-4.9,17.5h-0.2l-5.6-19.3c-0.6-2.1-1.4-4.1-1.4-6.3c0-0.4,0.1-0.8,0.2-1v-0.2H22.4v0.2c1.4,1.1,2.6,4.3,2.6,6
		c0,1.2-0.6,3.3-0.9,4.5l-4.1,16.1h-0.2l-7.2-26.7v-0.1H0v0.2c2.1,1.7,3.1,3.8,3.8,6.4l6.4,22c1.2,4,3.8,11.4,3.9,11.6
		c0.1,0.1,5.9-0.2,8,0L28.2,100.7L28.2,100.7z"/>
	<path style="fill:#267E44;" d="M143.9,123.4c1.5,0.6,3.1,0.8,4.8,0.8l2.4-0.2l2.4-5.1c-5.1-0.1-4.9-3.3-4.9-7.3v-4.7
		c0-3.4-0.3-6.8-3.2-9c-2.3-1.7-5.4-2.2-8.2-2.2c-2.5,0-5,0.2-7.4,0.8l-2.8,6.7c2.2-1.1,5-1.9,7.4-1.9c1.5,0,3.8,0.6,3.8,2.5
		c0,4.9-16.1,1.3-16.1,12.2c0,2.7,1.5,5.5,3.9,6.9c1.7,1.1,4.3,1.4,6.3,1.4L143.9,123.4L143.9,123.4z M139.2,119.5
		c-1.1,0-3.3-0.2-3.6-0.2c-1.5-0.2-2.6-2-2.6-4.1c0-1.9,1.9-2.8,3.3-3.5l1.9-0.9v1.9C138.2,115.3,138.1,117.5,139.2,119.5z"/>
	<path style="fill:#267E44;" d="M143.9,123.4c1.5,0.6,3.1,0.8,4.8,0.8l2.4-0.2l2.4-5.1c-5.1-0.1-4.9-3.3-4.9-7.3v-4.7
		c0-3.4-0.3-6.8-3.2-9c-2.3-1.7-5.4-2.2-8.2-2.2c-2.5,0-5,0.2-7.4,0.8l-2.8,6.7c2.2-1.1,5-1.9,7.4-1.9c1.5,0,3.8,0.6,3.8,2.5
		c0,4.9-16.1,1.3-16.1,12.2c0,2.7,1.5,5.5,3.9,6.9c1.7,1.1,4.3,1.4,6.3,1.4L143.9,123.4L143.9,123.4z M139.2,119.5
		c-1.1,0-3.3-0.2-3.6-0.2c-1.5-0.2-2.6-2-2.6-4.1c0-1.9,1.9-2.8,3.3-3.5l1.9-0.9v1.9C138.2,115.3,138.1,117.5,139.2,119.5z"/>
</g>
</svg>
