<?xml version="1.0" encoding="utf-8"?>
<svg version="1.1" id="Layer_1" xmlns="http://www.w3.org/2000/svg" xmlns:xlink="http://www.w3.org/1999/xlink" x="0px" y="0px"
	width="100px" height="100px" viewBox="0 0 105.6 105.6" style="enable-background:new 0 0 105.6 105.6;" xml:space="preserve">
<g>
	<g>
		<path style="fill:#1D1D1B;" d="M31,49.3v-4.6h4.2v-2c0-2.2,0.7-4.1,2.1-5.5s3.5-2.1,6.4-2.1c0.6,0,1.2,0,1.9,0.1
			c0.6,0,1.2,0.1,1.8,0.1v5.2c-0.8-0.1-1.7-0.1-2.5-0.1c-0.9,0-1.6,0.2-2,0.7c-0.4,0.4-0.6,1.2-0.6,2.2v1.5h4.8v4.6h-4.8V70h-6.9
			V49.3H31L31,49.3z M67.9,66.7c-0.8,1.4-1.9,2.4-3.2,3s-2.8,0.9-4.5,0.9c-1.7,0-3.4-0.4-5-1.1c-1.4-0.7-2.6-1.7-3.5-3
			c-0.9-1.3-1.6-2.8-2.1-4.3c-0.5-1.6-0.7-3.3-0.7-5.1c0-1.7,0.2-3.3,0.7-4.9s1.2-3,2.1-4.2s2.1-2.2,3.5-2.9s3-1.1,4.9-1.1
			c1.5,0,2.9,0.3,4.3,1c1.3,0.6,2.4,1.6,3.2,2.8h0.1V35h6.9v34.9H68L67.9,66.7L67.9,66.7L67.9,66.7z M67.6,54.2
			c-0.2-1-0.5-1.8-1-2.5c-0.5-0.7-1.1-1.3-1.8-1.8c-0.7-0.5-1.7-0.7-2.8-0.7s-2.1,0.2-2.9,0.7s-1.4,1.1-1.9,1.8s-0.8,1.6-1,2.6
			s-0.3,2-0.3,3s0.1,2,0.3,2.9c0.2,1,0.6,1.8,1.1,2.6c0.5,0.8,1.1,1.4,1.9,1.9c0.8,0.5,1.7,0.7,2.8,0.7s2.1-0.2,2.9-0.7
			s1.4-1.1,1.8-1.8c0.5-0.8,0.8-1.6,1-2.6s0.3-2,0.3-3L67.6,54.2L67.6,54.2z"/>
	</g>
	
		<circle style="fill:none;stroke:#1D1D1B;stroke-width:2;stroke-linejoin:round;stroke-miterlimit:10;" cx="52.8" cy="52.8" r="51.8"/>
</g>
</svg>
