<svg xmlns="http://www.w3.org/2000/svg" width="316" height="316" viewBox="0 0 395 395"><path d="M197.5 385.2C94.1 385.2 9.8 300.9 9.8 197.5S94.1 9.8 197.5 9.8s187.7 84.3 187.7 187.7-84.3 187.7-187.7 187.7m0-385.2C88.7 0 0 88.7 0 197.5S88.7 395 197.5 395 395 306.3 395 197.5 306.3 0 197.5 0m-45.2 337.7c0-2.4 2.6-4.4 8.5-4.4 2.6 0 7.2 1 9.9 2.5 1.1.6 2.1 1.3 3.1 2-4.2 3-9.5 4.5-13.6 4.5-5.1 0-7.9-2.1-7.9-4.6M67.5 133.1c1.7 0 3.3.3 4.8.7-16.8 11.1-31.5 25.5-40.4 43.6-.7 1.5-.7 1.4-.7-.6-.1-22 16.5-43.7 36.3-43.7m34.2-29.2c-6.3 0-9.6-2.7-9.6-6.9 0-5.1 5.2-6.1 5.2-11.3 0-3.5-3-6.4-5.5-6.4-1 0-1.7.3-1.7.9 0 .8 1.4.9 1.4 2.7 0 6-12.3 4-12.3 12.5 0 5.4 3.5 9.9 14.1 11.9 1.8.3 1.3.5 0 .8-1.8.4-4.5.6-8.7.6-10.9 0-16.3-4.1-16.3-9.3 0-12.1 21.1-34.7 43.3-47.7 27.3-16.1 46.2-20.2 56.9-20.2 8.9 0 12.4 2.2 12.4 8.8 0 3.4-1.1 6.7-3 9.6-1.5-.2-3-.3-4.6-.3-19.1 0-26.3 7.3-26.6 15.4-6.5-.2-10.1-2.2-10.1-6 0-8.4 15.9-6.6 15.9-15.7 0-1.4-.7-2.6-1.2-2.6-1.6 0 .4 5.4-13.9 7.3-9.9 1.3-15.1 3.6-15.1 9.4 0 8.5 9.4 11.9 24.3 11.9h.8c2.4 7.8 12.1 10.6 22.5 10 7.5-.4 13.1.1 13.1 3.4 0 4-7.5 4.8-16.4 4.8-.9 0-1.7 0-2.6.1-14.3-8.7-32.1-15.4-44.6-15.4-8.3 0-15.1 2.8-15.1 10 0 7 8.1 11 13.8 11 3.2 0 5.7-.3 5.7-1.7s-5.5-2.3-5.5-6.3c0-3.2 2.8-4.8 6.9-4.8 8.7 0 19 3.8 28.1 8.7-19.9 3.7-35.9 14.8-51.6 14.8m53.4-39.8v-.2c0-6.5 8.4-9.9 15.5-9.9 1.2 0 2.4.1 3.5.3-4.8 4.7-11.7 8.3-19 9.8M183 338.5c5.5-5.1 9.1-11.3 9.1-16.6 0-7.4-5.9-12.3-15.6-12.3-15.9 0-20.2 5.1-38.8 5.1-3.9 0-8.8-1.1-8.8-5.2 0-4.6 6.5-7 18.6-8.3 18.4-2 39.8-8.6 39.8-24 0-7.9-5.3-12.2-13.8-12.2-13.6 0-16 10.8-18.2 14.2-3.1 4.6-5.7.9-5.7 2.9 0 1.8 3.3 2.4 3.7 2.4 9.8 0 7.7-11.2 16.6-11.2 2 0 3.7 2 3.7 4.4 0 12.5-18.9 16.7-37.1 16.7-24.2 0-39.2-3.3-53-9a118.85 118.85 0 0 0 13.7.8c38 0 56.4-14.6 56.4-25.7 0-8.8-6.3-14-16.4-14-23.8 0-33.8 14.7-50.5 14.7-5 0-8.5-.6-8.5-4.4 0-4.4 6.3-6.7 6.3-11.5 0-2.5-2.1-3.7-3.5-3.7-.6 0-1.2.2-1.2.7 0 .6.5.6.5 1.8 0 6.9-17.7 7.2-17.7 15.5 0 6.7 9.1 8.9 15.3 8.9 23.4 0 38-14.4 50.1-14.4 6.4 0 10.6 2.9 10.6 9.8 0 8.3-10.3 17.2-41.8 17.2-50.5 0-67-30.1-67-69.6 0-31.5 20.5-57.2 47.6-74.8 1.9 1.8 3 4.1 3 6.5 0 12.4-20.1 9.5-20.1 19 0 10.1 19.1 6.6 19.1 13.6 0 3.4-2.8 4.3-2.8 5.4 0 .6.6.8 1.2.8 2.9 0 8.5-3.5 8.5-9.5 0-7.5-12.5-5.6-12.5-10.3 0-6.4 20.1-4.3 20.1-21.2 0-4.1-2.1-7.9-5.5-11 23.4-12.6 50.1-19.5 72.4-19.5 14.9 0 15.6 5.8 15.6 7.9 0 2.6-1.6 4.6-3.2 5.1-.4.1-.7.3-.8.5-.1.4.6.9 1.5.9 7.8 0 13.6-4.8 13.6-11.7 0-6.4-7.3-14.4-17.5-21.6 2.1-.1 4.2-.1 6.5-.1 8 0 15.2-3.5 15.2-7.4 0-14-29.8-4.5-35.6-15.8 9.4-1.8 18.2-6.1 25-11.3 2.3 1.7 3.6 3.8 3.6 5.6 0 7.1-7 5.4-7 7 0 1.5 1.9 2.3 4.7 2.3 6 0 11.8-3.9 11.8-9.3 0-4.4-2.9-8.1-7.8-10.4 4.9-5.1 7.9-10.7 7.9-15.7 0-10-7.8-13.8-20.5-13.8-14.7 0-36.3 5.8-60.5 19.1-16 8.8-30.6 19.5-41.2 30s-17.2 20.7-17.2 28.7c0 8.9 9 13.2 28.5 13.2 21.2 0 37.1-8.5 53.3-15.1 8.4-3.4 15.1-5.3 22.5-6.2 7.2 4.5 12.9 9.2 15.2 12.5.4.5.4.8-.5.6-3.2-.7-7.3-1.1-12.1-1.1-19 0-50 7.1-77.8 22.4-4.3-2.6-9.5-4.2-14.4-4.2-33.7 0-49.5 36.7-49.5 76.1 0 9.6.6 19 2.1 27.2 3 17.2 10.4 33.3 24 44.6 13.1 11.9 35.9 26.9 86.3 30.4-2.8 0-13.9 4.2-13.9 10.2 0 5.3 5.8 8.1 16.8 8.1 14.4 0 23.5-4.6 32.2-4.6 8.8 0 12.8 3.9 12.8 11.1a13.97 13.97 0 0 1-2.8 8.5c-8.7-6.1-20.2-10.5-33.5-10.5-11.9 0-23.1 5.4-23.1 13.6 0 7.6 9.2 11.7 16.3 11.7 3.7 0 5.8-1.2 5.8-2.4 0-.5-.5-.8-1.4-.8-3.1 0-8.8-3.4-8.8-8.6 0-5.1 4.5-8.5 12.7-8.5 3.4 0 4.4.1 6.5.5.9.1.9.5.1.6-3.3.4-8.1 3.5-8.1 8.5 0 6.7 6.6 10 15.7 10 6.7 0 13.3-2.5 18.8-6.3 3.2 3.6 5.1 7.5 5.1 11.3 0 5.9-5.1 10-14.1 10-5.1 0-11.7-1-19.7-3.1-11.8-3.2-27.1-9-41-18.1-18.9-12.4-29.2-20.9-29.2-28.9 0-3.7 2.7-5.7 5.3-5.7 10.6 0 9.2 15.4 21 15.4 3.8 0 6-2.5 6-4.9 0-.9-.4-1-.7-1-.9 0-1.8 1.4-3.7 1.4-3.4 0-4.9-2.6-6.2-5.4-4.2-8.7-9.4-16-20.5-16-7.6 0-13.3 3.9-13.3 11.2 0 14.9 17.5 27.3 34.8 38.1 18.7 11.7 40 20.6 50.9 23.1 9.9 2.3 18.2 3.3 23.3 3.3 10.4 0 17.6-5.2 17.6-14-.1-6.1-4.2-13.7-11.2-20.2m51.3-5.2c5.9 0 8.5 2 8.5 4.4 0 2.5-2.8 4.7-7.9 4.7-4.1 0-9.5-1.4-13.6-4.5.9-.7 2-1.4 3.1-2 2.7-1.7 7.3-2.6 9.9-2.6m129-155.9c-8.9-18-23.7-32.5-40.4-43.6 1.4-.5 3.1-.7 4.8-.7 19.8 0 36.4 21.7 36.4 43.7 0 2 0 2.1-.8.6m-134.4-90c-8.9 0-16.4-.8-16.4-4.8 0-3.3 5.6-3.8 13.1-3.4 10.4.6 20.1-2.3 22.5-10h.8c14.9 0 24.3-3.5 24.3-11.9 0-5.8-5.2-8-15.1-9.4-14.3-1.9-12.3-7.3-13.9-7.3-.5 0-1.2 1.2-1.2 2.6 0 9.1 15.9 7.2 15.9 15.7 0 3.7-3.6 5.8-10.1 6-.2-8.1-7.5-15.4-26.6-15.4-1.6 0-3.2.1-4.6.3-1.9-3-3-6.2-3-9.6 0-6.6 3.5-8.8 12.4-8.8 10.7 0 29.6 4.2 56.9 20.2 22 13.1 43.1 35.7 43.1 47.8 0 5.2-5.4 9.3-16.3 9.3-4.2 0-7-.1-8.7-.6-1.3-.3-1.8-.5 0-.8 10.6-2 14.1-6.5 14.1-11.9 0-8.5-12.3-6.5-12.3-12.5 0-1.8 1.4-1.9 1.4-2.7 0-.6-.7-.9-1.8-.9-2.5 0-5.5 2.9-5.5 6.4 0 5.3 5.2 6.2 5.2 11.3 0 4.2-3.3 6.9-9.6 6.9-15.7 0-31.7-11.1-51.2-15.1 9.1-4.8 19.4-8.7 28.1-8.7 4.1 0 6.9 1.6 6.9 4.8 0 4-5.6 4.9-5.6 6.3s2.5 1.7 5.7 1.7c5.6 0 13.8-4 13.8-11 0-7.2-6.8-10-15.1-10-12.5 0-30.3 6.7-44.6 15.4-.9.2-1.7.1-2.6.1m-7.8-33.1c1.1-.2 2.3-.3 3.5-.3 7.1 0 15.5 3.4 15.5 9.9v.2c-7.3-1.5-14.2-5.1-19-9.8m104.6 68.4c-4.9 0-10.1 1.6-14.4 4.2-27.9-15.3-58.8-22.4-77.8-22.4-4.7 0-8.9.4-12.1 1.1-.9.2-.8-.2-.5-.6 2.4-3.2 8.1-8 15.2-12.5 7.4 1 14 2.8 22.5 6.2 16.2 6.6 32.1 15.1 53.3 15.1 19.5 0 28.5-4.3 28.5-13.2 0-8-6.6-18.3-17.2-28.8S298 50.6 282 41.8c-24.2-13.3-45.8-19.1-60.5-19.1-12.7 0-20.5 3.8-20.5 13.7 0 5 3 10.6 7.9 15.7-4.9 2.3-7.8 6-7.8 10.4 0 5.4 5.8 9.3 11.8 9.3 2.8 0 4.7-.8 4.7-2.3s-7 .1-7-7c0-1.8 1.3-4 3.6-5.6 6.8 5.3 15.6 9.5 25 11.3-5.8 11.2-35.6 1.8-35.6 15.8 0 3.9 7.2 7.4 15.2 7.4 2.3 0 4.5 0 6.5.1-10.3 7.2-17.5 15.2-17.5 21.6 0 6.9 5.8 11.7 13.6 11.7.9 0 1.6-.4 1.5-.9 0-.2-.3-.4-.8-.5-1.5-.5-3.2-2.5-3.2-5.1 0-2.1.7-7.9 15.6-7.9 22.3 0 48.9 6.9 72.3 19.5-3.3 3.1-5.4 6.9-5.4 11 0 16.9 20.2 14.8 20.2 21.2 0 4.7-12.5 2.8-12.5 10.3 0 6 5.5 9.5 8.5 9.5.6 0 1.2-.2 1.2-.8 0-1.2-2.8-2-2.8-5.4 0-7 19.1-3.5 19.1-13.6 0-9.5-20.1-6.6-20.1-19 0-2.4 1.1-4.7 3-6.5 27.1 17.6 47.6 43.3 47.6 74.8 0 39.5-16.6 69.6-67 69.6-31.5 0-41.8-8.9-41.8-17.1 0-6.8 4.3-9.8 10.6-9.8 12.1 0 26.7 14.4 50.1 14.4 6.2 0 15.3-2.2 15.3-8.9 0-8.3-17.7-8.6-17.7-15.5 0-1.2.5-1.1.5-1.8 0-.5-.6-.7-1.2-.7-1.4 0-3.5 1.2-3.5 3.7 0 4.9 6.3 7.2 6.3 11.5 0 3.8-3.5 4.4-8.5 4.4-16.7 0-26.7-14.7-50.5-14.7-10.1 0-16.4 5.1-16.4 14 0 11.1 18.4 25.7 56.4 25.7 4.9 0 9.4-.3 13.8-.8-13.8 5.7-28.9 9-53 9-18.2 0-37.1-4.2-37.1-16.7 0-2.4 1.6-4.4 3.7-4.4 8.8 0 6.8 11.2 16.6 11.2.4 0 3.7-.5 3.7-2.4 0-2-2.6 1.7-5.7-2.9-2.3-3.4-4.6-14.2-18.2-14.2-8.5 0-13.8 4.2-13.8 12.2 0 15.4 21.4 21.9 39.8 24 12.1 1.3 18.6 3.7 18.6 8.3 0 4.1-5 5.2-8.8 5.2-18.6 0-22.9-5.1-38.8-5.1-9.6 0-15.5 4.8-15.5 12.3 0 5.3 3.6 11.5 9.1 16.6-7.1 6.5-11.2 14.1-11.2 20.2 0 8.8 7.2 14 17.6 14 5.1 0 13.4-1 23.3-3.3 10.9-2.5 32.2-11.4 50.9-23.1 17.3-10.8 34.8-23.1 34.8-38.1 0-7.4-5.7-11.2-13.3-11.2-11.1 0-16.3 7.3-20.5 16-1.3 2.8-2.8 5.3-6.2 5.3-1.9 0-2.8-1.4-3.7-1.4-.3 0-.7.1-.7 1 0 2.4 2.2 4.9 6 4.9 11.8 0 10.4-15.4 21-15.4 2.6 0 5.3 2 5.3 5.7 0 7.9-10.3 16.5-29.2 28.9-13.8 9.1-29.2 14.9-41 18.1-8 2.2-14.6 3.1-19.7 3.1-9 0-14.1-4.2-14.1-10 0-3.8 1.9-7.7 5.1-11.3 5.5 3.8 12.1 6.3 18.8 6.3 9.1 0 15.7-3.3 15.7-10 0-4.9-4.8-8.1-8.1-8.5-.8-.1-.8-.5.2-.6 2.1-.3 3.1-.4 6.5-.4 8.2 0 12.7 3.3 12.7 8.5s-5.7 8.6-8.8 8.6c-.9 0-1.4.2-1.4.7 0 1.2 2 2.4 5.8 2.4 7.1 0 16.3-4 16.3-11.7 0-8.2-11.2-13.6-23.1-13.6a58.97 58.97 0 0 0-33.5 10.4 13.97 13.97 0 0 1-2.8-8.5c0-7.2 4.1-11.1 12.8-11.1 8.8 0 17.8 4.6 32.2 4.6 11 0 16.8-2.8 16.8-8.1 0-6-11.1-10.2-13.9-10.2 50.4-3.4 73.2-18.4 86.3-30.4 13.6-11.2 21-27.3 24-44.6 1.5-8.2 2.1-17.6 2.1-27.2-.4-39.2-16.3-75.8-49.9-75.8m-180.5 58.5v3.1h15.6v-3.1c-3.5-.6-4.6-3.2-4.6-7.6v-10l.1-10.2c0-4.1 1-7.2 4.4-7.6v-3.1h-15.4v3.1c3.3.4 4.4 3.2 4.4 7.6l-.1 20.2c0 4.1-1 7.1-4.4 7.6m124.1-31.6c1.3 0 1.8 1.2 2.2 2.2l2.7 6.9c-4.4 2.7-8.5 7.5-12.6 15.5-2.2-2.1-3.1-5.1-3.1-8.5.1-9 7-16.1 10.8-16.1m-14.4 34.7h11.4c-.3-9.7 4.4-17.1 9.9-20.3l3.7 10.9c1.3 4 .7 5.9-2.8 6.4v3.1h17.8v-3.1c-4.2-1.4-5.7-2.2-7.9-8.1-1.6-4.2-2.9-7.8-4-11 3.2.3 3.2 2.4 5.3 2.4 1.9 0 2.9-2 2.9-3.6 0-3.1-2.1-5.3-6.2-5.3-1.4 0-2.7.1-4 .4-.2-.5-.3-.9-.5-1.4-2.4-7-1.7-8.4 1.7-8.9v-3.1H259v3.1c1.1.1 2.2.5 2.2 1.7 0 2.2-9.6 6.9-9.6 23.1-.1 4.6.6 8.9 3.3 13.7m-141.7 46.5v3H131v-3.1c-2.7-1.2-4-2.3-9-8.3-2.5-3-5.5-6.8-8.4-10.5l7.9-10.3c3.7-4.8 5.8-5.9 9.1-6.3v-3.1h-18.2v3.1c3.4.5 3.9 2.1.3 6.9-.9 1.2-2 2.7-3.3 4.3l-3.3-4.3c-3.6-4.8-3.1-6.4.3-6.9v-3.1H87.2v3.1c3.3.4 6.4 1.5 10.2 6.3l7.9 10.3c-2.8 3.7-5.8 7.5-8.4 10.5-5 6-6.3 7.1-9 8.3v3.1h17.8v-3c-3.5-.6-4.7-2.3-2.4-5.4.8-1.1 3.2-4.3 6.1-8l6.1 8c2.4 3.1 1.1 4.8-2.3 5.4"/><path d="M144.7 204.1c0-6.2 3.5-8.9 10.3-8.9 5 0 9.3 2 9.3 5.9 0 5.9-5.8 10.9-14.6 10.9-2.6 0-5.1-.5-5.1-5.5m3.2 9.4c1.4 0 2.7.2 4.6.2 14.8 0 23.3-9 23.3-16.9 0-4.9-3.5-7.4-12.7-7.4-3 0-9.7.4-13.8.4h-15.4v3.1c3.3.4 4.4 3.2 4.4 7.6l-.1 20.2c0 4-1 7.1-4.4 7.6v3.1h15.6v-3.1c-3.5-.6-4.6-3.2-4.6-7.6v-4c-.1-2.6 1.9-3.2 3.1-3.2m53.7 14.9v3.1h17.1v-3.1c-7.6-1-12.3-9.7-17.5-17.8.4.1 1.1.3 2.3.3 8.2 0 15.6-6.2 15.6-14.1 0-5-2.8-7.3-13.7-7.3-3 0-9.7.4-13.8.4H176v3.1c3.3.4 4.4 3.2 4.4 7.6l-.1 20.3c0 4-1 7.1-4.4 7.6v3h15.6v-3.1c-3.5-.6-4.6-3.2-4.6-7.6v-10.3l.1-8.8c0-6.2 3.5-8.9 10.3-8.9 5 0 10.5 1.4 10.5 6.1 0 5.9-4.8 6.8-7.6 6.8-4.6 0-7.1-2.2-8.8-4.2-.8 1-1.6 1.7-2.5 3l12.9 19.1c1.7 2.5 1.6 4.5-.3 4.8m91-25.6c1.3.7 1.9 1.2 3.2 2 3.9-1.1 8.8-4.1 8.8-8.4 0-3.1-2.7-7.8-15.6-7.8-13 0-17.9 4.9-17.9 8.6 0 10.6 24.9 15.3 24.9 24.3 0 3.4-2.1 6.2-10.3 6.2-5.5 0-9.4-2.1-9.4-5.5 0-4.9 3.2-6.1 3.2-8.1 0-1-.5-1.5-1.6-1.5-2.4 0-11.7 5.9-11.7 13.8 0 3.2 2.8 4.8 7.8 4.8 3.1 0 4.3.1 12.8.1l12.7-.1c5 0 7.8-1.6 7.8-4.8 0-14.4-26.3-21.5-26.3-27.9 0-2 2.5-3.5 7.6-3.5 4.3 0 7.3 1.3 7.3 3.1-.3 1.9-1.6 3.4-3.3 4.7m-89.9-57.3c1.8-2 2.4-4.3 1.8-5.4l-12.1.1c-5.1 0-15.7-.5-18.9-.5-6.9 0-10.2.6-10.2 4.1 0 6.4 7.1 12.9 9.9 14.1.9-.8 1.7-1.6 2.6-2.4-1.2-1.2-2-4.1-2-5.5 0-3.8 4.1-6.5 9.1-6.5 4.5 0 5.9 2.1 5.9 4.4 0 1.6-.9 3.2-2.5 5.1-1.5 2-19.2 21.6-20.8 23.4-1.9 2.1-1.5 5.1-1.5 5.1h40.2c.7-1 1.2-1.4 1.2-4.7 0-7.9-9.3-13.8-11.7-13.8-1.1 0-1.6.6-1.6 1.5 0 2.1 3.2 3.2 3.2 8.1 0 3.4-3.9 5.1-9.3 5.1-3.2 0-7.3-1.1-7.3-4.5 0-1.6 1.2-3.2 3-5.1 1.7-1.6 18.4-19.7 21-22.6m44.2.2c1.9-2 2.4-4.3 1.9-5.4l-12.1.1c-5.1 0-15.7-.5-18.9-.5-6.9 0-10.2.6-10.2 4.1 0 6.5 7.1 12.9 9.9 14.1.9-.9 1.8-1.6 2.6-2.4-1.2-1.2-2-4.1-2-5.5 0-3.8 4.1-6.6 9.1-6.6 4.5 0 5.9 2.2 5.9 4.4 0 1.6-.9 3.2-2.5 5.1-1.5 1.9-19.2 21.6-20.8 23.4-1.8 2.1-1.5 5.1-1.5 5.1h40.2c.7-1 1.2-1.5 1.2-4.7 0-7.9-9.3-13.8-11.7-13.8-1.1 0-1.6.5-1.6 1.5 0 2.1 3.2 3.2 3.2 8.1 0 3.4-3.9 5.1-9.3 5.1-3.3 0-7.3-1.1-7.3-4.5 0-1.6 1.2-3.2 3-5.1 1.7-1.5 18.4-19.6 20.9-22.5m74.1 67.1c-2.4 0-11.7 5.9-11.7 13.8 0 3.2 2.7 4.8 7.8 4.8 3.1 0 4.3.1 12.8.1l12.8-.1c5 0 7.8-1.6 7.8-4.8 0-14.5-26.3-21.5-26.3-27.9 0-2 2.4-3.5 7.6-3.5 4.4 0 7.3 1.3 7.3 3.1 0 1.6-1.3 3.2-3.1 4.5 1.3.7 1.9 1.2 3.2 2 3.9-1.1 8.7-4.1 8.7-8.4 0-3.1-2.7-7.8-15.6-7.8-13 0-17.9 4.9-17.9 8.6 0 10.6 24.9 15.3 24.9 24.3 0 3.4-2.1 6.2-10.3 6.2-5.5 0-9.4-2.1-9.4-5.5 0-4.9 3.2-6.1 3.2-8.1-.1-.8-.7-1.3-1.8-1.3m-203.1-52.7c-2.6 0-5.1-.5-5.1-5.5v-2.5c0-6.2 3.5-8.9 10.3-8.9 5 0 9.3 2 9.3 5.9.1 6-5.7 11-14.5 11m25.9-12.8c0-4.9-3.5-7.4-12.7-7.4-3 0-9.7.4-13.8.4h-15.4v3.1c3.3.4 4.4 3.2 4.4 7.6l-.1 20.3c0 4-1 7.1-4.4 7.6v3.1h15.7v-3.1c-3.5-.6-4.6-3.2-4.6-7.6v-4c0-2.6 2-3.2 3.1-3.2 1.4 0 2.7.2 4.5.2 14.8-.2 23.3-9.1 23.3-17m78.2 42.5v3.1c3.3.4 4.4 3.3 4.4 7.6l-.1 20.2c0 4-1 7.1-4.4 7.6v3.1h15.6l18 .2c5 0 7.8-1.8 7.8-5 0-7.9-9.3-13.8-11.7-13.8-1.1 0-1.6.5-1.6 1.5 0 2.1 3.1 3.2 3.1 8.1 0 3.4-2.9 5.8-8.7 5.8-8.4 0-11.5-3.9-11.5-13.5v-4.2-1.1c.9-.2 2.3-.4 4.5-.4 2.4 0 7.9.8 12.6.8s7.3-1.1 7.3-3.2c0-2-1.4-3.4-2.1-4.1-.4-.4-.6-.1-1.2.4-1.6 1.1-3.2 2.2-7.4 2.2s-9.9-.9-13.7-.3v-3c0-6.2 3.5-8.9 10.3-8.9 3.9 0 6.4 1.1 6.4 3.5 0 .8-.4 1.6-.6 2.3.7.7 1.3 1.2 2.1 1.9 4-1.8 7.3-5.2 7.3-8.1 0-1.8-.9-2.7-3.1-2.7l-18 .2m-192 38.3v3h15.6l18 .2c5 0 7.8-1.8 7.8-5 0-7.9-9.3-13.8-11.7-13.8-1.1 0-1.6.5-1.6 1.5 0 2.1 3.1 3.2 3.1 8.1 0 3.4-2.9 5.8-8.7 5.8-8.4 0-11.5-3.9-11.5-13.5v-4.2-1.1c.9-.2 2.3-.4 4.5-.4 2.4 0 7.9.8 12.6.8s7.3-1.1 7.3-3.2c0-2-1.4-3.4-2.1-4.1-.4-.4-.6-.1-1.2.4-1.6 1.1-3.2 2.2-7.4 2.2s-9.9-.9-13.7-.3v-3c0-6.2 3.5-8.9 10.3-8.9 3.9 0 6.4 1.1 6.4 3.5 0 .8-.3 1.6-.6 2.2.7.7 1.3 1.2 2.1 1.9 4.1-1.8 7.3-5.2 7.3-8.1 0-1.9-.9-2.7-3.1-2.7l-18 .2H45.3v3.1c3.3.4 4.4 3.2 4.4 7.6l-.1 20.2c0 4.1-1 7.1-4.4 7.6"/></svg>