<svg xmlns="http://www.w3.org/2000/svg" viewBox="0 0 60 61" xmlns:v="https://vecta.io/nano"><circle cx="30" cy="30" r="30" fill="#fff"/><path d="M33 13c-.3 0-1.5-.3-3-.3s-2.8.2-3 .3c-.2 0-.2-.1-.1-.2s3.1-2.4 3.1-2.4l3.1 2.4c.1 0 .1.2-.1.2zm-5.2 14.8s-.2.1-.2.2c.6.5 1.1 1.6 2.4 1.6s1.7-1.1 2.4-1.6c0-.1-.2-.2-.2-.2s-.8.2-2.2.2-2.2-.2-2.2-.2zM30 26c-.4 0-.4-.1-.7-.1-.2 0-.7.2-.8.4 0 .1 0 .2.1.2.5.1.8.4 1.4.4s.9-.3 1.4-.4c.1-.1.1-.1.1-.2-.1-.2-.6-.4-.8-.4-.3-.1-.3.1-.7.1h0zm30 5.6c0 .7-.1 1.4-.2 2.1-3.4.6-4.6-2.5-8.1-2.3.2.7.4 1.5.5 2.3 2.9 0 4 2.7 7.2 2.3l-.6 2.4c-2.5.2-3.4-2.3-6.3-2.2v1.3.7l5.7 2.2-1 2.4c-1.7-.1-2.3-2.3-4.9-2.1l-.3 1.7c2.3-.2 2.7 1.9 4.4 2.1-.4.8-.9 1.5-1.3 2.2-1-.5-1.8-2.1-3.6-2.2l.5-1.7c-1.6 0-3.4-.6-5-2 .5-2.8-3.9-5.7-3.9-7.8 0-2.3 1.1-3.5 1.1-6.6 0-2.3-1.1-4.7-2.8-6.4-.3-.3-.6-.6-1-.8 1.5 1.9 2.7 4.1 2.7 6.7 0 2.9-1.3 4.4-1.3 7 0 2.7 3.9 4.9 3.9 7.7 0 1.1-.3 2.1-1.5 4.2 1.7 1.7 4 2.7 5.5 2.7.5 0 .7-.1.9-.5.1-.3.3-.6.4-1 1.6.1 2.3 1.5 3.2 2.1L52.7 50c-.6-.6-1.4-1.7-2.5-2-.2.4-.4.8-.7 1.2 1 .3 1.7 1.3 2.2 1.9l-1.8 1.7c-.4-.6-1-1.4-1.6-1.8-.2.3-.5.7-.8 1 .6.4 1.1 1.1 1.4 1.6-.7.6-1.4 1.1-2.2 1.6-.4-3-4.5-5.1-3.4-8.7-.4.6-.8 1.4-.8 2.3 0 2.6 2.7 4.6 2.9 7.1-.6.3-1.1.7-1.7 1-.1-2.8-3-5.9-3-8.1 0-2.6 3.4-5.1 3.4-8.2 0-3-3.9-5.1-3.9-7.8s1.6-4.2 1.6-7.6c0-2.5-1.2-5-3-6.6-.3-.3-.6-.5-1-.7 1.7 2.1 2.7 3.9 2.7 6.8 0 3.2-1.9 5-1.9 8.1s3.8 4.9 3.8 7.8-3.5 5.4-3.5 8.4c0 2.7 3.1 5.5 3.2 8.7l-2.1.8c.4-3.3-3.1-6.6-3.1-9.3 0-2.9 3.7-5.4 3.7-8.6 0-3.1-3.7-4.6-3.7-7.8s2.3-5 2.3-8.6a8.57 8.57 0 0 0-3.4-6.8l-.1-.1c-.2-.1-.3 0-.2.2 1.4 1.8 2.2 3.6 2.2 6.2 0 3.3-2.6 5.9-2.6 9.1 0 3.7 3.5 4.8 3.5 7.9s-3.8 5.5-3.8 8.8c0 3 3.6 6.4 3 9.8-.7.2-1.4.3-2.2.5.7-4.3-2.8-7.4-2.8-10.3 0-3.1 3.9-5.8 3.9-8.8 0-2.8-2.8-3.8-3.2-6.6-.1-.4-.4-.7-.8-.6-.6.1-1.3.5-2.5.5-1.1 0-1.9-.4-2.5-.5-.4-.1-.8.2-.8.6-.4 2.9-3.2 3.8-3.2 6.6 0 3 3.9 5.7 3.9 8.8 0 2.8-3.5 5.9-2.8 10.3-.7-.1-1.5-.3-2.2-.5-.6-3.5 3-6.8 3-9.8 0-3.3-3.8-5.7-3.8-8.8s3.5-4.1 3.5-7.9c0-3.2-2.6-5.8-2.6-9.1 0-2.7.8-4.4 2.2-6.2.1-.2 0-.3-.2-.2l-.1.1a8.57 8.57 0 0 0-3.4 6.8c0 3.6 2.3 5.4 2.3 8.6s-3.7 4.7-3.7 7.8 3.7 5.7 3.7 8.6c0 2.7-3.5 6-3.1 9.3-.7-.2-1.4-.5-2.1-.8 0-3.2 3.2-6 3.2-8.7 0-3-3.5-5.5-3.5-8.4s3.8-4.7 3.8-7.8-1.9-4.9-1.9-8.1c0-2.8 1-4.7 2.7-6.8-.4.2-.7.4-1 .7-1.8 1.6-3 4.1-3 6.6 0 3.4 1.6 4.9 1.6 7.6s-3.9 4.8-3.9 7.8 3.4 5.6 3.4 8.2c0 2.3-2.9 5.4-3 8.1-.6-.3-1.2-.6-1.7-1 .2-2.5 2.9-4.6 2.9-7.1 0-.9-.4-1.7-.8-2.3 1.1 3.5-3 5.6-3.4 8.7-.8-.5-1.5-1-2.2-1.6.3-.6.8-1.3 1.4-1.6-.3-.3-.5-.6-.8-1-.7.4-1.3 1.2-1.6 1.8-.9-.8-1.5-1.4-2.1-2 .5-.7 1.2-1.7 2.2-1.9-.2-.4-.4-.8-.7-1.2-1.2.3-1.9 1.4-2.5 2-.5-.6-1-1.2-1.5-1.9.9-.6 1.6-2 3.2-2.1.1.3.3.7.4 1 .2.4.4.5.9.5 1.5 0 3.7-.9 5.5-2.7-1.1-2.1-1.5-3.1-1.5-4.2 0-2.7 3.9-5 3.9-7.7s-1.3-4.2-1.3-7c0-2.6 1.2-4.8 2.7-6.7-.4.2-.7.5-1 .8-1.7 1.7-2.8 4.1-2.8 6.4 0 3.1 1.1 4.3 1.1 6.6 0 2.1-4.4 5-3.9 7.8-1.5 1.4-3.4 2-5 2 .1.6.3 1.2.5 1.7-1.8.1-2.6 1.6-3.6 2.2-.5-.7-.9-1.4-1.3-2.2 1.6-.2 2.1-2.2 4.4-2.1-.1-.5-.2-1.1-.3-1.7-2.6-.2-3.2 2-4.9 2.1-.4-.8-.7-1.6-1-2.4l5.7-2.2v-.7-1.3c-2.9-.1-3.8 2.4-6.3 2.2C1 37.6.8 36.8.6 36c3.2.4 4.3-2.3 7.2-2.3.1-.8.3-1.5.5-2.3-3.5-.2-4.7 2.9-8.1 2.3-.1-.7-.2-1.4-.2-2.1 3.9.4 5.4-2.8 9-2.4.3-.9.7-1.7 1.2-2.5-4.5-.8-6 3-10.2 2.4C.5 13 13.7 0 30 0s29.5 13 30 29.1c-4.2.6-5.7-3.2-10.2-2.4.4.8.8 1.6 1.2 2.5 3.5-.4 5 2.9 9 2.4zM17.1 19.1c-2.2-.9-4.9-.7-7.2.8-.4-2.1-1.5-4-3.1-5.2-.2-.2-.5 0-.4.3.3 4.5-2.3 8.4-5.5 11.8 3.3 1 6.2-3.3 10.5-1.8 1.5-2.3 3.4-4.3 5.7-5.9h0zM30 16.3c-2.8 0-5.1 1.6-5.7 3.6 0 .2 0 .3.2.2.5-.2 1.1-.3 1.7-.3 1.1 0 2.1.4 2.7 1.1.3.9.3 2.1 0 2.8-.5-.1-.6-.5-1.1-.5s-.8.3-1.6.3-.9-.4-1.4-.4c-.6 0-.7.6-.7 1.3 0 3.1 2.9 7.4 5.9 7.4s5.9-4.3 5.9-7.4c0-.7-.1-1.3-.8-1.4-.3.2-.6.4-1.3.4-.8 0-1-.3-1.4-.3-.6 0-.5 1.2-1.1 1.2-.4-1-.5-2.4-.1-3.6.6-.7 1.6-1.1 2.7-1.1.6 0 1.2.1 1.7.3.2.1.2 0 .2-.2-.7-1.8-3-3.4-5.8-3.4zm4.4 4.5c-.7 0-1.5.2-1.9.8-.1.1-.1.4 0 .5 1.2-.4 2.3-.4 2.8.1.3-.3.4-.5.4-.7 0-.4-.4-.7-1.3-.7h0zm-9.7 1.4c.6-.6 1.8-.6 3.1-.1.1-.6-1.1-1.3-2.2-1.3-.8 0-1.2.3-1.2.7-.1.2 0 .5.3.7zm19.2-10.5c-2.2.2-4.1.9-5.7 2.2.7-1.9 1.5-3.5 2.5-5.1-2.8.3-5.1 1.3-6.8 3.1l-1.3-3.5 3-2.6-4-.3L30 1.8l-1.6 3.7-4 .3 3 2.6-1.3 3.5c-1.7-1.8-4-2.8-6.8-3.1 1.1 1.6 1.9 3.2 2.5 5.1-1.5-1.3-3.5-2-5.7-2.2 1.3 1.7 2.5 3.5 3.4 5.4.1.2.3.3.5.2 3-1.5 6.4-2.3 10-2.3s7 .8 10 2.3c.2.1.4 0 .5-.2.9-1.9 2.1-3.7 3.4-5.4zM48.7 25c4.3-1.5 7.1 2.8 10.5 1.8-3.2-3.4-5.9-7.3-5.5-11.8 0-.3-.2-.4-.4-.3-1.6 1.1-2.8 3-3.1 5.2-2.3-1.5-5-1.7-7.2-.8 2.2 1.6 4.1 3.6 5.7 5.9h0zm3.9 31h-1.5v4.1h-.6V56H49v-.5h3.6v.5h0zm.6-.5h.8l1.6 3.6h0l1.6-3.6h.8v4.6h-.6v-3.9h0l-1.6 3.9h-.3l-1.7-3.9h0v3.9h-.6v-4.6z" fill="#006341"/></svg>