<?xml version="1.0" encoding="utf-8"?>
<svg version="1.1" id="Layer_1" xmlns="http://www.w3.org/2000/svg" xmlns:xlink="http://www.w3.org/1999/xlink" x="0px" y="0px"
	width="100px" height="100px" viewBox="0 0 100 100" style="enable-background:new 0 0 100 100;" xml:space="preserve">
<g>
	<path style="fill:#E8E8E8;" d="M50,0c27.61,0,50,22.39,50,50s-22.39,50-50,50S0,77.61,0,50S22.39,0,50,0"/>
	<path style="fill:#FFFFFF;" d="M50,1c27.06,0,49,21.94,49,49S77.06,99,50,99S1,77.06,1,50S22.94,1,50,1"/>
	<g>
		<path style="fill:#0F0708;" d="M84.98,64.9c0.15,0.03,0.29,0.07,0.42,0.14c0.54,0.25,0.88,0.8,0.86,1.4
			c0.01,0.43-0.15,0.85-0.45,1.16c-0.09,0.09-0.2,0.17-0.31,0.24c-0.13,0.07-0.28,0.13-0.43,0.16c-0.23,0.05-0.47,0.07-0.71,0.06
			h-0.78v-3.19h0.77C84.56,64.86,84.77,64.87,84.98,64.9 M84.32,68.6c0.26,0.01,0.52,0,0.77-0.03c0.15-0.03,0.3-0.07,0.44-0.13
			c0.54-0.21,0.97-0.62,1.2-1.15c0.11-0.26,0.17-0.54,0.17-0.82c0-0.39-0.1-0.77-0.3-1.11c-0.19-0.33-0.47-0.6-0.81-0.77
			c-0.43-0.19-0.91-0.28-1.38-0.26h-1.44v4.28L84.32,68.6z M80.78,65.31c0.31,0.3,0.49,0.71,0.48,1.15
			c0.01,0.44-0.16,0.86-0.48,1.17c-0.68,0.63-1.72,0.63-2.39,0c-0.31-0.3-0.49-0.72-0.47-1.15c-0.01-0.44,0.16-0.87,0.47-1.18
			c0.32-0.31,0.76-0.48,1.21-0.46C80.03,64.82,80.45,64.99,80.78,65.31 M77.92,64.88c-0.43,0.42-0.67,1-0.65,1.6
			c-0.02,0.59,0.22,1.15,0.64,1.56c0.43,0.42,1.01,0.64,1.61,0.62c0.62,0.02,1.22-0.2,1.68-0.62c0.44-0.4,0.68-0.97,0.67-1.57
			c0.02-0.6-0.23-1.17-0.66-1.58c-0.45-0.42-1.04-0.65-1.65-0.63C78.95,64.24,78.36,64.46,77.92,64.88 M75.28,65.3
			c0.31,0.3,0.49,0.71,0.48,1.15c0.01,0.44-0.16,0.86-0.48,1.17c-0.68,0.63-1.72,0.63-2.39,0c-0.31-0.3-0.49-0.72-0.47-1.15
			c-0.01-0.44,0.16-0.87,0.47-1.18c0.32-0.31,0.76-0.48,1.21-0.46C74.53,64.82,74.96,64.99,75.28,65.3 M72.43,64.87
			c-0.43,0.42-0.67,1-0.65,1.6c-0.02,0.59,0.22,1.15,0.64,1.56c0.43,0.42,1.01,0.64,1.61,0.62c0.62,0.02,1.22-0.2,1.68-0.62
			c0.44-0.4,0.68-0.97,0.67-1.57c0.02-0.6-0.23-1.17-0.66-1.58c-0.45-0.42-1.04-0.65-1.65-0.63C73.46,64.23,72.86,64.46,72.43,64.87
			 M68.73,68.61h0.61v-2h1.67v-0.55h-1.67v-1.2h1.67v-0.55h-2.28V68.61z M62.2,64.86h1.47v3.74h0.62v-3.75h1.49v-0.55H62.2
			L62.2,64.86z M61,67.56c0,0.16-0.07,0.3-0.2,0.4c-0.14,0.11-0.31,0.17-0.48,0.16c-0.46-0.01-0.89-0.25-1.15-0.63v0.78
			c0.33,0.26,0.74,0.4,1.16,0.4c0.33,0.01,0.65-0.1,0.9-0.32c0.23-0.22,0.36-0.52,0.35-0.84c0-0.48-0.26-0.88-0.78-1.2l-0.47-0.28
			c-0.17-0.09-0.32-0.21-0.46-0.35c-0.09-0.1-0.14-0.23-0.14-0.36c0-0.14,0.08-0.28,0.2-0.36c0.15-0.1,0.32-0.15,0.49-0.14
			c0.38,0.01,0.74,0.17,1,0.44v-0.7c-0.29-0.2-0.63-0.3-0.98-0.3c-0.33-0.01-0.66,0.1-0.91,0.32c-0.23,0.21-0.36,0.51-0.35,0.82
			c0,0.21,0.06,0.42,0.19,0.6c0.17,0.21,0.38,0.39,0.62,0.53l0.47,0.28C60.81,67.05,61,67.3,61,67.56 M55.81,66.79l0.64-1.55
			l0.69,1.55H55.81z M54.4,68.61h0.63l0.53-1.27h1.83l0.57,1.27h0.63l-1.92-4.31h-0.43L54.4,68.61z M51.93,68.61h0.61v-2h1.67v-0.55
			h-1.67v-1.2h1.67v-0.55h-2.29L51.93,68.61z M47.18,65.8l-1.15-1.48h-0.74l1.58,2.02v2.27h0.63v-2.27l1.58-2.02h-0.74L47.18,65.8z
			 M43.06,68.61h2.54v-0.56h-1.93v-3.72h-0.61V68.61z M39.67,68.61h2.54v-0.56h-1.93v-3.72h-0.61V68.61z M36.1,66.79l0.64-1.55
			l0.69,1.55H36.1z M34.69,68.61h0.63l0.53-1.27h1.83l0.57,1.27h0.63l-1.94-4.31h-0.43L34.69,68.61z M32.52,64.91
			c0.12,0.04,0.23,0.12,0.3,0.23c0.07,0.11,0.11,0.24,0.11,0.37c0,0.13-0.03,0.26-0.1,0.37c-0.06,0.11-0.16,0.19-0.27,0.24
			c-0.21,0.07-0.42,0.09-0.64,0.08h-0.23v-1.35h0.18C32.09,64.84,32.31,64.87,32.52,64.91 M31.69,68.62v-1.86h0.16
			c0.15-0.01,0.29,0.01,0.43,0.07c0.1,0.06,0.2,0.14,0.29,0.23c0.13,0.13,0.24,0.27,0.35,0.42l0.2,0.34l0.2,0.31l0.12,0.17
			l0.04,0.05l0.19,0.28h0.73l-0.23-0.31c-0.09-0.12-0.21-0.31-0.36-0.55c-0.17-0.28-0.35-0.55-0.55-0.81
			c-0.11-0.14-0.25-0.26-0.4-0.37c0.45-0.15,0.74-0.58,0.72-1.06c0.01-0.33-0.13-0.66-0.38-0.87c-0.29-0.23-0.66-0.34-1.03-0.32
			h-1.07v4.28L31.69,68.62z M29.28,66.76c0.01,0.24-0.01,0.48-0.08,0.71c-0.05,0.14-0.14,0.27-0.26,0.36
			c-0.25,0.2-0.57,0.3-0.89,0.29c-0.23,0.01-0.46-0.04-0.66-0.14c-0.17-0.08-0.32-0.21-0.42-0.38c-0.11-0.26-0.16-0.55-0.14-0.84
			v-2.44H26.2v2.42c-0.01,0.26,0.01,0.51,0.07,0.76c0.04,0.14,0.1,0.28,0.18,0.41c0.07,0.11,0.16,0.21,0.26,0.3
			c0.38,0.3,0.86,0.46,1.34,0.44c0.48,0.02,0.96-0.13,1.33-0.44c0.1-0.09,0.19-0.19,0.26-0.3c0.08-0.13,0.14-0.27,0.18-0.42
			c0.06-0.24,0.08-0.5,0.07-0.75v-2.43h-0.62L29.28,66.76z M21.82,64.87h1.47v3.74h0.62v-3.75h1.49v-0.55h-3.59L21.82,64.87z
			 M19.25,66.8l0.64-1.55l0.69,1.54L19.25,66.8z M17.84,68.62h0.63l0.53-1.27h1.83l0.57,1.27h0.63L20.1,64.3h-0.43L17.84,68.62z
			 M16.49,67.65l-2.89-3.32H13.1v4.28h0.58v-3.3l2.86,3.3h0.53v-4.28h-0.58V67.65z"/>
		<path d="M52.85,58.17c2.84-0.8,4.75-2.75,6.19-5.19c1.47-2.46,2.05-5.19,2.02-8.39c0.04-3.37-1.04-6.66-3.06-9.36
			c-3.69-4.99-10.13-5.21-14.15-0.5c-2,2.34-3.05,5.07-3.38,8.1c-0.46,4.26,0.33,8.22,2.91,11.72
			C45.72,57.74,49.39,59.14,52.85,58.17L52.85,58.17z M47.79,38.91c0.81-0.8,1.76-1.32,2.94-1.32c1.29,0.02,2.3,0.63,3.13,1.55
			c1.63,1.8,2.11,3.99,2,6.34c-0.03,1.5-0.46,2.95-1.24,4.23c-2.16,3.41-5.72,3.39-7.84-0.04C44.78,46.45,45.25,41.39,47.79,38.91z
			 M67.46,46.92l0.16-0.03c0.08,0.11,0.16,0.22,0.23,0.33l5.07,9.12c0.4,0.73,0.68,1.71,1.31,2.09s1.58,0.1,2.39,0.11h1.87
			c0.19-0.01,0.38-0.04,0.56-0.07v-0.92c0.03-4.71,0.04-9.41,0.11-14.12c0-0.7-0.18-1.18-0.76-1.56c-0.54-0.35-1.02-0.8-1.54-1.18
			c-0.87-0.62-1.76-1.21-2.78-1.92v9.42c-0.36-0.53-0.67-1.09-0.93-1.67c-1.45-2.87-2.9-5.73-4.36-8.59
			c-1.4-2.74-1.41-2.74-4.39-3.69l-1.82-0.58V58.5h4.89L67.46,46.92z M26.75,54.7c0,1.08,0.01,2.16,0,3.24c0,0.46,0.12,0.7,0.65,0.7
			c3.65-0.02,7.3-0.02,10.95,0c0.5,0,0.67-0.17,0.66-0.67c-0.03-1.3,0-2.59,0-3.89c0-1.08,0-1.08-1.09-1.08h-6.04
			c-0.02-0.29-0.05-0.53-0.05-0.76v-3.03c0-1.01,0.02-1.03,1.06-1.03c1.8,0,3.6-0.02,5.4,0.01c0.58,0.01,0.74-0.19,0.72-0.74
			c-0.04-1.3-0.04-2.6,0-3.89c0.01-0.55-0.17-0.69-0.7-0.69c-1.94,0.03-3.89,0-5.83,0.02c-0.5,0-0.67-0.15-0.66-0.66
			c0.03-1.22,0.03-2.45,0-3.67c0-0.45,0.14-0.64,0.59-0.71c2-0.3,3.97-0.66,5.96-0.94c0.49-0.07,0.66-0.21,0.65-0.7
			c-0.03-1.32-0.02-2.64,0-3.96c0-0.47-0.14-0.63-0.63-0.58c-3.64,0.44-7.23,1.23-10.71,2.38c-0.74,0.24-0.92,0.61-0.92,1.33
			C26.76,41.83,26.75,48.27,26.75,54.7L26.75,54.7z M13.77,58.64c3.63-0.01,7.25-0.01,10.88,0c0.55,0,0.69-0.2,0.68-0.72
			c-0.03-1.42-0.03-2.83,0-4.25c0.01-0.56-0.2-0.69-0.71-0.69c-1.9,0.02-3.79,0.01-5.69,0c-0.25,0-0.5-0.03-0.81-0.05V38.84
			c-0.2,0.04-0.28,0.03-0.32,0.07c-1.48,1.15-2.96,2.29-4.41,3.47c-0.17,0.19-0.26,0.44-0.25,0.69c-0.01,4.97,0,9.94-0.02,14.91
			C13.1,58.5,13.29,58.64,13.77,58.64z M84.41,59.21c1.35-0.05,2.38-1.34,2.39-2.99c0-1.56-0.93-2.86-2.2-3.05
			c-1.27-0.19-2.41,0.67-2.78,2.07c-0.07,0.28-0.11,0.56-0.12,0.85C81.63,57.87,82.84,59.27,84.41,59.21z"/>
	</g>
</g>
</svg>
