<svg xmlns="http://www.w3.org/2000/svg" viewBox="0 0 166.7 84.7"><path d="M106.6.3c-14.5 3-13.8 23.9.9 25.7 9.5 1.2 16.8-7.1 14.5-16.3-1.6-6.6-8.5-10.9-15.4-9.4zM9.8.5c-8.5 1.3-8.5 13.2 0 14.3l.7.1v-3.2l-.8-.2c-2.8-.8-3.2-4.8-.6-6.2.7-.4.9-.4 2.4-.4h1.6l.1 6.5c.1 7.3.1 7.3 1.1 9.4 3.5 7.1 15.8 7.1 19.3 0 1.2-2.4 1.1-2 1.2-11.7V.4h-5.5v7.7c0 8.2-.1 9.2-.7 10.4-1.4 2.9-6.5 3.5-8.7.9-1.2-1.4-1.2-1.2-1.2-10.7V.3h-4c-2.3.1-4.5.1-4.9.2h0zM45.9.4l-.1 12.7v12.6h5.6v-7.6-7.6l12.9 15.1h3.9V.3h-5.5v15.3L49.7.3h-1.9c-1 0-1.9.1-1.9.1zm34.5.1c0 .1-.1 5.8 0 12.6v12.4l5.6.1V.3h-2.8c-2.1 0-2.8.1-2.8.2zM131.3 13v12.7h5.5v-7.6l.1-7.6 6.6 7.6 6.4 7.6h3.9V.3h-5.5l-.1 15.3-13-15.3h-3.9V13h0zm-20.1-7.7c5.8 1.5 7.7 9.2 3.4 13.5-4.7 4.8-12.5 1.6-12.9-5.2-.4-5.4 4.5-9.6 9.5-8.3zM0 38.4c0 .1.7.9 1.6 1.9L3.1 42h160.4l3.2-3.7H83.3L0 38.4h0zm92.4 18.8c-2.7.8-4.3 3.7-3.5 6.4.6 2 2.3 3.5 4.4 3.7 2.8.3 5.4-1.7 5.7-4.6.3-2.8-1.7-5.4-4.6-5.7-.6-.1-1.4-.1-2 .2h0zm24.5 0c-2.9.9-2.7 3.9.4 5.4 1.6.8 2.1 1.1 2.1 1.7 0 1.4-1.9 1.8-3.3.6l-.5-.4-1.4 1.3.8.5c3 2 6.8.4 6.3-2.6-.2-1.3-.9-1.8-3.5-2.9-.9-.4-1.2-.9-1-1.4.3-.7 1.6-.9 2.6-.4l.6.3 1-1.4-.4-.3c-1-.6-2.4-.8-3.7-.4h0zM15.1 62.1v5H17v-4.6h4.9L22 67h1.9l.1-10-2 .1V59v1.9h-5v-3.8h-1.9v5zm14.8-.2l-2.1 5c-.1.3 0 .3.9.2l1-.1.9-2.2 4.1.1.9 2.2h.9c1.2 0 1.3.4-1.1-5.2l-2.1-4.8-1.4-.1c0 .1-2 4.9-2 4.9zm11.4.2v5h1.9V64c0-1.8 0-3.2.1-3.2s1.3 1.4 2.8 3.1l2.7 3.1 1.4.1v-10h-1.9v3.2 3.2l-5.5-6.4h-1.4c-.1 0-.1 5-.1 5zm13.8 0v5.1l2.3-.1c2.8-.1 3.6-.3 4.7-1.4a5.07 5.07 0 0 0 0-7.2l-.4-.4c-1-.8-1.5-.9-4.2-1l-2.4-.1v5.1h0zm22.7 0v5h1.9v-4.4h.3c.3 0 .8.5 2.2 2.2l1.8 2.2h1.1c1.4 0 1.4.2-.7-2.4-1-1.2-1.8-2.2-1.7-2.2l.5-.3c1.1-.6 1.6-2.4 1-3.7-.7-1.3-1.3-1.5-4.2-1.5h-2.2v5.1zm28.1-4.7c-.2.4-4.2 9.6-4.2 9.7 0 0 .4.1 1 .1h1l.5-1.1.5-1.1 4 .1.4 1.1.4 1.1h1c.8 0 1-.1.9-.2l-2.1-5-2.1-4.8-.7-.1c-.3-.1-.4-.1-.6.2zm18.6.5v.9l2.6.1v8.3h1.9v-8.3h2.7v-1.8h-7.3l.1.8zm11.4 4.2v5h6.1v-1.8h-4.1v-2.8l3-.1.1-1.6h-3.1v-2.1h4v-1.8H136v5.2zm10.3 0v5l2.4-.1c4.3-.1 6.1-1.6 6.1-5 0-3.5-1.9-5-6.5-5h-2v5.1h0zm-51.1-3.2c2.8 1.2 2.6 5.6-.3 6.4-3.2.9-5.5-3-3.3-5.6.9-.9 2.3-1.3 3.6-.8h0zm-35.2.2c3.3 1.5 1.9 6.2-1.9 6.2h-1v-6.5h1.2c.8.1 1.3.2 1.7.3h0zm22.3.1c.9.9.2 1.8-1.4 1.8h-1.1v-2.1h1.1c.9 0 1.2 0 1.4.3zm68.7-.1c3.5 1.3 2.2 6.3-1.7 6.3h-1.1v-6.5h1.1c.7 0 1.5.1 1.7.2zM33.2 61.7c.7 1.6.7 1.5-.6 1.5-.7 0-1.2 0-1.2-.1s.2-.4.4-.9l.6-1.4c.1-.3.2-.5.3-.5s.3.7.5 1.4h0zm74.1 0c.7 1.6.7 1.5-.7 1.5-.7 0-1.2 0-1.2-.1s.2-.5.5-1.1.5-1.2.6-1.4c.2-.4.2-.4.8 1.1h0zm-39.6.6v.7H73v-1.5h-5.3v.8h0zM58 74.4c-2.8.5-4.7 3.1-4.2 5.9.2 1.1.8 2.2 1.6 3a5.61 5.61 0 0 0 7.3 0c.6-.6.6-.6-.2-1.2l-.7-.5-.3.4c-1.1 1.2-3.5 1.3-4.8.1-3-2.8.9-7.8 4.2-5.3l.5.4.4-.4c.8-.7.8-.9.3-1.3-1.2-1-2.7-1.3-4.1-1.1h0zm12 0c-2.6.4-4.4 2.7-4.2 5.3.3 6.7 10.3 6.4 10.3-.2 0-3.4-2.7-5.6-6.1-5.1h0zm9.7 5.1v5h1.9v-4.4l3-.1v-1.6l-3-.1v-2.1h4v-1.8h-5.9v5.1h0zm9.9 0v5h1.9v-4.4l3-.1v-.9l.1-.9h-3.1v-2.1h4v-1.8h-5.9v5.2h0zm10.1-5c-.1.1-.1 2.3-.1 5v4.9h6.2l-.1-.9v-.9h-4.1V80h3v-1.8h-3v-2.1h4v-1.8h-2.9l-3 .2h0zm10.4 5v5h6.2v-.9l-.1-.9h-4.1l-.1-1.4v-1.4h3.1v-1.8H112V76h4.2l-.1-.9v-.9l-6-.1v5.4h0zm-38-3.2c1.8.6 2.7 3 1.8 4.8-.8 1.6-2.7 2.2-4.2 1.5-.7-.3-1.2-.9-1.5-1.6-1.4-2.8 1-5.7 3.9-4.7h0z" fill="#2d0e4e"/></svg>