<?xml version="1.0" encoding="utf-8"?>
<svg version="1.1" id="Layer_1" xmlns="http://www.w3.org/2000/svg" xmlns:xlink="http://www.w3.org/1999/xlink" x="0px" y="0px"
	width="100px" height="100px" viewBox="0 0 66.7 66.7" style="enable-background:new 0 0 66.7 66.7;" xml:space="preserve">
<g>
	<circle style="fill:#E8E8E8;" cx="33.3" cy="33.3" r="33.3"/>
	<circle style="fill:#FFFFFF;" cx="33.3" cy="33.3" r="32.7"/>
	<g>
		<path style="fill:#9374D8;" d="M17.6,38.4l3.5,1.4C21,40.1,21,40.3,21,40.6v0.3l0.5,0.1v-0.3c0-0.2,0.1-0.4,0.1-0.6
			c0.1-0.3,0.3-0.5,0.5-0.7c0.1-0.1,0.1-0.1,0.2-0.1s0.1-0.1,0.2-0.1c0.2-0.1,0.5-0.1,0.7-0.1c0.9,0,1.7,0.7,1.7,1.7
			c0,0.1,0,0.3-0.1,0.3l0.5-0.1v-0.3c0-1.2-1-2.2-2.2-2.2c-0.3,0-0.7,0.1-0.9,0.2l-1.6-3.5c0.7-0.3,1.6-0.5,2.5-0.5
			c3.3,0,5.9,2.5,6,5.7l0.5-0.1c-0.2-3.4-3-6.1-6.5-6.1c-3.5,0-6.3,2.7-6.5,6.1l0.5,0.1C17.2,39.7,17.4,39,17.6,38.4z M19.9,35.5
			l2,3.2l-0.3,0.1L19.3,36C19.5,35.9,19.7,35.7,19.9,35.5z M49.4,13l-9.6,8l-1.4-0.5l-4.7-0.7L30.7,20l0,0l-7.5-5.3
			c-0.6,1.1-0.3,2.5,0.7,3.3l2.3,1.7l-8.7-0.7c-0.1,1.5,1,2.9,2.5,3l5.7,0.5l-7.4,3.5c0.7,1.4,2.3,2,3.7,1.3l5.3-2.5l-1.8,2.5
			l-0.6,6.3v0.1c1.4,0.1,2.6-1,2.8-2.4l0.1-1.5l2-2.8l4.3,0.4L29,31.8c-1.1,1-1.3,2.7-0.3,3.9l4.3-3.5l18.9-9.7
			C51.8,22.4,49.4,13,49.4,13z"/>
		<path style="fill:#9374D8;" d="M21.5,40.9c0.1,0.8,0.9,1.3,1.7,1.3c0.3,0,0.5-0.1,0.7-0.1c0.1,0,0.1-0.1,0.2-0.1s0.1-0.1,0.2-0.1
			c0.2-0.2,0.4-0.4,0.5-0.7c0.1-0.1,0.1-0.2,0.1-0.3l-1.7,0.3C23.2,41.2,21.5,40.9,21.5,40.9z M17.2,40.6c0,3.3,2.7,6,6,6
			c0.9,0,1.7-0.2,2.5-0.5l-1.5-3.5c-0.3,0.1-0.6,0.2-0.9,0.2c-1.1,0-2.1-0.8-2.2-1.9l-3.8-0.5V40.6z M25.3,41.5l3.5,1.4
			c0.3-0.7,0.4-1.5,0.4-2.3v-0.3l-3.8,0.5C25.4,41.1,25.3,41.3,25.3,41.5z M29.7,40.6c0,3.6-2.9,6.5-6.5,6.5c-3.6,0-6.5-2.9-6.5-6.5
			v-0.4L15,40v13.7h16.4V40l-1.7,0.3V40.6z M27.1,45.2l-2.5-2.9l-0.3,0.1l2,3.2C26.7,45.5,26.9,45.4,27.1,45.2z"/>
		<path style="fill:#9374D8;" d="M23.2,47.2c3.6,0,6.5-2.9,6.5-6.5v-0.4l-0.5,0.1v0.3c0,0.8-0.1,1.5-0.4,2.3l-3.5-1.4
			c0.1-0.2,0.1-0.4,0.1-0.6l-0.5,0.1c0,0.1-0.1,0.2-0.1,0.3c-0.1,0.3-0.3,0.5-0.5,0.7c-0.1,0.1-0.1,0.1-0.2,0.1s-0.1,0.1-0.2,0.1
			c-0.2,0.1-0.5,0.1-0.7,0.1c-0.8,0-1.5-0.6-1.7-1.3L21,40.9c0.1,1.1,1.1,1.9,2.2,1.9c0.3,0,0.7-0.1,0.9-0.2l1.5,3.5
			c-0.7,0.3-1.6,0.5-2.5,0.5c-3.3,0-6-2.7-6-6v-0.3l-0.5-0.1v0.4C16.7,44.2,19.5,47.2,23.2,47.2z M24.4,42.5l0.3-0.1l2.5,2.9
			c-0.2,0.1-0.4,0.3-0.7,0.5C26.4,45.7,24.4,42.5,24.4,42.5z"/>
	</g>
</g>
</svg>
