<?xml version="1.0"?>
<svg xmlns="http://www.w3.org/2000/svg" xmlns:xlink="http://www.w3.org/1999/xlink" xmlns:svgjs="http://svgjs.com/svgjs" version="1.1" width="512" height="512" x="0" y="0" viewBox="0 0 512 512" style="enable-background:new 0 0 512 512" xml:space="preserve" class=""><g>
<circle xmlns="http://www.w3.org/2000/svg" style="" cx="256" cy="256" r="256" fill="#f1f1f1" data-original="#00efd1" class=""/>
<path xmlns="http://www.w3.org/2000/svg" style="" d="M512,256c0-7.692-0.359-15.299-1.024-22.818l-95.195-95.196  c-7.165-7.731-15.471-13.879-24.648-18.054c-74.02-33.67-127.188,32.174-134.308,41.613l-13.476-13.476  c-20.732-20.893-65.407-54.098-122.48-28.137c-42.159,19.177-65.98,79.961-44.904,144.92H52.96v14L284.518,510.41  C412.478,496.225,512,387.743,512,256z" fill="#f1f1f1" data-original="#00ad95" class=""/>
<path xmlns="http://www.w3.org/2000/svg" style="" d="M391.132,119.933C311.507,83.714,256,162.664,256,162.664s-55.507-78.95-135.132-42.731  C41.378,156.09,27.07,340.162,256,421.241C484.93,340.162,470.622,156.09,391.132,119.933z" fill="#ff0435" data-original="#ff0435" class=""/>
<path xmlns="http://www.w3.org/2000/svg" style="" d="M255.991,421.241v-258.57c0,0,55.517-78.957,135.148-42.742  C470.612,156.087,484.939,340.166,255.991,421.241z" fill="#c2001b" data-original="#c2001b" class=""/>
<polygon xmlns="http://www.w3.org/2000/svg" style="" points="212.367,348.843 191.272,241.633 172.359,278.853 52.96,278.853 52.96,264.853   163.769,264.853 197.174,199.113 217.935,304.625 236.893,264.853 293.843,264.853 329.286,160.19 349.806,299.646 371.86,264.809   459.04,265.8 458.881,279.799 379.51,278.897 341.449,339.021 323.899,219.747 303.882,278.853 245.729,278.853 " fill="#ffffff" data-original="#ffffff"/>
<polygon xmlns="http://www.w3.org/2000/svg" style="" points="459.04,265.8 458.88,279.8 379.51,278.9 341.45,339.02 323.9,219.75 303.88,278.85   256,278.85 256,264.85 293.84,264.85 329.29,160.19 349.81,299.65 371.86,264.81 " fill="#ffed97" data-original="#ffed97" class=""/>
<g xmlns="http://www.w3.org/2000/svg">
</g>
<g xmlns="http://www.w3.org/2000/svg">
</g>
<g xmlns="http://www.w3.org/2000/svg">
</g>
<g xmlns="http://www.w3.org/2000/svg">
</g>
<g xmlns="http://www.w3.org/2000/svg">
</g>
<g xmlns="http://www.w3.org/2000/svg">
</g>
<g xmlns="http://www.w3.org/2000/svg">
</g>
<g xmlns="http://www.w3.org/2000/svg">
</g>
<g xmlns="http://www.w3.org/2000/svg">
</g>
<g xmlns="http://www.w3.org/2000/svg">
</g>
<g xmlns="http://www.w3.org/2000/svg">
</g>
<g xmlns="http://www.w3.org/2000/svg">
</g>
<g xmlns="http://www.w3.org/2000/svg">
</g>
<g xmlns="http://www.w3.org/2000/svg">
</g>
<g xmlns="http://www.w3.org/2000/svg">
</g>
</g></svg>
