<?xml version="1.0"?>
<svg xmlns="http://www.w3.org/2000/svg" xmlns:xlink="http://www.w3.org/1999/xlink" xmlns:svgjs="http://svgjs.com/svgjs" version="1.1" width="512" height="512" x="0" y="0" viewBox="0 0 512 512" style="enable-background:new 0 0 512 512" xml:space="preserve" class=""><g><path xmlns="http://www.w3.org/2000/svg" d="m512 256c0 141.386719-114.613281 256-256 256s-256-114.613281-256-256 114.613281-256 256-256 256 114.613281 256 256zm0 0" fill="#f1f1f1" data-original="#2864f0" style="" class=""/><path xmlns="http://www.w3.org/2000/svg" d="m512 256c0-10.230469-.617188-20.3125-1.785156-30.230469l-60.199219-60.199219-20.757813 30.054688-129.085937-129.085938-88.34375 20.460938 55.140625 55.136719-200.890625 122.828125 153.027344 153.027344-28.921875 28.621093 65.382812 65.382813c.144532 0 .289063.003906.433594.003906 141.386719 0 256-114.613281 256-256zm0 0" fill="#f1f1f1" data-original="#27488f" style="" class=""/><path xmlns="http://www.w3.org/2000/svg" d="m246 77h20v37h-20zm0 0" fill="#ff9500" data-original="#ff9500" style=""/><path xmlns="http://www.w3.org/2000/svg" d="m256 77h10v37h-10zm0 0" fill="#fe6a16" data-original="#fe6a16" style=""/><path xmlns="http://www.w3.org/2000/svg" d="m297.5 408h-83l-8.820312-268.171875c-.644532-19.59375 15.0625-35.828125 34.667968-35.828125h31.304688c19.605468 0 35.3125 16.234375 34.667968 35.828125zm0 0" fill="#ffc247" data-original="#ffc247" style="" class=""/><path xmlns="http://www.w3.org/2000/svg" d="m271.652344 104h-15.652344v304h41.5l8.820312-268.171875c.644532-19.59375-15.0625-35.828125-34.667968-35.828125zm0 0" fill="#ffb13b" data-original="#ffb13b" style="" class=""/><path xmlns="http://www.w3.org/2000/svg" d="m256 419.660156-65.816406 26.953125v-39.910156l65.816406-37.316406zm0 0" fill="#ffc247" data-original="#ffc247" style="" class=""/><path xmlns="http://www.w3.org/2000/svg" d="m256 419.660156 65.816406 26.953125v-39.910156l-65.816406-37.316406zm0 0" fill="#ffb13b" data-original="#ffb13b" style="" class=""/><path xmlns="http://www.w3.org/2000/svg" d="m433.050781 269.5625h-354.101562c-11.226563 0-20.328125-9.101562-20.328125-20.328125v-72.46875c0-11.226563 9.101562-20.328125 20.328125-20.328125h354.101562c11.226563 0 20.328125 9.101562 20.328125 20.328125v72.46875c0 11.226563-9.101562 20.328125-20.328125 20.328125zm0 0" fill="#ff9500" data-original="#ff9500" style=""/><path xmlns="http://www.w3.org/2000/svg" d="m433.050781 156.4375h-177.050781v113.125h177.050781c11.226563 0 20.328125-9.101562 20.328125-20.332031v-72.464844c0-11.226563-9.101562-20.328125-20.328125-20.328125zm0 0" fill="#fe6a16" data-original="#fe6a16" style=""/><path xmlns="http://www.w3.org/2000/svg" d="m433.765625 213c0 19.761719-16.023437 35.785156-35.785156 35.785156s-35.785157-16.023437-35.785157-35.785156 16.023438-35.785156 35.785157-35.785156 35.785156 16.023437 35.785156 35.785156zm0 0" fill="#ffb13b" data-original="#ffb13b" style="" class=""/><path xmlns="http://www.w3.org/2000/svg" d="m149.804688 213c0 19.761719-16.023438 35.785156-35.785157 35.785156s-35.785156-16.023437-35.785156-35.785156 16.023437-35.785156 35.785156-35.785156 35.785157 16.023437 35.785157 35.785156zm0 0" fill="#ffc247" data-original="#ffc247" style="" class=""/><path xmlns="http://www.w3.org/2000/svg" d="m211.828125 66.539062h88.34375v20.460938h-88.34375zm0 0" fill="#ffffff" data-original="#ffffff" style=""/><path xmlns="http://www.w3.org/2000/svg" d="m256 66.539062h44.171875v20.460938h-44.171875zm0 0" fill="#e9edf5" data-original="#e9edf5" style=""/></g></svg>
