<?xml version="1.0" encoding="utf-8"?>
<svg version="1.1" id="Layer_1" xmlns="http://www.w3.org/2000/svg" xmlns:xlink="http://www.w3.org/1999/xlink" x="0px" y="0px"
	width="100px" height="100px" viewBox="0 0 66.7 66.7" style="enable-background:new 0 0 66.7 66.7;" xml:space="preserve">
<g>
	<circle style="fill:#E8E8E8;" cx="33.3" cy="33.3" r="33.3"/>
	<circle style="fill:#FFFFFF;" cx="33.3" cy="33.3" r="32.7"/>
	
		<linearGradient id="SVGID_1_" gradientUnits="userSpaceOnUse" x1="8006.4106" y1="5851.8242" x2="7871.0635" y2="5987.1719" gradientTransform="matrix(0.1089 0 0 0.1089 -823.976 -611.5144)">
		<stop  offset="0.2" style="stop-color:#98D6F1"/>
		<stop  offset="0.9" style="stop-color:#6F58A2"/>
	</linearGradient>
	<path style="fill:url(#SVGID_1_);" d="M46.3,31.6L46.3,31.6c0,0.8-0.3,1.6-0.9,2.2l-5.3,5.3c-1.2,1.2-3.3,1.2-4.5,0
		c-1.2-1.2-1.2-3.3,0-4.5l9.8-9.8c0.4-0.4,0.5-0.9,0.3-1.5l0,0c0.3,0.3,0.5,0.8,0.5,1.3L46.3,31.6"/>
	
		<linearGradient id="SVGID_2_" gradientUnits="userSpaceOnUse" x1="486.8948" y1="-275.3861" x2="531.4698" y2="-319.9621" gradientTransform="matrix(0.6667 0 0 -0.6667 -308.4444 -155.5555)">
		<stop  offset="0.2" style="stop-color:#98D6F1"/>
		<stop  offset="0.9" style="stop-color:#6F58A2"/>
	</linearGradient>
	<path style="fill:url(#SVGID_2_);" d="M37.9,55h4l0,0c0.2,0,0.4-0.2,0.4-0.4l0,0v-4c0-0.1-0.1-0.2-0.1-0.3l0,0L21.9,30.1
		c-0.9-0.9-1.4-2-1.5-3.1v9.2c0,0.9,0.3,1.7,0.9,2.2l0,0l16.4,16.4l0,0C37.7,54.9,37.8,55,37.9,55z"/>
	<path style="fill:#6F58A2;" d="M45.8,23.3L34.5,12.1l0,0c-0.5-0.5-1.3-0.5-1.8,0c0,0,0,0,0,0l0,0L20.9,23.9l0,0
		c-0.3,0.3-0.5,0.7-0.5,1.1l0,0v2c0.1,1.1,0.7,2.2,1.5,3.1l4.8,4.8v-8l7-6.9l8.3,8.3l3.6-3.6C45.9,24.4,46,23.8,45.8,23.3z"/>
</g>
</svg>
