<?xml version="1.0" encoding="utf-8"?>
<svg version="1.1" id="Layer_1" xmlns="http://www.w3.org/2000/svg" xmlns:xlink="http://www.w3.org/1999/xlink" x="0px" y="0px"
	 viewBox="0 0 369.85 187.09" style="enable-background:new 0 0 369.85 187.09;" xml:space="preserve">
<g>
	<path style="fill:#0F0708;" d="M360.25,168.23c0.73,0.13,1.44,0.37,2.11,0.69c2.71,1.26,4.41,4.01,4.31,7
		c0.06,2.17-0.76,4.27-2.27,5.82c-0.46,0.47-0.99,0.87-1.56,1.19c-0.67,0.36-1.39,0.63-2.13,0.8c-1.18,0.24-2.38,0.35-3.58,0.32
		h-3.93v-16h3.84C358.11,168.03,359.19,168.09,360.25,168.23 M356.92,186.75c1.29,0.03,2.58-0.02,3.87-0.16
		c0.76-0.13,1.51-0.35,2.23-0.64c2.7-1.03,4.87-3.12,6-5.78c0.55-1.3,0.83-2.7,0.83-4.12c0.01-1.96-0.51-3.88-1.51-5.56
		c-0.95-1.65-2.36-2.99-4.06-3.86c-2.18-0.97-4.55-1.42-6.93-1.31h-7.24v21.44L356.92,186.75z M339.17,170.25
		c1.57,1.49,2.45,3.57,2.4,5.74c0.05,2.2-0.82,4.32-2.4,5.85c-3.39,3.14-8.61,3.14-12,0c-1.57-1.5-2.44-3.6-2.38-5.78
		c-0.07-2.21,0.79-4.35,2.37-5.89c1.63-1.55,3.81-2.38,6.06-2.3c2.2-0.05,4.33,0.79,5.9,2.33 M324.86,168.1
		c-2.17,2.08-3.36,4.99-3.26,8c-0.08,2.94,1.1,5.78,3.23,7.8c2.17,2.08,5.09,3.2,8.09,3.11c3.11,0.1,6.13-1.01,8.42-3.11
		c2.2-2.01,3.42-4.88,3.34-7.86c0.08-2.99-1.13-5.86-3.31-7.9c-2.23-2.11-5.21-3.24-8.28-3.15c-3.06-0.1-6.02,1.03-8.23,3.15
		 M311.63,170.24c1.57,1.49,2.45,3.57,2.4,5.74c0.05,2.2-0.82,4.32-2.4,5.85c-3.39,3.14-8.61,3.14-12,0
		c-1.57-1.51-2.44-3.6-2.38-5.78c-0.07-2.21,0.79-4.35,2.37-5.89c1.63-1.55,3.81-2.38,6.06-2.3c2.2-0.05,4.33,0.79,5.9,2.33
		 M297.32,168.09c-2.17,2.08-3.36,4.99-3.26,8c-0.08,2.94,1.1,5.78,3.23,7.8c2.17,2.08,5.09,3.2,8.09,3.11
		c3.11,0.11,6.13-1.01,8.42-3.11c2.2-2.01,3.42-4.88,3.34-7.86c0.08-2.99-1.13-5.86-3.31-7.9c-2.23-2.11-5.22-3.25-8.29-3.15
		c-3.06-0.1-6.02,1.03-8.23,3.15 M278.81,186.8h3.07v-10h8.37v-2.74h-8.37v-6h8.37v-2.74h-11.44V186.8z M246.05,168.04h7.36v18.76
		h3.1v-18.77h7.48v-2.74h-17.94L246.05,168.04z M240.04,181.53c0,0.79-0.37,1.53-1,2c-0.68,0.55-1.53,0.83-2.4,0.8
		c-2.31-0.07-4.45-1.24-5.76-3.15v3.9c1.65,1.29,3.69,2,5.79,2c1.65,0.07,3.26-0.51,4.49-1.61c1.16-1.08,1.79-2.62,1.73-4.2
		c0-2.41-1.31-4.41-3.93-6l-2.35-1.39c-0.85-0.46-1.63-1.06-2.29-1.77c-0.45-0.5-0.7-1.14-0.71-1.81c0-0.73,0.38-1.4,1-1.78
		c0.73-0.49,1.59-0.73,2.47-0.7c1.9,0.05,3.7,0.85,5,2.23v-3.49c-1.45-0.99-3.17-1.52-4.93-1.51c-1.67-0.07-3.3,0.49-4.57,1.58
		c-1.17,1.04-1.81,2.55-1.76,4.12c-0.02,1.07,0.31,2.13,0.93,3c0.86,1.08,1.93,1.97,3.13,2.64l2.34,1.42
		c1.89,1.17,2.83,2.41,2.83,3.72 M214.05,177.71l3.21-7.78l3.46,7.78H214.05z M206.99,186.81h3.16l2.68-6.36h9.16l2.86,6.36H228
		l-9.63-21.59h-2.16L206.99,186.81z M194.61,186.81h3.07v-10h8.37v-2.74h-8.37v-6h8.37v-2.74h-11.48L194.61,186.81z M170.77,172.74
		l-5.75-7.4h-3.71l7.93,10.11v11.36h3.15v-11.37l7.93-10.11h-3.73L170.77,172.74z M150.14,186.81h12.74v-2.83h-9.67v-18.65h-3.07
		V186.81z M133.14,186.81h12.74v-2.83h-9.67v-18.65h-3.07V186.81z M115.27,177.71l3.21-7.78l3.46,7.78H115.27z M108.21,186.81h3.16
		l2.68-6.36h9.16l2.86,6.36h3.15l-9.72-21.61h-2.16L108.21,186.81z M97.31,168.29c0.62,0.2,1.15,0.61,1.51,1.16
		c0.36,0.55,0.55,1.19,0.54,1.84c0.01,0.65-0.15,1.28-0.48,1.84c-0.31,0.53-0.79,0.96-1.35,1.21c-1.03,0.33-2.12,0.47-3.2,0.4h-1.17
		v-6.76h0.92c1.09-0.05,2.18,0.07,3.23,0.34 M93.15,186.84v-9.34h0.8c0.73-0.05,1.47,0.06,2.15,0.34c0.53,0.31,1.01,0.69,1.43,1.13
		c0.64,0.65,1.22,1.35,1.74,2.1l1,1.68l1,1.57l0.6,0.85l0.18,0.26l0.94,1.41h3.66l-1.14-1.54c-0.45-0.61-1.05-1.53-1.8-2.75
		c-0.83-1.42-1.75-2.78-2.76-4.07c-0.58-0.71-1.25-1.32-2-1.84c2.25-0.77,3.72-2.92,3.63-5.29c0.07-1.67-0.63-3.29-1.91-4.37
		c-1.47-1.14-3.31-1.71-5.17-1.61h-5.38v21.47L93.15,186.84z M81.06,177.56c0.06,1.21-0.07,2.42-0.4,3.58
		c-0.27,0.71-0.73,1.33-1.31,1.81c-1.27,0.99-2.85,1.5-4.46,1.43c-1.15,0.03-2.29-0.21-3.33-0.71c-0.87-0.41-1.61-1.07-2.11-1.9
		c-0.56-1.33-0.8-2.77-0.69-4.21v-12.23h-3.13v12.15c-0.04,1.28,0.07,2.56,0.35,3.81c0.19,0.72,0.49,1.41,0.88,2.05
		c0.36,0.56,0.8,1.07,1.3,1.51c1.9,1.52,4.3,2.3,6.73,2.18c2.42,0.11,4.79-0.67,6.67-2.2c0.51-0.43,0.94-0.94,1.3-1.5
		c0.39-0.65,0.69-1.36,0.89-2.1c0.28-1.23,0.4-2.48,0.36-3.74v-12.16h-3.1L81.06,177.56z M43.71,168.08h7.36v18.76h3.09v-18.81h7.48
		v-2.74H43.66L43.71,168.08z M30.82,177.75l3.21-7.78l3.46,7.73L30.82,177.75z M23.76,186.85h3.16l2.68-6.36h9.16l2.86,6.36h3.15
		l-9.68-21.65h-2.16L23.76,186.85z M16.99,181.98l-14.5-16.65H0.02v21.47h2.89v-16.54l14.35,16.53h2.64v-21.46h-2.91V181.98z"/>
	<path d="M199.21,134.49c14.22-4,23.79-13.78,31-26c7.36-12.35,10.26-26,10.12-42.06c0.18-16.9-5.21-33.39-15.35-46.91
		c-18.48-25-50.75-26.13-70.91-2.5c-10,11.73-15.28,25.43-16.92,40.61c-2.31,21.33,1.65,41.17,14.56,58.72
		C163.5,132.35,181.88,139.35,199.21,134.49L199.21,134.49z M173.83,37.97c4.08-4,8.82-6.64,14.74-6.59
		c6.47,0.08,11.53,3.16,15.69,7.77c8.15,9,10.56,20,10,31.79c-0.17,7.49-2.32,14.81-6.23,21.2c-10.8,17.07-28.64,17-39.27-0.19
		C158.76,75.75,161.1,50.38,173.83,37.97z M272.44,78.12l0.78-0.16c0.38,0.55,0.8,1.08,1.13,1.66l25.4,45.68
		c2,3.65,3.41,8.56,6.55,10.47c3.14,1.91,7.94,0.52,12,0.56h9.39c0.95-0.07,1.89-0.19,2.82-0.35v-4.6
		c0.15-23.58,0.22-47.16,0.53-70.74c0-3.52-0.88-5.91-3.83-7.84c-2.71-1.77-5.1-4-7.74-5.91c-4.35-3.1-8.8-6.07-13.93-9.6v47.2
		c-1.8-2.65-3.35-5.46-4.65-8.39c-7.25-14.36-14.54-28.71-21.87-43.04c-7-13.74-7.05-13.73-22-18.48l-9.14-2.9v124.48h24.53
		L272.44,78.12z M68.39,117.1c0,5.41,0.06,10.83,0,16.24c0,2.32,0.6,3.51,3.24,3.5c18.29-0.08,36.58-0.08,54.87,0
		c2.5,0,3.35-0.87,3.3-3.38c-0.14-6.49,0-13,0-19.49c0-5.42,0-5.42-5.47-5.42H94.05c-0.1-1.47-0.24-2.64-0.24-3.8V89.59
		c0-5.05,0.12-5.14,5.3-5.15c9,0,18.05-0.12,27.07,0.05c2.91,0.06,3.71-0.93,3.63-3.72c-0.21-6.53-0.21-13.02-0.01-19.49
		c0.07-2.74-0.87-3.48-3.52-3.44c-9.74,0.14-19.49,0-29.24,0.12c-2.52,0-3.36-0.75-3.3-3.29c0.16-6.13,0.13-12.27,0-18.41
		c0-2.24,0.68-3.21,2.94-3.55c10-1.51,19.88-3.29,29.86-4.7c2.44-0.35,3.29-1.06,3.24-3.52c-0.14-6.61-0.1-13.24,0-19.85
		c0-2.35-0.68-3.18-3.17-2.89c-18.25,2.19-36.24,6.19-53.69,11.94c-3.72,1.21-4.6,3.06-4.59,6.67
		C68.44,52.6,68.39,84.86,68.39,117.1L68.39,117.1z M3.36,136.83c18.17-0.07,36.34-0.07,54.51,0c2.76,0,3.45-1,3.4-3.62
		c-0.15-7.1-0.17-14.2,0-21.29c0.07-2.79-1-3.47-3.56-3.44c-9.5,0.12-19,0.06-28.52,0c-1.27,0-2.53-0.14-4.08-0.23V37.62
		c-1,0.2-1.38,0.17-1.62,0.35c-7.4,5.75-14.82,11.48-22.11,17.37c-0.85,0.95-1.31,2.2-1.27,3.48c-0.07,24.91,0,49.81-0.11,74.72
		C0.01,136.16,0.93,136.84,3.36,136.83z M357.4,139.69c6.75-0.25,11.93-6.73,12-15c0-7.81-4.65-14.34-11-15.27
		c-6.35-0.93-12.06,3.36-13.91,10.37c-0.35,1.4-0.55,2.82-0.6,4.26C343.44,132.98,349.51,139.98,357.4,139.69z"/>
</g>
</svg>
