<?xml version="1.0" encoding="utf-8"?>
<svg version="1.1" id="Layer_1" xmlns="http://www.w3.org/2000/svg" xmlns:xlink="http://www.w3.org/1999/xlink" x="0px" y="0px"
	width="100px" height="100px" viewBox="0 0 1299.3 1299.3" style="enable-background:new 0 0 1299.3 1299.3;" xml:space="preserve">
<g>
	<g>
		<circle style="fill:#E8E8E8;" cx="649.6" cy="649.6" r="649.6"/>
		<circle style="fill:#FFFFFF;" cx="649.6" cy="649.6" r="636.6"/>
	</g>
	<g>
		<path style="fill:#1A68BB;" d="M911.7,741.3c0,8.1-8.1,14.7-18.1,14.7H158.6c-10,0-18.1-6.7-18.1-14.7V561.4
			c0-8.1,8.1-14.7,18.1-14.7h735.1c10,0,18.1,6.7,18.1,14.7"/>
		<path style="fill:#FFF200;" d="M307.9,647.1c0,0,6-21.1,25.8-19.2c0,0,13.6-0.5,12.4,19.5l-0.2,0.5l-38.2,0.2L307.9,647.1
			L307.9,647.1z M365.1,656.3c7-35.3-23.4-36.7-23.4-36.7c-50.2-4.8-56.4,35-56.4,35c-4,12.8-2.5,29.6-2.5,29.6
			c3.2,16.8,15,23.1,15,23.1c25,13.5,56.4,1.3,56.4,1.3l1-8.7l-0.2-1c-20.9,9.8-36.7,0-36.7,0c-18.8-16.5-12.4-42.6-12.4-42.6
			 M369.2,692.1l-3,17.6c0,0,49.4,17.4,66.4-15.7c0,0,10.8-21.4-13.8-33.9c0,0-19-10-20-13.5c0,0-7.3-11.9,10.1-15.4
			c0,0,11.7-2.7,26.1,8.2l1.1,0.2l3.2-16.8l-4.3-0.8c0,0-18.1-6.3-39.1,0.8c0,0-21.7,7.3-19,30.6c0,0,0.3,8.9,20,19.5
			c0,0,13.8,7,16.8,13.8c0,0,3,12.7-15,14.6c0,0-14.7,2.1-28.5-9 M467,600.7l22-10.8l1,0.2l-5.5,31.5l26.4,0.3l-1.1,9.8l-26.8,0.2
			l-9.2,52.7c0,0-5.5,18.2,10.5,18.4c0,0,7.8-0.6,10.9-2.1l-1.9,11.2c0,0-35.3,7.9-41.5-9.5c0,0-2.2-5.4-0.3-14.1l10.1-56.9
			l-15.4-0.5l1.3-10l16.2,0.5 M506.6,652.5l40.2,0.2l0.5,0.8l-2.5,14.3l-40.7,0.3"/>
		<path style="fill:#FFFFFF;" d="M632,662.8c0,0-1.7,17.6-9.7,30.9c0,0-6.5,13.5-20.9,12c0,0-8.9-0.6-11.9-8.7
			c0,0-4.6-10.3,0.3-31.2c0,0,3.3-40.5,30.7-37.7C620.6,628.1,637.4,628.4,632,662.8L632,662.8z M652.2,637
			c-10.3-20.9-38.5-16.9-38.5-16.9c-45.9,2.1-48.1,52.9-48.1,52.9c-1.1,10.3,0.8,19.6,0.8,19.6c7.3,22.8,33.4,21.7,33.4,21.7
			c38.5,1.7,49.1-28.7,49.1-28.7C661.2,654.7,652.2,637,652.2,637"/>
		<path style="fill:#FFF200;" d="M252.9,663.4c0,0-3.5,34-21.7,41.3c0,0-18.5,5.2-21.9-11.2c0,0-0.3-11.4,0.5-17.7
			c0,0,2.9-44.7,28.3-44.7C238.2,631.1,257.5,628.2,252.9,663.4L252.9,663.4z M256.7,621c-27.6-6.8-40.1,12.8-40.1,12.8h-1l9.2-52.7
			H204l-17.1,100.9c0,20,9.5,25.2,9.5,25.2c16.8,12.2,44.3,4.8,44.3,4.8c34-9.5,35.8-51.8,35.8-51.8
			C279.1,623.5,256.7,621,256.7,621"/>
		<path style="fill:#FFFFFF;" d="M661.5,711.5l15.4-89.5h21.2l-3.8,21.1h0.8c0,0,13-26,43.7-22.6c0,0,20.6,0.5,14.4,31l-10.8,60.8
			h-21.2l10.8-62.6c0,0,3.2-18.2-12.2-15c0,0-18.1,0.6-28.8,33.3c0,0-1.9,4.1-8.2,44.2 M816.1,628.6c0,0,14.6,1.3,12,20.3l-38-0.6
			C790.1,648.2,794.7,626.7,816.1,628.6L816.1,628.6z M846.3,657.4c0,0,9-31.8-20.3-36.3c0,0-36.7-9.3-54.3,23.1
			c0,0-12.4,20.9-4.6,48.6c0,0,7.8,25.3,49.4,21.4c0,0,12.7-2.1,19.5-4.8l1.7-9.7c0,0-10.8,6.7-28.7,3.8c0,0-18.1-3.6-21.4-28.5
			c0,0-1.3-9,0-17.9"/>
		<path style="fill:#FFF200;" d="M947,541c-18.7,0-52.1,17.4-52.1,52.3c0,40.7,38.8,77.6,51.6,89.6l5.5,5.4
			c15.2,14.6,55.1,52.6,66,56.4c10.8-3.8,50.5-41.6,65.7-56.2l5.9-5.5c12.8-12,51.6-48.8,51.6-89.6c0-34.7-33.4-52.3-52.1-52.3
			c-19.8,0-38.8,10.1-48.8,20.1c-8.6,8.6-15.8,12.8-21.9,12.8h-0.6c-6,0-13.5-4.3-21.9-12.8C986,551.1,966.8,541,947,541"/>
		<path style="fill:#1A68BB;" d="M946.5,547.8c-18.7,0-52.1,17.4-52.1,52.3c0,40.7,38.8,77.6,51.6,89.6l5.5,5.4
			c15.2,14.6,55.1,52.6,66,56.4c10.8-3.8,50.5-41.6,65.7-56.2l5.9-5.5c12.8-12,51.6-48.9,51.6-89.6c0-34.7-33.4-52.3-52.1-52.3
			c-19.8,0-38.8,10.1-48.9,20.1c-8.6,8.6-15.8,12.8-21.9,12.8h-0.6c-6,0-13.5-4.3-21.9-12.8C985.3,557.9,966.3,547.8,946.5,547.8
			L946.5,547.8L946.5,547.8z M1017.5,769.7c-10.6,0-29-14.4-78.5-61.6l-5.5-5.2c-14.1-13.5-57.3-54.3-57.3-102.8
			c0-45.3,41.6-70.3,70.3-70.3c26.6,0,49.9,13.6,61.8,25.3c5.1,5.1,8.2,6.8,9.3,7.3c1.1-0.5,4.3-2.2,9.3-7.3
			c11.7-11.7,35-25.5,61.6-25.5c28.7,0,70.3,25,70.3,70.3c0,48.6-43.1,89.3-57.3,102.8l-5.9,5.5
			C1046.5,755.4,1028.3,769.7,1017.5,769.7"/>
		<path style="fill:none;stroke:#1A68BB;stroke-width:13.057;stroke-miterlimit:57.564;" d="M946.5,547.8
			c-18.7,0-52.1,17.4-52.1,52.3c0,40.7,38.8,77.6,51.6,89.6l5.5,5.4c15.2,14.6,55.1,52.6,66,56.4c10.8-3.8,50.5-41.6,65.7-56.2
			l5.9-5.5c12.8-12,51.6-48.9,51.6-89.6c0-34.7-33.4-52.3-52.1-52.3c-19.8,0-38.8,10.1-48.9,20.1c-8.6,8.6-15.8,12.8-21.9,12.8h-0.6
			c-6,0-13.5-4.3-21.9-12.8C985.3,557.9,966.3,547.8,946.5,547.8L946.5,547.8L946.5,547.8z M1017.5,769.7c-10.6,0-29-14.4-78.5-61.6
			l-5.5-5.2c-14.1-13.5-57.3-54.3-57.3-102.8c0-45.3,41.6-70.3,70.3-70.3c26.6,0,49.9,13.6,61.8,25.3c5.1,5.1,8.2,6.8,9.3,7.3
			c1.1-0.5,4.3-2.2,9.3-7.3c11.7-11.7,35-25.5,61.6-25.5c28.7,0,70.3,25,70.3,70.3c0,48.6-43.1,89.3-57.3,102.8l-5.9,5.5
			C1046.5,755.4,1028.3,769.7,1017.5,769.7L1017.5,769.7L1017.5,769.7z"/>
		<path style="fill:#498A33;" d="M996,680.7c-2.4-0.2-4.8-1.1-6.8-1.1C991,680.2,993.7,681.5,996,680.7L996,680.7z M988.5,684
			c0-0.8-1.6-1.1-1.1-1.9c1.7,0.5,5.5,2.4,7.1,1.4c-2.2-1.6-5.7-1.6-8.1-2.9c0,0.3,0,0.6-0.2,0.6c-2.4-1.9-4.6-4.1-5.9-7.1
			c-1.6-0.3-2.4-2.5-3.5-2.7c0.3,1,1,1.6,1.4,2.5c-4.9-3-6-10.8-12.4-11.7C973.6,669.3,979,678.6,988.5,684L988.5,684L988.5,684z
			 M985,667.8c2.4,2.1,4.6,4,7.9,4.8c1,0.2,1.9,1.7,2.9,2.2c0.6,0.3,1.6,0.3,2.2,0.6c1.4,0.8,2.2,2.1,3.8,2.4c0.6,0,1-0.3,1.6-0.3
			c1.7,2.7,8.1,0.8,11.2,2.1c0.5,0,0.8-0.2,1-0.3c1.9,1.1,3.6,2.5,4.6,4.6c-3-0.5-5.1-1.7-8.1-2.2c1.1,1.3,3.5,1.6,5.1,2.4
			c-3.3,0.6-8.6-0.6-12.4,0c3.2,1.1,8.2,0.3,11.6,1.4c-2.4,0.8-4.8,1.7-7.3,1.7c-0.3,0-1.1-0.2-1.4-0.2c-2.9-0.8-5.9-1.6-9.2-1.4
			c1.1-1,2.7-1.4,4.6-1.6c-2.1-1.6-4.6,1.6-7.1,0.2c-0.2,0.6,1.3,1,1.4,1.9c-2.5,0-4.1-1-6.2-1.6c-1.3,1-3.3,0.6-4.8,0
			c-0.5,0.2,0.5,0.3,0,0.6c-1.4-0.6-2.9-1.4-4-2.4c-0.2-0.5,0.6-0.5,0.2-0.8c-6.5-5.7-12.4-12.2-18.4-18.2
			c4.6,7.6,11.2,13,17.6,18.8c-5.2-2.7-9.8-7.1-13.6-11.9c-2.2-2.7-5.2-4.3-5.5-8.9c-1.6-0.8-3.5-1.3-4.3-2.9c1.1,0.2,1-0.8,0.8-1.4
			c2.7,0.5,4.6,1.7,7.1,2.4c-0.3-1.1-1.4-0.8-2.2-1.1c-1.3-0.5-2.5-1.3-3.6-2.2c-1.9-1.3-4-1.9-4.8-4.1c1.1-0.8,2.9,0.3,4.8,1
			c2.5,1,4.3,1.1,6,2.2c1.4,1,2.5,2.4,4.1,3.5c1.4,1.1,3.3,1.9,4.8,2.9c3.2,2.1,5.5,5.1,8.9,6.2C984.4,668.6,984.9,668.2,985,667.8
			 M1039.3,687.8c-0.8,0.2-1.7,0-2.5,0.2c-0.6,0.2-1.3,1-1.9,1.1c-1.1,0.5-2.4,0.3-3,1.4l3.5-0.5c-4.3,2.9-12,3-16.2,5.5
			c-0.8,0.5-2.1,1.1-2.2,2.2c9.2-4,20.4-7.1,29.6-10.9c1.1-0.5,3.6-1.4,3.3-1.9C1046.5,685.3,1043,687.2,1039.3,687.8L1039.3,687.8z
			 M1046.3,685.3c3,0.3,4-2.9,6.8-3.2c0.3-0.5,0.6-0.8,0.8-1.3C1050.4,680.7,1048.5,683.5,1046.3,685.3z M1047.1,681.8
			c2.1-1.4,4.4-2.5,6-4.3C1050.9,678.4,1048.2,680.2,1047.1,681.8z M1079.1,666.1c-2.5,1.4-6.7,1.3-9.5,2.4c1.6,0.6,4.9-0.6,6.8-0.3
			c-4.1,2.2-9,3.8-12.8,6.3c4.8-1.1,7.8-3.8,12.7-4.8c-1.4,1.4-3.2,2.7-5.1,4c-0.5,0.3-1.3,1-1.7,1.1c-1.9,1-4.1,0.8-6,1.9
			c-1.9,1-3,2.4-4.9,3c0.8-1.7,2.1-3,3.3-4.3c-2.9,0.3-3.5,4.4-6.8,4.9c0.6,0.3,2.1,0,2.7,0.3c-1.3,1.6-4.1,1.7-5.9,2.9
			c0,2.1-1.4,2.9-2.9,3.8c0,0.3,0.6,0.2,0.8,0.2c-1.1,1.1-2.9,1.6-4.3,2.4c-0.3,0,0-0.8-0.5-0.6c-9.3,3.5-18.2,7.6-28,10.6
			c10.8-1.1,18.8-6.3,27.9-9.7c-5.1,3.6-12.2,6.8-19.6,9c-3.6,1.1-6.8,3.2-10.8,1.6c-1.6,1-2.9,2.4-5.1,2.7c0-0.5,0.2-0.6,0.5-0.8
			c-0.2-0.5-0.8-0.5-1.1-0.8c1.9-2.1,4.3-3.5,6.3-5.4c-1.4-0.3-2.1,1.1-2.9,1.9c-2.1,1.7-4.9,2.4-7.8,3.3c0.5-1.4,2.7-1.1,3.3-2.2
			c-1.1-0.5-2.5,0.2-3.5,0.3c2.4-1.6,4.3-3.8,6.8-5.2c2.5-1.4,5.2-2.5,7.8-4.1c5.1-3,10.3-5.5,14.9-8.9c0-0.5-0.3-0.5-0.2-1
			c1.9-1,3.6-1.6,5.5-2.5c1.7-1,3-2.4,4.8-3.3c1.1-0.6,3-0.8,4.6-1.4c2.1-0.6,3.3-1,5.7-1.3c1.7-0.2,3.2-0.3,4-1.7
			c5.9-0.2,7.9-4.3,13.3-4.9c0.5-0.2,0.6-0.6,1-0.8C1075,664.7,1077.2,665.1,1079.1,666.1"/>
		<g>
			<path style="fill:#1A68BB;" d="M1003.2,615.1c-0.5,0.8-0.6,1.6-1.3,2.1c-9.3,8.2-10.1,25.7-4,36.4l1,1.4c0,0.2,0,0.5,0.2,0.6
				c0.6,0.5,1.7,1,1.9,1.6c1.6,5.1,5.9,7.4,10,10.1c0.6,0.5,1.1,1,1.4,1.9c-6.3-1.7-10.8-6.3-15.7-10.9c1.3,3.6,4.6,7.3,11.4,11.2
				c4.6,2.7,9.7,4.8,14.4,7.4c-2.2-0.5-4.6-0.8-6.7-1.4c-17.7-5.7-28.2-18.5-29.1-37.8c-0.2-3.5-0.2-7.1,0.3-10.6
				c2.1-11.9,12.7-22.2,24.5-24.4c2.4-0.5,4.6-1.6,7-1.7c16.3-1,30.6,11.2,32.8,27.4c1,7,0.3,13.6-1.3,20.3c-0.3,1.4-0.8,2.9-1.6,4
				c-4.9,5.9-10.6,10.6-18.5,12.4c-12.5,2.7-23-3.8-26-16.5c3.3,5.9,6.7,11.6,13.8,13.8c-0.2-0.8-0.2-1.3-0.3-2.1
				c5.7,2.1,11.1,1.9,16.3-0.6c1.7-0.8,3.2-1.9,4.1-4.1c1-2.4,2.9-4.3,4.4-6.5c0,0.8,0.2,1.4,0.2,2.7c2.5-2.1,2.2-4.6,2.2-7.1
				c0-2.4,0.8-5.4-0.3-7.1c-1.3-1.9-2.1-3.6-2.2-5.9h1.9c0-3-1-5.9-2.4-8.4l4.8,8.1c-0.8-4.6-2.1-8.9-5.7-12.2
				c0.2,1.3,0.5,2.4,0.6,3.6c-6.5-10.1-16.5-13.5-27.6-14.1c-4.3-0.3-8.9,1-11.4,3.8c-4.8,5.4-10.1,10.8-11.6,18.4
				c-1.4,6.8-0.6,13.3,2.4,19.5c0.2,0.3,0.5,0.6,1.4,1.6l-0.6-3.6c-2.1-7-2.2-13.9,0.2-20.9C996,622.2,998.8,618,1003.2,615.1
				L1003.2,615.1z M1015.3,656.9l15.8,2.1C1025.2,660.2,1020,660.4,1015.3,656.9z"/>
			<path style="fill:#1A68BB;" d="M1026.5,613.7c-7.3-2.4-14.4-2.4-21.2,1.1c-0.6,0.3-1.4,0.2-2.1,0.3l0,0
				c6.5-4.1,13.5-4.6,20.7-2.9C1024.9,612.6,1025.6,613.4,1026.5,613.7C1026.5,613.8,1026.5,613.7,1026.5,613.7L1026.5,613.7z
				 M1026.5,613.8c2.5-0.2,4.3,1.4,6.5,3.2C1029.8,616.5,1029,616.1,1026.5,613.8C1026.5,613.7,1026.5,613.8,1026.5,613.8z
				 M1038.4,623.2l-1.6-2.4c0.2-0.2,0.5-0.3,0.6-0.5l1.7,2.2C1038.9,622.7,1038.6,622.9,1038.4,623.2z M999,655.6
				c0-0.2,0-0.5-0.2-0.6v-2.7C1000.1,653.9,1000.1,654.9,999,655.6z"/>
		</g>
	</g>
</g>
</svg>
