<?xml version="1.0" encoding="utf-8"?>
<svg version="1.1" id="Layer_1" xmlns="http://www.w3.org/2000/svg" xmlns:xlink="http://www.w3.org/1999/xlink" x="0px" y="0px"
	 viewBox="0 0 999 489.5" style="enable-background:new 0 0 999 489.5;" xml:space="preserve">
<g id="g4005">
	<g id="g4011" transform="translate(303.5803,639.4783)">
		<path id="path4013" style="fill:#231F20;" d="M176.1-416.8v93.6c-0.6,23.2-1.1,23.7-1.5,24.4c-0.9,0.9-1.2,1.9-2.5,3.1
			c-1,0.9-2.5,2.7-4.1,3.1c-1.3,0.9-2.4,1.7-3.1,1.7c0,0.4-0.5,0.4-1.3,0.4c0,0-0.5,0.4-0.9,0.4c-0.4,0.5-0.4,0.5,0,0.9H234v-0.9
			c-0.5-0.4-0.5-0.4-1.2-0.4c-0.9-0.4-1.3-0.9-2.8-1.6c-1.2-0.9-2.9-2.7-4-3.6c-1.6-1.6-2-3.1-2.5-3.9c-0.4-0.9-0.7-1.2-0.7-37.2
			v-180.2l-61.8,61.3c4-1.7,9.7-0.7,12.5,2.6C176.1-449.8,176.1-443.2,176.1-416.8"/>
	</g>
	<g id="g4015" transform="translate(277.2133,647.007)">
		<path id="path4017" style="fill:#6BC856;" d="M43.2-469.8c0-6.2,0.3-12.2,0.9-18.2l158-158c6-0.6,12.1-0.9,18.3-0.9
			c8.6,0,17,0.6,25.2,1.8L44.9-444.6C43.8-452.8,43.2-461.2,43.2-469.8"/>
	</g>
	<g id="g4019" transform="translate(287.3654,624.8147)">
		<path id="path4021" style="fill:#6BC856;" d="M94.4-313.5c-7.9-6.8-15.2-14.4-21.8-22.5l96.7-96.7c4-1.7,11.3-0.8,14,2.6
			c2,2.7,2,4.9,2.2,25.6L94.4-313.5"/>
	</g>
	<g id="g4023" transform="translate(325.0032,669.7935)">
		<path id="path4025" style="fill:#6BC856;" d="M284.2-630.3c8.1,6.6,15.7,13.9,22.5,21.8l-97.6,97.6v-44.4L284.2-630.3"/>
	</g>
	<g id="g4027" transform="translate(319.3264,673.4052)">
		<path id="path4029" style="fill:#6BC856;" d="M255.5-655.7c9.8,4.7,19,10.3,27.7,16.7L35.4-391.3c-6.4-8.7-12-17.9-16.7-27.7
			L255.5-655.7"/>
	</g>
	<g id="g4031" transform="translate(312.3721,675.7515)">
		<path id="path4033" style="fill:#6BC856;" d="M220.5-672.2c11.8,2.4,23.1,5.9,33.9,10.5L22-429.4c-4.6-10.8-8.1-22.1-10.5-33.9
			L220.5-672.2"/>
	</g>
	<g id="g4035" transform="translate(277.6894,652.2979)">
		<path id="path4037" style="fill:#6BC856;" d="M45.6-507.1c13.1-72.2,70.1-129.2,142.3-142.4L45.6-507.1"/>
	</g>
	<g id="g4039" transform="translate(329.4559,628.994)">
		<path id="path4041" style="fill:#0FAA4B;" d="M306.6-342.9c-6.5,8.2-13.8,15.8-21.7,22.8l-80.5-80.5v-44.5L306.6-342.9"/>
	</g>
	<g id="g4043" transform="translate(333.131,634.4778)">
		<path id="path4045" style="fill:#0FAA4B;" d="M325.1-381.6c-4.6,9.7-9.1,18.1-15.4,26.7L200.9-463.7l21-21L325.1-381.6"/>
	</g>
	<g id="g4047" transform="translate(335.4306,641.4548)">
		<path id="path4049" style="fill:#0FAA4B;" d="M336.7-430.7c-2.3,11.8-5.8,23.2-10.3,34L225.5-497.6l22.2-22.2L336.7-430.7"/>
	</g>
	<g id="g4051" transform="translate(326.3195,661.8088)">
		<path id="path4053" style="fill:#0FAA4B;" d="M290.8-574.1l20-20c17.1,21.7,29.7,47,35.1,75.2L290.8-574.1"/>
	</g>
	<g id="g4055" transform="translate(325.3447,660.8351)">
		<path id="path4057" style="fill:#0FAA4B;" d="M285.9-567.2L349-504c0.7,6.5,1.1,13.2,1.1,19.9c0,8.1-0.5,16.1-1.6,23.9L263.7-545
			L285.9-567.2"/>
	</g>
	<g id="g4059" transform="translate(338.5345,607.6329)">
		<path id="path4061" style="fill:#0A974B;" d="M352.4-192.5l-14.9,71.7l-31.3,0l14.8-71.7l-28.9,0l5.2-24.8l88.9,0l-5.1,24.7
			L352.4-192.5z"/>
	</g>
	<g id="g4063" transform="translate(378.8348,599.5872)">
		<path id="path4065" style="fill:#0A974B;" d="M555.6-135.8l41.4,0l-4.8,23l-72.9,0l19.9-96.5l71.6,0l-4.7,23l-40.1,0l-2.6,12.9
			l37.1,0l-4.8,23l-37.1,0L555.6-135.8z"/>
	</g>
	<g id="g4067" transform="translate(364.4312,599.5824)">
		<path id="path4069" style="fill:#0A974B;" d="M483-135.8l41.4,0l-4.7,23l-72.9,0l19.9-96.5l71.6,0l-4.7,23h-40.1l-2.7,12.9h37.1
			l-4.9,23l-37.1,0L483-135.8z"/>
	</g>
	<g id="g4071" transform="translate(349.4442,605.3569)">
		<path id="path4073" style="fill:#0A974B;" d="M407.4-176.5l12,0c5.8,0,9.9-3.8,10.8-8.4c0.1-0.6,0.2-1.2,0.2-1.7
			c0-1.5-0.5-2.8-1.3-3.6c-0.8-0.9-1.4-1.7-5.7-1.7l-12.9,0L407.4-176.5z M402.7-153.4l-7.2,34.9l-31.4,0l20-96.5l46,0
			c15.6,0,20.1,2,24,5c4.9,3.6,7.6,9.4,7.6,16.2c0,1.8-0.2,3.7-0.6,5.7c-2,9.6-7.9,17.4-17.9,21.8c5.3,3.3,8,8.6,8,15.2
			c0,0.6,0,1.2,0,1.8l-1.1,15.1c0,0.8-0.1,1.6-0.1,2.5c0,2.1,0.2,4.8,1.1,9.5l0.6,3.6h-3.5l-26.3,0l-2.3,0l-0.6-2.3
			c-0.4-1.7-0.8-3.3-0.8-6.3c0-1.4,0.1-3.1,0.3-5.2l1.3-15.1c0-0.4,0.1-0.8,0.1-1.1c0-3.3-1.3-4.9-5.9-4.9H402.7z"/>
	</g>
	<g id="g4075" transform="translate(264.3759,599.8281)">
		<path id="path4077" style="fill:#0A974B;" d="M-21.6-137.5l38.9,0l-5.1,24.6l-70.3,0l20-96.5l31.3,0L-21.6-137.5z"/>
	</g>
	<g id="g4079" transform="translate(277.4843,599.831)">
		<path id="path4081" style="fill:#0A974B;" d="M44.5-137.5l38.9,0L78.3-113l-70.3,0l20-96.5l31.3,0L44.5-137.5z"/>
	</g>
	<g id="g4083" transform="translate(249.2959,599.3164)">
		<path id="path4085" style="fill:#0A974B;" d="M-97.6-133.9c7.2,0,17.7-5.5,22.2-27.1c0.9-4.2,1.2-7.8,1.2-10.8
			c0-12.1-5.8-15.2-11.6-15.2c-7.7,0-18.2,5.5-22.7,27.3c-0.9,4.4-1.3,8.1-1.3,11.1C-109.9-136.9-104.4-133.9-97.6-133.9
			 M-101.6-109.9l-0.6,0c-5.7,0-7.7-0.5-9.2-0.9c-0.3-0.1-0.5-0.1-0.6-0.2c-9.8-1.7-16.7-5.8-21.9-12.3c-4.5-5.7-7.4-13.6-7.4-23.9
			c0-4.4,0.5-9.2,1.6-14.5c6.4-30.6,28.8-49.4,57-49.4c15.6,0,24.6,4.5,31.2,12c5.3,6,8.6,14.1,8.6,25.2c0,4.5-0.5,9.5-1.7,15
			c-2.9,14.1-9.2,24.8-18,33.4C-72.3-116.1-83.7-110-101.6-109.9"/>
	</g>
	<g id="g4087" transform="translate(230.1893,599.5724)">
		<path id="path4089" style="fill:#0A974B;" d="M-194-135.7l6.7,0c8.3-0.1,14.2-2.9,18.8-7.7c3.9-4.1,7.5-10.6,8.9-17.2
			c0.6-2.9,0.9-5.6,0.9-7.9c0-11.4-6.5-17.1-17.2-17.1l-7.8,0L-194-135.7z M-230.2-112.6l20-96.5l45.7,0c14,0,25.7,6.1,31.3,14.1
			c3.6,5.1,5.9,12.5,5.9,21.7c0,3.9-0.4,8.1-1.4,12.7c-3.4,16.8-11.2,28.5-20.4,36.1c-10.9,9.1-22.8,11.9-34.8,11.9L-230.2-112.6z"
			/>
	</g>
	<g id="g4091" transform="translate(311.2837,605.3665)">
		<path id="path4093" style="fill:#0A974B;" d="M215-176.5l12,0c5.7,0,9.8-3.8,10.8-8.4c0.1-0.6,0.2-1.2,0.2-1.7
			c0-1.5-0.5-2.8-1.2-3.6c-0.7-0.9-1.4-1.7-5.6-1.7l-13,0L215-176.5z M210.2-153.4l-7.2,34.9l-31.3,0l19.9-96.5l46,0
			c15.6,0,20,2,24,5c4.9,3.6,7.6,9.4,7.6,16.2c0,1.8-0.2,3.7-0.6,5.7c-2,9.6-7.9,17.4-17.8,21.8c5.3,3.3,8,8.6,8,15.2
			c0,0.6,0,1.2-0.1,1.8l-1.1,15.1c-0.1,0.8-0.1,1.6-0.1,2.5c0,2.1,0.2,4.8,1.1,9.5l0.6,3.5h-3.5l-26.4,0h-2.3l-0.6-2.3
			c-0.4-1.7-0.8-3.3-0.8-6.3c0-1.4,0.1-3,0.3-5.1l1.2-15.1c0-0.4,0-0.8,0-1.1c0-3.3-1.2-4.9-5.9-4.9H210.2L210.2-153.4z"/>
	</g>
	<g id="g4095" transform="translate(293.6126,602.6227)">
		<path id="path4097" style="fill:#0A974B;" d="M125.9-157.2l15.2,0c-0.9-6.4-2-15.4-2.7-23.3C135-173.9,131.1-166.4,125.9-157.2
			 M112.6-134.2L102-115.8l-31.3,0l58.7-96.5l32.8,0l18.2,96.4l-32.5,0l-3.1-18.4L112.6-134.2z"/>
	</g>
	<g id="g4099" transform="translate(387.4331,597.692)">
		<path id="path4101" style="fill:#0A974B;" d="M599-122.5l1.7,0c1.9,0,2.8-0.5,2.8-1.8c0-1.4-0.9-1.9-2.9-1.9H599V-122.5z
			 M601.1-127.9c3.4,0,5.1,1.2,5.1,3.3c0,1.7-1,2.9-2.7,3.3l2.7,5.5h-2.9l-2.4-5.1H599v5h-2.6v-12.1L601.1-127.9z M594.4-128.2
			c-1.8,1.8-2.8,4.1-2.8,6.5c0,2.4,0.9,4.7,2.6,6.4c1.8,1.8,4.1,2.8,6.4,2.8c2.5,0,4.8-0.9,6.7-2.7c1.7-1.7,2.7-3.9,2.7-6.3
			c0-2.6-0.9-4.8-2.6-6.6c-1.8-1.8-4-2.7-6.6-2.7C598.3-130.8,596.1-130,594.4-128.2 M608.5-129.2c2,2,3.1,4.6,3.1,7.5
			c0,3-1.1,5.6-3.2,7.6c-2.1,2-4.8,3.1-7.6,3.1c-2.9,0-5.6-1.2-7.6-3.3c-2-2.1-3.1-4.7-3.1-7.6c0-2.9,1.2-5.6,3.2-7.7
			c2-2,4.6-3.1,7.5-3C603.7-132.4,606.4-131.3,608.5-129.2"/>
	</g>
</g>
</svg>
