<?xml version="1.0"?>
<svg xmlns="http://www.w3.org/2000/svg" xmlns:xlink="http://www.w3.org/1999/xlink" xmlns:svgjs="http://svgjs.com/svgjs" version="1.1" width="512" height="512" x="0" y="0" viewBox="0 0 512 512" style="enable-background:new 0 0 512 512" xml:space="preserve" class=""><g><path xmlns="http://www.w3.org/2000/svg" d="m512 256c0 141.386719-114.613281 256-256 256s-256-114.613281-256-256 114.613281-256 256-256 256 114.613281 256 256zm0 0" fill="#f1f1f1" data-original="#c6e2e7" style="" class=""/><path xmlns="http://www.w3.org/2000/svg" d="m339.097656 194.023438-22.375-22.375-229.402344 229.398437 102.222657 102.222656c21.195312 5.683594 43.46875 8.730469 66.457031 8.730469 141.386719 0 256-114.613281 256-256 0-23.035156-3.0625-45.355469-8.765625-66.589844l-79.761719-79.761718zm0 0" fill="#f1f1f1" data-original="#a8d3d8" style="" class=""/><path xmlns="http://www.w3.org/2000/svg" d="m401.667969 100.667969h-291.335938c-17.191406 0-31.066406 13.875-31.066406 31.066406v248.53125c0 17.191406 13.875 31.070313 31.066406 31.070313h291.335938c17.191406 0 31.066406-13.878907 31.066406-31.070313v-248.53125c0-17.191406-13.875-31.066406-31.066406-31.066406zm0 0" fill="#005285" data-original="#005285" style="" class=""/><path xmlns="http://www.w3.org/2000/svg" d="m432.734375 131.734375v248.53125c0 17.1875-13.875 31.066406-31.066406 31.066406h-145.667969v-310.664062h145.667969c17.191406 0 31.066406 13.875 31.066406 31.066406zm0 0" fill="#003e67" data-original="#003e67" style="" class=""/><path xmlns="http://www.w3.org/2000/svg" d="m401.667969 121.378906h-291.335938c-5.800781 0-10.355469 4.554688-10.355469 10.355469v248.53125c0 5.800781 4.554688 10.355469 10.355469 10.355469h291.335938c5.800781 0 10.355469-4.554688 10.355469-10.355469v-248.53125c0-5.800781-4.554688-10.355469-10.355469-10.355469zm0 0" fill="#deecf1" data-original="#deecf1" style="" class=""/><path xmlns="http://www.w3.org/2000/svg" d="m412.023438 131.734375v248.53125c0 5.796875-4.554688 10.355469-10.355469 10.355469h-145.667969v-269.242188h145.667969c5.800781 0 10.355469 4.554688 10.355469 10.355469zm0 0" fill="#f1f1f1" data-original="#c6e2e7" style="" class=""/><path xmlns="http://www.w3.org/2000/svg" d="m172.464844 142.089844c-22.78125 0-41.421875 18.636718-41.421875 41.421875 0 22.78125 18.640625 41.421875 41.421875 41.421875s41.421875-18.640625 41.421875-41.421875c0-22.785157-18.640625-41.421875-41.421875-41.421875zm0 0" fill="#00abe9" data-original="#00abe9" style="" class=""/><path xmlns="http://www.w3.org/2000/svg" d="m245.644531 111.023438h20.710938v289.953124h-20.710938zm0 0" fill="#005285" data-original="#005285" style="" class=""/><path xmlns="http://www.w3.org/2000/svg" d="m162.109375 318.132812h20.710937v41.421876h-20.710937zm0 0" fill="#00abe9" data-original="#00abe9" style="" class=""/><path xmlns="http://www.w3.org/2000/svg" d="m329.179688 318.132812h20.710937v41.421876h-20.710937zm0 0" fill="#ff3636" data-original="#ff3636" style=""/><path xmlns="http://www.w3.org/2000/svg" d="m256 111.023438h10.355469v289.953124h-10.355469zm0 0" fill="#003e67" data-original="#003e67" style="" class=""/><path xmlns="http://www.w3.org/2000/svg" d="m339.535156 318.132812h10.355469v41.421876h-10.355469zm0 0" fill="#f40000" data-original="#f40000" style=""/><path xmlns="http://www.w3.org/2000/svg" d="m339.535156 212.09375-58.199218 116.394531h116.398437zm0 0" fill="#ff3636" data-original="#ff3636" style=""/><path xmlns="http://www.w3.org/2000/svg" d="m397.734375 328.488281h-58.199219v-116.394531zm0 0" fill="#f40000" data-original="#f40000" style=""/><path xmlns="http://www.w3.org/2000/svg" d="m339.535156 142.089844c-22.78125 0-41.421875 18.636718-41.421875 41.421875 0 22.78125 18.640625 41.421875 41.421875 41.421875s41.421875-18.640625 41.421875-41.421875c0-22.785157-18.640625-41.421875-41.421875-41.421875zm0 0" fill="#ff3636" data-original="#ff3636" style=""/><path xmlns="http://www.w3.org/2000/svg" d="m380.957031 183.511719c0 22.78125-18.640625 41.421875-41.421875 41.421875v-82.84375c22.78125 0 41.421875 18.636718 41.421875 41.421875zm0 0" fill="#f40000" data-original="#f40000" style=""/><path xmlns="http://www.w3.org/2000/svg" d="m172.464844 318.132812h10.355468v41.421876h-10.355468zm0 0" fill="#1a96e2" data-original="#1a96e2" style="" class=""/><path xmlns="http://www.w3.org/2000/svg" d="m213.886719 183.511719c0 22.78125-18.640625 41.421875-41.421875 41.421875v-82.84375c22.78125 0 41.421875 18.636718 41.421875 41.421875zm0 0" fill="#1a96e2" data-original="#1a96e2" style="" class=""/><path xmlns="http://www.w3.org/2000/svg" d="m114.265625 224.933594 58.199219 116.394531 58.199218-116.394531zm0 0" fill="#00abe9" data-original="#00abe9" style="" class=""/><path xmlns="http://www.w3.org/2000/svg" d="m230.664062 224.933594-58.199218 116.394531v-116.394531zm0 0" fill="#1a96e2" data-original="#1a96e2" style="" class=""/></g></svg>
