<?xml version="1.0" encoding="utf-8"?>
<svg version="1.1" id="Layer_1" xmlns="http://www.w3.org/2000/svg" xmlns:xlink="http://www.w3.org/1999/xlink" x="0px" y="0px"
	 viewBox="0 0 319 238.8" style="enable-background:new 0 0 319 238.8;" xml:space="preserve">
<g>
	<path d="M168.2,116.9c15.8,0,25.2-7.9,32.1-19.4l19.4,20.5l7.4-7.4l-21.5-23.1l15.8-25.8l-7.9-5.3l-14.2,23.1L175,53.8
		c11-6.8,21.5-15.8,21.5-28.9S186,0.7,170.8,0.7c-14.2,0-25.8,10.5-25.8,24.2c0,9.5,5.8,17.9,15.8,27.3
		c-16.8,10.5-25.8,19.4-25.8,33.1C133.5,102.7,148.2,116.9,168.2,116.9z M154,25.4c0-7.4,5.8-14.7,15.8-15.8
		c9.5,0,15.8,6.8,15.8,15.8s-5.8,15.8-16.8,22.1C158.7,37,154,31.7,154,25.4z M165.5,60.1c0,0,28.9,30.5,28.9,29.4
		c-7.4,12.1-13.1,16.8-25.8,16.8c-13.1,0-24.2-9.5-24.2-21.5C144,75.3,149.8,68,165.5,60.1z"/>
	<polygon points="12.1,21.7 49.9,96.4 57.3,96.4 95.1,21.7 95.1,116.9 106.2,116.9 106.2,0.2 95.1,0.2 53.6,80.6 12.1,0.2 1.1,0.2 
		1.1,116.9 12.1,116.9 	"/>
	<path d="M318.5,85.3c0-40.5-66.7-25.8-66.7-54.7c0-13.1,10.5-21.5,26.8-21.5c14.7,0,25.8,7.4,29.4,20l9.5-3.7
		C311.6,7,295.4-1.4,277.5,0.2c-15.8,0-36.8,7.4-36.8,31c0,39.9,66.7,25.8,66.7,54.7c0,14.7-10.5,23.6-29.4,23.6
		c-16.3,0-27.3-10.5-33.1-23.1l-8.9,5.3c8.9,16.3,22.1,26.8,43.6,26.8C302.7,118.4,318.5,105.3,318.5,85.3z"/>
	<path d="M282.7,195.2l33.1-34.7h-14.2l-33.1,36.3v-36.3H258v78.3h10.5v-27.3l7.4-7.9l28.9,34.7H319
		C319,238.3,283.8,195.2,282.7,195.2z"/>
	<path d="M46.8,198.3c5.3-4.2,7.9-10.5,7.9-16.8c0-12.6-10.5-20.5-25.8-20.5H0v77.8h30.5c16.8,0,27.9-8.9,27.9-22.1
		C58.9,207.8,54.1,202,46.8,198.3z M11.6,171h17.9c9.5,0,15.8,4.2,15.8,11c0,7.4-5.8,12.6-15.8,12.6H11.6V171z M31.5,227.7h-20
		L11,203.6h18.4c7.4,0,18.4,2.1,18.4,12.1C47.8,223,41.5,227.7,31.5,227.7z"/>
	<path d="M105.6,160.5l-31,77.8h11l7.9-20.5h35.7l7.9,20.5h11l-32.1-77.8C116.1,160.5,105.6,160.5,105.6,160.5z M96.7,207.2
		l14.2-33.1l13.1,33.1H96.7z"/>
	<polygon points="218.1,160.5 218.1,217.8 175,161.5 175,160.5 166.1,160.5 166.1,238.3 176.6,238.3 176.6,179.9 221.8,237.7 
		221.8,238.3 229.7,238.3 229.1,160.5 	"/>
</g>
</svg>
