<?xml version="1.0"?>
<svg xmlns="http://www.w3.org/2000/svg" xmlns:xlink="http://www.w3.org/1999/xlink" xmlns:svgjs="http://svgjs.com/svgjs" version="1.1" width="512" height="512" x="0" y="0" viewBox="0 0 512 512" style="enable-background:new 0 0 512 512" xml:space="preserve" class=""><g><g xmlns="http://www.w3.org/2000/svg"><g><g><g><g><g><g><g><g><circle cx="256" cy="256" fill="#f1f1f1" r="256" data-original="#ffdc4a" style="" class=""/></g></g></g></g></g></g></g></g><path d="m512 256c0-5.827-.195-11.609-.578-17.339l-94.364-94.364-348.59 185.491 41.429 41.429-5.103 9.501 130.452 130.452c6.846.55 13.767.83 20.754.83 141.385 0 256-114.615 256-256z" fill="#f1f1f1" data-original="#fdba12" style="" class=""/><g><g><g><path d="m375.059 311.458c3.716 24.093 7.188 45.899 9.62 59.703 1.223 6.942 7.594 11.8 14.643 11.8 8.276 0 14.986-6.709 14.986-14.986v-56.518h-39.249z" fill="#61362b" data-original="#61362b" style=""/></g></g><g><g><path d="m97.692 311.458v56.518c0 8.276 6.709 14.986 14.986 14.986 7.049 0 13.42-4.858 14.643-11.8 2.432-13.804 5.904-35.61 9.62-59.703h-39.249z" fill="#915041" data-original="#915041" style=""/></g></g></g><g><path d="m403.244 283.699h-294.488c-9.667 0-17.503-7.836-17.503-17.503v-111.158c0-9.667 7.836-17.503 17.503-17.503h294.487c9.667 0 17.503 7.836 17.503 17.503v111.158c.001 9.667-7.836 17.503-17.502 17.503z" fill="#ff6c52" data-original="#ff6c52" style="" class=""/></g><g><path d="m403.244 137.535h-147.136v146.164h147.135c9.667 0 17.503-7.836 17.503-17.503v-111.158c.001-9.667-7.836-17.503-17.502-17.503z" fill="#ff432e" data-original="#ff432e" style="" class=""/></g><g><path d="m417.754 194.093c-18.914 0-34.246 15.333-34.246 34.246v47.318h-255.016v-47.318c0-18.914-15.332-34.246-34.246-34.246-18.913 0-34.246 15.332-34.246 34.246v81.839c0 14.892 12.072 26.965 26.965 26.965h338.071c14.892 0 26.965-12.072 26.965-26.965v-81.839c-.001-18.914-15.334-34.246-34.247-34.246z" fill="#ff432e" data-original="#ff432e" style="" class=""/></g><g><path d="m417.754 194.093c-18.914 0-34.246 15.333-34.246 34.246v47.318h-127.4v61.486h168.927c14.892 0 26.965-12.072 26.965-26.965v-81.839c0-18.914-15.332-34.246-34.246-34.246z" fill="#db0404" data-original="#db0404" style=""/></g></g></g></svg>
