<?xml version="1.0" encoding="utf-8"?>
<!-- Generator: Adobe Illustrator 24.0.2, SVG Export Plug-In . SVG Version: 6.00 Build 0)  -->
<svg version="1.1" id="Layer_1" xmlns="http://www.w3.org/2000/svg" xmlns:xlink="http://www.w3.org/1999/xlink" x="0px" y="0px"
	 viewBox="0 0 200 200" style="enable-background:new 0 0 200 200;" xml:space="preserve">
<style type="text/css">
	.st0{fill:#E61B76;}
</style>
<g>
	<path class="st0" d="M131.8,123.1c0-0.1-0.1-0.1-0.1-0.2c0,0,0,0,0,0C131.7,122.9,131.8,123,131.8,123.1z"/>
	<path class="st0" d="M129,107.9C129,107.9,129,107.9,129,107.9c0,0.1,0,0.2,0,0.2L129,107.9z"/>
	<path class="st0" d="M105.7,92.3C105.7,92.3,105.7,92.3,105.7,92.3C105.7,92.3,105.7,92.3,105.7,92.3z"/>
	<path class="st0" d="M96,122.3c0,0,0.1,0,0.1,0C96.1,122.3,96,122.3,96,122.3z"/>
	<path class="st0" d="M77.4,73.7c0.1,0.1,0.1,0.2,0.1,0.3c0,0,0.1,0.1,0.1,0.1C77.6,73.9,77.5,73.8,77.4,73.7z"/>
	<path class="st0" d="M49.5,90.5c-1.2,0.6-2.7-0.2-3.4-1.3C46.8,90.9,48.1,91.8,49.5,90.5z"/>
	<path class="st0" d="M51,88.3c-0.5,1.1-1,1.8-1.5,2.2C50.2,90.2,50.7,89.5,51,88.3z"/>
	<path class="st0" d="M46.2,89.3c-0.2-0.5-0.3-1-0.3-1.5C45.8,88.2,45.9,88.8,46.2,89.3z"/>
	<path class="st0" d="M156.9,100.5c0,0.1,0.1,0.1,0.2,0.2C157,100.6,156.9,100.5,156.9,100.5z"/>
	<path class="st0" d="M81,103.6c-0.2,0-0.4,0.1-0.5,0.1C80.7,103.7,80.8,103.7,81,103.6z"/>
	<path class="st0" d="M54.1,99.2c0.2,0.1,0.4,0.2,0.5,0.3C54.5,99.3,54.3,99.2,54.1,99.2z"/>
	<path class="st0" d="M66.1,110.2C66.1,110.2,66.1,110.2,66.1,110.2C66.2,110.2,66.2,110.2,66.1,110.2
		C66.2,110.2,66.2,110.2,66.1,110.2z"/>
	<path class="st0" d="M40,68.8c-0.1-0.1-0.3-0.2-0.5-0.3l0.1,0C39.7,68.6,39.9,68.7,40,68.8z"/>
</g>
<path class="st0" d="M83.9,85.6c-0.1-0.1-0.1-0.2-0.2-0.2c0,0,0,0,0,0c-1.3-1-3.9-1.2-4.4,0.7l0,0c0,0,0,0.1,0,0.2c0,0,0,0.1,0,0.1
	c0,0,0,0,0,0c-0.1,0.7-0.2,2.7,1.4,3.4c0.4,0.1,1.4,0.4,2.3,0.2c0.1,0,0.3-0.1,0.4-0.1c0,0,0,0,0,0c0,0,0,0,0,0
	c0.4-0.2,0.7-0.4,0.9-0.7c0,0,0,0,0,0c0.1-0.2,0.3-0.4,0.4-0.6c0,0,0,0,0,0l0,0C85,87.5,84.9,85.7,83.9,85.6z M82.4,88.1
	c-0.4,0.3-0.8,0.3-1,0.1c-0.2-0.2,0-0.6,0.4-0.9c0.4-0.3,0.8-0.3,1-0.1C83,87.4,82.8,87.8,82.4,88.1z"/>
<path class="st0" d="M76.4,109.5c0,0.1,0,0.1,0.1,0.2c-0.2-0.3-0.3-0.5-0.5-0.7c0,0.1,0.1,0.1,0.1,0.1c-0.3-0.5-0.6-0.9-1-1.4
	c0,0,0,0,0,0c-3.5-3.8-7.3-8.1-10-11.9c-4.4-0.8,3,5.8-5,6.2c-1.2-0.1-2.1-1.3-1-0.7c-0.9-0.7-1.1-1.8-1-2.9c0,0.1,0,0.1,0.1,0.2
	c0.4-8.8,7.6-3.6,7.9-5.9c0,0.1-0.1,0.1-0.1,0.2c-1.6-2.6-7.1-1.2-9,0.7c-0.9,0.8-0.9,3.8-1.3,5.3c0,0,0,0.1-0.1,0.2
	c-0.1,0.3-0.2,0.5-0.4,0.6c-0.3,0.1-0.5-0.1-0.5-0.1c-0.3-0.2-0.6-0.3-0.8-0.4c-1.1-0.5-2.1-0.4-3-0.1c0,0,0,0,0,0l0,0
	c-0.6,0.2-1.2,0.6-1.7,1.1l0,0v0c-1.3,1.2-2.4,2.8-3.6,3.8c-2.1,0.6-4-0.4-3-2.8c-0.1,0.4-0.1,0.8-0.1,1.1c8.3-13.5-1.3-7.5-9.5-3.8
	c10-10.9-6.3-18.9-3.2-1.8c-1.2,0.8-3.1,1.4-4.7,1.7c1.2-0.1,2.4-0.6,3.5-0.9c-3.7,1.4-8.5,1.5-11.8-0.4c0.3,0.2,0.7,0.4,1,0.5
	c-0.7-0.3-1.4-0.7-2-1.1c0.3,0.2,0.4,0.3,0.4,0.4c-1.7-1.5-7.4-5.3-2.8-17.1c-0.5,2.9,2.5-3.4,3.6-3.9c0.5,0.2,2.8-2.3,1.3-1.7
	c0.1-0.2-0.1-0.4-0.3-0.3c3.9-3.4,8.4-5.2,13.6-5.4c0,0,0,0,0,0c1.4-0.1,2.8,0,4.1,0.4c-0.1,0-0.2,0-0.3,0c4.4,0.7,7.4,4.6,5.3,8.7
	c0.2-0.3,0.4-0.8,0.6-1.2c-0.8,2.5-3,4.1-5.9,3.9c1.3-1.7-0.1-3.8-1.8-4.1c-0.1,0-0.6,0-1,0.3C24.3,83.1,46,84.6,43,73.2
	c0,0.2,0.1,0.4,0,0.6c-0.2-1.4-0.7-2.6-1.5-3.6c0,0.1-0.1-0.1-0.3-0.3l0.3,0.6C41.3,70,40.3,69,41.3,70c-0.2-0.3-0.4-0.5-0.6-0.7
	c0.2,0.1-0.4-0.4-1-0.8h0c0,0,0,0,0,0c-0.3-0.2-0.6-0.4-0.6-0.4c-0.1,0-0.2-0.1-0.4-0.1c0.1,0,0.2,0.1,0.3,0.2
	c-2-1.1-4.1-1.6-6.9-1.6c-0.4,0-0.9,0-1.3,0c0.1,0,0.1,0,0.2,0c-0.9,0.1-1.9,0.2-2.9,0.4c-0.1,0-0.2,0-0.3,0.1c-0.1,0-0.2,0-0.3,0
	c-0.2,0-0.4,0.1-0.6,0.1c0,0,0,0,0,0c-3.8,0.8-6.6,2.6-7.9,3.5c-0.5,0.3-1,0.7-1.4,1.1c0.1-0.1,0.3-0.2,0.6-0.4
	c-15.3,10.3-7.6,36.1,12.1,27.6c0.1,0.2,0.2,0.5,0.4,0.7c-5.9,3.4-12.5,7.9-12.3,15.4c0-0.1,0-0.3-0.1-0.4c-0.1,2.2,0.9,4.5,2.4,6.3
	h0c0,0,0,0,0,0.1c0.1,0.1,0.1,0.1,0.2,0.2c1.2,1.4,2.6,2.4,4.1,3c0.1,0.1,0.2,0.1,0.4,0.1c0,0,0,0,0,0c0.7,0.3,1.5,0.5,2.2,0.6
	c-0.1,0-0.2-0.1-0.3-0.1c0.1,0,0.2,0,0.3,0c0.1,0,0.1,0,0.2,0c0,0,0,0-0.1,0c2.7,0.4,4.9,0,4.9,0c13.3,17.6,30.8-2.7,23.2-18.7
	c-0.2-1.5,0.2-4.4-1.8-3.8c0.1,0,0.1,0,0.2,0.1c0.1,2.2,0.7,5.3-2.9,5.3c0.1,0,0.1,0,0.2,0c-6.6-1.1-2.8-9.9,4.2-7.6
	c0.4,0,0.4-0.8,0.5-1.1c0.4,5,7.7,6.9,9.8,2c1.9,2.3,4.2,4.6,6.1,7.1c0.9,1.2,3.9,5.7,3.2,9.8c-0.1,0.5-0.2,1-0.4,1.4
	c-0.1,0.2-0.2,0.5-0.3,0.7c-0.7,1.2-1.6,2.1-2.6,2.6c-0.1,0-0.1,0.1-0.2,0.1c-3.1,1.4-6.9,0.1-7.6-0.6c0,0,0.1,0.1,0.1,0.1
	c-4.5-3.3-2.1-11.2,1.9-12.1c-0.2,0-0.3,0-0.3,0.1c0.1,0,0.2-0.1,0.4-0.1c0,0,0,0,0,0c0,0,0,0,0,0c0,0,0,0,0,0c0,0,0,0,0,0
	c0,0,0.1,0,0.1,0c0,0,0,0,0,0c0,0,0,0,0,0l0,0l0,0c0,0,0,0,0,0l0,0c0,0,0,0,0,0l0,0c0,0,0,0,0,0c0,0,0,0,0,0
	c-0.1,0.1-0.2,0.2-0.2,0.3c0,0,0,0,0,0c-0.1,0.3-0.3,0.6-0.5,1.1c0,0,0,0,0,0c0,0,0,0,0,0c0,0,0,0,0,0.1c-0.1,0.2-0.1,0.4-0.1,0.6
	c0,0,0,0,0,0c0,0.2,0,0.3,0,0.5c0,0.4,0.1,0.7,0.3,1c0.1,0.2,0.3,0.4,0.4,0.5c0,0,0,0,0,0c1,0.9,2.8,1.1,3.7-0.1
	c0,0.1,0.2-0.1,0.4-0.5c-0.1,0.1-0.1,0.1-0.2,0.2c0.5-0.7,0.6-1.7,0.4-2.5c0.2,0.3-0.4-1.2-0.2-0.9c-0.4-0.4-0.8-1-1.3-1.3
	c0,0,0,0.1,0.1,0.1c-0.2-0.1-0.5-0.3-0.7-0.3c0,0,0,0,0,0c-0.5-0.2-1.1-0.3-1.7-0.3c0,0,0,0-0.1,0c0,0-6.8-0.2-6.8,8.5
	c0,0.1,0,0.2,0,0.4c0.1,5.3,3.6,7.2,6.4,7.8c1,0.3,2,0.4,2.9,0.3c0.2,0,0.3,0,0.4,0c0,0,0,0,0,0C76.7,125.1,82.1,116.2,76.4,109.5z
	 M33.7,79.2c-0.4,0.2-0.8,0.2-0.9,0c-0.1-0.2,0-0.6,0.4-0.8c0.4-0.2,0.8-0.2,0.9,0C34.3,78.6,34.1,79,33.7,79.2z M31.1,91.1
	c0.3-3.3,3.3-2.7,3-1c-0.7,3.7-2.4,5.2-2.4,5.2S30.9,93.2,31.1,91.1z M32.8,117.9c-0.1,0.4-0.2,0.9-0.1,1.3c0,0.1,0,0.3,0,0.4
	c0,0,0,0,0,0c-0.1,0.9,0,1.8,0.1,2.6c0,0,0,0,0,0c0.1,0.2-0.1,0.5,0,0.7c-0.7,0.1-1.5,0.2-2.2,0.2c0,0,0,0,0,0
	c-0.6,0-1.1-0.1-1.6-0.2c-1.7-0.5-3.2-1.4-3.7-1.8c-2.7-2-4.6-5.1-4-8.6c0,0,0,0,0,0.1c0.2-1,0.4-1.7,0.9-2.6l0,0.1
	c0.1-0.2,0.1-0.2,0.1-0.2c1.1-1.9,2.8-3.6,4.9-5.2c0,0,0,0,0.2-0.1l-0.1,0c0.2-0.2,0.5-0.3,0.7-0.5c-0.1,0.2,0.3-0.2,0.3-0.1
	c0-0.2,0.3-0.3,0.4-0.4c0,0,0,0-0.1,0c3.8-4.8,7.3,5.7,7.9,8.2c-0.2,0.2-0.6,0.5-1,0.9l0,0c0,0,0,0,0,0c-0.3,0.3-0.6,0.7-0.8,1
	C33.9,114.8,32.9,116.4,32.8,117.9C32.8,117.9,32.8,117.9,32.8,117.9z M34.4,121.6c0-0.3-0.1-0.8-0.1-1.5c0-0.1,0.1-0.1,0.1-0.1
	c0,0-0.1,0-0.1,0c0-0.3,0-0.7,0.1-1c0-0.2,0.1-0.3,0.1-0.5c0,0,0,0,0,0c0.6-2,1.7-3.9,3.2-5.2c1.1,1.6,1,3.9,0.3,5.6
	C37.9,119.1,36.6,121.2,34.4,121.6z M49.4,109.2C49.4,109.2,49.4,109.2,49.4,109.2c1.9,0.7,4.1,0.2,5.2-1.1c0,0,0,0,0,0
	c0,0,0,0,0.1-0.1c0.1,0.3,0.1,0.6,0.2,0.8c0,0,0-0.1,0-0.1c0.4,1.5,0.4,3,0.8,4.3c0,0.3,0,0.7,0,1c0,0.1,0,0.2,0,0.4
	c0,0.8,0,1.5,0,2.3c-0.1,2.5-0.9,6.2-3.4,8.9c-0.6,0.6-1.2,1.1-1.8,1.6c0,0,0,0,0,0c0,0,0,0,0,0c-2.1,1.4-4.3,1.7-5.5,1.8
	c-0.3,0-0.7,0-0.9,0c-7.8-0.3-9-5.5-9-5.5l-0.1-0.3c2.7-0.9,5.4-2.5,5.8-5.4c0.9-1.9-1.4-5.2-0.4-5.7c0.9-0.8,7-1.3,5.8,0.9
	c-5.2,8.9,10.4,5.3,3.1-0.9c-0.1-0.1-0.3-0.1-0.4-0.2c0.1-0.1,0.2-0.2,0.1-0.3c0.1,0,0.1,0.1,0.2,0.2c-7.9-6.8-9.6,3-13.5-5.9
	c-0.2-1.5-2.5-3.7-1.7-5.2c2.3-1.3,4.8-2.4,7.2-3.4c-3.4,3.7-0.4,11.2,5,7.5C46.6,106.9,47.6,108.6,49.4,109.2z M47.5,116
	c0-0.5,0.4-0.8,0.8-0.8s0.8,0.4,0.8,0.8s-0.4,0.8-0.8,0.8S47.5,116.5,47.5,116z M67.6,111.7c0.3,0,0.7,0.3,0.7,0.8
	c0.1,0.5-0.2,0.9-0.5,0.9s-0.7-0.3-0.7-0.8C67,112.2,67.3,111.8,67.6,111.7z M63.7,122C63.7,122,63.7,122,63.7,122
	c-0.1-0.1-0.2-0.1-0.3-0.2C63.5,121.9,63.6,121.9,63.7,122z"/>
<path class="st0" d="M146.8,108.6c-0.4,0.3-2.1,0.8-2.8,1.1c0.7-0.2,1.3-0.6,2-0.6c-4,1-7.5,3.5-10.1,6.6c0.5-0.5,0.9-1,1.5-1.4
	c-1.7,1.9-3.4,3.7-4.3,6.2l0.1-0.2c-0.4,1-0.8,2-1,3.1c0,0-0.1,0-0.1,0.1c-0.1,0.2-1-2.5-1.3-3.4c0-0.1-0.1-0.3-0.1-0.4l-1.3-6.3
	c-0.2-1.8-0.4-3.6-0.3-5.4c-1.4-5.3,4-13.7,1.6-13.9c0,0,0,0,0,0s-0.1,0-0.2,0c0,0,0,0-0.1,0c-0.4,0-1.2,0.2-1.7,1
	c0,0,0,0.1-0.1,0.1c0,0.1-0.1,0.2-0.1,0.2c-0.1,0.2-0.1,0.4-0.2,0.6c0,0,0,0,0,0c0,0,0,0,0,0c0,0.2-0.1,0.4-0.1,0.6
	c-0.2,0.8-0.9,2.2-3.1,1.7c-2.8-0.6-2-3.9-1.7-4.7c0.2-0.4,0.4-0.7,0.6-0.9c0,0.1,0.2-0.2,0.6-0.5c-0.1,0.1-0.3,0.2-0.4,0.3
	c0.8-0.8,2-1.3,3.1-1.2c-0.4,0,1.5,0.2,1.2,0.3c0.6,0.1,1.2,0.6,1.5,1.1c0,0,0-0.1,0-0.1c0.3,0.5,0.8,0.8,1.1,0.6
	c-0.1,0-0.4,0-0.5-0.1c2.2-0.1,0.7-2-0.8-2.9l0,0l0,0c-0.5-0.3-1-0.5-1.3-0.5c0,0,0,0,0,0c-0.6-0.2-1.4-0.3-2-0.1
	c-1.4,0.4-5,0.8-5.4,5.8c0,0.4,0,0.8,0,1.1c0,0,0,0,0,0c0,0.1,0,0.3,0.1,0.4c0.3,1.6,1.3,2.4,2.4,2.8c0.5,0.2,0.8,0.3,0.8,0.2
	c0.2,0.1,0.4,0.1,0.6,0.1c-0.1,0-0.2,0.1-0.2,0.1c0.5,0,0.9,0,1.3,0c0,0,0,0,0,0l0,0c1.5-0.1,2-0.3,1.2,2c0,0,0-0.1,0-0.2
	c-0.2,1.7-0.2,4.2-0.4,3.9c0.7,7.1-1.3,20.3,6.7,22.5c-0.1,0.1-0.2,0.1-0.4,0.2c2.2-0.2,2-7,3.9-9.1c-0.2,0.2-0.3,0.4-0.5,0.5
	l0.1-0.3c-0.2,0.2-0.3,0.4-0.5,0.6c4.8-13.7,32.1-12.6,25.2,0.3c-1.7,2.5-5.9,1.1-5.9,1.1c2.6-0.5,2.1-4.9-0.6-4.6c0,0,0,0,0,0
	c-6.2,1.3-0.2,7.3,3.7,7c-0.3,0-0.5,0.1-0.8,0.1C170.6,123.5,165.7,103.7,146.8,108.6z M155.1,118.6c0.5-0.2,0.9-0.1,1,0.2
	s-0.2,0.7-0.6,0.9c-0.5,0.2-0.9,0.1-1-0.2S154.6,118.8,155.1,118.6z"/>
<path class="st0" d="M189.8,82.7c-2.7-10.2-16.2-6.2-22.6-2c-2.2-5.8-8.6-8.8-13.9-10c-1.8-2.7-4.4-4.3-7.2-5.1c0,0,0,0,0,0
	c-0.7-0.2-1.6-0.4-2.4-0.5c0,0,0,0,0,0c-0.5-0.1-1.1-0.2-1.6-0.2c-0.2,0-0.3,0-0.3,0c0,0,0,0-0.1,0c-1,0-2.1,0.1-3.2,0.4
	c0,0-0.1,0-0.1,0l0,0c-4.2,1-8.4,3.4-11.2,4.9c-5.5-6.3-16.7-4-19.5,3.8c-5.8,17,26.1,35.6,6.1,50.5c2.1-3-10.1-43.5-10.3-24.2
	c-6,4.2-6.3-9.5,1.4-6.7c1.6,0.8,2.8-2,0.9-2.4c-4.3-2-9.3,2.5-9.2,6.3c0,0,0,0,0,0.1c0,0,0,0,0,0.1c0,0,0,0.1,0,0.1
	c0,0.4,0.1,1.2,0.3,2c-0.8,0.8-1.5,1.1-2,1.2c0,0,0.1,0,0.1,0c-0.1,0-0.2,0.1-0.3,0.1c0,0,0,0,0,0c0,0,0,0,0,0c-0.1,0-0.2,0-0.3,0
	c0,0-0.1,0-0.1,0c-0.3-0.2-0.6-0.9-0.8-1.6c-0.1-0.9-0.1-1.9-0.1-2.4c-1.2-11.1-6-0.5-7.3,4c-1.9-1.4,0.3-3.7-0.1-5.6
	c-0.9-5-3.7,0.5-2.6,3.6c-1.2,2.8-5.6,4.3-5.3,0.2c0.7-1.5,2-2.7,2.1-4.7c-1.5-5.7-4.2,7.5-2.8,2.8c0.1,2.6-4.4,4.9-5.7,2
	c0.6,1.1,2.1,1.4,3.2,0.8c-3.1,1.4-4.2-2.7-3.9-5c0,0.2,0,0.4,0.1,0.5c-0.3-1.8-0.1-3.6-0.1-5.5c0,0,0-0.1,0-0.1c0,0,0,0,0,0
	c0-0.2,0-0.3,0-0.5c1.5,0,2.9-0.5,4.2-1.4c-0.1,0-0.2,0-0.2,0c1.4-0.9,2.4-2.4,3-3.9c-0.2,0.5,0.5-1.4,0.5-1.7c0,0-0.1,0-0.1,0
	c0.3-0.9,0.5-2,0.6-3l0,0c0,0,0.2-1.1,0-2.5c0,0,0-0.1,0-0.1c0-0.3-0.1-0.7-0.2-1c0,0,0,0,0-0.1c-0.2-0.7-0.4-1.4-0.8-2.1
	c-0.6-1-1.8-1-2.3-1c0,0,0,0,0,0c-2.1,0-3.8,3.5-4.6,6.7c0.4-1.8,1-3.9,2.2-5.5c-2.5,3.1-3.6,10-4,14.3c-6-0.9-11.6-5.9-17-5.9
	c-4.8,0-6.3,3-6.2,5.5c0-0.1,0-0.2,0.1-0.3c0.1-0.9,0.4-1.8,1-2.6c-0.3,0.7-0.7,1.5-0.8,2.2c0-0.1,0.1-0.1,0.1-0.1
	c-0.4,1.2,0.3,2.5,1.5,2.9c0,0,0-0.1,0-0.1c0.1,0.1,0.2,0.1,0.3,0.1l0,0c0.1,0,0.2,0,0.3,0c0,0,0-0.1-0.1-0.1
	c1.5,0.5,2.8-2.4,1.2-3.2c-0.6-0.3-1.9,0-2.3-0.6c3.6-8.8,16.1,3.1,22.4,3.1c-0.1,3.5-0.3,7.6,1.5,10.6c-0.5,1.9,4,2.6,5.5,1
	c0,0.1,0,0.2,0.1,0.3c0,0,0.1-0.1,0.1-0.1c0.3,3.6,3.8,2.7,6,1.7c-0.5,0.4-1.1,0.9-1.7,1c1.1-0.3,2.1-1,2.8-1.6
	c1.9,3.7,5.5-0.2,5.8-2.8c1.8-9.1,0.1,10.1,7.8,2.7c1.5,2.9,6.2,2.9,8,0.7c5.4,10.1,10.7,31.9-7.8,22.2c4.1-2-0.6-7.9-3.7-4.6
	c-3.7,7.2,8.5,9.9,13.7,9.2c-9.5,9.4-29.5,0.1-23.3-13.8c1.6-6.2,12.9-10.2,16.8-3.7c-3.1-0.4-4,5.1-0.2,5.3c5.1-0.7,2-7.6-1.1-9
	c1,0.6,1.8,1.5,2.4,2.4c-0.7-1.1-1.7-1.9-2.8-2.6c0.3,0.2,0.4,0.3,0.4,0.3c-1-0.7-2.2-1.1-3.4-1.4c1.3,0.3,2.5,0.8,3.4,1.4
	c-8.1-4.6-18.6,1.8-18.4,12.3c-1.4,14.4,22.6,19.8,29.7,8c12.7-5.2,13.7-12.9,11-21.3c0,0,0,0,0,0c-0.2-1-0.7-2.2-1.2-3.4
	c0,0,0,0,0,0c-1-2.6-5.2-10.2-5.9-11.4c-0.3-0.5-0.6-1-0.8-1.6l-1.6-3.3c-3.4-7.4-4.5-13.9,3.4-17.8c3.9-1,7.4,0,9.6,2.7
	c-1.1,0.9-2.1,1.9-3.1,2.9c-0.9-0.9-2.3-1.4-3.6-1.2c1,0,1,0.1,2,0.5c-3-1.4-6.1,1.4-5.9,4.5c1.8,11.8,18.5,3.8,12.9-6.2
	c5.4-5,18.2-7.9,23.3-2c-0.3,0-0.6,0-0.8,0.1c-22.3,1.1-12.8,30.9,15.6,12.7c0.9,3.2,0.7,7.5-0.2,10.5c0.1-0.3-0.6,1.6-1.1,2.8
	c0.2-0.4,0.4-0.8,0.6-1.3c-1.4,4.8-5.4,6.1-7.5,5.2c-2.1-1-1.1-3.1-1-3.4c0.2-0.4,0.5-0.9,1-1.3c1.1-0.9,3.2,0,4.9,1.8
	c3.5-2-4.6-5.9-6.9-2.4c0.2-0.1,0.3-0.3,0.6-0.5c-1.2,0.9-1.8,2.4-1.7,3.8c-0.1,0.1-0.2,0.3-0.2,0.4c-0.4,0.6-1.2,1.9-2.1,2.3
	c-1.2,0.5-2.2,0.1-2.8-1c0,0,0.7-3.8,0.8-4.4c0,0,0,0,0-0.1c0.1-1.2-0.1-2.2-1.2-2.3c0,0-1.9,0.3-2,2.8c0,0,0,0,0,0
	c-0.3,1.1-0.3,2.5,0.3,4c-0.7,1.6-2,2.6-3.2,2.7c-0.2,0-0.3,0-0.5,0c0,0,0,0,0,0c0,0-0.1,0-0.1,0c-0.5-0.1-0.9-0.4-1.3-0.9
	c0,0,0-0.1-0.1-0.1c0,0,0-0.1-0.1-0.1c-0.2-0.5-0.3-1-0.3-1c0,0,0-0.1,0-0.1c0,0,0-0.1,0.1-0.1c0-0.1,0-0.1,0.1-0.2
	c0.3-0.9,0.5-2.3,0.3-3.2c0,0,0,0,0,0c0-0.2-0.1-0.3-0.1-0.5c-0.2-0.4-0.5-0.7-0.9-0.8c-0.2-0.1-0.4-0.1-0.6,0
	c-0.3,0.1-0.5,0.6-0.7,1.1c-0.1,0.3-0.1,0.7-0.2,1c0,0.1,0,0.2,0,0.2l0,0c0,0.9,0.2,1.8,0.3,2.5c-0.4,1.3-1.9,2.7-3.3,3.2
	c-0.8,0.1-1.3,0-1.7-0.3c-0.2-0.2-0.4-0.4-0.5-0.6c-0.3-0.6-0.4-1.3-0.5-1.9c0.2-2,2.2-4,2-5c0-0.2-0.2-0.4-0.5-0.6
	c-7.2,3.7-1.2,15.6,5.1,7.4c1.3,2.5,4.4,2.5,6.3,0.8c-1.2,1.3,0.9-0.4,1.3-1.3c2,1.9,5.9,0.9,7.2-1.4c8.9,8.1,15.5-10,12.3-18.3
	c1-0.6,2.1-1.2,3.2-1.8l0,0c0,0,6.4-4,12.2-2.4c0.1,0,0.1,0,0.2,0c0.5,0.1,1,0.3,1.4,0.5c0,0,0.1,0,0.1,0.1c1.4,0.7,2.4,1.7,2.7,3.5
	c-2.1-1.1-4.5,1.7-3.8,3C185.3,91.2,191.2,87,189.8,82.7z M78.4,80.8C78.4,80.8,78.4,80.8,78.4,80.8C78.4,80.8,78.4,80.8,78.4,80.8
	L78.4,80.8z M70.8,88.3c0.8-3.3,0.8-7,2.1-10.2v0c0.2-0.6,0.4-1,0.6-1.5l0,0c0.6-1.3,1.4-2.5,2.4-2.5c0.5,0.1,2.1,1.9,1.6,5.2
	c-0.2,3.4-1.8,7.1-4.8,8.8c0,0,0,0,0,0c-0.3,0.1-0.5,0.2-0.8,0.2c0,0,0.1-0.1,0.1-0.1C71.6,88.3,71.2,88.2,70.8,88.3
	C70.8,88.3,70.8,88.3,70.8,88.3z M48.2,88.2c0.3-0.2,0.7-0.3,0.8-0.1c0.1,0.2,0,0.5-0.4,0.8c-0.3,0.2-0.7,0.3-0.8,0.1
	C47.7,88.8,47.9,88.4,48.2,88.2z M97,122.8c-0.2,0.4-0.5,0.5-0.8,0.4c-0.3-0.1-0.3-0.5-0.2-0.9c0.2-0.4,0.5-0.5,0.8-0.4
	C97.1,122.1,97.2,122.5,97,122.8z M101.8,114.3c0.2,0.3,0,0.7-0.4,0.9c-0.4,0.2-0.9,0.2-1-0.1s0-0.7,0.4-0.9
	C101.2,114,101.6,114.1,101.8,114.3z M127.1,78.9c-0.6,2.5-2.8,3.7-3.6,4.2c-0.4,0.1-0.8,0.2-1.3,0.3c0,0,0,0,0,0
	c-0.1,0-0.1,0-0.2,0c-0.1,0-0.2,0-0.3,0c-0.7,0-1.5-0.1-2.2-0.3c0,0,0,0,0,0c0,0,0,0,0,0c-0.5-0.2-1-0.4-1.4-0.8
	c0,0-0.1-0.1-0.1-0.1c-0.1-0.1-0.2-0.2-0.3-0.3c-0.1-0.1-0.1-0.2-0.2-0.2c-0.2-0.2-0.3-0.5-0.3-0.7c0,0,0,0,0.1,0
	c0,0-0.1-0.1-0.1-0.1c-0.3-1.2-0.1-2.2-0.1-2.3c0.7-1.5,3.1-2.5,3.1,0c2.2,3.6,4.2-3.2,6.3-3.4C127,76.3,127.3,77.6,127.1,78.9z
	 M158.7,85.8c0,0-0.1,0-0.1,0.1C158.6,85.8,158.6,85.8,158.7,85.8c-0.3,0.1-0.6,0.3-0.8,0.4c-0.2,0.1-0.5,0.1-0.7,0.2l0,0
	c-0.7,0.3-1.4,0.5-2.1,0.7c0.1,0,0.2,0,0.2,0l-0.2,0.1c-0.2,0.1-0.5,0.1-0.7,0.2c-1.4,0.2-2.8,0.5-4.4,0.6c0,0,0,0-0.1,0l0.1,0
	c-0.3,0-0.5,0.1-0.7,0.1c-8.6,0.2-9.2-6-9.2-7.2c0.1-2.6,1.3-4.9,3.7-6.2c-0.3,0.3,3.8-2,3.7-1.3c0.6-0.1,1.6-0.3,1.5-0.1
	c1.8-0.4,3.6,0.4,3.2,2.5c0-0.2,0-0.3-0.1-0.4c0,0.7,0,1.4-0.7,1.9c-3.8-0.4-4.5,6-0.7,6c0,0,0,0,0,0c1.6,0.3,3-0.9,3.4-2.4
	c0,0,0.1,0.1,0.1,0.1c0.7-2,0.8-4.7,0.2-6.9c1.6,0.5,3.4,1.1,4.7,2.1c1.3,0.3,5,3.2,5.6,5.2C164.9,81.6,162.6,84,158.7,85.8z
	 M151.6,81.7c-0.4,0.2-0.9,0.2-1.1-0.1s0.1-0.7,0.6-0.9c0.4-0.2,0.9-0.2,1.1,0.1C152.3,81.1,152,81.5,151.6,81.7z M187,86.2
	c-0.4,0.2-0.9,0.1-1-0.2c-0.1-0.3,0.1-0.7,0.6-0.9c0.4-0.2,0.9-0.1,1,0.2C187.7,85.6,187.5,86,187,86.2z"/>
</svg>
