<?xml version="1.0" encoding="utf-8"?>
<svg version="1.1" id="Layer_1" xmlns="http://www.w3.org/2000/svg" xmlns:xlink="http://www.w3.org/1999/xlink" x="0px" y="0px"
	width="100px" height="100px" viewBox="0 0 95.4 95.4" style="enable-background:new 0 0 95.4 95.4;" xml:space="preserve">
<g>
	<circle cx="47.7" cy="47.7" r="47.7"/>
	<g>
		<path style="fill:#FFFFFF;" d="M49.3,47.2c3,0,4.8-1.5,6.1-3.7l3.7,3.9l1.4-1.4l-4.1-4.4l3-4.9l-1.5-1l-2.7,4.4l-4.6-4.9
			c2.1-1.3,4.1-3,4.1-5.5s-2-4.6-4.9-4.6c-2.7,0-4.9,2-4.9,4.6c0,1.8,1.1,3.4,3,5.2c-3.2,2-4.9,3.7-4.9,6.3
			C42.7,44.5,45.5,47.2,49.3,47.2z M46.6,29.8c0-1.4,1.1-2.8,3-3c1.8,0,3,1.3,3,3s-1.1,3-3.2,4.2C47.5,32,46.6,31,46.6,29.8z
			 M48.8,36.4c0,0,5.5,5.8,5.5,5.6c-1.4,2.3-2.5,3.2-4.9,3.2c-2.5,0-4.6-1.8-4.6-4.1C44.7,39.3,45.8,37.9,48.8,36.4z"/>
		<polygon style="fill:#FFFFFF;" points="19.6,29.1 26.8,43.3 28.2,43.3 35.4,29.1 35.4,47.2 37.5,47.2 37.5,25 35.4,25 27.5,40.3 
			19.6,25 17.5,25 17.5,47.2 19.6,47.2 		"/>
		<path style="fill:#FFFFFF;" d="M77.9,41.2c0-7.7-12.7-4.9-12.7-10.4c0-2.5,2-4.1,5.1-4.1c2.8,0,4.9,1.4,5.6,3.8l1.8-0.7
			c-1.1-3.5-4.2-5.1-7.6-4.8c-3,0-7,1.4-7,5.9c0,7.6,12.7,4.9,12.7,10.4c0,2.8-2,4.5-5.6,4.5c-3.1,0-5.2-2-6.3-4.4l-1.7,1
			c1.7,3.1,4.2,5.1,8.3,5.1C74.9,47.5,77.9,45,77.9,41.2z"/>
		<path style="fill:#FFFFFF;" d="M71.1,62.1l6.3-6.6h-2.7l-6.3,6.9v-6.9h-2v14.9h2v-5.2l1.4-1.5l5.5,6.6H78
			C78,70.3,71.3,62.1,71.1,62.1z"/>
		<path style="fill:#FFFFFF;" d="M26.2,62.7c1-0.8,1.5-2,1.5-3.2c0-2.4-2-3.9-4.9-3.9h-5.5v14.8h5.8c3.2,0,5.3-1.7,5.3-4.2
			C28.5,64.5,27.6,63.4,26.2,62.7z M19.5,57.5h3.4c1.8,0,3,0.8,3,2.1c0,1.4-1.1,2.4-3,2.4h-3.4V57.5z M23.3,68.3h-3.8l-0.1-4.6h3.5
			c1.4,0,3.5,0.4,3.5,2.3C26.4,67.4,25.2,68.3,23.3,68.3z"/>
		<path style="fill:#FFFFFF;" d="M37.4,55.5l-5.9,14.8h2.1l1.5-3.9h6.8l1.5,3.9h2.1l-6.1-14.8H37.4z M35.7,64.4l2.7-6.3l2.5,6.3
			H35.7z"/>
		<polygon style="fill:#FFFFFF;" points="58.8,55.5 58.8,66.4 50.6,55.7 50.6,55.5 48.9,55.5 48.9,70.3 50.9,70.3 50.9,59.2 
			59.5,70.2 59.5,70.3 61,70.3 60.9,55.5 		"/>
	</g>
</g>
</svg>
