<?xml version="1.0" encoding="utf-8"?>
<svg version="1.1" id="Layer_1" xmlns="http://www.w3.org/2000/svg" xmlns:xlink="http://www.w3.org/1999/xlink" x="0px" y="0px"
	width="100px" height="100px" viewBox="0 0 66.7 66.7" style="enable-background:new 0 0 66.7 66.7;" xml:space="preserve">
<g>
	<circle style="fill:#E8E8E8;" cx="33.3" cy="33.3" r="33.3"/>
	<circle style="fill:#FFFFFF;" cx="33.3" cy="33.3" r="32.7"/>
	<g>
		<path style="fill:#A73439;" d="M21,51.1h-0.5v-1.1h0.6c0.1,0,0.1,0.1,0.1,0.1c0.1,0.1,0.1,0.1,0.1,0.1v-0.4c0,0.1-0.1,0.1-0.1,0.1
			c-0.1,0.1-0.1,0.1-0.1,0.1h-0.6V49h0.7c0.1,0,0.1,0,0.1,0.1c0.1,0,0.1,0.1,0.1,0.1v0.1h0.1v-0.5l-0.2,0.1h-0.3h-1
			c0.1,0,0.1,0,0.1,0.1c0.1,0,0.1,0.1,0.1,0.1V51c0,0.1,0,0.1-0.1,0.1c0,0.1-0.1,0.1-0.1,0.1l1.3,0.1l0.2-0.6
			c-0.1,0.1-0.1,0.3-0.2,0.3C21.3,51.1,21.2,51.1,21,51.1z"/>
		<path style="fill:#A73439;" d="M30.8,49.9C30.7,49.9,30.7,49.9,30.8,49.9l0.2,0.1L30.8,49.9z"/>
		<path style="fill:#A73439;" d="M27.5,51.2h0.2C27.7,51.2,27.6,51.1,27.5,51.2z"/>
		<path style="fill:#A73439;" d="M30.8,51l-0.2-0.1c0.1-0.2,0.1-0.3,0.1-0.5v-0.2V50v-0.1h-0.3c0.1,0,0.1,0.1,0.2,0.1
			c0.1,0.1,0.1,0.2,0.1,0.3c0,0.1,0,0.2-0.1,0.3l-0.5-0.5c-0.3-0.3-0.5-0.4-0.5-0.5c-0.1-0.1-0.1-0.3-0.1-0.4c0-0.1,0.1-0.3,0.1-0.3
			s0.2-0.1,0.3-0.1c0.1,0,0.3,0.1,0.3,0.1c0.1,0.1,0.1,0.3,0.1,0.4l0.1-0.4c-0.1-0.1-0.1-0.1-0.3-0.2c-0.1-0.1-0.2-0.1-0.3-0.1
			c-0.3,0-0.4,0.1-0.5,0.2c-0.1,0.1-0.2,0.2-0.2,0.4c0,0.2,0.1,0.3,0.1,0.5c-0.2,0.1-0.4,0.4-0.4,0.7c0,0.3,0.1,0.5,0.3,0.6
			c0.2,0.1,0.5,0.2,0.8,0.2c0.2,0,0.5-0.1,0.7-0.3l0.2,0.1c0.1,0.1,0.1,0.1,0.1,0.1h0.1H31h0.1h0.1h0.1c-0.1,0-0.1,0-0.2-0.1
			C30.9,51.1,30.9,51.1,30.8,51z M29.7,51.1c-0.3,0-0.5-0.1-0.6-0.2c-0.1-0.1-0.2-0.3-0.2-0.5s0.1-0.4,0.2-0.5
			c0.2,0.2,0.5,0.5,1.1,1C30.1,51.1,29.9,51.1,29.7,51.1z"/>
		<path style="fill:#A73439;" d="M15.9,51.1l1.5-2.3h-0.1H17h-0.9h-0.3c-0.1-0.1-0.2-0.1-0.2-0.1v0.4c0-0.1,0-0.1,0.1-0.1
			c0-0.1,0.1-0.1,0.1-0.1H17l-1.5,2.3h1.8c0,0,0-0.1,0.1-0.3c-0.1,0.1-0.2,0.1-0.3,0.1H15.9z"/>
		<path style="fill:#A73439;" d="M23.9,51.1L23.9,51.1l-0.2-0.2l-0.4-0.5l-0.1-0.1c-0.1,0-0.1-0.1-0.1-0.1c0.1,0,0.3-0.1,0.4-0.2
			c0.1-0.1,0.2-0.3,0.2-0.5s-0.1-0.3-0.2-0.5c-0.1-0.1-0.3-0.2-0.5-0.2h-0.9c0.1,0,0.1,0,0.1,0.1c0.1,0,0.1,0.1,0.1,0.1v1.9
			c0,0.1,0,0.1-0.1,0.1c0,0.1-0.1,0.1-0.1,0.1h0.7c-0.1,0-0.1,0-0.1-0.1c-0.1,0-0.1-0.1-0.1-0.1v-2.1h0.2c0.1,0,0.1,0,0.1,0.1
			c0.1,0,0.3,0.1,0.3,0.1c0.1,0.1,0.1,0.3,0.1,0.4v0.1v0.1c-0.1,0.2-0.3,0.3-0.5,0.3h-0.1h-0.1c0.1,0,0.1,0.1,0.2,0.1l0.1,0.1
			l0.3,0.3c0.1,0.2,0.3,0.3,0.3,0.3l0.1,0.1l0.2,0.1c0.1,0.1,0.2,0.1,0.3,0.1h0.1C24.1,51.2,24,51.1,23.9,51.1L23.9,51.1z"/>
		<path style="fill:#A73439;" d="M17.4,50.9C17.4,50.9,17.4,50.9,17.4,50.9c0.1-0.1,0.1-0.2,0.2-0.3C17.5,50.6,17.4,50.8,17.4,50.9z
			"/>
		<path style="fill:#A73439;" d="M18.2,51.1l1.5-2.3h-0.1h-0.3h-0.9h-0.3c-0.1-0.1-0.2-0.1-0.2-0.1v0.4c0-0.1,0-0.1,0.1-0.1
			c0-0.1,0.1-0.1,0.1-0.1h1.2l-1.5,2.3h1.8c0,0,0-0.1,0.1-0.3c-0.1,0.1-0.2,0.1-0.3,0.1H18.2z"/>
		<path style="fill:#A73439;" d="M27.4,51.1l-0.9-2.3c0,0-0.1,0.1-0.1,0.3L25.5,51l-0.1,0.1c-0.1,0.1-0.1,0.1-0.2,0.1h0.7
			c-0.1,0-0.1-0.1-0.1-0.1c-0.1,0-0.1-0.1-0.1-0.1V51l0.3-0.6h1l0.2,0.6v0.1l-0.1,0.1c-0.1,0.1-0.1,0.1-0.1,0.1h0.5
			C27.5,51.2,27.4,51.1,27.4,51.1z M26,50.3l0.5-1.1l0.4,1.1H26z"/>
		<path style="fill:#A73439;" d="M24.8,51v-1.9c0-0.1,0-0.1,0.1-0.1c0-0.1,0.1-0.1,0.1-0.1h-0.7c0.1,0,0.1,0,0.1,0.1
			c0.1,0,0.1,0.1,0.1,0.1V51c0,0.1,0,0.1-0.1,0.1c0,0.1-0.1,0.1-0.1,0.1H25c-0.1,0-0.1,0-0.1-0.1C24.8,51.1,24.8,51.1,24.8,51z"/>
		<path style="fill:#A73439;" d="M33.7,51.1L33.7,51.1l-0.2-0.2l-0.4-0.5L33,50.2c-0.1,0-0.1-0.1-0.1-0.1c0.1,0,0.3-0.1,0.4-0.2
			c0.1-0.1,0.2-0.3,0.2-0.5s-0.1-0.3-0.2-0.5c-0.1-0.1-0.3-0.2-0.5-0.2h-0.9c0.1,0,0.1,0,0.1,0.1c0.1,0,0.1,0.1,0.1,0.1v1.9
			c0,0.1,0,0.1-0.1,0.1c0,0.1-0.1,0.1-0.1,0.1h0.7c-0.1,0-0.1,0-0.1-0.1c-0.1,0-0.1-0.1-0.1-0.1v-2.1h0.2c0.1,0,0.2,0,0.1,0.1
			c0.1,0,0.3,0.1,0.3,0.1c0.1,0.1,0.1,0.3,0.1,0.4v0.1v0.1c-0.1,0.2-0.3,0.3-0.5,0.3h-0.1h-0.1c0.1,0,0.1,0.1,0.2,0.2l0.1,0.1
			l0.3,0.3c0.1,0.2,0.3,0.3,0.3,0.3V51c0.1,0.1,0.1,0.1,0.2,0.1c0.1,0.1,0.2,0.1,0.3,0.1H34C33.9,51.2,33.9,51.1,33.7,51.1
			L33.7,51.1z"/>
		<path style="fill:#A73439;" d="M35.4,50c-0.1,0.1-0.1,0.1-0.1,0.1c0.1,0,0.1,0.1,0.1,0.1c0.1,0.1,0.1,0.1,0.1,0.1v-0.4
			C35.5,49.9,35.4,50,35.4,50z"/>
		<path style="fill:#A73439;" d="M35.1,51.1h-0.5v-1.1V49h0.7c0.1,0,0.1,0,0.1,0.1c0.1,0,0.1,0.1,0.1,0.1v-0.4l-0.2,0.1h-0.3h-0.9
			c0.1,0,0.1,0,0.1,0.1c0.1,0,0.1,0.1,0.1,0.1V51c0,0.1,0,0.1-0.1,0.1c0,0.1-0.1,0.1-0.1,0.1l1.3,0.1l0.2-0.6
			c-0.1,0.1-0.1,0.3-0.2,0.3C35.5,51.1,35.3,51.1,35.1,51.1z"/>
		<path style="fill:#A73439;" d="M44.3,48.8l0.1,0C44.4,48.8,44.4,48.8,44.3,48.8z"/>
		<path style="fill:#A73439;" d="M43.9,48.9c0.1,0,0.1,0.1,0.1,0.1c0.1,0.1,0.1,0.1,0.1,0.1v1.4c0,0.3-0.1,0.5-0.2,0.6
			c-0.1,0.1-0.3,0.2-0.5,0.2s-0.4-0.1-0.5-0.3c-0.1-0.1-0.2-0.3-0.2-0.6v-1.3c0-0.1,0.1-0.1,0.1-0.1c0.1-0.1,0.1-0.1,0.1-0.1h-0.5
			c0.1,0,0.1,0.1,0.1,0.1v1.4c0,0.3,0.1,0.5,0.3,0.7c0.1,0.2,0.4,0.3,0.7,0.3s0.5-0.1,0.7-0.3c0.2-0.2,0.3-0.4,0.3-0.7V49
			c0-0.1,0-0.1,0.1-0.1c0,0,0,0,0.1-0.1L43.9,48.9L43.9,48.9z"/>
		<path style="fill:#A73439;" d="M14.8,51v-1.9c0-0.1,0-0.1,0.1-0.1c0-0.1,0.1-0.1,0.1-0.1h-0.7c0.1,0,0.1,0,0.1,0.1
			c0.1,0,0.1,0.1,0.1,0.1V51c0,0.1,0,0.1-0.1,0.1c0,0.1-0.1,0.1-0.1,0.1H15c-0.1,0-0.1,0-0.1-0.1C14.8,51.1,14.8,51.1,14.8,51z"/>
		<path style="fill:#A73439;" d="M13.7,49c-0.1-0.1-0.3-0.2-0.5-0.2h-0.9c0.1,0,0.1,0,0.1,0.1c0.1,0,0.1,0.1,0.1,0.1v1.9
			c0,0.1,0,0.1-0.1,0.1c0,0.1-0.1,0.1-0.1,0.1h0.7c-0.1,0-0.1,0-0.1-0.1c-0.1,0-0.1-0.1-0.1-0.1v-2.1h0.4c0.1,0,0.3,0.1,0.3,0.1
			c0.1,0.1,0.1,0.3,0.1,0.4v0.1v0.1c-0.1,0.1-0.1,0.3-0.3,0.3c-0.1,0.1-0.3,0.1-0.5,0.1c0.1,0.1,0.3,0.1,0.4,0.1h0.2
			c0.2-0.1,0.3-0.2,0.4-0.3c0.1-0.1,0.1-0.2,0.1-0.3C13.9,49.2,13.9,49.1,13.7,49z"/>
		<path style="fill:#A73439;" d="M46.7,51.1L46.7,51.1l-0.2-0.2l-0.4-0.5l-0.1-0.1c-0.1,0-0.1-0.1-0.1-0.1c0.1,0,0.3-0.1,0.4-0.2
			c0.1-0.1,0.2-0.3,0.2-0.5s-0.1-0.3-0.2-0.5c-0.1-0.1-0.3-0.2-0.5-0.2h-0.9c0.1,0,0.1,0,0.1,0.1c0.1,0,0.1,0.1,0.1,0.1v1.9
			c0,0.1,0,0.1-0.1,0.1c0,0.1-0.1,0.1-0.1,0.1h0.7c-0.1,0-0.1,0-0.1-0.1c-0.1,0-0.1-0.1-0.1-0.1V50c0.1,0,0.1,0.1,0.2,0.1l0.1,0.1
			l0.3,0.3c0.1,0.2,0.3,0.3,0.3,0.3l0.1,0.1c0.1,0.1,0.1,0.1,0.2,0.1c0.1,0.1,0.2,0.1,0.3,0.1h0.2C46.9,51.2,46.8,51.1,46.7,51.1
			L46.7,51.1z M45.5,50h-0.1h-0.1v-1.1h0.2c0.1,0,0.1,0,0.1,0.1c0.1,0,0.3,0.1,0.3,0.1c0.1,0.1,0.1,0.3,0.1,0.4v0.1v0.1
			C46,49.9,45.8,50,45.5,50z"/>
		<path style="fill:#A73439;" d="M19.7,50.9C19.7,50.9,19.7,50.9,19.7,50.9c0.1-0.1,0.1-0.2,0.2-0.3C19.8,50.6,19.7,50.8,19.7,50.9z
			"/>
		<path style="fill:#A73439;" d="M41.7,51l-0.9-2.3c0,0-0.1,0.1-0.1,0.3l-0.8,1.9l-0.1,0.1c-0.1,0.1-0.1,0.1-0.2,0.1h0.7
			c-0.1,0-0.1-0.1-0.1-0.1C40,51.1,40,51,40,51v-0.1l0.3-0.5h0.9l0.2,0.6v0.1l-0.1,0.1c-0.1,0.1-0.1,0.1-0.1,0.1H42
			c-0.1,0-0.1-0.1-0.2-0.1C41.7,51.1,41.7,51.1,41.7,51z M40.3,50.3l0.5-1.1l0.4,1.1H40.3z"/>
		<path style="fill:#A73439;" d="M36.5,49.5c-0.1-0.1-0.1-0.3-0.1-0.3c0-0.2,0.2-0.4,0.4-0.4c0.1,0,0.2,0,0.3,0.1
			c0.1,0.1,0.1,0.1,0.1,0.3v-0.4h-0.1h-0.3c-0.2,0-0.3,0.1-0.5,0.2c-0.1,0.1-0.1,0.3-0.1,0.4c0,0.1,0.1,0.3,0.2,0.4l0.7,0.6
			c0.1,0.1,0.1,0.2,0.1,0.3c0,0.1-0.1,0.3-0.1,0.3c-0.1,0.1-0.2,0.1-0.3,0.1c-0.1,0-0.3-0.1-0.3-0.1s-0.1-0.2-0.1-0.3v-0.1
			c-0.1,0.1-0.1,0.2-0.1,0.3v0.2c0,0.1,0.1,0.1,0.2,0.2c0.1,0.1,0.3,0.1,0.3,0.1c0.2,0,0.3-0.1,0.5-0.2c0.1-0.1,0.2-0.3,0.2-0.5
			c0-0.2-0.1-0.3-0.2-0.5L36.5,49.5z"/>
		<path style="fill:#A73439;" d="M38.8,50.9v-2.1h0.7c0.1,0,0.1,0,0.1,0.1c0.1,0.1,0.1,0.1,0.1,0.1l0.1-0.4c0,0.1-0.1,0.1-0.1,0.1
			h-0.3h-1.2h-0.3c-0.1-0.1-0.2-0.1-0.2-0.1v0.4c0-0.1,0-0.1,0.1-0.1s0.1-0.1,0.1-0.1h0.7v2.1c0,0.1,0,0.1-0.1,0.1
			c0,0.1-0.1,0.1-0.1,0.1H39c-0.1,0-0.1,0-0.1-0.1C38.8,51.1,38.8,51,38.8,50.9z"/>
		<path style="fill:#A73439;" d="M49,51l-0.9-2.3c0,0-0.1,0.1-0.1,0.3l-0.8,1.9L47,51.1c-0.1,0.1-0.1,0.1-0.2,0.1h0.7
			c-0.1,0-0.1-0.1-0.1-0.1c-0.1,0-0.1-0.1-0.1-0.1v-0.1l0.3-0.5h0.9l0.2,0.6v0.1l-0.1,0.1c-0.1,0.1-0.1,0.1-0.1,0.1h0.7
			c-0.1,0-0.1-0.1-0.2-0.1C49.1,51.1,49,51.1,49,51z M47.6,50.3l0.5-1.1l0.4,1.1H47.6z"/>
		<path style="fill:#A73439;" d="M54.2,48.7h-0.3h-1.2h-0.3c-0.1-0.1-0.2-0.1-0.2-0.1v0.4c0-0.1,0-0.1,0.1-0.1
			c0.1-0.1,0.1-0.1,0.1-0.1h0.7v2.1c0,0.1,0,0.1-0.1,0.1c0,0.1-0.1,0.1-0.1,0.1h0.7c-0.1,0-0.1,0-0.1-0.1c-0.1,0-0.1-0.1-0.1-0.1
			v-2.1h0.7c0.1,0,0.1,0,0.1,0.1s0.1,0.1,0.1,0.1c0,0,0,0,0,0l0.1-0.4C54.3,48.7,54.3,48.7,54.2,48.7z"/>
		<path style="fill:#A73439;" d="M51.5,48.9c0.1,0,0.1,0.1,0.1,0.1v1.7l-1.9-2v0.1v0.4V51c0,0.1-0.1,0.1-0.1,0.1
			c0,0.1-0.1,0.1-0.1,0.1h0.5c-0.1-0.1-0.1-0.1-0.1-0.2v-1.7l1.9,2v-0.1v-0.4V49c0-0.1,0.1-0.1,0.1-0.1c0-0.1,0.1-0.1,0.1-0.1h-0.6
			C51.5,48.8,51.5,48.8,51.5,48.9z"/>
		<path style="fill:#A73439;" d="M22.2,42.3c-0.1,0.2-0.2,0.5-0.3,0.9c-0.1,0.3-0.2,0.7-0.2,1c0,0.9,0.5,1.3,1.3,1.4h0.1
			c0.1,0.1,0.1,0,0.1,0c0.1,0,0.1-0.1,0.1-0.1c0-0.1-0.1-0.1-0.1-0.1h-0.1c-0.4,0-0.7-0.2-0.8-0.5c-0.1-0.2-0.1-0.4-0.1-0.7
			s0.1-0.7,0.3-1.5c0.1-0.5,0.5-1.3,0.9-2.2c0.2-0.5,0.3-0.9,0.3-1.1v-0.3c-0.1-0.2-0.2-0.3-0.4-0.3c-0.1,0-0.2,0.1-0.3,0.1
			c-0.5,0.1-1.1,0.7-1.9,1.5c-0.7,0.9-1.3,1.7-1.7,2.4l0.2-0.5c0.5-1.3,0.7-2.3,0.7-2.9c0-0.3-0.1-0.5-0.2-0.6
			c-0.1-0.1-0.3-0.2-0.5-0.2s-0.4,0.1-0.7,0.2c-0.3,0.1-0.5,0.3-0.6,0.5c-0.6,0.6-1,1.3-1.4,2.1c-0.1,0.1-0.1,0.2-0.1,0.2v-0.1
			c0,0,0-0.1,0.1-0.2c0.3-0.6,0.4-1.2,0.5-1.7v-0.3c0-0.3,0-0.5-0.1-0.8c-0.2-0.5-0.6-0.8-1.3-0.8c-0.7,0-1.5,0.3-2.4,0.9
			c-0.8,0.6-1.4,1.3-1.7,2.1c-0.1,0.5-0.2,0.8-0.2,1.1s0,0.5,0.1,0.7c0.1,0.5,0.5,0.8,0.9,1c0.3,0.1,0.5,0.1,0.7,0.1
			c0.2,0,0.4-0.1,0.6-0.1c0.1-0.1,0.2-0.1,0.3-0.2c-0.2,0.1-0.4,0.2-0.7,0.2c-0.2,0-0.3-0.1-0.5-0.1c-0.5-0.3-0.7-0.7-0.7-1.5
			c0-0.3,0.1-0.6,0.2-1.1c0.1-0.3,0.3-0.5,0.4-0.7c0.4-0.7,0.9-1.2,1.6-1.6c0.6-0.4,1.2-0.6,1.6-0.6c0.7,0,1,0.4,1,1.2
			c0,0.7-0.3,1.8-0.9,3.3c-0.5,1.2-0.9,2.1-1.3,2.7v0.1c0,0.1,0.1,0.1,0.2,0.1c0.2,0,0.4-0.1,0.5-0.3l0.1-0.1
			c0.1-0.1,0.1-0.1,0.1-0.1v-0.8l0.6-1.3l0.8-1.4l1.2-1.7c0.3-0.4,0.7-0.6,0.9-0.6c0.1,0,0.2,0.1,0.3,0.1c0.1,0.1,0.1,0.2,0.1,0.3
			v0.3c-0.1,0.9-0.3,1.7-0.5,2.5l-0.4,0.9c-0.1,0.3-0.3,0.5-0.3,0.7l-0.3,0.5c-0.1,0.1-0.1,0.2-0.1,0.3v0.1c0,0.1,0.1,0.1,0.3,0.1
			c0.2,0,0.4-0.1,0.5-0.5l1.1-1.8c0.6-0.9,1-1.5,1.3-1.8l0.8-0.9c0.4-0.5,0.8-0.7,1-0.7s0.3,0.1,0.3,0.3c0,0.2-0.1,0.5-0.2,0.8
			L22.2,42.3z"/>
		<path style="fill:#A73439;" d="M14.3,43.3c0.1-0.1,0.2-0.1,0.3-0.2C14.5,43.2,14.4,43.2,14.3,43.3z"/>
		<path style="fill:#A73439;" d="M15.3,42.3c0.2-0.3,0.3-0.5,0.3-0.7s0-0.3-0.1-0.5c-0.1-0.3-0.4-0.4-0.7-0.4h-0.2
			c-0.2,0.1-0.3,0.1-0.2,0.1c0,0.1,0.1,0.1,0.1,0.1h0.2c0.3,0,0.5,0.2,0.5,0.6c0,0.3-0.1,0.5-0.1,0.9c-0.2,0.3-0.4,0.5-0.6,0.6
			C14.9,42.9,15.1,42.7,15.3,42.3z"/>
		<path style="fill:#A73439;" d="M41.3,41.1C41.3,41.2,41.3,41.2,41.3,41.1c0.1,0.1,0.2,0.1,0.3,0.1l0.5-0.1c0.4,0,0.7-0.1,1-0.3
			c-0.3,0.1-0.6,0.2-1,0.2C41.9,41.1,41.6,41.1,41.3,41.1z"/>
		<path style="fill:#A73439;" d="M32,44c0,0.1,0,0.3,0.1,0.3c0.1,0.2,0.3,0.3,0.4,0.3c0.4,0,0.8-0.5,1.3-1.6v-0.1
			c0-0.1,0-0.1-0.1-0.1c0,0-0.1,0-0.1,0.1c-0.2,0.5-0.4,0.9-0.7,1.1c-0.1,0.2-0.3,0.3-0.4,0.3c-0.1,0-0.1-0.1-0.1-0.1s0-0.2,0.1-0.4
			c0.1-0.2,0.1-0.5,0.3-0.8s0.3-0.6,0.3-0.7H33h-0.2c-0.1,0-0.2,0.1-0.3,0.1l-0.3,0.4c-0.5,1.1-1,1.6-1.3,1.6
			c-0.1,0-0.2-0.1-0.2-0.3s0.1-0.5,0.3-0.9c0.2-0.3,0.4-0.6,0.6-0.8c0.4-0.4,0.7-0.6,0.9-0.6c0.2,0,0.3,0.1,0.4,0.3
			c0.1,0,0.1,0,0.1-0.1c0-0.1,0-0.1-0.1-0.2c-0.2-0.2-0.4-0.3-0.7-0.3c-0.1,0-0.2,0.1-0.3,0.1c-0.4,0.1-0.8,0.3-1,0.6
			c-0.4,0.4-0.6,0.9-0.7,1.3c-0.1,0.2-0.3,0.5-0.4,0.7c-0.2,0.3-0.3,0.3-0.5,0.3c-0.1,0-0.1-0.1-0.1-0.3c0-0.4,0.4-1.1,1.1-2.4
			l-0.1-0.1c-0.1,0-0.3,0.1-0.7,0.3c-0.3,0.1-0.6,0.3-0.8,0.5c-0.3,0.2-0.5,0.5-0.7,0.8l0.4-0.7c0.2-0.3,0.3-0.6,0.3-0.7
			c0-0.1-0.1-0.1-0.2-0.2h-0.1h-0.1c-0.1,0-0.1,0.1-0.1,0.1s-0.1,0.1-0.1,0.1c-0.1,0-0.1,0-0.1,0.1l-0.1,0.1l-0.1,0.1l-0.1,0.1
			l-0.1,0.1l-0.3,0.2c-0.1,0.1-0.3,0.3-0.6,0.7c0.5-0.9,0.8-1.5,1-1.6h-0.2h-0.2c-0.1,0-0.2,0-0.3,0.1c-0.1,0.1-0.5,0.7-0.9,1.7
			c0,0.1-0.1,0.2-0.1,0.2c-0.1,0.1-0.1,0.2-0.2,0.3c-0.1,0.2-0.3,0.3-0.4,0.3c-0.1,0-0.1-0.1-0.1-0.1s0-0.2,0.1-0.4
			c0.1-0.2,0.1-0.5,0.3-0.8c0.2-0.3,0.3-0.6,0.3-0.7h-0.2h-0.2c-0.1,0-0.2,0.1-0.3,0.1l-0.3,0.4c-0.5,1.1-1,1.6-1.3,1.6
			c-0.1,0-0.2-0.1-0.2-0.3s0.1-0.5,0.3-0.9c0.2-0.3,0.4-0.6,0.6-0.8c0.4-0.4,0.7-0.6,0.9-0.6c0.2,0,0.3,0.1,0.4,0.3
			c0.1,0,0.1,0,0.1-0.1c0-0.1,0-0.1-0.1-0.2c-0.2-0.2-0.4-0.3-0.7-0.3c-0.1,0-0.2,0.1-0.3,0.1c-0.4,0.1-0.8,0.3-1,0.6
			c-0.5,0.5-0.7,1.1-0.7,1.7c0,0.3,0.1,0.5,0.3,0.6c0.1,0.1,0.2,0.1,0.3,0.1c0.3,0,0.7-0.4,1.2-1.1c-0.1,0.2-0.1,0.4-0.1,0.5
			c0,0.1,0,0.3,0.1,0.3c0.1,0.2,0.3,0.3,0.4,0.3c0.2,0,0.3-0.1,0.5-0.3c-0.1,0.1-0.1,0.3-0.1,0.3c0.1-0.1,0.1-0.1,0.3-0.1
			c0.1,0,0.2,0.1,0.3,0c0.1-0.1,0.1-0.1,0.1-0.1c0.4-0.7,0.8-1.3,1.2-1.7c0.2-0.2,0.4-0.3,0.5-0.4h0.1v0.1c0,0.1-0.1,0.3-0.1,0.5
			c-0.3,0.7-0.5,1.1-0.5,1.3c0,0.1,0,0.1,0.1,0.1c0.1,0.1,0.1,0.1,0.2,0.1c0.1-0.2,0.2-0.5,0.5-0.9c0.3-0.4,0.5-0.7,0.8-0.9
			s0.5-0.3,0.5-0.3s0.1,0,0.1,0.1s0,0.2-0.1,0.3c-0.3,0.4-0.4,0.7-0.5,0.9c-0.1,0.2-0.1,0.3-0.1,0.5c0,0.1,0,0.3,0.1,0.3
			c0.1,0.2,0.3,0.3,0.4,0.3c0.1,0,0.3,0,0.5-0.1c0.1-0.1,0.3-0.2,0.3-0.3l0.2-0.2c0,0.2,0.1,0.4,0.2,0.5c0.1,0.1,0.2,0.1,0.3,0.1
			c0.3,0,0.7-0.4,1.2-1.1C32,43.7,32,43.9,32,44z"/>
		<path style="fill:#A73439;" d="M12.2,35.5h0.7l0.1-0.1c0.2-0.1,0.3-0.3,0.3-0.5c0-0.2,0-0.5-0.1-0.6c-0.5-0.8-0.3-1.9,0.4-2.4
			c0.2-0.1,0.3-0.3,0.3-0.5c0-0.2,0-0.4-0.1-0.6c-0.4-0.9,0-1.9,0.8-2.3c0.2-0.1,0.3-0.2,0.4-0.4c0.1-0.2,0.1-0.4,0.1-0.6
			c-0.2-0.9,0.3-1.8,1.2-2.1c0.2-0.1,0.3-0.2,0.5-0.3c0.1-0.1,0.1-0.3,0.1-0.5c-0.1-0.9,0.6-1.7,1.5-1.9c0.2,0,0.4-0.1,0.5-0.3
			c0.1-0.1,0.3-0.3,0.3-0.5c0.1-0.9,0.9-1.6,1.9-1.5c0.2,0.1,0.4,0,0.5-0.1c0.1-0.1,0.3-0.3,0.3-0.5c0.3-0.9,1.2-1.4,2.1-1.2
			c0.2,0.1,0.4,0,0.6-0.1c0.1-0.1,0.3-0.2,0.4-0.4c0.4-0.8,1.4-1.2,2.3-0.8c0.2,0.1,0.4,0.1,0.6,0.1c0.2-0.1,0.3-0.2,0.5-0.3
			c0.6-0.7,1.6-0.9,2.4-0.4c0.2,0.1,0.4,0.1,0.6,0.1c0.2-0.1,0.4-0.1,0.5-0.3c0.7-0.7,1.7-0.7,2.4,0c0.1,0.2,0.3,0.3,0.5,0.3
			c0.2,0,0.5,0,0.6-0.1c0.8-0.5,1.9-0.3,2.4,0.4c0.1,0.2,0.3,0.3,0.5,0.3c0.2,0,0.4,0,0.6-0.1c0.9-0.4,1.9,0,2.3,0.8
			c0.1,0.2,0.2,0.3,0.4,0.4c0.2,0.1,0.4,0.1,0.6,0.1c0.9-0.2,1.8,0.3,2.1,1.2c0.1,0.2,0.2,0.3,0.3,0.5c0.1,0.1,0.3,0.1,0.5,0.1
			c0.9-0.1,1.7,0.6,1.9,1.5c0,0.2,0.1,0.4,0.3,0.5c0.1,0.1,0.3,0.3,0.5,0.3c0.9,0.1,1.6,0.9,1.5,1.9c-0.1,0.2,0,0.4,0.1,0.5
			c0.1,0.1,0.3,0.3,0.5,0.3c0.9,0.3,1.4,1.1,1.2,2.1c-0.1,0.2,0,0.5,0.1,0.6c0.1,0.1,0.2,0.3,0.4,0.4c0.8,0.4,1.2,1.4,0.8,2.3
			c-0.1,0.2-0.1,0.4-0.1,0.6c0.1,0.2,0.2,0.3,0.3,0.5c0.7,0.6,0.9,1.6,0.4,2.4c-0.1,0.2-0.1,0.4-0.1,0.6c0.1,0.2,0.1,0.4,0.3,0.5
			l0.1,0.1h0.7c-0.1-0.2-0.3-0.4-0.4-0.5c-0.1-0.1-0.1-0.1-0.1-0.2s0-0.1,0.1-0.2c0.7-1,0.5-2.4-0.5-3.1c-0.1-0.1-0.1-0.1-0.1-0.2
			V31c0.5-1.1,0.1-2.5-1.1-3c-0.1,0-0.1-0.1-0.1-0.1v-0.2c0.3-1.2-0.4-2.5-1.6-2.8l-0.1-0.1c-0.1-0.1-0.1-0.1-0.1-0.2
			c0.1-1.3-0.9-2.3-2.1-2.5c-0.1,0-0.1,0-0.2-0.1c0-0.1-0.1-0.1-0.1-0.2c-0.1-1.3-1.3-2.1-2.5-2.1c-0.1,0-0.1,0-0.2-0.1
			c-0.1,0-0.1-0.1-0.1-0.1c-0.4-1.2-1.6-1.9-2.8-1.6c-0.1,0.1-0.1,0-0.2,0c-0.1,0-0.1-0.1-0.1-0.1c-0.5-1.1-1.9-1.5-3-1.1
			c-0.1,0-0.1,0.1-0.2,0s-0.1-0.1-0.2-0.1c-0.7-0.9-2.1-1.2-3.1-0.5c-0.1,0.1-0.1,0.1-0.2,0.1s-0.1,0-0.2-0.1
			c-0.9-0.9-2.3-0.9-3.2,0c-0.1,0.1-0.1,0.1-0.2,0.1c-0.1,0-0.1,0-0.2-0.1c-1-0.7-2.4-0.5-3.1,0.5c-0.1,0.1-0.1,0.1-0.2,0.1h-0.2
			c-1.1-0.5-2.5-0.1-3,1.1c0,0.1-0.1,0.1-0.1,0.1h-0.2c-1.2-0.3-2.5,0.4-2.8,1.6l-0.1,0.1c-0.1,0.1-0.1,0.1-0.2,0.1
			c-1.3-0.1-2.3,0.9-2.5,2.1c0,0.1,0,0.1-0.1,0.2c-0.1,0-0.1,0.1-0.2,0.1c-1.3,0.1-2.1,1.3-2.1,2.5c0,0.1,0,0.1-0.1,0.2
			c0,0.1-0.1,0.1-0.1,0.1c-1.2,0.4-1.9,1.6-1.6,2.8c0.1,0.1,0,0.1,0,0.2c0,0.1-0.1,0.1-0.1,0.1c-1.1,0.5-1.5,1.9-1.1,3
			c0,0.1,0.1,0.1,0,0.2c-0.1,0.1-0.1,0.1-0.1,0.2c-0.9,0.7-1.2,2.1-0.5,3.1c0.1,0.1,0.1,0.1,0.1,0.2s0,0.1-0.1,0.2
			C12.4,35.1,12.3,35.3,12.2,35.5z"/>
		<path style="fill:#A73439;" d="M54.9,42.9C54.9,42.9,54.8,42.9,54.9,42.9c-0.3,0.5-0.5,0.9-0.7,1.2c-0.1,0.2-0.3,0.3-0.4,0.3
			c-0.1,0-0.1-0.1-0.1-0.1s0-0.2,0.1-0.4c0.1-0.2,0.1-0.5,0.3-0.8c0.1-0.3,0.3-0.6,0.3-0.7h-0.2h-0.2c-0.1,0-0.2,0.1-0.3,0.1
			l-0.3,0.4c-0.5,1.1-1,1.6-1.3,1.6c-0.1,0-0.2-0.1-0.2-0.3s0.1-0.5,0.3-0.9c0.2-0.3,0.4-0.6,0.6-0.8c0.4-0.4,0.7-0.6,0.9-0.6
			c0.2,0,0.3,0.1,0.4,0.3c0.1,0,0.1,0,0.1-0.1c0-0.1,0-0.1-0.1-0.2c-0.2-0.2-0.4-0.3-0.7-0.3c-0.1,0-0.2,0.1-0.3,0.1
			c-0.4,0.1-0.8,0.3-1,0.6c-0.4,0.4-0.6,0.9-0.7,1.3c-0.1,0.2-0.3,0.5-0.4,0.7c-0.2,0.3-0.3,0.3-0.5,0.3c-0.1,0-0.1-0.1-0.1-0.3
			c0-0.4,0.4-1.1,1.1-2.4h0c-0.1,0-0.1-0.1-0.1-0.1c-0.1,0-0.3,0.1-0.7,0.3c-0.3,0.1-0.6,0.3-0.8,0.5c-0.3,0.2-0.5,0.5-0.7,0.8
			l0.4-0.7c0.2-0.3,0.3-0.6,0.3-0.7c0-0.1-0.1-0.1-0.2-0.2h-0.1h-0.1c-0.1,0-0.1,0.1-0.1,0.1c-0.1,0-0.1,0.1-0.1,0.1
			c-0.1,0-0.1,0-0.1,0.1l-0.1,0.1l-0.1,0.1l-0.1,0.1l-0.1,0.1l-0.3,0.2c-0.1,0.1-0.3,0.3-0.6,0.7c0.5-0.9,0.8-1.5,1-1.6h-0.2h-0.2
			c-0.1,0-0.2,0-0.3,0.1c-0.1,0.1-0.5,0.7-0.9,1.7c-0.1,0.2-0.2,0.5-0.3,0.6c0,0,0,0.1-0.1,0.1c-0.1,0.1-0.3,0.2-0.4,0.2
			c-0.2,0-0.3-0.1-0.4-0.2c0.3-0.3,0.6-0.6,0.7-1c0.1-0.3,0.2-0.5,0.2-0.8c0-0.5-0.2-0.8-0.6-0.8c-0.3,0-0.6,0.1-0.9,0.5
			c-0.3,0.3-0.5,0.6-0.7,1c0,0,0,0,0,0c0-0.2,0.1-0.3,0.1-0.5c0.1-0.1,0.1-0.1,0-0.1s-0.1,0.1-0.1,0.1c-0.3,0.6-0.6,1.1-0.8,1.3
			c-0.3,0.2-0.5,0.3-0.7,0.3c-0.1,0-0.3-0.1-0.4-0.1c-0.1-0.1-0.3-0.3-0.4-0.5c-0.5-0.6-0.7-1.5-0.9-2.4c-0.1,0-0.2,0-0.3,0l0.9-1.5
			l0.7-1.3c0.4,0.1,0.7,0.1,0.8,0.1c0.5,0.1,0.7,0.3,0.8,0.7v0.1h0c0,0.3-0.2,0.6-0.5,0.9c-0.2,0.2-0.4,0.4-0.7,0.5
			c0.4-0.1,0.8-0.3,1.2-0.6c0.4-0.3,0.6-0.7,0.6-1c0-0.5-0.4-0.9-1.3-1.1L42.7,38c0.1-0.1,0.1-0.1,0.1-0.2s-0.1-0.1-0.1-0.1
			c-0.1,0-0.2,0.1-0.3,0.3l-1.5-0.1l-1.7,0.1c-0.9,0.1-1.6,0.4-2.1,0.9s-0.8,0.9-0.8,1.5c0,0.4,0.1,0.7,0.4,0.9
			c0.3,0.2,0.5,0.3,0.9,0.3c0.4,0,0.8-0.2,1.1-0.5c0.2-0.1,0.3-0.4,0.3-0.7c0-0.1,0-0.1-0.1-0.1s-0.1,0.1-0.1,0.1
			c-0.1,0.1-0.2,0.3-0.4,0.6c-0.2,0.3-0.5,0.4-0.9,0.4c-0.3,0-0.5-0.1-0.7-0.3c-0.2-0.2-0.3-0.4-0.3-0.7c0-0.5,0.3-0.9,0.8-1.3
			c0.5-0.4,1.1-0.6,1.7-0.7c0.7-0.1,1.5-0.2,2.2-0.2c0.3,0,0.6,0.1,0.9,0.1c-0.3,0.3-0.7,0.8-1,1.4l-0.5,0.9L40.1,42l-0.7,1.2
			c-0.2,0.3-0.4,0.5-0.5,0.7c-0.1,0.1-0.3,0.3-0.5,0.5c-0.4,0.3-0.8,0.4-1.3,0.4c-0.4,0-0.7-0.2-0.8-0.5c-0.1-0.1-0.1-0.1-0.1-0.2
			c0-0.2,0.1-0.3,0.2-0.5c0.1-0.1,0.3-0.2,0.5-0.2s0.3,0,0.5,0.1h0.2c0,0,0-0.1-0.1-0.1c-0.3-0.1-0.5-0.1-0.8-0.1
			c-0.3,0-0.7,0.1-0.9,0.3c-0.1,0.1-0.2,0.3-0.2,0.4c0,0.1,0,0.3,0.1,0.3c0.2,0.4,0.7,0.6,1.5,0.6s1.6-0.3,2.3-1.1
			c0.2-0.2,0.4-0.5,0.6-0.8c0.2-0.3,0.4-0.5,0.5-0.7l0.4-0.8c0.1,0.5,0.2,1,0.4,1.6c0.2,0.6,0.5,1.1,0.8,1.4
			c0.3,0.3,0.6,0.5,0.9,0.5c0.3,0,0.6-0.1,0.9-0.4v0c0.2-0.2,0.3-0.5,0.5-0.9c0,0.1,0,0.2,0,0.3c0,0.5,0.2,0.8,0.6,0.8
			c0.2,0,0.5-0.1,0.7-0.3c0.1,0.1,0.3,0.2,0.5,0.2c0.1,0,0.2-0.1,0.4-0.1c0,0,0,0,0,0c0.1-0.1,0.1-0.1,0.3-0.1c0.1,0,0.2,0.1,0.3,0
			c0.1-0.1,0.1-0.1,0.1-0.1c0.4-0.7,0.8-1.3,1.2-1.7c0.2-0.2,0.4-0.3,0.5-0.4H49v0.1c0,0.1-0.1,0.3-0.1,0.5
			c-0.3,0.7-0.5,1.1-0.5,1.3c0,0.1,0,0.1,0.1,0.2c0.1,0.1,0.1,0.1,0.2,0.1c0.1-0.2,0.2-0.5,0.5-0.9s0.5-0.7,0.8-0.9s0.5-0.3,0.5-0.3
			s0.1,0,0.1,0.1s0,0.2-0.1,0.3c-0.3,0.4-0.4,0.7-0.5,0.9C50,43.9,50,44,50,44.1c0,0.1,0,0.3,0.1,0.3c0.1,0.2,0.3,0.3,0.4,0.3
			c0.2,0,0.3,0,0.5-0.1c0.1-0.1,0.3-0.2,0.3-0.3l0.2-0.3c0,0.3,0.1,0.4,0.3,0.6c0.1,0.1,0.2,0.1,0.3,0.1c0.3,0,0.7-0.4,1.2-1.1
			c-0.1,0.2-0.1,0.4-0.1,0.5c0,0.1,0,0.3,0.1,0.3c0.1,0.2,0.3,0.3,0.4,0.3c0.4,0,0.8-0.5,1.3-1.6L54.9,42.9
			C54.9,42.9,54.9,42.9,54.9,42.9z M45.5,43.9c0,0.1,0.1,0.3,0.1,0.4c-0.2,0.1-0.3,0.2-0.5,0.2c-0.2,0-0.3-0.1-0.3-0.4
			s0.1-0.6,0.3-1c0.2-0.3,0.4-0.6,0.6-0.8c0.2-0.3,0.4-0.3,0.5-0.3c0.2,0,0.3,0.1,0.3,0.4c0,0.3-0.1,0.6-0.2,0.9L46,43.8v-0.1
			c0-0.1,0-0.1-0.1-0.1s-0.1-0.1-0.2-0.1C45.6,43.5,45.5,43.6,45.5,43.9z"/>
		<path style="fill:#A73439;" d="M52.3,32.3c-0.3-0.2-0.5-0.5-0.5-0.8c-0.1-0.3-0.1-0.7,0.1-0.9c0.3-0.6,0-1.3-0.5-1.5
			c-0.3-0.1-0.5-0.3-0.7-0.7c-0.1-0.3-0.1-0.6-0.1-0.9c0.1-0.6-0.2-1.2-0.8-1.4c-0.3-0.1-0.6-0.3-0.8-0.6c-0.2-0.3-0.3-0.6-0.3-0.9
			c0-0.7-0.5-1.2-1.1-1.3c-0.3,0-0.6-0.1-0.9-0.4c-0.2-0.3-0.3-0.5-0.4-0.9c-0.1-0.7-0.7-1.1-1.3-1.1c-0.3,0-0.7-0.1-0.9-0.3
			c-0.3-0.2-0.5-0.5-0.6-0.8c-0.2-0.6-0.8-0.9-1.4-0.8c-0.3,0.1-0.6,0.1-0.9-0.1c-0.3-0.2-0.5-0.4-0.7-0.7c-0.3-0.5-0.9-0.8-1.5-0.5
			c-0.3,0.1-0.6,0.1-0.9,0.1c-0.3-0.1-0.6-0.3-0.8-0.5c-0.4-0.5-1.1-0.6-1.6-0.3c-0.3,0.1-0.6,0.2-0.9,0.2c-0.3-0.1-0.6-0.2-0.9-0.4
			c-0.5-0.4-1.2-0.4-1.6,0c-0.2,0.2-0.5,0.4-0.9,0.4c-0.3,0.1-0.7,0-0.9-0.2c-0.5-0.3-1.2-0.2-1.6,0.3c-0.2,0.3-0.5,0.5-0.8,0.5
			c-0.3,0.1-0.6,0.1-0.9-0.1c-0.6-0.3-1.3,0-1.5,0.5c-0.1,0.3-0.3,0.5-0.7,0.7c-0.3,0.1-0.6,0.1-0.9,0.1c-0.6-0.1-1.2,0.2-1.4,0.8
			c-0.1,0.3-0.3,0.6-0.6,0.8c-0.3,0.2-0.6,0.3-0.9,0.3c-0.7,0-1.2,0.5-1.3,1.1c0,0.3-0.1,0.6-0.4,0.9c-0.3,0.2-0.5,0.3-0.9,0.4
			c-0.7,0.1-1.1,0.7-1.1,1.3c0,0.3-0.1,0.7-0.3,0.9c-0.2,0.3-0.5,0.5-0.8,0.6c-0.6,0.2-0.9,0.8-0.8,1.4c0.1,0.3,0.1,0.6-0.1,0.9
			c-0.2,0.3-0.4,0.5-0.7,0.7c-0.5,0.3-0.8,0.9-0.5,1.5c0.1,0.3,0.1,0.6,0.1,0.9c-0.1,0.3-0.3,0.6-0.5,0.8c-0.5,0.4-0.6,1.1-0.3,1.6
			c0.1,0.3,0.2,0.6,0.2,0.9c0,0.2-0.1,0.4-0.2,0.6h1.9c0.5-9.3,8.3-16.6,17.6-16.6c9.3,0,17.1,7.3,17.6,16.6h1.9
			c-0.1-0.2-0.2-0.4-0.2-0.6c-0.1-0.3,0-0.7,0.2-0.9C52.9,33.4,52.8,32.7,52.3,32.3z"/>
	</g>
	<g>
		<polygon style="fill:#1A5632;" points="44.1,46.4 43.5,46.4 11.9,46.4 12.3,46.8 43.3,46.8 44.1,46.8 54.3,46.8 54.7,46.4 		"/>
		<path style="fill:#1A5632;" d="M28.2,32.5C28.2,32.6,28.2,32.6,28.2,32.5C28.3,32.6,28.3,32.5,28.2,32.5
			C28.2,32.5,28.2,32.5,28.2,32.5z"/>
		<path style="fill:#1A5632;" d="M37.5,36.7C37.5,36.7,37.5,36.7,37.5,36.7C37.5,36.7,37.5,36.7,37.5,36.7z"/>
		<path style="fill:#1A5632;" d="M19.8,35.9l7.9-6.7c0.2,0.4,0.4,0.9,0.6,1.3c0.3,0.6,0.7,1.1,1.1,1.6c-0.5,0-1.3-0.3-1.1,0.3
			c0.1,0,0.1,0,0.3,0c0.7-0.1,0.1,0.4-0.3,0.1c0,0,0,0,0,0c-0.2,0.1-0.5-0.1-0.5,0.1c0.6,0.6,1.4,0.2,2.2,0.2c0.3,0.3,0.6,0.7,1,1
			c-0.2,0-0.5,0-0.7,0c0-0.3,0.2-0.2,0.4-0.1c-0.8-0.7-1.1,0.5-1.7,0c0.3,0.5,0.9,0.3,1.4,0.3h0.7c0.1,0.1,0.2,0.2,0.3,0.2
			c-0.7,0.2-1.7,0-2.1,0.2c-0.1,0.1,0.1,0.3,0.2,0.4h-1.1c0.8,0.5,1.5-0.3,2.3-0.2c0-0.3-0.5-0.1-0.7-0.1c0.5-0.1,1-0.2,1.4-0.2
			c0.2,0.2,0.3,0.3,0.5,0.5c-0.9,0.3-1.8,0.6-2.9,0.5c1.3,0.5,2.2,0.3,3.3,0c0.1,0.1,0.2,0.2,0.2,0.3c0,0,0.3,0,0.7,0
			c-0.3,0.3-1,0-1.2,0c0.7,0.8,2.5,0.2,4-0.1c0.2,0,0.4,0,0.6,0c0,0,0,0,0,0c0,0,0,0,0,0.1c0.3,0.5,0.7,0.4,1.1,0.4
			c0.2,0.3-0.1,0.5-0.1,0.6c0,0,0.4,0.7,6.9-0.1c-0.4-0.5-0.9-0.6-1.3-0.5c0.3-0.3,0.7-0.5,1.5-0.4l-0.1-0.3c-0.1,0-0.2,0-0.3-0.1
			c1.1-0.5,1.8-1.1,2.3-1.9c0,0.1-0.1,0.1-0.2,0.2c2.2-3-0.2-7.6-0.2-7.8c0,0,0,0.1,0,0.2c0-0.1,0-0.1,0-0.2c0,0.1,0,0.1,0,0.2
			c0,0,0,0,0,0.1c0,0,0,0.1,0,0.1c-0.1,1.3-1.6,3.6-4.5,4.6c-0.4-0.1-0.8-0.2-1-0.3c-0.5-0.2-1.2-0.6-1.7-0.5
			c-0.5,0.1-0.6,0.7-1.1,0.7c-0.2,0-0.4,0-0.6-0.1c-0.2-1.1-0.5-2.1-0.4-3.2c0-0.3,0.1-1.1-0.1-1.3c0,0,0,0,0-0.1
			c0.1,0,0.1-0.1,0-0.2c0.2-0.1,0.1-0.3,0-0.3c0,0,0,0-0.1,0c0-0.3,0-0.7,0-1c0.1-0.4,0.6-1.6,0-1.7c0-0.1,0-0.1,0-0.2
			c0-0.1-0.3-0.5-0.3-0.5L36.1,22v-0.1v-0.3l0,0c0.2,0,0.3-0.1,0.2-0.2c-0.1-0.1-0.2-0.1-0.3-0.1v-0.5c0-0.2-1.1-0.1-1.2-0.1v0.5
			c0,0.1,0,0.1,0.1,0.2c0,0-0.1,0-0.1,0c-0.1-0.1-0.5-0.1-0.4,0.1c0,0.1,0.2,0.3,0.3,0.3c0,0,0,0,0.1,0c0,0-0.1,0.5,0.2,0.6l0.1,0.3
			l-0.3,0.2h0c-0.2,0.1-0.3,0.3-0.4,0.5c0,0,0,0,0,0c0,0-0.1,0-0.1,0.1c-0.1,0.1-0.1,0.4-0.3,0.5c-0.1,0.1-0.1,0.2-0.2,0.3
			c0,0,0,0,0,0c0,0,0,0,0,0c-0.3,0-0.6,0-0.8,0.1c-0.1,0-0.3,0.1-0.3,0.1c-0.1,0.1-0.1,0.3-0.2,0.3v0.1c0,0.1,0,0.2,0,0.2l-3.2,2.7
			c-1.4-1.5-2.4-3.1-3-4.2c-0.4-0.7-0.6-1.2-0.6-1.3c0,0,0,0,0,0c0-0.1-0.1-0.1-0.1-0.2v0.1v0.1c0,1.1,0.4,2.5,0.7,3.6
			c0.3,1.1,0.6,2.3,1.1,3.4l-8.3,6.9L19.8,35.9z M33,25c0.3,0.1,0.6,0.2,0.9,0.1c0.2-0.1,0.6-0.4,0.8-0.6c0.1,0,0.1,0.1,0.2,0.1
			c0,0,0-0.1,0-0.1c0,0.2-0.1,0.6-0.1,0.9c0,0,0,0,0,0c0.1,0-0.1,0-0.1,0.1v0.1c0,0-0.1,0.1-0.1,0.1c-0.3-0.3-0.3,0.5-0.3,0.7
			c0,0.2-0.1,0.7-0.3,0.9c0.1,0.1,0.1,0.3,0.1,0.3c-0.1,0-0.1,0.1-0.1,0.1c0.1,0.1,0.1,0.1,0.1,0l0.1-0.1c0,0.2,0,0.4-0.1,0.5
			c0,0.9,0.1,1.9,0.1,1.9v0.7c-0.3-0.1-0.6-0.1-0.9-0.2c-1.4-0.8-2.6-1.8-3.6-2.8l3.2-2.7C32.9,25,33,25,33,25z M35.6,21.7h-0.4
			l-0.2,0C35.2,21.7,35.4,21.7,35.6,21.7L35.6,21.7z M38.7,36.1c0.3,0.1,0.5-0.7,1.2,0.1C39.5,36.1,39,36.4,38.7,36.1z M40.3,35.9
			c0.2-0.1,0.3-0.1,0.5-0.2c0.2,0,0.4,0,0.5,0c0.1,0,0.2,0.1,0.4,0.2C41.5,36.1,40.8,36.2,40.3,35.9z M35.6,30.1
			c-0.4,0-0.6,0.4-0.6,0.7c0,0-0.1,0-0.1,0c0-0.3,0-0.6,0-0.7c0.2-0.9,0.5-1.5,0.7-2.1c0.3,0.4,0.4,1.3,0.6,2.2
			C36,30.1,35.8,30.1,35.6,30.1z M35.9,22L35.9,22C35.9,22,35.9,22,35.9,22L35.9,22C35.9,22,35.9,22,35.9,22z M35.9,21.7
			C35.9,21.7,35.9,21.7,35.9,21.7L35.9,21.7C35.8,21.7,35.9,21.7,35.9,21.7L35.9,21.7z M35.1,23.5C35.1,23.5,35.1,23.5,35.1,23.5
			c0-0.1-0.1-0.2-0.2-0.3C35.1,23.3,35.1,23.3,35.1,23.5z M33.7,24.4c-0.1,0-0.1,0-0.2,0c0,0-0.1,0-0.1,0c0,0,0,0-0.1,0
			c0,0,0,0,0.1,0C33.4,24.5,33.5,24.4,33.7,24.4z"/>
	</g>
</g>
</svg>
