<?xml version="1.0"?>
<svg xmlns="http://www.w3.org/2000/svg" xmlns:xlink="http://www.w3.org/1999/xlink" xmlns:svgjs="http://svgjs.com/svgjs" version="1.1" width="512" height="512" x="0" y="0" viewBox="0 0 512 512" style="enable-background:new 0 0 512 512" xml:space="preserve" class=""><g><path xmlns="http://www.w3.org/2000/svg" d="m512 256c0 141.386719-114.613281 256-256 256s-256-114.613281-256-256 114.613281-256 256-256 256 114.613281 256 256zm0 0" fill="#f1f1f1" data-original="#a8d32a" style="" class=""/><path xmlns="http://www.w3.org/2000/svg" d="m504.5625 317.429688-248.640625-248.640626-100.242187 80.925782 52.554687 52.550781-1.71875 86.3125-50.417969-50.417969-42.300781 42.300782 50.414063 50.417968-79.421876 79.421875 87.78125 87.785157c26.152344 9.007812 54.214844 13.914062 83.429688 13.914062 120.207031 0 221.046875-82.859375 248.5625-194.570312zm0 0" fill="#f1f1f1" data-original="#93bf00" style="" class=""/><path xmlns="http://www.w3.org/2000/svg" d="m195.808594 139.679688h20.0625v60.191406h-20.0625zm0 0" fill="#dd3400" data-original="#dd3400" style="" class=""/><path xmlns="http://www.w3.org/2000/svg" d="m245.96875 330.285156-20.066406 80.925782h-141.113282v-121.050782h100.988282zm0 0" fill="#4a696f" data-original="#4a696f" style=""/><path xmlns="http://www.w3.org/2000/svg" d="m165.714844 260.0625c0 16.652344-13.445313 30.097656-30.097656 30.097656-16.652344 0-30.097657-13.445312-30.097657-30.097656s13.445313-30.09375 30.097657-30.09375c16.652343 0 30.097656 13.441406 30.097656 30.09375zm0 0" fill="#4a696f" data-original="#4a696f" style=""/><path xmlns="http://www.w3.org/2000/svg" d="m135.617188 290.160156v-60.191406c16.652343 0 30.097656 13.441406 30.097656 30.09375s-13.445313 30.097656-30.097656 30.097656zm0 0" fill="#384949" data-original="#384949" style="" class=""/><path xmlns="http://www.w3.org/2000/svg" d="m245.96875 330.285156-20.066406 80.925782h-90.285156v-121.050782h50.160156zm0 0" fill="#384949" data-original="#384949" style="" class=""/><path xmlns="http://www.w3.org/2000/svg" d="m427.210938 290.160156v121.050782h-100.988282l-20.0625-60.859376 20.0625-60.191406zm0 0" fill="#4a696f" data-original="#4a696f" style=""/><path xmlns="http://www.w3.org/2000/svg" d="m406.476562 260.0625c0 16.652344-13.441406 30.097656-30.09375 30.097656-16.65625 0-30.097656-13.445312-30.097656-30.097656s13.441406-30.09375 30.097656-30.09375c16.652344 0 30.09375 13.441406 30.09375 30.09375zm0 0" fill="#4a696f" data-original="#4a696f" style=""/><path xmlns="http://www.w3.org/2000/svg" d="m376.382812 290.160156v-60.191406c16.652344 0 30.097657 13.441406 30.097657 30.09375-.003907 16.652344-13.445313 30.097656-30.097657 30.097656zm0 0" fill="#384949" data-original="#384949" style="" class=""/><path xmlns="http://www.w3.org/2000/svg" d="m376.382812 290.160156h50.828126v121.050782h-50.828126zm0 0" fill="#384949" data-original="#384949" style="" class=""/><g xmlns="http://www.w3.org/2000/svg" fill="#ff4b00"><path d="m256 149.714844h-100.320312v-80.925782h100.320312zm0 0" fill="#ff4b00" data-original="#ff4b00" style="" class=""/><path d="m326.222656 290.160156v121.050782h-100.320312v-80.925782h-40.125v-140.445312h40.125v100.320312zm0 0" fill="#ff4b00" data-original="#ff4b00" style="" class=""/><path d="m306.160156 260.0625c0 16.652344-13.441406 30.097656-30.097656 30.097656-16.652344 0-30.09375-13.445312-30.09375-30.097656s13.441406-30.09375 30.09375-30.09375c16.65625 0 30.097656 13.441406 30.097656 30.09375zm0 0" fill="#ff4b00" data-original="#ff4b00" style="" class=""/></g><path xmlns="http://www.w3.org/2000/svg" d="m306.160156 260.0625c0 16.652344-13.441406 30.097656-30.097656 30.097656v-60.191406c16.65625 0 30.097656 13.441406 30.097656 30.09375zm0 0" fill="#dd3400" data-original="#dd3400" style="" class=""/><path xmlns="http://www.w3.org/2000/svg" d="m276.0625 290.160156h50.160156v121.050782h-50.160156zm0 0" fill="#dd3400" data-original="#dd3400" style="" class=""/></g></svg>
