<?xml version="1.0" encoding="utf-8"?>
<svg version="1.1" id="Layer_1" xmlns="http://www.w3.org/2000/svg" xmlns:xlink="http://www.w3.org/1999/xlink" x="0px" y="0px"
	width="100px" height="100px" viewBox="0 0 100 100" style="enable-background:new 0 0 100 100;" xml:space="preserve">
<g>
	<path style="fill:#E8E8E8;" d="M50,0c27.61,0,50,22.39,50,50s-22.39,50-50,50S0,77.61,0,50S22.39,0,50,0"/>
	<path style="fill:#FFFFFF;" d="M50,1c27.06,0,49,21.94,49,49S77.06,99,50,99S1,77.06,1,50S22.94,1,50,1"/>
	<g>
		<title>Layer 1</title>
		<g id="svg_9">
			<path id="svg_2" style="fill:#231F20;" d="M12.2,55.14c0.67,0.21,2.25,0.53,2.92,0.53c0.99,0,2.04-0.21,2.04-2.25V42.16h3.98
				v11.05c0,3.59-1.72,6.16-6.09,6.16c-0.99,0-1.94-0.32-2.85-0.53V55.14"/>
			<path id="svg_3" style="fill:#231F20;" d="M22.76,42.16h9.15v2.46h-5.7v2.64h5.31v2.46H26.2v2.92h5.84v2.39h-9.29V42.12"/>
			<path id="svg_4" style="fill:#231F20;" d="M33.73,51.91c0.91,0.46,2.11,0.81,3.59,0.81c1.06,0,2.11-0.21,2.11-1.2
				c0-2.46-6.16-0.91-6.16-5.63c0-3.17,3.06-3.98,5.63-3.98c1.27,0,2.46,0.14,3.38,0.46l-0.21,2.71c-0.91-0.39-1.86-0.6-2.85-0.6
				c-0.91,0-2.32,0.07-2.32,1.2c0,2.11,6.09,0.67,6.09,5.42c0,3.31-2.78,4.19-5.63,4.19c-1.27,0-2.78-0.14-3.91-0.53l0.32-2.85"/>
			<path id="svg_5" style="fill:#231F20;" d="M44.22,51.91c0.91,0.46,2.18,0.81,3.59,0.81c1.06,0,2.11-0.21,2.11-1.2
				c0-2.46-6.09-0.91-6.09-5.63c0-3.17,2.99-3.98,5.63-3.98c1.2,0,2.46,0.14,3.31,0.46l-0.21,2.71c-0.91-0.39-1.86-0.6-2.85-0.6
				c-0.91,0-2.32,0.07-2.32,1.2c0,2.11,6.16,0.67,6.16,5.42c0,3.31-2.85,4.19-5.7,4.19c-1.2,0-2.71-0.14-3.91-0.53l0.32-2.85"/>
			<path id="svg_6" style="fill:#231F20;" d="M80.25,51.91c0.91,0.46,2.11,0.81,3.52,0.81c1.13,0,2.18-0.21,2.18-1.2
				c0-2.46-6.16-0.91-6.16-5.63c0-3.17,3.06-3.98,5.63-3.98c1.27,0,2.46,0.14,3.38,0.46l-0.21,2.71c-0.91-0.39-1.86-0.6-2.92-0.6
				c-0.81,0-2.25,0.07-2.25,1.2c0,2.11,6.09,0.67,6.09,5.42c0,3.31-2.78,4.19-5.7,4.19c-1.2,0-2.71-0.14-3.84-0.53l0.32-2.85"/>
			<path id="svg_7" style="fill:#231F20;" d="M58.12,48.7c0-2.25,0.81-4.12,2.92-4.12c2.11,0,2.92,1.86,2.92,4.12
				c0,2.11-0.81,4.12-2.92,4.12C58.92,52.82,58.12,50.78,58.12,48.7z M54.53,48.7c0,4.12,2.32,6.69,6.54,6.69
				c4.19,0,6.44-2.57,6.44-6.69c0-4.19-2.18-6.69-6.44-6.69C56.78,42.02,54.53,44.48,54.53,48.7"/>
			<path id="svg_8" style="fill:#231F20;" d="M72.29,44.66h0.91c1.2,0,2.11,0.39,2.11,1.72c0,1.34-0.91,1.72-2.11,1.72h-0.91V44.66z
				 M68.85,55.18h3.45V50.6h1.34c3.24,0,5.1-1.58,5.1-4.12c0-2.92-1.79-4.29-5.77-4.29h-4.12V55.18"/>
		</g>
	</g>
</g>
</svg>
