<?xml version="1.0" encoding="utf-8"?>
<svg version="1.1" id="Layer_1" xmlns="http://www.w3.org/2000/svg" xmlns:xlink="http://www.w3.org/1999/xlink" x="0px" y="0px"
	 viewBox="0 0 1920 711.3" style="enable-background:new 0 0 1920 711.3;" xml:space="preserve">
<g>
	<path style="fill:#D17700;" d="M567.4,61c-16,0-28.9,12.9-28.9,28.9c0,0,0,0,0,0.1v95.2c0,16,12.9,28.9,28.9,28.9h113v-46.7H597
		v-59.6h83.4V61H567.4z M748.2,61c-16,0-28.9,12.9-28.9,28.9v124.3h59.6v-30.6l45.5-7.5v37.8H884v-124C884,74,871,61,855.1,61
		c0,0,0,0-0.1,0H748.2z M779.1,108.3h45.3v25.7l-44.7,7L779.1,108.3z M923.8,61v153.2h58.3v-54.5l40.5-0.8l8.7-43.7h-49.3v-7.2h82.6
		V61C1064.7,61,923.8,61,923.8,61z M1090,61v153.2h58.2v-54.5l40.5-0.8l8.7-43.7h-49.3v-7.2h82.6V61C1230.8,61,1090,61,1090,61z
		 M1258.7,61v153.6h152.6v-46.8h-94.3v-8.1l40.5-0.8l8.7-43.7h-49.3v-7.2h94.3V61C1411.3,61,1258.7,61,1258.7,61z M1311.3,0
		l-1.4,13.9c-0.5,7.3,0.9,14.7,3.9,21.4c5.2,10.8,16.6,17.2,28.5,16.2h71.1l-6.2-23.6L1311.3,0z M1008.7,292.6v401.3h141V580.2h69.7
		l75.9,114h145.3l7.5-14.4l-73-105.1c21.9-8.1,36.7-28.8,37.3-52.2V362.4c0-38.6-31.3-69.9-69.9-70h-333.8L1008.7,292.6z
		 M1149.3,396.9h121.3v79.8h-121.3v-79.5V396.9z M0,292.7v401h125.5V524l319.5,187.3l14.5-8.2V292.3H335.9v179.5L14.4,284.4L0,292.7
		z M537,292.3v401.5h398.7V584.2H678v-47.8l112.3-2.5l20.2-101.3H678v-30.3h257.8v-110L537,292.3L537,292.3z M1561.6,292.6
		c-38.6,0-69.9,31.3-69.9,69.9c0,0,0,0,0,0.1v260.8c0,38.6,31.3,69.9,69.9,69.9l0,0h288.5c38,0,69-30.3,69.9-68.3V361
		c-0.8-38-31.9-68.4-69.9-68.4H1561.6z M1625.6,402h162.9v181.8h-162.9V402z"/>
	<path style="fill:#FFFDE4;" d="M1023.1,306.9v372.6h112.1V565.3h91.7l75.9,114.1h127.2l-79.3-114.1c22.8,0,47.2-17.5,47.2-42.6
		V362.4c0-30.7-24.9-55.5-55.5-55.5H1023.1z M1134.9,382.7h150.2v108.4h-150.3L1134.9,382.7L1134.9,382.7z M14.4,679.3h96.7V498.8
		L445,694.6V306.7h-94.7v190.1L14.4,301V679.3z M551.4,306.7v372.6h369.8v-80.7H663.5v-76.4l114.8-2.5l14.5-72.7H663.5v-59.2h257.8
		v-81.1L551.4,306.7L551.4,306.7z M1561.6,306.9c-30.7,0-55.5,24.9-55.5,55.5v260.8c0,30.6,24.8,55.4,55.4,55.4c0,0,0,0,0.1,0h288.5
		c30.6,0,55.5-24.7,55.5-55.4c0,0,0,0,0-0.1V362.4c0-30.7-24.9-55.5-55.5-55.5L1561.6,306.9L1561.6,306.9z M1611.2,387.6h191.4
		v210.7h-191.4V387.6L1611.2,387.6z M567.4,69.7c-11.2,0-20.3,9.1-20.3,20.3c0,0,0,0,0,0v95.2c0,11.2,9.1,20.3,20.3,20.3l0,0h104.3
		v-29.8h-83.3V99.2h83.3V69.4H567.4V69.7z M748.2,69.7c-11.2,0-20.3,9-20.3,20.2c0,0,0,0.1,0,0.1v115.6h42.8v-29.4l62.7-9.8v39.3
		h42.3V89.9c0-11.2-9-20.3-20.2-20.3c0,0-0.1,0-0.1,0L748.2,69.7L748.2,69.7z M770.6,99.5h62.7v41.7l-62.7,9.8V99.5L770.6,99.5z
		 M932.4,69.7v135.9h41.1v-54.3l42-0.9l5.3-26.6h-47.3V99.3h82.6V69.7H932.4z M1098.5,69.7v135.9h41.1v-54.3l42-0.9l5.3-26.6h-47.3
		V99.3h82.6V69.7H1098.5L1098.5,69.7z M1318.9,14.5c-0.4,6.9,0.4,28.6,24,28.6h59.6l-2.2-8l-81.1-23.4L1318.9,14.5z M1267.3,69.6
		V206h135.3v-29.5h-94.3v-25.2l42.1-0.9l5.3-26.6h-47.4V99.3h94.3V69.6H1267.3z"/>
</g>
</svg>
