<?xml version="1.0" encoding="utf-8"?>
<svg version="1.1" id="Layer_1" xmlns="http://www.w3.org/2000/svg" xmlns:xlink="http://www.w3.org/1999/xlink" x="0px" y="0px"
	width="100px" height="100px" viewBox="0 0 66.7 66.7" style="enable-background:new 0 0 66.7 66.7;" xml:space="preserve">
<g>
	<circle style="fill:#E8E8E8;" cx="33.3" cy="33.3" r="33.3"/>
	<circle style="fill:#FFFFFF;" cx="33.3" cy="33.3" r="32.7"/>
	<path style="fill:#0084A4;" d="M13.7,35.6c0.4,0,0.7-0.3,0.7-0.7c0-0.4-0.3-0.7-0.7-0.7H9.5c-0.4,0-0.7,0.3-0.7,0.7v5.5
		c0,0.4,0.3,0.7,0.7,0.7h4.3c0.4,0,0.7-0.3,0.7-0.7c0-0.4-0.3-0.7-0.7-0.7h-3.6v-1.3h3.1c0.4,0,0.7-0.3,0.7-0.7
		c0-0.4-0.3-0.7-0.7-0.7h-3.1v-1.3C10.1,35.5,13.7,35.6,13.7,35.6z M20.1,34.1c-0.4,0-0.7,0.3-0.7,0.7v3.3c0,0.9-0.7,1.6-1.5,1.6
		s-1.5-0.7-1.5-1.6v-3.3c0-0.4-0.3-0.7-0.7-0.7c-0.4,0-0.7,0.3-0.7,0.7v3.3c0,1.7,1.3,3,2.9,3s2.9-1.4,2.9-3v-3.3
		C20.8,34.5,20.5,34.1,20.1,34.1 M26.7,36.6c0-0.5-0.5-1-1-1h-2.4v2.1h2.4C26.3,37.7,26.7,37.2,26.7,36.6 M35.9,37.7
		c0,2.1-1.5,3.7-3.5,3.7h-3.3c-1.5,0-2.5-0.4-3.1-1.1c-0.1-0.1-0.2-0.2-0.3-0.3L25.1,39h-1.7v1.4c0,0.4-0.3,0.7-0.7,0.7
		c-0.4,0-0.7-0.3-0.7-0.7v-5.5c0-0.4,0.3-0.7,0.7-0.7h3.1c1.3,0,2.4,1.1,2.4,2.4c0,1-0.6,1.9-1.5,2.2l0.3,0.4
		c0.1,0.1,0.3,0.3,0.5,0.4c0.1,0.1,0.3,0.1,0.4,0.2c0.4,0.1,0.9,0.3,1.3,0.3h3.3c1.1,0,1.9-1.1,1.9-2.5s-0.9-2.3-1.9-2.3
		s-1.9,0.9-1.9,2.3c0,0.7,0.3,1.4,0.8,1.8l0.1,0.1h-1.9c-0.3-0.5-0.5-1.2-0.5-1.9c0-2.1,1.5-3.7,3.5-3.7
		C34.4,33.9,35.9,35.6,35.9,37.7 M31.3,26.5l-1.9,0.4c-0.1,0-0.2,0.1-0.2,0.3l0.4,1.9c0.1,0.7,0.6,0.8,1.1,0.7l1.1-0.3L31.7,29
		l-1.1,0.2c-0.3,0.1-0.4,0-0.5-0.3l-0.1-0.3l1.4-0.3l-0.1-0.5L30,28.1l-0.1-0.7l1.5-0.3C31.3,27.1,31.3,26.5,31.3,26.5z M35,27.4
		l1.1,0.3l0.1-0.5l-1.1-0.3c-0.5-0.1-1,0-1.2,0.7l-0.4,1.8c0,0.1,0,0.3,0.1,0.3l0.4,0.1l0.3-1.2l1.3,0.3l0.1-0.5l-1.3-0.3l0.1-0.3
		C34.6,27.3,34.7,27.3,35,27.4 M32.4,30.7c2,0,3.8,0.9,5.1,2.3l0.3-0.3c-1.3-1.5-3.3-2.5-5.4-2.5s-4.1,0.9-5.4,2.5l0.3,0.3
		C28.6,31.6,30.4,30.7,32.4,30.7 M32.4,25.7c3.3,0,6.3,1.3,8.4,3.5l0.3-0.3c-2.2-2.3-5.3-3.7-8.7-3.7c-3.4,0-6.5,1.4-8.7,3.7
		l0.3,0.3C26.1,27.1,29.1,25.7,32.4,25.7 M38.3,32.1l0.9-3.1c0-0.1,0.1-0.2-0.1-0.3L39,28.6c-0.1-0.1-0.3-0.1-0.3,0L36,30.3l0.5,0.3
		l1.9-1.3l-0.3,1.1l-0.3-0.2l-0.5,0.3l0.6,0.5l-0.2,0.6C37.7,31.7,38.3,32.1,38.3,32.1z M27.3,30.7c-0.1,0.1-0.3,0.2-0.5,0.2
		c-0.2,0-0.3-0.1-0.5-0.4l-1.1-1.3l-0.5,0.4l1.1,1.4c0.3,0.3,0.5,0.5,0.9,0.5c0.4,0,0.7-0.1,1-0.3c0.3-0.3,0.5-0.5,0.5-0.9
		c0-0.3-0.1-0.6-0.3-0.9l-1.1-1.5l-0.5,0.4l1.1,1.3c0.2,0.3,0.3,0.4,0.3,0.6C27.6,30.4,27.5,30.6,27.3,30.7 M56.9,37.7
		c0-1.4-0.7-2.8-2-2.8c-1.3,0-2,1.4-2,2.7c0,1.4,0.7,2.8,2,2.8C56.3,40.4,56.9,39,56.9,37.7 M57.9,37.6c0,2.1-1.3,3.7-3,3.7
		c-1.7,0-3-1.5-3-3.7s1.3-3.7,3-3.7C56.7,33.9,57.9,35.5,57.9,37.6 M46.1,37.7c0-1.4-0.7-2.8-2-2.8c-1.3,0-2,1.4-2,2.7
		c0,1.4,0.7,2.8,2,2.8C45.4,40.4,46.1,39,46.1,37.7 M47.1,37.7c0,2.1-1.3,3.7-3,3.7c-1.7,0-3-1.5-3-3.7s1.3-3.7,3-3.7
		C45.9,34,47.1,35.5,47.1,37.7 M40.9,40.2h-3.6c0.1-0.3,0.3-0.5,0.5-0.7l1.9-1.3c0.9-0.5,1.6-1.7,1-3.1c-0.3-0.8-1.1-1.3-2.1-1.3
		c-1.4,0-2.3,0.9-2.4,2.3c0,0.3,0.2,0.5,0.5,0.5c0.3,0,0.5-0.2,0.5-0.5c0-1.3,1.1-1.4,1.4-1.4c0.9,0,1.4,0.5,1.4,1.5
		c0,0.6-0.5,1-0.8,1.2l-1.9,1.3c-0.7,0.5-1.1,1.1-1.1,2.1v0.2h4.7c0.3,0.1,0.5-0.1,0.5-0.4C41.4,40.4,41.2,40.2,40.9,40.2
		 M52.2,40.7c0,0.3-0.2,0.4-0.5,0.4h-4.7v-0.2c0-1,0.3-1.6,1.1-2.1l1.9-1.3c0.4-0.2,0.8-0.7,0.8-1.2c0-0.9-0.5-1.5-1.4-1.5
		c-0.3,0-1.4,0.1-1.4,1.4c0,0.3-0.2,0.5-0.5,0.5c-0.3,0-0.5-0.2-0.5-0.5l0,0c0.1-1.4,1-2.3,2.4-2.3c1,0,1.8,0.5,2.1,1.3
		c0.6,1.3-0.1,2.5-1,3.1c-0.5,0.3-1.9,1.3-1.9,1.3c-0.3,0.2-0.5,0.4-0.5,0.7h3.6C52,40.2,52.2,40.4,52.2,40.7"/>
</g>
</svg>
