<?xml version="1.0" encoding="utf-8"?>
<svg version="1.1" id="Layer_1" xmlns="http://www.w3.org/2000/svg" xmlns:xlink="http://www.w3.org/1999/xlink" x="0px" y="0px"
	width="100px" height="100px" viewBox="0 0 100 100" style="enable-background:new 0 0 100 100;" xml:space="preserve">
<g>
	<path style="fill:#E8E8E8;" d="M50,0c27.61,0,50,22.39,50,50s-22.39,50-50,50S0,77.61,0,50S22.39,0,50,0"/>
	<path style="fill:#FFFFFF;" d="M50,1c27.06,0,49,21.94,49,49S77.06,99,50,99S1,77.06,1,50S22.94,1,50,1"/>
	<g>
		<g>
			<path style="fill:#AAD63E;" d="M19.63,42.81c0.36-1.59,0.69-2.99,1.9-4.18c0.83-0.81,1.92-1.28,3.09-1.28c0,0,0.45,0,0.74,0.05
				l-0.09,0.59c0,0-0.62-0.09-1,0c-0.5,0.12-0.78,0.33-1.14,0.66c-0.64,0.64-0.85,1.38-1.26,3.11l-1.28,5.74h3.2l-0.19,0.76h-3.2
				l-2.02,8.92c-0.36,1.59-0.69,2.99-1.9,4.18c-0.83,0.81-1.92,1.28-3.11,1.28h-0.4l0.21-0.66c0.12,0,0.26,0,0.36-0.02
				c0.64-0.09,1.07-0.31,1.42-0.78c0.59-0.76,0.74-1.23,1.16-2.94l2.23-9.94h-3.13l0.19-0.76h3.13L19.63,42.81z"/>
			<path style="fill:#AAD63E;" d="M63.16,51.16H58.6c0.31-1.16,1.26-3.01,2.94-3.01C63.37,48.12,63.42,49.98,63.16,51.16
				 M61.71,47.2c-2.4,0-4.53,1.61-5.03,4.15c-0.85,4.32,2.35,5.13,3.7,5.13c1.16,0,2.06-0.4,2.75-0.93l-0.62-0.71
				c-0.5,0.31-1.04,0.52-1.69,0.52c-2.23,0-2.54-1.9-2.42-3.23h6.41C65.49,50,64.77,47.2,61.71,47.2"/>
			<path style="fill:#AAD63E;" d="M35.46,40.72c0,0-2.68,11.54-2.92,12.91c-0.36,2.14,0.76,2.44,1.35,2.54
				c1.09,0.17,1.8-0.02,1.8-0.02l0.12-0.71c0,0-0.4,0.14-0.9,0.05c-0.69-0.12-0.78-0.52-0.62-1.69c0.21-1.35,3.04-13.1,3.04-13.1
				h-1.88V40.72z"/>
			<path style="fill:#AAD63E;" d="M68.69,40.72c0,0-2.68,11.54-2.92,12.91c-0.36,2.14,0.76,2.44,1.35,2.54
				c1.09,0.17,1.8-0.02,1.8-0.02l0.12-0.71c0,0-0.4,0.14-0.9,0.05c-0.69-0.12-0.78-0.52-0.62-1.69c0.21-1.35,3.04-13.1,3.04-13.1
				h-1.88V40.72z"/>
			<path style="fill:#AAD63E;" d="M72.8,40.72c0,0-2.68,11.54-2.92,12.91c-0.36,2.14,0.74,2.44,1.35,2.54
				c1.09,0.17,1.8-0.02,1.8-0.02l0.12-0.71c0,0-0.4,0.14-0.9,0.05c-0.69-0.12-0.78-0.52-0.62-1.69c0.21-1.35,3.04-13.1,3.04-13.1
				H72.8V40.72z"/>
			<path style="fill:#AAD63E;" d="M29.05,52.42c-0.21,0.71-1.07,3.23-3.09,3.23c-2.4,0-1.23-3.63-1.04-4.34
				c0.19-0.69,1.07-3.25,3.01-3.25C30.29,48.05,29.27,51.71,29.05,52.42 M30.12,47.44l-0.21,0.9h-0.07
				c-0.47-0.9-1.35-1.16-2.25-1.16c-2.73,0-4.3,2.25-4.75,4.41c-0.66,3.09,0.28,4.87,2.85,4.87c1.12,0,1.97-0.28,3.06-1.28l0.47,1
				h0.9l1.9-8.73H30.12L30.12,47.44z"/>
			<path style="fill:#AAD63E;" d="M43.44,52.42c-0.21,0.71-1.07,3.23-3.09,3.23c-2.4,0-1.23-3.63-1.04-4.34
				c0.19-0.69,1.07-3.28,2.99-3.28C44.67,48.05,43.65,51.71,43.44,52.42 M44.51,47.44l-0.21,0.9h-0.05
				c-0.47-0.9-1.35-1.16-2.25-1.16c-2.73,0-4.3,2.25-4.75,4.41c-0.66,3.09,0.28,4.87,2.85,4.87c1.12,0,1.97-0.28,3.06-1.28l0.47,1
				h0.9l1.9-8.73H44.51L44.51,47.44z"/>
			<path style="fill:#AAD63E;" d="M80.58,52.42c-0.21,0.71-1.07,3.23-3.09,3.23c-2.4,0-1.23-3.63-1.04-4.34
				c0.19-0.69,1.04-3.28,2.99-3.28C81.82,48.05,80.8,51.71,80.58,52.42 M81.65,47.44l-0.21,0.9h-0.05c-0.5-0.9-1.35-1.16-2.25-1.16
				c-2.73,0-4.27,2.25-4.75,4.41c-0.66,3.09,0.28,4.87,2.85,4.87c1.12,0,1.97-0.28,3.06-1.28l0.47,1h0.9l1.9-8.73H81.65L81.65,47.44
				z"/>
			<path style="fill:#AAD63E;" d="M53.38,52.52c-0.19,0.71-1.04,3.23-2.85,3.23c-2.16,0-1.45-3.63-1.26-4.34
				c0.28-1.14,0.93-3.2,2.71-3.2C54.4,48.2,53.57,51.78,53.38,52.52 M52.69,47.25c-1.07,0-2.18,0.47-2.75,1.28h-0.07l1.78-7.78
				h-1.99c0,0-2.78,12.01-3.54,15.52h1.12l0.9-1c0.66,1,1.38,1.28,2.52,1.28c2.56,0,4.25-1.78,4.91-4.87
				C56.04,49.5,55.42,47.25,52.69,47.25"/>
		</g>
		<path style="fill:#AAD63E;" d="M84.62,54.87c0-0.66,0.55-1.21,1.21-1.21s1.21,0.55,1.21,1.21c0,0.66-0.55,1.21-1.21,1.21
			C85.14,56.08,84.62,55.55,84.62,54.87"/>
	</g>
</g>
</svg>
