<?xml version="1.0" encoding="utf-8"?>
<svg version="1.1" id="Layer_1" xmlns="http://www.w3.org/2000/svg" xmlns:xlink="http://www.w3.org/1999/xlink" x="0px" y="0px"
	width="100px" height="100px" viewBox="0 0 72.2 72.2" style="enable-background:new 0 0 72.2 72.2;" xml:space="preserve">
<g>
	<circle style="fill:#E8E8E8;" cx="36.1" cy="36.1" r="36.1"/>
	<circle style="fill:#FFFFFF;" cx="36.1" cy="36.1" r="35.4"/>
	<path style="fill:#0E0E0E;" d="M62.6,40.7l-3.3-5.3c0-0.1-0.1-0.1,0-0.1l3-3.8c0.1-0.1,0.1-0.2-0.1-0.2H60c-0.1,0-0.1,0-0.1,0.1
		l-2.4,3c-0.1,0.1-0.3,0.1-0.3-0.1v-2.9c0-0.1-0.1-0.1-0.1-0.1h-1.8c-0.1,0-0.1,0.1-0.1,0.1v9.4c0,0.1,0,0.1,0.1,0.1H57
		c0.1,0,0.1,0,0.1-0.1v-3l0.4-0.6c0.1-0.1,0.2-0.1,0.3,0l2.3,3.5c0.1,0.1,0.1,0.1,0.1,0.1h2.1C62.6,40.9,62.6,40.8,62.6,40.7z
		 M54.1,40.7l-1.4-4c0-0.1,0-0.1,0.1-0.2c0.6-0.4,1.2-1.2,1.2-2.1v-0.1c0-1.8-1.2-3-3-3h-3.7c-0.1,0-0.1,0.1-0.1,0.1v9.4
		c0,0.1,0,0.1,0.1,0.1h1.8c0.1,0,0.1,0,0.1-0.1v-3.6c0-0.1,0.1-0.1,0.1-0.1h1.2c0.1,0,0.1,0,0.1,0.1l1.3,3.8c0,0.1,0.1,0.1,0.1,0.1
		H54C54.2,40.9,54.3,40.8,54.1,40.7z M51.9,34.3c0,0.5-0.4,0.9-0.9,0.9h-1.6c-0.1,0-0.2-0.1-0.2-0.1v-1.7c0-0.1,0.1-0.2,0.2-0.2h1.6
		c0.5,0,0.9,0.4,0.9,0.9C51.8,34.1,51.9,34.3,51.9,34.3z M46.1,40.7l-3-9.4c0-0.1-0.1-0.1-0.1-0.1h-1.3c-0.1,0-0.1,0-0.1,0.1l-3,9.4
		c-0.1,0.1,0,0.2,0.1,0.2h1.9c0.1,0,0.1,0,0.1-0.1l0.4-1.4c0-0.1,0.1-0.1,0.1-0.1h1.9c0.1,0,0.1,0,0.1,0.1l0.4,1.4
		c0,0.1,0.1,0.1,0.1,0.1h1.9C46.1,40.9,46.1,40.8,46.1,40.7L46.1,40.7z M42.8,37.6h-0.9c-0.1,0-0.2-0.1-0.1-0.2
		c0-0.1,0.1-0.3,0.1-0.4l0.2-0.9l0.2-0.9c0-0.1,0-0.2,0.1-0.3c0-0.1,0-0.1,0.1-0.2c0-0.1,0.1,0,0.1,0c0.1,0.2,0.1,0.4,0.1,0.6
		l0.2,1.1l0.1,0.9v0.2C43,37.5,42.9,37.6,42.8,37.6z M36.4,31.2h-3.3c-0.1,0-0.1,0.1-0.1,0.1v9.4c0,0.1,0,0.1,0.1,0.1h1.8
		c0.1,0,0.1,0,0.1-0.1v-3.6c0-0.1,0.1-0.1,0.1-0.1h1.2c1.8,0,3-1.2,3-2.8C39.4,32.4,38.2,31.2,36.4,31.2z M37.3,34.1
		c0,0.4-0.4,0.9-0.9,0.9h-1.2c-0.1,0-0.2,0-0.2-0.1v-1.6c0-0.1,0.1-0.2,0.2-0.2h1.2c0.5,0,0.9,0.4,0.9,0.9V34.1
		C37.2,34.2,37.3,34.1,37.3,34.1z M29.6,36.2c-0.1-0.1-0.1-0.2,0-0.4l2.3-4.5c0.1-0.1,0-0.2-0.1-0.2h-2c-0.1,0-0.1,0-0.2,0.1
		l-1.2,2.5c-0.1,0.1-0.1,0.1-0.2,0l-1.3-2.5c0-0.1-0.1-0.1-0.2-0.1h-2c-0.1,0-0.1,0.1-0.1,0.2l2.4,4.5c0.1,0.1,0.1,0.2,0,0.3
		l-2.3,4.5c-0.1,0.1,0,0.2,0.1,0.2h2c0.1,0,0.1-0.1,0.2-0.1l1.2-2.4c0.1-0.1,0.1-0.1,0.2,0l1.2,2.4c0.1,0.1,0.1,0.1,0.2,0.1h2
		c0.1,0,0.2-0.1,0.1-0.2L29.6,36.2C29.6,36.2,29.6,36.2,29.6,36.2z M21.1,31h-0.9c-1.8,0-3,1.2-3,2.9v4.4c0,1.7,1.2,2.9,3,2.9h0.9
		c1.8,0,3-1.2,3-2.9v-4.5C24.2,32.2,22.9,31,21.1,31z M22,38.3c0,0.5-0.4,0.9-0.9,0.9h-0.9c-0.5,0-0.9-0.4-0.9-0.9v-4.5
		c0-0.5,0.4-0.9,0.9-0.9h0.9c0.5,0,0.9,0.4,0.9,0.9V38.3z M15.5,35.9c0.5-0.4,0.9-1,0.9-1.6v-0.3c0-1.8-1.2-2.8-3-2.8H9.7
		c-0.1,0-0.1,0.1-0.1,0.1v9.4c0,0.1,0.1,0.1,0.1,0.1h3.7c1.9,0,3-1.2,3-2.8v-0.3c0-0.7-0.3-1.3-0.9-1.7C15.4,36.1,15.4,36,15.5,35.9
		L15.5,35.9L15.5,35.9z M14.3,38.2c0,0.5-0.4,0.9-0.9,0.9h-1.6c-0.1,0-0.2-0.1-0.2-0.1v-1.8c0-0.1,0.1-0.1,0.2-0.1h1.6
		c0.5,0,0.9,0.4,0.9,0.9L14.3,38.2L14.3,38.2z M14.3,34.3c0,0.5-0.4,0.9-0.9,0.9h-1.6c-0.1,0-0.2-0.1-0.2-0.1v-1.7
		c0-0.1,0.1-0.2,0.2-0.2h1.6c0.5,0,0.9,0.4,0.9,0.9V34.3z"/>
</g>
</svg>
