<?xml version="1.0" encoding="utf-8"?>
<svg version="1.1" id="Layer_1" xmlns="http://www.w3.org/2000/svg" xmlns:xlink="http://www.w3.org/1999/xlink" x="0px" y="0px"
	 viewBox="0 0 1920 387.95" style="enable-background:new 0 0 1920 387.95;" xml:space="preserve">
<g>
	<path style="fill:#00539F;" d="M192.74,0.69H54.04c0,0-26.98-4.08-43.06,22.76c-17.4,29.07,4.39,70.72,4.39,70.72l59.9,96.87
		c0,0,6.19,7.69,1.47,15.7c-4.31,7.33-12.73,6.59-12.73,6.59H0l17.44,91.06H159.6c0,0,33.66,4.08,50.07-30.64
		c15.07-31.92-6.18-60.42-6.18-60.42l-59.88-111.01c0,0-1.84-3.7,0-6.17c1.68-2.24,4.72-1.86,4.72-1.86h61.95L192.74,0.69z
		 M414.47,304.78c0,0-98.15,10.59-165.07-91.2C212.76,157.86,204.04,4.1,349.7,0c37.74,0,68.5,0.59,68.5,0.59l18.67,93.53
		c0,0-34.81,0.32-64.83,0.32c-30.02,0-43.72,19.66-43.72,40.88s2.78,62.22,72.46,78.26c23.72,5.46,41.21,0.6,41.21,0.6l-27.52,90.59
		L414.47,304.78z M467.95,104.57h105.49v199.9H467.95V104.57z M1163.32,0.86l-28.69,135.33L1108.61,0.86h-104.62l74.59,303.82
		h106.37l23.82-117.64l20.75,98.62l43.25-179.11l-15.44-105.7L1163.32,0.86z"/>
	<path style="fill:#ED1C24;" d="M1314.71,0.86l-8.83,43.35h192l12.35-43.35H1314.71z"/>
	<path style="fill:#00539F;" d="M1302.79,58.79l-14.12,53.07h90.92l16.77-53.07H1302.79z"/>
	<path style="fill:#ED1C24;" d="M1285.14,131.32l-10.16,41.58h176.11l12.8-41.58L1285.14,131.32z"/>
	<path style="fill:#00539F;" d="M1273.22,191.03h92.25l-26.04,113.22h-93.14L1273.22,191.03z"/>
	<path style="fill:#ED1C24;" d="M1484.64,304.68h58.7l76.79-303.83h-57.37L1484.64,304.68z M1656.98,0.37h57.89l41.67,103.01
		L1856.56,0.37H1920l-139.86,153.58l66.22,150.34h-60.19L1739.4,198.5l-99.56,105.79h-66.22l144.02-158.69L1656.98,0.37z"/>
	<path style="fill:#00539F;" d="M765.43,0.41h217.59l24.72,90.66H881.07v16.85H989.2l-28.25,90h-81.21v14.77h135.06l-28.7,91.55
		H765.87L765.43,0.41z M831.53,340.48c-32.44-13.61-73.62-34.24-98.54-59.46c-45.9-46.44-50.9-82.56-50.9-82.56
		s72.96-56.31,56.19-123.53C719.44-0.59,672.06,1.95,599.24,1.95L470.8,1.08l-17.21,93.31c0,0,125.26-0.53,141.59-0.08
		c16.33,0.44,35.13,1.11,34.87,26.53c-0.22,21.66-47.71,47.5-47.71,47.5s-7.37,53.86,59.71,136.56
		c25.9,31.92,56.72,60.27,84.82,83.06l104.66-47.48L831.53,340.48z"/>
</g>
</svg>
