<?xml version="1.0"?>
<svg xmlns="http://www.w3.org/2000/svg" xmlns:xlink="http://www.w3.org/1999/xlink" xmlns:svgjs="http://svgjs.com/svgjs" version="1.1" width="512" height="512" x="0" y="0" viewBox="0 0 512 512" style="enable-background:new 0 0 512 512" xml:space="preserve" class=""><g><path xmlns="http://www.w3.org/2000/svg" d="m512 256.2698975c0 .3200073 0 .6400146-.0100098.9599915 0 1.3099976-.019989 2.6199951-.0499878 3.9200134-.0700073 3.480011-.2000122 6.9500122-.4100037 10.3999939-.2999878 5.0899963-.7600098 10.1400146-1.3599854 15.1400146-.5599976 4.7099915-1.25 9.3699951-2.0599976 14-1.1499939 6.5100098-2.5400085 12.9400024-4.1799927 19.269989-.6300049 2.5-1.3099976 4.980011-2.0299988 7.4500122-3.6199951 12.5100098-8.1799927 24.6300049-13.5899963 36.269989-27.4599915 59.1499939-76.8399963 106.0499878-137.6999817 130.2700195-.3200073.1300049-.6300049.25-.9500122.3699951-11.2000122 4.4100037-22.7900085 8.0499878-34.6900024 10.8500061-.1300049.0299988-.2600098.0599976-.3900146.0899963-2.8599854.6700134-5.75 1.2900085-8.6600037 1.8599854-1.8699951.3800049-3.75.730011-5.6300049 1.0599976-6.8399963 1.1900024-13.769989 2.1199951-20.7900085 2.75-3.3999939.3099976-6.8099976.5499878-10.25.7200012-.6199951.0400085-1.2399902.0700073-1.8599854.1000061-.3299866.0100098-.6700134.0299988-1 .0400085-3.5299988.1499939-7.0899963.2099915-10.6600037.2099915-5.1100006 0-10.1900024-.1600037-15.2299957-.4599915-7.3300018-.4400024-14.5800018-1.1900024-21.7299957-2.2399902-4.3099976-.6199951-8.5800018-1.3500061-12.8099976-2.1900024-.2299957-.0499878-.4700012-.0899963-.6999969-.1400146-12.9300079-2.6000061-25.4900055-6.1700134-37.6199951-10.6300049-3.5200043-1.2999878-7-2.6700134-10.4499969-4.1199951-92.4200363-38.6900025-157.3000329-130.0400086-157.1900329-236.4899903.15-141.3799972 114.8899994-255.8799975 256.269989-255.7299975 119.0599976.13 219.0599976 81.5100021 247.5599976 191.6399994.3399963 1.3300018.6799927 2.6600037 1 4 .7000122 2.8899994 1.3500061 5.7899933 1.9500122 8.7200012.3900146 1.9299927.769989 3.8699951 1.1099854 5.8200073.1199951.5800018.2200012 1.1600037.3200073 1.7400055 1.1400146 6.5200043 2.019989 13.1199951 2.6499939 19.8000031.2399902 2.5200043.4400024 5.0399933.6000061 7.5800018.1300049 1.9299927.230011 3.8600006.3099976 5.8000031.1600036 3.6999835.2300109 7.4299792.2300109 11.1699542z" fill="#f1f1f1" data-original="#ff9500" style="" class=""/><path xmlns="http://www.w3.org/2000/svg" d="m512 256.2698975c0 .3200073 0 .6400146-.0100098.9599915 0 1.3099976-.019989 2.6199951-.0499878 3.9200134-.0700073 3.480011-.2000122 6.9500122-.4100037 10.3999939-.2999878 5.0899963-.7600098 10.1400146-1.3599854 15.1400146-.5599976 4.7099915-1.25 9.3699951-2.0599976 14-1.1499939 6.5100098-2.5400085 12.9400024-4.1799927 19.269989-.6300049 2.5-1.3099976 4.980011-2.0299988 7.4500122-3.6199951 12.5100098-8.1799927 24.6300049-13.5899963 36.269989-27.4599915 59.1499939-76.8399963 106.0499878-137.6999817 130.2700195-.3200073.1300049-.6300049.25-.9500122.3699951-11.2000122 4.4100037-22.7900085 8.0499878-34.6900024 10.8500061-.1300049.0299988-.2600098.0599976-.3900146.0899963-2.8599854.6700134-5.75 1.2900085-8.6600037 1.8599854-1.8699951.3800049-3.75.730011-5.6300049 1.0599976-6.8399963 1.1900024-13.769989 2.1199951-20.7900085 2.75-3.3999939.3099976-6.8099976.5499878-10.25.7200012-.6199951.0400085-1.2399902.0700073-1.8599854.1000061-.3299866.0100098-.6700134.0299988-1 .0400085-3.5299988.1499939-7.0899963.2099915-10.6600037.2099915-5.1100006 0-10.1900024-.1600037-15.2299957-.4599915l-128.5000151-128.0400085v-40.2600098c-.0899963-.0899963-9.2799988-9.2900085-9.2799988-9.2900085l24.2799988-82.3899688 38 37.9999847v-107.2599792l-5-4.5 25-30v-5.5l-5-4.5 200-30 131.460022 131.5c.1300049 1.9299927.230011 3.8600006.3099976 5.8000031.1599731 3.6999969.2299804 7.4299926.2299804 11.1699676z" fill="#f1f1f1" data-original="#fe8205" style="" class=""/><path xmlns="http://www.w3.org/2000/svg" d="m112 323.5h30v60h-30z" fill="#963b11" data-original="#963b11" style=""/><path xmlns="http://www.w3.org/2000/svg" d="m127 323.5h15v60h-15z" fill="#7f3011" data-original="#7f3011" style=""/><g xmlns="http://www.w3.org/2000/svg" fill="#a7e340"><path d="m157.3650055 290.9789124c1.2779999 2.2269897 2.2779999 4.5270081 3.0169983 6.8630066-.7389984-2.3359986-1.7389984-4.6360169-3.0169983-6.8630066z" fill="#a7e340" data-original="#a7e340" style=""/><path d="m161.8329926 304.9269104c.0780029.7919922.128006 1.5830078.1519928 2.3739929-.0239869-.7909851-.0749817-1.5820007-.1519928-2.3739929z" fill="#a7e340" data-original="#a7e340" style=""/><path d="m127.3909988 343.7019043c28.614006-.9670105 43.685997-34.5190125 26.0450058-57.0690002l-26.4360046-33.7929841v-1.2779999l27.4360046 35.0709839-27.4360046-35.0709838-27.4360046 35.0709839c-17.6409988 22.5499878-2.5690002 56.1019897 26.0449982 57.0690002.461998.0159912.9250031.0230103 1.3909988.0230103v-.0169983c.1300049-.0030213.2610092-.0020142.3910064-.006012z" fill="#a7e340" data-original="#a7e340" style=""/></g><path xmlns="http://www.w3.org/2000/svg" d="m154.4360046 286.6329041-27.4360046-35.0709839v92.1629944c.4649963 0 .9290009-.0079956 1.3910065-.0230103 28.6139984-.9670105 43.6859893-34.5189819 26.0449981-57.0690002z" fill="#95cc37" data-original="#95cc37" style=""/><path xmlns="http://www.w3.org/2000/svg" d="m165 158.4999237v224.9999847h90v-56h50v56h90v-224.9999847z" fill="#f0f0f0" data-original="#f0f0f0" style="" class=""/><path xmlns="http://www.w3.org/2000/svg" d="m280 158.4999237v168.9999847h25v56h90v-224.9999847z" fill="#e2e2e2" data-original="#e2e2e2" style="" class=""/><path xmlns="http://www.w3.org/2000/svg" d="m160 147.8h240v30h-240z" fill="#ffbd1c" data-original="#ffbd1c" style=""/><path xmlns="http://www.w3.org/2000/svg" d="m280 147.8h120v30h-120z" fill="#feac01" data-original="#feac01" style=""/><path xmlns="http://www.w3.org/2000/svg" d="m185 128.4999237v254.9999847h70v-56h50v56h70v-254.9999847z" fill="#ffffff" data-original="#ffffff" style="" class=""/><path xmlns="http://www.w3.org/2000/svg" d="m280 128.4999237v198.9999847h25v56h70v-254.9999847z" fill="#f0f0f0" data-original="#f0f0f0" style="" class=""/><path xmlns="http://www.w3.org/2000/svg" d="m262.5 158.5h35v35h-35z" fill="#19e3fc" data-original="#19e3fc" style="" class=""/><path xmlns="http://www.w3.org/2000/svg" d="m280 158.5h17.5v35h-17.5z" fill="#16c3d9" data-original="#16c3d9" style=""/><path xmlns="http://www.w3.org/2000/svg" d="m317.5 158.5h35v35h-35z" fill="#16c3d9" data-original="#16c3d9" style=""/><path xmlns="http://www.w3.org/2000/svg" d="m206.5 158.5h35v35h-35z" fill="#19e3fc" data-original="#19e3fc" style="" class=""/><path xmlns="http://www.w3.org/2000/svg" d="m262.5 213.5h35v35h-35z" fill="#19e3fc" data-original="#19e3fc" style="" class=""/><path xmlns="http://www.w3.org/2000/svg" d="m280 213.5h17.5v35h-17.5z" fill="#16c3d9" data-original="#16c3d9" style=""/><path xmlns="http://www.w3.org/2000/svg" d="m317.5 213.5h35v35h-35z" fill="#16c3d9" data-original="#16c3d9" style=""/><path xmlns="http://www.w3.org/2000/svg" d="m206.5 213.5h35v35h-35z" fill="#19e3fc" data-original="#19e3fc" style="" class=""/><path xmlns="http://www.w3.org/2000/svg" d="m262.5 268.5h35v35h-35z" fill="#19e3fc" data-original="#19e3fc" style="" class=""/><path xmlns="http://www.w3.org/2000/svg" d="m280 268.5h17.5v35h-17.5z" fill="#16c3d9" data-original="#16c3d9" style=""/><path xmlns="http://www.w3.org/2000/svg" d="m317.5 268.5h35v35h-35z" fill="#16c3d9" data-original="#16c3d9" style=""/><path xmlns="http://www.w3.org/2000/svg" d="m206.5 268.5h35v35h-35z" fill="#19e3fc" data-original="#19e3fc" style="" class=""/><path xmlns="http://www.w3.org/2000/svg" d="m180 107.8h200v30h-200z" fill="#ffdb2f" data-original="#ffdb2f" style=""/><path xmlns="http://www.w3.org/2000/svg" d="m280 107.8h100v30h-100z" fill="#ffbd1c" data-original="#ffbd1c" style=""/><path xmlns="http://www.w3.org/2000/svg" d="m255 323.5h50v60h-50z" fill="#ff461e" data-original="#ff461e" style="" class=""/><path xmlns="http://www.w3.org/2000/svg" d="m280 323.5h25v60h-25z" fill="#e42c06" data-original="#e42c06" style="" class=""/></g></svg>
