<?xml version="1.0" encoding="utf-8"?>
<svg version="1.1" id="Layer_1" xmlns="http://www.w3.org/2000/svg" xmlns:xlink="http://www.w3.org/1999/xlink" x="0px" y="0px"
	width="100px" height="100px" viewBox="0 0 71.4 72.2" style="enable-background:new 0 0 71.4 72.2;" xml:space="preserve">
<g>
	<path style="fill:#F9AF1B;" d="M53.8,10.2c0.1-0.4-0.1-0.8-0.1-0.8s-2.7-4.5-12.2-5.6c-5.1-0.5-12,0.5-16.8,3.1
		c-8.8,4.7-10.1,12.5-10.1,12.5c-0.1,0.2-0.1,0.8,0.1,1c0.2,0.2,0.5,0.2,0.9,0.1c3.1-1.1,12.3-4.1,18.2-5.6
		c8.3-2.2,15.1-3.5,19.5-4.3C53.4,10.5,53.6,10.5,53.8,10.2"/>
	<path style="fill:#195595;" d="M63.2,46.9c-5,11.1-14.5,18.9-27,19c-9,0.1-17.1-3-22.9-8.4l-3.5,1.5v-5.4c-3.8-5.1-6-11.7-6-19
		c0-19,14.5-33.9,34.8-33.9c3.3,0,6.3,0.5,8.5,1C43.7,0.6,40.2,0,36.4,0C14.6,0,0,17.6,0,35.8c0,19.8,15.5,36.4,35.9,36.4
		c19.5,0,29.9-13.7,33.3-22L63.2,46.9"/>
	<path style="fill:#EC2425;" d="M58.2,43c2.9-0.3,4.8-1.4,5.9-2.5c1-1,1.2-2.3,1.2-3.3c0.1-1.4,0-6.1,0-6.1l-7.6,1.7v1.7
		c0,1.2,0.6,1.8,1.8,1.6l1-0.2v1.4c0-0.1,0.1,0.8-1.8,1.2c-2.5,0.4-3.6-1.2-3.6-3.9c0.1-2.9,1.7-4.5,3.7-5.1c2.2-0.5,3.5,0,4.3,0.1
		c2.5,0.4,3.2-3.4,0.9-4.3c-1.7-0.7-3.9-0.8-5.9-0.4c-2.8,0.6-8.2,2.9-8.3,10.5C49.8,41.5,54.2,43.4,58.2,43"/>
	<path style="fill:#ED2226;" d="M33.6,49.4l2.5-0.9c1.9-0.6,2.5-1.7,2.5-3.7v-6.1l5.4,6.2c0.9,0.9,2,1,3,0.7c1-0.3,1.9-1.2,1.9-2.6
		V27.6l-2.5,0.6c-1.3,0.4-2.4,1.2-2.4,3.5V37c0,0-3.1-3.8-5.1-5.8c-1.1-1.1-2.8-0.4-2.8-0.4l-2.6,0.8V49.4"/>
	<path style="fill:#EC2226;" d="M32,32c0,0-1.7,0.4-3,0.9c-1.7,0.6-2.7,1.6-2.7,4.2v14.8l3-1.1c1.9-0.8,2.7-1.8,2.7-3.9V32"/>
	<path style="fill:#EE2426;" d="M24,35.5c-1.5-0.7-2.8,0.1-3.3,0.9L16,44.2v-6.3l-5.4,2.2v17.7l3.8-1.6c0,0,0.8-0.2,1.2-0.9
		c0.4-0.6,0.4-1.7,0.4-1.7V48l4.3,4.5c0.9,1,2.7,1.4,4.2,0.2c1.4-1.1,1.2-3,0.4-3.8L20.9,45l4-6.3C25.6,37.6,25.3,36.1,24,35.5"/>
	<path style="fill:#F9AF1B;" d="M21.8,56.4c-0.2,0.4,0.3,0.9,0.3,0.9c1.9,2.5,10.7,5.6,20.2,3.3c14.5-3.5,17.5-13.8,17.9-15.2
		c0.1-0.3,0.1-0.8-0.1-1.1c-0.2-0.2-0.6-0.2-1-0.1c-10.1,2.4-26.8,7.5-36.4,11.6C22.2,56.1,21.9,56.1,21.8,56.4"/>
	<path style="fill:#ED2226;" d="M13.2,33.1c0-1-0.8-1.5-2.1-0.9v3.2l0.7-0.4C12.6,34.7,13.2,34.1,13.2,33.1 M11.1,30.2
		c0.2-0.1,0.4-0.1,0.6-0.3c0.7-0.4,1.2-1,1.2-1.8c0-0.9-0.8-1.2-1.8-0.6C11.1,27.5,11.1,30.2,11.1,30.2z M16.7,32.7
		c0.1,2.5-1.7,3.8-4.1,4.8l-4.8,2V26.6l4-1.6c2.8-1,4.4,0.2,4.4,2.1c0,1.2-0.5,2.3-1.7,3.2C15.7,30.4,16.7,31.4,16.7,32.7L16.7,32.7
		C16.7,32.7,16.7,32.7,16.7,32.7z"/>
	<path style="fill:#EC2424;" d="M25.8,21.7c0-1.1-0.7-1.4-1.7-1.1l-1.6,0.5v8.1c0,0.8-0.1,1.8-1.2,2c-0.8,0.2-1.2-0.3-1.2-1.2v-6.6
		c0-1.1-0.8-1.4-1.7-1.2L17,22.9v7.9c0,2.7,1.9,4,4.7,3.2c2.5-0.7,4.1-2.2,4.2-5.7L25.8,21.7"/>
	<path style="fill:#ED2226;" d="M52.3,25c0.7-0.1,1.2-0.6,1.2-1.5v-1.4L49.6,23v-2.3l2.4-0.5c0.6-0.1,1-0.5,1-1.3v-1.3l-3.4,0.7
		v-1.8l2.7-0.6c0.8-0.1,1-0.6,1-1.4v-1.4l-7,1.4v11.8C46.3,26.4,50.1,25.5,52.3,25"/>
	<path style="fill:#EE2426;" d="M29.9,24.6c0,0,1.9-1,1.9-2.6c0-1.4-1.2-1.1-1.9-0.8V24.6 M29.9,26.4v3.2c0,0.9-0.5,1.4-1.2,1.7
		L26.8,32V19.8l4.3-1.3c2.5-0.6,4.2,0.5,4.2,2.5c0,1.9-1.1,3-2,3.9l2.1,2c0.6,0.6,0.7,1.7,0,2.5c-0.4,0.4-1.6,0.8-2.5-0.1
		C32.7,29.3,29.9,26.4,29.9,26.4L29.9,26.4C29.9,26.4,29.9,26.4,29.9,26.4z M57.4,18c0,0,1.9-0.7,1.9-2.2c0-1.3-1.3-1.1-1.9-0.9V18
		 M54.2,24.7V13.1l4.3-0.7c2.5-0.3,4.1,1.1,4,3c0,1.7-1.1,2.7-1.9,3.3l2.1,2.4c0.6,0.6,0.6,1.8-0.3,2.4c-0.9,0.5-1.7,0.3-2.2-0.3
		l-2.7-3.2v2.8c0,0.9-0.5,1.5-1.4,1.7L54.2,24.7C54.2,24.7,54.2,24.7,54.2,24.7z M45.5,19.8l-4.8,1.1v1.4c0,0.6,0.4,1,1.1,0.9
		l0.7-0.1v1.4c0,0.5-0.8,0.9-1.6,0.9c-1.2-0.1-1.8-0.9-1.8-2.7c0-2.2,1.1-3.5,2.5-4c0.7-0.2,1.4-0.1,1.9,0c1.2,0.2,1.9-0.4,1.9-1.4
		s-0.9-1.8-3-1.7c-4.5,0.1-6.9,3.5-6.9,7.3c0,4,2.6,5.8,5.8,5.2c1.8-0.4,2.7-0.9,3.3-1.5c0.6-0.5,0.9-1.4,0.9-2L45.5,19.8"/>
	<path style="fill:#FFFFFF;" d="M26.6,6.8c-5.3,2.4-8.9,7.9-9.1,10.3c-0.1,0.9,1.2,1.1,1.3,0.1C19.8,12.8,23.2,8.8,26.6,6.8
		 M46,58.2c4.3-1.7,8.4-4.9,10.8-9.8c0.6-1.4-1.2-2.2-1.8-0.4C53.5,51.4,50.8,55.5,46,58.2"/>
	<path style="fill:#EE2426;" d="M67.6,43.7h0.6c0.3,0,0.7,0.1,0.7,0.4c0,0.4-0.3,0.5-0.7,0.5h-0.6L67.6,43.7 M67,46.7h0.6v-1.5H68
		l0.9,1.5h0.7l-0.9-1.6c0.5-0.1,0.9-0.4,0.9-0.9c0-0.8-0.5-1.1-1.4-1.1h-1.4L67,46.7L67,46.7C67,46.7,67,46.7,67,46.7z M64.9,44.9
		c0,1.9,1.5,3.2,3.2,3.2c1.7,0,3.2-1.2,3.2-3.2c0-1.9-1.5-3.1-3.2-3.1C66.5,41.8,64.9,43,64.9,44.9L64.9,44.9z M65.8,44.9
		c0-1.4,1.1-2.5,2.4-2.5c1.3,0,2.4,1,2.4,2.5s-1.1,2.5-2.4,2.5C66.9,47.4,65.8,46.3,65.8,44.9z"/>
</g>
</svg>
