<?xml version="1.0" encoding="utf-8"?>
<svg version="1.1" id="Layer_1" xmlns="http://www.w3.org/2000/svg" xmlns:xlink="http://www.w3.org/1999/xlink" x="0px" y="0px"
	width="100px" height="100px" viewBox="0 0 100 100" style="enable-background:new 0 0 100 100;" xml:space="preserve">
<g>
	<path style="fill:#E8E8E8;" d="M50,0c27.61,0,50,22.39,50,50s-22.39,50-50,50S0,77.61,0,50S22.39,0,50,0"/>
	<path style="fill:#FFFFFF;" d="M50,1c27.06,0,49,21.94,49,49S77.06,99,50,99S1,77.06,1,50S22.94,1,50,1"/>
	<g id="XMLID_1_">
		<path id="XMLID_2_" style="fill:#010202;" d="M15.64,71.73c0.02-0.06,0.43-2.32,0.92-5.02l0.9-4.92h1.2c0.65,0,1.2,0.02,1.2,0.04
			c0,0.02-0.16,0.89-0.35,1.93s-0.35,1.91-0.35,1.93c0,0.02,0.81,0.04,1.81,0.02l1.81-0.02l0.35-1.95l0.35-1.95l1.18-0.02
			c0.65,0,1.18,0,1.18,0.04s-1.73,9.48-1.79,9.84l-0.04,0.16h-1.2h-1.2l0.04-0.14c0.06-0.26,0.73-3.96,0.73-4.01
			c0-0.06-0.37-0.08-1.79-0.08h-1.79l-0.04,0.14c-0.06,0.26-0.73,3.98-0.73,4.03c0,0.04-0.43,0.06-1.22,0.06
			C15.7,71.83,15.63,71.83,15.64,71.73z"/>
		<path id="XMLID_3_" style="fill:#010202;" d="M15.7,71.81c-0.08-0.02-0.08-0.02-0.06-0.1c0-0.04,0.41-2.3,0.92-5l0.9-4.92h1.2
			h1.22l-0.02,0.14c-0.22,1.08-0.69,3.76-0.67,3.76c0.02,0.02,2.16,0.04,2.89,0l0.69-0.02l0.35-1.95c0.2-1.06,0.35-1.95,0.35-1.95
			s0.55,0,1.2,0h1.2l-0.02,0.06c0,0.04-0.41,2.26-0.9,4.96c-0.49,2.7-0.9,4.92-0.9,4.96l-0.02,0.06h-1.2c-0.67,0-1.2,0-1.2,0
			s0.18-0.94,0.37-2.09c0.26-1.42,0.37-2.09,0.35-2.11c-0.04-0.04-3.56-0.06-3.56-0.02c0,0.02-0.12,0.67-0.26,1.46
			c-0.14,0.79-0.31,1.71-0.37,2.07c-0.06,0.35-0.12,0.65-0.14,0.67C18.01,71.81,15.84,71.83,15.7,71.81z"/>
		<path id="XMLID_4_" style="fill:#010202;" d="M28.04,71.96c-0.94-0.12-1.69-0.69-1.93-1.46c-0.08-0.27-0.1-0.81,0-1.1
			c0.22-0.77,0.87-1.38,1.85-1.73c0.73-0.26,1.99-0.47,3.23-0.53c0.27-0.02,0.43-0.04,0.45-0.06c0.02-0.02,0.06-0.14,0.1-0.27
			c0.2-0.79-0.22-1.26-1.06-1.26c-0.65,0-1.12,0.24-1.44,0.73c-0.06,0.1-0.14,0.22-0.16,0.27c-0.02,0.06-0.06,0.1-0.08,0.1
			c-0.1,0-2.09-0.22-2.09-0.22s0.06-0.16,0.16-0.33c0.53-1.06,1.48-1.67,2.89-1.85c0.41-0.06,1.32-0.06,1.71-0.02
			c1.2,0.14,2.05,0.69,2.3,1.5c0.06,0.2,0.08,0.27,0.06,0.65c0,0.47-0.04,0.71-0.39,2.64c-0.29,1.59-0.31,1.69-0.31,2.26v0.51h-1.12
			h-1.12l-0.02-0.2c-0.02-0.14,0-0.33,0.02-0.57c0.06-0.53,0.06-0.53-0.08-0.29c-0.16,0.26-0.63,0.73-0.85,0.87
			C29.6,71.92,28.79,72.06,28.04,71.96z M29.93,70.57c0.24-0.08,0.41-0.2,0.63-0.41c0.24-0.24,0.41-0.49,0.57-0.83
			c0.1-0.24,0.26-0.77,0.29-1.02l0.02-0.12h-0.18c-0.47,0-1.18,0.12-1.59,0.26c-0.69,0.22-1.04,0.57-1.14,1.08
			c-0.08,0.39,0.08,0.79,0.39,0.98C29.18,70.67,29.6,70.68,29.93,70.57z"/>
		<path id="XMLID_7_" style="fill:#010202;" d="M35.16,71.67c0.02-0.06,0.31-1.71,0.67-3.66c0.35-1.95,0.65-3.56,0.67-3.6l0.02-0.06
			h1.12c0.96,0,1.12,0,1.12,0.04c0,0.02-0.06,0.39-0.14,0.85c-0.08,0.43-0.14,0.81-0.14,0.83s0.08-0.14,0.2-0.33
			c0.24-0.41,0.41-0.69,0.63-0.9c0.37-0.39,0.71-0.51,1.46-0.57l0.2-0.02l-0.02,0.1c0,0.06-0.06,0.51-0.12,1.02
			c-0.06,0.51-0.12,0.94-0.12,0.98c-0.02,0.06-0.04,0.06-0.31,0.08c-0.73,0.04-1.22,0.31-1.63,0.9c-0.39,0.57-0.51,0.96-0.85,2.79
			c-0.1,0.59-0.22,1.2-0.26,1.36c-0.04,0.16-0.06,0.31-0.06,0.31s-0.55,0.02-1.24,0.02h-1.24L35.16,71.67z"/>
		<path id="XMLID_8_" style="fill:#010202;" d="M43.23,71.92c-0.49-0.08-0.85-0.26-1.2-0.59c-0.61-0.57-0.89-1.38-0.89-2.48
			c0-0.94,0.2-1.77,0.61-2.6c0.77-1.53,1.81-2.2,3.27-2.09c0.51,0.04,0.89,0.2,1.18,0.49c0.18,0.18,0.35,0.49,0.45,0.75
			c0.04,0.1,0.04,0.12,0.06,0.06c0.02-0.04,0.18-0.89,0.35-1.89l0.33-1.83h1.18h1.18l-0.02,0.1c-0.02,0.06-0.43,2.3-0.92,5l-0.9,4.9
			h-1.1c-0.61,0-1.1,0-1.1,0s0.04-0.26,0.1-0.57c0.06-0.29,0.1-0.55,0.1-0.57c0,0-0.04,0.04-0.08,0.1
			c-0.37,0.55-0.94,0.98-1.51,1.14C44.06,71.96,43.55,71.98,43.23,71.92z M44.9,70.41c0.24-0.06,0.43-0.18,0.63-0.35
			c0.37-0.33,0.55-0.85,0.75-1.95c0.14-0.83,0.16-1.1,0.12-1.36c-0.06-0.43-0.29-0.77-0.63-0.94c-0.16-0.08-0.22-0.1-0.41-0.12
			c-0.43-0.02-0.77,0.14-1.02,0.51c-0.43,0.61-0.75,1.95-0.71,3.01c0.02,0.33,0.02,0.43,0.08,0.59c0.08,0.22,0.16,0.31,0.33,0.45
			C44.27,70.43,44.57,70.49,44.9,70.41z"/>
		<path id="XMLID_11_" style="fill:#010202;" d="M51.5,71.77c0-0.02-1.16-7.18-1.18-7.36l-0.02-0.08h1.22c1.14,0,1.22,0,1.22,0.06
			c0,0.02,0.16,1.08,0.31,2.32c0.18,1.24,0.31,2.26,0.31,2.26s0.45-1.04,0.98-2.32l0.96-2.32h1.08h1.08l0.02,0.06
			c0,0.04,0.12,1.04,0.24,2.26c0.12,1.2,0.24,2.22,0.24,2.26c0,0.04,0.02,0.06,0.04,0.04c0.02-0.02,0.51-1.06,1.12-2.32l1.1-2.3h0.9
			h0.9l-0.35,0.75c-0.2,0.41-1.02,2.09-1.85,3.74l-1.5,2.99h-1.06h-1.06l-0.02-0.06c-0.02-0.08-0.57-4.66-0.57-4.72
			c0-0.02,0-0.02-0.02,0c-0.02,0.02-0.49,1.1-1.04,2.42l-1.02,2.38H52.5C51.97,71.81,51.5,71.79,51.5,71.77z"/>
		<path id="XMLID_12_" style="fill:#010202;" d="M63.83,71.98c-0.69-0.1-1.14-0.31-1.55-0.73c-0.37-0.37-0.55-0.87-0.51-1.42
			c0.06-1.12,0.9-1.93,2.46-2.32c0.71-0.18,2.2-0.37,2.89-0.37c0.18,0,0.2,0,0.22-0.08c0.14-0.26,0.16-0.71,0.08-0.94
			c-0.08-0.2-0.31-0.41-0.57-0.49c-0.24-0.08-0.67-0.08-0.94-0.02c-0.47,0.12-0.83,0.39-1.04,0.83c-0.06,0.14-0.12,0.24-0.12,0.24
			l-2.13-0.22c-0.02-0.02,0.18-0.43,0.33-0.67c0.45-0.69,1.14-1.18,2.03-1.4c1-0.26,2.34-0.26,3.21,0.02
			c0.85,0.27,1.42,0.81,1.57,1.53c0.1,0.41,0.04,0.81-0.41,3.29c-0.26,1.42-0.29,1.67-0.27,2.18v0.39h-1.12c-1,0-1.12,0-1.14-0.04
			c-0.04-0.08-0.02-0.51,0.02-0.85c0.02-0.18,0.04-0.33,0.04-0.35s-0.06,0.06-0.12,0.18c-0.16,0.27-0.59,0.71-0.85,0.87
			c-0.26,0.14-0.59,0.27-0.9,0.33C64.74,71.98,64.01,72,63.83,71.98z M65.6,70.57c0.43-0.14,0.89-0.53,1.16-1.06
			c0.16-0.31,0.31-0.81,0.37-1.22l0.02-0.12H67c-0.45,0-1.24,0.12-1.65,0.26c-0.53,0.18-0.85,0.43-1.02,0.79
			c-0.08,0.18-0.1,0.22-0.1,0.47c0,0.29,0.06,0.45,0.22,0.63C64.72,70.63,65.13,70.7,65.6,70.57z"/>
		<path id="XMLID_15_" style="fill:#010202;" d="M70.88,71.69c0.02-0.06,0.31-1.73,0.69-3.72l0.67-3.62h1.14c0.63,0,1.14,0,1.14,0
			c0,0.02-0.06,0.37-0.14,0.83c-0.08,0.43-0.14,0.83-0.14,0.85s0.08-0.1,0.16-0.26c0.24-0.43,0.41-0.71,0.69-0.96
			c0.26-0.26,0.49-0.39,0.77-0.47c0.18-0.04,0.81-0.12,0.83-0.08c0.02,0.02-0.18,1.85-0.22,2.05l-0.02,0.1l-0.31,0.02
			c-0.35,0.02-0.59,0.08-0.85,0.2c-0.47,0.24-0.94,0.83-1.18,1.5c-0.16,0.43-0.26,0.94-0.71,3.44l-0.04,0.26h-1.24h-1.26
			L70.88,71.69z"/>
		<path id="XMLID_16_" style="fill:#010202;" d="M80.01,71.98c-0.55-0.06-0.98-0.18-1.42-0.41c-1.12-0.59-1.77-1.67-1.77-3.03
			c0-1.24,0.49-2.38,1.44-3.29c0.77-0.75,1.69-1.08,2.89-1.08c1.16,0,1.97,0.29,2.6,0.98c0.49,0.51,0.77,1.14,0.87,1.87
			c0.04,0.26,0.02,0.96-0.02,1.28l-0.02,0.14H81.9h-2.68l-0.02,0.26c-0.02,0.33,0,0.69,0.08,0.9c0.2,0.57,0.79,0.92,1.48,0.87
			c0.61-0.06,1.06-0.37,1.38-0.96l0.12-0.22l0.98,0.16c0.55,0.08,0.98,0.16,1,0.16c0.02,0.02-0.2,0.45-0.37,0.73
			c-0.12,0.18-0.29,0.39-0.47,0.57c-0.59,0.57-1.24,0.89-2.07,1.04C81.07,71.98,80.22,72,80.01,71.98z M82.41,67.14
			c0.04-0.14,0.02-0.65-0.02-0.81c-0.14-0.49-0.63-0.81-1.22-0.81c-0.45,0-0.79,0.12-1.08,0.39c-0.27,0.26-0.47,0.61-0.63,1.12
			l-0.04,0.16h1.5h1.5L82.41,67.14z"/>
		<path id="XMLID_19_" style="fill:#E73137;" d="M39.28,45.6c-0.02,0.65-0.26,1.79,0.2,3.9c0,0,1.38,10.11,11.67,10.31
			c2.97-0.2,4.21-0.77,5.75-1.51c5.73-2.79,6.67-9.07,6.67-9.07h-5.39c-3.11,7.02-9.17,4.66-9.17,4.66l3.4-16
			c6.53,0.18,6.79,6.34,6.79,6.34h5.47c0,0,0.39-6.47-5.92-10.31c-1.3-0.79-3.42-1.34-5.51-1.4C53.23,32.53,41.58,31.8,39.28,45.6"
			/>
		<polyline id="XMLID_20_" style="fill:#E73137;" points="85.91,34.26 84.85,39.24 75.68,39.24 74.61,44.24 83.8,44.24 82.74,49.22 
			73.55,49.22 72.51,54.2 81.7,54.2 80.64,59.15 62.12,59.15 67.39,34.26 85.91,34.26 		"/>
		<polyline id="XMLID_21_" style="fill:#E73137;" points="27.67,59.21 24.68,43.32 14.09,59.21 27.67,59.21 		"/>
		<polyline id="XMLID_22_" style="fill:#E73137;" points="40.63,59.21 30.52,59.21 26.96,39.89 34.87,28.01 40.63,59.21 		"/>
		<path id="XMLID_23_" style="fill:#E73137;" d="M81.58,57.91c0-0.73,0.59-1.28,1.3-1.28c0.69,0,1.3,0.55,1.3,1.28
			c0,0.75-0.59,1.28-1.3,1.28C82.19,59.19,81.58,58.66,81.58,57.91 M82.9,59c0.57,0,1.04-0.45,1.04-1.08c0-0.61-0.45-1.06-1.04-1.06
			c-0.59,0-1.04,0.45-1.04,1.06C81.86,58.52,82.31,59,82.9,59z M82.62,58.66h-0.22v-1.48h0.57c0.35,0,0.53,0.14,0.53,0.41
			c0,0.26-0.16,0.37-0.37,0.41l0.41,0.65h-0.26l-0.39-0.65h-0.26v0.65L82.62,58.66L82.62,58.66z M82.9,57.84
			c0.2,0,0.35-0.02,0.35-0.24c0-0.18-0.16-0.22-0.31-0.22h-0.31v0.45L82.9,57.84L82.9,57.84z"/>
	</g>
</g>
</svg>
