<?xml version="1.0" encoding="utf-8"?>
<svg version="1.1" id="Layer_1" xmlns="http://www.w3.org/2000/svg" xmlns:xlink="http://www.w3.org/1999/xlink" x="0px" y="0px"
	 viewBox="0 0 1920.01 410.01" style="enable-background:new 0 0 1920.01 410.01;" xml:space="preserve">
<g>
	<path style="fill:#F25022;" d="M0,0h195.05c0,65.02,0,130.03,0,195.05H0V0z"/>
	<path style="fill:#7FBA00;" d="M214.96,0h195.05c0,65.02,0,130.03,0,195.05H214.97c0-65.02,0-130.03,0-195.05H214.96z"/>
	<path style="fill:#737373;" d="M1758.87,74.32c17.98-11.71,41.21-12.79,61.48-7.22c0.18,12.04,0,24.1,0.08,36.15
		c-9.63-4.24-20.96-7.03-31.09-2.85c-8.04,3.19-12.82,11.43-14.06,19.68c-1.51,10.46-0.53,21.09-0.78,31.63c20.57,0,41.14,0,61.71,0
		c0.15-13.35-0.16-26.72,0.18-40.08c13.99-3.98,27.82-8.45,41.74-12.64c0.12,17.57-0.16,35.14,0.15,52.81
		c13.91-0.2,27.82,0,41.74-0.09v34.25c-13.96-0.57-27.94-0.15-41.9-0.2c0.06,19.69,0,39.38,0,59.09
		c0.22,10.91-0.59,21.87,0.69,32.74c0.77,6.41,3.1,13.51,9.11,16.82c10.06,5.63,22.83,3.17,32.07-3.01V326
		c-12.05,5.24-25.53,6.83-38.56,5.86c-12.37-0.91-25.19-5.41-33.26-15.23c-9.37-11.12-11.71-26.17-11.91-40.25
		c-0.11-30.22,0-60.45,0-90.68c-20.59,0-41.16,0-61.74,0c0,47.44,0,94.87,0,142.3h-42.17c0-47.42,0-94.84,0-142.25
		c-9.78-0.19-19.57,0-29.36-0.15c0-11.26,0.08-22.53,0-33.8c9.73-0.22,19.48-0.13,29.29-0.06c0.71-14.97-1.57-30.38,2.91-44.96
		c3.76-13.34,12.21-24.87,23.79-32.47L1758.87,74.32z"/>
	<path style="fill:#737373;" d="M855.71,76.78c8.5-1.29,17.71,1.62,23.35,8.27c6.64,7.62,7.81,18.57,2.93,27.41
		c-5.41,9.61-17.57,14.06-28.11,11.71c-10.95-1.97-20.08-12.15-19.59-23.5c-0.32-11.95,9.68-22.6,21.39-23.93L855.71,76.78z"/>
	<path style="fill:#737373;" d="M532.42,82h61.35c19.09,48.48,38.23,96.95,57.4,145.41c4.88,12.12,9.45,24.39,14.57,36.42
		c24.6-60.59,49.48-121.02,73.86-181.69c19.67-0.32,39.35-0.07,59.03-0.12c-0.05,82-0.05,164,0,246c-14.2,0-28.38,0.12-42.57-0.08
		c0.15-60.51,0-121.01,0.07-181.57c0-2.72-0.07-5.44-0.26-8.2c-0.83,1.26-1.57,2.57-2.21,3.94
		c-24.38,61.93-49.2,123.69-73.46,185.69c-10.1,0.36-20.21,0-30.32,0.19c-25.15-61.93-49.99-124.01-74.97-185.99
		c-0.66-1.29-1.36-2.54-2.12-3.75c-0.52,26.51-0.08,53.04-0.22,79.55c0,36.71,0,73.41,0,110.12c-13.39,0-26.78,0-40.16,0
		c0-82,0-164,0-246L532.42,82z"/>
	<path style="fill:#737373;" d="M971.8,151.53c20.5-5.71,42.19-5.65,62.66,0.19c4.21,1.15,8.25,2.83,12.03,5.01
		c-0.23,13.44,0,26.94-0.13,40.33c-13.6-10.39-30.86-16.97-48.15-14.8c-13.9,1.26-26.62,8.33-35.04,19.46
		c-10.54,13.75-12.99,32.02-11.18,48.84c1.36,13.17,6.81,26.32,17.04,35.05c10.64,9.45,25.55,12.8,39.47,11.71
		c13.75-1.58,26.73-7.4,37.85-15.53c0.12,12.73,0,25.47,0.09,38.2c-17.24,10.26-37.92,12.89-57.66,11.94
		c-20.2-1.07-40.33-8.72-54.95-22.91c-15.88-15.31-24.51-37.15-25.53-59.02c-1.03-22.74,3.6-46.46,16.68-65.45
		c10.96-16.2,28.11-27.67,46.86-33.06L971.8,151.53z"/>
	<path style="fill:#737373;" d="M1354.82,192.85c-7.37-16.46-20.46-29.69-36.84-37.24c-18.79-8.55-40.14-9.7-60.39-7.12v0.03
		c-21.26,2.7-41.96,12.69-55.45,29.64c-12.33,15.15-18.3,34.59-19.47,53.89c-1.7,22.74,2.1,46.87,15.45,65.85
		c11.37,16.37,29.33,27.63,48.73,31.78c16.29,3.39,33.1,3.39,49.39,0c18.97-3.9,36.71-14.4,48.43-29.89
		c11.51-14.58,17.24-32.97,18.54-51.33C1364.54,229.66,1362.64,210.19,1354.82,192.85z M1314.08,273.78
		c-3.98,9.23-11.42,16.53-20.72,20.36c-11.03,4.04-23.04,4.56-34.38,1.51c-11.51-3.2-21.12-11.12-26.44-21.82
		c-6.8-13.56-7.82-29.28-6.41-44.12c1.28-13.53,5.99-27.45,16.29-36.79c7.48-7.03,17.67-10.39,27.76-10.95
		c12.67-0.83,26.17,2.75,35.28,11.97c9.75,9.58,13.52,23.49,14.56,36.75C1320.77,245.2,1320.17,260.33,1314.08,273.78z"/>
	<path style="fill:#737373;" d="M1432.58,148.84c19.5-3.43,39.92-0.91,58.38,6.08c0,12.89,0,25.85,0,38.77
		c-13-8.96-28.52-13.54-44.3-13.09c-7.88,0.3-16.55,3.64-20.15,11.14c-2.86,7.42-0.88,17.14,6.11,21.58
		c11.96,8,26.23,11.4,38.66,18.57c9.76,5.48,19.22,12.65,24.17,22.98c9.29,19.35,5.35,44.92-10.98,59.36
		c-15.59,14.57-38.05,18.6-58.7,17.83c-14.67-0.95-29.4-3.84-42.89-9.84c0.06-13.6-0.08-27.19,0.07-40.78
		c11.33,8.35,24.42,14,38.27,16.52c9.64,1.57,20.13,1.64,29.11-2.67c8.6-4.28,10.14-16.49,5.04-23.97
		c-4.78-5.76-11.8-8.94-18.42-12.05c-12.43-5.59-25.49-10.26-36.41-18.64c-7.8-5.97-13.36-14.4-15.78-23.92
		c-3.37-14.06-2.34-29.82,5.86-42.08c9.37-14.28,25.49-22.84,41.97-25.77L1432.58,148.84z"/>
	<path style="fill:#737373;" d="M1692.66,197.94c-6.51-17.73-19.44-32.37-36.24-41c-19.27-9.68-41.52-11.12-62.61-8.51v-0.01
		c-16.97,2.18-33.65,8.62-46.61,20c-15.82,13.62-25.22,33.65-27.82,54.14c-2.6,20.49-1.72,42.07,6.63,61.24
		c8.22,18.99,23.63,33.94,42.85,41.58c18.78,7.37,39.65,8.22,59.41,5.02c20.24-3.37,39.35-13.91,51.86-30.31
		c13.37-16.9,19.09-38.76,19.09-60.05C1699.51,225.78,1697.73,211.33,1692.66,197.94z M1654.57,257.76
		c-1.61,9.28-4.82,18.53-10.9,25.88c-6.08,7.34-15.23,11.88-24.6,13.26c-10.1,1.51-20.74,0.78-30.18-3.28
		c-10.19-4.31-18.09-13.13-22.26-23.28c-5-12.09-5.99-25.48-5-38.41c0.96-12.52,4.51-25.37,12.78-35.14
		c7.55-9.09,19.12-14.12,30.79-14.77V182c11.91-0.83,24.6,1.93,33.79,9.97c8.45,7.03,13.12,17.5,15.23,28.12
		C1656.56,232.53,1656.68,245.28,1654.57,257.76z"/>
	<path style="fill:#737373;" d="M1140.81,154.4c11.64-7.03,26.44-7.58,39.15-3.3c-0.06,14.06,0,28.11,0,42.17
		c-8.49-5.36-18.53-7.72-28.51-6.7c-11.97,1.36-21.46,10.54-26.38,21.09c-5.34,11.16-6.35,23.79-6.01,36c0,28.11,0,56.23,0,84.34
		h-41.59c0-58.74,0-117.48,0-176.22c13.88-0.18,27.76-0.11,41.64,0c-0.06,10.09,0,20.17,0,30.27c4.51-10.98,11.22-21.64,21.8-27.62
		L1140.81,154.4z"/>
	<path style="fill:#737373;" d="M838.15,151.75c13.99,0,27.99-0.2,41.97,0.07c-0.16,58.72,0,117.46-0.07,176.19h-41.88
		c0-58.75,0-117.5,0-176.26H838.15z"/>
	<path style="fill:#01A4EF;" d="M0,214.95c65.02,0,130.03,0,195.05,0c0,65.02,0,130.03,0,195.03H0V214.95z"/>
	<path style="fill:#FFB901;" d="M214.97,214.97c65,0,130.01,0,195.03,0v195.03H214.96c0-65.02,0-130.03,0-195.03H214.97z"/>
</g>
</svg>
