<?xml version="1.0"?>
<svg xmlns="http://www.w3.org/2000/svg" xmlns:xlink="http://www.w3.org/1999/xlink" xmlns:svgjs="http://svgjs.com/svgjs" version="1.1" width="512" height="512" x="0" y="0" viewBox="0 0 512 512" style="enable-background:new 0 0 512 512" xml:space="preserve" class=""><g>
<circle xmlns="http://www.w3.org/2000/svg" style="" cx="256" cy="256" r="256" fill="#f1f1f1" data-original="#23a57f" class=""/>
<path xmlns="http://www.w3.org/2000/svg" style="" d="M511.924,262.042c-63.852-64.204-155.169-154.53-155.169-154.53l-63.205,63.204l23.853,23.86h-7.563  l-88.554-88.532l-63.204,63.205l25,25l0.313,0.328L122.09,310.874l20.447,20L158.833,372L148.2,419.583  c0,0,44.884,44.695,92.219,91.931C245.574,511.824,250.766,512,256,512C395.365,512,508.713,400.635,511.924,262.042z" fill="#f1f1f1" data-original="#006941" class=""/>
<polygon xmlns="http://www.w3.org/2000/svg" style="" points="369.383,312.424 362.443,419.584 324.653,419.584 305.483,293.254 " fill="#ff8945" data-original="#ff8945"/>
<polygon xmlns="http://www.w3.org/2000/svg" style="" points="324.653,293.254 324.653,419.584 289.418,419.584 282.479,312.424 " fill="#ffa851" data-original="#ffa851"/>
<polygon xmlns="http://www.w3.org/2000/svg" style="" points="359.977,253.444 373.9,194.576 267.143,194.576 231.359,278.98 305.483,349.294 395,349.294   " fill="#001a31" data-original="#001a31" class=""/>
<path xmlns="http://www.w3.org/2000/svg" style="" d="M189.185,181.876c-24.664,0-44.73-20.066-44.73-44.73s20.065-44.73,44.73-44.73  c24.664,0,44.73,20.066,44.73,44.73S213.849,181.876,189.185,181.876z" fill="#9d3d1a" data-original="#9d3d1a"/>
<path xmlns="http://www.w3.org/2000/svg" style="" d="M324.653,183.344c-24.664,0-44.73-20.066-44.73-44.73s20.065-44.73,44.73-44.73  s44.73,20.066,44.73,44.73C369.383,163.278,349.317,183.344,324.653,183.344z" fill="#ff8945" data-original="#ff8945"/>
<polygon xmlns="http://www.w3.org/2000/svg" style="" points="237.11,310.874 224.419,419.584 189.185,419.584 163.625,285.314 " fill="#001a31" data-original="#001a31" class=""/>
<polygon xmlns="http://www.w3.org/2000/svg" style="" points="189.185,291.704 189.185,419.584 148.2,419.584 141.26,310.874 " fill="#01375f" data-original="#01375f" class=""/>
<g xmlns="http://www.w3.org/2000/svg">
	<path style="" d="M256.919,310.874h-37.381l-20.768-58.149l20.768-58.149h37.381V310.874z" fill="#001a31" data-original="#001a31" class=""/>
	<path style="" d="M122.09,194.576h36.742l20.768,58.149l-20.768,58.149H122.09V194.576z" fill="#001a31" data-original="#001a31" class=""/>
</g>
<path xmlns="http://www.w3.org/2000/svg" style="" d="M219.537,310.874h-30.352l-22.365-58.149l22.365-58.149h30.352V310.874z" fill="#b4d0db" data-original="#b4d0db"/>
<path xmlns="http://www.w3.org/2000/svg" style="" d="M189.185,310.874h-30.352V194.576h30.352V310.874z" fill="#f3edee" data-original="#f3edee"/>
<polygon xmlns="http://www.w3.org/2000/svg" style="" points="296.358,310.954 289.418,419.584 256.919,419.584 231.359,285.394 " fill="#01538d" data-original="#01538d"/>
<polygon xmlns="http://www.w3.org/2000/svg" style="" points="217.48,310.954 224.419,419.584 256.919,419.584 256.919,285.394 " fill="#0272aa" data-original="#0272aa" class=""/>
<path xmlns="http://www.w3.org/2000/svg" style="" d="M256.919,178.681c20.647,0,37.381,16.734,37.381,37.381s-16.734,37.381-37.381,37.381l-24.921-37.381  L256.919,178.681z" fill="#9d3d1a" data-original="#9d3d1a"/>
<path xmlns="http://www.w3.org/2000/svg" style="" d="M256.919,178.681v74.763c-20.647,0-37.381-16.734-37.381-37.381S236.272,178.681,256.919,178.681z" fill="#ce5011" data-original="#ce5011"/>
<polygon xmlns="http://www.w3.org/2000/svg" style="" points="305.483,266.224 305.483,349.294 256.919,349.294 237.749,308.861 256.919,266.224 " fill="#ffc65c" data-original="#ffc65c"/>
<rect xmlns="http://www.w3.org/2000/svg" x="208.35" y="266.22" style="" width="48.564" height="83.07" fill="#ffdd7d" data-original="#ffdd7d"/>
<g xmlns="http://www.w3.org/2000/svg">
</g>
<g xmlns="http://www.w3.org/2000/svg">
</g>
<g xmlns="http://www.w3.org/2000/svg">
</g>
<g xmlns="http://www.w3.org/2000/svg">
</g>
<g xmlns="http://www.w3.org/2000/svg">
</g>
<g xmlns="http://www.w3.org/2000/svg">
</g>
<g xmlns="http://www.w3.org/2000/svg">
</g>
<g xmlns="http://www.w3.org/2000/svg">
</g>
<g xmlns="http://www.w3.org/2000/svg">
</g>
<g xmlns="http://www.w3.org/2000/svg">
</g>
<g xmlns="http://www.w3.org/2000/svg">
</g>
<g xmlns="http://www.w3.org/2000/svg">
</g>
<g xmlns="http://www.w3.org/2000/svg">
</g>
<g xmlns="http://www.w3.org/2000/svg">
</g>
<g xmlns="http://www.w3.org/2000/svg">
</g>
</g></svg>
