<?xml version="1.0" encoding="utf-8"?>
<svg version="1.1" id="Layer_1" xmlns="http://www.w3.org/2000/svg" xmlns:xlink="http://www.w3.org/1999/xlink" x="0px" y="0px"
	width="100px" height="100px" viewBox="0 0 100 100" style="enable-background:new 0 0 100 100;" xml:space="preserve">
<g>
	<g>
		<circle style="fill:#E8E8E8;" cx="50" cy="50" r="50"/>
		<circle style="fill:#FFFFFF;" cx="50" cy="50" r="49.1"/>
	</g>
	<g>
		<g>
			<g>
				<path style="fill:#4292F3;" d="M36.5,47.7c0,0,0,0.8,0,0.9c0,2,0,3.9,0,5.9c0,0.2,0,0.5,0,0.7c-0.1,0.3-0.3,0.7-0.8,0.7
					c-0.5,0-0.7-0.2-0.8-0.7c0-0.2,0-0.3,0-0.6c0-3.1,0-6.2,0-9.2c0-0.6,0.1-1.2,0.8-1.4c0.7-0.1,1,0.3,1.3,0.8
					c1.2,2.2,2.2,4.5,3.4,6.7c0.1,0.2,0.1,0.6,0.5,0.6c0.1,0,0.2-0.1,0.3-0.3c0.2-0.5,0.4-0.9,0.6-1.4c0.9-1.8,1.7-3.6,2.7-5.3
					c0.1-0.2,0.2-0.5,0.3-0.7c0.2-0.3,0.6-0.6,1-0.5c0.5,0.1,0.8,0.5,0.9,0.9c0,0.2,0,0.3,0,0.6c0,3,0,6,0,9.1c0,0.1,0,0.2,0,0.3
					c-0.1,0.6-0.3,0.9-0.9,0.9c-0.5,0-0.8-0.4-0.8-0.8V51c0-1,0-2,0-3v-0.3l-3,6c-0.1,0.3-0.3,0.7-0.7,0.9c-0.6,0.5-1.4,0.2-1.7-0.5
					C38.6,52.2,37.5,49.6,36.5,47.7C36.6,47.5,36.6,47.8,36.5,47.7z"/>
				<path style="fill:#4292F3;" d="M80.8,50c0,3.1-2.4,6.1-6.1,6.1c-3.5,0-6.1-2.9-6.1-6.1c0-3.4,2.8-6.1,6.1-6.1S80.8,46.7,80.8,50
					z M74.7,45.5c-2-0.2-4.5,1.7-4.4,4.4c0,2.5,2,4.5,4.4,4.5c2.4,0,4.5-2.1,4.5-4.5C79,47.5,77.1,45.5,74.7,45.5z"/>
				<path style="fill:#4292F3;" d="M54,55.9c-0.9,0-1.8,0-2.9,0c-0.9,0-1.3-0.6-1.3-1.5c0-2.1,0-4.2,0-6.4c0-1,0-2,0-3
					c0-0.7,0.2-1.2,1-1.2c1.8-0.1,3.8-0.1,5.7,0c0.6,0,0.9,0.3,0.9,0.9c0,0.6-0.5,0.8-1,0.8c-1.4,0-4.7,0-4.7,0s0,0.2,0,0.6
					c0,0.6,0,1.2,0,1.7v0.8c0.8,0,2.5,0,3.4,0c0.5,0,0.8,0.1,0.9,0.7c0.1,0.6-0.2,1-0.9,1c-0.9,0-2.5,0-3.5,0v0.7c0,0.7,0,1.4,0,2.2
					v0.7c1.4,0,3.5,0,4.7,0c0.2,0,0.5,0,0.7,0c0.6,0.1,0.9,0.3,0.8,0.9c0,0.5-0.3,0.8-0.9,0.8C56,55.9,55,55.9,54,55.9L54,55.9z"/>
				<path style="fill:#4292F3;" d="M14.5,43.8c1.7,0.1,3.1,0.6,4.3,1.7c0.5,0.5,0.5,0.9,0.1,1.3c-0.5,0.3-0.9,0.3-1.3-0.1
					c-1.4-1.3-3-1.5-4.7-0.8c-1.7,0.7-2.7,2.2-2.7,4s0.8,3.2,2.4,4c1.7,0.9,3.4,0.6,4.9-0.6c0.1-0.1,0.1-0.1,0.2-0.2
					c0.3-0.3,0.8-0.3,1.2,0c0.3,0.3,0.3,0.7,0.1,1.2c-0.3,0.5-0.8,0.8-1.4,1c-2.7,1.5-5.5,0.9-7.7-1.4c-1.7-1.8-2-5-0.5-7.3
					C10.7,44.7,12.6,43.9,14.5,43.8z"/>
				<path style="fill:#4292F3;" d="M32.9,55c0,0.5-0.1,0.7-0.5,0.9c-0.3,0.1-0.6,0.1-0.9-0.1c-0.2-0.1-0.3-0.3-0.5-0.6
					c-1.3-2.7-2.5-5.3-3.9-8c0-0.1-0.1-0.2-0.1-0.3c-0.2-0.5-0.5-0.3-0.7,0c-0.9,1.8-1.8,3.7-2.7,5.5c-0.5,0.9-0.9,1.8-1.4,2.8
					c-0.3,0.6-0.8,0.8-1.3,0.5c-0.5-0.3-0.6-0.8-0.2-1.3c1.6-3.2,3.2-6.5,4.9-9.7c0.2-0.5,0.6-0.8,1.2-0.8c0.6,0,0.9,0.3,1.2,0.8
					c1.6,3.2,3.1,6.5,4.7,9.6C32.8,54.7,32.8,54.9,32.9,55z"/>
				<path style="fill:#4292F3;" d="M85.4,50.7c0-1.4,0-2.9,0-4.3c0-0.6,0-0.7,0-0.7s-2.5,0-3.4,0c-0.6,0-0.9-0.2-0.9-0.8
					c-0.1-0.6,0.2-0.8,0.7-0.9c0.2,0,0.6-0.1,0.8-0.1c2.4,0,4.7,0,7.2,0c0.3,0,0.7,0,1,0.1c0.5,0.1,0.7,0.5,0.7,0.9
					c0,0.5-0.3,0.7-0.8,0.7c-0.9,0-3.5,0-3.5,0s0,0.2,0,0.8c0,2.7,0,5.2,0,7.9c0,0.2,0,0.5,0,0.7c-0.1,0.5-0.3,0.8-0.9,0.8
					c-0.6,0-0.8-0.3-0.8-0.8C85.4,53.6,85.4,52.1,85.4,50.7L85.4,50.7z"/>
				<path style="fill:#4292F3;" d="M60.4,49.9c0-1.5,0-3,0-4.4c0-0.2,0-0.5,0-0.7c0.1-0.5,0.3-0.7,0.9-0.7c0.5,0,0.7,0.3,0.8,0.7
					c0,0.2,0,0.5,0,0.7c0,2.7,0,5.3,0,7.9c0,0.6,0.2,0.8,0.8,0.8c1.3,0,2.7,0,3.9,0c0.2,0,0.5,0,0.7,0c0.5,0.1,0.8,0.3,0.7,0.9
					c0,0.6-0.3,0.8-0.8,0.8c-0.9,0-1.8,0-2.8,0s-2,0-2.9,0s-1.3-0.3-1.3-1.3C60.4,53,60.4,51.5,60.4,49.9z"/>
			</g>
		</g>
	</g>
</g>
</svg>
