<?xml version="1.0" encoding="utf-8"?>
<svg version="1.1" id="Layer_1" xmlns="http://www.w3.org/2000/svg" xmlns:xlink="http://www.w3.org/1999/xlink" x="0px" y="0px"
	 viewBox="0 0 133.6 67.1" style="enable-background:new 0 0 133.6 67.1;" xml:space="preserve">
<g>
	<g>
		<path style="fill:#EE1C2E;" d="M52.9,32.8c-1.8-2-3.3-4.7-2.2-7.4c1-2.1,1.8-4.2,2.3-6.6c0.2,2.5,1.7,4.8,2.4,7.2
			c0.3,1.1,0.3,2.4-0.1,3.6C54.7,30.8,54,32,53,33"/>
		<path style="fill:#004785;" d="M66.4,30.7c-1.1,0.9-2.6,1-3.7,0.4l-0.6-0.5l-5.9-7.8c1.9,0.4,3.4-0.6,4.5-2.4
			c1.1-1.7,1.1-4.1,0-5.8c-1.2-1.8-3.7-2.4-5.7-2.2c-3.6,0.5-6.1,3.8-6.9,7.2c-0.8,3.9-0.2,7.6,1.1,11c0.3,0.7,0.7,1.5,1.2,2.1
			c-3.8-1.7-7.1-4.8-8.8-8.9c-1.9-4.5-1.9-10.2,0.4-14.7c1.8-3.5,5-6.8,8.9-8.2c4.1-1.7,9.7-1.4,13.7,0.9c4.9,2.5,8.6,8.7,8.6,14.3
			C73.2,22.1,70.7,27.3,66.4,30.7"/>
		<g>
			<path style="fill:#EE1C2E;" d="M6.2,46.8v9.1H0V28.9c2.6-0.1,5.2-0.2,7.9-0.2c6.2,0,9.7,2.6,9.7,7.9c0,2.1-0.7,3.8-2,5.3
				c-1,1.1-2.3,1.9-3.8,2.4c0.5,0.8,1,1.4,1.3,1.9l6.8,9.8h-7.7 M7.4,34.2c-0.4,0-0.8,0-1.2,0v6l1,0c2,0,3.9-0.8,3.9-3.1
				C11.1,35.3,10.1,34.2,7.4,34.2"/>
			<path style="fill:#EE1C2E;" d="M36.8,46.7l-0.1,0.6H25.5c0.2,2.5,1.6,3.7,4.3,3.7c2.3,0,3.9-0.6,5.9-1.6l0.6,5.4
				c-2.5,1-4.6,1.5-7.3,1.5c-6.5,0-9.7-3.6-9.7-10.4c0-3.1,0.8-5.7,2.5-7.7c1.7-2.1,4-3.1,6.9-3.1c2.7,0,4.9,0.9,6.4,2.7
				c1.4,1.7,2,3.8,2,6.4C37,45.1,36.9,45.9,36.8,46.7 M30.2,41c-0.4-0.5-1-0.8-1.8-0.8c-1.4,0-2.3,0.9-2.7,2.2h5.1
				C30.7,41.9,30.5,41.4,30.2,41"/>
		</g>
		<path style="fill:#EE1C2E;" d="M39.9,55.9V27.5c1.6,2.6,3.8,4.7,6.2,6.3V56"/>
		<rect x="50" y="35.6" style="fill:#EE1C2E;" width="6.2" height="20.3"/>
		<path style="fill:#EE1C2E;" d="M69.4,54.5l-1,0.8c-1.2,0.7-2.5,1.1-4,1.1c-1.8,0-3.2-0.5-4.4-1.5c-1.1-1.1-1.6-2.5-1.6-4.2
			c0-2.5,1.2-4.4,3.3-5.8c1.9-1.1,4.3-1.8,7.2-1.8v-0.3c0-1.4-0.7-2.2-2.8-2.2c-2.4,0-4,0.8-6,1.9l-0.6-5.8c2.4-0.9,4.7-1.4,7.3-1.4
			c2.8,0,5.1,0.6,6.5,1.9c1.2,1.2,1.8,3.1,1.8,5.4v7.8c0,1.9,0.1,3.8,0.1,5.6h-5.9v-0.8L69.4,54.5 M69,47.6
			c-3.6,0.1-4.6,1.1-4.6,2.2c0,0.9,0.3,1.3,1.4,1.3c0.9,0,1.6-0.4,2.3-1.1C68.7,49.3,69,48.5,69,47.6"/>
		<path style="fill:#EE1C2E;" d="M84.8,37.7c0.9-1.6,2.8-2.5,5.3-2.5c4.1,0,6.2,2.4,6.2,6.8v14h-6.1V43.2c0-1.9-0.6-2.4-1.5-2.4
			s-1.7,0.4-2.4,1.5c-0.7,1.1-1.1,2.3-1.1,3.8V56h-6.1V35.6h5.9v0.8C84.8,36.8,84.8,37.2,84.8,37.7"/>
		<path style="fill:#EE1C2E;" d="M108.3,56.3c-5.9,0-8.9-3.4-8.9-9.9c0-3.2,0.8-5.9,2.5-7.9c1.8-2.2,4.4-3.3,7.7-3.3
			c1.6,0,3,0.3,4.6,0.7l-0.6,5.8c-1.3-0.5-2.6-1-3.9-1c-2.9,0-3.8,2.5-3.8,5.1c0,3.4,1.2,4.7,3.6,4.7c1.8,0,2.7-0.4,4.2-1.2l0.5,5.8
			C112.1,56,110.4,56.3,108.3,56.3"/>
		<path style="fill:#EE1C2E;" d="M133.5,46.7l-0.1,0.6h-11.2c0.2,2.5,1.6,3.7,4.3,3.7c2.3,0,3.9-0.6,5.9-1.6l0.6,5.4
			c-2.5,1-4.6,1.5-7.3,1.5c-6.5,0-9.7-3.6-9.7-10.4c0-3.1,0.8-5.7,2.4-7.7c1.7-2.1,4-3.1,6.8-3.1c2.7,0,4.9,0.9,6.4,2.7
			c1.4,1.7,2,3.8,2,6.4C133.6,45.1,133.6,45.9,133.5,46.7 M126.9,41c-0.4-0.5-1-0.8-1.8-0.8c-1.4,0-2.3,0.9-2.7,2.2h5.1
			C127.4,41.9,127.2,41.4,126.9,41"/>
	</g>
	<g>
		<g>
			<path style="fill:#004785;" d="M104.6,67.1l-1.3-2.3h-1v2.3H101v-6.7h2.7c0.6,0,1.1,0.2,1.6,0.6c0.4,0.4,0.6,1,0.6,1.6
				c0,0.4-0.1,0.8-0.4,1.1c-0.2,0.4-0.5,0.6-0.9,0.8l1.5,2.5H104.6z M102.3,61.6v2h1.4c0.2,0,0.5-0.1,0.6-0.3
				c0.2-0.2,0.3-0.4,0.3-0.7s-0.1-0.5-0.3-0.7c-0.2-0.2-0.4-0.3-0.6-0.3H102.3z"/>
			<path style="fill:#004785;" d="M109,65.8h2.8v1.3h-4.1v-6.7h4.1v1.3H109v1.4h2.5v1.2H109V65.8z"/>
			<path style="fill:#004785;" d="M118,60.4v1.3h-1.8v5.4h-1.3v-5.4h-1.8v-1.3H118z"/>
			<path style="fill:#004785;" d="M123.5,67.1l-0.4-1.2h-2.7l-0.4,1.2h-1.4l2.3-6.7h1.6l2.4,6.7H123.5z M120.8,64.6h1.9l-1-2.7
				L120.8,64.6z"/>
			<path style="fill:#004785;" d="M126.3,60.4h1.3v6.7h-1.3V60.4z"/>
			<path style="fill:#004785;" d="M131.1,65.8h2.5v1.3h-3.9v-6.7h1.3V65.8z"/>
		</g>
		<g>
			<rect y="62.7" style="fill:#004785;" width="96.3" height="2"/>
		</g>
	</g>
</g>
</svg>
