<svg xmlns="http://www.w3.org/2000/svg" viewBox="0 0 94.3 63.6" fill-rule="evenodd"><path d="M31.143.3h32v62.9h-32z" fill="#fff"/><path d="M94.3 29.4H63.5V0H30.8v29.4H0v23.4h30.8v10.9h32.7v-11h30.8V29.4zM31.5.6h31.4v28.7H31.5V.6zm31.4 62.3H31.5V52.7h31.4v10.2z" fill="#ec2926"/><g fill="#f9dd0c"><path d="M83.345 33.254a1.11 1.11 0 0 0-1.1 1.1 1.11 1.11 0 0 0 1.1 1.1 1.11 1.11 0 0 0 1.1-1.1 1.11 1.11 0 0 0-1.1-1.1zm0 1.4c-.2 0-.3-.2-.3-.3s.2-.3.3-.3c.2 0 .3.2.3.3 0 .2-.1.3-.3.3zm-59.64 3.065c-.9-.9-2.2-1.5-3.5-1.5-2.7 0-5 2.3-5 5 0 1.3.5 2.6 1.5 3.5.9.9 2.2 1.5 3.5 1.5s2.6-.5 3.5-1.5c1.9-1.8 1.9-5 0-7h0zm-.7 6.5c-.8.8-1.8 1.2-2.9 1.2s-2.1-.4-2.9-1.2-1.2-1.8-1.2-2.9c0-2.3 1.9-4.2 4.1-4.2 1.1 0 2.2.4 2.9 1.2a4.23 4.23 0 0 1 0 5.9h0z"/><path d="M22.838 38.552c-.7-.7-1.7-1.1-2.7-1.1s-2 .4-2.7 1.1a3.8 3.8 0 0 0 0 5.4c.7.7 1.7 1.1 2.7 1.1a3.8 3.8 0 0 0 3.8-3.8c0-1-.4-2-1.1-2.7zm-2.7 5.7c-.8 0-1.5-.3-2.1-.9-1.1-1.2-1.1-3 0-4.2.5-.6 1.3-.9 2.1-.9s1.5.3 2.1.9c.5.6.9 1.3.9 2.1-.1 1.6-1.4 3-3 3h0zm13.429-7.755v8.8c0 .9-.3 1.7-1 2.3-.6.6-1.4 1-2.3 1s-1.7-.3-2.3-1c-.4-.4-.7-1-.9-1.6h-.8c.1.8.5 1.6 1.1 2.2.8.8 1.8 1.2 2.9 1.2s2.1-.4 2.9-1.2 1.2-1.8 1.2-2.9v-8.8h-.8z"/><path d="M30.29 45.497c.7 0 1.4-.2 2-.6v.4c0 1.1-.9 2.1-2 2.1-.5 0-1.1-.2-1.4-.6a3.04 3.04 0 0 1-.5-.7h-.9c.1.5.4 1 .8 1.4.5.6 1.3.9 2.1.9 1.6 0 2.9-1.3 2.9-2.9v-2.6c-.2.4-.4.7-.7 1-.6.6-1.4.9-2.2 1-.9 0-1.7-.3-2.3-1-.6-.6-1-1.4-1-2.3v-4.8h-.9v4.8c0 1.1.4 2.2 1.2 2.9.8.6 1.8 1 2.9 1h0zm-2.068-2c.5.6 1.3.9 2.1.9 1.6-.1 2.9-1.5 2.9-3.1v-4.7h-.9v4.7c0 1.2-.9 2.1-2 2.2-.5 0-1.1-.2-1.4-.6-.4-.4-.6-.9-.6-1.5v-4.8h-.9v4.8c0 .8.3 1.5.8 2.1zm20.014-10.066h1v12.6h-1zm-1.132 0h1v12.6h-1zM83.5 36.497h1v9.5h-1zm-1.155 0h1v9.5h-1zm5.053-3.066h1v12.6h-1zm-1.132 0h1v12.6h-1zm-48.292 5.321c-1.4 1.4-1.4 3.8 0 5.3.7.7 1.6 1.1 2.6 1.1a3.76 3.76 0 0 0 3.7-3.7v-3.7h-3.7c-1-.1-1.9.3-2.6 1h0zm5.4 2.7c0 1.6-1.3 2.9-2.8 2.9-.7 0-1.5-.3-2-.8a2.84 2.84 0 0 1 0-4c.5-.5 1.3-.9 2-.9h2.8v2.8h0z"/><path d="M40.641 36.497a4.91 4.91 0 0 0-4.9 4.9c0 1.3.5 2.6 1.4 3.5 1.7 1.7 4.3 1.9 6.3.5v.6h.9v-3.1c-.2.5-.5.9-.8 1.3-.7.8-1.8 1.2-2.8 1.2-1.1 0-2.1-.4-2.8-1.2-.8-.8-1.2-1.8-1.2-2.9 0-2.2 1.8-4 4-4.1h4v8.7h.9v-9.6h-5zm32.497 2.255c-1.4 1.4-1.4 3.8 0 5.3.7.7 1.6 1.1 2.6 1.1a3.76 3.76 0 0 0 3.7-3.7v-3.7h-3.7c-1-.1-1.9.3-2.6 1zm5.4 2.7c0 1.6-1.3 2.9-2.8 2.9-.7 0-1.5-.3-2-.8a2.84 2.84 0 0 1 0-4c.5-.5 1.2-.8 2-.8h2.8v2.7h0z"/><path d="M75.683 36.497a4.91 4.91 0 0 0-4.9 4.9c0 1.3.5 2.6 1.4 3.5 1.7 1.7 4.3 1.9 6.3.5v.6h.9v-3.1c-.2.5-.5.9-.8 1.3-.7.8-1.8 1.2-2.8 1.2s-2.1-.4-2.8-1.2c-.8-.8-1.2-1.8-1.2-2.9 0-2.2 1.8-4 4-4.1h4v8.7h.9v-9.6h-5zm-63.652 5.034c.5-.2.9-.5 1.3-.9.8-.8 1.3-2 1.3-3.2 0-1.1-.4-2.1-1.2-2.9s-1.8-1.2-2.9-1.2h-4.4v12.6h.9v-11.7h3.5c.8 0 1.7.3 2.2.9.6.6.9 1.5 1 2.3 0 .9-.4 1.9-1.1 2.5-.6.6-1.3.9-2.1.9l3.5 5.1h1.1l-3.1-4.4z"/><path d="M9.864 40.686h.6c1.9 0 2.9-1.8 2.9-3.1 0-.8-.3-1.5-.9-2.1-.5-.5-1.3-.8-2-.8h-3.2v11.4h.9v-10.5h2.3c.5 0 1 .2 1.4.6s.6.9.6 1.5c0 1-.7 2.2-2 2.2h-2.3l4.4 6.3h1.1l-3.8-5.5zm58.198-7.255h-.8l2.2 12.7h.9zm-5.674 7.6l-3.4-7.6h-1l4.4 9.6 4.4-9.6h-.9zm-7.843 5.1h.8l2.3-12.7h-.9zm7.855-2.3l-4.5-9.9-2.2 12.2h.9l1.6-9.4 4.2 9.2 4.2-9.2 1.6 9.4h.9l-2.1-12.2z"/></g><g fill="#ec2926"><path d="M46.671 5.921c.2.2.1.5-.1.7l-.2.2h1.6l-.2-.2c-.2-.2-.3-.5-.1-.7.1-.1.4 0 .7.3l.2.2v-2l-.2.2c-.3.3-.6.4-.7.3s0-.4.3-.7l.2-.2h-1.9l.2.2c.3.3.4.6.3.7s-.4 0-.7-.3l-.2-.2v2l.2-.2c.2-.3.5-.4.6-.3zm.5 4.376c.8 0 1.4-.6 1.6-1.3h-3.2c.1.7.8 1.3 1.6 1.3zm.31-3.311v1.3h1.3a2.1 2.1 0 0 0-1.3-1.3zm-.71 0c-.6.1-1.1.6-1.3 1.3h1.3v-1.3z"/><circle cx="47.126" cy="10.929" r="1"/><circle cx="47.126" cy="12.162" r="1"/><circle cx="47.126" cy="13.495" r="1"/><circle cx="47.126" cy="14.75" r="1"/><circle cx="47.126" cy="17.516" r="1"/><circle transform="matrix(-1.000039 -.000025 .000025 -1.000039 78.676232 -43.982772)" cx="23.2" cy="-62.4" r="1"/><path d="M39.007 19.071c.2-.1.3-.4.1-.7-.1-.3-.3-.5-.5-.5-.2.1-.3.4-.1.7 0 .3.3.5.5.5z"/><circle cx="49.714" cy="9.697" r="1"/><circle cx="51.324" cy="9.019" r="1"/><circle cx="53.057" cy="8.364" r="1"/><circle cx="54.867" cy="8.264" r="1"/><circle cx="56.6" cy="9.019" r="1"/><circle cx="57.733" cy="10.452" r="1"/><circle cx="58.21" cy="12.262" r="1"/><circle cx="58.11" cy="13.995" r="1"/><circle cx="57.633" cy="15.805" r="1"/><circle cx="44.56" cy="9.697" r="1"/><circle cx="42.928" cy="9.019" r="1"/><circle cx="41.217" cy="8.364" r="1"/><circle cx="39.407" cy="8.264" r="1"/><circle cx="37.674" cy="9.019" r="1"/><circle cx="36.541" cy="10.452" r="1"/><circle cx="36.141" cy="12.262" r="1"/><circle cx="36.241" cy="13.995" r="1"/><circle cx="36.719" cy="15.805" r="1"/><path d="M42.862 19.203c-.1-.1-.2-.1-.2 0-.5.7-1.2 1.1-2 1.2-.5 0-1-.2-1.4-.5l.1 1.4h15.5l.1-1.4c-.4.4-.9.5-1.4.5-.8-.1-1.6-.5-2-1.2-.1-.1-.2-.1-.2 0-.5.7-1 1.3-2.3 1.3-.8 0-1.5-.4-1.9-1.1-.4.7-1.2 1.1-1.9 1.1-1.4 0-1.9-.5-2.4-1.3zm11.723 3.921h-14.9c-.5 0-1 .4-1 1 0 .5.4 1 1 1h15c.5 0 1-.4 1-1-.1-.6-.6-1-1.1-1h0zm-15.2-.433h1.3v-1.1h-1.3l-.5.6z"/><ellipse cx="43.05" cy="22.191" rx="1.2" ry="1"/><path d="M53.49 21.591v1.1h1.4l.4-.5-.4-.6z"/><ellipse cx="51.169" cy="22.191" rx="1.2" ry="1"/><path d="M45.671 21.691h2.9v1.1h-2.9zm8.603-12.517c-1 0-1.5.3-2.5.6-.9.4-1.5.9-3.1 1.1h0v-.5l-.7-.3v5.3h-1.6v-5.3l-.7.3v.5c-1.6-.2-2.3-.7-3.2-1.1-.9-.3-1.4-.6-2.5-.6-1 0-3.1.5-3 3.8 0 1.2.4 2.4 1 3.4l1.2-.4-.2.4c-.2.6-.3 1.1-.1 1.2.3.2.6-.4.7-.6l.7 2.2c-.3-.1-.7-.4-.9-.1s.2.5.7.7c.9.3 1.8-.1 2.2-1l1.1-.1c.5.9 1.1 1.2 1.9 1.2s1.6-.7 1.5-1.4c-.1-.8-.8-.7-1.4.3v-2.5l.1.1.1.1c.4.3.8.5 1 .4s.1-.3-.1-.5c-.1-.1-.2-.3-.3-.4s-.2-.2-.3-.2h2.7l-.6.6c-.1.2-.2.4-.1.5s.6 0 1-.4l.1-.1.1-.1v2.5c-.5-.9-1.3-1-1.4-.3s.8 1.4 1.5 1.4c.8 0 1.3-.3 1.9-1.2l1.1.1c.4.8 1.3 1.2 2.2 1 .5-.2.8-.4.7-.7s-.5-.1-.9.1l.7-2.2c.1.2.3.8.7.6.2-.1.1-.5-.1-1.2l-.2-.4 1.2.4c.6-1 .9-2.2 1-3.4-.1-3.3-2.3-3.8-3.2-3.8zm-10.1 8.6c-.1-.2-.4-.4-.6-.3s-.4.3-.4.5l-1.1.1c-.1-.3-.2-.4-.4-.5-.2 0-.3 0-.5.3-.8-.6-.6-1.5-.3-1.6.1-.1.3-.1.5 0s.4.3.6.5c-.1-.2-.2-.3-.2-.5-.4-1.1-.2-1.9.5-2.5.9.8 1.1 1.3.9 2.5 0 .1-.1.3-.1.4.1-.2.2-.3.3-.4.1-.2.4-.3.6-.3s.3.1.3.3c.1.6.1 1.1-.1 1.5zm1.5-5.5c-1.1 0-2.1.2-3.1.5-1-.3-2-.3-2.9.1-.5.3-.9 1.7-1 2.2-.3-.7-.5-1.4-.5-2.1 0-.6.2-2.6 2.2-2.6 1.7 0 3.4 1.3 5.3 1.4v.5zm7.4 5.7c-.2-.3-.3-.4-.5-.3-.2 0-.3.1-.4.5l-1.1-.1c0-.3-.2-.5-.4-.5-.3 0-.5.1-.6.3-.2-.5-.2-1 0-1.4.1-.2.2-.3.3-.3.2 0 .4.1.6.3.1.1.2.3.3.4 0-.2-.1-.3-.1-.4-.2-1.2 0-1.7.9-2.5.7.6.9 1.5.5 2.5-.1.2-.1.3-.2.5.2-.2.3-.4.6-.5.1-.1.3-.1.5 0s.4.9-.4 1.5zm3-4.9c0 .7-.2 1.4-.5 2.1-.1-.5-.4-2-1-2.2-.9-.4-2-.4-2.9-.1-1-.3-2.1-.5-3.1-.5v-.5c1.8-.1 3.6-1.4 5.3-1.4 2 0 2.2 1.9 2.2 2.6z"/></g></svg>