<?xml version="1.0" encoding="utf-8"?>
<!-- Generator: Adobe Illustrator 24.2.1, SVG Export Plug-In . SVG Version: 6.00 Build 0)  -->
<svg version="1.1" id="Layer_1" xmlns="http://www.w3.org/2000/svg" xmlns:xlink="http://www.w3.org/1999/xlink" x="0px" y="0px"
	 viewBox="0 0 792.9 151.2" style="enable-background:new 0 0 792.9 151.2;" xml:space="preserve">
<style type="text/css">
	.st0{fill:#07080A;}
</style>
<g>
	<g>
		<g>
			<path class="st0" d="M105.3,128.3h-0.6c-4.1,8.1-9.6,13.9-16.5,17.5c-6.9,3.6-14.6,5.4-23.1,5.4c-9.9,0-18.7-1.8-26.6-5.4
				c-7.8-3.6-14.6-8.6-20.3-14.9c-6-6.9-10.6-15-13.7-24.3C1.5,97.3,0,87,0,75.8c0-12.5,2-23.9,6.1-34.3c4.1-10.4,10-19,17.8-25.9
				c5.6-4.9,11.9-8.8,19.1-11.5C50.1,1.4,58.3,0,67.4,0C76,0,83.8,1.2,90.7,3.5c6.9,2.3,12.9,5.6,18,9.8c5.1,4.2,9.2,9.2,12.3,14.9
				c3.1,5.8,5.3,12.1,6.6,19H96.1c-1.7-5.5-4.8-10.1-9.3-14c-4.4-3.8-10.6-5.8-18.5-5.8c-6.2,0-11.5,1.2-16,3.7
				C47.8,33.7,44,37.1,41,41.4c-3,4.3-5.3,9.4-6.8,15.3C32.8,62.7,32,69,32,75.8c0,7,0.9,13.5,2.6,19.3c1.7,5.9,4.2,10.9,7.3,15.2
				c3.1,4.3,7,7.7,11.5,10.1c4.5,2.4,9.6,3.6,15.3,3.6c4.8,0,9.2-0.8,13.1-2.4c3.9-1.6,7.2-3.7,9.8-6.3c2.7-2.6,4.7-5.6,6.2-9.1
				c1.5-3.4,2.2-7,2.2-10.6v-0.6H72.2V70.1h57.6v77.8h-21.8L105.3,128.3z"/>
			<path class="st0" d="M150.5,2.5H216c6.7,0,12.9,0.9,18.6,2.7c5.7,1.8,10.7,4.5,14.9,8.1c4.2,3.6,7.5,7.9,9.9,13.1
				c2.4,5.1,3.6,11,3.6,17.7c0,8.6-2,15.9-6.1,21.9c-4.1,6-10.6,10.5-19.4,13.5v0.6c6.9,2.2,12,5.5,15.3,9.9
				c3.3,4.4,5.4,10.5,6.4,18.3c0.6,5,1.1,9.6,1.4,14c0.3,4.4,0.6,8.3,0.9,11.7c0.3,3.5,0.7,6.3,1.2,8.4c0.5,2.1,1.3,3.5,2.4,4v1.6
				H234c-1-0.5-1.7-1.8-2.1-3.9c-0.4-2.1-0.8-4.7-1.1-7.7c-0.3-3.1-0.6-6.5-0.8-10.3c-0.2-3.8-0.6-7.7-0.9-11.7
				c-0.9-7.3-3.1-12.8-6.8-16.4c-3.6-3.6-9.3-5.5-16.9-5.5H182v55.5h-31.5V2.5z M182,67.8h28c7,0,12.4-1.7,16.1-5.2
				c3.7-3.4,5.6-8.1,5.6-14c0-6-1.7-10.8-5.1-14.4c-3.4-3.6-8.6-5.4-15.6-5.4H182V67.8z"/>
			<path class="st0" d="M338.6,150.6c-18.8,0-33-4.6-42.7-13.8c-9.7-9.2-14.5-22.4-14.5-39.6V2.5h31.5v95.5c0,7.9,2.1,14.2,6.2,18.8
				c4.1,4.6,10.6,6.8,19.5,6.8c8.3,0,14.5-2.4,18.7-7.1c4.2-4.8,6.3-11.1,6.3-19V2.5h31.7v94.7c0,17.1-4.8,30.2-14.4,39.5
				C371.2,146,357.1,150.6,338.6,150.6z"/>
			<path class="st0" d="M416.9,2.5h65.2c14.2,0,24.9,3.3,32.2,10c7.8,7.2,11.7,16.4,11.7,27.7c0,14.6-7.4,24.3-22.2,29.1v0.8
				c8.9,2.2,15.7,6.4,20.5,12.6c4.7,6.2,7.1,13.8,7.1,22.8c0,7-1.2,13.2-3.5,18.4c-2.3,5.2-5.7,9.6-10,13.3
				c-8.3,7.2-19.6,10.7-34.1,10.7h-66.8V2.5z M477.6,61c5.4,0,9.8-1.3,13.1-4c3.3-2.7,4.9-6.7,4.9-12.2c0-5.3-1.6-9.4-4.7-12.2
				c-3.1-2.8-7.4-4.2-12.9-4.2h-29.8V61H477.6z M480.4,121.7c6.2,0,11-1.8,14.6-5.3c3.3-3.3,5-7.7,5-13.3c0-6.4-1.9-11.1-5.7-14.3
				c-3.8-3.1-8.6-4.7-14.4-4.7h-31.7v37.5H480.4z"/>
			<path class="st0" d="M548.3,2.5h65.2c14.2,0,24.9,3.3,32.2,10c7.8,7.2,11.7,16.4,11.7,27.7c0,14.6-7.4,24.3-22.2,29.1v0.8
				c8.9,2.2,15.7,6.4,20.5,12.6c4.7,6.2,7.1,13.8,7.1,22.8c0,7-1.2,13.2-3.5,18.4c-2.3,5.2-5.7,9.6-10,13.3
				c-8.3,7.2-19.6,10.7-34.1,10.7h-66.8V2.5z M609.1,61c5.4,0,9.8-1.3,13.1-4c3.3-2.7,4.9-6.7,4.9-12.2c0-5.3-1.6-9.4-4.7-12.2
				c-3.1-2.8-7.4-4.2-12.9-4.2h-29.8V61H609.1z M611.8,121.7c6.2,0,11-1.8,14.6-5.3c3.3-3.3,5-7.7,5-13.3c0-6.4-1.9-11.1-5.7-14.3
				c-3.8-3.1-8.6-4.7-14.4-4.7h-31.7v37.5H611.8z"/>
			<path class="st0" d="M711.8,93.6l-47.2-91h34.6L714,33c1.6,3.4,3.2,7.1,4.8,11c1.6,4,3.1,7.7,4.4,11.2c1.5,4.2,3,8.3,4.4,12.3
				h0.4c1.5-4,3-8.1,4.6-12.3c1.4-3.5,2.9-7.3,4.5-11.2c1.7-4,3.3-7.6,4.9-11l15-30.5h33.3l-47.2,90.6v54.7h-31.5V93.6z"/>
		</g>
	</g>
	<g>
		<g>
			<g>
				<g>
					<path class="st0" d="M768.2,124.5h8.8c0.8,0,1.6,0.1,2.3,0.4c0.7,0.2,1.3,0.6,1.8,1.1c0.5,0.5,0.9,1,1.2,1.7
						c0.3,0.6,0.4,1.4,0.4,2.1c0,1.2-0.3,2.1-0.8,2.9c-0.5,0.8-1.4,1.4-2.7,1.8v0.1c0.5,0.2,1,0.4,1.3,0.6c0.4,0.3,0.6,0.6,0.9,0.9
						c0.2,0.4,0.4,0.8,0.5,1.3c0.1,0.5,0.2,1.1,0.2,1.8c0.1,0.7,0.1,1.4,0.2,1.9c0.1,0.5,0.1,0.9,0.2,1.2c0.1,0.3,0.1,0.6,0.2,0.7
						c0.1,0.2,0.2,0.3,0.3,0.3v0.1h-2.8c-0.1-0.1-0.2-0.2-0.3-0.4c-0.1-0.2-0.1-0.4-0.2-0.7c-0.1-0.3-0.1-0.7-0.1-1.2
						c0-0.5-0.1-1.1-0.1-1.9c-0.1-1.3-0.4-2.3-1-2.8c-0.6-0.5-1.5-0.8-2.7-0.8h-5v7.9h-2.6V124.5z M770.8,133.4h5.4
						c1.3,0,2.2-0.3,2.9-0.9c0.6-0.6,1-1.4,1-2.5c0-1.1-0.3-2-0.9-2.5c-0.6-0.6-1.5-0.8-2.9-0.8h-5.5V133.4z"/>
				</g>
			</g>
			<g>
				<path class="st0" d="M775.6,151.2c-9.5,0-17.3-7.7-17.3-17.3s7.7-17.3,17.3-17.3c9.5,0,17.3,7.7,17.3,17.3
					S785.1,151.2,775.6,151.2z M775.6,118.6c-8.5,0-15.4,6.9-15.4,15.4c0,8.5,6.9,15.4,15.4,15.4s15.4-6.9,15.4-15.4
					C791,125.5,784.1,118.6,775.6,118.6z"/>
			</g>
		</g>
	</g>
</g>
</svg>
