<?xml version="1.0"?>
<svg xmlns="http://www.w3.org/2000/svg" xmlns:xlink="http://www.w3.org/1999/xlink" xmlns:svgjs="http://svgjs.com/svgjs" version="1.1" width="512" height="512" x="0" y="0" viewBox="0 0 511 511.99903" style="enable-background:new 0 0 512 512" xml:space="preserve" class=""><g><path xmlns="http://www.w3.org/2000/svg" d="m512.101562 255.800781c0 141.277344-114.523437 255.800781-255.800781 255.800781-141.273437 0-255.800781-114.523437-255.800781-255.800781 0-141.273437 114.527344-255.800781 255.800781-255.800781 141.277344 0 255.800781 114.527344 255.800781 255.800781zm0 0" fill="#f1f1f1" data-original="#2864f0" style="" class=""/><path xmlns="http://www.w3.org/2000/svg" d="m325.074219 96.101562 48.109375 48.109376-11.476563 7.898437-39.890625-35.601563-11.472656 10.160157-42.144531-43.535157-16.121094 65.039063-66.40625-67.746094-15.816406 13.792969 32.921875 32.921875 24.21875 63.078125 61.898437 61.898438.503907 8.871093 22.726562 23.566407 138.082031 138.082031c38.574219-44.789063 61.898438-103.085938 61.898438-166.835938 0-1.402343-.03125-2.796875-.054688-4.195312l-173.605469-171.542969zm0 0" fill="#f1f1f1" data-original="#0053bf" style="" class=""/><path xmlns="http://www.w3.org/2000/svg" d="m200.480469 228.050781-67.4375-17.460937-31.398438-31.398438-16.355469 13.015625 62.808594 64.648438-57.574218 9.875 36.140624 39.558593-2.582031 7.539063 38.605469 37.246094-17.855469 8.796875-46.378906-46.378906-11.726563 17.359374 45.371094 45.371094-1.691406 4.722656 42.503906 40.269532-1.035156 7.5 86.039062 83.285156c.929688-.429688.929688-.429688.933594-.429688 62.496094-.609374 119.625-23.625 163.746094-61.40625zm0 0" fill="#f1f1f1" data-original="#0053bf" style="" class=""/><path xmlns="http://www.w3.org/2000/svg" d="m383.472656 359.429688-3.433594-.648438-226.867187-227.300781-21.609375 24.167969 292.902344 292.902343c8.511718-7.433593 16.527344-15.425781 23.992187-23.914062zm0 0" fill="#f1f1f1" data-original="#0053bf" style="" class=""/><path xmlns="http://www.w3.org/2000/svg" d="m260.988281 214.417969h-9.371093l-11.464844-118.695313c-.917969-9.53125 6.574218-17.78125 16.148437-17.78125s17.070313 8.25 16.148438 17.78125zm0 0" fill="#ffce00" data-original="#ffce00" style="" class=""/><path xmlns="http://www.w3.org/2000/svg" d="m289.003906 231.476562-6.628906-6.625 75.828125-92.039062c6.089844-7.390625 17.222656-7.925781 23.996094-1.15625 6.769531 6.773438 6.234375 17.90625-1.15625 23.996094zm0 0" fill="#ffaa00" data-original="#ffaa00" style="" class=""/><path xmlns="http://www.w3.org/2000/svg" d="m285.609375 190.21875-5.078125-2.511719 25.570312-67.378906c2.050782-5.410156 8.320313-7.875 13.507813-5.308594 5.191406 2.5625 7.039063 9.039063 3.988281 13.957031zm0 0" fill="#ffaa00" data-original="#ffaa00" style="" class=""/><path xmlns="http://www.w3.org/2000/svg" d="m314.105469 233.355469-1.980469-5.304688 64.78125-31.574219c5.203125-2.535156 11.457031-.035156 13.480469 5.386719 2.023437 5.421875-1.0625 11.410157-6.65625 12.902344zm0 0" fill="#ffaa00" data-original="#ffaa00" style="" class=""/><g xmlns="http://www.w3.org/2000/svg" fill="#ffce00"><path d="m223.597656 231.476562 6.628906-6.625-75.828124-92.039062c-6.089844-7.390625-17.222657-7.925781-23.992188-1.15625-6.773438 6.773438-6.234375 17.90625 1.15625 23.996094zm0 0" fill="#ffce00" data-original="#ffce00" style="" class=""/><path d="m226.996094 190.21875 5.078125-2.511719-25.570313-67.378906c-2.054687-5.410156-8.324218-7.875-13.511718-5.308594-5.1875 2.5625-7.039063 9.039063-3.988282 13.957031zm0 0" fill="#ffce00" data-original="#ffce00" style="" class=""/><path d="m198.5 233.355469 1.980469-5.304688-64.785157-31.574219c-5.203124-2.535156-11.457031-.035156-13.480468 5.386719-2.023438 5.421875 1.066406 11.410157 6.65625 12.902344zm0 0" fill="#ffce00" data-original="#ffce00" style="" class=""/><path d="m251.617188 298.183594h9.371093l11.460938 118.695312c.921875 9.535156-6.570313 17.785156-16.148438 17.785156-9.574219 0-17.070312-8.25-16.148437-17.785156zm0 0" fill="#ffce00" data-original="#ffce00" style="" class=""/></g><path xmlns="http://www.w3.org/2000/svg" d="m256.300781 77.941406c-.113281 0-.21875.015625-.332031.015625v136.460938h5.019531l11.460938-118.695313c.921875-9.53125-6.570313-17.78125-16.148438-17.78125zm0 0" fill="#ffaa00" data-original="#ffaa00" style="" class=""/><path xmlns="http://www.w3.org/2000/svg" d="m272.449219 416.878906-11.460938-118.695312h-5.019531v136.460937c.113281.003907.21875.019531.332031.019531 9.578125 0 17.070313-8.25 16.148438-17.785156zm0 0" fill="#ffaa00" data-original="#ffaa00" style="" class=""/><path xmlns="http://www.w3.org/2000/svg" d="m289.398438 260.988281v-9.371093l118.695312-11.464844c9.53125-.917969 17.785156 6.574218 17.785156 16.148437 0 9.578125-8.25 17.070313-17.785156 16.148438zm0 0" fill="#ffaa00" data-original="#ffaa00" style="" class=""/><path xmlns="http://www.w3.org/2000/svg" d="m223.207031 251.613281v9.375l-118.699219 11.460938c-9.53125.917969-17.78125-6.574219-17.78125-16.148438s8.25-17.070312 17.78125-16.148437zm0 0" fill="#ffce00" data-original="#ffce00" style="" class=""/><path xmlns="http://www.w3.org/2000/svg" d="m223.597656 281.125 6.628906 6.628906-75.828124 92.035156c-6.089844 7.390626-17.222657 7.925782-23.992188 1.15625-6.773438-6.773437-6.234375-17.90625 1.15625-23.992187zm0 0" fill="#ffce00" data-original="#ffce00" style="" class=""/><path xmlns="http://www.w3.org/2000/svg" d="m226.996094 322.386719 5.078125 2.507812-25.570313 67.378907c-2.054687 5.410156-8.324218 7.875-13.511718 5.308593-5.1875-2.5625-7.039063-9.039062-3.988282-13.957031zm0 0" fill="#ffce00" data-original="#ffce00" style="" class=""/><path xmlns="http://www.w3.org/2000/svg" d="m198.5 279.246094 1.980469 5.308594-64.785157 31.570312c-5.203124 2.535156-11.457031.035156-13.480468-5.386719-2.023438-5.421875 1.066406-11.40625 6.65625-12.898437zm0 0" fill="#ffce00" data-original="#ffce00" style="" class=""/><path xmlns="http://www.w3.org/2000/svg" d="m289.003906 281.125-6.628906 6.628906 75.828125 92.035156c6.089844 7.390626 17.222656 7.925782 23.996094 1.15625 6.769531-6.773437 6.234375-17.90625-1.15625-23.992187zm0 0" fill="#ffaa00" data-original="#ffaa00" style="" class=""/><path xmlns="http://www.w3.org/2000/svg" d="m285.609375 322.386719-5.078125 2.507812 25.570312 67.378907c2.050782 5.410156 8.320313 7.875 13.507813 5.308593 5.191406-2.5625 7.039063-9.039062 3.988281-13.957031zm0 0" fill="#ffaa00" data-original="#ffaa00" style="" class=""/><path xmlns="http://www.w3.org/2000/svg" d="m314.105469 279.246094-1.980469 5.308594 64.78125 31.570312c5.203125 2.535156 11.457031.035156 13.480469-5.386719 2.023437-5.421875-1.0625-11.40625-6.65625-12.898437zm0 0" fill="#ffaa00" data-original="#ffaa00" style="" class=""/><path xmlns="http://www.w3.org/2000/svg" d="m188.355469 87.433594c0 5.792968-4.699219 10.492187-10.492188 10.492187-5.796875 0-10.492187-4.699219-10.492187-10.492187 0-5.796875 4.695312-10.492188 10.492187-10.492188 5.792969 0 10.492188 4.695313 10.492188 10.492188zm0 0" fill="#ffce00" data-original="#ffce00" style="" class=""/><path xmlns="http://www.w3.org/2000/svg" d="m188.355469 420.097656c0 5.792969-4.699219 10.492188-10.492188 10.492188-5.796875 0-10.492187-4.699219-10.492187-10.492188 0-5.792968 4.695312-10.492187 10.492187-10.492187 5.792969 0 10.492188 4.699219 10.492188 10.492187zm0 0" fill="#ffce00" data-original="#ffce00" style="" class=""/><path xmlns="http://www.w3.org/2000/svg" d="m341.472656 87.433594c0 5.792968-4.695312 10.492187-10.492187 10.492187-5.792969 0-10.488281-4.699219-10.488281-10.492187 0-5.796875 4.695312-10.492188 10.488281-10.492188 5.796875 0 10.492187 4.695313 10.492187 10.492188zm0 0" fill="#ffaa00" data-original="#ffaa00" style="" class=""/><path xmlns="http://www.w3.org/2000/svg" d="m430.664062 184.992188c0 5.792968-4.695312 10.492187-10.488281 10.492187-5.796875 0-10.492187-4.699219-10.492187-10.492187 0-5.796876 4.695312-10.492188 10.492187-10.492188 5.792969 0 10.488281 4.695312 10.488281 10.492188zm0 0" fill="#ffaa00" data-original="#ffaa00" style="" class=""/><path xmlns="http://www.w3.org/2000/svg" d="m103.398438 184.992188c0 5.792968-4.699219 10.492187-10.492188 10.492187-5.796875 0-10.492188-4.699219-10.492188-10.492187 0-5.796876 4.695313-10.492188 10.492188-10.492188 5.792969 0 10.492188 4.695312 10.492188 10.492188zm0 0" fill="#ffce00" data-original="#ffce00" style="" class=""/><path xmlns="http://www.w3.org/2000/svg" d="m430.664062 322.386719c0 5.792969-4.695312 10.488281-10.488281 10.488281-5.796875 0-10.492187-4.695312-10.492187-10.488281 0-5.796875 4.695312-10.492188 10.492187-10.492188 5.792969 0 10.488281 4.695313 10.488281 10.492188zm0 0" fill="#ffaa00" data-original="#ffaa00" style="" class=""/><path xmlns="http://www.w3.org/2000/svg" d="m103.398438 322.386719c0 5.792969-4.699219 10.488281-10.492188 10.488281-5.796875 0-10.492188-4.695312-10.492188-10.488281 0-5.796875 4.695313-10.492188 10.492188-10.492188 5.792969 0 10.492188 4.695313 10.492188 10.492188zm0 0" fill="#ffce00" data-original="#ffce00" style="" class=""/><path xmlns="http://www.w3.org/2000/svg" d="m341.472656 420.097656c0 5.792969-4.695312 10.492188-10.492187 10.492188-5.792969 0-10.488281-4.699219-10.488281-10.492188 0-5.792968 4.695312-10.492187 10.488281-10.492187 5.796875 0 10.492187 4.699219 10.492187 10.492187zm0 0" fill="#ffaa00" data-original="#ffaa00" style="" class=""/></g></svg>
