<?xml version="1.0"?>
<svg xmlns="http://www.w3.org/2000/svg" xmlns:xlink="http://www.w3.org/1999/xlink" xmlns:svgjs="http://svgjs.com/svgjs" version="1.1" width="512" height="512" x="0" y="0" viewBox="0 0 512 512" style="enable-background:new 0 0 512 512" xml:space="preserve" class=""><g><path xmlns="http://www.w3.org/2000/svg" d="m512 256c0 141.386719-114.613281 256-256 256s-256-114.613281-256-256 114.613281-256 256-256 256 114.613281 256 256zm0 0" fill="#f1f1f1" data-original="#ffd400" style="" class=""/><path xmlns="http://www.w3.org/2000/svg" d="m512 256c0-8.859375-.449219-17.613281-1.328125-26.238281l-91.769531-91.769531-28.835938 21.691406-102.320312-102.316406-230.378906 230.378906 87.246093 87.246094-6.617187 43.910156 91.765625 91.769531c8.625.878906 17.378906 1.328125 26.238281 1.328125 141.386719 0 256-114.613281 256-256zm0 0" fill="#f1f1f1" data-original="#ffa300" style="" class=""/><path xmlns="http://www.w3.org/2000/svg" d="m311.535156 218.726562c-26 0-48 17.144532-55.304687 40.746094-6.914063-27.40625-31.722657-47.695312-61.277344-47.695312h-19.402344v19.402344c0 34.90625 28.296875 63.203124 63.199219 63.203124h2.679688v59.605469h28.5v-59.605469h1.492187c31.96875 0 57.886719-25.917968 57.886719-57.886718v-17.769532zm0 0" fill="#3fb24f" data-original="#3fb24f" style=""/><path xmlns="http://www.w3.org/2000/svg" d="m255.59375 353.988281h14.335938v-59.605469h1.492187c31.96875 0 57.886719-25.917968 57.886719-57.886718v-17.769532h-17.773438c-26.003906 0-48 17.144532-55.304687 40.746094zm0 0" fill="#139048" data-original="#139048" style=""/><path xmlns="http://www.w3.org/2000/svg" d="m454.632812 287.746094v-63.492188l-45.707031-4.917968c-3.898437-16.3125-10.332031-31.640626-18.875-45.539063l28.851563-35.804687-44.898438-44.894532-35.804687 28.851563c-13.898438-8.542969-29.222657-14.976563-45.539063-18.875l-4.914062-45.707031h-63.496094l-4.914062 45.707031c-16.3125 3.898437-31.640626 10.332031-45.539063 18.875l-35.804687-28.851563-44.898438 44.894532 28.851562 35.808593c-8.539062 13.894531-14.976562 29.222657-18.875 45.539063l-45.707031 4.914062v63.496094l45.707031 4.914062c3.898438 16.3125 10.335938 31.640626 18.875 45.539063l-28.851562 35.804687 44.898438 44.898438 35.804687-28.851562c13.898437 8.539062 29.222656 14.976562 45.539063 18.875l4.914062 45.707031h63.496094l4.914062-45.707031c16.316406-3.898438 31.640625-10.335938 45.539063-18.875l35.804687 28.851562 44.898438-44.898438-28.851563-35.804687c8.539063-13.898437 14.976563-29.222656 18.875-45.539063zm-296.621093-31.746094c0-54.117188 43.871093-97.988281 97.988281-97.988281s97.988281 43.871093 97.988281 97.988281-43.871093 97.988281-97.988281 97.988281-97.988281-43.871093-97.988281-97.988281zm0 0" fill="#636978" data-original="#636978" style="" class=""/><path xmlns="http://www.w3.org/2000/svg" d="m454.632812 287.746094v-63.492188l-45.707031-4.917968c-3.898437-16.3125-10.332031-31.640626-18.875-45.539063l28.851563-35.804687-44.898438-44.894532-35.804687 28.851563c-13.898438-8.542969-29.222657-14.976563-45.539063-18.875l-4.914062-45.707031h-32.152344v100.652343c.136719 0 .269531-.007812.40625-.007812 54.117188 0 97.984375 43.871093 97.984375 97.988281s-43.867187 97.988281-97.984375 97.988281c-.136719 0-.269531-.007812-.40625-.007812v100.652343h32.152344l4.914062-45.707031c16.316406-3.898437 31.644532-10.332031 45.539063-18.875l35.804687 28.851563 44.898438-44.898438-28.851563-35.804687c8.542969-13.894531 14.976563-29.222657 18.875-45.535157zm0 0" fill="#414952" data-original="#414952" style="" class=""/></g></svg>
