<?xml version="1.0"?>
<svg xmlns="http://www.w3.org/2000/svg" xmlns:xlink="http://www.w3.org/1999/xlink" xmlns:svgjs="http://svgjs.com/svgjs" version="1.1" width="512" height="512" x="0" y="0" viewBox="0 0 512 512" style="enable-background:new 0 0 512 512" xml:space="preserve" class=""><g><g xmlns="http://www.w3.org/2000/svg"><g><g><g><g><g><g><g><g><g><g><circle cx="256" cy="256" fill="#f1f1f1" r="256" data-original="#fdba12" style="" class=""/></g></g></g></g></g></g></g></g></g></g><path d="m512 256c0-27.607-4.37-54.194-12.456-79.105l-47.638-47.638-6.095 7.431-68.36-68.36-317.357 326.415 97.773 97.773c30.222 12.554 63.368 19.484 98.133 19.484 141.385 0 256-114.615 256-256z" fill="#f1f1f1" data-original="#ff9700" style="" class=""/><g><path d="m134.549 68.327h242.903v93.494h-242.903z" fill="#fe6a16" data-original="#fe6a16" style=""/></g><g><path d="m255.595 68.327h121.856v93.494h-121.856z" fill="#f24500" data-original="#f24500" style=""/></g><g><g fill="#fff"><path d="m149.599 85.093h13.355l5.149 19.996 5.114-19.996h13.347v32.863h-8.317v-25.062l-6.407 25.062h-7.528l-6.396-25.062v25.062h-8.316v-32.863z" fill="#ffffff" data-original="#ffffff" style=""/><path d="m213.246 112.531h-11.528l-1.603 5.425h-10.368l12.352-32.863h11.077l12.349 32.863h-10.634zm-2.106-7.106-3.627-11.814-3.59 11.814z" fill="#ffffff" data-original="#ffffff" style=""/><path d="m228.887 117.956v-32.863h16.925c3.139 0 5.537.269 7.196.807 1.658.538 2.996 1.536 4.012 2.993 1.017 1.457 1.524 3.232 1.524 5.324 0 1.823-.389 3.396-1.166 4.719-.777 1.322-1.847 2.395-3.207 3.217-.867.523-2.057.957-3.566 1.3 1.209.404 2.091.808 2.644 1.211.373.269.914.845 1.624 1.728.709.883 1.184 1.563 1.422 2.042l4.918 9.522h-11.475l-5.428-10.042c-.688-1.3-1.3-2.145-1.838-2.533-.732-.508-1.563-.762-2.488-.762h-.896v13.338h-10.201zm10.2-19.547h4.281c.463 0 1.359-.149 2.69-.448.672-.135 1.222-.478 1.647-1.031.426-.553.639-1.188.639-1.905 0-1.061-.336-1.875-1.009-2.444-.673-.567-1.936-.852-3.788-.852h-4.461v6.68z" fill="#ffffff" data-original="#ffffff" style=""/></g><path d="m264.507 85.093h10.155v12.418l10.637-12.418h13.506l-11.992 12.404 12.53 20.459h-12.505l-6.93-13.515-5.246 5.496v8.019h-10.155z" fill="#e9edf5" data-original="#e9edf5" style=""/><path d="m302.684 85.093h27.214v7.016h-17.038v5.223h15.804v6.703h-15.804v6.479h17.53v7.442h-27.707v-32.863z" fill="#e9edf5" data-original="#e9edf5" style=""/><path d="m333.551 85.093h30.868v8.115h-10.356v24.748h-10.155v-24.748h-10.356v-8.115z" fill="#e9edf5" data-original="#e9edf5" style=""/></g><g><path d="m451.906 394.743h-33.137l-45.025-8-45.025 8h-27.694l-45.43-8-44.62 8h-27.694l-45.025-9-45.025 9h-33.137v-265.486h391.812z" fill="#555a66" data-original="#555a66" style=""/></g><g><path d="m451.906 129.257h-196.311v256.486l45.43 9h27.694l45.025-10 45.025 10h33.137z" fill="#333940" data-original="#333940" style="" class=""/></g><g><g><path d="m93.231 184.238h90.05v210.505h-90.05z" fill="#a3d4ff" data-original="#a3d4ff" style="" class=""/></g><g><path d="m328.719 184.238h90.05v210.505h-90.05z" fill="#65b1fc" data-original="#65b1fc" style=""/></g></g><g><path d="m210.975 184.238h90.05v210.505h-90.05z" fill="#a3d4ff" data-original="#a3d4ff" style="" class=""/></g><g><path d="m255.595 184.238h45.43v210.505h-45.43z" fill="#65b1fc" data-original="#65b1fc" style=""/></g></g></g></svg>
