<?xml version="1.0"?>
<svg xmlns="http://www.w3.org/2000/svg" xmlns:xlink="http://www.w3.org/1999/xlink" xmlns:svgjs="http://svgjs.com/svgjs" version="1.1" width="512" height="512" x="0" y="0" viewBox="0 0 512 512" style="enable-background:new 0 0 512 512" xml:space="preserve" class=""><g><g xmlns="http://www.w3.org/2000/svg"><g><g><g><g><g><g><circle cx="256" cy="256" fill="#f1f1f1" r="256" data-original="#c38778" style="" class=""/></g></g></g></g></g></g><path d="m512 256c0-23.874-3.268-46.985-9.382-68.909l-62.684-62.684-359.992 275.186 101.327 101.327c23.641 7.205 48.733 11.08 74.731 11.08 141.385 0 256-114.615 256-256z" fill="#f1f1f1" data-original="#a65d4e" style="" class=""/><g><path d="m432.058 399.593h-243.979l-38.223-9.319-38.223 9.319h-31.691v-232.548h352.116z" fill="#ffffff" data-original="#ffffff" style=""/></g><g><path d="m256 167.045h176.058v232.549h-176.058z" fill="#e9edf5" data-original="#e9edf5" style=""/></g><g><g><path d="m102.721 203.708c16.931 0 30.656-13.725 30.656-30.656v-48.645h-61.312v48.645c0 16.931 13.725 30.656 30.656 30.656z" fill="#ff6c52" data-original="#ff6c52" style=""/></g><g><path d="m164.033 203.708c16.931 0 30.656-13.725 30.656-30.656v-48.645h-61.312v48.645c0 16.931 13.725 30.656 30.656 30.656z" fill="#ff8870" data-original="#ff8870" style=""/></g><g><path d="m225.344 203.708c16.931 0 30.656-13.725 30.656-30.656v-48.645h-61.312v48.645c0 16.931 13.725 30.656 30.656 30.656z" fill="#ff6c52" data-original="#ff6c52" style=""/></g><g><path d="m286.656 203.708c16.931 0 30.656-13.725 30.656-30.656v-48.645h-61.312v48.645c0 16.931 13.725 30.656 30.656 30.656z" fill="#ff583e" data-original="#ff583e" style=""/></g><g><path d="m347.967 203.708c16.931 0 30.656-13.725 30.656-30.656v-48.645h-61.312v48.645c0 16.931 13.726 30.656 30.656 30.656z" fill="#ff432e" data-original="#ff432e" style="" class=""/></g><g><path d="m409.279 203.708c16.931 0 30.656-13.725 30.656-30.656v-48.645h-61.311v48.645c-.001 16.931 13.724 30.656 30.655 30.656z" fill="#ff583e" data-original="#ff583e" style=""/></g></g><g><g><path d="m220.676 227.801h179.691v128.046h-179.691z" fill="#a3d4ff" data-original="#a3d4ff" style=""/></g><g><path d="m256 227.801h144.367v128.046h-144.367z" fill="#65b1fc" data-original="#65b1fc" style=""/></g><g><path d="m111.633 227.801h76.447v171.793h-76.447z" fill="#a3d4ff" data-original="#a3d4ff" style=""/></g></g><g><g><path d="m245.946 282.255 11.023 54.166h13.265l1.357-48.001-12.822-9.482z" fill="#ff432e" data-original="#ff432e" style="" class=""/></g><g><path d="m258.769 278.938-2.649.685-.12 52.036.969 4.761h13.265l1.357-48z" fill="#db0404" data-original="#db0404" style=""/></g><g><path d="m261.022 242.828 68.11 60.775 12.955-12.921 29.065 20.326c6.263 4.38 9.993 11.541 9.993 19.183v6.229h-67.431l-42.123-48.001-25.645-6.165c0 .001-9.98-24.687 15.076-39.426z" fill="#ff6c52" data-original="#ff6c52" style=""/></g><g><path d="m371.152 311.008-29.065-20.326-12.955 12.921-68.11-60.775c-1.82 1.071-3.555 2.273-5.022 3.435l.12 38.438 15.471 3.719 42.123 48.001h67.431v-6.229c0-7.643-3.73-14.804-9.993-19.184z" fill="#ff432e" data-original="#ff432e" style="" class=""/></g></g></g></g></svg>
