<?xml version="1.0" encoding="utf-8"?>
<svg version="1.1" id="Layer_1" xmlns="http://www.w3.org/2000/svg" xmlns:xlink="http://www.w3.org/1999/xlink" x="0px" y="0px"
	width="100px" height="100px" viewBox="0 0 100 100" style="enable-background:new 0 0 100 100;" xml:space="preserve">
<g>
	<path style="fill:#E8E8E8;" d="M50,0c27.61,0,50,22.39,50,50s-22.39,50-50,50S0,77.61,0,50S22.39,0,50,0"/>
	<path style="fill:#FFFFFF;" d="M50,1c27.06,0,49,21.94,49,49S77.06,99,50,99S1,77.06,1,50S22.94,1,50,1"/>
	<g>
		<g>
			<path style="fill:#A23795;" d="M35.9,59.1h1.75c0.48,0,0.85,0.13,1.11,0.39c0.22,0.22,0.33,0.51,0.33,0.87v0.01
				c0,0.31-0.08,0.56-0.23,0.76c-0.15,0.19-0.35,0.34-0.59,0.43l0.93,1.36h-0.98L37.4,61.7h-0.01h-0.65v1.22H35.9V59.1z
				 M37.59,60.96c0.21,0,0.37-0.05,0.48-0.15c0.11-0.1,0.17-0.23,0.17-0.39V60.4c0-0.18-0.06-0.32-0.17-0.41
				c-0.12-0.09-0.28-0.14-0.49-0.14h-0.83v1.1H37.59z"/>
			<path style="fill:#A23795;" d="M40.39,59.1h2.87v0.75h-2.04v0.77h1.8v0.75h-1.8v0.8h2.07v0.75h-2.9V59.1z"/>
			<path style="fill:#A23795;" d="M45.51,59.88h-1.16V59.1h3.16v0.77h-1.16v3.04h-0.84V59.88z"/>
			<path style="fill:#A23795;" d="M49.43,59.07h0.77l1.64,3.84h-0.88l-0.35-0.86H49l-0.35,0.86H47.8L49.43,59.07z M50.32,61.32
				l-0.51-1.24l-0.51,1.24H50.32z"/>
			<path style="fill:#A23795;" d="M52.81,59.1h0.84v3.82h-0.84V59.1z"/>
			<path style="fill:#A23795;" d="M55.15,59.1h0.84v3.06h1.9v0.76h-2.74V59.1z"/>
			<path style="fill:#A23795;" d="M63.09,62.98c-0.3,0-0.57-0.05-0.82-0.15s-0.46-0.23-0.63-0.41c-0.18-0.17-0.31-0.38-0.41-0.62
				c-0.1-0.24-0.15-0.5-0.15-0.79v-0.01c0-0.27,0.05-0.53,0.15-0.77c0.1-0.24,0.24-0.45,0.42-0.63c0.18-0.18,0.39-0.32,0.63-0.43
				c0.24-0.1,0.51-0.16,0.8-0.16c0.17,0,0.33,0.01,0.47,0.04c0.14,0.02,0.27,0.06,0.39,0.1c0.12,0.04,0.23,0.1,0.34,0.16
				c0.11,0.07,0.21,0.14,0.31,0.22l-0.53,0.64c-0.07-0.06-0.15-0.12-0.22-0.16c-0.07-0.05-0.15-0.09-0.23-0.12
				c-0.08-0.03-0.16-0.06-0.25-0.08c-0.09-0.02-0.19-0.03-0.3-0.03c-0.15,0-0.3,0.03-0.43,0.1s-0.25,0.15-0.35,0.26
				c-0.1,0.11-0.18,0.23-0.23,0.38c-0.06,0.14-0.08,0.3-0.08,0.46v0.01c0,0.18,0.03,0.34,0.08,0.48c0.06,0.15,0.14,0.28,0.24,0.39
				c0.1,0.11,0.23,0.19,0.37,0.25s0.3,0.09,0.47,0.09c0.31,0,0.58-0.08,0.79-0.23v-0.55h-0.85v-0.73h1.66v1.66
				c-0.2,0.17-0.43,0.31-0.7,0.43C63.75,62.92,63.44,62.98,63.09,62.98z"/>
			<path style="fill:#A23795;" d="M66.07,59.1h1.75c0.48,0,0.85,0.13,1.11,0.39c0.22,0.22,0.33,0.51,0.33,0.87v0.01
				c0,0.31-0.08,0.56-0.23,0.76s-0.35,0.34-0.59,0.43l0.93,1.36h-0.98l-0.82-1.22h-0.01h-0.65v1.22h-0.84V59.1z M67.76,60.96
				c0.21,0,0.37-0.05,0.48-0.15c0.11-0.1,0.17-0.23,0.17-0.39V60.4c0-0.18-0.06-0.32-0.17-0.41c-0.12-0.09-0.28-0.14-0.49-0.14
				h-0.83v1.1H67.76z"/>
			<path style="fill:#A23795;" d="M72.29,62.98c-0.29,0-0.57-0.05-0.81-0.16c-0.25-0.1-0.46-0.24-0.64-0.42
				c-0.18-0.18-0.32-0.38-0.42-0.62c-0.1-0.24-0.15-0.49-0.15-0.77v-0.01c0-0.27,0.05-0.53,0.15-0.77c0.1-0.24,0.24-0.45,0.42-0.63
				c0.18-0.18,0.39-0.32,0.64-0.43c0.25-0.1,0.52-0.16,0.82-0.16c0.29,0,0.57,0.05,0.81,0.16s0.46,0.24,0.64,0.42
				c0.18,0.18,0.32,0.38,0.42,0.62c0.1,0.24,0.15,0.49,0.15,0.77v0.01c0,0.27-0.05,0.53-0.15,0.77c-0.1,0.24-0.24,0.45-0.42,0.63
				c-0.18,0.18-0.39,0.32-0.64,0.43S72.58,62.98,72.29,62.98z M72.3,62.21c0.17,0,0.32-0.03,0.46-0.09
				c0.14-0.06,0.26-0.15,0.36-0.26c0.1-0.11,0.18-0.24,0.23-0.38c0.06-0.14,0.08-0.3,0.08-0.46v-0.01c0-0.16-0.03-0.32-0.08-0.46
				c-0.06-0.15-0.14-0.27-0.24-0.38c-0.1-0.11-0.23-0.2-0.37-0.26c-0.14-0.06-0.3-0.1-0.46-0.1c-0.17,0-0.33,0.03-0.47,0.09
				c-0.14,0.06-0.26,0.15-0.36,0.26c-0.1,0.11-0.18,0.24-0.23,0.38c-0.06,0.14-0.08,0.3-0.08,0.46v0.01c0,0.16,0.03,0.32,0.08,0.46
				c0.06,0.15,0.14,0.27,0.24,0.38c0.1,0.11,0.23,0.2,0.37,0.26C71.97,62.18,72.13,62.21,72.3,62.21z"/>
			<path style="fill:#A23795;" d="M77.06,62.98c-0.51,0-0.92-0.14-1.21-0.43c-0.29-0.28-0.44-0.71-0.44-1.27V59.1h0.84v2.16
				c0,0.31,0.07,0.55,0.22,0.71c0.15,0.16,0.35,0.24,0.61,0.24s0.46-0.08,0.61-0.23c0.15-0.15,0.22-0.38,0.22-0.69V59.1h0.84v2.15
				c0,0.29-0.04,0.54-0.12,0.76c-0.08,0.21-0.19,0.39-0.34,0.54c-0.15,0.14-0.32,0.25-0.53,0.32
				C77.55,62.94,77.31,62.98,77.06,62.98z"/>
			<path style="fill:#A23795;" d="M80.14,59.1h1.56c0.23,0,0.43,0.03,0.61,0.1c0.18,0.06,0.33,0.15,0.46,0.27
				c0.13,0.12,0.22,0.26,0.29,0.42c0.07,0.16,0.1,0.34,0.1,0.54v0.01c0,0.22-0.04,0.42-0.12,0.58c-0.08,0.17-0.19,0.31-0.33,0.42
				c-0.14,0.11-0.3,0.2-0.49,0.25c-0.19,0.06-0.39,0.08-0.6,0.08h-0.64v1.15h-0.84V59.1z M81.64,61.03c0.21,0,0.37-0.06,0.49-0.17
				c0.12-0.11,0.17-0.25,0.17-0.41v-0.01c0-0.19-0.06-0.33-0.18-0.43c-0.12-0.1-0.29-0.15-0.5-0.15h-0.65v1.17H81.64z"/>
			<path style="fill:#A23795;" d="M38.4,53.8c0,0.07,0.05,0.12,0.12,0.12h1.95c0.07,0,0.12-0.06,0.12-0.12V40.98
				c0-0.07-0.05-0.12-0.12-0.12h-1.95c-0.07,0-0.12,0.05-0.12,0.12v7.32c0,0.57-0.1,1.09-0.28,1.56c-0.19,0.47-0.45,0.88-0.77,1.21
				c-0.32,0.33-0.71,0.6-1.15,0.77c-0.45,0.18-0.94,0.27-1.46,0.27c-1.08,0-1.92-0.33-2.49-0.98c-0.58-0.65-0.87-1.56-0.87-2.7
				v-7.47c0-0.07-0.06-0.12-0.12-0.12h-1.98c-0.07,0-0.12,0.05-0.12,0.12v7.95c0,0.77,0.12,1.49,0.34,2.12
				c0.23,0.64,0.56,1.2,0.99,1.67c0.43,0.47,0.97,0.83,1.58,1.09c0.62,0.25,1.33,0.38,2.12,0.38c1.13,0,2.06-0.25,2.78-0.76
				c0.55-0.39,1.03-0.85,1.42-1.37V53.8z"/>
			<path style="fill:#A23795;" d="M87.04,51.74c0.04-0.05,0.03-0.13-0.02-0.18l0,0l-1.2-1.08l-0.01,0
				c-0.05-0.05-0.12-0.06-0.17-0.02L85.6,50.5c-0.51,0.53-1.08,0.96-1.7,1.28c-0.61,0.32-1.35,0.47-2.21,0.47
				c-0.54,0-1.06-0.09-1.55-0.27c-0.49-0.18-0.94-0.45-1.33-0.8c-0.39-0.35-0.72-0.78-0.97-1.28c-0.21-0.43-0.36-0.92-0.44-1.45
				c-0.01-0.06,0.06-0.12,0.13-0.12h9.84c0.05,0,0.09-0.05,0.1-0.11l0-0.04c0.02-0.16,0.03-0.29,0.03-0.4V47.5
				c0-0.95-0.14-1.85-0.4-2.69c-0.27-0.84-0.67-1.58-1.19-2.2c-0.52-0.62-1.17-1.12-1.93-1.48c-0.76-0.36-1.63-0.55-2.58-0.55
				c-0.91,0-1.75,0.18-2.52,0.53c-0.76,0.35-1.43,0.84-1.99,1.46c-0.55,0.61-0.99,1.34-1.3,2.17c-0.31,0.83-0.47,1.72-0.47,2.66
				c0,1,0.17,1.94,0.52,2.77c0.34,0.84,0.81,1.56,1.4,2.16c0.59,0.6,1.29,1.06,2.07,1.39c0.79,0.33,1.64,0.49,2.53,0.49
				c1.24,0,2.29-0.23,3.13-0.67c0.83-0.44,1.59-1.04,2.24-1.77L87.04,51.74L87.04,51.74z M77.81,44.99c0.23-0.5,0.52-0.95,0.87-1.32
				c0.34-0.37,0.75-0.66,1.2-0.86c0.45-0.2,0.95-0.3,1.46-0.3c0.6,0,1.13,0.11,1.6,0.33c0.46,0.22,0.86,0.52,1.18,0.89
				c0.32,0.38,0.58,0.82,0.77,1.31c0.16,0.41,0.26,0.84,0.32,1.28l0,0c0.01,0.07-0.05,0.13-0.13,0.13h-7.56
				c-0.06,0-0.13-0.06-0.12-0.12C77.49,45.86,77.62,45.41,77.81,44.99z"/>
			<path style="fill:#A23795;" d="M51.49,42.89v-2.12c0-0.07-0.06-0.12-0.12-0.12l-0.03,0c-0.62-0.01-1.21,0.06-1.75,0.23
				c-0.54,0.17-1.04,0.42-1.5,0.75c-0.45,0.33-0.86,0.72-1.22,1.18c-0.21,0.27-0.4,0.56-0.58,0.87v-2.68c0-0.08-0.06-0.12-0.12-0.12
				h-1.98c-0.07,0-0.12,0.06-0.12,0.12V53.8c0,0.07,0.06,0.12,0.12,0.12l1.98,0c0.07,0,0.12-0.05,0.12-0.12v-5.12
				c0-0.93,0.13-1.76,0.38-2.47c0.25-0.71,0.61-1.31,1.05-1.78c0.44-0.47,0.97-0.83,1.56-1.07c0.59-0.24,1.23-0.36,1.9-0.36h0.19
				C51.44,43.01,51.49,42.95,51.49,42.89z"/>
			<path style="fill:#A23795;" d="M62.16,53.8c0,0.06,0.05,0.12,0.12,0.12l1.95,0c0.07,0,0.12-0.05,0.12-0.12v-7.83
				c0-1.65-0.46-2.95-1.38-3.86c-0.96-0.96-2.39-1.45-4.23-1.45c-0.95,0-1.8,0.1-2.53,0.31c-0.71,0.2-1.43,0.46-2.13,0.79
				l-0.08,0.04c-0.05,0.03-0.06,0.11-0.02,0.16l1.12,1.43c0.03,0.04,0.08,0.05,0.13,0.04l0.04-0.02c0.42-0.17,0.85-0.32,1.26-0.43
				c0.6-0.16,1.28-0.24,2.02-0.24c1.15,0,2.05,0.28,2.68,0.83c0.62,0.54,0.93,1.37,0.93,2.44v0.18c-0.51-0.14-1.04-0.25-1.58-0.34
				c-0.61-0.1-1.33-0.15-2.16-0.15c-0.82,0-1.57,0.09-2.25,0.28c-0.68,0.19-1.28,0.46-1.78,0.81c-0.5,0.36-0.9,0.81-1.17,1.35
				c-0.27,0.54-0.41,1.17-0.41,1.88v0.05c0,0.68,0.14,1.29,0.43,1.8c0.28,0.51,0.66,0.95,1.12,1.29c0.46,0.35,0.99,0.61,1.58,0.78
				c0.59,0.17,1.19,0.25,1.79,0.25c1.14,0,2.11-0.23,2.88-0.67c0.61-0.36,1.13-0.76,1.55-1.22V53.8z M61.87,50.38
				c-0.21,0.39-0.5,0.74-0.87,1.03c-0.37,0.29-0.8,0.52-1.29,0.67c-0.49,0.16-1.02,0.24-1.6,0.24c-0.41,0-0.8-0.06-1.17-0.17
				c-0.37-0.11-0.69-0.27-0.97-0.47c-0.27-0.2-0.49-0.45-0.65-0.74c-0.16-0.29-0.24-0.63-0.24-0.99v-0.05c0-0.72,0.3-1.28,0.9-1.72
				c0.62-0.44,1.51-0.67,2.65-0.67c0.77,0,1.46,0.06,2.06,0.17c0.55,0.1,1.05,0.22,1.49,0.33v1.05
				C62.18,49.55,62.08,49.99,61.87,50.38z"/>
			<path style="fill:#A23795;" d="M74.28,53.37L74.28,53.37l-1-1.28c-0.06-0.07-0.14-0.11-0.23-0.09l0,0
				c-0.25,0.05-0.5,0.07-0.76,0.07c-0.6,0-1.09-0.15-1.45-0.43c-0.35-0.28-0.53-0.79-0.53-1.52v-7.26l3.38,0
				c0.07,0,0.12-0.05,0.12-0.12v-1.76c0-0.06-0.05-0.1-0.1-0.11H70.3v-3.72c0-0.07-0.05-0.12-0.12-0.12H68.2
				c-0.06,0-0.12,0.05-0.12,0.12v3.72h-2.01c-0.07,0-0.12,0.06-0.12,0.12v1.76c0,0.06,0.05,0.12,0.12,0.12l2.01,0v7.53
				c0,0.66,0.1,1.23,0.28,1.71c0.19,0.48,0.46,0.88,0.79,1.18c0.34,0.3,0.74,0.53,1.21,0.66c0.46,0.14,0.95,0.2,1.47,0.2
				c0.47,0,0.9-0.05,1.28-0.14c0.38-0.09,0.74-0.23,1.08-0.42l0.07-0.04C74.32,53.52,74.33,53.43,74.28,53.37z"/>
			<path style="fill:#A23795;" d="M31.6,62.79v-1.97c0-0.07-0.06-0.13-0.13-0.13v0c-3.84-0.06-5.79-2.73-5.79-7.94v-1.18h0v-10.6
				c0-0.06-0.05-0.12-0.12-0.12h-1.98c-0.07,0-0.12,0.05-0.12,0.12v1.99c-0.18-0.23-0.37-0.45-0.57-0.66
				c-0.33-0.34-0.7-0.63-1.1-0.89c-0.4-0.25-0.86-0.46-1.37-0.61c-0.51-0.15-1.07-0.23-1.67-0.23c-0.79,0-1.56,0.16-2.3,0.47
				c-0.74,0.31-1.41,0.76-2,1.34c-0.59,0.58-1.06,1.3-1.42,2.13c-0.35,0.84-0.53,1.8-0.53,2.85v0.05c0,1.07,0.18,2.03,0.53,2.86
				c0.35,0.83,0.83,1.54,1.42,2.12c0.59,0.58,1.26,1.03,2,1.33c0.74,0.3,1.51,0.46,2.3,0.46c0.6,0,1.16-0.08,1.66-0.23
				c0.5-0.15,0.95-0.37,1.36-0.64c0.4-0.27,0.77-0.58,1.1-0.94c0.21-0.23,0.41-0.46,0.59-0.7v1.07c0,3.84,0.99,6.65,2.93,8.36
				c1.32,1.16,3.08,1.77,5.1,1.8C31.55,62.92,31.6,62.86,31.6,62.79z M23.54,47.4c0,0.71-0.12,1.37-0.37,1.95
				c-0.25,0.58-0.58,1.08-1,1.5c-0.42,0.42-0.9,0.75-1.43,0.98c-1.07,0.46-2.29,0.45-3.31,0.01c-0.52-0.22-0.98-0.54-1.38-0.95
				c-0.39-0.41-0.71-0.91-0.94-1.5c-0.23-0.59-0.35-1.25-0.35-1.99v-0.05c0-0.75,0.12-1.42,0.35-2.01c0.23-0.59,0.54-1.09,0.93-1.49
				c0.39-0.4,0.84-0.71,1.36-0.92c0.52-0.21,1.09-0.32,1.69-0.32c0.57,0,1.12,0.12,1.65,0.34c0.53,0.23,1.01,0.55,1.43,0.97
				c0.42,0.41,0.75,0.91,1,1.49c0.24,0.58,0.37,1.23,0.37,1.95V47.4z"/>
		</g>
		<g>
			<path style="fill:#A23795;" d="M85.04,60.42c-0.1,0-0.2-0.02-0.29-0.05c-0.09-0.03-0.18-0.09-0.26-0.16l0.14-0.16
				c0.06,0.05,0.13,0.1,0.19,0.13c0.06,0.03,0.14,0.04,0.22,0.04c0.07,0,0.13-0.01,0.17-0.04c0.04-0.03,0.06-0.07,0.06-0.12v0
				c0-0.02,0-0.04-0.01-0.06c-0.01-0.02-0.02-0.04-0.04-0.05c-0.02-0.02-0.05-0.03-0.09-0.04c-0.04-0.01-0.09-0.03-0.15-0.04
				c-0.07-0.02-0.13-0.03-0.19-0.06c-0.05-0.02-0.1-0.05-0.14-0.07c-0.04-0.03-0.06-0.06-0.08-0.11c-0.02-0.04-0.03-0.09-0.03-0.15
				v0c0-0.06,0.01-0.11,0.03-0.15c0.02-0.05,0.05-0.09,0.09-0.12c0.04-0.03,0.09-0.06,0.14-0.08c0.05-0.02,0.11-0.03,0.18-0.03
				c0.1,0,0.18,0.01,0.26,0.04c0.08,0.03,0.15,0.07,0.22,0.12l-0.12,0.17c-0.06-0.04-0.12-0.08-0.18-0.1
				c-0.06-0.02-0.12-0.03-0.18-0.03c-0.07,0-0.12,0.01-0.16,0.04c-0.04,0.03-0.06,0.07-0.06,0.11v0c0,0.02,0,0.05,0.01,0.07
				c0.01,0.02,0.02,0.04,0.05,0.05c0.02,0.02,0.05,0.03,0.1,0.04c0.04,0.01,0.09,0.03,0.15,0.04c0.07,0.02,0.13,0.04,0.18,0.06
				c0.05,0.02,0.1,0.05,0.13,0.08c0.03,0.03,0.06,0.07,0.08,0.11c0.02,0.04,0.03,0.09,0.03,0.14v0c0,0.06-0.01,0.12-0.03,0.16
				c-0.02,0.05-0.05,0.09-0.1,0.12c-0.04,0.03-0.09,0.06-0.15,0.08C85.18,60.41,85.11,60.42,85.04,60.42z"/>
			<path style="fill:#A23795;" d="M85.78,59.09h0.24l0.4,0.62l0.4-0.62h0.24v1.31h-0.23v-0.94l-0.41,0.62h-0.01l-0.41-0.61v0.93
				h-0.23V59.09z"/>
		</g>
	</g>
</g>
</svg>
