<?xml version="1.0" encoding="utf-8"?>
<svg version="1.1" id="Layer_1" xmlns="http://www.w3.org/2000/svg" xmlns:xlink="http://www.w3.org/1999/xlink" x="0px" y="0px"
	 viewBox="0 0 2497.8 969.8" style="enable-background:new 0 0 2497.8 969.8;" xml:space="preserve">
<g>
	<path style="fill:#012E6F;" d="M478.2,692.3h62.8v-61.9c-30.9-3.7-62.8,5.2-62.8,39.6L478.2,692.3L478.2,692.3z M398.9,711.2
		c-66.5,1.5-100.2,23.2-100.2,90.3v164.6h62.8V801.6c0-31.5,11.8-36.2,36.2-37.1c15.5-1,20.9,2.1,34.8-5.6c13-6.8,18-22.6,17.6-45.4
		C433.2,712.4,419.6,710.9,398.9,711.2 M65,818.2h90.3c35,0,44.9,13.3,44.9,46.4c0,33.5-10.8,48-44.9,48H65V818.2z M265.1,867.1
		c0-54.7-23.8-73.7-55.1-80.4c26.3-11.4,45.8-27.3,45.8-74.8c0-66.5-31.5-90.3-96.5-90.3H0v344.6h166.1
		C228.6,966.1,265.1,941.4,265.1,867.1 M65,766v-90.7h81c36.2,0,45.4,13,45.4,44.9c0,32.5-10.2,45.8-45.4,45.8L65,766L65,766z
		 M807,692.3h62.8v-61.9c-30.9-3.7-62.8,5.2-62.8,39.6V692.3z M806.6,714.5H870v251.8h-63.4V714.5z M1310.9,711.2
		c-33.5,0-75.8,17-102.1,28.4V614c-30.9-3.7-63,5.2-63,39.6v312.5h63V790.7c28.4-10.8,60.9-21.7,82.6-21.7
		c18.6,0,29.4,11.4,29.4,28.4v168.6h63V795.4C1383.8,740.8,1364.1,711.2,1310.9,711.2 M478.2,714.5h63v251.8h-63L478.2,714.5z
		 M683.4,764.4h44.9c33.1,0,45.4-14.9,42.3-50.1h-87.2v-83.9c-30.9-3.7-62.8,5.2-62.8,39.6v44.3h-47v50.1h47v114.1
		c0,62.8,25.7,90.3,91.3,90.3c20.1,0,37.1-1.5,53.2-3.7l-1.5-50.1c-11.8,1-29.4,2.1-43.9,2.1c-24.2,0-36.2-8.3-36.2-35V764.4
		L683.4,764.4z M966.9,784.2c0-16.1,12.4-21.7,27.8-21.7c26.3,0,50.5,1,66.1,1.5c28.4,1,42.3-14.5,40.8-47.4
		c-19.1-2.1-62.8-5.2-99-5.2c-56.3,0-97.5,21.1-97.5,73.3c0,54.1,30.4,68.6,86.2,77.9c50.5,8.3,60.9,11.8,60.9,29.4
		c0,21.3-23.8,24.4-46.4,24.4c-33.5,0-69-2.1-91.3-4.1l-3.1,52.6c23.8,2.1,58.8,4.1,97.1,4.1c65,0,105.8-20.1,105.8-74.3
		c0-52-27.3-67.5-82-77.9C981.4,807.7,966.9,804.3,966.9,784.2 M1806.4,767.1h-130c-3.1,37.7,9.3,53.8,42.3,53.8h22.6v86.1
		c-18,2.5-58.8,5.6-76.8,5.6c-51.6,0-71.7-20.1-71.7-121.6c0-98.6,14.9-121.8,96.5-115.6l55.7,4.1c37.1,2.1,51.1-18,50.5-49.5
		c-25.3-4.1-92.4-11.4-120.3-11.4c-118.7,0-150.1,34-150.1,173.8c0,136.1,38.1,176.4,137.3,176.4c37.1,0,107.3-7.7,143.9-15.5
		L1806.4,767.1L1806.4,767.1z M2165.5,784.2c0-16.1,12.4-21.7,27.8-21.7c26.3,0,50.5,1,65.9,1.5c28.4,1,42.3-14.5,40.8-47.4
		c-19.1-2.1-62.8-5.2-99-5.2c-56.3,0-97.5,21.1-97.5,73.3c0,54.1,30.4,68.6,86.2,77.9c50.5,8.3,60.9,11.8,60.9,29.4
		c0,21.3-23.8,24.4-46.4,24.4c-33.5,0-69-2.1-91.3-4.1L2110,965c23.8,2.1,58.8,4.1,97.1,4.1c65,0,105.8-20.1,105.8-74.3
		c0-52-27.3-67.5-82-77.9C2180,807.7,2165.5,804.3,2165.5,784.2 M2005.7,919.5c-16.1,2.1-48.3,3.1-75.2,3.1
		c-25.1,0-29.4-16.4-29.4-31.3c0-23.2,10.8-29.4,36.5-34c21.7-4.1,43.3-6.8,68.1-8.3V919.5z M2068.6,792.9c0-52-21.1-79.9-85.5-79.9
		c-40.2,0-92.6,4.6-116.4,7.2c-0.6,31.3,8.3,47.4,35.6,47.4c18.6,0,54.5-2.1,75.6-2.1c18.6,0,27.8,6.8,27.8,28.2v9.3
		c-28.2,1.5-54.1,4.6-77.7,8.3c-55.5,8.3-88,24.2-88,79.3c0,49.5,24.8,79.3,77.7,79.3c55.7,0,117.4-4.1,150.8-8.1V792.9z"/>
	<g>
		
			<linearGradient id="SVGID_1_" gradientUnits="userSpaceOnUse" x1="3131.9983" y1="327.5036" x2="2914.5615" y2="793.8094" gradientTransform="matrix(0.7215 0 0 -0.7215 83.2713 658.3991)">
			<stop  offset="0" style="stop-color:#2BACE2"/>
			<stop  offset="0.8" style="stop-color:#0D50A0"/>
			<stop  offset="1" style="stop-color:#2F358F"/>
		</linearGradient>
		<path style="fill:url(#SVGID_1_);" d="M2115.4,124.4c0,0-84.8,28.3-130,67.8c-29.4,23.7-48.6,56.5-57.7,92.7
			c31.7-17,65.6-28.3,65.6-28.3l305.2-99.5c0,0,12.4,232.9-124.4,334.6c39.6-7.9,85.9-24.9,137.9-54.3
			C2514.5,323.3,2497.5,0,2497.5,0S2115.4,124.4,2115.4,124.4z"/>
		
			<linearGradient id="SVGID_2_" gradientUnits="userSpaceOnUse" x1="16082.2588" y1="6129.0518" x2="18621.0273" y2="10526.3486" gradientTransform="matrix(0.1179 0 0 0.1179 -48.3219 -530.3671)">
			<stop  offset="0" style="stop-color:#D6E042"/>
			<stop  offset="1" style="stop-color:#048040"/>
		</linearGradient>
		<path style="fill:url(#SVGID_2_);" d="M1889.3,310.9c-30.5,24.9-48.6,63.3-48.6,104c0,76.9,69,139.1,152.6,139.1
			c40.7,1.1,92.7-11.3,158.3-47.5c7.9-4.5,15.8-9,23.7-15.8c-21.5,4.5-40.7,5.7-58.8,5.7c-105.1,0-191.1-78-191.1-174.1
			c0-12.4,1.1-24.9,4.5-37.3C1913,292.8,1899.5,300.7,1889.3,310.9C1889.3,310.9,1889.3,310.9,1889.3,310.9z"/>
	</g>
</g>
</svg>
