<?xml version="1.0"?>
<svg xmlns="http://www.w3.org/2000/svg" xmlns:xlink="http://www.w3.org/1999/xlink" xmlns:svgjs="http://svgjs.com/svgjs" version="1.1" width="512" height="512" x="0" y="0" viewBox="0 0 512 512" style="enable-background:new 0 0 512 512" xml:space="preserve" class=""><g><circle xmlns="http://www.w3.org/2000/svg" cx="256" cy="256" fill="#f1f1f1" r="256" data-original="#fe6a16" style="" class=""/><path xmlns="http://www.w3.org/2000/svg" d="m512 256c0-7.733-.343-15.385-1.014-22.944l-148.35-148.35-2.79 1.482-12.832-12.832-3.566 19.336-14.878-14.878-4.198 1.677-17.286-17.287-5.073 27.24-18.601-18.601-5.274 2.222-22.138-22.136-13.075 43.414-16.527-16.528-3.289 2.586-18.196-18.196-11.256 35.55-13.049-13.05-2.768 1.504-4.024-4.024-17.328 17.328-1.156 3.557 35.741 34.215-43.073 6.382 101.02 101.02-159.77 184.836 58.558 58.558c32.864 15.347 69.527 23.919 108.192 23.919 141.385 0 256-114.615 256-256z" fill="#f1f1f1" data-original="#e53f05" style="" class=""/><path xmlns="http://www.w3.org/2000/svg" d="m89.25 171h333.5v258.523h-333.5z" fill="#e6e6e6" data-original="#e6e6e6" style="" class=""/><path xmlns="http://www.w3.org/2000/svg" d="m256 171h166.75v258.523h-166.75z" fill="#cdcdcd" data-original="#cdcdcd" style="" class=""/><path xmlns="http://www.w3.org/2000/svg" d="m157.5 115h197v314.523h-197z" fill="#ffffff" data-original="#ffffff" style="" class=""/><path xmlns="http://www.w3.org/2000/svg" d="m256 115h98.5v314.523h-98.5z" fill="#e9edf5" data-original="#e9edf5" style="" class=""/><path xmlns="http://www.w3.org/2000/svg" d="m256 50.929 8.471 17.164 18.942 2.752-13.707 13.361 3.236 18.865-16.942-8.907-16.942 8.907 3.236-18.865-13.707-13.36 18.942-2.753z" fill="#ffce00" data-original="#ffce00" style=""/><path xmlns="http://www.w3.org/2000/svg" d="m283.413 70.845-18.942-2.752-8.471-17.164v43.235l16.942 8.907-3.236-18.865z" fill="#fdba12" data-original="#fdba12" style=""/><path xmlns="http://www.w3.org/2000/svg" d="m204.913 62.206 6.639 13.452 14.846 2.157-10.743 10.471 2.536 14.786-13.278-6.981-13.278 6.98 2.536-14.785-10.742-10.471 14.845-2.157z" fill="#ffce00" data-original="#ffce00" style=""/><path xmlns="http://www.w3.org/2000/svg" d="m164.986 73.357 4.827 9.781 10.794 1.568-7.811 7.614 1.844 10.75-9.655-5.075-9.654 5.075 1.844-10.75-7.811-7.614 10.794-1.568z" fill="#ffce00" data-original="#ffce00" style=""/><path xmlns="http://www.w3.org/2000/svg" d="m307.087 62.206-6.639 13.452-14.846 2.157 10.743 10.471-2.536 14.786 13.278-6.981 13.278 6.98-2.536-14.785 10.742-10.471-14.845-2.157z" fill="#fdba12" data-original="#fdba12" style=""/><path xmlns="http://www.w3.org/2000/svg" d="m347.014 73.357-4.827 9.781-10.794 1.568 7.811 7.614-1.844 10.75 9.655-5.075 9.654 5.075-1.844-10.75 7.811-7.614-10.794-1.568z" fill="#fdba12" data-original="#fdba12" style=""/><path xmlns="http://www.w3.org/2000/svg" d="m148 111.667h216v32h-216z" fill="#e6e6e6" data-original="#e6e6e6" style="" class=""/><path xmlns="http://www.w3.org/2000/svg" d="m256 111.667h108v32h-108z" fill="#cdcdcd" data-original="#cdcdcd" style="" class=""/><path xmlns="http://www.w3.org/2000/svg" d="m184.413 164.447h55.604v45.917h-55.604z" fill="#96ebe6" data-original="#96ebe6" style=""/><path xmlns="http://www.w3.org/2000/svg" d="m271.984 164.447h55.604v45.917h-55.604z" fill="#00c8c8" data-original="#00c8c8" style="" class=""/><path xmlns="http://www.w3.org/2000/svg" d="m184.413 227.847h55.604v45.917h-55.604z" fill="#96ebe6" data-original="#96ebe6" style=""/><path xmlns="http://www.w3.org/2000/svg" d="m271.984 227.847h55.604v45.917h-55.604z" fill="#00c8c8" data-original="#00c8c8" style="" class=""/><path xmlns="http://www.w3.org/2000/svg" d="m184.413 291.247h55.604v45.917h-55.604z" fill="#96ebe6" data-original="#96ebe6" style=""/><path xmlns="http://www.w3.org/2000/svg" d="m271.984 291.247h55.604v45.917h-55.604z" fill="#00c8c8" data-original="#00c8c8" style="" class=""/><path xmlns="http://www.w3.org/2000/svg" d="m204.913 358.333h102.173v71.19h-102.173z" fill="#e6e6e6" data-original="#e6e6e6" style="" class=""/><g xmlns="http://www.w3.org/2000/svg" fill="#cdcdcd"><path d="m256 358.333h51.087v71.19h-51.087z" fill="#cdcdcd" data-original="#cdcdcd" style="" class=""/><path d="m107 190.004h34.667v60.333h-34.667z" fill="#cdcdcd" data-original="#cdcdcd" style="" class=""/><path d="m107 270.095h34.667v60.333h-34.667z" fill="#cdcdcd" data-original="#cdcdcd" style="" class=""/></g><path xmlns="http://www.w3.org/2000/svg" d="m370 190.004h34.667v60.333h-34.667z" fill="#aaaaaa" data-original="#aaaaaa" style="" class=""/><path xmlns="http://www.w3.org/2000/svg" d="m370 270.095h34.667v60.333h-34.667z" fill="#aaaaaa" data-original="#aaaaaa" style="" class=""/></g></svg>
