<?xml version="1.0"?>
<svg xmlns="http://www.w3.org/2000/svg" xmlns:xlink="http://www.w3.org/1999/xlink" xmlns:svgjs="http://svgjs.com/svgjs" version="1.1" width="512" height="512" x="0" y="0" viewBox="0 0 512 512" style="enable-background:new 0 0 512 512" xml:space="preserve" class=""><g><path xmlns="http://www.w3.org/2000/svg" d="m512 256c0 6.51-.24 12.95-.72 19.34-1.82 24.32-7.03 47.7-15.19 69.66-2.85 7.71-6.06 15.24-9.63 22.57-41.45 85.49-129.07 144.43-230.46 144.43-5.71 0-11.38-.19-17-.56-12.95-.85-25.64-2.66-38-5.37-114.95-25.16-201-127.57-201-250.07 0-141.38 114.62-256 256-256 127.24 0 232.82 92.85 252.66 214.5 1.85 11.4 2.96 23.05 3.26 34.9.05 2.2.08 4.39.08 6.6z" fill="#f1f1f1" data-original="#eb4755" style="" class=""/><path xmlns="http://www.w3.org/2000/svg" d="m512 256c0 6.51-.24 12.95-.72 19.34-1.82 24.32-7.03 47.7-15.19 69.66-2.85 7.71-6.06 15.24-9.63 22.57-41.45 85.49-129.07 144.43-230.46 144.43-5.71 0-11.38-.19-17-.56-12.95-.85-25.64-2.66-38-5.37l-115-114.57 285-315 137.66 138c1.85 11.4 2.96 23.05 3.26 34.9.05 2.2.08 4.39.08 6.6z" fill="#f1f1f1" data-original="#d23542" style="" class=""/><path xmlns="http://www.w3.org/2000/svg" d="m86 161.5v230h105v-6.832h130v6.832h105v-230z" fill="#a4efd1" data-original="#a4efd1" style="" class=""/><path xmlns="http://www.w3.org/2000/svg" d="m256 161.5v223.168h65v6.832h105v-230z" fill="#97dbbe" data-original="#97dbbe" style="" class=""/><path xmlns="http://www.w3.org/2000/svg" d="m141 76.5v315h50v-6.832h130v6.832h50v-315z" fill="#ffffff" data-original="#ffffff" style=""/><path xmlns="http://www.w3.org/2000/svg" d="m256 76.5v308.168h65v6.832h50v-315z" fill="#e7e7f1" data-original="#e7e7f1" style=""/><path xmlns="http://www.w3.org/2000/svg" d="m233.5 157.439h45v35h-45z" fill="#64e1dc" data-original="#64e1dc" style=""/><path xmlns="http://www.w3.org/2000/svg" d="m256 157.439h22.5v35h-22.5z" fill="#00c8c8" data-original="#00c8c8" style=""/><path xmlns="http://www.w3.org/2000/svg" d="m298.5 157.439h45v35h-45z" fill="#00c8c8" data-original="#00c8c8" style=""/><path xmlns="http://www.w3.org/2000/svg" d="m166.5 157.439h45v35h-45z" fill="#64e1dc" data-original="#64e1dc" style=""/><path xmlns="http://www.w3.org/2000/svg" d="m233.5 222.972h45v35h-45z" fill="#64e1dc" data-original="#64e1dc" style=""/><path xmlns="http://www.w3.org/2000/svg" d="m256 222.972h22.5v35h-22.5z" fill="#00c8c8" data-original="#00c8c8" style=""/><path xmlns="http://www.w3.org/2000/svg" d="m298.5 222.972h45v35h-45z" fill="#00c8c8" data-original="#00c8c8" style=""/><path xmlns="http://www.w3.org/2000/svg" d="m166.5 222.972h45v35h-45z" fill="#64e1dc" data-original="#64e1dc" style=""/><path xmlns="http://www.w3.org/2000/svg" d="m256 83.193 7.725 15.654 17.275 2.51-12.5 12.184 2.951 17.205-15.451-8.123-15.451 8.123 2.951-17.205-12.5-12.184 17.275-2.51z" fill="#f9da55" data-original="#f9da55" style=""/><path xmlns="http://www.w3.org/2000/svg" d="m313.5 108.704 4.635 9.392 10.365 1.506-7.5 7.311 1.77 10.322-9.27-4.873-9.271 4.873 1.771-10.322-7.5-7.311 10.365-1.506z" fill="#f4c042" data-original="#f4c042" style=""/><path xmlns="http://www.w3.org/2000/svg" d="m198.5 108.704 4.635 9.392 10.365 1.506-7.5 7.311 1.771 10.322-9.271-4.873-9.271 4.873 1.771-10.322-7.5-7.311 10.365-1.506z" fill="#f9da55" data-original="#f9da55" style=""/><path xmlns="http://www.w3.org/2000/svg" d="m281 101.357-17.275-2.51-7.725-15.654v39.43l15.451 8.123-2.951-17.205z" fill="#f4c042" data-original="#f4c042" style=""/><path xmlns="http://www.w3.org/2000/svg" d="m206 296.465h100v95.035h-100z" fill="#f77f43" data-original="#f77f43" style=""/><path xmlns="http://www.w3.org/2000/svg" d="m256 296.465h50v95.035h-50z" fill="#e86e35" data-original="#e86e35" style=""/><path xmlns="http://www.w3.org/2000/svg" d="m221 391.5v-80.035h70v80.035h30v-80.035-30h-30-70-30v30 80.035z" fill="#8d5c4d" data-original="#8d5c4d" style=""/><path xmlns="http://www.w3.org/2000/svg" d="m291 281.465h-35v30h35v80.035h30v-80.035-30z" fill="#805142" data-original="#805142" style=""/></g></svg>
