<?xml version="1.0" encoding="utf-8"?>
<svg version="1.1" id="Layer_1" xmlns="http://www.w3.org/2000/svg" xmlns:xlink="http://www.w3.org/1999/xlink" x="0px" y="0px"
	width="100px" height="100px" viewBox="0 0 66.7 66.7" style="enable-background:new 0 0 66.7 66.7;" xml:space="preserve">
<g>
	<circle style="fill:#E8E8E8;" cx="33.3" cy="33.3" r="33.3"/>
	<circle style="fill:#FFFFFF;" cx="33.3" cy="33.3" r="32.7"/>
	<path style="fill:#134294;" d="M11.5,31.6c-0.1-0.1-0.5-0.2-0.9-0.2s-0.5,0.1-0.7,0.1c-0.2,0.1-0.3,0.3-0.3,0.5
		c0,0.1,0.1,0.3,0.1,0.3c0.1,0.1,0.3,0.2,0.6,0.3l0.8,0.3l0.6,0.3c0.2,0.1,0.3,0.2,0.5,0.3c0.1,0.1,0.2,0.3,0.3,0.5
		c0.1,0.2,0.1,0.4,0.1,0.7c0,0.4-0.1,0.7-0.3,0.9c-0.1,0.3-0.4,0.5-0.7,0.6c-0.3,0.1-0.6,0.3-0.9,0.3c-0.3,0.1-0.7,0.1-1.1,0.1
		c-0.3,0-0.6,0-0.9-0.1c-0.3-0.1-0.6-0.1-0.8-0.3c-0.3-0.1-0.5-0.3-0.6-0.6c-0.1-0.3-0.3-0.5-0.3-0.9v-0.1l1.5-0.2l0.1,0.2
		c0,0.1,0.1,0.3,0.2,0.3c0.1,0.1,0.1,0.2,0.3,0.3c0.1,0.1,0.3,0.1,0.4,0.1s0.3,0.1,0.4,0.1h0.4c0.1,0,0.3-0.1,0.3-0.1
		c0.1-0.1,0.2-0.1,0.3-0.2c0.1-0.1,0.1-0.2,0.1-0.3c0-0.2-0.1-0.3-0.1-0.4c-0.1-0.1-0.3-0.1-0.4-0.2l-1.3-0.4l-0.5-0.2
		c-0.1-0.1-0.3-0.1-0.4-0.3c-0.1-0.1-0.2-0.3-0.3-0.4C8,32.7,8,32.5,8,32.3c0-0.3,0.1-0.7,0.3-0.9c0.1-0.3,0.4-0.4,0.7-0.6
		c0.3-0.1,0.5-0.3,0.9-0.3c0.3-0.1,0.6-0.1,0.9-0.1c0.3,0,0.6,0,0.9,0.1c0.3,0.1,0.6,0.1,0.8,0.3c0.2,0.1,0.4,0.3,0.6,0.6
		c0.1,0.2,0.1,0.3,0.3,0.6l-1.3,0.3C11.7,31.8,11.6,31.7,11.5,31.6z M16.8,36.4l0.3-0.8l0,0c-0.5,0.7-1.2,1-2.1,1
		c-1.1,0-1.7-0.5-1.7-1.6v-0.3c0-0.1,0-0.2,0.1-0.3c0-0.1,0-0.2,0.1-0.3c0-0.1,0-0.1,0.1-0.2l0.7-3.5h1.6L15,34v0.1v0.2v0.2v0.1
		c0,0.2,0.1,0.3,0.2,0.4s0.3,0.1,0.5,0.1c0.3,0,0.5-0.1,0.7-0.1c0.2-0.1,0.3-0.2,0.5-0.4s0.3-0.3,0.3-0.5l0.2-0.7l0.7-3.2h1.6
		l-1.3,6.1L16.8,36.4C16.9,36.3,16.8,36.4,16.8,36.4z M22.1,30.5l-0.2,0.7l0,0c0.2-0.3,0.4-0.6,0.7-0.7c0.3-0.1,0.7-0.2,1.1-0.2
		c0.7,0,1.3,0.2,1.7,0.6c0.4,0.4,0.6,1,0.6,1.7c0,0.5-0.1,1-0.2,1.5c-0.1,0.5-0.3,0.9-0.6,1.3c-0.3,0.4-0.6,0.7-1,0.9
		c-0.4,0.2-0.9,0.3-1.5,0.3c-0.1,0-0.3,0-0.5-0.1c-0.1,0-0.3-0.1-0.5-0.1c-0.1-0.1-0.3-0.1-0.4-0.3c-0.1-0.1-0.2-0.3-0.3-0.4l0,0
		l-0.6,2.9h-1.6l1.7-8.1L22.1,30.5C22.1,30.4,22.1,30.5,22.1,30.5z M22.4,31.7c-0.2,0.1-0.4,0.4-0.6,0.6c-0.1,0.3-0.3,0.5-0.3,0.8
		c-0.1,0.3-0.1,0.6-0.1,0.8c0,0.4,0.1,0.7,0.3,0.9c0.2,0.3,0.5,0.3,0.9,0.3c0.3,0,0.6-0.1,0.8-0.3c0.2-0.2,0.4-0.4,0.5-0.6
		c0.1-0.3,0.3-0.5,0.3-0.8c0.1-0.3,0.1-0.6,0.1-0.9c0-0.2,0-0.3-0.1-0.5c-0.1-0.1-0.1-0.3-0.2-0.4l-0.3-0.3
		c-0.1-0.1-0.3-0.1-0.5-0.1C22.9,31.5,22.6,31.6,22.4,31.7z M28.1,33.9L28.1,33.9v0.2c0,0.3,0.1,0.6,0.3,0.9c0.2,0.2,0.5,0.3,1,0.3
		c0.1,0,0.3,0,0.4-0.1c0.1-0.1,0.3-0.1,0.3-0.2c0.1-0.1,0.2-0.1,0.3-0.3c0.1-0.1,0.1-0.1,0.2-0.3l1.5,0.3c-0.1,0.3-0.1,0.3-0.3,0.6
		c-0.1,0.3-0.4,0.5-0.6,0.7c-0.3,0.1-0.5,0.3-0.9,0.4s-0.7,0.1-1.1,0.1s-0.7-0.1-1.1-0.1c-0.3-0.1-0.6-0.3-0.9-0.5
		c-0.3-0.2-0.4-0.5-0.5-0.8c-0.1-0.3-0.2-0.7-0.2-1.1c0-0.5,0.1-0.9,0.3-1.4c0.1-0.4,0.4-0.9,0.7-1.1c0.3-0.3,0.6-0.6,1.1-0.8
		c0.4-0.2,0.9-0.3,1.4-0.3c0.4,0,0.8,0.1,1.1,0.1c0.3,0.1,0.6,0.3,0.9,0.5c0.3,0.2,0.4,0.5,0.6,0.8c0.1,0.3,0.2,0.7,0.2,1.1
		c0,0.3,0,0.6-0.1,0.9L28.1,33.9C28.1,33.9,28.1,33.9,28.1,33.9z M30.9,32.3c0-0.1-0.1-0.3-0.2-0.4c-0.1-0.1-0.2-0.2-0.3-0.3
		c-0.1-0.1-0.3-0.1-0.6-0.1c-0.3,0-0.4,0-0.6,0.1c-0.2,0.1-0.3,0.1-0.5,0.3c-0.1,0.1-0.3,0.3-0.3,0.4s-0.1,0.4-0.2,0.5h2.7
		C31,32.7,30.9,32.5,30.9,32.3z M35.3,30.5l-0.2,1.1l0,0c0.2-0.4,0.5-0.7,0.9-0.9c0.4-0.2,0.8-0.3,1.2-0.3h0.5l-0.6,1.5H37h-0.3
		c-0.3,0-0.5,0-0.8,0.1c-0.2,0.1-0.4,0.3-0.5,0.4c-0.1,0.2-0.3,0.4-0.3,0.6l-0.2,0.7l-0.5,2.6h-1.6l1.3-5.9L35.3,30.5L35.3,30.5
		C35.3,30.5,35.3,30.5,35.3,30.5z M46.7,36.4l0.2-0.9l0,0c-0.3,0.4-0.6,0.6-0.9,0.8c-0.4,0.1-0.8,0.3-1.2,0.3c-0.6,0-1-0.1-1.3-0.3
		c-0.3-0.3-0.4-0.6-0.4-1.1c0-0.1,0-0.3,0.1-0.5c0-0.2,0.1-0.5,0.1-0.7l0.7-3.5h1l-0.7,3.5c0,0.1,0,0.1-0.1,0.2c0,0.1,0,0.1-0.1,0.3
		v0.3v0.2c0,0.3,0.1,0.5,0.3,0.6c0.2,0.1,0.4,0.2,0.7,0.2c0.3,0,0.5-0.1,0.7-0.1c0.3-0.1,0.4-0.3,0.6-0.4c0.2-0.2,0.3-0.4,0.5-0.6
		c0.1-0.3,0.2-0.5,0.3-0.7l0.7-3.3h1l-1.3,6L46.7,36.4L46.7,36.4L46.7,36.4L46.7,36.4z M52.7,30.4l-0.1,0.9h-1.2l-0.7,3.5
		c0,0.1-0.1,0.1-0.1,0.2v0.2c0,0.1,0.1,0.3,0.2,0.3c0.1,0.1,0.3,0.1,0.4,0.1h0.3l0.3-0.1l-0.1,0.9h-0.3h-0.3h-0.5
		c-0.1,0-0.3-0.1-0.4-0.1c-0.1-0.1-0.2-0.1-0.3-0.3c-0.1-0.1-0.1-0.3-0.1-0.5v-0.3v-0.3l0.8-3.7h-1l0.2-0.9h1l0.4-1.5l1.1-0.7
		l-0.4,2.2L52.7,30.4L52.7,30.4L52.7,30.4L52.7,30.4z M56.6,33.7c-0.1-0.1-0.3-0.3-0.5-0.3c-0.2-0.1-0.4-0.2-0.6-0.3l-0.6-0.2
		l-0.5-0.3c-0.1-0.1-0.3-0.2-0.3-0.3c-0.1-0.1-0.1-0.2-0.1-0.3s0-0.3,0.1-0.4c0.1-0.1,0.1-0.1,0.3-0.3c0.1-0.1,0.3-0.1,0.4-0.1h0.5
		c0.3,0,0.7,0.1,0.9,0.3c0.3,0.1,0.3,0.4,0.3,0.7l1-0.1c0-0.2-0.1-0.5-0.2-0.7c-0.1-0.3-0.3-0.4-0.5-0.6c-0.2-0.1-0.5-0.3-0.7-0.3
		s-0.5-0.1-0.8-0.1s-0.5,0-0.8,0.1s-0.5,0.2-0.7,0.3s-0.4,0.3-0.5,0.5c-0.1,0.2-0.2,0.5-0.2,0.7c0,0.2,0.1,0.4,0.1,0.6
		c0.1,0.1,0.2,0.3,0.3,0.4c0.1,0.1,0.3,0.3,0.5,0.3s0.4,0.2,0.6,0.3l0.6,0.3c0.2,0.1,0.3,0.1,0.5,0.3c0.1,0.1,0.3,0.2,0.3,0.3
		c0.1,0.1,0.1,0.2,0.1,0.4s-0.1,0.3-0.1,0.4c-0.1,0.1-0.2,0.2-0.3,0.3s-0.3,0.1-0.4,0.1s-0.3,0.1-0.5,0.1c-0.2,0-0.4,0-0.6-0.1
		c-0.2,0-0.3-0.1-0.5-0.2c-0.1-0.1-0.3-0.2-0.3-0.3s-0.1-0.3-0.1-0.5l-0.9,0.1c0,0.3,0.1,0.6,0.2,0.8c0.1,0.2,0.3,0.4,0.5,0.6
		c0.2,0.1,0.5,0.3,0.7,0.3c0.3,0.1,0.6,0.1,0.9,0.1c0.3,0,0.6,0,0.9-0.1c0.3-0.1,0.5-0.1,0.8-0.3c0.3-0.1,0.4-0.3,0.6-0.6
		c0.1-0.3,0.2-0.5,0.2-0.9c0-0.3-0.1-0.4-0.1-0.6C56.9,33.9,56.8,33.8,56.6,33.7L56.6,33.7L56.6,33.7L56.6,33.7z M41.5,34.3
		c-0.1,0.4-0.4,0.9-0.7,1.1c-0.3,0.2-0.7,0.3-1.1,0.3c-0.3,0-0.5-0.1-0.7-0.1s-0.3-0.2-0.5-0.4c-0.1-0.1-0.2-0.3-0.3-0.5
		s-0.1-0.4-0.1-0.7c0-0.3,0.1-0.7,0.1-1c0.1-0.3,0.3-0.6,0.4-0.9c0.2-0.3,0.4-0.5,0.7-0.7c0.3-0.2,0.6-0.3,1-0.3
		c0.4,0,0.7,0.1,0.9,0.3c0.2,0.2,0.3,0.5,0.3,0.9l1-0.1c0-0.7-0.3-1.1-0.6-1.3c-0.4-0.3-0.9-0.5-1.6-0.5c-0.5,0-1,0.1-1.4,0.3
		c-0.4,0.2-0.7,0.5-1.1,0.8c-0.3,0.3-0.5,0.7-0.6,1.1c-0.1,0.4-0.2,0.9-0.2,1.4c0,0.8,0.2,1.5,0.6,1.9c0.4,0.4,1.1,0.7,1.9,0.7
		c0.7,0,1.3-0.2,1.8-0.5c0.5-0.3,0.8-0.9,1-1.5L41.5,34.3L41.5,34.3C41.5,34.3,41.5,34.3,41.5,34.3z M59,36.2
		c-0.1,0.1-0.3,0.3-0.6,0.3c-0.3,0-0.4-0.1-0.6-0.3c-0.1-0.1-0.3-0.3-0.3-0.6s0.1-0.4,0.3-0.6c0.1-0.1,0.3-0.3,0.6-0.3
		c0.3,0,0.4,0.1,0.6,0.3c0.1,0.1,0.3,0.3,0.3,0.6C59.3,35.8,59.2,36.1,59,36.2 M59.1,34.9c-0.2-0.2-0.4-0.3-0.7-0.3
		c-0.3,0-0.5,0.1-0.7,0.3c-0.2,0.2-0.3,0.4-0.3,0.7s0.1,0.5,0.3,0.7c0.2,0.2,0.4,0.3,0.7,0.3c0.3,0,0.5-0.1,0.7-0.3
		c0.2-0.2,0.3-0.4,0.3-0.7C59.4,35.3,59.3,35.1,59.1,34.9 M58.6,35.5h-0.2h-0.1v-0.4h0.1c0.1,0,0.2,0,0.2,0.1c0.1,0,0.1,0.1,0.1,0.2
		C58.7,35.5,58.6,35.5,58.6,35.5 M58.9,35.3c0-0.1-0.1-0.2-0.1-0.3h-0.3h-0.3v1.1h0.1v-0.4h0.2h0.2c0.1,0,0.1,0.1,0.1,0.3v0.1v0.1
		l0,0l0,0h0.1l0,0v-0.1V36v-0.1v-0.1c0-0.1-0.1-0.1-0.2-0.1c0.1,0,0.1,0,0.2-0.1C58.8,35.5,58.9,35.5,58.9,35.3"/>
</g>
</svg>
