<?xml version="1.0" encoding="utf-8"?>
<svg version="1.1" id="Layer_1" xmlns="http://www.w3.org/2000/svg" xmlns:xlink="http://www.w3.org/1999/xlink" x="0px" y="0px"
	 viewBox="0 0 2497.77 313" style="enable-background:new 0 0 2497.77 313;" xml:space="preserve">
<g>
	<path style="fill:#ED1C24;" d="M97.7,209.77l5.34-35.6c-3.78,1.56-7.55,2.83-11.97,3.76l-22.69,5.04
		c-17.34,3.78-25.86,10.73-25.86,23.63c0,11.04,7.88,17.36,21.14,17.36C76.25,223.96,87.61,219.86,97.7,209.77 M151.27,134.13
		c0,4.74-0.32,10.73-0.95,15.44l-8.8,61.77c-1.29,8.52-2.21,21.12-2.21,29.32c0,3.76,0,7.25,0.3,11.65H96.75
		c-0.64-5.04-0.95-10.08-1.25-14.49c-12.28,12.6-27.43,19.23-45.69,19.23c-29.96,0-49.8-17.34-49.8-45.07
		c0-28.36,16.68-45.7,54.51-53.89l29.32-6.63c16.7-3.48,22.06-6.93,22.06-14.49v-0.64c0-10.09-8.82-14.81-29.64-14.81
		c-18.57,0-39.7,4.4-59.56,13.24l10.11-37.82c17.32-7.25,35.91-10.71,55.46-10.71C128.26,86.23,151.27,103.87,151.27,134.13
		 M289.03,159.66c0-24.88-14.19-38.14-33.4-38.14c-12.28,0-21.14,2.54-29.96,9.47l-11.03,78.16c7.26,7.56,17.34,12.6,31.21,12.6
		C278.64,221.75,289.03,187.39,289.03,159.66 M334.72,159.66c0,48.54-24.89,97.38-81.94,97.38c-19.23,0-33.73-6.61-42.86-16.05
		l-10.07,71.85h-45.72l31.53-221.88h39.71l0.3,12.3c10.41-11.04,24.28-17.04,41.6-17.04C306.69,86.22,334.72,112.7,334.72,159.66
		 M469.96,159.66c0-24.88-14.19-38.14-33.42-38.14c-12.27,0-21.12,2.54-29.94,9.47l-11.03,78.16c7.25,7.56,17.34,12.6,31.22,12.6
		C459.55,221.75,469.96,187.39,469.96,159.66 M515.65,159.66c0,48.54-24.89,97.38-81.94,97.38c-19.23,0-33.74-6.61-42.86-16.05
		l-10.09,71.85h-45.7l31.52-221.88h39.71l0.32,12.3c10.39-11.04,24.29-17.04,41.6-17.04C487.6,86.22,515.65,112.7,515.65,159.66
		 M556.66,30.44h45.37l-31.2,221.88h-45.37L556.66,30.44z M630.59,30.44h44.11l-5.65,38.76h-44.13L630.59,30.44z M622.08,90.96h43.8
		l-22.68,161.37h-43.81L622.08,90.96z M766.91,209.77l5.36-35.6c-3.78,1.56-7.57,2.83-11.98,3.76l-22.68,5.04
		c-17.34,3.78-25.86,10.73-25.86,23.63c0,11.04,7.89,17.36,21.12,17.36C745.49,223.97,756.82,219.86,766.91,209.77 M820.48,134.13
		c0,4.74-0.32,10.73-0.94,15.44l-8.82,61.77c-1.27,8.52-2.21,21.12-2.21,29.32c0,3.76,0,7.25,0.32,11.65h-42.88
		c-0.63-5.04-0.92-10.08-1.25-14.49c-12.28,12.6-27.41,19.23-45.69,19.23c-29.96,0-49.8-17.34-49.8-45.07
		c0-28.36,16.7-45.7,54.53-53.89l29.3-6.63c16.7-3.48,22.06-6.93,22.06-14.49v-0.64c0-10.09-8.82-14.81-29.61-14.81
		c-18.61,0-39.71,4.4-59.58,13.24L696,96.94c17.32-7.25,35.91-10.71,55.46-10.71C797.47,86.23,820.48,103.87,820.48,134.13
		 M990.75,134.76c0,5.34-0.32,9.77-1.89,20.47l-13.57,97.1h-44.73l13.54-97.1c0.63-4.08,0.97-8.18,0.97-12.9
		c0-11.03-7.26-19.21-21.76-19.21c-11.34,0-20.8,4.7-29.32,13.86L877.9,252.33h-45.36l22.68-161.38h39.39l0.64,17.96
		c11.03-14.49,26.16-22.67,45.7-22.67C971.2,86.23,990.75,105.44,990.75,134.76 M1005.96,181.1c0-51.7,32.77-95.19,90.14-95.19
		c18.91,0,34.66,3.48,45.7,10.09l-8.2,34.34c-9.45-5.02-20.48-7.56-32.15-7.56c-35.62,0-50.43,29-50.43,58.32
		c0,28.35,18.59,39.4,40.67,39.4c10.71,0,22.67-2.21,34.34-8.22l-8.52,38.79c-10.69,4.4-21.72,6.31-33.09,6.31
		C1038.41,257.38,1005.96,231.53,1005.96,181.1 M1190.31,157.78h63.35c0.32-3.15,0.63-5.98,0.63-9.15c0-16.37-8.2-27.09-26.15-27.09
		C1205.76,121.53,1194.71,137.6,1190.31,157.78 M1292.1,186.46h-104.31c1.25,24.88,16.38,34.34,41.6,34.34
		c20.8,0,39.4-4.42,55.46-16.06l-11.32,40.97c-15.13,8.5-33.11,11.33-47.6,11.33c-57.37,0-82.25-31.2-82.25-73.74
		c0-50.74,28.35-97.07,84.47-97.07c46.62,0,69.01,28.99,69.01,65.24C1297.15,164.09,1294.94,175.74,1292.1,186.46 M1391.95,209.14
		c0-7.88-4.1-11.34-18.91-17.34l-20.17-8.52c-24.9-10.09-36.57-23.31-36.57-46.6c0-28.72,22.69-50.44,69.35-50.44
		c22.99,0,44.12,6.29,60.84,15.75l-9.16,32.47c-16.4-8.2-35.61-14.17-51.68-14.17c-16.08,0-23.65,5.34-23.65,14.17
		c0,7.86,4.72,11.33,16.09,15.75l21.42,8.84c26.48,10.71,38.12,22.38,38.12,47.9c0,26.16-20.17,50.11-69.01,50.11
		c-27.73,0-49.47-7.86-65.55-17.34l9.16-33.41c15.43,9.48,35.29,16.4,56.4,16.4C1385.01,222.7,1391.95,217.67,1391.95,209.14"/>
	<path style="fill:#0B1A3A;" d="M1564.95,217.65l12.92-90.44c-9.14-10.73-24.27-15.77-39.06-15.77c-40.35,0-55.16,38.12-55.16,73.44
		c0,30.26,17.34,46.96,42.55,46.96C1540.68,231.84,1554.56,228.04,1564.95,217.65 M1619.47,30.45l-31.21,221.88h-23.31v-14.49
		c-11.03,11.01-26.14,18.28-44.13,18.28c-36.87,0-64.92-25.22-64.92-71.22c0-48.22,23.95-97.72,79.11-97.72
		c18.29,0,35.29,5.67,46.01,17.66l10.71-74.37L1619.47,30.45z M1656.35,30.44h28.37l-4.4,29.64h-28.38L1656.35,30.44z
		 M1648.17,90.96h27.73l-22.68,161.37h-27.77L1648.17,90.96z M1801.77,91.91l-5.65,22.68c-6.31-2.83-12.3-4.4-20.19-4.4
		c-15.43,0-31.83,7.56-42.22,30.59l-15.76,111.54h-27.73l22.68-161.35h23.33l-0.32,22.06c10.73-20.82,25.84-27.11,40.03-27.11
		C1787.91,85.91,1795.8,88.12,1801.77,91.91 M1829.2,156.82h81.92c0.33-3.44,0.64-6.61,0.64-9.44c0-23.31-11.33-35.93-34.66-35.93
		C1850,111.45,1835.18,131.93,1829.2,156.82 M1826.35,180.15v3.16c0,33.71,16.7,48.52,48.54,48.52c18.59,0,36.56-5.35,51.38-19.21
		l-7.22,29.94c-15.47,10.73-31.85,13.56-48.57,13.56c-44.43,0-71.84-24.9-71.84-73.13c0-47.28,25.22-95.8,78.47-95.8
		c42.24,0,61.45,26.8,61.45,62.39c0,11.03-1.57,19.23-4.42,30.58L1826.35,180.15z M1957.53,184.25c0-52,31.19-98.34,86.04-98.34
		c16.7,0,33.09,4.42,43.18,12.28l-5.67,23.03c-11.03-7.25-23.65-11.05-37.51-11.05c-40.01,0-58.31,36.25-58.31,74.07
		c0,33.72,18.93,48.85,46.64,48.85c13.55,0,25.86-3.16,36.89-10.09l-5.05,26.79c-9.76,5.06-19.85,7.57-31.83,7.57
		C1985.58,257.37,1957.53,231.83,1957.53,184.25 M2124.25,190.55c-0.95,5.67-1.91,15.77-1.91,21.74c0,13.24,7.88,19.53,23.01,19.53
		c12.31,0,21.14-2.19,31.83-8.5l-5.97,26.18c-9.16,4.72-19.85,6.63-29.01,6.63c-28.35,0-47.9-12.3-47.9-43.51
		c0-6.29,1.25-15.11,2.19-22.05l19.87-138.97l28.35-3.82l-6.29,43.2h55.46l-5.98,23.01h-52.63L2124.25,190.55z M2497.75,156.51
		L2341.25,0h-147.36l156.51,156.51H2497.75z"/>
	<path style="fill:#ED1C24;" d="M2193.91,313h147.36l156.51-156.51h-147.36L2193.91,313z"/>
</g>
</svg>
