<?xml version="1.0" encoding="utf-8"?>
<svg version="1.1" id="Layer_1" xmlns="http://www.w3.org/2000/svg" xmlns:xlink="http://www.w3.org/1999/xlink" x="0px" y="0px"
	width="100px" height="100px" viewBox="0 0 66.7 66.7" style="enable-background:new 0 0 66.7 66.7;" xml:space="preserve">
<g>
	<circle style="fill:#E8E8E8;" cx="33.3" cy="33.3" r="33.3"/>
	<circle style="fill:#FFFFFF;" cx="33.3" cy="33.3" r="32.7"/>
	<path d="M21.9,28.5c-2.7,0-4.9,2.2-4.9,4.8c0,2.6,2.2,4.8,4.9,4.8s4.9-2.2,4.9-4.8C26.8,30.7,24.6,28.5,21.9,28.5z M21.9,36.4
		c-1.7,0-3.1-1.4-3.1-3.1c0-1.7,1.4-3.1,3.1-3.1s3.1,1.4,3.1,3.1C25,35,23.6,36.4,21.9,36.4z M35.4,34l-5.8-5.4v9.1h1.7v-5.1
		l5.8,5.4v-9.1h-1.7V34z M12.1,32.5c0.9,0.3,1.5,0.5,2,0.9c0.7,0.5,1.1,1.2,1.1,2c0,0.7-0.3,1.5-0.9,2c-0.6,0.5-1.5,0.8-2.3,0.8
		c-1.9,0-2.9-1.3-3-1.3l-0.2-0.3l1.4-0.9l0.1,0.1c0.2,0.2,0.9,0.5,1.6,0.5c0.9,0,1.5-0.5,1.5-1c0-0.2,0-0.7-1.8-1.2
		c-0.9-0.3-1.5-0.5-2-0.9c-0.7-0.5-1.1-1.2-1.1-2c0-0.7,0.3-1.5,0.9-2c0.6-0.5,1.5-0.8,2.3-0.8c1.9,0,2.9,1.3,3,1.3l0.1,0.2
		l-1.4,0.9l-0.1-0.1c-0.2-0.2-0.9-0.5-1.6-0.5c-0.9,0-1.5,0.5-1.5,1C10.3,31.5,10.3,31.9,12.1,32.5z M44.8,28.5
		c-2.7,0-4.9,2.2-4.9,4.8c0,2.6,2.2,4.8,4.9,4.8s4.9-2.2,4.9-4.8C49.7,30.7,47.5,28.5,44.8,28.5z M44.8,36.5c-1.7,0-3.1-1.4-3.1-3.1
		c0-1.7,1.4-3.1,3.1-3.1s3.1,1.4,3.1,3.1C47.9,35.1,46.5,36.5,44.8,36.5z M54.6,34.2c-0.9-0.3-1.5-0.5-2-0.9c-0.7-0.5-1.1-1.2-1.1-2
		c0-0.7,0.3-1.5,0.9-2c0.6-0.5,1.5-0.8,2.3-0.8c1.9,0,2.9,1.3,3,1.3L58,30l-1.4,0.9l-0.1-0.1c-0.2-0.1-0.9-0.5-1.6-0.5
		c-0.9,0-1.5,0.5-1.5,1c0,0.2,0,0.7,1.8,1.2c0.9,0.3,1.5,0.5,2,0.9c0.7,0.5,1.1,1.2,1.1,2c0,0.7-0.3,1.5-0.9,2
		c-0.6,0.5-1.5,0.8-2.3,0.8c-1.9,0-2.9-1.3-3-1.3l-0.1-0.2l1.4-0.9l0.1,0.1c0.2,0.2,0.9,0.5,1.6,0.5c0.9,0,1.5-0.5,1.5-1
		C56.3,35.2,56.3,34.7,54.6,34.2z"/>
</g>
</svg>
