<?xml version="1.0" encoding="utf-8"?>
<svg version="1.1" id="Layer_1" xmlns="http://www.w3.org/2000/svg" xmlns:xlink="http://www.w3.org/1999/xlink" x="0px" y="0px"
	width="100px" height="100px" viewBox="0 0 66.7 66.7" style="enable-background:new 0 0 66.7 66.7;" xml:space="preserve">
<g>
	<circle style="fill:#E8E8E8;" cx="33.3" cy="33.3" r="33.3"/>
	<circle style="fill:#FFFFFF;" cx="33.3" cy="33.3" r="32.7"/>
	
		<ellipse transform="matrix(0.5327 0.8463 -0.8463 0.5327 51.4476 -26.4631)" style="fill:#61AE46;" cx="49.7" cy="33.4" rx="9.1" ry="11.5"/>
	<path style="fill:#231F20;" d="M14.7,37.6h-3.3l-1.3-3.4l0,0l-1.2,3.4H6.2l3.1-8.9h4c2,0,3.3,0.9,2.6,2.7c-0.5,1.2-1.6,2.3-3.2,2.5
		L14.7,37.6C14.7,37.6,14.7,37.6,14.7,37.6z M10.6,32.8h0.3c0.9,0,1.9-0.2,2.3-1.1c0.3-1-0.5-1.1-1.5-1.1h-0.3L10.6,32.8
		C10.6,32.8,10.6,32.8,10.6,32.8z M17.9,37.6h-2.5l2.2-6H20C20,31.6,17.9,37.6,17.9,37.6z M21,29.3c-0.2,0.7-1.1,1.2-1.8,1.2
		c-0.7,0-1.2-0.5-1-1.2c0.2-0.7,1.1-1.2,1.8-1.2C20.8,28.1,21.3,28.7,21,29.3z M23.9,32.3L23.9,32.3c0.9-0.7,1.7-0.9,2.7-0.9
		c1.9,0,2.3,1,1.7,2.5l-1.3,3.7h-2.5l1.1-2.9c0.2-0.5,0.7-1.6-0.5-1.6c-1,0-1.5,0.7-1.8,1.4L22,37.6h-2.5l2.2-6h2.5L23.9,32.3
		C23.9,32.4,23.9,32.3,23.9,32.3z M36.5,37c-1,2.5-2.8,3.6-5.4,3.6c-1.6,0-3.5-0.7-3.2-2.3h2.8c0,0.1,0.1,0.3,0.3,0.5
		c0.2,0.1,0.4,0.1,0.7,0.1c1.3,0,1.9-0.7,2.3-1.7l0.1-0.3c-0.8,0.5-1.6,0.8-2.5,0.8c-2.1,0-3-1.3-2.3-3.1c0.7-1.7,2.7-3.3,4.8-3.3
		c0.8,0,1.5,0.2,1.8,0.9l0,0l0.2-0.7h2.5L36.5,37C36.5,37,36.5,37,36.5,37z M31.7,34.6c-0.3,0.7,0.1,1.3,1.1,1.3s1.8-0.5,2.1-1.3
		c0.3-0.7-0.1-1.3-1.1-1.3C32.9,33.2,32,33.9,31.7,34.6z"/>
	<path style="fill:#FFFFFF;" d="M50.5,32.5c-0.5,1.3-1,2.4-2.1,3.5c-1.3,1.2-2.8,1.7-4.3,1.7c-2.8,0-4.1-1.9-3.1-4.7
		c1.1-2.9,3.7-4.7,6.6-4.7c1.8,0,2.9,0.8,3.1,2.5l-2.5,0.9c0-0.8-0.5-1.4-1.4-1.4c-1.5,0-2.8,1.5-3.3,2.8c-0.5,1.4-0.2,2.8,1.3,2.8
		c1,0,1.9-0.5,2.4-1.5h-1.9l0.7-1.9L50.5,32.5L50.5,32.5L50.5,32.5z M57.8,34.5c-0.7,2-2.9,3.2-4.8,3.2c-1.9,0-3.3-1.1-2.5-3.2
		c0.7-2.1,2.9-3.2,4.8-3.2S58.5,32.4,57.8,34.5z M52.7,34.5c-0.3,0.7,0,1.3,0.9,1.3s1.6-0.5,1.9-1.3c0.3-0.7,0-1.3-0.9-1.3
		C53.7,33.1,53,33.7,52.7,34.5z"/>
</g>
</svg>
