<?xml version="1.0" encoding="utf-8"?>
<!-- Generator: Adobe Illustrator 24.2.1, SVG Export Plug-In . SVG Version: 6.00 Build 0)  -->
<svg version="1.1" id="Layer_1" xmlns="http://www.w3.org/2000/svg" xmlns:xlink="http://www.w3.org/1999/xlink" x="0px" y="0px"
	 viewBox="0 0 184 184" style="enable-background:new 0 0 184 184;" xml:space="preserve">
<style type="text/css">
	.st0{fill:#FFFFFF;}
	.st1{fill:#161012;}
	.st2{clip-path:url(#SVGID_2_);fill:#ED2F2A;}
</style>
<g>
	<path class="st0" d="M176.3,1.2H7.7C4,1.2,1,4.5,1.3,8.2l13.4,168.6c0.3,3.4,3.1,5.9,6.4,5.9h141.8c3.4,0,6.1-2.6,6.4-5.9
		L182.7,8.2C183,4.5,180,1.2,176.3,1.2"/>
	<path class="st1" d="M176.3,1.2v1.3H7.7L2.6,7.7v0.4v0L16,176.7l5.1,4.7h141.8l5.2-4.7L181.4,8.1V7.7l-5.1-5.1V0
		c4.3,0,7.7,3.5,7.7,7.7v0.6l-13.4,168.6c-0.3,4-3.6,7.1-7.7,7.1H21.1c-4-0.1-7.4-3.1-7.7-7.1L0,8.3l1.3-0.1L0,8.3l0-0.6
		C0,3.5,3.4,0,7.7,0h168.5V1.2"/>
	<g>
		<defs>
			<polyline id="SVGID_1_" points="9.4,6 6.3,9.4 19.5,176.3 21.4,177.9 162.7,177.9 164.6,176.3 177.8,9.4 174.8,6 9.4,6 			"/>
		</defs>
		<clipPath id="SVGID_2_">
			<use xlink:href="#SVGID_1_"  style="overflow:visible;"/>
		</clipPath>
		<rect x="6.3" y="6" class="st2" width="40.3" height="123.8"/>
		<rect x="137.3" y="6" class="st2" width="40.6" height="123.8"/>
	</g>
	<path class="st1" d="M70.4,83.2c0.1,2.4,1.4,8.5,9.2,14.3l5.2,3.8l-1.5,0.1l-4.3,0.1l-1.5,1.8l0,3.4l0.4,2.6l2.9,0.5l8.1-0.3
		l0.2,1.1c-0.8,1.8-3.5,10-7.7,17.7l2.4,1.2l3.2,0.3l5-12.7l0.3-0.1c0,0.4,0.1,11.3-0.2,14.8l0.1,0.5l0.7,0.4l4.1-0.5l0.3-0.1
		l0.1-0.3l0.2-0.6v0l0.1-0.9l0.1-0.5v-0.7l0-0.8v-2l0-0.6c-0.1-4.9-0.5-9.9-1.9-14.6l-0.3-1l-0.1-0.6l0.4-0.1l0.2,0l4.4,0l4.1,0.3
		l1.6-2.1c0-1.4,0-2.8,0.1-4.2l-1.1-1.9l-5.4-0.2l-0.2-0.1v0l6.5-4.8c3.6-3.2,5.3-5,6.4-7.3c0,0,3.9-7.6,3.7-14l0.9-1.2l1.7-0.4
		l3.1-6.1c0,0,2.5-8.7,3.1-12.2l-1.5-5.9l-0.3-0.2l-0.1-0.4l0.1-0.4l2.2-9l-0.6-0.7l-1.1-1.5l0-0.3c-0.5-6.1-2.7-13.8-9.2-20.6
		l-0.7-0.6C104,5.3,83,5,72.5,13.3l-0.2,0.8c-1.9,4-6.2,4.3-8,4.5l-0.7,0.5l3.7,3.6L66,23.2l-2.7,0l-3.3,2.6l0.1,0.7l1.5,2.5l0,0
		l0.2,0.9l0,1.8l-3.1,3.6c-0.4,2.2,0.4,3.7,1.2,7.3l1.6,6.3L61.4,49l-0.6,0.1l-1.7,3.2c-0.3,4,2.7,10.1,3.6,15.4l2.5,5.8l1.4,0.5
		l1.6,0.6l0.1,1.1C68.4,79.5,70.4,83.2,70.4,83.2 M72.3,20.1l1.4-1.3l6.2-3.4l0.9-0.3L80.6,14L79,13.9l-0.4-0.6l2-1.1l8.6-1.6
		l4.6-0.1l3.4,0.5l9.4,3.6l4.6,3.1c4.4,3.4,9.3,9.8,8.6,23.4l-0.4,2.9l-0.9,0.2c-0.9-2.9-2-8-4.7-12.1l-0.9,0.1l0.1,3.3
		c-0.4,3.4,0.6,2,2.1,5.6l1.2,4.7l0.1,1.1l-0.2,0.6l-3.8-0.6L100.8,47l-6.1,2.6l-0.9,0.5l-0.3,0L92.8,50h-2.2l-1.7-0.1
		c-1.1-0.6-2.7-3.1-8.3-3.1l-9.8,0L69.2,47v-0.3c0-4.5,2.9-3.5,3.2-4.6c0.8-3,1.1-9.9,6.1-14.2l6-2.1l6,1.2l1.9,0.6l1.8-1.5
		l-0.1-1.1c-0.4-0.3-4-4.8-9.6-5.8l-3.4-0.4l-2.6,0.1l-6.6,2.1L72.3,20.1 M115.9,49.3l-0.9,0.2l-0.9,0.2l-0.6-1.1h1.6l0.7,0.1
		L115.9,49.3 M108.3,51.6l-1.4-1.2l0.3-0.5l3.6,0.5l0.3,1.8l-1.1,0.4L108.3,51.6 M109,54.3l-1.7-0.4l-1.8-1.2l-2.4-0.6l-1.9,0.3
		l-0.4-0.5l2.6-1.3l0.9,0l2.1,1.1l2.5,2L109,54.3 M85.7,65.6l0.2,1L84,66.1l0.1-3.1l1.7,0.1L85.7,65.6 M74.9,52.7l0.9-0.5l1.5-0.9
		l3.4-1.2l2,0.8V52h-2.7l-3.1,1.2l-1.7,0.4L74.9,52.7 M73.9,51.4l-1.9,1.3l-1.3-0.9l1.8-1.7l1.1-0.2l1.3-0.1l0.3,0.9L73.9,51.4
		 M62.3,36.9l2.4-4v-3.2l-0.9-2.3v-0.5l0.1,0l1.4-0.1c3.8-0.5,7.2-1.9,8.2-2.4l1.6-0.7l1.9-0.5l1.6-0.2l1.7,0.6l-6.2,4.2l-2.5,3.9
		l-1.7,1.8l-1.5,2.1c-0.4,1.1-1.9,4.8-2,10.8l-0.8,1.7l-1.1,0.2l-1.5-6l-0.4-1.7L62.3,36.9 M65.5,65.1l-1.3-2.6l-1.8-6.4l1.3-4.1
		l1.7,1.1l-0.2,3.5l0.9,5.4l-0.4,3.3 M69.7,49.7l-1-0.2l-0.9-0.2l0.1-0.6l0.7-0.1l1.6,0L69.7,49.7 M70.5,61.9l1.7-0.6l1.7,0.7
		l0.9-0.4l-0.1-1.4l-3.3-3l0.4-1l0.9,0.2l1.6,1l0.8-0.3l4.5-2.1l2.6,0.4l1.7-0.1l1.5,0.3l-0.5,1.4L85,57v1.8l-0.1,0l-4.5,1.9
		l-1.3,0.7l0,0.6l1.1,0.6l1.7-0.1l0.4,0.3l-0.2,0.2l-0.8,1.9l-0.6,0.9l-3.1,1.5L73,67.9L70.5,61.9 M81.8,90.7
		c-2.1,0.1-7.8-3.4-10.2-13l1.9-4.8l1.1-0.3l1.2,1.1l2.7,11.1l1.2,0.1l0.7-1.5l1-0.4l1.9,6.3L81.8,90.7 M83.2,75.1l-4.3-1.4l0.4-0.6
		l2.3-1.2l2.5-1.6l3.2-0.3l5.8,1.7l3.1-2l1.9-0.9l1.5,0.3l1.8,2.1l2.7,2l0.7,0.5l-1.3,0.9c-3.8,1.1-7.9,0.4-10-0.5l-3.3,0L83.2,75.1
		 M97.4,77.4L94,78.1l-4.3,0.2l-2.1-0.9l0.3-0.5c1,0,2.7-0.5,8.5-0.1l1.1,0.1V77.4 M122.2,55c-0.7,4-1.6,6.1-2.1,8.6l-2.8,6.5H115
		l-1.1,1.8l-0.5,1.4l-0.7,6.2c-1,4.7-2.8,8.1-4.6,10.3c-3.6,4.1-6.9,4.8-7.3,5h-1.5l-0.9-0.9l-0.7,0.4l-0.2,3l-2.7,4.4l-1,1.5
		c-2.3-1.3-5.6-4.9-6.3-8.4l0.6-4.3l0.7-3.3v-2.6l1.9,2l0.2-3.1L89,82.3l-0.2-1.2l2.2-0.6c5.7,0.8,7.4-0.4,9.7-1h1.1l1.5,1.2
		l0.3,3.8l1.6-0.4l0.6-2.4c6.7-12.7,1.1-9.2-3.1-16.4l-3.6-2.5l-0.8,1.4l-0.1,1.9L91.9,68l-4.4-4.4l1.3-3.8l0.8-3.5l0.6-3.1l1.4-0.8
		l1.6,1.2l1.8,3.5l1.1-0.4l0.6-1.1l-0.5-1.1l0.6-0.3l3.7,1.2l5.6-0.3l1,0.6l0.7,1l1.2,0.2l1.1,0.8l-4.1,3l-0.8,0.2l0,1.4l2.5,0.1
		l3.7-2.6l1.8-6.2l0.8-2.1l2.4-0.7l0.7,0.9l-0.1,5.5l0.6,0.6l1.8-1.8l-0.1-2.4l1.1-1.7L122.2,55 M146.5,140.1l0.7,1.1l-1.8,8.1
		l-0.8,0.6H142l-0.9-0.9V149c0.1-2.6-1.5-4.6-5.3-4.6c-6.3,0-10.8,5.1-11.4,11.9c-0.6,7,4.2,11,11,11c3.5,0,6.2-0.6,7.8-1.1l1.1,0.9
		l-0.8,4.2l-0.6,0.8c-1.4,0.4-5.3,1.4-11.3,1.4c-14.2,0-19.9-8.1-19-16.4c0.8-7.4,5.7-18.3,25-18.3
		C141.2,138.9,144.2,139.4,146.5,140.1 M66.8,140.1l0.9-0.7h13.9l0.8,1l-0.5,2.1l-0.8,0.7H81l-4.5,1.7L65,154.5l8.9,12l4.3,2.6
		l0.8,1.1l-0.5,2.1l-0.8,0.6h-6.9c-7.7,0-9.8-3.4-16.1-15h0l-1.9,8.6l1.6,2.4h0.1l0.5,1l-0.6,2.5l-0.8,0.6h-16l-0.9-1.1l0.5-2.1
		l0.8-0.7h0c1.5-0.1,3-1.1,4-5.6l3.6-16.7l-1.6-3.4l-0.1-0.1l-0.6-1.1l0.5-2.2l0.9-0.7H60l0.8,1l-0.5,2.2l-0.6,0.7h-0.1l-2.2,2.2
		l-2,9.3l11.8-9.8l-0.3-1.7l-0.6-1.1L66.8,140.1 M109.5,149.4l-0.8-0.9v-0.1l-3-3.4h-7.3l-1.9,9h10.5l0.8,1l-1,4.6l-0.8,0.6H95
		l-1.3,5.7l1.6,3.1l0.1,0.1l0.4,0.9l-0.6,2.6l-0.8,0.6H81.8l-0.8-1l5.6-25.2l-1.7-3.5h-0.1l-0.5-1.1l0.5-2.2l0.9-0.7h28.4l0.8,1
		l-1.8,8.3l-0.8,0.7H109.5"/>
</g>
</svg>
