<?xml version="1.0" encoding="utf-8"?>
<svg version="1.1" id="Layer_1" xmlns="http://www.w3.org/2000/svg" xmlns:xlink="http://www.w3.org/1999/xlink" x="0px" y="0px"
	width="100px" height="100px" viewBox="0 0 520.04 520.04" style="enable-background:new 0 0 520.04 520.04;" xml:space="preserve">
<symbol  id="A" viewBox="-931.06 -480.21 1862.13 960.42">
	<g>
		<path style="fill:#D03027;" d="M163.15-214.35C48.82-295.31-86.1-380.08-231.32-469.04l-5.73-3.32c-1.95-1.37-2.41-4.07-1.05-6.02
			s4.07-2.41,6.02-1.05l4.83,2.56L180.02-258.1c0.72,0.45,1.48,0.84,2.27,1.16c-8.09,13.31-14.43,27.6-18.85,42.53L163.15-214.35z
			 M910.78,390.74c-179.58,198.4-1335.36,20.19-1826.82-87.16l-11.46-2.41c-2.41-0.47-3.93-2.71-3.49-4.95
			c0.47-2.41,2.71-3.93,4.95-3.49l11.64,2.27c407.13,72.52,1253.96,172.95,1436.13-7.68c55.65-55.19,42.39-126.05-22.17-209.89
			c34.68-22.31,59.4-57.45,70.57-101.32C821.97,143.18,990.99,302.6,911.08,391.03L910.78,390.74z"/>
		<path style="fill:#D03027;" d="M162.83-214.64c0,0,285.53,224.12,336.73,292.07c51.2,67.96,0,0,0,0L610.1,37.09l-39.94-60.97
			c0,0-277.24-173.61-388.13-232.96s0,0,0,0l-38.69,2.53L162.83-214.64z"/>
	</g>
</symbol>
<g>
	<g>
		<path style="fill:#E8E8E8;" d="M260.02,0C403.6,0,520.04,116.44,520.04,260.02c0,143.58-116.44,260.02-260.02,260.02
			S0,403.6,0,260.02C0,116.44,116.44,0,260.02,0"/>
		<path style="fill:#FFFFFF;" d="M260.02,5.2c140.72,0,254.82,114.1,254.82,254.82s-114.1,254.82-254.82,254.82
			S5.2,400.74,5.2,260.02S119.3,5.2,260.02,5.2"/>
	</g>
	<g>
		
			<use xlink:href="#A"  width="1862.13" height="960.42" x="-931.06" y="-480.21" transform="matrix(0.2118 0 0 0.2118 260.021 274.9011)" style="overflow:visible;"/>
		<g>
			<path style="fill:#D03027;" d="M441.23,161.75l-0.06,0.06c-36.89-40.75-274.3-4.15-375.26,17.9l-2.35,0.5
				c-0.5,0.1-0.81,0.56-0.72,1.02c0.1,0.5,0.56,0.81,1.02,0.72l2.39-0.47c83.63-14.9,257.58-35.53,295,1.58
				c11.06,10.97,8.87,24.95-3.29,41.44c0,0,0,0,0,0c-0.41,0.55-0.83,1.11-1.26,1.67c0,0,0,0,0,0v0
				c-10.3,13.68-66.81,58.14-69.09,59.94l-0.01,0c-23.48,16.63-51.2,34.04-81.03,52.32l-1.18,0.68c-0.4,0.28-0.5,0.84-0.22,1.24
				c0.28,0.4,0.84,0.5,1.24,0.22l0.99-0.53l83.66-44.94c0.15-0.09,0.3-0.17,0.47-0.24c-0.01-0.01-0.01-0.02-0.02-0.04
				c22.8-12.21,79.69-47.84,79.69-47.84l0-0.01C422.93,212.66,457.64,179.92,441.23,161.75z"/>
			<path style="fill:#D03027;" d="M356.7,226.17c0,0,0.02-0.03,0.05-0.06C356.73,226.13,356.71,226.15,356.7,226.17z"/>
			<path style="fill:#D03027;" d="M357.78,224.73c0.06-0.08,0.12-0.16,0.18-0.24c0,0,0,0,0,0
				C357.9,224.57,357.84,224.65,357.78,224.73z"/>
			<path style="fill:#D03027;" d="M357.07,225.68c-0.12,0.16-0.21,0.28-0.28,0.37C356.88,225.92,356.97,225.8,357.07,225.68z"/>
			<path style="fill:#D03027;" d="M357.07,225.68c0.11-0.14,0.21-0.28,0.32-0.42C357.26,225.42,357.16,225.56,357.07,225.68z"/>
		</g>
	</g>
</g>
</svg>
