<?xml version="1.0" encoding="utf-8"?>
<svg version="1.1" id="Layer_1" xmlns="http://www.w3.org/2000/svg" xmlns:xlink="http://www.w3.org/1999/xlink" x="0px" y="0px"
	width="100px" height="100px" viewBox="0 0 66.7 66.7" style="enable-background:new 0 0 66.7 66.7;" xml:space="preserve">
<g>
	<circle style="fill:#E8E8E8;" cx="33.3" cy="33.3" r="33.3"/>
	<circle style="fill:#FFFFFF;" cx="33.3" cy="33.3" r="32.7"/>
	<path style="fill:#00A599;" d="M11,38.6c1.3,0.6,2,0.7,3.1,0.7c1.5,0,2.3-0.4,2.3-1.3c0-0.7-0.3-0.9-2.2-1.5
		c-1.9-0.5-2.1-0.7-2.7-1.3c-0.5-0.5-0.7-1.2-0.7-2c0-1.9,1.6-3.2,4.1-3.2c1.3,0,2.1,0.3,3.5,1l-0.7,1.7l-0.3-0.1
		c-0.8-0.4-1.7-0.7-2.7-0.6c-1.3,0-2.1,0.5-2.1,1.3c0,0.7,0.3,1.1,1.4,1.4l0.5,0.1l0.8,0.2c2.3,0.7,3,1.4,3,3.2c0,2-1.5,3.1-4,3.1
		c-1.6,0-2.5-0.2-4-1C10.4,40.3,11,38.6,11,38.6z M28.4,40.3c-1.5,0.7-2.9,0.9-4.3,0.9c-2.6,0-4.1-1.3-4.1-3.3
		c0-1.9,1.2-3.1,3.5-3.9l2.6-0.8c-0.4-0.9-1-1.3-2.3-1.3c-1.1,0-1.7,0.2-2.9,0.7l-0.6-1.6l0.2-0.1c1.1-0.7,2-0.9,3.3-0.9
		c3.3,0,4.5,1.6,4.5,5.6V40.3L28.4,40.3z M26.3,35.6v-0.7l-2.3,0.7c-1.4,0.5-2,1.1-2,2.1s0.6,1.6,1.8,1.6c0.9,0,1.7-0.1,2.5-0.4
		L26.3,35.6z M30.7,26.1l2.1-0.6v5c1-0.3,1.5-0.4,2.3-0.4c3.3,0,4.6,1.6,4.6,5.6s-1.3,5.6-4.6,5.6c-1.5,0-2.7-0.3-4.4-0.9V26.1
		C30.7,26.1,30.7,26.1,30.7,26.1z M32.8,38.9c0.7,0.3,1.6,0.4,2.4,0.4c1.9,0,2.5-0.9,2.5-3.7c0-2.8-0.6-3.7-2.5-3.7
		c-0.8,0-1.6,0.2-2.3,0.5C32.8,32.4,32.8,38.9,32.8,38.9z M49.4,40.3c-1.5,0.7-2.9,0.9-4.3,0.9c-2.6,0-4.1-1.3-4.1-3.3
		c0-1.9,1.2-3.1,3.5-3.9l2.6-0.8c-0.4-0.9-1-1.3-2.3-1.3c-1.1,0-1.7,0.2-2.9,0.7l-0.7-1.5l0.2-0.1c1.1-0.7,2-0.9,3.3-0.9
		c3.3,0,4.6,1.6,4.6,5.6C49.5,35.7,49.4,40.3,49.4,40.3z M47.3,35.6v-0.7l-2.3,0.7c-1.4,0.5-2,1.1-2,2.1s0.6,1.6,1.8,1.6
		c0.9,0,1.7-0.1,2.5-0.4L47.3,35.6z"/>
	<path style="fill:#FF5800;" d="M56,30.7c0.7,0.9,0.1,2.5-1.2,3.5s-2.9,1.1-3.6,0.1c-0.7-0.9-0.1-2.5,1.2-3.5
		C53.7,29.8,55.3,29.7,56,30.7z M54.2,33.3c0.8-0.6,1.2-1.5,0.9-1.9c-0.3-0.4-1.2-0.3-2,0.3c-0.8,0.6-1.2,1.5-0.9,1.9
		C52.5,34,53.4,33.8,54.2,33.3z"/>
</g>
</svg>
