<?xml version="1.0" encoding="utf-8"?>
<svg version="1.1" id="Layer_1" xmlns="http://www.w3.org/2000/svg" xmlns:xlink="http://www.w3.org/1999/xlink" x="0px" y="0px"
	width="100px" height="100px" viewBox="0 0 72.2 72.2" style="enable-background:new 0 0 72.2 72.2;" xml:space="preserve">
<g>
	<circle style="fill:#E8E8E8;" cx="36.1" cy="36.1" r="36.1"/>
	<circle style="fill:#FFFFFF;" cx="36.1" cy="36.1" r="35.4"/>
	
		<linearGradient id="SVGID_1_" gradientUnits="userSpaceOnUse" x1="-1727.1252" y1="-2051.0405" x2="-1726.8022" y2="-2051.0405" gradientTransform="matrix(153.725 27.1058 -31.4507 50.4821 201006.7188 150387.7344)">
		<stop  offset="0" style="stop-color:#00548E"/>
		<stop  offset="0.173" style="stop-color:#005B95"/>
		<stop  offset="0.404" style="stop-color:#056AA6"/>
		<stop  offset="0.669" style="stop-color:#0C84C1"/>
		<stop  offset="0.956" style="stop-color:#23A6DE"/>
		<stop  offset="1" style="stop-color:#29ABE2"/>
	</linearGradient>
	<path style="fill:url(#SVGID_1_);" d="M59.7,30.4H12.4c-0.6,0-1.1,0.5-1.1,1c0,0,0,0,0,0v9.3c0,0.6,0.5,1.1,1,1.1c0,0,0,0,0,0h47.4
		c0.6,0,1.1-0.5,1.1-1c0,0,0,0,0,0v-9.3C60.9,30.8,60.4,30.3,59.7,30.4"/>
	<path style="fill:#FBB619;" d="M16.5,35.1c0,0.2-0.1,0.4-0.4,0.4h-1.9c-0.2,0-0.4-0.1-0.4-0.4v-1.8c0-0.2,0.2-0.4,0.4-0.4h1.9
		c0.2,0,0.4,0.1,0.4,0.4V35.1z M20.3,35.1c0,0.2-0.1,0.4-0.4,0.4H18c-0.2,0-0.4-0.1-0.4-0.4v-1.8c0-0.2,0.2-0.4,0.4-0.4h1.9
		c0.2,0,0.4,0.1,0.4,0.4L20.3,35.1L20.3,35.1z M16.5,38.8c0,0.2-0.1,0.4-0.4,0.4h-1.9c-0.2,0-0.4-0.1-0.4-0.4V37
		c0-0.2,0.2-0.4,0.4-0.4h1.9c0.2,0,0.4,0.1,0.4,0.4V38.8z M20.3,38.8c0,0.2-0.1,0.4-0.4,0.4H18c-0.2,0-0.4-0.1-0.4-0.4V37
		c0-0.2,0.2-0.4,0.4-0.4h1.9c0.2,0,0.4,0.1,0.4,0.4L20.3,38.8L20.3,38.8z"/>
	<path style="fill:#FFFFFF;" d="M28.6,38.6c0,0.4-1.6,0.6-2.5,0.6c-1.9,0-3.2-1.3-3.2-3.2c0-1.9,1.4-3.2,3.2-3.2
		c0.9,0,1.8,0.2,2.4,0.8l-0.8,0.8c-0.4-0.4-1-0.6-1.6-0.6c-1.2,0-2.1,0.9-2.1,2.2c0,1.3,0.9,2.3,2.1,2.3c0.5,0,1-0.1,1.4-0.3v-1.4
		h-1.2v-1h2.3V38.6L28.6,38.6z M29.9,32.9H32c1.2,0,2.3,0.4,2.3,1.7c0,0.9-0.5,1.5-1.4,1.7l1.6,2.7h-1.3l-1.4-2.6H31V39h-1.1V32.9
		L29.9,32.9L29.9,32.9z M31.9,35.5c0.6,0,1.3-0.1,1.3-0.9c0-0.7-0.6-0.8-1.2-0.8H31v1.7H31.9L31.9,35.5z M35.5,32.9h4v1h-3v1.5h2.7
		v0.9h-2.7V38h3.2v1h-4.3C35.5,39,35.5,32.9,35.5,32.9z M46.3,38.6c0,0.4-1.6,0.6-2.5,0.6c-1.9,0-3.2-1.3-3.2-3.2
		c0-1.9,1.4-3.2,3.2-3.2c0.9,0,1.8,0.2,2.4,0.8l-0.8,0.8c-0.4-0.4-1-0.6-1.6-0.6c-1.2,0-2.1,0.9-2.1,2.2c0,1.3,0.9,2.3,2.1,2.3
		c0.5,0,1-0.1,1.4-0.3v-1.4h-1.3v-1h2.4L46.3,38.6C46.3,38.6,46.3,38.6,46.3,38.6z M53.1,38.6c-0.7,0.4-1.6,0.6-2.5,0.6
		c-1.9,0-3.2-1.3-3.2-3.2c0-1.9,1.4-3.2,3.2-3.2c0.9,0,1.8,0.2,2.4,0.8l-0.8,0.8c-0.4-0.4-1-0.6-1.6-0.6c-1.2,0-2.1,0.9-2.1,2.2
		c0,1.3,0.9,2.3,2.1,2.3c0.5,0,1-0.1,1.4-0.3v-1.4h-1.2v-1h2.3L53.1,38.6L53.1,38.6C53.1,38.6,53.1,38.6,53.1,38.6z M57.4,34.2
		c-0.2-0.3-0.6-0.5-1.1-0.5c-0.5,0-1,0.2-1,0.8c0,1.2,2.9,0.5,2.9,2.7c0,1.3-1,1.9-2.2,1.9c-0.8,0-1.5-0.2-2-0.9l0.9-0.7
		c0.3,0.4,0.7,0.6,1.2,0.6c0.5,0,1.1-0.3,1.1-0.9c0-1.4-2.9-0.6-2.9-2.7c0-1.2,1.2-1.9,2.2-1.9c0.6,0,1.3,0.1,1.7,0.6
		C58.2,33.3,57.4,34.2,57.4,34.2z"/>
</g>
</svg>
