<?xml version="1.0" encoding="utf-8"?>
<svg version="1.1" id="Layer_1" xmlns="http://www.w3.org/2000/svg" xmlns:xlink="http://www.w3.org/1999/xlink" x="0px" y="0px"
	 viewBox="0 0 1878.53 425.25" style="enable-background:new 0 0 1878.53 425.25;" xml:space="preserve">
<g id="Brand_Blue">
	<g id="Wise_1_">
		<path style="fill:#00B9FF;" d="M1878.53,185.89C1878.53,76.76,1802.5,0,1695.92,0c-135.69,0-226.63,98.58-226.63,239.36
			c0,109.86,76.76,185.89,185.16,185.89c98.58,0,172.07-47.65,202.26-123.68h-109.5c-14.55,23.65-45.47,38.56-83.3,38.56
			c-58.2,0-94.58-38.56-97.86-93.13h306.3C1876.35,226.27,1878.53,208.44,1878.53,185.89z M1574.41,173.16
			c9.82-50.2,58.57-90.22,117.5-90.22c50.93,0,89.49,37.1,89.49,90.22H1574.41z"/>
		<path style="fill:#00B9FF;" d="M1174.99,415.43l19.64-104.77c60.02,12,69.12-21.83,84.76-103.31l7.64-40.38
			c21.83-113.86,65.84-170.61,191.71-155.33l-19.64,104.77c-60.02-12-70.57,33.47-84.03,104.04l-7.64,40.38
			C1345.6,376.14,1300.13,430.71,1174.99,415.43z"/>
		<polygon style="fill:#00B9FF;" points="1028.03,415.79 1102.24,9.82 1200.09,9.82 1126.24,415.79 		"/>
		<polygon style="fill:#00B9FF;" points="467.45,9.82 562.39,9.82 593.32,303.39 717.73,9.82 811.94,9.82 845.05,306.3 965.09,9.82 
			1059.67,9.82 887.61,415.79 779.93,415.79 745.01,136.42 626.06,415.79 522.02,415.79 		"/>
	</g>
	<polygon id="FF_1_" style="fill:#00B9FF;" points="112.77,117.5 0,225.18 191.71,225.18 211.72,178.25 114.59,178.25 175.34,117.5 
		140.05,56.75 304.84,56.75 152.79,415.79 209.9,415.79 381.96,9.82 49.47,9.82 	"/>
</g>
</svg>
