<svg xmlns="http://www.w3.org/2000/svg" xmlns:xlink="http://www.w3.org/1999/xlink" height="177.175" width="1180.963"><defs><clipPath id="A"><path d="M1393.8 1393.8c15.06-69.44 23.55-146.71 23.55-228.39 0-81.66-8.49-158.94-23.55-228.355h0c-69.45-15.071-146.72-23.559-228.39-23.559-81.66 0-158.94 8.488-228.359 23.559L1393.8 1393.8z"/></clipPath><linearGradient id="B" spreadMethod="pad" gradientTransform="matrix(0,480.304,480.304,0,1177.2,913.496)" gradientUnits="userSpaceOnUse" y2="0" x2="1" y1="0" x1="0"><stop offset="0" stop-color="#0e6024"/><stop offset=".85" stop-color="#1aae48"/></linearGradient><clipPath id="C"><path d="M937.051 937.055c15.066-69.442 23.558-146.711 23.558-228.387 0-81.66-8.492-158.941-23.558-228.359h0c-69.446-15.067-146.711-23.559-228.387-23.559-81.66 0-158.941 8.492-228.359 23.559l456.746 456.746z"/></clipPath><linearGradient id="D" spreadMethod="pad" gradientTransform="matrix(0,480.305,480.305,0,720.456,456.75)" gradientUnits="userSpaceOnUse" y2="0" x2="1" y1="0" x1="0"><stop offset="0" stop-color="#35731d"/><stop offset=".85" stop-color="#59c134"/></linearGradient><clipPath id="E"><path d="M480.305 480.309c15.066-69.438 23.558-146.707 23.558-228.387 0-81.66-8.492-158.941-23.558-228.363h0C410.859 8.488 333.594 0 251.918 0 170.258 0 92.977 8.488 23.559 23.559l456.746 456.75z"/></clipPath><linearGradient id="F" spreadMethod="pad" gradientTransform="matrix(0,480.304,480.304,0,263.711,-6.1e-5)" gradientUnits="userSpaceOnUse" y2="0" x2="1" y1="0" x1="0"><stop offset="0" stop-color="#444141"/><stop offset=".85" stop-color="#918f90"/></linearGradient><clipPath id="G"><path d="M480.305 937.055c-69.418-15.071-146.7-23.559-228.36-23.559-81.675 0-158.941 8.488-228.386 23.559h0C8.488 1006.47 0 1083.75 0 1165.41c0 81.68 8.488 158.95 23.559 228.39l456.746-456.745z"/></clipPath><linearGradient id="H" spreadMethod="pad" gradientTransform="matrix(0,480.304,480.304,0,240.152,913.496)" gradientUnits="userSpaceOnUse" y2="0" x2="1" y1="0" x1="0"><stop offset="0" stop-color="#0e6024"/><stop offset=".85" stop-color="#1aae48"/></linearGradient><path id="I" d="M3018.99 599.852c21.67 4.324 46.22 6.492 73.68 6.492 27.44 0 52.01-2.168 73.68-6.492V39.66c-21.67-4.34-46.24-6.5-73.68-6.5-27.46 0-52.01 2.16-73.68 6.5v560.192"/></defs><g transform="matrix(.125 0 0 -.125 0 177.175)"><path d="M937.051 1393.8c69.439 15.07 146.709 23.56 228.389 23.56 81.66 0 158.94-8.49 228.36-23.56 15.06-69.44 23.55-146.71 23.55-228.39 0-81.66-8.49-158.94-23.55-228.355h0c-69.45-15.071-146.72-23.559-228.39-23.559-81.66 0-158.94 8.488-228.359 23.559-15.071 69.445-23.559 146.715-23.559 228.385 0 81.66 8.488 158.94 23.559 228.36" fill="#19ae48"/><g clip-path="url(#A)"><path d="M1393.8 1393.8c15.06-69.44 23.55-146.71 23.55-228.39 0-81.66-8.49-158.94-23.55-228.355h0c-69.45-15.071-146.72-23.559-228.39-23.559-81.66 0-158.94 8.488-228.359 23.559L1393.8 1393.8" fill="url(#B)"/></g><path d="M480.305 937.055c69.441 15.066 146.711 23.558 228.386 23.558 81.661 0 158.942-8.492 228.36-23.558 15.066-69.442 23.558-146.711 23.558-228.387 0-81.66-8.492-158.941-23.558-228.359h0c-69.446-15.067-146.711-23.559-228.387-23.559-81.66 0-158.941 8.492-228.359 23.559-15.071 69.441-23.559 146.711-23.559 228.386 0 81.66 8.488 158.942 23.559 228.36" fill="#59c134"/><g clip-path="url(#C)"><path d="M937.051 937.055c15.066-69.442 23.558-146.711 23.558-228.387 0-81.66-8.492-158.941-23.558-228.359h0c-69.446-15.067-146.711-23.559-228.387-23.559-81.66 0-158.941 8.492-228.359 23.559l456.746 456.746" fill="url(#D)"/></g><path d="M23.559 480.309c69.445 15.07 146.711 23.558 228.386 23.558 81.66 0 158.942-8.488 228.36-23.558 15.066-69.438 23.558-146.707 23.558-228.387 0-81.66-8.492-158.941-23.558-228.363h0C410.859 8.488 333.594 0 251.918 0 170.258 0 92.977 8.488 23.559 23.559 8.488 93.012 0 170.27 0 251.949c0 81.66 8.488 158.942 23.559 228.36" fill="#918f90"/><g clip-path="url(#E)"><path d="M480.305 480.309c15.066-69.438 23.558-146.707 23.558-228.387 0-81.66-8.492-158.941-23.558-228.363h0C410.859 8.488 333.594 0 251.918 0 170.258 0 92.977 8.488 23.559 23.559l456.746 456.75" fill="url(#F)"/></g><path d="M480.305 1393.8c15.066-69.42 23.558-146.7 23.558-228.36 0-81.67-8.492-158.94-23.558-228.385-69.418-15.071-146.7-23.559-228.36-23.559-81.675 0-158.941 8.488-228.386 23.559h0C8.488 1006.47 0 1083.75 0 1165.41c0 81.68 8.488 158.95 23.559 228.39 69.418 15.07 146.699 23.56 228.359 23.56 81.676 0 158.941-8.49 228.387-23.56" fill="#19ae48"/><g clip-path="url(#G)"><path d="M480.305 937.055c-69.418-15.071-146.7-23.559-228.36-23.559-81.675 0-158.941 8.488-228.386 23.559h0C8.488 1006.47 0 1083.75 0 1165.41c0 81.68 8.488 158.95 23.559 228.39l456.746-456.745" fill="url(#H)"/></g><path d="M2069.93 817.586c-10.83-2.168-23.29-3.797-37.38-4.879-14.08-1.078-27.63-1.621-40.62-1.621-13.01 0-26.56.543-40.64 1.621-14.09 1.082-26.55 2.711-37.38 4.879l92.1 180.949-208.04 379.235c11.54 2.17 25.09 3.79 40.64 4.88 15.51 1.08 30.14 1.62 43.87 1.62 14.45 0 29.43-.54 44.97-1.62 15.53-1.09 29.07-2.71 40.64-4.88l108.35-232.96 107.26 232.96c10.11 2.17 22.57 3.79 37.39 4.88 14.8 1.08 28.35 1.62 40.63 1.62s25.82-.54 40.64-1.62c14.79-1.09 27.25-2.71 37.38-4.88l-269.81-560.184m431.25 280.634c0-56.34 10.3-99.868 30.88-130.568 20.59-30.707 51.47-46.05 92.65-46.05 41.17 0 72.05 15.343 92.64 46.05 20.58 30.7 30.88 74.228 30.88 130.568 0 56.35-10.3 99.69-30.88 130.02-20.59 30.35-51.47 45.51-92.64 45.51-41.18 0-72.06-15.16-92.65-45.51-20.58-30.33-30.88-73.67-30.88-130.02zm123.53-293.638c-45.51 0-85.24 7.231-119.19 21.668-33.96 14.445-62.3 34.676-85.06 60.68-22.75 26.008-39.92 56.886-51.47 92.64-11.57 35.76-17.34 74.94-17.34 117.57 0 43.34 5.77 82.89 17.34 118.64 11.55 35.76 28.72 66.65 51.47 92.65 22.76 26 51.1 46.21 85.06 60.67 33.95 14.45 73.68 21.68 119.19 21.68s85.22-7.23 119.19-21.68c33.94-14.46 62.29-34.67 85.06-60.67 22.75-26 39.9-56.89 51.46-92.65 11.55-35.75 17.34-75.3 17.34-118.64 0-42.63-5.79-81.81-17.34-117.57-11.56-35.754-28.71-66.632-51.46-92.64-22.77-26.004-51.12-46.235-85.06-60.68-33.97-14.437-73.68-21.668-119.19-21.668m878.08 13.004c-13.01-2.168-27.47-3.797-43.34-4.879-15.9-1.078-30.35-1.621-43.35-1.621s-27.46.543-43.34 1.621c-15.9 1.082-30.35 2.711-43.34 4.879l-147.37 248.124c41.18 14.45 72.6 32.33 94.27 53.64 21.67 21.29 32.51 47.49 32.51 78.56 0 57.78-39.74 86.68-119.19 86.68-7.96 0-16.25-.38-24.92-1.08-8.67-.73-18.42-1.81-29.26-3.25V817.586a329.91 329.91 0 0 0-33.05-4.879c-11.21-1.078-24.02-1.621-38.46-1.621-26.73 0-50.93 2.164-72.6 6.5v560.184c34.68 3.61 70.43 6.68 107.28 9.21 36.83 2.52 67.89 3.8 93.18 3.8 86.68 0 153.32-15.01 199.91-44.97 46.59-29.98 69.88-75.68 69.88-137.07 0-34.67-10.11-66.83-30.33-96.44-20.23-29.62-48.76-53.82-85.6-72.59l157.12-222.124m258.96 291.464l160.36 268.72c13 2.17 26.54 3.79 40.64 4.88 14.08 1.08 27.62 1.62 40.63 1.62 13 0 26.54-.54 40.63-1.62 14.09-1.09 27.63-2.71 40.63-4.88l-170.12-256.8 189.62-303.384c-11.56-2.168-24.92-3.797-40.08-4.879-15.17-1.078-29.99-1.621-44.43-1.621-14.46 0-29.26.543-44.42 1.621-15.18 1.082-28.55 2.711-40.1 4.879l-173.36 291.464zm-176.62 268.72c21.67 4.34 46.22 6.5 73.68 6.5 27.44 0 52.01-2.16 73.68-6.5V817.586c-21.67-4.336-46.24-6.5-73.68-6.5-27.46 0-52.01 2.164-73.68 6.5v560.184m701.05-318.56c-40.46 12.27-71.88 30.88-94.26 55.81-22.41 24.92-33.6 57.59-33.6 98.06 0 26.71 5.42 51.09 16.26 73.13 10.83 22.03 26.36 40.81 46.59 56.35 20.22 15.52 44.24 27.44 72.06 35.76 27.8 8.29 59.05 12.46 93.73 12.46 13.71 0 28.34-.73 43.87-2.17 15.53-1.45 30.88-3.25 46.06-5.42 15.16-2.17 29.42-4.87 42.79-8.12 13.36-3.26 25.1-6.69 35.22-10.3-2.9-20.96-7.23-42.26-13-63.93-5.79-21.67-12.3-39.73-19.5-54.17-20.96 7.94-44.8 14.62-71.52 20.04-26.74 5.42-49.49 8.13-68.26 8.13-23.84 0-42.99-4.17-57.43-12.46-14.46-8.32-21.67-20.78-21.67-37.38 0-14.46 5.96-25.84 17.88-34.14 11.91-8.31 26.17-15 42.8-20.04l73.67-21.67c44.79-13.01 78.57-31.61 101.32-55.8 22.76-24.22 34.13-57.97 34.13-101.319 0-58.508-22.21-104.386-66.64-137.605-44.42-33.235-105.29-49.844-182.58-49.844-32.5 0-65.01 2.539-97.52 7.582-32.5 5.063-58.87 11.191-79.09 18.426 2.87 21.668 7.4 43.508 13.55 65.551 6.12 22.023 12.46 39.55 18.95 52.55 8.67-3.621 18.6-7.039 29.81-10.293 11.18-3.25 23.29-6.144 36.3-8.664 12.99-2.546 26.17-4.707 39.54-6.504 13.36-1.812 26.18-2.71 38.46-2.71 28.89 0 53.1 4.507 72.6 13.543 19.5 9.027 29.26 23.296 29.26 42.804 0 16.606-6.88 29.613-20.59 39.003-13.73 9.38-31.79 17.34-54.18 23.84l-65.01 19.5m730.29 318.56c21.68 4.34 46.22 6.5 73.68 6.5 27.45 0 52.01-2.16 73.68-6.5V817.586c-21.67-4.336-46.23-6.5-73.68-6.5-27.46 0-52 2.164-73.68 6.5v218.874c-28.17-7.23-62.48-10.84-102.93-10.84-39.02 0-72.6 3.61-100.77 10.84V817.586c-21.67-4.336-46.24-6.5-73.69-6.5-27.46 0-52.01 2.164-73.68 6.5v560.184c21.67 4.34 46.22 6.5 73.68 6.5 27.45 0 52.02-2.16 73.69-6.5v-217.79c11.54-3.62 26.54-6.69 44.97-9.21 18.41-2.54 37-3.79 55.8-3.79 17.33 0 35.75 1.44 55.25 4.34 19.51 2.87 35.39 6.12 47.68 9.75v216.7m266.54 0c21.67 4.34 46.22 6.5 73.68 6.5 27.44 0 52.01-2.16 73.68-6.5V817.586c-21.67-4.336-46.24-6.5-73.68-6.5-27.46 0-52.01 2.164-73.68 6.5v560.184m777.98-560.184c-13.01-2.168-27.46-3.797-43.34-4.879-15.9-1.078-30.34-1.621-43.35-1.621-13 0-27.46.543-43.34 1.621-15.9 1.082-30.34 2.711-43.34 4.879l-147.36 248.124c41.17 14.45 72.59 32.33 94.26 53.64 21.67 21.29 32.51 47.49 32.51 78.56 0 57.78-39.73 86.68-119.19 86.68-7.95 0-16.25-.38-24.92-1.08-8.67-.73-18.42-1.81-29.26-3.25V817.586c-10.83-2.168-21.85-3.797-33.04-4.879-11.21-1.078-24.03-1.621-38.47-1.621-26.73 0-50.93 2.164-72.6 6.5v560.184c34.68 3.61 70.43 6.68 107.28 9.21 36.83 2.52 67.89 3.8 93.18 3.8 86.68 0 153.32-15.01 199.91-44.97 46.6-29.98 69.89-75.68 69.89-137.07 0-34.67-10.12-66.83-30.33-96.44-20.24-29.62-48.76-53.82-85.61-72.59l157.12-222.124m195.03 227.544c0-44.8 10.11-76.036 30.34-93.728 20.21-17.711 54.89-26.547 104.02-26.547 20.94 0 43.69.899 68.27 2.711 24.55 1.789 46.59 4.5 66.09 8.125 2.88-9.394 5.23-19.152 7.04-29.257 1.8-10.125 2.71-20.231 2.71-30.336 0-18.797-1.81-37.215-5.42-55.262-44.8-10.836-93.91-16.254-147.36-16.254-47.67 0-88.49 4.52-122.44 13.543-33.96 9.023-61.59 23.652-82.89 43.883-21.32 20.215-37.02 46.406-47.13 78.558-10.13 32.137-15.18 71.684-15.18 118.644v318.56h404.16c4.34-16.62 6.51-36.84 6.51-60.67 0-24.57-2.17-44.8-6.51-60.68h-262.21v-100.78h219.96c2.17-7.95 3.79-17.16 4.87-27.62 1.09-10.48 1.63-19.69 1.63-27.63 0-7.96-.54-17.17-1.63-27.63-1.08-10.48-2.7-19.69-4.87-27.63h-219.96" fill="#19ae48"/><g fill="#59c134"><path d="M1998.42 133.922c12.28-1.453 24.92-2.543 37.93-3.254 13-.719 26.71-1.078 41.17-1.078 43.34 0 74.04 6.859 92.1 20.59 18.05 13.711 27.09 31.422 27.09 53.09 0 22.378-8.67 40.101-26 53.089-17.34 13.012-48.41 19.512-93.19 19.512h-79.1V133.922zm68.26 242.719c37.56 0 63.75 5.949 78.57 17.879 14.79 11.91 22.2 27.976 22.2 48.21 0 22.383-8.85 39.18-26.54 50.391-17.71 11.192-42.45 16.789-74.23 16.789-12.28 0-23.66-.371-34.13-1.086-10.48-.722-21.85-1.804-34.13-3.242V376.641h68.26zm-210.2 223.211c15.17 2.156 31.59 3.953 49.3 5.41l54.17 3.797 53.1 2.707c16.96.711 31.96 1.082 44.97 1.082 83.06 0 146.98-11.903 191.79-35.692 44.77-23.801 67.17-61.281 67.17-112.461 0-15.136-2.53-29.211-7.58-42.179-5.06-12.985-11.57-24.696-19.5-35.145a167.76 167.76 0 0 0-27.09-28.121c-10.13-8.301-20.59-15.68-31.43-22.16 13.72-2.891 27.45-7.602 41.18-14.102 13.71-6.519 26.01-15.207 36.84-26.058 10.84-10.871 19.67-24.262 26.55-40.18 6.86-15.91 10.29-34.012 10.29-54.25 0-31.852-7.05-58.801-21.13-80.879s-33.23-40.16-57.43-54.262c-24.21-14.121-52.92-24.43-86.13-30.937-33.25-6.504-69-9.762-107.28-9.762-15.17 0-32.33.371-51.46 1.078l-57.97 2.711-57.44 3.789c-18.78 1.461-35.75 3.25-50.92 5.422v560.192m897.58 0c21.67 4.324 46.23 6.492 73.69 6.492 27.45 0 52.01-2.168 73.68-6.492V63.488c-26.73-10.109-59.05-18.789-96.97-26-37.93-7.207-77.48-10.828-118.66-10.828-40.46 0-76.75 4.52-108.89 13.539-32.15 9.031-59.43 23.469-81.81 43.34-22.39 19.859-39.54 45.32-51.46 76.391-11.92 31.05-17.89 68.621-17.89 112.679v327.243c21.67 4.324 46.23 6.492 73.69 6.492 27.44 0 52.01-2.168 73.68-6.492V286.711c0-49.852 9.21-85.063 27.62-105.652 18.43-20.579 45.69-30.879 81.81-30.879 16.61 0 30.34.89 41.18 2.711 10.83 1.789 20.94 4.5 30.33 8.121v438.84"/><use xlink:href="#I"/><path d="M3672.9 163.18c2.17-10.129 3.79-20.59 4.88-31.43 1.08-10.828 1.63-20.949 1.63-30.328 0-9.403-.55-19.512-1.63-30.344-1.09-10.84-2.71-21.316-4.88-31.418h-388.99v560.192c21.67 4.324 46.22 6.492 73.68 6.492 27.44 0 52.01-2.168 73.68-6.492V163.18h241.63m223.52-10.84c11.54-1.449 22.03-2.539 31.42-3.238 9.38-.731 20.22-1.09 32.5-1.09 45.51 0 80.36 13.718 104.56 41.179 24.2 27.438 36.3 71.137 36.3 131.098 0 59.949-12.1 103.488-36.3 130.566-24.2 27.09-59.05 40.637-104.56 40.637-12.28 0-23.12-.371-32.5-1.086-9.39-.722-19.88-1.804-31.42-3.25V152.34zm-147.36 447.512c13 2.156 27.8 3.953 44.42 5.41l50.93 3.797 50.39 2.707c16.25.711 30.88 1.082 43.87 1.082 54.9 0 102.03-7.227 141.41-21.668 39.37-14.465 71.68-34.504 96.97-60.137 25.29-25.656 43.89-56.348 55.8-92.102 11.93-35.761 17.88-75.3 17.88-118.652 0-43.34-5.95-82.891-17.88-118.641-11.91-35.757-30.51-66.636-55.8-92.648s-57.6-46.23-96.97-60.672c-39.38-14.449-86.51-21.668-141.41-21.668-12.99 0-27.62.371-43.87 1.078l-50.39 2.711-50.93 3.789c-16.62 1.461-31.42 3.25-44.42 5.422v560.192"/><use xlink:href="#I" x="1323.61"/><path d="M5105.95 39.66c-19.5-4.34-41.9-6.5-67.18-6.5-25.29 0-47.67 2.16-67.18 6.5-15.16 32.5-32.14 66.09-50.92 100.77-18.79 34.672-38.29 68.261-58.51 100.769-20.23 32.5-40.1 62.84-59.6 91.012-19.5 28.18-37.57 52.367-54.18 72.598V39.66c-19.5-4.34-43.34-6.5-71.51-6.5-26.73 0-49.85 2.16-69.35 6.5v560.192c7.94 2.156 17.7 3.789 29.26 4.871 11.54 1.086 23.84 1.621 36.85 1.621 12.99 0 25.27-.535 36.83-1.621 11.54-1.082 21.3-2.715 29.26-4.871 20.21-23.137 40.99-48.223 62.3-75.313 21.3-27.09 42.07-54.902 62.3-83.43 20.21-28.539 39.01-56.879 56.35-85.058 17.33-28.172 32.14-54.18 44.42-78.02v321.821c19.5 4.324 42.62 6.492 69.35 6.492 28.17 0 52.01-2.168 71.51-6.492V39.66m441.1 284.969c9.38 2.16 20.76 3.793 34.13 4.871 13.35 1.078 25.09 1.629 35.22 1.629 10.11 0 21.83-.551 35.21-1.629 13.35-1.078 24.74-2.711 34.13-4.871V54.828c-20.96-7.957-47.13-14.629-78.55-20.047-31.43-5.422-68.81-8.121-112.15-8.121-49.84 0-93.18 7.219-130.03 21.668-36.83 14.441-67.55 34.66-92.1 60.672-24.56 26.012-42.8 56.891-54.71 92.648-11.93 35.75-17.89 74.93-17.89 117.563 0 43.348 5.96 82.891 17.89 118.648 11.91 35.75 30.15 66.641 54.71 92.637 24.55 26.004 55.27 46.219 92.1 60.684 36.85 14.441 80.19 21.668 130.03 21.668 29.61 0 57.97-2.352 85.06-7.039 27.09-4.707 53.26-12.11 78.55-22.219-2.9-21.668-7.42-43.524-13.54-65.547-6.14-22.051-12.46-39.551-18.96-52.559-16.63 5.774-34.51 10.84-53.64 15.176-19.15 4.328-41.36 6.496-66.64 6.496-23.12 0-44.25-2.89-63.39-8.664-19.14-5.789-35.58-15.359-49.29-28.719-13.73-13.371-24.38-30.703-31.97-52.003-7.58-21.321-11.37-47.508-11.37-78.559 0-30.34 3.6-56.34 10.83-78.012 7.21-21.668 17.69-39.199 31.42-52.558 13.71-13.371 29.97-23.129 48.76-29.25 18.78-6.153 39.72-9.211 62.84-9.211 8.68 0 16.98.351 24.93 1.09 7.93.699 14.09 1.781 18.42 3.242v170.117m598.09-43.34c-40.47 12.27-71.89 30.871-94.27 55.801-22.4 24.922-33.59 57.59-33.59 98.062 0 26.711 5.42 51.094 16.26 73.137 10.83 22.02 26.36 40.801 46.59 56.348 20.21 15.515 44.24 27.441 72.05 35.75 27.8 8.301 59.05 12.461 93.73 12.461 13.71 0 28.34-.731 43.88-2.168 15.52-1.453 30.88-3.25 46.05-5.418s29.43-4.875 42.8-8.125c13.35-3.254 25.09-6.692 35.21-10.293-2.89-20.957-7.23-42.258-13-63.926-5.79-21.672-12.29-39.738-19.5-54.18-20.96 7.938-44.79 14.629-71.51 20.047-26.74 5.422-49.5 8.125-68.27 8.125-23.83 0-42.98-4.168-57.43-12.461-14.45-8.308-21.67-20.769-21.67-37.383 0-14.461 5.96-25.839 17.88-34.125 11.92-8.312 26.18-15 42.81-20.05l73.67-21.672c44.78-13 78.56-31.61 101.32-55.797 22.75-24.211 34.13-57.973 34.13-101.313 0-58.519-22.22-104.398-66.64-137.609-44.43-33.23-105.3-49.84-182.58-49.84-32.5 0-65.01 2.539-97.52 7.578-32.5 5.063-58.88 11.191-79.09 18.422 2.87 21.668 7.39 43.508 13.54 65.551 6.13 22.027 12.46 39.551 18.96 52.559 8.67-3.622 18.59-7.04 29.8-10.29 11.18-3.261 23.29-6.16 36.3-8.679 13-2.539 26.17-4.699 39.54-6.5 13.36-1.813 26.18-2.711 38.47-2.711 28.89 0 53.09 4.512 72.6 13.551 19.5 9.019 29.25 23.289 29.25 42.8 0 16.598-6.87 29.61-20.58 39.008-13.73 9.371-31.8 17.332-54.18 23.832l-65.01 19.508m501.44 39c0-56.34 10.3-99.859 30.88-130.57 20.59-30.699 51.47-46.039 92.65-46.039 41.17 0 72.05 15.34 92.64 46.039 20.58 30.711 30.88 74.23 30.88 130.57 0 56.352-10.3 99.688-30.88 130.031-20.59 30.34-51.47 45.508-92.64 45.508-41.18 0-72.06-15.168-92.65-45.508-20.58-30.343-30.88-73.679-30.88-130.031zM6770.11 26.66c-45.51 0-85.24 7.219-119.19 21.668-33.96 14.441-62.3 34.66-85.06 60.672-22.75 26.012-39.92 56.891-51.47 92.648-11.57 35.75-17.34 74.93-17.34 117.563 0 43.348 5.77 82.891 17.34 118.648 11.55 35.75 28.72 66.641 51.47 92.637 22.76 26.004 51.1 46.219 85.06 60.684 33.95 14.441 73.68 21.668 119.19 21.668s85.22-7.227 119.19-21.668c33.94-14.465 62.29-34.68 85.06-60.684 22.75-25.996 39.9-56.887 51.46-92.637 11.55-35.757 17.34-75.3 17.34-118.648 0-42.633-5.79-81.813-17.34-117.563-11.56-35.757-28.71-66.636-51.46-92.648-22.77-26.012-51.12-46.23-85.06-60.672-33.97-14.449-73.68-21.668-119.19-21.668m754.02 147.36c6.51-13.008 12.82-30.532 18.97-52.559 6.12-22.043 10.64-43.883 13.53-65.551-20.22-7.949-42.79-14.809-67.71-20.59-24.92-5.77-55.8-8.66-92.65-8.66-46.96 0-88.13 7.219-123.52 21.668-35.4 14.441-65.01 34.66-88.85 60.672s-41.72 56.891-53.63 92.648c-11.93 35.75-17.88 74.93-17.88 117.563 0 43.348 5.95 82.891 17.88 118.648 11.91 35.75 29.79 66.641 53.63 92.637 23.84 26.004 53.45 46.219 88.85 60.684 35.39 14.441 76.56 21.668 123.52 21.668 36.85 0 67.73-2.891 92.65-8.672 24.92-5.789 47.49-12.645 67.71-20.586-2.89-21.668-7.41-43.524-13.53-65.547-6.15-22.051-12.46-39.551-18.97-52.559-16.63 5.774-33.96 10.84-52.01 15.176-18.06 4.328-39.73 6.496-65.01 6.496-20.23 0-39.2-2.89-56.88-8.664-17.72-5.789-33.05-15.359-46.06-28.719-13-13.371-23.29-30.703-30.88-52.003-7.58-21.321-11.37-47.508-11.37-78.559 0-31.07 3.79-57.262 11.37-78.563 7.59-21.308 17.88-38.468 30.88-51.457 13.01-13.011 28.34-22.41 46.06-28.179 17.68-5.793 36.65-8.672 56.88-8.672 25.28 0 46.95 2.172 65.01 6.5 18.05 4.34 35.38 9.39 52.01 15.18"/><use xlink:href="#I" x="4619.55"/><path d="M8043.89 267.199c0-44.801 10.11-76.031 30.34-93.73 20.22-17.699 54.89-26.539 104.02-26.539 20.94 0 43.7.898 68.27 2.711 24.55 1.789 46.59 4.5 66.09 8.121 2.88-9.391 5.23-19.153 7.04-29.262 1.8-10.109 2.72-20.219 2.72-30.332 0-18.797-1.82-37.219-5.42-55.258-44.81-10.832-93.92-16.25-147.37-16.25-47.67 0-88.49 4.52-122.44 13.539-33.96 9.031-61.59 23.652-82.89 43.879-21.32 20.211-37.02 46.41-47.13 78.563-10.13 32.129-15.17 71.679-15.17 118.648v318.563h404.16c4.33-16.633 6.5-36.848 6.5-60.684 0-24.563-2.17-44.797-6.5-60.676h-262.22V377.719h219.96c2.17-7.957 3.79-17.168 4.87-27.629 1.09-10.481 1.63-19.692 1.63-27.629 0-7.961-.54-17.172-1.63-27.633-1.08-10.476-2.7-19.687-4.87-27.629h-219.96m336.21 332.653h478.93a296.55 296.55 0 0 0 4.87-30.891c1.08-10.477 1.62-20.41 1.62-29.793 0-9.395-.54-19.336-1.62-29.797-1.09-10.476-2.72-20.769-4.87-30.879h-165.79V39.66c-21.68-4.34-46.24-6.5-73.68-6.5-27.46 0-52.01 2.16-73.68 6.5v438.832H8380.1a285.05 285.05 0 0 0-4.87 30.879c-1.09 10.461-1.63 20.402-1.63 29.797 0 9.383.54 19.316 1.63 29.793 1.07 10.469 2.7 20.762 4.87 30.891M9177.89 39.66c-10.83-2.172-23.29-3.789-37.38-4.879-14.08-1.082-27.63-1.621-40.62-1.621-13.01 0-26.56.539-40.64 1.621-14.09 1.09-26.55 2.707-37.38 4.879l92.1 180.949-208.04 379.243c11.54 2.156 25.09 3.789 40.63 4.871 15.52 1.086 30.15 1.621 43.88 1.621 14.45 0 29.43-.535 44.97-1.621 15.53-1.082 29.07-2.715 40.64-4.871l108.35-232.973 107.26 232.973c10.11 2.156 22.57 3.789 37.39 4.871 14.8 1.086 28.35 1.621 40.63 1.621s25.82-.535 40.63-1.621c14.8-1.082 27.26-2.715 37.39-4.871L9177.89 39.66"/></g></g></svg>