<svg xmlns="http://www.w3.org/2000/svg" viewBox="0 0 111.7 25.2"><path d="M108.5 18.6c-1.8 0-3.2 1.4-3.2 3.2h0c0 1.8 1.4 3.2 3.2 3.2h0c1.8 0 3.2-1.4 3.2-3.2 0-1.7-1.4-3.1-3.2-3.2h0zm-10.4-2.4c.1-2.5-1.8-4.7-4.4-4.8-2.5-.1-4.7 1.8-4.8 4.4-.1 2.5 1.8 4.7 4.4 4.8h.2c2.4 0 4.5-2 4.6-4.4-.1 0-.1 0 0 0h0zm0-8.6h5.1v17.1h-5.1v-1.1c-1.5 1-3.2 1.6-5 1.6a8.96 8.96 0 0 1-9-9 8.96 8.96 0 0 1 9-9c1.8 0 3.5.6 5 1.6V7.6zM57.5 9.8V7.6h-5.2v17.1h5.2v-8c0-2.7 2.9-4.1 4.9-4.1h0v-5c-1.8 0-3.6.8-4.9 2.2zm-12.9 6.4c.1-2.5-1.9-4.7-4.4-4.8s-4.7 1.9-4.8 4.4 1.9 4.7 4.4 4.8h.2c2.5 0 4.6-2 4.6-4.4zm0-8.6h5.1v17.1h-5v-1.1c-4.1 2.8-9.7 1.7-12.5-2.4s-1.7-9.7 2.4-12.5c3.1-2.1 7.1-2.1 10.1 0l-.1-1.1zm30.5-.4c-2-.1-4 .8-5.2 2.4v-2h-5v17.1H70v-9c-.2-2 1.3-3.7 3.3-3.9h.5c2.2 0 3.5 1.3 3.5 3.8v9h5.1V13.8c-.1-4-3.2-6.6-7.3-6.6h0zM23.3 24.7h5.3V0h-5.3v24.7zM0 24.7h5.6V0H0v24.7zM19.6 0c0 5.2-2 10.3-5.7 14l7.8 10.7h-6.9L6.3 13.1l2.2-1.6c3.6-2.7 5.7-7 5.7-11.5h5.4z" fill="#0a0b09"/></svg>