<?xml version="1.0" encoding="utf-8"?>
<svg version="1.1" id="Layer_1" xmlns="http://www.w3.org/2000/svg" xmlns:xlink="http://www.w3.org/1999/xlink" x="0px" y="0px"
	 viewBox="0 0 135 42.73" style="enable-background:new 0 0 135 42.73;" xml:space="preserve">
<g transform="translate(-279.02135,-648.85214)">
	<path style="fill:#686366;" d="M287.46,688.44l-0.16,0.37c-0.15-0.1-0.38-0.15-0.7-0.15c-0.3,0-0.54,0.12-0.72,0.36
		c-0.18,0.24-0.27,0.56-0.27,0.94c0,0.36,0.09,0.65,0.28,0.88c0.19,0.22,0.42,0.34,0.72,0.34c0.32,0,0.56-0.11,0.73-0.32l0.26,0.34
		c-0.27,0.25-0.62,0.38-1.04,0.38c-0.44,0-0.8-0.15-1.05-0.45s-0.38-0.7-0.38-1.2c0-0.48,0.13-0.88,0.41-1.19
		c0.27-0.32,0.63-0.48,1.05-0.48C286.96,688.26,287.25,688.32,287.46,688.44"/>
	<path style="fill:#686366;" d="M293.51,689.9c0,0.37,0.08,0.67,0.23,0.92c0.15,0.25,0.37,0.37,0.65,0.37
		c0.32,0,0.56-0.11,0.73-0.34c0.17-0.22,0.25-0.54,0.25-0.95c0-0.83-0.33-1.24-0.98-1.24c-0.29,0-0.51,0.11-0.65,0.34
		C293.58,689.21,293.51,689.52,293.51,689.9 M293.02,689.9c0-0.46,0.12-0.85,0.37-1.17c0.24-0.31,0.58-0.47,1-0.47
		c0.47,0,0.83,0.15,1.09,0.43c0.25,0.29,0.38,0.69,0.38,1.2c0,0.53-0.13,0.94-0.38,1.24c-0.25,0.3-0.62,0.45-1.09,0.45
		c-0.42,0-0.76-0.16-1.01-0.47C293.14,690.8,293.02,690.39,293.02,689.9"/>
	<path style="fill:#686366;" d="M304.01,691.53l-0.41-2.07l-0.74,2.11h-0.12l-0.77-2.11l-0.4,2.07h-0.44l0.63-3.21h0.21l0.82,2.34
		l0.75-2.34h0.21l0.69,3.21"/>
	<path style="fill:#686366;" d="M310.34,688.72v1.19c0.2,0.01,0.3,0.02,0.31,0.02c0.58,0,0.86-0.21,0.86-0.64
		c0-0.39-0.3-0.59-0.92-0.59L310.34,688.72 M310.34,690.3v1.24h-0.46v-3.21c0.35-0.01,0.57-0.02,0.63-0.02
		c0.99,0,1.49,0.31,1.49,0.94c0,0.72-0.44,1.08-1.31,1.08C310.63,690.32,310.52,690.31,310.34,690.3"/>
	<path style="fill:#686366;" d="M318.67,689.12l-0.53,1.42h1.01L318.67,689.12z M319.52,691.53l-0.23-0.68h-1.27l-0.25,0.68h-0.52
		l1.39-3.26h0.12l1.28,3.26"/>
	<path style="fill:#686366;" d="M327.64,691.58l-1.76-2.35v2.3h-0.44v-3.21h0.19l1.71,2.22v-2.22h0.44v3.26"/>
	<path style="fill:#686366;" d="M333.61,691.53h0.47v-3.21h-0.47V691.53z"/>
	<path style="fill:#686366;" d="M340.37,688.72v0.89h1.1v0.37h-1.1v1.16h1.54v0.4h-2.01v-3.21h2.01v0.4"/>
	<path style="fill:#686366;" d="M347.36,691.39l0.17-0.4c0.09,0.06,0.2,0.11,0.33,0.15c0.13,0.04,0.24,0.06,0.35,0.06
		c0.18,0,0.33-0.04,0.44-0.14c0.11-0.09,0.17-0.21,0.17-0.36l-0.1-0.3c-0.06-0.1-0.21-0.2-0.46-0.3l-0.27-0.12
		c-0.23-0.1-0.4-0.22-0.49-0.37c-0.09-0.14-0.14-0.31-0.14-0.5c0-0.24,0.09-0.44,0.27-0.6c0.18-0.16,0.41-0.23,0.69-0.23
		c0.38,0,0.64,0.06,0.79,0.17l-0.14,0.38c-0.06-0.04-0.16-0.08-0.28-0.12c-0.13-0.04-0.24-0.06-0.36-0.06
		c-0.16,0-0.28,0.04-0.37,0.13c-0.09,0.09-0.14,0.2-0.14,0.33l0.05,0.22l0.14,0.17c0.06,0.04,0.18,0.11,0.36,0.19l0.28,0.12
		c0.23,0.1,0.4,0.23,0.49,0.37c0.1,0.15,0.14,0.33,0.14,0.55c0,0.24-0.1,0.44-0.31,0.61c-0.21,0.17-0.48,0.25-0.83,0.25
		C347.83,691.59,347.57,691.52,347.36,691.39"/>
	<path style="fill:#686366;" d="M361.34,691.53v-3.21h0.46v2.82h1.55v0.4"/>
	<path style="fill:#686366;" d="M368.88,691.53h0.46v-3.21h-0.46V691.53z"/>
	<path style="fill:#686366;" d="M377.74,691.53l-0.41-2.07l-0.74,2.11h-0.11l-0.77-2.11l-0.4,2.07h-0.44l0.64-3.21h0.21l0.81,2.34
		l0.75-2.34h0.21l0.69,3.21"/>
	<path style="fill:#686366;" d="M383.68,691.53h0.47v-3.21h-0.47V691.53z"/>
	<path style="fill:#686366;" d="M391.22,688.72v2.82h-0.46v-2.82h-1.09v-0.4h2.69v0.4"/>
	<path style="fill:#686366;" d="M398.26,688.72v0.89h1.1v0.37h-1.1v1.16h1.55v0.4h-2.01v-3.21h2.01v0.4"/>
	<path style="fill:#686366;" d="M405.86,688.72v2.4c0.1,0.01,0.23,0.02,0.39,0.02c0.33,0,0.58-0.12,0.77-0.35
		c0.19-0.23,0.28-0.55,0.28-0.96c0-0.76-0.36-1.14-1.09-1.14C406.16,688.7,406.04,688.7,405.86,688.72 M406.08,691.53h-0.68v-3.21
		c0.43-0.01,0.72-0.02,0.84-0.02c0.48,0,0.85,0.14,1.13,0.41c0.28,0.27,0.42,0.64,0.42,1.09
		C407.78,690.95,407.21,691.53,406.08,691.53"/>
	<path style="fill:none;stroke:#686366;stroke-width:1.25;stroke-linecap:round;stroke-linejoin:round;" d="M279.65,683.46H413.4"/>
	<path style="fill:#686366;" d="M360.42,665.56c-2.74,0.38-5.49,1.11-6.87,3.35v-6.01h6.07c0.22-2.47,1.77-3.43,4.16-3.43
		c2.2,0,4.05,0.39,4.05,3.09C367.83,665.12,364.25,664.99,360.42,665.56 M367.83,669.89c0,1.36-0.17,5.24-5.08,5.24
		c-2.03,0-3.84-0.57-3.84-2.91c0-2.29,1.77-2.96,3.71-3.35c1.94-0.35,4.14-0.4,5.21-1.32L367.83,669.89z M336.85,674.6
		c-3.71,0-5.33-3.49-5.33-7.29c0-3.83,1.63-7.32,5.33-7.32c3.71,0,5.34,3.49,5.34,7.32C342.19,671.11,340.56,674.6,336.85,674.6
		 M315.34,674.6c-4.24,0-5.52-3.67-5.52-7.29c0-3.66,1.28-7.32,5.52-7.32c4.28,0,5.56,3.66,5.56,7.32
		C320.9,670.94,319.62,674.6,315.34,674.6 M406.01,655.89h-6.44l-4.18,15.44h-0.1l-3.88-15.44h-6.09l-3.79,15.49h-0.09l-4.19-15.49
		h-6.61l0.19,0.6c-1.94-0.95-4.47-1.22-6.76-1.22c-4.68,0-9.49,1.48-10.52,6.25v-12.68h-6.26v12.22c-1.72-3.97-5.09-5.79-8.28-5.79
		c-2.82,0-5.65,1.06-7.19,3.4h-0.08v-9.82h-6.26v11.73c-1.96-3.34-5.52-5.3-10.13-5.3c-7.15,0-11.78,4.76-11.78,12.04
		c0,1.77,0.27,3.39,0.8,4.83H298c-5.14,0-5.06-2.5-5.06-4.48v-18.82h-6.3c0,0,0.06,18.6,0,22.23c0,7.24,5.49,7.46,10.31,7.46h10.74
		v-1.69c1.97,1.59,4.58,2.48,7.66,2.48c4.61,0,8.17-1.97,10.13-5.29v4.67h5.95v-2.91h0.1c1.36,2.51,4.13,3.53,7.49,3.53
		c3.19,0,6.56-1.81,8.28-5.81v5.19h6.26v-2.63c1.3,2.2,3.87,3.25,6.87,3.25c2.78,0,5.69-0.75,7.68-2.83
		c0.04,0.75,0.22,1.5,0.44,2.21h6.34c-0.57-0.93-0.79-3-0.79-5.08v-6.86l3.78,11.94h6.48l3.88-15.31h0.08l4.06,15.31h6.44"/>
</g>
</svg>
