<?xml version="1.0" encoding="utf-8"?>
<svg version="1.1" id="Layer_1" xmlns="http://www.w3.org/2000/svg" xmlns:xlink="http://www.w3.org/1999/xlink" x="0px" y="0px"
	width="100px" height="100px" viewBox="0 0 520.04 520.04" style="enable-background:new 0 0 520.04 520.04;" xml:space="preserve">
<g>
	<g>
		<path style="fill:#E8E8E8;" d="M260.02,0C403.6,0,520.04,116.44,520.04,260.02c0,143.58-116.44,260.02-260.02,260.02
			S0,403.6,0,260.02C0,116.44,116.44,0,260.02,0"/>
		<path style="fill:#FFFFFF;" d="M260.02,5.2c140.72,0,254.82,114.1,254.82,254.82s-114.1,254.82-254.82,254.82
			S5.2,400.74,5.2,260.02S119.3,5.2,260.02,5.2"/>
	</g>
	<g>
		<path style="fill:#FE0000;" d="M264.94,106.84c-8.68,4.14-18,18.74-18,39.04c0,54.23,61.53,80.65,61.53,128.18
			c0,0,0.2,28.2-15.18,34.12v-11.23c0-34.31-66.7-76.51-66.7-114.18v-14.79c-8.68,4.14-18,19.13-18,39.24
			c0,51.86,61.53,75.33,61.53,128.18c0,0,0,22.08-13.6,29.18c0.4-1.19,0.4-2.56,0.4-3.75c0-2.37-0.4-4.34-0.4-4.34
			c-1.38-24.25-64.49-84.59-64.49-103.53c-55.45,15.19-101.4,42.99-101.4,77.31c0,45.95,75.33,82.77,168.02,82.77
			c0.59,0,0.98,0.4,1.58,0c93.66-0.14,169.19-38.4,169.19-84.54c0-34.31-42.35-63.7-102.34-76.12c1.77-4.54,1.77-8.48,1.77-8.48
			c0-42.98-63.89-84.8-63.89-122.26L264.94,106.84z"/>
	</g>
</g>
</svg>
