<svg xmlns="http://www.w3.org/2000/svg" viewBox="0 0 664 664"><path d="M0 0h664v664H0z" fill="#fff"/><path d="M574.4 374.2L544 325.8c-.2-.5-.4-1 0-1.5l28.1-34.1c1-1.1.4-2.3-1.1-2.3h-19.5c-.5 0-1.3.3-1.6.7l-21.8 28.1c-1.1 1.4-2.7.9-2.7-.9v-26.6c0-1-.7-1.4-1.3-1.4h-16.2c-.8 0-1.3.4-1.3 1.4v85.7c0 1 .5 1.4 1.3 1.4h16.2c.8 0 1.3-.4 1.3-1.4v-27.1l3.7-5.1c.7-1 1.6-.9 2.3.1l21 32.6c.4.5 1 .9 1.6.9h19.4c1.2 0 1.7-1 1-2.1zm-77.1.3l-13-37.1c-.2-.9-.1-1.5.7-2.1 5.5-3.8 10.4-11.4 10.4-19.2v-1.4c0-16.6-10.6-26.8-27.1-26.8h-33.9c-.8 0-1.3.4-1.3 1.4V375c0 1 .5 1.4 1.3 1.4h16.2c.8 0 1.3-.4 1.3-1.4v-33.3c0-1 .4-1.4 1.5-1.4h10.7c.5 0 1 .3 1.2.9l12.1 34.3c.1.5.7 1 1.2 1h17.5c1.4-.2 1.6-.9 1.2-2zm-20.6-59.1c0 4.6-3.7 8-8.4 8h-14.8c-1.1 0-1.5-.5-1.5-1.5v-15.1c0-1 .4-1.5 1.5-1.5h14.8c4.9 0 8.4 3.5 8.4 8.2v1.9zm-53.1 59.1L397 288.8c-.2-.7-.7-1-1.3-1h-12.1c-.8 0-1.1.3-1.3 1l-26.7 85.7c-.4 1.1.1 1.8 1.3 1.8H374c.7 0 1-.3 1.2-1l4-12.8c.2-.7.5-.9 1.5-.9h17.8c1 0 1.2.1 1.5.9l3.8 12.8c.2.7.5 1 1.3 1h17.2c1.3 0 1.8-.7 1.3-1.8zm-29.9-28.4h-8.3c-1.3 0-1.9-.9-1.6-1.7l.6-2.7c.5-2.1.9-4.3 1.4-6.4l1.6-7.7c.5-2.2.9-4.4 1.4-6.6.1-.6.2-1.1.4-1.7.1-.3.1-1.4.4-1.5.5-.1.5.4.6.7.1.6.2 1.2.4 1.8.2 1.2.5 2.4.7 3.6l1.6 7.8 1.5 7.5.9 4.6c0 .1 0 .3.1.4.1 1.1-.5 1.9-1.7 1.9zm-58.9-58.3h-29.9c-.8 0-1.3.4-1.3 1.4v85.7c0 1 .5 1.4 1.3 1.4h16.2c.8 0 1.3-.4 1.3-1.4v-33.3c0-1 .4-1.4 1.5-1.4h10.8c16.2-.1 27-11 27-25.3.1-16.7-10.3-27.1-26.9-27.1zm8.3 26.8c0 4.2-3.7 8-8.3 8H324c-1.1 0-1.5-.4-1.5-1.4v-14.5c0-1 .4-1.5 1.5-1.5h10.8c4.6 0 8.3 4 8.3 8.2v1.2zm-70.5 19c-.5-1-.4-2.3 0-3.1l21.4-40.7c.5-1 0-1.9-1.1-1.9h-18.7c-.8 0-1.3.3-1.8 1l-11 22.5c-.5 1.1-1.5 1.1-2 0l-11.6-22.5c-.2-.5-1-1-1.8-1h-18.6c-1.2 0-1.6.9-1.1 1.9l21.7 41.1c.4.7.4 1.7 0 2.4l-21.4 40.9c-.7 1.1-.2 2.1 1.1 2.1H246c1.1 0 1.6-.5 2-1.3l11.1-22c.5-1.1 1.3-1.1 1.9 0l11 22c.4.9 1 1.3 2 1.3h18.4c1.3 0 1.6-.9 1.1-1.9l-20.9-40.8zm-76.9-47.5h-8c-16.4 0-27.1 10.4-27.1 25.6v40.6c0 15.2 10.6 25.6 27.1 25.6h8c16.2 0 27.1-10.4 27.1-25.6v-40.6c0-15.3-10.8-25.6-27.1-25.6zm8.2 66.2c0 4.5-3.4 8.2-8.3 8.2h-8c-4.7 0-8.5-3.8-8.5-8.2v-40.6c0-4.4 4-8.2 8.5-8.2h8c4.7 0 8.3 3.7 8.3 8.2v40.6zM144 330.7c4.4-3.3 7.6-9 7.6-14.6v-2.7c0-16.3-10.2-25.6-27.1-25.6H90.6c-.8 0-1.3.4-1.3 1.4v85.7c0 1 .5 1.4 1.3 1.4h33.9c17 0 27.1-10.4 27.1-25.9v-2.9c0-5.5-3.1-11.7-7.6-15-1-.7-.8-1.1 0-1.8zm-11.1 20.1c0 4.5-3.8 8-8.4 8h-14.8c-1.1 0-1.5-.4-1.5-1.4V341c0-1 .4-1.5 1.5-1.5h14.8c4.9 0 8.4 3.5 8.4 8v3.3zm0-35.4c0 4.5-3.4 8-8.4 8h-14.8c-1.1 0-1.5-.5-1.5-1.5v-15.1c0-1 .4-1.5 1.5-1.5h14.8c4.9 0 8.4 3.7 8.4 8.2v1.9z" fill="#0c0c0c"/></svg>