<svg xmlns="http://www.w3.org/2000/svg" height="224.845" width="300"><path d="M0 112.421C0 50.325 67.173 0 150.008 0S300 50.325 300 112.421s-67.154 112.424-149.992 112.424S0 174.517 0 112.421" fill="#e51636"/><g fill="#fff"><path d="M179.77 138.205c.031-14.425 11.035-25.287 25.114-25.306 5.606 0 10.638 1.105 14.771 4.151v6.861c-3.185-2.354-7.721-4.394-14.771-4.372-10.755.057-17.742 7.582-17.67 18.664.082 10.821 7.415 18.655 17.67 18.655 6.38 0 10.091-1.165 14.771-4.366v6.877c-4.089 3.018-9.165 4.126-14.771 4.126-14.928 0-25.139-11.236-25.114-25.293m48.017-24.075v48.175h32.501v-6.647h-25.476v-14.67h22.168v-6.644h-22.168V120.76h24.283v-6.632h-31.308zM164.639 162.3h7.038v-48.175h-7.038V162.3zm-75.496-48.173v48.175h7.044v-20.569h20.578v-6.647H96.187v-14.327h23.043v-6.632H89.143z"/><path d="M39.445 138.205c0-10.818 7.425-18.664 17.651-18.664 10.232 0 17.632 7.847 17.632 18.664s-7.4 18.655-17.632 18.655c-10.226 0-17.651-7.834-17.651-18.655m-7.447 0c0 14.412 10.786 25.293 25.098 25.293 14.305 0 25.101-10.881 25.101-25.293 0-14.425-10.796-25.306-25.101-25.306-14.311 0-25.098 10.881-25.098 25.306m94.715-24.078v48.175h7.047v-20.569h20.565v-6.647H133.76v-14.327h23.049v-6.632h-30.096zm39.631-50.581c0 10.711 7.548 12.942 14.227 15.057 4.935 1.574 9.638 3.214 9.638 7.768 0 4.787-5.187 7.208-9.638 7.274-4.605.06-9.719-2.15-13.402-4.768l.013 7.047c3.553 2.949 8.539 4.674 13.248 4.63 9.896-.094 17.113-6.257 17.113-15.029 0-9.534-7.463-11.561-13.776-13.49-5.36-1.643-10.191-3.214-10.191-8.489 0-2.581 2.115-6.959 9.191-6.959 3.645 0 6.326.538 11.004 3.472l.478.33.019-7.066c-2.864-2.203-7.003-3.374-11.501-3.371-11.97.006-16.42 8.344-16.42 13.594m33.826-12.382v6.644h15.319v41.524h7.035V57.808h15.319v-6.644h-37.672z"/><path d="M118.648 75.249c0-10.818 7.437-18.661 17.657-18.661 10.226 0 17.651 7.843 17.651 18.661s-7.425 18.664-17.651 18.664c-10.22 0-17.657-7.847-17.657-18.664m-7.441 0c0 14.431 10.802 25.306 25.098 25.306 14.302 0 25.092-10.874 25.092-25.306 0-14.419-10.789-25.293-25.092-25.293-14.296 0-25.098 10.874-25.098 25.293M90.901 57.39c3.705 0 9.905 1.054 9.905 8.086s-6.2 8.076-9.905 8.076h-8.87V57.39h8.87zm-15.92-6.226v48.169h7.05v-19.53h9.977c14.441 0 15.558-10.969 15.558-14.327 0-3.349-1.117-14.311-15.558-14.311H74.982"/></g><path d="M297.712 13.543c0 3.113-1.067 5.769-3.22 7.973-2.14 2.187-4.759 3.283-7.837 3.283-3.094 0-5.706-1.095-7.856-3.299s-3.229-4.85-3.229-7.957c0-3.125 1.076-5.782 3.229-7.966 2.15-2.194 4.762-3.283 7.856-3.283s5.709 1.089 7.85 3.277c2.14 2.178 3.207 4.847 3.207 7.973m-1.923 0c.025-2.594-.853-4.803-2.625-6.622-1.794-1.807-3.96-2.729-6.509-2.729-2.54 0-4.696.922-6.474 2.719-1.763 1.81-2.656 4.032-2.691 6.632.035 2.594.929 4.79 2.691 6.61 1.778 1.829 3.934 2.741 6.474 2.741a8.77 8.77 0 0 0 6.509-2.741c1.772-1.819 2.65-4.016 2.625-6.61m-4.438 5.467h-2.225l-2.565-4.384c-.116.019-.305.031-.557.031a8.93 8.93 0 0 1-.752-.031v4.384h-1.936V8.146h2.584c2.845 0 4.265 1.058 4.265 3.192 0 1.344-.579 2.282-1.703 2.826l2.889 4.847zm-3.129-7.629c0-.995-.755-1.495-2.269-1.495h-.702v3.006c.255.019.529.019.831.019 1.426 0 2.14-.507 2.14-1.53" fill="#e51636"/></svg>