<?xml version="1.0"?>
<svg xmlns="http://www.w3.org/2000/svg" xmlns:xlink="http://www.w3.org/1999/xlink" xmlns:svgjs="http://svgjs.com/svgjs" version="1.1" width="512" height="512" x="0" y="0" viewBox="0 0 512 512" style="enable-background:new 0 0 512 512" xml:space="preserve" class=""><g><g xmlns="http://www.w3.org/2000/svg"><g><g><g><g><g id="XMLID_1157_"><g id="XMLID_1158_"><g id="XMLID_1159_"><g id="XMLID_1160_"><g id="XMLID_1161_"><g id="XMLID_1162_"><g id="XMLID_1163_"><g id="XMLID_1164_"><g id="XMLID_1165_"><g id="XMLID_1166_"><g id="XMLID_1167_"><g id="XMLID_1168_"><g id="XMLID_1169_"><g id="XMLID_1170_"><g id="XMLID_1171_"><circle cx="256" cy="256" fill="#f1f1f1" r="256" data-original="#ffcb48" style="" class=""/></g></g></g></g></g></g></g></g></g></g></g></g></g></g></g></g></g></g></g><path d="m512 256c0-31.648-5.758-61.946-16.258-89.926l-101.39-101.39-38.145 35.237-298.188 177.962 114.067 114.278-8.933 65.799 50.54 50.54c13.764 2.289 27.893 3.5 42.307 3.5 141.385 0 256-114.615 256-256z" fill="#f1f1f1" data-original="#ffa015" style="" class=""/><g><circle cx="221.951" cy="374.76" fill="#e020aa" r="26.54" data-original="#e020aa" style="" class=""/><path d="m183.215 464.881c-17.992 0-32.577-14.585-32.577-32.577v-141.764l65.154-12.813v154.576c0 17.992-14.585 32.578-32.577 32.578z" fill="#c0fffa" data-original="#c0fffa" style="" class=""/><g><path d="m387.736 151.394v139.89l56.551-28.229v-83.432z" fill="#ff6cce" data-original="#ff6cce" style=""/><path d="m444.29 221.34v41.72l-49.94 24.92-6.61 3.3v-69.94z" fill="#e020aa" data-original="#e020aa" style="" class=""/><path d="m175.14 152.138h-24.502l-23.093 69.201 23.093 69.201h24.502c39.486 0 78.242 10.644 112.188 30.813l74.634 44.341v-288.71l-74.634 44.341c-33.947 20.169-72.702 30.813-112.188 30.813z" fill="#6c2ac4" data-original="#6c2ac4" style="" class=""/><path d="m361.96 221.34v144.35l-21.7-12.89-52.93-31.45c-33.95-20.17-72.7-30.81-112.19-30.81h-24.5l-23.09-69.2z" fill="#4a0099" data-original="#4a0099" style="" class=""/><path d="m150.638 290.54h-58.5c-28.923 0-52.37-23.447-52.37-52.37v-33.662c0-28.923 23.447-52.37 52.37-52.37h58.5z" fill="#ff6cce" data-original="#ff6cce" style=""/><g><path d="m150.64 221.34v69.2h-58.5c-28.93 0-52.37-23.45-52.37-52.37v-16.83z" fill="#e020aa" data-original="#e020aa" style="" class=""/></g></g><path d="m340.259 64.684h54.092v313.31h-54.092z" fill="#ffffff" data-original="#ffffff" style="" class=""/><path d="m340.26 221.34h54.09v156.65h-54.09z" fill="#c0fffa" data-original="#c0fffa" style="" class=""/></g></g></g></svg>
