<?xml version="1.0" encoding="utf-8"?>
<svg version="1.1" id="Layer_1" xmlns="http://www.w3.org/2000/svg" xmlns:xlink="http://www.w3.org/1999/xlink" x="0px" y="0px"
	width="100px" height="100px" viewBox="0 0 66.7 66.7" style="enable-background:new 0 0 66.7 66.7;" xml:space="preserve">
<g>
	<circle style="fill:#E8E8E8;" cx="33.3" cy="33.3" r="33.3"/>
	<circle style="fill:#FFFFFF;" cx="33.3" cy="33.3" r="32.7"/>
	<path d="M45.3,21.1c-0.4,0.6-1.1,1.2-1.5,1.6c0-1.3-0.3-2.2-0.5-2.9C44.5,20.2,45.3,21.1,45.3,21.1 M43.3,33.2l0.3-6.3
		c0.3,0.3,0.7,0.7,1.2,0.5c0.3-0.1,0.9-0.3,1-1.2c0-0.5-0.4-1.2-1.5-2.4c-0.1-0.1-0.1-0.1-0.3-0.2c0.7-0.6,1.7-1.6,2.1-2.5l0.1-0.2
		l-0.2-0.1c-1-0.9-2.4-1.7-3.1-2c-0.3-0.2-0.6-0.3-0.8-0.4c0.1,0,0.1-0.1,0.1-0.1c0.6-0.6,3.1-3.5,1.5-7.3c-1.6-3.8-5.5-3.8-7.7-3.3
		c-0.8,0.2-1.5,0.6-1.8,0.8c-1.3,0.9-2.4,2.3-2.7,3.9c-0.3,1.8,0.2,3.8,1.5,5c0.3,0.3,0.4,0.3,0.4,0.3c0,0,0.1-0.3,0.7-0.9
		c0.2-0.1,1.2-1.1,2.6-0.5c0.8,0.3,1.1,0.7,1.4,1.3c0.1,0.3,0.2,0.6,0.2,0.9h-0.1c-1.1,0.7-2.1,2.1-1.9,5.6l0.8,9.2
		c-0.6,0-1.2,0.1-1.7,0.1c0.9-3.7,0.7-7.9-3.3-10.4c-3.9-2.4-9.3-1.7-12.7,1.3c-3.4,2.9-4.2,7.9-2.3,11.9c0.1,0.3,0.3,0.7,0.5,1.1
		c0.6,1,1.3,1.9,2.3,2.6c0.9,0.7,2,1.2,3.1,1.5c0.7,0.2,1.4,0.4,2.1,0.5c0.1,0,0.1-0.1,0.1-0.1c-0.1-0.1-0.1-0.1-0.1-0.2
		c-0.2-0.3-0.3-0.7-0.4-1.2c-0.3-1.5,0.2-3.1,1.4-4.1c1.1-0.9,2.8-0.9,3.9,0c0.2,0.1,0.4,0.3,0.5,0.5c-0.7,1.5-0.7,3.1-0.5,4.1
		c0.1,0.7,0.3,1,0.4,1.3c0.6,1.9,2.3,3.9,2.9,4.7c0.9,1.1,3.4,3.7,4.3,4.7v3.9c-0.3,0.2-2.5,1.5-3.5,3.5c-0.1,0.2,0.1,0.4,0.3,0.4
		c1.7-0.3,3.7-0.4,5.7-0.4s3.9,0.1,5.5,0.4c0.3,0,0.4-0.2,0.3-0.4c-0.9-2-3.1-3.3-3.4-3.5v-3.9c0.9-0.9,3.2-3.6,4-4.7
		c0.5-0.8,2.8-3.7,3.3-5.9C50.6,38.5,50.2,33.5,43.3,33.2"/>
	<path style="fill:#CE0924;" d="M39.7,17.7L39.7,17.7v0.1l0,0l0,0c0-0.1,1.1-0.1,1.7,0l0,0c1-0.8,1.7-2.1,2-3.5
		c0.3-1.7-0.1-3.2-1-4.3c-1-1.1-2.3-1.7-3.9-1.7h-0.2c-1.5,0.1-2.5,0.4-3.6,1.3c-0.5,0.4-1.5,1.4-1.7,3c-0.1,0.9,0,1.5,0.1,1.9
		c0,0.1,0,0.1,0.1,0.2c0.1,0.3,0.1,0.6,0.5,1.1l0,0c0.5-0.4,1-0.7,1.5-0.9c0.4-0.1,0.8-0.1,1.3-0.1c0.2,0,1.3,0.1,2.1,0.8
		C39.5,16.5,39.6,17.3,39.7,17.7 M42.9,37.5c-1.8-0.1-2.5,1.5-2.6,1.5c0-0.1-0.8-1.7-2.6-1.5c-1.9,0.1-3.1,2.4-0.6,5.9
		c2.4,3.4,3.1,3.5,3.2,3.5l0,0l0,0l0,0c0.1,0,0.7-0.1,3.2-3.5C46.1,39.9,44.8,37.7,42.9,37.5 M32.9,24.8c-1.1-1.1-2.7-1.7-4.1-2
		c-4.1-0.7-8.5,1.1-10.4,4.9c-1.5,3.3-0.9,7.7,1.7,10.3c1.1,1.2,2.3,1.9,3.9,2.1c0,0-0.2-1,0.1-2.1c0.3-1.2,0.9-2.7,2.6-3.3
		c2.7-1.1,4.1,0.3,5.1,0.9c0.6-0.7,1-0.9,1.6-1.2c0.5-0.3,0.8-0.3,1.2-0.5c0.5-1.2,0.7-3.4,0.5-4.7C34.6,27.6,34.4,26.3,32.9,24.8
		 M45,25.8c0.1,0.3,0.1,0.5-0.2,0.7c-0.2,0.1-0.5,0-0.6-0.1l0,0l0,0v-0.1v-0.1c-0.1-0.1-0.1-0.3-0.1-0.5c-0.1-0.3-0.2-0.9-0.3-1.2
		v-0.1l0.1,0.1c0.3,0.3,0.7,0.7,0.9,0.9L45,25.8L45,25.8"/>
	<g>
		<path style="fill:#FFFFFF;" d="M43.2,19.8c0.3,0.7,0.5,1.7,0.5,2.9c0.5-0.4,1.1-1,1.5-1.6C45.3,21.1,44.5,20.2,43.2,19.8
			 M41.2,21.2c0-0.4-0.3-0.7-0.7-0.7c-0.4,0-0.7,0.3-0.7,0.7c0,0.4,0.3,0.6,0.7,0.7C40.9,21.9,41.2,21.6,41.2,21.2 M42,21.2
			c0,0.8-0.7,1.5-1.5,1.5c-0.8,0-1.5-0.7-1.5-1.5l0,0c0-0.8,0.6-1.5,1.5-1.5c0,0,0,0,0.1,0C41.3,19.7,42,20.4,42,21.2 M40.1,24.5
			c0.1-0.3,0.5-0.4,0.7-0.3c0.3,0.1,0.3,0.4,0.3,0.7l0,0l0,0V25v0.1c-0.1,0.1-0.1,0.3-0.3,0.5c-0.2,0.3-0.7,0.8-0.9,1.1
			c-0.1,0.1-0.1,0.1-0.1,0.1v-0.1c0-0.4,0.1-1.1,0.3-1.5C39.9,24.9,40.1,24.7,40.1,24.5C40.1,24.6,40.1,24.5,40.1,24.5 M29.7,24.5
			c-0.4,0-0.8,0.3-0.8,0.7c0,0.4,0.3,0.7,0.8,0.7s0.8-0.3,0.8-0.7C30.5,24.9,30.2,24.5,29.7,24.5L29.7,24.5 M31.9,28
			c0.4,0,0.8-0.3,0.8-0.7s-0.3-0.7-0.8-0.7c-0.5,0-0.8,0.3-0.8,0.7S31.5,28,31.9,28L31.9,28 M32.7,29.1c-0.4,0-0.8,0.3-0.8,0.8
			c0,0.4,0.3,0.8,0.8,0.8c0.4,0,0.8-0.3,0.8-0.8C33.5,29.5,33.1,29.1,32.7,29.1 M21.7,36.3c-0.4,0-0.8,0.3-0.8,0.8
			c0,0.4,0.3,0.8,0.8,0.8c0.4,0,0.8-0.3,0.8-0.8C22.5,36.6,22.1,36.3,21.7,36.3 M20.1,34c-0.4,0-0.8,0.3-0.8,0.8s0.3,0.8,0.8,0.8
			c0.4,0,0.8-0.3,0.8-0.8C20.8,34.3,20.5,34,20.1,34"/>
		<path style="fill:#FFFFFF;" d="M20.2,32.1c0-0.4-0.3-0.8-0.8-0.8c-0.4,0-0.8,0.4-0.8,0.8c0,0.4,0.3,0.8,0.8,0.8
			C19.9,32.8,20.2,32.5,20.2,32.1 M19.8,30.1c0.4,0,0.8-0.3,0.8-0.7s-0.3-0.7-0.8-0.7S19,28.9,19,29.3S19.4,30.1,19.8,30.1
			L19.8,30.1 M21.3,27.6c0.4,0,0.8-0.4,0.8-0.8S21.7,26,21.3,26s-0.8,0.4-0.8,0.8C20.5,27.3,20.9,27.6,21.3,27.6 M23.8,24.5
			c-0.4,0-0.8,0.3-0.8,0.8c0,0.4,0.3,0.8,0.8,0.8c0.4,0,0.8-0.3,0.8-0.8C24.5,24.8,24.2,24.5,23.8,24.5 M26.8,23.9
			c-0.4,0-0.8,0.4-0.8,0.8s0.3,0.8,0.8,0.8s0.7-0.4,0.7-0.8S27.2,23.9,26.8,23.9 M32.1,31.9c-0.4,0-0.8,0.3-0.8,0.8
			c0,0.4,0.3,0.8,0.8,0.8c0.5,0,0.8-0.4,0.8-0.8S32.5,31.9,32.1,31.9"/>
	</g>
</g>
</svg>
