<?xml version="1.0" encoding="utf-8"?>
<svg version="1.1" id="Layer_1" xmlns="http://www.w3.org/2000/svg" xmlns:xlink="http://www.w3.org/1999/xlink" x="0px" y="0px"
	 viewBox="0 0 1498.8 1280" style="enable-background:new 0 0 1498.8 1280;" xml:space="preserve">
<g>
	<g>
		<defs>
			<rect id="SVGID_3_" width="1498.8" height="1280"/>
		</defs>
		<clipPath id="SVGID_1_">
			<use xlink:href="#SVGID_3_"  style="overflow:visible;"/>
		</clipPath>
		<path style="clip-path:url(#SVGID_1_);fill:#ED1C24;" d="M0-1.2h1496.4v1278.8H0V-1.2z"/>
	</g>
</g>
<g>
	<path style="fill:#FFFFFF;" d="M737.7,955.3c297.5,0,506.6-116.7,596.4-175.9c15.9-9.9,7.4-25.8-9.9-18.5
		c-228.7,94.6-377.4,129-586.6,129s-357.9-34.4-586.6-129c-17.3-7.4-25.8,8.7-9.9,18.5C231.1,838.6,440.2,955.3,737.7,955.3"/>
	<path style="fill:#FFFFFF;" d="M1159.6,523.8c0,40.7,47.9,51.7,72.5,57.8c13.5,2.4,38,9.9,38,24.6c1.2,17.3-18.5,27-38,27
		c-20.9,0-33.2-8.7-45.5-23.3c-4.8-6.2-11.1-8.7-19.7-6.2c-8.7,2.4-18.5,8.7-28.2,14.7c-6.2,3.6-8.7,9.9-4.8,17.3
		c15.9,38,57.8,50.3,94.6,50.3c56.6,0,106.9-24.6,119.4-76.3c12.3-50.3-28.2-67.6-65.2-78.7c-24.6-7.4-43.1-13.5-40.7-29.6
		c1.2-17.3,39.5-28.2,66.4,3.6c6.2,7.4,13.5,8.7,20.9,4.8c8.7-2.4,22.1-8.7,27-11.1c8.7-6.2,9.9-11.1,4.8-20.9
		c-13.5-24.6-46.7-40.7-84.9-40.7C1205.1,437.8,1159.6,474.6,1159.6,523.8 M370.2,344.2c-14.7,1.2-28.2,2.4-40.7,15.9
		c-36.8,45.5-125.4,180.8-194.2,305c-4.8,8.7-1.2,17.3,8.7,17.3c12.3-1.2,45.5,0,51.7,0c8.7,0,13.5-2.4,19.7-12.3s20.9-36.8,33.2-59
		h121.8l2.4,56.6c0,8.7,4.8,14.7,15.9,14.7h45.5c7.4,0,13.5-3.6,13.5-14.7c-1.2-43.1-12.3-257-15.9-306.2
		c-1.2-12.3-7.4-17.3-20.9-17.3H370.2 M365.1,420.5l4.8,132.9h-93.4c20.9-39.3,57.8-97.2,86.2-132.9
		C365.1,416.9,365.1,420.5,365.1,420.5L365.1,420.5z"/>
	<path style="fill:#FFFFFF;" d="M987.3,686.2c-76.3,0-111.9-50.3-95.8-124.2s72.5-124.2,148.8-124.2s111.9,50.3,95.8,124.2
		C1120,635.9,1063.6,686.2,987.3,686.2 M992.4,634.5c41.9,0,61.4-35.6,71.3-72.5c11.1-38,14.7-72.5-28.2-72.5
		c-43.1,0-60.2,34.4-71.3,72.5C952.9,598.8,949.3,634.5,992.4,634.5z M702.1,563.2c14.7-47.9,36.8-72.5,68.8-71.3
		c40.7,1.2,32,40.7,23.3,71.3c-13.5,46.7-34.4,70-67.6,67.6C693.4,628.4,696.1,589,702.1,563.2 M846,654.2l46.7-190.6
		c3.6-12.3-3.6-19.7-13.5-19.7h-32c-11.1,1.2-17.3,6.2-19.7,14.7c0,2.4-1.2,4.8-2.4,9.9c0,2.4-1.2,2.4-1.2,0
		c-4.8-8.7-24.6-28.4-59-28.4c-62.8,0-105.7,60.2-123,115.5c-11.1,35.6-12.3,76.3,1.2,97.2c13.5,19.7,34.4,33.2,67.6,33.2
		c27,0,50.3-8.7,62.8-23.3c1.2-2.4,2.4-1.2,1.2,0c-14.7,55.4-49.1,70-75.1,70c-17.3,0-29.6-7.4-35.6-11.1
		c-9.9-6.2-12.3-6.2-20.9-3.6c-9.9,2.4-20.9,7.4-30.8,13.5c-11.1,7.4-8.7,14.7-4.8,20.9c20.9,33.2,68.8,41.9,97.2,41.9
		C774.6,794.3,822.7,746.4,846,654.2z M678.7,454.9c4.8-4.8,2.4-11.1-4.8-11.1c-39.3,0-77.5,0-105.7,25.8c0,1.2-1.2,0-1.2-1.2
		c1.2-1.2,1.2-6.2,3.6-12.3c1.2-6.2-2.4-12.3-9.9-12.3h-39.5c-8.7,0-13.5,3.6-14.7,13.5c-4.8,19.7-35.6,168.5-44.3,214
		c-1.2,6.2,3.6,11.1,9.9,11.1h46.7c8.7,0,12.3-4.8,13.5-11.1l20.9-100.8c4.8-24.6,14.7-43.1,23.3-50.3c9.9-7.4,22.1-12.3,47.9-13.5
		c11.1-1.2,15.9-3.6,22.1-12.3C656.6,479.5,665.3,467.2,678.7,454.9"/>
</g>
</svg>
