<?xml version="1.0" encoding="utf-8"?>
<svg version="1.1" id="Layer_1" xmlns="http://www.w3.org/2000/svg" xmlns:xlink="http://www.w3.org/1999/xlink" x="0px" y="0px"
	width="100px" height="100px" viewBox="0 0 100 100" style="enable-background:new 0 0 100 100;" xml:space="preserve">
<g>
	<path style="fill:#E8E8E8;" d="M50,0c27.61,0,50,22.39,50,50s-22.39,50-50,50S0,77.61,0,50S22.39,0,50,0"/>
	<path style="fill:#FFFFFF;" d="M50,1c27.06,0,49,21.94,49,49S77.06,99,50,99S1,77.06,1,50S22.94,1,50,1"/>
	<g>
		<path style="fill-rule:evenodd;clip-rule:evenodd;fill:#FF6600;" d="M24.91,56.45V49l-3.2,7.45h-1.77L16.8,49v7.45h-3.3V43.55
			h4.42l3.04,7.29l3.18-7.29h4.08v12.91H24.91z M30.76,56.45V43.55h2.82c0.25,0,0.49,0.25,0.49,0.52v12.39L30.76,56.45z
			 M43.24,49.02h4.2c0.33,0,0.52,0.27,0.52,0.59v6.67c-1.18,0.26-3.03,0.43-4.4,0.43c-4.81,0-7.35-2.29-7.35-6.72
			c0-3.95,2.54-6.69,6.77-6.69c1.86,0,3.5,0.5,4.55,1.21l-1.3,2.22c-0.91-0.41-2.13-0.69-3-0.69c-2.43,0-3.57,1.61-3.57,3.95
			c0,2.49,1.32,4.03,3.75,4.03c0.44,0,1-0.02,1.44-0.09v-2.27h-1.6L43.24,49.02z M55.32,46.03h-1.62v3.24h1.62
			c0.97,0,1.73-0.52,1.73-1.74C57.05,46.28,56.29,46.03,55.32,46.03z M57.76,56.45l-1.53-3.55c-0.31-0.72-0.53-1.08-1.2-1.08h-1.34
			v4.64h-3.24V44.06c0-0.27,0.29-0.52,0.51-0.52h4.58c2.49,0,4.62,0.52,4.62,3.73c0,1.44-0.8,2.91-2.29,3.21
			c0.74,0.25,1.49,1.21,1.9,2.24l1.48,3.73H57.76z M68.41,46.03c-1.74,0-2.98,1.24-2.98,3.95c0,2.75,1.24,3.98,2.98,3.98
			c1.49,0,2.72-1.24,2.72-3.98C71.13,47.28,69.9,46.03,68.41,46.03L68.41,46.03z M68.41,56.7c-4.23,0-6.46-2.99-6.46-6.72
			c0-3.7,2.24-6.69,6.46-6.69c3.96,0,6.2,2.98,6.2,6.69C74.61,53.72,72.37,56.7,68.41,56.7L68.41,56.7z M80.96,56.7
			c-2.18,0-4.21-0.78-5.11-1.4l1.47-2.61c0.82,0.5,2.42,1.26,3.89,1.26c0.83,0,1.89-0.16,1.89-1.09c0-0.87-1.18-1.14-2.72-1.58
			c-1.86-0.53-4.03-1.28-4.03-3.78c0-2.7,2.4-4.21,5.52-4.21c2.06,0,3.66,0.73,4.47,1.51l-1.79,2.04c-0.89-0.53-1.79-0.94-2.81-0.94
			c-1.22,0-1.91,0.46-1.91,1.14c0,0.67,0.89,1.01,2,1.35c1.97,0.61,4.67,1.23,4.67,3.82C86.5,54.87,84.37,56.7,80.96,56.7
			L80.96,56.7z"/>
	</g>
</g>
</svg>
