<?xml version="1.0" encoding="utf-8"?>
<svg version="1.1" id="Layer_1" xmlns="http://www.w3.org/2000/svg" xmlns:xlink="http://www.w3.org/1999/xlink" x="0px" y="0px"
	width="100px" height="100px" viewBox="0 0 315 315" style="enable-background:new 0 0 315 315;" xml:space="preserve">
<g>
	<path style="fill:#E8E8E8;" d="M157.5,0C244.5,0,315,70.5,315,157.5S244.5,315,157.5,315S0,244.5,0,157.5S70.5,0,157.5,0"/>
	<path style="fill:#FFFFFF;" d="M157.5,3.2c85.2,0,154.4,69.1,154.4,154.4s-69.1,154.4-154.4,154.4S3.2,242.7,3.2,157.5
		S72.3,3.2,157.5,3.2"/>
	<g>
		<path style="fill:#E30613;" d="M54,113.7c0-18.8,18-34.4,39.7-34.4c21.7,0,39.7,15.6,39.7,34.4c0,18.8-18,34.4-39.7,34.4
			C72,148.1,54,132.5,54,113.7"/>
		<path style="fill:#164194;" d="M93.7,235.7c-5.6,0-9.9-4.3-9.9-9.1v-56.4c0-5.4,4.3-9.1,9.9-9.1c62.6,0,67.6-73.6,157.4-73.6
			c5,0,9.9,4.3,9.9,9.1v55.9c0,5.4-4.3,9.1-9.9,9.1C189.7,162.1,186,235.7,93.7,235.7"/>
	</g>
</g>
</svg>
