<?xml version="1.0"?>
<svg xmlns="http://www.w3.org/2000/svg" xmlns:xlink="http://www.w3.org/1999/xlink" xmlns:svgjs="http://svgjs.com/svgjs" version="1.1" width="512" height="512" x="0" y="0" viewBox="0 0 512 512" style="enable-background:new 0 0 512 512" xml:space="preserve" class=""><g>
<circle xmlns="http://www.w3.org/2000/svg" style="" cx="256" cy="256" r="256" fill="#f1f1f1" data-original="#273b7a" class=""/>
<path xmlns="http://www.w3.org/2000/svg" style="" d="M511.857,264.152l-85.19-85.19L152.759,312.794l-62.257,14.67l56.189,56.189l-23.962,26.769  l99.335,99.335C233.169,511.228,244.493,512,256,512C394.655,512,507.551,401.763,511.857,264.152z" fill="#f1f1f1" data-original="#121149" class=""/>
<rect xmlns="http://www.w3.org/2000/svg" x="122.725" y="303.804" style="" width="26.655" height="106.617" fill="#ffffff" data-original="#ffffff" class=""/>
<rect xmlns="http://www.w3.org/2000/svg" x="362.624" y="303.804" style="" width="26.655" height="106.617" fill="#d0d1d3" data-original="#d0d1d3"/>
<path xmlns="http://www.w3.org/2000/svg" style="" d="M411.686,330.459H100.314c-9.702,0-17.567-7.864-17.567-17.567v-124.79  c0-9.702,7.864-17.567,17.567-17.567h311.372c9.702,0,17.567,7.864,17.567,17.567v124.79  C429.253,322.594,421.388,330.459,411.686,330.459z" fill="#71e2ef" data-original="#71e2ef" class=""/>
<path xmlns="http://www.w3.org/2000/svg" style="" d="M411.686,170.534H256.288v159.925h155.398c9.702,0,17.567-7.866,17.567-17.567v-124.79  C429.253,178.398,421.388,170.534,411.686,170.534z" fill="#38c6d9" data-original="#38c6d9"/>
<g xmlns="http://www.w3.org/2000/svg">
	<polygon style="" points="405.944,286.572 354.499,286.572 354.499,214.423 364.537,214.423 364.537,276.533    405.944,276.533  " fill="#f1f1f1" data-original="#273b7a" class=""/>
	<polygon style="" points="343.833,224.461 343.833,214.423 292.388,214.423 292.388,286.57 343.833,286.57    343.833,276.533 302.426,276.533 302.426,255.516 343.833,255.516 343.833,245.477 302.426,245.477 302.426,224.461  " fill="#f1f1f1" data-original="#273b7a" class=""/>
</g>
<g xmlns="http://www.w3.org/2000/svg">
	<path style="" d="M219.612,286.572h-51.445v-72.149h51.445V286.572z M178.205,276.533h31.368v-52.072h-31.368V276.533   z" fill="#386895" data-original="#386895" class=""/>
	<polygon style="" points="147.465,214.423 147.465,245.477 116.095,245.477 116.095,214.423 106.056,214.423    106.056,286.57 116.095,286.57 116.095,255.516 147.465,255.516 147.465,286.57 157.501,286.57 157.501,214.423  " fill="#386895" data-original="#386895" class=""/>
	<polygon style="" points="281.722,214.423 230.278,214.423 230.278,224.461 250.982,224.461 250.982,286.57    261.018,286.57 261.018,224.461 281.722,224.461  " fill="#386895" data-original="#386895" class=""/>
</g>
<polygon xmlns="http://www.w3.org/2000/svg" style="" points="256.288,214.423 256.288,286.57 261.018,286.57 261.018,224.461 281.722,224.461   281.722,214.423 " fill="#f1f1f1" data-original="#273b7a" class=""/>
<g xmlns="http://www.w3.org/2000/svg">
</g>
<g xmlns="http://www.w3.org/2000/svg">
</g>
<g xmlns="http://www.w3.org/2000/svg">
</g>
<g xmlns="http://www.w3.org/2000/svg">
</g>
<g xmlns="http://www.w3.org/2000/svg">
</g>
<g xmlns="http://www.w3.org/2000/svg">
</g>
<g xmlns="http://www.w3.org/2000/svg">
</g>
<g xmlns="http://www.w3.org/2000/svg">
</g>
<g xmlns="http://www.w3.org/2000/svg">
</g>
<g xmlns="http://www.w3.org/2000/svg">
</g>
<g xmlns="http://www.w3.org/2000/svg">
</g>
<g xmlns="http://www.w3.org/2000/svg">
</g>
<g xmlns="http://www.w3.org/2000/svg">
</g>
<g xmlns="http://www.w3.org/2000/svg">
</g>
<g xmlns="http://www.w3.org/2000/svg">
</g>
</g></svg>
