<?xml version="1.0" encoding="utf-8"?>
<svg version="1.1" id="Layer_1" xmlns="http://www.w3.org/2000/svg" xmlns:xlink="http://www.w3.org/1999/xlink" x="0px" y="0px"
	width="100px" height="100px" viewBox="0 0 72.2 72.2" style="enable-background:new 0 0 72.2 72.2;" xml:space="preserve">
<g>
	<circle style="fill:#E8E8E8;" cx="36.1" cy="36.1" r="36.1"/>
	<circle style="fill:#FFFFFF;" cx="36.1" cy="36.1" r="35.4"/>
	<path style="fill:#D5D9DE;" d="M23,31.8l0.6-2.4h-1.2l-0.6,2.4H23 M21.1,34.6h1.2l0.6-2.2h-1.2L21.1,34.6z M20.4,37.6h1.2l0.6-2.4
		H21L20.4,37.6z"/>
	<path style="fill:#0992CC;" d="M21.9,29.5H10.6v0.6l1.9,1.8h8.9C21.4,31.9,21.9,29.5,21.9,29.5z M16.6,35.3v0.4l1.9,1.9h1.3
		l0.6-2.4C20.4,35.3,16.6,35.3,16.6,35.3z M21.2,32.4h-7.6v0.4l2,1.9h5.1C20.6,34.6,21.2,32.4,21.2,32.4z"/>
	<path style="fill:#3B4444;" d="M61.5,31.2L61.3,32c-0.1,0.4-0.2,0.4-0.6,0.4h-1.2c-0.5,0-0.6,0-0.8,0.1c-0.1,0.1-0.1,0.3-0.1,0.4
		c0,0.2,0.1,0.2,0.4,0.4l1.2,0.4c0.8,0.2,1,0.5,1,1.1s-0.2,1.6-0.6,2c-0.4,0.4-0.7,0.6-1.4,0.6h-2.8c-0.2,0-0.3-0.2-0.3-0.4l0.4-1.4
		h0.1c0.1,0.4,0.3,0.5,0.9,0.5h1.1c0.4,0,0.6-0.1,0.7-0.2c0.1-0.1,0.2-0.3,0.2-0.5c0-0.2-0.1-0.4-0.6-0.5l-1.1-0.3
		c-0.6-0.1-0.9-0.5-0.9-1c0-0.5,0.2-1.2,0.5-1.7c0.3-0.6,0.8-0.7,1.7-0.7H61.5z M34.5,31.2c-1.2,0-1.9,0.3-2.5,1
		c-0.6,0.7-1.1,2.5-1.2,3.5c0,0.6,0.2,1.2,0.7,1.4c0.3,0.1,0.8,0.2,1.7,0.2c0.9,0,1.4-0.1,1.8-0.2c0.2-0.1,0.3-0.2,0.4-0.9l0.2-0.9
		h-0.1c-0.4,0.5-0.9,0.6-1.9,0.6c-0.5,0-0.8-0.1-0.9-0.1c-0.2-0.1-0.2-0.3-0.2-0.6c0-0.1,0-0.3,0.1-0.4l0.1-0.5h2.7
		c0.6,0,0.7-0.1,0.9-0.3c0.1-0.3,0.3-1.1,0.4-1.6C36.4,31.6,35.9,31.2,34.5,31.2 M34.9,33.6h-2.1c0.3-1.1,0.6-1.3,1.4-1.3
		c0.6,0,0.9,0.2,0.9,0.6C35.1,33.1,35,33.3,34.9,33.6 M54,31.2c-1.2,0-1.9,0.3-2.5,1c-0.6,0.7-1.1,2.5-1.2,3.5
		c0,0.6,0.2,1.2,0.7,1.4c0.3,0.1,0.8,0.2,1.7,0.2c0.9,0,1.4-0.1,1.8-0.2c0.2-0.1,0.3-0.2,0.4-0.9l0.2-0.9H55
		c-0.4,0.5-0.9,0.6-1.9,0.6c-0.5,0-0.8-0.1-0.9-0.1c-0.1-0.1-0.2-0.3-0.2-0.6c0-0.1,0-0.3,0.1-0.4l0.1-0.5h2.7
		c0.6,0,0.7-0.1,0.9-0.3c0.1-0.3,0.4-1.1,0.4-1.6C55.9,31.6,55.3,31.2,54,31.2 M54.5,33.6h-2.2c0.3-1.1,0.6-1.3,1.4-1.3
		c0.6,0,0.9,0.2,0.9,0.6C54.5,33.1,54.5,33.3,54.5,33.6 M41.6,31.2L41.3,32c-0.1,0.3-0.2,0.4-0.7,0.4H40c-0.6,0-0.9,0.2-1,0.9
		l-0.9,3.3c0,0.1-0.1,0.3-0.1,0.4c0,0.1,0.1,0.2,0.2,0.2v0.1h-1.5c-0.2,0-0.3-0.1-0.3-0.4l1.4-5.3v-0.1c0-0.1-0.1-0.2-0.2-0.2v-0.1
		h1.5c0.2,0,0.3,0.1,0.3,0.3l-0.1,0.6l0.4-0.6c0.2-0.3,0.2-0.3,0.6-0.3L41.6,31.2L41.6,31.2C41.5,31.2,41.6,31.2,41.6,31.2z M31,30
		l-1.7,6.6c-0.1,0.2-0.1,0.6,0.1,0.6c0,0.1,0,0-0.1,0.1h-1.7c-0.2,0-0.3-0.1-0.3-0.4l0.9-3.3H26l-0.7,2.9c0,0.1-0.1,0.3-0.1,0.4
		c0,0.1,0.1,0.2,0.2,0.3v0.1h-1.7c-0.2,0-0.3-0.2-0.3-0.4l1.7-6.6c0.1-0.2,0.1-0.5-0.1-0.6v-0.1h1.7c0.2,0,0.3,0.1,0.3,0.4l-0.6,2.5
		h2.3l0.5-2.1c0-0.1,0.1-0.3,0.1-0.4c0-0.1-0.1-0.2-0.2-0.3v-0.1h1.7C31,29.7,31,29.9,31,30 M48.8,31.1h-0.8c-0.4,0-0.6,0.1-0.9,0.5
		L46.8,32c0-0.5-0.2-1-1-1h-0.7c-0.6,0-0.8,0.3-0.9,0.5L43.8,32l0.1-0.6c0-0.1-0.1-0.3-0.3-0.3h-1.5v0.1c0.1,0.1,0.2,0.1,0.2,0.2
		v0.1L41.1,37c0,0.1,0.1,0.4,0.3,0.4h1.5v-0.1c-0.1-0.1-0.2-0.1-0.2-0.2s0-0.2,0.1-0.4l0.9-3.2c0.2-0.8,0.4-0.9,0.9-0.9h0.3
		c0.4,0,0.6,0.2,0.5,0.6c0,0.1-1,4-1,4c0,0.1,0.1,0.4,0.3,0.4H46v-0.1c-0.1-0.1-0.2-0.1-0.2-0.2s0-0.2,0.1-0.4l0.9-3.2
		c0.2-0.8,0.4-0.9,0.9-0.9h0.3c0.4,0,0.6,0.2,0.5,0.6l-1,4c0,0.1,0.1,0.4,0.3,0.4h1.5v-0.1c-0.1-0.1-0.2-0.1-0.2-0.2s0-0.2,0.1-0.4
		l1.1-4.3C50,32,50,31.2,48.8,31.1"/>
	<path style="fill:#424A4B;" d="M23.1,41.3L23.1,41.3c0,0.3,0.1,0.4,0.4,0.4h0.1v0.2h-0.2c-0.3,0-0.6-0.1-0.6-0.5v-0.1l0.1-0.9h-0.4
		l0.1-0.2h0.4l0.1-0.6h0.3l-0.1,0.6H24l-0.1,0.3h-0.5C23.3,40.4,23.1,41.3,23.1,41.3z M25.8,40.8V41l-0.1,1h-0.4l0.1-1v-0.1
		c0-0.2-0.1-0.3-0.3-0.4c0,0,0,0,0,0c-0.3,0-0.5,0.1-0.5,0.4L24.3,42H24l0.5-2.8h0.3l-0.2,1.2c0.1-0.1,0.3-0.2,0.5-0.2
		C25.5,40.1,25.8,40.4,25.8,40.8C25.8,40.8,25.8,40.8,25.8,40.8z M27.7,41.1h-1.4c0,0.4,0.3,0.6,0.6,0.6c0.2,0,0.4-0.1,0.6-0.2
		l0.1,0.2c-0.2,0.2-0.4,0.3-0.7,0.3c-0.5,0-0.9-0.4-0.9-0.9s0.4-1,1-1c0.4,0,0.8,0.3,0.8,0.7C27.7,41.1,27.7,41.1,27.7,41.1z
		 M26.3,40.9h1.2l0,0c0-0.3-0.2-0.5-0.5-0.5c0,0,0,0,0,0C26.6,40.4,26.3,40.5,26.3,40.9z M31.2,41c0,0.5-0.4,1-0.9,1
		c-0.4,0-0.6-0.1-0.7-0.4l-0.1,1h-0.3l0.4-2.5h0.3v0.2c0.1-0.2,0.4-0.3,0.6-0.3C30.8,40.2,31.2,40.5,31.2,41z M30.9,41.1
		c0-0.4-0.2-0.6-0.6-0.6c-0.4,0-0.6,0.4-0.6,0.7c0,0.4,0.3,0.6,0.6,0.6C30.6,41.8,30.9,41.4,30.9,41.1z M33,40.8V41l-0.1,1h-0.3
		v-0.2C32.5,41.9,32.3,42,32,42c-0.3,0-0.6-0.1-0.6-0.4c0-0.3,0.2-0.5,0.7-0.5h0.6V41v-0.1c0-0.2-0.1-0.4-0.4-0.4
		c-0.2,0-0.4,0.1-0.5,0.2l-0.1-0.3c0.2-0.2,0.4-0.3,0.7-0.3C32.8,40.2,33,40.3,33,40.8L33,40.8z M32.7,41.3L32.7,41.3l-0.5-0.1
		c-0.3,0-0.4,0.1-0.4,0.2c0,0.2,0.2,0.3,0.4,0.3C32.4,41.8,32.6,41.6,32.7,41.3z M34.7,40.2v0.2h-0.1c-0.3,0-0.5,0.1-0.6,0.5l-0.1,1
		h-0.3l0.3-1.8h0.3v0.2C34.3,40.2,34.4,40.1,34.7,40.2C34.6,40.2,34.6,40.2,34.7,40.2z M36.5,40.5l-0.2,0.1
		c-0.1-0.2-0.3-0.3-0.6-0.3c-0.4,0-0.7,0.3-0.7,0.7c0,0.4,0.2,0.6,0.6,0.6c0.2,0,0.4-0.1,0.6-0.2l0.2,0.1c-0.1,0.2-0.4,0.4-0.7,0.4
		c-0.5,0-0.9-0.4-0.9-0.9c0-0.6,0.4-1,1-1C36.1,40.2,36.4,40.3,36.5,40.5z M38.5,41.1h-1.4c0,0.4,0.3,0.6,0.6,0.6
		c0.2,0,0.4-0.1,0.6-0.2l0.1,0.2c-0.2,0.2-0.4,0.3-0.7,0.3c-0.5,0-0.9-0.4-0.9-0.9s0.4-1,1-1c0.4,0,0.8,0.3,0.8,0.7
		C38.6,41,38.6,41.1,38.5,41.1z M37.2,40.9h1.2l0,0c0-0.3-0.2-0.5-0.5-0.5c0,0,0,0,0,0C37.5,40.4,37.2,40.5,37.2,40.9z M39.2,42
		h-0.3l0.5-2.8h0.3L39.2,42z M42.9,41c0,0.5-0.4,1-0.9,1c-0.4,0-0.6-0.1-0.7-0.4l-0.1,1h-0.3l0.4-2.5h0.3v0.2
		c0.1-0.2,0.4-0.3,0.6-0.3C42.5,40.2,42.9,40.5,42.9,41z M42.6,41.1c0-0.4-0.2-0.6-0.6-0.6c-0.4,0-0.6,0.4-0.6,0.7
		c0,0.4,0.3,0.6,0.6,0.6C42.3,41.8,42.6,41.4,42.6,41.1z M44.9,41.1h-1.4c0,0.4,0.3,0.6,0.6,0.6c0.2,0,0.4-0.1,0.6-0.2l0.1,0.2
		c-0.2,0.2-0.4,0.3-0.7,0.3c-0.5,0-0.9-0.4-0.9-0.9c0-0.5,0.4-1,1-1c0.4,0,0.8,0.3,0.8,0.7C44.9,41,44.9,41.1,44.9,41.1z M43.5,40.9
		h1.2l0,0c0-0.3-0.2-0.5-0.5-0.5c0,0,0,0,0,0C43.9,40.4,43.6,40.5,43.5,40.9z M47.2,41.1c0,0.6-0.4,0.9-1,0.9
		c-0.5,0-0.9-0.4-0.9-0.9c0-0.6,0.4-1,1-1C46.8,40.2,47.2,40.5,47.2,41.1z M45.6,41.1c0,0.4,0.3,0.6,0.6,0.6c0.4,0,0.7-0.3,0.7-0.7
		c0-0.4-0.3-0.6-0.6-0.6C45.9,40.4,45.6,40.8,45.6,41.1L45.6,41.1z M49.5,41c0,0.5-0.4,1-0.9,1c-0.4,0-0.6-0.1-0.7-0.4l-0.1,1h-0.3
		l0.4-2.5h0.3v0.2c0.1-0.2,0.4-0.3,0.6-0.3C49.2,40.2,49.5,40.5,49.5,41z M49.2,41.1c0-0.4-0.2-0.6-0.6-0.6c-0.4,0-0.6,0.4-0.6,0.7
		c0,0.4,0.3,0.6,0.6,0.6C48.9,41.8,49.2,41.4,49.2,41.1z M50.1,42h-0.3l0.5-2.8h0.3L50.1,42z M52.5,41.1h-1.4c0,0.4,0.3,0.6,0.6,0.6
		c0.2,0,0.4-0.1,0.6-0.2l0.1,0.2C52.2,41.9,52,42,51.7,42c-0.5,0-0.9-0.4-0.9-0.9c0-0.5,0.4-1,1-1c0.4,0,0.8,0.3,0.8,0.7
		C52.5,41.1,52.5,41.1,52.5,41.1z M51.1,40.9h1.2l0,0c0-0.3-0.2-0.5-0.5-0.5c0,0,0,0,0,0C51.4,40.4,51.2,40.6,51.1,40.9z"/>
</g>
</svg>
