<svg xmlns="http://www.w3.org/2000/svg" viewBox="0 0 154 48.1"><path d="M27.3 46.7c-2.3 0-4.2-1.9-4.2-4.3 0-2.3 1.8-4.1 4.1-4.2 1.2 0 2.4.3 3.4.9l.6-1.3c-1.3-.6-2.6-.9-4-.9-3.1-.1-5.6 2.4-5.7 5.5v.1c0 3 2.5 5.5 5.5 5.5h.3c1.4 0 2.8-.3 4-.9l-.5-1.3c-1 .6-2.3.9-3.5.9zm96.8-4.5c.8-.5 1.2-1.4 1.2-2.3 0-1.7-1.4-3-3.1-3s-3 1.4-3 3.1c0 .9.5 1.8 1.2 2.2-.9.5-1.5 1.5-1.4 2.6 0 1.8 1.5 3.2 3.3 3.2s3.2-1.5 3.2-3.3c0-1-.5-2-1.4-2.5zm-1.9-4c.9 0 1.6.8 1.6 1.7.1.9-.6 1.7-1.5 1.8h-.1c-.9 0-1.7-.9-1.6-1.8s.8-1.6 1.6-1.7h0zm.1 8.5a1.79 1.79 0 0 1-1.8-1.8 2.05 2.05 0 0 1 1.8-2 1.79 1.79 0 0 1 1.8 1.8v.1c.1 1-.7 1.9-1.7 2 0-.1-.1-.1-.1-.1zm-8-4.5c.8-.5 1.2-1.4 1.2-2.3 0-1.7-1.4-3-3.1-3a3.01 3.01 0 0 0-3 3c0 .9.5 1.8 1.2 2.2-.9.5-1.5 1.5-1.4 2.6 0 1.8 1.5 3.2 3.3 3.2s3.2-1.5 3.2-3.3c.1-.9-.5-1.9-1.4-2.4zm-1.8-4c.9 0 1.6.8 1.6 1.7.1.9-.6 1.7-1.5 1.8h-.1c-.9 0-1.7-.9-1.6-1.8s.7-1.6 1.6-1.7zm.1 8.5a1.79 1.79 0 0 1-1.8-1.8 2.05 2.05 0 0 1 1.8-2 1.79 1.79 0 0 1 1.8 1.8v.1c.1 1-.7 1.9-1.7 2l-.1-.1h0zm19.6-4.9c-.6 0-1.3.2-1.8.5.4-1.9 1.5-3.5 3-4.7l-.8-1c-2.3 1.9-3.7 4.6-3.9 7.6 0 2.4 1.4 3.9 3.5 3.9 1.7.1 3.1-1.2 3.2-2.9V45a3.12 3.12 0 0 0-3.1-3.1c0-.1 0-.1-.1-.1zm1.8 3.1a1.79 1.79 0 0 1-1.8 1.8h-.1c-1.1 0-2-.9-2-2.5v-.4c.5-.5 1.2-.8 2-.8 1.1 0 1.9.9 1.9 1.9h0 0zm-67.3-5c0-.9.8-1.7 1.8-1.7h.1c.8.1 1.5.3 2.1.7l.6-1.2c-.8-.5-1.8-.8-2.8-.8-1.7-.1-3.2 1.3-3.3 3 0 3.6 5.2 2.3 5.2 4.9 0 1.2-.9 1.8-2.2 1.8-.9-.1-1.7-.5-2.4-1.1l-.5 1.3c.9.7 2 1.1 3.1 1.1 1.9 0 3.5-1.1 3.5-3.3 0-3.5-5.2-2.2-5.2-4.7zm-18 6.7V43H53v-1.2h-4.3v-3.5h4.4l.5-1.2h-6.4v10.8h6.5l-.4-1.2-4.6-.1zm9.6 0v-9.5h-1.5v10.8h6.7l-.5-1.3h-4.7zm18.6 0V43h4.3v-1.2h-4.3v-3.5h4.4l.5-1.2h-6.4v10.8h6.5l-.4-1.2-4.6-.1zm-35.1-4.8H36v-5l-1.5.5v10.5H36V43h5.7v4.8h1.5v-11l-1.5.5v4.5zm62.2 6.1h1.4v-11l-1.4.5v10.5zM88.7 37.2l-4.9 10.6h1.6l1.4-3h5l1.4 3h1.6l-5.1-11c-.2.1-1 .4-1 .4zm-1.4 6.4l1.9-4.2 1.9 4.2h-3.8zM59.8 9.5c1.8-.2 6.1.1 8.1-4.7l1.5-3.7s-5.2.4-7.9 2.3-4.7 7.2-4.7 7.2c.9-.7 1.9-1.1 3-1.1zm7-6.6l.7.1c-2.8 1.4-5.5 3.1-7.9 5.2 1.6-3.3 4.1-5.2 7.2-5.3zm64.4 12.9c.4.5.7 1.1 1.1 1.1.6 0 1-1.1 1.6-3.7v-.1h0c-.6-.6-1.4-.9-2.2-.9-1.7 0-3.4 1.2-5 3.6l-.4.6v-.8c-.1-2.5-.7-3.5-2.2-3.5-2.2 0-3.9 1.4-5.3 4.5-.1.2-.2.4-.1.7 0 .1.1.2.3.2h0c.2 0 .4-.3.6-.6.9-1.3 1.5-1.8 2.3-1.8.3 0 .5.1.7.3.4.4.4 1.3.2 2.9l-1.5 11.1v.1h4l.9-6.7c.7-5.2 2-8.4 3.5-8.4.6.2 1 .8 1.5 1.4h0zm-75 9c-.2 0-.5.3-.6.5-.9 1.3-1.5 1.8-2.3 1.8-.3 0-.5-.1-.7-.3-.4-.4-.4-1.3-.2-2.9l.6-4.5c.4-2.9.1-4.9-.9-6-.7-.8-1.8-1.2-2.9-1.1-.9 0-1.9.2-2.7.6l-.6.3-.1.1a6.55 6.55 0 0 0-1.8 1.5c-.5.5-1.1 1.1-1.5 1.7l-.3-.1L44.4.2V.1L44 0c-3.3.6-6.6.8-10 .8-1 0-2.1 0-3.3-.1l-.1.7c1.1.2 2 .7 2.6 1.6a2.56 2.56 0 0 1 0 2.1l-6.3 16.6-3.8-17c-.4-2 1.3-2.8 3-3.3l.1-.7C22.6 1 19 1 15.4.8l-.1.7c1.1.2 1.9.8 2.5 1.7.4.6.4 1.4.1 2l-6.3 16.6-3.8-17c-.4-2 1.3-2.8 3-3.3l.1-.7C8.8.9 7 .9 5.4.9S2 .9.1.8l-.1.7c2.5.7 2.8 1.9 3.3 4.2l5.6 23.9 1.1.1L18.9 7l5.3 22.6 1.1.1 9.5-24c1-2.7 2-3.9 3.2-3.9.5 0 .9.2 1.2.6.5.8.7 1.8.4 2.7l-3.3 24.6v.1h4l.9-7.1c.8-6.1 4-7.8 5.8-7.8.6 0 1.1.2 1.5.6.6.7.7 1.8.5 3.7l-.7 5.5c-.1.7-.1 1.4-.2 2.1 0 2.2.8 3.4 2.4 3.4 2.4 0 4.5-1.6 5.9-4.5.1-.2.2-.4.1-.7 0-.1-.1-.2-.3-.2zm3.6 2c0 2.2.8 3.4 2.4 3.4 2.4 0 4.5-1.6 5.9-4.5.1-.2.2-.4.1-.7 0-.1-.1-.1-.3-.2h0c-.2 0-.4.3-.6.6-.9 1.3-1.5 1.8-2.3 1.8-.3 0-.5-.1-.7-.3-.4-.4-.4-1.3-.2-2.9l1.6-11.7v-.1h-.1c-2.3.4-4.5.7-6.8.8h-.1l-.1.6h.1c1.8.4 2.6 1.6 2.4 3.6l-1 7.6c-.3.5-.3 1.2-.3 2zM92.4 5.3v-.1h-.8v.1c-1.3 3.4-3.8 6.2-6.9 8.1h0l-.1.7h2.7l-1.4 10.5c-.3 2.1 0 3.7.8 4.6.6.6 1.4 1 2.3.9 1.9 0 4.6-1.3 6.2-5.1.1-.2.2-.5.1-.7l-.3-.2h0c-.2 0-.4.3-.6.6-.6.8-1.8 2.1-2.9 2.1-.4 0-.7-.2-1-.4-.5-.7-.6-1.6-.4-2.5l1.3-9.8h4.9l.2-1.6h-4.9c-.2 0 .8-7.2.8-7.2zm-14 0v-.1h-.8v.1c-1.3 3.4-3.8 6.2-6.9 8.1h0l-.1.7h2.7l-1.4 10.5c-.3 2.1 0 3.7.8 4.6.6.6 1.4 1 2.3.9 1.9 0 4.6-1.3 6.2-5.1.1-.2.2-.5.1-.7h0l-.3-.1h0c-.2 0-.4.3-.6.6-1.1 1.3-2.1 2.1-2.9 2.1-.4 0-.7-.2-1-.4-.5-.7-.6-1.6-.4-2.5l1.3-9.8h4.9l.2-1.6h-4.9l.8-7.3h0zm39.3 19.5h0-.1c-.2 0-.4.3-.6.6-.8 1.3-1.5 1.8-2.3 1.8-.3 0-.5-.1-.7-.3-.4-.4-.4-1.3-.2-2.9l1.6-11.6.1-.5v-.1h-1v.1c-.3.9-1.1 1.5-2.1 1.6-.5 0-1.1-.2-1.5-.4-.9-.5-2-.7-3-.7-6.8 0-9.4 6.4-9.8 10.4 0 .4-.1.8-.1 1.2 0 2.7 1 4.4 2.2 5.3.9.6 1.9 1 2.9 1 2.3 0 4.4-1.4 6-3.9l.5-.8v.9c-.2 1.1.1 2.2.8 3.1.4.4 1 .7 1.6.6 2.1-.1 4-1.3 5-3 .3-.5.6-.9.9-1.5.1-.2.2-.4.1-.7-.1 0-.3-.2-.3-.2zm-7.3-7.2l-.5 3.5c-.6 4.1-2.3 6.4-4.8 6.4-1.3 0-2.7-1.3-2.8-4.1-.1-3.5.9-6.9 2.8-8.8.7-.8 1.7-1.3 2.8-1.4.7 0 1.3.3 1.8.8a4.51 4.51 0 0 1 .7 3.6zM154 25h0c0-.1-.1-.2-.3-.2h0c-.2 0-.4.3-.6.6-.9 1.3-1.5 1.8-2.3 1.8-.3 0-.5-.1-.7-.3-.4-.4-.4-1.3-.2-2.9l1.8-13.1L153.2.2V.1h-.1c-2.3.4-4.5.7-6.8.8h-.3v.5h.1c1.9.4 2.6 1.6 2.4 3.6l-.5 3.5-.6 4.3-.2.3-.3-.1c-.9-.5-2-.7-3-.7-4.6 0-7.3 3-8.7 6.1-.8 1.7-1.2 3.6-1.2 5.5 0 4.6 2.8 6.3 5.2 6.3.5 0 .9-.1 1.4-.2a7.73 7.73 0 0 0 4.6-3.7l.5-.8v.9c-.2 1.1.1 2.2.8 3.1.4.4 1 .6 1.6.6.9 0 1.7-.2 2.4-.6 1.5-.9 2.7-2.2 3.5-3.9V25h0zm-7.6-7.4l-.5 3.5c-.6 4.1-2.3 6.4-4.8 6.4-1.3 0-2.7-1.3-2.8-4-.1-3.5.9-6.9 2.8-8.8.7-.8 1.7-1.3 2.8-1.4.7 0 1.3.2 1.8.8.7.9 1 2.2.7 3.5z" fill="#435765"/></svg>