<?xml version="1.0" encoding="utf-8"?>
<svg version="1.1" id="Layer_1" xmlns="http://www.w3.org/2000/svg" xmlns:xlink="http://www.w3.org/1999/xlink" x="0px" y="0px"
	 viewBox="0 0 285.3 144.8" style="enable-background:new 0 0 285.3 144.8;" xml:space="preserve">
<g>
	<g>
		<path style="fill:#C7B191;" d="M134.1,106.1C134.1,106.1,134.1,106.1,134.1,106.1C134,106.1,134,106.1,134.1,106.1
			C134,106.1,134.1,106.1,134.1,106.1"/>
		<path style="fill:#C7B191;" d="M107.6,105.8h-2.3V99v-2.5c0,0,2.5,0,2.9,0c3.5,0,5.5,0.9,5.5,4.7
			C113.8,105.1,110.4,105.8,107.6,105.8 M116.1,109.9c-1.4-1.5-2.6-3.1-3.7-3.5c1.8-0.5,4.6-2.5,4.6-5.3c0-3.1-1.9-6-8.1-6
			c-0.7,0-7.6,0-7.6,0c0.4,0.1,0.6,0.2,0.8,0.4c0.3,0.4,0.4,1.1,0.5,2.2l0,15.7c0,1.1-0.1,1.8-0.5,2.2c-0.2,0.2-0.4,0.3-0.8,0.4h5.4
			c-0.4-0.1-0.6-0.2-0.8-0.4c-0.3-0.4-0.4-1.1-0.5-2.2l0-6h1.3c0.9,0,2,0,2.8,0.1c1,0.2,1.7,1.5,3.2,3l2.2,2.2c3,3,5.9,4.5,10.6,3.8
			C121.7,116.6,116.1,109.9,116.1,109.9"/>
		<path style="fill:#C7B191;" d="M67.3,95L67.3,95c0.4,0.1,0.6,0.2,0.8,0.4c0.4,0.5,0.4,0.9,0.5,2.2l0,13.7L54.8,95h-4.3
			c0.4,0.1,0.6,0.2,0.8,0.4c0.3,0.4,0.5,1.4,0.5,2.5v15.3c0,1.1-0.1,1.8-0.5,2.2c-0.2,0.2-0.4,0.3-0.8,0.4h4.2
			c-0.4-0.1-0.6-0.2-0.8-0.4c-0.3-0.4-0.5-1.1-0.5-2.2V97.8L68.7,116h1.5V97.6c0-1.1,0.1-1.8,0.5-2.2c0.2-0.2,0.4-0.3,0.8-0.4
			L67.3,95L67.3,95z"/>
		<path style="fill:#C7B191;" d="M270.1,95c0.4,0.1,0.6,0.2,0.8,0.4c0.3,0.4,0.5,1.1,0.5,2.2l0,15.7c0,1.1-0.1,1.8-0.5,2.2
			c-0.2,0.2-0.4,0.3-0.8,0.4h5.4c-0.4-0.1-0.6-0.2-0.8-0.4c-0.3-0.4-0.5-1.1-0.5-2.2v-7.6h5.5c1.1,0,1.8,0.1,2.2,0.5
			c0.2,0.2,0.3,0.4,0.4,0.8v-4c-0.1,0.4-0.2,0.6-0.4,0.8c-0.4,0.3-1.1,0.4-2.2,0.5h-5.5v-7.7h8.3c1.1,0,1.8,0.1,2.2,0.5
			c0.2,0.2,0.3,0.4,0.4,0.8V95H270.1z"/>
	</g>
	<rect x="254.6" y="96.4" style="fill:#C7B191;" width="0" height="0"/>
	<g>
		<path style="fill:#C7B191;" d="M34.6,96.7c1.3,3.5,3.1,8.2,4.5,11.9h-9C31.5,105,33.9,98.5,34.6,96.7 M28.8,116
			c-0.1,0-0.1,0-0.2-0.1c-0.1,0-0.2-0.1-0.3-0.1c-0.3-0.2-0.5-0.4-0.5-0.9c0-0.3,1.3-3.9,1.7-4.8h10.1c0.6,1.6,1.2,3.3,1.5,4.1
			c0.1,0.3,0.2,0.6,0.2,0.7c0,0.4-0.2,0.7-0.5,0.9c-0.1,0-0.2,0.1-0.3,0.1c-0.1,0-0.1,0.1-0.2,0.1h5.4c-0.8-0.3-1.2-0.9-1.8-2.4
			l-7-18.6h-3.7c-0.1,0.4-6.8,17.9-6.8,17.9c-0.7,2-1.1,2.8-2,3.1H28.8z"/>
		<path style="fill:#C7B191;" d="M197.2,115.5c-0.3-0.4-0.4-1.1-0.5-2.2l0-7.6h12.7v7.6c0,1.1-0.1,1.8-0.5,2.2
			c-0.2,0.2-0.4,0.3-0.8,0.4h5.3c-0.4-0.1-0.6-0.2-0.8-0.4c-0.3-0.4-0.4-1.1-0.5-2.2V97.6c0-1.1,0.1-1.8,0.5-2.2
			c0.2-0.2,0.4-0.3,0.8-0.4h-5.3c0.4,0.1,0.6,0.2,0.8,0.4c0.3,0.4,0.4,1.1,0.5,2.2v6.6h-12.7l0-6.6c0-1.1,0.1-1.8,0.5-2.2
			c0.2-0.2,0.4-0.3,0.8-0.4h-5.3c0.4,0.1,0.6,0.2,0.8,0.4c0.3,0.4,0.4,1.1,0.5,2.2v15.7c0,1.1-0.1,1.8-0.5,2.2
			c-0.2,0.2-0.4,0.3-0.8,0.4h5.3C197.6,115.9,197.3,115.7,197.2,115.5"/>
		<path style="fill:#C7B191;" d="M184,95c0.1,0,0.1,0.1,0.2,0.1c0.1,0,0.2,0.1,0.3,0.1c0.3,0.2,0.6,0.5,0.5,0.9
			c0,0.2-3.8,10.4-5.7,15.5c-2.2-6.5-5.1-15.3-5.1-15.6c0-0.5,0.2-0.8,0.6-1H170c0.6,0.2,1,0.7,1.3,1.6c-0.8,2.2-3.8,10.6-5.4,15
			c-2.2-6.5-5.2-15.3-5.3-15.7c-0.1-0.5,0.2-0.8,0.6-1h-4.8c0.7,0.2,1.1,0.8,1.4,1.9l6.6,19.1l1.5,0c0.2-0.6,0.5-1.2,0.7-1.9
			c1.7-4.6,4.4-11.8,5.5-14.5l5.7,16.4l1.5,0c0.2-0.6,6.8-17.9,6.8-17.9c0.7-2,1.1-2.8,2.1-3.1L184,95L184,95z"/>
		<path style="fill:#C7B191;" d="M135.3,115.5c-0.3-0.4-0.4-1.1-0.5-2.2v-5.5c0,0,6.9-10.4,7-10.5c1-1.5,1.4-2.2,2.3-2.3v0h-4.3v0h0
			c0.1,0,0.1,0,0.2,0c0.4,0.1,0.7,0.4,0.7,0.8c0,0.3-0.2,0.6-0.2,0.6s-5.6,8.3-6.4,9.6c0,0,0,0,0,0c0,0,0,0,0,0
			c-2.9-4.6-5.9-9.3-6.1-9.6c-0.2-0.4-0.3-0.7-0.3-0.9c0-0.3,0.2-0.5,0.5-0.6c0,0,0,0,0,0h-5.5c0.7,0.1,1.3,0.5,1.9,1.5l7.2,11.3
			v5.5c0,1.1-0.1,1.8-0.5,2.2c-0.2,0.2-0.4,0.3-0.8,0.4h5.4C135.7,115.9,135.5,115.7,135.3,115.5"/>
		<path style="fill:#C7B191;" d="M20.5,110.7c-0.2,0.3-0.6,0.9-1.2,1.5l0,0c0,0-0.1,0.1-0.1,0.1c0,0-0.1,0.1-0.1,0.1l0,0
			c-0.3,0.3-0.7,0.6-1,0.8l0,0c0,0-0.1,0.1-0.1,0.1c0,0-0.1,0.1-0.1,0.1l0,0c-1.4,0.9-3.1,1.4-4.8,1.4c-2.5,0.1-5-0.9-6.8-2.7
			c-1.8-1.8-2.8-4.5-2.8-6.8c-0.1-3.6,1.6-7,4.8-8.7l0,0c0,0,0,0,0,0l0,0c0.1,0,0.1-0.1,0.2-0.1c1.3-0.7,2.6-1,4.1-1.1c0,0,0,0,0,0
			c0,0,0.1,0,0.1,0c0,0,0.1,0,0.1,0c3,0,5.9,1.3,7.6,3.5l-0.4-3.6c-0.6,0.2-1.3-0.1-2.4-0.4c-1.5-0.5-3-0.7-4.6-0.8c0,0,0,0,0,0
			c-0.1,0-0.1,0-0.2,0c0,0,0,0-0.1,0c0,0-0.1,0-0.1,0h-0.1c-0.7,0-1.4,0-2.1,0.1c0,0,0,0,0,0c0,0-0.1,0-0.1,0
			c-0.3,0-0.6,0.1-0.8,0.1l-0.1,0c-2.1,0.5-4.1,1.5-5.6,2.9c-1.6,1.4-2.7,3.3-3.2,5.3l0,0c0,0.1,0,0.1-0.1,0.2l0,0.1
			c0,0.1,0,0.1,0,0.2c0,0,0,0.1,0,0.1c0,0,0,0.1,0,0.1l0,0c0,0,0,0.1,0,0.1c0,0.1,0,0.1,0,0.2c0,0,0,0.1,0,0.1v0c0,0,0,0.1,0,0.1
			c0,0,0,0.1,0,0.1c0,0,0,0,0,0l0,0c0,0.1,0,0.2,0,0.3l0,0c0,0,0,0,0,0.1c0,0,0,0.1,0,0.1c0,0,0,0.1,0,0.1v0c0,0.1,0,0.1,0,0.2
			c0,0.1,0,0.1,0,0.2c0,0,0,0,0,0.1v0c0,0.1,0,0.1,0,0.2c0,0,0,0.1,0,0.1c0,0.1,0,0.2,0,0.2c0,0.1,0,0.1,0,0.2v0c0,0.1,0,0.1,0,0.2
			c0,0.1,0,0.1,0,0.2l0,0c0,0,0,0.1,0,0.1l0,0c0,0.1,0,0.2,0,0.3l0,0.1c0,0,0,0.1,0,0.1c0,0.1,0,0.1,0,0.2c0,0,0,0,0,0.1l0,0
			c0,0.1,0,0.1,0,0.2v0c0,0.1,0,0.2,0.1,0.3c0.5,2.5,1.9,4.8,4.1,6.4c0.2,0.2,0.4,0.3,0.6,0.4c0.1,0,0.1,0.1,0.2,0.1c0,0,0,0,0,0
			c0.1,0,0.1,0.1,0.2,0.1c0,0,0,0,0,0c1.9,1.1,4.2,1.6,6.4,1.7c0,0,0.1,0,0.1,0H12c0.2,0,0.4,0,0.7,0l0.5,0l0.2,0c0,0,0,0,0.1,0
			l0.1,0c0,0,0,0,0.1,0l0.1,0c0,0,0,0,0.1,0h0c0,0,0,0,0.1,0l0.2,0l0.3,0c0,0,0,0,0.1,0l0.1,0c0,0,0,0,0.1,0c0,0,0,0,0.1,0l0.3-0.1
			l0.6-0.1c0.2,0,0.3-0.1,0.5-0.1l0,0c0.1,0,0.2-0.1,0.3-0.1l0.2,0c0,0,0,0,0.1,0l0.1,0c0,0,0,0,0.1,0l0.2,0c0,0,0,0,0,0l0.1,0
			l0.3,0l0.2,0c0,0,0,0,0,0l0,0c0,0,0,0,0,0l0.1,0c0,0,0,0,0,0l0.2,0h0.1l0.3,0c0,0,0,0,0,0l0.1,0c0,0,0,0,0.1,0l0,0
			c0,0,0.1,0,0.1,0l0.1,0c0,0,0.5-1,0.9-2.3C20.4,111.8,20.5,110.7,20.5,110.7"/>
		<path style="fill:#C7B191;" d="M85.5,96.7c1.3,3.5,3.1,8.2,4.5,11.9h-9C82.3,105,84.8,98.5,85.5,96.7 M79.7,116
			c-0.1,0-0.1,0-0.2-0.1c-0.1,0-0.2-0.1-0.2-0.1c-0.3-0.2-0.5-0.4-0.5-0.9c0-0.3,1.3-3.9,1.7-4.8h10.1c0.6,1.6,1.2,3.3,1.5,4.1
			c0.1,0.3,0.2,0.6,0.2,0.7c0,0.4-0.2,0.7-0.5,0.9c-0.1,0-0.2,0.1-0.2,0.1c-0.1,0-0.1,0.1-0.2,0.1h5.4c-0.8-0.3-1.2-0.9-1.8-2.4
			l-7-18.6h-3.7c-0.1,0.4-6.8,17.9-6.8,17.9c-0.7,2-1.1,2.8-2.1,3.1H79.7z"/>
		<path style="fill:#C7B191;" d="M227.7,96.7c1.3,3.5,3.1,8.2,4.5,11.9h-9C224.5,105,227,98.5,227.7,96.7 M221.9,116
			c-0.1,0-0.1,0-0.2-0.1c-0.1,0-0.2-0.1-0.2-0.1c-0.3-0.2-0.5-0.4-0.5-0.9c0-0.3,1.3-3.9,1.7-4.8h10.1c0.6,1.6,1.2,3.3,1.5,4.1
			c0.1,0.3,0.2,0.6,0.2,0.7c0,0.4-0.2,0.7-0.5,0.9c-0.1,0-0.2,0.1-0.2,0.1c-0.1,0-0.1,0.1-0.2,0.1h5.4c-0.8-0.3-1.2-0.9-1.8-2.4
			L230,95h-3.7c-0.1,0.4-6.8,17.9-6.8,17.9c-0.7,2-1.1,2.8-2.1,3.1H221.9z"/>
		<path style="fill:#C7B191;" d="M249.3,105.8H247V99v-2.5c0,0,2.5,0,2.9,0c3.5,0,5.5,0.9,5.5,4.7
			C255.4,105.1,252.1,105.8,249.3,105.8 M257.8,109.9c-1.4-1.5-2.6-3.1-3.7-3.5c1.8-0.5,4.6-2.5,4.6-5.3c0-3.1-1.9-6-8.1-6
			c-0.7,0-7.6,0-7.6,0c0.4,0.1,0.6,0.2,0.8,0.4c0.3,0.4,0.4,1.1,0.5,2.2l0,15.7c0,1.1-0.1,1.8-0.5,2.2c-0.2,0.2-0.4,0.3-0.8,0.4h5.4
			c-0.3-0.1-0.6-0.2-0.8-0.4c-0.3-0.4-0.4-1.1-0.5-2.2v-6h1.3c0.9,0,2,0,2.8,0.1c1,0.2,1.7,1.5,3.2,3l2.2,2.2c3,3,5.9,4.5,10.6,3.8
			C263.4,116.6,257.8,109.9,257.8,109.9"/>
		<path style="fill:#C7B191;" d="M167.1,25.7h-2.6c1.2,0,2.2,1,2.2,2.2c0,0,0,45.6,0,45.7l-3.7-2.1c0-0.4,0-43.6,0-43.6
			c0-1.1-0.9-2-1.9-2.1c-0.1,0-2.8,0-2.8,0c1.2,0,2.2,1,2.2,2.2V70l-3.7-2.2V8.5c0-0.1-0.1-0.2-0.2-0.3c0,0-1.4-0.8-1.4-0.8
			c-0.3-0.1-0.6-0.2-0.9-0.2c-0.4,0-0.7,0.1-1,0.2l0,0c0,0-10.6,6.1-10.6,6.1c-0.6,0.4-1,1-1,1.7v45.1c0,0.2-0.1,0.4-0.3,0.4l-3.5,2
			V12.3c0-0.2,0.1-0.4,0.3-0.4l11.3-6.5c0.3-0.1,0.6-0.2,0.9-0.2c0.4,0,0.8,0.1,1.2,0.3h0l-2.7-1.5c-0.3-0.2-0.7-0.3-1-0.3
			c-0.3,0-0.7,0.1-0.9,0.2c0,0-10.6,6.1-10.6,6.1c-0.6,0.4-1,1-1,1.7v52.6l-3.7,2.2l0-57.7c0-0.2,0.1-0.4,0.3-0.4l11.3-6.5
			c0.3-0.2,0.7-0.3,1-0.3c0.4,0,0.8,0.1,1.2,0.3l-2.7-1.5c-0.3-0.2-0.7-0.3-1-0.3c-0.4,0-0.7,0.1-1.1,0.3c0,0-10.4,6-10.5,6.1
			c-0.6,0.4-1,1-1,1.7v59.9l-3.7,2.2c0-7.5,0-42.1,0-42.1c0-1.2,1-2.2,2.2-2.2h-2.5c-1.2,0-2.2,1-2.2,2.2v43.6l-3.7,2.1
			c0,0,0-45.7,0-45.7c0-1.2,1-2.2,2.2-2.2h-2.5c-1.2,0-2.2,1-2.2,2.2c0,0,0,47,0,47c0,0,0,0,0,0c0,0.1,0.1,0.2,0.2,0.3
			c0,0,1.4,0.8,1.4,0.8c0.3,0.1,0.6,0.2,0.9,0.2c0.4,0,0.7-0.1,1-0.3l0,0c0,0,23.4-13.5,23.4-13.5c0.5-0.3,0.8-0.8,0.8-1.4
			c0-0.1,0-45.2,0-45.2c0-0.2,0.1-0.4,0.3-0.4l3.5-2l0,50.5c0,0.2-0.1,0.4-0.3,0.4l-23.7,13.7c-0.3,0.2-0.7,0.3-1.1,0.3
			c-0.4,0-0.8-0.1-1.2-0.3l2.7,1.5c0.3,0.2,0.7,0.3,1,0.3c0.5,0,1.1-0.3,1.1-0.3s23-13.3,23.1-13.3c0.7-0.4,0.9-1.3,0.9-1.6
			c0,0,0-52.4,0-52.6l3.7-2.2v0v57.7c0,0.2-0.1,0.4-0.3,0.4l-23.7,13.7c-0.3,0.2-0.7,0.3-1.1,0.3c-0.4,0-0.8-0.1-1.2-0.3l2.7,1.5
			c0.3,0.2,0.7,0.3,1,0.3h0c0.3,0,0.7-0.1,1-0.2c0.1,0,10.4-6,10.4-6l10.1,5.9c0.3,0.2,0.7,0.3,1.1,0.3c0.4,0,0.7-0.1,1-0.3l2.7-1.5
			c-0.4,0.2-0.7,0.3-1.2,0.3c-0.4,0-0.8-0.1-1.1-0.3l-10.1-5.8l3.7-2.1l10.1,5.8c0.3,0.2,0.7,0.3,1.1,0.3c0.4,0,0.7-0.1,1-0.3
			l2.7-1.5c-0.4,0.2-0.7,0.3-1.2,0.3c-0.4,0-0.8-0.1-1.1-0.3l-10.1-5.8l3.7-2.1l10.3,6c0.3,0.2,0.6,0.2,1,0.2c0.3,0,0.6-0.1,0.9-0.2
			c0.1,0,1.4-0.8,1.4-0.8c0.1-0.1,0.2-0.2,0.2-0.3c0,0,0,0,0,0l0-47C169.4,26.7,168.4,25.7,167.1,25.7"/>
		<path style="fill:#C7B191;" d="M79.2,143.1c-1,1.1-2.4,1.7-3.9,1.7c-1.4,0-2.7-0.5-3.7-1.5c-1.4-1.4-1.4-2.8-1.4-5.8
			c0-3.1,0-4.5,1.4-5.8c1-1,2.3-1.5,3.7-1.5c2.8,0,4.6,1.8,5.1,4.3h-1.5c-0.4-1.8-1.7-2.9-3.5-2.9c-1,0-1.9,0.4-2.5,1
			c-0.9,0.9-1,1.9-1,4.9c0,3,0.1,4,1,5c0.6,0.6,1.5,1,2.5,1c1.1,0,2.1-0.4,2.7-1.2c0.6-0.7,0.8-1.5,0.8-2.6v-1.1h-3.6v-1.4h5.1v2.3
			C80.4,141.1,80.1,142.2,79.2,143.1"/>
		<path style="fill:#C7B191;" d="M94.5,131.6h-3.9v5.3h3.9c1.7,0,2.9-0.9,2.9-2.6C97.4,132.5,96.2,131.6,94.5,131.6 M97.4,144.7
			l-3.3-6.4h-3.5v6.4h-1.5v-14.4h5.5c2.5,0,4.3,1.5,4.3,4c0,2.1-1.3,3.5-3.2,3.9l3.4,6.6L97.4,144.7L97.4,144.7z"/>
		<path style="fill:#C7B191;" d="M114.5,132.5c-0.6-0.6-1.5-1-2.5-1c-1,0-1.9,0.4-2.5,1c-0.9,0.9-1,1.9-1,4.9s0.1,4,1,4.9
			c0.6,0.6,1.5,1,2.5,1c1,0,1.9-0.4,2.5-1c0.9-0.9,1-1.9,1-4.9C115.5,134.4,115.4,133.4,114.5,132.5 M115.7,143.3
			c-1,1-2.3,1.5-3.7,1.5s-2.7-0.5-3.7-1.5c-1.4-1.4-1.4-2.8-1.4-5.8c0-3.1,0-4.5,1.4-5.8c1-1,2.3-1.5,3.7-1.5c1.4,0,2.7,0.5,3.7,1.5
			c1.4,1.4,1.4,2.8,1.4,5.8C117,140.5,117,141.9,115.7,143.3"/>
		<path style="fill:#C7B191;" d="M130.6,144.8c-2.9,0-5-2-5-4.9v-9.7h1.5v9.6c0,2.2,1.4,3.6,3.5,3.6c2.1,0,3.5-1.4,3.5-3.6v-9.6h1.5
			v9.7C135.6,142.8,133.5,144.8,130.6,144.8"/>
		<path style="fill:#C7B191;" d="M149.9,131.6h-3.7v5.7h3.7c1.8,0,3.1-1,3.1-2.9C153,132.6,151.7,131.6,149.9,131.6 M150,138.7h-3.8
			v5.9h-1.5v-14.4h5.4c2.6,0,4.5,1.6,4.5,4.2C154.5,137.1,152.7,138.7,150,138.7"/>
		<path style="fill:#C7B191;" d="M177.9,131.6h-3.7v5.7h3.7c1.8,0,3.1-1,3.1-2.9C180.9,132.6,179.7,131.6,177.9,131.6 M178,138.7
			h-3.8v5.9h-1.5v-14.4h5.4c2.6,0,4.5,1.6,4.5,4.2C182.5,137.1,180.7,138.7,178,138.7"/>
	</g>
	<polygon style="fill:#C7B191;" points="190.5,144.7 190.5,130.2 192,130.2 192,143.3 199.4,143.3 199.4,144.7 	"/>
	<g>
		<path style="fill:#C7B191;" d="M211,144.8c-1.4,0-2.7-0.5-3.7-1.5c-1.4-1.4-1.4-2.8-1.4-5.8c0-3.1,0-4.5,1.4-5.8
			c1-1,2.3-1.5,3.7-1.5c2.6,0,4.5,1.6,5,4.3h-1.6c-0.4-1.8-1.6-2.9-3.4-2.9c-1,0-1.9,0.4-2.5,1c-0.9,0.9-1,1.9-1,4.9
			c0,3,0.1,4,1,4.9c0.6,0.7,1.5,1,2.5,1c1.8,0,3.1-1.2,3.5-2.9h1.5C215.5,143.2,213.5,144.8,211,144.8"/>
	</g>
</g>
</svg>
