<?xml version="1.0"?>
<svg xmlns="http://www.w3.org/2000/svg" xmlns:xlink="http://www.w3.org/1999/xlink" xmlns:svgjs="http://svgjs.com/svgjs" version="1.1" width="512" height="512" x="0" y="0" viewBox="0 0 460.003 460.003" style="enable-background:new 0 0 512 512" xml:space="preserve" class=""><g>
<g xmlns="http://www.w3.org/2000/svg">
	<path style="" d="M126.731,24.436C51.568,62.27,0.002,140.115,0.002,230.003c0,98.564,61.999,182.647,149.126,215.379   L126.731,24.436z" fill="#f1f1f1" data-original="#366796" class=""/>
	<path style="" d="M334.427,25.024C334.401,25.03,65.939,362.17,65.939,362.17l83.2,83.199   c25.171,9.453,52.41,14.634,80.863,14.634c127.025,0,230-102.975,230-230C460.002,140.576,408.963,63.072,334.427,25.024z" fill="#f1f1f1" data-original="#273b7a" class=""/>
	<polygon style="" points="211.245,58.218 126.741,72.08 126.741,220.668 295.914,220.668 334.401,130.12  " fill="#fee187" data-original="#fee187"/>
	<polygon style="" points="216.656,244.479 230.502,348.319 380.886,348.319 380.886,258.325  " fill="#71e2f0" data-original="#71e2f0" class=""/>
	<polygon style="" points="230.502,168.326 216.656,258.325 380.886,258.325 380.886,168.331  " fill="#c2fbff" data-original="#c2fbff"/>
	<polygon style="" points="79.786,258.658 79.786,348.653 230.502,348.319 230.502,258.325 161.271,237.556  " fill="#c2fbff" data-original="#c2fbff"/>
	<polygon style="" points="79.786,168.664 79.786,258.658 230.502,258.325 230.502,168.326  " fill="#ffffff" data-original="#ffffff"/>
	<path style="" d="M230.502,208.331c28.677,0,51.92,23.243,51.92,51.92c0,28.671-23.243,51.919-51.92,51.919   l-11.538-51.919L230.502,208.331z" fill="#38c6d9" data-original="#38c6d9"/>
	<path style="" d="M230.502,208.331V312.17c-28.677,0-51.919-23.248-51.919-51.919   C178.583,231.573,201.826,208.331,230.502,208.331z" fill="#71e2f0" data-original="#71e2f0" class=""/>
	<path style="" d="M342.468,178.331H230.502l-10-10.005l10-9.929h164.23V362.17h-164.23l-10-9.232l10-10.768h111.966   c0-17.819,14.445-32.263,32.263-32.263v-99.313C356.913,210.594,342.468,196.149,342.468,178.331z" fill="#38c6d9" data-original="#38c6d9"/>
	<path style="" d="M118.203,178.331h112.299v-19.933H65.94V362.17h164.563v-20h-112.3   c0-17.819-14.445-31.93-32.263-31.93v-99.313C103.758,210.927,118.203,196.149,118.203,178.331z" fill="#71e2f0" data-original="#71e2f0" class=""/>
	<path style="" d="M288.576,158.397l0.355,78.119c0,12.406,10.094,22.5,22.5,22.5s22.5-10.094,22.5-22.5V72.08   L211.245,58.218l0.001,13.863C211.245,117.032,245.051,153.031,288.576,158.397L288.576,158.397z" fill="#ffc61b" data-original="#ffc61b"/>
	<path style="" d="M334.401,25.03C303.069,9.038,267.596,0,230.006,0l-23.539,33.806L230.15,72.08h104.25V25.03z" fill="#f1f1f1" data-original="#121149" class=""/>
	<path style="" d="M126.741,72.08h103.41L230.006,0c-37.137,0-72.21,8.818-103.265,24.455   C126.741,24.455,126.741,72.08,126.741,72.08z" fill="#f1f1f1" data-original="#273b7a" class=""/>
</g>
<g xmlns="http://www.w3.org/2000/svg">
</g>
<g xmlns="http://www.w3.org/2000/svg">
</g>
<g xmlns="http://www.w3.org/2000/svg">
</g>
<g xmlns="http://www.w3.org/2000/svg">
</g>
<g xmlns="http://www.w3.org/2000/svg">
</g>
<g xmlns="http://www.w3.org/2000/svg">
</g>
<g xmlns="http://www.w3.org/2000/svg">
</g>
<g xmlns="http://www.w3.org/2000/svg">
</g>
<g xmlns="http://www.w3.org/2000/svg">
</g>
<g xmlns="http://www.w3.org/2000/svg">
</g>
<g xmlns="http://www.w3.org/2000/svg">
</g>
<g xmlns="http://www.w3.org/2000/svg">
</g>
<g xmlns="http://www.w3.org/2000/svg">
</g>
<g xmlns="http://www.w3.org/2000/svg">
</g>
<g xmlns="http://www.w3.org/2000/svg">
</g>
</g></svg>
