<?xml version="1.0" encoding="utf-8"?>
<!-- Generator: Adobe Illustrator 24.2.1, SVG Export Plug-In . SVG Version: 6.00 Build 0)  -->
<svg version="1.1" id="layer" xmlns="http://www.w3.org/2000/svg" xmlns:xlink="http://www.w3.org/1999/xlink" x="0px" y="0px"
	 viewBox="0 0 599.9 194.4" style="enable-background:new 0 0 599.9 194.4;" xml:space="preserve">
<style type="text/css">
	.st0{fill:#CE0924;}
	.st1{fill:#FFFFFF;}
</style>
<g id="_x31__x5F_00_x5F_Homepage">
	<g id="_x31__x5F_Homepage---1800" transform="translate(-277.000000, -18.000000)">
		<g id="logo" transform="translate(277.000000, 18.000000)">
			<g id="Group-3" transform="translate(35.878597, 21.608454)">
				<g id="Clip-2">
				</g>
				<path id="Fill-1" class="st0" d="M456.5,129.7c-0.1-0.5-0.1-1-0.1-1.5v-0.1c0-0.1,0-0.1,0-0.2c0-2.8,1.1-6.8,1.5-7.8l0.1-0.2
					c1.1-3,1.5-4.2,3-6.4c2.5-3.6,3.6-4.8,6.2-6.5c2.4-1.6,5.5-1.9,5.8-1.9h0.1c0.4-0.1,1.1-0.1,1.9-0.1c0.9,0,1.8,0.1,2.2,0.1h0.1
					c0.3,0,2.8,0.3,5,2.4c2.4,2.3,3.7,5.4,4,9.2c0.1,1.9,0,3.6-0.5,6.2c-0.8,4.7-2.6,7.9-3.8,9.8c-2,2.9-3.7,4.9-6.3,6.4
					c-1.3,0.7-3.8,2.1-7.8,2.1c-1,0-2.1-0.1-3.2-0.3c-1.3-0.2-3.1-1.3-3.2-1.4s-0.8-0.6-1-0.9C458.1,136.6,456.9,133.7,456.5,129.7
					L456.5,129.7z M500.2,103.1c-7.1-7-17.6-8-23.3-8c-3,0-5,0.3-5.2,0.3c-13.7,2-23.8,7.2-30,15.3c-6.3,8.3-6.1,16.5-5.9,18.8
					c1,11.6,7.9,18.5,20.4,20.5l0,0c0.2,0,3.9,0.7,9.3,0.7c6.4,0,12.3-0.9,17.4-2.8c5.4-1.9,9-4.8,9.2-4.9l0,0
					c6.9-5,9.9-10.6,10-10.9C506.4,124,509.6,112.3,500.2,103.1L500.2,103.1z M513.1,98c-0.3,0.2-1,0.4-1.6,0.5
					c-0.2,0-0.5,0.1-0.7,0.1c-0.7,0-1.2-0.1-1.5-0.5c-1-0.9-0.7-2.1-0.3-2.7c3.5-5.2,2.7-13.1,1.7-16.9v-0.1l0,0V78
					c-0.2-0.9-0.3-1.8-0.3-2.7c0-4.1,2.5-5.7,2.8-5.9c0.1-0.1,0.3-0.2,0.7-0.4l0,0l0.2-0.1c0.1,0,0.5-0.2,0.9-0.3
					c0.2-0.1,0.4-0.1,0.5-0.1s0.2-0.1,0.3-0.1c0,0,0.1,0,0.3,0c1.2-0.2,3.1-0.3,5.1,0.5c0.1,0.1,0.3,0.1,0.4,0.2
					c1,0.5,1.9,1.2,2.6,2.1c0.7,0.9,1.2,2,1.5,3.2c0.4,1.6,0.5,3.6,0.2,5.8c0,0-0.3,2.7-1,4.5l-0.6,1.8c-0.5,1.4-0.9,2.1-1.6,3.3
					c-0.1,0.1-0.2,0.3-0.4,0.7c-0.1,0.2-0.2,0.3-0.3,0.5c-0.6,0.9-0.9,1.3-1.7,2.2c-0.2,0.2-0.4,0.4-0.7,0.7l-0.3,0.3
					c-0.5,0.5-1.1,1-1.9,1.6C515.4,97,514,97.7,513.1,98L513.1,98z M564,132.5c0.1,3.8-2,8-5.6,11.3c-3.3,2.9-7.9,5.2-13.2,6.3
					c-1.3,0.3-5.8,1.2-11.5,1.2c-4.3,0-8.1-0.5-11.5-1.5l0,0l-1-0.3c-3-1-5.5-2.3-7.2-3.9c-0.4-0.3-0.7-0.7-1-0.9l-0.1-0.1
					c-2.4-2.9-2.8-6.3-1-9.6c1.1-2,2.8-3.5,4.6-4.3c3.3-1.3,6.4-1.4,7.4-1.4h0.2c0.1,0,0.3,0,0.4,0c1.3,0,3.9,0.4,4.9,1.7
					c0.4,0.5,0.5,1.1,0.4,1.8c-0.1,0.4-0.4,0.9-1.2,1.4c-2.4,1.2-4,2.3-4.4,3.5c-0.1,0.6,0,1.2,0.4,1.9c0.8,1.4,3.7,2.2,7.8,2.3h0.2
					c4.2,0,7.6-1.1,9.3-3.1c0.8-0.9,1.1-1.9,1-2.9c0-0.3-0.1-0.7-0.3-1.1c-1.9-3.7-7.1-8.5-16.3-15c-0.3-0.2-0.6-0.4-0.9-0.7
					c-5.7-4.1-5.6-7.5-5.5-8.6v-0.1c0-0.1,0-0.1,0-0.2c0-1.4,0.4-2.4,0.4-2.4l0.1-0.1c2.3-7.5,10.9-9.8,15.9-10.4
					c1.8-0.2,3.3-0.3,4-0.3h0.3c0.8,0,1.6,0,2.5,0c4.1,0,7.2,0.4,8.6,0.8c0.8,0.2,1.5,0.3,2.2,0.3c2,0,2.7-1,3.3-1.9l0.1-0.2
					c0.5-0.7,1.6-1.5,3-1.4h0.2c1.5,0.1,2.3,0.8,2.2,4.3c-0.1,2.4-0.8,9.9-0.9,11.4c-0.1,1.3-0.5,2.2-1,2.6c-0.3,0.2-1,0.6-1.9,0.5
					c-1.4-0.1-2.5-2.1-2.7-2.5l0,0c-0.7-2-3.7-4.3-9.7-4.3h-0.4c-3.1,0.1-4.1,0.6-4.5,1c-0.2,0.3-0.2,0.5-0.2,0.9v0.1
					c0.1,0.9,1.8,2.1,3.2,3c0.5,0.4,1,0.7,1.5,1c3,2.2,5.4,4,7.3,5.3c2.1,1.5,3.6,2.6,4.9,3.6C560.2,123,563.9,126,564,132.5
					L564,132.5z M378.1,124.6c0.1-1.4,0.3-2.7,0.6-4v-0.2c0.4-1.6,1.1-3,2-4.5c5.8-10,16.9-10.6,17.1-10.6c1-0.1,1.9-0.2,2.7-0.2
					c5.5,0,6.9,2.4,7.3,3.4c0,0.3,0,0.6,0,0.8c0,1.1-1.1,11.2-1.9,15.5c-0.3,1.7-1.1,5-2.5,7.7c-0.5,1-1.1,1.8-1.7,2.4
					c-3.6,3.6-6.1,5-10.5,5.5c-0.5,0.1-1.1,0.1-1.7,0.1c-2.2,0-4.3-0.8-6.3-2.4C380.5,136.2,377.8,131.5,378.1,124.6L378.1,124.6z
					 M430.1,135.6c-0.4-0.1-0.7-0.1-1.1-0.1h-0.1c-1.2,0-2.1,0.5-2.8,1c-0.7,0.4-1.3,0.8-2.1,0.8c-0.1,0-0.3-0.1-0.4-0.2
					c-0.9-1.1-0.2-5.3,0-6.9l0.1-0.4c0.4-2.4,0.8-5.1,1.3-8.8c0.3-1.9,0.6-3.7,0.9-5.4c0.7-4.5,2.4-13.5,3.4-18.2
					c2.8-12.8,6-21.3,7.5-25.4c0.7-1.9,1-2.6,1-3c0-0.6-0.1-2.6-1.7-3.5c-0.3-0.2-0.6-0.2-1-0.2c-1.9,0-4.8,1.9-6.3,3
					c-12.3,9-17.2,24.7-18.9,30.5c-0.2-0.1-0.4-0.2-0.5-0.3c-0.2-0.1-0.4-0.2-0.6-0.3c-4.9-2.2-11.5-2.6-11.8-2.7
					c0,0-0.9-0.1-2.5-0.1h-0.2c-1.2,0-2.5,0.1-3.7,0.1c-6.4,0.4-10.7,1.9-11.9,2.3c-1.3,0.5-3,1.2-4.4,1.8
					c-7.4,3.5-12.7,9-15.9,16.3c-0.7,1.8-6.2,17.5,6.2,27.6c0.2,0.2,0.5,0.4,0.7,0.5l0.3,0.2c0.4,0.3,0.8,0.5,1.1,0.8l0.4,0.2
					c0.2,0.1,0.3,0.2,0.5,0.3c1.5,0.9,3,1.7,4.7,2.4h0.1l0,0c1.3,0.5,3.4,1.1,5.7,1.7c1.6,0.3,5.1,0.6,6.5,0.6h0.1
					c0.1,0,0.2,0,0.3,0c8.1-0.3,13.3-2.2,16.4-3.9l0,0l0.8-0.5c1.9-1.2,3-2.3,3.7-3.1c0.1,0.3,0.3,0.5,0.3,0.7l0,0
					c1.1,1.8,4.7,5.3,10.9,5.5c0.9,0,1.9,0,2.9-0.1c3.6-0.5,9.9-2.2,11.9-8.6c0.3-0.8,0.6-2.4,0-3.6
					C431.4,136.2,430.9,135.8,430.1,135.6L430.1,135.6z M196.3,82.8l-10.9,62.7l0,0c-0.1,0.4-0.4,2.4-0.4,2.4
					c-0.3,1.6-2,2.7-3.4,2.7h-0.1c-3.4,0-7.3-5.1-7.5-5.3l-0.4-0.6c-4.3-5.5-27.9-42-32.4-49l-6.6,38.5c0,0.1-1.3,5.8,2,7.2
					c5,2.2,5,4,4.5,5.5c-0.2,0.7-0.7,1.7-2.5,2c-0.1,0-0.3,0.1-0.5,0.1H138h-0.1c-0.4,0-0.9-0.1-1.4-0.1c-0.4-0.1-0.9-0.1-1.4-0.1
					h-0.4c-1.2-0.1-4.9-0.4-10.3-0.4c-3.7,0-7.4,0.3-10,0.5c-1.2,0.1-2.1,0.2-2.7,0.2h-0.1c0,0-0.2,0-0.6,0c-0.7,0-1.9-0.1-2.7-1
					c-0.6-0.7-0.9-1.7-0.8-3c0.2-1.8,2.5-2.4,4.7-2.9h0.2c4.6-1.1,6.2-6.5,6.6-8.8c0-0.1,0-0.1,0-0.1c0.9-5.2,3-18,4.8-29.3
					c1.7-10.5,3.2-19.6,3.5-21.7c0.6-3.5-0.4-6.1-3.3-7.9h-0.1c-1.3-0.6-1.9-0.9-3.2-1.7c-0.8-0.5-1.7-1.9-1.7-3
					c0.1-1.1,0.9-2.1,1.9-2.4l0,0h0.2h0.1h0.1c0,0,0.9-0.2,2.4-0.3l0,0l0,0l0,0l0,0h0.1c1.9-0.2,3.9-0.3,5.9-0.3c0.6,0,1.3,0,1.9,0
					c0.6,0,1.1,0,1.5,0h0.2c0.6,0,1.6,0,2.8,0.2c0.6,0.1,0.8,0.1,0.8,0.1l0,0c8.8,1.4,16.8,8.9,26,24.1c3.3,5.6,7.5,12.3,10.8,17.6
					c1.2,1.9,2.2,3.6,3.1,5l5.3-31.4c0-0.1,0.9-6.6-3.6-8.4c-2.6-1-4-2.8-3.8-4.5c0.2-2,1.8-3,4-2.7h0.1c0.3,0,0.5,0.1,0.8,0.1
					c0.4,0.1,0.9,0.1,1.4,0.1h0.4c1.2,0.1,4.9,0.4,10.3,0.4c3.7,0,7.4-0.3,10-0.5c1.4-0.1,2.4-0.2,3-0.2c0.2,0,0.4,0,0.5,0l0,0
					c1,0,1.9,0.6,2.2,1.5l0,0l0.1,0.3c0.5,2.6-1.4,4.5-5.5,5.5c-5.2,1.3-6,8.3-6,8.4L196.3,82.8L196.3,82.8z M350.8,120.1
					c0,0.1,0,0.3,0,0.3c0,1.6-0.6,8.8-4.5,14.5c-4.4,6.4-10.2,10.4-14.2,12.5c-0.4,0.2-0.8,0.4-1.3,0.7c-2.6,1.4-5.2,2.8-8.4,3.4
					c-0.2,0-0.4,0-0.6,0s-0.8,0-1.2-0.2h-0.1c-0.6-0.2-1.4-0.6-1.5-1.9c0-0.3,0.1-0.7,0.8-1.9c1.9-2.6,8.2-11.8,9.8-25.2
					c0.9-7.4,0.1-12.6-2.4-15.4c-1.6-1.8-4-2.6-7.2-2.6c-0.4,0-0.9,0-1.3,0c-8.6,0.5-12.6,8.6-13.5,12.9c-0.9,4.9-2.1,11.9-2.9,17
					c-0.2,1.6-0.3,5.6,2.5,6.5c2.7,0.9,3.9,2.6,3.6,4.6c-0.3,1.5-1.4,2.4-2.9,2.5c-2.2,0.1-4.3,0-6.4-0.1c-1.2-0.1-2.4-0.1-3.6-0.1
					c-2.2,0-4.5-0.1-6.7-0.1c-1.1,0-2,0-2.9,0c-0.3,0-0.6,0-0.9,0c-0.5,0-0.9,0-1.3,0s-0.8,0-1.3,0c-0.2,0-0.6,0-1,0
					c-1,0-2.4,0.1-3.7,0c-1.5,0-2.2-0.2-2.6-0.6c-0.8-0.6-0.8-1.7-0.8-2.1c0-1.1,0.4-2.1,1.1-2.8c0.8-0.8,1.7-1.1,2.6-1.3
					c1.7-0.4,3.4-0.9,4.5-5.3c0.7-3.9,1.5-9.4,2.4-14.8c0.8-5.1,1.6-10,2-12.7c0-0.1,0-0.3,0-0.4c0-0.2,0.1-0.5,0-0.5
					c-0.1-0.1-0.4-0.2-1-0.1c-0.4,0-5.3,0.3-6.3-2.5c-1.2-3.4,1.2-4.2,2.3-4.7l0.3-0.1c1.2-0.5,13.7-4,16.2-4.2
					c0.3,0,0.6-0.1,0.9-0.1c0.5-0.1,1-0.1,1.4-0.1c0.7,0,1.3,0.2,1.7,0.5c1.9,1.5,1.8,3.9,1.7,5.7c3.2-3,8.4-6.4,15.6-6.9l0,0
					c0.5-0.1,1.5-0.2,3.5-0.2c0.2,0,0.4,0,0.5,0c2.4,0.1,4.7,0.4,5.3,0.5c7.2,1,12.3,3.7,16.6,8.9
					C347.9,107.1,350.9,112.3,350.8,120.1L350.8,120.1z M247,109.4c0,1-1.1,11-1.9,15.2c-0.4,2.1-1.6,7.4-4.3,10.2
					c-3.5,3.6-6,4.9-10.4,5.5c-0.5,0.1-1,0.1-1.7,0.1c-2.2,0-4.2-0.8-6.3-2.4c-2.6-2.1-5.3-6.7-5-13.6c0.1-1.4,0.3-2.7,0.6-4v-0.2
					c0.4-1.5,1.1-3,2-4.4c5.8-9.9,16.7-10.5,16.9-10.5c0.9-0.1,1.8-0.2,2.7-0.2C246.8,105.2,247,109.2,247,109.4L247,109.4z
					 M268.8,135.3c-0.4-0.1-0.7-0.1-1.1-0.1c-1.2,0-2,0.5-2.8,1c-0.7,0.4-1.3,0.8-2,0.8h-0.1c-0.2,0-0.3-0.1-0.4-0.2
					c-0.9-1.1-0.2-5.3,0-6.9l0.1-0.4c0.6-4.1,1.3-8.8,1.9-12.9l0,0l0.3-2.2c0.3-2.4,1-6.9,1-8c0.1-3.5-0.8-4.2-1.7-5.1l-0.3-0.2
					c-1.5-1.4-3.5-3.2-7.1-5.3c-0.9-0.5-2.3-1.3-3.5-1.2c-1,0.1-2,1.1-2.5,2c-0.2,0.3-0.5,1.1-0.9,2l-0.1,0.2
					c-0.1,0.1-0.2,0.2-0.3,0.2c-0.2,0.2-0.7-0.1-1.2-0.4c-0.2-0.1-0.4-0.2-0.6-0.3c-4.9-2.2-11.4-2.6-11.6-2.6c0,0-0.9-0.1-2.4-0.1
					c-1.2,0-2.5,0-3.7,0.1c-6.3,0.4-10.6,1.9-11.8,2.3c-1.3,0.5-3,1.1-4.3,1.8c-7.3,3.5-12.5,8.9-15.7,16.1
					c-0.7,1.7-6.1,17.3,6.1,27.4c0.2,0.2,0.4,0.4,0.7,0.5l0.3,0.2c0.4,0.3,0.7,0.5,1.1,0.8l0.4,0.2c0.2,0.1,0.3,0.2,0.5,0.3
					c1.5,0.9,3,1.7,4.6,2.3l0.9,0.3v-0.1c2,0.8,3.6,1.1,4.5,1.4l0.3,0.1c1.7,0.5,5.2,0.6,6.4,0.6c0.1,0,0.2,0,0.3,0
					c7.9-0.3,13.1-2.2,16.2-3.9l0,0l0.8-0.5c1.9-1.2,3-2.3,3.7-3.1l0.1,0.2v-0.1c0.1,0.3,0.2,0.4,0.3,0.6l0,0
					c1.1,1.9,4.8,5.4,11.2,5.4l0,0c0.8,0,1.6-0.1,2.4-0.2c3.5-0.5,9.8-2.2,11.7-8.5c0.3-0.8,0.6-2.4-0.1-3.6
					C270,135.9,269.5,135.5,268.8,135.3L268.8,135.3z"/>
			</g>
			<path id="Fill-4" d="M108.5,51.4c-1.5,2.2-4,4.5-5.7,6c-0.1-4.7-0.9-8.2-2.1-10.8C105.2,48.2,108.5,51.4,108.5,51.4 M101,96.7
				c0.2-4.6,0.8-15.3,1.3-23.8c1,1.3,2.5,2.5,4.6,2c1.1-0.2,3.5-0.9,3.7-4.4c0.1-2-1.4-4.6-5.5-9c-0.2-0.3-0.6-0.5-1-0.8
				c2.4-2.2,6.1-5.9,7.9-9.2l0.5-0.8l-0.7-0.6c-3.8-3.2-9.1-6.2-11.5-7.5c-1.2-0.7-2.2-1.2-3-1.6c0.2-0.1,0.3-0.2,0.5-0.4
				c2.3-2.3,11.7-13,5.8-27.4C97.7-1,82.9-1,75,0.9c-2.9,0.8-5.5,2.2-6.8,2.9c-5.1,3.4-9.1,8.5-10.3,14.7
				c-1.3,6.7,0.7,14.1,5.7,18.7c1,0.9,1.4,1.2,1.6,1.1c-0.1,0.1,0.2-1.2,2.4-3.2c0.7-0.6,4.5-3.9,9.7-2.1c3,1,4.3,2.5,5.3,4.7
				c0.5,1,0.7,2.3,0.7,3.5c-0.1,0-0.2,0.1-0.3,0.1c-3.9,2.4-8.1,7.9-7.1,20.9c1.1,15.1,2.3,27.5,2.9,34.5c-2.3,0.1-4.5,0.3-6.5,0.6
				c3.2-13.7,2.5-29.5-12.6-38.9c-14.4-9-34.6-6.1-47.3,4.7C-0.4,73.9-3.3,92.6,3.6,107.5c0.6,1.3,1.3,2.6,2,3.9
				c2.2,3.7,5,7.1,8.5,9.7c3.5,2.7,7.6,4.5,11.7,5.8c2.6,0.8,5.3,1.4,7.9,2c0.3,0.1,0.6-0.3,0.4-0.6c-0.2-0.3-0.3-0.6-0.4-0.7
				c-0.8-1.3-1.3-2.8-1.6-4.4c-1-5.5,0.8-11.8,5.3-15.3c4.3-3.2,10.4-3.3,14.7,0c0.7,0.6,1.4,1.2,2,1.9c-2.6,5.5-2.5,11.5-1.7,15.4
				c0.5,2.7,1,3.6,1.4,4.7c2.3,7.2,8.6,14.7,10.8,17.5c3.3,4.2,12.7,14,16.2,17.6v14.6c-1.2,0.7-9.3,5.8-12.8,13.3
				c-0.4,0.8,0.3,1.6,1.2,1.5c6.1-0.9,13.8-1.4,21.2-1.5c7.4,0,14.4,0.5,20.5,1.5c0.9,0.1,1.6-0.7,1.2-1.5
				c-3.5-7.5-11.6-12.6-12.8-13.3v-14.5c3.2-3.5,12-13.4,15.1-17.6c2.1-2.9,10.5-13.7,12.1-22.2C128.2,116.4,126.7,97.7,101,96.7"/>
			<path id="Fill-6" class="st0" d="M87.1,38.9v0.2c0,0.2,0,0.4,0,0.5v0.1l0,0c2.2-0.4,4.4-0.4,6.2-0.1l0,0
				c3.8-3.1,6.6-7.8,7.6-13.3c1.1-6.1-0.3-11.9-3.8-15.9c-3.8-4.2-8.7-6.3-14.6-6.3c-0.3,0-0.6,0-0.8,0C76,4.2,72.5,5.5,68.2,9
				c-1.7,1.4-5.6,5.2-6.1,11.2c-0.3,3.3,0.1,5.7,0.5,7.2c0.1,0.3,0.1,0.5,0.2,0.7c0.3,1.3,0.6,2.2,1.9,4.2c0,0,0,0,0.1-0.1
				c1.7-1.6,3.6-2.7,5.7-3.3c1.5-0.4,3.1-0.6,4.8-0.6c0.7,0,4.9,0.6,7.8,2.9C86.9,34.3,87,37.3,87.1,38.9 M99.6,112.9
				c-6.8-0.6-9.6,5.4-9.7,5.6c-0.1-0.2-2.9-6.3-9.7-5.6c-6.9,0.6-11.6,9.1-2.2,22.2c9.1,12.7,11.7,13.3,11.9,13.3l0,0l0,0l0,0
				c0.2,0,2.8-0.6,11.9-13.3C111.2,121.9,106.5,113.5,99.6,112.9 M61.9,65.4c-4.3-4-10-6.5-15.6-7.5C31,55.3,14.3,62,7.4,76.2
				c-5.8,12.1-3.3,28.7,6.1,38.3c4.3,4.4,8.8,6.9,14.4,8.1c0.1,0-0.8-3.8,0.2-7.8c1.1-4.6,3.3-10.1,9.8-12.6
				c9.9-3.9,15.6,0.9,19,3.3c2.2-2.4,3.7-3.4,6-4.6c1.8-0.9,2.9-1.3,4.6-1.7c2-4.4,2.8-12.8,2-17.4C68.4,75.9,67.6,70.7,61.9,65.4
				 M107.3,69.1c0.5,0.9,0.2,2-0.7,2.4c-0.7,0.4-1.7,0.1-2.2-0.6l0,0c0,0,0,0-0.1-0.1c0-0.1-0.1-0.1-0.1-0.2s-0.1-0.1-0.1-0.2
				c-0.2-0.3-0.4-0.9-0.6-1.7c-0.3-1.1-0.8-3.4-1-4.6c-0.1-0.4-0.1-0.5-0.1-0.6c0.1,0,0.1,0.1,0.4,0.4c0.9,0.9,2.6,2.7,3.2,3.4
				c0.5,0.7,0.8,1.1,1,1.4C107.2,68.9,107.3,69,107.3,69.1"/>
			<path id="Fill-8" class="st1" d="M100.6,46.5c1.2,2.6,2.1,6.1,2.1,10.8c1.7-1.5,4.2-3.8,5.7-6C108.5,51.4,105.2,48.2,100.6,46.5
				 M92.9,51.9c0-1.4-1.2-2.6-2.6-2.6s-2.6,1.2-2.6,2.6s1.2,2.6,2.6,2.6C91.7,54.6,92.9,53.4,92.9,51.9 M96.1,51.9
				c0,3.2-2.6,5.8-5.8,5.8c-3.2,0-5.8-2.6-5.8-5.8c0-3.2,2.6-5.8,5.8-5.8C93.5,46.1,96.1,48.7,96.1,51.9 M88.9,64.3
				c0.5-1.1,1.8-1.6,2.8-1.1c0.9,0.4,1.3,1.5,1,2.5l0,0c0,0,0,0-0.1,0.1c0,0.1-0.1,0.2-0.1,0.2c0,0.1-0.1,0.2-0.1,0.2
				c-0.2,0.4-0.6,1-1.1,1.7c-0.8,1.1-2.7,3.1-3.6,4.2c-0.3,0.4-0.4,0.5-0.5,0.4c-0.1,0,0-0.1,0-0.6c0.2-1.4,0.6-4.3,0.9-5.5
				c0.2-1,0.5-1.6,0.6-2C88.8,64.5,88.8,64.4,88.9,64.3"/>
			<path id="Fill-10" class="st1" d="M50.1,64.2c-1.6,0-2.9,1.3-2.9,2.9s1.3,2.9,2.9,2.9s2.9-1.3,2.9-2.9
				C53,65.5,51.7,64.2,50.1,64.2"/>
			<path id="Fill-12" class="st1" d="M58.2,77.2c1.6,0,2.9-1.3,2.9-2.9s-1.3-2.9-2.9-2.9s-2.9,1.3-2.9,2.9S56.6,77.2,58.2,77.2"/>
			<path id="Fill-14" class="st1" d="M61.1,81.6c-1.6,0-2.9,1.3-2.9,2.9s1.3,2.9,2.9,2.9s2.9-1.3,2.9-2.9
				C63.9,82.9,62.6,81.6,61.1,81.6"/>
			<path id="Fill-16" class="st1" d="M20.1,108.2c-1.6,0-2.9,1.3-2.9,2.9s1.3,2.9,2.9,2.9c1.6,0,2.9-1.3,2.9-2.9
				S21.7,108.2,20.1,108.2"/>
			<path id="Fill-18" class="st1" d="M14,99.8c-1.6,0-2.9,1.3-2.9,2.9s1.3,2.9,2.9,2.9s2.9-1.3,2.9-2.9
				C16.8,101.1,15.5,99.8,14,99.8"/>
			<path id="Fill-20" class="st1" d="M14.4,92.6c0-1.6-1.3-2.9-2.9-2.9c-1.6,0-2.9,1.3-2.9,2.9s1.3,2.9,2.9,2.9
				C13.1,95.4,14.4,94.1,14.4,92.6"/>
			<path id="Fill-22" class="st1" d="M12.9,85c1.6,0,2.9-1.3,2.9-2.9s-1.3-2.9-2.9-2.9c-1.6,0-2.9,1.3-2.9,2.9S11.3,85,12.9,85"/>
			<path id="Fill-24" class="st1" d="M18.5,75.9c1.6,0,2.9-1.3,2.9-2.9s-1.3-2.9-2.9-2.9c-1.6,0-2.9,1.3-2.9,2.9
				C15.6,74.6,16.9,75.9,18.5,75.9"/>
			<path id="Fill-26" class="st1" d="M27.9,64.1c-1.6,0-2.9,1.3-2.9,2.9s1.3,2.9,2.9,2.9c1.6,0,2.9-1.3,2.9-2.9
				C30.7,65.4,29.4,64.1,27.9,64.1"/>
			<path id="Fill-28" class="st1" d="M39.1,61.9c-1.6,0-2.9,1.3-2.9,2.9s1.3,2.9,2.9,2.9c1.6,0,2.9-1.3,2.9-2.9
				C41.9,63.2,40.6,61.9,39.1,61.9"/>
			<path id="Fill-30" class="st1" d="M59,91.8c-1.6,0-2.9,1.3-2.9,2.9s1.3,2.9,2.9,2.9s2.9-1.3,2.9-2.9S60.6,91.8,59,91.8"/>
		</g>
	</g>
</g>
</svg>
