<?xml version="1.0" encoding="utf-8"?>
<svg version="1.1" id="Layer_1" xmlns="http://www.w3.org/2000/svg" xmlns:xlink="http://www.w3.org/1999/xlink" x="0px" y="0px"
	width="100px" height="100px" viewBox="0 0 66.7 66.7" style="enable-background:new 0 0 66.7 66.7;" xml:space="preserve">
<g>
	<circle style="fill:#E8E8E8;" cx="33.3" cy="33.3" r="33.3"/>
	<circle style="fill:#FFFFFF;" cx="33.3" cy="33.3" r="32.7"/>
	<path d="M10.6,27.9v-6.8h2.1c0.7,0,1.3,0.1,1.7,0.5c0.4,0.3,0.6,0.7,0.6,1.3c0,0.3-0.1,0.7-0.3,0.9c-0.2,0.3-0.5,0.4-0.8,0.5
		c0.4,0.1,0.7,0.3,0.9,0.6c0.2,0.3,0.3,0.7,0.3,1.1c0,0.7-0.2,1.1-0.7,1.5c-0.4,0.3-1.1,0.5-1.9,0.5L10.6,27.9
		C10.6,27.9,10.6,27.9,10.6,27.9z M11.8,23.9h0.7c0.4,0,0.7-0.1,0.9-0.3c0.2-0.2,0.3-0.4,0.3-0.7c0-0.3-0.1-0.5-0.3-0.7
		C13.3,22,12.9,22,12.4,22h-0.7L11.8,23.9C11.7,23.9,11.8,23.9,11.8,23.9z M11.8,27h0.9c0.4,0,0.7-0.1,0.9-0.3
		c0.2-0.2,0.3-0.5,0.3-0.8s-0.1-0.5-0.3-0.7c-0.2-0.2-0.5-0.3-0.9-0.3h-0.9C11.8,24.9,11.8,27,11.8,27z M17.5,27.9v-6.8h3.9v1.1
		h-2.7v1.6h2.4v1.1h-2.4v1.9h2.8v1.1L17.5,27.9L17.5,27.9z M23.9,27.9v-7H24l4.3,4.5v-4.3h1.2v7h-0.1L25,23.6v4.3L23.9,27.9
		C23.9,27.9,23.9,27.9,23.9,27.9z M34.9,22.2v5.7h-1.2v-5.7h-2.3v-1.1h5.9v1.1H34.9L34.9,22.2z M38.7,27.9h-1.3l3.3-7h0.1l3.2,7
		h-1.3l-0.5-1.2h-3.1L38.7,27.9L38.7,27.9L38.7,27.9z M39.7,25.8h2.2l-1.1-2.5C40.7,23.3,39.7,25.8,39.7,25.8z M45.9,27.9v-6.8h1.2
		v5.7H50v1.1H45.9L45.9,27.9z M52,27.9v-6.8h1.2v5.7h2.9v1.1H52z M18.5,37.1c-0.3,0.2-0.6,0.4-1,0.5c-0.3,0.1-0.7,0.2-1.1,0.2
		c-0.4,0-0.7-0.1-1.1-0.2c-0.3-0.1-0.7-0.3-1-0.5c-0.4-0.3-0.7-0.7-1-1.3c-0.2-0.5-0.3-1.1-0.3-1.6c0-1.1,0.3-1.9,1-2.6
		c0.7-0.7,1.5-1.1,2.5-1.1c0.3,0,0.7,0.1,1.1,0.1c0.3,0.1,0.7,0.3,0.9,0.5l-0.1,1.3c-0.3-0.3-0.5-0.5-0.9-0.7
		c-0.3-0.1-0.6-0.2-0.9-0.2c-0.7,0-1.2,0.3-1.7,0.7c-0.4,0.5-0.7,1.1-0.7,1.8c0,0.7,0.2,1.3,0.6,1.8s0.9,0.7,1.6,0.7
		c0.4,0,0.7-0.1,1.1-0.3c0.3-0.1,0.7-0.4,1-0.7L18.5,37.1L18.5,37.1L18.5,37.1L18.5,37.1z M20.7,37.5v-6.8h4v1.1h-2.8v1.6h2.5v1.1
		h-2.5v1.9h2.9v1.1L20.7,37.5z M27.2,37.5v-7h0.1l4.4,4.5v-4.3h1.2v7h-0.2l-4.3-4.5v4.3C28.4,37.5,27.2,37.5,27.2,37.5z M38.3,31.8
		v5.7h-1.2v-5.7h-2.3v-1.1h5.7v1.1C40.5,31.8,38.3,31.8,38.3,31.8z M42.5,37.5v-6.8h1.6c0.5,0,1,0.1,1.3,0.1s0.6,0.2,0.8,0.4
		c0.3,0.2,0.5,0.4,0.6,0.7c0.1,0.3,0.2,0.5,0.2,0.8c0,0.4-0.1,0.8-0.4,1.1c-0.3,0.3-0.6,0.5-1.1,0.7l2.2,3h-1.4l-2.1-2.8h-0.6v2.8
		L42.5,37.5L42.5,37.5z M43.7,33.9h0.5c0.5,0,0.9-0.1,1.2-0.3c0.3-0.2,0.4-0.5,0.4-0.8s-0.1-0.7-0.4-0.8c-0.3-0.2-0.7-0.3-1.3-0.3
		h-0.5C43.7,31.7,43.7,33.9,43.7,33.9z M49.6,37.5v-6.8h4v1.1h-2.8v1.6h2.4v1.1h-2.4v1.9h2.9v1.1L49.6,37.5L49.6,37.5z M19.1,45.6
		v-3.3h0.5v1.4l1.4-1.4h0.7l-1.5,1.5l1.7,1.7h-0.7L19.7,44v1.5L19.1,45.6L19.1,45.6z M23,45.6v-3.3h0.5v3.3H23z M25.1,45.6v-3.3h0.1
		l2.1,2.1v-2.1h0.5v3.3h-0.1l-2.1-2.2v2.1L25.1,45.6L25.1,45.6z M31.9,43.2c-0.1-0.1-0.3-0.2-0.5-0.3c-0.1-0.1-0.3-0.1-0.5-0.1
		c-0.3,0-0.6,0.1-0.8,0.3c-0.2,0.2-0.3,0.5-0.3,0.9c0,0.3,0.1,0.7,0.3,0.9c0.2,0.2,0.5,0.3,0.9,0.3h0.3c0.1,0,0.3-0.1,0.3-0.1v-0.7
		h-0.7v-0.4h1.3v1.5c-0.2,0.1-0.4,0.2-0.6,0.3c-0.2,0.1-0.4,0.1-0.6,0.1c-0.5,0-0.9-0.1-1.3-0.5c-0.3-0.3-0.5-0.7-0.5-1.3
		c0-0.5,0.1-0.9,0.5-1.3c0.3-0.3,0.7-0.5,1.3-0.5c0.2,0,0.3,0,0.5,0.1l0.5,0.2L31.9,43.2L31.9,43.2z M33.4,44.9
		c0.2,0.1,0.3,0.2,0.5,0.3s0.3,0.1,0.4,0.1c0.2,0,0.3-0.1,0.4-0.1c0.1-0.1,0.1-0.2,0.1-0.3s0-0.2-0.1-0.3s-0.2-0.2-0.4-0.3L34,44
		c-0.3-0.1-0.4-0.3-0.5-0.4c-0.1-0.1-0.1-0.3-0.1-0.5c0-0.3,0.1-0.5,0.3-0.6s0.4-0.3,0.7-0.3c0.1,0,0.3,0,0.4,0.1
		c0.1,0,0.3,0.1,0.4,0.1V43c-0.1-0.1-0.3-0.1-0.4-0.2c-0.1-0.1-0.3-0.1-0.3-0.1c-0.1,0-0.3,0-0.3,0.1s-0.1,0.1-0.1,0.3
		c0,0.1,0,0.2,0.1,0.3s0.2,0.1,0.3,0.3l0.3,0.1c0.3,0.1,0.5,0.3,0.6,0.5c0.1,0.1,0.2,0.3,0.2,0.5c0,0.3-0.1,0.5-0.3,0.7
		c-0.2,0.2-0.5,0.3-0.8,0.3c-0.1,0-0.3,0-0.5-0.1c-0.1,0-0.3-0.1-0.4-0.1L33.4,44.9L33.4,44.9z M38.2,42.9v2.8h-0.5v-2.8h-1.2v-0.4
		h2.8v0.4H38.2C38.2,42.9,38.2,42.9,38.2,42.9z M40.3,44c0-0.2,0-0.4,0.1-0.6c0.1-0.2,0.1-0.3,0.3-0.5c0.1-0.2,0.3-0.4,0.6-0.5
		c0.2-0.1,0.5-0.2,0.7-0.2c0.2,0,0.4,0.1,0.6,0.1c0.2,0.1,0.4,0.2,0.5,0.4c0.1,0.1,0.3,0.3,0.3,0.5c0.1,0.2,0.1,0.4,0.1,0.7
		c0,0.3-0.1,0.5-0.1,0.7s-0.2,0.4-0.3,0.5c-0.1,0.1-0.3,0.3-0.5,0.4c-0.2,0.1-0.4,0.1-0.6,0.1s-0.4-0.1-0.6-0.1
		c-0.2-0.1-0.4-0.2-0.5-0.4c-0.1-0.1-0.3-0.3-0.3-0.5C40.3,44.5,40.3,44.2,40.3,44z M40.9,44c0,0.3,0.1,0.6,0.3,0.9
		c0.2,0.2,0.5,0.3,0.7,0.3s0.5-0.1,0.7-0.3c0.2-0.2,0.3-0.5,0.3-0.9c0-0.3-0.1-0.6-0.3-0.9c-0.2-0.3-0.5-0.3-0.7-0.3
		s-0.5,0.1-0.7,0.3C40.9,43.4,40.9,43.7,40.9,44z M44.9,45.6v-3.3h0.1l2.1,2.1v-2.1h0.5v3.3l0,0l-2.1-2.2v2.1L44.9,45.6
		C44.9,45.5,44.9,45.6,44.9,45.6z"/>
</g>
</svg>
