<?xml version="1.0" encoding="utf-8"?>
<svg version="1.1" id="Layer_1" xmlns="http://www.w3.org/2000/svg" xmlns:xlink="http://www.w3.org/1999/xlink" x="0px" y="0px"
	 viewBox="0 0 1920 808.5" style="enable-background:new 0 0 1920 808.5;" xml:space="preserve">
<g>
	<g>
		<path style="fill:#757474;" d="M0,505.3h1920v303.2H0V505.3z"/>
	</g>
	<g>
		<path style="fill:#E5504E;" d="M0,0h1920v464.9H0V0z"/>
	</g>
	<g style="enable-background:new    ;">
		<path style="fill:#FFFFFF;" d="M408.8,389.9h-82.4c-18.2-28.6-34.7-53.3-49.4-74.1c-14.7-20.8-30.7-42.3-47.9-64.4h-31.3v97
			c0,5,0.8,9.4,2.4,13.3c1.6,3.8,5,6.7,10.1,8.7c2.6,1,7.1,1.9,13.6,2.8c6.5,0.9,11.9,1.4,16.4,1.5v15.3H110.9v-15.3
			c3.4-0.3,8.4-0.8,15-1.5c6.5-0.7,11.1-1.6,13.7-2.8c4.3-1.9,7.4-4.6,9.4-8.2c1.9-3.6,2.9-8.2,2.9-13.8V127.2c0-5-0.7-9.5-2.2-13.4
			c-1.4-3.9-4.8-6.8-10.1-8.8c-3.6-1.3-8.3-2.5-14-3.6c-5.7-1.1-10.6-1.8-14.7-2V84.1h141.2c12.9,0,25.1,1.3,36.4,4
			c11.3,2.7,21.6,6.9,30.8,12.8c8.9,5.7,16,13.3,21.3,22.5c5.3,9.3,8,20.4,8,33.5c0,11.8-1.8,22.2-5.4,31.3
			c-3.6,9.1-8.9,16.9-15.9,23.5c-6.5,6.2-14.2,11.5-23.3,16.1c-9.1,4.5-19,8.4-30,11.5c15.1,20,27.6,36.8,37.6,50.4
			c10,13.7,22.2,30.2,36.7,49.8c6.3,8.6,12,15,17.1,19.1c5.1,4.1,10.2,7.4,15.2,10c3.7,1.9,8.4,3.3,14,4.3c5.6,1,10.3,1.6,14,1.7
			V389.9z M295.4,162c0-18.5-5.3-33.2-15.9-44c-10.6-10.8-25.6-16.2-45-16.2h-36.6v131H226c19.8,0,36.4-6.3,49.6-19
			C288.8,201.1,295.4,183.8,295.4,162z"/>
		<path style="fill:#FFFFFF;" d="M667.6,120.3c13.5,14.1,24.1,31.1,31.7,51c7.6,19.9,11.4,41.9,11.4,66.1c0,24.3-3.9,46.3-11.6,66.2
			c-7.8,19.8-18.5,36.7-32.3,50.6c-13.4,13.8-28.9,24.4-46.6,31.9c-17.7,7.5-36.5,11.2-56.5,11.2c-21.3,0-40.9-4-58.9-12
			c-18-8-33.5-19.1-46.4-33.3c-12.9-13.9-23.1-30.9-30.5-50.8c-7.4-19.9-11.1-41.2-11.1-63.9c0-24.9,3.9-47,11.6-66.5
			c7.8-19.5,18.5-36.3,32.1-50.5c13.5-14.1,29.2-24.9,47.1-32.3c17.9-7.5,36.6-11.2,56.1-11.2c20.3,0,39.4,3.8,57.3,11.4
			C639,95.8,654.5,106.5,667.6,120.3z M635.5,337.1c8-13.1,13.9-27.9,17.6-44.4c3.7-16.5,5.5-35,5.5-55.4c0-21-2-40.2-6.1-57.8
			c-4.1-17.5-10.1-32.5-18-44.8c-7.9-12.2-17.8-21.7-29.7-28.6c-11.9-6.8-25.6-10.2-41-10.2c-17.2,0-31.9,4-44,11.9
			c-12.1,7.9-21.9,18.5-29.5,31.7c-7.2,12.6-12.5,27.4-16.1,44.4c-3.5,17-5.3,34.8-5.3,53.5c0,20.7,1.9,39.4,5.6,56
			c3.7,16.7,9.6,31.5,17.7,44.4c7.8,12.6,17.5,22.5,29.3,29.6c11.8,7.1,25.9,10.7,42.2,10.7c15.4,0,29.2-3.6,41.6-10.8
			C617.7,360.1,627.7,350.1,635.5,337.1z"/>
	</g>
	<g style="enable-background:new    ;">
		<path style="fill:#FFFFFF;" d="M979.6,389.9h-85.8c-16.5-25.6-34.9-51-55.1-76.2c-20.2-25.2-41.3-49.7-63.5-73.4h-5.6v106.5
			c0,4.7,0.9,9,2.7,12.7c1.8,3.7,5.1,6.8,9.8,9.1c2.3,1,6.6,2.2,12.8,3.7c6.3,1.4,11.5,2.2,15.6,2.4v15.3H683.7v-15.3
			c3.3-0.3,8.1-0.7,14.4-1.3c6.3-0.6,10.8-1.4,13.4-2.6c4.3-1.9,7.4-4.6,9.4-8.3s2.9-8.1,2.9-13.3V128.5c0-4.9-0.8-9.1-2.5-12.7
			c-1.7-3.6-4.9-6.5-9.8-8.8c-3.9-1.9-8.5-3.5-13.8-5c-5.3-1.4-10-2.3-14-2.6V84.1h126.9v15.3c-4,0.1-9.1,0.8-15.1,1.9
			c-6,1.2-10.5,2.2-13.4,3.2c-4.9,1.7-8.2,4.6-9.9,8.6c-1.7,4-2.6,8.4-2.6,13.1v105.6h4.3c12.9-10.9,25.6-22.3,38.1-34.2
			c12.5-11.9,23.9-23.7,34.1-35.5c11.3-13.1,19.6-23.5,24.9-31.4c5.2-7.8,7.9-14.8,7.9-20.8c0-2.2-1.3-3.9-4-5.3
			c-2.7-1.4-5.7-2.5-9.2-3.3c-4-0.9-7.6-1.4-10.8-1.6c-3.2-0.2-5.7-0.4-7.8-0.5V84.1H962v15.3c-0.4,0-1.4,0.1-2.8,0.2
			c-1.4,0.1-3.1,0.3-5,0.4c-2,0.1-4,0.4-6,0.9c-2,0.4-4.6,0.9-7.8,1.5c-5,1.2-10.2,3-15.6,5.5c-5.4,2.5-9.8,5.6-13.2,9.4
			c-14.8,16.8-30.2,34.2-46.3,52.2c-16.1,18-32,34.4-47.8,49.2c21.9,24.7,40,46,54.3,63.8c14.3,17.8,29.5,36.8,45.6,57.1
			c6.1,7.8,12.3,14,18.5,18.6c6.1,4.7,11.4,8.2,15.9,10.5c3.7,1.9,8.4,3.3,13.9,4.3c5.6,1,10.2,1.6,13.9,1.7V389.9z"/>
	</g>
	<g style="enable-background:new    ;">
		<path style="fill:#FFFFFF;" d="M1262.8,299.8l-5.8,90.1h-253.9v-15.3c4.3-0.3,10.1-0.9,17.2-1.8c7.2-0.9,11.9-1.9,14-2.9
			c4.6-2.2,7.8-5,9.6-8.4c1.8-3.4,2.7-7.8,2.7-13.1V128.5c0-4.7-0.8-8.9-2.4-12.6c-1.6-3.7-4.9-6.6-9.9-8.9c-3.9-1.9-9.1-3.5-15.6-5
			c-6.5-1.4-11.7-2.3-15.6-2.6V84.1h236.7v73.7h-16.2c-2.9-10.9-9.1-22.5-18.6-34.8c-9.6-12.3-18.6-19-27.3-20.2
			c-4.5-0.6-9.8-1-16-1.3c-6.2-0.3-13.2-0.4-21.1-0.4h-48.1v121.6h34.5c11.1,0,19.1-1,24.2-3.1c5.1-2.1,9.6-5.6,13.5-10.5
			c3.2-4.2,5.9-9.7,8.1-16.7c2.2-7,3.7-13.5,4.4-19.7h16.2v119.8h-16.2c-0.6-6.9-2.1-14.2-4.6-21.9c-2.5-7.7-5.1-13.3-7.9-16.7
			c-4.5-5.6-9.5-9.3-15.2-11c-5.7-1.7-13.2-2.6-22.5-2.6h-34.5V332c0,9.2,0.6,16.4,1.9,21.7c1.3,5.3,3.8,9.3,7.5,12
			c3.7,2.7,8.8,4.5,15.3,5.3c6.5,0.8,15.7,1.2,27.6,1.2c4.7,0,11,0,18.8,0c7.8,0,14.3-0.3,19.6-0.9c5.5-0.6,11.1-1.6,16.9-3.1
			s9.9-3.6,12.4-6.1c6.6-6.9,13.5-17.4,20.8-31.4c7.3-14,11.9-24.3,13.9-30.9H1262.8z"/>
	</g>
	<g style="enable-background:new    ;">
		<path style="fill:#FFFFFF;" d="M1581.8,389.9h-82.4c-18.2-28.6-34.7-53.3-49.4-74.1c-14.7-20.8-30.7-42.3-47.9-64.4h-31.3v97
			c0,5,0.8,9.4,2.4,13.3c1.6,3.8,5,6.7,10.1,8.7c2.6,1,7.1,1.9,13.6,2.8c6.5,0.9,11.9,1.4,16.4,1.5v15.3h-129.3v-15.3
			c3.4-0.3,8.4-0.8,15-1.5c6.5-0.7,11.1-1.6,13.7-2.8c4.3-1.9,7.4-4.6,9.4-8.2c1.9-3.6,2.9-8.2,2.9-13.8V127.2c0-5-0.7-9.5-2.2-13.4
			c-1.4-3.9-4.8-6.8-10.1-8.8c-3.6-1.3-8.3-2.5-14-3.6c-5.7-1.1-10.6-1.8-14.7-2V84.1h141.2c12.9,0,25.1,1.3,36.4,4
			c11.3,2.7,21.6,6.9,30.8,12.8c8.9,5.7,16,13.3,21.3,22.5c5.3,9.3,8,20.4,8,33.5c0,11.8-1.8,22.2-5.4,31.3
			c-3.6,9.1-8.9,16.9-15.9,23.5c-6.5,6.2-14.2,11.5-23.3,16.1c-9.1,4.5-19,8.4-30,11.5c15.1,20,27.6,36.8,37.6,50.4
			c10,13.7,22.2,30.2,36.7,49.8c6.3,8.6,12,15,17.1,19.1c5.1,4.1,10.2,7.4,15.2,10c3.7,1.9,8.4,3.3,14,4.3c5.6,1,10.3,1.6,14,1.7
			V389.9z M1468.4,162c0-18.5-5.3-33.2-15.9-44c-10.6-10.8-25.6-16.2-45-16.2h-36.6v131h28.2c19.8,0,36.4-6.3,49.6-19
			C1461.8,201.1,1468.4,183.8,1468.4,162z"/>
	</g>
	<g style="enable-background:new    ;">
		<path style="fill:#FFFFFF;" d="M1794.1,249.6c6.5,7.2,11.2,15.1,14.3,23.6c3.1,8.6,4.6,18.5,4.6,29.9c0,27-10,49.3-30,66.8
			c-20,17.5-44.8,26.3-74.4,26.3c-13.7,0-27.3-2.1-41-6.4c-13.7-4.2-25.4-9.4-35.3-15.4l-9.3,15.7H1606l-3-104.7h17.5
			c3.6,12.9,7.8,24.6,12.6,35c4.8,10.4,11.2,20.2,19.1,29.2c7.5,8.5,16.2,15.2,26.2,20.3c10,5,21.6,7.5,34.8,7.5
			c9.9,0,18.6-1.3,26-3.9c7.4-2.6,13.4-6.3,18-11c4.6-4.7,8-10.3,10.2-16.7c2.2-6.4,3.3-13.8,3.3-22.1c0-12.2-3.4-23.6-10.3-34.2
			c-6.9-10.6-17.2-18.6-30.8-24.1c-9.3-3.7-20-7.8-32.1-12.3c-12.1-4.5-22.5-8.8-31.3-12.8c-17.2-7.8-30.6-17.9-40.2-30.5
			c-9.6-12.6-14.3-29-14.3-49.2c0-11.6,2.4-22.5,7.1-32.5c4.7-10.1,11.5-19,20.3-26.9c8.3-7.5,18.2-13.3,29.5-17.6
			c11.3-4.2,23.2-6.4,35.6-6.4c14.1,0,26.7,2.2,37.8,6.5c11.1,4.3,21.3,9.3,30.5,15.1l8.8-14.7h17.2l1.7,101.5h-17.5
			c-3.2-11.6-6.7-22.8-10.7-33.4c-4-10.6-9.1-20.3-15.4-28.9c-6.2-8.3-13.7-15-22.6-19.9c-8.9-5-19.8-7.4-32.8-7.4
			c-13.7,0-25.3,4.4-34.9,13.1c-9.6,8.8-14.4,19.5-14.4,32.1c0,13.2,3.1,24.2,9.3,32.9c6.2,8.7,15.2,15.8,26.9,21.4
			c10.5,5,20.8,9.4,30.9,13s19.9,7.6,29.4,11.7c8.6,3.7,16.9,8,24.9,12.7S1788.2,243.3,1794.1,249.6z"/>
	</g>
	<g style="enable-background:new    ;">
		<path style="fill:#FFFFFF;" d="M585.9,618.7c3.5,3.6,6.2,8,8.2,13.2c2,5.1,3,10.8,3,17.1c0,6.3-1,12-3,17.1
			c-2,5.1-4.8,9.5-8.4,13.1c-3.5,3.6-7.5,6.3-12,8.2c-4.6,1.9-9.4,2.9-14.6,2.9c-5.5,0-10.6-1-15.2-3.1c-4.7-2.1-8.7-4.9-12-8.6
			c-3.3-3.6-6-8-7.9-13.1c-1.9-5.1-2.9-10.6-2.9-16.5c0-6.4,1-12.2,3-17.2c2-5,4.8-9.4,8.3-13.1c3.5-3.6,7.5-6.4,12.2-8.4
			s9.5-2.9,14.5-2.9c5.2,0,10.2,1,14.8,3C578.5,612.4,582.5,615.1,585.9,618.7z M577.6,674.7c2.1-3.4,3.6-7.2,4.5-11.5
			c0.9-4.3,1.4-9,1.4-14.3c0-5.4-0.5-10.4-1.6-14.9c-1.1-4.5-2.6-8.4-4.7-11.6c-2-3.2-4.6-5.6-7.7-7.4c-3.1-1.8-6.6-2.6-10.6-2.6
			c-4.5,0-8.2,1-11.4,3.1c-3.1,2-5.7,4.8-7.6,8.2c-1.9,3.3-3.2,7.1-4.1,11.5c-0.9,4.4-1.4,9-1.4,13.8c0,5.3,0.5,10.2,1.4,14.5
			c1,4.3,2.5,8.1,4.6,11.5c2,3.3,4.5,5.8,7.6,7.7c3,1.8,6.7,2.8,10.9,2.8c4,0,7.6-0.9,10.8-2.8C572.9,680.7,575.5,678.1,577.6,674.7
			z"/>
		<path style="fill:#FFFFFF;" d="M688,613.3c-1,0-2.6,0.3-4.8,0.9c-2.2,0.6-3.7,1.1-4.6,1.7c-1.3,0.9-2.2,2.7-2.7,5.3
			c-0.5,2.6-0.7,6-0.7,10v57.9h-4.8l-47.9-64.7v40.8c0,4.6,0.3,8.1,0.9,10.5c0.6,2.5,1.5,4.2,2.6,5.2c0.9,0.8,2.6,1.6,5.3,2.3
			c2.7,0.7,4.4,1.1,5.3,1.1v4h-32.4v-4c1-0.1,2.7-0.4,5.1-1.1c2.4-0.6,3.9-1.2,4.5-1.8c1.3-1,2.2-2.6,2.7-4.8
			c0.5-2.1,0.7-5.8,0.7-10.9v-38.9c0-1.7-0.3-3.4-0.9-5.1c-0.6-1.7-1.4-3-2.4-4c-1.3-1.2-3.1-2.3-5.4-3.1c-2.3-0.9-4.1-1.3-5.5-1.4
			v-4h22.6l44.4,60.3V632c0-4.6-0.3-8.1-0.9-10.6c-0.6-2.5-1.4-4.1-2.6-4.9c-1-0.7-2.7-1.4-5.1-2.1c-2.4-0.7-4.1-1-5.4-1.1v-4H688
			V613.3z"/>
		<path style="fill:#FFFFFF;" d="M757.9,664.9l-1.7,23.5h-61.8v-4c0.9-0.1,2.2-0.2,3.9-0.4c1.7-0.2,2.9-0.4,3.5-0.7
			c1.1-0.5,1.9-1.2,2.4-2.1c0.5-0.9,0.8-2.1,0.8-3.6V621c0-1.3-0.2-2.4-0.6-3.3c-0.4-1-1.3-1.7-2.5-2.3c-0.9-0.4-2.1-0.9-3.6-1.3
			c-1.5-0.4-2.8-0.7-3.8-0.8v-4h33.4v4c-1,0-2.4,0.2-4,0.6c-1.7,0.3-2.9,0.6-3.6,0.9c-1.3,0.4-2.1,1.2-2.6,2.3
			c-0.5,1.1-0.7,2.2-0.7,3.5v53.1c0,2.5,0.1,4.4,0.4,5.7c0.2,1.4,0.8,2.4,1.7,3.1c0.9,0.7,2.1,1.1,3.8,1.3c1.7,0.2,4.1,0.3,7.1,0.3
			c1.4,0,2.8,0,4.3-0.1c1.5-0.1,2.9-0.2,4.2-0.4c1.3-0.2,2.5-0.5,3.6-0.9c1.1-0.4,1.9-0.9,2.4-1.5c1.5-1.7,3.3-4.3,5.3-7.8
			c2-3.5,3.4-6.3,4.2-8.4H757.9z"/>
		<path style="fill:#FFFFFF;" d="M797.8,688.4h-35.6v-4c1-0.1,2.5-0.2,4.3-0.3c1.9-0.1,3.2-0.4,4-0.7c1.2-0.5,2.1-1.1,2.7-2
			c0.6-0.8,0.8-2,0.8-3.5v-57.3c0-1.3-0.2-2.4-0.6-3.3c-0.4-0.9-1.4-1.6-2.9-2.2c-1.1-0.4-2.5-0.9-4.2-1.3c-1.7-0.4-3.1-0.6-4.1-0.7
			v-4h35.6v4c-1.2,0-2.5,0.2-4.1,0.4c-1.6,0.2-3,0.5-4.2,0.9c-1.4,0.4-2.4,1.2-2.8,2.2c-0.5,1-0.7,2.1-0.7,3.3v57.2
			c0,1.2,0.3,2.3,0.8,3.3c0.5,0.9,1.5,1.7,2.8,2.3c0.8,0.3,2.1,0.6,3.8,1c1.8,0.4,3.3,0.5,4.5,0.6V688.4z"/>
		<path style="fill:#FFFFFF;" d="M888.8,613.3c-1,0-2.6,0.3-4.8,0.9c-2.2,0.6-3.7,1.1-4.6,1.7c-1.3,0.9-2.2,2.7-2.7,5.3
			c-0.5,2.6-0.7,6-0.7,10v57.9h-4.8l-47.9-64.7v40.8c0,4.6,0.3,8.1,0.9,10.5c0.6,2.5,1.5,4.2,2.6,5.2c0.9,0.8,2.6,1.6,5.3,2.3
			c2.7,0.7,4.4,1.1,5.3,1.1v4h-32.4v-4c1-0.1,2.7-0.4,5.1-1.1c2.4-0.6,3.9-1.2,4.5-1.8c1.3-1,2.2-2.6,2.7-4.8
			c0.5-2.1,0.7-5.8,0.7-10.9v-38.9c0-1.7-0.3-3.4-0.9-5.1c-0.6-1.7-1.4-3-2.4-4c-1.3-1.2-3.1-2.3-5.4-3.1c-2.3-0.9-4.1-1.3-5.5-1.4
			v-4h22.6l44.4,60.3V632c0-4.6-0.3-8.1-0.9-10.6c-0.6-2.5-1.4-4.1-2.6-4.9c-1-0.7-2.7-1.4-5.1-2.1c-2.4-0.7-4.1-1-5.4-1.1v-4h32.1
			V613.3z"/>
		<path style="fill:#FFFFFF;" d="M961.7,665.1l-1.5,23.3h-65.6v-4c1.1-0.1,2.6-0.2,4.5-0.5c1.9-0.2,3.1-0.5,3.6-0.8
			c1.2-0.6,2-1.3,2.5-2.2c0.5-0.9,0.7-2,0.7-3.4v-56.8c0-1.2-0.2-2.3-0.6-3.3c-0.4-0.9-1.3-1.7-2.6-2.3c-1-0.5-2.3-0.9-4-1.3
			c-1.7-0.4-3-0.6-4-0.7v-4h61.2v19h-4.2c-0.7-2.8-2.3-5.8-4.8-9c-2.5-3.2-4.8-4.9-7-5.2c-1.2-0.1-2.5-0.3-4.1-0.3
			c-1.6-0.1-3.4-0.1-5.5-0.1h-12.4v31.4h8.9c2.9,0,4.9-0.3,6.3-0.8c1.3-0.5,2.5-1.4,3.5-2.7c0.8-1.1,1.5-2.5,2.1-4.3
			c0.6-1.8,1-3.5,1.1-5.1h4.2v31h-4.2c-0.1-1.8-0.5-3.7-1.2-5.7c-0.7-2-1.3-3.4-2-4.3c-1.2-1.4-2.5-2.4-3.9-2.8
			c-1.5-0.4-3.4-0.7-5.8-0.7h-8.9v23.7c0,2.4,0.2,4.2,0.5,5.6c0.3,1.4,1,2.4,1.9,3.1c1,0.7,2.3,1.2,4,1.4s4,0.3,7.1,0.3
			c1.2,0,2.8,0,4.8,0c2,0,3.7-0.1,5.1-0.2c1.4-0.1,2.9-0.4,4.4-0.8c1.5-0.4,2.6-0.9,3.2-1.6c1.7-1.8,3.5-4.5,5.4-8.1
			c1.9-3.6,3.1-6.3,3.6-8H961.7z"/>
		<path style="fill:#FFFFFF;" d="M1046.5,652.1c1.7,1.9,2.9,3.9,3.7,6.1c0.8,2.2,1.2,4.8,1.2,7.7c0,7-2.6,12.7-7.7,17.3
			c-5.2,4.5-11.6,6.8-19.2,6.8c-3.5,0-7.1-0.5-10.6-1.6c-3.5-1.1-6.6-2.4-9.1-4l-2.4,4.1h-4.5l-0.8-27.1h4.5c0.9,3.3,2,6.4,3.3,9.1
			c1.2,2.7,2.9,5.2,4.9,7.5c1.9,2.2,4.2,3.9,6.8,5.2c2.6,1.3,5.6,2,9,2c2.6,0,4.8-0.3,6.7-1c1.9-0.7,3.5-1.6,4.7-2.8
			c1.2-1.2,2.1-2.7,2.6-4.3c0.6-1.7,0.9-3.6,0.9-5.7c0-3.2-0.9-6.1-2.7-8.8c-1.8-2.7-4.4-4.8-8-6.2c-2.4-1-5.2-2-8.3-3.2
			s-5.8-2.3-8.1-3.3c-4.5-2-7.9-4.6-10.4-7.9s-3.7-7.5-3.7-12.7c0-3,0.6-5.8,1.8-8.4c1.2-2.6,3-4.9,5.2-7c2.2-1.9,4.7-3.4,7.6-4.5
			s6-1.6,9.2-1.6c3.6,0,6.9,0.6,9.8,1.7s5.5,2.4,7.9,3.9l2.3-3.8h4.5l0.4,26.2h-4.5c-0.8-3-1.7-5.9-2.8-8.6c-1-2.7-2.3-5.2-4-7.5
			c-1.6-2.2-3.5-3.9-5.8-5.2s-5.1-1.9-8.5-1.9c-3.5,0-6.5,1.1-9,3.4c-2.5,2.3-3.7,5-3.7,8.3c0,3.4,0.8,6.2,2.4,8.5s3.9,4.1,7,5.5
			c2.7,1.3,5.4,2.4,8,3.4c2.6,0.9,5.2,2,7.6,3c2.2,1,4.4,2.1,6.4,3.3C1043.1,649.1,1044.9,650.5,1046.5,652.1z"/>
		<path style="fill:#FFFFFF;" d="M1125.5,630.8h-3.8c-0.3-1.3-0.9-2.9-1.8-4.8c-0.9-1.8-1.9-3.6-2.9-5.2c-1.1-1.7-2.3-3.2-3.7-4.5
			s-2.6-2-3.8-2.2c-1.2-0.1-2.6-0.3-4.4-0.3c-1.7-0.1-3.4-0.1-4.9-0.1h-3.2v63.2c0,1.2,0.3,2.3,0.8,3.4c0.5,1,1.4,1.8,2.7,2.4
			c0.7,0.3,2.1,0.6,4.2,1.1c2.1,0.4,3.8,0.7,5,0.7v4h-37.3v-4c1-0.1,2.6-0.2,4.8-0.4s3.6-0.5,4.4-0.8c1.2-0.5,2.1-1.2,2.7-2.1
			c0.6-0.9,0.9-2.1,0.9-3.6v-63.7h-3.2c-1.2,0-2.6,0-4.3,0.1s-3.3,0.2-4.9,0.4c-1.2,0.1-2.5,0.9-3.8,2.2c-1.3,1.3-2.5,2.8-3.6,4.5
			c-1.1,1.7-2.1,3.4-3,5.3c-0.9,1.9-1.4,3.4-1.8,4.7h-3.9v-21.4h68.9V630.8z"/>
		<path style="fill:#FFFFFF;" d="M1195.7,618.7c3.5,3.6,6.2,8,8.2,13.2c2,5.1,3,10.8,3,17.1c0,6.3-1,12-3,17.1
			c-2,5.1-4.8,9.5-8.4,13.1c-3.5,3.6-7.5,6.3-12,8.2c-4.6,1.9-9.4,2.9-14.6,2.9c-5.5,0-10.6-1-15.2-3.1c-4.7-2.1-8.7-4.9-12-8.6
			c-3.3-3.6-6-8-7.9-13.1c-1.9-5.1-2.9-10.6-2.9-16.5c0-6.4,1-12.2,3-17.2c2-5,4.8-9.4,8.3-13.1c3.5-3.6,7.5-6.4,12.2-8.4
			s9.5-2.9,14.5-2.9c5.2,0,10.2,1,14.8,3C1188.3,612.4,1192.3,615.1,1195.7,618.7z M1187.4,674.7c2.1-3.4,3.6-7.2,4.5-11.5
			c0.9-4.3,1.4-9,1.4-14.3c0-5.4-0.5-10.4-1.6-14.9c-1.1-4.5-2.6-8.4-4.7-11.6c-2-3.2-4.6-5.6-7.7-7.4c-3.1-1.8-6.6-2.6-10.6-2.6
			c-4.5,0-8.2,1-11.4,3.1c-3.1,2-5.7,4.8-7.6,8.2c-1.9,3.3-3.2,7.1-4.1,11.5c-0.9,4.4-1.4,9-1.4,13.8c0,5.3,0.5,10.2,1.4,14.5
			c1,4.3,2.5,8.1,4.6,11.5c2,3.3,4.5,5.8,7.6,7.7c3,1.8,6.7,2.8,10.9,2.8c4,0,7.6-0.9,10.8-2.8
			C1182.8,680.7,1185.4,678.1,1187.4,674.7z"/>
		<path style="fill:#FFFFFF;" d="M1293.7,688.4h-21.3c-4.7-7.4-9-13.8-12.8-19.2c-3.8-5.4-7.9-10.9-12.4-16.7h-8.1v25.1
			c0,1.3,0.2,2.4,0.6,3.4c0.4,1,1.3,1.7,2.6,2.3c0.7,0.3,1.8,0.5,3.5,0.7s3.1,0.4,4.2,0.4v4h-33.4v-4c0.9-0.1,2.2-0.2,3.9-0.4
			c1.7-0.2,2.9-0.4,3.5-0.7c1.1-0.5,1.9-1.2,2.4-2.1c0.5-0.9,0.8-2.1,0.8-3.6v-57.1c0-1.3-0.2-2.5-0.6-3.5c-0.4-1-1.2-1.8-2.6-2.3
			c-0.9-0.3-2.1-0.6-3.6-0.9c-1.5-0.3-2.7-0.5-3.8-0.5v-4h36.5c3.3,0,6.5,0.3,9.4,1c2.9,0.7,5.6,1.8,8,3.3c2.3,1.5,4.1,3.4,5.5,5.8
			c1.4,2.4,2.1,5.3,2.1,8.7c0,3-0.5,5.7-1.4,8.1c-0.9,2.3-2.3,4.4-4.1,6.1c-1.7,1.6-3.7,3-6,4.1c-2.3,1.2-4.9,2.2-7.7,3
			c3.9,5.2,7.1,9.5,9.7,13c2.6,3.5,5.7,7.8,9.5,12.9c1.6,2.2,3.1,3.9,4.4,4.9s2.6,1.9,3.9,2.6c1,0.5,2.2,0.9,3.6,1.1
			s2.7,0.4,3.6,0.4V688.4z M1264.4,629.5c0-4.8-1.4-8.6-4.1-11.4c-2.7-2.8-6.6-4.2-11.6-4.2h-9.5v33.9h7.3c5.1,0,9.4-1.6,12.8-4.9
			C1262.7,639.6,1264.4,635.1,1264.4,629.5z"/>
		<path style="fill:#FFFFFF;" d="M1363.2,665.1l-1.5,23.3h-65.6v-4c1.1-0.1,2.6-0.2,4.5-0.5c1.9-0.2,3.1-0.5,3.6-0.8
			c1.2-0.6,2-1.3,2.5-2.2c0.5-0.9,0.7-2,0.7-3.4v-56.8c0-1.2-0.2-2.3-0.6-3.3c-0.4-0.9-1.3-1.7-2.6-2.3c-1-0.5-2.3-0.9-4-1.3
			c-1.7-0.4-3-0.6-4-0.7v-4h61.2v19h-4.2c-0.7-2.8-2.3-5.8-4.8-9c-2.5-3.2-4.8-4.9-7-5.2c-1.2-0.1-2.5-0.3-4.1-0.3
			c-1.6-0.1-3.4-0.1-5.5-0.1h-12.4v31.4h8.9c2.9,0,4.9-0.3,6.3-0.8c1.3-0.5,2.5-1.4,3.5-2.7c0.8-1.1,1.5-2.5,2.1-4.3
			c0.6-1.8,1-3.5,1.1-5.1h4.2v31h-4.2c-0.1-1.8-0.5-3.7-1.2-5.7c-0.6-2-1.3-3.4-2-4.3c-1.2-1.4-2.5-2.4-3.9-2.8
			c-1.5-0.4-3.4-0.7-5.8-0.7h-8.9v23.7c0,2.4,0.2,4.2,0.5,5.6c0.3,1.4,1,2.4,1.9,3.1c1,0.7,2.3,1.2,4,1.4s4,0.3,7.1,0.3
			c1.2,0,2.8,0,4.8,0c2,0,3.7-0.1,5.1-0.2c1.4-0.1,2.9-0.4,4.4-0.8c1.5-0.4,2.6-0.9,3.2-1.6c1.7-1.8,3.5-4.5,5.4-8.1
			c1.9-3.6,3.1-6.3,3.6-8H1363.2z"/>
	</g>
</g>
</svg>
