<?xml version="1.0" encoding="utf-8"?>
<svg version="1.1" id="Layer_1" xmlns="http://www.w3.org/2000/svg" xmlns:xlink="http://www.w3.org/1999/xlink" x="0px" y="0px"
	width="100px" height="100px" viewBox="0 0 66.7 66.7" style="enable-background:new 0 0 66.7 66.7;" xml:space="preserve">
<g>
	<circle style="fill:#E8E8E8;" cx="33.3" cy="33.3" r="33.3"/>
	<circle style="fill:#FFFFFF;" cx="33.3" cy="33.3" r="32.7"/>
	<path style="fill:#284C86;" d="M15.9,32.5c0.8-0.9,0.9-1.9,0.9-3.1c0.1-1.1-1.3-2.9-2.3-3.1c-1.5-0.3-3-0.4-4.4,0.3
		c-0.5,0.2-0.7,0.5-0.7,1l0.1,7.5l0.1,3.9c0.1,0.9,0.4,1.1,1.3,0.9c0.6-0.1,0.9-0.5,0.9-1.3l-0.1-1.9v-2.7h0.4
		C13.5,34,14.9,33.6,15.9,32.5z M14.3,31.1c-0.6,0.7-1.4,1-2.3,0.9c-0.1,0-0.3-0.2-0.3-0.3l-0.1-2.8c0-0.8,0-0.8,0.8-0.8
		c0.2,0,0.5,0.1,0.7,0.1c0.7,0,1.3,0.3,1.5,1C14.9,29.8,14.8,30.5,14.3,31.1C14.3,31.1,14.3,31.1,14.3,31.1z M39.5,33.9l-1.3,0.7
		c-0.1-0.3-0.2-0.5-0.4-0.8c-0.3-0.5-0.8-0.7-1.2-0.5c-0.4,0.1-0.7,0.7-0.7,1.2c0,0.2,0.1,0.3,0.1,0.5c0.2,1,0.3,2,0,2.9
		c-0.1,0.3-0.3,0.7-0.3,1c-0.1,0.6,0.2,1.1,0.9,1.2c0.7,0.1,1.2-0.2,1.3-0.8c0.1-0.4,0.2-0.8,0.3-1.2c0.1-0.9,0.7-1.5,1.4-1.9
		c0.5-0.3,1-0.5,1.4-0.2c0.5,0.3,0.3,0.9,0.3,1.4l-0.4,1.9c-0.1,0.6,0.2,1,0.8,1c0.6,0,1-0.3,1.1-0.8c0.2-0.8,0.3-1.7,0.5-2.5
		c0.1-0.5,0.1-1,0-1.5C42.9,33.7,41.1,33,39.5,33.9z M19.9,35.2c-0.1-0.4-0.5-0.8-0.9-1.1c-0.2-0.1-0.6-0.1-0.8-0.1
		c-0.2,0.1-0.3,0.5-0.4,0.8l-0.3,2.7c0,0.3-0.2,0.5-0.4,0.7c-0.3,0.4-0.7,0.3-0.9-0.1c-0.2-0.5-0.3-1.1-0.5-1.6c-0.1-0.5,0-1,0-1.5
		c0-0.5-0.4-0.9-0.9-0.9c-0.4-0.1-0.9,0.3-1,0.7c-0.2,1.5-0.3,3,0.5,4.5c0.8,1.5,2.6,1.7,3.7,0.4l0.6-0.7c0.2,0.3,0.3,0.5,0.5,0.7
		c0.5,0.7,1.2,0.7,1.7,0.1c0.3-0.4,0.3-0.9,0.1-1.3C20.8,37.5,20.4,36.3,19.9,35.2z M57.1,32.5c-0.3-0.7-1.9-1.2-2.5-0.9
		c-0.6,0.3-1.1,0.5-1.7,0.9c-0.7,0.5-1.1,1.2-1,2.1s0.5,1.8,1.6,2.1c0.3,0.1,0.5,0.2,0.7,0.3c0.3,0.2,0.3,0.5,0,0.6
		c-0.3,0.2-0.7,0.4-1.1,0.5c-0.6,0.1-1.2-0.1-1.7-0.5c-0.3-0.2-0.7-0.3-1,0c-0.1,0.3-0.2,0.6-0.1,0.9c0.1,0.6,0.5,1.1,1.2,1.2
		c0.5,0.1,0.9,0.2,1.4,0.3c0.8,0,1.5-0.2,2.1-0.6c0.7-0.5,1.5-1.1,1.5-2.1c0.1-1.1-0.7-2.1-1.9-2.5c-0.5-0.2-0.7-0.6-0.3-1
		c0.4-0.4,0.8-0.4,1.5-0.1c0.4,0.2,0.8,0.1,1.1-0.2C57.1,33.3,57.3,32.9,57.1,32.5C57.1,32.5,57.1,32.5,57.1,32.5z M44.2,38.9
		c0.1,0.5,0.5,0.9,1.1,1.1c0.9,0.3,1.9,0,2.7-0.4c1.5-0.7,2.1-2.7,1.9-4.2c-0.1-0.8-0.4-1.5-1.2-1.9c-0.4-0.2-0.9-0.3-1.3-0.5
		c-1.7-0.5-3.7,1.1-3.6,2.6v0.5c0,0.5,0,0.9,0.1,1.3C43.8,37.4,44.2,38.9,44.2,38.9z M47,37.9c-0.9,0.3-1.2,0.2-1.3-0.7
		c0-0.4,0-0.8,0.1-1.1c0.1-0.8,1.2-1.3,2-1c0.5,0.3,0.5,0.8,0.5,1.3C48.2,37.1,47.7,37.6,47,37.9z M24.1,34.1
		c0.2-0.1,0.5-0.2,0.7-0.3h1.1c0.4,0,0.7-0.3,0.7-0.6c0-0.3-0.3-0.5-0.5-0.7c-0.2-0.1-0.5-0.1-0.8-0.2c-1.3-0.3-2.5,0.1-3.2,1.3
		c-0.5,0.8-0.9,1.7-0.7,2.6v1.1c0.3,2.7,2.5,3.3,4.5,2.5c0.5-0.2,0.9-1.1,0.7-1.6c-0.2-0.5-1-0.5-1.6-0.2c-0.5,0.3-0.9,0.2-1.1-0.3
		C23.1,36.9,23.3,34.8,24.1,34.1z M32.3,33.5c-0.3-0.1-0.5-0.3-0.8-0.5c-1-0.5-2.4-0.5-3.4,0.5c-1.1,1.1-1.3,2.5-1.2,3.9
		c0,0.8,0.3,1.6,1.1,2c0.5,0.2,0.9,0.3,1.4,0.5s0.9,0.1,1.4,0.1c0.2-0.1,0.4-0.1,0.6-0.1c0.5-0.1,0.7-0.6,0.7-1.1
		c-0.1-0.5-0.5-0.9-1-0.9c-0.4,0-0.9,0.1-1.3,0.1c-0.7,0-1.1-0.5-1.1-1.1c0-0.7,0.2-1.3,0.6-1.8c0.5-0.6,1.1-0.8,1.9-0.5
		c0.1,0.1,0.3,0.1,0.4,0.1c0.4,0.1,0.7,0,0.9-0.4C32.7,34,32.6,33.7,32.3,33.5z M32.7,38.9c0,0.7,0.3,0.9,0.8,1
		c0.7,0.1,1-0.1,1.1-0.8l0.3-3.3c0.1-0.5,0.1-1.1,0.1-1.7c0-0.4-0.6-0.8-1.1-0.7c-0.5,0-0.8,0.3-0.9,0.9l-0.3,4.3 M50.5,34.4
		c1.2-0.2,1.9-1.5,1.5-2.7c-0.3-0.8-1.3-1.3-2.1-1c-0.4,0.2-0.6,0.5-0.6,0.9c0.1,0.5,0.3,0.8,0.7,0.9c0.3,0.1,0.5,0,0.9-0.1
		c-0.1,0.3-0.2,0.5-0.3,0.7c-0.1,0.2-0.4,0.4-0.5,0.6c-0.1,0.1-0.2,0.4-0.1,0.5C50.1,34.4,50.4,34.5,50.5,34.4
		C50.5,34.4,50.5,34.4,50.5,34.4z M34.1,30.6c-0.5,0-1,0.5-1,1.1c0,0.7,0.4,1.1,1.1,1.1c0.6,0,1-0.5,1-1.2
		C35.2,30.9,34.8,30.6,34.1,30.6z"/>
</g>
</svg>
