<?xml version="1.0" encoding="utf-8"?>
<svg version="1.1" id="Layer_1" xmlns="http://www.w3.org/2000/svg" xmlns:xlink="http://www.w3.org/1999/xlink" x="0px" y="0px"
	width="100px" height="100px" viewBox="0 0 66.7 66.7" style="enable-background:new 0 0 66.7 66.7;" xml:space="preserve">
<g>
	<circle style="fill:#E8E8E8;" cx="33.3" cy="33.3" r="33.3"/>
	<circle style="fill:#FFFFFF;" cx="33.3" cy="33.3" r="32.7"/>
	<path style="fill:#010101;" d="M11.6,27.3H8.7v12.2h1.1v-5.5h1.6c0.1,0,3.2-0.1,3.2-3.4C14.6,27.3,11.7,27.3,11.6,27.3z M11.6,32.8
		H9.8v-4.5h1.8c0.1,0.1,1.9,0.1,1.9,2.2C13.5,32.7,11.7,32.8,11.6,32.8L11.6,32.8C11.6,32.8,11.6,32.8,11.6,32.8z M18.7,27.3h-2.9
		v12.1h1.1v-5.5h3.4v5.5h1.2v-6.7h-0.6c0.3-0.5,0.7-1.1,0.7-2.3C21.5,27.3,18.7,27.3,18.7,27.3z M20.4,30.5c0,2.2-1.6,2.3-1.7,2.3
		h-1.9v-4.5h1.9C18.8,28.5,20.4,28.5,20.4,30.5L20.4,30.5L20.4,30.5C20.4,30.5,20.4,30.5,20.4,30.5z M29,38.3h-4.4v-4.8h4.3v-1.1
		h-4.3v-3.9h4.3v-1.2h-5.5v12.2h5.5L29,38.3L29,38.3z M38.7,28.4h5.9l-6.8,11.1h7.9v-1.2h-5.9l6.9-11h-8V28.4z M30.1,28.4H36
		l-6.8,11.1h7.9v-1.2h-5.9l6.8-11h-8L30.1,28.4L30.1,28.4z M51.9,27.3c-3.3,0-6.1,2.7-6.1,6.1c0,3.3,2.7,6.1,6.1,6.1
		s6.1-2.7,6.1-6.1C58,30,55.3,27.3,51.9,27.3z M51.9,38.3c-2.7,0-4.9-2.2-4.9-4.9s2.2-4.9,4.9-4.9s4.9,2.2,4.9,4.9
		S54.7,38.3,51.9,38.3z"/>
</g>
</svg>
