<?xml version="1.0" encoding="utf-8"?>
<svg version="1.1" id="Layer_1" xmlns="http://www.w3.org/2000/svg" xmlns:xlink="http://www.w3.org/1999/xlink" x="0px" y="0px"
	 viewBox="0 0 646.01 300.01" style="enable-background:new 0 0 646.01 300.01;" xml:space="preserve">
<g>
	<path d="M512.64,246.88h-0.44c-0.84,0-1.56,0.57-1.76,1.37l-0.64,2.53c-1.55,6.33-3.68,10.48-6.52,12.69
		c-2.85,2.2-8.6,3.27-17.58,3.27h-24.84c-8.74,0-14.13-1.43-16.5-4.36c-2.34-2.9-3.47-9.43-3.47-19.97v-64.16
		c0-10.53,1.14-17.06,3.47-19.96c2.18-2.7,6.9-4.11,14.43-4.33c0.99-0.04,1.76-0.83,1.76-1.82v-0.11c0-1-0.81-1.82-1.82-1.82H407.1
		c-1,0-1.81,0.82-1.81,1.82v0.11c0,0.98,0.77,1.78,1.76,1.82c7.53,0.22,12.25,1.64,14.42,4.32c2.35,2.92,3.49,9.45,3.49,19.97v67.26
		c0,10.37-1.21,17.12-3.6,20.07c-2.21,2.75-6.89,4.2-14.32,4.43c-0.98,0.04-1.75,0.84-1.75,1.82v0.12c0,1,0.81,1.82,1.81,1.82
		h104.12c0.95,0,1.75-0.75,1.81-1.71l1.39-23.15c0.01-0.07,0.01-0.15,0.01-0.23C514.45,247.69,513.64,246.88,512.64,246.88
		L512.64,246.88z M392.89,150.21h-51.62c-1,0-1.82,0.81-1.82,1.82v0.11c0,0.99,0.78,1.79,1.77,1.82c7.53,0.22,12.25,1.64,14.41,4.33
		c2.35,2.92,3.49,9.45,3.49,19.96v67.26c0,10.38-1.21,17.13-3.59,20.07c-2.22,2.75-6.9,4.2-14.31,4.44
		c-0.98,0.03-1.77,0.84-1.77,1.81v0.12c0,1,0.82,1.82,1.82,1.82h51.62c1,0,1.82-0.82,1.82-1.82v-0.12c0-0.99-0.77-1.79-1.76-1.81
		c-7.53-0.22-12.25-1.64-14.41-4.34c-2.35-2.9-3.49-9.49-3.49-20.17v-67.26c0-10.53,1.14-17.06,3.49-19.97
		c2.16-2.69,6.87-4.1,14.41-4.33c0.99-0.03,1.76-0.83,1.76-1.82v-0.11C394.71,151.02,393.89,150.21,392.89,150.21L392.89,150.21z
		 M628.71,167.51c-11.48-11.48-28.81-17.29-51.53-17.29h-53.97c-1,0-1.81,0.81-1.81,1.82v0.12c0,0.99,0.77,1.79,1.76,1.81
		c7.53,0.22,12.25,1.64,14.42,4.33c2.35,2.93,3.49,9.46,3.49,19.97v67.26c0,10.52-1.17,17.09-3.59,20.07
		c-2.22,2.75-6.9,4.2-14.31,4.44c-0.99,0.03-1.76,0.83-1.76,1.82v0.12c0,1,0.81,1.82,1.81,1.82h53.97c22.85,0,40.22-5.79,51.63-17.2
		c11.41-11.4,17.19-26.4,17.19-44.59C645.99,193.95,640.18,178.98,628.71,167.51L628.71,167.51z M560.38,262.49
		c-3.21-3.62-3.38-9.4-3.38-20.07v-85.18h20.39c18.24,0,31.18,5.41,38.45,16.08c7.24,10.63,10.92,23.64,10.92,38.68
		c0,14.9-3.67,27.88-10.92,38.58c-7.27,10.73-20.21,16.18-38.45,16.18h-0.82C567.97,266.75,563.14,265.61,560.38,262.49z
		 M329.55,150.22l-51.62,0.07c-0.47,0.01-0.94,0.18-1.28,0.52c-0.35,0.34-0.54,0.8-0.55,1.29v0.1c-0.02,0.98,0.76,1.8,1.74,1.84
		c1,0.04,2.16,0.05,3.27,0.06c0.4,0,0.8,0.01,1.2,0.01v0.02c7.41,0.08,11.72,1.55,13.18,4.48c1.09,2.19,1.94,5.24,0.07,11.32
		l-21.7,68.48l-27.99-88.16h-3.17l-27.99,88.36l-21.89-68.66c-1.71-5.65-1.76-8.98-0.15-11.14c1.31-1.77,5.87-3.71,10.54-4.52
		c1.03-0.11,2.14-0.22,3.32-0.24c0.99-0.03,1.77-0.82,1.77-1.81v-0.1c0.01-0.49-0.18-0.95-0.52-1.3c-0.34-0.35-0.8-0.54-1.29-0.54
		l-51.62,0.06c-1,0-1.82,0.81-1.82,1.81v0.11c-0.01,0.99,0.76,1.8,1.75,1.83c1.21,0.05,2.74,0.14,4.44,0.29
		c8.74,1.48,12.94,6,16.64,17.89l32.64,102.55h2.97l28.19-88.55l27.99,88.55h2.97l32.64-102.56c3.94-12.6,6.38-18.17,22.72-18.29
		v-0.01h0.89c1,0,1.95-0.01,2.7-0.02c1-0.02,1.78-0.81,1.78-1.77l0.01-0.15c0-0.48-0.18-0.94-0.52-1.29
		C330.49,150.41,330.03,150.22,329.55,150.22L329.55,150.22z M231.23,111.44c13.41,12.72,29.7,19.17,48.44,19.17
		c18.86,0,35.23-6.45,48.63-19.17c13.39-12.71,20.19-28.23,20.19-46.14c0-17.9-6.79-33.42-20.19-46.13
		C314.9,6.45,298.54,0.01,279.67,0.01c-18.74,0-35.04,6.45-48.44,19.16c-13.39,12.7-20.19,28.23-20.19,46.13
		C211.05,83.21,217.84,98.73,231.23,111.44L231.23,111.44z M316.97,105.33c-8.29,11.69-20.84,17.62-37.3,17.62
		s-28.98-5.93-37.21-17.62c-8.21-11.66-12.37-25.12-12.37-40.03c0-14.89,4.2-28.39,12.47-40.13c8.31-11.77,20.79-17.73,37.11-17.73
		c16.58,0,29.17,5.97,37.41,17.74c8.21,11.74,12.38,25.24,12.38,40.12C329.45,80.2,325.25,93.67,316.97,105.33L316.97,105.33z
		 M494.24,65.3c0-17.9-6.79-33.43-20.19-46.14C460.66,6.45,444.3,0,425.43,0c-18.75,0-35.05,6.45-48.44,19.16
		S356.8,47.39,356.8,65.29s6.79,33.43,20.19,46.14c13.41,12.72,29.71,19.17,48.44,19.17c18.85,0,35.21-6.45,48.62-19.17
		C487.44,98.73,494.24,83.21,494.24,65.3z M425.42,7.44c16.59,0,29.17,5.97,37.4,17.74c8.21,11.74,12.37,25.24,12.37,40.12
		c0,14.9-4.2,28.36-12.48,40.03c-8.3,11.69-20.84,17.62-37.29,17.62c-16.46,0-28.98-5.93-37.21-17.62
		C380,93.68,375.83,80.21,375.83,65.3c0-14.89,4.2-28.39,12.47-40.13C396.62,13.41,409.11,7.44,425.42,7.44L425.42,7.44z
		 M98.19,72.75c-4.77-5.86-11.2-10.07-19.1-12.52l-0.67-0.21l0.61-0.36c5.05-3.01,9.02-6.73,11.79-11.08
		c2.79-4.34,4.2-9.16,4.2-14.33c0-8.94-3.42-16.14-10.45-22.01c-6.96-5.79-16.78-8.72-29.19-8.72H1.83c-1,0-1.82,0.81-1.82,1.82
		v0.12c0,0.97,0.79,1.79,1.76,1.82c7.52,0.22,12.24,1.63,14.41,4.33c2.38,2.95,3.49,9.29,3.49,19.96v67.27
		c0,10.38-1.21,17.13-3.59,20.07c-2.23,2.75-6.91,4.2-14.32,4.44C0.78,123.39,0,124.18,0,125.17v0.12c0,1,0.81,1.82,1.82,1.82h59.35
		c13.93,0,24.9-3.28,32.6-9.76c7.8-6.55,11.59-14.63,11.59-24.71C105.37,85.29,102.95,78.6,98.19,72.75z M87.77,92.63
		c0,7.91-2.32,14.53-6.91,19.66c-4.58,5.15-11.28,7.77-19.89,7.77h-5.38c-8.73,0-12.93-1.18-16.49-4.35
		c-3.48-3.11-3.48-9.44-3.48-19.97V64.79h25.36c8.74,0,15.47,2.65,20,7.87C85.48,77.87,87.77,84.59,87.77,92.63z M35.61,57.75v-47.2
		h18.73c7.65,0,13.48,2.23,17.31,6.63c3.83,4.38,5.77,10.12,5.77,17.06c0,6.95-1.98,12.66-5.88,16.98c-3.9,4.33-9.69,6.52-17.2,6.52
		H35.61V57.75z"/>
	<path d="M209.75,125.38l1.4-23.17c0.01-0.07,0.02-0.14,0.02-0.21c0-1-0.81-1.82-1.82-1.82h-0.42c-0.83,0-1.56,0.57-1.76,1.38
		l-0.63,2.53c-1.56,6.34-3.7,10.49-6.53,12.69c-2.84,2.2-8.59,3.27-17.58,3.27h-24.84c-8.73,0-14.13-1.42-16.49-4.35
		c-2.38-2.95-3.48-9.29-3.48-19.97V31.57c0-10.67,1.11-17.02,3.48-19.96c2.17-2.7,6.88-4.11,14.4-4.33
		c0.98-0.03,1.77-0.84,1.77-1.82V5.34c0-1-0.82-1.82-1.82-1.82h-51.63c-1,0-1.82,0.81-1.82,1.82v0.12c0,0.97,0.79,1.79,1.76,1.82
		c7.53,0.22,12.25,1.63,14.42,4.32c2.35,2.92,3.49,9.45,3.49,19.97v67.27c0,10.38-1.21,17.13-3.59,20.07
		c-2.23,2.75-6.91,4.2-14.32,4.44c-0.98,0.04-1.76,0.83-1.76,1.81v0.12c0,1,0.81,1.82,1.82,1.82h104.12
		C208.9,127.09,209.7,126.34,209.75,125.38L209.75,125.38z M629.61,11.6c2.17-2.7,6.96-4.11,14.63-4.33
		c0.98-0.04,1.75-0.84,1.75-1.82V5.34c0-1-0.81-1.82-1.82-1.82h-29c-0.73,0-1.38,0.43-1.66,1.1l-43.44,100.31L526.5,4.63
		c-0.28-0.67-0.94-1.1-1.67-1.1H493.2c-1,0-1.82,0.81-1.82,1.82v0.12c0,0.97,0.79,1.79,1.76,1.82c7.52,0.22,12.23,1.63,14.41,4.32
		c2.34,2.92,3.48,9.45,3.48,19.97v67.27c0,10.53-1.17,17.09-3.58,20.07c-2.24,2.75-6.92,4.21-14.32,4.44
		c-0.98,0.04-1.75,0.83-1.75,1.82v0.12c0,1,0.81,1.82,1.82,1.82h42.92c1,0,1.82-0.81,1.82-1.82v-0.12c0-0.97-0.79-1.79-1.76-1.82
		c-7.66-0.22-12.45-1.64-14.62-4.34c-2.35-2.91-3.49-9.51-3.49-20.17V23.66l45.95,105.74c0,0,0,0.01,0.01,0.01h3.33l43.04-99.33
		V98.9c0,10.36-1.21,17.09-3.59,20.02c-2.23,2.74-6.91,4.19-14.32,4.43c-0.98,0.04-1.75,0.83-1.75,1.82v0.12
		c0,1,0.81,1.82,1.81,1.82h51.63c1,0,1.82-0.81,1.82-1.82v-0.12c0-0.97-0.79-1.79-1.76-1.82c-7.67-0.22-12.45-1.64-14.62-4.34
		c-2.35-2.9-3.49-9.5-3.49-20.17V31.57C626.12,21.05,627.26,14.51,629.61,11.6L629.61,11.6z M136.59,292.66
		c0.13,0,0.24-0.02,0.36-0.05c0.63-0.16,1.1-0.73,1.1-1.41c0-0.6-0.37-1.12-0.89-1.34c-0.76-0.29-1.82-0.42-2.79-0.86
		c-2.15-0.98-3.88-2.41-5.44-3.97l-22.16-24.44c-0.61-0.68-0.8-1.63-0.53-2.47c0.11-0.25,0.22-0.52,0.34-0.79v-0.01
		c0.48-1.11,2.13-4.87,3.17-5.78c1.77-1.56,3.96-2.08,6.17-2.38c0.24-0.03,0.34-0.14,0.33-0.44c-0.05-3.27-0.79-7.48-3.28-9.71
		c-2.14-1.91-6.03-2.71-7.44-2.13c-0.01,0.01-0.37,0.19-0.33,0.44c0.33,2.52,0.44,6.57,0.02,9.08c-0.34,2.07-0.87,3.98-1.93,5.74
		c-0.96,1.27-2.83,1.45-3.94,0.23l-40.24-44.66c-0.25-0.29-0.23-0.6-0.2-0.76c0.05-0.28,0.22-0.51,0.47-0.65
		c12.58-6.98,21.34-12.63,24.5-21.33c4.73-13.02-1.24-27.43-10.29-33.63c-6.07-4.15-14.96-5.58-23.19-3.73
		c-8.33,1.88-15.28,6.95-19.56,14.28c-8.24,14.13-5.46,28.59,9.32,48.33c0.17,0.22,0.23,0.49,0.17,0.76s-0.22,0.49-0.46,0.62
		c-1,0.55-2.03,1.11-3.1,1.68c-13.76,7.45-39.38,21.31-36.51,48.01c1.34,12.45,7.12,22.95,16.4,29.85
		c17.42,12.95,38.7,9.36,51.29,4.03c11.69-4.95,20.13-12.67,25.33-18.33c1.03-1.12,2.8-1.08,3.79,0.07l13.59,15.76L136.59,292.66z
		 M43.47,159.44c2.8-5.78,7.88-8.83,14.72-8.83c4.55,0,8.24,1.94,10.97,5.77c5.93,8.33,5.75,22.95,3.36,29.88
		c-2,5.79-6.06,9.74-16.69,16.25c-0.4,0.24-0.91,0.15-1.21-0.21c-0.69-0.84-1.32-1.63-1.91-2.37
		C42.17,186.61,38.38,169.96,43.47,159.44z M89.89,271.98c-5.49,6.18-13.47,13.59-23.06,17.82c-9.56,4.22-21.3,3.82-30.63-1.06
		c-6.72-3.51-15.36-10.95-18.38-26.48c-4.81-24.71,5.15-35.6,25.23-47.04c0.15-0.08,0.31-0.12,0.47-0.12c0.27,0,0.53,0.12,0.72,0.34
		c0.66,0.81,35.96,41.86,45.7,53.2C90.77,269.6,90.74,271.02,89.89,271.98z"/>
	<path d="M100.89,219.09c0.04-3.21,0.25-5.67,0.68-7.99c0.42-2.31,1.11-4.74,2.1-7.42c0.85-2.3,1.78-4.48,2.82-6.87
		c0.77-1.77,1.84-4.11,3.32-6.39c2.33-3.59,5.76-8.21,14.92-14.09c0,0,0.58-0.44,0.49-1.11c-0.68-3.77-3.67-4.99-7.29-6
		c-2.14-0.59-3.68-0.35-7.61-0.52c-3.73-0.16-5.66-3.42-7.35-3.61c-2.47-0.28-4.88,0.05-7.23,0.6c-0.02,0-0.03,0.02-0.05,0.02
		c-0.18,0.03-0.33,0.16-0.32,0.41c0.38,5.18-1.25,10.14-3.04,14.93c-1.76,4.69-3.52,9.33-4.49,14.26
		c-0.91,4.67-1.21,9.48-0.43,14.19c0.76,4.59,2.63,8.85,5.27,12.66c2.92,4.23,6.87,7.38,10.2,11.26
		C102.13,229.83,100.83,223.12,100.89,219.09z M180.31,252.89c-0.55-2.05-1.55-3.79-2.31-5.79c-0.86-2.26-1.82-5-5.03-6.75
		c-2.29-1.25-5.4-0.21-7.96,0.32c-0.02,0-0.03,0.01-0.05,0.01c-0.38,0.08-0.76,0.15-1.11,0.19c-1.82,0.28-3.8,0.36-5.95,0.26
		c-0.48-0.02-0.98-0.06-1.48-0.1c-1.75-0.15-3.47-0.39-5.12-0.62c-2.04-0.29-3.97-0.55-5.89-0.65c-0.16-0.01-0.32-0.01-0.48-0.02
		c-0.38-0.01-0.79-0.01-1.24,0c-0.58,0.11-1.19,0.26-1.8,0.43c-0.76,0.22-1.54,0.49-2.33,0.79c-2.97,1.14-5.74,2.67-8.68,4.28
		l-1.24,0.68c-1.42,0.78-2.55,1.4-4.11,2.16c-0.2,0.1-0.72,0.37-1.44,0.69c-0.44,0.22-2.77,1.35-3.66,1.47
		c-0.01,0.2,0.19,0.34,0.32,0.44c3.05,2.49,4.43,5.54,7.41,8.13c1.73,1.5,3.56,2.59,5.75,3.28c2.33,0.73,4.74,1.36,7.16,1.73
		c2.23,0.33,4.47,0.27,6.66-0.29c2.01-0.52,3.91-1.37,5.75-2.31c4.04-2.06,7.86-4.42,12.34-5.41c2.66-0.59,5.5-1.07,8.17-0.52
		c2.85,0.58,4.82,1.03,6.4,3.25c0.24,0.33,0.81,0.09,0.81-0.29C181.23,255.99,180.89,255.05,180.31,252.89z"/>
	<path d="M171.38,227.65c-0.15-3.76-0.63-7.56-2.18-11.02c-1.59-3.55-3.09-5.61-4.93-9.03c-0.92-1.7-1.77-3.44-2.55-5.21
		c-0.75-1.69-1.02-2.87-1.97-4.47c-1.61-2.73-2.97-3.53-5.81-4.72c-1.66-0.7-7.93-2.65-9.47-3.58c-1.79-1.08-4.32-4.11-5.75-5.6
		c-2.73-2.86-8.76-4.22-9.49-3.97c-0.73,0.25-2.57,1.49-2.57,1.49c-8.27,5.31-10.04,8.87-12.06,11.98c-1.25,1.93-2.2,3.99-2.88,5.57
		c-1.01,2.32-1.91,4.41-2.7,6.57c-0.87,2.37-1.48,4.49-1.84,6.47c-0.36,1.99-0.54,4.16-0.58,7.04c-0.04,3.1,0.97,8.73,1.76,12.51
		c2.45,0.37,5.02,1.24,7.27,3.04c2.89,2.3,4.74,5.69,5.56,10.1c0.96-0.35,1.77-0.74,2.15-0.94l0.09-0.05
		c1.47-0.71,2.5-1.28,3.93-2.06l1.24-0.68c2.67-1.47,5.05-3.29,7.91-4.42c6.59-2.58,13.46-1.71,20.33-1.14
		c4.19,0.35,7.81,0.01,10.18-0.96l0.25-0.08c0.82-0.24,1.77-0.53,2.74-0.86c0.31-0.34,0.59-0.72,0.79-1.15
		C171.5,230.97,171.44,229.26,171.38,227.65L171.38,227.65z"/>
</g>
</svg>
