<?xml version="1.0"?>
<svg xmlns="http://www.w3.org/2000/svg" xmlns:xlink="http://www.w3.org/1999/xlink" xmlns:svgjs="http://svgjs.com/svgjs" version="1.1" width="512" height="512" x="0" y="0" viewBox="0 0 512 512" style="enable-background:new 0 0 512 512" xml:space="preserve" class=""><g><g xmlns="http://www.w3.org/2000/svg"><circle cx="256" cy="256" fill="#f1f1f1" r="256" data-original="#45c5ff" style="" class=""/><path d="m488.353 363.565c-86.426-86.427-244.743-244.744-244.743-244.744l-64.347 60.441-73.367 226.841 101.213 101.213c15.828 3.062 32.169 4.684 48.891 4.684 102.962 0 191.712-60.793 232.353-148.435z" fill="#f1f1f1" data-original="#0ca8ed" style="" class=""/><g><path d="m224.797 224.805c-17.203-17.203-17.203-45.195 0-62.398s45.195-17.203 62.398 0 17.203 45.195 0 62.398-45.194 17.203-62.398 0z" fill="#fff0bf" data-original="#fff0bf" style=""/><path d="m196.76 196.767c-17.203-17.203-17.203-45.195 0-62.398s45.195-17.203 62.398 0 17.203 45.195 0 62.398-45.195 17.203-62.398 0z" fill="#ffe278" data-original="#ffe278" style=""/><path d="m181.212 181.219c-17.203-17.203-17.203-45.195 0-62.398s45.195-17.203 62.398 0 17.203 45.195 0 62.398c-17.203 17.204-45.195 17.204-62.398 0z" fill="#ffcc4a" data-original="#ffcc4a" style=""/><path d="m330.781 330.788c-17.203-17.203-17.203-45.195 0-62.398s45.195-17.203 62.398 0 17.203 45.195 0 62.398c-17.204 17.203-45.195 17.203-62.398 0z" fill="#ffb54c" data-original="#ffb54c" style="" class=""/><path d="m256 256-112.366 37.738-37.738 112.366h300.208z" fill="#f71e78" data-original="#f71e78" style="" class=""/><path d="m105.896 105.896v300.208l150.104-150.104z" fill="#ff4f75" data-original="#ff4f75" style="" class=""/></g></g></g></svg>
