<?xml version="1.0" encoding="utf-8"?>
<svg version="1.1" id="Layer_1" xmlns="http://www.w3.org/2000/svg" xmlns:xlink="http://www.w3.org/1999/xlink" x="0px" y="0px"
	 viewBox="0 0 650.35 339.78" style="enable-background:new 0 0 650.35 339.78;" xml:space="preserve">
<g>
	<path d="M109.01,208c-5.17,0-9.22,3.62-9.22,8.9c0,5.28,4.07,8.88,9.22,8.88c5.15,0,9.22-3.62,9.22-8.88
		C118.23,211.62,114.18,208,109.01,208z M109.01,223.23c-3.68,0-6.42-2.69-6.42-6.33c0-3.64,2.71-6.36,6.42-6.36
		c3.66,0,6.42,2.76,6.42,6.36C115.43,220.47,112.65,223.23,109.01,223.23z"/>
	<polygon points="198.73,176.88 153.85,176.88 158.95,98.86 129.8,176.88 88.12,176.88 154.25,0.54 198.6,0.54 193.48,79.63 
		223.19,0.54 264.87,0.54 	"/>
	<polygon points="204.14,176.88 270.28,0.54 311.96,0.54 245.83,176.88 	"/>
	<path d="M83.31,116.1C25.06,184.5-29.88,275.51,18.65,317.42c47.02,40.61,105.81,16.57,145.88,0.53
		c40.08-16.03,483.07-208.41,483.07-208.41c4.28-2.14,3.47-4.81-1.87-3.47c-2.16,0.54-482.27,130.65-482.27,130.65
		C102.55,253.83,33.08,216.56,83.31,116.1z"/>
	<path d="M110.58,217.52c1.29-0.06,2.31-0.73,2.31-2.52c0-2.31-1.51-2.89-4.03-2.89h-3.62v9.57h2.41v-4.07h0.41l2.2,4.07h2.78
		L110.58,217.52z M109.03,215.97h-1.38v-2.22h1.16c0.71,0,1.53,0.09,1.53,1.01C110.35,215.76,109.87,215.97,109.03,215.97z"/>
	<path d="M528.01,0c-5.17,0-9.22,3.62-9.22,8.9c0,5.28,4.07,8.88,9.22,8.88s9.22-3.62,9.22-8.88C537.23,3.62,533.18,0,528.01,0z
		 M528.01,15.23c-3.68,0-6.42-2.69-6.42-6.33c0-3.64,2.71-6.36,6.42-6.36c3.66,0,6.42,2.76,6.42,6.36
		C534.43,12.47,531.65,15.23,528.01,15.23z"/>
	<path d="M529.58,9.52c1.29-0.06,2.31-0.73,2.31-2.52c0-2.31-1.51-2.89-4.03-2.89h-3.62v9.57h2.41V9.61h0.41l2.2,4.07h2.78
		L529.58,9.52z M528.03,7.97h-1.38V5.75h1.16c0.71,0,1.53,0.09,1.53,1.01C529.35,7.76,528.87,7.97,528.03,7.97z"/>
	<path d="M500.55,29.93l11.2-29.39h-83.52h-0.38h-43.28l-43.67,52.9l20.16-52.9h-42.22l-65.6,176.34h41.68l28.01-73.74l1.92,73.74
		l127.89-0.28l12.18-33.92h-48.63l15.98-42.75h40.08l12.33-32.86h-40.08l13.74-37.14H500.55z M366.2,165.13l-2.67-91.91l63.02-69.19
		L366.2,165.13z"/>
</g>
</svg>
