<?xml version="1.0"?>
<svg xmlns="http://www.w3.org/2000/svg" xmlns:xlink="http://www.w3.org/1999/xlink" xmlns:svgjs="http://svgjs.com/svgjs" version="1.1" width="512" height="512" x="0" y="0" viewBox="0 0 512 512" style="enable-background:new 0 0 512 512" xml:space="preserve" class=""><g><g xmlns="http://www.w3.org/2000/svg"><g><g><g id="XMLID_1653_"><g id="XMLID_1744_"><g id="XMLID_1745_"><g id="XMLID_1746_"><g id="XMLID_1747_"><g id="XMLID_1748_"><g id="XMLID_1749_"><g id="XMLID_1750_"><g id="XMLID_1751_"><g id="XMLID_1752_"><g id="XMLID_1753_"><g id="XMLID_1754_"><g id="XMLID_1755_"><g id="XMLID_1756_"><g id="XMLID_1876_"><circle cx="256" cy="256" fill="#f1f1f1" r="256" data-original="#ffdd54" style="" class=""/></g></g></g></g></g></g></g></g></g></g></g></g></g></g></g></g></g><path d="m505.567 313.252-81.914-81.914s-33.472-24.041-63.233-28.336l-152.85-151.411-79.985 398.1 50.084 50.084c24.69 7.928 51.007 12.225 78.331 12.225 121.702 0 223.563-84.927 249.567-198.748z" fill="#f1f1f1" data-original="#ecbe00" style="" class=""/><g><path d="m230.957 449.691h-103.372c-18.975-45.041-53.3-134.552-16.059-185.709 14.661-20.134 24.245-40.865 29.837-60.98 2.764-9.941 12.851-19.73 13.791-29.216 1.006-10.147-7.259-19.947-8.034-29.216-.911-10.982-2.962-21.219-5.887-30.407-12.371-38.869 8.83-76.846 38.041-76.846 29.202 0 50.403 37.977 38.032 76.846-2.925 9.189-4.976 19.425-5.886 30.407-.75 8.968-11.742 19.422-10.83 29.216s13.727 18.929 16.588 29.216c5.592 20.115 15.176 40.846 29.837 60.98 37.251 51.158 2.926 140.669-16.058 185.709z" fill="#ffffff" data-original="#ffffff" style="" class=""/><path d="m230.96 449.69h-51.69v-412.37h.01c29.2 0 50.4 37.97 38.03 76.84-2.93 9.19-4.98 19.43-5.89 30.41-.75 8.97-11.74 19.42-10.83 29.22.91 9.79 13.73 18.92 16.59 29.21 5.59 20.12 15.18 40.85 29.84 60.98 37.25 51.16 2.92 140.67-16.06 185.71z" fill="#f1f4f6" data-original="#f1f4f6" style="" class=""/><path d="m141.363 203.002c5.721-20.575 7.257-40.497 5.758-58.432h64.3c-1.499 17.935.037 37.858 5.758 58.432z" fill="#ff4d05" data-original="#ff4d05" style=""/><path d="m217.18 203h-37.91v-58.43h32.15c-1.5 17.94.04 37.86 5.76 58.43z" fill="#c30047" data-original="#c30047" style=""/><ellipse cx="329.097" cy="320.037" fill="#494949" rx="129.655" ry="129.655" transform="matrix(.707 -.707 .707 .707 -129.91 326.443)" data-original="#494949" style=""/><path d="m458.75 320.04c0 71.6-58.05 129.65-129.65 129.65v-259.31c71.6 0 129.65 58.05 129.65 129.66z" fill="#3d3d3d" data-original="#3d3d3d" style="" class=""/><g><g><ellipse cx="371.26" cy="305.275" fill="#232323" rx="18.669" ry="18.669" transform="matrix(.23 -.973 .973 .23 -11.147 596.466)" data-original="#232323" style=""/><ellipse cx="286.933" cy="305.275" fill="#3d3d3d" rx="18.669" ry="18.669" transform="matrix(.23 -.973 .973 .23 -76.1 514.394)" data-original="#3d3d3d" style="" class=""/></g><ellipse cx="329.097" cy="248.374" fill="#3d3d3d" rx="18.669" ry="18.669" transform="matrix(.23 -.973 .973 .23 11.756 511.602)" data-original="#3d3d3d" style="" class=""/><path d="m347.77 248.37c0 10.31-8.36 18.67-18.67 18.67v-37.33c10.31 0 18.67 8.35 18.67 18.66z" fill="#232323" data-original="#232323" style=""/></g></g></g></g></svg>
