<?xml version="1.0"?>
<svg xmlns="http://www.w3.org/2000/svg" xmlns:xlink="http://www.w3.org/1999/xlink" xmlns:svgjs="http://svgjs.com/svgjs" version="1.1" width="512" height="512" x="0" y="0" viewBox="0 0 512 512" style="enable-background:new 0 0 512 512" xml:space="preserve" class=""><g><g xmlns="http://www.w3.org/2000/svg"><g><g><g><g><g><g><path d="m121.678 473.972c-73.019-45.092-121.678-125.85-121.678-217.972 0-141.385 114.615-256 256-256s256 114.615 256 256-114.615 256-256 256c-8.508 0-16.919-.415-25.214-1.226z" fill="#f1f1f1" data-original="#ff6c52" style="" class=""/></g></g></g></g></g></g><path d="m230.786 510.774c8.295.811 16.706 1.226 25.214 1.226 141.385 0 256-114.615 256-256 0-5.13-.151-10.225-.449-15.28l-58.279-58.279-2.697 1.357-90.565-90.565-227.954 196.723-10.636-10.636-2.95 41.692.824.824-5.43 108.616 54.471 54.471z" fill="#f1f1f1" data-original="#f92814" style="" class=""/><g><g><path d="m408.375 137.544h-141.625v201.461h186.522v-156.564z" fill="#cdd2e1" data-original="#cdd2e1" style=""/></g><g><path d="m408.375 182.441h44.897l-44.897-44.897z" fill="#afb4c8" data-original="#afb4c8" style=""/></g></g><g><g><path d="m151.989 43.16h105.064v224.684h-105.064z" fill="#ffffff" data-original="#ffffff" style="" class=""/></g><g><path d="m360.011 93.233-50.072-50.073h-53.818v224.684h103.89z" fill="#e9edf5" data-original="#e9edf5" style=""/></g><g><path d="m309.939 93.233h50.072l-50.072-50.073z" fill="#cdd2e1" data-original="#cdd2e1" style=""/></g><g fill="#7584f2"><path d="m260.752 131.157c0-11.413 8.643-19.115 20.001-19.115 8.92 0 13.686 5.042 16.123 9.917l-8.2 3.878c-1.219-2.937-4.377-5.375-7.923-5.375-6.039 0-10.305 4.654-10.305 10.693s4.266 10.693 10.305 10.693c3.546 0 6.704-2.438 7.923-5.374l8.2 3.878c-2.383 4.765-7.203 9.917-16.123 9.917-11.357.003-20.001-7.754-20.001-19.112z" fill="#7584f2" data-original="#7584f2" style=""/><path d="m310.728 149.607-13.906-36.955h10.804l9.087 26.65 9.142-26.65h10.804l-13.962 36.955z" fill="#7584f2" data-original="#7584f2" style=""/></g><g><path d="m177.025 212.641h157.949v30h-157.949z" fill="#cdd2e1" data-original="#cdd2e1" style=""/></g><g><path d="m256.121 212.641h78.854v30h-78.854z" fill="#afb4c8" data-original="#afb4c8" style=""/></g><g><path d="m177.025 168.117h157.949v30h-157.949z" fill="#cdd2e1" data-original="#cdd2e1" style=""/></g><g><path d="m256.121 168.117h78.854v30h-78.854z" fill="#afb4c8" data-original="#afb4c8" style=""/></g><g><g><path d="m221.622 118.58v-10.898h-15.294v10.898c0 1.819-.706 3.521-1.903 4.793l9.549 19.234 9.549-19.234c-1.195-1.273-1.901-2.974-1.901-4.793z" fill="#e09380" data-original="#e09380" style=""/></g><g><path d="m223.525 123.373c-1.196-1.273-1.903-2.974-1.903-4.793v-10.898h-7.789v34.64l.142.286z" fill="#d47f6c" data-original="#d47f6c" style=""/></g><g><path d="m248.863 140.658c-1.269-4.516-4.558-8.19-8.908-9.948l-13.956-5.64c-.958-.387-1.795-.973-2.474-1.696l-9.549 8.677-9.549-8.677c-.68.723-1.516 1.309-2.474 1.696l-13.956 5.64c-4.349 1.758-7.639 5.432-8.908 9.948l-3.412 12.146h76.6z" fill="#a3d4ff" data-original="#a3d4ff" style=""/></g><g><path d="m248.863 140.658c-1.269-4.516-4.558-8.19-8.908-9.948l-13.956-5.64c-.959-.388-1.795-.974-2.474-1.697l-9.549 8.677-.142-.129v20.882h38.442z" fill="#65b1fc" data-original="#65b1fc" style=""/></g><g><g><g><g><g><path d="m213.975 120.545c-9.641 0-17.456-7.815-17.456-17.456v-9.189c0-9.641 7.815-17.456 17.456-17.456 9.641 0 17.456 7.815 17.456 17.456v9.19c0 9.64-7.815 17.455-17.456 17.455z" fill="#faa68e" data-original="#faa68e" style=""/></g></g></g></g></g><g><g><g><g><g><path d="m213.975 76.444c-.048 0-.094.007-.142.007v44.087c.048 0 .094.007.142.007 9.641 0 17.456-7.815 17.456-17.456v-9.189c0-9.641-7.815-17.456-17.456-17.456z" fill="#e09380" data-original="#e09380" style=""/></g></g></g></g></g><g><path d="m213.975 132.05-5.34 6.544-9.283-12.474 5.074-2.747z" fill="#dbeeff" data-original="#dbeeff" style=""/></g><g><path d="m213.975 132.05 5.341 6.544 9.283-12.474-5.074-2.747z" fill="#a3d4ff" data-original="#a3d4ff" style=""/></g></g></g><g><path d="m256 301.125c0-9.486-7.39-17.558-16.871-17.873-9.938-.33-18.072 7.625-18.072 17.461 0 0-.022 63.425-.035 63.439l-10.856-5.624c.012-.014.032-58.423.032-58.423 0-.421.011-.839.033-1.255.557-10.567 9.253-22.515 20.556-24.245.029-.004 6.84 0 6.84 0v-96.912c0-9.191-7.451-16.641-16.641-16.641-9.191 0-16.641 7.45-16.641 16.641v103.321h-6.311v-25.468c0-9.023-7.017-16.709-16.034-17.029-9.467-.337-17.248 7.238-17.248 16.63v33.453h-5.235v-18.48c0-8.652-7.014-15.665-15.665-15.665-8.652 0-15.666 7.014-15.666 15.665v27.963h-5.235v-12.491c0-7.452-6.098-13.781-13.549-13.641-7.225.136-13.041 6.035-13.041 13.293l.207 111.851c1.474 16.682 11.214 30.986 25.096 38.795.012.006.019.019.019.032v38.051c32.303 19.948 69.373 32.916 109.105 36.801 0-35.534 0-72.588 0-72.588 0-.015.008-.028.021-.034 14.827-6.628 25.191-21.508 25.191-38.772z" fill="#ffdecf" data-original="#ffdecf" style="" class=""/></g><g><path d="m239.129 283.252c-9.938-.33-18.072 7.625-18.072 17.461 0 0-.022 63.425-.035 63.439l-10.856-5.624c.012-.014.031-58.423.031-58.423 0-.421.011-.839.033-1.255.557-10.567 9.253-22.515 20.556-24.245.029-.004 6.84 0 6.84 0v-96.912c0-9.191-7.451-16.641-16.641-16.641-9.191 0-16.641 7.45-16.641 16.641v103.321h-6.311v-25.468c0-9.023-7.017-16.709-16.034-17.029-.178-.006-.351.009-.528.008v262.425c15.844 4.823 32.332 8.163 49.316 9.824 0-35.534 0-72.588 0-72.588 0-.015.009-.028.021-.034 14.828-6.628 25.192-21.508 25.192-38.772v-98.255c0-9.486-7.39-17.558-16.871-17.873z" fill="#ffbeaa" data-original="#ffbeaa" style="" class=""/></g></g></g></svg>
