<svg xmlns="http://www.w3.org/2000/svg" xmlns:xlink="http://www.w3.org/1999/xlink" viewBox="0 0 185.2 95.7"><g fill="#00462c"><use xlink:href="#B"/><path d="M26.456 67.069h-1.4v5h1.4c2.4 0 3.1-1.3 3.1-2.6 0-1.5-.9-2.4-3.1-2.4m5.8 15.2l-4.1-6c-.9-1.3-1.2-1.6-1.7-1.6h-1.5v7.6h-3v-17.8h4.5c3.7 0 6 1.8 6 5.1 0 2-1 3.6-2.9 4.3.7.1 6.1 8.4 6.2 8.4h-3.5zm7.3 0v-17.8h10.4l-1 2.7h-6.5v4.8h6.5v2.7h-6.5v4.8h7.4v2.7h-10.3zm16.1 0v-17.8h10.4l-1 2.7h-6.5v4.8h6.5v2.7h-6.5v4.8h7.4v2.7h-10.3zm30 0l-11-12.7v12.7h-2.9v-17.8h2.3l11.4 13.1v-13.1h2.9v17.8h-2.7zm9.1 0v-17.8h10.4l-1 2.7h-6.4v4.8h6.5v2.7h-6.5v4.8h7.4v2.7h-10.4zm36.5 0l-9-8.8v8.8h-3v-17.8h3v8.1l7.5-8.1h3.7l-7.8 8.4 9.5 9.4h-3.9zm7.3-17.8h3v17.8h-3v-17.8zm23.3 17.8l-11-12.7v12.7h-2.8v-17.8h2.3l11.4 13.1v-13.1h2.9v17.8h-2.8z"/><use xlink:href="#B" x="169"/></g><g fill="#a06d1b"><path d="M44.156 92.669h-1v1.8h1c1 0 1.2-.5 1.2-1 .1-.4-.3-.8-1.2-.8m-.1-2.7h-.9v1.7h.9c.6 0 1-.3 1-.8 0-.6-.4-.9-1-.9m.3 5.6h-2.4v-6.7h2.1c1.4 0 2.2.7 2.2 1.8 0 .9-.4 1.2-.9 1.4 1 .2 1.3 1 1.3 1.6 0 1.2-1 1.9-2.3 1.9m7.4.1c-1.4 0-2.9-.8-2.9-2.6v-4.2h1.2v3.8c0 .7.1 1.1.4 1.4.3.4.8.6 1.3.6.7 0 1.1-.2 1.4-.5s.4-.8.4-1.4v-3.7h1.2v4.1c.1 1.5-.9 2.5-3 2.5m7.5-5.7h-.7v1.9h.7c.9 0 1.2-.5 1.2-1s-.3-.9-1.2-.9m2 5.6l-1.3-2c-.3-.5-.5-.6-.6-.6h-.9v2.6h-1.2v-6.7h2.1c1.4 0 2.2.7 2.2 1.9 0 .8-.4 1.5-1.1 1.8.3 0 2 3 2.1 3h-1.3zm5.8-3v3h-1.3v-2.9l-2.4-3.7h1.4l1.6 2.6 1.7-2.6h1.3l-2.3 3.6zm9.5 3.1c-.7 0-1.4-.1-2-.5v-1.3c.6.3 1 .7 2 .7.7 0 1-.3 1-.7 0-.6-.6-.8-.9-1-1.5-.8-2.2-1.2-2.2-2.2 0-1.3 1.2-1.9 2.2-1.9.3 0 1 0 1.8.4v1.3c-.4-.2-1-.5-1.8-.5-.9 0-1 .5-1 .6 0 .5.4.6 1.7 1.3 1.2.6 1.4 1.4 1.4 1.9 0 1.4-1.2 1.9-2.2 1.9m8.7-5.7h-2v5.6h-1.2v-5.6h-2.2v-1.1h5.8l-.4 1.1zm9.7 0h-2.7v1.6h2.7v1.1h-2.7v1.8h2.9v1.1h-4.1v-6.7h4.4l-.5 1.1zm4.9 0h-1.2v4.5h1.2c1.6 0 2.3-1 2.3-2.2 0-1.3-.7-2.3-2.3-2.3m.1 5.6h-2.5v-6.7h2.5c2.1 0 3.5 1.5 3.5 3.3-.1 1.9-1.4 3.4-3.5 3.4m11 0v-4.5l-1.9 2.8h-.6l-1.9-2.8v4.5h-1.2v-6.7h1.1l2.4 3.4 2.4-3.4h1.1v6.7h-1.4zm6.6.1c-1.4 0-2.9-.8-2.9-2.6v-4.2h1.2v3.8c0 .7.1 1.1.4 1.4.3.4.8.6 1.3.6.7 0 1.1-.2 1.4-.5s.4-.8.4-1.4v-3.7h1.2v4.1c0 1.5-1 2.5-3 2.5m10.5-.1l-3.8-4.7v4.7h-1.2v-6.7h1.2l3.8 4.8v-4.8h1.2v6.7h-1.2zm6.1-5.6h-1.2v4.5h1.2c1.6 0 2.3-1 2.3-2.2.1-1.3-.7-2.3-2.3-2.3m.1 5.6h-2.5v-6.7h2.5c2.1 0 3.5 1.5 3.5 3.3 0 1.9-1.3 3.4-3.5 3.4m6.8.1c-.7 0-1.4-.1-2-.5v-1.3c.6.3 1 .7 2 .7.7 0 1-.3 1-.7 0-.6-.6-.8-.9-1-1.5-.8-2.2-1.2-2.2-2.2 0-1.3 1.2-1.9 2.2-1.9.3 0 1 0 1.7.4v1.3c-.4-.2-1-.5-1.8-.5-.9 0-1 .5-1 .6 0 .5.4.6 1.7 1.3 1.2.6 1.4 1.4 1.4 1.9.1 1.4-1.1 1.9-2.1 1.9m-75.7-63.9h-1.3c.4-2.2 1.2-4.1 2.4-6.1h-3.4l.2-1.1h4.9v.5c-1.4 2.1-2.4 4.3-2.8 6.7m3.7-27.1c2.3 1.6 4.2-.2 5.5 1.9-2.8-.9-4.2.6-5.5-1.9m4.3 6.2c2.3 1.6 4.2-.2 5.5 1.9-2.7-.9-4.2.5-5.5-1.9"/><path d="M70.156 6.169c2.3 1.6 4.2-.2 5.5 1.9-2.8-.8-4.2.6-5.5-1.9"/><path d="M71.256 7.769c2.3 1.6 4.2-.2 5.5 1.9-2.8-.9-4.2.6-5.5-1.9"/><path d="M72.356 9.269c2.3 1.6 4.2-.2 5.5 1.9-2.8-.9-4.2.6-5.5-1.9m7.5 2.6c.1-2.6 1.6-3.6.4-5.3l-4.4-6.1c-.1-.1-.2-.3-.4-.5.7 2.5-1.3 3.7-.3 5.4l-2.2-3.1c-.1-.2-.4-.2-.5-.1-.2.1-.2.4-.1.5l15.6 21.6c.2 0 .6-.1.8-.2 0 .1-4.6-6.3-8.9-12.2m37.3-7.2c-2.3 1.6-4.2-.2-5.5 1.9 2.8-.9 4.2.6 5.5-1.9m-4.3 6.2c-2.3 1.6-4.2-.2-5.5 1.9 2.7-.9 4.2.5 5.5-1.9"/><path d="M116.056 6.169c-2.3 1.6-4.2-.2-5.5 1.9 2.8-.8 4.2.6 5.5-1.9"/><path d="M114.956 7.769c-2.3 1.6-4.2-.2-5.5 1.9 2.8-.9 4.2.6 5.5-1.9"/><path d="M113.856 9.269c-2.3 1.6-4.2-.2-5.5 1.9 2.8-.9 4.2.6 5.5-1.9m-7.5 2.6c-.1-2.6-1.6-3.6-.4-5.3l4.4-6.1c.1-.1.2-.3.4-.5-.7 2.5 1.3 3.7.3 5.4l2.2-3.1c.1-.2.4-.2.5-.1.2.1.2.4.1.5l-15.6 21.6c-.2 0-.6-.1-.8-.2 0 .1 4.6-6.3 8.9-12.2m-12.1 17.4c0 .6-.5 1.2-1.2 1.2-.6 0-1.2-.5-1.2-1.2 0-.6.5-1.2 1.2-1.2s1.2.5 1.2 1.2m-12.6.6c0 .4-.3.8-.8.8-.4 0-.8-.3-.8-.8 0-.4.3-.8.8-.8s.8.4.8.8m24.4 0c0 .4-.3.8-.8.8-.4 0-.8-.3-.8-.8 0-.4.3-.8.8-.8s.8.4.8.8m-.7 1.4c-.8 0-1.4-.6-1.4-1.4s.6-1.4 1.4-1.4 1.4.6 1.4 1.4c-.1.7-.7 1.4-1.4 1.4m-12.2-.2c-1 0-1.9-.8-1.9-1.9 0-1 .8-1.9 1.9-1.9 1 0 1.9.8 1.9 1.9-.1 1.1-.9 1.9-1.9 1.9m-12.3.2c-.8 0-1.4-.6-1.4-1.4s.6-1.4 1.4-1.4 1.4.6 1.4 1.4c0 .7-.6 1.4-1.4 1.4m12.2-4.5c-8.4 0-15.8 1-17.2 2.3.7 1.3 1.6 2.9 2.2 4.3.6-.9 7.6-1.6 15-1.6 6.6 0 14.2.7 15 1.5.7-1.4 1.5-2.9 2.3-4.2-1.4-1.3-8.8-2.3-17.3-2.3m17.8 1.5l5.2-8.2c-2.8-.5-3.4 2.7-4.1 2.7-.3 0-.4-.5-.5-1.1-.3-.9-1.1-1.6-2.3-1.3-2.4.5-1 2.8-1 2.8-.1-.5 1.4-1.2 2-.2.9 1.5-.3 3.7-3.9 3-2.7-.5-2.5-1.8-2.6-2.8h0c.6-.2 1.1-.7 1.1-1.4 0-.8-.6-1.4-1.4-1.4s-1.4.6-1.4 1.4c0 .5.3 1 .7 1.2-.5 2.4-7.3 3.7-7.2-1.8 0-1.9 2.4-2.8 3.8-1.4.8-1.6-.2-3.1-1.9-3.3-1.6-.2-2 .9-2.6.4-.3-.3.5-1.6.5-2.1-.2-1.5-2-3-2-3s-1.7 1.4-2 3c-.1.5.8 1.8.5 2.1-.6.5-1-.6-2.6-.4-1.7.3-2.7 1.7-1.9 3.3 1.4-1.4 3.7-.4 3.8 1.4.1 5.5-6.6 4.2-7.2 1.8.4-.3.7-.7.7-1.2 0-.8-.6-1.4-1.4-1.4s-1.4.6-1.4 1.4c0 .7.5 1.2 1.1 1.4h0c-.1 1 .1 2.3-2.6 2.8-3.6.7-4.9-1.5-3.9-3 .6-1 2.1-.3 2 .2 0 0 1.4-2.3-1-2.8-1.1-.2-2 .4-2.3 1.3-.2.6-.2 1.1-.5 1.1-.8 0-1.4-3.2-4.1-2.7l5.2 8.2c1.4-1.3 9.3-2.3 17.7-2.3 8.1 0 16.1 1 17.5 2.3m-32 5.6c0 .5 4.2 1.1 9.9 1.3l1.9-2.6c-6.6.1-11.8.8-11.8 1.3"/><path d="M107.356 33.869c0-.5-5.1-1.2-11.8-1.4l1.9 2.6c5.7-.2 9.9-.7 9.9-1.2m-14.2-1h0l-1.7 2.3h1.7 1.7l-1.7-2.3h0zm-11.2 14.3l10.6-14.7h-.9l-8.7 12.1-2.7-.2-2.7 8.9 4.4-6.1m-3.1 5.6l6.7-4.1-1.4-3.3-5.3 7.4z"/><path d="M104.256 47.169l4.4 6.2-2.7-8.9-2.7.2-8.7-12.1h-.9l10.6 14.6m-3.6 1.5l6.7 4.1-5.3-7.4-1.4 3.3z"/><use xlink:href="#C"/><use xlink:href="#C" x="7.5"/><path d="M58.456 30.469v-4.8l-1.7.7-.3-.9 2.3-1h1v6h-1.3z"/></g><defs ><path id="B" d="M9.456 82.469c-5.4 0-9.5-3.8-9.5-9s4.1-9.2 9.5-9.2c2.1 0 3.9.5 6.3 1.6v3c-2.1-1.1-4.3-1.9-6.4-1.9-3.9 0-6.5 3-6.5 6.5 0 3.7 2.6 6.4 6.9 6.4 1.8 0 2.7-.4 3.4-.7v-4.1h-4.1l.9-2.7h6.2v8.7c-2.3 1-4.2 1.4-6.7 1.4"/><path id="C" d="M118.756 25.569c-.9 0-1.3.7-1.3 1.2 0 .8.5 1.1 1.3 1.1.7 0 1.1-.2 1.3-.4 0-.2.1-.3.1-.6-.1-.8-.7-1.3-1.4-1.3m-.8 6.5l-.7-.9c1.1-.4 2.1-1.2 2.6-2.5-.3.2-.9.3-1.4.3-1.2 0-2.2-.8-2.2-2.2 0-1.2 1-2.4 2.4-2.4 1.6 0 2.7 1.1 2.7 2.8 0 2.7-1.7 4.1-3.4 4.9"/></defs></svg>