<?xml version="1.0" encoding="utf-8"?>
<svg version="1.1" id="Layer_1" xmlns="http://www.w3.org/2000/svg" xmlns:xlink="http://www.w3.org/1999/xlink" x="0px" y="0px"
	 viewBox="0 0 2498.6 293" style="enable-background:new 0 0 2498.6 293;" xml:space="preserve">
<g>
	<path style="fill:#CF4044;" d="M1993.3,60.6c-76.8-7.2-124.3,74.1-143.3,106.6c-20.8,34.5-30.1,88.7-5.1,106.7
		c45.3,32.5,112.5,8,135.7-14.9c28.9-28.7,40.5-46,59.3-84.3C2084.6,81.3,2025.4,63.6,1993.3,60.6L1993.3,60.6z M1927.9,165.6
		c22.5-36,34-42.3,44.9-35.5c9.3,6,0.5,21.8-16.1,51.2c-24.8,35.4-33.2,42.9-45,35.6C1904.9,212.3,1912.9,194.8,1927.9,165.6z"/>
	<path style="fill:#D9782D;" d="M256.1,0.2H0v282.1h89.7L256.1,0.2z M245.8,282.2h4.3l0.4-8L245.8,282.2L245.8,282.2z M271.2,0.2
		L105,282.2h140.8L412,0.2H271.2z M427.3,0.2L261.1,282.2h115.4L542.7,0.2H427.3z M558,0.2L391.6,282.2h87.5L645.3,0.2H558z
		 M665.7,0.2L499.5,282.2h55.9L720.9,0.2H665.7z M749.8,0.2L583.4,282.2h34.9L783.6,0.2H749.8z M820.1,0.2L653.8,282.2h20.4
		L840.4,0.2H820.1z M880.3,0.2L714,282.2h10.2L889.7,0.2H880.3L880.3,0.2z"/>
	<path style="fill:#CF4044;" d="M1108.5,72.1l-83.9,152.1c-17.5,31.2,21.5,59.9,67,62.9c53.8,3.4,86.8-8.3,109.4-47.9l95.9-167.1
		h-78.9L1137.3,211c-4.2,7.9-12.2,12.9-21.1,13.2c-12.4,0-8.2-12.3-4.2-19l74.7-133.1L1108.5,72.1L1108.5,72.1z M1329.9,39.9
		l-95,172c-9.5,16.8-9.3,35.3,4.2,52.1c9.6,11.9,19.5,18,38.2,18.2h48.3l30.7-57.1h-33.9c-3.2-0.1-6.4,0.8-7.7-1.7
		c-0.2-1.7,0.4-2.9,0.9-4.1l47.5-85.2h46.7l31.4-60.4h-44.9l18.6-33.9L1329.9,39.9L1329.9,39.9z M1703.1,11h234.2L1900,77.9
		l-185.8,137.3h107.8l-39.1,67h-234.9l42.4-75.3L1777,73h-109.4L1703.1,11z M2112.1,78.8h84.8l-4.2,9.1
		c-9.6,20.4,14.8-24.8,56.8-9.1c20.4,7.3,28.2,32.6,20.4,46.3l-86.5,157.2h-76.4l68.6-127.4c3.2-6.2,3.8-15.2-2.5-16.5
		c-10.7-2.9-15.3,8.1-20.4,17.4l-72.9,126.5h-80.6L2112.1,78.8L2112.1,78.8z M2438.6,197c6.5-17.5,36-65.6,11.8-102.6
		c-13.8-21.4-38-28.5-59.3-29.7c-69.7-3.3-110.7,63.7-130.8,105.8c-15.8,33.9-54.9,118.6,49.3,122.4c45.3,1.9,102.7-39.4,121.2-84.3
		h-79.7c-8.6,11.3-18.2,30.2-31.4,23.1c-9.8-4.7-1.9-17.8,7.6-34.6L2438.6,197L2438.6,197z M2380.1,134.1
		c2.3,4.8-0.3,11.7-11.1,32.2h-27.1C2352.3,145.9,2370.9,116.6,2380.1,134.1z M1544.6,60.6c-77-7.2-124.5,74.1-144.3,106.6
		c-20,34.5-29.3,88.7-4.2,106.7c45.1,32.5,112.4,8,135.7-14.9c28.8-28.7,40.4-46,58.5-84.3C1635.7,81.3,1576.5,63.6,1544.6,60.6
		L1544.6,60.6z M1479.2,165.6c22.3-36,33.9-42.3,45-35.5c9,6,0.3,21.8-16.1,51.2c-25,35.4-33.4,42.9-45,35.6
		C1456,212.3,1464,194.8,1479.2,165.6z M1014.3,0.2c-27.3,1.7-100.1,12.9-128,59.6L753.9,282.2h91.5l36.5-62.1h39.9l-33.2,62.1h84
		l114.5-204.3C1107.1,41.9,1074.6-3.1,1014.3,0.2z M995.6,92.8l-33.9,59.5h-39.8l39.8-67.8c4.7-8.3,14.4-9.7,22.9-9.9
		C996.9,73.5,1005.5,75.9,995.6,92.8z M2470,19.9h5.5c2.4,0,4.3,0.3,4.6,3.1c0,4.3-3.2,4.3-5.3,4.3h-4.9L2470,19.9L2470,19.9
		L2470,19.9z M2464.5,15.6v26.6h5.4V31.5h4.8c3.8,0.4,4.8,1.5,4.9,5.7c0.1,3.4,0.3,4.2,0.8,5h5.5c-0.6-1.2-0.6-1.7-0.8-6.1
		c-0.2-3.4-0.9-5.6-4.6-6.7v-0.2c3.7-0.8,5.1-3.5,5.1-6.4c0-7.2-7.9-7.2-9.6-7.2L2464.5,15.6L2464.5,15.6z M2474.8,5.3
		c-13-0.2-23.8,10.2-24,23.3c0,12.8,10.6,23.4,24,23.4c13.1,0,23.9-10.4,23.9-23.4C2498.5,15.6,2487.8,5.2,2474.8,5.3
		C2474.8,5.3,2474.8,5.3,2474.8,5.3z M2474.8,10.6c10,0,18,8.1,18,18s-8.1,18-18,18c-10,0.1-18.2-7.9-18.4-17.9c0-0.1,0-0.2,0-0.2
		C2456.4,18.8,2464.3,10.6,2474.8,10.6z"/>
</g>
</svg>
