<?xml version="1.0" encoding="utf-8"?>
<svg version="1.1" id="Layer_1" xmlns="http://www.w3.org/2000/svg" xmlns:xlink="http://www.w3.org/1999/xlink" x="0px" y="0px"
	 viewBox="0 0 1178.3 242.1" style="enable-background:new 0 0 1178.3 242.1;" xml:space="preserve">
<g>
	<path style="fill:#F18700;" d="M398.5,102.5c-1.8,0.4-3.5,0.6-5.5,0.8c-2,0.2-4.1,0.2-6.7,0.2c-4.7,0-8.8-0.4-12.2-1.2V78.5h-32.6
		v23.8c-1.8,0.4-3.5,0.6-5.5,0.8c-2,0.2-4.1,0.2-6.7,0.2c-4.7,0-8.8-0.4-12.2-1.2V45.9c0-13.7,4.1-24.1,12.2-31.2
		c8-6.9,19.8-10.4,35.1-10.4c5.5,0,11.4,0.6,17.7,1.8c6.3,1.2,11.8,2.6,16.5,4.3v92.1H398.5z M374.2,59.1V26.7
		c-3.9-1-8.2-1.6-13-1.6c-13.2,0-19.6,7.5-19.6,22.6v11.2h32.6V59.1z M485.1,79.5c-2.7,1-5.9,1.8-8.8,2.6c-3.1,0.8-6.9,1.2-11.2,1.2
		c-3.5,0-6.7-0.4-9.8-1.6c-2.9-1-5.7-2.6-7.9-4.7c-2.2-2.2-3.9-5.1-5.3-8.8c-1.4-3.7-2-8-2-13.3c0-5.3,0.6-9.8,2-13.3
		c1.4-3.7,3.1-6.7,5.3-8.8c2.2-2.4,4.9-3.9,7.9-4.9c2.9-1,6.3-1.6,9.8-1.6c4.3,0,8,0.4,11.2,1.2c3.1,0.8,6.1,1.6,8.8,2.6
		c1.2-2.2,2.2-5.3,3.1-9c1-3.7,1.8-7.5,2.4-11.2c-3.5-1.4-7.3-2.6-11.6-3.5c-4.3-1-9.6-1.6-15.9-1.6c-8,0-15.1,1.2-21,3.7
		c-6.1,2.6-11.2,5.9-15.1,10.4c-4.1,4.5-7.1,9.6-9.2,15.9c-2,6.1-3.1,12.8-3.1,20.2c0,7.3,1,13.9,3.1,20c2,6.1,5.1,11.4,9.2,15.9
		c4.1,4.5,9,7.9,15.1,10.4c6.1,2.6,13.2,3.7,21,3.7c6.3,0,11.6-0.6,15.9-1.6c4.3-1,8-2.2,11.6-3.5c-0.6-3.7-1.2-7.5-2.4-11.2
		C487.3,84.6,486.1,81.7,485.1,79.5 M568.5,79.5c-2.7,1-5.9,1.8-8.8,2.6c-3.1,0.8-6.9,1.2-11.2,1.2c-3.5,0-6.7-0.4-9.8-1.6
		c-2.9-1-5.7-2.6-7.9-4.7c-2.2-2.2-3.9-5.1-5.3-8.8c-1.4-3.7-2-8-2-13.3c0-5.3,0.6-9.8,2-13.3c1.4-3.7,3.1-6.7,5.3-8.8
		c2.2-2.2,4.9-3.9,7.9-4.9c2.9-1,6.3-1.6,9.8-1.6c4.3,0,8,0.4,11.2,1.2c3.1,0.8,6.1,1.6,8.8,2.6c1.2-2.2,2.2-5.3,3.1-9
		c1-3.7,1.8-7.5,2.4-11.2c-3.5-1.4-7.3-2.6-11.6-3.5s-9.6-1.6-15.9-1.6c-8,0-15.1,1.2-21,3.7c-6.1,2.6-11.2,5.9-15.1,10.4
		c-4.1,4.5-7.1,9.6-9.2,15.9c-2,6.1-3.1,12.8-3.1,20.2c0,7.3,1,13.9,3.1,20c2,6.1,5.1,11.4,9.2,15.9c4.1,4.5,9,7.9,15.1,10.4
		c6.1,2.6,13.2,3.7,21,3.7c6.3,0,11.6-0.6,15.9-1.6c4.3-1,8-2.2,11.6-3.5c-0.6-3.7-1.2-7.5-2.4-11.2
		C570.7,84.6,569.5,81.7,568.5,79.5 M628.2,104.6c-7.9,0-14.5-1.2-20.4-3.7c-5.9-2.6-10.6-5.9-14.5-10.4c-3.9-4.5-6.9-9.6-8.8-15.9
		c-2-6.1-2.9-12.8-2.9-20c0-7.5,1-14.1,2.9-20.2c2-6.1,4.9-11.4,8.8-15.9c3.9-4.5,8.6-7.9,14.5-10.4s12.6-3.7,20.4-3.7
		c7.9,0,14.5,1.2,20.4,3.7c5.9,2.6,10.6,5.9,14.5,10.4s6.9,9.6,8.8,15.9c2,6.1,2.9,12.8,2.9,20.2c0,7.3-1,13.9-2.9,20
		s-4.9,11.4-8.8,15.9c-3.9,4.5-8.6,7.9-14.5,10.4C642.7,103.5,636.1,104.6,628.2,104.6 M607.2,54.4c0,9.6,1.8,17.1,5.3,22.4
		c3.5,5.3,8.8,7.9,15.9,7.9c7.1,0,12.4-2.6,15.9-7.9s5.3-12.8,5.3-22.4s-1.8-17.1-5.3-22.2c-3.5-5.1-8.8-7.9-15.9-7.9
		c-7.1,0-12.4,2.6-15.9,7.9C609,37.5,607.2,44.8,607.2,54.4 M751.3,64.4c6.3-3.1,11.2-7.3,14.5-12.4c3.5-5.1,5.1-10.6,5.1-16.5
		c0-10.4-3.9-18.3-12-23.4s-19.4-7.7-34.2-7.7c-4.3,0-9.6,0.2-15.9,0.6c-6.3,0.4-12.4,1-18.3,1.6v95.6c3.7,0.8,7.9,1.2,12.4,1.2
		c2.6,0,4.7,0,6.5-0.2c2-0.2,3.7-0.4,5.7-0.8V23.6c1.8-0.2,3.5-0.4,4.9-0.6c1.6-0.2,2.9-0.2,4.3-0.2c13.5,0,20.4,4.9,20.4,14.7
		c0,5.3-1.8,9.8-5.5,13.3c-3.7,3.7-9,6.7-16.1,9.2l25.1,42.4c2.2,0.4,4.7,0.6,7.5,0.8c2.7,0.2,5.1,0.2,7.5,0.2c2.2,0,4.7,0,7.5-0.2
		c2.7-0.2,5.1-0.4,7.5-0.8L751.3,64.4z M789,6.7c2.2-0.4,4.7-0.6,7.7-1c2.7-0.2,5.7-0.4,8.6-0.6c2.9-0.2,5.9-0.4,8.6-0.4
		c2.7-0.2,5.3-0.2,7.5-0.2c9.4,0,17.5,1.2,24.1,3.7c6.7,2.6,12.2,5.9,16.5,10.2s7.5,9.6,9.6,15.7c2,6.1,3.1,12.8,3.1,20.2
		s-1,14.1-3.1,20.2c-2,6.1-5.3,11.4-9.6,15.9c-4.3,4.5-9.8,7.9-16.5,10.4c-6.7,2.6-14.7,3.7-24.1,3.7c-2.2,0-4.7,0-7.5-0.2
		c-2.7-0.2-5.7-0.2-8.6-0.4c-2.9-0.2-5.9-0.4-8.6-0.6c-2.7-0.2-5.3-0.6-7.7-1V6.7z M814.3,83.2c2,0.2,3.7,0.4,5.3,0.6
		c1.6,0.2,3.5,0.2,5.5,0.2c7.9,0,13.7-2.4,17.9-7.1c4.1-4.7,6.3-12.2,6.3-22.4c0-10.2-2.2-17.7-6.3-22.4c-4.1-4.7-10-6.9-17.9-6.9
		c-2.2,0-3.9,0-5.5,0.2c-1.6,0.2-3.3,0.4-5.3,0.6V83.2z"/>
	<path style="fill:#EB6209;" d="M377.1,215.4c-2.7,0.6-5.5,1-8,1c-3.1,0-5.7-0.4-8-1c-2.7-7.9-5.9-15.3-9.2-22.4
		c-3.5-7.1-6.9-13.5-10.6-19.2l-0.8,61.4c-1.8,0.4-3.7,0.6-5.5,0.8c-1.8,0.2-3.9,0.2-6.5,0.2c-4.7,0-8.8-0.4-12.2-1.2l1.8-95.6
		c3.1-0.8,6.9-1.2,11.2-1.2c4.1,0,8,0.4,11.2,1.2c2.2,2.7,4.3,5.9,6.9,9.6c2.6,3.7,5.1,7.9,7.7,12.4c2.6,4.5,4.9,9,7.5,13.7
		c2.4,4.7,4.7,9.4,6.7,13.9c1.8-4.5,3.9-9.2,6.3-13.9c2.4-4.7,4.7-9.4,7.1-13.7c2.4-4.5,4.7-8.6,7.3-12.4c2.4-3.7,4.7-7.1,6.7-9.6
		c1.8-0.4,3.5-0.6,5.3-0.8c1.8-0.2,3.7-0.2,6.1-0.2c4.3,0,8,0.4,11.2,1.2l1.8,95.6c-3.5,0.8-7.7,1.2-12.4,1.2c-2.4,0-4.5,0-6.3-0.2
		s-3.7-0.4-5.5-0.8l-0.8-61.8c-3.5,5.9-7.1,12.4-10.2,19.6C382.4,200.2,379.5,207.7,377.1,215.4 M482.6,237.3
		c7.9,0,14.5-1.2,20.4-3.7c5.9-2.6,10.6-5.9,14.5-10.4c3.9-4.5,6.9-9.6,8.8-15.9c2-6.1,2.9-12.8,2.9-20c0-7.5-1-14.1-2.9-20.2
		c-2-6.1-4.9-11.4-8.8-15.9c-3.9-4.5-8.6-7.9-14.5-10.4c-5.9-2.6-12.6-3.7-20.4-3.7c-7.9,0-14.5,1.2-20.4,3.7
		c-5.9,2.6-10.6,5.9-14.5,10.4c-3.9,4.5-6.9,9.6-8.8,15.9c-2,6.1-2.9,13-2.9,20.2c0,7.3,1,13.9,2.9,20c2,6.1,4.9,11.4,8.8,15.9
		c3.9,4.5,8.6,7.9,14.5,10.4C468,236.2,474.7,237.3,482.6,237.3 M461.3,187.3c0-9.6,1.8-17.1,5.3-22.2c3.5-5.1,8.8-7.9,15.9-7.9
		c7.1,0,12.4,2.6,15.9,7.9c3.5,5.1,5.3,12.6,5.3,22.2c0,9.6-1.8,17.1-5.3,22.4c-3.5,5.3-8.8,7.9-15.9,7.9c-7.1,0-12.4-2.6-15.9-7.9
		C463.1,204.4,461.3,196.9,461.3,187.3 M605.4,197.3c6.3-3.1,11.2-7.3,14.5-12.4c3.5-5.1,5.1-10.6,5.1-16.5c0-10.4-3.9-18.3-12-23.4
		c-8-5.1-19.4-7.7-34.2-7.7c-4.3,0-9.6,0.2-15.9,0.6c-6.3,0.4-12.4,1-18.3,1.6v95.6c3.7,0.8,7.9,1.2,12.4,1.2c2.6,0,4.7,0,6.5-0.2
		c1.8-0.2,3.7-0.4,5.7-0.8v-79.1c1.8-0.2,3.5-0.4,4.9-0.6c1.6-0.2,2.9-0.2,4.3-0.2c13.5,0,20.4,4.9,20.4,14.7
		c0,5.3-1.8,9.8-5.5,13.3c-3.7,3.7-9,6.7-16.1,9.2l25.1,42.4c2.2,0.4,4.7,0.6,7.5,0.8c2.7,0.2,5.1,0.2,7.5,0.2c2.2,0,4.7,0,7.5-0.2
		c2.7-0.2,5.1-0.4,7.5-0.8L605.4,197.3z M636.3,139.6c-0.4,1.8-0.6,3.5-0.8,5.3c-0.2,1.8-0.2,3.5-0.2,5.1c0,1.6,0,3.3,0.2,5.1
		c0.2,1.8,0.4,3.5,0.8,5.3h28.3v75c3.7,0.8,7.9,1.2,12.6,1.2c4.7,0,8.8-0.4,12.6-1.2v-75.2h28.3c0.4-1.8,0.6-3.5,0.8-5.3
		c0.2-1.8,0.2-3.5,0.2-5.1c0-1.6,0-3.3-0.2-5.1c-0.2-1.8-0.4-3.5-0.8-5.3h-81.7 M785.7,215.6c-0.8,0.2-1.8,0.4-3.1,0.6
		c-1.4,0.2-2.7,0.2-4.3,0.2c-3.9,0-7.5-0.6-10.8-1.6c-3.1-1-5.9-2.7-8.2-4.9c-2.4-2.4-4.1-5.3-5.3-9c-1.2-3.7-1.8-8-1.8-13.3
		c0-5.3,0.6-9.8,2-13.3c1.4-3.7,3.1-6.7,5.5-8.8c2.4-2.4,5.1-3.9,8.4-4.9c3.3-1,6.9-1.6,10.8-1.6c4.3,0,8,0.4,11.4,1.2
		c3.3,0.8,6.3,1.6,9.2,2.6c1.2-2.2,2.2-5.3,3.1-9c1-3.7,1.8-7.5,2.4-11.2c-4.3-1.8-8.8-2.9-13.3-3.7c-4.7-0.8-9.4-1.2-14.5-1.2
		c-8.4,0-15.9,1.2-22.2,3.7s-11.6,5.9-15.7,10.4c-4.1,4.5-7.3,9.6-9.4,15.9c-2,6.1-3.1,13-3.1,20.2c0,7.3,1,13.9,3.1,20
		c2,6.1,5.1,11.4,9.4,15.9c4.1,4.5,9.4,7.9,15.7,10.4c6.3,2.6,13.7,3.7,22.2,3.7c7.5,0,13.7-0.4,19.2-1.4c5.3-1,9.8-2.2,13.3-3.3
		v-46.1c-1.6-0.4-3.5-0.6-5.9-0.8c-2.4-0.2-4.3-0.2-6.1-0.2s-3.7,0-6.1,0.2c-2.4,0.2-4.3,0.4-5.9,0.8L785.7,215.6L785.7,215.6z
		 M908.2,143.5c-4.7-1.8-10.2-3.1-16.5-4.3c-6.3-1.2-12.2-1.8-17.7-1.8c-15.3,0-26.9,3.5-35.1,10.4c-8,7.1-12.2,17.3-12.2,31.2v56.1
		c3.5,0.8,7.5,1.2,12.2,1.2c2.6,0,4.7,0,6.7-0.2c2-0.2,3.7-0.4,5.5-0.8v-23.8h32.6v23.8c3.5,0.8,7.5,1.2,12.2,1.2
		c2.6,0,4.7,0,6.7-0.2s3.7-0.4,5.5-0.8v-92.1H908.2z M851.2,192v-11.2c0-15.1,6.5-22.6,19.6-22.6c4.7,0,9,0.6,13,1.6v32.4h-32.6V192
		z M983,215.6c-0.8,0.2-1.8,0.4-3.1,0.6c-1.4,0.2-2.7,0.2-4.3,0.2c-3.9,0-7.5-0.6-10.8-1.6c-3.1-1-5.9-2.7-8.2-4.9
		c-2.4-2.4-4.1-5.3-5.3-9c-1.2-3.7-1.8-8-1.8-13.3c0-5.3,0.6-9.8,2-13.3c1.4-3.7,3.1-6.7,5.5-8.8c2.4-2.4,5.1-3.9,8.4-4.9
		c3.3-1,6.9-1.6,10.8-1.6c4.3,0,8,0.4,11.4,1.2s6.3,1.6,9.2,2.6c1.2-2.2,2.2-5.3,3.1-9c1-3.7,1.8-7.5,2.4-11.2
		c-4.3-1.8-8.8-2.9-13.3-3.7c-4.7-0.8-9.4-1.2-14.5-1.2c-8.4,0-15.9,1.2-22.2,3.7c-6.3,2.6-11.6,5.9-15.7,10.4
		c-4.1,4.5-7.3,9.6-9.4,15.9c-2,6.1-3.1,13-3.1,20.2c0,7.3,1,13.9,3.1,20c2,6.1,5.1,11.4,9.4,15.9c4.1,4.5,9.4,7.9,15.7,10.4
		s13.7,3.7,22.2,3.7c7.5,0,13.7-0.4,19.2-1.4c5.3-1,9.8-2.2,13.3-3.3v-46.1c-1.6-0.4-3.5-0.6-5.9-0.8c-2.4-0.2-4.3-0.2-6.1-0.2
		c-1.8,0-3.7,0-6.1,0.2c-2.4,0.2-4.3,0.4-5.9,0.8V215.6z M1085.1,196.3c0.4-1.4,0.6-2.9,0.8-4.7c0.2-1.8,0.2-3.3,0.2-4.7
		c0-1.4,0-2.9-0.2-4.7c-0.2-1.8-0.4-3.3-0.8-4.7h-37.5v-17.3h44.8c0.8-2.7,1.2-6.1,1.2-10.4c0-4.1-0.4-7.5-1.2-10.4h-69.1v54.4
		c0,8,0.8,14.7,2.6,20.2s4.3,10,8,13.3c3.7,3.5,8.4,5.9,14.1,7.5c5.9,1.6,12.8,2.4,21,2.4c9,0,17.5-1,25.1-2.7c0.6-3.1,1-6.3,1-9.4
		c0-1.8-0.2-3.5-0.4-5.1c-0.2-1.6-0.8-3.3-1.2-4.9c-3.3,0.6-7.1,1.2-11.2,1.4c-4.1,0.4-8,0.4-11.6,0.4c-8.4,0-14.3-1.6-17.7-4.5
		c-3.5-2.9-5.1-8.4-5.1-16.1h37.1V196.3z M1140,197.3c3.7,1.2,6.9,2.6,9.2,4.1c2.4,1.6,3.5,3.7,3.5,6.7c0,3.3-1.8,5.7-4.9,7.3
		c-3.3,1.6-7.5,2.4-12.4,2.4c-2.2,0-4.3-0.2-6.5-0.4c-2.4-0.4-4.5-0.6-6.7-1.2c-2.2-0.4-4.3-1-6.3-1.6c-2-0.6-3.5-1.2-5.1-1.8
		c-1.2,2.2-2.2,5.3-3.1,9c-1,3.7-1.8,7.5-2.4,11.2c3.5,1.2,8,2.4,13.5,3.1s11.2,1.4,16.7,1.4c13.2,0,23.6-2.7,31.2-8.4
		c7.7-5.7,11.4-13.5,11.4-23.6c0-7.5-2-13.2-5.9-17.3s-9.6-7.3-17.3-9.6l-12.6-3.7c-2.7-0.8-5.3-2-7.3-3.3c-2-1.4-3.1-3.3-3.1-5.9
		c0-2.7,1.2-4.9,3.7-6.5c2.6-1.4,5.7-2.2,9.8-2.2c3.1,0,7.1,0.4,11.6,1.4s8.6,2.2,12.2,3.3c1.2-2.6,2.4-5.5,3.3-9.2
		c1-3.7,1.8-7.3,2.2-11c-1.8-0.6-3.7-1.2-6.1-1.8c-2.4-0.6-4.7-1-7.3-1.4c-2.6-0.4-5.3-0.6-7.9-1c-2.7-0.2-5.1-0.4-7.5-0.4
		c-5.9,0-11.2,0.8-16.1,2.2c-4.7,1.4-8.8,3.5-12.4,6.1c-3.5,2.7-6.1,5.9-8,9.6c-1.8,3.7-2.7,7.9-2.7,12.6c0,6.9,2,12.6,5.7,16.7
		c3.7,4.3,9.2,7.5,16.1,9.6L1140,197.3z"/>
	<path style="fill:#F18700;" d="M160.2,3.9C172,1.4,185.3,0,199.3,0c13.9,0,27.1,1.4,39.1,3.9c2.6,11.8,3.9,25.1,3.9,39.1
		s-1.4,27.1-3.9,39.1c-11.8,2.6-25.1,3.9-39.1,3.9c-13.9,0-27.1-1.4-39.1-3.9c-2.6-11.8-3.9-25.1-3.9-39.1
		C156.1,29.1,157.6,15.9,160.2,3.9"/>
	<g>
		<g>
			<defs>
				<path id="SVGID_13_" d="M160.2,82.1c11.8,2.6,25.1,4.1,39.1,4.1c13.9,0,27.1-1.4,39.1-4.1c2.6-11.8,3.9-25.1,3.9-39.1
					s-1.4-27.1-3.9-39.1L160.2,82.1z"/>
			</defs>
			<clipPath id="SVGID_1_">
				<use xlink:href="#SVGID_13_"  style="overflow:visible;"/>
			</clipPath>
			
				<linearGradient id="SVGID_2_" gradientUnits="userSpaceOnUse" x1="-483.3285" y1="151.4756" x2="-479.7023" y2="151.4756" gradientTransform="matrix(0 -22.6303 22.6303 0 -3226.7078 -10851.8721)">
				<stop  offset="0" style="stop-color:#AF6500"/>
				<stop  offset="0.3353" style="stop-color:#CA7300"/>
				<stop  offset="0.85" style="stop-color:#F18700"/>
				<stop  offset="1" style="stop-color:#F18700"/>
			</linearGradient>
			<rect x="160.2" y="3.9" style="clip-path:url(#SVGID_1_);fill:url(#SVGID_2_);" width="82.1" height="82.1"/>
		</g>
	</g>
	<path style="fill:#EB6209;" d="M82.1,82.1c11.8-2.6,25.1-3.9,39.1-3.9s27.1,1.4,39.1,3.9c2.6,11.8,3.9,25.1,3.9,39.1
		s-1.4,27.1-3.9,39.1c-11.8,2.6-25.1,3.9-39.1,3.9s-27.1-1.4-39.1-3.9c-2.6-11.8-3.9-25.1-3.9-39.1C78.1,107,79.5,93.8,82.1,82.1"/>
	<g>
		<g>
			<defs>
				<path id="SVGID_16_" d="M82.1,160c11.8,2.6,25.1,4.1,39.1,4.1s27.1-1.4,39.1-4.1c2.6-11.8,3.9-25.1,3.9-39.1s-1.4-27.1-3.9-39.1
					L82.1,160z"/>
			</defs>
			<clipPath id="SVGID_3_">
				<use xlink:href="#SVGID_16_"  style="overflow:visible;"/>
			</clipPath>
			
				<linearGradient id="SVGID_4_" gradientUnits="userSpaceOnUse" x1="-485.8247" y1="148.9726" x2="-482.1985" y2="148.9726" gradientTransform="matrix(0 -22.6303 22.6303 0 -3248.2004 -10830.3555)">
				<stop  offset="0" style="stop-color:#AB4A03"/>
				<stop  offset="0.85" style="stop-color:#EB6209"/>
				<stop  offset="1" style="stop-color:#EB6209"/>
			</linearGradient>
			<rect x="82.1" y="82.1" style="clip-path:url(#SVGID_3_);fill:url(#SVGID_4_);" width="82.1" height="82.1"/>
		</g>
	</g>
	<path style="fill:#9D9D9C;" d="M4.1,160c11.8-2.6,25.1-3.9,39.1-3.9s27.1,1.4,39.1,3.9c2.6,11.8,3.9,25.1,3.9,39.1
		s-1.4,27.1-3.9,39.1c-11.8,2.6-25.1,3.9-39.1,3.9s-27.1-1.4-39.1-3.9c-2.6-11.8-3.9-25.1-3.9-39.1C0.2,184.9,1.6,171.8,4.1,160"/>
	<g>
		<g>
			<defs>
				<path id="SVGID_19_" d="M4.1,237.9c11.8,2.6,25.1,4.1,39.1,4.1s27.1-1.4,39.1-4.1c2.6-11.8,3.9-25.1,3.9-39.1
					s-1.4-27.1-3.9-39.1L4.1,237.9z"/>
			</defs>
			<clipPath id="SVGID_5_">
				<use xlink:href="#SVGID_19_"  style="overflow:visible;"/>
			</clipPath>
			
				<linearGradient id="SVGID_6_" gradientUnits="userSpaceOnUse" x1="-488.3232" y1="146.4808" x2="-484.6971" y2="146.4808" gradientTransform="matrix(0 -22.6303 22.6303 0 -3269.7485 -10808.8311)">
				<stop  offset="0" style="stop-color:#4A4A49"/>
				<stop  offset="0.5055" style="stop-color:#7E7E7D"/>
				<stop  offset="0.85" style="stop-color:#9D9D9C"/>
				<stop  offset="1" style="stop-color:#9D9D9C"/>
			</linearGradient>
			<rect x="4.1" y="160" style="clip-path:url(#SVGID_5_);fill:url(#SVGID_6_);" width="82.1" height="82.1"/>
		</g>
	</g>
	<path style="fill:#F18700;" d="M82.1,3.9C84.6,15.7,86,29.1,86,43s-1.4,27.1-3.9,39.1C70.3,84.6,56.9,86,43,86s-27.1-1.4-39.1-3.9
		C1.4,70.3,0,56.9,0,43S1.4,15.9,3.9,3.9C15.7,1.4,29.1,0,43,0C57.1,0,70.3,1.4,82.1,3.9"/>
	<g>
		<g>
			<defs>
				<path id="SVGID_22_" d="M0.2,43c0,13.9,1.4,27.1,3.9,39.1c11.8,2.6,25.1,4.1,39.1,4.1s27.1-1.4,39.1-4.1L4.3,4.1
					C1.6,15.9,0.2,29.1,0.2,43"/>
			</defs>
			<clipPath id="SVGID_7_">
				<use xlink:href="#SVGID_22_"  style="overflow:visible;"/>
			</clipPath>
			
				<linearGradient id="SVGID_8_" gradientUnits="userSpaceOnUse" x1="-483.3285" y1="146.3564" x2="-479.7023" y2="146.3564" gradientTransform="matrix(0 -22.6303 22.6303 0 -3270.8586 -10851.8721)">
				<stop  offset="0" style="stop-color:#AF6500"/>
				<stop  offset="0.3353" style="stop-color:#CA7300"/>
				<stop  offset="0.85" style="stop-color:#F18700"/>
				<stop  offset="1" style="stop-color:#F18700"/>
			</linearGradient>
			<rect x="0.2" y="3.9" style="clip-path:url(#SVGID_7_);fill:url(#SVGID_8_);" width="82.1" height="82.1"/>
		</g>
	</g>
</g>
</svg>
