<svg xmlns="http://www.w3.org/2000/svg" viewBox="0 0 241 176.9" fill="#0076a5"><path d="M0 128h5.8v10.5h10.7V128h5.8v26.5h-5.8v-10.7H5.8v10.7H0zm37.1.1h5.3l11.3 26.3h-6l-2.4-5.9H34.2l-2.4 5.9h-5.9l11.2-26.3zm6.1 15.3l-3.5-8.5-3.5 8.5h7zM57.4 128h12c3.3 0 5.9.9 7.7 2.7 1.5 1.5 2.3 3.5 2.3 6v.1c0 4.3-2.3 6.9-5.6 8.2l6.4 9.4h-6.8l-5.6-8.5h-.1-4.5v8.5h-5.8V128zM69 140.9c2.8 0 4.4-1.5 4.4-3.7v-.1c0-2.5-1.7-3.8-4.5-3.8h-5.7v7.6H69zm47.8 3.1l-10.1-15.9h6.7l6.3 10.6 6.3-10.6h6.6l-10.1 15.8v10.5h-5.7zm82.6-15.8h5.8v20.9h13v5.3h-18.8zM83.7 128h12c3.3 0 5.9.9 7.7 2.7 1.5 1.5 2.3 3.5 2.3 6v.1c0 4.3-2.3 6.9-5.6 8.2l6.4 9.4h-6.8l-5.6-8.5H94h-4.5v8.5h-5.8V128zm11.6 12.9c2.8 0 4.4-1.5 4.4-3.7v-.1c0-2.5-1.7-3.8-4.5-3.8h-5.7v7.6h5.8zm46.6-12.7h5.8v10.5h10.7v-10.5h5.8v26.5h-5.8V144h-10.7v10.7h-5.8zm80.4 0h5.7v20.9h13v5.3h-18.7zm-43.1.1h5.3l11.2 26.3h-6l-2.4-5.9h-11.1l-2.4 5.9h-5.9l11.3-26.3zm6 15.3l-3.5-8.5-3.5 8.5h7zm-61 24.9h-3v-.6c.4 0 .8-.1 1.2-.1.4-.1.7-.1.9-.3.3-.1.5-.3.7-.6s.3-.6.4-1.1h.8v10.8h-1.1v-8.1h.1zm6.7 2.1c-.3-.2-.5-.3-.7-.5-.2-.1-.4-.3-.5-.5l-.3-.6c-.1-.2-.1-.5-.1-.8a1.69 1.69 0 0 1 .3-1c.2-.3.4-.6.7-.8s.7-.4 1.1-.6c.4-.1.8-.2 1.3-.2.4 0 .9.1 1.3.2s.8.3 1.1.5.6.5.8.8.3.7.3 1.2c0 .6-.1 1-.4 1.4-.2.4-.7.7-1.2 1 .6.2 1.2.6 1.5 1 .4.5.6 1 .6 1.6 0 .5-.1 1-.3 1.4s-.5.7-.8 1c-.4.3-.8.5-1.3.6s-1.1.2-1.7.2c-.4 0-.9-.1-1.3-.2s-.8-.3-1.2-.6c-.3-.3-.6-.6-.9-1-.2-.4-.3-.9-.3-1.4 0-.6.2-1.2.5-1.7.4-.3.9-.7 1.5-1zm1.9.6c-.4 0-.8 0-1.1.1s-.6.2-.9.4-.5.4-.6.7-.2.6-.2 1c0 .3.1.6.2.9s.3.5.6.7c.2.2.6.4.9.5.4.1.8.2 1.2.2s.7-.1 1.1-.2c.3-.1.6-.3.9-.5.2-.2.4-.5.6-.8.1-.3.2-.6.2-1s-.1-.7-.2-1-.3-.5-.6-.7-.6-.3-.9-.4c-.4.1-.8.1-1.2.1zm-.1-4.7c-.3 0-.6 0-.9.1s-.5.2-.8.4c-.2.2-.4.4-.5.6s-.2.5-.2.8.1.6.2.9c.1.2.3.4.6.6.2.2.5.3.8.3.3.1.6.1.9.1s.6 0 .9-.1.5-.2.7-.4.4-.4.5-.7.2-.6.2-1c0-.5-.2-1-.6-1.3-.3-.1-.9-.3-1.8-.3zm7.9 7.6c.1.6.4 1 .7 1.3.4.3.9.4 1.5.4.7 0 1.3-.2 1.7-.5s.7-.7 1-1.2c.2-.5.4-1 .5-1.5l.2-1.6h0c-.4.5-.8 1-1.3 1.3s-1.1.4-1.8.4c-.6 0-1.1-.1-1.5-.2-.4-.2-.8-.4-1.1-.7s-.6-.7-.7-1.1c-.2-.4-.3-.9-.3-1.4s.1-1 .2-1.4c.2-.4.4-.8.7-1.1s.7-.6 1.2-.7c.5-.2 1-.3 1.7-.3.8 0 1.4.1 2 .4.5.3.9.7 1.3 1.2.3.5.5 1.1.7 1.7l.2 2.1c0 .9-.1 1.7-.3 2.4s-.5 1.3-.9 1.7-.8.8-1.4 1.1c-.5.2-1.1.4-1.7.4-.5 0-.9-.1-1.3-.2s-.7-.3-1-.5-.5-.5-.7-.8-.3-.7-.3-1.1l.7-.1h0zm2.5-7.6c-.9 0-1.6.3-2 .8-.5.5-.7 1.2-.7 2s.2 1.5.7 1.9c.5.5 1.1.7 2 .7.4 0 .8-.1 1.1-.2s.6-.3.8-.6c.2-.2.4-.5.5-.8s.2-.7.2-1c0-.8-.2-1.4-.7-1.9a2.32 2.32 0 0 0-1.9-.9zm9.2 2h-3v-.6c.4 0 .8-.1 1.2-.1.4-.1.7-.1.9-.3.3-.1.5-.3.7-.6s.3-.6.4-1.1h.8v10.8h-1.1v-8.1h.1zm-65 7.9v-11h8v.9h-6.8v4h6.2v.9h-6.2v4.4h7v.9l-8.2-.1h0zm11-3.3c0 .5.2.9.4 1.2s.4.6.7.8.7.4 1.1.5.8.1 1.3.1 1-.1 1.4-.2.7-.3.9-.5a3.04 3.04 0 0 0 .5-.7c.1-.3.2-.6.2-.9 0-.4-.1-.8-.3-1-.2-.3-.5-.5-.8-.6-.3-.2-.7-.3-1.2-.4l-1.3-.3-1.3-.3c-.4-.1-.8-.3-1.2-.5a2.36 2.36 0 0 1-.8-.9c-.2-.4-.3-.8-.3-1.3 0-.4.1-.7.3-1.1s.4-.7.8-.9c.3-.3.8-.5 1.3-.7s1.1-.2 1.8-.2 1.3.1 1.8.3.9.4 1.3.7c.3.3.6.6.7 1 .2.4.2.8.2 1.3h-1.1c0-.4-.1-.8-.2-1.1-.2-.3-.4-.6-.7-.7-.3-.2-.6-.3-.9-.4-.4-.1-.7-.1-1.1-.1-.6 0-1.1.1-1.5.2s-.7.3-.9.6c-.2.2-.4.5-.5.8s-.1.6 0 .9a1.62 1.62 0 0 0 .5.9c.2.2.5.4.9.5l1.2.3 1.3.3 1.3.3c.4.1.8.3 1.1.5a2.36 2.36 0 0 1 .8.9c.2.4.3.8.3 1.3a3.04 3.04 0 0 1-1.1 2.4c-.8.6-1.8.8-3.2.8-.6 0-1.2-.1-1.7-.2s-1-.4-1.4-.7-.7-.7-.9-1.1-.3-1-.3-1.6h.6v-.2zm10-7.7h8.7v.9h-3.8v10.1h-1.1v-10.1h-3.8v-.9zm9.76 9.804l1.131-1.132 1.132 1.131-1.131 1.132z"/><path d="M153.4 80.5v-8.1l2-.5c1.5-.5 1.9-1.1 1.9-2.6 0-.6.2-1 .7-1.5s.7-1.4.8-2.1l-.2-5.6c0-.3-.6-.8-.9-.8-1.2.1-2.5.2-3.6.5l-17.2 5.6c-.3.1-.8 0-1-.2-.4-.3-.7-.8-1-1.2-3.1 2.6-6.5 4.3-10.4 5-3.5.6-6.8.4-10.2-.4l-16.2-3.7c-1.6-.3-3.3.1-5 .2-.2 0-.4.3-.5.5-2 4.4-5.6 7.3-9.3 10.2l-12.2 9.3c-5.2 3.8-8.5 9.1-10.9 15-1.7 4.1-3 8.4-4.6 12.6-.8 2.1-2 3.9-3.7 5.3-.3.2-.6.3-1 .5l-.8-7.2c-.1-.7.2-1.1.8-1.4 1.6-.7 2.5-3.1 2.1-4.9 3.8-2.4 4.9-6.4 5.9-10.4.7-2.8 1-5.7 1.4-8.7 2.1-.6 4-1.8 5.6-3.6 2.9-3.4 4.2-7.2 3.3-11.6v-.5c-.1-3.2-.4-6.4-.2-9.6.2-2.8 1-5.5 1.5-8.3-1.6-1.7-3.1-.1-4.6.7-2.6 1.5-4.2 3.9-5.8 6.3-3.5 5.8-5.3 12.3-6.7 18.9l-1.5 6.4c0 .2-.2.3-.4.6-.8-1.7-1.6-3.4-2.3-5.1-.8-1.6-1.5-3.3-2.3-4.9-.4-.8-.3-1.4.2-2.2 1-1.6 1.8-3.4 2.7-5.1 1.8-3.4 4-6.6 6.5-9.6 3.3-3.9 7.4-6.9 11.9-9.3 1.4-.8 3-1.1 4.5-1.8 1.1-.5 2.3-1.1 3.3-1.8 3.6-2.6 7.5-4.3 11.9-4.8 2.8-.3 5.7-.4 8.5-.5.9 0 1.8 0 2.6.3 1 .4 1.2-.2 1.4-.9.2-.8.4-1.5.5-2.3.1-.7.3-1 1.2-.8 1.5.3 1.6.1 2-1.4.2-.7.4-1.3.7-2.2 2.7 1.4 5.7 2.2 8.9 1.5-.5-.9-.8-1.8-1.2-2.6-.9-1.5-1.8-2.9-1.5-4.8.1-.3-.5-.7-.7-1-.2-.4-.5-.9-.3-1.2 2.6-5.8 6.7-10.2 12.8-12.3 3.3-1.1 6.6-2 9.9-3.1 1.3-.4 1.5-.8 1.3-2.2-.7-4.4 1.9-7.1 5.7-7.1 2 0 3.5 1.2 4.3 3.1.5 1.2.7 2.6 2.3 3.1-.2.1-.3.1-.5.2-1.8.4-2.1 1.2-1.5 2.9.2.6.4.9-.4 1.3-.4.2-.6 1-.7 1.6-.4 1.3-.7 1.5-2 .9-.6-.3-1.1-.6-1.4-.7-.6.8-1.1 1.5-1.7 2.1-.8.7-1.1 1.4-.8 2.6.3 1.3-.1 2.8.3 4 .6 1.7 1.7 3.3 2.4 4.7 3.6-1 6.9-2.3 10.4-2.7 3.7-.5 7.5-.3 11.3-.1 5 .3 9.7 2 14.2 4.1.6.3 1.1.3 1.8.1.6-.2 1.3-.1 2-.1 1.7-.1 3.3-.2 5-.2h.9c-.4.3-.6.5-.8.6-.8.7-1.6 1.4-2.5 2-.6.4-.8.8-.7 1.5l1.3 9.1c.5 3.4 1.3 6.7 1.8 10.1.2 1.4.3 3-1.5 3.7-.6.2-1 .8-1.5 1.2-1.2.9-3.7.5-4.6-.6-.1-.2-.2-.5-.2-.6.4-1.8-.7-3-1.6-4.2-.6-.8-1.2-1.6-1.9-2.4-.4-.4-.8-.8-1.3-1-3.1-1.1-5.1-3.1-5.3-7-.9.2-1.8.3-2.7.5-3.7 1-7 2.8-9.9 5.3-.7.6-1 1.8-1.3 2.8-.7 2.4-.8 4.7 0 7.1.2.7.6.8 1.2.8l9.5-.6c-.3 4.3-.4 8.6-.8 12.8-.3 3.3-1.8 6.1-4.1 8.5-1.3 1.4-2.8 2.6-4.2 3.9-.4-.1-.7-.1-1.1.1zm-24.6-56.2c-2.1 1.4-2.9 4.3-5.9 4.6.4.8.7 1.5 1.1 2.3.7-.5 1.3-1 1.9-1.5 1.9-1.5 1.9-1.4 3.8 0 .4.3.9.7 1.3.6 1.3-.4 2.5-1.1 3.9-1.6-2.1-1.7-4.9-1.9-6.1-4.4z" fill-rule="evenodd"/></svg>