<?xml version="1.0"?>
<svg xmlns="http://www.w3.org/2000/svg" xmlns:xlink="http://www.w3.org/1999/xlink" xmlns:svgjs="http://svgjs.com/svgjs" version="1.1" width="512" height="512" x="0" y="0" viewBox="0 0 512 512" style="enable-background:new 0 0 512 512" xml:space="preserve" class=""><g>
<circle xmlns="http://www.w3.org/2000/svg" style="" cx="256" cy="256" r="256" fill="#f1f1f1" data-original="#006ef5" class=""/>
<path xmlns="http://www.w3.org/2000/svg" style="" d="M512,256c0-8.38-0.416-16.661-1.203-24.835l-33.461-33.461H166.66l-21.389-21.316  c-9.167-9.982-22.32-16.243-36.941-16.243l0,0c-27.703,0-50.161,22.458-50.161,50.16v117.56H46.327v31.458L190.544,503.54  c20.895,5.511,42.83,8.46,65.456,8.46C397.385,512,512,397.385,512,256z" fill="#f1f1f1" data-original="#004eb1" class=""/>
<rect xmlns="http://www.w3.org/2000/svg" x="145.84" y="197.71" style="" width="331.5" height="41.29" fill="#ffffff" data-original="#ffffff" class=""/>
<rect xmlns="http://www.w3.org/2000/svg" x="311.59" y="197.71" style="" width="165.74" height="41.29" fill="#fff5cb" data-original="#fff5cb" class=""/>
<path xmlns="http://www.w3.org/2000/svg" style="" d="M158.49,333.99H58.169V210.306c0-27.703,22.458-50.16,50.16-50.16l0,0  c27.703,0,50.16,22.458,50.16,50.16V333.99H158.49z" fill="#83e46f" data-original="#83e46f" class=""/>
<path xmlns="http://www.w3.org/2000/svg" style="" d="M158.491,210.307v123.68h-50.16v-173.84c13.85,0,26.39,5.61,35.47,14.69  C152.871,183.917,158.491,196.457,158.491,210.307z" fill="#00c800" data-original="#00c800" class=""/>
<circle xmlns="http://www.w3.org/2000/svg" style="" cx="108.33" cy="209.87" r="22.245" fill="#ffffff" data-original="#ffffff" class=""/>
<path xmlns="http://www.w3.org/2000/svg" style="" d="M130.571,209.867c0,12.29-9.96,22.25-22.24,22.25v-44.49  C120.611,187.627,130.571,197.587,130.571,209.867z" fill="#fff5cb" data-original="#fff5cb" class=""/>
<g xmlns="http://www.w3.org/2000/svg">
	<polygon style="" points="258.663,197.701 231.963,238.992 188.523,238.992 215.233,197.701  " fill="#ff633e" data-original="#ff633e"/>
	<polygon style="" points="351.673,197.701 324.963,238.992 281.533,238.992 308.243,197.701  " fill="#ff633e" data-original="#ff633e"/>
</g>
<g xmlns="http://www.w3.org/2000/svg">
	<polygon style="" points="351.671,197.697 351.661,197.709 324.961,238.988 311.591,238.988 311.591,197.709    308.231,197.709 308.241,197.697  " fill="#ee2600" data-original="#ee2600"/>
	<polygon style="" points="444.683,197.701 417.973,238.992 374.533,238.992 401.243,197.701  " fill="#ee2600" data-original="#ee2600"/>
</g>
<rect xmlns="http://www.w3.org/2000/svg" x="46.33" y="327.87" style="" width="124.01" height="31.458" fill="#ffffff" data-original="#ffffff" class=""/>
<rect xmlns="http://www.w3.org/2000/svg" x="108.33" y="327.87" style="" width="62" height="31.46" fill="#fff5cb" data-original="#fff5cb" class=""/>
<polygon xmlns="http://www.w3.org/2000/svg" style="" points="311.591,197.697 311.591,197.707 308.231,197.707 308.241,197.697 " fill="#ffffff" data-original="#ffffff" class=""/>
<g xmlns="http://www.w3.org/2000/svg">
</g>
<g xmlns="http://www.w3.org/2000/svg">
</g>
<g xmlns="http://www.w3.org/2000/svg">
</g>
<g xmlns="http://www.w3.org/2000/svg">
</g>
<g xmlns="http://www.w3.org/2000/svg">
</g>
<g xmlns="http://www.w3.org/2000/svg">
</g>
<g xmlns="http://www.w3.org/2000/svg">
</g>
<g xmlns="http://www.w3.org/2000/svg">
</g>
<g xmlns="http://www.w3.org/2000/svg">
</g>
<g xmlns="http://www.w3.org/2000/svg">
</g>
<g xmlns="http://www.w3.org/2000/svg">
</g>
<g xmlns="http://www.w3.org/2000/svg">
</g>
<g xmlns="http://www.w3.org/2000/svg">
</g>
<g xmlns="http://www.w3.org/2000/svg">
</g>
<g xmlns="http://www.w3.org/2000/svg">
</g>
</g></svg>
