<?xml version="1.0" encoding="utf-8"?>
<svg version="1.1" id="Layer_1" xmlns="http://www.w3.org/2000/svg" xmlns:xlink="http://www.w3.org/1999/xlink" x="0px" y="0px"
	width="100px" height="100px" viewBox="0 0 66.7 66.7" style="enable-background:new 0 0 66.7 66.7;" xml:space="preserve">
<g>
	<circle style="fill:#E8E8E8;" cx="33.3" cy="33.3" r="33.3"/>
	<circle style="fill:#FFFFFF;" cx="33.3" cy="33.3" r="32.7"/>
	<path d="M15.9,21.9c-3.5,0.5-6.7,4.3-7.3,8.7c-0.4,3.2,0.7,5.3,2.7,5.4c0.5,0,0.9,0,0.9-0.1s-0.7-0.4-0.9-0.5
		c-1.7-0.5-2.3-3.2-1.4-6.7c1-4,4.1-6.9,6.9-6.3c2.1,0.4,2.9,2.5,2.2,6.1c-0.2,1-0.5,1.9-1.4,4.8c-1.1,3.4-1.1,4.6-0.3,7.1
		c0.3,0.7,0.3,0.7,0.6,0.2c2.3-4.3,4.6-8.2,6.2-10.2c1.9-2.3,5.3-5.5,6-5.5c0.1,0,0.7-0.5,0.7-0.6c0.1-0.2-0.9,0.1-1.5,0.4
		C25.7,26.5,20.7,33,18,39.3c-0.3,0.9-0.4,0.8-0.4-0.1c0.1-0.9,0.2-1.5,1.1-4.2l0.4-1.3l0.5-1.6c0.7-2.1,0.9-3.3,0.9-4.7
		C20.6,23.7,18.7,21.5,15.9,21.9 M52.1,24.8c-1.5,0.4-3.1,2.7-6,8.1c-0.7,1.3-1.2,2.3-1.5,2.7l-0.3,0.5c-0.7,1.1-2.4,2.8-3.5,3.4
		c-1,0.6-1.9,0.6-2.1,0c-0.5-1.4,2.3-5.5,4.1-6.2c0.3-0.1,1-0.3,1.2-0.2c0.1,0,0.9-0.3,0.9-0.4c0-0.4-2.3-0.2-3.4,0.3
		c-1.7,0.7-3.7,2.8-3.7,3.9c0,0.5-2.9,3.1-3.5,3.1c-0.5,0-0.4-0.4,1-2.7c1.2-2,1.4-2.6,1.1-3.5c-0.6-1.5-1.8-1.2-4,0.9l-0.8,0.8
		l0.5-0.9l0.6-1.2c0.1-0.3,0.1-0.3-0.3-0.3c-1,0.3-1.5,0.7-2.5,2.3c-1.3,2.1-3.7,4.1-5.3,4.5c-1.4,0.3-1.9-0.1-1.3-1.4
		c0.4-1.1,0.5-1.2,0.8-1.3c0.7-0.2,2.1-0.9,2.9-1.3c2.3-1.5,2.1-3.4-0.2-2.9c-3.4,0.7-6.1,4.7-4.5,6.7c1,1.3,3.1,0.9,5.5-1.1
		c0.3-0.2,0.5-0.4,0.5-0.3l-0.5,0.9c-0.3,0.5-0.5,0.9-0.5,0.9c0.3,0,0.6,0.1,0.9,0.1h0.9l0.6-1.1c1.1-2.1,1.3-2.5,3.1-4.1
		c1.5-1.4,2.1-1.8,2.5-1.5c0.3,0.2,0.3,0.1-0.9,2.2l-1,1.7c-1.1,1.9-0.1,3.8,1.6,3c0.5-0.3,0.9-0.6,1.9-1.5l0.7-0.7v0.5
		c0.1,1.4,0.8,2.1,2.1,2.1c0.9-0.1,1.8-0.5,3.3-1.9l0.3-0.3l-0.5,0.9c-0.3,0.5-0.5,0.9-0.5,0.9H43h1l0.3-0.6
		c0.6-1.1,1.1-1.9,2.1-3.1c2.1-2.7,3.4-3.7,3.7-3c0.1,0.2-0.1,0.5-1.1,2.2c-1.5,2.3-1.7,3.4-0.9,4.3c0.8,0.8,1.7,0.5,3.7-1.4
		l0.5-0.5v0.4c-0.1,1.1,0.6,2,1.3,1.9c0.7-0.1,2.2-1.3,3.1-2.5c0.4-0.5,0.4-0.5,0.2-0.6c-0.3-0.1-0.2-0.1-0.6,0.4
		c-1,1.3-2.3,2.3-2.7,2.1c-0.3-0.1-0.1-0.5,2.2-5.1c0.9-1.7,0.9-1.7,0.3-1.5c-1,0.2-1.5,0.6-2.9,3l-0.6,0.9l-1,1
		c-1.3,1.3-2.1,1.9-2.5,1.8s-0.3-0.3,1.1-2.5c0.5-0.7,0.9-1.5,0.9-1.7c0.5-1.1,0.3-2.3-0.5-2.8c-0.9-0.5-1.7,0.1-4.1,2.9
		c-0.3,0.3-0.5,0.6-0.6,0.6c0,0,0.2-0.4,0.4-0.9l1.3-2.5c2.6-5.2,3.6-6.7,4.9-7.7l0.5-0.5l0.2-0.2h-0.3
		C52.5,24.7,52.2,24.7,52.1,24.8 M57.3,30.1c-0.4,0.1-0.7,0.4-1.1,1.2C55.7,32,55.7,32,56.3,32c0.4,0,0.7-0.1,0.9-0.4
		c0.3-0.4,0.9-1.5,0.9-1.5C58.1,30.1,57.4,30,57.3,30.1 M27.7,33.3c0.1,0.1,0.1,0.3,0,0.6c-0.5,1.1-1.5,1.9-3.3,2.7L24,36.7l0.1-0.1
		C24.7,34.9,27.1,32.7,27.7,33.3 M51,41.7c-0.6,0.2-0.8,1.1-0.3,1.4c0.1,0.1,0.1,0.1-0.1,0.2c-0.5,0.5-0.3,1.3,0.4,1.5
		c0.9,0.3,1.7-0.7,1-1.5l-0.2-0.2l0.1-0.1C52.7,42.5,51.9,41.4,51,41.7 M55.6,41.7c-0.5,0.2-0.8,0.9-0.4,1.3l0.1,0.2l-0.1,0.2
		c-0.4,0.5-0.1,1.3,0.6,1.5c0.9,0.1,1.5-0.8,0.9-1.5l-0.2-0.2l0.1-0.1C57.2,42.4,56.5,41.4,55.6,41.7 M48.6,41.9
		c-0.3,0.3-0.3,0.3-0.3,0.5c0,0.3,0,0.3,0.3,0l0.3-0.3v1.3v1.3h0.2h0.3v-1.5v-1.5h-0.3C48.9,41.7,48.9,41.7,48.6,41.9 M52.7,42.2
		v0.5h0.2h0.2v-0.3v-0.3h0.4c0.3,0,0.4,0,0.4,0.1l-0.5,1.3L53,44.9h0.2h0.3c0.1-0.1,1-2.5,1-2.7v-0.3h-0.9h-0.9v0.3 M51.6,42.2
		c0.2,0.2,0.1,0.7-0.1,0.7c-0.4,0.1-0.7-0.2-0.5-0.6C51,42.1,51.4,42,51.6,42.2 M56.3,42.2c0.1,0.1,0.2,0.5,0.1,0.6
		c-0.1,0.2-0.5,0.2-0.7,0C55.3,42.4,55.9,41.9,56.3,42.2 M51.5,43.5c0.3,0.1,0.3,0.5,0.1,0.8c-0.2,0.2-0.5,0.2-0.7,0
		C50.6,43.9,51.1,43.3,51.5,43.5 M56.3,43.6c0.3,0.3,0.1,0.8-0.3,0.8c-0.3,0-0.5-0.2-0.5-0.5C55.5,43.5,55.9,43.3,56.3,43.6"/>
</g>
</svg>
