<?xml version="1.0" encoding="utf-8"?>
<svg version="1.1" id="Layer_1" xmlns="http://www.w3.org/2000/svg" xmlns:xlink="http://www.w3.org/1999/xlink" x="0px" y="0px"
	 viewBox="0 0 400 124.76" style="enable-background:new 0 0 400 124.76;" xml:space="preserve">
<g id="Page-1">
	<g id="Sellercloud.com-_x2013_-Integrations-_x2F_-Zulily-Copy" transform="translate(-1141.000000, -263.000000)">
		<g id="Group-3" transform="translate(1141.000000, 263.000000)">
			<g id="Clip-2">
			</g>
			<defs>
				<filter id="Adobe_OpacityMaskFilter" filterUnits="userSpaceOnUse" x="0" y="0" width="400" height="124.76">
					<feColorMatrix  type="matrix" values="1 0 0 0 0  0 1 0 0 0  0 0 1 0 0  0 0 0 1 0"/>
				</filter>
			</defs>
			<mask maskUnits="userSpaceOnUse" x="0" y="0" width="400" height="124.76" id="mask-2_2_">
				<g style="filter:url(#Adobe_OpacityMaskFilter);">
					<polygon id="path-1_2_" style="fill-rule:evenodd;clip-rule:evenodd;fill:#FFFFFF;" points="0,0 399.99,0 399.99,124.76 
						0,124.76 					"/>
				</g>
			</mask>
			<path id="Fill-1" style="mask:url(#mask-2_2_);fill-rule:evenodd;clip-rule:evenodd;fill:#384A9C;" d="M359.06,34.28l-0.09,0.07
				l0.73-0.5l13.71,16.66c-3.84,3.86-8.41,8.18-14.12,8.18c-6.19-0.28-11.15-5.23-11.43-11.43
				C347.86,41.39,354.81,37.23,359.06,34.28L359.06,34.28z M362.37,7.34c3.89-0.17,7.17,2.84,7.35,6.72c0,4.5-4.21,7.02-7.29,9.44
				l-0.07,0.05l-0.98,0.66l-2.03-2.63c-2.08-2.05-3.38-4.77-3.68-7.68C355.9,10.32,358.79,7.5,362.37,7.34L362.37,7.34z
				 M359.54,65.52c7.26-0.37,14-3.89,18.46-9.64l6.66,8.29h9.48l-11.04-13.71l7.52-8.82l-4.91-5.07l-7.22,8.41l-12.82-15.52
				c5.14-3.75,11.2-8.5,11.2-15.36c0-8.09-6.7-12.82-14.22-12.82c-8.09,0-14.22,4.98-14.22,13.48c0,5.23,3.34,9.8,6.86,13.48
				l-3.84,2.79c-5.9,4.25-10.79,8.5-10.79,16.34v0.46v0.02C341,57.94,349.45,65.85,359.54,65.52L359.54,65.52z M283.6,34.65h29.32
				v29.57h7.68V2.63h-7.68v24.82H283.6V2.63h-7.68v61.59h7.68V34.65z M249.45,64.22h7.68V9.64h14.63V2.63h-36.93v7.02h14.63V64.22z
				 M214.14,16.78l0.02,0.07l10.92,24.84H203.2L214.14,16.78z M193,64.22l7.02-15.45h28.29l7.08,15.45h8.18L214.17,0l-29.41,64.22
				H193z M157.05,57.34v-21.3h4.69c6.86,0,15.75,1.71,15.75,10.44s-7.43,10.86-14.54,10.86H157.05z M157.05,9.48h2.13
				c7.13,0,13.07,1.28,13.07,10.12s-5.96,10.31-13.23,10.31h-1.97V9.48z M185.12,46.99c0.07-7.44-5.04-13.94-12.3-15.61v-0.16
				c4.16-2.4,6.7-6.87,6.63-11.68c0-13.9-10.95-16.91-22.56-16.91h-7.52v61.59h14.33C174.58,64.22,185.12,59.33,185.12,46.99
				L185.12,46.99z M88.13,57.14V9.64h2.77c15.54,0,29.25,5.85,29.25,23.72s-13.58,23.77-29.25,23.77H88.13z M127.73,33.09
				c0-20.5-15.68-30.46-34.56-30.46H80.45v61.59h12.48C112.37,64.22,127.73,54.1,127.73,33.09L127.73,33.09z M73.25,57.2H47.83
				V33.92h24.68v-7.04H47.83V9.64h25.41V2.63H40.15v61.59h33.09V57.2z M7.56,57.34V36.02h4.73c6.88,0,15.7,1.74,15.7,10.47
				s-7.43,10.86-14.54,10.86H7.56z M7.56,9.48h2.13c7.2,0,13.07,1.28,13.07,10.12S16.8,29.92,9.53,29.92H7.56V9.48z M35.7,46.99
				c0.07-7.46-5.07-13.95-12.34-15.61v-0.16c4.15-2.41,6.68-6.88,6.6-11.68c0-13.9-10.95-16.91-22.56-16.91H0v61.59h14.28
				C25.16,64.22,35.7,59.33,35.7,46.99L35.7,46.99z M265.73,101.63l-22.1-24.11h-25.14v46.53h25.05v-23.68l22.19,23.68h25.05V77.52
				h-25.05V101.63z M393.48,77.27h-1.17v-1.74h1.81c0.73,0,1.65,0.11,1.65,0.82C395.77,77.43,394.33,77.27,393.48,77.27
				L393.48,77.27z M396.75,76.31c0-1.46-1.21-1.81-2.42-1.81h-2.95v6.86h0.96v-3.13h1.14l2.03,3.13h1.14v-0.07l-2.06-3.13
				C395.81,78.14,396.75,77.77,396.75,76.31L396.75,76.31z M393.62,83.24c-2.92-0.03-5.26-2.41-5.23-5.33
				c0.03-2.92,2.41-5.26,5.33-5.23c2.92,0.03,5.26,2.41,5.23,5.33C398.92,80.92,396.53,83.26,393.62,83.24L393.62,83.24z
				 M393.71,71.72c-3.45,0.03-6.22,2.84-6.19,6.28c0,0.02,0.07,0.07,0.07,0.07c0.03,3.41,2.81,6.15,6.22,6.12
				c3.44-0.03,6.22-2.84,6.19-6.28C399.97,74.46,397.16,71.69,393.71,71.72L393.71,71.72z M335.29,110.07h-2.29V92.03h2.29
				c13.87,0,22.35,2.79,22.35,9.32C357.65,107.48,347.93,110.07,335.29,110.07L335.29,110.07z M333.67,77.5h-38.69l-0.05,46.51
				h48.22c30.62,0,52.56-8.87,52.56-22.58C395.72,84.36,368.8,77.5,333.67,77.5L333.67,77.5z M178.13,110.07
				c-7.43,0-12.62-3.63-12.62-8.94c0-5.01,4.82-9.14,12.62-9.14c7.79,0,12.62,4.21,12.62,9.14
				C190.74,106.43,185.55,110.07,178.13,110.07L178.13,110.07z M178.1,76.74c-20.41,0-37.3,9.21-37.3,24.13s16.75,23.88,37.32,23.88
				s37.3-8.96,37.3-23.88h-0.02C215.4,86.25,198.51,76.74,178.1,76.74L178.1,76.74z M125.17,77.5l-4.57,7.77
				c-0.75,1.43-1.41,2.89-1.99,4.39h-0.66l-6.99-12.16H85.13l21.92,26.47v20.07h22.31v-20.07l21.48-26.47H125.17z M67.47,106.73
				H83.1V94.64H67.47v-4.43h17.12V77.5H47.03v46.51h38.14V111.3H67.47V106.73z M19.36,112.9h-2.1v-7.77h1.83
				c2.99,0,7.75,0,7.75,3.89C26.83,112.9,22.42,112.9,19.36,112.9L19.36,112.9z M17.25,88.74h1.33c2.7,0,6.17,0,6.17,3.2
				s-3.06,3.45-5.78,3.45l-1.71,0.02V88.74z M34.97,100.12v-0.37c4.11-1.23,6.88-5.08,6.72-9.37c0-10.74-10.12-12.89-20.02-12.89H0
				v46.51h25.37c8.96,0,18.74-3.27,18.74-12.84C44.11,105.61,40.54,101.91,34.97,100.12L34.97,100.12z"/>
		</g>
	</g>
</g>
</svg>
