<?xml version="1.0"?>
<svg xmlns="http://www.w3.org/2000/svg" xmlns:xlink="http://www.w3.org/1999/xlink" xmlns:svgjs="http://svgjs.com/svgjs" version="1.1" width="512" height="512" x="0" y="0" viewBox="0 0 512 512" style="enable-background:new 0 0 512 512" xml:space="preserve" class=""><g><path xmlns="http://www.w3.org/2000/svg" d="m512 256c0 141.386719-114.613281 256-256 256s-256-114.613281-256-256 114.613281-256 256-256 256 114.613281 256 256zm0 0" fill="#f1f1f1" data-original="#ffce00" style="" class=""/><path xmlns="http://www.w3.org/2000/svg" d="m190.003906 442 69.949219 69.949219c130.082031-1.972657 236.628906-100.953125 250.5-227.8125l-188.457031-188.457031zm0 0" fill="#f1f1f1" data-original="#ffa300" style="" class=""/><path xmlns="http://www.w3.org/2000/svg" d="m321.996094 442h-131.992188v-346.320312l65.996094-40 65.996094 40zm0 0" fill="#4a7aff" data-original="#4a7aff" style="" class=""/><path xmlns="http://www.w3.org/2000/svg" d="m321.996094 95.679688-65.996094-40v386.320312h65.996094zm0 0" fill="#0053bf" data-original="#0053bf" style=""/><path xmlns="http://www.w3.org/2000/svg" d="m256 55.679688-65.996094 386.320312h131.992188zm0 0" fill="#65b1fc" data-original="#65b1fc" style="" class=""/><path xmlns="http://www.w3.org/2000/svg" d="m256 55.679688v386.320312h65.996094zm0 0" fill="#4a98f7" data-original="#4a98f7" style="" class=""/></g></svg>
