<?xml version="1.0"?>
<svg xmlns="http://www.w3.org/2000/svg" xmlns:xlink="http://www.w3.org/1999/xlink" xmlns:svgjs="http://svgjs.com/svgjs" version="1.1" width="512" height="512" x="0" y="0" viewBox="0 0 512 512" style="enable-background:new 0 0 512 512" xml:space="preserve" class=""><g>
<circle xmlns="http://www.w3.org/2000/svg" style="" cx="256" cy="256" r="256" fill="#f1f1f1" data-original="#366695" class=""/>
<path xmlns="http://www.w3.org/2000/svg" style="" d="M512,256c0-4.346-0.11-8.668-0.324-12.96L372.364,103.727l-92.62,125.447l4.318,4.318  L152.566,411.289l100.676,100.676c0.921,0.01,1.836,0.034,2.758,0.034C397.384,512,512,397.384,512,256z" fill="#f1f1f1" data-original="#273b7a" class=""/>
<rect xmlns="http://www.w3.org/2000/svg" x="152.566" y="126.845" style="" width="206.869" height="284.444" fill="#ff7f4f" data-original="#ff7f4f" class=""/>
<g xmlns="http://www.w3.org/2000/svg">
	<rect x="255.431" y="126.845" style="" width="104.003" height="284.444" fill="#d35933" data-original="#d35933" class=""/>
	<rect x="139.636" y="103.727" style="" width="232.727" height="25.859" fill="#d35933" data-original="#d35933" class=""/>
</g>
<g xmlns="http://www.w3.org/2000/svg">
	<rect x="178.424" y="152.704" style="" width="25.859" height="51.717" fill="#ffffff" data-original="#ffffff" class=""/>
	<rect x="243.071" y="152.704" style="" width="25.859" height="51.717" fill="#ffffff" data-original="#ffffff" class=""/>
</g>
<rect xmlns="http://www.w3.org/2000/svg" x="307.717" y="152.704" style="" width="25.859" height="51.717" fill="#d0d1d3" data-original="#d0d1d3" class=""/>
<g xmlns="http://www.w3.org/2000/svg">
	<rect x="178.424" y="230.279" style="" width="25.859" height="51.717" fill="#ffffff" data-original="#ffffff" class=""/>
	<rect x="243.071" y="230.279" style="" width="25.859" height="51.717" fill="#ffffff" data-original="#ffffff" class=""/>
</g>
<rect xmlns="http://www.w3.org/2000/svg" x="255.431" y="103.727" style="" width="116.938" height="25.859" fill="#b54324" data-original="#b54324"/>
<g xmlns="http://www.w3.org/2000/svg">
	<rect x="255.431" y="152.704" style="" width="13.503" height="51.717" fill="#d0d1d3" data-original="#d0d1d3" class=""/>
	<rect x="255.431" y="230.279" style="" width="13.503" height="51.717" fill="#d0d1d3" data-original="#d0d1d3" class=""/>
	<rect x="307.717" y="230.279" style="" width="25.859" height="51.717" fill="#d0d1d3" data-original="#d0d1d3" class=""/>
</g>
<rect xmlns="http://www.w3.org/2000/svg" x="223.091" y="333.714" style="" width="65.819" height="77.576" fill="#ffffff" data-original="#ffffff" class=""/>
<rect xmlns="http://www.w3.org/2000/svg" x="255.431" y="333.714" style="" width="33.485" height="77.576" fill="#d0d1d3" data-original="#d0d1d3" class=""/>
<path xmlns="http://www.w3.org/2000/svg" style="" d="M213.685,347.817c0-23.369,18.944-42.313,42.313-42.313s42.313,18.944,42.313,42.313H213.685z" fill="#fee187" data-original="#fee187"/>
<path xmlns="http://www.w3.org/2000/svg" style="" d="M256,305.504c-0.193,0-0.383,0.012-0.574,0.016v42.299h42.887  C298.313,324.448,279.369,305.504,256,305.504z" fill="#ffc61b" data-original="#ffc61b"/>
<g xmlns="http://www.w3.org/2000/svg">
</g>
<g xmlns="http://www.w3.org/2000/svg">
</g>
<g xmlns="http://www.w3.org/2000/svg">
</g>
<g xmlns="http://www.w3.org/2000/svg">
</g>
<g xmlns="http://www.w3.org/2000/svg">
</g>
<g xmlns="http://www.w3.org/2000/svg">
</g>
<g xmlns="http://www.w3.org/2000/svg">
</g>
<g xmlns="http://www.w3.org/2000/svg">
</g>
<g xmlns="http://www.w3.org/2000/svg">
</g>
<g xmlns="http://www.w3.org/2000/svg">
</g>
<g xmlns="http://www.w3.org/2000/svg">
</g>
<g xmlns="http://www.w3.org/2000/svg">
</g>
<g xmlns="http://www.w3.org/2000/svg">
</g>
<g xmlns="http://www.w3.org/2000/svg">
</g>
<g xmlns="http://www.w3.org/2000/svg">
</g>
</g></svg>
