<?xml version="1.0" encoding="utf-8"?>
<svg version="1.1" id="Layer_1" xmlns="http://www.w3.org/2000/svg" xmlns:xlink="http://www.w3.org/1999/xlink" x="0px" y="0px"
	width="100px" height="100px" viewBox="0 0 315 315" style="enable-background:new 0 0 315 315;" xml:space="preserve">
<g>
	<g>
		<path style="fill:#E8E8E8;" d="M157.5,0C244.5,0,315,70.5,315,157.5S244.5,315,157.5,315S0,244.5,0,157.5S70.5,0,157.5,0"/>
		<path style="fill:#FFFFFF;" d="M157.5,3.2c85.2,0,154.4,69.1,154.4,154.4s-69.1,154.4-154.4,154.4S3.2,242.7,3.2,157.5
			S72.3,3.2,157.5,3.2"/>
	</g>
	<g>
		<path style="fill:#DB0011;" d="M280,157.5l-61.4-61.2v122.4L280,157.5z"/>
		<path style="fill:#DB0011;" d="M157.4,157.5l61.2-61.2H96.2L157.4,157.5z"/>
		<path style="fill:#DB0011;" d="M35,157.5l61.2,61.2V96.3L35,157.5z"/>
		<path style="fill:#DB0011;" d="M157.4,157.5l-61.2,61.2h122.4L157.4,157.5z"/>
	</g>
</g>
</svg>
