<?xml version="1.0"?>
<svg xmlns="http://www.w3.org/2000/svg" xmlns:xlink="http://www.w3.org/1999/xlink" xmlns:svgjs="http://svgjs.com/svgjs" version="1.1" width="512" height="512" x="0" y="0" viewBox="0 0 512 512" style="enable-background:new 0 0 512 512" xml:space="preserve" class=""><g>
<circle xmlns="http://www.w3.org/2000/svg" style="" cx="256" cy="256" r="256" fill="#f1f1f1" data-original="#83caff" class=""/>
<path xmlns="http://www.w3.org/2000/svg" style="" d="M512,256c0-20.936-2.532-41.279-7.273-60.756l-138.08-138.08  c-5.93-8.036-15.458-13.275-26.152-13.275H171.506c-17.871,0-32.493,14.622-32.493,32.493v315.481h-21.668v58.485l43.279,43.278  C190.101,505.47,222.286,512,256,512C397.385,512,512,397.385,512,256z" fill="#f1f1f1" data-original="#00a6ff" class=""/>
<path xmlns="http://www.w3.org/2000/svg" style="" d="M356.222,351.255v-17.763c17.957,0,32.566-14.609,32.566-32.566V175.192h17.763v125.734  C406.551,328.678,383.974,351.255,356.222,351.255z" fill="#ff3200" data-original="#ff3200" class=""/>
<path xmlns="http://www.w3.org/2000/svg" style="" d="M404.403,114.505h-45.395v35.091h12.103c4.502,0,8.185,3.683,8.185,8.185v15.279  c0,3.63,2.942,6.572,6.572,6.572h24.399c3.671,0,6.674-3.003,6.674-6.674v-45.915C416.942,120.148,411.3,114.505,404.403,114.505z" fill="#e67500" data-original="#e67500"/>
<path xmlns="http://www.w3.org/2000/svg" style="" d="M372.987,397.643H139.012V74.986c0-17.104,13.994-31.097,31.097-31.097h171.78  c17.104,0,31.097,13.994,31.097,31.097v322.657H372.987z" fill="#394ce2" data-original="#394ce2" class=""/>
<path xmlns="http://www.w3.org/2000/svg" style="" d="M372.985,76.385v321.26H256V43.889h84.489C358.367,43.889,372.985,58.507,372.985,76.385z" fill="#283ee1" data-original="#283ee1" class=""/>
<circle xmlns="http://www.w3.org/2000/svg" style="" cx="256" cy="280.11" r="76.4" fill="#ffffff" data-original="#ffffff"/>
<path xmlns="http://www.w3.org/2000/svg" style="" d="M332.391,280.116c0,42.192-34.199,76.391-76.391,76.391V203.714  C298.192,203.714,332.391,237.913,332.391,280.116z" fill="#c8c6cc" data-original="#c8c6cc"/>
<path xmlns="http://www.w3.org/2000/svg" style="" d="M256,230.785c0,0-35.178,36.418-35.178,60.747c0,22.133,14.246,37.903,35.178,37.903  s35.178-15.771,35.178-37.903C291.178,267.204,256,230.785,256,230.785z" fill="#ffaa20" data-original="#ffaa20"/>
<path xmlns="http://www.w3.org/2000/svg" style="" d="M291.181,291.536c0,22.13-14.252,37.898-35.181,37.898v-98.647  C256,230.787,291.181,267.201,291.181,291.536z" fill="#e67500" data-original="#e67500"/>
<rect xmlns="http://www.w3.org/2000/svg" x="117.34" y="391.86" style="" width="277.31" height="58.48" fill="#ff633e" data-original="#ff633e"/>
<rect xmlns="http://www.w3.org/2000/svg" x="256" y="391.86" style="" width="138.66" height="58.48" fill="#ff3200" data-original="#ff3200" class=""/>
<rect xmlns="http://www.w3.org/2000/svg" x="168.43" y="75.44" style="" width="175.14" height="92.15" fill="#00e8f2" data-original="#00e8f2"/>
<rect xmlns="http://www.w3.org/2000/svg" x="256" y="75.44" style="" width="87.57" height="92.15" fill="#00b7be" data-original="#00b7be"/>
<g xmlns="http://www.w3.org/2000/svg">
</g>
<g xmlns="http://www.w3.org/2000/svg">
</g>
<g xmlns="http://www.w3.org/2000/svg">
</g>
<g xmlns="http://www.w3.org/2000/svg">
</g>
<g xmlns="http://www.w3.org/2000/svg">
</g>
<g xmlns="http://www.w3.org/2000/svg">
</g>
<g xmlns="http://www.w3.org/2000/svg">
</g>
<g xmlns="http://www.w3.org/2000/svg">
</g>
<g xmlns="http://www.w3.org/2000/svg">
</g>
<g xmlns="http://www.w3.org/2000/svg">
</g>
<g xmlns="http://www.w3.org/2000/svg">
</g>
<g xmlns="http://www.w3.org/2000/svg">
</g>
<g xmlns="http://www.w3.org/2000/svg">
</g>
<g xmlns="http://www.w3.org/2000/svg">
</g>
<g xmlns="http://www.w3.org/2000/svg">
</g>
</g></svg>
