<svg xmlns="http://www.w3.org/2000/svg" xmlns:xlink="http://www.w3.org/1999/xlink" width="500" height="250"><g fill="#e62632"><use xlink:href="#B"/><use xlink:href="#B"/><use xlink:href="#B"/><use xlink:href="#B"/><path d="M140.53 128.14c4.51 0 11.77-1 14.71-3.53V134h-31.39c1.57-1.76 1.77-2.94 1.77-6.67v-24.89c0-3.73-.2-4.91-1.77-6.67h29.82v9.41c-2.94-2.55-10.2-3.53-14.71-3.53h-3.53v10.21H138a35.1 35.1 0 0 0 9-1v7.46c-2.55-1-6.47-1-9-1h-2.55v11h5.1zm41.2-17.66c7.45 1 13.73 3.73 13.73 11.77 0 9.62-9 12.56-18.83 12.56-6.87 0-12.56-.79-16.88-2.35v-8.64a31.57 31.57 0 0 0 16.88 5.1c4.7 0 9-1.17 9-4.7s-4.12-4.52-12.36-5.69c-7.06-1.18-13.73-4.12-13.73-11.19 0-9.41 9-12.36 17.65-12.36a47.21 47.21 0 0 1 15.9 2.36v9.22c-4.12-3.73-10.4-5.69-16.29-5.69-4.12 0-8 1.37-8 4.31-.02 3.73 5.67 4.32 12.93 5.3zM224.3 95a44.78 44.78 0 0 1 11.38 1.38v9.41c-3.14-3.14-6.67-5.1-11.38-5.1-8.63 0-14.52 6.08-14.52 14.13s5.89 14.12 14.52 14.12a15.11 15.11 0 0 0 11.38-5.1v9.62a47.77 47.77 0 0 1-11.38 1.37c-15.11 0-25.9-7.46-25.9-20 0-12.39 10.99-19.83 25.9-19.83zm38.7 0c-15.5 0-24.33 9-24.33 20 0 10.79 8.83 20 24.33 20s24.33-9 24.33-20-8.88-20-24.33-20zm0 33.94c-7.85 0-12.95-6.47-12.95-14.12s5.1-14.13 12.95-14.13 12.95 6.48 12.95 14.13c-.25 7.83-5.35 14.1-12.95 14.1z"/></g><path d="M260.79 144.42h26.09v.2h0c-2.94 1.37-7.06 5.49-7.06 5.49-3.14 2.94-5.49 4.91-10.4 4.91H244.7a.19.19 0 0 1-.19-.2h0v-.2h0a45.72 45.72 0 0 0 6.86-5.69 13.08 13.08 0 0 1 9.42-4.51m-42.38 0h26.1v.2h0c-2.95 1.37-7.07 5.49-7.07 5.49-3.14 2.94-5.44 4.89-10.39 4.89h-24.72a.2.2 0 0 1-.2-.2h0v-.2h0a45.44 45.44 0 0 0 6.87-5.69 13.06 13.06 0 0 1 9.41-4.51m-42.41.02h26.09v.2h0c-2.94 1.37-7.06 5.49-7.06 5.49-3.14 2.94-5.5 4.91-10.4 4.91H160a.2.2 0 0 1-.2-.2h0v-.2h0a45.44 45.44 0 0 0 6.87-5.69 13.08 13.08 0 0 1 9.42-4.51m-42.63 0h26.1v.2h0c-2.95 1.37-7.07 5.49-7.07 5.49-3.13 2.94-5.29 4.91-10.2 4.91h-24.72a.19.19 0 0 1-.19-.2h0v-.2h0a45.72 45.72 0 0 0 6.86-5.69c1.77-2 5.1-4.51 9.22-4.51m-42.37 0h26.09v.2h0c-2.94 1.37-7.06 5.49-7.06 5.49-3.14 2.94-5.3 4.91-10.2 4.91H75.2a.2.2 0 0 1-.2-.2h0v-.2h0a45.44 45.44 0 0 0 6.87-5.69c1.76-2 5.1-4.51 9.22-4.51m222.67-48.65h13.15c3.33 0 5.88.78 7.84 2.55s2.75 4.12 2.75 7.06a7.81 7.81 0 0 1-1.37 4.71A7.58 7.58 0 0 1 333 113a10.78 10.78 0 0 1 4.71 3.53 10.2 10.2 0 0 1 1.76 6.09 10.67 10.67 0 0 1-3.33 8.24q-3.24 2.94-8.83 2.94h-13.74l.19-38.06zm12.95 15.69c2 0 3.53-.39 4.51-1.37a5.62 5.62 0 0 0 1.57-4.12 5.3 5.3 0 0 0-1.57-4.12c-1-1-2.55-1.37-4.51-1.37h-8.24v11.18l8.24-.2zm.2 18a8.28 8.28 0 0 0 5.69-1.76c1.37-1.18 2-2.75 2-5.1s-.59-3.93-2-5.11-3.34-1.56-5.89-1.56h-8.44v13.53zm21.18 3.98a6.9 6.9 0 0 1-3.33-2.95 7.83 7.83 0 0 1-1.18-4.31 8.11 8.11 0 0 1 3.34-6.87 15.78 15.78 0 0 1 9-2.35H362v-1.38a5 5 0 0 0-2-4.31 7.72 7.72 0 0 0-4.9-1.57 8.67 8.67 0 0 0-4.52 1.17 10 10 0 0 0-2.94 3.34l-3.53-2.16a11.07 11.07 0 0 1 4.32-4.71 12.12 12.12 0 0 1 6.67-1.76 12.68 12.68 0 0 1 8.24 2.74 9.15 9.15 0 0 1 3.14 7.46v18.44h-3.73l-.75-4.32a10.07 10.07 0 0 1-3.72 3.34 11.87 11.87 0 0 1-5.3 1.37 13.81 13.81 0 0 1-4.89-1.17zm9.62-4.12a6.54 6.54 0 0 0 3.14-2.95 8.61 8.61 0 0 0 1.17-4.51v-1.18h-5.88c-2.55 0-4.51.4-5.69 1.38a4.25 4.25 0 0 0-2 3.72 4 4 0 0 0 1.37 3.34 5.69 5.69 0 0 0 3.73 1.18 8 8 0 0 0 4.16-.98zm15.5-23.55h4.51v5.3a8.38 8.38 0 0 1 3.73-4.12 11.08 11.08 0 0 1 5.49-1.57 8.6 8.6 0 0 1 6.67 2.55 9.5 9.5 0 0 1 2.55 6.87V134h-4.51v-18.22a6.48 6.48 0 0 0-1.38-4.51 5.62 5.62 0 0 0-4.12-1.57 6.18 6.18 0 0 0-4.12 1.37 11.22 11.22 0 0 0-2.94 4.12 20 20 0 0 0-1 6.28V134h-4.49v-28.23zm34.33 12.17l10.79-12H424l-11.58 13L425 134.22h-5.69l-11.77-14.32v14.32H403V95.38h4.51z" fill="#0354a0"/><defs ><path id="B" d="M76.77,95.77h43.16v9.41c-3.14-2.55-9.62-3.53-16.48-3.53v25.7c0,3.73.39,4.91,1.76,6.87H91.48c1.37-2,1.77-2.94,1.77-6.87V101.46c-6.87,0-13.35,1-16.48,3.53V95.77Z"/></defs></svg>