<?xml version="1.0" encoding="utf-8"?>
<svg version="1.1" id="Layer_1" xmlns="http://www.w3.org/2000/svg" xmlns:xlink="http://www.w3.org/1999/xlink" x="0px" y="0px"
	 viewBox="0 0 600 139.8" style="enable-background:new 0 0 600 139.8;" xml:space="preserve">
<g id="Layer_2_1_">
	<g id="layer">
		<g>
			<path d="M172.1,46.4h-47.9c-12.4,0.2-22.3,10.4-22.1,22.8c0,0,0,0,0,0v47.4c-0.2,12.4,9.7,22.7,22.1,22.9h47.9
				c12.4-0.2,22.3-10.5,22.1-22.9V69.1C194.4,56.7,184.5,46.6,172.1,46.4z M180.2,75.6v35.1c0.1,8-6.3,14.6-14.3,14.8h-35.6
				c-8-0.2-14.4-6.8-14.3-14.8V75.6c-0.1-8,6.3-14.6,14.3-14.8h35.6C173.9,61,180.3,67.6,180.2,75.6L180.2,75.6z"/>
			<path d="M273.8,46.4h-48.1c-12.4,0.2-22.3,10.4-22.1,22.8c0,0,0,0,0,0v47.4c-0.2,12.4,9.7,22.7,22.1,22.9h48.1
				c12.4-0.2,22.3-10.5,22.1-22.9V69.1C296.1,56.7,286.2,46.6,273.8,46.4z M282,75.6v35.1c0.1,8-6.3,14.6-14.3,14.8h-35.6
				c-8-0.2-14.3-6.8-14.2-14.8V75.6c-0.1-8,6.3-14.6,14.3-14.8h35.6C275.8,61,282.1,67.6,282,75.6z"/>
			<path d="M476.3,46.4h-48.1c-12.4,0.2-22.3,10.4-22.1,22.8c0,0,0,0,0,0v47.4c-0.2,12.4,9.7,22.6,22.1,22.8c0,0,0,0,0,0h48.1
				c12.4-0.2,22.3-10.4,22.1-22.8c0,0,0,0,0,0V69.1C498.6,56.7,488.7,46.6,476.3,46.4z M484.4,75.6v35.1c0.1,8-6.3,14.6-14.3,14.8
				h-35.6c-8-0.2-14.4-6.8-14.3-14.8V75.6c-0.1-8,6.3-14.6,14.3-14.8h35.6C478.1,61,484.5,67.6,484.4,75.6z"/>
			<path d="M577.9,46.4h-48.1c-12.4,0.2-22.3,10.4-22.1,22.8c0,0,0,0,0,0v47.4c-0.2,12.4,9.7,22.6,22.1,22.8c0,0,0,0,0,0h48.1
				c12.4-0.2,22.3-10.4,22.1-22.8c0,0,0,0,0,0V69.1C600.1,56.7,590.3,46.6,577.9,46.4z M586,75.6v35.1c0.1,8-6.3,14.6-14.3,14.8
				h-35.6c-8-0.2-14.4-6.8-14.3-14.8V75.6c-0.1-8,6.3-14.6,14.3-14.8h35.6C579.7,61,586.1,67.6,586,75.6z"/>
			<path d="M70,46.4H21.9c-2.7,0-5.3,0.6-7.8,1.6V0H0v116.8c-0.2,12.4,9.7,22.6,22.1,22.8c0,0,0,0,0,0h47.8
				c12.4-0.2,22.3-10.5,22.1-22.9V69.2C92.2,56.8,82.4,46.6,70,46.4C70,46.4,70,46.4,70,46.4z M78.1,75.6v35.1
				c0.1,8-6.3,14.6-14.3,14.8H28.1c-8-0.2-14.4-6.8-14.3-14.8V75.6c0-7.9,6.4-14.4,14.3-14.6h35.6C71.7,61.2,78,67.6,78.1,75.6z"/>
			<path d="M375.1,46.8h-47.9c-2.7,0-5.3,0.6-7.8,1.6v-48h-14.1v139.3h14.1v-1.2c0-5.6-0.3-62-0.3-62.5c0-7.9,6.4-14.4,14.3-14.6
				H369c8,0.2,14.4,6.8,14.3,14.8v63.6h14.2v-70c0.3-12.4-9.6-22.7-22-23L375.1,46.8z"/>
		</g>
	</g>
</g>
</svg>
