<?xml version="1.0" encoding="utf-8"?>
<svg version="1.1" id="Layer_1" xmlns="http://www.w3.org/2000/svg" xmlns:xlink="http://www.w3.org/1999/xlink" x="0px" y="0px"
	width="100px" height="100px" viewBox="0 0 66.7 66.7" style="enable-background:new 0 0 66.7 66.7;" xml:space="preserve">
<g>
	<circle style="fill:#E8E8E8;" cx="33.3" cy="33.3" r="33.3"/>
	<circle style="fill:#FFFFFF;" cx="33.3" cy="33.3" r="32.7"/>
	<path d="M43.3,32.9c0,0.9,0.5,1.9,1.5,1.9c1,0,1.5-1,1.5-1.9s-0.5-1.9-1.5-1.9C43.7,30.9,43.3,31.9,43.3,32.9 M47.5,30.5
		c-0.1-0.2-0.1-0.3-0.1-0.5c0-0.4,0.4-0.8,0.9-0.8c0.4,0,0.8,0.3,0.9,0.7l1.1,3.7l0,0l1.1-3.6c0.1-0.5,0.4-0.9,1-0.9
		c0.5,0,0.8,0.3,0.9,0.9l1.1,3.6l0,0l1.1-3.7c0.1-0.5,0.4-0.7,0.9-0.7c0.5,0,0.9,0.3,0.9,0.9c0,0.1-0.1,0.3-0.1,0.5
		c0,0.1-0.1,0.1-0.1,0.2l-1.6,4.7c-0.2,0.5-0.5,1-1.1,1c-0.6,0-0.9-0.3-1.1-0.9l-1-3.1l0,0l-1,3.1c-0.2,0.5-0.5,0.9-1.1,0.9
		c-0.6,0-0.9-0.4-1.1-1l-0.9-2.7v0.1c0,2-1.4,3.7-3.5,3.7c-1.6,0-2.7-1-3.3-2.4v1.3c0,0.7-0.4,1.1-0.9,1.1s-0.9-0.4-0.9-1.1v-3.3
		c0-0.9-0.6-1.3-1.3-1.3c-0.8,0-1.2,0.6-1.2,1.3v3.3c0,0.7-0.4,1.1-1,1.1c-0.5,0-1-0.4-1-1.1v-3.7c0-1.9,2.2-2.7,3.1-2.7
		c1.5,0,3.1,0.9,3.2,2.5c0.5-1.4,1.7-2.5,3.2-2.5C45.9,29.1,46.9,29.7,47.5,30.5"/>
	<g>
		<path style="fill:#DD192B;" d="M22.1,32.5c0.1-1.2,0.7-2.5,2-2.5c1.3,0,1.9,1.3,2,2.5H22.1z M26.4,33.3c0.5,0,0.6-0.3,0.6-0.6
			c0-1.8-1-3.5-3-3.5s-3,1.9-3,3.7s0.9,3.7,3.2,3.7c1.7,0,2.7-1,2.7-1.5c0-0.4-0.2-0.5-0.5-0.5c-0.5,0-0.9,1.1-2.3,1.1
			c-1.2,0-2.1-1.2-2.1-2.4L26.4,33.3C26.4,33.3,26.4,33.3,26.4,33.3z M28.9,35.9c0,0.3-0.2,0.6-0.5,0.6s-0.5-0.3-0.5-0.7v-5.7h-0.7
			c-0.3,0-0.4-0.2-0.4-0.4c0-0.1,0.1-0.4,0.4-0.4h0.7v-0.9c0-0.4,0.2-0.6,0.5-0.6s0.5,0.2,0.5,0.6v0.9h0.6c0.3,0,0.4,0.2,0.4,0.4
			c0,0.1-0.1,0.4-0.4,0.4h-0.6V35.9L28.9,35.9z"/>
		<path style="fill:#DD192B;" d="M32.2,29.2c-1.1,0-2.2,0.7-2.2,1.9c0,0.9,0.5,1.3,1.2,1.6l1.7,0.7c0.5,0.2,1,0.5,1,1.1
			c0,0.7-0.6,1.2-1.5,1.2c-1.3,0-1.7-1-2.1-1c-0.3,0-0.5,0.3-0.5,0.5c0,0.5,1,1.3,2.5,1.3c1.5,0,2.6-0.8,2.6-2.1
			c0-1.1-0.8-1.6-1.8-2l-1.5-0.6c-0.5-0.2-0.7-0.5-0.7-0.9c0-0.7,0.7-1,1.4-1c0.9,0,1.5,0.7,1.8,0.7c0.4,0,0.5-0.3,0.5-0.5
			C34.7,29.8,33.6,29.2,32.2,29.2 M18.3,37.1L18.3,37.1l2-8.7c0.1-0.3,0.1-0.4,0.1-0.4c0.1-0.1,0.2-0.2,0.5-0.2h0.3h5.5
			c0.3,0,0.5,0.1,0.5,0.4c0,0.3-0.2,0.4-0.5,0.4h-5.5l0,0l-2.4,10.1c-0.1,0.3-0.3,0.3-0.5,0.3c-0.2,0-0.4-0.1-0.5-0.4l-3.3-13.3
			L13.7,28c0,0-0.1,0.3-0.2,0.5c-0.1,0.2-0.3,0.2-0.3,0.2h-0.1h-0.1H9.7c-0.3,0-0.5-0.2-0.5-0.4c0-0.3,0.2-0.5,0.5-0.5l0,0h3.1l0,0
			l1.5-4c0.1-0.3,0.3-0.5,0.5-0.5c0.1,0.1,0.3,0.1,0.4,0.1c0.1,0.1,0.1,0.2,0.1,0.3L18.3,37.1C18.3,37.1,18.3,37.1,18.3,37.1z"/>
	</g>
	<path style="fill:#DD1F3B;" d="M41.4,38.1h12.5c0.7,0,1,0.3,0.7,1l-1.1,3.3c-0.1,0.4-0.7,0.9-1.2,0.9h-1.1H29
		c-0.8,0-1.1-0.3-1.1-1.1v-3c0-0.6,0.5-1.1,1-1.1c0,0,0,0,0,0C28.9,38.1,41.4,38.1,41.4,38.1z M35.7,40.4c0-0.7-0.7-0.9-1.5-0.4
		c-0.3-0.3-0.7-0.3-1.1-0.1c-0.1,0-0.1,0.1-0.3,0c-0.2-0.2-0.4-0.1-0.7-0.1v1.9c0.2,0,0.4,0.1,0.7,0v-1.1c0-0.3,0.2-0.4,0.5-0.5
		c0.3,0,0.4,0.2,0.4,0.4v1.1c0.2,0,0.4,0.1,0.7-0.1v-1c0-0.3,0.1-0.5,0.4-0.5c0.3,0,0.3,0.2,0.3,0.5v1.1h0.6
		C35.9,41.3,35.8,40.8,35.7,40.4L35.7,40.4C35.7,40.4,35.7,40.4,35.7,40.4z M40.5,41.8c0,0.3,0.1,0.3,0.3,0.4c0.5,0.3,1,0.3,1.5,0.1
		c0.3-0.1,0.5-0.4,0.5-0.7v-1.2c0-0.2,0.1-0.4-0.1-0.5c-0.4,0-0.8,0.1-1.2,0c-0.5-0.1-1,0.3-1.1,0.8c-0.1,0.6,0.3,1,0.8,1.1
		c0.3,0,0.6-0.1,0.9-0.2c0,0.3,0,0.5-0.2,0.5c-0.2,0.1-0.5,0.1-0.7,0C41,41.7,40.8,41.8,40.5,41.8L40.5,41.8z M46.4,41.7v-1
		c0.1-0.3,0.1-0.5,0.5-0.5s0.4,0.1,0.4,0.5c0,0.3,0,0.7,0.1,1h0.6v-1c0.1-0.9-0.5-1-1.1-0.9c-0.1,0-0.2,0.1-0.3,0.1
		c-0.2-0.3-0.4-0.1-0.6-0.1v1.9C46,41.7,46.2,41.7,46.4,41.7L46.4,41.7L46.4,41.7z M52,41.1l-0.3-0.8c-0.2-0.5-0.2-0.5-0.8-0.5
		c-0.1,0.1,0.1,0.3,0.1,0.4l0.6,1.3c0.1,0.3,0.1,0.4-0.3,0.5c-0.1,0-0.2,0-0.3,0.1v0.1c0,0.1,0,0.1,0.1,0.2c0.7,0.1,0.9,0,1.1-0.4
		l0.7-1.6c0.1-0.1,0.2-0.3,0.1-0.5c-0.6-0.1-0.6-0.1-0.8,0.5C52.2,40.5,52.1,40.7,52,41.1C52,41.1,52,41.1,52,41.1z M31.7,40.9
		c0.1-0.7-0.3-1.1-0.9-1.1c-0.7-0.1-1.3,0.3-1.4,0.8c-0.1,0.5,0.2,1,0.7,1.1c0.7,0.2,1.3,0,1.5-0.5c-0.3,0-0.5,0-0.7,0.1
		c-0.3,0.2-0.7,0-0.9-0.4C30.1,40.9,31.7,40.9,31.7,40.9z M45.4,40.9c0.1-0.5-0.4-1.1-0.9-1.1c-0.7-0.1-1.3,0.2-1.5,0.7
		c-0.1,0.5,0.1,1,0.7,1.2s1.4,0.1,1.5-0.5c-0.2-0.1-0.4,0-0.6,0.1c-0.4,0.3-0.9,0.1-0.9-0.3L45.4,40.9L45.4,40.9L45.4,40.9z
		 M38.3,41.1c-0.4-0.1-0.4-0.1-0.7,0.1c-0.4,0.3-0.9,0.1-0.9-0.4h1.6c0.1-0.7-0.3-1-0.8-1.1c-0.7-0.1-1.3,0.2-1.5,0.7
		c-0.1,0.5,0.1,1.1,0.7,1.2C37.4,41.9,38.1,41.7,38.3,41.1z M50.7,40.9c-0.3,0-0.5-0.1-0.7,0.2c-0.1,0.2-0.5,0.2-0.7,0
		c-0.2-0.2-0.2-0.7,0-0.9c0.2-0.2,0.6-0.3,0.7,0c0.2,0.3,0.5,0.2,0.7,0.2c0-0.5-0.4-0.7-1.1-0.7c-0.7,0-1,0.3-1.1,0.9s0.3,1,1,1.1
		C50.1,41.8,50.7,41.5,50.7,40.9z M39.5,40c-0.1-0.3-0.5-0.2-0.7-0.2v1.9c0.2,0.1,0.4,0.1,0.7,0v-0.9c0-0.3,0.2-0.5,0.5-0.5
		c0.1,0,0.2,0.1,0.3-0.1c0.1-0.1,0.1-0.3,0-0.5C40,39.7,39.7,39.8,39.5,40z"/>
	<path style="fill:#F27379;" d="M35.7,41.7l0.1-1.3C35.8,40.9,35.9,41.3,35.7,41.7z"/>
	<path style="fill:#DD1F3B;" d="M42.1,40.7c0,0.3-0.2,0.5-0.5,0.5c-0.3,0-0.5-0.2-0.5-0.5s0.2-0.5,0.5-0.5
		C41.9,40.1,42.1,40.3,42.1,40.7L42.1,40.7z M31.1,40.5c-0.3,0.1-0.7,0.1-1,0c0.1-0.3,0.2-0.4,0.5-0.4
		C30.8,40.1,31.1,40.2,31.1,40.5z M44.7,40.5h-1c0-0.3,0.2-0.3,0.4-0.4C44.5,40.1,44.7,40.3,44.7,40.5z M37.8,40.5h-0.9
		c0-0.3,0.2-0.3,0.4-0.4C37.5,40.2,37.7,40.3,37.8,40.5z"/>
</g>
</svg>
