<svg xmlns="http://www.w3.org/2000/svg" viewBox="0 0 682.8 81.5"><g fill="#333"><path d="M21.1 1.6h27.8c15.2 0 24.8 4.1 30.7 10.1 5.8 5.8 8.5 13.4 8.5 23 0 11.8-4.5 22.5-12.9 30.9C65.7 74.9 52.2 80 34 80H0L21.1 1.6zm24.4 22.8h-4.4l-8.7 32.7H37c8 0 14.8-2.4 18.8-6.4 3.2-3.2 5.6-8.5 5.6-13.3 0-4.3-1.2-7.1-3.2-9.1-2.5-2.4-6.5-3.9-12.7-3.9zM215.8 1.6l-20.4 26.2L189 1.6h-27.5l15.3 48.5-7.9 29.9h26.2l7.2-26.7 39.5-45.8-4.4 16.2h23.1L245.3 80h26.3l15.1-56.3h23l6-22.1zm176 33.9c0 12.4-5.2 24.1-13.7 32.6-8.2 8.2-19.6 13.4-32.5 13.4-23.1 0-39-15.5-39-35.5 0-12.4 5.2-24.1 13.7-32.6C328.5 5.3 340 0 352.8 0c23.1 0 39 15.5 39 35.5zm-32.7 18c4-4 6.4-10 6.4-15.7 0-8.3-5-14.8-14.4-14.8-4.7 0-8.6 1.9-11.6 4.9-4 4-6.4 10-6.4 15.7 0 8.3 5 14.8 14.4 14.8 4.7.1 8.6-1.8 11.6-4.9zm47.7-51.9h24.5L449.1 39l10.1-37.4h26L464.1 80h-23.3l-18.6-39-10.5 39h-26l21.1-78.4z"/><path d="M529.4 80h26.8L540.3 1.6h-22.9L464.1 80h28.6L507 57.6 529.4 80h0zM507 57.6l14.7-23.1 4.7 23.1H507zM137.5 80h26.8L148.4 1.6h-22.9L72.2 80h28.6l14.3-22.4L137.5 80h0zm-22.4-22.4l14.7-23.1 4.7 23.1h-19.4z"/></g><path d="M643.6 1.6h-35l39.2 39.2h0L608.6 80h35l39.2-39.2zm-52.5 0h-34.9l39.2 39.2h0L556.2 80h34.9l39.2-39.2z" fill="#e40521"/></svg>