<?xml version="1.0" encoding="utf-8"?>
<svg version="1.1" id="Layer_1" xmlns="http://www.w3.org/2000/svg" xmlns:xlink="http://www.w3.org/1999/xlink" x="0px" y="0px"
	width="100px" height="100px" viewBox="0 0 100 100" style="enable-background:new 0 0 100 100;" xml:space="preserve">
<g>
	<path style="fill:#E8E8E8;" d="M50,0c27.61,0,50,22.39,50,50s-22.39,50-50,50S0,77.61,0,50S22.39,0,50,0"/>
	<path style="fill:#FFFFFF;" d="M50,1c27.06,0,49,21.94,49,49S77.06,99,50,99S1,77.06,1,50S22.94,1,50,1"/>
	<g>
		<path style="fill:#005DAA;" d="M37.61,55.4l0.2,3.13h0.05c0.1-0.33,0.23-0.66,0.38-0.97l1.08-2.16h1.76l0.27,3.13h0.05
			c0.09-0.32,0.2-0.63,0.33-0.93l1.06-2.21h2.38l-3.22,5.25h-2.01l-0.18-2.86h-0.07c-0.07,0.27-0.16,0.54-0.27,0.79l-1.03,2.06
			h-1.94l-1.21-5.25L37.61,55.4z"/>
		<path style="fill:#005DAA;" d="M44.99,55.4h2.21l-0.34,1.77h1.4l0.34-1.77h2.21l-1,5.25H47.6l0.35-1.82h-1.4l-0.35,1.82h-2.21
			L44.99,55.4z"/>
		<path style="fill:#005DAA;" d="M57.27,58.04c-0.32,1.68-2.08,2.69-4,2.69c-1.92,0-3.29-1.01-2.98-2.69c0.31-1.65,2.09-2.72,4-2.72
			S57.58,56.39,57.27,58.04z M52.6,58.07c-0.11,0.6,0.29,1.01,0.99,1.01c0.69,0,1.26-0.41,1.37-1.01c0.11-0.56-0.26-1.02-0.98-1.02
			S52.71,57.51,52.6,58.07L52.6,58.07z"/>
		<path style="fill:#005DAA;" d="M57.77,55.4h2.29l-0.68,3.57h1.92l-0.32,1.68h-4.21L57.77,55.4z"/>
		<path style="fill:#005DAA;" d="M66.72,58.77l0.1,0.08c0.38,0.3,0.85,0.47,1.34,0.48c0.23,0,0.6-0.08,0.65-0.31
			c0.05-0.24-0.25-0.26-0.45-0.29l-0.45-0.07c-0.87-0.14-1.54-0.57-1.38-1.39c0.24-1.25,1.73-1.94,3.1-1.94
			c0.67-0.02,1.32,0.14,1.91,0.45l-0.87,1.35c-0.37-0.25-0.81-0.39-1.25-0.4c-0.2,0-0.5,0.06-0.54,0.28
			c-0.04,0.19,0.24,0.22,0.41,0.26l0.5,0.1c0.93,0.18,1.55,0.61,1.39,1.5c-0.24,1.25-1.73,1.87-3.09,1.87c-0.8,0-1.6-0.16-2.33-0.48
			L66.72,58.77z"/>
		<path style="fill:#005DAA;" d="M74.59,58.75l-0.09-0.93c-0.02-0.22-0.03-0.45-0.02-0.68H74.4l-0.72,1.6H74.59z M72.6,60.65h-2.42
			l3.19-5.25h2.53l1.25,5.25h-2.43l-0.09-0.65h-1.73L72.6,60.65z"/>
		<path style="fill:#005DAA;" d="M77.95,55.4h2.29l-0.68,3.57h1.92l-0.32,1.68h-4.21L77.95,55.4z"/>
		<path style="fill:#005DAA;" d="M82.59,55.4h4.23l-0.27,1.43h-1.93l-0.1,0.5h1.76l-0.26,1.36h-1.76l-0.1,0.52h2l-0.27,1.43h-4.3
			L82.59,55.4z"/>
		<path style="fill:#E31837;" d="M51.22,45.95l2.91-0.11l-2.45,8.06h5.23l2.45-8.06l2.85,0.11l1.16-3.82H52.38L51.22,45.95z"/>
		<path style="fill:#E31837;" d="M40.44,48.04c-0.71,3.67-4.6,5.87-8.86,5.87s-7.3-2.2-6.59-5.87c0.7-3.59,4.64-5.93,8.87-5.93
			S41.14,44.44,40.44,48.04z M30.09,48.1c-0.25,1.3,0.65,2.2,2.19,2.2c1.54,0,2.78-0.89,3.04-2.2c0.23-1.21-0.57-2.23-2.18-2.23
			C31.52,45.87,30.32,46.89,30.09,48.1L30.09,48.1z"/>
		<path style="fill:#E31837;" d="M38.77,53.01c1.49,0.67,3.51,1.08,5.33,1.08c3.11,0,6.51-1.39,7.05-4.2c0.39-2-1.03-2.97-3.16-3.37
			l-1.14-0.22c-0.38-0.08-1.02-0.14-0.94-0.58c0.09-0.48,0.79-0.62,1.25-0.62c1.13,0,2.06,0.39,2.86,0.89l2-3.01
			c-1.28-0.7-2.72-1.03-4.36-1.03c-3.12,0.01-6.54,1.57-7.08,4.36c-0.36,1.84,1.17,2.83,3.16,3.12l1.02,0.16
			c0.46,0.08,1.14,0.13,1.04,0.66c-0.1,0.53-0.95,0.7-1.47,0.7c-1.2,0-2.23-0.48-3.06-1.08l-0.23-0.17L38.77,53.01z"/>
		<path style="fill:#E31837;" d="M73.55,42.42c-1.11-0.32-2.26-0.49-3.42-0.48c-4.22,0-8.05,2.75-8.71,6.18
			c-0.65,3.36,2.05,5.97,6.15,5.97c0.94,0,2.91-0.14,3.81-0.47l1.01-4.4c-0.97,0.67-2.01,1.09-3.21,1.09c-1.56,0-2.73-1-2.48-2.3
			c0.25-1.3,1.72-2.3,3.29-2.3c1.18,0,2.13,0.55,2.84,1.19L73.55,42.42z"/>
		<path style="fill:#E31837;" d="M81.92,41.93c-4.36,0-8.42,2.4-9.14,6.1c-0.73,3.78,2.4,6.04,6.79,6.04c4.39,0,8.39-2.26,9.13-6.04
			C89.42,44.34,86.29,41.93,81.92,41.93z M81.17,45.81c1.66,0,2.49,1.05,2.25,2.3c-0.26,1.34-1.55,2.26-3.13,2.26
			c-1.58,0-2.51-0.92-2.25-2.26C78.28,46.85,79.51,45.81,81.17,45.81L81.17,45.81z"/>
		<path style="fill:#E31837;" d="M26.33,39.84c-1.38-0.39-2.8-0.58-4.23-0.58c-5.22,0-9.97,3.29-10.78,7.41
			c-0.81,4.03,2.53,7.15,7.61,7.15c1.16,0,3.6-0.17,4.72-0.56l1.24-5.28c-1.2,0.81-2.48,1.31-3.97,1.31c-1.94,0-3.37-1.2-3.06-2.75
			s2.13-2.75,4.07-2.75c1.46,0,2.63,0.65,3.52,1.42L26.33,39.84z"/>
		<path style="fill:#E31837;" d="M85.51,53.28c0.08-0.41,0.53-0.74,1.03-0.74s0.82,0.33,0.75,0.74c-0.08,0.41-0.54,0.74-1.03,0.74
			S85.43,53.69,85.51,53.28z M87.05,53.28c0.06-0.33-0.17-0.54-0.55-0.54c-0.38,0-0.7,0.22-0.76,0.54
			c-0.06,0.33,0.17,0.54,0.55,0.54S86.99,53.61,87.05,53.28z M86.74,53.67h-0.23l-0.14-0.33h-0.15l-0.06,0.33h-0.19l0.15-0.77h0.45
			c0.2,0,0.31,0.05,0.27,0.24c-0.02,0.12-0.13,0.21-0.25,0.21L86.74,53.67z M86.45,53.19c0.1,0,0.18,0,0.2-0.08
			c0.02-0.08-0.07-0.07-0.17-0.07h-0.21l-0.03,0.15H86.45z"/>
		<polygon style="fill:#005DAA;" points="11.68,60.66 35.96,60.66 35.95,60.65 35.93,60.65 35.63,59.32 11.68,59.32 		"/>
		<polygon style="fill:#005DAA;" points="11.68,58.75 35.5,58.75 35.19,57.41 11.68,57.41 		"/>
		<polygon style="fill:#005DAA;" points="11.68,56.83 35.05,56.83 34.94,56.34 34.73,55.41 11.68,55.41 		"/>
		<path style="fill:#005DAA;" d="M62.41,55.4h4.24l-0.27,1.43h-1.93l-0.09,0.5h1.76l-0.26,1.36h-1.76l-0.1,0.52h1.99l-0.27,1.43
			h-4.3L62.41,55.4z"/>
	</g>
</g>
</svg>
