<?xml version="1.0"?>
<svg xmlns="http://www.w3.org/2000/svg" xmlns:xlink="http://www.w3.org/1999/xlink" xmlns:svgjs="http://svgjs.com/svgjs" version="1.1" width="512" height="512" x="0" y="0" viewBox="0 0 512 512" style="enable-background:new 0 0 512 512" xml:space="preserve" class=""><g>
<path xmlns="http://www.w3.org/2000/svg" style="" d="M511.633,242.275C504.499,107.273,392.78,0,256,0C114.616,0,0,114.616,0,256  c0,39.89,9.128,77.648,25.402,111.304L256,439.652L511.633,242.275z" fill="#f1f1f1" data-original="#fff5d9" class=""/>
<path xmlns="http://www.w3.org/2000/svg" style="" d="M486.598,367.304C502.873,333.648,512,295.891,512,256c0-4.605-0.128-9.179-0.368-13.725  L369.53,100.174v15.859l-60.799-60.799L203.13,160.835l-60.661-60.661v71.256l-92.36,92.361l30.041,30.041L40.07,333.913  l52.983,52.983L256,434.087L486.598,367.304z" fill="#f1f1f1" data-original="#ffe290" class=""/>
<rect xmlns="http://www.w3.org/2000/svg" x="129.113" y="311.652" style="" width="26.713" height="75.687" fill="#ff9356" data-original="#ff9356"/>
<polygon xmlns="http://www.w3.org/2000/svg" style="" points="234.83,263.791 205.286,263.791 244.87,333.913 142.47,333.913 122.391,228.946   142.47,100.174 " fill="#6fa953" data-original="#6fa953" class=""/>
<polygon xmlns="http://www.w3.org/2000/svg" style="" points="50.109,263.791 79.653,263.791 40.07,333.913 142.47,333.913 142.47,100.174 " fill="#85c250" data-original="#85c250" class=""/>
<rect xmlns="http://www.w3.org/2000/svg" x="356.174" y="311.652" style="" width="26.713" height="75.687" fill="#ff755c" data-original="#ff755c"/>
<polygon xmlns="http://www.w3.org/2000/svg" style="" points="461.891,263.791 432.347,263.791 471.93,333.913 369.53,333.913 349.452,228.946   369.53,100.174 " fill="#599057" data-original="#599057" class=""/>
<polygon xmlns="http://www.w3.org/2000/svg" style="" points="277.17,263.791 306.714,263.791 267.13,333.913 369.53,333.913 369.53,100.174 " fill="#6fa953" data-original="#6fa953" class=""/>
<path xmlns="http://www.w3.org/2000/svg" style="" d="M256,33.391l-42.151,74.574L256,182.539c41.186,0,74.574-33.388,74.574-74.574  S297.186,33.391,256,33.391z" fill="#ff755c" data-original="#ff755c"/>
<path xmlns="http://www.w3.org/2000/svg" style="" d="M181.426,107.965c0,41.186,33.388,74.574,74.574,74.574V33.391  C214.814,33.391,181.426,66.779,181.426,107.965z" fill="#ff9356" data-original="#ff9356"/>
<path xmlns="http://www.w3.org/2000/svg" style="" d="M289.391,367.304H486.6c-22.561,46.648-58.858,85.426-103.647,111.048l-0.067-0.111L256,439.652  L289.391,367.304z" fill="#2d5d5e" data-original="#2d5d5e" class=""/>
<path xmlns="http://www.w3.org/2000/svg" style="" d="M222.609,367.304L256,439.652l-126.887,38.445l-0.122,0.223  C84.224,452.697,47.95,413.941,25.4,367.304H222.609z" fill="#43765a" data-original="#43765a"/>
<path xmlns="http://www.w3.org/2000/svg" style="" d="M382.887,478.241l0.067,0.111C345.533,499.757,302.202,512,256,512l-33.391-72.348L256,367.304  h33.391L382.887,478.241z" fill="#ffb14e" data-original="#ffb14e" class=""/>
<path xmlns="http://www.w3.org/2000/svg" style="" d="M256,367.304V512c-46.225,0-89.578-12.255-127.009-33.681l0.122-0.223l93.496-110.792H256z" fill="#ffce47" data-original="#ffce47"/>
<g xmlns="http://www.w3.org/2000/svg">
</g>
<g xmlns="http://www.w3.org/2000/svg">
</g>
<g xmlns="http://www.w3.org/2000/svg">
</g>
<g xmlns="http://www.w3.org/2000/svg">
</g>
<g xmlns="http://www.w3.org/2000/svg">
</g>
<g xmlns="http://www.w3.org/2000/svg">
</g>
<g xmlns="http://www.w3.org/2000/svg">
</g>
<g xmlns="http://www.w3.org/2000/svg">
</g>
<g xmlns="http://www.w3.org/2000/svg">
</g>
<g xmlns="http://www.w3.org/2000/svg">
</g>
<g xmlns="http://www.w3.org/2000/svg">
</g>
<g xmlns="http://www.w3.org/2000/svg">
</g>
<g xmlns="http://www.w3.org/2000/svg">
</g>
<g xmlns="http://www.w3.org/2000/svg">
</g>
<g xmlns="http://www.w3.org/2000/svg">
</g>
</g></svg>
