<?xml version="1.0" encoding="utf-8"?>
<!-- Generator: Adobe Illustrator 24.2.1, SVG Export Plug-In . SVG Version: 6.00 Build 0)  -->
<svg version="1.1" id="Layer_1" xmlns="http://www.w3.org/2000/svg" xmlns:xlink="http://www.w3.org/1999/xlink" x="0px" y="0px"
	 viewBox="0 0 79.82 14.43" style="enable-background:new 0 0 79.82 14.43;" xml:space="preserve">
<g>
	<path style="fill:#004EA2;" d="M0,14.43h13.51V0H0V14.43z M1.09,1.1H12.4v12.25H1.09V1.1z"/>
	<path style="fill:#E60012;" d="M6.08,9.56C5.95,9.42,2.87,6.29,2.63,6.04c-0.18-0.18-0.66-0.18-0.66,0.3v5.63
		c0,0.25,0.2,0.44,0.44,0.44h3.54c0.25,0,0.43-0.19,0.43-0.44V10.1C6.38,9.89,6.38,9.86,6.08,9.56z M11.5,6.34
		c0-0.48-0.47-0.48-0.65-0.3C10.6,6.29,7.53,9.42,7.4,9.56C7.1,9.85,7.1,9.89,7.1,10.1v1.87c0,0.25,0.2,0.44,0.44,0.44l3.54,0.03
		c0.24,0,0.44-0.2,0.44-0.44C11.52,12,11.5,6.34,11.5,6.34z M10.08,5.16c0,0-1.93-1.91-3.24-3.22C5.57,3.21,3.48,5.27,3.19,5.57
		c0.69,0.69,3.24,3.25,3.24,3.25c0.17,0.16,0.44,0.16,0.61,0l3.04-3.05C10.25,5.6,10.25,5.33,10.08,5.16z"/>
	<g>
		<path style="fill:#004EA2;" d="M27.91,3.2l-3.83,11.23h2.21l0.01-0.02L29.17,6l2.84,8.43h2.27L30.44,3.2
			C30.44,3.2,27.91,3.2,27.91,3.2z M51.44,3.2l-3.83,11.23h2.21l0.01-0.02L52.71,6l2.84,8.43h2.27L53.96,3.2H51.44z M75.96,3.2
			h-2.52l-3.83,11.23h2.21l0.01-0.02L74.7,6l2.84,8.43h2.28L75.96,3.2z M40.93,11.51L38.17,3.2h-2.56v11.23h2.04v-6.5l2.15,6.5h2.21
			l2.21-6.46v6.46h2V3.2h-2.58L40.93,11.51z M65.85,3.2h-6.78v11.23h6.16c0.43-0.02,4.37-0.3,4.37-5.63
			C69.6,3.43,65.85,3.2,65.85,3.2z M65.3,12.47c-0.06-0.01-2.41,0-4.2,0V5.12h4.4c0.21,0.01,1.93,0.5,1.93,3.69
			C67.42,12.11,65.43,12.46,65.3,12.47z M18.59,0l3.66,6.28l-0.38,0.63L17.83,0h-3.17l4.73,8.13v6.3h3.16V8.15L27.34,0
			C27.34,0,18.59,0,18.59,0z"/>
		<path style="fill:#E60012;" d="M18.59,0l3.66,6.28L25.95,0L18.59,0z"/>
	</g>
</g>
</svg>
