<?xml version="1.0" encoding="utf-8"?>
<svg version="1.1" id="Layer_1" xmlns="http://www.w3.org/2000/svg" xmlns:xlink="http://www.w3.org/1999/xlink" x="0px" y="0px"
	width="100px" height="100px" viewBox="0 0 66.7 66.7" style="enable-background:new 0 0 66.7 66.7;" xml:space="preserve">
<g>
	<path style="fill:#E8E8E8;" d="M47.5,36.9c-11.4,8.1-13.6,15.5-13.6,15.5S32,45.6,20,35.9c-13-10.5-0.5-20.1,2.5-20.3h1
		c4.9,0,7.6,2.5,8.9,4.6C32.9,14.9,35.1,10,40.7,8c0.3-0.1,0.5-0.2,0.7-0.2c0.9,0,1.7,0.6,0.3,1.1c-5.1,1.9-6.7,7-6.9,12
		c1-2,2.9-4.6,6.5-5.3c0.3-0.1,0.6-0.1,0.9-0.1C49.3,15.5,57.8,29.7,47.5,36.9z"/>
	<path style="fill:#E8E8E8;" d="M33.3,0C14.9,0,0,14.9,0,33.3s14.9,33.3,33.3,33.3c18.4,0,33.3-14.9,33.3-33.3S51.7,0,33.3,0z
		 M33.3,66c-18,0-32.7-14.6-32.7-32.7S15.3,0.7,33.3,0.7c18,0,32.7,14.6,32.7,32.7S51.4,66,33.3,66z"/>
	<path style="fill:#FFFFFF;" d="M47.5,36.9c-11.4,8.1-13.6,15.5-13.6,15.5S32,45.6,20,35.9c-13-10.5-0.5-20.1,2.5-20.3h1
		c4.9,0,7.6,2.5,8.9,4.6C32.9,14.9,35.1,10,40.7,8c0.3-0.1,0.5-0.2,0.7-0.2c0.9,0,1.7,0.6,0.3,1.1c-5.1,1.9-6.7,7-6.9,12
		c1-2,2.9-4.6,6.5-5.3c0.3-0.1,0.6-0.1,0.9-0.1C49.3,15.5,57.8,29.7,47.5,36.9z"/>
	<path style="fill:#89BD24;" d="M47.5,36.9c-11.4,8.1-13.6,15.5-13.6,15.5S32,45.6,20,35.9c-13-10.5-0.5-20.1,2.5-20.3h1
		c4.9,0,7.6,2.5,8.9,4.6C32.9,14.9,35.1,10,40.7,8c0.3-0.1,0.5-0.2,0.7-0.2c0.9,0,1.7,0.6,0.3,1.1c-5.1,1.9-6.7,7-6.9,12
		c1-2,2.9-4.6,6.5-5.3c0.3-0.1,0.6-0.1,0.9-0.1C49.3,15.5,57.8,29.7,47.5,36.9z"/>
	<path style="fill:#FFFFFF;" d="M48.5,30.9c-0.9-1.1-1.6-2.4-2.3-3.6L45.5,26c0.8-0.7,1.6-1.5,2.3-2.2l0.2-0.1
		c0.3-0.2,0.6-0.5,0.5-0.8c-0.1-0.1-0.1-0.3-0.3-0.3h-0.1c-0.5,0-0.8,0.3-1,0.6c-0.1,0.2-0.3,0.3-0.4,0.4c-1.1,1.2-2.2,2.3-3.5,3.1
		v-1.5c0-1.1,0-2.1-0.2-2.8v-0.1h-0.4c-0.1,0-0.3,0.1-0.3,0.1l-0.1,0.1v0.1c0,0.7,0,1.7,0.1,2.4l0.2,2.1c0.1,1.7,0.2,3.4,0.1,5.1
		v0.1l0.1,0.1c0.1,0.1,0.2,0.1,0.3,0.1c0.2,0,0.3-0.1,0.4-0.1h0.1v-0.1c0.1-1.5,0.1-2.9,0-4.3v-0.1c0.4-0.2,0.7-0.4,0.9-0.7
		c0.1-0.1,0.3-0.2,0.4-0.3c0.4,0.5,0.7,1.3,1.1,1.9c0.4,0.7,0.8,1.5,1.3,2.1l0.1,0.1c0.5,0.7,0.7,1.1,0.9,1.1h0.1
		c0.3,0,0.3-0.1,0.4-0.2C49.1,31.6,48.7,31.1,48.5,30.9z M23.9,22.5h-0.4c-0.1,0.1-0.3,0.1-0.4,0.1H23c-0.4,0-0.8-0.1-1.2-0.1
		c-0.5,0-1-0.1-1.5-0.1c-0.4,0-0.8,0-1.2,0.1H19l0.1,0.1c0.1,0.5,0.7,0.6,1.2,0.6h1.5c0.1,2.7,0.2,5.2,0.1,8.3v0.1
		c0,0.2,0,0.5,0.1,0.6c0.1,0.1,0.1,0.1,0.3,0.1h0.3v-0.1c0.1-0.2,0.2-0.5,0.1-0.7v-1.7c0-2.2,0.1-4.6,0-6.5h1.7
		c0.2,0,0.4-0.1,0.5-0.3l0.1-0.1v-0.1C24.7,22.5,24.3,22.5,23.9,22.5z M39.7,22.1c-0.1-0.1-0.3-0.3-0.7-0.3c-0.2,0-0.5,0.1-0.7,0.2
		h-0.1l-0.1,0.1l-1.9,7.1c-0.9,3.6-1.9,7.3-3.1,10.7l-3.1-11.3l-0.6-1.7c-0.2-0.5-0.4-1.1-0.5-1.6c-0.1-0.1-0.1-0.3-0.2-0.5
		c-0.2-0.9-0.5-1.9-1.5-1.9c-0.2,0-0.4,0.1-0.6,0.1l-0.1,0.1v0.2c-0.1,0.8,0.3,1.5,0.5,2.2c0.1,0.1,0.1,0.3,0.1,0.4
		c1,2.9,1.8,5.8,2.7,8.9l1.1,3.9c0.1,0.1,0.1,0.4,0.2,0.7c0.6,2.7,1.1,4.2,1.7,4.4c0.1,0.1,0.3,0.1,0.4,0.1c1,0,1.4-1.3,1.6-2.1
		c0.1-0.2,0.1-0.3,0.1-0.4c0.7-1.8,1.1-3.5,1.5-5.2l0.8-2.9c0.5-1.7,0.9-3.2,1.3-4.7c0.3-1.1,0.5-2.2,0.9-3.4l0.2-0.7
		C39.8,23.5,40.1,22.5,39.7,22.1z M48.5,30.9c-0.9-1.1-1.6-2.4-2.3-3.6L45.5,26c0.8-0.7,1.6-1.5,2.3-2.2l0.2-0.1
		c0.3-0.2,0.6-0.5,0.5-0.8c-0.1-0.1-0.1-0.3-0.3-0.3h-0.1c-0.5,0-0.8,0.3-1,0.6c-0.1,0.2-0.3,0.3-0.4,0.4c-1.1,1.2-2.2,2.3-3.5,3.1
		v-1.5c0-1.1,0-2.1-0.2-2.8v-0.1h-0.4c-0.1,0-0.3,0.1-0.3,0.1l-0.1,0.1v0.1c0,0.7,0,1.7,0.1,2.4l0.2,2.1c0.1,1.7,0.2,3.4,0.1,5.1
		v0.1l0.1,0.1c0.1,0.1,0.2,0.1,0.3,0.1c0.2,0,0.3-0.1,0.4-0.1h0.1v-0.1c0.1-1.5,0.1-2.9,0-4.3v-0.1c0.4-0.2,0.7-0.4,0.9-0.7
		c0.1-0.1,0.3-0.2,0.4-0.3c0.4,0.5,0.7,1.3,1.1,1.9c0.4,0.7,0.8,1.5,1.3,2.1l0.1,0.1c0.5,0.7,0.7,1.1,0.9,1.1h0.1
		c0.3,0,0.3-0.1,0.4-0.2C49.1,31.6,48.7,31.1,48.5,30.9z M39,21.7c-0.2,0-0.5,0.1-0.7,0.2h-0.1l-0.1,0.1l-1.9,7.1
		c-0.9,3.6-1.9,7.3-3.1,10.7l-3.1-11.3l-0.6-1.7c-0.2-0.5-0.4-1.1-0.5-1.6c-0.1-0.1-0.1-0.3-0.2-0.5c-0.2-0.9-0.5-1.9-1.5-1.9
		c-0.2,0-0.4,0.1-0.6,0.1l-0.1,0.1v0.2c-0.1,0.8,0.3,1.5,0.5,2.2c0.1,0.1,0.1,0.3,0.1,0.4c1,2.9,1.8,5.8,2.7,8.9l1.1,3.9
		c0.1,0.1,0.1,0.4,0.2,0.7c0.6,2.7,1.1,4.2,1.7,4.4c0.1,0.1,0.3,0.1,0.4,0.1c1,0,1.4-1.3,1.6-2.1c0.1-0.2,0.1-0.3,0.1-0.4
		c0.7-1.8,1.1-3.5,1.5-5.2l0.8-2.9c0.5-1.7,0.9-3.2,1.3-4.7c0.3-1.1,0.5-2.2,0.9-3.4l0.2-0.7c0.3-0.9,0.6-1.8,0.3-2.3
		C39.6,21.9,39.4,21.7,39,21.7z M23.9,22.5h-0.4c-0.1,0.1-0.3,0.1-0.4,0.1H23c-0.4,0-0.8-0.1-1.2-0.1c-0.5,0-1-0.1-1.5-0.1
		c-0.4,0-0.8,0-1.2,0.1H19l0.1,0.1c0.1,0.5,0.7,0.6,1.2,0.6h1.5c0.1,2.7,0.2,5.2,0.1,8.3v0.1c0,0.2,0,0.5,0.1,0.6
		c0.1,0.1,0.1,0.1,0.3,0.1h0.3v-0.1c0.1-0.2,0.2-0.5,0.1-0.7v-1.7c0-2.2,0.1-4.6,0-6.5h1.7c0.2,0,0.4-0.1,0.5-0.3l0.1-0.1v-0.1
		C24.7,22.5,24.3,22.5,23.9,22.5z M48.5,30.9c-0.9-1.1-1.6-2.4-2.3-3.6L45.5,26c0.8-0.7,1.6-1.5,2.3-2.2l0.2-0.1
		c0.3-0.2,0.6-0.5,0.5-0.8c-0.1-0.1-0.1-0.3-0.3-0.3h-0.1c-0.5,0-0.8,0.3-1,0.6c-0.1,0.2-0.3,0.3-0.4,0.4c-1.1,1.2-2.2,2.3-3.5,3.1
		v-1.5c0-1.1,0-2.1-0.2-2.8v-0.1h-0.4c-0.1,0-0.3,0.1-0.3,0.1l-0.1,0.1v0.1c0,0.7,0,1.7,0.1,2.4l0.2,2.1c0.1,1.7,0.2,3.4,0.1,5.1
		v0.1l0.1,0.1c0.1,0.1,0.2,0.1,0.3,0.1c0.2,0,0.3-0.1,0.4-0.1h0.1v-0.1c0.1-1.5,0.1-2.9,0-4.3v-0.1c0.4-0.2,0.7-0.4,0.9-0.7
		c0.1-0.1,0.3-0.2,0.4-0.3c0.4,0.5,0.7,1.3,1.1,1.9c0.4,0.7,0.8,1.5,1.3,2.1l0.1,0.1c0.5,0.7,0.7,1.1,0.9,1.1h0.1
		c0.3,0,0.3-0.1,0.4-0.2C49.1,31.6,48.7,31.1,48.5,30.9z M39,21.7c-0.2,0-0.5,0.1-0.7,0.2h-0.1l-0.1,0.1l-1.9,7.1
		c-0.9,3.6-1.9,7.3-3.1,10.7l-3.1-11.3l-0.6-1.7c-0.2-0.5-0.4-1.1-0.5-1.6c-0.1-0.1-0.1-0.3-0.2-0.5c-0.2-0.9-0.5-1.9-1.5-1.9
		c-0.2,0-0.4,0.1-0.6,0.1l-0.1,0.1v0.2c-0.1,0.8,0.3,1.5,0.5,2.2c0.1,0.1,0.1,0.3,0.1,0.4c1,2.9,1.8,5.8,2.7,8.9l1.1,3.9
		c0.1,0.1,0.1,0.4,0.2,0.7c0.6,2.7,1.1,4.2,1.7,4.4c0.1,0.1,0.3,0.1,0.4,0.1c1,0,1.4-1.3,1.6-2.1c0.1-0.2,0.1-0.3,0.1-0.4
		c0.7-1.8,1.1-3.5,1.5-5.2l0.8-2.9c0.5-1.7,0.9-3.2,1.3-4.7c0.3-1.1,0.5-2.2,0.9-3.4l0.2-0.7c0.3-0.9,0.6-1.8,0.3-2.3
		C39.6,21.9,39.4,21.7,39,21.7z M23.9,22.5h-0.4c-0.1,0.1-0.3,0.1-0.4,0.1H23c-0.4,0-0.8-0.1-1.2-0.1c-0.5,0-1-0.1-1.5-0.1
		c-0.4,0-0.8,0-1.2,0.1H19l0.1,0.1c0.1,0.5,0.7,0.6,1.2,0.6h1.5c0.1,2.7,0.2,5.2,0.1,8.3v0.1c0,0.2,0,0.5,0.1,0.6
		c0.1,0.1,0.1,0.1,0.3,0.1h0.3v-0.1c0.1-0.2,0.2-0.5,0.1-0.7v-1.7c0-2.2,0.1-4.6,0-6.5h1.7c0.2,0,0.4-0.1,0.5-0.3l0.1-0.1v-0.1
		C24.7,22.5,24.3,22.5,23.9,22.5z"/>
</g>
</svg>
