<svg xmlns="http://www.w3.org/2000/svg" viewBox="0 0 511.4 339.9"><path d="M11.1 313.9l26.5.1v9.7L0 323.5l.1-53.3h11.1l-.1 43.7zm66.5-1.8c-2.8 9.5-10.7 12.6-17.4 12.6-11.1 0-19.7-5.4-19.6-21.7 0-4.8 1.7-20 19-19.9 7.8 0 18.6 3.8 18.5 21.8v1.9l-27.1-.1c.3 3 .9 9.7 9.3 9.7 2.9 0 5.9-1.5 6.7-4.3h10.6zM67.4 300c-.6-6.4-4.7-8.3-8-8.3-4.9 0-7.5 3.1-8.1 8.3h16.1zm29.5-15.8h6.5v7.4h-6.5l-.1 21.5c0 2.3.1 3.2 4.3 3.2l2.2-.1v7.9l-4.9.1h-1.3c-9 0-10.6-3.4-10.6-8.6l.1-24h-5.4v-7.4h5.4v-10.7H97l-.1 10.7zm13-13.9h10.4v7.6c0 9.4-5.9 11.8-10.2 12.7v-3.8c4.9-1.6 5.4-4.2 5.5-7.1h-5.7v-9.4zm35.5 26.1c-.4-2.5-1.3-5.2-7-5.2s-6.4 2.1-6.4 3.8c0 6.2 24.7 1.8 24.7 16.3 0 11.5-11.2 13.6-17.3 13.6-9 0-18.7-3.2-19-13.7h10.7c0 3.3 2.1 5.8 8.6 5.8 5.4 0 6.6-2.6 6.6-4.1 0-6.6-24.5-1.7-24.5-16.5 0-5.8 3.7-13.2 16-13.2 7.7 0 16.9 2 17.7 13.1l-10.1.1zm75.7 27.3h-10.2v-5h-.1c-2.5 4.5-7.1 6-11.4 6-11.7 0-16.6-10.4-16.6-21.3 0-13.7 7.7-20.4 16.4-20.4 6.7 0 9.8 3.6 11.4 6.2h.1v-19h10.4v53.5zm-19.1-7.5c6.6 0 9.2-5.5 9.2-11.4 0-6.3-1.8-12.7-8.9-12.7-6.6 0-8.8 5.9-8.8 12.1-.1 4.7 1.8 12 8.5 12zm44.6 8.5c-10.6 0-20.2-6.5-20.2-20.8s9.6-20.8 20.2-20.8 20.2 6.5 20.2 20.8-9.6 20.8-20.2 20.8zm0-32.8c-8 0-9.5 7-9.5 12s1.5 12 9.5 12 9.5-7 9.5-12-1.5-12-9.5-12h0zm59.3-12.4h-10.4v-9.7h10.4v9.7zm0 4.7v39.5h-10.4v-39.5h10.4zm20.1 0h6.5v7.4H326v21.5c0 2.3.1 3.2 4.3 3.2l2.2-.1v7.9l-4.9.1h-1.3c-9 0-10.6-3.4-10.6-8.5v-24h-5.4v-7.4h5.4v-10.8h10.4v10.7h-.1zm33.7 0h10v6.8h.1c2.2-4 4.5-7.9 10.9-7.9.7 0 1.3.1 2 .1v10.6a30.07 30.07 0 0 0-3-.1c-8.1 0-9.6 5.1-9.6 9.4v20.6h-10.4v-39.5zm39.1-4.7h-10.4v-9.7h10.4v9.7zm0 4.7v39.5h-10.4v-39.5h10.4zm44 0v37.5c0 6.8-.5 18.2-20 18.2-8.2 0-16.8-3.5-17.2-11.9h11.3c.4 2 1.3 4 7.3 4 5.6 0 8.2-2.7 8.2-9.1v-4.8l-.1-.1c-1.7 3-4.3 5.9-10.6 5.9-9.5 0-17-6.6-17-20.4s7.7-20.4 16.4-20.4c7.4 0 10.3 4.3 11.6 6.9h.1v-5.9h10v.1zm-19.1 31c7.1 0 8.8-6 8.8-11.4 0-6.4-3.1-11.6-8.9-11.6-3.9 0-8.2 2.8-8.2 12 0 5 2.1 11 8.3 11zm61.6 8.5h-10.4v-24c0-2.9-.1-7.8-6.8-7.8-4.6 0-8.2 3.1-8.2 9.1v22.7h-10.4v-53.4h10.4v19h.1c1.3-3.3 5.8-6.2 11.4-6.2 7.7 0 13.7 4.5 13.7 13.2v27.4h.2zm19.6-39.5h6.5v7.4h-6.5v21.5c0 2.3.1 3.2 4.3 3.2l2.2-.1v7.9l-4.9.1h-1.4c-9 0-10.6-3.4-10.6-8.5v-24h-5.4v-7.4h5.4v-10.8h10.4v10.7z" fill="#004e9b"/><path d="M15.7 201.5V0h479.8v201.5l-240.1 49.8z" fill="#fff"/><path d="M478.5 187.6V0H32.7v187.6l222.7 46.3z" fill="#004e9b"/><path d="M147 160.1h-22.7l-11.9-59.9h-.3l-11.9 59.9H77.1l-23.5-87h22.6l12.4 63.6h.2l12.8-63.6h21.3l12.9 63.6h.2l12.3-63.6H171zm25.5-63.3h20.8v63.3h-20.8V96.8zm20.8-7.9h-20.8V73.1h20.8v15.8zm49.1 31.1c-.2-5.4-4.9-9.1-10.1-9.1-11.6 0-13.4 9.9-13.4 18.6 0 8.2 3.5 16.6 12.3 16.6 7.2 0 10.8-4.1 11.8-10.9h20.2c-1.9 17-15.1 26.7-31.8 26.7-19 0-33.2-13-33.2-32.4 0-20.1 12.8-34.5 33.2-34.5 15.7 0 29.7 8.3 31.2 25h-20.2zm24.3-46.9h20.8v44.8l18.9-21.1h24l-23.1 23.9 26 39.4h-25l-15.4-25.5-5.4 5.3v20.2h-20.8zM373.3 122c-.4-7.1-5.4-12.9-12.3-12.9-7.3 0-12.2 5.2-13.4 12.9h25.7zm-25.7 11.5c.4 8.6 5.4 14.4 14.2 14.4 5 0 9.8-2.3 11.8-6.9H393c-3.8 14.7-17.3 21-31.5 21-20.6 0-34.6-12.4-34.6-33.6 0-19.4 15.5-33.3 34.1-33.3 22.7 0 34 17.1 33.1 38.5h-46.5v-.1zm68 5.7c-.1 2.78 1.17 5.44 3.4 7.1 2.26 1.56 4.96 2.33 7.7 2.2 4 0 9.8-1.7 9.8-6.7s-6.5-5.8-10.1-6.7c-13.1-3.3-29.4-3.7-29.4-20.7 0-15.2 16.5-19.4 28.9-19.4 13.9 0 28.4 4 29.1 20.5h-19.2c0-2.7-.9-4.4-2.7-5.5a12.18 12.18 0 0 0-6.6-1.6c-3.4 0-8.9.4-8.9 4.8 0 6 13.9 7.1 23.4 9.1 12.8 2.6 16.1 11.8 16.1 17.1 0 17-16.1 22.6-30.4 22.6-15 0-30.4-5-31-22.7h19.9v-.1z" fill="#fff"/></svg>