<?xml version="1.0" encoding="utf-8"?>
<svg version="1.1" id="Layer_1" xmlns="http://www.w3.org/2000/svg" xmlns:xlink="http://www.w3.org/1999/xlink" x="0px" y="0px"
	 viewBox="0 0 923.08 153.57" style="enable-background:new 0 0 923.08 153.57;" xml:space="preserve">
<g>
	<path style="fill:#273B7D;" d="M362.07,14.07c0-7.78,6.28-14.07,14-14.07c7.75,0,14.05,6.29,14.05,14.07
		c0,7.77-6.3,14.06-14.05,14.06C368.34,28.13,362.07,21.83,362.07,14.07"/>
	<path style="fill:#499FDD;" d="M583.42,107.62c0-7.78,6.27-14.08,14-14.08c7.75,0,14.05,6.3,14.05,14.08
		c0,7.76-6.3,14.06-14.05,14.06C589.7,121.69,583.42,115.38,583.42,107.62"/>
	<path style="fill:#273B7D;" d="M131.81,101.54c-12.08,0-20.48-9.6-20.48-23.31c0-13.71,8.4-23.3,20.48-23.3
		c12.15,0,20.64,9.59,20.64,23.3C152.46,92.16,144.14,101.54,131.81,101.54L131.81,101.54z M131.81,34.45
		c-25.56,0-44.11,18.42-44.11,43.78s18.55,43.78,44.11,43.78c25.66,0,44.29-18.41,44.29-43.78S157.47,34.45,131.81,34.45
		 M334.9,80.42c-0.99-1.87-2.13-3.45-3.35-4.71l-0.77-0.82l0.81-0.78c1.17-1.24,2.37-2.7,3.53-4.4l22.56-33.53h-27.38l-16.95,26.23
		c-0.96,1.41-2.9,2.12-5.8,2.12h-3.86V14.93c0-9.92-6.18-11.27-12.86-11.27H279.4l0.02,117.06h24.26V85.61h2.27
		c2.77,0,4.65,0.32,5.51,1.82l13.39,25.27c3.74,6.86,7.47,8.03,14.48,8.03h18.6l-13.85-22.91L334.9,80.42 M452.7,34.26
		c-12.34,0-20.22,5.48-24.63,10.12l-1.47,1.49l-0.52-2.03c-1.3-4.97-5.67-7.7-12.24-7.7h-10.88l0.07,84.55h24.1V81.73
		c0-3.81,0.5-7.12,1.5-10.13c2.68-9.13,10.17-14.81,19.52-14.81c7.52,0,10.46,3.97,10.46,14.23v36.82c0,8.76,4.05,12.85,12.81,12.85
		h11.47l-0.04-53.77C482.85,45.56,472.43,34.26,452.7,34.26 M376.39,36.18h-11.42l0.08,65.37h-0.01v19.16h12.19
		c0.15,0,0.28,0.02,0.43,0.02l5.68-0.02h5.65v-0.03h0.04l0.05-71.66C389.08,40.37,384.95,36.18,376.39,36.18 M226.48,101.54
		c-12.08,0-20.49-9.6-20.49-23.31c0-13.71,8.41-23.3,20.49-23.3c12.13,0,20.64,9.59,20.64,23.3
		C247.12,92.16,238.81,101.54,226.48,101.54L226.48,101.54z M226.48,34.45c-25.59,0-44.14,18.42-44.14,43.78
		s18.56,43.78,44.14,43.78c25.63,0,44.29-18.41,44.29-43.78S252.11,34.45,226.48,34.45"/>
	<path style="fill:#499FDD;" d="M743.07,101.54c-12.08,0-20.5-9.6-20.5-23.31c0-13.71,8.42-23.3,20.5-23.3
		c12.13,0,20.65,9.59,20.65,23.3C763.71,92.16,755.4,101.54,743.07,101.54L743.07,101.54z M743.07,34.45
		c-25.58,0-44.14,18.42-44.14,43.78s18.56,43.78,44.14,43.78c25.63,0,44.29-18.41,44.29-43.78S768.7,34.45,743.07,34.45"/>
	<path style="fill:#273B7D;" d="M533.66,97.82c-13.18,0-17.87-11.5-17.87-22.27c0-4.75,1.2-20.22,16.6-20.22
		c7.65,0,17.85,2.19,17.85,21.01C550.25,94.1,541.22,97.82,533.66,97.82L533.66,97.82z M562.76,35.96c-4.57,0-8.09,1.82-9.86,5.15
		l-0.67,1.29l-1.12-0.97c-3.89-3.37-10.87-7.36-22.19-7.36c-22.54,0-37.71,16.93-37.71,42.11c0,25.16,15.7,42.74,38.16,42.74
		c7.67,0,13.74-1.79,18.54-5.43l1.86-1.4v2.35c0,11.29-7.3,17.52-20.54,17.52c-6.43,0-12.29-1.57-16.21-2.99
		c-5.11-1.54-8.11-0.27-10.18,4.86l-1.91,4.73l-2.71,6.91l1.68,0.89c8.47,4.5,19.5,7.18,29.47,7.18c20.53,0,44.49-10.51,44.49-40.07
		l0.09-77.54H562.76"/>
	<path style="fill:#273B7D;" d="M42.06,100.57l-19.62-0.02V77.1c0-5.01,1.94-7.62,6.24-8.22h13.38c9.55,0,15.72,6.02,15.73,15.77
		C57.78,94.64,51.76,100.57,42.06,100.57z M22.44,37.3v-6.17c0-5.4,2.29-7.97,7.3-8.3h10.04c8.61,0,13.77,5.15,13.77,13.77
		c0,6.57-3.53,14.24-13.45,14.24H22.44L22.44,37.3z M67.12,60.71l-3.55-1.99l3.1-2.65c3.6-3.1,9.64-10.06,9.64-22.08
		c0-18.4-14.27-30.28-36.36-30.28H14.73V3.71h-2.87C5.31,3.95,0.07,9.27,0,15.86V120.3h11.57c0.03,0.01,0.04,0,0.05,0.01l28.82-0.01
		c24.56,0,40.4-13.37,40.4-34.07C80.84,75.09,75.72,65.56,67.12,60.71"/>
	<path style="fill:#499FDD;" d="M895.02,34.54c-10,0-19.67,4.68-25.87,12.54l-1.75,2.21l-1.37-2.48
		c-4.46-8.14-12.15-12.27-22.83-12.27c-11.2,0-18.72,6.25-22.21,9.97l-2.28,2.47l-0.88-3.25c-1.27-4.68-5.44-7.26-11.76-7.26h-10.13
		l-0.1,84.22h23.02V83.5c0-3.26,0.4-6.48,1.22-9.85c2.2-8.98,8.24-18.65,18.39-17.68c6.26,0.6,9.32,5.44,9.32,14.78v49.93h23.18
		V83.5c0-4.07,0.38-7.12,1.3-10.17c1.87-8.58,8.17-17.37,17.96-17.37c7.09,0,9.71,4.01,9.71,14.79v37.61
		c0,8.51,3.8,12.31,12.3,12.31h10.83l0.02-53.77C923.08,45.44,913.62,34.54,895.02,34.54 M685.6,91.44
		c-0.07,0.08-9.97,10.53-23.01,10.53c-11.88,0-23.88-7.29-23.88-23.56c0-14.05,9.31-23.87,22.63-23.87c4.33,0,9.25,1.55,10.02,4.16
		l0.11,0.44c1.77,5.91,7.14,6.23,8.2,6.23l12.61,0.01V54.35c0-14.54-18.49-19.81-30.94-19.81c-26.61,0-45.92,18.53-45.92,44.04
		c0,25.5,19.1,44.01,45.43,44.01c22.85,0,35.27-15.02,35.39-15.17l0.66-0.81l-9.99-16.57L685.6,91.44"/>
</g>
</svg>
