<?xml version="1.0" encoding="utf-8"?>
<svg version="1.1" id="Layer_1" xmlns="http://www.w3.org/2000/svg" xmlns:xlink="http://www.w3.org/1999/xlink" x="0px" y="0px"
	width="100px" height="100px" viewBox="0 0 100 100" style="enable-background:new 0 0 100 100;" xml:space="preserve">
<g>
	<g>
		<path style="fill:#E8E8E8;" d="M50,0c27.61,0,50,22.39,50,50s-22.39,50-50,50S0,77.61,0,50S22.39,0,50,0"/>
		<path style="fill:#FFFFFF;" d="M50,1c27.06,0,49,21.94,49,49S77.06,99,50,99S1,77.06,1,50S22.94,1,50,1"/>
	</g>
	<g>
		<path style="fill:#333333;" d="M12.16,50.43l-0.78-1.86l-0.78,1.86H12.16z M12.46,51.19h-2.18l-0.63,1.46h-0.9l2.34-5.3h0.56
			c0.43,1.06,2.34,5.3,2.34,5.3h-0.9L12.46,51.19z M72.8,50.43l-0.77-1.86l-0.78,1.86H72.8z M73.11,51.19h-2.18l-0.63,1.46h-0.9
			l2.34-5.3h0.56c0.43,1.06,2.34,5.3,2.34,5.3h-0.9L73.11,51.19z M24.87,49.37h2.07v0.76h-2.07v1.77H27v0.76h-2.92v-5.3H27v0.74
			h-2.13L24.87,49.37z M30.46,49.78h0.25c0.76,0,1.14-0.29,1.14-0.86c0-0.54-0.36-0.81-1.1-0.81h-0.29L30.46,49.78L30.46,49.78z
			 M31.45,50.38l1.64,2.25h-0.97l-1.51-2.16h-0.14v2.16h-0.79v-5.3h0.94c0.7,0,1.21,0.13,1.51,0.4c0.34,0.29,0.52,0.68,0.52,1.15
			c0,0.38-0.11,0.7-0.32,0.97C32.1,50.14,31.81,50.31,31.45,50.38 M35.53,47.35h0.79v5.3h-0.79V47.35z M42.92,47.64v0.96
			c-0.47-0.38-0.94-0.58-1.44-0.58c-0.54,0-1.01,0.2-1.37,0.59c-0.38,0.4-0.56,0.87-0.56,1.43c0,0.56,0.18,1.03,0.56,1.41
			s0.83,0.58,1.39,0.58c0.29,0,0.52-0.05,0.72-0.14c0.11-0.05,0.22-0.11,0.34-0.18c0.13-0.07,0.23-0.18,0.38-0.29v0.96
			c-0.45,0.25-0.94,0.38-1.44,0.38c-0.76,0-1.41-0.27-1.95-0.79c-0.54-0.54-0.79-1.17-0.79-1.93c0-0.67,0.22-1.28,0.67-1.8
			c0.54-0.65,1.26-0.97,2.13-0.97C42.02,47.24,42.47,47.37,42.92,47.64 M65.21,49.37h2.06v0.76h-2.06v1.77h2.13v0.76h-2.92v-5.3
			h2.92v0.74h-2.13V49.37z M78.93,49.89h2.18v0.18c0,0.4-0.05,0.76-0.14,1.06c-0.09,0.29-0.25,0.54-0.47,0.79
			c-0.49,0.56-1.12,0.83-1.88,0.83c-0.74,0-1.37-0.27-1.91-0.81c-0.52-0.54-0.79-1.19-0.79-1.93c0-0.78,0.27-1.42,0.81-1.95
			c0.54-0.54,1.19-0.81,1.97-0.81c0.41,0,0.79,0.09,1.15,0.25c0.34,0.16,0.68,0.45,1.01,0.83l-0.58,0.54
			c-0.43-0.58-0.96-0.86-1.59-0.86c-0.56,0-1.03,0.2-1.41,0.58c-0.38,0.38-0.58,0.85-0.58,1.42c0,0.6,0.22,1.08,0.63,1.46
			c0.4,0.36,0.83,0.52,1.28,0.52c0.4,0,0.74-0.13,1.06-0.4c0.31-0.27,0.49-0.6,0.52-0.96H78.9v-0.76H78.93z M85.89,51.89v0.76h-2.34
			v-5.3h0.79v4.54H85.89z M91.25,52.65v-0.76h-2.13v-1.77h2.06v-0.76h-2.06v-1.28h2.13v-0.74h-2.92v5.3H91.25z M48.4,50.43
			l-0.78-1.86l-0.78,1.86H48.4z M48.71,51.19h-2.18l-0.63,1.46H45l2.34-5.3h0.56c0.43,1.06,2.34,5.3,2.34,5.3h-0.9L48.71,51.19z
			 M18.87,52.65l1.46-3.21l0.5,3.21h0.83l-0.94-5.34h-0.23l-1.71,3.75l-1.66-3.75h-0.23l-1.05,5.34h0.83l0.56-3.21l1.42,3.21H18.87z
			 M56.36,47.35v3.68l-3.73-3.71h-0.31v5.34h0.79v-3.73l3.73,3.73h0.31v-5.3H56.36z"/>
	</g>
</g>
</svg>
