<?xml version="1.0" encoding="utf-8"?>
<svg version="1.1" id="Layer_1" xmlns="http://www.w3.org/2000/svg" xmlns:xlink="http://www.w3.org/1999/xlink" x="0px" y="0px"
	 viewBox="0 0 2497.7 515" style="enable-background:new 0 0 2497.7 515;" xml:space="preserve">
<g>
	<path style="fill:#EE3424;" d="M802.1,515h1695.7V2.4H802.1L802.1,515z"/>
	<path style="fill:#9FDDF9;" d="M951.7,257.5c0-81.7-65-148.3-146-151.1V0H0v515h805.6V408.6C886.7,405.8,951.7,339.2,951.7,257.5"
		/>
	<path style="fill:#FFFFFF;" d="M1133.3,207.3c-30.3,0-43.6,28.5-43.6,59.9c0,31,13.3,59.5,43.6,59.5c30.3,0,43.7-28.5,43.7-59.5
		C1176.9,235.8,1163.6,207.3,1133.3,207.3z M1040.3,102.8h51.2v93.8h0.7c12.6-19.1,35.7-27.8,58.8-27.8c37.1,0,77.2,29.9,77.2,98.1
		c0,68.5-40.1,98.4-77.2,98.4c-27.4,0-50.1-8.3-61.3-28.8h-0.8v23.8h-48.7L1040.3,102.8z M1362.6,269c-8.7,7.6-26.7,7.9-42.5,10.8
		c-15.9,3.3-30.3,8.7-30.3,27.4c0,19.1,14.8,23.8,31.4,23.8c40,0,41.5-31.7,41.5-42.9V269z M1244.3,231.1
		c2.8-47.9,45.8-62.4,87.6-62.4c37.1,0,81.8,8.3,81.8,53v97c0,17,1.8,33.9,6.5,41.5h-51.9c-1.8-5.8-3.3-11.9-3.6-18.1
		c-16.2,17-40,23.1-62.7,23.1c-35.4,0-63.5-17.7-63.5-55.9c0-42.2,31.7-52.3,63.5-56.6c31.4-4.7,60.6-3.6,60.6-24.5
		c0-22-15.2-25.2-33.2-25.2c-19.5,0-32.1,7.9-33.9,28.1L1244.3,231.1z M1439.4,173.8h48.7v34.6h0.7c9.4-23.4,34.6-39.7,59.5-39.7
		c3.6,0,7.9,0.8,11.2,1.8v47.7c-4.7-1.1-12.2-1.8-18.4-1.8c-37.5,0-50.5,27-50.5,59.8v84h-51.2L1439.4,173.8z M1696.1,264.7
		c0-30.3-10.5-57.3-43.6-57.3c-28.9,0-41.5,25.2-41.5,53c0,26.7,10.1,55.9,41.5,55.9C1681.7,316.3,1696.1,291.4,1696.1,264.7
		L1696.1,264.7z M1744.8,348.3c0,30.7-10.8,82.6-96.7,82.6c-36.8,0-79.7-17.3-82.2-59.9h50.8c4.7,19.1,20.2,25.6,38.2,25.6
		c28.5,0,41.5-19.4,41.1-46.1V326h-0.8c-11.1,19.5-33.5,28.8-55.9,28.8c-55.9,0-79.7-42.5-79.7-93.8c0-48.3,27.7-92.3,80-92.3
		c24.5,0,43.3,8.3,55.5,30h0.8v-24.9h48.7V348.3z M1887.9,269c-8.6,7.6-26.7,7.9-42.5,10.8c-15.9,3.3-30.3,8.7-30.3,27.4
		c0,19.1,14.8,23.8,31.4,23.8c40,0,41.4-31.7,41.4-42.9V269z M1769.6,231.1c2.9-47.9,45.8-62.4,87.7-62.4c37.1,0,81.8,8.3,81.8,53
		v97c0,17,1.8,33.9,6.5,41.5h-52c-1.9-5.9-3.1-11.9-3.6-18.1c-16.2,17-40,23.1-62.7,23.1c-35.3,0-63.5-17.7-63.5-55.9
		c0-42.2,31.8-52.3,63.5-56.6c31.4-4.7,60.6-3.6,60.6-24.5c0-22-15.1-25.2-33.2-25.2c-19.4,0-32.1,7.9-33.9,28.1L1769.6,231.1z
		 M2017.3,145h-51.2v-42.2h51.2V145z M1966.1,173.8h51.2v186.4h-51.2V173.8z M2043.6,173.8h48.7v26h1.1c13-20.9,35.4-31,57-31
		c54.5,0,68.2,30.7,68.2,76.8v114.7h-51.2V254.9c0-30.7-9-45.8-32.8-45.8c-27.7,0-39.7,15.5-39.7,53.3v97.7h-51.2L2043.6,173.8z
		 M2283,299.7c0.4,22.3,19.1,31.3,39.3,31.3c14.8,0,33.5-5.7,33.5-23.8c0-15.5-21.3-20.9-58.1-28.8c-29.5-6.5-59.1-16.9-59.1-49.7
		c0-47.6,41.1-59.9,81.1-59.9c40.7,0,78.3,13.7,82.2,59.5h-48.7c-1.4-19.8-16.6-25.2-35-25.2c-11.5,0-28.4,2.2-28.4,17.3
		c0,18.4,28.8,20.9,58,27.7c29.9,6.9,59.1,17.7,59.1,52.3c0,49.1-42.5,64.9-85.1,64.9c-43.2,0-85.4-16.2-87.6-65.6L2283,299.7z"/>
	<path style="fill:#EE3424;" d="M231.5,352.4h-29.2L226.4,239c5.1-23.6,1.6-38.8-26.2-38.8c-23.9,0-51.4,14-60.7,57.8l-20.1,94.5
		H90.2l50.6-238.2H170l-18.7,88h0.7c10.6-10.9,28.9-28.2,56.7-28.2c26.9,0,58.4,10.9,47.9,60.4L231.5,352.4z M336.7,331.8
		c41.8,0,59.6-43.1,64.5-66.3c4.9-23.2,5.4-66.3-36.3-66.3c-41.8,0-59.6,43.1-64.5,66.4C295.5,288.7,294.9,331.8,336.7,331.8
		L336.7,331.8z M370.2,174c55.4,0,70.6,46.8,61.2,91.5c-9.6,44.8-44.7,91.5-100.1,91.5c-55.4,0-70.6-46.8-61.1-91.5
		C279.7,220.7,314.9,174,370.2,174 M470.1,178.9h27.5l-5.2,24.6h0.6c8.3-9.3,27.5-29.5,58.7-29.5c31.2,0,37,18.9,40.1,28.2
		c18.1-16.3,32.2-28.2,59-28.2c18.6,0,51.7,9.6,41.3,58.3l-25.5,120.1h-29.2l23.8-112.2c5.1-23.9,1.2-40.1-23.6-40.1
		c-24.5,0-45.7,23.3-50.6,46.4l-22.5,105.8h-29.2l25.6-120.1c3.1-14.6,1.2-32.2-20.4-32.2c-16.6,0-48,10.6-58,57.8l-20.1,94.5h-29.2
		L470.1,178.9z M837.3,251.9c4-26.9-2-51.8-37.4-51.8c-26.9,0-53.4,24.9-59.1,51.8H837.3z M855.3,298c-2.7,8.3-15.9,32.8-40.9,47.4
		c-9.1,5.3-21.8,12-49.6,12c-48.8,0-69.8-36.8-59.1-86.9C717,216.8,752,174,809.4,174c50.1,0,66.2,39.7,53.1,101.1H735.8
		c-7.7,36.1,4.8,57,38.3,57c27.5,0,48.3-21.2,52.1-34.1H855.3z"/>
</g>
</svg>
