<?xml version="1.0" encoding="utf-8"?>
<svg version="1.1" id="Layer_1" xmlns="http://www.w3.org/2000/svg" xmlns:xlink="http://www.w3.org/1999/xlink" x="0px" y="0px"
	width="100px" height="100px" viewBox="0 0 66.7 66.7" style="enable-background:new 0 0 66.7 66.7;" xml:space="preserve">
<g>
	<circle style="fill:#E8E8E8;" cx="33.3" cy="33.3" r="33.3"/>
	<circle style="fill:#FFFFFF;" cx="33.3" cy="33.3" r="32.7"/>
	<g>
		<path style="fill:#00665E;" d="M12,36.5l-0.2-0.3l-0.1-0.3l-0.1-0.3l-0.3-0.3l-0.5-0.8L10.5,34c-0.1-0.1-0.2-0.2-0.3-0.3
			c-0.1-0.1-0.1-0.1-0.1-0.1c-0.1,0-0.2-0.1-0.2-0.1v2.9H8.4v-7.2h2.7c0.3,0,0.6,0.1,0.9,0.2c0.3,0.1,0.5,0.3,0.7,0.5
			c0.2,0.2,0.3,0.4,0.4,0.7c0.1,0.3,0.1,0.5,0.1,0.9c0,0.3-0.1,0.5-0.1,0.7c-0.1,0.3-0.2,0.5-0.3,0.6c-0.1,0.2-0.3,0.3-0.5,0.4
			c-0.2,0.1-0.4,0.1-0.6,0.2c0.1,0.1,0.1,0.1,0.2,0.1l0.1,0.1c0.1,0.1,0.1,0.2,0.2,0.3c0.1,0.1,0.1,0.3,0.3,0.4l0.3,0.5l0.3,0.5
			l0.7,1.2H12L12,36.5z M11.7,31.5c0-0.5-0.2-0.7-0.5-0.9c-0.1,0-0.2-0.1-0.3-0.1c-0.1,0-0.3-0.1-0.5-0.1H9.9v1.9h0.4h0.7
			c0.1,0,0.3-0.1,0.4-0.2C11.6,32,11.7,31.7,11.7,31.5 M15.9,34.3L15.9,34.3c0,0.5,0.1,0.8,0.3,1c0.2,0.2,0.5,0.3,0.8,0.3
			c0.5,0,0.9-0.2,1.3-0.5l0.5,0.8c-0.6,0.5-1.3,0.7-2,0.7c-0.4,0-0.7-0.1-1.1-0.2s-0.6-0.3-0.8-0.5c-0.2-0.3-0.4-0.5-0.5-0.9
			c-0.1-0.3-0.2-0.7-0.2-1.1c0-0.5,0.1-0.9,0.1-1.2c0.1-0.3,0.3-0.6,0.5-0.9c0.2-0.3,0.5-0.4,0.7-0.5c0.3-0.1,0.6-0.2,0.9-0.2
			c0.3,0,0.6,0.1,0.9,0.1s0.5,0.3,0.7,0.4c0.3,0.3,0.4,0.5,0.5,0.9c0.1,0.4,0.2,0.8,0.2,1.4v0.3h-3.1C15.9,34.3,15.9,34.3,15.9,34.3
			L15.9,34.3z M17.5,33.2c0-0.2,0-0.4-0.1-0.5c0-0.1-0.1-0.3-0.1-0.3c-0.1-0.2-0.3-0.3-0.6-0.3c-0.3,0-0.5,0.1-0.6,0.3
			c-0.1,0.2-0.2,0.5-0.2,0.9v0.1h1.6V33.2L17.5,33.2C17.5,33.2,17.5,33.2,17.5,33.2z M24.1,34.8c0,0.3-0.1,0.5-0.1,0.7
			c-0.1,0.2-0.3,0.4-0.5,0.6c-0.2,0.1-0.4,0.3-0.7,0.4c-0.3,0.1-0.6,0.1-0.9,0.1c-0.7,0-1.3-0.2-2.1-0.6l0.5-1
			c0.1,0.1,0.2,0.1,0.4,0.2c0.2,0.1,0.3,0.1,0.5,0.2c0.1,0.1,0.3,0.1,0.5,0.1c0.1,0.1,0.3,0.1,0.5,0.1c0.2,0,0.4-0.1,0.5-0.2
			c0.1-0.1,0.2-0.3,0.2-0.4c0-0.2-0.1-0.3-0.2-0.4s-0.3-0.2-0.6-0.3l-0.6-0.1c-0.2,0-0.3-0.1-0.5-0.2c-0.2-0.1-0.3-0.2-0.4-0.3
			c-0.1-0.1-0.2-0.3-0.2-0.4C20,33.1,20,32.9,20,32.8c0-0.3,0.1-0.5,0.1-0.7c0.1-0.2,0.3-0.4,0.4-0.5c0.2-0.1,0.4-0.3,0.7-0.3
			c0.3-0.1,0.5-0.1,0.9-0.1c0.4,0,0.7,0,1.1,0.1c0.3,0.1,0.5,0.2,0.8,0.3l-0.5,0.9c-0.3-0.1-0.5-0.3-0.7-0.3
			c-0.2-0.1-0.4-0.1-0.6-0.1s-0.3,0.1-0.5,0.1s-0.2,0.2-0.2,0.4c0,0.1,0.1,0.3,0.1,0.3s0.3,0.1,0.5,0.2l0.7,0.1
			c0.1,0.1,0.3,0.1,0.4,0.1c0.1,0.1,0.2,0.1,0.3,0.1c0.1,0.1,0.1,0.1,0.2,0.1c0.1,0.1,0.1,0.1,0.1,0.2
			C24.1,34.2,24.1,34.5,24.1,34.8 M28,36.3c-0.3,0.2-0.7,0.3-1.1,0.3c-0.3,0-0.7-0.1-0.9-0.2c-0.3-0.1-0.4-0.3-0.5-0.5
			c0-0.1-0.1-0.1-0.1-0.1v-0.1v-0.2v-0.3v-2.9h-0.5v-1h0.5v-0.7c0-0.2,0-0.4,0.1-0.6l1.4-0.3c0,0.3-0.1,0.5-0.1,0.8v0.8H28l-0.3,1
			h-0.9v2.7c0,0.3,0.1,0.5,0.1,0.7c0.1,0.1,0.3,0.2,0.5,0.2h0.2c0.1,0,0.2-0.1,0.3-0.1C27.9,35.7,28,36.3,28,36.3z M32.7,36.8
			c-0.1-0.1-0.3-0.1-0.5-0.3s-0.3-0.3-0.3-0.4l-0.1,0.1l-0.1,0.1c-0.3,0.2-0.6,0.3-1.1,0.3c-0.6,0-1.1-0.1-1.3-0.4
			c-0.3-0.3-0.5-0.7-0.5-1.2c0-0.6,0.2-1.1,0.7-1.4c0.5-0.3,1.1-0.4,1.9-0.4h0.1h0.1v-0.2c0-0.3,0-0.5-0.1-0.6
			c-0.1-0.1-0.3-0.2-0.5-0.2c-0.2,0-0.5,0.1-0.7,0.1c-0.3,0.1-0.5,0.3-0.8,0.5l-0.6-1l0.4-0.2c0.1-0.1,0.3-0.1,0.5-0.2
			c0.3-0.1,0.5-0.2,0.7-0.3s0.5-0.1,0.7-0.1c0.5,0,0.8,0.1,1.1,0.3c0.3,0.1,0.5,0.4,0.6,0.7c0,0.1,0,0.1,0.1,0.1
			c0,0.1,0,0.1,0.1,0.2v0.3v0.4L33,34.9v0.4c0,0.1,0,0.2,0.1,0.3c0,0.1,0.1,0.2,0.1,0.3l0.3,0.3L32.7,36.8L32.7,36.8z M31.6,34.2
			c-0.5,0-0.9,0.1-1.1,0.1c-0.2,0.1-0.3,0.3-0.3,0.7c0,0.2,0.1,0.4,0.1,0.5c0.1,0.1,0.3,0.2,0.5,0.2c0.1,0,0.3,0,0.4-0.1
			s0.3-0.1,0.3-0.3L31.6,34.2C31.6,34.2,31.6,34.2,31.6,34.2z M38.1,36.7c-0.2-0.1-0.3-0.3-0.4-0.5l-0.6,0.4
			c-0.3,0.1-0.5,0.1-0.8,0.1c-0.4,0-0.7-0.1-1-0.3c-0.3-0.1-0.5-0.4-0.6-0.6c0-0.1,0-0.3-0.1-0.5v-0.7v-3.4L36,31v3.4v0.5
			c0,0.1,0,0.3,0.1,0.3c0,0.1,0.1,0.1,0.2,0.2c0.1,0.1,0.2,0.1,0.3,0.1c0.2,0,0.3-0.1,0.5-0.1c0.2-0.1,0.3-0.2,0.3-0.3v-3.7l1.3-0.3
			v4.1c0,0.2,0,0.3,0.1,0.5s0.1,0.3,0.3,0.5L38.1,36.7L38.1,36.7z M43.1,32.4c-0.1-0.1-0.3-0.1-0.4-0.1c-0.3,0-0.6,0.1-0.8,0.5v3.7
			h-1.4v-3.5c0-0.3,0-0.7-0.1-0.9c-0.1-0.3-0.1-0.5-0.1-0.6l1.3-0.3c0.1,0.2,0.2,0.5,0.2,0.7c0.1-0.2,0.3-0.4,0.5-0.5
			c0.2-0.1,0.5-0.2,0.7-0.2h0.3c0.1,0,0.1,0.1,0.3,0.1L43.1,32.4L43.1,32.4z M47.8,36.8c-0.1-0.1-0.3-0.2-0.5-0.3
			c-0.1-0.1-0.3-0.3-0.3-0.4l-0.1,0.1c-0.1,0.1-0.1,0.1-0.1,0.1c-0.3,0.2-0.6,0.3-1.1,0.3c-0.6,0-1.1-0.1-1.3-0.4
			c-0.3-0.3-0.5-0.7-0.5-1.2c0-0.6,0.2-1.1,0.7-1.4c0.5-0.3,1.1-0.4,1.9-0.4h0.1h0.1v-0.2c0-0.3,0-0.5-0.1-0.6
			c-0.1-0.1-0.3-0.2-0.5-0.2c-0.2,0-0.5,0.1-0.7,0.1c-0.3,0.1-0.5,0.3-0.8,0.5L44,31.8l0.4-0.2c0.1-0.1,0.3-0.1,0.5-0.2
			c0.3-0.1,0.5-0.2,0.7-0.3s0.5-0.1,0.7-0.1c0.5,0,0.8,0.1,1.1,0.3c0.3,0.1,0.5,0.4,0.6,0.7c0,0.1,0,0.1,0.1,0.1
			c0,0.1,0,0.1,0.1,0.2v0.3V33l-0.1,1.8v0.4c0,0.1,0,0.2,0.1,0.3c0,0.1,0.1,0.2,0.1,0.3c0.1,0.1,0.1,0.2,0.3,0.3L47.8,36.8
			L47.8,36.8z M46.7,34.2c-0.5,0-0.9,0.1-1.1,0.1c-0.2,0.1-0.3,0.3-0.3,0.7c0,0.2,0.1,0.4,0.1,0.5c0.1,0.1,0.3,0.2,0.5,0.2
			c0.1,0,0.3,0,0.4-0.1s0.3-0.1,0.3-0.3L46.7,34.2C46.7,34.2,46.7,34.2,46.7,34.2z M52.7,36.5v-3.5c0-0.3-0.1-0.5-0.1-0.6
			c-0.1-0.1-0.2-0.1-0.4-0.1c-0.1,0-0.3,0.1-0.5,0.1c-0.2,0.1-0.3,0.2-0.5,0.3v3.7h-1.3v-3.9c0-0.2-0.1-0.5-0.1-0.7
			c0-0.2-0.1-0.4-0.1-0.6l1.2-0.3c0.1,0.2,0.2,0.4,0.2,0.7l0.3-0.2c0.1-0.1,0.2-0.1,0.3-0.2c0.1-0.1,0.3-0.1,0.5-0.2
			c0.2-0.1,0.3-0.1,0.5-0.1c0.3,0,0.6,0.1,0.8,0.2c0.3,0.1,0.4,0.3,0.5,0.5c0.1,0.2,0.1,0.5,0.1,0.7v3.9L52.7,36.5
			C52.6,36.5,52.7,36.5,52.7,36.5L52.7,36.5z M58.3,36.3c-0.3,0.2-0.7,0.3-1.1,0.3c-0.3,0-0.7-0.1-0.9-0.2c-0.3-0.1-0.4-0.3-0.5-0.5
			c0-0.1-0.1-0.1-0.1-0.1v-0.1v-0.2v-0.3v-2.9h-0.5v-1h0.5v-0.7c0-0.2,0-0.4,0.1-0.6l1.4-0.3c0,0.3-0.1,0.5-0.1,0.8v0.8h1.3l-0.3,1
			h-0.8v2.7c0,0.3,0,0.5,0.1,0.7s0.2,0.2,0.5,0.2h0.2c0.1,0,0.2-0.1,0.3-0.1C58.1,35.7,58.3,36.3,58.3,36.3z"/>
		<path style="fill:#00665E;" d="M10.1,25.7H9.3v2.4H9v-2.4H8.3v-0.2H10L10.1,25.7z M11.7,28.1v-1.3c0-0.1,0-0.1-0.1-0.2
			s-0.1-0.1-0.1-0.1l-0.1-0.1h-0.1c-0.1,0-0.2,0-0.3,0.1l-0.3,0.3V28h-0.3v-2.3v-0.2v-0.1v-0.1l0.3-0.1v0.1v0.1v0.2v0.5v0.1v0.1v0.1
			c0.1-0.1,0.2-0.1,0.3-0.2c0.1-0.1,0.2-0.1,0.3-0.1c0.1,0,0.2,0,0.3,0.1l0.2,0.2c0,0.1,0.1,0.1,0.1,0.1s0.1,0.1,0.1,0.1v1.3
			C12.1,27.9,11.7,28.1,11.7,28.1z M12.9,27.1L12.9,27.1v0.3c0,0.1,0,0.1,0.1,0.2l0.2,0.2c0.1,0.1,0.2,0.1,0.3,0.1
			c0.2,0,0.3-0.1,0.5-0.2l0.1,0.2c-0.1,0.1-0.2,0.1-0.3,0.2c-0.1,0.1-0.3,0.1-0.3,0.1c-0.3,0-0.5-0.1-0.6-0.3
			c-0.1-0.2-0.2-0.4-0.2-0.7c0-0.1,0-0.3,0.1-0.4c0-0.1,0.1-0.2,0.2-0.3c0.1-0.2,0.3-0.3,0.6-0.3c0.2,0,0.4,0.1,0.5,0.2l0.1,0.1
			c0,0.1,0.1,0.1,0.1,0.1s0.1,0.1,0.1,0.2v0.3v0.1L12.9,27.1L12.9,27.1C12.9,27.1,12.9,27.1,12.9,27.1z M13.7,26.9v-0.3
			c0-0.1-0.1-0.1-0.1-0.2s-0.1-0.1-0.1-0.1h-0.2c-0.3,0-0.4,0.2-0.5,0.6L13.7,26.9C13.7,27,13.7,26.9,13.7,26.9z M43.9,40.5
			c-0.1,0-0.2,0.1-0.3,0.1c-0.1,0-0.3,0.1-0.4,0.1c-0.3,0-0.6-0.1-0.8-0.3c-0.1-0.1-0.2-0.3-0.3-0.5S42,39.5,42,39.3
			c0-0.3,0-0.5,0.1-0.7c0.1-0.2,0.2-0.3,0.3-0.5c0.2-0.2,0.4-0.3,0.7-0.3c0.3,0,0.5,0.1,0.7,0.3l-0.1,0.2c-0.1-0.1-0.2-0.1-0.3-0.1
			s-0.2-0.1-0.3-0.1c-0.1,0-0.3,0-0.4,0.1c-0.1,0.1-0.2,0.2-0.3,0.3c-0.1,0.2-0.1,0.4-0.1,0.7c0,0.2,0,0.3,0.1,0.5
			c0,0.1,0.1,0.3,0.1,0.3l0.1,0.1c0.1,0,0.1,0.1,0.1,0.1s0.1,0.1,0.2,0.1h0.2c0.2,0,0.3,0,0.5-0.1v-0.8h-0.6L43,39.1h0.9L43.9,40.5
			L43.9,40.5z M45.4,38.9L45.4,38.9c-0.2,0-0.3,0.1-0.4,0.1c-0.1,0.1-0.1,0.1-0.1,0.1v0.2v1.2h-0.3v-1.5v-0.2l-0.1-0.1
			c0-0.1,0-0.1-0.1-0.1l0.3-0.1v0.1v0.1v0.1c0.1-0.1,0.1-0.2,0.3-0.2c0.1-0.1,0.2-0.1,0.3-0.1h0.1l0,0l0,0L45.4,38.9L45.4,38.9z
			 M47.4,39.7c0,0.1,0,0.3-0.1,0.4c-0.1,0.1-0.1,0.2-0.2,0.3c-0.1,0.1-0.1,0.1-0.3,0.2c-0.1,0.1-0.2,0.1-0.3,0.1
			c-0.3,0-0.5-0.1-0.6-0.3c-0.1-0.2-0.2-0.4-0.2-0.7c0-0.3,0.1-0.5,0.2-0.7c0.1-0.2,0.3-0.3,0.6-0.3c0.1,0,0.3,0,0.4,0.1
			c0.1,0.1,0.2,0.1,0.3,0.3c0.1,0.1,0.1,0.2,0.1,0.3C47.4,39.3,47.4,39.5,47.4,39.7 M47.1,39.7c0-0.3,0-0.5-0.1-0.6
			c-0.1-0.1-0.1-0.1-0.2-0.2c-0.1-0.1-0.1-0.1-0.3-0.1c-0.1,0-0.1,0-0.3,0.1c-0.1,0.1-0.1,0.1-0.1,0.1s-0.1,0.1-0.1,0.2v0.3v0.4
			c0,0.1,0.1,0.2,0.1,0.3s0.1,0.1,0.1,0.1s0.1,0.1,0.2,0.1c0.1,0,0.2,0,0.3-0.1s0.1-0.1,0.1-0.2c0-0.1,0-0.1,0.1-0.2
			C47.1,39.9,47.1,39.7,47.1,39.7 M49.5,40.7c-0.1,0-0.1-0.1-0.1-0.1s-0.1-0.1-0.1-0.1c-0.1,0.2-0.3,0.3-0.6,0.3
			c-0.1,0-0.2,0-0.3-0.1l-0.2-0.2v-0.1v-0.1v-1.5l0.2-0.1V40c0,0.1,0,0.1,0.1,0.2c0,0.1,0.1,0.1,0.1,0.1c0,0,0.1,0.1,0.1,0.1h0.1
			c0.1,0,0.2,0,0.3-0.1s0.2-0.1,0.2-0.3v-1.4l0.3-0.1V40v0.3c0,0.1,0.1,0.1,0.1,0.1L49.5,40.7L49.5,40.7L49.5,40.7z M51.9,39.6V40
			c0,0.1-0.1,0.2-0.1,0.3c-0.1,0.1-0.1,0.2-0.3,0.3c-0.1,0.1-0.2,0.1-0.3,0.1c-0.1,0-0.2,0-0.3-0.1c-0.1,0-0.1-0.1-0.3-0.1v0.9
			l-0.3,0.1v-2.3v-0.2v-0.1v-0.1l0.3-0.1v0.1v0.1v0.1c0.2-0.2,0.3-0.3,0.5-0.3c0.1,0,0.2,0,0.3,0.1s0.2,0.1,0.2,0.2
			c0.1,0.1,0.1,0.2,0.1,0.3C51.9,39.3,51.9,39.5,51.9,39.6 M51.5,39.7v-0.3l-0.1-0.3c0-0.1-0.1-0.1-0.1-0.1
			c-0.1-0.1-0.1-0.1-0.2-0.1c-0.2,0-0.3,0.1-0.5,0.3v1c0.2,0.2,0.3,0.3,0.5,0.3c0.1,0,0.2,0,0.3-0.1s0.1-0.1,0.1-0.2
			c0-0.1,0.1-0.1,0.1-0.2L51.5,39.7 M55.1,39.6V40c0,0.1-0.1,0.2-0.1,0.3c-0.1,0.1-0.1,0.2-0.3,0.3c-0.1,0.1-0.2,0.1-0.3,0.1
			c-0.1,0-0.2,0-0.3-0.1s-0.1-0.1-0.3-0.1v0.9l-0.3,0.1v-2.3v-0.2v-0.1v-0.1l0.3-0.1v0.1v0.1v0.1c0.2-0.2,0.3-0.3,0.5-0.3
			c0.1,0,0.2,0,0.3,0.1s0.2,0.1,0.2,0.2c0.1,0.1,0.1,0.2,0.1,0.3C55.1,39.3,55.1,39.5,55.1,39.6 M54.8,39.7v-0.3l-0.1-0.3
			c0-0.1-0.1-0.1-0.1-0.1c-0.1-0.1-0.1-0.1-0.2-0.1c-0.2,0-0.3,0.1-0.5,0.3v1c0.2,0.2,0.3,0.3,0.5,0.3c0.1,0,0.2,0,0.3-0.1
			s0.1-0.1,0.1-0.2c0.1-0.1,0.1-0.1,0.1-0.2L54.8,39.7 M56.3,40.6h-0.1h-0.1c-0.1,0-0.2,0-0.2-0.1c0,0-0.1-0.1-0.1-0.1v-0.2v-2.1V38
			v-0.1v-0.1l0.3-0.1v0.1v0.1v0.2v2v0.1h0.1l0,0l0,0L56.3,40.6L56.3,40.6C56.3,40.6,56.3,40.6,56.3,40.6z M58.1,40.4
			c-0.1,0.1-0.2,0.1-0.3,0.2s-0.2,0.1-0.3,0.1c-0.3,0-0.5-0.1-0.6-0.3c-0.1-0.1-0.1-0.2-0.1-0.3s-0.1-0.3-0.1-0.4
			c0-0.2,0-0.4,0.1-0.5c0.1-0.1,0.1-0.2,0.2-0.3c0.1-0.1,0.3-0.2,0.5-0.2c0.1,0,0.2,0,0.3,0.1c0.1,0.1,0.1,0.1,0.2,0.1L57.9,39
			c-0.1-0.1-0.1-0.1-0.2-0.1h-0.2c-0.1,0-0.1,0-0.2,0.1c-0.1,0.1-0.1,0.1-0.1,0.1c-0.1,0.1-0.1,0.3-0.1,0.7c0,0.2,0.1,0.4,0.1,0.5
			c0.1,0.1,0.2,0.2,0.3,0.2c0.1,0,0.3-0.1,0.4-0.2C57.9,40.3,58.1,40.4,58.1,40.4z"/>
	</g>
</g>
</svg>
