<?xml version="1.0"?>
<svg xmlns="http://www.w3.org/2000/svg" xmlns:xlink="http://www.w3.org/1999/xlink" xmlns:svgjs="http://svgjs.com/svgjs" version="1.1" width="512" height="512" x="0" y="0" viewBox="0 0 512 512" style="enable-background:new 0 0 512 512" xml:space="preserve" class=""><g><g xmlns="http://www.w3.org/2000/svg"><g><g><g><g><g><g><g><g><g><g><g><circle cx="256" cy="256" fill="#f1f1f1" r="256" data-original="#994aff" style="" class=""/></g></g></g></g></g></g></g></g></g></g></g><path d="m370.768 192.237-114.885-114.886.975 228.796-3.189 3.189-186.54 82.044 107.364 107.364c25.603 8.593 53.01 13.256 81.507 13.256 141.385 0 256-114.615 256-256 0-29.649-5.057-58.113-14.328-84.597l-53.035-53.035z" fill="#f1f1f1" data-original="#812af2" style="" class=""/><g><path d="m67.129 192.857h377.508v138.782h-377.508z" fill="#3340dc" data-original="#3340dc" style=""/><path d="m255.883 192.857h188.754v138.782h-188.754z" fill="#1b2ddd" data-original="#1b2ddd" style=""/><g><path d="m429.91 133.095-19.303-4.31-33.289 10.191 17.517 29.195 29.194 17.516 10.191-33.29z" fill="#ffffff" data-original="#ffffff" style=""/><g fill="#b30042"><path d="m256.562 188.995h168.838v66.059h-168.838z" transform="matrix(.707 -.707 .707 .707 -57.124 306.139)" fill="#b30042" data-original="#b30042" style=""/><path d="m410.607 128.785 23.613 23.613 10.417-34.03z" fill="#b30042" data-original="#b30042" style=""/></g></g><g><path d="m255.883 98.179 16.696 10.601 16.334 30.745-33.03 8.258-8.538-31.087z" fill="#d7e8ff" data-original="#d7e8ff" style=""/><path d="m255.883 98.179v49.604l-33.03-8.258 16.333-30.745z" fill="#ffffff" data-original="#ffffff" style=""/><g><path d="m255.883 139.525h33.03v168.837h-33.03l-21.907-113.265z" fill="#00a963" data-original="#00a963" style=""/><path d="m222.853 139.525h33.03v168.838h-33.03z" fill="#00c379" transform="matrix(-1 0 0 -1 478.736 447.887)" data-original="#00c379" style=""/></g><g><path d="m272.58 108.781-16.697-31.43-6.82 31.43z" fill="#00a963" data-original="#00a963" style=""/><path d="m255.883 108.781v-31.43l-16.697 31.43z" fill="#00c379" data-original="#00c379" style=""/></g></g><g><path d="m135.874 109.241h66.059v221.803h-66.059z" fill="#ffb806" transform="matrix(.707 -.707 .707 .707 -106.194 183.911)" data-original="#ffb806" style=""/><g fill="#f49c0f"><path d="m85.745 168.279h35.665v16.058h-35.665z" transform="matrix(.707 -.707 .707 .707 -94.332 124.88)" fill="#f49c0f" data-original="#f49c0f" style=""/><path d="m108.336 190.87h35.665v16.058h-35.665z" transform="matrix(.707 -.707 .707 .707 -103.69 147.471)" fill="#f49c0f" data-original="#f49c0f" style=""/><path d="m131.045 213.58h35.665v16.058h-35.665z" transform="matrix(.707 -.707 .707 .707 -113.096 170.18)" fill="#f49c0f" data-original="#f49c0f" style=""/><path d="m153.909 236.444h35.665v16.058h-35.665z" transform="matrix(.707 -.707 .707 .707 -122.567 193.044)" fill="#f49c0f" data-original="#f49c0f" style=""/></g></g><path d="m67.129 252.598h377.508v138.782h-377.508z" fill="#3340dc" data-original="#3340dc" style=""/><path d="m255.883 252.598h188.754v138.782h-188.754z" fill="#1b2ddd" data-original="#1b2ddd" style=""/><path d="m255.883 262.093-188.754.155v-16.058l188.754-.155 17.16 8.029z" fill="#d7e8ff" data-original="#d7e8ff" style=""/><g fill="#adcfff"><path d="m413.771 258.95c-8.277 0-14.988 6.71-14.988 14.988v43.535h29.975v-43.535c0-8.278-6.71-14.988-14.987-14.988z" fill="#adcfff" data-original="#adcfff" style=""/><path d="m444.637 262.248-188.754-.31v-16.058l188.754.31z" fill="#adcfff" data-original="#adcfff" style=""/></g></g></g></g></svg>
