<?xml version="1.0" encoding="utf-8"?>
<svg version="1.1" id="Layer_1" xmlns="http://www.w3.org/2000/svg" xmlns:xlink="http://www.w3.org/1999/xlink" x="0px" y="0px"
	width="100px" height="100px" viewBox="0 0 66.8 66.7" style="enable-background:new 0 0 66.8 66.7;" xml:space="preserve">
<g>
	<path style="fill:#006FD6;" d="M57.8,55.9l-0.2,0.2C57.7,56.1,57.7,56,57.8,55.9z"/>
	<path style="fill:#006FD6;" d="M57.5,56.2C57.5,56.2,57.6,56.2,57.5,56.2C57.6,56.2,57.6,56.2,57.5,56.2L57.5,56.2z M46.9,51.8
		l-4.1,4.5L46.9,51.8l-0.1-0.1l-4.1,4.5H16.2l0,0h-0.1V34.9H7.5L18.3,11h10.3l3.5,8.1v-8.3h12.7l2.1,6.1l2.3-6.1H58
		C51.9,4.2,43.1,0,33.3,0C24.1,0,15.8,3.7,9.7,9.7C3.7,15.8,0,24.1,0,33.3s3.7,17.5,9.7,23.6c6.1,6.1,14.4,9.7,23.6,9.7
		s17.5-3.7,23.6-9.7l0.7-0.7h-6.7C50.9,56.3,46.9,51.8,46.9,51.8z M62,16.3v19.6L60.9,37l-0.7,0.8l-0.9,1l0,0l0,0l0,0l-5.3,5.5
		l2.3,2.2l0,0l5.2,4.9c3.4-5.2,5.3-11.4,5.3-18.1C66.7,27.1,64.9,21.3,62,16.3z M47.1,25.3l-0.2-0.1l-4.1-11.5h-7.9v18.5h4.9V19.3
		l0.2,0.1l4.7,12.9h4.4l4.7-12.9v12.9h5.3v-0.3V13.8h-7.9L47.1,25.3z M59.1,35v-0.2l-6.6,0.1l-5.3,5.9l-5.5-5.9H35l8.8,9.4l-8.7,9.2
		h6.5l5.4-5.9l5.5,6h6.7l-8.8-9.3L59.1,35z M27.5,28.5l1.5,3.7h5.8l-8.2-18.6h-6.5l-8.3,18.6h5.6l1.6-3.7
		C19,28.5,27.5,28.5,27.5,28.5z M25.7,24.4L25.7,24.4L25.7,24.4L25.7,24.4z M22.5,19.9l0.6-1.5v-0.1l0,0l2.5,5.9h-4.9L22.5,19.9z
		 M20.7,24.3l5,0.1l0,0L20.7,24.3C20.7,24.3,20.7,24.3,20.7,24.3z M20.7,24.3L20.7,24.3L20.7,24.3L20.7,24.3z M34.9,39.3v-4.3H19
		v18.5h15.9v-4.3H24.1v-2.9h10.5v-4.2H24.1v-2.9L34.9,39.3z"/>
</g>
</svg>
