<?xml version="1.0"?>
<svg xmlns="http://www.w3.org/2000/svg" xmlns:xlink="http://www.w3.org/1999/xlink" xmlns:svgjs="http://svgjs.com/svgjs" version="1.1" width="512" height="512" x="0" y="0" viewBox="0 0 512 512" style="enable-background:new 0 0 512 512" xml:space="preserve" class=""><g>
<circle xmlns="http://www.w3.org/2000/svg" style="" cx="256" cy="256" r="256" fill="#f1f1f1" data-original="#005c83" class=""/>
<path xmlns="http://www.w3.org/2000/svg" style="" d="M512,256c0-1.167-0.029-2.326-0.044-3.489l-76.457-76.983l-0.37,0.572l-52.324-52.041l-19.309,32.332  l-56.79-56.79l-24.801,99.568L91.854,351.762L252.042,511.95c1.319,0.02,2.635,0.05,3.958,0.05C397.385,512,512,397.385,512,256z" fill="#f1f1f1" data-original="#00263f" class=""/>
<polygon xmlns="http://www.w3.org/2000/svg" style="" points="260.985,406.702 198.086,427.93 153.832,301.429 216.732,280.2 " fill="#ae4e32" data-original="#ae4e32"/>
<path xmlns="http://www.w3.org/2000/svg" style="" d="M391.053,340.709c0,0-147.968-40.769-247.807-5.843l-26.665-76.223  C216.42,223.717,306.706,99.6,306.706,99.6L391.053,340.709z" fill="#ffffff" data-original="#ffffff" class=""/>
<path xmlns="http://www.w3.org/2000/svg" style="" d="M132.753,304.872l10.493,29.995c99.84-34.927,247.808,5.843,247.808,5.843l-42.635-121.875  L132.753,304.872z" fill="#e0e0e0" data-original="#e0e0e0" class=""/>
<path xmlns="http://www.w3.org/2000/svg" style="" d="M306.706,99.6c0,0-11.298,15.526-30.305,37.131l67.809,193.835  c28.33,5.046,46.844,10.143,46.844,10.143L306.706,99.6z" fill="#ff6838" data-original="#ff6838" class=""/>
<path xmlns="http://www.w3.org/2000/svg" style="" d="M310.425,233.991l33.785,96.575c28.33,5.046,46.844,10.143,46.844,10.143l-42.635-121.875  L310.425,233.991z" fill="#ae4e32" data-original="#ae4e32"/>
<polygon xmlns="http://www.w3.org/2000/svg" style="" points="91.854,351.762 143.246,334.867 116.581,258.644 65.526,276.504 " fill="#ff6838" data-original="#ff6838" class=""/>
<polygon xmlns="http://www.w3.org/2000/svg" style="" points="82.468,324.933 91.854,351.762 143.246,334.867 132.753,304.872 " fill="#ae4e32" data-original="#ae4e32"/>
<rect xmlns="http://www.w3.org/2000/svg" x="396.394" y="162.883" transform="matrix(-0.3905 -0.9206 0.9206 -0.3905 382.1416 650.4584)" style="" width="20" height="71.69" fill="#ffdc00" data-original="#ffdc00"/>
<polygon xmlns="http://www.w3.org/2000/svg" style="" points="443.31,193.939 438.922,183.595 372.724,211.127 377.31,221.939 " fill="#ffc000" data-original="#ffc000"/>
<rect xmlns="http://www.w3.org/2000/svg" x="352.076" y="117.651" transform="matrix(-0.9167 -0.3996 0.3996 -0.9167 635.4045 425.6835)" style="" width="20" height="57.912" fill="#ffdc00" data-original="#ffdc00"/>
<rect xmlns="http://www.w3.org/2000/svg" x="382.282" y="258.281" transform="matrix(-0.972 -0.2348 0.2348 -0.972 747.9791 625.6229)" style="" width="57.909" height="19.999" fill="#ffc000" data-original="#ffc000"/>
<g xmlns="http://www.w3.org/2000/svg">
</g>
<g xmlns="http://www.w3.org/2000/svg">
</g>
<g xmlns="http://www.w3.org/2000/svg">
</g>
<g xmlns="http://www.w3.org/2000/svg">
</g>
<g xmlns="http://www.w3.org/2000/svg">
</g>
<g xmlns="http://www.w3.org/2000/svg">
</g>
<g xmlns="http://www.w3.org/2000/svg">
</g>
<g xmlns="http://www.w3.org/2000/svg">
</g>
<g xmlns="http://www.w3.org/2000/svg">
</g>
<g xmlns="http://www.w3.org/2000/svg">
</g>
<g xmlns="http://www.w3.org/2000/svg">
</g>
<g xmlns="http://www.w3.org/2000/svg">
</g>
<g xmlns="http://www.w3.org/2000/svg">
</g>
<g xmlns="http://www.w3.org/2000/svg">
</g>
<g xmlns="http://www.w3.org/2000/svg">
</g>
</g></svg>
