<?xml version="1.0" encoding="utf-8"?>
<svg version="1.1" id="Layer_1" xmlns="http://www.w3.org/2000/svg" xmlns:xlink="http://www.w3.org/1999/xlink" x="0px" y="0px"
	width="100px" height="100px" viewBox="0 0 66.7 66.7" style="enable-background:new 0 0 66.7 66.7;" xml:space="preserve">
<g>
	<circle style="fill:#E8E8E8;" cx="33.3" cy="33.3" r="33.3"/>
	<circle style="fill:#FFFFFF;" cx="33.3" cy="33.3" r="32.7"/>
	<path style="fill:#E51636;" d="M7.9,33.3c0-10.5,11.4-19,25.4-19s25.4,8.5,25.4,19.1s-11.4,19-25.4,19S7.9,43.9,7.9,33.3"/>
	<g>
		<path style="fill:#FFFFFF;" d="M38.4,37.7c0-2.5,1.9-4.3,4.3-4.3c0.9,0,1.8,0.2,2.5,0.7v1.1c-0.5-0.4-1.3-0.7-2.5-0.7
			c-1.8,0-3,1.3-3,3.2c0,1.9,1.3,3.2,3,3.2c1.1,0,1.7-0.2,2.5-0.7v1.2c-0.7,0.5-1.5,0.7-2.5,0.7C40.1,42,38.4,40.1,38.4,37.7
			 M46.5,33.6v8.1H52v-1.1h-4.3v-2.5h3.7v-1.1h-3.7v-2.3h4v-1.1L46.5,33.6L46.5,33.6C46.5,33.7,46.5,33.6,46.5,33.6z M35.9,41.7h1.2
			v-8.1h-1.2V41.7L35.9,41.7L35.9,41.7z M23,33.6v8.1h1.2v-3.4h3.5v-1.2h-3.5v-2.4h3.9v-1.1L23,33.6C23,33.6,23,33.6,23,33.6z"/>
		<path style="fill:#FFFFFF;" d="M14.6,37.7c0-1.9,1.3-3.2,3-3.2c1.7,0,3,1.3,3,3.2s-1.3,3.2-3,3.2C15.9,40.9,14.6,39.5,14.6,37.7
			 M13.4,37.7c0,2.5,1.8,4.3,4.3,4.3c2.4,0,4.3-1.9,4.3-4.3s-1.8-4.3-4.3-4.3S13.4,35.3,13.4,37.7 M29.4,33.6v8.1h1.2v-3.4h3.5v-1.2
			h-3.5v-2.4h3.8v-1.1L29.4,33.6L29.4,33.6L29.4,33.6z M36.1,25.1c0,1.8,1.3,2.2,2.4,2.5c0.8,0.3,1.7,0.5,1.7,1.3
			c0,0.8-0.9,1.2-1.7,1.2s-1.6-0.3-2.3-0.8v1.2c0.5,0.5,1.5,0.8,2.3,0.8c1.7,0,2.9-1.1,2.9-2.5c0-1.6-1.3-1.9-2.3-2.3
			c-0.9-0.3-1.7-0.5-1.7-1.4c0-0.5,0.3-1.1,1.5-1.1c0.6,0,1.1,0.1,1.9,0.6l0.1,0.1v-1.3c-0.5-0.3-1.2-0.5-1.9-0.5
			C36.9,22.8,36.1,24.2,36.1,25.1 M41.9,23v1.1h2.6v7.1h1.2v-7.1h2.6V23L41.9,23C41.9,23,41.9,23,41.9,23z"/>
		<path style="fill:#FFFFFF;" d="M28.1,27.1c0-1.9,1.3-3.2,3-3.2c1.7,0,3,1.3,3,3.2s-1.3,3.2-3,3.2C29.3,30.2,28.1,28.9,28.1,27.1
			 M26.8,27.1c0,2.5,1.8,4.3,4.3,4.3c2.4,0,4.3-1.9,4.3-4.3s-1.8-4.3-4.3-4.3S26.8,24.6,26.8,27.1 M23.3,24c0.6,0,1.7,0.2,1.7,1.4
			s-1,1.4-1.7,1.4h-1.5v-2.7L23.3,24L23.3,24z M20.6,23v8.2h1.2v-3.4h1.7c2.5,0,2.6-1.9,2.6-2.4S25.9,23,23.5,23L20.6,23"/>
	</g>
	<path style="fill:#E51636;" d="M58.3,16.6c0,0.5-0.2,1-0.5,1.3c-0.3,0.3-0.8,0.5-1.3,0.5c-0.5,0-0.9-0.2-1.3-0.5
		c-0.3-0.3-0.5-0.8-0.5-1.3s0.2-1,0.5-1.3c0.3-0.3,0.8-0.5,1.3-0.5c0.5,0,0.9,0.2,1.3,0.5C58.1,15.6,58.3,16.1,58.3,16.6 M58,16.6
		c0-0.4-0.2-0.8-0.5-1.1c-0.3-0.3-0.7-0.5-1.1-0.5c-0.5,0-0.8,0.1-1.1,0.5c-0.3,0.3-0.5,0.7-0.5,1.1c0,0.4,0.2,0.8,0.5,1.1
		c0.3,0.3,0.7,0.5,1.1,0.5c0.5,0,0.8-0.1,1.1-0.5C57.8,17.4,58,17,58,16.6 M57.3,17.5h-0.4l-0.5-0.7h-0.1h-0.1v0.7h-0.3v-1.9h0.4
		c0.5,0,0.7,0.2,0.7,0.5c0,0.2-0.1,0.4-0.3,0.5L57.3,17.5C57.3,17.5,57.3,17.5,57.3,17.5z M56.7,16.3c0-0.1-0.1-0.3-0.4-0.3h-0.1
		v0.5h0.1C56.6,16.5,56.7,16.4,56.7,16.3"/>
</g>
</svg>
