<?xml version="1.0"?>
<svg xmlns="http://www.w3.org/2000/svg" xmlns:xlink="http://www.w3.org/1999/xlink" xmlns:svgjs="http://svgjs.com/svgjs" version="1.1" width="512" height="512" x="0" y="0" viewBox="0 0 512 512" style="enable-background:new 0 0 512 512" xml:space="preserve" class=""><g>
<circle xmlns="http://www.w3.org/2000/svg" style="" cx="256" cy="256" r="256" fill="#f1f1f1" data-original="#e6f3ff" class=""/>
<path xmlns="http://www.w3.org/2000/svg" style="" d="M512,256c0-10.23-0.619-20.313-1.784-30.229L398.22,113.778l-229.566,82.46l-86.771,31.318  l116.207,116.207l-91.21,28.601L246.317,511.8c3.215,0.119,6.439,0.2,9.683,0.2C397.384,512,512,397.384,512,256z" fill="#f1f1f1" data-original="#cfdbe6" class=""/>
<rect xmlns="http://www.w3.org/2000/svg" x="113.776" y="224.539" style="" width="284.444" height="142.222" fill="#b97850" data-original="#b97850" class=""/>
<rect xmlns="http://www.w3.org/2000/svg" x="255.431" y="224.539" style="" width="142.791" height="142.222" fill="#935635" data-original="#935635" class=""/>
<polygon xmlns="http://www.w3.org/2000/svg" style="" points="113.776,113.778 81.884,227.556 255.424,227.556 255.424,113.778 " fill="#804000" data-original="#804000" class=""/>
<polygon xmlns="http://www.w3.org/2000/svg" style="" points="398.22,113.778 255.424,113.778 255.424,227.556 430.113,227.556 " fill="#602e01" data-original="#602e01"/>
<polygon xmlns="http://www.w3.org/2000/svg" style="" points="139.828,113.778 113.776,227.556 255.424,227.556 255.424,113.778 " fill="#935635" data-original="#935635" class=""/>
<g xmlns="http://www.w3.org/2000/svg">
	<polygon style="" points="372.171,113.778 255.424,113.778 255.424,227.556 398.22,227.556  " fill="#804000" data-original="#804000" class=""/>
	<polygon style="" points="163.063,113.778 142.22,227.556 255.424,227.556 255.424,113.778  " fill="#804000" data-original="#804000" class=""/>
</g>
<polygon xmlns="http://www.w3.org/2000/svg" style="" points="348.936,113.778 255.424,113.778 255.424,227.556 369.776,227.556 " fill="#602e01" data-original="#602e01"/>
<polygon xmlns="http://www.w3.org/2000/svg" style="" points="186.296,113.778 170.665,227.556 255.424,227.556 255.424,113.778 " fill="#935635" data-original="#935635" class=""/>
<g xmlns="http://www.w3.org/2000/svg">
	<polygon style="" points="325.703,113.778 255.424,113.778 255.424,227.556 341.332,227.556  " fill="#804000" data-original="#804000" class=""/>
	<polygon style="" points="209.53,113.778 199.109,227.556 255.424,227.556 255.424,113.778  " fill="#804000" data-original="#804000" class=""/>
</g>
<polygon xmlns="http://www.w3.org/2000/svg" style="" points="302.468,113.778 255.424,113.778 255.424,227.556 312.887,227.556 " fill="#602e01" data-original="#602e01"/>
<polygon xmlns="http://www.w3.org/2000/svg" style="" points="232.765,113.778 227.554,227.556 255.424,227.556 255.424,113.778 " fill="#935635" data-original="#935635" class=""/>
<polygon xmlns="http://www.w3.org/2000/svg" style="" points="279.233,113.778 255.424,113.778 255.424,227.556 284.443,227.556 " fill="#804000" data-original="#804000" class=""/>
<rect xmlns="http://www.w3.org/2000/svg" x="142.222" y="252.983" style="" width="85.333" height="113.778" fill="#ffd15d" data-original="#ffd15d" class=""/>
<rect xmlns="http://www.w3.org/2000/svg" x="106.88" y="353.401" style="" width="298.236" height="18.963" fill="#804000" data-original="#804000" class=""/>
<rect xmlns="http://www.w3.org/2000/svg" x="255.431" y="353.401" style="" width="149.687" height="18.963" fill="#602e01" data-original="#602e01"/>
<rect xmlns="http://www.w3.org/2000/svg" x="273.239" y="256" style="" width="113.778" height="56.889" fill="#f9b54c" data-original="#f9b54c"/>
<g xmlns="http://www.w3.org/2000/svg">
</g>
<g xmlns="http://www.w3.org/2000/svg">
</g>
<g xmlns="http://www.w3.org/2000/svg">
</g>
<g xmlns="http://www.w3.org/2000/svg">
</g>
<g xmlns="http://www.w3.org/2000/svg">
</g>
<g xmlns="http://www.w3.org/2000/svg">
</g>
<g xmlns="http://www.w3.org/2000/svg">
</g>
<g xmlns="http://www.w3.org/2000/svg">
</g>
<g xmlns="http://www.w3.org/2000/svg">
</g>
<g xmlns="http://www.w3.org/2000/svg">
</g>
<g xmlns="http://www.w3.org/2000/svg">
</g>
<g xmlns="http://www.w3.org/2000/svg">
</g>
<g xmlns="http://www.w3.org/2000/svg">
</g>
<g xmlns="http://www.w3.org/2000/svg">
</g>
<g xmlns="http://www.w3.org/2000/svg">
</g>
</g></svg>
