<?xml version="1.0" encoding="utf-8"?>
<svg version="1.1" id="Layer_1" xmlns="http://www.w3.org/2000/svg" xmlns:xlink="http://www.w3.org/1999/xlink" x="0px" y="0px"
	width="100px" height="100px" viewBox="0 0 100 100" style="enable-background:new 0 0 100 100;" xml:space="preserve">
<g>
	<path style="fill:#E8E8E8;" d="M50,0c27.6,0,50,22.4,50,50s-22.4,50-50,50S0,77.6,0,50S22.4,0,50,0"/>
	<path style="fill:#FFFFFF;" d="M50,1c27.1,0,49,21.9,49,49S77.1,99,50,99S1,77.1,1,50S22.9,1,50,1"/>
	<g>
		<path id="path94" style="fill:#ED1C2E;" d="M21.6,67.9c0.1-10.4,1.9-15.8,6-24.3c0.5-1-7.7-1.2-7-10.8c0-0.1,7.9,3.1,12.2,0.9
			c7.8-4,8.3-7.4,15.3-4.7c2.5,1,5.9-10.6,16.6-3c2.6,1.9,14.8-3.7,12.9,7.8c0,0-2.4-2-3.7-0.4c-0.4,0.5-0.1,1.9,1.2,4.6
			c2.3,4.6,4.6,13.6,4.5,21.3c-0.1,7.9-0.2,8.4-0.2,8.4S21.6,68,21.6,67.9"/>
		<path id="path98" style="fill:#FFFFFF;" d="M48.6,59.3c-2.6,3.5-3.8,6.3-4,5.9c-4.3-7,0.5-16.8,4.8-19c0.7-0.3-0.2,6.4,3.4,9.2
			C53.1,55.6,51,56,48.6,59.3"/>
		<path id="path100" style="fill:#FFFFFF;" d="M46.5,42.8c0.9-4-0.4-7.7-3.2-8.6c-3-1-6.2,1.3-8.1,5.1c-0.7,1.4-1.8,4.3-1.7,5.7
			C35.6,43.4,40.4,40.7,46.5,42.8"/>
		<path id="path102" style="fill:#FFFFFF;" d="M35.5,47.1c0.6,1.3,1.5,2.3,2.8,2.7c2.6,0.8,5.5-1,7.2-4.2
			C43.3,45.1,37.8,44.1,35.5,47.1"/>
		<path id="path104" style="fill:#FFFFFF;" d="M60.5,27.6C55.8,27,51.3,32.1,50.4,39c-0.6,4.9,0.7,9.3,3.3,11.7
			c-0.4-2-0.6-4.4-0.2-7c0.8-6,3.5-10.5,6.2-10.2c2.7,0.3,4.2,5.5,3.4,11.4c-0.3,2.7-1.1,5-2,6.8c3.1-1.6,5.6-5.7,6.3-10.6
			C68.2,34.3,65.1,28.2,60.5,27.6"/>
		<path id="path106" style="fill:#FFFFFF;" d="M59.8,42.5c-0.2,2-1.2,3.5-2.3,3.4c-1.1-0.1-1.9-1.8-1.7-3.8c0.2-2,1.2-3.5,2.3-3.4
			C59.2,38.9,60,40.6,59.8,42.5"/>
		<path style="fill:none;" d="M76,72.4c-0.1,0-0.1-0.1-0.2-0.1l0,0c0,0-0.1,0-0.1,0c0,0-0.1,0-0.1,0c-0.1,0.1-0.3,0.2-0.4,0.3
			c-0.1,0.1-0.2,0.3-0.3,0.4c-0.1,0.2-0.1,0.4-0.2,0.6c0,0.1,0,0.1,0,0.2c0,0.2,0,0.3-0.1,0.5c0,0.1,0,0.3,0,0.4
			c0,0.2,0.1,0.3,0.1,0.4c0,0,0,0.1,0.1,0.1c0,0.1,0.1,0.1,0.2,0.1c0,0,0,0,0.1,0c0,0,0.1,0,0.1,0c0.1,0,0.1,0,0.2,0
			c0.1,0,0.1-0.1,0.2-0.1c0.1-0.1,0.2-0.2,0.2-0.3c0.1-0.1,0.2-0.3,0.2-0.5c0.1-0.2,0.1-0.4,0.2-0.6c0,0,0-0.1,0-0.1
			c0-0.2,0.1-0.4,0.1-0.6C76.3,72.8,76.2,72.6,76,72.4C76,72.4,76,72.4,76,72.4z"/>
		<path style="fill:none;" d="M30.5,72c-0.5-0.1-1.1,0.6-1.3,1.5c-0.2,0.9,0,1.8,0.5,1.9c0.5,0.1,1.1-0.6,1.3-1.5
			C31.2,73,31,72.1,30.5,72z"/>
		<path style="fill:none;" d="M65.7,72.6c0-0.1-0.1-0.1-0.1-0.2c-0.1-0.1-0.2-0.2-0.3-0.2v0c-0.1,0-0.2,0-0.3,0.1
			c-0.3,0.2-0.6,0.6-0.7,1.3c0,0.1,0,0.2-0.1,0.3c0,0.2,0,0.4,0,0.6c0,0.1,0,0.3,0.1,0.4c0,0.1,0.1,0.2,0.1,0.3
			c0.1,0.1,0.1,0.2,0.2,0.2c0.6,0.1,0.9-0.7,1.1-1.5c0-0.1,0.1-0.2,0.1-0.3c0-0.1,0-0.2,0-0.2c0,0,0-0.1,0-0.1c0-0.1,0-0.2,0-0.2
			C65.8,72.8,65.8,72.7,65.7,72.6z"/>
		<path style="fill:none;" d="M53.6,72.2c-0.5-0.5-1.2,0.4-1.4,1.2c0.2,0,0.4,0,0.9-0.2C53.7,72.9,53.8,72.4,53.6,72.2z"/>
		<path style="fill:#00538E;stroke:#FFFFFF;stroke-width:0.2095;stroke-miterlimit:3.614;" d="M26.4,71c0.2,0.1,0.5,0.2,0.6,0.3
			l0.6-1.2c-0.5-0.5-0.8-0.6-1.8-0.6c-0.9-0.1-3.4,0.4-3.8,3c-0.3,2,0.9,3.6,2.4,4c1.3,0.3,1.9-0.1,2.1-0.2c0,0,0-1.5,0-1.5
			s-1,0.4-1.7,0c-0.6-0.4-1.2-1.2-0.9-2.4C24.4,71.2,25.6,70.6,26.4,71z"/>
		<polygon style="fill:#00538E;stroke:#FFFFFF;stroke-width:0.2095;stroke-miterlimit:3.614;" points="36,71.1 34.2,71.1 34.2,71.1 
					"/>
		<path style="fill:#00538E;stroke:#FFFFFF;stroke-width:0.2095;stroke-miterlimit:3.614;" d="M36.7,74.1c-0.2,1.1-1.6,1.7-1.3,0.2
			c0.3-1.8,0.6-3.2,0.6-3.2l-1.9,0v0c0,0-0.7,3.3-0.8,3.7c-0.2,0.9,0.2,2.9,2.9,0.8c0,0,0,0.8,0,0.8l1.7,0l1.1-5.3l-1.8,0
			C37.3,71.1,36.8,73.7,36.7,74.1z"/>
		<polygon style="fill:#00538E;stroke:#FFFFFF;stroke-width:0.2095;stroke-miterlimit:3.614;" points="43.5,75.7 42.9,74.9 
			42.9,74.9 		"/>
		<path style="fill:#00538E;stroke:#FFFFFF;stroke-width:0.2095;stroke-miterlimit:3.614;" d="M43.8,71.4c-1.2-0.8-3-0.4-3.9,0.9
			c-0.9,1.3-0.9,3,0.3,3.9c0.9,0.7,2.5,0.3,3.3-0.4l-0.5-0.8v0c-0.4,0.3-1,0.3-1.2,0.3c-0.4-0.2-0.7-0.7-0.5-1.7
			c0.2-0.9,0.6-1.3,1.1-1.3c0.3,0,0.8,0.1,1,0.3l0.6-0.9C44,71.5,43.8,71.4,43.8,71.4z"/>
		<path style="fill:#00538E;stroke:#FFFFFF;stroke-width:0.2095;stroke-miterlimit:3.614;" d="M46.6,72.1c-0.1,0.1,0.5-2.6,0.5-2.6
			l-1.8,0L44,76.4l1.9,0c0,0,0.3-1.9,0.6-3.2c0.1-0.8,1.4-0.8,1.3-0.1c-0.1,0.3-0.7,3.3-0.7,3.3l1.9,0c0,0,0.2-1.2,0.8-4.1
			C50.2,70.4,47.1,71.1,46.6,72.1z"/>
		<path style="fill:#00538E;stroke:#FFFFFF;stroke-width:0.2095;stroke-miterlimit:3.614;" d="M31.7,71.4c-1.2-0.8-2.9-0.5-3.8,0.8
			c-0.9,1.3-0.7,3,0.5,3.8c1.2,0.8,2.9,0.5,3.8-0.8C33.1,73.9,32.9,72.2,31.7,71.4z M30.9,73.9c-0.2,0.9-0.8,1.6-1.3,1.5
			c-0.5-0.1-0.7-1-0.5-1.9c0.2-0.9,0.8-1.6,1.3-1.5C31,72.1,31.2,73,30.9,73.9z"/>
		<path style="fill:#00538E;stroke:#FFFFFF;stroke-width:0.2095;stroke-miterlimit:3.614;" d="M52.7,74.2c1.7,0,3.8-2.2,1.3-3.1
			c-0.7-0.3-2.5,0.2-3.2,1.3c-0.9,1.3-0.9,3,0.3,3.9c0.9,0.7,2.5,0.3,3.6-0.7l-0.5-0.8c-0.7,0.6-1.5,0.5-1.7,0.4
			c-0.3-0.2-0.4-0.4-0.4-0.9C52.4,74.2,52.5,74.2,52.7,74.2z M52.1,73.4c0.2-0.8,0.9-1.7,1.4-1.2c0.2,0.2,0.1,0.7-0.5,1
			C52.6,73.4,52.4,73.5,52.1,73.4z"/>
		<polygon style="fill:#00538E;stroke:#FFFFFF;stroke-width:0.2095;stroke-miterlimit:3.614;" points="55.7,74.2 57.9,74.2 
			58.1,73.3 55.9,73.3 		"/>
		<polygon style="fill:#00538E;stroke:#FFFFFF;stroke-width:0.2095;stroke-miterlimit:3.614;" points="63.5,69.5 58.2,69.5 
			58.2,69.5 57.9,71.1 59.6,71.1 58.7,76.4 60.5,76.4 61.5,71.1 63.1,71.1 		"/>
		<path style="fill:#00538E;stroke:#FFFFFF;stroke-width:0.2095;stroke-miterlimit:3.614;" d="M72.2,71.1c-0.8,0-1.4,1.2-1.4,1.2
			l0.2-1.2l-1.7,0l-1.1,5.3v0h1.7c0,0,0.2-1.2,0.6-2.7c0.3-1.4,1.7-0.8,1.7-0.8l0.8-1.4C73,71.5,72.9,71,72.2,71.1z"/>
		<path style="fill:#00538E;" d="M65.3,72.3c-0.1,0-0.2,0-0.3,0.1C65.1,72.3,65.2,72.2,65.3,72.3L65.3,72.3z"/>
		<polygon style="fill:#00538E;stroke:#FFFFFF;stroke-width:0.2095;stroke-miterlimit:3.614;" points="65.3,75.8 65.2,76.4 
			65.3,75.8 		"/>
		<path style="fill:#00538E;stroke:#FFFFFF;stroke-width:0.2095;stroke-miterlimit:3.614;" d="M66.1,71.6c0,0-0.5-0.7-1.4-0.6
			c-2.5,0.3-2.9,4.1-1.9,5.1c0.9,0.9,2.3-0.1,2.5-0.3v0l-0.1,0.5l1.8,0l1-5.3l-1.8,0L66.1,71.6z M65.8,73.2c0,0.1,0,0.2,0,0.2
			c0,0.1,0,0.2-0.1,0.3c-0.2,0.8-0.5,1.6-1.1,1.5c-0.1,0-0.2-0.1-0.2-0.2c0-0.1-0.1-0.2-0.1-0.3c0-0.1,0-0.2-0.1-0.4
			c0-0.2,0-0.4,0-0.6c0-0.1,0-0.2,0.1-0.3c0.1-0.6,0.4-1.1,0.7-1.3c0.1-0.1,0.2-0.1,0.3-0.1c0.2,0,0.3,0.1,0.3,0.2
			c0,0.1,0.1,0.1,0.1,0.2c0,0.1,0,0.1,0,0.2c0,0.1,0,0.2,0,0.2C65.8,73.1,65.8,73.1,65.8,73.2z"/>
		<polygon style="fill:#00538E;" points="75.7,75.9 75.6,76.4 75.7,75.9 		"/>
		<path style="fill:#00538E;" d="M74.6,74.2c0-0.1,0-0.3,0.1-0.5C74.6,74,74.6,74.1,74.6,74.2z"/>
		<path style="fill:#00538E;" d="M75.8,72.3L75.8,72.3c0,0-0.1,0-0.1,0C75.7,72.3,75.7,72.3,75.8,72.3z"/>
		<path style="fill:#00538E;" d="M76,74.4c-0.1,0.2-0.1,0.4-0.2,0.5C75.8,74.7,75.9,74.6,76,74.4z"/>
		<path style="fill:#00538E;stroke:#FFFFFF;stroke-width:0.2095;stroke-miterlimit:3.614;" d="M74.8,75.2c0,0.1,0.1,0.1,0.2,0.1
			C74.9,75.3,74.9,75.2,74.8,75.2z"/>
		<path style="fill:#00538E;stroke:#FFFFFF;stroke-width:0.2095;stroke-miterlimit:3.614;" d="M76.3,73.1c0,0.2,0,0.4-0.1,0.6
			C76.2,73.5,76.3,73.3,76.3,73.1z"/>
		<path style="fill:#00538E;stroke:#FFFFFF;stroke-width:0.2095;stroke-miterlimit:3.614;" d="M77,69.6l-0.5,2.1
			c0,0-0.5-0.7-1.4-0.6c-2.5,0.3-2.9,4.1-1.9,5.1c0.9,0.9,2.3-0.1,2.5-0.3l-0.1,0.5l1.9,0l1.4-6.8L77,69.6z M76.2,73.7
			C76.2,73.7,76.2,73.7,76.2,73.7C76.1,74,76,74.2,76,74.4c-0.1,0.2-0.1,0.4-0.2,0.5c-0.1,0.1-0.1,0.2-0.2,0.3
			c-0.1,0-0.1,0.1-0.2,0.1c-0.1,0-0.1,0-0.2,0c0,0-0.1,0-0.1,0c0,0,0,0-0.1,0c-0.1,0-0.1-0.1-0.2-0.1c0,0,0-0.1-0.1-0.1
			c-0.1-0.1-0.1-0.3-0.1-0.4c0-0.1,0-0.2,0-0.4c0-0.1,0-0.3,0.1-0.5c0-0.1,0-0.1,0-0.2c0-0.2,0.1-0.4,0.2-0.6
			c0.1-0.2,0.2-0.3,0.3-0.4c0.1-0.2,0.3-0.3,0.4-0.3c0,0,0.1,0,0.1,0c0,0,0.1,0,0.1,0c0.1,0,0.1,0,0.2,0.1c0,0,0.1,0,0.1,0.1
			c0.2,0.1,0.2,0.4,0.2,0.7C76.3,73.3,76.2,73.5,76.2,73.7z"/>
		<path style="fill:#00538E;stroke:#FFFFFF;stroke-width:0.2095;stroke-miterlimit:3.614;" d="M75.5,72.3c-0.1,0.1-0.3,0.2-0.4,0.3
			C75.3,72.5,75.4,72.4,75.5,72.3z"/>
	</g>
</g>
</svg>
