<?xml version="1.0"?>
<svg xmlns="http://www.w3.org/2000/svg" xmlns:xlink="http://www.w3.org/1999/xlink" xmlns:svgjs="http://svgjs.com/svgjs" version="1.1" width="512" height="512" x="0" y="0" viewBox="0 0 512 512" style="enable-background:new 0 0 512 512" xml:space="preserve" class=""><g><g xmlns="http://www.w3.org/2000/svg"><g><g><g><g><path d="m512 256c0 141.385-114.615 256-256 256-26.895 0-52.821-4.147-77.174-11.837l-171.208-306.401c27.801-111.307 128.463-193.762 248.382-193.762 141.385 0 256 114.615 256 256z" fill="#f1f1f1" data-original="#d6e9f8" style="" class=""/></g></g></g></g><path d="m30.187 376.678 148.349 123.389c24.436 7.751 50.461 11.933 77.464 11.933 131.008 0 239.014-98.413 254.166-225.341l-194.98-194.98z" fill="#f1f1f1" data-original="#b2d7f3" style="" class=""/><g><path d="m224.7 182.232-87.219-33.118-129.826 44.565c-4.991 19.951-7.655 40.824-7.655 62.321 0 43.641 10.921 84.729 30.178 120.683l126.155-56.349z" fill="#ffd944" data-original="#ffd944" style="" class=""/><path d="m178.565 500.066 79.186-230.682-33.051-87.152-194.489 194.488c31.224 58.269 84.336 103.053 148.354 123.346z" fill="#ffbd32" data-original="#ffbd32" style="" class=""/><g><path d="m314.276 401.761-11.945-11.945 113.271-113.272-150.131-150.131 11.945-11.945 162.076 162.076z" fill="#00429c" data-original="#00429c" style="" class=""/></g><circle cx="427.547" cy="276.545" fill="#0051be" r="20.599" data-original="#0051be" style=""/><path d="m299.571 141.022h28.273v44.053h-28.273z" fill="#00347b" transform="matrix(-.707 .707 -.707 -.707 650.825 56.516)" data-original="#00347b" style="" class=""/><path d="m224.051 433.874h179.312c0-49.516-40.14-89.656-89.656-89.656s-89.656 40.141-89.656 89.656z" fill="#00429c" data-original="#00429c" style="" class=""/><g><circle cx="294.804" cy="112.06" fill="#00429c" r="28.824" data-original="#00429c" style="" class=""/><path d="m257.751 269.384 33.62-97.94 31.408-31.408-55.95-55.951-31.409 31.409-97.94 33.62z" fill="#00429c" data-original="#00429c" style="" class=""/><path d="m256.89 88.202h44.419v79.126h-44.419z" fill="#0051be" transform="matrix(.707 -.707 .707 .707 -8.597 234.775)" data-original="#0051be" style=""/><path d="m274.423 132.442c11.256 11.256 29.506 11.256 40.763 0s11.256-29.506 0-40.763z" fill="#00347b" data-original="#00347b" style="" class=""/><path d="m257.751 269.384 33.62-97.94-27.976-27.975-65.779 65.78z" fill="#00347b" data-original="#00347b" style="" class=""/><path d="m270.878 121.971h44.419v39.563h-44.419z" fill="#00429c" transform="matrix(.707 -.707 .707 .707 -14.391 248.762)" data-original="#00429c" style="" class=""/></g><path d="m313.707 433.874h89.656c0-49.516-40.14-89.656-89.656-89.656z" fill="#00347b" data-original="#00347b" style="" class=""/><path d="m412.981 291.111c8.045 8.045 21.087 8.045 29.132 0s8.045-21.087 0-29.132z" fill="#00429c" data-original="#00429c" style="" class=""/></g></g></g></svg>
