<?xml version="1.0"?>
<svg xmlns="http://www.w3.org/2000/svg" xmlns:xlink="http://www.w3.org/1999/xlink" xmlns:svgjs="http://svgjs.com/svgjs" version="1.1" width="512" height="512" x="0" y="0" viewBox="0 0 512 512" style="enable-background:new 0 0 512 512" xml:space="preserve" class=""><g><path xmlns="http://www.w3.org/2000/svg" d="m512 256c0 141.386719-114.613281 256-256 256s-256-114.613281-256-256 114.613281-256 256-256 256 114.613281 256 256zm0 0" fill="#f1f1f1" data-original="#ffce00" style="" class=""/><path xmlns="http://www.w3.org/2000/svg" d="m78.449219 309.730469 201.171875 201.175781c130.308594-11.925781 232.378906-121.488281 232.378906-254.90625 0-.179688-.007812-.355469-.007812-.535156l-119.320313-119.320313zm0 0" fill="#f1f1f1" data-original="#ffa300" style="" class=""/><path xmlns="http://www.w3.org/2000/svg" d="m78.449219 136.144531h253.441406v173.585938h-253.441406zm0 0" fill="#fe6a16" data-original="#fe6a16" style="" class=""/><path xmlns="http://www.w3.org/2000/svg" d="m205.210938 136.320312h126.890624v173.585938h-126.890624zm0 0" fill="#f24500" data-original="#f24500" style=""/><path xmlns="http://www.w3.org/2000/svg" d="m272.855469 219.570312c0 37.382813-30.304688 67.6875-67.6875 67.6875-37.378907 0-67.683594-30.304687-67.683594-67.6875 0-37.378906 30.304687-67.683593 67.683594-67.683593 37.382812 0 67.6875 30.304687 67.6875 67.683593zm0 0" fill="#a3d4ff" data-original="#a3d4ff" style=""/><path xmlns="http://www.w3.org/2000/svg" d="m205.167969 151.886719c-.054688 0-.109375.003906 0-.011719v135.359375c-.109375.015625-.054688.019531 0 .019531 37.382812 0 67.6875-30.304687 67.6875-67.683594 0-37.382812-30.304688-67.683593-67.6875-67.683593zm0 0" fill="#65b1fc" data-original="#65b1fc" style=""/><path xmlns="http://www.w3.org/2000/svg" d="m233.011719 167.050781v31.15625l-27.84375 15.714844-27.839844-15.714844v-31.15625c-11.199219 8.445313-18.4375 21.859375-18.4375 36.964844 0 17.710937 9.953125 33.09375 24.566406 40.875v38.914063c6.835938 2.234374 14.132813 3.449218 21.714844 3.449218s14.875-1.210937 21.710937-3.445312v-38.917969c14.613282-7.78125 24.566407-23.164063 24.566407-40.875 0-15.105469-7.242188-28.519531-18.4375-36.964844zm0 0" fill="#ffffff" data-original="#ffffff" style=""/><path xmlns="http://www.w3.org/2000/svg" d="m251.449219 204.015625c0-15.105469-7.242188-28.519531-18.4375-36.964844v31.15625l-27.84375 15.714844-.097657 73.332031c-.011718 0 .042969.003906.101563.003906 7.582031 0 14.875-1.214843 21.710937-3.449218v-38.917969c14.613282-7.78125 24.566407-23.160156 24.566407-40.875zm0 0" fill="#e9edf5" data-original="#e9edf5" style=""/><path xmlns="http://www.w3.org/2000/svg" d="m212.40625 286.882812v-42.585937h-14.472656v42.585937c2.378906.246094 4.792968.371094 7.238281.371094 2.441406.003906 4.855469-.125 7.234375-.371094zm0 0" fill="#a3d4ff" data-original="#a3d4ff" style=""/><path xmlns="http://www.w3.org/2000/svg" d="m212.40625 286.882812v-42.582031l-7.300781-.023437v42.953125c-.046875.023437.007812.027343.066406.027343 2.441406 0 4.855469-.128906 7.234375-.375zm0 0" fill="#65b1fc" data-original="#65b1fc" style=""/><path xmlns="http://www.w3.org/2000/svg" d="m392.671875 159.878906h-60.78125v149.851563h116.925781v-82.480469zm0 0" fill="#4a7aff" data-original="#4a7aff" style=""/><path xmlns="http://www.w3.org/2000/svg" d="m420.425781 223.382812h-76.792969v-46.722656h39.476563zm0 0" fill="#a3d4ff" data-original="#a3d4ff" style=""/><path xmlns="http://www.w3.org/2000/svg" d="m420.425781 309.730469c0 17.503906-14.191406 31.695312-31.695312 31.695312-17.503907 0-31.691407-14.191406-31.691407-31.695312 0-17.503907 14.1875-31.695313 31.691407-31.695313 17.503906 0 31.695312 14.191406 31.695312 31.695313zm0 0" fill="#333940" data-original="#333940" style=""/><g xmlns="http://www.w3.org/2000/svg" fill="#414952"><path d="m173.539062 309.730469c0 17.503906-14.191406 31.695312-31.695312 31.695312s-31.691406-14.191406-31.691406-31.695312c0-17.503907 14.1875-31.695313 31.691406-31.695313s31.695312 14.191406 31.695312 31.695313zm0 0" fill="#414952" data-original="#414952" style=""/><path d="m331.890625 136.144531h60.78125v23.734375h-60.78125zm0 0" fill="#414952" data-original="#414952" style=""/></g></g></svg>
