<?xml version="1.0"?>
<svg xmlns="http://www.w3.org/2000/svg" xmlns:xlink="http://www.w3.org/1999/xlink" xmlns:svgjs="http://svgjs.com/svgjs" version="1.1" width="512" height="512" x="0" y="0" viewBox="0 0 512 512" style="enable-background:new 0 0 512 512" xml:space="preserve" class=""><g><g xmlns="http://www.w3.org/2000/svg" id="XMLID_52_"><g id="XMLID_2017_"><g id="XMLID_3523_"><g id="XMLID_3524_"><g id="XMLID_3525_"><g id="XMLID_3526_"><g id="XMLID_3527_"><g id="XMLID_3528_"><g id="XMLID_3529_"><g id="XMLID_3530_"><g id="XMLID_3531_"><g id="XMLID_3532_"><g id="XMLID_3533_"><g id="XMLID_3534_"><g id="XMLID_3535_"><g id="XMLID_3536_"><g id="XMLID_3537_"><circle id="XMLID_3538_" cx="256" cy="256" fill="#f1f1f1" r="256" data-original="#ffc56e" style="" class=""/></g></g></g></g></g></g></g></g></g></g></g></g></g></g></g></g><path id="XMLID_2881_" d="m512 256c0-.202-.007-.403-.008-.605l-168.566-165.087-172.187 45.601 73.094 71.091-173.039 176.456 120.395 120.394c20.55 5.317 42.099 8.15 64.311 8.15 141.385 0 256-114.615 256-256z" fill="#f1f1f1" data-original="#f2a846" style="" class=""/><g id="XMLID_2322_"><g id="XMLID_1079_"><path id="XMLID_1080_" d="m204.681 139.679 20.826 92.744h60.986l20.826-92.744z" fill="#324a5e" data-original="#324a5e" style=""/><path id="XMLID_2195_" d="m307.32 139.68-.55 2.43-14.57 64.89-3.37 15-2.34 10.42h-30.49v-92.74z" fill="#213949" data-original="#213949" style=""/><path id="XMLID_3456_" d="m326.205 142.108h-140.41c-11.184 0-20.25-9.066-20.25-20.25v-20.936c0-11.184 9.066-20.25 20.25-20.25h140.41c11.184 0 20.25 9.066 20.25 20.25v20.936c0 11.184-9.066 20.25-20.25 20.25z" fill="#576770" data-original="#576770" style="" class=""/><g id="XMLID_2178_"><path id="XMLID_2191_" d="m346.45 100.92v20.94c0 11.18-9.06 20.25-20.25 20.25h-70.2v-61.44h70.2c11.19 0 20.25 9.07 20.25 20.25z" fill="#324a5e" data-original="#324a5e" style=""/></g></g><g id="XMLID_1076_"><g id="XMLID_1078_"><path id="XMLID_2167_" d="m54.931 268.23 12.276 79.159c3.029 19.534 19.846 33.944 39.613 33.944h298.36c19.768 0 36.584-14.41 39.613-33.944l12.276-79.159c3.768-24.298-15.025-46.23-39.613-46.23h-322.911c-24.589 0-43.382 21.932-39.614 46.23z" fill="#4bb9ec" data-original="#4bb9ec" style="" class=""/></g><g id="XMLID_2175_"><path id="XMLID_2192_" d="m457.07 268.23-12.28 79.16c-3.03 19.53-19.84 33.94-39.61 33.94h-149.18v-159.33h161.46c24.58 0 43.38 21.93 39.61 46.23z" fill="#0095ff" data-original="#0095ff" style=""/></g><g id="XMLID_1959_"><g id="XMLID_1974_"><path id="XMLID_2336_" d="m234.705 222-72.95 159.33h-53.87l72.95-159.33z" fill="#87daf7" data-original="#87daf7" style=""/></g></g><g id="XMLID_1077_"><path id="XMLID_2168_" d="m405.18 396.333h-298.36c-27.353 0-50.246-19.617-54.437-46.646l-12.276-79.159c-2.468-15.915 2.127-32.056 12.607-44.285 10.479-12.229 25.725-19.243 41.831-19.243h322.91c16.105 0 31.352 7.014 41.831 19.243 10.479 12.23 15.074 28.37 12.607 44.285l-12.276 79.16c-4.191 27.028-27.085 46.645-54.437 46.645zm-335.426-130.402 12.276 79.16c1.908 12.309 12.334 21.242 24.79 21.242h298.36c12.456 0 22.882-8.934 24.79-21.241l12.276-79.161c1.124-7.247-.969-14.598-5.74-20.167-4.772-5.569-11.716-8.764-19.051-8.764h-322.91c-7.335 0-14.278 3.194-19.051 8.764-4.771 5.569-6.864 12.92-5.74 20.167z" fill="#576770" data-original="#576770" style="" class=""/></g><g id="XMLID_2171_"><path id="XMLID_2172_" d="m459.29 226.24c-10.48-12.23-25.73-19.24-41.83-19.24h-161.46v30h161.46c7.33 0 14.27 3.19 19.05 8.76 4.77 5.57 6.86 12.92 5.74 20.17l-12.28 79.16c-1.91 12.31-12.33 21.24-24.79 21.24h-149.18v30h149.18c27.35 0 50.25-19.61 54.44-46.64l12.27-79.16c2.47-15.92-2.12-32.06-12.6-44.29z" fill="#324a5e" data-original="#324a5e" style=""/></g></g></g></g></g></svg>
