<?xml version="1.0"?>
<svg xmlns="http://www.w3.org/2000/svg" xmlns:xlink="http://www.w3.org/1999/xlink" xmlns:svgjs="http://svgjs.com/svgjs" version="1.1" width="512" height="512" x="0" y="0" viewBox="0 0 512 512" style="enable-background:new 0 0 512 512" xml:space="preserve" class=""><g><circle xmlns="http://www.w3.org/2000/svg" cx="256" cy="256" fill="#f1f1f1" r="256" data-original="#27488f" style="" class=""/><path xmlns="http://www.w3.org/2000/svg" d="m512 256c0-7.348-.327-14.618-.934-21.809l-156.876-156.876-268.614 273.83 160.652 160.651c3.244.122 6.499.204 9.773.204 141.384 0 255.999-114.615 255.999-256z" fill="#f1f1f1" data-original="#12254c" style="" class=""/><path xmlns="http://www.w3.org/2000/svg" d="m131.888 345.93-46.312-46.312 196.224-220.219c19.045-21.374 52.147-22.327 72.389-2.084 20.243 20.243 19.29 53.345-2.084 72.39z" fill="#ffffff" data-original="#ffffff" style=""/><path xmlns="http://www.w3.org/2000/svg" d="m354.19 77.315c-.037-.037-.075-.069-.112-.106l-245.455 245.456 23.265 23.265 220.218-196.225c21.374-19.045 22.327-52.147 2.084-72.39z" fill="#e9edf5" data-original="#e9edf5" style=""/><path xmlns="http://www.w3.org/2000/svg" d="m138.817 239.866-53.241 59.751 46.312 46.313 59.752-53.242z" fill="#ff583e" data-original="#ff583e" style=""/><path xmlns="http://www.w3.org/2000/svg" d="m108.623 322.665 23.265 23.265 59.752-53.242-26.52-26.52z" fill="#f92814" data-original="#f92814" style=""/><path xmlns="http://www.w3.org/2000/svg" d="m47.974 312.799h99.596v41.87h-99.596z" fill="#dbeeff" transform="matrix(.707 .707 -.707 .707 264.623 28.614)" data-original="#dbeeff" style=""/><path xmlns="http://www.w3.org/2000/svg" d="m94.388 326.309h41.87v49.952h-41.87z" fill="#a3d4ff" transform="matrix(.707 -.707 .707 .707 -214.619 184.436)" data-original="#a3d4ff" style="" class=""/><circle xmlns="http://www.w3.org/2000/svg" cx="347" cy="290.333" fill="#dbeeff" r="56.667" data-original="#dbeeff" style=""/><path xmlns="http://www.w3.org/2000/svg" d="m347 233.667c-.245 0-.486.016-.731.019v113.296c.244.003.486.019.731.019 31.296 0 56.667-25.371 56.667-56.667 0-31.297-25.371-56.667-56.667-56.667z" fill="#a3d4ff" data-original="#a3d4ff" style="" class=""/><ellipse xmlns="http://www.w3.org/2000/svg" cx="383.167" cy="290.333" fill="#f92814" rx="20.5" ry="43.622" data-original="#f92814" style=""/><ellipse xmlns="http://www.w3.org/2000/svg" cx="310.833" cy="290.333" fill="#ff583e" rx="20.5" ry="43.622" data-original="#ff583e" style=""/></g></svg>
