<?xml version="1.0"?>
<svg xmlns="http://www.w3.org/2000/svg" xmlns:xlink="http://www.w3.org/1999/xlink" xmlns:svgjs="http://svgjs.com/svgjs" version="1.1" width="512" height="512" x="0" y="0" viewBox="0 0 512 512" style="enable-background:new 0 0 512 512" xml:space="preserve" class=""><g>
<circle xmlns="http://www.w3.org/2000/svg" style="" cx="256" cy="256" r="256" fill="#f1f1f1" data-original="#e1e1e3" class=""/>
<path xmlns="http://www.w3.org/2000/svg" style="" d="M510.741,281.468L295.103,65.629c-9.784-10.423-23.678-16.94-39.103-16.94  c-26.702,0-48.839,19.509-52.956,45.049l-0.01,0.004c0,0-2.869,18.424-14.035,44.258l12.643,12.362  c-20.88,0.424-37.832,17.622-37.832,38.599v93.017l25.118,24.378L167,368.375l40.838,38.958v51.978l52.632,52.632  C391.23,509.702,498.101,409.439,510.741,281.468z" fill="#f1f1f1" data-original="#aeadb3" class=""/>
<path xmlns="http://www.w3.org/2000/svg" style="" d="M348.19,281.977V188.96c0-21.24-17.379-38.619-38.619-38.619h-29.612  c6.132-3.067,11.592-7.275,16.109-12.342h26.934c-11.167-25.833-14.035-44.258-14.035-44.258l-0.01-0.004  c-4.117-25.54-26.254-45.049-52.956-45.049s-48.839,19.509-52.956,45.049l-0.01,0.004c0,0-2.869,18.424-14.035,44.258h26.934  c4.516,5.067,9.977,9.275,16.109,12.342H202.43c-21.24,0-38.619,17.378-38.619,38.619v93.017h28.722V214.98  c0-4.227,3.426-7.653,7.653-7.653s7.653,3.426,7.653,7.653v37.894L167,368.375h40.838v90.937h36.074v-90.937h24.175v90.937h36.074  v-90.937H345l-40.838-115.5v-37.894c0-4.227,3.426-7.653,7.653-7.653s7.653,3.426,7.653,7.653v66.997h28.722V281.977z" fill="#e02424" data-original="#e02424" class=""/>
<path xmlns="http://www.w3.org/2000/svg" style="" d="M319.47,281.98v-67c0-4.23-3.43-7.65-7.66-7.65c-4.22,0-7.65,3.42-7.65,7.65v37.9L345,368.38h-40.84  v90.93h-36.07v-90.93H256V48.69c26.7,0,48.84,19.51,52.96,45.05h0.01c0,0,2.86,18.43,14.03,44.26h-26.93  c-4.52,5.07-9.98,9.28-16.11,12.34h29.61c21.24,0,38.62,17.38,38.62,38.62v93.02L319.47,281.98L319.47,281.98z" fill="#990011" data-original="#990011" class=""/>
<g xmlns="http://www.w3.org/2000/svg">
</g>
<g xmlns="http://www.w3.org/2000/svg">
</g>
<g xmlns="http://www.w3.org/2000/svg">
</g>
<g xmlns="http://www.w3.org/2000/svg">
</g>
<g xmlns="http://www.w3.org/2000/svg">
</g>
<g xmlns="http://www.w3.org/2000/svg">
</g>
<g xmlns="http://www.w3.org/2000/svg">
</g>
<g xmlns="http://www.w3.org/2000/svg">
</g>
<g xmlns="http://www.w3.org/2000/svg">
</g>
<g xmlns="http://www.w3.org/2000/svg">
</g>
<g xmlns="http://www.w3.org/2000/svg">
</g>
<g xmlns="http://www.w3.org/2000/svg">
</g>
<g xmlns="http://www.w3.org/2000/svg">
</g>
<g xmlns="http://www.w3.org/2000/svg">
</g>
<g xmlns="http://www.w3.org/2000/svg">
</g>
</g></svg>
