<svg xmlns="http://www.w3.org/2000/svg" width="750" height="167.89"><path d="M183.27 122.94a9.56 9.56 0 0 1-2.41 4.83l-38.58 38.58c-.431.861-1.288 1.427-2.249 1.485s-1.88-.402-2.41-1.205-.592-1.829-.161-2.69v-84.4l45.81-45.82z" fill="#e34b5f"/><path d="M151.93 2.41a2.42 2.42 0 0 0-4.83 0L91.64 60.29v65.11l45.82-45.82 45.81-45.82z" fill="#e7ce9c"/><path d="M0 122.94a9.72 9.72 0 0 0 2.41 4.83L41 166.39c.438.861 1.301 1.423 2.266 1.475s1.883-.415 2.41-1.225.582-1.839.144-2.7v-84.4L0 33.76z" fill="#1e7889"/><path d="M36.17 2.41a2.41 2.41 0 0 0-4.82 0L0 33.76l45.82 45.82 45.82 45.82V60.29z" fill="#97baa6"/><path d="M241.15 122.94v-84.4h21.7v9.65A24.13 24.13 0 0 1 287 36.17a26.53 26.53 0 0 1 21.7 14.47c9.65-9.65 16.88-14.47 26.53-14.47 19.29 0 31.35 9.65 31.35 31.35v55.42h-24.15V77.17c0-12.06-2.41-16.88-12.05-16.88s-14.47 4.82-14.47 16.88v45.77h-26.53V77.17c0-12.06-2.41-16.88-9.64-16.88s-14.47 4.82-14.47 16.88v45.77zm154.34-74.75a45.82 45.82 0 0 1 77.17 31.35 45.23 45.23 0 0 1-45.82 45.82 41 41 0 0 1-31.35-14.42c-16.079-17.808-16.079-44.892 0-62.7zm31.35 53c11.982-.006 21.694-9.718 21.7-21.7 0-11.322-9.178-20.5-20.5-20.5s-20.5 9.178-20.5 20.5c-.119 11.143 8.224 20.563 19.3 21.79zm62.7 21.7v-84.4h24.11v9.65c4.83-7.24 12.06-12.06 24.12-12.06 16.88 0 28.94 12.06 28.94 31.35v55.51h-24.12V77.17c0-12.06-2.41-16.88-12.06-16.88s-16.88 4.82-16.88 16.88v45.77zm183.27-74.75A45.82 45.82 0 0 1 750 79.58c.313 24.504-18.925 44.81-43.41 45.82a41 41 0 0 1-33.78-14.46c-16.079-17.808-16.079-44.892 0-62.7zm33.76 53c11.036-1.233 19.364-10.595 19.3-21.7 0-11.322-9.178-20.5-20.5-20.5s-20.5 9.178-20.5 20.5a21.71 21.71 0 0 0 21.7 21.84zM586 122.94V106.1l33.76-45.81H586V38.58h62.7v19.29l-31.35 43.41h31.35v21.66z"/></svg>