<?xml version="1.0" encoding="utf-8"?>
<svg version="1.1" id="Layer_1" xmlns="http://www.w3.org/2000/svg" xmlns:xlink="http://www.w3.org/1999/xlink" x="0px" y="0px"
	 viewBox="0 0 774.12 170.91" style="enable-background:new 0 0 774.12 170.91;" xml:space="preserve">
<g>
	<path d="M122.36,0.01c3.05,0,6.01,0,9.06,0c0,22.87,0,45.63,0,68.76c0.41-0.53,0.64-0.76,0.8-1.04
		c7.89-14.07,20.06-21.85,35.82-24.18c8.93-1.32,17.76-0.73,26.28,2.53c10.18,3.9,18,10.69,23.9,19.78
		c5.03,7.76,8.01,16.3,9.65,25.35c1.3,7.14,1.62,14.35,1.2,21.58c-0.7,12.01-3.42,23.49-9.69,33.91
		c-6.46,10.73-15.51,18.28-27.59,21.97c-7.01,2.14-14.18,2.56-21.44,1.78c-9.04-0.98-17.26-4.08-24.57-9.53
		c-5.45-4.06-9.8-9.1-13.2-14.98c-0.23-0.41-0.48-0.81-0.72-1.2c-0.02-0.04-0.09-0.05-0.36-0.19c-0.01,1.63-0.03,3.15-0.04,4.67
		c-0.01,1.57,0,3.14,0,4.71c0,1.52,0,3.04,0,4.56c0,1.57,0,3.14,0,4.71c0,1.57,0,3.13,0,4.8c-3.08,0-6.04,0-8.99,0
		C122.15,166.87,122.03,2.47,122.36,0.01z M219.97,106.89c-0.11-5-0.5-10.16-1.53-15.25c-1.51-7.5-4.02-14.62-8.2-21.08
		c-5.4-8.36-12.7-14.24-22.4-16.89c-6.42-1.75-12.93-1.82-19.45-0.74c-8.49,1.4-15.92,5-22.05,11.12
		c-5.49,5.48-9.16,12.07-11.44,19.42c-3.8,12.27-4.45,24.76-2.1,37.38c1.42,7.63,4.08,14.81,8.33,21.35
		c4.9,7.54,11.35,13.24,19.8,16.51c6.46,2.5,13.17,3.2,20.05,2.62c7.37-0.62,14.09-2.96,20.01-7.46c5.45-4.14,9.42-9.48,12.37-15.6
		C218.09,128.42,219.8,117.91,219.97,106.89z"/>
	<path d="M650.86,68.51c0-22.89,0-45.66,0-68.51c3.07,0,6.03,0,9.09,0c0,56.02,0,111.97,0,168.01c-3.02,0-5.98,0-9.07,0
		c0-7.79,0-15.51,0-23.36c-0.76,0.17-0.85,0.73-1.08,1.13c-3.42,5.93-7.79,11.02-13.28,15.12c-7.35,5.48-15.62,8.6-24.72,9.57
		c-8.51,0.91-16.83,0.14-24.84-3c-10.65-4.17-18.6-11.49-24.37-21.27c-4.25-7.21-6.79-15.03-8.23-23.25
		c-1.21-6.94-1.57-13.94-1.18-20.96c0.67-12.07,3.43-23.59,9.64-34.1c5.59-9.46,13.2-16.71,23.38-21.09
		c6.3-2.71,12.89-3.89,19.73-3.85c7.57,0.05,14.89,1.33,21.86,4.36c9.54,4.16,16.82,10.84,21.96,19.87c0.23,0.41,0.48,0.8,0.73,1.2
		C650.5,68.42,650.57,68.42,650.86,68.51z M562.32,107.36c0.07,4.34,0.39,8.98,1.19,13.57c1.24,7.11,3.36,13.92,6.93,20.23
		c4.35,7.69,10.32,13.67,18.54,17.18c6.28,2.69,12.88,3.5,19.66,3.08c5.06-0.31,9.93-1.41,14.56-3.49
		c8.16-3.66,14.28-9.58,18.84-17.18c5.81-9.71,8.33-20.35,8.74-31.56c0.18-4.87-0.15-9.73-0.84-14.55c-0.98-6.83-2.81-13.4-6-19.55
		c-4.81-9.27-11.86-16.14-21.7-19.91c-7.02-2.69-14.31-3.43-21.76-2.64c-7.65,0.82-14.45,3.65-20.33,8.64
		c-5.08,4.31-8.8,9.65-11.57,15.66C564.15,86.42,562.45,96.57,562.32,107.36z"/>
	<path d="M331.57,86.8c-3.09,0-6.01,0-9.06,0c0-1.12-0.06-2.2,0.01-3.26c0.58-8.3,2.82-16.06,7.71-22.9
		c5.51-7.72,13.05-12.56,22.04-15.27c7.1-2.14,14.38-2.68,21.75-2.28c5.2,0.28,10.3,1.09,15.21,2.86
		c11.73,4.22,18.56,12.6,20.91,24.75c0.64,3.3,0.9,6.63,0.9,9.99c0,23.93,0,47.87,0,71.8c0,0.73-0.02,1.47,0.02,2.2
		c0.12,2.28,1.17,3.58,3.37,4.14c2.22,0.57,4.47,0.36,6.72,0.19c1.51-0.11,3.01-0.31,4.63-0.48c0,3.13,0,6.19,0,9.35
		c-4.75,0.41-9.43,0.83-14.09-0.25c-6.33-1.46-9.63-5.76-9.95-12.22c-0.1-2.09-0.02-4.18-0.02-6.55c-0.38,0.36-0.61,0.52-0.76,0.73
		c-7.69,10.65-18.22,16.97-30.88,19.79c-10.45,2.32-20.9,2.03-31.18-1.14c-6.22-1.92-11.7-5.08-16.05-10
		c-4.15-4.69-6.51-10.2-7.29-16.38c-0.76-5.98-0.39-11.91,1.14-17.75c2.48-9.5,8.32-16.13,17.27-20.08
		c4.63-2.04,9.51-3.21,14.48-3.98c6.69-1.04,13.45-1.17,20.19-1.59c7.1-0.44,14.23-0.71,21.22-2.19c1.28-0.27,2.54-0.64,3.77-1.05
		c4.82-1.61,7.58-4.95,7.94-10.03c0.41-5.62,0.09-11.2-1.6-16.63c-2.13-6.83-6.71-11.32-13.36-13.78c-4.07-1.51-8.3-2.17-12.6-2.41
		c-6.41-0.35-12.77-0.02-18.98,1.81c-8.87,2.62-15.69,7.75-19.72,16.25c-1.97,4.16-3,8.57-3.42,13.14
		C331.77,84.6,331.68,85.64,331.57,86.8z M401.6,101.95c-0.26,0.05-0.43,0.05-0.55,0.12c-4.39,2.55-9.23,3.7-14.18,4.22
		c-6.29,0.66-12.61,1.09-18.92,1.48c-6.47,0.4-12.96,0.59-19.37,1.69c-4.24,0.73-8.38,1.79-12.23,3.81
		c-5.28,2.76-8.81,6.97-10.49,12.7c-1.4,4.78-1.83,9.66-1.13,14.59c0.68,4.84,2.61,9.13,6.07,12.65c3.48,3.54,7.78,5.61,12.52,6.82
		c5.83,1.49,11.77,1.78,17.76,1.31c7.2-0.56,14.04-2.39,20.2-6.21c13.39-8.32,19.86-20.66,20.39-36.23
		c0.18-5.18,0.03-10.36,0.02-15.54C401.68,102.89,401.63,102.45,401.6,101.95z"/>
	<path d="M770.84,85.15c-3.05,0-6.01,0-9.06,0c-0.09-1.89-0.15-3.71-0.27-5.53c-0.41-6.36-2.11-12.26-6.36-17.2
		c-3.6-4.19-8.27-6.68-13.49-8.2c-4.34-1.27-8.81-1.81-13.32-1.93c-5.46-0.14-10.89,0.16-16.2,1.56c-4.46,1.18-8.59,3.02-12.04,6.15
		c-4.37,3.95-6.76,8.9-6.99,14.77c-0.11,2.87,0.25,5.75,1.22,8.5c1.25,3.55,3.48,6.36,6.76,8.16c2.14,1.17,4.41,2.21,6.75,2.91
		c7.01,2.1,14.07,4.03,21.12,5.99c6.5,1.81,13.03,3.48,19.51,5.37c4.53,1.32,8.85,3.2,12.85,5.76c8.5,5.43,12.62,13.25,12.79,23.28
		c0.08,4.71-0.5,9.29-2.26,13.68c-2.55,6.36-6.93,11.15-12.67,14.76c-5.35,3.36-11.21,5.42-17.39,6.49
		c-11.29,1.96-22.52,1.55-33.6-1.48c-5.87-1.6-11.24-4.25-15.87-8.28c-5.72-4.98-9.23-11.3-11.18-18.54
		c-1.55-5.75-2-11.64-1.93-17.57c0-0.15,0.05-0.3,0.08-0.45c1.15-0.32,7.32-0.37,9.25-0.05c0,0.72,0,1.48,0,2.25
		c-0.01,4.42,0.46,8.78,1.69,13.03c2.99,10.26,9.76,16.83,19.78,20.22c4.9,1.65,9.96,2.36,15.1,2.65c7.23,0.4,14.32-0.34,21.21-2.66
		c4.41-1.48,8.49-3.57,11.89-6.81c5.17-4.94,7.12-11.04,6.53-18.08c-0.59-7.01-4.24-11.97-10.2-15.43
		c-4.15-2.41-8.65-3.98-13.26-5.19c-7.89-2.07-15.82-3.98-23.72-6.03c-6.18-1.6-12.32-3.34-18.15-5.99
		c-1.66-0.75-3.29-1.62-4.83-2.6c-3.99-2.57-6.89-6.11-8.55-10.56c-2.42-6.48-2.96-13.17-1.41-19.91
		c1.72-7.48,6.08-13.23,12.36-17.56c5.27-3.63,11.17-5.71,17.43-6.73c9.77-1.58,19.51-1.33,29.12,1.17
		c5.27,1.37,10.15,3.6,14.44,7.02c6.56,5.22,10.29,12.13,11.98,20.24c0.8,3.86,1.07,7.77,1,11.7
		C770.94,84.38,770.88,84.73,770.84,85.15z"/>
	<path d="M535.94,168.02c-3.16,0-6.12,0-9.26,0c0-0.75,0-1.41,0-2.08c0-26.08,0.01-52.15-0.01-78.23c0-4.74-0.64-9.4-2.16-13.9
		c-3.5-10.33-10.45-17.1-20.99-20.02c-7.94-2.2-15.95-2.19-23.87,0.13c-10.22,3-17.46,9.63-22.34,18.96
		c-3.34,6.39-5.15,13.24-5.72,20.41c-0.21,2.71-0.3,5.43-0.3,8.15c-0.02,21.52-0.01,43.04-0.01,64.56c0,0.62,0,1.24,0,2.09
		c-3.13,0-6.13,0.05-9.25-0.05c0-40.81,0-81.51,0-122.29c3.04,0,6.01,0,9.19,0c0.12,1.57,0.03,3.17,0.05,4.77
		c0.01,1.57,0,3.14,0,4.71c0,1.62,0,3.25,0,4.87c0,1.55,0,3.09,0,4.64c0.09,0.02,0.18,0.04,0.27,0.06c0.19-0.28,0.39-0.56,0.57-0.85
		c6.47-10.75,16.03-17.2,28.17-19.81c9.71-2.08,19.39-1.74,28.78,1.64c13.26,4.78,21.47,14.28,25.16,27.78
		c1.16,4.26,1.7,8.61,1.69,13.03c-0.01,26.55,0,53.1,0,79.64C535.94,166.82,535.94,167.38,535.94,168.02z"/>
	<path d="M9.18,158.8c31.9,0,63.57,0,95.36,0c0,3.1,0,6.1,0,9.21C69.7,168,34.91,168,0,168C0,112.01,0,56.07,0,0.02
		c3.06,0,6.05,0,9.18,0C9.18,52.95,9.18,105.77,9.18,158.8z"/>
	<path d="M263.57,168.01c-3.23,0-6.19,0-9.22,0c0-40.77,0-81.43,0-122.21c3.03,0,6.03,0,9.2,0c0,6.28,0,12.54,0,18.8
		c0.09,0.03,0.18,0.06,0.27,0.09c0.18-0.21,0.39-0.39,0.53-0.63c6.49-11.02,16.3-17.28,28.6-19.91c5.14-1.1,10.36-1.42,15.61-1.18
		c0.42,0.02,0.84,0.05,1.25,0.09c0.1,0.01,0.19,0.07,0.37,0.14c0,2.94,0,5.9,0,9.08c-0.65,0-1.31-0.01-1.97,0
		c-3.03,0.07-6.08-0.06-9.09,0.27C286.07,54,276.34,60.56,270,72.07c-3.4,6.18-5.29,12.85-5.98,19.85
		c-0.32,3.22-0.43,6.47-0.43,9.71c-0.04,21.41-0.02,42.83-0.02,64.24C263.57,166.53,263.57,167.2,263.57,168.01z"/>
</g>
</svg>
