<svg xmlns="http://www.w3.org/2000/svg" viewBox="0 0 435.8 65.1" stroke="#000"><path vector-effect="non-scaling-stroke" d="M35.5 18.3v45.9h-6.1V43H6.3v21.2h-6V18.3h6.1V38h23.2V18.3h5.9 0zm49.6 21.6v2.9h0c0 4.5-.8 8.4-2.3 11.8h0 0c-1.5 3.4-3.7 5.9-6.4 7.7h0 0c-2.8 1.8-6 2.6-9.7 2.6h0 0c-3.6 0-6.8-.9-9.6-2.7h0 0c-2.8-1.8-5-4.3-6.5-7.6h0 0c-1.5-3.3-2.3-7.1-2.4-11.4h0v-3.3h0c0-4.4.8-8.3 2.3-11.7h0 0c1.5-3.4 3.7-6 6.5-7.8h0 0c2.8-1.8 6-2.7 9.6-2.7h0 0c3.7 0 6.9.9 9.7 2.7h0 0c2.8 1.8 5 4.4 6.5 7.7h0 0c1.5 3.4 2.3 7.3 2.3 11.8h0 0zm-6 3.3v-3.4h0c0-5.4-1.1-9.6-3.3-12.5h0 0c-2.2-2.9-5.2-4.4-9.2-4.4h0 0c-3.8 0-6.8 1.5-9 4.4h0 0c-2.2 2.9-3.3 7-3.4 12.1h0v3.4h0c0 5.3 1.1 9.4 3.3 12.4h0 0c2.2 3 5.3 4.5 9.2 4.5h0 0c3.9 0 6.9-1.4 9.1-4.3h0 0c2.1-2.8 3.2-6.9 3.3-12.2h0 0zm45.4 21.1l-10-18.6h-10.8v18.6h-6.1v-46h15.2 0c5.2 0 9.2 1.2 11.9 3.5h0 0c2.8 2.4 4.2 5.8 4.2 10.3h0 0c0 2.9-.8 5.4-2.3 7.5h0 0c-1.5 2.1-3.7 3.7-6.5 4.8h0L131 63.9v.4h-6.5 0zm-20.8-41v17.4h9.3 0c3 0 5.4-.8 7.2-2.3h0 0c1.8-1.6 2.7-3.6 2.7-6.2h0 0c0-2.8-.8-5-2.5-6.5h0 0c-1.7-1.5-4.1-2.3-7.3-2.3h0-9.4v-.1zm66.4-5v5h-14.8v40.9h-6V23.3h-14.7v-5h35.5 0zm44.8 21.6v2.9h0c0 4.5-.8 8.4-2.3 11.8h0 0c-1.5 3.4-3.7 5.9-6.4 7.7h0 0c-2.8 1.8-6 2.6-9.7 2.6h0 0c-3.6 0-6.8-.9-9.6-2.7h0 0c-2.8-1.8-5-4.3-6.5-7.6h0 0c-1.5-3.3-2.3-7.1-2.4-11.4h0v-3.3h0c0-4.4.8-8.3 2.3-11.7h0 0c1.5-3.4 3.7-6 6.5-7.8h0 0c2.8-1.8 6-2.7 9.6-2.7h0 0c3.7 0 6.9.9 9.7 2.7h0 0c2.8 1.8 5 4.4 6.5 7.7h0 0c1.5 3.4 2.3 7.3 2.3 11.8h0 0zm-6.1 3.3v-3.4h0c0-5.4-1.1-9.6-3.3-12.5h0 0c-2.2-2.9-5.2-4.4-9.2-4.4h0 0c-3.8 0-6.8 1.5-9 4.4h0 0c-2.2 2.9-3.3 7-3.4 12.1h0v3.4h0c0 5.3 1.1 9.4 3.3 12.4h0 0c2.2 3 5.3 4.5 9.2 4.5h0 0c3.9 0 6.9-1.4 9.1-4.3h0 0c2.2-2.8 3.3-6.9 3.3-12.2h0 0zm24.7-24.9v41h21.8v5h-27.9v-46h6.1 0zm65.4 21.6v2.9h0c0 4.5-.8 8.4-2.3 11.8h0 0c-1.5 3.4-3.7 5.9-6.4 7.7h0 0c-2.8 1.8-6 2.6-9.7 2.6h0 0c-3.6 0-6.8-.9-9.6-2.7h0 0c-2.8-1.8-5-4.3-6.5-7.6h0 0c-1.5-3.3-2.3-7.1-2.4-11.4h0v-3.3h0c0-4.4.8-8.3 2.3-11.7h0 0c1.5-3.4 3.7-6 6.5-7.8h0 0c2.8-1.8 6-2.7 9.6-2.7h0 0c3.7 0 6.9.9 9.7 2.7h0 0c2.8 1.8 5 4.4 6.5 7.7h0 0c1.6 3.4 2.3 7.3 2.3 11.8h0 0zm-6 3.3v-3.4h0c0-5.4-1.1-9.6-3.3-12.5h0 0c-2.2-2.9-5.2-4.4-9.2-4.4h0 0c-3.8 0-6.8 1.5-9 4.4h0 0c-2.2 2.9-3.3 7-3.4 12.1h0v3.4h0c0 5.3 1.1 9.4 3.3 12.4h0 0c2.2 3 5.3 4.5 9.2 4.5h0 0c3.9 0 6.9-1.4 9.1-4.3h0 0c2.1-2.8 3.2-6.9 3.3-12.2h0 0zm52.5-1.8v16.8h0c-1.6 2.2-3.7 3.9-6.5 5h0 0c-2.8 1.1-6 1.7-9.7 1.7h0 0c-3.7 0-7.1-.9-10-2.6h0 0c-2.9-1.8-5.1-4.3-6.7-7.5h0 0c-1.6-3.2-2.4-7-2.4-11.3h0v-4h0c0-6.9 1.6-12.3 4.8-16.1h0 0c3.2-3.8 7.8-5.7 13.6-5.7h0 0c4.8 0 8.7 1.2 11.6 3.7h0 0c2.9 2.4 4.7 5.9 5.4 10.4h0-6.1 0c-1.1-6.1-4.8-9.1-10.9-9.1h0 0c-4.1 0-7.1 1.4-9.2 4.3h0 0c-2.1 2.8-3.1 7-3.2 12.4h0v3.8h0c0 5.2 1.2 9.2 3.5 12.3h0 0c2.4 3 5.5 4.6 9.6 4.6h0 0c2.3 0 4.3-.3 6-.8h0 0c1.7-.5 3.1-1.4 4.2-2.6h0V46.3h-10.6v-4.9h16.6 0zm15.7-23.1L373 41.4l12-23.1h6.9L376 47.1v17.1h-6V47.1l-15.8-28.8h6.9 0z" stroke-width=".5" stroke-miterlimit="3"/><path vector-effect="non-scaling-stroke" d="M400.6 15.8c0 2.5.9 10.4 10.6 11.5.3-1.4.9-4.2 2.5-7.1l-1.1-1.1c-4.9-4-10.2-3.6-12-3.3h0zm16.6 14.6h.1c.2 0 .3 0 .3-.1.3-.7.1-2-.4-3.6-.5 1.6-.7 3-.4 3.6.1.1.1.2.3.1 0 0 0 0 .1 0zm-.3 1.9c-.9 0-1.6-.4-2-1.3-.7-1.5-.1-4.3 1.1-7l-1.2-2.1c-1.7 3.4-2 6.5-2 6.5-.1.5-.5.9-1 .9-4.3-.3-7.6-1.8-9.9-4.4-3.6-4.2-3.3-9.7-3.3-9.9 0-.4.3-.8.7-.9.3-.1 7.7-2 14.3 3.5l.9.9c.2-.4.5-.7.8-1.1a15.94 15.94 0 0 1 6.3-5c-.2-1.8-1.2-6.7-4.7-10.3-1.4.9-5.2 3.8-5.3 10.9 0 .5-.4.9-.9.9h0c-.5 0-.9-.4-.9-1 .1-9.8 6.6-12.8 6.9-12.9.3-.2.7-.1 1 .2 5.5 4.9 5.9 12.4 5.9 12.7 0 .4-.2.8-.6.9-3.3 1.3-5.6 3.7-7.1 6.1.5.6.9 1.2 1.2 1.9 1-1.7 2.2-3.3 3.5-4.3 6.6-5.6 14-3.6 14.3-3.5.4.1.7.5.7 1 0 .2-.8 14.4-12.4 15-.5 0-1-.3-1-.9 0-.3-.5-6.2 6.2-10.4.5-.3 1-.1 1.3.3.3.5.1 1-.3 1.3-4.2 2.6-5.1 6-5.3 7.7 7.7-1.1 9.2-9.6 9.5-12.3-1.9-.3-7.1-.6-11.8 3.3-1.4 1.2-2.7 3.1-3.6 5 1.2 2.7 1.8 5.5 1.1 7-.4.9-1.2 1.4-2.2 1.3 0 .1-.1.1-.2 0h0z" stroke-width=".2"/></svg>