<?xml version="1.0" encoding="utf-8"?>
<svg version="1.1" id="Layer_1" xmlns="http://www.w3.org/2000/svg" xmlns:xlink="http://www.w3.org/1999/xlink" x="0px" y="0px"
	 viewBox="0 0 322.46 210.01" style="enable-background:new 0 0 322.46 210.01;" xml:space="preserve">
<g>
	<g>
		<g>
			<g>
				<g>
					<path style="fill:#1C4CA0;" d="M14.32,197.37C2.91,187.41,0,174.43,0,163.13c0-7.83,2.46-21.59,13.54-31.78
						c8.39-7.61,19.36-12.31,36.59-12.31c7.16,0,11.52,0.45,16.78,1.12c4.36,0.56,8.17,1.68,11.64,2.01
						c1.23,0.11,1.79,0.67,1.79,1.34c0,0.9-0.34,2.35-0.56,6.38c-0.22,3.8-0.11,10.18-0.34,12.53c-0.11,1.79-0.34,2.69-1.34,2.69
						c-0.9,0-1.12-0.9-1.12-2.57c-0.11-3.58-1.68-7.61-4.48-10.63c-3.8-4.03-12.87-7.16-23.5-7.16c-10.07,0-16.67,2.57-21.82,7.16
						c-8.5,7.72-10.63,18.8-10.63,29.99c0,27.64,21.03,41.29,36.48,41.29c10.29,0,16.56-1.12,21.26-6.49
						c2.01-2.24,3.47-5.59,3.92-7.61c0.34-1.9,0.56-2.35,1.45-2.35c0.78,0,1.01,0.78,1.01,1.79c0,1.34-1.34,11.52-2.57,15.44
						c-0.56,2.01-1.01,2.57-3.02,3.36c-4.59,1.9-13.43,2.69-20.92,2.69C38.27,210.01,24.95,206.43,14.32,197.37z"/>
					<path style="fill:#1C4CA0;" d="M97.34,154.07c0-18.24,0-21.59-0.22-25.4c-0.22-4.03-1.23-6.04-5.15-6.83
						c-1.01-0.22-3.02-0.34-4.7-0.34c-1.34,0-2.01-0.22-2.01-1.12s0.9-1.12,2.69-1.12c6.38,0,13.87,0.34,17.23,0.34
						c4.92,0,11.86-0.34,17.45-0.34c14.99,0,20.36,5.03,22.38,6.83c2.69,2.57,6.04,7.94,6.04,14.32c0,17.01-12.53,29.09-29.54,29.09
						c-0.56,0-1.9,0-2.57-0.11c-0.56-0.11-1.45-0.22-1.45-1.12c0-1.01,0.9-1.34,3.36-1.34c6.71,0,16.11-7.61,16.11-19.8
						c0-3.92-0.34-11.97-7.05-18.01c-4.36-3.92-9.29-4.7-11.97-4.7c-1.79,0-3.58,0.11-4.7,0.45c-0.56,0.22-1.01,1.01-1.01,2.24v48
						c0,11.08,0,20.48,0.56,25.73c0.34,3.36,1.12,6.04,4.7,6.49c1.68,0.22,4.36,0.45,6.15,0.45c1.34,0,1.9,0.34,1.9,1.01
						c0,0.78-1.01,1.23-2.24,1.23c-7.94,0-15.44-0.34-18.57-0.34c-2.8,0-10.29,0.34-15.1,0.34c-1.57,0-2.35-0.34-2.35-1.23
						c0-0.56,0.45-1.01,1.9-1.01c1.79,0,3.24-0.22,4.36-0.45c2.35-0.45,3.02-3.13,3.47-6.6c0.56-5.03,0.56-14.55,0.56-25.51v-21.15
						H97.34z"/>
					<path style="fill:#1C4CA0;" d="M175.22,186.41c-0.45,0-0.67,0.22-0.78,0.67l-4.92,12.98c-0.9,2.24-1.34,4.48-1.34,5.48
						c0,1.68,0.78,2.8,3.58,2.8h1.34c1.12,0,1.34,0.22,1.34,0.67c0,0.67-0.56,0.9-1.57,0.9c-2.91,0-6.83-0.22-9.62-0.22
						c-1.01,0-5.93,0.22-10.63,0.22c-1.12,0-1.68-0.22-1.68-0.9c0-0.56,0.34-0.67,1.12-0.67c0.78,0,2.13-0.11,2.8-0.22
						c4.14-0.56,5.93-3.58,7.72-8.17l22.71-56.84c1.12-2.57,1.68-3.58,2.57-3.58c0.78,0,1.34,0.78,2.24,2.91
						c2.13,4.92,16.67,41.96,22.49,55.61c3.47,8.17,6.04,9.4,7.94,9.85c1.34,0.22,2.69,0.34,3.8,0.34c0.67,0,1.23,0.11,1.23,0.67
						c0,0.67-0.78,0.9-4.14,0.9c-3.24,0-9.85,0-17.12-0.22c-1.68-0.11-2.69-0.11-2.69-0.67c0-0.56,0.34-0.67,1.23-0.78
						c0.67-0.22,1.23-1.01,0.78-2.13l-7.27-19.24c-0.22-0.45-0.45-0.67-0.9-0.67h-20.25V186.41z M193.68,181.82
						c0.45,0,0.56-0.22,0.45-0.56l-8.17-22.38c-0.11-0.34-0.22-0.78-0.45-0.78c-0.22,0-0.45,0.45-0.56,0.78l-8.28,22.27
						c-0.11,0.34,0,0.67,0.34,0.67H193.68z"/>
					<path style="fill:#1C4CA0;" d="M246.49,182.71c0,11.86,0,18.24,1.9,19.92c1.57,1.34,4.03,2.01,11.19,2.01
						c4.92,0,8.5-0.11,10.85-2.57c1.12-1.23,2.24-3.8,2.46-5.59c0.11-0.78,0.22-1.34,1.01-1.34c0.67,0,0.78,0.45,0.78,1.57
						c0,1.01-0.67,7.94-1.34,10.63c-0.56,2.01-1.01,2.46-5.82,2.46c-6.71,0-11.52-0.22-15.66-0.34c-4.14-0.22-7.5-0.22-11.3-0.22
						c-1.01,0-3.02,0-5.26,0.11c-2.13,0-4.59,0.22-6.38,0.22c-1.23,0-1.9-0.22-1.9-0.9c0-0.45,0.34-0.78,1.45-0.78
						c1.34,0,2.46-0.22,3.36-0.34c1.9-0.34,2.35-2.46,2.69-5.15c0.45-3.92,0.45-11.19,0.45-19.8v-16.34c0-14.1,0-16.67-0.22-19.69
						c-0.22-3.13-0.9-4.59-4.03-5.26c-0.78-0.22-1.9-0.22-3.02-0.22c-1.01,0-1.57-0.22-1.57-0.9c0-0.67,0.67-0.78,2.01-0.78
						c4.36,0,10.18,0.22,12.76,0.22c2.24,0,8.95-0.22,12.64-0.22c1.34,0,1.9,0.22,1.9,0.78c0,0.67-0.56,0.9-1.68,0.9
						c-1.01,0-2.46,0.11-3.58,0.22c-2.46,0.45-3.24,2.01-3.47,5.26c-0.22,3.02-0.22,5.59-0.22,19.69L246.49,182.71L246.49,182.71z"
						/>
					<path style="fill:#1C4CA0;" d="M294.27,182.71c0,11.86,0,18.24,1.9,19.92c1.57,1.34,4.03,2.01,11.19,2.01
						c4.92,0,8.5-0.11,10.85-2.57c1.12-1.23,2.24-3.8,2.46-5.59c0.11-0.78,0.22-1.34,1.01-1.34c0.67,0,0.78,0.45,0.78,1.57
						c0,1.01-0.67,7.94-1.34,10.63c-0.56,2.01-1.01,2.46-5.82,2.46c-6.71,0-11.52-0.22-15.66-0.34c-4.14-0.22-7.5-0.22-11.3-0.22
						c-1.01,0-3.02,0-5.26,0.11c-2.13,0-4.59,0.22-6.38,0.22c-1.23,0-1.9-0.22-1.9-0.9c0-0.45,0.34-0.78,1.45-0.78
						c1.34,0,2.46-0.22,3.36-0.34c1.9-0.34,2.35-2.46,2.69-5.15c0.45-3.92,0.45-11.19,0.45-19.8v-16.34c0-14.1,0-16.67-0.22-19.69
						c-0.22-3.13-0.9-4.59-4.03-5.26c-0.78-0.22-1.9-0.22-3.02-0.22c-1.01,0-1.57-0.22-1.57-0.9c0-0.67,0.67-0.78,2.01-0.78
						c4.36,0,10.18,0.22,12.76,0.22c2.24,0,8.95-0.22,12.64-0.22c1.34,0,1.9,0.22,1.9,0.78c0,0.67-0.56,0.9-1.68,0.9
						c-1.01,0-2.46,0.11-3.58,0.22c-2.46,0.45-3.24,2.01-3.47,5.26c-0.22,3.02-0.22,5.59-0.22,19.69L294.27,182.71L294.27,182.71z"
						/>
				</g>
			</g>
		</g>
		<g>
			<g>
				<path style="fill:#01A7DF;" d="M169.51,102.49l4.81-27.97c0,0,2.57-33.45,33.57-28.98c25.51,3.8,35.13,3.8,44.08-6.94
					c0,0,6.27,46.1-35.13,45.87h-14.55c0,0-12.64-1.34-21.59,4.25C176.11,91.52,172.76,96,169.51,102.49z"/>
				<path style="fill:#EC1C24;" d="M160.9,118.71l4.59-28.87c0.78-5.03,1.01-9.73-0.34-14.88c-3.47-12.53-15.33-16-26.85-17.23
					c-10.74-1.12-21.15-1.9-31.33-5.71c-2.69-1.01-5.26-2.13-7.83-3.47c-5.71-3.02-11.3-7.61-13.43-13.99
					c-0.56-1.57-1.9-6.27-1.01-7.72c0,0-22.71,39.05-0.78,62.1C106.41,112.67,154.52,84.36,160.9,118.71z"/>
				<path style="fill:#38B14A;" d="M169.17,69.71c0,0,1.68-9.29,3.36-19.36c1.12-6.83,1.68-12.98-1.23-18.46
					c-4.92-9.06-19.69-15.55-24.62-21.71C142.88,5.48,144.9,0,144.9,0s-13.54,14.43-11.64,31.78c1.9,17.23,19.13,18.01,27.52,24.84
					C168.28,62.77,169.17,69.71,169.17,69.71z"/>
			</g>
		</g>
	</g>
</g>
</svg>
