<svg xmlns="http://www.w3.org/2000/svg" viewBox="0 0 76.5 76.7"><path d="M0 .001h76.5v76.7H0z"/><g fill="#fff"><path d="M6.6 62.301h28.7v4.8H6.6zm-.3-42.177l2.2-2.1c.6.8 1.2 1.2 2 1.2.9 0 1.3-.6 1.3-1.8v-8h3.4v8c0 1.5-.4 2.7-1.2 3.5s-1.9 1.2-3.4 1.2c-2.2.1-3.4-.8-4.3-2zm9.7-10.5h10.1v2.9h-6.6v1.9h6v2.7h-6v2h6.7v3h-10zm14.6 3h-3.7v-3h10.9v3h-3.7v9.5h-3.5zm-24 12.3H13c1.5 0 2.7.5 3.4 1.1.5.5.8 1.2.8 2.1h0c0 1.5-.8 2.3-1.9 2.9 1.5.5 2.4 1.4 2.4 3h0c0 2.1-1.8 3.5-4.7 3.5H6.6v-12.6zm7.2 4c0-.8-.6-1.1-1.5-1.1H10v2.3h2.1c1.1-.2 1.7-.5 1.7-1.2h0zm-1.2 3.6H9.9v2.3h2.7c1.1 0 1.6-.5 1.6-1.2h0c0-.8-.5-1.1-1.6-1.1zm5.7-7.6h5.8c2 0 3.2.5 4.1 1.4.8.8 1 1.7 1 2.9h0c0 2-1 3.2-2.5 3.9l3 4.4h-3.9l-2.6-3.8h-1.5v3.7h-3.4v-12.5zm5.7 6.1c1.2 0 1.8-.6 1.8-1.5h0c0-1.1-.8-1.5-1.8-1.5h-2.2v3H24z"/><path d="M33.3 24.924h3.3l5.2 12.6h-3.7l-.9-2.3h-4.8l-.9 2.3h-3.6l5.4-12.6zm3 7.6l-1.4-3.5-1.4 3.5h2.8zm6-7.6h3.5v12.5h-3.5zm4.3 0h3.2l5.1 6.7v-6.7h3.4v12.5h-3l-5.2-6.7v6.9h-3.5zm12 10.7l2-2.3c1.2 1.1 2.5 1.5 4 1.5.9 0 1.5-.3 1.5-.9h0c0-.6-.5-.8-2.1-1.2-2.7-.6-4.7-1.4-4.7-3.9h0c0-2.3 1.8-4.1 4.8-4.1 2.1 0 3.8.6 5.1 1.7l-1.8 2.4c-1.2-.8-2.4-1.2-3.5-1.2-.9 0-1.2.3-1.2.8h0c0 .6.5.8 2.1 1.2 2.9.6 4.7 1.5 4.7 3.9h0c0 2.6-2 4.1-5.1 4.1-2.1.1-4.3-.6-5.8-2z"/></g></svg>