<?xml version="1.0" encoding="utf-8"?>
<svg version="1.1" id="Layer_1" xmlns="http://www.w3.org/2000/svg" xmlns:xlink="http://www.w3.org/1999/xlink" x="0px" y="0px"
	width="100px" height="100px" viewBox="0 0 100 100" style="enable-background:new 0 0 100 100;" xml:space="preserve">
<g>
	<path style="fill:#E8E8E8;" d="M50,0c27.61,0,50,22.39,50,50s-22.39,50-50,50S0,77.61,0,50S22.39,0,50,0"/>
	<path style="fill:#FFFFFF;" d="M50,1c27.06,0,49,21.94,49,49S77.06,99,50,99S1,77.06,1,50S22.94,1,50,1"/>
	<g>
		
			<radialGradient id="SVGID_1_" cx="-1874.2498" cy="8365.7773" r="13.5067" gradientTransform="matrix(2.4159 0 0 0.1268 4608.2065 -1005.7943)" gradientUnits="userSpaceOnUse">
			<stop  offset="0" style="stop-color:#6B6B6D"/>
			<stop  offset="1" style="stop-color:#231F20"/>
		</radialGradient>
		<path style="fill:url(#SVGID_1_);" d="M43.64,53.13l2.05,3.72h38.98l0.46-3.72H43.64z"/>
		<path style="fill:#BD0013;" d="M66.41,47.53L66.41,47.53L66.41,47.53z"/>
		<path style="fill:#231F20;" d="M20.4,52.19l0.69-4.91c0.05-0.41-0.09-0.76-0.69-0.76c-0.26,0-0.45,0.04-0.61,0.09l-0.78,5.58
			h-2.37l0.89-6.33c0.74-0.32,1.82-0.51,3.06-0.51c2.27,0,3.02,0.85,2.83,2.2l-0.66,4.64L20.4,52.19z"/>
		<path style="fill:#EE1D23;" d="M82.12,43.8l-0.13,0.88h2.67c0.35,0,0.64-0.35,0.71-0.88H82.12z M83.65,45.34
			c-1.24,0-2.32,0.2-3.06,0.51l-0.36,2.57h-0.01l-0.21,1.54c-0.19,1.31,0.53,2.15,2.66,2.19l0,0h2.59l0.04-0.32
			c0.05-0.32-0.06-0.56-0.44-0.56h-1.89c-0.59,0-0.75-0.35-0.69-0.77l0.08-0.57h0.74v-0.01c2.17-0.03,3.13-0.86,3.32-2.17l0.04-0.24
			h-0.01h0.01C86.67,46.19,85.92,45.34,83.65,45.34L83.65,45.34z M83.46,46.51c0.59,0,0.75,0.35,0.69,0.77l-0.04,0.25h-0.01
			l-0.07,0.5c-0.06,0.41-0.32,0.76-0.91,0.76h-0.58l0.03-0.23l0,0l0.28-1.94C83.01,46.55,83.2,46.51,83.46,46.51z"/>
		<path d="M66.31,50L66.31,50L66.31,50L66.31,50z"/>
		<path style="fill:#231F20;" d="M16.11,48.44l0.02-0.16l0.75-5.12h-2.37l-0.82,5.61l0.01,0.02l-0.17,1.28
			c-0.16,1.17,0.39,1.96,2.03,2.15L16.11,48.44z"/>
		<path style="fill:#EE1D23;" d="M76.55,45.36c-0.22,0-0.43,0.01-0.65,0.02l0.32-2.22c-1.7,0.18-2.48,0.97-2.65,2.15l-0.22,1.54
			L72.6,52.2h2.37l0.78-5.58c0.15-0.05,0.35-0.09,0.61-0.09c0.59,0,0.75,0.35,0.69,0.76l-0.69,4.91h2.37l0.66-4.64
			C79.57,46.21,78.82,45.36,76.55,45.36 M64.08,47.28l-0.04,0.25h-0.01l-0.07,0.5c-0.06,0.41-0.31,0.76-0.91,0.76h-0.59l0.04-0.23
			l0,0l0.28-1.94c0.15-0.05,0.35-0.09,0.61-0.09C63.99,46.51,64.15,46.86,64.08,47.28L64.08,47.28z M66.38,47.77l0.04-0.24h-0.01
			l0.02-0.01c0.19-1.34-0.57-2.19-2.84-2.19c-1.24,0-2.32,0.2-3.06,0.51v0.02h-0.01l-0.89,6.33h2.37l0.32-2.25h0.6l0,0l1.33,2.25
			h2.36l-1.56-2.62C65.85,49.2,66.26,48.58,66.38,47.77"/>
		<path style="fill:#231F20;" d="M32.64,47.28l-0.04,0.25H32.6l-0.07,0.5c-0.06,0.41-0.32,0.76-0.91,0.76h-0.59l0.04-0.23l0,0
			l0.28-1.94c0.15-0.05,0.35-0.09,0.61-0.09C32.55,46.51,32.71,46.86,32.64,47.28L32.64,47.28z M32.14,45.34
			c-1.24,0-2.32,0.2-3.06,0.51l-0.36,2.57h-0.01l-0.21,1.54c-0.18,1.31,0.53,2.14,2.66,2.19v0.01h2.59l0.05-0.32l0,0
			c0.05-0.32-0.06-0.57-0.43-0.57h-1.89c-0.59,0-0.75-0.35-0.69-0.76l0.08-0.57h0.74v-0.01c2.17-0.03,3.13-0.86,3.32-2.17l0.04-0.24
			h-0.01l0.01-0.01C35.16,46.19,34.41,45.34,32.14,45.34 M27.84,51.85c0.05-0.32-0.06-0.53-0.44-0.53h-0.28
			c-0.59,0-0.75-0.35-0.69-0.76l0.5-3.58l0.01-0.05l0.04-0.23h0.63c0.02-0.01,0.04-0.01,0.06-0.01c0.35,0,0.63-0.35,0.71-0.88H27.1
			l0.37-2.66c-1.7,0.18-2.48,0.97-2.65,2.14l-0.2,1.32l0,0l-0.02,0.13l-0.01,0.09l0,0L24.16,50c-0.18,1.31,0.53,2.15,2.66,2.19l0,0
			h0.98L27.84,51.85L27.84,51.85"/>
		<path style="fill:#EE1D23;" d="M49.71,45.36c-0.78,0-1.5,0.08-2.12,0.22c-0.42-0.14-0.96-0.22-1.64-0.22
			c-1.24,0-2.32,0.2-3.06,0.51l-0.66,4.65l0.96,1.67h1.17l0.78-5.58c0.15-0.05,0.35-0.09,0.61-0.09c0.51,0,0.69,0.25,0.7,0.59
			l-0.72,5.09h2.39l0.66-4.64c0.01-0.1,0.02-0.19,0.03-0.28l0.09-0.65c0.15-0.05,0.35-0.09,0.61-0.09c0.59,0,0.75,0.35,0.69,0.76
			l-0.69,4.91h2.37l0.66-4.64C52.73,46.21,51.98,45.36,49.71,45.36"/>
		<path style="fill:#231F20;" d="M39.54,47.28l-0.04,0.25h-0.01l-0.07,0.5c-0.06,0.41-0.31,0.76-0.91,0.76h-0.59l0.04-0.23h0.01
			l0.28-1.94c0.15-0.05,0.35-0.09,0.61-0.09C39.45,46.51,39.59,46.86,39.54,47.28L39.54,47.28z M40.5,49.57
			c0.8-0.37,1.22-0.99,1.33-1.8l0.04-0.24h-0.02l0.02-0.01v0.01c0.19-1.34-0.57-2.2-2.83-2.2c-1.24,0-2.32,0.2-3.06,0.51v0.02h-0.01
			l-0.89,6.33h2.36l0.32-2.25h0.61l0,0l4.47,6.08c0.3,0.4,0.67,0.69,1.14,0.69h0.63L40.5,49.57"/>
		<g>
			<path style="fill:#EE1D23;" d="M72.02,51.32l0.05-0.41c-0.57,0.14-1.23,0.21-1.97,0.23c-0.06,0-0.13,0.01-0.18,0.01
				c-0.59,0-0.75-0.35-0.69-0.76l0.2-1.45l0.05-0.41l0.21-1.45c0.05-0.41,0.31-0.76,0.9-0.76c0.06,0,0.13,0,0.18,0.01
				c0.78,0.01,1.39,0.07,1.9,0.21l0.05-0.41l0,0c0.04-0.35,0.08-0.63-0.39-0.72c-0.46-0.08-1-0.12-1.63-0.12
				c-2.26,0-3.25,0.85-3.44,2.19h0.01h-0.01L66.93,50l0,0c-0.19,1.34,0.57,2.19,2.83,2.19c0.64,0,1.23-0.05,1.76-0.14
				C71.78,51.98,71.95,51.86,72.02,51.32 M56.77,49.18l-0.28,1.94c-0.15,0.05-0.35,0.09-0.61,0.09c-0.59,0-0.75-0.35-0.69-0.76
				l0.04-0.25h0.01l0.07-0.5c0.06-0.41,0.31-0.76,0.91-0.76h0.59L56.77,49.18L56.77,49.18z M56.68,45.37L56.68,45.37h-2.02
				c-0.35,0-0.63,0.35-0.71,0.88h2.41c0.6,0,0.75,0.37,0.69,0.78l-0.11,0.76h-0.78l0,0c-2.14,0.04-3.09,0.86-3.28,2.17l-0.04,0.24
				c0,0,0,0,0,0.01c-0.19,1.34,0.57,2.19,2.83,2.19c1.24,0,2.32-0.2,3.06-0.51l0.36-2.57h0.01l0.23-1.72
				C59.54,46.27,58.82,45.41,56.68,45.37"/>
		</g>
	</g>
</g>
</svg>
