<?xml version="1.0" encoding="utf-8"?>
<svg version="1.1" id="Layer_1" xmlns="http://www.w3.org/2000/svg" xmlns:xlink="http://www.w3.org/1999/xlink" x="0px" y="0px"
	 viewBox="0 0 412.21 73.86" style="enable-background:new 0 0 412.21 73.86;" xml:space="preserve">
<g>
	<path style="fill:#FFF200;stroke:#FFF200;" d="M403.34,71.88c-0.16,0.02-0.32,0.02-0.48,0c-65.22-3.93-131.42-5.9-196.76-5.9
		s-131.54,2-196.75,5.9c-0.16,0.02-0.33,0.02-0.49,0c-1.83,0.01-3.58-0.71-4.87-2c-1.29-1.32-2.01-3.1-2-4.95v-56
		c-0.04-3.77,2.97-6.86,6.74-6.9c0.05,0,0.09,0,0.14,0c0.15-0.01,0.31-0.01,0.46,0c65.24,3.9,131.43,5.89,196.78,5.89
		s131.54-2,196.75-5.9h0.48c3.77-0.03,6.84,3,6.87,6.77c0,0.04,0,0.09,0,0.13v56c0.05,3.78-2.97,6.88-6.75,6.93
		c-0.04,0-0.08,0-0.12,0V71.88z"/>
	<path style="fill:#FFF200;stroke:#FFF200;" d="M403.34,0.5c4.59-0.03,8.34,3.66,8.37,8.25c0,0.05,0,0.11,0,0.16v56
		c0.06,4.58-3.61,8.35-8.19,8.41c-0.06,0-0.12,0-0.18,0h-0.55c-65.51-3.93-131.07-5.89-196.68-5.89S74.93,69.41,9.42,73.36H8.87
		c-4.59,0.03-8.34-3.66-8.37-8.25c0-0.05,0-0.11,0-0.16v-56C0.43,4.36,4.1,0.57,8.69,0.5c0.06,0,0.12,0,0.18,0h0.55
		C74.93,4.45,140.5,6.43,206.11,6.43s131.17-1.97,196.68-5.9h0.55 M403.34,3.53L403.34,3.53c-0.12-0.01-0.25-0.01-0.37,0
		c-65.27,3.9-131.5,5.9-196.86,5.9s-131.6-2-196.85-5.94C9.13,3.48,9,3.48,8.87,3.49C5.91,3.48,3.5,5.87,3.49,8.83
		c0,0.02,0,0.05,0,0.07v56c-0.04,2.95,2.31,5.39,5.27,5.43c0.04,0,0.07,0,0.11,0c0.12,0.01,0.24,0.01,0.36,0
		c65.28-3.9,131.5-5.9,196.88-5.9s131.59,2,196.84,5.91c0.13,0.01,0.26,0.01,0.39,0c2.97,0.02,5.39-2.36,5.41-5.33
		c0-0.03,0-0.07,0-0.1v-56c0.05-2.98-2.32-5.43-5.3-5.48c-0.04,0-0.07,0-0.11,0L403.34,3.53z"/>
	<path d="M35.11,51.75h-9.89V27.88h-3v-5.77h12c11.24,0,17.47,2.83,17.47,15.12C51.69,48.43,44.66,51.75,35.11,51.75z M35.2,27.88
		h-1.78v18.16h2.48c6.14,0,7.17-3.52,7.17-9.37C43.11,29.29,40.21,27.88,35.2,27.88L35.2,27.88z"/>
	<path d="M67.46,52.32c-8.95,0-13.82-6.28-13.82-15.37s4.87-15.39,13.82-15.39s13.82,6.32,13.82,15.38S76.4,52.32,67.46,52.32z
		 M67.46,27.84c-3.28,0-5.11,2.72-5.11,9.1s1.83,9.09,5.11,9.09s5.11-2.66,5.11-9.09S70.74,27.84,67.46,27.84z"/>
	<path d="M105.06,46l-0.37,5.76H84.4V22.11h8.19V46H105.06z"/>
	<path d="M128.28,46l-0.37,5.76h-20.29V22.11h8.19V46H128.28z"/>
	<path d="M159.27,51.75h-8.58l-1.78-5.43h-9.87l-1.59,5.43h-8l7.79-23.87l1.61-5.77h9.75L159.27,51.75z M147.11,40.83l-2.3-7.12
		c-0.54-1.44-0.92-2.94-1.11-4.47h-0.09c-0.17,1.51-0.49,2.99-0.94,4.44l-2.07,7.15L147.11,40.83z"/>
	<path d="M185.97,46.51c-1.22,0-1.92-0.43-2.81-1.83l-2.38-3.8c3.32-1.37,5.57-4.41,5.57-9.12c0-3.59-1.45-6.37-4.36-8
		c-2-1.17-5-1.64-9.16-1.64h-11.12v29.64h8.18v-9.85h2.22l3.28,5.3c0.82,1.44,1.92,2.71,3.23,3.73c1.39,0.93,3.05,1.39,4.72,1.32
		c1.55-0.02,3.07-0.39,4.45-1.09l0.51-5.37C187.61,46.25,186.8,46.5,185.97,46.51z M173.38,36.81h-3.47v-8.93h2.34
		c2.25,0,3.71,0.21,4.55,1.06c0.78,0.9,1.17,2.08,1.08,3.27c-0.01,3.22-1.26,4.6-4.51,4.6H173.38z"/>
	<path style="fill-rule:evenodd;clip-rule:evenodd;" d="M383.62,22.11c1.66,0,3,1.34,3,3s-1.34,3-3,3s-3-1.34-3-3
		S381.96,22.11,383.62,22.11z M383.62,22.58c-1.41,0-2.56,1.15-2.56,2.56c0,1.41,1.15,2.56,2.56,2.56c1.41,0,2.56-1.15,2.56-2.56
		C386.18,23.73,385.03,22.58,383.62,22.58z M383.06,26.9h-0.53v-3.38c0.33-0.05,0.67-0.07,1-0.06c0.35-0.01,0.69,0.06,1,0.22
		c0.2,0.18,0.31,0.44,0.3,0.71c0.01,0.39-0.26,0.73-0.64,0.82l0,0c0.28,0.07,0.48,0.33,0.56,0.83c0.02,0.29,0.09,0.57,0.21,0.84
		h-0.56c-0.13-0.26-0.2-0.55-0.23-0.84c-0.01-0.35-0.3-0.63-0.65-0.63c-0.03,0-0.05,0-0.08,0.01h-0.37v1.46L383.06,26.9z
		 M383.06,25.02h0.4c0.45,0,0.8-0.16,0.8-0.56s-0.2-0.61-0.8-0.61c-0.18,0-0.3,0-0.4,0V25V25.02z"/>
	<path d="M367.26,51.75h-8.56l-1.78-5.43h-9.9l-1.59,5.43h-8l7.78-23.87l1.6-5.77h9.78L367.26,51.75z M355.11,40.83l-2.3-7.12
		c-0.55-1.44-0.92-2.94-1.12-4.47h-0.09c-0.16,1.51-0.47,3-0.94,4.44l-2,7.15L355.11,40.83z"/>
	<path d="M228.96,51.75h-4.85l-1-1.51c-2.34,1.39-5.01,2.1-7.73,2.07c-9.59,0-13.44-6.74-13.44-15.37c0-9.76,5.21-15.38,14.22-15.38
		c6.67,0,11,3.16,12.2,9.16l-8.52,1.45c-0.62-2.84-1.76-4.38-4.14-4.38c-3,0-5,3.23-5,8.84c0,6.18,2.17,9.45,6.68,9.45
		c1.22-0.01,2.42-0.26,3.54-0.74v-4.09h-3.2v-4.71h11.25L228.96,51.75z"/>
	<path d="M253.6,46l-0.37,5.76h-20.55V22.11h19.86v5.77h-11.67v6h9.55v5.72h-9.55v6.43L253.6,46z"/>
	<path d="M281.57,51.75h-5.16l-12-14.2c-0.53-0.59-0.96-1.27-1.28-2v16.2h-6.73V22.11h5l12.11,14.23c0.55,0.63,1.01,1.33,1.36,2.09
		V22.11h6.7L281.57,51.75z"/>
	<path d="M306.81,46l-0.38,5.76h-20.56V22.11h19.85v5.77h-11.61v6h9.53v5.72h-9.53v6.43L306.81,46z"/>
	<path d="M389.98,46l-0.36,5.76h-20.29V22.11h8.2V46H389.98z"/>
	<path d="M333.88,46.51c-1.22,0-1.92-0.43-2.81-1.83l-2.38-3.8c3.32-1.37,5.57-4.41,5.57-9.12c0-3.59-1.45-6.37-4.36-8
		c-2.06-1.17-5.05-1.64-9.18-1.64h-11.1v29.63h8.2v-9.84h2.19l3.29,5.3c0.82,1.44,1.92,2.71,3.23,3.73c1.4,0.93,3.07,1.39,4.75,1.32
		c1.54-0.02,3.06-0.39,4.44-1.09l0.52-5.37C335.54,46.25,334.72,46.5,333.88,46.51z M321.28,36.81h-3.46v-8.93h2.29
		c2.26,0,3.71,0.21,4.55,1.06c0.78,0.9,1.17,2.08,1.08,3.27C325.78,35.43,324.51,36.81,321.28,36.81L321.28,36.81z"/>
</g>
</svg>
