<?xml version="1.0" encoding="utf-8"?>
<svg version="1.1" id="Layer_1" xmlns="http://www.w3.org/2000/svg" xmlns:xlink="http://www.w3.org/1999/xlink" x="0px" y="0px"
	width="100px" height="100px" viewBox="0 0 100 100" style="enable-background:new 0 0 100 100;" xml:space="preserve">
<g>
	<circle style="fill:#E8E8E8;" cx="50" cy="50" r="50"/>
	<circle style="fill:#FFFFFF;" cx="50" cy="50" r="49.1"/>
</g>
<g>
	<g>
		<path style="fill:#FBB900;" d="M38.9,75.8c-2.2,0-4,1.8-4,4c0,2.2,1.8,4,4,4s4-1.8,4-4C42.9,77.6,41.1,75.8,38.9,75.8"/>
		<path style="fill:#E62933;" d="M27.9,75.8c-2.2,0-4,1.8-4,4c0,2.2,1.8,4,4,4s4-1.8,4-4l0,0C31.8,77.6,30.1,75.8,27.9,75.8"/>
		<path style="fill:#09A548;" d="M50,75.8c-2.2,0-4,1.8-4,4c0,2.2,1.8,4,4,4c2.2,0,4-1.8,4-4l0,0C53.9,77.6,52.2,75.8,50,75.8"/>
		<path style="fill:#1FA8E0;" d="M72.1,75.8c-2.2,0-4,1.8-4,4c0,2.2,1.8,4,4,4c2.2,0,4-1.8,4-4C76.1,77.6,74.3,75.8,72.1,75.8"/>
		<path style="fill:#A83E8F;" d="M61,75.8c-2.2,0-4,1.8-4,4c0,2.2,1.8,4,4,4c2.2,0,4-1.8,4-4c0,0,0,0,0,0C65,77.6,63.2,75.8,61,75.8
			"/>
	</g>
	<g>
		<path style="fill:#605D5C;" d="M50,16.3c-13.8,0-24.9,10.4-24.9,24.3c0,0.2,0,0.4,0,0.5c0.2,13.3,11.1,24,24.4,23.8
			c8.7,0,14.5-4.3,17.5-9.3h0.4v6.2c0,0.2,0,0.3,0,0.5c0.2,1.9,1.9,3.4,3.8,3.2c0.1,0,0.3,0,0.4,0c2-0.1,3.5-1.7,3.4-3.7V40.5
			C74.9,26.7,63.8,16.3,50,16.3z M67.6,41.4c-0.3,9.5-8.1,16.9-17.6,16.7c-0.3,0-0.5,0-0.8,0c-9.5-0.2-17-8.1-16.8-17.5
			c0-0.3,0-0.6,0-0.8C32.7,30.3,40.6,22.8,50,23c0.3,0,0.5,0,0.8,0c9.5,0.2,17,8.1,16.8,17.6C67.6,40.9,67.6,41.2,67.6,41.4z"/>
	</g>
</g>
</svg>
