<?xml version="1.0" encoding="utf-8"?>
<svg version="1.1" id="Layer_1" xmlns="http://www.w3.org/2000/svg" xmlns:xlink="http://www.w3.org/1999/xlink" x="0px" y="0px"
	 viewBox="0 0 512 165.53" style="enable-background:new 0 0 512 165.53;" xml:space="preserve">
<g>
	<polygon id="XMLID_1_" style="fill:#B52E83;" points="512,3.51 512,163.42 494.47,163.42 403.29,33.66 403.29,163.42 
		386.88,163.42 386.88,3.51 403.29,3.51 494.47,134.24 494.47,3.51 	"/>
	<path id="XMLID_2_" style="fill:#B52E83;" d="M295.7,0c-44.47,0-81.78,37.31-81.78,82.9c0,5.89,1.12,9.82,1.12,15.43h0.28v1.4
		c-4.21,0-8.42,0-13.33,0c-23.15,0-44.19-2.95-61.02-5.05V64.24c12.62-2.38,25.67-4.63,42.08-4.63c-16.41,0-29.46,1.12-42.08,2.1
		V21.17h77.15V2.93h-107.3L0,162.86h21.04l104.5-147.85v49.1c-26.65,4.63-36.19,14.03-36.19,22.16c0,8.42,13.75,16.41,36.19,21.04
		v55.55h92.58v-15.43h-77.15v-36.61c18.24,2.38,37.87,2.95,58.92,2.95c7.01,0,14.03,0,19.64,0c12.91,30.86,42.08,51.76,76.03,51.76
		c45.59,0,81.78-37.31,81.78-82.9C377.34,37.03,341.29,0,295.7,0z M125.55,91.18c-12.62-2.38-18.66-7.01-18.66-10.52
		s6.03-8.42,18.66-11.92V91.18z M295.7,149.39c-24.55,0-46.71-15.15-57.23-36.19c42.08-4.63,72.24-14.03,72.24-26.93
		c0-10.52-14.03-19.64-59.62-24.55c26.93,3.51,45.59,11.92,45.59,18.94c0,8.14-26.65,15.15-64.25,17.53
		c-1.12-4.91-1.12-9.4-1.12-15.43c0-36.19,29.18-65.23,64.25-65.23c36.19,0,65.51,29.18,65.51,65.23
		C361.21,119.23,331.75,149.39,295.7,149.39z"/>
</g>
</svg>
