<?xml version="1.0" encoding="utf-8"?>
<svg version="1.1" id="Layer_1" xmlns="http://www.w3.org/2000/svg" xmlns:xlink="http://www.w3.org/1999/xlink" x="0px" y="0px"
	width="100px" height="100px" viewBox="0 0 230.8 230.8" style="enable-background:new 0 0 230.8 230.8;" xml:space="preserve">
<g>
	<circle style="fill:#E8E8E8;" cx="115.4" cy="115.4" r="115.4"/>
	<circle style="fill:#FFFFFF;" cx="115.4" cy="115.4" r="113.1"/>
	<g>
		<path id="A" style="fill:#FF9900;" d="M186.5,153.7c-1.6-2.1-9.9-2.5-15.2-1.8s-13.2,3.9-12.5,5.8c0.2,0.7,1.2,0.5,4.6,0
			c3.7-0.5,13.6-1.6,15.9,1.2c2.1,2.8-3.2,15.9-4.2,18c-0.9,2.1,0.5,2.5,2.1,1.2c1.8-1.4,4.8-5.1,6.9-10.4
			C186.5,162.5,187.7,155.4,186.5,153.7z M169.4,163c-60.9,28.9-98.6,4.6-122.8-9.9c-1.6-0.9-3.9,0.2-1.8,2.8
			c8.1,9.7,34.4,33.2,68.8,33.2s54.9-18.7,57.5-22.2C173.8,163.9,172,162.1,169.4,163z"/>
	</g>
	<g>
		<path id="B" d="M163.2,133.4c-3.5-4.8-7.4-9-7.4-18V85c0-12.9,0.9-24.7-8.5-33.5c-7.4-7.2-19.9-9.7-29.3-9.7
			c-18.5,0-39.2,6.9-43.6,29.8c-0.5,2.3,1.4,3.7,3,4.2l18.9,2.1c1.8,0,3-1.8,3.5-3.7c1.6-7.8,8.3-11.8,15.7-11.8
			c3.9,0,8.5,1.4,11.1,5.1c2.8,3.9,2.3,9.5,2.3,14.1V84c-11.3,1.4-26.1,2.1-36.7,6.7c-12.2,5.3-20.8,15.9-20.8,31.9
			c0,20.3,12.7,30.5,29.1,30.5c13.9,0,21.5-3.2,32.1-14.1c3.5,5.1,4.6,7.6,11.3,12.9c1.4,0.7,3.2,0.7,4.6-0.5l0,0
			c3.7-3.5,10.8-9.7,15-12.9C164.8,137.4,164.4,135.3,163.2,133.4z M124.9,124.7c-3.2,5.5-8.1,8.8-13.6,8.8
			c-7.4,0-11.8-5.8-11.8-14.1c0-16.6,14.8-19.6,29.1-19.6v4.2C128.6,111.5,128.8,118,124.9,124.7z"/>
	</g>
	<g>
		<path id="A_1_" style="fill:#FF9900;" d="M186.5,153.7c-1.6-2.1-9.9-2.5-15.2-1.8s-13.2,3.9-12.5,5.8c0.2,0.7,1.2,0.5,4.6,0
			c3.7-0.5,13.6-1.6,15.9,1.2c2.1,2.8-3.2,15.9-4.2,18c-0.9,2.1,0.5,2.5,2.1,1.2c1.8-1.4,4.8-5.1,6.9-10.4
			C186.5,162.5,187.7,155.4,186.5,153.7z M169.4,163c-60.9,28.9-98.6,4.6-122.8-9.9c-1.6-0.9-3.9,0.2-1.8,2.8
			c8.1,9.7,34.4,33.2,68.8,33.2s54.9-18.7,57.5-22.2C173.8,163.9,172,162.1,169.4,163z"/>
	</g>
	<g>
		<path id="B_1_" d="M163.2,133.4c-3.5-4.8-7.4-9-7.4-18V85c0-12.9,0.9-24.7-8.5-33.5c-7.4-7.2-19.9-9.7-29.3-9.7
			c-18.5,0-39.2,6.9-43.6,29.8c-0.5,2.3,1.4,3.7,3,4.2l18.9,2.1c1.8,0,3-1.8,3.5-3.7c1.6-7.8,8.3-11.8,15.7-11.8
			c3.9,0,8.5,1.4,11.1,5.1c2.8,3.9,2.3,9.5,2.3,14.1V84c-11.3,1.4-26.1,2.1-36.7,6.7c-12.2,5.3-20.8,15.9-20.8,31.9
			c0,20.3,12.7,30.5,29.1,30.5c13.9,0,21.5-3.2,32.1-14.1c3.5,5.1,4.6,7.6,11.3,12.9c1.4,0.7,3.2,0.7,4.6-0.5l0,0
			c3.7-3.5,10.8-9.7,15-12.9C164.8,137.4,164.4,135.3,163.2,133.4z M124.9,124.7c-3.2,5.5-8.1,8.8-13.6,8.8
			c-7.4,0-11.8-5.8-11.8-14.1c0-16.6,14.8-19.6,29.1-19.6v4.2C128.6,111.5,128.8,118,124.9,124.7z"/>
	</g>
</g>
</svg>
