<?xml version="1.0" encoding="utf-8"?>
<svg version="1.1" id="Layer_1" xmlns="http://www.w3.org/2000/svg" xmlns:xlink="http://www.w3.org/1999/xlink" x="0px" y="0px"
	width="100px" height="100px" viewBox="0 0 72.2 72.2" style="enable-background:new 0 0 72.2 72.2;" xml:space="preserve">
<g>
	<circle style="fill:#E8E8E8;" cx="36.1" cy="36.1" r="36.1"/>
	<circle style="fill:#FFFFFF;" cx="36.1" cy="36.1" r="35.4"/>
	<path style="fill:#05A1CC;" d="M37.4,39.6c-0.4,1.4-0.6,3-0.6,4.5v13h5.8V44c0-0.7,0.1-1.5,0.3-2.2c0.3-0.9,1.1-1.6,2-1.9
		c0.4-0.1,0.9-0.1,1.4-0.1s0.9,0,1.4,0.1c1,0.2,1.8,0.9,2.1,1.9c0.2,0.7,0.4,1.4,0.4,2.2c0,0.7-0.1,1.4-0.4,2.2
		c-0.3,0.9-1.1,1.7-2.1,1.9c-0.4,0.1-0.9,0.1-1.4,0.1s-0.9,0-1.4-0.1c-0.2,0-0.4-0.1-0.6-0.1l1.9,5.3c1.8,0,3.6-0.3,5.3-0.9
		c1.7-0.6,3-2.1,3.6-3.9c0.4-1.4,0.6-3,0.6-4.5c0-1.5-0.2-3-0.6-4.4c-0.6-1.8-1.9-3.2-3.6-3.9c-1.7-0.6-3.5-0.9-5.3-0.9
		c-1.8,0-3.6,0.3-5.3,0.9C39.2,36.4,37.9,37.8,37.4,39.6 M29.6,24.3h5.8c0-1.4-0.2-3-0.6-4.4c-0.6-1.8-1.9-3.2-3.6-3.9
		c-1.7-0.6-3.5-0.9-5.3-0.9s-3.6,0.3-5.3,0.9c-1.7,0.6-3,2.1-3.6,3.9c-0.4,1.4-0.6,3-0.6,4.4c0,1.5,0.2,3,0.6,4.5
		c0.6,1.8,1.9,3.2,3.6,3.9c1.7,0.6,3.5,0.9,5.3,0.9s3.6-0.3,5.3-0.9c1.7-0.6,3-2.1,3.6-3.9l0.2-0.7l-5.5-2.5c0,0.4-0.1,0.6-0.2,1
		c-0.3,0.9-1.1,1.7-2.1,1.9c-0.4,0.1-0.9,0.1-1.4,0.1c-0.4,0-0.9,0-1.4-0.1c-1-0.2-1.8-0.9-2.1-1.9c-0.2-0.7-0.4-1.4-0.4-2.2
		s0.1-1.5,0.4-2.2c0.3-0.9,1.1-1.7,2.1-1.9c0.4-0.1,0.9-0.1,1.4-0.1c0.5,0,0.9,0,1.4,0.1c1,0.2,1.8,0.9,2.1,1.9
		C29.5,22.9,29.6,23.6,29.6,24.3 M29.7,44c0,0.7-0.1,1.4-0.4,2.2c-0.3,0.9-1.1,1.7-2.1,1.9c-0.4,0.1-0.9,0.1-1.4,0.1s-0.9,0-1.4-0.1
		c-1-0.2-1.8-0.9-2.1-1.9C22.2,45.5,22,44.8,22,44c0-0.7,0.1-1.5,0.4-2.2c0.3-0.9,1.1-1.7,2.1-1.9c0.4-0.1,0.9-0.1,1.4-0.1
		c0.5,0,0.9,0,1.4,0.1c1,0.2,1.8,0.9,2.1,1.9C29.5,42.6,29.7,43.3,29.7,44 M34.8,48.5c0.4-1.4,0.6-3,0.6-4.5c0-1.5-0.2-3-0.6-4.5
		c-0.6-1.8-1.9-3.2-3.6-3.9c-1.7-0.6-3.5-0.9-5.3-0.9s-3.6,0.3-5.3,0.9c-1.7,0.6-3,2.1-3.6,3.9c-0.4,1.4-0.6,3-0.6,4.5
		c0,1.5,0.2,3,0.6,4.5c0.6,1.8,1.9,3.2,3.6,3.9c1.7,0.6,3.5,0.9,5.3,0.9s3.6-0.3,5.3-0.9C33,51.7,34.2,50.3,34.8,48.5 M50.1,24.3
		c0,0.7-0.1,1.5-0.4,2.2c-0.3,0.9-1.1,1.7-2.1,1.9c-0.4,0.1-0.9,0.1-1.4,0.1s-0.9,0-1.4-0.1c-1-0.2-1.8-0.9-2.1-1.9
		c-0.2-0.7-0.4-1.4-0.4-2.2s0.1-1.5,0.4-2.2c0.3-0.9,1.1-1.7,2.1-1.9c0.4-0.1,0.9-0.1,1.4-0.1s0.9,0,1.4,0.1c1,0.2,1.8,0.9,2.1,1.9
		C49.9,22.9,50.1,23.6,50.1,24.3 M55.2,28.8c0.4-1.4,0.6-3,0.6-4.5s-0.2-3-0.6-4.4c-0.6-1.8-1.9-3.2-3.6-3.9
		c-1.7-0.6-3.5-0.9-5.3-0.9s-3.6,0.3-5.3,0.9c-1.8,0.6-3,2.1-3.6,3.9c-0.4,1.4-0.6,3-0.6,4.4c0,1.5,0.2,3,0.6,4.5
		c0.6,1.8,1.9,3.2,3.6,3.9c1.7,0.6,3.5,0.9,5.3,0.9s3.6-0.3,5.3-0.9C53.4,32,54.6,30.5,55.2,28.8"/>
</g>
</svg>
