<?xml version="1.0" encoding="utf-8"?>
<svg version="1.1" id="Layer_1" xmlns="http://www.w3.org/2000/svg" xmlns:xlink="http://www.w3.org/1999/xlink" x="0px" y="0px"
	 viewBox="0 0 842.7 999.2" style="enable-background:new 0 0 842.7 999.2;" xml:space="preserve">
<path d="M701.8,959c-54.2,52.6-114,44.4-171,19.6c-60.6-25.3-116-26.9-180,0c-79.7,34.4-122,24.4-170-19.6c-271-279-231-704,77-720
	c74.7,4,127,41.3,171,44.4c65.4-13.3,128-51.4,198-46.4c84.1,6.8,147,40,189,99.7c-173,104-132,332,26.9,396
	c-31.8,83.5-72.6,166-141,227L701.8,959z M422.8,236c-8.1-124,92.4-226,208-236C646.7,143,500.8,250,422.8,236z"/>
</svg>
