<?xml version="1.0"?>
<svg xmlns="http://www.w3.org/2000/svg" xmlns:xlink="http://www.w3.org/1999/xlink" xmlns:svgjs="http://svgjs.com/svgjs" version="1.1" width="512" height="512" x="0" y="0" viewBox="0 0 512 512" style="enable-background:new 0 0 512 512" xml:space="preserve" class=""><g><g xmlns="http://www.w3.org/2000/svg"><g><g><g><g id="XMLID_796_"><g id="XMLID_797_"><g id="XMLID_798_"><g id="XMLID_800_"><g id="XMLID_801_"><g id="XMLID_802_"><g id="XMLID_804_"><g id="XMLID_805_"><g id="XMLID_1021_"><g id="XMLID_1022_"><g id="XMLID_1038_"><g id="XMLID_1039_"><g id="XMLID_1040_"><g id="XMLID_1041_"><g id="XMLID_1042_"><circle cx="256" cy="256" fill="#f1f1f1" r="256" data-original="#62d2f4" style="" class=""/></g></g></g></g></g></g></g></g></g></g></g></g></g></g></g></g></g></g><path d="m469.455 160.758c-123.51-123.51-158.577-42.382-222.331 14.497s-45.049 82.333-42.797 117.944c2.253 35.611-120.571 109.491-120.571 109.491l98.514 98.514c23.35 7.011 48.096 10.796 73.73 10.796 141.385 0 256-114.615 256-256 0-20.564-2.441-40.556-7.02-59.717z" fill="#f1f1f1" data-original="#36aedd" style="" class=""/><g><path d="m424.383 210.545-21.788-21.788-62.748 62.748-74.233-74.233 62.748-62.748-21.788-21.788-122.981 122.98 3.742 83.395-73.31 73.31 7.765 22.908 22.908 7.765 73.31-73.31 83.395 3.742zm-135.166 91.59-71.046-3.188-3.188-71.046 28.843-28.843 74.234 74.233z" fill="#ffffff" data-original="#ffffff" style="" class=""/><path d="m402.597 188.754-62.749 62.749-37.116-37.116-21.786 21.786 37.116 37.116-28.843 28.843-71.05-3.182-96.379 96.379 22.91 7.764 73.306-73.306 83.396 3.733 122.98-122.98z" fill="#e2e2e2" data-original="#e2e2e2" style=""/><path d="m411.358 218.855-113.095-113.094c-10.84-10.84-10.84-28.416 0-39.256l18.841-18.841c10.84-10.84 28.416-10.84 39.256 0l113.094 113.094c10.84 10.84 10.84 28.416 0 39.256l-18.841 18.841c-10.839 10.841-28.415 10.841-39.255 0z" fill="#ff7d47" data-original="#ff7d47" style=""/><path d="m469.454 200.018-18.837 18.837c-10.041 10.041-25.873 10.783-36.762 2.213-.863-.679-1.697-1.414-2.496-2.213l-56.547-56.547 58.096-58.096 56.547 56.547c10.839 10.84 10.839 28.419-.001 39.259z" fill="#ff405c" data-original="#ff405c" style=""/><path d="m92.538 381.489h43.378v42.806h-43.378z" fill="#5c4f5e" transform="matrix(.707 .707 -.707 .707 318.343 37.234)" data-original="#5c4f5e" style=""/><path d="m100.492 399.714h42.81v21.69h-42.81z" fill="#3d313f" transform="matrix(.707 -.707 .707 .707 -254.606 206.444)" data-original="#3d313f" style=""/></g></g></g></svg>
