<?xml version="1.0" encoding="utf-8"?>
<svg version="1.1" id="Layer_1" xmlns="http://www.w3.org/2000/svg" xmlns:xlink="http://www.w3.org/1999/xlink" x="0px" y="0px"
	width="100px" height="100px" viewBox="0 0 72.2 72.2" style="enable-background:new 0 0 72.2 72.2;" xml:space="preserve">
<g>
	<circle style="fill:#E8E8E8;" cx="36.1" cy="36.1" r="36.1"/>
	<circle style="fill:#FFFFFF;" cx="36.1" cy="36.1" r="35.4"/>
	<path style="fill:#EE2424;" d="M63.3,34c0,1.8-2.2,8.1-2.5,9c-0.2,0.6-0.6,0.7-1.3,0.7c-1,0-1.9-0.2-2.2-0.6
		c-0.1-0.1-0.1-0.3-0.1-0.4c0.4-1.2,1.9-5.4,1.9-6.3c0-0.5-0.1-0.9-0.6-0.9c-3,0-8.6,6.5-9.7,7.6c-0.4,0.4-0.9,0.4-1.4,0.4
		c-0.7,0-1.5-0.4-1.6-0.4c-0.2-0.1-0.2-0.2-0.1-0.5l0.2-0.8c0.4-1.4,2.2-6.6,3.4-9.5c0.1-0.1,0.1-0.2,0.4-0.3
		c0.4-0.1,0.7-0.1,1.1-0.1c0.4,0,1.3,0,1.6,0.2v0.6c0,0.3,0.1,1.3,1,1.3c1.6,0,4.5-2.7,7.1-2.7C62.8,31.5,63.3,32.9,63.3,34
		 M31.1,36.3c0,0.4-0.4,1.4-0.5,1.6c-0.4,1-1.4,1.2-2.2,1.2c-1.1,0-1.5-0.4-1.5-1c0-0.5,0.4-1.3,0.4-1.4c0.5-1.2,1.4-1.2,2.2-1.2
		C30.4,35.3,31.1,35.6,31.1,36.3 M21.7,33.9c0-0.7,0-1.7-0.6-1.7c-1.8,0-5.1,2.8-5.3,3.1c-0.2,0.2-0.1,0.2,0.3,0.2h4.1
		C21.6,35.5,21.7,35.3,21.7,33.9 M26,34.3c0,3.5-2.2,4.3-4.6,4.3h-1.7c-1.7,0-5.1-0.1-5.1-0.1c-0.3,0-0.5-0.1-0.5,0.1
		c0,1.2,1.3,2.9,3.2,2.9c1.6,0,2.6-1,2.8-1.2c0,0,1.8-0.2,3-0.2c1.1,0,2.7,0.1,2.7,0.8c0,1.2-4,3.2-7.4,3.2c-5.1,0-9.7-2.7-9.7-6.1
		c0-5.6,10.8-9.8,14-9.8C25.7,28.1,26.1,32.6,26,34.3 M39.6,34.1c-0.4,0-0.9,0.1-1.2,0.4c-1,1.4-1.6,4.7-1.6,5.6
		c0,0.6,0.4,0.6,1,0.6c0.4,0,0.9,0,1.2-0.3c0.9-0.9,1.6-4.9,1.6-5.6C40.6,34.3,40.6,34.1,39.6,34.1 M46,34c0,1.5-1.5,4.9-2,5.8
		c-2,3.9-4.8,3.9-7.8,3.9c-1.5,0-4.8,0-4.8-2.8c0-1.2,1.1-3.5,2-5.7c0.4-0.9,2-4,7.6-4C43.2,31.2,46,31.5,46,34"/>
</g>
</svg>
