<svg xmlns="http://www.w3.org/2000/svg" viewBox="0 0 130.5 80" fill="#2167ae"><path d="M60.4 0C48.3 0 38.5 9.8 38.5 21.9c0 5 1.7 9.6 4.5 13.3l18.2-24h-2-2c-2.1 0-4 .1-5.4.4-.9.2-1.6.5-2.2.9-.7.5-1.6 1.6-2.2 2.7-.1.1-.2.3-.3.6l-1.1-.2 1.8-6.9h22.9L52.5 33c1.2-.1 1.7-.1 2.6-.1.7 0 1.9 0 3.4.1l3.2.2c1.2.1 2.1.1 2.9.1 1.7 0 2.8-.1 3.8-.5.8-.3 1.6-.6 2.3-1.1 1.3-.9 2.5-2.3 3.3-3.7.1-.1.2-.4.3-.6l1 .3c-.3 1.2-.5 1.7-1 2.7-1 2.2-2.1 3.6-3.6 4.8-1.6 1.2-3.3 1.7-5.3 1.7h-.3c-1.5 0-2.7-.1-6.3-.7-3.7-.6-5.5-.8-7.4-.8-1.2 0-2.4.1-3.6.3-1.6.3-2.2.4-3.6 1.1 4 4.4 9.8 7.1 16.2 7.1 12.1 0 21.9-9.8 21.9-22C82.3 9.8 72.5 0 60.4 0zM15.3 76.4c-.9.2-2 .3-3.3.3h-1.7-3.2l12.7-18.1H3.3l-2 4.4c.7-.4.9-.5 1.5-.7a10.24 10.24 0 0 1 3-.8c.9-.2 1.7-.2 3-.3h1.6 2.4L0 79.3h18.2l2.1-4.7c-.7.4-1 .6-1.5.8-1.2.4-2.3.8-3.5 1zm58.7-14c0-1.4 0-1.8.2-2.3.1-.2.2-.4.3-.7.2-.4.4-.5.8-.9h-6.7c.4.4.6.5.8.8.1.2.3.4.3.7.2.5.2 1 .2 2.2v1.2V76c0 .7-.1 1.5-.3 2l-.3.6c-.2.2-.3.4-.6.7h6.7l-.7-.7-.3-.6c-.2-.5-.3-1.2-.3-1.8V63.6l-.1-1.2zm20.1 13.9c-1.3.5-2.4.8-3.7.8-2.2 0-4-.8-5.4-2.2-1.4-1.5-2.1-3.5-2.1-5.7s.7-4.2 1.9-5.6c.5-.6 1.2-1.1 1.9-1.5 1.2-.7 2.6-1 4.1-1 1.3 0 2.5.2 3.8.8.8.3 1.1.5 1.7.9v-3.9c-.5-.2-.7-.2-1.3-.3-1.2-.3-2.4-.4-3.7-.4-2.3 0-4.2.4-6 1.1-1.1.4-2 1-2.9 1.7-2.6 2.1-4 5-4 8.5 0 3.3 1.4 6.2 3.8 8.1 2 1.6 4.7 2.4 7.8 2.4 2 0 3.8-.3 5.9-.9.1 0 .2-.1.3-.1v-3.8l-1 .6-1.1.5zm24.7-13.9c0-.9.1-1.6.2-2.2l.3-.8c.2-.4.4-.5.8-.9h-6.8c.4.3.5.5.8.8.2.2.3.5.4.7.2.5.2 1.1.2 2.2v5h-9.4v-3.8l.1-2.4c0-.3.1-.6.2-.9.2-.4.5-1.1.9-1.4l.2-.2H100c.4.4.5.5.7.8.1.2.3.4.4.7.2.5.2.8.2 2.2v1.3 11.4l-.1 2.2c0 .3-.1.5-.2.8-.2.5-.4.8-.8 1.2l-.2.2h6.6c-.3-.3-.4-.4-.6-.7l-.3-.6c-.2-.5-.3-.9-.3-1.8V75v-5h9.4v5l-.1 2.1c0 .3-.1.6-.2.9-.1.4-.4.7-.8 1.1-.1.1-.2.1-.3.3h6.7l-.6-.6c-.2-.2-.3-.5-.4-.7-.2-.5-.3-.8-.3-1.9v-1.1-11.4-1.3h0zM65.2 77.9l-2.4-2.4-1.5-1.7L58 70c.4-.1.6-.2.9-.3 1-.4 1.9-.9 2.6-1.5.8-.7 1.4-1.4 1.7-2.4a4.53 4.53 0 0 0 .3-1.6c0-1.3-.5-2.4-1.4-3.4-.9-.9-2.1-1.5-3.4-1.9-.9-.2-1.9-.3-3.6-.4h-1.9-5.4c.4.3.5.5.7.8.2.2.3.5.4.8.1.5.2 1.1.2 2.2v13.6c0 1-.1 1.6-.2 2-.1.2-.2.5-.4.7s-.3.4-.7.7h6.7c-.3-.3-.4-.4-.6-.7-.2-.2-.3-.4-.4-.6-.2-.5-.3-.9-.3-1.9v-1-4.7L57 75c.2.2.5.6.9 1 .4.5.8.9 1 1.1a10.06 10.06 0 0 0 2.2 1.7 4.34 4.34 0 0 0 2.1.5h1.1 2.6l-.8-.6c-.3-.3-.6-.5-.9-.8zm-8-10.2c-.8.4-1.5.7-2.6.8-.4.1-.8.1-1.1.1h-.3V61h.6c1 0 2 .1 2.8.3.5.1 1 .4 1.4.7.7.6 1.1 1.5 1.1 2.6 0 .9-.3 1.7-.8 2.3-.4.3-.7.6-1.1.8zm-18.9-8.3c.1.2.2.5.3.7.1.5.2 1 .2 2.2v7.9c0 1.7 0 2.7-.2 3.5-.1.5-.3 1.1-.5 1.5-.5.8-1.5 1.5-2.6 1.8-.5.1-1 .2-1.5.2-1.8 0-3.3-.7-4.1-1.8-.6-.8-.7-1.7-.8-3.8v-1.7-6.3l.1-2.4c0-.4.1-.7.2-.9.1-.5.5-1.1.8-1.5l.2-.2h-6.8c.4.3.6.5.8.8.1.2.2.5.3.7.1.3.1.6.1 1v1.3 7.1l.1 3.7c.1 1.5.6 2.7 1.5 3.8 1.6 2 4.1 3 7.4 3 1.6 0 3.1-.2 4.2-.7 1.2-.4 2.3-1.2 3.1-2.1 1-1.1 1.5-2.4 1.7-4 .1-.9.1-2.1.1-3.7v-6-1.2-.2c0-.9 0-1.4.2-1.9.1-.3.2-.6.4-.8.2-.4.4-.5.8-.9h-6.7c.4.4.5.5.7.9zm89-6h0c.5-.1.9-.4.9-1 0-.8-.5-1.1-1.2-1.1h-1.1v4.1h.4v-1.9h.3c.4 0 .7 0 .9.5l.6 1.4h.4l-.7-1.6c0-.2-.2-.3-.5-.4zm-1-.2v-1.5h.4c.6 0 1 0 1 .7 0 .6-.5.7-1 .7l-.4.1h0zm.8-3.1a3.37 3.37 0 0 0-3.4 3.4 3.44 3.44 0 0 0 3.4 3.4 3.44 3.44 0 0 0 3.4-3.4 3.37 3.37 0 0 0-3.4-3.4zm0 6.3a3.01 3.01 0 0 1-3-3 3.01 3.01 0 0 1 3-3 3.01 3.01 0 0 1 3 3c0 1.7-1.3 3-3 3z"/></svg>