<?xml version="1.0" encoding="utf-8"?>
<svg version="1.1" id="Layer_1" xmlns="http://www.w3.org/2000/svg" xmlns:xlink="http://www.w3.org/1999/xlink" x="0px" y="0px"
	width="100px" height="100px" viewBox="0 0 100 100" style="enable-background:new 0 0 100 100;" xml:space="preserve">
<g>
	<path style="fill:#E8E8E8;" d="M50,0c27.61,0,50,22.39,50,50s-22.39,50-50,50S0,77.61,0,50S22.39,0,50,0"/>
	<path style="fill:#FFFFFF;" d="M50,1c27.06,0,49,21.94,49,49S77.06,99,50,99S1,77.06,1,50S22.94,1,50,1"/>
	<g>
		<path style="stroke:#000000;stroke-width:0.0642;stroke-miterlimit:10;" d="M22.79,45.81c-0.73,0-1.16-0.22-1.71-0.99l-0.91-1.25
			c-0.45-0.63-0.9-0.89-1.88-0.89H16.3v3.14h-0.77v-7.01h0.77v3.15h1.42c0.92,0,1.38-0.34,1.93-1.06l1.58-2.09h0.97l-1.7,2.23
			c-0.43,0.57-0.72,0.87-1.2,1.12v0.01c0.75,0.15,1.11,0.45,1.56,1.06l0.84,1.12c0.39,0.52,0.67,0.75,1.09,0.75h0.23l-0.08,0.72
			L22.79,45.81L22.79,45.81z M28.69,45.81V38.8h6.08l0.09,0.72h-5.4v2.41h5.1v0.77h-5.1v2.34h5.78l-0.14,0.77H28.69z M48.8,45.81
			c-0.72,0-1.14-0.22-1.7-0.99l-0.47-0.67c-0.46-0.65-0.91-0.92-1.88-0.92h-2.39v2.59h-0.77v-7.01h3.53c1.76,0,2.73,0.92,2.73,2.18
			c0,1.02-0.69,1.65-1.56,1.93v0.01c0.41,0.15,0.69,0.46,1,0.88l0.42,0.56c0.39,0.53,0.67,0.75,1.1,0.75h0.23l-0.09,0.72H48.8V45.81
			z M45.11,39.51h-2.76v2.98h2.76c1.1,0,1.89-0.51,1.89-1.5C47.02,40.03,46.2,39.51,45.11,39.51z M54.8,45.81V38.8h0.77v7.01H54.8z
			 M69.52,45.81l-6.47-5.92h-0.02v5.92h-0.77V38.8h0.72l6.47,5.93h0.02V38.8h0.77v7.01H69.52L69.52,45.81z M80.97,46
			c-3.37,0-4.91-1.74-4.91-3.73c0-2.01,1.57-3.69,4.75-3.69c1.15,0,2.29,0.22,3.31,0.65v0.8c-0.99-0.45-2.14-0.74-3.31-0.74
			c-2.64,0-3.91,1.35-3.91,2.99c0,1.67,1.35,2.99,4.07,2.99c1.09,0,2.09-0.24,2.72-0.53V43h-2.91l0.09-0.71h3.6v2.94
			C83.57,45.7,82.34,46,80.97,46z"/>
		<g>
			<path d="M49,52.32c0,0.23,0.12,0.03,0.41,0.03c0.31,0,0.41,0.19,0.41-0.03c0-0.23-0.18-0.41-0.41-0.41
				C49.18,51.91,49,52.1,49,52.32"/>
			<path d="M51.55,52.32c0,0.23-0.12,0.03-0.41,0.03c-0.31,0-0.41,0.19-0.41-0.03c0-0.23,0.18-0.41,0.41-0.41
				C51.37,51.91,51.55,52.1,51.55,52.32"/>
			<path d="M49.49,51.47c-0.61,0-0.9,0.43-0.9,0.92c0,0.67,0.62,1.55,1.69,1.93c1.07-0.38,1.69-1.26,1.69-1.93
				c0-0.51-0.29-0.92-0.9-0.92c-0.51,0-0.78,0.32-0.79,0.33C50.27,51.78,50,51.47,49.49,51.47 M50.28,51.48c0,0,0.22-0.33,0.88-0.31
				c0.72,0.03,1.08,0.63,1.08,1.2c0,0.81-0.78,1.83-1.96,2.16c-1.18-0.33-1.96-1.35-1.96-2.16c0-0.57,0.37-1.17,1.08-1.2
				C50.06,51.16,50.28,51.48,50.28,51.48"/>
			<path d="M50.28,52.62L50.28,52.62c0.12,0,0.22,0.06,0.22,0.25c0,0.19-0.13,0.52-0.22,0.52c-0.09,0-0.22-0.33-0.22-0.52
				C50.06,52.68,50.16,52.62,50.28,52.62"/>
			<path d="M50.28,55.46c0.31,0.12,0.65,0.21,1.03,0.27c-0.1,0.1-0.21,0.21-0.3,0.32c-0.28,0.32-0.53,0.63-0.73,0.95
				c-0.21-0.32-0.45-0.63-0.73-0.95c-0.09-0.1-0.2-0.21-0.3-0.32C49.63,55.67,49.97,55.57,50.28,55.46 M50.28,61.26
				c-0.71,0-0.68-1.26-0.68-1.28c0.01-0.79,0.21-1.59,0.68-2.4c0.47,0.81,0.68,1.61,0.68,2.4C50.95,59.99,50.99,61.26,50.28,61.26
				 M50.28,50.68c0,0,1.27-0.06,1.96,0.61c0.32,0.31,0.46,0.72,0.46,1.23c0,0.56-0.36,1.24-0.98,1.72c-0.4,0.32-0.9,0.62-1.45,0.83
				c-0.55-0.22-1.04-0.51-1.45-0.83c-0.63-0.49-0.98-1.16-0.98-1.72c0-0.51,0.15-0.92,0.46-1.23
				C49.01,50.63,50.28,50.68,50.28,50.68 M52.03,55.47c0.81-0.74,1.79-1.46,2.95-2.18c2.2-1.35,4.43-2.26,5.2-2.56
				c-0.09,0.34-0.29,0.95-0.75,1.63c-0.63,0.94-1.88,2.2-4.27,2.79C54.06,55.42,52.99,55.53,52.03,55.47 M45.39,55.15
				c-2.39-0.59-3.64-1.84-4.27-2.79c-0.45-0.68-0.65-1.28-0.74-1.63c0.76,0.3,2.99,1.21,5.19,2.56c1.16,0.71,2.15,1.44,2.95,2.18
				C47.55,55.53,46.49,55.42,45.39,55.15 M50.28,50.37c0,0-1.4-0.05-2.17,0.69c-0.39,0.38-0.57,0.85-0.57,1.46
				c0,0.66,0.4,1.41,1.11,1.97c0.24,0.19,0.62,0.49,1.16,0.75c-0.27,0.09-0.57,0.15-0.86,0.18c-0.86-0.82-1.94-1.64-3.23-2.42
				c-2.73-1.68-5.5-2.68-5.53-2.69l-0.26-0.09l0.03,0.27c0.01,0.04,0.13,0.97,0.86,2.05c0.66,0.99,1.98,2.31,4.47,2.93
				c1.42,0.35,2.6,0.41,3.55,0.32c0.16,0.16,0.32,0.33,0.47,0.49c0.31,0.34,0.57,0.69,0.8,1.02c-0.5,0.87-0.7,1.75-0.71,2.63
				c0,0.04,0.03,0.92,0.37,1.29c0.17,0.19,0.31,0.24,0.51,0.24s0.34-0.05,0.51-0.24c0.34-0.37,0.37-1.25,0.37-1.29
				c-0.01-0.89-0.21-1.76-0.71-2.63c0.22-0.34,0.49-0.69,0.8-1.02c0.15-0.16,0.3-0.33,0.46-0.49c0.95,0.09,2.12,0.03,3.55-0.32
				c2.49-0.62,3.8-1.94,4.47-2.93c0.72-1.08,0.85-2.01,0.86-2.05l0.03-0.27l-0.26,0.09c-0.03,0.01-2.79,1.02-5.53,2.69
				c-1.28,0.79-2.37,1.6-3.23,2.42c-0.29-0.03-0.58-0.09-0.86-0.18c0.54-0.27,0.92-0.57,1.16-0.75c0.71-0.56,1.11-1.3,1.11-1.97
				c0-0.61-0.18-1.08-0.57-1.46C51.67,50.33,50.28,50.37,50.28,50.37"/>
		</g>
	</g>
</g>
</svg>
