<svg xmlns="http://www.w3.org/2000/svg" viewBox="0 0 100 40" xmlns:v="https://vecta.io/nano"><g fill-rule="evenodd"><path d="M100 40H0V0h100v40z" fill="#0058ab"/><path d="M2,20c0,9.8,20.1,18,48,18s48-8.2,48-18S77.9,2,50,2S2,10.2,2,20z" fill="#fbd914"/></g><path d="M46.4 26c.3.4.7.9 1.1 1.2H36.7c0-.4-.4-1.3-.9-1.9l-2.9-4.4V26c0 .4 0 .8.2 1.2h-9c.2-.4.2-.8.2-1.2V14c0-.4 0-.8-.2-1.2h9c-.2.4-.2.8-.2 1.2v5.2l3.5-4.5c.5-.6 1.1-1.6 1.1-2h9.4c-.6.4-1.4 1.2-1.9 1.9l-3.4 4.1 4.8 7.3zm2.9-12v12c0 .4 0 .8-.2 1.2h17.4v-4c-.4.2-.8.2-1.3.2h-7.3v-1.9h7v-3h-7v-1.9h7.3c.4 0 .8 0 1.3.2v-4H49.1c.2.4.2.8.2 1.2zm41.3 12c.1.5.4.9.7 1.2h-9.4c0-.4-.1-.8-.3-1.2l-.3-.8-.2-.2h-5.4l-.1.2s-.2.4-.3.8-.3.8-.2 1.2h-7.4c.3-.4.5-.8.7-1.2l4.5-12c.2-.4.3-.8.3-1.2h12.6c-.1.4.1.8.3 1.2.1.9 4.2 11.2 4.5 12zm-10.7-4.1l-1.3-3.4c-.1-.3-.2-.6-.3-1-.1.3-.1.6-.3 1 0 .1-.6 1.6-1.2 3.4h3.1zm-60.1-9.1H10c.2.4.2.8.2 1.2v12c0 .4 0 .8-.2 1.2h9.8c-.2-.4-.2-.8-.2-1.2V14c0-.4 0-.8.2-1.2zm67.8 1.1c0-1 .8-1.9 1.8-1.9h.1c1.1 0 1.9.8 1.9 1.8v.1c0 1-.8 1.9-1.9 2-1 0-1.9-.8-1.9-2 0 .1 0 0 0 0zm.4 0c0 .8.7 1.5 1.6 1.5s1.6-.7 1.6-1.5-.7-1.5-1.6-1.5c-.8 0-1.5.6-1.6 1.4v.1zm1.1 1.1h-.3v-2.3h.9a.68.68 0 0 1 .7.7c0 .3-.2.5-.4.7l.5.9h-.4l-.5-.8h-.5v.8zm0-1.1h.5c.2 0 .4-.2.4-.4s-.2-.4-.4-.4h-.5v.8z" fill="#0058a3"/></svg>