<?xml version="1.0" encoding="utf-8"?>
<svg version="1.1" id="Layer_1" xmlns="http://www.w3.org/2000/svg" xmlns:xlink="http://www.w3.org/1999/xlink" x="0px" y="0px"
	width="100px" height="100px" viewBox="0 0 66.7 66.7" style="enable-background:new 0 0 66.7 66.7;" xml:space="preserve">
<g>
	<circle style="fill:#E8E8E8;" cx="33.3" cy="33.3" r="33.3"/>
	<circle style="fill:#FFFFFF;" cx="33.3" cy="33.3" r="32.7"/>
	<path style="fill:#283795;" d="M30.8,29.9h-3.7c0,0,0.9,0.7,0.9,1.7V42c0,0.6,0.5,1.1,1.1,1.1h2.7v-12
		C31.9,30.5,31.5,29.9,30.8,29.9L30.8,29.9 M22.8,24.4c-0.6,0-1.1,0.5-1.1,1.1v9.5l-7.7-10.2c-0.2-0.3-0.6-0.5-1-0.5H8.3
		c0,0,0.9,0.6,0.9,1.7V42c0,0.6,0.5,1.1,1,1.1c0,0,0,0,0,0h2.7V30.4l9.1,12.3c0.2,0.3,0.5,0.5,0.9,0.5h2.4V26.1
		c0-1.1,0.9-1.7,0.9-1.7 M40.4,34.7c-2.3-0.7-3.3-1.1-3.3-1.9c0-0.7,0.9-1.2,2.1-1.2c1.6,0,3.3,0.8,4.1,1.3l-0.5-2.9
		c-0.1-0.4-0.3-0.7-0.7-0.9c-0.9-0.3-1.9-0.5-2.9-0.5c-3.5,0-5.6,2.1-5.6,4.3c0,2.2,1.4,3.5,3.6,4.3c2.2,0.8,3.1,1.3,3.1,2.1
		c0,0.7-0.5,1.2-2.5,1.2c-1.3,0-2.7-0.3-3.9-1l-1.1,2.9c1,0.5,2.8,1.2,5.4,1.2c4.1,0,5.7-2.3,5.7-4.5C44.2,36.9,42.9,35.5,40.4,34.7
		 M48.8,38.6c0-1.3,1.3-1.9,3-1.9c0.8,0,1.5,0.1,2.3,0.2v2.4c-0.7,0.5-1.7,1.1-3.1,1.1C49.7,40.5,48.8,39.9,48.8,38.6 M51.5,28.6
		c-1.8,0-3.5,0.5-4.6,0.9c-0.5,0.2-0.8,0.9-0.6,1.5l0.9,2c0.7-0.5,2.1-1.1,4-1.1c2.5,0,2.8,0.9,2.8,2.1c-0.6-0.1-1.6-0.2-3.1-0.2
		c-3.1,0-5.8,1.8-5.8,4.9s2.7,4.8,5.3,4.8c1.3,0,2.5-0.3,3.6-1c0.1,0.4,0.5,0.6,0.9,0.6h2.9v-9.3C57.9,31,56,28.6,51.5,28.6"/>
	<path style="fill:#FFDD00;" d="M55,26.8C55,26.8,54.9,26.9,55,26.8C55.1,26.9,55.1,26.9,55,26.8C55.1,26.7,55,26.8,55,26.8
		 M55.3,26.9c-0.1,0-0.1,0.1-0.1,0.1c0.1,0.1,0.3,0.1,0.2,0C55.3,26.9,55.3,26.9,55.3,26.9 M51,26.5c0.2,0,0.3,0,0.3-0.1
		c0-0.1-0.1-0.1-0.2-0.1c0-0.1-0.1-0.1-0.1-0.1l-0.1,0.1c-0.1,0-0.1,0-0.1,0.1C50.7,26.5,50.8,26.5,51,26.5 M57.7,29.1
		c0.1,0,0.1,0.1,0.2,0.2s0.1,0.1,0.3,0.2c0.1,0,0.2,0,0.2-0.1c0-0.1-0.1-0.3-0.1-0.3s-0.1,0-0.1-0.1s-0.1-0.1-0.2-0.1
		c-0.1,0-0.1,0-0.2-0.1s-0.1-0.1-0.2,0c-0.1,0.1-0.1,0.1-0.1,0.2C57.5,29.1,57.6,29.1,57.7,29.1 M54.9,28c0.1,0,0.2,0,0.2,0.1
		s0.1,0.1,0.2,0.1c0.1,0,0.2,0,0.3,0.1s0.1,0.1,0.3,0.1c0.1,0,0.2,0.1,0.3,0.1s0.2,0.1,0.3,0.1s0.1,0,0.2,0.1
		c0.1,0.1,0.1,0.1,0.3,0.1c0.1,0,0.2,0.1,0.2,0.2s0.1,0,0.1-0.1c0-0.1,0-0.2-0.1-0.3c-0.1,0-0.1,0-0.1-0.1s-0.1-0.1-0.1-0.1
		c-0.1,0-0.3,0-0.3,0.1c-0.1,0-0.1-0.1-0.1-0.2c0-0.1-0.2-0.1-0.3-0.1s-0.2,0-0.2-0.1s-0.1-0.1-0.2-0.1c-0.1,0-0.1-0.1-0.1-0.3
		s-0.1-0.1-0.3-0.1c-0.1,0.1-0.3,0.1-0.4,0s-0.2,0.1-0.2,0.2C54.7,28.1,54.7,28.1,54.9,28 M56.5,27.9c0.1,0.1,0.1,0,0.2-0.1
		s0.1-0.1,0-0.2l0,0c-0.1-0.1-0.2-0.1-0.2,0C56.4,27.7,56.5,27.8,56.5,27.9 M55.9,27.3c0.1,0.1,0.1,0.1,0.1,0.2
		c0,0.1,0.1,0.2,0.1,0.2s0.1-0.1,0.2-0.2c0-0.1,0-0.2-0.1-0.2h-0.1c-0.1,0-0.1,0-0.1-0.1c0-0.1-0.1-0.1-0.2-0.1
		C55.8,27.1,55.9,27.2,55.9,27.3 M31.4,28.5c0,0-1.3,0.7-2.3,0.7s-1.8-0.3-1.8-0.9c0-0.7,0.8-1.7,1.9-2.3s5.5-2.7,11.6-2.7
		c5.1,0,8.1,0.7,10.9,1.7c0.2,0.1,0.3,0.2,0.4,0.3h0.5c0.1,0,0.2,0.1,0.3,0.2c0.1,0,0.3,0,0.4,0.1s0.1,0.3,0.3,0.3
		c0.2,0,0.5,0,0.5,0.2c0,0,0.3,0.1,0.3,0.2c0,0,0.3,0.1,0.4,0.3s0.1,0.1,0.3,0.1s0.3,0.1,0.4,0.2c0.1,0.1,0.1,0.4,0.1,0.5
		s-0.5,0-0.6-0.1s-0.1-0.1-0.3-0.1c-0.1,0.1-0.3-0.1-0.5-0.1c-0.2,0-0.6,0.1-0.7-0.1c-0.1-0.1-0.3-0.4-0.6-0.4
		c-0.3,0-0.6,0.1-0.7,0.1s0-0.4-0.2-0.3c-0.2,0.1-0.1,0.3-0.3,0.3h-0.9c-0.2,0-0.3,0-0.5-0.1c-0.1-0.1-0.3,0-0.4-0.1
		c-0.1-0.1-0.2-0.2-0.3-0.2s-0.2-0.2-0.3-0.1c-0.1,0-0.3,0.1-0.5,0.1h-1.5c-0.3,0-1.3-0.2-2.1-0.2c-0.7,0-1.5,0.1-2.2,0.1
		c-0.7,0.1-2.1,0.1-2.8,0.1c-0.7-0.1-1.1,0-1.3,0.1c-0.3,0.1-0.7,0.1-1.1,0.1s-0.7,0-1.1,0.2c-0.4,0.1-2,0.7-2.4,0.9
		c-0.5,0.2-1,0.3-1.5,0.1c-0.5-0.1-0.8-0.1-0.9,0c-0.1,0.1-0.2,0.2-0.3,0.2C31.3,27.9,31,28.2,31.4,28.5"/>
</g>
</svg>
