<?xml version="1.0" encoding="utf-8"?>
<!-- Generator: Adobe Illustrator 24.2.1, SVG Export Plug-In . SVG Version: 6.00 Build 0)  -->
<svg version="1.1" id="Layer_1" xmlns="http://www.w3.org/2000/svg" xmlns:xlink="http://www.w3.org/1999/xlink" x="0px" y="0px"
	 viewBox="0 0 923.1 249.5" style="enable-background:new 0 0 923.1 249.5;" xml:space="preserve">
<style type="text/css">
	.st0{fill:#D81F26;}
</style>
<path class="st0" d="M126.9,233.4c-13.9,2.4-28,3.2-42.6,5.1L39.7,107.9v136.2c-13.9,1.5-26.6,3.4-39.7,5.4V0h37l50.7,141.5V0h39.2
	L126.9,233.4z M203.7,91.4c15.1,0,38.2-0.7,52.1-0.7v39c-17.3,0-37.5,0-52.1,0.7v58c22.9-1.5,45.8-3.4,68.9-4.1v37.5l-107.9,8.5V0
	h107.9v39h-68.9V91.4z M417.6,39h-40.4v179.3c-13.2,0-26.3,0-39,0.5V39h-40.4V0h119.9L417.6,39z M480.9,88.7h53.4v39h-53.4v88.4
	h-38.3V0h108.9v39h-70.7V88.7z M614.9,182c22.2,0.5,44.6,2.2,66.3,3.4v38.5c-34.8-2.2-69.7-4.4-105.2-5.1V0h39V182z M714,226.6
	c12.4,0.7,25.6,1.5,38.2,2.9V0H714V226.6z M923.1,0l-49.5,118.6l49.5,130.8c-14.6-1.9-29.2-4.6-43.9-7.1l-28-72.1l-28.5,66.3
	c-14.1-2.4-27.8-3.2-41.9-5.1L831,117.2L785.7,0h41.9l25.6,65.5L880.4,0H923.1z"/>
</svg>
