<?xml version="1.0" encoding="utf-8"?>
<svg version="1.1" id="Layer_1" xmlns="http://www.w3.org/2000/svg" xmlns:xlink="http://www.w3.org/1999/xlink" x="0px" y="0px"
	width="100px" height="100px" viewBox="0 0 100 100" style="enable-background:new 0 0 100 100;" xml:space="preserve">
<g>
	<path style="fill:#E8E8E8;" d="M50,0c27.61,0,50,22.39,50,50s-22.39,50-50,50S0,77.61,0,50S22.39,0,50,0"/>
	<path style="fill:#FFFFFF;" d="M50,1c27.06,0,49,21.94,49,49S77.06,99,50,99S1,77.06,1,50S22.94,1,50,1"/>
	<g>
		<path style="fill:#C23054;" d="M70.2,32.25l2.74,0c3.02-3.07,5.48-5.33,5.48-5.33S74.17,29.31,70.2,32.25L70.2,32.25z"/>
		<path style="fill:#C23054;" d="M51.32,73.07c2.64-2.56,4.72-6.84,4.72-11.33l-0.01-25.54h-7.25l0.09,23.95
			c0,3.94-1.42,7.05-4.22,8.75l3.23,4.19H20.59l-0.01-40.81l49.64-0.03h9.19l0.01,40.83H51.32z"/>
		<path style="fill:#FFFFFF;" d="M40.03,51.25c3.1-1.17,4.4-4.23,4.4-7.14c0-5.93-3.9-7.93-8.39-7.93l-11.56,0.01l0.01,32.3
			l11.17-0.01c6.46,0,9.74-4.08,9.74-9.97C45.41,54.63,42.77,52.07,40.03,51.25z M31.71,42.52l2.51,0.01
			c1.9-0.01,2.78,1.38,2.78,3.05c0,1.67-0.74,3.06-2.69,3.06h-2.6V42.52z M34.22,62h-2.49l-0.01-7.18h2.41
			c2.45,0,3.02,1.99,3.02,3.61C37.15,60.42,36.26,62,34.22,62z"/>
		<path style="fill:#FFFFFF;" d="M67.73,69.04c-2.7,0-5.48-0.83-8.22-2.46l2.29-5.27c1.55,1.02,4.13,2.44,6.03,2.44
			c1.15,0,1.94-0.59,1.94-1.34c0-3.5-9.26-1-9.26-7.91c0-4.21,3.05-7.27,7.82-7.27c3.32,0,5.26,0.91,7.43,2.06l-2.1,4.97
			c-1.55-0.8-2.83-1.64-4.37-1.72c-1.16-0.06-2.2,0.34-2.2,1.3c0.02,3.23,9.47,0.6,9.47,7.87C76.57,66.17,73,69.03,67.73,69.04
			L67.73,69.04z"/>
		<path style="fill:#FFFFFF;" d="M69.75,32.59c-4.56,3.43-7.61,6.45-7.61,6.45l-3.47-3.55l2.14,11.31l0.01,0.13
			c0,0,3.28-5.09,8.24-10.57c1.3-1.44,2.64-2.84,3.89-4.1l-2.75,0L69.75,32.59z"/>
		<path style="fill:#FFFFFF;" d="M74.12,44.45c-0.04-0.28-0.16-0.42-0.32-0.45v-0.01c0.2-0.07,0.37-0.23,0.36-0.46
			c0.01-0.19-0.05-0.32-0.17-0.38c-0.11-0.09-0.3-0.15-0.58-0.15c-0.23,0-0.37,0.01-0.53,0.04v1.88h0.29l0.01-0.81h0.2
			c0.25,0,0.37,0.09,0.41,0.33c0.04,0.25,0.08,0.41,0.13,0.48h0.32C74.2,44.84,74.16,44.74,74.12,44.45z M73.39,43.88l-0.21-0.01
			v-0.64l0.21-0.01c0.33,0,0.46,0.16,0.46,0.33C73.85,43.78,73.64,43.86,73.39,43.88z M74.12,44.45c-0.04-0.28-0.16-0.42-0.32-0.45
			v-0.01c0.2-0.07,0.37-0.23,0.36-0.46c0.01-0.19-0.05-0.32-0.17-0.38c-0.11-0.09-0.3-0.15-0.58-0.15c-0.23,0-0.37,0.01-0.53,0.04
			v1.88h0.29l0.01-0.81h0.2c0.25,0,0.37,0.09,0.41,0.33c0.04,0.25,0.08,0.41,0.13,0.48h0.32C74.2,44.84,74.16,44.74,74.12,44.45z
			 M73.39,43.88l-0.21-0.01v-0.64l0.21-0.01c0.33,0,0.46,0.16,0.46,0.33C73.85,43.78,73.64,43.86,73.39,43.88z M73.8,44v-0.01
			c0.2-0.07,0.37-0.23,0.36-0.46c0.01-0.19-0.05-0.32-0.17-0.38c-0.11-0.09-0.3-0.15-0.58-0.15c-0.23,0-0.37,0.01-0.53,0.04v1.88
			h0.29l0.01-0.81h0.2c0.25,0,0.37,0.09,0.41,0.33c0.04,0.25,0.08,0.41,0.13,0.48h0.32c-0.04-0.07-0.08-0.17-0.12-0.46
			C74.08,44.17,73.96,44.02,73.8,44z M73.39,43.88l-0.21-0.01v-0.64l0.21-0.01c0.33,0,0.46,0.16,0.46,0.33
			C73.85,43.78,73.64,43.86,73.39,43.88z M73.5,42.23h-0.01c-0.91,0.01-1.66,0.76-1.67,1.7c0,0.95,0.76,1.7,1.67,1.7
			c0.94-0.01,1.67-0.74,1.67-1.7C75.15,42.99,74.42,42.25,73.5,42.23z M73.5,45.36c-0.76,0-1.37-0.62-1.35-1.43
			c-0.01-0.78,0.61-1.42,1.35-1.42c0.76,0,1.35,0.62,1.35,1.43C74.85,44.74,74.25,45.37,73.5,45.36z"/>
	</g>
</g>
</svg>
