<?xml version="1.0" encoding="utf-8"?>
<svg version="1.1" id="Layer_1" xmlns="http://www.w3.org/2000/svg" xmlns:xlink="http://www.w3.org/1999/xlink" x="0px" y="0px"
	width="100px" height="100px" viewBox="0 0 72.2 72.2" style="enable-background:new 0 0 72.2 72.2;" xml:space="preserve">
<g>
	<circle style="fill:#E8E8E8;" cx="36.1" cy="36.1" r="36.1"/>
	<circle style="fill:#FFFFFF;" cx="36.1" cy="36.1" r="35.4"/>
	<path style="fill:#0CBAB3;" d="M29.4,50.3c0.5,0,0.9-0.4,0.9-0.9l0,0c0.1-0.5-0.3-1-0.8-1.1c-0.5-0.1-1,0.2-1.1,0.8v0.4
		C28.4,49.9,28.8,50.4,29.4,50.3L29.4,50.3 M27.3,56.9v-8.3h-1.5v8.4L27.3,56.9L27.3,56.9z M50.5,57.1c1.7,0,3-1.2,3-3
		c0-1.8-1.2-3-3-3c-1.7,0-3,1.2-3,3C47.5,55.8,48.8,57.1,50.5,57.1 M39.9,57.1c0.8,0,1.7-0.2,2.3-0.6l-0.6-1.3
		c-0.5,0.2-1.1,0.4-1.7,0.4c-0.8,0-1.3-0.3-1.6-0.9h4.2c0-0.2,0.1-0.4,0.1-0.6c0-1.8-1.2-3-2.9-3s-2.9,1.2-2.9,3
		C36.8,55.8,38,57.1,39.9,57.1 M60.1,54c0-1.8-1.2-3-3-3c-1.7,0-3,1.2-3,3s1.2,3,3,3C58.8,57.1,60.1,55.8,60.1,54 M22.1,57
		c0.8,0,1.7-0.2,2.3-0.6l-0.6-1.3c-0.5,0.3-1.2,0.4-1.7,0.4c-0.8,0-1.3-0.3-1.6-0.9h4.2c0-0.2,0.1-0.5,0.1-0.7c0-1.8-1.2-3-2.9-3
		s-2.9,1.2-2.9,3C19,55.8,20.3,57,22.1,57 M30.1,56.9v-5.8h-1.5v5.8H30.1C30.1,56.9,30.1,56.9,30.1,56.9z M32.5,56.9h2.4l1.6-5.8
		h-1.6l-1.2,4.7l-1.2-4.6h-1.6L32.5,56.9C32.5,56.9,32.5,56.9,32.5,56.9z M39.7,52.5c0.8,0,1.3,0.3,1.4,1h-2.9
		C38.5,52.7,39,52.4,39.7,52.5 M21.9,52.5c0.8,0,1.3,0.3,1.4,1h-2.9C20.6,52.7,21.2,52.4,21.9,52.5 M57.1,55.5
		c-0.8,0.1-1.4-0.5-1.5-1.3V54c0-0.8,0.7-1.5,1.5-1.5c0.8,0,1.5,0.6,1.5,1.5c0,0.8-0.6,1.4-1.4,1.4C57.2,55.5,57.1,55.5,57.1,55.5
		 M13.5,54c0-0.8,0.6-1.4,1.4-1.4H15c0.7-0.1,1.4,0.5,1.5,1.2V54c0,0.8-0.6,1.4-1.4,1.4H15c-0.8,0-1.4-0.5-1.5-1.3V54 M50.5,55.5
		C49.7,55.6,49,55,49,54.2V54c0-0.8,0.6-1.4,1.4-1.4h0.1c0.7-0.1,1.4,0.5,1.5,1.2V54c0,0.8-0.6,1.4-1.4,1.4
		C50.6,55.5,50.6,55.5,50.5,55.5 M46.2,52.6c0.3,0,0.6,0.1,0.8,0.3l0.7-1.6C47.4,51.1,47,51,46.6,51c-0.6,0-1.3,0.4-1.6,0.9
		l-0.1-0.7h-1.5l0.2,1.1V57h1.5v-3.7C45.2,52.8,45.7,52.5,46.2,52.6 M16.7,56.9h1.6L18,55.6v-7.1h-1.4v3.2c-0.5-0.5-1.2-0.8-1.8-0.8
		c-1.5,0-2.7,1.2-2.7,3s1.2,3,2.6,3c0.7,0,1.4-0.3,1.8-0.9L16.7,56.9C16.7,56.9,16.7,56.9,16.7,56.9z M41.8,35.5
		c-0.3,0.4-1.1,0.6-1.8,0.2c-0.7-0.4-0.5-0.9-0.4-1.3c0-0.2,0.1-0.4,0.3-0.6c0.2-0.3,0.5-0.4,0.8-0.5c0.5-0.1,1.1,0.2,1.4,0.6
		C42.1,34.5,42.1,35.1,41.8,35.5 M36.1,34.8c-0.4,0.4-0.9,0.4-1.5,0.1c-0.6-0.2-0.8-0.8-0.6-1.7c0.2-0.8,0.9-0.7,1.2-0.7l0.4,0.1
		c0.6,0.1,1,0.8,0.9,1.4C36.5,34.4,36.3,34.7,36.1,34.8 M42.3,15.1l-1.4,13.6l-2.5-11.5l-7.7,1.7l2.5,11.5l-11.1,2.4l1.9,9.1
		L43.5,46L48,36l2.1-20.1C50.1,15.9,42.3,15.1,42.3,15.1z"/>
</g>
</svg>
