<svg xmlns="http://www.w3.org/2000/svg" viewBox="0 0 506 506"><path d="M0 0h506v506H0z" fill="#005eb8"/><path d="M434 140.6l-71 68h-89l-16-17 48-51zm0 225l-71-68h-89l-16 17 48 51zM119.7 221.5h12.5v64.1h-12.5v-26.5H95.9v26.5H83.2v-64.1h12.6V247h23.8v-25.5zm66.5 64.1l-4.1-11.5h-26.3l-3.8 11.5h-13.6l22.4-64.1h15.7l22.6 64.1h-12.9zm-26.3-23.3h18l-9.2-26.2-8.8 26.2zm58 11.2h24.4v12.1h-37.1v-64.1h12.6v52zm31.5-52H262v64.1h-12.6v-64.1zm62.8 12.1h-25.6v15.2h24.9v12.1h-24.9v24.7H274v-64.1h38.3v12.1zm48.5 52l-4.1-11.5h-26.3l-3.8 11.5h-13.6l22.4-64.1H351l22.6 64.1h-12.9zm-26.2-23.3h18l-9.2-26.2-8.8 26.2zm94.1 23.3h-14.4l-12.4-20.9-12.4 20.9H375l19.6-32.9-18.6-31.2h14.3l11.5 19.2 11.4-19.2h14.3l-18.6 31.2 19.7 32.9z" fill="#fff"/><path d="M151.4 212.6l-79.4-76h139.7l71.5 76z" fill="#005eb8"/><path d="M274 208.6H153l-71-68h128z" fill="#fff"/><path d="M72 369.6l79.4-76h131.8l-71.5 76z" fill="#005eb8"/><path d="M274 297.6H153l-71 68h128z" fill="#fff"/></svg>