<?xml version="1.0" encoding="utf-8"?>
<svg version="1.1" id="Layer_1" xmlns="http://www.w3.org/2000/svg" xmlns:xlink="http://www.w3.org/1999/xlink" x="0px" y="0px"
	width="100px" height="100px" viewBox="0 0 66.7 66.7" style="enable-background:new 0 0 66.7 66.7;" xml:space="preserve">
<g>
	<circle style="fill:#E8E8E8;" cx="33.3" cy="33.3" r="33.3"/>
	<circle style="fill:#FFFFFF;" cx="33.3" cy="33.3" r="32.7"/>
	<g>
		<path style="fill:#420147;" d="M38.7,22.1c0.3-0.5,0.7-0.9,1.1-1.3c0.7-0.6,1.4-1,1.9-1c0.3,0,0.6,0.1,0.9,0.2
			c0.1,0,0.2-0.1,0.3-0.2h0.1c0,0,0.2,0.1,0.2,0.2v0.1c0,0.1-0.1,0.2-0.1,0.3s0.3,0.3,0.3,0.9s-0.4,1.6-1,2.3
			c-0.2,0.3-0.5,0.5-0.8,0.7c-0.1,0.1-0.1,0.2-0.2,0.3c-0.1,0.1-0.1,0-0.1,0.1s-0.1,0.1-0.2,0.1c-0.1,0,0,0-0.1,0.1
			c-0.1,0-0.1,0-0.1,0.1c-0.1,0,0,0.1-0.2,0.1H41c0.1,0,0.3-0.1,0.3-0.1h0.1h0.1c0.1,0,0.2-0.1,0.3,0H42c0,0,0.1,0,0.1,0.1h0.2
			c0,0,0.1,0,0.1,0.1c0.1,0,0.2,0,0.3,0.1c0.1,0.1,0.1,0,0.1,0.1c0,0,0.1,0.1,0.1,0.1v0.1H43c0.1,0,0.1,0.1,0.1,0.1s0.1,0.1,0.1,0.1
			c0.1,0,0.2,0.1,0.2,0.2v0.1c0.1,0,0.1,0,0.1,0.1c0.1,0.1,0.1,0.1,0.1,0.3v0.1c0,0.6-1.1,1.1-2.7,1.1c-0.6,0-0.8-0.3-0.9-0.3v-0.1
			c-0.1-0.1-0.1-0.1,0-0.2c0,0-0.1-0.1-0.1-0.1c0-0.1,0.1-0.1,0.1-0.2v-0.1c0-0.1,0.1-0.1,0.1-0.2c0-0.1,0.1,0,0.1-0.1
			c0.1-0.1,0.1,0,0.1-0.1c0-0.1,0-0.1,0.1-0.1c0,0,0-0.1,0.1-0.1c0.1,0,0-0.1,0.1-0.1c0-0.1,0.1,0,0.1-0.1c0.1-0.1,0.1-0.1,0.2-0.1
			c-0.4,0-0.6,0.1-0.8,0.1s-0.5,0-0.7,0.1c-0.6,0.1-1.7,0.7-2.3,1.1c-0.7,0.5-2.5,1.7-3.1,2.8c-0.1,0.2-0.3,1.2-0.5,2.1l-0.7,2.3
			c0.1-0.2,0.3-0.4,0.5-0.4c0.3,0,0.3,0.4,0.3,0.4s0.1-0.1,0.1-0.2c0-0.2,0.1-0.4,0.2-0.5c0.2-0.3,0.5-0.6,0.8-0.8
			c0.3-0.3,0.6-1,0.8-1.5c0.2-0.5,0.5-1.1,1-1.1c0.3,0,0.5,0.2,0.6,0.4c0.1,0.1,0.2,0.5,0.3,0.5c0.3-0.1,0.9-1.5,1.5-2.1
			c0.3-0.3,0.5-0.6,1.1-0.6c0.9,0,0.7,1.2,1.1,1.2c0.2,0,0.4-0.3,0.5-0.5c0.2-0.3,0.9-0.9,1.3-0.9c0.4,0,0.5,0.3,0.5,0.6
			c0,0.3-0.1,0.5,0.2,0.5c0.1,0,0.6-0.7,1.1-0.7c0.2,0,0.4,0.1,0.5,0.4l0,0c0,0.3-0.1,0.4-0.1,0.5s0.1,0.1,0.2,0.1h0.3
			c0.3,0,0.5,0.2,0.5,0.4v0.1c0,0.3-0.2,0.7-0.5,0.9c-0.1,0.1-0.1,0.2-0.1,0.3c0.1,0.2,0.3,0.3,0.3,0.5c0,0.3-0.2,0.6-0.5,0.7
			c-0.3,0.1-0.7,0.1-0.7,0.4c0,0.3,0.4,0.5,0.4,1c0,0.3-0.1,0.5-0.4,0.5c-0.3,0.1-0.7,0.2-1.1,0.2c-0.3,0-0.7-0.1-0.9-0.1
			s-0.5,0-0.5,0.1c0,0.3,0.5,0.5,0.5,1c0,0.5-0.9,0.7-1.4,0.7s-1.1-0.1-1.6-0.3c-0.3-0.1-0.8-0.3-1.2-0.3c-0.2,0-0.3,0.1-0.3,0.2
			c0,0.2,0.4,0.5,0.4,0.9c0,0.3-0.3,0.5-0.5,0.5c-1,0-1.7-1.1-3.1-1.1c-0.3,0-0.5,0.1-0.9,0.1c-0.5,0-0.7-0.2-0.7-0.5
			c-0.3,0.1-0.8,0.5-0.8,1c0,0.4,0.1,0.5,0.2,0.7c0.1,0.1,0.3,0.2,0.3,0.3c0.1,0.1-0.1,0.3,0,0.8l0.2,0.9c0.1,0.1-0.3,0.1-0.5,0.1
			c-0.2,0-0.8,0-0.8-0.1c-0.1-0.9-0.3-1.7-0.6-2.6c-0.2-0.5-0.3-0.5-0.6-0.7c-0.3-0.2-1.6-1.1-2.3-1.1h-0.3h-0.1
			c-0.1,0-0.1,0.1-0.1,0.1s0,0.2-0.1,0.2s-0.1,0.1-0.1,0.1s-0.1,0.1-0.1,0.2c0,0.1-0.1,0-0.1,0.1V35c-0.1,0.1-0.1,0.1-0.1,0.1
			c-0.1,0-0.1,0-0.1,0.1s0.1,0.1,0,0.1s-0.2-0.1-0.2-0.1v0.1c-0.1,0-0.1,0.1-0.1,0.1l-0.1,0.1c-0.1,0.1,0,0.1-0.1,0.1
			c-0.1,0-0.1,0.1-0.3,0.1c-0.7,0-1.5-1.1-1.5-2.1c0-0.3,0-0.5,0.1-0.7c0-0.1,0.1-0.2,0.2-0.3c0.1,0,0.1-0.1,0.1,0
			c0-0.1,0.1-0.1,0.1-0.1h0.2c0,0,0.1-0.1,0.1-0.1c0.1,0,0.1,0.1,0.1,0.1h0.1c0.1,0,0.1,0,0.1,0.1h0.1c0.1,0,0.1,0,0.1,0.1
			c0.1,0,0.1,0,0.2,0.1l0.1,0.1c0.1,0,0-0.1,0.1,0c0.1,0,0.1,0.1,0.1,0.1c0.1,0.1,0.1,0,0.1,0.1c0.1,0.1,0.1,0.1,0.1,0.1h0.1
			c0.1,0.1,0,0.1,0.1,0.1s0.1,0,0.1,0.1s0.1,0.1,0.1,0.1s0.1,0.1,0.2,0.1v-0.1c-0.1-0.1-0.1-0.1-0.1-0.2c0-0.1-0.1,0-0.1-0.1
			c0-0.1-0.1-0.1-0.1-0.2v-0.1c0,0-0.1,0-0.1-0.1v-0.1c0-0.1-0.1,0-0.1,0v-0.1c0-0.1-0.1,0-0.1-0.1v-0.1c0-0.1,0-0.1-0.1-0.1v-0.1
			v-0.1v-0.1v-0.1v-0.1c0.1-0.1,0.3-0.4,1.1-0.4c1,0,1.9,0.3,2.3,0.7c0,0.1,0.1,0.1,0.1,0.1s0.1,0.1,0.1,0.2c0,0.1,0,0.1-0.1,0.2
			c0,0.1,0,0.3-0.1,0.3s0,0.2-0.1,0.2s0,0.1-0.1,0.1s0,0.2-0.1,0.2c0,0-0.1,0-0.1,0.1c0,0.1-0.1,0.1-0.1,0.1s-0.1,0-0.1,0.1
			c-0.1,0.1-0.1,0.1-0.1,0.2c-0.1,0.1-0.1-0.1-0.2,0c0,0.1-0.1,0.1-0.1,0.1c0,0.1,0,0.1-0.1,0.1s-0.1,0.1-0.1,0.1s0,0.1-0.1,0
			s-0.1,0-0.1,0s-0.1,0-0.1,0.1V34c0,0,0-0.1-0.1-0.1h-0.1l0.9,0.5c0.5,0.3,0.8,0.5,1,0.5c0.3,0,1.1-2,1.1-2.9v-0.4
			c0-0.1-0.2-0.1-0.2-0.5c0-0.1,0-0.3,0.1-0.3s0.1-0.1,0.2-0.1c0.1,0,0.2,0.1,0.3,0.2c0.1-0.5,0.3-0.9,0.3-1.4c0-0.1,0-0.2-0.1-0.3
			c-0.3-0.1-0.5-0.3-0.7-0.5c0,0-0.1-0.1-0.1,0v0.1c-0.1,0.2-0.2,0.3-0.4,0.3c-0.5,0-0.5-0.2-1.1-0.2c-0.2,0-0.4,0.1-0.5,0.2
			c-0.3,0.2-0.5,0.3-0.8,0.4c-0.5,0-0.2-0.6-0.5-0.6c-0.2,0-0.2,0.3-0.3,0.5c-0.1,0.3-0.9,1.3-1.4,1.3c-0.5,0-0.3-0.8-0.5-0.8
			c-0.1,0-0.3,0.2-0.3,0.4c-0.1,0.5-0.4,1-0.7,1.4c-0.3,0.3-0.6,0.9-1,0.9c-0.4,0-0.3-0.6-0.5-0.7c-0.1-0.1-0.3-0.1-0.3,0.1
			c-0.2,0.4-0.5,1.1-1,1.1c-0.2,0-0.5-0.1-0.5-0.4v-0.1c0-0.1,0-0.2-0.1-0.3c0-0.1-0.1-0.2-0.2-0.2c-0.1,0-0.2,0.1-0.3,0.3
			c-0.1,0.3-0.5,0.6-0.9,0.6c-0.5,0-0.6-0.2-0.6-0.3c0-0.2,0.1-0.5-0.3-0.3c-0.3,0.1-0.6-0.5-0.6-0.7c0-0.4,0.3-0.7,0.3-0.9
			c0-0.2-0.4-0.3-0.4-0.7c0-1,1-0.7,1-1.1c0-0.4-0.7-0.6-0.7-1c0-0.9,1.1-1,1.3-1c0.2,0,0.5,0.1,0.6,0.1c0.1,0,0.5-0.1,0.5-0.2
			c0-0.2-0.1-0.3-0.3-0.5c-0.1-0.1-0.3-0.3-0.3-0.5c0-0.6,0.7-0.8,1.1-0.8c0.6,0,1.1,0.1,1.7,0.3c0.3,0.1,0.5,0.3,0.7,0.3
			c0.1,0,0.2-0.1,0.2-0.1c0-0.2-0.3-0.5-0.3-0.9s0.3-0.7,0.7-0.6l0,0c0.5,0.1,1.1,0.2,1.5,0.5c0.3,0.2,0.9,0.8,1.3,0.8
			c0.3,0-0.1-0.9,0.6-0.9c0.6,0,1.3,0.6,1.8,1.5c0.1,0.3,0.3,0.5,0.6,0.6c0.5,0.3,0.7,0.8,0.8,1.3c0,0.1,0.1,0.2,0.1,0.2
			c0-0.1-0.1-0.5,0.1-0.5s0.5,0.2,0.5,0.3c0.1-0.1-0.1-0.5-0.1-0.7s-0.3-1-0.4-1.2c-0.1-0.1-0.4-0.9-0.5-1.1
			c-0.1-0.3-0.4-0.5-0.7-0.5c-0.2-0.1-0.4-0.3-0.6-0.5c-0.1-0.1-0.1-0.1-0.1-0.1c-0.1,0.1-0.3,0.2-0.4,0.2c-0.3,0-0.7-0.5-1.1-0.7
			c-0.5-0.3-1.1-0.4-1.7-0.5c-0.4-0.1-0.8-0.2-1.2-0.4c-0.2-0.1-0.3-0.3-0.3-0.5c0-0.3,0.4-0.5,0.5-0.5c0.1,0,0.2-0.1,0.2-0.2
			c0-0.1-0.2-0.2-0.3-0.3c-0.3-0.1-0.5-0.1-0.7-0.1c-0.4,0-0.8-0.1-1.2-0.3c-0.3-0.1-1-0.6-1-1c0-0.3,0.1-0.5,0.4-0.6
			c0.2-0.1,0.6-0.3,0.6-0.4s-0.1-0.1-0.2-0.2c-0.3-0.1-0.6-0.2-0.9-0.2c-0.3-0.1-1.5-0.3-1.5-1.1c0-0.7,1.1-0.7,1.1-0.9
			s-0.3-0.3-0.7-0.5c-0.4-0.3-0.8-0.6-0.8-0.9c0-0.7,0.9-0.5,0.9-0.7c0-0.1-0.1-0.1-0.1-0.2L22,13.5c-0.1-0.1-0.2-0.3-0.2-0.4
			c0-0.3,0.3-0.3,0.3-0.4v-0.2c0-0.2,0.2-0.4,0.6-0.3H23c0.1,0,0.2-0.2,0.5-0.2c0.3,0,0.5,0.3,0.5,0.5c0.1,0.1,0.1,0.2,0.2,0.2
			c0.1,0,0.1-0.3,0.2-0.4s0.3-0.2,0.4-0.3c0.5,0,0.9,0.5,1.1,0.9c0.1,0.1,0.1,0.2,0.2,0.2c0.2,0,0.4-0.9,1-0.9
			c0.3,0,0.5,0.1,0.7,0.3c0.2,0.2,0.3,0.7,0.4,1c0.1,0.3,0.1,1.1,0.1,1.3c0,0.1,0.1,0.6,0.2,0.6c0.3,0,0.5-0.7,1.1-0.7
			c0.3,0,0.7,0.3,0.7,1.2c0,0.9-0.4,1.2-0.4,1.9c0,0.1,0,0.3,0.1,0.3s0.2-0.2,0.3-0.3c0.1-0.1,0.4-0.2,0.6-0.2
			c0.3,0,0.5,0.3,0.5,0.7c0,0.3-0.2,1.4-0.2,2s0.2,0.9,0.2,1.5c0,0.5-0.3,0.9-0.3,1.1c0,0.1,0.1,0.3,0.2,0.3
			c-0.1-0.2-0.1-0.4,0.1-0.5h0.3c-0.1-0.5,0.1-0.9,0.3-0.9c0.2-0.1,0.7,0.4,0.7,0.5c0.1-0.1,0.1-0.1,0.2-0.1c0.1,0,0.3,0.1,0.4,0.2
			v-0.1c0-0.1-0.2-0.7-0.2-1.1c0-0.5,0.3-1.1,0.3-1.5c0-0.9-0.3-1.3-0.3-1.7c0-0.9,0.3-1.3,0.7-1.3c0.4,0,0.6,0.4,0.9,0.4
			c0.2,0,0.3-0.3,0.3-0.5c0.1-0.9,0.2-3,1.3-3.5c0.3-0.1,0.5,0,0.7,0.2c0.4,0.4,0.5,0.8,0.7,0.8c0.2,0,0.5-0.5,0.5-0.7
			c0.1-0.3,0.7-0.9,1.2-0.9c0.9,0,0.6,1,1,1c0.5,0,0.8-0.9,1.5-0.9c0.3,0,0.5,0.3,0.5,0.5v0.4c0,0.1,0,0.2,0.1,0.2s0.4-0.3,0.6-0.3
			c0.4,0,0.3,0.4,0.5,0.5c0.1,0.1,0.5,0.1,0.5,0.5c0,0.5-0.5,0.5-0.5,0.7c0,0.1,0.4,0.3,0.4,0.5c0,0.3-0.3,0.5-0.5,0.7
			c-0.2,0-0.8,0-0.8,0.3c0,0.1,0.1,0.1,0.3,0.3c0.2,0.1,0.3,0.3,0.3,0.5c0,0.3-0.4,0.7-1.6,0.7h-0.5c-0.1,0-0.3,0-0.4,0.1
			c-0.2,0.1-0.4,0.1-0.4,0.3c0,0.3,0.7,0.3,0.7,0.8c0,0.3-0.2,0.5-0.5,0.7c-0.4,0.2-0.9,0.3-1.4,0.4c-0.5,0-0.9-0.1-1.3-0.1
			c-0.2,0-0.4,0.1-0.4,0.2s0.1,0.2,0.3,0.3c0.1,0.1,0.7,0.3,0.7,0.7c0,0.5-0.7,0.7-1.1,0.7c-0.7,0.1-1.3,0.5-1.9,0.9
			c-0.3,0.3-0.9,1.1-1.5,0.7c-0.3,0.4-0.7,0.7-0.7,1.1c-0.4,0.7,0.4,3.4,0.8,3.4c0.2,0,0.5-0.3,1-0.6l1-0.7c1.6-1.1,3-1.7,3-1.9
			s-0.1-0.3-0.2-0.4c-0.1-0.1-0.1-0.1-0.1-0.2c0-0.1-0.1-0.1-0.1-0.1c0-0.1-0.1-0.1-0.1-0.2v-0.1c-0.1,0-0.1-0.1-0.1-0.1v-0.1
			c0-0.1-0.1,0-0.1-0.1v-0.2c0,0-0.1-0.1-0.1-0.1c0-0.1,0.1-0.1,0.1-0.2s-0.1-0.1-0.1-0.1c0-0.2,0.1-0.2,0.1-0.2
			c0-0.1,0-0.1,0.1-0.2s0.1-0.1,0.2-0.1c0,0.1,0,0,0.1,0 M21.1,54.5v-5h-1.9v-0.5h4.9v0.5h-1.9v5H21.1z M29,53.7
			c-0.1,0.5-0.6,0.9-1.1,0.8c-0.7,0-1.1-0.6-1.1-1.3v-2.3l1.1-0.1v2.6c0,0.5,0.2,0.7,0.5,0.7C28.7,54.1,28.9,53.9,29,53.7
			 M30.2,53.7c0,0.4,0,0.6,0.3,0.6c-0.2,0.1-0.4,0.1-0.6,0.1c-0.4,0.1-0.7-0.3-0.7-0.6v-0.1v-2.9l1.1-0.1V53.7L30.2,53.7z
			 M33.9,51.1c0.5-0.3,0.9-0.8,1.3-1.2h0.1v0.9h0.9v0.5h-0.9v2.3c-0.1,0.3,0.2,0.6,0.5,0.7h0.1c0.2,0,0.4-0.1,0.5-0.3
			c-0.1,0.3-0.4,0.7-1.1,0.7c-0.7,0-1.1-0.5-1.1-1.3v-2h-0.3L33.9,51.1C33.9,51.1,33.9,51.1,33.9,51.1z M24.9,51.5
			c0.1-0.5,0.5-0.9,1.1-0.9c0.1,0,0.2,0,0.3,0.1l-0.1,0.7c-0.5-0.3-1.1,0-1.2,0.6v2.5h-1v-3.7l0.9-0.1L24.9,51.5L24.9,51.5
			L24.9,51.5z"/>
		<path style="fill:#420147;" d="M32,54.2c-0.4,0-0.8-0.3-1-0.6l-0.1,0.7c0.3,0.2,0.7,0.3,1.1,0.3c0.9,0,1.4-0.5,1.4-1.1
			c0-0.7-0.5-0.9-0.9-1.2c-0.5-0.3-0.8-0.3-0.8-0.7c0-0.3,0.3-0.5,0.5-0.4l0,0c0.3,0,0.6,0.2,0.8,0.5l0.1-0.6
			c-0.3-0.1-0.6-0.2-0.9-0.2c-0.9,0-1.3,0.5-1.3,1.1s0.4,0.9,0.9,1.1c0.4,0.3,0.9,0.4,0.9,0.7C32.7,54,32.4,54.2,32,54.2 M46.5,47.3
			v-5.6l1-0.1v5.7L46.5,47.3L46.5,47.3z"/>
		<path style="fill:#420147;" d="M29.1,43.9c0.5-0.3,1-0.7,1.3-1.3h0.1v1h0.9V44h-0.9v2.3c-0.1,0.3,0.2,0.6,0.5,0.7h0.1
			c0.2,0,0.4-0.1,0.5-0.3c-0.1,0.3-0.4,0.7-1.1,0.7c-0.7,0-1.1-0.5-1.1-1.3v-2h-0.5L29.1,43.9L29.1,43.9
			C29,43.9,29.1,43.9,29.1,43.9z M32.3,42c0,0.2,0.2,0.4,0.4,0.4l0,0c0.2,0,0.4-0.2,0.4-0.4c0-0.2-0.2-0.4-0.4-0.4
			C32.5,41.6,32.3,41.7,32.3,42 M33.2,47.3v-3.7l-1,0.1v3.6C32.3,47.3,33.2,47.3,33.2,47.3z M41.9,46.5c0,0.5,0.1,0.6,0.3,0.6
			c-0.2,0.1-0.4,0.2-0.6,0.2c-0.4,0.1-0.7-0.2-0.7-0.6v-0.1v-1.9c0-0.4-0.3-0.7-0.5-0.7c-0.2,0-0.5,0.1-0.5,0.3
			c0.1-0.5,0.5-0.7,1.1-0.7c0.7,0,1.1,0.5,1.1,1.1L41.9,46.5L41.9,46.5C41.9,46.5,41.9,46.5,41.9,46.5z"/>
		<path style="fill:#420147;" d="M39.7,47.3h-1.1v-3.7l1.1-0.1V47.3z M35.9,47c-0.5,0-0.8-0.5-0.8-1.6c0-1.1,0.3-1.6,0.8-1.6
			c0.5,0,0.8,0.5,0.8,1.6C36.7,46.5,36.4,47,35.9,47 M35.9,43.5c-1.1,0-1.9,0.8-1.9,1.9s0.8,1.9,1.9,1.9c1.1,0,1.9-0.8,1.9-1.9l0,0
			C37.8,44.4,37,43.5,35.9,43.5L35.9,43.5 M45.5,46.6c0,0.4,0.1,0.6,0.3,0.6c-0.1,0.1-0.3,0.1-0.5,0.1c-0.4,0-0.7-0.2-0.7-0.8v-1.3
			c-0.7,0.3-0.9,0.7-0.9,1.1c0,0.6,0.6,0.7,0.8,0.3c-0.1,0.3-0.5,0.6-0.8,0.6c-0.5,0-0.9-0.3-0.9-0.9v-0.1c0-0.9,1.1-1.1,1.9-1.5
			v-0.4c0-0.4-0.2-0.5-0.6-0.5c-0.3,0-0.6,0.1-0.8,0.2v-0.5c0.2-0.1,0.6-0.1,0.9-0.1c0.7,0,1.5,0.3,1.5,1.3L45.5,46.6L45.5,46.6z
			 M28.4,46.6c0,0.4,0.1,0.6,0.3,0.6c-0.1,0.1-0.3,0.1-0.5,0.1c-0.4,0-0.7-0.2-0.7-0.8v-1.3c-0.7,0.3-0.9,0.7-0.9,1.1
			c0,0.6,0.6,0.7,0.8,0.3c-0.1,0.3-0.5,0.5-0.8,0.5c-0.5,0-0.9-0.3-0.9-0.9v-0.1c0-0.9,1.1-1.1,1.9-1.5v-0.4c0-0.4-0.2-0.5-0.6-0.5
			c-0.3,0-0.6,0.1-0.8,0.2v-0.5c0.2-0.1,0.6-0.1,0.9-0.1c0.7,0,1.5,0.3,1.5,1.3V46.6L28.4,46.6L28.4,46.6z M20.5,43.4v3.9h-0.7v-5.7
			h0.3l4.1,3.9v-3.9h0.7v5.7h-0.3L20.5,43.4z"/>
	</g>
</g>
</svg>
