<?xml version="1.0" encoding="utf-8"?>
<svg version="1.1" id="Layer_1" xmlns="http://www.w3.org/2000/svg" xmlns:xlink="http://www.w3.org/1999/xlink" x="0px" y="0px"
	 viewBox="0 0 1895.38 223.02" style="enable-background:new 0 0 1895.38 223.02;" xml:space="preserve">
<g>
	<path style="fill:#EDC0F9;" d="M83.2,16.25c17.48,0,36.92,2.46,53.17,16.74c17.23,15.26,19.69,35.2,19.69,49.23
		c0,25.35-9.6,39.63-17.23,47.51c-16,16.49-37.17,17.97-51.45,17.97h-28.8v70.89H11.82V16.25H83.2z M58.58,109.29h16.74
		c6.4,0,17.48-0.25,25.11-7.63c4.18-4.18,7.63-11.32,7.63-19.94c0-8.37-2.95-15.51-7.63-19.69c-6.89-6.65-16.98-7.63-26.09-7.63
		H58.58C58.58,54.4,58.58,109.29,58.58,109.29z M280.62,16.25c25.85,0,41.85,8.37,51.45,17.48c8.37,8.12,17.48,22.65,17.48,45.05
		c0,12.8-2.71,28.55-15.75,41.11c-6.89,6.65-16.98,12.8-28.31,15.51l62.03,82.71H310.4l-53.91-79.51v79.75h-46.77V16.25H280.62z
		 M256.49,108.06h10.58c8.37,0,19.94-0.98,27.82-8.86c3.45-3.45,7.63-9.6,7.63-19.69c0-11.57-5.42-17.48-9.35-20.68
		c-7.63-5.66-19.69-6.4-25.85-6.4h-10.83V108.06z M532.68,55.63h-67.45v39.14h64.25v39.38h-64.25v44.8h67.69v39.38H418.46V16.25
		h114.22V55.63z M658.22,178.95h86.65v39.38H581.42L678.4,55.63h-81.23V16.25h157.54L658.22,178.95z M870.89,178.95h86.65v39.38
		H794.09l96.98-162.71h-81.23V16.25h157.54L870.89,178.95z M1082.09,124.06l-72.37-107.82h55.14l40.62,62.77l40.62-62.77h55.14
		l-72.37,107.82v94.28h-46.77L1082.09,124.06L1082.09,124.06z M1311.75,16.25c10.83,0,35.69,0.49,51.45,15.51
		c13.05,12.31,14.52,29.29,14.52,38.15c0,7.88-1.23,16.98-6.65,25.85c-5.17,8.37-12.06,12.8-16.98,14.77
		c9.6,1.48,20.68,6.4,27.82,13.54c6.65,6.65,13.05,18.22,13.05,36.18c0,20.43-7.88,32.98-15.75,40.86
		c-16.74,16-40.86,17.23-53.42,17.23h-76.06V16.25L1311.75,16.25L1311.75,16.25z M1296,98.22h7.63c6.4,0,16.98-0.98,23.63-5.66
		c4.18-2.95,8.12-9.11,8.12-17.97s-4.18-14.28-7.88-16.98c-6.65-5.17-15.75-5.17-24.37-5.17h-7.38v45.78L1296,98.22z M1296,181.91
		h11.32c11.82,0,26.09-0.25,34.46-8.12c4.18-3.94,6.65-9.6,6.65-16.98c0-8.12-3.45-13.54-6.4-16.25
		c-8.12-7.63-23.88-7.63-33.23-7.63H1296V181.91z M1632.25,41.11c19.2,18.46,31.51,45.05,31.51,76.31c0,27.08-9.6,54.65-31.51,75.82
		c-18.71,18.22-44.31,29.78-78.28,29.78c-37.91,0-63.75-15.26-78.77-29.78c-19.45-18.22-31.51-45.54-31.51-75.08
		c0-29.05,13.05-58.58,31.26-76.8c13.54-13.54,38.89-29.78,79.02-29.78C1585.48,11.57,1611.82,21.42,1632.25,41.11L1632.25,41.11z
		 M1509.42,71.88c-8.86,8.37-17.97,23.38-17.97,45.78c0,18.46,6.15,33.23,18.46,45.54c13.05,12.31,27.57,16.74,43.32,16.74
		c20.68,0,35.2-7.63,44.8-17.23c7.88-7.63,17.48-21.91,17.48-45.05c0-20.92-8.37-36.43-17.48-45.54
		c-10.09-9.6-26.09-17.23-44.55-17.23C1536,54.65,1520.25,61.05,1509.42,71.88L1509.42,71.88z M1767.88,111.02l-62.77-94.77h56.12
		l33.23,57.6l33.23-57.6h56.12l-62.77,94.77l74.34,107.32h-56.12l-44.8-69.91l-44.8,69.91h-56.12L1767.88,111.02L1767.88,111.02z"/>
	<path style="fill:#333333;" d="M48.74,208.98H0V4.68h72.37c16.25,0,36.92,1.97,53.66,16.98c13.54,11.82,19.94,28.06,19.94,49.97
		c0,19.94-5.91,36.18-17.48,48.25c-15.75,16.25-36.18,18.22-52.18,18.22H48.74V208.98L48.74,208.98z M1.97,206.77h44.8v-70.89h29.54
		c15.51,0,35.45-1.97,50.71-17.48C138.34,106.58,144,90.83,144,71.63c0-21.17-6.4-36.92-19.45-48.25
		C108.31,8.62,88.12,6.65,72.37,6.65H1.97L1.97,206.77L1.97,206.77z M64.49,99.94H46.77V42.83h16.74c9.11,0,19.45,0.98,26.83,7.88
		c4.92,4.68,7.88,12.06,7.88,20.43c0,8.12-2.95,15.75-7.88,20.68C81.97,99.94,69.66,99.94,64.49,99.94z M48.74,97.72h15.51
		c4.92,0,16.74,0,24.37-7.38c4.68-4.68,7.14-11.57,7.14-19.2c0-7.63-2.71-14.52-7.14-18.95c-6.65-6.4-16.49-7.38-25.35-7.38H48.49
		v52.92H48.74z M359.14,208.98h-59.57l-52.92-77.29v77.29h-48.98V4.68h71.88c27.32,0,43.57,9.6,52.18,17.97
		c6.65,6.4,17.97,20.92,17.97,46.03c0,17.72-5.17,31.51-16,42.09c-7.38,7.14-17.23,12.55-27.08,15.26L359.14,208.98z M300.55,206.77
		h54.4l-61.78-82.46l1.48-0.49c10.09-2.46,20.18-7.88,27.82-15.26c10.34-10.09,15.51-23.38,15.51-40.37
		c0-24.12-10.83-38.15-17.23-44.31C312.37,16,296.62,6.65,270.03,6.65h-70.15v200.12h44.55V124.8L300.55,206.77L300.55,206.77z
		 M256,98.71h-11.57v-57.6h12.06c8.12,0,19.2,1.23,26.34,6.65c6.4,4.92,9.85,12.31,9.85,21.42c0,10.83-4.92,17.48-7.88,20.43
		C276.68,97.48,265.11,98.71,256,98.71L256,98.71z M246.65,96.49h9.6c8.62,0,19.69-0.98,27.08-8.37c2.71-2.71,7.38-8.86,7.38-18.95
		c0-8.62-2.95-15.26-9.11-19.69c-5.17-3.94-14.03-6.15-25.11-6.15h-9.85L246.65,96.49L246.65,96.49z M522.83,208.98H406.4V4.68
		h116.43v41.6h-67.45V83.2h64.25v41.6h-64.25v42.83h67.69v41.35L522.83,208.98z M408.62,206.77h112.25V169.6h-67.69v-47.02h64.25
		V85.17h-64.25V44.06h67.69V6.65H408.62V206.77L408.62,206.77z M735.02,208.98H568.86l96.98-162.71h-80.49V4.68h160.49
		l-96.74,162.71h85.91V208.98z M572.55,206.77h160.49V169.6h-87.38L742.4,6.89H587.57v37.42h81.97L572.55,206.77z M947.69,208.98
		H781.54l96.98-162.71h-80.49V4.68h160.49l-96.74,162.71h85.91V208.98z M785.23,206.77h160.49V169.6h-87.38L955.08,6.89H800.25
		v37.42h81.97L785.23,206.77z M1118.77,208.98h-48.74v-95.02L996.68,4.68h57.6l40.12,61.78l40.12-61.78h57.6l-73.35,109.29V208.98z
		 M1072.25,206.77h44.55v-93.54l71.63-106.58h-52.68l-41.11,63.51l-41.35-63.51h-52.68l71.63,106.58L1072.25,206.77L1072.25,206.77z
		 M1315.2,208.98h-77.05V4.68h62.77c8.86,0,35.45,0,52.18,15.75c12.31,11.82,14.77,27.57,14.77,38.89c0,10.34-2.22,18.71-6.89,26.34
		c-4.18,7.14-9.85,11.32-14.52,13.78c9.6,2.22,19.2,7.14,25.35,13.29c6.15,6.15,13.29,17.48,13.29,36.92c0,16.98-5.42,31.02-16,41.6
		C1357.05,203.08,1339.32,208.98,1315.2,208.98z M1240.12,206.77h75.08c23.63,0,40.86-5.66,52.68-16.98
		c10.34-10.34,15.51-23.88,15.51-40.12c0-18.71-6.89-29.54-12.8-35.45c-6.65-6.65-16.98-11.82-27.32-13.29l-3.45-0.49l3.2-1.48
		c4.92-2.22,11.57-6.4,16.49-14.52c4.43-7.14,6.4-15.26,6.4-25.11c0-10.83-2.46-26.34-14.28-37.42
		c-16-15.26-42.34-15.26-50.71-15.26h-60.8V206.77z M1296.49,172.55h-12.31v-51.2h13.78c9.6,0,25.6,0,33.97,7.88
		c1.97,1.72,6.65,7.14,6.65,17.23c0,7.38-2.46,13.54-6.89,17.72C1322.58,172.55,1306.83,172.55,1296.49,172.55z M1286.15,170.58
		h10.09c10.09,0,25.35,0,33.72-7.88c4.18-3.94,6.4-9.35,6.4-16.25c0-9.35-4.68-14.28-5.91-15.51c-7.88-7.38-23.38-7.38-32.74-7.38
		h-11.57L1286.15,170.58L1286.15,170.58z M1292.8,88.86h-8.62V41.11h8.37c8.37,0,17.97,0,24.86,5.42c2.46,1.97,8.37,7.38,8.37,17.72
		c0,7.88-3.2,14.77-8.62,18.71C1309.78,88.12,1298.71,88.86,1292.8,88.86L1292.8,88.86z M1286.15,86.89h6.65
		c4.68,0,16.25-0.49,23.14-5.66c4.92-3.45,7.88-9.85,7.88-16.98c0-9.6-5.17-14.52-7.38-16.25c-6.4-4.92-15.26-4.92-23.63-4.92h-6.15
		v43.82L1286.15,86.89z M1543.14,213.42c-42.09,0-67.94-18.71-79.51-30.03c-20.18-18.95-31.75-46.77-31.75-75.82
		c0-27.82,12.31-58.34,31.51-77.54C1474.71,18.71,1499.82,0,1543.14,0c32,0,58.58,10.09,79.02,29.78
		c20.43,19.94,31.75,47.26,31.75,77.05c0,29.29-11.32,56.62-31.75,76.55C1601.48,203.32,1574.89,213.42,1543.14,213.42z
		 M1543.14,2.22c-40.37,0-64.98,16-78.28,29.29c-18.71,18.71-31.02,48.49-31.02,76.06c0,28.8,11.32,55.88,31.26,74.34
		c11.57,11.08,36.92,29.54,78.03,29.54c31.26,0,57.35-9.85,77.54-29.29c20.18-19.45,31.26-46.28,31.26-75.08
		c0-29.29-11.08-56.12-31.26-75.57C1600.49,12.06,1574.65,2.22,1543.14,2.22L1543.14,2.22z M1542.4,170.34
		c-17.97,0-32-5.42-44.06-16.98c-12.55-12.31-18.71-27.57-18.71-46.28c0-25.11,11.32-39.88,18.22-46.52
		c11.32-11.32,27.32-17.48,45.05-17.48c16.98,0,33.97,6.65,45.29,17.48c11.32,11.32,17.97,28.31,17.97,46.28
		c0,23.63-9.85,38.15-17.97,46.03C1576.62,164.43,1560.86,170.34,1542.4,170.34L1542.4,170.34z M1542.65,45.29
		c-17.23,0-32.49,5.91-43.57,16.98c-6.65,6.4-17.48,20.68-17.48,45.05c0,18.22,5.91,32.74,18.22,44.8
		c11.82,11.08,25.35,16.49,42.58,16.49c17.72,0,32.98-5.91,44.06-16.98c7.88-7.63,17.23-21.42,17.23-44.31
		c0-24.86-12.06-39.63-17.23-44.8C1575.63,51.69,1559.14,45.29,1542.65,45.29L1542.65,45.29z M1886.52,208.98h-58.58l-44.31-69.17
		l-44.31,69.17h-58.58l75.08-108.31l-63.51-96h58.58l32.74,56.62l32.74-56.62h58.58l-63.51,96L1886.52,208.98z M1828.92,206.77
		h53.42l-73.6-106.34l62.03-93.78h-53.42l-33.97,58.58l-33.72-58.58H1696l62.03,93.78l-0.49,0.49l-73.11,105.6h53.42l45.54-70.89
		L1828.92,206.77L1828.92,206.77z"/>
</g>
</svg>
