<?xml version="1.0" encoding="utf-8"?>
<svg version="1.1" id="Layer_1" xmlns="http://www.w3.org/2000/svg" xmlns:xlink="http://www.w3.org/1999/xlink" x="0px" y="0px"
	 viewBox="0 0 533.47 122.5" style="enable-background:new 0 0 533.47 122.5;" xml:space="preserve">
<g id="logo_main" transform="scale(2.5)">
	<g id="logo" transform="scale(.1)" style="opacity:0.999;">
		<path id="path2" style="fill:#43BEAC;" d="M402,279.6c0.6-11.5,0.9-23.2,0.9-34.6s-0.3-23.1-0.9-34.6c11.8,0.6,23.4,1.3,34.7,2
			c0.7,10.9,1.1,21.8,1.1,32.6s-0.4,21.7-1.1,32.6C425.5,278.3,413.8,279,402,279.6z M370.8,421.3c3.6-10.7,7-22,9.9-33.5
			c-17.2,4.1-35.1,7.3-53.4,9.8c-1.2,11.6-2.5,23-4,34C339.6,428.9,355.5,425.5,370.8,421.3z M309.8,483.7c2.8-14.5,5.3-29.9,7.5-46
			c-11.4,1.7-23.1,2.9-34.8,3.8c-1.1,17-2.4,33.3-3.8,48.5C289.1,488.6,299.6,486.5,309.8,483.7z M87.1,245
			c0-11.4,0.3-23.1,0.9-34.6c-11.8,0.6-23.4,1.3-34.7,2c-0.7,10.9-1.1,21.8-1.1,32.6s0.4,21.7,1.1,32.6c11.2,0.7,22.9,1.4,34.7,2
			C87.4,268.1,87.1,256.4,87.1,245z M282.3,329.2c0.3-13.4,0.6-27.1,0.8-40.9c-12.7,0.1-25.5,0.2-38.1,0.2
			c-12.5,0-25.3-0.1-38.1-0.2c0.2,13.8,0.4,27.5,0.8,40.9c12.4,0.3,24.9,0.4,37.3,0.4C257.4,329.6,269.9,329.5,282.3,329.2z
			 M322.6,97c-12.3-1.6-24.9-2.7-37.6-3.5c1,20.1,1.7,41,2.3,62.2c13.4,0.3,26.8,0.9,39.9,1.5C326.1,136.8,324.6,116.5,322.6,97z
			 M162.6,92.4c1.2-11.6,2.5-23,4-34c-16.2,2.6-32.2,6.1-47.4,10.2c-3.6,10.7-7,22-9.9,33.5C126.4,98.2,144.3,94.9,162.6,92.4z
			 M282.3,160.8c-12.4-0.3-24.9-0.4-37.3-0.4c-12.4,0-24.9,0.1-37.3,0.4c-0.3,13.4-0.6,27.1-0.8,40.9c12.6-0.1,25.4-0.2,38.1-0.2
			c12.7,0,25.5,0.1,38.1,0.2C282.9,187.9,282.6,174.2,282.3,160.8z M64.4,374.8c-13.8-4.8-26.9-10.1-39-15.9
			c6.4,12.2,13.8,24,22.2,35.1c8.6,4.4,17.6,8.5,27,12.3C70.9,396.1,67.4,385.5,64.4,374.8z M442.4,96c-8.6-4.4-17.6-8.5-27-12.3
			c3.8,10.2,7.2,20.7,10.2,31.5c13.8,4.8,26.9,10.1,39,15.9C458.2,118.9,450.7,107.1,442.4,96z"/>
		<path id="path4" style="fill:#56AEE1;" d="M437.7,317.3c1.7-11.5,2.9-23.1,3.8-34.8c17-1.1,33.2-2.4,48.5-3.8
			c-1.4,10.5-3.5,20.9-6.3,31.1C469.3,312.5,453.8,315.1,437.7,317.3z M421.3,370.8c4.2-15.3,7.6-31.2,10.2-47.4
			c-11,1.4-22.4,2.8-34,4c-2.4,18.3-5.7,36.2-9.8,53.4C399.3,377.8,410.6,374.4,421.3,370.8z M322.6,393c1.9-19.5,3.5-39.7,4.6-60.2
			c-13.1,0.7-26.5,1.2-39.9,1.5c-0.6,21.3-1.3,42.2-2.3,62.2C297.7,395.7,310.3,394.5,322.6,393z M155.7,287.3
			c-21.4-0.6-42.3-1.3-62.2-2.3c0.8,12.7,2,25.3,3.5,37.6c19.5,1.9,39.7,3.5,60.2,4.6C156.6,314.2,156.1,300.8,155.7,287.3z
			 M207.5,441.5c-11.7-0.9-23.4-2.1-34.8-3.8c2.2,16.1,4.8,31.5,7.5,46c10.2,2.8,20.7,4.9,31.1,6.3
			C209.9,474.8,208.7,458.5,207.5,441.5z M421.3,119.2c-10.7-3.6-22-7-33.5-9.9c4.1,17.2,7.3,35.1,9.8,53.4c11.6,1.2,23,2.5,34,4
			C428.9,150.4,425.5,134.5,421.3,119.2z M309.8,6.3c-10.2-2.8-20.7-4.9-31.1-6.3c1.4,15.2,2.7,31.5,3.8,48.5
			c11.7,0.9,23.4,2.1,34.8,3.8C315.1,36.2,312.5,20.8,309.8,6.3z M48.5,207.5c0.9-11.7,2.1-23.4,3.8-34.8c-16.1,2.2-31.5,4.8-46,7.5
			c-2.8,10.2-4.9,20.6-6.3,31.1C15.2,209.9,31.5,208.7,48.5,207.5z M155.7,202.7c0.3-13.4,0.9-26.8,1.5-39.9
			c-20.5,1.1-40.7,2.7-60.2,4.6c-1.6,12.3-2.7,24.9-3.5,37.6C113.6,204,134.5,203.2,155.7,202.7z M277.6,53.3
			c-10.9-0.7-21.8-1.1-32.6-1.1s-21.7,0.4-32.6,1.1c-0.7,11.2-1.4,22.9-2,34.7c11.5-0.6,23.1-0.9,34.6-0.9s23.1,0.3,34.6,0.9
			C279,76.2,278.3,64.5,277.6,53.3z M115.2,425.6c-10.7-3-21.3-6.4-31.5-10.2c3.8,9.4,7.9,18.4,12.3,27
			c11.1,8.4,22.9,15.8,35.1,22.2C125.3,452.4,120,439.4,115.2,425.6z M394,47.6c-11.1-8.4-22.9-15.8-35.1-22.2
			c5.8,12.1,11.2,25.2,15.9,39c10.7,3,21.3,6.4,31.5,10.2C402.5,65.3,398.3,56.2,394,47.6z"/>
		<path id="path6" style="fill:#91AEDB;" d="M102.2,380.7c-11.6-3-22.8-6.3-33.5-9.9c-4.2-15.3-7.6-31.2-10.2-47.4
			c11,1.4,22.4,2.8,34,4C94.9,345.6,98.2,363.6,102.2,380.7z M201.5,245c0-12.6,0.1-25.4,0.2-38.1c-13.7,0.2-27.4,0.4-40.9,0.8
			c-0.3,12.4-0.4,24.9-0.4,37.3c0,12.4,0.1,24.9,0.4,37.3c13.5,0.3,27.2,0.6,40.9,0.8C201.6,270.4,201.5,257.6,201.5,245z
			 M277.6,436.7c0.7-11.2,1.4-22.9,2-34.7c-11.5,0.6-23.2,0.9-34.6,0.9s-23-0.3-34.6-0.9c0.6,11.8,1.3,23.4,2,34.7
			c10.9,0.7,21.8,1.1,32.6,1.1S266.7,437.4,277.6,436.7z M393,167.4c-19.5-1.9-39.7-3.5-60.2-4.6c0.7,13.1,1.2,26.5,1.5,39.9
			c21.3,0.6,42.2,1.3,62.2,2.3C395.7,192.3,394.5,179.7,393,167.4z M207.5,48.5c1.1-17,2.4-33.3,3.8-48.5
			c-10.5,1.4-20.9,3.5-31.1,6.3c-2.8,14.4-5.3,29.9-7.5,46C184.1,50.6,195.8,49.3,207.5,48.5z M442.4,394
			c8.4-11.1,15.8-22.8,22.2-35.1c-12.1,5.8-25.2,11.2-39,15.9c-3,10.7-6.4,21.3-10.2,31.5C424.7,402.5,433.8,398.4,442.4,394z
			 M64.4,115.2c3-10.7,6.4-21.3,10.2-31.5c-9.4,3.8-18.4,7.9-27,12.3c-8.4,11.1-15.8,22.8-22.2,35.1C37.6,125.3,50.6,120,64.4,115.2
			z"/>
		<path id="path8" style="fill:#8FC73E;" d="M332.7,327.3c0.7-13.1,1.2-26.5,1.5-39.9c21.4-0.6,42.3-1.3,62.2-2.3
			c-0.8,12.7-2,25.3-3.5,37.6C373.5,324.6,353.2,326.1,332.7,327.3z M329.2,282.3c0.3-12.4,0.4-24.9,0.4-37.3
			c0-12.4-0.1-24.9-0.4-37.3c-13.5-0.3-27.2-0.6-40.9-0.8c0.1,12.7,0.2,25.4,0.2,38.1c0,12.6-0.1,25.4-0.2,38.1
			C302,282.9,315.8,282.6,329.2,282.3z M48.5,282.5c-17-1.1-33.2-2.4-48.5-3.8c1.4,10.5,3.5,20.9,6.3,31.1c14.4,2.8,29.9,5.3,46,7.5
			C50.6,305.9,49.3,294.2,48.5,282.5z M162.6,397.6c-18.3-2.4-36.2-5.7-53.4-9.8c2.9,11.6,6.3,22.8,9.9,33.5
			c15.3,4.2,31.2,7.6,47.4,10.2C165.2,420.6,163.8,409.1,162.6,397.6z M202.7,334.3c-13.4-0.3-26.8-0.9-39.9-1.5
			c1.1,20.5,2.7,40.7,4.6,60.2c12.3,1.6,24.9,2.8,37.6,3.5C204,376.4,203.2,355.5,202.7,334.3z M483.7,180.2
			c-14.5-2.8-29.9-5.3-46-7.5c1.7,11.4,2.9,23.1,3.8,34.8c17,1.1,33.2,2.4,48.5,3.8C488.6,200.9,486.5,190.4,483.7,180.2z
			 M370.8,68.7c-15.3-4.2-31.2-7.6-47.4-10.2c1.5,11,2.8,22.4,4,34c18.3,2.4,36.2,5.7,53.4,9.8C377.8,90.7,374.4,79.4,370.8,68.7z
			 M92.4,162.6c2.4-18.3,5.7-36.2,9.8-53.4c-11.5,2.9-22.8,6.3-33.5,9.9c-4.2,15.3-7.6,31.2-10.2,47.4
			C69.5,165.2,80.9,163.8,92.4,162.6z M202.7,155.7c0.6-21.3,1.3-42.2,2.3-62.2c-12.7,0.8-25.3,2-37.6,3.5
			c-1.9,19.5-3.5,39.7-4.6,60.2C175.8,156.6,189.2,156.1,202.7,155.7z M394,442.4c4.4-8.6,8.5-17.6,12.3-27
			c-10.2,3.8-20.7,7.2-31.5,10.2c-4.8,13.8-10.1,26.9-15.9,39C371.1,458.2,382.9,450.7,394,442.4z M115.2,64.4
			c4.8-13.8,10.1-26.9,15.9-39c-12.2,6.4-24,13.8-35.1,22.2c-4.4,8.6-8.5,17.6-12.3,27C93.9,70.9,104.5,67.4,115.2,64.4z"/>
	</g>
	<g id="text" style="opacity:0.999;">
		<path id="path850" style="fill:#232C64;" d="M65.34,25.77l1.46-7.14h1.63l-2.19,9.48h-1.58l-1.8-6.92l-1.84,6.92h-1.58l-2.19-9.48
			h1.63l1.47,7.12l1.81-7.12h1.38L65.34,25.77z"/>
		<path id="path852" style="fill:#232C64;" d="M73.68,28.11c-0.07-0.13-0.13-0.35-0.18-0.66c-0.5,0.53-1.12,0.79-1.85,0.79
			c-0.71,0-1.28-0.2-1.73-0.61s-0.67-0.9-0.67-1.5c0-0.75,0.28-1.33,0.83-1.73c0.56-0.4,1.36-0.61,2.4-0.61h0.97v-0.46
			c0-0.36-0.1-0.66-0.31-0.87c-0.2-0.22-0.51-0.33-0.93-0.33c-0.36,0-0.66,0.09-0.89,0.27c-0.23,0.18-0.35,0.41-0.35,0.68h-1.58
			c0-0.39,0.13-0.75,0.38-1.08c0.26-0.34,0.6-0.6,1.04-0.79c0.44-0.19,0.94-0.29,1.48-0.29c0.82,0,1.48,0.21,1.97,0.63
			c0.49,0.41,0.74,0.99,0.76,1.74v3.18c0,0.63,0.09,1.14,0.27,1.52v0.11L73.68,28.11z M71.94,26.97c0.31,0,0.61-0.08,0.88-0.23
			c0.28-0.15,0.49-0.36,0.63-0.61v-1.33h-0.85c-0.59,0-1.03,0.1-1.32,0.31s-0.44,0.49-0.44,0.87c0,0.3,0.1,0.55,0.3,0.73
			C71.33,26.89,71.6,26.97,71.94,26.97L71.94,26.97z"/>
		<path id="path854" style="fill:#232C64;" d="M78.56,28.11h-1.58v-10h1.58V28.11z"/>
		<path id="path856" style="fill:#232C64;" d="M80.21,24.54c0-1.09,0.26-1.97,0.77-2.62c0.52-0.66,1.2-0.98,2.05-0.98
			c0.8,0,1.43,0.28,1.89,0.84l0.07-0.71h1.43v6.83c0,0.92-0.29,1.65-0.87,2.19c-0.57,0.53-1.35,0.8-2.32,0.8
			c-0.52,0-1.02-0.11-1.52-0.33c-0.49-0.21-0.86-0.49-1.12-0.84l0.75-0.95c0.49,0.58,1.09,0.87,1.8,0.87c0.53,0,0.94-0.14,1.24-0.43
			c0.3-0.28,0.46-0.7,0.46-1.25v-0.48c-0.46,0.51-1.06,0.76-1.82,0.76c-0.82,0-1.5-0.33-2.02-0.98
			C80.47,26.61,80.21,25.7,80.21,24.54L80.21,24.54z M81.78,24.68c0,0.71,0.14,1.27,0.43,1.67c0.29,0.4,0.69,0.61,1.2,0.61
			c0.64,0,1.11-0.27,1.42-0.82v-3.1c-0.3-0.53-0.77-0.8-1.41-0.8c-0.52,0-0.93,0.21-1.22,0.62C81.93,23.27,81.78,23.87,81.78,24.68z
			"/>
		<path id="path858" style="fill:#232C64;" d="M91.93,22.51c-0.21-0.03-0.42-0.05-0.64-0.05c-0.72,0-1.21,0.28-1.46,0.83v4.82h-1.58
			v-7.04h1.51l0.04,0.79c0.38-0.61,0.91-0.92,1.59-0.92c0.23,0,0.41,0.03,0.56,0.09L91.93,22.51z"/>
		<path id="path860" style="fill:#232C64;" d="M96.11,28.24c-1,0-1.82-0.31-2.44-0.94c-0.62-0.63-0.93-1.48-0.93-2.53v-0.2
			c0-0.7,0.13-1.33,0.4-1.88c0.27-0.56,0.66-0.99,1.15-1.3c0.49-0.31,1.04-0.46,1.64-0.46c0.96,0,1.7,0.31,2.22,0.92
			c0.53,0.61,0.79,1.48,0.79,2.6v0.64h-4.6c0.05,0.58,0.24,1.04,0.58,1.38c0.34,0.34,0.77,0.51,1.29,0.51
			c0.72,0,1.32-0.29,1.77-0.88l0.85,0.81c-0.28,0.42-0.66,0.75-1.13,0.98C97.22,28.13,96.7,28.24,96.11,28.24L96.11,28.24z
			 M95.92,22.21c-0.43,0-0.79,0.15-1.05,0.46c-0.26,0.3-0.43,0.73-0.51,1.27h3.01v-0.12c-0.03-0.53-0.18-0.93-0.42-1.2
			C96.7,22.35,96.36,22.21,95.92,22.21L95.92,22.21z"/>
		<path id="path862" style="fill:#232C64;" d="M103.46,28.24c-1,0-1.82-0.31-2.44-0.94c-0.62-0.63-0.93-1.48-0.93-2.53v-0.2
			c0-0.7,0.13-1.33,0.4-1.88c0.27-0.56,0.66-0.99,1.15-1.3c0.49-0.31,1.04-0.46,1.64-0.46c0.96,0,1.7,0.31,2.22,0.92
			c0.53,0.61,0.79,1.48,0.79,2.6v0.64h-4.6c0.05,0.58,0.24,1.04,0.58,1.38c0.34,0.34,0.77,0.51,1.29,0.51
			c0.72,0,1.32-0.29,1.77-0.88l0.85,0.81c-0.28,0.42-0.66,0.75-1.13,0.98C104.58,28.13,104.05,28.24,103.46,28.24L103.46,28.24z
			 M103.28,22.21c-0.43,0-0.79,0.15-1.05,0.46c-0.26,0.3-0.43,0.73-0.51,1.27h3.01v-0.12c-0.03-0.53-0.18-0.93-0.42-1.2
			C104.06,22.35,103.71,22.21,103.28,22.21L103.28,22.21z"/>
		<path id="path864" style="fill:#232C64;" d="M109.19,21.07l0.05,0.81c0.52-0.63,1.2-0.94,2.05-0.94c1.47,0,2.21,0.84,2.24,2.52
			v4.66h-1.58v-4.56c0-0.45-0.1-0.78-0.29-0.99c-0.19-0.22-0.51-0.33-0.94-0.33c-0.64,0-1.11,0.29-1.43,0.87v5.01h-1.58v-7.04
			H109.19z"/>
		<path id="path866" style="fill:#232C64;" d="M119.28,26.2c0-0.28-0.12-0.5-0.35-0.64c-0.23-0.15-0.61-0.28-1.15-0.39
			c-0.54-0.11-0.99-0.26-1.35-0.43c-0.79-0.38-1.18-0.94-1.18-1.66c0-0.61,0.26-1.12,0.77-1.52c0.51-0.41,1.16-0.61,1.95-0.61
			c0.84,0,1.52,0.21,2.04,0.63c0.52,0.42,0.78,0.96,0.78,1.62h-1.58c0-0.3-0.11-0.56-0.34-0.76c-0.23-0.2-0.53-0.31-0.9-0.31
			c-0.35,0-0.63,0.08-0.85,0.24c-0.22,0.16-0.33,0.38-0.33,0.64c0,0.24,0.1,0.43,0.31,0.57c0.2,0.13,0.62,0.27,1.24,0.41
			c0.62,0.13,1.11,0.3,1.46,0.49c0.36,0.19,0.62,0.41,0.79,0.68c0.17,0.26,0.26,0.59,0.26,0.96c0,0.63-0.26,1.15-0.79,1.54
			c-0.53,0.39-1.21,0.59-2.06,0.59c-0.58,0-1.09-0.1-1.54-0.31c-0.45-0.21-0.8-0.49-1.05-0.86c-0.25-0.36-0.38-0.76-0.38-1.18h1.54
			c0.02,0.37,0.16,0.66,0.42,0.87c0.26,0.2,0.61,0.3,1.04,0.3c0.42,0,0.73-0.08,0.95-0.23C119.17,26.66,119.28,26.46,119.28,26.2
			L119.28,26.2z"/>
		<path id="path868" style="fill:#232C64;" d="M126.09,28.11v-9.48h3.25c1.07,0,1.89,0.21,2.45,0.64c0.56,0.43,0.84,1.07,0.84,1.92
			c0,0.43-0.12,0.82-0.35,1.17c-0.23,0.35-0.58,0.62-1.03,0.81c0.51,0.14,0.91,0.4,1.18,0.79c0.28,0.38,0.42,0.84,0.42,1.38
			c0,0.89-0.29,1.57-0.86,2.05c-0.57,0.48-1.38,0.72-2.45,0.72L126.09,28.11z M127.73,23.84v2.96h1.83c0.52,0,0.92-0.13,1.21-0.38
			c0.29-0.26,0.44-0.61,0.44-1.07c0-0.99-0.5-1.49-1.51-1.51H127.73z M127.73,22.63h1.61c0.51,0,0.91-0.11,1.2-0.34
			c0.29-0.23,0.44-0.56,0.44-0.99c0-0.47-0.13-0.81-0.4-1.02c-0.26-0.21-0.68-0.31-1.24-0.31h-1.6L127.73,22.63z"/>
		<path id="path870" style="fill:#232C64;" d="M134.25,24.53c0-0.69,0.14-1.31,0.41-1.86c0.27-0.56,0.66-0.98,1.15-1.28
			c0.49-0.3,1.06-0.45,1.71-0.45c0.95,0,1.72,0.31,2.31,0.92c0.59,0.61,0.92,1.42,0.96,2.43l0.01,0.37c0,0.69-0.13,1.32-0.4,1.86
			c-0.26,0.55-0.65,0.97-1.15,1.27c-0.49,0.3-1.07,0.45-1.72,0.45c-0.99,0-1.79-0.33-2.39-0.99c-0.59-0.66-0.89-1.55-0.89-2.65
			L134.25,24.53z M135.83,24.66c0,0.72,0.15,1.29,0.45,1.71c0.3,0.41,0.72,0.61,1.25,0.61s0.95-0.21,1.24-0.63
			c0.3-0.42,0.45-1.03,0.45-1.83c0-0.71-0.15-1.28-0.46-1.69c-0.3-0.42-0.72-0.63-1.24-0.63c-0.52,0-0.93,0.21-1.23,0.62
			C135.98,23.23,135.83,23.85,135.83,24.66z"/>
		<path id="path872" style="fill:#232C64;" d="M142.04,24.53c0-0.69,0.14-1.31,0.41-1.86c0.27-0.56,0.66-0.98,1.15-1.28
			c0.49-0.3,1.06-0.45,1.71-0.45c0.95,0,1.72,0.31,2.31,0.92c0.59,0.61,0.92,1.42,0.96,2.43l0.01,0.37c0,0.69-0.13,1.32-0.4,1.86
			c-0.26,0.55-0.65,0.97-1.15,1.27c-0.49,0.3-1.07,0.45-1.72,0.45c-0.99,0-1.79-0.33-2.39-0.99c-0.59-0.66-0.89-1.55-0.89-2.65
			L142.04,24.53z M143.62,24.66c0,0.72,0.15,1.29,0.45,1.71c0.3,0.41,0.72,0.61,1.25,0.61c0.53,0,0.95-0.21,1.24-0.63
			c0.3-0.42,0.45-1.03,0.45-1.83c0-0.71-0.15-1.28-0.46-1.69c-0.3-0.42-0.72-0.63-1.24-0.63c-0.52,0-0.93,0.21-1.23,0.62
			C143.77,23.23,143.62,23.85,143.62,24.66z"/>
		<path id="path874" style="fill:#232C64;" d="M152.11,19.36v1.71h1.24v1.17h-1.24v3.93c0,0.27,0.05,0.46,0.16,0.59
			c0.11,0.12,0.3,0.18,0.57,0.18c0.18,0,0.37-0.02,0.55-0.07v1.22c-0.36,0.1-0.71,0.15-1.04,0.15c-1.22,0-1.82-0.67-1.82-2.01v-3.99
			h-1.16v-1.17h1.16v-1.71H152.11z"/>
		<path id="path876" style="fill:#232C64;" d="M158.71,26.2c0-0.28-0.12-0.5-0.35-0.64c-0.23-0.15-0.61-0.28-1.15-0.39
			c-0.54-0.11-0.99-0.26-1.35-0.43c-0.79-0.38-1.18-0.94-1.18-1.66c0-0.61,0.26-1.12,0.77-1.52c0.51-0.41,1.16-0.61,1.95-0.61
			c0.84,0,1.52,0.21,2.04,0.63c0.52,0.42,0.78,0.96,0.78,1.62h-1.58c0-0.3-0.11-0.56-0.34-0.76c-0.23-0.2-0.53-0.31-0.9-0.31
			c-0.35,0-0.63,0.08-0.85,0.24c-0.22,0.16-0.33,0.38-0.33,0.64c0,0.24,0.1,0.43,0.31,0.57c0.2,0.13,0.62,0.27,1.24,0.41
			c0.62,0.13,1.11,0.3,1.46,0.49c0.36,0.19,0.62,0.41,0.79,0.68c0.17,0.26,0.26,0.59,0.26,0.96c0,0.63-0.26,1.15-0.79,1.54
			c-0.53,0.39-1.21,0.59-2.06,0.59c-0.58,0-1.09-0.1-1.54-0.31c-0.45-0.21-0.8-0.49-1.05-0.86c-0.25-0.36-0.38-0.76-0.38-1.18h1.54
			c0.02,0.37,0.16,0.66,0.42,0.87c0.26,0.2,0.61,0.3,1.04,0.3c0.42,0,0.73-0.08,0.95-0.23C158.6,26.66,158.71,26.46,158.71,26.2
			L158.71,26.2z"/>
		<path id="path878" style="fill:#232C64;" d="M170.82,25.91h-3.67l-0.77,2.21h-1.71l3.58-9.48h1.48l3.59,9.48h-1.72L170.82,25.91z
			 M167.61,24.58h2.75l-1.37-3.93L167.61,24.58z"/>
		<path id="path880" style="fill:#232C64;" d="M176.12,28.11h-1.58v-10h1.58V28.11z"/>
		<path id="path882" style="fill:#232C64;" d="M179.73,28.11h-1.58v-10h1.58V28.11z"/>
		<path id="path884" style="fill:#232C64;" d="M183.33,28.11h-1.58v-7.04h1.58V28.11z M181.65,19.24c0-0.24,0.08-0.44,0.23-0.61
			c0.16-0.16,0.38-0.24,0.66-0.24c0.29,0,0.51,0.08,0.66,0.24c0.16,0.16,0.23,0.36,0.23,0.61c0,0.24-0.08,0.44-0.23,0.6
			c-0.16,0.16-0.38,0.23-0.66,0.23s-0.51-0.08-0.66-0.23C181.73,19.68,181.65,19.48,181.65,19.24L181.65,19.24z"/>
		<path id="path886" style="fill:#232C64;" d="M189.46,28.11c-0.07-0.13-0.13-0.35-0.18-0.66c-0.5,0.53-1.12,0.79-1.85,0.79
			c-0.71,0-1.28-0.2-1.73-0.61c-0.45-0.4-0.67-0.9-0.67-1.5c0-0.75,0.28-1.33,0.83-1.73c0.56-0.4,1.36-0.61,2.4-0.61h0.97v-0.46
			c0-0.36-0.1-0.66-0.31-0.87c-0.2-0.22-0.51-0.33-0.93-0.33c-0.36,0-0.66,0.09-0.89,0.27c-0.23,0.18-0.35,0.41-0.35,0.68h-1.58
			c0-0.39,0.13-0.75,0.38-1.08c0.26-0.34,0.6-0.6,1.04-0.79c0.44-0.19,0.94-0.29,1.48-0.29c0.82,0,1.48,0.21,1.97,0.63
			c0.49,0.41,0.74,0.99,0.76,1.74v3.18c0,0.63,0.09,1.14,0.27,1.52v0.11L189.46,28.11z M187.72,26.97c0.31,0,0.61-0.08,0.88-0.23
			c0.28-0.15,0.49-0.36,0.63-0.61v-1.33h-0.85c-0.59,0-1.03,0.1-1.32,0.31c-0.3,0.2-0.44,0.49-0.44,0.87c0,0.3,0.1,0.55,0.3,0.73
			C187.11,26.89,187.38,26.97,187.72,26.97z"/>
		<path id="path888" style="fill:#232C64;" d="M194.13,21.07l0.05,0.81c0.52-0.63,1.2-0.94,2.05-0.94c1.47,0,2.21,0.84,2.24,2.52
			v4.66h-1.58v-4.56c0-0.45-0.1-0.78-0.29-0.99c-0.19-0.22-0.51-0.33-0.94-0.33c-0.64,0-1.11,0.29-1.43,0.87v5.01h-1.58v-7.04
			H194.13z"/>
		<path id="path890" style="fill:#232C64;" d="M203.18,26.98c0.39,0,0.72-0.11,0.98-0.34c0.26-0.23,0.4-0.51,0.42-0.85h1.49
			c-0.02,0.44-0.15,0.85-0.41,1.23c-0.26,0.38-0.6,0.68-1.04,0.9c-0.44,0.22-0.91,0.33-1.42,0.33c-0.99,0-1.77-0.32-2.34-0.96
			c-0.58-0.64-0.87-1.52-0.87-2.64v-0.16c0-1.07,0.29-1.93,0.86-2.57c0.57-0.65,1.35-0.97,2.34-0.97c0.84,0,1.52,0.25,2.04,0.74
			c0.53,0.49,0.81,1.13,0.83,1.92h-1.49c-0.02-0.4-0.16-0.74-0.42-1c-0.26-0.26-0.58-0.39-0.98-0.39c-0.51,0-0.91,0.19-1.18,0.56
			c-0.28,0.37-0.42,0.93-0.42,1.69v0.25c0,0.76,0.14,1.33,0.41,1.71C202.25,26.79,202.65,26.98,203.18,26.98L203.18,26.98z"/>
		<path id="path892" style="fill:#232C64;" d="M210.56,28.24c-1,0-1.82-0.31-2.44-0.94c-0.62-0.63-0.93-1.48-0.93-2.53v-0.2
			c0-0.7,0.13-1.33,0.4-1.88c0.27-0.56,0.66-0.99,1.15-1.3c0.49-0.31,1.04-0.46,1.64-0.46c0.96,0,1.7,0.31,2.22,0.92
			c0.53,0.61,0.79,1.48,0.79,2.6v0.64h-4.6c0.05,0.58,0.24,1.04,0.58,1.38c0.34,0.34,0.77,0.51,1.29,0.51
			c0.72,0,1.32-0.29,1.77-0.88l0.85,0.81c-0.28,0.42-0.66,0.75-1.13,0.98C211.68,28.13,211.15,28.24,210.56,28.24L210.56,28.24z
			 M210.37,22.21c-0.43,0-0.79,0.15-1.05,0.46c-0.26,0.3-0.43,0.73-0.51,1.27h3.01v-0.12c-0.03-0.53-0.18-0.93-0.42-1.2
			C211.15,22.35,210.81,22.21,210.37,22.21L210.37,22.21z"/>
	</g>
</g>
</svg>
