<?xml version="1.0" encoding="utf-8"?>
<svg version="1.1" id="Layer_1" xmlns="http://www.w3.org/2000/svg" xmlns:xlink="http://www.w3.org/1999/xlink" x="0px" y="0px"
	 viewBox="0 0 200 105.06" style="enable-background:new 0 0 200 105.06;" xml:space="preserve">
<g transform="matrix(1.25,0,0,-1.25,-32.478687,771.24195)">
	<g transform="matrix(2.0497332,0,0,2.0497332,-32.700912,-639.82126)">
		<path style="fill:#007CC1;" d="M67.72,613.16c-8.7,0-16.15-5.54-19.07-13.23l-0.12-0.28h0.32h2.18h0.12l0.06,0.12
			c2.73,6.41,9.1,10.91,16.51,10.91c3.89,0,7.47-1.24,10.41-3.34c-0.1-0.32-0.16-0.64-0.16-1c0-1.83,1.47-3.34,3.31-3.34
			c0.35,0,0.68,0.1,1,0.2c0.76-1.06,1.42-2.2,1.94-3.42l0.06-0.12h0.13h2.21h0.32l-0.12,0.28c-0.65,1.73-1.55,3.37-2.62,4.84
			c0.26,0.47,0.46,0.99,0.46,1.56c0,1.84-1.5,3.34-3.34,3.34c-0.59,0-1.12-0.19-1.6-0.46C76.35,611.68,72.21,613.16,67.72,613.16z
			 M104.47,601.06v-0.18v-3.4h-2.5c-0.63,0-1.24-0.13-1.81-0.38c-0.01,0-0.03,0-0.04,0v-0.02c-0.55-0.23-1.04-0.59-1.46-1h-0.04
			c-0.43-0.42-0.78-0.91-1.02-1.48c-0.24-0.56-0.35-1.19-0.35-1.84c0-0.64,0.12-1.23,0.35-1.81c0.25-0.57,0.59-1.1,1.02-1.54
			c0.43-0.43,0.93-0.75,1.5-1l0.04-0.02c0.57-0.24,1.16-0.35,1.81-0.35c0.64,0,1.24,0.12,1.82,0.35h0.02v0.02
			c0.57,0.25,1.06,0.57,1.48,1c0.43,0.43,0.76,0.97,1,1.54c0.25,0.58,0.4,1.16,0.4,1.81v8.13v0.18h-0.22h-1.78H104.47L104.47,601.06
			z M33.34,597.47c-0.6,0-1.2-0.14-1.78-0.38c-0.58-0.22-1.1-0.56-1.56-1.02c-0.46-0.46-0.8-0.96-1.02-1.54
			c-0.22-0.57-0.34-1.17-0.34-1.78c0-0.6,0.12-1.21,0.34-1.78c0.22-0.57,0.56-1.1,1.02-1.56c0.46-0.46,0.99-0.79,1.56-1.02
			c0.58-0.22,1.18-0.35,1.78-0.35c0.6,0,1.19,0.13,1.76,0.35c0.59,0.24,1.13,0.57,1.59,1.02l0.6,0.62l0.16,0.16l-0.12,0.16
			l-1.26,1.24l-0.16,0.16l-0.15-0.16l-0.63-0.62c-0.24-0.25-0.5-0.44-0.81-0.56c-0.31-0.12-0.64-0.18-0.98-0.18
			c-0.7,0-1.28,0.24-1.78,0.74c-0.25,0.25-0.44,0.53-0.56,0.84c-0.12,0.31-0.18,0.62-0.18,0.94c0,0.32,0.06,0.66,0.18,0.98
			c0.12,0.31,0.31,0.57,0.56,0.81c0.25,0.25,0.51,0.41,0.82,0.54c0.31,0.12,0.64,0.18,0.96,0.18s0.63-0.06,0.94-0.18
			c0.31-0.12,0.59-0.29,0.84-0.54l0.63-0.62l0.15-0.16l0.16,0.16l1.26,1.24l0.12,0.16l-0.16,0.12l-0.6,0.63
			c-0.46,0.46-1,0.8-1.59,1.02C34.52,597.33,33.94,597.47,33.34,597.47z M42.75,597.47c-0.6,0-1.22-0.14-1.81-0.38
			c-0.58-0.22-1.08-0.56-1.54-1.02c-0.46-0.46-0.8-0.96-1.02-1.54c-0.22-0.57-0.34-1.18-0.34-1.78c0-0.6,0.12-1.2,0.34-1.78
			c0.22-0.58,0.56-1.1,1.02-1.56c0.45-0.45,0.96-0.79,1.54-1.02c0.57-0.24,1.18-0.35,1.81-0.35s1.21,0.12,1.78,0.35
			c0.57,0.24,1.09,0.58,1.54,1.02l0.62,0.62l0.16,0.16l-0.16,0.16l-1.24,1.24l-0.16,0.16l-0.12-0.16l-0.63-0.62
			c-0.4-0.4-0.87-0.63-1.4-0.72c-0.41-0.06-0.78,0.06-1.16,0.2l4.72,4.71l0.16,0.16l-0.16,0.12l-0.62,0.63
			c-0.46,0.46-0.97,0.8-1.56,1.02C43.93,597.33,43.35,597.47,42.75,597.47z M52.13,597.47c-0.64,0-1.24-0.13-1.82-0.38
			c-0.57-0.24-1.09-0.59-1.53-1.02c-0.42-0.42-0.75-0.91-1-1.48c-0.24-0.56-0.34-1.19-0.34-1.84v-4.5v-0.22h0.18h1.81h0.2v0.22v4.5
			c0,0.35,0.06,0.68,0.18,0.98c0.14,0.31,0.31,0.58,0.54,0.81c0.24,0.24,0.51,0.41,0.81,0.54c0.31,0.14,0.63,0.18,0.98,0.18
			c0.35,0,0.69-0.05,1-0.18c0.31-0.12,0.56-0.3,0.78-0.54l0.02-0.02c0.23-0.22,0.41-0.47,0.54-0.78c0.13-0.29,0.18-0.63,0.18-0.98
			v-4.5v-0.22h0.22h1.78h0.22v0.22v4.5c0,0.66-0.15,1.28-0.4,1.84c-0.24,0.57-0.57,1.05-1,1.48c-0.43,0.43-0.93,0.79-1.5,1.02
			C53.41,597.35,52.78,597.47,52.13,597.47z M62.25,597.47c-0.6,0-1.2-0.14-1.78-0.38c-0.58-0.22-1.1-0.56-1.56-1.02
			c-0.46-0.46-0.81-0.96-1.04-1.54c-0.22-0.57-0.34-1.17-0.34-1.78c0-0.6,0.12-1.21,0.34-1.78c0.22-0.58,0.58-1.1,1.04-1.56
			c0.46-0.46,0.99-0.79,1.56-1.02c0.58-0.22,1.18-0.35,1.78-0.35c0.6,0,1.17,0.13,1.74,0.35c0.59,0.24,1.1,0.57,1.56,1.02h0.04
			l0.59,0.62l0.16,0.16l-0.16,0.16l-1.22,1.24l-0.15,0.16l-0.16-0.16l-0.62-0.62c-0.24-0.25-0.51-0.44-0.82-0.56
			c-0.31-0.12-0.63-0.18-0.96-0.18c-0.7,0-1.28,0.24-1.78,0.74c-0.25,0.25-0.44,0.53-0.56,0.84c-0.13,0.31-0.2,0.62-0.2,0.94
			c0,0.32,0.07,0.66,0.2,0.98c0.12,0.31,0.28,0.57,0.52,0.81h0.04c0.25,0.25,0.5,0.41,0.81,0.54c0.31,0.12,0.65,0.18,0.98,0.18
			c0.32,0,0.61-0.06,0.93-0.18c0.31-0.12,0.6-0.29,0.85-0.54l0.62-0.62l0.16-0.16l0.15,0.16l1.22,1.24l0.16,0.16l-0.16,0.12
			l-0.59,0.63c-0.46,0.46-1.01,0.8-1.6,1.02C63.43,597.33,62.86,597.47,62.25,597.47z M71.62,597.47c-0.64,0-1.24-0.13-1.82-0.38
			c-0.57-0.24-1.05-0.59-1.49-1.02c-0.42-0.42-0.79-0.91-1.04-1.48c-0.24-0.56-0.34-1.19-0.34-1.84c0-0.64,0.1-1.23,0.34-1.81
			c0.25-0.57,0.62-1.1,1.04-1.54c0.43-0.43,0.92-0.75,1.49-1v-0.02c0.57-0.24,1.18-0.35,1.82-0.35c0.65,0,1.28,0.11,1.84,0.35v0.02
			c0.57,0.25,1.07,0.57,1.5,1c0.43,0.43,0.8,0.97,1.04,1.54c0.25,0.58,0.37,1.16,0.37,1.81c0,0.66-0.11,1.28-0.37,1.84
			c-0.24,0.57-0.6,1.06-1.04,1.48c-0.43,0.43-0.93,0.79-1.5,1.02C72.9,597.35,72.28,597.47,71.62,597.47z M79.93,597.47
			c-0.4,0-0.79-0.1-1.15-0.26c-0.35-0.14-0.66-0.33-0.92-0.59c-0.26-0.26-0.47-0.58-0.62-0.94c-0.14-0.35-0.22-0.72-0.22-1.12
			s0.08-0.77,0.22-1.13v-0.02c0.16-0.34,0.37-0.63,0.62-0.9c0.26-0.26,0.57-0.48,0.92-0.63c0.36-0.14,0.75-0.22,1.15-0.22h3.62
			c0.22,0,0.36-0.07,0.5-0.21c0.14-0.14,0.22-0.29,0.22-0.5c0-0.22-0.08-0.36-0.22-0.5c-0.14-0.14-0.28-0.22-0.5-0.22h-5.43h-0.22
			v-0.2v-1.78v-0.22h0.22h5.43c0.4,0,0.79,0.07,1.13,0.22c0.35,0.16,0.64,0.36,0.9,0.62c0.27,0.27,0.48,0.59,0.62,0.94
			c0.16,0.36,0.26,0.73,0.26,1.13s-0.1,0.77-0.26,1.12c-0.14,0.36-0.35,0.68-0.62,0.94c-0.25,0.25-0.56,0.44-0.9,0.59
			c-0.01,0.01-0.02,0.03-0.04,0.04v-0.04c-0.34,0.15-0.71,0.26-1.1,0.26h-3.62c-0.21,0-0.36,0.04-0.5,0.18
			c-0.14,0.15-0.18,0.33-0.18,0.54c0,0.21,0.04,0.36,0.18,0.5c0.14,0.14,0.29,0.18,0.5,0.18h5.44h0.22v0.22v1.78v0.22h-0.22H79.93
			L79.93,597.47z M87.16,597.47v-0.22v-4.5c0-0.64,0.1-1.23,0.34-1.81c0.25-0.57,0.58-1.1,1-1.54c0.43-0.43,0.97-0.75,1.54-1v-0.02
			c0.57-0.24,1.16-0.35,1.81-0.35c0.65,0,1.28,0.11,1.84,0.35v0.02c0.57,0.25,1.07,0.57,1.5,1c0.43,0.43,0.76,0.96,1,1.54
			c0.25,0.57,0.38,1.16,0.38,1.81v4.5v0.22h-0.18h-1.82h-0.18v-0.22v-4.5c0-0.35-0.08-0.66-0.22-0.96c-0.12-0.31-0.3-0.58-0.54-0.82
			c-0.22-0.22-0.47-0.42-0.78-0.56c-0.31-0.12-0.65-0.18-1-0.18c-0.34,0-0.66,0.07-0.96,0.18c-0.01,0-0.03,0-0.04,0
			c-0.29,0.14-0.55,0.34-0.78,0.56c-0.22,0.23-0.39,0.51-0.52,0.82c-0.12,0.31-0.2,0.61-0.2,0.96v4.5v0.22h-0.22h-1.78H87.16z
			 M42.62,595.26c0.3-0.01,0.6-0.1,0.88-0.2c-0.16-0.15-0.31-0.28-0.54-0.5c-0.34-0.33-0.69-0.69-1.06-1.06l-1.02-1.07
			c-0.2-0.21-0.34-0.32-0.48-0.46c-0.09,0.26-0.18,0.51-0.18,0.78c0,0.7,0.22,1.28,0.72,1.78c0.4,0.4,0.85,0.65,1.37,0.72
			C42.41,595.26,42.52,595.27,42.62,595.26z M71.62,595.25c0.35,0,0.69-0.05,1-0.18c0.31-0.12,0.56-0.3,0.78-0.54h0.04
			c0.23-0.22,0.4-0.5,0.52-0.81c0.13-0.29,0.2-0.63,0.2-0.98s-0.06-0.65-0.2-0.96c-0.13-0.31-0.29-0.61-0.52-0.84
			c-0.22-0.22-0.5-0.4-0.82-0.54c-0.31-0.12-0.65-0.18-1-0.18c-0.35,0-0.65,0.06-0.96,0.18c-0.31,0.14-0.58,0.34-0.82,0.56
			c-0.22,0.23-0.43,0.51-0.56,0.82h0.02c-0.12,0.31-0.18,0.61-0.18,0.96s0.06,0.68,0.18,0.98h-0.02c0.14,0.31,0.34,0.58,0.56,0.81
			c0.24,0.24,0.51,0.41,0.82,0.54C70.97,595.2,71.28,595.25,71.62,595.25L71.62,595.25z M101.97,595.25h2.5v-2.5
			c0-0.35-0.05-0.65-0.18-0.96c-0.13-0.31-0.33-0.58-0.56-0.82c-0.22-0.22-0.47-0.42-0.78-0.56c-0.29-0.12-0.63-0.18-0.98-0.18
			c-0.34,0-0.66,0.07-0.96,0.18c-0.01,0-0.03,0-0.04,0c-0.3,0.14-0.57,0.34-0.81,0.56c-0.22,0.23-0.4,0.51-0.54,0.82
			c-0.12,0.31-0.18,0.61-0.18,0.96c0,0.35,0.06,0.68,0.18,0.98c0.14,0.31,0.31,0.58,0.54,0.81c0.24,0.24,0.5,0.41,0.81,0.54H101
			C101.31,595.2,101.62,595.25,101.97,595.25z M48.37,585.6l0.13-0.26c2.91-7.71,10.33-13.19,19.06-13.19
			c8.71,0,16.2,5.51,19.13,13.19l0.09,0.26H86.5h-2.24h-0.16l-0.04-0.13c-2.75-6.37-9.11-10.87-16.5-10.87
			c-7.4,0-13.75,4.47-16.5,10.87l-0.04,0.13h-0.16h-2.18H48.37z"/>
		<path style="fill:#F9A41E;" d="M81.31,608.12c-0.97,0-1.78-0.77-1.78-1.74s0.81-1.76,1.78-1.76c0.97,0,1.74,0.78,1.74,1.76
			S82.29,608.12,81.31,608.12z"/>
	</g>
</g>
<g transform="matrix(1.25,0,0,-1.25,-32.478687,771.24195)">
	<g transform="matrix(2.0497332,0,0,2.0497332,-32.700912,-639.82126)">
		<path style="fill:#007CC1;" d="M67.72,613.16c-8.7,0-16.15-5.54-19.07-13.23l-0.12-0.28h0.32h2.18h0.12l0.06,0.12
			c2.73,6.41,9.1,10.91,16.51,10.91c3.89,0,7.47-1.24,10.41-3.34c-0.1-0.32-0.16-0.64-0.16-1c0-1.83,1.47-3.34,3.31-3.34
			c0.35,0,0.68,0.1,1,0.2c0.76-1.06,1.42-2.2,1.94-3.42l0.06-0.12h0.13h2.21h0.32l-0.12,0.28c-0.65,1.73-1.55,3.37-2.62,4.84
			c0.26,0.47,0.46,0.99,0.46,1.56c0,1.84-1.5,3.34-3.34,3.34c-0.59,0-1.12-0.19-1.6-0.46C76.35,611.68,72.21,613.16,67.72,613.16z
			 M104.47,601.06v-0.18v-3.4h-2.5c-0.63,0-1.24-0.13-1.81-0.38c-0.01,0-0.03,0-0.04,0v-0.02c-0.55-0.23-1.04-0.59-1.46-1h-0.04
			c-0.43-0.42-0.78-0.91-1.02-1.48c-0.24-0.56-0.35-1.19-0.35-1.84c0-0.64,0.12-1.23,0.35-1.81c0.25-0.57,0.59-1.1,1.02-1.54
			c0.43-0.43,0.93-0.75,1.5-1l0.04-0.02c0.57-0.24,1.16-0.35,1.81-0.35c0.64,0,1.24,0.12,1.82,0.35h0.02v0.02
			c0.57,0.25,1.06,0.57,1.48,1c0.43,0.43,0.76,0.97,1,1.54c0.25,0.58,0.4,1.16,0.4,1.81v8.13v0.18h-0.22h-1.78H104.47L104.47,601.06
			z M33.34,597.47c-0.6,0-1.2-0.14-1.78-0.38c-0.58-0.22-1.1-0.56-1.56-1.02c-0.46-0.46-0.8-0.96-1.02-1.54
			c-0.22-0.57-0.34-1.17-0.34-1.78c0-0.6,0.12-1.21,0.34-1.78c0.22-0.57,0.56-1.1,1.02-1.56c0.46-0.46,0.99-0.79,1.56-1.02
			c0.58-0.22,1.18-0.35,1.78-0.35c0.6,0,1.19,0.13,1.76,0.35c0.59,0.24,1.13,0.57,1.59,1.02l0.6,0.62l0.16,0.16l-0.12,0.16
			l-1.26,1.24l-0.16,0.16l-0.15-0.16l-0.63-0.62c-0.24-0.25-0.5-0.44-0.81-0.56c-0.31-0.12-0.64-0.18-0.98-0.18
			c-0.7,0-1.28,0.24-1.78,0.74c-0.25,0.25-0.44,0.53-0.56,0.84c-0.12,0.31-0.18,0.62-0.18,0.94s0.06,0.66,0.18,0.98
			c0.12,0.31,0.31,0.57,0.56,0.81c0.25,0.25,0.51,0.41,0.82,0.54c0.31,0.12,0.64,0.18,0.96,0.18s0.63-0.06,0.94-0.18
			c0.31-0.12,0.59-0.29,0.84-0.54l0.63-0.62l0.15-0.16l0.16,0.16l1.26,1.24l0.12,0.16l-0.16,0.12l-0.6,0.63
			c-0.46,0.46-1,0.8-1.59,1.02C34.52,597.33,33.94,597.47,33.34,597.47z M42.75,597.47c-0.6,0-1.22-0.14-1.81-0.38
			c-0.58-0.22-1.08-0.56-1.54-1.02c-0.46-0.46-0.8-0.96-1.02-1.54c-0.22-0.57-0.34-1.18-0.34-1.78c0-0.6,0.12-1.2,0.34-1.78
			c0.22-0.58,0.56-1.1,1.02-1.56c0.45-0.45,0.96-0.79,1.54-1.02c0.57-0.24,1.18-0.35,1.81-0.35s1.21,0.12,1.78,0.35
			c0.57,0.24,1.09,0.58,1.54,1.02l0.62,0.62l0.16,0.16l-0.16,0.16l-1.24,1.24l-0.16,0.16l-0.12-0.16l-0.63-0.62
			c-0.4-0.4-0.87-0.63-1.4-0.72c-0.41-0.06-0.78,0.06-1.16,0.2l4.72,4.71l0.16,0.16l-0.16,0.12l-0.62,0.63
			c-0.46,0.46-0.97,0.8-1.56,1.02C43.93,597.33,43.35,597.47,42.75,597.47z M52.13,597.47c-0.64,0-1.24-0.13-1.82-0.38
			c-0.57-0.24-1.09-0.59-1.53-1.02c-0.42-0.42-0.75-0.91-1-1.48c-0.24-0.56-0.34-1.19-0.34-1.84v-4.5v-0.22h0.18h1.81h0.2v0.22v4.5
			c0,0.35,0.06,0.68,0.18,0.98c0.14,0.31,0.31,0.58,0.54,0.81c0.24,0.24,0.51,0.41,0.81,0.54c0.31,0.14,0.63,0.18,0.98,0.18
			c0.35,0,0.69-0.05,1-0.18c0.31-0.12,0.56-0.3,0.78-0.54l0.02-0.02c0.23-0.22,0.41-0.47,0.54-0.78c0.13-0.29,0.18-0.63,0.18-0.98
			v-4.5v-0.22h0.22h1.78h0.22v0.22v4.5c0,0.66-0.15,1.28-0.4,1.84c-0.24,0.57-0.57,1.05-1,1.48c-0.43,0.43-0.93,0.79-1.5,1.02
			C53.41,597.35,52.78,597.47,52.13,597.47z M62.25,597.47c-0.6,0-1.2-0.14-1.78-0.38c-0.58-0.22-1.1-0.56-1.56-1.02
			c-0.46-0.46-0.81-0.96-1.04-1.54c-0.22-0.57-0.34-1.17-0.34-1.78c0-0.6,0.12-1.21,0.34-1.78c0.22-0.58,0.58-1.1,1.04-1.56
			c0.46-0.46,0.99-0.79,1.56-1.02c0.58-0.22,1.18-0.35,1.78-0.35c0.6,0,1.17,0.13,1.74,0.35c0.59,0.24,1.1,0.57,1.56,1.02h0.04
			l0.59,0.62l0.16,0.16l-0.16,0.16l-1.22,1.24l-0.15,0.16l-0.16-0.16l-0.62-0.62c-0.24-0.25-0.51-0.44-0.82-0.56
			c-0.31-0.12-0.63-0.18-0.96-0.18c-0.7,0-1.28,0.24-1.78,0.74c-0.25,0.25-0.44,0.53-0.56,0.84c-0.13,0.31-0.2,0.62-0.2,0.94
			s0.07,0.66,0.2,0.98c0.12,0.31,0.28,0.57,0.52,0.81h0.04c0.25,0.25,0.5,0.41,0.81,0.54c0.31,0.12,0.65,0.18,0.98,0.18
			c0.32,0,0.61-0.06,0.93-0.18c0.31-0.12,0.6-0.29,0.85-0.54l0.62-0.62l0.16-0.16l0.15,0.16l1.22,1.24l0.16,0.16l-0.16,0.12
			l-0.59,0.63c-0.46,0.46-1.01,0.8-1.6,1.02C63.43,597.33,62.86,597.47,62.25,597.47z M71.62,597.47c-0.64,0-1.24-0.13-1.82-0.38
			c-0.57-0.24-1.05-0.59-1.49-1.02c-0.42-0.42-0.79-0.91-1.04-1.48c-0.24-0.56-0.34-1.19-0.34-1.84c0-0.64,0.1-1.23,0.34-1.81
			c0.25-0.57,0.62-1.1,1.04-1.54c0.43-0.43,0.92-0.75,1.49-1v-0.02c0.57-0.24,1.18-0.35,1.82-0.35c0.65,0,1.28,0.11,1.84,0.35v0.02
			c0.57,0.25,1.07,0.57,1.5,1c0.43,0.43,0.8,0.97,1.04,1.54c0.25,0.58,0.37,1.16,0.37,1.81c0,0.66-0.11,1.28-0.37,1.84
			c-0.24,0.57-0.6,1.06-1.04,1.48c-0.43,0.43-0.93,0.79-1.5,1.02C72.9,597.35,72.28,597.47,71.62,597.47z M79.93,597.47
			c-0.4,0-0.79-0.1-1.15-0.26c-0.35-0.14-0.66-0.33-0.92-0.59c-0.26-0.26-0.47-0.58-0.62-0.94c-0.14-0.35-0.22-0.72-0.22-1.12
			s0.08-0.77,0.22-1.13v-0.02c0.16-0.34,0.37-0.63,0.62-0.9c0.26-0.26,0.57-0.48,0.92-0.63c0.36-0.14,0.75-0.22,1.15-0.22h3.62
			c0.22,0,0.36-0.07,0.5-0.21c0.14-0.14,0.22-0.29,0.22-0.5c0-0.22-0.08-0.36-0.22-0.5c-0.14-0.14-0.28-0.22-0.5-0.22h-5.43h-0.22
			v-0.2v-1.78v-0.22h0.22h5.43c0.4,0,0.79,0.07,1.13,0.22c0.35,0.16,0.64,0.36,0.9,0.62c0.27,0.27,0.48,0.59,0.62,0.94
			c0.16,0.36,0.26,0.73,0.26,1.13s-0.1,0.77-0.26,1.12c-0.14,0.36-0.35,0.68-0.62,0.94c-0.25,0.25-0.56,0.44-0.9,0.59
			c-0.01,0.01-0.02,0.03-0.04,0.04v-0.04c-0.34,0.15-0.71,0.26-1.1,0.26h-3.62c-0.21,0-0.36,0.05-0.5,0.18
			c-0.14,0.15-0.18,0.33-0.18,0.54s0.04,0.36,0.18,0.5c0.14,0.14,0.29,0.18,0.5,0.18h5.44h0.22v0.22v1.78v0.22h-0.22H79.93
			L79.93,597.47z M87.16,597.47v-0.22v-4.5c0-0.64,0.1-1.23,0.34-1.81c0.25-0.57,0.58-1.1,1-1.54c0.43-0.43,0.97-0.75,1.54-1v-0.02
			c0.57-0.24,1.16-0.35,1.81-0.35c0.65,0,1.28,0.11,1.84,0.35v0.02c0.57,0.25,1.07,0.57,1.5,1c0.43,0.43,0.76,0.96,1,1.54
			c0.25,0.57,0.38,1.16,0.38,1.81v4.5v0.22h-0.18h-1.82h-0.18v-0.22v-4.5c0-0.35-0.08-0.66-0.22-0.96c-0.12-0.31-0.3-0.58-0.54-0.82
			c-0.22-0.22-0.47-0.42-0.78-0.56c-0.31-0.12-0.65-0.18-1-0.18c-0.34,0-0.66,0.07-0.96,0.18c-0.01,0-0.03,0-0.04,0
			c-0.29,0.14-0.55,0.34-0.78,0.56c-0.22,0.23-0.39,0.51-0.52,0.82c-0.12,0.31-0.2,0.61-0.2,0.96v4.5v0.22h-0.22h-1.78H87.16z
			 M42.62,595.26c0.3-0.01,0.6-0.1,0.88-0.2c-0.16-0.15-0.31-0.28-0.54-0.5c-0.34-0.33-0.69-0.69-1.06-1.06l-1.02-1.07
			c-0.2-0.21-0.34-0.32-0.48-0.46c-0.09,0.26-0.18,0.51-0.18,0.78c0,0.7,0.22,1.28,0.72,1.78c0.4,0.4,0.85,0.65,1.37,0.72
			C42.41,595.26,42.52,595.27,42.62,595.26z M71.62,595.25c0.35,0,0.69-0.05,1-0.18c0.31-0.12,0.56-0.3,0.78-0.54h0.04
			c0.23-0.22,0.4-0.5,0.52-0.81c0.13-0.29,0.2-0.63,0.2-0.98s-0.06-0.65-0.2-0.96c-0.13-0.31-0.29-0.61-0.52-0.84
			c-0.22-0.22-0.5-0.4-0.82-0.54c-0.31-0.12-0.65-0.18-1-0.18c-0.35,0-0.65,0.06-0.96,0.18c-0.31,0.14-0.58,0.34-0.82,0.56
			c-0.22,0.23-0.43,0.51-0.56,0.82h0.02c-0.12,0.31-0.18,0.61-0.18,0.96s0.06,0.68,0.18,0.98h-0.02c0.14,0.31,0.34,0.58,0.56,0.81
			c0.24,0.24,0.51,0.41,0.82,0.54C70.97,595.2,71.28,595.25,71.62,595.25L71.62,595.25z M101.97,595.25h2.5v-2.5
			c0-0.35-0.05-0.65-0.18-0.96c-0.13-0.31-0.33-0.58-0.56-0.82c-0.22-0.22-0.47-0.42-0.78-0.56c-0.29-0.12-0.63-0.18-0.98-0.18
			c-0.34,0-0.66,0.07-0.96,0.18c-0.01,0-0.03,0-0.04,0c-0.3,0.14-0.57,0.34-0.81,0.56c-0.22,0.23-0.4,0.51-0.54,0.82
			c-0.12,0.31-0.18,0.61-0.18,0.96c0,0.35,0.06,0.68,0.18,0.98c0.14,0.31,0.31,0.58,0.54,0.81c0.24,0.24,0.5,0.41,0.81,0.54H101
			C101.31,595.2,101.62,595.25,101.97,595.25z M48.37,585.6l0.13-0.26c2.91-7.71,10.33-13.19,19.06-13.19
			c8.71,0,16.2,5.51,19.13,13.19l0.09,0.26H86.5h-2.24h-0.16l-0.04-0.13c-2.75-6.37-9.11-10.87-16.5-10.87
			c-7.4,0-13.75,4.47-16.5,10.87l-0.04,0.13h-0.16h-2.18H48.37z"/>
		<path style="fill:#F9A41E;" d="M81.31,608.12c-0.97,0-1.78-0.77-1.78-1.74s0.81-1.76,1.78-1.76c0.97,0,1.74,0.78,1.74,1.76
			S82.29,608.12,81.31,608.12z"/>
	</g>
</g>
</svg>
