<?xml version="1.0"?>
<svg xmlns="http://www.w3.org/2000/svg" xmlns:xlink="http://www.w3.org/1999/xlink" xmlns:svgjs="http://svgjs.com/svgjs" version="1.1" width="512" height="512" x="0" y="0" viewBox="0 0 512 512" style="enable-background:new 0 0 512 512" xml:space="preserve" class=""><g><g xmlns="http://www.w3.org/2000/svg"><g><g><g id="XMLID_1463_"><g id="XMLID_1464_"><g id="XMLID_1465_"><g id="XMLID_1466_"><g id="XMLID_1467_"><g id="XMLID_1468_"><g id="XMLID_1469_"><g id="XMLID_1470_"><g id="XMLID_1523_"><g id="XMLID_1524_"><g id="XMLID_1525_"><g id="XMLID_1526_"><g id="XMLID_1527_"><g id="XMLID_1528_"><g id="XMLID_1529_"><circle cx="256" cy="256" fill="#f1f1f1" r="256" data-original="#e5e1dc" style="" class=""/></g></g></g></g></g></g></g></g></g></g></g></g></g></g></g></g></g><path d="m512 256c0-41.412-9.845-80.52-27.304-115.132l-84.307-84.307-356.706 211.8 49.71 47.643 6.34 48.163 147.675 147.675c2.854.094 5.715.159 8.592.159 141.385-.001 256-114.616 256-256.001z" fill="#f1f1f1" data-original="#c6c1ba" style="" class=""/><g><path d="m265.49 262.438h51.765v215.224h-51.765z" fill="#655665" data-original="#655665" style=""/><path d="m291.67 262.44h25.59v215.22h-25.59z" fill="#4b3b4c" data-original="#4b3b4c" style="" class=""/><g><path d="m335.448 107.097h-193.085v161.264h258.379v-95.97c0-36.061-29.233-65.294-65.294-65.294z" fill="#f9764e" data-original="#f9764e" style="" class=""/><path d="m400.74 172.39v95.97h-109.07v-161.26h43.78c36.06 0 65.29 29.23 65.29 65.29z" fill="#e84d2a" data-original="#e84d2a" style=""/><path d="m288.629 56.561h111.76v55.842h-111.76z" fill="#4b3b4c" data-original="#4b3b4c" style="" class=""/><path d="m270.644 56.561h40.75v102.814h-40.75z" fill="#5dcdf7" data-original="#5dcdf7" style=""/><path d="m291.67 56.56h19.72v102.81h-19.72z" fill="#31a8dd" data-original="#31a8dd" style=""/><path d="m207.657 268.361h-130.588v-95.97c0-36.061 29.233-65.294 65.294-65.294 36.061 0 65.294 29.233 65.294 65.294z" fill="#655665" data-original="#655665" style=""/></g><path d="m142.363 380.026c-36.061 0-65.294-29.233-65.294-65.294v-46.372h130.588v46.372c0 36.061-29.233 65.294-65.294 65.294z" fill="#f9764e" data-original="#f9764e" style="" class=""/><ellipse cx="291.667" cy="182.236" fill="#fcd144" rx="36.667" ry="36.667" transform="matrix(.707 -.707 .707 .707 -43.433 259.615)" data-original="#fcd144" style="" class=""/><path d="m328.33 182.24c0 20.25-16.41 36.66-36.66 36.66v-73.33c7.26 0 14.03 2.11 19.72 5.75 10.19 6.52 16.94 17.93 16.94 30.92z" fill="#f4b911" data-original="#f4b911" style=""/><g><path d="m43.683 173.245h163.974v95.116h-163.974z" fill="#fcd144" data-original="#fcd144" style="" class=""/><path d="m125.672 173.246h81.985v95.114h-81.985z" fill="#f4b911" data-original="#f4b911" style=""/><path d="m43.683 268.361 81.987-57.318 81.987 57.318z" fill="#f4b911" data-original="#f4b911" style=""/><path d="m207.657 268.359h-81.985v-57.317l17.608 12.31z" fill="#e2a100" data-original="#e2a100" style="" class=""/><path d="m43.683 173.245 81.987 63.816 81.987-63.816z" fill="#ffe4a9" data-original="#ffe4a9" style="" class=""/><g><path d="m207.657 173.246-64.377 50.106-17.608 13.709v-63.815z" fill="#ffd788" data-original="#ffd788" style=""/></g></g></g></g></g></svg>
