<?xml version="1.0"?>
<svg xmlns="http://www.w3.org/2000/svg" xmlns:xlink="http://www.w3.org/1999/xlink" xmlns:svgjs="http://svgjs.com/svgjs" version="1.1" width="512" height="512" x="0" y="0" viewBox="0 0 512 512" style="enable-background:new 0 0 512 512" xml:space="preserve" class=""><g><circle xmlns="http://www.w3.org/2000/svg" cx="256" cy="256" fill="#f1f1f1" r="256" data-original="#fcd748" style="" class=""/><path xmlns="http://www.w3.org/2000/svg" d="m256 512c141.385 0 256-114.615 256-256 0-.574-.018-1.145-.022-1.718l-86.006-86.005-30.642 52.387-89.663-89.664.53 1.705-73.614-73.614 4.214 61.178-64.049-64.049 69.817 147.774-169.565 125.006z" fill="#f1f1f1" data-original="#fabf40" style="" class=""/><g xmlns="http://www.w3.org/2000/svg" fill="#969696"><path d="m139.733 88.432h93.736v29.999h-93.736z" transform="matrix(-.561 -.828 .828 -.561 205.539 315.939)" fill="#969696" data-original="#969696" style=""/><path d="m199.561 91.296h93.736v29.999h-93.736z" transform="matrix(-.561 -.828 .828 -.561 296.531 369.954)" fill="#969696" data-original="#969696" style=""/></g><path xmlns="http://www.w3.org/2000/svg" d="m285.125 136.717-29.554-43.663v53.521l4.71 6.958z" fill="#878787" data-original="#878787" style=""/><path xmlns="http://www.w3.org/2000/svg" d="m163 131h142.67v26.667h-142.67z" fill="#595959" data-original="#595959" style=""/><path xmlns="http://www.w3.org/2000/svg" d="m255.57 131h50.09v26.667h-50.09z" fill="#303030" data-original="#303030" style=""/><path xmlns="http://www.w3.org/2000/svg" d="m439 329h-366v-128.497c0-25.636 20.782-46.418 46.418-46.418h273.163c25.636 0 46.418 20.782 46.418 46.418v128.497z" fill="#ec5353" data-original="#ec5353" style="" class=""/><path xmlns="http://www.w3.org/2000/svg" d="m439 200.503c0-25.636-20.782-46.418-46.418-46.418h-137.606v174.915h184.024z" fill="#d13135" data-original="#d13135" style=""/><circle xmlns="http://www.w3.org/2000/svg" cx="374.85" cy="330.09" fill="#303030" r="41.509" data-original="#303030" style=""/><g xmlns="http://www.w3.org/2000/svg" fill="#595959"><circle cx="374.85" cy="330.09" r="18.887" fill="#595959" data-original="#595959" style=""/><circle cx="137.15" cy="330.09" r="41.509" fill="#595959" data-original="#595959" style=""/></g><circle xmlns="http://www.w3.org/2000/svg" cx="137.15" cy="330.09" fill="#969696" r="18.887" data-original="#969696" style=""/><path xmlns="http://www.w3.org/2000/svg" d="m393.74 202.5h45.26v68h-45.26z" fill="#92cbf7" data-original="#92cbf7" style=""/><path xmlns="http://www.w3.org/2000/svg" d="m110 202.5h256.5v68h-256.5z" fill="#bcdefa" data-original="#bcdefa" style="" class=""/><path xmlns="http://www.w3.org/2000/svg" d="m255.57 202.5h110.93v68h-110.93z" fill="#92cbf7" data-original="#92cbf7" style=""/></g></svg>
