<?xml version="1.0"?>
<svg xmlns="http://www.w3.org/2000/svg" xmlns:xlink="http://www.w3.org/1999/xlink" xmlns:svgjs="http://svgjs.com/svgjs" version="1.1" width="512" height="512" x="0" y="0" viewBox="0 0 512 512" style="enable-background:new 0 0 512 512" xml:space="preserve" class=""><g>
<circle xmlns="http://www.w3.org/2000/svg" style="" cx="256" cy="256" r="256" fill="#f1f1f1" data-original="#324a5e" class=""/>
<path xmlns="http://www.w3.org/2000/svg" style="" d="M278.58,510.997c103.026-9.006,188.556-79.022,220.239-173.725L396.498,234.951l-62.347-23.199  l-218.65,23.199l104.414,104.414L154.1,386.517L278.58,510.997z" fill="#f1f1f1" data-original="#2b3b4e" class=""/>
<rect xmlns="http://www.w3.org/2000/svg" x="154.1" y="208.196" style="" width="203.8" height="178.321" fill="#ffd15d" data-original="#ffd15d"/>
<g xmlns="http://www.w3.org/2000/svg">
	<rect x="256" y="208.196" style="" width="101.9" height="178.321" fill="#f9b54c" data-original="#f9b54c" class=""/>
	<polygon style="" points="115.502,234.951 256,94.453 396.498,234.951  " fill="#f9b54c" data-original="#f9b54c" class=""/>
</g>
<polygon xmlns="http://www.w3.org/2000/svg" style="" points="256,94.453 256,234.951 396.498,234.951 " fill="#f4a200" data-original="#f4a200"/>
<rect xmlns="http://www.w3.org/2000/svg" x="246.513" y="235.41" transform="matrix(-0.7072 -0.7071 0.7071 -0.7072 220.799 703.0696)" style="" width="18.964" height="140.8" fill="#fc6f58" data-original="#fc6f58"/>
<polygon xmlns="http://www.w3.org/2000/svg" style="" points="299.073,249.296 256,292.369 256,319.185 312.482,262.704 " fill="#f1543f" data-original="#f1543f"/>
<path xmlns="http://www.w3.org/2000/svg" style="" d="M220.444,293.926c-13.071,0-23.704-10.633-23.704-23.704c0-13.071,10.633-23.704,23.704-23.704  c13.071,0,23.704,10.633,23.704,23.704C244.148,283.293,233.515,293.926,220.444,293.926z M220.444,265.481  c-2.613,0-4.741,2.126-4.741,4.741c0,2.615,2.127,4.741,4.741,4.741s4.741-2.126,4.741-4.741  C225.185,267.607,223.058,265.481,220.444,265.481z" fill="#fc6f58" data-original="#fc6f58"/>
<path xmlns="http://www.w3.org/2000/svg" style="" d="M291.556,365.037c-13.071,0-23.704-10.633-23.704-23.704c0-13.071,10.633-23.704,23.704-23.704  s23.704,10.633,23.704,23.704C315.259,354.404,304.626,365.037,291.556,365.037z M291.556,336.593c-2.613,0-4.741,2.126-4.741,4.741  c0,2.615,2.127,4.741,4.741,4.741c2.613,0,4.741-2.126,4.741-4.741C296.296,338.718,294.169,336.593,291.556,336.593z" fill="#f1543f" data-original="#f1543f"/>
<g xmlns="http://www.w3.org/2000/svg">
</g>
<g xmlns="http://www.w3.org/2000/svg">
</g>
<g xmlns="http://www.w3.org/2000/svg">
</g>
<g xmlns="http://www.w3.org/2000/svg">
</g>
<g xmlns="http://www.w3.org/2000/svg">
</g>
<g xmlns="http://www.w3.org/2000/svg">
</g>
<g xmlns="http://www.w3.org/2000/svg">
</g>
<g xmlns="http://www.w3.org/2000/svg">
</g>
<g xmlns="http://www.w3.org/2000/svg">
</g>
<g xmlns="http://www.w3.org/2000/svg">
</g>
<g xmlns="http://www.w3.org/2000/svg">
</g>
<g xmlns="http://www.w3.org/2000/svg">
</g>
<g xmlns="http://www.w3.org/2000/svg">
</g>
<g xmlns="http://www.w3.org/2000/svg">
</g>
<g xmlns="http://www.w3.org/2000/svg">
</g>
</g></svg>
