<?xml version="1.0"?>
<svg xmlns="http://www.w3.org/2000/svg" xmlns:xlink="http://www.w3.org/1999/xlink" xmlns:svgjs="http://svgjs.com/svgjs" version="1.1" width="512" height="512" x="0" y="0" viewBox="0 0 512 512" style="enable-background:new 0 0 512 512" xml:space="preserve" class=""><g><path xmlns="http://www.w3.org/2000/svg" d="m512 256c0 141.386719-114.613281 256-256 256s-256-114.613281-256-256 114.613281-256 256-256 256 114.613281 256 256zm0 0" fill="#f1f1f1" data-original="#ffd237" style="" class=""/><path xmlns="http://www.w3.org/2000/svg" d="m512 256c0-3.265625-.082031-6.511719-.203125-9.746094l-161.042969-161.042968-164.273437 164.269531 33.515625 33.515625-125.765625 125.765625 94.210937 94.210937c21.523438 5.875 44.171875 9.027344 67.558594 9.027344 141.386719 0 256-114.613281 256-256zm0 0" fill="#f1f1f1" data-original="#ffb037" style="" class=""/><path xmlns="http://www.w3.org/2000/svg" d="m256 341.171875v-180.128906h-161.800781v123.246093zm0 0" fill="#ff4b37" data-original="#ff4b37" style="" class=""/><path xmlns="http://www.w3.org/2000/svg" d="m417.800781 284.289062v-123.246093h-161.800781v180.128906zm0 0" fill="#ff0021" data-original="#ff0021" style=""/><path xmlns="http://www.w3.org/2000/svg" d="m94.199219 361.398438v47.402343h104.285156l18.960937-66.363281zm0 0" fill="#995149" data-original="#995149" style=""/><path xmlns="http://www.w3.org/2000/svg" d="m313.515625 408.800781h104.285156v-47.402343l-123.246093-18.960938zm0 0" fill="#751f17" data-original="#751f17" style="" class=""/><path xmlns="http://www.w3.org/2000/svg" d="m350.804688 85.199219h-94.804688l-85.324219 218.050781h180.128907zm0 0" fill="#ffe17a" data-original="#ffe17a" style=""/><path xmlns="http://www.w3.org/2000/svg" d="m161.195312 85.199219h94.804688v218.050781h-94.804688zm0 0" fill="#fff0bc" data-original="#fff0bc" style=""/><path xmlns="http://www.w3.org/2000/svg" d="m256 113.640625h-19.59375c-26.136719 0-47.402344 21.265625-47.402344 47.402344v9.480469l85.957032 18.960937zm0 0" fill="#ff9037" data-original="#ff9037" style=""/><path xmlns="http://www.w3.org/2000/svg" d="m322.996094 170.523438v-9.476563c0-26.140625-21.265625-47.402344-47.402344-47.402344h-19.59375v75.839844zm0 0" fill="#ff6e37" data-original="#ff6e37" style=""/><path xmlns="http://www.w3.org/2000/svg" d="m256 255.847656h66.996094v-28.441406l-85.957032-18.960938zm0 0" fill="#ff9037" data-original="#ff9037" style=""/><path xmlns="http://www.w3.org/2000/svg" d="m189.003906 227.40625v28.441406h66.996094v-47.402344zm0 0" fill="#f1f1f1" data-original="#ffb037" style="" class=""/><path xmlns="http://www.w3.org/2000/svg" d="m256 170.523438h66.996094v18.960937l-85.957032 28.441406zm0 0" fill="#88d652" data-original="#88d652" style=""/><path xmlns="http://www.w3.org/2000/svg" d="m189.003906 189.484375v-18.960937h66.996094v47.402343zm0 0" fill="#a5ed73" data-original="#a5ed73" style=""/><path xmlns="http://www.w3.org/2000/svg" d="m256 189.484375-18.960938 18.960937 18.960938 18.960938h66.996094v-37.921875zm0 0" fill="#751f17" data-original="#751f17" style="" class=""/><path xmlns="http://www.w3.org/2000/svg" d="m189.003906 189.484375h66.996094v37.921875h-66.996094zm0 0" fill="#995149" data-original="#995149" style=""/><path xmlns="http://www.w3.org/2000/svg" d="m198.484375 284.289062h-104.285156v77.109376h161.800781zm0 0" fill="#aae8fd" data-original="#aae8fd" style=""/><path xmlns="http://www.w3.org/2000/svg" d="m313.515625 284.289062-57.515625 77.109376h161.800781v-77.109376zm0 0" fill="#5cd4ff" data-original="#5cd4ff" style=""/><path xmlns="http://www.w3.org/2000/svg" d="m313.515625 284.289062h-57.515625l-28.441406 62.253907 28.441406 62.257812h57.515625zm0 0" fill="#00b8fa" data-original="#00b8fa" style=""/><path xmlns="http://www.w3.org/2000/svg" d="m198.484375 284.289062h57.515625v124.511719h-57.515625zm0 0" fill="#5cd4ff" data-original="#5cd4ff" style=""/></g></svg>
