<svg xmlns="http://www.w3.org/2000/svg" viewBox="0 0 1095.839 300"><path d="M1095.839 242.711a24.221 24.221 0 0 1-24.182 24.261H24.196A24.229 24.229 0 0 1 0 242.711v-23.973c0 .23 1095.839 0 1095.839 0z" fill="#f03"/><path d="M1071.657 33.028H24.195A24.235 24.235 0 0 0-.001 57.296v161.439h1095.839V57.296a24.223 24.223 0 0 0-24.182-24.268" fill="#004890"/><path d="M173.424 114.196V66.422h-55.169v20.725H99.456v8.623l-4.355-.18a57.474 57.474 0 0 0-57.375 57.433c0 18.562 10.442 36.018 27.94 46.725l2.774 1.696v38.123h104.962v-20.833h32.115v-72.373l-32.094-32.166" fill="#fff"/><path d="M156.295 193.132h8.645v-17.017h-8.645zm-36.722 29.076h-33.84v-25.396h33.84zm45.245-104.445V75.04h-37.965v20.718H108.04v10.183a48.827 48.827 0 0 0-61.716 47.077c0 16.586 10.125 31.002 23.822 39.374l30.542-48.155h42.485a48.858 48.858 0 0 0-26.417-34.968v-4.772h18.792V83.764h20.553v69.218h32.123v48.399h-32.122v20.826h-27.825v-25.734l27.825-43.491h-50.634l-28.443 44.842v33.121h87.787v-20.819h32.115v-60.192z" fill="#004890"/><path d="M1051.611 156.188c0-31.849-16.787-46.107-33.423-46.107-12.49 0-36.111 9.967-36.111 47.681 0 44.993 32.834 46.294 36.571 46.294 14.157 0 24.555-8.358 30.786-15.364l.697-.79-3.306-6.963-1.552 1.135c-.086.072-8.451 6.202-16.996 6.202-16.018 0-19.482-11.196-19.662-30.491h42.995zm-42.995-10.391c.201-20.431 3.996-24.62 10.478-24.62 8.2 0 9.105 10.154 9.134 24.62zm-33.243 48.104c-3.687 0-6.245-3.888-6.245-7.395V72.784h-38.633v7.711h5.426c2.134 0 7.366 2.106 7.366 6.022v31.519a25.738 25.738 0 0 0-18.584-7.955c-13.108 0-33.89 13.187-33.89 48.558 0 35.759 20.704 45.209 31.663 45.209 10.212 0 16.5-3.787 20.351-8.02v5.325h34.135v-7.251zm-32.309-58.266v43.455c0 2.76-7.768 10.779-12.087 10.779-10.348 0-12.526-16.866-12.526-30.994 0-30.074 6.561-34.12 12.971-34.12 6.439 0 11.002 9.479 11.642 10.88m-57.585 57.798c-2.271 0-6.482-1.998-6.482-5.806v-74.608h-26.525v74.399c0 3.751-3.701 6.245-7.143 6.245h-1.61v7.704h43.362v-7.934zm-67.301-80.197v7.028h1.61c1.811 0 4.269.697 5.418 2.199a3.24 3.24 0 0 1 .632 1.969 5.092 5.092 0 0 1-.216 1.409c-1.179 4.211-8.185 25.073-11.476 34.839l-8.961-35.184a5.548 5.548 0 0 1-.144-1.2 3.381 3.381 0 0 1 .719-2.185c.949-1.193 2.896-1.847 5.498-1.847h1.588v-7.251h-41.522v7.459h1.581c1.739 0 4.707.359 5.44 2.702l3.643 11.62-10.125 27.035-12.253-34.307a9.756 9.756 0 0 1-.726-3.349 3.681 3.681 0 0 1 .582-2.149 5.052 5.052 0 0 1 4.269-1.761h1.595v-7.481h-39.51v6.978l1.028.41c.841.309 3.227 1.502 4.089 3.069 1.064 2.106 17.958 48.593 29.04 79.322l.381 1.056h8.968l18.037-50.024 15.314 50.024h8.609l26.359-75.218c2.098-5.864 4.125-8.365 6.798-8.365h1.603v-6.798zm-90.987 80.197c-5.009 0-6.022-2.055-6.022-5.124v-50.771c0-13.101-8.35-26.999-23.815-26.999-10.427 0-18.145 3.543-23.715 10.363v-7.905h-34.81v7.474h3.845c.043.007 4.657.826 4.657 4.944v61.536c0 4.276-3.881 6.611-7.51 6.963l-1.444.144v7.093h43.764V193.9h-1.595a6.742 6.742 0 0 1-6.683-6.949v-50.548c0-2.702 6.252-10.535 12.303-10.535 5.339 0 8.041 3.766 8.041 11.203v51.461c0 2.062-3.744 5.131-6.266 5.131h-1.595v7.488h42.449v-7.718zm-133.41-83.116c-19.087 0-39.697 17.793-39.697 46.531 0 37.174 26.266 46.998 40.157 46.998 15.652 0 38.791-14.15 38.791-44.526 0-27.933-16.859-49.003-39.251-49.003m11.649 49.233c0 32.769-8.013 32.769-11.412 32.769-4.901 0-12.296 0-12.296-33.445 0-34.185 6.223-37.038 12.059-37.038 5.426 0 11.649 4.276 11.649 37.713m-57.599 33.883c-2.256 0-6.468-1.998-6.468-5.806v-74.608h-26.524v74.392c0 3.758-3.694 6.252-7.136 6.252h-1.61v7.704h43.34v-7.934zm-46.616-69.601v-10.815h-15.896V81.993h-6.518l-.697 1.092c-5.332 8.322-15.264 23.808-26.948 32.475l-.647.474v8.041h8.738v59.301c0 13.129 9.601 19.999 19.087 19.999 8.422 0 14.078-1.538 19.892-9.637l.309-.41v-7.395l-2.314 1.171a7.987 7.987 0 0 1-7.704-.496 6.164 6.164 0 0 1-3.198-5.059v-57.72zm-58.178 64.801a2.289 2.289 0 0 1-2.501.28c-1.229-.438-2.537-1.588-2.537-2.846v-51.238c0-14.38-14.243-24.067-35.428-24.067-18.577 0-28.077 6.777-32.079 10.808l-.46.474v26.532h7.129l.273-1.265c4.98-23.003 17.951-25.166 23.305-25.023 4.599.122 11.426 4.211 11.426 9.615v12.54c-30.427 8.544-45.295 21.408-45.295 39.373 0 12.245 8.846 20.481 22.019 20.481 8.465 0 16.413-3.212 24.232-9.5 1.667 5.26 7.696 9.256 15.206 9.256 6.892 0 13.007-3.356 17.24-9.457l.295-.395v-9.004zm-41.141-1.035c-2.745 0-7.373-2.264-7.373-10.758 0-8.394 7.546-16.686 17.412-19.892v23.916c-2.494 4.671-7.811 6.734-10.039 6.734M321.602 72.783v8.149h5.641c3.227 0 8.013 3.579 8.013 8.516v56.628l-53.171-73.494h-38.288v7.452h2.875l9.22 10.909v95.117c0 6.841-8.544 7.373-11.175 7.373h-1.595v7.718h43.11v-7.955h-4.312c-4.441 0-9.579-4.297-9.579-7.136v-75.822l70.224 94.492h8.904V89.448c0-5.806 3.126-8.516 9.838-8.516h1.595v-8.149zm206.304-1.769a15.052 15.052 0 1 0 15.026 15.048 15.049 15.049 0 0 0-15.026-15.048m337.634 0a15.052 15.052 0 1 0 15.019 15.048 15.057 15.057 0 0 0-15.019-15.048" fill="#fff"/></svg>