<?xml version="1.0"?>
<svg xmlns="http://www.w3.org/2000/svg" xmlns:xlink="http://www.w3.org/1999/xlink" xmlns:svgjs="http://svgjs.com/svgjs" version="1.1" width="512" height="512" x="0" y="0" viewBox="0 0 512 512" style="enable-background:new 0 0 512 512" xml:space="preserve" class=""><g><path xmlns="http://www.w3.org/2000/svg" d="m512 256c0 141.386719-114.613281 256-256 256s-256-114.613281-256-256 114.613281-256 256-256 256 114.613281 256 256zm0 0" fill="#f1f1f1" data-original="#ffce00" style="" class=""/><path xmlns="http://www.w3.org/2000/svg" d="m512 256c0-41-9.65625-79.742188-26.789062-114.097656l-64.902344-64.902344-386.628906 52 201.476562 201.476562-143.464844 104.523438 50.210938 50.210938c34.355468 17.132812 73.097656 26.789062 114.097656 26.789062 141.386719 0 256-114.613281 256-256zm0 0" fill="#f1f1f1" data-original="#ffa300" style="" class=""/><path xmlns="http://www.w3.org/2000/svg" d="m91.691406 155.683594h328.617188v279.316406h-328.617188zm0 0" fill="#805142" data-original="#805142" style="" class=""/><path xmlns="http://www.w3.org/2000/svg" d="m256 155.683594h164.308594v279.316406h-164.308594zm0 0" fill="#704639" data-original="#704639" style="" class=""/><path xmlns="http://www.w3.org/2000/svg" d="m33.679688 129h386.628906v-52h-347.300782c-15.203124 15.542969-28.453124 33.003906-39.328124 52zm0 0" fill="#805142" data-original="#805142" style="" class=""/><path xmlns="http://www.w3.org/2000/svg" d="m256 77h164.308594v52h-164.308594zm0 0" fill="#704639" data-original="#704639" style="" class=""/><path xmlns="http://www.w3.org/2000/svg" d="m117 111h34v86h-34zm0 0" fill="#966857" data-original="#966857" style=""/><path xmlns="http://www.w3.org/2000/svg" d="m361 111h34v86h-34zm0 0" fill="#805142" data-original="#805142" style="" class=""/><path xmlns="http://www.w3.org/2000/svg" d="m315.960938 421.105469c-40.175782 0-72.859376-32.683594-72.859376-72.855469v-40.40625h25.792969v40.40625c0 25.949219 21.113281 47.0625 47.066407 47.0625zm0 0" fill="#4ef45a" data-original="#4ef45a" style=""/><path xmlns="http://www.w3.org/2000/svg" d="m268.898438 348.25v-40.40625h-12.898438v81.726562c13.15625 19.035157 35.121094 31.535157 59.960938 31.535157v-25.792969c-25.953126 0-47.0625-21.113281-47.0625-47.0625zm0 0" fill="#37d34a" data-original="#37d34a" style="" class=""/><path xmlns="http://www.w3.org/2000/svg" d="m309.390625 185.273438-5.136719-5.136719c-10.800781-10.796875-29.085937-7.3125-35.15625 6.703125l-13.097656 30.246094-13.097656-30.246094c-6.070313-14.015625-24.355469-17.5-35.160156-6.703125l-5.132813 5.136719c-4.59375 4.59375-6.265625 11.355468-4.347656 17.5625l3.558593 11.496093-11.496093-3.558593c-6.207031-1.917969-12.96875-.246094-17.5625 4.347656l-5.136719 5.136718c-10.800781 10.796876-7.3125 29.085938 6.703125 35.15625l30.246094 13.097657-30.246094 13.097656c-14.015625 6.070313-17.503906 24.359375-6.703125 35.160156l5.136719 5.132813c4.59375 4.59375 11.351562 6.269531 17.5625 4.347656l11.496093-3.558594-3.558593 11.496094c-1.917969 6.207031-.246094 12.96875 4.347656 17.566406l5.132813 5.132813c10.800781 10.800781 29.089843 7.3125 35.160156-6.703125l13.097656-30.25 13.097656 30.246094c6.070313 14.015624 24.355469 17.503906 35.160156 6.703124l5.132813-5.132812c4.59375-4.597656 6.265625-11.355469 4.347656-17.5625l-3.558593-11.5 11.496093 3.558594c6.207031 1.921875 12.96875.246094 17.5625-4.347656l5.136719-5.132813c10.800781-10.800781 7.3125-29.089844-6.703125-35.160156l-30.246094-13.097657 30.246094-13.097656c14.015625-6.066406 17.503906-24.355468 6.703125-35.15625l-5.136719-5.136718c-4.59375-4.59375-11.351562-6.265626-17.5625-4.34375l-11.496093 3.554687 3.558593-11.496094c1.917969-6.203125.246094-12.964843-4.347656-17.558593zm0 0" fill="#37d34a" data-original="#37d34a" style="" class=""/><path xmlns="http://www.w3.org/2000/svg" d="m337.671875 281.609375-30.25-13.097656 30.25-13.097657c14.015625-6.070312 17.5-24.359374 6.699219-35.160156l-5.132813-5.132812c-4.59375-4.59375-11.355469-6.269532-17.5625-4.347656l-11.5 3.558593 3.558594-11.496093c1.921875-6.207032.25-12.96875-4.347656-17.566407l-5.132813-5.132812c-10.800781-10.800781-29.089844-7.3125-35.15625 6.703125l-13.097656 30.246094v102.847656l13.097656 30.246094c6.070313 14.015624 24.355469 17.503906 35.160156 6.703124l5.132813-5.132812c4.59375-4.597656 6.265625-11.355469 4.347656-17.5625l-3.558593-11.5 11.496093 3.558594c6.207031 1.921875 12.96875.246094 17.5625-4.347656l5.136719-5.132813c10.796875-10.800781 7.3125-29.085937-6.703125-35.15625zm0 0" fill="#24b532" data-original="#24b532" style="" class=""/><path xmlns="http://www.w3.org/2000/svg" d="m304.648438 238.101562-18.242188-18.238281-30.40625 30.410157-30.410156-30.410157-18.238282 18.238281 30.410157 30.410157-30.410157 30.40625 18.238282 18.238281 30.410156-30.40625 30.40625 30.40625 18.242188-18.238281-30.410157-30.40625zm0 0" fill="#4ef45a" data-original="#4ef45a" style=""/><path xmlns="http://www.w3.org/2000/svg" d="m304.648438 238.101562-18.242188-18.238281-30.40625 30.410157v36.476562l30.40625 30.40625 18.242188-18.238281-30.410157-30.40625zm0 0" fill="#37d34a" data-original="#37d34a" style="" class=""/></g></svg>
