<?xml version="1.0" encoding="utf-8"?>
<svg version="1.1" id="Layer_1" xmlns="http://www.w3.org/2000/svg" xmlns:xlink="http://www.w3.org/1999/xlink" x="0px" y="0px"
	 viewBox="0 0 136.47 29.53" style="enable-background:new 0 0 136.47 29.53;" xml:space="preserve">
<g>
	<rect x="84.77" y="1.21" style="fill:#439539;" width="4.98" height="27.6"/>
	<path style="fill:#439539;" d="M98.24,8.31v20.5h5V8.31H98.24z"/>
	<path style="fill:#439539;" d="M119.13,23.25c-1.65,3.2-3,5.64-3,5.64h-5.18l5.26-10.37l-6.15-10.11h5.4l3.17,5.28l2.66-5.28h5.41
		c0,0-2.54,5.08-5.14,10.18l6.22,10.35h-5.18L119.13,23.25z"/>
	<path style="fill:#439539;" d="M29.24,19.95V8.31h4.71c0.11,3.79,0,8.1,0,11.69c-0.02,2.49,1.95,4.53,4.44,4.59
		c2.38,0.07,4.37-1.8,4.44-4.18c0-0.04,0-0.08,0-0.12v-12h4.79c0,6.06-0.06,7.26,0,11.81c0.11,5.07-3.91,9.28-8.98,9.39
		c-5.07,0.11-9.28-3.91-9.39-8.98c0-0.19,0-0.39,0.01-0.58L29.24,19.95z"/>
	<path style="fill:#439539;" d="M66.44,7.79c-2.16,0.04-4.25,0.74-6,2V1.17h-5V18.3c-0.01,6.11,4.89,11.11,11,11.22
		c6,0.18,11.01-4.53,11.19-10.54c0.18-6-4.53-11.01-10.54-11.19C66.88,7.78,66.66,7.78,66.44,7.79z M66.44,24.42
		c-3.18,0.01-5.75-2.56-5.76-5.74c-0.01-3.18,2.56-5.75,5.74-5.76s5.75,2.56,5.76,5.74c0,0,0,0.01,0,0.01
		c0.01,3.17-2.56,5.74-5.73,5.75c-0.01,0-0.03,0-0.04,0L66.44,24.42z"/>
	<path style="fill:#439539;" d="M10.86,0.41C4.96,0.32,0.1,5.03,0,10.93c0,0.05,0,0.09,0,0.14v17.77h5v-8.32
		c5.09,3.21,11.81,1.69,15.02-3.4s1.69-11.81-3.4-15.02C14.9,1.01,12.9,0.43,10.86,0.41L10.86,0.41z M10.86,17
		c-3.16-0.01-5.72-2.57-5.71-5.73c0.01-3.16,2.57-5.72,5.73-5.71c3.16,0.01,5.71,2.56,5.71,5.72c0,3.16-2.56,5.72-5.72,5.72
		c-0.01,0-0.02,0-0.03,0H10.86z"/>
	<path style="fill:#439539;" d="M100.97,6.16c1.7-0.01,3.08-1.39,3.07-3.09s-1.39-3.08-3.09-3.07c-1.7,0.01-3.07,1.38-3.07,3.08
		c0,1.7,1.38,3.08,3.08,3.08C100.96,6.16,100.97,6.16,100.97,6.16z"/>
	<path style="fill:#439539;" d="M134.41,26.6c0.42-0.03,0.73-0.38,0.71-0.8c0-0.51-0.25-0.78-0.89-0.78h-1.08v2.81h0.35V26.6h0.51
		l0.84,1.23h0.4L134.41,26.6z M133.96,26.28h-0.46v-0.95h0.63c0.31,0,0.63,0.11,0.63,0.47S134.34,26.28,133.96,26.28L133.96,26.28z
		 M134.41,26.6c0.42-0.03,0.73-0.38,0.71-0.8c0-0.51-0.25-0.78-0.89-0.78h-1.08v2.81h0.35V26.6h0.51l0.84,1.23h0.4L134.41,26.6z
		 M133.96,26.28h-0.46v-0.95h0.63c0.31,0,0.63,0.11,0.63,0.47S134.34,26.28,133.96,26.28L133.96,26.28z M134.03,24
		c-1.35,0-2.44,1.09-2.44,2.44s1.09,2.44,2.44,2.44c1.35,0,2.44-1.09,2.44-2.44S135.38,24,134.03,24L134.03,24L134.03,24z
		 M134.03,28.52c-1.15,0-2.09-0.94-2.09-2.09c0-1.15,0.94-2.09,2.09-2.09c1.15,0,2.09,0.94,2.09,2.09c0,0,0,0.01,0,0.01
		c0,1.15-0.93,2.08-2.08,2.08C134.04,28.52,134.03,28.52,134.03,28.52L134.03,28.52z M135.12,25.8c0-0.51-0.25-0.78-0.89-0.78h-1.08
		v2.81h0.35V26.6h0.51l0.84,1.23h0.4l-0.84-1.23C134.83,26.57,135.14,26.22,135.12,25.8L135.12,25.8z M133.96,26.28h-0.46v-0.95
		h0.63c0.31,0,0.63,0.11,0.63,0.47S134.34,26.28,133.96,26.28L133.96,26.28z"/>
</g>
</svg>
