<?xml version="1.0" encoding="utf-8"?>
<svg version="1.1" id="Layer_1" xmlns="http://www.w3.org/2000/svg" xmlns:xlink="http://www.w3.org/1999/xlink" x="0px" y="0px"
	width="100px" height="100px" viewBox="0 0 70.7 72.2" style="enable-background:new 0 0 70.7 72.2;" xml:space="preserve">
<g>
	<path style="fill:#010101;" d="M35.4,0L35.4,0c19.7,0,35.4,15.9,35.4,35.7v0.7c0,19.7-15.7,35.7-35.4,35.7l0,0
		C15.7,72.2,0,56.2,0,36.5v-0.8C0,15.9,15.7,0,35.4,0L35.4,0z"/>
	<path style="fill:#FFFFFF;" d="M18.5,34.6c-0.4-1.2-1.1-2.2-2.1-2.5c-0.6-0.2-1.8-0.3-2.6-0.1L13.7,32v-3.1h-2.9v10.4l0.6,0.2
		c1,0.3,1.7,0.4,2.7,0.4c0.8,0,1.2,0,1.5-0.1c1.5-0.4,2.5-1.3,2.8-2.7C18.7,36.5,18.7,35.1,18.5,34.6L18.5,34.6z M15.4,37.4
		c-0.1,0.1-0.4,0.3-0.6,0.4c-0.3,0.1-0.8,0.1-1.1,0.1l-0.1-0.1v-3.8l0.1-0.1c0.1,0,0.2-0.1,0.2-0.1c0.2-0.1,0.6,0,1,0.1
		c0.3,0.1,0.4,0.3,0.6,0.5c0.2,0.3,0.2,0.4,0.2,1.1C15.9,36.7,15.8,37.1,15.4,37.4L15.4,37.4z M30.3,31.1v0.8h0.9h0.6l0.4,1l0.4,1
		c0,0-0.4,0.1-0.9,0.1h-1.2v1.7c0,2.1,0.1,2.1,0.6,2.1c0.2,0,0.5-0.1,0.7-0.2c0.2-0.1,0.4-0.1,0.4-0.1c0.1,0.1,0.7,1.6,0.6,1.7
		c-0.1,0.1-0.9,0.5-1.3,0.6c-0.6,0.1-1.7,0.1-2.2,0c-0.6-0.1-0.9-0.4-1.2-1l-0.2-0.4v-2.2V34h-0.6h-0.6v-1v-1.2h0.6h0.9V31v-1.4h1.1
		h1.1L30.3,31.1C30.3,31.1,30.3,31.1,30.3,31.1z M35.3,33.1l1,3l0.1-0.4l0.6-2l0.5-1.7h0.9h0.9l0.1,0.3l0.6,2l0.5,1.8l0.1-0.4
		l0.5-1.9l0.4-1.7c0-0.1,0.1-0.1,1.4-0.1c0.8,0,1.4,0,1.4,0.1c0,0-0.6,1.8-1.4,3.9l-1.4,3.8h-1.1h-1.1l-0.2-0.6l-0.6-2.1l-0.4-1.3
		c0,0-0.3,0.9-0.6,1.9l-0.6,2h-1.1H35L33.3,35l-1.7-4.8c0,0,0.6-0.1,1.4-0.1h1.4C34.3,30.2,35.3,33.1,35.3,33.1z M24.8,37.2
		l-0.2,0.2c-0.6,0.6-1.7,0.7-2.4,0.2c-0.2-0.1-0.6-0.7-0.6-1v-0.4h5.1l-0.1-0.5c-0.1-2-1-3.2-2.6-3.7c-0.8-0.2-1.8-0.1-2.5,0.1
		c-1.5,0.5-2.4,1.8-2.5,3.5c-0.1,2.1,1,3.8,2.9,4.2c0.6,0.1,2.2,0.1,2.7-0.1c0.6-0.2,1.2-0.5,1.6-0.9l0.4-0.4l-0.9-0.6L24.8,37.2
		L24.8,37.2z M21.8,34.8c0-0.1,0.1-0.2,0.1-0.3c0.1-0.2,0.4-0.6,0.6-0.7c0.3-0.2,0.8-0.1,1.1,0s0.5,0.4,0.6,0.8l0.1,0.1H23
		C21.8,34.8,21.8,34.9,21.8,34.8C21.7,34.7,21.8,34.8,21.8,34.8z M51.1,34.1C50.9,33,50.1,32.3,49,32c-0.8-0.2-1.9-0.2-2.7,0
		c-0.4,0.1-1.3,0.6-1.6,0.8L44.5,33l0.6,0.6c0.4,0.4,0.6,0.6,0.6,0.6s0.1-0.1,0.4-0.2c0.6-0.4,1.3-0.5,1.8-0.3
		c0.3,0.1,0.5,0.4,0.5,0.8c0,0.1,0,0.1-0.9,0.3c-2.4,0.2-3.5,1-3.6,2.5c-0.1,1,0.4,1.9,1.3,2.2c0.4,0.2,0.5,0.2,1.2,0.2
		c0.8,0,1.3-0.1,1.8-0.5c0.1-0.1,0.3-0.1,0.3-0.1s0.1,0.1,0.1,0.3l0.1,0.3h2.4v-2.6C51.2,35.6,51.2,34.3,51.1,34.1z M48.4,37
		c0,0.7,0,0.7-0.2,0.9C48,38.1,47.3,38.1,47,38c-0.4-0.2-0.6-0.9-0.1-1.3c0.1-0.1,0.4-0.2,0.6-0.3s0.6-0.1,0.7-0.1h0.3L48.4,37z
		 M54.7,34.2c0.7,1.9,0.9,2.5,0.9,2.2c0-0.1,0.4-1.2,0.7-2.3l0.7-2.2h1.4c1.4,0,1.4,0.1,1.4,0.2c-0.5,1.2-4,9.5-4.1,9.7
		c-0.4,0.7-1.2,1.2-2.2,1.2c-0.6,0.1-1.5-0.1-2-0.3l-0.3-0.1l0.2-0.5l0.4-0.9c0.1-0.2,0.1-0.4,0.2-0.4c0,0,0.2,0,0.4,0.1
		c0.5,0.1,0.7,0.1,1,0.1c0.2-0.1,0.4-0.4,0.7-1.2l0.1-0.3l-1.3-2.9l-1.7-3.8l-0.4-0.9h1.5h1.5L54.7,34.2
		C54.7,34.1,54.7,34.2,54.7,34.2z"/>
</g>
</svg>
