<?xml version="1.0" encoding="utf-8"?>
<svg version="1.1" id="Layer_1" xmlns="http://www.w3.org/2000/svg" xmlns:xlink="http://www.w3.org/1999/xlink" x="0px" y="0px"
	width="100px" height="100px" viewBox="0 0 100 100" style="enable-background:new 0 0 100 100;" xml:space="preserve">
<g>
	<path style="fill:#E8E8E8;" d="M50,0c27.6,0,50,22.4,50,50s-22.4,50-50,50S0,77.6,0,50S22.4,0,50,0"/>
	<path style="fill:#FFFFFF;" d="M50,1c27.1,0,49,21.9,49,49S77.1,99,50,99S1,77.1,1,50S22.9,1,50,1"/>
	<g>
		<path d="M15.3,45.9v4.1c0,0.7-0.2,1.3-0.7,1.7c-0.4,0.4-1,0.6-1.8,0.6c-0.8,0-1.4-0.2-1.8-0.6c-0.4-0.4-0.6-1-0.6-1.7v-4.1h0.7
			v4.2c0,0.5,0.1,0.9,0.4,1.2c0.3,0.3,0.7,0.4,1.3,0.4c0.5,0,1-0.1,1.2-0.4c0.3-0.3,0.4-0.7,0.4-1.2v-4.2H15.3z"/>
		<path d="M21.6,52.3h-0.9l-2.3-3.1l-0.7,0.6v2.5H17v-6.4h0.7v3.2l2.9-3.2h0.9L19,48.7L21.6,52.3z"/>
		<path d="M26.1,50.6c0,0.6-0.2,1-0.6,1.3c-0.4,0.3-1,0.5-1.7,0.5c-0.8,0-1.3-0.1-1.8-0.3v-0.7c0.3,0.1,0.5,0.2,0.9,0.3
			s0.6,0.1,0.9,0.1c0.5,0,0.9-0.1,1.1-0.3c0.3-0.2,0.4-0.5,0.4-0.8c0-0.2,0-0.4-0.1-0.5c-0.1-0.1-0.2-0.3-0.4-0.4s-0.5-0.3-1-0.4
			c-0.6-0.2-1-0.5-1.3-0.8s-0.4-0.7-0.4-1.1c0-0.5,0.2-0.9,0.6-1.2c0.4-0.3,0.9-0.4,1.5-0.4c0.6,0,1.2,0.1,1.8,0.4l-0.2,0.6
			c-0.5-0.2-1-0.3-1.5-0.3c-0.4,0-0.7,0.1-0.9,0.3c-0.2,0.2-0.3,0.4-0.3,0.7c0,0.2,0,0.4,0.1,0.5s0.2,0.3,0.4,0.4
			c0.2,0.1,0.5,0.2,0.9,0.4c0.7,0.2,1.1,0.5,1.4,0.8C26,49.8,26.1,50.2,26.1,50.6z"/>
		<path d="M31.5,49.9c0,0.8-0.2,1.4-0.6,1.8c-0.4,0.4-0.9,0.7-1.6,0.7c-0.4,0-0.8-0.1-1.1-0.3c-0.3-0.2-0.6-0.5-0.8-0.9
			s-0.3-0.8-0.3-1.3c0-0.8,0.2-1.4,0.6-1.8c0.4-0.4,0.9-0.7,1.6-0.7c0.7,0,1.2,0.2,1.6,0.7C31.3,48.6,31.5,49.2,31.5,49.9z
			 M27.8,49.9c0,0.6,0.1,1.1,0.4,1.4c0.2,0.3,0.6,0.5,1.1,0.5c0.5,0,0.8-0.2,1.1-0.5c0.2-0.3,0.4-0.8,0.4-1.4c0-0.6-0.1-1.1-0.4-1.4
			c-0.2-0.3-0.6-0.5-1.1-0.5c-0.5,0-0.8,0.2-1.1,0.5C27.9,48.8,27.8,49.3,27.8,49.9z"/>
		<path d="M34.7,52.4c-0.7,0-1.2-0.2-1.6-0.6c-0.4-0.4-0.6-1-0.6-1.8c0-0.8,0.2-1.4,0.6-1.9s0.9-0.7,1.7-0.7c0.2,0,0.5,0,0.7,0.1
			c0.2,0,0.4,0.1,0.5,0.2l-0.2,0.6c-0.2-0.1-0.3-0.1-0.5-0.2c-0.2,0-0.4-0.1-0.5-0.1c-1,0-1.5,0.6-1.5,1.9c0,0.6,0.1,1,0.4,1.4
			c0.2,0.3,0.6,0.5,1.1,0.5c0.4,0,0.8-0.1,1.2-0.3v0.6C35.6,52.3,35.2,52.4,34.7,52.4z"/>
		<path d="M38.9,52.4c-0.7,0-1.2-0.2-1.6-0.6c-0.4-0.4-0.6-1-0.6-1.8c0-0.8,0.2-1.4,0.6-1.9s0.9-0.7,1.7-0.7c0.2,0,0.5,0,0.7,0.1
			c0.2,0,0.4,0.1,0.5,0.2L40,48.3c-0.2-0.1-0.3-0.1-0.5-0.2c-0.2,0-0.4-0.1-0.5-0.1c-1,0-1.5,0.6-1.5,1.9c0,0.6,0.1,1,0.4,1.4
			c0.2,0.3,0.6,0.5,1.1,0.5c0.4,0,0.8-0.1,1.2-0.3v0.6C39.8,52.3,39.4,52.4,38.9,52.4z"/>
		<path d="M43.3,52.4c-0.7,0-1.3-0.2-1.7-0.6c-0.4-0.4-0.6-1-0.6-1.8c0-0.8,0.2-1.4,0.6-1.8c0.4-0.5,0.9-0.7,1.5-0.7
			c0.6,0,1.1,0.2,1.4,0.6c0.4,0.4,0.5,0.9,0.5,1.6v0.5h-3.3c0,0.6,0.2,1,0.4,1.3c0.3,0.3,0.7,0.4,1.1,0.4c0.5,0,1-0.1,1.5-0.3v0.6
			c-0.3,0.1-0.5,0.2-0.7,0.2C43.9,52.4,43.6,52.4,43.3,52.4z M43.1,48.1c-0.4,0-0.7,0.1-0.9,0.4c-0.2,0.3-0.4,0.6-0.4,1h2.5
			c0-0.5-0.1-0.8-0.3-1.1C43.8,48.2,43.5,48.1,43.1,48.1z"/>
		<path d="M48.5,47.4c0.2,0,0.4,0,0.6,0.1L49,48.2c-0.2,0-0.4-0.1-0.5-0.1c-0.4,0-0.7,0.2-1,0.5S47,49.3,47,49.8v2.6h-0.7v-4.8h0.6
			l0.1,0.9h0c0.2-0.3,0.4-0.6,0.6-0.7C47.9,47.5,48.2,47.4,48.5,47.4z"/>
		<path d="M53.1,51c0,0.4-0.2,0.8-0.5,1c-0.3,0.2-0.8,0.4-1.4,0.4c-0.6,0-1.1-0.1-1.5-0.3v-0.7c0.2,0.1,0.5,0.2,0.7,0.3
			s0.5,0.1,0.8,0.1c0.4,0,0.7-0.1,0.9-0.2c0.2-0.1,0.3-0.3,0.3-0.6c0-0.2-0.1-0.3-0.2-0.5c-0.2-0.1-0.5-0.3-0.9-0.5
			c-0.4-0.2-0.8-0.3-1-0.4c-0.2-0.1-0.3-0.3-0.4-0.4c-0.1-0.2-0.1-0.3-0.1-0.6c0-0.4,0.2-0.7,0.5-0.9c0.3-0.2,0.8-0.3,1.3-0.3
			c0.5,0,1,0.1,1.5,0.3l-0.3,0.6c-0.5-0.2-0.9-0.3-1.3-0.3c-0.3,0-0.6,0.1-0.8,0.2c-0.2,0.1-0.3,0.3-0.3,0.4c0,0.1,0,0.2,0.1,0.3
			c0.1,0.1,0.2,0.2,0.3,0.3c0.1,0.1,0.4,0.2,0.8,0.4c0.6,0.2,1,0.4,1.2,0.6C53,50.4,53.1,50.7,53.1,51z"/>
		<path d="M57.5,52.3v-3.1c0-0.4-0.1-0.7-0.3-0.9c-0.2-0.2-0.5-0.3-0.8-0.3c-0.5,0-0.9,0.1-1.1,0.4S55,49.2,55,49.8v2.5h-0.7v-6.8
			H55v2.1c0,0.2,0,0.5,0,0.6h0c0.1-0.2,0.3-0.4,0.6-0.5c0.3-0.1,0.6-0.2,0.9-0.2c0.6,0,1,0.1,1.3,0.4c0.3,0.3,0.4,0.7,0.4,1.3v3.1
			H57.5z"/>
		<path d="M63.9,49.9c0,0.8-0.2,1.4-0.6,1.8c-0.4,0.4-0.9,0.7-1.6,0.7c-0.4,0-0.8-0.1-1.1-0.3c-0.3-0.2-0.6-0.5-0.8-0.9
			s-0.3-0.8-0.3-1.3c0-0.8,0.2-1.4,0.6-1.8c0.4-0.4,0.9-0.7,1.6-0.7c0.7,0,1.2,0.2,1.6,0.7C63.7,48.6,63.9,49.2,63.9,49.9z
			 M60.2,49.9c0,0.6,0.1,1.1,0.4,1.4s0.6,0.5,1.1,0.5s0.8-0.2,1.1-0.5c0.2-0.3,0.4-0.8,0.4-1.4c0-0.6-0.1-1.1-0.4-1.4
			c-0.2-0.3-0.6-0.5-1.1-0.5c-0.5,0-0.8,0.2-1.1,0.5C60.4,48.8,60.2,49.3,60.2,49.9z"/>
		<path d="M67.4,52.4c-0.3,0-0.6-0.1-0.9-0.2c-0.3-0.1-0.5-0.3-0.7-0.5h-0.1c0,0.3,0.1,0.5,0.1,0.8v2h-0.7v-7h0.6l0.1,0.7h0
			c0.2-0.3,0.4-0.5,0.7-0.6c0.2-0.1,0.5-0.2,0.9-0.2c0.6,0,1.1,0.2,1.5,0.7s0.5,1,0.5,1.8c0,0.8-0.2,1.4-0.5,1.8
			C68.5,52.2,68,52.4,67.4,52.4z M67.3,48.1c-0.5,0-0.8,0.1-1.1,0.4c-0.2,0.3-0.3,0.7-0.3,1.3v0.2c0,0.7,0.1,1.2,0.3,1.4
			c0.2,0.3,0.6,0.4,1.1,0.4c0.4,0,0.7-0.2,1-0.5c0.2-0.3,0.4-0.8,0.4-1.4c0-0.6-0.1-1.1-0.4-1.4C68.1,48.2,67.7,48.1,67.3,48.1z"/>
		<path d="M70.6,51.9c0-0.2,0-0.3,0.1-0.4c0.1-0.1,0.2-0.2,0.4-0.2c0.2,0,0.3,0.1,0.4,0.2c0.1,0.1,0.1,0.2,0.1,0.4
			c0,0.2,0,0.3-0.1,0.4c-0.1,0.1-0.2,0.2-0.4,0.2c-0.1,0-0.3,0-0.4-0.1C70.6,52.2,70.6,52.1,70.6,51.9z"/>
		<path d="M75,52.4c-0.7,0-1.2-0.2-1.6-0.6c-0.4-0.4-0.6-1-0.6-1.8c0-0.8,0.2-1.4,0.6-1.9s0.9-0.7,1.7-0.7c0.2,0,0.5,0,0.7,0.1
			c0.2,0,0.4,0.1,0.5,0.2L76,48.3c-0.2-0.1-0.3-0.1-0.5-0.2c-0.2,0-0.4-0.1-0.5-0.1c-1,0-1.5,0.6-1.5,1.9c0,0.6,0.1,1,0.4,1.4
			c0.2,0.3,0.6,0.5,1.1,0.5c0.4,0,0.8-0.1,1.2-0.3v0.6C75.9,52.3,75.5,52.4,75,52.4z"/>
		<path d="M81.5,49.9c0,0.8-0.2,1.4-0.6,1.8c-0.4,0.4-0.9,0.7-1.6,0.7c-0.4,0-0.8-0.1-1.1-0.3c-0.3-0.2-0.6-0.5-0.8-0.9
			c-0.2-0.4-0.3-0.8-0.3-1.3c0-0.8,0.2-1.4,0.6-1.8c0.4-0.4,0.9-0.7,1.6-0.7c0.7,0,1.2,0.2,1.6,0.7S81.5,49.2,81.5,49.9z M77.8,49.9
			c0,0.6,0.1,1.1,0.4,1.4s0.6,0.5,1.1,0.5c0.5,0,0.8-0.2,1.1-0.5c0.2-0.3,0.4-0.8,0.4-1.4c0-0.6-0.1-1.1-0.4-1.4
			c-0.2-0.3-0.6-0.5-1.1-0.5c-0.5,0-0.8,0.2-1.1,0.5C77.9,48.8,77.8,49.3,77.8,49.9z"/>
		<path d="M88.9,52.3v-3.1c0-0.4-0.1-0.7-0.2-0.9s-0.4-0.3-0.8-0.3c-0.5,0-0.8,0.1-1,0.4c-0.2,0.3-0.3,0.7-0.3,1.2v2.7h-0.7v-3.1
			c0-0.4-0.1-0.7-0.2-0.9s-0.4-0.3-0.8-0.3c-0.5,0-0.8,0.1-1,0.4c-0.2,0.3-0.3,0.7-0.3,1.3v2.5h-0.7v-4.8h0.6l0.1,0.7h0
			c0.1-0.2,0.3-0.4,0.6-0.5c0.2-0.1,0.5-0.2,0.8-0.2c0.8,0,1.2,0.3,1.5,0.8h0c0.1-0.3,0.4-0.4,0.6-0.6c0.3-0.1,0.6-0.2,0.9-0.2
			c0.5,0,0.9,0.1,1.2,0.4c0.3,0.3,0.4,0.7,0.4,1.3v3.1H88.9z"/>
	</g>
</g>
</svg>
