<?xml version="1.0" encoding="utf-8"?>
<svg version="1.1" id="Layer_1" xmlns="http://www.w3.org/2000/svg" xmlns:xlink="http://www.w3.org/1999/xlink" x="0px" y="0px"
	 viewBox="0 0 1028.89 217.71" style="enable-background:new 0 0 1028.89 217.71;" xml:space="preserve">
<g>
	<path style="fill:#1A0832;" d="M246.4,146.03h80c0,0-17.28,59.52-91.52,60.16c-54.4,0-93.44-50.56-93.44-97.92
		s46.72-94.72,95.36-94.72s72.32,30.08,72.32,30.08l8.96-7.68c0,0-29.44-33.92-81.92-33.28c-51.2,0-106.88,44.8-106.88,106.88
		s55.68,108.16,104.96,108.16c50.56,0,101.76-36.48,103.68-82.56H246.4V146.03L246.4,146.03z"/>
	<rect x="90.88" y="2.03" style="fill:#1A0832;" width="11.52" height="215.04"/>
	<polygon style="fill:#1A0832;" points="371.84,2.03 360.32,2.03 360.32,206.19 360.32,217.07 360.32,217.07 419.2,217.07 
		419.2,206.19 371.84,206.19 	"/>
	<polygon style="fill:#1A0832;" points="453.12,2.03 441.6,2.03 441.6,13.55 441.6,135.15 441.6,146.03 441.6,206.19 441.6,217.07 
		441.6,217.07 500.48,217.07 500.48,206.19 453.12,206.19 453.12,146.03 500.48,146.03 500.48,135.15 453.12,135.15 453.12,13.55 
		500.48,13.55 500.48,2.03 	"/>
	<path style="fill:#1A0832;" d="M1028.48,162.67c-2.56-28.8-12.8-41.6-21.76-55.04c-8.96-14.08-28.16-40.32-30.72-56.32
		c-7.04-55.04,42.24-37.76,42.88-37.76l2.56-10.24c-24.96-8.32-66.56-4.48-56.32,53.76c3.2,19.2,23.68,44.16,31.36,55.68
		c5.12,7.68,17.28,23.68,20.48,51.2c5.12,52.48-49.28,40.96-49.92,40.96l-2.56,11.52C964.48,215.79,1034.88,229.87,1028.48,162.67z"
		/>
	<polygon style="fill:#1A0832;" points="768,201.07 677.12,2.03 664.96,2.03 762.88,217.71 773.12,217.71 871.68,2.03 858.88,2.03 	
		"/>
	<polygon style="fill:#1A0832;" points="897.28,2.03 885.76,2.03 885.76,2.03 885.76,13.55 885.76,135.15 885.76,146.03 
		885.76,206.19 885.76,217.07 897.28,217.07 944.64,217.07 944.64,206.19 897.28,206.19 897.28,146.03 944.64,146.03 944.64,135.15 
		897.28,135.15 897.28,13.55 944.64,13.55 944.64,2.03 	"/>
	<polygon style="fill:#1A0832;" points="0,2.03 0,2.67 0,13.55 0,135.15 0,146.03 0,217.71 11.52,217.71 11.52,146.03 58.24,146.03 
		58.24,135.15 11.52,135.15 11.52,13.55 58.88,13.55 58.88,2.03 	"/>
	<path style="fill:#1A0832;" d="M619.52,2.03L521.6,217.71h12.8l32.64-71.04h116.48l32.64,71.04h12.8L630.4,2.03L619.52,2.03
		L619.52,2.03z M571.52,135.15l53.12-116.48l53.12,116.48H571.52z"/>
</g>
</svg>
