<svg xmlns="http://www.w3.org/2000/svg" xmlns:xlink="http://www.w3.org/1999/xlink" viewBox="0 0 132 37" xmlns:v="https://vecta.io/nano"><g fill="#231f20"><path d="M13.3 24.6c.2 1.1.3 2.3.4 3.4h.1c0-.7.2-3.1.3-3.5l1.2-9.7H19l-3.2 16h-4l-1.2-6.5c-.3-1.3-.4-2.7-.5-4h-.2l-.4 3.8-1.1 6.7H4.3L1 14.7h3.9l1.3 9.8a35.21 35.21 0 0 1 .3 3.5h.1l.4-3.4 1.5-9.9h3l1.8 9.9zm15 6.1c-.3-.5-.3-1.1-.2-1.6H28c-.9 1.3-2 2.1-3.2 2.1-3 0-4.3-1.5-4.3-4.8 0-3.7 2.6-4.5 5.5-5.7 1.6-.7 2.1-1.4 1.8-2.7-.2-.7-.7-.8-1.7-.8-1.7 0-2 .9-1.9 2.3h-3.5c0-3 1-5.2 5.6-5.2 5 0 5.3 2.6 5.3 4.7v9.4c0 .8.1 1.5.3 2.2h-3.6zm-.5-8.4l-3 2c-.5.5-.6 1.2-.6 1.9 0 1.2.4 2 1.7 2 2.2 0 1.8-2.8 1.9-4.3v-1.6zm10.8 10.2c0 .3.2.6.4.7.3.2.7.2 1.1.2 1.6 0 1.8-1.2 1.8-2.5v-1.8l-.1-.1c-.7 1.5-1.8 2-3.4 2.1-3.1 0-3.7-2.8-3.8-5.4V20c.1-4.4 1.4-5.6 3.8-5.7 1.7 0 2.7.6 3.2 2.1h.1v-1.6h3.7v15.5c0 3.3-.9 5.9-6 5.9-2.4 0-4.5-.9-4.7-3.6h3.9zm1.5-15.3c-1.7 0-1.6 1.5-1.7 3.1v5.3c.1 1.5.5 2.8 1.6 2.8 1.2 0 1.8-1 1.8-2.8v-4.8c.1-1.4 0-3.6-1.7-3.6z"/><use xlink:href="#B"/><use xlink:href="#C"/><use xlink:href="#B" x="35.7"/><use xlink:href="#C" x="35.7"/><use xlink:href="#B" x="71.4"/></g><path d="M72.8 3.2L76.2.9 75 4.8l3.3 2.6h-4.1l-1.4 4-1.4-4h-4.1l3.3-2.6L69.4.9z" fill="#ee4034"/><defs ><path id="B" d="M56.1 30.7c-.3-.5-.3-1.1-.2-1.6h-.1c-.9 1.3-2 2.1-3.2 2.1-3 0-4.3-1.5-4.3-4.8 0-3.7 2.6-4.5 5.5-5.7 1.6-.7 2.1-1.4 1.8-2.7-.2-.7-.7-.8-1.7-.8-1.7 0-2 .9-1.9 2.3h-3.5c0-3 1-5.2 5.6-5.2 5 0 5.3 2.6 5.3 4.7v9.4c0 .8.1 1.5.3 2.2h-3.6zm-.5-8.4l-3 2c-.5.5-.6 1.2-.6 1.9 0 1.2.4 2 1.7 2 2.2 0 1.8-2.8 1.9-4.3v-1.6z"/><path id="C" d="M66.6 16.4h0c.9-1.8 2.4-2 3.6-2.1 1.4 0 3.2.6 3.4 2.1.7-1.4 1.9-2.1 3.7-2.1 2.7 0 3.9 1.7 3.9 3.4v13h-3.7V19.9c0-1.4-.1-2.9-1.8-2.8-1.6.1-1.9 1.2-1.9 3.1v10.5h-3.7v-11c0-1.4-.1-2.6-1.8-2.6s-1.8 1.3-1.8 3.1v10.5h-3.7v-16h3.7v1.7z"/></defs></svg>