<?xml version="1.0" encoding="utf-8"?>
<svg version="1.1" id="Layer_1" xmlns="http://www.w3.org/2000/svg" xmlns:xlink="http://www.w3.org/1999/xlink" x="0px" y="0px"
	width="100px" height="100px" viewBox="0 0 100 100" style="enable-background:new 0 0 100 100;" xml:space="preserve">
<g>
	<g>
		<path style="fill:#E8E8E8;" d="M50,0c27.6,0,50,22.4,50,50s-22.4,50-50,50S0,77.6,0,50S22.4,0,50,0"/>
		<path style="fill:#FFFFFF;" d="M50,1c27.1,0,49,21.9,49,49S77.1,99,50,99S1,77.1,1,50S22.9,1,50,1"/>
	</g>
	<g>
		<path style="fill:none;" d="M28.6,45.5l0.9-0.5l0,0c0.2-0.1,0.5-0.2,0.7-0.3c0-0.1,0-0.1,0-0.1c0,0,0-0.1,0-0.1
			c0.4,0,0.6-0.3,0.9-0.5l0.2-0.2c0.2-0.2,0.3-0.3,0.5-0.4c0-0.1,0.1-0.3,0.1-0.4c0.1-0.1,0.1-0.3,0.1-0.4c0-0.1,0-0.2-0.1-0.3
			c-0.3-0.3-0.6-0.3-1-0.3l-0.4-0.1l0,0c-0.3,0.1-0.6,0.2-0.9,0c-0.3,0.3-0.6,0.3-1,0.2c-0.4,0-0.7-0.1-1,0.2c0,0.1-0.1,0.2-0.2,0.2
			c-0.1,0-0.1,0.1-0.2,0.2c0,0,0,0.1,0,0.2c0,0.1,0,0.1-0.1,0.2c0,0,0,0,0,0c0,0,0,0,0,0c-0.1,0.1-0.2,0.3-0.3,0.4
			c-0.1,0.1-0.2,0.3-0.3,0.4c0,0-0.1,0.1-0.1,0.1c0,0-0.1,0-0.1,0c-0.2,0.4-0.4,0.7-0.7,1l0,0c-0.2,0.2-0.4,0.5-0.5,0.7l0,0
			l-0.1,0.3c0,0.1-0.1,0.3-0.2,0.4h0l-0.1,0.1c-0.1,0.2-0.3,0.3-0.3,0.6c0,0,0,0.1,0,0.1c0,0.1,0.1,0.1,0.1,0.2
			c0.1,0.1,0.1,0.1,0.2,0.1l0.4-0.2l0.5-0.2c0.3-0.1,0.6-0.3,0.9-0.5c0.1,0,0.1-0.1,0.2-0.1l0,0c0.1-0.1,0.2-0.2,0.4-0.1
			c0.4-0.2,0.7-0.4,0.9-0.5L28.6,45.5z"/>
		<path style="fill:none;" d="M34.6,47.1c-0.1,0-0.1-0.1-0.2-0.1c-0.1,0-0.1,0-0.2,0.1L34,47.2c-0.2,0.1-0.4,0.3-0.7,0.2
			c-0.2,0-0.3,0.2-0.4,0.4c0,0,0,0.1-0.1,0.1h0l0,0L32.7,48c-0.1,0.2-0.2,0.3-0.4,0.5h0L32,48.8c0,0-0.2,0.2-0.3,0.3l0,0
			c-0.2,0.2-0.4,0.5-0.6,0.7h0l0,0c-0.1,0.2-0.2,0.4-0.3,0.6c0,0.1-0.1,0.3-0.1,0.4c0,0.1,0.1,0.1,0.2,0.1c0,0,0.1,0,0.1,0
			c0.1-0.2,0.3-0.3,0.4-0.5l0,0c0.1-0.1,0.2-0.2,0.3-0.4l0.3-0.3c0.2-0.2,0.4-0.4,0.6-0.6l0.2-0.2l0,0c0.2-0.2,0.4-0.4,0.7-0.6l0,0
			l0.1-0.1l0.1-0.1c0.1-0.2,0.2-0.3,0.4-0.4l0,0c0.1-0.1,0.3-0.2,0.4-0.3c0,0,0-0.1,0-0.1c0,0,0-0.1,0.1-0.1c0,0,0.1-0.1,0.1-0.1
			c0,0,0,0,0,0L34.6,47.1z"/>
		<path style="fill:#26303A;" d="M85.4,48L85.4,48c-0.1,0-0.2,0-0.2,0c-0.2,0.2-0.4,0.3-0.6,0.5l0,0l-0.7,0.4l-0.3,0.2h0
			c-0.2,0.2-0.5,0.3-0.8,0.5c-0.2,0.1-0.4,0.1-0.6,0.2c-0.4,0.2-0.8,0.4-1.2,0.6l-0.2,0.1c-0.4,0.2-0.9,0.4-1.3,0.6
			c-0.3,0.1-0.7,0.2-1,0.2c-0.1-0.1-0.1-0.1-0.2-0.2c-0.1-0.2-0.1-0.4-0.1-0.6l0.1-0.4l0.1-0.2v0v0v0c0-0.1,0.1-0.2,0.1-0.3
			c0.2-0.1,0.2-0.2,0.3-0.4v0v0c0-0.1,0.1-0.3,0.3-0.3h0v0c0,0,0-0.1,0-0.1c0,0,0-0.1,0.1-0.1l0,0c0.1-0.1,0.2-0.1,0.3-0.2
			c0.1,0,0.3-0.1,0.4-0.2c0.1,0,0.1,0,0.2,0c0.1,0,0.1,0,0.1-0.1c0.1,0,0.1-0.1,0.2-0.1c0,0,0.1,0,0.1,0c0.3-0.2,0.6-0.4,0.9-0.5
			l0.5-0.3h0c0.2-0.1,0.4-0.2,0.5-0.4c0.2,0,0.3-0.1,0.4-0.2l0,0c0.1-0.1,0.2-0.2,0.3-0.2c0-0.1,0.1-0.1,0.1-0.2c0-0.1,0-0.1,0-0.2
			v0v0c0,0,0-0.1-0.1-0.1c-0.6-0.1-1.2-0.1-1.8,0.1c-0.4,0.2-0.8,0.4-1.2,0.6l0,0h0c-0.3,0.2-0.5,0.4-0.8,0.6l0,0l-0.1,0.1
			c-0.2,0.2-0.3,0.4-0.5,0.6l0,0c-0.2,0.2-0.5,0.4-0.8,0.6c-0.2,0.1-0.3,0.1-0.5,0.2c-0.3,0.1-0.7,0.3-1,0.5l0,0l-0.1,0.1
			c-0.3,0.2-0.5,0.3-0.8,0.4l-0.1,0c-0.3,0.1-0.6,0.1-0.8-0.1l0-0.1l0-0.3c0-0.1,0.1-0.5,0.1-0.5l0-0.1v0l0,0l0.1-0.2
			c0-0.1,0.1-0.3,0.1-0.4l0,0c0-0.1,0.1-0.1,0.2-0.1c0.1-0.2,0.2-0.4,0.4-0.6l0,0c0.2-0.2,0.4-0.3,0.6-0.5l0.2-0.1
			c0.3-0.2,0.5-0.4,0.7-0.6l0,0c0,0,0.1-0.1,0.1-0.1C77,45.5,77,45.3,77,45v0c0-0.3-0.2-0.7-0.4-1l-0.1-0.1
			c-0.2-0.1-0.4-0.2-0.7-0.2c-0.2,0-0.3,0.1-0.5,0.3l0,0h0c-0.2,0.2-0.3,0.4-0.4,0.6l-0.2,0.3c0,0,0,0.1,0,0.1
			c-0.1,0.2-0.2,0.4-0.3,0.6l-0.1,0.2l0,0c-0.1,0.2-0.2,0.4-0.3,0.6v0l0,0v0c0,0.2-0.1,0.4-0.2,0.5c0,0,0,0.1,0,0.1
			c0,0.3-0.1,0.5-0.2,0.8l0,0c-0.1,0.2-0.2,0.3-0.3,0.4c-0.1,0-0.3,0.1-0.3,0.2l0,0l0,0c-0.1,0.1-0.3,0.2-0.4,0.3
			c-0.1,0.1-0.2,0.2-0.3,0.3l0,0c-0.2,0.2-0.5,0.3-0.8,0.4c-0.2,0.1-0.4,0.2-0.7,0.3l0,0l0,0c-0.2,0-0.3,0-0.4,0.1
			c-0.1,0.1-0.2,0.2-0.4,0.1c-0.1,0-0.1,0-0.2-0.1c-0.1,0-0.1-0.1-0.1-0.1l-0.1-0.2c0-0.1-0.1-0.2-0.2-0.3c0,0,0-0.2,0-0.2
			c0-0.2,0.1-0.4,0.1-0.6v0c0.1-0.2,0.2-0.4,0.2-0.6l0,0c0.1-0.1,0.3-0.5,0.3-0.5l0.1-0.2h0c0.1-0.1,0.3-0.6,0.3-0.6c0,0,0,0,0-0.1
			l0-0.1c0-0.1,0-0.2-0.1-0.2c0-0.2,0.1-0.2,0.2-0.3l0.1,0l0.2-0.1c0.1-0.1,0.2,0,0.3,0c0.1,0,0.2,0,0.3,0c0,0,0.1-0.1,0.1-0.1
			c0,0,0-0.1,0-0.1c0-0.1-0.1-0.2-0.1-0.2c0,0-0.1,0-0.2,0.1c-0.1,0.1-0.2,0.2-0.4,0.1l0,0l0,0c-0.2,0.2-0.4,0.3-0.6,0.4l0,0
			c-0.3,0.2-0.6,0.3-0.9,0.4c-0.1,0.1-0.1,0.2-0.2,0.2l0,0c-0.2,0.1-0.4,0.2-0.6,0.3c-0.2,0.1-0.3,0.2-0.5,0.3l0,0
			c-0.1,0.1-0.2,0.2-0.3,0.3c-0.3,0.2-0.5,0.3-0.8,0.5l0,0c-0.2,0.2-0.5,0.3-0.7,0.5c0,0-0.1,0-0.2,0c-0.1,0-0.1,0-0.2,0v0l0,0
			c0,0,0,0,0.1,0.1v0c-0.1,0.1-0.1,0.1-0.2,0.1c-0.1,0-0.2,0-0.2,0c-0.1,0.1-0.3,0.2-0.4,0.3l-0.1,0.1h0c-0.1,0.1-0.3,0.2-0.4,0.4
			c-0.1,0-0.1,0-0.2-0.1l0,0h0c0,0,0,0,0,0c0,0,0,0,0,0c0,0,0,0,0,0v0l-0.4,0.4l0,0c-0.3,0.2-0.6,0.4-1,0.5c0,0,0,0.1,0,0.1l0,0
			c-0.1,0.2-0.3,0.2-0.4,0.3c-0.2,0-0.3,0.1-0.4,0.3c-0.2,0-0.3,0-0.3-0.1c0,0-0.1-0.1-0.2-0.1c0,0,0-0.1,0-0.1v-0.2
			c0-0.2,0.1-0.4,0.2-0.6c0,0,0,0,0,0v0c0.1-0.3,0.2-0.5,0.3-0.8l0,0h0c0.1-0.2,0.2-0.4,0.3-0.6l0,0c0.1-0.1,0.4-0.6,0.4-0.6l0,0h0
			c0.1-0.1,0.3-0.5,0.3-0.5L63,47l0,0c-0.1-0.2-0.3-0.2-0.5-0.2c-0.1,0-0.2,0-0.3,0c-0.1,0.1-0.3,0.1-0.4,0.2l0,0h0
			c-0.1,0.1-0.1,0.1-0.2,0.2c-0.1,0.2-0.2,0.3-0.3,0.5l-0.1,0.1h0C61.1,47.9,61,48,61,48.1c-0.2,0-0.2,0.1-0.2,0.2
			c0,0.1-0.1,0.2-0.2,0.2c0,0,0,0,0,0l0,0c-0.2,0.2-0.3,0.4-0.5,0.5l-0.2,0.1h0c-0.2,0.1-0.3,0.3-0.5,0.5c-0.1,0-0.2,0-0.2,0.1
			c-0.1,0-0.1,0.1-0.2,0.2c0,0,0,0,0,0c0,0.1-0.1,0.2-0.3,0.3c-0.1,0.1-0.2,0.1-0.2,0.2c-0.1,0-0.1,0.1-0.2,0.1l0,0h0
			c-0.1,0.1-0.2,0.2-0.2,0.2c-0.1,0.2-0.3,0.3-0.4,0.4c-0.1,0-0.1,0-0.2,0c-0.1,0-0.1,0-0.2,0L57.1,51c0-0.2-0.1-0.3,0-0.5
			c0.1-0.2,0.2-0.5,0.3-0.6l0,0c0,0,0.1-0.1,0.1-0.1c0.1-0.2,0.2-0.4,0.3-0.6l0,0h0c0.1-0.2,0.3-0.4,0.5-0.6l0,0l0,0
			c0.1-0.2,0.1-0.4,0.3-0.6l0,0c0.2-0.2,0.3-0.4,0.5-0.6l0.2-0.2h0c0.1-0.1,0.2-0.2,0.2-0.2c0.2-0.1,0.3-0.2,0.4-0.4l0,0
			c0.1-0.1,0.3-0.4,0.3-0.4l0.2-0.3c0.2-0.2,0.4-0.4,0.7-0.6c0,0,0.1-0.2,0.1-0.2l0,0c0.2-0.3,0.5-0.5,0.8-0.7
			c0-0.1,0.1-0.2,0.1-0.3l0,0h0c0.3-0.4,0.7-0.7,1.1-0.9c0-0.3,0.2-0.4,0.3-0.5c0.2-0.1,0.3-0.3,0.4-0.5c0-0.2,0.1-0.3,0.3-0.4
			c0.1-0.1,0.3-0.2,0.3-0.4c0,0,0.1-0.2,0.1-0.2c0.1-0.2,0.3-0.4,0.2-0.6v0h0h-0.1c-0.8,0.1-1.6,0.1-2.2,0.7c0,0.2-0.2,0.3-0.4,0.4
			c-0.1,0.1-0.3,0.1-0.3,0.3c-0.5,0.5-0.9,1-1.2,1.6c-0.2,0.2-0.3,0.4-0.5,0.7l0,0h0c-0.1,0.1-0.2,0.4-0.2,0.4
			c-0.1,0.2-0.2,0.4-0.4,0.6l0,0c0,0.1-0.2,0.2-0.2,0.2c-0.1,0.2-0.1,0.4-0.2,0.5l0,0h0c-0.1,0.2-0.3,0.5-0.4,0.6l0,0
			c0,0.1-0.2,0.2-0.2,0.2l-0.3,0.4h0c-0.1,0.2-0.2,0.4-0.4,0.6l-0.2,0.2l0,0h0c-0.2,0.2-0.4,0.4-0.5,0.6l0,0c0,0-0.1,0.1-0.1,0.1
			l-0.4,0.6c-0.2,0.2-0.4,0.4-0.6,0.5l-0.3,0.2c-0.3,0.2-0.6,0.4-0.9,0.6l0,0l-0.4,0.2l-0.7,0.4l-0.1,0c-0.2,0.1-0.3,0.1-0.5,0
			l-0.1,0L52.9,51c-0.1-0.2-0.1-0.3-0.1-0.5c0-0.2,0-0.4,0.1-0.6c0.1-0.3,0.2-0.5,0.3-0.8l0,0c0-0.1,0.1-0.2,0.1-0.2l0.2-0.4h0
			c0-0.1,0.1-0.2,0.1-0.2c0-0.2,0.1-0.3,0.2-0.3l0.2-0.1h0c0,0,0.1-0.1,0.1-0.1c0.1-0.2,0.2-0.4,0.4-0.6l0,0
			c0.1-0.1,0.2-0.3,0.2-0.3l0.3-0.4c0,0,0.1-0.1,0.1-0.1c0.2,0,0.3-0.2,0.5-0.3c0.1-0.1,0.1-0.1,0.2-0.2l0,0
			c0.1-0.1,0.2-0.1,0.3-0.1c0.1-0.1,0.2-0.1,0.3-0.1c0.1,0,0.1,0.1,0.1,0.2l0,0.1c0,0.1,0.1,0.3,0.2,0.4c0,0,0.1,0,0.2,0
			c0.1,0,0.1,0,0.2,0c0.1,0,0.2-0.1,0.2-0.2c0-0.1,0.1-0.2,0.1-0.3c0,0,0,0,0,0v0v0c-0.1-0.3-0.5-0.3-0.9-0.3l-0.2,0l-0.5,0.2
			l-0.3,0.1c-0.4,0.2-0.9,0.3-1.3,0.6l0,0h0c-0.2,0.2-0.4,0.4-0.5,0.6c0,0-0.1,0-0.1,0c0,0-0.1,0-0.1-0.1c-0.1-0.1,0-0.2,0-0.3
			l0-0.2v0v0c0-0.1,0-0.1,0-0.2c0-0.1,0-0.1-0.1-0.1c0-0.2-0.2-0.2-0.3-0.1c-0.1,0-0.2,0-0.3,0c-0.1,0-0.1,0.1-0.2,0.1
			c-0.2,0.1-0.3,0.2-0.5,0.4l0,0c-0.1,0.1-0.2,0.2-0.3,0.3c-0.2,0.1-0.4,0.2-0.6,0.3l0,0c-0.1,0-0.2,0.2-0.2,0.2
			c-0.1,0.1-0.3,0.3-0.4,0.4l-0.3,0.2h0c-0.2,0.2-0.4,0.4-0.6,0.6l-0.1,0.1h0c-0.2,0.2-0.4,0.4-0.6,0.6l0,0h0c0,0.2-0.1,0.2-0.2,0.3
			c-0.1,0.1-0.2,0.1-0.2,0.3c0,0-0.1,0.1-0.2,0.1c-0.1,0-0.1,0-0.2-0.1c0-0.1-0.1-0.1-0.1-0.2c0,0,0-0.1,0-0.1l0-0.1
			c0,0,0-0.1,0-0.1v0v0l0.1-0.2c0-0.2,0.1-0.3,0.2-0.4l0,0h0c0.1-0.2,0.2-0.3,0.3-0.4l0,0l0,0c0,0-0.1,0-0.1-0.1s0-0.1,0-0.1v-0.1
			c0-0.1,0-0.2,0-0.3c-0.1-0.3-0.3-0.2-0.5-0.2c-0.1,0-0.3,0.1-0.4,0l0,0v0c0,0.1-0.1,0.2-0.1,0.3c-0.1,0.1-0.2,0.2-0.3,0.2
			l-0.1,0.1c-0.1,0.2-0.2,0.3-0.3,0.4c-0.1,0.1-0.2,0.1-0.2,0.2l0,0h0c0,0-0.1,0.1-0.1,0.1c-0.3,0.1-0.5,0.3-0.7,0.4l-0.1,0.1
			c-0.1,0.1-0.3,0.2-0.3,0.2c-0.1-0.1-0.1-0.1-0.2,0l-0.2,0c-0.2,0-0.5,0.1-0.6-0.2l0,0c0-0.1,0-0.2,0.1-0.4l0-0.1c0,0,0-0.1,0-0.1
			c0.1-0.2,0.2-0.5,0.3-0.6l0,0c0.3-0.3,0.6-0.5,1.1-0.7c0.1,0,0.3,0,0.4-0.1c0.2-0.1,0.3-0.1,0.5-0.2c0.2-0.1,0.3-0.2,0.5-0.2
			l0.2-0.2l0,0l0.2-0.2c0.2-0.1,0.4-0.3,0.5-0.5l0,0h0c0.1-0.1,0.1-0.1,0.1-0.2c-0.3-0.4-0.7-0.4-1.2-0.3c-0.3,0-0.6,0.1-0.8,0
			c0,0-0.1,0-0.1,0c-0.2,0.1-0.5,0.3-0.7,0.5l0,0h0c-0.1,0.1-0.2,0.2-0.2,0.4c-0.1,0.1-0.2,0.1-0.3,0.2l0,0h0
			c-0.1,0.1-0.2,0.2-0.3,0.3l-0.2,0.3c-0.1,0.1-0.2,0.2-0.3,0.2c-0.1,0.2-0.3,0.4-0.5,0.5l0,0c-0.2,0.1-0.4,0.2-0.6,0.2l-0.2,0.1
			l-0.5,0.3h0l-0.2,0.1c-0.2-0.1-0.4,0-0.5,0.1c-0.2,0.1-0.3,0.2-0.5,0.1c0-0.1-0.1-0.2,0-0.3c0,0,0-0.1,0.1-0.1
			c0.3-0.1,0.5-0.3,0.7-0.5l0,0l0.1-0.1c0.2-0.2,0.3-0.3,0.5-0.5c0-0.1,0.1-0.2,0.1-0.2l0,0c0.1-0.2,0.3-0.3,0.5-0.4l0.2-0.2h0
			c0.2-0.2,0.3-0.4,0.4-0.6l0,0l0,0c0,0,0.1-0.1,0.1-0.1c0.1-0.1,0.1-0.1,0.1-0.3c-0.2-0.1-0.3,0-0.4,0c-0.1,0.1-0.2,0.1-0.3,0.1
			c-0.2,0.1-0.4,0.2-0.6,0.3l0,0c-0.3,0.1-0.5,0.2-0.7,0.4l-0.2,0.2l-0.1,0.1c-0.3,0.2-0.6,0.4-0.9,0.6l0,0
			c-0.1,0.1-0.3,0.2-0.4,0.4H40c-0.2-0.1-0.2-0.2-0.2-0.4l0.1-0.2c0.1-0.1,0.1-0.2,0.1-0.3l0.1-0.1l0,0h0c0.2-0.2,0.3-0.4,0.3-0.6v0
			v0l0-0.1c0-0.2,0.1-0.4,0.3-0.6c0,0,0,0,0.1,0c0.1,0,0.2-0.2,0.2-0.3c0-0.1,0.1-0.1,0.1-0.2c0.1-0.1,0.1-0.1,0.2-0.2
			c0-0.1,0.1-0.2,0.1-0.3v0v0c0-0.2-0.1-0.4-0.2-0.6c-0.1-0.2-0.1-0.3-0.2-0.5h0L41,43.2c-0.2,0.1-0.3,0-0.4-0.1
			c0-0.1-0.1-0.1-0.2-0.1h0l0,0c-0.1,0.2-0.2,0.5-0.3,0.8L40,44v0c-0.1,0.1-0.1,0.3-0.2,0.4c0,0.2-0.1,0.4-0.2,0.6l0,0h0
			c-0.2,0.3-0.4,0.5-0.7,0.7l0,0c-0.1,0.1-0.3,0.2-0.3,0.2c-0.2,0.1-0.4,0.3-0.5,0.4l0,0c0,0-0.1,0.1-0.1,0.1
			c-0.1,0.1-0.3,0.2-0.4,0.4l-0.2,0.2c-0.1,0.1-0.2,0.2-0.4,0.3c-0.1,0.2-0.2,0.3-0.4,0.5l0,0c0,0-0.1,0.1-0.1,0.1l-0.2,0.2
			c-0.1,0-0.1,0.1-0.2,0.1c-0.1,0.1-0.2,0.2-0.4,0.1c-0.1-0.2-0.1-0.3,0-0.5l0,0l0,0c0.1-0.1,0.1-0.2,0.1-0.3
			c0.2-0.1,0.4-0.2,0.4-0.4l0,0h0c0-0.1,0.1-0.2,0-0.3c0.1-0.1,0.2-0.2,0.2-0.3l0,0h0c0-0.1,0.1-0.2,0.1-0.2c0-0.1,0.1-0.3,0.2-0.4
			l0,0c0.1-0.1,0.2-0.2,0.2-0.3l0,0L37,45.2L36.9,45l0,0v0c0-0.1-0.1-0.2-0.2-0.3l0,0h0c-0.1,0.1-0.2,0.1-0.4,0.2L36,45l0,0
			c-0.1,0.3-0.2,0.5-0.3,0.8l0,0h0c-0.1,0.2-0.2,0.4-0.4,0.6l0,0c0,0-0.1,0.1-0.1,0.1c0,0-0.1,0-0.1,0c0,0-0.1,0-0.1,0
			c0,0,0,0-0.1-0.1c0,0,0,0,0-0.1l0-0.1c0-0.1-0.1-0.2-0.1-0.3l0,0l0,0c-0.2,0.2-0.4,0.2-0.6,0.1c-0.1,0-0.2,0-0.3,0
			c-0.1,0.2-0.3,0.2-0.5,0.1l-0.2,0c-0.1,0.1-0.3,0.1-0.4,0.2c-0.2,0-0.4,0.1-0.6,0.1c-0.4,0-0.7,0.1-1,0.3
			c-0.3-0.1-0.5,0.1-0.7,0.2L30.5,47c-0.1,0-0.2,0.1-0.3,0.1c-0.1-0.2-0.2-0.1-0.3,0c-0.1,0.1-0.1,0.1-0.2,0.1c0,0-0.1,0-0.1,0
			c0,0,0,0-0.1-0.1l0,0h0c-0.5,0.2-1,0.4-1.6,0.3c0,0-0.1-0.1-0.1-0.1c0,0,0-0.1,0-0.1c0.1-0.1,0.1-0.1,0.2-0.2c0.1,0,0.2-0.1,0.3,0
			h0v0c0-0.3,0.2-0.4,0.5-0.4c0.1,0,0.2-0.1,0.3-0.1l0,0h0c0.1,0,0.1-0.1,0.2-0.2c0.3,0.1,0.3-0.1,0.4-0.3c0-0.1,0.1-0.1,0.1-0.2
			l0,0c0,0,0.1-0.1,0.1-0.1c0,0,0.1,0,0.1,0c0.3,0.1,0.6-0.2,0.8-0.4l0.2-0.2c0.1,0,0.1-0.1,0.2-0.1l0,0c0,0,0,0,0,0
			c0.1-0.1,0.2-0.2,0.3-0.1c0.4-0.1,0.6-0.5,0.7-0.8l0.1-0.1l0,0h0c0.3-0.3,0.3-0.8,0.3-1.3c0-0.1-0.1-0.1-0.1-0.2
			c-0.1-0.1-0.2-0.1-0.1-0.3v0l0,0c-0.2-0.1-0.3-0.2-0.5-0.4c-0.3-0.3-0.6-0.5-1-0.4c-0.3-0.4-0.9-0.3-1.3-0.3l-0.5,0
			c-0.2,0.1-0.3,0-0.4-0.1c0-0.2,0.1-0.3,0.2-0.4l0.1-0.1c-0.1-0.3,0-0.5,0.1-0.8c0.1-0.2,0.2-0.4,0.2-0.6v0h-0.1c0,0-0.1,0-0.1,0
			c0,0-0.1,0-0.1,0.1c0,0,0,0.1,0,0.1c0,0,0,0,0,0.1c-0.1,0-0.1,0.1-0.1,0.1c-0.1,0.1-0.2,0.2-0.3,0.1l0,0v0
			c-0.1,0.6-0.4,0.9-0.8,1.3l-0.3,0.3c-0.9,0.1-1.8,0.2-2.6,0.4c-2.6,0.5-5.1,1.2-7.5,2.2L17.2,44l-0.3,0.2c-0.5,0.2-1,0.5-1.4,0.9
			l0,0c0,0-0.1,0.1-0.1,0.1c0,0.2,0,0.4,0,0.6v0v0c0,0.3,0.2,0.5,0.4,0.6h0.1c0.1,0,0.3,0,0.4-0.1c0-0.1,0.1-0.2,0.1-0.3
			c0.1-0.1,0.1-0.2,0.2-0.2l0,0c0.1-0.1,0.3-0.2,0.4-0.2c0.3-0.1,0.5-0.2,0.7-0.4c0.2,0.1,0.4,0,0.5-0.1l0,0l0.1,0
			c0.1-0.1,0.2-0.2,0.3-0.2l0.4-0.1c0.3-0.1,0.5-0.2,0.7-0.3l0.3-0.2l0.3-0.1c0.1-0.1,0.3-0.1,0.4-0.2c0.1,0,0.1,0,0.2,0
			c0,0,0.1,0,0.1,0c0,0,0.1,0,0.1,0c0,0,0.2-0.1,0.2-0.1c0.4-0.2,0.9-0.4,1.4-0.5C23,43,23.2,43,23.4,43c0.2,0,0.3,0,0.5-0.1
			c0,0,0.1-0.1,0.1-0.1c0,0,0.1,0,0.1,0c0.1,0,0.1,0,0.2,0c0.1,0,0.1-0.1,0.1-0.1c0,0,0.1,0,0.1,0c0,0,0.1,0,0.1,0.1l0,0l0,0
			c0.1-0.2,0.2-0.2,0.4-0.2c0.1,0,0.3,0,0.4-0.1c0,0,0.1,0.1,0.1,0.1c0,0,0.1,0,0.1,0c0,0,0.1,0,0.1-0.1c0.1-0.1,0.2-0.1,0.3-0.1
			c0,0,0.1,0,0.1,0c0,0,0.1,0,0.1,0.1c0,0,0.1,0.1,0.1,0.2c0,0,0,0.1,0,0.1c-0.2,0.4-0.3,0.9-0.6,1.2L25.6,44h0
			c-0.3,0.3-0.6,0.7-0.8,1l0,0c-0.1,0.1-0.3,0.4-0.3,0.4l-0.2,0.3c-0.1,0.1-0.4,0.5-0.4,0.5l-0.1,0.2h0c-0.1,0.1-0.2,0.3-0.2,0.3
			l-0.2,0.3c-0.1,0.1-0.2,0.3-0.3,0.3l-0.2,0.4l0,0c-0.1,0.2-0.3,0.4-0.4,0.6l0,0c-0.1,0.2-0.3,0.3-0.5,0.3
			c-0.1,0.1-0.3,0.2-0.4,0.3L21,49.2c-0.2,0-0.3,0.1-0.4,0.2c-0.1,0-0.1,0.1-0.2,0.1c-0.1,0-0.3,0-0.3,0.2c0,0-0.5,0.2-0.6,0.2
			L19.1,50c-0.5,0.1-0.9,0.3-1.3,0.5l0,0l0,0c0,0.2-0.2,0.2-0.3,0.3c-0.1,0-0.2,0.1-0.3,0.2l0,0l0.1,0.1c0,0,0,0.1-0.1,0.1l0,0
			c0,0-0.1,0.1-0.1,0.1c-0.1,0.3,0.1,0.4,0.4,0.6c0.1,0,0.1,0,0.1,0c0,0,0.1-0.1,0.1-0.1c0.1,0,0.2,0,0.3,0c0.1,0,0.2,0.1,0.2,0.2
			l0,0l0.3-0.3c0.1,0.1,0.3,0,0.4-0.1c0.1-0.1,0.3-0.1,0.4,0l0.1,0.1c0.2,0.1,0.3,0.2,0.3,0.4l0,0.2c-0.1,0.4-0.3,0.7-0.6,1l0,0
			c-0.1,0.1-0.3,0.4-0.3,0.4l0,0c0,0.3-0.2,0.5-0.3,0.8l-0.1,0.2c-0.3,0.3-0.4,0.6-0.6,1c-0.2,0.5-0.4,0.9-0.8,1.2l0,0l0,0
			c0,0,0,0.1,0,0.1c0,0.2-0.1,0.4-0.3,0.4c0,0,0,0,0,0c0,0,0,0.1,0.1,0.1l0.1,0.1c-0.1,0.5-0.5,0.8-0.8,1.1
			c-0.2,0.2-0.3,0.4-0.5,0.7c-0.3,0.4-0.7,0.8-0.8,1.4c0.3,0.5,0.7,0.3,1.1,0.2c0.2-0.1,0.5-0.2,0.7-0.2c0.2-0.2,0.3-0.3,0.5-0.4
			c0.3-0.3,0.7-0.5,0.7-1c0.2-0.3,0.2-0.5,0.3-0.9c0.2-0.2,0.3-0.5,0.3-0.8c0.1-0.4,0.3-0.8,0.7-1.1c0-0.2,0.1-0.3,0.2-0.4
			c0.2-0.2,0.3-0.4,0.1-0.7c0.1-0.3,0.3-0.4,0.5-0.6c0.2-0.2,0.4-0.4,0.4-0.7c0-0.2,0.1-0.2,0.2-0.2c0.1,0,0.2,0,0.2-0.2
			c0.1,0,0.1-0.1,0.2-0.2c0-0.1,0.1-0.2,0.1-0.2v0v0l0-0.2c0-0.2,0.1-0.4,0.2-0.6c0.1-0.2,0.3-0.2,0.5-0.3h0h0c0.2,0,0.3,0,0.3-0.1
			s0-0.2,0-0.4c-0.2-0.2-0.1-0.4,0-0.5l0,0c0,0,0.1-0.1,0.1-0.1c0.1-0.1,0.1-0.2,0.2-0.3c0.1,0,0.2-0.1,0.3-0.2l0,0
			c0.1-0.1,0.3-0.3,0.4-0.5l0.1-0.2h0c0.2-0.2,0.4-0.4,0.6-0.5c0.2,0.1,0.3-0.1,0.4-0.2l0.1-0.1c0.1-0.1,0.2-0.2,0.4-0.1h0l0,0
			c0.2-0.2,0.4-0.2,0.5-0.2c0.2,0,0.4-0.1,0.5-0.2c0,0,0.1,0,0.1,0l0.1,0c0.7-0.2,1.3-0.4,2-0.6l0.1,0l0.3-0.1l0,0l0.4-0.1
			c0.3,0,0.5-0.1,0.7-0.2c0.1,0,0.3-0.1,0.4-0.1c0.2-0.1,0.5-0.1,0.7-0.1c0.2-0.1,0.5-0.1,0.7-0.2c0.5-0.1,0.9-0.1,1.3,0l0.2,0.1
			c0,0,0,0.1,0,0.1c0,0.1,0,0.2-0.1,0.3c-0.2,0-0.2,0.1-0.2,0.2v0v0c0,0,0,0.1,0,0.1c0,0,0,0.1,0,0.1c0,0-0.1,0-0.1,0
			c0,0-0.1,0-0.1,0c-0.1,0.1-0.1,0.2-0.1,0.3l0,0.1c0,0.1,0,0.1-0.1,0.1c0,0-0.1,0.1-0.1,0.1c-0.1,0-0.2,0.2-0.3,0.3l0,0.1
			c0,0.1-0.1,0.1-0.1,0.2c-0.2,0.1-0.3,0.3-0.3,0.5l0,0.1v0c-0.1,0.2-0.1,0.4-0.4,0.4h0l0,0.2c-0.1,0.2-0.2,0.4-0.3,0.6l0,0l0,0
			c-0.2,0.2-0.3,0.5-0.4,0.8c0,0.1,0,0.2,0.1,0.2h0l0.1,0c0.1,0,0.1,0,0.2,0c0,0,0.1,0.1,0.1,0.1l0,0l0.1-0.2
			c0.1-0.1,0.7-0.8,0.7-0.8h0.1c0,0,0.2-0.2,0.2-0.2l0,0c0.1-0.1,0.5-0.5,0.5-0.5l0.1-0.1c0.1-0.1,0.6-0.6,0.6-0.6l0,0
			c0.3-0.3,0.6-0.5,0.9-0.7l0,0l0,0c0.2-0.1,0.2,0,0.3,0l0,0c0,0,0.1,0.1,0.1,0.1c0,0,0.1,0.1,0.1,0.1c0,0-0.1,0.4-0.1,0.4l0,0.1v0
			v0c0,0.2-0.1,0.4-0.1,0.6v0v0c0,0.2,0,0.4,0.1,0.6l0,0l0,0c0.1,0,0.2,0.1,0.2,0.1c0,0.1,0.1,0.1,0.2,0.1c0.1,0,0.2,0,0.2,0
			c0,0,0.1-0.1,0.1-0.1l0.1-0.1h0c0.1-0.1,0.1-0.2,0.1-0.3c0,0,0-0.1,0-0.1l0.1-0.2l0,0h0c0.1-0.1,0.4-0.6,0.4-0.6l0,0c0,0,0,0,0,0
			c0.1-0.2,0.3-0.5,0.4-0.7l0,0h0c0.1-0.2,0.3-0.4,0.5-0.6l0-0.1l0,0h0c0.1-0.2,0.3-0.4,0.5-0.6l0,0c0.1-0.1,0.3-0.3,0.3-0.3
			c0.2-0.2,0.4-0.3,0.5-0.5l0,0c0.1-0.1,0.1-0.2,0.2-0.3c0,0,0.1-0.1,0.1-0.1c0,0,0.1,0,0.1,0c0.2,0,0.3,0.1,0.5,0.3l0.1,0.1
			c0,0,0,0.1,0,0.1l0,0h0c-0.1,0.2-0.2,0.3-0.3,0.5L38,47.7l0,0.1v0L37.9,48c-0.1,0.1-0.1,0.3-0.2,0.4v0v0l0,0.1
			c-0.1,0.1-0.2,0.3-0.3,0.5l0,0.1h0c-0.1,0.1-0.1,0.2-0.2,0.3l-0.2,0.4l0,0h0c-0.1,0.2-0.2,0.4-0.2,0.6v0c-0.1,0.1-0.3,0.6-0.3,0.6
			l0,0h0c-0.1,0.2-0.5,1-0.5,1l0,0c0,0.1-0.2,0.4-0.2,0.4L35.7,53l-0.1,0.2l-0.4,1c-0.4,1.2-0.9,2.4-1,3.7c-0.2,0.3-0.1,0.4,0,0.6
			c0.1,0.1,0.1,0.2,0.2,0.3v0h0c0.2-0.1,0.2-0.2,0.3-0.4c0-0.1,0-0.2,0.1-0.3c0.4-1.2,0.8-2.1,1.4-2.9c0-0.3,0.1-0.6,0.2-0.8
			c0.1-0.2,0.2-0.4,0.2-0.6c0.3-0.1,0.3-0.4,0.4-0.6l0,0v0c0-0.2,0.1-0.3,0.2-0.4c0.1,0,0.1-0.1,0.2-0.1c0.1-0.1,0.2-0.2,0.4-0.1
			l0,0l0,0c0-0.1,0.1-0.1,0.1-0.2c0.1-0.1,0.1-0.1,0.2-0.2v0l0,0c0,0,0,0,0-0.1c0,0,0-0.1,0-0.1c0.1-0.2,0.3-0.3,0.5-0.3h0v0
			c0,0,0-0.1,0-0.1c0,0,0-0.1,0-0.1c0,0,0-0.1,0-0.1l0.1-0.1l0-0.1c0.1-0.1,0.2-0.2,0.3-0.2h0v0c0.1-0.2,0.2-0.3,0.4-0.4l0,0
			c0.2-0.1,0.3-0.3,0.4-0.4c0.2,0.1,0.4-0.1,0.5-0.2l0,0h0c0-0.1,0.1-0.2,0.1-0.2c0.1-0.1,0.2-0.2,0.2-0.3c0.3-0.1,0.5-0.2,0.7-0.3
			l0,0l0.2-0.1c0.2-0.2,0.5-0.3,0.7-0.4c0.2,0.1,0.3,0,0.4-0.1l0.1-0.1c0.1,0,0.1-0.1,0.2-0.1l0.1,0.1l0,0c0.1,0,0.1,0.1,0.1,0.1
			c0,0.1,0,0.1,0.1,0.2c-0.1,0.1-0.2,0.2-0.2,0.3l0,0h0c0,0.1-0.2,0.3-0.2,0.3c-0.1,0.1-0.1,0.3-0.2,0.4l0,0l-0.1,0.1
			c-0.1,0.2-0.2,0.3-0.2,0.5l0,0c0,0.2-0.1,0.4-0.2,0.5c0,0,0,0.1,0,0.1l-0.1,0.3l-0.1,0.4c0.1,0.1,0.1,0.2,0.2,0.3v0h0h0.1
			c0,0,0.1,0,0.1,0c0,0,0.1,0,0.1-0.1c0.2,0,0.4-0.1,0.5-0.3l0.2-0.2c0.2-0.1,0.3-0.2,0.5-0.4l0,0h0c0.1-0.1,0.3-0.3,0.3-0.3
			l0.3-0.4c0.1-0.1,0.2-0.2,0.3-0.3l0.1-0.2l0.2-0.2c0.3-0.3,0.6-0.6,1-0.7c0,0,0,0,0,0l0,0c0.2-0.2,0.4-0.2,0.6-0.3l0.2-0.1
			l0.1,0.1c0.1,0.1,0.1,0.1,0.2,0.2l-0.1,0.1c0,0,0,0,0,0c0,0,0,0,0,0l0,0v0c0,0.1,0,0.2,0,0.3c0,0.1-0.1,0.2-0.2,0.3
			c0,0,0,0.1-0.1,0.2v0l0,0c-0.1,0.2-0.1,0.4-0.2,0.6l0,0c0,0.1-0.1,0.2-0.1,0.2c0.1,0.2,0,0.3-0.1,0.4l0,0
			c-0.1,0.1-0.2,0.2-0.2,0.3c0,0,0,0.1,0,0.1c-0.1,0-0.1,0.2-0.2,0.3c0,0.1,0,0.1-0.1,0.2c0,0,0,0-0.1,0c0,0,0,0-0.1,0h0l0,0.1v0
			c0,0,0,0,0,0v0c-0.1,0.2-0.1,0.5-0.1,0.7l0,0.3c0,0.2-0.1,0.3-0.1,0.5l0,0h0c0.1,0,0.3,0.1,0.4,0.2l0.2,0.1l0,0l0.2-0.3
			c0.1,0,0.1,0,0.2,0.1l0,0l0,0c0.1-0.2,0.2-0.4,0.3-0.6l0,0h0c0-0.1,0.1-0.2,0.1-0.2c0.1-0.2,0.2-0.4,0.2-0.6l0.2-0.3h0
			c0.1-0.1,0.2-0.4,0.2-0.4c0.1-0.2,0.2-0.4,0.4-0.6l0,0c0.1-0.1,0.1-0.2,0.2-0.3c0-0.1,0.1-0.2,0.1-0.4l0,0h0
			c0.1-0.2,0.3-0.3,0.4-0.5l0.2-0.2c0,0,0.1-0.2,0.1-0.2c0.1-0.1,0.2-0.2,0.2-0.3c0-0.1,0.1-0.2,0.2-0.3l0,0c0,0,0.1-0.1,0.2-0.1
			c0,0,0.5-0.5,0.5-0.5l0,0c0.2-0.2,0.5-0.4,0.7-0.6l0,0c0.4-0.3,0.7-0.5,1.2-0.7l0.2-0.1c0.2,0,0.5,0,0.7,0.1
			c0.1,0,0.1,0.1,0.2,0.1l0,0.2c0,0.1,0,0.2,0,0.3l-0.2,0.2l0,0h0c-0.2,0.2-0.3,0.4-0.4,0.6l0,0h0c-0.1,0.1-0.2,0.5-0.2,0.5l0,0.1h0
			c0,0-0.1,0.1-0.1,0.1c0.1,0.2,0,0.3-0.1,0.4c-0.1,0-0.1,0.1-0.1,0.2v0l0,0v0c0.1,0.2,0,0.3-0.1,0.3c-0.1,0.1-0.1,0.1-0.1,0.2v0h0
			c0,0,0,0,0,0l0,0c0,0,0.1,0.1,0.1,0.2c-0.1,0.1-0.1,0.3-0.1,0.5v0v0c0,0.1,0,0.2,0.1,0.3c0,0.1,0.1,0.2,0.2,0.3
			c0.6,0.1,1.4,0.1,1.9-0.4c0.2,0,0.3-0.1,0.4-0.1c0.1-0.1,0.2-0.1,0.3-0.1l0.1,0c0.1-0.1,0.2-0.2,0.3-0.2c0.1,0,0.2-0.1,0.3-0.2
			c0.1,0,0.2-0.1,0.3-0.2l0,0h0c0.1,0,0.2-0.2,0.2-0.2l0.2-0.2c0,0,0.1,0,0.1,0c0,0,0.1,0,0.1,0c0.1,0,0.1,0.1,0.1,0.2l0,0.1
			l0.1,0.1c0,0-0.3,0.5-0.3,0.5l0,0h0c-0.2,0.3-0.3,0.7-0.5,1v0l0,0c-0.1,0.2-0.1,0.4-0.2,0.5c0,0.1,0,0.2,0,0.3l0,0.2v0v0
			c0,0.1,0,0.3,0.2,0.3c0.2,0,0.4-0.1,0.5-0.3c0,0,0,0,0,0l0,0c0.4-0.2,0.6-0.6,0.8-0.9l0.1-0.1l0,0c0,0,0,0,0,0c0,0,0,0,0.1,0
			c0,0,0,0,0,0c0,0,0,0,0,0c0,0,0,0,0,0c0,0,0,0,0,0c0.3-0.3,0.5-0.5,0.8-0.8l0,0h0c0.2-0.2,0.4-0.4,0.6-0.6l0,0
			c0.2-0.2,0.4-0.4,0.7-0.6l0.1,0c0,0,0.1-0.1,0.1-0.1c0.1-0.1,0.2-0.1,0.3-0.1c0,0.1,0.1,0.1,0.2,0.2l0,0c0.1,0.1,0.2,0.2,0.1,0.4
			c0,0-0.1,0.1-0.1,0.1c0,0,0,0.1-0.1,0.1v0v0l0,0.2c0,0.2,0,0.3-0.1,0.4l0,0l0,0l0,0h0c0,0.2,0,0.3-0.1,0.5l-0.1,0.2c0,0,0,0-0.1,0
			c0,0,0,0,0,0.1c0,0.1,0,0.1,0.1,0.2l0,0c0,0,0,0,0,0l0,0.1l0.1,0.1c0.2,0.1,0.4,0.1,0.6,0.1c0.1-0.1,0.3-0.2,0.4-0.3l0.1-0.1
			c0.1-0.1,0.2-0.1,0.4-0.2c0.1-0.2,0.2-0.3,0.4-0.3c0.2,0,0.3-0.1,0.4-0.3c0.1,0,0.3-0.1,0.4-0.2l0,0h0c0.3-0.2,0.6-0.4,0.8-0.6
			l0,0c0.3-0.2,0.5-0.4,0.8-0.6l0,0l0.1,0c0.2-0.1,0.3-0.2,0.5-0.3c0.1-0.1,0.3-0.2,0.4-0.2c0.2,0.1,0.2,0.2,0.2,0.4l0,0
			c0,0,0,0.1,0,0.1c0,0,0,0.1,0,0.1c0,0-0.1,0.1-0.1,0.1c0,0-0.1,0-0.1,0c0,0-0.1,0-0.1,0l0,0l0,0c0,0.1,0.1,0.1,0.1,0.2
			c0,0.1,0,0.2,0,0.2l-0.1,0.3c-0.1,0.1-0.1,0.2-0.2,0.3v0v0l0,0.1c-0.3,0.3-0.2,0.4,0,0.6c0.1,0.1,0.1,0.2,0.1,0.3l0,0.2l0,0
			l0.3-0.1l0.1,0c0.2-0.1,0.4-0.2,0.5-0.4c0,0,0,0,0-0.1c0,0,0,0,0-0.1c0,0-0.1,0-0.1-0.1c0,0-0.1,0-0.1,0c0,0,0,0-0.1-0.1
			c0-0.1,0-0.2,0.1-0.3l0,0c0,0,0,0,0,0c0,0,0,0,0.1,0c0.1,0,0.1,0,0.2,0c0.1,0,0.1,0.1,0.1,0.1l0,0l0.1-0.1
			c0.2-0.2,0.4-0.4,0.6-0.6l0,0l0.1-0.1l0.6-0.6c0.1-0.1,0.3-0.3,0.3-0.3l0.3-0.1c0.1,0.1,0.2,0.2,0.2,0.4l0,0.2l0,0.2h0
			c0.2,0,0.2,0.1,0.3,0.2v0l0,0.1c0,0.1,0,0.1,0.1,0.2c0.2,0.1,0.3,0.1,0.5,0c0.1,0,0.3,0,0.4,0c0,0,0.6-0.3,0.6-0.3
			c0.4-0.2,0.7-0.4,1.2-0.6l0,0c0.2-0.1,1.2-0.7,1.2-0.7l0,0l0.1-0.1l0.3-0.2c0.1,0,0.1-0.1,0.2-0.1c0.1-0.1,0.1-0.1,0.2-0.2
			c0,0,0,0,0.1,0c0,0,0,0,0.1,0l0,0.1l0,0.5c0,0.3-0.1,0.5-0.2,0.8l0,0h0c-0.1,0.2-0.3,0.5-0.5,0.6l0,0l0,0c-0.1,0-0.2,0.1-0.3,0.1
			c-0.3,0.1-0.5,0.2-0.7-0.1c-0.2-0.2-0.3-0.1-0.4,0c-0.1,0.1-0.2,0.2-0.3,0.1h0v0c0,0.1,0,0.1,0,0.2c0,0.1-0.1,0.1-0.1,0.2l0,0
			c0,0,0,0,0,0l-0.1,0.1l0,0l0.1,0.1c0,0.1,0.1,0.1,0.2,0.1c0,0.1,0.1,0.1,0.1,0.2c0.1,0,0.1,0.1,0.1,0.2c0,0,0,0.1,0,0.1l0,0h0
			c0.1,0,0.2,0.1,0.2,0.2l0.1,0.1c0.1,0.2,0.2,0.3,0.5,0.3c0,0,0,0.1,0,0.2c0,0.1,0,0.2,0.1,0.2c0.1,0,0.2,0.1,0.2,0.1l0.1,0.1l0,0
			c0.2,0.1,0.4,0.2,0.5,0l0,0h0c0,0,0.1-0.1,0.1-0.1c0-0.2,0.1-0.3,0.2-0.5c0.1-0.1,0.1-0.2,0.2-0.3c0,0,0,0,0-0.1c0,0,0,0,0-0.1v0
			v0l0-0.1c0-0.1,0-0.2,0.1-0.2c0.3-0.1,0.3-0.2,0.2-0.4c0-0.1,0-0.2,0-0.3c0-0.1,0.1-0.1,0.2-0.2h0v0c0-0.1,0-0.3,0-0.4l0,0
			c0.1-0.2,0.3-0.3,0.6-0.4c0.1-0.1,0.3-0.1,0.4-0.2l0,0l0,0c0.3-0.1,0.5-0.2,0.7-0.3c0.2-0.1,0.4-0.2,0.6-0.2
			c0.1,0,0.3-0.1,0.4-0.2l0,0c0.2-0.2,0.5-0.3,0.7-0.1c0,0,0,0.1,0,0.1c-0.1,0.1-0.1,0.3-0.2,0.4c-0.1,0.1-0.1,0.2-0.2,0.3v0l0,0
			c0,0.1-0.1,0.2-0.1,0.3c0,0.1,0,0.2,0,0.2l-0.1,0.1h0c-0.1,0.2,0,0.3,0.1,0.4c0.1,0.1,0.1,0.1,0.2,0.2c0,0,0,0.1,0,0.1
			c0,0,0,0.1,0,0.1v0l0,0c0.6,0.6,1.7,0.2,2.2,0c0.2,0,0.4-0.1,0.6-0.2c0.3-0.1,0.6-0.3,0.9-0.5c0.2,0,0.3-0.1,0.5-0.2
			c0,0,0.2-0.1,0.2-0.1c0.3-0.1,0.6-0.3,0.9-0.4l0.3-0.2l0,0c0.5-0.3,0.9-0.5,1.4-0.7l0.6-0.3c0,0,0.2-0.2,0.2-0.2l0.1-0.1h0
			C85.3,48.3,85.5,48.1,85.4,48z M79.9,47.1L79.9,47.1c0.1-0.1,0.2-0.1,0.2-0.1l0,0c0.2-0.1,0.3-0.3,0.4-0.5l0.1,0
			c0.1-0.1,0.2-0.1,0.2-0.2c0.1-0.1,0.3-0.3,0.5-0.2c0.1,0,0.2-0.1,0.2-0.1c0.1,0,0.2,0,0.3,0c0,0,0.1,0,0.1,0.1c0,0,0,0.1,0,0.1
			c0,0.1,0,0.2-0.1,0.2c-0.1,0.2-0.2,0.3-0.3,0.5L81.3,47l-0.3,0.2c-0.4,0.2-0.7,0.4-1.1,0.5c0-0.1-0.1-0.2-0.1-0.3
			C79.7,47.3,79.8,47.2,79.9,47.1z M75.5,45.8L75.5,45.8c0-0.1,0.1-0.1,0.1-0.1c0.1-0.1,0.2-0.3,0.2-0.4l0-0.2
			c0.1-0.2,0.2-0.4,0.4-0.6c0.2,0,0.3,0.1,0.5,0.3c0,0,0,0.1,0,0.1c0,0.1,0,0.1,0,0.2c0,0.3-0.2,0.5-0.4,0.8l0,0l0,0v0
			c-0.1,0.1-0.2,0.3-0.3,0.4c-0.1,0-0.2,0.1-0.3,0.1l-0.1,0.1c-0.1,0.1-0.2,0.1-0.2,0l-0.1-0.1C75.3,46.1,75.4,45.9,75.5,45.8z
			 M45.9,46.4L45.9,46.4L45.9,46.4c0.2-0.3,0.4-0.4,0.7-0.6l0,0c0.1-0.1,0.3-0.2,0.4-0.3c0.1,0,0.3,0,0.4,0.1l0.1,0v0l0.1,0
			c0,0,0,0.1,0,0.1c0,0.1-0.1,0.2-0.1,0.4c-0.1,0.1-0.2,0.2-0.3,0.3c-0.2,0.1-0.4,0.2-0.6,0.3c-0.2,0.1-0.3,0.2-0.5,0.2
			c0,0,0,0-0.1,0c-0.1,0-0.2,0-0.3-0.1C45.8,46.7,45.8,46.6,45.9,46.4z M27.2,46.3c-0.2-0.1-0.3,0-0.4,0.1l0,0
			c-0.1,0.1-0.1,0.1-0.2,0.1c-0.3,0.2-0.6,0.4-0.9,0.5l-0.5,0.2l-0.4,0.2c-0.1,0-0.1-0.1-0.2-0.1c-0.1-0.1-0.1-0.1-0.1-0.2
			c0,0,0-0.1,0-0.1c0-0.2,0.2-0.4,0.3-0.6l0.1-0.1h0c0.1-0.1,0.2-0.2,0.2-0.4l0.1-0.3l0,0c0.2-0.3,0.3-0.5,0.5-0.7l0,0
			c0.3-0.3,0.5-0.6,0.7-1c0,0,0.1,0,0.1,0c0.1,0,0.1-0.1,0.1-0.1c0-0.2,0.1-0.3,0.3-0.4c0.1-0.1,0.2-0.2,0.3-0.4c0,0,0,0,0,0
			c0,0,0,0,0,0c0,0,0-0.1,0.1-0.2c0-0.1,0-0.1,0-0.2c0-0.1,0.1-0.1,0.2-0.2c0.1-0.1,0.2-0.1,0.2-0.2c0.3-0.3,0.6-0.2,1-0.2
			c0.3,0,0.7,0.1,1-0.2c0.3,0.2,0.6,0.1,0.9,0l0,0l0.4,0.1c0.4,0,0.7,0.1,1,0.3c0.1,0.1,0.1,0.2,0.1,0.3c0,0.2-0.1,0.3-0.1,0.4
			c-0.1,0.1-0.1,0.2-0.1,0.4c-0.2,0.1-0.4,0.3-0.5,0.4L31.2,44c-0.2,0.2-0.5,0.4-0.9,0.5c0,0,0,0.1,0,0.1c0,0,0,0.1,0,0.1
			c-0.2,0.1-0.5,0.2-0.7,0.3l0,0l-0.9,0.5l-0.4,0.2C27.9,45.9,27.6,46.1,27.2,46.3z M34.7,47.4c0,0,0,0.1-0.1,0.1c0,0,0,0.1,0,0.1
			c-0.2,0.1-0.3,0.1-0.4,0.3l0,0c-0.1,0.1-0.3,0.3-0.4,0.4l-0.1,0.1l-0.1,0.1l0,0c-0.2,0.2-0.5,0.4-0.7,0.6l0,0l-0.2,0.2
			c-0.2,0.2-0.4,0.4-0.6,0.6l-0.3,0.3c-0.1,0.1-0.2,0.3-0.3,0.4l0,0c-0.2,0.1-0.3,0.3-0.4,0.5c0,0-0.1,0-0.1,0c-0.1,0-0.1,0-0.2-0.1
			c0-0.1,0-0.3,0.1-0.4c0.1-0.2,0.2-0.4,0.3-0.6l0,0h0c0.2-0.3,0.4-0.5,0.6-0.7l0,0c0.1-0.1,0.3-0.3,0.3-0.3l0.3-0.4h0
			c0.1-0.1,0.3-0.3,0.4-0.5l0.1-0.1l0,0h0c0,0,0.1-0.1,0.1-0.1c0.1-0.2,0.2-0.4,0.4-0.4c0.3,0.1,0.5,0,0.7-0.2l0.2-0.1
			c0.1,0,0.1-0.1,0.2-0.1c0.1,0,0.1,0,0.2,0.1l0.1,0.1c0,0,0,0,0,0C34.7,47.3,34.7,47.3,34.7,47.4z M40.7,48.5
			c-0.2,0.2-0.4,0.4-0.6,0.6c0,0,0,0-0.1,0c0,0,0,0-0.1,0h0c-0.1,0-0.1,0.1-0.1,0.1c-0.1,0.1-0.2,0.2-0.3,0.1h0l0,0
			c-0.1,0.2-0.3,0.4-0.6,0.5h-0.1c-0.1,0-0.1-0.1-0.1-0.2l0-0.1c0-0.1,0.1-0.2,0.1-0.3l0.1-0.2h0c0,0,0-0.1,0-0.1c0,0,0-0.1,0-0.1
			c0.1-0.1,0.2-0.2,0.3-0.3l0.1-0.1h0c0,0,0.1-0.1,0.1-0.1c0-0.1,0-0.1,0.1-0.2l0.2-0.1l0.3-0.2c0.2-0.1,0.4-0.3,0.5-0.5
			c0.1-0.1,0.3-0.2,0.4-0.2l0,0l0,0c0.4-0.3,0.8-0.5,1.3-0.4c0,0,0.1,0.2,0.1,0.2c0,0.1,0,0.2-0.1,0.2l-0.2,0.1
			c-0.1,0.1-0.3,0.2-0.3,0.4l-0.3,0.3l0,0l-0.4,0.3L40.7,48.5z M68.8,47.5c0,0.1-0.1,0.2-0.2,0.3l-0.1,0.1c-0.1,0.1-0.2,0.3-0.2,0.5
			v0l0,0l-0.1,0c-0.1,0.1-0.2,0.2-0.2,0.3c0,0,0,0,0,0l-0.2,0.2c-0.3,0.3-0.5,0.5-0.8,0.8l0,0l-0.1,0.1c-0.1-0.1-0.2,0-0.2,0.1
			c0,0-0.1,0.1-0.1,0.1c-0.1-0.1-0.2-0.2-0.2-0.3c0-0.1,0-0.1,0-0.2c0-0.1,0-0.1,0-0.2l0,0l0.1-0.1l0.1-0.2c0.1-0.1,0.4-0.6,0.4-0.6
			l0,0c0.2-0.2,0.3-0.4,0.5-0.6l0,0c0.2-0.3,0.5-0.5,0.8-0.7c0.1,0,0.3,0,0.4,0.1c0,0,0,0,0,0c0,0,0,0,0,0.1
			C68.7,47.4,68.7,47.4,68.8,47.5C68.8,47.5,68.8,47.5,68.8,47.5L68.8,47.5L68.8,47.5z M73.1,51.1L73.1,51.1L73.1,51.1L73,51.2h0
			c0,0,0,0,0,0.1c0,0,0,0,0,0.1c0,0.1,0,0.2,0,0.3c0,0.1,0,0.2,0,0.3c-0.1,0.1-0.1,0.1-0.1,0.2l0,0v0v0l0,0.2c0,0.2,0,0.4-0.2,0.5
			c0,0-0.1,0-0.1-0.1c0,0-0.1-0.1-0.1-0.1c0-0.1-0.1-0.1-0.1-0.2c0-0.1,0-0.2-0.1-0.4v0v0l0-0.1c-0.1-0.3-0.2-0.6-0.1-0.9l0,0
			c0,0,0,0,0,0c0.1-0.1,0.2-0.1,0.3-0.2c0.1,0,0.3-0.1,0.4-0.2c0,0,0.1,0.1,0.2,0.1c0.1,0,0.2,0,0.2,0.1c0,0,0,0,0,0.1
			C73.1,51,73.1,51,73.1,51.1z"/>
	</g>
</g>
</svg>
