<?xml version="1.0" encoding="utf-8"?>
<svg version="1.1" id="Layer_1" xmlns="http://www.w3.org/2000/svg" xmlns:xlink="http://www.w3.org/1999/xlink" x="0px" y="0px"
	width="100px" height="100px" viewBox="0 0 491.87 522.94" style="enable-background:new 0 0 491.87 522.94;" xml:space="preserve">
<g id="MSM_Logo_Transparent">
	
		<linearGradient id="Shape-1_1_" gradientUnits="userSpaceOnUse" x1="-719.5809" y1="905.5979" x2="-719.393" y2="905.7546" gradientTransform="matrix(1868 0 0 -1986.0001 1344240.5 1798942.125)">
		<stop  offset="0" style="stop-color:#776FB1"/>
		<stop  offset="1" style="stop-color:#B0117D"/>
	</linearGradient>
	<path id="Shape-1" style="fill:url(#Shape-1_1_);fill-opacity:0.3;" d="M108.56,55.67C57.63,170.4-47.83,283.28,24.66,402.12l0,0
		c72.49,118.84,227.59,156.41,346.41,83.92l0,0c118.82-72.5,156.38-227.61,83.9-346.45l0,0C407.23,61.33,294.23,0.01,208.08,0l0,0
		C163.4-0.01,125.95,16.49,108.56,55.67"/>
	
		<linearGradient id="Shape-2_1_" gradientUnits="userSpaceOnUse" x1="-719.5727" y1="905.6085" x2="-719.3832" y2="905.7637" gradientTransform="matrix(1724 0 0 -1809 1240633.5 1638668)">
		<stop  offset="0" style="stop-color:#776FB1"/>
		<stop  offset="1" style="stop-color:#B0117D"/>
	</linearGradient>
	<path id="Shape-2" style="opacity:0.4;fill:url(#Shape-2_1_);enable-background:new    ;" d="M467.61,221.71
		C440.67,101.48,279.43-28.63,200.52,44.24c-1.69,1.56-3.35,3.21-4.96,4.96c-22.62,24.54-49.23,47.58-74.83,70.99
		C59.31,176.37,3.74,234.74,23.16,321.42c27.52,122.81,149.32,200.05,272.05,172.52C417.94,466.4,495.13,344.52,467.61,221.71"/>
	
		<linearGradient id="Fill-1_2_" gradientUnits="userSpaceOnUse" x1="-719.4355" y1="904.4201" x2="-718.1375" y2="905.3851" gradientTransform="matrix(305.525 0 0 -290.7341 219715.5625 263198.125)">
		<stop  offset="0" style="stop-color:#776FB1"/>
		<stop  offset="1" style="stop-color:#B0117D"/>
	</linearGradient>
	<path id="Fill-1" style="fill:url(#Fill-1_2_);fill-opacity:0.62;" d="M200.81,43.98c-28.55,3.24-51.71,16.49-63.49,42.64
		c-5.01,11.13-10.98,22.83-16.96,33.92c25.54-23.35,52.8-46.9,75.15-71.56C197.12,47.22,199.11,45.54,200.81,43.98z"/>
	
		<linearGradient id="Fill-4_1_" gradientUnits="userSpaceOnUse" x1="-719.5705" y1="905.6203" x2="-719.3823" y2="905.7771" gradientTransform="matrix(1473.8253 0 0 -1566.1719 1060626.625 1418741.75)">
		<stop  offset="0" style="stop-color:#776FB1"/>
		<stop  offset="1" style="stop-color:#B0117D"/>
	</linearGradient>
	<path id="Fill-4" style="fill:url(#Fill-4_1_);fill-opacity:0.7;" d="M69.62,359.37c56.63,94.01,178.77,124.31,272.79,67.69
		c94.02-56.63,124.32-178.74,67.69-272.76C369.88,87.53,269.72,35.98,200.47,44.01c-1.69,1.56-3.35,3.21-4.97,4.96
		c-22.63,24.53-49.25,47.56-74.86,70.96C78.15,198.76,19.98,276.95,69.62,359.37"/>
	
		<linearGradient id="Shape-4_1_" gradientUnits="userSpaceOnUse" x1="-719.6112" y1="905.6083" x2="-719.3767" y2="905.8001" gradientTransform="matrix(1323 0 0 -1395 952103.4375 1263747)">
		<stop  offset="0" style="stop-color:#776FB1"/>
		<stop  offset="1" style="stop-color:#B0117D"/>
	</linearGradient>
	<path id="Shape-4" style="opacity:0.75;fill:url(#Shape-4_1_);enable-background:new    ;" d="M237.45,66.09
		c-21.38,0.06-40.25,7.83-53.38,25.82l0,0C140.12,152.18,69.34,205.71,69.25,276.95l0,0v0.25c0.01,12.23,2.11,24.97,6.78,38.37l0,0
		c25.25,72.39,93.13,117.77,165.7,117.85l0,0h0.33c19.14-0.01,38.59-3.18,57.68-9.84l0,0c91.6-31.93,139.97-132.06,108.03-223.66
		l0,0c-23.74-68.06-107.3-133.65-169.81-133.83l0,0H237.45z"/>
	<g id="Type" transform="translate(480.455659, 640.055600)">
		<path id="Fill-1_1_" style="fill:#FFFFFF;" d="M-354.04-421.13l4.57-47.82c0.15-1.75,1.14-2.59,2.82-2.59h4.03
			c1.52,0,2.51,0.61,3.12,2.13l16.59,39.67l16.52-39.67c0.69-1.52,1.6-2.13,3.2-2.13h3.96c1.75,0,2.74,0.84,2.89,2.59l4.49,47.82
			c0.15,1.9-0.84,2.89-2.66,2.89h-2.51c-1.75,0-2.82-0.84-2.97-2.59l-3.27-38.45l-15.83,38.22c-0.61,1.45-1.6,2.13-3.2,2.13h-1.29
			c-1.6,0-2.51-0.69-3.12-2.13l-15.83-38.22l-3.35,38.45c-0.15,1.75-1.14,2.59-2.89,2.59h-2.51
			C-353.12-418.24-354.19-419.22-354.04-421.13"/>
		<path id="Fill-3" style="fill:#FFFFFF;" d="M-251.73-437.27c0-7.23-5.48-13.1-12.41-13.1c-6.77,0-12.33,5.86-12.33,13.1
			s5.56,13.02,12.33,13.02C-257.22-424.25-251.73-430.04-251.73-437.27 M-284.24-437.35c0-10.96,8.98-19.87,20.1-19.87
			c11.19,0,20.25,8.99,20.25,19.87c0,11.04-9.06,19.95-20.25,19.95C-275.26-417.4-284.24-426.23-284.24-437.35"/>
		<path id="Fill-5" style="fill:#FFFFFF;" d="M-235.69-420.98v-32.66c0-1.75,1.07-2.74,2.82-2.74h2.28c1.75,0,2.74,0.99,2.74,2.74
			v4.72c1.67-5.33,6.55-8.3,12.71-8.3c8.45,0,14.62,5.48,14.62,17.44v18.81c0,1.75-1.07,2.74-2.82,2.74h-2.28
			c-1.75,0-2.74-0.99-2.74-2.74v-18.73c0-7.84-3.58-10.66-7.61-10.66c-3.96,0-11.88,2.66-11.88,14.24v15.15
			c0,1.75-0.99,2.74-2.74,2.74h-2.28C-234.62-418.24-235.69-419.23-235.69-420.98"/>
		<path id="Fill-7" style="fill:#FFFFFF;" d="M-159.87-442.3c-1.98-6.78-7.31-8.22-11.5-8.22c-4.41,0-9.9,1.75-12.26,8.22H-159.87z
			 M-192.07-437.19c0-11.12,8.68-20.03,20.55-20.03c9.59,0,18.34,5.71,19.41,17.89c0.23,1.83-0.84,2.82-2.66,2.82h-29.54
			c-0.23,7.08,5.63,12.26,13.93,12.26c3.73,0,7.08-0.99,10.35-3.2c1.45-0.91,2.66-0.84,3.88,0.38l0.53,0.61
			c1.22,1.29,1.22,2.89-0.53,4.34c-4.42,3.58-9.52,4.72-14.31,4.72C-183.85-417.4-192.07-426.31-192.07-437.19L-192.07-437.19z"/>
		<path id="Fill-9" style="fill:#FFFFFF;" d="M-139.55-404.38l5.86-15.3l-14.62-33.5c-0.84-1.9,0.08-3.2,2.13-3.2h3.04
			c1.6,0,2.59,0.69,3.12,2.13l10.58,25.81l9.74-25.74c0.53-1.52,1.67-2.21,3.27-2.21h3.12c2.06,0,2.97,1.22,2.13,3.2l-21.24,49.87
			c-0.61,1.52-1.6,2.13-3.2,2.13h-1.83C-139.47-401.18-140.31-402.47-139.55-404.38"/>
		<g id="Group-13" transform="translate(0.000000, 225.770873)">
			<g id="Clip-12">
			</g>
			<defs>
				<filter id="Adobe_OpacityMaskFilter" filterUnits="userSpaceOnUse" x="-354.07" y="-637.76" width="37.88" height="54.97">
					<feColorMatrix  type="matrix" values="1 0 0 0 0  0 1 0 0 0  0 0 1 0 0  0 0 0 1 0"/>
				</filter>
			</defs>
			<mask maskUnits="userSpaceOnUse" x="-354.07" y="-637.76" width="37.88" height="54.97" id="mask-7_2_">
				<g style="filter:url(#Adobe_OpacityMaskFilter);">
					<polygon id="path-6_2_" style="fill:#FFFFFF;" points="-354.06,-637.76 -316.19,-637.76 -316.19,-582.78 -354.06,-582.78 					
						"/>
				</g>
			</mask>
			<path id="Fill-11" style="mask:url(#mask-7_2_);fill:#FFFFFF;" d="M-353.79-593.6c-0.76-1.68,0.15-2.97,1.83-3.43l2.21-0.53
				c1.67-0.38,2.59,0.23,3.42,1.83c1.9,3.27,5.94,5.86,11.27,5.86c6.85,0,11.04-3.35,11.04-7.92c0-4.04-3.35-6.55-7.69-8.15
				l-7.92-2.67c-10.05-3.35-12.48-9.37-12.48-14.31c0-9.21,8.07-14.85,17.28-14.85c8.37,0,14.31,4.03,16.75,10.05
				c0.69,1.68-0.15,2.97-1.83,3.43l-1.9,0.61c-1.68,0.46-2.74-0.15-3.5-1.75c-1.75-3.5-5.02-5.18-9.44-5.18
				c-5.02,0-9.21,2.74-9.21,7.46c0,2.21,0.68,5.1,6.77,7.39l7.92,2.97c8.98,2.82,13.09,8.76,13.09,14.47
				c0,9.59-7.61,15.53-18.73,15.53C-344.35-582.78-351.05-587.35-353.79-593.6"/>
		</g>
		<path id="Fill-14" style="fill:#FFFFFF;" d="M-308.05-374.45v-18.81c0-1.75,0.99-2.74,2.74-2.74h2.28c1.75,0,2.82,0.99,2.82,2.74
			v18.73c0,7.77,3.5,10.66,7.54,10.66c3.96,0,11.88-2.74,11.88-14.24v-15.15c0-1.75,0.99-2.74,2.74-2.74h2.28
			c1.75,0,2.82,0.99,2.82,2.74v32.66c0,1.75-1.07,2.74-2.82,2.74h-2.28c-1.75,0-2.74-0.99-2.74-2.74v-4.72
			c-1.67,5.33-6.55,8.3-12.71,8.3C-301.96-357.01-308.05-362.5-308.05-374.45"/>
		<path id="Fill-16" style="fill:#FFFFFF;" d="M-231.65-376.96c0-7.08-4.42-13.1-12.18-13.1c-7.46,0-12.64,5.56-12.71,13.1
			c0.08,7.54,5.25,13.1,12.71,13.1C-236.07-363.87-231.65-369.8-231.65-376.96 M-264.23-343.54v-49.72c0-1.75,1.07-2.74,2.81-2.74
			h2.28c1.75,0,2.74,0.99,2.74,2.74v3.28c3.58-5.1,8.6-6.85,13.7-6.85c11.34,0,18.88,8.91,18.88,19.87
			c0,10.96-7.54,19.95-18.88,19.95c-5.1,0-10.12-1.75-13.7-6.85v20.33c0,1.75-0.99,2.74-2.74,2.74h-2.28
			C-263.17-340.8-264.23-341.79-264.23-343.54"/>
		<path id="Fill-18" style="fill:#FFFFFF;" d="M-184.43-381.91c-1.98-6.78-7.31-8.22-11.49-8.22c-4.41,0-9.9,1.75-12.26,8.22
			H-184.43z M-216.63-376.81c0-11.12,8.68-20.02,20.55-20.02c9.59,0,18.35,5.71,19.41,17.89c0.23,1.83-0.84,2.82-2.66,2.82h-29.54
			c-0.23,7.08,5.63,12.26,13.93,12.26c3.73,0,7.08-0.99,10.35-3.2c1.45-0.91,2.66-0.84,3.88,0.38l0.53,0.61
			c1.22,1.29,1.22,2.89-0.53,4.34c-4.42,3.58-9.52,4.72-14.31,4.72C-208.41-357.01-216.63-365.92-216.63-376.81L-216.63-376.81z"/>
		<path id="Fill-20" style="fill:#FFFFFF;" d="M-168.71-360.59v-32.66c0-1.75,1.07-2.74,2.82-2.74h2.28c1.75,0,2.74,0.99,2.74,2.74
			v5.79c1.29-6.09,5.63-9.37,10.2-9.37l1.67,0.08c1.6,0.23,1.83,1.52,1.83,3.05v2.21c0,1.9-0.76,2.67-2.06,2.36
			c-0.69-0.15-1.37-0.23-2.06-0.23c-2.74,0-9.59,1.37-9.59,16.98v11.8c0,1.75-0.99,2.74-2.74,2.74h-2.28
			C-167.64-357.85-168.71-358.84-168.71-360.59"/>
		<path id="Fill-22" style="fill:#FFFFFF;" d="M-354.05-296.88l4.57-47.82c0.15-1.75,1.14-2.59,2.82-2.59h4.03
			c1.52,0,2.51,0.61,3.12,2.13l16.59,39.67l16.52-39.67c0.68-1.52,1.6-2.13,3.2-2.13h3.96c1.75,0,2.74,0.84,2.89,2.59l4.49,47.82
			c0.15,1.9-0.84,2.89-2.66,2.89h-2.51c-1.75,0-2.82-0.84-2.97-2.59l-3.27-38.45l-15.83,38.22c-0.61,1.45-1.6,2.13-3.2,2.13h-1.29
			c-1.6,0-2.51-0.69-3.12-2.13l-15.83-38.22l-3.35,38.45c-0.15,1.75-1.14,2.59-2.89,2.59h-2.51
			C-353.14-293.99-354.2-294.98-354.05-296.88"/>
		<path id="Fill-24" style="fill:#FFFFFF;" d="M-252.52-313.1c-0.08-7.54-5.18-13.1-12.71-13.1c-7.69,0-12.11,6.02-12.11,13.1
			c0,7.16,4.42,13.1,12.11,13.1C-257.69-300-252.59-305.56-252.52-313.1 M-285.17-313.1c0-10.96,7.54-19.87,18.88-19.87
			c5.1,0,10.05,1.75,13.63,6.85v-3.27c0-1.75,1.07-2.74,2.82-2.74h2.28c1.75,0,2.74,0.99,2.74,2.74v32.66
			c0,1.75-0.99,2.74-2.74,2.74h-2.28c-1.75,0-2.82-0.99-2.82-2.74V-300c-3.58,5.1-8.53,6.85-13.63,6.85
			C-277.64-293.15-285.17-302.13-285.17-313.1"/>
		<path id="Fill-26" style="fill:#FFFFFF;" d="M-235.76-296.73v-32.66c0-1.75,1.07-2.74,2.82-2.74h2.28c1.75,0,2.74,0.99,2.74,2.74
			v5.79c1.29-6.09,5.63-9.37,10.2-9.37l1.67,0.08c1.6,0.23,1.83,1.52,1.83,3.04v2.21c0,1.9-0.76,2.67-2.06,2.36
			c-0.69-0.15-1.37-0.23-2.06-0.23c-2.74,0-9.59,1.37-9.59,16.98v11.8c0,1.75-0.99,2.74-2.74,2.74h-2.28
			C-234.69-293.99-235.76-294.98-235.76-296.73"/>
		<path id="Fill-28" style="fill:#FFFFFF;" d="M-191.6-301.37l-7.46-12.11v16.75c0,1.75-0.99,2.74-2.74,2.74h-2.28
			c-1.75,0-2.82-0.99-2.82-2.74v-49.57c0-1.75,1.07-2.74,2.82-2.74h2.28c1.75,0,2.74,0.99,2.74,2.74v30.15l11.65-14.39
			c0.84-1.14,1.9-1.6,3.35-1.6h2.89c2.44,0,3.12,1.52,1.6,3.35l-11.72,14.16l6.32,9.67c2.21,3.12,3.27,5.02,6.62,5.02
			c0.61,0,2.06-0.08,3.43-0.69c1.07-0.38,1.67-0.23,2.21,0.69l1.22,2.44c0.38,0.91,0,2.21-1.9,3.12c-2.59,1.22-5.17,1.22-5.94,1.22
			C-186.65-293.15-189.24-297.95-191.6-301.37"/>
		<path id="Fill-30" style="fill:#FFFFFF;" d="M-137.59-318.05c-1.98-6.78-7.31-8.22-11.49-8.22c-4.41,0-9.9,1.75-12.26,8.22
			H-137.59z M-169.79-312.95c0-11.12,8.68-20.03,20.55-20.03c9.59,0,18.34,5.71,19.41,17.89c0.23,1.83-0.84,2.82-2.66,2.82h-29.54
			c-0.23,7.08,5.63,12.26,13.93,12.26c3.73,0,7.08-0.99,10.35-3.2c1.45-0.91,2.66-0.84,3.88,0.38l0.53,0.61
			c1.22,1.29,1.22,2.89-0.53,4.34c-4.42,3.58-9.52,4.72-14.31,4.72C-161.57-293.15-169.79-302.06-169.79-312.95L-169.79-312.95z"/>
		<g id="Group-34" transform="translate(865.280000, 487.736191)">
			<g id="Clip-33">
			</g>
			<defs>
				<filter id="Adobe_OpacityMaskFilter_1_" filterUnits="userSpaceOnUse" x="-991.43" y="-830.83" width="29.78" height="50.11">
					<feColorMatrix  type="matrix" values="1 0 0 0 0  0 1 0 0 0  0 0 1 0 0  0 0 0 1 0"/>
				</filter>
			</defs>
			<mask maskUnits="userSpaceOnUse" x="-991.43" y="-830.83" width="29.78" height="50.11" id="mask-9_2_">
				<g style="filter:url(#Adobe_OpacityMaskFilter_1_);">
					<polygon id="path-8_2_" style="fill:#FFFFFF;" points="-991.43,-830.83 -961.65,-830.83 -961.65,-780.73 -991.43,-780.73 					
						"/>
				</g>
			</mask>
			<path id="Fill-32" style="mask:url(#mask-9_2_);fill:#FFFFFF;" d="M-961.95-793.48c-0.15-0.99-0.84-1.37-1.76-1.37h-3.51
				c-1.07,0-1.53,0.69-1.37,1.76c0.15,0.61,0.15,1.15,0.15,1.45c0,2.75-2.14,4.13-4.51,4.13c-2.44,0-4.43-1.6-4.43-5.73v-20.47
				h10.46c0.99,0,1.53-0.61,1.53-1.6v-2.98c0-0.99-0.53-1.53-1.53-1.53h-10.46v-0.02c0-0.01,0-0.01,0-0.02v-8.21
				c0-0.01,0-0.01,0-0.02v-0.36c0-1.45-0.84-2.37-2.29-2.37h-0.46h-1.15h-1.14c-1.76,0-2.82,0.99-2.82,2.75v8.21
				c0,0.01,0,0.02,0,0.04h-4.66c-0.99,0-1.53,0.54-1.53,1.53v2.98c0,0.99,0.53,1.6,1.53,1.6h4.66v20.01
				c0,9.85,6.03,12.99,12.14,12.99c7.33,0,11.45-4.2,11.45-9.93C-961.65-790.73-961.65-792.19-961.95-793.48"/>
		</g>
	</g>
</g>
</svg>
