<?xml version="1.0"?>
<svg xmlns="http://www.w3.org/2000/svg" xmlns:xlink="http://www.w3.org/1999/xlink" xmlns:svgjs="http://svgjs.com/svgjs" version="1.1" width="512" height="512" x="0" y="0" viewBox="0 0 512 512" style="enable-background:new 0 0 512 512" xml:space="preserve" class=""><g>
<g xmlns="http://www.w3.org/2000/svg" id="surface1">
<path d="M 512 256 C 512 397.386719 397.386719 512 256 512 C 114.613281 512 0 397.386719 0 256 C 0 114.613281 114.613281 0 256 0 C 397.386719 0 512 114.613281 512 256 Z M 512 256 " style="" fill="#f1f1f1" data-original="#09ce67" class=""/>
<path d="M 512 256 C 512 251.691406 511.890625 247.40625 511.679688 243.148438 L 390 121.46875 L 88.234375 405.664062 L 184.410156 501.839844 C 207.132812 508.445312 231.148438 512 256 512 C 397.386719 512 512 397.386719 512 256 Z M 512 256 " style="" fill="#f1f1f1" data-original="#1aad5c" class=""/>
<path d="M 321 52.46875 L 122 52.46875 L 122 394.46875 L 390 394.46875 L 390 121.46875 Z M 321 52.46875 " style="" fill="#acbdac" data-original="#ffffff" class=""/>
<path d="M 390 121.46875 L 321 52.46875 L 255.761719 52.46875 L 255.761719 394.46875 L 390 394.46875 Z M 390 121.46875 " style="" fill="#b1bacd" data-original="#e9edf5" class=""/>
<path d="M 321 121.46875 L 390 121.46875 L 321 52.46875 Z M 321 121.46875 " style="" fill="#a3d4ff" data-original="#a3d4ff"/>
<path d="M 216.328125 197 L 190.828125 158 L 88.234375 158 L 88.234375 405.664062 L 423.765625 405.664062 L 423.765625 197 Z M 216.328125 197 " style="" fill="#ffd400" data-original="#ffd400" class=""/>
<path d="M 255.761719 197 L 423.765625 197 L 423.765625 405.664062 L 255.761719 405.664062 Z M 255.761719 197 " style="" fill="#fdba12" data-original="#fdba12" class=""/>
<path d="M 218.535156 263.363281 L 134.867188 263.363281 L 134.867188 287.714844 L 164.523438 287.714844 L 164.523438 348.136719 L 188.878906 348.136719 L 188.878906 287.714844 L 218.535156 287.714844 Z M 218.535156 263.363281 " style="" fill="#414952" data-original="#414952" class=""/>
<path d="M 377.132812 264.464844 L 350.910156 264.464844 L 339.046875 285.113281 L 327.183594 264.464844 L 300.957031 264.46875 L 324.996094 306.300781 L 300.957031 348.136719 L 327.183594 348.136719 L 339.046875 327.488281 L 350.910156 348.136719 L 377.132812 348.136719 L 353.09375 306.300781 Z M 377.132812 264.464844 " style="" fill="#333940" data-original="#333940" class=""/>
<path d="M 271.609375 348.136719 L 295.960938 348.136719 L 272.859375 264.46875 L 236.019531 264.46875 L 212.914062 348.136719 L 237.269531 348.136719 L 243.140625 326.871094 L 265.738281 326.871094 Z M 247.832031 309.882812 L 254.4375 285.949219 L 261.046875 309.882812 Z M 247.832031 309.882812 " style="" fill="#414952" data-original="#414952" class=""/>
<path d="M 272.859375 264.46875 L 255.761719 264.46875 L 255.761719 290.738281 L 261.046875 309.882812 L 255.761719 309.882812 L 255.761719 326.871094 L 265.738281 326.871094 L 271.609375 348.136719 L 295.960938 348.136719 Z M 272.859375 264.46875 " style="" fill="#333940" data-original="#333940" class=""/>
</g>
</g></svg>
