<?xml version="1.0"?>
<svg xmlns="http://www.w3.org/2000/svg" xmlns:xlink="http://www.w3.org/1999/xlink" xmlns:svgjs="http://svgjs.com/svgjs" version="1.1" width="512" height="512" x="0" y="0" viewBox="0 0 512 512" style="enable-background:new 0 0 512 512" xml:space="preserve" class=""><g><path xmlns="http://www.w3.org/2000/svg" d="m512 256c0 141.386719-114.613281 256-256 256s-256-114.613281-256-256 114.613281-256 256-256 256 114.613281 256 256zm0 0" fill="#f1f1f1" data-original="#ececf1" style="" class=""/><path xmlns="http://www.w3.org/2000/svg" d="m512 256c0-17.726562-1.804688-35.03125-5.234375-51.742188l-99.679687-99.679687-60.164063 60.167969-80.894531-80.894532-18.300782 18.304688 80.890626 80.890625-99.617188 43.953125-47 12.054688-25.5 43.945312-55.578125 6.0625-16.070313 16.066406 100.960938 100.960938-40.121094 20.0625 84.566406 84.5625c8.464844.847656 17.050782 1.285156 25.742188 1.285156 141.386719 0 256-114.613281 256-256zm0 0" fill="#f1f1f1" data-original="#e2e2e7" style="" class=""/><path xmlns="http://www.w3.org/2000/svg" d="m245.972656 295.113281h20.054688v121.003907h-20.054688zm0 0" fill="#5a5a5a" data-original="#5a5a5a" style="" class=""/><path xmlns="http://www.w3.org/2000/svg" d="m256 295.113281h10.027344v121.003907h-10.027344zm0 0" fill="#444444" data-original="#444444" style="" class=""/><path xmlns="http://www.w3.org/2000/svg" d="m327.011719 420.066406-51.574219-121.007812 18.433594-7.894532 51.570312 121.007813zm0 0" fill="#444444" data-original="#444444" style="" class=""/><path xmlns="http://www.w3.org/2000/svg" d="m184.988281 420.066406-18.429687-7.894531 51.570312-121.007813 18.433594 7.894532zm0 0" fill="#5a5a5a" data-original="#5a5a5a" style="" class=""/><path xmlns="http://www.w3.org/2000/svg" d="m201.648438 345.253906h108.703124v20.054688h-108.703124zm0 0" fill="#5a5a5a" data-original="#5a5a5a" style="" class=""/><path xmlns="http://www.w3.org/2000/svg" d="m256 345.253906h54.351562v20.054688h-54.351562zm0 0" fill="#444444" data-original="#444444" style="" class=""/><path xmlns="http://www.w3.org/2000/svg" d="m245.972656 83.851562h20.054688v30.753907h-20.054688zm0 0" fill="#5a5a5a" data-original="#5a5a5a" style="" class=""/><path xmlns="http://www.w3.org/2000/svg" d="m256 83.851562h10.027344v30.753907h-10.027344zm0 0" fill="#444444" data-original="#444444" style="" class=""/><path xmlns="http://www.w3.org/2000/svg" d="m407.089844 104.578125v134.375l-151.089844 6.621094-150.421875 6.417969v-147.414063zm0 0" fill="#78b9eb" data-original="#78b9eb" style="" class=""/><path xmlns="http://www.w3.org/2000/svg" d="m407.089844 104.578125v134.375l-151.089844 6.621094v-140.996094zm0 0" fill="#5aaae7" data-original="#5aaae7" style=""/><path xmlns="http://www.w3.org/2000/svg" d="m407.089844 238.953125v56.160156h-301.511719v-43.121093l110.710937-68.996094 39.710938 27.078125 45.128906 30.6875 55.152344-37.910157zm0 0" fill="#b9dd39" data-original="#b9dd39" style="" class=""/><path xmlns="http://www.w3.org/2000/svg" d="m407.089844 238.953125v56.160156h-151.089844v-85.039062l45.128906 30.6875 55.152344-37.910157zm0 0" fill="#a8d32a" data-original="#a8d32a" style="" class=""/><path xmlns="http://www.w3.org/2000/svg" d="m145.691406 406.089844h60.167969v20.058594h-60.167969zm0 0" fill="#6e6e6e" data-original="#6e6e6e" style="" class=""/><path xmlns="http://www.w3.org/2000/svg" d="m306.140625 406.089844h60.167969v20.058594h-60.167969zm0 0" fill="#5a5a5a" data-original="#5a5a5a" style="" class=""/><path xmlns="http://www.w3.org/2000/svg" d="m225.914062 406.089844h60.171876v20.058594h-60.171876zm0 0" fill="#6e6e6e" data-original="#6e6e6e" style="" class=""/><path xmlns="http://www.w3.org/2000/svg" d="m316.167969 184.804688c-16.589844 0-30.082031-13.496094-30.082031-30.085938s13.492187-30.082031 30.082031-30.082031c16.589843 0 30.085937 13.492187 30.085937 30.082031s-13.496094 30.085938-30.085937 30.085938zm0 0" fill="#ffd400" data-original="#ffd400" style="" class=""/><path xmlns="http://www.w3.org/2000/svg" d="m256 406.089844h30.085938v20.058594h-30.085938zm0 0" fill="#5a5a5a" data-original="#5a5a5a" style="" class=""/><path xmlns="http://www.w3.org/2000/svg" d="m84.851562 285.085938h342.296876v20.054687h-342.296876zm0 0" fill="#6e6e6e" data-original="#6e6e6e" style="" class=""/><path xmlns="http://www.w3.org/2000/svg" d="m256 285.085938h171.148438v20.054687h-171.148438zm0 0" fill="#5a5a5a" data-original="#5a5a5a" style="" class=""/></g></svg>
