<svg xmlns="http://www.w3.org/2000/svg" width="69" height="40" fill="none"><path fill-rule="evenodd" d="M55.262 0v30.074h-7.136V1.504L55.262 0zM34.945 32.924c1.971 0 3.568 1.584 3.568 3.538S36.915 40 34.945 40s-3.568-1.584-3.568-3.538 1.597-3.538 3.568-3.538zm0-24.383c6.075 0 11.011 4.885 11.011 10.919S41.02 30.378 34.945 30.378c-6.085 0-11.011-4.884-11.011-10.919S28.87 8.541 34.945 8.541zm0 14.457c1.972 0 3.568-1.582 3.568-3.538s-1.596-3.538-3.568-3.538-3.568 1.582-3.568 3.538 1.596 3.538 3.568 3.538zm-22.447 0c1.229 0 2.23-.993 2.23-2.211s-1.001-2.211-2.23-2.211H7.146v4.423h5.352zM7.146 7.076v4.423h3.964c1.229 0 2.23-.993 2.23-2.211s-1.001-2.211-2.23-2.211H7.146zm11.922 7.096c1.724 1.69 2.795 4.029 2.785 6.614 0 5.13-4.192 9.287-9.366 9.287H0V0h11.1c5.173 0 9.365 4.157 9.365 9.287 0 1.789-.505 3.469-1.397 4.885zM68.74 16.02h-3.558v5.553c0 1.681.545 2.919 1.972 2.919.922 0 1.596-.206 1.596-.206v5.209s-1.477.884-3.479.884h-.089c-.089 0-.169-.01-.258-.01h-.069c-.04 0-.089-.01-.129-.01-3.984-.206-6.69-2.693-6.69-7.007V5.042l7.136-1.504v5.405h3.568v7.076z" fill="#34d186"/></svg>