<?xml version="1.0" encoding="utf-8"?>
<svg version="1.1" id="Layer_1" xmlns="http://www.w3.org/2000/svg" xmlns:xlink="http://www.w3.org/1999/xlink" x="0px" y="0px"
	 viewBox="0 0 2500.1 653.8" style="enable-background:new 0 0 2500.1 653.8;" xml:space="preserve">
<g>
	<g id="D7nJt9.tif">
		<path style="fill:#880E27;" d="M514.5,292.1c0.5-61,13.3-110.9,40.6-156.3C589.3,79,637.2,38.1,700,15.6
			c24.4-8.7,49.6-13.3,75.6-14.4c64.9-2.7,123,16.1,174.3,55.6c37.7,29.1,66,65.8,85.2,109.5c11.9,27.1,20,55,23.1,84.4
			c6.9,66.2-5.6,128.3-40.5,185.5c-30.1,49.2-71.3,86.1-123.9,109.5c-30,13.5-61.7,20.5-94.8,21.9c-47.8,2-92.9-8.1-135.3-30.5
			c-38.5-20.4-70.1-48.6-95.4-84c-26-36.4-42.4-76.8-49.6-120.7C516.1,316.7,515.3,300.4,514.5,292.1z M787,160.5
			c-22.7-0.8-43.7,5.3-62.2,18c-44,29.9-62.4,71.8-55.8,124.3c6.4,51.2,44.2,92.9,94.2,103c44.2,9.1,82.5-4,112.2-37.8
			c30.3-34.5,38.2-75,26.3-119.4C888.2,198.3,839.8,158.7,787,160.5L787,160.5z M1978.9,554.3c2.1-7.3,3.9-13.5,5.7-19.5
			c18.7-61.3,37.4-122.6,56.2-183.9c21.9-71.3,43.7-142.5,65.4-213.8c11.5-37.3,22.9-74.6,33.9-112.1c2.1-7.1,5.2-10,12.8-9.9
			c58.1,0.5,116.3,0.7,174.6,0.7c5.1,0,6.4,2.4,7.6,6.3c8.8,28.7,17.7,57.2,26.5,85.7c19.7,63.6,39.6,127,59.3,190.6
			c19.1,61.7,38,123.4,57,185.1c6.7,21.5,13.5,42.8,20.1,64.1c0.7,2,1.2,4.1,2,7.1c-4.1,0.1-7.6,0.5-11.1,0.5
			c-50-0.3-100-0.5-149.9-0.7c-12.3,0-12.4,0-15.3-12c-5.6-23.1-11.3-46.1-16.7-69.2c-1.1-4.5-2.8-6.3-7.5-6.3
			c-37,0-74.1-0.4-111.3-0.5c-2.3,0-4.4,0.4-6.7,0.5c-13.9,1.1-13.9,1.1-17.2,14.8c-5.5,22.1-11.2,44.2-16.4,66.5
			c-1.3,5.5-3.6,6.8-9.2,6.5c-15.7-0.7-31.5-0.5-47.3-0.7L1978.9,554.3L1978.9,554.3z M2275.2,338.2c-12.8-56.8-25.5-112.5-38-168.1
			c-0.7,0.1-1.2,0.1-1.9,0.3c-12.9,55.8-26,111.5-39,167.9C2222.9,338.2,2248.6,338.2,2275.2,338.2L2275.2,338.2z M466.8,84.5
			c-36,37.4-71.6,74.4-107.3,111.5c-6.3-5.1-11.9-9.9-17.9-14.4c-45.3-33.9-110.5-28.1-151,11.9c-44.9,44.4-50.8,120.3-9.1,171
			c44.2,53.7,120.1,58.2,169.9,13.9c2-1.7,4.1-3.3,6.7-5.5c12.1,12.7,24,25.1,36,37.4c22.3,23.2,44.4,46.4,66.8,69.4
			c3.9,3.9,3.1,6.3-0.4,9.7c-39,39.2-85.8,63.8-140.2,73.6c-62.8,11.2-122.3,1.3-177.9-30.5C80.3,497.1,38.3,444.3,15.7,376.9
			c-23.7-70.5-20.3-140.7,8.8-209.2c14.9-35.2,36.5-66,64-92.4c36.9-35.6,80.6-59.2,131-69.6c61.3-12.8,120.1-4,175.8,24.3
			c25.5,12.9,47.8,30.3,68.2,50.2C464.5,81.3,465.3,82.5,466.8,84.5z M1165.5,607.1c16.3-14.3,32.7-26.8,47-41.4
			c25.3-25.6,43.7-55.2,47.8-92.1c2.8-25.3-2-49.4-13.9-71.4c-12.7-23.6-27.5-46-41.8-68.6c-18.8-29.5-35.7-59.7-42.5-94.6
			c-7.6-39.2-3.9-77.2,9.9-114.5c14.3-38.6,36.6-71.6,66.4-100c4.7-4.4,9.6-8.5,14.4-12.8c4.1-3.7,8.9-5.1,14.5-5.1
			c61,0.1,122.2,0.1,183.2,0.1c2.1,0,4.3,0.1,6.9,1.6c-6.3,4.5-12.7,8.9-18.8,13.7c-28.3,22-53.3,46.9-69,79.7
			c-22.7,47.2-25.3,95.7-2.9,143.4c12.9,27.6,29.5,53.6,45,79.7c20,33.2,38,67.2,45.2,105.8c6.8,36.5,2.3,71.6-13.9,105
			c-20.9,43.3-52.2,77.8-90.4,106.5c-19.6,14.7-19.6,13.9-43.4,6.8c-45.6-13.5-91.2-26.4-136.9-39.4
			C1170.4,608.7,1167.9,607.7,1165.5,607.1L1165.5,607.1z M1668.2,355.7c0-61.7,0.3-123.4-0.1-185.2c-0.1-15.3,2.4-13.2-12.9-13.3
			c-29.6-0.1-59-0.1-88.6-0.1c-4,0-7.2,0.3-7.2-5.7c0.4-43.3,0.5-86.6,0.5-129.9c0-5.3,1.7-6.8,6.9-6.8c119.7,0.3,239.4,0.4,359,0.4
			c6.4,0,8.1,1.9,8.1,8.3c-0.3,42.4-0.3,84.8,0,127.3c0,6-1.9,7.5-7.6,7.5c-31.1-0.3-62.2,0-93.3-0.3c-5.9,0-7.5,1.6-7.5,7.5
			c0.1,55-0.3,110.1-0.3,165.3c0,29.6,0.1,59,0,88.6c-0.1,29.7-0.5,59.4-0.7,89.3c0,13.1,0.3,26.1,0.7,39.3c0.3,5.3-1.7,6.8-6.9,6.8
			c-41.3-0.3-82.6-0.4-123.9-0.5c-7.1,0-14.3,0.1-21.3,0.4c-4,0.1-5.5-1.2-5.5-5.3c0.1-42,0-84,0-125.9v-67.3H1668.2L1668.2,355.7z"
			/>
	</g>
</g>
</svg>
