<?xml version="1.0" encoding="utf-8"?>
<svg version="1.1" id="Layer_1" xmlns="http://www.w3.org/2000/svg" xmlns:xlink="http://www.w3.org/1999/xlink" x="0px" y="0px"
	width="100px" height="100px" viewBox="0 0 616.2 616.2" style="enable-background:new 0 0 616.2 616.2;" xml:space="preserve">
<g>
	<circle style="fill:#E8E8E8;" cx="308.1" cy="308.1" r="308.1"/>
	<circle style="fill:#FFFFFF;" cx="308.1" cy="308.1" r="301.9"/>
	<g>
		<path style="fill:#FFFFFF;" d="M216.1,250H100l-58.1,58.1l58.1,58.1h116.1l58.2-58.1L216.1,250z"/>
		<g>
			<path style="fill:#DB0011;" d="M274.3,308.1L216.1,250v116.2L274.3,308.1z"/>
			<path style="fill:#DB0011;" d="M158.1,308.1l58-58.1H100L158.1,308.1z"/>
			<path style="fill:#DB0011;" d="M41.9,308.1l58.1,58.1V250L41.9,308.1z"/>
			<path style="fill:#DB0011;" d="M158.1,308.1L100,366.2h116.1L158.1,308.1z"/>
		</g>
		<path d="M325.2,311.6h-21.1v20.7h-10.5v-48.6h10.5v19.9h21.1v-19.9h10.5v48.6h-10.5V311.6z M361.1,333.4
			c-10.5,0-19.1-4.2-19.2-15.8h10.5c0.1,5.2,3.2,8.3,8.9,8.3c4.2,0,9.1-2.2,9.1-6.9c0-3.9-3.3-4.9-8.8-6.6l-3.5-0.9
			c-7.6-2.2-15.3-5.2-15.3-13.9c0-10.8,10.1-14.5,19.2-14.5c9.4,0,17.6,3.3,17.8,14.1h-10.5c-0.4-4.3-3-6.9-8-6.9
			c-4,0-7.7,2-7.7,6.4c0,3.5,3.3,4.7,10.1,6.8l4.1,1.2c8.3,2.6,13.7,5.5,13.7,13.7C381.5,329.2,370.7,333.4,361.1,333.4L361.1,333.4
			z M387.3,283.7h17c3.2-0.1,6.4,0,9.6,0.6c5.9,1.4,10.4,5.2,10.4,11.7c0,6.3-4,9.4-9.7,10.9c6.6,1.2,11.5,4.5,11.5,11.7
			c0,11-10.9,13.5-19.4,13.5h-19.1L387.3,283.7z M404.3,304c4.7,0,9.4-0.9,9.4-6.6c0-5-4.3-6.4-8.8-6.4h-7.4v13H404.3z M405.2,325.2
			c4.9,0,9.7-1.1,9.7-7.1c0-6.1-4.1-7.1-9.1-7.1h-8.3v14.2h7.7V325.2z M453.4,333.4c-15.7,0-22.7-10-22.7-24.8
			c0-14.9,7.7-25.7,23.2-25.7c9.7,0,19.1,4.3,19.4,15.3h-10.9c-0.6-4.9-3.9-7.4-8.4-7.4c-9.6,0-12.4,10.2-12.4,18
			s2.8,16.8,12.1,16.8c4.8,0,8.3-2.6,9-7.5h10.9C472.5,329.3,463.6,333.4,453.4,333.4L453.4,333.4z M511.6,333.3
			c-12.1,0-18.6-6.7-18.6-18.6v-30.9h4.7V313c0,3.9,0,7.6,2.2,10.9c2.6,4,7.4,5.6,11.8,5.6c5.3,0,10.5-2.3,12.9-7.4
			c1.1-2.8,1.5-6,1.2-9.1v-29.3h4.7v30.7C530.2,326.1,523.3,333.3,511.6,333.3L511.6,333.3z M539.8,283.7h4.3v48.6h-4.3V283.7z
			 M544.4,306.1l21.7-22.3h5.9l-22.3,22l24.6,26.8h-6L544.4,306.1L544.4,306.1z"/>
	</g>
</g>
</svg>
