<?xml version="1.0" encoding="utf-8"?>
<svg version="1.1" id="Layer_1" xmlns="http://www.w3.org/2000/svg" xmlns:xlink="http://www.w3.org/1999/xlink" x="0px" y="0px"
	width="100px" height="100px" viewBox="0 0 72.2 72.2" style="enable-background:new 0 0 72.2 72.2;" xml:space="preserve">
<g>
	<path style="fill:#057C85;" d="M72.2,36.1C72.2,56,56,72.2,36.1,72.2l0,0C16.2,72.2,0,56,0,36.1l0,0C0,16.2,16.2,0,36.1,0l0,0
		C56,0,72.2,16.2,72.2,36.1L72.2,36.1z"/>
	<path style="fill:#FEE600;" d="M35.3,9.5C26,9.5,18.8,17,18.8,25.8c0,7.8,5.1,12,5.1,12c0.5,0.4,0.4,0.6,0,1c0,0-5.1,4.6-5.1,11.8
		c0,9.9,7.9,16.5,16.5,16.5c9.6,0,16.4-7.8,16.4-16.4c0-7.4-4.9-11.8-4.9-11.8c-0.7-0.6-0.7-0.8,0-1.4c0,0,4.9-4.1,4.9-11.8
		C51.7,17,44.7,9.4,35.3,9.5L35.3,9.5L35.3,9.5C35.3,9.5,35.3,9.5,35.3,9.5z M31.6,17.9c0.4,0,0.9,0.2,1.1,0.6
		c0.6-0.9,1.9-0.8,2.3,0.1c0.5-1,1.9-1,2.5,0c0.6-1.3,2.5-0.9,2.5,0.6s-1.9,1.9-2.5,0.6c-0.5,1-1.9,1-2.5,0
		c-0.4,0.9-1.7,1.1-2.3,0.1c-0.1,0.1-0.2,0.3-0.4,0.4c0.6,0.4,0.8,1.2,0.4,1.8c-0.1,0.2-0.2,0.3-0.4,0.4c0.8,0.5,0.8,1.7,0,2.2
		c0.1,0.1,0.2,0.2,0.3,0.3c0.6-0.7,1.7-0.6,2.2,0.1c0.5-0.9,1.8-0.9,2.3,0c0.7-1.2,2.5-0.6,2.5,0.7c0,1.4-1.8,1.9-2.5,0.7
		c-0.5,0.9-1.8,0.9-2.3,0c-0.5,0.8-1.6,0.9-2.2,0.1c-0.1,0.1-0.1,0.2-0.3,0.3c0.8,0.5,0.8,1.7,0,2.2c0.6,0.4,0.8,1.2,0.4,1.8
		c-0.1,0.2-0.2,0.3-0.4,0.4c0.1,0.1,0.3,0.2,0.4,0.4c0.6-0.9,1.9-0.8,2.3,0.1c0.5-1,1.9-1,2.5,0C38,30.6,40,31,40,32.5
		c0,1.4-1.9,1.9-2.5,0.6c-0.5,1-1.9,1-2.5,0c-0.4,0.9-1.7,1.1-2.3,0.1c-0.4,0.7-1.4,0.8-2,0.2s-0.5-1.6,0.1-2.1
		c-0.6-0.4-0.8-1.2-0.4-1.8c0.1-0.2,0.2-0.3,0.4-0.4c-0.8-0.5-0.8-1.7,0-2.2c-0.6-0.4-0.8-1.2-0.4-1.8c0.1-0.2,0.2-0.3,0.4-0.4
		c-0.8-0.5-0.8-1.7,0-2.2c-0.6-0.4-0.8-1.2-0.4-1.8c0.1-0.2,0.2-0.3,0.4-0.4C29.8,19.6,30.3,17.9,31.6,17.9L31.6,17.9
		C31.6,17.9,31.6,17.9,31.6,17.9z M31.6,42.8c0.4,0,0.9,0.2,1.1,0.6c0.6-0.9,1.9-0.8,2.3,0.1c0.2-0.4,0.6-0.8,1.2-0.8
		c0.5,0,1,0.3,1.2,0.8c0.3-0.6,1.1-0.9,1.8-0.6c0.5,0.2,0.8,0.7,0.8,1.2c0,1.4-1.9,1.9-2.5,0.6c-0.5,1-1.9,1-2.5,0
		c-0.4,0.9-1.7,1.1-2.3,0.1c-0.1,0.1-0.2,0.3-0.4,0.4c0.6,0.4,0.8,1.2,0.4,1.8c-0.1,0.2-0.2,0.3-0.4,0.4c0.6,0.4,0.8,1.2,0.4,1.8
		c-0.1,0.2-0.2,0.3-0.4,0.4c0.1,0.1,0.2,0.2,0.3,0.3c0.6-0.7,1.7-0.6,2.2,0.1c0.5-0.9,1.7-0.9,2.3,0c0.7-1.2,2.5-0.6,2.5,0.7
		c0,1.4-1.8,1.9-2.5,0.7c-0.5,0.9-1.8,0.9-2.3,0c-0.5,0.8-1.6,0.9-2.2,0.1c-0.1,0.1-0.2,0.2-0.3,0.3c0.6,0.4,0.8,1.2,0.4,1.8
		c-0.1,0.2-0.2,0.3-0.4,0.4c0.6,0.4,0.8,1.2,0.4,1.8c-0.1,0.2-0.2,0.3-0.4,0.4c0.1,0.1,0.3,0.2,0.4,0.4c0.6-0.9,1.9-0.8,2.3,0.1
		c0.5-1,1.9-1,2.5,0c0.3-0.6,1.1-0.9,1.8-0.6c1.5,0.8,0.4,3-1.2,2.5c-0.3-0.1-0.5-0.4-0.6-0.6c-0.3,0.6-1.1,0.9-1.8,0.6
		c-0.3-0.1-0.5-0.4-0.6-0.6c-0.4,0.9-1.7,1.1-2.3,0.1c-0.2,0.4-0.6,0.6-1.2,0.6c-1.3,0-1.8-1.7-0.8-2.5c-0.6-0.4-0.8-1.2-0.4-1.8
		c0.1-0.2,0.2-0.3,0.4-0.4c-0.6-0.4-0.8-1.2-0.4-1.8c0.1-0.2,0.2-0.3,0.4-0.4c-0.6-0.4-0.8-1.2-0.4-1.8c0.1-0.2,0.2-0.3,0.4-0.4
		c-0.6-0.4-0.8-1.2-0.4-1.8c0.1-0.2,0.2-0.3,0.4-0.4c-0.6-0.4-0.8-1.2-0.4-1.8c0.1-0.2,0.2-0.3,0.4-0.4
		C29.7,44.4,30.3,42.8,31.6,42.8L31.6,42.8L31.6,42.8L31.6,42.8z"/>
</g>
</svg>
