<?xml version="1.0"?>
<svg xmlns="http://www.w3.org/2000/svg" xmlns:xlink="http://www.w3.org/1999/xlink" xmlns:svgjs="http://svgjs.com/svgjs" version="1.1" width="512" height="512" x="0" y="0" viewBox="0 0 512 512" style="enable-background:new 0 0 512 512" xml:space="preserve" class=""><g>
<circle xmlns="http://www.w3.org/2000/svg" style="" cx="256" cy="256" r="256" fill="#f1f1f1" data-original="#9330b2" class=""/>
<path xmlns="http://www.w3.org/2000/svg" style="" d="M512,256c0-18.768-2.038-37.057-5.872-54.676l-86.162-86.581  c-5.985-6.575-14.596-10.721-24.132-10.721H135.597c-17.967,0-32.667,14.7-32.667,32.667v152.105h-3.588  C86.471,288.794,76,299.265,76,312.136v50.176c0,11.855,5.298,22.493,13.647,29.68l115.168,114.885  C221.354,510.233,238.47,512,256,512C397.385,512,512,397.385,512,256z" fill="#f1f1f1" data-original="#4f0953" class=""/>
<path xmlns="http://www.w3.org/2000/svg" style="" d="M395.833,372.6H135.597c-17.967,0-32.667-14.7-32.667-32.667V136.689  c0-17.967,14.7-32.667,32.667-32.667h260.237c17.967,0,32.667,14.7,32.667,32.667v203.245C428.5,357.9,413.8,372.6,395.833,372.6z" fill="#ffb844" data-original="#ffb844"/>
<g xmlns="http://www.w3.org/2000/svg">
	<path style="" d="M428.5,136.69v203.24c0,17.97-14.7,32.67-32.67,32.67H265.72V104.02h130.11   C413.8,104.02,428.5,118.72,428.5,136.69z" fill="#ff7600" data-original="#ff7600"/>
	<path style="" d="M217.167,351.561h-78.164c-6.6,0-12-5.4-12-12v-202.5c0-6.6,5.4-12,12-12h78.164c6.6,0,12,5.4,12,12   v202.5C229.167,346.161,223.767,351.561,217.167,351.561z" fill="#ff7600" data-original="#ff7600"/>
</g>
<g xmlns="http://www.w3.org/2000/svg">
	<path style="" d="M304.521,226.298H296.5c-6.6,0-12-5.4-12-12v-3.405c0-6.6,5.4-12,12-12h8.021c6.6,0,12,5.4,12,12   v3.405C316.521,220.898,311.121,226.298,304.521,226.298z" fill="#ffe767" data-original="#ffe767"/>
	<path style="" d="M347.392,226.298h-8.021c-6.6,0-12-5.4-12-12v-3.405c0-6.6,5.4-12,12-12h8.021c6.6,0,12,5.4,12,12   v3.405C359.392,220.898,353.992,226.298,347.392,226.298z" fill="#ffe767" data-original="#ffe767"/>
	<path style="" d="M390.263,226.298h-8.021c-6.6,0-12-5.4-12-12v-3.405c0-6.6,5.4-12,12-12h8.021c6.6,0,12,5.4,12,12   v3.405C402.263,220.898,396.863,226.298,390.263,226.298z" fill="#ffe767" data-original="#ffe767"/>
	<path style="" d="M304.521,259.764H296.5c-6.6,0-12-5.4-12-12v-3.405c0-6.6,5.4-12,12-12h8.021c6.6,0,12,5.4,12,12   v3.405C316.521,254.364,311.121,259.764,304.521,259.764z" fill="#ffe767" data-original="#ffe767"/>
	<path style="" d="M347.392,259.764h-8.021c-6.6,0-12-5.4-12-12v-3.405c0-6.6,5.4-12,12-12h8.021c6.6,0,12,5.4,12,12   v3.405C359.392,254.364,353.992,259.764,347.392,259.764z" fill="#ffe767" data-original="#ffe767"/>
	<path style="" d="M390.263,259.764h-8.021c-6.6,0-12-5.4-12-12v-3.405c0-6.6,5.4-12,12-12h8.021c6.6,0,12,5.4,12,12   v3.405C402.263,254.364,396.863,259.764,390.263,259.764z" fill="#ffe767" data-original="#ffe767"/>
	<path style="" d="M304.521,293.23H296.5c-6.6,0-12-5.4-12-12v-3.405c0-6.6,5.4-12,12-12h8.021c6.6,0,12,5.4,12,12   v3.405C316.521,287.83,311.121,293.23,304.521,293.23z" fill="#ffe767" data-original="#ffe767"/>
	<path style="" d="M347.392,293.23h-8.021c-6.6,0-12-5.4-12-12v-3.405c0-6.6,5.4-12,12-12h8.021c6.6,0,12,5.4,12,12   v3.405C359.392,287.83,353.992,293.23,347.392,293.23z" fill="#ffe767" data-original="#ffe767"/>
	<path style="" d="M390.263,293.23h-8.021c-6.6,0-12-5.4-12-12v-3.405c0-6.6,5.4-12,12-12h8.021c6.6,0,12,5.4,12,12   v3.405C402.263,287.83,396.863,293.23,390.263,293.23z" fill="#ffe767" data-original="#ffe767"/>
</g>
<g xmlns="http://www.w3.org/2000/svg">
	<path style="" d="M304.521,326.696H296.5c-6.6,0-12-5.4-12-12v-3.405c0-6.6,5.4-12,12-12h8.021c6.6,0,12,5.4,12,12   v3.405C316.521,321.296,311.121,326.696,304.521,326.696z" fill="#fff5ca" data-original="#fff5ca"/>
	<path style="" d="M347.392,326.696h-8.021c-6.6,0-12-5.4-12-12v-3.405c0-6.6,5.4-12,12-12h8.021c6.6,0,12,5.4,12,12   v3.405C359.392,321.296,353.992,326.696,347.392,326.696z" fill="#fff5ca" data-original="#fff5ca"/>
</g>
<g xmlns="http://www.w3.org/2000/svg">
	<path style="" d="M390.263,326.696h-8.021c-6.6,0-12-5.4-12-12v-3.405c0-6.6,5.4-12,12-12h8.021c6.6,0,12,5.4,12,12   v3.405C402.263,321.296,396.863,326.696,390.263,326.696z" fill="#00dae1" data-original="#00dae1"/>
	<rect x="284.5" y="149.93" style="" width="117.76" height="30.782" fill="#00dae1" data-original="#00dae1"/>
</g>
<path xmlns="http://www.w3.org/2000/svg" style="" d="M162.243,401.478h-47.076C93.57,401.478,76,383.908,76,362.311v-50.176  c0-12.871,10.471-23.342,23.342-23.342h3.588v15h-3.588c-4.6,0-8.342,3.742-8.342,8.342v50.176  c0,13.325,10.841,24.166,24.167,24.166h47.076c4.6,0,8.342-3.742,8.342-8.342v-46.509h15v46.509  C185.585,391.007,175.114,401.478,162.243,401.478z" fill="#ffffff" data-original="#ffffff" class=""/>
<path xmlns="http://www.w3.org/2000/svg" style="" d="M213.364,187.998V151.41c0-9.72-7.879-17.599-17.599-17.599h-35.361  c-9.72,0-17.599,7.88-17.599,17.599v36.588c0,7.72,4.978,14.262,11.893,16.635v67.356c-6.915,2.372-11.893,8.915-11.893,16.635  v36.588c0,9.72,7.88,17.599,17.599,17.599h35.361c9.72,0,17.599-7.88,17.599-17.599v-36.588c0-7.72-4.978-14.263-11.893-16.635  v-67.356C208.387,202.261,213.364,195.718,213.364,187.998z" fill="#00f8fe" data-original="#00f8fe"/>
<g xmlns="http://www.w3.org/2000/svg">
</g>
<g xmlns="http://www.w3.org/2000/svg">
</g>
<g xmlns="http://www.w3.org/2000/svg">
</g>
<g xmlns="http://www.w3.org/2000/svg">
</g>
<g xmlns="http://www.w3.org/2000/svg">
</g>
<g xmlns="http://www.w3.org/2000/svg">
</g>
<g xmlns="http://www.w3.org/2000/svg">
</g>
<g xmlns="http://www.w3.org/2000/svg">
</g>
<g xmlns="http://www.w3.org/2000/svg">
</g>
<g xmlns="http://www.w3.org/2000/svg">
</g>
<g xmlns="http://www.w3.org/2000/svg">
</g>
<g xmlns="http://www.w3.org/2000/svg">
</g>
<g xmlns="http://www.w3.org/2000/svg">
</g>
<g xmlns="http://www.w3.org/2000/svg">
</g>
<g xmlns="http://www.w3.org/2000/svg">
</g>
</g></svg>
