<?xml version="1.0"?>
<svg xmlns="http://www.w3.org/2000/svg" xmlns:xlink="http://www.w3.org/1999/xlink" xmlns:svgjs="http://svgjs.com/svgjs" version="1.1" width="512" height="512" x="0" y="0" viewBox="0 0 512 512" style="enable-background:new 0 0 512 512" xml:space="preserve" class=""><g><g xmlns="http://www.w3.org/2000/svg" id="XMLID_626_"><g id="XMLID_501_"><g id="XMLID_503_"><g id="XMLID_505_"><g id="XMLID_507_"><g id="XMLID_510_"><g id="XMLID_512_"><g id="XMLID_514_"><g id="XMLID_515_"><g id="XMLID_516_"><g id="XMLID_518_"><g id="XMLID_519_"><g id="XMLID_520_"><g id="XMLID_521_"><g id="XMLID_522_"><path id="XMLID_523_" d="m0 257c0-141.385 114.615-256 256-256s256 114.615 256 256c0 71.029-28.927 135.302-75.643 181.68-46.274 45.939-110.001-2.04-180.357-2.04s-133.41 48.638-179.683 2.7c-46.717-46.378-76.317-111.311-76.317-182.34z" fill="#f1f1f1" data-original="#00d5dd" style="" class=""/></g></g></g></g></g></g></g></g></g></g></g></g></g></g><path id="XMLID_649_" d="m256 436.64c70.356 0 134.743 47.319 181.017 1.38 46.716-46.378 74.983-109.991 74.983-181.02 0-4.599-.127-9.168-.367-13.707l-176.643-176.643-186.261 149.6 41.244 41.11c7.897 14.047 6.743 14.949 15.622 23.193l12.411 12.441.043 37.874-141.732 108.472c1.98 1.966 115.639-2.7 179.683-2.7z" fill="#f1f1f1" data-original="#00b4bc" style="" class=""/><path id="XMLID_1964_" d="m211.18 276.258h90.972v65.798h-90.972z" fill="#ffc473" data-original="#ffc473" style="" class=""/><path id="XMLID_1963_" d="m256.672 276.258h45.476v65.798h-45.476z" fill="#ffb74f" data-original="#ffb74f" style=""/><path id="XMLID_53_" d="m208.958 327.75h95.418v117h-95.418z" fill="#454545" data-original="#454545" style=""/><path id="XMLID_1557_" d="m256 327.75h48.38v117h-48.38z" fill="#2e2e2e" data-original="#2e2e2e" style=""/><path id="XMLID_2130_" d="m355.5 161.219c-4.127-60.745-55.931-95.222-98.833-95.222s-94.707 34.477-98.834 95.222c-11.101 2.079-18.98 12.454-17.744 23.863l1.911 17.65c1.297 11.975 12.156 20.711 24.13 19.414l2.062-.224c24.513 63.808 64.071 80.236 88.474 83.968 24.403-3.732 63.961-20.16 88.474-83.968l2.062.224c11.975 1.297 22.833-7.439 24.13-19.414l1.911-17.651c1.237-11.408-6.641-21.783-17.743-23.862z" fill="#ffdba9" data-original="#ffdba9" style="" class=""/><path id="XMLID_2129_" d="m373.243 185.081-1.911 17.655c-1.298 11.972-12.152 20.704-24.124 19.406l-2.062-.221c-24.516 63.811-64.073 80.239-88.479 83.972v-239.893c42.906 0 94.706 34.476 98.83 95.219 11.106 2.082 18.984 12.454 17.746 23.862z" fill="#ffc473" data-original="#ffc473" style="" class=""/><path id="XMLID_1836_" d="m258.747 37.564c-127.735 0-104.156 121.194-104.156 121.194l.006.004c1.107 12.028 3.931 37.275 9.043 50.029h12.799v-38.844c2.949-11.883 7.506-21.326 12.706-28.821 16.329 5.314 38.817 9.871 67.942 9.871 29.173 0 51.687-4.572 68.023-9.896 5.207 7.499 9.772 16.95 12.724 28.847v38.844h12.799c5.112-12.754 7.936-38.002 9.043-50.029l.007-.004c-.001-.001 16.329-121.195-100.936-121.195z" fill="#ff9d21" data-original="#ff9d21" style="" class=""/><path id="XMLID_1835_" d="m359.682 158.757h-.011c-1.103 12.037-3.935 37.277-9.046 50.035h-12.79v-38.847c-2.959-11.899-7.519-21.348-12.726-28.846-16.342 5.324-38.857 9.895-68.021 9.895h-.424v-113.422c.689-.011 1.379-.011 2.079-.011 117.271.001 100.939 121.196 100.939 121.196z" fill="#ec8600" data-original="#ec8600" style=""/><path id="XMLID_2128_" d="m317.538 174.833h-60.871v71.584h21.624v-51.52h39.247z" fill="#ffaa20" data-original="#ffaa20" style=""/><path id="XMLID_2127_" d="m188.626 174.833h54.603v20.063h-54.603z" fill="#ffc473" data-original="#ffc473" style="" class=""/><path id="XMLID_2189_" d="m367.032 324h-64.885l-45.481 108-45.486-108h-64.88c-38.651 0-69.984 31.333-69.984 69.984v45.356c46.274 45.938 109.995 71.66 180.351 71.66s134.076-27.041 180.35-72.98v-44.036c0-38.651-31.333-69.984-69.985-69.984z" fill="#ffffff" data-original="#ffffff" style="" class=""/><path id="XMLID_1897_" d="m437.017 393.98v44.04c-46.27 45.94-109.99 72.98-180.35 72.98v-79l45.481-108h64.889c21.46 0 40.66 9.65 53.48 24.86 10.3 12.18 16.5 27.93 16.5 45.12z" fill="#d8f1fb" data-original="#d8f1fb" style=""/><path id="XMLID_55_" d="m211.18 324-42.013 35.5 39.791 28-2.291 58.5 50 56v-70z" fill="#d8f1fb" data-original="#d8f1fb" style=""/><path id="XMLID_146_" d="m302.153 324 42.014 35.5-39.792 28 2.292 58.5-50 56v-70z" fill="#9ddff6" data-original="#9ddff6" style=""/><g id="XMLID_1749_"><path id="XMLID_1750_" d="m324.833 414.75h67.5v30h-67.5z" fill="#ffb641" data-original="#ffb641" style=""/></g></g></g></svg>
