<svg xmlns="http://www.w3.org/2000/svg" width="136.46" height="13.121" fill="#333"><path d="M6.819 2.683v10.328H3.676V2.683H0V0h10.494v2.683zm5.109 10.328V0h8.747v2.646h-5.716v2.463h5.403v2.517h-5.403v2.701h6.046v2.684zm22.951 0l.074-9.207h-.055l-3.381 9.207h-2.205l-3.29-9.207h-.055l.073 9.207h-2.958V0h4.471l2.962 8.344h.073L33.422 0h4.545v13.011zM50.5 4.008c0 .759-.142 1.398-.422 1.919s-.662.94-1.14 1.258a5.05 5.05 0 0 1-1.654.699c-.625.146-1.274.221-1.948.221h-1.562v4.906h-3.143V0h4.778c.711 0 1.375.07 1.994.211s1.159.367 1.618.68.82.724 1.084 1.231.395 1.138.395 1.886m-3.143.017c0-.306-.062-.558-.184-.754s-.288-.349-.496-.459a2.07 2.07 0 0 0-.708-.22c-.263-.037-.536-.057-.817-.057h-1.379v3.069h1.323a4.73 4.73 0 0 0 .846-.073 2.27 2.27 0 0 0 .726-.258c.214-.122.383-.285.505-.487s.184-.455.184-.761m24.148 8.986l-1.011-2.555h-5.035l-.956 2.555h-3.418L66.543 0h3.05l5.403 13.011h-3.491zm-3.49-9.538L66.36 7.938h3.271l-1.616-4.465zm12.532-.79v10.328h-3.144V2.683h-3.674V0h10.493v2.683zm5.108 10.328V0h8.748v2.646h-5.715v2.463h5.402v2.517h-5.402v2.701h6.045v2.684zm13.194-.882c0 .26-.091.487-.273.689s-.424.303-.719.303-.531-.103-.717-.303-.275-.433-.275-.689.093-.486.275-.688.424-.303.717-.303.533.102.719.303.273.43.273.688"/><path d="M111.198 11.081h.037V0h1.325v13.011h-1.657l-7.57-11.192h-.037v11.192h-1.322V0h1.653zm6.138.754h6.965v1.176h-8.288V0h8.068v1.177h-6.745v4.464h6.304v1.177h-6.304zm14.768 1.176h-1.322V1.177h-4.356V0h10.034v1.177h-4.356zm-76.55-2.739V0h-3.16v13.011h6.733l1.147-2.739z"/></svg>