<?xml version="1.0" encoding="utf-8"?>
<svg version="1.1" id="Layer_1" xmlns="http://www.w3.org/2000/svg" xmlns:xlink="http://www.w3.org/1999/xlink" x="0px" y="0px"
	width="100px" height="100px" viewBox="0 0 100 100" style="enable-background:new 0 0 100 100;" xml:space="preserve">
<g>
	<path style="fill:#E8E8E8;" d="M50,0c27.61,0,50,22.39,50,50s-22.39,50-50,50S0,77.61,0,50S22.39,0,50,0"/>
	<path style="fill:#FFFFFF;" d="M50,1c27.06,0,49,21.94,49,49S77.06,99,50,99S1,77.06,1,50S22.94,1,50,1"/>
	<g id="layer1" transform="translate(1403.7215,697.9402)">
		<path id="path7267" style="fill-rule:evenodd;clip-rule:evenodd;fill:#9B2C39;" d="M-1325.02-656.43
			c-0.57,0-4.48,11.52-4.48,11.52h0.42c0,0,0.57-1.47,1.56-1.53c0.99-0.05,3.44,5.21,3.44,5.21s0.26,1.63,2.24,1.63h6.62v-0.47
			c0,0-1.41,0.11-2.08-1.37C-1317.98-642.92-1324.55-656.43-1325.02-656.43z M-1330.49-651.07v-4.21c0,0-2.03-1.52-4.84-1.52
			c-2.81,0-6.25,1.37-6.25,5.78c0,4.21,6.56,5.05,6.56,7.36c0,1.21-0.99,1.31-1.67,1.31c-2.24,0-4.43-3.37-4.43-3.37v4.58
			c0,0,2.24,1.95,5.05,1.95c2.81,0,6.36-1.68,6.36-6.1c0-5.26-6.72-5.36-6.72-7.68c0-1.21,0.73-1.05,1.41-1.05
			C-1332.78-654.01-1330.49-651.07-1330.49-651.07z M-1354.61-654.65c1.1,2.29,2.14,5.52,3.86,5.52c1.41,0,2.55-7.15,2.55-7.15h5.68
			v14.83c0,1.26,1.46,1.58,1.46,1.58h-7.45v-10.52c0,0-4.32,11.31-4.74,11.31c-0.42,0-6.3-11.31-6.3-11.31v9.1
			c0,0.84,1.3,1.47,1.3,1.47h-3.33v-14.88c0-1-1.61-1.68-1.61-1.68h5.78C-1357.42-656.38-1355.49-656.49-1354.61-654.65z
			 M-1370.34-640.6c0,0,4.53,0.42,6.72-2.79l-0.89,3.58h-11.77v-14.88c0-1-1.61-1.68-1.61-1.68h13.39l0.89,3.58
			c-2.19-3.21-6.72-2.79-6.72-2.79v6.94h3.7c1.15,0,1.77-1.95,1.77-1.95s1.2,5.52,1.15,5.47c-0.94-1.74-3.8-2.63-3.8-2.63h-2.81
			V-640.6z M-1378.83-656.38h-13.39c0,0,1.61,0.68,1.61,1.68v14.88h7.5c0,0-1.56-0.53-1.56-1.74v-6.21h2.81c0,0,2.87,0.89,3.8,2.63
			c0.05,0.05-1.15-5.47-1.15-5.47s-0.63,1.95-1.77,1.95h-3.7v-6.94c0,0,4.53-0.42,6.72,2.79L-1378.83-656.38"/>
	</g>
</g>
</svg>
