<?xml version="1.0"?>
<svg xmlns="http://www.w3.org/2000/svg" xmlns:xlink="http://www.w3.org/1999/xlink" xmlns:svgjs="http://svgjs.com/svgjs" version="1.1" width="512" height="512" x="0" y="0" viewBox="0 0 512 512" style="enable-background:new 0 0 512 512" xml:space="preserve" class=""><g><g xmlns="http://www.w3.org/2000/svg"><g><g><g><g><g><g><g><g><g><g><g><g><g><circle cx="256" cy="256" fill="#f1f1f1" r="256" data-original="#ffea98" style="" class=""/></g></g></g></g></g></g></g></g></g></g></g></g></g><path d="m344.727 264.779-113.673-113.673-3.849 3.849-22.952-22.952-6.443 6.443-23.237-23.237-113.101 89.605 8.481 8.481.509 19.55 29.044 29.044-1.884 1.884 101.371 101.371-17.952 52.712 93.473 93.473c132.741-9.489 237.486-120.171 237.486-255.329 0-6.141-.23-12.228-.655-18.261l-78.086-78.086z" fill="#f1f1f1" data-original="#ffdd55" style="" class=""/><g><path d="m86.811 193.374c-12.77 0-23.121 10.352-23.121 23.122s10.352 23.121 23.121 23.121c12.77 0 23.122-10.352 23.122-23.121 0-12.77-10.352-23.122-23.122-23.122z" fill="#5a5555" data-original="#5a5555" style="" class=""/><path d="m215.592 193.374c-12.77 0-23.121 10.352-23.121 23.122s10.352 23.121 23.121 23.121c12.77 0 23.122-10.352 23.122-23.121-.001-12.77-10.353-23.122-23.122-23.122z" fill="#464141" data-original="#464141" style=""/><g id="XMLID_48_"><path id="XMLID_62_" d="m195.8 212.631-44.605 74.043c-40.894 0-74.044-33.15-74.044-74.043s33.15-74.043 74.044-74.043z" fill="#a57262" data-original="#a57262" style="" class=""/><path id="XMLID_61_" d="m151.195 138.588c40.892 0 74.042 33.15 74.042 74.043s-33.15 74.043-74.042 74.043z" fill="#936455" data-original="#936455" style="" class=""/></g><g id="XMLID_38_"><path id="XMLID_46_" d="m159.406 245.585-8.204 13.618c-11.46 0-20.75-9.29-20.75-20.75h20.748z" fill="#dd78ef" data-original="#dd78ef" style=""/><path id="XMLID_40_" d="m151.202 238.453v20.75c11.46 0 20.749-9.29 20.749-20.75z" fill="#d161e7" data-original="#d161e7" style=""/></g><circle cx="119.137" cy="219.888" fill="#5a5555" r="4.523" data-original="#5a5555" style="" class=""/><circle cx="183.253" cy="219.888" fill="#464141" r="4.523" data-original="#464141" style=""/><path d="m171.834 140.237-20.639-34.26c-13.457 0-25.096 7.763-30.7 19.051-1.155-.144-2.329-.226-3.522-.226v.001c-12.582 0-23.24 8.222-26.905 19.586-.66-.055-1.324-.101-1.998-.101v.001c-13.232 0-23.959 10.727-23.959 23.959 0 3.583.809 6.97 2.218 10.022-5.498 2.806-9.27 8.509-9.27 15.105 0 9.368 7.594 16.963 16.962 16.963 9.368 0 16.963-7.594 16.963-16.963 0-.456-.033-.905-.068-1.352 7.684-.911 14.242-5.454 17.927-11.87 2.576.772 5.304 1.193 8.131 1.193 8.387 0 15.918-3.656 21.095-9.456 4.043 1.679 8.476 2.61 13.126 2.61z" fill="#5a5555" data-original="#5a5555" style="" class=""/><path d="m236.062 178.269c1.41-3.052 2.218-6.439 2.218-10.022 0-13.232-10.727-23.959-23.959-23.959v-.001c-.675 0-1.338.046-1.999.101-3.666-11.363-14.323-19.586-26.905-19.586v-.001c-1.194 0-2.368.083-3.523.226-5.603-11.288-17.242-19.05-30.699-19.05v68.52c4.651 0 9.083-.931 13.126-2.61 5.178 5.801 12.708 9.456 21.095 9.456 2.827 0 5.555-.42 8.131-1.193 3.685 6.415 10.243 10.958 17.927 11.87-.035.447-.068.895-.068 1.352 0 9.368 7.595 16.963 16.963 16.963 9.368 0 16.962-7.594 16.962-16.963.001-6.594-3.771-12.297-9.269-15.103z" fill="#464141" data-original="#464141" style=""/></g><g><path d="m346.765 355.796c.343-3.024.532-6.095.532-9.211 0-45.162-36.611-81.774-81.773-81.774v98.932h53.596l30.884 54.112 36.076-36.076z" fill="#936455" data-original="#936455" style="" class=""/><path d="m314.787 346.584-49.262-81.774c-45.164 0-81.775 36.612-81.775 81.774 0 3.116.189 6.187.532 9.212l-39.316 25.984 36.076 36.076 30.884-54.112h53.598z" fill="#a57262" data-original="#a57262" style="" class=""/><g id="XMLID_49_"><path id="XMLID_51_" d="m310.129 348.448-44.605 74.043c-40.894 0-74.044-33.15-74.044-74.043s33.15-74.043 74.044-74.043z" fill="#f5d4c8" data-original="#f5d4c8" style="" class=""/><path id="XMLID_50_" d="m265.524 274.406c40.892 0 74.042 33.15 74.042 74.043s-33.15 74.043-74.042 74.043z" fill="#f2c8b7" data-original="#f2c8b7" style=""/></g><g id="XMLID_44_"><path id="XMLID_47_" d="m273.735 381.402-8.204 13.618c-11.46 0-20.75-9.29-20.75-20.75h20.748z" fill="#dd78ef" data-original="#dd78ef" style=""/><path id="XMLID_45_" d="m265.531 374.27v20.75c11.46 0 20.749-9.29 20.749-20.75z" fill="#d161e7" data-original="#d161e7" style=""/></g><g><path d="m265.515 267.508c-37.248 0-68.617 25.084-78.192 59.274 7.515 2.477 15.539 3.837 23.884 3.837 21.262 0 40.483-8.706 54.309-22.745l13.313-18.266z" fill="#a57262" data-original="#a57262" style="" class=""/><path d="m265.531 267.508c37.248 0 68.617 25.084 78.192 59.274-7.515 2.477-15.539 3.837-23.884 3.837-21.262 0-40.483-8.706-54.309-22.745z" fill="#936455" data-original="#936455" style="" class=""/></g><circle cx="233.472" cy="355.705" fill="#5a5555" r="4.523" data-original="#5a5555" style="" class=""/><circle cx="297.589" cy="355.705" fill="#464141" r="4.523" data-original="#464141" style=""/></g><g><path d="m358.744 178.924-51.208 32.135c-.011.524-.04 1.045-.04 1.572 0 40.893 33.15 74.043 74.044 74.043l23.49-53.875-23.49-42.527z" fill="#dbb385" data-original="#dbb385" style="" class=""/><path d="m381.54 190.271v96.404c40.892 0 74.042-33.15 74.042-74.043 0-1.754-.083-3.489-.203-5.213z" fill="#d0a774" data-original="#d0a774" style="" class=""/><path d="m381.54 138.587c-8.119 0-15.926 1.322-23.232 3.742-.091.03-.182.059-.272.089-1.996.67-3.953 1.421-5.869 2.251-.233.101-.465.204-.696.307-.748.333-1.489.678-2.223 1.035-.196.095-.393.186-.588.282-.86.427-1.71.872-2.55 1.332-.269.147-.535.301-.802.451-.334.188-.671.37-1.002.563.001.006.003.011.005.017-21.576 12.583-36.217 35.75-36.774 62.402 20.839-4.057 38.922-15.792 51.208-32.135 6.242 8.296 13.965 15.416 22.796 20.936l10.381-30.636z" fill="#5a5555" data-original="#5a5555" style="" class=""/><path d="m426.145 212.631c10.279 0 20.126-1.844 29.234-5.212-2.678-38.457-34.701-68.83-73.839-68.831l-.001-.001v61.272c12.94 8.087 28.222 12.772 44.606 12.772z" fill="#464141" data-original="#464141" style=""/></g><g><g id="XMLID_36_"><path id="XMLID_39_" d="m389.751 245.585-8.204 13.618c-11.46 0-20.75-9.29-20.75-20.75h20.748z" fill="#dd78ef" data-original="#dd78ef" style=""/><path id="XMLID_37_" d="m381.547 238.453v20.75c11.46 0 20.749-9.29 20.749-20.75z" fill="#d161e7" data-original="#d161e7" style=""/></g><circle cx="349.482" cy="219.888" fill="#5a5555" r="4.523" data-original="#5a5555" style="" class=""/><circle cx="413.598" cy="219.888" fill="#464141" r="4.523" data-original="#464141" style=""/></g></g></g></svg>
