<?xml version="1.0" encoding="utf-8"?>
<svg version="1.1" id="Layer_1" xmlns="http://www.w3.org/2000/svg" xmlns:xlink="http://www.w3.org/1999/xlink" x="0px" y="0px"
	width="100px" height="100px" viewBox="0 0 66.7 66.7" style="enable-background:new 0 0 66.7 66.7;" xml:space="preserve">
<g>
	<circle style="fill:#E8E8E8;" cx="33.3" cy="33.3" r="33.3"/>
	<circle style="fill:#FFFFFF;" cx="33.3" cy="33.3" r="32.7"/>
	<path style="fill:#98002E;" d="M13.9,32.9c0,0.7-0.1,1.3-0.8,1.9v-3.9C13.6,31.3,13.9,32.1,13.9,32.9 M14.6,32.8
		c0-1-0.5-2.1-1.3-2.7c-0.3-0.2-0.4-0.3-0.8-0.5V37h0.7v-1.3C14.3,34.6,14.5,33.9,14.6,32.8 M17.2,32.9c0,0.7-0.2,1.3-0.8,1.9v-3.9
		C16.9,31.3,17.3,32.1,17.2,32.9 M18.1,37.1v-0.7c-0.7-0.1-1-0.5-1.3-1c0.9-1,1.1-1.5,1.1-2.5s-0.5-2.1-1.4-2.7
		c-0.3-0.2-0.4-0.3-0.8-0.5v7.5h0.7v-1.1C16.8,36.6,17.3,37,18.1,37.1 M20.8,37v-0.7h-1.2v-0.7h1.2v-0.7h-1.2v-4.3h1.2v-0.7h-1.9V37
		H20.8L20.8,37z M24.1,30.6v-0.7h-2.4v0.7h0.9V37h0.7v-6.4H24.1L24.1,30.6z M28.3,35h-0.7l0.4-1.9L28.3,35L28.3,35z M29.3,36.9
		l-1.4-7.3l-1.3,7.3h0.6l0.3-1.3h1l0.3,1.3C28.7,36.9,29.3,36.9,29.3,36.9z M35.4,37.1v-7.3l-1.3,2l-1.3-2v7.3h0.7v-4.9l0.7,1l0.7-1
		v4.9H35.4z M38.5,35h-0.7l0.4-1.9L38.5,35L38.5,35z M39.5,36.9l-1.4-7.3l-1.4,7.3h0.6l0.3-1.3h1.1l0.3,1.3H39.5
		C39.5,36.9,39.5,36.9,39.5,36.9z M43.3,37v-7.1h-0.7v2.2l-1.7-2.4V37h0.7v-4.9l0.9,1.4V37L43.3,37L43.3,37L43.3,37z M47.2,35.9
		v-1.1h-1.3v0.7h0.7v0.4c0,0.4-0.2,0.6-0.5,0.6s-0.5-0.2-0.5-0.6v-4.6c0-0.4,0.2-0.6,0.5-0.6s0.5,0.2,0.5,0.6v0.4h0.7v-0.5
		c0-0.7-0.5-1.3-1.2-1.3s-1.2,0.5-1.2,1.3v4.7c0,0.7,0.5,1.3,1.2,1.3C46.7,37.1,47.1,36.5,47.2,35.9 M50.5,37.1v-0.7h-1.1v-0.7h1.1
		v-0.7h-1.1v-4.3h1.1V30h-1.9v7.1H50.5z M53.6,32.9c0,0.7-0.2,1.3-0.7,1.9v-3.9C53.3,31.3,53.6,32.1,53.6,32.9 M54.5,36.9v-0.7
		c-0.7-0.1-1-0.5-1.3-1c0.9-0.9,1.1-1.5,1.1-2.5c0-1-0.5-2.1-1.3-2.7c-0.3-0.2-0.4-0.3-0.9-0.5v7.3h0.7v-1.1
		C53.2,36.5,53.7,36.9,54.5,36.9 M58.5,31.2l0.6,1.7h1.6l-1.3,0.9l0.5,1.5l-1.4-0.9l-1.4,0.9l0.5-1.5l-1.3-0.9h1.6L58.5,31.2z
		 M8.1,31.3L8.7,33h1.6L9,33.9l0.5,1.5l-1.4-0.9l-1.4,0.9l0.5-1.5L6,33h1.6C7.5,33,8.1,31.3,8.1,31.3z"/>
</g>
</svg>
