<?xml version="1.0" encoding="utf-8"?>
<svg version="1.1" id="Layer_1" xmlns="http://www.w3.org/2000/svg" xmlns:xlink="http://www.w3.org/1999/xlink" x="0px" y="0px"
	width="100px" height="100px" viewBox="0 0 66.7 66.7" style="enable-background:new 0 0 66.7 66.7;" xml:space="preserve">
<g>
	<circle style="fill:#E8E8E8;" cx="33.3" cy="33.3" r="33.3"/>
	<g>
		<circle style="fill:#FFFFFF;" cx="33.3" cy="33.3" r="32.7"/>
		<path style="fill:#FFFFFF;" d="M8.1,25.3h4.5v6.5H8.1V25.3z"/>
	</g>
	<path d="M11.5,27.1c-0.1-0.4-0.3-0.9-1.1-0.9c-0.7,0-1.2,0.2-1.2,0.9c0,1.5,3.4,0.5,3.4,2.9c0,1.3-1.1,1.8-2.2,1.8
		c-1.7,0-2.3-1.1-2.3-1.9c0-0.1,0.1-0.2,0.2-0.2l0,0h0.5c0.1,0,0.2,0.1,0.2,0.2c0,0.3,0.2,1.1,1.3,1.1c0.8,0,1.3-0.3,1.3-0.9
		c0-1.5-3.4-0.5-3.4-2.9c0-1.1,0.8-1.7,2.1-1.7c1.5,0,2.1,0.9,2.1,1.7c0,0.1-0.1,0.2-0.2,0.2h-0.5C11.6,27.3,11.5,27.2,11.5,27.1
		 M14.8,31c0.5,0,0.9-0.4,0.9-1.1v-0.8c0-0.7-0.4-1.1-0.9-1.1c-0.5,0-1,0.4-1,1.1v0.8C13.8,30.6,14.2,31,14.8,31 M14.8,27.1
		c1.1,0,1.9,0.8,1.9,2.1v0.6c0,1.3-0.9,2.1-1.9,2.1s-1.9-0.8-1.9-2.1v-0.6C12.9,27.9,13.7,27.1,14.8,27.1 M20.9,27.5v4
		c0,0.1-0.1,0.2-0.2,0.2l0,0h-0.5c-0.1,0-0.2-0.1-0.2-0.2l0,0v-0.3c-0.2,0.3-0.6,0.6-1.2,0.6c-1.1,0-1.6-0.8-1.6-2.1v-2.3
		c0-0.1,0.1-0.2,0.2-0.2h0.5c0.1,0,0.2,0.1,0.2,0.2v2.4c0,0.7,0.3,1.1,0.9,1.1c0.6,0,0.9-0.4,0.9-1.1v-2.4c0-0.1,0.1-0.2,0.2-0.2
		h0.5C20.8,27.3,20.9,27.3,20.9,27.5 M22.2,30.3v-2.1h-0.7c-0.1,0-0.2-0.1-0.2-0.3l0,0v-0.4c0-0.1,0.1-0.2,0.2-0.2
		c0.4,0,0.7-0.1,0.7-0.5v-0.4c0-0.1,0.1-0.2,0.1-0.2h0.5c0.1,0,0.2,0.1,0.2,0.2v1H24c0.1,0,0.3,0.1,0.3,0.2V28
		c0,0.1-0.1,0.3-0.3,0.3l0,0h-0.9v2c0,0.5,0.1,0.7,0.6,0.7H24c0.1,0,0.3,0.1,0.3,0.3v0.5c0,0.1-0.1,0.2-0.3,0.2l0,0h-0.5
		C22.5,31.7,22.2,31.3,22.2,30.3 M24.7,31.5v-5.8c0-0.1,0.1-0.2,0.2-0.2h0.5c0.1,0,0.3,0.1,0.3,0.2v2.1c0.2-0.3,0.6-0.6,1.2-0.6
		c1.1,0,1.6,0.8,1.6,2.1v2.3c0,0.1-0.1,0.2-0.1,0.2l0,0h-0.5c-0.1,0-0.3-0.1-0.3-0.1l0,0v-2.5c0-0.7-0.3-1.1-0.9-1.1
		c-0.5,0-0.9,0.4-0.9,1.1v2.5c0,0.1-0.1,0.2-0.3,0.2l0,0h-0.5C24.8,31.7,24.7,31.7,24.7,31.5L24.7,31.5 M37.8,25.6v0.1l-1.6,5.8
		c0,0.1-0.1,0.1-0.2,0.1h-0.7c-0.1,0-0.2-0.1-0.2-0.1l-1.2-4.7l-1.2,4.7c0,0.1-0.1,0.1-0.2,0.1h-0.7c-0.1,0-0.2-0.1-0.2-0.1L30,25.7
		l-0.1-0.2c0-0.1,0.1-0.1,0.1-0.1h0.7c0.1,0,0.2,0,0.2,0.2l1.1,4.7l1.2-4.7c0-0.1,0.1-0.2,0.2-0.2h0.7c0.1,0,0.2,0.1,0.2,0.2
		l1.2,4.7l1.1-4.7c0-0.1,0.1-0.2,0.2-0.2h0.7C37.7,25.5,37.8,25.5,37.8,25.6 M40.3,29c0-0.7-0.4-1.1-1-1.1c-0.5,0-1,0.4-1,1.1v0.1
		L40.3,29L40.3,29z M39.3,31c0.3,0,0.7-0.1,0.9-0.5c0-0.1,0.1-0.1,0.2-0.1h0.6c0.1,0,0.1,0.1,0.1,0.1l0,0v0.1
		c-0.3,0.7-1,1.2-1.7,1.2c-1.1,0-1.9-0.8-1.9-2.1v-0.6c0-1.3,0.8-2.1,1.9-2.1c1.1,0,1.9,0.8,1.9,2v0.4c0,0.1-0.1,0.1-0.2,0.1h-2.7
		v0.2C38.3,30.6,38.7,31,39.3,31C39.3,31,39.3,31,39.3,31z M41.5,30.6v-0.1c0-0.1,0.1-0.1,0.1-0.1h0.5c0.1,0,0.1,0.1,0.2,0.1
		c0.1,0.3,0.3,0.6,0.9,0.6c0.5,0,0.8-0.1,0.8-0.5c0-0.9-2.5-0.2-2.5-2c0-0.9,0.8-1.3,1.7-1.3c1.1,0,1.5,0.7,1.7,1.2v0.1
		c0,0.1-0.1,0.2-0.1,0.2h-0.5c-0.1,0-0.1-0.1-0.2-0.1c-0.1-0.3-0.3-0.5-0.9-0.5c-0.4,0-0.7,0.1-0.7,0.5c0,1,2.5,0.2,2.5,2
		c0,1-0.8,1.4-1.7,1.4C42.1,31.9,41.5,31.2,41.5,30.6 M45.9,30.3v-2.1h-0.6c-0.1,0-0.3-0.1-0.3-0.3l0,0v-0.4c0-0.1,0.1-0.2,0.2-0.2
		c0.4,0,0.7-0.1,0.7-0.5v-0.4c0-0.1,0.1-0.2,0.2-0.2h0.5c0.1,0,0.3,0.1,0.3,0.2v1h0.9c0.1,0,0.2,0.1,0.2,0.2V28
		c0,0.1-0.1,0.3-0.2,0.3l0,0h-0.9v2c0,0.5,0,0.7,0.5,0.7h0.3c0.1,0,0.2,0.1,0.2,0.3v0.5c0,0.1-0.1,0.2-0.2,0.2l0,0h-0.5
		C46.1,31.7,45.9,31.3,45.9,30.3 M51.1,29c0-0.7-0.4-1.1-0.9-1.1c-0.5,0-0.9,0.4-0.9,1.1v0.1L51.1,29L51.1,29z M50.1,31
		c0.3,0,0.7-0.1,0.9-0.5c0-0.1,0.1-0.1,0.2-0.1h0.6c0.1,0,0.2,0.1,0.2,0.1l0,0c0,0.1-0.1,0.1-0.1,0.1c-0.3,0.9-1.1,1.2-1.8,1.2
		c-1.1,0-1.9-0.8-1.9-2.1v-0.6c0-1.3,0.8-2.1,1.9-2.1c1.1,0,1.9,0.8,1.9,2v0.4c0,0.1-0.1,0.1-0.1,0.1h-2.6v0.2
		C49.2,30.6,49.6,31,50.1,31L50.1,31L50.1,31z M52.5,31.5v-4.1c0-0.1,0.1-0.2,0.2-0.2h0.5c0.1,0,0.1,0.1,0.1,0.2v0.5
		c0.2-0.4,0.7-0.7,1.3-0.7h0.1c0.1,0,0.3,0.1,0.3,0.2V28c0,0.1-0.1,0.1-0.3,0.3l0,0h-0.1c-0.7,0-1.1,0.4-1.1,1.3v2
		c0,0.1-0.1,0.2-0.2,0.2h-0.5C52.6,31.7,52.5,31.7,52.5,31.5L52.5,31.5"/>
	<path d="M55.3,31.5v-4.1c0-0.1,0.1-0.2,0.3-0.2h0.5c0.1,0,0.2,0.1,0.2,0.2v0.3c0.3-0.3,0.6-0.6,1.3-0.6c1.1,0,1.7,0.8,1.7,2.1v2.3
		c0,0.1-0.1,0.2-0.2,0.2l0,0h-0.5c-0.1,0-0.2-0.1-0.2-0.2l0,0V29c0-0.7-0.4-1.1-1-1.1c-0.5,0-0.9,0.4-0.9,1.1v2.5
		c0,0.1-0.1,0.2-0.2,0.2l0,0h-0.5C55.5,31.7,55.3,31.7,55.3,31.5L55.3,31.5 M17.9,36c0.5,0,1.1-0.3,1.1-1v-0.1c0-0.7-0.5-1-1.1-1
		h-1.4V36H17.9z M16.3,39.3h-0.5c-0.1,0-0.2-0.1-0.2-0.2l0,0v-5.9c0-0.1,0.1-0.2,0.2-0.2H18c1.1,0,1.9,0.6,1.9,1.9v0.2
		c0,0.8-0.4,1.5-1.3,1.7l1.1,2.2c0.1,0.1,0.1,0.1,0.1,0.2c0,0.1-0.1,0.1-0.1,0.1l0,0h-0.7c-0.1,0-0.2-0.1-0.2-0.2l-1.1-2.2h-1.3v2.2
		C16.5,39.2,16.4,39.3,16.3,39.3L16.3,39.3C16.3,39.3,16.3,39.3,16.3,39.3z"/>
	<path d="M21.1,38c0,0.5,0.4,0.6,0.7,0.6h0.1c0.8,0,0.9-0.5,0.9-1.1v-0.2H22C21.5,37.3,21.1,37.5,21.1,38 M23.6,39.3h-0.5
		c-0.1,0-0.3-0.1-0.3-0.2l0,0v-0.3c-0.1,0.4-0.6,0.6-1.1,0.6h-0.1c-0.7,0-1.5-0.3-1.5-1.3c0-1.3,1.2-1.3,1.8-1.3h0.9v-0.3
		c0-0.5-0.2-0.9-0.9-0.9c-0.6,0-0.7,0.2-0.7,0.5c0,0.1-0.1,0.1-0.1,0.1h-0.5c-0.1,0-0.2,0-0.2-0.1V36c0.1-0.5,0.4-1.2,1.7-1.2
		c1.5,0,1.8,0.9,1.8,1.7v2.6C23.9,39.2,23.7,39.3,23.6,39.3L23.6,39.3 M24.7,39.1V35c0-0.1,0.1-0.1,0.2-0.1h0.5
		c0.1,0,0.3,0.1,0.3,0.1v4.1c0,0.1-0.1,0.2-0.3,0.2l0,0h-0.5C24.7,39.3,24.7,39.2,24.7,39.1 M25.7,33.5c0,0.3-0.3,0.6-0.6,0.6
		c-0.3,0-0.6-0.3-0.6-0.6c0-0.3,0.3-0.6,0.6-0.6C25.5,32.9,25.7,33.2,25.7,33.5 M26.5,39.1v-5.9c0-0.1,0.1-0.2,0.2-0.2h0.6
		c0.1,0,0.2,0.1,0.2,0.2v5.9c0,0.1-0.1,0.2-0.2,0.2l0,0h-0.5C26.7,39.3,26.5,39.2,26.5,39.1 M34.3,34.9c0,0.1,0,0.1-0.1,0.2L33,39.1
		c0,0.1-0.1,0.1-0.2,0.1h-0.5c-0.1,0-0.2-0.1-0.2-0.1L31.1,36l-0.9,3.1c0,0.1-0.1,0.1-0.2,0.1h-0.5c-0.1,0-0.2-0.1-0.2-0.1l-1.3-4
		c0-0.1-0.1-0.1-0.1-0.2s0.1-0.1,0.1-0.1l0,0h0.6c0.1,0,0.2,0.1,0.2,0.2l0.9,3l0.9-3c0-0.1,0.1-0.2,0.2-0.2h0.5
		c0.1,0,0.2,0.1,0.2,0.2l0.9,2.9l0.8-2.9c0-0.1,0.1-0.2,0.2-0.2H34C34.3,34.7,34.3,34.9,34.3,34.9 M35.2,38c0,0.5,0.4,0.6,0.7,0.6
		h0.1c0.8,0,0.9-0.5,0.9-1.1v-0.2h-0.9C35.5,37.3,35.2,37.5,35.2,38 M37.7,39.3h-0.5c-0.1,0-0.2-0.1-0.2-0.2l0,0v-0.3
		c-0.2,0.4-0.7,0.6-1.1,0.6h-0.1c-0.7,0-1.5-0.3-1.5-1.3c0-1.3,1.2-1.3,1.8-1.3H37v-0.3c0-0.5-0.2-0.9-0.9-0.9
		c-0.6,0-0.7,0.2-0.7,0.5c0,0.1-0.1,0.1-0.2,0.1h-0.5c-0.1,0-0.2,0-0.2-0.1V36c0.1-0.5,0.3-1.2,1.6-1.2c1.5,0,1.7,0.9,1.7,1.7v2.6
		C37.9,39.2,37.8,39.3,37.7,39.3L37.7,39.3 M42.3,34.9c0,0,0,0.1-0.1,0.2l-1.7,4.5c-0.4,1-0.6,1.5-1.7,1.5h-0.4
		c-0.1,0-0.2-0.1-0.2-0.2l0,0v-0.5c0-0.1,0.1-0.1,0.1-0.3l0,0h0.3c0.5,0,0.7-0.2,0.8-0.5l0.1-0.3l-1.6-4.1c0-0.1-0.1-0.2-0.1-0.3
		s0.1-0.2,0.1-0.2l0,0h0.6c0.1,0,0.1,0.1,0.2,0.2l1.1,3.1l1.1-3.1c0-0.1,0.1-0.2,0.2-0.2h0.6C42.3,34.7,42.3,34.8,42.3,34.9"/>
	<path style="fill:#0092CB;" d="M12.9,33.9H7.9c-0.1,0-0.3,0.1-0.3,0.3v0.2v0.3c0,0.1,0.1,0.2,0.2,0.2h3.5l-0.9,1H7.8
		c-0.1,0-0.3,0.1-0.3,0.2l0,0v0.5c0,0.1,0.1,0.2,0.2,0.2h1.5l-1.7,1.7c-0.1,0.1-0.1,0.1-0.1,0.2v0.4c0,0.1,0.1,0.2,0.2,0.2h0.4
		c0.1,0,0.1,0,0.2-0.1l3.6-3.6v1.3l-2.2,2.2c-0.1,0.1-0.1,0.2,0.1,0.2h0.9c0.1,0,0.1,0,0.2-0.1l0.9-0.9v0.9c0,0.1,0.1,0.1,0.3,0.1
		h0.6c0.1,0,0.1-0.1,0.1-0.1v-5C13,34,13,33.9,12.9,33.9"/>
</g>
</svg>
