<?xml version="1.0" encoding="utf-8"?>
<svg version="1.1" id="Layer_1" xmlns="http://www.w3.org/2000/svg" xmlns:xlink="http://www.w3.org/1999/xlink" x="0px" y="0px"
	 viewBox="0 0 1920.1 440.7" style="enable-background:new 0 0 1920.1 440.7;" xml:space="preserve">
<g>
	<path style="fill:#292929;" d="M796.9,202.4c26.6,0,48.4,22,48.4,48.9s-21.8,48.9-48.4,48.9H558.8c-26.6,0-48.4-22-48.4-48.9
		s21.8-48.9,48.4-48.9L796.9,202.4L796.9,202.4z M796.9,164.3H558.8c-47.7,0-86.2,38.9-86.2,87s38.5,87,86.2,87h238.1
		c47.7,0,86.2-38.9,86.2-87S844.4,164.3,796.9,164.3z M1878,183.5v136.3c0,11.8,9.3,21.2,21,21.2c11.6,0,21-9.4,21-21
		c0-0.1,0-0.2,0-0.2V183.5c0-11.8-9.3-21.2-21-21.2C1887.4,162.3,1878,171.8,1878,183.5L1878,183.5z M980.7,316.3v-52.8
		c-0.3-15.7,6.1-30.7,17.5-41.4c10.7-10.2,25.3-16.1,39.9-16.1c12.1,0,23.9,3.7,35,12.6l121.4,97.4c17.3,14,38.8,21.7,61.1,21.8
		c25.6,0,50.2-9.9,68.7-27.7c19.8-18.8,30.8-45,30.5-72.3v-52.8c0-11.8-9.3-21.2-21-21.2c-11.7,0-21,9.4-21,21.2v52.8
		c0.3,15.7-6.1,30.7-17.5,41.4c-10.7,10.2-25.3,16.1-39.9,16.1c-12.1,0-23.9-3.7-35-12.6L1099,185.3c-17.3-14-38.8-21.7-61.1-21.8
		c-25.6,0-50.2,9.9-68.7,27.7c-19.8,18.8-30.9,45-30.5,72.3v52.8c0,11.8,9.3,21.2,21,21.2S980.7,328,980.7,316.3L980.7,316.3z
		 M1416.9,201L1533,306.4c23,21,53.1,32.6,84.2,32.6c31.6,0,62.1-12,85.2-33.6l112.4-104.7c8.6-7.9,9.1-21.2,1.2-29.8
		c-7.6-8.5-20.7-9.2-29.1-1.6c-0.1,0.1-0.3,0.3-0.4,0.4L1674,274.4c-15.4,14.4-35.7,22.4-56.8,22.4c-20.8,0-40.9-7.8-56.2-21.8
		l-116.1-105.4c-8.5-7.7-21.7-7.1-29.4,1.4c-0.1,0.1-0.1,0.1-0.2,0.2C1407.5,179.8,1408.3,193.2,1416.9,201L1416.9,201z"/>
	<path style="fill:#00BC91;" d="M22.8,266L145,171.7c20.5-20.5,20.5-53.7,0-74.2c0,0-0.1-0.1-0.1-0.1L22.6,3.8
		c-5.4-5.4-14.2-5-19.4,0.9c-3.8,4.6-4.1,11.1-0.7,16l43.4,63.9c20.7,30.4,20.7,70.3,0,100.6L2.3,249c-3.3,4.8-3,11.6,0.7,16
		C8.6,271,17.4,271.4,22.8,266z M329.7,60l-175,135c-29.3,29.6-29.3,77.1,0.3,106.4l174.9,133.9c7.7,7.7,20.3,7.2,27.8-1.3
		c5.5-6.7,5.8-16,1.1-22.9l-62.1-91.5c-29.6-43.2-29.6-100.8,0-144L359,84.3c4.7-7.1,4.3-16.3-1-22.9
		C350.1,52.8,337.4,52.3,329.7,60L329.7,60z"/>
</g>
</svg>
