<?xml version="1.0" encoding="utf-8"?>
<svg version="1.1" id="Layer_1" xmlns="http://www.w3.org/2000/svg" xmlns:xlink="http://www.w3.org/1999/xlink" x="0px" y="0px"
	width="100px" height="100px" viewBox="0 0 66.7 66.7" style="enable-background:new 0 0 66.7 66.7;" xml:space="preserve">
<g>
	<circle style="fill:#E8E8E8;" cx="33.3" cy="33.3" r="33.3"/>
	<circle style="fill:#FFFFFF;" cx="33.3" cy="33.3" r="32.7"/>
	<path d="M5.9,30.3h1.3c0.5,0,0.8,0.1,1.1,0.4c0.3,0.3,0.4,0.7,0.4,1.4c0,0.5,0,0.9-0.3,1.2c-0.2,0.4-0.6,0.7-1.3,0.7H6.7v2.4H5.9
		L5.9,30.3C5.9,30.3,5.9,30.3,5.9,30.3z M6.7,33.2h0.5c0.7,0,0.7-0.5,0.7-1.1c0-0.5,0-1.1-0.7-1.1H6.8L6.7,33.2
		C6.8,33.2,6.7,33.2,6.7,33.2z M9.4,30.3h1.5c1.1,0,1.6,0.6,1.6,1.8c0,0.7-0.2,1.2-0.7,1.5l1,2.8h-0.9L11,33.8h-0.5v2.6h-1
		C9.4,36.4,9.4,30.3,9.4,30.3z M10.3,33h0.5c0.6,0,0.7-0.3,0.7-1c0-0.7-0.1-1-0.7-1h-0.5L10.3,33L10.3,33z M13.2,30.3h2.6V31h-1.7
		v1.9h1.5v0.9h-1.5v1.7h1.7v0.9h-2.6C13.2,36.3,13.2,30.3,13.2,30.3z M17.3,31.1h-1v-0.7h2.9v0.7h-1v5.3h-0.9V31.1L17.3,31.1
		L17.3,31.1z M20.9,31.1h-1.1v-0.7h2.9v0.7h-1v5.3h-0.9L20.9,31.1L20.9,31.1z M24.4,33.9l-1.3-3.5h0.9l0.7,2.4l0,0l0.7-2.4h0.9
		l-1.2,3.5v2.5h-0.9L24.4,33.9L24.4,33.9z M27.1,30.3H28v5.2h1.7v0.9h-2.6V30.3C27.1,30.3,27.1,30.3,27.1,30.3z M30.3,30.3h0.8v6.1
		h-0.9L30.3,30.3C30.3,30.3,30.3,30.3,30.3,30.3z M32.7,31.1h-1.1v-0.7h2.9v0.7h-1v5.3h-0.9V31.1L32.7,31.1L32.7,31.1z M36.1,31.1
		h-1v-0.7h2.8v0.7h-1v5.3H36L36.1,31.1L36.1,31.1L36.1,31.1z M38.5,30.3h0.9v5.2h1.7v0.9h-2.6V30.3C38.5,30.3,38.5,30.3,38.5,30.3z
		 M41.7,30.3h2.7V31h-1.9v1.9H44v0.9h-1.5v1.7h1.9v0.9h-2.7L41.7,30.3C41.7,30.3,41.7,30.3,41.7,30.3z M46,31.1h-1.1v-0.7h2.9v0.7
		h-1v5.3h-1v-5.3H46L46,31.1z M48.3,30.3h0.9v2.6h1.1v-2.6h0.9v6.1h-0.9v-2.7h-1.1v2.7h-1L48.3,30.3L48.3,30.3L48.3,30.3z
		 M52.1,30.3h0.9v6.1h-0.9V30.3z M53.9,30.3h0.9l1.3,3.7l0,0v-3.7h0.9v6.1h-0.8l-1.3-3.7h-0.1v3.7h-0.9L53.9,30.3
		C53.9,30.3,53.9,30.3,53.9,30.3z M57.8,31.7c0-1,0.7-1.5,1.5-1.5c0.7,0,1.5,0.5,1.5,1.5V32h-1v-0.3c0-0.5-0.3-0.6-0.6-0.6
		c-0.3,0-0.6,0.2-0.6,0.6v3.3c0,0.5,0.3,0.6,0.6,0.6c0.3,0,0.6-0.2,0.6-0.6v-1.2h-0.7V33h1.7v1.9c0,1-0.8,1.5-1.5,1.5
		s-1.5-0.5-1.5-1.5V31.7L57.8,31.7L57.8,31.7z"/>
</g>
</svg>
