<svg xmlns="http://www.w3.org/2000/svg" viewBox="0 0 1920 1280"><path fill="#0067b2" d="M0 0h1920v1280H0z"/><g fill="#fff"><path d="M690.2 706h67.1c26.3 0 42.1 15.8 42.1 38.4 0 19.1-12.6 31.7-26.3 34.6 16.1 2.4 29.3 19.1 29.3 37 0 24.2-16.1 40.5-43.5 40.5h-68.7V706zm64.1 65.3c16.9 0 26-10.5 26-24.2 0-13.4-9.1-24.4-26-24.4h-45.1v48.6h45.1zm.8 68.7c17.7 0 27.9-9.9 27.9-26 0-13.7-9.4-26-27.9-26h-46.2v52h46.2zm159.7-16.9h-76.2l-13.4 33.6h-20.7L865.2 706h23.4l60.7 150.6h-20.7l-13.8-33.5zM844 806.4h65.2l-32.5-83.7-32.7 83.7zM983 735v121.6h-18.8V706h19.3l86.7 119.2V706h18.8v150.6h-18L983 735zm-602.3-95.3L301 429.8h32.2L393 597.3c.3.3.8.8 1.3 1.1.5-.3.8-.8 1.3-1.1l59.9-167.5h32.2l-80.3 209.9h-26.7zm800.6 3.8l-42.7-42.9c13.2-18 21.2-40 21.7-64.2v-2.7-3.8-1.9c-3.2-58.2-50.2-104.4-108.2-104.7h-.5c-48 .3-88.8 32.2-102.8 76.8-1.6 5.4-2.7 11-3.5 16.9-2.1 16.4-1.3 31.7 1.9 45.9 12.3 47.2 54.5 81.9 104.7 81.9 25.5 0 48.6-8.9 67.1-23.9l22.5 22.5h39.8zm-81.8-41.9c.3.3-.5.5-1.1 1.6-26.3 24.2-91.3 25.8-116.2-29.5-11-24.2-11.3-49.1-1.9-73.8 13.2-34.4 46.7-54 82.7-49.1 35.4 4.8 62.5 33 66.8 69.5 2.7 22.8-.5 41.9-11.3 60.1l-14.5-14.5-9.9 8.6c-1.1.8-1.9 1.6-2.7 2.7l-8.6 7.8 16.1 16.1c.3 0 .3.2.6.5h0zm261.7-172.3h-28.7v146.6c-2.4 13.4-9.9 25-20.7 32.7-10.2 8.1-23.6 11.5-37.6 9.7-14.8-2.1-26-8.6-33.3-18.8-7.5-9.1-11.8-20.7-11.8-33.3v-1.6-3-131.8-.5h-28.7v40 103.3c0 .8 0 4 .3 5.9 10.2 62.8 80.5 82.4 124.8 53.7 25.5-16.6 35.7-41.3 35.4-71.1v-15.3l.3-116.5zm51.8.3h29.3v215.8H1413V429.6zM1618.6 574c-1.3-11.8-5.6-22-12.9-30.6-1.9-2.1-3.8-3.8-5.6-5.1-.5-.3-1.1-.5-1.3-1.1-2.1-1.6-4.3-2.7-5.9-3.5-1.1-.5-2.1-1.1-3.2-1.3l-7.5-3.5-33.6-11.5c-5.4-1.6-10.5-3.8-15.3-7-6.2-4.6-11.8-11.3-12.3-11.8-7.2-13.4-6.2-24.4 4-35.4l8.6-6.4c23.4-11.3 43.5-5.9 61.2 12.1l20.4-19.3c-4.8-6.7-16.9-14.5-23.4-17.7-18.3-9.7-48.6-11.5-75.7 3-19.3 10.5-29.8 27.9-29.8 50.2 0 23.9 9.9 42.1 31.7 53.1 8.6 4.3 18 7.5 27.1 10.5 9.9 3.2 19.9 5.9 29 11.5 16.1 9.7 19.3 29.3 7.2 43.8-5.6 7-13.2 11.3-21.7 13.4-22.8 5.4-41.6-2.1-56.6-20.4l-11.3 9.4c-3.8 3.5-8.1 6.4-10.7 10.5 29.3 39.5 95.8 38.1 128.3-1.9 0 0 3.2-3.8 4.6-8.3.7-.5 6.8-13.9 4.7-32.7h0zm-751.3 65.7c-.3-.2-.3-.2 0 0-.3-.2 0 0 0 0zm37-209.6c-9.4-1.1-19.1-.8-28.5-.3V604l-39.7-60.4-74.6-114.1h-37.8v3.2l-.3 190.3c0 4.8-.3 9.7-.3 14.5.3.5.5.8.3 1.3 9.4 1.1 19.1.5 28.5.3 0-.5 0-1.3.5-1.9V468.9l9.1 12.1 27.9 40.8 76.8 117.6H904l.3-209.3h0zM693.1 639.7l-88.6-210.2c-4.3 0-8.1 0-11.8-.3h-.8-1.6-1.6-.8c-3.8 0-7.8.3-11.8.3l-88.6 210.2h2.7l30.1.3 21.5-51.5h98.5l21.5 51.5 30.1-.3h1.2zm-140.6-77.3l10.2-26.3 26-67.6h1.3 1.3l26 67.6 10.2 26.3h-75zm605.5 215l62.8-71.4h-23.4l-61.2 71.4 9.7 11.5 57.2 67.6h23.1l-68.2-79.1z"/><path d="M1120.7,706h18.8v150.6h-18.8V706z"/></g></svg>