<?xml version="1.0" encoding="utf-8"?>
<svg version="1.1" id="Layer_1" xmlns="http://www.w3.org/2000/svg" xmlns:xlink="http://www.w3.org/1999/xlink" x="0px" y="0px"
	width="100px" height="100px" viewBox="0 0 522.7 522.7" style="enable-background:new 0 0 522.7 522.7;" xml:space="preserve">
<g>
	<circle style="fill:#E8E8E8;" cx="261.3" cy="261.3" r="261.3"/>
	<circle style="fill:#FFFFFF;" cx="261.3" cy="261.3" r="256.1"/>
	<path d="M436.4,353.8c0-7.8-5.7-13.6-15.2-16.2c-9.4-2.6-22.5-2.1-22.5-7.8c0.5-4.2,4.7-5.2,10.5-5.2c8.9,0,9.9,5.2,9.9,7.8h15.2
		c-0.5-11-10.5-19.3-25.6-19.3c-15.7,0-24.6,8.4-24.6,19.3c0,5.7,3.1,12,8.4,14.6c3.7,1.6,8.9,3.1,15.7,4.2c5.7,1,12,1.6,12.5,6.3
		c0,3.1-3.7,6.8-10.5,6.8c-9.9-0.5-12-5.7-12-9.9h-15.7c0.5,13.1,10.5,20.9,26.7,20.9C424.9,374.2,436.4,369,436.4,353.8z
		 M203.3,292.7l-27.7-47l-51.7,29.8l9.4,17.2H203.3z M409.8,374.2L409.8,374.2L409.8,374.2z M224.7,312.6h15.2v59.6h-15.2V312.6z
		 M385.2,292.7L295.8,138l-51.7,30.3l71.6,124.4H385.2z M224.7,307.3h15.2v-14.6h54.4l-57.5-100.4l-52.3,29.8l40.2,70.6V307.3z
		 M427,307.9c4.2,0,7.3-3.1,7.3-7.3c0-4.2-3.1-7.3-7.3-7.3c-3.7,0-7.3,3.1-7.3,7.3C419.7,304.7,423.4,307.9,427,307.9z M427,294.3
		c3.7,0,5.7,3.1,5.7,6.3s-2.1,6.3-5.7,6.3c-3.7,0-5.7-3.1-5.7-6.3C420.7,297.4,423.4,294.3,427,294.3z M203.3,318.3
		c-5.2-3.7-11-5.2-17.8-5.2c-17.2,0-30.3,13.6-30.3,30.3c0,17.2,13.6,30.8,30.3,30.8c6.8,0,13.1-1.6,17.8-5.2v3.7H218v-79.4h-14.6
		C203.3,293.2,203.3,318.3,203.3,318.3z M186.1,360.6c-9.4,0-17.2-7.8-17.2-17.2c0-8.9,7.3-17.2,17.2-17.2c8.9,0,17.2,7.8,17.2,17.2
		C203.3,352.8,195,360.6,186.1,360.6z M134.8,318.3c-5.2-3.7-11.5-5.2-18.3-5.2c-16.2,0-30.8,13.6-30.8,30.3
		c0,17.2,14.1,30.8,30.8,30.8c6.8,0,13.1-1.6,17.8-5.2v3.7H149v-59.1h-14.6L134.8,318.3L134.8,318.3z M117.6,360.6
		c-8.9,0-17.2-7.8-17.2-17.2c0-8.9,8.4-17.2,17.2-17.2c9.9,0,17.2,7.8,17.2,17.2C134.8,352.8,127,360.6,117.6,360.6z M425.5,301.6
		h1.6l1.6,3.7h1.6l-1.6-3.7c0.5-0.5,1.6-1,1.6-2.6c0-1-1.6-2.6-2.1-2.6h-3.1v8.4h1v-3.1H425.5z M425.5,297.9h1.6l0,0
		c1.6,0,1.6,0.5,1.6,1.6c0,1,0,1.6-1.6,1.6h-1.6V297.9z M362.7,318.3c-5.2-3.7-11.5-5.2-17.8-5.2c-17.2,0-30.3,13.6-30.3,30.3
		c0,17.2,13.6,30.8,30.8,30.8c6.8,0,13.1-1.6,17.8-5.2v3.7h13.6v-59.1h-13.6L362.7,318.3L362.7,318.3z M345.5,360.6
		c-9.4,0-17.2-7.8-17.2-17.2c0-8.9,7.3-17.2,17.2-17.2c8.9,0,17.2,7.8,17.2,17.2C362.7,352.8,354.4,360.6,345.5,360.6z M293.7,318.3
		c-4.2-3.7-10.5-5.2-17.2-5.2c-17.2,0-31.4,13.6-31.4,30.3c0,17.2,14.1,30.8,31.4,30.8c6.8,0,12.5-1.6,17.2-5.2v3.7h15.2v-79.4
		h-15.2V318.3L293.7,318.3z M277,360.6c-8.9,0-17.2-7.8-17.2-17.2c0-8.9,8.4-17.2,17.2-17.2c9.9,0,17.2,7.8,17.2,17.2
		C294.3,352.8,286.9,360.6,277,360.6z"/>
</g>
</svg>
