<?xml version="1.0" encoding="utf-8"?>
<svg version="1.1" id="Layer_1" xmlns="http://www.w3.org/2000/svg" xmlns:xlink="http://www.w3.org/1999/xlink" x="0px" y="0px"
	width="100px" height="100px" viewBox="0 0 66.7 66.7" style="enable-background:new 0 0 66.7 66.7;" xml:space="preserve">
<g>
	<circle style="fill:#E8E8E8;" cx="33.3" cy="33.3" r="33.3"/>
	<circle style="fill:#FFFFFF;" cx="33.3" cy="33.3" r="32.7"/>
	<path style="fill:#435765;" d="M18,40.3c-0.7,0-1.3-0.6-1.3-1.3c0-0.7,0.5-1.3,1.3-1.3c0.4,0,0.7,0.1,1.1,0.3l0.2-0.4
		c-0.4-0.2-0.8-0.3-1.3-0.3c-0.9,0-1.8,0.7-1.8,1.7l0,0c0,0.9,0.8,1.7,1.7,1.7H18c0.4,0,0.9-0.1,1.3-0.3L19.1,40
		C18.8,40.2,18.4,40.3,18,40.3z M47.9,38.9c0.3-0.1,0.4-0.4,0.4-0.7c0-0.5-0.4-0.9-0.9-0.9c-0.5,0-0.9,0.4-0.9,0.9
		c0,0.3,0.2,0.5,0.4,0.7c-0.3,0.2-0.5,0.5-0.5,0.8c0,0.5,0.5,1,1,1c0.5,0,1-0.5,1-1C48.3,39.4,48.1,39.1,47.9,38.9L47.9,38.9z
		 M47.3,37.7c0.3,0,0.5,0.2,0.5,0.5c0,0.3-0.2,0.5-0.5,0.5l0,0c-0.3,0-0.5-0.3-0.5-0.5C46.8,37.9,47.1,37.7,47.3,37.7L47.3,37.7z
		 M47.3,40.3c-0.3,0-0.6-0.3-0.6-0.6l0,0c0-0.3,0.3-0.6,0.6-0.6c0.3,0,0.6,0.3,0.6,0.5l0,0C47.9,40,47.7,40.3,47.3,40.3z M44.9,38.9
		c0.3-0.1,0.4-0.4,0.4-0.7c0-0.5-0.5-0.9-0.9-0.9c-0.5,0-0.9,0.4-0.9,0.9c0,0.3,0.2,0.5,0.4,0.7c-0.3,0.2-0.5,0.5-0.5,0.8
		c0,0.5,0.5,1,1,1c0.5,0,1-0.5,1-1C45.3,39.4,45.1,39.1,44.9,38.9z M44.3,37.7c0.3,0,0.5,0.2,0.5,0.5c0,0.3-0.2,0.5-0.5,0.5l0,0
		c-0.3,0-0.5-0.3-0.5-0.5C43.8,37.9,44.1,37.7,44.3,37.7z M44.3,40.3c-0.3,0-0.5-0.3-0.5-0.6l0,0c-0.1-0.3,0.2-0.6,0.5-0.6
		c0.3,0,0.5,0.3,0.5,0.5l0,0C44.9,40,44.7,40.3,44.3,40.3z M50.4,38.8c-0.2,0-0.4,0.1-0.5,0.1c0.1-0.6,0.5-1.1,0.9-1.5l-0.3-0.3
		c-0.7,0.6-1.1,1.4-1.2,2.3c0,0.7,0.4,1.2,1.1,1.2c0.5,0,1-0.4,1-0.9v-0.1C51.3,39.3,50.9,38.8,50.4,38.8
		C50.4,38.8,50.4,38.8,50.4,38.8z M50.9,39.8c0,0.3-0.3,0.5-0.5,0.5l0,0c-0.3,0-0.6-0.3-0.6-0.7v-0.1c0.1-0.1,0.4-0.3,0.6-0.3
		C50.7,39.2,50.9,39.5,50.9,39.8L50.9,39.8C50.9,39.8,50.9,39.8,50.9,39.8z M30.1,38.3c0-0.3,0.3-0.6,0.5-0.5l0,0
		c0.2,0,0.5,0.1,0.7,0.2l0.2-0.4c-0.2-0.2-0.5-0.3-0.9-0.3c-0.5,0-1,0.4-1,0.9c0,1.1,1.6,0.7,1.6,1.5c0,0.4-0.3,0.6-0.7,0.6
		c-0.3-0.1-0.5-0.1-0.7-0.3l-0.1,0.4c0.3,0.2,0.6,0.3,1,0.3c0.6,0,1.1-0.3,1.1-1C31.8,38.6,30.1,39,30.1,38.3z M24.6,40.3v-1.1h1.3
		v-0.3h-1.3v-1.1h1.3l0.2-0.4h-1.9v3.3h2L26,40.3L24.6,40.3C24.6,40.3,24.6,40.3,24.6,40.3z M27.6,40.3v-3h-0.5v3.3h2.1L29,40.3
		L27.6,40.3C27.6,40.3,27.6,40.3,27.6,40.3z M33.3,40.3v-1.1h1.3v-0.3h-1.3v-1.1h1.3l0.1-0.4h-2v3.3h2.1l-0.1-0.4
		C34.7,40.3,33.3,40.3,33.3,40.3z M22.5,38.9h-1.7v-1.5l-0.4,0.1v3.2h0.4v-1.5h1.7v1.5h0.4v-3.4l-0.4,0.1V38.9
		C22.5,38.8,22.5,38.9,22.5,38.9z M41.7,40.7h0.4v-3.4l-0.4,0.1V40.7z M36.9,37.4l-1.5,3.3h0.5l0.4-0.9h1.5l0.4,0.9h0.5l-1.6-3.4
		C37.2,37.3,36.9,37.4,36.9,37.4L36.9,37.4z M36.5,39.4l0.6-1.3l0.6,1.3H36.5L36.5,39.4z M28,28.8c0.6-0.1,1.9,0,2.5-1.5
		c0.1-0.4,0.3-0.7,0.5-1.1c0,0-1.6,0.1-2.5,0.7c-0.9,0.6-1.5,2.2-1.5,2.2C27.4,28.9,27.7,28.8,28,28.8L28,28.8z M30.2,26.8h0.2
		c-0.9,0.4-1.7,1-2.5,1.6C28.5,27.4,29.2,26.9,30.2,26.8z M50.1,30.8c0.1,0.1,0.2,0.3,0.3,0.3c0.2,0,0.3-0.3,0.5-1.1l0,0l0,0
		c-0.2-0.2-0.4-0.3-0.7-0.3c-0.5,0-1.1,0.4-1.5,1.1l-0.1,0.2v-0.3c0-0.8-0.2-1.1-0.7-1.1c-0.7,0-1.2,0.5-1.7,1.4
		c-0.1,0.1-0.1,0.1-0.1,0.2c0,0,0.1,0,0.1,0.1l0,0c0.1,0,0.1-0.1,0.2-0.2c0.3-0.4,0.5-0.6,0.7-0.6c0.1,0,0.1,0,0.2,0.1
		c0.1,0.1,0.1,0.4,0.1,0.9L47,35l0,0h1.2l0.3-2.1c0.2-1.6,0.6-2.6,1.1-2.6C49.8,30.4,49.9,30.6,50.1,30.8L50.1,30.8L50.1,30.8z
		 M26.9,33.5c-0.1,0-0.1,0.1-0.2,0.2c-0.3,0.4-0.5,0.5-0.7,0.5c-0.1,0-0.1,0-0.2-0.1c-0.1-0.1-0.1-0.4-0.1-0.9l0.2-1.4
		c0.1-0.9,0-1.5-0.3-1.9c-0.2-0.3-0.5-0.4-0.9-0.3c-0.3,0-0.6,0.1-0.9,0.2c-0.1,0-0.1,0.1-0.2,0.1l0,0c-0.2,0.1-0.4,0.3-0.5,0.5
		c-0.1,0.1-0.3,0.3-0.5,0.5h-0.1l0.7-5v-0.1h-0.1c-1,0.2-2.1,0.3-3.1,0.3h-1v0.2c0.3,0.1,0.6,0.2,0.8,0.5c0.1,0.2,0.1,0.5,0,0.7
		l-1.9,5.1l-1.4-5.2c-0.1-0.6,0.4-0.9,0.9-1v-0.2c-1.1,0.1-2.2,0.1-3.3,0v0.2c0.3,0.1,0.6,0.3,0.7,0.5c0.1,0.2,0.1,0.4,0.1,0.6
		l-1.9,5.1l-1.2-5.3c-0.1-0.6,0.4-0.9,0.9-1v-0.2l-1.7,0.1c-0.5,0-1.1,0-1.6-0.1v0.2c0.7,0.2,0.9,0.6,1,1.3l1.7,7.4h0.3l2.7-7l1.7,7
		h0.3l2.9-7.4c0.3-0.8,0.6-1.2,1-1.2c0.1,0,0.3,0.1,0.4,0.2c0.1,0.3,0.2,0.5,0.1,0.8l-1,7.6l0,0H22l0.3-2.2c0.3-1.9,1.2-2.4,1.8-2.4
		c0.2,0,0.3,0.1,0.5,0.2c0.2,0.2,0.2,0.6,0.1,1.1l-0.2,1.7c0,0.2-0.1,0.4-0.1,0.7c0,0.7,0.3,1.1,0.7,1.1c0.7,0,1.4-0.5,1.8-1.4
		c0-0.1,0.1-0.1,0.1-0.2C27,33.6,27,33.6,26.9,33.5z M28,34.1c0,0.7,0.3,1.1,0.7,1.1c0.7,0,1.4-0.5,1.9-1.4c0.1-0.1,0.1-0.1,0.1-0.2
		c0,0,0-0.1-0.1-0.1l0,0c-0.1,0-0.1,0.1-0.2,0.2c-0.3,0.4-0.5,0.5-0.7,0.5c-0.1,0-0.1,0-0.2-0.1c-0.1-0.1-0.1-0.4-0.1-0.9l0.5-3.6
		v-0.1h-0.1c-0.7,0.1-1.4,0.3-2.1,0.3l0,0v0.2l0,0c0.6,0.1,0.8,0.5,0.7,1.1l-0.3,2.3C28,33.7,28,33.9,28,34.1z M38.1,27.5L38.1,27.5
		l-0.3-0.1l0,0c-0.4,1.1-1.1,1.9-2.1,2.5l0,0v0.3h0.8l-0.4,3.2c-0.1,0.7,0,1.1,0.3,1.4c0.2,0.2,0.5,0.3,0.7,0.3
		c0.6,0,1.5-0.4,1.9-1.6c0.1-0.1,0.1-0.1,0-0.3l-0.1,0.1l0,0c-0.1,0-0.1,0.1-0.2,0.2c-0.2,0.3-0.5,0.7-0.9,0.7
		c-0.1,0-0.2-0.1-0.3-0.1c-0.1-0.2-0.2-0.5-0.1-0.8l0.4-3.1h1.5l0.1-0.4h-1.5C37.7,29.8,38.1,27.5,38.1,27.5z M33.8,27.5L33.8,27.5
		l-0.3-0.1l0,0c-0.4,1.1-1.1,1.9-2.1,2.5l0,0v0.3h0.8l-0.4,3.2c-0.1,0.7,0,1.1,0.3,1.4c0.2,0.2,0.5,0.3,0.7,0.3
		c0.6,0,1.4-0.4,1.9-1.6c0.1-0.1,0-0.1,0-0.2l0,0l-0.1,0.1l0,0c-0.1,0-0.1,0.1-0.2,0.2c-0.3,0.4-0.7,0.7-0.9,0.7
		c-0.1,0-0.2-0.1-0.3-0.1c-0.1-0.2-0.2-0.5-0.1-0.8l0.4-3.1h1.5l0.1-0.4h-1.5L33.8,27.5C33.8,27.5,33.8,27.5,33.8,27.5z M45.9,33.5
		L45.9,33.5L45.9,33.5c-0.1,0-0.1,0.1-0.2,0.1c-0.3,0.4-0.5,0.5-0.7,0.5c-0.1,0-0.1,0-0.2-0.1c-0.1-0.1-0.1-0.3-0.1-0.8l0.5-3.6
		v-0.1l0,0h-0.3l0,0c-0.1,0.3-0.3,0.5-0.7,0.5c-0.1,0-0.3-0.1-0.5-0.1c-0.3-0.1-0.6-0.2-0.9-0.2c-2.1,0-2.9,2-3.1,3.2v0.4
		c0,0.8,0.3,1.3,0.7,1.6c0.3,0.2,0.6,0.3,0.9,0.3c0.7,0,1.3-0.4,1.9-1.2l0.1-0.3V34c-0.1,0.3,0.1,0.7,0.3,0.9
		c0.1,0.1,0.3,0.2,0.5,0.2c0.7,0,1.2-0.4,1.5-0.9c0.1-0.1,0.2-0.3,0.3-0.5C45.9,33.7,45.9,33.6,45.9,33.5
		C46,33.7,45.9,33.5,45.9,33.5z M43.7,31.3l-0.1,1.1c-0.2,1.3-0.7,2-1.5,2c-0.4,0-0.9-0.4-0.9-1.3c-0.1-1.1,0.3-2.1,0.9-2.7
		c0.2-0.3,0.5-0.4,0.9-0.4c0.2,0,0.4,0.1,0.5,0.3C43.7,30.5,43.7,30.9,43.7,31.3L43.7,31.3L43.7,31.3z M57.1,33.6L57.1,33.6
		C57.1,33.6,57.1,33.5,57.1,33.6L57.1,33.6c-0.1-0.1-0.2,0-0.3,0.1c-0.3,0.4-0.5,0.5-0.7,0.5c-0.1,0-0.1,0-0.2-0.1
		c-0.1-0.1-0.1-0.4-0.1-0.9l0.5-4.1l0.5-3.3v-0.1h-0.1c-0.7,0.1-1.4,0.1-2.1,0.3l0,0v0.1l0,0c0.6,0.1,0.8,0.5,0.7,1.1l-0.1,1.1
		l-0.2,1.3L55,29.9l-0.1-0.1c-0.3-0.1-0.6-0.2-0.9-0.2c-1.4,0-2.3,0.9-2.7,1.9c-0.3,0.5-0.4,1.1-0.4,1.7c0,1.5,0.9,1.9,1.6,1.9
		c0.1,0,0.3,0,0.4-0.1c0.6-0.2,1.1-0.6,1.5-1.1l0.1-0.3v0.3c-0.1,0.3,0.1,0.7,0.3,0.9c0.1,0.1,0.3,0.2,0.5,0.2
		c0.3,0,0.5-0.1,0.7-0.2c0.5-0.3,0.9-0.7,1.1-1.2C57.1,33.8,57.1,33.7,57.1,33.6L57.1,33.6L57.1,33.6L57.1,33.6L57.1,33.6z
		 M54.8,31.3l-0.1,1.1c-0.2,1.3-0.7,2-1.5,2c-0.4,0-0.9-0.4-0.9-1.3c-0.1-1.1,0.3-2.1,0.9-2.7c0.2-0.3,0.5-0.4,0.9-0.4
		c0.2,0,0.4,0.1,0.5,0.3C54.8,30.5,54.9,30.9,54.8,31.3L54.8,31.3L54.8,31.3z"/>
</g>
</svg>
