<?xml version="1.0" encoding="utf-8"?>
<svg version="1.1" id="Layer_1" xmlns="http://www.w3.org/2000/svg" xmlns:xlink="http://www.w3.org/1999/xlink" x="0px" y="0px"
	width="100px" height="100px" viewBox="0 0 100 100" style="enable-background:new 0 0 100 100;" xml:space="preserve">
<g>
	<path style="fill:#E8E8E8;" d="M50,0c27.6,0,50,22.4,50,50s-22.4,50-50,50S0,77.6,0,50S22.4,0,50,0"/>
	<path style="fill:#FFFFFF;" d="M50,1c27.1,0,49,21.9,49,49S77.1,99,50,99S1,77.1,1,50S22.9,1,50,1"/>
	<g>
		<path style="fill:#1E1E1E;" d="M32,50.8c0-2.2,1.4-2.3,3.3-2.3h0.2c1.9,0,2.9,0.3,2.9,2.5v1.5c0,1.8-0.5,2.6-3,2.6H35
			c-2.4,0-3-0.7-3-2.4C32,52.7,32,50.8,32,50.8z M32,55.6L32,55.6c0.6,0.8,1.7,1.2,3,1.2h0.7c2.8,0,4.8-0.7,4.8-3.9v-2
			c0-3-1.3-4-4.7-4h-1.1c-1.5,0-2.3,0.5-2.7,1.1h0v-4.7h-2.1v13.3H32L32,55.6 M65.9,47.1h-2.8v-0.9c0-0.8,0.5-1.5,1.7-1.5l2.1,0
			v-1.6l-2.8,0c-1.7,0-3.1,0.9-3.1,3.1v0.8h-1.1v1.7H61v8h2.1v-8h2.8V47.1 M53.8,53.7c0,2.2,1.4,3.1,3.1,3.1h2.6v-1.7l-2.1,0
			c-1.1,0-1.5-0.6-1.5-1.4v-4.9h2.8v-1.7h-2.8v-3.9h-2.1v3.9h-1.1v1.7h1.1L53.8,53.7 M77.9,45.3H80v-2.1l-2.1,0V45.3 M77.9,56.8H80
			v-9.9h-2.1L77.9,56.8 M43.7,50.7c0-1.9,0.9-2.1,3-2.1l0.4,0c2.4,0,2.7,0.6,2.7,1.9l0,0.5l-6.2,0C43.7,51,43.7,50.7,43.7,50.7z
			 M45.9,56.8h1.9c2.5,0,3.7-0.8,4-2.2L50,54c-0.3,0.9-1.1,1.1-2.7,1.1h-0.5c-2.7,0-3.1-0.3-3.1-2.4l0,0H52v-1.8
			c0-3.3-1.7-3.9-4.5-3.9h-1c-2.2,0-4.8,0.4-4.8,3.7V53C41.7,56.3,44,56.8,45.9,56.8 M73.9,53.8c0,0.9-0.6,1.3-3.1,1.3h-0.6
			c-2.1,0-2.4-0.4-2.4-1.2l0-0.5c0-0.9,0.5-1.3,2.3-1.3h0.9c1.6,0,2.8,0.3,2.8,1.4C73.9,53.4,73.9,53.8,73.9,53.8z M71.3,46.9h-0.8
			c-2.8,0-4.1,0.9-4.1,2.2l2,0.7c0.1-0.9,1.1-1.2,2.7-1.2c2.3,0,2.9,0.1,2.9,1.8v0.9h0c-0.5-0.7-1.2-0.9-3-0.9H70
			c-2.7,0-4.2,0.7-4.2,2.8v0.6c0,1.7,0.7,3,3.5,3h2c2,0,2.2-0.3,2.6-0.9h0v0.9H76v-6.4C76,47.7,74.2,46.9,71.3,46.9 M86.3,46.9
			c-0.9,0-1.9,0.4-2.5,1.3h-0.1v-1.3l-2,0v9.9h2.1v-5.9c0-1.2,0.7-2.3,2.3-2.3c1.2,0,1.7,0.3,1.8,0.6l1.3-0.9
			C89.1,47.4,88.2,46.9,86.3,46.9 M26.1,43.2h-5.4V46h-2.9l5.6,6.5l5.6-6.5h-2.9V43.2 M10.6,54h2.9v2.7h5.4V54h2.9l-5.6-6.5L10.6,54
			"/>
	</g>
</g>
</svg>
