<?xml version="1.0" encoding="utf-8"?>
<svg version="1.1" id="Layer_1" xmlns="http://www.w3.org/2000/svg" xmlns:xlink="http://www.w3.org/1999/xlink" x="0px" y="0px"
	 viewBox="0 0 1920 881.9" style="enable-background:new 0 0 1920 881.9;" xml:space="preserve">
<g>
	<path style="fill:#1F2C4E;" d="M1920,472.7c-8.8-1-17.6-0.8-26.3,0.6c-16.2,2.3-28.5,15.5-29.7,31.8c-0.5,4.1-0.7,8.2-0.7,12.4
		v87.1c0,4.8,0.5,4.2-4,4.2h-40c-3.7,0-3.5,0.4-3.5-3.6V480.4c0.3-3-0.8-6-2.8-8.1c-1.4-1.7-3.5-2.7-5.8-2.7
		c-2.4,0.2-2.4-1.1-2.4-2.8v-23.7v-12.4c-0.3-0.9,0.3-1.8,1.1-2.1c0.3-0.1,0.6-0.1,0.8,0c9.6-0.4,19.3-0.2,28.9,0.6
		c9.9,1.4,18.6,7.5,23.3,16.3c1.8,3.6,2.5,7.7,2.1,11.7v2.1c1-0.2,1.7-0.9,1.9-1.9c3-5.7,6.6-11.2,10.5-16.3
		c10.2-12.7,26.4-19,42.5-16.8l3.9,0.3v48.2L1920,472.7z"/>
	<path style="fill:#7A7A7C;" d="M1147.8,881.9c-2.6-1.6-2.6-1.6-2.2-4.8c0.3-2.3,0.6-4.6,0.9-7c2.5,0.3,4.8,0.7,7,0.9
		c5.6,0.8,11-2,13.5-7.1c2.5-4.9,4.7-10.1,6.5-15.3c0.4-1.5,0.1-3.1-0.7-4.4l-20-53c-1.4-3.7-2.8-7.5-4.3-11.7h12.7
		c2.1,0,2.1,1.6,2.6,2.9c3.5,9.6,6.9,18.9,10.4,28.4c2,5.6,4,11.2,5.5,17c0.2,0.9,0.6,1.7,1.2,2.3c1-3.2,1.9-6.3,2.9-9.3
		c4.4-12.8,9-25.6,13.3-38.6c0.3-1.9,2.2-3.2,4.1-2.9h0.1h9.6c0.4,0.7,0.4,1.5,0,2.2c-9.6,25.7-19.4,51.4-29.4,77.1
		c-1.6,4.1-3.6,8-6,11.7c-3.1,5.4-8.4,9.2-14.5,10.6c-0.5,0-1.4,0-1.3,0.9h-12.4L1147.8,881.9z"/>
	<path style="fill:#1F2C4E;" d="M1040.6,362.4c0.8-0.3,1.8-0.4,2.7-0.3h48.2c3.5,0,3.5,0,4.2,3.4l27,125.9
		c3.4,16.1,6.9,32.1,10.3,48.2c0,1.1,0.5,2.2,1.3,2.9c1.9-10.1,3.8-20,5.7-30c5.6-29.6,11.2-59.2,16.9-88.8
		c3.4-17.9,6.9-35.8,10.4-53.7v-1.2c0.7-3,0.7-3.1,3.7-3.1h47.8c3.1,0,3.2,0,3.9,3.3c2.7,13,5.4,26.1,8,39.1
		c4.6,22.3,9.1,44.6,13.6,66.9c4.3,21.3,8.6,42.6,12.9,63.9c0.2,1.3,0.7,2.6,1.4,3.8c1.1-4.8,2.2-9.6,3.2-14.5l26.2-121.7
		c3-13.7,5.9-27.3,8.8-41c0.7-3.1,0.7-3.2,3.6-3.2h48.6h1.5c0.1,1.2,0,2.3-0.5,3.4l-54.9,194.7c-4.3,15.2-8.6,30.3-12.9,45.5
		c-0.8,2.9-0.9,2.9-3.9,2.9h-42.7c-3.2,0-3.3,0-3.9-3.3c-3.5-17.3-6.9-34.5-10.4-51.8c-5.3-26.6-10.6-53.3-15.8-79.9
		c-3.2-16.6-6.4-33.2-9.6-49.9c-0.1-1.5-0.6-2.9-1.3-4.2c-1.2,6-2.3,11.5-3.4,17.1l-15.2,76.8l-15.8,80.2c-0.8,4.2-1.7,8.4-2.5,12.6
		c-0.1,1.4-1.2,2.4-2.6,2.3h-0.3h-43.4c-1.5,0.1-2.8-1-3-2.5V606c-6.1-21.9-12.3-43.8-18.5-65.7l-36.8-131
		c-4.2-14.9-8.4-29.9-12.6-44.8C1040.4,363.9,1040.4,363.1,1040.6,362.4"/>
	<path style="fill:#1495D6;" d="M1796.7,0c1,1.5,1.5,3.3,1.6,5.1c5.1,17.5,11.5,34.5,19.3,50.9c9.6,20.5,20.5,40.3,31.2,60.2
		c9.1,16.4,17.2,33.4,24.1,50.8c4.6,11.5,7.5,23.7,8.8,36c1,10.6,0.5,21.2-1.3,31.7c-2.1,13.4-7.1,26.2-14.5,37.6
		c-26,38.2-78,48.2-116.2,22.2c-3.6-2.5-7.1-5.2-10.3-8.2c-10.8-10.4-18.7-23.4-22.9-37.8c-6.9-22-7.1-45.6-0.5-67.7
		c5.3-17.5,12.4-34.3,21.2-50.4c9.6-18.6,19.7-37,29.3-55.7c11.6-21.7,21-44.5,28.1-68c0.6-2.1,1.2-4.2,1.8-6.4
		C1796.5,0.3,1796.6,0.1,1796.7,0 M1779,284.3c3.4,0.1,6.7-0.2,10-0.8c1.2,0.1,2.3-0.7,2.6-1.9c0.1-1.1-0.8-2.1-2-2.2h-0.3
		c-0.5-0.1-1-0.2-1.5-0.4c-14.4-4-26.5-13.6-33.7-26.6c-9.6-16.6-11.8-36.5-6.2-54.8c3.4-11.5,7.6-22.8,12.6-33.7
		c6.2-13.8,11.6-27.9,16.2-42.4c2.2-7.2,3.8-14.5,4.8-21.9c0-1.5,0.7-3.8-1.7-4.1c-2.4-0.3-2.2,1.9-2.6,3.3
		c-2.8,9.9-6.3,19.6-10.7,28.9c-6.1,13.7-13.5,26.7-20.5,40c-5.7,10.3-10.6,21-14.7,32c-5.8,15.5-6.2,32.5-1.1,48.2
		c6.3,21.7,26.1,36.7,48.7,36.8L1779,284.3L1779,284.3z"/>
	<path style="fill:#1495D6;" d="M0,608.4l11-32.1l72.3-210c1.5-4.5,0.9-3.9,5.3-3.9h54.8c3.4,0,3.4,0,4.5,3.2l63.7,185.2
		c6.1,17.7,12.1,35.4,18.2,53c0.7,1.4,1.1,2.9,1.2,4.4c-0.5,0.4-1.2,0.6-1.9,0.4h-48.7c-2.9,0-2.8,0.7-4-2.9l-13.8-44.4
		c-1-3.1-1-3.1-4.1-3.1H74.2c-3.2,0-3.2,0-4.3,3c-5.1,14.9-10.2,29.8-15.3,44.7c-0.1,1.7-1.5,3-3.2,2.9H1.3
		C0.8,608.7,0.4,608.5,0,608.4 M116.9,418.6h-0.8l-31.3,96.7h62.4L116.9,418.6z"/>
	<path style="fill:#1F2C4E;" d="M1468.6,445.9v-15.1c0-1.9,0.6-2.4,2.5-2.4h38.6c2.7,0,2.7,0,2.7,2.8v2.3v124.4
		c-0.2,3.7,1.7,7.2,4.8,9.1c1.8,0.8,3.7,1.1,5.6,1.1c0.6,0.9,0.8,1.9,0.5,2.9v34.2c0,3.8,0.3,3.5-3.7,3.5c-8.8,0-17.6-0.2-26.4,0
		c-10.7,0.4-25.8-10.2-25.1-24.5c0.2-0.5,0-1.1-0.4-1.4c-0.8,0.6-1.4,1.4-1.7,2.4c-9.7,15.1-25.6,25.1-43.4,27.2
		c-21.1,3.4-42.6-1.1-60.6-12.6c-15.6-10.4-26.8-26.2-31.5-44.3c-3.8-13.3-5.4-27.2-4.8-41.1c0-14.8,3.3-29.4,9.6-42.8
		c11.5-24.2,34.1-41.3,60.5-45.8c9.2-2.2,18.7-2.8,28.1-1.8c16.1,1.6,31.2,8.7,42.7,20L1468.6,445.9z M1461.1,519
		c0-4.4-0.3-8.8-0.9-13.2c-0.8-8.4-3.4-16.5-7.6-23.8c-4.6-7.8-11.9-13.6-20.6-16.1c-8.5-2.5-17.5-2.7-26.1-0.6
		c-11.7,2.8-21.3,11.1-25.6,22.4c-2.9,7.1-4.6,14.5-5.1,22.2c-1.4,12.8,0,25.7,4.2,37.8c3.6,11.8,13,20.9,25,24.1
		c8.8,2.4,18.1,2.4,26.8,0c11.9-3.2,21.3-12.1,25.2-23.8C1459.7,538.7,1461.3,528.9,1461.1,519"/>
	<path style="fill:#1F2C4E;" d="M1675.9,531.7c0.3,8.3,2.2,16.5,5.7,24.1c4.6,9.5,13.4,16.3,23.7,18.4c10,2.6,20.6,1.6,29.9-2.8
		c5.7-2.6,10.2-7.4,12.4-13.3c0.2-1.4,1.5-2.4,2.9-2.3h45.1c0.6-0.1,1.2,0.1,1.6,0.6c-2.7,10.2-7.5,19.7-14.1,28
		c-11.9,14.8-28.9,24.6-47.6,27.5c-18.3,3.1-37.1,1.8-54.8-4c-17-5.3-31.3-17.1-39.6-32.9c-6.3-11.6-10.2-24.4-11.7-37.5
		c-1.7-13.1-1.7-26.4,0-39.5c1.8-15.1,7.2-29.6,15.8-42.1c11.6-16.4,29.4-27.4,49.3-30.4c17.1-3.2,34.8-2.1,51.4,3.2
		c17.1,5.5,31.4,17.5,39.9,33.3c6.9,12.1,11.1,25.4,12.5,39.2c0.9,8.9,1.4,17.8,1.3,26.7c0,4.1,0,3.8-3.8,3.8H1675.9z M1750.1,500.5
		c0-3.9-0.7-7.8-2-11.5c-3.1-11.9-12.3-21.3-24.1-24.7c-5-1.3-10.2-1.7-15.4-1.1c-9.5,0.5-18.1,5.5-23.4,13.4
		c-3.5,5.3-5.8,11.3-7,17.5c-0.7,2-0.9,4.2-0.6,6.3h72.5V500.5z"/>
	<path style="fill:#1495D6;" d="M562.6,456.3c1.3-2,2.6-4.1,3.9-6.1c9.7-15.3,26.2-25,44.3-26.1c11-1,22.1,0.5,32.4,4.4
		c18.6,6.7,32,23.1,34.9,42.6c0.8,4.8,1.2,9.6,1.1,14.5v77.3v42c0,3.3,0,3.3-3.4,3.3H635c-3.7,0-3.7,0-3.7-3.9V499
		c0.1-4.1-0.1-8.3-0.6-12.4c-1.5-12.2-11.5-21.6-23.8-22.3c-8.6-1.3-17.5,0.3-25.2,4.4c-9.9,5.6-16.4,15.7-17.5,26.9
		c-0.6,4.6-0.9,9.3-0.8,13.9v93.3c-0.1,0.9-0.1,1.8,0,2.7c0.3,2.1-0.7,2.6-2.7,2.6h-42c-2.6,0-2.6,0-2.6-2.9v-42.4v-81.6
		c0.1-3-0.9-5.9-2.7-8.3c-1.9-2.5-5-3.8-8.2-3.5c-2.9,0-3,0-3-2.9v-35c0-2.9,0-2.9,3.1-3h33.1c12.5,0.8,22.4,10.8,23.1,23.3v4.2
		L562.6,456.3z"/>
	<path style="fill:#1495D6;" d="M856.9,429.2c0.9-0.5,2-0.6,3-0.5h41.2c3.2,0,3.2,0,4.1,3.2l35.7,124.7c0.4,1.3,0.8,2.7,1.3,4.3
		c1-1.3,1.6-2.9,1.8-4.5c9.6-34.4,19.3-68.8,28.9-103.2l6.4-22.8c0-1.4,1.2-2.5,2.6-2.5h0.2h42.7c0.6,0,1.2,0.2,1.5,0.7l-8.7,26.6
		c-14.3,43.4-28.6,86.7-42.9,130.1c-6.7,20.4-13.3,40.7-21.3,60.6c-2.4,5.9-5.3,11.5-8.7,16.9c-6.5,10.4-17.7,17-29.9,17.5
		c-14.1,1.3-28.2,0.4-42.3,0.8c-2,0-2.4-0.8-2.4-2.5v-35c0-2.5,0-2.5,2.7-2.3c6.1,0.4,12.1,1.2,18.2,1c13.8-0.3,20-4.8,24.1-18
		c1.6-4.7,1.6-9.8,0-14.5c-19.3-59.1-38.3-118.1-57.2-177.3C857.5,431.3,857.2,430.3,856.9,429.2"/>
	<path style="fill:#1495D6;" d="M240.7,537.2v-69.4v-2.7c0-2.1-0.8-2.6-2.7-2.6h-20.6c-2.8,0-2.8,0-2.8-2.7v-28.4c0-2.9,0-2.9,3-3
		h20.2c2.8,0,2.9,0,2.9-3c0-6.2,0-12.4,0.2-18.7c0.3-7.9,2.4-15.7,6-22.7c4.3-7.5,11-13.3,19-16.4c7-3,14.6-4.7,22.3-4.8
		c9.1-0.3,18.1,0,27.2,0c2.6,0,2.7,0,2.7,3v32.6c0,3,0,3-2.9,3h-12.8c-1.8,0-3.6,0.2-5.4,0.5c-4.8,0.4-8.4,4.5-8.2,9.3
		c-0.5,4.8,0,10.1-0.4,15.1c0,1.8,1,1.7,2.3,1.7h24.1c4.8,0,4.3-0.3,4.3,4.4v26.8c0,2.7,0,2.7-2.7,2.8h-24.1c-4,0-3.8-0.6-3.8,3.7
		V552v53c0,3.9,0,3.3-3.4,3.3h-42.4c-3.8,0-3.3,0-3.3-3.4c0.4-15.6,0.9-31.3,1.3-47C240.5,550.8,240.1,543.3,240.7,537.2"/>
	<path style="fill:#1F2C4E;" d="M1547.5,511.9v-44.7v-2.3c0.2-2-0.8-2.4-2.5-2.3h-17.5h-2.3c-0.8,0.3-1.7-0.2-2-1
		c-0.1-0.3-0.1-0.7,0-1v-8.5v-20.6c0-3,0-3,2.9-3h18.7c2.7,0,2.7,0,2.7-2.7V371c0.1-0.9,0.1-1.8,0-2.7c-0.3-2.2,0.8-2.6,2.7-2.6h42
		c2.8,0,2.9,0,2.9,3.1v54.4v1.5c0,3.9-0.5,3.8,3.8,3.8h22.9c2.7,0,2.8,0,2.8,2.7v28.9c0.3,1.1-0.3,2.3-1.4,2.6
		c-0.4,0.1-0.8,0.1-1.2,0h-23.7c-3.2,0-3.2,0-3.2,3.1v79.7c-0.1,2.6,0.2,5.2,1,7.7c2.1,5.8,7.6,9.6,13.7,9.6c3.6,0.4,7.2,0,10.9,0.2
		c2.8,0,2.9,0,2.9,2.7v42.4c0,1.4,0,2.8-2,2.8c-11.3,0-22.6,0.5-33.7-0.5c-14-1.2-26.4-9.5-32.7-22.1c-3.8-7.1-6.1-14.9-6.9-22.9
		c-0.7-6.7-0.9-13.5-0.7-20.2C1547.5,534.2,1547.5,523.1,1547.5,511.9"/>
	<path style="fill:#1495D6;" d="M353.9,529.4v-62.2v-2.7c0-0.9-0.6-1.9-2.1-1.9h-18.7c-0.9-0.1-1.8-0.1-2.7,0
		c-2.2,0.3-2.6-0.7-2.6-2.7V431c-0.3-1.2,0.4-2.3,1.5-2.7c0.4-0.1,0.7-0.1,1.1,0H351c2.7,0,2.7,0,2.7-2.8c-0.2-7.4,0-14.8,0.5-22.1
		c0.4-3.6,1.1-7.2,2.1-10.7c3.3-12.3,12.5-22,24.6-26c6.7-2.5,13.7-3.9,20.9-4h26c3.3,0,3.3,0,3.3,3.2v32.7c0,2.7,0,2.8-2.8,2.8
		h-12.8c-2.2,0-4.4,0.3-6.5,0.8c-3.8,0.7-6.8,3.8-7.1,7.7c-0.7,5.4-0.9,10.8-0.8,16.3c0,2,1.2,1.9,2.5,1.9h26.5
		c0.9-0.2,1.8,0.3,2,1.2c0.1,0.3,0.1,0.6,0,0.8V460c0,1.9-1,2-2.4,2h-24.9c-4,0-3.7,0-3.7,3.9V476v127.9c0,4.8,0.6,4.2-4.4,4.2
		h-41.2c-3.9,0-3.5,0.6-3.4-3.6C352.9,581.9,353.7,558.8,353.9,529.4"/>
	<path style="fill:#1495D6;" d="M774.3,513.5v-46.3v-2.3c0-1.9-0.7-2.4-2.5-2.4h-17.5c-5.8,0-4.6,0.6-4.6-4.5v-26.4c0-3,0-3,3-3
		h17.9c3.9,0,3.6,0,3.6-3.6v-54.8c0-4.8-0.6-4.2,4-4.2h39.3c4.8,0,4.3,0,4.3,4.5v54.4c0,4.1-0.5,3.7,3.8,3.7h22.6c3,0,3,0,3,3v28
		c0,2.9,0,2.9-3,2.9h-23.7c-1.9,0-2.7,0.3-2.7,2.5v82.8c-0.3,7.8,5.6,14.4,13.3,15c4,0.4,8,0.6,12,0.5c2.7,0,2.8,0,2.8,2.7v42
		c0,2.8,0,2.9-2.7,2.9h-28c-19.8,0.1-37-13.3-41.9-32.5c-2.3-7.8-3.4-15.9-3.3-24.1C774.3,540.7,774.3,527.1,774.3,513.5"/>
	<path style="fill:#7CBD47;" d="M1503.9,348.2c-0.2-1.4,0-2.9,0.5-4.2c3.4-12.4,9.5-23.9,17.8-33.7c14.1-18.4,32.9-32.7,54.5-41.3
		c25.5-9.9,53.8-10.1,79.4-0.5c14.3,5.3,28.1,12.2,40.9,20.4c14.3,9.1,29.2,17.4,44.4,24.8c13.8,6.6,28.5,11,43.7,13
		c18.1,2.2,36.5-1,52.8-9.3c11.7-5.8,22.6-13.3,32.3-22.1c3.5-3.4,6.8-7,9.6-11c0.6-1,1.4-1.9,2.4-2.6c0,1.4-0.5,2.8-1.4,3.9
		c-8.9,15.9-22.1,29-38.2,37.7c-15,8.3-31.3,14.1-48.2,17.2c-16.8,3.2-33.9,4.2-51,2.8c-20.6-1.5-40.8-6.9-59.5-15.9
		c-12.3-5.9-24.1-12.9-36.6-18.6c-9.7-4.7-20-8.3-30.6-10.6c-19.3-4-39.3-1.3-56.9,7.5c-13.6,6.9-26.3,15.6-37.7,25.8
		c-5.3,4.8-10.4,9.3-15.4,14.5C1506.1,347,1505.1,347.7,1503.9,348.2"/>
	<path style="fill:#1495D6;" d="M491.2,518.9v85.5c0,4.8,0,4.2-4.1,4.2H447c-3.6,0-3.6,0-3.6-3.6v-81.6V434v-2.3
		c0-2.1,0.8-2.6,2.7-2.6h42.4c1.2-0.3,2.4,0.5,2.7,1.7c0.1,0.3,0.1,0.7,0,1v19.3V518.9z"/>
	<path style="fill:#1495D6;" d="M738.7,519.3v85.1c0,4.8,0.5,4.2-4,4.2h-40c-3.3,0-3.6,0.9-3.6-3.6v-83.9v-87v-1.9
		c0-2.9,0-2.9,3.1-2.9H735c3.8,0,3.8,0,3.8,3.8C738.7,461.8,738.7,490.6,738.7,519.3"/>
	<path style="fill:#7A7A7C;" d="M1568.5,789.3c0.6,0,1.2-0.5,1.3-1.1c4.6-7.1,12.9-11.1,21.3-10.2c10.1-0.2,19,6.5,21.6,16.3
		c3.5,10.7,3.3,22.2-0.5,32.8c-4.4,12.7-16.5,21-29.9,20.5c-3.6,0-7.2,0-10.9-0.2c-2.6,0-2.6,0-2.6,2.5v26.4v2.7
		c0.1,0.8-0.4,1.5-1.2,1.7h-0.4h-9.3c-0.8,0.1-1.6-0.5-1.7-1.3V879v-2.7v-92.9c0-4.5-0.3-4.3,4.1-4.2h5.8c0.9-0.3,1.9,0.2,2.3,1.1
		c0.1,0.4,0.1,0.7,0,1.1v5.8C1568.1,787.9,1568.1,788.7,1568.5,789.3 M1568.9,822.3v12c-0.2,1.3,0.7,2.6,2,2.8h0.3
		c3.3,0.7,6.7,1.1,10,1c8.1,0.5,15.5-4.4,18.2-12c3.4-9.1,3.6-19,0.5-28.2c-2.3-7.2-9.9-11.2-17.1-9c-2.2,0.7-4.2,1.9-5.7,3.5
		c-3.5,3.5-6,7.9-7.1,12.7C1569,810.8,1568.6,816.6,1568.9,822.3"/>
	<path style="fill:#7A7A7C;" d="M1068.4,790.4c0.4-0.3,0.7-0.6,1-1c5.8-9.7,17.5-14.1,28.3-10.7c7.1,1.6,12.8,6.9,15,13.9
		c4.5,11.9,4.1,25.1-1,36.8c-5.4,12.3-15.8,17.6-28.9,18.1h-9.6c-4.8,0-3.8-0.3-3.9,3.9v25.3v2.7c0.1,0.7-0.5,1.3-1.2,1.4h-0.3h-9.3
		c-0.8,0.1-1.5-0.4-1.7-1.2v-0.4v-2.7v-92.9c0-4.8-0.4-4.3,4.4-4.3h5.4c1-0.3,2,0.3,2.3,1.3c0.1,0.3,0.1,0.6,0,0.9v4.3
		C1068.9,787.2,1068.6,788.5,1068.4,790.4 M1069.3,822.1v12.3c-0.2,1.1,0.6,2.1,1.7,2.3h0.2c3.9,0.9,7.9,1.3,11.9,1.1
		c8.9-0.1,16.5-6.5,18.1-15.3c0.6-2.7,1.1-5.4,1.3-8.1c0.6-5.8-0.1-11.7-2.1-17.2c-2.3-6.7-9.5-10.3-16.3-8.1
		c-3.4,0.9-6.4,3-8.4,5.8c-2.8,3.7-4.7,8.1-5.5,12.7c-0.7,4.8-0.9,9.7-0.8,14.6v-0.1H1069.3z"/>
	<path style="fill:#7A7A7C;" d="M998,789.7c3.5-5.7,9.3-9.8,15.9-11.1c9.7-2.5,20,1.3,25.6,9.6c2.4,3.7,3.9,7.9,4.5,12.3
		c1.3,7.7,1,15.5-0.8,23.1c-3.2,14.4-16.3,24.5-31,24.1c-3.8,0-7.5,0-11.2-0.3c-1.9,0-2.5,0.4-2.4,2.3v26.4v2.7
		c0.2,0.8-0.3,1.7-1.1,1.9c-0.2,0.1-0.5,0.1-0.7,0h-8.9c-0.8,0.2-1.7-0.3-1.8-1.2c-0.1-0.2,0-0.5,0-0.7v-2.3v-93.2v-1.5
		c-0.3-2.1,0.7-2.7,2.7-2.6c2.3,0.1,4.7,0.1,7,0c1.9,0,2.5,0.7,2.4,2.5C997.9,784.4,998,787,998,789.7 M998.5,822.5v11.4
		c-0.3,1.4,0.5,2.8,1.8,3.1c0.2,0,0.3,0.1,0.5,0.1c4.3,0.9,8.7,1.2,13.1,0.8c7.4-0.7,13.7-5.9,15.7-13.1c1.6-4.9,2.2-10.1,1.9-15.3
		c0-4.5-0.8-9-2.6-13.2c-1.7-4.2-5.5-7.1-9.9-7.7c-4.5-0.7-9.2,0.8-12.4,4c-3.9,4-6.4,9-7.4,14.5
		C998.6,812.2,998.3,817.4,998.5,822.5"/>
	<path style="fill:#1495D6;" d="M713.6,420.8c-14.8,0.1-26.9-11.8-27-26.6v-0.4c-0.1-15,12-27.3,27-27.4c15-0.1,27.3,12,27.4,27
		c0.1,15-12,27.3-27,27.4H713.6z"/>
	<path style="fill:#1495D6;" d="M466.9,420.8c-14.8,0.1-26.9-11.8-27.1-26.6v-0.3c0-15,12.1-27.1,27-27.2
		c15.1,0.1,27.2,12.3,27.3,27.3C494,409,481.8,420.9,466.9,420.8"/>
	<path style="fill:#7A7A7C;" d="M357.6,814.5c-0.4-8.5,2.1-16.9,7.1-23.7c6.2-8.5,16.4-13.3,27-12.5c3.1,0,6.2,0.5,9.2,1.3
		c8.6,2.1,15.5,8.6,18,17.2c3.2,9.5,3.2,19.8,0,29.3c-4.1,13.9-17.2,23.3-31.7,22.6c-3.3,0-6.5-0.4-9.6-1.3
		c-10.4-2.9-18-11.8-19.3-22.5C357.7,821.4,357.5,817.9,357.6,814.5 M408.1,811.9c0-4.3-0.7-8.5-2.2-12.6c-1.7-5-5.9-8.8-11.1-9.9
		c-9.3-2.8-19.1,2.3-22.1,11.6c-3.1,8.8-2.9,18.4,0.6,27c1.7,5,5.9,8.7,11.1,9.6c8.8,2.6,18.1-2,21.2-10.7c1.9-4.8,2.8-10,2.5-15.2
		V811.9z"/>
	<path style="fill:#7A7A7C;" d="M1297.6,778c3.5,0,7,0.4,10.4,1.3c9,2.3,16.1,9.3,18.4,18.3c2.7,8.7,2.7,18.1,0,26.8
		c-2.9,12.2-12.9,21.4-25.3,23.4c-6.3,1.2-12.7,0.7-18.7-1.4c-7.6-2.7-13.4-8.9-15.7-16.6c-3-9-3.3-18.7-0.8-27.9
		C1269.4,787.4,1282.7,777.4,1297.6,778 M1315.1,812.4c0.2-4.8-0.6-9.6-2.4-14.1c-1.8-4.7-5.8-8.2-10.7-9.3
		c-9.5-2.9-19.5,2.5-22.4,12c0,0.1,0,0.1-0.1,0.2c-2.7,8.5-2.5,17.6,0.7,25.9c1.5,4.7,5.3,8.4,10.1,9.6c9,3.3,19-1.3,22.4-10.3
		C1314.5,822.1,1315.3,817.3,1315.1,812.4"/>
	<path style="fill:#7A7A7C;" d="M604.2,815.3c-0.7-10.5,3.1-20.7,10.3-28.3c4-4.1,9.1-6.9,14.7-8c5.8-1.2,11.9-1.2,17.7,0.2
		c7.9,1.6,14.5,7,17.5,14.5c5.1,11.5,4.9,24.7-0.4,36.1c-4.8,11.3-15.9,18.6-28.2,18.5c-3.9,0.2-7.8-0.2-11.5-1.3
		c-10.5-3-18.1-12.1-19.3-22.9C604.5,821.1,604.2,818.2,604.2,815.3 M617.4,812.8c-0.2,4.5,0.5,8.9,1.9,13.2
		c1.7,6.3,7.2,10.9,13.8,11.5c7.1,1.3,14.3-2,17.9-8.3c1-1.7,1.8-3.4,2.3-5.3c2.3-7.6,2.3-15.7,0-23.4c-1.4-5.7-5.9-10.1-11.6-11.3
		c-9.6-2.8-19.6,2.8-22.4,12.4C618,805.1,617.3,808.9,617.4,812.8"/>
	<path style="fill:#7A7A7C;" d="M1528.1,836c-1.4,1.8-2.3,3.2-3.5,4.3c-6.8,7.5-17.5,10.1-27.1,6.7c-8.8-3.3-13.3-13.2-10-22
		c0.6-1.6,1.4-3,2.4-4.3c2.2-3.2,5.2-5.8,8.7-7.6c5.2-2.8,11-4.6,16.9-5.2c3.2-0.5,6.4-0.8,9.6-0.8c1.3,0,2.2,0,2.1-1.8
		c-0.1-1.8,0-4.1,0-6.2c-0.1-5.7-4.6-10.4-10.4-10.7c-7.2-0.9-14.5,0.4-21.1,3.5c-1,0.7-2.1,1.1-3.3,1.3c-0.7-2.9-1.1-5.8-1.3-8.8
		c-0.2-1.2,0.6-2.2,1.8-2.4h0.1c6.1-2.4,12.7-3.8,19.3-4c4.3-0.2,8.5,0.1,12.7,1c8,1.5,14,8.3,14.5,16.4c0.2,1.3,0.2,2.6,0.2,3.9
		V844c0,3.1,0,3.1-3.2,3.2h-5.4c-3.3,0-3.3,0-3.3-3.5C1528.1,841.3,1528.1,839,1528.1,836 M1522.6,816.3c-4.9,0-9.8,0.8-14.5,2.4
		c-2.5,0.8-4.7,2.2-6.5,4.1c-2.4,2.6-3.2,6.3-1.9,9.6c0.9,3.2,3.7,5.5,7.1,5.9c4.8,0.9,9.7-0.6,13.3-4c3.6-3.3,6-7.6,6.9-12.3
		c1.2-5.3,0.8-5.7-4.4-5.5V816.3z"/>
	<path style="fill:#7A7A7C;" d="M737.2,793.6c-0.4-3.3-0.7-6.1-1.1-8.9c-0.3-1.1,0.4-2.3,1.5-2.6h0.1c10.2-4.2,21.5-5.2,32.3-3
		c8.1,1.4,14.2,8.3,14.5,16.5c0.1,1.2,0.1,2.3,0,3.5v44.7c0,3.4,0,3.4-3.3,3.4h-6.6c-0.9,0.2-1.8-0.4-2-1.3c-0.1-0.3,0-0.6,0-0.8
		V836l-2.1,2.9c-6.8,8.5-18.3,11.8-28.6,8.2c-12.8-4.4-12.4-19.3-7.2-26.5c3.3-4.4,7.8-7.8,13-9.6c6.9-2.5,14.3-3.8,21.6-3.9
		c2.7,0,2.7,0,2.7-2.8c0.1-1.8,0.1-3.6,0-5.4c-0.2-5.7-4.8-10.3-10.5-10.6c-7.1-0.8-14.3,0.4-20.8,3.4L737.2,793.6z M767.2,816.3
		c-4.1,0-8.2,0.6-12.1,1.7c-3.1,0.7-5.9,2.1-8.1,4.3c-2.6,2.5-3.5,6.2-2.4,9.6c0.9,3.4,3.8,5.8,7.3,6.1c4.8,0.8,9.7-0.7,13.3-4.1
		c3.6-3.4,6.1-7.8,6.9-12.7C772.9,816.3,772.7,816.1,767.2,816.3"/>
	<path style="fill:#7A7A7C;" d="M1352.6,789.7c0.4-0.4,0.7-0.8,1.1-1.3c6.3-9.6,17.3-12,28.2-9.6c7.1,1.4,12.4,7.3,13.1,14.5
		c0.4,2.3,0.5,4.6,0.5,6.9v43.1v2.3c0.1,0.7-0.5,1.3-1.2,1.4h-0.3h-9.6c-0.8,0-1.5-0.6-1.5-1.4v-0.4v-2.7v-38.8
		c0.2-2.9-0.1-5.8-0.9-8.5c-1.2-4.1-5-7-9.3-6.9c-4.5-0.2-8.9,1.5-12,4.8c-5.3,5.5-8.1,12.9-7.9,20.5v30.3c0,3.3,0,3.4-3.4,3.4h-6
		c-3.4,0-3.4,0-3.5-3.3c-0.1-3.3,0-7.8,0-11.7v-48.2v-2.7c-0.2-0.9,0.3-1.8,1.2-2.1c0.3-0.1,0.6-0.1,0.8,0h8.1c1-0.3,2,0.3,2.2,1.3
		c0.1,0.3,0.1,0.7,0,1c-0.2,1.9-0.3,3.9-0.4,5.8C1351.7,788.3,1352,789.1,1352.6,789.7 M1352.2,790.2V790v0.5v0.2V790.2z"/>
	<path style="fill:#7A7A7C;" d="M957.5,836.3c-1,0.6-1.8,1.5-2.3,2.6c-3.8,5.5-10,9.1-16.7,9.6c-2.5,0.2-4.9,0.2-7.4,0
		c-8.9-0.2-16.1-7.1-16.6-16c-0.3-2.6-0.4-5.2-0.4-7.8v-41.5v-1.9c-0.2-0.9,0.3-1.7,1.2-1.9c0.2,0,0.4-0.1,0.6,0h8.9
		c0.9-0.2,1.8,0.5,2,1.4v0.7v2.7v41.2c0,1.4,0.2,2.9,0.5,4.2c1,5.8,6.5,9.7,12.3,8.7c0.4-0.1,0.8-0.2,1.2-0.3
		c4.2-0.9,8-3.3,10.5-6.8c3.8-5.1,5.8-11.4,5.7-17.8v-30.7c0-3.3,0-3.3,3.4-3.3h7.4c0.8-0.2,1.7,0.4,1.8,1.2v0.6v2.3v59.8v2.3
		c0.1,0.8-0.4,1.5-1.2,1.6h-0.5h-9.3c-1.5,0-1.7-0.7-1.6-2C957.3,842.3,957.4,839.5,957.5,836.3"/>
	<path style="fill:#7A7A7C;" d="M475.9,847.1c-0.2-3.5-0.1-7,0.3-10.4c-1.4-0.4-1.4,0.8-1.9,1.4c-4,5.9-10.5,9.6-17.7,10.1
		c-2.8,0.3-5.7,0.3-8.5,0c-8-1-14.2-7.6-14.7-15.7c-0.2-1.8-0.3-3.6-0.3-5.4v-43.9v-2.3c-0.1-0.8,0.4-1.5,1.2-1.6h0.5h8.5
		c2,0,2.4,0.9,2.4,2.6v15.5v28c0,1.3,0.1,2.6,0.4,3.9c0.9,5.9,6.3,9.9,12.2,9c0.6-0.1,1.2-0.2,1.8-0.4c4.1-1,7.6-3.4,10-6.8
		c3.8-5.3,5.8-11.7,5.7-18.2V784v-2.7c-0.1-0.8,0.4-1.5,1.2-1.7h0.4h9.3c0.8-0.1,1.5,0.4,1.6,1.1v0.5v2.3v60.2v1.9
		c0.2,0.7-0.3,1.5-1,1.7c-0.2,0-0.3,0.1-0.5,0H476v-0.2H475.9z"/>
	<path style="fill:#7A7A7C;" d="M293.3,755h11.9c1.3,0.1,2.4,1.1,2.6,2.4c6,13,12.4,25.9,18.1,39.1c0.6,1.4,1.3,2.7,1.9,4.1
		c1-0.2,1.6-1,1.7-2c6.1-13.9,13-27.3,19.3-41c0.6-1.8,2.3-2.9,4.1-2.6h10c-0.1,1.7-0.6,3.4-1.6,4.8c-8.5,17.2-17.1,34.3-25.6,51.4
		c-0.9,1.8-1.4,3.9-1.4,5.9v27.2c0,2.9,0,3-3,3h-7.8c-2.6,0-2.4-0.7-2.4-2.5v-27.2c0-2.4-0.6-4.9-1.7-7c-8.5-17.3-17-34.6-25.4-51.9
		C293.2,757.6,292.9,756.2,293.3,755"/>
	<path style="fill:#7A7A7C;" d="M1479.3,789.1h-15.8c-3,0-3,0-3,2.9v11.7v20.2c0,2.5,0.2,4.9,0.7,7.3c0.3,3.4,3.1,6.1,6.6,6.1
		c3,0.3,6,0.1,8.9-0.5c2.6-0.5,2.8-0.4,2.7,2.1c0,10.3,1.9,7.8-8.1,9.3c-4.1,0.6-8.3,0.4-12.3-0.6c-4.6-0.8-8.4-4.2-9.6-8.7
		c-0.9-3.1-1.4-6.4-1.4-9.6v-36.9c0-3.2,0.4-3.2-3.1-3.2h-8.5c-1,0.3-2.1-0.3-2.4-1.3c-0.1-0.4-0.1-0.8,0-1.2
		c-0.5-2.3-0.3-4.6,0.5-6.8c1.4-1.7,4.4-0.5,6.7-0.6c1.6-0.1,3.2-0.1,4.8,0c0.9,0.3,1.9-0.3,2.2-1.2c0.1-0.3,0.1-0.7,0-1v-14
		c0-5.7,0-5.7,5.3-7.1l6.7-1.7c0.6,1.1,0.8,2.3,0.5,3.5v14.5c-0.6,2.2-0.4,4.6,0.6,6.7c2.1,0.8,4.5,1,6.7,0.4h8.9
		c1.7,0,2.7,0.3,2.6,2.3C1479.2,783.5,1479.3,786.4,1479.3,789.1"/>
	<path style="fill:#7A7A7C;" d="M899,790c-4.5-1.3-9.1-2-13.8-2.2c-2.7-0.1-5.4,0.3-8,1.3c-4.3,1.6-6.6,6.3-5,10.7
		c0.5,1.5,1.5,2.8,2.8,3.8c1.5,1.2,3.2,2.2,5.1,2.8l12,4.8c8.8,2.8,13.6,12.3,10.8,21.1c-0.2,0.5-0.4,1.1-0.6,1.6
		c-1.8,4.6-5.2,8.4-9.6,10.7c-4.1,2.3-8.6,3.6-13.3,3.9c-5.7,0.4-11.4,0.2-17.1-0.6c-1.6-0.2-2.4-0.7-2.2-2.4c0-2.9,0.3-5.9,0.4-9.1
		c2.9,0.6,5.6,1.3,8.4,1.7c4.1,0.8,8.3,0.7,12.3-0.2c1-0.2,2-0.6,2.9-1c3.5-1.2,6-4.5,6.1-8.2c0-3.6-2.3-6.9-5.7-8
		c-4.6-2.1-9.3-3.9-14.1-5.4c-13.1-3.6-14.5-20.6-7.1-28.6c4.3-4.5,10.2-7.4,16.4-7.9c5.8-0.7,11.7-0.5,17.4,0.6c1,0,1.9,0.8,2,1.8
		v0.4C898.9,784,899,786.9,899,790"/>
	<path style="fill:#7A7A7C;" d="M723.1,791.4c-4.8-1.8-9.8-2.7-14.9-2.7c-7.8-0.3-14.9,4.5-17.3,11.9c-3,8-3.2,16.7-0.6,24.8
		c2,7.3,8.7,12.3,16.3,12c5.9,0.2,11.8-1,17.2-3.6c0.6,3.1,0.9,6.1,1.1,9.3c0.2,1-0.5,2.1-1.5,2.3h-0.1c-9.9,3.6-20.7,4-30.8,0.9
		c-7.3-2.3-13-8.2-14.9-15.7c-3.3-10.6-3.1-22,0.8-32.4c3.8-11.3,14.1-19.1,26-19.7c6.1-0.6,12.2-0.1,18.1,1.3
		c1.2-0.1,2.3,0.9,2.3,2.1c0,0.4-0.1,0.8-0.2,1.1C723.8,785.5,724.1,788.3,723.1,791.4"/>
	<path style="fill:#7A7A7C;" d="M1140.4,797.7v45.1v2.7c0.1,0.8-0.4,1.5-1.2,1.7h-0.4h-9.6c-0.7,0.1-1.3-0.5-1.4-1.2v-0.3v-2.3v-92
		v-2.3c-0.1-0.7,0.3-1.3,1-1.4h0.4h9.6c0.7-0.2,1.5,0.3,1.6,1c0,0.2,0.1,0.4,0,0.6v2.7V797.7z"/>
	<path style="fill:#7A7A7C;" d="M813.8,797.7v45.9c0,3.5,0.3,3.5-3.3,3.4h-7.4c-0.8,0.2-1.7-0.3-1.9-1.1c-0.1-0.2-0.1-0.5,0-0.7
		v-2.3V752v-0.4c0-3.8-0.7-3.8,3.7-3.8h7c0.8-0.2,1.6,0.2,1.8,0.9c0.1,0.3,0.1,0.6,0,0.9v2.7C813.7,767.4,813.8,782.6,813.8,797.7"
		/>
	<path style="fill:#7A7A7C;" d="M579.8,797v-46.3c0-2.9,0-3,2.9-3h7.4c1.6,0,2.5,0.4,2.3,2.2v1.9v91c0,4.2,0.8,4.2-4.1,4.2h-6.6
		c-0.8,0.2-1.6-0.3-1.8-1.1c-0.1-0.3-0.1-0.5,0-0.8v-2.7C579.8,827.4,579.8,812.2,579.8,797"/>
	<path style="fill:#7A7A7C;" d="M517.1,847h-11c-0.8,0.1-1.5-0.5-1.5-1.3v-0.5v-2.3v-59.4v-2.3c-0.2-0.9,0.3-1.8,1.2-2
		c0.3-0.1,0.6-0.1,0.8,0h8.1c0.8-0.2,1.7,0.4,1.8,1.2v0.6v9.6c1.1-1.7,2-3.4,3.1-4.8c3.9-5.5,10.5-8.5,17.2-7.8
		c0.9-0.2,1.7,0.3,1.9,1.2c0.1,0.3,0,0.6-0.1,0.9c-0.3,2.7-0.4,5.4-0.5,8.1c0,1.6-0.7,1.8-2.2,1.8c-7.9-1.2-15.3,3.9-16.9,11.8
		c-1.6,5.5-2.4,11.1-2.3,16.8v24.1v4.2L517.1,847z"/>
	<path style="fill:#7A7A7C;" d="M1225.6,842.6c-0.3,4.5-1.7,8.9-4.1,12.8c-2.6,4.1-5.8,7.9-9.3,11.3c-0.6,1-1.9,1.3-2.9,0.7
		c-0.3-0.2-0.5-0.4-0.7-0.7c-0.4-0.5-0.9-0.9-1.4-1.3c-1.9-1.5-2.6-1.8-0.3-4.2c2.1-2.3,3.7-4.9,4.8-7.8c1.2-2.8,1.1-5.9-0.3-8.6
		c-0.4-0.8-0.9-1.6-1.3-2.4c-1.9-3.4-0.8-7.6,2.5-9.6c3.3-2.1,7.6-1.6,10.2,1.3C1224.8,836.4,1225.8,839.5,1225.6,842.6"/>
	<polygon points="1352.3,790.4 1352.1,790.8 1352.1,790.6 1352.1,790.1 	"/>
</g>
</svg>
