<?xml version="1.0" encoding="utf-8"?>
<svg version="1.1" id="Layer_1" xmlns="http://www.w3.org/2000/svg" xmlns:xlink="http://www.w3.org/1999/xlink" x="0px" y="0px"
	width="100px" height="100px" viewBox="0 0 100 100" style="enable-background:new 0 0 100 100;" xml:space="preserve">
<g>
	<path style="fill:#E8E8E8;" d="M50,0c27.6,0,50,22.4,50,50s-22.4,50-50,50S0,77.6,0,50S22.4,0,50,0"/>
	<path style="fill:#FFFFFF;" d="M50,1c27.1,0,49,21.9,49,49S77.1,99,50,99S1,77.1,1,50S22.9,1,50,1"/>
	<g>
		<path style="fill:#211E1E;" d="M12.2,59.1c-0.1-0.1-0.2-0.1-0.3-0.2c-0.2-0.1-0.4-0.1-0.6-0.1c-0.9,0-1.5,0.7-1.5,1.5
			c0,0.9,0.6,1.6,1.5,1.6c0.1,0,0.3,0,0.4-0.1c0.1,0,0.2-0.1,0.4-0.1L12,61.4c-0.2,0.1-0.4,0.1-0.7,0.1c-0.7,0-1.2-0.5-1.2-1.2
			c0-0.7,0.5-1.2,1.1-1.2c0.3,0,0.5,0.1,0.7,0.2L12.2,59.1L12.2,59.1z M18.3,60.3c0-0.9-0.6-1.6-1.5-1.6c-0.9,0-1.5,0.7-1.5,1.6
			c0,0.9,0.6,1.6,1.5,1.6C17.6,61.9,18.3,61.3,18.3,60.3z M17.8,60.3c0,0.7-0.5,1.2-1.1,1.2c-0.6,0-1.1-0.6-1.1-1.2
			c0-0.7,0.5-1.2,1.1-1.2C17.3,59.1,17.8,59.7,17.8,60.3z M24.8,61.8v-3h-0.5l-0.9,2.4c0,0.1,0,0.1-0.1,0.2c0-0.1,0-0.1-0.1-0.2
			l-0.9-2.4h-0.5v3h0.3v-2.6c0,0.2,0.1,0.2,0.1,0.4l0.8,2.2h0.3l0.9-2.3c0.1-0.2,0.1-0.2,0.1-0.4v2.6H24.8z M30.5,59.7
			c0-0.3-0.1-0.5-0.2-0.6c-0.2-0.2-0.4-0.2-0.7-0.2h-0.9v3h0.4v-1.1c0.3,0,0.3,0,0.5,0C30,60.7,30.5,60.4,30.5,59.7z M30.1,59.8
			c0,0.3-0.1,0.5-0.4,0.6c-0.1,0-0.2,0.1-0.4,0.1c-0.1,0-0.2,0-0.4,0v-1.2h0.5c0.2,0,0.4,0,0.5,0.1C30,59.4,30.1,59.6,30.1,59.8z
			 M36,61.8l-1.1-3.1h-0.4l-1.1,3.1h0.4L34,61h1.2l0.3,0.9H36z M35.1,60.6h-1l0.5-1.4L35.1,60.6z M41.8,61.9v-3h-0.4v2.5
			c0,0,0,0,0-0.1c0-0.1,0-0.1-0.1-0.1c0,0,0-0.1,0-0.1l-1.5-2.3h-0.5v3h0.4v-2.6c0,0.1,0,0.1,0,0.1l0,0.1c0,0,0.1,0.1,0.1,0.1
			l1.5,2.3H41.8L41.8,61.9z M47.6,58.9h-0.4l-0.8,1.3l-0.8-1.3h-0.4l1,1.6v1.4h0.4v-1.4L47.6,58.9z M56.5,61.8v-0.3h-1.3v-2.7h-0.4
			v3H56.5z M60.3,61.8v-3h-0.4v3H60.3z M67,61.8v-3h-0.5l-0.9,2.4c0,0.1,0,0.1-0.1,0.2c0-0.1,0-0.1-0.1-0.2l-0.9-2.4H64v3h0.3v-2.6
			c0,0.2,0.1,0.2,0.1,0.4l0.8,2.2h0.3l0.9-2.3c0.1-0.2,0.1-0.2,0.1-0.4v2.6H67z M71.1,61.8v-3h-0.4v3H71.1z M76.9,59.2v-0.3h-2.4
			v0.3h1v2.7h0.4v-2.7H76.9z M82,61.8v-0.3h-1.4v-1.1h1.1v-0.3h-1.1v-1h1.3v-0.3h-1.7v3H82z M87.9,60.3c0-0.9-0.6-1.5-1.5-1.5h-1v3
			h1c0.5,0,0.8-0.1,1.1-0.4C87.8,61.1,87.9,60.7,87.9,60.3L87.9,60.3z M87.5,60.3c0,0.3-0.2,0.7-0.4,0.9c-0.2,0.2-0.4,0.3-0.8,0.3
			h-0.6v-2.4h0.6C87,59.2,87.5,59.7,87.5,60.3L87.5,60.3z M14.7,42.9L14.7,42.9l-0.9-4.4h-1.7v6.4h1l0.7-2.7h0v6.5h0l-0.7-3.3h-1
			v7.8h1.7l1-5.2h0v5.6h-4.8l0.8-0.5V38.6l-0.8-0.5h4.6V42.9z M31.2,38.6v14.5l0.8,0.5h-2.8l0.8-0.5V42.6l-1.4,11h-0.3l-1.5-11v10.5
			l0.7,0.5h-2l0.8-0.5V38.6l-0.8-0.5h2l1.3,10.5L30,38.1h1.9L31.2,38.6z M42,38.1l0.8,0.5v14.5L42,53.6h3l-0.9-0.5v-7.7
			c1.6,0,2.7-1.4,2.7-3.6c0-1.3-0.4-2.5-1.2-3.1c-0.5-0.4-0.9-0.6-1.7-0.6L42,38.1z M44.1,38.5c1.1,0,1.4,0.7,1.4,3.1
			c0,2.7-0.3,3.2-1.4,3.3V38.5z M58.9,38.6v14.5l0.8,0.5h-2.9l0.8-0.5V38.6l-0.8-0.5h2.9L58.9,38.6z M69.7,38.1l0.8,0.5v14.5
			l-0.8,0.5h2.9l-0.8-0.5v-7.7c0.9,0,1,0.2,1.1,1.6l0.7,6.6h2l-0.7-0.5l-0.7-5.8c-0.2-1.3-0.6-1.9-1.6-2.1c1.2-0.3,2-1.6,2-3.3
			c0-1.4-0.5-2.7-1.4-3.3c-0.4-0.3-0.9-0.4-1.6-0.4H69.7z M71.8,38.5c1.2,0.1,1.5,0.7,1.5,3.2c0,2.6-0.3,3.3-1.5,3.3V38.5z
			 M90.1,42.9L90.1,42.9l-0.9-4.4h-1.6v6.4h1l0.7-2.7h0v6.5h0l-0.7-3.3h-1v7.8h1.6l1-5.2h0v5.6h-4.8l0.8-0.5V38.6l-0.8-0.5h4.6
			L90.1,42.9z"/>
		<path style="fill:none;stroke:#211E1E;stroke-width:0.1376;stroke-miterlimit:19.2307;" d="M9.9,56h78"/>
	</g>
</g>
</svg>
