<?xml version="1.0" encoding="utf-8"?>
<svg version="1.1" id="Layer_1" xmlns="http://www.w3.org/2000/svg" xmlns:xlink="http://www.w3.org/1999/xlink" x="0px" y="0px"
	 viewBox="0 0 200 112.81" style="enable-background:new 0 0 200 112.81;" xml:space="preserve">
<g>
	<g id="_x23_1a8b49ff" transform="scale(0.09601075,0.09601075)">
		<path id="path5" style="fill:#1A8B49;" d="M0,0h0.74c39.2,11.65,78.72,22.46,118.06,33.81
			c641.27,182.62,1282.56,365.24,1923.83,547.85c13.46,4.07,27.21,7.2,40.46,11.92c-471.8,131.8-943.68,263.31-1415.52,395
			c-218.07,60.72-436.01,121.9-654.17,182.3c-4.32,1.22-8.77,2.09-12.81,4.11H0V0 M858.52,399.05c2.28,40.75,5.19,81.47,7.58,122.22
			c0.71,10.34,1.88,20.69,1.35,31.06c-16.41,17.17-27.26,38.91-34.42,61.39c-9.35,30.2-13.27,62.32-9.45,93.8
			c2.28,16.32,6.71,33.31,18.07,45.8c7.2,8.1,18.82,12.39,29.47,9.67c11.87-2.93,21-12.27,26.6-22.8
			c9.4-17.71,12.52-37.96,14.2-57.72c1.76-30.49,0.66-61.16-3.53-91.42c-0.89-4.79,2.19-11.49,7.87-10.66
			c11.74,1.56,20.66,12.9,20.88,24.51c0.64,22.16,1.88,44.31,2.42,66.47c13.05,0.14,26.11,0.39,39.17,0.26
			c0.22-20.14-0.1-40.3,1.26-60.4c0.24-5.94,3.64-11.94,9.17-14.4c4.92-2.02,11.19-1.05,14.9,2.91c3.54,3.69,5.17,8.88,5.21,13.92
			c0.18,16.27-0.47,32.54-0.39,48.8c13.74,0.12,27.49,0.19,41.24,0.27c0.14-15.51,0.36-31.02,0.44-46.54
			c-1.06-17.34-4.73-35.71-16.39-49.22c-7.68-9.2-19.73-14.49-31.7-13.79c-13.24-0.02-25.52,6.6-35.04,15.41
			c-4.71-10.6-12.05-20.29-21.97-26.5c-11.81-7.67-26.37-9.77-40.21-8.87c-3.02-44.89-5.75-89.79-9.05-134.64
			C883.66,398.95,871.09,399.2,858.52,399.05 M73.31,457.06c-13.77,10.6-23.75,25.91-27.56,42.89c-6.39,25.21,0.67,51.49,10.84,74.7
			c1.37,3.83,4.67,7.4,3.34,11.72c-2.76,17.35-1.1,36.17,8.79,51.15c10.05,15.36,27.07,25.27,44.96,28.51
			c28.04,5.46,57.51-2.2,81.19-17.64c7.25,5.86,15.52,10.99,24.87,12.47c14.45,2.72,29.5-0.64,42.32-7.52
			c2.07-11.95,0.9-24.11,1.46-36.16c-10.47,6.71-23.95,10.8-35.97,5.8c2.7-9.72,7.79-18.54,11.06-28.05
			c9.32-24.55,15.79-51,12.41-77.39c-1.69-11.65-6.87-23.51-16.76-30.45c-9.21-5.96-21.8-4.63-30.6,1.49
			c-12.95,8.79-21.01,23.06-25.84,37.64c-8.84,27.71-8.02,57.36-4.15,85.86c-14.94,7.58-31.52,15.11-48.69,11.85
			c-8.24-1.1-14.84-6.77-19.99-12.94c12.15-0.44,24.95-0.39,35.97-6.29c9.25-4.53,16.41-13.21,18.34-23.41
			c4.29-20.34-9.06-43.12-29.52-48.05c-13.95-3.9-27.87,2.76-39.62,9.76c-1.53-8.9-2.94-18.17,0.04-26.94
			c4.21-15.17,17.52-27.12,32.81-30.46c14.8-3.71,30.19,0.07,43.97,5.72c0.14-15.62,0.58-31.26,0.18-46.89
			C136.47,432.64,99.41,436.45,73.31,457.06 M368.79,453.71c-24.01,4.06-46.67,16.52-62.32,35.27
			c-29.89,36.15-33.51,89.87-13.3,131.5c9.25,18.91,24.59,35.31,44.12,43.69c18.84,8.35,40.41,8.2,60.17,3.51
			c18-4.3,34.74-12.66,50.49-22.19c4.61,1.85,8.91,4.84,13.75,6.39c14.71,5.63,31.69,6.36,46.27-0.1
			c18.45-7.71,33.74-24.75,36.2-45.01c7.23,0.14,14.4,3,19.35,8.34c1.6,14.57,0.36,29.24,0.53,43.85
			c10.77,0.05,21.55,0.19,32.32,0.44c0.3-14.44,0.29-28.89,1.56-43.27c-0.13-2.54,2.04-4.24,3.64-5.88
			c4.42-4.2,10.45-6.13,16.39-6.92c0.14-12.46,0.59-24.92-0.03-37.37c-10.69-0.46-22.12,3.6-28.14,12.85
			c-9.25-14.19-26.87-19.62-43-20.37c-4.96-10.61-11.71-20.89-21.66-27.44c-8.72-6.01-20.46-6.7-30.17-2.82
			c-18.02,7.45-27.85,28.07-26.06,46.95c-2.51-3.91-6.55-6.89-11.25-7.34c-10.14-1.14-20.14,4.4-26.26,12.24
			c-6.41,8.42-7.27,19.57-6.2,29.76c-9.14,6.31-18.71,12.25-29.31,15.81c-11.24,3.97-23.84,4.75-35.26,1.1
			c-13.46-4.6-23.95-15.54-30.44-27.94c-10.1-19.99-11.87-44.16-4.3-65.29c5.39-15.85,17.07-29.54,32.49-36.32
			c20.32-9.59,43.72-7.16,64.96-2.34c0.06-13.84,0.58-27.67,0.2-41.5C405.36,451.41,386.84,450.07,368.79,453.71 M1380.07,536.05
			c7.89,10.33,16.05,20.44,23.76,30.9c6.59-2.3,12.2-6.53,18.15-10.08c20.7-12.94,41.49-25.72,62.27-38.51
			c-6.13-11.86-13.13-23.25-19.72-34.85C1436.28,500.87,1408.22,518.55,1380.07,536.05 M645.5,518.65c-1,16.5-3.17,32.94-3.38,49.49
			c-3.63,0.16-7.25,0.16-10.86-0.05c-0.96,1.72-2.36,3.42-2.13,5.54c-0.16,10.09-0.1,20.19-0.33,30.27c2.6,1.45,5.61,1.38,8.51,1.58
			c-0.13,19.62-0.95,39.26-0.44,58.9c11.66-0.14,23.34-0.06,35.01,0.17c0.39-16.15,0.89-32.3,1.58-48.44
			c3.09,0.2,7.07-0.39,9.15,2.53c6.52,8.82,7.87,20.45,15.01,28.94c19.74,28.92,64.87,35.47,91.9,13.1
			c0.29-13.86,0.46-27.71,0.49-41.57c-11.01,6.72-22.9,14.05-36.34,13.17c-8.72-0.01-15.4-6.34-21.37-11.9
			c7.07-4.5,14.97-7.62,22.01-12.25c14.09-9.04,27.38-21.94,30.95-38.9c3.69-15.74-5.24-32.86-19.55-39.92
			c-13.63-7.16-30.61-4.72-43.45,3c-15.69,9.65-27.32,24.76-35.35,41.12c-3.86,0.06-7.72,0.01-11.58-0.05
			c3.42-28.16,5.46-56.47,8.6-84.67c-11.89-0.13-23.79-0.02-35.67-0.27C646.79,498.44,646.25,508.56,645.5,518.65 M1225.23,512.77
			c-13.34,12.69-20.21,30.71-23.1,48.57c-3.6,23.02,0.25,46.52,6.99,68.62c-7.58,2.22-14.86,5.27-22.38,7.65
			c-0.45-17.76,0.03-35.51,0.26-53.26c-12.81-0.21-25.61-0.36-38.41-0.56c-5.71,12.51-13.89,24.3-25.44,32.05
			c-5.49,3.99-12.11,6.69-18.97,6.49c-1.75-9.28,1.39-19.47,9.03-25.29c17.91-14.7,41.81-18.41,64.22-20.02
			c0.49-13.7,0.5-27.4,0.51-41.11c-13.13,1.1-26.31,2.39-39.1,5.64c-18.07,4.85-35.69,12.52-50.21,24.5
			c-11.84,9.6-21.49,22.1-26.85,36.44c-4.24,11.99-3.39,25.41,1.07,37.21c4.61,11.51,15.96,19.85,28.27,21.09
			c18.24,2.01,36.49-4.39,51.39-14.64c-0.05,4.17-0.1,8.35-0.15,12.54c-13.08,4.84-25.38,12.38-34.5,23.05
			c-10.82,12.39-17.05,29.54-13.84,45.97c2.07,11.88,10.06,22.5,20.89,27.81c9.61,4.86,20.75,5.66,31.31,4.48
			c12.13-1.5,23.38-8.72,29.64-19.25c10.03-15.91,10.49-35.54,9.63-53.75c15.14-9.8,29.61-20.59,44.79-30.35
			c7.35,11.42,20.46,17.47,33.49,19.64c19.69,3.08,40.11,1.68,59.14-4.38c6.67-1.72,12.88-5.24,19.41-7.04
			c16.16,7.38,35.4,6.31,51.37-1.03c30.9-18.27,61.71-36.71,92.57-55.06c6.81-4.01,14.07-8.76,22.32-8.22
			c9.04,0.67,14.15,11.3,11.4,19.36c-1.28,4.85-5.57,7.8-9.32,10.67c-11.84,8.67-25.94,13.29-39.69,17.95
			c-0.1,13.7-0.21,27.4-0.3,41.11c8.83-0.73,17.64-1.94,26.22-4.16c20.76-5.16,39.85-17.38,52.66-34.59
			c11.06-14.89,18.07-33.5,16.21-52.25c-0.88-11.89-6.45-23.74-16.31-30.74c-10.97-7.8-25.19-9.44-38.26-7.99
			c-21.5,3.04-40.47,14.32-59.14,24.67c-23.74,13.55-46.09,29.96-71.97,39.31c4.8-13.07,8.51-27.67,3.88-41.35
			c-3.95-13.27-15.84-22.97-29-26.27c-9.65-2.46-19.94-2-29.46,0.79c-16.17,5.22-28.7,19.9-31.72,36.57
			c-3.33,15.32-0.14,31.01,3.67,45.92c-11.75,4.17-27.46,3.76-35.1-7.58c5.49-8.94,11.54-17.55,16.15-27.01
			c10.01-19.07,16.24-40.71,14.39-62.4c-0.96-12.71-7.16-25.39-17.89-32.62c-8.47-5.42-18.57-8.97-28.72-7.98
			C1238.16,502.67,1231.07,507.4,1225.23,512.77L1225.23,512.77z"/>
		<path id="path7" style="fill:#1A8B49;" d="M209.42,539.9c1.03-3.13,4.66-2.9,7.27-3.5c3.89,12.21,2.66,25.57-1.35,37.6
			c-1.35,3.76-3.09,7.52-5.92,10.4c-3.89,0.86-5.35-4.04-5.82-6.97C201.75,564.74,203.8,551.42,209.42,539.9z"/>
		<path id="path9" style="fill:#1A8B49;" d="M1241.8,554.16c1.36-3.75,4.46-6.41,7.32-9.03c5.43,9.04,4.31,20.11,2.08,29.95
			c-1.03,5.75-3.65,11.01-6.5,16.06c-1.69,0.2-3.36,0.41-5.03,0.63C1235.17,579.56,1237.33,566.05,1241.8,554.16z"/>
		<path id="path11" style="fill:#1A8B49;" d="M503.79,559.76c3.55-3.04,9.34-1.45,10.96,2.89c0.6,3.01-1.04,5.88-1.94,8.67
			c-3.25-0.33-7.19,0.72-9.82-1.71C500.94,566.69,500.47,562,503.79,559.76z"/>
		<path id="path13" style="fill:#1A8B49;" d="M725.51,585.72c-1.38-11.37,7.14-25.69,20-23.65
			C746.36,573.4,737.97,586.6,725.51,585.72z"/>
		<path id="path15" style="fill:#1A8B49;" d="M108.24,579.44c-5.92-5.88,1.35-17.16,9.15-14.82c4.61,0.83,6.32,5.71,8.25,9.34
			c-1.72,2.91-3.47,5.81-5.36,8.61C116.17,582.39,110.95,583.4,108.24,579.44z"/>
		<path id="path17" style="fill:#1A8B49;" d="M470.55,578.51c4.5,10.4,13.81,18.1,24.5,21.55c3.84,1.39,9.07,1.7,10.67,6.19
			c1.46,2.98-0.51,5.96-2.39,8.17c-6.77,8.34-22.06,8.45-27.76-1.14C470.01,602.57,471.32,590.15,470.55,578.51z"/>
		<path id="path19" style="fill:#1A8B49;" d="M1338.96,590.32c4.91-2.08,9.79,2.72,10.95,7.24c1.78,6.84,1.78,15.71-4.55,20.27
			c-2.58,2.5-6.44,1.03-9.28-0.1C1330.22,609.75,1329.65,595.96,1338.96,590.32z"/>
		<path id="path21" style="fill:#1A8B49;" d="M868.16,621.95c1.41-0.29,2.84-0.56,4.26-0.82c3.91,10.84,3.93,22.52,3.78,33.91
			c-0.43,16.13-1.31,32.66-7.55,47.76c-1.49-0.21-2.98-0.41-4.45-0.6c-3.3-12.52-3.13-25.57-2.86-38.41
			C861.76,649.64,863.32,635.34,868.16,621.95z"/>
		<path id="path23" style="fill:#1A8B49;" d="M1132.78,703.96c2.59-5.02,10.82-5.31,13.5-0.21c2.97,4.35,1.06,9.88-0.88,14.25
			c-3.45,2.15-7.86,1.52-11.69,0.95C1131.6,714.36,1129.4,708.51,1132.78,703.96z"/>
	</g>
	<g id="_x23_ffffffff" transform="scale(0.09601075,0.09601075)">
		<path id="path26" style="fill:#FFFFFF;" d="M858.52,399.05c12.56,0.15,25.14-0.1,37.7-0.45c3.3,44.85,6.03,89.75,9.05,134.64
			c13.84-0.9,28.4,1.2,40.21,8.87c9.92,6.21,17.26,15.9,21.97,26.5c9.51-8.81,21.8-15.44,35.04-15.41
			c11.97-0.7,24.02,4.59,31.7,13.79c11.66,13.51,15.33,31.89,16.39,49.22c-0.07,15.51-0.3,31.02-0.44,46.54
			c-13.75-0.09-27.5-0.15-41.24-0.27c-0.09-16.26,0.56-32.52,0.39-48.8c-0.04-5.05-1.68-10.24-5.21-13.92
			c-3.71-3.96-9.97-4.94-14.9-2.91c-5.54,2.46-8.94,8.46-9.17,14.4c-1.36,20.1-1.04,40.26-1.26,60.4
			c-13.06,0.13-26.13-0.12-39.17-0.26c-0.55-22.16-1.79-44.31-2.42-66.47c-0.21-11.61-9.14-22.95-20.87-24.51
			c-5.69-0.83-8.76,5.88-7.87,10.66c4.19,30.26,5.29,60.94,3.52,91.42c-1.68,19.76-4.8,40.01-14.2,57.72
			c-5.6,10.52-14.72,19.88-26.6,22.8c-10.65,2.71-22.27-1.58-29.47-9.67c-11.36-12.49-15.8-29.47-18.08-45.8
			c-3.82-31.47,0.1-63.6,9.45-93.8c7.16-22.47,18.01-44.21,34.42-61.39c0.52-10.37-0.64-20.72-1.35-31.06
			C863.71,480.52,860.8,439.8,858.52,399.05 M868.16,621.95c-4.84,13.39-6.4,27.69-6.83,41.84c-0.26,12.84-0.44,25.89,2.86,38.41
			c1.48,0.19,2.96,0.39,4.45,0.6c6.24-15.1,7.13-31.64,7.55-47.76c0.15-11.39,0.14-23.07-3.77-33.91
			C871,621.39,869.57,621.66,868.16,621.95L868.16,621.95z"/>
		<path id="path28" style="fill:#FFFFFF;" d="M73.31,457.06c26.1-20.61,63.16-24.42,93.85-12.61c0.4,15.62-0.04,31.26-0.18,46.89
			c-13.79-5.65-29.17-9.44-43.97-5.72c-15.29,3.34-28.6,15.29-32.81,30.46c-2.97,8.76-1.56,18.04-0.04,26.94
			c11.75-7,25.67-13.66,39.62-9.76c20.46,4.92,33.81,27.71,29.52,48.05c-1.93,10.2-9.09,18.89-18.34,23.41
			c-11.02,5.9-23.82,5.85-35.97,6.29c5.15,6.16,11.75,11.84,19.99,12.94c17.16,3.26,33.75-4.28,48.69-11.85
			c-3.88-28.5-4.69-58.15,4.15-85.86c4.82-14.57,12.89-28.85,25.84-37.64c8.8-6.11,21.39-7.45,30.6-1.49
			c9.89,6.94,15.07,18.8,16.76,30.45c3.37,26.39-3.09,52.84-12.41,77.39c-3.27,9.51-8.36,18.33-11.06,28.05
			c12.02,5,25.5,0.91,35.97-5.8c-0.56,12.05,0.61,24.21-1.46,36.16c-12.82,6.89-27.87,10.25-42.32,7.52
			c-9.35-1.49-17.62-6.61-24.87-12.47c-23.67,15.44-53.15,23.1-81.19,17.64c-17.89-3.24-34.91-13.15-44.96-28.51
			c-9.89-14.97-11.55-33.8-8.79-51.15c1.34-4.33-1.96-7.9-3.34-11.72c-10.16-23.21-17.22-49.49-10.84-74.7
			C49.56,482.97,59.54,467.66,73.31,457.06 M209.42,539.9c-5.62,11.52-7.67,24.84-5.82,37.52c0.48,2.94,1.94,7.84,5.82,6.97
			c2.84-2.88,4.57-6.64,5.93-10.4c4.01-12.02,5.24-25.39,1.35-37.6C214.09,537,210.45,536.77,209.42,539.9 M108.24,579.44
			c2.71,3.96,7.94,2.95,12.04,3.13c1.89-2.8,3.64-5.7,5.36-8.61c-1.92-3.63-3.64-8.51-8.25-9.34
			C109.59,562.27,102.31,573.56,108.24,579.44z"/>
		<path id="path30" style="fill:#FFFFFF;" d="M368.79,453.71c18.05-3.64,36.57-2.3,54.74-0.41c0.37,13.82-0.14,27.66-0.2,41.5
			c-21.24-4.82-44.64-7.25-64.96,2.34c-15.41,6.79-27.1,20.47-32.49,36.32c-7.57,21.12-5.8,45.3,4.3,65.29
			c6.49,12.4,16.97,23.34,30.44,27.94c11.42,3.65,24.02,2.88,35.26-1.1c10.6-3.56,20.17-9.5,29.31-15.81
			c-1.07-10.19-0.21-21.34,6.2-29.76c6.12-7.84,16.12-13.38,26.26-12.24c4.7,0.45,8.74,3.42,11.25,7.34
			c-1.79-18.87,8.04-39.5,26.06-46.95c9.71-3.88,21.45-3.19,30.17,2.83c9.95,6.55,16.7,16.82,21.66,27.44
			c16.12,0.75,33.75,6.19,43,20.37c6.01-9.25,17.45-13.31,28.14-12.85c0.61,12.45,0.16,24.91,0.02,37.37
			c-5.94,0.8-11.96,2.72-16.39,6.92c-1.6,1.64-3.76,3.34-3.64,5.88c-1.27,14.39-1.26,28.84-1.56,43.27
			c-10.78-0.25-21.55-0.39-32.32-0.44c-0.16-14.61,1.08-29.27-0.52-43.85c-4.95-5.34-12.13-8.2-19.35-8.34
			c-2.46,20.26-17.75,37.3-36.2,45.01c-14.59,6.46-31.56,5.72-46.27,0.1c-4.84-1.55-9.14-4.54-13.75-6.39
			c-15.75,9.53-32.49,17.89-50.49,22.19c-19.76,4.69-41.34,4.84-60.17-3.51c-19.54-8.38-34.87-24.77-44.12-43.69
			c-20.21-41.62-16.59-95.35,13.3-131.5C322.11,470.24,344.77,457.77,368.79,453.71 M503.79,559.76c-3.31,2.24-2.85,6.92-0.8,9.85
			c2.64,2.44,6.58,1.39,9.82,1.71c0.9-2.8,2.54-5.66,1.94-8.67C513.12,558.31,507.34,556.72,503.79,559.76 M470.55,578.51
			c0.77,11.64-0.54,24.06,5.02,34.77c5.7,9.59,20.99,9.47,27.76,1.14c1.88-2.21,3.85-5.2,2.39-8.17c-1.6-4.49-6.84-4.8-10.67-6.19
			C484.36,596.61,475.05,588.91,470.55,578.51z"/>
		<path id="path32" style="fill:#FFFFFF;" d="M1380.07,536.05c28.15-17.5,56.21-35.17,84.46-52.54c6.6,11.6,13.6,22.99,19.72,34.85
			c-20.79,12.79-41.57,25.57-62.27,38.51c-5.95,3.55-11.56,7.78-18.15,10.08C1396.12,556.49,1387.96,546.37,1380.07,536.05z"/>
		<path id="path34" style="fill:#FFFFFF;" d="M645.5,518.65c0.75-10.09,1.29-20.21,2.77-30.22c11.89,0.25,23.79,0.15,35.67,0.27
			c-3.14,28.2-5.17,56.51-8.6,84.67c3.85,0.06,7.71,0.11,11.58,0.05c8.02-16.36,19.66-31.47,35.35-41.12
			c12.84-7.72,29.82-10.16,43.45-3c14.31,7.06,23.24,24.19,19.55,39.92c-3.57,16.96-16.86,29.86-30.95,38.9
			c-7.04,4.63-14.94,7.75-22.01,12.25c5.98,5.56,12.65,11.89,21.37,11.9c13.44,0.88,25.32-6.45,36.34-13.17
			c-0.03,13.86-0.2,27.71-0.49,41.57c-27.02,22.37-72.16,15.82-91.9-13.1c-7.14-8.49-8.49-20.11-15.01-28.94
			c-2.08-2.91-6.06-2.33-9.15-2.53c-0.69,16.14-1.19,32.29-1.58,48.44c-11.67-0.24-23.35-0.31-35.01-0.17
			c-0.51-19.64,0.31-39.27,0.44-58.9c-2.9-0.2-5.91-0.13-8.51-1.58c0.22-10.09,0.16-20.19,0.33-30.27
			c-0.24-2.11,1.16-3.81,2.13-5.54c3.61,0.21,7.24,0.21,10.86,0.05C642.32,551.59,644.5,535.15,645.5,518.65 M725.51,585.72
			c12.46,0.88,20.85-12.32,20-23.65C732.65,560.04,724.14,574.35,725.51,585.72z"/>
		<path id="path36" style="fill:#FFFFFF;" d="M1225.23,512.77c5.84-5.37,12.92-10.1,21.05-10.77c10.15-1,20.25,2.55,28.72,7.97
			c10.72,7.24,16.92,19.91,17.89,32.62c1.85,21.69-4.38,43.32-14.39,62.4c-4.61,9.46-10.66,18.07-16.15,27.01
			c7.64,11.34,23.35,11.75,35.1,7.57c-3.81-14.91-7-30.6-3.67-45.92c3.03-16.67,15.55-31.35,31.72-36.57
			c9.53-2.79,19.81-3.25,29.46-0.79c13.16,3.3,25.05,13,29,26.27c4.64,13.67,0.93,28.27-3.87,41.35
			c25.89-9.35,48.24-25.76,71.97-39.31c18.66-10.35,37.64-21.64,59.14-24.67c13.07-1.45,27.29,0.19,38.26,7.99
			c9.86,7,15.44,18.85,16.31,30.74c1.86,18.75-5.15,37.36-16.21,52.25c-12.81,17.21-31.9,29.42-52.66,34.59
			c-8.59,2.23-17.4,3.44-26.22,4.16c0.09-13.71,0.2-27.41,0.3-41.11c13.75-4.66,27.85-9.27,39.69-17.95
			c3.75-2.87,8.05-5.82,9.32-10.67c2.75-8.06-2.36-18.69-11.4-19.36c-8.25-0.54-15.51,4.21-22.32,8.22
			c-30.86,18.35-61.67,36.79-92.57,55.06c-15.97,7.34-35.21,8.4-51.37,1.03c-6.54,1.8-12.74,5.31-19.41,7.04
			c-19.02,6.05-39.45,7.45-59.14,4.38c-13.02-2.16-26.14-8.21-33.49-19.64c-15.17,9.76-29.65,20.55-44.79,30.35
			c0.86,18.21,0.4,37.84-9.63,53.75c-6.26,10.52-17.51,17.75-29.64,19.25c-10.56,1.19-21.7,0.39-31.31-4.48
			c-10.82-5.31-18.81-15.94-20.89-27.81c-3.21-16.44,3.01-33.59,13.84-45.97c9.13-10.67,21.43-18.21,34.5-23.05
			c0.05-4.19,0.1-8.36,0.15-12.54c-14.9,10.25-33.15,16.65-51.39,14.64c-12.31-1.24-23.66-9.57-28.27-21.09
			c-4.46-11.8-5.31-25.22-1.07-37.21c5.36-14.34,15.01-26.84,26.85-36.44c14.52-11.97,32.14-19.65,50.21-24.5
			c12.79-3.25,25.97-4.54,39.1-5.64c-0.01,13.71-0.03,27.41-0.51,41.11c-22.41,1.61-46.31,5.33-64.22,20.02
			c-7.64,5.81-10.77,16.01-9.02,25.29c6.86,0.2,13.49-2.5,18.97-6.49c11.55-7.75,19.72-19.54,25.44-32.05
			c12.8,0.2,25.6,0.35,38.41,0.56c-0.24,17.75-0.71,35.5-0.26,53.26c7.51-2.38,14.8-5.42,22.38-7.65
			c-6.74-22.1-10.59-45.6-6.99-68.62C1205.02,543.49,1211.9,525.46,1225.23,512.77 M1241.8,554.16c-4.46,11.89-6.63,25.4-2.13,37.61
			c1.66-0.21,3.34-0.43,5.02-0.63c2.85-5.05,5.48-10.31,6.5-16.06c2.24-9.84,3.35-20.91-2.07-29.95
			C1246.26,547.75,1243.16,550.41,1241.8,554.16 M1338.96,590.32c-9.31,5.64-8.74,19.42-2.88,27.41c2.84,1.13,6.7,2.6,9.28,0.1
			c6.33-4.56,6.33-13.44,4.55-20.27C1348.75,593.05,1343.87,588.25,1338.96,590.32 M1132.78,703.96c-3.39,4.55-1.19,10.4,0.94,14.99
			c3.82,0.58,8.24,1.2,11.69-0.95c1.94-4.38,3.85-9.9,0.88-14.25C1143.61,698.65,1135.37,698.94,1132.78,703.96z"/>
	</g>
</g>
</svg>
