<?xml version="1.0" encoding="utf-8"?>
<svg version="1.1" id="Layer_1" xmlns="http://www.w3.org/2000/svg" xmlns:xlink="http://www.w3.org/1999/xlink" x="0px" y="0px"
	width="100px" height="100px" viewBox="0 0 66.7 66.9" style="enable-background:new 0 0 66.7 66.9;" xml:space="preserve">
<g>
	<circle style="fill:#E8E8E8;" cx="33.3" cy="33.3" r="33.3"/>
	<circle style="fill:#FFFFFF;" cx="33.3" cy="33.3" r="32.7"/>
	<g>
		<path id="B" style="fill:none;stroke:#FFFFFF;stroke-width:2;stroke-miterlimit:40;" d="M33.3,12.9c-12.2,0-22.1,9.9-22.1,22.1
			c0,1.5,0.1,3,0.5,4.5l6.8,5l1.1,8.3h11.3l0.7,0.5c0.6,0.4,1.2,0.6,1.9,0.6c0.7,0,1.4-0.3,1.9-0.7l0.6-0.5h11.3l1-8.3l6.8-4.9
			c0.3-1.5,0.5-2.9,0.5-4.5C55.5,22.7,45.5,12.9,33.3,12.9z M51.3,37.3l-6.7,4.9l-0.8,6.7h-8.2l-1.2,0.9c-0.3,0.2-0.7,0.3-1.1,0.3
			c-0.4,0-0.7-0.1-1.1-0.3l-1.2-0.9h-8.1l-0.8-6.7l-6.7-4.9c-0.2-0.8-0.3-1.6-0.3-2.4c0-1.3,0.3-2.6,0.8-3.8l11.9,12.1L16.3,28.9
			c0.5-1.9,1.5-3.5,2.9-4.8L29.5,42l-9.2-19.7c1.2-1.6,2.9-2.7,4.7-3.3l6.4,22.3l-4.6-23.2c1.4-0.8,3-1.2,4.6-1.2c0.3,0,0.7,0,1,0.1
			l0.9,24.1L34.3,17c0.3-0.1,0.7-0.1,1-0.1c1.6,0,3.2,0.4,4.6,1.2l-4.6,23.1L41.7,19c1.9,0.6,3.5,1.7,4.7,3.3L37.2,42l10.4-17.9
			c1.5,1.3,2.5,2.9,2.9,4.8L38.9,43.2l11.9-12.1c0.5,1.2,0.8,2.5,0.8,3.8C51.7,35.7,51.5,36.5,51.3,37.3z"/>
	</g>
	<g>
		<path id="B_1_" style="fill:#FBCE07;" d="M33.3,12.9c-12.2,0-22.1,9.9-22.1,22.1c0,1.5,0.1,3,0.5,4.5l6.8,5l1.1,8.3h11.3l0.7,0.5
			c0.6,0.4,1.2,0.6,1.9,0.6c0.7,0,1.4-0.3,1.9-0.7l0.6-0.5h11.3l1-8.3l6.8-4.9c0.3-1.5,0.5-2.9,0.5-4.5
			C55.5,22.7,45.5,12.9,33.3,12.9z M51.3,37.3l-6.7,4.9l-0.8,6.7h-8.2l-1.2,0.9c-0.3,0.2-0.7,0.3-1.1,0.3c-0.4,0-0.7-0.1-1.1-0.3
			l-1.2-0.9h-8.1l-0.8-6.7l-6.7-4.9c-0.2-0.8-0.3-1.6-0.3-2.4c0-1.3,0.3-2.6,0.8-3.8l11.9,12.1L16.3,28.9c0.5-1.9,1.5-3.5,2.9-4.8
			L29.5,42l-9.2-19.7c1.2-1.6,2.9-2.7,4.7-3.3l6.4,22.3l-4.6-23.2c1.4-0.8,3-1.2,4.6-1.2c0.3,0,0.7,0,1,0.1l0.9,24.1L34.3,17
			c0.3-0.1,0.7-0.1,1-0.1c1.6,0,3.2,0.4,4.6,1.2l-4.6,23.1L41.7,19c1.9,0.6,3.5,1.7,4.7,3.3L37.2,42l10.4-17.9
			c1.5,1.3,2.5,2.9,2.9,4.8L38.9,43.2l11.9-12.1c0.5,1.2,0.8,2.5,0.8,3.8C51.7,35.7,51.5,36.5,51.3,37.3z"/>
	</g>
	<g>
		<path id="B_2_" style="fill:#DD1D21;" d="M33.3,12.9c-12.2,0-22.1,9.9-22.1,22.1c0,1.5,0.1,3,0.5,4.5l6.8,5l1.1,8.3h11.3l0.7,0.5
			c0.6,0.4,1.2,0.6,1.9,0.6c0.7,0,1.4-0.3,1.9-0.7l0.6-0.5h11.3l1-8.3l6.8-4.9c0.3-1.5,0.5-2.9,0.5-4.5
			C55.5,22.7,45.5,12.9,33.3,12.9z M51.3,37.3l-6.7,4.9l-0.8,6.7h-8.2l-1.2,0.9c-0.3,0.2-0.7,0.3-1.1,0.3c-0.4,0-0.7-0.1-1.1-0.3
			l-1.2-0.9h-8.1l-0.8-6.7l-6.7-4.9c-0.2-0.8-0.3-1.6-0.3-2.4c0-1.3,0.3-2.6,0.8-3.8l11.9,12.1L16.3,28.9c0.5-1.9,1.5-3.5,2.9-4.8
			L29.5,42l-9.2-19.7c1.2-1.6,2.9-2.7,4.7-3.3l6.4,22.3l-4.6-23.2c1.4-0.8,3-1.2,4.6-1.2c0.3,0,0.7,0,1,0.1l0.9,24.1L34.3,17
			c0.3-0.1,0.7-0.1,1-0.1c1.6,0,3.2,0.4,4.6,1.2l-4.6,23.1L41.7,19c1.9,0.6,3.5,1.7,4.7,3.3L37.2,42l10.4-17.9
			c1.5,1.3,2.5,2.9,2.9,4.8L38.9,43.2l11.9-12.1c0.5,1.2,0.8,2.5,0.8,3.8C51.7,35.7,51.5,36.5,51.3,37.3z"/>
	</g>
</g>
</svg>
