<?xml version="1.0" encoding="utf-8"?>
<svg version="1.1" id="Layer_1" xmlns="http://www.w3.org/2000/svg" xmlns:xlink="http://www.w3.org/1999/xlink" x="0px" y="0px"
	 viewBox="0 0 923.08 61.74" style="enable-background:new 0 0 923.08 61.74;" xml:space="preserve">
<g>
	<path style="fill:#333333;" d="M38.13,35.72l-8.68-20.78l-8.68,20.78H38.13z M41.56,44.19H17.15l-7.06,16.34H0L26.23,1.21h6.25
		c4.84,11.91,26.23,59.32,26.23,59.32H48.63L41.56,44.19z M716.67,35.72L708,14.93l-8.68,20.78H716.67z M720.1,44.19h-24.41
		l-7.06,16.35h-10.09l26.23-59.32h6.25c4.84,11.91,26.23,59.32,26.23,59.32h-10.09L720.1,44.19z M180.38,23.82h23.2v8.47h-23.2
		v19.78h23.81v8.47H171.5V1.21h32.69v8.28h-23.81L180.38,23.82z M242.93,28.45h2.82c8.47,0,12.71-3.22,12.71-9.68
		c0-6.05-4.04-9.08-12.31-9.08h-3.23L242.93,28.45L242.93,28.45z M254.02,35.11l18.36,25.22h-10.9l-16.95-24.21h-1.61v24.21h-8.88
		V1.01h10.49c7.87,0,13.52,1.42,16.95,4.45c3.83,3.22,5.85,7.66,5.85,12.9c0,4.25-1.21,7.87-3.63,10.9
		C261.29,32.48,258.06,34.3,254.02,35.11 M299.62,1.21h8.88v59.32h-8.88V1.21z M382.35,4.44v10.69c-5.25-4.23-10.49-6.46-16.14-6.46
		c-6.05,0-11.3,2.22-15.33,6.65c-4.24,4.45-6.25,9.69-6.25,15.95c0,6.25,2.02,11.51,6.25,15.74s9.28,6.46,15.54,6.46
		c3.23,0,5.85-0.6,8.07-1.61c1.21-0.61,2.43-1.22,3.83-2.02c1.41-0.81,2.62-2.02,4.24-3.24V57.3c-5.04,2.83-10.49,4.24-16.14,4.24
		c-8.47,0-15.73-3.03-21.79-8.88c-6.05-6.05-8.88-13.11-8.88-21.59c0-7.47,2.42-14.32,7.47-20.18C349.26,3.63,357.33,0,367.01,0
		C372.26,0,377.3,1.42,382.35,4.44 M631.73,23.82h23v8.47h-23v19.78h23.81v8.47h-32.69V1.21h32.69v8.28h-23.81V23.82z M785.27,29.66
		h24.42v2.02c0,4.44-0.61,8.47-1.61,11.9c-1.01,3.23-2.82,6.05-5.25,8.87c-5.46,6.26-12.52,9.29-20.98,9.29
		c-8.27,0-15.33-3.03-21.39-9.08c-5.85-6.05-8.88-13.32-8.88-21.59c0-8.68,3.03-15.94,9.08-21.79c6.05-6.05,13.32-9.08,21.99-9.08
		c4.63,0,8.88,1.01,12.91,2.82c3.83,1.82,7.66,5.04,11.3,9.29l-6.46,6.05c-4.83-6.46-10.69-9.68-17.75-9.68
		c-6.25,0-11.51,2.22-15.74,6.46c-4.23,4.23-6.46,9.49-6.46,15.94c0,6.66,2.42,12.11,7.06,16.35c4.44,4.04,9.28,5.85,14.33,5.85
		c4.44,0,8.27-1.41,11.9-4.44c3.43-3.03,5.45-6.66,5.85-10.69h-14.74v-8.47L785.27,29.66z M863.15,52.06v8.47h-26.23V1.21h8.88
		v50.85H863.15z M923.08,60.53v-8.47h-23.81V32.29h23v-8.47h-23V9.49h23.81V1.21h-32.69v59.32H923.08z M443.68,35.72l-8.68-20.78
		l-8.67,20.78H443.68z M447.11,44.19H422.7l-7.06,16.34h-10.09l26.23-59.32h6.25c4.84,11.91,26.23,59.32,26.23,59.32h-10.09
		L447.11,44.19z M113.19,60.53l16.34-35.91l5.65,35.91h9.28L133.97,0.81h-2.62l-19.17,41.97L93.62,0.81H91l-11.7,59.72h9.28
		l6.25-35.91l15.94,35.91H113.19z M532.66,1.21v41.16L490.9,0.81h-3.43v59.72h8.88V18.77l41.77,41.76h3.43V1.21H532.66z"/>
</g>
</svg>
