<?xml version="1.0" encoding="utf-8"?>
<svg version="1.1" id="Layer_1" xmlns="http://www.w3.org/2000/svg" xmlns:xlink="http://www.w3.org/1999/xlink" x="0px" y="0px"
	width="100px" height="100px" viewBox="0 0 72.2 72.2" style="enable-background:new 0 0 72.2 72.2;" xml:space="preserve">
<g>
	<g>
		<circle style="fill:#E8E8E8;" cx="36.1" cy="36.1" r="36.1"/>
		<circle style="fill:#FFFFFF;" cx="36.1" cy="36.1" r="35.4"/>
	</g>
	<path style="fill:#010101;" d="M47.3,34.7c-0.6,0-1.6,0.2-1.9,0.4l-0.1,1.4h0.1l0.9-1.2c0.2-0.3,0.4-0.4,0.8-0.4
		c0.5,0,0.7,0.3,0.7,0.8c0,0.4-0.1,0.6-0.4,0.8c-0.1,0.1-0.4,0.4-0.8,0.5c-1,0.4-1.9,0.8-1.9,1.8c0,0.8,0.6,1.4,1.6,1.4l0,0
		c0.7,0,1.2-0.4,1.4-1.1l0.1,1h1.4v-3.8C49.3,34.9,48.3,34.7,47.3,34.7z M47.8,38.6c0,0.6-0.3,0.9-0.6,0.9c-0.4,0-0.7-0.4-0.7-1.2
		s0.6-1.4,1.1-1.8c0.1-0.1,0.2-0.2,0.4-0.3C47.8,36.3,47.8,38.6,47.8,38.6z M31.4,39c-1.2,0-1.9-1-1.9-2.4v-0.2h3.6
		c-0.4-1.3-1.4-1.7-2.4-1.7c-1.4,0-2.7,1.2-2.7,2.7c0,1.7,1.2,2.7,2.7,2.7l0,0c1.3,0,2.4-0.7,2.6-2.7h-0.1C33,38.8,32,39,31.4,39z
		 M30.6,34.8c0.6,0,0.9,0.5,0.9,0.9c0,0.4-0.2,0.6-0.9,0.6h-1.2C29.6,35.3,30.1,34.8,30.6,34.8z M20,39c-1.2,0-1.9-1-1.9-2.4v-0.2
		h3.6c-0.4-1.3-1.4-1.7-2.4-1.7c-1.4,0-2.7,1.2-2.7,2.7c0,1.7,1.2,2.7,2.7,2.7l0,0c1.3,0,2.4-0.7,2.6-2.7h-0.1
		C21.6,38.8,20.6,39,20,39z M19.2,34.8c0.6,0,0.9,0.5,0.9,0.9c0,0.4-0.2,0.6-0.9,0.6H18C18.2,35.3,18.7,34.8,19.2,34.8z M56.7,34.7
		c-0.8,0-1.4,0.4-1.6,1.2c-0.1-0.9-0.7-1.2-1.6-1.2c-0.8,0-1.4,0.4-1.6,1.1v-1.2l-2.2,1.3V36l0.7,0.5v3.6h1.5v-3.5
		c0-1,0.3-1.4,0.9-1.4c0.5,0,0.8,0.4,0.8,1.4v3.5h1.5v-3.5c0-1,0.3-1.4,0.9-1.4c0.5,0,0.8,0.4,0.8,1.4v3.5h1.5v-3.5
		C58.3,35.3,57.6,34.7,56.7,34.7z M37.2,34.7c-0.8,0-1.4,0.4-1.6,1.1v-1.2l-2.2,1.3V36l0.7,0.5v3.6h1.5v-3.5c0-1,0.3-1.4,0.9-1.4
		c0.5,0,0.8,0.4,0.8,1.4v3.5h1.5v-3.5C38.8,35.3,38.2,34.7,37.2,34.7z M11.6,32.2H9.2v7.9l1.7-1v-6.9L11.6,32.2
		c1.7,0.1,2.7,1.4,2.8,3.8c0.1,2.7-1.2,3.9-2.9,3.9h-0.4V40h0.5c2.6,0,4.6-1.6,4.6-4C16.3,33.7,14.4,32.2,11.6,32.2z M42.6,34.7
		c-0.8,0-1.4,0.4-1.7,1.1V32l0,0l-1.4,0.9V40H41v-3.5c0-1,0.4-1.4,0.9-1.4c0.5,0,0.9,0.4,0.9,1.4V40h1.5v-3.5
		C44.3,35.3,43.7,34.7,42.6,34.7z M25.4,34.7c-0.7,0-1.3,0.4-1.5,1V32l0,0l-1.5,0.9V40h1.5v-0.9c0.2,0.6,0.8,1,1.4,1l0,0
		c1.2,0,2.3-1,2.3-2.7C27.6,35.7,26.5,34.7,25.4,34.7z M24.7,39.7c-0.4,0-0.7-0.3-0.9-0.8V36c0.1-0.5,0.5-0.8,0.8-0.8
		c0.6,0,1.2,0.7,1.2,2.2C25.9,39.1,25.3,39.7,24.7,39.7z M61.4,36.7l-0.6-0.1c-0.6-0.1-0.9-0.4-0.9-0.9c0-0.6,0.6-0.8,1.1-0.7
		c0.3,0,0.5,0,0.6,0.1l1,1.3h0.1L62.6,35c-0.4-0.1-1-0.3-1.4-0.3l0,0c-1.2,0-2.2,0.6-2.2,1.7c0,0.9,0.5,1.4,1.5,1.7l0.6,0.2
		c0.6,0.1,0.9,0.4,0.9,0.9c0,0.6-0.6,0.9-1.2,0.9c-0.2,0-0.5,0-0.6-0.1l-1.1-1.3H59l0.1,1.4c0.5,0.1,1.1,0.3,1.6,0.3l0,0l0,0l0,0
		c1.3,0,2.2-0.6,2.2-1.7C63,37.5,62.5,37,61.4,36.7z"/>
</g>
</svg>
