<?xml version="1.0" encoding="utf-8"?>
<svg version="1.1" id="Layer_1" xmlns="http://www.w3.org/2000/svg" xmlns:xlink="http://www.w3.org/1999/xlink" x="0px" y="0px"
	width="100px" height="100px" viewBox="0 0 1202 1202" style="enable-background:new 0 0 1202 1202;" xml:space="preserve">
<g>
	<circle style="fill:#E40521;" cx="601" cy="601" r="601"/>
	<g>
		<path style="fill:#FFFFFF;" d="M1047.1,561.9c-2.6-1.3-5.1-2.6-7.7-3.8c-3.2-1.3-5.1,0.6-6.4,3.8c-1.9,5.8-4.5,12.2-7.7,17.3
			c-7.7,11.5-16.6,22.4-25,33.9c-2.6,3.2-4.5,6.4-7,9.6c-0.6-4.5-1.3-8.3,0-12.2c3.2-12.2,7.7-25,10.9-37.1c0.6-2.6,0.6-7.7-1.3-9
			c-4.5-3.2-10.2-4.5-15.4-5.8c-0.6,0-3.2,1.9-3.8,3.2c-2.6,9.6-4.5,19.2-5.8,28.8c-2.6,12.8-12.2,20.5-20.5,29.4
			c-1.3,1.3-2.6,1.3-3.8,1.9c-5.1,1.9-9-0.6-7.7-6.4c0.6-3.2,1.9-7,3.2-9.6c4.5-8.3,9-17.3,12.8-25.6c2.6-5.1,0-10.2-5.1-13.4
			c-4.5-3.2-7.7,0-10.2,3.2c-0.6,0.6-1.3,1.3-1.9,1.9c-6.4-9.6-9.6-12.8-16.6-12.2c-5.8,0-11.5,1.9-16,4.5
			c-14.7,7.7-23.7,20.5-31.4,34.6c-3.8,7-9,12.8-13.4,19.2c-1.9,1.9-4.5,3.8-7,4.5c-4.5,1.9-7.7-1.3-7-5.8c0.6-3.2,1.9-7,3.2-9.6
			c9-16,18.6-32,27.5-48c4.5-7.7,9-14.7,12.8-22.4c1.3-3.2,1.3-8.3,0.6-12.2c-1.9-5.8-10.2-10.2-16.6-9.6c-6.4,1.3-4.5,7-5.1,10.9
			c-3.8,17.3-13.4,31.4-22.4,46.7c-5.1-10.9-11.5-14.1-22.4-12.2c-3.2,0.6-7,1.9-9.6,3.2c-21.8,12.8-35.8,31.4-39.7,57
			c-2.6,17.9,10.9,28.2,27.5,21.1c5.8-2.6,10.9-7,16-10.2c2.6-1.9,4.5-4.5,7.7-7c0,2.6,0,4.5,0,6.4c0,10.9,5.8,15.4,16.6,13.4
			c8.3-1.9,14.7-6.4,20.5-12.2c1.3-1.3,2.6-3.8,3.2-5.1c4.5,13.4,11.5,19.2,23,16.6c5.8-1.3,11.5-3.8,16.6-7
			c5.1-3.2,9.6-8.3,14.1-12.2c0,1.9-0.6,3.2-0.6,4.5c-1.3,12.2,5.8,18.6,17.3,14.7c5.8-1.9,11.5-5.1,16-9c4.5-3.2,8.3-8.3,12.2-12.8
			c0.6,8.3-0.6,17.3,10.9,19.2c-1.9,3.8-3.8,6.4-5.8,9.6c-3.8,7-7.7,14.1-10.9,21.8c-1.9,3.8-0.6,7.7,3.2,10.2
			c4.5,3.2,9,5.1,14.7,3.2c1.3-0.6,1.9-1.9,1.9-3.2c5.8-19.8,16-37.8,27.5-55s23.7-33.3,35.8-49.9
			C1055.4,570.2,1054.8,566.4,1047.1,561.9z M844.2,583c0,0.6,0,1.9-0.6,2.6c-4.5,14.1-12.2,26.9-24.3,36.5c-3.8,3.2-9,7-14.1,2.6
			c-5.1-3.8-3.2-9-1.3-13.4c5.1-12.8,13.4-23.7,24.3-32c1.9-1.3,4.5-2.6,7-3.2C841.6,574.1,844.2,576.6,844.2,583z M936.4,589.4
			c-4.5,12.2-11.5,22.4-21.1,31.4c-1.9,1.9-4.5,3.2-7,4.5c-7,3.2-12.2,0-11.5-9c0-0.6,0.6-3.2,1.3-5.1c5.1-12.8,13.4-23.7,24.3-32
			c3.8-3.2,8.3-6.4,12.8-2.6C939.6,579.8,937.6,585,936.4,589.4z"/>
		<path style="fill:#FFFFFF;" d="M693.8,609.9c21.1-1.9,29.4-19.8,17.3-37.1c-1.9-2.6-3.8-4.5-5.8-6.4
			c-24.3-19.2-60.2-6.4-65.3,23.7c-1.3,7.7,0,15.4,0,23c0,1.3,0,3.8-0.6,4.5c-4.5,5.1-10.2,6.4-16.6,5.8c-5.8-1.3-9.6-5.1-10.2-10.2
			c-0.6-11.5,0-22.4,0-34.6c6.4,0,13.4,0,20.5,0c0-5.1,0-10.2,0-14.7c0-3.2-1.3-4.5-4.5-4.5c-5.1,0-10.9,0-16.6,0c0-9,0-16.6,0-25
			c-8.3,0-15.4,0-23.7,0c0,8.3,0,16.6,0,25c-2.6,0-5.1-0.6-6.4,0c-1.3,0-3.2,1.9-3.2,2.6c0,5.1,0,10.2,0,16c1.9,0,2.6,0.6,3.8,0
			c5.1-0.6,6.4,1.9,6.4,6.4c0,7.7,0,15.4,0,22.4c0,7.7-8.3,15.4-17.3,16c-9,0.6-14.7-3.8-15.4-12.8c-0.6-9.6-0.6-19.8-0.6-29.4
			c0-1.3,2.6-3.2,3.8-3.2c4.5-0.6,9.6,0,14.1,0c0-6.4,0-12.8,0-19.2c-6.4,0-12.2,0-18.6,0c0-9,0-16.6,0-25.6c-6.4,0-12.2,0-18.6,0
			c-3.8,0-5.1,1.3-5.1,5.1c0,6.4,0,13.4,0,19.8c-2.6,0-4.5,0-6.4,0.6c-1.3,0.6-3.2,1.9-3.2,2.6c0,5.1,0,10.2,0,16
			c3.8,0,6.4,0.6,10.2,0.6c0,2.6,0,5.1,0,7.7c0,9.6,0,18.6,0.6,28.2c1.9,21.1,19.8,33.9,40.3,29.4c9-1.9,15.4-6.4,21.1-14.1
			c12.8,19.2,41,19.8,55.7,1.9c23,17.9,55,17.3,67.2-1.9c-3.8-4.5-8.3-9.6-12.2-14.7c-9,8.3-18.6,11.5-30.1,7
			c-6.4-2.6-9.6-8.3-10.9-15.4c5.1,1.3,10.2,2.6,15.4,3.2C682.9,610.6,688.7,610.6,693.8,609.9z M677.2,577.9
			c9.6-0.6,15.4,5.1,16,16.6c-10.2,0-19.8,0-30.1,0C663.1,585,668.8,577.9,677.2,577.9z"/>
		<path style="fill:#FFFFFF;" d="M156.8,599.7c16-10.2,21.8-26.2,17.3-45.4c-3.8-16-16.6-25.6-35.2-26.9
			c-14.7-0.6-30.1-0.6-44.8-0.6c-1.9,0-3.8,0-5.1,0c0,39,0,77.4,0,115.2c7.7,0,15.4,0,23,0c0-12.2,0-24.3,0-37.1c4.5,0,9,0,12.8,0
			s5.8,1.3,7.7,4.5c5.8,10.2,12.2,19.8,17.9,30.1c0.6,1.3,2.6,3.2,3.8,3.2c8.3,0,16.6,0,26.2,0c-9.6-14.7-17.9-28.2-26.9-42.2
			C155.6,600.3,156.2,600.3,156.8,599.7z M151.1,567c0,9-5.1,16-12.8,17.3c-8.3,0.6-16.6,0-25.6,0c0-12.2,0-23.7,0-36.5
			c9.6,0.6,18.6,0.6,27.5,1.9C147.2,551,151.1,558.1,151.1,567z"/>
		<path style="fill:#FFFFFF;" d="M323.9,566.4c-19.8-15.4-43.5-9-55,3.2c-14.1,15.4-14.7,42.9-1.9,59.5c5.8,7.7,13.4,12.2,22.4,14.1
			c13.4,3.2,25,0.6,35.8-10.2c0,3.2-0.6,5.1,0,7c0.6,1.3,1.9,3.2,2.6,3.2c6.4,0,12.2,0,19.2,0c0-39,0-76.8,0-115.2
			c-7.7,0-15.4,0-23,0C323.9,540.8,323.9,553,323.9,566.4z M302.8,623.4c-12.8,0-21.1-9-21.1-22.4s9-23,21.8-23
			c12.2,0,21.8,10.2,21.8,23C325.2,614.4,316.2,623.4,302.8,623.4z"/>
		<path style="fill:#FFFFFF;" d="M200.4,606.1c12.8,5.1,25,5.1,37.8,2.6c11.5-2.6,17.3-10.2,16-21.1c-0.6-9-5.1-16.6-12.2-21.8
			c-14.1-10.2-29.4-11.5-44.2-3.8c-16,7.7-22.4,22.4-22.4,39.7c0,16.6,7,30.7,23,38.4c16.6,7.7,32.6,6.4,48-3.2
			c2.6-1.9,5.1-4.5,7.7-6.4c-4.5-5.8-9-10.2-12.8-14.7C220.8,629.1,204.2,625.9,200.4,606.1z M217.6,577.9c8.3,0.6,13.4,7,12.8,16.6
			c-10.2,0-19.8,0-30.1,0C201,582.4,207.4,576.6,217.6,577.9z"/>
		<path style="fill:#FFFFFF;" d="M467.9,606.7c11.5,3.8,19.8,5.1,31.4,3.8c16.6-1.9,25-10.9,21.1-26.2c-1.3-5.8-5.1-12.2-9.6-16.6
			c-19.2-17.9-51.8-12.2-62.7,11.5c-7.7,16-7.7,32,1.9,46.7c9.6,14.7,24.3,19.2,41,17.9c11.5-0.6,22.4-4.5,30.7-14.1
			c-4.5-5.1-8.3-10.2-12.8-15.4C490.9,629.8,471.7,625.9,467.9,606.7z M482,577.9c9.6-0.6,15.4,5.1,16,16.6c-10.2,0-20.5,0-30.1,0
			C467.9,585,473.6,577.9,482,577.9z"/>
		<path style="fill:#FFFFFF;" d="M401.3,527.4c-8.3,0-15.4,0-23,0c0,38.4,0,76.8,0,115.2c21.8,0,43.5,0,64.6,0c0-7,0-13.4,0-21.1
			c-14.1,0-27.5,0-41.6,0C401.3,590.1,401.3,558.7,401.3,527.4z"/>
		<path style="fill:#FFFFFF;" d="M1096.4,560c-14.7-1.9-28.2,2.6-38.4,13.4c-9,9.6-7.7,22.4,2.6,30.7c3.2,2.6,7,5.1,10.9,7.7
			c3.8,2.6,5.8,6.4,4.5,10.9c-1.3,4.5-5.8,6.4-10.2,6.4c-6.4,0.6-11.5-1.9-15.4-7c-3.2-3.8-7-5.1-11.5-1.9c-3.8,2.6-5.1,7-2.6,11.5
			c1.9,3.2,4.5,6.4,7.7,7.7c5.8,2.6,12.2,3.8,15.4,5.1c13.4-0.6,23-3.2,31.4-9.6c8.3-7,9-16,1.3-23c-3.2-3.2-7-6.4-10.9-9.6
			c-10.9-9.6-9.6-22.4,4.5-27.5c2.6-1.3,6.4,0,9.6,0c0,3.2,0.6,6.4-0.6,9c-1.9,5.1,0.6,7,3.8,9.6c3.2,1.9,7,2.6,9.6-1.3
			C1118.1,579.8,1112.4,562.6,1096.4,560z"/>
		<path style="fill:#FFFFFF;" d="M744.4,571.5c0-5.1,0-8.3,0-11.5c-7.7,0-15.4,0-23,0c0,28.2,0,55.7,0,83.2c8.3,0,15.4,0,23,0
			c0-1.9,0-3.8,0-5.1c0-10.9,0-22.4,0-33.3c0-14.1,8.3-22.4,22.4-22.4c1.3,0,2.6,0,4.5,0c0-8.3,0-16,0-24.3
			C760.4,556.8,752.7,563.2,744.4,571.5z"/>
	</g>
</g>
</svg>
