<?xml version="1.0" encoding="utf-8"?>
<svg version="1.1" id="Layer_1" xmlns="http://www.w3.org/2000/svg" xmlns:xlink="http://www.w3.org/1999/xlink" x="0px" y="0px"
	width="100px" height="100px" viewBox="0 0 100 100" style="enable-background:new 0 0 100 100;" xml:space="preserve">
<g>
	<path style="fill:#E8E8E8;" d="M50,0c27.6,0,50,22.4,50,50s-22.4,50-50,50S0,77.6,0,50S22.4,0,50,0"/>
	<path style="fill:#FFFFFF;" d="M50,1c27.1,0,49,21.9,49,49S77.1,99,50,99S1,77.1,1,50S22.9,1,50,1"/>
	<g id="Layer_2_1_">
		<g id="layer">
			<g>
				<path d="M34.9,47.2h-5.7c-1.5,0-2.6,1.2-2.6,2.7c0,0,0,0,0,0v5.6c0,1.5,1.1,2.7,2.6,2.7h5.7c1.5,0,2.6-1.2,2.6-2.7v-5.6
					C37.5,48.4,36.3,47.2,34.9,47.2z M35.8,50.7v4.2c0,0.9-0.7,1.7-1.7,1.8h-4.2c-1,0-1.7-0.8-1.7-1.8v-4.2c0-0.9,0.7-1.7,1.7-1.8
					h4.2C35.1,48.9,35.8,49.7,35.8,50.7L35.8,50.7z"/>
				<path d="M46.9,47.2h-5.7c-1.5,0-2.6,1.2-2.6,2.7c0,0,0,0,0,0v5.6c0,1.5,1.1,2.7,2.6,2.7h5.7c1.5,0,2.6-1.2,2.6-2.7v-5.6
					C49.5,48.4,48.4,47.2,46.9,47.2z M47.9,50.7v4.2c0,0.9-0.7,1.7-1.7,1.8H42c-0.9,0-1.7-0.8-1.7-1.8v-4.2c0-0.9,0.7-1.7,1.7-1.8
					h4.2C47.1,49,47.9,49.7,47.9,50.7z"/>
				<path d="M70.9,47.2h-5.7c-1.5,0-2.6,1.2-2.6,2.7c0,0,0,0,0,0v5.6c0,1.5,1.1,2.7,2.6,2.7c0,0,0,0,0,0h5.7c1.5,0,2.6-1.2,2.6-2.7
					c0,0,0,0,0,0v-5.6C73.5,48.4,72.3,47.2,70.9,47.2z M71.8,50.7v4.2c0,0.9-0.7,1.7-1.7,1.8h-4.2c-1,0-1.7-0.8-1.7-1.8v-4.2
					c0-0.9,0.7-1.7,1.7-1.8h4.2C71.1,48.9,71.9,49.7,71.8,50.7z"/>
				<path d="M82.9,47.2h-5.7c-1.5,0-2.6,1.2-2.6,2.7c0,0,0,0,0,0v5.6c0,1.5,1.1,2.7,2.6,2.7c0,0,0,0,0,0h5.7c1.5,0,2.6-1.2,2.6-2.7
					c0,0,0,0,0,0v-5.6C85.5,48.4,84.4,47.2,82.9,47.2z M83.9,50.7v4.2c0,0.9-0.7,1.7-1.7,1.8H78c-1,0-1.7-0.8-1.7-1.8v-4.2
					c0-0.9,0.7-1.7,1.7-1.8h4.2C83.1,48.9,83.9,49.7,83.9,50.7z"/>
				<path d="M22.8,47.2h-5.7c-0.3,0-0.6,0.1-0.9,0.2v-5.7h-1.7v13.8c0,1.5,1.1,2.7,2.6,2.7c0,0,0,0,0,0h5.7c1.5,0,2.6-1.2,2.6-2.7
					v-5.6C25.4,48.5,24.2,47.2,22.8,47.2C22.8,47.2,22.8,47.2,22.8,47.2z M23.7,50.7v4.2c0,0.9-0.7,1.7-1.7,1.8h-4.2
					c-1,0-1.7-0.8-1.7-1.8v-4.2c0-0.9,0.8-1.7,1.7-1.7H22C23,49,23.7,49.7,23.7,50.7z"/>
				<path d="M58.9,47.3h-5.7c-0.3,0-0.6,0.1-0.9,0.2v-5.7h-1.7v16.5h1.7v-0.1c0-0.7,0-7.3,0-7.4c0-0.9,0.8-1.7,1.7-1.7h4.2
					c1,0,1.7,0.8,1.7,1.8v7.5h1.7V50C61.6,48.5,60.4,47.3,58.9,47.3L58.9,47.3z"/>
			</g>
		</g>
	</g>
</g>
</svg>
