<?xml version="1.0" encoding="utf-8"?>
<svg version="1.1" id="Layer_1" xmlns="http://www.w3.org/2000/svg" xmlns:xlink="http://www.w3.org/1999/xlink" x="0px" y="0px"
	 viewBox="0 0 1029.8 1081.5" style="enable-background:new 0 0 1029.8 1081.5;" xml:space="preserve">
<g>
	<path style="stroke:#231F20;stroke-width:0.58;" d="M243.1,810h-13.2l12.2-23.5c20.7-43.3-9.4-48-28.3-15.1
		c-6.6,11.3-14.1,25.4-19.8,38.6h-16c-2.8,0-3.8,5.7-0.9,5.7h14.1c-9.4,21.7-17,45.2-21.7,68.8c-3.8,30.1,22.6,34.8,37.7,20.7
		c10.4-10.4,15.1-17,26.4-42.4c2.8-5.7-1.9-6.6-3.8-1.9c-6.6,16-16,29.2-29.2,40.5c-9.4,6.6-21.7,3.8-17.9-14.1
		c0,0,3.8-20.7,6.6-27.3c14.1-13.2,26.4-28.3,36.7-45.2h16C245,815.6,246,810,243.1,810L243.1,810z M237.5,782.7
		c-3.8,9.4-8.5,18.8-13.2,27.3h-14.1c5.7-14.1,12.2-27.3,19.8-39.6C246.9,746.9,243.1,771.4,237.5,782.7L237.5,782.7L237.5,782.7z
		 M220.5,816.6c-7.5,13.1-16.7,25.1-27.3,35.8l15.1-35.8H220.5L220.5,816.6z M325.1,863.7c2.8-5.7-1.9-7.5-3.8-2.8
		c-5.7,11.3-24.5,49-36.7,48c-3.8,0-6.6-2.8-3.8-14.1c3.8-18.8,33-69.7,33-69.7c-9.4-2.8-37.7,14.1-50.9,25.4
		c-8.5,7.5-15.1,15.1-21.7,23.5c22.6-45.2,58.4-112.1,69.7-124.3c-3.8,0-7.5,0-11.3-0.9c-8.5-0.9-13.2,5.7-19.8,17
		c-26.4,49-52.7,103.6-75.3,149.8c2.8-0.9,6.6-1.9,9.4-1.9c5.7,0,8.5,0,10.4-3.8c9.4-19.8,22.6-38.6,38.6-53.7
		c20.7-19.8,26.4-12.2,19.8-1.9c-5.7,8.5-11.3,17.9-15.1,28.3c-8.5,25.4,4.7,32,14.1,32C300.6,913.6,315.7,881.6,325.1,863.7
		L325.1,863.7L325.1,863.7z M392.9,862.7c2.8-5.7-2.8-5.7-4.7,0c-6.6,14.1-20.7,46.2-45.2,46.2c-17.9,0-13.2-27.3-9.4-36.7
		c12.2-0.9,23.5-5.7,33.9-12.2c17.9-13.2,25.4-32,15.1-39.6c-12.2-8.5-33,0.9-47.1,17.9c-12.2,14.1-19.8,32-20.7,50.9
		c-0.9,14.1,10.4,25.4,24.5,26.4h1.9C370.3,914.5,382.5,884.4,392.9,862.7L392.9,862.7L392.9,862.7z M364.6,854.3
		c-8.5,6.6-18.8,10.4-29.2,12.2c4.7-9.4,10.4-17.9,17-25.4C385.4,800.6,387.2,835.4,364.6,854.3L364.6,854.3L364.6,854.3z
		 M544.5,844.8c-3.8,0-7.5,0-11.3-0.9c-7.5-0.9-9.4,1.9-17,13.2c-7.5,11.3-31.1,53.7-46.2,47.1c-26.4-11.3,49.9-113,65-71.6
		c2.8,8.5,12.2,0,2.8-7.5c-20.7-16-47.1-6.6-63.1,12.2c-20.7,23.5-36.7,63.1-9.4,74.4c12.2,3.8,22.6-5.7,30.1-14.1
		c2.8-2.8,17.9-24.5,18.8-27.3c-11.3,25.4-18.8,35.8-41.4,86.7c-5.7,12.2-7.5,18.8-1.9,25.4c2.8,2.8,5.7,4.7,7.5,8.5
		C482.4,973.9,522.9,876.9,544.5,844.8L544.5,844.8z M654.7,863.7c2.8-5.7-1.9-7.5-3.8-2.8c-9.4,19.8-22.6,45.2-36.7,45.2
		c-3.8,0-7.5-4.7-5.7-16c4.7-15.1,10.4-29.2,17.9-42.4c8.5-17,11.3-20.7,18.8-26.4h-15.1c-4.7-0.9-8.5,1.9-10.4,5.7
		c-10.4,21.7-25.4,52.7-40.5,70.6c-17.9,20.7-29.2,9.4-16-18.8c4.7-10.4,17-34.8,17-34.8c3.8-9.4,9.4-17,17.9-22.6h-17
		c-4.7-0.9-8.5,1.9-10.4,5.7c-4.6,10.2-9.7,20.3-15.1,30.1l-4.7,9.4c-1.9,3.8,0.9,4.7,2.8,4.7c-4.7,9.4-12.2,19.8-9.4,31.1
		c1.9,7.5,9.4,13.2,17,12.2c13.2,0,27.3-18.8,36.7-34.8c-7.5,21.7,0,34.8,12.2,34.8C631.2,913.6,645.3,882.5,654.7,863.7
		L654.7,863.7L654.7,863.7z M750.8,863.7c2.8-5.7-0.9-7.5-3.8-1.9c-5.7,11.3-23.5,46.2-35.8,45.2c-3.8,0-4.7-5.7-2.8-16
		c5.7-17.9,14.1-35.8,25.4-50.9c-3.8,0-7.5,0-11.3-0.9c-8.5-0.9-12.2,5.7-18.8,17c-6.7,13.4-14.9,26.1-24.5,37.7
		c-13.2,15.1-28.3,17-25.4-1.9c1.9-9.4,5.7-18.8,11.3-27.3c9.4-16,21.7-29.2,36.7-38.6c10.4-5.7,20.7-2.8,23.5,6.6
		c4.7,0.9,6.6-3.8,2.8-7.5c-16-17-47.1-6.6-64,12.2c-41.4,49-20.7,97,11.3,66.9c7.5-7.5,14.1-16,19.8-25.4
		c-8.5,28.3,4.7,35.8,13.2,34.8C725.4,912.7,742.3,879.7,750.8,863.7L750.8,863.7L750.8,863.7z M860.1,864.6
		c2.8-5.7-1.9-7.5-3.8-2.8c-4.7,10.4-11.3,20.7-17,30.1c-9.4,13.2-23.5,22.6-39.6,26.4l21.7-62.2c6.6-17.9,11.3-29.2,21.7-35.8H828
		c-4.7-0.9-8.5,1.9-10.4,5.7c-11.3,25.4-26.4,49-43.3,70.6c-17.9,20.7-29.2,9.4-16-18.8c7.5-16,15.1-32,24.5-48
		c2.8-3.8,6.6-6.6,10.4-9.4h-17c-4.7-0.9-8.5,1.9-10.4,5.7c-4.6,10.2-9.7,20.3-15.1,30.1l-4.7,9.4c-1.9,3.8,0.9,4.7,2.8,4.7
		c-4.7,9.4-12.2,19.8-9.4,31.1c1.9,7.5,9.4,13.2,17,12.2c20.7,0,38.6-33.9,48-49.9c-5.7,20.7-14.1,41.4-23.5,61.2
		c-22.6,4.7-44.3,11.3-65.9,18.8c-10.4,4.7-19.8,12.2-25.4,22.6c-8.5,15.1-5.7,33,21.7,33c40.5,0,67.8-41.4,84.8-72.5
		C834.6,912.7,841.2,901.4,860.1,864.6L860.1,864.6L860.1,864.6z M775.3,933.4l-5.7,10.4c-12.2,17-41.4,50.9-65.9,50.9
		s-13.2-32,15.1-44.3C736.7,942.8,755.5,937.1,775.3,933.4L775.3,933.4z"/>
	<path style="stroke:#231F20;stroke-width:0.58;" d="M79.2,518C55.7,552.9,19.9,633.9,1.1,658.3c-1.9,2.8,0,5.7,1.9,3.8
		c11.3-15.1,20.7-31.1,29.2-48c-8.5,17-16,34.8-22.6,52.7c-0.9,3.8-1.9,5.7,1.9,5.7h17c-4.7-3.8,2.8-33,7.5-42.4
		c6.6-9.4,14.1-17,22.6-24.5c31.1-26.4,43.3-7.5,26.4,6.6c-5.7,4.7-14.1,7.5-21.7,8.5c-5.7,0.9-16,13.2-13.2,31.1
		c0.9,11.3,9.4,20.7,20.7,22.6c16,1.9,33-2.8,54.6-51.8c1.9-4.7-0.9-6.6-3.8-2.8c-5.7,13.2-13.2,25.4-22.6,36.7
		c-25.4,26.4-42.4-7.5-32-33c10.4-0.9,19.8-4.7,27.3-10.4c20.7-15.1,24.5-45.2-11.3-32c-16,5.7-33,23.5-44.3,37.7
		c2.8-7.5,5.7-16,9.4-22.6c18.8-35.8,46.2-80.1,60.3-90.4c-3.8,0-7.5,0-11.3-0.9h-0.9C90.5,503.9,84.9,507.6,79.2,518L79.2,518
		L79.2,518z M164,558.5c0.7-5.1-2.6-9.9-7.5-11.3h-1.9c-6.6,0-12.2,4.7-13.2,11.3c-0.7,5.1,2.6,9.9,7.5,11.3h1.9
		C157.4,569.8,163.1,565.1,164,558.5z M125.4,649.9l3.8-7.5l21.7-50.9c2.8-6.6,2.8-9.4-5.7-9.4h-15.1c2.8,2.8,3.8,7.5,2.8,11.3
		L115,637.6c-5.7,14.1-5.7,34.8,15.1,34.8s35.8-34.8,43.3-49.9c2.8-5.7-1.9-7.5-3.8-2.8c-6.6,15.1-15.1,28.3-25.4,40.5
		c-2.8,2.8-7.5,4.7-12.2,5.7C123.5,665.9,123.5,658.3,125.4,649.9L125.4,649.9L125.4,649.9z M265.7,622.6c2.8-5.7-1.9-7.5-3.8-2.8
		c-5.7,11.3-23.5,47.1-37.7,47.1c-3.8,0-6.6-2.8-4.7-13.2c3.8-19.8,33-69.7,33-69.7c-9.4-2.8-37.7,14.1-50.9,25.4
		c-8.5,7.5-16,16-22.6,24.5c9.4-19.8,25.4-47.1,33-50.9c-3.8,0-7.5,0-11.3-0.9c-8.5-0.9-12.2,3.8-19.8,17
		c-13.2,24.5-24.5,49.9-37.7,76.3c2.8-0.9,6.6-1.9,9.4-1.9c5.7,0,8.5,0,10.4-3.8c9.4-19.8,21.7-38.6,37.7-53.7
		c20.7-19.8,26.4-12.2,19.8-1.9c-5.7,8.5-11.3,17.9-15.1,28.3c-8.5,25.4,4.7,32,14.1,32C241.2,673.4,256.3,638.6,265.7,622.6
		L265.7,622.6z M373.1,622.6c2.8-5.7-1.9-7.5-3.8-1.9c-4.7,10.4-9.4,19.8-16,29.2c-5.7,6.6-11.3,13.2-18.8,17.9
		c5.7-21.7,6.6-44.3,3.8-65.9c-4.7,2.8-13.2-1.9-17,11.3c-4.7,17-32,58.4-48,51.8c-14.1-6.6,0.9-39.6,20.7-61.2
		c17-18.8,36.7-29.2,44.3-10.4c2.8,8.5,12.2,0,2.8-7.5c-20.7-16-47.1-6.6-64,12.2c-20.7,23.5-36.7,63.1-9.4,74.4
		c21.7,6.6,44.3-30.1,52.7-47.1c0.9,7.5,0.9,15.1,0,22.6c-0.9,10.4-2.8,20.7-6.6,30.1c-20.7,8.5-46.2,13.2-72.5,29.2
		c-13.2,7.5-23.5,17.9-23.5,31.1c0,13.2,8.5,20.7,25.4,20.7c39.6,0,76.3-48,87.6-82.9C351.4,665.9,359,650.8,373.1,622.6
		L373.1,622.6z M310.9,684.7c-3.8,9.4-9.4,18.8-16,27.3c-7.5,9.4-15.1,18.8-24.5,26.4c-10.2,7.6-22.2,12.4-34.8,14.1
		c-22.6,0-13.2-27.3,4.7-38.6c18.8-11.3,39.6-19.8,60.3-26.4L310.9,684.7L310.9,684.7z M452.2,503.9c-3.8,0-8.5-0.9-12.2-1.9
		c-11.3,0-17,7.5-23.5,18.8c-15.1,28.3-36.7,71.6-56.5,115.8c-3.4-0.1-6.7,0.9-9.4,2.8c-6.6,6.6-7.5,17-1.9,24.5
		c-16,37.7-28.3,70.6-28.3,88.5c-0.9,7.5,4.7,13.2,11.3,14.1h2.8c29.2,0.9,49.9-56.5,47.1-94.2c19.8,0,34.8-28.3,44.3-50.9
		c1.9-3.8-1.9-5.7-3.8-1.9c-9.4,18.8-24.5,49-41.4,48l-0.9-3.8c-0.9-7.5-3.8-14.1-8.5-20.7C399.5,582.1,435.3,519.9,452.2,503.9
		L452.2,503.9L452.2,503.9z M376.9,673.4c0,26.4-7.5,52.7-22.6,74.4c-10.4,14.1-23.5,18.8-16-12.2c6.6-22.6,14.1-45.2,22.6-66.9
		C365.6,672.5,371.2,674.4,376.9,673.4z M375.9,668.7h-1.9c-4.7,0-8.5-1.9-11.3-5.7l5.7-13.2c1.9,1.9,2.8,3.8,3.8,6.6
		C375,660.2,375.9,664,375.9,668.7L375.9,668.7L375.9,668.7z M465.4,558.5c0.7-5.1-2.6-9.9-7.5-11.3H456c-6.6,0-12.2,4.7-13.2,11.3
		c-0.7,5.1,2.6,9.9,7.5,11.3h1.9C458.8,569.8,464.5,565.1,465.4,558.5z M426.8,649.9c0.9-1.9,2.8-7.5,2.8-7.5l21.7-50.9
		c2.8-6.6,2.8-9.4-5.7-9.4h-15.1c2.8,2.8,3.8,7.5,2.8,11.3l-17.9,44.3c-5.7,14.1-5.7,34.8,15.1,34.8c20.7,0,35.8-34.8,43.3-49.9
		c2.8-5.7-1.9-7.5-3.8-2.8c-6.6,15.1-15.1,28.3-25.4,40.5c-2.8,2.8-7.5,4.7-12.2,5.7C424.9,665.9,424,658.3,426.8,649.9L426.8,649.9
		L426.8,649.9z M545.5,621.6c0.9-2.8-2.8-4.7-3.8-1.9c-5.7,12.2-13.2,24.5-20.7,35.8c-5.7,7.5-15.1,12.2-25.4,12.2h-1.9
		c10.6-6.8,17.7-17.8,19.8-30.1c-0.9-11.3-3.8-22.6-9.4-32c-3.8-9.4-6.6-28.3,5.7-34.8c2.8-0.9,5.7-0.9,8.5,0
		c4.7,2.8,5.7-1.9,0.9-4.7c-2.8-1.9-6.6-1.9-10.4-1.9c-9.4,0.9-17.9,12.2-22.6,23.5l-23.5,47.1c-13.2,0.9-19.8,38.6,13.2,38.6
		c3.8,0,7.5-0.9,11.3-2.8C519.1,680,535.1,643.3,545.5,621.6L545.5,621.6L545.5,621.6z M497.4,636.7c0,10.4-3.8,20.7-12.2,28.3
		c-7.5-3.8-12.2-12.2-11.3-20.7c0-9.4-5.7-8.5-5.7-8.5c6.6-12.2,17.9-35.8,25.4-49.9C491.8,598.1,498.4,619.7,497.4,636.7z
		 M480.5,667.8c-1.9,0.9-3.8,0.9-5.7,0.9c-10.4,0-14.1-12.2-5.7-21.7C469.2,655.5,473.9,663.1,480.5,667.8L480.5,667.8z
		 M635.9,622.6c2.8-5.7-1.9-7.5-3.8-2.8c-5.7,11.3-24.5,49-36.7,48c-3.8,0-6.6-2.8-3.8-14.1c3.8-18.8,33-69.7,33-69.7
		c-9.4-2.8-37.7,14.1-50.9,25.4c-8.5,7.5-16,15.1-22.6,23.5c22.6-45.2,58.4-112.1,69.7-124.3c-3.8,0-7.5,0-11.3-0.9
		c-8.5-0.9-13.2,5.7-19.8,17c-26.4,49-52.7,103.6-75.3,149.8c2.8-0.9,6.6-1.9,9.4-1.9c5.7,0,8.5,0,10.4-3.8
		c9.4-19.8,22.6-38.6,38.6-53.7c20.7-19.8,26.4-12.2,19.8-1.9c-5.7,8.5-11.3,17.9-15.1,28.3c-8.5,25.4,4.7,32,14.1,32
		C611.4,673.4,626.5,641.4,635.9,622.6L635.9,622.6L635.9,622.6z M703.7,621.6c2.8-5.7-2.8-5.7-4.7,0c-6.6,14.1-20.7,46.2-45.2,46.2
		c-17.9,0-13.2-27.3-9.4-36.7c12.2-0.9,23.5-5.7,33.9-12.2c17.9-13.2,25.4-32,15.1-39.6c-12.2-8.5-33,0.9-47.1,17.9
		c-12.2,14.1-19.8,32-20.7,50.9c-0.9,14.1,10.4,25.4,24.5,26.4h1.9C681.1,673.4,693.3,643.3,703.7,621.6L703.7,621.6L703.7,621.6z
		 M675.4,614.1c-8.5,6.6-18.8,10.4-29.2,12.2c4.7-9.4,10.4-17.9,16-25.4C696.2,559.5,697.1,595.2,675.4,614.1L675.4,614.1z
		 M774.3,622.6c2.8-5.7-0.9-7.5-2.8-2.8c-5.7,11.3-22.6,45.2-33.9,45.2c-16-0.9,11.3-50.9,16-59.3c2.8-6.6,7.5-17,5.7-20.7
		c-12.2,0.9-25.4,1.9-37.7,0.9c6.6-4.7,12.2-10.4,15.1-17.9c3.8-17.9-14.1-25.4-17-9.4c-6.6,35.8-21.7,69.7-43.3,99.8
		c-1.9,2.8,0,5.7,1.9,3.8c13.2-12.2,26.4-43.3,33-60.3l2.8-8.5c15.1,0,25.4,3.8,20.7,12.2c-2.8,6.6-13.2,20.7-17,32
		c-11.3,28.3,5.7,36.7,15.1,33.9C751.7,667.8,765.9,638.6,774.3,622.6L774.3,622.6L774.3,622.6z M937.3,621.6
		c1.9-3.8-2.8-5.7-3.8-2.8c-6.6,13.2-20.7,47.1-38.6,47.1c-5.7,0-10.4-1.9-13.2-6.6c9.4-9.4,17-19.8,22.6-32
		c10.4-24.5,7.5-49-13.2-49c-18.8-0.9-41.4,20.7-51.8,45.2s-7.5,49,13.2,49c8.5,0,17-3.8,23.5-9.4c4.7,4.7,11.3,7.5,17.9,7.5
		C917.5,670.6,932.6,632,937.3,621.6L937.3,621.6L937.3,621.6z M897.7,586.8c9.4,2.8,8.5,22.6-1.9,44.3c-2.8,4.7-5.7,10.4-8.5,15.1
		c0-0.9,0.9-1.9,0.9-2.8c0-4.7-3.8-8.5-8.5-8.5c-6.6,0-9.4,5.7-9.4,11.3c0,4.7,1.9,9.4,3.8,13.2c-4.7,4.7-12.2,7.5-18.8,6.6
		c-9.4-2.8-7.5-21.7,2.8-44.3S885.5,583,897.7,586.8L897.7,586.8L897.7,586.8z M1028.6,622.6c2.8-5.7-1.9-7.5-3.8-2.8
		c-5.7,11.3-23.5,47.1-37.7,47.1c-3.8,0-6.6-2.8-4.7-13.2c3.8-18.8,33-69.7,33-69.7c-9.4-2.8-37.7,14.1-50.9,25.4
		c-8.5,7.5-16,16-22.6,24.5c9.4-19.8,25.4-47.1,33-50.9c-3.8,0-7.5,0-11.3-0.9c-8.5-0.9-12.2,3.8-19.8,17
		c-13.2,24.5-24.5,49.9-37.7,76.3c2.8-0.9,6.6-1.9,9.4-1.9c5.7,0,8.5,0,10.4-3.8c9.4-19.8,21.7-38.6,37.7-53.7
		c20.7-19.8,26.4-12.2,19.8-1.9c-5.7,8.5-11.3,17.9-15.1,28.3c-8.5,25.4,4.7,32,14.1,32C1004.2,673.4,1020.2,638.6,1028.6,622.6
		L1028.6,622.6z M792.2,0.9c32,20.7,43.3,52.7,54.6,87.6l4.7-18.8c0.9-5.7,2.8-11.3,3.8-17c0-1.9,0-3.8,2.8-4.7
		c2.8-0.9,2.8,1.9,3.8,3.8c5.7,15.1,5.7,32,1.9,47.1c-3.8,19.8-6.6,39.6-6.6,60.3c1.9,55.6-17,110.2-53.7,153.5
		c-20.7,22.6-45.2,42.4-71.6,57.5c-37.7,22.6-77.2,41.4-118.7,57.5c-10.4,3.8-19.8,8.5-28.3,15.1c-8.5,4.7-12.2,16-9.4,25.4
		c0.9,2.8,0,2.8-2.8,3.8c-12.2,2.8-25.4,2.8-37.7-1.9c-8.5-2.8-8.5-2.8-6.6-11.3c5.7-18.8,17.9-33.9,33.9-44.3
		c17-9.4,33.9-17.9,52.7-23.5c29.2-10.4,52.7-33,63.1-63.1c1.9-5.7,4.7-11.3,7.5-17.9c2.8,4.7,4.7,9.4,4.7,15.1
		c0,8.2-0.9,16.5-2.8,24.5c-0.9,4.7,0,4.7,4.7,3.8c24.5-5.7,42.4-25.4,46.2-49.9c3.8-21.7,0.9-43.3-7.5-64
		c-7.5-18.8-16-36.7-21.7-56.5c-0.9-2.8-1.9-6.6-1.9-10.4c0-2.8,0.9-3.8,3.8-1.9c4.7,3.8,8.5,9.4,11.3,14.1
		c4.7,9.4,9.4,17.9,16,25.4c0.9,0.9,0.9,1.9,2.8,3.8c11.3-25.4,25.4-48,53.7-57.5c0,1.9-0.9,2.8-1.9,4.7
		c-8.5,15.1-16,30.1-22.6,46.2c-5.7,11.3-6.6,24.5-5.7,36.7l5.7,54.6l19.8-22.6c21.7-26.4,34.8-58.4,38.6-93.2
		c6.6-55.6-3.8-111.1-30.1-160.1c-1.9-3.8-3.8-7.5-5.7-12.2C794.1,7.5,793.2,4.7,792.2,0.9L792.2,0.9L792.2,0.9z"/>
	<path style="stroke:#231F20;stroke-width:0.58;" d="M181.9,85.7c5.7-18.8,13.2-37.7,23.5-55.6c6.6-10.4,15.1-19.8,24.5-27.3
		c1.9-0.9,2.8-3.8,5.7-1.9c2.8,1.9,0,3.8,0,5.7c-1.9,4.7-3.8,10.4-6.6,15.1c-15.8,29.7-26.3,61.9-31.1,95.1
		c-6.6,53.7,0.9,103.6,30.1,149.8c7.5,11.3,17,22.6,28.3,31.1c0.9-12.2,2.8-23.5,3.8-35.8c0.9-6.6,1.9-13.2,1.9-20.7
		c0.9-16-1.9-33-10.4-47.1l-17-31.1c-0.9-1.9-1.9-2.8-1.9-4.7c7.5,0,14.1,2.8,18.8,8.5c9.4,8.5,17,18.8,23.5,29.2
		c3.8,6.6,7.5,12.2,11.3,18.8c12.2-14.1,17-34.8,33-47.1c0.9,4.7,0.9,8.5-0.9,13.2c-8.5,20.7-16,42.4-24.5,64
		c-7.5,18.8-9.4,39.6-6.6,59.3c3.8,26.4,24.5,47.1,50.9,51.8c-0.9-8.5-1.9-16-1.9-23.5c-1.1-7.7,0.2-15.6,3.8-22.6
		c2.8,3.8,4.7,8.5,6.6,12.2c11.3,36.7,37.7,58.4,72.5,70.6c17.8,6.6,34.9,15.1,50.9,25.4c15.1,10.4,25.4,26.4,29.2,44.3
		c0.9,3.8,0,4.7-3.8,5.7c-12.2,3.8-25.4,5.7-37.7,3.8c-4.7-0.9-6.6-1.9-5.7-7.5c1.8-9.7-2.7-19.5-11.3-24.5
		c-10.4-6.6-20.7-11.3-32-16c-40.5-16-79.1-34.8-116.8-57.5c-32-17.9-59.3-42.4-81-71.6c-24.5-34.8-37.7-76.3-38.6-118.7
		c0-24.5-2.8-49-7.5-73.5c-1.9-14.1-2.8-28.3-1.9-43.3c0.9-3.8,1.9-7.5,3.8-10.4c0.9-1.9,1.9-2.8,2.8-1.9c0.9,0.9,1.9,1.9,1.9,2.8
		c2.8,10.4,4.7,20.7,7.5,31.1C180,83.8,181,85.7,181.9,85.7L181.9,85.7z M280.8,1031.3c-7.5,0-15.1,2.8-20.7,7.5
		c-9.4,7.5-11.3,21.7-3.8,31.1c0.9,0.9,1.9,2.8,3.8,3.8c5.7,4.7,13.2,7.5,20.7,7.5c4.7,0,9.4-0.9,14.1-2.8c1.9-0.9,2.8-1.9,4.7-2.8
		l-7.5-8.5c-3.8,1.9-7.5,3.8-11.3,3.8c-4.7,0-8.5-1.9-12.2-4.7c-2.8-2.8-4.7-5.7-4.7-10.4c0-2.8,0.9-4.7,1.9-6.6
		c1.9-1.9,3.8-3.8,5.7-4.7c2.8-1.9,6.6-1.9,9.4-1.9c4.1-0.1,8.1,1.3,11.3,3.8l7.5-8.5C294.9,1033.2,288.3,1031.3,280.8,1031.3
		L280.8,1031.3L280.8,1031.3z M346.7,1032.3h-9.4l-22.6,48h13.2l4.7-8.5h19.8l4.7,8.5h13.2L346.7,1032.3L346.7,1032.3z
		 M347.7,1062.4h-10.4l5.7-11.3L347.7,1062.4L347.7,1062.4z M403.2,1032.3h-15.1v48h12.2V1053l12.2,28.3h9.4l12.2-31.1v31.1h12.2
		v-49h-16l-13.2,31.1L403.2,1032.3L403.2,1032.3z M500.3,1045.5c0-4.7-2.8-9.4-6.6-11.3c-2.8-1.9-5.7-2.8-8.5-2.8h-17v48h17.9
		c4.7,0,9.4-1.9,12.2-4.7c2.8-2.8,4.7-6.6,5.7-10.4c0-4.7-2.8-8.5-6.6-11.3C498.4,1051.1,499.3,1048.3,500.3,1045.5L500.3,1045.5
		L500.3,1045.5z M479.5,1059.6h5.7c1.9,0,2.8,0.9,3.8,1.9c0.9,0.9,1.9,1.9,1.9,3.8s-0.9,2.8-1.9,3.8c-1,1-2.4,1.6-3.8,1.9h-5.7
		V1059.6L479.5,1059.6z M479.5,1042.6h3.8c0.9,0,2.8,0,2.8,0.9c0.9,0.9,0.9,1.9,0.9,2.8c0,0.9,0,1.9-0.9,2.8
		c-0.9,0.9-1.9,0.9-2.8,0.9h-3.8V1042.6L479.5,1042.6z M555.8,1051.1h-19.8v-8.5h19.8v-10.4h-32v48h32v-10.4h-19.8v-8.5h19.8V1051.1
		L555.8,1051.1z M618,1080.3l-13.2-19.8c7.5-2.8,11.3-11.3,8.5-17.9c-0.9-1.9-1.9-4.7-3.8-5.7c-3.8-2.8-7.5-4.7-12.2-4.7h-18.8v49
		h12.2v-18.8h1.9l13.2,18.8L618,1080.3z M589.7,1042.6h6.6c0.9,0,2.8,0,3.8,0.9c0.9,0.9,1.9,1.9,1.9,3.8c0,0.9,0,1.9-0.9,2.8
		c-1,1-2.4,1.6-3.8,1.9h-6.6L589.7,1042.6L589.7,1042.6z M647.2,1032.3h-12.2v49H666v-10.4h-18.8V1032.3L647.2,1032.3z
		 M718.8,1051.1H699v-8.5h19.8v-10.4h-32v48h32v-10.4H699v-8.5h19.8V1051.1L718.8,1051.1z M751.7,1063.4v17.9H764v-17.9l16-31.1
		h-13.2l-8.5,17.9l-8.5-17.9h-13.2L751.7,1063.4L751.7,1063.4z"/>
</g>
</svg>
