<?xml version="1.0" encoding="utf-8"?>
<svg version="1.1" id="Layer_1" xmlns="http://www.w3.org/2000/svg" xmlns:xlink="http://www.w3.org/1999/xlink" x="0px" y="0px"
	 viewBox="0 0 53.1 8.9" style="enable-background:new 0 0 53.1 8.9;" xml:space="preserve">
<g>
	<path style="fill:#AC29B5;" d="M20.3,3.6c0,2.1,1.7,3.7,3.7,3.7s3.7-1.7,3.7-3.7l0,0c0-0.3-0.1-0.5-0.1-0.8h-2.6l-1.5,1.5h2.1
		C25.3,5,24.7,5.4,24,5.4c-0.9,0-1.7-0.8-1.7-1.7c0-0.9,0.8-1.7,1.7-1.7c0.3,0,0.7,0.1,0.9,0.3l1.4-1.4C25.7,0.3,24.9,0,24,0
		C22.1-0.1,20.3,1.5,20.3,3.6L20.3,3.6L20.3,3.6z M28.4,1.6h1.7v5.5h-1.7V1.6z M28.4,0.1h1.7v1.1h-1.7V0.1z M34.3,7.2l2.3-5.6h-1.9
		l-1.1,3.1l-1.1-3.1h-1.9l2.2,5.6v0.1L34.3,7.2L34.3,7.2z M36.9,1.6h1.9v5.5h-1.9V1.6z M36.9,0.1h1.9v1.1h-1.9V0.1z M44.4,7.1V3.6
		c0-1.3-0.7-2.1-1.9-2.1c-0.5,0-1,0.2-1.4,0.6l-0.5-0.5h-1.3v5.5h1.9V4c0-0.4,0.1-0.9,0.7-0.9c0.5,0,0.7,0.3,0.7,0.9v3.1L44.4,7.1
		L44.4,7.1L44.4,7.1L44.4,7.1z M2.5,7.3c1.7,0,2.6-0.9,2.6-2.6V0.1H3.2v4.5c0,0.6-0.3,0.9-0.7,0.9c-0.4,0-0.7-0.2-1.1-0.6L1.3,4.9
		L0,6.1l0.1,0.1C0.7,6.9,1.5,7.3,2.5,7.3z M47.7,7.3c-0.5,0-0.9-0.1-1.3-0.3l-1.2,1.2l0.2,0.1c0.7,0.4,1.5,0.5,2.4,0.5
		c2.1,0,3.1-1.1,3.1-3.1V1.5h-1.4L49,2.1c-0.5-0.4-0.9-0.5-1.5-0.5c-1.3,0-2.5,0.9-2.5,2.6l0,0c0,1.7,1.2,2.6,2.5,2.6
		c0.6,0,1.1-0.2,1.5-0.5C48.8,6.9,48.4,7.3,47.7,7.3C47.7,7.3,47.7,7.3,47.7,7.3z M47.8,5.3c-0.7,0-1.1-0.5-1.1-1.1l0,0
		c0-0.7,0.5-1.1,1.1-1.1s1.1,0.5,1.1,1.1l0,0C49,4.8,48.5,5.3,47.8,5.3z M5.7,1.6v3.5c0,1.3,0.7,2.1,1.9,2.1c0.5,0,1-0.2,1.4-0.6
		l0.5,0.5h1.3V1.6H8.9v3.1c0,0.4-0.1,0.9-0.7,0.9c-0.5,0-0.7-0.3-0.7-0.9V1.6L5.7,1.6C5.7,1.6,5.7,1.6,5.7,1.6z M19.8,3.2V1.5h-1.2
		V0h-1.9v1.5h-0.7v1.7h0.7v2.3c0,1.2,0.5,1.7,1.7,1.7c0.5,0,0.9-0.1,1.3-0.3l0.1-0.1V5.2l-0.3,0.1c-0.2,0.1-0.4,0.2-0.7,0.2
		c-0.3,0-0.3-0.1-0.3-0.3V3.1L19.8,3.2L19.8,3.2C19.8,3.2,19.8,3.2,19.8,3.2z M13.7,5.9c-0.5,0-1-0.2-1.5-0.5l-1,1l0,0l0.1,0.1
		c0.7,0.5,1.5,0.8,2.3,0.8c1.3,0,2.2-0.7,2.2-1.9l0,0c0-1.1-1.1-1.5-1.7-1.7L14,3.5c-0.4-0.1-0.9-0.3-0.9-0.5l0,0
		c0-0.2,0.3-0.3,0.5-0.3c0.3,0,0.7,0.1,1.1,0.3l1.1-1.1L15.7,2c-0.6-0.4-1.3-0.7-2.1-0.7c-1.3,0-2.1,0.7-2.1,1.9l0,0
		c0,1.1,0.9,1.5,1.7,1.7c0.1,0,0.1,0.1,0.2,0.1c0.5,0.1,0.9,0.3,0.9,0.4l0,0C14.3,5.8,14,5.9,13.7,5.9C13.7,5.9,13.7,5.9,13.7,5.9z
		 M51.1,1.9h0.2v0.5h0.3V1.9h0.2V1.5h-0.7L51.1,1.9C51.1,1.9,51.1,1.9,51.1,1.9z M52.7,1.6l-0.2,0.3l-0.2-0.3H52v0.9h0.3V2l0.1,0.2
		h0.1L52.7,2v0.4h0.3V1.5L52.7,1.6L52.7,1.6z"/>
</g>
</svg>
