<svg xmlns="http://www.w3.org/2000/svg" viewBox="0 0 207.06 38.81"><path d="M164.43 9.01l-14.15 29.4h-5.86l5.29-10.98-8.31-18.42h6.02l5.34 12.34 5.83-12.34h5.84zm-53.85 10.44c0-3.37-2.53-5.98-5.64-5.98s-5.64 2.51-5.64 5.98c0 3.43 2.53 5.98 5.64 5.98s5.64-2.61 5.64-5.98zM94.15 38.41V9.01h5.1v2.71c1.54-1.92 3.82-3.09 6.54-3.09 5.6 0 10 4.64 10 10.77s-4.49 10.81-10.12 10.81c-2.62 0-4.76-1.04-6.26-2.79V38.4h-5.25v.01zm40.04-18.96c0-3.52-2.53-5.98-5.64-5.98s-5.64 2.51-5.64 5.98c0 3.43 2.53 5.98 5.64 5.98s5.64-2.48 5.64-5.98zm.03 10.44v-2.71c-1.54 1.88-3.82 3.04-6.54 3.04-5.69 0-10-4.59-10-10.77 0-6.13 4.49-10.81 10.12-10.81 2.65 0 4.89 1.18 6.42 3.01V9.01h5.1v20.88h-5.1zM84.96 11.05s1.29-2.43 4.49-2.43c1.36 0 2.23.47 2.23.47v5.33s-1.92-1.2-3.68-.95-2.88 1.86-2.88 4.04v12.37h-5.27V9.01h5.1v2.04h.01zm119.05-3.22l-6.04-3.48-6.13-3.53c-4.05-2.34-9.11.6-9.11 5.31v.79a1.19 1.19 0 0 0 .61 1.05l2.85 1.63c.78.46 1.76-.12 1.76-1.04V6.69c0-.93.99-1.51 1.8-1.05l5.58 3.23 5.57 3.22c.8.46.8 1.63 0 2.09l-5.57 3.22-5.58 3.23c-.8.46-1.8-.12-1.8-1.05v-.93c0-4.71-5.06-7.66-9.11-5.31l-6.13 3.53-6.04 3.48c-4.07 2.36-4.07 8.28 0 10.63l6.04 3.48 6.13 3.53c4.05 2.34 9.11-.6 9.11-5.31v-.79a1.19 1.19 0 0 0-.61-1.05l-2.85-1.63c-.79-.46-1.76.12-1.76 1.04v1.88c0 .93-1 1.51-1.8 1.05l-5.59-3.23-5.57-3.22c-.8-.46-.8-1.63 0-2.09l5.57-3.22 5.59-3.23c.8-.46 1.8.12 1.8 1.05v.93c0 4.71 5.06 7.66 9.11 5.31l6.13-3.53 6.04-3.48c4.07-2.38 4.07-8.28 0-10.64zM21.26 22.1c-1.12 4.8-5.22 8.1-10.52 8.1C4.61 30.21 0 25.57 0 19.43 0 13.3 4.68 8.62 10.82 8.62c5.18 0 9.23 3.3 10.4 8.01h-5.39c-.96-1.88-2.86-3.13-4.97-3.13-3.07 0-5.64 2.55-5.64 5.92s2.57 5.92 5.64 5.92c2.2 0 4.1-1.25 5.01-3.25h5.39zm2.42 7.77V.42h5.22v29.46h-5.22zm13.07-9.05c.37 3.09 2.57 4.83 5.34 4.83 2.2 0 3.89-1.04 4.89-2.71h5.34c-1.24 4.43-5.18 7.26-10.37 7.26-6.27 0-10.65-4.43-10.65-10.72S35.95 8.64 42.08 8.64c6.18 0 10.64 4.59 10.64 10.84 0 .46-.03.91-.12 1.34H36.75zm10.4-3.27c-.37-2.71-2.56-4.34-5.13-4.34s-4.68 1.58-5.22 4.34h10.35zm24.21 12.32v-2.71c-1.54 1.88-3.8 3.04-6.54 3.04-5.67 0-9.98-4.59-9.98-10.77 0-6.13 4.47-10.81 10.11-10.81a8.19 8.19 0 0 1 6.42 3.01V8.99h5.1v20.86h-5.1v.02zm-.05-10.44c0-3.5-2.53-5.98-5.64-5.98s-5.64 2.5-5.64 5.98c0 3.43 2.53 5.98 5.64 5.98s5.64-2.46 5.64-5.98z"/></svg>