<?xml version="1.0"?>
<svg xmlns="http://www.w3.org/2000/svg" xmlns:xlink="http://www.w3.org/1999/xlink" xmlns:svgjs="http://svgjs.com/svgjs" version="1.1" width="512" height="512" x="0" y="0" viewBox="0 0 512 512" style="enable-background:new 0 0 512 512" xml:space="preserve" class=""><g><g xmlns="http://www.w3.org/2000/svg"><g><circle cx="256" cy="256" fill="#f1f1f1" r="256" data-original="#7a83ea" style="" class=""/></g><g><path d="m510.236 286.04-95.434-95.434-43.731-20.82-51.579 41.493-132.411-132.411-45.405 307.8 66.666 66.666-5.174 5.045 53.611 53.611c130.868-.39 238.613-98.975 253.457-225.95z" fill="#f1f1f1" data-original="#4b5be3" style="" class=""/></g><path d="m141.676 78.868h45.405v84.797h-45.405z" fill="#5a5a5a" data-original="#5a5a5a" style="" class=""/><path d="m370.324 386.667h-228.648v-228.648l114.324-91.192 114.324 91.192z" fill="#ffffff" data-original="#ffffff" style="" class=""/><g><path d="m370.324 158.019-114.324-91.192v319.84h114.324z" fill="#e3eaee" data-original="#e3eaee" style="" class=""/></g><path d="m401.739 205.751-145.739-125.718-145.739 125.718-13.063-15.145 158.802-136.985 158.802 136.985z" fill="#ff641a" data-original="#ff641a" style=""/><path d="m217.081 265.314h77.838v121.354h-77.838z" fill="#5a5a5a" data-original="#5a5a5a" style="" class=""/><g><path d="m256 265.314h38.919v121.354h-38.919z" fill="#32393f" data-original="#32393f" style="" class=""/></g><path d="m171.676 184.07h45.405v45.405h-45.405z" fill="#9dcfff" data-original="#9dcfff" style="" class=""/><path d="m295.231 184.07h45.405v45.405h-45.405z" fill="#9dcfff" data-original="#9dcfff" style="" class=""/><g><g><path d="m308.832 458.379h-105.664v-105.665h42.486l10.346 7.585 10.346-7.585h42.486z" fill="#ffd300" data-original="#ffd300" style=""/></g><path d="m266.346 352.714-10.346 7.585v24.571 41.268 32.241h52.832v-81.181-24.484z" fill="#ffb600" data-original="#ffb600" style="" class=""/><path d="m241 352.714h29.945v32.156h-29.945z" fill="#ffffff" data-original="#ffffff" style="" class=""/><path d="m218.609 421.139h21.928v21.928h-21.928z" fill="#ffb600" data-original="#ffb600" style="" class=""/><path d="m256 352.714h14.945v32.156h-14.945z" fill="#e3eaee" data-original="#e3eaee" style="" class=""/></g><path d="m295.231 184.07h45.405v45.405h-45.405z" fill="#72bbff" data-original="#72bbff" style=""/><g><path d="m414.802 190.606-158.802-136.985v26.412l145.739 125.718z" fill="#ef3800" data-original="#ef3800" style=""/></g></g></g></svg>
