<?xml version="1.0" encoding="utf-8"?>
<svg version="1.1" id="Layer_1" xmlns="http://www.w3.org/2000/svg" xmlns:xlink="http://www.w3.org/1999/xlink" x="0px" y="0px"
	width="100px" height="100px" viewBox="0 0 100 100" style="enable-background:new 0 0 100 100;" xml:space="preserve">
<g>
	<circle style="fill:#E8E8E8;" cx="50" cy="50" r="50"/>
	<circle style="fill:#FFFFFF;" cx="50" cy="50" r="49"/>
	<g>
		<path d="M36,50.4h-2.6l-0.5,1.2h-2l2.7-7.1h2l2.7,7.1h-2L36,50.4L36,50.4z M35.5,49l-0.8-2.3L33.9,49L35.5,49z M44.4,51.6h-5.7
			l1.8-1.9c0.6-0.7,1.1-1.3,1.5-1.8c0.2-0.3,0.4-0.7,0.4-1.1c0-0.1,0-0.4-0.2-0.7c-0.1-0.1-0.3-0.2-0.5-0.2c-0.2,0-0.5,0.1-0.6,0.3
			c-0.2,0.2-0.2,0.6-0.3,0.9h-1.9c0-0.7,0.3-1.4,0.8-2c0.5-0.5,1.1-0.8,2-0.8c1.1,0,1.7,0.4,2,0.7c0.3,0.3,0.7,0.8,0.7,1.8
			c0,0.9-0.4,1.5-1.1,2.1L42.1,50h2.3L44.4,51.6z M52.4,47.4v-2.8h0.9v7h-0.9v-3.4H49v3.4h-0.9v-7H49v2.8L52.4,47.4L52.4,47.4z
			 M57.7,44.4c0.5,0,1,0.1,1.4,0.3c0.4,0.2,0.8,0.5,1.2,0.8c0.3,0.3,0.6,0.7,0.8,1.2c0.2,0.4,0.3,0.9,0.3,1.4c0,1.5-0.9,2.8-2.3,3.4
			c-1.4,0.6-3,0.3-4.1-0.8C54.4,50,54,49.1,54,48.1c0-0.5,0.1-1,0.3-1.4c0.2-0.4,0.5-0.8,0.8-1.2c0.3-0.3,0.7-0.6,1.2-0.8
			C56.7,44.5,57.2,44.4,57.7,44.4L57.7,44.4z M57.7,50.9c0.4,0,0.7-0.1,1.1-0.2c0.3-0.1,0.6-0.3,0.9-0.6c0.3-0.3,0.5-0.6,0.6-0.9
			c0.2-0.4,0.2-0.7,0.2-1.1c0-0.4-0.1-0.7-0.2-1.1c-0.1-0.3-0.3-0.6-0.6-0.9c-1.1-1.1-2.9-1.1-4,0c0,0,0,0,0,0
			c-0.3,0.3-0.4,0.6-0.6,0.9c-0.1,0.3-0.2,0.7-0.2,1.1c0,0.4,0.1,0.8,0.2,1.1c0.1,0.3,0.4,0.6,0.6,0.9c0.3,0.3,0.6,0.5,0.9,0.6
			C57,50.9,57.4,50.9,57.7,50.9z M65.4,45.9c-0.1-0.2-0.3-0.4-0.5-0.5c-0.2-0.1-0.4-0.2-0.7-0.2c-0.1,0-0.3,0-0.4,0.1
			c-0.1,0-0.3,0.1-0.4,0.2c-0.1,0.1-0.2,0.2-0.3,0.3c-0.1,0.1-0.1,0.3-0.1,0.4c0,0.1,0,0.3,0.1,0.4c0.1,0.1,0.1,0.2,0.2,0.3
			c0.1,0.1,0.2,0.2,0.3,0.2c0.1,0.1,0.2,0.1,0.3,0.2l0.5,0.2c0.2,0.1,0.5,0.2,0.7,0.3c0.2,0.1,0.4,0.3,0.6,0.4
			c0.2,0.2,0.3,0.4,0.4,0.6c0.1,0.2,0.1,0.5,0.1,0.8c0,0.3-0.1,0.6-0.2,0.9c-0.1,0.3-0.3,0.5-0.5,0.7c-0.2,0.2-0.4,0.3-0.7,0.5
			c-0.3,0.1-0.6,0.2-0.9,0.2c-0.5,0-1.1-0.2-1.5-0.6c-0.2-0.2-0.4-0.4-0.5-0.6c-0.1-0.2-0.2-0.5-0.2-0.8l0.9-0.2
			c0,0.2,0,0.4,0.1,0.5c0.1,0.2,0.2,0.3,0.3,0.4c0.1,0.1,0.3,0.2,0.4,0.3c0.2,0.1,0.4,0.1,0.5,0.1c0.2,0,0.4,0,0.5-0.1
			c0.2-0.1,0.3-0.2,0.4-0.3c0.1-0.1,0.2-0.3,0.3-0.4c0.1-0.2,0.1-0.3,0.1-0.5c0-0.2,0-0.3-0.1-0.5c-0.1-0.1-0.2-0.3-0.3-0.4
			c-0.1-0.1-0.2-0.2-0.4-0.3c-0.1-0.1-0.3-0.1-0.4-0.2L63.7,48l-0.6-0.3c-0.2-0.1-0.3-0.2-0.5-0.4c-0.1-0.1-0.3-0.3-0.3-0.5
			c-0.1-0.2-0.1-0.4-0.1-0.6c0-0.3,0.1-0.5,0.2-0.8c0.1-0.2,0.3-0.4,0.5-0.6c0.2-0.2,0.4-0.3,0.7-0.4c0.3-0.1,0.5-0.1,0.8-0.1
			c0.4,0,0.7,0.1,1.1,0.3c0.3,0.2,0.6,0.5,0.8,0.8L65.4,45.9L65.4,45.9z M69.2,51.6h-0.9v-6.2h-1.7v-0.8h4.2v0.8h-1.7L69.2,51.6
			L69.2,51.6z M72.4,51.6h-0.9v-7h0.9L72.4,51.6z M73.6,44.2l5.3,5.5v-5.2h0.9v7.3l-5.3-5.5v5.2h-0.9V44.2z M87.5,48.1v0.3
			c0,0.5-0.1,0.9-0.2,1.4c-0.2,0.4-0.4,0.8-0.7,1.1c-0.3,0.3-0.7,0.6-1.1,0.7c-0.4,0.2-0.9,0.3-1.4,0.3c-0.5,0-1-0.1-1.4-0.3
			c-0.4-0.2-0.8-0.5-1.1-0.8c-0.3-0.3-0.6-0.7-0.8-1.2c-0.2-0.4-0.3-0.9-0.3-1.4c0-0.5,0.1-1,0.3-1.4c0.2-0.4,0.4-0.8,0.8-1.2
			c0.3-0.3,0.7-0.6,1.2-0.8c0.4-0.2,0.9-0.3,1.4-0.3c0.5,0,1.1,0.1,1.6,0.4c0.5,0.2,0.9,0.6,1.3,1l-0.6,0.6c-0.3-0.3-0.6-0.6-1-0.8
			c-0.4-0.2-0.8-0.3-1.2-0.3c-0.4,0-0.8,0.1-1.1,0.2c-0.3,0.1-0.6,0.4-0.9,0.6c-0.3,0.3-0.5,0.6-0.6,0.9c-0.1,0.4-0.2,0.7-0.2,1.1
			c0,0.4,0.1,0.7,0.2,1.1c0.1,0.3,0.3,0.7,0.6,0.9c0.2,0.3,0.5,0.5,0.9,0.6c0.3,0.2,0.7,0.2,1.1,0.2c0.3,0,0.6-0.1,0.8-0.2
			c0.3-0.1,0.5-0.3,0.7-0.4c0.2-0.2,0.4-0.4,0.5-0.7c0.1-0.3,0.2-0.5,0.2-0.8h-1.8v-0.8L87.5,48.1L87.5,48.1z M33.9,55
			c0,0.8-0.6,1.4-1.5,1.4S31,55.8,31,55c0-0.8,0.6-1.4,1.5-1.4S33.9,54.2,33.9,55z M31.5,55c0,0.5,0.5,1,1,1c0.5,0,1-0.5,1-1
			s-0.5-1-1-1l0,0C31.9,54,31.5,54.5,31.5,55L31.5,55L31.5,55z"/>
		<g>
			<path id="D" d="M36.8,55.2c0,0.7-0.5,1.2-1.2,1.2c-0.8,0-1.2-0.4-1.2-1.2v-1.6h0.5v1.6c0,0.5,0.3,0.7,0.7,0.7
				c0.5,0,0.7-0.3,0.7-0.7v-1.6h0.5L36.8,55.2L36.8,55.2z"/>
		</g>
		<path d="M38.7,55.5c0,0-0.1,0-0.1,0h-0.7v0.8h-0.5v-2.8h1.1c0.7,0,1.1,0.3,1.1,0.9c0,0.4-0.2,0.8-0.6,0.9l0.6,0.9h-0.5L38.7,55.5
			L38.7,55.5z M38.6,55.1c0.4,0,0.7-0.2,0.7-0.6c0-0.4-0.2-0.5-0.7-0.5h-0.7v1.1H38.6z M43.3,53.9l-0.2,0.4
			c-0.2-0.2-0.5-0.2-0.8-0.3c-0.3,0-0.5,0.1-0.5,0.3c0,0.6,1.5,0.3,1.5,1.3c0,0.5-0.4,0.8-1,0.8c-0.4,0-0.8-0.2-1.1-0.4l0.2-0.4
			c0.3,0.2,0.6,0.4,0.9,0.4c0.3,0,0.5-0.1,0.5-0.3c0-0.6-1.5-0.3-1.5-1.3c0-0.5,0.4-0.8,1-0.8C42.6,53.6,43,53.7,43.3,53.9
			L43.3,53.9z M44.9,53.6c0.7,0,1.1,0.3,1.1,0.9c0,0.6-0.4,1-1.1,1h-0.6v0.8h-0.5v-2.8H44.9L44.9,53.6z M44.3,55.1h0.6
			c0.4,0,0.7-0.2,0.7-0.6c0-0.4-0.2-0.5-0.7-0.5h-0.6V55.1z M47,54v0.7h1.4v0.4H47V56h1.6v0.4h-2v-2.8h2V54L47,54L47,54z M49.6,54
			v0.7h1.4v0.4h-1.4V56h1.6v0.4h-2v-2.8h2V54L49.6,54L49.6,54z M52.9,53.6c0.8,0,1.4,0.6,1.4,1.4s-0.6,1.4-1.4,1.4h-1.1v-2.8
			L52.9,53.6L52.9,53.6z M52.2,56h0.7c0.5,0,0.9-0.4,1-0.9v0c0-0.5-0.4-1-0.9-1h-0.1h-0.7L52.2,56L52.2,56z M55.1,56.2
			c0,0.1,0,0.1-0.1,0.2l-0.2,0.3h-0.2l0.2-0.3c-0.1-0.1-0.2-0.2-0.1-0.3c0.1-0.1,0.2-0.2,0.3-0.1C55.1,56,55.1,56.1,55.1,56.2
			L55.1,56.2L55.1,56.2z M57.8,56.4h-0.5v-0.9l-1-1.9h0.5l0.8,1.4l0.8-1.4h0.5l-1,1.9L57.8,56.4L57.8,56.4z M61.8,55
			c0,0.8-0.6,1.4-1.5,1.4s-1.5-0.6-1.5-1.4c0-0.8,0.6-1.4,1.5-1.4S61.8,54.2,61.8,55z M59.3,55c0,0.5,0.5,1,1,1c0.5,0,1-0.5,1-1
			s-0.5-1-1-1l0,0C59.7,54,59.3,54.5,59.3,55z M64.6,55.2c0,0.7-0.5,1.2-1.2,1.2c-0.7,0-1.2-0.4-1.2-1.2v-1.6h0.5v1.6
			c0,0.5,0.3,0.7,0.7,0.7c0.5,0,0.7-0.3,0.7-0.7v-1.6h0.5V55.2z M66.6,55.5c0,0-0.1,0-0.1,0h-0.7v0.8h-0.5v-2.8h1.1
			c0.7,0,1.1,0.3,1.1,0.9c0,0.4-0.2,0.8-0.6,0.9l0.6,0.9h-0.5L66.6,55.5L66.6,55.5z M66.4,55.1c0.4,0,0.7-0.2,0.7-0.6
			c0-0.4-0.2-0.5-0.7-0.5h-0.7v1.1H66.4z M71.1,53.9l-0.2,0.4c-0.2-0.2-0.5-0.2-0.8-0.3c-0.3,0-0.5,0.1-0.5,0.3
			c0,0.6,1.5,0.3,1.5,1.3c0,0.5-0.4,0.8-1,0.8c-0.4,0-0.8-0.2-1.1-0.4l0.2-0.4c0.3,0.2,0.6,0.4,0.9,0.4c0.3,0,0.5-0.1,0.5-0.3
			c0-0.6-1.5-0.3-1.5-1.3c0-0.5,0.4-0.8,1-0.8C70.5,53.6,70.8,53.7,71.1,53.9L71.1,53.9z"/>
		<g>
			<path id="D_1_" d="M74,55.2c0,0.7-0.5,1.2-1.2,1.2s-1.2-0.4-1.2-1.2v-1.6h0.5v1.6c0,0.5,0.3,0.7,0.7,0.7c0.5,0,0.7-0.3,0.7-0.7
				v-1.6H74L74,55.2L74,55.2z"/>
		</g>
		<path d="M77,54l-0.3,0.3c-0.2-0.2-0.5-0.3-0.8-0.4c-0.5,0-1,0.4-1,1s0.4,1,1,1c0.3,0,0.6-0.1,0.8-0.3l0.3,0.3
			c-0.3,0.3-0.7,0.4-1.1,0.5c-0.8,0-1.4-0.6-1.4-1.4c0-0.8,0.6-1.4,1.5-1.4C76.3,53.6,76.7,53.7,77,54z M79.7,54l-0.3,0.3
			c-0.2-0.2-0.5-0.3-0.8-0.4c-0.5,0-1,0.4-1,1s0.4,1,1,1c0.3,0,0.6-0.1,0.8-0.3l0.3,0.3c-0.3,0.3-0.7,0.4-1.1,0.5
			c-0.8,0-1.4-0.6-1.4-1.4s0.6-1.4,1.5-1.4C79,53.6,79.4,53.7,79.7,54L79.7,54z M80.6,54v0.7H82v0.4h-1.4V56h1.6v0.4h-2v-2.8h2V54
			L80.6,54L80.6,54z"/>
		<g>
			<path id="E" d="M84.7,53.9l-0.2,0.4c-0.2-0.2-0.5-0.2-0.8-0.3c-0.3,0-0.5,0.1-0.5,0.3c0,0.6,1.5,0.3,1.5,1.3c0,0.5-0.4,0.8-1,0.8
				c-0.4,0-0.8-0.2-1.1-0.4l0.2-0.4c0.3,0.2,0.6,0.4,0.9,0.4c0.3,0,0.5-0.1,0.5-0.3c0-0.6-1.5-0.3-1.5-1.3c0-0.5,0.4-0.8,1-0.8
				C84,53.6,84.4,53.7,84.7,53.9L84.7,53.9z"/>
		</g>
		<g>
			<path id="E_1_" d="M87.1,53.9l-0.2,0.4c-0.2-0.2-0.5-0.2-0.8-0.3c-0.3,0-0.5,0.1-0.5,0.3c0,0.6,1.5,0.3,1.5,1.3
				c0,0.5-0.4,0.8-1,0.8c-0.4,0-0.8-0.2-1.1-0.4l0.2-0.4c0.3,0.2,0.6,0.4,0.9,0.4c0.3,0,0.5-0.1,0.5-0.3c0-0.6-1.5-0.3-1.5-1.3
				c0-0.5,0.4-0.8,1-0.8C86.5,53.6,86.8,53.7,87.1,53.9L87.1,53.9z"/>
		</g>
		
			<linearGradient id="SVGID_1_" gradientUnits="userSpaceOnUse" x1="-524.474" y1="292.8618" x2="-524.474" y2="282.082" gradientTransform="matrix(1.5836 0 0 -1.5836 850.4711 505.2225)">
			<stop  offset="0" style="stop-color:#89C23E"/>
			<stop  offset="1" style="stop-color:#41691A"/>
		</linearGradient>
		<path style="fill:url(#SVGID_1_);" d="M15.2,41.9l0.5,3.4c0,0,2.2-1.2,4.7-0.5c2.5,0.6,2.8,2.5,2.6,3.5c-0.2,1-0.7,2.2-3.8,3.9
			l3.3,0.6l-0.4,2.1l-6.8-1.1l0.2-1.6c0,0,2.6-1.2,3.6-2.2c1-1,1.7-1.9,1.1-2.7c-0.6-0.9-3.8-0.5-5.5,1s-2.4,3.2-2.1,5.1
			c0.2,1.9,1.5,3.8,4,4.2c2.5,0.3,4.1-0.4,5.1-1.2l0,1.6l4.3,0.7c0,0,0.3-4,0.5-5.2c0.2-1.1,1.2-4.5,0.7-6.9
			C26.8,43.9,24.7,40.1,15.2,41.9L15.2,41.9z"/>
	</g>
</g>
</svg>
