<?xml version="1.0" encoding="utf-8"?>
<svg version="1.1" id="Layer_1" xmlns="http://www.w3.org/2000/svg" xmlns:xlink="http://www.w3.org/1999/xlink" x="0px" y="0px"
	width="100px" height="100px" viewBox="0 0 100 100" style="enable-background:new 0 0 100 100;" xml:space="preserve">
<g>
	<path style="fill:#E8E8E8;" d="M50,0c27.6,0,50,22.4,50,50s-22.4,50-50,50S0,77.6,0,50S22.4,0,50,0"/>
	<path style="fill:#FFFFFF;" d="M50,1c27.1,0,49,21.9,49,49S77.1,99,50,99S1,77.1,1,50S22.9,1,50,1"/>
	<g id="XMLID_1_">
		<path id="XMLID_2_" style="fill:#E01F22;" d="M79.4,58.4c-4.2,0-7.4-3-6.4-7.3c0.9-4.1,4.8-6.5,8.8-6.5c2,0,4.2,0.7,5.5,2.3
			c1.3,1.7,1.2,3.9,0.6,5.8C86.7,56.4,83,58.4,79.4,58.4 M79.1,48.7c-0.9,1-1.3,2.6-1.3,4c0,0.5,0.1,1,0.3,1.5
			c0.2,0.4,1,0.8,0.8,1.1c0.1-0.5,0.7-0.1,1-0.1c0.5,0,1-0.1,1.5-0.4c1.2-0.8,1.6-2.4,1.8-3.7c0.1-1.2,0-2.8-1.4-3.1
			C80.9,47.6,79.8,48,79.1,48.7"/>
		<path id="XMLID_5_" style="fill:#E01F22;" d="M62.7,45c1.7,0,3.3,0,5,0c-0.1,0.5-0.2,1.1-0.3,1.6c1.6-1.6,3.9-2.1,6.1-1.8
			c-0.3,1.5-0.6,2.9-0.9,4.4c0,0-2.8,0.1-3.1,0.2c-1.7,0.6-2.8,1.6-3.2,3.4C66.1,53.5,65.4,58,65,58c-1.6,0-3.2,0-4.8,0
			C61.1,53.7,61.9,49.4,62.7,45"/>
		<path id="XMLID_6_" style="fill:#E01F22;" d="M52.5,57.1c-2.8-2.2-1.1-6.1-0.5-8.9c-0.6,0-1.2,0-1.8,0c0.2-1,0.4-2,0.6-3.1
			c0-0.1,1.3,0,1.5,0c0.6,0,0.4-0.6,0.5-1.1c0-0.2,0.1-1,0.3-1.1c0.5-0.1,1-0.3,1.6-0.4c1.1-0.3,2.2-0.6,3.3-0.9
			c-0.2,1.2-0.5,2.3-0.7,3.5c1.1,0,2.1,0,3.2,0c-0.1,0.5-0.2,0.9-0.3,1.4c0,0.3-0.1,1.5-0.3,1.7c-0.3,0.3-3-0.3-3.1,0
			c-0.5,2.3-2.4,7.1,1.8,6.6c-0.2,1.1-0.4,2.1-0.6,3.2c-0.1,0.4-1.8,0.3-2,0.3C54.7,58.2,53.5,57.8,52.5,57.1"/>
		<path id="XMLID_7_" style="fill:#E01F22;" d="M39.8,58.3c-2.6-0.4-4.6-2-5.1-4.6c-0.5-2.7,0.7-5.9,2.9-7.6c2.2-1.6,5.6-2,8.1-0.9
			c1.3,0.6,2.5,1.7,3,3c0.2,0.5,0.8,4,0,4c-2.7,0-5.4,0-8.1,0c-0.5,0-0.9,0-1.4,0c-0.6,0,0.7,2,0.9,2.2c2,1.8,5.5,0.8,7.7-0.1
			c-0.4,1.1-0.8,2.1-1.2,3.2c-0.2,0.5-2.2,0.7-2.6,0.8C42.6,58.5,41.2,58.5,39.8,58.3 M44.8,49.7c0.2-1.3-0.6-2.3-2-2.4
			c-1.4,0-2.6,1-3,2.4C41.4,49.7,43.1,49.7,44.8,49.7"/>
		<path id="XMLID_10_" style="fill:#E01F22;" d="M19.2,58c0.5-2.2,1-4.5,1.5-6.7c0.1-0.6,0.6-1.7,0.3-2.3c-0.4-0.9-1.7-0.6-2.2,0
			c-0.3,0.3-0.3,0.7-0.4,1.1c-0.6,2.5-1.1,5-1.7,7.5c-0.2,0.7-0.9,0.4-1.6,0.4c-1.1,0-2.3,0-3.4,0c0.6-2.8,1.1-5.7,1.8-8.5
			c0.9-3.5,3.7-5.5,7.3-5c0.8,0.1,1.5,0.3,2.1,0.8c0.2,0.1,0.9,0.9,1.1,1c1.3-1,3-1.8,4.7-1.8c1.3,0,2.7,0.2,3.7,1.1
			c1.2,1.1,1.2,2.9,0.9,4.4c-0.3,1.5-0.6,2.9-0.9,4.4c-0.1,0.3-0.6,3.7-0.8,3.7c-1.6,0-3.2,0-4.8,0c0,0-0.1,0-0.1,0
			c0.5-2.2,0.9-4.4,1.4-6.6c0.1-0.6,0.6-1.7,0.3-2.4c-0.4-0.9-1.7-0.6-2.2,0c-0.3,0.3-0.3,0.7-0.4,1.2c-0.5,2.5-1,4.9-1.5,7.4
			c-0.1,0.8-0.9,0.4-1.6,0.4C21.5,58,20.3,58,19.2,58"/>
	</g>
</g>
</svg>
