<svg xmlns="http://www.w3.org/2000/svg" viewBox="0 0 800 800" fill="#5d676d" xmlns:v="https://vecta.io/nano"><path d="M267 388.8c0-2.5-.8-4.6-2.5-6.5s-4.3-2.8-7.8-2.8h-9.1c-.4 0-.8.4-.8.8v18c0 .4.4.8.8.8h9.1c3.6 0 6.2-1 7.8-2.9 1.7-2 2.5-4.5 2.5-7.4m15.8.3c0 3.4-.5 6.5-1.6 9.3-1 2.8-2.6 5.2-4.6 7.2a20.42 20.42 0 0 1-7.3 4.7c-2.9 1.1-6.2 1.7-9.9 1.7h-11.8c-.4 0-.8.4-.8.8v21c0 .4-.4.8-.8.8h-13.3c-.4 0-.8-.4-.8-.8v-66.6c0-.4.4-.8.8-.8h14.1 12.8c3.6 0 6.9.5 9.7 1.6 2.9 1 5.3 2.6 7.2 4.6 2 2 3.5 4.4 4.6 7.2 1.2 2.6 1.7 5.7 1.7 9.3m69.7-.7c0-2.6-.8-4.8-2.4-6.5s-4.2-2.5-7.8-2.5h-10.6c-.4 0-.8.4-.8.8v16.5c0 .4.4.8.8.8h10.5c3.6 0 6.2-.8 7.8-2.5 1.7-1.6 2.5-3.8 2.5-6.6m15.2 46.1h-15c-.3 0-.6-.2-.7-.5l-9.6-23.1c-.1-.3-.4-.5-.7-.5h-9.9c-.4 0-.8.4-.8.8v22.5c0 .4-.4.8-.8.8h-13.3c-.4 0-.8-.4-.8-.8v-66.6c0-.4.4-.8.8-.8h25.6c8.7.1 15.2 2 19.5 5.7s6.5 9.2 6.5 16.5c0 4.7-.9 8.7-2.8 12-1.8 3.1-4.3 5.5-7.7 7.2-.4.2-.6.6-.4 1l11 24.7c.1.5-.3 1.1-.9 1.1m172.9-54h-16.9c-.4 0-.8.4-.8.8v52.4c0 .4-.4.8-.8.8h-13.3c-.4 0-.8-.4-.8-.8v-52.4c0-.4-.4-.8-.8-.8h-17c-.4 0-.8-.4-.8-.8v-12.6c0-.4.4-.8.8-.8h50.5c.4 0 .8.4.8.8v12.6c-.1.4-.4.8-.9.8m50.1.7v11.4c0 .4.4.8.8.8H615c.4 0 .8.4.8.8v11.6c0 .4-.4.8-.8.8h-23.6c-.4 0-.8.4-.8.8v12.3c0 .4.4.8.8.8h26.8c.4 0 .8.4.8.8v12.4c0 .4-.4.8-.8.8h-41.7c-.4 0-.8-.4-.8-.8v-66.6c0-.4.4-.8.8-.8h41.7c.4 0 .8.4.8.8v12.5c0 .4-.4.8-.8.8h-26.8c-.4 0-.7.3-.7.8"/><path d="M661 433.7v-66.6c0-.4.4-.8.8-.8h13.3c.4 0 .8.4.8.8v66.6c0 .4-.4.8-.8.8h-13.3c-.4 0-.8-.3-.8-.8m117.8-66.6v66.6c0 .4-.4.8-.8.8h-15c-.4 0-.8-.2-1.1-.6l-26.1-41.3c-.2-.3-.6-.1-.6.2v41c0 .4-.4.8-.8.8h-13.2c-.4 0-.8-.4-.8-.8v-66.6c0-.4.4-.8.8-.8h14.9c.4 0 .8.2 1.1.6l26.1 41.4c.2.3.6.2.6-.2v-41c0-.4.4-.8.8-.8H778c.4-.1.8.2.8.7m-348.4 53.7c9.4 0 19.5-6.3 19.5-20.5s-10.2-20.6-19.5-20.6c-9.5 0-19.6 6.4-19.6 20.6s10.1 20.5 19.6 20.5m0-55.8c19.1 0 35.3 13.9 35.3 35.4s-16.2 35.3-35.3 35.3c-19.2 0-35.3-13.9-35.3-35.3 0-21.5 16.2-35.4 35.3-35.4m-274 1.2a1.3 1.3 0 0 1 1.2.8l13.5 25.6c.2.4.6.4.8 0l13.5-25.6c.2-.4.8-.8 1.2-.8h14.5c.5 0 .7.3.4.7l-22.4 40.3c-.2.4-.4 1.1-.4 1.6v24.8c0 .5-.4.9-.9.9h-13.3c-.5 0-.9-.4-.9-.9v-24.8c0-.5-.2-1.2-.4-1.6L140.9 367c-.2-.4 0-.7.4-.7h15.1zm-83.3 68.3h-16c-.4 0-.6-.4-.4-.7l36.6-67c.2-.3.5-.5.8-.5h16c.4 0 .6.4.4.7L74 434c-.2.3-.5.5-.9.5m-52.5-68.2h16.2c.3 0 .5.1.6.4l23.2 42.5c.1.3.1.6 0 .8l-8 14.6a.57.57 0 0 1-1 0l-16.8-30.8c-.1-.3-.5-.2-.5.1V434a.65.65 0 0 1-.6.6H20.6a.65.65 0 0 1-.6-.6v-67.1c0-.4.3-.6.6-.6m76 43.5l13.5-24.6c.1-.3.5-.2.5.1V434a.65.65 0 0 1-.6.6H96.9a.65.65 0 0 1-.6-.6v-22.8c0-.5.1-1 .3-1.4"/></svg>