<?xml version="1.0" encoding="utf-8"?>
<!-- Generator: Adobe Illustrator 24.2.1, SVG Export Plug-In . SVG Version: 6.00 Build 0)  -->
<svg version="1.1" id="Layer_1" xmlns="http://www.w3.org/2000/svg" xmlns:xlink="http://www.w3.org/1999/xlink" x="0px" y="0px"
	 viewBox="0 0 143.2 132.6" style="enable-background:new 0 0 143.2 132.6;" xml:space="preserve">
<style type="text/css">
	.st0{fill:none;stroke:#FFFFFF;stroke-width:1.75;stroke-miterlimit:40;}
	.st1{fill:#FBCE07;}
	.st2{fill-rule:evenodd;clip-rule:evenodd;fill:#DD1D21;}
</style>
<g>
	<g>
		<path id="B" class="st0" d="M63.4,128.1h-36L24,101.5L2.3,85.8c-1-4.7-1.4-9.4-1.4-14.2c0-39,31.7-70.7,70.7-70.7
			s70.7,31.7,70.7,70.7c0,4.8-0.4,9.5-1.4,14.2l-21.8,15.8l-3.2,26.6h-36l-2,1.6c-1.8,1.3-4,2-6.2,2c-2.2-0.1-4.4-0.7-6.2-2
			L63.4,128.1z"/>
	</g>
	<g>
		<path id="B_1_" class="st1" d="M63.4,128.1h-36L24,101.5L2.3,85.8c-1-4.7-1.4-9.4-1.4-14.2c0-39,31.7-70.7,70.7-70.7
			s70.7,31.7,70.7,70.7c0,4.8-0.4,9.5-1.4,14.2l-21.8,15.8l-3.2,26.6h-36l-2,1.6c-1.8,1.3-4,2-6.2,2c-2.2-0.1-4.4-0.7-6.2-2
			L63.4,128.1z"/>
	</g>
	<path class="st2" d="M63.4,128.1h-36L24,101.5L2.3,85.8c-1-4.7-1.4-9.4-1.4-14.2c0-39,31.7-70.7,70.7-70.7s70.7,31.7,70.7,70.7
		c0,4.8-0.4,9.5-1.4,14.2l-21.8,15.8l-3.2,26.6h-36l-2,1.6c-1.8,1.3-4,2-6.2,2c-2.2-0.1-4.4-0.7-6.2-2L63.4,128.1z M64.6,115.7H38.4
		l-2.6-21.2L14.3,79c-0.6-2.5-1-5-1-7.6c0-4.2,0.8-8.4,2.6-12.2L54,97.7L17.1,52c1.4-5.9,4.6-11.3,9.2-15.4l33.2,57.3L30,31.2
		c3.8-5,9.1-8.7,15.2-10.6l20.4,71.1L50.8,17.6c4.5-2.5,9.6-3.8,14.8-3.8c1.1,0,2.1,0,3.2,0.2l3,76.9l3-76.9
		c1.1-0.2,2.1-0.2,3.2-0.2c5.2,0,10.2,1.4,14.8,3.8L78,91.5l20.4-71.1c6.1,1.9,11.4,5.6,15.2,10.7L84,94l33.2-57.3
		c4.6,4,7.8,9.4,9.2,15.4L89.4,97.8l38.1-38.6c1.8,3.8,2.6,8,2.6,12.2c0,2.6-0.4,5.1-1,7.6l-21.6,15.6l-2.6,21.2h-26l-3.8,2.8
		c-1,0.7-2.2,1.1-3.4,1c-1.2,0-2.4-0.4-3.4-1L64.6,115.7z"/>
</g>
</svg>
