<?xml version="1.0" encoding="utf-8"?>
<svg version="1.1" id="Layer_1" xmlns="http://www.w3.org/2000/svg" xmlns:xlink="http://www.w3.org/1999/xlink" x="0px" y="0px"
	 viewBox="0 0 1218.3 181.7" style="enable-background:new 0 0 1218.3 181.7;" xml:space="preserve">
<g>
	<g>
		<g>
			<path style="fill:#4292F3;" d="M411.3,57.6c0,0,0,11.9,0,13.6c0,28.8,0,57.6,0,86.5c0,3.4,0,6.8,0,10.2
				c-1.7,5.1-5.1,10.2-11.9,10.2s-10.2-3.4-11.9-10.2c0-3.4,0-5.1,0-8.5c0-45.8,0-91.5,0-135.6c0-8.5,1.7-17,11.9-20.3
				c10.2-1.7,15.3,5.1,18.6,11.9c17,32.2,32.2,66.1,49.2,98.3c1.7,3.4,1.7,8.5,6.8,8.5c1.9,0,3.3-1.7,4.2-3.7
				c2.8-6.9,5.4-13.8,8.7-20.4c12.7-25.7,25.6-52.2,39.7-77.6c1.7-3.4,3.4-6.8,5.1-10.2c3.4-5.1,8.5-8.5,15.3-6.8
				s11.9,6.8,13.6,13.6c0,3.4,0,5.1,0,8.5c0,44.1,0,88.2,0,133.9c0,1.7,0,3.4,0,5.1c-1.7,8.4-5,13.5-13.4,13.6
				c-6.7,0.1-12-5.5-12-12.2v-60.7c0-15.3,0-28.8,0-44.1v-5.1L491,144.1c-1.7,5.1-5.1,10.2-10.2,13.6c-8.5,6.8-20.3,3.4-25.4-6.8
				C441.8,123.8,426.6,84.8,411.3,57.6C413,54.3,413,59.3,411.3,57.6z"/>
			<path style="fill:#4292F3;" d="M1060.7,91.5c0,45.8-35.6,89.9-89.9,89.9c-50.9,0-89.9-42.4-89.9-89.9c0-49.2,40.7-89.9,89.9-89.9
				C1020,1.7,1060.7,42.4,1060.7,91.5z M970.8,25.4C942,22,904.7,50.9,906.4,89.9c0,37.3,28.8,66.1,64.4,66.1
				c35.6,0,66.1-30.5,66.1-66.1C1035.2,54.3,1006.4,25.4,970.8,25.4z"/>
			<path style="fill:#4292F3;" d="M667.3,178c-13.6,0-27.1,0-42.4,0c-13.6,0-18.6-8.5-18.6-22c0-30.5,0-61,0-93.2
				c0-15.3,0-28.8,0-44.1c0-10.2,3.4-17,15.3-17c27.1-1.7,55.9-1.7,83.1,0c8.5,0,13.6,5.1,13.6,13.6s-6.8,11.9-15.3,11.9
				c-20.3,0-69.5,0-69.5,0s0,3.4,0,8.5c0,8.5,0,17,0,25.4v11.9c11.9,0,37.3,0,49.2,0c6.8,0,11.9,1.7,13.6,10.2
				c1.7,8.5-3.4,15.3-13.6,15.3c-13.6,0-37.3,0-50.9,0v10.2c0,10.2,0,20.3,0,32.2v10.2c20.3,0,50.9,0,69.5,0c3.4,0,6.8,0,10.2,0
				c8.5,1.7,13.6,5.1,11.9,13.6c0,6.8-5.1,11.9-13.6,11.9C697.8,178,682.6,178,667.3,178L667.3,178z"/>
			<path style="fill:#4292F3;" d="M89.2,0c25.4,1.7,45.8,8.5,62.7,25.4c6.8,6.8,6.8,13.6,1.7,18.6c-6.8,5.1-13.6,5.1-18.6-1.7
				c-20.3-18.6-44.1-22-69.5-11.9s-39,32.2-39,59.3s11.9,47.5,35.6,59.3c25.4,13.6,49.2,8.5,71.2-8.5c1.7-1.7,1.7-1.7,3.4-3.4
				c5.1-5.1,11.9-5.1,17,0c5.1,5.1,5.1,10.2,1.7,17c-5.1,6.8-11.9,11.9-20.3,15.3c-39,22-81.4,13.6-113.6-20.3
				C-4,122.1-7.4,76.3,14.6,42.4C33.3,13.6,60.4,1.7,89.2,0z"/>
			<path style="fill:#4292F3;" d="M358.8,164.5c0,6.8-1.7,10.2-6.8,13.6c-5.1,1.7-8.5,1.7-13.6-1.7c-3.4-1.7-5.1-5.1-6.8-8.5
				c-18.6-39-37.3-78-57.6-117c0-1.7-1.7-3.4-1.7-5.1c-3.4-6.8-6.8-5.1-10.2,0c-13.6,27.1-27.1,54.3-39,81.4
				c-6.8,13.6-13.6,27.1-20.3,40.7c-5.1,8.5-11.9,11.9-18.6,6.8c-6.8-5.1-8.5-11.9-3.4-18.6C204.5,108.5,228.2,61,252,13.6
				c3.4-6.8,8.5-11.9,17-11.9c8.5,0,13.6,5.1,17,11.9c23.7,47.5,45.8,94.9,69.5,140.7C357.1,159.4,357.1,162.8,358.8,164.5z"/>
			<path style="fill:#4292F3;" d="M1128.5,101.7c0-20.3,0-42.4,0-62.7c0-8.5,0-10.2,0-10.2s-37.3,0-49.2,0
				c-8.5,0-13.6-3.4-13.6-11.9c-1.7-8.5,3.4-11.9,10.2-13.6c3.4,0,8.5-1.7,11.9-1.7c35.6,0,69.5,0,105.1,0c5.1,0,10.2,0,15.3,1.7
				c6.8,1.7,10.2,6.8,10.2,13.6c0,6.8-5.1,10.2-11.9,10.2c-13.6,0-50.9,0-50.9,0s0,3.4,0,11.9c0,39,0,76.3,0,115.3
				c0,3.4,0,6.8,0,10.2c-1.7,6.8-5.1,11.9-13.6,11.9s-11.9-5.1-11.9-11.9C1128.5,144.1,1128.5,122.1,1128.5,101.7L1128.5,101.7z"/>
			<path style="fill:#4292F3;" d="M762.3,89.9c0-22,0-44.1,0-64.4c0-3.4,0-6.8,0-10.2c1.7-6.8,5.1-10.2,13.6-10.2
				c6.8,0,10.2,5.1,11.9,10.2c0,3.4,0,6.8,0,10.2c0,39,0,78,0,115.3c0,8.5,3.4,11.9,11.9,11.9c18.6,0,39,0,57.6,0
				c3.4,0,6.8,0,10.2,0c6.8,1.7,11.9,5.1,10.2,13.6c0,8.5-5.1,11.9-11.9,11.9c-13.6,0-27.1,0-40.7,0c-13.6,0-28.8,0-42.4,0
				c-13.6,0-18.6-5.1-18.6-18.6C762.3,135.6,762.3,113.6,762.3,89.9z"/>
		</g>
	</g>
</g>
</svg>
