<?xml version="1.0"?>
<svg xmlns="http://www.w3.org/2000/svg" xmlns:xlink="http://www.w3.org/1999/xlink" xmlns:svgjs="http://svgjs.com/svgjs" version="1.1" width="512" height="512" x="0" y="0" viewBox="0 0 512 512" style="enable-background:new 0 0 512 512" xml:space="preserve" class=""><g><g xmlns="http://www.w3.org/2000/svg"><g><g><g><g><g><g><circle cx="256" cy="256" fill="#f1f1f1" r="256" data-original="#00ed89" style="" class=""/></g></g></g></g></g></g><path d="m203.574 79.698-10.184 89.897-77.531 253.719 82.068 82.068c18.658 4.327 38.098 6.618 58.073 6.618 139.232 0 252.502-111.152 255.918-249.562l-181.583-181.584z" fill="#f1f1f1" data-original="#00dc80" style="" class=""/><g><g><path d="m256 171.385h-46v-76.363h46l20.752-14.915-20.752-13.421h-60.167l-14.168 14.168v90.531h-65.806v251.929h140.141l31.8-130.273z" fill="#a99696" data-original="#ffffff" style="" class=""/><path d="m330.335 171.385v-90.531l-14.168-14.168h-60.167v28.336h45.999v76.363h-45.999v251.929h140.141v-251.929z" fill="#977c7c" data-original="#f4f3f2" style="" class=""/></g><g><path d="m256 346.145h-10.358v-72.639h10.358l9.497-19.208-9.497-22.094-76.302 29.11v12.191h8.496v72.639h-10.797v16.35h78.603l9.497-5.631zm-28.724 0h-20.716v-72.639h20.716z" fill="#6aa8ff" data-original="#6aa8ff" style="" class=""/><path d="m266.358 273.506v72.639h-10.358v16.35h78.603v-16.35h-10.797v-72.639h8.496v-12.191l-76.302-29.111v41.301h10.358zm18.366 0h20.716v72.639h-20.716z" fill="#4894ff" data-original="#4894ff" style="" class=""/></g></g></g></g></svg>
