<?xml version="1.0"?>
<svg xmlns="http://www.w3.org/2000/svg" xmlns:xlink="http://www.w3.org/1999/xlink" xmlns:svgjs="http://svgjs.com/svgjs" version="1.1" width="512" height="512" x="0" y="0" viewBox="0 0 512 512" style="enable-background:new 0 0 512 512" xml:space="preserve" class=""><g><path xmlns="http://www.w3.org/2000/svg" d="m512 256c0 141.386719-114.613281 256-256 256s-256-114.613281-256-256 114.613281-256 256-256 256 114.613281 256 256zm0 0" fill="#f1f1f1" data-original="#ff52a5" style="" class=""/><path xmlns="http://www.w3.org/2000/svg" d="m512 256c0-12.433594-.90625-24.65625-2.617188-36.617188l-81.382812-81.382812-172-106-172 106v26.0625c0 4.261719 1.875 8.074219 4.839844 10.683594l37.492187 36.804687v95.546875c0 28.9375 11.464844 55.1875 30.082031 74.488282l22.585938 22.597656h-86.496094v30l52.628906 52.628906c33.546876 16.140625 71.148438 25.1875 110.867188 25.1875 141.386719 0 256-114.613281 256-256zm0 0" fill="#f1f1f1" data-original="#ff056c" style="" class=""/><path xmlns="http://www.w3.org/2000/svg" d="m241 131.332031h30v216.015625h-30zm0 0" fill="#ffac00" data-original="#ffac00" style="" class=""/><path xmlns="http://www.w3.org/2000/svg" d="m256 131.328125h15v216.023437h-15zm0 0" fill="#ff7600" data-original="#ff7600" style=""/><path xmlns="http://www.w3.org/2000/svg" d="m405.359375 342.296875h-34.441406v-30h34.441406c10.949219 0 19.855469-8.90625 19.855469-19.851563v-13.363281c0-10.945312-8.90625-19.851562-19.855469-19.851562h-34.441406v-30h34.441406c27.488281 0 49.855469 22.363281 49.855469 49.851562v13.363281c-.003906 27.488282-22.367188 49.851563-49.855469 49.851563zm0 0" fill="#ffe767" data-original="#ffe767" style="" class=""/><path xmlns="http://www.w3.org/2000/svg" d="m308.078125 209.5v51.015625c0 23.371094-18.949219 42.316406-42.320313 42.316406h-19.515624c-23.375 0-42.320313-18.945312-42.320313-42.316406v-51.015625h-77.585937v97.597656c0 59.28125 48.054687 107.335938 107.332031 107.335938h44.667969c59.277343 0 107.332031-48.054688 107.332031-107.335938v-97.597656zm0 0" fill="#ffffff" data-original="#ffffff" style="" class=""/><path xmlns="http://www.w3.org/2000/svg" d="m385.671875 209.5v97.601562c0 42.886719-25.160156 79.898438-61.523437 97.078126-13.898438 6.582031-29.429688 10.25-45.820313 10.25h-22.328125v-111.601563h9.761719c1.769531 0 3.519531-.109375 5.238281-.316406 20.898438-2.582031 37.078125-20.402344 37.078125-42v-51.011719zm0 0" fill="#fff5ca" data-original="#fff5ca" style="" class=""/><path xmlns="http://www.w3.org/2000/svg" d="m92.503906 404.183594h326.992188v30h-326.992188zm0 0" fill="#46caf2" data-original="#46caf2" style="" class=""/><path xmlns="http://www.w3.org/2000/svg" d="m256 404.179688h163.5v30h-163.5zm0 0" fill="#009be8" data-original="#009be8" style="" class=""/><path xmlns="http://www.w3.org/2000/svg" d="m256 32-172 106v19h344v-19zm0 0" fill="#65e1ba" data-original="#65e1ba" style=""/><path xmlns="http://www.w3.org/2000/svg" d="m428 138v19h-172v-125zm0 0" fill="#00ce8e" data-original="#00ce8e" style=""/><path xmlns="http://www.w3.org/2000/svg" d="m112.75 178.3125h-14.5c-7.871094 0-14.25-6.378906-14.25-14.25v-26.0625h43v26.0625c0 7.871094-6.378906 14.25-14.25 14.25zm0 0" fill="#ffee93" data-original="#ffee93" style=""/><path xmlns="http://www.w3.org/2000/svg" d="m155.75 178.3125h-14.5c-7.871094 0-14.25-6.378906-14.25-14.25v-26.0625h43v26.0625c0 7.871094-6.378906 14.25-14.25 14.25zm0 0" fill="#95239b" data-original="#95239b" style="" class=""/><path xmlns="http://www.w3.org/2000/svg" d="m198.75 178.3125h-14.5c-7.871094 0-14.25-6.378906-14.25-14.25v-26.0625h43v26.0625c0 7.871094-6.378906 14.25-14.25 14.25zm0 0" fill="#ffee93" data-original="#ffee93" style=""/><path xmlns="http://www.w3.org/2000/svg" d="m241.75 178.3125h-14.5c-7.871094 0-14.25-6.378906-14.25-14.25v-26.0625h43v26.0625c0 7.871094-6.378906 14.25-14.25 14.25zm0 0" fill="#95239b" data-original="#95239b" style="" class=""/><path xmlns="http://www.w3.org/2000/svg" d="m284.75 178.3125h-14.5c-7.871094 0-14.25-6.378906-14.25-14.25v-26.0625h43v26.0625c0 7.871094-6.378906 14.25-14.25 14.25zm0 0" fill="#ffe131" data-original="#ffe131" style=""/><path xmlns="http://www.w3.org/2000/svg" d="m327.75 178.3125h-14.5c-7.871094 0-14.25-6.378906-14.25-14.25v-26.0625h43v26.0625c0 7.871094-6.378906 14.25-14.25 14.25zm0 0" fill="#6b1472" data-original="#6b1472" style=""/><path xmlns="http://www.w3.org/2000/svg" d="m370.75 178.3125h-14.5c-7.871094 0-14.25-6.378906-14.25-14.25v-26.0625h43v26.0625c0 7.871094-6.378906 14.25-14.25 14.25zm0 0" fill="#ffe131" data-original="#ffe131" style=""/><path xmlns="http://www.w3.org/2000/svg" d="m413.75 178.3125h-14.5c-7.871094 0-14.25-6.378906-14.25-14.25v-26.0625h43v26.0625c0 7.871094-6.378906 14.25-14.25 14.25zm0 0" fill="#6b1472" data-original="#6b1472" style=""/><path xmlns="http://www.w3.org/2000/svg" d="m256 32-86 106h172zm0 0" fill="#ffffff" data-original="#ffffff" style="" class=""/><path xmlns="http://www.w3.org/2000/svg" d="m342 138h-86v-106zm0 0" fill="#fff5ca" data-original="#fff5ca" style="" class=""/></g></svg>
