<?xml version="1.0" encoding="utf-8"?>
<svg version="1.1" id="Layer_1" xmlns="http://www.w3.org/2000/svg" xmlns:xlink="http://www.w3.org/1999/xlink" x="0px" y="0px"
	 viewBox="0 0 1062.99 244.67" style="enable-background:new 0 0 1062.99 244.67;" xml:space="preserve">
<g id="layer1" transform="translate(1403.7215,697.9402)">
	<path id="path7267" style="fill-rule:evenodd;clip-rule:evenodd;fill:#9B2C39;" d="M-475.94-692.86c-7.91,0-61.85,159-61.85,159
		h5.75c0,0,7.91-20.33,21.58-21.06c13.66-0.73,47.47,71.88,47.47,71.88s3.59,22.5,30.93,22.5h91.33v-6.53
		c0,0-19.42,1.45-28.77-18.87C-378.85-506.27-469.46-692.86-475.94-692.86z M-551.46-618.8v-58.09c0,0-28.05-21.05-66.88-21.05
		c-38.84,0-86.31,18.87-86.31,79.86c0,58.09,90.62,69.7,90.62,101.65c0,16.7-13.64,18.14-23.02,18.14
		c-30.92,0-61.13-46.46-61.13-46.46v63.16c0,0,30.92,26.86,69.76,26.86c38.83,0,87.74-23.23,87.74-84.22
		c0-72.6-92.78-74.05-92.78-106c0-16.7,10.04-14.52,19.42-14.52C-583.1-659.46-551.46-618.8-551.46-618.8z M-884.45-668.18
		c15.23,31.65,29.49,76.24,53.22,76.24c19.42,0,35.24-98.74,35.24-98.74h78.39v204.74c0,17.42,20.14,21.77,20.14,21.77h-102.85
		v-145.2c0,0-59.69,156.09-65.44,156.09c-5.76,0-87.03-156.09-87.03-156.09v125.6c0,11.62,17.98,20.34,17.98,20.34h-46.03V-668.9
		c0-13.8-22.29-23.23-22.29-23.23h79.83C-923.29-692.13-896.68-693.59-884.45-668.18z M-1101.65-474.32c0,0,62.57,5.81,92.78-38.48
		l-12.23,49.37h-162.55V-668.9c0-13.8-22.29-23.23-22.29-23.23h184.84l12.23,49.37c-30.21-44.28-92.78-38.48-92.78-38.48v95.83
		h51.07c15.82,0,24.45-26.86,24.45-26.86s16.54,76.24,15.82,75.51c-12.95-23.96-52.5-36.3-52.5-36.3h-38.83V-474.32z
		 M-1218.88-692.13h-184.84c0,0,22.29,9.44,22.29,23.23v205.47h103.57c0,0-21.57-7.26-21.57-23.97v-85.67h38.83
		c0,0,39.55,12.34,52.5,36.3c0.72,0.73-15.82-75.51-15.82-75.51s-8.64,26.86-24.46,26.86h-51.06v-95.83c0,0,62.57-5.81,92.78,38.48
		L-1218.88-692.13"/>
</g>
</svg>
