<?xml version="1.0" encoding="utf-8"?>
<svg version="1.1" id="Layer_1" xmlns="http://www.w3.org/2000/svg" xmlns:xlink="http://www.w3.org/1999/xlink" x="0px" y="0px"
	width="100px" height="100px" viewBox="0 0 100 100" style="enable-background:new 0 0 100 100;" xml:space="preserve">
<g>
	<path style="fill:#E8E8E8;" d="M50,0c27.61,0,50,22.39,50,50s-22.39,50-50,50S0,77.61,0,50S22.39,0,50,0"/>
	<path style="fill:#FFFFFF;" d="M50,1c27.06,0,49,21.94,49,49S77.06,99,50,99S1,77.06,1,50S22.94,1,50,1"/>
	<g>
		<path style="fill-rule:evenodd;clip-rule:evenodd;fill:#CE3729;" d="M74.56,44.8v2.13h-0.89l2.85,6.89h0.87v2.22h-4.57v-2.22h0.77
			l-0.25-0.46H68.8l-0.25,0.46h0.89v2.22h-4.57v-2.22h0.87l2.85-6.89H67.7V44.8H74.56z M71.24,47.96l1.26,3.19h-2.68L71.24,47.96z
			 M51.79,44.8h3.92l5.01,5.97v-3.84h-0.9V44.8h4.64v2.13h-0.89v6.87h0.89v2.27h-3.05l-5.71-6.89v4.62h0.87v2.27h-4.79v-2.27h1.04
			v-6.87h-1.04L51.79,44.8L51.79,44.8z M77.76,44.8h4.98c0.73-0.19,5.76,1.06,5.76,5.44c0,0,0.19,4.98-5.56,5.83h-5.17v-2.22h0.7
			v-6.92h-0.7L77.76,44.8L77.76,44.8L77.76,44.8z M81.51,46.92c1.98,0,3.58,0.7,3.77,2.97c0.19,2.66-0.92,4.06-3.77,4.06V46.92
			L81.51,46.92z M40.13,44.8v3.53h-2.35c0,0-0.53-1.6-2.35-1.4c0,0-2.49-0.36-2.49,3.53c0,0-0.19,3.34,2.68,3.34
			c0,0,1.43,0.36,3.07-1.57l1.96,1.04c0,0-0.92,3-5.03,3c0,0-5.37,0.19-5.76-5.63c0,0-0.15-5.51,5.03-6.17c0,0,1.98,0,2.49,0.65
			V44.8H40.13L40.13,44.8z"/>
		<path style="fill-rule:evenodd;clip-rule:evenodd;fill:#CE3729;" d="M40.13,50.26c0-3.31,2.64-6,5.9-6c3.26,0,5.9,2.68,5.9,6
			c0,3.31-2.64,6-5.9,6C42.77,56.26,40.13,53.57,40.13,50.26z M43.34,50.25c0-1.95,1.2-3.53,2.69-3.53c1.48,0,2.69,1.58,2.69,3.53
			c0,1.95-1.2,3.53-2.69,3.53C44.54,53.79,43.34,52.2,43.34,50.25z M15.56,55.12C12.41,56.31,10,52.13,12.61,50
			c-2.61-2.13-0.18-6.32,2.96-5.12c0.27-1.63,1.81-2.74,3.44-2.47c1.27,0.21,2.27,1.2,2.47,2.47c3.15-1.19,5.56,2.99,2.95,5.12
			c2.61,2.13,0.19,6.31-2.96,5.12c-0.24,1.45-1.49,2.51-2.96,2.51C17.05,57.63,15.8,56.57,15.56,55.12z"/>
		<path style="fill-rule:evenodd;clip-rule:evenodd;fill:#F7E946;" d="M15.67,54.35c-1.12,0.65-2.55,0.26-3.2-0.86c0,0,0,0,0,0
			c-0.65-1.12-0.26-2.55,0.86-3.2c0.25-0.15,0.53-0.24,0.82-0.29c-1.28-0.19-2.16-1.39-1.96-2.67c0.04-0.29,0.14-0.57,0.29-0.82
			c0.65-1.12,2.08-1.51,3.2-0.86c0.25,0.15,0.48,0.34,0.66,0.57c-0.1-0.27-0.16-0.56-0.16-0.85c0-1.29,1.05-2.34,2.34-2.34
			c1.29,0,2.34,1.05,2.34,2.34c0,0.29-0.05,0.58-0.16,0.85c0.81-1.01,2.29-1.17,3.3-0.36c1.01,0.81,1.17,2.29,0.36,3.3
			c-0.37,0.46-0.89,0.76-1.47,0.85c0.29,0.05,0.56,0.14,0.81,0.29c1.12,0.65,1.51,2.08,0.86,3.2c0,0,0,0,0,0
			c-0.65,1.12-2.08,1.51-3.2,0.86c-0.25-0.15-0.48-0.34-0.66-0.57c0.1,0.26,0.16,0.55,0.16,0.85c0,1.29-1.05,2.34-2.35,2.34
			c-1.29,0-2.34-1.05-2.34-2.35c0-0.29,0.06-0.58,0.16-0.85C16.15,54.01,15.93,54.2,15.67,54.35L15.67,54.35z"/>
		<path style="fill-rule:evenodd;clip-rule:evenodd;fill:#CE3729;" d="M18.52,47.66c1.29,0,2.34,1.05,2.35,2.34
			c0,1.29-1.05,2.34-2.34,2.35c0,0,0,0,0,0c-1.29,0-2.34-1.05-2.34-2.35C16.18,48.71,17.23,47.66,18.52,47.66z"/>
	</g>
</g>
</svg>
