<?xml version="1.0" encoding="utf-8"?>
<svg version="1.1" id="Layer_1" xmlns="http://www.w3.org/2000/svg" xmlns:xlink="http://www.w3.org/1999/xlink" x="0px" y="0px"
	 viewBox="0 0 750 164.31" style="enable-background:new 0 0 750 164.31;" xml:space="preserve">
<g>
	<path style="fill:#581B6F;" d="M422.29,53.33c13-15.73,35.08-21.11,54.57-17.67c9.7,1.54,19.69,5.94,25.05,14.56
		c5.31,7.88,5.84,17.69,5.6,26.87c-0.33,19.32,0.48,38.65-0.45,58c-6.82,0.45-13.66,0.41-20.48-0.1c-0.81-3.14-0.16-6.43-0.93-9.58
		c-10.53,10.16-26.06,13.2-40.13,10.61c-11.57-1.86-23.37-8.92-26.73-20.8c-4.53-12.46,0.95-27.4,12.64-33.73
		c15.08-8.25,33.07-4.57,49.31-8.11c6.24-3.41,2.14-12.08-2.65-14.9c-13.39-8.12-30.91-2.28-40.92,8.62
		c-5.64-3.8-10.21-8.84-14.88-13.73 M448.73,94.67c-9,2.09-10.63,15.05-2.63,19.51c10.34,6,25.2,4.13,33.65-4.44
		c5.07-5.08,4.61-12.62,4.75-19.21c-11.87,1.6-24.02,1.6-35.77,4.1L448.73,94.67z"/>
	<path style="fill:#581B6F;" d="M604.17,0h23.43c0,45,0.16,90-0.1,134.93c-7.24,0.3-14.62,1.09-21.8-0.14
		c-2.42-2.17-0.89-6.33-1.7-9.24c-20.38,18.46-56.3,13.42-70.8-9.91c-12.11-19.57-11.06-47.31,4.35-64.84
		c16.31-19,48.28-21.89,66.84-4.49C604.07,30.87,604.33,15.44,604.17,0 M568.81,56.83c-20.46,5.29-26,33.58-13.53,49
		c9.44,12.14,29.17,13.35,40.41,3c10.42-9.75,11.95-26.75,5.48-39.1C595.25,58.3,580.92,53.29,568.81,56.83z"/>
	<path style="fill:#581B6F;" d="M34.41,16.45C56.85,1.21,86.63-1.89,112.13,6.83c12.23,4.08,23.35,11.75,30.83,22.34
		c7.86,11.06,10.45,25.02,7.1,38.17c-2.94,11.91-11.29,21.75-22.55,26.61c-16.15,7.09-37.4,3.64-48.48-10.7
		c-11.46-14.39-9-39.75,7.78-49c-0.32,5.46-2.22,11.51,0.87,16.56c5.44,10.48,21.62,11.59,29.16,2.83c7.14-7.72,5.58-21-2.55-27.45
		c-14.25-12-36.88-9.83-50.62,2c-19.19,16.25-22.51,47.71-7,67.55c21.07,27.49,68,28.12,90,1.41c5.46-5.92,7.74-13.79,11.73-20.62
		c3.74-1.86,3,4.47,3.55,6.51c0.69,23.29-9.13,46.9-26.95,62.09c-30,26.14-79.25,25.37-108.75-1.18
		C11.16,130.78,2.39,111.62,0,91.97V76.13C2,52.44,14.5,29.67,34.41,16.45z"/>
	<path style="fill:#581B6F;" d="M230.34,36.83c16.3-4.69,34.92-1.51,48.34,9c21.82,16.56,25.09,51.31,7.74,72.22
		c-18.21,22.86-55.94,24.95-77.07,5.05c-17.61-16-20.88-44.58-8.35-64.57C207.66,47.83,218.15,40.06,230.34,36.83 M238.23,56.58
		c-18.08,3.85-25.6,26.33-18.61,42.14c5.5,15.26,25.46,21.61,39.33,13.87c18.42-9.48,20-38.58,4.06-51.13
		C256,56.13,246.68,54.68,238.23,56.58L238.23,56.58z"/>
	<path style="fill:#581B6F;" d="M321.81,56.5c18.23-26.93,61.28-28.81,83.13-5.39c-4.81,5.51-8.13,12.69-14.7,16.35
		c-9.54-10.49-25.53-15.06-38.57-8.51c-17.09,8.71-19.7,34.15-7.48,47.94c10.31,11.32,29.7,11.58,40.9,1.33
		c2.56-1.5,4.63-5.3,7.94-4.71c4.55,4.24,8.7,8.87,12.42,13.85c0.82,2.53-2.39,3.88-3.64,5.6c-20.18,18.72-55.08,18.48-74.46-1.29
		C310.26,105.05,308.32,75.85,321.81,56.5z"/>
	<path style="fill:#581B6F;" d="M685,36.27c16.33-4,34.65-0.21,47.57,10.73c21.69,17.75,23.33,53.92,3.84,73.88
		c-19.57,21-56.43,21.08-76.36,0.54c-18-18-18.78-49.79-2.15-69C664.95,44.25,674.46,38.58,685,36.27 M691.51,56.44
		c-19.45,3.48-27,28.07-18.5,44.32c6.65,14.64,27,19.45,40.19,10.8c15.85-9.91,17.39-34.88,4.73-48
		C711.18,56.67,700.77,54.54,691.51,56.44L691.51,56.44z"/>
</g>
</svg>
