<?xml version="1.0" encoding="utf-8"?>
<svg version="1.1" id="Layer_1" xmlns="http://www.w3.org/2000/svg" xmlns:xlink="http://www.w3.org/1999/xlink" x="0px" y="0px"
	width="100px" height="100px" viewBox="0 0 66.7 66.7" style="enable-background:new 0 0 66.7 66.7;" xml:space="preserve">
<g>
	<circle style="fill:#E8E8E8;" cx="33.3" cy="33.3" r="33.3"/>
	<circle style="fill:#FFFFFF;" cx="33.3" cy="33.3" r="32.7"/>
	<path d="M10.3,37.9H9.2v-8.1H7.1v-1h5.4v1h-2.1L10.3,37.9L10.3,37.9z M17.6,29.6c2.1,0,3.7,1.7,3.7,3.7c0,2-1.7,3.7-3.7,3.7
		s-3.7-1.7-3.7-3.7S15.5,29.6,17.6,29.6L17.6,29.6L17.6,29.6z M17.6,28.7c-2.5,0-4.7,2.1-4.7,4.7c0,2.6,2.1,4.6,4.7,4.6
		s4.7-2.1,4.7-4.6C22.3,30.8,20.1,28.7,17.6,28.7L17.6,28.7L17.6,28.7z M24.6,29.8H25c1.1,0,2.3,0.1,2.3,1.6c0,1.3-0.9,1.7-2.1,1.7
		h-0.7V29.8L24.6,29.8L24.6,29.8z M24.6,33.9h0.7c0.7,0,1.5-0.1,2.1-0.6c0.5-0.5,0.9-1.2,0.9-1.9c0-0.8-0.3-1.6-1-2.1
		c-0.7-0.5-1.5-0.5-2.2-0.5h-1.5v9.1h1L24.6,33.9L24.6,33.9L24.6,33.9z M33.7,30.6c-0.3-0.6-0.8-1-1.5-1c-0.8,0-1.5,0.6-1.5,1.4
		c0,0.7,0.8,1.1,1.4,1.4l0.6,0.3c1.1,0.5,2.1,1.1,2.1,2.5c0,1.5-1.3,2.7-2.8,2.7c-1.5,0-2.5-0.9-2.8-2.3l1-0.3
		C30.3,36.3,31,37,32,37s1.9-0.7,1.9-1.7c0-1.1-0.8-1.4-1.7-1.8l-0.5-0.3c-1.1-0.5-1.9-1-1.9-2.3c0-1.4,1.1-2.3,2.5-2.3
		c1,0,1.9,0.5,2.3,1.4L33.7,30.6L33.7,30.6z M41.9,32.5v-3.7h1v9.1h-1v-4.4h-4.7v4.4h-1v-9.1h1v3.7H41.9L41.9,32.5
		C41.8,32.5,41.9,32.5,41.9,32.5z M48.9,29.6c2.1,0,3.7,1.7,3.7,3.7c0,2-1.7,3.7-3.7,3.7s-3.7-1.7-3.7-3.7S46.9,29.6,48.9,29.6
		C48.9,29.6,48.9,29.6,48.9,29.6z M48.9,28.7c-2.5,0-4.7,2.1-4.7,4.7s2.1,4.6,4.7,4.6c2.5,0,4.7-2.1,4.7-4.6
		C53.5,30.8,51.5,28.7,48.9,28.7L48.9,28.7z M55.9,29.8h0.4c1.2,0,2.3,0.1,2.3,1.6c0,1.3-0.9,1.7-2.1,1.7h-0.7V29.8L55.9,29.8
		L55.9,29.8z M55.9,33.9h0.7c0.7,0,1.5-0.1,2.1-0.6c0.5-0.5,0.9-1.2,0.9-1.9c0-0.8-0.3-1.6-1-2.1c-0.7-0.5-1.5-0.5-2.2-0.5H55v9.1h1
		L55.9,33.9L55.9,33.9L55.9,33.9z"/>
</g>
</svg>
