<?xml version="1.0"?>
<svg xmlns="http://www.w3.org/2000/svg" xmlns:xlink="http://www.w3.org/1999/xlink" xmlns:svgjs="http://svgjs.com/svgjs" version="1.1" width="512" height="512" x="0" y="0" viewBox="0 0 512 512" style="enable-background:new 0 0 512 512" xml:space="preserve" class=""><g>
<circle xmlns="http://www.w3.org/2000/svg" style="" cx="256" cy="256" r="256" fill="#f1f1f1" data-original="#273b7a" class=""/>
<path xmlns="http://www.w3.org/2000/svg" style="" d="M297.222,508.68c109.963-17.803,196.436-105.641,212.189-216.276L344.857,126.919l-108.125,23.083  l-14.924,56.22l-86.481,140.562L297.222,508.68z" fill="#f1f1f1" data-original="#121149" class=""/>
<path xmlns="http://www.w3.org/2000/svg" style="" d="M345.871,128.862c-0.35-1.989-2.248-3.317-4.236-2.967l-84.361,14.876  c-3.424-3.241-7.982-5.165-12.855-5.165h-60.182c-10.352,0-18.742,8.39-18.742,18.741v41.596h120.673l-24.279-48.559l81.015-14.286  C344.893,132.748,346.221,130.851,345.871,128.862z" fill="#02b2b2" data-original="#02b2b2" class=""/>
<path xmlns="http://www.w3.org/2000/svg" style="" d="M376.673,346.784H135.327V206.455c0-22.468,18.213-40.681,40.681-40.681h159.984  c22.468,0,40.681,18.213,40.681,40.681v140.329H376.673z" fill="#71e2ef" data-original="#71e2ef" class=""/>
<path xmlns="http://www.w3.org/2000/svg" style="" d="M376.673,206.455c0-22.468-18.213-40.681-40.681-40.681h-79.705v181.01h120.385V206.455z" fill="#38c6d9" data-original="#38c6d9" class=""/>
<rect xmlns="http://www.w3.org/2000/svg" x="135.327" y="226.107" style="" width="241.347" height="60.337" fill="#02b2b2" data-original="#02b2b2" class=""/>
<rect xmlns="http://www.w3.org/2000/svg" x="256.293" y="226.107" style="" width="120.385" height="60.337" fill="#386895" data-original="#386895" class=""/>
<polygon xmlns="http://www.w3.org/2000/svg" style="" points="316.337,286.448 195.663,286.448 195.663,376.953 299.882,376.953 316.337,360.498 " fill="#ffedb5" data-original="#ffedb5"/>
<polygon xmlns="http://www.w3.org/2000/svg" style="" points="256.288,286.448 256.288,376.953 299.882,376.953 316.337,360.498 316.337,286.448 " fill="#fee187" data-original="#fee187" class=""/>
<polygon xmlns="http://www.w3.org/2000/svg" style="" points="299.882,376.953 316.337,360.498 299.882,360.498 " fill="#ffc61b" data-original="#ffc61b"/>
<rect xmlns="http://www.w3.org/2000/svg" x="219.798" y="234.02" style="" width="72.404" height="15.515" fill="#386895" data-original="#386895" class=""/>
<rect xmlns="http://www.w3.org/2000/svg" x="256.293" y="234.02" style="" width="35.914" height="15.515" fill="#f1f1f1" data-original="#273b7a" class=""/>
<g xmlns="http://www.w3.org/2000/svg">
</g>
<g xmlns="http://www.w3.org/2000/svg">
</g>
<g xmlns="http://www.w3.org/2000/svg">
</g>
<g xmlns="http://www.w3.org/2000/svg">
</g>
<g xmlns="http://www.w3.org/2000/svg">
</g>
<g xmlns="http://www.w3.org/2000/svg">
</g>
<g xmlns="http://www.w3.org/2000/svg">
</g>
<g xmlns="http://www.w3.org/2000/svg">
</g>
<g xmlns="http://www.w3.org/2000/svg">
</g>
<g xmlns="http://www.w3.org/2000/svg">
</g>
<g xmlns="http://www.w3.org/2000/svg">
</g>
<g xmlns="http://www.w3.org/2000/svg">
</g>
<g xmlns="http://www.w3.org/2000/svg">
</g>
<g xmlns="http://www.w3.org/2000/svg">
</g>
<g xmlns="http://www.w3.org/2000/svg">
</g>
</g></svg>
