<?xml version="1.0"?>
<svg xmlns="http://www.w3.org/2000/svg" xmlns:xlink="http://www.w3.org/1999/xlink" xmlns:svgjs="http://svgjs.com/svgjs" version="1.1" width="512" height="512" x="0" y="0" viewBox="0 0 512 512" style="enable-background:new 0 0 512 512" xml:space="preserve" class=""><g><path xmlns="http://www.w3.org/2000/svg" d="m512 256c0 141.386719-114.613281 256-256 256s-256-114.613281-256-256 114.613281-256 256-256 256 114.613281 256 256zm0 0" fill="#f1f1f1" data-original="#ff52a1" style="" class=""/><path xmlns="http://www.w3.org/2000/svg" d="m512 256c0-21.671875-2.703125-42.710938-7.773438-62.808594l-119.121093-119.121094-21.886719-10.652343-30.535156 62.742187 40.882812 41.816406-3.21875 2.03125-84.105468-84.40625-43.746094 26.816407 11.566406 18.867187-160.199219 174.527344-12.074219-14.210938-36.089843 22.125 61.742187 100.714844 91.078125 91.074219c18.476563 4.242187 37.714844 6.484375 57.480469 6.484375 141.386719 0 256-114.613281 256-256zm0 0" fill="#f1f1f1" data-original="#e80c6a" style="" class=""/><path xmlns="http://www.w3.org/2000/svg" d="m303.589844 393.339844c-1.894532 1.160156-3.902344 2.160156-6.011719 2.980468l-58.257813 22.738282c-16.953124 6.613281-36.160156.152344-45.671874-15.359375l-32.023438-52.234375 25.578125-15.679688 32.023437 52.234375c1.914063 3.121094 5.777344 4.421875 9.1875 3.089844l58.261719-22.734375c2.859375-1.113281 3.996094-3.382812 4.417969-4.632812.417969-1.25.882812-3.738282-.722656-6.359376l-19.175782-31.277343 25.574219-15.679688 19.179688 31.277344c5.828125 9.511719 7.132812 21.027344 3.578125 31.601563-2.835938 8.429687-8.496094 15.472656-15.9375 20.035156zm0 0" fill="#ffb74f" data-original="#ffb74f" style="" class=""/><path xmlns="http://www.w3.org/2000/svg" d="m279.449219 103.632812-202.484375 220.59375 35.304687 57.589844 288.445313-80.378906zm0 0" fill="#ffffff" data-original="#ffffff" style="" class=""/><path xmlns="http://www.w3.org/2000/svg" d="m400.71875 301.4375-36.164062 10.078125-231.078126 64.398437-21.210937 5.90625-17.652344-28.796874 245.472657-150.492188zm0 0" fill="#fff5cb" data-original="#fff5cb" style="" class=""/><path xmlns="http://www.w3.org/2000/svg" d="m286.257812 85.597656 133.636719 217.957032-43.742187 26.820312-133.636719-217.957031zm0 0" fill="#ffe047" data-original="#ffe047" style="" class=""/><path xmlns="http://www.w3.org/2000/svg" d="m309.300781 221.378906 43.746094-26.820312 66.816406 108.972656-43.742187 26.824219zm0 0" fill="#ffb74f" data-original="#ffb74f" style="" class=""/><path xmlns="http://www.w3.org/2000/svg" d="m81.804688 291.613281 61.746093 100.707031-36.085937 22.128907-61.75-100.707031zm0 0" fill="#ffe047" data-original="#ffe047" style="" class=""/><path xmlns="http://www.w3.org/2000/svg" d="m76.585938 364.0625 36.082031-22.125 30.871093 50.351562-36.082031 22.125zm0 0" fill="#ffb74f" data-original="#ffb74f" style="" class=""/><g xmlns="http://www.w3.org/2000/svg" fill="#fff"><path d="m328.675781 127.535156 33.160157-68.140625 27.28125 13.277344-33.160157 68.140625zm0 0" fill="#ffffff" data-original="#ffffff" style="" class=""/><path d="m400.402344 214.675781 75.777344-.605469.242187 30.339844-75.777344.605469zm0 0" fill="#ffffff" data-original="#ffffff" style="" class=""/><path d="m365.699219 169.398438 64.085937-40.4375 16.191406 25.660156-64.085937 40.4375zm0 0" fill="#ffffff" data-original="#ffffff" style="" class=""/></g><path xmlns="http://www.w3.org/2000/svg" d="m373.808594 182.191406 64.089844-40.441406 8.097656 12.832031-64.085938 40.441407zm0 0" fill="#fff5cb" data-original="#fff5cb" style="" class=""/></g></svg>
