<?xml version="1.0" encoding="utf-8"?>

<svg version="1.1" id="Layer_1" xmlns="http://www.w3.org/2000/svg" xmlns:xlink="http://www.w3.org/1999/xlink" x="0px" y="0px"
	width="100px" height="100px" viewBox="0 0 1920 1280" style="enable-background:new 0 0 1920 1280;" xml:space="preserve">
<g>
	<path d="M1504.2,814.7l-17-52c-8.7-25.3-14.2-52.2-31.4-73.9c-3.6-4.5-2.3-7.5,2.8-10.7c16.6-10.6,30.4-24.2,35.1-43.7
		c7-29.4,7.5-59.5,1.4-89.2c-7.5-36.1-37.8-63.3-77.5-62.3c-55.7,1.3-111.5,0.4-167.2,0.2c-6.5,0-10.6,0.5-10.5,9l0,327.4
		c0,6.9,2.6,8.7,9,8.6c16.5-0.3,33-0.6,49.5,0.1c9,0.3,12-2.4,11.9-11.6l-0.3-107c0-6.7,2.2-9.1,8.8-9c15.3,0.3,30.6,0.6,45.9,0
		c20.7-0.8,29.2,10.1,34.5,25.1l17.6,50.9l13.5,38c3.1,9,7.7,14.4,18.7,13.6c15.6-1.1,31.2-0.2,46.7-0.2h15.6
		C1508,822,1505.5,818.5,1504.2,814.7L1504.2,814.7z M1425,614.8c-5.3,12.1-14.1,19.6-28.5,19c-12.2-0.5-24.5-0.1-36.8-0.1
		c-13.7,0-27.5-0.1-41.3,0c-6.5,0.1-8.8-2.7-8.7-9.2l0.1-70c-0.1-6.8,2.8-8.7,9.1-8.7l85.3,0.1c11.2,0,21,8.6,24.2,21.4
		C1432.5,583.5,1431.7,599.6,1425,614.8L1425,614.8z M1159.1,645.7l12.4,10.6c14.9,14.2,20.9,32.3,23.2,52.1
		c3.7,31.1,2.3,61.2-17.5,87.5c-15.7,20.8-36.5,32.3-63,32.2c-53.4-0.1-106.7-0.2-160.1,0.2c-9.1,0.1-12.3-2.5-11.7-11.7
		c0.7-12.6,0.6-25.2,0-37.8c-0.3-8.4,2.4-11.3,11.2-11.3l122.3,0.2c26,0,45.1-15.9,47.2-39.3c2.5-27.8-12.7-49-39.8-52.8
		c-15.6-2.2-31.7-1.6-47.5-1.9c-15.6-0.3-31.2-0.4-46.8,0.1c-7.6,0.3-9.9-2.6-9.7-9.8c0.3-13.8,0.3-27.6,0-41.4
		c-0.1-6.9,2.5-9.3,9.5-9.2l96.2-0.1c14-0.1,27.6-10.6,33.1-25c4.7-12.3,1.7-26.8-10-35.5c-6.5-4.8-15.5-8.6-23.5-8.7
		c-43.2-0.8-86.3-0.4-129.5-0.4c-12.6,0-12.8-0.2-12.8-12.3l-0.1-39.6c-0.1-6,1.8-8.7,8.2-8.7l148.4,0.9c25.7,0.6,49.5,8.5,69,26.3
		c14.1,12.8,22.9,28.9,24.9,47.5c1.6,15.4,1.1,31.1-0.1,46.6C1191.3,624.4,1179.9,637.9,1159.1,645.7z M673.9,543.7v-60.5h11.9
		l123.2,0.1c48,0.2,88,37.2,91,85.3c0.9,14.5-0.2,29.3-1.8,43.8c-2.9,25-16.8,42.8-39.8,52.2c-26.8,11-54.3,20.3-81.4,30.9
		c-10.2,4-20.7,8.3-29.5,14.6c-4.8,3.4-8,11.1-8.8,17.3c-1.4,10,0,20.4-0.6,30.5c-0.4,7.7,2.6,9.8,9.9,9.8l133.1-0.1
		c13.4,0,13.3,0,13.3,13.2l0,38.7c0.1,6-1.8,8.5-8.2,8.5l-214.9,0c-4.7,0-8.5-0.8-8.4-6.6c0.3-33.6-0.5-67.2,1.2-100.6
		c2.1-41,28.1-64.5,64.1-78.1c20.9-7.9,43.1-12.8,63.7-21.3c12.7-5.2,24.8-13.3,34.9-22.5c11.1-10.2,10.2-24.5,4.5-37.6
		c-5.4-12.5-15.6-17.8-29.5-17.6l-113.3,0.2L673.9,543.7L673.9,543.7z M1545.8,679.1l-0.2-128.6c-0.9-45.6,29.7-66.6,65.4-67.1
		l169.1-0.3c6.7,0,9,2.5,8.9,8.9c-0.3,14.4-0.6,28.8,0,43.2c0.4,8.3-2.5,10.9-10.7,10.9L1646,546c-3,0-6-0.1-9,0.1
		c-13,0.9-20.2,7-20.8,20c-0.8,17.1-0.2,34.2-0.4,51.3c-0.1,7.2,5,6.1,9.4,6.1l131.3,0c2.1,0,4.2,0.2,6.3,0c7.5-1,10.1,2.4,9.9,9.7
		c-0.3,14.7-0.6,29.4-0.1,44.1c0.2,7.3-2.5,9.2-9.4,9.2l-90.8-0.1c-14.7,0-29.4,0-44.1,0c-12.6,0-12.6,0-12.6,12.3l0.2,117.8
		c0.1,8.9-2.4,12.2-11.7,11.8c-16.2-0.7-32.4-0.6-48.6,0c-8.1,0.3-10.2-2.9-10.1-10.5L1545.8,679.1L1545.8,679.1z M615.4,828H576
		c-25,0-25,0-25-24.7V557c0-13.1,0-13.6-12.5-13.1c-8.5,0.3-11-2.8-10.7-10.9c0.5-13.5,0.4-27,0-40.4c-0.2-6.7,1.6-9.6,9.1-9.5
		c20.1,0.5,40.1,0,60.2,0.2c12.7,0.1,18.8,6.2,18.8,18.8l0,318.2C616,822.3,615.7,824.4,615.4,828z M1873.8,450.6
		c-26.7-0.9-48.4,19.4-49.2,46.2c-0.8,26.1,20.1,48.3,46.6,49.3c25.3,1,48.1-19.9,48.8-44.8C1920.8,472.3,1901.8,451.5,1873.8,450.6
		z M1870.2,537.8c-20.8-0.7-37.6-19.1-37.1-40.6c0.6-22.3,18.6-39.5,40.7-38.7c21.5,0.7,39.1,19.3,38.5,40.5
		C1911.6,521.4,1892.9,538.5,1870.2,537.8z M1885.9,510.9c-1.3-5.6-3.8-9.5-8.1-11v-0.2c5.8-1.9,10.3-6.7,10.3-14
		c0-4.2-1.5-8-4.3-10.4c-3.4-3.1-8.3-4.4-15.8-4.4c-4.9,0-10,0.4-13.6,1.2v54h7.1v-23.7h6.7c6.4,0.2,9.3,3.1,10.9,10.6l3.6,13.1h7.3
		C1889,523.8,1887.7,518.5,1885.9,510.9z M1868.7,496.9h-7.2v-19.9c1.1-0.3,3.6-0.7,7-0.7c7.5,0.1,12.6,3.2,12.6,10.3
		C1881.1,492.8,1876.3,496.9,1868.7,496.9L1868.7,496.9z"/>
	<g>
		<path style="fill:#FCCE33;" d="M402.6,573.9c-12.7,0-23.1-10.4-23.1-23.1v-24.3c0-27.7-22.5-50.2-50.2-50.2H123.4
			c-27.7,0-50.2,22.5-50.2,50.2v24.3c0,12.8-10.4,23.1-23.1,23.1C22.5,573.9,0,596.4,0,624v155.2c0,27.6,22.5,50.1,50.1,50.1h352.4
			c27.6,0,50.1-22.5,50.1-50.1V624C452.7,596.4,430.2,573.9,402.6,573.9z M425.7,779.3c0,12.7-10.4,23.1-23.1,23.1H50.1
			C37.4,802.3,27,792,27,779.3V624c0-12.8,10.4-23.1,23.1-23.1c27.7,0,50.2-22.5,50.2-50.2v-24.3c0-12.7,10.3-23.1,23.1-23.1h205.9
			c12.7,0,23.1,10.4,23.1,23.1v24.3c0,27.7,22.5,50.2,50.2,50.2c12.7,0,23.1,10.4,23.1,23.1L425.7,779.3L425.7,779.3z"/>
		<circle style="fill:#FCCE33;" cx="226.3" cy="647" r="83"/>
		<path style="fill:#FCCE33;" d="M352.1,802.3c-9.7-17.6-23-33-38.9-45.1c-1.7-1.3-3.5-2.6-5.3-3.9H144.8c-1.8,1.2-3.6,2.5-5.3,3.9
			c-16,12.1-29.2,27.5-38.9,45.1c-4.7,8.5-8.5,17.6-11.4,27.1h274.4C360.6,819.9,356.8,810.8,352.1,802.3L352.1,802.3z"/>
	</g>
</g>
</svg>
