<?xml version="1.0"?>
<svg xmlns="http://www.w3.org/2000/svg" xmlns:xlink="http://www.w3.org/1999/xlink" xmlns:svgjs="http://svgjs.com/svgjs" version="1.1" width="512" height="512" x="0" y="0" viewBox="0 0 512 512" style="enable-background:new 0 0 512 512" xml:space="preserve" class=""><g>
<circle xmlns="http://www.w3.org/2000/svg" style="" cx="256" cy="256" r="256" fill="#f1f1f1" data-original="#85f4ff" class=""/>
<path xmlns="http://www.w3.org/2000/svg" style="" d="M512,256c0-42.721-10.479-82.988-28.984-118.397l-56.828-56.829l-322.521,55.56L92.229,159.18  l21.438,21.438v62.211L62,309.302l100.031,100.031L88.5,420.039l74.556,74.556C191.869,505.827,223.212,512,256,512  C397.385,512,512,397.385,512,256z" fill="#f1f1f1" data-original="#64d5ed" class=""/>
<rect xmlns="http://www.w3.org/2000/svg" x="95.49" y="143.61" style="" width="29.531" height="128.43" fill="#027adb" data-original="#027adb"/>
<rect xmlns="http://www.w3.org/2000/svg" x="386.98" y="143.61" style="" width="29.531" height="128.43" fill="#025ec3" data-original="#025ec3"/>
<rect xmlns="http://www.w3.org/2000/svg" x="88.5" y="285.04" style="" width="335" height="135" fill="#ed481a" data-original="#ed481a" class=""/>
<rect xmlns="http://www.w3.org/2000/svg" x="254.33" y="285.04" style="" width="169.17" height="135" fill="#cc1a02" data-original="#cc1a02" class=""/>
<rect xmlns="http://www.w3.org/2000/svg" x="62" y="264.33" style="" width="388" height="44.976" fill="#f16d48" data-original="#f16d48"/>
<g xmlns="http://www.w3.org/2000/svg">
	<rect x="254.33" y="264.33" style="" width="195.67" height="44.976" fill="#ed481a" data-original="#ed481a" class=""/>
	<path style="" d="M426.188,131.345c0,23.761-19.262,43.023-43.023,43.023s-43.023-19.262-43.023-43.023   c0,23.761-19.262,43.023-43.023,43.023s-43.023-19.262-43.023-43.023c0,23.761-19.262,43.023-43.023,43.023   s-43.023-19.262-43.023-43.023c0,23.761-19.262,43.023-43.023,43.023S82,155.107,82,131.345V80.774h344.188V131.345z" fill="#ed481a" data-original="#ed481a" class=""/>
</g>
<path xmlns="http://www.w3.org/2000/svg" style="" d="M254.094,80.774h172.094v50.571c0,23.761-19.262,43.023-43.023,43.023s-43.023-19.262-43.023-43.023  c0,23.761-19.262,43.023-43.023,43.023s-43.023-19.262-43.023-43.023V80.774H254.094z" fill="#cc1a02" data-original="#cc1a02" class=""/>
<rect xmlns="http://www.w3.org/2000/svg" x="162" y="334.94" style="" width="188" height="41.676" fill="#f49176" data-original="#f49176"/>
<rect xmlns="http://www.w3.org/2000/svg" x="254.33" y="334.94" style="" width="95.67" height="41.676" fill="#f16d48" data-original="#f16d48"/>
<rect xmlns="http://www.w3.org/2000/svg" x="317" y="205.4" style="" width="54" height="58.927" fill="#144e93" data-original="#144e93"/>
<g xmlns="http://www.w3.org/2000/svg">
</g>
<g xmlns="http://www.w3.org/2000/svg">
</g>
<g xmlns="http://www.w3.org/2000/svg">
</g>
<g xmlns="http://www.w3.org/2000/svg">
</g>
<g xmlns="http://www.w3.org/2000/svg">
</g>
<g xmlns="http://www.w3.org/2000/svg">
</g>
<g xmlns="http://www.w3.org/2000/svg">
</g>
<g xmlns="http://www.w3.org/2000/svg">
</g>
<g xmlns="http://www.w3.org/2000/svg">
</g>
<g xmlns="http://www.w3.org/2000/svg">
</g>
<g xmlns="http://www.w3.org/2000/svg">
</g>
<g xmlns="http://www.w3.org/2000/svg">
</g>
<g xmlns="http://www.w3.org/2000/svg">
</g>
<g xmlns="http://www.w3.org/2000/svg">
</g>
<g xmlns="http://www.w3.org/2000/svg">
</g>
</g></svg>
