<?xml version="1.0" encoding="utf-8"?>
<svg version="1.1" id="Layer_1" xmlns="http://www.w3.org/2000/svg" xmlns:xlink="http://www.w3.org/1999/xlink" x="0px" y="0px"
	width="100px" height="100px" viewBox="0 0 100 100" style="enable-background:new 0 0 100 100;" xml:space="preserve">
<g>
	<path style="fill:#E8E8E8;" d="M50,0c27.61,0,50,22.39,50,50s-22.39,50-50,50S0,77.61,0,50S22.39,0,50,0"/>
	<path style="fill:#FFFFFF;" d="M50,1c27.06,0,49,21.94,49,49S77.06,99,50,99S1,77.06,1,50S22.94,1,50,1"/>
	<g>
		<g>
			<path d="M58.94,52.32c-3.85,0-6.99,3.14-6.99,6.99c0,3.85,3.14,6.99,6.99,6.99s6.99-3.14,6.99-6.99
				C65.94,55.46,62.87,52.32,58.94,52.32z M58.94,65.52c-3.38,0-6.13-2.75-6.13-6.13s2.75-6.13,6.13-6.13s6.13,2.75,6.13,6.13
				C65.07,62.77,62.32,65.52,58.94,65.52z"/>
			<path d="M88.96,65.6l-7.54-7.15l7.54-5.27c0.24-0.16,0.24-0.39,0.08-0.63c-0.16-0.24-0.39-0.24-0.63-0.08l-12.5,8.72v-8.41
				c0-0.24-0.24-0.47-0.47-0.47c-0.24,0-0.47,0.24-0.47,0.47v13.12c0,0.24,0.24,0.47,0.47,0.47c0.24,0,0.39-0.24,0.39-0.47v-3.69
				l4.72-3.3l7.78,7.31c0.08,0.08,0.24,0.16,0.31,0.16c0.24,0,0.47-0.16,0.47-0.47C89.12,65.84,89.12,65.68,88.96,65.6"/>
			<path d="M36.47,52.32c-3.85,0-6.99,3.14-6.99,6.99c0,3.85,3.14,6.99,6.99,6.99s6.99-3.14,6.99-6.99
				C43.46,55.46,40.32,52.32,36.47,52.32z M36.47,65.52c-3.38,0-6.13-2.75-6.13-6.13s2.75-6.13,6.13-6.13
				c3.38,0,6.13,2.75,6.13,6.13C42.6,62.77,39.85,65.52,36.47,65.52z"/>
			<path d="M22.32,65.52H11.79V52.79c0-0.24-0.24-0.47-0.47-0.47c-0.24,0-0.47,0.24-0.47,0.47v13.12c0,0.24,0.24,0.47,0.47,0.47h11
				c0.24,0,0.47-0.16,0.47-0.47C22.71,65.68,22.56,65.52,22.32,65.52"/>
		</g>
		<g>
			<path d="M82.44,33.77c-0.16,0-0.31,0.08-0.39,0.24l-4.87,12.1c-1.41-3.54-3.46-8.64-4.87-12.1c-0.08-0.16-0.24-0.24-0.39-0.24
				c-0.16,0-0.31,0.08-0.39,0.24l-4.95,12.1l-4.95-12.1c-0.08-0.16-0.24-0.24-0.39-0.24c-0.24,0-0.47,0.24-0.47,0.47
				c0,0.08,0,0.08,0.08,0.16l5.27,13.12c0.08,0.16,0.24,0.24,0.39,0.24c0.16,0,0.31-0.08,0.39-0.24l4.87-12.1l4.95,12.1
				c0.08,0.16,0.24,0.24,0.39,0.24c0.16,0,0.31-0.08,0.39-0.24l5.27-13.12c0-0.08,0.08-0.08,0.08-0.16
				C82.83,33.93,82.68,33.77,82.44,33.77"/>
			<path d="M30.73,33.69c-0.24,0-0.47,0.16-0.47,0.47v12.02L18,33.93c-0.08-0.08-0.24-0.16-0.31-0.16c-0.24,0-0.47,0.16-0.47,0.47
				v13.12c0,0.24,0.24,0.47,0.47,0.47s0.47-0.24,0.47-0.47V35.19l12.34,12.34c0.08,0.08,0.16,0.16,0.31,0.16
				c0.24,0,0.47-0.24,0.47-0.47V34.16C31.2,33.93,30.97,33.69,30.73,33.69"/>
			<path d="M52.58,34.56c0.24,0,0.47-0.16,0.47-0.47c0-0.24-0.16-0.47-0.47-0.47H41.65c-0.24,0-0.47,0.16-0.47,0.47v13.12
				c0,0.24,0.16,0.47,0.47,0.47h10.92c0.24,0,0.47-0.24,0.47-0.47c0-0.24-0.16-0.47-0.47-0.47H42.13v-5.66h8.33
				c0.24,0,0.47-0.24,0.47-0.47c0-0.24-0.24-0.47-0.47-0.47h-8.33v-5.66h10.45V34.56z"/>
		</g>
	</g>
</g>
</svg>
