<?xml version="1.0" encoding="utf-8"?>
<svg version="1.1" id="Layer_1" xmlns="http://www.w3.org/2000/svg" xmlns:xlink="http://www.w3.org/1999/xlink" x="0px" y="0px"
	width="100px" height="100px" viewBox="0 0 66.7 66.7" style="enable-background:new 0 0 66.7 66.7;" xml:space="preserve">
<g>
	<path d="M33.3,66.7L33.3,66.7C14.9,66.7,0,51.7,0,33.3l0,0C0,14.9,14.9,0,33.3,0l0,0c18.4,0,33.3,14.9,33.3,33.3l0,0
		C66.7,51.7,51.7,66.7,33.3,66.7L33.3,66.7z"/>
	<path style="fill:#FFFFFF;" d="M41.7,49.9c-5.7,5.7-14.8,6-20.9,0.7l-0.1-0.1c-0.4-0.3-0.4-0.9-0.1-1.3c0,0,0,0,0.1-0.1l0,0
		l20.3-20.3c0.4-0.3,1-0.3,1.4,0C47.9,34.9,47.5,44.1,41.7,49.9z M45.9,17.5L25.6,37.8c-0.4,0.3-1,0.3-1.4,0
		c-5.6-6.3-4.9-16,1.4-21.6c5.7-5.1,14.3-5.1,20.1-0.1c0.1,0,0.1,0.1,0.1,0.1c0.3,0.2,0.5,0.7,0.3,1C46.1,17.3,46.1,17.4,45.9,17.5
		C45.9,17.5,45.9,17.5,45.9,17.5z"/>
</g>
</svg>
