<?xml version="1.0" encoding="utf-8"?>
<svg version="1.1" id="Layer_1" xmlns="http://www.w3.org/2000/svg" xmlns:xlink="http://www.w3.org/1999/xlink" x="0px" y="0px"
	width="100px" height="100px" viewBox="0 0 66.7 66.7" style="enable-background:new 0 0 66.7 66.7;" xml:space="preserve">
<g>
	<circle style="fill:#E8E8E8;" cx="33.3" cy="33.3" r="33.3"/>
	<circle style="fill:#FFFFFF;" cx="33.3" cy="33.3" r="32.7"/>
	<path style="fill:#FCCA12;" d="M39.3,33.3l-1.5-15.5l-1.5,15.7C37.3,33.5,38.3,33.3,39.3,33.3"/>
	<path style="fill:#59C247;" d="M43,33.1V17.7h-5.2l0,0l1.5,15.5C40.5,33.2,41.7,33.1,43,33.1"/>
	<path style="fill:#176FC1;" d="M36.3,33.5l1.5-15.7l0,0H24.2v18.7C27.5,35.1,31.6,34.1,36.3,33.5 M31.6,40.5c0.2,0,0.9,0.3,0.9,0.7
		v7.7h2.3v-8.6h-3.1L31.6,40.5 M13.9,40.3v0.3c0.2,0.1,0.9,0.3,0.6,0.8L11.1,49h1.8l1.1-2.4h3.7l0.9,2.4h2.3l-3.3-8.6L13.9,40.3
		L13.9,40.3z M14.4,45.4l1.5-3.4l1.3,3.4H14.4 M48.5,40.3v0.3c0.3,0.1,0.9,0.3,0.7,0.8L45.8,49h1.8l1.1-2.4h3.7l0.9,2.4h2.3
		l-3.3-8.6L48.5,40.3L48.5,40.3z M49.1,45.4l1.5-3.4l1.3,3.4H49.1 M42.5,48.9l3.6-8.6h-1.7l-2.6,6.3l-2.5-6.3h-3.2v0.3
		c0.5,0.1,0.8,0.3,1,0.7l3,7.7L42.5,48.9 M26.8,48.9l3.6-8.6h-1.7l-2.6,6.3l-2.5-6.3h-3.2v0.3c0.3,0.1,0.8,0.3,1,0.7l3,7.7
		L26.8,48.9"/>
</g>
</svg>
