<svg xmlns="http://www.w3.org/2000/svg" xmlns:xlink="http://www.w3.org/1999/xlink" viewBox="0 0 516.4 135.1"><g fill-rule="evenodd"><path d="M125.9 23l5.8-23h-11.6l-5.9 23h11.7m-19.1 29.2h11.7l5.8-23h-11.7zm-7.4 29.3H111l5.9-23h-11.7z" fill="#d5d9de"/><path d="M114.8 0H0v4.9L19.2 23h89.7zM60.6 58.5v3.7l20.3 19.3h13.2l5.8-23zm46.7-29.3H29.7v3.7L50 52.2h51.5z" fill="#0091cd"/><path d="M516.4 17.2l-2 7.4c-.9 3.4-2.5 4.7-6.5 4.7h-11.4c-5.1 0-6.8.3-8.2 1.6-1 1-1.6 2.8-1.6 4.4 0 1.9.8 2.6 3.7 3.5l11.6 3.4c7.9 2.3 10.3 4.8 10.2 10.9s-2.4 15.7-5.9 20.1c-3.3 4.3-7.6 6.2-14.2 6.2h-28.2c-2.2 0-3-1.7-2.7-3.3l3.6-14h1.6c.9 3.2 3 4.1 9.3 4.1h11c4.1 0 6.1-.6 7.3-2.1 1.2-1.3 1.9-3.4 2-5.1.1-2.6-.9-3.3-6.5-4.8l-10.7-2.9c-6.2-1.6-8.9-4.8-8.8-10 .1-4.8 2.2-11.9 4.9-16.5 3.2-5.5 8-7.6 16.6-7.6h24.9zm-274.7-.6c-12.8 0-20 2.8-25.8 10-5.6 7.2-11.2 24.9-11.4 36.2-.1 6.9 2.5 12.3 7.2 14.7 3.2 1.6 8.4 2.4 16.9 2.4 9.2 0 14.9-.8 17.9-2.4 2.2-1.3 2.7-2.2 4.3-8.5l2.3-8.5h-1.4c-3.8 4.4-8.2 6.3-18.8 6.3-5.3 0-8.3-.5-9.7-1.5-1.9-1.2-2.6-3-2.6-5.5 0-1.1.3-2.5.5-3.7l1.1-4.9H249c5.8 0 7.6-.6 8.8-2.8 1.6-3.2 3.2-11 3.3-15.8.4-11.2-5.4-16-19.4-16m4.9 24.2h-21.4c2.8-9.9 6-13 13.9-13 5.9 0 8.7 2.1 8.6 6.6 0 1.8-.2 3.3-1.1 6.4m193-24.2c-12.8 0-20 2.8-25.8 10-5.6 7.2-11.2 24.9-11.3 36.2-.1 6.9 2.4 12.3 7.2 14.7 3.2 1.6 8.4 2.4 16.9 2.4 9.2 0 14.9-.8 17.9-2.4 2.2-1.3 2.7-2.2 4.3-8.5l2.2-8.5h-1.4c-3.8 4.4-8.2 6.3-18.8 6.3-5.3 0-8.3-.5-9.7-1.5-1.8-1.2-2.6-3-2.6-5.5 0-1.1.3-2.5.5-3.7l1.1-4.9H447c5.8 0 7.6-.6 8.8-2.8 1.6-3.2 3.3-11 3.3-15.8.4-11.2-5.5-16-19.5-16m4.9 24.2h-21.4c2.8-9.9 6-13 13.9-13 5.9 0 8.7 2.1 8.6 6.6.1 1.8-.2 3.3-1.1 6.4M313.7 17.2l-2.1 8.2c-.9 3.4-2.4 4.4-7.1 4.4h-6.1c-6.6 0-8.7 1.8-10.5 9.3l-8.6 33.2c-.4 1.5-.6 2.8-.7 3.4 0 1.3.7 2 2.1 2.5l-.3 1.3h-15.3c-2.2 0-3-1.7-2.7-3.3l13.8-53.9c.1-.3.2-.8.3-1.3 0-1.3-.7-2-2.1-2.4l.4-1.3H290c2.2 0 3 1.7 2.7 3.3l-1.5 5.6 4.5-6.1c1.9-2.7 2.3-2.8 6.1-2.8h11.9v-.1zM207 4.8l-17.2 66.7c-.6 2.4-1.5 5.4 1.5 6.3-.2.5-.3 1-.5 1.5h-17.1c-2.2 0-3-1.7-2.7-3.3l8.7-33.5h-23.4l-7.4 28.9c-.4 1.5-.7 2.8-.7 3.5 0 1.4.7 2.3 2 2.8-.1.5-.2 1-.4 1.5H133c-2.2 0-3-1.7-2.7-3.3l17.2-66.7C148 6.8 149 4 146 3c.1-.5.3-1.1.4-1.6h17.2c2.2 0 3 1.7 2.7 3.3L159.8 30H183l5.4-20.8c.4-1.6.6-2.7.6-3.5 0-1.4-.7-2.2-2.2-2.7.1-.5.3-1.1.4-1.6h17.2c2.1.1 2.9 1.8 2.6 3.4m180.3 11.9h-8.2c-4.3 0-6.6.9-9.4 5.1l-3.1 4.8c.3-4.9-2.4-9.9-10.6-9.9h-7.6c-6.4 0-7.9 2.7-9.5 4.6l-3.6 4.8 1.5-5.6c.3-1.6-.5-3.3-2.7-3.3h-15.3l-.3 1.3c1.4.5 2 1.2 2 2.4 0 .5 0 .9-.2 1.3l-13.7 53.9c-.3 1.6.5 3.3 2.7 3.3h15.3l.4-1.3c-1.5-.5-2.1-1.2-2.1-2.5 0-.6.3-1.9.6-3.4l8.6-33c2-8.3 4.3-9.3 8.7-9.8.9-.1 1.7-.1 3.1-.1 4.4 0 5.6 2.6 5 5.6-.4 1.7-10.5 41.1-10.5 41.1-.3 1.6.5 3.3 2.7 3.3h15.3l.4-1.3c-1.4-.5-2.1-1.2-2-2.5 0-.6.3-1.9.6-3.4l8.6-33c2.2-8.2 4.4-9.3 8.8-9.8.9-.1 1.7-.1 3.2-.1 4.4 0 5.6 2.6 5 5.6-.1.5-10.4 41.1-10.4 41.1-.3 1.6.5 3.3 2.7 3.3h15.3l.4-1.3c-1.5-.5-2.1-1.2-2.1-2.5 0-.6.3-1.9.7-3.4l10.7-43.2c.9-3.5.8-12.1-11-12.1" fill="#3a4344"/></g><g fill="#41494a"><path d="M126.8 120.1c-.1.4-.1.7-.1 1 0 2.3 1.8 2.8 4.1 2.8.6 0 1 0 1.7-.1l-.4 2.5c-.6.1-1.3.2-2.1.2-3.1 0-6.1-1.1-6.1-5 0-.4 0-.9.1-1.5l1.6-9.4H121l.7-2.6h4.3l.9-5.3h2.9l-.9 5.3h5.7l-.7 2.6h-5.4l-1.7 9.5zm26.6-6.4c0 .6-.1 1.2-.2 2l-1.8 10.3h-2.9l1.8-10.4c.1-.6.2-1 .2-1.5 0-2.4-1.6-3.8-4-3.8-2.7 0-4.9 1.6-5.4 4.5l-1.9 11.2h-2.9l4.9-28.2h2.9l-2 11.8a7.54 7.54 0 0 1 5.1-2c3.8.1 6.2 2.6 6.2 6.1zm19.5 4.3h-14.3c.2 3.6 2.7 5.8 6.3 5.8 2.3 0 4-.9 5.6-2.2l1.5 2a10.63 10.63 0 0 1-7.3 2.9c-5.3 0-9-3.8-9-8.8 0-5.4 4.4-10 9.9-10 4.5 0 7.8 3.1 7.8 7.6 0 1.2-.2 2.1-.5 2.7zm-14-2.5h11.6v-.3c0-3.1-2.2-4.8-5.1-4.8-3.2-.1-5.7 2-6.5 5.1z"/><use xlink:href="#A"/><path d="M227.3 113.7c0 .6-.1 1.2-.2 1.9l-1.8 10.5h-2.7l.3-1.9c-1.5 1.4-3.6 2.3-5.9 2.3-3 0-6.1-1.5-6.1-4.8 0-2.7 2-5.4 7.4-5.4h5.8l.1-.6c.1-.7.1-1.2.1-1.6 0-2.5-1.8-3.6-4.2-3.6-2.3 0-3.8 1-5.3 2.3l-1.4-2.1c2.1-1.9 4.4-2.8 7.1-2.8 3.8-.2 6.8 1.7 6.8 5.8zm-3.8 6.1l.2-1.2h-5.3c-3.2 0-4.5 1.1-4.5 2.7 0 2.1 2 2.8 3.8 2.8 3 0 5.4-2 5.8-4.3zm20.7-11.6l-.4 2.5-1.6-.2c-2.7 0-5.4 1.7-6 5.1l-1.8 10.4h-2.9l3.1-18h2.7l-.3 2c1.5-1.5 3.4-2.2 5.4-2.2.5.1 1.1.1 1.8.4zm18.7 3.8l-2.2 1.5c-1.2-1.9-3.1-3.2-5.5-3.2-3.9 0-7.1 3.1-7.1 7.2 0 3.6 2.6 6.3 6.2 6.3 2.3 0 4.3-1.1 5.5-2.6l1.9 1.6c-1.8 2.3-4.4 3.6-7.5 3.6-5.1 0-9-3.7-9-8.8 0-5.6 4.6-10 10.1-10 3.4.1 6.1 1.8 7.6 4.4zm20.4 6H269c.2 3.6 2.7 5.8 6.4 5.8 2.3 0 4-.9 5.6-2.2l1.5 2a10.63 10.63 0 0 1-7.3 2.9c-5.3 0-9-3.8-9-8.8 0-5.4 4.4-10 9.9-10 4.5 0 7.8 3.1 7.8 7.6-.2 1.2-.4 2.1-.6 2.7zm-14.1-2.5h11.6v-.3c0-3.1-2.2-4.8-5.1-4.8-3.1-.1-5.7 2-6.5 5.1zm20.6 10.5h-2.9l4.9-28.2h2.9l-4.9 28.2z"/><use xlink:href="#A" x="118.5"/><path d="M347.7 118h-14.3c.2 3.6 2.7 5.8 6.4 5.8 2.3 0 4-.9 5.6-2.2l1.5 2a10.63 10.63 0 0 1-7.3 2.9c-5.3 0-9-3.8-9-8.8 0-5.4 4.4-10 9.9-10 4.5 0 7.8 3.1 7.8 7.6-.2 1.2-.4 2.1-.6 2.7zm-14.1-2.5h11.6v-.3c0-3.1-2.2-4.8-5.1-4.8-3.1-.1-5.7 2-6.5 5.1zm37.1 1.1c0 5.5-4.7 9.8-10.2 9.8-5.2 0-9-3.9-9-8.9 0-5.5 4.7-9.9 10.1-9.9 5.2.1 9.1 4 9.1 9zm-16.2 1c0 3.6 2.6 6.2 6.2 6.2a7.13 7.13 0 0 0 7.1-7.1c0-3.6-2.7-6.3-6.2-6.3-4-.1-7.1 3.2-7.1 7.2zm39.8-1.3c0 4.8-3.5 10.1-9.7 10.1-3.5 0-5.9-1.7-7-3.7l-1.8 10.1H373l4.3-24.7h2.7l-.4 2.6c1.6-2 4.1-3 6.6-3 4.9 0 8.1 3.9 8.1 8.6zm-2.9.3c0-3.3-2.3-6.2-6.1-6.2-4.6 0-6.9 4.3-6.9 7.7 0 3.6 2.7 5.8 5.9 5.8 4.1-.1 7.1-3.5 7.1-7.3zm9.3 9.4h-2.9l4.9-28.2h2.9l-4.9 28.2zm23.7-8h-14.3c.2 3.6 2.7 5.8 6.4 5.8 2.3 0 4-.9 5.6-2.2l1.5 2a10.63 10.63 0 0 1-7.3 2.9c-5.3 0-9-3.8-9-8.8 0-5.4 4.4-10 9.9-10 4.5 0 7.8 3.1 7.8 7.6-.1 1.2-.3 2.1-.6 2.7zm-14-2.5H422v-.3c0-3.1-2.2-4.8-5.1-4.8-3.1-.1-5.7 2-6.5 5.1z"/></g><defs><path id="A" d="M208.2 116.3c0 4.8-3.5 10.1-9.8 10.1-3.5 0-5.9-1.7-7-3.7l-1.8 10.1h-2.9l4.3-24.7h2.7l-.4 2.6c1.6-2 4.1-3 6.6-3 5 0 8.3 3.9 8.3 8.6zm-2.9.3c0-3.3-2.3-6.2-6.1-6.2-4.6 0-6.9 4.3-6.9 7.7 0 3.6 2.7 5.8 5.9 5.8 4.1-.1 7.1-3.5 7.1-7.3z"/></defs></svg>