<?xml version="1.0"?>
<svg xmlns="http://www.w3.org/2000/svg" xmlns:xlink="http://www.w3.org/1999/xlink" xmlns:svgjs="http://svgjs.com/svgjs" version="1.1" width="512" height="512" x="0" y="0" viewBox="0 0 512 512" style="enable-background:new 0 0 512 512" xml:space="preserve" class=""><g><g xmlns="http://www.w3.org/2000/svg"><g><g><g><g><g><g><g><g><circle cx="256" cy="256" fill="#f1f1f1" r="256" data-original="#a3d4ff" style="" class=""/></g></g></g></g></g></g></g></g><path d="m512 256c0-9.893-.561-19.654-1.653-29.255l-164.746-164.745-79.24 19.554-87.248 376.271 53.083 53.083c7.838.723 15.778 1.092 23.804 1.092 141.385 0 256-114.615 256-256z" fill="#f1f1f1" data-original="#65b1fc" style="" class=""/><g><path d="m271 180.251h-30v-118.251h104.601v30h-74.601z" fill="#f2f6fc" data-original="#f2f6fc" style=""/></g><g><path d="m200.789 128.125h110.421v52.127h-110.421z" fill="#ffffff" data-original="#ffffff" style="" class=""/></g><g><path d="m256.12 128.125h55.09v52.127h-55.09z" fill="#e9edf5" data-original="#e9edf5" style="" class=""/></g><g><path d="m179.113 169.826h153.773v287.999h-153.773z" fill="#fe6a16" data-original="#fe6a16" style="" class=""/></g><g><path d="m256.12 169.826h76.766v287.999h-76.766z" fill="#f24500" data-original="#f24500" style="" class=""/></g><g><g><path d="m195.737 195.876h42.924v30h-42.924z" fill="#e9edf5" data-original="#e9edf5" style="" class=""/></g><g><path d="m195.737 246.047h42.924v30h-42.924z" fill="#e9edf5" data-original="#e9edf5" style="" class=""/></g><g><path d="m195.737 296.219h42.924v30h-42.924z" fill="#e9edf5" data-original="#e9edf5" style="" class=""/></g><g><path d="m195.737 346.391h42.924v30h-42.924z" fill="#e9edf5" data-original="#e9edf5" style="" class=""/></g><g><path d="m195.737 396.563h42.924v30h-42.924z" fill="#e9edf5" data-original="#e9edf5" style="" class=""/></g></g></g></g></svg>
