<svg xmlns="http://www.w3.org/2000/svg" viewBox="0 0 223.1 59.8" fill="#00bbb4" xmlns:v="https://vecta.io/nano"><path d="M122.8 23.1c1.7 0 3-1.3 3-3V20a3.099 3.099 0 0 0-6.1-1.1c-.1.4-.1.7 0 1.1-.1 1.7 1.2 3 2.9 3.1h.2M116 44.8V17.3h-4.9v27.5h4.9zm75.9.4c5.6 0 9.7-4 9.7-9.9s-4.1-9.9-9.7-9.9-9.6 4-9.6 9.9 4.1 9.9 9.6 9.9m-34.6 0c2.7 0 5.3-.7 7.6-2.2l-1.9-4.2c-1.8.9-3.7 1.5-5.7 1.5-2.5 0-4.3-1-5.1-2.9h13.7c.1-.7.2-1.5.2-2.2 0-5.9-4.1-9.8-9.5-9.8s-9.5 3.9-9.5 9.9 4 9.9 10.2 9.9m65.8-9.9c0-5.9-4.1-9.9-9.6-9.9s-9.6 4-9.6 9.9 4.1 9.9 9.6 9.9 9.6-4 9.6-9.9m-124 9.8c2.7 0 5.3-.7 7.6-2.1l-1.8-4.2c-1.8.9-3.7 1.4-5.7 1.4-2.6 0-4.3-1-5.1-2.8h13.7c.1-.8.2-1.5.2-2.3 0-5.9-4.1-9.8-9.5-9.8s-9.5 4-9.5 9.9 4 9.9 10.1 9.9m26.1-.3v-19h-4.9v19h4.9zm7.7 0h7.8l5.1-19h-5.3l-3.8 15.4-3.7-15.4h-5.2l5.1 19zm23.7-14.6c2.5 0 4.2 1.2 4.7 3.3h-9.4c.5-2.1 2.5-3.5 4.7-3.3m-58.2 0c2.5 0 4.2 1.2 4.7 3.3h-9.4c.5-2.1 2.5-3.5 4.7-3.3m115.1 9.9c-2.5.2-4.7-1.8-4.9-4.3v-.5a4.91 4.91 0 0 1 4.9-4.9 4.91 4.91 0 0 1 4.9 4.9c.1 2.5-1.8 4.7-4.4 4.8h-.5M71.1 35.3c-.1-2.5 1.8-4.7 4.4-4.8h.5c2.5-.2 4.7 1.6 4.9 4.1v.7c.1 2.5-1.8 4.7-4.4 4.8H76c-2.5.2-4.7-1.8-4.9-4.3v-.5m120.8 4.8c-2.5.2-4.7-1.8-4.9-4.3v-.5c-.1-2.5 1.8-4.7 4.4-4.8h.5c2.5-.2 4.7 1.6 4.9 4.1v.7c.1 2.5-1.8 4.7-4.4 4.8h-.5m-14.2-9.5c1 0 1.9.3 2.7.9l2.3-5.2c-1-.7-2.3-1-3.5-1-2.1 0-4.1 1.1-5.2 2.9l-.5-2.4h-5l.8 3.7v15.3h4.9V32.7c.6-1.3 2-2.2 3.5-2.1M81.5 44.8h5.1l-.9-4V17.3h-4.8V28c-1.5-1.7-3.6-2.7-5.9-2.6-4.9 0-8.6 4-8.6 9.9s3.7 9.9 8.6 9.9a7.79 7.79 0 0 0 6-2.8l.5 2.4zm-43.3-5.3c-.6.9-2.1 1.1-3.5.4s-1-1.7-.9-2.5c0-.4.2-.8.5-1.1.4-.5.9-.9 1.6-1 1-.1 2.1.4 2.6 1.3.4 1 .3 2-.3 2.9m-11-1.3c-.8.8-1.8.7-2.9.3s-1.5-1.6-1.1-3.2 1.7-1.4 2.4-1.4l.8.2a2.32 2.32 0 0 1 1.7 2.8c-.1.5-.5 1-.9 1.3M39.2 0l-2.8 26.4-4.8-22.3-14.9 3.2 4.8 22.2L0 34.1l3.8 17.7 37.8 8 8.6-19.3 4.1-38.9L39.2 0z"/></svg>