<svg xmlns="http://www.w3.org/2000/svg" viewBox="0 0 385.1 141.4"><path fill="#26358c" d="M314.4 0c-26 0-48.6 14-60.9 34.8 6.2 10.5 9.8 22.8 9.8 35.8 0 13.1-3.6 25.3-9.8 35.8 12.3 20.9 35 34.9 60.9 34.9 39 0 70.7-31.6 70.7-70.7 0-39-31.7-70.6-70.7-70.6z"/><path fill="#0068b3" d="M253.5 34.8C241.2 14 218.5 0 192.5 0s-48.6 14-60.9 34.8c6.2 10.5 9.8 22.8 9.8 35.8 0 13.1-3.6 25.3-9.8 35.8 12.3 20.9 35 34.9 60.9 34.9 26 0 48.6-14 60.9-34.9-6.2-10.5-9.8-22.8-9.8-35.8.1-13 3.7-25.2 9.9-35.8z"/><path fill="#36bcee" d="M131.6 34.8C119.3 14 96.6 0 70.7 0 31.6 0 0 31.6 0 70.7c0 39 31.6 70.7 70.7 70.7 26 0 48.6-14 60.9-34.9-6.2-10.5-9.8-22.8-9.8-35.8.1-13.1 3.6-25.3 9.8-35.9z"/><g fill="#005c9e"><path d="M131.6 106.5c6.2-10.5 9.8-22.8 9.8-35.8 0-13.1-3.6-25.3-9.8-35.8-6.2 10.5-9.8 22.8-9.8 35.8.1 13.1 3.6 25.3 9.8 35.8z"/><path d="M131.6 106.5h0c-6.4-10.8-9.8-23.2-9.8-35.8s3.4-25 9.8-35.8h0 0c6.4 10.8 9.8 23.2 9.8 35.8s-3.4 25-9.8 35.8h0zm0-71.6c-6.4 10.8-9.8 23.2-9.8 35.8s3.4 25 9.8 35.8c6.4-10.8 9.8-23.2 9.8-35.8s-3.4-25-9.8-35.8z"/></g><path fill="#002f60" d="M253.5 106.5c6.2-10.5 9.8-22.7 9.8-35.8s-3.6-25.3-9.8-35.8c-6.2 10.5-9.8 22.8-9.8 35.8 0 13.1 3.6 25.3 9.8 35.8z"/><path d="M97.3 46H76.7v63H62.5V46H42.4V33.1h54.9V46h0zm192.5-12.9h26.6c10.1.1 12.8.2 16.4 1.3 7.6 2.3 13 9 13 17.3 0 3.3-.7 7.4-2.9 10.3-2.4 3.1-5.4 4.7-9.5 5.5 8.4 1.5 15.7 8.3 15.7 20 0 8.7-3.9 16.4-13 19.7-4.8 1.7-8.6 1.8-17.2 1.8h-29.1V33.1zm14 11.6v18.9h4.4l8.6-.1c3.5 0 7.1-.1 9.7-1.5 3-1.5 5-4.4 5-7.9 0-2.9-1.5-5.8-4.4-7.5-3-1.7-4.5-1.8-14.8-1.9h-8.5zm0 29.6v22.5h13.5c8.4 0 10.6 0 14.3-2.6 1.9-1.4 3.4-4.3 3.4-7.9 0-1.7-.3-3.8-1.4-5.7-3.4-6.1-11.4-6.2-16.2-6.2l-13.6-.1h0zM199.8 64l-7.8-1.7c-6.8-1.3-13.9-2.6-13.9-9 0-5.8 6.6-9.2 14.2-9.2 11.4 0 16.4 6.7 19.1 10.6l11.2-8.9c-5.4-7.1-13.8-14.3-29.5-14.3-17.7 0-29.8 9.2-29.8 23.5 0 12.5 9.3 17.1 12.7 18.4 2.3 1 4.7 1.5 9.5 2.7l9.1 1.9c6.8 1.6 7 1.7 8.8 2.3 2.3 1 5.7 2.7 5.7 7.5 0 2.6-1 6.4-6.4 8.6-2.7 1.1-5.4 1.3-8.1 1.3-15.1 0-20.9-7.8-23-10.9L160 95.5c5.7 8.7 13.9 11.9 18.8 13.4 4.6 1.3 9.3 1.7 13.4 1.7 16 0 32-6.9 32-24.2.1-16.1-14.2-20.3-24.4-22.4z" fill="#fff"/></svg>