<?xml version="1.0"?>
<svg xmlns="http://www.w3.org/2000/svg" xmlns:xlink="http://www.w3.org/1999/xlink" xmlns:svgjs="http://svgjs.com/svgjs" version="1.1" width="512" height="512" x="0" y="0" viewBox="0 0 512 512" style="enable-background:new 0 0 512 512" xml:space="preserve" class=""><g><path xmlns="http://www.w3.org/2000/svg" d="m512 256c0 141.386719-114.613281 256-256 256s-256-114.613281-256-256 114.613281-256 256-256 256 114.613281 256 256zm0 0" fill="#f1f1f1" data-original="#0a77e8" style="" class=""/><path xmlns="http://www.w3.org/2000/svg" d="m512 256c0-7.019531-.292969-13.972656-.847656-20.847656l-117.152344-117.152344-46.210938 19-18.476562-19-211.3125 276 117.152344 117.152344c6.875.554687 13.828125.847656 20.847656.847656 141.386719 0 256-114.613281 256-256zm0 0" fill="#f1f1f1" data-original="#085aae" style="" class=""/><path xmlns="http://www.w3.org/2000/svg" d="m223.65625 190.773438-32.34375 101.613281 32.34375 101.613281h105.65625v-203.226562zm0 0" fill="#0f9af0" data-original="#0f9af0" style="" class=""/><path xmlns="http://www.w3.org/2000/svg" d="m118 190.773438h105.65625v203.226562h-105.65625zm0 0" fill="#18e0ff" data-original="#18e0ff" style="" class=""/><path xmlns="http://www.w3.org/2000/svg" d="m118 118h105.65625v72.773438h-105.65625zm0 0" fill="#b2f5ff" data-original="#b2f5ff" style="" class=""/><path xmlns="http://www.w3.org/2000/svg" d="m223.65625 118h105.65625v72.773438h-105.65625zm0 0" fill="#18e0ff" data-original="#18e0ff" style="" class=""/><path xmlns="http://www.w3.org/2000/svg" d="m223.65625 365.699219c40.488281 0 73.3125-32.824219 73.3125-73.3125l-105.65625-21.5625zm0 0" fill="#163f69" data-original="#163f69" style="" class=""/><path xmlns="http://www.w3.org/2000/svg" d="m223.65625 219.074219-32.34375 73.3125h105.65625c0-40.488281-32.824219-73.3125-73.3125-73.3125zm0 0" fill="#f1f1f1" data-original="#0a77e8" style="" class=""/><path xmlns="http://www.w3.org/2000/svg" d="m150.34375 292.386719c0 40.488281 32.824219 73.3125 73.3125 73.3125v-146.625c-40.488281 0-73.3125 32.824219-73.3125 73.3125zm0 0" fill="#f1f1f1" data-original="#0a77e8" style="" class=""/><path xmlns="http://www.w3.org/2000/svg" d="m223.65625 251.417969-18.074219 40.96875 18.074219 40.96875c22.625 0 40.96875-18.339844 40.96875-40.96875 0-22.625-18.34375-40.96875-40.96875-40.96875zm0 0" fill="#b2f5ff" data-original="#b2f5ff" style="" class=""/><path xmlns="http://www.w3.org/2000/svg" d="m182.6875 292.386719c0 22.625 18.34375 40.96875 40.96875 40.96875v-81.9375c-22.625 0-40.96875 18.34375-40.96875 40.96875zm0 0" fill="#ffffff" data-original="#ffffff" style=""/><path xmlns="http://www.w3.org/2000/svg" d="m296.96875 146.300781h-73.3125l-10.78125 8.085938 10.78125 8.085937h73.3125zm0 0" fill="#163f69" data-original="#163f69" style="" class=""/><path xmlns="http://www.w3.org/2000/svg" d="m198.859375 146.300781h24.796875v16.171875h-24.796875zm0 0" fill="#f1f1f1" data-original="#0a77e8" style="" class=""/><path xmlns="http://www.w3.org/2000/svg" d="m150.34375 146.300781h32.34375v16.171875h-32.34375zm0 0" fill="#0f9af0" data-original="#0f9af0" style="" class=""/><path xmlns="http://www.w3.org/2000/svg" d="m370.488281 172.578125h12.777344v105.980469h-12.777344zm0 0" fill="#828282" data-original="#828282" style=""/><path xmlns="http://www.w3.org/2000/svg" d="m358.207031 172.578125h12.777344v105.980469h-12.777344zm0 0" fill="#a1a1a1" data-original="#a1a1a1" style=""/><path xmlns="http://www.w3.org/2000/svg" d="m394 171.289062-22.738281 23.140626-.042969-.042969-12.773438-38.171875 12.773438-38.214844h22.78125zm0 0" fill="#828282" data-original="#828282" style=""/><path xmlns="http://www.w3.org/2000/svg" d="m347.847656 171.253906-.089844-53.253906h23.222657v76.386719zm0 0" fill="#a1a1a1" data-original="#a1a1a1" style=""/><path xmlns="http://www.w3.org/2000/svg" d="m393.457031 370.835938c0 12.679687-10.316406 22.996093-22.996093 22.996093l-12.773438-64.019531 12.773438-71.878906h22.996093zm0 0" fill="#ff3cad" data-original="#ff3cad" style="" class=""/><path xmlns="http://www.w3.org/2000/svg" d="m347.464844 370.835938v-112.902344h22.996094v135.898437c-12.679688 0-22.996094-10.316406-22.996094-22.996093zm0 0" fill="#fe6192" data-original="#fe6192" style="" class=""/></g></svg>
