<?xml version="1.0" encoding="utf-8"?>
<svg version="1.1" id="Layer_1" xmlns="http://www.w3.org/2000/svg" xmlns:xlink="http://www.w3.org/1999/xlink" x="0px" y="0px"
	 viewBox="0 0 400 122.84" style="enable-background:new 0 0 400 122.84;" xml:space="preserve">
<g id="layer1" transform="translate(-249.85629,-460.69366)">
	<g id="g3130" transform="translate(20,10.000498)">
		<path id="path2489" style="fill-rule:evenodd;clip-rule:evenodd;fill:#E72024;" d="M324.71,537.2
			c-5.23,20.93-24.22,36.31-46.78,36.33c-26.56-0.02-48.11-21.57-48.07-48.17c-0.05-26.59,21.5-48.13,48.07-48.12
			c22.46-0.01,41.4,15.62,46.78,36.37h-19.55c-4.47-10.36-14.82-17.56-26.82-17.52c-16.21-0.05-29.34,13.06-29.34,29.27
			c0,16.21,13.13,29.34,29.34,29.34c12,0,22.34-7.2,26.82-17.5"/>
		<path id="path2491" style="fill-rule:evenodd;clip-rule:evenodd;fill:#E72024;" d="M376.23,477.24
			c-26.55-0.03-48.12,21.53-48.19,48.09c0.07,26.63,21.64,48.17,48.19,48.18c26.63-0.02,48.17-21.55,48.22-48.18
			C424.4,498.77,402.86,477.2,376.23,477.24 M376.23,554.39c-16.01,0.03-29.03-13-29.03-29.06c0-16.01,13.02-29.03,29.03-29.06
			c16.07,0.03,29.09,13.05,29.09,29.06C405.32,541.39,392.3,554.42,376.23,554.39"/>
		<path id="path2493" style="fill:#E72024;" d="M430.53,450.69v122.81h21.13V450.69H430.53z"/>
		<path id="path2495" style="fill-rule:evenodd;clip-rule:evenodd;fill:#E72024;" d="M507.22,555.01
			c-14.78-0.04-27.1-10.91-27.12-24.01c0.02-0.47,0.06-0.95,0.11-1.4h69.25c0.03-38.18-19.7-52.54-43.97-52.54
			c-18.72,0-45.78,12.03-45.73,47.76c-0.05,29.59,21.43,48.7,45.73,48.68c20.93,0.02,38.67-12.62,43.03-33.49h-19.43
			C526.09,549.52,517.63,554.96,507.22,555.01 M505.18,494.05c12.19,0,22.28,8.51,23.78,19.25l-47.12-0.11l-0.5,0.23
			C482.7,502.52,492.86,494.05,505.18,494.05"/>
		<path id="path2497" style="fill-rule:evenodd;clip-rule:evenodd;fill:#E72024;" d="M608.77,507.51h18.31
			c0,0,0.82-16.38-12.85-24.59c0,0-6.47-5.88-24.5-5.85c0,0-18.17-0.23-26.44,7.99c0,0-8.56,6.46-8.6,19.13
			c0,0-1.5,12.19,10.45,19.85c0,0,9.75,4.64,19.15,7.38c0,0,15.25,4.14,17.8,5.68c0,0,13.11,6.05,5.26,13.68
			c0,0-3.5,4.92-15.38,4.94c0,0-20.79,0.73-20.77-15.08h-18.61c0,0-1.76,16.83,12.55,26.2c0,0,9.16,6.25,26.92,6.08
			c0,0,17.07-0.2,26.14-6.7c0,0,11.67-8.39,11.64-22.68c0,0,1.4-14.67-17.01-22.84c0,0-18.59-6.29-23.32-7.53
			c0,0-18.33-4.05-14.67-13.25c0,0,0.85-6.26,15.51-6.26c0,0,10.38-0.19,14.9,5.66C605.24,499.33,608.35,502.88,608.77,507.51"/>
	</g>
</g>
</svg>
