<?xml version="1.0"?>
<svg xmlns="http://www.w3.org/2000/svg" xmlns:xlink="http://www.w3.org/1999/xlink" xmlns:svgjs="http://svgjs.com/svgjs" version="1.1" width="512" height="512" x="0" y="0" viewBox="0 0 512 512" style="enable-background:new 0 0 512 512" xml:space="preserve" class=""><g><circle xmlns="http://www.w3.org/2000/svg" cx="256" cy="256" fill="#f1f1f1" r="256" data-original="#fdba12" style="" class=""/><path xmlns="http://www.w3.org/2000/svg" d="m512 256c0-14.54-1.212-28.796-3.541-42.675l-91.037-91.037-20.665 40.468-93.757-93.756-207.068 278.581 76.805 76.805-5.44 4.068 83.493 83.493c1.733.035 3.469.052 5.21.052 141.385.001 256-114.614 256-255.999z" fill="#f1f1f1" data-original="#ff8b00" style="" class=""/><path xmlns="http://www.w3.org/2000/svg" d="m334.333 420.333h-156.666l20-101.333h116.666z" fill="#e9edf5" data-original="#e9edf5" style=""/><path xmlns="http://www.w3.org/2000/svg" d="m314.333 319h-58.738v101.333h78.738z" fill="#cdd2e1" data-original="#cdd2e1" style=""/><path xmlns="http://www.w3.org/2000/svg" d="m395.788 356.333h-279.576c-15.407 0-27.897-12.49-27.897-27.897v-188.539c0-15.407 12.49-27.897 27.897-27.897h279.575c15.407 0 27.897 12.49 27.897 27.897v188.539c.001 15.407-12.489 27.897-27.896 27.897z" fill="#ffffff" data-original="#ffffff" style=""/><path xmlns="http://www.w3.org/2000/svg" d="m395.788 112h-140.193v244.333h140.192c15.407 0 27.897-12.49 27.897-27.897v-188.539c.001-15.407-12.489-27.897-27.896-27.897z" fill="#e9edf5" data-original="#e9edf5" style=""/><path xmlns="http://www.w3.org/2000/svg" d="m405.449 144.438c0-7.654-6.204-13.858-13.858-13.858h-271.182c-7.654 0-13.858 6.204-13.858 13.858v150.891h298.898z" fill="#4a7aff" data-original="#4a7aff" style=""/><path xmlns="http://www.w3.org/2000/svg" d="m405.449 144.438c0-7.654-6.204-13.858-13.858-13.858h-135.996v164.749h149.854z" fill="#0053bf" data-original="#0053bf" style=""/><circle xmlns="http://www.w3.org/2000/svg" cx="256" cy="323" fill="#e9edf5" r="12.333" data-original="#e9edf5" style=""/><path xmlns="http://www.w3.org/2000/svg" d="m256 310.667c-.137 0-.269.016-.405.021v24.626c.135.004.268.021.405.021 6.812 0 12.333-5.522 12.333-12.333s-5.521-12.335-12.333-12.335z" fill="#cdd2e1" data-original="#cdd2e1" style=""/><path xmlns="http://www.w3.org/2000/svg" d="m333.988 431.822h-155.976c-10.355 0-18.749-8.394-18.749-18.749 0-10.355 8.394-18.749 18.749-18.749h155.977c10.355 0 18.749 8.394 18.749 18.749-.001 10.354-8.395 18.749-18.75 18.749z" fill="#f2f6fc" data-original="#f2f6fc" style="" class=""/><path xmlns="http://www.w3.org/2000/svg" d="m333.988 394.324h-78.393v37.498h78.393c10.355 0 18.749-8.395 18.749-18.749 0-10.355-8.394-18.749-18.749-18.749z" fill="#dce1eb" data-original="#dce1eb" style=""/><path xmlns="http://www.w3.org/2000/svg" d="m207 69h96v181h-96z" fill="#414952" data-original="#414952" style="" class=""/><path xmlns="http://www.w3.org/2000/svg" d="m255.595 69h47.405v181h-47.405z" fill="#23272b" data-original="#23272b" style=""/><path xmlns="http://www.w3.org/2000/svg" d="m159.854 202.854h39.292v47.146h-39.292z" fill="#ff9500" data-original="#ff9500" style=""/><path xmlns="http://www.w3.org/2000/svg" d="m178.81 202.854h20.337v47.146h-20.337z" fill="#fe6a16" data-original="#fe6a16" style=""/><path xmlns="http://www.w3.org/2000/svg" d="m217.833 83.75h34.5v34.5h-34.5z" fill="#707789" data-original="#707789" style="" class=""/><path xmlns="http://www.w3.org/2000/svg" d="m257.667 83.75h34.5v34.5h-34.5z" fill="#555a66" data-original="#555a66" style=""/><path xmlns="http://www.w3.org/2000/svg" d="m217.833 132.5h34.5v34.5h-34.5z" fill="#707789" data-original="#707789" style="" class=""/><path xmlns="http://www.w3.org/2000/svg" d="m257.667 132.5h34.5v34.5h-34.5z" fill="#555a66" data-original="#555a66" style=""/><path xmlns="http://www.w3.org/2000/svg" d="m217.833 181.25h34.5v34.5h-34.5z" fill="#707789" data-original="#707789" style="" class=""/><path xmlns="http://www.w3.org/2000/svg" d="m257.667 181.25h34.5v34.5h-34.5z" fill="#555a66" data-original="#555a66" style=""/><path xmlns="http://www.w3.org/2000/svg" d="m281 117.152h96v132.848h-96z" fill="#bec3d2" data-original="#bec3d2" style="" class=""/><path xmlns="http://www.w3.org/2000/svg" d="m328.81 117.152h48.19v132.848h-48.19z" fill="#9196aa" data-original="#9196aa" style="" class=""/><ellipse xmlns="http://www.w3.org/2000/svg" cx="179.5" cy="162" fill="#00c8c8" rx="61.333" ry="61" data-original="#00c8c8" style=""/><path xmlns="http://www.w3.org/2000/svg" d="m179.5 101c-.231 0-.459.015-.69.017v121.965c.231.003.459.018.69.018 33.874 0 61.333-27.311 61.333-61s-27.459-61-61.333-61z" fill="#00a0aa" data-original="#00a0aa" style=""/><path xmlns="http://www.w3.org/2000/svg" d="m291.833 132.5h34.5v34.5h-34.5z" fill="#414952" data-original="#414952" style="" class=""/><path xmlns="http://www.w3.org/2000/svg" d="m331.667 132.5h34.5v34.5h-34.5z" fill="#23272b" data-original="#23272b" style=""/><path xmlns="http://www.w3.org/2000/svg" d="m291.833 178.454h34.5v34.5h-34.5z" fill="#414952" data-original="#414952" style="" class=""/><path xmlns="http://www.w3.org/2000/svg" d="m331.667 178.454h34.5v34.5h-34.5z" fill="#23272b" data-original="#23272b" style=""/><path xmlns="http://www.w3.org/2000/svg" d="m405.449 250.047c0-2.297-6.204-4.159-13.858-4.159h-271.182c-7.654 0-13.858 1.862-13.858 4.159v45.281h298.898z" fill="#0053bf" data-original="#0053bf" style=""/><path xmlns="http://www.w3.org/2000/svg" d="m405.449 250.047c0-2.297-6.204-4.159-13.858-4.159h-135.996v49.44h149.854z" fill="#1b3b6b" data-original="#1b3b6b" style=""/></g></svg>
