<?xml version="1.0"?>
<svg xmlns="http://www.w3.org/2000/svg" xmlns:xlink="http://www.w3.org/1999/xlink" xmlns:svgjs="http://svgjs.com/svgjs" version="1.1" width="512" height="512" x="0" y="0" viewBox="0 0 512 512" style="enable-background:new 0 0 512 512" xml:space="preserve" class=""><g><g xmlns="http://www.w3.org/2000/svg"><circle cx="256" cy="256" fill="#f1f1f1" r="256" data-original="#00ddc1" style="" class=""/><path d="m214.202 508.584c13.604 2.235 27.562 3.416 41.798 3.416 136.03 0 247.259-106.103 255.492-240.06l-68.171-68.171-2.517 1.189-74.084-74.084-27.333 27.333-52.959-52.959-79.894 79.894-49.788-49.788-11.464 11.465 49.788 49.788-63.266 63.266-51.663-51.663-11.464 11.464 51.663 51.663-24.974 24.974 25.307 25.307-46.717 46.717z" fill="#f1f1f1" data-original="#00baa0" style="" class=""/><g><path d="m255.998 211.69h182.048v156.645h-182.048z" fill="#b2d7f3" data-original="#b2d7f3" style=""/><path d="m73.952 211.69h182.048v156.645h-182.048z" fill="#d6e9f8" data-original="#d6e9f8" style="" class=""/><g fill="#613393"><path d="m369.422 233.213h18.59v18.59h-18.59z" fill="#613393" data-original="#613393" style="" class=""/><path d="m369.422 267.85h18.59v18.59h-18.59z" fill="#613393" data-original="#613393" style="" class=""/><path d="m404.193 233.213h18.59v18.59h-18.59z" fill="#613393" data-original="#613393" style="" class=""/><path d="m404.193 267.85h18.59v18.59h-18.59z" fill="#613393" data-original="#613393" style="" class=""/><path d="m369.422 302.486h18.59v18.59h-18.59z" fill="#613393" data-original="#613393" style="" class=""/><path d="m369.422 337.123h18.59v18.59h-18.59z" fill="#613393" data-original="#613393" style="" class=""/><path d="m404.193 302.486h18.59v18.59h-18.59z" fill="#613393" data-original="#613393" style="" class=""/><path d="m404.193 337.123h18.59v18.59h-18.59z" fill="#613393" data-original="#613393" style="" class=""/></g><path d="m89.424 233.213h18.59v18.59h-18.59z" fill="#7a3eb4" data-original="#7a3eb4" style="" class=""/><path d="m89.424 267.85h18.59v18.59h-18.59z" fill="#7a3eb4" data-original="#7a3eb4" style="" class=""/><path d="m124.195 233.213h18.59v18.59h-18.59z" fill="#7a3eb4" data-original="#7a3eb4" style="" class=""/><path d="m124.195 267.85h18.59v18.59h-18.59z" fill="#7a3eb4" data-original="#7a3eb4" style="" class=""/><path d="m89.424 302.486h18.59v18.59h-18.59z" fill="#7a3eb4" data-original="#7a3eb4" style="" class=""/><path d="m89.424 337.123h18.59v18.59h-18.59z" fill="#7a3eb4" data-original="#7a3eb4" style="" class=""/><path d="m124.195 302.486h18.59v18.59h-18.59z" fill="#7a3eb4" data-original="#7a3eb4" style="" class=""/><path d="m124.195 337.123h18.59v18.59h-18.59z" fill="#7a3eb4" data-original="#7a3eb4" style="" class=""/><path d="m357.568 203.717h85.804v15.946h-85.804z" fill="#613393" data-original="#613393" style="" class=""/><path d="m68.628 203.717h85.804v15.946h-85.804z" fill="#7a3eb4" data-original="#7a3eb4" style="" class=""/><path d="m357.568 378.335h-145.751l44.181-10 44.185 10h-145.751v-241.056h203.136z" fill="#eef4ff" data-original="#eef4ff" style="" class=""/><path d="m357.568 378.335h-57.385l-44.183-10v-231.056h101.568z" fill="#d6e9f8" data-original="#d6e9f8" style="" class=""/><path d="m211.817 301.981h88.365v76.354h-88.365z" fill="#613393" data-original="#613393" style="" class=""/><path d="m145.281 130.874h221.438v15.946h-221.438z" fill="#7a3eb4" data-original="#7a3eb4" style="" class=""/><path d="m211.817 301.981h44.183v76.354h-44.183z" fill="#7a3eb4" data-original="#7a3eb4" style="" class=""/><path d="m319.502 267.85h18.59v18.59h-18.59z" fill="#613393" data-original="#613393" style="" class=""/><path d="m319.502 302.486h18.59v18.59h-18.59z" fill="#613393" data-original="#613393" style="" class=""/><path d="m319.502 337.123h18.59v18.59h-18.59z" fill="#613393" data-original="#613393" style="" class=""/><path d="m172.712 267.85h18.59v18.59h-18.59z" fill="#7a3eb4" data-original="#7a3eb4" style="" class=""/><path d="m172.712 302.486h18.59v18.59h-18.59z" fill="#7a3eb4" data-original="#7a3eb4" style="" class=""/><path d="m172.712 337.123h18.59v18.59h-18.59z" fill="#7a3eb4" data-original="#7a3eb4" style="" class=""/><path d="m211.817 193.1h88.365v18.59h-88.365z" fill="#edbe00" data-original="#edbe00" style=""/><path d="m255.998 193.1h44.185v18.59h-44.185z" fill="#ff9e22" data-original="#ff9e22" style=""/><path d="m255.998 130.874h110.721v15.946h-110.721z" fill="#613393" data-original="#613393" style="" class=""/><circle cx="256" cy="138.847" fill="#eef4ff" r="45.185" data-original="#eef4ff" style="" class=""/><path d="m301.185 138.847c0-24.955-20.23-45.185-45.185-45.185v90.37c24.955 0 45.185-20.23 45.185-45.185z" fill="#d6e9f8" data-original="#d6e9f8" style="" class=""/><g><path d="m282.927 131.552h-19.632v-19.633h-14.59v19.633h-19.633v14.59h19.633v19.633h14.59v-19.633h19.632z" fill="#ff6379" data-original="#ff6379" style=""/><path d="m263.295 111.919h-7.295v53.856h7.295v-19.633h19.632v-14.59h-19.632z" fill="#ff1f3e" data-original="#ff1f3e" style=""/></g><path d="m211.336 267.85h18.59v18.59h-18.59z" fill="#7a3eb4" data-original="#7a3eb4" style="" class=""/><path d="m246.107 267.85h18.59v18.59h-18.59z" fill="#7a3eb4" data-original="#7a3eb4" style="" class=""/><path d="m282.804 267.85h18.59v18.59h-18.59z" fill="#613393" data-original="#613393" style="" class=""/><path d="m319.502 233.213h18.59v18.59h-18.59z" fill="#613393" data-original="#613393" style="" class=""/><path d="m172.712 233.213h18.59v18.59h-18.59z" fill="#7a3eb4" data-original="#7a3eb4" style="" class=""/><path d="m211.336 233.213h18.59v18.59h-18.59z" fill="#7a3eb4" data-original="#7a3eb4" style="" class=""/><path d="m246.107 233.213h18.59v18.59h-18.59z" fill="#7a3eb4" data-original="#7a3eb4" style="" class=""/><path d="m282.804 233.213h18.59v18.59h-18.59z" fill="#613393" data-original="#613393" style="" class=""/><path d="m255.402 267.85h9.295v18.59h-9.295z" fill="#613393" data-original="#613393" style="" class=""/><path d="m255.402 233.213h9.295v18.59h-9.295z" fill="#613393" data-original="#613393" style="" class=""/></g></g></g></svg>
