<?xml version="1.0" encoding="utf-8"?>
<svg version="1.1" id="Layer_1" xmlns="http://www.w3.org/2000/svg" xmlns:xlink="http://www.w3.org/1999/xlink" x="0px" y="0px"
	 viewBox="0 0 181.1 38.5" style="enable-background:new 0 0 181.1 38.5;" xml:space="preserve">
<g>
	<path d="M152.9,0L152.9,0c0.1,0.1,0.2,0.2,0.3,0.3c6.7,6.2,13.4,12.4,20.1,18.6c0-5.9,0-11.9,0-17.8c2.6,0,5.2,0,7.8,0
		c0,12.5,0,24.9,0,37.4c-6.8-6.3-13.6-12.7-20.5-19c0,5.9,0,11.8,0,17.7c-2.6,0-5.1,0-7.7,0C152.9,24.9,152.9,12.4,152.9,0L152.9,0z
		"/>
	<path d="M2.7,5.8C4.8,2.7,8.5,1,12.1,0.6C17.6,0.1,23.6,1,27.9,4.8c-1.8,1.7-3.7,3.3-5.5,5c-2-1.8-4.7-2.7-7.4-2.7
		C13,7,10.9,7.7,9.8,9.4c-0.8,1.2-0.5,3,0.6,3.9c1.8,1.5,4.1,2.2,6.3,3c3.2,1,6.4,2.1,9,4.3c3.6,2.9,4.4,8.8,1.6,12.5
		c-2.4,3.2-6.3,4.9-10.2,5.2c-3.5,0.1-7,0-10.3-1.2c-2.5-0.8-4.7-2.2-6.8-3.7c1.8-1.7,3.7-3.4,5.5-5.1c3.1,2.4,7.1,3.7,11,3.2
		c1.7-0.3,3.5-1.2,4.1-2.9c0.4-1.5-0.5-3-1.8-3.7c-4-2.3-8.7-2.8-12.6-5.3c-2.1-1.3-3.9-3.3-4.6-5.7C0.8,11.1,1.1,8.1,2.7,5.8
		L2.7,5.8z"/>
	<path d="M42.3,1.2c2.6,0,5.2,0,7.8,0c0,4.8,0,9.5,0,14.3c5.3,0,10.5,0,15.8,0c0-4.8,0-9.5,0-14.3c2.6,0,5.3,0,7.9,0
		c0,12.1,0,24.1,0,36.2c-2.6,0-5.3,0-7.9,0c0-5.3,0-10.7,0-16c-5.3,0-10.5,0-15.8,0c0,5.3,0,10.7,0,16c-2.6,0-5.2,0-7.8,0
		C42.3,25.4,42.3,13.3,42.3,1.2L42.3,1.2z"/>
	<path d="M89.1,1.2c8.9,0,17.7,0,26.6,0c0,1.9,0,3.9,0,5.8c-6.3,0-12.6,0-18.9,0c0,2.9,0,5.7,0,8.6c6.2,0,12.4,0,18.6,0
		c0,1.9,0,3.8,0,5.7c-6.2,0-12.4,0-18.6,0c0,3.3,0,6.6,0,9.9c6.3,0,12.6,0,18.9,0c0,2.1,0,4.1,0,6.2c-8.9,0-17.7,0-26.6,0
		C89.1,25.4,89.1,13.3,89.1,1.2L89.1,1.2z"/>
	<path d="M129.6,1.2c2.6,0,5.2,0,7.8,0c0,12.1,0,24.1,0,36.2c-2.6,0-5.2,0-7.8,0C129.6,25.4,129.6,13.3,129.6,1.2L129.6,1.2z"/>
</g>
</svg>
