<?xml version="1.0" encoding="utf-8"?>
<svg version="1.1" id="Layer_1" xmlns="http://www.w3.org/2000/svg" xmlns:xlink="http://www.w3.org/1999/xlink" x="0px" y="0px"
	 viewBox="0 0 601.02 175.91" style="enable-background:new 0 0 601.02 175.91;" xml:space="preserve">
<g>
	<path style="fill:#053876;" d="M135.7,0.5H0.5c0,0,0,77.5,0,83.7c-0.1,54,59.1,89.5,67.6,91.2c8.5-1.8,67.6-37.3,67.6-90.9V0.5z
		 M68,163.1c-6.8-1.4-57.8-32.1-57.8-78.4c0,0,0-55.4,0-75H126c0,19.3,0,75.3,0,75.3C126,131.1,75,161.7,68,163.1"/>
	<path style="fill:#053876;" d="M88.4,63.4c5.6,6.7,7.7,11.6,7.9,20.4c0.3,9.8-7.7,26.4-28.2,26.4C47.7,110.2,40,93.4,40,83.8
		c0-8.8,2.6-14.1,7.9-20.6c-8.8,5.3-21.1,15.9-21.2,37.1c-0.1,21,20.9,38.3,41.4,38.3c20.6,0,41.3-17.5,41.3-38.4
		C109.4,79.5,97,68.8,88.4,63.4"/>
	<path style="fill:#053876;" d="M43.4,45.5c1.6,1.7,2.8,2.6,5.3,1.1c3.9-2.3,5.9-0.8,10-0.2c-2.5,1.9-5.2,2.8-5.6,5.2
		c-0.5,3.1-2.3,4.5-4.6,5.8c-2.3,1.2-3.1,3.6-2.8,4.8c1.5-3.2,4.4-3.6,6.6-3.5c2.4,0.1,4.2-2.6,5.8-4.5c2.4-2.8,5.8-2.6,5.8-2.6
		c-1,4.5,0.8,4.6,2.5,8c1.6,3.1-0.1,5.5-0.2,6.6c-0.2,2.1,0.7,3.5,3,5c-0.8-1.9-1.1-3.8,1.3-6.2c1.8-1.8,1.9-3.3,1.3-5
		c-1.4-3.9-0.2-4.5,0.5-8.6c2.4,2,3,2.7,6,3.7c2.5,0.9,4.1,3.9,5.1,4.8c2.2,1.8,3.9,2,6,1.3c-2.3-1-3.1-2.1-3.8-3.9
		c-0.9-2.3-0.3-4.4-2.8-6c-3.3-2.1-5.2-4.1-5.8-5.1c0,0,6.4,1,10-0.8c3.8-1.9,6.4-0.3,7.6-0.1c1.8,0.2,3.2-1,4.5-3.5
		c-1,0.6-3.5,0.8-5.9-1.3c-1.9-1.7-3.7-1.6-5.3-1c-4,1.6-7.4,1.4-11.2-0.3c4.2-2.3,6.4-2.7,6.9-5.2c0.6-3.1,2.2-4.4,4.5-5.7
		c2.3-1.2,2.5-2.8,2.2-4c-1.6,2.5-4.8,3.3-7,3.2c-2.4,0-3.5,1.9-4.9,4c-2,3-4.4,2.3-6,3.3c0,0-0.4-5.7-2.2-8.2
		c-2.1-2.8,0.3-5.8,0.4-6.8c0.2-2.1-0.9-3.2-2.8-4.5c0.8,1.9,0.5,3.2-1.9,5.6c-1.8,1.8-1.6,3.8-1.1,5.5c1.1,3.4-0.1,3.7-0.9,7.8
		c-2.4-2.1-3-2.4-5.9-3.5c-2.5-0.9-3.7-3.6-4.8-4.5c-2.2-1.8-4.4-2.3-6.5-1.7c2.8,1.2,3.6,2.6,4.2,4.4c0.8,2.3,0.1,4,2.7,5.9
		c3,2.2,4.3,4,4.9,5c0,0-6-0.7-9.9,1.8c-2.3,1.5-6.3-0.7-6.6-0.7c-2.1,0.1-3.6,1.4-4.8,3.5C39.2,43.3,41.7,43.8,43.4,45.5"/>
	<path style="fill:#053876;" d="M173.3,31.4c0-6.8,0.1-7.4-8.3-7.8V21c5.1,0.3,10.1,0.4,15.3,0.4c5.1,0,10.2-0.2,15.3-0.4
		c8.5,0,18.1,3.7,18.1,13.5c0,10.9-9.4,18.1-20.3,18.5c-2.4,0.1-4.4-0.2-5.7-0.5l-1-3.2c1.3,0.4,3.4,0.7,5.6,0.8
		c7.1,0.3,12.6-5.1,12.6-12.6c0-9.1-5.5-13.3-14.2-13.3c-3,0-5.8,0.7-8.6,1.2c-0.5,1.5-0.5,3.3-0.5,6v40c0,6.8-0.1,7.4,8.3,7.9v2.6
		c-4.2-0.3-8.3-0.4-12.6-0.4s-8.4,0.2-12.3,0.4v-2.6c8.4-0.4,8.3-1,8.3-7.9L173.3,31.4L173.3,31.4z"/>
	<path style="fill:#053876;" d="M212.1,62.8c0-13.1,8.2-22.2,22.2-22.2c11.2,0,19.8,8.7,19.8,19.9c0,13.3-9.5,22.8-22.9,22.8
		C220.3,83.5,212.1,74.8,212.1,62.8 M220.2,59c0,9.2,3.3,21.2,14.5,21.2c7.9,0,11.2-7.8,11.2-16c0-11.2-5.1-21.5-13.5-20.8
		C223.1,43.4,220.2,50.9,220.2,59"/>
	<path style="fill:#053876;" d="M263.5,50.7c0-3.6-4-4.6-7.2-4.6v-2.6c4.1-0.7,8.8-1.5,13.8-3c0.3,0.3,0.4,1,0.4,1.7v6.1l4.9-4.3
		c1.8-1.7,4.9-3.6,7.5-3.6c1.4,0,3,0.2,4.2,0.8c0.4,0.2,0.3,0.8,0.2,1.1l-0.6,9.3h-1.9c-1-2.2-3.1-3.9-5.7-3.9
		c-6.1,0-8.2,5.8-8.2,11.9v8.5c0,8.7,0.3,10.9,7.2,10.9v2.6c-3.6-0.3-7.2-0.4-10.9-0.4c-3.7,0-7.3,0.2-10.9,0.4V79
		c7.2-0.4,7.2-2.2,7.2-10.9V50.7z"/>
	<path style="fill:#053876;" d="M292.6,48.4v-1.7l6.2-3.1l0.1-6.1c-0.2-2.3-0.3-4.5-0.6-6.9c3.1-1,5.9-2.4,7.6-3.3l1.1,0.9
		c-0.3,1-0.6,2.1-0.7,3.1l-0.5,12.3h12.1l-0.6,4.3h-11.5v19.6c0,4.6-0.5,9.4,5.7,9.4c1.7,0,3.1-0.9,4.3-1.6l1.5,1.5
		c-0.8,0.8-1.6,1.7-2.4,2.5l-1.9,2.1c-0.2,0.3-0.7,0.4-1,0.4c-1.3,0.3-2.7,0.6-4,0.6c-6.5,0-9.4-3.5-9.4-9.2V47.8L292.6,48.4z"/>
	<path style="fill:#053876;" d="M347,52.5c-0.1-2.8-0.3-5.1-2.7-6.9c-1.9-1.4-5.1-2.3-7.4-2.3c-7.9,0-10,6.8-7.6,10
		c5.3,6.8,23.7,1.6,23.7,15.1c0,9.6-9.5,14.7-19.2,14.7c-3.8,0-7.8-0.7-12-2.5c0.4-3.1,0.8-7.6,0.8-11.7h2.6v2.3
		c0.3,4.3-0.4,4.5,3.4,6.7c1.9,1.1,4.6,2,7.8,2c5.5,0,10.2-3.2,10.2-7.9c0-2.8-1.6-4.8-4.2-5.8c-7.2-2.7-20.2-2.3-20.2-13
		c0-9.4,8.2-12.7,16.4-12.7c3.3,0,7.7,0.8,11.3,2.3c-0.4,1.9-0.5,5.7-0.5,9.7L347,52.5L347,52.5z"/>
	<path style="fill:#053876;" d="M363.4,50.7c0-3.6-4-4.6-7.2-4.6v-2.6c4.1-0.7,8.8-1.5,13.8-3c0.4,0.3,0.4,1,0.4,1.7v6.1l5.9-5.5
		c2-1.8,4.3-2.4,7.2-2.4c6,0,10.5,2.4,12.9,8.1l6.1-5.4c2.4-2.2,4.1-2.7,8.2-2.7c6.9,0,12.6,5,12.6,14.3v13.5c0,8.7,0,10.5,6.5,10.9
		v2.6c-2.4-0.3-4.6-0.4-7-0.4s-4.7,0.2-6.9,0.4V58.2c0-7.9-3.4-12.3-8.2-12.3c-10.7,0-10.7,7.9-10.7,11.9v10.4
		c0,8.7,0.3,10.9,7.2,10.9v2.6c-3.6-0.3-7.2-0.4-10.9-0.4c-3.7,0-7.3,0.2-10.9,0.4v-2.6c7.2-0.4,7.2-2.2,7.2-10.9v-5.9
		c0-3-0.1-6.1-0.5-9c-0.6-4.4-3.8-7.3-8.3-7.3c-10.1,0-10.1,7.9-10.1,11.9v10.4c0,8.7,0.3,10.9,7.2,10.9v2.6
		c-3.6-0.3-7.2-0.4-10.9-0.4c-3.7,0-7.3,0.2-10.9,0.4v-2.6c7.2-0.4,7.2-2.2,7.2-10.9L363.4,50.7L363.4,50.7z"/>
	<path style="fill:#053876;" d="M430,62.8c0-13.1,8.2-22.2,22.2-22.2c11.2,0,19.8,8.7,19.8,19.9c0,13.3-9.5,22.8-22.9,22.8
		C438.2,83.5,430,74.8,430,62.8 M438.1,59c0,9.2,3.3,21.2,14.5,21.2c7.9,0,11.2-7.8,11.2-16c0-11.2-5.1-21.5-13.5-20.8
		C441,43.4,438.1,50.9,438.1,59"/>
	<path style="fill:#053876;" d="M480.2,50.7c0-3.6-4-4.6-7.1-4.6v-2.6c4.8-0.7,9.5-1.5,14.4-3c0.3,0.3,0.4,1,0.4,1.7l-0.4,13.3v11
		c0,6.9,1.5,10.9,9.2,10.9c3.9,0,10.1-3.9,11-7.9c0.2-1.1,0.3-2,0.3-3.1V50.5c0-3.6-4-4.6-7.1-4.6v-2.6c4.8-0.7,9.5-1.5,14.4-3
		c0.3,0.3,0.4,1,0.4,1.7l-0.4,13.3v18.1c0,1.7-0.4,3.8,1.4,4.8c1.3,0.4,2.7,0.5,4.1,0.6l1.6,0.1v2.6c-2.4-0.3-5-0.4-7.4-0.4
		c-2.5,0-5.1,0.2-7.3,0.4c0.3-1.6,0.4-3.1,0.3-4.3v-3.3c-1.8,1.4-3.7,3.1-5.4,4.7c-1.6,1.5-2.3,2.4-4.5,2.9
		c-1.8,0.4-3.8,0.6-5.7,0.6c-12.3,0-12.3-7.9-12.3-14.9V50.7H480.2z"/>
	<path style="fill:#053876;" d="M523,48.4v-1.7l6.2-3.1l0.1-6.1c-0.2-2.3-0.3-4.5-0.6-6.9c3.1-1,5.9-2.4,7.6-3.3l1.1,0.9
		c-0.3,1-0.6,2.1-0.7,3.1l-0.5,12.3h12.1l-0.6,4.3h-11.5v19.6c0,4.6-0.5,9.4,5.7,9.4c1.7,0,3.1-0.9,4.3-1.6l1.5,1.5
		c-0.8,0.8-1.6,1.7-2.4,2.5l-1.9,2.1c-0.2,0.3-0.7,0.4-1,0.4c-1.3,0.3-2.7,0.6-4,0.6c-6.5,0-9.4-3.5-9.4-9.2V47.8L523,48.4z"/>
	<path style="fill:#053876;" d="M558.6,28.6c0-3.6-4-4.6-7.1-4.6v-2.6c4.8-0.7,9.5-1.5,14.4-3c0.3,0.3,0.4,1,0.4,1.7l-0.4,13.3v15.3
		l6.6-5.8c2.1-1.8,4.3-2.4,7.1-2.4c6.9,0,12.6,5,12.6,14.3v13.5c0,8.7,0,10.5,6.5,10.9v2.6c-2.4-0.3-4.6-0.4-7-0.4s-4.7,0.2-6.9,0.4
		V58.3c0-7.9-3.4-12.3-8.2-12.3c-10.7,0-10.7,7.9-10.7,11.9v10.4c0,8.7,0.3,10.9,7.2,10.9v2.6c-3.6-0.3-7.2-0.4-10.9-0.4
		s-7.3,0.2-10.9,0.4v-2.6c7.2-0.4,7.2-2.2,7.2-10.9V28.6H558.6z"/>
	<path style="fill:#053876;" d="M191.8,129.7l-0.9,2c-2.8,1.5-5.9,2.3-9.4,2.3c-6.9,0-11.6-2.5-14.2-7.5c-1.2-2.3-1.8-4.8-1.8-7.5
		c0-4.3,1.4-7.8,4.3-10.4c2.9-2.7,7-4,12.1-4c3.2,0,6.4,0.6,9.5,1.8l0.3,0.3c-0.4,1.8-0.7,4-0.8,6.4l-0.2,0.2h-1.2l-0.2-0.2
		c0-1.6-0.1-2.7-0.2-3.3c-1.7-1.9-4-2.8-7.2-2.8s-5.7,1-7.6,3.1c-1.8,2-2.7,4.8-2.7,8.3c0,4.7,1.6,8.4,4.9,10.9c1.7,1.3,4.1,2,7,2
		c2.6,0,5.2-0.7,7.8-2L191.8,129.7z"/>
	<path style="fill:#053876;" d="M219.4,133.1l-0.2,0.2c-1.3-0.1-3.4-0.1-6.1-0.1c-2.8,0-4.8,0-6.1,0.1l-0.2-0.2v-1.3l0.2-0.2
		c1.4-0.1,2.1-0.1,2.3-0.2c0.4-0.1,0.6-0.4,0.7-0.7c0.2-1,0.3-3,0.3-6.2V114c0-3.2-0.1-5.2-0.3-6.2c-0.1-0.4-0.3-0.6-0.7-0.7
		c-0.2-0.1-1-0.1-2.3-0.2l-0.2-0.2v-1.4l0.2-0.2c1.3,0.1,3.3,0.1,6.1,0.1s4.8,0,6.1-0.1l0.2,0.2v1.4l-0.2,0.2
		c-1.4,0.1-2.1,0.1-2.3,0.2c-0.4,0.1-0.6,0.4-0.7,0.7c-0.2,0.9-0.3,3-0.3,6.2v10.5c0,3.2,0.1,5.2,0.3,6.2c0.1,0.4,0.3,0.6,0.7,0.7
		c0.2,0.1,1,0.1,2.3,0.2l0.2,0.2V133.1z"/>
	<path style="fill:#053876;" d="M258.8,105.2c-0.2,1-0.2,2-0.3,3v3.3l-0.2,0.2H257l-0.2-0.2c-0.1-1.7-0.1-2.7-0.2-3
		c-0.2-0.5-0.6-0.8-1.3-0.9c-0.3,0-1.5-0.1-3.7-0.1h-2.7c0,0.5,0,2.3,0,5.5v11.3c0,3.2,0.1,5.2,0.3,6.2c0.1,0.4,0.3,0.6,0.7,0.7
		c0.2,0.1,1,0.1,2.3,0.2l0.2,0.2v1.3l-0.2,0.2c-1.3-0.1-3.3-0.1-6.1-0.1s-4.9,0-6.1,0.1l-0.2-0.2v-1.3l0.2-0.2
		c1.4-0.1,2.1-0.1,2.3-0.2c0.4-0.1,0.6-0.4,0.7-0.7c0.2-1,0.3-3,0.3-6.2V113c0-3.3,0-5.1-0.1-5.5h-2.8c-2.4,0-3.8,0.1-4.1,0.2
		c-0.2,0.1-0.4,0.2-0.4,0.3c-0.1,0.2-0.2,0.6-0.3,1.3c-0.1,0.7-0.2,1.4-0.2,2.2l-0.4,0.3h-1.3l-0.2-0.2v-3.4c0-0.9-0.1-1.9-0.2-3
		l0.2-0.2c0.8,0.1,3.6,0.2,8.5,0.2h8c4.5,0,7.4-0.1,8.5-0.2L258.8,105.2z"/>
	<path style="fill:#053876;" d="M298.6,106.1c-2.1,2.8-4.4,6.3-6.9,10.5c-1.4,2.3-2.2,3.8-2.3,4.5c-0.1,0.3-0.1,0.8-0.1,1.5v2
		c0,3.9,0.1,6,0.4,6.5c0.1,0.2,0.3,0.3,0.5,0.4c0.3,0.1,1.1,0.2,2.4,0.3l0.2,0.2v1.3l-0.2,0.2c-1.3-0.1-3.3-0.1-6.1-0.1
		c-2.8,0-4.9,0-6.1,0.1l-0.2-0.2v-1.4l0.2-0.2c1.3-0.1,2.1-0.2,2.4-0.3c0.2-0.1,0.3-0.2,0.5-0.4c0.2-0.4,0.4-2.6,0.4-6.5v-2.3
		c0-0.5-1-2.5-3.1-6c-2.1-3.6-3.8-6-5.1-7.3c-0.6-0.6-1-1-1.2-1.1s-0.7-0.1-1.5-0.1l-0.2-0.2v-1.1l0.2-0.2c3.2-0.6,5.3-1.1,6.2-1.3
		c0.7,0.3,1.3,0.8,1.8,1.3c1.1,1.1,2.6,3.5,4.5,7.3l2.6,5.2c0.8-1.3,2.3-3.8,4.5-7.6l2.2-4c0.2-0.4,0.6-1,1-1.8h2.9l0.2,0.2
		L298.6,106.1L298.6,106.1z"/>
	<path style="fill:#053876;" d="M360.7,129.7l-0.9,2c-2.8,1.5-5.9,2.3-9.4,2.3c-6.9,0-11.6-2.5-14.2-7.5c-1.2-2.3-1.8-4.8-1.8-7.5
		c0-4.3,1.4-7.8,4.3-10.4c3-2.7,7-4,12.1-4c3.2,0,6.4,0.6,9.5,1.8l0.3,0.3c-0.4,1.8-0.7,4-0.8,6.4l-0.2,0.2h-1.2l-0.2-0.2
		c0-1.6-0.1-2.7-0.2-3.3c-1.7-1.9-4-2.8-7.2-2.8s-5.7,1-7.6,3.1c-1.8,2-2.7,4.8-2.7,8.3c0,4.7,1.6,8.4,4.9,10.9c1.7,1.3,4.1,2,7,2
		c2.6,0,5.2-0.7,7.8-2L360.7,129.7z"/>
	<path style="fill:#053876;" d="M405.4,118.5c0,4.9-1.4,8.7-4.3,11.5c-2.8,2.7-6.5,4-11.3,4c-4.5,0-8.1-1.3-10.7-3.8
		s-3.9-6.1-3.9-10.6c0-6.4,2.4-10.8,7.3-13.2c2.2-1.1,4.9-1.7,8.2-1.7c4.6,0,8.2,1.2,10.8,3.6C404.1,110.8,405.4,114.2,405.4,118.5
		 M399.3,119.5c0-3.8-0.8-6.9-2.3-9.1c-1.5-2.3-3.8-3.4-6.8-3.4c-3.9,0-6.5,1.8-7.8,5.3c-0.7,1.8-1,3.8-1,6.1c0,4.1,0.8,7.3,2.3,9.7
		c1.6,2.4,3.9,3.7,7,3.7c3.8,0,6.3-1.9,7.6-5.6C399,124.2,399.3,122,399.3,119.5"/>
	<path style="fill:#053876;" d="M450.1,106.6l-0.2,0.2c-1.6,0-2.4,0.4-2.6,1.3c-0.1,0.5-0.2,1.5-0.2,3c0,1.2-0.1,2.8-0.1,5v6.1
		c0,3.9-0.8,6.7-2.3,8.4c-2.1,2.2-5,3.3-8.8,3.3c-3.5,0-6.2-0.6-8.1-1.7c-1.6-1-2.7-2.4-3.2-4.2c-0.3-1.2-0.5-4.2-0.5-9v-5.1
		c0-3.2-0.1-5.2-0.3-6.2c-0.1-0.4-0.3-0.6-0.7-0.7c-0.2-0.1-1-0.1-2.3-0.2l-0.2-0.2v-1.3l0.2-0.2c1.3,0.1,3.3,0.1,6.1,0.1
		c2.9,0,4.9,0,6.1-0.1l0.2,0.2v1.3l-0.2,0.2c-1.4,0.1-2.1,0.1-2.3,0.2c-0.4,0.1-0.6,0.4-0.7,0.7c-0.2,0.9-0.3,3-0.3,6.2v4.1
		c0,5,0.2,8.1,0.7,9.2c0.9,2.2,3.1,3.3,6.7,3.3c2.3,0,4.1-0.6,5.4-1.7c0.6-0.5,1-1.1,1.3-1.6c0.2-0.6,0.4-1.4,0.6-2.6
		c0.1-1.1,0.2-2.2,0.2-3.3v-4.1c0-3.5,0-5.8,0-7.1c0-1.2-0.1-2-0.2-2.3s-0.3-0.5-0.7-0.6c-0.3-0.1-1.1-0.2-2.4-0.3l-0.2-0.2v-1.3
		l0.2-0.2c1.2,0.1,2.3,0.1,3.6,0.1c0.9,0,2.7,0,5.3-0.1l0.2,0.2v1.2H450.1z"/>
	<path style="fill:#053876;" d="M495.9,106.6l-0.2,0.2c-1.4,0.1-2.1,0.1-2.3,0.2c-0.4,0.1-0.6,0.4-0.7,0.7c-0.2,0.9-0.3,3-0.3,6.2
		v8.1c0,5.9,0.1,9.8,0.3,11.6l-0.3,0.2c-1.5-0.3-2.6-0.4-3.4-0.5c-3.5-4-9.6-11.3-18.2-21.8v13c0,3.2,0.1,5.2,0.3,6.2
		c0.1,0.4,0.3,0.6,0.7,0.7c0.2,0.1,1,0.1,2.3,0.2l0.2,0.2v1.4l-0.2,0.2c-1.5-0.1-2.9-0.1-4.3-0.1c-1.5,0-3,0-4.6,0.1l-0.2-0.2v-1.4
		l0.2-0.2c1.3-0.1,2.1-0.1,2.3-0.2c0.4-0.1,0.6-0.4,0.7-0.7c0.2-0.9,0.3-3,0.3-6.2V114c0-3.2-0.1-5.2-0.3-6.2
		c-0.1-0.4-0.3-0.6-0.7-0.7c-0.2-0.1-1-0.1-2.3-0.2l-0.2-0.2v-1.4l0.2-0.2c1.3,0.1,2.5,0.1,3.6,0.1c1.8,0,3.3,0,4.4-0.1
		c4.8,6.4,10.4,13.2,16.8,20.4v-11.6c0-3.2-0.1-5.2-0.3-6.2c-0.1-0.4-0.3-0.6-0.7-0.7c-0.2-0.1-1-0.1-2.3-0.2l-0.2-0.2v-1.4l0.2-0.2
		c1.5,0.1,2.9,0.1,4.2,0.1c1.7,0,3.2,0,4.6-0.1l0.2,0.2v1.4L495.9,106.6L495.9,106.6z"/>
	<path style="fill:#053876;" d="M536.7,129.7l-0.9,2c-2.8,1.5-5.9,2.3-9.4,2.3c-6.9,0-11.6-2.5-14.2-7.5c-1.2-2.3-1.8-4.8-1.8-7.5
		c0-4.3,1.4-7.8,4.3-10.4c3-2.7,7-4,12.1-4c3.2,0,6.4,0.6,9.5,1.8l0.3,0.3c-0.4,1.8-0.7,4-0.8,6.4l-0.2,0.2h-1.2l-0.2-0.2
		c0-1.6-0.1-2.7-0.2-3.3c-1.7-1.9-4-2.8-7.2-2.8s-5.7,1-7.6,3.1c-1.8,2-2.7,4.8-2.7,8.3c0,4.7,1.6,8.4,4.9,10.9c1.7,1.3,4.1,2,7,2
		c2.6,0,5.2-0.7,7.8-2L536.7,129.7z"/>
	<path style="fill:#053876;" d="M564.4,133.1l-0.2,0.2c-1.3-0.1-3.4-0.1-6.1-0.1c-2.8,0-4.8,0-6.1,0.1l-0.2-0.2v-1.3l0.2-0.2
		c1.4-0.1,2.1-0.1,2.3-0.2c0.4-0.1,0.6-0.4,0.7-0.7c0.2-1,0.3-3,0.3-6.2V114c0-3.2-0.1-5.2-0.3-6.2c-0.1-0.4-0.3-0.6-0.7-0.7
		c-0.2-0.1-1-0.1-2.3-0.2l-0.2-0.2v-1.4l0.2-0.2c1.3,0.1,3.3,0.1,6.1,0.1s4.8,0,6.1-0.1l0.2,0.2v1.4l-0.2,0.2
		c-1.3,0.1-2.1,0.1-2.3,0.2c-0.4,0.1-0.6,0.4-0.7,0.7c-0.2,0.9-0.3,3-0.3,6.2v10.5c0,3.2,0.1,5.2,0.3,6.2c0.1,0.4,0.3,0.6,0.7,0.7
		c0.2,0.1,1,0.1,2.3,0.2l0.2,0.2V133.1z"/>
	<path style="fill:#053876;" d="M600.5,126.5c-0.3,1.9-0.4,4.1-0.4,6.6l-0.2,0.2l-14.4-0.1c-2.4,0-4.1,0-5.1,0.1l-0.2-0.2v-0.6
		l0.1-0.2c1-0.6,1.5-1,1.6-1.2s0.2-1.1,0.2-2.6l0.1-4.4V114c0-3.1-0.1-5.2-0.3-6.2c-0.1-0.4-0.3-0.6-0.7-0.7c-0.2-0.1-1-0.1-2.3-0.2
		l-0.2-0.2v-1.4l0.2-0.2c1.4,0.1,3.4,0.1,6,0.1c2.7,0,4.8,0,6.2-0.1l0.2,0.2v1.4l-0.2,0.2c-1.3,0.1-2.1,0.1-2.3,0.2
		c-0.4,0.1-0.6,0.4-0.7,0.7c-0.2,1-0.3,3-0.3,6.2v11.8c0,1.7,0,3.4,0.1,5h2.7c3.9,0,6.2-0.2,7.1-0.5c0.1-0.1,0.3-0.1,0.3-0.2
		c0.1-0.2,0.3-0.6,0.4-1.2l0.5-2.5l0.2-0.2h1.2L600.5,126.5z"/>
</g>
</svg>
