<?xml version="1.0" encoding="utf-8"?>
<svg version="1.1" id="Layer_1" xmlns="http://www.w3.org/2000/svg" xmlns:xlink="http://www.w3.org/1999/xlink" x="0px" y="0px"
	width="100px" height="100px" viewBox="0 0 100 100" style="enable-background:new 0 0 100 100;" xml:space="preserve">
<g>
	<path style="fill:#E8E8E8;" d="M50,0c27.6,0,50,22.4,50,50s-22.4,50-50,50S0,77.6,0,50S22.4,0,50,0"/>
	<path style="fill:#FFFFFF;" d="M50,1c27.1,0,49,21.9,49,49S77.1,99,50,99S1,77.1,1,50S22.9,1,50,1"/>
	<g>
		<path style="fill:#040404;" d="M79.6,56.1h-2v-7.6h-1.6v-1.7h1.6v-2.8h2v2.8h1.9v1.7l0,0h-1.9V56.1z"/>
		<path style="fill:#040404;" d="M85.8,56.2c-0.8,0-1.6-0.2-2.2-0.7c-0.8-0.6-1.2-1.5-1.2-2.5l0,0h1.8v0c0,0.4,0.2,0.7,0.5,0.9
			c0.1,0,0.1,0.1,0.2,0.1l0,0c0.4,0.2,0.9,0.3,1.4,0.3c0.8-0.1,1.3-0.5,1.3-1.1c0-0.5-0.4-0.9-1.1-1.1L85.1,52
			c-1.9-0.5-2.7-1.5-2.5-3.1l0,0c0.1-1.4,1.6-2.4,3.3-2.4c1.3,0,2.3,0.5,2.9,1.4c0.2,0.4,0.4,0.9,0.4,1.4v0.1h-1.9l0,0
			c0-0.3-0.1-0.6-0.4-0.8c-0.2-0.2-0.5-0.2-0.9-0.2c-0.6,0-1.2,0.3-1.3,0.8c-0.1,0.3-0.1,0.5,0,0.7c0.1,0.3,0.5,0.5,1,0.7l1.3,0.3
			c1.1,0.3,2.4,1,2.4,2.8c0,0.8-0.4,1.6-1.1,2.1C87.7,55.9,86.8,56.2,85.8,56.2z"/>
		<path style="fill:#040404;" d="M35.9,56.1h-2v-5.3c0-1.5-0.8-2.3-2-2.3c-0.6,0-1.2,0.2-1.6,0.6c-0.5,0.5-0.7,1.2-0.7,2v5h-2v-5.3
			c0-1.4-0.7-2.3-1.9-2.3c-1.2,0-2.5,0.7-2.5,2.6v5h-2v-9.4h2v1.1c0.2-0.3,0.6-0.6,1-0.9c0.4-0.2,1-0.4,1.4-0.4c0.4,0,0.7,0,1,0.1
			c1.1,0.2,1.9,0.7,2.4,1.7c0.8-1.5,2.2-1.8,3.2-1.8c1.2,0,2.1,0.4,2.7,1.1c0.6,0.7,0.9,1.7,0.9,3.1L35.9,56.1L35.9,56.1L35.9,56.1z
			"/>
		<path style="fill:#040404;" d="M42.2,56.3c-1.3,0-2.5-0.5-3.3-1.3c-0.9-0.9-1.4-2.2-1.4-3.5c0-1.4,0.5-2.6,1.4-3.5
			c0.9-0.8,2.1-1.3,3.3-1.3c1.3,0,2.5,0.5,3.1,1.4v-1.2h2v9.4h-2v-1.2C44.7,55.8,43.5,56.3,42.2,56.3z M42.4,48.5
			c-1.7,0-2.9,1.2-2.9,2.9c0,1.7,1.2,3,2.9,3c1.4,0,2.9-0.9,2.9-3C45.3,49.5,43.8,48.5,42.4,48.5z"/>
		<path style="fill:#040404;" d="M65.9,56.1h-2.6l-4.2-4.4v4.4h-2.1V41.2h2.1v8.6l2.9-3.1h2.6l-3.8,4L65.9,56.1z"/>
		<path style="fill:#040404;" d="M51.3,56.1h-2.1v-9.4h2.1v1.1c0.7-0.7,1.5-1.1,2.5-1.1c0.7,0,1.3,0.2,1.9,0.6
			c0.1,0,0.2,0.2,0.3,0.2c0,0,0,0.1,0,0.1l-1.5,1.8c0,0-0.1,0-0.1,0c-0.1,0-0.2-0.1-0.3-0.2c-0.3-0.2-0.7-0.3-1-0.3
			c-0.5,0-0.9,0.2-1.3,0.5l0,0c-0.4,0.3-0.6,0.8-0.6,1.6L51.3,56.1L51.3,56.1L51.3,56.1z"/>
		<path style="fill:#040404;" d="M73.8,47.9c-0.8-0.8-2-1.3-3.3-1.3c-0.6,0-1.1,0.1-1.6,0.2c-0.6,0.2-1.1,0.5-1.6,0.8
			c-0.1,0.1-0.2,0.1-0.2,0.2c-0.9,0.9-1.4,2.1-1.4,3.5c0,2.8,2,4.9,4.8,4.9c1.4,0,2.7-0.5,3.6-1.5l-1.2-1.3c-0.5,0.6-1.4,1-2.3,1
			c-1.4,0-2.5-0.8-2.8-2.2c0,0,0-0.1,0-0.1c0,0,0.1,0,0.1,0h7.3c0,0,0-0.7,0-0.8C75.2,50,74.7,48.8,73.8,47.9z M67.7,50.6
			c0,0,0-0.1,0-0.2c0.1-0.6,0.4-1.1,0.9-1.5c0.5-0.4,1.1-0.6,1.8-0.6c0,0,0.1,0,0.1,0c1.4,0,2.4,0.8,2.6,2.1c0,0.1,0,0.2,0,0.2H67.7
			L67.7,50.6z"/>
		<g>
			<path style="fill:#0CCD93;" d="M19.1,41.2L19,41.6L18,44c0,0,0,0,0,0c-0.4-0.3-0.8-0.5-1.2-0.6l0.9-2.2L19.1,41.2L19.1,41.2
				L19.1,41.2z"/>
			<path style="fill:#0CCD93;" d="M12.8,56.8l-0.8,2h-1.5l0.1-0.4l0.9-2.3C12,56.4,12.4,56.6,12.8,56.8z"/>
			<path style="fill:#040404;" d="M10.8,47.4c0-2.2,2.1-3.6,4.1-3.6c2.3,0,3.9,1.4,4,3.4c0,0.2,0,0.4,0,0.4H17c0,0,0-0.2,0-0.4
				c0,0,0-0.1,0-0.1c0,0,0-0.1,0-0.1c0,0,0-0.1,0-0.1c0,0,0-0.1,0-0.1c-0.1-0.3-0.3-0.6-0.6-0.8c0,0-0.1,0-0.1-0.1c0,0,0,0-0.1,0
				c0,0,0,0-0.1,0c0,0,0,0,0,0c0,0-0.1,0-0.1-0.1c0,0-0.1,0-0.1-0.1l0,0c-0.2-0.1-0.4-0.1-0.6-0.1c-0.1,0-0.2,0-0.3,0
				c-1.1,0-2.2,0.6-2.2,1.7c0,0.3,0,1,1.2,1.4l-0.7,1.7C11.6,49.9,10.8,48.9,10.8,47.4z"/>
			<path style="fill:#040404;" d="M19.2,53.3c-0.2,2-1.9,3.3-4.2,3.3c-1.1,0-2.2-0.4-3-1.1c-0.8-0.6-1.3-1.6-1.4-2.4
				c0-0.2,0-0.5,0-0.5h1.8c0,0,0,0.2,0,0.3c0,0.1,0.1,0.3,0.1,0.3c0,0,0,0,0,0c0,0.1,0,0.1,0.1,0.2c0,0,0,0,0,0c0,0,0,0,0,0
				c0,0.1,0.1,0.1,0.1,0.2l0,0c0,0,0,0,0.1,0.1c0.1,0.2,0.3,0.3,0.5,0.5c0,0,0,0,0,0c0,0,0,0,0,0c0.2,0.2,0.5,0.3,0.8,0.4
				c0.2,0.1,0.5,0.1,0.8,0.1c1,0,2.1-0.4,2.3-1.7c0.1-1.2-0.9-1.7-1.7-2l0.7-1.7c0.9,0.3,1.6,0.7,2.1,1.3
				C19.1,51.4,19.4,52.3,19.2,53.3z"/>
			<path style="fill:#0CCD93;" d="M16.4,48.1L16.4,48.1l-0.2,0.4L15,51.6l-0.8,2.1c0,0-0.1,0-0.1-0.1c0,0,0,0,0,0l0,0
				c-0.8-0.5-0.6-1.5-0.6-1.7c0,0,0,0,0-0.1l0.2-0.5l1.2-3.1l0.7-1.8l0.1,0.1C16.4,46.8,16.4,48.1,16.4,48.1z"/>
		</g>
	</g>
</g>
</svg>
