<?xml version="1.0"?>
<svg xmlns="http://www.w3.org/2000/svg" xmlns:xlink="http://www.w3.org/1999/xlink" xmlns:svgjs="http://svgjs.com/svgjs" version="1.1" width="512" height="512" x="0" y="0" viewBox="0 0 512 512" style="enable-background:new 0 0 512 512" xml:space="preserve" class=""><g><path xmlns="http://www.w3.org/2000/svg" d="m512 256c0 141.386719-114.613281 256-256 256s-256-114.613281-256-256 114.613281-256 256-256 256 114.613281 256 256zm0 0" fill="#f1f1f1" data-original="#6e6e6e" style="" class=""/><path xmlns="http://www.w3.org/2000/svg" d="m512 256c0-14.074219-1.152344-27.878906-3.339844-41.335938l-106.164062-106.164062-96.144532 96.148438-116.648437-116.648438-86.710937 86.710938 51.507812 117.605468-61.5 125.683594 80.363281 80.363281c25.925781 8.835938 53.71875 13.636719 82.636719 13.636719 141.386719 0 256-114.613281 256-256zm0 0" fill="#f1f1f1" data-original="#5a5a5a" style="" class=""/><path xmlns="http://www.w3.org/2000/svg" d="m423 321.320312v96.679688h-330v-330h96.679688v39.960938l-19.335938 9.667968 19.335938 9.667969v19.335937l-38.671876 9.667969 38.671876 9.667969v19.335938l-19.335938 9.667968 19.335938 9.667969v19.335937l-38.671876 9.667969 38.671876 9.667969v19.335938l-19.335938 9.667968 19.335938 9.667969v19.335937h19.335937l9.667969 19.335938 9.667968-19.335938h19.335938l9.667969 38.671876 9.667969-38.671876h19.335937l9.667969 19.335938 9.667968-19.335938h19.335938l9.667969 38.671876 9.667969-38.671876h19.335937l9.667969 19.335938 9.667968-19.335938zm0 0" fill="#ffd400" data-original="#ffd400" style="" class=""/><path xmlns="http://www.w3.org/2000/svg" d="m423 321.320312v96.679688h-330l96.679688-96.679688h19.335937l9.667969 19.335938 9.667968-19.335938h19.335938l9.667969 38.671876 9.667969-38.671876h19.335937l9.667969 19.335938 9.667968-19.335938h19.335938l9.667969 38.671876 9.667969-38.671876h19.335937l9.667969 19.335938 9.667968-19.335938zm0 0" fill="#fdbf00" data-original="#fdbf00" style=""/><path xmlns="http://www.w3.org/2000/svg" d="m395.542969 156.449219-119.882813 119.882812-39.253906-1.738281h-1.160156l-.578125-39.253906 119.882812-119.882813 39.253907 1.738281h1.160156zm0 0" fill="#ff7816" data-original="#ff7816" style=""/><path xmlns="http://www.w3.org/2000/svg" d="m151.007812 127.960938h38.671876v19.335937h-38.671876zm0 0" fill="#ff9f00" data-original="#ff9f00" style=""/><path xmlns="http://www.w3.org/2000/svg" d="m151.007812 205.304688h38.671876v19.335937h-38.671876zm0 0" fill="#ff9f00" data-original="#ff9f00" style=""/><path xmlns="http://www.w3.org/2000/svg" d="m151.007812 282.648438h38.671876v19.335937h-38.671876zm0 0" fill="#ff9f00" data-original="#ff9f00" style=""/><g xmlns="http://www.w3.org/2000/svg" fill="#ff7816"><path d="m209.015625 321.320312h19.335937v38.671876h-19.335937zm0 0" fill="#ff7816" data-original="#ff7816" style=""/><path d="m286.359375 321.320312h19.335937v38.671876h-19.335937zm0 0" fill="#ff7816" data-original="#ff7816" style=""/><path d="m363.703125 321.320312h19.335937v38.671876h-19.335937zm0 0" fill="#ff7816" data-original="#ff7816" style=""/></g><path xmlns="http://www.w3.org/2000/svg" d="m131.671875 166.632812h58.007813v19.335938h-58.007813zm0 0" fill="#ff9f00" data-original="#ff9f00" style=""/><path xmlns="http://www.w3.org/2000/svg" d="m131.671875 243.976562h58.007813v19.335938h-58.007813zm0 0" fill="#ff9f00" data-original="#ff9f00" style=""/><path xmlns="http://www.w3.org/2000/svg" d="m247.6875 321.320312h19.335938v58.007813h-19.335938zm0 0" fill="#ff7816" data-original="#ff7816" style=""/><path xmlns="http://www.w3.org/2000/svg" d="m325.03125 321.320312h19.335938v58.007813h-19.335938zm0 0" fill="#ff7816" data-original="#ff7816" style=""/><path xmlns="http://www.w3.org/2000/svg" d="m275.660156 276.332031-39.253906-1.738281 157.398438-157.398438h1.160156l.578125 39.253907zm0 0" fill="#ff4b00" data-original="#ff4b00" style="" class=""/><path xmlns="http://www.w3.org/2000/svg" d="m275.660156 276.332031-69.996094 29.003907 29.003907-69.996094zm0 0" fill="#fed2a4" data-original="#fed2a4" style="" class=""/><path xmlns="http://www.w3.org/2000/svg" d="m255.164062 255.835938 20.496094 20.496093-69.996094 29.003907zm0 0" fill="#ffbd86" data-original="#ffbd86" style=""/><path xmlns="http://www.w3.org/2000/svg" d="m423 128.992188-27.457031 27.457031-40.992188-40.992188 27.457031-27.457031zm0 0" fill="#f1f1f1" data-original="#5a5a5a" style="" class=""/><path xmlns="http://www.w3.org/2000/svg" d="m375.042969 135.953125 27.457031-27.457031 20.496094 20.496094-27.457032 27.457031zm0 0" fill="#444444" data-original="#444444" style=""/></g></svg>
