<?xml version="1.0" encoding="utf-8"?>
<svg version="1.1" id="Layer_1" xmlns="http://www.w3.org/2000/svg" xmlns:xlink="http://www.w3.org/1999/xlink" x="0px" y="0px"
	width="100px" height="100px" viewBox="0 0 66.7 66.7" style="enable-background:new 0 0 66.7 66.7;" xml:space="preserve">
<g>
	<circle style="fill:#E8E8E8;" cx="33.3" cy="33.3" r="33.3"/>
	<circle style="fill:#FFFFFF;" cx="33.3" cy="33.3" r="32.7"/>
	<path style="fill:#010101;" d="M51.6,51.4h-0.9V16.1H15.9v35.3h-0.9V15.7c0-0.3,0.3-0.4,0.5-0.4h35.7c0.3,0,0.5,0.2,0.5,0.4l0,0
		L51.6,51.4L51.6,51.4z M28.3,25.4v5.9c-0.3,0.1-0.7,0-1.1,0V19.1h0.1h1.1c0.3,0,0.5,0.1,0.7,0.3c0.2,0.1,0.3,0.3,0.5,0.6
		c0.1,0.3,0.2,0.5,0.2,0.8c0.1,0.8,0.1,1.6,0.1,2.4c0,0.3-0.1,0.6-0.1,0.9c-0.1,0.3-0.3,0.6-0.5,0.8c-0.1,0.1-0.1,0.1-0.2,0.1
		l0.1,0.1c0.2,0.1,0.4,0.3,0.5,0.5c0.1,0.3,0.2,0.5,0.2,0.9c0.1,0.5,0.1,0.9,0.1,1.4v1.7c0,0.6,0.1,1.3,0.2,1.9v0.1h-1.1
		c-0.1-0.3-0.1-0.7-0.1-1l-0.1-1.7v-1.9c0-0.3-0.1-0.7-0.1-1c0-0.1,0-0.1-0.1-0.2C28.7,25.4,28.5,25.3,28.3,25.4z M28.3,20.2v4.2
		c0.3,0,0.3,0,0.4-0.2c0.1-0.1,0.1-0.1,0.1-0.2c0.1-0.3,0.1-0.5,0.1-0.9v-2c0-0.3-0.1-0.5-0.2-0.7C28.7,20.2,28.5,20.1,28.3,20.2
		C28.3,20.2,28.3,20.2,28.3,20.2z M39.9,25.2v2.2c0,0.7-0.1,1.3-0.1,2c0,0.5-0.1,0.9-0.3,1.3c-0.2,0.5-0.7,0.8-1.3,0.7
		c-0.2,0-0.5-0.1-0.6-0.3c-0.1-0.1-0.2-0.3-0.3-0.4c-0.1-0.3-0.2-0.7-0.3-1.1L36.9,27v-3l0.1-2.3c0-0.6,0.1-1.1,0.2-1.7
		c0.1-0.3,0.2-0.5,0.4-0.8c0.1-0.1,0.3-0.2,0.4-0.2c0.3-0.1,0.6-0.1,0.9,0c0.2,0.1,0.4,0.2,0.5,0.5c0.1,0.1,0.1,0.3,0.2,0.5l0.2,1.3
		C39.8,21.3,39.9,25.2,39.9,25.2z M38.4,20.1c-0.1,0.1-0.1,0.1-0.1,0.2c-0.1,0.1-0.1,0.3-0.1,0.5c0,0.5-0.1,0.9-0.1,1.3V25v3.2
		l0.1,1.5c0,0.2,0.1,0.3,0.1,0.5c0,0.1,0.1,0.1,0.1,0.1c0.1-0.1,0.1-0.1,0.1-0.3c0.1-0.1,0.1-0.3,0.1-0.5l0.1-1.6v-6.7
		c0-0.2,0-0.3-0.1-0.5c0-0.1-0.1-0.3-0.1-0.4C38.5,20.3,38.5,20.1,38.4,20.1z M34.7,23.3l-1,0.1v-0.5c0.1-0.6,0.1-1.2,0.1-1.8
		c0-0.2,0-0.3-0.1-0.5c0-0.1-0.1-0.2-0.1-0.3c0-0.1-0.1-0.1-0.1-0.1c-0.1,0.1-0.1,0.1-0.2,0.3c-0.1,0.3-0.1,0.5-0.1,0.7
		c-0.1,2.3-0.1,4.5-0.1,6.7c0,0.5,0,1.1,0.1,1.7c0,0.2,0.1,0.4,0.1,0.6c0,0.1,0.1,0.1,0.2,0.2c0.1,0,0.1-0.1,0.2-0.2
		c0.1-0.2,0.1-0.4,0.1-0.7c0.1-1.1,0.1-2.2,0.1-3.3V26h-0.5v-0.9c0.5-0.1,0.9-0.1,1.4,0v6.2h-0.3h-0.2l-0.2-0.6
		c-0.1,0.1-0.1,0.1-0.1,0.1c-0.3,0.7-1.1,0.6-1.5,0.1c-0.2-0.3-0.3-0.7-0.4-1c-0.1-0.5-0.1-1.1-0.1-1.5C32,27,32,25.5,32,24.1
		c0-0.7,0-1.4,0.1-2.1c0-0.6,0.1-1.1,0.2-1.7c0.1-0.3,0.2-0.6,0.4-0.9c0.2-0.3,0.6-0.4,0.9-0.3c0.5,0.1,0.7,0.3,0.9,0.7
		c0.1,0.3,0.2,0.6,0.2,0.9c0.1,0.5,0.1,1.1,0,1.6L34.7,23.3L34.7,23.3L34.7,23.3L34.7,23.3z M18.2,19.2c0.5,0,1,0,1.5,0.1
		c0.5,0.1,0.9,0.4,1.1,0.9c0.1,0.3,0.2,0.7,0.2,1.1c0.1,0.6,0.1,1.3,0.1,1.9c0,0.5-0.1,1.1-0.1,1.6c-0.1,0.3-0.1,0.5-0.3,0.8
		c-0.2,0.3-0.5,0.6-1,0.6h-0.4v1.3v1.3v2.7c-0.2,0-0.4,0.1-0.5,0.1h-0.5V19.2C18.2,19.2,18.2,19.2,18.2,19.2z M19.3,25.1
		c0.3,0,0.4-0.1,0.5-0.3c0.1-0.1,0.1-0.3,0.1-0.5c0.1-0.4,0.1-0.8,0.1-1.2c0-0.7,0-1.3-0.1-1.9c0-0.3-0.1-0.5-0.2-0.7
		c-0.1-0.1-0.1-0.2-0.4-0.1C19.3,20.2,19.3,25.1,19.3,25.1z M46.7,19.2h1v0.3l0.2,2.1c0.1,0.5,0.1,1,0.1,1.5l0.1,1.5
		c0,0.3,0.1,0.7,0.1,1.1l0.1,1.1c0,0.3,0.1,0.7,0.1,1.1c0,0.3,0.1,0.7,0.1,1.1c0,0.3,0.1,0.7,0.1,1c0,0.3,0.1,0.7,0.1,1.1
		c0,0.2,0.1,0.5,0.1,0.7c-0.3-0.1-0.6-0.1-1-0.1l-0.1-2.3h-0.6l-0.1,2.2h-1L46.7,19.2C46.7,19.1,46.7,19.2,46.7,19.2z M47.5,28.1V28
		l-0.1-1.7c0-0.5-0.1-0.9-0.1-1.3l-0.1-2.7v-0.2l0,0l-0.3,6L47.5,28.1L47.5,28.1L47.5,28.1z M24,24.7h1.1v1H24
		c-0.1,0.2-0.1,4.4-0.1,4.7c0.5,0,0.9,0,1.3,0.1v0.5v0.4c-0.1,0.1-2.1,0.1-2.4,0V19.2h2.3c0,0.3,0.1,0.7,0,1H24V24.7L24,24.7
		L24,24.7z M41.9,31.3V19.2c0.3,0,0.7-0.1,1.1,0v11.2h1.4v0.9C44.3,31.4,42.1,31.4,41.9,31.3L41.9,31.3z M20.8,50
		c0,0.4-0.3,0.8-0.7,0.8H20h-0.5v0.7h-0.5v-2.2H20C20.4,49.1,20.7,49.5,20.8,50z M20.3,50c0-0.2-0.1-0.3-0.3-0.3c0,0,0,0,0,0l0,0
		h-0.5v0.7H20C20.2,50.3,20.3,50.2,20.3,50C20.3,50,20.3,50,20.3,50C20.3,50,20.3,50.1,20.3,50L20.3,50z M23.1,51.1h-0.8l-0.1,0.3
		h-0.5l0.7-2.2h0.5l0.7,2.2h-0.5L23.1,51.1C23.1,51.1,23.1,51.1,23.1,51.1z M23,50.7l-0.3-0.8l-0.3,0.8H23L23,50.7z M26.7,50.3
		c0,0.6-0.5,1.1-1,1.1h-0.1h-0.8v-2.2h0.8C26.2,49.3,26.7,49.7,26.7,50.3C26.7,50.3,26.7,50.3,26.7,50.3z M25.3,51h0.3
		c0.4,0,0.6-0.3,0.7-0.7c0-0.3-0.3-0.6-0.7-0.6h-0.3L25.3,51L25.3,51z M29.9,50.3c0,0.6-0.5,1.1-1,1.1h-0.1H28v-2.2h0.8
		C29.4,49.3,29.9,49.7,29.9,50.3C29.9,50.3,29.9,50.3,29.9,50.3z M28.5,51h0.3c0.4,0,0.6-0.3,0.7-0.7c0-0.3-0.3-0.6-0.7-0.6h-0.3
		L28.5,51L28.5,51z M31.1,49.3h0.5v2.2h-0.5V49.3z M34.9,49.3v2.2h-0.5L33.5,50v1.5H33v-2.2h0.5l0.9,1.4v-1.4
		C34.4,49.3,34.9,49.3,34.9,49.3z M38.3,50.3L38.3,50.3c0,0.6-0.4,1.1-1,1.1h-0.1c-0.6,0-1.1-0.5-1.1-1.1v-0.1
		c0-0.6,0.5-1.1,1.1-1.1c0.4,0,0.7,0.2,0.9,0.5l-0.3,0.2c-0.2-0.3-0.6-0.5-0.9-0.3c-0.2,0.1-0.3,0.4-0.3,0.7c0,0.3,0.3,0.7,0.6,0.7
		h0.1c0.3,0,0.5-0.2,0.6-0.5h-0.7v-0.3L38.3,50.3C38.3,50.3,38.3,50.3,38.3,50.3z M40.1,49.7h-0.7v-0.5h1.7v0.5h-0.7v1.7H40
		L40.1,49.7L40.1,49.7z M43.4,49.2c0.6,0,1.1,0.5,1.1,1.1c0,0.7-0.5,1.1-1.1,1.1c-0.6,0-1.1-0.5-1.1-1.1l0,0
		C42.2,49.7,42.7,49.2,43.4,49.2C43.3,49.2,43.3,49.2,43.4,49.2z M43.4,51c0.4,0,0.7-0.3,0.7-0.7c0-0.4-0.3-0.7-0.7-0.7
		c-0.4,0-0.7,0.3-0.7,0.7l0,0C42.7,50.7,42.9,51,43.4,51L43.4,51L43.4,51z M47.6,49.3v2.2h-0.5L46.3,50v1.5h-0.5v-2.2h0.4l0.9,1.4
		v-1.4C47.2,49.3,47.6,49.3,47.6,49.3z"/>
</g>
</svg>
