<?xml version="1.0"?>
<svg xmlns="http://www.w3.org/2000/svg" xmlns:xlink="http://www.w3.org/1999/xlink" xmlns:svgjs="http://svgjs.com/svgjs" version="1.1" width="512" height="512" x="0" y="0" viewBox="0 0 512 512" style="enable-background:new 0 0 512 512" xml:space="preserve" class=""><g><g xmlns="http://www.w3.org/2000/svg"><circle cx="256" cy="256" fill="#f1f1f1" r="256" data-original="#5f97fb" style="" class=""/><path d="m511.962 258.999-138.381-138.381-114.482 114.481-8.648-8.648-164.931 164.931 114.451 114.451c18.035 4.027 36.781 6.167 56.029 6.167 140.382 0 254.352-113 255.962-253.001z" fill="#f1f1f1" data-original="#5688e1" style="" class=""/><path d="m153.579 120.618v145.245l-4.52 6.196 4.52 7.686v60.873h110l29.382-157.617-51.961-62.383z" fill="#e8a354" data-original="#e8a354" style="" class=""/><path d="m373.579 120.618h-87.421l-22.579 64.022v155.978h110z" fill="#e6973e" data-original="#e6973e" style="" class=""/><path d="m241 120.618v78.495l22.579-14.473 9.698-33.772-9.698-30.25z" fill="#f7e46f" data-original="#f7e46f" style=""/><path d="m286.158 120.618h-22.579v64.022l22.579 14.473z" fill="#f5db48" data-original="#f5db48" style=""/><path d="m215.996 332.851v-7.994h47.583l11.588-24.063-11.588-21.049h-47.583-62.417l-16.108 48.878 16.108 48.877h110l11.588-21.647-11.588-23.002z" fill="#ffbda9" data-original="#ffbda9" style="" class=""/><path d="m357.107 377.45 64.4-84.684c6.63-8.718 6.63-22.853 0-31.572-6.63-8.718-17.379-8.718-24.009 0l-54.493 71.657h-79.425v44.649h93.528v-.05z" fill="#f9a58d" data-original="#f9a58d" style="" class=""/><path d="m305.142 324.857c9.473 0 17.153-7.68 17.153-17.153v-10.805c0-9.473-7.68-17.153-17.153-17.153h-41.563v45.111z" fill="#f9a58d" data-original="#f9a58d" style="" class=""/><path d="m85.52 265.863h68.059v125.519h-68.059z" fill="#ff633d" data-original="#ff633d" style=""/></g></g></svg>
