<?xml version="1.0" encoding="utf-8"?>
<svg version="1.1" id="Layer_1" xmlns="http://www.w3.org/2000/svg" xmlns:xlink="http://www.w3.org/1999/xlink" x="0px" y="0px"
	width="100px" height="100px" viewBox="0 0 66.7 66.7" style="enable-background:new 0 0 66.7 66.7;" xml:space="preserve">
<g>
	<circle style="fill:#E8E8E8;" cx="33.3" cy="33.3" r="33.3"/>
	<circle style="fill:#FFFFFF;" cx="33.3" cy="33.3" r="32.7"/>
	<path style="fill:#1C1C1C;" d="M26.1,36.3h-1.5v-7.8h2.2c1,0,1.5,0.1,1.9,0.6c0.5,0.5,0.7,1.1,0.7,1.9c0,1.6-0.9,2.5-2.5,2.5h-0.9
		V36.3 M26.6,32c0.9,0,1.3-0.4,1.3-1.1c0-0.8-0.5-1.1-1.5-1.1H26V32H26.6C26.6,32,26.6,32,26.6,32z M30.7,34.7l-0.7,1.7h-1.5
		l3.2-8.1h1.1l3.1,8.1h-1.5l-0.7-1.7H30.7C30.7,34.7,30.7,34.7,30.7,34.7z M32.3,30.5l-1.1,2.8h2.1L32.3,30.5z M41.6,36.3h-1.8
		l-2-3.1h-0.1v3.1h-1.4v-7.8h2.1c1.7,0,2.6,0.9,2.6,2.3c0,1.2-0.6,2-1.7,2.2L41.6,36.3 M38.1,32c0.9,0,1.4-0.5,1.4-1.2
		s-0.5-1.2-1.4-1.2h-0.4V32H38.1z M46.2,28.5H48l-3.1,3.6l3.3,4.2h-1.9l-2.7-3.5l-0.2,0.2v3.3H42v-7.8h1.4v3.3L46.2,28.5z"/>
	<path style="fill:#ED1C2E;" d="M44.1,37.6l-5.3,5.3H43l5.3-5.3H44.1z M52.6,37.6h-4.2l5.3-5.5h4.2C57.9,32.1,52.6,37.6,52.6,37.6z"
		/>
	<path style="fill:#1C1C1C;" d="M19.2,32.1H15l3.3,3.4c-0.8,0.5-1.7,0.7-2.7,0.7c-3.1,0-5.6-2.5-5.6-5.5s2.5-5.5,5.6-5.5
		s5.6,2.5,5.6,5.5c0,1-0.3,1.9-0.7,2.7L19.2,32.1 M19.3,36.5l1.1,1.1h4.2l-3.1-3.2c0.7-1.1,1.1-2.4,1.1-3.7c0-3.8-3.1-6.9-6.9-6.9
		s-6.9,3.1-6.9,6.9s3.1,6.9,6.9,6.9C16.9,37.5,18.2,37.1,19.3,36.5"/>
</g>
</svg>
