<svg xmlns="http://www.w3.org/2000/svg" viewBox="0 0 440.8 107.6"><path d="M167.3 46.8c-1.3 8.8-8 8.8-14.5 8.8h-3.7l2.6-16.4c.2-1 1-1.7 2-1.7h1.7c4.4 0 8.6 0 10.7 2.5 1.3 1.5 1.7 3.7 1.2 6.8zm-2.8-22.9h-24.4c-1.7 0-3.1 1.2-3.4 2.9l-9.9 62.6c-.2 1.2.8 2.3 2 2.3h11.7c1.7 0 3.1-1.2 3.4-2.9l2.7-16.9c.3-1.7 1.7-2.9 3.3-2.9h7.7c16.1 0 25.4-7.8 27.8-23.2 1.1-6.7 0-12-3.1-15.8-3.5-3.9-9.7-6.1-17.8-6.1zm56.7 45.3c-1.1 6.7-6.4 11.2-13.2 11.2-3.4 0-6.1-1.1-7.9-3.2-1.7-2-2.4-5-1.8-8.2 1.1-6.6 6.4-11.3 13.1-11.3 3.3 0 6 1.1 7.8 3.2 1.8 2.2 2.5 5.1 2 8.3zm16.3-22.7h-11.7c-1 0-1.9.7-2 1.7l-.5 3.3-.8-1.2c-2.5-3.7-8.2-4.9-13.8-4.9-12.9 0-24 9.8-26.1 23.5-1.1 6.8.5 13.4 4.4 18 3.6 4.2 8.7 5.9 14.7 5.9 10.4 0 16.2-6.7 16.2-6.7l-.5 3.2c-.2 1.2.8 2.4 2 2.4h10.5c1.7 0 3.1-1.2 3.4-2.9l6.3-40c.1-1.2-.9-2.3-2.1-2.3zm62.2 0H288c-1.1 0-2.2.6-2.8 1.5L269 71.8l-6.9-22.9c-.4-1.4-1.8-2.4-3.3-2.4h-11.5c-1.4 0-2.4 1.4-1.9 2.7l12.9 38-12.2 17.2c-1 1.4 0 3.2 1.7 3.2h11.7c1.1 0 2.2-.5 2.8-1.5l39.1-56.4c.9-1.4 0-3.2-1.7-3.2z" fill="#253b80"/><path d="M341.4 46.8c-1.3 8.8-8 8.8-14.5 8.8h-3.7l2.6-16.4c.2-1 1-1.7 2-1.7h1.7c4.4 0 8.6 0 10.7 2.5 1.3 1.5 1.7 3.7 1.2 6.8zm-2.8-22.9h-24.4c-1.7 0-3.1 1.2-3.3 2.9L301 89.4c-.2 1.2.8 2.3 2 2.3h12.5c1.2 0 2.2-.8 2.3-2l2.8-17.7c.3-1.7 1.7-2.9 3.3-2.9h7.7c16.1 0 25.4-7.8 27.8-23.2 1.1-6.7 0-12-3.1-15.8-3.3-4-9.5-6.2-17.7-6.2zm56.7 45.3c-1.1 6.7-6.4 11.2-13.2 11.2-3.4 0-6.1-1.1-7.9-3.2-1.7-2-2.4-5-1.8-8.2 1.1-6.6 6.5-11.2 13.1-11.2 3.3 0 6 1.1 7.8 3.2s2.5 5 2 8.2zm16.3-22.7h-11.7c-1 0-1.9.7-2 1.7l-.5 3.3-.8-1.2c-2.5-3.7-8.2-4.9-13.8-4.9-12.9 0-24 9.8-26.1 23.5-1.1 6.8.5 13.4 4.4 18 3.6 4.2 8.7 5.9 14.7 5.9 10.4 0 16.2-6.7 16.2-6.7l-.5 3.2c-.2 1.2.8 2.4 2 2.4H404c1.7 0 3.1-1.2 3.3-2.9l6.3-40c.2-1.2-.7-2.3-2-2.3zm13.8-20.9l-10 63.8c-.2 1.2.8 2.3 2 2.3h10.1c1.7 0 3.1-1.2 3.4-2.9l9.9-62.6c.2-1.2-.8-2.4-2-2.4h-11.3c-1.1.1-2 .8-2.1 1.8z" fill="#179bd7"/><path d="M25.5 102.5l1.9-11.7-4.1-.1H3.8L17.4 4.5c0-.3.2-.5.4-.7a1.08 1.08 0 0 1 .7-.3h33c10.9.1 18.5 2.4 22.4 6.8 1.9 2.1 3.1 4.3 3.6 6.7.6 2.6.6 5.6 0 9.3v.3V29l1.9 1.1c1.6.8 2.8 1.8 3.7 2.9 1.6 1.8 2.6 4.1 3.1 6.8.5 2.8.3 6.1-.4 9.8-.9 4.3-2.2 8.1-4 11.2-1.7 2.9-3.8 5.2-6.4 7-2.5 1.8-5.3 3.1-8.7 3.9-3.2.8-6.8 1.3-10.8 1.3h-2.7c-1.9 0-3.6.7-5 1.9s-2.4 2.9-2.7 4.6l-.2 1.1-3.3 20.6-.1.8c0 .2-.1.4-.2.4-.1.1-.2.1-.3.1H25.5h0z" fill="#253b80"/><path d="M89.2 50.3c-3.8 19.5-16.8 26.3-33.5 26.3h-2.6c-2 0-3.7 1.5-4 3.4l-.2 1.1-3.2 20.5-.2.9c-.3 2-2 3.4-4 3.4h-17c-1.6 0-2.7-1.4-2.5-2.9l1.4-8.9 4.9-31.4c0-.2.1-.4.1-.6.6-2 2.3-3.4 4.5-3.4h9.7c19 0 33.9-7.7 38.3-29.9l.3-2h0 0c1.8 1 3.4 2.1 4.6 3.5 4.2 5.1 4.9 11.9 3.4 20z" fill="#179bd7"/><path d="M81.1 27l-.3 1.8C76.5 51.3 61.6 59 42.5 59h-9.7c-2.2 0-4.1 1.6-4.6 3.7l.1-.4.1-.3 5.5-35c.1-.9.5-1.6 1.1-2.2l.1-.1a4.44 4.44 0 0 1 1.1-.8c.5-.3 1.2-.4 1.8-.4h25.9c3.1 0 6 .2 8.6.6.7.1 1.5.2 2.2.4.7.1 1.4.3 2.1.5.3.1.6.2.9.4 1.2.4 2.4.8 3.4 1.4v.1.1h0z" fill="#222d65"/><path d="M81 26.8h0 0c-1.1-.5-2.3-1-3.6-1.4l-1-.3-2.1-.5-2.2-.4c-2.7-.4-5.5-.6-8.6-.6H37.9c-.6 0-1.2.1-1.8.4-.4.2-.7.4-1 .7l-.1.1c-.6.6-1.1 1.4-1.2 2.3L28.3 62l-5.1 32.4H2.8c-1.7 0-3.1-1.6-2.8-3.2L13.8 3.9c.3-2.2 2.3-3.9 4.7-3.9h33c11.3 0 20.2 2.4 25.1 8 4.4 5 5.7 10.6 4.4 18.8z" fill="#253b80"/></svg>