<?xml version="1.0"?>
<svg xmlns="http://www.w3.org/2000/svg" xmlns:xlink="http://www.w3.org/1999/xlink" xmlns:svgjs="http://svgjs.com/svgjs" version="1.1" width="512" height="512" x="0" y="0" viewBox="0 0 512 512" style="enable-background:new 0 0 512 512" xml:space="preserve" class=""><g>
<circle xmlns="http://www.w3.org/2000/svg" style="" cx="256" cy="256" r="256" fill="#f1f1f1" data-original="#ffe733" class=""/>
<path xmlns="http://www.w3.org/2000/svg" style="" d="M512,256c0-10.584-0.655-21.014-1.903-31.261L365.239,79.881L80.5,241l108.824,108.824L80.5,370.479  l138.906,138.906C231.359,511.096,243.573,512,256,512C397.385,512,512,397.385,512,256z" fill="#f1f1f1" data-original="#ffc73b" class=""/>
<path xmlns="http://www.w3.org/2000/svg" style="" d="M366.392,168.026c-5.94-15.618,1.906-33.095,17.524-39.034l-18.677-49.11L75.426,190.1l18.677,49.11  c15.618-5.94,33.095,1.906,39.035,17.524c5.94,15.618-1.906,33.095-17.524,39.034l19.148,50.349L424.574,235.9l-19.148-50.349  C389.808,191.49,372.331,183.644,366.392,168.026z" fill="#0c21ba" data-original="#0c21ba" class=""/>
<path xmlns="http://www.w3.org/2000/svg" style="" d="M405.426,185.551c-15.618,5.94-33.095-1.906-39.034-17.524c-5.94-15.618,1.906-33.095,17.524-39.034  l-18.677-49.111L255.572,121.59v178.584L424.575,235.9L405.426,185.551z" fill="#111b9b" data-original="#111b9b"/>
<path xmlns="http://www.w3.org/2000/svg" style="" d="M397.25,275.25c0-18.916,15.334-34.25,34.25-34.25v-59.479h-351V241  c18.916,0,34.25,15.334,34.25,34.25S99.416,309.5,80.5,309.5v60.979h351V309.5C412.584,309.5,397.25,294.166,397.25,275.25z" fill="#2144d6" data-original="#2144d6" class=""/>
<g xmlns="http://www.w3.org/2000/svg">
	<path style="" d="M431.5,241v-59.479H255.571v188.958H431.5V309.5c-18.916,0-34.25-15.334-34.25-34.25   S412.584,241,431.5,241z" fill="#0c21ba" data-original="#0c21ba" class=""/>
	<rect x="150.5" y="213" style="" width="211" height="126" fill="#0c21ba" data-original="#0c21ba" class=""/>
</g>
<rect xmlns="http://www.w3.org/2000/svg" x="255.57" y="213" style="" width="105.93" height="126" fill="#111b9b" data-original="#111b9b"/>
<path xmlns="http://www.w3.org/2000/svg" style="" d="M361.5,286.29c-2.348,0.592-4.968,0.933-7.96,0.933c-24.389,0-24.389-22.431-48.778-22.431  c-24.388,0-24.388,22.431-48.776,22.431c-24.387,0-24.387-22.431-48.775-22.431c-24.385,0-24.385,22.431-48.769,22.431  c-2.985,0-5.6-0.34-7.943-0.929v52.748h211L361.5,286.29L361.5,286.29z" fill="#00f0fc" data-original="#00f0fc" class=""/>
<path xmlns="http://www.w3.org/2000/svg" style="" d="M361.5,286.29c-2.348,0.592-4.968,0.934-7.96,0.934c-24.389,0-24.389-22.432-48.778-22.432  c-24.388,0-24.388,22.432-48.776,22.432c-0.143,0-0.274-0.011-0.415-0.012v51.831H361.5V286.29z" fill="#00caf9" data-original="#00caf9"/>
<g xmlns="http://www.w3.org/2000/svg">
</g>
<g xmlns="http://www.w3.org/2000/svg">
</g>
<g xmlns="http://www.w3.org/2000/svg">
</g>
<g xmlns="http://www.w3.org/2000/svg">
</g>
<g xmlns="http://www.w3.org/2000/svg">
</g>
<g xmlns="http://www.w3.org/2000/svg">
</g>
<g xmlns="http://www.w3.org/2000/svg">
</g>
<g xmlns="http://www.w3.org/2000/svg">
</g>
<g xmlns="http://www.w3.org/2000/svg">
</g>
<g xmlns="http://www.w3.org/2000/svg">
</g>
<g xmlns="http://www.w3.org/2000/svg">
</g>
<g xmlns="http://www.w3.org/2000/svg">
</g>
<g xmlns="http://www.w3.org/2000/svg">
</g>
<g xmlns="http://www.w3.org/2000/svg">
</g>
<g xmlns="http://www.w3.org/2000/svg">
</g>
</g></svg>
