<?xml version="1.0" encoding="utf-8"?>
<svg version="1.1" id="Layer_1" xmlns="http://www.w3.org/2000/svg" xmlns:xlink="http://www.w3.org/1999/xlink" x="0px" y="0px"
	width="100px" height="100px" viewBox="0 0 1418.01 1418.01" style="enable-background:new 0 0 1418.01 1418.01;" xml:space="preserve">
<g>
	<path style="fill:#012B7F;" d="M709.01,0L709.01,0c391.57,0,709.01,317.43,709.01,709.01v0c0,391.57-317.43,709.01-709.01,709.01h0
		C317.43,1418.01,0,1100.58,0,709.01v0C0,317.43,317.43,0,709.01,0z"/>
	<path style="fill:#FFFFFF;" d="M1017.16,254.79c-82.79,1.11-148.85,69.13-147.74,151.92l1.39,100.07
		c0.28,17.84-6.69,34.84-18.95,47.39l-5.02,5.02c-12.26,12.82-29.27,20.07-47.11,20.35l-14.22,0.28
		c-23.41-15.05-51.29-23.69-81.39-23.41c-24.77,0.25-49.06,6.88-70.52,19.23c-4.74-0.28-9.2-0.56-13.94-0.56H618
		c-17.56,0.28-34.84-6.41-47.39-18.95c-12.82-12.26-20.07-29.27-20.35-47.11l-1.39-106.48c-1.12-82.79-69.13-148.85-151.92-147.74
		S248.1,323.92,249.22,406.71s69.13,148.85,151.92,147.74l100.07-1.39c17.84-0.28,34.84,6.69,47.39,18.95l5.02,5.02
		c12.82,12.54,20.07,29.55,20.35,47.11l0.28,14.22h0.28c-10.03,20.35-15.89,43.21-15.33,67.46c0.28,28.99,9.2,56.03,23.97,78.61
		c0,2.79-0.28,5.57-0.28,8.36v1.67c0.28,17.84-6.69,34.84-18.95,47.39c-12.26,12.82-29.27,20.07-47.11,20.35l-106.48,1.39
		c-82.79,1.12-148.85,69.13-147.74,151.92s69.13,148.85,151.92,147.74c82.79-1.11,148.85-69.13,147.74-151.92l-1.39-100.07
		c-0.28-17.56,6.69-34.84,18.95-47.39l5.02-5.02c12.54-12.82,29.27-20.07,47.11-20.35l13.94-0.28c0,0,0-0.28-0.28-0.28
		c18.95,8.64,40.14,13.38,62.16,13.1c81.39-1.12,146.34-67.74,145.23-149.13c-0.28-14.77-2.51-28.99-6.69-42.09
		c1.39-11.15,2.23-22.58,2.23-34.29v-1.67c-0.28-17.56,6.69-34.84,18.95-47.39c12.26-12.82,29.27-20.07,47.11-20.35l106.48-1.39
		c82.79-1.12,148.85-69.13,147.74-151.92C1167.96,320.02,1099.95,253.68,1017.16,254.79"/>
</g>
</svg>
