<?xml version="1.0" encoding="utf-8"?>
<svg version="1.1" id="Layer_1" xmlns="http://www.w3.org/2000/svg" xmlns:xlink="http://www.w3.org/1999/xlink" x="0px" y="0px"
	width="100px" height="100px" viewBox="0 0 100 100" style="enable-background:new 0 0 100 100;" xml:space="preserve">
<g>
	<path style="fill:#E8E8E8;" d="M50,0c27.61,0,50,22.39,50,50s-22.39,50-50,50S0,77.61,0,50S22.39,0,50,0"/>
	<path style="fill:#FFFFFF;" d="M50,1c27.06,0,49,21.94,49,49S77.06,99,50,99S1,77.06,1,50S22.94,1,50,1"/>
	<g id="layer1">
		<g id="g4031" transform="translate(-48.81891,-428.7559)">
			<path id="_46875728" style="fill-rule:evenodd;clip-rule:evenodd;fill:#707073;" d="M68.18,483.5l-1.72-4.59
				c-0.64-1.7-1.01-1.91-1.93-1.91l0,6.5h-4.22v-16.41h5.65c4.83,0,6.38,1.95,6.38,4.69c0,2.82-1.48,4.26-3.41,4.59
				c0.57,0.16,1.25,0.92,1.65,1.77c0.54,1.11,1.93,4.14,2.47,5.37H68.18z M64.53,470.55v3.34h1.2c1.44,0,1.93-0.68,1.93-1.79
				c0-1.18-0.64-1.55-1.95-1.55H64.53z M74.8,483.5v-16.41h9.23v3.46h-5.02v2.75h4.1v3.34h-4.1v3.34h5.63v3.51H74.8z M101.64,483.5
				h-4.5l-0.85-4.76c-0.35-1.98-0.73-4.12-0.8-5.16h-0.02c-0.05,0.82-0.4,3.01-0.8,5.16l-0.87,4.76h-4.59l-3.98-16.41h4.45
				l0.92,4.43c0.78,3.7,0.92,5.3,0.94,5.91h0.02c0.09-1.32,0.38-3.37,0.82-5.79l0.85-4.54h4.69l1.06,5.49
				c0.24,1.25,0.57,2.83,0.66,4.83h0.02c0.09-1.46,0.59-4.64,0.92-6.24l0.82-4.07h4.5L101.64,483.5L101.64,483.5z M107.08,483.5
				v-16.41h9.23v3.46h-5.01v2.75h4.1v3.34h-4.1v3.34h5.63v3.51H107.08z M115.75,487.29c-0.21-0.21-0.47-0.29-0.77-0.29
				c-0.23,0-0.46,0.08-0.62,0.21c-0.45,0.36-0.67,1.39-0.67,1.87c0,0.52,0.25,0.73,0.71,0.73c0.18,0,0.32-0.03,0.46-0.1l0.19-0.89
				h-0.58v-0.65h1.54l-0.41,1.9c-0.45,0.24-0.91,0.33-1.38,0.33c-0.92,0-1.4-0.54-1.4-1.36c0-0.9,0.41-1.76,0.92-2.18
				c0.47-0.39,0.85-0.5,1.37-0.5c0.48,0,0.87,0.15,1.15,0.45L115.75,487.29z M120.45,486.41c0.59,0,0.94,0.33,0.94,0.86
				c0,0.78-0.53,1.27-1.13,1.38c0.07,0.04,0.13,0.14,0.17,0.2c0.19,0.33,0.59,1.5,0.59,1.5h-0.93l-0.21-0.64
				c-0.24-0.72-0.36-0.92-0.49-0.98c-0.03-0.02-0.07-0.02-0.1-0.02l-0.35,1.64h-0.8l0.84-3.93H120.45z M119.42,488.11h0.24
				c0.34,0,0.49-0.04,0.62-0.14c0.15-0.12,0.25-0.37,0.25-0.54c0-0.27-0.18-0.39-0.5-0.39h-0.39L119.42,488.11z M126.88,487.78
				c0,0.99-0.5,2.07-1.3,2.45c-0.26,0.12-0.56,0.19-0.89,0.19c-0.97,0-1.35-0.59-1.35-1.41c0-1.12,0.54-1.92,1.05-2.28
				c0.23-0.17,0.55-0.36,1.15-0.36C126.41,486.36,126.88,486.9,126.88,487.78 M124.72,487.32c-0.31,0.41-0.52,1.27-0.52,1.8
				c0,0.5,0.22,0.68,0.61,0.68c0.23,0,0.46-0.07,0.64-0.29c0.34-0.42,0.54-1.35,0.54-1.9c0-0.39-0.16-0.64-0.59-0.64
				C125.14,486.97,124.88,487.11,124.72,487.32z M130.32,486.41l-0.55,2.59c-0.05,0.22-0.06,0.39-0.03,0.47
				c0.05,0.18,0.22,0.27,0.48,0.27c0.36,0,0.61-0.2,0.7-0.48c0.03-0.08,0.04-0.12,0.09-0.33l0.54-2.52h0.8l-0.57,2.65
				c-0.11,0.5-0.2,0.77-0.5,1c-0.15,0.11-0.45,0.36-1.18,0.36c-0.76,0-1.2-0.34-1.2-0.85c0-0.13,0.02-0.28,0.04-0.42l0.58-2.74
				H130.32z M135.9,486.41c0.53,0,0.83,0.06,1.02,0.18c0.25,0.15,0.4,0.41,0.4,0.72c0,0.68-0.32,1.18-0.91,1.45
				c-0.2,0.09-0.53,0.14-0.84,0.14h-0.42l-0.31,1.45h-0.81l0.84-3.93H135.9z M135.29,488.25h0.4c0.31,0,0.48-0.07,0.58-0.19
				c0.12-0.14,0.2-0.37,0.2-0.59c0-0.26-0.14-0.41-0.44-0.41h-0.49L135.29,488.25z"/>
			<polygon id="_46959624" style="fill-rule:evenodd;clip-rule:evenodd;fill:#CC081F;" points="127,483.5 120.16,483.5 
				120.16,476.66 127,476.66 			"/>
			<polygon id="_92033232" style="fill-rule:evenodd;clip-rule:evenodd;fill:#FCC200;" points="137.25,483.5 130.41,483.5 
				130.41,476.66 137.25,476.66 			"/>
		</g>
	</g>
</g>
</svg>
