<svg xmlns="http://www.w3.org/2000/svg" viewBox="0 0 241.55 149.36" fill="#d6bd85"><path d="M124.16 27.68h10.78l-1.02-3.86h-10.78l1.02 3.86zm19.15 4.02a14 14 0 0 0 .4-3.36 14.22 14.22 0 0 0-14.19-14.21H104.4a4.26 4.26 0 0 1-3.32-1.1 3.75 3.75 0 0 1-.75-2.54 32.78 32.78 0 0 1 20.45-7.09 33.16 33.16 0 0 1 32.44 40 14.17 14.17 0 0 0-9.91-11.69m-9.78 35.45l-3.05-2.66a15.17 15.17 0 0 1-5-14v-.24a7.72 7.72 0 0 0 13.35-7.72c8.32.86 11.54 3.9 11.57 3.93l1.5 1.53a33.31 33.31 0 0 1-18.37 19.18m-12.75 2.56a32.89 32.89 0 0 1-23.33-9.63v-10.4a15.24 15.24 0 0 1 15.23-15.23h.17.84 24.71a10.84 10.84 0 0 1-5.5 4.11l-4.65 1.53 4.7 1.71.14.05a5.54 5.54 0 0 1 1.69.93 4.45 4.45 0 0 1 1.6 3.37 4.32 4.32 0 0 1-8.63.13v-.42a11 11 0 0 1 .25-2.46l-2.76-1-.1.15a17.77 17.77 0 0 0-3 7.4 18.52 18.52 0 0 0 6.13 17.08l1.59 1.38a33 33 0 0 1-9.06 1.27m-26.8-20v6.41a32.78 32.78 0 0 1-6.42-19.56 33.17 33.17 0 0 1 7.44-20.89v.17a18.75 18.75 0 0 0 10.38 16.71A18.76 18.76 0 0 0 94 49.71m48.12-14.81a10.83 10.83 0 0 1 7.27 6.94 31.19 31.19 0 0 0-10.64-2.7 14.46 14.46 0 0 0 3.37-4.24M98.54 15.3a7.45 7.45 0 0 0 5.86 2.24h25.12a10.8 10.8 0 0 1 10.79 10.8 11.17 11.17 0 0 1-.31 2.76h-.8-25.51a15.26 15.26 0 0 1-15.23-15.16c0-.21.05-.43.08-.64M120.78 0a36.56 36.56 0 1 0 36.55 36.56A36.6 36.6 0 0 0 120.78 0M18.2 109.86a20.58 20.58 0 0 0-6.66-3 19.15 19.15 0 0 1-4.94-2 2.85 2.85 0 0 1-1.28-2.42 3.15 3.15 0 0 1 1.2-2.54 5.49 5.49 0 0 1 3.56-1 8.92 8.92 0 0 1 6.62 2.73l3-3.05a13 13 0 0 0-9.31-3.86 10.39 10.39 0 0 0-6.7 2.15A7 7 0 0 0 1 102.63 6.64 6.64 0 0 0 3.21 108q1.79 1.5 6.71 3a19 19 0 0 1 5 2.09 3.07 3.07 0 0 1 1.4 2.62q0 4.16-5.89 4.15a9.67 9.67 0 0 1-7.39-3.37l-3 3A12.74 12.74 0 0 0 10.12 124c3.52 0 6.19-.79 8-2.39a7.88 7.88 0 0 0 2.52-6.22 6.86 6.86 0 0 0-2.44-5.57m14.32.65h9.8v-4.14h-9.8V99.3h14.05v-4.14H28.25v11.17h-3.93v4.14h3.93v13.13h18.93v-4.15H32.52v-8.98zm68.13 10.41q2.8-3.18 2.81-9.15V95.16h-4.27v16.65q0 8-6.58 8-6.58 0-6.5-8.25v-16.4h-4.27v16.49q0 5.94 2.72 9.16C86.38 123 89 124 92.53 124s6.25-1.05 8.12-3.16m15.54-25.68h-4.27v28.44h18.45v-4.19h-14.18V95.16zm43.37 24.54H152v-9.43h7.72a5.16 5.16 0 0 1 3.71 1.26 4.54 4.54 0 0 1 1.32 3.45q0 4.72-5.16 4.72M152 99.06h7.63q3.94 0 4 3.73a3.51 3.51 0 0 1-.94 2.52 3.91 3.91 0 0 1-3 1.1H152zm12.23 9.18a6 6 0 0 0 3.61-5.69 6.87 6.87 0 0 0-2.19-5.46 8.74 8.74 0 0 0-6-1.93h-11.7v11.25H144v3.86h3.92v13.33h11.3q4.71 0 7.23-2.22c1.68-1.47 2.52-3.65 2.52-6.52a6.81 6.81 0 0 0-1.54-4.55 6.3 6.3 0 0 0-3.25-2.07m30.82.08v-9.14h8.29a5 5 0 0 1 3.51 1.2 4.35 4.35 0 0 1 1.32 3.39q0 4.55-4.83 4.55zm11.21 3.68q6.25-1.59 6.26-8.33a8 8 0 0 0-2.72-6.46 9.69 9.69 0 0 0-6.42-2h-12.48v28.39H195v-11.26h6.42l5.65 11.26H212zm21.48 7.45h-3.49V99.3h3.49q9.51 0 9.51 10.08 0 10.08-9.51 10.07m9.79-21q-3.66-3.33-9.79-3.33h-7.76v28.48h7.76a14 14 0 0 0 9.71-3.33q4.14-3.78 4.15-10.89.01-7.11-4.07-10.89M69.63 117a7.19 7.19 0 0 1-11.37 0 12.68 12.68 0 0 1-2-7.61 12.7 12.7 0 0 1 2-7.62 7.19 7.19 0 0 1 11.37 0 12.77 12.77 0 0 1 2 7.62 12.75 12.75 0 0 1-2 7.61m6.37-7.62q0-6.54-3.29-10.61a10.71 10.71 0 0 0-8.78-4.06 10.66 10.66 0 0 0-8.73 4.06q-3.3 4.07-3.29 10.61.01 6.54 3.28 10.62a10.66 10.66 0 0 0 8.73 4 10.71 10.71 0 0 0 8.78-4q3.3-4.08 3.3-10.62"/><path d="M176.84 95.16h4.27v28.44h-4.27zM49.73 149.22h-1.49l-2.51-4.5-1.63 2v2.53h-1.28v-8.77h1.28v3 1.55l1-1.31 2.59-3.25h1.49l-2.57 3.18zm7.83-4.38a4 4 0 0 0-.62-2.35 2.06 2.06 0 0 0-1.76-.86 2 2 0 0 0-1.75.86 4.74 4.74 0 0 0 0 4.69 2 2 0 0 0 1.75.86 2 2 0 0 0 1.76-.86 3.94 3.94 0 0 0 .62-2.34m1.34 0a5 5 0 0 1-1 3.26 3.52 3.52 0 0 1-5.4 0 5.78 5.78 0 0 1 0-6.53 3.52 3.52 0 0 1 5.4 0 5 5 0 0 1 1 3.27m8.23-1.73a1.36 1.36 0 0 0-.41-1.05 1.57 1.57 0 0 0-1.08-.37h-2.56v2.82h2.56c1 0 1.49-.47 1.49-1.4m1.33 0a2.38 2.38 0 0 1-1.93 2.57l1.79 3.58H66.8l-1.74-3.47h-2v3.47h-1.27v-8.77h3.85a3 3 0 0 1 2 .63 2.45 2.45 0 0 1 .84 2M85.52 146l-.71-2-.66-2c-.15.57-.36 1.24-.64 2l-.7 2zm2.54 3.26h-1.4l-.74-2.08h-3.51l-.73 2.08h-1.36l3.15-8.77h1.39zm9.3-.04h-1.25l-3.5-5.5-.65-1.08v1 5.62H90.7v-8.77H92l3.33 5.35.72 1.24v-1-1.09-4.52h1.28zm80.54-4.38a4 4 0 0 0-.62-2.35 2.22 2.22 0 0 0-3.51 0 4.74 4.74 0 0 0 0 4.69 2.22 2.22 0 0 0 3.51 0 3.94 3.94 0 0 0 .62-2.34m1.34 0a5 5 0 0 1-1 3.26 3.51 3.51 0 0 1-5.39 0 5.74 5.74 0 0 1 0-6.53 3.51 3.51 0 0 1 5.39 0 5 5 0 0 1 1 3.27m8.59 0a4 4 0 0 0-.62-2.35 2.22 2.22 0 0 0-3.51 0 4.74 4.74 0 0 0 0 4.69 2.22 2.22 0 0 0 3.51 0 3.94 3.94 0 0 0 .62-2.34m1.34 0a5 5 0 0 1-1 3.26 3.52 3.52 0 0 1-5.4 0 5.78 5.78 0 0 1 0-6.53 3.52 3.52 0 0 1 5.4 0 5 5 0 0 1 1 3.27"/><path d="M197.39 144.84q0-3.1-2.93-3.11h-1.08v6.21h1.08q2.92 0 2.93-3.1m1.34 0a4 4 0 0 1-4.27 4.38h-2.4v-8.77h2.4a4.26 4.26 0 0 1 3 1 4.33 4.33 0 0 1 1.26 3.36m-28.94-3.07v-1.29h-5.65v3.59h-1.2v1.28h1.2v3.9h1.32v-3.9h2.92v-1.29h-2.92v-2.29h4.33zm-96.21 6.2v-2.77h3.02v-1.27h-3.02v-2.16h4.33v-1.28h-5.64v3.44h-1.21v1.27h1.21v4.04h5.82v-1.27h-4.51zM111 146.7a2.46 2.46 0 0 1-.77 1.92 3.66 3.66 0 0 1-2.47.74 3.91 3.91 0 0 1-3.12-1.42l.94-.91a3 3 0 0 0 2.28 1c1.21 0 1.81-.43 1.81-1.28a1 1 0 0 0-.43-.81 5.82 5.82 0 0 0-1.54-.64 6.18 6.18 0 0 1-2.07-.92 2 2 0 0 1-.68-1.66 2.16 2.16 0 0 1 .83-1.78 3.21 3.21 0 0 1 2.07-.66 3.94 3.94 0 0 1 2.86 1.19l-.92.93a2.78 2.78 0 0 0-2-.83 1.72 1.72 0 0 0-1.1.3 1 1 0 0 0-.37.78.87.87 0 0 0 .4.75 5.82 5.82 0 0 0 1.52.62 6.09 6.09 0 0 1 2 .93 2.1 2.1 0 0 1 .75 1.71m8.36-4.92h-2.56v7.48h-1.31v-7.48h-2.56v-1.29h6.43v1.29zm7.65 1.37a1.36 1.36 0 0 0-.41-1.05 1.57 1.57 0 0 0-1.08-.37H123v2.82h2.56c1 0 1.49-.47 1.49-1.4m1.32 0a2.38 2.38 0 0 1-1.93 2.57l1.8 3.58h-1.54l-1.7-3.51h-2v3.47h-1.29v-8.77h3.85a3 3 0 0 1 2 .63 2.45 2.45 0 0 1 .84 2m27.26-1.34h-2.55v7.48h-1.32v-7.48h-2.55v-1.29h6.42v1.29zm-22.41 6.2v-2.77h3.01v-1.27h-3.01v-2.16h4.32v-1.28h-5.64v3.44h-1.21v1.27h1.21v4.04h5.83v-1.27h-4.51z"/><path d="M142.26 147.94v-2.77h3.02v-1.27h-3.02v-2.16h4.33v-1.28h-5.64v3.44h-1.21v1.27h1.21v4.04h5.83v-1.27h-4.52z"/></svg>