<?xml version="1.0" encoding="utf-8"?>
<svg version="1.1" id="Layer_1" xmlns="http://www.w3.org/2000/svg" xmlns:xlink="http://www.w3.org/1999/xlink" x="0px" y="0px"
	width="100px" height="100px" viewBox="0 0 565.32 565.33" style="enable-background:new 0 0 565.32 565.33;" xml:space="preserve">
<g>
	<defs>
		<path id="SVGID_1_" d="M282.66,0L282.66,0c156.11,0,282.66,126.55,282.66,282.66v0.02c0,156.11-126.55,282.66-282.66,282.66h0
			C126.55,565.33,0,438.78,0,282.67v-0.02C0,126.55,126.55,0,282.66,0z"/>
	</defs>
	<clipPath id="SVGID_2_">
		<use xlink:href="#SVGID_1_"  style="overflow:visible;"/>
	</clipPath>
	<g style="clip-path:url(#SVGID_2_);">
		<path style="fill:#44AC99;" d="M565.32,450.86c0,63.22-51.25,114.47-114.47,114.47H114.46C51.25,565.33,0,514.08,0,450.86V114.47
			C0,51.25,51.25,0,114.46,0h336.39c63.22,0,114.47,51.25,114.47,114.47L565.32,450.86"/>
	</g>
</g>
<path style="fill:#FFFFFF;" d="M439.19,353.41c-19.68,0-33.3-18.08-35.66-42.08c5.97-20.47,19.22-30.67,34.9-30.67
	c20.14,0,31.51,14.87,31.51,36.02C469.94,339.37,456.98,353.41,439.19,353.41L439.19,353.41z M444.13,260.83
	c-19.89,0-34.09,9.2-41.26,22.81c0-32.18,11.21-60.18,37.85-60.18c16.94,0,23.66,9.74,27.25,25.72l24.67-4.94
	c-5.79-27.58-23.33-40.99-51.74-40.99c-35.69,0-62.4,27.41-62.4,88.83c0,54.53,22.27,81.48,60.64,81.48
	c31.7,0,55.45-21.65,55.45-57.33C494.58,288.36,479.72,260.83,444.13,260.83 M269.44,350.19c12.56-8.68,30.56-23.09,38.54-31.09
	c9.08-9.08,34.93-32.42,34.93-65.71c0-34.4-22.42-50.14-52.73-50.14c-36.75,0.01-54.89,22.63-54.89,48.51
	c-0.01,4.44,0.54,8.87,1.64,13.17l25.18,2.42c-1.06-4.7-1.61-9.51-1.64-14.33c0-19.37,12.82-28.65,28.88-28.65
	c15.65,0,27.24,8.77,27.24,29.86c0,21.43-10.48,36.04-26.45,52.03c-16.69,16.7-43.37,36.64-56.23,45.8v19.75h110.87v-21.61
	L269.44,350.19 M195.22,415.02v21.6H60.72v-21.6H195.22 M195.22,140.19v21.61H60.72v-21.61H195.22 M170.02,205.02v114.09
	c0,10.1,0.23,16.21,0.7,22.08h-0.47c-2.47-6.72-5.38-12.62-9.72-20.29L93.05,205.02H62.21V371.8h24.03v-114.1
	c0-10.1-0.23-16.21-0.7-22.08h0.49c2.46,6.72,5.37,12.61,9.72,20.28l67.46,115.91h30.52V205.02L170.02,205.02"/>
</svg>
